<svg width="300" height="300" viewBox="0 0 300 300" fill="none" xmlns="http://www.w3.org/2000/svg">
<g clip-path="url(#clip0_25_2)">
<mask id="mask0_25_2" style="mask-type:luminance" maskUnits="userSpaceOnUse" x="0" y="0" width="300" height="300">
<path d="M300 0H0V300H300V0Z" fill="white"/>
</mask>
<g mask="url(#mask0_25_2)">
<path d="M161.331 156.641C178.051 156.641 194.269 162.563 206.621 174.17L275.835 239.119H242.646L190.165 189.889C182.446 182.67 172.153 178.81 161.345 178.81C150.537 178.81 140.244 182.67 132.524 189.889L80.0433 239.119H46.8549L116.069 174.17C128.42 162.576 144.625 156.641 161.358 156.641H161.331ZM161.331 141.187C144.612 141.187 128.394 135.264 116.042 123.657L46.8418 58.6957H80.0301L132.511 107.926C140.231 115.144 150.524 119.004 161.331 119.004C172.139 119.004 182.432 115.144 190.152 107.926L242.633 58.6957H275.822L206.608 123.644C194.256 135.238 178.051 141.174 161.318 141.174L161.331 141.187Z" fill="white"/>
<path d="M103.44 148.921L31.1384 210.26C25.7412 215.152 19.5654 212.838 19.5654 205.62V92.2081C19.5654 84.9901 25.7412 82.6767 31.1384 87.568L103.44 148.908V148.921Z" fill="white"/>
</g>
</g>
<defs>
<clipPath id="clip0_25_2">
<rect width="300" height="300" fill="white"/>
</clipPath>
</defs>
</svg>
