<svg width="24" height="24" viewBox="0 0 24 24" fill="none" xmlns="http://www.w3.org/2000/svg">
<path d="M12 24C18.6504 24 24 18.6504 24 12C24 5.3496 18.6504 0 12 0C5.3496 0 0 5.3496 0 12C0 18.6504 5.3496 24 12 24Z" fill="#2775CA"/>
<path d="M12 24C18.6504 24 24 18.6504 24 12C24 5.3496 18.6504 0 12 0C5.3496 0 0 5.3496 0 12C0 18.6504 5.3496 24 12 24Z" fill="black"/>
<path d="M15.3 13.8996C15.3 12.15 14.25 11.55 12.15 11.2992C10.65 11.0988 10.35 10.6992 10.35 9.99961C10.35 9.30001 10.8504 8.85001 11.85 8.85001C12.75 8.85001 13.2504 9.15001 13.5 9.90001C13.5504 10.05 13.7004 10.1496 13.8504 10.1496H14.6508C14.8512 10.1496 15.0012 9.99961 15.0012 9.79921V9.74881C14.8008 8.64841 13.9008 7.79881 12.7512 7.69921V6.49921C12.7512 6.29881 12.6012 6.14881 12.3516 6.09961H11.6016C11.4012 6.09961 11.2512 6.24961 11.202 6.49921V7.64881C9.70196 7.84921 8.75156 8.84881 8.75156 10.0992C8.75156 11.7492 9.75116 12.3996 11.8512 12.6492C13.2516 12.8988 13.7016 13.1988 13.7016 13.9992C13.7016 14.7996 13.002 15.3492 12.0516 15.3492C10.752 15.3492 10.302 14.7996 10.152 14.0496C10.1016 13.8492 9.95156 13.7496 9.80156 13.7496H8.95196C8.75156 13.7496 8.60156 13.8996 8.60156 14.1V14.1504C8.80196 15.4008 9.60116 16.3008 11.2512 16.5504V17.7504C11.2512 17.9508 11.4012 18.1008 11.6508 18.15H12.4008C12.6012 18.15 12.7512 18 12.8004 17.7504V16.5504C14.2992 16.2996 15.3 15.2496 15.3 13.8996Z" fill="white"/>
<path d="M9.44837 19.1502C5.54837 17.7498 3.54797 13.3998 4.99877 9.55018C5.74877 7.45018 7.39877 5.85058 9.44837 5.10058C9.64877 5.00098 9.74837 4.85098 9.74837 4.60018V3.90058C9.74837 3.70018 9.64877 3.55018 9.44837 3.50098C9.39797 3.50098 9.29837 3.50098 9.24797 3.55138C4.49837 5.05138 1.89797 10.101 3.39797 14.8518C4.29797 17.6514 6.44837 19.8018 9.24797 20.7018C9.44837 20.8014 9.64757 20.7018 9.69797 20.5014C9.74837 20.451 9.74837 20.4018 9.74837 20.301V19.6014C9.74837 19.4502 9.59837 19.251 9.44837 19.1502ZM14.7476 3.55018C14.5472 3.45058 14.348 3.55018 14.2976 3.75058C14.2472 3.80098 14.2472 3.85018 14.2472 3.95098V4.65058C14.2472 4.85098 14.3972 5.05018 14.5472 5.15098C18.4472 6.55138 20.4476 10.9014 18.9968 14.751C18.2468 16.851 16.5968 18.4506 14.5472 19.2006C14.3468 19.3002 14.2472 19.4502 14.2472 19.701V20.4006C14.2472 20.601 14.3468 20.751 14.5472 20.8002C14.5976 20.8002 14.6972 20.8002 14.7476 20.7498C19.4972 19.2498 22.0976 14.2002 20.5976 9.44938C19.6976 6.60058 17.498 4.45018 14.7476 3.55018Z" fill="white"/>
</svg>
