<?xml version="1.0" encoding="utf-8"?>
<!-- Generator: Adobe Illustrator 23.0.2, SVG Export Plug-In . SVG Version: 6.00 Build 0)  -->
<svg version="1.1" id="Livello_1" xmlns="http://www.w3.org/2000/svg" xmlns:xlink="http://www.w3.org/1999/xlink" x="0px" y="0px"
	 viewBox="0 0 102.9 99.4" style="enable-background:new 0 0 102.9 99.4;" xml:space="preserve">
<style type="text/css">
	.st0{fill:url(#SVGID_1_);}
</style>
<linearGradient id="SVGID_1_" gradientUnits="userSpaceOnUse" x1="-517.6596" y1="465.4873" x2="-516.3586" y2="466.6773" gradientTransform="matrix(91.3984 0 0 -98.2713 47299.6602 45857.5156)">
	<stop  offset="0" style="stop-color:#1B94A5"/>
	<stop  offset="1" style="stop-color:#4CD57B"/>
</linearGradient>
<path class="st0" d="M88.7,72.7c-0.9,1.4-1.9,2.8-3,4.1l-10.7-7c1-1.1,1.9-2.2,2.8-3.5l-4.6-2.7c-3.6,5.1-9.1,8.7-15.2,10
	c-1.6-2.1-4.6-2.6-6.7-1c-0.5,0.4-0.9,0.8-1.2,1.4c-5.2-0.6-10.1-2.8-13.9-6.3c0.7-2.5-0.8-5.2-3.4-5.9c-0.4-0.1-0.8-0.2-1.3-0.2
	c-0.1,0-0.2,0-0.3,0c-2.2-3.8-3.4-8-3.4-12.4c2.3-1.3,3.1-4.2,1.9-6.5c-0.2-0.4-0.5-0.7-0.8-1c2.7-8.7,9.8-15.2,18.7-17.1
	c2,1.8,5,1.6,6.8-0.3c0.1-0.1,0.1-0.1,0.1-0.2c3.8,0.3,7.5,1.4,10.9,3.3c0.2,2.6,2.5,4.6,5.1,4.4c0.1,0,0.3,0,0.4,0
	c0.8,0.9,1.6,1.8,2.3,2.8l4.6-2.7c-0.9-1.3-1.9-2.6-3-3.7c0.2-0.9,0.2-1.8-0.1-2.7l9.4-5.9c1.7,1.8,3.3,3.8,4.7,6l4.6-2.7
	C87.7,14.5,79.6,7.8,70,4.1c-0.6-2.6-3.2-4.2-5.8-3.6c-0.9,0.2-1.6,0.6-2.3,1.2C50.5-0.4,38.6,1.6,28.4,7.5c-2.5-1-5.2,0.2-6.2,2.7
	c-0.2,0.6-0.3,1.2-0.3,1.8c0,0,0,0.1,0,0.1C8.5,23,2.1,40.4,5,57.4c-2.5,0.9-3.8,3.7-2.8,6.2c0.8,2.2,3.1,3.5,5.4,3.1
	c2.7,6.9,6.9,13.1,12.3,18.1c-0.3,2.6,1.6,5,4.2,5.3c0.7,0.1,1.5,0,2.2-0.3c9.9,6.4,21.7,9,33.4,7.3c1.7,2,4.8,2.2,6.8,0.5
	c0.7-0.6,1.3-1.5,1.5-2.5c10.4-3.5,19.3-10.5,25.3-19.7L88.7,72.7z M68.1,9.1c5.4,2.1,10.3,5.2,14.4,9.2l-9,5.6
	c-0.9-1-2.2-1.5-3.5-1.5c-0.1,0-0.2,0-0.3,0L67.2,9.7C67.5,9.5,67.9,9.4,68.1,9.1z M62.2,8.9c0.8,0.8,1.9,1.2,3.1,1.2L67.8,23
	c-3.9-2.3-8.3-3.6-12.8-3.9c-0.1-0.2-0.2-0.3-0.3-0.5L62.2,8.9z M31.5,11.9c8.9-5.1,19.4-6.8,29.4-4.8c0,0,0,0.1,0.1,0.1l-7.8,10
	c-2.2-1.4-5.2-0.7-6.6,1.6c0,0,0,0.1-0.1,0.1l-15.2-5.8C31.4,12.7,31.5,12.3,31.5,11.9C31.5,11.9,31.5,11.9,31.5,11.9L31.5,11.9z
	 M27.2,16.7c1.3-0.1,2.5-0.8,3.3-1.8l13.8,5.2c-7.5,2.2-13.9,7.2-17.8,13.9L27.2,16.7z M9.7,49.3c0-12.7,5.6-24.7,15.3-32.9
	c0.1,0,0.1,0,0.2,0.1l-0.9,22.2c-0.3,0.7-0.5,1.4-0.7,2.2c-2.5,1-3.6,3.8-2.7,6.2c0.1,0.1,0.1,0.3,0.2,0.4L10.6,58.1
	C10,55.2,9.7,52.2,9.7,49.3z M11.2,60.4l11.1-11.3c0,0.1,0,0.1,0,0.2c0,5.5,1.5,10.8,4.3,15.5l-15.2-3.6
	C11.4,60.9,11.3,60.6,11.2,60.4z M25,80.5c-0.1,0-0.2,0-0.3,0c-0.5,0-0.9,0.1-1.3,0.2c-5.1-4.8-9-10.7-11.3-17.3l14.5,3.5
	c0.1,1.6,0.9,3,2.3,3.9L25,80.5z M26.9,81l3.8-9.7c0.4,0.1,0.8,0.1,1.2,0c3.5,3.3,7.8,5.7,12.4,7.1l-15.6,4.3
	C28.3,82,27.7,81.4,26.9,81L26.9,81z M59,91.8c-2.1,0.3-4.2,0.5-6.4,0.5c-8.2,0-16.3-2.4-23.2-6.8c0-0.1,0-0.1,0-0.2
	c0-0.2,0-0.5-0.1-0.7l19.3-5.3c0.5,0.1,1,0.1,1.5,0.2c1.1,1.5,3.1,2.2,4.9,1.8l5.3,8.9C59.8,90.6,59.4,91.2,59,91.8L59,91.8z
	 M63.3,89.1c-0.4,0-0.8,0.1-1.2,0.2l-5.2-8.9c0.5-0.4,0.9-0.8,1.2-1.3c3.7-0.7,7.3-2,10.5-4l-4.7,14.1
	C63.7,89.1,63.5,89.1,63.3,89.1L63.3,89.1z M66.2,90.1c-0.1-0.1-0.2-0.2-0.4-0.2l5.5-16.7c0.7-0.6,1.5-1.2,2.1-1.8l10.8,7.1
	C79.4,83.7,73.1,87.8,66.2,90.1L66.2,90.1z"/>
</svg>
