<?xml version="1.0" encoding="UTF-8"?><svg id="Layer_1" xmlns="http://www.w3.org/2000/svg" xmlns:xlink="http://www.w3.org/1999/xlink" viewBox="0 0 1000 1000"><defs><style>.cls-1{fill:#fff;}.cls-2{fill:url(#New_Gradient_Swatch_4);}</style><linearGradient id="New_Gradient_Swatch_4" x1="73.85" y1="671.28" x2="923.97" y2="327.81" gradientUnits="userSpaceOnUse"><stop offset="0" stop-color="#1b93a4"/><stop offset="1" stop-color="#65b776"/></linearGradient></defs><circle class="cls-2" cx="498.91" cy="499.54" r="458.32"/><path class="cls-1" d="M758.51,669.02c-6.73,10.29-14.02,20.18-21.9,29.57l-77.25-50.38c7.23-7.8,13.86-16.15,19.91-24.94l-33.4-19.28c-25.81,36.25-64.65,62.61-109.66,72.12-6.31-8.42-16.34-13.89-27.68-13.89-12.53,0-23.48,6.68-29.55,16.66-38.41-4.25-73.22-20.59-100.52-45.15,.77-2.88,1.23-5.89,1.23-9.01,0-19.12-15.5-34.62-34.62-34.62-.67,0-1.33,.06-1.99,.1-15.3-26.25-24.17-56.66-24.42-89.11,10.59-5.92,17.75-17.23,17.75-30.22,0-9.39-3.76-17.9-9.83-24.14,19.07-61.9,70.63-109.66,134.69-123.32,6.14,5.57,14.27,9,23.22,9,10.72,0,20.29-4.87,26.64-12.52,28.4,1.91,55,10.42,78.31,24.02,1.45,17.79,16.31,31.78,34.47,31.78,1.78,0,3.52-.18,5.23-.44,6.04,6.32,11.61,13.08,16.69,20.22l33.38-19.27c-6.55-9.52-13.79-18.54-21.72-26.9,.64-2.64,1.02-5.39,1.02-8.22,0-3.88-.67-7.6-1.84-11.08l68.01-42.5c12.48,13.27,23.77,27.65,33.79,42.95l33.42-19.29c-39.84-61.63-98.6-109.95-167.98-136.71-3.61-15.26-17.29-26.64-33.65-26.64-9.44,0-17.99,3.79-24.23,9.91-21.73-4.26-44.16-6.55-67.12-6.55-63.66,0-123.34,17.24-174.75,47.17-3.95-1.57-8.24-2.45-12.75-2.45-19.12,0-34.62,15.5-34.62,34.62,0,.27,.03,.52,.04,.79-77.21,63.99-126.48,160.57-126.48,268.44,0,20.05,1.8,39.69,5.06,58.83-13.32,4.82-22.85,17.54-22.85,32.52,0,19.12,15.5,34.62,34.62,34.62,2.25,0,4.44-.23,6.57-.64,19.39,50.14,50.01,94.71,88.83,130.59-.13,1.22-.2,2.46-.2,3.71,0,19.12,15.5,34.62,34.62,34.62,4.23,0,8.26-.8,12.01-2.18,54.68,35.68,119.9,56.51,189.92,56.51,17.27,0,34.23-1.31,50.83-3.75,6.35,7.29,15.67,11.92,26.09,11.92,16.22,0,29.79-11.17,33.55-26.22,75.7-25.37,139.86-76.08,182.45-141.96l-33.33-19.25Zm-148.02-458.56c39.04,15.11,74.26,37.88,103.84,66.49l-65.01,40.63c-6.32-6.84-15.34-11.14-25.39-11.14-.75,0-1.49,.07-2.23,.11l-17.94-92.26c2.4-1.02,4.65-2.33,6.74-3.84Zm-43.04-2.07c5.93,5.22,13.65,8.43,22.13,8.6l18.09,93.05c-27.65-15.91-59.07-25.94-92.57-28.41-.61-1.15-1.28-2.27-2.01-3.35l54.36-69.89Zm-221.43,21.72c45.16-25.71,97.33-40.48,152.91-40.48,20.27,0,40.07,2.02,59.26,5.75,.13,.31,.26,.63,.39,.93l-56.01,72.01c-5.26-3.23-11.44-5.13-18.07-5.13-12.72,0-23.81,6.89-29.83,17.11l-109.68-41.5c.66-2.67,1.05-5.44,1.05-8.31,0-.13-.02-.25-.02-.38Zm-31.09,34.82c9.63-.97,18.06-5.9,23.72-13.11l99.74,37.74c-54.63,15.76-100.51,52.25-128.57,100.4l5.1-125.03Zm-126.1,234.79c0-94.92,42.91-179.97,110.31-236.9,.47,.18,.94,.36,1.42,.52l-6.52,159.81c-1.92,5.12-3.62,10.34-5.16,15.64-12.71,5.13-21.68,17.55-21.68,32.09,0,5.79,1.44,11.23,3.95,16.03l-75.64,76.83c-4.35-20.66-6.68-42.07-6.68-64.01Zm11.08,80.1l80.31-81.57c0,.49-.04,.98-.04,1.48,0,40.9,11.31,79.2,30.93,111.98l-109.79-26.27c-.32-1.93-.78-3.8-1.41-5.61Zm99.57,145.03c-.82-.06-1.64-.13-2.47-.13-3.36,0-6.6,.5-9.67,1.4-36.4-34.04-64.58-76.7-81.3-124.72l104.51,25.01c.57,11.87,7.1,22.15,16.68,27.94l-27.75,70.51Zm13.92,4l27.47-69.8c1.38,.17,2.78,.28,4.21,.28s2.82-.11,4.2-.28c25.1,23.59,55.74,41.31,89.75,51.01l-112.81,30.77c-3.18-5.01-7.58-9.16-12.82-11.98Zm231.51,77.54c-15.01,2.24-30.36,3.43-45.98,3.43-61.62,0-119.05-18.14-167.37-49.25,.01-.41,.06-.81,.06-1.23,0-1.67-.16-3.31-.39-4.92l138.95-37.9c3.56,.47,7.15,.85,10.77,1.15,6.32,8.36,16.31,13.78,27.6,13.78,2.65,0,5.21-.32,7.69-.89l37.92,64.32c-3.86,3.11-7.01,7.03-9.25,11.5Zm30.94-19.17c-3.04,0-5.97,.43-8.79,1.17l-37.7-63.95c3.45-2.61,6.39-5.84,8.66-9.54,27.33-4.95,52.91-14.97,75.71-29.09l-33.57,101.7c-1.42-.18-2.85-.3-4.31-.3Zm20.56,6.81c-.85-.63-1.72-1.21-2.62-1.76l39.71-120.27c5.37-4.21,10.54-8.65,15.5-13.33l78.02,50.88c-35.28,38.32-80.08,67.71-130.6,84.49Z"/></svg>