<?xml version="1.0" encoding="utf-8"?>
<!-- Generator: Adobe Illustrator 16.0.0, SVG Export Plug-In . SVG Version: 6.00 Build 0)  -->
<!DOCTYPE svg PUBLIC "-//W3C//DTD SVG 1.1//EN" "http://www.w3.org/Graphics/SVG/1.1/DTD/svg11.dtd">
<svg version="1.1" id="Layer_1" xmlns="http://www.w3.org/2000/svg" xmlns:xlink="http://www.w3.org/1999/xlink" x="0px" y="0px"
	 width="841.89px" height="595.28px" viewBox="0 0 841.89 595.28" enable-background="new 0 0 841.89 595.28" xml:space="preserve">
<g>
	<g>
		<g>
			<g>
				<linearGradient id="SVGID_1_" gradientUnits="userSpaceOnUse" x1="558.0762" y1="429.8096" x2="558.0762" y2="341.0986">
					<stop  offset="0" style="stop-color:#951F28"/>
					<stop  offset="1" style="stop-color:#E9B51C"/>
				</linearGradient>
				<path fill="url(#SVGID_1_)" d="M608.02,348.111c-24.188-14.219-55.315-6.129-69.535,18.059l-1.074,1.704l-24.326,42.122
					c-0.87,1.857-1.88,3.638-3.051,5.301l-0.253,0.428c-5.953,8.397-15.675,13.901-26.728,14.085h18.595h93.031
					c15.023,0,25.855-4.9,31.751-12.844l2.68-5.35C638.889,388.508,630.252,361.163,608.02,348.111z"/>
			</g>
		</g>
		<g>
			<linearGradient id="SVGID_2_" gradientUnits="userSpaceOnUse" x1="340.8481" y1="473.6309" x2="627.125" y2="473.6309">
				<stop  offset="0" style="stop-color:#951F28"/>
				<stop  offset="1" style="stop-color:#E9B51C"/>
			</linearGradient>
			<path fill="url(#SVGID_2_)" d="M594.679,429.81h-93.031H367.625c-11.073-0.184-20.831-5.728-26.777-14.183l8.177,14.183
				l46.522,80.571c7.811,13.54,17.928,20.561,28.165,21.242c1.079,0.017,2.165,0.017,3.246,0
				c17.155-0.232,34.191-4.098,47.287-11.651l119.17-68.812c12.614-7.28,24.054-19.438,32.735-33.473
				c0.329-0.532,0.644-1.065,0.974-1.59C621.396,424.574,610.263,429.81,594.679,429.81z"/>
		</g>
		<g>
			<linearGradient id="SVGID_3_" gradientUnits="userSpaceOnUse" x1="219.2012" y1="408.2334" x2="423.7129" y2="408.2334">
				<stop  offset="0" style="stop-color:#951F28"/>
				<stop  offset="1" style="stop-color:#E9B51C"/>
			</linearGradient>
			<path fill="url(#SVGID_3_)" d="M395.548,510.381l-46.522-80.571l-8.416-14.591c-1.12-1.596-2.096-3.295-2.937-5.082
				l-53.349-92.398c-1.681-2.242-3.126-4.669-4.221-7.306c-1.632-3.938-2.537-8.252-2.537-12.788c0-4.543,0.905-8.862,2.537-12.802
				l-7.382,12.802l-46.509,80.563c-7.812,13.496-8.842,25.751-4.348,34.949c0.539,0.982,1.106,1.95,1.683,2.924
				c8.771,14.716,20.634,27.525,33.709,35.079l119.167,68.812c13.096,7.554,30.134,11.419,47.291,11.651
				C413.476,530.941,403.359,523.921,395.548,510.381z"/>
		</g>
		<g>
			<linearGradient id="SVGID_4_" gradientUnits="userSpaceOnUse" x1="163.6284" y1="354.9219" x2="359.9307" y2="158.6196">
				<stop  offset="0" style="stop-color:#E9B51C"/>
				<stop  offset="1" style="stop-color:#951F28"/>
			</linearGradient>
			<path fill="url(#SVGID_4_)" d="M349.025,165.471h-56.484H256c-15.58,0-26.699,5.209-32.426,13.679
				c-0.591,0.996-1.172,1.998-1.724,3.008c-8.351,14.947-13.504,31.592-13.504,46.68v137.608c0,15.093,5.161,31.759,13.518,46.712
				c-4.494-9.198-3.464-21.453,4.348-34.949l46.509-80.563l7.382-12.802c1.094-2.622,2.54-5.062,4.221-7.298l53.371-92.429
				l2.902-5.048l0.272-0.477l0,0c5.8-8.225,15.195-13.672,25.915-14.121H349.025z"/>
		</g>
		<g>
			<linearGradient id="SVGID_5_" gradientUnits="userSpaceOnUse" x1="223.5747" y1="121.5859" x2="509.7607" y2="121.5859">
				<stop  offset="0" style="stop-color:#E9B51C"/>
				<stop  offset="1" style="stop-color:#951F28"/>
			</linearGradient>
			<path fill="url(#SVGID_5_)" d="M501.647,165.471l-46.519-80.578c-7.783-13.489-17.871-20.513-28.071-21.227
				c-1.151-0.022-2.293-0.022-3.45,0c-17.115,0.244-34.118,4.102-47.186,11.644l-119.167,68.806
				c-13.061,7.552-24.903,20.332-33.681,35.034c5.727-8.47,16.846-13.679,32.426-13.679h93.025H483.91
				c10.691,0.449,20.052,5.868,25.851,14.051L501.647,165.471z"/>
		</g>
		<linearGradient id="SVGID_6_" gradientUnits="userSpaceOnUse" x1="423.7129" y1="531.6484" x2="426.959" y2="531.6484">
			<stop  offset="0" style="stop-color:#E9B51C"/>
			<stop  offset="1" style="stop-color:#951F28"/>
		</linearGradient>
		<path fill="url(#SVGID_6_)" d="M423.713,531.623c1.079,0.067,2.165,0.067,3.246,0C425.878,531.64,424.792,531.64,423.713,531.623z
			"/>
		<linearGradient id="SVGID_7_" gradientUnits="userSpaceOnUse" x1="221.8506" y1="180.6538" x2="223.5747" y2="180.6538">
			<stop  offset="0" style="stop-color:#E9B51C"/>
			<stop  offset="1" style="stop-color:#951F28"/>
		</linearGradient>
		<path fill="url(#SVGID_7_)" d="M221.851,182.158c0.552-1.01,1.133-2.012,1.724-3.008
			C222.921,180.111,222.348,181.106,221.851,182.158z"/>
		<linearGradient id="SVGID_8_" gradientUnits="userSpaceOnUse" x1="221.8638" y1="414.6191" x2="223.5464" y2="414.6191">
			<stop  offset="0" style="stop-color:#E9B51C"/>
			<stop  offset="1" style="stop-color:#951F28"/>
		</linearGradient>
		<path fill="url(#SVGID_8_)" d="M223.546,416.081c-0.576-0.974-1.144-1.941-1.683-2.924
			C222.355,414.166,222.921,415.138,223.546,416.081z"/>
		<linearGradient id="SVGID_9_" gradientUnits="userSpaceOnUse" x1="423.6074" y1="63.6367" x2="427.0576" y2="63.6367">
			<stop  offset="0" style="stop-color:#E9B51C"/>
			<stop  offset="1" style="stop-color:#951F28"/>
		</linearGradient>
		<path fill="url(#SVGID_9_)" d="M427.058,63.667c-1.151-0.079-2.293-0.079-3.45,0C424.765,63.644,425.906,63.644,427.058,63.667z"
			/>
		<g>
			<linearGradient id="SVGID_10_" gradientUnits="userSpaceOnUse" x1="427.0576" y1="159.3867" x2="633.5439" y2="159.3867">
				<stop  offset="0" style="stop-color:#E9B51C"/>
				<stop  offset="1" style="stop-color:#951F28"/>
			</linearGradient>
			<path fill="url(#SVGID_10_)" d="M624.634,175.188c-8.482-13.025-19.335-24.215-31.218-31.072L474.246,75.31
				c-13.067-7.542-30.062-11.399-47.188-11.644c10.2,0.714,20.288,7.737,28.071,21.227l46.519,80.578l36.879,64.445
				c14.273,24.304,45.544,32.429,69.837,18.146c24.293-14.261,32.412-45.53,18.146-69.829L624.634,175.188z"/>
		</g>
	</g>
</g>
</svg>
