<!DOCTYPE svg PUBLIC "-//W3C//DTD SVG 20010904//EN"
 "http://www.w3.org/TR/2001/REC-SVG-20010904/DTD/svg10.dtd">
<svg version="1.0" xmlns="http://www.w3.org/2000/svg"
 width="512.000000pt" height="512.000000pt" viewBox="0 0 512.000000 512.000000"
 preserveAspectRatio="xMidYMid meet">

<g transform="translate(0.000000,512.000000) scale(0.100000,-0.100000)"
fill="#000000" stroke="none">
<path d="M2415 5094 c-461 -35 -864 -168 -1233 -406 -505 -327 -890 -843
-1057 -1419 -71 -243 -99 -448 -99 -714 0 -266 28 -471 99 -714 198 -679 684
-1257 1320 -1566 258 -126 475 -193 756 -236 204 -31 524 -31 728 0 281 43
498 110 756 236 503 245 914 655 1160 1160 126 257 193 475 236 756 26 171 31
505 10 659 -58 429 -187 776 -416 1120 -402 604 -1042 1003 -1776 1105 -106
15 -392 26 -484 19z m328 -290 l37 -7 0 -386 0 -386 -223 0 c-208 0 -229 -2
-329 -27 -199 -51 -325 -107 -493 -219 -198 -132 -363 -322 -478 -547 -98
-192 -140 -341 -157 -555 -8 -109 1 -322 16 -369 5 -17 27 -18 280 -18 213 0
274 3 274 13 0 6 -5 28 -10 47 -22 75 -31 214 -20 310 14 122 33 195 81 298
52 112 110 192 211 288 100 93 213 161 348 206 93 32 99 32 280 32 177 1 189
-1 270 -28 194 -65 324 -154 461 -319 l49 -58 2 793 c3 787 3 793 23 790 35
-6 296 -136 385 -192 468 -293 819 -755 970 -1274 175 -606 95 -1248 -224
-1790 -290 -492 -809 -884 -1358 -1025 -215 -55 -302 -66 -558 -66 l-235 0 -3
391 -2 390 197 0 c218 0 318 15 495 74 427 143 776 496 917 928 61 187 74 278
69 504 -3 106 -8 200 -12 209 -10 23 -75 29 -333 29 -187 0 -223 -2 -223 -14
0 -8 7 -45 16 -83 12 -53 15 -102 11 -218 -6 -174 -18 -228 -86 -370 -176
-370 -582 -580 -984 -510 -232 40 -434 162 -590 355 l-37 45 0 -799 0 -798
-27 7 c-57 13 -332 154 -433 222 -340 226 -613 538 -790 905 -154 320 -219
612 -220 977 0 276 34 485 122 741 276 804 1006 1392 1855 1495 114 14 392 19
456 9z"/>
</g>
</svg>