<svg xmlns="http://www.w3.org/2000/svg" xmlns:svg="http://www.w3.org/2000/svg" id="svg18" width="800" height="800" version="1.1" viewBox="0 0 800 800"><metadata id="metadata22"/><defs id="defs4"><style id="style2">.cls-2{fill:#fff}.cls-3{fill:#d0d2d3}.cls-4{fill:#5c67b0}</style><filter style="color-interpolation-filters:sRGB" id="filter892" width="1" height="1" x="0" y="0"><feGaussianBlur id="feGaussianBlur894" stdDeviation="0"/></filter></defs><g id="layer1" style="display:inline"><g id="layer3" style="display:inline;filter:url(#filter892)"><circle style="fill:#fff;fill-opacity:1;stroke:#d0d2d3;stroke-width:23.5381;stroke-miterlimit:4;stroke-dasharray:none;stroke-opacity:1" id="path896" cx="400" cy="400" r="388.231"/></g><path id="path8" d="M 400,800 A 400,400 0 1 1 800,400 400.47337,400.47337 0 0 1 400,800 Z M 400,23.668639 A 376.33136,376.33136 0 1 0 776.33136,400 376.7574,376.7574 0 0 0 400,23.668639 Z" class="cls-3" style="stroke-width:4.734;stroke-miterlimit:4;stroke-dasharray:none"/><g id="g864"><path id="path10" d="m 345.56213,289.08876 55.05325,-87.24261 56.18935,84.59172 a 87.289941,87.289941 0 1 0 -111.2426,2.65089 z" class="cls-4" style="stroke-width:4.73373"/><path id="path12" d="m 328.94674,516.54438 -103.19526,-1.23077 42.60355,-92.16568 a 87.242603,87.242603 0 1 0 60.59171,93.39645 z" class="cls-4" style="stroke-width:4.73373"/><path id="path14" d="m 468.63905,518.01183 103.14793,-2.84023 -44.21302,-91.50296 a 87.242603,87.242603 0 1 1 -58.93491,94.34319 z" class="cls-4" style="stroke-width:4.73373"/></g></g><circle id="circle6" cx="400" cy="400" r="388.166" class="cls-2" style="stroke-width:4.73373;fill:#fff;fill-opacity:0"/></svg>