<svg width="500" height="500" viewBox="0 0 500 500" fill="none" xmlns="http://www.w3.org/2000/svg">
<path fill-rule="evenodd" clip-rule="evenodd" d="M93.4439 231.467C91.9859 232.851 91.0566 234.155 90.8721 235.076C90.7135 235.869 90.4075 236.629 90.1915 236.761C89.647 237.098 89.6976 241.784 90.25 242.125C90.4975 242.278 90.7 242.765 90.7 243.208C90.7 243.65 91.105 244.378 91.6 244.825C92.095 245.273 92.5 245.878 92.5 246.169C92.5 246.46 93.0569 246.985 93.7375 247.336C94.4181 247.688 95.3676 248.33 95.8469 248.763C96.8222 249.643 102.127 249.907 102.625 249.1C102.778 248.853 103.28 248.65 103.741 248.65C104.986 248.65 108.528 244.896 108.863 243.22C110.591 234.581 106.933 229.3 99.2196 229.3H95.7276L93.4439 231.467ZM126.7 229.75C126.7 229.998 126.391 230.2 126.013 230.2C125.121 230.2 121.3 234.021 121.3 234.913C121.3 235.291 121.097 235.6 120.85 235.6C120.588 235.6 120.4 237.091 120.4 239.173C120.4 241.139 120.602 242.872 120.85 243.025C121.097 243.178 121.3 243.615 121.3 243.996C121.3 245.051 125.336 248.65 126.52 248.65C127.085 248.65 127.672 248.853 127.825 249.1C128.211 249.725 457.739 249.725 458.125 249.1C458.278 248.853 458.759 248.65 459.196 248.65C461.908 248.65 464.742 243.839 464.76 239.2C464.776 235.245 462.04 230.2 459.88 230.2C459.533 230.2 459.25 229.998 459.25 229.75C459.25 229.451 403.525 229.3 292.975 229.3C182.425 229.3 126.7 229.451 126.7 229.75ZM31.075 268.45C30.922 268.698 30.3269 268.9 29.7531 268.9C29.1434 268.9 27.9363 269.651 26.854 270.7L25 272.499V278.372C25 284.619 25.7099 286.388 28.2355 286.436C28.654 286.444 29.122 286.653 29.275 286.9C29.6012 287.429 37.6 287.518 37.6 286.994C37.6 286.797 38.2525 286.442 39.049 286.206C42.2485 285.256 44.233 280.067 43.2126 275.322C42.3036 271.091 32.776 265.697 31.075 268.45ZM61.675 268.45C61.522 268.698 61.0034 268.9 60.523 268.9C60.0426 268.9 59.65 269.103 59.65 269.35C59.65 269.598 59.3553 269.8 58.9953 269.8C57.0366 269.8 54.3434 274.492 54.3591 277.877C54.376 281.711 57.1626 286.45 59.3991 286.45C59.7557 286.45 60.172 286.653 60.325 286.9C60.5095 287.198 101.954 287.35 183.202 287.35C264.634 287.35 305.8 287.2 305.8 286.9C305.8 286.653 306.412 286.45 307.161 286.45C308.184 286.45 308.625 286.181 308.933 285.369C309.159 284.774 309.56 284.155 309.822 283.992C310.085 283.83 310.3 283.304 310.3 282.823C310.3 282.343 310.503 281.95 310.75 281.95C311.632 281.95 311.281 274.874 310.305 272.958C309.347 271.083 306.855 268.9 305.672 268.9C305.277 268.9 304.828 268.698 304.675 268.45C304.491 268.152 263.505 268 183.175 268C102.846 268 61.8595 268.152 61.675 268.45ZM99.025 307.15C98.872 307.398 98.062 307.6 97.225 307.6C96.388 307.6 95.578 307.803 95.425 308.05C95.272 308.298 94.8456 308.5 94.4777 308.5C93.715 308.5 91.6 310.47 91.6 311.18C91.6 311.439 91.3975 311.65 91.15 311.65C90.9025 311.65 90.7 312.157 90.7 312.775C90.7 313.394 90.4975 313.9 90.25 313.9C89.9958 313.9 89.8 315.175 89.8 316.825C89.8 318.476 89.9958 319.75 90.25 319.75C90.4975 319.75 90.7 320.109 90.7 320.549C90.7 321.628 95.0425 326.05 96.1022 326.05C96.5669 326.05 97.072 326.253 97.225 326.5C97.378 326.748 98.3905 326.95 99.475 326.95C100.559 326.95 101.572 326.748 101.725 326.5C101.878 326.253 102.399 326.05 102.883 326.05C104.904 326.05 108.422 322.827 108.875 320.56C109.789 315.992 108.516 309.892 106.45 308.949C106.079 308.779 105.322 308.406 104.768 308.12C104.215 307.834 103.063 307.6 102.208 307.6C101.353 307.6 100.528 307.398 100.375 307.15C100.222 306.903 99.9183 306.7 99.7 306.7C99.4818 306.7 99.178 306.903 99.025 307.15ZM125.8 308.05C125.8 308.298 125.325 308.5 124.745 308.5C123.772 308.5 122.2 309.715 122.2 310.467C122.2 310.643 121.824 311.191 121.365 311.684C119.863 313.296 120.246 321.55 121.822 321.55C122.03 321.55 122.2 321.863 122.2 322.246C122.2 323.146 124.205 325.15 125.105 325.15C125.487 325.15 125.8 325.353 125.8 325.6C125.8 325.848 126.408 326.05 127.15 326.05C127.893 326.05 128.5 326.253 128.5 326.5C128.5 326.8 177.25 326.95 273.85 326.95C370.45 326.95 419.2 326.8 419.2 326.5C419.2 326.253 419.808 326.05 420.55 326.05C421.293 326.05 421.9 325.882 421.9 325.677C421.9 325.471 422.388 325.041 422.985 324.722C426.245 322.978 428.21 315.943 426.392 312.531C425.311 310.503 423.484 308.5 422.714 308.5C422.296 308.5 421.828 308.298 421.675 308.05C421.491 307.752 371.645 307.6 273.598 307.6C175.366 307.6 125.8 307.751 125.8 308.05ZM47.5 345.85C47.5 346.098 47.095 346.3 46.6 346.3C46.105 346.3 45.7 346.503 45.7 346.75C45.7 346.998 45.3692 347.2 44.9654 347.2C44.1374 347.2 42.7143 348.675 42.3081 349.954C42.1608 350.419 41.8502 350.8 41.6196 350.8C41.389 350.8 41.2 351.193 41.2 351.673C41.2 352.154 40.9975 352.672 40.75 352.825C39.7994 353.413 40.7286 360.25 41.7591 360.25C41.947 360.25 42.1 360.563 42.1 360.946C42.1 363.763 52.5985 367.509 54.025 365.2C54.178 364.953 54.6021 364.75 54.9666 364.75C58.1987 364.75 62.692 353.527 60.1 351.925C59.8525 351.772 59.65 351.35 59.65 350.987C59.65 350.129 55.8216 346.3 54.9633 346.3C54.5999 346.3 54.178 346.098 54.025 345.85C53.872 345.603 52.3409 345.4 50.623 345.4C48.841 345.4 47.5 345.594 47.5 345.85ZM78.1 345.85C78.1 346.098 77.668 346.3 77.1404 346.3C75.8928 346.3 72.25 349.943 72.25 351.191C72.25 351.718 72.0475 352.15 71.8 352.15C71.5401 352.15 71.35 353.567 71.35 355.498C71.35 357.34 71.5525 358.972 71.8 359.125C72.0475 359.278 72.25 359.736 72.25 360.142C72.25 361.137 76.1279 364.75 77.1966 364.75C77.6646 364.75 78.172 364.953 78.325 365.2C78.5084 365.496 98.791 365.65 137.709 365.65H196.814L198.77 364.638C199.845 364.081 201.383 362.928 202.188 362.075L203.65 360.525V355.508V350.493L201.67 348.397C200.58 347.244 199.377 346.3 198.996 346.3C198.614 346.3 198.178 346.098 198.025 345.85C197.842 345.554 177.32 345.4 137.923 345.4C98.341 345.4 78.1 345.552 78.1 345.85ZM224.449 346.331C222.467 347.494 219.85 350.157 219.85 351.011C219.85 351.39 219.648 351.7 219.4 351.7C219.136 351.7 218.95 353.275 218.95 355.525C218.95 357.775 219.136 359.35 219.4 359.35C219.648 359.35 219.85 359.615 219.85 359.938C219.85 360.822 222.593 363.638 224.496 364.706L226.177 365.65H347.396H468.615L470.57 364.638C474.558 362.572 474.984 361.687 474.993 355.46C475.001 349.333 474.608 348.482 470.79 346.336L469.123 345.4L347.524 345.432C228.34 345.463 225.896 345.481 224.449 346.331ZM243.7 384.55C243.7 384.798 243.031 385 242.213 385C240.561 385 237.4 387.479 237.4 388.774C237.4 389.173 237.197 389.5 236.95 389.5C236.702 389.5 236.5 389.893 236.5 390.373C236.5 390.854 236.298 391.372 236.05 391.525C235.803 391.678 235.6 393.007 235.6 394.477C235.6 395.959 235.8 397.15 236.05 397.15C236.298 397.15 236.5 397.558 236.5 398.056C236.5 400.774 239.917 403.854 243.721 404.566C246.959 405.172 253.15 402.493 253.15 400.487C253.15 400.137 253.32 399.85 253.528 399.85C253.735 399.85 254.14 399.335 254.428 398.704C255.072 397.292 255.131 390.4 254.5 390.4C254.253 390.4 254.05 390.136 254.05 389.813C254.05 389.072 251.174 385.9 250.502 385.9C250.226 385.9 250 385.698 250 385.45C250 385.203 249.506 385 248.902 385C248.298 385 247.678 384.798 247.525 384.55C247.372 384.303 246.448 384.1 245.473 384.1C244.498 384.1 243.7 384.303 243.7 384.55ZM273.625 384.55C273.472 384.798 272.953 385 272.473 385C271.993 385 271.6 385.203 271.6 385.45C271.6 385.698 271.29 385.9 270.91 385.9C270.53 385.9 269.518 386.602 268.66 387.461C267.802 388.318 267.1 389.33 267.1 389.711C267.1 390.09 266.898 390.4 266.65 390.4C265.991 390.4 266.086 397.412 266.762 398.603C267.718 400.283 269.944 402.441 271.738 403.424L273.451 404.364H348.808C390.255 404.364 424.701 404.229 425.357 404.065C427.119 403.622 430.45 400.664 430.45 399.541C430.45 399.216 430.652 398.95 430.9 398.95C431.147 398.95 431.35 398.355 431.35 397.627C431.35 396.899 431.553 396.178 431.8 396.025C432.048 395.872 432.25 395.062 432.25 394.225C432.25 393.388 432.048 392.578 431.8 392.425C431.553 392.272 431.35 391.754 431.35 391.273C431.35 390.793 431.147 390.4 430.9 390.4C430.652 390.4 430.45 390.04 430.45 389.599C430.45 389.159 430.045 388.507 429.55 388.15C429.055 387.794 428.65 387.274 428.65 386.996C428.65 386.061 427.017 385 425.578 385C424.792 385 424.15 384.798 424.15 384.55C424.15 384.252 398.809 384.1 349.027 384.1C299.429 384.1 273.808 384.253 273.625 384.55ZM151.9 424.15C151.9 424.398 151.637 424.6 151.316 424.6C150.493 424.6 147.286 427.774 146.612 429.256C145.94 430.734 145.849 437.2 146.5 437.2C146.747 437.2 146.95 437.595 146.95 438.078C146.95 438.855 149.459 441.25 150.273 441.25C150.446 441.25 151.022 441.655 151.553 442.15C152.881 443.387 158.921 443.465 160.253 442.263C160.732 441.83 161.677 441.191 162.352 440.842C165.174 439.386 166.851 432.781 165.3 429.234C164.603 427.642 161.566 424.6 160.675 424.6C160.304 424.6 160 424.398 160 424.15C160 423.884 158.35 423.7 155.95 423.7C153.55 423.7 151.9 423.884 151.9 424.15ZM182.05 424.15C182.05 424.398 181.755 424.6 181.395 424.6C180.547 424.6 178.45 426.697 178.45 427.546C178.45 427.906 178.247 428.2 178 428.2C177.753 428.2 177.55 428.808 177.55 429.55C177.55 430.293 177.347 430.9 177.1 430.9C176.852 430.9 176.65 431.799 176.65 432.898C176.65 433.997 176.852 435.022 177.1 435.175C177.347 435.328 177.55 435.823 177.55 436.276C177.55 437.957 179.933 441.25 181.15 441.25C181.418 441.25 182.072 441.655 182.603 442.15C183.703 443.174 335.5 443.621 335.5 442.6C335.5 442.353 335.905 442.15 336.4 442.15C336.895 442.15 337.3 441.997 337.3 441.811C337.3 441.623 337.91 441.2 338.657 440.87C341.143 439.769 342.7 436.836 342.7 433.25C342.7 430.163 341.797 427.3 340.822 427.3C340.569 427.3 339.794 426.693 339.1 425.95C338.406 425.208 337.515 424.6 337.12 424.6C336.724 424.6 336.4 424.398 336.4 424.15C336.4 423.852 310.375 423.7 259.225 423.7C208.075 423.7 182.05 423.852 182.05 424.15Z" fill="#E4147C"/>
<path fill-rule="evenodd" clip-rule="evenodd" d="M278.962 57.4092C278.749 57.6162 277.259 57.8344 275.65 57.8929C274.041 57.9514 272.624 58.1483 272.5 58.3317C272.376 58.515 271.364 58.7198 270.25 58.7873C269.136 58.8537 267.972 59.1 267.663 59.334C267.286 59.6198 267.1 59.5759 267.1 59.2002C267.1 58.7817 266.947 58.767 266.495 59.1428C266.162 59.4184 264.694 59.7244 263.232 59.8212C259.804 60.0484 257.65 60.5457 257.65 61.1115C257.65 61.3579 257.307 61.2825 256.888 60.9428C256.371 60.5232 256.236 60.5052 256.465 60.8877C256.809 61.4603 256.678 61.5075 254.41 61.6358C253.742 61.674 253.05 61.8507 252.872 62.0273C252.696 62.205 252.202 62.3502 251.776 62.3502C251.351 62.3502 250.438 62.6438 249.746 63.0027C249.055 63.3604 248.323 63.5517 248.12 63.4257C247.917 63.2997 247.75 63.411 247.75 63.6732C247.75 63.9353 247.383 64.1502 246.934 64.1502C246.486 64.1502 245.281 64.5552 244.256 65.0502C243.232 65.5452 242.08 65.9502 241.696 65.9502C241.314 65.9502 241 66.1527 241 66.4002C241 66.6477 240.694 66.8502 240.319 66.8502C239.599 66.8502 237.797 67.7445 237.375 68.3104C237.237 68.4949 236.593 68.6895 235.944 68.7435C235.296 68.7975 234.863 69.0012 234.984 69.1958C235.105 69.3904 234.685 69.5502 234.052 69.5502C233.419 69.5502 232.9 69.7032 232.9 69.8899C232.9 70.4243 230.084 71.5358 228.963 71.4435C228.406 71.3974 227.95 71.5605 227.95 71.8047C227.95 72.0499 227.637 72.2502 227.256 72.2502C226.553 72.2502 225.889 72.7002 224.362 74.211C223.899 74.67 223.322 74.9243 223.082 74.7758C222.841 74.6273 222.52 74.8287 222.369 75.2247C222.211 75.6342 221.804 75.8333 221.422 75.6859C221.052 75.5442 220.75 75.624 220.75 75.8648C220.75 76.1044 220.456 76.3002 220.098 76.3002C219.739 76.3002 219.283 76.5634 219.085 76.8852C218.887 77.2069 217.758 78.0282 216.575 78.711C215.393 79.3939 214.179 80.3457 213.88 80.826C213.579 81.3075 213.022 81.7002 212.641 81.7002C212.261 81.7002 211.657 82.1052 211.3 82.6002C210.943 83.0952 210.19 83.5002 209.626 83.5002C209.061 83.5002 208.6 83.6532 208.6 83.8399C208.6 84.0278 207.991 84.4497 207.248 84.7793C206.503 85.1089 205.99 85.5319 206.107 85.7209C206.224 85.9099 205.82 86.3318 205.209 86.658C204.6 86.9854 204.1 87.4208 204.1 87.6267C204.1 87.8314 203.79 88.0002 203.41 88.0002C203.032 88.0002 202.587 88.3545 202.422 88.7877C202.041 89.7855 198.864 92.7657 197.238 93.6499C196.557 94.02 196 94.533 196 94.7884C196 95.0438 195.834 95.1507 195.63 95.0247C195.273 94.8042 194.043 95.9562 193.864 96.6795C193.815 96.8742 192.91 97.7067 191.85 98.5302C190.791 99.3525 189.976 100.257 190.038 100.538C190.099 100.82 189.813 101.05 189.4 101.05C188.988 101.05 188.769 101.168 188.913 101.312C189.19 101.59 188.879 102.015 186.336 104.831C185.463 105.798 184.75 106.711 184.75 106.863C184.75 107.014 184.298 107.337 183.745 107.581C183.193 107.825 182.516 108.482 182.24 109.041C181.965 109.599 181.05 110.814 180.207 111.74C179.365 112.666 178.65 113.576 178.619 113.762C178.588 113.948 178.538 114.416 178.506 114.802C178.475 115.188 178.248 115.378 178 115.225C177.753 115.072 177.54 115.313 177.528 115.761C177.516 116.208 176.71 117.385 175.737 118.375C174.763 119.365 173.736 120.732 173.454 121.413C173.172 122.093 172.787 122.65 172.598 122.65C172.409 122.65 172.132 123.005 171.982 123.438C171.833 123.871 171.301 124.833 170.8 125.575C170.299 126.318 169.767 127.28 169.618 127.713C169.468 128.146 169.154 128.5 168.921 128.5C168.687 128.5 168.612 128.686 168.751 128.912C168.891 129.138 168.791 129.395 168.529 129.482C168.12 129.618 167.821 130.426 167.685 131.763C167.666 131.948 167.346 132.1 166.975 132.1C166.392 132.1 166.114 133.409 166.338 135.087C166.36 135.246 166.208 135.499 166.001 135.65C165.403 136.087 164.5 137.874 164.5 138.62C164.5 138.994 164.298 139.3 164.05 139.3C163.803 139.3 163.6 139.714 163.6 140.219C163.6 140.724 163.195 141.573 162.7 142.104C162.205 142.635 161.8 143.437 161.8 143.885C161.8 144.333 161.598 144.7 161.35 144.7C161.103 144.7 160.9 145.206 160.9 145.825C160.9 146.444 160.698 146.95 160.45 146.95C160.203 146.95 160 147.469 160 148.102C160 148.895 159.826 149.153 159.438 148.929C159.128 148.751 159.016 148.763 159.189 148.954C159.463 149.259 158.999 150.864 157.749 153.925C157.036 155.672 156.713 156.635 156.544 157.515C156.451 158.006 156.177 158.603 155.938 158.843C155.371 159.41 155.37 160.134 155.937 159.784C156.176 159.636 155.986 160.377 155.514 161.432C154.894 162.816 154.788 163.509 155.132 163.925C155.395 164.241 155.425 164.5 155.197 164.5C154.97 164.5 154.733 165.26 154.671 166.187C154.608 167.115 154.364 168.066 154.129 168.302C153.892 168.538 153.7 169.702 153.7 170.89C153.7 172.078 153.532 173.05 153.327 173.05C153.122 173.05 152.908 174.215 152.852 175.638C152.796 177.061 152.558 178.293 152.325 178.375C152.091 178.458 151.9 179.914 151.9 181.611C151.9 183.308 151.729 184.803 151.52 184.932C150.408 185.619 151.039 202.75 152.176 202.75C152.519 202.75 152.8 203.121 152.8 203.574C152.8 204.027 153.306 204.669 153.925 205C154.544 205.331 155.05 205.771 155.05 205.977C155.05 206.181 216.813 206.35 292.3 206.35C383.5 206.35 429.55 206.199 429.55 205.9C429.55 205.653 429.91 205.45 430.351 205.45C430.791 205.45 431.443 205.045 431.8 204.55C432.157 204.055 432.708 203.65 433.024 203.65C433.341 203.65 433.601 203.397 433.602 203.088C433.605 202.778 433.876 202.008 434.205 201.375C434.85 200.14 434.998 191.849 434.388 191.238C434.202 191.052 434.05 188.819 434.05 186.277C434.05 183.68 433.853 181.532 433.6 181.375C433.353 181.222 433.15 179.894 433.15 178.423C433.15 176.942 432.95 175.75 432.7 175.75C432.453 175.75 432.25 174.75 432.25 173.527C432.25 172.304 432.048 171.178 431.8 171.025C431.553 170.872 431.35 169.86 431.35 168.775C431.35 167.691 431.148 166.678 430.9 166.525C430.653 166.372 430.45 165.651 430.45 164.923C430.45 164.195 430.248 163.6 430 163.6C429.753 163.6 429.55 163.005 429.55 162.277C429.55 161.549 429.348 160.828 429.1 160.675C428.853 160.522 428.65 159.21 428.65 157.761C428.65 156.311 428.49 155.058 428.295 154.975C428.099 154.893 427.605 153.813 427.198 152.575C426.169 149.45 425.317 147.217 425.05 146.95C424.834 146.734 424.601 145.961 424.42 144.858C424.374 144.574 424.093 144.049 423.797 143.692C423.5 143.334 423.391 142.909 423.554 142.746C423.717 142.583 423.613 142.45 423.325 142.45C423.036 142.45 422.793 142.096 422.785 141.663C422.778 141.23 422.481 140.49 422.125 140.021C421.77 139.552 421.585 138.995 421.716 138.784C421.846 138.572 421.771 138.4 421.549 138.4C421.326 138.4 420.877 137.594 420.552 136.607C420.227 135.62 419.587 134.475 419.13 134.062C418.674 133.649 418.3 133.001 418.3 132.622C418.3 132.243 417.861 131.466 417.325 130.895C416.789 130.325 416.32 129.501 416.284 129.066C416.19 127.933 414.672 124.9 414.198 124.9C413.979 124.9 413.8 124.495 413.8 124C413.8 123.505 413.647 123.1 413.46 123.1C413.272 123.1 412.851 122.492 412.521 121.748C412.191 121.003 411.737 120.509 411.511 120.649C411.285 120.789 411.1 120.5 411.1 120.008C411.1 119.506 410.703 118.985 410.2 118.825C409.705 118.668 409.3 118.277 409.3 117.956C409.3 117.635 408.696 116.687 407.957 115.848C407.219 115.01 406.611 114.173 406.607 113.988C406.603 113.802 406.195 113.245 405.7 112.75C405.205 112.255 404.8 111.541 404.8 111.163C404.8 110.437 401.343 106.751 400.262 106.323C399.909 106.184 399.858 106.055 400.148 106.036C400.436 106.016 398.867 104.204 396.661 102.009C394.455 99.8127 392.65 97.8799 392.65 97.7134C392.65 97.2488 390.498 95.2002 390.011 95.2002C389.773 95.2002 389.069 94.5927 388.444 93.8502C387.819 93.1077 387.138 92.5002 386.928 92.5002C386.719 92.5002 386.257 92.0952 385.9 91.6002C385.543 91.1052 385.078 90.7002 384.865 90.7002C384.357 90.7002 380.95 87.1452 380.95 86.613C380.95 86.3858 380.61 86.2002 380.195 86.2002C379.78 86.2002 378.874 85.542 378.184 84.7377C377.13 83.5114 376.853 83.3843 376.47 83.9502C376.219 84.3214 376.01 84.4058 376.007 84.1392C376.003 83.8714 375.447 83.3652 374.77 83.0142C374.094 82.662 372.993 81.8599 372.325 81.2288C371.655 80.5988 370.538 79.7899 369.842 79.4322C369.145 79.0744 368.248 78.4253 367.847 77.991C367.447 77.5557 366.89 77.2002 366.61 77.2002C366.33 77.2002 366.1 77.0438 366.1 76.8525C366.1 76.4239 362.912 74.6824 362.412 74.8377C362.213 74.8995 362.05 74.7679 362.05 74.544C362.05 74.3213 361.434 73.923 360.68 73.6609C359.927 73.3977 358.731 72.771 358.024 72.267C357.315 71.763 356.16 71.3457 355.455 71.34C354.751 71.3344 353.669 70.9339 353.05 70.4502C352.431 69.9664 351.571 69.5659 351.138 69.5603C350.704 69.5547 350.35 69.3803 350.35 69.1722C350.35 68.964 349.489 68.5219 348.438 68.1878C347.386 67.8548 345.987 67.2147 345.33 66.7658C344.673 66.3169 343.56 65.9344 342.855 65.9142C342.151 65.895 341.839 65.7735 342.162 65.6442C342.485 65.5148 340.663 64.7172 338.112 63.8723C335.562 63.0274 333.07 62.1353 332.575 61.8889C332.08 61.6425 331.118 61.3984 330.438 61.3478C329.757 61.296 329.2 61.0789 329.2 60.864C329.2 60.6503 328.947 60.5637 328.638 60.6728C328.328 60.7819 327.606 60.6975 327.033 60.4849C326.46 60.2734 324.44 59.9865 322.546 59.8482C320.652 59.7098 318.893 59.4252 318.639 59.217C318.383 59.0089 317.061 58.7243 315.7 58.5848C310.235 58.0234 306.882 57.5329 306.063 57.174C305.386 56.8782 305.285 56.9333 305.587 57.4362C305.895 57.9447 305.841 57.9694 305.324 57.5588C304.554 56.9457 279.582 56.8039 278.962 57.4092Z" fill="#54CCCB"/>
<path fill-rule="evenodd" clip-rule="evenodd" d="M192.044 97.6921C191.3 98.5369 191.916 98.5178 193.048 97.6606C193.662 97.1959 193.73 97.0058 193.273 97.0171C192.916 97.0272 192.364 97.3309 192.044 97.6921Z" fill="#54D0A4"/>
</svg>
