<svg width="320" height="320" viewBox="0 0 320 320" fill="none" xmlns="http://www.w3.org/2000/svg">
<g clip-path="url(#clip0_26267_96)">
<circle cx="160" cy="160" r="160" fill="url(#paint0_linear_26267_96)"/>
<path fill-rule="evenodd" clip-rule="evenodd" d="M156.082 184.97V156.248H103.295V169.574H141.074V179.925C134.475 190.275 121.537 194.415 105.623 194.415C79.618 194.415 63.7043 182.771 63.7043 160C63.7043 137.229 79.3593 125.585 104.847 125.585C119.985 125.585 130.594 129.984 138.615 139.04L151.295 129.984C142.238 120.28 126.971 112 104.718 112C69.2676 112 47.9199 130.113 47.9199 160C47.9199 189.887 69.2676 208 104.977 208C129.817 208 147.801 198.296 156.082 184.97ZM272.082 184.97V156.248H219.295V169.574H257.074V179.925C250.475 190.275 237.537 194.415 221.623 194.415C195.618 194.415 179.704 182.771 179.704 160C179.704 137.229 195.359 125.585 220.847 125.585C235.985 125.585 246.594 129.984 254.615 139.04L267.295 129.984C258.238 120.28 242.971 112 220.718 112C185.268 112 163.92 130.113 163.92 160C163.92 189.887 185.268 208 220.977 208C245.817 208 263.801 198.296 272.082 184.97Z" fill="#0C0C0C"/>
</g>
<defs>
<linearGradient id="paint0_linear_26267_96" x1="0" y1="0" x2="307.479" y2="-11.6097" gradientUnits="userSpaceOnUse">
<stop stop-color="#D1E9CC"/>
<stop offset="1" stop-color="#03C5DC"/>
</linearGradient>
<clipPath id="clip0_26267_96">
<rect width="320" height="320" fill="white"/>
</clipPath>
</defs>
</svg>
