<?xml version="1.0" standalone="no"?>
<!DOCTYPE svg PUBLIC "-//W3C//DTD SVG 20010904//EN"
 "http://www.w3.org/TR/2001/REC-SVG-20010904/DTD/svg10.dtd">
<svg version="1.0" xmlns="http://www.w3.org/2000/svg"
 width="793.000000pt" height="793.000000pt" viewBox="0 0 793.000000 793.000000"
 preserveAspectRatio="xMidYMid meet">
<metadata>
Created by potrace 1.16, written by Peter Selinger 2001-2019
</metadata>
<g transform="translate(0.000000,793.000000) scale(0.100000,-0.100000)"
fill="#000000" stroke="none">
<path d="M3745 7924 c-22 -2 -96 -9 -165 -15 -364 -31 -795 -140 -1154 -290
-337 -142 -660 -336 -961 -577 -154 -124 -453 -423 -577 -577 -495 -618 -785
-1323 -870 -2115 -16 -148 -16 -622 0 -770 85 -793 375 -1497 870 -2115 124
-154 423 -453 577 -577 618 -496 1322 -785 2115 -870 148 -16 622 -16 770 0
793 85 1497 374 2115 870 154 124 453 423 577 577 495 618 785 1323 870 2115
16 148 16 622 0 770 -85 792 -375 1497 -870 2115 -124 154 -423 453 -577 577
-613 491 -1327 787 -2100 868 -103 11 -549 21 -620 14z m-1771 -1674 c28 -13
352 -331 995 -974 l954 -954 -17 -29 c-16 -27 -16 -27 1 -7 l18 22 107 -105
c112 -108 171 -145 260 -161 25 -5 59 -19 76 -30 l30 -22 64 29 c135 61 201
92 309 146 l112 57 -35 -41 c-53 -62 -221 -216 -267 -246 -22 -14 -60 -32 -83
-42 -24 -9 -47 -20 -53 -25 -5 -6 7 -3 27 5 35 15 38 14 61 -6 53 -48 204
-184 247 -222 24 -22 64 -58 88 -80 24 -22 50 -44 59 -48 12 -8 11 -13 -9 -35
-12 -15 7 1 43 34 85 78 119 93 155 69 l27 -17 -33 -14 c-19 -8 -171 -151
-357 -335 -268 -265 -327 -318 -339 -308 -13 10 -12 15 3 33 10 12 -9 -4 -41
-34 -31 -30 -64 -67 -72 -82 -33 -63 -32 -63 259 -356 149 -150 288 -282 307
-292 103 -53 296 -81 490 -71 115 6 144 11 191 33 76 35 129 85 169 159 30 57
34 73 42 193 12 187 -12 368 -63 469 -28 54 -16 58 17 5 36 -56 70 -156 88
-254 11 -68 14 -74 17 -41 l4 37 51 -47 c27 -27 68 -63 90 -82 59 -52 190
-169 256 -231 33 -30 64 -56 69 -58 14 -5 11 -30 -7 -57 -9 -14 -14 -25 -11
-25 11 0 48 69 67 125 32 93 44 222 30 339 -28 249 -68 405 -151 582 l-51 109
-519 521 -520 520 3 52 3 52 543 -543 c312 -311 556 -563 574 -592 87 -139
158 -394 192 -685 15 -131 5 -577 -15 -665 -17 -74 -89 -221 -144 -294 -88
-115 -230 -216 -378 -269 -66 -23 -96 -26 -342 -38 -223 -10 -291 -9 -390 2
-308 34 -573 111 -713 205 -51 35 -1049 1023 -1113 1102 -34 42 -39 56 -39 99
l0 51 208 211 c166 169 217 228 257 295 45 76 49 89 48 142 -1 38 -10 78 -29
121 -26 59 -88 123 -1105 1143 -1076 1079 -1078 1080 -1094 1138 -36 126 25
254 150 313 66 31 170 33 229 4z"/>
<path d="M3869 4243 c-13 -16 -12 -17 4 -4 16 13 21 21 13 21 -2 0 -10 -8 -17
-17z"/>
<path d="M4385 3960 c9 -30 34 -80 40 -80 4 0 -35 92 -43 100 -2 3 -1 -6 3
-20z"/>
<path d="M5823 2570 c0 -36 2 -50 4 -32 2 17 2 47 0 65 -2 17 -4 3 -4 -33z"/>
</g>
</svg>
