<svg width="751" height="751" viewBox="0 0 751 751" fill="none" xmlns="http://www.w3.org/2000/svg">
<path d="M739.336 466.587C689.25 667.48 485.78 789.74 284.864 739.643C84.0296 689.558 -38.231 486.076 11.8778 285.195C61.9398 84.2788 265.411 -37.9934 466.268 12.0921C667.172 62.1775 789.421 265.683 739.336 466.587Z" fill="url(#paint0_linear_101_16)"/>
<path d="M540.938 322.446C548.402 272.548 510.411 245.724 458.462 227.83L475.313 160.237L434.169 149.983L417.763 215.795C406.947 213.099 395.837 210.557 384.798 208.037L401.322 141.791L360.201 131.538L343.338 199.107C334.385 197.068 325.596 195.053 317.065 192.932L317.112 192.721L260.37 178.553L249.425 222.498C249.425 222.498 279.952 229.494 279.307 229.927C295.971 234.087 298.983 245.114 298.479 253.857L279.284 330.86C280.432 331.153 281.921 331.575 283.561 332.231C282.19 331.891 280.725 331.516 279.214 331.153L252.308 439.023C250.269 444.085 245.101 451.679 233.453 448.796C233.863 449.394 203.547 441.331 203.547 441.331L183.121 488.429L236.663 501.776C246.624 504.272 256.386 506.885 265.995 509.346L248.968 577.713L290.065 587.967L306.928 520.327C318.155 523.374 329.053 526.186 339.717 528.835L322.913 596.158L364.057 606.412L381.084 538.174C451.243 551.451 504.001 546.096 526.207 482.64C544.102 431.546 525.317 402.074 488.403 382.856C515.285 376.656 535.535 358.973 540.938 322.446ZM446.931 454.269C434.216 505.362 348.189 477.741 320.299 470.815L342.893 380.242C370.783 387.203 460.22 400.984 446.931 454.269ZM459.657 321.708C448.056 368.184 376.455 344.571 353.228 338.782L373.713 256.634C396.939 262.423 471.739 273.228 459.657 321.708Z" fill="white"/>
<defs>
<linearGradient id="paint0_linear_101_16" x1="1584.28" y1="-175.357" x2="-76.8014" y2="601.409" gradientUnits="userSpaceOnUse">
<stop stop-color="#F0C9BD"/>
<stop offset="1" stop-color="#5C00F5"/>
</linearGradient>
</defs>
</svg>
