<?xml version="1.0" encoding="utf-8"?>
<!-- Generator: Adobe Illustrator 26.0.3, SVG Export Plug-In . SVG Version: 6.00 Build 0)  -->
<svg version="1.1" id="Layer_1" xmlns="http://www.w3.org/2000/svg" xmlns:xlink="http://www.w3.org/1999/xlink" x="0px" y="0px"
	 viewBox="0 0 64 64" style="enable-background:new 0 0 64 64;" xml:space="preserve">
<style type="text/css">
	.st0{fill:#6000FF;}
</style>
<path class="st0" d="M64,12.7c-4.6,1.4-9,3.2-13.4,5.1C25.8,29.1,9.2,46.1,13.6,55.8c0.9,1.8,2.3,3.3,4.2,4.2c5.9,3,12.6,4,19.1,2.8
	c6.5-1.2,12.5-4.4,17-9.3c4.5-4.9,7.4-11.1,8.1-17.7c0.7-6.6-0.7-13.3-4-19L64,12.7z"/>
<path class="st0" d="M55.9,13.6C51.4,7.3,44.6,2.9,37,1.3c-7.6-1.6-15.6-0.2-22.2,3.8C8.1,9.2,3.3,15.5,1.2,23
	C-1,30.4-0.2,38.4,3.4,45.2c5.8-8.4,18.7-18.1,35.1-25.4C44.1,17.4,49.9,15.3,55.9,13.6z"/>
</svg>
