<?xml version="1.0" encoding="UTF-8" standalone="no"?>
<svg
   xmlns:dc="http://purl.org/dc/elements/1.1/"
   xmlns:cc="http://creativecommons.org/ns#"
   xmlns:rdf="http://www.w3.org/1999/02/22-rdf-syntax-ns#"
   xmlns:svg="http://www.w3.org/2000/svg"
   xmlns="http://www.w3.org/2000/svg"
   xmlns:sodipodi="http://sodipodi.sourceforge.net/DTD/sodipodi-0.dtd"
   xmlns:inkscape="http://www.inkscape.org/namespaces/inkscape"
   id="Layer_1"
   data-name="Layer 1"
   viewBox="0 0 99.160001 98.215957"
   version="1.1"
   sodipodi:docname="nomic.svg"
   width="99.160004"
   height="98.215958"
   inkscape:export-filename="/home/dpierret/Images/nomic.png"
   inkscape:export-xdpi="309.84781"
   inkscape:export-ydpi="309.84781"
   inkscape:version="0.92.5 (2060ec1f9f, 2020-04-08)">
  <metadata
     id="metadata27">
    <rdf:RDF>
      <cc:Work
         rdf:about="">
        <dc:format>image/svg+xml</dc:format>
        <dc:type
           rdf:resource="http://purl.org/dc/dcmitype/StillImage" />
        <dc:title></dc:title>
      </cc:Work>
    </rdf:RDF>
  </metadata>
  <sodipodi:namedview
     pagecolor="#ffffff"
     bordercolor="#666666"
     borderopacity="1"
     objecttolerance="10"
     gridtolerance="10"
     guidetolerance="10"
     inkscape:pageopacity="0"
     inkscape:pageshadow="2"
     inkscape:window-width="858"
     inkscape:window-height="480"
     id="namedview25"
     showgrid="false"
     inkscape:zoom="0.88238789"
     inkscape:cx="27.862466"
     inkscape:cy="48.225"
     inkscape:window-x="0"
     inkscape:window-y="0"
     inkscape:window-maximized="0"
     inkscape:current-layer="Layer_1" />
  <defs
     id="defs4">
    <style
       id="style2">.cls-1{fill:#fff;}.cls-2{fill:#6300ff;}.cls-3{stroke:#000;stroke-linecap:round;stroke-linejoin:round;stroke-width:2px;}</style>
  </defs>
  <path
     class="cls-1"
     d="m 72.1,26.275958 a 22.53,22.53 0 0 0 -22.53,22.56 22.54,22.54 0 0 1 -45.07,0 45.07,45.07 0 0 1 90.13,0 22.53,22.53 0 0 0 -22.53,-22.56 z"
     id="path6"
     inkscape:connector-curvature="0"
     style="fill:#ffffff" />
  <path
     d="m 27.03,75.865958 a 27.06,27.06 0 0 1 -27,-27 49.57,49.57 0 0 1 99.13,0 h -9 a 18.03,18.03 0 0 0 -36.06,0 27.06,27.06 0 0 1 -27.07,27 z M 49.57,8.2759581 A 40.61,40.61 0 0 0 9,48.835958 a 18.035,18.035 0 0 0 36.07,0 27.06,27.06 0 0 1 27,-27 26.78,26.78 0 0 1 9,1.54 40.48,40.48 0 0 0 -31.5,-15.0999999 z"
     id="path8"
     inkscape:connector-curvature="0" />
  <path
     class="cls-2"
     d="m 49.57,93.715958 a 45.06,45.06 0 0 1 -45.07,-45.06 22.54,22.54 0 0 0 45.07,0 22.53,22.53 0 1 1 45.06,0 45.06,45.06 0 0 1 -45.06,45.06 z"
     id="path10"
     inkscape:connector-curvature="0"
     style="fill:#6300ff" />
  <path
     d="M 49.57,98.215958 A 49.62,49.62 0 0 1 0,48.655958 h 9 a 18.035,18.035 0 0 0 36.07,0 27.03,27.03 0 1 1 54.06,0 49.62,49.62 0 0 1 -49.56,49.56 z m -31.53,-24.07 a 40.55,40.55 0 0 0 72.09,-25.49 18.03,18.03 0 1 0 -36.06,0 27.07,27.07 0 0 1 -27,27 26.78,26.78 0 0 1 -9.03,-1.51 z"
     id="path12"
     inkscape:connector-curvature="0" />
</svg>
