<svg xmlns="http://www.w3.org/2000/svg" width="128" height="128" fill="none" viewBox="0 0 24 24"><path d="M29.72 3.32c-.53.01-1 .04-1.25.08a12 12 0 0 0-1.66.46l-.72.32a10.4 10.4 0 0 0-1.52.93 16 16 0 0 0-.72.6 16.8 16.8 0 0 0-2.55 2.96 16 16 0 0 0-.544.88c1.188 1.948 1.904 4.05 1.904 6.4 0 2.5-.81 4.72-2.139 6.769a13 13 0 0 0 .909 1.332 23 23 0 0 0 1.5 1.568 15 15 0 0 0 1.8 1.39 14 14 0 0 0 1.85.952c.22.09.56.2.76.26a10 10 0 0 0 1.83.36 11 11 0 0 0 1.77 0 12 12 0 0 0 1.75-.311c.3-.08.76-.24 1.03-.34a11.7 11.7 0 0 0 1.82-.97c.2-.14.57-.41.8-.6A13 13 0 0 0 38 24.62l.58-.84A13 13 0 0 0 40 20.62a19 19 0 0 0 .36-1.74c.03-.27.06-.6.06-.92H38.6l-.06.52a11.3 11.3 0 0 1-.8 3.1c-.12.27-.33.68-.46.91a9.2 9.2 0 0 1-1.2 1.64 10 10 0 0 1-.7.68 9 9 0 0 1-.7.53 9.6 9.6 0 0 1-1.59.83 7.9 7.9 0 0 1-2.6.54 7 7 0 0 1-.97-.02c-.27-.03-.66-.09-.86-.13a6.7 6.7 0 0 1-1.38-.47 7 7 0 0 1-.82-.5 7.5 7.5 0 0 1-.9-.74 9 9 0 0 1-.74-.84 11 11 0 0 1-.57-.89 13 13 0 0 1-.43-.9 13 13 0 0 1-.65-2.15 20 20 0 0 1-.18-1.18 24 24 0 0 1-.1-1.46c-.03-.86-.02-.9.06-.96.07-.06 1.11-.06 17.84-.06v-.1a5 5 0 0 0 0-.37 14 14 0 0 0-.15-1.5 14 14 0 0 0-.4-1.7 18 18 0 0 0-.29-.86 17 17 0 0 0-.41-1 20 20 0 0 0-.55-1.11 19 19 0 0 0-.65-1.08 19 19 0 0 0-1.5-1.98 14.6 14.6 0 0 0-1.74-1.63l-.65-.47a9 9 0 0 0-.78-.45 10 10 0 0 0-.93-.39 9 9 0 0 0-.88-.26 11 11 0 0 0-.84-.15q-.43-.06-1.3-.04m.02 2.02c.54 0 .86 0 1.1.05a7 7 0 0 1 2.03.75l.63.43a8.4 8.4 0 0 1 1.43 1.53 10.3 10.3 0 0 1 1.1 2.3c.11.33.24.82.3 1.1a14 14 0 0 1 .26 2.3l.02.81c-10.77.06-13.56.06-13.6.04-.05-.03-.06-.17-.03-.88.02-.46.06-1.08.09-1.37a16 16 0 0 1 .35-1.81 10 10 0 0 1 .69-1.73 7.8 7.8 0 0 1 1.88-2.25 7.2 7.2 0 0 1 1.74-.92 5.5 5.5 0 0 1 2.01-.34z" style="fill:#000" transform="translate(-.559 2.399)scale(.60185)"/><path d="M11.8 3.29c-2.9 0-5.1 1.38-6.96 3.55-2.34 2.7-3.9 5.64-3.9 9.1s1.56 6.39 3.89 9.08C6.7 27.21 8.9 28.6 11.8 28.6s5.09-1.37 6.96-3.57c2.34-2.68 3.9-5.61 3.9-9.08s-1.56-6.4-3.9-9.09c-1.87-2.19-4.06-3.57-6.96-3.57m0 1.83c3.82 0 6.68 3.39 6.68 8.48v4.68c0 5.08-2.86 8.48-6.68 8.48v-.01c-3.82 0-6.68-3.39-6.68-8.48V13.6c0-5.1 2.86-8.48 6.68-8.48" style="fill:#000" transform="translate(-.559 2.399)scale(.60185)"/></svg>