<svg width="24" height="24" viewBox="0 0 24 24" fill="none" xmlns="http://www.w3.org/2000/svg">
<circle cx="12" cy="12" r="12" fill="#063C4F"/>
<path d="M17.1443 6.06409C17.1443 7.99927 15.6019 9.57423 13.6795 9.6268L9.52216 9.62681V8.83217H11.3349C10.5303 8.17871 10.0161 7.18144 10.0161 6.06409C10.0161 6.01918 10.0169 5.97447 10.0186 5.92996C10.2085 5.90355 10.4025 5.88989 10.5996 5.88989H17.1401C17.1429 5.94761 17.1443 6.00568 17.1443 6.06409Z" fill="url(#paint0_linear_2328_6554)"/>
<path d="M9.24658 14.6085C7.44518 14.6578 6 16.1335 6 17.9468C6 18.0016 6.00132 18.056 6.00392 18.1101L12.3337 18.1101C12.449 18.1101 12.5631 18.1051 12.676 18.0953C12.6781 18.0461 12.6792 17.9966 12.6792 17.9468C12.6792 16.1335 11.234 14.6578 9.43262 14.6085L9.24658 14.6085Z" fill="url(#paint1_radial_2328_6554)"/>
<path d="M13.0192 9.39144C14.8206 9.34218 16.2658 7.86641 16.2658 6.05311C16.2658 5.99839 16.2645 5.94397 16.2619 5.88989H9.93212C9.81681 5.88989 9.70264 5.89488 9.58982 5.90465C7.56143 6.08031 5.96899 7.80198 6.00046 9.88128C6.03368 12.0378 7.83392 13.7513 9.99234 13.7502H14.4597C14.7151 13.7502 14.9186 13.9744 14.8854 14.2359C14.8584 14.4518 14.6632 14.6085 14.4452 14.6085H9.89087C8.08947 14.6577 6.6443 16.1335 6.6443 17.9468C6.6443 18.0015 6.64561 18.0559 6.64821 18.11H14.4005C16.5579 18.11 18.3592 16.3977 18.3924 14.2411C18.4256 12.0461 16.6493 10.2497 14.4607 10.2497H9.93316C9.67776 10.2497 9.47427 10.0255 9.5075 9.76401C9.53449 9.54815 9.72967 9.39144 9.94769 9.39144L13.0192 9.39144Z" fill="url(#paint2_radial_2328_6554)"/>
<path d="M10.7034 4H13.2805V5.88993H10.7034V4Z" fill="url(#paint3_radial_2328_6554)"/>
<path d="M10.7034 20V18.1101H6.64821C6.64561 18.056 6.6443 18.0016 6.6443 17.9468C6.6443 16.1335 8.08947 14.6578 9.89087 14.6085H14.4452C14.6632 14.6085 14.8584 14.4518 14.8854 14.2359C14.9186 13.9744 14.7151 13.7503 14.4597 13.7503H9.99234C7.83392 13.7513 6.03368 12.0379 6.00046 9.88132C5.96899 7.80202 7.56143 6.08035 9.58982 5.90469C9.70264 5.89492 9.81681 5.88993 9.93212 5.88993H16.2619C16.2645 5.94401 16.2658 5.99843 16.2658 6.05315C16.2658 7.86646 14.8206 9.34222 13.0192 9.39148L9.94769 9.39148C9.72967 9.39148 9.53449 9.54819 9.5075 9.76405C9.47427 10.0256 9.67776 10.2497 9.93316 10.2497H14.4607C16.6493 10.2497 18.4256 12.0462 18.3924 14.2411C18.3592 16.3977 16.5579 18.1101 14.4005 18.1101H13.2805V20H10.7034Z" fill="url(#paint4_radial_2328_6554)"/>
<rect width="0.687248" height="1.88993" transform="matrix(-1 0 0 1 13.9678 18.11)" fill="url(#paint5_linear_2328_6554)"/>
<rect width="0.687248" height="1.88993" transform="matrix(-1 0 0 1 13.9678 4)" fill="url(#paint6_linear_2328_6554)"/>
<path d="M7.37577 6.83625C7.9823 6.31632 8.74856 5.97754 9.58981 5.90469C9.70263 5.89492 9.8168 5.88993 9.93211 5.88993H16.2618C16.2645 5.94401 16.2658 5.99843 16.2658 6.05316C16.2658 7.86646 14.8206 9.34222 13.0192 9.39148L9.94769 9.39148C9.72967 9.39148 9.53448 9.54819 9.50749 9.76405C9.47427 10.0256 9.67776 10.2497 9.93315 10.2497H14.4607C15.6183 10.2497 16.6606 10.7523 17.3808 11.5507C16.8394 12.6325 15.9538 13.5121 14.8675 14.0457C14.8111 13.8744 14.6498 13.7503 14.4597 13.7503H9.99233C9.79293 13.7504 9.5966 13.7358 9.40442 13.7077C7.89738 12.7198 6.90201 11.0157 6.90201 9.0792C6.90201 8.28072 7.07123 7.52177 7.37577 6.83625Z" fill="url(#paint7_radial_2328_6554)" fill-opacity="0.8"/>
<path d="M12.3327 14.6085C12.3658 14.6091 12.399 14.6094 12.4322 14.6094C12.4654 14.6094 12.4986 14.6091 12.5317 14.6085H12.3327Z" fill="url(#paint8_radial_2328_6554)" fill-opacity="0.8"/>
<path d="M10.7033 4H13.2805V5.88993H10.7033V4Z" fill="url(#paint9_radial_2328_6554)" fill-opacity="0.8"/>
<path d="M15.5198 5.88989L14.6978 5.88989C14.698 5.9042 14.698 5.91852 14.698 5.93285C14.698 7.22268 14.283 8.41559 13.5793 9.38535C13.6754 9.37899 13.7704 9.36857 13.8642 9.35425C14.7646 8.44048 15.3685 7.23369 15.5198 5.88989Z" fill="url(#paint10_radial_2328_6554)" fill-opacity="0.6"/>
<path d="M14.8981 10.2739C15.867 11.3229 16.4591 12.7252 16.4591 14.2658C16.4591 15.0732 16.2964 15.8427 16.0022 16.5432C16.6133 15.7134 16.9745 14.6882 16.9745 13.5786C16.9745 12.4365 16.5919 11.3839 15.948 10.5417C15.6179 10.4064 15.2656 10.3148 14.8981 10.2739Z" fill="url(#paint11_radial_2328_6554)" fill-opacity="0.6"/>
<path d="M14.9453 10.2769C16.9157 10.5089 18.4447 12.2033 18.4139 14.2412C18.384 16.1798 16.9254 17.7595 15.0637 18.0589C16.5323 17.3954 17.5544 15.9177 17.5544 14.2014C17.5544 12.4283 16.4637 10.91 14.9167 10.2807C14.9261 10.2795 14.9356 10.2782 14.9453 10.2769Z" fill="url(#paint12_linear_2328_6554)"/>
<path d="M14.9266 18.0786C14.9725 18.0728 15.0182 18.0662 15.0637 18.0589C15.0458 18.067 15.0279 18.0749 15.0099 18.0828L14.9266 18.0786Z" fill="url(#paint13_linear_2328_6554)"/>
<defs>
<linearGradient id="paint0_linear_2328_6554" x1="15.874" y1="6.80682" x2="16.1134" y2="9.93368" gradientUnits="userSpaceOnUse">
<stop stop-color="#1F7494"/>
<stop offset="0.382768" stop-color="#0E6585"/>
<stop offset="0.901042" stop-color="#071F28"/>
</linearGradient>
<radialGradient id="paint1_radial_2328_6554" cx="0" cy="0" r="1" gradientUnits="userSpaceOnUse" gradientTransform="translate(5.81745 18.7866) rotate(-58.3192) scale(10.4482 125.58)">
<stop offset="0.104167" stop-color="#3A78B1"/>
<stop offset="0.520341" stop-color="#4FC1C0"/>
<stop offset="1" stop-color="#8CF2FD"/>
</radialGradient>
<radialGradient id="paint2_radial_2328_6554" cx="0" cy="0" r="1" gradientUnits="userSpaceOnUse" gradientTransform="translate(6.63356 18.11) rotate(-44.7275) scale(12.7717 186.158)">
<stop offset="0.104167" stop-color="#3A78B1"/>
<stop offset="0.520341" stop-color="#4FC1C0"/>
<stop offset="1" stop-color="#8CF2FD"/>
</radialGradient>
<radialGradient id="paint3_radial_2328_6554" cx="0" cy="0" r="1" gradientUnits="userSpaceOnUse" gradientTransform="translate(6 18.8832) rotate(-51.915) scale(13.8748 202.237)">
<stop offset="0.104167" stop-color="#3A78B1"/>
<stop offset="0.520341" stop-color="#4FC1C0"/>
<stop offset="1" stop-color="#8CF2FD"/>
</radialGradient>
<radialGradient id="paint4_radial_2328_6554" cx="0" cy="0" r="1" gradientUnits="userSpaceOnUse" gradientTransform="translate(6 18.8832) rotate(-51.915) scale(13.8748 202.237)">
<stop offset="0.104167" stop-color="#3A78B1"/>
<stop offset="0.520341" stop-color="#4FC1C0"/>
<stop offset="1" stop-color="#8CF2FD"/>
</radialGradient>
<linearGradient id="paint5_linear_2328_6554" x1="9.50019e-08" y1="2.06174" x2="0.783893" y2="-0.375839" gradientUnits="userSpaceOnUse">
<stop stop-color="#1F7494"/>
<stop offset="0.382768" stop-color="#0E6585"/>
<stop offset="0.901042" stop-color="#071F28"/>
</linearGradient>
<linearGradient id="paint6_linear_2328_6554" x1="0.687248" y1="-0.0751678" x2="-0.194209" y2="2.50217" gradientUnits="userSpaceOnUse">
<stop stop-color="#1F7494"/>
<stop offset="0.382768" stop-color="#0E6585"/>
<stop offset="0.901042" stop-color="#071F28"/>
</linearGradient>
<radialGradient id="paint7_radial_2328_6554" cx="0" cy="0" r="1" gradientUnits="userSpaceOnUse" gradientTransform="translate(17.9335 1.75515) rotate(138.859) scale(14.0592 14.5897)">
<stop offset="0.216485" stop-color="white"/>
<stop offset="0.906332" stop-color="white" stop-opacity="0"/>
</radialGradient>
<radialGradient id="paint8_radial_2328_6554" cx="0" cy="0" r="1" gradientUnits="userSpaceOnUse" gradientTransform="translate(17.9335 1.75515) rotate(138.859) scale(14.0592 14.5897)">
<stop offset="0.216485" stop-color="white"/>
<stop offset="0.906332" stop-color="white" stop-opacity="0"/>
</radialGradient>
<radialGradient id="paint9_radial_2328_6554" cx="0" cy="0" r="1" gradientUnits="userSpaceOnUse" gradientTransform="translate(17.9335 1.75515) rotate(138.859) scale(14.0592 14.5897)">
<stop offset="0.216485" stop-color="white"/>
<stop offset="0.906332" stop-color="white" stop-opacity="0"/>
</radialGradient>
<radialGradient id="paint10_radial_2328_6554" cx="0" cy="0" r="1" gradientUnits="userSpaceOnUse" gradientTransform="translate(15.8612 5.93272) rotate(152.976) scale(4.74776 4.02482)">
<stop offset="0.216485" stop-color="white"/>
<stop offset="0.906332" stop-color="white" stop-opacity="0"/>
</radialGradient>
<radialGradient id="paint11_radial_2328_6554" cx="0" cy="0" r="1" gradientUnits="userSpaceOnUse" gradientTransform="translate(15.0523 7.31815) rotate(93.0156) scale(11.6349 11.5523)">
<stop offset="0.216485" stop-color="white"/>
<stop offset="0.906332" stop-color="white" stop-opacity="0"/>
</radialGradient>
<linearGradient id="paint12_linear_2328_6554" x1="17.6657" y1="12.1364" x2="19.5561" y2="18.0055" gradientUnits="userSpaceOnUse">
<stop stop-color="#1F7494"/>
<stop offset="0.382768" stop-color="#0E6585"/>
<stop offset="0.901042" stop-color="#071F28"/>
</linearGradient>
<linearGradient id="paint13_linear_2328_6554" x1="17.6657" y1="12.1364" x2="19.5561" y2="18.0055" gradientUnits="userSpaceOnUse">
<stop stop-color="#1F7494"/>
<stop offset="0.382768" stop-color="#0E6585"/>
<stop offset="0.901042" stop-color="#071F28"/>
</linearGradient>
</defs>
</svg>
