<svg width="24" height="24" viewBox="0 0 24 24" fill="none" xmlns="http://www.w3.org/2000/svg">
<g clip-path="url(#clip0_5463_1598)">
<path d="M12 24C18.6278 24 24 18.6278 24 12C24 5.37225 18.6278 0 12 0C5.37225 0 0 5.37225 0 12C0 18.6278 5.37225 24 12 24Z" fill="url(#paint0_linear_5463_1598)"/>
<path fill-rule="evenodd" clip-rule="evenodd" d="M22 12C22 17.5231 17.747 22 12.5 22C10.2953 22 8.266 21.2095 6.65403 19.8832C7.9424 20.5949 10.4239 20.75 11.5 20.75C15.9708 20.75 19.75 16.4708 19.75 12C19.75 7.52919 15.9708 3.25 11.5 3.25C10.4239 3.25 7.9424 3.40509 6.65403 4.11684C8.266 2.79045 10.2953 2 12.5 2C17.747 2 22 6.47688 22 12ZM3.5 12C3.5 8.79766 4.42976 5.94705 6.65403 4.11684C3.87914 5.6498 2 8.60532 2 12C2 15.3947 3.87914 18.3502 6.65403 19.8832C4.42976 18.053 3.5 15.2023 3.5 12Z" fill="url(#paint1_linear_5463_1598)"/>
<path fill-rule="evenodd" clip-rule="evenodd" d="M22 12C22 17.5231 17.747 22 12.5 22C10.2953 22 8.266 21.2095 6.65403 19.8832C7.9424 20.5949 10.4239 20.75 11.5 20.75C15.9708 20.75 19.75 16.4708 19.75 12C19.75 7.52919 15.9708 3.25 11.5 3.25C10.4239 3.25 7.9424 3.40509 6.65403 4.11684C8.266 2.79045 10.2953 2 12.5 2C17.747 2 22 6.47688 22 12ZM3.5 12C3.5 8.79766 4.42976 5.94705 6.65403 4.11684C3.87914 5.6498 2 8.60532 2 12C2 15.3947 3.87914 18.3502 6.65403 19.8832C4.42976 18.053 3.5 15.2023 3.5 12Z" fill="white" fill-opacity="0.8"/>
<path d="M12.5535 16.4058C13.8433 16.2587 15.1375 15.4608 15.1375 14.0447C15.1375 10.9715 10.3143 12.1553 10.2776 10.0501C10.2776 9.16701 11.1721 8.7828 11.9371 8.81735C12.8195 8.85719 13.3878 9.33223 13.5195 10.1923H14.9834C14.9719 8.85964 13.8029 7.87719 12.5535 7.68976V6.5H11.2792V7.68395C9.94923 7.85887 8.71955 8.74344 8.73075 10.2101C8.76707 13.0798 13.6025 12.1012 13.6025 14.0566C13.6025 14.8982 12.6471 15.2656 11.9371 15.2656C10.9192 15.2656 10.189 14.8264 9.97536 13.9558H8.46997C8.65763 15.4427 9.88497 16.2544 11.2792 16.4049V17.5H12.5535V16.4058Z" fill="white"/>
</g>
<defs>
<linearGradient id="paint0_linear_5463_1598" x1="24" y1="12" x2="3.15777e-07" y2="12" gradientUnits="userSpaceOnUse">
<stop stop-color="#482BFF"/>
<stop offset="1" stop-color="#007AFF"/>
</linearGradient>
<linearGradient id="paint1_linear_5463_1598" x1="22" y1="12" x2="2" y2="12" gradientUnits="userSpaceOnUse">
<stop stop-color="#482BFF"/>
<stop offset="1" stop-color="#007AFF"/>
</linearGradient>
<clipPath id="clip0_5463_1598">
<rect width="24" height="24" fill="white"/>
</clipPath>
</defs>
</svg>
