<svg width="24" height="24" viewBox="0 0 24 24" fill="none" xmlns="http://www.w3.org/2000/svg">
<g clip-path="url(#clip0_5406_20794)">
<circle cx="12" cy="12" r="12" fill="#F2F2F2"/>
<path d="M11.9955 2L15.3084 6.77894L11.9955 7.99673L8.6189 6.77894L11.9955 2Z" fill="#D82292"/>
<path d="M8.61897 13.4684H15.3085L15.3084 6.77893L11.9956 7.99343L8.6189 6.77893L8.61897 13.4684Z" fill="#EF6FC4"/>
<path d="M15.3084 6.77893V13.4684L11.9955 12.2579V7.99371L15.3084 6.77893Z" fill="#FF8ABC"/>
<path d="M11.9955 18.2459L8.6189 13.4684L11.9955 12.2579L15.3084 13.4684L11.9955 18.2459Z" fill="#D82292"/>
<path d="M13.1093 22L13.7257 18.2318L15.6308 18.3991L16.4917 20.1686L13.1093 22Z" fill="#E748B1"/>
<path d="M19.3055 16.1499L16.5701 14.2159L13.7612 18.2322L15.6308 18.3989L16.4917 20.1684L19.3055 16.1499Z" fill="#FF8ABC"/>
<path d="M13.7257 18.2316L16.5394 14.2131L17.4213 15.8417L15.6308 18.3989L13.7257 18.2316Z" fill="#DA33A2"/>
<path d="M19.906 12.337L19.3054 16.15L17.4213 15.8417L16.5395 14.2132L19.906 12.337Z" fill="#E748B1"/>
<path d="M10.8907 22L10.2743 18.2318L8.3693 18.3991L7.50836 20.1686L10.8907 22Z" fill="#D82292"/>
<path d="M4.69463 16.1499L7.42996 14.2159L10.2389 18.2322L8.36932 18.3989L7.50838 20.1684L4.69463 16.1499Z" fill="#E748B1"/>
<path d="M10.2743 18.2316L7.46059 14.2131L6.57874 15.8417L8.36932 18.3989L10.2743 18.2316Z" fill="#DA33A2"/>
<path d="M4.09398 12.337L4.69462 16.15L6.57873 15.8417L7.46059 14.2132L4.09398 12.337Z" fill="#FF8ABC"/>
</g>
<defs>
<clipPath id="clip0_5406_20794">
<rect width="24" height="24" fill="white"/>
</clipPath>
</defs>
</svg>
