<svg width="24" height="24" viewBox="0 0 24 24" fill="none" xmlns="http://www.w3.org/2000/svg">
<path d="M12 24C18.6274 24 24 18.6274 24 12C24 5.37257 18.6274 0 12 0C5.37257 0 0 5.37257 0 12C0 18.6274 5.37257 24 12 24Z" fill="white"/>
<path d="M11.5438 9.78794C11.5438 9.91151 11.644 10.0117 11.7676 10.0117H12.5147C12.6383 10.0117 12.7384 9.91151 12.7384 9.78794V7.93877C12.7384 7.88683 12.7535 7.836 12.7818 7.79245L15.0669 4.27655C15.1443 4.15746 15.0588 4 14.9168 4H9.36547C9.22344 4 9.13798 4.15746 9.21538 4.27655L11.5004 7.79245C11.5287 7.836 11.5438 7.88683 11.5438 7.93877V9.78794Z" fill="url(#paint0_linear_5375_1681)"/>
<path d="M10.1649 10.8832C10.2523 10.9705 10.394 10.9705 10.4814 10.8832L11.0097 10.3549C11.097 10.2675 11.097 10.1258 11.0097 10.0384L9.70211 8.73086C9.66538 8.69413 9.6401 8.64754 9.62931 8.59673L8.75897 4.49483C8.72949 4.3559 8.55772 4.30499 8.4573 4.40541L4.53192 8.33079C4.4315 8.43121 4.48241 8.60299 4.62134 8.63246L8.72324 9.50281C8.77405 9.51359 8.82064 9.53887 8.85737 9.5756L10.1649 10.8832Z" fill="url(#paint1_linear_5375_1681)"/>
<path d="M10.1881 12.3991C10.1881 12.5226 10.0879 12.6228 9.96436 12.6228H8.11519C8.06325 12.6228 8.01242 12.6379 7.96887 12.6662L4.45297 14.9512C4.33389 15.0286 4.17642 14.9432 4.17642 14.8011V9.24983C4.17642 9.10781 4.33389 9.02235 4.45297 9.09974L7.96887 11.3848C8.01242 11.4131 8.06325 11.4282 8.11519 11.4282H9.96436C10.0879 11.4282 10.1881 11.5283 10.1881 11.6519V12.3991Z" fill="url(#paint2_linear_5375_1681)"/>
<path d="M11.0097 14.0115C11.097 13.9241 11.097 13.7824 11.0097 13.6951L10.4814 13.1667C10.394 13.0794 10.2523 13.0794 10.1649 13.1667L8.85737 14.4743C8.82064 14.511 8.77405 14.5363 8.72324 14.5471L4.62134 15.4174C4.48241 15.4469 4.4315 15.6187 4.53192 15.7191L8.4573 19.6445C8.55772 19.7449 8.72949 19.694 8.75897 19.5551L9.62931 15.4532C9.6401 15.4024 9.66538 15.3558 9.70211 15.319L11.0097 14.0115Z" fill="url(#paint3_linear_5375_1681)"/>
<path d="M12.5147 13.9883C12.6383 13.9883 12.7384 14.0885 12.7384 14.2121V16.0612C12.7384 16.1132 12.7535 16.164 12.7818 16.2075L15.0669 19.7235C15.1443 19.8425 15.0588 20 14.9168 20H9.36547C9.22344 20 9.13799 19.8425 9.21538 19.7235L11.5004 16.2075C11.5287 16.164 11.5438 16.1132 11.5438 16.0612V14.2121C11.5438 14.0885 11.644 13.9883 11.7676 13.9883H12.5147Z" fill="url(#paint4_linear_5375_1681)"/>
<path d="M14.138 13.1667C14.0506 13.0794 13.9089 13.0794 13.8216 13.1667L13.2933 13.6951C13.2059 13.7824 13.2059 13.9241 13.2933 14.0115L14.6008 15.319C14.6375 15.3558 14.6628 15.4024 14.6736 15.4532L15.544 19.5551C15.5734 19.694 15.7452 19.7449 15.8456 19.6445L19.771 15.7191C19.8714 15.6187 19.8205 15.4469 19.6816 15.4174L15.5797 14.5471C15.5289 14.5363 15.4823 14.511 15.4456 14.4743L14.138 13.1667Z" fill="url(#paint5_linear_5375_1681)"/>
<path d="M13.2933 10.3548C13.2059 10.2675 13.2059 10.1258 13.2933 10.0384L14.6008 8.73086C14.6375 8.69413 14.6628 8.64754 14.6736 8.59673L15.544 4.49483C15.5734 4.3559 15.7452 4.30499 15.8456 4.40541L19.771 8.33079C19.8714 8.43121 19.8205 8.60298 19.6816 8.63246L15.5797 9.5028C15.5289 9.51359 15.4823 9.53887 15.4456 9.5756L14.138 10.8832C14.0506 10.9705 13.9089 10.9705 13.8216 10.8832L13.2933 10.3548Z" fill="url(#paint6_linear_5375_1681)"/>
<defs>
<linearGradient id="paint0_linear_5375_1681" x1="4.17642" y1="4" x2="19.8236" y2="20" gradientUnits="userSpaceOnUse">
<stop offset="0.146172" stop-color="#EA6DC1"/>
<stop offset="0.85418" stop-color="#FE1346"/>
</linearGradient>
<linearGradient id="paint1_linear_5375_1681" x1="4.17642" y1="4" x2="19.8236" y2="20" gradientUnits="userSpaceOnUse">
<stop offset="0.146172" stop-color="#EA6DC1"/>
<stop offset="0.85418" stop-color="#FE1346"/>
</linearGradient>
<linearGradient id="paint2_linear_5375_1681" x1="4.17642" y1="4" x2="19.8236" y2="20" gradientUnits="userSpaceOnUse">
<stop offset="0.146172" stop-color="#EA6DC1"/>
<stop offset="0.85418" stop-color="#FE1346"/>
</linearGradient>
<linearGradient id="paint3_linear_5375_1681" x1="4.17642" y1="4" x2="19.8236" y2="20" gradientUnits="userSpaceOnUse">
<stop offset="0.146172" stop-color="#EA6DC1"/>
<stop offset="0.85418" stop-color="#FE1346"/>
</linearGradient>
<linearGradient id="paint4_linear_5375_1681" x1="4.17642" y1="4" x2="19.8236" y2="20" gradientUnits="userSpaceOnUse">
<stop offset="0.146172" stop-color="#EA6DC1"/>
<stop offset="0.85418" stop-color="#FE1346"/>
</linearGradient>
<linearGradient id="paint5_linear_5375_1681" x1="4.17642" y1="4" x2="19.8236" y2="20" gradientUnits="userSpaceOnUse">
<stop offset="0.146172" stop-color="#EA6DC1"/>
<stop offset="0.85418" stop-color="#FE1346"/>
</linearGradient>
<linearGradient id="paint6_linear_5375_1681" x1="4.17642" y1="4" x2="19.8236" y2="20" gradientUnits="userSpaceOnUse">
<stop offset="0.146172" stop-color="#EA6DC1"/>
<stop offset="0.85418" stop-color="#FE1346"/>
</linearGradient>
</defs>
</svg>
