<svg width="24" height="24" viewBox="0 0 24 24" fill="none" xmlns="http://www.w3.org/2000/svg">
<g clip-path="url(#clip0_5406_20795)">
<circle cx="12" cy="12" r="12" fill="#F2F2F2"/>
<path d="M23.25 12C23.25 18.2132 18.2132 23.25 12 23.25C5.7868 23.25 0.75 18.2132 0.75 12C0.75 5.7868 5.7868 0.75 12 0.75C18.2132 0.75 23.25 5.7868 23.25 12Z" stroke="#1BE3C2" stroke-width="1.5"/>
<path d="M11.9962 3.46753L14.8254 7.54874L11.9962 8.58873L9.11256 7.54874L11.9962 3.46753Z" fill="#D82292"/>
<path d="M9.11262 13.2615H14.8255L14.8254 7.54871L11.9963 8.58589L9.11256 7.54871L9.11262 13.2615Z" fill="#EF6FC4"/>
<path d="M14.8254 7.54871V13.2615L11.9962 12.2278V8.58613L14.8254 7.54871Z" fill="#FF8ABC"/>
<path d="M11.9962 17.3415L9.11256 13.2616L11.9962 12.2278L14.8254 13.2616L11.9962 17.3415Z" fill="#D82292"/>
<path d="M12.9474 20.5475L13.4738 17.3295L15.1007 17.4723L15.8359 18.9835L12.9474 20.5475Z" fill="#E748B1"/>
<path d="M18.2389 15.5515L15.9029 13.8999L13.5041 17.3298L15.1007 17.4722L15.836 18.9833L18.2389 15.5515Z" fill="#FF8ABC"/>
<path d="M13.4738 17.3293L15.8767 13.8976L16.6298 15.2884L15.1007 17.4722L13.4738 17.3293Z" fill="#DA33A2"/>
<path d="M18.7518 12.2954L18.2389 15.5516L16.6298 15.2884L15.8767 13.8976L18.7518 12.2954Z" fill="#E748B1"/>
<path d="M11.0527 20.5475L10.5263 17.3295L8.89941 17.4723L8.16417 18.9835L11.0527 20.5475Z" fill="#D82292"/>
<path d="M5.76125 15.5515L8.09722 13.8999L10.496 17.3298L8.89943 17.4722L8.16419 18.9833L5.76125 15.5515Z" fill="#E748B1"/>
<path d="M10.5263 17.3293L8.12338 13.8976L7.37027 15.2884L8.89943 17.4722L10.5263 17.3293Z" fill="#DA33A2"/>
<path d="M5.24829 12.2954L5.76124 15.5516L7.37027 15.2884L8.12337 13.8976L5.24829 12.2954Z" fill="#FF8ABC"/>
<path d="M8.50376 14.6028H4.61252C2.10484 14.6028 0.0719757 16.6357 0.0719757 19.1433C0.0719757 21.651 2.10484 23.6839 4.61252 23.6839H8.50376C11.0114 23.6839 13.0443 21.651 13.0443 19.1433C13.0443 16.6357 11.0114 14.6028 8.50376 14.6028Z" fill="url(#paint0_radial_5406_20795)"/>
<path d="M3 21.6082L3.71194 17.3198H4.61861L4.03231 20.8607H5.87078L5.74515 21.6082H3Z" fill="white"/>
<path d="M7 21.6082L7.71196 17.3198H9.40383C9.7277 17.3198 9.99364 17.3819 10.2016 17.5062C10.411 17.629 10.5576 17.8 10.6413 18.0192C10.7265 18.2369 10.7461 18.4882 10.7 18.773C10.6525 19.0592 10.5492 19.3111 10.3901 19.5289C10.2323 19.7453 10.0271 19.9142 9.77446 20.0357C9.52182 20.1571 9.23005 20.2178 8.89918 20.2178H7.8208L7.94015 19.4912H8.872C9.04785 19.4912 9.19795 19.4612 9.32216 19.4012C9.44781 19.3398 9.54763 19.2553 9.62158 19.1478C9.69559 19.0389 9.74372 18.914 9.7661 18.773C9.78984 18.6292 9.78212 18.5043 9.74307 18.3982C9.70396 18.2921 9.63209 18.2097 9.5274 18.1511C9.42407 18.0911 9.28519 18.061 9.1107 18.061H8.49929L7.90668 21.6082H7Z" fill="white"/>
</g>
<defs>
<radialGradient id="paint0_radial_5406_20795" cx="0" cy="0" r="1" gradientUnits="userSpaceOnUse" gradientTransform="translate(6.55816 19.1433) rotate(-180) scale(8.54997 16.6314)">
<stop stop-color="#090D18"/>
<stop offset="0.5" stop-color="#090D18" stop-opacity="0.505208"/>
<stop offset="1" stop-color="#090D18" stop-opacity="0"/>
</radialGradient>
<clipPath id="clip0_5406_20795">
<rect width="24" height="24" fill="white"/>
</clipPath>
</defs>
</svg>
