<svg width="24" height="24" viewBox="0 0 24 24" fill="none" xmlns="http://www.w3.org/2000/svg">
<g clip-path="url(#clip0_5360_10883)">
<circle cx="12" cy="12" r="12" fill="#F2F2F2"/>
<path d="M8.05548 10.0052L12.4444 7.8611V2L8.05548 10.0052Z" fill="#FF596E"/>
<path d="M12.4445 7.86182V12.5319L16.8334 10.0059L12.4445 7.86182Z" fill="#FF596E"/>
<path d="M12.4444 7.86182V12.5319L8.05548 10.0059L12.4444 7.86182Z" fill="#800010"/>
<path d="M16.8334 10.0052L12.4445 7.8611V2L16.8334 10.0052Z" fill="#800010"/>
<path d="M12.4443 14.3354V19.3128L7.97034 11.7607L12.4443 14.3354Z" fill="#FF596E"/>
<path d="M12.4445 14.3354V19.3128L16.9185 11.7607L12.4445 14.3354Z" fill="#800010"/>
<path d="M17.6563 12.9L18.6702 15.8947L20.8889 11.9902L17.6563 12.9Z" fill="#800010"/>
<path d="M18.6683 15.8947L20.8888 15.202V11.9902L18.6683 15.8947Z" fill="#FF596E"/>
<path d="M20.8871 15.2031L17.6545 20.8923L15.1996 22L18.6684 15.8958L20.8871 15.2031Z" fill="#800010"/>
<path d="M4 15.2031L7.23263 20.8923L9.68749 22L6.21875 15.8958L4 15.2031Z" fill="#FF596E"/>
<path d="M12.4444 21.9998L7.23261 12.9009L6.22046 15.8957L9.6892 21.9998H12.4444Z" fill="#800010"/>
<path d="M7.23263 12.9L6.21875 15.8947L4 11.9902L7.23263 12.9Z" fill="#FF596E"/>
<path d="M6.21875 15.8947L4 15.202V11.9902L6.21875 15.8947Z" fill="#800010"/>
<path d="M12.4445 21.9998L17.6563 12.9009L18.6685 15.8957L15.1997 21.9998H12.4445Z" fill="#FF596E"/>
</g>
<defs>
<clipPath id="clip0_5360_10883">
<rect width="24" height="24" fill="white"/>
</clipPath>
</defs>
</svg>
