<svg width="24" height="24" viewBox="0 0 24 24" fill="none" xmlns="http://www.w3.org/2000/svg">
<path d="M24 12C24 5.37258 18.6274 0 12 0C5.37258 0 0 5.37258 0 12C0 18.6274 5.37258 24 12 24C18.6274 24 24 18.6274 24 12Z" fill="black"/>
<path fill-rule="evenodd" clip-rule="evenodd" d="M13.032 5.42733L13.546 2.11867C13.038 2.04 12.518 2 12 2H11.992V8.75H12C12.2847 8.75 12.566 8.78664 12.8373 8.85867L13.7107 5.56933C13.4873 5.51 13.2607 5.46333 13.0327 5.42733H13.032ZM10.3727 9.18602L8.69262 6.29199H8.69195C8.49398 6.40734 8.30062 6.53199 8.11598 6.66668L6.10996 3.91801C6.53195 3.61001 6.98129 3.33334 7.44531 3.09534L8.97195 6.07535C9.28195 5.91734 9.60332 5.78334 9.93398 5.67534L8.89531 2.49201C9.39195 2.33001 9.90531 2.20601 10.422 2.12401L10.956 5.48467C10.73 5.52067 10.5053 5.57001 10.284 5.62934L11.1533 8.86066C10.8806 8.93398 10.618 9.04398 10.3727 9.18602ZM3.08331 7.46875L6.11598 9.01273C5.96 9.31941 5.82732 9.64074 5.72132 9.96809L2.48331 8.92074C2.64398 8.4234 2.84598 7.93473 3.08331 7.46875ZM17.706 8.68934L14.8127 10.3707C14.9553 10.616 15.0646 10.8786 15.138 11.1513L18.3693 10.2807C18.4287 10.502 18.478 10.7266 18.514 10.952L21.8746 10.4166C21.7927 9.9 21.6687 9.38664 21.506 8.89L18.3233 9.93066C18.2153 9.6 18.0813 9.27867 17.9227 8.96867L20.902 7.44C20.664 6.97598 20.3873 6.5273 20.0787 6.10531L17.3307 8.11266C17.4653 8.2973 17.5907 8.49066 17.7053 8.68867L17.706 8.68934ZM16.5257 3.08054L16.526 3.08067V3.08001L16.5257 3.08054ZM15.0733 2.48134C15.5705 2.64198 16.0591 2.84326 16.5257 3.08054L14.984 6.11402C14.6766 5.95801 14.3553 5.82534 14.028 5.72L15.0733 2.48134ZM15.318 6.23273L13.6186 9.18141C13.8646 9.3234 14.0913 9.49672 14.2933 9.69805L19.0586 4.91673C18.6893 4.54806 18.2873 4.20606 17.8653 3.90006L15.9 6.61008C15.7126 6.47406 15.5186 6.34805 15.318 6.23273ZM9.1827 10.3794L6.23469 8.67871H6.23402C6.35004 8.47871 6.47602 8.28473 6.61203 8.09738L3.9027 6.1307C4.20936 5.70871 4.55136 5.30737 4.92003 4.93804L9.70004 9.70469C9.49871 9.90672 9.32469 10.1334 9.1827 10.3794ZM5.57067 10.2861L8.85934 11.1614H8.85867C8.78668 11.4327 8.75 11.7147 8.75 12.0001H2C2 11.4807 2.04067 10.9587 2.12 10.4487L5.42867 10.9641C5.464 10.7361 5.51134 10.5094 5.57067 10.2861ZM17.8839 14.9873L20.9166 16.5313C21.154 16.0653 21.356 15.5766 21.5166 15.0793L18.2786 14.032C18.1726 14.3593 18.04 14.6806 17.8839 14.9873ZM13.6273 14.814L15.3073 17.708L15.308 17.7087C15.506 17.5934 15.6993 17.4687 15.884 17.334L17.89 20.0827C17.468 20.3907 17.0187 20.6673 16.5547 20.9054L15.028 17.9254C14.718 18.0834 14.3967 18.2173 14.066 18.3254L15.1047 21.5087C14.608 21.6707 14.0947 21.7947 13.578 21.8767L13.044 18.5154C13.27 18.4793 13.4947 18.43 13.716 18.3707L12.8467 15.1394C13.1193 15.066 13.382 14.956 13.6273 14.814ZM6.29406 15.3107L9.18738 13.6293C9.04473 13.384 8.93539 13.1213 8.86207 12.8487L5.63073 13.7193C5.5714 13.498 5.52207 13.2733 5.48607 13.048L2.12473 13.5833C2.20673 14.1 2.33073 14.6133 2.49339 15.11L5.67607 14.0693C5.78407 14.4 5.91805 14.7213 6.07672 15.0313L3.09739 16.56C3.33539 17.024 3.61206 17.4727 3.92073 17.8946L6.66875 15.8873C6.53406 15.7027 6.40875 15.5093 6.29406 15.3113V15.3107ZM7.47422 20.9194L7.47395 20.9193V20.92L7.47422 20.9194ZM7.47422 20.9194C7.94082 21.1567 8.42938 21.358 8.92664 21.5186L9.97195 18.28C9.64461 18.1746 9.32328 18.042 9.01598 17.886L7.47422 20.9194ZM8.68203 17.7673L8.68219 17.767L8.6827 17.7673H8.68203ZM8.68219 17.767L10.3814 14.8186C10.1354 14.6766 9.90871 14.5033 9.70668 14.302L4.94202 19.0833C5.31136 19.452 5.71336 19.794 6.13535 20.1L8.1007 17.39C8.28789 17.5259 8.48172 17.6518 8.68219 17.767ZM14.818 13.6206L17.7661 15.3213V15.322C17.65 15.522 17.5241 15.7159 17.388 15.9033L20.0974 17.87C19.7907 18.292 19.4487 18.6933 19.08 19.0626L14.3007 14.2953C14.502 14.0933 14.6761 13.8666 14.818 13.6206ZM11.1627 15.1413L11.1627 15.1415L11.162 15.1413H11.1627ZM11.1627 15.1415L10.2893 18.4307C10.5127 18.49 10.7393 18.5367 10.9673 18.5727L10.4534 21.8813C10.9614 21.96 11.4814 22 11.9993 22H12.0073V15.25H11.9993C11.7149 15.25 11.4338 15.2134 11.1627 15.1415ZM15.1413 12.8387C15.2133 12.5675 15.25 12.2857 15.25 12.0007H22C22 12.52 21.9593 13.042 21.88 13.552L18.572 13.036C18.5367 13.264 18.4893 13.4907 18.43 13.714L15.1413 12.8387Z" fill="white"/>
</svg>
