<svg width="24" height="24" viewBox="0 0 24 24" fill="none" xmlns="http://www.w3.org/2000/svg">
<g clip-path="url(#clip0_5406_20795)">
<circle cx="12" cy="12" r="12" fill="#F2F2F2"/>
<path d="M23.25 12C23.25 18.2132 18.2132 23.25 12 23.25C5.7868 23.25 0.75 18.2132 0.75 12C0.75 5.7868 5.7868 0.75 12 0.75C18.2132 0.75 23.25 5.7868 23.25 12Z" stroke="#1BE3C2" stroke-width="1.5"/>
<path d="M11.9962 3.46753L14.8254 7.54874L11.9962 8.58873L9.11256 7.54874L11.9962 3.46753Z" fill="#D82292"/>
<path d="M9.11262 13.2615H14.8255L14.8254 7.54871L11.9963 8.58589L9.11256 7.54871L9.11262 13.2615Z" fill="#EF6FC4"/>
<path d="M14.8254 7.54871V13.2615L11.9962 12.2278V8.58613L14.8254 7.54871Z" fill="#FF8ABC"/>
<path d="M11.9962 17.3415L9.11256 13.2616L11.9962 12.2278L14.8254 13.2616L11.9962 17.3415Z" fill="#D82292"/>
<path d="M12.9474 20.5475L13.4738 17.3295L15.1007 17.4723L15.8359 18.9835L12.9474 20.5475Z" fill="#E748B1"/>
<path d="M18.2389 15.5515L15.9029 13.8999L13.5041 17.3298L15.1007 17.4722L15.836 18.9833L18.2389 15.5515Z" fill="#FF8ABC"/>
<path d="M13.4738 17.3293L15.8767 13.8976L16.6298 15.2884L15.1007 17.4722L13.4738 17.3293Z" fill="#DA33A2"/>
<path d="M18.7518 12.2954L18.2389 15.5516L16.6298 15.2884L15.8767 13.8976L18.7518 12.2954Z" fill="#E748B1"/>
<path d="M11.0527 20.5475L10.5263 17.3295L8.89941 17.4723L8.16417 18.9835L11.0527 20.5475Z" fill="#D82292"/>
<path d="M5.76125 15.5515L8.09722 13.8999L10.496 17.3298L8.89943 17.4722L8.16419 18.9833L5.76125 15.5515Z" fill="#E748B1"/>
<path d="M10.5263 17.3293L8.12338 13.8976L7.37027 15.2884L8.89943 17.4722L10.5263 17.3293Z" fill="#DA33A2"/>
<path d="M5.24829 12.2954L5.76124 15.5516L7.37027 15.2884L8.12337 13.8976L5.24829 12.2954Z" fill="#FF8ABC"/>
</g>
<defs>
<clipPath id="clip0_5406_20795">
<rect width="24" height="24" fill="white"/>
</clipPath>
</defs>
</svg>
