<?xml version="1.0" encoding="utf-8"?>
<svg version="1.1" xmlns="http://www.w3.org/2000/svg" xmlns:xlink="http://www.w3.org/1999/xlink" x="0px" y="0px"
	 viewBox="0 0 400 400" style="enable-background:new 0 0 400 400;" xml:space="preserve">
<circle style="fill:#161515;" cx="200" cy="200" r="200"/>
<circle style="fill:#063C4F;" cx="200" cy="200" r="200"/>
<radialGradient id="SVGID_SWTH_1_" cx="-105.0925" cy="597.0593" r="1" gradientTransform="matrix(-1132.6895 1.028 2.9871 3291.1685 -120471.2891 -1964605.625)" gradientUnits="userSpaceOnUse">
	<stop  offset="0.1042" style="stop-color:#24537E"/>
	<stop  offset="0.5203" style="stop-color:#4FC1C0"/>
	<stop  offset="1" style="stop-color:#DAFFF4"/>
</radialGradient>
<path style="fill:url(#SVGID_SWTH_1_);" d="M50.6,230.9c1.5,0,3,0.1,4.4,0.1c30.5,0,59-8.8,83-23.9c9.8,50.7,54.4,88.9,108,88.9
	c43.8,0,81.6-25.6,99.3-62.7c1.4-0.7,2.7-1.5,4.1-2.3C330.1,295.2,270.5,342,200,342C129.5,342,69.9,295.2,50.6,230.9z"/>
<path style="fill:#04171E;fill-opacity:0.88;" d="M50.6,230.9c1.5,0,3,0.1,4.4,0.1c30.5,0,59-8.8,83-23.9
	c9.8,50.7,54.4,88.9,108,88.9c43.8,0,81.6-25.6,99.3-62.7c1.4-0.7,2.7-1.5,4.1-2.3C330.1,295.2,270.5,342,200,342
	C129.5,342,69.9,295.2,50.6,230.9z"/>
<radialGradient id="SVGID_SWTH_2_" cx="-105.0925" cy="597.0593" r="1" gradientTransform="matrix(-1132.6895 1.028 2.9871 3291.1685 -120471.2891 -1964605.625)" gradientUnits="userSpaceOnUse">
	<stop  offset="0.1042" style="stop-color:#24537E"/>
	<stop  offset="0.5203" style="stop-color:#4FC1C0"/>
	<stop  offset="1" style="stop-color:#DAFFF4"/>
</radialGradient>
<path style="fill:url(#SVGID_SWTH_2_);" d="M51.3,233.4c1.2,0,2.5,0,3.7,0c30.7,0,59.3-8.9,83.5-24.2C149.1,258.8,193.2,296,246,296
	c43.8,0,81.6-25.6,99.3-62.7c1.4-0.7,2.7-1.5,4.1-2.3C330.1,295.2,270.5,342,200,342C130.3,342,71.4,296.4,51.3,233.4z"/>
<path style="fill:#04171E;fill-opacity:0.4;" d="M51.3,233.4c1.2,0,2.5,0,3.7,0c30.7,0,59.3-8.9,83.5-24.2
	C149.1,258.8,193.2,296,246,296c43.8,0,81.6-25.6,99.3-62.7c1.4-0.7,2.7-1.5,4.1-2.3C330.1,295.2,270.5,342,200,342
	C130.3,342,71.4,296.4,51.3,233.4z"/>
<linearGradient id="SVGID_SWTH_3_" gradientUnits="userSpaceOnUse" x1="190.2592" y1="43.1118" x2="138.7952" y2="310.7999" gradientTransform="matrix(1 0 0 -1 0 402)">
	<stop  offset="0" style="stop-color:#04171E"/>
	<stop  offset="1" style="stop-color:#04171E;stop-opacity:0"/>
</linearGradient>
<path style="fill:url(#SVGID_SWTH_3_);fill-opacity:0.64;" d="M273.8,292.5C251.6,310.9,223.1,322,192,322c-58.1,0-107.1-38.7-122.8-91.6
	c25.1-2.3,48.5-10.5,68.8-23.3c9.8,50.7,54.4,88.9,108,88.9C255.6,296,264.9,294.8,273.8,292.5z"/>
<radialGradient id="SVGID_SWTH_4_" cx="-105.4798" cy="596.9409" r="1" gradientTransform="matrix(121.0179 -190.2545 -2756.8948 -1753.6176 1658574.375 1027024)" gradientUnits="userSpaceOnUse">
	<stop  offset="0.1042" style="stop-color:#3A78B1"/>
	<stop  offset="0.5203" style="stop-color:#4FC1C0"/>
	<stop  offset="1" style="stop-color:#8CF2FD"/>
</radialGradient>
<path style="fill:url(#SVGID_SWTH_4_);" d="M328,186c0,70.7-57.3,128-128,128S72,256.7,72,186S129.3,58,200,58S328,115.3,328,186z"/>
<radialGradient id="SVGID_SWTH_5_" cx="-104.8708" cy="597.9974" r="1" gradientTransform="matrix(-180.0001 129.5005 128.5812 178.7224 -95449.0078 -93222.7266)" gradientUnits="userSpaceOnUse">
	<stop  offset="0.2165" style="stop-color:#FFFFFF"/>
	<stop  offset="0.9063" style="stop-color:#FFFFFF;stop-opacity:0"/>
</radialGradient>
<path style="fill:url(#SVGID_SWTH_5_);fill-opacity:0.6;" d="M319.5,162c0,49.7-40.3,90-90,90s-90-40.3-90-90c0-49.7,40.3-90,90-90
	S319.5,112.3,319.5,162z"/>
<linearGradient id="SVGID_SWTH_6_" gradientUnits="userSpaceOnUse" x1="250.7183" y1="349.5163" x2="118.7183" y2="292.0163" gradientTransform="matrix(1 0 0 -1 0 402)">
	<stop  offset="0" style="stop-color:#FFFFFF"/>
	<stop  offset="0.7324" style="stop-color:#FFFFFF;stop-opacity:0"/>
</linearGradient>
<path style="fill:url(#SVGID_SWTH_6_);fill-opacity:0.64;" d="M208.4,72.1c-2-0.1-4-0.2-6.1-0.2c-19.1,0-37.2,4.8-52.9,13.3
	c8.4-1.9,17.2-2.8,26.2-2.8c9.2,0,18.1,1,26.6,2.9L208.4,72.1z"/>
<linearGradient id="SVGID_SWTH_7_" gradientUnits="userSpaceOnUse" x1="293.3822" y1="251.5749" x2="161.3822" y2="194.0749" gradientTransform="matrix(1 0 0 -1 0 402)">
	<stop  offset="0" style="stop-color:#FFFFFF"/>
	<stop  offset="0.7324" style="stop-color:#FFFFFF;stop-opacity:0"/>
</linearGradient>
<path style="fill:url(#SVGID_SWTH_7_);fill-opacity:0.64;" d="M215.8,89.3c47.1,16.6,80.8,61.4,80.8,114.2c0,21.7-5.7,42-15.7,59.6
	c20.5-20.2,33.1-48.3,33.1-79.4C314,129,274.8,83.6,223,73.9L215.8,89.3z"/>
<linearGradient id="SVGID_SWTH_8_" gradientUnits="userSpaceOnUse" x1="598.7853" y1="466.1639" x2="58.9142" y2="16.378" gradientTransform="matrix(1 0 0 -1 0 402)">
	<stop  offset="0" style="stop-color:#04171E"/>
	<stop  offset="1" style="stop-color:#04171E;stop-opacity:0"/>
</linearGradient>
<path style="fill:url(#SVGID_SWTH_8_);fill-opacity:0.64;" d="M268.4,294.2C248.6,306.7,225.2,314,200,314c-39.9,0-75.5-18.2-99-46.8
	c6.5,1.2,13.1,1.8,20,1.8c49.5,0,91.3-32.7,105.2-77.6c4.6,0.4,9.2,0.6,13.8,0.6c32,0,61.7-9.6,86.4-26.1c1,6.6,1.6,13.3,1.6,20.1
	c0,4.2-0.2,8.4-0.6,12.6C320.2,237.4,298.6,271.2,268.4,294.2z"/>
<linearGradient id="SVGID_SWTH_9_" gradientUnits="userSpaceOnUse" x1="306.3591" y1="174.6578" x2="103.8583" y2="103.1578" gradientTransform="matrix(1 0 0 -1 0 402)">
	<stop  offset="0" style="stop-color:#0E6585"/>
	<stop  offset="1" style="stop-color:#04171E"/>
</linearGradient>
<path style="fill:url(#SVGID_SWTH_9_);" d="M50.6,231.1c19.3,64.2,78.9,111,149.4,111c85.8,0,155.5-69.3,156-155
	c-8.6-0.1-17-0.8-25.1-2.2c-19.2,8.5-40.5,13.2-62.9,13.2c-7.8,0-15.4-0.6-22.8-1.7c-13.8,45-55.7,77.7-105.2,77.7
	c-34.5,0-65.3-15.9-85.5-40.8C53.2,232.5,51.9,231.8,50.6,231.1z"/>
<radialGradient id="SVGID_SWTH_10_" cx="-105.2137" cy="596.9243" r="1" gradientTransform="matrix(144.3669 -115.0948 -1795.1154 -2251.6665 1086829 1332290)" gradientUnits="userSpaceOnUse">
	<stop  offset="0.1042" style="stop-color:#3A78B1"/>
	<stop  offset="0.5203" style="stop-color:#4FC1C0"/>
	<stop  offset="1" style="stop-color:#8CF2FD"/>
</radialGradient>
<path style="fill:url(#SVGID_SWTH_10_);" d="M356,187.1c-22.9,13.3-49.6,20.9-78,20.9c-5.4,0-10.8-0.3-16-0.8
	c-9.9,50.6-54.5,88.8-108,88.8c-43.8,0-81.6-25.6-99.3-62.7c-1.4-0.7-2.7-1.5-4.1-2.3C69.9,295.2,129.5,342,200,342
	C285.8,342,355.4,272.8,356,187.1z"/>
<linearGradient id="SVGID_SWTH_11_" gradientUnits="userSpaceOnUse" x1="342.7867" y1="210.4602" x2="264.9107" y2="92.4192" gradientTransform="matrix(1 0 0 -1 0 402)">
	<stop  offset="0" style="stop-color:#FFFFFF;stop-opacity:0.64"/>
	<stop  offset="1" style="stop-color:#FFFFFF;stop-opacity:0"/>
</linearGradient>
<path style="display:none;fill:url(#SVGID_SWTH_11_);fill-opacity:0.64;" d="M344.6,193.1c-9.4,4.4-19.3,8-29.6,10.5
	c-1.3,11.4-3.9,22.8-7.8,34.1c-9.5,27.5-25.6,50.9-46,68.8c34.8-16.8,63.2-46.9,76.8-86.3C341.1,211.2,343.3,202.2,344.6,193.1z"/>
<linearGradient id="SVGID_SWTH_12_" gradientUnits="userSpaceOnUse" x1="262.7789" y1="193.9802" x2="237.4619" y2="209.6302" gradientTransform="matrix(1 0 0 -1 0 402)">
	<stop  offset="0" style="stop-color:#8CF2FD"/>
	<stop  offset="1" style="stop-color:#8CF2FD;stop-opacity:0"/>
</linearGradient>
<path style="opacity:0.2;fill-rule:evenodd;clip-rule:evenodd;fill:url(#SVGID_SWTH_12_);enable-background:new    ;" d="M245.1,196.6
	c0.2-0.2,0.5-0.3,0.7-0.1c5.2,4.1,10.8,7.8,16.9,10.9c0.3,0.1,0.4,0.5,0.2,0.7s-0.4,0.4-0.7,0.2c-6.1-3.1-11.8-6.8-17-11
	C245,197.2,244.9,196.8,245.1,196.6z"/>
</svg>
