<svg width="256" height="256" viewBox="0 0 256 256" fill="none" xmlns="http://www.w3.org/2000/svg">
<circle cx="128" cy="128" r="127.595" fill="url(#paint0_linear_1014_480)"/>
<path d="M221.032 127.979C221.032 127.979 221.032 127.979 221.032 127.975C221.032 127.472 221.036 126.968 221.032 126.461C221.032 126.461 221.032 126.461 221.032 126.456C221.032 126.443 221.032 126.433 221.032 126.42V126.41C221.032 126.008 221.022 125.619 221.018 125.235C221.004 124.54 220.986 123.872 220.954 123.236C220.954 123.236 220.954 123.232 220.954 123.227C220.954 123.218 220.954 123.209 220.954 123.2C220.954 123.2 220.954 123.2 220.954 123.195C220.931 122.669 220.908 122.143 220.876 121.626C220.844 121.105 220.807 120.583 220.771 120.039C220.688 118.941 220.583 117.862 220.469 116.837C220.409 116.307 220.345 115.772 220.281 115.287C220.281 115.287 220.281 115.278 220.281 115.273C220.281 115.264 220.281 115.259 220.281 115.25C220.236 114.903 220.19 114.564 220.144 114.226C220.094 113.855 220.039 113.489 219.984 113.123C219.929 112.767 219.874 112.41 219.815 112.058C219.728 111.527 219.637 111.001 219.545 110.489C219.495 110.21 219.444 109.935 219.394 109.666C219.371 109.542 219.348 109.423 219.325 109.304C219.298 109.162 219.271 109.016 219.243 108.874C219.216 108.737 219.188 108.604 219.161 108.472C219.133 108.348 219.11 108.225 219.083 108.106C219.056 107.973 219.028 107.845 218.996 107.712C218.973 107.607 218.95 107.502 218.928 107.401C218.928 107.383 218.918 107.365 218.914 107.347C218.914 107.337 218.914 107.324 218.909 107.315C218.905 107.287 218.9 107.26 218.891 107.237C218.786 106.784 218.685 106.327 218.58 105.869C218.562 105.778 218.534 105.663 218.498 105.535C218.498 105.517 218.488 105.499 218.484 105.485C218.388 105.087 218.287 104.689 218.182 104.268C218.173 104.241 218.168 104.213 218.164 104.186C218.164 104.181 218.164 104.172 218.159 104.168C218.159 104.168 218.159 104.168 218.159 104.163C218.159 104.154 218.155 104.145 218.15 104.136C217.903 103.148 217.624 102.123 217.318 101.09C217.313 101.071 217.304 101.048 217.299 101.03C217.299 101.021 217.295 101.012 217.29 101.007C217.29 101.003 217.29 100.993 217.286 100.989L217.263 100.907L217.231 100.806C217.231 100.806 217.226 100.783 217.221 100.774V100.756C217.116 100.413 217.011 100.074 216.91 99.7357C216.91 99.7357 216.91 99.7311 216.91 99.7265C216.901 99.6945 216.892 99.6625 216.878 99.6305C216.773 99.2874 216.668 98.9444 216.554 98.6059C216.531 98.5327 216.508 98.4596 216.481 98.3864C216.481 98.3818 216.481 98.3726 216.476 98.3681C216.444 98.2629 216.407 98.1623 216.371 98.0571L216.352 97.9976C216.352 97.9976 216.352 97.993 216.352 97.9884C216.343 97.9564 216.33 97.9198 216.32 97.8878C216.266 97.7186 216.206 97.5493 216.151 97.3801C216.151 97.3801 216.151 97.371 216.151 97.3664C216.101 97.2155 216.051 97.0645 215.996 96.909L215.987 96.8816L215.955 96.7901C215.904 96.6437 215.854 96.4928 215.799 96.3419C215.794 96.3236 215.79 96.3098 215.781 96.2915C215.762 96.2412 215.744 96.1955 215.73 96.1452C215.698 96.0491 215.662 95.9531 215.63 95.857L215.611 95.8067L215.506 95.5231L215.259 94.8462C215.259 94.8462 215.259 94.837 215.255 94.8325C215.241 94.7959 215.227 94.7593 215.214 94.7181L215.122 94.4666C215.099 94.4025 215.076 94.3385 215.049 94.279L215.026 94.2241C215.026 94.2241 215.003 94.1693 215.003 94.1601C214.921 93.9406 214.834 93.7256 214.747 93.4969C214.715 93.4146 214.683 93.3322 214.651 93.2545C214.646 93.2408 214.642 93.227 214.637 93.2133C214.564 93.0258 214.491 92.8428 214.418 92.6553C214.418 92.6507 214.413 92.6416 214.409 92.637C214.409 92.6279 214.399 92.6187 214.399 92.6096C214.29 92.3306 214.18 92.0561 214.061 91.7817C214.056 91.768 214.047 91.7543 214.043 91.7405C214.038 91.7268 214.033 91.7131 214.024 91.6994C214.024 91.6948 214.02 91.6902 214.015 91.6811C214.015 91.6765 214.011 91.6673 214.006 91.6628C213.809 91.1825 213.604 90.7023 213.398 90.2266C213.398 90.2174 213.389 90.2083 213.384 90.1991L213.37 90.1717C213.274 89.9521 213.174 89.728 213.073 89.5039C212.949 89.2203 212.826 88.9367 212.693 88.6532C212.657 88.5708 212.62 88.4885 212.579 88.4108C212.492 88.2095 212.396 88.0128 212.305 87.8161C212.231 87.6515 212.149 87.4823 212.071 87.3176C212.026 87.217 211.98 87.1209 211.93 87.0249C211.916 86.9974 211.902 86.97 211.888 86.9425L211.628 86.4028C211.628 86.4028 211.614 86.3754 211.605 86.3617L211.582 86.3113C211.509 86.165 211.436 86.0186 211.362 85.8722C211.294 85.735 211.23 85.6024 211.161 85.4698C211.028 85.1999 210.891 84.93 210.749 84.6602C210.708 84.5824 210.667 84.5001 210.626 84.4223C210.599 84.372 210.576 84.3217 210.548 84.2714C210.53 84.2394 210.512 84.2028 210.493 84.1708C210.493 84.1662 210.489 84.1616 210.484 84.1525C210.484 84.1479 210.48 84.1433 210.475 84.1342C210.47 84.125 210.461 84.1113 210.457 84.1022L210.223 83.6631L210.214 83.6448C210.214 83.6448 210.201 83.6219 210.196 83.6082C210.159 83.5441 210.127 83.4755 210.091 83.4115C209.981 83.2011 209.862 82.9861 209.748 82.7757C209.734 82.7529 209.72 82.7254 209.707 82.698C209.707 82.698 209.707 82.698 209.707 82.6934C209.688 82.6568 209.675 82.634 209.656 82.6019C209.638 82.5699 209.62 82.5288 209.601 82.5013C209.505 82.3229 209.405 82.1445 209.304 81.9707C209.277 81.925 209.254 81.8793 209.226 81.8335C209.185 81.7603 209.153 81.6963 209.121 81.6414C209.062 81.5316 208.998 81.4173 208.934 81.3075L208.874 81.2069C208.851 81.1657 208.833 81.1383 208.81 81.0926L208.787 81.0514C208.76 81.0011 208.732 80.9508 208.7 80.9005C208.691 80.8867 208.682 80.873 208.673 80.8547C208.668 80.8456 208.664 80.8364 208.659 80.8318C208.444 80.4614 208.229 80.0909 208.01 79.7204C207.79 79.3545 207.566 78.984 207.342 78.6181C207.31 78.5586 207.269 78.4992 207.237 78.4397C207.209 78.394 207.186 78.3528 207.159 78.3071C207.054 78.1378 206.949 77.9686 206.839 77.7994C206.811 77.7536 206.775 77.6942 206.729 77.6256C206.702 77.5798 206.67 77.5341 206.642 77.4883C206.619 77.4563 206.601 77.4243 206.578 77.3877C206.473 77.2139 206.363 77.0401 206.249 76.8754L206.08 76.6147C205.938 76.3906 205.791 76.1665 205.645 75.9515C205.64 75.9424 205.631 75.9332 205.627 75.9241C205.59 75.8646 205.549 75.8006 205.503 75.7366C205.421 75.6131 205.339 75.4896 205.252 75.3615C205.252 75.3615 205.247 75.3523 205.242 75.3478C205.22 75.3158 205.197 75.2837 205.178 75.2471C205.16 75.2197 205.142 75.1923 205.124 75.1694C205.087 75.1145 205.05 75.0642 205.014 75.0093C204.986 74.9727 204.964 74.9315 204.936 74.895C204.863 74.7852 204.785 74.6708 204.707 74.5611C204.703 74.5519 204.694 74.5428 204.689 74.5336C204.68 74.5153 204.666 74.5016 204.657 74.4833C204.543 74.3187 204.433 74.154 204.314 73.9893C204.3 73.971 204.287 73.9527 204.273 73.9344C204.227 73.8704 204.186 73.811 204.14 73.7469C204.126 73.7286 204.117 73.7103 204.104 73.692L203.811 73.2758C203.788 73.2438 203.77 73.2164 203.747 73.1843L203.372 72.6721L203.331 72.6172C203.331 72.6172 203.308 72.5806 203.294 72.5669C203.294 72.5669 203.294 72.5669 203.294 72.5623C203.189 72.4113 203.079 72.265 202.969 72.114C202.969 72.114 202.969 72.1095 202.965 72.1049C202.869 71.9723 202.773 71.8442 202.677 71.7161L202.539 71.5332C202.402 71.3411 202.256 71.1535 202.114 70.966C202.1 70.9477 202.082 70.9248 202.068 70.9065C202.068 70.9065 202.064 70.902 202.059 70.8974C202.059 70.8974 202.059 70.8974 202.055 70.8928C201.702 70.4354 201.346 69.9735 200.98 69.5024C200.765 69.2325 200.554 68.9672 200.335 68.6974L200.289 68.6379C200.289 68.6379 200.275 68.6242 200.271 68.615C200.179 68.5007 200.088 68.3863 199.996 68.2811C199.914 68.1805 199.832 68.0799 199.749 67.9793C199.726 67.9518 199.704 67.9244 199.685 67.9015C199.594 67.7917 199.507 67.682 199.415 67.5722C199.374 67.5173 199.328 67.467 199.283 67.4121C199.26 67.3847 199.237 67.3572 199.214 67.3298C199.164 67.2703 199.114 67.2063 199.063 67.1468C199.063 67.1468 199.063 67.1468 199.059 67.1422C199.054 67.1331 199.045 67.1285 199.04 67.1194C199.04 67.1148 199.031 67.1102 199.027 67.1057C198.931 66.9913 198.839 66.8815 198.743 66.7718C198.711 66.7352 198.679 66.6986 198.652 66.662C198.647 66.6574 198.642 66.6528 198.638 66.6437C198.615 66.6162 198.592 66.5888 198.565 66.5614C198.487 66.4745 198.414 66.3876 198.336 66.2961C198.327 66.2869 198.322 66.2824 198.313 66.2732C198.258 66.2046 198.203 66.1451 198.162 66.0994C197.888 65.7792 197.604 65.4591 197.321 65.148C197.238 65.052 197.156 64.9559 197.074 64.869C197.055 64.8507 197.042 64.8324 197.023 64.8141C196.863 64.6358 196.703 64.4574 196.538 64.2836C196.438 64.1692 196.333 64.0595 196.232 63.9497C196.058 63.7622 195.884 63.5746 195.729 63.4145C195.72 63.4054 195.711 63.3962 195.701 63.3825C195.692 63.3734 195.683 63.3642 195.674 63.3551C195.592 63.2682 195.509 63.1767 195.422 63.0898C195.354 63.0166 195.285 62.9434 195.212 62.8702C195.153 62.8062 195.093 62.7468 195.034 62.6873C195.006 62.6553 194.974 62.6233 194.947 62.5958L194.91 62.5592L194.489 62.1201C194.489 62.1201 194.448 62.079 194.43 62.0561C194.407 62.0332 194.389 62.0149 194.366 61.9921L194.114 61.7405C193.84 61.4615 193.565 61.1825 193.282 60.9081C193.264 60.8898 193.245 60.876 193.227 60.8577C193.227 60.8577 193.227 60.8577 193.222 60.8532C193.218 60.8486 193.213 60.844 193.209 60.8394C193.163 60.7937 193.113 60.748 193.067 60.7022C193.049 60.6839 193.035 60.6702 193.017 60.6519C193.017 60.6519 193.012 60.6473 193.007 60.6428C192.559 60.2037 192.106 59.7692 191.64 59.3346L190.89 58.6394C190.602 58.3741 190.318 58.1226 190.039 57.871C189.463 57.3587 188.909 56.8693 188.356 56.4028C188.319 56.3708 188.278 56.3388 188.241 56.3067C188.04 56.1375 187.839 55.9683 187.638 55.799C187.464 55.6527 187.29 55.5155 187.116 55.3691C186.961 55.241 186.805 55.113 186.65 54.9895L186.549 54.9071C186.343 54.7379 186.133 54.5641 185.936 54.4132C184.806 53.5213 183.759 52.7254 182.739 51.9844C182.725 51.9753 182.712 51.9661 182.702 51.957L182.442 51.7695C182.245 51.6277 182.044 51.4859 181.87 51.3624C181.083 50.8044 180.269 50.2464 179.377 49.6609C179.039 49.4322 178.696 49.2081 178.348 48.9885C178.321 48.9703 178.298 48.9565 178.27 48.9382C177.964 48.7416 177.657 48.5449 177.346 48.3574C177.086 48.1973 176.83 48.0372 176.601 47.8954C175.878 47.4517 175.142 47.0172 174.41 46.5964C174.058 46.3952 173.701 46.1939 173.34 45.9881C172.992 45.796 172.64 45.5993 172.256 45.3935C172.219 45.3706 172.178 45.3523 172.141 45.334C172.022 45.27 171.904 45.206 171.785 45.1419C171.711 45.1008 171.638 45.0642 171.565 45.023C171.432 44.9544 171.304 44.8858 171.172 44.8172C171.099 44.776 171.021 44.7394 170.948 44.6983C170.82 44.6342 170.701 44.5702 170.582 44.5107C170.513 44.4741 170.444 44.4375 170.376 44.4055C170.197 44.3141 170.028 44.2271 169.868 44.1494C169.85 44.1402 169.827 44.1311 169.804 44.1219C161.297 39.8591 152.213 36.9272 142.809 35.4041C140.541 35.0382 138.272 36.0674 137.051 38.0158C131.91 46.2305 128.379 55.1038 126.444 64.2287C124.578 56.3205 121.499 48.6547 117.232 41.4691C116.669 40.5223 116.07 39.5618 115.398 38.5373C114.117 36.5751 111.766 35.5963 109.47 36.0628C100.213 37.9472 91.3165 41.2267 83.0286 45.8097C82.9189 45.8692 82.8045 45.9332 82.6947 46.0018L82.6536 46.0247C82.0544 46.3586 81.5101 46.6696 80.9933 46.9715C80.9384 47.0035 80.8881 47.0309 80.8378 47.0629C80.7692 47.1041 80.7005 47.1453 80.6319 47.1819C80.5908 47.2047 80.5496 47.2276 80.513 47.2551C80.0648 47.5203 79.6257 47.7902 79.2095 48.0463C79.0036 48.1698 78.807 48.2933 78.6149 48.4168C77.9333 48.8422 77.3067 49.2447 76.7121 49.6426C76.6161 49.7066 76.52 49.7707 76.424 49.8301C76.3233 49.8942 76.2227 49.9628 76.1221 50.0268C76.0809 50.0543 76.0443 50.0771 76.0032 50.1046C75.6739 50.3241 75.3491 50.5437 75.0289 50.7678C74.9512 50.8181 74.8734 50.873 74.8002 50.9279C74.3932 51.2114 73.9907 51.495 73.5882 51.7832C73.3915 51.9204 73.204 52.0622 73.0119 52.204C72.8929 52.2909 72.7694 52.3778 72.6505 52.4693C72.5865 52.515 72.527 52.5607 72.463 52.6065C72.2755 52.7437 72.0925 52.8809 71.9279 53.0044C71.1229 53.6082 70.3819 54.1845 69.6729 54.7608C69.3619 55.0123 69.0463 55.2639 68.7353 55.52C68.6301 55.6024 68.5295 55.6893 68.4334 55.7716C68.3236 55.8631 68.2093 55.9591 68.0995 56.0552C67.7885 56.3113 67.4821 56.572 67.1756 56.8373C66.8234 57.1346 66.4712 57.4456 66.1145 57.7612L65.7897 58.054C65.4375 58.3696 65.0853 58.6897 64.7743 58.9825C64.381 59.3438 63.9968 59.7097 63.6126 60.0756C63.2466 60.4232 62.8853 60.7754 62.5285 61.1322C62.5285 61.1322 62.5285 61.1322 62.524 61.1368C62.4508 61.2054 62.3868 61.2694 62.3319 61.3243C62.0254 61.6307 61.719 61.9418 61.4171 62.2482C61.4079 62.2573 61.3714 62.2985 61.3576 62.3077C61.0695 62.605 60.7813 62.9068 60.4977 63.2087C60.484 63.2224 60.4703 63.2316 60.4612 63.2453C60.3834 63.3276 60.3011 63.41 60.2233 63.5014C60.1318 63.5975 60.0404 63.6935 59.9535 63.7896C59.7796 63.9726 59.6104 64.1555 59.4412 64.343C59.4275 64.3568 59.4183 64.3705 59.4046 64.3796C59.3085 64.4803 59.2125 64.5854 59.121 64.6906C59.0753 64.741 59.025 64.7913 58.9792 64.8462C58.9472 64.8828 58.9106 64.9239 58.8694 64.9651C58.8191 65.02 58.7734 65.0749 58.7231 65.1297C58.7139 65.1435 58.7002 65.1572 58.6865 65.1709C58.6865 65.1709 58.6773 65.1801 58.6773 65.1846C58.5218 65.3584 58.3663 65.5322 58.2154 65.706C58.1331 65.793 58.0553 65.8799 57.9821 65.9713C57.8266 66.1451 57.6757 66.3189 57.5293 66.4928C57.3875 66.6528 57.2503 66.8129 57.1085 66.9867C57.0262 67.0828 56.9393 67.1834 56.8615 67.2795C56.8386 67.3023 56.8204 67.3252 56.8021 67.3526C56.7792 67.3801 56.7609 67.403 56.738 67.4304C56.5734 67.6271 56.4087 67.8238 56.2486 68.0204C56.212 68.0616 56.1754 68.1073 56.1434 68.1485C56.1068 68.1897 56.0702 68.2354 56.0382 68.2766C55.8827 68.4641 55.7272 68.6516 55.5808 68.8392C55.4985 68.9398 55.4162 69.0404 55.3338 69.1456L55.2561 69.2417C55.1875 69.3286 55.1143 69.4155 55.0457 69.5069C54.9771 69.5893 54.9085 69.6762 54.8399 69.7676C54.8216 69.7905 54.8033 69.8134 54.785 69.8363C54.6432 70.0192 54.5014 70.2022 54.3596 70.3806C54.2681 70.4949 54.1858 70.6047 54.0943 70.7236L54.076 70.7465C53.7513 71.1673 53.4311 71.5926 53.1155 72.0226C53.0926 72.0546 53.0698 72.0866 53.0423 72.1232C52.9691 72.2238 52.896 72.329 52.8228 72.4296C52.7222 72.5714 52.617 72.7087 52.5163 72.8504C52.3837 73.0288 52.2511 73.2164 52.1184 73.4039L51.9492 73.6417C51.7708 73.8979 51.5924 74.154 51.414 74.4101C51.3637 74.4787 51.3134 74.5519 51.2631 74.6251C51.103 74.8584 50.9475 75.0916 50.7874 75.3295C50.7097 75.4484 50.6273 75.5673 50.5496 75.6862L50.4352 75.8555C50.4124 75.8921 50.3895 75.9241 50.3666 75.9607L50.2568 76.1345C50.0922 76.3815 49.9275 76.6422 49.7629 76.8983C49.4153 77.438 49.0722 77.9823 48.7292 78.5403C48.4685 78.9657 48.2077 79.3911 47.9562 79.8164C47.9287 79.8622 47.8922 79.9171 47.8556 79.9811C47.8281 80.0268 47.8052 80.0726 47.7732 80.1229C47.7001 80.251 47.6269 80.3745 47.5537 80.5025L47.4622 80.6626C47.389 80.7907 47.3158 80.9188 47.2427 81.0468L47.2061 81.1109C47.1832 81.1474 47.1649 81.184 47.142 81.2252C46.9225 81.6094 46.7029 82.0028 46.488 82.3915C46.4743 82.4144 46.4605 82.4373 46.4514 82.4601L46.3004 82.7483C46.177 82.9724 46.058 83.1965 45.9391 83.4207C45.8522 83.5762 45.7653 83.7408 45.683 83.9009C45.683 83.9009 45.6784 83.9101 45.6738 83.9146C45.6372 83.9878 45.5961 84.061 45.5549 84.1433C45.4543 84.3263 45.3582 84.5184 45.2622 84.7105C45.2485 84.7379 45.2347 84.7654 45.221 84.7928C45.221 84.802 45.2119 84.8111 45.2073 84.8157L45.1387 84.9483C45.0655 85.0901 44.9923 85.2319 44.9191 85.3783L44.8963 85.424C44.8963 85.424 44.8734 85.4652 44.8642 85.488C44.7773 85.6664 44.6859 85.8448 44.599 86.0232C44.5304 86.1604 44.4617 86.2976 44.3977 86.4394C44.3428 86.5492 44.2925 86.6544 44.2422 86.7642C44.2422 86.7733 44.2331 86.7779 44.2331 86.787C44.2331 86.7962 44.2239 86.8053 44.2193 86.8145C44.2056 86.8373 44.1965 86.8602 44.1827 86.8877C44.1736 86.9014 44.169 86.9197 44.1599 86.938C44.0958 87.0752 44.0272 87.2078 43.9632 87.3496C43.8306 87.6286 43.6979 87.9031 43.5744 88.1866C43.5333 88.2781 43.4921 88.3696 43.4509 88.4611C43.3777 88.6166 43.3091 88.7721 43.236 88.9322V88.9459C43.236 88.9459 43.2131 88.9825 43.2039 89.0054C43.0804 89.2752 42.9569 89.5496 42.838 89.8241C42.8243 89.8561 42.8106 89.8835 42.7969 89.911C42.7969 89.9156 42.7923 89.9247 42.7877 89.9293C42.7831 89.943 42.7786 89.9522 42.774 89.9659C42.6231 90.3135 42.4721 90.6611 42.3212 91.0179C42.3212 91.0179 42.3212 91.0179 42.3212 91.0224C42.3212 91.027 42.3212 91.0316 42.3166 91.0362C42.312 91.0499 42.3029 91.0636 42.2983 91.0727C42.2983 91.0819 42.2892 91.091 42.2892 91.1002C42.1885 91.3426 42.0879 91.5804 41.9919 91.8137C41.6854 92.5593 41.4064 93.2545 41.1548 93.9177C41.1548 93.9223 41.1548 93.9268 41.1503 93.9314C41.1365 93.9726 41.1182 94.0229 41.0954 94.0778C41.0954 94.0869 41.0908 94.0915 41.0862 94.1006C40.9307 94.5077 40.7798 94.9148 40.6288 95.331C40.5648 95.514 40.5008 95.6924 40.4367 95.8707L40.4001 95.9759C40.3864 96.0125 40.3727 96.0537 40.359 96.0903C40.3544 96.104 40.3453 96.136 40.3407 96.1406C40.3407 96.1452 40.3407 96.1543 40.3361 96.1589L40.2035 96.5248C40.176 96.6026 40.144 96.6803 40.1211 96.7581L39.6912 98.0342C39.586 98.3452 39.4899 98.6608 39.3893 98.9764C39.2064 99.5481 39.028 100.115 38.8633 100.687L38.845 100.742C38.845 100.742 38.845 100.751 38.8405 100.756C38.8359 100.774 38.8267 100.792 38.8222 100.811C38.8222 100.811 38.8222 100.811 38.8222 100.815C38.8222 100.824 38.8176 100.833 38.813 100.843L38.7398 101.099C38.7398 101.099 38.7398 101.099 38.7398 101.103C38.7398 101.112 38.7353 101.122 38.7307 101.131C38.7215 101.158 38.7124 101.186 38.7032 101.213C38.6941 101.24 38.6849 101.263 38.6804 101.291C38.6804 101.3 38.6758 101.309 38.6712 101.323C38.6667 101.341 38.6621 101.359 38.6575 101.373C38.6484 101.401 38.6438 101.428 38.6346 101.451C38.6346 101.46 38.6301 101.469 38.6255 101.478C38.5523 101.73 38.4791 101.981 38.4105 102.238L38.3282 102.539C38.3282 102.539 38.319 102.567 38.319 102.581L38.2276 102.91L38.2138 102.965C38.191 103.047 38.1681 103.129 38.1498 103.207L38.0583 103.559C37.9989 103.774 37.9531 103.999 37.8937 104.218C37.7747 104.689 37.6558 105.165 37.5369 105.645C37.4546 105.984 37.3768 106.322 37.2991 106.665C37.1436 107.356 36.988 108.06 36.8371 108.801C36.8371 108.801 36.8371 108.806 36.8371 108.81C36.8371 108.81 36.8371 108.815 36.8371 108.819C36.7365 109.323 36.6404 109.821 36.5489 110.315C36.5489 110.329 36.5489 110.338 36.5444 110.352C35.9772 113.402 35.561 116.503 35.3094 119.554C35.3094 119.554 35.3094 119.554 35.3094 119.559C35.3094 119.559 35.3094 119.568 35.3094 119.577C35.2866 119.865 35.2637 120.144 35.2408 120.423C35.1814 121.219 35.1356 121.96 35.1036 122.664C35.0762 123.177 35.0579 123.684 35.035 124.242C35.0213 124.746 35.0076 125.253 34.9984 125.779C34.9893 126.282 34.9893 126.786 34.9893 127.307C34.9893 127.312 34.9893 127.321 34.9893 127.325C34.9893 127.325 34.9893 127.334 34.9893 127.339C34.9893 127.366 34.9893 127.398 34.9893 127.426C34.9893 128.935 35.0258 130.481 35.1036 132.018C35.5839 141.472 37.5049 150.771 40.8164 159.653C41.6351 161.844 43.7025 163.317 46.0397 163.372C46.6572 163.386 47.2747 163.395 47.8922 163.395C57.2229 163.395 66.4392 161.762 75.1616 158.62C67.7702 165.179 61.6183 173.055 57.049 181.91C55.9788 183.986 56.2806 186.511 57.8129 188.277C64.0242 195.435 71.2646 201.573 79.3421 206.522C80.0145 206.934 80.6914 207.336 81.3729 207.729C82.0544 208.123 82.7359 208.502 83.4128 208.873C83.8657 209.12 84.3185 209.362 84.7987 209.614C85.2424 209.842 85.6906 210.076 86.18 210.323C86.642 210.551 87.0994 210.776 87.5385 210.991C87.543 210.991 87.5522 210.995 87.5568 211C87.5705 211.009 87.5888 211.013 87.6025 211.023C87.9547 211.192 88.3206 211.366 88.6957 211.544C89.2308 211.791 89.7888 212.047 90.3834 212.312C90.4246 212.331 90.4658 212.344 90.5069 212.363C93.2878 213.588 96.1785 214.691 99.0921 215.642C99.5586 215.793 100.025 215.944 100.515 216.1C100.528 216.1 100.542 216.109 100.556 216.113C100.556 216.113 100.56 216.113 100.565 216.113C100.569 216.113 100.574 216.113 100.579 216.113C101.306 216.337 102.006 216.543 102.701 216.735C103.007 216.822 103.318 216.909 103.625 216.991C104.142 217.133 104.654 217.266 105.162 217.394C105.372 217.449 105.578 217.508 105.793 217.559L106.108 217.636C106.163 217.65 106.218 217.664 106.268 217.678L106.351 217.696C106.351 217.696 106.387 217.705 106.401 217.71L106.735 217.787C106.735 217.787 106.758 217.792 106.767 217.796L107.083 217.87C107.343 217.934 107.599 217.993 107.856 218.048H107.865C107.869 218.048 107.878 218.048 107.888 218.053C107.952 218.066 108.025 218.085 108.098 218.098C108.135 218.107 108.171 218.112 108.212 218.121C108.222 218.121 108.231 218.121 108.24 218.126L108.322 218.144L108.533 218.19C108.533 218.19 108.56 218.194 108.574 218.199C108.583 218.199 108.592 218.199 108.601 218.204L108.734 218.231C109.063 218.3 109.392 218.368 109.722 218.437C110.271 218.547 110.824 218.656 111.391 218.757L112.708 218.99C112.795 219.004 112.878 219.018 112.965 219.031L113.349 219.091H113.353C113.353 219.091 113.358 219.091 113.363 219.091C113.372 219.091 113.376 219.091 113.39 219.091C113.39 219.091 113.39 219.091 113.395 219.091C113.399 219.091 113.404 219.091 113.408 219.091C113.408 219.091 113.413 219.091 113.417 219.091H113.436C113.436 219.091 113.472 219.1 113.491 219.105L113.614 219.123C113.811 219.155 114.007 219.187 114.218 219.219C114.63 219.283 115.05 219.342 115.467 219.397C115.508 219.406 115.553 219.406 115.595 219.416C115.608 219.416 115.627 219.416 115.64 219.42C115.672 219.425 115.709 219.429 115.741 219.434C115.759 219.434 115.773 219.438 115.791 219.443L115.855 219.452C115.855 219.452 115.869 219.452 115.874 219.452L116.386 219.516C116.61 219.544 116.839 219.576 117.04 219.599C117.04 219.599 117.04 219.599 117.045 219.599C117.049 219.599 117.058 219.599 117.063 219.599C117.067 219.599 117.072 219.599 117.077 219.599C117.662 219.672 118.243 219.736 118.81 219.786C118.815 219.786 118.824 219.786 118.828 219.786C119.176 219.818 119.519 219.855 119.862 219.882C119.867 219.882 119.871 219.882 119.876 219.882H119.885C120.013 219.896 120.146 219.905 120.278 219.919C120.283 219.919 120.292 219.919 120.297 219.919C120.406 219.932 120.521 219.937 120.635 219.946C120.649 219.946 120.662 219.946 120.676 219.946C120.681 219.946 120.685 219.946 120.69 219.946C120.699 219.946 120.708 219.946 120.717 219.946C120.736 219.946 120.759 219.946 120.781 219.946C121.028 219.964 121.275 219.983 121.522 220.001C121.527 220.001 121.536 220.001 121.541 220.001C121.893 220.029 122.25 220.047 122.602 220.07C122.661 220.07 122.725 220.079 122.785 220.083C122.794 220.083 122.808 220.083 122.817 220.083C122.826 220.083 122.835 220.083 122.84 220.083C122.844 220.083 122.853 220.083 122.858 220.083C122.991 220.093 123.128 220.097 123.26 220.102C123.576 220.12 123.887 220.138 124.203 220.147C124.23 220.147 124.258 220.147 124.28 220.147C124.285 220.147 124.294 220.147 124.299 220.147C124.509 220.157 124.719 220.166 124.93 220.175C124.948 220.175 124.966 220.175 124.985 220.175C124.985 220.175 124.985 220.175 124.989 220.175C125.209 220.184 125.428 220.189 125.634 220.193C125.634 220.193 125.643 220.193 125.648 220.193C125.666 220.193 125.689 220.193 125.707 220.193C125.707 220.193 125.707 220.193 125.712 220.193C125.991 220.202 126.27 220.211 126.549 220.211C126.636 220.211 126.727 220.211 126.814 220.211C127.13 220.216 127.446 220.225 127.757 220.225C127.857 220.225 127.953 220.225 128.054 220.225C128.1 220.225 128.15 220.225 128.196 220.225C128.283 220.225 128.374 220.225 128.461 220.225C128.712 220.225 128.969 220.225 129.22 220.216H129.417C129.536 220.216 129.65 220.216 129.76 220.207C129.842 220.207 129.929 220.207 130.011 220.207H130.158C130.204 220.207 130.254 220.207 130.3 220.202H130.501C130.547 220.193 130.592 220.193 130.638 220.193C130.688 220.193 130.739 220.193 130.789 220.189C130.839 220.189 130.885 220.189 130.935 220.184C131.082 220.184 131.233 220.175 131.379 220.17H131.471C131.887 220.152 132.303 220.138 132.719 220.115C132.82 220.115 132.916 220.106 133.016 220.102C133.392 220.083 133.762 220.061 134.133 220.038L134.343 220.024C134.343 220.024 134.375 220.024 134.393 220.024C134.974 219.983 135.555 219.942 136.14 219.887C136.511 219.855 136.881 219.818 137.252 219.782C137.439 219.763 137.627 219.745 137.81 219.727C137.874 219.717 137.943 219.713 138.011 219.708C138.121 219.699 138.226 219.685 138.336 219.672C138.4 219.663 138.469 219.658 138.537 219.649C138.578 219.644 138.615 219.64 138.656 219.635C138.702 219.631 138.748 219.626 138.793 219.621C138.802 219.621 138.816 219.621 138.825 219.621C138.908 219.612 138.981 219.603 139.059 219.594C139.072 219.594 139.091 219.594 139.104 219.589L139.342 219.562C139.626 219.525 139.909 219.493 140.188 219.457C140.339 219.438 140.486 219.42 140.632 219.397C140.833 219.37 141.039 219.342 141.24 219.31C141.373 219.292 141.51 219.274 141.652 219.251C141.83 219.228 142.004 219.201 142.192 219.169C142.21 219.169 142.233 219.164 142.251 219.159C142.37 219.141 142.494 219.123 142.599 219.105C142.873 219.059 143.157 219.013 143.436 218.967C143.591 218.944 143.742 218.917 143.898 218.89L144.021 218.867C144.021 218.867 144.062 218.858 144.072 218.858C144.245 218.826 144.419 218.798 144.588 218.766C144.84 218.725 145.087 218.679 145.339 218.624C145.595 218.579 145.846 218.524 146.098 218.478C146.249 218.451 146.4 218.418 146.551 218.391C146.688 218.364 146.825 218.336 146.962 218.304C147.415 218.213 147.872 218.112 148.325 218.007C148.353 218.002 148.38 217.993 148.403 217.989C148.403 217.989 148.412 217.989 148.417 217.989C148.449 217.984 148.476 217.975 148.508 217.966C148.627 217.938 148.746 217.911 148.865 217.883C148.879 217.883 148.888 217.879 148.902 217.874C148.915 217.874 148.929 217.87 148.943 217.865C149.011 217.851 149.08 217.833 149.144 217.819C149.322 217.778 149.496 217.737 149.675 217.691C149.707 217.682 149.739 217.678 149.771 217.668C149.784 217.668 149.798 217.664 149.807 217.659C149.853 217.65 149.899 217.636 149.944 217.627C149.976 217.618 150.013 217.614 150.04 217.604C150.05 217.604 150.063 217.6 150.072 217.595C150.146 217.577 150.219 217.559 150.292 217.54C150.306 217.54 150.319 217.536 150.333 217.531C150.681 217.449 151.024 217.357 151.367 217.27C151.367 217.27 151.367 217.27 151.371 217.27C151.463 217.248 151.55 217.225 151.641 217.202H151.618C151.669 217.193 151.724 217.184 151.774 217.165C151.989 217.11 152.204 217.051 152.419 216.987C152.46 216.973 152.501 216.964 152.542 216.955L153.119 216.795C153.119 216.795 153.151 216.786 153.169 216.781C153.585 216.662 154.001 216.543 154.418 216.42C154.495 216.397 154.582 216.369 154.683 216.337C155.163 216.196 155.648 216.045 156.124 215.889C156.631 215.729 157.135 215.564 157.61 215.404C158.054 215.258 158.502 215.102 158.932 214.952L159.371 214.796C159.806 214.64 160.245 214.48 160.679 214.311C160.981 214.201 161.283 214.082 161.58 213.964C161.64 213.941 161.704 213.918 161.763 213.895C161.919 213.835 162.074 213.776 162.23 213.712C162.303 213.685 162.376 213.653 162.449 213.625C162.491 213.607 162.532 213.593 162.577 213.575C162.774 213.497 162.975 213.415 163.177 213.332C163.79 213.081 164.434 212.806 165.134 212.504C165.528 212.335 165.916 212.161 166.305 211.983C166.516 211.892 166.721 211.796 166.927 211.699C166.982 211.677 167.042 211.649 167.096 211.622C167.106 211.617 167.115 211.613 167.124 211.608C167.476 211.448 167.828 211.279 168.18 211.109C168.592 210.913 168.995 210.712 169.406 210.51C169.443 210.492 169.475 210.478 169.511 210.46C169.553 210.442 169.594 210.419 169.639 210.396C169.681 210.373 169.726 210.355 169.768 210.332C170.12 210.158 170.467 209.975 170.815 209.797C170.861 209.774 170.902 209.751 170.943 209.728C171.149 209.623 171.355 209.513 171.565 209.399C172.384 208.973 173.23 208.502 174.14 207.981C174.588 207.725 175.037 207.464 175.485 207.199C175.645 207.103 175.805 207.007 175.97 206.906C176.473 206.6 177.008 206.27 177.589 205.904L177.625 205.882C177.735 205.813 177.845 205.749 177.959 205.676C185.95 200.594 193.09 194.351 199.173 187.129C200.682 185.336 200.948 182.802 199.836 180.739C199.251 179.65 198.697 178.667 198.139 177.729C193.611 170.1 188.008 163.495 181.646 157.979C189.362 160.358 197.403 161.579 205.499 161.579C207.301 161.579 209.103 161.52 210.905 161.396C213.201 161.241 215.182 159.727 215.927 157.554C219.037 148.521 220.743 139.112 220.999 129.589C221.004 129.365 221.004 129.141 221.009 128.912C221.009 128.67 221.018 128.423 221.022 128.167C221.022 128.103 221.022 128.039 221.022 127.979H221.032ZM189.842 73.9573C190.044 74.1906 190.245 74.4239 190.441 74.6571C190.455 74.6754 190.473 74.6937 190.487 74.712C190.752 75.0276 191.018 75.3478 191.274 75.6679C191.306 75.7045 191.338 75.7503 191.375 75.7914C191.384 75.8006 191.393 75.8097 191.397 75.8235C191.599 76.0704 191.791 76.3129 191.978 76.5461C192.303 76.9623 192.628 77.3786 192.948 77.7994C193.126 78.0281 193.296 78.2613 193.465 78.4946C193.465 78.4946 193.469 78.4992 193.469 78.5037L193.506 78.5495C193.643 78.7324 193.78 78.9154 193.913 79.1075C193.945 79.1532 193.977 79.199 194.014 79.2447C194.037 79.2813 194.064 79.3133 194.091 79.3499C194.256 79.5695 194.412 79.7936 194.572 80.0223L194.723 80.2327C194.723 80.2327 194.727 80.2418 194.732 80.2418L194.782 80.315C194.883 80.4614 194.988 80.6077 195.089 80.7541C195.121 80.7998 195.153 80.8456 195.185 80.8867C195.203 80.9142 195.221 80.9416 195.244 80.9736C195.262 81.0011 195.281 81.0239 195.299 81.0514L195.377 81.1657C195.409 81.2161 195.445 81.2709 195.477 81.3213C195.587 81.4813 195.697 81.6414 195.797 81.8015C195.848 81.8793 195.898 81.9524 195.953 82.0302C195.953 82.0302 195.958 82.0394 195.962 82.0439C195.99 82.0851 196.012 82.1263 196.04 82.1628C196.168 82.3549 196.301 82.5516 196.429 82.7574L196.634 83.0822C196.662 83.1234 196.689 83.1691 196.717 83.2103C196.735 83.2377 196.753 83.2697 196.772 83.2972C196.808 83.3612 196.859 83.439 196.9 83.503L196.964 83.599C197.01 83.6722 197.051 83.7454 197.101 83.814C197.119 83.846 197.138 83.8735 197.16 83.9055C197.243 84.0336 197.321 84.1571 197.398 84.2851C197.407 84.2988 197.412 84.308 197.417 84.3217C197.439 84.3629 197.467 84.404 197.49 84.4452C197.709 84.802 197.929 85.1633 198.144 85.5201C198.336 85.8402 198.523 86.165 198.711 86.4897C198.711 86.4989 198.72 86.5034 198.725 86.5126C198.757 86.5721 198.793 86.6361 198.83 86.6955L198.839 86.7138C198.921 86.8511 198.995 86.9837 199.068 87.1209C199.086 87.1529 199.104 87.1895 199.127 87.2261C199.155 87.2764 199.182 87.3222 199.21 87.3725C199.315 87.5554 199.42 87.7384 199.516 87.9214C199.543 87.9671 199.571 88.022 199.598 88.0723C199.607 88.0906 199.621 88.1135 199.63 88.1317C199.658 88.1866 199.69 88.2369 199.713 88.2827C199.754 88.3696 199.8 88.4519 199.845 88.5342C199.859 88.5571 199.873 88.5846 199.887 88.612C199.969 88.7584 200.047 88.9047 200.124 89.0511L200.179 89.1517C200.179 89.1517 200.193 89.1837 200.202 89.1975C200.271 89.3301 200.339 89.4582 200.408 89.5908C200.435 89.6457 200.463 89.7006 200.495 89.7555C200.495 89.7555 200.495 89.76 200.499 89.7646L200.545 89.8607C200.545 89.8607 200.568 89.9018 200.577 89.9201C200.682 90.1168 200.783 90.3135 200.879 90.5147C200.893 90.5467 200.911 90.5788 200.925 90.6108C200.966 90.6931 201.012 90.7754 201.053 90.8623C201.067 90.8898 201.08 90.9172 201.094 90.9447C201.263 91.2877 201.432 91.6262 201.597 91.9738L201.611 91.9967C201.611 91.9967 201.611 92.0058 201.615 92.0104C201.652 92.0927 201.689 92.1705 201.73 92.2482C201.776 92.3397 201.821 92.4312 201.862 92.5227C201.89 92.5867 201.917 92.6462 201.949 92.7102C202.009 92.8383 202.068 92.9663 202.128 93.0944C202.178 93.2042 202.228 93.3139 202.283 93.4237C202.279 93.41 202.274 93.4008 202.269 93.3917C202.26 93.3734 202.251 93.3597 202.251 93.3597C202.269 93.3963 202.283 93.4329 202.302 93.474C202.402 93.6844 202.494 93.8994 202.585 94.1098C202.603 94.1555 202.626 94.2013 202.649 94.247C202.727 94.4117 202.795 94.5718 202.864 94.7318C202.864 94.7364 202.869 94.7456 202.873 94.7501C202.873 94.7547 202.878 94.7639 202.882 94.7684C202.951 94.9285 203.02 95.0932 203.088 95.2578C203.203 95.5231 203.312 95.7838 203.422 96.0491C203.45 96.1177 203.472 96.1818 203.504 96.2504C203.669 96.6346 203.82 97.0142 203.971 97.403C203.989 97.4442 204.003 97.4899 204.021 97.5311C204.021 97.5311 204.021 97.5311 204.021 97.5356C204.03 97.5539 204.035 97.5722 204.044 97.5951C204.076 97.6774 204.104 97.7552 204.136 97.8375C198.725 97.4213 193.684 94.4208 190.784 89.5359C187.912 84.6968 187.67 78.8834 189.838 73.9573H189.842ZM175.997 61.1825C176.532 61.5713 177.081 61.9829 177.648 62.4174C178.028 62.7102 178.417 63.012 178.824 63.3322C178.966 63.442 179.107 63.5609 179.249 63.6752L179.391 63.7896C179.391 63.7896 179.428 63.8216 179.45 63.8353C179.725 64.0549 180.004 64.2836 180.274 64.5123L180.319 64.5489C180.493 64.6907 180.667 64.8324 180.832 64.9788C180.855 64.9971 180.873 65.0154 180.896 65.0337C181.074 65.1846 181.257 65.3447 181.436 65.5002C175.741 74.4147 175.389 85.9912 180.955 95.3676C186.188 104.181 195.587 109.318 205.439 109.318C206.162 109.318 206.885 109.286 207.612 109.231C207.612 109.245 207.616 109.258 207.621 109.272C207.648 109.396 207.68 109.524 207.708 109.647C207.708 109.652 207.708 109.656 207.708 109.666C207.712 109.688 207.717 109.716 207.722 109.739C207.79 110.05 207.854 110.347 207.914 110.644C208.046 111.294 208.17 111.92 208.284 112.533C208.371 112.995 208.444 113.457 208.527 113.933C208.527 113.951 208.531 113.97 208.536 113.992C208.581 114.258 208.623 114.528 208.664 114.797C208.714 115.14 208.769 115.493 208.819 115.854C208.86 116.138 208.897 116.421 208.934 116.714C208.993 117.176 209.048 117.647 209.103 118.113C209.203 119.001 209.29 119.938 209.364 120.876C209.4 121.352 209.432 121.823 209.46 122.299C209.487 122.751 209.51 123.209 209.528 123.662C209.528 123.671 209.528 123.68 209.528 123.689C209.537 123.963 209.547 124.229 209.556 124.48C209.556 124.489 209.556 124.499 209.556 124.508C192.829 126.081 176.441 117.899 167.723 103.216C159.078 88.6623 159.673 70.4583 168.885 56.5583C169.054 56.6589 169.228 56.755 169.402 56.8602C169.498 56.9151 169.594 56.97 169.69 57.0294C169.96 57.1895 170.23 57.3542 170.504 57.5234C170.541 57.5463 170.577 57.5646 170.614 57.5874C170.838 57.7246 171.062 57.8619 171.286 58.0037C171.304 58.0128 171.323 58.0265 171.341 58.0357C171.574 58.1775 171.808 58.3238 172.036 58.4748C172.064 58.4931 172.087 58.5068 172.114 58.5251C172.398 58.7035 172.677 58.8864 172.951 59.0694C172.974 59.0831 172.997 59.1014 173.02 59.1151C173.806 59.6319 174.52 60.1214 175.22 60.6199L176.002 61.1779L175.997 61.1825ZM72.5225 67.3069C72.8015 67.0462 73.085 66.7855 73.3915 66.5156L73.6751 66.2641C73.9724 65.9988 74.2743 65.7335 74.5761 65.4774C74.5944 65.4591 74.6173 65.4408 74.6356 65.4225C74.8689 65.2212 75.1021 65.02 75.34 64.8233C75.3811 64.7913 75.4177 64.7593 75.4589 64.7227C75.5366 64.6541 75.6144 64.5855 75.6967 64.5214C75.7562 64.4711 75.8156 64.4208 75.8751 64.3705L75.9026 64.3476C75.9026 64.3476 75.93 64.3247 75.9437 64.311C76.2273 64.0778 76.5109 63.8491 76.8128 63.6066C77.4256 63.1127 78.0568 62.6187 78.7841 62.0744C78.9167 61.9738 79.0448 61.8731 79.182 61.7771C79.2643 61.7176 79.3513 61.6536 79.4336 61.5896C79.6851 61.402 79.9367 61.2191 80.1974 61.0316L80.2432 60.9995C80.5999 60.7388 80.9613 60.4873 81.3272 60.2311C81.3775 60.1991 81.4232 60.1671 81.4735 60.1305C81.7342 59.9475 81.9995 59.7692 82.2648 59.5908C82.3471 59.5405 82.4249 59.4856 82.5026 59.4307C82.6353 59.3392 82.7725 59.2523 82.9097 59.1608C82.9372 59.1425 82.9646 59.1242 82.9921 59.106C83.175 58.9825 83.3671 58.8544 83.5638 58.7309C83.6141 58.6989 83.669 58.6623 83.7193 58.6303C83.8702 58.5342 84.0257 58.4336 84.1858 58.333C84.2133 58.3147 84.2407 58.301 84.2636 58.2827C84.689 58.923 85.1006 59.5725 85.4894 60.2311C91.472 70.3074 93.1735 82.108 90.2782 93.4603C87.383 104.813 80.2432 114.363 70.1669 120.346C62.8579 124.686 54.7118 126.767 46.3599 126.479C46.3599 126.356 46.3599 126.232 46.3599 126.109C46.3599 126.058 46.3599 126.008 46.3599 125.958C46.3691 125.487 46.3828 125.015 46.3919 124.586C46.4102 124.128 46.4285 123.675 46.4514 123.222C46.4514 123.213 46.4514 123.204 46.4514 123.19C46.4925 122.372 46.552 121.48 46.6298 120.469C46.6526 120.181 46.6847 119.893 46.7121 119.605C46.7487 119.216 46.7807 118.832 46.8264 118.443C46.831 118.397 46.8402 118.347 46.8447 118.301C46.9133 117.67 46.9911 117.039 47.0734 116.412C47.2564 115.058 47.4714 113.704 47.7183 112.36C47.7961 111.934 47.8784 111.518 47.9608 111.102C52.9783 111.07 57.9318 109.711 62.2998 107.118C68.8405 103.235 73.4784 97.0325 75.3583 89.664C77.2381 82.2909 76.1312 74.6297 72.248 68.089C72.1794 67.9747 72.1017 67.8603 72.0331 67.746C72.184 67.6042 72.3395 67.4578 72.5042 67.3069H72.5225ZM56.4819 97.2886C54.8627 98.2492 53.1109 98.9261 51.2951 99.3103C51.3637 99.1136 51.4369 98.9215 51.5101 98.7248C51.5924 98.5007 51.6747 98.272 51.7571 98.0479C51.7708 98.0113 51.7891 97.9747 51.8028 97.9381C51.9446 97.5676 52.0864 97.2017 52.2373 96.8312C52.4249 96.3556 52.6215 95.889 52.8228 95.4088C52.9463 95.1206 53.0652 94.837 53.1887 94.5535C53.1887 94.5535 53.1887 94.5443 53.1933 94.5397C53.2207 94.4849 53.2436 94.43 53.2665 94.3751C53.2985 94.3019 53.3305 94.2287 53.3625 94.1601C53.4128 94.0458 53.4631 93.9314 53.5134 93.8171C53.5455 93.7439 53.5775 93.6707 53.6141 93.5929L53.6369 93.5381C53.6827 93.4329 53.7284 93.3277 53.7787 93.227C53.797 93.1904 53.8153 93.1493 53.829 93.1127L53.8794 92.9983C53.9068 92.9435 53.9297 92.8931 53.9525 92.8383C53.9525 92.8291 53.9571 92.8245 53.9617 92.82L53.98 92.7834C54.0166 92.7102 54.0486 92.6416 54.0852 92.5684C54.1812 92.358 54.2773 92.1522 54.3779 91.9464C54.4145 91.8732 54.4511 91.7954 54.4831 91.7177C54.506 91.6765 54.5197 91.6353 54.5426 91.5896L54.6432 91.3883C54.6706 91.3335 54.6981 91.274 54.7255 91.2145C54.7392 91.1825 54.753 91.1551 54.7713 91.1276C54.7941 91.0773 54.8216 91.0316 54.8444 90.9813C54.8536 90.963 54.8627 90.9447 54.8719 90.9264C54.8947 90.8806 54.9222 90.8303 54.9451 90.7846C55.0594 90.5513 55.1738 90.3272 55.2927 90.0985C55.311 90.0665 55.3293 90.0299 55.3476 89.9933C55.3521 89.9796 55.3613 89.9704 55.3659 89.9567C55.3659 89.9567 55.3704 89.9384 55.375 89.9339C55.3887 89.911 55.4024 89.8835 55.4116 89.8607C55.4756 89.7372 55.5397 89.6091 55.6037 89.4902C55.6403 89.4216 55.6815 89.3392 55.718 89.2706L55.7455 89.2158C55.7775 89.1609 55.805 89.106 55.8324 89.0465C55.8553 89.0008 55.8781 88.955 55.9056 88.9139C55.9376 88.859 55.9696 88.7995 55.9971 88.7446C56.0931 88.5617 56.1892 88.3787 56.2898 88.2004C56.3081 88.1683 56.3264 88.1317 56.3447 88.0997L56.4956 87.8161C56.6786 87.4868 56.8615 87.1575 57.0536 86.819L57.4287 86.165C57.4973 86.0461 57.5659 85.9271 57.6345 85.8128C57.6482 85.7899 57.6619 85.7671 57.6711 85.7488C57.6985 85.703 57.7306 85.6527 57.758 85.607C57.9775 85.2273 58.2108 84.8477 58.4486 84.4635C58.8923 83.7363 59.3451 83.0227 59.7888 82.3504L59.8254 82.2955L60.2142 81.71C60.2325 81.6872 60.2462 81.6643 60.2599 81.6368C60.4017 81.4264 60.5389 81.2161 60.6853 81.0102C60.699 80.9919 60.7127 80.9736 60.7173 80.9645C60.7356 80.937 60.7539 80.9142 60.7722 80.8867C60.9368 80.6443 61.1061 80.4065 61.2753 80.1686L61.4445 79.9262C61.536 79.7936 61.6321 79.6609 61.7281 79.5329C61.7464 79.5054 61.7647 79.4826 61.783 79.4551C61.9431 79.2264 62.1077 79.0069 62.2724 78.7782C62.2998 78.7416 62.3227 78.7096 62.3502 78.673C62.4508 78.5358 62.556 78.3985 62.6566 78.2613C62.8121 78.0555 62.9676 77.8497 63.1323 77.6347L63.2604 77.4655C63.2878 77.4335 63.3107 77.4014 63.3381 77.3648C63.4891 77.1727 63.64 76.9761 63.7909 76.784C63.7909 76.784 63.7909 76.784 63.7909 76.7794C66.5581 84.3309 63.6446 93.0395 56.4819 97.2932V97.2886ZM47.0643 137.918C47.2884 137.918 47.5125 137.932 47.7366 137.932C57.6299 137.932 67.4455 135.27 76.0077 130.184C88.7094 122.642 97.7153 110.603 101.365 96.2915C105.015 81.9799 102.87 67.1011 95.3278 54.3994C95.0168 53.878 94.692 53.3612 94.3627 52.8443C98.717 50.8684 103.231 49.2767 107.86 48.0966C116.912 63.8262 119.423 82.1308 114.931 99.7494C110.358 117.688 99.0738 132.773 83.1567 142.222C73.1033 148.191 61.7739 151.507 50.1745 151.901C48.72 147.336 47.6863 142.657 47.0597 137.918H47.0643ZM139.072 208.077C139.031 208.082 138.976 208.091 138.935 208.095C138.876 208.104 138.816 208.109 138.752 208.118C138.729 208.118 138.706 208.123 138.684 208.127C138.437 208.159 138.19 208.191 137.943 208.219L137.668 208.251C137.668 208.251 137.636 208.251 137.618 208.255H137.6C137.567 208.26 137.54 208.265 137.508 208.269C137.444 208.274 137.38 208.283 137.343 208.287C137.165 208.31 136.987 208.329 136.808 208.347C136.776 208.347 136.74 208.356 136.708 208.356C136.534 208.374 136.365 208.393 136.186 208.411C136.163 208.411 136.14 208.411 136.118 208.415C135.784 208.447 135.445 208.479 135.12 208.511C134.613 208.557 134.096 208.594 133.584 208.63L133.392 208.644C133.058 208.667 132.719 208.685 132.385 208.704C132.367 208.704 132.353 208.704 132.335 208.704C132.271 208.704 132.211 208.708 132.147 208.713C131.795 208.736 131.443 208.749 131.068 208.758H130.917C130.835 208.768 130.757 208.772 130.675 208.772C130.624 208.772 130.574 208.772 130.528 208.772C130.194 208.786 129.856 208.79 129.517 208.795C129.476 208.795 129.431 208.795 129.389 208.795C129.371 208.795 129.353 208.795 129.335 208.795H129.06C128.891 208.8 128.717 208.804 128.548 208.804C128.484 208.804 128.42 208.804 128.351 208.804C128.004 208.804 127.656 208.804 127.304 208.8C127.276 208.8 127.244 208.8 127.217 208.8C126.897 208.8 126.572 208.795 126.252 208.781H126.215C126.169 208.781 126.128 208.781 126.082 208.781H126.032C126.009 208.781 125.982 208.781 125.954 208.781H125.936C125.936 208.781 125.918 208.781 125.909 208.781C125.849 208.781 125.79 208.777 125.735 208.777C125.488 208.772 125.245 208.768 124.998 208.754C124.948 208.754 124.893 208.754 124.843 208.749C124.825 208.749 124.802 208.749 124.784 208.749C124.761 208.749 124.733 208.749 124.71 208.749C124.692 208.749 124.678 208.749 124.66 208.749C124.386 208.74 124.116 208.726 123.841 208.708C123.786 208.708 123.745 208.704 123.704 208.699C123.489 208.69 123.27 208.676 123.055 208.662C123.032 208.662 123.009 208.662 122.986 208.658C122.94 208.658 122.895 208.653 122.853 208.649C122.551 208.63 122.245 208.612 121.943 208.589C121.911 208.589 121.875 208.585 121.843 208.58C121.833 208.58 121.824 208.58 121.815 208.58C121.646 208.566 121.477 208.553 121.307 208.539C121.22 208.53 121.134 208.525 121.051 208.516C120.987 208.511 120.923 208.507 120.859 208.502C120.845 208.502 120.832 208.502 120.813 208.502C120.507 208.475 120.205 208.447 119.917 208.42C119.464 208.374 119.007 208.324 118.545 208.269C118.092 208.219 117.635 208.155 117.182 208.095C117.154 208.095 117.122 208.086 117.095 208.086C116.898 208.059 116.697 208.027 116.5 207.999C116.258 207.963 116.015 207.931 115.778 207.889C116.98 206.481 118.412 205.264 120.031 204.304C123.947 201.98 128.534 201.317 132.943 202.442C136.323 203.302 139.292 205.136 141.542 207.706C141.451 207.72 141.355 207.739 141.263 207.752C141.245 207.752 141.227 207.757 141.204 207.761C141.067 207.784 140.925 207.807 140.778 207.83L140.463 207.88C140.321 207.903 140.179 207.926 140.033 207.944C140.001 207.944 139.969 207.953 139.937 207.958C139.877 207.967 139.818 207.976 139.758 207.981C139.69 207.99 139.617 207.999 139.548 208.008C139.392 208.031 139.237 208.054 139.081 208.077H139.072ZM164.599 200.137C164.549 200.16 164.503 200.182 164.457 200.21C164.055 200.411 163.657 200.608 163.254 200.8C163.236 200.809 163.222 200.818 163.204 200.823C162.92 200.96 162.641 201.093 162.362 201.221C162.262 201.262 162.166 201.308 162.065 201.358C161.919 201.431 161.768 201.495 161.612 201.568C161.594 201.577 161.576 201.587 161.557 201.591C161.237 201.738 160.922 201.879 160.583 202.026C159.737 202.396 158.992 202.707 158.315 202.977C158.287 202.986 158.26 203 158.232 203.009L158.209 203.018C158.136 203.046 158.063 203.073 157.99 203.105C157.94 203.123 157.889 203.146 157.862 203.16C157.761 203.197 157.661 203.233 157.56 203.274C157.276 203.389 156.988 203.499 156.7 203.604C156.673 203.613 156.65 203.622 156.622 203.631C156.252 203.773 155.872 203.91 155.506 204.043L155.117 204.18C154.756 204.308 154.39 204.436 153.992 204.569C153.8 204.633 153.608 204.692 153.416 204.756C153.347 204.642 153.288 204.523 153.219 204.409C149.336 197.868 143.134 193.23 135.765 191.35C128.392 189.47 120.731 190.577 114.19 194.461C109.822 197.054 106.264 200.754 103.831 205.145C103.424 205.017 103.016 204.889 102.605 204.752C102.399 204.683 102.198 204.615 101.996 204.546C101.548 204.395 101.105 204.249 100.656 204.089C100.574 204.061 100.492 204.029 100.409 203.997C98.5752 203.338 96.764 202.62 95.0076 201.847C94.9939 201.843 94.9802 201.838 94.9664 201.829C94.0379 201.413 93.2238 201.038 92.4783 200.681C92.062 200.48 91.6458 200.274 91.2708 200.091C90.85 199.876 90.4246 199.661 90.0358 199.455C89.8712 199.368 89.7111 199.281 89.551 199.195C93.2924 191.721 99.0189 185.569 106.328 181.233C127.125 168.883 154.093 175.758 166.442 196.555C166.831 197.214 167.206 197.882 167.568 198.563C167.531 198.582 167.499 198.6 167.462 198.623C167.307 198.71 167.156 198.792 167.005 198.874C166.95 198.906 166.891 198.938 166.836 198.966C166.63 199.076 166.429 199.185 166.227 199.291C166.2 199.304 166.172 199.323 166.14 199.336C165.994 199.419 165.848 199.496 165.701 199.57C165.619 199.611 165.537 199.652 165.459 199.698C165.171 199.849 164.887 199.995 164.599 200.137ZM187.807 182.733C184.555 186.237 180.992 189.434 177.177 192.311C176.885 191.776 176.587 191.241 176.276 190.719C160.707 164.497 126.709 155.834 100.492 171.404C91.7327 176.604 84.5746 184.169 79.8407 193.111C75.9803 190.294 72.3715 187.147 69.06 183.689C74.9603 173.695 83.2894 165.334 93.3427 159.365C125.922 140.022 168.08 150.533 187.811 182.738L187.807 182.733ZM101.47 142.954C113.44 132.343 121.975 118.415 126.014 102.576C126.297 101.455 126.558 100.33 126.791 99.2051C128.653 107.113 131.722 114.82 136.022 122.056C140.476 129.557 146.075 136.231 152.574 141.866C136.182 136.802 118.238 136.935 101.47 142.954ZM173.701 142.451C162.147 136.514 152.519 127.444 145.855 116.215C133.204 94.9102 132.875 68.8575 144.762 47.342C149.482 48.3345 154.088 49.7432 158.543 51.5408C147.731 68.8895 147.264 91.1642 157.894 109.066C167.984 126.058 186.233 136.144 205.476 136.144C206.683 136.144 207.895 136.098 209.107 136.02C208.586 140.795 207.653 145.516 206.299 150.14C194.988 150.272 183.805 147.638 173.706 142.446L173.701 142.451Z" fill="#000B42"/>
<defs>
<linearGradient id="paint0_linear_1014_480" x1="126.389" y1="256.237" x2="126.389" y2="0.0550662" gradientUnits="userSpaceOnUse">
<stop stop-color="white"/>
<stop offset="0.276042" stop-color="#FFE482"/>
<stop offset="0.659" stop-color="#FFD028"/>
<stop offset="1" stop-color="#FFAE4E"/>
</linearGradient>
</defs>
</svg>
