<svg width="500" height="500" viewBox="0 0 500 500" fill="none" xmlns="http://www.w3.org/2000/svg">
<g clip-path="url(#clip0_1238_9)">
<path d="M250 500C388.071 500 500 388.071 500 250C500 111.929 388.071 0 250 0C111.929 0 0 111.929 0 250C0 388.071 111.929 500 250 500Z" fill="#FF0420"/>
<path d="M177.1 316.401C162.2 316.401 150 312.901 140.5 305.901C131.1 298.801 126.4 288.601 126.4 275.501C126.4 272.701 126.7 269.401 127.3 265.401C128.9 256.401 131.2 245.601 134.2 232.901C142.7 198.501 164.7 181.301 200.1 181.301C209.7 181.301 218.4 182.901 226 186.201C233.6 189.301 239.6 194.101 244 200.501C248.4 206.801 250.6 214.301 250.6 223.001C250.6 225.601 250.3 228.901 249.7 232.901C247.8 244.001 245.6 254.901 242.9 265.401C238.5 282.501 231 295.401 220.2 303.901C209.5 312.301 195.1 316.401 177.1 316.401ZM179.8 289.401C186.8 289.401 192.7 287.301 197.6 283.201C202.6 279.101 206.2 272.801 208.3 264.201C211.2 252.401 213.4 242.201 214.9 233.401C215.4 230.801 215.7 228.101 215.7 225.301C215.7 213.901 209.8 208.201 197.9 208.201C190.9 208.201 184.9 210.301 179.9 214.401C175 218.501 171.5 224.801 169.4 233.401C167.1 241.801 164.9 252.001 162.6 264.201C162.1 266.701 161.8 269.301 161.8 272.101C161.7 283.701 167.8 289.401 179.8 289.401Z" fill="white"/>
<path d="M259.3 314.599C257.9 314.599 256.9 314.199 256.1 313.299C255.5 312.299 255.3 311.199 255.5 309.899L281.4 187.899C281.6 186.499 282.3 185.399 283.5 184.499C284.6 183.599 285.8 183.199 287.1 183.199H337C350.9 183.199 362 186.099 370.4 191.799C378.9 197.599 383.2 205.899 383.2 216.799C383.2 219.899 382.8 223.199 382.1 226.599C379 240.999 372.7 251.599 363.1 258.499C353.7 265.399 340.8 268.799 324.4 268.799H299.1L290.5 309.899C290.2 311.299 289.6 312.399 288.4 313.299C287.3 314.199 286.1 314.599 284.8 314.599H259.3ZM325.7 242.899C331 242.899 335.5 241.499 339.4 238.599C343.4 235.699 346 231.599 347.3 226.199C347.7 224.099 347.9 222.199 347.9 220.599C347.9 216.999 346.8 214.199 344.7 212.299C342.6 210.299 338.9 209.299 333.8 209.299H311.3L304.2 242.899H325.7Z" fill="white"/>
</g>
<defs>
<clipPath id="clip0_1238_9">
<rect width="500" height="500" fill="white"/>
</clipPath>
</defs>
</svg>
