<svg width="233" height="229" viewBox="0 0 233 229" fill="none" xmlns="http://www.w3.org/2000/svg">
<path d="M116.281 0.368164C107.538 0.368164 98.7955 1.23399 90.0525 3.39856C90.0525 3.83148 90.0525 4.26439 90.0525 4.6973V145.394C90.0525 148.425 87.4296 150.589 84.8067 150.589H74.3152C72.1295 150.589 70.3809 148.858 70.3809 146.693V9.45935C28.8518 26.7759 0 67.4698 0 114.224C0 177.43 52.0206 228.514 116.719 228.514C181.417 228.514 233 177.43 233 114.657C233 51.8849 180.542 0.368164 116.281 0.368164ZM114.096 161.845C114.096 164.442 111.91 166.607 109.287 166.607H98.7955C96.1726 166.607 93.9869 164.442 93.9869 161.845V89.5484C93.9869 86.9509 96.1726 84.7863 98.7955 84.7863H109.287C111.91 84.7863 114.096 86.9509 114.096 89.5484V161.845ZM137.702 168.772C137.702 171.369 135.516 173.534 132.893 173.534H122.402C119.779 173.534 117.593 171.369 117.593 168.772V82.6218C117.593 80.0243 119.779 77.8597 122.402 77.8597H132.893C135.516 77.8597 137.702 80.0243 137.702 82.6218V168.772ZM161.308 155.784C161.308 158.382 159.122 160.546 156.499 160.546H146.008C143.385 160.546 141.199 158.382 141.199 155.784V96.475C141.199 93.8775 143.385 91.7129 146.008 91.7129H156.499C159.122 91.7129 161.308 93.8775 161.308 96.475V155.784Z" fill="#FF005C"/>
<path d="M116.281 0.368164C107.538 0.368164 98.7955 1.23399 90.0525 3.39856C90.0525 3.83148 90.0525 4.26439 90.0525 4.6973V145.394C90.0525 148.425 87.4296 150.589 84.8067 150.589H74.3152C72.1295 150.589 70.3809 148.858 70.3809 146.693V9.45935C28.8518 26.7759 0 67.4698 0 114.224C0 177.43 52.0206 228.514 116.719 228.514C181.417 228.514 233 177.43 233 114.657C233 51.8849 180.542 0.368164 116.281 0.368164ZM114.096 161.845C114.096 164.442 111.91 166.607 109.287 166.607H98.7955C96.1726 166.607 93.9869 164.442 93.9869 161.845V89.5484C93.9869 86.9509 96.1726 84.7863 98.7955 84.7863H109.287C111.91 84.7863 114.096 86.9509 114.096 89.5484V161.845ZM137.702 168.772C137.702 171.369 135.516 173.534 132.893 173.534H122.402C119.779 173.534 117.593 171.369 117.593 168.772V82.6218C117.593 80.0243 119.779 77.8597 122.402 77.8597H132.893C135.516 77.8597 137.702 80.0243 137.702 82.6218V168.772ZM161.308 155.784C161.308 158.382 159.122 160.546 156.499 160.546H146.008C143.385 160.546 141.199 158.382 141.199 155.784V96.475C141.199 93.8775 143.385 91.7129 146.008 91.7129H156.499C159.122 91.7129 161.308 93.8775 161.308 96.475V155.784Z" fill="url(#paint0_linear)" fill-opacity="0.4"/>
<defs>
<linearGradient id="paint0_linear" x1="116.5" y1="0.368164" x2="116.5" y2="228.514" gradientUnits="userSpaceOnUse">
<stop stop-color="#00E0FF"/>
<stop offset="1" stop-color="#00E0FF" stop-opacity="0"/>
</linearGradient>
</defs>
</svg>
