<svg width="540" height="540" viewBox="0 0 540 540" fill="none" xmlns="http://www.w3.org/2000/svg">
<rect width="540" height="540" rx="270" fill="#252525"/>
<path d="M328.634 93.9131C335.426 112.268 349.898 126.741 368.253 133.533C349.898 140.325 335.426 154.797 328.634 173.152C321.842 154.797 307.37 140.325 289.014 133.533C307.37 126.741 321.842 112.268 328.634 93.9131Z" fill="white"/>
<path fill-rule="evenodd" clip-rule="evenodd" d="M275.654 151.2L203.556 248.04C180.468 279.051 180.618 320.644 202.352 351.241C179.186 352.98 162.39 348.536 157.213 337.433C153.258 328.952 156.637 317.776 165.683 305.559C165.247 296.461 166.003 287.308 167.967 278.326C118.257 312.887 90.0827 348.763 100.115 370.278C110.812 393.217 161.928 393.379 225.926 374.031C260.713 397.048 308.221 393.374 338.947 363.009C344.853 357.173 349.777 350.697 353.703 343.795L295.866 347.065C321.342 335.185 344.643 322.067 364.781 308.642V308.642C418.719 272.682 449.958 234.516 439.474 212.033C428.983 189.535 379.61 188.946 317.337 207.187L275.654 151.2ZM325.721 218.448L347.753 248.04C354.972 257.737 359.92 268.47 362.646 279.577C383.072 260.797 393.003 242.6 387.213 230.182C380.883 216.609 357.19 212.987 325.721 218.448Z" fill="white"/>
</svg>
