<svg width="96" height="96" viewBox="0 0 96 96" fill="none" xmlns="http://www.w3.org/2000/svg">
<rect width="96" height="96" rx="48" fill="url(#paint0_linear_11455_43651)"/>
<path fill-rule="evenodd" clip-rule="evenodd" d="M19.2512 30.6356C18.9694 29.8727 19.1573 29.0158 19.7323 28.44L27.5612 20.6111C28.1361 20.0361 28.9938 19.8482 29.7559 20.1292L46.449 26.2617C46.8593 26.4125 47.1317 26.803 47.1317 27.24V30.895C47.1317 31.1717 47.0222 31.4364 46.8265 31.6321L42.763 35.6948C42.4759 35.9827 42.0475 36.0767 41.6656 35.9353L37.1814 34.2819L32.254 32.4639C31.8377 32.3096 31.4308 32.7156 31.5851 33.1328L35.0565 42.5444C35.197 42.9263 35.1039 43.3547 34.816 43.6418L31.2032 47.2528C30.7963 47.6597 30.7963 48.32 31.2032 48.7269L34.8349 52.3586C35.1228 52.6465 35.2168 53.0749 35.0754 53.4559L31.6041 62.8667C31.4498 63.2839 31.8558 63.6899 32.273 63.5356L41.6846 60.0634C42.0664 59.9228 42.4949 60.0168 42.7819 60.3039L46.8257 64.3476C47.0214 64.5433 47.1308 64.8079 47.1308 65.0846V68.7405C47.1308 69.1767 46.8593 69.5672 46.4498 69.718L29.7766 75.8694C29.0137 76.1513 28.156 75.9625 27.581 75.3876L19.7512 67.5578C19.1762 66.9828 18.9883 66.126 19.2702 65.3622L25.4001 48.745C25.5716 48.2795 25.5716 47.7674 25.4001 47.3019L19.2512 30.6356Z" fill="white"/>
<path fill-rule="evenodd" clip-rule="evenodd" d="M76.7476 65.3648C77.0295 66.1277 76.8416 66.9845 76.2666 67.5604L68.4377 75.3901C67.8628 75.9651 67.0059 76.153 66.243 75.872L49.5499 69.7396C49.1396 69.5887 48.8672 69.1982 48.8672 68.7612V65.1062C48.8672 64.8295 48.9767 64.5648 49.1723 64.3692L53.2359 60.3064C53.523 60.0185 53.9514 59.9246 54.3333 60.0659L58.8175 61.7193L63.7449 63.5373C64.1612 63.6916 64.5672 63.2856 64.4138 62.8684L60.9424 53.4568C60.8019 53.0749 60.895 52.6465 61.1829 52.3594L64.7957 48.7484C65.2025 48.3415 65.2025 47.6812 64.7957 47.2744L61.164 43.6426C60.876 43.3547 60.7821 42.9263 60.9235 42.5453L64.3948 33.1346C64.5491 32.7173 64.1431 32.3113 63.7259 32.4656L54.3143 35.9379C53.9324 36.0784 53.504 35.9844 53.217 35.6974L49.1732 31.6536C48.9775 31.4579 48.868 31.1933 48.868 30.9166V27.2607C48.868 26.8245 49.1396 26.434 49.549 26.2832L66.2223 20.1318C66.9852 19.8499 67.8421 20.0387 68.4179 20.6137L76.2468 28.4434C76.8226 29.0184 77.0106 29.8752 76.7287 30.639L70.5988 47.2562C70.4264 47.7217 70.4264 48.2338 70.5988 48.6993L76.7485 65.3682L76.7476 65.3648Z" fill="white"/>
<defs>
<linearGradient id="paint0_linear_11455_43651" x1="48" y1="-13.6558" x2="48" y2="120.376" gradientUnits="userSpaceOnUse">
<stop stop-color="#F9F4CD"/>
<stop offset="0.44" stop-color="#FAB8F5"/>
<stop offset="1" stop-color="#9AA6FA"/>
</linearGradient>
</defs>
</svg>
