<svg width="540" height="540" viewBox="0 0 540 540" fill="none" xmlns="http://www.w3.org/2000/svg">
<path d="M0 270C0 120.883 120.883 0 270 0V0C419.117 0 540 120.883 540 270V270C540 419.117 419.117 540 270 540V540C120.883 540 0 419.117 0 270V270Z" fill="#FFC6FD"/>
<path fill-rule="evenodd" clip-rule="evenodd" d="M368.253 133.533C349.897 126.741 335.425 112.268 328.633 93.9131C321.841 112.268 307.369 126.741 289.014 133.533C307.369 140.325 321.841 154.797 328.633 173.152C335.425 154.797 349.897 140.325 368.253 133.533ZM203.556 248.04L275.654 151.2L317.336 207.187C379.61 188.946 428.982 189.535 439.473 212.033C449.958 234.516 418.718 272.682 364.78 308.642C344.643 322.067 321.341 335.185 295.866 347.065L353.703 343.795C349.777 350.697 344.853 357.173 338.947 363.009C308.22 393.374 260.713 397.048 225.926 374.031C161.928 393.379 110.811 393.216 100.115 370.278C90.0822 348.763 118.256 312.887 167.967 278.326C166.003 287.308 165.246 296.461 165.683 305.559C156.636 317.776 153.258 328.952 157.213 337.433C162.39 348.536 179.185 352.98 202.351 351.241C180.617 320.645 180.468 279.051 203.556 248.04ZM347.752 248.04L325.721 218.448C357.19 212.987 380.883 216.609 387.212 230.182C393.003 242.6 383.071 260.797 362.645 279.577C359.919 268.47 354.972 257.737 347.752 248.04Z" fill="white"/>
</svg>
