<svg width="540" height="540" viewBox="0 0 540 540" fill="none" xmlns="http://www.w3.org/2000/svg">
<g clip-path="url(#clip0_5021_2105)">
<mask id="mask0_5021_2105" style="mask-type:luminance" maskUnits="userSpaceOnUse" x="0" y="0" width="540" height="540">
<path d="M540 0H0V540H540V0Z" fill="white"/>
</mask>
<g mask="url(#mask0_5021_2105)">
<path d="M270 540C419.117 540 540 419.117 540 270C540 120.883 419.117 0 270 0C120.883 0 0 120.883 0 270C0 419.117 120.883 540 270 540Z" fill="url(#paint0_linear_5021_2105)"/>
<path fill-rule="evenodd" clip-rule="evenodd" d="M258.493 92.3136C223.035 94.8205 190.89 106.661 163.312 127.372C126.492 155.025 101.885 195.618 94.398 241.059C91.9729 255.778 91.4524 272.273 92.937 287.377C97.5788 334.606 120.551 377.464 157.507 407.841C166.669 415.372 177.839 422.696 188.712 428.303C207.076 437.772 227.06 443.981 247.366 446.524C259.969 448.103 275.667 448.286 288.607 447.004C312.896 444.598 337.049 436.84 358.427 424.578C407.227 396.585 440.271 347.074 446.911 292.001C447.888 283.898 448.008 281.521 448 270.327C447.992 258.89 447.821 255.9 446.672 247.024C438.485 183.802 396.513 129.286 337.467 105.186C320.843 98.4001 304.929 94.5087 286.188 92.6474C281.646 92.1963 263.284 91.975 258.493 92.3136ZM264.298 107.461C253.177 108.259 249.331 108.65 243.012 109.621C223.786 112.576 203.926 119.836 186.654 130.224C182.822 132.528 176.579 136.67 175.709 137.485C174.916 138.226 174.839 139.208 175.523 139.827C175.984 140.245 176.147 140.238 179.937 139.632C190.683 137.914 201.332 137.405 213.55 138.024C230.663 138.891 243.86 140.943 261.758 145.518C267.489 146.982 267.585 146.998 269.242 146.732C271.149 146.427 272.971 145.532 273.945 144.422C274.311 144.005 275.354 142.367 276.263 140.78C282.054 130.672 289.153 121.748 296.226 115.681C299.089 113.226 299.112 113.197 299.121 111.987C299.132 110.56 298.463 109.812 296.887 109.493C295.305 109.172 282.605 107.891 277.643 107.551C274.252 107.32 266.954 107.27 264.298 107.461ZM320.657 119.269C309.718 121.718 299.6 130.671 290.183 146.234C288.045 149.769 287.619 150.853 287.862 152.147C288.148 153.671 289.217 154.432 293.458 156.131C316.032 165.173 336.847 176.402 356.455 190.115C361.957 193.964 366.43 197.291 367.668 198.456C369.063 199.769 370.843 202.407 371.657 204.367C372.849 207.235 374.596 217.009 374.596 220.807C374.596 225.23 372.597 228.731 369.041 230.533C368.371 230.872 365.565 231.754 362.805 232.493C342.904 237.819 328.491 242.836 308.321 251.458C298.619 255.606 291.494 258.929 280.881 264.257C270.77 269.332 270.322 269.491 268.965 268.484C267.792 267.614 267.667 266.753 267.901 261.185C268.149 255.304 268.321 254.692 270.22 252.957C271.153 252.105 272.396 251.382 274.851 250.264C276.696 249.424 282.016 246.941 286.672 244.746C299.688 238.611 307.599 235.153 316.786 231.586C331.299 225.95 348.749 220.331 361.414 217.213C363.409 216.721 365.132 216.24 365.241 216.142C365.412 215.989 363.431 214.363 356.092 208.631C355.294 208.008 352.665 206.081 350.25 204.35C321.384 183.659 288.471 168.292 254.26 159.536C243.007 156.656 232.117 154.834 219.308 153.69C214.95 153.301 197.485 153.312 192.338 153.708C185.243 154.253 179.778 155.148 172.756 156.912C151.434 162.27 136.687 173.083 129.243 188.817C124.693 198.434 123.547 209.774 125.847 222.434C129.886 244.661 145.029 269.861 168.288 293.062C173.887 298.646 179.793 303.892 181.492 304.792C182.681 305.42 183.112 305.514 184.816 305.517C187.407 305.521 188.471 305.007 192.822 301.643C207.473 290.315 221.597 280.719 239.469 269.948C243.325 267.624 245.394 265.047 246.254 261.498C246.448 260.7 246.779 257.271 246.992 253.879C248.157 235.235 248.961 228.437 251.95 211.908C254.453 198.068 256.778 188.62 260.674 176.449C262.047 172.162 262.167 171.9 263.181 170.965C264.885 169.395 265.631 169.39 270.356 170.917C273.822 172.036 274.384 172.294 275.302 173.179C276.059 173.91 276.38 174.441 276.498 175.155C276.698 176.366 276.572 176.907 274.718 182.765C270.538 195.982 267.365 210.036 265.27 224.611C261.051 253.97 260.496 278.907 263.339 311.326C264.325 322.572 264.996 326.987 268.084 342.528C269.607 350.198 269.892 352 269.803 353.413C269.675 355.433 269.086 356.714 267.713 357.954C266.458 359.088 265.909 359.353 259.823 361.764C254.789 363.759 254.721 363.778 252.186 363.885C248.888 364.025 247.727 363.76 243.738 361.96C234.328 357.712 219.848 350.046 209.391 343.775C171.07 320.797 140.403 290.654 123.425 259.278C120.113 253.158 118.012 248.345 115.111 240.236C114.211 237.721 113.304 235.555 113.094 235.423C112.552 235.081 111.496 235.408 111.085 236.044C110.358 237.17 108.589 247.416 107.923 254.362C107.112 262.833 107.229 277.721 108.18 287.016C110.822 312.816 118.713 335.63 132.547 357.464C134.994 361.325 136.088 362.059 138.201 361.258C139.32 360.835 139.973 360.051 140.932 357.985C144.7 349.862 152.222 339.599 161.817 329.488C165.804 325.286 166.851 324.621 169.199 324.798C170.954 324.931 171.851 325.374 174.255 327.297C175.708 328.461 176.37 329.183 176.836 330.118C177.553 331.557 177.671 333.457 177.126 334.762C176.941 335.204 175.132 337.35 173.106 339.531C163.168 350.229 156.457 359.63 153.549 366.932C151.107 373.063 150.72 377.075 152.266 380.217C153.276 382.267 154.899 383.714 157.749 385.104C159.994 386.199 163.646 387.329 166.819 387.911C168.126 388.151 170.835 388.242 176.495 388.237C183.528 388.23 184.942 388.16 189.919 387.565C199.825 386.383 205.49 385.335 216.284 382.689C231.17 379.04 243.113 375.119 261.033 367.995C274.255 362.738 284.88 357.996 298.041 351.476C322.545 339.336 343.318 327.037 363.953 312.451C369.798 308.319 381.062 299.864 382.09 298.836C382.485 298.441 382.916 297.715 383.048 297.223C383.18 296.731 383.455 293.608 383.66 290.282C385.048 267.704 384.58 247.402 382.209 227.393C379.827 207.296 377.311 194.493 372.824 179.621C364.872 153.27 353.527 133.698 340.955 124.645C338.171 122.64 333.543 120.317 330.937 119.617C328.401 118.936 322.968 118.752 320.657 119.269ZM380.227 151.804C379.248 152.207 379.332 152.956 380.768 156.65C386.653 171.79 390.737 185.932 393.583 201.027C394.059 203.555 394.663 206.067 394.925 206.609C395.723 208.263 397.002 209.54 398.696 210.374L400.281 211.154L406.124 211.349C409.338 211.457 413.524 211.708 415.426 211.908C418.336 212.213 419.009 212.219 419.659 211.948C421.61 211.132 421.602 210.105 419.609 205.435C411.875 187.314 400.734 170.841 386.329 156.229C381.938 151.775 381.343 151.344 380.227 151.804ZM402.751 226.885C401.465 228.171 401.587 229.008 403.381 231.19C408.211 237.061 409.25 238.445 417.691 250.235C419.554 252.836 420.423 253.844 421.103 254.191C422.33 254.818 423.556 254.583 424.536 253.536C425.516 252.488 427.398 248.625 428.412 245.58C430.375 239.688 430.183 235.588 427.804 232.585C425.932 230.222 420.923 228.023 415.172 227.04C412.992 226.667 406.219 226.081 403.9 226.065C403.721 226.063 403.204 226.432 402.751 226.885ZM400.115 254.695C399.643 255.04 399.629 255.368 399.564 268.044C399.503 279.933 399.532 281.077 399.904 281.488C400.845 282.528 401.311 282.213 406.099 277.311C410.528 272.773 411.604 271.356 411.604 270.056C411.604 269.123 410.716 267.556 406.34 260.772C402.402 254.667 402.258 254.481 401.441 254.412C400.975 254.373 400.383 254.499 400.115 254.695ZM431.451 271.095C430.52 272.094 430.506 273.838 431.42 274.952C431.804 275.42 431.974 275.477 432.33 275.261C432.656 275.063 432.823 274.519 432.979 273.15C433.094 272.136 433.125 271.14 433.047 270.937C432.842 270.404 432.019 270.485 431.451 271.095ZM243.375 285.033C235.616 289.502 218.464 301.173 206.851 309.884C201.171 314.145 197.539 317.117 197.539 317.504C197.539 317.795 199.233 319.028 204.556 322.609C215.617 330.052 226.896 336.588 238.88 342.499C245.488 345.759 253.349 349.325 253.529 349.145C253.593 349.081 253.156 346.586 252.558 343.601C248.917 325.43 247.007 308.575 246.261 288.044C246.173 285.617 246.032 283.632 245.948 283.635C245.863 283.637 244.706 284.266 243.375 285.033ZM416.371 288.809C415.865 288.993 414.886 289.674 414.194 290.321C413.501 290.969 409.941 294.29 406.283 297.703C397.899 305.522 397.788 305.689 396.854 311.866C394.057 330.361 393.4 333.796 389.695 349.327C388.708 353.465 387.9 357.113 387.9 357.434C387.9 358.982 389.572 360.549 391.225 360.549C392.256 360.549 397.173 358.029 400.771 355.657C405.737 352.383 409.348 349.233 412.605 345.331C422.741 333.191 426.392 318.418 423.34 301.892C422.492 297.3 421.058 291.151 420.652 290.361C419.906 288.911 417.991 288.217 416.371 288.809ZM377.799 321.132C377.499 321.252 375.569 322.549 373.51 324.015C356.126 336.395 329.556 352.446 311.28 361.609C308.164 363.171 307.595 363.643 307.595 364.664C307.595 365.811 308.502 366.183 313.092 366.922C325.201 368.872 331.419 369.373 343.393 369.366C352.855 369.359 357.599 369.088 364.548 368.154C366.904 367.837 368.68 366.448 369.785 364.058C371.175 361.05 375.048 347.187 377.117 337.812C378.478 331.647 379.918 323.822 379.918 322.591C379.918 321.317 378.972 320.666 377.799 321.132ZM281.097 375.886C280.108 376.316 279.107 377.548 278.915 378.571C278.784 379.272 279.001 379.921 280.269 382.616C283.014 388.452 287.476 397.151 289.143 399.916C294.698 409.132 302.742 417.083 310.135 420.665C313.111 422.107 315.447 422.814 318.456 423.184C322.207 423.645 328.054 422.425 332.323 420.293C340.955 415.98 349.92 406.039 357.408 392.477C360.076 387.645 360.315 386.97 359.77 385.828C359.038 384.293 358.49 384.18 353.103 384.46C345.687 384.846 331.809 384.308 322.471 383.271C313.989 382.33 297.507 379.278 288.531 376.986C285.429 376.193 282.653 375.55 282.363 375.555C282.072 375.56 281.503 375.709 281.097 375.886ZM383.667 379.536C381.557 380.199 380.135 380.781 379.893 381.079C379.68 381.342 378.665 383.49 377.638 385.854C376.054 389.498 375.809 390.236 376.026 390.713C376.415 391.567 377.354 391.91 378.153 391.489C378.511 391.301 381.179 388.807 384.083 385.946C388.784 381.316 389.363 380.661 389.357 379.977C389.349 378.992 388.795 378.445 387.822 378.46C387.399 378.466 385.529 378.951 383.667 379.536ZM256.8 385.73C242.123 391.319 222.749 396.935 207.333 400.069C199.581 401.645 193.685 402.472 184.719 403.24C182.745 403.409 181.916 403.793 181.573 404.696C181.09 405.967 181.645 406.611 185.044 408.719C205.182 421.21 227.567 428.993 250.994 431.651C261.668 432.862 272.95 433.089 282.114 432.277C291.762 431.422 292.377 431.283 292.992 429.811C293.522 428.543 293.123 427.663 291.365 426.22C289.219 424.457 284.939 419.973 282.542 416.974C280.045 413.852 275.597 407.209 273.426 403.362C271.329 399.645 268.096 393.144 266.24 388.911C264.512 384.971 263.71 384.006 262.173 384.018C261.66 384.022 259.357 384.755 256.8 385.73Z" fill="white"/>
</g>
</g>
<defs>
<linearGradient id="paint0_linear_5021_2105" x1="270" y1="-76.8137" x2="270" y2="677.112" gradientUnits="userSpaceOnUse">
<stop stop-color="#F9F4CD"/>
<stop offset="0.44" stop-color="#FAB8F5"/>
<stop offset="1" stop-color="#9AA6FA"/>
</linearGradient>
<clipPath id="clip0_5021_2105">
<rect width="540" height="540" rx="270" fill="white"/>
</clipPath>
</defs>
</svg>
