<svg width="200" height="200" viewBox="0 0 200 200" fill="none" xmlns="http://www.w3.org/2000/svg">
<mask id="mask0_912_11" style="mask-type:alpha" maskUnits="userSpaceOnUse" x="0" y="0" width="200" height="200">
<circle cx="100" cy="100" r="100" fill="black"/>
</mask>
<g mask="url(#mask0_912_11)">
<path d="M159.116 0H40.884C18.3044 0 0 18.3044 0 40.884V159.116C0 181.696 18.3044 200 40.884 200H159.116C181.696 200 200 181.696 200 159.116V40.884C200 18.3044 181.696 0 159.116 0Z" fill="url(#paint0_linear_912_11)"/>
<path d="M126.316 46.4082L48.6191 155.792H72.4738L150.574 46.4082H126.316Z" fill="white"/>
<path d="M74.9572 46.4082L97.818 78.6398L85.8906 96.2208L50.6055 46.4082H74.9572Z" fill="url(#paint1_linear_912_11)"/>
<path d="M128.632 155.801L103.287 120.152L115.215 103.059L152.487 155.801H128.632Z" fill="url(#paint2_linear_912_11)"/>
<path d="M159.116 0H40.884C18.3044 0 0 18.3044 0 40.884V159.116C0 181.696 18.3044 200 40.884 200H159.116C181.696 200 200 181.696 200 159.116V40.884C200 18.3044 181.696 0 159.116 0Z" stroke="#2D2D3D" stroke-width="2"/>
</g>
<defs>
<linearGradient id="paint0_linear_912_11" x1="161.878" y1="-28.1768" x2="112.707" y2="176.243" gradientUnits="userSpaceOnUse">
<stop stop-color="#2C2C3D"/>
<stop offset="1" stop-color="#1A1A27"/>
</linearGradient>
<linearGradient id="paint1_linear_912_11" x1="69.4904" y1="53.2452" x2="101.54" y2="92.6187" gradientUnits="userSpaceOnUse">
<stop stop-color="white"/>
<stop offset="1" stop-color="white" stop-opacity="0.55"/>
</linearGradient>
<linearGradient id="paint2_linear_912_11" x1="134.1" y1="147.5" x2="94.7938" y2="93.5762" gradientUnits="userSpaceOnUse">
<stop stop-color="#6966FF"/>
<stop offset="1" stop-color="#6966FF" stop-opacity="0.36"/>
</linearGradient>
</defs>
</svg>
