<svg width="320" height="320" viewBox="0 0 320 320" fill="none" xmlns="http://www.w3.org/2000/svg">
<mask id="mask0_2091_233870" style="mask-type:alpha" maskUnits="userSpaceOnUse" x="0" y="0" width="320" height="320">
<circle cx="160" cy="160" r="160" fill="#C4C4C4"/>
</mask>
<g mask="url(#mask0_2091_233870)">
<rect x="-63" y="-63" width="445.2" height="445.2" fill="url(#paint0_radial_2091_233870)"/>
<mask id="mask1_2091_233870" style="mask-type:alpha" maskUnits="userSpaceOnUse" x="-63" y="-63" width="446" height="446">
<rect x="-63" y="-63" width="445.2" height="445.2" fill="url(#paint1_radial_2091_233870)"/>
</mask>
<g mask="url(#mask1_2091_233870)">
<g opacity="0.5" filter="url(#filter0_f_2091_233870)">
<ellipse cx="159.883" cy="351.575" rx="471.301" ry="340.686" fill="url(#paint2_radial_2091_233870)"/>
</g>
</g>
<g filter="url(#filter1_d_2091_233870)">
<path fill-rule="evenodd" clip-rule="evenodd" d="M160.487 40C181.168 39.9843 201.504 45.2679 219.54 55.3424C237.576 65.417 252.703 79.9433 263.466 97.5235C246.825 97.5235 230.866 104.105 219.099 115.819C207.331 127.533 200.721 143.422 200.721 159.988C200.721 176.555 207.331 192.443 219.099 204.158C230.866 215.872 246.825 222.453 263.466 222.453C252.518 240.335 237.06 255.054 218.628 265.146C200.196 275.238 179.432 280.353 158.4 279.981C137.367 279.609 116.799 273.765 98.738 263.028C80.6774 252.291 65.7537 237.036 55.45 218.778C45.1463 200.52 39.8214 179.896 40.0046 158.955C40.1877 138.014 45.8725 117.486 56.4939 99.4094C67.1154 81.3331 82.3037 66.3388 100.549 55.9166C118.795 45.4943 139.463 40.007 160.499 40H160.487Z" fill="#FFC780"/>
<path fill-rule="evenodd" clip-rule="evenodd" d="M263.466 97.5227C246.825 97.5227 230.865 104.104 219.098 115.818C207.331 127.533 200.721 143.421 200.721 159.988C200.721 176.554 207.331 192.443 219.098 204.157C230.865 215.872 246.825 222.453 263.466 222.453L263.07 223.044C250.813 234.104 235.591 241.378 219.257 243.981C202.922 246.584 186.18 244.405 171.068 237.707C155.955 231.01 143.124 220.084 134.136 206.258C125.147 192.433 120.39 176.305 120.442 159.837C120.494 143.368 125.353 127.27 134.428 113.502C143.504 99.7328 156.404 88.8871 171.558 82.2844C186.713 75.6818 203.468 73.6069 219.786 76.3124C236.103 79.0178 251.279 86.3869 263.466 97.5227Z" fill="url(#paint3_linear_2091_233870)"/>
</g>
</g>
<defs>
<filter id="filter0_f_2091_233870" x="-426.557" y="-104.249" width="1172.88" height="911.648" filterUnits="userSpaceOnUse" color-interpolation-filters="sRGB">
<feFlood flood-opacity="0" result="BackgroundImageFix"/>
<feBlend mode="normal" in="SourceGraphic" in2="BackgroundImageFix" result="shape"/>
<feGaussianBlur stdDeviation="57.5693" result="effect1_foregroundBlur_2091_233870"/>
</filter>
<filter id="filter1_d_2091_233870" x="33" y="33" width="237.467" height="254" filterUnits="userSpaceOnUse" color-interpolation-filters="sRGB">
<feFlood flood-opacity="0" result="BackgroundImageFix"/>
<feColorMatrix in="SourceAlpha" type="matrix" values="0 0 0 0 0 0 0 0 0 0 0 0 0 0 0 0 0 0 127 0" result="hardAlpha"/>
<feMorphology radius="2" operator="dilate" in="SourceAlpha" result="effect1_dropShadow_2091_233870"/>
<feOffset/>
<feGaussianBlur stdDeviation="2.5"/>
<feComposite in2="hardAlpha" operator="out"/>
<feColorMatrix type="matrix" values="0 0 0 0 0 0 0 0 0 0 0 0 0 0 0 0 0 0 0.1 0"/>
<feBlend mode="normal" in2="BackgroundImageFix" result="effect1_dropShadow_2091_233870"/>
<feBlend mode="normal" in="SourceGraphic" in2="effect1_dropShadow_2091_233870" result="shape"/>
</filter>
<radialGradient id="paint0_radial_2091_233870" cx="0" cy="0" r="1" gradientUnits="userSpaceOnUse" gradientTransform="translate(159.6 159.6) rotate(90) scale(222.6)">
<stop stop-color="#311810"/>
<stop offset="1" stop-color="#1E0E0A"/>
</radialGradient>
<radialGradient id="paint1_radial_2091_233870" cx="0" cy="0" r="1" gradientUnits="userSpaceOnUse" gradientTransform="translate(159.6 159.6) rotate(90) scale(222.6)">
<stop stop-color="#311810"/>
<stop offset="1" stop-color="#1E0E0A"/>
</radialGradient>
<radialGradient id="paint2_radial_2091_233870" cx="0" cy="0" r="1" gradientUnits="userSpaceOnUse" gradientTransform="translate(159.883 351.575) rotate(90) scale(340.686 471.301)">
<stop stop-color="#A744F4"/>
<stop offset="0.411458" stop-color="#B2B1EE" stop-opacity="0.46"/>
<stop offset="1" stop-color="#B1C2EE" stop-opacity="0"/>
</radialGradient>
<linearGradient id="paint3_linear_2091_233870" x1="191.947" y1="245.072" x2="191.947" y2="75.1699" gradientUnits="userSpaceOnUse">
<stop stop-color="#FFC780"/>
<stop offset="1" stop-color="#964B48"/>
</linearGradient>
</defs>
</svg>
