<svg
  width="160"
  height="160"
  viewBox="0 0 160 160"
  fill="none"
  xmlns="http://www.w3.org/2000/svg"
>
  <g clip-path="url(#clip0)">
    <path
      d="M80 159C123.63 159 159 123.63 159 80C159 36.3695 123.63 1 80 1C36.3695 1 1 36.3695 1 80C1 123.63 36.3695 159 80 159Z"
      fill="url(#paint0_linear)"
    />
    <path
      d="M143.9 33.5643L126.426 16.0906L104.405 4.87594L79.9951 1.00505L55.5856 4.87594L33.5643 16.0906L16.0906 33.5643L4.87595 55.5856L1.00507 79.995L4.87595 104.405L16.0906 126.426L33.5643 143.9L55.5856 155.124L79.9951 158.995L104.405 155.124L126.426 143.9L143.9 126.426L155.124 104.405L158.995 79.995L155.124 55.5856L143.9 33.5643Z"
      stroke="white"
      stroke-width="3"
      stroke-miterlimit="10"
    />
    <path
      d="M126.426 16.0906L79.9951 79.9951"
      stroke="white"
      stroke-width="1.5"
      stroke-miterlimit="10"
    />
    <path
      d="M33.5643 16.0906L79.9951 79.9951"
      stroke="white"
      stroke-width="1.5"
      stroke-miterlimit="10"
    />
    <path
      d="M4.87598 104.405L79.9951 79.995"
      stroke="white"
      stroke-width="1.5"
      stroke-miterlimit="10"
    />
    <path
      d="M79.9951 158.985V79.995"
      stroke="white"
      stroke-width="1.5"
      stroke-miterlimit="10"
    />
    <path
      d="M155.124 104.405L79.9951 79.995"
      stroke="white"
      stroke-width="1.5"
      stroke-miterlimit="10"
    />
    <path
      d="M79.995 102.036L100.952 86.8113L92.9511 62.173H67.039L59.0385 86.8113L79.995 102.036Z"
      stroke="white"
      stroke-width="1.5"
      stroke-miterlimit="10"
    />
    <path
      d="M55.5856 4.87595L79.995 39.1567L104.405 4.87595"
      stroke="white"
      stroke-width="1.5"
      stroke-miterlimit="10"
    />
    <path
      d="M79.995 10.0504V1.00505L59.2773 10.0504H79.995ZM79.995 10.0504L67.2579 21.265H92.7322L79.995 10.0504Z"
      stroke="white"
      stroke-width="1.5"
      stroke-miterlimit="10"
    />
    <path
      d="M79.9951 1.00505L100.723 10.0504H79.9951"
      stroke="white"
      stroke-width="1.5"
      stroke-miterlimit="10"
    />
    <path
      d="M67.039 62.173L79.995 39.1566L92.9511 62.173"
      stroke="white"
      stroke-width="1.5"
      stroke-miterlimit="10"
    />
    <path
      d="M79.9951 39.1566L52.2023 41.7339L67.258 21.265L41.0872 26.4494L59.2774 10.0504L33.5643 16.0905"
      stroke="white"
      stroke-width="1.5"
      stroke-miterlimit="10"
    />
    <path
      d="M79.9951 39.1566L107.798 41.7339L92.7322 21.265L118.903 26.4494L100.723 10.0504L126.426 16.0905"
      stroke="white"
      stroke-width="1.5"
      stroke-miterlimit="10"
    />
    <path
      d="M1.00507 79.995L41.1568 67.3773L16.0906 33.5643"
      stroke="white"
      stroke-width="1.5"
      stroke-miterlimit="10"
    />
    <path
      d="M4.86603 55.5855L13.4636 58.3817L20.2003 73.9648L28.0715 49.7344L13.4636 58.3817L7.06517 78.0844L4.86603 55.5855Z"
      stroke="white"
      stroke-width="1.5"
      stroke-miterlimit="10"
    />
    <path
      d="M4.86603 55.5855L19.8719 38.6691L13.4636 58.3817"
      stroke="white"
      stroke-width="1.5"
      stroke-miterlimit="10"
    />
    <path
      d="M59.0385 86.8114L41.1568 67.3773L67.039 62.173"
      stroke="white"
      stroke-width="1.5"
      stroke-miterlimit="10"
    />
    <path
      d="M41.1568 67.3773L35.0172 94.6128L20.2003 73.9648L17.0459 100.454L7.06517 78.0844L4.86603 104.404"
      stroke="white"
      stroke-width="1.5"
      stroke-miterlimit="10"
    />
    <path
      d="M41.1468 67.3774L52.1923 41.734L28.0714 49.7345L41.0871 26.4395L19.8719 38.6691L33.5643 16.0906"
      stroke="white"
      stroke-width="1.5"
      stroke-miterlimit="10"
    />
    <path
      d="M55.5756 155.124L55.9836 113.032L16.0806 126.426"
      stroke="white"
      stroke-width="1.5"
      stroke-miterlimit="10"
    />
    <path
      d="M33.5643 143.899L38.8681 136.586L55.7747 134.993L35.1664 120.027L38.8681 136.586L55.6453 148.765L33.5643 143.899Z"
      stroke="white"
      stroke-width="1.5"
      stroke-miterlimit="10"
    />
    <path
      d="M33.5643 143.9L22.1009 124.406L38.8681 136.586"
      stroke="white"
      stroke-width="1.5"
      stroke-miterlimit="10"
    />
    <path
      d="M79.9951 102.036L55.9836 113.032L59.0386 86.8114"
      stroke="white"
      stroke-width="1.5"
      stroke-miterlimit="10"
    />
    <path
      d="M55.9836 113.032L79.995 127.291L55.7746 134.993L79.995 146.188L55.6453 148.765L79.995 158.985"
      stroke="white"
      stroke-width="1.5"
      stroke-miterlimit="10"
    />
    <path
      d="M55.9836 113.042L35.0172 94.6128L35.1664 120.027L17.0359 100.454L22.1109 124.406L4.86603 104.404"
      stroke="white"
      stroke-width="1.5"
      stroke-miterlimit="10"
    />
    <path
      d="M143.89 126.436L103.997 113.042L104.405 155.124"
      stroke="white"
      stroke-width="1.5"
      stroke-miterlimit="10"
    />
    <path
      d="M126.416 143.909L121.102 136.596L124.814 120.027L104.206 135.003L121.102 136.596L137.869 124.416L126.416 143.909Z"
      stroke="white"
      stroke-width="1.5"
      stroke-miterlimit="10"
    />
    <path
      d="M126.416 143.909L104.335 148.775L121.102 136.596"
      stroke="white"
      stroke-width="1.5"
      stroke-miterlimit="10"
    />
    <path
      d="M100.952 86.8114L103.997 113.042L79.9951 102.036"
      stroke="white"
      stroke-width="1.5"
      stroke-miterlimit="10"
    />
    <path
      d="M103.997 113.042L124.973 94.6128L124.814 120.027L142.944 100.454L137.869 124.416L155.114 104.414"
      stroke="white"
      stroke-width="1.5"
      stroke-miterlimit="10"
    />
    <path
      d="M103.997 113.042L79.9951 127.291L104.206 135.003L79.9951 146.198L104.345 148.775L79.9951 158.995"
      stroke="white"
      stroke-width="1.5"
      stroke-miterlimit="10"
    />
    <path
      d="M143.9 33.5742L118.833 67.3873L158.985 80.005"
      stroke="white"
      stroke-width="1.5"
      stroke-miterlimit="10"
    />
    <path
      d="M155.124 55.5955L146.527 58.3917L131.919 49.7344L139.79 73.9648L146.527 58.3917L140.118 38.679L155.124 55.5955Z"
      stroke="white"
      stroke-width="1.5"
      stroke-miterlimit="10"
    />
    <path
      d="M155.124 55.5955L152.925 78.0944L146.527 58.3917"
      stroke="white"
      stroke-width="1.5"
      stroke-miterlimit="10"
    />
    <path
      d="M92.951 62.173L118.833 67.3873L100.952 86.8114"
      stroke="white"
      stroke-width="1.5"
      stroke-miterlimit="10"
    />
    <path
      d="M118.833 67.3873L107.798 41.7439L131.919 49.7345L118.903 26.4495L140.118 38.6791L126.426 16.1006"
      stroke="white"
      stroke-width="1.5"
      stroke-miterlimit="10"
    />
    <path
      d="M118.833 67.3773L124.973 94.6128L139.79 73.9648L142.954 100.454L152.925 78.0944L155.114 104.414"
      stroke="white"
      stroke-width="1.5"
      stroke-miterlimit="10"
    />
  </g>
  <defs>
    <linearGradient
      id="paint0_linear"
      x1="80"
      y1="159"
      x2="80"
      y2="1"
      gradientUnits="userSpaceOnUse"
    >
      <stop stop-color="#A93E4D" />
      <stop offset="0.9997" stop-color="#F15A24" />
    </linearGradient>
    <clipPath id="clip0">
      <rect width="160" height="160" fill="white" />
    </clipPath>
  </defs>
</svg>
