<svg
  width="100%"
  height="100%"
  viewBox="0 0 40 40"
  fill="none"
  xmlns="http://www.w3.org/2000/svg"
>
  <path
    d="M35.5042 8.73315L31.2645 4.49347L25.9215 1.77245L19.999 0.833252L14.0764 1.77245L8.73339 4.49347L4.49372 8.73315L1.7727 14.0762L0.833496 19.9987L1.7727 25.9212L4.49372 31.2643L8.73339 35.5039L14.0764 38.2274L19.999 39.1666L25.9215 38.2274L31.2645 35.5039L35.5042 31.2643L38.2276 25.9212L39.1668 19.9987L38.2276 14.0762L35.5042 8.73315Z"
    stroke="white"
    stroke-width="1.09999"
    stroke-miterlimit="10"
  />
  <path
    d="M24.327 14.0462L19.998 6.7832"
    stroke="white"
    stroke-width="0.549996"
    stroke-linecap="round"
    stroke-linejoin="round"
  />
  <path
    d="M11.0942 7.74661L19.9983 6.7832L28.9049 7.74661"
    stroke="white"
    stroke-width="0.549996"
    stroke-miterlimit="10"
  />
  <path
    d="M15.6709 14.0427H24.3263"
    stroke="white"
    stroke-width="0.549996"
    stroke-linecap="round"
    stroke-linejoin="round"
  />
  <path
    d="M19.9974 6.7832L15.6709 14.0462"
    stroke="white"
    stroke-width="0.549996"
    stroke-linecap="round"
    stroke-linejoin="round"
  />
  <path
    d="M11.0942 7.74538L14.076 1.77417L19.9983 6.78197L25.9207 1.77417L28.9049 7.74538"
    stroke="white"
    stroke-width="0.549996"
    stroke-miterlimit="10"
  />
  <path
    d="M31.2651 4.49365L19.9997 20L8.73438 4.49365"
    stroke="white"
    stroke-width="0.549996"
    stroke-linecap="round"
    stroke-linejoin="round"
  />
  <path
    d="M7.42725 15.914L15.6722 14.0427L12.9971 22.2764L19.9987 27.3638L27.7705 30.6959"
    stroke="white"
    stroke-width="0.549996"
    stroke-linecap="round"
    stroke-linejoin="round"
  />
  <path
    d="M7.42725 15.9177L12.9971 22.2801"
    stroke="white"
    stroke-width="0.549996"
    stroke-linecap="round"
    stroke-linejoin="round"
  />
  <path
    d="M5.58927 24.6833L0.833008 20.0014L7.42658 15.916L4.49316 8.73509L11.094 7.74512L7.42658 15.916L5.58927 24.6833ZM5.58927 24.6833L12.2287 30.6979L19.9981 35.1552L25.9205 38.2314L27.7699 30.6979L35.503 31.2678L34.4069 24.6833"
    stroke="white"
    stroke-width="0.549996"
    stroke-miterlimit="10"
  />
  <path
    d="M12.9973 22.2776L12.2295 30.6972"
    stroke="white"
    stroke-width="0.549996"
    stroke-linecap="round"
    stroke-linejoin="round"
  />
  <path
    d="M12.2295 30.6951L19.9989 27.363"
    stroke="white"
    stroke-width="0.549996"
    stroke-linecap="round"
    stroke-linejoin="round"
  />
  <path
    d="M19.9986 35.1555L14.0762 38.2317L12.2292 30.6983L4.49365 31.2681L5.58977 24.6836"
    stroke="white"
    stroke-width="0.549996"
    stroke-miterlimit="10"
  />
  <path
    d="M1.77393 25.9207L19.9998 19.9978V39.167"
    stroke="white"
    stroke-width="0.549996"
    stroke-linecap="round"
    stroke-linejoin="round"
  />
  <path
    d="M27.0027 22.2784L27.7705 30.6979L34.4075 24.6833L39.1662 20.0014L32.5726 15.916L35.5036 8.73509L28.9052 7.74512L32.5726 15.916L24.3276 14.0447L27.0027 22.2784ZM27.0027 22.2784L32.5726 15.916L34.4075 24.6833"
    stroke="white"
    stroke-width="0.549996"
    stroke-linecap="round"
    stroke-linejoin="round"
  />
  <path
    d="M19.998 19.9978L38.2264 25.9207"
    stroke="white"
    stroke-width="0.549996"
    stroke-linecap="round"
    stroke-linejoin="round"
  />
  <path
    d="M19.998 27.3651L27.0021 22.2776"
    stroke="white"
    stroke-width="0.549996"
    stroke-linecap="round"
    stroke-linejoin="round"
  />
  <path
    d="M19.998 35.1565L27.7698 30.6992L31.2634 35.509"
    stroke="white"
    stroke-width="0.549996"
    stroke-linecap="round"
    stroke-linejoin="round"
  />
  <path
    d="M19.998 6.78056V0.833496"
    stroke="white"
    stroke-width="0.549996"
    stroke-linecap="round"
    stroke-linejoin="round"
  />
  <path
    d="M32.5713 15.9161L38.2257 14.0786"
    stroke="white"
    stroke-width="0.549996"
    stroke-linecap="round"
    stroke-linejoin="round"
  />
  <path
    d="M12.2303 30.6992L8.73438 35.509"
    stroke="white"
    stroke-width="0.549996"
    stroke-linecap="round"
    stroke-linejoin="round"
  />
  <path
    d="M7.42832 15.9161L1.77393 14.0786"
    stroke="white"
    stroke-width="0.549996"
    stroke-linecap="round"
    stroke-linejoin="round"
  />
</svg>
