<?xml version="1.0" encoding="UTF-8"?>
<svg id="Layer_1" data-name="Layer 1" xmlns="http://www.w3.org/2000/svg" xmlns:xlink="http://www.w3.org/1999/xlink" version="1.1" viewBox="0 0 1500 1500">
  <defs>
    <style>
      .cls-1 {
        fill: #000;
      }

      .cls-1, .cls-2 {
        stroke-width: 0px;
      }

      .cls-2 {
        fill: #f1bb15;
      }
    </style>
  </defs>
  <circle class="cls-2" cx="750" cy="750" r="750"/>
  <a xlink:href="100">
    <path id="logoMark" class="cls-1" d="M1135.3,739.9c-8.9,0-17.8-1.4-26.2-4.1l-1.1-.3c-.9-.3-1.9-.6-3.1-1-2.5-.9-5.2-2.1-8.3-3.8l-1-.5c-11.1-5.8-21.1-14.2-28.7-24.2-23.3-30.6-23.2-73.2.2-103.7,9.5-12.4,22.2-22,36.6-27.7l1.4-.6c4.4-1.8,7.5-2.8,10-3.2l2.7-.4c5.6-1.1,11.4-1.7,17.2-1.7,34.9,0,64.1-10.8,84.3-31.2,18.7-18.9,28.5-44.8,28.3-75.1v-107.5h-213.3v70.8c0,13.8,0,27.6,0,41.4,0,27.9-15.8,66-44.8,75.7-18.5,6.2-41.4-3-61-.8-16.1,1.9-31.8,7.4-45.5,16-27.6,17.4-46.2,47-49.8,79.4-1.4,12.5-.6,21.8,0,28.6.6,7.6.8,9.9-1.8,17.4-5.2,14.8-16.4,28.5-31.4,38.6-15,10.1-32.3,15.7-48.7,15.7h-1.6s-1.6,0-1.6,0c-16.4,0-33.7-5.6-48.7-15.7-15-10.1-26.2-23.9-31.4-38.6-2.7-7.6-2.5-9.9-1.8-17.4.6-6.8,1.3-16.1,0-28.6-3.6-32.4-22.2-62-49.8-79.4-13.7-8.7-29.4-14.2-45.5-16-19.6-2.3-42.5,7-61,.8-29-9.7-44.8-47.8-44.8-75.7,0-13.8,0-27.6,0-41.4v-70.8h-213.3v107.5c-.2,30.3,9.5,56.2,28.3,75.1,20.2,20.4,49.4,31.2,84.3,31.2s11.6.6,17.2,1.7l2.7.4c2.5.3,5.7,1.3,10,3.2l1.4.6c14.5,5.7,27.1,15.3,36.6,27.7,23.4,30.5,23.5,73.1.2,103.7-7.6,10-17.6,18.4-28.7,24.2l-1,.5c-3,1.7-5.8,2.9-8.3,3.8-1.1.4-2.1.7-3,1l-1.1.3c-8.4,2.7-17.2,4.1-26.2,4.1-67.6,0-113,41.5-113,103.4s22,73.3,40.5,85.8c22.5,15.3,49.7,19.6,75.8,22l1.8.2c6.9.9,12.7,2.3,19.4,4.7l3.2,1.2.6.2c17.5,6,32.2,18.2,41.4,34.4,5.2,9.2,8.7,21.2,10.1,33.8.5,5,.9,9.8,1.2,14.5.3,3.6.6,7.7.9,11.7v93.1h211.8v-109.6c0-28.2-10.7-55.5-30.7-75.4-.7-.7-1.4-1.4-2.2-2.1-1.6-1.5-3-2.7-4.2-3.7l-.7-.6c-23-19.9-52.8-20.4-74.6-20.8h-.2c-3.6,0-7.1-.1-10.1-.3l-3.3-.5-7-1.6-6.6-2-7.1-2.8c-7.5-3.4-14.4-7.8-20.6-13l-1.4-1.2c-19.7-17.6-29.5-39.4-29.9-66.4,0-19.3,6.2-37.7,17.9-53,11.4-15,27.5-26.1,45.3-31.3,18.1-5.3,51.8-5.5,68.1-.3,29.6,9.5,50.7,36.6,52.3,67.6.1,2.6,0,5.2,0,8.4-.3,9.1-.8,21.5,4.5,37.3,14.9,43.8,55.9,73.3,102.3,73.5,46.4-.2,87.5-29.8,102.3-73.5,5.3-15.7,4.8-28.2,4.5-37.3-.1-3.1-.2-5.8,0-8.4,1.7-31,22.7-58.2,52.3-67.6,16.3-5.2,50-5.1,68.1.3,17.9,5.3,34,16.4,45.3,31.3,11.7,15.3,17.8,33.7,17.9,53-.4,27.1-10.2,48.8-29.9,66.4l-1.4,1.2c-6.2,5.2-13.1,9.7-20.6,13l-7.1,2.8-6.6,2-7,1.6-3.3.5c-3,.1-6.5.2-10.1.3h-.2c-21.8.4-51.7.9-74.6,20.8l-.7.6c-1.2,1-2.6,2.3-4.2,3.7-.7.7-1.5,1.4-2.2,2.1-19.9,19.9-30.7,47.2-30.7,75.4v109.6h211.8v-93.1c.4-4.1.7-8.1.9-11.7.3-4.7.7-9.5,1.2-14.5,1.3-12.6,4.9-24.6,10.1-33.8,9.1-16.2,23.8-28.4,41.4-34.4l.6-.2,3.2-1.2c6.7-2.4,12.5-3.8,19.4-4.7l1.8-.2c26-2.4,53.2-6.7,75.8-22,18.5-12.5,40.5-37.6,40.5-85.8s-45.4-103.4-113.1-103.4h0,0Z"/>
  </a>
</svg>