<svg width="180" height="180" viewBox="0 0 180 180" fill="none" xmlns="http://www.w3.org/2000/svg">
<rect width="180" height="180" rx="90" fill="white"/>
<path d="M89.6937 26.918L34.667 55.9227V119.646L89.6937 153.039L145.806 119.383V55.9798L89.6937 26.918Z" fill="#FA6C00"/>
<path d="M144.937 56.4479L89.7279 85.7841L89.7051 152.879C89.7051 152.948 89.7851 152.993 89.8422 152.959L145.806 119.394V56.985C145.806 56.5393 145.326 56.2536 144.937 56.4594V56.4479Z" fill="#FF9A00"/>
<path d="M144.503 56.6084L89.7164 85.7846L35.4668 56.357C35.1125 56.1627 35.1011 55.6599 35.4554 55.4541L89.6935 26.918L144.526 55.2484C145.052 55.557 145.04 56.3227 144.503 56.6084Z" fill="#FF8200"/>
<path fill-rule="evenodd" clip-rule="evenodd" d="M91.6648 23.1124C90.419 22.4673 88.9364 22.4726 87.6954 23.1268L32.6687 52.1315C31.2619 52.873 30.3813 54.3325 30.3813 55.9228V119.646C30.3813 121.144 31.1632 122.533 32.4436 123.31L87.4703 156.703C88.8299 157.528 90.5344 157.533 91.8982 156.715L148.011 123.059C149.302 122.284 150.092 120.889 150.092 119.383V55.9799C150.092 54.3786 149.199 52.9108 147.777 52.1743L91.6648 23.1124ZM144.739 118.779V57.7718L143.871 58.2315V58.2231L90.7948 86.4254L90.7728 151.148L144.739 118.779ZM89.6978 28.122L36.9291 55.9365L89.721 84.5733L143.449 55.9609L89.6978 28.122ZM88.6608 86.426L35.7338 57.7158V119.046L88.6388 151.151L88.6608 86.426Z" fill="white"/>
<path d="M122.468 90.6759C123.195 90.2935 123.788 89.9394 124.414 89.646C124.882 89.4283 125.372 89.2333 125.874 89.1235C126.885 88.9001 127.886 89.3828 128.307 90.3256C128.513 90.7876 128.579 91.3177 128.668 91.8251C128.842 92.8019 129.111 92.9761 130.088 92.6827C130.472 92.5672 130.845 92.393 131.237 92.3154C132.523 92.0598 133.541 92.6562 133.912 93.8962C134.043 94.3317 134.117 94.8031 134.111 95.2574C134.054 99.3543 134.043 103.453 133.878 107.546C133.776 110.057 132.428 111.995 130.518 113.555C130.251 113.773 129.944 113.943 129.666 114.15C128.882 114.727 128.445 115.484 128.339 116.473C127.998 119.636 126.383 121.944 123.593 123.459C119.384 125.744 115.187 128.046 110.98 130.331C110.475 130.605 109.95 130.857 109.409 131.045C108.667 131.304 107.934 131.274 107.213 130.626C107.197 130.138 107.167 129.566 107.167 128.996C107.165 116.067 107.165 103.137 107.165 90.2083C106.616 87.9364 109.859 84.6612 111.857 84.256C113.276 83.9683 114.562 84.7331 114.802 86.1776C114.905 86.7986 114.889 87.4423 114.889 88.0765C114.889 89.5191 114.857 90.9618 114.853 92.4044C114.853 92.8057 114.882 93.2109 114.952 93.6066C115.013 93.9492 115.408 94.2105 115.743 94.1102C116.181 93.9814 116.612 93.811 117.016 93.599C118.801 92.6543 120.573 91.6887 122.468 90.6759ZM125.785 104.269C125.8 102.885 125.84 101.501 125.825 100.117C125.808 98.6065 125.355 98.3093 124.053 98.9946C121.552 100.308 119.081 101.677 116.591 103.01C115.355 103.673 114.766 104.653 114.766 106.085C114.766 109.776 114.683 113.466 114.653 117.158C114.64 118.691 115.069 118.979 116.391 118.279C118.835 116.984 121.241 115.613 123.691 114.326C125.062 113.604 125.711 112.571 125.684 110.998C125.649 108.866 125.739 106.732 125.785 104.269Z" fill="white"/>
</svg>
