<svg width="136" height="136" viewBox="0 0 136 136" fill="none" xmlns="http://www.w3.org/2000/svg">
<path d="M68 136C105.555 136 136 105.555 136 68C136 30.4446 105.555 0 68 0C30.4446 0 0 30.4446 0 68C0 105.555 30.4446 136 68 136Z" fill="#0008FF"/>
<path fill-rule="evenodd" clip-rule="evenodd" d="M40.9205 51.4981C40.655 50.7795 40.832 49.9724 41.3736 49.43L48.7476 42.056C49.2892 41.5144 50.0971 41.3374 50.8148 41.6021L66.5381 47.3783C66.9246 47.5203 67.1812 47.8882 67.1812 48.2998V51.7425C67.1812 52.0031 67.0781 52.2524 66.8938 52.4367L63.0663 56.2634C62.7959 56.5345 62.3924 56.623 62.0327 56.4899L57.8089 54.9326L53.1679 53.2202C52.7757 53.0748 52.3925 53.4573 52.5378 53.8503L55.8075 62.7151C55.9398 63.0747 55.8521 63.4783 55.581 63.7487L52.1781 67.1499C51.7949 67.5331 51.7949 68.1551 52.1781 68.5383L55.5988 71.959C55.87 72.2302 55.9585 72.6338 55.8254 72.9926L52.5557 81.8566C52.4103 82.2496 52.7927 82.632 53.1857 82.4867L62.0505 79.2162C62.4102 79.0838 62.8138 79.1723 63.0841 79.4427L66.893 83.2516C67.0773 83.4359 67.1804 83.6851 67.1804 83.9458V87.3892C67.1804 87.8001 66.9246 88.1679 66.539 88.31L50.8343 94.104C50.1158 94.3695 49.3079 94.1917 48.7663 93.6501L41.3914 86.2752C40.8499 85.7337 40.6729 84.9266 40.9384 84.2072L46.7121 68.5554C46.8737 68.1169 46.8737 67.6346 46.7121 67.1962L40.9205 51.4981Z" fill="white"/>
<path fill-rule="evenodd" clip-rule="evenodd" d="M95.082 84.2078C95.3475 84.9264 95.1705 85.7335 94.6289 86.2758L87.2548 93.6507C86.7133 94.1923 85.9062 94.3693 85.1876 94.1046L69.4643 88.3284C69.0779 88.1863 68.8213 87.8185 68.8213 87.4069V83.9642C68.8213 83.7036 68.9244 83.4543 69.1087 83.27L72.9362 79.4433C73.2066 79.1721 73.6101 79.0836 73.9698 79.2168L78.1936 80.7741L82.8346 82.4865C83.2268 82.6318 83.6092 82.2494 83.4647 81.8564L80.195 72.9916C80.0627 72.6319 80.1503 72.2284 80.4215 71.958L83.8244 68.5568C84.2076 68.1736 84.2076 67.5516 83.8244 67.1684L80.4037 63.7476C80.1325 63.4765 80.044 63.0729 80.1771 62.714L83.4468 53.85C83.5922 53.4571 83.2097 53.0746 82.8168 53.22L73.952 56.4905C73.5923 56.6228 73.1887 56.5343 72.9184 56.264L69.1095 52.4551C68.9252 52.2708 68.8221 52.0216 68.8221 51.7609V48.3175C68.8221 47.9066 69.0779 47.5388 69.4635 47.3967L85.1682 41.6027C85.8867 41.3372 86.6938 41.515 87.2362 42.0566L94.6103 49.4315C95.1526 49.973 95.3296 50.7801 95.0641 51.4995L89.2904 67.1513C89.128 67.5898 89.128 68.0721 89.2904 68.5105L95.0828 84.2111L95.082 84.2078Z" fill="white"/>
<path d="M105.78 70.4556H130.772C130.803 69.6382 130.824 68.8207 130.824 68.0003C130.824 67.18 130.803 66.3625 130.772 65.5451C130.165 49.6868 123.709 34.8626 112.423 23.5798C100.557 11.7135 84.7826 5.17957 68.0029 5.17957C51.2231 5.17957 35.4457 11.7135 23.5823 23.5798C11.7189 35.4461 5.1792 51.2177 5.1792 68.0003C5.1792 84.783 11.7132 100.558 23.5794 112.421C35.4457 124.287 51.2202 130.821 68 130.821C75.8771 130.821 83.5318 129.38 90.6666 126.627C98.7286 123.513 106.126 118.718 112.423 112.424C118.718 106.13 123.513 98.7319 126.627 90.6699H121.288C115.425 104.402 104.402 115.425 90.6666 121.289C83.7023 124.264 76.0389 125.911 68 125.911C36.89 125.911 11.4359 101.254 10.1447 70.4556H30.2232V65.5451H10.1447C11.4359 34.747 36.8929 10.0873 68.0029 10.0873C99.1128 10.0873 124.567 34.747 125.858 65.5422H105.78V70.4527V70.4556Z" fill="white"/>
</svg>
