<?xml version="1.0" encoding="UTF-8"?>
<svg
  xmlns="http://www.w3.org/2000/svg"
  version="1.1"
  width="800" 
  height="800"
  viewBox="-30 -30 840 840"
  preserveAspectRatio="xMidYMid meet"
>
  <defs>
    <style>
      .cls-1 {
        fill: #ce6533;
        fill-rule: evenodd;
      }
    </style>
  </defs>

  <path
    class="cls-1"
    d="M66.5,198.56
       c-3.27-8.85-1.09-18.79,5.58-25.47
       l90.82-90.82
       c6.67-6.67,16.62-8.85,25.46-5.59
       l193.65,71.14
       c4.76,1.75,7.92,6.28,7.92,11.35
       v42.4
       c0,3.21-1.27,6.28-3.54,8.55
       l-47.14,47.13
       c-3.33,3.34-8.3,4.43-12.73,2.79
       l-52.02-19.18
       l-57.16-21.09
       c-4.83-1.79-9.55,2.92-7.76,7.76
       l40.27,109.18
       c1.63,4.43,0.55,9.4-2.79,12.73
       l-41.91,41.89
       c-4.72,4.72-4.72,12.38,0,17.1
       l42.13,42.13
       c3.34,3.34,4.43,8.31,2.79,12.73
       l-40.27,109.17
       c-1.79,4.84,2.92,9.55,7.76,7.76
       l109.18-40.28
       c4.43-1.63,9.4-0.54,12.73,2.79
       l46.91,46.91
       c2.27,2.27,3.54,5.34,3.54,8.55
       v42.41
       c0,5.06-3.15,9.59-7.9,11.34
       l-193.42,71.36
       c-8.85,3.27-18.8,1.08-25.47-5.59
       l-90.83-90.83
       c-6.67-6.67-8.85-16.61-5.58-25.47
       l71.11-192.77
       c1.99-5.4,1.99-11.34,0-16.74
       l-71.34-193.37Z"
  />

  <path
    class="cls-1"
    d="M733.5,601.44
       c3.27,8.85,1.09,18.79-5.58,25.47
       l-90.82,90.83
       c-6.67,6.67-16.61,8.85-25.46,5.59
       l-193.65-71.14
       c-4.76-1.75-7.92-6.28-7.92-11.35
       v-42.4
       c0-3.21,1.27-6.28,3.54-8.55
       l47.14-47.13
       c3.33-3.34,8.3-4.43,12.73-2.79
       l52.02,19.18
       l57.16,21.09
       c4.83,1.79,9.54-2.92,7.76-7.76
       l-40.27-109.18
       c-1.63-4.43-0.55-9.4,2.79-12.73
       l41.91-41.89
       c4.72-4.72,4.72-12.38,0-17.1
       l-42.13-42.13
       c-3.34-3.34-4.43-8.31-2.79-12.73
       l40.27-109.17
       c1.79-4.84-2.92-9.55-7.76-7.76
       l-109.18,40.28
       c-4.43,1.63-9.4,0.54-12.73-2.79
       l-46.91-46.91
       c-2.27-2.27-3.54-5.34-3.54-8.55
       v-42.41
       c0-5.06,3.15-9.59,7.9-11.34
       l193.42-71.36
       c8.85-3.27,18.79-1.08,25.47,5.59
       l90.82,90.83
       c6.68,6.67,8.86,16.61,5.59,25.47
       l-71.11,192.77
       c-2,5.4-2,11.34,0,16.74
       l71.34,193.37Z"
  />
</svg>
