<svg width="260" height="260" viewBox="0 0 260 260" fill="none" xmlns="http://www.w3.org/2000/svg">
<path d="M130.001 0C58.2043 0 0 58.3596 0 130.348C0 197.759 51.0359 253.218 116.48 259.998V75.5471L59.0109 53.1043H116.478L129.999 45.2759L143.52 53.1043H200.987L143.52 75.5471V260C208.964 253.214 260 197.759 260 130.348C260.002 58.3596 201.799 0 130.001 0ZM92.5498 90.0239V222.385L65.5062 189.25V106.648L45.287 98.6666L39.5342 109.537L30.1587 65.3587L92.5498 90.0239ZM220.468 109.537L214.715 98.6666L194.496 106.648V189.25L167.454 222.385V90.0239L229.841 65.3587L220.468 109.537Z" fill="#FF671F"/>
</svg>
