<?xml version="1.0" standalone="no"?>
<!DOCTYPE svg PUBLIC "-//W3C//DTD SVG 20010904//EN"
 "http://www.w3.org/TR/2001/REC-SVG-20010904/DTD/svg10.dtd">
<svg version="1.0" xmlns="http://www.w3.org/2000/svg"
 width="768.000000pt" height="768.000000pt" viewBox="0 0 768.000000 768.000000"
 preserveAspectRatio="xMidYMid meet">

<g transform="translate(0.000000,768.000000) scale(0.100000,-0.100000)"
fill="#000000" stroke="none">
<path d="M3655 7434 c-671 -42 -1259 -237 -1805 -599 -218 -145 -348 -252
-550 -455 -203 -202 -311 -333 -455 -550 -235 -355 -380 -678 -489 -1090 -128
-483 -146 -1066 -50 -1575 69 -364 206 -744 379 -1057 81 -144 247 -392 351
-523 107 -134 404 -433 534 -537 472 -378 1013 -630 1595 -741 430 -83 918
-83 1350 -1 1009 193 1887 808 2417 1694 258 432 424 926 484 1445 37 317 20
742 -42 1070 -109 570 -364 1123 -730 1580 -114 142 -408 436 -549 549 -218
174 -511 356 -754 466 -359 163 -718 263 -1099 304 -142 16 -473 27 -587 20z
m372 -95 c365 -30 703 -113 1058 -259 94 -39 352 -169 394 -199 16 -12 32 -21
36 -21 19 0 285 -187 407 -287 119 -96 412 -392 493 -498 39 -49 73 -91 77
-93 5 -2 8 -9 8 -15 0 -6 8 -20 18 -31 43 -48 173 -250 233 -363 102 -189 159
-316 221 -493 40 -113 56 -165 102 -345 130 -500 126 -1141 -9 -1650 -15 -55
-31 -117 -36 -138 -9 -37 -47 -142 -75 -205 -8 -18 -14 -38 -14 -44 0 -13
-121 -291 -130 -298 -3 -3 -12 -21 -20 -40 -7 -19 -22 -47 -32 -62 -10 -14
-18 -29 -18 -32 0 -5 -83 -144 -128 -212 -13 -21 -86 -129 -94 -139 -45 -59
-122 -151 -129 -153 -5 -2 -9 -9 -9 -15 0 -12 -7 -20 -179 -198 -72 -75 -137
-143 -144 -151 -6 -8 -28 -25 -47 -38 -19 -13 -39 -28 -45 -35 -8 -9 -127
-106 -200 -163 -12 -9 -120 -82 -143 -97 -63 -40 -130 -81 -147 -91 -11 -6
-36 -20 -56 -31 -20 -12 -45 -26 -55 -32 -11 -6 -75 -37 -144 -69 -112 -53
-167 -76 -280 -117 -19 -7 -65 -25 -102 -39 -38 -14 -85 -30 -105 -35 -21 -5
-83 -22 -138 -36 -136 -36 -277 -61 -485 -86 -149 -18 -212 -20 -420 -15 -234
5 -459 26 -595 57 -364 82 -596 160 -840 281 -106 53 -226 117 -240 128 -5 4
-32 20 -60 35 -27 16 -52 31 -55 34 -3 3 -12 11 -21 16 -9 6 -45 30 -79 55
-34 25 -70 50 -79 55 -9 6 -18 12 -21 15 -3 3 -45 37 -95 75 -105 81 -403 375
-496 490 -112 138 -289 390 -289 410 0 4 -9 20 -21 36 -30 42 -160 300 -199
394 -91 221 -136 365 -194 615 -45 194 -76 484 -76 713 0 222 28 526 59 647 5
19 15 62 21 95 35 189 164 564 250 734 16 31 36 72 45 91 18 40 57 113 66 120
3 3 20 32 38 65 67 120 196 307 261 379 19 21 34 42 32 47 -1 5 2 9 7 9 4 0
30 28 57 62 71 90 77 96 69 78 -3 -8 0 -7 7 3 7 11 28 34 47 52 18 18 39 38
45 44 20 21 41 40 61 57 11 8 13 13 5 9 -20 -9 32 38 104 95 32 25 71 58 89
73 74 67 279 212 382 272 113 66 135 78 246 133 311 154 582 245 909 306 281
52 614 69 897 45z"/>
</g>
</svg>
