<svg width="400" height="400" viewBox="0 0 400 400" fill="none" xmlns="http://www.w3.org/2000/svg">
<g clip-path="url(#clip0_823_14)">
<path d="M64.9743 282.275C67.3882 279.861 70.7073 278.453 74.2275 278.453H393.463C399.297 278.453 402.213 285.494 398.09 289.617L335.027 352.68C332.613 355.094 329.294 356.502 325.774 356.502H6.53833C0.704792 356.502 -2.21198 349.461 1.91173 345.338L64.9743 282.275Z" fill="url(#paint0_linear_823_14)"/>
<path d="M64.9743 46.822C67.4888 44.4081 70.8079 43 74.2275 43H393.463C399.297 43 402.213 50.0405 398.09 54.1642L335.027 117.227C332.613 119.641 329.294 121.049 325.774 121.049H6.53833C0.704792 121.049 -2.21198 114.008 1.91173 109.885L64.9743 46.822Z" fill="url(#paint1_linear_823_14)"/>
<path d="M335.027 163.795C332.613 161.381 329.294 159.973 325.774 159.973H6.53833C0.704792 159.973 -2.21198 167.013 1.91173 171.137L64.9743 234.199C67.3882 236.613 70.7073 238.021 74.2275 238.021H393.463C399.297 238.021 402.213 230.981 398.09 226.857L335.027 163.795Z" fill="url(#paint2_linear_823_14)"/>
</g>
<defs>
<linearGradient id="paint0_linear_823_14" x1="362.967" y1="5.32731" x2="142.03" y2="428.51" gradientUnits="userSpaceOnUse">
<stop stop-color="#00FFA3"/>
<stop offset="1" stop-color="#DC1FFF"/>
</linearGradient>
<linearGradient id="paint1_linear_823_14" x1="266.361" y1="-45.108" x2="45.4249" y2="378.074" gradientUnits="userSpaceOnUse">
<stop stop-color="#00FFA3"/>
<stop offset="1" stop-color="#DC1FFF"/>
</linearGradient>
<linearGradient id="paint2_linear_823_14" x1="314.357" y1="-20.0505" x2="93.4201" y2="403.132" gradientUnits="userSpaceOnUse">
<stop stop-color="#00FFA3"/>
<stop offset="1" stop-color="#DC1FFF"/>
</linearGradient>
<clipPath id="clip0_823_14">
<rect width="400" height="313.503" fill="white" transform="translate(0 43)"/>
</clipPath>
</defs>
</svg>
