<svg xmlns="http://www.w3.org/2000/svg" xmlns:xlink="http://www.w3.org/1999/xlink" width="500" zoomAndPan="magnify" viewBox="0 0 375 374.999991" height="500" preserveAspectRatio="xMidYMid meet" version="1.0"><defs><g/><clipPath id="40d6b838a5"><path d="M 4.613281 4.613281 L 368.277344 4.613281 L 368.277344 368.277344 L 4.613281 368.277344 Z M 4.613281 4.613281 " clip-rule="nonzero"/></clipPath><clipPath id="f02a10fe1f"><path d="M 186.445312 4.613281 C 86.019531 4.613281 4.613281 86.019531 4.613281 186.445312 C 4.613281 286.867188 86.019531 368.277344 186.445312 368.277344 C 286.867188 368.277344 368.277344 286.867188 368.277344 186.445312 C 368.277344 86.019531 286.867188 4.613281 186.445312 4.613281 Z M 186.445312 4.613281 " clip-rule="nonzero"/></clipPath></defs><g clip-path="url(#40d6b838a5)"><g clip-path="url(#f02a10fe1f)"><path fill="#ffffff" d="M 4.613281 4.613281 L 368.277344 4.613281 L 368.277344 368.277344 L 4.613281 368.277344 Z M 4.613281 4.613281 " fill-opacity="1" fill-rule="nonzero"/></g></g><g fill="#000000" fill-opacity="1"><g transform="translate(-0.749995, 219.574825)"><g><path d="M 28.21875 24.890625 C 23.4375 17.023438 19.757812 7.984375 17.1875 -2.234375 C 14.625 -12.460938 13.34375 -23.4375 13.34375 -35.15625 C 13.34375 -46.875 14.625 -57.882812 17.1875 -68.1875 C 19.757812 -78.5 23.4375 -87.503906 28.21875 -95.203125 L 36.953125 -95.203125 C 31.898438 -86.554688 28.195312 -77.269531 25.84375 -67.34375 C 23.5 -57.425781 22.328125 -46.695312 22.328125 -35.15625 C 22.328125 -23.601562 23.5 -12.863281 25.84375 -2.9375 C 28.195312 6.976562 31.898438 16.253906 36.953125 24.890625 Z M 28.21875 24.890625 "/></g></g></g><g fill="#000000" fill-opacity="1"><g transform="translate(41.460554, 219.574825)"><g><path d="M 12.84375 -39.40625 L 12.84375 -12.71875 L 6.390625 -12.71875 L 6.390625 -45.796875 L 66.09375 -45.796875 L 66.09375 -39.40625 Z M 12.84375 -39.40625 "/></g></g></g><g fill="#000000" fill-opacity="1"><g transform="translate(113.816881, 219.574825)"><g><path d="M 13.59375 -58.890625 L 63.375 -58.890625 L 63.375 -9.109375 L 13.59375 -9.109375 Z M 13.59375 -58.890625 "/></g></g></g><g fill="#000000" fill-opacity="1"><g transform="translate(190.796666, 219.574825)"><g><path d="M 0 0 L 64.140625 0 L 64.140625 6.15625 L 0 6.15625 Z M 0 0 "/></g></g></g><g fill="#000000" fill-opacity="1"><g transform="translate(254.946467, 219.574825)"><g><path d="M 13.59375 -58.890625 L 63.375 -58.890625 L 63.375 -9.109375 L 13.59375 -9.109375 Z M 13.59375 -58.890625 "/></g></g></g><g fill="#000000" fill-opacity="1"><g transform="translate(331.926253, 219.574825)"><g><path d="M 5.125 24.890625 C 10.175781 16.253906 13.898438 7 16.296875 -2.875 C 18.691406 -12.757812 19.890625 -23.519531 19.890625 -35.15625 C 19.890625 -46.789062 18.691406 -57.546875 16.296875 -67.421875 C 13.898438 -77.296875 10.175781 -86.554688 5.125 -95.203125 L 13.859375 -95.203125 C 18.648438 -87.503906 22.347656 -78.5 24.953125 -68.1875 C 27.554688 -57.882812 28.859375 -46.875 28.859375 -35.15625 C 28.859375 -23.4375 27.578125 -12.441406 25.015625 -2.171875 C 22.453125 8.085938 18.734375 17.109375 13.859375 24.890625 Z M 5.125 24.890625 "/></g></g></g></svg>