<svg width="240" height="241" viewBox="0 0 240 241" fill="none" xmlns="http://www.w3.org/2000/svg">
<mask id="mask0_3317_4516" style="mask-type:alpha" maskUnits="userSpaceOnUse" x="5" y="7" width="230" height="230">
<path d="M120 237C183.513 237 235 185.513 235 122C235 58.4873 183.513 7 120 7C56.4873 7 5 58.4873 5 122C5 185.513 56.4873 237 120 237Z" fill="#D9D9D9"/>
</mask>
<g mask="url(#mask0_3317_4516)">
<path d="M235 2H-5V242H235V2Z" fill="#E50571"/>
</g>
<path d="M66.2163 75.543C67.0981 74.4347 68.0325 73.3682 68.9668 72.3018C69.0087 72.2489 69.1035 72.2383 69.1454 72.1854C69.2296 72.0799 69.3662 72.0164 69.45 71.9106L69.5341 71.8052C70.1856 71.2031 70.8785 70.5478 71.6776 69.9769C74.5049 67.8306 77.4389 66.2001 80.5328 65.1273C90.4561 61.6433 101.502 63.7903 110.165 71.9681C122.26 83.3058 121.177 101.57 111.521 113.71C99.3205 131.807 78.3527 157.056 107.384 179.673C112.604 183.74 116.477 187.093 132.919 191.845C122.165 193.826 112.194 193.21 101.095 190.375C93.245 185.944 80.9023 176.456 76.703 163.642C70.3563 144.21 87.877 115.16 96.3445 103.972C107.97 88.4877 89.1589 71.7256 75.3096 90.4388C68.0705 100.191 55.4055 127.788 59.8068 148.258C62.3802 159.866 65.8102 168.327 79.4103 179.951C76.8883 178.463 74.4392 176.775 72.0635 174.886C40.4646 145.451 44.1306 99.94 66.2163 75.543Z" fill="white"/>
<path d="M173.784 168.457C172.902 169.566 171.967 170.632 171.033 171.698C170.991 171.751 170.896 171.762 170.854 171.815C170.77 171.92 170.634 171.984 170.55 172.09L170.466 172.195C169.814 172.797 169.121 173.452 168.322 174.023C165.495 176.17 162.561 177.8 159.467 178.873C149.544 182.357 138.498 180.21 129.835 172.032C117.74 160.694 118.823 142.43 128.478 130.29C140.679 112.193 161.647 86.9445 132.616 64.3267C127.396 60.2599 123.523 56.9069 107.081 52.1552C117.834 50.1741 127.806 50.7904 138.904 53.6252C146.755 58.0564 159.098 67.5441 163.297 80.3586C169.644 99.7906 152.123 128.84 143.655 140.028C132.03 155.513 150.841 172.275 164.69 153.561C171.929 143.809 184.594 116.213 180.193 95.7425C177.62 84.1344 174.19 75.6729 160.59 64.0495C163.112 65.5376 165.561 67.2257 167.936 69.1143C199.535 98.5488 195.869 144.06 173.784 168.457Z" fill="white"/>
</svg>
