<svg width="500" height="500" viewBox="0 0 500 500" fill="none" xmlns="http://www.w3.org/2000/svg">
<mask id="mask0_207_404" style="mask-type:alpha" maskUnits="userSpaceOnUse" x="0" y="0" width="500" height="500">
<path d="M250 500C388.071 500 500 388.071 500 250C500 111.929 388.071 0 250 0C111.929 0 0 111.929 0 250C0 388.071 111.929 500 250 500Z" fill="#D9D9D9"/>
</mask>
<g mask="url(#mask0_207_404)">
<path d="M500 0H0V500H500V0Z" fill="#E50571"/>
<path d="M372.87 125.957C340.035 93.087 296.418 75 250.018 75C154.191 75 76.2432 153.017 76.2432 248.913C76.2432 344.809 154.191 422.826 250.018 422.826C296.418 422.826 340.07 404.739 372.87 371.87C405.704 339 423.757 295.348 423.757 248.913C423.757 202.478 405.704 158.791 372.87 125.957ZM250.018 410.791C160.834 410.791 88.2779 338.165 88.2779 248.913C88.2779 159.661 160.834 87.0348 250.018 87.0348C339.2 87.0348 411.757 159.661 411.757 248.913C411.757 338.165 339.2 410.791 250.018 410.791Z" fill="white"/>
<path d="M307.063 253.033C295.933 243.085 281.359 236.442 267.237 230.007L267.133 229.972C242.228 218.598 220.696 208.755 222.228 185.484C222.889 176.615 229.322 171.258 234.609 168.371C240.557 165.102 248.452 163.154 255.759 163.154C256.628 163.154 257.498 163.189 258.333 163.223C279.585 164.65 296.35 173.658 312.733 192.371L313.707 193.519L314.854 192.545L321.254 186.98L322.402 185.971L321.394 184.823C303.133 163.884 283.307 153.345 259.063 151.71C258.02 151.606 256.904 151.571 255.687 151.571C254.957 151.571 254.159 151.571 253.324 151.606H252.28C236.385 151.606 218.957 156.823 205.706 165.588C189.88 176.058 181.01 190.458 180.767 206.144C180.14 244.302 211.341 257.137 238.854 268.511L238.924 268.546L239.202 268.65C263.55 278.737 284.559 287.433 284.107 310.737C283.898 326.111 261.915 334.598 246.82 334.598H246.191H244.698V334.633C222.194 333.972 202.088 324.268 184.94 305.868L183.897 304.755L182.784 305.763L176.558 311.537L175.445 312.581L176.488 313.694C195.966 334.668 220 345.937 246.017 346.25H247.202C264.002 346.25 282.263 341.728 296.037 334.111C313.289 324.685 323.341 310.946 324.385 295.433C325.567 278.389 319.898 264.511 307.063 253.033ZM226.298 219.848C236.211 228.337 249.637 234.424 262.611 240.302L262.854 240.405C276.591 246.735 289.602 252.72 299.028 261.033C309.463 270.215 313.88 280.859 312.939 294.528C312.07 308.059 302.02 317.102 292.872 322.563C294.646 318.946 295.62 315.015 295.722 310.841C295.933 296.789 290.541 285.555 279.2 276.441C269.289 268.476 256.141 263.085 243.411 257.833C216.941 246.946 191.932 236.65 192.384 206.25C192.523 194.562 199.549 183.501 212.176 175.119C212.594 174.841 213.011 174.562 213.463 174.284C211.967 177.554 211.133 180.963 210.924 184.545C209.915 198.632 214.959 210.181 226.298 219.848Z" fill="white"/>
</g>
</svg>
