<svg width="240" height="241" viewBox="0 0 240 241" fill="none" xmlns="http://www.w3.org/2000/svg">
<rect width="240" height="240" transform="translate(0 0.5)" fill="#E50571"/>
<path d="M122.645 180.073C108.314 180.073 96.5686 176.89 87.4082 170.523C78.9955 164.676 73.6359 156.527 71.3294 146.077C70.9771 144.48 71.9715 142.924 73.516 142.514L93.3439 137.252C95.0549 136.799 96.7715 137.918 97.2494 139.664C98.2858 143.452 99.7331 146.539 101.592 148.922C104.103 151.954 107.132 154.152 110.678 155.516C114.372 156.729 118.361 157.335 122.645 157.335C129.146 157.335 133.948 156.198 137.051 153.924C140.153 151.499 141.705 148.543 141.705 145.057C141.705 141.571 140.227 138.918 137.272 137.098C134.317 135.128 129.589 133.536 123.089 132.323L116.884 131.187C109.2 129.671 102.183 127.624 95.8299 125.048C89.4765 122.319 84.3795 118.605 80.5382 113.906C76.697 109.207 74.7763 103.143 74.7763 95.7159C74.7763 84.4983 78.7653 75.9339 86.7433 70.0217C94.7219 63.9584 105.211 60.9268 118.213 60.9268C130.476 60.9268 140.67 63.731 148.796 69.3395C156.029 74.3318 161.038 80.7047 163.822 88.4587C164.401 90.0695 163.475 91.7987 161.876 92.3036L142.046 98.5639C140.316 99.1102 138.524 98.0019 137.937 96.2447C136.588 92.2109 134.445 89.23 131.51 87.3026C127.964 84.8772 123.532 83.6646 118.213 83.6646C112.894 83.6646 108.831 84.6499 106.024 86.6204C103.217 88.4394 101.813 91.0163 101.813 94.3517C101.813 97.9896 103.291 100.718 106.246 102.537C109.2 104.204 113.189 105.493 118.213 106.402L124.418 107.539C132.692 109.055 140.153 111.101 146.802 113.678C153.598 116.104 158.917 119.666 162.758 124.365C166.747 128.913 168.742 135.128 168.742 143.011C168.742 154.834 164.531 164.005 156.109 170.523C147.836 176.89 136.681 180.073 122.645 180.073Z" fill="white"/>
</svg>
