<svg width="240" height="241" viewBox="0 0 240 241" fill="none" xmlns="http://www.w3.org/2000/svg">
<rect width="240" height="240" transform="translate(0 0.5)" fill="#E50571"/>
<path d="M120.001 48.333C111.073 48.333 103.833 80.7177 103.833 120.667C103.833 160.615 111.073 193 120.001 193C128.93 193 136.17 160.615 136.17 120.667C136.17 80.7177 128.93 48.333 120.001 48.333ZM121.118 188.918C120.097 190.28 119.076 189.258 119.076 189.258C114.964 184.494 112.908 175.643 112.908 175.643C105.715 152.496 107.427 102.799 107.427 102.799C110.807 63.3442 116.956 54.0238 119.049 51.9546C119.262 51.7434 119.544 51.6144 119.843 51.5902C120.142 51.566 120.441 51.6482 120.686 51.8223C123.722 53.9735 126.268 62.9703 126.268 62.9703C133.787 90.8824 133.106 117.093 133.106 117.093C133.787 139.899 129.338 165.428 129.338 165.428C125.914 184.83 121.118 188.918 121.118 188.918Z" fill="white"/>
<path d="M182.743 84.6675C178.297 76.92 146.607 86.7572 111.938 106.637C77.27 126.516 52.8154 148.913 57.2575 156.658C61.6997 164.402 93.3936 154.568 128.062 134.688C162.73 114.809 187.185 92.4116 182.743 84.6675V84.6675ZM61.3589 155.595C59.6569 155.381 60.0414 153.982 60.0414 153.982C62.1291 148.045 68.7728 141.857 68.7728 141.857C85.2782 124.099 129.24 100.853 129.24 100.853C165.141 84.15 176.293 84.8548 179.122 85.6336C179.412 85.7147 179.664 85.8959 179.834 86.1451C180.004 86.3944 180.079 86.6956 180.048 86.9954C179.708 90.7011 173.155 97.3845 173.155 97.3845C152.7 117.805 129.625 130.26 129.625 130.26C110.181 142.204 85.8234 151.044 85.8234 151.044C67.2893 157.722 61.3596 155.595 61.3596 155.595H61.3589Z" fill="white"/>
<path d="M182.586 156.918C187.066 149.191 162.673 126.692 128.126 106.663C93.5798 86.6335 61.8932 76.6746 57.4173 84.4147C52.9414 92.1549 77.3305 114.642 111.897 134.671C146.463 154.7 178.11 164.659 182.586 156.918ZM60.3858 87.4004C59.724 85.8315 61.1209 85.4536 61.1209 85.4536C67.3054 84.2857 75.9925 86.9471 75.9925 86.9471C99.6259 92.3289 141.768 118.726 141.768 118.726C174.214 141.431 179.19 151.431 179.936 154.27C180.012 154.561 179.982 154.87 179.853 155.141C179.723 155.413 179.502 155.63 179.228 155.754C175.844 157.303 166.783 154.995 166.783 154.995C138.854 147.507 116.517 133.786 116.517 133.786C96.4477 122.961 76.6026 106.306 76.6026 106.306C61.5233 93.6094 60.3904 87.4176 60.3904 87.4176L60.3858 87.4004Z" fill="white"/>
<path d="M119.832 129.004C124.531 129.004 128.341 125.194 128.341 120.494C128.341 115.794 124.531 111.984 119.832 111.984C115.132 111.984 111.322 115.794 111.322 120.494C111.322 125.194 115.132 129.004 119.832 129.004Z" fill="white"/>
<path d="M154.721 92.9217C157.447 92.9217 159.657 90.6357 159.657 87.8158C159.657 84.9959 157.447 82.71 154.721 82.71C151.995 82.71 149.786 84.9959 149.786 87.8158C149.786 90.6357 151.995 92.9217 154.721 92.9217Z" fill="white"/>
<path d="M73.7082 110.281C76.4342 110.281 78.644 107.995 78.644 105.175C78.644 102.355 76.4342 100.069 73.7082 100.069C70.9823 100.069 68.7725 102.355 68.7725 105.175C68.7725 107.995 70.9823 110.281 73.7082 110.281Z" fill="white"/>
<path d="M109.79 172.914C112.516 172.914 114.726 170.628 114.726 167.808C114.726 164.988 112.516 162.702 109.79 162.702C107.064 162.702 104.854 164.988 104.854 167.808C104.854 170.628 107.064 172.914 109.79 172.914Z" fill="white"/>
</svg>
