<svg width="240" height="240" viewBox="0 0 240 240" fill="none" xmlns="http://www.w3.org/2000/svg">
<rect width="240" height="240" rx="120" fill="#E50571"/>
<path fill-rule="evenodd" clip-rule="evenodd" d="M161.851 93.5127C161.851 81.1421 151.977 71.0793 139.838 71.0793H97.6313L141.494 115.778C152.848 114.897 161.851 105.305 161.851 93.5127ZM92.047 118.571V170.254H141.217C142.057 170.254 142.886 170.208 143.702 170.116L92.047 118.571ZM171.797 147.423C171.797 157.847 166.688 167.093 158.853 172.775L180 194L167.349 193.928L150.548 177.066C147.438 178.114 144.111 178.682 140.653 178.682H82.8123V96.4573L152.45 166.35C158.722 162.396 162.901 155.39 162.901 147.423C162.901 135.11 152.922 125.095 140.653 125.095H138.812L61.3333 47.3333H73.9123L89.1023 62.5784H140.653C157.825 62.5784 171.797 76.6004 171.797 93.8352C171.797 105.202 165.701 115.14 156.639 120.612C165.711 126.082 171.797 136.051 171.797 147.423Z" fill="white"/>
</svg>
