<svg width="240" height="241" viewBox="0 0 240 241" fill="none" xmlns="http://www.w3.org/2000/svg">
<mask id="mask0_3318_4533" style="mask-type:alpha" maskUnits="userSpaceOnUse" x="5" y="7" width="230" height="230">
<path d="M120 237C183.513 237 235 185.513 235 122C235 58.4873 183.513 7 120 7C56.4873 7 5 58.4873 5 122C5 185.513 56.4873 237 120 237Z" fill="#D9D9D9"/>
</mask>
<g mask="url(#mask0_3318_4533)">
<path d="M235 2H-5V242H235V2Z" fill="#E50571"/>
</g>
<path d="M172.308 143.987H98.1902V103.903H86.7874V149.512C86.7874 152.546 89.3585 155.038 92.4888 155.038H157.44L144.025 166.738H72.0309V100.436H86.6755H98.0784H146.149C147.602 100.436 148.944 99.8944 149.95 99.0278L176.109 76.2771C177.898 74.7604 178.457 72.2687 177.674 70.2103C176.78 68.0435 174.656 66.6352 172.308 66.6352H92.4888C89.3585 66.6352 86.7874 69.1269 86.7874 72.1603V85.919H98.1902V77.6855H157.44L144.025 89.3859H98.1902H86.7874H66.3295C63.1993 89.3859 60.6281 91.8774 60.6281 94.9111V172.263C60.6281 175.296 63.1993 177.788 66.3295 177.788H146.149C147.602 177.788 148.944 177.247 149.95 176.38L176.109 153.629C177.898 152.112 178.457 149.621 177.674 147.563C176.78 145.396 174.656 143.987 172.308 143.987Z" fill="white"/>
</svg>
