<svg width="240" height="240" viewBox="0 0 240 240" fill="none" xmlns="http://www.w3.org/2000/svg">
<rect width="240" height="240" rx="120" fill="#E50571"/>
<path d="M53.5157 138.096C50.193 134.772 47.9646 130.935 46.8307 126.583C45.7231 122.204 45.7231 117.826 46.8307 113.447C47.9646 109.043 50.1798 105.192 53.4762 101.895C56.8252 98.5448 60.6886 96.316 65.0662 95.2082C69.4437 94.1004 73.8213 94.1004 78.1989 95.2082C82.5765 96.316 86.4267 98.5316 89.7494 101.855L97.9771 110.084L110.16 97.8986L101.933 89.6692C98.6099 86.3458 96.3816 82.508 95.2476 78.156C94.14 73.7776 94.1269 69.4123 95.2082 65.0602C96.3157 60.6817 98.5441 56.8176 101.893 53.4679C105.216 50.1445 109.066 47.9289 113.444 46.8211C117.821 45.7133 122.186 45.7264 126.537 46.8606C130.914 47.9684 134.765 50.1841 138.088 53.5075C141.41 56.8308 143.625 60.6817 144.733 65.0602C145.867 69.4123 145.88 73.7776 144.772 78.156C143.691 82.5608 141.489 86.4249 138.166 89.7483L129.978 97.9381L142.122 110.084L150.31 101.895C153.633 98.5712 157.47 96.3424 161.821 95.2082C166.199 94.1004 170.563 94.1135 174.914 95.2477C179.292 96.3555 183.155 98.5844 186.504 101.934C189.827 105.258 192.042 109.108 193.15 113.487C194.283 117.839 194.283 122.191 193.15 126.543C192.042 130.921 189.827 134.772 186.504 138.096C183.155 141.445 179.292 143.674 174.914 144.782C170.563 145.864 166.199 145.85 161.821 144.742C157.496 143.635 153.673 141.419 150.35 138.096L142.161 129.906L129.978 142.092L138.166 150.282C141.489 153.605 143.691 157.443 144.772 161.795C145.88 166.173 145.88 170.552 144.772 174.93C143.665 179.308 141.437 183.173 138.088 186.523C134.791 189.82 130.941 192.035 126.537 193.169C122.159 194.277 117.782 194.277 113.404 193.169C109.079 192.062 105.255 189.846 101.933 186.523C98.5835 183.173 96.3421 179.322 95.2082 174.97C94.1006 170.592 94.1006 166.213 95.2082 161.835C96.3685 157.456 98.5968 153.618 101.893 150.321L110.16 142.052L98.0167 129.906L89.7494 138.175C86.453 141.472 82.5896 143.674 78.1593 144.782C73.7817 145.89 69.4042 145.89 65.0266 144.782C60.6755 143.648 56.8385 141.419 53.5157 138.096ZM63.4048 128.205C64.9079 129.708 66.6484 130.71 68.6262 131.212C70.6304 131.739 72.6214 131.753 74.5993 131.251C76.5771 130.75 78.3176 129.748 79.8207 128.245L88.088 119.975L79.8602 111.746C78.3571 110.243 76.6034 109.254 74.5993 108.779C72.6214 108.278 70.6436 108.278 68.6658 108.779C66.688 109.28 64.9343 110.295 63.4048 111.825C61.9016 113.329 60.8864 115.056 60.359 117.008C59.8579 118.986 59.8579 120.965 60.359 122.943C60.8864 124.948 61.9017 126.702 63.4048 128.205ZM111.822 79.7781L120.049 88.0075L128.238 79.8177C129.767 78.2879 130.77 76.547 131.244 74.5952C131.745 72.617 131.732 70.6256 131.205 68.621C130.703 66.6428 129.701 64.902 128.198 63.3985C126.695 61.8951 124.955 60.8927 122.977 60.3916C120.999 59.8905 119.021 59.8905 117.043 60.3916C115.092 60.8664 113.351 61.8686 111.822 63.3985C110.319 64.902 109.29 66.6428 108.737 68.621C108.235 70.5992 108.235 72.5774 108.737 74.5556C109.29 76.5338 110.319 78.2747 111.822 79.7781ZM149.734 120.015L157.922 128.205C159.425 129.708 161.153 130.724 163.104 131.251C165.082 131.753 169.363 131.739 171.315 131.212C173.292 130.71 175.046 129.695 176.576 128.165C178.105 126.635 179.107 124.894 179.582 122.943C180.11 120.991 180.123 119.026 179.621 117.048C179.121 115.07 178.119 113.329 176.615 111.825C175.086 110.295 173.332 109.28 171.354 108.779C169.376 108.278 165.082 108.278 163.104 108.779C161.179 109.28 159.451 110.295 157.922 111.825L149.734 120.015ZM111.822 176.632C113.325 178.135 115.066 179.137 117.043 179.638C119.021 180.14 120.986 180.126 122.937 179.599C124.915 179.097 126.656 178.095 128.158 176.592C129.688 175.062 130.703 173.308 131.205 171.33C131.732 169.378 131.745 167.413 131.244 165.435C130.77 163.43 129.78 161.676 128.277 160.173L120.089 151.983L111.822 160.252C110.319 161.755 109.304 163.483 108.776 165.435C108.275 167.413 108.275 169.391 108.776 171.37C109.277 173.348 110.293 175.102 111.822 176.632ZM107.905 120.015L120.049 132.161L132.233 119.975L120.089 107.829L107.905 120.015Z" fill="white"/>
</svg>
