<svg width="230" height="230" viewBox="0 0 230 230" fill="none" xmlns="http://www.w3.org/2000/svg">
<g clip-path="url(#clip0_3294_4425)">
<mask id="mask0_3294_4425" style="mask-type:alpha" maskUnits="userSpaceOnUse" x="0" y="0" width="230" height="230">
<path d="M115 230C178.513 230 230 178.513 230 115C230 51.4873 178.513 0 115 0C51.4873 0 0 51.4873 0 115C0 178.513 51.4873 230 115 230Z" fill="#D9D9D9"/>
</mask>
<g mask="url(#mask0_3294_4425)">
<path d="M234 -5H-6V235H234V-5Z" fill="#E50571"/>
<path d="M98.4049 67.4005C70.2342 78.3106 67.6537 106.251 59.576 119.3C51.4027 132.504 32.6778 139.79 35.2385 146.519C37.7989 153.247 56.546 146.02 71.3777 150.313C86.0336 154.556 106.483 173.58 134.653 162.669C149.004 157.112 159.396 145.672 164.174 132.123C164.688 130.669 163.727 129.113 162.203 128.969C161.256 128.88 160.346 129.38 159.918 130.238C155.596 138.923 148.181 146.076 138.477 149.833C122.458 156.038 104.93 151.166 94.1647 138.95C91.7198 136.176 89.6286 133.018 87.9779 129.528C87.5241 128.567 87.0925 127.591 86.7099 126.581C86.325 125.572 85.998 124.554 85.6976 123.533C94.1647 119.552 103.935 115.334 115.012 111.045C125.872 106.839 135.757 103.428 144.557 100.699C150.511 98.8536 155.967 97.3185 160.894 96.0638C161.251 95.974 161.603 95.8844 161.951 95.7968C162.697 95.6105 163.462 96.0123 163.738 96.7349L163.743 96.7484C163.906 97.1771 164.046 97.608 164.195 98.0389C165.17 100.82 165.901 103.63 166.383 106.446C166.595 107.679 167.93 108.35 169.024 107.757C173.068 105.567 176.767 103.43 180.073 101.374C192.392 93.7207 199.221 87.2299 197.819 83.5513C196.421 79.8704 187.041 79.6595 172.811 82.2854C168.287 83.1204 163.274 84.2425 157.87 85.6319C156.936 85.872 155.99 86.1211 155.033 86.377C150.485 87.5935 145.69 88.9872 140.696 90.5472C131.407 93.4491 121.443 96.9257 111.156 100.91C101.533 104.637 92.4116 108.503 84.0469 112.354C83.9448 96.0078 93.7397 80.5549 109.759 74.3514C119.461 70.5942 129.716 70.9018 138.691 74.4413C139.577 74.7913 140.584 74.5489 141.231 73.842C142.268 72.7085 141.95 70.904 140.604 70.1678C128.065 63.3292 112.756 61.8434 98.4049 67.4005Z" fill="white"/>
</g>
</g>
<defs>
<clipPath id="clip0_3294_4425">
<rect width="230" height="230" fill="white"/>
</clipPath>
</defs>
</svg>
