<svg width="240" height="240" viewBox="0 0 240 240" fill="none" xmlns="http://www.w3.org/2000/svg">
<rect width="240" height="240" rx="120" fill="#E50571"/>
<path fill-rule="evenodd" clip-rule="evenodd" d="M120.25 34C144.067 34 165.63 43.6551 181.238 59.2639C196.66 74.6866 206.269 95.9275 206.496 119.407V119.455L206.498 119.775L206.5 120.25L206.493 121.045V121.098C206.269 144.577 196.66 165.813 181.235 181.238C165.63 196.846 144.069 206.5 120.25 206.5C96.4328 206.5 74.8699 196.846 59.2622 181.236C43.6546 165.627 34 144.063 34 120.245C34 96.4281 43.6546 74.866 59.2622 59.2594C74.8699 43.6506 96.4328 34 120.25 34ZM169.823 83.5712C173.092 83.5712 176.265 84.0025 179.285 84.8035C170.391 76.1706 158.26 70.8561 144.887 70.8561C131.246 70.8561 118.897 76.3831 109.961 85.3223C101.023 94.2597 95.4944 106.611 95.4944 120.25C95.4944 133.889 101.023 146.24 109.961 155.176C118.899 164.115 131.249 169.642 144.887 169.642C158.26 169.642 170.393 164.325 179.285 155.694C176.267 156.498 173.097 156.927 169.827 156.927C159.701 156.927 150.529 152.821 143.895 146.184C137.257 139.547 133.152 130.376 133.152 120.248C133.152 110.12 137.257 100.949 143.895 94.3122C150.525 87.6797 159.693 83.5712 169.823 83.5712ZM187.113 102.958C182.687 98.5347 176.576 95.7963 169.82 95.7963C163.067 95.7963 156.954 98.5347 152.527 102.958C148.101 107.384 145.367 113.497 145.367 120.252C145.367 127.007 148.106 133.121 152.527 137.547C156.954 141.97 163.066 144.708 169.82 144.708C176.576 144.708 182.687 141.97 187.113 137.547C191.536 133.121 194.275 127.007 194.275 120.252L194.271 119.937C194.191 113.307 191.468 107.313 187.113 102.958ZM144.882 58.6313C152.565 58.6313 159.915 60.0366 166.698 62.6063C153.997 52.3602 137.838 46.2248 120.248 46.2248C99.8088 46.2248 81.2989 54.5118 67.9011 67.9054C54.5076 81.2991 46.2212 99.8078 46.2212 120.25C46.2212 140.694 54.5056 159.201 67.9011 172.596C81.2969 185.99 99.8041 194.277 120.248 194.277C137.84 194.277 153.994 188.142 166.698 177.894C159.915 180.464 152.565 181.869 144.882 181.869C127.869 181.869 112.461 174.972 101.313 163.821C90.1649 152.672 83.2666 137.267 83.2666 120.252C83.2666 103.238 90.1649 87.8307 101.313 76.6806C112.461 65.5283 127.869 58.6313 144.882 58.6313Z" fill="white"/>
</svg>
