<svg width="500" height="500" viewBox="0 0 500 500" fill="none" xmlns="http://www.w3.org/2000/svg">
<mask id="mask0_207_391" style="mask-type:alpha" maskUnits="userSpaceOnUse" x="0" y="0" width="500" height="500">
<path d="M250 500C388.071 500 500 388.071 500 250C500 111.929 388.071 0 250 0C111.929 0 0 111.929 0 250C0 388.071 111.929 500 250 500Z" fill="#D9D9D9"/>
</mask>
<g mask="url(#mask0_207_391)">
<path d="M500 0H0V500H500V0Z" fill="#E50571"/>
<path fill-rule="evenodd" clip-rule="evenodd" d="M250 83.8936C160.063 83.8936 87.1543 156.802 87.1543 246.739C87.1543 336.678 160.063 409.585 250 409.585C339.937 409.585 412.846 336.678 412.846 246.739C412.846 156.802 339.937 83.8936 250 83.8936ZM76.0869 246.739C76.0869 150.69 153.95 72.8262 250 72.8262C346.05 72.8262 423.913 150.69 423.913 246.739C423.913 342.789 346.05 420.652 250 420.652C153.95 420.652 76.0869 342.789 76.0869 246.739Z" fill="white"/>
<path fill-rule="evenodd" clip-rule="evenodd" d="M319.678 204.667L275.146 202.821L305.389 170.067L293.222 157.898L260.428 188.082L258.652 143.535H241.441L239.598 188.067L206.843 157.823L194.673 169.993L224.859 202.784L180.31 204.563V221.771L224.843 223.617L194.599 256.371L206.77 268.543L239.057 238.819L240.461 310.963L214.704 312.847V328.876L240.85 330.86L241.337 355.919H258.548L259.054 330.897L285.472 328.893V312.865L259.457 310.963L260.915 238.854L293.146 268.615L305.317 256.445L275.133 223.654L319.678 221.876V204.667Z" fill="white"/>
</g>
</svg>
