<svg width="240" height="241" viewBox="0 0 240 241" fill="none" xmlns="http://www.w3.org/2000/svg">
<rect width="240" height="240" transform="translate(0 0.5)" fill="#E50571"/>
<path fill-rule="evenodd" clip-rule="evenodd" d="M120 45.591C78.6289 45.591 45.091 79.1289 45.091 120.5C45.091 161.872 78.6289 195.409 120 195.409C161.371 195.409 194.909 161.872 194.909 120.5C194.909 79.1289 161.371 45.591 120 45.591ZM40 120.5C40 76.3172 75.8172 40.5 120 40.5C164.183 40.5 200 76.3172 200 120.5C200 164.683 164.183 200.5 120 200.5C75.8172 200.5 40 164.683 40 120.5Z" fill="white"/>
<path fill-rule="evenodd" clip-rule="evenodd" d="M152.052 101.147L131.567 100.298L145.479 85.2311L139.882 79.6334L124.797 93.5179L123.98 73.0264H116.063L115.215 93.5109L100.148 79.5988L94.5494 85.197L108.435 100.281L87.9424 101.099V109.015L108.428 109.864L94.5154 124.931L100.114 130.53L114.966 116.857L115.612 150.043L103.764 150.91V158.283L115.791 159.196L116.015 170.723H123.932L124.165 159.213L136.317 158.291V150.918L124.35 150.043L125.021 116.873L139.847 130.563L145.446 124.965L131.561 109.881L152.052 109.063V101.147Z" fill="white"/>
</svg>
