<svg xmlns="http://www.w3.org/2000/svg" fill="none" viewBox="5 7 230 230">
<mask id="mask0_3198_4518" style="mask-type:alpha" maskUnits="userSpaceOnUse" x="5" y="7" width="230" height="230">
<path d="M120 237C183.513 237 235 185.513 235 122C235 58.4873 183.513 7 120 7C56.4873 7 5 58.4873 5 122C5 185.513 56.4873 237 120 237Z" fill="#D9D9D9"/>
</mask>
<g mask="url(#mask0_3198_4518)">
<path d="M239 2H-1V242H239V2Z" fill="#E50571"/>
<path d="M197.252 114.199C194.194 111.481 191.32 109.267 188.599 107.466C188.611 107.473 188.622 107.482 188.635 107.488C183.285 81.0814 163.125 60.0521 137.2 53.4376C137.378 53.2631 137.557 53.0864 137.743 52.903C146.306 44.4407 144.742 31.9766 142.913 31.9766C142.908 31.9766 142.906 31.9766 142.901 31.9766C141.067 32.0258 142.454 37.2825 130.355 42.5885C118.358 47.8497 112.898 47.6954 94.3759 55.2025C67.9646 65.9039 49 91.3534 49 121.563C49 159.877 79.2678 191.116 117.197 192.684C117.197 192.684 117.969 192.728 119.344 192.728C124.362 192.728 137.437 192.138 150.686 186.651C167.572 179.658 177.088 169.462 179.77 166.939C181.777 165.049 181.864 163.863 181.032 163.863C180.815 163.863 180.538 163.944 180.216 164.111C179.365 164.557 177.209 165.317 174.326 165.789C184.146 153.705 190.036 138.3 190.036 121.514C190.036 119.246 189.924 117.004 189.713 114.792C193.518 115.279 196.14 115.816 196.581 115.91C196.778 115.953 196.961 115.971 197.122 115.971C198.122 115.971 198.402 115.221 197.25 114.199H197.252ZM66.1795 84.1483C69.8928 78.8512 74.3667 74.1045 79.4825 70.0422C84.6185 65.9621 90.307 62.6447 96.3914 60.1797C105.786 56.3724 111.728 54.5874 116.969 53.0126C122.058 51.4847 126.451 50.1627 132.511 47.5075C134.117 46.8029 135.531 46.0871 136.781 45.3735C136.09 46.6217 135.175 47.8967 133.969 49.089C128.178 54.8155 126.301 55.7237 120.087 58.7324C117.958 59.7636 115.309 61.0453 111.942 62.8013C108.46 64.6177 105.516 67.1186 103.196 70.2391C101.178 72.9502 99.6685 76.0752 98.7044 79.5268C97.6843 83.1841 97.313 87.1144 97.6351 90.8948C97.9505 94.6103 98.89 97.8472 100.353 100.254C102.972 104.565 109.927 116.013 126.896 116.013C129.56 116.013 132.399 115.727 135.338 115.161C139.416 114.376 143.141 112.533 146.742 110.75C150.898 108.692 155.193 106.564 160.15 105.998C162.58 105.721 164.463 105.598 166.262 105.598C170.494 105.598 174.27 106.334 178.149 107.918C178.69 108.139 179.233 108.376 179.779 108.631C178.981 108.609 178.173 108.598 177.357 108.598C168.436 108.598 161.13 109.998 155.641 112.756C154.001 113.579 152.455 114.537 151.008 115.617C146.19 118.76 137.432 129.417 132.506 139.55C129.059 146.639 122.973 153.479 115.801 158.313C110.189 162.098 101.342 166.398 91.0429 165.391C83.9742 164.7 76.5812 163.474 70.4006 159.226C64.1238 154.911 59.6343 147.936 56.2722 137.277L56.2543 137.284C55.0106 132.195 54.3708 126.927 54.3708 121.572C54.3708 108.121 58.4555 95.183 66.1818 84.1572L66.1795 84.1483ZM148.632 181.691C136.278 186.807 124.035 187.36 119.344 187.36C118.175 187.36 117.508 187.324 117.506 187.324H117.461L117.416 187.319C100.425 186.617 84.5581 179.466 72.7427 167.18C72.4519 166.879 72.17 166.574 71.8859 166.268C75.8319 168.142 81.4577 169.84 90.5195 170.726C91.7341 170.845 92.9309 170.9 94.1075 170.9C104.422 170.9 113.108 166.597 118.803 162.758C126.733 157.412 133.486 149.806 137.334 141.892C137.705 141.129 138.101 140.367 138.515 139.604C138.305 146.594 140.503 153.504 144.946 159.555C148.138 163.903 152.158 167.131 156.893 169.153C159.868 170.424 163.085 171.198 166.483 171.469C162.023 174.837 156.079 178.609 148.632 181.694V181.691ZM174.263 165.8C174.283 165.798 174.303 165.794 174.321 165.791C174.301 165.794 174.281 165.798 174.263 165.8Z" fill="white"/>
</g>
</svg>