<svg width="240" height="241" viewBox="0 0 240 241" fill="none" xmlns="http://www.w3.org/2000/svg">
<rect width="240" height="240" transform="translate(0 0.5)" fill="#E50571"/>
<path fill-rule="evenodd" clip-rule="evenodd" d="M168.724 60.389C176.834 66.2802 181.339 71.5724 182.741 76.8645C183.642 79.86 182.841 83.4547 180.839 86.1507C178.836 88.8466 175.633 90.3444 171.928 90.3444C170.527 90.3444 169.022 90.1296 167.622 89.7307C168.046 88.5956 168.515 87.4221 169.023 86.2486C169.424 86.3484 169.925 86.3484 170.425 86.3484C171.626 86.3484 173.028 86.1487 174.13 85.25C174.93 84.651 175.832 83.5526 175.732 81.5556C175.732 79.6584 174.23 77.262 171.126 74.3663C168.924 72.2694 165.92 69.9728 162.917 67.8759C154.306 62.1844 148.299 60.5868 145.596 63.2828C143.794 65.0801 143.994 67.2769 144.595 68.8745C143.341 69.6951 142.164 70.4239 141.087 71.067C138.491 67.1774 138.357 62.4858 140.591 58.2921C141.992 55.5961 144.195 53.7988 146.698 53.2995C147.699 53.0998 148.7 53 149.802 53C155.308 53 162.216 55.696 168.724 60.389ZM140.351 74.9223C143.554 73.2248 148.199 70.2723 153.505 66.0786C155.508 66.8774 158.111 68.2753 161.315 70.3722C165.119 72.8685 168.423 75.6644 170.526 77.8611C167.027 82.4464 164.726 88.7235 163.324 93.1159C170.916 103.046 175.431 115.442 175.431 128.887C175.431 161.538 148.9 187.999 116.162 187.999C83.4229 187.999 56.8916 161.538 56.8916 128.887C56.8916 96.2356 83.4229 69.775 116.162 69.775C124.758 69.775 132.939 71.6107 140.325 74.9118L140.351 74.9223ZM116.162 184.704C85.2251 184.704 60.1955 159.741 60.1955 128.887C60.1955 98.0329 85.2251 73.07 116.162 73.07C147.098 73.07 172.128 98.0329 172.128 128.887C172.128 159.741 146.998 184.704 116.162 184.704ZM172.828 81.6554C172.828 81.3558 172.728 80.8566 172.428 80.3574C171.727 81.3559 171.026 82.3544 170.425 83.5526C171.126 83.5526 171.927 83.3529 172.327 83.0534C172.528 82.8536 172.828 82.5541 172.828 81.6554ZM150.102 65.1799C148.8 64.9802 147.999 65.1799 147.699 65.4795C147.098 65.9788 146.998 66.6777 147.098 67.3766C148.099 66.6777 149.1 65.9787 150.102 65.1799ZM144.494 118.103C158.611 119.3 169.323 122.294 169.323 128.385C169.323 157.641 145.495 181.406 116.161 181.406C87.0969 181.406 63.3402 158.078 62.9038 129.194C62.8997 129.091 62.8976 128.989 62.8976 128.886C62.8976 128.836 62.898 128.786 62.8988 128.736C62.8981 128.619 62.8977 128.502 62.8977 128.385H62.9116C63.293 121.707 71.463 121.937 86.0249 123.594C92.7329 124.393 101.944 124.892 112.156 121.897C123.97 118.302 134.282 117.303 144.494 118.103ZM113.309 125.756L113.29 125.762C102.332 128.976 92.5048 128.421 85.5592 127.595C77.9638 126.731 72.774 126.353 69.5133 126.883C67.9363 127.14 67.371 127.532 67.2077 127.689L67.2024 127.694C67.1523 127.74 66.9256 127.947 66.9256 128.886C66.9256 130.096 67.5674 131.91 69.6259 134.067C71.6515 136.191 74.8051 138.368 79.0772 140.199C87.5993 143.853 100.108 145.927 115.395 143.77C126.74 142.153 133.779 139.402 140.657 136.714C143.259 135.697 145.837 134.689 148.617 133.755L148.629 133.751L148.641 133.747C151.381 132.845 154.009 132.184 156.328 131.626C156.745 131.525 157.149 131.429 157.539 131.336L157.571 131.328L157.58 131.326C159.401 130.892 160.93 130.527 162.261 130.124C163.929 129.618 164.762 129.195 165.144 128.891C165.163 128.875 165.18 128.861 165.194 128.849C165.169 128.465 164.741 127.05 160.644 125.394C156.771 123.829 151.052 122.702 144.166 122.117C134.478 121.361 124.674 122.298 113.328 125.75L113.309 125.756ZM133.582 103.725C138.559 103.725 142.592 99.7014 142.592 94.7382C142.592 89.7751 138.559 85.7517 133.582 85.7517C128.606 85.7517 124.571 89.7751 124.571 94.7382C124.571 99.7014 128.606 103.725 133.582 103.725ZM152.104 106.624C152.104 108.72 150.4 110.419 148.299 110.419C146.198 110.419 144.495 108.72 144.495 106.624C144.495 104.529 146.198 102.83 148.299 102.83C150.4 102.83 152.104 104.529 152.104 106.624Z" fill="white"/>
</svg>
