<svg width="500" height="500" viewBox="0 0 500 500" fill="none" xmlns="http://www.w3.org/2000/svg">
<mask id="mask0_207_398" style="mask-type:alpha" maskUnits="userSpaceOnUse" x="0" y="0" width="500" height="500">
<path d="M250 500C388.071 500 500 388.071 500 250C500 111.929 388.071 0 250 0C111.929 0 0 111.929 0 250C0 388.071 111.929 500 250 500Z" fill="#D9D9D9"/>
</mask>
<g mask="url(#mask0_207_398)">
<path d="M500 0H0V500H500V0Z" fill="#E50571"/>
<path fill-rule="evenodd" clip-rule="evenodd" d="M355.922 116.063C373.552 128.87 383.346 140.375 386.393 151.879C388.352 158.391 386.611 166.206 382.259 172.067C377.904 177.927 370.941 181.183 362.887 181.183C359.841 181.183 356.57 180.717 353.526 179.849C354.448 177.382 355.467 174.831 356.572 172.28C357.443 172.497 358.533 172.497 359.62 172.497C362.23 172.497 365.278 172.062 367.674 170.109C369.413 168.807 371.374 166.419 371.157 162.077C371.157 157.953 367.891 152.743 361.144 146.448C356.357 141.89 349.826 136.897 343.298 132.339C324.578 119.966 311.52 116.493 305.643 122.354C301.726 126.261 302.161 131.037 303.467 134.51C300.741 136.294 298.183 137.878 295.841 139.276C290.198 130.82 289.907 120.621 294.763 111.505C297.809 105.644 302.598 101.737 308.039 100.651C310.215 100.217 312.391 100 314.787 100C326.757 100 341.774 105.861 355.922 116.063ZM294.241 147.657C301.204 143.967 311.302 137.548 322.837 128.432C327.191 130.168 332.85 133.207 339.815 137.766C348.085 143.192 355.267 149.27 359.839 154.046C352.233 164.014 347.23 177.66 344.183 187.208C360.687 208.796 370.502 235.743 370.502 264.972C370.502 335.952 312.826 393.476 241.657 393.476C170.485 393.476 112.808 335.952 112.808 264.972C112.808 193.99 170.485 136.467 241.657 136.467C260.344 136.467 278.128 140.458 294.185 147.634L294.241 147.657ZM241.657 386.313C174.402 386.313 119.99 332.046 119.99 264.972C119.99 197.898 174.402 143.63 241.657 143.63C308.909 143.63 363.322 197.898 363.322 264.972C363.322 332.046 308.691 386.313 241.657 386.313ZM364.844 162.294C364.844 161.643 364.626 160.558 363.974 159.473C362.45 161.643 360.926 163.814 359.62 166.419C361.144 166.419 362.885 165.985 363.754 165.333C364.191 164.899 364.844 164.248 364.844 162.294ZM315.439 126.478C312.609 126.044 310.867 126.478 310.215 127.129C308.909 128.215 308.691 129.734 308.909 131.253C311.085 129.734 313.261 128.215 315.439 126.478ZM303.248 241.528C333.937 244.13 357.224 250.639 357.224 263.88C357.224 327.48 305.424 379.143 241.654 379.143C178.472 379.143 126.827 328.43 125.878 265.639C125.869 265.415 125.864 265.193 125.864 264.97C125.864 264.861 125.865 264.752 125.867 264.643C125.865 264.389 125.865 264.135 125.865 263.88H125.895C126.724 249.363 144.485 249.863 176.141 253.465C190.724 255.202 210.748 256.287 232.948 249.776C258.63 241.961 281.048 239.789 303.248 241.528ZM235.454 258.165L235.413 258.178C211.591 265.165 190.228 263.959 175.129 262.163C158.617 260.285 147.335 259.463 140.246 260.615C136.818 261.174 135.589 262.026 135.234 262.367L135.223 262.378C135.114 262.478 134.621 262.928 134.621 264.97C134.621 267.6 136.016 271.543 140.491 276.233C144.895 280.85 151.75 285.583 161.037 289.563C179.564 297.507 206.757 302.015 239.989 297.326C264.652 293.811 279.954 287.83 294.907 281.987C300.563 279.776 306.167 277.585 312.211 275.554L312.237 275.546L312.263 275.537C318.22 273.576 323.933 272.139 328.974 270.926C329.88 270.707 330.759 270.498 331.607 270.296L331.676 270.278L331.696 270.274C335.654 269.33 338.978 268.537 341.872 267.661C345.498 266.561 347.309 265.641 348.139 264.98C348.18 264.946 348.217 264.915 348.248 264.889C348.194 264.054 347.263 260.978 338.357 257.378C329.937 253.976 317.504 251.526 302.535 250.254C281.474 248.611 260.161 250.648 235.496 258.152L235.454 258.165ZM279.526 210.272C290.346 210.272 299.113 201.525 299.113 190.735C299.113 179.946 290.346 171.199 279.526 171.199C268.709 171.199 259.937 179.946 259.937 190.735C259.937 201.525 268.709 210.272 279.526 210.272ZM319.791 216.574C319.791 221.13 316.087 224.824 311.52 224.824C306.952 224.824 303.25 221.13 303.25 216.574C303.25 212.02 306.952 208.326 311.52 208.326C316.087 208.326 319.791 212.02 319.791 216.574Z" fill="white"/>
</g>
</svg>
