<svg width="500" height="500" viewBox="0 0 500 500" fill="none" xmlns="http://www.w3.org/2000/svg">
<mask id="mask0_207_373" style="mask-type:alpha" maskUnits="userSpaceOnUse" x="0" y="0" width="500" height="500">
<path d="M250 500C388.071 500 500 388.071 500 250C500 111.929 388.071 0 250 0C111.929 0 0 111.929 0 250C0 388.071 111.929 500 250 500Z" fill="#D9D9D9"/>
</mask>
<g mask="url(#mask0_207_373)">
<path d="M500 0H0V500H500V0Z" fill="#E50571"/>
<path d="M257.924 376.245C226.77 376.245 201.236 369.326 181.322 355.485C163.034 342.774 151.382 325.058 146.368 302.341C145.602 298.869 147.764 295.487 151.122 294.595L194.226 283.156C197.945 282.171 201.677 284.604 202.716 288.4C204.969 296.635 208.115 303.345 212.157 308.526C217.615 315.117 224.2 319.895 231.909 322.861C239.939 325.498 248.611 326.815 257.924 326.815C272.057 326.815 282.496 324.343 289.241 319.4C295.985 314.128 299.359 307.702 299.359 300.124C299.359 292.545 296.146 286.778 289.722 282.822C283.298 278.539 273.02 275.078 258.889 272.441L245.4 269.971C228.696 266.676 213.441 262.226 199.63 256.626C185.818 250.693 174.738 242.619 166.387 232.404C158.037 222.189 153.862 209.006 153.862 192.86C153.862 168.474 162.533 149.856 179.877 137.003C197.222 123.822 220.024 117.232 248.289 117.232C274.948 117.232 297.109 123.328 314.774 135.52C330.498 146.373 341.387 160.227 347.439 177.084C348.698 180.586 346.685 184.345 343.209 185.442L300.1 199.052C296.339 200.239 292.443 197.83 291.167 194.01C288.235 185.241 283.576 178.761 277.196 174.571C269.487 169.298 259.852 166.662 248.289 166.662C236.726 166.662 227.893 168.804 221.791 173.088C215.689 177.042 212.637 182.644 212.637 189.895C212.637 197.803 215.85 203.735 222.274 207.689C228.696 211.313 237.367 214.115 248.289 216.091L261.778 218.563C279.765 221.858 295.985 226.306 310.439 231.908C325.213 237.182 336.776 244.926 345.126 255.141C353.798 265.028 358.135 278.539 358.135 295.676C358.135 321.378 348.98 341.315 330.672 355.485C312.687 369.326 288.437 376.245 257.924 376.245Z" fill="white"/>
</g>
</svg>
