<svg width="240" height="240" viewBox="0 0 240 240" fill="none" xmlns="http://www.w3.org/2000/svg">
<rect width="240" height="240" rx="120" fill="#E50571"/>
<path fill-rule="evenodd" clip-rule="evenodd" d="M141.059 34.239C129.26 22.44 110.13 22.44 98.3309 34.239L34.2389 98.331C22.4399 110.13 22.4399 129.26 34.2389 141.059L98.3309 205.151C110.13 216.95 129.26 216.95 141.059 205.151L205.151 141.059C216.95 129.26 216.95 110.13 205.151 98.331L141.059 34.239ZM180.122 89.6167C180.122 72.9304 166.594 59.4034 149.908 59.4034H89.4816C72.7953 59.4034 59.2683 72.9304 59.2683 89.6167V150.043C59.2683 166.73 72.7953 180.256 89.4816 180.256H149.908C166.594 180.256 180.122 166.73 180.122 150.043V89.6167Z" fill="white"/>
<path d="M111.149 68.5533C115.869 63.8337 123.521 63.8337 128.24 68.5533L170.968 111.281C175.688 116.001 175.688 123.653 170.968 128.372L128.24 171.1C123.521 175.82 115.869 175.82 111.149 171.1L68.4213 128.372C63.7017 123.653 63.7017 116.001 68.4213 111.281L111.149 68.5533Z" fill="white"/>
</svg>
