<svg width="240" height="241" viewBox="0 0 240 241" fill="none" xmlns="http://www.w3.org/2000/svg">
<mask id="mask0_2_6" style="mask-type:alpha" maskUnits="userSpaceOnUse" x="5" y="6" width="230" height="230">
<circle cx="120" cy="121" r="115" fill="#D9D9D9"/>
</mask>
<g mask="url(#mask0_2_6)">
<path d="M240 0.5H0V240.5H240V0.5Z" fill="#E50571"/>
<path d="M176.52 63.94C161.416 48.82 141.352 40.5 120.008 40.5C75.9278 40.5 40.0718 76.388 40.0718 120.5C40.0718 164.612 75.9278 200.5 120.008 200.5C141.352 200.5 161.432 192.18 176.52 177.06C191.624 161.94 199.928 141.86 199.928 120.5C199.928 99.1399 191.624 79.044 176.52 63.94ZM120.008 194.964C78.9838 194.964 45.6078 161.556 45.6078 120.5C45.6078 79.444 78.9838 46.036 120.008 46.036C161.032 46.036 194.408 79.444 194.408 120.5C194.408 161.556 161.032 194.964 120.008 194.964Z" fill="white"/>
<path d="M146.249 122.395C141.129 117.819 134.425 114.763 127.929 111.803L127.881 111.787C116.425 106.555 106.52 102.027 107.225 91.3226C107.529 87.2429 110.488 84.7786 112.92 83.4505C115.656 81.9466 119.288 81.0507 122.649 81.0507C123.049 81.0507 123.449 81.0667 123.833 81.0827C133.609 81.7388 141.321 85.8825 148.857 94.4907L149.305 95.0185L149.833 94.5707L152.777 92.0109L153.305 91.5465L152.841 91.0187C144.441 81.3867 135.321 76.5387 124.169 75.7867C123.689 75.7387 123.176 75.7227 122.616 75.7227C122.28 75.7227 121.913 75.7227 121.529 75.7387H121.049C113.737 75.7387 105.72 78.1387 99.6247 82.1705C92.3447 86.9868 88.2645 93.6108 88.1527 100.826C87.8645 118.379 102.217 124.283 114.873 129.515L114.905 129.531L115.033 129.579C126.233 134.219 135.897 138.219 135.689 148.939C135.593 156.011 125.481 159.915 118.537 159.915H118.248H117.561V159.931C107.209 159.627 97.9604 155.163 90.0726 146.699L89.5926 146.187L89.0805 146.651L86.2167 149.307L85.7046 149.787L86.1846 150.299C95.1445 159.947 106.2 165.131 118.168 165.275H118.713C126.441 165.275 134.841 163.195 141.177 159.691C149.113 155.355 153.737 149.035 154.217 141.899C154.761 134.059 152.153 127.675 146.249 122.395ZM109.097 107.13C113.657 111.035 119.833 113.835 125.801 116.539L125.913 116.586C132.232 119.498 138.217 122.251 142.553 126.075C147.353 130.299 149.385 135.195 148.952 141.483C148.552 147.707 143.929 151.867 139.721 154.379C140.537 152.715 140.985 150.907 141.032 148.987C141.129 142.523 138.649 137.355 133.432 133.163C128.873 129.499 122.825 127.019 116.969 124.603C104.793 119.595 93.2885 114.859 93.4968 100.875C93.5607 95.4985 96.7927 90.4105 102.601 86.5546C102.793 86.4268 102.985 86.2986 103.193 86.1707C102.505 87.6746 102.121 89.2427 102.025 90.8905C101.561 97.3706 103.881 102.683 109.097 107.13Z" fill="white"/>
</g>
</svg>
