<svg width="240" height="241" viewBox="0 0 240 241" fill="none" xmlns="http://www.w3.org/2000/svg">
<mask id="mask0_0_3" style="mask-type:alpha" maskUnits="userSpaceOnUse" x="5" y="7" width="230" height="230">
<path d="M120 237C183.513 237 235 185.513 235 122C235 58.4873 183.513 7 120 7C56.4873 7 5 58.4873 5 122C5 185.513 56.4873 237 120 237Z" fill="#D9D9D9"/>
</mask>
<g mask="url(#mask0_0_3)">
<path d="M235 2H-5V242H235V2Z" fill="#E50571"/>
</g>
<mask id="mask1_0_3" style="mask-type:luminance" maskUnits="userSpaceOnUse" x="60" y="62" width="120" height="120">
<path d="M180 62H60V182H180V62Z" fill="white"/>
</mask>
<g mask="url(#mask1_0_3)">
<path fill-rule="evenodd" clip-rule="evenodd" d="M119.707 87.0001C126.305 87.0001 132.633 84.3661 137.299 79.6777C141.964 74.9893 144.585 68.6304 144.585 62H94.8291C94.8291 68.6304 97.4503 74.9893 102.116 79.6777C106.781 84.3661 113.109 87.0001 119.707 87.0001ZM60 147V96.9999C66.5981 96.9999 72.9259 99.6339 77.5914 104.322C82.257 109.011 84.8779 115.37 84.8779 122C84.8779 128.63 82.257 134.989 77.5914 139.678C72.9259 144.366 66.5981 147 60 147ZM119.707 147C133.447 147 144.585 135.807 144.585 122C144.585 108.193 133.447 96.9999 119.707 96.9999C105.968 96.9999 94.8291 108.193 94.8291 122C94.8291 135.807 105.968 147 119.707 147ZM154.536 122C154.536 128.63 157.157 134.989 161.823 139.678C166.488 144.366 172.816 147 179.414 147V96.9999C172.816 96.9999 166.488 99.6339 161.823 104.322C157.157 109.011 154.536 115.37 154.536 122ZM179.414 62V87.0001C172.816 87.0001 166.488 84.3661 161.823 79.6777C157.157 74.9893 154.536 68.6304 154.536 62H179.414ZM60 87.0001C66.5981 87.0001 72.9259 84.3661 77.5914 79.6777C82.257 74.9893 84.8779 68.6304 84.8779 62H60V87.0001ZM102.116 164.322C106.781 159.634 113.109 157 119.707 157C126.305 157 132.633 159.634 137.299 164.322C141.964 169.011 144.585 175.37 144.585 182H94.8291C94.8291 175.37 97.4503 169.011 102.116 164.322ZM154.536 182H179.414V157C172.816 157 166.488 159.634 161.823 164.322C157.157 169.011 154.536 175.37 154.536 182ZM60 182V157C66.5981 157 72.9259 159.634 77.5914 164.322C82.257 169.011 84.8779 175.37 84.8779 182H60Z" fill="#FAFAFC"/>
</g>
</svg>
