<svg width="240" height="240" viewBox="0 0 240 240" fill="none" xmlns="http://www.w3.org/2000/svg">
<rect width="240" height="240" rx="120" fill="#E50571"/>
<g clip-path="url(#clip0_3318_4608)">
<path d="M50.0811 71.3619V114.867V113.162C50.4053 150.336 81.5344 182.072 120.041 182.072C158.547 182.072 189.676 152.041 190 114.867V71.3619C190 71.3619 180.272 66.6543 169.247 77.9364C162.195 85.1601 156.52 111.295 141.361 111.458C121.094 111.782 107.313 84.8354 90.857 74.7709C73.59 64.2194 50.0811 71.3619 50.0811 71.3619Z" fill="white"/>
<path d="M50.0811 71.3619V114.867V113.162C50.4053 150.336 81.5344 182.072 120.041 182.072C158.547 182.072 189.676 152.041 190 114.867V71.3619C190 71.3619 180.272 66.6543 169.247 77.9364C162.195 85.1601 156.52 111.295 141.361 111.458C121.094 111.782 107.313 84.8354 90.857 74.7709C73.59 64.2194 50.0811 71.3619 50.0811 71.3619Z" fill="url(#paint0_linear_3318_4608)"/>
<path d="M190 119.087V88.8937C186.028 89.543 181.164 91.491 176.057 96.1986C168.112 103.503 161.789 129.882 144.765 130.126C122.067 130.45 106.584 103.179 88.1008 92.952C75.2113 85.9717 59.2415 86.7834 50 88.1632V119.168V117.302C50.3243 157.073 81.5345 191 119.959 191C158.384 191 189.676 158.858 190 119.087Z" fill="white"/>
<path d="M190 119.087V88.8937C186.028 89.543 181.164 91.491 176.057 96.1986C168.112 103.503 161.789 129.882 144.765 130.126C122.067 130.45 106.584 103.179 88.1008 92.952C75.2113 85.9717 59.2415 86.7834 50 88.1632V119.168V117.302C50.3243 157.073 81.5345 191 119.959 191C158.384 191 189.676 158.858 190 119.087Z" fill="url(#paint1_linear_3318_4608)"/>
<path d="M190 119.087V112.188C187.001 113.325 183.677 115.191 180.272 118.113C171.679 125.418 164.87 151.797 146.549 152.041C122.067 152.365 105.449 125.094 85.5067 114.867C73.9954 109.104 60.0521 108.698 50 109.51V119.168V117.302C50.3243 157.073 81.5345 191 119.959 191C158.384 191 189.676 158.858 190 119.087Z" fill="white"/>
</g>
<defs>
<linearGradient id="paint0_linear_3318_4608" x1="112.218" y1="125.978" x2="130.694" y2="58.3302" gradientUnits="userSpaceOnUse">
<stop stop-color="#E50571" stop-opacity="0.3"/>
<stop offset="0.87" stop-color="#E50571" stop-opacity="0"/>
</linearGradient>
<linearGradient id="paint1_linear_3318_4608" x1="103.957" y1="144.963" x2="128.577" y2="94.4125" gradientUnits="userSpaceOnUse">
<stop stop-color="#E50571" stop-opacity="0.3"/>
<stop offset="0.87" stop-color="#E50571" stop-opacity="0"/>
</linearGradient>
<clipPath id="clip0_3318_4608">
<rect width="140" height="122" fill="white" transform="translate(50 69)"/>
</clipPath>
</defs>
</svg>
