<?xml version="1.0" encoding="UTF-8"?>
<svg id="logo" xmlns="http://www.w3.org/2000/svg" version="1.1" viewBox="0 0 670 670">
  <!-- Generator: Adobe Illustrator 29.4.0, SVG Export Plug-In . SVG Version: 2.1.0 Build 152)  -->
  <defs>
    <style>
      .st0 {
        fill: #eed6d0;
      }

      .st1 {
        fill: #2dcb71;
      }
    </style>
  </defs>
  <g>
    <path class="st0" d="M594.8,319.16H76.2c-20.22,0-36.61,16.39-36.61,36.61v239.47c0,20.22,16.39,36.61,36.61,36.61h518.61c20.22,0,36.61-16.39,36.61-36.61v-239.47c0-20.22-16.39-36.61-36.61-36.61ZM260.73,465.11h-36.44v-36.44h36.44v36.44ZM446.71,465.11h-36.44v-36.44h36.44v36.44Z"/>
    <path class="st1" d="M593.81,123.99c0-14.8-12-26.79-26.79-26.79h-48.03v-48.78c0-5.67-4.6-10.27-10.27-10.27h-60.18c-5.67,0-10.27,4.6-10.27,10.27v48.78h-197.25v-48.78c0-5.67-4.6-10.27-10.27-10.27h-60.18c-5.67,0-10.27,4.6-10.27,10.27v48.78h-48.76c-14.8,0-26.79,12-26.79,26.79v188.13h509.06V123.99ZM306.42,284.41h-34.46v-79.75h34.46v79.75ZM406.6,284.41h-34.46v-79.75h34.46v79.75Z"/>
  </g>
  <rect x="271.96" y="204.67" width="34.46" height="79.75"/>
  <rect x="224.31" y="428.66" width="36.4" height="36.4"/>
  <rect x="410.29" y="428.66" width="36.4" height="36.4"/>
  <rect x="372.14" y="204.67" width="34.46" height="79.75"/>
</svg>