<svg width="156" height="156" viewBox="0 0 156 156" fill="none" xmlns="http://www.w3.org/2000/svg">
<circle cx="78" cy="78" r="78" fill="white"/>
<circle cx="78" cy="78" r="78" fill="#4C57E2"/>
<path fill-rule="evenodd" clip-rule="evenodd" d="M56.563 47.0746C56.563 50.7648 53.5668 53.7563 49.8708 53.7563C46.1747 53.7563 43.1785 50.7648 43.1785 47.0746C43.1785 43.3844 46.1747 40.3929 49.8708 40.3929C53.5668 40.3929 56.563 43.3844 56.563 47.0746ZM110.168 41.5307C111.216 41.9756 112.144 42.6608 112.877 43.5307C113.486 44.4663 113.866 45.532 113.986 46.6415C114.106 47.751 113.963 48.8732 113.567 49.917C112.905 52.0411 112.046 54.123 111.214 56.1063L110.609 57.513C109.786 59.5495 108.959 61.5525 108.121 63.5806C107.524 65.0267 106.921 66.4856 106.311 67.9787C105.7 69.4767 105.078 70.9575 104.459 72.4324C103.595 74.4892 102.736 76.5346 101.916 78.5991C100.367 82.2977 98.857 85.9886 97.3455 89.6833C96.822 90.9629 96.2984 92.2429 95.7728 93.5239C92.6226 101.131 89.4956 108.715 86.3391 116.371L85.3892 118.675C84.8298 120.207 83.8177 121.533 82.4867 122.477C81.1558 123.422 79.5688 123.94 77.9361 123.964C76.073 123.921 74.2661 123.318 72.7514 122.234C71.95 121.659 71.3214 120.876 70.9339 119.969C70.3968 118.713 69.8501 117.442 69.2979 116.158C67.1849 111.246 64.9925 106.149 62.9595 101.007L62.8229 100.683C62.5334 99.9962 62.2515 99.3272 61.9592 98.6582C60.6822 95.6568 57.2202 86.8628 55.7463 83.1191L55.5064 82.5096L55.4218 82.2564C55.0978 81.3984 54.7315 80.5684 54.3652 79.7385C54.2689 79.5042 54.1719 79.2699 54.0749 79.0356C53.5896 77.8632 53.1042 76.6909 52.7168 75.5185C51.2374 70.9749 53.5198 68.6539 54.9287 67.6974C56.0038 66.9622 57.2748 66.5654 58.5778 66.558C59.6534 66.5682 60.7085 66.8527 61.6431 67.3844C62.5776 67.9162 63.3605 68.6776 63.9175 69.5964C64.1168 69.8885 64.2957 70.194 64.4529 70.5107C65.4124 72.2748 66.2139 74.12 66.8481 76.0249C67.1721 76.8548 67.482 77.7129 67.8484 78.5428C68.774 80.7408 70.5288 85.2254 72.1284 89.3131C73.2313 92.1317 74.2604 94.7617 74.8929 96.3232C75.9214 98.6723 76.8512 101.05 77.7107 103.455L79.345 99.5726L84.1634 88.0801C84.5938 86.9668 85.0785 85.84 85.561 84.7184C85.7734 84.2244 85.9855 83.7314 86.1923 83.2411C86.4012 82.7392 86.6108 82.2364 86.8207 81.7328C88.6346 77.3808 90.4739 72.9681 92.166 68.5554C93.6876 64.6027 95.3501 60.6218 96.9563 56.7816L98.2525 53.6307C97.7392 53.5585 97.2207 53.5302 96.7027 53.5463H83.6704H74.921C72.6809 53.5181 69.3277 53.4619 67.6652 50.1561C67.291 49.418 67.067 48.6132 67.0062 47.7881C66.9454 46.9631 67.049 46.1342 67.311 45.3494C67.573 44.5645 67.9883 43.8393 68.5327 43.2157C69.0772 42.5921 69.74 42.0824 70.483 41.7161C71.9036 41.1252 73.4418 40.8701 74.9774 40.9706H106.847C107.983 40.894 109.121 41.0859 110.168 41.5307Z" fill="white"/>
</svg>
