<?xml version="1.0" encoding="UTF-8"?>
<svg xmlns="http://www.w3.org/2000/svg" width="141.1mm" height="141.1mm" version="1.1" viewBox="64 64 272.2 272.2">
  <defs>
    <style>
      .cls-1 {
        fill: #171717;
      }
    </style>
  </defs>
  <!-- Generator: Adobe Illustrator 28.7.1, SVG Export Plug-In . SVG Version: 1.2.0 Build 142)  -->
  <g>
    <g id="Layer_1">
      <path class="cls-1" d="M284,225.4c2.3-7.7,3.6-15.8,3.6-24.3s0-1.9,0-2.8c-33.5-19.4-58.8-60.9-69.4-80.7-5.7-1.2-11.6-1.8-17.7-1.8s-11.6.6-17.1,1.7c-4.7,8.7-12.3,21.8-22.3,35.3-11.5,15.6-28.1,34.2-47.6,45.6,0,.9,0,1.8,0,2.7,0,8.5,1.3,16.6,3.6,24.3,14.5-6.7,27.6-16.5,39.2-27.7-8.2,19.1-17.4,37.6-27,52.3,5.2,7.2,11.4,13.6,18.6,18.9,10.5-15,21-34.6,31.6-59-3.7,25-9.2,46.9-17,67.8,7.8,3.7,16.2,6.3,25.1,7.6,5.6-14,10-27.9,13.5-46,3.5,18,7.9,31.9,13.6,45.9,8.8-1.4,17.2-4.1,24.9-7.9-7.6-20.1-12.9-41.2-16.7-65.5,10.3,23.4,20.5,42.4,30.7,56.9,7.1-5.3,13.4-11.7,18.5-19-9.5-14.6-18.6-33-26.8-51.9,11.5,11.1,24.5,20.9,38.9,27.5h0Z"/>
      <path class="cls-1" d="M200.1,336.1c-75,0-136.1-61-136.1-136.1S125,64,200.1,64s136.1,61,136.1,136.1-61,136.1-136.1,136.1ZM200.1,90.8c-60.2,0-109.3,49-109.3,109.3s49,109.3,109.3,109.3,109.3-49,109.3-109.3-49-109.3-109.3-109.3Z"/>
    </g>
  </g>
</svg>