<svg width="200" height="200" viewBox="0 0 200 200" fill="none" xmlns="http://www.w3.org/2000/svg">
<g clip-path="url(#clip0_1192_11)">
<mask id="mask0_1192_11" style="mask-type:alpha" maskUnits="userSpaceOnUse" x="0" y="0" width="200" height="200">
<circle cx="100" cy="100" r="100" fill="#D9D9D9"/>
</mask>
<g mask="url(#mask0_1192_11)">
<path d="M0.137207 200H200.008V7.62939e-06H0.137207V200Z" fill="black"/>
<path d="M131.516 25.8755C126.041 27.8255 120.699 30.2922 115.533 32.6839C106.074 37.0505 97.1495 41.1672 90.0828 40.7422C87.6078 40.5922 84.5661 40.2172 81.0411 39.7672C67.7661 38.1172 49.5995 35.8339 40.1245 43.5755C33.3911 49.0672 34.4411 62.1839 35.4495 74.8672C36.2161 84.3505 37.0078 94.1505 34.3911 100.026C28.4995 113.326 26.4911 124.667 28.4245 133.734C30.3245 142.642 36.0411 149.617 45.4161 154.476C50.6995 157.209 55.5661 158.351 60.7161 159.559C68.2328 161.334 75.9995 163.159 85.6995 170.267C90.5495 173.826 95.5495 175.617 100.849 175.617C110.933 175.617 122.116 169.134 135.441 155.851C140.283 151.017 146.191 148.209 151.899 145.476C158.608 142.276 165.558 138.959 170.858 132.392C174.099 128.384 174.916 124.092 173.358 119.284C171.999 115.059 168.974 110.776 165.774 106.242C162.291 101.317 158.683 96.2172 156.533 90.4089C152.766 80.2839 153.474 76.2339 154.741 68.8672C155.574 64.1005 156.591 58.1589 156.833 48.5172C157.099 37.5089 153.991 31.2339 148.966 27.6005C146.258 25.6422 143.133 24.3839 139.291 24.3839C136.983 24.3839 134.416 24.8422 131.516 25.8755ZM73.5661 136.067C66.1911 130.617 61.0161 123.109 58.5995 114.351C55.7245 103.926 57.1745 93.0255 62.6745 83.6672C68.1911 74.3089 77.0911 67.6005 87.7578 64.7922C91.2911 63.8589 94.9161 63.3839 98.5495 63.3839C107.458 63.3839 116.308 66.3005 123.466 71.5839C130.841 77.0339 136.016 84.5422 138.433 93.3005C141.308 103.734 139.858 114.626 134.358 123.984C128.849 133.351 119.941 140.042 109.283 142.859C105.741 143.792 102.108 144.267 98.4911 144.267C89.5745 144.267 80.7328 141.351 73.5661 136.067Z" fill="url(#paint0_radial_1192_11)"/>
</g>
</g>
<defs>
<radialGradient id="paint0_radial_1192_11" cx="0" cy="0" r="1" gradientUnits="userSpaceOnUse" gradientTransform="translate(98.519 102.464) rotate(-24.3937) scale(79.4623 79.4623)">
<stop stop-color="#F79036"/>
<stop offset="0.603017" stop-color="#F79036"/>
<stop offset="0.879668" stop-color="#96D5D1"/>
<stop offset="1" stop-color="#96D5D1"/>
</radialGradient>
<clipPath id="clip0_1192_11">
<rect width="200" height="200" fill="white"/>
</clipPath>
</defs>
</svg>
