<svg xmlns="http://www.w3.org/2000/svg" width="800" height="800" fill="none" viewBox="0 0 800 800"><path fill="#2E3148" fill-rule="evenodd" d="M400.012 0.768066C620.509 0.768066 799.257 179.501 799.257 399.98C799.257 620.458 620.509 799.192 400.012 799.192C179.516 799.192 0.767944 620.458 0.767944 399.98C0.767944 179.501 179.516 0.768066 400.012 0.768066Z" clip-rule="evenodd"/><path fill="#1B1E36" fill-rule="evenodd" d="M399.226 169.68C526.431 169.68 629.552 272.801 629.552 400.007C629.552 527.212 526.431 630.333 399.226 630.333C272.02 630.333 168.899 527.212 168.899 400.007C168.899 272.801 272.02 169.68 399.226 169.68Z" clip-rule="evenodd"/><path fill-rule="evenodd" stroke="#6F7390" stroke-width="15" d="M401.181 58.2666C394.32 58.2666 386.121 65.8115 377.843 81.5569C368.982 98.411 360.796 123.281 353.849 154.523C339.501 219.047 331.271 306.552 331.271 399.977C331.271 493.402 339.501 580.908 353.849 645.431C360.796 676.673 368.982 701.543 377.843 718.397C386.121 734.143 394.32 741.688 401.181 741.688C408.042 741.688 416.241 734.143 424.519 718.397C433.38 701.543 441.566 676.673 448.513 645.431C462.862 580.908 471.092 493.402 471.092 399.977C471.092 306.552 462.862 219.047 448.513 154.523C441.566 123.281 433.38 98.411 424.519 81.5569C416.241 65.8115 408.042 58.2666 401.181 58.2666Z" clip-rule="evenodd"/><path fill-rule="evenodd" stroke="#6F7390" stroke-width="15" d="M697.298 229.144C693.869 223.208 683.229 219.884 665.444 220.592C646.407 221.351 620.761 226.702 590.213 236.311C527.123 256.157 447.177 292.789 366.216 339.504C285.255 386.219 213.538 437.098 164.797 481.78C141.196 503.415 123.737 522.936 113.562 539.033C104.057 554.069 101.618 564.935 105.046 570.868C108.475 576.804 119.115 580.129 136.9 579.42C155.937 578.662 181.583 573.311 212.131 563.701C275.221 543.856 355.167 507.224 436.129 460.508C517.09 413.793 588.806 362.915 637.547 318.233C661.148 296.598 678.607 277.077 688.783 260.98C698.287 245.944 700.726 235.078 697.298 229.144V229.144ZM697.298 229.144C697.298 229.144 697.298 229.144 697.298 229.144L697.298 229.144C697.298 229.144 697.298 229.144 697.298 229.144V229.144Z" clip-rule="evenodd"/><path fill-rule="evenodd" stroke="#6F7390" stroke-width="15" d="M697.298 570.868L697.298 570.868C700.726 564.935 698.288 554.069 688.783 539.033C678.607 522.936 661.148 503.415 637.548 481.78C588.806 437.098 517.09 386.219 436.129 339.504C355.167 292.789 275.221 256.157 212.131 236.311C181.583 226.702 155.937 221.351 136.9 220.592C119.115 219.884 108.475 223.208 105.046 229.144C101.618 235.078 104.057 245.944 113.562 260.98C123.737 277.077 141.196 296.598 164.797 318.233C213.538 362.915 285.255 413.793 366.216 460.508C447.177 507.224 527.123 543.856 590.213 563.701C620.761 573.311 646.407 578.662 665.444 579.42C683.229 580.129 693.869 576.804 697.298 570.868Z" clip-rule="evenodd"/><path fill="#B7B9C8" fill-rule="evenodd" d="M177.765 302.102C191.34 302.102 202.345 313.112 202.345 326.694C202.345 340.276 191.34 351.286 177.765 351.286C164.189 351.286 153.185 340.276 153.185 326.694C153.185 313.112 164.189 302.102 177.765 302.102Z" clip-rule="evenodd"/><path fill="#B7B9C8" fill-rule="evenodd" d="M568.451 217.905C582.033 217.905 593.043 228.915 593.043 242.497C593.043 256.079 582.033 267.089 568.451 267.089C554.869 267.089 543.859 256.079 543.859 242.497C543.859 228.915 554.869 217.905 568.451 217.905Z" clip-rule="evenodd"/><path fill="#B7B9C8" fill-rule="evenodd" d="M351.649 603.909C365.231 603.909 376.241 614.914 376.241 628.489C376.241 642.064 365.231 653.069 351.649 653.069C338.067 653.069 327.057 642.064 327.057 628.489C327.057 614.914 338.067 603.909 351.649 603.909Z" clip-rule="evenodd"/><path fill="#B7B9C8" fill-rule="evenodd" d="M399.811 358.173C422.806 358.173 441.447 376.814 441.447 399.809C441.447 422.803 422.806 441.444 399.811 441.444C376.817 441.444 358.176 422.803 358.176 399.809C358.176 376.814 376.817 358.173 399.811 358.173Z" clip-rule="evenodd"/></svg>