<svg width="40" height="41" viewBox="0 0 40 41" fill="none" xmlns="http://www.w3.org/2000/svg">
<g clip-path="url(#clip0_4420_277880)">
<path d="M39.3995 25.338C36.7283 36.0524 25.8764 42.573 15.1608 39.9011C4.44954 37.2299 -2.07108 26.3774 0.601418 15.6636C3.27142 4.94801 14.1233 -1.57324 24.8358 1.09801C35.5508 3.76926 42.0708 14.623 39.3995 25.338Z" fill="#F7931A"/>
<path d="M28.8183 17.6506C29.2164 14.9894 27.1902 13.5588 24.4196 12.6044L25.3183 8.99938L23.1239 8.4525L22.2489 11.9625C21.6721 11.8188 21.0796 11.6831 20.4908 11.5488L21.3721 8.01563L19.1789 7.46875L18.2796 11.0725C17.8021 10.9638 17.3333 10.8563 16.8783 10.7431L16.8808 10.7319L13.8546 9.97625L13.2708 12.32C13.2708 12.32 14.8989 12.6931 14.8646 12.7163C15.7533 12.9381 15.9139 13.5263 15.8871 13.9925L14.8633 18.0994C14.9246 18.115 15.0039 18.1375 15.0914 18.1725C15.0183 18.1544 14.9402 18.1344 14.8596 18.115L13.4246 23.8681C13.3158 24.1381 13.0402 24.5431 12.4189 24.3894C12.4408 24.4213 10.8239 23.9913 10.8239 23.9913L9.73456 26.5031L12.5902 27.215C13.1214 27.3481 13.6421 27.4875 14.1546 27.6188L13.2464 31.265L15.4383 31.8119L16.3377 28.2044C16.9364 28.3669 17.5177 28.5169 18.0864 28.6581L17.1902 32.2488L19.3846 32.7956L20.2927 29.1563C24.0346 29.8644 26.8483 29.5788 28.0327 26.1944C28.9871 23.4694 27.9852 21.8975 26.0164 20.8725C27.4502 20.5419 28.5302 19.5988 28.8183 17.6506ZM23.8046 24.6813C23.1264 27.4063 18.5383 25.9331 17.0508 25.5638L18.2558 20.7331C19.7433 21.1044 24.5133 21.8394 23.8046 24.6813ZM24.4833 17.6113C23.8646 20.09 20.0458 18.8306 18.8071 18.5219L19.8996 14.1406C21.1383 14.4494 25.1277 15.0256 24.4833 17.6113Z" fill="white"/>
</g>
<defs>
<clipPath id="clip0_4420_277880">
<rect width="40" height="40" fill="white" transform="translate(0 0.5)"/>
</clipPath>
</defs>
</svg>
