<svg width="1427" height="1427" viewBox="0 0 1427 1427" fill="none" xmlns="http://www.w3.org/2000/svg">
<rect x="17" y="17" width="1393" height="1393" rx="696.5" fill="white"/>
<g clip-path="url(#clip0_13129_561543)">
<path d="M75.2363 647.401H146.183C148.092 630.92 150.694 614.612 153.989 598.304C161.448 561.698 172.724 525.612 187.121 491.262C201.345 457.431 219.039 424.816 239.681 394.282C260.15 363.921 283.568 335.469 309.414 309.619C335.26 283.769 363.708 260.175 394.065 239.877C424.595 219.232 457.206 201.536 491.032 187.31C525.378 172.91 561.458 161.634 598.059 154.174C614.192 150.877 630.497 148.275 647.15 146.367V75.2363C345.842 106.117 106.113 345.878 75.2363 647.401ZM1280.64 779.599C1278.74 796.081 1276.13 812.389 1272.84 828.697C1265.38 865.303 1254.1 901.388 1239.71 935.739C1225.48 969.569 1207.79 1002.18 1187.15 1032.72C1166.68 1063.08 1143.26 1091.53 1117.41 1117.38C1091.57 1143.23 1063.12 1166.83 1032.76 1187.12C1002.23 1207.77 969.621 1225.46 935.795 1239.69C901.449 1254.09 865.369 1265.37 828.768 1272.83C812.635 1276.12 796.33 1278.73 779.677 1280.63V1351.59C1081.16 1320.71 1320.89 1080.95 1351.76 779.426H1280.64V779.599ZM491.205 1239.69C457.379 1225.46 424.768 1207.77 394.238 1187.12C363.882 1166.65 335.434 1143.23 309.587 1117.38C283.741 1091.53 260.15 1063.08 239.854 1032.72C219.212 1002.18 201.519 969.569 187.295 935.739C172.897 901.388 161.622 865.303 154.163 828.697C150.867 812.562 148.265 796.254 146.357 779.599H75.2363C106.113 1081.12 345.841 1320.88 647.323 1351.76V1280.81C630.844 1278.9 614.539 1276.3 598.233 1273C561.632 1265.54 525.551 1254.26 491.205 1239.69ZM779.504 75.2363V146.193C795.983 148.102 812.288 150.704 828.594 154C865.195 161.46 901.276 172.737 935.622 187.136C969.448 201.362 1002.06 219.058 1032.59 239.703C1062.95 260.175 1091.39 283.596 1117.24 309.446C1143.09 335.295 1166.68 363.748 1186.97 394.108C1207.61 424.642 1225.31 457.258 1239.53 491.088C1253.93 525.439 1265.21 561.524 1272.66 598.13C1275.96 614.265 1278.56 630.573 1280.47 647.228H1351.59C1320.71 345.878 1081.16 106.117 779.504 75.2363Z" fill="black"/>
<path d="M502.749 380.923H380.977V502.712H502.749V380.923Z" fill="black"/>
<path d="M1046.17 380.923H881.899V545.216H1046.17V380.923Z" fill="black"/>
<path d="M1046.18 830.094V1046.09H830.041V830.094H1046.18Z" fill="black"/>
<path d="M451.75 975.119H380.977V1045.9H451.75V975.119Z" fill="black"/>
<path d="M713.509 718.014L385.487 1046.08H380.977V1041.57L708.999 713.503L713.509 718.014Z" fill="url(#paint0_linear_13129_561543)"/>
<path d="M1046.49 380.923V385.434L886.556 545.216L718.469 713.5L713.785 708.816L882.22 540.706L1041.81 380.923H1046.49Z" fill="url(#paint1_linear_13129_561543)"/>
<path d="M713.509 708.816L708.999 713.5L380.977 385.434V380.923H385.487L713.509 708.816Z" fill="url(#paint2_linear_13129_561543)"/>
<path d="M1046.49 1041.57V1046.08H1041.81L713.785 718.011L718.469 713.5L1046.49 1041.57Z" fill="url(#paint3_linear_13129_561543)"/>
</g>
<defs>
<linearGradient id="paint0_linear_13129_561543" x1="711.279" y1="715.799" x2="450.862" y2="976.181" gradientUnits="userSpaceOnUse">
<stop stop-opacity="0"/>
<stop offset="1"/>
</linearGradient>
<linearGradient id="paint1_linear_13129_561543" x1="716.151" y1="711.201" x2="881.421" y2="545.953" gradientUnits="userSpaceOnUse">
<stop offset="0.0176145" stop-opacity="0"/>
<stop offset="1"/>
</linearGradient>
<linearGradient id="paint2_linear_13129_561543" x1="709.834" y1="709.756" x2="501.862" y2="501.811" gradientUnits="userSpaceOnUse">
<stop stop-opacity="0"/>
<stop offset="1"/>
</linearGradient>
<linearGradient id="paint3_linear_13129_561543" x1="715.442" y1="715.087" x2="834.265" y2="833.895" gradientUnits="userSpaceOnUse">
<stop stop-opacity="0"/>
<stop offset="0.9809"/>
</linearGradient>
<clipPath id="clip0_13129_561543">
<rect width="1313" height="1313" fill="white" transform="translate(57 57)"/>
</clipPath>
</defs>
</svg>
