<svg width="1427" height="1427" viewBox="0 0 1427 1427" fill="none" xmlns="http://www.w3.org/2000/svg">
<rect x="17" y="17" width="1393" height="1393" rx="696.5" fill="white"/>
<g clip-path="url(#clip0_13129_561542)">
<path d="M604.447 620.931L644.88 740.35H553.67L596.454 620.931H604.447ZM822.598 804.291H755.837V827.798H920.391V804.291H854.569V616.229H920.391V592.721H755.837V616.229H822.598V804.291ZM522.17 827.798L544.737 764.798H653.343L674.5 827.798H709.291L624.663 592.721H576.708L490.669 827.798H522.17ZM1051.56 1051.59H376.422V376.45H1051.56V1051.59Z" fill="black"/>
<path d="M779.703 1351.99C1081.07 1320.96 1320.85 1081.19 1351.88 779.816H1272.43C1244.22 1041.22 1046.28 1249.5 779.703 1279.12V1351.99Z" fill="black"/>
<path d="M76 779.821C107.03 1081.19 346.809 1320.97 648.178 1352V1279.13C381.601 1249.51 184.136 1040.76 155.456 779.821H76Z" fill="black"/>
<path d="M1351.88 648.178C1320.85 346.809 1081.07 107.03 779.703 76V148.874C1046.28 178.494 1243.75 387.242 1272.43 648.178H1351.88Z" fill="black"/>
<path d="M648.178 76C346.809 107.03 107.03 346.809 76 648.179H155.456C183.665 386.772 381.601 178.494 648.178 148.874V76Z" fill="black"/>
</g>
<defs>
<clipPath id="clip0_13129_561542">
<rect width="1276" height="1276" fill="white" transform="translate(76 76)"/>
</clipPath>
</defs>
</svg>
