<svg width="40" height="40" viewBox="0 0 40 40" fill="none" xmlns="http://www.w3.org/2000/svg">
<path d="M36.2806 9.47597C35.9264 8.13516 34.788 6.79435 32.7388 5.30176C31.0944 4.11274 29.3488 3.42969 27.9574 3.42969C27.6792 3.42969 27.4262 3.45499 27.1732 3.50558C26.5407 3.63207 25.9842 4.08744 25.63 4.77049C25.1999 5.58004 25.0987 6.66786 25.377 7.32562C25.4782 7.528 25.6047 7.78098 25.7565 8.00867C24.4157 8.81821 23.6567 9.0459 23.5555 9.07119C27.0467 10.2349 29.956 12.6635 31.7775 15.8258L31.8028 15.5222C31.8787 14.6874 32.1316 13.7261 32.4858 12.7394C32.84 12.8406 33.1942 12.8912 33.5483 12.8912C34.4844 12.8912 35.2939 12.5118 35.7999 11.8287C36.3059 11.1457 36.5082 10.2349 36.2806 9.47597Z" fill="#5E12A0"/>
<path d="M32.6376 12.0055C34.9398 12.638 35.8758 10.8671 35.5722 9.6781C35.2433 8.48908 34.1808 7.27477 32.3087 5.90866C30.4367 4.54256 28.5393 3.986 27.325 4.23898C26.1107 4.49196 25.7565 6.33873 26.0601 7.04708C26.1866 7.32537 26.4648 7.73014 26.8443 8.18551C26.3637 8.51438 25.9083 8.76737 25.5288 8.99505C27.8562 10.0323 29.8801 11.6514 31.398 13.6752C31.5751 12.9922 31.8281 12.385 32.0558 11.8537C32.2328 11.879 32.4352 11.9296 32.6376 12.0055Z" fill="url(#paint0_radial_2564_42554)"/>
<path d="M19.4574 36.7991C27.2677 36.7991 33.5991 30.4677 33.5991 22.6573C33.5991 14.847 27.2677 8.51562 19.4574 8.51562C11.6471 8.51562 5.31567 14.847 5.31567 22.6573C5.31567 30.4677 11.6471 36.7991 19.4574 36.7991Z" fill="url(#paint1_radial_2564_42554)"/>
<path d="M34.4085 8.51558C32.4858 6.49173 30.8668 5.96046 28.9188 5.53039C27.4009 5.17622 27.8057 4.31608 29.6524 4.49317C28.767 4.18959 27.9322 4.11369 27.325 4.24018C26.1107 4.49317 25.7565 6.33994 26.0601 7.04829C26.1866 7.32657 26.4649 7.73134 26.8443 8.18671C26.1613 8.64208 25.5794 8.97095 25.0988 9.22394C25.3264 9.32513 25.6047 9.45162 25.9336 9.62871C26.7937 10.0841 27.7298 10.843 27.7298 10.843C26.3131 9.62871 26.6166 9.07215 28.5646 7.70604C29.1718 7.27597 30.2849 7.32657 31.3221 7.85783C32.3593 8.38909 33.5737 9.7299 33.5737 9.7299L32.4099 11.9561C32.4858 11.9814 32.5617 12.0067 32.6376 12.032C33.3713 12.2344 33.9531 12.1838 34.4085 12.0067C34.9398 11.6779 36.3312 10.5647 34.4085 8.51558Z" fill="#A98698" fill-opacity="0.6"/>
<path d="M28.8936 6.74449C29.3996 6.94688 30.0573 7.30106 30.8669 7.83232C31.8282 8.46477 32.663 9.17312 33.1943 9.72969C32.3089 10.8934 31.727 12.4872 31.3728 13.6003C31.5499 13.8533 31.7523 14.1063 31.9294 14.3593C32.1065 13.7268 32.4101 12.7908 32.8148 11.8547C32.916 11.88 33.0425 11.88 33.169 11.88C33.4726 11.88 33.8268 11.8294 34.105 11.6018C34.3074 11.45 34.5351 11.1717 34.5098 10.6657C34.5098 10.1851 34.1303 9.5779 33.3461 8.84425C32.7895 8.31298 32.0306 7.73113 31.2716 7.19986C29.096 5.75786 27.5781 5.35309 26.895 6.03614C26.4397 6.49151 26.4903 7.04807 26.6421 7.45285C25.8325 7.98411 25.1495 8.36358 24.6941 8.61656C24.9977 8.71776 25.276 8.84425 25.5795 8.97074C26.3891 8.54067 27.5528 7.80702 28.8936 6.74449ZM33.675 10.3621C33.7509 10.4886 33.7762 10.6151 33.7762 10.691C33.7762 10.9187 33.7003 10.9946 33.6497 11.0452C33.5485 11.1211 33.3461 11.1717 33.169 11.1717C33.3208 10.8681 33.4979 10.6151 33.675 10.3621ZM27.4263 6.5927C27.5022 6.51681 27.7046 6.46621 28.0335 6.51681C27.7805 6.7192 27.5275 6.89628 27.2745 7.07337C27.2492 6.89628 27.2745 6.7192 27.4263 6.5927Z" fill="#5E12A0"/>
<path d="M19.4573 7.67969C11.1847 7.67969 4.48071 14.3837 4.48071 22.6562C4.48071 30.9288 11.1847 37.6328 19.4573 37.6328C27.7298 37.6328 34.4338 30.9288 34.4338 22.6562C34.4338 14.3837 27.7045 7.67969 19.4573 7.67969ZM19.4573 36.798C11.6401 36.798 5.31555 30.4734 5.31555 22.6562C5.31555 14.8391 11.6401 8.51453 19.4573 8.51453C27.2744 8.51453 33.599 14.8391 33.599 22.6562C33.599 30.4734 27.2491 36.798 19.4573 36.798Z" fill="#5E12A0"/>
<path d="M19.4574 36.7991C27.2677 36.7991 33.5991 30.4677 33.5991 22.6573C33.5991 14.847 27.2677 8.51562 19.4574 8.51562C11.6471 8.51562 5.31567 14.847 5.31567 22.6573C5.31567 30.4677 11.6471 36.7991 19.4574 36.7991Z" fill="url(#paint2_linear_2564_42554)"/>
<path d="M19.3561 35.078C11.6402 33.8384 6.40342 26.5778 7.66833 18.8618C8.22489 15.4466 9.94517 12.5373 12.3738 10.4375C8.83205 12.4867 6.20103 16.0537 5.49268 20.405C4.25307 28.121 9.4898 35.3816 17.1805 36.6212C21.4812 37.3295 25.6301 35.9887 28.6912 33.3577C25.9843 34.9262 22.6955 35.6092 19.3561 35.078Z" fill="#A98698" fill-opacity="0.6"/>
<path d="M21.7088 8.71762C18.1418 8.13576 14.6759 8.94531 11.8425 10.7415C11.7919 10.7921 11.7413 10.8427 11.7413 10.8427C12.8291 10.1849 14.4229 9.60306 14.4229 9.60306C10.3246 11.9811 9.05969 14.688 9.05969 14.688C10.6535 11.6016 15.3337 9.42597 19.0019 9.27418C22.6701 9.12239 25.0735 10.2102 28.0081 12.563C30.9427 14.941 32.7135 19.7982 32.5365 23.6436C32.3847 27.4889 30.3608 30.6006 30.3608 30.6006C31.7522 28.8044 32.5871 27.4889 33.1183 26.1481C33.2195 25.7433 33.3207 25.3386 33.3713 24.9085C34.6362 17.2178 29.4248 9.95724 21.7088 8.71762Z" fill="url(#paint3_linear_2564_42554)"/>
<path d="M32.8907 22.5312C32.8907 29.9436 26.8697 35.9646 19.4573 35.9646C12.0449 35.9646 5.99866 29.9436 5.99866 22.5312H32.8907Z" fill="url(#paint4_linear_2564_42554)"/>
<path d="M31.8281 22.5312C31.8281 29.7665 26.1107 35.6863 18.926 35.9646H19.4573C26.8697 35.9646 32.8907 29.9436 32.8907 22.5312H31.8281Z" fill="url(#paint5_linear_2564_42554)"/>
<path d="M7.89602 22.5312H5.99866C5.99866 29.9436 12.0196 35.9646 19.432 35.9646C19.7609 35.9646 20.0645 35.9646 20.3681 35.9393C13.411 35.4333 7.89602 29.6148 7.89602 22.5312Z" fill="url(#paint6_linear_2564_42554)"/>
<path d="M32.8654 22.657C32.8654 21.1138 30.1838 20.2283 26.6167 19.9248C24.0363 19.7224 21.4306 19.9754 18.4454 20.8861C15.865 21.645 13.5375 21.5186 11.8425 21.3162C8.07311 20.8861 5.99866 20.8355 5.99866 22.657C5.99866 25.288 11.3619 28.5768 19.4067 27.4383C23.4797 26.8565 25.5795 25.6675 27.9828 24.8579C30.5885 23.9978 32.8654 24.0231 32.8654 22.657Z" fill="url(#paint7_linear_2564_42554)"/>
<path d="M23.8591 16.2822C25.1167 16.2822 26.136 15.2629 26.136 14.0054C26.136 12.7478 25.1167 11.7285 23.8591 11.7285C22.6015 11.7285 21.5823 12.7478 21.5823 14.0054C21.5823 15.2629 22.6015 16.2822 23.8591 16.2822Z" fill="white"/>
<path d="M27.578 17.9774C28.109 17.9774 28.5394 17.547 28.5394 17.016C28.5394 16.485 28.109 16.0547 27.578 16.0547C27.047 16.0547 26.6167 16.485 26.6167 17.016C26.6167 17.547 27.047 17.9774 27.578 17.9774Z" fill="white"/>
<path d="M31.0186 12.1823H30.968C30.8162 12.157 30.715 12.0052 30.7403 11.8281C30.968 10.6644 31.9293 9.55124 31.9799 9.50064C32.0811 9.37415 32.2835 9.37415 32.3847 9.47534C32.5112 9.57653 32.5112 9.77892 32.41 9.88011C32.3847 9.90541 31.4993 10.9426 31.2969 11.9546C31.2716 12.1064 31.1451 12.1823 31.0186 12.1823Z" fill="url(#paint8_linear_2564_42554)"/>
<path d="M27.9574 3.43007C29.3741 3.43007 31.1197 4.11312 32.7388 5.30214C34.788 6.79474 35.9264 8.11024 36.2805 9.47635C36.4829 10.2606 36.3058 11.146 35.7999 11.8038C35.2686 12.4868 34.4844 12.8663 33.5483 12.8663C33.2195 12.8663 32.8653 12.8157 32.4858 12.7145C32.2581 13.2964 32.081 13.8782 31.9545 14.4348C33.4977 16.7875 34.4085 19.6209 34.4085 22.6567C34.4085 30.9293 27.7044 37.6333 19.4319 37.6333C11.1594 37.6333 4.48067 30.9293 4.48067 22.6567C4.48067 14.3842 11.1847 7.68017 19.4572 7.68017C21.2787 7.68017 23.0243 8.00905 24.6434 8.61621C24.9469 8.46442 25.3264 8.26203 25.7565 8.00905C25.6047 7.78137 25.4529 7.55368 25.377 7.326C25.0987 6.64295 25.1999 5.58042 25.63 4.77088C25.9842 4.11312 26.5154 3.65775 27.1732 3.50596C27.4009 3.45537 27.6791 3.43007 27.9574 3.43007ZM27.9574 3C27.6538 3 27.3503 3.0253 27.072 3.10119C26.313 3.27828 25.6553 3.78425 25.2252 4.59379C24.7446 5.52982 24.6181 6.74414 24.9469 7.52838C24.9975 7.62958 25.0481 7.75607 25.124 7.88256C24.9469 7.98375 24.7699 8.08495 24.5928 8.16084C22.9231 7.57898 21.2028 7.2754 19.4319 7.2754C17.3575 7.2754 15.3336 7.68017 13.4362 8.48972C11.5895 9.27396 9.94509 10.3871 8.52838 11.8038C7.11168 13.2205 5.99856 14.8649 5.21432 16.7116C4.40477 18.609 4 20.6329 4 22.7073C4 24.7818 4.40477 26.8056 5.21432 28.703C5.99856 30.5498 7.11168 32.1942 8.52838 33.6109C9.94509 35.0276 11.5895 36.1407 13.4362 36.9249C15.3336 37.7345 17.3575 38.1392 19.4319 38.1392C21.5064 38.1392 23.5302 37.7345 25.4276 36.9249C27.2744 36.1407 28.9188 35.0276 30.3355 33.6109C31.7522 32.1942 32.8653 30.5498 33.6495 28.703C34.4591 26.8056 34.8638 24.7818 34.8638 22.7073C34.8638 19.7474 34.029 16.8887 32.4352 14.4095C32.5111 14.03 32.6376 13.6506 32.7641 13.2711C33.0171 13.3217 33.2954 13.347 33.5483 13.347C34.6109 13.347 35.5469 12.9169 36.1541 12.1074C36.7359 11.3484 36.9636 10.2859 36.7106 9.40045C36.3058 7.93316 35.1421 6.54175 32.9918 4.99856C31.2968 3.70835 29.45 3 27.9574 3Z" fill="white"/>
<path d="M18.5213 33.2058C18.9125 33.2058 19.2297 32.8885 19.2297 32.4974C19.2297 32.1063 18.9125 31.7891 18.5213 31.7891C18.1302 31.7891 17.813 32.1063 17.813 32.4974C17.813 32.8885 18.1302 33.2058 18.5213 33.2058Z" fill="white" fill-opacity="0.2"/>
<path d="M18.1165 32.9529C17.8383 32.6746 17.8383 32.2192 18.1165 31.9409C18.1671 31.8903 18.2177 31.865 18.2683 31.8145C18.1671 31.8398 18.0912 31.8903 18.0154 31.9662C17.7371 32.2445 17.7371 32.6999 18.0154 32.9782C18.243 33.2059 18.5972 33.2565 18.8755 33.1047C18.6225 33.2059 18.3189 33.1553 18.1165 32.9529Z" fill="url(#paint9_linear_2564_42554)"/>
<path d="M18.7741 32.2958C18.8578 32.2958 18.9259 32.2277 18.9259 32.144C18.9259 32.0602 18.8578 31.9922 18.7741 31.9922C18.6904 31.9922 18.6223 32.0602 18.6223 32.144C18.6223 32.2277 18.6904 32.2958 18.7741 32.2958Z" fill="white" fill-opacity="0.3"/>
<path d="M22.2147 32.8522C22.6058 32.8522 22.923 32.535 22.923 32.1439C22.923 31.7528 22.6058 31.4355 22.2147 31.4355C21.8236 31.4355 21.5063 31.7528 21.5063 32.1439C21.5063 32.535 21.8236 32.8522 22.2147 32.8522Z" fill="white" fill-opacity="0.2"/>
<path d="M21.8099 32.5994C21.5316 32.3211 21.5316 31.8657 21.8099 31.5874C21.8605 31.5368 21.9111 31.5115 21.9617 31.4609C21.8605 31.4862 21.7846 31.5368 21.7087 31.6127C21.4304 31.891 21.4304 32.3464 21.7087 32.6247C21.9364 32.8523 22.2906 32.9029 22.5689 32.7511C22.3159 32.8523 22.0123 32.8017 21.8099 32.5994Z" fill="url(#paint10_linear_2564_42554)"/>
<path d="M22.4677 31.9403C22.5514 31.9403 22.6195 31.8722 22.6195 31.7885C22.6195 31.7048 22.5514 31.6367 22.4677 31.6367C22.384 31.6367 22.3159 31.7048 22.3159 31.7885C22.3159 31.8722 22.384 31.9403 22.4677 31.9403Z" fill="white" fill-opacity="0.3"/>
<path d="M20.3933 34.4961C20.6868 34.4961 20.9246 34.2583 20.9246 33.9649C20.9246 33.6714 20.6868 33.4336 20.3933 33.4336C20.0999 33.4336 19.8621 33.6714 19.8621 33.9649C19.8621 34.2583 20.0999 34.4961 20.3933 34.4961Z" fill="white" fill-opacity="0.2"/>
<path d="M20.0897 34.2938C19.8874 34.0914 19.8874 33.7373 20.0897 33.5349C20.115 33.5096 20.1656 33.4843 20.1909 33.459C20.115 33.4843 20.0644 33.5349 20.0139 33.5855C19.8115 33.7879 19.8115 34.142 20.0139 34.3444C20.1909 34.5215 20.4439 34.5468 20.6716 34.4203C20.4692 34.4962 20.2415 34.4456 20.0897 34.2938Z" fill="url(#paint11_linear_2564_42554)"/>
<path d="M20.5704 33.7883C20.6263 33.7883 20.6716 33.743 20.6716 33.6871C20.6716 33.6312 20.6263 33.5859 20.5704 33.5859C20.5145 33.5859 20.4692 33.6312 20.4692 33.6871C20.4692 33.743 20.5145 33.7883 20.5704 33.7883Z" fill="white" fill-opacity="0.3"/>
<path d="M23.6569 34.1172C23.9503 34.1172 24.1881 33.8794 24.1881 33.5859C24.1881 33.2925 23.9503 33.0547 23.6569 33.0547C23.3634 33.0547 23.1256 33.2925 23.1256 33.5859C23.1256 33.8794 23.3634 34.1172 23.6569 34.1172Z" fill="white" fill-opacity="0.2"/>
<path d="M23.3533 33.9149C23.1509 33.7125 23.1509 33.3584 23.3533 33.156C23.3786 33.1307 23.4292 33.1054 23.4545 33.0801C23.3786 33.1054 23.328 33.156 23.2774 33.2066C23.075 33.409 23.075 33.7631 23.2774 33.9655C23.4545 34.1426 23.7075 34.1679 23.9352 34.0414C23.7328 34.1173 23.5051 34.0667 23.3533 33.9149Z" fill="url(#paint12_linear_2564_42554)"/>
<path d="M23.8337 33.4094C23.8896 33.4094 23.9349 33.3641 23.9349 33.3082C23.9349 33.2523 23.8896 33.207 23.8337 33.207C23.7778 33.207 23.7325 33.2523 23.7325 33.3082C23.7325 33.3641 23.7778 33.4094 23.8337 33.4094Z" fill="white" fill-opacity="0.3"/>
<path d="M15.5108 32.9524C16.1536 32.9524 16.6745 32.4315 16.6745 31.7887C16.6745 31.1461 16.1536 30.625 15.5108 30.625C14.8682 30.625 14.347 31.1461 14.347 31.7887C14.347 32.4315 14.8682 32.9524 15.5108 32.9524Z" fill="white" fill-opacity="0.2"/>
<path d="M14.8531 32.5226C14.3977 32.0673 14.3977 31.3336 14.8531 30.8783C14.929 30.8024 15.0048 30.7518 15.106 30.7012C14.9543 30.7518 14.8278 30.853 14.7013 30.9542C14.2459 31.4095 14.2459 32.1432 14.7013 32.5985C15.0807 32.978 15.6626 33.0539 16.118 32.7756C15.6879 32.9527 15.1819 32.8768 14.8531 32.5226Z" fill="url(#paint13_linear_2564_42554)"/>
<path d="M15.9156 31.4357C16.0552 31.4357 16.1686 31.3223 16.1686 31.1827C16.1686 31.043 16.0552 30.9297 15.9156 30.9297C15.7759 30.9297 15.6626 31.043 15.6626 31.1827C15.6626 31.3223 15.7759 31.4357 15.9156 31.4357Z" fill="white" fill-opacity="0.3"/>
<path d="M25.9085 30.095C26.5513 30.095 27.0722 29.5741 27.0722 28.9313C27.0722 28.2887 26.5513 27.7676 25.9085 27.7676C25.2659 27.7676 24.7448 28.2887 24.7448 28.9313C24.7448 29.5741 25.2659 30.095 25.9085 30.095Z" fill="white" fill-opacity="0.2"/>
<path d="M25.2252 29.6652C24.7699 29.2099 24.7699 28.4762 25.2252 28.0208C25.3011 27.9449 25.377 27.8943 25.4782 27.8438C25.3264 27.8943 25.2 27.9955 25.0735 28.0967C24.6181 28.5521 24.6181 29.2858 25.0735 29.7411C25.4529 30.1206 26.0348 30.1965 26.4902 29.9182C26.0601 30.0953 25.5794 30.0194 25.2252 29.6652Z" fill="url(#paint14_linear_2564_42554)"/>
<path d="M26.3132 28.5763C26.4528 28.5763 26.5661 28.4629 26.5661 28.3233C26.5661 28.1836 26.4528 28.0703 26.3132 28.0703C26.1735 28.0703 26.0602 28.1836 26.0602 28.3233C26.0602 28.4629 26.1735 28.5763 26.3132 28.5763Z" fill="white" fill-opacity="0.3"/>
<defs>
<radialGradient id="paint0_radial_2564_42554" cx="0" cy="0" r="1" gradientUnits="userSpaceOnUse" gradientTransform="translate(35.1108 8.08429) scale(11.3069 11.3069)">
<stop stop-color="#FFEAFF" stop-opacity="0.6"/>
<stop offset="0.68" stop-color="#A087C9"/>
<stop offset="1" stop-color="#10002F"/>
</radialGradient>
<radialGradient id="paint1_radial_2564_42554" cx="0" cy="0" r="1" gradientUnits="userSpaceOnUse" gradientTransform="translate(28.8204 12.9078) scale(27.6639)">
<stop stop-color="#FFEAFF" stop-opacity="0.6"/>
<stop offset="0.68" stop-color="#A087C9"/>
<stop offset="1" stop-color="#10002F"/>
</radialGradient>
<linearGradient id="paint2_linear_2564_42554" x1="17.1889" y1="36.5984" x2="21.7122" y2="8.69271" gradientUnits="userSpaceOnUse">
<stop stop-color="#81FFFF" stop-opacity="0.6"/>
<stop offset="0.62" stop-color="white" stop-opacity="0"/>
<stop offset="1" stop-color="white" stop-opacity="0"/>
</linearGradient>
<linearGradient id="paint3_linear_2564_42554" x1="29.4235" y1="13.0529" x2="17.7297" y2="23.7823" gradientUnits="userSpaceOnUse">
<stop stop-color="white" stop-opacity="0.6"/>
<stop offset="0.29" stop-color="white" stop-opacity="0.6"/>
<stop offset="0.78" stop-color="white" stop-opacity="0"/>
<stop offset="1" stop-color="white" stop-opacity="0"/>
</linearGradient>
<linearGradient id="paint4_linear_2564_42554" x1="6.01005" y1="29.2401" x2="32.8841" y2="29.2401" gradientUnits="userSpaceOnUse">
<stop stop-color="#0002E9"/>
<stop offset="1" stop-color="#FF00C7"/>
</linearGradient>
<linearGradient id="paint5_linear_2564_42554" x1="34.1563" y1="23.71" x2="19.5288" y2="37.5339" gradientUnits="userSpaceOnUse">
<stop stop-color="white" stop-opacity="0.6"/>
<stop offset="0.29" stop-color="white" stop-opacity="0.6"/>
<stop offset="0.78" stop-color="white" stop-opacity="0"/>
<stop offset="1" stop-color="white" stop-opacity="0"/>
</linearGradient>
<linearGradient id="paint6_linear_2564_42554" x1="6.01005" y1="29.2401" x2="20.3876" y2="29.2401" gradientUnits="userSpaceOnUse">
<stop stop-color="#000292" stop-opacity="0.7"/>
<stop offset="1" stop-color="#7D00C7" stop-opacity="0.7"/>
</linearGradient>
<linearGradient id="paint7_linear_2564_42554" x1="6.02808" y1="23.773" x2="32.8662" y2="23.773" gradientUnits="userSpaceOnUse">
<stop stop-color="#000292"/>
<stop offset="1" stop-color="#BE00C7"/>
</linearGradient>
<linearGradient id="paint8_linear_2564_42554" x1="32.4257" y1="9.37744" x2="30.497" y2="12.5119" gradientUnits="userSpaceOnUse">
<stop stop-color="white" stop-opacity="0.6"/>
<stop offset="0.29" stop-color="white" stop-opacity="0.6"/>
<stop offset="0.78" stop-color="white" stop-opacity="0"/>
<stop offset="1" stop-color="white" stop-opacity="0"/>
</linearGradient>
<linearGradient id="paint9_linear_2564_42554" x1="17.8059" y1="32.5193" x2="18.8763" y2="32.5193" gradientUnits="userSpaceOnUse">
<stop stop-color="white" stop-opacity="0.6"/>
<stop offset="0.29" stop-color="white" stop-opacity="0.6"/>
<stop offset="0.78" stop-color="white" stop-opacity="0"/>
<stop offset="1" stop-color="white" stop-opacity="0"/>
</linearGradient>
<linearGradient id="paint10_linear_2564_42554" x1="21.4967" y1="32.1609" x2="22.5671" y2="32.1609" gradientUnits="userSpaceOnUse">
<stop stop-color="white" stop-opacity="0.6"/>
<stop offset="0.29" stop-color="white" stop-opacity="0.6"/>
<stop offset="0.78" stop-color="white" stop-opacity="0"/>
<stop offset="1" stop-color="white" stop-opacity="0"/>
</linearGradient>
<linearGradient id="paint11_linear_2564_42554" x1="19.8587" y1="33.971" x2="20.6623" y2="33.971" gradientUnits="userSpaceOnUse">
<stop stop-color="white" stop-opacity="0.6"/>
<stop offset="0.29" stop-color="white" stop-opacity="0.6"/>
<stop offset="0.78" stop-color="white" stop-opacity="0"/>
<stop offset="1" stop-color="white" stop-opacity="0"/>
</linearGradient>
<linearGradient id="paint12_linear_2564_42554" x1="23.1114" y1="33.5911" x2="23.9149" y2="33.5911" gradientUnits="userSpaceOnUse">
<stop stop-color="white" stop-opacity="0.6"/>
<stop offset="0.29" stop-color="white" stop-opacity="0.6"/>
<stop offset="0.78" stop-color="white" stop-opacity="0"/>
<stop offset="1" stop-color="white" stop-opacity="0"/>
</linearGradient>
<linearGradient id="paint13_linear_2564_42554" x1="14.3481" y1="31.8186" x2="16.0961" y2="31.8186" gradientUnits="userSpaceOnUse">
<stop stop-color="white" stop-opacity="0.6"/>
<stop offset="0.29" stop-color="white" stop-opacity="0.6"/>
<stop offset="0.78" stop-color="white" stop-opacity="0"/>
<stop offset="1" stop-color="white" stop-opacity="0"/>
</linearGradient>
<linearGradient id="paint14_linear_2564_42554" x1="24.73" y1="28.9604" x2="26.478" y2="28.9604" gradientUnits="userSpaceOnUse">
<stop stop-color="white" stop-opacity="0.6"/>
<stop offset="0.29" stop-color="white" stop-opacity="0.6"/>
<stop offset="0.78" stop-color="white" stop-opacity="0"/>
<stop offset="1" stop-color="white" stop-opacity="0"/>
</linearGradient>
</defs>
</svg>
