<svg width="44" height="44" xmlns="http://www.w3.org/2000/svg" viewBox="0 0 71 71">
  <g id="Group_14406" data-name="Group 14406" transform="translate(2799 3405)">
    <circle cx="35.5" cy="35.5" r="35.5" transform="translate(-2799 -3405)" fill="#2e3148" />
    <g id="Group_14404" data-name="Group 14404" transform="translate(-2793 -3399)">
      <path
        d="M55.158,81.276A29.33,29.33,0,0,0,81.276,55.158H77.649A25.365,25.365,0,0,1,55.158,77.949Z"
        transform="translate(-23.032 -23.032)"
        fill="#fff"
      />
      <path
        d="M0,55.158A29.33,29.33,0,0,0,26.117,81.276V77.949A25.4,25.4,0,0,1,3.627,55.158Z"
        transform="translate(0 -23.032)"
        fill="#fff"
      />
      <path
        d="M81.276,26.117A29.33,29.33,0,0,0,55.158,0V3.326A25.4,25.4,0,0,1,77.649,26.117Z"
        transform="translate(-23.032)"
        fill="#fff"
      />
      <path d="M26.117,0A29.33,29.33,0,0,0,0,26.117H3.627A25.365,25.365,0,0,1,26.117,3.326Z" fill="#fff" />
    </g>
    <circle cx="15" cy="15" r="15" transform="translate(-2779 -3384)" fill="#1b1e36" />
    <g transform="translate(-2783.046 -3389.122)">
      <path
        d="M19.841,0A82.04,82.04,0,0,1,33.657,1.031a20.734,20.734,0,0,1,4.252,1.138,4.667,4.667,0,0,1,1.241.725A1.349,1.349,0,0,1,39.681,3.9a1.349,1.349,0,0,1-.532,1.007,4.667,4.667,0,0,1-1.241.725,20.734,20.734,0,0,1-4.252,1.138A82.04,82.04,0,0,1,19.841,7.8,82.04,82.04,0,0,1,6.024,6.772,20.734,20.734,0,0,1,1.772,5.634,4.667,4.667,0,0,1,.532,4.909,1.349,1.349,0,0,1,0,3.9,1.349,1.349,0,0,1,.532,2.894a4.667,4.667,0,0,1,1.241-.725A20.734,20.734,0,0,1,6.024,1.031,82.04,82.04,0,0,1,19.841,0Zm0,7A81.229,81.229,0,0,0,33.514,5.98a19.979,19.979,0,0,0,4.079-1.086c1.19-.507,1.283-.887,1.283-.992s-.093-.485-1.283-.992a19.979,19.979,0,0,0-4.079-1.086A81.229,81.229,0,0,0,19.841.8,81.229,81.229,0,0,0,6.167,1.823,19.979,19.979,0,0,0,2.087,2.91C.9,3.416.8,3.8.8,3.9s.093.485,1.283.992A19.979,19.979,0,0,0,6.167,5.98,81.229,81.229,0,0,0,19.841,7Z"
        transform="matrix(0.866, -0.5, 0.5, 0.866, 0, 26.382)"
        fill="#898daf"
      />
      <path
        d="M3.9,0A1.349,1.349,0,0,1,4.909.532a4.667,4.667,0,0,1,.725,1.241A20.734,20.734,0,0,1,6.772,6.024,82.04,82.04,0,0,1,7.8,19.841,82.04,82.04,0,0,1,6.772,33.657a20.734,20.734,0,0,1-1.138,4.252,4.667,4.667,0,0,1-.725,1.241,1.349,1.349,0,0,1-1.007.532,1.349,1.349,0,0,1-1.007-.532,4.667,4.667,0,0,1-.725-1.241,20.734,20.734,0,0,1-1.138-4.252A82.04,82.04,0,0,1,0,19.841,82.04,82.04,0,0,1,1.031,6.024,20.734,20.734,0,0,1,2.169,1.772,4.667,4.667,0,0,1,2.894.532,1.349,1.349,0,0,1,3.9,0Zm0,38.876c.1,0,.485-.093.992-1.283A19.979,19.979,0,0,0,5.98,33.514,81.229,81.229,0,0,0,7,19.841,81.229,81.229,0,0,0,5.98,6.167,19.979,19.979,0,0,0,4.893,2.087C4.387.9,4.006.8,3.9.8S3.416.9,2.91,2.087A19.979,19.979,0,0,0,1.823,6.167,81.229,81.229,0,0,0,.8,19.841,81.229,81.229,0,0,0,1.823,33.514,19.979,19.979,0,0,0,2.91,37.594C3.416,38.784,3.8,38.876,3.9,38.876Z"
        transform="matrix(0.5, -0.866, 0.866, 0.5, 0, 13.299)"
        fill="#898daf"
      />
      <path
        d="M2.151-1.75a1.349,1.349,0,0,1,1.007.532A4.667,4.667,0,0,1,3.884.022,20.734,20.734,0,0,1,5.022,4.274,82.04,82.04,0,0,1,6.053,18.091,82.04,82.04,0,0,1,5.022,31.907a20.734,20.734,0,0,1-1.138,4.252A4.667,4.667,0,0,1,3.159,37.4a1.349,1.349,0,0,1-1.007.532A1.349,1.349,0,0,1,1.144,37.4a4.667,4.667,0,0,1-.725-1.241A20.734,20.734,0,0,1-.719,31.907,82.04,82.04,0,0,1-1.75,18.091,82.04,82.04,0,0,1-.719,4.274,20.734,20.734,0,0,1,.419.022a4.667,4.667,0,0,1,.725-1.241A1.349,1.349,0,0,1,2.151-1.75Zm0,38.876c.1,0,.485-.093.992-1.283A19.979,19.979,0,0,0,4.23,31.764,81.229,81.229,0,0,0,5.248,18.091,81.229,81.229,0,0,0,4.23,4.417,19.979,19.979,0,0,0,3.143.337C2.637-.853,2.256-.945,2.151-.945S1.666-.853,1.16.337A19.979,19.979,0,0,0,.073,4.417,81.229,81.229,0,0,0-.945,18.091,81.229,81.229,0,0,0,.073,31.764,19.979,19.979,0,0,0,1.16,35.844C1.666,37.034,2.047,37.126,2.151,37.126Z"
        transform="translate(16.982 1.75)"
        fill="#898daf"
      />
      <ellipse cx="1.687" cy="1.687" rx="1.687" ry="1.687" transform="translate(28.248 9.29)" fill="#fff" />
      <ellipse cx="1.607" cy="1.607" rx="1.607" ry="1.607" transform="translate(3.595 12.865)" fill="#fff" />
      <ellipse cx="1.687" cy="1.687" rx="1.687" ry="1.687" transform="translate(15.232 33.105)" fill="#fff" />
      <ellipse cx="2.088" cy="2.088" rx="2.088" ry="2.088" transform="translate(17.016 17.769)" fill="#fff" />
    </g>
  </g>
</svg>
