<svg width="53" height="53" viewBox="0 0 53 53" fill="none" xmlns="http://www.w3.org/2000/svg">
<path d="M30.551 39.3904L46.4957 46.9485C47.3125 47.3357 48.2903 46.9895 48.6489 46.1598C52.3756 37.5382 54.6879 25.4029 50.5521 16.0677C46.6567 7.27525 37.0234 4.88665 33.613 5.38633L27.3563 8.77533C29.7241 9.2098 34.4988 12.1643 34.6552 20.5064C34.7846 27.4096 32.0077 33.4797 29.8766 36.7963C29.3017 37.691 29.59 38.9348 30.551 39.3904Z" fill="#2B80D7"/>
<mask id="mask0_1274_609" style="mask-type:alpha" maskUnits="userSpaceOnUse" x="27" y="5" width="26" height="43">
<path d="M30.5516 39.3917L46.4963 46.9499C47.3131 47.3371 48.2909 46.9909 48.6495 46.1612C52.3762 37.5395 54.6885 25.4042 50.5527 16.069C46.6573 7.27659 37.024 4.88799 33.6136 5.38767L27.3569 8.77667C29.7247 9.21114 34.4994 12.1656 34.6558 20.5077C34.7852 27.4109 32.0083 33.481 29.8772 36.7977C29.3023 37.6924 29.5906 38.9362 30.5516 39.3917Z" fill="#DEA00D"/>
</mask>
<g mask="url(#mask0_1274_609)">
<g filter="url(#filter0_f_1274_609)">
<path d="M35.43 41.9823C43.8305 35.9297 55.0873 11.262 49.4403 6.38479C47.3641 4.59154 28.4144 5.01572 26.7214 3.67615L28.1013 5.73019C28.1013 5.73019 33.6492 12.6791 33.2861 23.5914C33.0631 30.293 30.6551 37.2211 29.1589 40.6079C28.9143 41.1616 17.7985 35.6766 17.5897 36.1021C16.9959 37.3118 27.8966 42.7115 27.8966 42.7115L34.8799 42.177C35.0802 42.1617 35.2669 42.0997 35.43 41.9823Z" fill="url(#paint0_linear_1274_609)"/>
</g>
<g filter="url(#filter1_f_1274_609)">
<path d="M48.8412 48.572C57.0569 42.3909 64.6825 24.0318 58.9484 13.7734C57.6098 11.3786 47.5863 4.52572 45.8933 3.18616L45.3671 10.0122C45.3671 10.0122 51.5537 15.9726 51.1898 26.9056C50.9045 35.4793 48.4855 42.0154 47.4546 44.4372C47.2057 45.0221 46.5398 45.2786 45.9505 45.0403C43.1664 43.9142 35.7813 40.8679 36.0397 40.3413C35.4459 41.551 46.2461 47.882 46.2461 47.882L47.6624 48.6452C48.04 48.8487 48.4984 48.8299 48.8412 48.572Z" fill="url(#paint1_linear_1274_609)"/>
</g>
<g opacity="0.8" filter="url(#filter2_f_1274_609)">
<rect width="20.739" height="17.3594" rx="3.27252" transform="matrix(0.949979 0.312314 -0.312274 0.949992 28.3636 25.1388)" fill="#13497E"/>
</g>
<g opacity="0.7" filter="url(#filter3_f_1274_609)">
<path d="M29.9941 35.3376C36.6567 30.6853 37.6748 15.8532 31.9084 10.1299C30.4219 8.65459 28.2035 7.07081 26.7728 6.08325L27.9389 7.59754C27.9389 7.59754 32.6273 12.7205 32.3204 20.7653C32.1319 25.7059 30.097 30.8134 28.8326 33.3103C28.626 33.7184 19.2323 29.6748 19.0558 29.9885C18.554 30.8803 27.7659 34.8611 27.7659 34.8611L28.9306 35.4086C29.2756 35.5708 29.6815 35.5558 29.9941 35.3376Z" fill="#2B80D7"/>
</g>
</g>
<path d="M42.2954 32.8618L27.662 27.5656C27.2081 27.4013 26.7124 27.662 26.572 28.1239C25.5551 31.4666 22.8876 37.5012 17.7071 39.7624C10.8944 42.7361 8.6529 36.0832 11.6506 44.4905C14.6484 52.8978 24.554 55.3092 33.6124 50.1605C40.1787 46.4283 42.7109 38.8112 43.3225 34.5047C43.425 33.7828 42.981 33.1099 42.2954 32.8618Z" fill="url(#paint2_linear_1274_609)"/>
<mask id="mask1_1274_609" style="mask-type:alpha" maskUnits="userSpaceOnUse" x="10" y="27" width="34" height="26">
<path d="M42.2951 32.8631L27.6618 27.5669C27.2079 27.4026 26.7122 27.6634 26.5717 28.1252C25.5549 31.4679 22.8874 37.5025 17.7069 39.7638C10.8942 42.7375 8.65266 36.0845 11.6504 44.4918C14.6481 52.8991 24.5537 55.3105 33.6121 50.1618C40.1785 46.4296 42.7107 38.8126 43.3222 34.5061C43.4248 33.7842 42.9807 33.1112 42.2951 32.8631Z" fill="url(#paint3_radial_1274_609)"/>
</mask>
<g mask="url(#mask1_1274_609)">
<g filter="url(#filter4_f_1274_609)">
<path d="M19.4635 55.1139C33.6667 55.1139 39.6078 29.4824 37.9542 25.1302C37.8652 24.896 37.6491 24.7476 37.41 24.6726L11.0223 16.3954L27.0792 23.0175C27.2566 23.0906 27.3591 23.2746 27.3207 23.4625C27.0114 24.974 25.496 31.4997 21.6587 35.641C17.2962 40.3491 8.28575 41.4055 4.56891 40.5276C2.58967 40.5245 1.47241 39.8473 1.47241 39.8473C5.97332 42.7719 12.437 55.1139 19.4635 55.1139Z" fill="url(#paint4_linear_1274_609)"/>
</g>
<g opacity="0.4" filter="url(#filter5_f_1274_609)">
<path d="M21.0994 38.9353C26.8707 35.0249 31.175 20.2127 30.0243 16.0871C29.9205 15.715 29.5607 15.5111 29.1748 15.4939L13.7142 14.8031L27.171 21.4189C27.3304 21.4972 27.4213 21.6652 27.3915 21.8403C27.144 23.2934 25.8775 29.8795 22.6368 34.0487C18.9771 38.7569 11.4186 39.8132 8.3006 38.9353C6.64027 38.9322 5.78308 39.6046 5.78308 39.6046C9.55876 42.5291 15.975 42.4075 21.0994 38.9353Z" fill="#3EBADD"/>
</g>
<g filter="url(#filter6_f_1274_609)">
<path d="M34.0651 51.424C41.0149 47.4738 47.1219 31.6167 45.6792 27.6071C45.5696 27.3027 45.2694 27.1379 44.9482 27.0991L26.5357 24.8771L26.1177 27.5782L40.6586 33.2562C41.1341 33.4419 41.4413 33.9011 41.3787 34.4077C41.1483 36.2709 40.1632 40.9552 35.9576 45.7411C30.5334 51.914 22.6916 51.6216 18.9748 50.7437C16.9955 50.7406 16.5084 50.7437 16.5084 50.7437C20.7437 53.7535 27.9563 54.8961 34.0651 51.424Z" fill="url(#paint5_linear_1274_609)"/>
</g>
</g>
<path d="M20.1886 25.5227C15.7572 33.8607 11.469 50.9348 25.0241 52.8249C19.7231 53.2327 7.67545 50.51 2.20131 37.5797C-4.64136 21.4169 8.78406 1.99533 23.7728 0.235657C38.426 -1.48462 45.9789 6.51196 50.3284 15.5786C50.4401 15.7942 50.538 16.0033 50.6222 16.203C50.5259 15.9944 50.428 15.7862 50.3284 15.5786C48.6548 12.3462 43.8932 7.63284 35.829 10.6633C29.9956 12.8554 23.5979 19.1079 20.1886 25.5227Z" fill="#2CBBF9"/>
<mask id="mask2_1274_609" style="mask-type:alpha" maskUnits="userSpaceOnUse" x="0" y="0" width="51" height="53">
<path d="M20.1885 25.5218C15.757 33.8599 11.4688 50.934 25.024 52.824C19.723 53.2318 7.67532 50.5092 2.20119 37.5789C-4.64148 21.416 8.78394 1.99447 23.7726 0.234803C38.4258 -1.48548 45.9788 6.51111 50.3283 15.5778C50.4399 15.7934 50.5378 16.0024 50.6221 16.2021C50.5258 15.9935 50.4279 15.7853 50.3283 15.5778C48.6546 12.3454 43.893 7.63199 35.8289 10.6624C29.9955 12.8545 23.5978 19.1071 20.1885 25.5218Z" fill="#00CCC0"/>
</mask>
<g mask="url(#mask2_1274_609)">
<g filter="url(#filter7_f_1274_609)">
<path d="M-11.0391 37.2199C-5.56499 50.1502 19.3336 54.0223 24.6346 53.6146C24.9006 51.1062 17.2947 45.6602 17.56 39.6003C17.56 39.6003 7.8612 39.9109 6.38023 25.521C4.89926 11.1312 13.1528 3.88928 13.1528 3.88928C3.3127 8.74026 -14.0005 30.2249 -11.0391 37.2199Z" fill="url(#paint6_linear_1274_609)"/>
<path d="M50.6214 16.2039C76.1727 -4.42054 32.9469 -9.18161 17.9582 -7.42194C11.7185 -6.68941 -4.69495 9.80828 1.76601 16.9078C1.76601 16.9078 8.46616 9.48505 17.9582 8.12895C27.4501 6.77286 31.8456 13.6157 31.8456 13.6157C33.0021 12.9063 36.043 12.7109 37.1829 12.2826C45.785 9.05 50.201 15.3178 50.6214 16.2039Z" fill="url(#paint7_linear_1274_609)"/>
</g>
<g filter="url(#filter8_f_1274_609)">
<path d="M2.82541 39.2447C-12.4298 34.4269 -5.0875 1.70666 10.2179 -2.9763C23.989 -7.1898 25.1238 -0.56923 27.5462 -0.165868C27.8607 -0.175584 28.0312 -0.169353 28.0312 -0.169353C27.8618 -0.139702 27.7014 -0.140034 27.5462 -0.165868C25.7265 -0.109645 19.0847 0.480553 12.7508 5.90199C3.22466 14.0557 -0.610822 27.0912 2.82541 39.2447Z" fill="#56E5FF"/>
</g>
<g filter="url(#filter9_f_1274_609)">
<path d="M27.4933 52.7973C23.254 57.5696 5.90173 51.7666 0.427595 38.8363C-0.557969 36.5083 0.513611 29.3663 0.442404 26.5906C0.429997 26.3823 0.427595 26.2709 0.427595 26.2709C0.434613 26.3696 0.439475 26.4764 0.442404 26.5906C0.534485 28.1361 1.17767 35.0136 5.48022 41.2288C10.3625 48.2814 20.3908 51.0437 20.3908 51.0437C21.6994 51.9746 25.3959 52.5048 27.4933 52.7973Z" fill="#FDC7C7"/>
</g>
<mask id="mask3_1274_609" style="mask-type:alpha" maskUnits="userSpaceOnUse" x="-8" y="24" width="34" height="34">
<rect width="34.7902" height="12.2157" transform="matrix(0.69628 0.717771 -0.717721 0.696331 1.68079 24.5073)" fill="url(#paint8_linear_1274_609)"/>
</mask>
<g mask="url(#mask3_1274_609)">
<path d="M27.4946 52.7968C23.2553 57.5691 5.90307 51.7661 0.428938 38.8358C-0.556626 36.5079 0.514954 29.3658 0.443747 26.5901C0.43134 26.3818 0.428938 26.2704 0.428938 26.2704C0.435956 26.3691 0.440818 26.4759 0.443747 26.5901C0.535828 28.1357 1.17902 35.0131 5.48156 41.2283C10.3638 48.2809 20.3922 51.0433 20.3922 51.0433C21.7007 51.9741 25.3972 52.5043 27.4946 52.7968Z" fill="#FDC7C7"/>
</g>
<g filter="url(#filter10_f_1274_609)">
<path d="M51.7048 16.8825C52.8211 8.77001 38.3476 -3.80161 23.3588 -2.04194C17.936 -1.40529 13.1311 3.81992 9.0033 8.0896C9.0033 8.0896 18.3711 -0.235517 29.7755 1.36605C41.1798 2.96763 46.2753 11.4123 46.2753 11.4123C48.6567 12.8049 49.7433 17.0846 51.7048 16.8825Z" fill="#EFC7FD"/>
</g>
<mask id="mask4_1274_609" style="mask-type:alpha" maskUnits="userSpaceOnUse" x="7" y="-4" width="44" height="21">
<rect width="41.3631" height="13.891" transform="matrix(0.989127 0.147065 -0.147045 0.98913 9.28711 -3.58533)" fill="url(#paint9_linear_1274_609)"/>
</mask>
<g mask="url(#mask4_1274_609)">
<path d="M51.7048 16.8843C52.8211 8.77184 38.3476 -3.79978 23.3588 -2.04011C17.936 -1.40346 13.1311 3.82175 9.0033 8.09143C9.0033 8.09143 18.3711 -0.233686 29.7755 1.36788C41.1798 2.96946 46.2753 11.4141 46.2753 11.4141C48.6567 12.8068 49.7433 17.0865 51.7048 16.8843Z" fill="#EFC7FD"/>
</g>
<g filter="url(#filter11_f_1274_609)">
<path d="M34.356 8.62477C19.0017 13.467 5.40076 41.7299 18.6165 52.3315C31.8323 62.9331 47.2819 42.7946 55.0547 26.4834C51.209 15.5216 49.7103 3.78251 34.356 8.62477Z" fill="url(#paint10_linear_1274_609)"/>
</g>
<mask id="mask5_1274_609" style="mask-type:alpha" maskUnits="userSpaceOnUse" x="-7" y="-8" width="67" height="70">
<rect width="44.7621" height="53.4" transform="matrix(0.85552 0.51777 -0.517716 0.855552 20.9257 -7.74658)" fill="url(#paint11_linear_1274_609)"/>
</mask>
<g mask="url(#mask5_1274_609)">
<path d="M34.3545 8.62403C19.0003 13.4663 5.39929 41.7292 18.615 52.3308C31.8308 62.9324 47.2805 42.7938 55.0532 26.4827C51.2075 15.5208 49.7088 3.78178 34.3545 8.62403Z" fill="url(#paint12_linear_1274_609)"/>
</g>
</g>
<defs>
<filter id="filter0_f_1274_609" x="11.4303" y="-2.45983" width="45.6699" height="51.3073" filterUnits="userSpaceOnUse" color-interpolation-filters="sRGB">
<feFlood flood-opacity="0" result="BackgroundImageFix"/>
<feBlend mode="normal" in="SourceGraphic" in2="BackgroundImageFix" result="shape"/>
<feGaussianBlur stdDeviation="3.06799" result="effect1_foregroundBlur_1274_609"/>
</filter>
<filter id="filter1_f_1274_609" x="35.8116" y="2.98162" width="25.3381" height="46.0062" filterUnits="userSpaceOnUse" color-interpolation-filters="sRGB">
<feFlood flood-opacity="0" result="BackgroundImageFix"/>
<feBlend mode="normal" in="SourceGraphic" in2="BackgroundImageFix" result="shape"/>
<feGaussianBlur stdDeviation="0.102266" result="effect1_foregroundBlur_1274_609"/>
</filter>
<filter id="filter2_f_1274_609" x="18.0733" y="20.2693" width="34.8615" height="32.7074" filterUnits="userSpaceOnUse" color-interpolation-filters="sRGB">
<feFlood flood-opacity="0" result="BackgroundImageFix"/>
<feBlend mode="normal" in="SourceGraphic" in2="BackgroundImageFix" result="shape"/>
<feGaussianBlur stdDeviation="2.86346" result="effect1_foregroundBlur_1274_609"/>
</filter>
<filter id="filter3_f_1274_609" x="18.2179" y="5.26512" width="18.277" height="31.0706" filterUnits="userSpaceOnUse" color-interpolation-filters="sRGB">
<feFlood flood-opacity="0" result="BackgroundImageFix"/>
<feBlend mode="normal" in="SourceGraphic" in2="BackgroundImageFix" result="shape"/>
<feGaussianBlur stdDeviation="0.409065" result="effect1_foregroundBlur_1274_609"/>
</filter>
<filter id="filter4_f_1274_609" x="-2.61824" y="12.3047" width="44.9323" height="46.8999" filterUnits="userSpaceOnUse" color-interpolation-filters="sRGB">
<feFlood flood-opacity="0" result="BackgroundImageFix"/>
<feBlend mode="normal" in="SourceGraphic" in2="BackgroundImageFix" result="shape"/>
<feGaussianBlur stdDeviation="2.04533" result="effect1_foregroundBlur_1274_609"/>
</filter>
<filter id="filter5_f_1274_609" x="4.96495" y="13.985" width="26.0645" height="28.511" filterUnits="userSpaceOnUse" color-interpolation-filters="sRGB">
<feFlood flood-opacity="0" result="BackgroundImageFix"/>
<feBlend mode="normal" in="SourceGraphic" in2="BackgroundImageFix" result="shape"/>
<feGaussianBlur stdDeviation="0.409065" result="effect1_foregroundBlur_1274_609"/>
</filter>
<filter id="filter6_f_1274_609" x="16.3039" y="24.6725" width="29.7929" height="29.0937" filterUnits="userSpaceOnUse" color-interpolation-filters="sRGB">
<feFlood flood-opacity="0" result="BackgroundImageFix"/>
<feBlend mode="normal" in="SourceGraphic" in2="BackgroundImageFix" result="shape"/>
<feGaussianBlur stdDeviation="0.102266" result="effect1_foregroundBlur_1274_609"/>
</filter>
<filter id="filter7_f_1274_609" x="-17.9203" y="-14.303" width="82.9972" height="74.4912" filterUnits="userSpaceOnUse" color-interpolation-filters="sRGB">
<feFlood flood-opacity="0" result="BackgroundImageFix"/>
<feBlend mode="normal" in="SourceGraphic" in2="BackgroundImageFix" result="shape"/>
<feGaussianBlur stdDeviation="3.27252" result="effect1_foregroundBlur_1274_609"/>
</filter>
<filter id="filter8_f_1274_609" x="-6.39906" y="-5.19179" width="35.2483" height="45.2546" filterUnits="userSpaceOnUse" color-interpolation-filters="sRGB">
<feFlood flood-opacity="0" result="BackgroundImageFix"/>
<feBlend mode="normal" in="SourceGraphic" in2="BackgroundImageFix" result="shape"/>
<feGaussianBlur stdDeviation="0.409065" result="effect1_foregroundBlur_1274_609"/>
</filter>
<filter id="filter9_f_1274_609" x="-0.809586" y="25.4527" width="29.121" height="29.8199" filterUnits="userSpaceOnUse" color-interpolation-filters="sRGB">
<feFlood flood-opacity="0" result="BackgroundImageFix"/>
<feBlend mode="normal" in="SourceGraphic" in2="BackgroundImageFix" result="shape"/>
<feGaussianBlur stdDeviation="0.409065" result="effect1_foregroundBlur_1274_609"/>
</filter>
<filter id="filter10_f_1274_609" x="8.18516" y="-3.02675" width="44.3983" height="20.7343" filterUnits="userSpaceOnUse" color-interpolation-filters="sRGB">
<feFlood flood-opacity="0" result="BackgroundImageFix"/>
<feBlend mode="normal" in="SourceGraphic" in2="BackgroundImageFix" result="shape"/>
<feGaussianBlur stdDeviation="0.409065" result="effect1_foregroundBlur_1274_609"/>
</filter>
<filter id="filter11_f_1274_609" x="13.0668" y="7.29827" width="42.1924" height="48.1895" filterUnits="userSpaceOnUse" color-interpolation-filters="sRGB">
<feFlood flood-opacity="0" result="BackgroundImageFix"/>
<feBlend mode="normal" in="SourceGraphic" in2="BackgroundImageFix" result="shape"/>
<feGaussianBlur stdDeviation="0.102266" result="effect1_foregroundBlur_1274_609"/>
</filter>
<linearGradient id="paint0_linear_1274_609" x1="38.4686" y1="10.2727" x2="38.2093" y2="42.9311" gradientUnits="userSpaceOnUse">
<stop stop-color="#13497E"/>
<stop offset="0.640419" stop-color="#2B80D7"/>
</linearGradient>
<linearGradient id="paint1_linear_1274_609" x1="48.4805" y1="12.6737" x2="48.493" y2="46.6046" gradientUnits="userSpaceOnUse">
<stop stop-color="#E2C7FE"/>
<stop offset="0.450702" stop-color="#77B8FD"/>
</linearGradient>
<linearGradient id="paint2_linear_1274_609" x1="34.9114" y1="21.3914" x2="17.4034" y2="50.8515" gradientUnits="userSpaceOnUse">
<stop stop-color="#269EBF"/>
<stop offset="1" stop-color="#3EBADD"/>
</linearGradient>
<radialGradient id="paint3_radial_1274_609" cx="0" cy="0" r="1" gradientUnits="userSpaceOnUse" gradientTransform="translate(37.2988 31.2382) rotate(139.707) scale(37.156 27.379)">
<stop offset="0.411461" stop-color="#FF7360"/>
<stop offset="1" stop-color="#630513"/>
</radialGradient>
<linearGradient id="paint4_linear_1274_609" x1="31.3614" y1="29.0421" x2="16.9623" y2="49.5915" gradientUnits="userSpaceOnUse">
<stop stop-color="#33B6D2"/>
<stop offset="0.142991" stop-color="#5BD8FF"/>
<stop offset="1" stop-color="#228AA7"/>
</linearGradient>
<linearGradient id="paint5_linear_1274_609" x1="36.0709" y1="31.3024" x2="23.7169" y2="51.855" gradientUnits="userSpaceOnUse">
<stop offset="0.635417" stop-color="#68DEFF"/>
<stop offset="1" stop-color="#F3C8CB"/>
</linearGradient>
<linearGradient id="paint6_linear_1274_609" x1="2.32044" y1="17.4178" x2="15.9351" y2="51.1092" gradientUnits="userSpaceOnUse">
<stop offset="0.661495" stop-color="#88FFF8"/>
<stop offset="1" stop-color="#176781"/>
</linearGradient>
<linearGradient id="paint7_linear_1274_609" x1="9.5533" y1="19.4958" x2="47.3801" y2="3.81342" gradientUnits="userSpaceOnUse">
<stop offset="0.731633" stop-color="#4D89FD"/>
<stop offset="1" stop-color="#033883"/>
</linearGradient>
<linearGradient id="paint8_linear_1274_609" x1="33.2234" y1="5.9445" x2="14.1173" y2="9.31015" gradientUnits="userSpaceOnUse">
<stop stop-color="#D9D9D9"/>
<stop offset="0.658857" stop-color="#D9D9D9" stop-opacity="0"/>
</linearGradient>
<linearGradient id="paint9_linear_1274_609" x1="41.3354" y1="10.4572" x2="21.9281" y2="1.42809" gradientUnits="userSpaceOnUse">
<stop stop-color="#D9D9D9"/>
<stop offset="1" stop-color="#D9D9D9" stop-opacity="0"/>
</linearGradient>
<linearGradient id="paint10_linear_1274_609" x1="44.1176" y1="8.51074" x2="18.6654" y2="51.6222" gradientUnits="userSpaceOnUse">
<stop stop-color="#EFC7FE"/>
<stop offset="0.286458" stop-color="#2CBBF9"/>
<stop offset="0.65625" stop-color="#2CBBF9"/>
<stop offset="1" stop-color="#FDC8C8"/>
</linearGradient>
<linearGradient id="paint11_linear_1274_609" x1="43.7913" y1="25.0087" x2="6.52676" y2="24.2215" gradientUnits="userSpaceOnUse">
<stop stop-color="#D9D9D9"/>
<stop offset="0.659264" stop-color="#D9D9D9" stop-opacity="0"/>
</linearGradient>
<linearGradient id="paint12_linear_1274_609" x1="44.1162" y1="8.51001" x2="18.6639" y2="51.6215" gradientUnits="userSpaceOnUse">
<stop stop-color="#EFC7FE"/>
<stop offset="0.317708" stop-color="#2CBBF9"/>
<stop offset="0.661458" stop-color="#2CBBF9"/>
<stop offset="1" stop-color="#FDC8C8"/>
</linearGradient>
</defs>
</svg>
