<?xml version="1.0" encoding="utf-8"?>
<!-- Generator: Adobe Illustrator 25.0.1, SVG Export Plug-In . SVG Version: 6.00 Build 0)  -->
<svg version="1.1" id="图层_1" xmlns="http://www.w3.org/2000/svg" xmlns:xlink="http://www.w3.org/1999/xlink" x="0px" y="0px"
	 viewBox="0 0 286 376" style="enable-background:new 0 0 286 376;" xml:space="preserve">
<style type="text/css">
	.st0{fill:url(#SVGID_1_);}
	.st1{opacity:0.2;}
	.st2{fill:#533E94;}
	.st3{fill:#7800F4;}
</style>
<linearGradient id="SVGID_1_" gradientUnits="userSpaceOnUse" x1="149.4733" y1="150.8985" x2="149.4733" y2="370.0344">
	<stop  offset="0" style="stop-color:#040000"/>
	<stop  offset="1" style="stop-color:#322951"/>
</linearGradient>
<path class="st0" d="M156.8,375.7l-78.8-81.5l-28,27.1l-36.9-38.2l157-151.8L285.8,251L156.8,375.7z M116.2,257.3l41.8,43.3
	l52.6-50.9l-41.8-43.3L116.2,257.3z"/>
<g class="st1">
	<polygon class="st2" points="229.5,92.7 127.3,191.6 85.4,148.3 174.2,62.5 97.7,62.5 10.3,147.1 126,266.7 266.4,130.9 	"/>
	<polygon class="st2" points="182.4,44 150.7,11.3 116.9,44 	"/>
</g>
<g>
	<polygon class="st3" points="220,83.2 117.8,182.1 75.9,138.8 164.7,53 88.2,53 0.8,137.5 116.5,257.2 256.9,121.4 	"/>
	<polygon class="st3" points="172.9,34.5 141.2,1.8 107.4,34.5 	"/>
</g>
</svg>
