<svg width="1020" height="1021" viewBox="0 0 1020 1021" fill="none" xmlns="http://www.w3.org/2000/svg">
<g clip-path="url(#clip0_512_49)">
<path d="M350.625 756.175L339.645 762.505L339.653 749.831C339.653 749.831 339.5 756.312 342.425 757.932C345.29 759.519 350.625 756.175 350.625 756.175Z" fill="#8E3315"/>
<path d="M68.8664 743.105C130.749 860.128 236.587 947.758 363.097 986.745C489.608 1025.73 626.429 1012.87 743.46 950.982C860.491 889.096 948.146 783.257 987.142 656.749C1026.14 530.241 1013.02 393.422 951.133 276.399C1006.93 452.266 812.659 514.05 812.659 514.05L577.527 636.94L333.158 764.393C333.158 764.393 166.609 871.611 68.8664 743.105Z" fill="#473ADE"/>
<path d="M67.9915 743.963C129.874 860.986 235.712 948.632 362.222 987.619C488.733 1026.61 625.554 1013.74 742.585 951.856C859.616 889.97 947.271 784.131 986.268 657.623C1025.26 531.115 1012.41 394.3 950.524 277.277C1006.33 453.144 811.785 514.925 811.785 514.925L576.652 637.814L332.283 765.267C332.283 765.267 165.734 872.469 67.9915 743.963Z" fill="url(#paint0_linear_512_49)"/>
<path d="M806.395 501.85L824.547 510.674L805.386 518.362C805.386 518.362 813.607 514.48 814.589 510.674C815.55 506.946 806.395 501.85 806.395 501.85Z" fill="#251E73"/>
<path d="M954.155 737.884C1014.58 620.104 1025.75 483.141 985.189 357.125C944.63 231.109 855.672 126.363 737.884 65.9292C620.096 5.49573 483.127 -5.67463 357.108 34.8755C231.09 75.4255 126.344 164.374 65.9148 282.154C178.049 135.632 340.174 259.643 340.174 259.643L575.64 381.893L820.139 509.096C820.139 509.096 1003.44 584.136 954.155 737.884Z" fill="#D71D6A"/>
<path d="M952.957 737.4C1013.21 619.971 1024.34 483.416 983.898 357.775C943.46 232.135 854.767 127.7 737.33 67.4469C619.892 7.19348 483.331 -3.94361 357.688 36.4857C232.045 76.915 127.611 165.599 67.3617 283.028C179.162 136.943 340.805 260.584 340.805 260.584L575.569 382.469L819.34 509.294C819.34 509.294 1002.1 584.111 952.957 737.4Z" fill="url(#paint1_linear_512_49)"/>
<path d="M339.718 271.473L339.513 258.203L351.108 264.66C351.108 264.66 345.254 261.222 342.283 263.074C339.373 264.889 339.718 271.473 339.718 271.473Z" fill="#741039"/>
<path d="M510.073 10.7724C377.695 10.7724 250.739 63.3627 157.134 156.974C63.5291 250.586 10.9424 377.55 10.9424 509.937C10.9424 642.323 63.5291 769.288 157.134 862.899C250.739 956.51 377.695 1009.1 510.072 1009.1C340.176 980.577 340.176 760.461 340.176 760.461L340.176 509.937L340.176 254.98C340.176 254.98 340.176 41.1815 510.073 10.7724Z" fill="#FF5B25"/>
<path d="M510.073 9.60621C377.695 9.60621 250.739 62.1966 157.134 155.808C63.5292 249.419 10.9424 376.384 10.9424 508.77C10.9424 641.157 63.5291 768.121 157.134 861.733C250.739 955.344 377.695 1007.93 510.072 1007.93C340.176 953.654 340.176 760.735 340.176 760.735L340.176 509.387V259.643C340.176 259.643 333.995 41.9536 510.073 9.60621Z" fill="url(#paint2_linear_512_49)"/>
<path d="M510.073 9.60621C377.695 9.60621 250.739 62.1966 157.134 155.808C63.5292 249.419 10.9424 376.384 10.9424 508.77C10.9424 641.157 63.5291 768.121 157.134 861.733C250.739 955.344 377.695 1007.93 510.072 1007.93C340.176 953.654 340.176 760.735 340.176 760.735L340.176 509.387V259.643C340.176 259.643 333.995 41.9536 510.073 9.60621Z" fill="url(#paint3_linear_512_49)" fill-opacity="0.3"/>
<path d="M508.761 1008.88C340.175 932.089 340.374 760.658 340.374 760.658C340.374 760.658 131.422 878.529 61.0781 727.771C61.0781 727.771 178.999 1009.88 508.761 1008.88Z" fill="#473ADE"/>
</g>
<defs>
<linearGradient id="paint0_linear_512_49" x1="950.562" y1="453.024" x2="224.312" y2="1170.08" gradientUnits="userSpaceOnUse">
<stop stop-opacity="0.6"/>
<stop offset="0.655513" stop-opacity="0"/>
</linearGradient>
<linearGradient id="paint1_linear_512_49" x1="210.929" y1="182.571" x2="1211.78" y2="366.19" gradientUnits="userSpaceOnUse">
<stop stop-opacity="0.6"/>
<stop offset="0.645833" stop-opacity="0"/>
</linearGradient>
<linearGradient id="paint2_linear_512_49" x1="278.241" y1="946.1" x2="-18.6879" y2="31.5289" gradientUnits="userSpaceOnUse">
<stop stop-opacity="0.6"/>
<stop offset="0.675464" stop-opacity="0"/>
</linearGradient>
<linearGradient id="paint3_linear_512_49" x1="278.241" y1="946.1" x2="-18.6879" y2="31.5289" gradientUnits="userSpaceOnUse">
<stop stop-opacity="0.6"/>
<stop offset="0.675464" stop-opacity="0"/>
</linearGradient>
<clipPath id="clip0_512_49">
<rect width="1020" height="1020.51" fill="white"/>
</clipPath>
</defs>
</svg>
