<?xml version="1.0" encoding="utf-8"?>
<!-- Generator: Adobe Illustrator 26.0.0, SVG Export Plug-In . SVG Version: 6.00 Build 0)  -->
<svg version="1.1" id="Layer_1" xmlns="http://www.w3.org/2000/svg" xmlns:xlink="http://www.w3.org/1999/xlink" x="0px" y="0px"
	 viewBox="0 0 1500 1500" style="enable-background:new 0 0 1500 1500;" xml:space="preserve">
<style type="text/css">
	.st0{fill:#666666;}
</style>
<g>
	<path d="M992.45,372.27v170.01l0,0v0.14l0,0l-75.14,75.14c-2.3-2.16-4.46-4.32-6.76-6.49c-1.62-1.49-3.11-2.84-4.73-4.19
		c-1.76-1.62-3.51-3.11-5.41-4.59c-0.14-0.27-0.41-0.41-0.68-0.68c-1.89-1.62-3.92-3.11-5.95-4.73c-1.08-0.81-2.16-1.62-3.24-2.43
		l0,0c-0.14,0-0.14,0-0.14-0.14c-1.76-1.22-3.51-2.43-5.27-3.65c-0.54-0.41-1.08-0.81-1.62-1.22c-2.03-1.35-4.05-2.7-6.08-3.92l0,0
		c-1.49-0.95-2.97-1.89-4.46-2.84c-1.35-0.95-2.84-1.76-4.32-2.7c-1.49-0.81-2.97-1.62-4.59-2.43c-1.49-0.95-2.97-1.76-4.59-2.57
		c-0.95-0.54-2.03-1.08-3.11-1.62c-0.95-0.54-2.03-0.95-2.97-1.35c-0.95-0.54-2.03-1.08-2.97-1.49c-0.54-0.27-1.22-0.54-1.76-0.81
		c-0.54-0.27-1.08-0.54-1.62-0.68c-0.81-0.41-1.62-0.81-2.43-1.08c-0.81-0.41-1.62-0.81-2.43-1.08c-1.89-0.81-3.65-1.62-5.54-2.3
		c-1.49-0.68-3.11-1.22-4.73-1.89c-1.49-0.54-3.11-1.08-4.73-1.62c-4.05-1.49-8.24-2.7-12.43-3.92c-0.27-0.14-0.54-0.14-0.81-0.27
		c-0.81-0.14-1.62-0.41-2.57-0.68c-1.76-0.41-3.51-0.95-5.27-1.35c-0.54-0.14-0.95-0.27-1.49-0.41c-2.3-0.54-4.59-1.08-7.03-1.49
		c-1.22-0.27-2.43-0.54-3.65-0.68c-1.22-0.27-2.3-0.54-3.38-0.68c-0.27,0-0.54,0-0.81-0.14c-1.76-0.27-3.51-0.54-5.41-0.81
		c-0.54-0.14-1.08-0.14-1.49-0.27c-1.49-0.14-2.97-0.41-4.59-0.54c-0.81-0.14-1.62-0.27-2.57-0.27c-1.76-0.27-3.51-0.41-5.27-0.54
		c-1.49-0.14-3.11-0.27-4.73-0.41c-0.27,0-0.54,0-0.81,0c-2.7-0.27-5.41-0.27-7.97-0.41c-2.3,0-4.59-0.14-6.89-0.14
		s-4.59,0.14-6.89,0.14c-2.57,0.14-5.27,0.14-7.97,0.41c-0.27,0-0.54,0-0.81,0c-1.62,0.14-3.11,0.27-4.73,0.41
		c-1.76,0.14-3.51,0.27-5.27,0.54c-0.95,0-1.76,0.14-2.7,0.27c-1.35,0.14-2.7,0.27-4.05,0.54c-0.68,0-1.49,0.14-2.16,0.27
		c-1.49,0.27-2.97,0.41-4.46,0.68c-0.54,0.14-1.08,0.27-1.76,0.27c0,0,0,0,0,0.14c-1.89,0.27-3.78,0.68-5.68,0.95
		c-0.54,0.14-1.08,0.27-1.62,0.41c-1.76,0.27-3.51,0.68-5.27,1.08c-2.16,0.54-4.19,1.08-6.35,1.62c-1.76,0.41-3.38,0.95-5,1.35
		c-1.08,0.27-2.16,0.68-3.24,0.95c-1.35,0.41-2.57,0.81-3.92,1.22c-0.95,0.27-1.89,0.54-2.84,0.95c-0.95,0.27-1.89,0.68-2.84,0.95
		c-0.68,0.27-1.22,0.41-1.76,0.68c-1.22,0.41-2.3,0.81-3.38,1.22c-0.41,0.14-0.81,0.27-1.22,0.41c-0.81,0.27-1.62,0.68-2.57,0.95
		c-1.35,0.68-2.7,1.22-4.19,1.76c-1.76,0.68-3.51,1.49-5.27,2.3c-1.22,0.54-2.3,1.08-3.51,1.62c-3.65,1.62-7.3,3.38-10.81,5.27
		c-1.49,0.81-2.84,1.62-4.32,2.43c-1.49,0.81-2.97,1.62-4.46,2.57c-0.41,0.14-0.68,0.41-1.08,0.54c-1.35,0.81-2.7,1.62-4.05,2.43
		c-0.14,0.14-0.27,0.27-0.54,0.41c-2.03,1.22-4.19,2.57-6.22,4.05c-0.95,0.68-1.89,1.22-2.97,1.89c-0.95,0.68-1.89,1.49-2.97,2.16
		c-2.7,1.89-5.27,3.78-7.84,5.81c-1.35,0.95-2.57,2.03-3.78,3.11c-1.35,0.95-2.57,2.03-3.78,3.11c-1.22,0.95-2.43,1.89-3.51,2.97
		c-1.22,1.08-2.57,2.16-3.78,3.38c-1.08,0.95-2.3,2.03-3.24,3.11c-0.14,0.14-0.27,0.14-0.41,0.27c-1.22,1.22-2.43,2.3-3.51,3.38
		c-2.97,2.97-5.81,5.95-8.65,9.19c-1.22,1.22-2.3,2.43-3.38,3.78c-1.22,1.49-2.57,2.84-3.65,4.32c-2.43,2.97-4.87,5.95-7.03,9.05
		c-0.95,1.08-1.89,2.3-2.7,3.65c-0.68,0.81-1.35,1.76-2.03,2.7c-0.27,0.41-0.54,0.81-0.81,1.22c-1.49,2.16-2.84,4.19-4.32,6.35
		c-1.08,1.89-2.3,3.78-3.51,5.81c-0.68,1.08-1.35,2.16-1.89,3.24c-1.08,1.89-2.3,3.92-3.24,5.81c-1.08,1.89-2.16,3.92-3.11,5.81
		c-0.68,1.22-1.22,2.43-1.76,3.51c-0.68,1.49-1.35,2.84-1.89,4.19c-0.41,0.54-0.68,1.22-0.95,1.76c-1.49,3.51-2.97,6.89-4.32,10.41
		c-0.81,1.89-1.49,3.78-2.16,5.68c-1.35,3.65-2.57,7.3-3.78,10.95c-1.22,3.78-2.16,7.43-3.11,11.22c-0.41,1.49-0.81,2.84-1.08,4.32
		l-0.14,0.14c-0.27,1.22-0.54,2.57-0.81,3.78c-0.14,0.81-0.41,1.62-0.54,2.43c-0.41,2.16-0.81,4.32-1.22,6.62
		c-0.27,1.49-0.54,2.84-0.81,4.32c0,0.54-0.14,0.95-0.14,1.49c-0.14,0.81-0.27,1.49-0.41,2.3c-0.14,0.95-0.27,1.89-0.41,2.97
		c-0.14,0.68-0.14,1.35-0.27,2.16c-0.14,1.49-0.41,2.97-0.54,4.46l-0.54,5.95c-0.14,1.89-0.27,3.92-0.27,5.95
		c-0.27,4.05-0.41,8.11-0.41,12.16c0,4.19,0.14,8.24,0.41,12.3c0,1.89,0.14,3.92,0.27,5.95l0.54,5.95c0.14,1.49,0.41,2.97,0.54,4.46
		c0.14,0.68,0.14,1.35,0.27,2.16c0.14,0.95,0.27,1.89,0.41,2.97c0.14,0.68,0.27,1.49,0.41,2.3c0,0.41,0.14,0.95,0.14,1.35
		c0.27,1.49,0.54,2.97,0.81,4.46c0.41,2.16,0.81,4.32,1.22,6.49c0.14,0.81,0.41,1.62,0.54,2.43c0.27,1.35,0.54,2.57,0.81,3.78
		c0,0.14,0.14,0.14,0.14,0.27c0.27,1.35,0.68,2.84,1.08,4.19c0.95,3.78,1.89,7.57,3.11,11.22c1.22,3.78,2.43,7.43,3.78,11.08
		c0.41,1.22,0.95,2.43,1.35,3.65c0.41,1.08,0.81,2.16,1.35,3.24c0.54,1.49,1.22,3.11,1.89,4.59c0.54,1.49,1.22,2.97,1.89,4.46
		c0.81,1.76,1.62,3.51,2.43,5.27c0.14,0.27,0.41,0.54,0.54,0.95c0,0.14,0.14,0.27,0.27,0.54c0.81,1.89,1.76,3.65,2.84,5.54
		c1.08,2.3,2.43,4.59,3.78,6.89c0.81,1.49,1.62,3.11,2.7,4.59c0.54,1.08,1.22,2.16,1.89,3.24c1.22,2.03,2.43,3.92,3.78,5.81
		c0.41,0.81,0.81,1.49,1.35,2.16c1.22,1.76,2.43,3.65,3.78,5.41c0.95,1.35,1.89,2.57,2.84,3.78c0.81,1.08,1.62,2.3,2.43,3.38
		c0.81,0.95,1.62,2.03,2.43,2.97c0.41,0.54,0.95,1.22,1.49,1.76c0.41,0.68,0.95,1.35,1.49,1.89c4.59,5.54,9.33,10.81,14.46,15.81
		c0.81,0.81,1.62,1.62,2.57,2.57c0.14,0,0.27,0.14,0.27,0.27c0.95,0.95,1.89,1.76,2.84,2.57c0.54,0.54,1.08,1.08,1.76,1.62v0.14
		c22.97,21.08,50.14,37.57,80.01,48.38v110.68c-2.57-0.54-5-1.22-7.43-1.76l0,0c-0.81-0.27-1.62-0.54-2.43-0.68
		c-1.62-0.41-3.38-0.95-5-1.35c-2.43-0.68-4.87-1.49-7.3-2.16c-2.3-0.81-4.46-1.49-6.76-2.3c-1.35-0.41-2.7-0.81-3.92-1.35
		c-1.08-0.27-2.16-0.68-3.24-1.08c-1.08-0.41-2.03-0.81-3.11-1.08l0,0c-1.89-0.68-3.65-1.49-5.54-2.16
		c-1.76-0.68-3.38-1.35-5.14-2.03c-1.49-0.68-3.11-1.35-4.73-2.03c-4.46-1.89-8.78-3.78-12.97-5.81c-1.62-0.81-3.24-1.62-4.73-2.43
		c-2.16-1.08-4.32-2.03-6.35-3.24c-1.08-0.41-2.16-1.08-3.24-1.62c-0.95-0.54-2.03-1.08-3.11-1.62c-0.68-0.41-1.49-0.81-2.16-1.22
		c-0.81-0.54-1.49-0.95-2.16-1.35c-1.49-0.81-2.97-1.62-4.46-2.43c-0.54-0.41-1.08-0.68-1.62-1.08c-1.62-0.95-3.24-1.89-4.73-2.84
		c-1.76-1.08-3.51-2.16-5.27-3.38c-1.76-1.08-3.51-2.16-5.27-3.38c-1.22-0.81-2.43-1.62-3.65-2.43c-0.95-0.68-1.89-1.35-2.97-2.03
		c-0.81-0.68-1.62-1.22-2.43-1.89c-1.49-1.08-2.97-2.16-4.59-3.24c-0.54-0.41-1.08-0.81-1.62-1.35c-1.76-1.22-3.38-2.43-5-3.78
		c-1.76-1.35-3.51-2.7-5.27-4.19c-1.76-1.35-3.38-2.7-5.14-4.19s-3.38-2.84-5-4.32c-1.76-1.49-3.38-2.97-5-4.46
		c-1.62-1.49-3.11-2.97-4.73-4.46c-0.27-0.27-0.68-0.68-1.08-0.95c-1.62-1.62-3.24-3.24-4.87-4.87
		c-5.68-5.54-10.95-11.22-16.22-17.16c-0.81-1.08-1.76-2.16-2.7-3.24c-2.7-2.97-5.27-6.08-7.7-9.33c0,0-0.14,0-0.14-0.14
		c-0.81-0.95-1.62-2.03-2.43-3.11l-0.14-0.14c-2.16-2.84-4.32-5.68-6.35-8.51c-1.08-1.49-2.16-2.84-3.11-4.19
		c-2.7-3.92-5.41-7.84-7.97-11.89c-0.81-1.22-1.62-2.57-2.43-3.78c-0.95-1.62-1.89-3.24-2.84-4.73c-1.08-1.89-2.16-3.65-3.24-5.54
		c-1.22-1.89-2.3-3.92-3.38-5.81c-0.68-1.08-1.22-2.3-1.76-3.38c-1.22-2.16-2.43-4.46-3.51-6.62c-2.3-4.32-4.46-8.78-6.49-13.38
		c-1.08-2.3-2.03-4.46-2.97-6.76c-0.81-1.76-1.49-3.38-2.16-5.14c-0.81-1.76-1.49-3.65-2.16-5.41c-0.81-1.76-1.49-3.65-2.16-5.54
		c-0.41-1.22-0.95-2.57-1.35-3.78c-0.81-2.3-1.62-4.59-2.43-6.89c-0.68-2.16-1.49-4.32-2.16-6.62c-0.81-2.7-1.62-5.41-2.3-8.11
		c-0.68-2.16-1.35-4.46-1.89-6.62c0-0.14-0.14-0.27-0.14-0.41c-0.54-2.03-0.95-4.05-1.49-6.08c-0.41-1.62-0.81-3.38-1.22-5.14
		c-0.41-2.03-0.95-4.19-1.35-6.22c0-0.14,0-0.27,0-0.41c-0.41-1.76-0.81-3.65-1.08-5.54c-0.14-0.14-0.14-0.14-0.14-0.41
		c-0.27-1.22-0.54-2.43-0.68-3.65c-0.41-2.43-0.81-4.73-1.22-7.16c-0.27-1.89-0.54-3.78-0.81-5.81c-0.14-1.35-0.27-2.57-0.41-3.92
		c-0.27-1.89-0.54-3.78-0.68-5.68c0-0.14,0-0.41-0.14-0.54c-0.14-0.81-0.14-1.62-0.27-2.43c0-0.68-0.14-1.62-0.14-2.43
		c-0.14-0.68-0.14-1.35-0.14-1.89c-0.27-1.62-0.41-3.24-0.41-4.73c-0.14-0.41-0.14-0.68-0.14-1.08c-0.14-1.76-0.27-3.51-0.27-5.41
		c0-0.27,0-0.54,0-0.81c-0.27-2.57-0.27-5.14-0.41-7.7c0-0.27,0-0.81,0-1.22c-0.14-2.84-0.14-5.68-0.14-8.51s0-5.68,0.14-8.51v-0.41
		c0-2.84,0.14-5.81,0.41-8.65c0-2.16,0.14-4.32,0.27-6.49c0.14-0.68,0.14-1.35,0.14-2.03c0.14-1.08,0.27-2.03,0.27-3.11
		c0.41-5.14,1.08-10.41,1.76-15.54c0.27-2.3,0.54-4.59,0.95-6.89c0-0.41,0.14-0.81,0.14-1.22c0.41-2.03,0.68-4.05,1.08-6.08
		c0.14-0.95,0.27-1.76,0.41-2.7c0.54-2.7,0.95-5.27,1.62-7.84c0.41-2.3,0.95-4.73,1.49-7.03c0.14-0.68,0.27-1.35,0.41-1.89
		c0.41-1.49,0.68-2.97,1.08-4.32c0.54-2.3,1.22-4.6,1.76-6.89c0.27-0.95,0.54-1.89,0.81-2.7c0.54-2.03,1.08-3.92,1.76-5.95
		c1.22-4.59,2.7-9.05,4.32-13.51c0.81-2.7,1.89-5.27,2.84-7.97c1.08-2.97,2.3-5.95,3.51-8.92c0-0.27,0.14-0.54,0.27-0.81
		c1.08-2.57,2.16-5.27,3.38-7.84c0.14-0.54,0.41-1.08,0.68-1.62c0.68-1.49,1.35-2.97,2.03-4.46c0.81-1.62,1.62-3.38,2.43-5.14
		c1.22-2.57,2.43-5,3.65-7.43c2.57-5,5.27-9.87,7.97-14.6c1.35-2.43,2.84-4.87,4.19-7.16c2.84-4.73,5.81-9.33,8.92-13.92
		c3.11-4.59,6.35-9.05,9.6-13.38c1.89-2.57,3.78-5,5.81-7.43c1.35-1.76,2.7-3.51,4.05-5.14l0.54-0.68c1.49-1.89,3.11-3.65,4.59-5.41
		c2.16-2.57,4.32-5,6.62-7.43c1.62-1.89,3.24-3.51,4.87-5.27c1.89-2.03,3.92-4.05,5.95-6.08V388.35l123.39,74.74
		c1.08-0.41,2.16-0.81,3.24-1.22c0.14,0,0.27-0.14,0.41-0.14c1.49-0.54,3.11-1.08,4.73-1.62c0.81-0.27,1.62-0.54,2.43-0.81
		c0.14-0.14,0.27-0.14,0.41-0.14c1.49-0.54,3.11-1.08,4.73-1.62c0.95-0.27,1.89-0.54,2.7-0.81c1.89-0.54,3.78-1.22,5.81-1.76
		c0.27,0,0.68-0.14,1.08-0.27c2.03-0.54,4.05-1.22,6.22-1.62c0,0,0,0,0-0.14c3.24-0.81,6.62-1.62,9.87-2.43
		c2.7-0.54,5.54-1.22,8.24-1.76c2.57-0.54,5.27-1.08,7.84-1.49c0.41-0.14,0.68-0.14,1.08-0.27c5.41-0.95,10.95-1.76,16.49-2.43
		c0.14,0,0.14,0,0.14,0c2.3-0.41,4.59-0.54,6.89-0.81c1.08-0.14,2.3-0.27,3.38-0.41c1.62-0.14,3.11-0.27,4.73-0.41
		c1.22-0.14,2.3-0.14,3.51-0.27c2.16-0.14,4.32-0.27,6.62-0.41c0.41,0,0.68,0,1.08,0c0.27-0.14,0.68-0.14,0.95-0.14
		c2.03-0.14,3.92-0.14,5.95-0.14c0.41,0,0.68-0.14,1.08-0.14c0.14,0,0.41,0,0.54,0c2.97,0,5.81-0.14,8.78-0.14
		c2.3,0,4.73,0.14,7.03,0.14c1.35,0,2.57,0,3.92,0.14c2.3,0,4.46,0.14,6.62,0.27c2.84,0.14,5.54,0.27,8.38,0.41
		c2.3,0.27,4.59,0.41,6.89,0.68c1.22,0.14,2.43,0.27,3.78,0.41c1.89,0.14,3.78,0.41,5.68,0.68c1.08,0.14,2.3,0.27,3.38,0.41
		c2.16,0.27,4.32,0.54,6.49,0.95c2.43,0.27,4.73,0.68,7.03,1.08c0.95,0.14,1.62,0.27,2.43,0.41c2.43,0.54,5,0.95,7.43,1.49
		c0.27,0,0.54,0.14,0.81,0.14c2.57,0.54,5,1.08,7.57,1.62c2.43,0.68,5,1.22,7.57,1.89c0.41,0.14,0.81,0.27,1.22,0.41
		c0.27,0,0.41,0,0.54,0.14c2.3,0.54,4.73,1.22,7.03,1.89c1.76,0.41,3.51,0.95,5.27,1.49c0.41,0.14,0.81,0.27,1.22,0.41
		L992.45,372.27z"/>
	<path class="st0" d="M975.69,731.62L803.25,968.8l-8.92,12.16v143.93c-0.27,0-0.68,0-0.95,0.14c-1.49,0.14-2.97,0.27-4.46,0.54
		c-3.65,0.41-7.3,0.81-10.95,1.08c-1.49,0.14-2.97,0.14-4.32,0.27c-1.08,0.14-2.16,0.14-3.24,0.27c-2.97,0.14-6.08,0.27-9.19,0.41
		c-3.65,0.14-7.43,0.14-11.22,0.14c-2.7,0-5.41,0-8.11-0.14c-0.41,0-0.81,0-1.35,0c-5.14-0.14-10.41-0.41-15.41-0.81
		c-0.95,0-2.03-0.14-2.97-0.14c-1.89-0.14-3.65-0.27-5.54-0.54c-1.35-0.14-2.7-0.27-3.92-0.41c-2.43-0.27-4.73-0.54-7.03-0.81V981.1
		l-8.78-12.3L524.31,731.62h106.36L750,895.69l119.33-164.07H975.69L975.69,731.62z"/>
	<path d="M1093,784.73c0,2.57,0,5-0.14,7.57c0,0.81,0,1.76,0,2.7c-0.14,2.3-0.14,4.59-0.27,7.03c-0.14,1.49-0.14,2.97-0.27,4.59
		c-0.27,3.51-0.54,7.16-0.81,10.81c-0.27,1.62-0.41,3.38-0.54,5c-0.14,1.35-0.41,2.43-0.54,3.65c-0.14,2.03-0.41,4.05-0.68,5.95
		c-0.27,2.03-0.54,3.92-0.95,5.95c-0.68,4.32-1.35,8.51-2.16,12.84c-0.27,1.35-0.54,2.7-0.81,4.05c-0.41,1.89-0.95,3.92-1.35,5.95
		c-0.41,1.76-0.81,3.51-1.22,5.41c-0.27,1.08-0.68,2.3-0.95,3.51c-0.41,1.35-0.68,2.7-1.08,4.19c-0.14,0.68-0.41,1.35-0.54,2.03
		c-0.14,0.27-0.27,0.68-0.27,0.95c-0.68,2.03-1.22,4.05-1.76,6.08c-0.68,2.43-1.49,4.87-2.3,7.3c-0.68,2.16-1.49,4.46-2.16,6.62
		c-0.14,0.41-0.27,0.68-0.41,1.08c-0.81,2.3-1.62,4.46-2.43,6.62c-0.81,2.3-1.76,4.46-2.57,6.76c-0.95,2.43-2.03,4.87-2.97,7.3
		c-1.08,2.3-2.03,4.59-3.11,6.89c-0.81,1.76-1.62,3.51-2.43,5.27c-0.14,0.27-0.27,0.68-0.41,0.95c-0.27,0.41-0.41,0.81-0.68,1.22
		c-0.95,2.16-1.89,4.19-2.97,6.22c-1.08,2.16-2.3,4.46-3.51,6.62c-1.22,2.43-2.57,4.87-3.92,7.16c-1.08,2.03-2.3,3.92-3.38,5.95
		c-1.22,2.03-2.43,4.05-3.78,6.22c-0.14,0.14-0.14,0.14-0.14,0.27c-1.35,2.03-2.7,4.19-4.05,6.22c-1.22,2.03-2.7,4.19-4.05,6.22
		c-1.08,1.49-2.16,3.11-3.38,4.73c-1.76,2.43-3.51,4.87-5.41,7.43c-1.22,1.62-2.57,3.38-3.92,5.14c-0.14,0.27-0.41,0.41-0.54,0.68
		c-1.49,2.03-3.11,3.92-4.59,5.81c-1.62,2.03-3.24,3.92-4.87,5.81c-0.54,0.54-0.95,1.08-1.49,1.62c-1.49,1.89-3.11,3.65-4.73,5.41
		c-1.22,1.35-2.43,2.7-3.65,4.05c-1.76,1.76-3.51,3.65-5.14,5.41c-1.76,1.76-3.38,3.38-5.14,5.14c-0.14,0-0.14,0.14-0.27,0.27
		c-1.62,1.62-3.24,3.11-4.87,4.73c-5.27,4.87-10.68,9.73-16.22,14.33c-1.49,1.22-2.84,2.3-4.32,3.51c-1.35,1.08-2.7,2.16-4.19,3.38
		c-0.41,0.27-0.95,0.68-1.35,1.08c-1.49,1.08-2.84,2.16-4.32,3.24c-1.76,1.22-3.51,2.57-5.27,3.78c-2.97,2.16-5.95,4.32-9.05,6.35
		c-4.05,2.7-8.24,5.41-12.43,7.97c-1.49,0.81-2.97,1.76-4.46,2.7c-2.3,1.35-4.59,2.57-6.89,3.92c-2.57,1.35-5.14,2.7-7.57,4.05
		c-2.57,1.35-5.14,2.7-7.7,3.92c-1.89,1.08-3.78,1.89-5.81,2.84c-1.89,0.81-3.78,1.76-5.68,2.57c-4.19,1.89-8.51,3.78-12.84,5.41
		c-1.89,0.81-3.78,1.62-5.81,2.43c-2.16,0.81-4.32,1.62-6.49,2.3c-1.49,0.54-3.11,1.08-4.73,1.62c-1.76,0.68-3.51,1.22-5.27,1.89
		c-0.41,0-0.81,0.14-1.22,0.27c-1.76,0.54-3.65,1.22-5.41,1.62c-3.65,1.22-7.43,2.16-11.08,3.24c-2.57,0.68-5,1.22-7.43,1.89
		v-110.82c29.87-10.81,56.9-27.43,79.87-48.38l0.14-0.14c0.41-0.41,0.81-0.81,1.08-1.08c0.27-0.14,0.41-0.27,0.54-0.41
		c0.54-0.54,1.08-1.08,1.62-1.62c2.57-2.3,5-4.73,7.3-7.16c0.95-1.08,1.89-2.03,2.84-3.11c0.95-0.95,1.89-2.03,2.84-2.97
		c1.35-1.49,2.7-3.11,4.05-4.73c1.49-1.76,2.97-3.51,4.32-5.27c1.22-1.35,2.3-2.84,3.38-4.32c1.22-1.49,2.3-2.97,3.51-4.59
		c2.43-3.38,4.87-6.89,7.16-10.54c1.22-1.76,2.3-3.51,3.38-5.27c0.41-0.54,0.68-1.08,0.95-1.62c0.41-0.54,0.81-1.22,1.08-1.89
		c0.68-0.95,1.35-2.03,1.89-3.11c0.68-1.08,1.22-2.3,1.89-3.38c0.54-0.81,0.95-1.76,1.49-2.7c1.08-1.89,2.03-3.92,2.97-5.95
		c0.41-0.68,0.68-1.35,1.08-2.03c0.54-1.08,0.95-2.03,1.35-2.97c0.81-1.62,1.49-3.11,2.16-4.73c0.81-1.76,1.49-3.38,2.16-5.14
		c0.14-0.41,0.27-0.68,0.41-1.08c0.54-1.35,1.08-2.57,1.62-3.92c0.95-2.43,1.89-5,2.7-7.57c0.54-1.35,0.95-2.7,1.35-4.05
		c0.68-1.89,1.22-3.78,1.76-5.68c0.14-0.41,0.27-0.68,0.41-1.08c0.68-2.43,1.35-5,2.03-7.57c0.41-1.62,0.81-3.11,1.22-4.73
		c0-0.27,0.14-0.54,0.14-0.81H750l-75.41-106.36h414.22c0.41,1.89,0.68,3.92,0.95,5.95c0.27,1.89,0.54,3.92,0.68,5.81
		c0.14,1.22,0.41,2.43,0.54,3.65c0.14,1.76,0.27,3.38,0.54,5.14c0.27,3.51,0.54,7.16,0.81,10.81c0.14,1.49,0.14,3.11,0.27,4.59
		c0.14,2.3,0.14,4.59,0.27,7.03c0,0.95,0,1.76,0,2.7C1093,779.73,1093,782.3,1093,784.73L1093,784.73z"/>
</g>
</svg>
