<svg id="svg" version="1.1" xmlns="http://www.w3.org/2000/svg" xmlns:xlink="http://www.w3.org/1999/xlink" width="400" height="400" viewBox="0, 0, 400,400"><g id="svgg"><path id="path0" d="M308.562 29.662 C 308.385 29.948,308.452 30.015,308.738 29.838 C 309.086 29.623,309.200 39.010,309.200 67.875 L 309.200 106.197 292.300 123.198 L 275.400 140.200 292.500 123.202 L 309.600 106.204 309.600 67.702 C 309.600 31.479,309.509 28.130,308.562 29.662 M198.291 60.689 C 199.001 60.777,200.261 60.779,201.091 60.692 C 201.921 60.605,201.340 60.533,199.800 60.531 C 198.260 60.529,197.581 60.600,198.291 60.689 M189.100 61.082 C 189.595 61.178,190.405 61.178,190.900 61.082 C 191.395 60.987,190.990 60.909,190.000 60.909 C 189.010 60.909,188.605 60.987,189.100 61.082 M208.905 61.087 C 209.514 61.179,210.414 61.177,210.905 61.082 C 211.397 60.987,210.900 60.911,209.800 60.914 C 208.700 60.917,208.297 60.995,208.905 61.087 M194.307 109.090 C 195.026 109.179,196.106 109.177,196.707 109.086 C 197.308 108.995,196.720 108.922,195.400 108.924 C 194.080 108.926,193.588 109.001,194.307 109.090 M203.100 109.089 C 203.815 109.178,204.985 109.178,205.700 109.089 C 206.415 109.001,205.830 108.928,204.400 108.928 C 202.970 108.928,202.385 109.001,203.100 109.089 M85.381 111.300 L 83.800 113.000 85.500 111.419 C 87.081 109.948,87.384 109.600,87.081 109.600 C 87.016 109.600,86.251 110.365,85.381 111.300 M124.393 140.300 L 120.200 144.600 124.500 140.407 C 128.494 136.513,128.982 136.000,128.693 136.000 C 128.634 136.000,126.699 137.935,124.393 140.300 M272.800 137.725 C 272.800 137.794,273.385 138.379,274.100 139.025 L 275.400 140.200 274.225 138.900 C 273.130 137.688,272.800 137.416,272.800 137.725 M98.070 191.611 C 98.147 191.841,116.522 217.211,138.905 247.991 L 179.600 303.953 179.600 336.386 L 179.600 368.820 180.500 369.154 C 184.529 370.650,209.428 370.788,218.500 369.365 L 220.000 369.130 220.000 336.717 L 220.000 304.304 243.300 272.283 C 256.115 254.671,266.660 240.113,266.733 239.931 C 266.807 239.749,256.007 239.605,242.733 239.610 L 218.600 239.620 209.400 252.286 C 204.340 259.253,200.020 264.880,199.800 264.791 C 199.580 264.703,187.419 248.154,172.776 228.015 L 146.153 191.400 122.042 191.297 C 105.434 191.226,97.975 191.324,98.070 191.611 M259.371 191.500 C 333.554 191.581,352.776 191.704,352.909 192.101 C 353.005 192.386,353.058 192.343,353.033 192.000 C 352.994 191.469,342.314 191.400,259.495 191.399 L 166.000 191.397 259.371 191.500 M354.093 202.000 C 354.093 202.770,354.175 203.085,354.276 202.700 C 354.376 202.315,354.376 201.685,354.276 201.300 C 354.175 200.915,354.093 201.230,354.093 202.000 M45.301 205.000 C 45.305 205.880,45.387 206.193,45.483 205.695 C 45.579 205.198,45.575 204.478,45.475 204.095 C 45.375 203.713,45.296 204.120,45.301 205.000 M354.520 208.000 C 354.520 209.210,354.595 209.705,354.687 209.100 C 354.778 208.495,354.778 207.505,354.687 206.900 C 354.595 206.295,354.520 206.790,354.520 208.000 M93.320 210.000 C 93.320 211.210,93.395 211.705,93.487 211.100 C 93.578 210.495,93.578 209.505,93.487 208.900 C 93.395 208.295,93.320 208.790,93.320 210.000 M44.953 215.400 C 44.953 218.040,45.018 219.068,45.097 217.684 C 45.175 216.301,45.174 214.141,45.095 212.884 C 45.016 211.628,44.952 212.760,44.953 215.400 M93.314 221.000 C 93.317 222.100,93.395 222.503,93.487 221.895 C 93.579 221.286,93.577 220.386,93.482 219.895 C 93.387 219.403,93.311 219.900,93.314 221.000 M354.520 223.200 C 354.520 224.410,354.595 224.905,354.687 224.300 C 354.778 223.695,354.778 222.705,354.687 222.100 C 354.595 221.495,354.520 221.990,354.520 223.200 M45.301 226.200 C 45.305 227.080,45.387 227.393,45.483 226.895 C 45.579 226.398,45.575 225.678,45.475 225.295 C 45.375 224.913,45.296 225.320,45.301 226.200 M93.693 226.400 C 93.693 227.170,93.775 227.485,93.876 227.100 C 93.976 226.715,93.976 226.085,93.876 225.700 C 93.775 225.315,93.693 225.630,93.693 226.400 M354.093 229.200 C 354.093 229.970,354.175 230.285,354.276 229.900 C 354.376 229.515,354.376 228.885,354.276 228.500 C 354.175 228.115,354.093 228.430,354.093 229.200 M45.693 230.800 C 45.693 231.570,45.775 231.885,45.876 231.500 C 45.976 231.115,45.976 230.485,45.876 230.100 C 45.775 229.715,45.693 230.030,45.693 230.800 M279.178 286.700 L 277.800 288.200 279.300 286.822 C 280.125 286.063,280.800 285.388,280.800 285.322 C 280.800 285.016,280.462 285.304,279.178 286.700 M124.200 290.800 C 126.171 292.780,127.873 294.400,127.983 294.400 C 128.093 294.400,126.571 292.780,124.600 290.800 C 122.629 288.820,120.927 287.200,120.817 287.200 C 120.707 287.200,122.229 288.820,124.200 290.800 M274.975 291.300 L 273.800 292.600 275.100 291.425 C 275.815 290.779,276.400 290.194,276.400 290.125 C 276.400 289.816,276.070 290.088,274.975 291.300 M270.778 295.100 L 269.400 296.600 270.900 295.222 C 272.296 293.938,272.584 293.600,272.278 293.600 C 272.212 293.600,271.537 294.275,270.778 295.100 M235.867 315.867 C 235.496 316.237,235.529 365.909,235.900 366.138 C 236.065 366.240,236.152 355.058,236.094 341.289 C 236.010 321.447,236.093 316.188,236.494 315.933 C 236.789 315.746,236.820 315.610,236.567 315.606 C 236.328 315.603,236.013 315.720,235.867 315.867 M315.775 318.100 L 314.600 319.400 315.900 318.225 C 316.615 317.579,317.200 316.994,317.200 316.925 C 317.200 316.616,316.870 316.888,315.775 318.100 M86.600 321.200 C 87.683 322.300,88.660 323.200,88.770 323.200 C 88.880 323.200,88.083 322.300,87.000 321.200 C 85.917 320.100,84.940 319.200,84.830 319.200 C 84.720 319.200,85.517 320.100,86.600 321.200 M309.193 325.100 L 305.000 329.400 309.300 325.207 C 311.665 322.901,313.600 320.966,313.600 320.907 C 313.600 320.618,313.087 321.106,309.193 325.100 M94.200 328.800 C 95.283 329.900,96.260 330.800,96.370 330.800 C 96.480 330.800,95.683 329.900,94.600 328.800 C 93.517 327.700,92.540 326.800,92.430 326.800 C 92.320 326.800,93.117 327.700,94.200 328.800 M302.175 331.700 L 301.000 333.000 302.300 331.825 C 303.015 331.179,303.600 330.594,303.600 330.525 C 303.600 330.216,303.270 330.488,302.175 331.700 " stroke="none" fill="#9c9c9c" fill-rule="evenodd"></path><path id="path1" d="M277.081 48.648 L 245.161 67.587 240.916 66.395 C 212.476 58.409,180.406 59.196,151.780 68.583 L 146.159 70.426 118.980 53.963 C 104.031 44.908,91.575 37.413,91.300 37.307 C 90.902 37.154,90.800 44.163,90.800 71.540 L 90.800 105.966 86.865 110.151 C 35.585 164.688,31.265 248.936,76.672 308.896 C 97.171 335.964,128.591 357.115,160.000 364.990 C 161.430 365.349,162.915 365.735,163.300 365.848 C 163.961 366.043,164.000 364.679,164.000 341.123 L 164.000 316.193 161.480 315.289 C 109.786 296.750,80.821 235.723,98.389 182.361 C 122.675 108.594,214.780 84.551,272.235 136.982 L 275.469 139.934 292.337 123.063 L 309.204 106.192 309.102 67.951 L 309.000 29.710 277.081 48.648 M166.885 192.900 C 167.424 193.615,175.110 204.415,183.965 216.900 L 200.065 239.600 252.032 239.600 C 282.930 239.600,304.000 239.747,304.000 239.963 C 304.000 240.821,301.034 250.430,299.741 253.763 C 289.087 281.220,266.163 304.462,239.501 314.838 L 236.003 316.200 236.001 341.100 C 236.001 354.795,236.059 366.000,236.131 366.000 C 236.202 366.000,238.227 365.454,240.631 364.786 C 316.123 343.813,364.594 269.727,352.957 193.100 L 352.730 191.600 259.317 191.600 L 165.905 191.600 166.885 192.900 " stroke="none" fill="#fcfcfc" fill-rule="evenodd"></path><path id="path2" d="M88.378 108.300 L 87.000 109.800 88.500 108.422 C 89.896 107.138,90.184 106.800,89.878 106.800 C 89.812 106.800,89.137 107.475,88.378 108.300 M90.400 325.000 C 91.146 325.770,91.847 326.400,91.957 326.400 C 92.067 326.400,91.546 325.770,90.800 325.000 C 90.054 324.230,89.353 323.600,89.243 323.600 C 89.133 323.600,89.654 324.230,90.400 325.000 " stroke="none" fill="#d4d4d4" fill-rule="evenodd"></path><path id="path3" d="M90.591 71.400 C 90.591 90.540,90.640 98.429,90.700 88.930 C 90.760 79.432,90.760 63.772,90.700 54.130 C 90.640 44.489,90.591 52.260,90.591 71.400 M354.520 212.000 C 354.520 213.210,354.595 213.705,354.687 213.100 C 354.778 212.495,354.778 211.505,354.687 210.900 C 354.595 210.295,354.520 210.790,354.520 212.000 M354.524 219.000 C 354.526 220.320,354.601 220.812,354.690 220.093 C 354.779 219.374,354.777 218.294,354.686 217.693 C 354.595 217.092,354.522 217.680,354.524 219.000 " stroke="none" fill="#c4c4c4" fill-rule="evenodd"></path><path id="path4" d="" stroke="none" fill="#e4e4e4" fill-rule="evenodd"></path></g></svg>