<?xml version="1.0" standalone="no"?>
<!DOCTYPE svg PUBLIC "-//W3C//DTD SVG 20010904//EN"
 "http://www.w3.org/TR/2001/REC-SVG-20010904/DTD/svg10.dtd">
<svg version="1.0" xmlns="http://www.w3.org/2000/svg"
 width="1000.000000pt" height="1000.000000pt" viewBox="0 0 1000.000000 1000.000000"
 preserveAspectRatio="xMidYMid meet">

<g transform="translate(0.000000,1000.000000) scale(0.100000,-0.100000)"
fill="#000000" stroke="none">
<path d="M6945 8800 c-423 -253 -780 -464 -792 -471 -18 -10 -53 -4 -210 34
-350 86 -562 112 -938 112 -458 0 -796 -51 -1205 -184 l-146 -47 -690 417
c-379 230 -692 419 -696 419 -5 0 -8 -390 -8 -866 l0 -866 -89 -96 c-572 -620
-910 -1347 -1017 -2187 -23 -174 -26 -689 -6 -860 123 -1053 625 -1967 1437
-2618 397 -318 867 -560 1366 -702 68 -19 129 -35 136 -35 11 0 13 121 13 623
l0 622 -142 60 c-1133 479 -1792 1678 -1592 2895 216 1310 1395 2275 2719
2227 644 -24 1250 -271 1709 -697 l89 -82 423 423 424 424 0 957 c0 527 -3
958 -7 957 -5 -1 -354 -207 -778 -459z"/>
<path d="M2472 5188 c9 -13 468 -646 1022 -1407 l1006 -1383 0 -809 c0 -444 3
-810 8 -812 4 -3 68 -11 142 -17 167 -16 576 -14 730 3 l115 12 3 815 3 815
583 800 582 800 467 3 466 2 -25 -91 c-212 -793 -805 -1466 -1563 -1775 l-106
-44 -3 -625 c-1 -344 1 -625 5 -625 16 0 202 52 293 82 431 141 853 370 1220
662 161 128 468 435 596 596 598 752 901 1691 845 2619 -12 205 -31 385 -42
395 -3 4 -1055 5 -2338 4 l-2332 -3 423 -597 423 -597 238 -3 237 -3 -225
-310 c-124 -170 -231 -315 -238 -322 -9 -9 -161 193 -682 910 l-671 922 -598
3 -598 2 14 -22z"/>
</g>
</svg>
