<svg id="svg" version="1.1" xmlns="http://www.w3.org/2000/svg" xmlns:xlink="http://www.w3.org/1999/xlink" width="400" height="400" viewBox="0, 0, 400,400"><g id="svgg"><path id="path0" d="M277.061 48.560 L 245.123 67.503 241.661 66.529 C 212.289 58.266,179.580 59.075,151.037 68.770 L 146.274 70.388 118.528 53.594 C 103.268 44.357,90.696 36.800,90.591 36.800 C 90.486 36.800,90.400 52.385,90.400 71.433 L 90.400 106.067 85.801 111.148 C 50.174 150.516,36.940 203.838,50.198 254.600 C 63.933 307.188,104.729 349.075,156.918 364.172 C 160.393 365.178,163.408 366.000,163.618 366.000 C 163.856 366.000,164.000 356.620,164.000 341.054 L 164.000 316.107 161.500 315.216 C 141.636 308.133,120.850 290.801,108.990 271.428 C 65.374 200.189,116.511 108.951,200.000 109.049 C 228.148 109.083,251.529 118.271,273.028 137.749 L 275.455 139.948 292.330 123.070 L 309.204 106.192 309.102 67.904 L 309.000 29.617 277.061 48.560 M167.969 194.500 C 169.079 196.095,176.699 206.850,184.904 218.400 L 199.821 239.400 251.911 239.501 C 280.560 239.557,304.000 239.647,303.999 239.701 C 303.998 239.756,303.562 241.420,303.029 243.400 C 294.445 275.310,270.396 302.262,239.300 314.824 L 236.000 316.157 236.000 341.079 C 236.000 354.785,236.153 366.000,236.340 366.000 C 236.987 366.000,247.420 362.847,251.600 361.388 C 299.753 344.583,337.411 303.236,349.952 253.400 C 354.876 233.834,356.123 208.627,352.955 192.700 L 352.736 191.600 259.344 191.600 L 165.952 191.600 167.969 194.500 " stroke="none" fill="#161616" fill-rule="evenodd"></path><path id="path1" d="M0.000 200.000 L 0.000 400.000 200.000 400.000 L 400.000 400.000 400.000 200.000 L 400.000 0.000 200.000 0.000 L 0.000 0.000 0.000 200.000 M292.704 123.096 C 283.409 132.393,275.651 140.000,275.464 140.000 C 275.278 140.000,273.657 138.631,271.863 136.958 C 227.545 95.632,155.438 100.980,117.212 148.427 C 71.383 205.311,94.456 289.715,162.900 315.565 L 164.000 315.980 164.000 341.162 L 164.000 366.344 159.700 365.191 C 47.413 335.074,7.092 194.010,86.742 109.944 L 90.396 106.087 90.498 71.278 L 90.600 36.469 118.353 53.287 L 146.107 70.105 151.953 68.246 C 181.411 58.879,211.776 58.130,240.677 66.059 L 245.153 67.287 277.277 48.229 L 309.400 29.171 309.502 67.682 L 309.604 106.192 292.704 123.096 M352.993 191.700 C 354.332 195.683,355.226 217.725,354.436 227.273 C 349.047 292.401,304.929 346.456,242.404 364.536 C 238.996 365.522,236.071 366.244,235.904 366.141 C 235.737 366.037,235.600 354.734,235.600 341.021 L 235.600 316.090 238.900 314.778 C 266.539 303.790,288.405 281.782,299.349 253.937 C 301.058 249.589,303.600 241.333,303.600 240.131 C 303.600 239.697,300.238 239.600,285.300 239.602 L 267.000 239.605 243.508 271.902 L 220.016 304.200 220.008 336.662 L 220.000 369.125 218.100 369.372 C 207.940 370.695,192.060 370.695,181.900 369.372 L 180.000 369.125 180.000 336.762 L 180.000 304.398 139.935 249.299 C 117.900 218.995,99.428 193.615,98.888 192.900 L 97.905 191.600 122.081 191.600 L 146.256 191.600 173.017 228.400 C 187.736 248.640,199.873 265.193,199.989 265.185 C 200.220 265.169,218.117 240.567,218.333 239.969 C 218.412 239.751,214.648 239.600,209.119 239.600 L 199.771 239.600 182.885 215.811 C 173.598 202.728,166.000 191.838,166.000 191.611 C 166.000 190.956,352.773 191.044,352.993 191.700 " stroke="none" fill="#fbfbfb" fill-rule="evenodd"></path><path id="path2" d="M98.896 192.497 C 99.222 192.994,117.603 218.307,139.744 248.750 L 180.000 304.099 180.000 336.426 C 180.000 354.206,180.135 368.836,180.300 368.937 C 182.071 370.024,206.670 370.419,215.200 369.497 L 219.800 369.000 219.902 336.469 L 220.005 303.938 240.273 276.069 C 251.420 260.741,261.952 246.265,263.677 243.900 L 266.813 239.600 242.878 239.600 L 218.943 239.600 209.641 252.395 C 204.525 259.433,200.218 265.266,200.069 265.357 C 199.921 265.449,187.735 248.936,172.990 228.662 L 146.180 191.800 122.242 191.697 L 98.304 191.594 98.896 192.497 M275.178 291.100 L 273.800 292.600 275.300 291.222 C 276.696 289.938,276.984 289.600,276.678 289.600 C 276.612 289.600,275.937 290.275,275.178 291.100 " stroke="none" fill="#747474" fill-rule="evenodd"></path><path id="path3" d="M198.291 60.689 C 199.001 60.777,200.261 60.779,201.091 60.692 C 201.921 60.605,201.340 60.533,199.800 60.531 C 198.260 60.529,197.581 60.600,198.291 60.689 M292.398 123.100 L 275.400 140.200 292.500 123.202 C 308.394 107.403,309.780 106.000,309.498 106.000 C 309.442 106.000,301.747 113.695,292.398 123.100 M195.505 109.083 C 196.002 109.179,196.722 109.175,197.105 109.075 C 197.487 108.975,197.080 108.896,196.200 108.901 C 195.320 108.905,195.007 108.987,195.505 109.083 M203.105 109.083 C 203.602 109.179,204.322 109.175,204.705 109.075 C 205.087 108.975,204.680 108.896,203.800 108.901 C 202.920 108.905,202.607 108.987,203.105 109.083 M199.600 191.498 C 289.802 191.770,353.106 191.771,352.938 191.500 C 352.836 191.335,310.688 191.244,259.276 191.298 C 207.864 191.351,181.010 191.441,199.600 191.498 M93.293 210.800 C 93.293 211.570,93.375 211.885,93.476 211.500 C 93.576 211.115,93.576 210.485,93.476 210.100 C 93.375 209.715,93.293 210.030,93.293 210.800 M44.951 215.600 C 44.951 218.130,45.016 219.165,45.096 217.900 C 45.175 216.635,45.175 214.565,45.096 213.300 C 45.016 212.035,44.951 213.070,44.951 215.600 M93.293 220.400 C 93.293 221.170,93.375 221.485,93.476 221.100 C 93.576 220.715,93.576 220.085,93.476 219.700 C 93.375 219.315,93.293 219.630,93.293 220.400 M124.400 291.000 C 125.595 292.210,126.663 293.200,126.773 293.200 C 126.883 293.200,125.995 292.210,124.800 291.000 C 123.605 289.790,122.537 288.800,122.427 288.800 C 122.317 288.800,123.205 289.790,124.400 291.000 M235.692 340.876 C 235.641 354.668,235.735 366.036,235.900 366.138 C 236.172 366.307,236.168 348.105,235.891 324.800 C 235.832 319.850,235.743 327.084,235.692 340.876 M309.200 325.000 C 307.561 326.650,306.310 328.000,306.420 328.000 C 306.530 328.000,307.961 326.650,309.600 325.000 C 311.239 323.350,312.490 322.000,312.380 322.000 C 312.270 322.000,310.839 323.350,309.200 325.000 M192.100 370.276 C 192.485 370.376,193.115 370.376,193.500 370.276 C 193.885 370.175,193.570 370.093,192.800 370.093 C 192.030 370.093,191.715 370.175,192.100 370.276 M206.500 370.276 C 206.885 370.376,207.515 370.376,207.900 370.276 C 208.285 370.175,207.970 370.093,207.200 370.093 C 206.430 370.093,206.115 370.175,206.500 370.276 " stroke="none" fill="#a1a1a1" fill-rule="evenodd"></path><path id="path4" d="M309.392 67.800 C 309.392 88.920,309.441 97.501,309.500 86.870 C 309.559 76.238,309.559 58.958,309.500 48.470 C 309.441 37.981,309.392 46.680,309.392 67.800 M194.700 370.282 C 195.195 370.378,196.005 370.378,196.500 370.282 C 196.995 370.187,196.590 370.109,195.600 370.109 C 194.610 370.109,194.205 370.187,194.700 370.282 M203.500 370.282 C 203.995 370.378,204.805 370.378,205.300 370.282 C 205.795 370.187,205.390 370.109,204.400 370.109 C 203.410 370.109,203.005 370.187,203.500 370.282 " stroke="none" fill="#848484" fill-rule="evenodd"></path></g></svg>