<svg width="250" height="250" viewBox="0 0 250 250" fill="none" xmlns="http://www.w3.org/2000/svg">
<path d="M246.258 155.239C229.561 222.204 161.73 262.957 94.75 246.258C27.7979 229.563 -12.9605 161.735 3.74436 94.775C20.4337 27.8028 88.2653 -12.9546 155.226 3.74057C222.201 20.4357 262.956 88.2709 246.258 155.239Z" fill="#0052FF"/>
<path d="M234.491 151.777C219.414 212.243 158.165 249.041 97.6857 233.963C37.2311 218.888 0.428125 157.642 15.5118 97.1809C30.5815 36.7081 91.8303 -0.0938518 152.293 14.9811C212.768 30.056 249.568 91.3079 234.491 151.777Z" fill="white"/>
<path d="M182.801 108.777C185.362 91.6535 172.323 82.4477 154.493 76.307L160.277 53.1102L146.156 49.5919L140.525 72.1767C136.812 71.2522 132.999 70.3793 129.21 69.5149L134.881 46.7807L120.768 43.2617L114.981 66.4499C111.908 65.7506 108.891 65.0586 105.963 64.3307L105.979 64.2585L86.5046 59.3961L82.7475 74.4774C82.7475 74.4774 93.2252 76.8782 93.0043 77.0269C98.7232 78.4547 99.757 82.2389 99.584 85.2389L92.9957 111.665C93.3904 111.765 93.9008 111.91 94.4642 112.136C93.9938 112.019 93.4905 111.89 92.9721 111.765L83.737 148.784C83.0371 150.521 81.264 153.127 77.266 152.138C77.4068 152.343 67.0014 149.576 67.0014 149.576L59.9912 165.739L78.3677 170.319C81.7866 171.176 85.1369 172.073 88.435 172.917L82.5909 196.379L96.6963 199.898L102.484 176.686C106.337 177.731 110.077 178.696 113.738 179.605L107.97 202.71L122.092 206.229L127.936 182.811C152.015 187.367 170.123 185.529 177.744 163.752C183.887 146.218 177.439 136.104 164.769 129.509C173.996 127.381 180.946 121.313 182.801 108.777ZM150.535 154.016C146.171 171.55 116.646 162.072 107.073 159.694L114.828 128.612C124.4 131 155.096 135.73 150.535 154.016ZM154.903 108.524C150.921 124.473 126.347 116.37 118.375 114.383L125.405 86.1919C133.377 88.1788 159.05 91.8865 154.903 108.524Z" fill="#0052FF"/>
</svg>
