<svg width="335" height="335" viewBox="0 0 335 335" fill="none" xmlns="http://www.w3.org/2000/svg">
<rect width="335" height="335" rx="167.5" fill="black"/>
<path d="M167.331 115.245H167.071C157.098 115.245 149.013 107.16 149.013 97.1874V96.9273C149.013 86.9547 157.098 78.8696 167.071 78.8696H167.331C177.304 78.8696 185.389 86.9547 185.389 96.9273V97.1874C185.389 107.16 177.304 115.245 167.331 115.245Z" fill="white"/>
<path d="M167.331 186.819H167.071C157.098 186.819 149.013 178.734 149.013 168.761V168.501C149.013 158.528 157.098 150.443 167.071 150.443H167.331C177.304 150.443 185.389 158.528 185.389 168.501V168.761C185.389 178.734 177.304 186.819 167.331 186.819Z" fill="white"/>
<path d="M113.815 168.501V168.761C113.815 178.734 105.729 186.819 95.7569 186.819H95.4968C85.5242 186.819 77.4391 178.734 77.4391 168.761V168.501C77.4391 158.528 85.5242 150.443 95.4968 150.443H95.7569C105.729 150.443 113.815 158.528 113.815 168.501Z" fill="white"/>
<path d="M167.069 218.815H167.329C177.3 218.815 185.384 226.899 185.384 236.87V237.13C185.384 247.101 177.3 255.185 167.329 255.185H167.069C157.097 255.185 149.013 247.101 149.013 237.13V236.87C149.013 226.899 157.097 218.815 167.069 218.815Z" fill="white"/>
<path d="M222.304 168.761V168.501C222.304 158.528 230.389 150.443 240.362 150.443H240.622C250.595 150.443 258.68 158.528 258.68 168.501V168.761C258.68 178.734 250.595 186.819 240.622 186.819H240.362C230.389 186.819 222.304 178.734 222.304 168.761Z" fill="white"/>
<path d="M118.771 227.568C125.117 227.568 130.261 222.423 130.261 216.077C130.261 209.731 125.117 204.587 118.771 204.587C112.425 204.587 107.28 209.731 107.28 216.077C107.28 222.423 112.425 227.568 118.771 227.568Z" fill="white"/>
<path d="M118.771 124.856C125.117 124.856 130.261 119.711 130.261 113.365C130.261 107.019 125.117 101.875 118.771 101.875C112.425 101.875 107.28 107.019 107.28 113.365C107.28 119.711 112.425 124.856 118.771 124.856Z" fill="white"/>
<path d="M214.186 124.856C220.532 124.856 225.676 119.711 225.676 113.365C225.676 107.019 220.532 101.875 214.186 101.875C207.84 101.875 202.695 107.019 202.695 113.365C202.695 119.711 207.84 124.856 214.186 124.856Z" fill="white"/>
<path d="M214.21 227.571C220.556 227.571 225.701 222.427 225.701 216.081C225.701 209.735 220.556 204.59 214.21 204.59C207.865 204.59 202.72 209.735 202.72 216.081C202.72 222.427 207.865 227.571 214.21 227.571Z" fill="white"/>
<g opacity="0.8" filter="url(#filter0_f_795_396)">
<path d="M167.331 115.245H167.071C157.098 115.245 149.013 107.16 149.013 97.1874V96.9273C149.013 86.9547 157.098 78.8696 167.071 78.8696H167.331C177.304 78.8696 185.389 86.9547 185.389 96.9273V97.1874C185.389 107.16 177.304 115.245 167.331 115.245Z" fill="white"/>
<path d="M167.331 186.819H167.071C157.098 186.819 149.013 178.734 149.013 168.761V168.501C149.013 158.528 157.098 150.443 167.071 150.443H167.331C177.304 150.443 185.389 158.528 185.389 168.501V168.761C185.389 178.734 177.304 186.819 167.331 186.819Z" fill="white"/>
<path d="M113.815 168.501V168.761C113.815 178.734 105.729 186.819 95.7569 186.819H95.4968C85.5242 186.819 77.4391 178.734 77.4391 168.761V168.501C77.4391 158.528 85.5242 150.443 95.4968 150.443H95.7569C105.729 150.443 113.815 158.528 113.815 168.501Z" fill="white"/>
<path d="M167.069 218.815H167.329C177.3 218.815 185.384 226.899 185.384 236.87V237.13C185.384 247.101 177.3 255.185 167.329 255.185H167.069C157.097 255.185 149.013 247.101 149.013 237.13V236.87C149.013 226.899 157.097 218.815 167.069 218.815Z" fill="white"/>
<path d="M222.304 168.761V168.501C222.304 158.528 230.389 150.443 240.362 150.443H240.622C250.595 150.443 258.68 158.528 258.68 168.501V168.761C258.68 178.734 250.595 186.819 240.622 186.819H240.362C230.389 186.819 222.304 178.734 222.304 168.761Z" fill="white"/>
<path d="M118.771 227.568C125.117 227.568 130.261 222.423 130.261 216.077C130.261 209.731 125.117 204.587 118.771 204.587C112.425 204.587 107.28 209.731 107.28 216.077C107.28 222.423 112.425 227.568 118.771 227.568Z" fill="white"/>
<path d="M118.771 124.856C125.117 124.856 130.261 119.711 130.261 113.365C130.261 107.019 125.117 101.875 118.771 101.875C112.425 101.875 107.28 107.019 107.28 113.365C107.28 119.711 112.425 124.856 118.771 124.856Z" fill="white"/>
<path d="M214.186 124.856C220.532 124.856 225.676 119.711 225.676 113.365C225.676 107.019 220.532 101.875 214.186 101.875C207.84 101.875 202.695 107.019 202.695 113.365C202.695 119.711 207.84 124.856 214.186 124.856Z" fill="white"/>
<path d="M214.21 227.571C220.556 227.571 225.701 222.427 225.701 216.081C225.701 209.735 220.556 204.59 214.21 204.59C207.865 204.59 202.72 209.735 202.72 216.081C202.72 222.427 207.865 227.571 214.21 227.571Z" fill="white"/>
</g>
<g opacity="0.5" filter="url(#filter1_f_795_396)">
<path d="M167.331 115.245H167.071C157.098 115.245 149.013 107.16 149.013 97.1874V96.9273C149.013 86.9547 157.098 78.8696 167.071 78.8696H167.331C177.304 78.8696 185.389 86.9547 185.389 96.9273V97.1874C185.389 107.16 177.304 115.245 167.331 115.245Z" fill="white"/>
<path d="M167.331 186.819H167.071C157.098 186.819 149.013 178.734 149.013 168.761V168.501C149.013 158.528 157.098 150.443 167.071 150.443H167.331C177.304 150.443 185.389 158.528 185.389 168.501V168.761C185.389 178.734 177.304 186.819 167.331 186.819Z" fill="white"/>
<path d="M113.815 168.501V168.761C113.815 178.734 105.729 186.819 95.7569 186.819H95.4968C85.5242 186.819 77.4391 178.734 77.4391 168.761V168.501C77.4391 158.528 85.5242 150.443 95.4968 150.443H95.7569C105.729 150.443 113.815 158.528 113.815 168.501Z" fill="white"/>
<path d="M167.069 218.815H167.329C177.3 218.815 185.384 226.899 185.384 236.87V237.13C185.384 247.101 177.3 255.185 167.329 255.185H167.069C157.097 255.185 149.013 247.101 149.013 237.13V236.87C149.013 226.899 157.097 218.815 167.069 218.815Z" fill="white"/>
<path d="M222.304 168.761V168.501C222.304 158.528 230.389 150.443 240.362 150.443H240.622C250.595 150.443 258.68 158.528 258.68 168.501V168.761C258.68 178.734 250.595 186.819 240.622 186.819H240.362C230.389 186.819 222.304 178.734 222.304 168.761Z" fill="white"/>
<path d="M118.771 227.568C125.117 227.568 130.261 222.423 130.261 216.077C130.261 209.731 125.117 204.587 118.771 204.587C112.425 204.587 107.28 209.731 107.28 216.077C107.28 222.423 112.425 227.568 118.771 227.568Z" fill="white"/>
<path d="M118.771 124.856C125.117 124.856 130.261 119.711 130.261 113.365C130.261 107.019 125.117 101.875 118.771 101.875C112.425 101.875 107.28 107.019 107.28 113.365C107.28 119.711 112.425 124.856 118.771 124.856Z" fill="white"/>
<path d="M214.186 124.856C220.532 124.856 225.676 119.711 225.676 113.365C225.676 107.019 220.532 101.875 214.186 101.875C207.84 101.875 202.695 107.019 202.695 113.365C202.695 119.711 207.84 124.856 214.186 124.856Z" fill="white"/>
<path d="M214.21 227.571C220.556 227.571 225.701 222.427 225.701 216.081C225.701 209.735 220.556 204.59 214.21 204.59C207.865 204.59 202.72 209.735 202.72 216.081C202.72 222.427 207.865 227.571 214.21 227.571Z" fill="white"/>
</g>
<g opacity="0.1" filter="url(#filter2_f_795_396)">
<path d="M166.212 116.06H165.952C155.979 116.06 147.894 107.975 147.894 98.0023V97.7422C147.894 87.7696 155.979 79.6846 165.952 79.6846H166.212C176.185 79.6846 184.27 87.7696 184.27 97.7422V98.0023C184.27 107.975 176.185 116.06 166.212 116.06Z" fill="white"/>
<path d="M166.212 187.633H165.952C155.979 187.633 147.894 179.548 147.894 169.576V169.315C147.894 159.343 155.979 151.258 165.952 151.258H166.212C176.185 151.258 184.27 159.343 184.27 169.315V169.576C184.27 179.548 176.185 187.633 166.212 187.633Z" fill="white"/>
<path d="M112.696 169.315V169.576C112.696 179.548 104.611 187.633 94.638 187.633H94.3779C84.4053 187.633 76.3203 179.548 76.3203 169.576V169.315C76.3203 159.343 84.4053 151.258 94.3779 151.258H94.638C104.611 151.258 112.696 159.343 112.696 169.315Z" fill="white"/>
<path d="M165.95 219.629H166.21C176.181 219.629 184.265 227.713 184.265 237.685V237.945C184.265 247.916 176.181 256 166.21 256H165.95C155.978 256 147.894 247.916 147.894 237.945V237.685C147.894 227.713 155.978 219.629 165.95 219.629Z" fill="white"/>
<path d="M221.185 169.576V169.315C221.185 159.343 229.27 151.258 239.243 151.258H239.503C249.476 151.258 257.561 159.343 257.561 169.315V169.576C257.561 179.548 249.476 187.633 239.503 187.633H239.243C229.27 187.633 221.185 179.548 221.185 169.576Z" fill="white"/>
<path d="M117.652 228.383C123.998 228.383 129.142 223.238 129.142 216.892C129.142 210.546 123.998 205.402 117.652 205.402C111.306 205.402 106.162 210.546 106.162 216.892C106.162 223.238 111.306 228.383 117.652 228.383Z" fill="white"/>
<path d="M117.652 125.671C123.998 125.671 129.142 120.526 129.142 114.18C129.142 107.834 123.998 102.69 117.652 102.69C111.306 102.69 106.162 107.834 106.162 114.18C106.162 120.526 111.306 125.671 117.652 125.671Z" fill="white"/>
<path d="M213.067 125.671C219.413 125.671 224.557 120.526 224.557 114.18C224.557 107.834 219.413 102.69 213.067 102.69C206.721 102.69 201.576 107.834 201.576 114.18C201.576 120.526 206.721 125.671 213.067 125.671Z" fill="white"/>
<path d="M213.091 228.386C219.437 228.386 224.582 223.242 224.582 216.896C224.582 210.55 219.437 205.405 213.091 205.405C206.745 205.405 201.601 210.55 201.601 216.896C201.601 223.242 206.745 228.386 213.091 228.386Z" fill="white"/>
</g>
<g opacity="0.3" filter="url(#filter3_f_795_396)">
<path d="M167.331 115.245H167.071C157.098 115.245 149.013 107.16 149.013 97.1874V96.9273C149.013 86.9547 157.098 78.8696 167.071 78.8696H167.331C177.304 78.8696 185.389 86.9547 185.389 96.9273V97.1874C185.389 107.16 177.304 115.245 167.331 115.245Z" fill="white"/>
<path d="M167.331 186.819H167.071C157.098 186.819 149.013 178.734 149.013 168.761V168.501C149.013 158.528 157.098 150.443 167.071 150.443H167.331C177.304 150.443 185.389 158.528 185.389 168.501V168.761C185.389 178.734 177.304 186.819 167.331 186.819Z" fill="white"/>
<path d="M113.815 168.501V168.761C113.815 178.734 105.73 186.819 95.757 186.819H95.4969C85.5243 186.819 77.4392 178.734 77.4392 168.761V168.501C77.4392 158.528 85.5243 150.443 95.4969 150.443H95.757C105.73 150.443 113.815 158.528 113.815 168.501Z" fill="white"/>
<path d="M167.069 218.815H167.329C177.3 218.815 185.384 226.899 185.384 236.87V237.13C185.384 247.101 177.3 255.185 167.329 255.185H167.069C157.097 255.185 149.013 247.101 149.013 237.13V236.87C149.013 226.899 157.097 218.815 167.069 218.815Z" fill="white"/>
<path d="M222.304 168.761V168.501C222.304 158.528 230.389 150.443 240.362 150.443H240.622C250.595 150.443 258.68 158.528 258.68 168.501V168.761C258.68 178.734 250.595 186.819 240.622 186.819H240.362C230.389 186.819 222.304 178.734 222.304 168.761Z" fill="white"/>
<path d="M118.771 227.568C125.117 227.568 130.261 222.423 130.261 216.077C130.261 209.731 125.117 204.587 118.771 204.587C112.425 204.587 107.28 209.731 107.28 216.077C107.28 222.423 112.425 227.568 118.771 227.568Z" fill="white"/>
<path d="M118.771 124.856C125.117 124.856 130.261 119.711 130.261 113.365C130.261 107.019 125.117 101.875 118.771 101.875C112.425 101.875 107.28 107.019 107.28 113.365C107.28 119.711 112.425 124.856 118.771 124.856Z" fill="white"/>
<path d="M214.186 124.856C220.532 124.856 225.676 119.711 225.676 113.365C225.676 107.019 220.532 101.875 214.186 101.875C207.84 101.875 202.695 107.019 202.695 113.365C202.695 119.711 207.84 124.856 214.186 124.856Z" fill="white"/>
<path d="M214.211 227.571C220.556 227.571 225.701 222.427 225.701 216.081C225.701 209.735 220.556 204.59 214.211 204.59C207.865 204.59 202.72 209.735 202.72 216.081C202.72 222.427 207.865 227.571 214.211 227.571Z" fill="white"/>
<g opacity="0.8" filter="url(#filter4_f_795_396)">
<path d="M167.331 115.245H167.071C157.098 115.245 149.013 107.16 149.013 97.1874V96.9273C149.013 86.9547 157.098 78.8696 167.071 78.8696H167.331C177.304 78.8696 185.389 86.9547 185.389 96.9273V97.1874C185.389 107.16 177.304 115.245 167.331 115.245Z" fill="white"/>
<path d="M167.331 186.819H167.071C157.098 186.819 149.013 178.734 149.013 168.761V168.501C149.013 158.528 157.098 150.443 167.071 150.443H167.331C177.304 150.443 185.389 158.528 185.389 168.501V168.761C185.389 178.734 177.304 186.819 167.331 186.819Z" fill="white"/>
<path d="M113.815 168.501V168.761C113.815 178.734 105.73 186.819 95.757 186.819H95.4969C85.5243 186.819 77.4392 178.734 77.4392 168.761V168.501C77.4392 158.528 85.5243 150.443 95.4969 150.443H95.757C105.73 150.443 113.815 158.528 113.815 168.501Z" fill="white"/>
<path d="M167.069 218.815H167.329C177.3 218.815 185.384 226.899 185.384 236.87V237.13C185.384 247.101 177.3 255.185 167.329 255.185H167.069C157.097 255.185 149.013 247.101 149.013 237.13V236.87C149.013 226.899 157.097 218.815 167.069 218.815Z" fill="white"/>
<path d="M222.304 168.761V168.501C222.304 158.528 230.389 150.443 240.362 150.443H240.622C250.595 150.443 258.68 158.528 258.68 168.501V168.761C258.68 178.734 250.595 186.819 240.622 186.819H240.362C230.389 186.819 222.304 178.734 222.304 168.761Z" fill="white"/>
<path d="M118.771 227.568C125.117 227.568 130.261 222.423 130.261 216.077C130.261 209.731 125.117 204.587 118.771 204.587C112.425 204.587 107.28 209.731 107.28 216.077C107.28 222.423 112.425 227.568 118.771 227.568Z" fill="white"/>
<path d="M118.771 124.856C125.117 124.856 130.261 119.711 130.261 113.365C130.261 107.019 125.117 101.875 118.771 101.875C112.425 101.875 107.28 107.019 107.28 113.365C107.28 119.711 112.425 124.856 118.771 124.856Z" fill="white"/>
<path d="M214.186 124.856C220.532 124.856 225.676 119.711 225.676 113.365C225.676 107.019 220.532 101.875 214.186 101.875C207.84 101.875 202.695 107.019 202.695 113.365C202.695 119.711 207.84 124.856 214.186 124.856Z" fill="white"/>
<path d="M214.211 227.571C220.556 227.571 225.701 222.427 225.701 216.081C225.701 209.735 220.556 204.59 214.211 204.59C207.865 204.59 202.72 209.735 202.72 216.081C202.72 222.427 207.865 227.571 214.211 227.571Z" fill="white"/>
</g>
<g opacity="0.5" filter="url(#filter5_f_795_396)">
<path d="M167.331 115.245H167.071C157.098 115.245 149.013 107.16 149.013 97.1874V96.9273C149.013 86.9547 157.098 78.8696 167.071 78.8696H167.331C177.304 78.8696 185.389 86.9547 185.389 96.9273V97.1874C185.389 107.16 177.304 115.245 167.331 115.245Z" fill="white"/>
<path d="M167.331 186.819H167.071C157.098 186.819 149.013 178.734 149.013 168.761V168.501C149.013 158.528 157.098 150.443 167.071 150.443H167.331C177.304 150.443 185.389 158.528 185.389 168.501V168.761C185.389 178.734 177.304 186.819 167.331 186.819Z" fill="white"/>
<path d="M113.815 168.501V168.761C113.815 178.734 105.73 186.819 95.757 186.819H95.4969C85.5243 186.819 77.4392 178.734 77.4392 168.761V168.501C77.4392 158.528 85.5243 150.443 95.4969 150.443H95.757C105.73 150.443 113.815 158.528 113.815 168.501Z" fill="white"/>
<path d="M167.069 218.815H167.329C177.3 218.815 185.384 226.899 185.384 236.87V237.13C185.384 247.101 177.3 255.185 167.329 255.185H167.069C157.097 255.185 149.013 247.101 149.013 237.13V236.87C149.013 226.899 157.097 218.815 167.069 218.815Z" fill="white"/>
<path d="M222.304 168.761V168.501C222.304 158.528 230.389 150.443 240.362 150.443H240.622C250.595 150.443 258.68 158.528 258.68 168.501V168.761C258.68 178.734 250.595 186.819 240.622 186.819H240.362C230.389 186.819 222.304 178.734 222.304 168.761Z" fill="white"/>
<path d="M118.771 227.568C125.117 227.568 130.261 222.423 130.261 216.077C130.261 209.731 125.117 204.587 118.771 204.587C112.425 204.587 107.28 209.731 107.28 216.077C107.28 222.423 112.425 227.568 118.771 227.568Z" fill="white"/>
<path d="M118.771 124.856C125.117 124.856 130.261 119.711 130.261 113.365C130.261 107.019 125.117 101.875 118.771 101.875C112.425 101.875 107.28 107.019 107.28 113.365C107.28 119.711 112.425 124.856 118.771 124.856Z" fill="white"/>
<path d="M214.186 124.856C220.532 124.856 225.676 119.711 225.676 113.365C225.676 107.019 220.532 101.875 214.186 101.875C207.84 101.875 202.695 107.019 202.695 113.365C202.695 119.711 207.84 124.856 214.186 124.856Z" fill="white"/>
<path d="M214.211 227.571C220.556 227.571 225.701 222.427 225.701 216.081C225.701 209.735 220.556 204.59 214.211 204.59C207.865 204.59 202.72 209.735 202.72 216.081C202.72 222.427 207.865 227.571 214.211 227.571Z" fill="white"/>
</g>
<g opacity="0.1" filter="url(#filter6_f_795_396)">
<path d="M166.212 116.06H165.952C155.98 116.06 147.894 107.975 147.894 98.0023V97.7422C147.894 87.7696 155.98 79.6846 165.952 79.6846H166.212C176.185 79.6846 184.27 87.7696 184.27 97.7422V98.0023C184.27 107.975 176.185 116.06 166.212 116.06Z" fill="white"/>
<path d="M166.212 187.633H165.952C155.98 187.633 147.894 179.548 147.894 169.576V169.315C147.894 159.343 155.98 151.258 165.952 151.258H166.212C176.185 151.258 184.27 159.343 184.27 169.315V169.576C184.27 179.548 176.185 187.633 166.212 187.633Z" fill="white"/>
<path d="M112.696 169.315V169.576C112.696 179.548 104.611 187.633 94.6381 187.633H94.378C84.4054 187.633 76.3203 179.548 76.3203 169.576V169.315C76.3203 159.343 84.4054 151.258 94.378 151.258H94.6381C104.611 151.258 112.696 159.343 112.696 169.315Z" fill="white"/>
<path d="M165.95 219.629H166.21C176.181 219.629 184.265 227.713 184.265 237.685V237.945C184.265 247.916 176.181 256 166.21 256H165.95C155.978 256 147.894 247.916 147.894 237.945V237.685C147.894 227.713 155.978 219.629 165.95 219.629Z" fill="white"/>
<path d="M221.185 169.576V169.315C221.185 159.343 229.271 151.258 239.243 151.258H239.503C249.476 151.258 257.561 159.343 257.561 169.315V169.576C257.561 179.548 249.476 187.633 239.503 187.633H239.243C229.271 187.633 221.185 179.548 221.185 169.576Z" fill="white"/>
<path d="M117.652 228.383C123.998 228.383 129.142 223.238 129.142 216.892C129.142 210.546 123.998 205.402 117.652 205.402C111.306 205.402 106.162 210.546 106.162 216.892C106.162 223.238 111.306 228.383 117.652 228.383Z" fill="white"/>
<path d="M117.652 125.671C123.998 125.671 129.142 120.526 129.142 114.18C129.142 107.834 123.998 102.69 117.652 102.69C111.306 102.69 106.162 107.834 106.162 114.18C106.162 120.526 111.306 125.671 117.652 125.671Z" fill="white"/>
<path d="M213.067 125.671C219.413 125.671 224.557 120.526 224.557 114.18C224.557 107.834 219.413 102.69 213.067 102.69C206.721 102.69 201.576 107.834 201.576 114.18C201.576 120.526 206.721 125.671 213.067 125.671Z" fill="white"/>
<path d="M213.092 228.386C219.437 228.386 224.582 223.242 224.582 216.896C224.582 210.55 219.437 205.405 213.092 205.405C206.746 205.405 201.601 210.55 201.601 216.896C201.601 223.242 206.746 228.386 213.092 228.386Z" fill="white"/>
</g>
</g>
<defs>
<filter id="filter0_f_795_396" x="66.2515" y="67.682" width="203.616" height="198.691" filterUnits="userSpaceOnUse" color-interpolation-filters="sRGB">
<feFlood flood-opacity="0" result="BackgroundImageFix"/>
<feBlend mode="normal" in="SourceGraphic" in2="BackgroundImageFix" result="shape"/>
<feGaussianBlur stdDeviation="5.59384" result="effect1_foregroundBlur_795_396"/>
</filter>
<filter id="filter1_f_795_396" x="75.2016" y="76.6321" width="185.716" height="180.791" filterUnits="userSpaceOnUse" color-interpolation-filters="sRGB">
<feFlood flood-opacity="0" result="BackgroundImageFix"/>
<feBlend mode="normal" in="SourceGraphic" in2="BackgroundImageFix" result="shape"/>
<feGaussianBlur stdDeviation="1.11877" result="effect1_foregroundBlur_795_396"/>
</filter>
<filter id="filter2_f_795_396" x="51.7074" y="55.0717" width="230.466" height="225.541" filterUnits="userSpaceOnUse" color-interpolation-filters="sRGB">
<feFlood flood-opacity="0" result="BackgroundImageFix"/>
<feBlend mode="normal" in="SourceGraphic" in2="BackgroundImageFix" result="shape"/>
<feGaussianBlur stdDeviation="12.3064" result="effect1_foregroundBlur_795_396"/>
</filter>
<filter id="filter3_f_795_396" x="42.3203" y="44.8696" width="250.359" height="245.13" filterUnits="userSpaceOnUse" color-interpolation-filters="sRGB">
<feFlood flood-opacity="0" result="BackgroundImageFix"/>
<feBlend mode="normal" in="SourceGraphic" in2="BackgroundImageFix" result="shape"/>
<feGaussianBlur stdDeviation="17" result="effect1_foregroundBlur_795_396"/>
</filter>
<filter id="filter4_f_795_396" x="66.2515" y="67.682" width="203.616" height="198.691" filterUnits="userSpaceOnUse" color-interpolation-filters="sRGB">
<feFlood flood-opacity="0" result="BackgroundImageFix"/>
<feBlend mode="normal" in="SourceGraphic" in2="BackgroundImageFix" result="shape"/>
<feGaussianBlur stdDeviation="5.59384" result="effect1_foregroundBlur_795_396"/>
</filter>
<filter id="filter5_f_795_396" x="75.2017" y="76.6321" width="185.716" height="180.791" filterUnits="userSpaceOnUse" color-interpolation-filters="sRGB">
<feFlood flood-opacity="0" result="BackgroundImageFix"/>
<feBlend mode="normal" in="SourceGraphic" in2="BackgroundImageFix" result="shape"/>
<feGaussianBlur stdDeviation="1.11877" result="effect1_foregroundBlur_795_396"/>
</filter>
<filter id="filter6_f_795_396" x="51.7074" y="55.0717" width="230.466" height="225.541" filterUnits="userSpaceOnUse" color-interpolation-filters="sRGB">
<feFlood flood-opacity="0" result="BackgroundImageFix"/>
<feBlend mode="normal" in="SourceGraphic" in2="BackgroundImageFix" result="shape"/>
<feGaussianBlur stdDeviation="12.3064" result="effect1_foregroundBlur_795_396"/>
</filter>
</defs>
</svg>
