<svg width="128" height="128" viewBox="0 0 128 128" fill="none" xmlns="http://www.w3.org/2000/svg">
<circle cx="64" cy="64" r="64" fill="url(#paint0_linear)"/>
<circle cx="64" cy="64" r="60" fill="url(#paint1_linear)"/>
<path fill-rule="evenodd" clip-rule="evenodd" d="M114.987 50.0308C108.675 28.6554 88.2374 13 64.0001 13C39.7626 13 19.325 28.6556 13.0127 50.0312C13.6236 26.7304 36.2175 8 64 8C91.7824 8 114.376 26.7302 114.987 50.0308Z" fill="url(#paint2_linear)"/>
<path d="M92.6657 31.5169C93.8316 27.1967 91.9262 21.887 87.2888 22.0018C78.3708 21.8781 76.9178 34.3263 77.9184 45.2019L68.4609 53.268C64.9372 50.2554 60.0127 49.6634 55.5842 50.7148C40.7759 54.3459 35.3207 75.4609 41.5155 87.5734C38.4877 94.6765 38.914 103.396 43.0467 109.987C46.527 116.931 57.072 119.184 54.9751 114.625C54.4792 114.007 54.4792 114.228 53.7223 114.148C43.8298 113.521 41.3589 98.661 44.0908 91.5402C52.8609 101.859 72.1847 98.3253 79.0059 89.1371C89.0898 75.6199 85.6531 59.2315 83.5737 44.5128C87.254 40.8464 91.3606 36.7824 92.6657 31.5169ZM43.1425 83.156C38.1049 63.5075 54.9142 47.6049 65.7377 55.6092H65.7464C56.3585 63.0393 48.6499 72.4394 43.1425 83.156ZM74.7514 85.4619C68.922 95.8339 51.5819 98.1044 45.0914 87.6617C46.9794 82.0958 49.8766 76.9363 53.6266 72.4483L53.6788 72.4306C57.9246 67.3683 62.562 62.6594 67.5474 58.3392C69.7834 65.2214 64.2673 74.5244 57.8115 74.0739C58.1943 80.1522 67.2167 75.4256 68.9742 72.996C73.194 68.3843 73.5768 59.9294 70.5664 55.6711L78.2838 49.1775C79.8847 67.6333 80.9809 73.0932 74.7514 85.4619ZM83.0517 40.3074C81.4421 23.0267 88.185 24.7141 89.0463 26.1983C91.3693 30.9249 85.2094 38.832 83.0517 40.3074Z" fill="#987918"/>
<path d="M90.6657 30.5169C91.8316 26.1967 89.9262 20.887 85.2888 21.0018C76.3708 20.8781 74.9178 33.3263 75.9184 44.2019L66.4609 52.268C62.9372 49.2554 58.0127 48.6634 53.5842 49.7148C38.7759 53.3459 33.3207 74.4609 39.5155 86.5734C36.4877 93.6765 36.914 102.396 41.0467 108.987C44.527 115.931 55.072 118.184 52.9751 113.625C52.4792 113.007 52.4792 113.228 51.7223 113.148C41.8298 112.521 39.3589 97.661 42.0908 90.5402C50.8609 100.859 70.1847 97.3253 77.0059 88.1371C87.0898 74.6199 83.6531 58.2315 81.5737 43.5128C85.254 39.8464 89.3606 35.7824 90.6657 30.5169ZM41.1425 82.156C36.1049 62.5075 52.9142 46.6049 63.7377 54.6092H63.7464C54.3585 62.0393 46.6499 71.4394 41.1425 82.156ZM72.7514 84.4619C66.922 94.8339 49.5819 97.1044 43.0914 86.6617C44.9794 81.0958 47.8766 75.9363 51.6266 71.4483L51.6788 71.4306C55.9246 66.3683 60.562 61.6594 65.5474 57.3392C67.7834 64.2214 62.2673 73.5244 55.8115 73.0739C56.1943 79.1522 65.2167 74.4256 66.9742 71.996C71.194 67.3843 71.5768 58.9294 68.5664 54.6711L76.2838 48.1775C77.8847 66.6333 78.9809 72.0932 72.7514 84.4619ZM81.0517 39.3074C79.4421 22.0267 86.185 23.7141 87.0463 25.1983C89.3693 29.9249 83.2094 37.832 81.0517 39.3074Z" fill="url(#paint3_linear)"/>
<defs>
<linearGradient id="paint0_linear" x1="64" y1="0" x2="64" y2="128" gradientUnits="userSpaceOnUse">
<stop stop-color="#FADC7E"/>
<stop offset="1" stop-color="#50400F"/>
</linearGradient>
<linearGradient id="paint1_linear" x1="64" y1="4" x2="64" y2="124" gradientUnits="userSpaceOnUse">
<stop stop-color="#DAAB16"/>
<stop offset="1" stop-color="#A78A30"/>
</linearGradient>
<linearGradient id="paint2_linear" x1="64" y1="6" x2="64" y2="64" gradientUnits="userSpaceOnUse">
<stop stop-color="#FCD24F"/>
<stop offset="1" stop-color="#C39C22"/>
</linearGradient>
<linearGradient id="paint3_linear" x1="64" y1="21" x2="64" y2="116" gradientUnits="userSpaceOnUse">
<stop stop-color="#FFE8A0"/>
<stop offset="1" stop-color="#DFC05C"/>
</linearGradient>
</defs>
</svg>
