<svg width="278" height="278" viewBox="0 0 278 278" fill="none" xmlns="http://www.w3.org/2000/svg">
<path fill-rule="evenodd" clip-rule="evenodd" d="M170.115 13.0146C152.762 -4.3382 124.628 -4.33822 107.275 13.0146L13.0146 107.275C-4.3382 124.628 -4.33822 152.762 13.0146 170.115L107.275 264.375C124.628 281.728 152.762 281.728 170.115 264.375L264.375 170.115C281.728 152.762 281.728 124.628 264.375 107.275L170.115 13.0146ZM227.565 94.4588C227.565 69.9182 207.67 50.024 183.13 50.024L94.2603 50.024C69.7196 50.024 49.8255 69.9182 49.8255 94.4588L49.8255 183.328C49.8255 207.869 69.7196 227.763 94.2603 227.763H183.13C207.67 227.763 227.565 207.869 227.565 183.328V94.4588Z" fill="black"/>
<path d="M126.127 63.4808C133.068 56.5396 144.322 56.5396 151.263 63.4808L214.103 126.321C221.044 133.262 221.044 144.516 214.103 151.457L151.263 214.297C144.322 221.238 133.068 221.238 126.127 214.297L63.2867 151.457C56.3456 144.516 56.3456 133.262 63.2867 126.321L126.127 63.4808Z" fill="black"/>
</svg>
