<svg width="200" height="200" viewBox="0 0 200 200" fill="none" xmlns="http://www.w3.org/2000/svg">
<g clip-path="url(#clip0_1140_5)">
<path fill-rule="evenodd" clip-rule="evenodd" d="M122.385 9.36303C109.901 -3.121 89.6604 -3.12102 77.1763 9.36303L9.36303 77.1763C-3.121 89.6604 -3.12102 109.901 9.36303 122.385L77.1763 190.198C89.6604 202.682 109.901 202.682 122.385 190.198L190.198 122.385C202.682 109.901 202.682 89.6604 190.198 77.1763L122.385 9.36303ZM163.716 67.956C163.716 50.3009 149.403 35.9885 131.748 35.9885H67.8132C50.158 35.9885 35.8457 50.3009 35.8457 67.956V131.891C35.8457 149.546 50.158 163.858 67.8132 163.858H131.748C149.403 163.858 163.716 149.546 163.716 131.891V67.956Z" fill="white"/>
<path d="M90.7387 45.6691C95.7322 40.6754 103.829 40.6754 108.822 45.6691L154.031 90.8779C159.024 95.8714 159.024 103.968 154.031 108.961L108.822 154.17C103.829 159.163 95.7322 159.163 90.7387 154.17L45.5299 108.961C40.5363 103.968 40.5363 95.8714 45.5299 90.8779L90.7387 45.6691Z" fill="white"/>
</g>
<defs>
<clipPath id="clip0_1140_5">
<rect width="200" height="200" fill="white"/>
</clipPath>
</defs>
</svg>
