<svg width="24" height="24" viewBox="0 0 24 24" fill="none" xmlns="http://www.w3.org/2000/svg">
<path d="M23.151 4.24272C22.9018 3.30187 22.1011 2.36101 20.6598 1.31365C19.5031 0.4793 18.2752 0 17.2966 0C17.1008 0 16.9228 0.0177513 16.7449 0.0532549C16.3001 0.142012 15.9085 0.461551 15.6595 0.940854C15.3569 1.50891 15.2857 2.27226 15.4815 2.7338C15.5526 2.87581 15.6416 3.05334 15.7484 3.2131C14.8053 3.78117 14.2714 3.94093 14.2002 3.95868C16.656 4.77527 18.7023 6.47946 19.9835 8.69846L20.0014 8.48544C20.0547 7.89962 20.2327 7.22504 20.4818 6.53272C20.7309 6.60373 20.98 6.63924 21.2292 6.63924C21.8876 6.63924 22.457 6.37296 22.8129 5.89365C23.1688 5.41435 23.3111 4.77527 23.151 4.24272Z" fill="#5E12A0"/>
<path d="M20.5882 6.01783C22.2075 6.46163 22.8659 5.21899 22.6523 4.38465C22.421 3.5503 21.6736 2.69821 20.3568 1.73961C19.04 0.781004 17.7055 0.390458 16.8513 0.56797C15.9972 0.745494 15.748 2.04139 15.9615 2.53844C16.0505 2.73371 16.2462 3.01774 16.5132 3.33728C16.1751 3.56806 15.8548 3.74557 15.5879 3.90534C17.225 4.63317 18.6486 5.7693 19.7162 7.18946C19.8408 6.71016 20.0187 6.2841 20.1789 5.91132C20.3034 5.92906 20.4458 5.96457 20.5882 6.01783Z" fill="url(#paint0_radial_2333_6081)"/>
<path d="M11.3174 23.4141C16.811 23.4141 21.2646 18.9712 21.2646 13.4907C21.2646 8.01021 16.811 3.56738 11.3174 3.56738C5.82365 3.56738 1.37012 8.01021 1.37012 13.4907C1.37012 18.9712 5.82365 23.4141 11.3174 23.4141Z" fill="url(#paint1_radial_2333_6081)"/>
<path opacity="0.6" d="M21.8356 3.56752C20.4832 2.14738 19.3443 1.77458 17.9742 1.4728C16.9065 1.22427 17.1912 0.620702 18.4902 0.744968C17.8675 0.531946 17.2802 0.478688 16.8531 0.567444C15.9989 0.744968 15.7499 2.04086 15.9634 2.53791C16.0523 2.73319 16.2481 3.01721 16.5151 3.33675C16.0346 3.65629 15.6253 3.88706 15.2871 4.06459C15.4473 4.13559 15.643 4.22435 15.8743 4.34862C16.4794 4.66816 17.1378 5.2007 17.1378 5.2007C16.1413 4.34862 16.3548 3.95807 17.725 2.99947C18.1521 2.69769 18.935 2.73319 19.6647 3.10598C20.3943 3.47877 21.2484 4.41962 21.2484 4.41962L20.4298 5.9818C20.4832 5.99955 20.5366 6.01729 20.59 6.03505C21.106 6.17707 21.5153 6.14156 21.8356 6.01731C22.2094 5.78652 23.188 5.00544 21.8356 3.56752Z" fill="#A98698"/>
<path d="M17.9548 2.32495C18.3107 2.46697 18.7734 2.7155 19.3429 3.0883C20.019 3.53209 20.6062 4.02915 20.98 4.41969C20.3571 5.23628 19.9478 6.35466 19.6988 7.13574C19.8234 7.31326 19.9656 7.49078 20.0902 7.6683C20.2148 7.22451 20.4283 6.56768 20.713 5.91085C20.7842 5.9286 20.8732 5.9286 20.9622 5.9286C21.1756 5.9286 21.4248 5.89311 21.6206 5.73333C21.7629 5.62682 21.9231 5.43155 21.9053 5.07652C21.9053 4.73923 21.6384 4.31318 21.0867 3.79837C20.6953 3.42559 20.1614 3.01729 19.6276 2.64449C18.0972 1.63263 17.0295 1.3486 16.549 1.8279C16.2288 2.14744 16.2643 2.53799 16.3711 2.82202C15.8017 3.1948 15.3212 3.46108 15.001 3.63861C15.2145 3.70962 15.4103 3.79837 15.6237 3.88713C16.1931 3.58535 17.0117 3.07054 17.9548 2.32495ZM21.3181 4.86349C21.3714 4.95225 21.3893 5.04101 21.3893 5.09426C21.3893 5.25404 21.3359 5.30729 21.3002 5.3428C21.2291 5.39605 21.0867 5.43155 20.9622 5.43155C21.0689 5.21853 21.1935 5.04101 21.3181 4.86349ZM16.9228 2.21845C16.9761 2.16519 17.1186 2.12968 17.3499 2.16519C17.1719 2.30721 16.994 2.43147 16.816 2.55574C16.7982 2.43147 16.816 2.30721 16.9228 2.21845Z" fill="#5E12A0"/>
<path d="M11.3177 2.98193C5.4988 2.98193 0.783203 7.6862 0.783203 13.4911C0.783203 19.2959 5.4988 24.0003 11.3177 24.0003C17.1366 24.0003 21.8521 19.2959 21.8521 13.4911C21.8521 7.6862 17.1187 2.98193 11.3177 2.98193ZM11.3177 23.4144C5.81911 23.4144 1.37043 18.9765 1.37043 13.4911C1.37043 8.00574 5.81911 3.56774 11.3177 3.56774C16.8162 3.56774 21.265 8.00574 21.265 13.4911C21.265 18.9765 16.7985 23.4144 11.3177 23.4144Z" fill="#5E12A0"/>
<path opacity="0.6" d="M11.3174 23.4141C16.811 23.4141 21.2646 18.9712 21.2646 13.4907C21.2646 8.01021 16.811 3.56738 11.3174 3.56738C5.82365 3.56738 1.37012 8.01021 1.37012 13.4907C1.37012 18.9712 5.82365 23.4141 11.3174 23.4141Z" fill="url(#paint2_linear_2333_6081)"/>
<path opacity="0.6" d="M11.2465 22.2074C5.81908 21.3376 2.13557 16.2427 3.0253 10.8284C3.41679 8.43187 4.62683 6.3904 6.33512 4.91699C3.84386 6.3549 1.99321 8.85793 1.49496 11.9113C0.623015 17.3256 4.30652 22.4204 9.71611 23.2903C12.7412 23.7873 15.6595 22.8465 17.8127 21.0003C15.9087 22.1009 13.5954 22.5802 11.2465 22.2074Z" fill="#A98698"/>
<path opacity="0.6" d="M12.9013 3.71037C10.3922 3.30207 7.95433 3.87013 5.96132 5.13053C5.92573 5.16603 5.89014 5.20153 5.89014 5.20153C6.65531 4.73998 7.77638 4.33169 7.77638 4.33169C4.89364 6.00037 4.00391 7.89983 4.00391 7.89983C5.12497 5.73408 8.41699 4.20742 10.9972 4.1009C13.5774 3.9944 15.2679 4.75773 17.3321 6.40866C19.3963 8.07735 20.642 11.4857 20.5174 14.184C20.4107 16.8824 18.987 19.0659 18.987 19.0659C19.9657 17.8054 20.5529 16.8824 20.9267 15.9414C20.9979 15.6574 21.0691 15.3734 21.1046 15.0716C21.9944 9.67502 18.3286 4.58021 12.9013 3.71037Z" fill="url(#paint3_linear_2333_6081)"/>
<path d="M20.7654 13.4014C20.7654 18.6026 16.5302 22.8276 11.3164 22.8276C6.10255 22.8276 1.84961 18.6026 1.84961 13.4014H20.7654Z" fill="url(#paint4_linear_2333_6081)"/>
<g opacity="0.6">
<path opacity="0.6" d="M20.0186 13.4023C20.0186 18.4794 15.9971 22.6333 10.9434 22.8286C11.0679 22.8286 11.1925 22.8286 11.3171 22.8286C16.5309 22.8286 20.7661 18.6036 20.7661 13.4023H20.0186Z" fill="url(#paint5_linear_2333_6081)"/>
</g>
<g opacity="0.7">
<path opacity="0.7" d="M3.18812 13.4023H1.85352C1.85352 18.6036 6.08866 22.8286 11.3025 22.8286C11.5338 22.8286 11.7474 22.8286 11.9609 22.8108C7.06736 22.4558 3.18812 18.3729 3.18812 13.4023Z" fill="url(#paint6_linear_2333_6081)"/>
</g>
<path d="M20.7476 13.4914C20.7476 12.4085 18.8614 11.7872 16.3523 11.5742C14.5372 11.4322 12.7044 11.6097 10.6046 12.2488C8.78955 12.7813 7.15243 12.6925 5.96019 12.5505C3.30877 12.2488 1.84961 12.2132 1.84961 13.4914C1.84961 15.3376 5.62208 17.6453 11.2808 16.8465C14.1458 16.4382 15.6227 15.6039 17.3132 15.0358C19.1461 14.4322 20.7476 14.45 20.7476 13.4914Z" fill="url(#paint7_linear_2333_6081)"/>
<path d="M14.415 9.01908C15.2995 9.01908 16.0165 8.30378 16.0165 7.4214C16.0165 6.53904 15.2995 5.82373 14.415 5.82373C13.5305 5.82373 12.8135 6.53904 12.8135 7.4214C12.8135 8.30378 13.5305 9.01908 14.415 9.01908Z" fill="white"/>
<path d="M17.0287 10.2075C17.4022 10.2075 17.7049 9.90553 17.7049 9.53297C17.7049 9.16042 17.4022 8.8584 17.0287 8.8584C16.6553 8.8584 16.3525 9.16042 16.3525 9.53297C16.3525 9.90553 16.6553 10.2075 17.0287 10.2075Z" fill="white"/>
<g opacity="0.6">
<path opacity="0.6" d="M19.4485 6.14258C19.4307 6.14258 19.4129 6.14258 19.4129 6.14258C19.3061 6.12483 19.235 6.01831 19.2527 5.89405C19.4129 5.07746 20.0891 4.29638 20.1247 4.26087C20.1958 4.17211 20.3382 4.17211 20.4094 4.24312C20.4984 4.31412 20.4984 4.45614 20.4272 4.52715C20.4094 4.5449 19.7866 5.27273 19.6443 5.98281C19.6264 6.08932 19.5375 6.14258 19.4485 6.14258Z" fill="url(#paint8_linear_2333_6081)"/>
</g>
<path opacity="0.2" d="M10.6633 20.8935C10.9385 20.8935 11.1616 20.671 11.1616 20.3965C11.1616 20.1219 10.9385 19.8994 10.6633 19.8994C10.3881 19.8994 10.165 20.1219 10.165 20.3965C10.165 20.671 10.3881 20.8935 10.6633 20.8935Z" fill="white"/>
<g opacity="0.4">
<path opacity="0.6" d="M10.3781 20.7207C10.1824 20.5254 10.1824 20.206 10.3781 20.0107C10.4137 19.9751 10.4493 19.9574 10.4849 19.9219C10.4137 19.9397 10.3603 19.9751 10.307 20.0284C10.1112 20.2237 10.1112 20.5433 10.307 20.7385C10.4671 20.8982 10.7162 20.9338 10.912 20.8273C10.734 20.8982 10.5205 20.8628 10.3781 20.7207Z" fill="url(#paint9_linear_2333_6081)"/>
</g>
<path opacity="0.3" d="M10.8372 20.2537C10.8962 20.2537 10.944 20.2063 10.944 20.1478C10.944 20.0893 10.8962 20.042 10.8372 20.042C10.7783 20.042 10.7305 20.0893 10.7305 20.1478C10.7305 20.2063 10.7783 20.2537 10.8372 20.2537Z" fill="white"/>
<path opacity="0.2" d="M13.2599 20.646C13.5352 20.646 13.7582 20.4234 13.7582 20.1489C13.7582 19.8744 13.5352 19.6519 13.2599 19.6519C12.9848 19.6519 12.7617 19.8744 12.7617 20.1489C12.7617 20.4234 12.9848 20.646 13.2599 20.646Z" fill="white"/>
<g opacity="0.4">
<path opacity="0.6" d="M12.9738 20.4703C12.778 20.2749 12.778 19.9554 12.9738 19.7601C13.0094 19.7246 13.045 19.7068 13.0806 19.6714C13.0094 19.6891 12.956 19.7246 12.9026 19.7779C12.7069 19.9731 12.7069 20.2927 12.9026 20.488C13.0628 20.6478 13.3119 20.6832 13.5077 20.5767C13.3297 20.6478 13.1162 20.6122 12.9738 20.4703Z" fill="url(#paint10_linear_2333_6081)"/>
</g>
<path opacity="0.3" d="M13.4358 20.004C13.4948 20.004 13.5426 19.9567 13.5426 19.8982C13.5426 19.8398 13.4948 19.7925 13.4358 19.7925C13.3769 19.7925 13.3291 19.8398 13.3291 19.8982C13.3291 19.9567 13.3769 20.004 13.4358 20.004Z" fill="white"/>
<path opacity="0.2" d="M11.9772 21.7997C12.1836 21.7997 12.3509 21.6328 12.3509 21.427C12.3509 21.2211 12.1836 21.0542 11.9772 21.0542C11.7708 21.0542 11.6035 21.2211 11.6035 21.427C11.6035 21.6328 11.7708 21.7997 11.9772 21.7997Z" fill="white"/>
<g opacity="0.4">
<path opacity="0.6" d="M11.7607 21.6605C11.6184 21.5185 11.6184 21.27 11.7607 21.128C11.7785 21.1102 11.8141 21.0925 11.8319 21.0747C11.7785 21.0925 11.7429 21.128 11.7073 21.1635C11.565 21.3055 11.565 21.554 11.7073 21.6961C11.8319 21.8203 12.0099 21.838 12.1701 21.7494C12.0277 21.8026 11.8675 21.7671 11.7607 21.6605Z" fill="url(#paint11_linear_2333_6081)"/>
</g>
<path opacity="0.3" d="M12.1005 21.3008C12.1398 21.3008 12.1716 21.2692 12.1716 21.2303C12.1716 21.1913 12.1398 21.1597 12.1005 21.1597C12.0612 21.1597 12.0293 21.1913 12.0293 21.2303C12.0293 21.2692 12.0612 21.3008 12.1005 21.3008Z" fill="white"/>
<path opacity="0.2" d="M14.2701 21.5326C14.4765 21.5326 14.6438 21.3658 14.6438 21.1599C14.6438 20.954 14.4765 20.7871 14.2701 20.7871C14.0638 20.7871 13.8965 20.954 13.8965 21.1599C13.8965 21.3658 14.0638 21.5326 14.2701 21.5326Z" fill="white"/>
<g opacity="0.4">
<path opacity="0.6" d="M14.0606 21.3944C13.9183 21.2524 13.9183 21.0039 14.0606 20.8619C14.0784 20.8441 14.1139 20.8264 14.1318 20.8086C14.0784 20.8264 14.0427 20.8619 14.0072 20.8974C13.8648 21.0393 13.8648 21.2879 14.0072 21.43C14.1318 21.5542 14.3097 21.5719 14.4698 21.4832C14.3276 21.5365 14.1673 21.501 14.0606 21.3944Z" fill="url(#paint12_linear_2333_6081)"/>
</g>
<path opacity="0.3" d="M14.3944 21.0357C14.4338 21.0357 14.4656 21.0041 14.4656 20.965C14.4656 20.9261 14.4338 20.8945 14.3944 20.8945C14.3552 20.8945 14.3232 20.9261 14.3232 20.965C14.3232 21.0041 14.3552 21.0357 14.3944 21.0357Z" fill="white"/>
<path opacity="0.2" d="M8.54122 20.7167C8.9933 20.7167 9.35977 20.3511 9.35977 19.9001C9.35977 19.4491 8.9933 19.0835 8.54122 19.0835C8.08914 19.0835 7.72266 19.4491 7.72266 19.9001C7.72266 20.3511 8.08914 20.7167 8.54122 20.7167Z" fill="white"/>
<g opacity="0.4">
<path opacity="0.6" d="M8.07943 20.4144C7.75911 20.0949 7.75911 19.58 8.07943 19.2606C8.13281 19.2073 8.1862 19.1718 8.25736 19.1362C8.15061 19.1718 8.06163 19.2427 7.97266 19.3138C7.65234 19.6333 7.65234 20.1481 7.97266 20.4677C8.23957 20.734 8.64886 20.7872 8.96916 20.5919C8.66665 20.7162 8.31075 20.6629 8.07943 20.4144Z" fill="url(#paint13_linear_2333_6081)"/>
</g>
<path opacity="0.3" d="M8.82541 19.6509C8.92369 19.6509 9.00335 19.5714 9.00335 19.4734C9.00335 19.3753 8.92369 19.2959 8.82541 19.2959C8.72712 19.2959 8.64746 19.3753 8.64746 19.4734C8.64746 19.5714 8.72712 19.6509 8.82541 19.6509Z" fill="white"/>
<path opacity="0.2" d="M15.8576 18.7108C16.3098 18.7108 16.6762 18.3452 16.6762 17.8942C16.6762 17.4432 16.3098 17.0776 15.8576 17.0776C15.4056 17.0776 15.0391 17.4432 15.0391 17.8942C15.0391 18.3452 15.4056 18.7108 15.8576 18.7108Z" fill="white"/>
<g opacity="0.4">
<path opacity="0.6" d="M15.3744 18.4091C15.054 18.0895 15.054 17.5748 15.3744 17.2552C15.4277 17.2019 15.4811 17.1664 15.5523 17.1309C15.4454 17.1664 15.3565 17.2374 15.2676 17.3085C14.9473 17.628 14.9473 18.1428 15.2676 18.4623C15.5345 18.7286 15.9438 18.7819 16.2641 18.5865C15.9616 18.7109 15.6234 18.6576 15.3744 18.4091Z" fill="url(#paint14_linear_2333_6081)"/>
</g>
<path opacity="0.3" d="M16.1418 17.6456C16.2402 17.6456 16.3198 17.5661 16.3198 17.468C16.3198 17.37 16.2402 17.2905 16.1418 17.2905C16.0436 17.2905 15.9639 17.37 15.9639 17.468C15.9639 17.5661 16.0436 17.6456 16.1418 17.6456Z" fill="white"/>
<defs>
<radialGradient id="paint0_radial_2333_6081" cx="0" cy="0" r="1" gradientUnits="userSpaceOnUse" gradientTransform="translate(22.3278 3.26626) scale(7.95324 7.93414)">
<stop stop-color="#FFEAFF" stop-opacity="0.6"/>
<stop offset="0.6807" stop-color="#A087C9"/>
<stop offset="1" stop-color="#10002F"/>
</radialGradient>
<radialGradient id="paint1_radial_2333_6081" cx="0" cy="0" r="1" gradientUnits="userSpaceOnUse" gradientTransform="translate(20.2462 11.7284) scale(22.2741 23.6327)">
<stop stop-color="#FFEAFF" stop-opacity="0.6"/>
<stop offset="0.6807" stop-color="#A087C9"/>
<stop offset="1" stop-color="#10002F"/>
</radialGradient>
<linearGradient id="paint2_linear_2333_6081" x1="9.72174" y1="23.2734" x2="12.8886" y2="3.6893" gradientUnits="userSpaceOnUse">
<stop stop-color="#81FFFF"/>
<stop offset="0.6202" stop-color="white" stop-opacity="0"/>
</linearGradient>
<linearGradient id="paint3_linear_2333_6081" x1="18.3278" y1="6.75245" x2="10.1204" y2="14.3011" gradientUnits="userSpaceOnUse">
<stop offset="0.2888" stop-color="white"/>
<stop offset="0.7796" stop-color="white" stop-opacity="0"/>
</linearGradient>
<linearGradient id="paint4_linear_2333_6081" x1="1.85762" y1="18.1089" x2="20.7608" y2="18.1089" gradientUnits="userSpaceOnUse">
<stop stop-color="#0002E9"/>
<stop offset="0.9952" stop-color="#FF00C7"/>
</linearGradient>
<linearGradient id="paint5_linear_2333_6081" x1="21.6563" y1="14.2294" x2="11.3907" y2="23.9543" gradientUnits="userSpaceOnUse">
<stop offset="0.2888" stop-color="white"/>
<stop offset="0.7796" stop-color="white" stop-opacity="0"/>
</linearGradient>
<linearGradient id="paint6_linear_2333_6081" x1="1.86152" y1="18.1099" x2="11.9746" y2="18.1099" gradientUnits="userSpaceOnUse">
<stop stop-color="#000292"/>
<stop offset="0.9952" stop-color="#7D00C7"/>
</linearGradient>
<linearGradient id="paint7_linear_2333_6081" x1="1.87031" y1="14.2745" x2="20.7481" y2="14.2745" gradientUnits="userSpaceOnUse">
<stop stop-color="#000292"/>
<stop offset="0.9952" stop-color="#BE00C7"/>
</linearGradient>
<linearGradient id="paint8_linear_2333_6081" x1="20.4383" y1="4.17442" x2="19.0862" y2="6.37679" gradientUnits="userSpaceOnUse">
<stop offset="0.2888" stop-color="white"/>
<stop offset="0.7796" stop-color="white" stop-opacity="0"/>
</linearGradient>
<linearGradient id="paint9_linear_2333_6081" x1="10.1597" y1="20.4164" x2="10.9125" y2="20.4164" gradientUnits="userSpaceOnUse">
<stop offset="0.2888" stop-color="white"/>
<stop offset="0.7796" stop-color="white" stop-opacity="0"/>
</linearGradient>
<linearGradient id="paint10_linear_2333_6081" x1="12.7536" y1="20.1625" x2="13.5064" y2="20.1625" gradientUnits="userSpaceOnUse">
<stop offset="0.2888" stop-color="white"/>
<stop offset="0.7796" stop-color="white" stop-opacity="0"/>
</linearGradient>
<linearGradient id="paint11_linear_2333_6081" x1="11.5906" y1="21.4333" x2="12.1558" y2="21.4333" gradientUnits="userSpaceOnUse">
<stop offset="0.2888" stop-color="white"/>
<stop offset="0.7796" stop-color="white" stop-opacity="0"/>
</linearGradient>
<linearGradient id="paint12_linear_2333_6081" x1="13.8904" y1="21.1672" x2="14.4556" y2="21.1672" gradientUnits="userSpaceOnUse">
<stop offset="0.2888" stop-color="white"/>
<stop offset="0.7796" stop-color="white" stop-opacity="0"/>
</linearGradient>
<linearGradient id="paint13_linear_2333_6081" x1="7.72426" y1="19.9205" x2="8.95376" y2="19.9205" gradientUnits="userSpaceOnUse">
<stop offset="0.2888" stop-color="white"/>
<stop offset="0.7796" stop-color="white" stop-opacity="0"/>
</linearGradient>
<linearGradient id="paint14_linear_2333_6081" x1="15.026" y1="17.9144" x2="16.2555" y2="17.9144" gradientUnits="userSpaceOnUse">
<stop offset="0.2888" stop-color="white"/>
<stop offset="0.7796" stop-color="white" stop-opacity="0"/>
</linearGradient>
</defs>
</svg>
