<svg width="24" height="24" viewBox="0 0 24 24" fill="none" xmlns="http://www.w3.org/2000/svg">
<circle cx="12" cy="12" r="12" fill="#E50571"/>
<path d="M11.9813 13.4219C12.5012 13.4219 12.9228 13.0005 12.9228 12.4807C12.9228 11.9609 12.5012 11.5395 11.9813 11.5395C11.4612 11.5395 11.0397 11.9609 11.0397 12.4807C11.0397 13.0005 11.4612 13.4219 11.9813 13.4219Z" fill="white"/>
<path fill-rule="evenodd" clip-rule="evenodd" d="M6.33168 10.7865C6.33168 10.7384 6.3375 10.6917 6.34845 10.6471C5.33807 9.6919 4.83684 8.90231 5.07518 8.49039C5.45593 7.8322 7.61643 8.33114 10.3321 9.60374C10.5916 6.61706 11.2407 4.5 12.0002 4.5C12.761 4.5 13.4109 6.62365 13.6696 9.61768C14.2411 9.35253 14.7879 9.12127 15.2988 8.92741C15.2967 8.90747 15.2957 8.88722 15.2957 8.86671C15.2957 8.55485 15.5401 8.30205 15.8417 8.30205C16.0412 8.30205 16.2157 8.41261 16.311 8.5777C17.7117 8.14698 18.6982 8.09325 18.9424 8.51846C19.3204 9.17719 17.807 10.7946 15.3429 12.5066C17.7981 14.2288 19.306 15.852 18.9248 16.5091C18.5439 17.1676 16.385 16.6682 13.6686 15.3949C13.4091 18.3823 12.7599 20.5 12.0002 20.5C11.5189 20.5 11.082 19.6498 10.7604 18.267C10.5114 18.2144 10.3241 17.9867 10.3241 17.7137C10.3241 17.5208 10.4177 17.3505 10.5604 17.2486C10.4663 16.6792 10.3887 16.0519 10.3308 15.381C7.60276 16.6468 5.43615 17.1401 5.05765 16.4805C4.67962 15.8217 6.19287 14.2044 8.65695 12.4924C8.07941 12.0875 7.55433 11.688 7.09393 11.3053C7.02765 11.3349 6.95459 11.3513 6.87782 11.3513C6.5762 11.3513 6.33168 11.0984 6.33168 10.7865ZM10.3 10.0047C10.2655 10.4756 10.2404 10.9657 10.2259 11.4706C9.78929 11.7377 9.37119 12.0068 8.97517 12.2744C8.22394 11.7361 7.63482 11.2678 7.36263 11.0468C7.40181 10.9689 7.42395 10.8804 7.42395 10.7865C7.42395 10.4747 7.17944 10.2218 6.87782 10.2218C6.7557 10.2218 6.64296 10.2633 6.552 10.3333C5.49502 9.31898 5.40413 8.82251 5.40413 8.82251L5.40362 8.82058C5.33038 8.64704 5.48495 8.60527 5.48495 8.60527C6.16928 8.4761 7.13049 8.77046 7.13049 8.77046C8.03464 8.97625 9.18361 9.45991 10.3 10.0047ZM11.1142 18.2191C11.2934 18.1265 11.4165 17.935 11.4165 17.7137C11.4165 17.4131 11.1892 17.1673 10.9026 17.15C10.8081 16.5396 10.7411 15.8748 10.6939 15.2095C11.1171 15.0062 11.5522 14.7853 11.9947 14.5482C12.4462 14.7929 12.8901 15.0204 13.3216 15.2295C13.1974 16.5099 13.0334 17.4506 13.0334 17.4506C12.6545 19.5964 12.1238 20.0485 12.1238 20.0485C12.0109 20.1992 11.8979 20.0861 11.8979 20.0861C11.4429 19.5592 11.2154 18.5803 11.2154 18.5803C11.1798 18.4656 11.1461 18.3449 11.1142 18.2191ZM15.4633 9.27386C14.9573 9.46241 14.3734 9.70045 13.7002 9.99998C13.735 10.4737 13.7602 10.967 13.7747 11.4752C14.2178 11.7491 14.6418 12.0248 15.0429 12.2989C15.8941 11.6943 16.9143 10.8901 17.8814 9.92496C17.8814 9.92496 18.6065 9.18579 18.6442 8.77594C18.6476 8.74277 18.6393 8.70944 18.6205 8.68187C18.6017 8.65434 18.5738 8.6343 18.5417 8.62529C18.3436 8.57079 17.7768 8.51957 16.3809 8.9573C16.339 9.22615 16.1135 9.43143 15.8417 9.43143C15.6948 9.43143 15.5614 9.37145 15.4633 9.27386ZM10.6403 10.173C10.6296 10.2875 10.6192 10.4045 10.6089 10.5239C10.6089 10.5239 10.5995 10.7965 10.5937 11.2486C10.7627 11.1481 10.9342 11.0479 11.1079 10.9483C11.2729 10.8537 11.4372 10.7612 11.6007 10.6709C11.2907 10.5053 10.9682 10.3374 10.6403 10.173ZM12.0059 10.4503C11.5547 10.2059 11.1112 9.97842 10.6799 9.76946C11.0634 6.03867 11.6773 5.1156 11.8949 4.90055C11.9185 4.87719 11.9497 4.86292 11.9828 4.86024C12.0159 4.85757 12.0489 4.86666 12.076 4.88592C12.4119 5.12382 12.6937 6.11889 12.6937 6.11889C13.0504 7.44266 13.2403 8.73183 13.3409 9.77266C12.9069 9.98046 12.4604 10.2068 12.0059 10.4503ZM11.9876 10.8798C11.592 11.1044 11.1098 11.3844 10.5898 11.7003C10.5877 12.1661 10.5909 12.7403 10.6073 13.3665C10.9373 13.5704 11.2756 13.7681 11.6144 13.9508C11.6144 13.9508 11.7491 14.0334 11.9949 14.1708C12.3567 13.9782 12.7179 13.774 13.065 13.5609C13.065 13.5609 13.2043 13.4858 13.4467 13.3418C13.4598 12.9304 13.4625 12.5136 13.4503 12.1048C13.4503 12.1048 13.4539 11.963 13.4507 11.7087C13.0493 11.4732 12.5458 11.1846 11.9876 10.8798ZM13.4401 11.2709C13.2624 11.1638 13.082 11.0571 12.8989 10.951C12.7262 10.8509 12.5541 10.7531 12.383 10.6576C12.7799 10.4367 13.0224 10.3086 13.0224 10.3086C13.1421 10.2529 13.2594 10.1989 13.3742 10.1467C13.4098 10.5825 13.4295 10.9636 13.4401 11.2709ZM13.7844 11.9061C13.7877 12.1022 13.7893 12.3003 13.7893 12.5C13.7893 12.7144 13.7874 12.9268 13.7837 13.1369C14.0469 12.9736 14.3704 12.7651 14.734 12.5149C14.6283 12.4397 14.5198 12.3631 14.4084 12.2851C14.4084 12.2851 14.1754 12.1393 13.7844 11.9061ZM15.0252 12.7242C14.6293 12.9918 14.2112 13.2608 13.7747 13.5279C13.7598 14.0455 13.7339 14.5476 13.698 15.0293C14.648 15.4628 15.8556 15.9426 17.1762 16.2965C17.1762 16.2965 18.1788 16.5517 18.5533 16.3804C18.5836 16.3667 18.608 16.3427 18.6224 16.3126C18.6367 16.2826 18.64 16.2484 18.6316 16.2163C18.554 15.9212 18.0632 14.9268 15.0252 12.7242ZM13.3545 14.8695C13.3856 14.5083 13.4125 14.1264 13.431 13.7355C13.2541 13.8411 13.0743 13.9462 12.892 14.0507C12.7077 14.1563 12.524 14.2594 12.3415 14.3599C12.6144 14.5055 12.9565 14.6806 13.3545 14.8695ZM11.6424 14.3548C11.4636 14.2553 11.2838 14.1532 11.1032 14.0486C10.9398 13.954 10.7784 13.8588 10.6193 13.7634C10.6312 14.1102 10.6474 14.4687 10.6691 14.8301C10.9833 14.6836 11.3112 14.5244 11.6424 14.3548ZM10.2166 13.1199C10.2131 12.9154 10.2113 12.7086 10.2113 12.5C10.2113 12.3083 10.2128 12.1182 10.2157 11.9298C9.91812 12.1143 9.61237 12.3085 9.30689 12.509C9.59424 12.7096 9.8999 12.9161 10.2166 13.1199ZM8.98767 12.721C9.37986 12.9882 9.79372 13.2568 10.2258 13.5238C10.2403 14.0321 10.2655 14.5255 10.3003 14.9994C9.12194 15.5318 8.21841 15.8596 8.21841 15.8596C6.16763 16.5982 5.51155 16.3629 5.51155 16.3629C5.32323 16.3393 5.36568 16.1846 5.36568 16.1846C5.59666 15.5279 6.33178 14.8435 6.33178 14.8435C6.96295 14.1648 7.95698 13.4135 8.98767 12.721Z" fill="white"/>
</svg>
