<svg width="24" height="24" viewBox="0 0 24 24" fill="none" xmlns="http://www.w3.org/2000/svg">
<circle cx="12" cy="12" r="12" fill="#E50571"/>
<path fill-rule="evenodd" clip-rule="evenodd" d="M17.0845 5.57083C17.9308 6.18556 18.4009 6.7378 18.5471 7.29C18.6412 7.60257 18.5576 7.97769 18.3487 8.25902C18.1396 8.5403 17.8054 8.69659 17.4188 8.69659C17.2726 8.69659 17.1156 8.67422 16.9695 8.63256C17.0138 8.51414 17.0627 8.39169 17.1157 8.26924C17.1575 8.27966 17.2098 8.27966 17.262 8.27966C17.3873 8.27966 17.5336 8.25878 17.6486 8.16504C17.7321 8.10254 17.8262 7.98792 17.8158 7.7795C17.8158 7.58155 17.659 7.33147 17.3352 7.02931C17.1054 6.81052 16.7919 6.57086 16.4786 6.35208C15.58 5.75817 14.9532 5.59147 14.6711 5.8728C14.4831 6.06033 14.504 6.28958 14.5667 6.45628C14.4358 6.54192 14.313 6.61795 14.2006 6.68505C13.9298 6.27916 13.9158 5.78961 14.1489 5.35204C14.2951 5.07072 14.525 4.88318 14.7861 4.83105C14.8906 4.81022 14.995 4.7998 15.11 4.7998C15.6846 4.7998 16.4054 5.08113 17.0845 5.57083ZM14.1238 7.08734C14.458 6.91022 14.9428 6.60211 15.4964 6.16454C15.7054 6.24787 15.9771 6.39374 16.3114 6.61257C16.7083 6.87302 17.0531 7.16476 17.2725 7.39401C16.9074 7.87248 16.6673 8.52748 16.521 8.98579C17.3132 10.022 17.7844 11.3155 17.7844 12.7185C17.7844 16.1255 15.0159 18.8867 11.5998 18.8867C8.18354 18.8867 5.41504 16.1255 5.41504 12.7185C5.41504 9.31132 8.18354 6.55022 11.5998 6.55022C12.4968 6.55022 13.3504 6.74179 14.1211 7.08624L14.1238 7.08734ZM11.5998 18.5428C8.37155 18.5428 5.75978 15.938 5.75978 12.7185C5.75978 9.49891 8.37155 6.89404 11.5998 6.89404C14.8279 6.89404 17.4397 9.49891 17.4397 12.7185C17.4397 15.938 14.8174 18.5428 11.5998 18.5428ZM17.5128 7.78992C17.5128 7.75867 17.5023 7.70659 17.471 7.65451C17.3979 7.75867 17.3247 7.86288 17.262 7.98792C17.3352 7.98792 17.4187 7.96708 17.4604 7.93579C17.4814 7.91496 17.5128 7.88371 17.5128 7.78992ZM15.1413 6.07075C15.0055 6.04992 14.9219 6.07075 14.8906 6.102C14.8279 6.15412 14.8174 6.22704 14.8279 6.29995C14.9323 6.22704 15.0368 6.15412 15.1413 6.07075ZM14.5562 11.5931C16.0292 11.718 17.147 12.0305 17.147 12.666C17.147 15.7188 14.6606 18.1987 11.5996 18.1987C8.56691 18.1987 6.08795 15.7644 6.0424 12.7505C6.04197 12.7397 6.04173 12.7291 6.04173 12.7184C6.04173 12.7131 6.04177 12.7079 6.04187 12.7027C6.04177 12.6905 6.04178 12.6783 6.04178 12.666H6.04321C6.08301 11.9692 6.93554 11.9932 8.45502 12.1661C9.15501 12.2495 10.1162 12.3016 11.1818 11.9891C12.4145 11.6139 13.4906 11.5097 14.5562 11.5931ZM11.302 12.3917L11.3001 12.3923C10.1566 12.7277 9.1312 12.6698 8.40645 12.5836C7.61387 12.4935 7.07234 12.454 6.73206 12.5093C6.56752 12.5362 6.50853 12.5771 6.49149 12.5934L6.49096 12.5939C6.48573 12.5987 6.46206 12.6203 6.46206 12.7184C6.46206 12.8446 6.52902 13.0339 6.74382 13.259C6.95521 13.4806 7.28426 13.7078 7.73003 13.8988C8.61933 14.2801 9.92459 14.4965 11.5197 14.2715C12.7036 14.1027 13.438 13.8156 14.1558 13.5352C14.4273 13.4291 14.6963 13.3239 14.9864 13.2264L14.9876 13.226L14.9889 13.2256C15.2748 13.1315 15.549 13.0625 15.791 13.0043C15.8345 12.9937 15.8767 12.9837 15.9174 12.974L15.9207 12.9731L15.9217 12.973C16.1116 12.9276 16.2712 12.8896 16.4101 12.8475C16.5842 12.7947 16.6711 12.7506 16.7109 12.7188C16.7129 12.7172 16.7147 12.7157 16.7162 12.7145C16.7136 12.6744 16.6689 12.5267 16.2414 12.3539C15.8372 12.1907 15.2404 12.0731 14.5219 12.012C13.511 11.9331 12.488 12.0309 11.3041 12.3911L11.302 12.3917ZM13.4175 10.0929C13.9369 10.0929 14.3577 9.673 14.3577 9.15508C14.3577 8.63721 13.9369 8.21736 13.4175 8.21736C12.8983 8.21736 12.4772 8.63721 12.4772 9.15508C12.4772 9.673 12.8983 10.0929 13.4175 10.0929ZM15.3502 10.3954C15.3502 10.614 15.1724 10.7914 14.9532 10.7914C14.734 10.7914 14.5563 10.614 14.5563 10.3954C14.5563 10.1768 14.734 9.99945 14.9532 9.99945C15.1724 9.99945 15.3502 10.1768 15.3502 10.3954Z" fill="white"/>
</svg>
