<svg width="24" height="24" viewBox="0 0 24 24" fill="none" xmlns="http://www.w3.org/2000/svg">
<path d="M12 24C18.6274 24 24 18.6274 24 12C24 5.37258 18.6274 0 12 0C5.37258 0 0 5.37258 0 12C0 18.6274 5.37258 24 12 24Z" fill="#3E73C4"/>
<path d="M15.0167 13.593C15.0167 12 14.0567 11.454 12.1367 11.226C10.7657 11.0437 10.492 10.68 10.492 10.0425C10.492 9.40497 10.9495 8.99247 11.863 8.99247C12.1877 8.94085 12.5201 9.00951 12.7978 9.18557C13.0755 9.36164 13.2794 9.633 13.3712 9.94872C13.3954 10.0144 13.439 10.0711 13.4962 10.1113C13.5534 10.1515 13.6216 10.1733 13.6915 10.1737H14.4227C14.465 10.1749 14.507 10.1674 14.5463 10.1518C14.5855 10.1362 14.6212 10.1128 14.6512 10.083C14.6811 10.0532 14.7047 10.0176 14.7205 9.97839C14.7363 9.9392 14.7439 9.89721 14.743 9.85497V9.80997C14.6523 9.31688 14.4016 8.86744 14.0297 8.5312C13.6578 8.19496 13.1854 7.99068 12.6857 7.94997V6.85647C12.6857 6.67422 12.5485 6.53772 12.3205 6.49197H11.6342C11.452 6.49197 11.3147 6.62847 11.269 6.85647V7.90647C10.6833 7.92756 10.1272 8.16906 9.71192 8.58264C9.29667 8.99622 9.05293 9.55137 9.02949 10.137C9.02949 11.637 9.94299 12.2302 11.863 12.462C13.1432 12.687 13.5542 12.963 13.5542 13.6912C13.5542 14.4195 12.9145 14.9197 12.046 14.9197C10.8572 14.9197 10.4462 14.4195 10.309 13.7362C10.2951 13.6609 10.2556 13.5926 10.1973 13.5429C10.139 13.4932 10.0654 13.465 9.98874 13.4632H9.21174C9.16957 13.4622 9.12763 13.4697 9.08845 13.4854C9.04927 13.501 9.01367 13.5245 8.98381 13.5543C8.95394 13.584 8.93043 13.6196 8.91469 13.6587C8.89896 13.6979 8.89132 13.7398 8.89224 13.782V13.827C8.97697 14.4169 9.26568 14.9586 9.70822 15.3579C10.1508 15.7571 10.7192 15.9887 11.3147 16.0125V17.1C11.3147 17.2815 11.452 17.4187 11.68 17.4637H12.3662C12.5485 17.4637 12.6857 17.3272 12.7315 17.1V16.005C13.3421 15.9533 13.9124 15.6789 14.3338 15.234C14.7552 14.7891 14.9983 14.2048 15.0167 13.5922V13.593Z" fill="white"/>
<path d="M9.66924 18.375C8.35515 17.8988 7.21962 17.0295 6.41711 15.8851C5.6146 14.7408 5.18407 13.377 5.18407 11.9793C5.18407 10.5817 5.6146 9.21789 6.41711 8.07356C7.21962 6.92922 8.35515 6.05986 9.66924 5.58372C9.75671 5.54595 9.83016 5.48173 9.87925 5.40008C9.92835 5.31842 9.95064 5.22344 9.94299 5.12847V4.49097C9.94914 4.40747 9.92478 4.32458 9.87443 4.25768C9.82409 4.19079 9.75118 4.14443 9.66924 4.12722C9.60487 4.12054 9.54018 4.13645 9.48624 4.17222C7.82408 4.69382 6.37178 5.73229 5.34072 7.13647C4.30966 8.54066 3.75366 10.2373 3.75366 11.9793C3.75366 13.7214 4.30966 15.418 5.34072 16.8222C6.37178 18.2264 7.82408 19.2649 9.48624 19.7865C9.52417 19.8085 9.56679 19.8213 9.6106 19.8237C9.65441 19.8261 9.69817 19.8181 9.73828 19.8003C9.77839 19.7825 9.81371 19.7555 9.84134 19.7214C9.86898 19.6873 9.88813 19.6471 9.89724 19.6042C9.94299 19.5592 9.94299 19.5127 9.94299 19.422V18.7845C9.92862 18.7008 9.89682 18.6212 9.84966 18.5506C9.8025 18.4801 9.74103 18.4202 9.66924 18.375ZM14.5142 4.17297C14.4766 4.15028 14.4341 4.13686 14.3902 4.13382C14.3463 4.13078 14.3024 4.13822 14.2619 4.1555C14.2215 4.17279 14.1858 4.19943 14.1576 4.23325C14.1295 4.26706 14.1099 4.30707 14.1002 4.34997C14.0545 4.39572 14.0545 4.44147 14.0545 4.53222V5.17497C14.0621 5.26678 14.0908 5.3556 14.1382 5.43454C14.1857 5.51349 14.2507 5.58045 14.3282 5.63022C15.6423 6.10636 16.7779 6.97572 17.5804 8.12006C18.3829 9.26439 18.8134 10.6282 18.8134 12.0258C18.8134 13.4235 18.3829 14.7873 17.5804 15.9316C16.7779 17.076 15.6423 17.9453 14.3282 18.4215C14.2408 18.4592 14.1673 18.5235 14.1182 18.6051C14.0691 18.6868 14.0468 18.7818 14.0545 18.8767V19.5142C14.0483 19.5977 14.0727 19.6806 14.1231 19.7475C14.1734 19.8144 14.2463 19.8608 14.3282 19.878C14.3926 19.8847 14.4573 19.8687 14.5112 19.833C15.5399 19.5117 16.4949 18.9902 17.3212 18.2983C18.1475 17.6065 18.8287 16.7581 19.3258 15.8019C19.8228 14.8456 20.1258 13.8006 20.2172 12.7268C20.3087 11.653 20.1869 10.5717 19.8587 9.54522C19.4602 8.28839 18.7669 7.14508 17.8367 6.21068C16.9065 5.27627 15.7663 4.57786 14.5112 4.17372L14.5142 4.17297Z" fill="white"/>
</svg>
