<svg width="24" height="24" viewBox="0 0 24 24" fill="none" xmlns="http://www.w3.org/2000/svg">
<path d="M19.5695 5.03679L18.9105 5.69577C20.4829 7.41533 21.3549 9.6611 21.3549 11.9912C21.3549 14.3213 20.4829 16.5671 18.9105 18.2867L19.5695 18.9456C21.3182 17.0488 22.289 14.5634 22.289 11.9835C22.289 9.40363 21.3182 6.91822 19.5695 5.02142V5.03679Z" fill="#5A5564"/>
<path d="M5.71115 5.0939C7.43071 3.52147 9.67647 2.64948 12.0066 2.64948C14.3367 2.64948 16.5825 3.52147 18.302 5.0939L18.961 4.43493C17.0642 2.68622 14.5788 1.71535 11.9989 1.71535C9.41901 1.71535 6.93359 2.68622 5.03679 4.43493L5.71115 5.0939Z" fill="#5A5564"/>
<path d="M5.0939 18.2932C3.52334 16.5741 2.65249 14.3297 2.65249 12.0011C2.65249 9.67252 3.52334 7.42813 5.0939 5.70895L4.43493 5.04997C2.68622 6.94677 1.71535 9.43219 1.71535 12.0121C1.71535 14.592 2.68622 17.0774 4.43493 18.9742L5.0939 18.2932Z" fill="#5A5564"/>
<path d="M18.2932 18.9017C16.5737 20.4741 14.3279 21.3461 11.9978 21.3461C9.66769 21.3461 7.42192 20.4741 5.70236 18.9017L5.04338 19.5607C6.94018 21.3094 9.4256 22.2803 12.0055 22.2803C14.5854 22.2803 17.0708 21.3094 18.9676 19.5607L18.2932 18.9017Z" fill="#5A5564"/>
<path d="M16.1603 9.80121C16.0286 8.42614 14.8424 7.96485 13.3421 7.82427V5.93081H12.1823V7.78912C11.877 7.78912 11.5651 7.78912 11.2554 7.78912V5.93081H10.1043V7.83745H7.75178V9.07853C7.75178 9.07853 8.60845 9.06315 8.59528 9.07853C8.74974 9.06153 8.90477 9.10517 9.0277 9.20023C9.15062 9.29529 9.23185 9.43436 9.25425 9.58814V14.8072C9.25095 14.8615 9.23681 14.9145 9.21266 14.9632C9.18852 15.0118 9.15486 15.0552 9.11367 15.0906C9.07326 15.1267 9.02596 15.1543 8.97463 15.1716C8.92329 15.189 8.86897 15.1958 8.81493 15.1917C8.83031 15.2048 7.97144 15.1917 7.97144 15.1917L7.75178 16.5777H10.0824V18.5151H11.2422V16.6063H12.1691V18.5063H13.3311V16.5909C15.2905 16.4723 16.6568 15.989 16.8281 14.1549C16.9665 12.6787 16.2724 12.0198 15.1631 11.754C15.8374 11.4223 16.2548 10.8072 16.1603 9.80121ZM14.5349 13.9264C14.5349 15.3674 12.0659 15.2026 11.2795 15.2026V12.6458C12.0659 12.648 14.5349 12.4217 14.5349 13.9264ZM13.9967 10.324C13.9967 11.642 11.9363 11.4816 11.2817 11.4816V9.1576C11.9363 9.1576 13.9967 8.95112 13.9967 10.324Z" fill="#F09242"/>
<path d="M11.9978 24C9.62462 23.9996 7.30484 23.2955 5.33179 21.9767C3.35874 20.658 1.82101 18.7838 0.913031 16.5912C0.00505138 14.3986 -0.232403 11.9859 0.230689 9.65838C0.693782 7.33081 1.83663 5.19282 3.51472 3.51472C5.19282 1.83663 7.33081 0.693782 9.65838 0.230689C11.9859 -0.232403 14.3986 0.00505138 16.5912 0.913031C18.7838 1.82101 20.658 3.35874 21.9767 5.33179C23.2955 7.30484 23.9996 9.62462 24 11.9978C24.0003 13.574 23.69 15.1349 23.087 16.5912C22.4839 18.0475 21.5998 19.3707 20.4853 20.4853C19.3707 21.5998 18.0475 22.4839 16.5912 23.087C15.1349 23.69 13.574 24.0003 11.9978 24ZM11.9978 0.935755C9.81137 0.937492 7.67452 1.58738 5.85735 2.80327C4.04018 4.01916 2.62426 5.74648 1.78855 7.7669C0.952839 9.78732 0.734857 12.0101 1.16216 14.1544C1.58945 16.2987 2.64285 18.2682 4.1892 19.8139C5.73555 21.3596 7.70544 22.4123 9.84989 22.8387C11.9943 23.2652 14.2171 23.0463 16.2372 22.2098C18.2572 21.3733 19.984 19.9567 21.1992 18.139C22.4143 16.3213 23.0634 14.1842 23.0643 11.9978C23.0648 10.5446 22.7789 9.1055 22.223 7.76284C21.667 6.42019 20.8518 5.20029 19.824 4.17291C18.7962 3.14553 17.576 2.33082 16.2331 1.77537C14.8902 1.21991 13.451 0.9346 11.9978 0.935755Z" fill="#282138"/>
</svg>
