<svg width="24" height="24" viewBox="0 0 24 24" fill="none" xmlns="http://www.w3.org/2000/svg">
<path d="M12 24C18.6274 24 24 18.6274 24 12C24 5.37258 18.6274 0 12 0C5.37258 0 0 5.37258 0 12C0 18.6274 5.37258 24 12 24Z" fill="white"/>
<path d="M11.9985 3.264L11.881 3.66217V15.215L11.9985 15.332L17.3727 12.1621L11.9985 3.264Z" fill="#343434"/>
<path d="M11.9985 3.264L6.624 12.1621L11.9985 15.332V9.72451V3.264Z" fill="#8C8C8C"/>
<path d="M11.9985 16.3473L11.9322 16.4278V20.5431L11.9985 20.736L17.376 13.1791L11.9985 16.3473Z" fill="#3C3C3B"/>
<path d="M11.9985 20.736V16.3473L6.624 13.1791L11.9985 20.736Z" fill="#8C8C8C"/>
<path d="M11.9985 15.332L17.3727 12.1621L11.9985 9.72451V15.332Z" fill="#141414"/>
<path d="M6.624 12.1621L11.9985 15.332V9.72451L6.624 12.1621Z" fill="#393939"/>
</svg>
