<svg width="300" height="300" viewBox="0 0 300 300" fill="none" xmlns="http://www.w3.org/2000/svg">
<g clip-path="url(#clip0_213_53)">
<path fill-rule="evenodd" clip-rule="evenodd" d="M150 -0.0715332C232.892 -0.0715332 300.072 67.1081 300.072 150C300.072 232.892 232.892 300.072 150 300.072C67.1081 300.072 -0.0715332 232.892 -0.0715332 150C-0.0715332 67.1081 67.1081 -0.0715332 150 -0.0715332Z" fill="#1969FF"/>
<path d="M140.873 46.5999C145.991 43.9156 153.794 43.9156 158.912 46.5999L211.203 74.0874C214.281 75.698 215.999 78.1318 216.285 80.6371H216.321V218.755C216.249 221.475 214.531 224.195 211.203 225.949L158.912 253.436C153.794 256.12 145.991 256.12 140.873 253.436L88.5827 225.949C85.2541 224.195 83.6435 221.475 83.572 218.755C83.572 218.504 83.572 218.253 83.572 218.074V81.4961C83.572 81.353 83.572 81.2098 83.572 81.0308V80.6013H83.6077C83.8225 78.096 85.4689 75.7338 88.6185 74.0516L140.909 46.5641L140.873 46.5999ZM208.125 157.659L158.912 183.5C153.794 186.185 145.991 186.185 140.873 183.5L91.7681 157.695V218.432L140.873 244.095C143.629 245.562 146.528 246.994 149.32 247.173L149.893 247.208C152.828 247.208 155.655 245.741 158.554 244.345L208.125 218.218V157.659ZM75.0537 215.712C75.0537 221.009 75.6621 224.481 76.9148 226.951C77.917 228.991 79.456 230.53 82.2477 232.427L82.3909 232.534C82.9993 232.928 83.6793 233.357 84.5025 233.894L85.4689 234.467L88.4395 236.256L84.1804 243.271L80.8518 241.267L80.2792 240.909C79.3128 240.301 78.5254 239.8 77.7738 239.299C69.8282 233.966 66.8576 228.168 66.8218 216.07V215.712H75.0537ZM145.777 120.616C145.383 120.759 145.025 120.902 144.703 121.081L92.4123 148.568C92.3407 148.604 92.305 148.64 92.2692 148.64L92.2334 148.676L92.305 148.712L92.4123 148.783L144.703 176.271C145.025 176.45 145.383 176.593 145.777 176.736V120.651V120.616ZM154.009 120.616V176.7C154.402 176.557 154.76 176.414 155.082 176.235L207.373 148.747C207.445 148.712 207.48 148.676 207.516 148.676L207.552 148.64L207.48 148.604L207.373 148.533L155.082 121.045C154.76 120.866 154.402 120.723 154.009 120.58V120.616ZM208.125 90.3723L161.203 115.032L208.125 139.692V90.3723ZM91.8039 90.4439V139.621L138.618 115.032L91.8039 90.4439ZM155.082 53.8297C152.362 52.3981 147.459 52.3981 144.739 53.8297L92.4481 81.3172C92.3765 81.353 92.3407 81.3887 92.305 81.3887L92.2692 81.4245L92.3407 81.4603L92.4481 81.5319L144.739 109.019C147.459 110.451 152.362 110.451 155.082 109.019L207.373 81.5319C207.445 81.4961 207.48 81.4603 207.516 81.4603L207.552 81.4245L207.48 81.3887L207.373 81.3172L155.082 53.8297ZM215.855 56.8361L219.184 58.8404L219.757 59.1983C220.723 59.771 221.51 60.3079 222.262 60.8089C230.208 66.1418 233.178 71.9399 233.214 84.0373V84.3952H224.982C224.982 79.0981 224.374 75.6264 223.121 73.1568C222.119 71.1167 220.58 69.5777 217.788 67.6808L217.645 67.5734C217.037 67.1797 216.356 66.7502 215.533 66.2134L214.567 65.6407L211.596 63.8512L215.855 56.8361Z" fill="white"/>
</g>
<defs>
<clipPath id="clip0_213_53">
<rect width="300" height="300" fill="white"/>
</clipPath>
</defs>
</svg>
