<svg width="200" height="200" viewBox="0 0 200 200" fill="none" xmlns="http://www.w3.org/2000/svg">
<rect width="200" height="200" rx="100" fill="#172553"/>
<path fill-rule="evenodd" clip-rule="evenodd" d="M69.0689 136.364H95.951C103.337 136.364 109.718 134.919 115.092 132.031C120.466 129.119 124.597 124.941 127.485 119.496C130.397 114.051 131.853 107.54 131.853 99.9645C131.853 92.4124 130.397 85.9257 127.485 80.5043C124.573 75.0592 120.43 70.8925 115.056 68.0043C109.706 65.0923 103.326 63.6364 95.9155 63.6364H69.0689V78.6214H86.647L86.647 78.6221H95.0277C99.1944 78.6221 102.698 79.3205 105.539 80.7173C108.404 82.0904 110.57 84.3395 112.038 87.4645C113.505 90.5658 114.239 94.7325 114.239 99.9645C114.239 105.196 113.505 109.387 112.038 112.536C110.594 115.661 108.451 117.921 105.61 119.318C102.793 120.691 99.3483 121.378 95.2763 121.378H86.647L86.647 82.6214H69.0689V136.364Z" fill="white"/>
<rect x="68.147" y="82.625" width="17.582" height="53.7386" rx="1" fill="white"/>
<rect x="68.147" y="63.6364" width="17.582" height="14.9847" rx="1" fill="white"/>
</svg>
