<svg width="1200" height="1200" viewBox="0 0 1200 1200" fill="none" xmlns="http://www.w3.org/2000/svg">
<rect width="1200" height="1200" fill="white"/>
<path fill-rule="evenodd" clip-rule="evenodd" d="M784.967 518.385C784.967 461.819 739.466 415.879 683.067 415.172H425.351C522.901 421.976 599.951 503.172 600.146 602.406H784.967V518.385ZM598.197 250C501.627 250 421.798 321.679 409.011 414.736C306.553 416.371 224 499.937 224 602.784C224 706.654 308.204 790.857 412.073 790.857H414.239C424.354 856.375 468.283 910.729 527.637 935.533C549.939 944.852 574.419 950 600.101 950C694.134 950 772.049 880.99 785.963 790.853C786.71 790.862 787.457 790.867 788.206 790.867C892.076 790.867 976.279 706.664 976.279 602.794C976.279 498.923 892.076 414.72 788.206 414.72H787.382C774.588 321.671 694.763 250 598.197 250ZM766.766 789.658H499.941C450.187 782.043 412.076 739.061 412.076 687.177V602.783H600.133V602.794C600.133 699.414 672.992 779.016 766.766 789.658Z" fill="#4C66D4"/>
</svg>
