<?xml version="1.0" encoding="UTF-8"?>
<svg width="1753px" height="1780px" viewBox="0 0 1753 1780" version="1.1" xmlns="http://www.w3.org/2000/svg" xmlns:xlink="http://www.w3.org/1999/xlink">
    <title>Group</title>
    <g id="Page-1" stroke="none" stroke-width="1" fill="none" fill-rule="evenodd">
        <g id="Frame-59" transform="translate(0.336000, 0.000000)">
            <g id="Group" transform="translate(-0.000000, 0.000000)">
                <path d="M871.834,1263.7 C917.904,1263.7 955.244,1294.34 955.244,1332.16 L955.244,1646.1 C955.244,1683.91 917.904,1714.57 871.834,1714.57 C825.774,1714.57 788.434,1683.91 788.434,1646.1 L788.434,1332.16 C788.434,1294.34 825.774,1263.7 871.834,1263.7 Z" id="Path" fill="#3B82F6" fill-rule="nonzero"></path>
                <path d="M1056.754,889.94 C1056.754,990.76 975.024,1072.49 874.204,1072.49 C773.384,1072.49 691.654,990.76 691.654,889.94 C691.654,789.12 773.384,707.39 874.204,707.39 C975.024,707.39 1056.754,789.12 1056.754,889.94 Z" id="Path" fill="#F68728" fill-rule="nonzero"></path>
                <path d="M172.703,670.42 C265.653,377.986 539.354,166.122 862.534,166.122 C1262.224,166.122 1586.234,490.185 1586.234,889.94 C1586.234,1289.69 1262.224,1613.75 862.534,1613.75 C541.544,1613.75 269.363,1404.75 174.617,1115.39 L1.527,1115.39 C101.332,1497.72 448.984,1779.88 862.534,1779.88 C1353.954,1779.88 1752.334,1381.44 1752.334,889.94 C1752.334,398.439 1353.954,0 862.534,0 C446.854,0 97.743,285.079 0,670.42 L172.703,670.42 Z" id="Path" fill="#3B82F6"></path>
                <path d="M530.414,889.94 C530.414,706.55 679.154,557.88 862.624,557.88 C961.964,557.88 1051.124,601.47 1112.004,670.55 L1310.114,670.55 C1228.954,505.47 1059.064,391.857 862.624,391.857 C587.414,391.857 364.314,614.86 364.314,889.94 C364.314,1165.02 587.414,1388.02 862.624,1388.02 C1056.704,1388.02 1224.864,1277.12 1307.154,1115.26 L1106.644,1115.26 C1045.954,1180.9 959.094,1221.99 862.624,1221.99 C679.154,1221.99 530.414,1073.33 530.414,889.94 Z" id="Path" fill="#3B82F6"></path>
            </g>
        </g>
    </g>
</svg>