<svg width="690" height="690" xmlns="http://www.w3.org/2000/svg"><g fill="#CE6533" fill-rule="evenodd"><path d="M11.499 143.372a24.182 24.182 0 0 1 5.58-25.47l90.82-90.82a24.188 24.188 0 0 1 25.46-5.59l193.65 71.14a12.09 12.09 0 0 1 7.92 11.35v42.4c0 3.21-1.27 6.28-3.54 8.55l-47.14 47.13c-3.33 3.34-8.3 4.43-12.73 2.79l-52.02-19.18-57.16-21.09c-4.83-1.79-9.55 2.92-7.76 7.76l40.27 109.18c1.63 4.43.55 9.4-2.79 12.73l-41.91 41.89c-4.72 4.72-4.72 12.38 0 17.1l42.13 42.13c3.34 3.34 4.43 8.31 2.79 12.73l-40.27 109.17c-1.79 4.84 2.92 9.55 7.76 7.76l109.18-40.28c4.43-1.63 9.4-.54 12.73 2.79l46.91 46.91c2.27 2.27 3.54 5.34 3.54 8.55v42.41c0 5.06-3.15 9.59-7.9 11.34l-193.42 71.36a24.181 24.181 0 0 1-25.47-5.59l-90.83-90.83a24.173 24.173 0 0 1-5.58-25.47l71.11-192.77c1.99-5.4 1.99-11.34 0-16.74l-71.33-193.34ZM678.499 546.252a24.182 24.182 0 0 1-5.58 25.47l-90.82 90.83a24.184 24.184 0 0 1-25.46 5.59l-193.65-71.14a12.09 12.09 0 0 1-7.92-11.35v-42.4c0-3.21 1.27-6.28 3.54-8.55l47.14-47.13c3.33-3.34 8.3-4.43 12.73-2.79l52.02 19.18 57.16 21.09c4.83 1.79 9.54-2.92 7.76-7.76l-40.27-109.18c-1.63-4.43-.55-9.4 2.79-12.73l41.91-41.89c4.72-4.72 4.72-12.38 0-17.1l-42.13-42.13a12.065 12.065 0 0 1-2.79-12.73l40.27-109.17c1.79-4.84-2.92-9.55-7.76-7.76l-109.18 40.28c-4.43 1.63-9.4.54-12.73-2.79l-46.91-46.91a12.079 12.079 0 0 1-3.54-8.55v-42.41c0-5.06 3.15-9.59 7.9-11.34l193.42-71.36c8.85-3.27 18.79-1.08 25.47 5.59l90.82 90.83a24.157 24.157 0 0 1 5.59 25.47l-71.11 192.77c-2 5.4-2 11.34 0 16.74l71.34 193.37-.01-.04Z"/></g></svg>