<?xml version="1.0" encoding="UTF-8"?><svg id="Layer_2" xmlns="http://www.w3.org/2000/svg" viewBox="0 0 1080 1080"><defs><style>.cls-1{fill:#fe4350;}.cls-2{fill:#15305a;}</style></defs><g id="Layer_1-2"><g><circle class="cls-2" cx="540" cy="540" r="540"/><path class="cls-1" d="M812.04,652.32H431.49v-206.76h-58.55v235.26c0,15.65,13.2,28.5,29.27,28.5h333.48l-68.88,60.35H297.18V427.68h380.55c7.46,0,14.35-2.79,19.51-7.26l134.31-117.35c9.18-7.82,12.05-20.68,8.04-31.29-4.59-11.18-15.5-18.44-27.55-18.44H402.22c-16.07,0-29.27,12.85-29.27,28.5v70.97h58.55v-42.47h304.21l-68.88,60.35H267.91c-16.07,0-29.27,12.85-29.27,28.5v398.99c0,15.65,13.2,28.5,29.27,28.5h409.82c7.46,0,14.35-2.79,19.51-7.26l134.31-117.35c9.18-7.82,12.05-20.68,8.04-31.29-4.59-11.18-15.5-18.44-27.55-18.44Z"/></g></g></svg>