<svg width="500" height="500" viewBox="0 0 500 500" fill="none" xmlns="http://www.w3.org/2000/svg">
<path d="M250 500C388.071 500 500 388.071 500 250C500 111.929 388.071 0 250 0C111.929 0 0 111.929 0 250C0 388.071 111.929 500 250 500Z" fill="#BEC9F8"/>
<path d="M323.346 241.786H392.923C391.669 227.11 388.136 212.718 382.453 199.128C374.058 178.961 361.113 161.007 344.629 146.671C328.146 132.336 308.572 122.005 287.435 116.488V90.9311H263.77V182.252C278.67 184.716 292.427 191.779 303.112 202.453C313.815 213.117 320.894 226.877 323.346 241.786ZM287.435 137.687C306.396 143.511 323.645 153.884 337.675 167.904C351.706 181.924 362.095 199.164 367.932 218.12H336.508C336.502 218.057 336.482 217.996 336.45 217.943C327.157 195.844 309.553 178.283 287.432 169.044L287.435 137.687Z" fill="black"/>
<path d="M213.478 116.972C207.765 118.569 202.153 120.511 196.675 122.787C170.992 133.655 149.077 151.844 133.663 175.085C118.25 198.327 110.019 225.592 110.001 253.481C109.973 284.448 120.069 314.577 138.75 339.276C157.43 363.975 183.672 381.891 213.478 390.296V413.34H237.144V324.487C220.859 321.093 206.238 312.195 195.744 299.288C185.249 286.381 179.519 270.254 179.519 253.618C179.515 236.98 185.243 220.848 195.737 207.937C206.233 195.026 220.855 186.125 237.144 182.731V90.9091H213.478V116.972ZM213.478 170.366C197.595 177.709 184.145 189.443 174.716 204.183C165.286 218.923 160.27 236.053 160.261 253.551C160.245 271.069 165.25 288.225 174.681 302.989C184.112 317.751 197.576 329.503 213.478 336.852V368.683C189.356 360.603 168.384 345.147 153.523 324.499C138.662 303.852 130.665 279.057 130.66 253.618C130.661 228.174 138.659 203.374 153.522 182.723C168.385 162.072 189.363 146.614 213.491 138.534L213.478 170.366Z" fill="black"/>
<path d="M372.321 268.395H322.802C319.905 282.279 312.995 295.007 302.928 304.999C292.862 314.991 280.084 321.806 266.178 324.6H263.754V413.351H287.419V391.131C294.171 389.389 300.786 387.154 307.211 384.446C330.516 374.489 350.732 358.476 365.761 338.069C380.789 317.662 390.082 293.605 392.676 268.395H372.321ZM287.423 369.623V338.208C287.481 338.176 287.569 338.15 287.631 338.118C308.685 329.25 325.654 312.817 335.198 292.06H366.999C360.849 310.38 350.423 326.971 336.585 340.458C322.746 353.947 305.894 363.944 287.423 369.623Z" fill="black"/>
</svg>
