<?xml version="1.0" encoding="UTF-8"?><svg id="Layer_2" xmlns="http://www.w3.org/2000/svg" viewBox="0 0 1080 1080"><defs><style>.cls-1{fill:#fff;}.cls-2{fill:#191919;}</style></defs><g id="Layer_1-2"><g><circle class="cls-2" cx="540" cy="540" r="540"/><g><path class="cls-1" d="M667.44,521.65h123.35c-2.22-26.02-8.49-51.53-18.56-75.62-14.88-35.75-37.83-67.58-67.05-93-29.22-25.41-63.92-43.73-101.39-53.51v-45.31h-41.95v161.89c26.42,4.37,50.8,16.89,69.75,35.81,18.98,18.91,31.52,43.3,35.87,69.73h0Zm-63.66-184.55c33.61,10.32,64.19,28.71,89.07,53.57,24.87,24.85,43.29,55.42,53.64,89.02h-55.71c-.01-.11-.05-.22-.1-.31-16.47-39.18-47.68-70.31-86.9-86.69v-55.59Z"/><path class="cls-1" d="M472.66,300.39c-10.13,2.83-20.08,6.27-29.79,10.31-45.53,19.27-84.38,51.51-111.71,92.72-27.33,41.2-41.91,89.54-41.95,138.98-.05,54.9,17.85,108.31,50.97,152.1,33.12,43.79,79.64,75.55,132.48,90.45v40.85h41.95v-157.52c-28.87-6.01-54.79-21.79-73.39-44.67-18.61-22.88-28.76-51.47-28.76-80.96,0-29.5,10.15-58.09,28.75-80.98,18.61-22.89,44.53-38.67,73.41-44.68V254.18h-41.95v46.2Zm0,94.66c-28.16,13.02-52,33.82-68.72,59.95-16.72,26.13-25.61,56.5-25.63,87.52-.03,31.06,8.84,61.47,25.56,87.64,16.72,26.17,40.59,47.01,68.78,60.03v56.43c-42.76-14.33-79.94-41.73-106.29-78.33-26.35-36.6-40.52-80.56-40.53-125.66,0-45.11,14.18-89.07,40.53-125.68,26.35-36.61,63.54-64.01,106.31-78.34l-.02,56.43Z"/><path class="cls-1" d="M754.24,568.84h-87.79c-5.13,24.61-17.39,47.18-35.23,64.89-17.85,17.71-40.5,29.8-65.15,34.75h-4.3v157.34h41.95v-39.39c11.97-3.09,23.69-7.05,35.09-11.85,41.32-17.65,77.15-46.04,103.8-82.22,26.64-36.18,43.12-78.83,47.72-123.52h-36.08Zm-150.51,179.46v-55.69c.1-.05,.26-.1,.37-.16,37.32-15.72,67.41-44.85,84.33-81.65h56.38c-10.9,32.48-29.39,61.89-53.92,85.8-24.53,23.91-54.41,41.63-87.15,51.7h0Z"/></g></g></g></svg>