<?xml version="1.0" encoding="UTF-8"?><svg id="Layer_2" xmlns="http://www.w3.org/2000/svg" viewBox="0 0 1080 1080"><defs><style>.cls-1{fill:#fff;}.cls-2{fill:#8f97f1;}</style></defs><g id="Layer_1-2"><g><circle class="cls-1" cx="540" cy="540" r="540"/><path class="cls-2" d="M387.64,768.82c-19.11-14.29-34.64-32.83-45.36-54.15-10.72-21.32-16.33-44.85-16.39-68.71-1.22-67.05-.16-134.14-.09-201.22,.04-31.65,16.61-53.66,41.24-70.58,52.41-36.04,144.27-35.63,196.38,.69,27.6,19.22,42.36,45.16,41.45,79.61-.5,18.89-.09,37.81-.09,57.52h-129.52v-85.36h-52.08v192.29c0,76.19,36.18,127.55,107.91,152.61,48.04,16.83,100.02,18.91,149.24,5.97,4.12-1.04,8.22-2.16,12.35-3.09,.78-.17,1.72,.41,3.99,1.03-20.12,18.92-44.69,32.45-71.43,39.33-25.45,7.19-51.74,10.91-78.18,11.07-56.86,0-110.19-18.67-159.43-57Zm128.1-64.19c-13.05-8.42-23.66-20.11-30.78-33.9-7.12-13.8-10.5-29.22-9.81-44.73,.46-18.94,.09-37.89,.09-57.84h129.27v85.17h52.31v-14.83c0-59.95-1.12-119.92,.29-179.83,1.69-70.99-33.23-116.91-94.79-144.49-52.79-23.67-107.91-25.16-163.68-11.37-4.49,1.11-8.99,2.13-17.64,4.18,18.28-18.15,40.75-31.53,65.42-38.96,89.05-27.63,171.56-14.19,245.68,42.99,19.18,14.21,34.77,32.7,45.54,54.01,10.77,21.3,16.4,44.83,16.47,68.7,1.22,67.53,.13,135.09,0,202.64-.06,31.16-16.76,52.64-40.82,69.34-25.99,18.05-61.8,27.02-97.67,27.03-36.73,0-73.51-9.38-99.89-28.11Z"/></g></g></svg>