<svg width="500" height="500" viewBox="0 0 500 500" fill="none" xmlns="http://www.w3.org/2000/svg">
<circle cx="250" cy="250" r="250" fill="#665AA6"/>
<path d="M170.911 362.511C161.091 355.273 153.113 345.883 147.607 335.082C142.102 324.285 139.219 312.368 139.187 300.282C138.561 266.323 139.103 232.341 139.142 198.366C139.161 182.336 147.677 171.187 160.329 162.619C187.255 144.363 234.448 144.574 261.218 162.968C275.398 172.703 282.982 185.842 282.512 203.288C282.256 212.857 282.467 222.439 282.467 232.421H215.924V189.184H189.169V196.936C189.169 226.815 189.169 256.696 189.169 286.577C189.169 325.164 207.759 351.182 244.608 363.873C269.289 372.4 295.991 373.452 321.282 366.895C323.397 366.371 325.502 365.802 327.627 365.332C328.026 365.245 328.51 365.539 329.678 365.853C319.342 375.438 306.719 382.289 292.981 385.772C279.907 389.411 266.399 391.298 252.816 391.381C223.606 391.381 196.207 381.927 170.911 362.511ZM236.722 329.997C230.02 325.734 224.566 319.814 220.907 312.825C217.248 305.837 215.512 298.027 215.866 290.172C216.103 280.577 215.911 270.982 215.911 260.876H282.324V304.014H309.201V296.505C309.201 266.14 308.627 235.766 309.35 205.421C310.22 169.466 292.277 146.205 260.653 132.235C233.533 120.245 205.215 119.49 176.562 126.478C174.256 127.041 171.943 127.559 167.498 128.596C176.892 119.403 188.433 112.626 201.108 108.862C246.856 94.8667 289.247 101.676 327.329 130.636C337.181 137.833 345.194 147.2 350.725 157.991C356.256 168.782 359.153 180.698 359.186 192.788C359.815 226.991 359.254 261.212 359.186 295.427C359.157 311.21 350.573 322.088 338.216 330.547C324.863 339.688 306.466 344.232 288.04 344.236C269.172 344.239 250.272 339.483 236.722 329.997Z" fill="white"/>
</svg>
