<?xml version="1.0" encoding="UTF-8"?><svg id="uuid-61f76610-96bf-4a2c-815b-5731990fae9b" xmlns="http://www.w3.org/2000/svg" viewBox="0 0 121.88 90.14"><polygon points="44.65 90.14 0 44.89 45.13 .36 55.63 10.99 49.66 16.84 45.13 12.18 11.82 45.01 44.65 78.32 48.95 74.14 54.8 80.11 44.65 90.14 44.65 90.14" style="fill:#002131; stroke-width:0px;"/><polygon points="77.48 62.44 71.63 56.47 82.73 45.49 71.27 33.79 77.12 27.94 94.55 45.61 77.48 62.44 77.48 62.44" style="fill:#ff9500; stroke-width:0px;"/><path d="M44.05,44.65l32.83,33.31,33.19-32.83L77.24,11.82l-33.19,32.83h0ZM76.76,89.66l-44.53-45.13L66.13,11.1h0L77.35,0l44.53,45.25-45.13,44.41h.01Z" style="fill:#002131; stroke-width:0px;"/></svg>