<?xml version="1.0" encoding="utf-8"?>
<svg viewBox="1088.235 840.724 1894.118 1900.452" xmlns="http://www.w3.org/2000/svg">
  <circle style="stroke: rgb(0, 0, 0); fill: rgb(255, 255, 255); paint-order: fill; stroke-opacity: 0;" cx="2032.805" cy="1796.606" r="944.57"/>
  <g id="g10" transform="matrix(0.922616, 0, 0, -0.922616, 600.50116, 3278.643311)" style="">
    <g transform="scale(0.139701)" id="g14">
      <path id="path16" style="fill:#3d587b;fill-opacity:1;fill-rule:nonzero;stroke:none" d="M 13687.4,14780.2 5853.78,10252.3 8466.5,8745.59 16300,13273.5 13687.4,14780.2"/>
    </g>
    <g transform="scale(0.139714)" id="g18" style="fill:#d5f6ff">
      <path id="path20" style="fill:#d5f6ff;fill-opacity:1;fill-rule:nonzero;stroke:none" d="m 16300,10256.6 -1.4,3015.8 -2611,-1509.3 1.6,-3015.7 2610.8,1509.2"/>
    </g>
    <g transform="scale(0.126654)" id="g22">
      <path id="path24" style="fill:#5a7b92;fill-opacity:1;fill-rule:nonzero;stroke:none" d="m 12217.3,14638.1 -2881.84,1661.9 1.58,-3326.7 2880.26,1664.8"/>
    </g>
    <g transform="scale(0.117336)" id="g26">
      <path id="path28" style="fill:#5a7b92;fill-opacity:1;fill-rule:nonzero;stroke:none" d="m 16300,10415.7 -2,3590.9 -3108.7,-1797 3110.7,-1793.9"/>
    </g>
    <g transform="scale(0.126654)" id="g30" style="fill:#aaeeff;fill-opacity:1">
      <path id="path32" style="fill:#aaeeff;fill-opacity:1;fill-rule:nonzero;stroke:none" d="m 9337.04,12973.3 -1.58,3326.7 -2880.22,-1664.8 1.59,-3326.7 2880.21,1664.8"/>
    </g>
  </g>
</svg>