<svg width="771" height="771" viewBox="0 0 771 771" fill="none" xmlns="http://www.w3.org/2000/svg">
<g clip-path="url(#clip0_9_202328)">
<circle cx="385.105" cy="385.105" r="385.105" fill="url(#paint0_linear_9_202328)"/>
<circle cx="385.099" cy="381.435" r="318.865" fill="url(#paint1_linear_9_202328)"/>
<path d="M361.736 184.945C360.08 179.781 360.179 174.214 362.018 169.112C362.018 169.112 362.018 169.221 362.018 169.284L230.38 544.625C229.165 547.722 228.587 551.032 228.682 554.358C228.776 557.683 229.541 560.955 230.929 563.979C232.317 567.002 234.302 569.714 236.763 571.953C239.224 574.192 242.111 575.911 245.252 577.008C248.393 578.105 251.723 578.557 255.043 578.338C258.363 578.118 261.604 577.231 264.573 575.73C267.542 574.229 270.178 572.144 272.322 569.601C274.467 567.057 276.077 564.107 277.055 560.928L385.301 252.128L361.955 185.633C361.877 185.43 361.799 185.18 361.736 184.945Z" fill="url(#paint2_linear_9_202328)"/>
<path d="M540.294 544.59L408.656 169.265C408.578 169.03 408.484 168.811 408.406 168.576C406.129 162.531 401.577 157.617 395.723 154.886C389.87 152.155 383.179 151.823 377.084 153.961C370.988 156.1 365.972 160.539 363.109 166.329C360.245 172.119 359.762 178.8 361.762 184.942C361.762 185.176 361.903 185.395 361.981 185.63L493.619 560.924C495.883 566.993 500.437 571.933 506.303 574.681C512.169 577.429 518.879 577.767 524.991 575.622C531.104 573.477 536.131 569.02 538.992 563.208C541.854 557.397 542.321 550.695 540.294 544.543V544.59Z" fill="url(#paint3_linear_9_202328)"/>
<path d="M398.136 385.109H377.498C374.79 385.109 372.108 385.642 369.606 386.678C367.104 387.715 364.83 389.234 362.915 391.148C361 393.063 359.481 395.337 358.445 397.838C357.408 400.34 356.875 403.022 356.875 405.73C356.932 411.184 359.122 416.399 362.976 420.259C366.831 424.119 372.043 426.317 377.498 426.382C384.539 426.591 391.418 426.591 398.136 426.382C409.746 425.944 418.743 417.135 418.743 405.761C418.748 403.052 418.218 400.368 417.184 397.864C416.151 395.359 414.633 393.083 412.72 391.165C410.806 389.247 408.533 387.725 406.031 386.686C403.528 385.647 400.846 385.111 398.136 385.109Z" fill="#7A559F"/>
<circle cx="385.1" cy="383.645" r="332.268" stroke="#5D4286" stroke-width="38.3454"/>
<path d="M590.755 663.575L588.848 660.69C588.456 660.838 588.066 660.973 587.679 661.095C587.297 661.191 586.938 661.272 586.603 661.338C586.272 661.378 585.986 661.4 585.744 661.404L584.965 658.91C585.368 658.845 585.842 658.754 586.39 658.638C586.926 658.506 587.476 658.343 588.039 658.15C588.607 657.93 589.124 657.667 589.589 657.359C590.287 656.898 590.818 656.436 591.181 655.974C591.544 655.511 591.744 655.056 591.782 654.607C591.825 654.133 591.708 653.686 591.432 653.268C591.134 652.818 590.723 652.532 590.198 652.412C589.672 652.291 589.041 652.262 588.303 652.326C587.571 652.365 586.756 652.446 585.858 652.571C585.022 652.656 584.225 652.714 583.467 652.747C582.714 652.754 582.008 652.697 581.349 652.576C580.705 652.444 580.112 652.223 579.572 651.911C579.037 651.574 578.57 651.103 578.171 650.498C577.607 649.644 577.345 648.725 577.385 647.741C577.441 646.746 577.827 645.778 578.542 644.837L576.774 642.161L578.381 640.699L580.088 643.281C580.196 643.21 580.305 643.138 580.414 643.066C580.512 642.979 580.615 642.899 580.724 642.828C580.848 642.746 580.977 642.671 581.112 642.605C581.236 642.523 581.357 642.454 581.476 642.398L579.939 640.071L581.592 638.577L583.56 641.555C583.947 641.433 584.329 641.337 584.706 641.266C585.083 641.196 585.436 641.14 585.766 641.101L586.289 643.763C585.892 643.803 585.476 643.866 585.043 643.952C584.625 644.027 584.189 644.16 583.734 644.348C583.285 644.512 582.82 644.752 582.339 645.07C581.563 645.582 581.014 646.168 580.692 646.826C580.359 647.469 580.398 648.101 580.808 648.722C581.115 649.187 581.529 649.493 582.049 649.64C582.559 649.771 583.175 649.809 583.897 649.756C584.635 649.692 585.483 649.61 586.443 649.511C587.253 649.422 588.029 649.365 588.772 649.343C589.52 649.294 590.218 649.323 590.868 649.429C591.517 649.535 592.117 649.751 592.667 650.078C593.207 650.39 593.687 650.864 594.108 651.5C594.681 652.368 594.946 653.308 594.9 654.319C594.844 655.313 594.464 656.289 593.759 657.245L595.757 660.27L593.942 661.469L592.205 658.84C592.029 658.978 591.853 659.117 591.677 659.255C591.517 659.384 591.336 659.514 591.134 659.647L590.855 659.832L592.546 662.391L590.755 663.575Z" fill="white"/>
<path d="M607.883 637.382L603.61 641.01L600.931 633.59L607.883 637.382ZM597.17 631.186L603.917 650.334L606.277 648.331L604.551 643.54L610.269 638.685L614.921 641.32L617.013 638.958L599.254 629.417L597.17 631.186Z" fill="white"/>
<path d="M627.195 626.281L621.021 632.132L609.665 620.149L607.418 622.278L620.462 636.043L629.187 627.775L627.195 626.281Z" fill="white"/>
<path d="M627.941 602.109L617.593 613.202L619.408 614.895L623.478 610.531L635.53 621.774L637.699 619.449L625.647 608.206L630.079 603.455L627.941 602.109Z" fill="white"/>
<path d="M654.004 601.381L651.832 600.144L645.935 607.027L641.445 603.18L645.873 598.013L643.679 596.758L639.561 601.565L635.262 597.882L640.687 591.55L638.515 590.313L631.384 598.636L645.785 610.974L654.004 601.381Z" fill="white"/>
<path d="M648.23 582.008C648.731 581.315 649.252 580.785 649.792 580.419C650.317 580.041 650.866 579.853 651.439 579.854C652.022 579.84 652.638 580.068 653.286 580.536C653.919 580.994 654.301 581.511 654.434 582.089C654.578 582.652 654.555 583.255 654.366 583.898C654.172 584.515 653.846 585.14 653.389 585.772L651.951 587.761L646.776 584.019L648.23 582.008ZM642.838 584.992L658.205 596.103L660.019 593.594L654.03 589.264L655.255 587.569C655.419 587.343 655.599 587.095 655.795 586.824C655.976 586.542 656.124 586.305 656.24 586.113L664.692 587.131L666.653 584.419L657.196 583.363C657.405 582.344 657.357 581.346 657.054 580.37C656.735 579.382 656.079 578.529 655.085 577.81C654 577.026 652.928 576.652 651.869 576.69C650.809 576.727 649.795 577.083 648.825 577.758C647.84 578.422 646.95 579.304 646.154 580.404L642.838 584.992Z" fill="white"/>
<path d="M203.609 84.7496L205.294 87.7693C205.696 87.6512 206.095 87.5457 206.49 87.4528C206.878 87.3853 207.242 87.3313 207.582 87.2909C207.914 87.2759 208.201 87.2753 208.443 87.2893L209.033 89.8343C208.627 89.8694 208.146 89.9245 207.592 89.9996C207.047 90.0909 206.487 90.2121 205.911 90.363C205.328 90.5393 204.793 90.7633 204.306 91.0351C203.575 91.4428 203.012 91.8638 202.615 92.2979C202.219 92.732 201.985 93.1713 201.914 93.6156C201.835 94.0853 201.918 94.5393 202.163 94.9776C202.425 95.4485 202.814 95.7637 203.329 95.9235C203.844 96.0832 204.472 96.1587 205.212 96.1501C205.945 96.1668 206.764 96.1463 207.669 96.0886C208.508 96.0671 209.308 96.0683 210.066 96.0921C210.817 96.1413 211.517 96.251 212.166 96.4213C212.798 96.6007 213.372 96.8659 213.887 97.2171C214.396 97.5935 214.826 98.0983 215.18 98.7315C215.678 99.6244 215.87 100.56 215.756 101.539C215.627 102.527 215.17 103.464 214.386 104.348L215.949 107.149L214.237 108.487L212.728 105.784C212.614 105.848 212.501 105.911 212.387 105.974C212.283 106.054 212.173 106.126 212.06 106.189C211.93 106.261 211.796 106.326 211.657 106.382C211.527 106.455 211.4 106.514 211.278 106.562L212.637 108.997L210.876 110.363L209.136 107.246C208.741 107.338 208.353 107.406 207.972 107.448C207.591 107.49 207.235 107.519 206.902 107.534L206.58 104.84C206.979 104.83 207.398 104.798 207.837 104.745C208.259 104.701 208.704 104.602 209.172 104.447C209.632 104.318 210.114 104.113 210.617 103.832C211.429 103.379 212.02 102.837 212.391 102.204C212.771 101.587 212.779 100.954 212.417 100.305C212.145 99.818 211.755 99.482 211.248 99.297C210.749 99.1282 210.138 99.0436 209.413 99.0431C208.673 99.0518 207.821 99.0696 206.857 99.0967C206.042 99.1254 205.264 99.1232 204.522 99.0903C203.772 99.0827 203.078 99.0019 202.438 98.8478C201.799 98.6937 201.217 98.433 200.692 98.0656C200.177 97.7145 199.734 97.2061 199.362 96.5405C198.855 95.6313 198.662 94.6746 198.782 93.6704C198.912 92.6823 199.365 91.738 200.14 90.8372L198.373 87.6714L200.272 86.6114L201.808 89.3632C201.994 89.2383 202.179 89.1133 202.365 88.9884C202.535 88.8725 202.725 88.7556 202.936 88.6379L203.228 88.4748L201.733 85.796L203.609 84.7496Z" fill="white"/>
<path d="M184.567 109.586L189.099 106.288L191.215 113.888L184.567 109.586ZM194.786 116.566L189.489 96.967L186.986 98.7886L188.349 103.695L182.284 108.109L177.842 105.133L175.579 107.332L192.576 118.175L194.786 116.566Z" fill="white"/>
<path d="M164.483 119.214L171.077 113.841L181.506 126.64L183.906 124.684L171.927 109.983L162.609 117.575L164.483 119.214Z" fill="white"/>
<path d="M161.931 143.265L173.08 132.976L171.397 131.152L167.011 135.2L155.834 123.087L153.497 125.244L164.675 137.356L159.9 141.762L161.931 143.265Z" fill="white"/>
<path d="M135.889 142.04L137.963 143.436L144.358 137.013L148.547 141.185L143.746 146.007L145.839 147.422L150.306 142.936L154.318 146.931L148.434 152.839L150.508 154.235L158.241 146.469L144.803 133.088L135.889 142.04Z" fill="white"/>
<path d="M140.196 161.79C139.644 162.443 139.085 162.933 138.519 163.258C137.967 163.595 137.406 163.741 136.835 163.697C136.252 163.668 135.655 163.395 135.044 162.88C134.447 162.376 134.104 161.831 134.015 161.245C133.913 160.673 133.981 160.074 134.218 159.447C134.458 158.846 134.829 158.247 135.333 157.65L136.915 155.775L141.796 159.893L140.196 161.79ZM145.796 159.217L131.302 146.989L129.306 149.354L134.954 154.12L133.605 155.719C133.426 155.932 133.228 156.166 133.012 156.422C132.81 156.69 132.645 156.915 132.515 157.097L124.163 155.45L122.005 158.008L131.356 159.768C131.072 160.769 131.044 161.767 131.274 162.764C131.518 163.772 132.108 164.672 133.046 165.463C134.069 166.326 135.11 166.779 136.169 166.821C137.228 166.863 138.267 166.584 139.285 165.983C140.317 165.395 141.27 164.581 142.145 163.544L145.796 159.217Z" fill="white"/>
<path d="M685.935 204.624L682.909 206.298C683.026 206.7 683.13 207.1 683.221 207.495C683.287 207.884 683.34 208.248 683.379 208.587C683.392 208.92 683.392 209.207 683.377 209.449L680.829 210.029C680.796 209.622 680.743 209.142 680.67 208.587C680.581 208.042 680.462 207.481 680.313 206.904C680.139 206.321 679.917 205.785 679.647 205.297C679.242 204.565 678.824 204 678.391 203.601C677.959 203.203 677.52 202.968 677.076 202.894C676.607 202.814 676.152 202.895 675.713 203.138C675.241 203.399 674.925 203.787 674.763 204.301C674.601 204.815 674.523 205.443 674.529 206.183C674.509 206.916 674.526 207.735 674.581 208.64C674.599 209.48 674.594 210.279 674.568 211.037C674.516 211.788 674.403 212.488 674.23 213.136C674.048 213.767 673.781 214.34 673.428 214.854C673.049 215.361 672.543 215.789 671.908 216.14C671.013 216.635 670.077 216.824 669.098 216.706C668.111 216.572 667.176 216.112 666.295 215.324L663.488 216.876L662.156 215.159L664.865 213.661C664.802 213.547 664.739 213.433 664.676 213.319C664.597 213.215 664.526 213.105 664.463 212.991C664.391 212.861 664.327 212.726 664.272 212.587C664.2 212.457 664.14 212.331 664.094 212.208L661.653 213.557L660.294 211.791L663.418 210.064C663.327 209.668 663.261 209.28 663.22 208.899C663.179 208.518 663.152 208.161 663.138 207.829L665.834 207.517C665.842 207.916 665.872 208.335 665.923 208.774C665.966 209.197 666.063 209.642 666.216 210.11C666.343 210.571 666.546 211.053 666.825 211.558C667.275 212.371 667.816 212.965 668.447 213.338C669.062 213.72 669.695 213.731 670.346 213.372C670.834 213.102 671.171 212.713 671.358 212.206C671.529 211.708 671.616 211.097 671.619 210.373C671.614 209.633 671.599 208.78 671.576 207.816C671.55 207.001 671.555 206.223 671.591 205.481C671.602 204.732 671.685 204.037 671.842 203.399C671.999 202.76 672.262 202.179 672.631 201.656C672.984 201.142 673.494 200.7 674.161 200.332C675.073 199.828 676.03 199.638 677.034 199.763C678.021 199.897 678.964 200.353 679.862 201.131L683.034 199.377L684.087 201.281L681.329 202.806C681.453 202.992 681.577 203.178 681.702 203.364C681.817 203.534 681.933 203.725 682.05 203.937L682.212 204.229L684.896 202.745L685.935 204.624Z" fill="white"/>
<path d="M661.172 185.488L664.453 190.033L656.844 192.12L661.172 185.488ZM654.152 195.68L673.772 190.46L671.96 187.95L667.049 189.294L662.658 183.211L665.651 178.781L663.462 176.51L652.552 193.464L654.152 195.68Z" fill="white"/>
<path d="M651.628 165.362L656.975 171.977L644.136 182.355L646.082 184.763L660.83 172.842L653.274 163.494L651.628 165.362Z" fill="white"/>
<path d="M627.585 162.716L637.83 173.905L639.661 172.229L635.631 167.828L647.787 156.698L645.64 154.353L633.484 165.483L629.096 160.69L627.585 162.716Z" fill="white"/>
<path d="M628.912 136.676L627.508 138.744L633.905 145.164L629.717 149.338L624.914 144.517L623.491 146.605L627.959 151.089L623.949 155.085L618.063 149.179L616.659 151.247L624.395 159.01L637.829 145.625L628.912 136.676Z" fill="white"/>
<path d="M609.143 140.909C608.492 140.355 608.005 139.794 607.682 139.227C607.347 138.674 607.203 138.112 607.249 137.541C607.281 136.958 607.556 136.362 608.074 135.753C608.58 135.158 609.126 134.817 609.712 134.73C610.284 134.631 610.884 134.702 611.51 134.941C612.11 135.183 612.707 135.557 613.302 136.063L615.171 137.652L611.034 142.517L609.143 140.909ZM611.694 146.52L623.979 132.074L621.621 130.068L616.833 135.698L615.24 134.343C615.028 134.162 614.794 133.964 614.539 133.747C614.272 133.544 614.048 133.378 613.866 133.247L615.545 124.901L612.996 122.733L611.199 132.078C610.2 131.789 609.202 131.758 608.204 131.984C607.195 132.223 606.293 132.811 605.498 133.745C604.631 134.765 604.174 135.804 604.127 136.863C604.081 137.922 604.356 138.962 604.953 139.982C605.538 141.016 606.347 141.973 607.381 142.852L611.694 146.52Z" fill="white"/>
<path d="M98.5768 582.378L101.501 580.532C101.361 580.136 101.234 579.744 101.12 579.354C101.031 578.97 100.958 578.61 100.899 578.273C100.866 577.942 100.85 577.656 100.851 577.413L103.36 576.686C103.417 577.09 103.498 577.567 103.603 578.116C103.724 578.655 103.875 579.208 104.057 579.775C104.265 580.348 104.518 580.87 104.815 581.341C105.262 582.049 105.713 582.589 106.168 582.961C106.623 583.333 107.074 583.543 107.522 583.59C107.995 583.643 108.444 583.536 108.868 583.268C109.324 582.98 109.618 582.575 109.749 582.052C109.881 581.529 109.922 580.898 109.874 580.159C109.851 579.426 109.786 578.61 109.679 577.71C109.612 576.872 109.57 576.074 109.553 575.316C109.561 574.563 109.633 573.858 109.768 573.201C109.912 572.56 110.146 571.973 110.469 571.439C110.817 570.911 111.298 570.454 111.911 570.067C112.776 569.521 113.7 569.278 114.684 569.338C115.677 569.415 116.637 569.82 117.562 570.555L120.274 568.843L121.704 570.48L119.086 572.132C119.156 572.242 119.225 572.352 119.295 572.462C119.38 572.563 119.457 572.668 119.527 572.778C119.606 572.903 119.678 573.034 119.741 573.17C119.821 573.296 119.887 573.418 119.941 573.538L122.299 572.049L123.758 573.734L120.74 575.639C120.854 576.029 120.943 576.413 121.006 576.791C121.068 577.169 121.116 577.524 121.149 577.855L118.476 578.322C118.445 577.924 118.391 577.508 118.314 577.073C118.247 576.653 118.124 576.214 117.944 575.756C117.79 575.303 117.56 574.833 117.252 574.346C116.756 573.56 116.181 572.999 115.53 572.663C114.893 572.317 114.261 572.343 113.632 572.74C113.16 573.038 112.846 573.445 112.689 573.962C112.547 574.469 112.496 575.084 112.535 575.807C112.583 576.546 112.648 577.396 112.727 578.358C112.8 579.169 112.84 579.947 112.847 580.689C112.88 581.438 112.837 582.136 112.718 582.783C112.599 583.43 112.37 584.025 112.031 584.569C111.709 585.102 111.225 585.573 110.58 585.979C109.7 586.535 108.755 586.78 107.746 586.714C106.752 586.638 105.785 586.237 104.843 585.512L101.778 587.448L100.617 585.609L103.281 583.926C103.146 583.747 103.012 583.569 102.877 583.39C102.752 583.227 102.625 583.043 102.496 582.839L102.317 582.556L99.7233 584.194L98.5768 582.378Z" fill="white"/>
<path d="M124.407 600.045L120.868 595.698L128.342 593.173L124.407 600.045ZM130.823 589.462L111.539 595.813L113.494 598.214L118.319 596.587L123.055 602.404L120.325 607.001L122.643 609.141L132.549 591.582L130.823 589.462Z" fill="white"/>
<path d="M135.111 619.579L129.388 613.286L141.603 602.179L139.521 599.889L125.49 612.647L133.576 621.539L135.111 619.579Z" fill="white"/>
<path d="M159.26 620.824L148.383 610.249L146.653 612.029L150.932 616.189L139.443 628.006L141.723 630.222L153.211 618.405L157.87 622.934L159.26 620.824Z" fill="white"/>
<path d="M159.45 646.898L160.731 644.751L153.972 638.714L157.91 634.304L162.985 638.837L164.285 636.67L159.563 632.453L163.335 628.231L169.553 633.786L170.835 631.64L162.661 624.339L150.028 638.482L159.45 646.898Z" fill="white"/>
<path d="M178.94 641.523C179.623 642.039 180.141 642.57 180.497 643.118C180.863 643.651 181.04 644.204 181.027 644.776C181.029 645.36 180.789 645.971 180.307 646.609C179.837 647.232 179.311 647.604 178.731 647.725C178.165 647.857 177.563 647.822 176.924 647.619C176.311 647.413 175.693 647.074 175.07 646.604L173.111 645.125L176.959 640.028L178.94 641.523ZM176.068 636.071L164.642 651.206L167.113 653.071L171.566 647.173L173.235 648.433C173.458 648.601 173.702 648.786 173.969 648.987C174.248 649.174 174.482 649.327 174.671 649.447L173.479 657.877L176.15 659.893L177.401 650.459C178.415 650.689 179.413 650.663 180.396 650.38C181.39 650.081 182.256 649.443 182.996 648.463C183.802 647.395 184.198 646.331 184.182 645.271C184.167 644.211 183.832 643.19 183.177 642.206C182.533 641.207 181.669 640.299 180.586 639.482L176.068 636.071Z" fill="white"/>
</g>
<defs>
<linearGradient id="paint0_linear_9_202328" x1="242.077" y1="-4.66013e-06" x2="624.633" y2="770.209" gradientUnits="userSpaceOnUse">
<stop stop-color="#D4BDEB"/>
<stop offset="1" stop-color="#8561A9"/>
</linearGradient>
<linearGradient id="paint1_linear_9_202328" x1="223.358" y1="-1.57828" x2="683.768" y2="735.079" gradientUnits="userSpaceOnUse">
<stop stop-color="#F9F4FF"/>
<stop offset="1" stop-color="#C9B0E7"/>
<stop offset="1" stop-color="#C9B0E7"/>
</linearGradient>
<linearGradient id="paint2_linear_9_202328" x1="307.144" y1="129.747" x2="307.144" y2="616.204" gradientUnits="userSpaceOnUse">
<stop stop-color="#4D2D78"/>
<stop offset="1" stop-color="#8561A9"/>
</linearGradient>
<linearGradient id="paint3_linear_9_202328" x1="451.138" y1="110.828" x2="451.138" y2="618.235" gradientUnits="userSpaceOnUse">
<stop stop-color="#8561A9"/>
<stop offset="1" stop-color="#4D2D78"/>
</linearGradient>
<clipPath id="clip0_9_202328">
<rect width="770.209" height="770.209" fill="white"/>
</clipPath>
</defs>
</svg>
