<svg id="Layer_1" data-name="Layer 1" xmlns="http://www.w3.org/2000/svg" viewBox="0 0 334.72 334.72"><defs><style>.cls-1{fill:#7e00e9;}.cls-2{fill:#1cff49;stroke:#1cff49;stroke-miterlimit:10;stroke-width:2.4px;}</style></defs><circle class="cls-1" cx="167.36" cy="167.36" r="167.36"/><path class="cls-2" d="M887.54,730c0,30.16-12.28,43.86-32.1,50a3.16,3.16,0,0,1-4.1-3h0a3.17,3.17,0,0,1,2.34-3c7.68-2.13,12-5.59,12-11.2,0-16.13-38.89-29.21-86.87-29.21S692,746.67,692,762.8c0,5.24,4.42,8.6,12,10.76a3.16,3.16,0,0,1,2.31,3h0a3.48,3.48,0,0,1-4.52,3.33c-19.57-6.24-31.67-20-31.67-49.9a108.71,108.71,0,1,1,217.42,0Z" transform="translate(-611.47 -560.34)"/><path class="cls-2" d="M767.59,838.29h-.14c-57.19,12.4-48.88,28-16.47-50.34,12.63-30.51-4-42.26,26.44-42.26h.14c30.42,0,26.43,10,26.43,42.26S827.51,822.33,767.59,838.29Z" transform="translate(-611.47 -560.34)"/></svg>
