<svg width="40" height="40" viewBox="0 0 40 40" fill="none" xmlns="http://www.w3.org/2000/svg">
<g clip-path="url(#clip0_1280_2)">
<path d="M20 39.9814C31.0354 39.9814 39.9814 31.0354 39.9814 20C39.9814 8.96463 31.0354 0.0186768 20 0.0186768C8.96463 0.0186768 0.0186768 8.96463 0.0186768 20C0.0186768 31.0354 8.96463 39.9814 20 39.9814Z" fill="url(#paint0_linear_1280_2)"/>
<path fill-rule="evenodd" clip-rule="evenodd" d="M37.0227 27.2249C37.9694 25.0001 38.4933 22.5519 38.4933 19.9814C38.4933 9.75741 30.2053 1.46924 19.9814 1.46924C13.3171 1.46924 7.47532 4.99069 4.21532 10.2743L16.8641 26.8177C18.5094 28.7098 20.0511 29.1838 21.9194 28.4317C23.916 27.2579 23.9892 24.9102 22.0293 22.966C20.504 21.7557 19.4595 20.9443 17.3403 19.3527C10.5265 14.2354 17.1571 6.01838 23.4397 10.0902C24.2724 10.7437 24.6759 11.1311 25.253 11.8693L37.0227 27.2249ZM35.8689 29.4887C32.6338 34.8831 26.7292 38.4933 19.9814 38.4933C9.75741 38.4933 1.46924 30.2053 1.46924 19.9814C1.46924 17.3291 2.02702 14.807 3.03167 12.5262L15.1423 28.3584C17.322 31.2747 20.6922 31.7699 23.165 30.3576C26.3154 28.6885 26.8832 23.8464 23.3848 21.1501C22.248 20.1416 21.1339 19.3027 19.7139 18.2336C19.3263 17.9417 18.9158 17.6327 18.4759 17.2984C15.0691 14.5289 17.7433 9.63166 22.0843 11.9794C22.6653 12.3669 22.9265 12.6244 23.3115 13.1349L35.8689 29.4887Z" fill="white"/>
</g>
<defs>
<linearGradient id="paint0_linear_1280_2" x1="6.18435" y1="5.87987" x2="35.7567" y2="28.4493" gradientUnits="userSpaceOnUse">
<stop offset="0.15" stop-color="#02B8FF"/>
<stop offset="0.32" stop-color="#117FFF"/>
<stop offset="0.555208" stop-color="#2436FF"/>
<stop offset="0.8" stop-color="#7026FE"/>
</linearGradient>
<clipPath id="clip0_1280_2">
<rect width="40" height="40" fill="white"/>
</clipPath>
</defs>
</svg>
