<?xml version="1.0" encoding="UTF-8"?>
<svg id="ICON" xmlns="http://www.w3.org/2000/svg" version="1.1" viewBox="0 0 308.156 312.193">
  <defs>
    <style>
      .cls-1 {
        fill: #ff3912;
        stroke-width: 0px;
      }
    </style>
  </defs>
  <path class="cls-1" d="M308.156,94.509c0-4.797-2.467-9.127-6.588-11.583L169.465,4.246c-9.492-5.662-21.283-5.662-30.775,0L6.588,82.927C2.514,85.355.067,89.613.001,94.345c.002,5.785.005,15.249.006,21.035-.165,4.982,2.326,9.514,6.58,12.049l46.44,27.669c.76.453.76,1.554,0,2.006l-46.44,27.659C2.474,187.216.008,191.535,0,196.323c0,5.872,0,15.479,0,21.351,0,4.808,2.467,9.137,6.588,11.583l132.102,78.691c4.746,2.831,10.064,4.246,15.393,4.246s10.636-1.415,15.382-4.246l132.102-78.691c4.121-2.446,6.588-6.775,6.588-11.583,0-5.872,0-15.479,0-21.351-.008-4.788-2.474-9.107-6.588-11.559l-46.44-27.659c-.76-.453-.76-1.554,0-2.006l46.44-27.669c4.121-2.456,6.588-6.785,6.588-11.583v-21.337ZM144.935,137.889c2.82-1.675,5.984-2.519,9.148-2.519s6.317.843,9.138,2.519l30.567,18.213-30.567,18.203c-5.641,3.362-12.645,3.362-18.286,0l-30.567-18.203,30.567-18.213ZM277.58,206.012c.76.453.76,1.554,0,2.007l-114.359,68.113c-5.641,3.362-12.645,3.362-18.286,0L30.575,208.018c-.76-.453-.76-1.554,0-2.006l21.431-12.769c4.188-2.496,6.754-7.011,6.754-11.887v-20.078c0-1.182,1.287-1.914,2.303-1.31l77.627,46.151c4.746,2.82,10.064,4.236,15.393,4.236s10.636-1.416,15.382-4.236l22.651-13.495c4.214-2.511,6.784-7.065,6.755-11.97l-.113-18.898c-.007-1.186,1.284-1.926,2.304-1.318l76.518,45.573ZM249.145,150.749c0,1.182-1.287,1.914-2.303,1.31l-77.377-45.986c-9.492-5.651-21.283-5.651-30.775,0l-22.796,13.578c-4.215,2.511-6.785,7.065-6.756,11.971l.117,19.341c.005.909-.984,1.475-1.765,1.01L30.576,106.181c-.76-.453-.761-1.554,0-2.007l114.359-68.113c2.82-1.686,5.984-2.529,9.148-2.529s6.317.843,9.138,2.529l114.359,68.113c.76.453.76,1.554,0,2.007l-21.68,12.915c-4.189,2.495-6.755,7.011-6.755,11.887v19.765Z"/>
</svg>