<svg width="40" height="40" viewBox="0 0 40 40" fill="none" xmlns="http://www.w3.org/2000/svg">
<path d="M13.7101 0.939912C21.4881 0.551587 26.679 4.11671 31.5491 12.3C37.5419 22.3695 34.4227 32.5448 28.0054 38.5565C32.0631 30.0515 31.2131 26.6266 22.2614 19.3154C13.3097 12.0042 12.7108 5.87277 13.7101 0.939912Z" fill="url(#paint0_linear_2_5435)"/>
<path fill-rule="evenodd" clip-rule="evenodd" d="M40 20.141C40 28.3589 35.0683 35.4273 27.9974 38.5592C32.5285 34.3718 38.0113 23.4704 31.7668 13.1845C26.2451 4.08918 18.0848 1.80077 13.707 0.940001C15.6347 0.329418 17.688 0 19.8184 0C30.9644 0 40 9.01743 40 20.141Z" fill="url(#paint1_linear_2_5435)"/>
<path d="M26.2899 39.0561C20.9746 39.983 14.5784 36.6388 8.45082 27.696C1.82659 18.0285 5.57723 7.45119 11.9946 1.43945C7.93691 9.94441 8.78695 13.3694 17.7386 20.6807C26.6903 27.9918 27.2892 34.1233 26.2899 39.0561Z" fill="url(#paint2_linear_2_5435)"/>
<path fill-rule="evenodd" clip-rule="evenodd" d="M0 19.855C0 11.6371 4.93168 4.56873 12.0025 1.43672C7.47155 5.62418 1.98864 16.5255 8.23316 26.8114C13.7549 35.9068 21.9152 38.1952 26.293 39.0561C24.3653 39.6666 22.312 39.996 20.1816 39.996C9.03563 39.996 0 30.9786 0 19.855Z" fill="url(#paint3_linear_2_5435)"/>
<defs>
<linearGradient id="paint0_linear_2_5435" x1="13.7235" y1="0.939913" x2="28.2027" y2="38.5697" gradientUnits="userSpaceOnUse">
<stop stop-color="#818181"/>
<stop offset="0.523958" stop-color="#505050"/>
<stop offset="1" stop-color="#121114"/>
<stop offset="1" stop-color="#252525"/>
</linearGradient>
<linearGradient id="paint1_linear_2_5435" x1="13.7101" y1="1.0339" x2="28.3644" y2="38.5833" gradientUnits="userSpaceOnUse">
<stop stop-color="#F2F2F2"/>
<stop offset="0.473958" stop-color="#989898"/>
<stop offset="1" stop-color="#292929"/>
</linearGradient>
<linearGradient id="paint2_linear_2_5435" x1="26.2765" y1="39.0561" x2="11.7973" y2="1.42629" gradientUnits="userSpaceOnUse">
<stop stop-color="#808080"/>
<stop offset="0.523958" stop-color="#545454"/>
<stop offset="1" stop-color="#171717"/>
</linearGradient>
<linearGradient id="paint3_linear_2_5435" x1="26.2899" y1="38.9621" x2="11.6356" y2="1.4127" gradientUnits="userSpaceOnUse">
<stop stop-color="#F3F3F3"/>
<stop offset="0.473958" stop-color="#949494"/>
<stop offset="1" stop-color="#303030"/>
</linearGradient>
<rect width="40" height="40" fill="white"/>
</defs>
</svg>
