<?xml version="1.0" encoding="UTF-8" standalone="no"?>
<svg
   width="10.583333mm"
   height="10.583334mm"
   viewBox="0 0 10.583333 10.583334"
   version="1.1"
   id="svg1"
   xml:space="preserve"
   xmlns:sodipodi="http://sodipodi.sourceforge.net/DTD/sodipodi-0.dtd"
   xmlns="http://www.w3.org/2000/svg"
   xmlns:svg="http://www.w3.org/2000/svg"><sodipodi:namedview
     id="namedview1"
     pagecolor="#ffffff"
     bordercolor="#000000"
     borderopacity="0.25"/><defs
     id="defs1" /><g 
     id="layer1"><g
       id="g1"
       transform="matrix(0.02205225,0,0,0.02205682,-0.47921538,-0.04985486)"><path
         d="m 240.16391,2.8124913 c -9.58785,0.7817301 -41.5311,6.5603204 -43.70959,7.9063467 -0.45041,0.278523 -4.70592,1.632832 -9.45739,3.009919 -4.75146,1.378123 -9.99268,3.210788 -11.64622,4.07328 -1.65251,0.861456 -3.41787,1.569673 -3.92107,1.573814 -6.90926,0.04763 -45.70481,23.304875 -62.76205,37.624515 C 92.895276,70.240078 86.221061,77.224914 69.485824,98.005477 -39.461466,233.28413 49.217789,454.61107 222.18928,479.1253 c 21.1295,2.99439 25.8178,3.27395 45.93053,2.73554 C 454.57849,476.86501 563.14683,272.91629 464.39412,113.15343 449.66343,89.322575 432.1361,70.711187 401.16924,46.023011 393.30638,39.754675 371.34546,27.471676 358.19997,21.991282 c -3.70157,-1.543788 -8.12792,-3.436507 -9.83634,-4.207883 -1.70842,-0.77034 -6.36773,-2.386606 -10.35404,-3.592851 -3.98631,-1.205211 -8.37539,-2.652706 -9.75247,-3.217001 C 325.69346,9.9246821 312.51898,7.1435867 297.0138,4.3811285 286.34086,2.4780558 254.89045,1.6103871 240.16391,2.8124913 m -4.14162,20.6915157 c -0.85421,0.562224 -3.18387,1.031263 -5.17702,1.040582 -11.14303,0.0528 -47.12643,10.127287 -58.5987,16.407013 -1.0851,0.594322 -5.93286,3.026486 -10.77338,5.405844 -10.18838,5.00825 -25.66663,14.37348 -31.40795,19.004843 C 96.149546,92.717665 80.224,111.81156 64.353327,144.14825 c -3.353675,6.83368 -6.714597,14.05562 -7.46837,16.04877 -0.753774,1.99316 -1.673213,4.08985 -2.042853,4.65932 -0.369639,0.56947 -1.445424,3.59803 -2.390748,6.73013 -0.944289,3.13209 -2.664095,8.832 -3.820641,12.66609 -1.933099,6.40709 -4.55992,21.7145 -7.064563,41.17492 -3.176619,24.67472 3.533835,72.49589 13.29459,94.73948 0.500099,1.13894 2.143286,5.09936 3.652905,8.80093 22.94352,56.25661 83.083933,111.22725 135.832583,124.15427 2.13604,0.52288 6.44643,1.69496 9.57853,2.60301 23.70247,6.87197 75.10407,10.32815 88.52705,5.9515 1.70842,-0.55705 7.53256,-1.79435 12.94255,-2.74797 120.73847,-21.29722 208.62047,-163.41058 169.6872,-274.39968 -0.59949,-1.70842 -2.17124,-6.6007 -3.49345,-10.87174 C 462.21563,143.3862 441.64215,109.99131 417.90137,86.514559 409.84799,78.552302 390.86283,62.565662 387.0018,60.49796 385.6827,59.79078 381.85688,57.435235 378.50114,55.263993 360.89513,43.871441 330.17883,31.297494 309.86317,27.166231 290.63467,23.25551 240.19393,20.753974 236.02229,23.504007 m -16.04877,93.436933 c -38.86182,21.54366 -43.79862,28.62064 -48.23429,69.14118 -1.15345,10.53524 -2.53468,20.78574 -3.06895,22.7789 -3.73056,13.89615 3.14659,20.31773 34.81236,32.51065 28.50467,10.97528 99.15858,11.01152 128.34455,0.0652 8.95107,-3.35677 31.16463,-14.24197 34.65601,-16.98165 3.90141,-3.0617 2.53363,-25.92342 -2.54398,-42.51474 -0.7838,-2.56261 -1.73431,-6.48991 -2.1112,-8.72741 -5.94115,-35.26173 -38.49528,-62.17292 -63.68149,-52.64409 -25.74739,9.74108 -25.40778,9.73901 -45.55778,0.28267 -18.02328,-8.45718 -23.27796,-9.08671 -32.61523,-3.91073 m 139.71329,117.59292 c -23.92094,12.4176 -31.77655,15.06616 -57.91636,19.52772 -22.54903,3.84963 -80.52752,0.60054 -94.73844,-5.30748 -3.1321,-1.30358 -6.86059,-2.71483 -8.28427,-3.13727 -1.42369,-0.42245 -6.7819,-2.88154 -11.90715,-5.46383 -5.12525,-2.58334 -10.84068,-5.46073 -12.70027,-6.39466 -8.30601,-4.17061 -12.34098,-1.08096 -13.80401,10.56837 -2.30377,18.34943 11.32629,31.00725 46.75679,43.42381 l 9.77421,3.42512 49.60932,0.29716 c 59.74281,0.35825 64.61749,-0.0393 77.13242,-6.29525 26.43594,-13.21487 31.26403,-19.32893 31.0787,-39.35158 -0.15636,-16.89261 -1.81196,-18.1382 -15.00094,-11.29211 m 20.44612,9.26273 c -0.51148,1.00123 -0.96085,4.96476 -0.99916,8.80714 -0.45454,45.1198 -93.66162,65.86931 -175.92654,39.16312 -27.91036,-9.06082 -40.47292,-18.99655 -46.77232,-36.99084 -3.54211,-10.12004 -3.78957,-10.17492 -18.41052,-4.04636 -10.73714,4.49986 -17.00444,6.22278 -40.228556,11.05916 -17.403063,3.62391 -20.955534,6.8668 -16.786997,15.32604 21.059073,42.73216 150.630583,76.16847 231.358963,59.70348 64.82148,-13.22108 122.15905,-38.94984 131.69202,-59.09363 3.2346,-6.83262 1.316,-8.5224 -21.70829,-19.11873 -30.6407,-14.1022 -40.768,-17.65364 -42.2186,-14.80938 m 40.09188,42.23413 c -3.18593,2.49222 -12.50457,7.82973 -20.70808,11.86262 -8.20247,4.03187 -16.07878,7.96847 -17.50247,8.74606 -2.59783,1.41954 -16.4008,6.85231 -30.45434,11.9848 -1.97658,0.72271 -2.66513,1.45267 -1.99729,2.12051 1.15033,1.15033 9.08567,-1.00848 17.43827,-4.74526 2.84736,-1.27355 6.34185,-2.65892 7.76554,-3.07929 9.08359,-2.67859 44.54205,-21.31897 49.95824,-26.26303 6.7146,-6.12959 3.16834,-6.62244 -4.49987,-0.62641 m -288.77834,19.01105 c 0,1.65562 2.54192,2.99232 13.97796,7.3493 6.26419,2.38765 12.32131,4.76078 13.46025,5.27435 3.77198,1.70117 11.10885,4.05464 12.64125,4.05464 2.60404,0 0.80865,-2.49947 -2.36486,-3.29052 -5.47212,-1.36569 -18.34322,-6.02501 -19.65819,-7.11632 -0.70925,-0.58812 -2.61543,-1.46303 -4.23687,-1.94345 -1.62144,-0.48148 -5.39446,-1.85235 -8.38367,-3.04824 -2.99025,-1.19486 -5.43587,-1.77054 -5.43587,-1.27976"
         stroke="none"
         fill="#010000"
         fill-rule="evenodd"
         id="path1"
         style="stroke-width:1.0354" /><path
         d="m 236.02229,23.504007 c -0.85421,0.562224 -3.18387,1.031263 -5.17702,1.040582 -11.14303,0.0528 -47.12643,10.127287 -58.5987,16.407013 -1.0851,0.594322 -5.93286,3.026486 -10.77338,5.405844 -10.18838,5.00825 -25.66663,14.37348 -31.40795,19.004843 C 96.149546,92.717665 80.224,111.81156 64.353327,144.14825 c -3.353675,6.83368 -6.714597,14.05562 -7.46837,16.04877 -0.753774,1.99316 -1.673213,4.08985 -2.042853,4.65932 -0.369639,0.56947 -1.445424,3.59803 -2.390748,6.73013 -0.944289,3.13209 -2.664095,8.832 -3.820641,12.66609 -1.933099,6.40709 -4.55992,21.7145 -7.064563,41.17492 -3.176619,24.67472 3.533835,72.49589 13.29459,94.73948 0.500099,1.13894 2.143286,5.09936 3.652905,8.80093 22.94352,56.25661 83.083933,111.22725 135.832583,124.15427 2.13604,0.52288 6.44643,1.69496 9.57853,2.60301 23.70247,6.87197 75.10407,10.32815 88.52705,5.9515 1.70842,-0.55705 7.53256,-1.79435 12.94255,-2.74797 120.73847,-21.29722 208.62047,-163.41058 169.6872,-274.39968 -0.59949,-1.70842 -2.17124,-6.6007 -3.49345,-10.87174 C 462.21563,143.3862 441.64215,109.99131 417.90137,86.514559 409.84799,78.552302 390.86283,62.565662 387.0018,60.49796 385.6827,59.79078 381.85688,57.435235 378.50114,55.263993 360.89513,43.871441 330.17883,31.297494 309.86317,27.166231 290.63467,23.25551 240.19393,20.753974 236.02229,23.504007 m -16.04877,93.436933 c -38.86182,21.54366 -43.79862,28.62064 -48.23429,69.14118 -1.15345,10.53524 -2.53468,20.78574 -3.06895,22.7789 -3.73056,13.89615 3.14659,20.31773 34.81236,32.51065 28.50467,10.97528 99.15858,11.01152 128.34455,0.0652 8.95107,-3.35677 31.16463,-14.24197 34.65601,-16.98165 3.90141,-3.0617 2.53363,-25.92342 -2.54398,-42.51474 -0.7838,-2.56261 -1.73431,-6.48991 -2.1112,-8.72741 -5.94115,-35.26173 -38.49528,-62.17292 -63.68149,-52.64409 -25.74739,9.74108 -25.40778,9.73901 -45.55778,0.28267 -18.02328,-8.45718 -23.27796,-9.08671 -32.61523,-3.91073 m 139.71329,117.59292 c -23.92094,12.4176 -31.77655,15.06616 -57.91636,19.52772 -22.54903,3.84963 -80.52752,0.60054 -94.73844,-5.30748 -3.1321,-1.30358 -6.86059,-2.71483 -8.28427,-3.13727 -1.42369,-0.42245 -6.7819,-2.88154 -11.90715,-5.46383 -5.12525,-2.58334 -10.84068,-5.46073 -12.70027,-6.39466 -8.30601,-4.17061 -12.34098,-1.08096 -13.80401,10.56837 -2.30377,18.34943 11.32629,31.00725 46.75679,43.42381 l 9.77421,3.42512 49.60932,0.29716 c 59.74281,0.35825 64.61749,-0.0393 77.13242,-6.29525 26.43594,-13.21487 31.26403,-19.32893 31.0787,-39.35158 -0.15636,-16.89261 -1.81196,-18.1382 -15.00094,-11.29211 m 20.44612,9.26273 c -0.51148,1.00123 -0.96085,4.96476 -0.99916,8.80714 -0.45454,45.1198 -93.66162,65.86931 -175.92654,39.16312 -27.91036,-9.06082 -40.47292,-18.99655 -46.77232,-36.99084 -3.54211,-10.12004 -3.78957,-10.17492 -18.41052,-4.04636 -10.73714,4.49986 -17.00444,6.22278 -40.228556,11.05916 -17.403063,3.62391 -20.955534,6.8668 -16.786997,15.32604 21.059073,42.73216 150.630583,76.16847 231.358963,59.70348 64.82148,-13.22108 122.15905,-38.94984 131.69202,-59.09363 3.2346,-6.83262 1.316,-8.5224 -21.70829,-19.11873 -30.6407,-14.1022 -40.768,-17.65364 -42.2186,-14.80938 m 40.09188,42.23413 c -3.18593,2.49222 -12.50457,7.82973 -20.70808,11.86262 -8.20247,4.03187 -16.07878,7.96847 -17.50247,8.74606 -2.59783,1.41954 -16.4008,6.85231 -30.45434,11.9848 -1.97658,0.72271 -2.66513,1.45267 -1.99729,2.12051 1.15033,1.15033 9.08567,-1.00848 17.43827,-4.74526 2.84736,-1.27355 6.34185,-2.65892 7.76554,-3.07929 9.08359,-2.67859 44.54205,-21.31897 49.95824,-26.26303 6.7146,-6.12959 3.16834,-6.62244 -4.49987,-0.62641 m -288.77834,19.01105 c 0,1.65562 2.54192,2.99232 13.97796,7.3493 6.26419,2.38765 12.32131,4.76078 13.46025,5.27435 3.77198,1.70117 11.10885,4.05464 12.64125,4.05464 2.60404,0 0.80865,-2.49947 -2.36486,-3.29052 -5.47212,-1.36569 -18.34322,-6.02501 -19.65819,-7.11632 -0.70925,-0.58812 -2.61543,-1.46303 -4.23687,-1.94345 -1.62144,-0.48148 -5.39446,-1.85235 -8.38367,-3.04824 -2.99025,-1.19486 -5.43587,-1.77054 -5.43587,-1.27976"
         stroke="none"
         fill="#c8a0ff"
         fill-rule="evenodd"
         id="path2"
         style="stroke-width:1.0354" /></g></g></svg>
