<svg width="200" height="200" viewBox="0 0 200 200" fill="none" xmlns="http://www.w3.org/2000/svg">
<g clip-path="url(#clip0_1261_7)">
<path d="M86.7535 127.88C85.5615 127.88 84.6079 127.88 83.4159 126.692L65.774 109.102C65.2973 108.627 65.0588 108.389 65.0588 107.914C64.8204 107.677 64.582 106.726 64.8204 105.775C64.8204 105.299 65.0588 105.062 65.2972 104.824C65.5356 104.586 65.774 104.349 66.0124 104.111C66.4893 103.636 66.7276 103.16 66.9661 102.922C71.2574 98.8819 75.3102 94.8409 79.6014 91.038C89.1376 81.7678 98.6737 72.4975 108.21 63.2278C108.21 62.7521 108.925 59.8999 111.071 59.1868C111.786 58.9492 112.74 58.9492 113.216 58.9492C114.408 58.9492 115.362 58.9492 116.554 60.1375L135.149 77.7268C135.864 78.6775 136.58 79.8663 136.342 81.0546C136.103 82.2429 134.911 82.9561 134.434 83.1941C132.288 84.3824 125.613 91.0375 112.978 104.349C105.349 111.717 97.9585 119.086 90.3296 126.217C90.0912 126.454 89.8528 127.167 89.1376 127.643C88.4224 127.88 87.7072 127.88 86.7535 127.88Z" fill="#AF145B"/>
<path d="M92.2372 121.463C81.2706 109.341 80.0786 91.9891 91.0452 79.8672L66.9664 102.923C61.4832 108.39 58.1455 115.996 58.1455 123.603C58.1455 131.209 61.4832 138.815 66.9664 144.282L119.654 197.763C120.846 198.952 121.799 198.952 122.991 198.952C124.183 198.952 125.137 198.952 126.329 197.763C131.812 192.296 135.15 184.69 135.15 177.084C135.15 169.477 131.812 161.872 126.329 156.404L93.4292 123.603C93.1908 122.414 92.2372 122.414 92.2372 121.463Z" fill="url(#paint0_linear_1261_7)"/>
<path d="M134.912 42.5472L98.6742 7.6062C93.1909 3.32771 86.5157 0 78.8867 0C71.2579 0 63.6289 3.32771 58.1456 8.79468C56 9.98312 56 10.9339 56 12.1224C56 13.3109 56 14.2617 57.192 15.4501L106.541 62.5137C107.734 63.702 108.687 63.702 108.687 64.6527C119.654 76.7751 120.846 94.1268 110.833 106.249L134.912 83.1927C140.395 78.9146 143.733 71.0707 143.733 63.4644C143.733 55.858 140.395 48.0142 134.912 42.5472Z" fill="url(#paint1_linear_1261_7)"/>
</g>
<defs>
<linearGradient id="paint0_linear_1261_7" x1="57.2896" y1="139.409" x2="134.792" y2="139.409" gradientUnits="userSpaceOnUse">
<stop stop-color="#CB0766"/>
<stop offset="1" stop-color="#E04391"/>
</linearGradient>
<linearGradient id="paint1_linear_1261_7" x1="56" y1="53.1244" x2="143.733" y2="53.1244" gradientUnits="userSpaceOnUse">
<stop stop-color="#CB0766"/>
<stop offset="1" stop-color="#E04391"/>
</linearGradient>
<clipPath id="clip0_1261_7">
<rect width="87.8049" height="200" fill="white" transform="translate(56)"/>
</clipPath>
</defs>
</svg>
