<svg width="18" height="41" viewBox="0 0 18 41" fill="none" xmlns="http://www.w3.org/2000/svg">
<path d="M6.30456 26.2154C6.06019 26.2154 5.86471 26.2154 5.62034 25.9717L2.00376 22.3659C1.90602 22.2685 1.85714 22.2197 1.85714 22.1223C1.80827 22.0736 1.7594 21.8787 1.80827 21.6837C1.80827 21.5863 1.85714 21.5376 1.90601 21.4888C1.95488 21.4401 2.00376 21.3914 2.05263 21.3427C2.15038 21.2452 2.19925 21.1477 2.24813 21.099C3.12784 20.2707 3.95867 19.4423 4.83838 18.6627C6.79329 16.7623 8.74819 14.8619 10.7031 12.9616C10.7031 12.8641 10.8497 12.2794 11.2896 12.1332C11.4362 12.0845 11.6317 12.0845 11.7294 12.0845C11.9738 12.0845 12.1693 12.0845 12.4136 12.3281L16.2257 15.9339C16.3723 16.1288 16.519 16.3725 16.4701 16.6161C16.4212 16.8597 16.1769 17.0059 16.0791 17.0547C15.6392 17.2983 14.2708 18.6626 11.6806 21.3914C10.1166 22.9019 8.60158 24.4125 7.03765 25.8743C6.98878 25.923 6.9399 26.0692 6.79329 26.1667C6.64667 26.2154 6.50005 26.2154 6.30456 26.2154Z" fill="#AF145B"/>
<path d="M7.42865 24.8998C5.1805 22.4147 4.93614 18.8576 7.18428 16.3726L2.24814 21.0991C1.12407 22.2198 0.43985 23.7791 0.43985 25.3384C0.43985 26.8976 1.12407 28.4569 2.24814 29.5776L13.049 40.5413C13.2934 40.7849 13.4889 40.7849 13.7332 40.7849C13.9776 40.7849 14.1731 40.7849 14.4174 40.5413C15.5415 39.4206 16.2257 37.8613 16.2257 36.302C16.2257 34.7427 15.5415 33.1835 14.4174 32.0627L7.67301 25.3384C7.62414 25.0947 7.42865 25.0947 7.42865 24.8998Z" fill="url(#paint0_linear_6146_6018)"/>
<path d="M16.1769 8.72218L8.74821 1.55927C7.62414 0.68218 6.25571 0 4.69178 0C3.12786 0 1.56393 0.68218 0.439855 1.80291C7.57391e-07 2.04654 0 2.24145 0 2.48509C0 2.72873 0 2.92364 0.244364 3.16727L10.361 12.8153C10.6054 13.0589 10.8009 13.0589 10.8009 13.2538C13.049 15.7389 13.2934 19.296 11.2407 21.7811L16.1769 17.0545C17.3009 16.1775 17.9852 14.5695 17.9852 13.0102C17.9852 11.4509 17.3009 9.84291 16.1769 8.72218Z" fill="url(#paint1_linear_6146_6018)"/>
<defs>
<linearGradient id="paint0_linear_6146_6018" x1="0.264397" y1="28.5787" x2="16.1524" y2="28.5787" gradientUnits="userSpaceOnUse">
<stop stop-color="#CB0766"/>
<stop offset="1" stop-color="#E04391"/>
</linearGradient>
<linearGradient id="paint1_linear_6146_6018" x1="0" y1="10.8905" x2="17.9852" y2="10.8905" gradientUnits="userSpaceOnUse">
<stop stop-color="#CB0766"/>
<stop offset="1" stop-color="#E04391"/>
</linearGradient>
</defs>
</svg>
