<svg width="200" height="200" viewBox="0 0 200 200" fill="none" xmlns="http://www.w3.org/2000/svg">
<path d="M86.8162 128.554C85.6178 128.554 84.6592 128.554 83.4608 127.359L65.725 109.677C65.2456 109.2 65.0059 108.96 65.0059 108.483C64.7663 108.244 64.5266 107.288 64.7663 106.332C64.7663 105.854 65.0059 105.615 65.2456 105.376C65.4852 105.137 65.725 104.899 65.9646 104.66C66.444 104.182 66.6836 103.703 66.9234 103.465C71.2375 99.4029 75.3119 95.3406 79.626 91.5176C89.213 82.1986 98.7998 72.8795 108.387 63.5608C108.387 63.0827 109.106 60.2155 111.263 59.4986C111.982 59.2598 112.941 59.2598 113.42 59.2598C114.618 59.2598 115.577 59.2598 116.775 60.4543L135.47 78.1363C136.189 79.092 136.908 80.2871 136.668 81.4816C136.429 82.6762 135.23 83.3931 134.751 83.6324C132.594 84.827 125.883 91.5171 113.18 104.899C105.511 112.306 98.0809 119.713 90.4113 126.882C90.1716 127.12 89.9319 127.837 89.213 128.315C88.4939 128.554 87.7749 128.554 86.8162 128.554Z" fill="#AF145B"/>
<path d="M92.3299 122.102C81.3049 109.916 80.1066 92.4729 91.1315 80.2871L66.9246 103.465C61.4121 108.96 58.0566 116.607 58.0566 124.253C58.0566 131.899 61.4121 139.546 66.9246 145.041L119.892 198.804C121.091 199.999 122.05 199.999 123.248 199.999C124.446 199.999 125.405 199.999 126.603 198.804C132.116 193.309 135.471 185.662 135.471 178.016C135.471 170.37 132.116 162.724 126.603 157.228L93.5283 124.253C93.2886 123.058 92.3299 123.058 92.3299 122.102Z" fill="url(#paint0_linear_1261_7)"/>
<path d="M135.231 42.7714L98.8009 7.64628C93.2884 3.34524 86.5776 0 78.9081 0C71.2385 0 63.569 3.34524 58.0565 8.84103C55.8994 10.0357 55.8994 10.9915 55.8994 12.1863C55.8994 13.381 55.8994 14.3368 57.0978 15.5315L106.71 62.8431C107.909 64.0376 108.867 64.0377 108.867 64.9934C119.892 77.1797 121.091 94.6229 111.024 106.809L135.231 83.6311C140.744 79.3305 144.099 71.4453 144.099 63.7988C144.099 56.1524 140.744 48.2672 135.231 42.7714Z" fill="url(#paint1_linear_1261_7)"/>
<defs>
<linearGradient id="paint0_linear_1261_7" x1="57.1962" y1="140.143" x2="135.111" y2="140.143" gradientUnits="userSpaceOnUse">
<stop stop-color="#CB0766"/>
<stop offset="1" stop-color="#E04391"/>
</linearGradient>
<linearGradient id="paint1_linear_1261_7" x1="55.8994" y1="53.4043" x2="144.099" y2="53.4043" gradientUnits="userSpaceOnUse">
<stop stop-color="#CB0766"/>
<stop offset="1" stop-color="#E04391"/>
</linearGradient>
</defs>
</svg>
