<svg width="500" height="500" viewBox="0 0 500 500" fill="none" xmlns="http://www.w3.org/2000/svg">
<g clip-path="url(#clip0_7009_5605)">
<rect width="500" height="500" rx="250" fill="#25D695"/>
<path d="M250.001 210C242.089 210 234.356 212.346 227.778 216.741C221.2 221.136 216.073 227.384 213.045 234.693C210.018 242.002 209.226 250.044 210.769 257.804C212.313 265.563 216.122 272.69 221.716 278.284C227.31 283.878 234.438 287.688 242.197 289.231C249.956 290.775 257.999 289.983 265.308 286.955C272.617 283.928 278.864 278.801 283.259 272.223C287.655 265.645 290.001 257.911 290.001 250C290.001 239.391 285.786 229.217 278.285 221.716C270.783 214.214 260.609 210 250.001 210Z" fill="white"/>
<path d="M250 90C228.985 89.9741 208.171 94.1006 188.755 102.142C169.339 110.184 151.703 121.982 136.86 136.86L193.46 193.46C204.645 182.264 218.9 174.636 234.42 171.543C249.941 168.45 266.03 170.029 280.653 176.082C295.276 182.135 307.775 192.388 316.569 205.546C325.363 218.704 330.057 234.174 330.057 250C330.057 265.826 325.363 281.296 316.569 294.454C307.775 307.612 295.276 317.865 280.653 323.918C266.03 329.971 249.941 331.55 234.42 328.457C218.9 325.364 204.645 317.736 193.46 306.54L136.86 363.14C155.466 381.745 178.373 395.474 203.551 403.111C228.73 410.749 255.404 412.059 281.21 406.925C307.016 401.792 331.158 390.373 351.498 373.681C371.837 356.989 387.745 335.539 397.815 311.23C407.884 286.921 411.803 260.504 409.224 234.319C406.645 208.134 397.649 182.989 383.031 161.112C368.414 139.234 348.626 121.299 325.422 108.895C302.217 96.4908 276.312 90.001 250 90Z" fill="white"/>
</g>
<defs>
<clipPath id="clip0_7009_5605">
<rect width="500" height="500" fill="white"/>
</clipPath>
</defs>
</svg>
