<svg width="21" height="21" viewBox="0 0 21 21" fill="none" xmlns="http://www.w3.org/2000/svg">
<path d="M10.5015 9.32278C10.2707 9.32278 10.0452 9.39121 9.85332 9.5194C9.66146 9.6476 9.51193 9.82981 9.42363 10.043C9.33532 10.2562 9.31222 10.4907 9.35724 10.7171C9.40225 10.9434 9.51337 11.1512 9.67653 11.3144C9.83969 11.4776 10.0476 11.5887 10.2739 11.6337C10.5002 11.6787 10.7348 11.6556 10.9479 11.5673C11.1611 11.479 11.3433 11.3295 11.4715 11.1376C11.5997 10.9458 11.6682 10.7202 11.6682 10.4895C11.6682 10.18 11.5452 9.88329 11.3264 9.66449C11.1077 9.4457 10.8109 9.32278 10.5015 9.32278Z" fill="url(#paint0_linear_6428_109907)"/>
<path d="M10.503 5.83338C9.89009 5.83262 9.28303 5.95298 8.71673 6.18753C8.15042 6.42208 7.63604 6.7662 7.20312 7.20013L8.85396 8.85096C9.18019 8.5244 9.59594 8.30194 10.0486 8.21172C10.5013 8.12149 10.9706 8.16756 11.3971 8.3441C11.8236 8.52063 12.1881 8.8197 12.4446 9.20347C12.7011 9.58723 12.838 10.0385 12.838 10.5C12.838 10.9616 12.7011 11.4129 12.4446 11.7966C12.1881 12.1804 11.8236 12.4795 11.3971 12.656C10.9706 12.8325 10.5013 12.8786 10.0486 12.7884C9.59594 12.6981 9.18019 12.4757 8.85396 12.1491L7.20312 13.8C7.74579 14.3426 8.41391 14.743 9.14829 14.9658C9.88267 15.1885 10.6607 15.2268 11.4133 15.077C12.166 14.9273 12.8702 14.5943 13.4634 14.1074C14.0566 13.6206 14.5206 12.9949 14.8143 12.2859C15.108 11.5769 15.2223 10.8064 15.1471 10.0427C15.0719 9.27896 14.8095 8.54556 14.3831 7.90746C13.9568 7.26936 13.3796 6.74626 12.7028 6.38447C12.026 6.02269 11.2705 5.83341 10.503 5.83338Z" fill="url(#paint1_linear_6428_109907)"/>
<path fill-rule="evenodd" clip-rule="evenodd" d="M18.2866 8.89396L12.106 2.71344C11.2191 1.82645 9.78095 1.82645 8.89396 2.71344L2.71344 8.89396C1.82645 9.78095 1.82645 11.219 2.71344 12.106L8.89396 18.2866C9.78095 19.1735 11.2191 19.1735 12.106 18.2866L18.2866 12.106C19.1736 11.2191 19.1735 9.78095 18.2866 8.89396ZM13.5543 1.26515C11.8675 -0.421716 9.13253 -0.421715 7.44566 1.26515L1.26515 7.44566C-0.421717 9.13253 -0.421715 11.8675 1.26515 13.5543L7.44566 19.7349C9.13253 21.4217 11.8675 21.4217 13.5543 19.7349L19.7349 13.5543C21.4217 11.8675 21.4217 9.13253 19.7349 7.44566L13.5543 1.26515Z" fill="url(#paint2_linear_6428_109907)"/>
<defs>
<linearGradient id="paint0_linear_6428_109907" x1="11.1863" y1="5.83337" x2="11.1863" y2="15.1667" gradientUnits="userSpaceOnUse">
<stop stop-color="#FF03CB"/>
<stop offset="1" stop-color="#00AFFF"/>
</linearGradient>
<linearGradient id="paint1_linear_6428_109907" x1="11.1863" y1="5.83337" x2="11.1863" y2="15.1667" gradientUnits="userSpaceOnUse">
<stop stop-color="#FF03CB"/>
<stop offset="1" stop-color="#00AFFF"/>
</linearGradient>
<linearGradient id="paint2_linear_6428_109907" x1="16.6446" y1="4.3554" x2="4.35542" y2="16.6446" gradientUnits="userSpaceOnUse">
<stop stop-color="#FF03CB"/>
<stop offset="1" stop-color="#00AFFF"/>
</linearGradient>
</defs>
</svg>
