<svg width="500" height="500" viewBox="0 0 500 500" fill="none" xmlns="http://www.w3.org/2000/svg">
<rect width="500" height="500" rx="250" fill="url(#paint0_linear_2637_856)"/>
<path fill-rule="evenodd" clip-rule="evenodd" d="M388.889 244.445V155.559C388.889 131.015 368.985 111.111 344.441 111.111H255.555C231.011 111.111 211.107 131.015 211.107 155.559V266.674C211.107 272.807 208.622 278.365 204.601 282.386C200.58 286.407 195.022 288.893 188.889 288.893H144.441C132.174 288.893 122.222 298.834 122.222 311.111V355.559C122.222 367.826 132.164 377.778 144.441 377.778H188.889C201.156 377.778 211.107 367.837 211.107 355.559V311.111C211.107 304.978 213.593 299.421 217.614 295.399C221.635 291.378 227.193 288.893 233.326 288.893H344.441C368.985 288.893 388.889 268.989 388.889 244.445ZM376.441 244.445V155.559C376.441 137.886 362.114 123.559 344.441 123.559H255.556C237.883 123.559 223.556 137.886 223.556 155.559V244.445C223.556 262.118 237.883 276.445 255.556 276.445H344.441C362.114 276.445 376.441 262.118 376.441 244.445ZM200.441 355.559V311.111C200.441 304.731 195.269 299.559 188.889 299.559H144.441C138.061 299.559 132.889 304.731 132.889 311.111V355.559C132.889 361.939 138.061 367.111 144.441 367.111H188.889C195.269 367.111 200.441 361.939 200.441 355.559Z" fill="white"/>
<defs>
<linearGradient id="paint0_linear_2637_856" x1="248.315" y1="360.411" x2="684.167" y2="-161.29" gradientUnits="userSpaceOnUse">
<stop stop-color="#01189A"/>
<stop offset="1" stop-color="#0C57FB"/>
</linearGradient>
</defs>
</svg>
