<svg width="501" height="501" viewBox="0 0 501 501" fill="none" xmlns="http://www.w3.org/2000/svg">
<rect width="500" height="500" transform="translate(0.966797 0.205078)" fill="#B1FC03"/>
<path d="M157.639 199.256H213.088V236.026H157.639V282.646C157.639 292.861 165.914 301.15 176.125 301.155H213.088V338.169H176.124C145.51 338.169 120.688 313.327 120.667 282.673V236.026H83.8418V199.256H120.667V162.704H157.639V199.256ZM219.641 199.256C235.766 199.256 250.616 204.782 262.391 214.042L299.15 241.601C304.907 245.837 309.393 249.451 317.245 249.451C325.121 249.451 329.646 245.809 335.391 241.544L372.356 213.611C384.036 204.61 398.675 199.256 414.554 199.256H417.175V236.027H414.554C406.816 236.027 399.97 239.196 393.713 243.588L361.36 268.436L387.951 288.787C395.866 294.837 403.932 301.143 414.554 301.143H417.175V337.919H414.554C398.422 337.919 383.577 332.394 371.802 323.127L335.292 294.896C329.653 290.59 325.034 286.957 317.245 286.957C309.241 286.957 304.504 290.818 298.728 295.207L262.392 323.127C250.618 332.386 235.773 337.919 219.641 337.919H217.02V301.143H219.641C227.441 301.143 234.472 298.182 240.402 293.649L272.848 268.72L240.418 243.543C234.315 239.075 227.396 236.027 219.641 236.027H217.02V199.256H219.641Z" fill="#0F1B07"/>
</svg>
