<svg xmlns="http://www.w3.org/2000/svg" viewBox="0 0 100 100">
  <defs>
    <radialGradient id="h" cx="50%" cy="50%" r="50%">
      <stop offset="0%" stop-color="#22d3ee" stop-opacity="0.45"/>
      <stop offset="60%" stop-color="#22d3ee" stop-opacity="0.08"/>
      <stop offset="100%" stop-color="#22d3ee" stop-opacity="0"/>
    </radialGradient>
    <linearGradient id="r" x1="0" x2="1" y1="0" y2="1">
      <stop offset="0%" stop-color="#7dd3fc" stop-opacity="0.4"/>
      <stop offset="50%" stop-color="#22d3ee" stop-opacity="1"/>
      <stop offset="100%" stop-color="#7dd3fc" stop-opacity="0.4"/>
    </linearGradient>
  </defs>
  <circle cx="50" cy="50" r="46" fill="url(#h)"/>
  <g fill="none" stroke="url(#r)" stroke-width="2.4">
    <ellipse cx="50" cy="50" rx="42" ry="18" transform="rotate(45 50 50)"/>
    <ellipse cx="50" cy="50" rx="42" ry="18" transform="rotate(-45 50 50)"/>
  </g>
  <g transform="translate(50 50)">
    <polygon points="0,-18 18,0 0,18 -18,0" fill="url(#h)" opacity="0.8"/>
    <polygon points="0,-14 14,0 0,0" fill="#67e8f9"/>
    <polygon points="0,-14 -14,0 0,0" fill="#22d3ee"/>
    <polygon points="14,0 0,14 0,0" fill="#0891b2"/>
    <polygon points="-14,0 0,14 0,0" fill="#155e75"/>
    <polygon points="0,-10 6,-2 0,-2 -6,-2" fill="#cffafe" opacity="0.95"/>
  </g>
</svg>
