<svg width="96" height="90" viewBox="0 0 96 90" fill="none" xmlns="http://www.w3.org/2000/svg">
<path fill-rule="evenodd" clip-rule="evenodd" d="M71.1741 34.652C71.1741 27.5593 65.4688 21.7991 58.3971 21.7104H26.0829C38.3145 22.5635 47.9755 32.7444 48 45.1871H71.1741V34.652ZM47.7556 1C35.647 1 25.6374 9.98756 24.0341 21.6557C11.1873 21.8607 0.836185 32.3388 0.836185 45.2345C0.836185 58.2584 11.3942 68.8164 24.4181 68.8164H24.6896C25.958 77.0314 31.4661 83.8467 38.9083 86.9568C41.7047 88.1253 44.7741 88.7708 47.9943 88.7708C59.7848 88.7708 69.5543 80.1179 71.299 68.8159C71.3926 68.817 71.4863 68.8176 71.5802 68.8176C84.6041 68.8176 95.1621 58.2596 95.1621 45.2357C95.1621 32.2117 84.6041 21.6537 71.5802 21.6537H71.4769C69.8727 9.98658 59.8637 1 47.7556 1ZM68.8919 68.666H35.4356C29.1971 67.7112 24.4185 62.3218 24.4185 55.8163V45.2344H47.9983V45.2357C47.9983 57.3506 57.1339 67.3317 68.8919 68.666Z" fill="#081130"/>
</svg>
