<svg width="169" height="169" viewBox="0 0 169 169" fill="none" xmlns="http://www.w3.org/2000/svg">
<g clip-path="url(#clip0_2021_1545)">
<path d="M145.427 0.00361045C139.186 0.0198478 133.205 2.50876 128.795 6.92527C124.385 11.3418 121.905 17.3259 121.898 23.5672V35.9584C114.957 21.8218 103.068 10.7243 88.4876 4.77099C73.907 -1.18235 57.6485 -1.5775 42.7959 3.66048C30.2857 8.09564 19.4554 16.2951 11.7926 27.1327C4.12984 37.9703 0.0103664 50.9145 0 64.1873L0 145.428C0 151.679 2.48356 157.675 6.90432 162.096C11.3251 166.516 17.3209 169 23.5728 169C29.8247 169 35.8206 166.516 40.2413 162.096C44.6621 157.675 47.1457 151.679 47.1457 145.428V133.063C54.0852 147.194 65.9706 158.286 80.5469 164.235C95.1232 170.184 111.376 170.575 126.222 165.334C138.728 160.901 149.555 152.703 157.214 141.869C164.874 131.034 168.991 118.094 169 104.825V23.5672C168.991 17.3191 166.504 11.3296 162.085 6.91237C157.666 2.49511 151.675 0.0105691 145.427 0.00361045ZM104.815 162.476C92.4917 162.527 80.4795 158.608 70.5572 151.3C60.6348 143.992 53.3298 133.683 49.7239 121.899L49.6275 121.557C47.9726 116.134 47.1362 110.495 47.1457 104.825V64.1873C47.1503 59.6659 48.9491 55.3311 52.1472 52.1347C55.3452 48.9384 59.6811 47.1418 64.2026 47.1395C68.7197 47.1511 73.0484 48.9512 76.2416 52.146C79.4349 55.3408 81.2328 59.6703 81.2421 64.1873V104.808C81.2496 111.059 83.7382 117.052 88.1613 121.469C91.4612 124.755 95.6598 126.991 100.228 127.894C104.796 128.798 109.53 128.33 113.832 126.548C118.135 124.766 121.813 121.751 124.405 117.882C126.997 114.013 128.386 109.464 128.396 104.808V23.5672C128.396 21.3296 128.837 19.1139 129.694 17.0466C130.55 14.9793 131.805 13.1009 133.387 11.5187C134.969 9.9365 136.848 8.68141 138.915 7.82511C140.983 6.96882 143.198 6.52809 145.436 6.52809C147.674 6.52809 149.889 6.96882 151.957 7.82511C154.024 8.68141 155.902 9.9365 157.485 11.5187C159.067 13.1009 160.322 14.9793 161.178 17.0466C162.035 19.1139 162.475 21.3296 162.475 23.5672V104.808C162.481 112.381 160.994 119.882 158.098 126.881C155.203 133.88 150.956 140.239 145.6 145.595C140.245 150.951 133.886 155.198 126.888 158.095C119.89 160.992 112.389 162.48 104.815 162.476ZM121.898 104.808C121.895 108.177 120.894 111.47 119.022 114.271C117.149 117.073 114.49 119.257 111.378 120.55C108.266 121.842 104.841 122.184 101.535 121.533C98.2294 120.882 95.19 119.267 92.8005 116.892C91.0505 115.158 89.7006 113.063 88.8454 110.753C88.6875 110.341 88.5472 109.876 88.4069 109.411L88.3543 109.175L88.3016 108.955C88.2227 108.649 88.1438 108.342 88.0912 108.017C88.0912 107.903 88.0912 107.78 88.0298 107.658V107.473C88.0298 107.184 87.9421 106.895 87.9158 106.596C87.8895 106.298 87.9158 106.237 87.9158 106C87.9158 105.763 87.9158 105.413 87.9158 105.123V64.1873C87.91 61.0812 87.2918 58.0066 86.0964 55.1396C84.9011 52.2727 83.1521 49.6695 80.9496 47.4793C78.747 45.289 76.1341 43.5545 73.2605 42.3752C70.3869 41.1958 67.3089 40.5947 64.2026 40.6062C57.9505 40.6132 51.9565 43.0999 47.5356 47.5207C43.1147 51.9415 40.628 57.9354 40.621 64.1873V145.428C40.621 149.949 38.8249 154.285 35.6277 157.482C32.4306 160.679 28.0943 162.476 23.5728 162.476C19.0514 162.476 14.7151 160.679 11.5179 157.482C8.32077 154.285 6.52462 149.949 6.52462 145.428V64.1873C6.53476 50.3626 11.5103 37.0014 20.5451 26.5372C29.5799 16.0731 42.0728 9.20209 55.7485 7.17575C69.4242 5.14941 83.3729 8.10251 95.0539 15.4972C106.735 22.8919 115.371 34.2362 119.39 47.464L119.627 48.2357C121.128 53.4202 121.892 58.79 121.898 64.1873V104.808Z" fill="url(#paint0_linear_2021_1545)"/>
</g>
<defs>
<linearGradient id="paint0_linear_2021_1545" x1="11.5894" y1="157.174" x2="212.982" y2="-44.526" gradientUnits="userSpaceOnUse">
<stop offset="0.05" stop-color="white"/>
<stop offset="0.38" stop-color="#A7B3FF"/>
<stop offset="1" stop-color="#74A4FF"/>
</linearGradient>
<clipPath id="clip0_2021_1545">
<rect width="169" height="169" fill="white"/>
</clipPath>
</defs>
</svg>
