<svg width="80" height="80" viewBox="0 0 80 80" fill="none" xmlns="http://www.w3.org/2000/svg">
<g clip-path="url(#clip0_4603_65114)">
<circle cx="40" cy="40" r="40" fill="#122A5F"/>
<path fill-rule="evenodd" clip-rule="evenodd" d="M62 40C62 27.8497 52.1502 18 40 18V10C42.071 10 44.0931 10.2099 46.046 10.6095C59.7165 13.4069 70 25.5025 70 40C70 56.5685 56.5685 70 40 70C26.9378 70 15.8254 61.6519 11.707 50H20.3988C24.0402 57.1234 31.4506 62 40 62C52.1502 62 62 52.1503 62 40ZM13.4602 26C18.4902 35.5156 28.4878 42 40 42V34C30.1404 34 21.7956 27.514 18.9997 18.576C16.7921 20.7402 14.9176 23.2429 13.4602 26ZM22.3837 15.7143C24.0953 23.8734 31.3322 30 40 30C45.5229 30 50 34.4772 50 40C50 45.5229 45.5229 50 40 50H25.0311C28.2601 54.8239 33.7592 58 40 58C49.9411 58 58 49.9411 58 40C58 30.0589 49.9411 22 40 22C34.4772 22 30 17.5228 30 12V11.7071C27.256 12.6769 24.6953 14.0346 22.3837 15.7143Z" fill="white"/>
</g>
<defs>
<clipPath id="clip0_4603_65114">
<rect width="80" height="80" fill="white"/>
</clipPath>
</defs>
</svg>
