<svg width="52" height="52" viewBox="0 0 52 52" fill="none" xmlns="http://www.w3.org/2000/svg">
<path d="M17.9635 39.6834C18.0285 39.6834 18.0986 39.6669 18.1515 39.6135C18.2042 39.5603 18.2203 39.4901 18.2203 39.4252C18.2203 39.3602 18.2042 39.2901 18.1515 39.2369C18.0986 39.1835 18.0285 39.1669 17.9635 39.1669C17.8984 39.1669 17.8283 39.1835 17.7754 39.2369C17.7227 39.2901 17.7066 39.3602 17.7066 39.4252C17.7066 39.4901 17.7227 39.5603 17.7754 39.6135C17.8283 39.6669 17.8984 39.6834 17.9635 39.6834Z" fill="#0B0913" stroke="#0B0913" stroke-width="0.232558"/>
<path d="M7.37301 39.9201C7.50495 39.9201 7.62687 39.8546 7.71336 39.7673C7.79992 39.6799 7.86417 39.5573 7.86417 39.4252C7.86417 39.2931 7.79992 39.1705 7.71336 39.0831C7.62687 38.9958 7.50495 38.9304 7.37301 38.9304C7.24106 38.9304 7.11914 38.9958 7.03265 39.0831C6.94609 39.1705 6.88184 39.2931 6.88184 39.4252C6.88184 39.5665 6.92424 39.6933 7.01508 39.785C7.10606 39.8769 7.23222 39.9201 7.37301 39.9201Z" fill="#0B0913" stroke="#0B0913" stroke-width="0.232558"/>
<path d="M28.5539 39.6834C28.619 39.6834 28.6891 39.6669 28.742 39.6135C28.7946 39.5603 28.8108 39.4901 28.8108 39.4252C28.8108 39.3602 28.7946 39.2901 28.742 39.2369C28.6891 39.1835 28.619 39.1669 28.5539 39.1669C28.4888 39.1669 28.4187 39.1835 28.3658 39.2369C28.3132 39.2901 28.297 39.3602 28.297 39.4252C28.297 39.4901 28.3132 39.5603 28.3658 39.6135C28.4187 39.6669 28.4888 39.6834 28.5539 39.6834Z" fill="#0B0913" stroke="#0B0913" stroke-width="0.232558"/>
<path d="M12.6682 39.7781C12.7653 39.7781 12.8551 39.7449 12.9207 39.6786C12.9863 39.6123 13.0188 39.5223 13.0188 39.4252C13.0188 39.3281 12.9863 39.2381 12.9207 39.1718C12.8551 39.1055 12.7653 39.0723 12.6682 39.0723C12.5712 39.0723 12.4814 39.1055 12.4157 39.1718C12.3502 39.2381 12.3177 39.3281 12.3177 39.4252C12.3177 39.5223 12.3502 39.6123 12.4157 39.6786C12.4814 39.7449 12.5712 39.7781 12.6682 39.7781Z" fill="#0B0913" stroke="#0B0913" stroke-width="0.232558"/>
<path d="M33.8491 40.1567C34.2424 40.1567 34.5746 39.8196 34.5746 39.4252C34.5746 39.0308 34.2424 38.6938 33.8491 38.6938C33.4558 38.6938 33.1237 39.0308 33.1237 39.4252C33.1237 39.8196 33.4558 40.1567 33.8491 40.1567Z" fill="#0B0913" stroke="#0B0913" stroke-width="0.232558"/>
<path d="M44.4396 40.3932C44.9735 40.3932 45.3993 39.9615 45.3993 39.4252C45.3993 38.8888 44.9735 38.4571 44.4396 38.4571C43.9057 38.4571 43.4798 38.8888 43.4798 39.4252C43.4798 39.9615 43.9057 40.3932 44.4396 40.3932Z" fill="#0B0913" stroke="#0B0913" stroke-width="0.232558"/>
<path d="M39.1443 40.6299C39.8188 40.6299 40.3384 40.1035 40.3384 39.4252C40.3384 38.7469 39.8188 38.2205 39.1443 38.2205C38.4699 38.2205 37.9503 38.7469 37.9503 39.4252C37.9503 40.1068 38.52 40.6299 39.1443 40.6299Z" fill="#0B0913" stroke="#0B0913" stroke-width="0.232558"/>
<path d="M2.07778 40.062C2.42423 40.062 2.70952 39.7723 2.70952 39.4252C2.70952 39.0781 2.42423 38.7884 2.07778 38.7884C1.73133 38.7884 1.44604 39.0781 1.44604 39.4252C1.44604 39.6198 1.51565 39.7815 1.63467 39.8941C1.75261 40.0058 1.91128 40.062 2.07778 40.062Z" fill="#0B0913" stroke="#0B0913" stroke-width="0.232558"/>
<path d="M49.7348 40.5352C50.3624 40.5352 50.8351 40.0562 50.8351 39.4251C50.8351 38.7941 50.3624 38.3151 49.7348 38.3151C49.1072 38.3151 48.6344 38.7941 48.6344 39.4251C48.6344 40.0088 49.154 40.5352 49.7348 40.5352Z" fill="#0B0913" stroke="#0B0913" stroke-width="0.232558"/>
<path d="M17.9635 34.336C18.0285 34.336 18.0986 34.3195 18.1515 34.266C18.2042 34.2129 18.2203 34.1427 18.2203 34.0778C18.2203 34.0128 18.2042 33.9427 18.1515 33.8895C18.0986 33.8361 18.0285 33.8195 17.9635 33.8195C17.8984 33.8195 17.8283 33.8361 17.7754 33.8895C17.7227 33.9427 17.7066 34.0128 17.7066 34.0778C17.7066 34.1317 17.7299 34.192 17.7669 34.2387C17.8067 34.289 17.8729 34.336 17.9635 34.336Z" fill="#0B0913" stroke="#0B0913" stroke-width="0.232558"/>
<path d="M7.37301 34.7146C7.71946 34.7146 8.00475 34.4249 8.00475 34.0778C8.00475 33.7307 7.71946 33.441 7.37301 33.441C7.02655 33.441 6.74126 33.7307 6.74126 34.0778C6.74126 34.2723 6.81088 34.434 6.9299 34.5467C7.04784 34.6584 7.20651 34.7146 7.37301 34.7146Z" fill="#0B0913" stroke="#0B0913" stroke-width="0.232558"/>
<path d="M28.5539 34.8093C28.9472 34.8093 29.2794 34.4722 29.2794 34.0778C29.2794 33.6834 28.9472 33.3464 28.5539 33.3464C28.1606 33.3464 27.8284 33.6834 27.8284 34.0778C27.8284 34.4722 28.1606 34.8093 28.5539 34.8093Z" fill="#0B0913" stroke="#0B0913" stroke-width="0.232558"/>
<path d="M23.2587 34.336C23.3237 34.336 23.3938 34.3195 23.4467 34.266C23.4994 34.2129 23.5155 34.1427 23.5155 34.0778C23.5155 34.0128 23.4994 33.9427 23.4467 33.8895C23.3938 33.8361 23.3237 33.8195 23.2587 33.8195C23.1936 33.8195 23.1235 33.8361 23.0706 33.8895C23.0179 33.9427 23.0018 34.0128 23.0018 34.0778C23.0018 34.1317 23.0251 34.192 23.0621 34.2387C23.1019 34.289 23.1681 34.336 23.2587 34.336Z" fill="#0B0913" stroke="#0B0913" stroke-width="0.232558"/>
<path d="M12.6682 34.5726C12.9771 34.5726 13.1594 34.3205 13.1594 34.0778C13.1594 33.7687 12.9113 33.5829 12.6682 33.5829C12.5363 33.5829 12.4144 33.6484 12.3279 33.7357C12.2413 33.8231 12.1771 33.9457 12.1771 34.0778C12.1771 34.3205 12.3594 34.5726 12.6682 34.5726Z" fill="#0B0913" stroke="#0B0913" stroke-width="0.232558"/>
<path d="M33.8491 35.2825C34.5236 35.2825 35.0432 34.7561 35.0432 34.0778C35.0432 33.3995 34.5236 32.8731 33.8491 32.8731C33.1746 32.8731 32.655 33.3995 32.655 34.0778C32.655 34.7594 33.2248 35.2825 33.8491 35.2825Z" fill="#0B0913" stroke="#0B0913" stroke-width="0.232558"/>
<path d="M44.4395 34.8093C44.8328 34.8093 45.165 34.4722 45.165 34.0778C45.165 33.6834 44.8328 33.3464 44.4395 33.3464C44.0462 33.3464 43.7141 33.6834 43.7141 34.0778C43.7141 34.4722 44.0462 34.8093 44.4395 34.8093Z" fill="#0B0913" stroke="#0B0913" stroke-width="0.232558"/>
<path d="M39.1443 34.8093C39.5377 34.8093 39.8698 34.4722 39.8698 34.0778C39.8698 33.6834 39.5377 33.3464 39.1443 33.3464C38.751 33.3464 38.4189 33.6834 38.4189 34.0778C38.4189 34.4722 38.751 34.8093 39.1443 34.8093Z" fill="#0B0913" stroke="#0B0913" stroke-width="0.232558"/>
<path d="M2.07779 34.9038C2.51797 34.9038 2.89698 34.5195 2.89698 34.0777C2.89698 33.636 2.51797 33.2516 2.07779 33.2516C1.63975 33.2516 1.26228 33.6323 1.25863 34.0713C1.23344 34.3164 1.31574 34.5275 1.46991 34.6761C1.62359 34.8242 1.84148 34.9038 2.07779 34.9038Z" fill="#0B0913" stroke="#0B0913" stroke-width="0.232558"/>
<path d="M49.7348 35.0932C50.3195 35.0932 50.7414 34.6101 50.7414 34.0778C50.7414 33.4902 50.2647 33.0624 49.7348 33.0624C49.1501 33.0624 48.7281 33.5455 48.7281 34.0778C48.7281 34.6655 49.2049 35.0932 49.7348 35.0932Z" fill="#0B0913" stroke="#0B0913" stroke-width="0.232558"/>
<path d="M17.9635 29.0361C18.0285 29.0361 18.0986 29.0195 18.1515 28.9661C18.2042 28.9129 18.2203 28.8428 18.2203 28.7778C18.2203 28.7129 18.2042 28.6427 18.1515 28.5895C18.0986 28.5361 18.0285 28.5196 17.9635 28.5196C17.8984 28.5196 17.8283 28.5361 17.7754 28.5895C17.7227 28.6427 17.7066 28.7129 17.7066 28.7778C17.7066 28.8428 17.7227 28.9129 17.7754 28.9661C17.8283 29.0195 17.8984 29.0361 17.9635 29.0361Z" fill="#0B0913" stroke="#0B0913" stroke-width="0.232558"/>
<path d="M7.37301 29.5092C7.76632 29.5092 8.09847 29.1722 8.09847 28.7778C8.09847 28.3834 7.76632 28.0463 7.37301 28.0463C6.9797 28.0463 6.64755 28.3834 6.64755 28.7778C6.64755 29.1722 6.9797 29.5092 7.37301 29.5092Z" fill="#0B0913" stroke="#0B0913" stroke-width="0.232558"/>
<path d="M28.5539 29.9825C29.2284 29.9825 29.748 29.4562 29.748 28.7778C29.748 28.0995 29.2284 27.5732 28.5539 27.5732C27.8794 27.5732 27.3598 28.0995 27.3598 28.7778C27.3598 29.4594 27.9296 29.9825 28.5539 29.9825Z" fill="#0B0913" stroke="#0B0913" stroke-width="0.232558"/>
<path d="M23.2587 29.5092C23.652 29.5092 23.9841 29.1722 23.9841 28.7778C23.9841 28.3834 23.652 28.0463 23.2587 28.0463C22.8654 28.0463 22.5332 28.3834 22.5332 28.7778C22.5332 29.1722 22.8654 29.5092 23.2587 29.5092Z" fill="#0B0913" stroke="#0B0913" stroke-width="0.232558"/>
<path d="M12.6682 29.2727C12.9771 29.2727 13.1594 29.0205 13.1594 28.7779C13.1594 28.4687 12.9113 28.283 12.6682 28.283C12.5363 28.283 12.4144 28.3484 12.3279 28.4358C12.2413 28.5232 12.1771 28.6458 12.1771 28.7779C12.1771 29.0205 12.3594 29.2727 12.6682 29.2727Z" fill="#0B0913" stroke="#0B0913" stroke-width="0.232558"/>
<path d="M33.8491 29.5092C34.2424 29.5092 34.5746 29.1722 34.5746 28.7778C34.5746 28.3834 34.2424 28.0463 33.8491 28.0463C33.4558 28.0463 33.1237 28.3834 33.1237 28.7778C33.1237 29.1722 33.4558 29.5092 33.8491 29.5092Z" fill="#0B0913" stroke="#0B0913" stroke-width="0.232558"/>
<path d="M44.4396 29.5092C44.8329 29.5092 45.165 29.1722 45.165 28.7778C45.165 28.3834 44.8329 28.0463 44.4396 28.0463C44.0462 28.0463 43.7141 28.3834 43.7141 28.7778C43.7141 29.1722 44.0462 29.5092 44.4396 29.5092Z" fill="#0B0913" stroke="#0B0913" stroke-width="0.232558"/>
<path d="M39.1443 29.2727C39.4532 29.2727 39.6355 29.0205 39.6355 28.7779C39.6355 28.6458 39.5713 28.5232 39.4847 28.4358C39.3982 28.3484 39.2763 28.283 39.1443 28.283C38.8355 28.283 38.6532 28.5352 38.6532 28.7779C38.6532 28.9099 38.7174 29.0325 38.804 29.12C38.8905 29.2073 39.0124 29.2727 39.1443 29.2727Z" fill="#0B0913" stroke="#0B0913" stroke-width="0.232558"/>
<path d="M2.0778 29.7459C2.62024 29.7459 2.99071 29.3052 2.99071 28.7778C2.99071 28.2415 2.56483 27.8097 2.03094 27.8097C1.49705 27.8097 1.07118 28.2415 1.07118 28.7778C1.07118 29.3222 1.55214 29.7459 2.0778 29.7459Z" fill="#0B0913" stroke="#0B0913" stroke-width="0.232558"/>
<path d="M49.7348 29.7459C50.2687 29.7459 50.6946 29.3142 50.6946 28.7778C50.6946 28.2415 50.2687 27.8097 49.7348 27.8097C49.2009 27.8097 48.775 28.2415 48.775 28.7778C48.775 29.3142 49.2009 29.7459 49.7348 29.7459Z" fill="#0B0913" stroke="#0B0913" stroke-width="0.232558"/>
<path d="M17.9634 24.1619C18.3568 24.1619 18.6889 23.8248 18.6889 23.4304C18.6889 23.233 18.6058 23.0404 18.4777 22.8974C18.3495 22.7543 18.1675 22.6517 17.9634 22.6517C17.5701 22.6517 17.238 22.9887 17.238 23.3831C17.238 23.5806 17.3211 23.7732 17.4492 23.9162C17.5774 24.0593 17.7594 24.1619 17.9634 24.1619Z" fill="#0B0913" stroke="#0B0913" stroke-width="0.232558"/>
<path d="M7.37301 24.1619C7.76632 24.1619 8.09847 23.8248 8.09847 23.4304C8.09847 23.233 8.01534 23.0404 7.88721 22.8974C7.75902 22.7543 7.57708 22.6517 7.37301 22.6517C6.9797 22.6517 6.64755 22.9887 6.64755 23.3831C6.64755 23.5806 6.73067 23.7732 6.8588 23.9162C6.987 24.0593 7.16894 24.1619 7.37301 24.1619Z" fill="#0B0913" stroke="#0B0913" stroke-width="0.232558"/>
<path d="M28.5539 24.1618C28.9472 24.1618 29.2794 23.8248 29.2794 23.4304C29.2794 23.036 28.9472 22.6989 28.5539 22.6989C28.1606 22.6989 27.8284 23.036 27.8284 23.4304C27.8284 23.8248 28.1606 24.1618 28.5539 24.1618Z" fill="#0B0913" stroke="#0B0913" stroke-width="0.232558"/>
<path d="M23.2587 24.6351C23.9331 24.6351 24.4527 24.1088 24.4527 23.4304C24.4527 22.7521 23.9331 22.2258 23.2587 22.2258C22.5842 22.2258 22.0646 22.7521 22.0646 23.4304C22.0646 24.1088 22.5842 24.6351 23.2587 24.6351Z" fill="#0B0913" stroke="#0B0913" stroke-width="0.232558"/>
<path d="M12.6682 23.9253C12.9771 23.9253 13.1594 23.6731 13.1594 23.4305C13.1594 23.2984 13.0952 23.1758 13.0086 23.0884C12.9221 23.001 12.8002 22.9356 12.6682 22.9356C12.5363 22.9356 12.4144 23.001 12.3279 23.0884C12.2413 23.1758 12.1771 23.2984 12.1771 23.4305C12.1771 23.6731 12.3594 23.9253 12.6682 23.9253Z" fill="#0B0913" stroke="#0B0913" stroke-width="0.232558"/>
<path d="M33.8491 23.6887C33.9142 23.6887 33.9843 23.6721 34.0372 23.6187C34.0898 23.5655 34.106 23.4954 34.106 23.4304C34.106 23.3655 34.0898 23.2953 34.0372 23.2421C33.9843 23.1887 33.9142 23.1722 33.8491 23.1722C33.784 23.1722 33.7139 23.1887 33.661 23.2421C33.6084 23.2953 33.5922 23.3655 33.5922 23.4304C33.5922 23.5205 33.6381 23.5869 33.6882 23.6273C33.7345 23.6648 33.7947 23.6887 33.8491 23.6887Z" fill="#0B0913" stroke="#0B0913" stroke-width="0.232558"/>
<path d="M44.4395 24.1618C44.8329 24.1618 45.165 23.8248 45.165 23.4304C45.165 23.036 44.8329 22.6989 44.4395 22.6989C44.0462 22.6989 43.7141 23.036 43.7141 23.4304C43.7141 23.8248 44.0462 24.1618 44.4395 24.1618Z" fill="#0B0913" stroke="#0B0913" stroke-width="0.232558"/>
<path d="M39.1443 23.9253C39.4532 23.9253 39.6355 23.6731 39.6355 23.4305C39.6355 23.2984 39.5712 23.1758 39.4847 23.0884C39.3982 23.001 39.2763 22.9356 39.1443 22.9356C38.8355 22.9356 38.6532 23.1878 38.6532 23.4305C38.6532 23.5625 38.7174 23.6851 38.804 23.7725C38.8905 23.8599 39.0124 23.9253 39.1443 23.9253Z" fill="#0B0913" stroke="#0B0913" stroke-width="0.232558"/>
<path d="M2.07779 24.3985C2.61168 24.3985 3.03755 23.9668 3.03755 23.4304C3.03755 22.894 2.61168 22.4623 2.07779 22.4623C1.54389 22.4623 1.11802 22.894 1.11802 23.4304C1.11802 23.9668 1.54389 24.3985 2.07779 24.3985Z" fill="#0B0913" stroke="#0B0913" stroke-width="0.232558"/>
<path d="M48.775 23.4304H48.7744L48.7756 23.4419C48.8272 23.9629 49.2423 24.3985 49.7348 24.3985C50.2687 24.3985 50.6945 23.9668 50.6945 23.4304C50.6945 22.894 50.2687 22.4623 49.7348 22.4623C49.2009 22.4623 48.775 22.894 48.775 23.4304Z" fill="#0B0913" stroke="#0B0913" stroke-width="0.232558"/>
<path d="M17.9635 19.2877C18.6379 19.2877 19.1575 18.7613 19.1575 18.083C19.1575 17.4047 18.6379 16.8783 17.9635 16.8783C17.289 16.8783 16.7694 17.4047 16.7694 18.083C16.7694 18.7613 17.289 19.2877 17.9635 19.2877Z" fill="#0B0913" stroke="#0B0913" stroke-width="0.232558"/>
<path d="M7.37301 18.8145C7.76632 18.8145 8.09847 18.4775 8.09847 18.0831C8.09847 17.6887 7.76632 17.3516 7.37301 17.3516C6.9797 17.3516 6.64755 17.6887 6.64755 18.0831C6.64755 18.4775 6.9797 18.8145 7.37301 18.8145Z" fill="#0B0913" stroke="#0B0913" stroke-width="0.232558"/>
<path d="M23.2587 18.8145C23.652 18.8145 23.9841 18.4775 23.9841 18.0831C23.9841 17.6887 23.652 17.3516 23.2587 17.3516C22.8654 17.3516 22.5332 17.6887 22.5332 18.0831C22.5332 18.4775 22.8654 18.8145 23.2587 18.8145Z" fill="#0B0913" stroke="#0B0913" stroke-width="0.232558"/>
<path d="M12.6682 18.8145C13.0615 18.8145 13.3937 18.4775 13.3937 18.0831C13.3937 17.6887 13.0615 17.3516 12.6682 17.3516C12.2749 17.3516 11.9428 17.6887 11.9428 18.0831C11.9428 18.4775 12.2749 18.8145 12.6682 18.8145Z" fill="#0B0913" stroke="#0B0913" stroke-width="0.232558"/>
<path d="M33.8491 18.3412C33.9142 18.3412 33.9843 18.3247 34.0372 18.2713C34.0899 18.2181 34.106 18.148 34.106 18.083C34.106 18.018 34.0899 17.9479 34.0372 17.8947C33.9843 17.8413 33.9142 17.8248 33.8491 17.8248C33.784 17.8248 33.7139 17.8413 33.6611 17.8947C33.6084 17.9479 33.5923 18.018 33.5923 18.083C33.5923 18.1276 33.612 18.165 33.6248 18.1859C33.6399 18.2106 33.6591 18.2338 33.6786 18.2535C33.6982 18.2733 33.7212 18.2927 33.7457 18.308C33.7664 18.321 33.804 18.3412 33.8491 18.3412Z" fill="#0B0913" stroke="#0B0913" stroke-width="0.232558"/>
<path d="M43.8078 18.083V18.0912L43.809 18.0993C43.8348 18.2824 43.9013 18.4382 44.0113 18.5493C44.1231 18.6622 44.271 18.7199 44.4396 18.7199C44.786 18.7199 45.0713 18.4301 45.0713 18.083C45.0713 17.736 44.786 17.4462 44.4396 17.4462C44.0931 17.4462 43.8078 17.736 43.8078 18.083Z" fill="#0B0913" stroke="#0B0913" stroke-width="0.232558"/>
<path d="M39.1443 18.5779C39.4532 18.5779 39.6355 18.3257 39.6355 18.083C39.6355 17.951 39.5713 17.8284 39.4847 17.741C39.3982 17.6536 39.2763 17.5882 39.1443 17.5882C38.8355 17.5882 38.6532 17.8404 38.6532 18.083C38.6532 18.2151 38.7174 18.3377 38.804 18.4251C38.8905 18.5125 39.0124 18.5779 39.1443 18.5779Z" fill="#0B0913" stroke="#0B0913" stroke-width="0.232558"/>
<path d="M2.0778 19.0985C2.66248 19.0985 3.08443 18.6154 3.08443 18.0831C3.08443 17.4954 2.60769 17.0677 2.0778 17.0677C1.54391 17.0677 1.07118 17.5467 1.07118 18.0831C1.07118 18.6668 1.49705 19.0985 2.0778 19.0985Z" fill="#0B0913" stroke="#0B0913" stroke-width="0.232558"/>
<path d="M49.7348 18.9091C50.175 18.9091 50.554 18.5247 50.554 18.083C50.554 17.6413 50.175 17.2569 49.7348 17.2569C49.2946 17.2569 48.9156 17.6413 48.9156 18.083C48.9156 18.5247 49.2946 18.9091 49.7348 18.9091Z" fill="#0B0913" stroke="#0B0913" stroke-width="0.232558"/>
<path d="M17.9634 13.4672C18.3568 13.4672 18.6889 13.1302 18.6889 12.7358C18.6889 12.3414 18.3568 12.0043 17.9634 12.0043C17.5701 12.0043 17.238 12.3414 17.238 12.7358C17.238 13.1302 17.5701 13.4672 17.9634 13.4672Z" fill="#0B0913" stroke="#0B0913" stroke-width="0.232558"/>
<path d="M7.37303 13.7039C7.90692 13.7039 8.33279 13.2722 8.33279 12.7358C8.33279 12.1995 7.90692 11.7678 7.37303 11.7678C6.83913 11.7678 6.41326 12.1995 6.41326 12.7358C6.41326 13.2722 6.83913 13.7039 7.37303 13.7039Z" fill="#0B0913" stroke="#0B0913" stroke-width="0.232558"/>
<path d="M23.2587 12.9941C23.3237 12.9941 23.3938 12.9775 23.4467 12.9241C23.4994 12.8709 23.5155 12.8008 23.5155 12.7358C23.5155 12.6709 23.4994 12.6007 23.4467 12.5475C23.3938 12.4941 23.3237 12.4776 23.2587 12.4776C23.1936 12.4776 23.1235 12.4941 23.0706 12.5475C23.0179 12.6007 23.0018 12.6709 23.0018 12.7358C23.0018 12.8008 23.0179 12.8709 23.0706 12.9241C23.1235 12.9775 23.1936 12.9941 23.2587 12.9941Z" fill="#0B0913" stroke="#0B0913" stroke-width="0.232558"/>
<path d="M12.6682 13.9404C13.3427 13.9404 13.8623 13.4141 13.8623 12.7357C13.8623 12.0574 13.3427 11.5311 12.6682 11.5311C11.9938 11.5311 11.4742 12.0574 11.4742 12.7357C11.4742 13.4141 11.9938 13.9404 12.6682 13.9404Z" fill="#0B0913" stroke="#0B0913" stroke-width="0.232558"/>
<path d="M33.8491 12.9941C33.9142 12.9941 33.9843 12.9775 34.0372 12.9241C34.0899 12.8709 34.106 12.8008 34.106 12.7358C34.106 12.6709 34.0899 12.6007 34.0372 12.5475C33.9843 12.4941 33.9142 12.4776 33.8491 12.4776C33.784 12.4776 33.7139 12.4941 33.6611 12.5475C33.6084 12.6007 33.5923 12.6709 33.5923 12.7358C33.5923 12.8259 33.6381 12.8923 33.6882 12.9328C33.7345 12.9702 33.7948 12.9941 33.8491 12.9941Z" fill="#0B0913" stroke="#0B0913" stroke-width="0.232558"/>
<path d="M44.4395 13.2306C44.5715 13.2306 44.6934 13.1652 44.7799 13.0778C44.8665 12.9904 44.9307 12.8678 44.9307 12.7358C44.9307 12.6037 44.8665 12.4811 44.7799 12.3937C44.6934 12.3063 44.5715 12.2409 44.4395 12.2409C44.3076 12.2409 44.1857 12.3063 44.0992 12.3937C44.0126 12.4811 43.9484 12.6037 43.9484 12.7358C43.9484 12.8678 44.0126 12.9904 44.0992 13.0778C44.1857 13.1652 44.3076 13.2306 44.4395 13.2306Z" fill="#0B0913" stroke="#0B0913" stroke-width="0.232558"/>
<path d="M39.1443 13.0886C39.2414 13.0886 39.3312 13.0554 39.3968 12.9891C39.4624 12.9229 39.4949 12.8328 39.4949 12.7358C39.4949 12.6387 39.4624 12.5486 39.3968 12.4824C39.3312 12.4161 39.2414 12.3829 39.1443 12.3829C39.0473 12.3829 38.9575 12.4161 38.8918 12.4824C38.8263 12.5486 38.7938 12.6387 38.7938 12.7358C38.7938 12.8328 38.8263 12.9229 38.8918 12.9891C38.9575 13.0554 39.0473 13.0886 39.1443 13.0886Z" fill="#0B0913" stroke="#0B0913" stroke-width="0.232558"/>
<path d="M2.0778 13.8459C2.70542 13.8459 3.17815 13.3668 3.17815 12.7358C3.17815 12.1048 2.70542 11.6258 2.0778 11.6258C1.45019 11.6258 0.977456 12.1048 0.977456 12.7358C0.977456 13.3668 1.45019 13.8459 2.0778 13.8459Z" fill="#0B0913" stroke="#0B0913" stroke-width="0.232558"/>
<path d="M49.7348 13.3727C50.0812 13.3727 50.3665 13.0829 50.3665 12.7359C50.3665 12.3888 50.0812 12.0991 49.7348 12.0991C49.3743 12.0991 49.1499 12.4039 49.1499 12.7359C49.1499 12.91 49.2216 13.0677 49.3274 13.1817C49.4324 13.2949 49.5788 13.3727 49.7348 13.3727Z" fill="#0B0913" stroke="#0B0913" stroke-width="0.232558"/>
<path d="M17.9635 7.64667C18.0285 7.64667 18.0986 7.63012 18.1515 7.57672C18.2042 7.52352 18.2203 7.45338 18.2203 7.38842C18.2203 7.32346 18.2042 7.25333 18.1515 7.20013C18.0986 7.14673 18.0285 7.13018 17.9635 7.13018C17.8984 7.13018 17.8283 7.14673 17.7754 7.20013C17.7227 7.25333 17.7066 7.32346 17.7066 7.38842C17.7066 7.45338 17.7227 7.52352 17.7754 7.57672C17.8283 7.63012 17.8984 7.64667 17.9635 7.64667Z" fill="#0B0913" stroke="#0B0913" stroke-width="0.232558"/>
<path d="M7.37302 8.593C8.04749 8.593 8.56708 8.06665 8.56708 7.38832C8.56708 6.71 8.04749 6.18365 7.37302 6.18365C6.69854 6.18365 6.17895 6.71 6.17895 7.38832C6.17895 8.06665 6.69854 8.593 7.37302 8.593Z" fill="#0B0913" stroke="#0B0913" stroke-width="0.232558"/>
<path d="M12.6682 8.11983C13.0615 8.11983 13.3937 7.78277 13.3937 7.38837C13.3937 6.99398 13.0615 6.65691 12.6682 6.65691C12.2749 6.65691 11.9428 6.99398 11.9428 7.38837C11.9428 7.78277 12.2749 8.11983 12.6682 8.11983Z" fill="#0B0913" stroke="#0B0913" stroke-width="0.232558"/>
<path d="M33.8491 7.64667C33.9142 7.64667 33.9843 7.63012 34.0372 7.57672C34.0898 7.52352 34.106 7.45339 34.106 7.38842C34.106 7.32346 34.0898 7.25333 34.0372 7.20013C33.9843 7.14673 33.9142 7.13018 33.8491 7.13018C33.784 7.13018 33.7139 7.14673 33.661 7.20013C33.6084 7.25333 33.5922 7.32347 33.5922 7.38842C33.5922 7.4785 33.6381 7.5449 33.6882 7.58535C33.7345 7.62277 33.7947 7.64667 33.8491 7.64667Z" fill="#0B0913" stroke="#0B0913" stroke-width="0.232558"/>
<path d="M44.4395 7.78855C44.5366 7.78855 44.6264 7.75534 44.692 7.68902C44.7576 7.62281 44.7901 7.53273 44.7901 7.43566C44.7901 7.34056 44.7591 7.24428 44.7015 7.16951C44.643 7.0935 44.5527 7.03545 44.4395 7.03545C44.3425 7.03545 44.2527 7.06866 44.1871 7.13498C44.1215 7.2012 44.089 7.29127 44.089 7.38834C44.089 7.48344 44.12 7.57973 44.1776 7.6545C44.2361 7.7305 44.3264 7.78855 44.4395 7.78855Z" fill="#0B0913" stroke="#0B0913" stroke-width="0.232558"/>
<path d="M39.1443 7.64667C39.2094 7.64667 39.2795 7.63012 39.3324 7.57671C39.3851 7.52352 39.4012 7.45338 39.4012 7.38842C39.4012 7.32347 39.3851 7.25333 39.3324 7.20013C39.2795 7.14673 39.2094 7.13018 39.1443 7.13018C39.0793 7.13018 39.0092 7.14673 38.9563 7.20013C38.9036 7.25333 38.8875 7.32346 38.8875 7.38842C38.8875 7.4785 38.9333 7.5449 38.9834 7.58535C39.0297 7.62277 39.09 7.64667 39.1443 7.64667Z" fill="#0B0913" stroke="#0B0913" stroke-width="0.232558"/>
<path d="M2.07779 6.18365C1.45345 6.18365 0.883721 6.70674 0.883721 7.38832C0.883721 8.06665 1.40331 8.593 2.07779 8.593C2.75226 8.593 3.27186 8.06665 3.27186 7.38832C3.27186 6.70674 2.70212 6.18365 2.07779 6.18365Z" fill="#0B0913" stroke="#0B0913" stroke-width="0.232558"/>
<path d="M49.7348 7.88331C49.8667 7.88331 49.9886 7.81789 50.0751 7.73055C50.1617 7.64313 50.2259 7.52052 50.2259 7.38846C50.2259 7.2564 50.1617 7.13379 50.0751 7.04637C49.9886 6.95903 49.8667 6.89361 49.7348 6.89361C49.6028 6.89361 49.4809 6.95903 49.3944 7.04637C49.3079 7.13379 49.2436 7.2564 49.2436 7.38846C49.2436 7.52052 49.3079 7.64313 49.3944 7.73055C49.4809 7.81789 49.6028 7.88331 49.7348 7.88331Z" fill="#0B0913" stroke="#0B0913" stroke-width="0.232558"/>
<path d="M7.373 50.3781C7.43808 50.3781 7.50818 50.3616 7.56106 50.3082C7.61374 50.255 7.62986 50.1848 7.62986 50.1199C7.62986 50.0549 7.61374 49.9848 7.56106 49.9316C7.50818 49.8782 7.43808 49.8616 7.373 49.8616C7.30793 49.8616 7.23783 49.8782 7.18495 49.9316C7.13227 49.9848 7.11614 50.0549 7.11614 50.1199C7.11614 50.1848 7.13227 50.255 7.18494 50.3082C7.23783 50.3616 7.30793 50.3781 7.373 50.3781Z" fill="#0B0913" stroke="#0B0913" stroke-width="0.232558"/>
<path d="M44.4395 50.8513C44.8328 50.8513 45.165 50.5142 45.165 50.1198C45.165 49.7254 44.8328 49.3884 44.4395 49.3884C44.0462 49.3884 43.7141 49.7254 43.7141 50.1198C43.7141 50.5142 44.0462 50.8513 44.4395 50.8513Z" fill="#0B0913" stroke="#0B0913" stroke-width="0.232558"/>
<path d="M39.1443 50.3781C39.2094 50.3781 39.2795 50.3616 39.3324 50.3082C39.3851 50.255 39.4012 50.1848 39.4012 50.1199C39.4012 50.0549 39.3851 49.9848 39.3324 49.9316C39.2795 49.8782 39.2094 49.8616 39.1443 49.8616C39.0793 49.8616 39.0092 49.8782 38.9563 49.9316C38.9036 49.9848 38.8875 50.0549 38.8875 50.1199C38.8875 50.2099 38.9333 50.2763 38.9834 50.3168C39.0297 50.3542 39.09 50.3781 39.1443 50.3781Z" fill="#0B0913" stroke="#0B0913" stroke-width="0.232558"/>
<path d="M2.07778 50.4727C2.17484 50.4727 2.2646 50.4395 2.33027 50.3731C2.39584 50.3069 2.42836 50.2169 2.42836 50.1198C2.42836 50.0227 2.39584 49.9326 2.33027 49.8664C2.2646 49.8001 2.17484 49.7669 2.07778 49.7669C1.98072 49.7669 1.89096 49.8001 1.82529 49.8664C1.75971 49.9326 1.7272 50.0227 1.7272 50.1198C1.7272 50.2169 1.75971 50.3069 1.82529 50.3731C1.89096 50.4395 1.98072 50.4727 2.07778 50.4727Z" fill="#0B0913" stroke="#0B0913" stroke-width="0.232558"/>
<path d="M49.7348 48.9151C49.1104 48.9151 48.5407 49.4382 48.5407 50.1198C48.5407 50.7981 49.0603 51.3244 49.7348 51.3244C50.4092 51.3244 50.9288 50.7981 50.9288 50.1198C50.9288 49.4414 50.4092 48.9151 49.7348 48.9151Z" fill="#0B0913" stroke="#0B0913" stroke-width="0.232558"/>
<path d="M7.373 45.1253C7.47006 45.1253 7.55983 45.0921 7.6255 45.0257C7.69107 44.9595 7.72359 44.8694 7.72359 44.7724C7.72359 44.6753 7.69107 44.5852 7.6255 44.519C7.55983 44.4527 7.47006 44.4195 7.373 44.4195C7.27595 44.4195 7.18618 44.4527 7.12051 44.519C7.05494 44.5852 7.02242 44.6753 7.02242 44.7724C7.02242 44.8694 7.05494 44.9595 7.12051 45.0257C7.18618 45.0921 7.27595 45.1253 7.373 45.1253Z" fill="#0B0913" stroke="#0B0913" stroke-width="0.232558"/>
<path d="M12.6682 45.0307C12.7333 45.0307 12.8034 45.0142 12.8563 44.9608C12.909 44.9076 12.9251 44.8374 12.9251 44.7725C12.9251 44.7075 12.909 44.6374 12.8563 44.5842C12.8034 44.5308 12.7333 44.5142 12.6682 44.5142C12.6032 44.5142 12.5331 44.5308 12.4802 44.5842C12.4275 44.6374 12.4114 44.7075 12.4114 44.7725C12.4114 44.8374 12.4275 44.9076 12.4802 44.9608C12.5331 45.0142 12.6032 45.0307 12.6682 45.0307Z" fill="#0B0913" stroke="#0B0913" stroke-width="0.232558"/>
<path d="M33.8491 45.0307C33.9142 45.0307 33.9843 45.0142 34.0372 44.9608C34.0898 44.9076 34.106 44.8374 34.106 44.7725C34.106 44.7075 34.0898 44.6374 34.0372 44.5842C33.9843 44.5308 33.9142 44.5142 33.8491 44.5142C33.784 44.5142 33.7139 44.5308 33.661 44.5842C33.6084 44.6374 33.5922 44.7075 33.5922 44.7725C33.5922 44.8625 33.6381 44.9289 33.6882 44.9694C33.7345 45.0068 33.7947 45.0307 33.8491 45.0307Z" fill="#0B0913" stroke="#0B0913" stroke-width="0.232558"/>
<path d="M44.4396 45.977C45.114 45.977 45.6336 45.4507 45.6336 44.7724C45.6336 44.094 45.114 43.5677 44.4396 43.5677C43.7651 43.5677 43.2455 44.094 43.2455 44.7724C43.2455 45.4539 43.8152 45.977 44.4396 45.977Z" fill="#0B0913" stroke="#0B0913" stroke-width="0.232558"/>
<path d="M39.1443 45.5039C39.5377 45.5039 39.8698 45.1668 39.8698 44.7724C39.8698 44.378 39.5377 44.0409 39.1443 44.0409C38.751 44.0409 38.4189 44.378 38.4189 44.7724C38.4189 45.1668 38.751 45.5039 39.1443 45.5039Z" fill="#0B0913" stroke="#0B0913" stroke-width="0.232558"/>
<path d="M2.07778 45.2673C2.20972 45.2673 2.33164 45.2019 2.41813 45.1146C2.5047 45.0272 2.56894 44.9046 2.56894 44.7725C2.56894 44.6404 2.5047 44.5178 2.41813 44.4304C2.33164 44.3431 2.20972 44.2776 2.07778 44.2776C1.94584 44.2776 1.82392 44.3431 1.73742 44.4304C1.65086 44.5178 1.58662 44.6404 1.58662 44.7725C1.58662 44.9138 1.62902 45.0406 1.71985 45.1323C1.81083 45.2242 1.93699 45.2673 2.07778 45.2673Z" fill="#0B0913" stroke="#0B0913" stroke-width="0.232558"/>
<path d="M49.7348 45.977C50.3591 45.977 50.9288 45.4539 50.9288 44.7724C50.9288 44.094 50.4092 43.5677 49.7348 43.5677C49.0603 43.5677 48.5407 44.094 48.5407 44.7724C48.5407 45.4539 49.1104 45.977 49.7348 45.977Z" fill="#0B0913" stroke="#0B0913" stroke-width="0.232558"/>
<path d="M7.37301 2.81991C7.76632 2.81991 8.09847 2.48284 8.09847 2.08845C8.09847 1.69405 7.76632 1.35699 7.37301 1.35699C6.98567 1.35699 6.64755 1.64086 6.64755 2.08845C6.64755 2.48284 6.9797 2.81991 7.37301 2.81991Z" fill="#0B0913" stroke="#0B0913" stroke-width="0.232558"/>
<path d="M12.6682 2.34662C12.7333 2.34662 12.8034 2.33007 12.8563 2.27667C12.909 2.22347 12.9251 2.15334 12.9251 2.08838C12.9251 2.02342 12.909 1.95328 12.8563 1.90008C12.8034 1.84668 12.7333 1.83013 12.6682 1.83013C12.6032 1.83013 12.5331 1.84668 12.4802 1.90008C12.4275 1.95328 12.4114 2.02342 12.4114 2.08838C12.4114 2.14232 12.4347 2.20262 12.4716 2.24931C12.5115 2.29961 12.5777 2.34662 12.6682 2.34662Z" fill="#0B0913" stroke="#0B0913" stroke-width="0.232558"/>
<path d="M44.4396 2.34662C44.5046 2.34662 44.5747 2.33007 44.6276 2.27667C44.6803 2.22347 44.6964 2.15334 44.6964 2.08838C44.6964 2.02341 44.6803 1.95328 44.6276 1.90008C44.5747 1.84668 44.5046 1.83013 44.4396 1.83013C44.3745 1.83013 44.3044 1.84668 44.2515 1.90009C44.1988 1.95328 44.1827 2.02342 44.1827 2.08838C44.1827 2.13293 44.2024 2.17036 44.2152 2.19129C44.2303 2.21594 44.2495 2.23916 44.2691 2.25892C44.2886 2.27867 44.3117 2.29808 44.3362 2.31341C44.3569 2.32634 44.3945 2.34662 44.4396 2.34662Z" fill="#0B0913" stroke="#0B0913" stroke-width="0.232558"/>
<path d="M2.07779 3.24575C2.70212 3.24575 3.27186 2.72266 3.27186 2.04108C3.27186 1.35282 2.69511 0.883721 2.07779 0.883721C1.45345 0.883721 0.883721 1.40681 0.883721 2.0884C0.883721 2.7735 1.41024 3.24575 2.07779 3.24575Z" fill="#0B0913" stroke="#0B0913" stroke-width="0.232558"/>
<path d="M49.7348 2.4413C49.8318 2.4413 49.9216 2.40809 49.9873 2.34177C50.0528 2.27556 50.0854 2.18548 50.0854 2.08841C50.0854 1.99135 50.0528 1.90127 49.9873 1.83506C49.9216 1.76874 49.8318 1.73553 49.7348 1.73553C49.6377 1.73553 49.548 1.76874 49.4823 1.83506C49.4167 1.90127 49.3842 1.99135 49.3842 2.08841C49.3842 2.18548 49.4167 2.27556 49.4823 2.34177C49.548 2.40809 49.6377 2.4413 49.7348 2.4413Z" fill="#0B0913" stroke="#0B0913" stroke-width="0.232558"/>
</svg>
