<svg width="440" height="440" viewBox="0 0 32 32" fill="none" xmlns="http://www.w3.org/2000/svg">
<rect width="32" height="32" rx="16" fill="#120901"/>
<path d="M25.3966 15.4849C25.1272 15.4849 24.8577 15.5185 24.6219 15.6533C24.3188 15.8554 24.083 16.3269 24.083 16.7648C24.083 17.1353 24.4198 17.6069 24.7904 17.809C25.8345 18.3479 26.9461 17.1353 26.4071 16.1248C26.2387 15.7543 25.8008 15.5185 25.3966 15.4849Z" fill="#FF8500"/>
<path d="M16.9593 8.27688C17.3298 8.34425 17.8688 9.6242 17.9698 10.7021C18.0035 10.9378 17.9698 11.4431 17.9698 11.8136C17.9361 12.3862 17.8688 12.5546 17.6667 12.8241C17.2288 13.4641 16.4204 13.8683 15.3762 13.9356C15.0731 13.9693 14.5678 14.003 14.2984 14.003C13.8605 13.9693 13.8268 13.9693 13.8942 13.8009C13.9278 13.7335 14.0289 13.4977 14.0963 13.2956C14.5341 11.9483 15.5109 9.79262 16.0162 9.11896C16.353 8.61371 16.7572 8.2432 16.9593 8.27688ZM16.6225 5.34647C16.4541 5.34647 16.252 5.38015 15.9488 5.4812C15.5109 5.61593 15.1068 5.85171 14.7362 6.15486C14.1973 6.55905 14.1299 6.59274 14.0963 6.42432C14.0626 6.15486 13.6247 5.78435 13.2205 5.75066C12.8163 5.6833 12.3111 5.88539 12.109 6.18854C12.0079 6.32327 11.7385 6.76115 11.469 7.19903C10.9974 8.00742 10.829 8.58003 10.9974 8.91686C11.0985 9.11896 11.0648 9.35474 10.7616 10.8031C10.2227 13.4304 9.34696 18.8533 9.34696 19.8975C9.31328 22.2553 9.34696 24.4784 9.38064 24.9163C9.48169 25.5899 9.71747 26.0615 10.1554 26.3646C10.5932 26.6678 10.829 26.7351 11.3006 26.6004C11.7721 26.4994 12.0079 26.331 12.2774 25.9604C12.5805 25.5226 12.6479 25.051 12.6479 22.9963C12.6142 20.5038 12.951 16.5629 13.1531 16.3271C13.2205 16.2934 13.6584 16.2597 14.1636 16.3271C16.0499 16.4955 17.5993 16.1587 18.7782 15.2829C20.0582 14.3398 20.5971 13.262 20.6981 11.4431C20.7992 9.05159 20.0245 6.92957 18.6435 5.85171C18.2056 5.54856 18.0709 5.51488 17.3972 5.41383C17.0604 5.34647 16.8246 5.31278 16.6225 5.34647Z" fill="white"/>
</svg>
