<svg width="48" height="48" viewBox="0 0 48 48" fill="none" xmlns="http://www.w3.org/2000/svg">
<path d="M5.8196 8.29629C6.11768 7.92165 6.43352 7.56118 6.74936 7.2007C6.76352 7.18282 6.79556 7.17922 6.80972 7.16134C6.83816 7.1257 6.88436 7.10422 6.91268 7.06846L6.94111 7.03282C7.16131 6.8293 7.39555 6.60778 7.66567 6.41482C8.62134 5.68931 9.61314 5.13815 10.6589 4.77551C14.0133 3.59784 17.7472 4.3236 20.6753 7.0879C24.7638 10.9203 24.3976 17.0941 21.1339 21.1976C17.0096 27.315 9.92202 35.8497 19.7354 43.495C21.4999 44.8698 22.8088 46.0031 28.3668 47.6093C24.7318 48.2789 21.3613 48.0706 17.6096 47.1124C14.956 45.6146 10.7838 42.4075 9.36438 38.0759C7.21903 31.5074 13.1415 21.6878 16.0037 17.9059C19.9334 12.6719 13.5748 7.00594 8.89338 13.3315C6.44636 16.628 2.16527 25.9563 3.65302 32.8757C4.52289 36.7996 5.68232 39.6598 10.2795 43.5888C9.42702 43.0857 8.59914 42.5151 7.79611 41.8767C-2.88514 31.9271 -1.64593 16.5431 5.8196 8.29629Z" fill="url(#paint0_linear_4011_9865)"/>
<path d="M42.1805 39.7037C41.8825 40.0784 41.5666 40.4388 41.2508 40.7993C41.2366 40.8172 41.2046 40.8208 41.1904 40.8387C41.162 40.8743 41.1158 40.8958 41.0875 40.9315L41.059 40.9672C40.8388 41.1707 40.6046 41.3922 40.3345 41.5852C39.3788 42.3107 38.387 42.8619 37.3412 43.2245C33.9869 44.4022 30.253 43.6764 27.3249 40.9121C23.2364 37.0797 23.6025 30.9059 26.8662 26.8024C30.9905 20.685 38.0781 12.1503 28.2647 4.50496C26.5003 3.13025 25.1913 1.99686 19.6333 0.390667C23.2683 -0.278976 26.6389 -0.0706697 30.3904 0.887584C33.0442 2.38541 37.2163 5.59251 38.6358 9.92412C40.7811 16.4926 34.8587 26.3122 31.9965 30.0941C28.0667 35.3281 34.4254 40.9941 39.1068 34.6685C41.5538 31.3721 45.8349 22.0437 44.3471 15.1243C43.4773 11.2004 42.3178 8.34025 37.7207 4.41124C38.5731 4.91428 39.401 5.48487 40.204 6.12327C50.8853 16.0729 49.646 31.4569 42.1805 39.7037Z" fill="url(#paint1_linear_4011_9865)"/>
<defs>
<linearGradient id="paint0_linear_4011_9865" x1="3.41513e-06" y1="24" x2="47.9997" y2="24" gradientUnits="userSpaceOnUse">
<stop stop-color="#0082FA"/>
<stop offset="1" stop-color="#00F2FE"/>
</linearGradient>
<linearGradient id="paint1_linear_4011_9865" x1="0.000477091" y1="24" x2="48.0001" y2="24" gradientUnits="userSpaceOnUse">
<stop stop-color="#0082FA"/>
<stop offset="1" stop-color="#00F2FE"/>
</linearGradient>
</defs>
</svg>
