<svg width="138" height="138" viewBox="0 0 138 138" fill="none" xmlns="http://www.w3.org/2000/svg">
<path fill-rule="evenodd" clip-rule="evenodd" d="M46.2875 5.06475C46.2875 5.06475 39.617 7.9995 35.0399 11.3953C29.7441 15.3265 26.5364 19.7236 28.1976 18.4397C34.3837 13.6757 44.1681 4.94081 59.04 5.0003C63.4349 5.02013 55.2595 8.62909 60.1022 8.11352C69.7564 7.09231 79.6658 7.68719 88.8097 9.9527C90.9186 10.4732 83.9982 11.3308 86.1123 11.6382C96.0113 13.0659 101.77 14.8555 108.212 19.2378C111.701 21.6124 108.415 22.4601 108.415 22.4601C123.63 28.7956 121.771 36.6877 126.015 46.7908C131.019 64.7466 127.182 85.3153 124.823 95.1845C124.823 95.1845 130.091 88.0848 133 77.0069C133 88.0848 127.999 100.538 123.183 103.944C123.183 103.944 126.109 104.014 131.019 98.7885C132.373 97.3508 126.671 107.226 121.652 111.802C104.452 127.477 86.3415 132.92 67.8246 132.999C52.9007 133.069 37.5654 128.81 26.0105 121.394C4.14537 107.365 5.00456 81.6112 5.00456 81.6112C7.16556 87.9963 12.8987 94.7383 12.8987 94.7383C8.88915 80.7685 9.26928 80.4562 8.18097 66.2236C8.02475 64.1415 7.20722 64.905 6.55111 62.6692C5.47842 59.0057 5.33262 54.4995 5.88458 52.4818C6.06163 51.8473 7.66545 49.4083 7.64983 48.7242C7.59776 46.7363 7.34781 42.6415 7.57693 40.4454C8.77459 28.8848 18.2934 7.58804 46.2875 5.06475Z" fill="#3D31AC" style="fill:#3D31AC;fill:color(display-p3 0.2392 0.1922 0.6745);fill-opacity:1;"/>
<path fill-rule="evenodd" clip-rule="evenodd" d="M9.68965 54.8985C9.49698 56.5295 9.37721 59.8807 9.96042 60.3814C10.7103 61.0308 35.9185 48.687 72.9835 49.9858C110.049 51.2846 125.759 60.1236 126.238 60.3814C126.712 60.6441 124.452 49.5297 122.744 47.2543C121.036 44.9789 104.388 32.1443 80.2268 30.9793C53.7949 29.6953 30.7373 32.9771 11.1008 52.4645C10.3978 53.1635 9.81462 53.8724 9.68965 54.8985Z" fill="#9A92FD" style="fill:#9A92FD;fill:color(display-p3 0.6039 0.5725 0.9922);fill-opacity:1;"/>
<path fill-rule="evenodd" clip-rule="evenodd" d="M11.1763 43.8041C11.3793 34.0976 16.5189 23.712 23.9652 18.1796C23.9652 18.1796 19.4037 31.2422 26.8917 23.94C30.1983 20.7177 43.8724 9.3753 52.3811 7.87818C55.0107 7.41219 53.1934 8.3293 51.8916 10.109C50.6158 11.854 49.866 14.4715 51.5844 13.5196C58.359 9.77189 69.5337 9.84625 76.1 10.2478C80.1772 10.4957 79.9377 10.8873 76.7717 11.6011C72.3299 12.5976 68.6016 14.5359 69.2212 14.3723C76.0739 12.5678 99.043 16.3751 100.699 19.761C101.162 20.7128 93.388 22.8593 94.4294 22.8841C104.865 23.0923 114.982 26.612 119.565 35.1238C120.861 37.5331 122.012 43.5761 122.012 43.5761C98.9389 21.035 40.5034 20.3558 14.1079 45.44C11.0148 48.3798 11.0669 49.0639 11.1763 43.8041Z" fill="#9A92FD" style="fill:#9A92FD;fill:color(display-p3 0.6039 0.5725 0.9922);fill-opacity:1;"/>
<path fill-rule="evenodd" clip-rule="evenodd" d="M32.9083 57.4641C36.72 56.4627 41.4117 55.4118 44.3069 55.4118C49.837 55.4118 52.0188 57.8161 54.1382 57.6228C56.2523 57.4294 61.3033 54.2418 63.2144 54.2418C65.1254 54.2418 64.1725 55.6101 65.6045 55.6101C67.0365 55.6101 72.7019 53.8552 75.3628 53.5924C77.0187 53.4338 73.5038 55.8332 70.6034 57.6723C66.1617 60.4931 63.7976 59.7048 58.2831 59.7148L35.4546 59.7842C25.9462 59.804 23.7331 59.8784 32.9083 57.4641Z" fill="#9A92FD" style="fill:#9A92FD;fill:color(display-p3 0.6039 0.5725 0.9922);fill-opacity:1;"/>
<path fill-rule="evenodd" clip-rule="evenodd" d="M76.4052 57.7554C76.4052 57.7554 80.7897 55.3065 82.7008 54.657C84.6118 54.0076 86.049 54.657 89.3921 55.1082C92.7351 55.5642 92.7038 55.2965 98.9109 56.0104C105.123 56.7243 112.835 59.9069 107.477 59.9069C102.119 59.9069 90.3137 59.659 79.5973 59.659C77.228 59.659 72.4113 59.3864 76.4052 57.7554Z" fill="#9A92FD" style="fill:#9A92FD;fill:color(display-p3 0.6039 0.5725 0.9922);fill-opacity:1;"/>
<path fill-rule="evenodd" clip-rule="evenodd" d="M116.06 60.1333C118.049 60.8571 120.565 61.5858 122.554 62.3096C125.839 63.5093 125.225 62.8747 125.235 66.2904C125.267 76.096 125.293 84.5632 121.976 94.7456C106.817 141.251 18.2165 143.035 11.8741 77.3403C11.3637 72.0359 11.0617 69.4879 10.8899 67.4653C10.5618 63.6679 11.9678 63.0879 15.5972 62.1014L20.9398 60.8274C23.2987 60.2622 22.8561 62.6467 22.8301 65.636C22.778 71.8525 22.3875 83.9336 22.3875 84.2905C22.3875 84.7466 20.2681 78.1831 20.2681 78.1831C19.8619 108.77 39.764 123.771 70.9188 124.128C83.3537 124.267 97.4913 117.495 106.479 107.605C116.524 96.5451 115.264 89.9716 115.967 76.6859L113.441 85.0044C113.306 77.9054 113.17 69.5573 113.03 62.4534C112.957 58.4577 112.243 58.7353 116.06 60.1333Z" fill="#9A92FD" style="fill:#9A92FD;fill:color(display-p3 0.6039 0.5725 0.9922);fill-opacity:1;"/>
<path fill-rule="evenodd" clip-rule="evenodd" d="M33.5625 63.0859C33.5625 63.0859 49.3977 74.3937 69.8777 73.4815C90.3525 72.5694 101.413 63.0859 101.413 63.0859H33.5625Z" fill="#9A92FD" style="fill:#9A92FD;fill:color(display-p3 0.6039 0.5725 0.9922);fill-opacity:1;"/>
<path fill-rule="evenodd" clip-rule="evenodd" d="M38.4451 70.0312C38.4451 70.0312 29.3689 70.9434 31.28 80.0401C32.8265 87.4167 39.8875 89.8954 45.8967 88.4776C56.1237 86.0633 56.5819 78.8058 55.3738 78.2208L38.4451 70.0312Z" fill="#DAD7F7" style="fill:#DAD7F7;fill:color(display-p3 0.8549 0.8431 0.9686);fill-opacity:1;"/>
<path fill-rule="evenodd" clip-rule="evenodd" d="M98.243 70.0312C98.243 70.0312 107.319 70.9434 105.408 80.0401C103.862 87.4167 96.8006 89.8954 90.7915 88.4776C80.5645 86.0633 80.1063 78.8058 81.3143 78.2208L98.243 70.0312Z" fill="#DAD7F7" style="fill:#DAD7F7;fill:color(display-p3 0.8549 0.8431 0.9686);fill-opacity:1;"/>
<path fill-rule="evenodd" clip-rule="evenodd" d="M27.875 89.96C27.875 89.96 37.8364 95.0264 45.2776 94.7686C52.7187 94.5059 59.988 91.3976 69.3402 91.3332C78.6871 91.2687 82.8217 94.7041 90.4659 94.7041C98.1101 94.7041 108.144 90.6738 108.144 90.6738C104.166 97.5745 93.9339 99.3244 85.0035 97.6934C85.0035 97.6934 95.996 101.069 101.932 99.9639C107.874 98.8634 108.623 97.4307 108.623 97.4307C108.623 97.4307 98.3809 122.123 68.9652 121.603C55.6035 121.37 46.4908 117.592 40.4869 113.458C33.6446 108.748 30.9629 104.797 28.3489 97.6934C33.4728 101.55 44.3819 101.431 49.8495 98.6006C41.7575 100.965 29.8329 98.3676 27.875 89.96Z" fill="#9A92FD" style="fill:#9A92FD;fill:color(display-p3 0.6039 0.5725 0.9922);fill-opacity:1;"/>
<path fill-rule="evenodd" clip-rule="evenodd" d="M42.8653 16.8134C38.1892 19.7928 32.6175 23.3373 26.1345 28.954C21.8542 32.667 20.9794 32.7315 24.9837 27.6948C26.8844 25.3054 29.3317 23.03 32.0291 21.0371C35.2159 18.6873 38.7568 16.7341 42.1728 15.47C47.1509 13.6258 46.6822 14.3893 42.8653 16.8134Z" fill="#DAD7F7" style="fill:#DAD7F7;fill:color(display-p3 0.8549 0.8431 0.9686);fill-opacity:1;"/>
<path fill-rule="evenodd" clip-rule="evenodd" d="M34.4543 41.6431C38.2973 38.4952 43.39 36.3388 48.6753 35.2432C54.2418 34.0881 60.0375 34.1079 64.8281 35.3622C65.1041 35.4316 65.2655 35.7042 65.1874 35.962C65.1353 36.1504 64.9739 36.2842 64.7812 36.314V36.3189C63.8387 36.4776 62.6046 36.6759 61.2508 36.889C52.8984 38.2275 39.9063 40.3046 34.2929 43.2344C34.043 43.3633 33.7305 43.2741 33.5952 43.0361C33.4858 42.8527 33.5223 42.6247 33.6629 42.476L34.3814 41.7125C34.4023 41.6877 34.4283 41.6629 34.4543 41.6431Z" fill="#DAD7F7" style="fill:#DAD7F7;fill:color(display-p3 0.8549 0.8431 0.9686);fill-opacity:1;"/>
<path fill-rule="evenodd" clip-rule="evenodd" d="M52.125 68.926C55.692 70.5916 60.1441 71.5881 63.5445 71.7616C66.0595 71.8905 67.9966 71.8706 68.6684 71.3402C71.1158 69.382 52.3073 68.8219 52.125 68.926Z" fill="#DAD7F7" style="fill:#DAD7F7;fill:color(display-p3 0.8549 0.8431 0.9686);fill-opacity:1;"/>
<path fill-rule="evenodd" clip-rule="evenodd" d="M122.03 83.197C123.405 79.0427 123.983 73.9912 123.811 70.2087C123.686 67.4028 123.467 65.2613 122.842 64.5871C120.546 62.1084 121.9 83.0036 122.03 83.197Z" fill="#DAD7F7" style="fill:#DAD7F7;fill:color(display-p3 0.8549 0.8431 0.9686);fill-opacity:1;"/>
<path fill-rule="evenodd" clip-rule="evenodd" d="M23.3461 112.672C21.9922 111.19 12.2859 99.8026 9.76562 95.8516C11.4788 103.307 17.2901 110.867 22.8462 114.278C27.064 116.871 24.8301 114.298 23.3461 112.672Z" fill="#9A92FD" style="fill:#9A92FD;fill:color(display-p3 0.6039 0.5725 0.9922);fill-opacity:1;"/>
<path fill-rule="evenodd" clip-rule="evenodd" d="M112.047 116.043C114.63 113.197 117.03 110.649 119.15 107.477L122.878 107.526L112.047 116.043Z" fill="#9A92FD" style="fill:#9A92FD;fill:color(display-p3 0.6039 0.5725 0.9922);fill-opacity:1;"/>
<path fill-rule="evenodd" clip-rule="evenodd" d="M122.016 102.123C123.489 99.996 124.427 97.5718 124.427 97.5718C124.427 97.5718 127.672 95.5058 130.089 88.0859C130.089 93.6249 124.01 101.493 122.016 102.123Z" fill="#9A92FD" style="fill:#9A92FD;fill:color(display-p3 0.6039 0.5725 0.9922);fill-opacity:1;"/>
<path fill-rule="evenodd" clip-rule="evenodd" d="M69.8571 24.0453C65.0404 24.3874 59.3021 24.7988 51.9651 26.3951C47.1224 27.451 46.4402 27.1486 51.6683 24.9922C54.1469 23.9709 56.9849 23.2521 59.8853 22.8456C63.3064 22.3697 66.8213 22.3301 69.9352 22.7564C74.4707 23.381 73.7834 23.7627 69.8571 24.0453Z" fill="#DAD7F7" style="fill:#DAD7F7;fill:color(display-p3 0.8549 0.8431 0.9686);fill-opacity:1;"/>
</svg>
