<?xml version="1.0" encoding="utf-8"?>
<!-- Generator: Adobe Illustrator 27.4.0, SVG Export Plug-In . SVG Version: 6.00 Build 0)  -->
<svg version="1.1" id="Layer_1" xmlns="http://www.w3.org/2000/svg" xmlns:xlink="http://www.w3.org/1999/xlink" x="0px" y="0px"
	 viewBox="0 0 1080 1080" style="enable-background:new 0 0 1080 1080;" xml:space="preserve">
<style type="text/css">
	.st0{fill:#FFFFFF;}
	.st1{opacity:0.5;}
	.st2{fill:url(#SVGID_1_);}
	.st3{fill:url(#SVGID_00000165934777454966582090000006839334918651762058_);}
	.st4{fill:url(#SVGID_00000160190860127448345040000003462506577469152674_);}
</style>
<g>
	<path class="st0" d="M684.6,487.1C657.1,403,578,342.2,484.8,342.2c-112.4,0-204.3,88.3-209.9,199.4
		c5.7-139,120.1-249.9,260.4-249.9c109.1,0,202.5,67,241.4,162L684.6,487.1"/>
	<path class="st0" d="M684.6,617.7C657.1,701.9,578,762.6,484.8,762.6c-112.4,0-204.3-88.3-209.9-199.4
		c5.7,139,120.1,249.9,260.4,249.9c107.5,0,199.8-65.1,239.7-157.9L684.6,617.7z"/>
	<path class="st0" d="M484.8,762.6c93.3,0,172.3-60.8,199.8-144.9c-25.2,57.5-82.5,97.6-149.3,97.6c-90,0-163-72.9-163-163
		s72.9-163,163-163c66.8,0,124.1,40.2,149.3,97.7C657.1,402.9,578,342.2,484.8,342.2c-112.4,0-204.3,88.3-209.9,199.4
		c-0.2,3.6-0.3,7.2-0.3,10.8s0.1,7.2,0.3,10.8C280.5,674.3,372.3,762.6,484.8,762.6L484.8,762.6z"/>
	<path class="st0" d="M233.9,882.1l-197-341.3l251.9-436.3h463.5c7.5,21.4,27.9,36.9,51.8,36.9c30.3,0,54.9-24.6,54.9-54.9
		S834.2,31.6,804,31.6c-25.7,0-47.1,17.7-53.1,41.5H270.6L0.6,540.8l206.1,357c2.9,5,8.2,7.8,13.6,7.8c2.7,0,5.3-0.7,7.8-2.1
		C235.6,899.2,238.2,889.6,233.9,882.1L233.9,882.1z M803.9,63c13,0,23.5,10.6,23.5,23.5S816.9,110,803.9,110s-23.5-10.6-23.5-23.5
		S791,63,803.9,63z"/>
	<path class="st0" d="M1080.6,540.8l-207-358.5c-4.3-7.5-13.9-10.1-21.4-5.7c-7.5,4.3-10.1,13.9-5.7,21.4l197.9,342.8L792.5,977.1
		H334.6c-6-23.8-27.5-41.5-53.1-41.5c-30.3,0-54.9,24.6-54.9,54.9s24.6,54.9,54.9,54.9c23.9,0,44.3-15.5,51.8-36.9h477.4
		L1080.6,540.8L1080.6,540.8z M281.4,1014c-13,0-23.5-10.6-23.5-23.5c0-13,10.6-23.5,23.5-23.5s22.8,9.9,23.4,22.4
		c-0.3,1.1-0.4,2.2-0.4,3.4c0,0.5,0.1,0.9,0.2,1.4C302.8,1005.4,293.1,1014,281.4,1014z"/>
</g>
<g class="st1">
	
		<linearGradient id="SVGID_1_" gradientUnits="userSpaceOnUse" x1="274.8263" y1="663.3483" x2="776.6561" y2="663.3483" gradientTransform="matrix(1 0 0 -1 0 1080)">
		<stop  offset="0" style="stop-color:#000000;stop-opacity:0"/>
		<stop  offset="0.5" style="stop-color:#000000;stop-opacity:0.5"/>
		<stop  offset="1" style="stop-color:#000000"/>
	</linearGradient>
	<path class="st2" d="M684.6,487.1C657.1,403,578,342.2,484.8,342.2c-112.4,0-204.3,88.3-209.9,199.4
		c5.7-139,120.1-249.9,260.4-249.9c109.1,0,202.5,67,241.4,162L684.6,487.1"/>
	
		<linearGradient id="SVGID_00000021830634312217600070000003753914250315854247_" gradientUnits="userSpaceOnUse" x1="274.8263" y1="391.7939" x2="774.9318" y2="391.7939" gradientTransform="matrix(1 0 0 -1 0 1080)">
		<stop  offset="0" style="stop-color:#000000;stop-opacity:0"/>
		<stop  offset="0.5" style="stop-color:#000000;stop-opacity:0.5"/>
		<stop  offset="1" style="stop-color:#000000"/>
	</linearGradient>
	<path style="fill:url(#SVGID_00000021830634312217600070000003753914250315854247_);" d="M684.6,617.7
		C657.1,701.9,578,762.6,484.8,762.6c-112.4,0-204.3-88.3-209.9-199.4c5.7,139,120.1,249.9,260.4,249.9
		c107.5,0,199.8-65.1,239.7-157.9L684.6,617.7z"/>
	
		<linearGradient id="SVGID_00000103950359700998004900000003532890597439770268_" gradientUnits="userSpaceOnUse" x1="479.5765" y1="799.2823" x2="479.5765" y2="296.7733" gradientTransform="matrix(1 0 0 -1 0 1080)">
		<stop  offset="0" style="stop-color:#000000"/>
		<stop  offset="0.5" style="stop-color:#000000;stop-opacity:0.5"/>
		<stop  offset="1" style="stop-color:#000000;stop-opacity:0"/>
	</linearGradient>
	<path style="fill:url(#SVGID_00000103950359700998004900000003532890597439770268_);" d="M484.8,762.6
		c93.3,0,172.3-60.8,199.8-144.9c-25.2,57.5-82.5,97.6-149.3,97.6c-90,0-163-72.9-163-163s72.9-163,163-163
		c66.8,0,124.1,40.2,149.3,97.7C657.1,402.9,578,342.2,484.8,342.2c-112.4,0-204.3,88.3-209.9,199.4c-0.2,3.6-0.3,7.2-0.3,10.8
		s0.1,7.2,0.3,10.8C280.5,674.3,372.3,762.6,484.8,762.6L484.8,762.6z"/>
	<path d="M233.9,882.1l-197-341.3l251.9-436.3h463.5c7.5,21.4,27.9,36.9,51.8,36.9c30.3,0,54.9-24.6,54.9-54.9S834.2,31.6,804,31.6
		c-25.7,0-47.1,17.7-53.1,41.5H270.6L0.6,540.8l206.1,357c2.9,5,8.2,7.8,13.6,7.8c2.7,0,5.3-0.7,7.8-2.1
		C235.6,899.2,238.2,889.6,233.9,882.1L233.9,882.1z M803.9,63c13,0,23.5,10.6,23.5,23.5S816.9,110,803.9,110s-23.5-10.6-23.5-23.5
		S791,63,803.9,63z"/>
	<path d="M1080.6,540.8l-207-358.5c-4.3-7.5-13.9-10.1-21.4-5.7c-7.5,4.3-10.1,13.9-5.7,21.4l197.9,342.8L792.5,977.1H334.6
		c-6-23.8-27.5-41.5-53.1-41.5c-30.3,0-54.9,24.6-54.9,54.9s24.6,54.9,54.9,54.9c23.9,0,44.3-15.5,51.8-36.9h477.4L1080.6,540.8
		L1080.6,540.8z M281.4,1014c-13,0-23.5-10.6-23.5-23.5c0-13,10.6-23.5,23.5-23.5s22.8,9.9,23.4,22.4c-0.3,1.1-0.4,2.2-0.4,3.4
		c0,0.5,0.1,0.9,0.2,1.4C302.8,1005.4,293.1,1014,281.4,1014z"/>
</g>
</svg>
