<svg
  maxHeight='100%'
  maxWidth='100%'
  width="200"
  height="200"
  viewBox="0 0 200 200"
  fill="none"
  xmlns="http://www.w3.org/2000/svg"
>
  <circle cx="100" cy="100" r="100" fill="#6FBCEF" />
  <mask
    id="mask0_309_9859"
    maskUnits="userSpaceOnUse"
    x="0"
    y="0"
    width="200"
    height="200"
  >
    <path
      d="M200 100C200 155.228 155.228 200 100 200C44.7715 200 0 155.228 0 100C0 44.7715 44.7715 0 100 0C155.228 0 200 44.7715 200 100Z"
      fill="#8DCBF5"
    />
  </mask>
  <g mask="url(#mask0_309_9859)">
    <path
      d="M113 -4L174 19L196 63.5C196 63.5 169.5 40.5 138.5 24.5C107.5 8.5 58.5 4 58.5 4L113 -4Z"
      fill="#7AC1F2"
    />
    <path
      d="M15.8341 34.0023C15.8341 34.0023 72.9887 50.5017 103.494 64.5009C134 78.5001 144.388 89.0206 163.495 112.001C175.611 126.574 189.379 153.053 189.379 153.053L165.999 179.499C165.999 179.499 158.272 146.022 145.999 128.499C129.42 104.828 107.493 94.0004 86.4965 84.5002C65.5 75 -0.00518256 57.0917 -0.00518256 57.0917L15.8341 34.0023Z"
      fill="#7AC1F2"
    />
    <path
      d="M2.49892 130.498L-1.50005 100.5C-1.50005 100.5 45.5 117.5 75.5 138.5C105.5 159.5 123.499 199.998 123.499 199.998L89.9989 201.498C89.9989 201.498 86.5 192 62.5 165.5C38.5 139 2.49892 130.498 2.49892 130.498Z"
      fill="#7AC1F2"
    />
  </g>
  <path
    fillRule="evenodd"
    clipRule="evenodd"
    d="M45.4743 158.743C56.7736 178.317 77.0124 190 99.6108 190C122.209 190 142.444 178.317 153.747 158.743C165.047 139.175 165.047 115.807 153.747 96.2343L106.133 13.7657C103.234 8.74477 95.9873 8.74478 93.0885 13.7657L45.4743 96.2343C34.1752 115.803 34.1752 139.17 45.4743 158.743ZM86.1978 52.9996L96.3497 35.416C97.799 32.9054 101.423 32.9054 102.872 35.416L141.927 103.062C149.102 115.489 150.448 129.872 145.967 143.034C145.501 140.887 144.848 138.69 143.969 136.47C138.575 122.856 126.377 112.351 107.708 105.244C94.8728 100.375 86.6799 93.2146 83.3509 83.96C79.063 72.0315 83.5416 59.0237 86.1978 52.9996ZM68.8873 82.9829L57.2949 103.062C48.4619 118.361 48.4619 136.624 57.2949 151.924C66.128 167.222 81.9447 176.352 99.6108 176.352C111.344 176.352 122.265 172.321 130.864 165.131C131.986 162.307 135.458 151.973 131.168 141.32C127.205 131.484 117.669 123.632 102.821 117.976C86.0386 111.61 75.1351 101.671 70.4201 88.4448C69.7707 86.6237 69.2662 84.7988 68.8873 82.9829Z"
    fill="white"
  />
</svg>