<svg width="1001" height="213" viewBox="0 0 1001 213" fill="none" xmlns="http://www.w3.org/2000/svg">
<path d="M80.7067 58.1386V69.0225L70.605 73.0386L47.1188 82.3562C46.9179 82.4323 46.7658 82.6351 46.7658 82.8614V139.885L36.6641 143.901V82.8614C36.6641 78.4688 39.3168 74.5795 43.3816 72.9625L70.605 62.1547L80.7067 58.1386Z" fill="#7EE900"/>
<path d="M112.703 50.4116C109.773 48.4163 106.061 48.0125 102.779 49.3252L80.7067 58.1396V68.9981L106.516 58.7208C106.592 58.6701 106.795 58.6194 107.021 58.7715C107.273 58.9217 107.273 59.1499 107.273 59.226V202.263C107.273 202.339 107.273 202.567 107.021 202.718C106.769 202.895 106.592 202.794 106.516 202.768L47.1188 178.525C46.9179 178.449 46.7658 178.246 46.7658 178.02V150.771L36.6641 154.786V178.02C36.6641 182.364 39.2641 186.228 43.2802 187.868L102.703 212.137C103.99 212.667 105.353 212.921 106.719 212.921C108.814 212.921 110.885 212.314 112.652 211.103C115.607 209.133 117.374 205.825 117.374 202.263V59.226C117.374 55.6897 115.633 52.3816 112.703 50.4116Z" fill="#7EE900"/>
<path d="M74.0708 25.0575L14.6737 0.789157C11.391 -0.550846 7.65381 -0.170499 4.72414 1.82488C1.76911 3.79295 0 7.10103 0 10.6627V153.702C0 157.236 1.74376 160.544 4.67343 162.514C6.46595 163.727 8.53739 164.357 10.6576 164.357C11.9703 164.357 13.3103 164.106 14.5976 163.6L36.6697 154.786V143.928L10.8605 154.207C10.7844 154.256 10.5815 154.332 10.3299 154.156C10.1017 154.004 10.1017 153.776 10.1017 153.702V10.6627C10.1017 10.5866 10.1017 10.3603 10.3553 10.2082C10.4567 10.1321 10.5562 10.1068 10.6323 10.1068C10.7337 10.1068 10.8097 10.1321 10.8605 10.1575L70.2575 34.4024C70.4584 34.4765 70.6106 34.6793 70.6106 34.9056V62.1562L80.7123 58.1401V34.9056C80.7123 30.5638 78.1103 26.6998 74.0708 25.0575Z" fill="#7EE900"/>
<path d="M80.7067 69.025V130.064C80.7067 134.457 78.054 138.346 73.9637 139.963L46.7658 150.771L36.6641 154.787V143.903L46.7658 139.887L70.2519 130.57C70.4528 130.493 70.605 130.291 70.605 130.064V73.0411L80.7067 69.025Z" fill="#7EE900"/>
<path d="M173.949 51.2345C173.949 48.9797 175.777 47.1502 178.034 47.1502H257.141V64.0845H191.379V98.1132H252.703V115.048H191.379V151.875H259.604V168.81H178.055C175.789 168.81 173.949 166.97 173.949 164.702V51.2345Z" fill="#7EE900"/>
<path d="M271.996 77.7255H286.789L288.107 94.4999C294.846 81.6753 305.865 75.5896 320.825 75.5896C342.692 75.5896 356.828 89.2374 356.828 116.527V168.809H340.053V116.527C340.053 100.088 331.346 92.1963 316.386 92.1963C298.463 92.1963 288.763 103.375 288.763 122.938V168.809H271.996V77.7255Z" fill="#7EE900"/>
<path d="M377.929 137.738V93.5084H364.121V82.0023L377.929 77.7248L382.039 57.8335H394.863V77.7248H425.933V93.5084H394.863V137.57C394.863 149.74 399.468 154.673 410.974 154.673C416.075 154.673 420.017 154.009 424.294 152.203V167.329C420.672 169.465 413.444 170.784 407.688 170.784C389.93 170.784 377.929 161.084 377.929 137.738Z" fill="#7EE900"/>
<path d="M436.648 77.7255H451.113L452.432 94.4999C459.171 80.3567 469.526 75.5896 481.696 75.5896C483.664 75.5896 487.284 76.0851 489.747 76.9082V94.6598C485.148 93.3471 480.543 93.1813 478.569 93.1813C462.62 93.1813 453.415 105.349 453.415 123.434V168.809H436.648V77.7255Z" fill="#7EE900"/>
<path d="M565.244 77.7269H582.179V158.784C582.179 185.577 570.667 203.662 534.167 203.662C526.283 203.662 517.568 202.183 512.795 200.209V184.426C519.702 186.895 526.443 187.718 534.167 187.718C558.008 187.718 565.244 175.719 565.244 158.784V148.751C560.144 159.112 549.789 164.533 534.99 164.533C511.812 164.533 499.811 149.902 499.811 123.925V77.7269H516.577V121.789C516.577 139.708 524.469 148.423 540.418 148.423C556.697 148.423 565.244 136.917 565.244 120.149V77.7269Z" fill="#7EE900"/>
<path d="M781.387 123.267C781.387 104.365 772.505 92.1976 751.796 92.1976C730.912 92.1976 722.197 104.365 722.197 123.267C722.197 142.176 730.912 154.505 751.796 154.505C772.505 154.505 781.387 142.176 781.387 123.267ZM704.447 123.267C704.447 94.9868 720.229 75.7587 751.796 75.7587C783.361 75.7587 799.145 94.9868 799.145 123.267C799.145 151.546 783.361 170.784 751.796 170.784C720.229 170.784 704.447 151.546 704.447 123.267Z" fill="#7EE900"/>
<path d="M811.525 77.7255H828.292V168.809H811.525V77.7255Z" fill="#7EE900"/>
<path d="M846.076 77.7255H860.869L862.187 94.4999C868.926 81.6753 879.937 75.5896 894.903 75.5896C916.765 75.5896 930.908 89.2374 930.908 116.527V168.809H914.141V116.527C914.141 100.088 905.426 92.1963 890.46 92.1963C872.541 92.1963 862.843 103.375 862.843 122.938V168.809H846.076V77.7255Z" fill="#7EE900"/>
<path d="M951.997 137.738V93.5084H938.189V82.0023L951.997 77.7248L956.107 57.8335H968.932V77.7248H1000V93.5084H968.932V137.57C968.932 149.74 973.537 154.673 985.043 154.673C990.143 154.673 994.085 154.009 998.363 152.203V167.329C994.741 169.465 987.512 170.784 981.756 170.784C963.999 170.784 951.997 161.084 951.997 137.738Z" fill="#7EE900"/>
<path d="M652.892 105.914C667.859 105.914 678.986 102.292 678.986 85.0301C678.986 67.2804 667.976 64.0855 653.009 64.0855H618.981V105.914H652.892ZM601.551 51.2297C601.551 48.9768 603.376 47.1511 605.629 47.1511H654.16C678.001 47.1511 697.239 55.8914 697.239 84.9892C697.239 113.595 678.58 122.849 654.739 122.849H618.981V168.809H601.551V51.2297Z" fill="#7EE900"/>
<path d="M830.885 58.5861L819.935 64.74L808.969 58.5588L808.951 46.2199L819.901 40.066L830.867 46.2491L830.885 58.5861Z" fill="#7EE900"/>
</svg>
