<svg width="250" height="250" viewBox="0 0 250 250" fill="none" xmlns="http://www.w3.org/2000/svg">
<g clip-path="url(#clip0_1314_2)">
<path d="M250 125C250 55.9644 194.036 0 125 0C55.9644 0 0 55.9644 0 125C0 194.036 55.9644 250 125 250C194.036 250 250 194.036 250 125Z" fill="#F6F7FC"/>
<path fill-rule="evenodd" clip-rule="evenodd" d="M171.94 111.534C171.94 137.913 150.593 159.299 124.259 159.299C97.9261 159.299 76.5786 137.913 76.5786 111.534C76.5786 71.0675 123.081 20.834 124.259 20.834C125.438 20.834 171.94 71.0675 171.94 111.534ZM152.649 111.538C152.649 127.248 139.936 139.982 124.254 139.982C108.573 139.982 95.8599 127.248 95.8599 111.538C95.8599 95.9754 108.335 83.3321 123.814 83.0969V112.414C123.814 112.414 141.802 105.196 150.589 100.883C151.918 104.174 152.649 107.77 152.649 111.538Z" fill="url(#paint0_linear_1314_2)"/>
<path d="M113.547 187.512L190.774 179.23C191.673 187.685 191.46 196.243 190.133 204.648L113.229 199.875C113.878 195.778 113.988 191.623 113.547 187.512Z" fill="url(#paint1_linear_1314_2)"/>
<path d="M133.799 164.912L57.6489 180.223C59.3233 188.557 62.0892 196.657 65.8729 204.277L137.804 176.61C135.958 172.898 134.609 168.966 133.799 164.912Z" fill="url(#paint2_linear_1314_2)"/>
</g>
<defs>
<linearGradient id="paint0_linear_1314_2" x1="123.703" y1="23.7061" x2="124.778" y2="158.48" gradientUnits="userSpaceOnUse">
<stop stop-color="#FF05FF"/>
<stop offset="0.56" stop-color="#8323FF"/>
<stop offset="0.76" stop-color="#8F00FF"/>
<stop offset="0.985" stop-color="#4E68FF"/>
</linearGradient>
<linearGradient id="paint1_linear_1314_2" x1="206.615" y1="177.083" x2="128.463" y2="199.301" gradientUnits="userSpaceOnUse">
<stop stop-color="#DFB6FF"/>
<stop offset="0.49109" stop-color="#8F00FF"/>
<stop offset="0.995" stop-color="#5263FF"/>
</linearGradient>
<linearGradient id="paint2_linear_1314_2" x1="128.502" y1="177.08" x2="42.9512" y2="184.669" gradientUnits="userSpaceOnUse">
<stop offset="0.015" stop-color="#5066FF"/>
<stop offset="0.538411" stop-color="#8F00FF"/>
<stop offset="1" stop-color="#DFB6FF"/>
</linearGradient>
<clipPath id="clip0_1314_2">
<rect width="250" height="250" fill="white"/>
</clipPath>
</defs>
</svg>
