<svg width="24" height="24" viewBox="0 0 24 24" fill="none" xmlns="http://www.w3.org/2000/svg">
<g clip-path="url(#clip0_2124_6348)">
<path d="M12.0057 24C18.6348 24 24 18.6233 24 12.0058C24 5.37677 18.6348 3.05176e-05 12.0057 3.05176e-05C5.37674 3.05176e-05 0 5.37677 0 12.0058C0 18.6348 5.37674 24 12.0057 24Z" fill="#1A1A1A"/>
<path d="M19.6336 21.2775C17.8029 22.7885 15.559 23.7176 13.1932 23.9428C10.0293 24.2525 6.86547 23.2953 4.39634 21.2775C1.9366 19.2598 0.378143 16.3504 0.0589404 13.1783C-0.175767 10.8133 0.293648 8.43895 1.41086 6.34612C2.52807 4.25328 4.24613 2.53584 6.33972 1.41904C8.43332 0.30223 10.8086 -0.176401 13.1744 0.0582224C15.5403 0.292845 17.7747 1.21257 19.6148 2.72354L17.1926 5.67979C15.944 4.65683 14.4137 4.01866 12.7989 3.8685C11.1841 3.70896 9.5693 4.03743 8.14228 4.79761C6.71526 5.55778 5.5511 6.7309 4.78126 8.15741C4.02081 9.58391 3.70161 11.2075 3.86121 12.8123C4.07714 14.9709 5.13802 16.9605 6.81853 18.3307C8.49903 19.7102 10.6583 20.3578 12.8177 20.1419C14.4324 19.9824 15.9534 19.3442 17.202 18.3213L19.6336 21.2775Z" fill="#27D3A2"/>
<path d="M12.0048 22C17.529 22 22 17.5194 22 12.0048C22 6.48064 17.529 2.00003 12.0048 2.00003C6.48061 2.00003 2 6.48064 2 12.0048C2 17.529 6.48061 22 12.0048 22Z" fill="black"/>
<path d="M5.76377 15.1746L5.65484 14.9668H7.48769L7.53237 15.0309C8.11554 15.8829 8.93016 16.5503 9.88018 16.9546C10.8302 17.3589 11.876 17.4831 12.8943 17.3126C15.6435 16.8446 17.5872 14.3396 17.3682 11.5666L14.0941 11.5607L15.0492 14.2638L13.8803 15.8717L11.7811 9.91982L18.6882 9.93149L18.7148 10.0345C18.7949 10.2973 18.8574 10.5652 18.902 10.8364C18.9682 11.2225 19.0007 11.6137 18.999 12.0054C18.999 15.3533 16.583 18.3262 13.169 18.903C12.7767 18.9655 12.3802 18.9979 11.9829 19.0001C10.6936 19.0014 9.42931 18.6443 8.33112 17.9688C7.23293 17.2933 6.34407 16.3259 5.76377 15.1746ZM6.9387 14.056H5.30195L5.27273 13.953C5.19846 13.6936 5.1408 13.4296 5.10011 13.1628C4.455 9.36054 7.02645 5.74285 10.8304 5.10198C12.298 4.84829 13.8082 5.07112 15.14 5.73784C16.4717 6.40457 17.5551 7.48016 18.2313 8.80711L18.3404 9.01493H16.4965L16.4493 8.95082C15.8673 8.10006 15.0539 7.43366 14.1053 7.03037C13.1567 6.62709 12.1124 6.50376 11.0959 6.67497C8.34654 7.14292 6.3969 9.64796 6.61591 12.4152L9.90195 12.421L8.9443 9.71785L10.1211 8.11004L12.215 14.0619L6.9387 14.056Z" fill="url(#paint0_linear_2124_6348)"/>
</g>
<defs>
<linearGradient id="paint0_linear_2124_6348" x1="16.5494" y1="6.47006" x2="7.93922" y2="16.8429" gradientUnits="userSpaceOnUse">
<stop stop-color="#27D3A2"/>
<stop offset="1" stop-color="#4E09F8"/>
</linearGradient>
<clipPath id="clip0_2124_6348">
<rect width="24" height="24" fill="white"/>
</clipPath>
</defs>
</svg>
