<svg width="24" height="24" viewBox="0 0 24 24" fill="none" xmlns="http://www.w3.org/2000/svg">
<circle cx="12" cy="12" r="12" fill="#063C4F"/>
<path d="M20.4 13.2634C19.7871 17.3032 16.281 20.4 12.0474 20.4C7.38203 20.4 3.59998 16.6392 3.59998 12C3.59998 7.36078 7.38203 3.59998 12.0474 3.59998C16.0617 3.59998 19.4221 6.38433 20.2818 10.1168C19.8095 10.0015 19.2782 9.93682 18.7165 9.93682C18.1572 9.93682 17.628 10.001 17.1571 10.1154C16.7534 7.91813 14.8183 6.25261 12.492 6.25261C9.87286 6.25261 7.7496 8.36394 7.7496 10.9684C7.7496 13.5729 9.87286 15.6842 12.492 15.6842C14.3157 15.6842 15.899 14.6606 16.6925 13.1596C17.267 13.3576 17.9645 13.4737 18.7165 13.4737C19.3256 13.4737 19.8988 13.3976 20.4 13.2634Z" fill="url(#paint0_linear_1630_5930_usc)"/>
<path d="M20.4 13.2634C19.7871 17.3032 16.281 20.4 12.0474 20.4C7.38203 20.4 3.59998 16.6392 3.59998 12C3.59998 7.36078 7.38203 3.59998 12.0474 3.59998C16.0617 3.59998 19.4221 6.38433 20.2818 10.1168C20.1988 10.0966 20.1139 10.0779 20.0274 10.0608C19.2884 8.01247 17.3184 6.54734 15.0042 6.54734C12.0576 6.54734 9.66893 8.92259 9.66893 11.8526C9.66893 14.7826 12.0576 17.1579 15.0042 17.1579C17.4357 17.1579 19.4873 15.5404 20.1302 13.3285C20.2222 13.3086 20.3122 13.2869 20.4 13.2634Z" fill="url(#paint1_radial_1630_5930_usc)"/>
<path d="M6.59998 11.4601C6.59998 15.2708 9.68921 18.3601 13.5 18.3601C16.6563 18.3601 19.3176 16.2408 20.1386 13.3476C20.1337 13.3486 20.1287 13.3496 20.1238 13.3506C19.4737 15.5512 17.4276 17.158 15.0042 17.158C12.0576 17.158 9.66893 14.7827 9.66893 11.8527C9.66893 8.92267 12.0576 6.54743 15.0042 6.54743C17.3144 6.54743 19.2817 8.00758 20.0237 10.0504C20.1059 10.0655 20.1867 10.0821 20.266 10.1C19.6344 6.94059 16.8452 4.56006 13.5 4.56006C9.68921 4.56006 6.59998 7.64929 6.59998 11.4601Z" fill="url(#paint2_radial_1630_5930_usc)" fill-opacity="0.6"/>
<g opacity="0.5">
<path d="M12.8883 19.8628C14.4366 19.2717 15.7575 18.2256 16.6847 16.8894C17.6192 16.5812 18.439 16.0231 19.0641 15.2948C17.9618 17.7372 15.6478 19.5153 12.8883 19.8628Z" fill="url(#paint3_radial_1630_5930_usc)" fill-opacity="0.7"/>
<path d="M10.959 4.26014C12.8265 4.48644 14.4992 5.33903 15.7574 6.59988C16.8279 6.75031 17.7963 7.21669 18.5641 7.90109C17.175 5.68123 14.7081 4.20483 11.8963 4.20483C11.5791 4.20483 11.2663 4.22362 10.959 4.26014Z" fill="url(#paint4_radial_1630_5930_usc)" fill-opacity="0.7"/>
</g>
<defs>
<linearGradient id="paint0_linear_1630_5930_usc" x1="16.9" y1="7.7222" x2="18.9222" y2="21.5666" gradientUnits="userSpaceOnUse">
<stop stop-color="#1F7494"/>
<stop offset="0.382768" stop-color="#0E6585"/>
<stop offset="0.901042" stop-color="#071F28"/>
</linearGradient>
<radialGradient id="paint1_radial_1630_5930_usc" cx="0" cy="0" r="1" gradientUnits="userSpaceOnUse" gradientTransform="translate(5.86664 18.5672) rotate(-57.3798) scale(14.8237 28.5768)">
<stop offset="0.104167" stop-color="#3A78B1"/>
<stop offset="0.520341" stop-color="#4FC1C0"/>
<stop offset="1" stop-color="#8CF2FD"/>
</radialGradient>
<radialGradient id="paint2_radial_1630_5930_usc" cx="0" cy="0" r="1" gradientUnits="userSpaceOnUse" gradientTransform="translate(20.46 0.360059) rotate(108.733) scale(21.858 21.5328)">
<stop offset="0.216485" stop-color="white" stop-opacity="0.7"/>
<stop offset="0.891347" stop-color="white" stop-opacity="0"/>
<stop offset="1" stop-color="white" stop-opacity="0"/>
</radialGradient>
<radialGradient id="paint3_radial_1630_5930_usc" cx="0" cy="0" r="1" gradientUnits="userSpaceOnUse" gradientTransform="translate(13.9799 3.72004) rotate(81.8122) scale(16.8518 15.8881)">
<stop stop-color="white"/>
<stop offset="0.300757" stop-color="white"/>
<stop offset="1" stop-color="white" stop-opacity="0"/>
</radialGradient>
<radialGradient id="paint4_radial_1630_5930_usc" cx="0" cy="0" r="1" gradientUnits="userSpaceOnUse" gradientTransform="translate(13.9799 3.72004) rotate(81.8122) scale(16.8518 15.8881)">
<stop stop-color="white"/>
<stop offset="0.300757" stop-color="white"/>
<stop offset="1" stop-color="white" stop-opacity="0"/>
</radialGradient>
</defs>
</svg>
