<svg width="514" height="98" viewBox="0 0 514 98" fill="none" xmlns="http://www.w3.org/2000/svg">
<path fill-rule="evenodd" clip-rule="evenodd" d="M17.1934 0H0.0566406V97.1343C5.75985 96.2901 11.4721 95.4738 17.1934 94.6854V63.2102C17.1934 52.7693 24.2166 44.1625 34.3301 44.1625C43.4603 44.1625 50.0621 49.5241 50.0621 62.2226V90.4756C55.7659 89.8003 61.4782 89.1528 67.1989 88.5331V62.0815C67.1989 41.6228 58.49 28.2189 38.8249 28.2189C30.9589 28.2189 23.3738 30.6175 17.1934 38.6598V0ZM179.254 80.037C173.535 80.2863 167.822 80.5632 162.118 80.8678V29.0632H177.99L179.254 37.5289C182.906 30.4741 190.913 27.9345 197.515 27.9345C205.802 27.9345 214.09 31.3207 218.023 40.9151C224.203 31.0385 232.21 28.2166 241.199 28.2166C260.864 28.2166 270.556 40.3507 270.556 61.2327V78.4274C265.716 78.3877 260.87 78.3678 256.02 78.3678C255.153 78.3678 254.286 78.3684 253.42 78.3697V61.2327C253.42 52.0616 249.627 44.3014 240.357 44.3014C231.086 44.3014 225.327 52.3438 225.327 61.5149V78.634C219.608 78.7333 213.895 78.8603 208.19 79.0149V61.5149C208.19 52.3438 203.414 44.0192 194.003 44.0192C184.732 44.0192 179.254 52.3438 179.254 61.5149V80.037ZM358.189 81.3287V29.2079H341.755L341.193 38.8023C337.26 31.8887 328.411 27.5148 319.14 27.5148C298.913 27.3737 283.041 39.9311 283.041 63.9171C283.041 69.4122 283.81 74.3138 285.235 78.609C292.088 78.7222 298.932 78.8752 305.765 79.0678C302.297 75.451 300.178 70.306 300.178 63.9167C300.178 50.6538 309.308 42.8936 320.686 42.8936C341.879 42.8936 346.418 68.9445 334.303 80.1039C342.28 80.4584 350.242 80.8668 358.189 81.3287ZM388.091 83.3238C382.433 82.8975 376.768 82.4984 371.095 82.1266V29.0674H386.406L387.529 38.5207C394.553 31.6071 401.576 28.0797 410.285 28.0797C426.579 28.0797 439.642 40.3549 439.642 62.2245V87.9778C433.938 87.3773 428.225 86.8044 422.505 86.2593V62.3656C422.505 51.7836 416.746 43.7412 405.79 43.7412C395.255 43.7412 388.091 52.6301 388.091 63.2122V83.3238ZM502.03 95.6907C484.691 93.2273 467.269 91.0204 449.769 89.0741C449.665 88.967 449.56 88.8591 449.456 88.7502L457.884 76.475C462.801 81.9777 474.038 86.0694 481.763 86.2105C488.225 86.3516 494.265 82.9653 494.265 77.8859C494.265 73.0887 490.332 71.1134 480.499 70.549C467.436 69.5614 451.844 64.7642 451.844 48.9616C451.844 32.8769 468.419 27.2331 481.061 27.2331C491.877 27.2331 500.024 29.3495 508.03 36.4042L498.479 47.6918C493.562 43.0356 487.944 41.4836 481.342 41.4836C473.195 41.4836 468.7 44.0233 468.7 48.3972C468.7 52.9122 472.774 55.4519 481.623 56.0163C494.686 56.8629 511.261 59.8259 511.261 78.3092C511.261 85.1366 508.176 91.4403 502.03 95.6907ZM148.089 81.673C140.459 82.1417 132.843 82.6598 125.24 83.2269C128.933 79.6286 131.093 74.3282 131.093 68.5173V29.2064H148.089V81.673ZM103.432 84.9911C96.5487 85.5914 89.6765 86.232 82.8161 86.9126C80.7094 82.0532 79.5422 76.2153 79.5422 69.505V29.2064H96.6789V69.3639C96.6789 76.0489 98.9773 81.7205 103.432 84.9911Z" fill="white"/>
</svg>
