<svg width="318" height="318" viewBox="0 0 318 318" fill="none" xmlns="http://www.w3.org/2000/svg">
<circle cx="159" cy="159" r="150.5" fill="black" stroke="url(#paint0_linear_1583_2853)" stroke-width="17"/>
<mask id="mask0_1583_2853" style="mask-type:alpha" maskUnits="userSpaceOnUse" x="0" y="0" width="318" height="318">
<path d="M159 0L175.62 0.871017L192.058 3.47453L208.134 7.78201L223.671 13.7463L238.5 21.302L252.458 30.3663L265.392 40.84L277.16 52.6082L287.634 65.5421L296.698 79.5L304.254 94.3289L310.218 109.866L314.525 125.942L317.129 142.38L318 159L317.129 175.62L314.525 192.058L310.218 208.134L304.254 223.671L296.698 238.5L287.634 252.458L277.16 265.392L265.392 277.16L252.458 287.634L238.5 296.698L223.671 304.254L208.134 310.218L192.058 314.525L175.62 317.129L159 318L142.38 317.129L125.942 314.525L109.866 310.218L94.3289 304.254L79.5 296.698L65.5421 287.634L52.6082 277.16L40.84 265.392L30.3663 252.458L21.302 238.5L13.7463 223.671L7.78201 208.134L3.47453 192.058L0.871017 175.62L0 159L0.871017 142.38L3.47453 125.942L7.78201 109.866L13.7463 94.3289L21.302 79.5L30.3663 65.5421L40.84 52.6082L52.6082 40.84L65.5421 30.3663L79.5 21.302L94.3289 13.7463L109.866 7.78201L125.942 3.47453L142.38 0.871017L159 0Z" fill="white"/>
</mask>
<g mask="url(#mask0_1583_2853)">
<path d="M-71.5301 127.783L31.6504 163.034M-71.5301 127.783C-71.5301 127.783 -114.746 175.815 -117.125 182.885C-119.504 189.955 -100.873 251.435 -96.9332 258.242C-92.9933 265.049 -39.7346 310.103 -34.8526 312.368M-71.5301 127.783C-71.5301 127.783 -75.9973 111.111 -77.2481 106.443C-78.499 101.774 -55.2437 71.9563 -55.2437 71.9563M31.6504 163.034C31.6504 163.034 39.741 215.902 41.1069 224.828M31.6504 163.034C34.36 158.305 61.5483 132.389 74.8039 120.022M41.1069 224.828C33.3739 230.474 -5.18854 278.182 -34.8526 312.368M41.1069 224.828C49.6979 230.388 155.886 266.263 155.886 266.263M-34.8526 312.368C-33.3871 317.837 -32.3509 321.705 -31.1001 326.373C-29.8493 331.041 31.5828 358.895 31.5828 358.895M-55.2437 71.9563L-65.6158 14.696C-65.6158 14.696 -52.865 -25.1731 -22.135 -37.6957M-55.2437 71.9563L27.7668 23.9825M27.7668 23.9825L-22.135 -37.6957M27.7668 23.9825L72.8581 41.2053M-22.135 -37.6957L17.6234 -93.3785M74.8039 120.022L80.7204 70.5479M74.8039 120.022C74.8039 120.022 130.974 152.145 195.807 174.084M80.7204 70.5479L174.125 71.9661M80.7204 70.5479C76.2536 66.5985 73.6177 49.3406 72.8581 41.2053M174.125 71.9661L229.342 105.774M174.125 71.9661L158.758 14.6148M229.342 105.774L225.055 153.382M229.342 105.774L270.046 56.2708M225.055 153.382L218.586 163.692M225.055 153.382C225.055 153.382 278.581 167.63 332.612 173.165M218.586 163.692C218.586 163.692 203.692 169.113 195.807 174.084M218.586 163.692C218.586 163.692 239.961 177.263 301.096 251.656M195.807 174.084C176.247 233.647 155.886 266.263 155.886 266.263M155.886 266.263L31.5828 358.895M155.886 266.263L181.288 308.06M31.5828 358.895L39.7208 377.442C53.4681 385.696 75.1408 398.739 92.2587 409.109C105.889 417.366 116.631 423.93 118.186 425.034M72.8581 41.2053C77.4437 37.1176 92.8528 15.1198 99.9841 4.63188M99.9841 4.63188L104.449 -42.3088M99.9841 4.63188L158.758 14.6148M104.449 -42.3088C65.648 -70.5089 54.6985 -76.8668 17.6234 -93.3785M104.449 -42.3088L146.151 -82.7878M17.6234 -93.3785C20.2736 -94.0886 73.701 -130.561 85.6265 -133.757C97.552 -136.954 145.503 -109.06 145.503 -109.06M145.503 -109.06L146.151 -82.7878M145.503 -109.06L168.021 -133.677M146.151 -82.7878L227.655 -22.4297M227.655 -22.4297L158.758 14.6148M227.655 -22.4297L253.219 -17.1287C253.219 -17.1287 274.733 -49.9023 288.518 -70.9021M168.021 -133.677C168.021 -133.677 232.491 -94.4864 288.518 -70.9021M168.021 -133.677L204.967 -152.154L258.053 -152.798L303.584 -120.683L319.322 -88.4479M288.518 -70.9021C300.129 -79.3167 318.25 -92.4491 318.25 -92.4491L366.99 -66.912M253.755 -15.1281L270.046 56.2708M270.046 56.2708C270.046 56.2708 318.993 64.5011 350.356 69.7747M350.356 69.7747C369.711 9.55248 366.99 -66.912 366.99 -66.912M350.356 69.7747C358.122 74.9513 370.241 83.0303 370.241 83.0303M366.99 -66.912C386.834 -52.2161 414.184 -19.7564 425.378 -5.36352L416.611 52.0219M416.611 52.0219L370.241 83.0303M416.611 52.0219L466.221 88.7616L485.833 177.854M370.241 83.0303L383.642 133.046M383.642 133.046L361.102 165.532M383.642 133.046L485.833 177.854M361.102 165.532C361.102 165.532 343.738 170.184 332.612 173.165M361.102 165.532C361.102 165.532 376.299 214.351 378.756 265.87M332.612 173.165C320.304 203.818 317.778 200.012 301.096 251.656M301.096 251.656C304.515 264.417 309.851 284.333 309.851 284.333M378.756 265.87C369.761 271.63 364.718 274.859 355.724 280.619M378.756 265.87C395.528 269.471 421.703 275.09 421.703 275.09M355.724 280.619C337.809 282.069 309.851 284.333 309.851 284.333M355.724 280.619C369.67 324.77 367.96 330.677 375.41 364.688M309.851 284.333C309.851 284.333 281.282 315.575 264.867 336.413M181.288 308.06C181.288 308.06 231.539 326.045 264.867 336.413M181.288 308.06C161.715 348.09 121.694 427.525 118.186 425.034M485.833 177.854L494.231 209.197L468.43 245.416L421.703 275.09M421.703 275.09C421.703 275.09 393.727 328.518 375.41 364.688M375.41 364.688C367.995 368.819 280.762 377.183 280.762 377.183M280.762 377.183C280.762 377.183 271.613 351.045 264.867 336.413M280.762 377.183C280.762 377.183 279.75 394.609 278.351 399.987C276.951 405.365 219.953 465.667 210.029 468.327C200.104 470.986 125.333 451.709 122.653 441.706C119.973 431.703 118.186 425.034 118.186 425.034" stroke="url(#paint1_linear_1583_2853)" stroke-width="18"/>
</g>
<defs>
<linearGradient id="paint0_linear_1583_2853" x1="72.5" y1="9.71743e-06" x2="243" y2="308.5" gradientUnits="userSpaceOnUse">
<stop stop-color="#745EFF"/>
<stop offset="1" stop-color="#41DDCA"/>
</linearGradient>
<linearGradient id="paint1_linear_1583_2853" x1="51.5" y1="31.5" x2="267.18" y2="287.082" gradientUnits="userSpaceOnUse">
<stop stop-color="#7761FF"/>
<stop offset="1" stop-color="#40DBC8"/>
</linearGradient>
</defs>
</svg>