<svg width="461" height="461" viewBox="0 0 461 461" fill="none" xmlns="http://www.w3.org/2000/svg">
<circle cx="230.5" cy="230.5" r="230.5" fill="url(#paint0_radial_128_2)"/>
<path d="M356.561 139.012C352.653 133.435 341.59 121.884 330.418 115.284C321.512 109.927 311.967 108.885 299.993 112.358C298.532 110.033 296.144 106.384 294.603 104.23C280.961 85.0434 264.136 72.5261 246.615 67.3829C213.71 57.7052 173.626 83.0063 163.432 109.36C148.842 109.474 134.433 112.533 121.618 120.326C91.151 138.838 92.7836 174.333 97.2041 195.919L99.1671 195.254C100.843 189.765 103.303 175.491 128.979 162.561C128.979 162.561 114.528 177.795 109.722 198.534C139.641 190.929 207.169 198.842 211.445 182.546C207.169 171.706 169.492 183.711 152.065 186.841C130.636 190.692 111.92 196.824 96.8771 204.117C70.6254 216.887 55.8147 233.255 58.2625 247.366C60.3835 259.577 75.403 265.063 88.4744 267.54L88.3092 266.816C67.0246 260.247 50.3967 244.911 100.068 226.673C143.46 210.747 301.813 198.411 301.813 198.411C301.813 198.411 171.961 227.412 140.508 242.322C113.318 255.189 109.161 265.94 108.314 269.033C111.85 280.79 116.962 291.951 123.502 302.19C121.557 333.495 123.067 384.435 172.764 394.784C198.746 400.194 227.656 380.529 227.656 380.529L233.562 376.213C257.358 356.519 283.121 327.409 299.811 290.207C318.552 248.412 324.782 217.684 326.022 202.962L327.722 199.814C355.393 234.765 357.478 269.968 353.479 289.451C350.41 304.399 346.403 325.012 325.983 343.27C314.375 353.696 294.009 358.643 285.168 358.974L283.836 360.494C297.927 361.993 313.903 355.337 323.014 349.762C352.021 331.868 371.01 303.715 380.737 256.33C391.167 205.028 374.837 165.153 356.561 139.012ZM237.508 128.23C219.51 119.731 197 110.454 168.54 109.42L168.877 108.322C178.587 105.289 198.576 101.793 226.826 112.801C261.674 126.386 316.519 181.684 325.258 193.86C322.41 190.756 269.72 143.462 237.508 128.23ZM300.347 238.631C300.347 238.631 240.423 334.057 176.285 339.86C153.979 341.87 134.718 320.311 126.877 309.163L126.888 307.472C134.774 318.454 155.994 341.659 187.833 329.072C238.327 309.114 299.811 244.03 299.811 244.03L324.572 201.131L300.347 238.631ZM327.374 194.3C327.33 193.205 327.099 190.892 326.947 189.67C323.724 162.936 314.98 137.316 301.312 114.559C313.614 111.283 323.604 112.125 330.509 117.895C356.827 139.955 327.353 194.296 327.353 194.296L327.374 194.3Z" fill="url(#paint1_radial_128_2)"/>
<defs>
<radialGradient id="paint0_radial_128_2" cx="0" cy="0" r="1" gradientUnits="userSpaceOnUse" gradientTransform="translate(230.5 230.5) rotate(91.7754) scale(185.701 185.708)">
<stop offset="0.291667" stop-color="#869CFF"/>
<stop offset="0.859375" stop-color="#080E29"/>
</radialGradient>
<radialGradient id="paint1_radial_128_2" cx="0" cy="0" r="1" gradientUnits="userSpaceOnUse" gradientTransform="translate(221 230.5) rotate(90) scale(165.226 163)">
<stop offset="0.572917" stop-color="#DDF1FF"/>
<stop offset="1" stop-color="#84A6FF"/>
</radialGradient>
</defs>
</svg>
