<svg width="500" height="500" viewBox="0 0 500 500" fill="none" xmlns="http://www.w3.org/2000/svg">
<g clip-path="url(#clip0_921_919)">
<mask id="mask0_921_919" style="mask-type:alpha" maskUnits="userSpaceOnUse" x="0" y="0" width="500" height="500">
<rect width="500" height="500" fill="#D9D9D9"/>
</mask>
<g mask="url(#mask0_921_919)">
<g clip-path="url(#clip1_921_919)">
<path d="M250 500C388.542 500 500 388.542 500 250C500 111.458 388.542 0 250 0C111.458 0 0 111.458 0 250C0 388.542 111.458 500 250 500Z" fill="#2775CA"/>
<path d="M318.75 289.583C318.75 253.125 296.875 240.625 253.125 235.418C221.875 231.25 215.625 222.918 215.625 208.333C215.625 193.748 226.042 184.375 246.875 184.375C265.625 184.375 276.042 190.625 281.25 206.25C282.292 209.375 285.417 211.458 288.542 211.458H305.207C309.375 211.458 312.5 208.333 312.5 204.168V203.125C308.332 180.208 289.582 162.5 265.625 160.418V135.418C265.625 131.25 262.5 128.125 257.292 127.083H241.667C237.5 127.083 234.375 130.208 233.332 135.418V159.375C202.082 163.543 182.292 184.375 182.292 210.418C182.292 244.793 203.125 258.333 246.875 263.543C276.042 268.75 285.417 275 285.417 291.668C285.417 308.335 270.832 319.793 251.042 319.793C223.957 319.793 214.582 308.333 211.457 292.708C210.417 288.543 207.292 286.458 204.167 286.458H186.457C182.292 286.458 179.167 289.583 179.167 293.75V294.793C183.332 320.833 200 339.583 234.375 344.793V369.793C234.375 373.958 237.5 377.083 242.707 378.125H258.332C262.5 378.125 265.625 375 266.667 369.793V344.793C297.917 339.583 318.75 317.708 318.75 289.583Z" fill="white"/>
<path d="M196.875 398.957C115.625 369.792 73.9576 279.167 104.168 198.957C119.793 155.207 154.168 121.875 196.875 106.25C201.043 104.167 203.125 101.042 203.125 95.8325V81.25C203.125 77.0825 201.043 73.9575 196.875 72.9175C195.833 72.9175 193.75 72.9175 192.708 73.9575C93.7501 105.207 39.5825 210.417 70.8325 309.375C89.5825 367.707 134.375 412.5 192.708 431.25C196.875 433.332 201.043 431.25 202.083 427.082C203.125 426.042 203.125 425 203.125 422.917V408.332C203.125 405.207 200 401.042 196.875 398.957ZM307.293 73.9575C303.125 71.875 298.958 73.9575 297.918 78.125C296.875 79.1675 296.875 80.2075 296.875 82.2925V96.875C296.875 101.042 300 105.207 303.125 107.292C384.375 136.457 426.043 227.082 395.833 307.292C380.208 351.042 345.833 384.375 303.125 400C298.958 402.082 296.875 405.207 296.875 410.417V425C296.875 429.167 298.958 432.292 303.125 433.332C304.168 433.332 306.25 433.332 307.293 432.292C406.25 401.042 460.418 295.832 429.168 196.875C410.418 137.5 364.583 92.7075 307.293 73.9575Z" fill="white"/>
</g>
</g>
</g>
<circle cx="100" cy="400" r="97.5" fill="black" stroke="black" stroke-width="5"/>
<g clip-path="url(#clip2_921_919)">
<mask id="mask1_921_919" style="mask-type:luminance" maskUnits="userSpaceOnUse" x="30" y="330" width="140" height="140">
<path d="M170 330H30V470H170V330Z" fill="white"/>
</mask>
<g mask="url(#mask1_921_919)">
<path d="M150.472 330.003C145.302 330.016 140.347 332.078 136.694 335.737C133.041 339.396 130.986 344.353 130.981 349.523V359.788C125.231 348.077 115.382 338.884 103.303 333.952C91.2247 329.021 77.7562 328.693 65.4522 333.032C55.0887 336.706 46.1169 343.499 39.769 352.477C33.4212 361.455 30.0086 372.178 30 383.173V450.473C30 455.651 32.0574 460.618 35.7196 464.281C39.3817 467.942 44.3487 470 49.5278 470C54.7069 470 59.6739 467.942 63.336 464.281C66.9982 460.618 69.0556 455.651 69.0556 450.473V440.23C74.8043 451.936 84.6502 461.124 96.7252 466.053C108.8 470.981 122.264 471.305 134.563 466.963C144.923 463.291 153.892 456.5 160.236 447.525C166.582 438.549 169.993 427.829 170 416.837V349.523C169.993 344.347 167.932 339.385 164.272 335.726C160.611 332.067 155.648 330.009 150.472 330.003ZM116.829 464.595C106.62 464.638 96.6694 461.391 88.4497 455.337C80.23 449.283 74.1785 440.743 71.1914 430.981L71.1115 430.698C69.7406 426.206 69.0477 421.534 69.0556 416.837V383.173C69.0594 379.427 70.5496 375.836 73.1989 373.189C75.8481 370.541 79.44 369.052 83.1856 369.05C86.9276 369.06 90.5135 370.551 93.1587 373.198C95.8041 375.844 97.2934 379.431 97.3011 383.173V416.823C97.3074 422.002 99.3689 426.966 103.033 430.625C105.767 433.347 109.245 435.2 113.029 435.948C116.813 436.697 120.735 436.309 124.299 434.833C127.863 433.356 130.91 430.859 133.057 427.654C135.205 424.449 136.355 420.68 136.364 416.823V349.523C136.364 347.669 136.729 345.834 137.439 344.121C138.148 342.409 139.188 340.853 140.498 339.542C141.809 338.231 143.365 337.192 145.078 336.482C146.791 335.773 148.626 335.408 150.48 335.408C152.333 335.408 154.168 335.773 155.882 336.482C157.594 337.192 159.15 338.231 160.461 339.542C161.771 340.853 162.811 342.409 163.52 344.121C164.23 345.834 164.595 347.669 164.595 349.523V416.823C164.6 423.097 163.368 429.311 160.969 435.109C158.571 440.907 155.052 446.174 150.615 450.611C146.179 455.048 140.911 458.566 135.114 460.966C129.317 463.366 123.103 464.599 116.829 464.595ZM130.981 416.823C130.978 419.614 130.149 422.342 128.598 424.662C127.047 426.984 124.844 428.793 122.266 429.864C119.688 430.934 116.851 431.218 114.112 430.678C111.373 430.139 108.856 428.801 106.876 426.834C105.426 425.397 104.308 423.662 103.6 421.748C103.469 421.407 103.353 421.022 103.236 420.636L103.193 420.441L103.149 420.259C103.084 420.005 103.019 419.751 102.975 419.482C102.975 419.387 102.975 419.285 102.924 419.184V419.031C102.924 418.791 102.851 418.552 102.83 418.304C102.808 418.058 102.83 418.007 102.83 417.811C102.83 417.614 102.83 417.324 102.83 417.084V383.173C102.825 380.6 102.313 378.053 101.322 375.678C100.332 373.303 98.8834 371.146 97.0588 369.332C95.2342 367.518 93.0697 366.081 90.6892 365.104C88.3087 364.127 85.7588 363.629 83.1856 363.638C78.0063 363.644 73.0409 365.704 69.3786 369.366C65.7163 373.028 63.6563 377.994 63.6505 383.173V450.473C63.6505 454.218 62.1626 457.81 59.5141 460.458C56.8656 463.107 53.2734 464.595 49.5278 464.595C45.7822 464.595 42.19 463.107 39.5415 460.458C36.8929 457.81 35.405 454.218 35.405 450.473V383.173C35.4134 371.72 39.5352 360.652 47.0196 351.983C54.5041 343.315 64.8532 337.623 76.1822 335.944C87.5112 334.266 99.0663 336.712 108.743 342.838C118.42 348.964 125.574 358.361 128.903 369.319L129.099 369.959C130.343 374.253 130.976 378.702 130.981 383.173V416.823Z" fill="url(#paint0_linear_921_919)"/>
</g>
</g>
<circle cx="100" cy="400" r="97.5" stroke="black" stroke-width="5"/>
<defs>
<linearGradient id="paint0_linear_921_919" x1="39.6007" y1="460.203" x2="206.435" y2="293.115" gradientUnits="userSpaceOnUse">
<stop offset="0.05" stop-color="white"/>
<stop offset="0.38" stop-color="#A7B3FF"/>
<stop offset="1" stop-color="#74A4FF"/>
</linearGradient>
<clipPath id="clip0_921_919">
<rect width="500" height="500" rx="250" fill="white"/>
</clipPath>
<clipPath id="clip1_921_919">
<rect width="500" height="500" fill="white"/>
</clipPath>
<clipPath id="clip2_921_919">
<rect width="140" height="140" fill="white" transform="translate(30 330)"/>
</clipPath>
</defs>
</svg>
