<svg width="512" height="512" viewBox="0 0 512 512" fill="none" xmlns="http://www.w3.org/2000/svg">
<path d="M512 256C512 114.615 397.385 0 256 0C114.615 0 0 114.615 0 256C0 397.385 114.615 512 256 512C397.385 512 512 397.385 512 256Z" fill="#E50571"/>
<path d="M394.51 153.285C390.433 147.5 378.899 135.519 367.251 128.673C357.964 123.117 348.013 122.036 335.527 125.638C334.003 123.227 331.514 119.442 329.906 117.208C315.682 97.3067 298.139 84.3234 279.871 78.9887C245.563 68.9508 203.768 95.1937 193.139 122.529C177.927 122.647 162.903 125.82 149.541 133.903C117.774 153.104 119.476 189.921 124.085 212.311L126.132 211.621C127.879 205.927 130.444 191.122 157.216 177.71C157.216 177.71 142.148 193.512 137.137 215.024C168.333 207.136 238.744 215.341 243.201 198.44C238.744 187.197 199.458 199.648 181.287 202.895C158.944 206.889 139.43 213.248 123.744 220.814C96.3724 234.06 80.9297 251.038 83.482 265.674C85.6934 278.34 101.354 284.03 114.983 286.598L114.811 285.849C92.6178 279.035 75.2805 263.126 127.071 244.208C172.315 227.692 337.425 214.896 337.425 214.896C337.425 214.896 202.032 244.976 169.237 260.441C140.887 273.788 136.553 284.939 135.669 288.147C139.356 300.34 144.687 311.919 151.505 322.539C149.478 355.01 151.052 407.847 202.869 418.58C229.961 424.194 260.103 403.795 260.103 403.795L266.261 399.317C291.074 378.891 317.936 348.696 335.338 310.109C354.879 266.759 361.374 234.885 362.668 219.617L364.44 216.351C393.292 252.604 395.466 289.118 391.296 309.325C388.095 324.829 383.918 346.21 362.627 365.149C350.522 375.961 329.288 381.094 320.069 381.436L318.682 383.013C333.374 384.567 350.032 377.666 359.531 371.883C389.776 353.321 409.575 324.121 419.718 274.972C430.591 221.758 413.565 180.399 394.51 153.285ZM270.376 142.102C251.61 133.286 228.138 123.664 198.465 122.591L198.817 121.453C208.941 118.306 229.783 114.679 259.239 126.098C295.573 140.189 352.76 197.545 361.869 210.175C358.901 206.955 303.963 157.9 270.376 142.102ZM335.897 256.614C335.897 256.614 273.415 355.593 206.54 361.611C183.282 363.698 163.2 341.334 155.025 329.772L155.036 328.017C163.258 339.408 185.384 363.478 218.58 350.422C271.229 329.721 335.338 262.212 335.338 262.212L361.155 217.716L335.897 256.614ZM364.078 210.632C364.032 209.496 363.79 207.097 363.633 205.829C360.27 178.099 351.154 151.526 336.903 127.921C349.731 124.523 360.147 125.397 367.347 131.381C394.786 154.263 364.055 210.627 364.055 210.627L364.078 210.632Z" fill="white"/>
</svg>
