<svg width="500" height="500" viewBox="0 0 500 500" fill="none" xmlns="http://www.w3.org/2000/svg">
<g clip-path="url(#clip0_879_747)">
<mask id="mask0_879_747" style="mask-type:alpha" maskUnits="userSpaceOnUse" x="0" y="0" width="500" height="500">
<rect width="500" height="500" fill="#D9D9D9"/>
</mask>
<g mask="url(#mask0_879_747)">
<path d="M249.479 498.958C387.264 498.958 498.958 387.264 498.958 249.479C498.958 111.695 387.264 0 249.479 0C111.695 0 0 111.695 0 249.479C0 387.264 111.695 498.958 249.479 498.958Z" fill="#1D2229"/>
<path d="M206.813 226.084H165.038V267.859H206.813V226.084Z" fill="white"/>
<path d="M165.038 184.309H123.263V226.083L165.038 226.084L165.038 184.309Z" fill="white"/>
<path d="M123.256 226.084H81.4817V267.859H123.256V226.084Z" fill="white"/>
<path d="M165.038 267.859L123.263 267.856V309.631H165.038L165.038 267.859Z" fill="white"/>
<path d="M402.507 193.307C399.563 162.584 373.045 152.271 339.552 149.325V129.645H313.62V148.202C306.806 148.202 299.839 148.333 292.909 148.464V129.63H266.992V149.302C261.378 149.41 226.886 149.379 226.886 149.379L226.809 172.243L248.451 172.366V322.215H226.817L226.625 344.756C232.908 344.756 260.871 344.878 266.931 344.917V364.344H292.848V345.378C299.954 345.532 306.844 345.594 313.566 345.586V364.351H339.506V345.009C383.118 342.525 413.656 331.551 417.448 290.607C420.524 257.63 405.021 242.926 380.264 236.943C395.309 229.252 404.715 215.786 402.521 193.299L402.507 193.307ZM366.17 285.462C366.17 317.677 311.021 313.994 293.425 314.001V256.892C311.013 256.892 366.139 251.87 366.146 285.462H366.17ZM354.132 204.881C354.132 234.19 308.113 230.752 293.463 230.752V178.949C308.136 178.957 354.149 174.311 354.132 204.881Z" fill="white"/>
</g>
</g>
<g clip-path="url(#clip1_879_747)">
<mask id="mask1_879_747" style="mask-type:luminance" maskUnits="userSpaceOnUse" x="300" y="300" width="200" height="200">
<path d="M500 300H300V500H500V300Z" fill="white"/>
</mask>
<g mask="url(#mask1_879_747)">
<path d="M500 300H300V500H500V300Z" fill="white"/>
<path d="M847.945 300H300V847.945H847.945V300Z" fill="black"/>
<g opacity="0.4" filter="url(#filter0_f_879_747)">
<path d="M624.715 265.787C792.833 208.422 956.263 241.465 989.748 339.591C1023.23 437.717 914.082 563.767 745.966 621.133C577.848 678.498 414.417 645.456 380.935 547.33C347.452 449.204 456.596 323.153 624.715 265.787Z" fill="#FF2B57"/>
</g>
<g opacity="0.6" filter="url(#filter1_f_879_747)">
<path d="M579.495 232.211C808.906 197.273 1014.95 300.718 1039.7 463.262C1064.46 625.807 898.553 785.899 669.141 820.838C439.73 855.775 233.688 752.332 208.933 589.787C184.178 427.242 350.084 267.15 579.495 232.211Z" fill="#164094"/>
</g>
<path d="M400.274 475.217C380.38 475.205 361.304 467.3 347.231 453.24C333.157 439.179 325.236 420.11 325.206 400.216C325.236 380.321 333.157 361.251 347.23 347.189C361.303 333.126 380.379 325.22 400.274 325.205C420.169 325.22 439.245 333.126 453.318 347.189C467.391 361.251 475.312 380.321 475.343 400.216C475.312 420.11 467.391 439.179 453.318 453.24C439.244 467.3 420.168 475.205 400.274 475.217ZM400.274 330.98C381.91 330.992 364.301 338.289 351.31 351.269C338.319 364.249 331.008 381.852 330.98 400.216C330.998 418.582 338.306 436.19 351.3 449.171C364.293 462.151 381.908 469.443 400.274 469.443C418.641 469.443 436.255 462.151 449.249 449.171C462.242 436.19 469.55 418.582 469.568 400.216C469.54 381.852 462.229 364.249 449.238 351.269C436.247 338.289 418.638 330.992 400.274 330.98Z" fill="white"/>
<path d="M409.765 463.35C393.283 463.337 377.48 456.788 365.82 445.138C354.161 433.488 347.599 417.689 347.574 401.207C347.599 384.725 354.161 368.926 365.82 357.276C377.48 345.626 393.283 339.076 409.765 339.063C426.247 339.076 442.051 345.626 453.71 357.276C465.369 368.926 471.931 384.725 471.957 401.207C471.931 417.689 465.369 433.488 453.71 445.138C442.051 456.788 426.247 463.337 409.765 463.35ZM409.765 343.548C394.474 343.561 379.812 349.639 368.995 360.448C358.179 371.257 352.091 385.915 352.068 401.207C352.094 416.497 358.183 431.153 368.998 441.96C379.815 452.767 394.475 458.843 409.765 458.856C425.055 458.843 439.716 452.767 450.532 441.96C461.348 431.153 467.437 416.497 467.462 401.207C467.437 385.917 461.348 371.261 450.532 360.454C439.716 349.647 425.055 343.571 409.765 343.558V343.548Z" fill="white"/>
<path d="M419.255 451.494C406.186 451.484 393.655 446.29 384.41 437.053C375.165 427.815 369.962 415.287 369.941 402.218C369.962 389.149 375.165 376.622 384.41 367.384C393.655 358.146 406.186 352.953 419.255 352.942C432.326 352.95 444.858 358.143 454.104 367.381C463.349 376.619 468.552 389.148 468.569 402.218C468.549 415.287 463.346 427.815 454.101 437.053C444.856 446.29 432.324 451.484 419.255 451.494ZM419.255 356.147C407.036 356.155 395.317 361.01 386.673 369.647C378.029 378.285 373.164 389.998 373.146 402.218C373.166 414.436 378.032 426.148 386.677 434.783C395.321 443.418 407.037 448.272 419.255 448.28C431.474 448.272 443.19 443.418 451.835 434.783C460.478 426.148 465.345 414.436 465.365 402.218C465.347 389.998 460.482 378.285 451.838 369.647C443.193 361.01 431.476 356.155 419.255 356.147Z" fill="white"/>
<path d="M428.739 439.627C419.082 439.619 409.823 435.782 402.992 428.956C396.161 422.131 392.317 412.875 392.301 403.219C392.314 393.561 396.158 384.302 402.989 377.475C409.82 370.647 419.08 366.808 428.739 366.801C438.397 366.808 447.657 370.647 454.488 377.475C461.319 384.302 465.163 393.561 465.175 403.219C465.16 412.875 461.316 422.131 454.485 428.956C447.654 435.782 438.395 439.619 428.739 439.627ZM428.739 368.726C419.591 368.733 410.82 372.369 404.35 378.836C397.88 385.302 394.239 394.071 394.226 403.219C394.242 412.365 397.883 421.131 404.353 427.595C410.823 434.06 419.593 437.694 428.739 437.702C437.884 437.694 446.654 434.06 453.124 427.595C459.593 421.131 463.236 412.365 463.25 403.219C463.238 394.071 459.598 385.302 453.128 378.836C446.657 372.369 437.886 368.733 428.739 368.726Z" fill="white"/>
</g>
</g>
<circle cx="400" cy="400" r="97.5" stroke="black" stroke-width="5"/>
<defs>
<filter id="filter0_f_879_747" x="-75.1033" y="-212.38" width="1520.89" height="1311.68" filterUnits="userSpaceOnUse" color-interpolation-filters="sRGB">
<feFlood flood-opacity="0" result="BackgroundImageFix"/>
<feBlend mode="normal" in="SourceGraphic" in2="BackgroundImageFix" result="shape"/>
<feGaussianBlur stdDeviation="225" result="effect1_foregroundBlur_879_747"/>
</filter>
<filter id="filter1_f_879_747" x="-543.513" y="-524.573" width="2335.66" height="2102.2" filterUnits="userSpaceOnUse" color-interpolation-filters="sRGB">
<feFlood flood-opacity="0" result="BackgroundImageFix"/>
<feBlend mode="normal" in="SourceGraphic" in2="BackgroundImageFix" result="shape"/>
<feGaussianBlur stdDeviation="375" result="effect1_foregroundBlur_879_747"/>
</filter>
<clipPath id="clip0_879_747">
<rect width="500" height="500" rx="250" fill="white"/>
</clipPath>
<clipPath id="clip1_879_747">
<rect x="300" y="300" width="200" height="200" rx="100" fill="white"/>
</clipPath>
</defs>
</svg>
