<svg width="64" height="41" viewBox="0 0 64 41" fill="none" xmlns="http://www.w3.org/2000/svg">
<g clip-path="url(#clip0_256_218)">
<path d="M37.0201 8.3C39.3121 8.3 41.1701 6.44198 41.1701 4.15C41.1701 1.85802 39.3121 0 37.0201 0C34.7281 0 32.8701 1.85802 32.8701 4.15C32.8701 6.44198 34.7281 8.3 37.0201 8.3Z" fill="black"/>
<path d="M12.81 10.8701C5.73 10.8701 0 16.6001 0 23.6801C0 30.7501 5.73 36.4901 12.81 36.4901C19.88 36.4901 25.62 30.7601 25.62 23.6801C25.62 16.6101 19.89 10.8701 12.81 10.8701ZM18.94 29.8101C17.37 31.3801 15.21 32.3501 12.81 32.3501C10.42 32.3501 8.25 31.3801 6.68 29.8101C5.11 28.2401 4.14 26.0801 4.14 23.6801C4.14 21.2901 5.11 19.1201 6.68 17.5501C8.25 15.9801 10.41 15.0101 12.81 15.0101C15.2 15.0101 17.37 15.9801 18.94 17.5501C20.51 19.1201 21.48 21.2801 21.48 23.6801C21.48 26.0701 20.51 28.2401 18.94 29.8101Z" fill="black"/>
<path d="M51.1899 10.8701C44.1199 10.8701 38.3799 16.6001 38.3799 23.6801C38.3799 30.7501 44.1099 36.4901 51.1899 36.4901C58.2599 36.4901 63.9999 30.7601 63.9999 23.6801C63.9999 16.6101 58.2699 10.8701 51.1899 10.8701ZM57.3199 29.8101C55.7499 31.3801 53.5899 32.3501 51.1899 32.3501C48.7999 32.3501 46.6299 31.3801 45.0599 29.8101C43.4899 28.2401 42.5199 26.0801 42.5199 23.6801C42.5199 21.2901 43.4899 19.1201 45.0599 17.5501C46.6299 15.9801 48.7899 15.0101 51.1899 15.0101C53.5799 15.0101 55.7499 15.9801 57.3199 17.5501C58.8899 19.1201 59.8599 21.2801 59.8599 23.6801C59.8599 26.0701 58.8899 28.2401 57.3199 29.8101Z" fill="black"/>
<path d="M33.1698 10.8701L33.0898 11.1701L27.2898 33.8201C27.0698 34.7101 26.7098 35.4301 26.2198 36.0301C25.9998 36.3101 25.6198 36.6401 25.1398 36.9501C24.6598 37.2601 24.0698 37.5401 23.4198 37.7201H23.3698L22.7598 37.9101L24.3698 40.9401L24.7598 40.8801C25.5298 40.7501 26.3398 40.5101 27.0898 40.1901C27.8398 39.8601 28.5498 39.4401 29.1098 38.9401C30.1998 37.9701 30.9698 36.5801 31.4498 34.8501L31.5198 34.6001L37.5298 10.8801H33.1598L33.1698 10.8701Z" fill="black"/>
</g>
<defs>
<clipPath id="clip0_256_218">
<rect width="64" height="40.94" fill="white"/>
</clipPath>
</defs>
</svg>
