<svg
  maxHeight='100%'
  maxWidth='100%'
  width="200"
  height="200"
  viewBox="0 0 200 200"
  fill="none"
  xmlns="http://www.w3.org/2000/svg"
>
  <g clipPath="url(#clip0_313_9788)">
    <path
      d="M100 0C155.234 0 200 44.7754 200 100C200 155.234 155.234 200 100 200C44.7754 200 0 155.229 0 100C0 44.7754 44.7754 0 100 0Z"
      fill="#F5AC37"
    />
    <path
      d="M103.686 107.06H141.684C142.494 107.06 142.877 107.06 142.935 105.998C143.246 102.133 143.246 98.2448 142.935 94.3748C142.935 93.6233 142.562 93.3128 141.747 93.3128H66.1237C65.1877 93.3128 64.9357 93.6233 64.9357 94.5008V105.625C64.9357 107.06 64.9357 107.06 66.4343 107.06H103.686ZM138.691 80.3121C138.799 80.0286 138.799 79.7181 138.691 79.4391C138.057 78.0576 137.305 76.7391 136.432 75.5016C135.118 73.3866 133.57 71.4381 131.806 69.6875C130.974 68.63 130.011 67.6805 128.931 66.875C123.522 62.2715 117.091 59.0134 110.179 57.3754C106.692 56.5924 103.128 56.2189 99.5546 56.2504H65.9932C65.0572 56.2504 64.9312 56.6239 64.9312 57.4384V79.6236C64.9312 80.5597 64.9312 80.8117 66.1192 80.8117H138.241C138.241 80.8117 138.867 80.6857 138.993 80.3121H138.687H138.691ZM138.691 120.061C137.629 119.944 136.558 119.944 135.496 120.061H66.1868C65.2507 120.061 64.9357 120.061 64.9357 121.312V143.002C64.9357 144.001 64.9357 144.253 66.1868 144.253H98.1866C99.7166 144.37 101.247 144.262 102.745 143.943C107.389 143.61 111.957 142.602 116.313 140.941C117.897 140.392 119.427 139.677 120.871 138.817H121.308C128.809 134.916 134.902 128.787 138.745 121.263C138.745 121.263 139.182 120.318 138.691 120.07V120.061ZM52.3761 155.499V155.125V140.563V135.627V120.939C52.3761 120.124 52.3761 120.003 51.3771 120.003H37.814C37.0625 120.003 36.752 120.003 36.752 119.004V107.128H51.2511C52.0611 107.128 52.3761 107.128 52.3761 106.066V94.3163C52.3761 93.5648 52.3761 93.3803 51.3771 93.3803H37.814C37.0625 93.3803 36.752 93.3803 36.752 92.3813V81.3832C36.752 80.6947 36.752 80.5102 37.751 80.5102H51.1881C52.1241 80.5102 52.3761 80.5102 52.3761 79.3221V45.6348C52.3761 44.6358 52.3761 44.3838 53.6271 44.3838H100.5C103.902 44.5188 107.281 44.8923 110.625 45.5088C117.514 46.7823 124.134 49.2438 130.186 52.7584C134.2 55.1209 137.895 57.9739 141.184 61.259C143.66 63.8285 145.892 66.6095 147.872 69.5705C149.838 72.5721 151.472 75.7806 152.754 79.1331C152.912 80.0061 153.749 80.5957 154.622 80.4472H165.809C167.244 80.4472 167.244 80.4472 167.307 81.8242V92.0753C167.307 93.0743 166.934 93.3263 165.93 93.3263H157.304C156.431 93.3263 156.179 93.3263 156.242 94.4513C156.584 98.2583 156.584 102.079 156.242 105.886C156.242 106.948 156.242 107.074 157.434 107.074H167.303C167.739 107.636 167.303 108.199 167.303 108.766C167.366 109.49 167.366 110.224 167.303 110.948V118.513C167.303 119.575 166.992 119.89 166.052 119.89H154.239C153.416 119.733 152.615 120.259 152.426 121.078C149.613 128.391 145.113 134.947 139.299 140.203C137.175 142.116 134.943 143.916 132.612 145.576C130.11 147.016 127.675 148.515 125.11 149.703C120.39 151.827 115.44 153.393 110.359 154.387C105.535 155.251 100.644 155.643 95.734 155.575H52.3581V155.512L52.3761 155.499Z"
      fill="#FEFEFD"
    />
  </g>
  <defs>
    <clipPath id="clip0_313_9788">
      <rect width="200" height="200" fill="white" />
    </clipPath>
  </defs>
</svg>