<svg
  maxHeight='100%'
  maxWidth='100%'
  width="230"
  height="200"
  viewBox="0 0 230 200"
  fill="none"
  xmlns="http://www.w3.org/2000/svg"
>
  <g clipPath="url(#clip0_313_9792)">
    <path
      fillRule="evenodd"
      clipRule="evenodd"
      d="M42.0972 0.982283L0.176253 89.0373C0.0167314 89.3648 -0.0338199 89.7348 0.0319915 90.0931C0.0978028 90.4514 0.276524 90.7792 0.54202 91.0287L113.76 199.519C114.082 199.828 114.51 200 114.956 200C115.402 200 115.83 199.828 116.151 199.519L229.37 91.0355C229.635 90.786 229.814 90.4582 229.88 90.0998C229.946 89.7415 229.895 89.3716 229.736 89.0441L187.815 0.989056C187.679 0.69333 187.462 0.442813 187.188 0.267445C186.914 0.0920761 186.596 -0.00072543 186.27 0.000131083H43.6551C43.3283 -0.00393409 43.0074 0.086632 42.731 0.260904C42.4545 0.435177 42.2344 0.68571 42.0972 0.982283Z"
      fill="#50AF95"
    />
    <path
      fillRule="evenodd"
      clipRule="evenodd"
      d="M129.502 98.0801C128.689 98.1411 124.49 98.3917 115.122 98.3917C107.671 98.3917 102.381 98.1682 100.525 98.0801C71.7311 96.8135 50.2389 91.8011 50.2389 85.7998C50.2389 79.7985 71.7311 74.7929 100.525 73.506V93.0881C102.408 93.2235 107.8 93.5419 115.251 93.5419C124.192 93.5419 128.669 93.1693 129.475 93.0948V73.5195C158.208 74.7997 179.653 79.8121 179.653 85.7998C179.653 91.7876 158.215 96.7999 129.475 98.0733L129.502 98.0801ZM129.502 71.4943V53.9713H169.601V27.25H60.4262V53.9713H100.518V71.4875C67.9312 72.9844 43.4248 79.4395 43.4248 87.1748C43.4248 94.9101 67.9312 101.358 100.518 102.862V159.014H129.495V102.842C162.008 101.345 186.474 94.8966 186.474 87.1681C186.474 79.4395 162.028 72.9912 129.495 71.4875L129.502 71.4943Z"
      fill="white"
    />
  </g>
  <defs>
    <clipPath id="clip0_313_9792">
      <rect width="229.912" height="200" fill="white" />
    </clipPath>
  </defs>
</svg>