<svg
  maxHeight='100%'
  maxWidth='100%'
  width="200"
  height="201"
  viewBox="0 0 200 201"
  fill="none"
  xmlns="http://www.w3.org/2000/svg"
>
  <g clipPath="url(#clip0_314_9802)">
    <path
      d="M197.008 124.204C183.651 177.782 129.385 210.389 75.8004 197.028C22.2386 183.671 -10.3679 129.402 2.99519 75.8283C16.3465 22.2444 70.6123 -10.3645 124.18 2.99268C177.76 16.3499 210.365 70.625 197.006 124.205L197.007 124.204H197.008Z"
      fill="#F7931A"
    />
    <path
      d="M144.1 85.7619C146.091 72.4526 135.958 65.2984 122.102 60.5258L126.597 42.4971L115.623 39.7625L111.247 57.3165C108.362 56.5969 105.399 55.9189 102.454 55.2467L106.862 37.5769L95.8939 34.8423L91.3965 52.8651C89.009 52.3215 86.664 51.7842 84.3889 51.2181L84.4016 51.1614L69.2674 47.3822L66.3481 59.1037C66.3481 59.1037 74.4903 60.9701 74.3187 61.085C78.7628 62.1942 79.5665 65.1361 79.433 67.4679L74.3128 88.0067C74.6188 88.0844 75.0158 88.1969 75.4538 88.3729C75.0876 88.2819 74.698 88.1827 74.2938 88.0859L67.117 116.858C66.5739 118.208 65.1954 120.234 62.0883 119.465C62.1982 119.624 54.1118 117.474 54.1118 117.474L48.6631 130.037L62.9447 133.597C65.6016 134.263 68.2052 134.96 70.7692 135.616L66.2278 153.851L77.1897 156.586L81.6871 138.544C84.6817 139.357 87.5879 140.107 90.433 140.814L85.9508 158.771L96.9258 161.505L101.467 143.304C120.181 146.846 134.252 145.418 140.175 128.491C144.948 114.863 139.937 107.002 130.092 101.876C137.263 100.222 142.664 95.5061 144.104 85.7634L144.101 85.7609L144.1 85.7619ZM119.026 120.923C115.634 134.551 92.689 127.184 85.2498 125.336L91.2763 101.178C98.715 103.035 122.571 106.71 119.027 120.923H119.026ZM122.42 85.5644C119.326 97.9606 100.228 91.6628 94.0333 90.1185L99.4972 68.208C105.692 69.7522 125.643 72.6345 122.421 85.5644H122.42Z"
      fill="white"
    />
  </g>
  <defs>
    <clipPath id="clip0_314_9802">
      <rect width="200" height="200.022" fill="white" />
    </clipPath>
  </defs>
</svg>