<?xml version="1.0" encoding="UTF-8"?>
<svg xmlns="http://www.w3.org/2000/svg" xmlns:xlink="http://www.w3.org/1999/xlink" width="240px" height="240px" viewBox="0 0 240 240" version="1.1">
<g id="surface1">
<path style=" stroke:none;fill-rule:evenodd;fill:rgb(100%,100%,100%);fill-opacity:1;" d="M 186 120 C 186 83.550781 156.449219 54 120 54 C 83.550781 54 54 83.550781 54 120 C 54 156.449219 83.550781 186 120 186 C 156.449219 186 186 156.449219 186 120 Z M 146.398438 120 C 146.398438 105.417969 134.582031 93.601562 120 93.601562 C 105.417969 93.601562 93.601562 105.417969 93.601562 120 C 93.601562 134.578125 105.417969 146.398438 120 146.398438 C 134.582031 146.398438 146.398438 134.578125 146.398438 120 Z M 146.398438 120 "/>
<path style=" stroke:none;fill-rule:evenodd;fill:rgb(9.803922%,72.941176%,100%);fill-opacity:1;" d="M 190.210938 89.070312 C 190.472656 85.628906 191.839844 82.589844 194.308594 79.960938 C 197.070312 77.019531 200.226562 75.546875 203.769531 75.546875 C 207.734375 75.546875 211.039062 77.078125 213.683594 80.140625 C 216.328125 83.207031 217.648438 87.082031 217.648438 91.769531 L 217.648438 98.796875 C 217.648438 99.277344 217.890625 99.519531 218.371094 99.519531 L 239.097656 99.519531 C 239.695312 99.519531 239.996094 99.277344 239.996094 98.796875 L 239.996094 90.324219 C 239.996094 83.417969 238.375 77.199219 235.132812 71.671875 C 231.949219 66.144531 227.621094 61.726562 222.152344 58.425781 C 216.6875 55.179688 210.558594 53.558594 203.769531 53.558594 C 197.28125 53.558594 191.304688 55.238281 185.835938 58.605469 C 183.332031 60.117188 181.058594 61.871094 179.019531 63.867188 C 181.429688 66.222656 183.515625 68.914062 185.273438 71.941406 C 188.371094 77.125 190.015625 82.832031 190.210938 89.070312 Z M 190.210938 89.070312 "/>
<path style=" stroke:none;fill-rule:nonzero;fill:rgb(100%,25.882353%,34.901961%);fill-opacity:1;" d="M 179.019531 175.675781 C 181.046875 177.652344 183.289062 179.390625 185.746094 180.890625 C 191.09375 184.195312 197.101562 185.847656 203.769531 185.847656 C 210.558594 185.847656 216.65625 184.195312 222.0625 180.890625 C 227.472656 177.589844 231.828125 173.144531 235.132812 167.554688 C 238.375 161.96875 239.996094 155.71875 239.996094 148.8125 L 239.996094 118.171875 C 239.996094 117.570312 239.757812 117.269531 239.277344 117.269531 L 204.761719 117.269531 C 204.101562 117.269531 203.769531 117.570312 203.769531 118.171875 L 203.769531 138.808594 C 203.769531 139.40625 204.101562 139.707031 204.761719 139.707031 L 217.648438 139.707031 L 217.648438 148.8125 C 217.648438 152.957031 216.328125 156.46875 213.683594 159.355469 C 211.039062 162.179688 207.734375 163.589844 203.769531 163.589844 C 200.105469 163.589844 196.921875 162.148438 194.21875 159.265625 C 191.808594 156.640625 190.472656 153.585938 190.210938 150.101562 C 190.019531 156.5 188.402344 162.316406 185.363281 167.554688 C 183.5625 170.601562 181.449219 173.308594 179.019531 175.675781 Z M 179.019531 175.675781 "/>
<path style=" stroke:none;fill-rule:evenodd;fill:rgb(9.803922%,72.941176%,100%);fill-opacity:1;" d="M 60.980469 175.675781 C 58.953125 177.652344 56.710938 179.390625 54.253906 180.890625 C 48.90625 184.195312 42.898438 185.847656 36.230469 185.847656 C 29.441406 185.847656 23.34375 184.195312 17.9375 180.890625 C 12.527344 177.589844 8.171875 173.144531 4.867188 167.554688 C 1.625 161.96875 0.00390625 155.71875 0.00390625 148.8125 L 0.00390625 118.171875 C 0.00390625 117.570312 0.242188 117.269531 0.722656 117.269531 L 35.238281 117.269531 C 35.898438 117.269531 36.230469 117.570312 36.230469 118.171875 L 36.230469 138.808594 C 36.230469 139.40625 35.898438 139.707031 35.238281 139.707031 L 22.351562 139.707031 L 22.351562 148.8125 C 22.351562 152.957031 23.671875 156.46875 26.316406 159.355469 C 28.960938 162.179688 32.265625 163.589844 36.230469 163.589844 C 39.894531 163.589844 43.078125 162.148438 45.78125 159.265625 C 48.191406 156.640625 49.527344 153.585938 49.789062 150.101562 C 49.980469 156.5 51.597656 162.316406 54.636719 167.554688 C 56.4375 170.601562 58.550781 173.308594 60.980469 175.675781 Z M 60.980469 175.675781 "/>
<path style=" stroke:none;fill-rule:nonzero;fill:rgb(100%,25.882353%,34.901961%);fill-opacity:1;" d="M 49.789062 89.070312 C 49.527344 85.628906 48.160156 82.589844 45.691406 79.960938 C 42.929688 77.019531 39.773438 75.546875 36.230469 75.546875 C 32.265625 75.546875 28.960938 77.078125 26.316406 80.140625 C 23.671875 83.207031 22.351562 87.082031 22.351562 91.769531 L 22.351562 98.796875 C 22.351562 99.277344 22.109375 99.519531 21.628906 99.519531 L 0.902344 99.519531 C 0.300781 99.519531 0.00390625 99.277344 0.00390625 98.796875 L 0.00390625 90.324219 C 0.00390625 83.417969 1.625 77.199219 4.867188 71.671875 C 8.054688 66.144531 12.378906 61.726562 17.84375 58.425781 C 23.3125 55.179688 29.441406 53.558594 36.230469 53.558594 C 42.71875 53.558594 48.695312 55.238281 54.164062 58.605469 C 56.667969 60.117188 58.941406 61.871094 60.980469 63.867188 C 58.570312 66.222656 56.484375 68.914062 54.726562 71.941406 C 51.628906 77.125 49.984375 82.832031 49.789062 89.070312 Z M 49.789062 89.070312 "/>
<path style=" stroke:none;fill-rule:evenodd;fill:rgb(9.803922%,72.941176%,100%);fill-opacity:1;" d="M 175.675781 60.976562 C 177.652344 58.953125 179.390625 56.710938 180.890625 54.25 C 184.195312 48.902344 185.847656 42.894531 185.847656 36.226562 C 185.847656 29.4375 184.195312 23.339844 180.890625 17.933594 C 177.589844 12.527344 173.144531 8.171875 167.554688 4.867188 C 161.96875 1.621094 155.71875 0 148.8125 0 L 118.171875 0 C 117.570312 0 117.269531 0.238281 117.269531 0.71875 L 117.269531 35.234375 C 117.269531 35.894531 117.570312 36.226562 118.171875 36.226562 L 138.808594 36.226562 C 139.40625 36.226562 139.707031 35.894531 139.707031 35.234375 L 139.707031 22.347656 L 148.8125 22.347656 C 152.957031 22.347656 156.46875 23.671875 159.355469 26.3125 C 162.179688 28.957031 163.589844 32.261719 163.589844 36.226562 C 163.589844 39.890625 162.148438 43.074219 159.265625 45.777344 C 156.640625 48.191406 153.585938 49.527344 150.101562 49.785156 C 156.5 49.976562 162.316406 51.59375 167.554688 54.632812 C 170.601562 56.433594 173.308594 58.550781 175.675781 60.976562 Z M 175.675781 60.976562 "/>
<path style=" stroke:none;fill-rule:nonzero;fill:rgb(43.921569%,100%,57.254902%);fill-opacity:1;" d="M 89.074219 49.785156 C 85.628906 49.523438 82.59375 48.15625 79.964844 45.6875 C 77.019531 42.925781 75.550781 39.769531 75.550781 36.226562 C 75.550781 32.261719 77.082031 28.957031 80.144531 26.3125 C 83.210938 23.671875 87.085938 22.347656 91.769531 22.347656 L 98.800781 22.347656 C 99.28125 22.347656 99.519531 22.109375 99.519531 21.628906 L 99.519531 0.902344 C 99.519531 0.300781 99.28125 0 98.800781 0 L 90.328125 0 C 83.417969 0 77.203125 1.621094 71.675781 4.867188 C 66.148438 8.050781 61.730469 12.375 58.425781 17.84375 C 55.183594 23.308594 53.5625 29.4375 53.5625 36.226562 C 53.5625 42.714844 55.242188 48.691406 58.605469 54.160156 C 60.121094 56.664062 61.875 58.9375 63.867188 60.976562 C 66.226562 58.566406 68.917969 56.480469 71.945312 54.722656 C 77.125 51.625 82.835938 49.980469 89.074219 49.785156 Z M 89.074219 49.785156 "/>
<path style=" stroke:none;fill-rule:evenodd;fill:rgb(9.803922%,72.941176%,100%);fill-opacity:1;" d="M 89.074219 190.214844 C 85.628906 190.476562 82.59375 191.84375 79.964844 194.3125 C 77.019531 197.074219 75.550781 200.230469 75.550781 203.773438 C 75.550781 207.738281 77.082031 211.042969 80.144531 213.6875 C 83.210938 216.328125 87.085938 217.652344 91.769531 217.652344 L 98.800781 217.652344 C 99.28125 217.652344 99.519531 217.890625 99.519531 218.371094 L 99.519531 239.097656 C 99.519531 239.699219 99.28125 240 98.800781 240 L 90.328125 240 C 83.417969 240 77.203125 238.378906 71.675781 235.132812 C 66.148438 231.949219 61.730469 227.625 58.425781 222.15625 C 55.183594 216.691406 53.5625 210.5625 53.5625 203.773438 C 53.5625 197.285156 55.242188 191.308594 58.605469 185.839844 C 60.121094 183.335938 61.875 181.0625 63.867188 179.023438 C 66.226562 181.433594 68.917969 183.519531 71.945312 185.277344 C 77.125 188.375 82.835938 190.019531 89.074219 190.214844 Z M 89.074219 190.214844 "/>
<path style=" stroke:none;fill-rule:nonzero;fill:rgb(43.921569%,100%,57.254902%);fill-opacity:1;" d="M 175.675781 179.023438 C 177.652344 181.046875 179.390625 183.289062 180.890625 185.75 C 184.195312 191.097656 185.847656 197.105469 185.847656 203.773438 C 185.847656 210.5625 184.195312 216.660156 180.890625 222.066406 C 177.589844 227.472656 173.144531 231.828125 167.554688 235.132812 C 161.96875 238.378906 155.71875 240 148.8125 240 L 118.171875 240 C 117.570312 240 117.269531 239.761719 117.269531 239.28125 L 117.269531 204.765625 C 117.269531 204.105469 117.570312 203.773438 118.171875 203.773438 L 138.808594 203.773438 C 139.40625 203.773438 139.707031 204.105469 139.707031 204.765625 L 139.707031 217.652344 L 148.8125 217.652344 C 152.957031 217.652344 156.46875 216.328125 159.355469 213.6875 C 162.179688 211.042969 163.589844 207.738281 163.589844 203.773438 C 163.589844 200.109375 162.148438 196.925781 159.265625 194.222656 C 156.640625 191.808594 153.585938 190.472656 150.101562 190.214844 C 156.5 190.023438 162.316406 188.40625 167.554688 185.367188 C 170.601562 183.566406 173.308594 181.449219 175.675781 179.023438 Z M 175.675781 179.023438 "/>
</g>
</svg>
