<?xml version="1.0" encoding="UTF-8"?>
<!DOCTYPE svg PUBLIC "-//W3C//DTD SVG 1.1//EN" "http://www.w3.org/Graphics/SVG/1.1/DTD/svg11.dtd">
<svg xmlns="http://www.w3.org/2000/svg" version="1.1" width="200px" height="200px" style="shape-rendering:geometricPrecision; text-rendering:geometricPrecision; image-rendering:optimizeQuality; fill-rule:evenodd; clip-rule:evenodd" xmlns:xlink="http://www.w3.org/1999/xlink">
<g><path style="opacity:1" fill="#8855e4" d="M 99.5,-0.5 C 104.5,-0.5 109.5,-0.5 114.5,-0.5C 115.568,0.434475 116.901,0.767809 118.5,0.5C 121.773,4.78666 125.107,9.11999 128.5,13.5C 133.494,17.8273 138.161,22.4939 142.5,27.5C 137.539,29.8645 132.539,31.1979 127.5,31.5C 121.833,25.5 116.167,19.5 110.5,13.5C 106.822,8.79437 103.156,4.12771 99.5,-0.5 Z"/></g>
<g><path style="opacity:1" fill="#9454e7" d="M 118.5,0.5 C 128.921,2.41467 138.588,6.08133 147.5,11.5C 150.146,14.8123 153.146,17.8123 156.5,20.5C 157.429,21.6888 157.762,23.0222 157.5,24.5C 152.623,24.4643 148.29,25.7976 144.5,28.5C 143.833,28.1667 143.167,27.8333 142.5,27.5C 138.161,22.4939 133.494,17.8273 128.5,13.5C 125.107,9.11999 121.773,4.78666 118.5,0.5 Z"/></g>
<g><path style="opacity:1" fill="#7c58e0" d="M 83.5,-0.5 C 88.8333,-0.5 94.1667,-0.5 99.5,-0.5C 103.156,4.12771 106.822,8.79437 110.5,13.5C 107.763,14.031 105.096,14.8644 102.5,16C 107.435,21.6091 112.435,27.2758 117.5,33C 116.944,33.3826 116.611,33.8826 116.5,34.5C 110.833,31.1667 105.167,27.8333 99.5,24.5C 93.509,16.5297 87.509,8.52974 81.5,0.5C 82.4916,0.67158 83.1583,0.338246 83.5,-0.5 Z"/></g>
<g><path style="opacity:1" fill="#8053dd" d="M 110.5,13.5 C 116.167,19.5 121.833,25.5 127.5,31.5C 134.167,38.8333 141.167,45.8333 148.5,52.5C 148.062,53.5063 147.396,53.5063 146.5,52.5C 136.255,46.9249 126.255,40.9249 116.5,34.5C 116.611,33.8826 116.944,33.3826 117.5,33C 112.435,27.2758 107.435,21.6091 102.5,16C 105.096,14.8644 107.763,14.031 110.5,13.5 Z"/></g>
<g><path style="opacity:1" fill="#6f58dc" d="M 81.5,0.5 C 87.509,8.52974 93.509,16.5297 99.5,24.5C 94.806,27.1785 90.1393,29.8452 85.5,32.5C 85.6495,31.448 85.4828,30.448 85,29.5C 78.616,21.2891 72.4493,12.9558 66.5,4.5C 71.3541,2.70279 76.3541,1.36946 81.5,0.5 Z"/></g>
<g><path style="opacity:1" fill="#cec3fa" d="M 99.5,24.5 C 105.167,27.8333 110.833,31.1667 116.5,34.5C 126.255,40.9249 136.255,46.9249 146.5,52.5C 146.5,55.8333 146.5,59.1667 146.5,62.5C 146.5,73.1667 146.5,83.8333 146.5,94.5C 146.799,96.604 146.466,98.604 145.5,100.5C 143.64,101.26 141.973,102.26 140.5,103.5C 127.167,110.833 113.833,118.167 100.5,125.5C 90.9254,121.379 81.5921,116.713 72.5,111.5C 66.3056,107.481 59.8056,103.814 53,100.5C 52.5008,95.8452 52.3342,91.1785 52.5,86.5C 52.3335,75.495 52.5002,64.495 53,53.5C 54.1451,52.3636 55.3117,51.3636 56.5,50.5C 59.2028,48.8193 61.8695,47.1526 64.5,45.5C 71.7036,41.4031 78.7036,37.0698 85.5,32.5C 90.1393,29.8452 94.806,27.1785 99.5,24.5 Z"/></g>
<g><path style="opacity:1" fill="#6157d5" d="M 66.5,4.5 C 72.4493,12.9558 78.616,21.2891 85,29.5C 85.4828,30.448 85.6495,31.448 85.5,32.5C 78.7036,37.0698 71.7036,41.4031 64.5,45.5C 60.44,40.4004 56.6067,35.0671 53,29.5C 52.7452,24.4884 52.9119,19.6551 53.5,15C 52.695,13.8873 52.0283,12.7206 51.5,11.5C 56.0697,8.38356 61.0697,6.05022 66.5,4.5 Z"/></g>
<g><path style="opacity:1" fill="#555cd2" d="M 51.5,11.5 C 52.0283,12.7206 52.695,13.8873 53.5,15C 52.9119,19.6551 52.7452,24.4884 53,29.5C 56.6067,35.0671 60.44,40.4004 64.5,45.5C 61.8695,47.1526 59.2028,48.8193 56.5,50.5C 55.4928,49.1716 54.1595,48.1716 52.5,47.5C 51.3766,42.6201 49.2099,38.2868 46,34.5C 45.5792,29.5962 45.7459,24.9295 46.5,20.5C 46.4387,18.3472 45.4387,17.0138 43.5,16.5C 45.6291,14.0499 48.2957,12.3833 51.5,11.5 Z"/></g>
<g><path style="opacity:1" fill="#486bd4" d="M 37.5,20.5 C 38.2273,22.3234 38.5606,24.1568 38.5,26C 37.5253,30.3622 36.8587,34.5288 36.5,38.5C 38.643,43.1308 40.9763,47.6308 43.5,52C 42.306,56.8038 41.306,61.6371 40.5,66.5C 38.3521,62.737 36.0188,59.0704 33.5,55.5C 31.5563,51.2783 29.8897,46.945 28.5,42.5C 29.6035,37.214 30.2702,31.8806 30.5,26.5C 32.2344,23.7997 34.5677,21.7997 37.5,20.5 Z"/></g>
<g><path style="opacity:1" fill="#884edc" d="M 142.5,27.5 C 143.167,27.8333 143.833,28.1667 144.5,28.5C 151.329,35.1619 158.329,41.6619 165.5,48C 163.607,50.0216 161.273,51.1882 158.5,51.5C 155.921,51.0833 153.754,51.75 152,53.5C 150.855,53.3809 149.688,53.0476 148.5,52.5C 141.167,45.8333 134.167,38.8333 127.5,31.5C 132.539,31.1979 137.539,29.8645 142.5,27.5 Z"/></g>
<g><path style="opacity:1" fill="#5e52cc" d="M 91.5,33.5 C 92.525,33.8966 92.6917,34.5632 92,35.5C 86,44.8333 80,54.1667 74,63.5C 68.9102,60.7064 64.0768,57.5397 59.5,54C 70.341,47.3036 81.0077,40.4703 91.5,33.5 Z"/></g>
<g><path style="opacity:1" fill="#784fd3" d="M 105.5,32.5 C 116.974,39.406 128.307,46.5726 139.5,54C 134.5,57.1667 129.5,60.3333 124.5,63.5C 117.894,53.2779 111.56,42.9445 105.5,32.5 Z"/></g>
<g><path style="opacity:1" fill="#684ece" d="M 116.5,58.5 C 114.418,58.528 112.584,57.8613 111,56.5C 110.667,56.8333 110.333,57.1667 110,57.5C 109.163,55.9926 107.996,55.4926 106.5,56C 107.64,57.9734 108.973,59.8067 110.5,61.5C 109.349,62.731 108.183,62.731 107,61.5C 101.153,63.7293 95.3201,65.0626 89.5,65.5C 87.7566,62.4839 85.4233,60.1506 82.5,58.5C 87.9058,49.3595 93.5725,40.3595 99.5,31.5C 105.428,40.3595 111.094,49.3595 116.5,58.5 Z"/></g>
<g><path style="opacity:1" fill="#3b75d1" d="M 21.5,36.5 C 21.3739,40.9229 20.7072,45.2562 19.5,49.5C 21.3994,52.6285 22.7328,55.9618 23.5,59.5C 22.9206,64.7436 21.5872,69.7436 19.5,74.5C 18.1169,71.4058 16.4502,68.4058 14.5,65.5C 13.3533,61.3932 12.02,57.3932 10.5,53.5C 12.9927,47.0203 16.6593,41.3536 21.5,36.5 Z"/></g>
<g><path style="opacity:0.951" fill="#924adc" d="M 147.5,11.5 C 170.744,24.275 186.744,43.275 195.5,68.5C 192.175,67.8229 189.008,67.8229 186,68.5C 182.666,66.9578 179.166,65.9578 175.5,65.5C 169.226,61.5587 163.56,56.8921 158.5,51.5C 161.273,51.1882 163.607,50.0216 165.5,48C 158.329,41.6619 151.329,35.1619 144.5,28.5C 148.29,25.7976 152.623,24.4643 157.5,24.5C 157.762,23.0222 157.429,21.6888 156.5,20.5C 153.146,17.8123 150.146,14.8123 147.5,11.5 Z"/></g>
<g><path style="opacity:1" fill="#4b61cd" d="M 43.5,16.5 C 45.4387,17.0138 46.4387,18.3472 46.5,20.5C 45.7459,24.9295 45.5792,29.5962 46,34.5C 49.2099,38.2868 51.3766,42.6201 52.5,47.5C 54.1595,48.1716 55.4928,49.1716 56.5,50.5C 55.3117,51.3636 54.1451,52.3636 53,53.5C 52.5002,64.495 52.3335,75.495 52.5,86.5C 51.6236,86.6309 50.9569,86.2975 50.5,85.5C 49.6805,82.5276 48.3471,79.8609 46.5,77.5C 43.7256,74.2867 41.7256,70.62 40.5,66.5C 41.306,61.6371 42.306,56.8038 43.5,52C 40.9763,47.6308 38.643,43.1308 36.5,38.5C 36.8587,34.5288 37.5253,30.3622 38.5,26C 38.5606,24.1568 38.2273,22.3234 37.5,20.5C 39.1475,18.6736 41.1475,17.3403 43.5,16.5 Z"/></g>
<g><path style="opacity:1" fill="#8247d2" d="M 158.5,51.5 C 163.56,56.8921 169.226,61.5587 175.5,65.5C 176.343,67.1733 177.676,68.34 179.5,69C 176.952,70.1495 174.285,70.9829 171.5,71.5C 168.102,71.9072 164.936,72.9072 162,74.5C 161.329,73.7476 160.496,73.4142 159.5,73.5C 154.848,70.1793 150.515,66.5126 146.5,62.5C 146.5,59.1667 146.5,55.8333 146.5,52.5C 147.396,53.5063 148.062,53.5063 148.5,52.5C 149.688,53.0476 150.855,53.3809 152,53.5C 153.754,51.75 155.921,51.0833 158.5,51.5 Z"/></g>
<g><path style="opacity:1" fill="#5055c5" d="M 56.5,57.5 C 61.9128,60.5286 66.9128,64.0286 71.5,68C 66.6827,76.1566 61.8493,84.3232 57,92.5C 56.5001,80.8381 56.3335,69.1714 56.5,57.5 Z"/></g>
<g><path style="opacity:1" fill="#7348cb" d="M 140.5,58.5 C 141.833,69.1667 141.833,79.8333 140.5,90.5C 136.096,82.6946 131.429,75.0279 126.5,67.5C 130.855,63.9906 135.522,60.9906 140.5,58.5 Z"/></g>
<g><path style="opacity:1" fill="#9175d7" d="M 140.5,58.5 C 140.56,57.9569 140.893,57.6236 141.5,57.5C 142.666,69.1524 142.833,80.8191 142,92.5C 141.283,91.9558 140.783,91.2891 140.5,90.5C 141.833,79.8333 141.833,69.1667 140.5,58.5 Z"/></g>
<g><path style="opacity:0.977" fill="#8742d0" d="M 175.5,65.5 C 179.166,65.9578 182.666,66.9578 186,68.5C 189.008,67.8229 192.175,67.8229 195.5,68.5C 196.702,73.647 198.035,78.647 199.5,83.5C 199.5,85.8333 199.5,88.1667 199.5,90.5C 196.802,89.8575 194.135,89.0242 191.5,88C 184.644,82.6357 177.977,77.1357 171.5,71.5C 174.285,70.9829 176.952,70.1495 179.5,69C 177.676,68.34 176.343,67.1733 175.5,65.5 Z"/></g>
<g><path style="opacity:1" fill="#3e60c3" d="M 33.5,55.5 C 36.0188,59.0704 38.3521,62.737 40.5,66.5C 41.7256,70.62 43.7256,74.2867 46.5,77.5C 44.6191,82.2905 42.6191,87.1238 40.5,92C 42.6999,95.3713 44.6999,98.8713 46.5,102.5C 44.3119,107.555 41.6453,112.222 38.5,116.5C 36.6553,113.667 34.9886,110.667 33.5,107.5C 31.6472,103.952 29.9806,100.285 28.5,96.5C 30.8029,91.8941 33.1363,87.2274 35.5,82.5C 33.6134,77.8983 31.6134,73.3983 29.5,69C 30.7378,64.4549 32.0711,59.9549 33.5,55.5 Z"/></g>
<g><path style="opacity:1" fill="#7f40ca" d="M 171.5,71.5 C 177.977,77.1357 184.644,82.6357 191.5,88C 194.135,89.0242 196.802,89.8575 199.5,90.5C 199.5,95.1667 199.5,99.8333 199.5,104.5C 185.405,95.1227 172.072,84.7893 159.5,73.5C 160.496,73.4142 161.329,73.7476 162,74.5C 164.936,72.9072 168.102,71.9072 171.5,71.5 Z"/></g>
<g><path style="opacity:1" fill="#5747c1" d="M 82.5,58.5 C 85.4233,60.1506 87.7566,62.4839 89.5,65.5C 93.8567,70.8524 98.19,76.1857 102.5,81.5C 102.646,83.9424 101.813,84.6091 100,83.5C 98.2196,84.6394 96.3863,85.6394 94.5,86.5C 92.7131,85.1826 91.0464,85.516 89.5,87.5C 88.914,87.2907 88.414,86.9574 88,86.5C 86.0517,87.1094 84.2184,87.776 82.5,88.5C 80.5727,85.2327 78.2394,82.2327 75.5,79.5C 74.5258,77.2573 74.1924,74.924 74.5,72.5C 76.739,67.593 79.4057,62.9264 82.5,58.5 Z"/></g>
<g><path style="opacity:1" fill="#3d6bca" d="M 30.5,26.5 C 30.2702,31.8806 29.6035,37.214 28.5,42.5C 29.8897,46.945 31.5563,51.2783 33.5,55.5C 32.0711,59.9549 30.7378,64.4549 29.5,69C 31.6134,73.3983 33.6134,77.8983 35.5,82.5C 33.1363,87.2274 30.8029,91.8941 28.5,96.5C 26.576,92.9829 24.9094,89.3163 23.5,85.5C 21.8911,81.9459 20.5578,78.2793 19.5,74.5C 21.5872,69.7436 22.9206,64.7436 23.5,59.5C 22.7328,55.9618 21.3994,52.6285 19.5,49.5C 20.7072,45.2562 21.3739,40.9229 21.5,36.5C 23.7881,32.5442 26.7881,29.2109 30.5,26.5 Z"/></g>
<g><path style="opacity:1" fill="#6646c5" d="M 116.5,58.5 C 124.363,71.7221 132.363,84.8887 140.5,98C 139.154,99.6692 137.487,100.836 135.5,101.5C 128.895,95.0597 122.395,88.3931 116,81.5C 111.377,83.6136 106.877,83.6136 102.5,81.5C 98.19,76.1857 93.8567,70.8524 89.5,65.5C 95.3201,65.0626 101.153,63.7293 107,61.5C 108.183,62.731 109.349,62.731 110.5,61.5C 108.973,59.8067 107.64,57.9734 106.5,56C 107.996,55.4926 109.163,55.9926 110,57.5C 110.333,57.1667 110.667,56.8333 111,56.5C 112.584,57.8613 114.418,58.528 116.5,58.5 Z"/></g>
<g><path style="opacity:1" fill="#326dc3" d="M 14.5,65.5 C 16.4502,68.4058 18.1169,71.4058 19.5,74.5C 20.5578,78.2793 21.8911,81.9459 23.5,85.5C 20.0466,91.1554 16.7132,96.9887 13.5,103C 15.1651,106.791 16.3317,110.624 17,114.5C 15.1877,117.28 13.021,119.78 10.5,122C 7.23368,122.212 4.23368,122.046 1.5,121.5C 0.951844,119.374 0.285178,117.374 -0.5,115.5C -0.5,110.833 -0.5,106.167 -0.5,101.5C 0.873441,101.657 2.20677,101.49 3.5,101C 5.72724,98.4359 7.56057,95.6026 9,92.5C 8.61427,88.6496 7.78094,84.8162 6.5,81C 9.08324,75.7197 11.7499,70.553 14.5,65.5 Z"/></g>
<g><path style="opacity:1" fill="#5e41bd" d="M 102.5,81.5 C 106.877,83.6136 111.377,83.6136 116,81.5C 122.395,88.3931 128.895,95.0597 135.5,101.5C 129.298,105.101 122.964,108.434 116.5,111.5C 109.167,103.167 101.833,94.8333 94.5,86.5C 96.3863,85.6394 98.2196,84.6394 100,83.5C 101.813,84.6091 102.646,83.9424 102.5,81.5 Z"/></g>
<g><path style="opacity:0.991" fill="#3176c9" d="M 10.5,53.5 C 12.02,57.3932 13.3533,61.3932 14.5,65.5C 11.7499,70.553 9.08324,75.7197 6.5,81C 7.78094,84.8162 8.61427,88.6496 9,92.5C 7.56057,95.6026 5.72724,98.4359 3.5,101C 2.20677,101.49 0.873441,101.657 -0.5,101.5C -0.5,95.8333 -0.5,90.1667 -0.5,84.5C 1.37183,73.5524 5.0385,63.2191 10.5,53.5 Z"/></g>
<g><path style="opacity:1" fill="#5240b8" d="M 94.5,86.5 C 101.833,94.8333 109.167,103.167 116.5,111.5C 111.099,114.876 105.433,117.876 99.5,120.5C 93.1997,118.017 87.1997,115.017 81.5,111.5C 79.0102,105.883 79.0102,100.216 81.5,94.5C 80.9114,92.5188 81.2447,90.5188 82.5,88.5C 84.2184,87.776 86.0517,87.1094 88,86.5C 88.414,86.9574 88.914,87.2907 89.5,87.5C 91.0464,85.516 92.7131,85.1826 94.5,86.5 Z"/></g>
<g><path style="opacity:1" fill="#4d4abb" d="M 74.5,72.5 C 74.1924,74.924 74.5258,77.2573 75.5,79.5C 78.2394,82.2327 80.5727,85.2327 82.5,88.5C 81.2447,90.5188 80.9114,92.5188 81.5,94.5C 79.0102,100.216 79.0102,105.883 81.5,111.5C 73.5034,107.504 65.8368,103.004 58.5,98C 63.4766,89.1996 68.8099,80.6996 74.5,72.5 Z"/></g>
<g><path style="opacity:1" fill="#753dc3" d="M 146.5,62.5 C 150.515,66.5126 154.848,70.1793 159.5,73.5C 172.072,84.7893 185.405,95.1227 199.5,104.5C 199.5,107.833 199.5,111.167 199.5,114.5C 198.732,116.715 198.065,119.048 197.5,121.5C 186.552,115.742 176.219,108.908 166.5,101C 159.974,98.395 153.307,96.2283 146.5,94.5C 146.5,83.8333 146.5,73.1667 146.5,62.5 Z"/></g>
<g><path style="opacity:1" fill="#3360b9" d="M 23.5,85.5 C 24.9094,89.3163 26.576,92.9829 28.5,96.5C 29.9806,100.285 31.6472,103.952 33.5,107.5C 29.2235,113.458 24.8901,119.458 20.5,125.5C 22.0802,128.723 22.9135,132.056 23,135.5C 21,137.5 19,139.5 17,141.5C 13.9398,140.949 11.1065,140.949 8.5,141.5C 4.99996,135.338 2.66662,128.671 1.5,121.5C 4.23368,122.046 7.23368,122.212 10.5,122C 13.021,119.78 15.1877,117.28 17,114.5C 16.3317,110.624 15.1651,106.791 13.5,103C 16.7132,96.9887 20.0466,91.1554 23.5,85.5 Z"/></g>
<g><path style="opacity:1" fill="#ccc1f7" d="M 69.5,116.5 C 79.4727,122.155 89.4727,127.821 99.5,133.5C 100.739,133.058 101.739,132.391 102.5,131.5C 115.612,124.227 128.612,116.727 141.5,109C 142.793,108.51 144.127,108.343 145.5,108.5C 146.483,112.298 146.817,116.298 146.5,120.5C 146.5,126.167 146.5,131.833 146.5,137.5C 146.664,140.187 146.497,142.854 146,145.5C 139.683,149.399 133.517,153.399 127.5,157.5C 118.546,162.471 109.88,167.805 101.5,173.5C 100.85,173.804 100.183,174.137 99.5,174.5C 92.6081,170.223 85.6081,166.223 78.5,162.5C 75.1237,159.806 71.457,157.473 67.5,155.5C 63.8362,152.665 59.8362,150.332 55.5,148.5C 52.8052,144.382 51.8052,139.716 52.5,134.5C 52.5,125.833 52.5,117.167 52.5,108.5C 58.8097,109.822 64.4764,112.488 69.5,116.5 Z"/></g>
<g><path style="opacity:1" fill="#6938b9" d="M 146.5,94.5 C 153.307,96.2283 159.974,98.395 166.5,101C 176.219,108.908 186.552,115.742 197.5,121.5C 197.101,125.116 196.101,128.45 194.5,131.5C 178.492,126.772 162.492,123.105 146.5,120.5C 146.817,116.298 146.483,112.298 145.5,108.5C 142.866,107.867 141.2,106.2 140.5,103.5C 141.973,102.26 143.64,101.26 145.5,100.5C 146.466,98.604 146.799,96.604 146.5,94.5 Z"/></g>
<g><path style="opacity:1" fill="#3e52b6" d="M 46.5,77.5 C 48.3471,79.8609 49.6805,82.5276 50.5,85.5C 50.9569,86.2975 51.6236,86.6309 52.5,86.5C 52.3342,91.1785 52.5008,95.8452 53,100.5C 59.8056,103.814 66.3056,107.481 72.5,111.5C 68.5163,111.472 67.5163,113.139 69.5,116.5C 64.4764,112.488 58.8097,109.822 52.5,108.5C 52.5,117.167 52.5,125.833 52.5,134.5C 50.9582,135.301 49.2915,135.634 47.5,135.5C 46.5812,132.673 44.9145,130.34 42.5,128.5C 41.6298,124.315 40.2965,120.315 38.5,116.5C 41.6453,112.222 44.3119,107.555 46.5,102.5C 44.6999,98.8713 42.6999,95.3713 40.5,92C 42.6191,87.1238 44.6191,82.2905 46.5,77.5 Z"/></g>
<g><path style="opacity:1" fill="#3356b2" d="M 33.5,107.5 C 34.9886,110.667 36.6553,113.667 38.5,116.5C 40.2965,120.315 41.6298,124.315 42.5,128.5C 36.4007,136.434 29.4007,143.601 21.5,150C 18.5184,150.498 15.5184,150.665 12.5,150.5C 10.8946,147.622 9.56123,144.622 8.5,141.5C 11.1065,140.949 13.9398,140.949 17,141.5C 19,139.5 21,137.5 23,135.5C 22.9135,132.056 22.0802,128.723 20.5,125.5C 24.8901,119.458 29.2235,113.458 33.5,107.5 Z"/></g>
<g><path style="opacity:1" fill="#4c40b0" d="M 72.5,111.5 C 81.5921,116.713 90.9254,121.379 100.5,125.5C 99.3915,126.29 98.0581,126.79 96.5,127C 98.0893,129.095 100.089,130.595 102.5,131.5C 101.739,132.391 100.739,133.058 99.5,133.5C 89.4727,127.821 79.4727,122.155 69.5,116.5C 67.5163,113.139 68.5163,111.472 72.5,111.5 Z"/></g>
<g><path style="opacity:1" fill="#816dc4" d="M 140.5,139.5 C 141.833,132.5 141.833,125.5 140.5,118.5C 140.783,117.711 141.283,117.044 142,116.5C 142.832,124.521 142.665,132.521 141.5,140.5C 140.893,140.376 140.56,140.043 140.5,139.5 Z"/></g>
<g><path style="opacity:1" fill="#563cb2" d="M 140.5,103.5 C 141.2,106.2 142.866,107.867 145.5,108.5C 144.127,108.343 142.793,108.51 141.5,109C 128.612,116.727 115.612,124.227 102.5,131.5C 100.089,130.595 98.0893,129.095 96.5,127C 98.0581,126.79 99.3915,126.29 100.5,125.5C 113.833,118.167 127.167,110.833 140.5,103.5 Z"/></g>
<g><path style="opacity:1" fill="#434cb0" d="M 56.5,116.5 C 61.0381,121.549 65.0381,127.049 68.5,133C 64.9673,136.194 61.134,139.027 57,141.5C 56.5003,133.173 56.3336,124.84 56.5,116.5 Z"/></g>
<g><path style="opacity:1" fill="#453fab" d="M 98.5,138.5 C 96.5183,138.995 94.5183,139.495 92.5,140C 90.3642,143.11 88.3642,146.277 86.5,149.5C 78.3635,139.185 70.3635,128.685 62.5,118C 74.8685,124.022 86.8685,130.856 98.5,138.5 Z"/></g>
<g><path style="opacity:1" fill="#5938b0" d="M 140.5,118.5 C 141.833,125.5 141.833,132.5 140.5,139.5C 136.72,137.56 133.054,135.393 129.5,133C 133.066,128.009 136.732,123.175 140.5,118.5 Z"/></g>
<g><path style="opacity:1" fill="#4935a7" d="M 86.5,149.5 C 88.3642,146.277 90.3642,143.11 92.5,140C 94.5183,139.495 96.5183,138.995 98.5,138.5C 110.857,131.903 123.023,124.903 135,117.5C 123.916,134.463 112.083,151.13 99.5,167.5C 94.6795,161.862 90.3462,155.862 86.5,149.5 Z"/></g>
<g><path style="opacity:0.982" fill="#5d32ad" d="M 146.5,120.5 C 162.492,123.105 178.492,126.772 194.5,131.5C 191.418,141.664 186.752,150.997 180.5,159.5C 168.882,152.537 157.549,145.204 146.5,137.5C 146.5,131.833 146.5,126.167 146.5,120.5 Z"/></g>
<g><path style="opacity:1" fill="#4f34a7" d="M 126.5,137.5 C 131.214,139.025 135.547,141.359 139.5,144.5C 129.5,150.833 119.5,157.167 109.5,163.5C 108.479,162.998 108.312,162.332 109,161.5C 115.051,153.622 120.885,145.622 126.5,137.5 Z"/></g>
<g><path style="opacity:1" fill="#4140a7" d="M 70.5,137.5 C 71.4959,137.414 72.3292,137.748 73,138.5C 78.7995,147.265 84.9662,155.765 91.5,164C 80.6871,158.247 70.0204,151.913 59.5,145C 63.2326,142.477 66.8992,139.977 70.5,137.5 Z"/></g>
<g><path style="opacity:0.975" fill="#3447a6" d="M 52.5,134.5 C 51.8052,139.716 52.8052,144.382 55.5,148.5C 52.031,153.469 48.031,157.969 43.5,162C 47.0487,170.717 50.0487,179.551 52.5,188.5C 47.457,185.985 42.7904,182.985 38.5,179.5C 35.9763,172.285 33.3096,165.118 30.5,158C 37.5747,152.657 43.908,146.657 49.5,140C 48.4178,138.67 47.7512,137.17 47.5,135.5C 49.2915,135.634 50.9582,135.301 52.5,134.5 Z"/></g>
<g><path style="opacity:0.977" fill="#3641a4" d="M 55.5,148.5 C 59.8362,150.332 63.8362,152.665 67.5,155.5C 64.8273,157.506 62.4939,159.839 60.5,162.5C 65.1077,173.658 69.1077,184.992 72.5,196.5C 65.5893,194.419 58.9227,191.753 52.5,188.5C 50.0487,179.551 47.0487,170.717 43.5,162C 48.031,157.969 52.031,153.469 55.5,148.5 Z"/></g>
<g><path style="opacity:0.856" fill="#314ca9" d="M 42.5,128.5 C 44.9145,130.34 46.5812,132.673 47.5,135.5C 47.7512,137.17 48.4178,138.67 49.5,140C 43.908,146.657 37.5747,152.657 30.5,158C 33.3096,165.118 35.9763,172.285 38.5,179.5C 27.6958,171.699 19.0292,162.032 12.5,150.5C 15.5184,150.665 18.5184,150.498 21.5,150C 29.4007,143.601 36.4007,136.434 42.5,128.5 Z"/></g>
<g><path style="opacity:0.98" fill="#462d9f" d="M 127.5,157.5 C 131.56,159.389 135.227,161.889 138.5,165C 140.873,172.636 143.206,180.469 145.5,188.5C 136.065,193.756 126.065,197.422 115.5,199.5C 113.833,199.5 112.167,199.5 110.5,199.5C 107.891,190.672 104.891,182.005 101.5,173.5C 109.88,167.805 118.546,162.471 127.5,157.5 Z"/></g>
<g><path style="opacity:0.97" fill="#4f2da3" d="M 146.5,137.5 C 157.549,145.204 168.882,152.537 180.5,159.5C 171.319,172.245 159.652,181.912 145.5,188.5C 143.206,180.469 140.873,172.636 138.5,165C 135.227,161.889 131.56,159.389 127.5,157.5C 133.517,153.399 139.683,149.399 146,145.5C 146.497,142.854 146.664,140.187 146.5,137.5 Z"/></g>
<g><path style="opacity:0.979" fill="#3a3ba2" d="M 67.5,155.5 C 71.457,157.473 75.1237,159.806 78.5,162.5C 78.0618,162.435 77.7284,162.601 77.5,163C 82.4861,175.905 87.1528,188.071 91.5,199.5C 89.1667,199.5 86.8333,199.5 84.5,199.5C 80.6145,198.51 76.6145,197.51 72.5,196.5C 69.1077,184.992 65.1077,173.658 60.5,162.5C 62.4939,159.839 64.8273,157.506 67.5,155.5 Z"/></g>
<g><path style="opacity:0.992" fill="#3f35a0" d="M 78.5,162.5 C 85.6081,166.223 92.6081,170.223 99.5,174.5C 100.183,174.137 100.85,173.804 101.5,173.5C 104.891,182.005 107.891,190.672 110.5,199.5C 104.167,199.5 97.8333,199.5 91.5,199.5C 87.1528,188.071 82.4861,175.905 77.5,163C 77.7284,162.601 78.0618,162.435 78.5,162.5 Z"/></g>
</svg>
