<?xml version="1.0" encoding="UTF-8"?>
<!DOCTYPE svg PUBLIC "-//W3C//DTD SVG 1.1//EN" "http://www.w3.org/Graphics/SVG/1.1/DTD/svg11.dtd">
<svg xmlns="http://www.w3.org/2000/svg" version="1.1" width="400px" height="400px" style="shape-rendering:geometricPrecision; text-rendering:geometricPrecision; image-rendering:optimizeQuality; fill-rule:evenodd; clip-rule:evenodd" xmlns:xlink="http://www.w3.org/1999/xlink">
<g><path style="opacity:0.967" fill="#fdfdfd" d="M 179.5,-0.5 C 192.833,-0.5 206.167,-0.5 219.5,-0.5C 304.538,11.9461 361.705,58.6127 391,139.5C 394.818,152.765 397.651,166.099 399.5,179.5C 399.5,192.833 399.5,206.167 399.5,219.5C 387.054,304.538 340.387,361.705 259.5,391C 246.235,394.818 232.901,397.651 219.5,399.5C 206.167,399.5 192.833,399.5 179.5,399.5C 94.4616,387.054 37.295,340.387 8,259.5C 4.18196,246.235 1.34862,232.901 -0.5,219.5C -0.5,206.167 -0.5,192.833 -0.5,179.5C 11.9461,94.4616 58.6127,37.295 139.5,8C 152.765,4.18196 166.099,1.34862 179.5,-0.5 Z"/></g>
<g><path style="opacity:1" fill="#1e1e1e" d="M 183.5,14.5 C 250.474,11.5822 304.974,35.9156 347,87.5C 391.055,150.516 396.388,216.849 363,286.5C 329.737,344.736 279.57,377.236 212.5,384C 131.335,386.014 71.5018,351.514 33,280.5C 6.21132,220.934 8.54465,162.601 40,105.5C 73.266,52.2791 121.099,21.9458 183.5,14.5 Z"/></g>
<g><path style="opacity:1" fill="#fcfcfc" d="M 182.5,271.5 C 213.76,272.499 245.76,272.833 278.5,272.5C 278.5,258.167 278.5,243.833 278.5,229.5C 284.167,229.5 289.833,229.5 295.5,229.5C 295.5,249.5 295.5,269.5 295.5,289.5C 249.5,289.5 203.5,289.5 157.5,289.5C 131.698,259.525 106.031,229.358 80.5,199C 105.93,168.814 131.596,138.814 157.5,109C 203.832,108.5 250.165,108.333 296.5,108.5C 296.5,128.833 296.5,149.167 296.5,169.5C 290.5,169.5 284.5,169.5 278.5,169.5C 278.5,155.167 278.5,140.833 278.5,126.5C 246.493,126.167 214.493,126.5 182.5,127.5C 203.353,151.186 224.02,175.019 244.5,199C 223.623,223.039 202.957,247.206 182.5,271.5 Z"/></g>
<g><path style="opacity:1" fill="#1e1e1e" d="M 161.5,131.5 C 181.503,153.647 201.169,176.147 220.5,199C 201.373,221.795 181.873,244.295 162,266.5C 142.36,244.539 123.193,222.206 104.5,199.5C 123.523,176.814 142.523,154.147 161.5,131.5 Z"/></g>
<g><path style="opacity:1" fill="#888888" d="M 296.5,229.5 C 296.167,229.5 295.833,229.5 295.5,229.5C 289.833,229.5 284.167,229.5 278.5,229.5C 278.5,243.833 278.5,258.167 278.5,272.5C 245.76,272.833 213.76,272.499 182.5,271.5C 214.167,271.5 245.833,271.5 277.5,271.5C 277.5,257.167 277.5,242.833 277.5,228.5C 284.022,228.177 290.355,228.51 296.5,229.5 Z"/></g>
<g><path style="opacity:1" fill="#949494" d="M 295.5,229.5 C 295.833,229.5 296.167,229.5 296.5,229.5C 296.5,249.833 296.5,270.167 296.5,290.5C 249.997,290.832 203.664,290.499 157.5,289.5C 203.5,289.5 249.5,289.5 295.5,289.5C 295.5,269.5 295.5,249.5 295.5,229.5 Z"/></g>
</svg>
