<?xml version="1.0" encoding="UTF-8"?>
<!DOCTYPE svg PUBLIC "-//W3C//DTD SVG 1.1//EN" "http://www.w3.org/Graphics/SVG/1.1/DTD/svg11.dtd">
<svg xmlns="http://www.w3.org/2000/svg" version="1.1" width="200px" height="200px" style="shape-rendering:geometricPrecision; text-rendering:geometricPrecision; image-rendering:optimizeQuality; fill-rule:evenodd; clip-rule:evenodd" xmlns:xlink="http://www.w3.org/1999/xlink">
<g><path style="opacity:0.991" fill="#90c227" d="M 99.5,20.5 C 115.819,47.1307 132.152,73.7974 148.5,100.5C 132.061,93.7816 115.728,86.7816 99.5,79.5C 99.5,59.8333 99.5,40.1667 99.5,20.5 Z"/></g>
<g><path style="opacity:0.99" fill="#c1ec67" d="M 99.5,20.5 C 99.5,40.1667 99.5,59.8333 99.5,79.5C 83.0967,86.3023 66.7633,93.3023 50.5,100.5C 66.3458,73.4635 82.6791,46.7968 99.5,20.5 Z"/></g>
<g><path style="opacity:0.996" fill="#a2da2d" d="M 99.5,79.5 C 115.728,86.7816 132.061,93.7816 148.5,100.5C 132.37,110.737 116.036,120.737 99.5,130.5C 99.5,113.5 99.5,96.5 99.5,79.5 Z"/></g>
<g><path style="opacity:0.98" fill="#e2f6b7" d="M 99.5,79.5 C 99.5,96.5 99.5,113.5 99.5,130.5C 82.6299,121.239 66.2966,111.239 50.5,100.5C 66.7633,93.3023 83.0967,86.3023 99.5,79.5 Z"/></g>
<g><path style="opacity:0.991" fill="#c1ec67" d="M 99.5,138.5 C 99.5,151.833 99.5,165.167 99.5,178.5C 82.9814,156.838 66.6481,134.338 50.5,111C 67.0028,119.592 83.3362,128.759 99.5,138.5 Z"/></g>
<g><path style="opacity:0.978" fill="#6b8c1c" d="M 99.5,178.5 C 99.5,165.167 99.5,151.833 99.5,138.5C 114.947,129.56 130.28,120.393 145.5,111C 146.5,110.333 147.5,110.333 148.5,111C 132.512,133.833 116.179,156.333 99.5,178.5 Z"/></g>
</svg>
