<svg width="126" height="125" viewBox="0 0 126 125" fill="none" xmlns="http://www.w3.org/2000/svg">
<path d="M125.382 62.3958C125.382 78.9442 118.808 94.8148 107.106 106.516C95.4047 118.218 79.5341 124.792 62.9857 124.792C46.4373 124.792 30.5667 118.218 18.8652 106.516C7.16368 94.8148 0.589844 78.9442 0.589844 62.3958C0.589844 45.8474 7.16368 29.9768 18.8652 18.2753C30.5667 6.57382 46.4373 0 62.9857 0C79.5341 0 95.4047 6.57382 107.106 18.2753C118.808 29.9768 125.382 45.8474 125.382 62.3958Z" fill="#EABD3D"/>
<path fill-rule="evenodd" clip-rule="evenodd" d="M62.3837 35.4354L56.4056 24.6772C56.388 24.6468 56.3787 24.6122 56.3788 24.5769C56.3789 24.5417 56.3883 24.5072 56.406 24.4768C56.4237 24.4464 56.4492 24.4212 56.4798 24.4038C56.5104 24.3864 56.5451 24.3774 56.5803 24.3777L62.9266 24.3652C63.0433 24.365 63.1582 24.3968 63.2592 24.4572C63.3602 24.5176 63.4437 24.6044 63.5007 24.7084L69.3727 35.6413C69.4224 35.7351 69.4952 35.815 69.5846 35.8738C69.6739 35.9327 69.777 35.9686 69.8844 35.9783C79.357 36.7957 87.8749 40.2341 86.6082 51.5601C86.2296 54.909 84.3991 57.561 81.1168 59.5163C80.7798 59.7118 80.8027 59.8554 81.1854 59.9469C86.4397 61.1762 90.0465 64.4586 90.683 69.9125C91.3694 75.7783 89.8281 82.162 84.5239 85.4569C80.3056 88.0715 74.7705 88.9326 69.847 89.1199C69.8109 89.1209 69.7756 89.1312 69.7446 89.1497C69.7136 89.1681 69.6878 89.1942 69.6696 89.2255C69.6515 89.2567 69.6417 89.2921 69.641 89.3282C69.6404 89.3643 69.649 89.4 69.666 89.4319L75.7315 100.77C75.738 100.783 75.7412 100.797 75.7406 100.811C75.74 100.825 75.7357 100.839 75.7281 100.851C75.7236 100.858 75.7181 100.865 75.7117 100.87C75.7092 100.872 75.7066 100.874 75.7039 100.876C75.7018 100.877 75.6996 100.878 75.6974 100.88C75.6848 100.886 75.6708 100.889 75.6566 100.889H68.9609C68.889 100.889 68.8185 100.87 68.757 100.834C68.6955 100.797 68.6452 100.745 68.6114 100.683L62.5522 89.4756C62.5311 89.4377 62.5009 89.4062 62.4647 89.3842C62.4285 89.3623 62.3876 89.3507 62.3462 89.3508L56.9922 89.2571C56.974 89.2558 56.9559 89.2595 56.9397 89.2677C56.9235 89.2759 56.9098 89.2884 56.9002 89.3038C56.8905 89.3192 56.8853 89.337 56.885 89.3551C56.8847 89.3733 56.8894 89.3912 56.8985 89.4069C59.0493 93.3799 61.094 97.1843 63.0327 100.82C63.0576 100.87 63.0431 100.895 62.989 100.895L56.1809 100.883C56.1352 100.882 56.0908 100.871 56.0524 100.849C56.0139 100.827 55.9829 100.795 55.9625 100.758L49.922 89.4069C49.8747 89.32 49.8045 89.2474 49.7189 89.1969C49.6332 89.1463 49.5352 89.1197 49.4352 89.1199L36.0188 89.1136C35.9628 89.1135 35.9075 89.1011 35.8568 89.0775C35.806 89.0539 35.761 89.0195 35.7248 88.9768C35.6886 88.9341 35.6621 88.884 35.6471 88.8301C35.6322 88.7761 35.6291 88.7196 35.6382 88.6643L36.8987 81.0263C36.9444 80.7684 37.0984 80.6415 37.3605 80.6457C38.8706 80.6873 40.3828 80.6894 41.8971 80.6519C43.7983 80.6103 44.7488 79.7096 44.7488 77.9499C44.7572 68.9515 44.7655 58.7925 44.7738 47.4727C44.7801 45.3635 43.6007 43.6662 41.3542 43.5414C39.5737 43.4416 37.7494 43.4353 35.8815 43.5227C35.8406 43.5252 35.7997 43.5194 35.7611 43.5055C35.7226 43.4916 35.6873 43.4699 35.6575 43.4418C35.6277 43.4138 35.6039 43.3799 35.5877 43.3423C35.5715 43.3046 35.5632 43.2641 35.5633 43.2231L35.5508 36.1967C35.5508 36.1404 35.5732 36.0864 35.6129 36.0466C35.6527 36.0069 35.7067 35.9845 35.763 35.9845L49.2792 35.972C49.3319 35.9717 49.3835 35.9579 49.4292 35.9318C49.4749 35.9057 49.5131 35.8682 49.5401 35.823C49.5671 35.7778 49.5819 35.7265 49.5832 35.6739C49.5846 35.6213 49.5723 35.5692 49.5476 35.5227L43.6568 24.54C43.6473 24.5233 43.6425 24.5046 43.6428 24.4854C43.6431 24.4663 43.6485 24.4474 43.6584 24.4305C43.6684 24.4137 43.6827 24.3994 43.6999 24.3891C43.7171 24.3787 43.7366 24.3727 43.7567 24.3715L50.4961 24.3652C50.5834 24.3652 50.6479 24.4027 50.6895 24.4776L56.7488 35.5726C56.7718 35.6126 56.8047 35.6458 56.8442 35.6689C56.8836 35.6919 56.9282 35.7039 56.9734 35.7037L62.2963 35.5851C62.3139 35.5853 62.3313 35.5808 62.3466 35.5721C62.3619 35.5634 62.3746 35.5508 62.3834 35.5356C62.3923 35.5204 62.397 35.5031 62.3971 35.4855C62.3971 35.4679 62.3925 35.4506 62.3837 35.4354ZM56.9672 44.2341L57.0421 57.8003C57.0421 57.8648 57.0677 57.9267 57.1134 57.9724C57.159 58.018 57.2209 58.0436 57.2854 58.0436L63.5444 58.0062C64.1146 58.0031 64.6795 57.9685 65.2337 57.904C67.2745 57.6758 69.1724 57.0423 70.6499 56.079C72.5127 54.8644 73.5546 53.225 73.5466 51.5211L73.5404 50.323C73.5364 49.4789 73.2746 48.6443 72.7697 47.867C72.2649 47.0896 71.5269 46.3847 70.5981 45.7925C69.6692 45.2003 68.5675 44.7323 67.356 44.4154C66.1446 44.0985 64.8469 43.9389 63.5373 43.9455L57.2784 43.983C57.2577 43.983 57.2373 43.9856 57.2177 43.9907L57.2106 43.9907C57.146 43.9907 57.0841 44.0163 57.0385 44.062C56.9928 44.1076 56.9672 44.1695 56.9672 44.2341ZM57.0046 65.3384V80.5021C57.0046 80.5234 57.0088 80.5445 57.017 80.5642C57.0251 80.5839 57.0371 80.6018 57.0521 80.6169C57.0672 80.6319 57.0851 80.6439 57.1048 80.652C57.1144 80.656 57.1244 80.6591 57.1346 80.6611C57.1348 80.6612 57.135 80.6613 57.1352 80.6614C57.1549 80.6695 57.176 80.6737 57.1973 80.6737H64.8415C68.0109 80.6737 71.0504 79.9269 73.2914 78.5975C75.5325 77.268 76.7915 75.4649 76.7915 73.5849V72.2744C76.7915 70.3943 75.5325 68.5913 73.2914 67.2618C72.4139 66.7413 71.414 66.31 70.3318 65.978C68.6424 65.456 66.7511 65.1762 64.8111 65.1762H57.1669C57.1456 65.1762 57.1245 65.1804 57.1048 65.1885C57.0851 65.1967 57.0672 65.2087 57.0521 65.2237C57.0371 65.2388 57.0251 65.2567 57.017 65.2764C57.0088 65.296 57.0046 65.3171 57.0046 65.3384Z" fill="white"/>
</svg>
