<svg width="240" height="240" viewBox="0 0 240 240" fill="none" xmlns="http://www.w3.org/2000/svg">
<rect width="240" height="240" rx="120" fill="url(#paint0_radial_17_1276)"/>
<path d="M166.504 139.893C165.282 135.656 163.083 132.023 159.894 129.045C157.711 126.946 154.351 124.653 149.828 122.225C154.709 121.817 158.811 120.816 162.127 119.151C165.475 117.474 168.227 115.29 170.425 112.614C172.658 109.931 174.226 106.903 175.075 103.497C176.236 98.8378 175.924 94.1949 174.143 89.5846C172.343 84.9696 169.167 80.9982 164.561 77.6469C162.793 76.3439 160.59 75.142 158.11 73.9954L162.639 55.8329L145.227 51.4917L141.003 68.4342L129.789 65.6384L134.013 48.6958L116.592 44.3523L112.368 61.2948L85.7743 54.6642L82.2274 68.8901L86.2437 69.8915C88.9556 70.5676 90.7551 71.2854 91.5742 72.0179C92.4003 72.7422 92.9344 73.578 93.1215 74.5267C93.318 75.4578 93.019 77.4564 92.2574 80.5108L77.9423 137.926C77.1901 140.943 76.5298 142.792 75.9134 143.545C75.297 144.318 74.4458 144.794 73.3623 145.062C72.3046 145.286 70.3858 145.047 67.6738 144.371L63.6575 143.37L60.1141 157.581L86.7079 164.212L82.4813 181.164L99.9024 185.508L104.129 168.556L114.043 171.027C114.479 171.136 114.911 171.244 115.333 171.349L111.107 188.301L128.518 192.642L133.104 174.25C136.195 174.427 138.953 174.338 141.364 174.002C147.973 173.098 153.5 170.759 157.941 166.982C162.416 163.204 165.306 158.567 166.668 153.106C167.797 148.558 167.748 144.155 166.504 139.893ZM119.282 80.6357L130.562 83.4479C137.149 85.0904 141.649 86.6509 143.998 88.1236C146.337 89.5541 147.967 91.4107 148.828 93.6538C149.711 95.9319 149.801 98.4264 149.13 101.12C148.483 103.714 147.19 105.824 145.288 107.473C143.338 109.119 140.843 110.072 137.783 110.331C134.7 110.624 130.216 110.039 124.314 108.567L113.034 105.755L119.282 80.6357ZM135.283 152.238C132.624 154.271 129.801 155.376 126.698 155.449C123.649 155.546 119.924 155.056 115.546 153.965L108.03 152.091C105.534 151.468 104.036 150.94 103.525 150.529C103.008 150.146 102.746 149.557 102.658 148.813C102.623 148.211 102.935 146.34 103.7 143.152L109.257 120.865L122.572 124.185C128.456 125.652 132.619 127.263 135.209 129.07C137.778 130.857 139.544 132.992 140.396 135.472C141.313 137.928 141.407 140.668 140.64 143.745C139.745 147.355 137.964 150.16 135.283 152.238Z" fill="white"/>
<defs>
<radialGradient id="paint0_radial_17_1276" cx="0" cy="0" r="1" gradientUnits="userSpaceOnUse" gradientTransform="translate(120 -40) rotate(90) scale(185 183.394)">
<stop stop-color="#F4DFBB"/>
<stop offset="1" stop-color="#EFB404"/>
</radialGradient>
</defs>
</svg>
