<svg id="svg" version="1.1" xmlns="http://www.w3.org/2000/svg" xmlns:xlink="http://www.w3.org/1999/xlink" width="400" height="400" viewBox="0, 0, 400,400"><g id="svgg"><path id="path0" d="M66.167 4.521 C 58.561 6.015,55.972 8.469,45.823 23.810 C 35.346 39.647,34.805 40.865,35.086 47.972 L 35.238 51.833 65.128 163.167 C 98.062 285.837,95.702 277.734,99.631 281.642 C 104.800 286.785,105.935 287.000,127.874 287.000 L 145.608 287.000 145.797 288.250 C 146.522 293.032,147.433 305.784,148.339 323.833 C 149.925 355.402,151.670 369.394,156.297 387.650 C 157.721 393.268,158.186 394.142,160.353 395.272 C 163.191 396.751,163.294 396.710,180.078 387.360 C 189.797 381.946,195.404 379.005,195.833 379.096 C 196.200 379.174,205.125 382.958,215.667 387.505 C 236.475 396.481,236.793 396.586,239.314 395.272 C 242.761 393.474,243.060 391.837,241.353 384.100 C 237.462 366.467,235.733 352.466,233.663 321.833 C 232.729 308.016,232.049 299.053,231.486 293.167 C 231.223 290.417,231.006 287.904,231.004 287.583 C 231.000 287.031,233.481 287.000,278.417 286.995 C 330.929 286.990,327.956 287.110,332.347 284.803 C 341.169 280.167,343.737 272.069,340.393 259.424 C 338.479 252.186,338.246 252.667,343.672 252.667 C 356.925 252.667,365.065 245.208,364.582 233.508 C 364.380 228.612,309.404 23.075,306.977 18.139 C 303.417 10.901,296.774 5.944,288.667 4.476 C 284.922 3.798,69.626 3.841,66.167 4.521 M290.089 16.937 C 293.028 18.384,295.437 20.758,296.655 23.408 C 298.444 27.299,353.462 233.315,353.192 235.112 C 352.749 238.069,350.342 240.435,347.159 241.041 C 345.683 241.322,319.299 241.371,245.333 241.229 C 135.988 241.020,130.848 241.071,127.064 242.415 C 121.103 244.532,118.857 246.804,111.145 258.519 C 107.927 263.407,105.237 267.348,105.166 267.277 C 104.801 266.912,46.588 49.227,46.438 47.667 C 46.143 44.590,46.910 43.103,55.383 30.333 C 63.449 18.176,64.060 17.436,66.978 16.292 C 68.431 15.723,73.500 15.699,178.174 15.765 L 287.847 15.833 290.089 16.937 M69.123 37.679 C 65.218 38.875,64.428 44.582,67.364 50.383 C 69.832 55.260,77.667 53.343,77.667 47.862 C 77.667 40.938,73.745 36.264,69.123 37.679 M77.758 67.670 C 75.510 68.177,73.902 69.931,73.509 72.305 C 73.210 74.113,99.691 172.692,100.903 174.285 C 103.648 177.893,109.503 176.580,110.644 172.102 C 111.074 170.416,112.519 176.106,96.480 116.353 C 86.656 79.753,84.022 70.348,83.385 69.591 C 82.007 67.953,79.819 67.206,77.758 67.670 M115.167 209.157 C 111.599 210.447,110.814 212.863,112.188 218.332 C 113.749 224.549,115.164 226.315,118.597 226.328 C 123.439 226.346,125.043 222.989,123.319 216.446 C 121.573 209.818,119.201 207.697,115.167 209.157 M213.667 252.473 C 213.667 252.550,214.049 254.382,214.516 256.543 C 217.829 271.865,219.894 289.425,221.997 320.167 C 223.959 348.830,225.345 361.930,227.866 375.629 C 228.318 378.083,228.622 380.156,228.541 380.236 C 228.461 380.317,221.193 377.296,212.390 373.524 C 199.609 368.048,196.088 366.667,194.910 366.667 C 193.611 366.667,191.902 367.521,180.537 373.849 C 165.175 382.404,166.788 381.691,166.365 380.111 C 163.275 368.573,161.146 349.900,159.834 322.833 C 158.399 293.204,156.312 274.433,152.486 256.738 C 152.036 254.653,151.667 252.809,151.667 252.640 C 151.667 252.456,164.019 252.333,182.667 252.333 C 199.717 252.333,213.667 252.396,213.667 252.473 M330.499 267.371 C 330.810 269.565,330.185 271.481,328.599 273.201 C 326.162 275.845,329.780 275.680,276.499 275.584 L 229.177 275.500 228.613 271.667 C 228.303 269.558,228.039 267.646,228.025 267.417 C 228.005 267.085,237.993 267.000,276.917 266.999 L 325.833 266.998 326.977 266.300 C 327.606 265.917,328.425 265.217,328.796 264.744 L 329.472 263.885 329.877 264.859 C 330.100 265.395,330.380 266.525,330.499 267.371 M143.146 267.917 C 143.430 269.231,144.321 274.756,144.328 275.250 C 144.332 275.577,141.048 275.667,129.000 275.667 C 120.567 275.667,113.667 275.560,113.667 275.430 C 113.667 275.299,114.888 273.349,116.380 271.096 L 119.093 267.000 131.020 267.000 L 142.947 267.000 143.146 267.917 " stroke="none" fill="#040504" fill-rule="evenodd"></path><path id="path1" d="M180.056 35.702 C 159.186 37.558,140.445 47.541,129.673 62.541 L 128.625 64.000 195.873 64.000 L 263.120 64.000 260.977 62.330 C 236.369 43.157,206.551 33.345,180.056 35.702 M119.329 84.178 C 118.898 85.312,117.802 90.802,117.268 94.500 C 116.712 98.351,116.788 111.433,117.390 115.500 L 117.833 118.500 210.417 118.584 C 261.337 118.630,303.000 118.584,303.000 118.481 C 303.000 115.166,293.031 97.205,285.944 87.750 L 282.634 83.333 201.142 83.333 L 119.650 83.333 119.329 84.178 M124.207 140.917 C 127.499 149.230,133.678 160.121,139.715 168.249 L 142.500 171.999 224.832 171.916 L 307.165 171.833 307.741 169.167 C 309.693 160.144,309.988 147.675,308.453 139.083 L 308.259 138.000 215.656 138.000 L 123.052 138.000 124.207 140.917 M161.667 191.455 C 161.667 191.522,163.204 192.777,165.083 194.244 C 206.139 226.297,257.782 230.372,287.667 203.916 C 291.279 200.718,298.333 192.542,298.333 191.553 C 298.333 191.432,267.583 191.333,230.000 191.333 C 192.417 191.333,161.667 191.388,161.667 191.455 M152.000 253.115 C 152.000 253.361,152.455 255.799,153.012 258.531 C 156.825 277.247,158.488 292.545,160.003 322.833 C 161.338 349.537,162.506 360.623,165.550 375.493 C 166.187 378.606,166.740 381.184,166.778 381.222 C 166.816 381.261,172.765 378.002,179.996 373.981 C 187.228 369.960,193.628 366.579,194.217 366.468 C 195.698 366.191,195.987 366.300,212.500 373.416 C 228.985 380.520,228.765 380.429,228.543 380.069 C 227.033 377.627,223.803 348.877,221.831 320.333 C 219.667 289.011,218.327 277.203,214.958 259.750 L 213.591 252.667 182.795 252.667 C 157.233 252.667,152.000 252.743,152.000 253.115 " stroke="none" fill="#ebb424" fill-rule="evenodd"></path><path id="path2" d="M68.833 15.891 C 64.738 16.792,64.044 17.545,55.800 30.036 C 46.930 43.474,46.934 43.467,46.763 46.500 C 46.637 48.730,47.932 53.677,75.935 157.977 L 105.239 267.121 111.399 257.801 C 118.988 246.321,120.914 244.425,127.388 242.060 L 129.833 241.167 239.000 241.000 L 348.167 240.833 349.577 240.025 C 351.472 238.940,352.752 236.950,352.931 234.812 C 353.089 232.926,298.097 26.928,296.497 23.411 C 294.901 19.902,290.756 16.767,286.705 16.005 C 284.946 15.674,70.330 15.561,68.833 15.891 M197.859 35.693 C 218.876 37.769,240.992 46.911,259.812 61.301 L 263.124 63.833 196.007 63.917 C 159.093 63.964,128.822 63.933,128.739 63.850 C 128.412 63.523,133.107 57.985,136.543 54.645 C 147.735 43.767,162.244 37.345,179.667 35.560 C 182.442 35.275,194.526 35.364,197.859 35.693 M73.600 37.802 C 76.777 39.455,78.970 47.056,77.225 50.364 C 74.200 56.099,67.729 53.912,65.879 46.530 C 64.191 39.790,68.361 35.076,73.600 37.802 M82.489 68.469 C 83.160 68.981,83.927 69.872,84.193 70.450 C 84.976 72.146,111.000 169.600,111.000 170.833 C 111.000 176.376,103.532 178.718,100.552 174.110 C 99.518 172.510,73.330 75.141,73.339 72.927 C 73.356 68.362,78.844 65.689,82.489 68.469 M282.797 83.455 C 291.236 93.829,300.413 109.523,303.144 118.250 L 303.378 119.000 210.565 119.000 L 117.752 119.000 117.293 115.750 C 116.134 107.555,116.767 94.205,118.706 85.917 L 119.389 83.000 200.908 83.000 C 269.378 83.000,282.486 83.073,282.797 83.455 M308.951 140.833 C 310.105 148.516,309.518 162.552,307.737 169.833 L 307.167 172.167 224.833 172.167 L 142.500 172.167 139.732 168.500 C 133.284 159.958,124.574 144.224,123.148 138.543 L 122.927 137.665 215.714 137.749 L 308.500 137.833 308.951 140.833 M298.667 191.256 C 298.667 191.397,297.484 193.085,296.038 195.006 C 271.163 228.069,218.049 230.414,173.391 200.420 C 168.813 197.345,161.364 191.675,161.345 191.250 C 161.338 191.112,192.233 191.000,230.000 191.000 C 267.767 191.000,298.667 191.115,298.667 191.256 M119.552 209.214 C 122.538 210.631,125.457 220.194,123.850 223.300 C 121.649 227.557,115.715 227.616,113.535 223.402 C 112.334 221.078,110.921 214.532,111.309 213.089 C 112.287 209.457,116.194 207.620,119.552 209.214 M328.500 265.351 C 326.515 267.464,329.914 267.333,276.844 267.333 C 238.259 267.333,228.333 267.419,228.331 267.750 C 228.330 267.979,228.576 269.779,228.878 271.750 L 229.426 275.333 277.147 275.333 L 324.869 275.333 326.564 274.489 C 329.730 272.911,331.062 269.450,329.936 265.727 L 329.500 264.287 328.500 265.351 M116.551 271.164 C 115.148 273.271,114.000 275.071,114.000 275.164 C 114.000 275.257,120.750 275.333,129.000 275.333 C 143.888 275.333,144.000 275.328,144.000 274.652 C 144.000 274.277,143.752 272.477,143.449 270.652 L 142.898 267.333 131.000 267.333 L 119.103 267.333 116.551 271.164 " stroke="none" fill="#fbfbfb" fill-rule="evenodd"></path><path id="path3" d="M46.433 47.000 C 46.433 48.008,46.496 48.421,46.572 47.917 C 46.648 47.413,46.648 46.587,46.572 46.083 C 46.496 45.579,46.433 45.992,46.433 47.000 M77.751 47.500 C 77.754 48.233,77.823 48.494,77.902 48.079 C 77.982 47.665,77.979 47.065,77.896 46.746 C 77.812 46.427,77.747 46.767,77.751 47.500 M353.091 234.000 C 353.091 234.825,353.156 235.162,353.235 234.750 C 353.315 234.338,353.315 233.662,353.235 233.250 C 353.156 232.838,353.091 233.175,353.091 234.000 M134.766 241.248 C 136.380 241.310,138.930 241.309,140.433 241.248 C 141.937 241.186,140.617 241.136,137.500 241.136 C 134.383 241.137,133.153 241.187,134.766 241.248 M251.250 241.250 C 268.713 241.298,297.288 241.298,314.750 241.250 C 332.213 241.202,317.925 241.163,283.000 241.163 C 248.075 241.163,233.788 241.202,251.250 241.250 M151.705 253.083 C 151.734 253.645,151.782 253.687,151.896 253.252 C 152.039 252.705,153.877 252.665,182.941 252.583 L 213.833 252.497 182.750 252.415 L 151.667 252.333 151.705 253.083 M118.884 267.250 C 118.743 267.478,127.843 267.472,138.833 267.238 C 141.217 267.187,137.738 267.113,131.103 267.073 C 124.468 267.033,118.970 267.112,118.884 267.250 M252.250 267.250 C 265.679 267.298,287.654 267.298,301.083 267.250 C 314.512 267.202,303.525 267.162,276.667 267.162 C 249.808 267.162,238.821 267.202,252.250 267.250 M330.417 268.500 C 330.421 269.233,330.489 269.494,330.569 269.079 C 330.649 268.665,330.646 268.065,330.562 267.746 C 330.479 267.427,330.414 267.767,330.417 268.500 M229.107 274.833 C 229.175 275.497,229.422 275.500,276.671 275.502 L 324.167 275.503 276.774 275.417 C 232.004 275.336,229.372 275.299,229.210 274.749 C 229.077 274.298,229.054 274.317,229.107 274.833 M121.250 275.583 C 125.513 275.636,132.488 275.636,136.750 275.583 C 141.012 275.530,137.525 275.487,129.000 275.487 C 120.475 275.487,116.988 275.530,121.250 275.583 M157.744 291.333 C 157.744 291.975,157.813 292.237,157.896 291.917 C 157.980 291.596,157.980 291.071,157.896 290.750 C 157.813 290.429,157.744 290.692,157.744 291.333 M158.077 295.000 C 158.077 295.642,158.146 295.904,158.230 295.583 C 158.314 295.262,158.314 294.737,158.230 294.417 C 158.146 294.096,158.077 294.358,158.077 295.000 M220.077 297.000 C 220.077 297.642,220.146 297.904,220.230 297.583 C 220.314 297.262,220.314 296.737,220.230 296.417 C 220.146 296.096,220.077 296.358,220.077 297.000 M158.417 298.833 C 158.421 299.567,158.489 299.827,158.569 299.413 C 158.649 298.998,158.646 298.398,158.562 298.079 C 158.479 297.761,158.414 298.100,158.417 298.833 M220.411 300.667 C 220.411 301.308,220.479 301.571,220.563 301.250 C 220.647 300.929,220.647 300.404,220.563 300.083 C 220.479 299.762,220.411 300.025,220.411 300.667 M158.757 303.333 C 158.757 304.158,158.822 304.496,158.902 304.083 C 158.981 303.671,158.981 302.996,158.902 302.583 C 158.822 302.171,158.757 302.508,158.757 303.333 M220.751 304.833 C 220.754 305.567,220.823 305.827,220.902 305.413 C 220.982 304.998,220.979 304.398,220.896 304.079 C 220.812 303.761,220.747 304.100,220.751 304.833 M159.095 308.500 C 159.098 309.417,159.163 309.752,159.239 309.245 C 159.316 308.739,159.314 307.989,159.235 307.579 C 159.156 307.169,159.093 307.583,159.095 308.500 M221.084 309.500 C 221.088 310.233,221.156 310.494,221.236 310.079 C 221.315 309.665,221.312 309.065,221.229 308.746 C 221.146 308.427,221.080 308.767,221.084 309.500 M159.429 314.500 C 159.431 315.417,159.496 315.752,159.573 315.245 C 159.649 314.739,159.647 313.989,159.568 313.579 C 159.489 313.169,159.426 313.583,159.429 314.500 M221.417 314.167 C 221.421 314.900,221.489 315.161,221.569 314.746 C 221.649 314.331,221.646 313.731,221.562 313.413 C 221.479 313.094,221.414 313.433,221.417 314.167 M221.757 319.000 C 221.757 319.825,221.822 320.162,221.902 319.750 C 221.981 319.337,221.981 318.662,221.902 318.250 C 221.822 317.837,221.757 318.175,221.757 319.000 M159.767 321.000 C 159.767 322.008,159.829 322.421,159.905 321.917 C 159.982 321.412,159.982 320.587,159.905 320.083 C 159.829 319.579,159.767 319.992,159.767 321.000 M222.091 324.000 C 222.091 324.825,222.156 325.162,222.235 324.750 C 222.315 324.337,222.315 323.662,222.235 323.250 C 222.156 322.837,222.091 323.175,222.091 324.000 M160.100 328.000 C 160.100 329.008,160.162 329.421,160.239 328.917 C 160.315 328.412,160.315 327.587,160.239 327.083 C 160.162 326.579,160.100 326.992,160.100 328.000 M222.417 328.833 C 222.421 329.567,222.489 329.827,222.569 329.413 C 222.649 328.998,222.646 328.398,222.562 328.079 C 222.479 327.761,222.414 328.100,222.417 328.833 M222.751 333.500 C 222.754 334.233,222.823 334.494,222.902 334.079 C 222.982 333.665,222.979 333.065,222.896 332.746 C 222.812 332.427,222.747 332.767,222.751 333.500 M160.429 334.167 C 160.431 335.083,160.496 335.419,160.573 334.912 C 160.649 334.405,160.647 333.655,160.568 333.245 C 160.489 332.835,160.426 333.250,160.429 334.167 M223.084 337.833 C 223.088 338.567,223.156 338.827,223.236 338.413 C 223.315 337.998,223.312 337.398,223.229 337.079 C 223.146 336.761,223.080 337.100,223.084 337.833 M160.751 339.500 C 160.754 340.233,160.823 340.494,160.902 340.079 C 160.982 339.665,160.979 339.065,160.896 338.746 C 160.812 338.427,160.747 338.767,160.751 339.500 M223.411 342.000 C 223.411 342.642,223.479 342.904,223.563 342.583 C 223.647 342.262,223.647 341.738,223.563 341.417 C 223.479 341.096,223.411 341.358,223.411 342.000 M161.084 344.167 C 161.088 344.900,161.156 345.161,161.236 344.746 C 161.315 344.331,161.312 343.731,161.229 343.413 C 161.146 343.094,161.080 343.433,161.084 344.167 M161.411 348.333 C 161.411 348.975,161.479 349.238,161.563 348.917 C 161.647 348.596,161.647 348.071,161.563 347.750 C 161.479 347.429,161.411 347.692,161.411 348.333 M194.417 366.563 C 194.737 366.647,195.262 366.647,195.583 366.563 C 195.904 366.479,195.642 366.411,195.000 366.411 C 194.358 366.411,194.096 366.479,194.417 366.563 " stroke="none" fill="#7b6522" fill-rule="evenodd"></path><path id="path4" d="M181.254 35.569 C 181.669 35.649,182.269 35.646,182.587 35.562 C 182.906 35.479,182.567 35.414,181.833 35.417 C 181.100 35.421,180.839 35.489,181.254 35.569 M193.921 35.569 C 194.335 35.649,194.935 35.646,195.254 35.562 C 195.573 35.479,195.233 35.414,194.500 35.417 C 193.767 35.421,193.506 35.489,193.921 35.569 M119.333 83.250 C 119.333 83.476,174.560 83.475,253.333 83.248 C 269.558 83.201,246.046 83.126,201.083 83.082 C 156.121 83.037,119.333 83.112,119.333 83.250 M116.751 98.500 C 116.754 99.233,116.823 99.494,116.902 99.079 C 116.982 98.665,116.979 98.065,116.896 97.746 C 116.812 97.427,116.747 97.767,116.751 98.500 M116.751 110.167 C 116.754 110.900,116.823 111.161,116.902 110.746 C 116.982 110.331,116.979 109.731,116.896 109.413 C 116.812 109.094,116.747 109.433,116.751 110.167 M117.667 118.750 C 117.667 118.888,159.442 119.000,210.500 119.000 C 261.558 119.000,303.333 118.888,303.333 118.750 C 303.333 118.612,261.558 118.500,210.500 118.500 C 159.442 118.500,117.667 118.612,117.667 118.750 M215.727 137.916 L 308.287 138.001 308.448 138.751 C 308.590 139.410,308.603 139.400,308.555 138.667 L 308.500 137.833 215.833 137.832 L 123.167 137.832 215.727 137.916 M309.437 148.833 C 309.438 149.933,309.501 150.343,309.575 149.744 C 309.649 149.145,309.648 148.245,309.572 147.744 C 309.495 147.243,309.435 147.733,309.437 148.833 M309.437 156.167 C 309.438 157.267,309.501 157.676,309.575 157.077 C 309.649 156.478,309.648 155.578,309.572 155.077 C 309.495 154.576,309.435 155.067,309.437 156.167 M224.833 172.000 L 142.500 172.169 224.730 172.251 C 279.280 172.306,307.030 172.221,307.167 172.000 C 307.280 171.817,307.326 171.704,307.270 171.749 C 307.213 171.794,270.117 171.907,224.833 172.000 M161.333 191.250 C 161.333 191.387,192.233 191.500,230.000 191.500 C 267.767 191.500,298.667 191.387,298.667 191.250 C 298.667 191.112,267.767 191.000,230.000 191.000 C 192.233 191.000,161.333 191.112,161.333 191.250 M230.417 221.230 C 230.737 221.314,231.262 221.314,231.583 221.230 C 231.904 221.146,231.642 221.077,231.000 221.077 C 230.358 221.077,230.096 221.146,230.417 221.230 M244.417 221.230 C 244.737 221.314,245.262 221.314,245.583 221.230 C 245.904 221.146,245.642 221.077,245.000 221.077 C 244.358 221.077,244.096 221.146,244.417 221.230 M237.256 221.575 C 237.855 221.649,238.755 221.648,239.256 221.572 C 239.757 221.495,239.267 221.435,238.167 221.437 C 237.067 221.438,236.657 221.501,237.256 221.575 " stroke="none" fill="#f4df9b" fill-rule="evenodd"></path></g></svg>