<svg width="200" height="200" viewBox="0 0 200 200" fill="none" xmlns="http://www.w3.org/2000/svg">
<g clip-path="url(#clip0_1145_13)">
<path d="M60.0141 37.1057C63.4401 33.2046 66.5909 29.9037 69.5918 27.1029C18.9277 25.4775 33.6818 62.1127 17.0772 99.298C-1.92809 142.16 19.3278 158.489 50.9866 163.591C46.5655 158.323 42.9579 152.422 40.2836 146.086C19.853 120.254 28.1303 73.1657 60.0141 37.1057Z" fill="#EFE812"/>
<path d="M181.923 82.7695C175.94 98.4219 167.284 112.916 156.341 125.606C147.568 136.268 137.059 145.373 125.257 152.539C111.55 161.224 95.6199 165.75 79.3943 165.568C69.9211 165.653 60.4559 164.992 51.0864 163.592C56.2885 169.806 62.7378 174.858 70.0167 178.421C115.829 200.577 118.705 159.441 167.169 138.56C194.376 126.832 194.476 103.925 181.898 82.7695" fill="#EDE70A"/>
<path d="M125.257 40.006C131.889 41.1669 138.28 43.4323 144.162 46.7079C159.573 55.3726 172.558 67.7727 181.923 82.7679C190.175 59.5115 186.324 41.2564 168.294 37.9555C148.439 34.3295 132.934 33.1541 118.03 22.7512C99.675 9.99771 83.5706 14.1489 69.6167 27.1275L72.6425 27.2525C91.9979 28.4028 110.503 32.2539 125.157 39.956" fill="#EDE70A"/>
<path d="M60.0138 37.1071C28.13 73.1671 19.8527 120.255 40.3834 146.087C35.634 134.874 33.5613 122.709 34.3296 110.555C35.0979 98.4015 38.686 86.594 44.8096 76.0679C62.0894 47.2599 96.774 34.7564 125.257 40.0079C110.503 32.2057 91.9977 28.4547 72.7424 27.3043L69.7165 27.1543C66.6157 30.0051 63.4648 33.206 60.0138 37.1071Z" fill="#DEC21C"/>
<path d="M144.162 46.6597C138.276 43.4015 131.886 41.153 125.257 40.0078C144.662 50.2106 157.541 67.5155 157.541 94.8731C157.428 106.421 154.413 117.756 148.771 127.833C143.129 137.91 135.043 146.406 125.257 152.539C137.065 145.381 147.574 136.275 156.34 125.607C167.284 112.916 175.94 98.4221 181.923 82.7697C172.564 67.7561 159.579 55.3383 144.162 46.6597Z" fill="#E5CB22"/>
<path d="M125.257 40.006C96.7738 34.7546 62.0892 47.258 44.8094 75.941C38.6602 86.4806 35.0578 98.3109 34.2893 110.489C33.5209 122.667 35.6076 134.856 40.3832 146.085C43.048 152.427 46.6564 158.328 51.0862 163.59C60.4557 164.99 69.9209 165.651 79.394 165.566C95.6197 165.748 111.55 161.223 125.257 152.537C135.045 146.406 143.132 137.911 148.774 127.833C154.416 117.756 157.431 106.42 157.541 94.8713C157.541 67.5137 144.662 50.2089 125.257 40.006ZM122.056 139.534C111.522 146.3 98.7366 148.62 86.4965 145.986C74.2564 143.353 63.557 135.98 56.7377 125.48C42.5838 103.649 49.5858 75.4659 70.8166 60.4617C94.5732 43.582 125.032 50.2339 136.135 74.5156C146.963 98.1722 143.987 125.505 122.056 139.534Z" fill="#CCA727"/>
</g>
<defs>
<clipPath id="clip0_1145_13">
<rect width="180" height="169.797" fill="white" transform="translate(10 15)"/>
</clipPath>
</defs>
</svg>
