<svg width="200" height="200" viewBox="0 0 200 200" fill="none" xmlns="http://www.w3.org/2000/svg">
<g clip-path="url(#clip0_1145_13)">
<path d="M55.5709 30.5628C59.3775 26.2282 62.8785 22.5606 66.2128 19.4486C9.91934 17.6425 26.3128 58.3483 7.86321 99.6653C-13.2538 147.29 10.3639 165.434 45.5403 171.102C40.628 165.248 36.6195 158.692 33.6482 151.652C10.9474 122.95 20.1444 70.6295 55.5709 30.5628Z" fill="#EFE812"/>
<path d="M191.025 81.2988C184.377 98.6904 174.76 114.795 162.601 128.895C152.853 140.742 141.177 150.859 128.063 158.82C112.834 168.471 95.133 173.499 77.1045 173.297C66.5788 173.391 56.0619 172.657 45.6514 171.102C51.4314 178.006 58.5974 183.62 66.685 187.578C117.588 212.196 120.783 166.489 174.632 143.288C204.862 130.257 204.973 104.805 190.997 81.2988" fill="#EDE70A"/>
<path d="M128.063 33.7851C135.433 35.075 142.533 37.5921 149.069 41.2317C166.192 50.8591 180.62 64.637 191.025 81.2983C200.195 55.4578 195.916 35.1744 175.882 31.5067C153.821 27.4778 136.594 26.1719 120.033 14.6131C99.6389 0.442546 81.745 5.05494 66.2407 19.4756L69.6028 19.6145C91.1087 20.8927 111.67 25.1716 127.952 33.7296" fill="#EDE70A"/>
<path d="M55.5712 30.5625C20.1447 70.6292 10.9477 122.949 33.7596 151.652C28.4825 139.192 26.1795 125.675 27.0332 112.171C27.8868 98.6675 31.8736 85.548 38.6776 73.8523C57.8774 41.8434 96.4159 27.9507 128.064 33.7857C111.67 25.1166 91.1088 20.9488 69.714 19.6706L66.352 19.5039C62.9066 22.6715 59.4056 26.228 55.5712 30.5625Z" fill="#DEC21C"/>
<path d="M149.069 41.1761C142.53 37.5559 135.429 35.0576 128.063 33.7852C149.625 45.1216 163.935 64.3492 163.935 94.7465C163.81 107.578 160.459 120.172 154.19 131.369C147.922 142.566 138.937 152.006 128.063 158.82C141.183 150.867 152.861 140.749 162.601 128.895C174.76 114.795 184.378 98.6899 191.025 81.2984C180.627 64.6166 166.199 50.8191 149.069 41.1761Z" fill="#E5CB22"/>
<path d="M128.063 33.7864C96.4155 27.9515 57.877 41.8442 38.6772 73.7142C31.8447 85.4249 27.8421 98.5696 26.9882 112.101C26.1344 125.632 28.453 139.176 33.7592 151.652C36.7201 158.698 40.7295 165.256 45.6514 171.102C56.062 172.658 66.5788 173.392 77.1046 173.297C95.1331 173.5 112.834 168.472 128.063 158.821C138.938 152.009 147.924 142.569 154.193 131.372C160.462 120.175 163.812 107.58 163.934 94.7478C163.934 64.3505 149.625 45.1229 128.063 33.7864ZM124.507 144.373C112.802 151.891 98.5963 154.469 84.9962 151.542C71.3961 148.616 59.5079 140.424 51.9309 128.757C36.2043 104.501 43.9843 73.1863 67.5742 56.515C93.9704 37.7597 127.813 45.1507 140.15 72.1304C152.181 98.4155 148.875 128.785 124.507 144.373Z" fill="#CCA727"/>
</g>
<defs>
<clipPath id="clip0_1145_13">
<rect width="200" height="188.664" fill="white" transform="translate(0 6)"/>
</clipPath>
</defs>
</svg>
