<svg width="512" height="512" viewBox="0 0 512 512" fill="none" xmlns="http://www.w3.org/2000/svg">
<g clip-path="url(#clip0_3743_131992)">
<circle cx="256" cy="256" r="256" fill="#F7931A"/>
<rect x="208.186" y="122.818" width="10.6545" height="10.6545" fill="#69DFFA"/>
<rect x="218.834" y="122.818" width="10.6545" height="10.6545" fill="#69DFFA"/>
<rect x="261.448" y="122.818" width="10.6545" height="10.6545" fill="#69DFFA"/>
<rect x="272.108" y="122.818" width="10.6545" height="10.6545" fill="#69DFFA"/>
<rect x="282.757" y="122.818" width="10.6545" height="10.6545" fill="#69DFFA"/>
<path d="M208.186 133.474V165.436H229.488V133.474H208.186Z" fill="#69DFFA"/>
<path d="M261.448 133.474H272.103V165.436H250.8V154.781H261.448V133.474Z" fill="#69DFFA"/>
<path d="M272.108 133.474V165.436V176.091H293.411V154.783V133.474H272.108Z" fill="#69DFFA"/>
<path d="M133.591 154.783H144.245V176.091H133.591V154.783Z" fill="#69DFFA"/>
<path d="M144.261 154.781V165.436H165.564V154.781H144.261Z" fill="#69DFFA"/>
<path d="M165.569 154.781V165.436V176.091H197.521V154.782L165.569 154.781Z" fill="#69DFFA"/>
<path d="M197.526 154.781H208.181V165.436H197.526V154.781Z" fill="#69DFFA"/>
<path d="M229.491 154.781V165.436H250.794V154.781H229.491Z" fill="#69DFFA"/>
<path d="M293.415 154.781V165.436H314.718V154.781H293.415Z" fill="#69DFFA"/>
<path d="M325.38 154.782H314.726V176.091H325.38V154.782Z" fill="#69DFFA"/>
<path d="M144.261 165.436V176.091H165.564V165.436H144.261Z" fill="#69DFFA"/>
<path d="M197.526 165.436H208.181V176.091H197.526V165.436Z" fill="#69DFFA"/>
<path d="M208.186 165.436V176.091H229.488V165.436H208.186Z" fill="#69DFFA"/>
<path d="M229.491 165.436V176.091H250.794V165.436H229.491Z" fill="#69DFFA"/>
<path d="M250.8 165.436V176.091H272.103V165.436H250.8Z" fill="#69DFFA"/>
<path d="M293.415 165.436V176.091H314.718V165.436H293.415Z" fill="#69DFFA"/>
<path d="M133.591 176.091H144.245V186.746H133.591V176.091Z" fill="#69DFFA"/>
<path d="M144.261 176.091V186.746H165.564V176.091H144.261Z" fill="#69DFFA"/>
<path d="M165.569 176.091V186.746H176.218V197.4H197.521V176.091H165.569Z" fill="#69DFFA"/>
<path d="M197.526 176.091H208.181V197.401H197.526V176.091Z" fill="#69DFFA"/>
<path d="M208.186 176.091V197.4H229.488V176.091H208.186Z" fill="#69DFFA"/>
<path d="M229.491 176.091V186.746H250.794V176.091H229.491Z" fill="#69DFFA"/>
<path d="M250.8 176.091V186.746H272.103V176.091H250.8Z" fill="#69DFFA"/>
<path d="M272.108 176.091V186.746H293.411V176.091H272.108Z" fill="#69DFFA"/>
<path d="M293.415 176.091V186.746H304.063V197.401H314.718V176.091H293.415Z" fill="#69DFFA"/>
<path d="M325.38 176.091H314.726V197.4H325.38V176.091Z" fill="#69DFFA"/>
<path d="M325.382 186.745V197.4H346.685V186.745H325.382Z" fill="#69DFFA"/>
<path d="M357.345 186.745H346.69V197.4H357.345V186.745Z" fill="#69DFFA"/>
<path d="M176.218 197.4H197.521V250.672H176.218V218.71V197.4Z" fill="#69DFFA"/>
<path d="M197.526 197.401H208.181V218.709H197.526V197.401Z" fill="#69DFFA"/>
<path d="M208.186 197.4V218.709H229.488V197.4H208.186Z" fill="#69DFFA"/>
<path d="M314.718 197.401H304.063V218.709H314.718V197.401Z" fill="#69DFFA"/>
<path d="M314.726 197.4H325.38V229.362H314.726V197.4Z" fill="#69DFFA"/>
<path d="M325.382 197.4V218.709H346.685V197.4H325.382Z" fill="#69DFFA"/>
<path d="M357.345 197.4H346.69V218.709H357.345V197.4Z" fill="#69DFFA"/>
<path d="M197.526 218.709H208.181V250.672H197.526V218.709Z" fill="#69DFFA"/>
<path d="M208.186 218.709V250.672H229.488V218.709H208.186Z" fill="#69DFFA"/>
<path d="M314.718 218.709H304.063V240.018H293.415V250.672H314.718V218.709Z" fill="#69DFFA"/>
<path d="M325.382 218.709V240.018H346.685V218.709H325.382Z" fill="#69DFFA"/>
<path d="M357.345 218.709H346.69V240.018H357.345V218.709Z" fill="#69DFFA"/>
<path d="M314.726 229.362H325.38V250.672H314.726V229.362Z" fill="#69DFFA"/>
<path d="M229.491 240.018V250.672H250.794V240.018H229.491Z" fill="#69DFFA"/>
<path d="M250.8 240.018V250.672H272.103V240.018H250.8Z" fill="#69DFFA"/>
<path d="M272.108 240.018V250.672H293.411V240.018H272.108Z" fill="#69DFFA"/>
<path d="M176.037 250.673V271.981H197.34V250.673H176.037Z" fill="#0EBFD7"/>
<path d="M197.346 250.673H208V271.982H197.346V250.673Z" fill="#0EBFD7"/>
<path d="M208.005 250.673V271.981H229.308V250.673H208.005Z" fill="#0EBFD7"/>
<path d="M229.311 250.673V261.327H250.613V250.673H229.311Z" fill="#0EBFD7"/>
<path d="M250.619 250.673V261.327H271.922V250.673H250.619Z" fill="#0EBFD7"/>
<path d="M271.928 250.673V261.327H293.231V250.673H271.928Z" fill="#0EBFD7"/>
<path d="M293.234 250.673V261.327H314.537V250.673H293.234Z" fill="#0EBFD7"/>
<path d="M325.199 250.673H314.545V271.981H325.199V250.673Z" fill="#0EBFD7"/>
<path d="M325.201 261.326H346.504V271.981H325.201V261.326Z" fill="#0EBFD7"/>
<path d="M346.51 261.326H367.813V271.981H346.51V261.326Z" fill="#0EBFD7"/>
<path d="M367.818 261.327H378.473V271.982H367.818V261.327Z" fill="#0EBFD7"/>
<path d="M176.037 271.981V303.944V314.599H165.389V325.253V346.562H197.34V303.945V271.981H176.037Z" fill="#0EBFD7"/>
<path d="M208 271.982H197.346V303.945H208V271.982Z" fill="#0EBFD7"/>
<path d="M208.005 271.981H229.308V303.944H208.005V271.981Z" fill="#0EBFD7"/>
<path d="M314.545 271.981H325.199V293.29H314.545V271.981Z" fill="#0EBFD7"/>
<path d="M325.201 271.981V303.944H346.504V271.981H325.201Z" fill="#0EBFD7"/>
<path d="M346.51 271.981V303.944H367.813V271.981H346.51Z" fill="#0EBFD7"/>
<path d="M378.473 271.982H367.818V303.945H378.473V271.982Z" fill="#0EBFD7"/>
<path d="M314.545 293.29H325.199V314.599H314.545V293.29Z" fill="#0EBFD7"/>
<path d="M197.346 303.945H208V325.253H197.346V303.945Z" fill="#0EBFD7"/>
<path d="M208.005 303.944V325.253H229.308V303.944H208.005Z" fill="#0EBFD7"/>
<path d="M325.201 303.944H346.504V325.253H325.201V303.944Z" fill="#0EBFD7"/>
<path d="M346.51 303.944H367.813V325.253H346.51V303.944Z" fill="#0EBFD7"/>
<path d="M367.818 303.945H378.473V325.253H367.818V303.945Z" fill="#0EBFD7"/>
<path d="M144.065 314.601H133.41V346.563H144.065V314.601Z" fill="#0EBFD7"/>
<path d="M144.08 314.599H165.383V325.253H144.08V314.599Z" fill="#0EBFD7"/>
<path d="M229.311 314.599H250.613V325.253H229.311V314.599Z" fill="#0EBFD7"/>
<path d="M250.619 314.599H271.922V325.253H250.619V314.599Z" fill="#0EBFD7"/>
<path d="M271.928 314.599H282.582V314.601H293.231V346.562H271.928V325.254V314.599Z" fill="#0EBFD7"/>
<path d="M293.234 314.599H314.537V325.253H293.234V314.599Z" fill="#0EBFD7"/>
<path d="M314.545 314.599H325.199V346.562H314.545V314.599Z" fill="#0EBFD7"/>
<path d="M144.08 325.253V346.562H165.383V325.253H144.08Z" fill="#0EBFD7"/>
<path d="M197.346 325.253H208V346.563H197.346V325.253Z" fill="#0EBFD7"/>
<path d="M208.005 325.253V346.562H229.308V325.253H208.005Z" fill="#0EBFD7"/>
<path d="M229.311 325.253V346.562H250.613V325.253H229.311Z" fill="#0EBFD7"/>
<path d="M250.619 325.253V346.562H261.268H271.922V325.253H250.619Z" fill="#0EBFD7"/>
<path d="M293.234 325.253V346.563H314.537V325.253H293.234Z" fill="#0EBFD7"/>
<path d="M325.201 325.253H346.504V346.562H325.201V325.253Z" fill="#0EBFD7"/>
<path d="M208.005 346.562H229.308V357.217H208.005V346.562Z" fill="#0EBFD7"/>
<path d="M261.268 346.562H271.922V357.217H261.268V346.562Z" fill="#0EBFD7"/>
<path d="M271.928 346.562V357.217H282.576V357.219H271.928V389.18H293.231V367.872V346.562H271.928Z" fill="#0EBFD7"/>
<path d="M208.004 357.219L208.005 389.18H229.308L229.307 357.219H208.004Z" fill="#0EBFD7"/>
<path d="M271.922 357.217H261.268V389.18H271.922V357.217Z" fill="#0EBFD7"/>
<path fill-rule="evenodd" clip-rule="evenodd" d="M197.399 90.8555H186.744V101.51H176.096V112.164V112.164V122.818H165.447V133.473H176.096H176.102H186.75V122.819V122.818V112.164V112.164V101.51H197.399V90.8555ZM208.059 90.8555H197.404V101.51H208.059V90.8555ZM208.063 90.8555H218.712H218.718H229.366V101.51H218.718H218.712H208.063V90.8555ZM229.369 90.8555H240.018H240.024H250.672V101.51H240.024H240.018H229.369V90.8555ZM250.678 90.8555H261.326H261.332H271.981V101.51H261.332H261.326H250.678V90.8555ZM271.986 90.8555H282.635H282.641H293.289V101.51H282.641H282.635H271.986V90.8555ZM293.293 90.8555H303.947V101.51H314.596V112.164H303.941V101.51H293.293V90.8555ZM314.604 112.164H325.258V122.818V122.819V133.473H314.604V122.819V122.818V112.164ZM144.123 133.473H133.477V133.474H122.828V144.128H112.174V133.474H122.822V122.819H133.469V122.818H144.123V133.473ZM154.787 122.818H144.139V133.473H154.787H154.793H165.442V122.818H154.793H154.787ZM325.26 122.818H335.908H335.914H346.563V133.473H335.914H335.908H325.26V122.818ZM101.514 133.474H112.168V144.128V144.128V154.782V154.782V165.437V165.437V176.091H101.514V165.437V165.437V154.782V154.782V144.128V144.128V133.474ZM346.568 133.474H357.223V144.127V144.128V154.781H367.871V165.436H357.217V154.781H346.568V144.128V144.127V133.474ZM378.531 154.781H367.877V165.436H378.531V154.781ZM389.18 165.437H378.525V176.091H389.18V165.437ZM101.514 176.092H112.168V186.746V186.746V197.4H101.514V186.746V186.746V176.092ZM389.18 176.092H378.525V186.746V197.401H389.18V186.746V176.092ZM101.514 197.4H112.168V208.055H101.514V197.4ZM122.828 197.401H112.174V208.056H122.822V218.709H133.469H133.477H144.123V208.055H133.477H133.469H122.828V197.401ZM378.525 197.401H389.18V208.055V208.056V218.709H378.525V208.056V208.055V197.401ZM154.793 208.055H144.139V218.709H154.793V208.055ZM154.793 218.71H144.139V229.363V229.364V240.018V240.018V250.672H154.793V240.018V240.018V229.364V229.363V218.71ZM378.525 218.71H389.18V229.364V240.019H378.525V229.364V218.71ZM389.193 240.018H399.848V250.672H389.193V240.018ZM154.793 250.673H144.139V261.326V261.327V271.981H154.793V261.327V261.326V250.673ZM399.832 250.673H410.487V261.327V261.327V271.981H399.832V261.327V261.327V250.673ZM154.793 271.981H144.139V282.636V282.636V293.29H154.793V282.636V282.636V271.981ZM399.832 271.982H410.487V282.636V282.636V293.29V293.29V303.944H399.832V293.29V293.29V282.636V282.636V271.982ZM133.469 282.636H122.822V293.29H112.174V303.945H122.828V293.29H133.469H133.477H144.123V282.636H133.477H133.469ZM112.168 303.945H101.514V314.599H112.168V303.945ZM399.832 303.945H410.487V314.599V314.599V325.253H399.832V314.599V314.599V303.945ZM112.168 314.601H101.514V325.254V325.255V335.908V335.908V346.563H112.168V335.908V335.908V325.255V325.254V314.601ZM399.832 325.254H410.487V335.908H399.848V346.562H389.193V335.907H399.832V325.254ZM112.168 346.563H101.514V357.217V357.218V367.872H112.168V357.218V357.217V346.563ZM367.877 346.563H378.525H378.531H389.18V357.218H378.531H378.525H367.877V346.563ZM378.531 357.219H367.877V367.873H378.531V357.219ZM112.174 367.872H122.822H122.828H133.469H133.477H144.123V378.527H133.477H133.469H122.828H122.822H112.174V367.872ZM154.787 367.872H144.139V378.527H154.787H154.793H165.442V367.872H154.793H154.787ZM176.096 367.872H165.447V378.527H176.096V389.18H186.75V378.527V378.525V367.872H176.102H176.096ZM325.258 367.872H314.604V378.525V378.527V389.18H325.258V378.527V378.525V367.872ZM325.26 367.872H335.908H335.914H346.563V378.527H335.914H335.908H325.26V367.872ZM346.568 367.872H357.217H357.223H367.871V378.527H357.223H357.217H346.568V367.872ZM176.096 389.181H186.75V399.835V410.489L197.399 410.489V421.144H186.744V410.489L176.096 410.489V399.835V389.181ZM325.258 389.181H314.604V399.835H325.258V389.181ZM314.596 399.835H303.941V410.489H314.596V399.835ZM208.059 410.49H197.404V421.145H208.059V410.49ZM208.063 410.49H218.712H218.718H229.366V421.145H218.718H218.712H208.063V410.49ZM229.369 410.49H240.018H240.024H250.672V421.145H240.024H240.018H229.369V410.49ZM250.678 410.49H261.326H261.332H271.981V421.145H261.332H261.326H250.678V410.49ZM271.986 410.49H282.635H282.641H293.289V421.145H282.641H282.635H271.986V410.49ZM293.293 410.49H303.947V421.145H293.293V410.49ZM261.326 208.055H250.678V218.709H261.326H261.332H271.981V208.055H261.332H261.326ZM271.986 208.055H282.641V218.709H271.986V208.055ZM261.326 282.636H250.678V293.29H261.326H261.332H271.981V282.636H261.332H261.326ZM282.635 282.636H271.986V293.29H282.635H282.641H293.289V282.636H282.641H282.635Z" fill="white"/>
<path fill-rule="evenodd" clip-rule="evenodd" d="M208.008 101.509H218.656H218.662H229.311V112.164V122.819H218.662H218.656H208.008V112.164V101.509ZM197.343 101.51H186.688V112.164V122.819V133.474H176.046H176.04H165.392V144.127V144.128V154.781H176.04H176.046L186.688 154.782H197.343V144.128V133.474V122.819V112.164V101.51ZM208.003 101.51H197.349V112.164V122.818V122.819V133.473V144.128V154.782H208.003V144.128V133.473V122.819V122.818V112.164V101.51ZM229.313 101.51H239.962H239.968H250.616V112.164V122.819V133.473V144.127V144.128V154.781H239.968H239.962H229.313V144.128V144.127V133.473V122.818V112.164V101.51ZM250.622 101.51H261.27H261.276H271.925V112.164V122.819H261.276V133.473V144.127V144.128V154.781H250.622V144.128V144.127V133.473V122.818V112.164V101.51ZM271.931 101.509H282.579H282.585H293.233V112.164V112.165L303.886 112.165H314.54V122.818V122.819V133.473V144.128V154.782H303.892H303.886H293.237V144.128V133.473V122.82H292.24V122.819H282.585H282.579H271.931V112.164V101.509ZM293.237 101.51H303.892V112.164H293.237V101.51ZM122.767 133.474H133.413H133.421H144.068V144.128V154.782H133.421V165.437V176.092V186.746H144.068V197.401V208.056L133.413 208.055H122.767V197.401H112.118V186.746V176.091V165.436V154.782V154.781V144.128H122.767V133.474ZM144.083 133.474H154.731H154.737H165.386V144.127V144.128V154.781H154.737H154.731H144.083V144.128V144.127V133.474ZM314.548 133.474H325.202V144.127V144.128V154.781H314.548V144.128V144.127V133.474ZM335.852 133.474H325.204V144.127V144.128V154.781V165.436V176.091V186.746H335.852H335.858H346.507V176.091V165.436V154.781V144.128V144.127V133.474H335.858H335.852ZM357.167 154.781H346.513V165.436V176.091V186.746H357.161V197.4V208.055V218.709V229.363V229.364V240.018H346.513V250.672V261.327H357.161H357.167H367.815V250.672V240.018V229.364V229.363V218.709V208.055V197.4V186.746V186.745V176.091V165.436L357.167 165.436V154.781ZM367.821 165.436H378.476V176.091V186.746V197.401V208.055V208.056V218.709V229.364V240.018H389.124V250.672V261.327V271.982V282.636V282.637V293.29V303.944V314.599V314.6V325.253V335.908V346.563H378.476H378.47H367.821V335.908V325.254L378.47 325.253V314.6V314.599V303.944V293.29V282.637V282.636V271.982V261.327H367.821V250.672V240.019V240.018V229.364V218.709V208.056V208.055V197.401V186.746V176.091V165.436ZM154.731 186.745H144.083V197.4V208.055H154.731V218.709V229.363V229.364V240.018V250.672V261.326V261.327V271.981V282.636V293.289H144.083V303.943V314.599H154.731H154.737H165.386V303.943V293.29V293.289V282.636V271.981V261.327V261.326V250.672V240.018V229.364V229.363V218.709V208.055V197.4V186.745H154.737H154.731ZM176.046 186.745H165.392V197.4V208.055V218.709V229.363V229.364V240.018V250.672V261.326V261.327V271.981V282.636V293.289V293.29V303.943V314.599H176.046V303.943V293.29V293.289V282.636V271.981V261.327V261.326V250.672V240.018V229.364V229.363V218.709V208.055V197.4V186.745ZM335.852 240.018H325.204V250.672V261.327H335.852H335.858H346.507V250.672V240.018H335.858H335.852ZM399.792 250.673H389.138V261.326V261.327V271.981V282.636V293.289V293.29V303.943V314.599V325.253V335.908H399.792V325.253V314.599V303.943V293.29V293.289V282.636V271.981V261.327V261.326V250.673ZM122.767 293.29H133.421L144.068 293.291V303.945V314.6H133.421V325.254V335.908V346.563H144.068V357.217V357.218V367.871L133.421 367.872L122.773 367.873H112.118V357.218V346.563V335.908V325.253V314.6V314.599V303.945L122.767 303.944V293.29ZM357.161 325.254H346.513V335.907V335.908V346.562V357.217V367.872H357.161H357.167H367.815V357.217V346.562V335.908V335.907V325.254H357.167H357.161ZM154.731 346.562H144.083V357.217V367.872H154.731H154.737H165.386V357.217V346.562H154.737H154.731ZM176.04 346.562H165.392V357.217V367.872H176.04H176.046H186.688V378.526V389.181V399.835V410.489H197.343V399.835V389.181V378.526V367.872V357.217V346.562H186.694H186.688H176.046H176.04ZM197.349 346.563H208.003V357.218V367.872V367.873V378.526V389.181V399.835V399.836V410.489H197.349V399.836V399.835V389.181V378.526V367.873V367.872V357.218V346.563ZM239.962 346.562H229.313V357.217V367.872V378.525V378.526V389.18V399.835V410.489H239.962H239.968H250.616V399.835V389.18V378.526V378.525V367.872V357.217V346.562H239.968H239.962ZM261.276 346.562H250.622V357.217V367.872V378.525V378.526V389.18V399.835V410.489H261.27H261.276H271.925V399.835V389.18L261.276 389.18V378.526V378.525V367.872V357.217V346.562ZM293.237 346.563H303.886H303.892H314.54V357.218V367.872V367.873V378.526V389.181V399.836H303.892V410.489H293.237V399.836V399.835V389.181V378.526V367.873V367.872V357.218V346.563ZM314.548 346.562H325.202V357.217V367.871H314.548V357.217V346.562ZM335.852 346.562H325.204V357.217V367.872H335.852H335.858H346.507V357.217V346.562H335.858H335.852ZM208.007 389.181H218.655H218.661H229.31L229.311 399.835V410.489H218.662H218.656H208.008L208.007 399.836V389.181ZM271.931 389.181H282.579H282.585H293.233V399.835V399.836V410.489H282.585H282.579H271.931V399.836V399.835V389.181ZM229.317 186.745H250.619V197.4V218.709V240.018H229.317V218.709V197.4V186.745ZM250.625 197.4V186.745H271.928V197.4V208.055H250.625V197.4ZM271.934 186.746V197.4V208.055H282.582V218.71H271.934V240.018H293.237V229.363V197.4V186.746H271.934ZM293.24 186.746H303.895V197.401V218.709V240.019H293.24V218.709V197.401V186.746ZM250.625 240.018V218.71H271.928V240.018H250.625ZM229.317 271.981V261.326H250.619V271.981V303.944V314.599H229.317V303.944V271.981ZM250.625 261.326V271.981V282.636H271.928V271.981V261.326H250.625ZM271.934 271.981V261.327H293.237V271.981V282.636H271.934V271.981ZM293.24 261.327V271.982V303.945V314.6H314.543V303.945V271.982V261.327H293.24ZM250.625 303.944V293.289H271.928V303.944V314.599H250.625V303.944ZM282.588 293.29H271.934V303.944V314.599H293.237V293.291H282.588V293.29Z" fill="#2A3B92"/>
</g>
<defs>
<clipPath id="clip0_3743_131992">
<rect width="512" height="512" fill="white"/>
</clipPath>
</defs>
</svg>
