<?xml version="1.0" encoding="UTF-8"?>
<!DOCTYPE svg PUBLIC "-//W3C//DTD SVG 1.1//EN" "http://www.w3.org/Graphics/SVG/1.1/DTD/svg11.dtd">
<svg xmlns="http://www.w3.org/2000/svg" version="1.1" width="200px" height="200px" style="shape-rendering:geometricPrecision; text-rendering:geometricPrecision; image-rendering:optimizeQuality; fill-rule:evenodd; clip-rule:evenodd" xmlns:xlink="http://www.w3.org/1999/xlink">
<g><path style="opacity:0.014" fill="#000000" d="M 89.5,4.5 C 95.6529,3.3467 101.986,3.18003 108.5,4C 102.175,4.49954 95.8421,4.66621 89.5,4.5 Z"/></g>
<g><path style="opacity:0.011" fill="#000000" d="M 77.5,7.5 C 76.1667,7.5 74.8333,7.5 73.5,7.5C 78.1119,4.96105 83.1119,4.12772 88.5,5C 84.5698,5.24155 80.9032,6.07488 77.5,7.5 Z"/></g>
<g><path style="opacity:0.011" fill="#000000" d="M 109.5,5.5 C 113.389,4.30567 117.389,4.47234 121.5,6C 117.525,5.98281 113.525,5.81615 109.5,5.5 Z"/></g>
<g><path style="opacity:0.991" fill="#0d0d0d" d="M 109.5,5.5 C 122.04,7.68 134.04,11.68 145.5,17.5C 146.514,18.6737 147.847,19.3404 149.5,19.5C 149.5,20.1667 149.833,20.5 150.5,20.5C 151.29,21.4013 152.29,22.0679 153.5,22.5C 153.5,23.1667 153.833,23.5 154.5,23.5C 155.795,24.4884 157.128,25.4884 158.5,26.5C 158.5,27.1667 158.833,27.5 159.5,27.5C 163.833,31.1667 167.833,35.1667 171.5,39.5C 171.5,40.1667 171.833,40.5 172.5,40.5C 191.346,66.0654 197.013,94.3988 189.5,125.5C 188.596,126.209 188.263,127.209 188.5,128.5C 187.596,129.209 187.263,130.209 187.5,131.5C 186.662,131.842 186.328,132.508 186.5,133.5C 185.596,134.209 185.263,135.209 185.5,136.5C 184.662,136.842 184.328,137.508 184.5,138.5C 183.662,138.842 183.328,139.508 183.5,140.5C 182.662,140.842 182.328,141.508 182.5,142.5C 180.412,144.336 179.079,146.669 178.5,149.5C 177.833,149.5 177.5,149.833 177.5,150.5C 176.662,150.842 176.328,151.508 176.5,152.5C 175.833,152.5 175.5,152.833 175.5,153.5C 174.026,154.436 173.026,155.77 172.5,157.5C 171.833,157.5 171.5,157.833 171.5,158.5C 170.026,159.436 169.026,160.77 168.5,162.5C 167.833,162.5 167.5,162.833 167.5,163.5C 166.833,163.5 166.5,163.833 166.5,164.5C 165.833,164.5 165.5,164.833 165.5,165.5C 164.833,165.5 164.5,165.833 164.5,166.5C 163.833,166.5 163.5,166.833 163.5,167.5C 162.833,167.5 162.5,167.833 162.5,168.5C 160.77,169.026 159.436,170.026 158.5,171.5C 157.833,171.5 157.5,171.833 157.5,172.5C 155.246,173.124 153.579,174.457 152.5,176.5C 151.508,176.328 150.842,176.662 150.5,177.5C 149.833,177.5 149.5,177.833 149.5,178.5C 146.669,179.079 144.336,180.412 142.5,182.5C 141.508,182.328 140.842,182.662 140.5,183.5C 139.508,183.328 138.842,183.662 138.5,184.5C 137.508,184.328 136.842,184.662 136.5,185.5C 135.209,185.263 134.209,185.596 133.5,186.5C 132.508,186.328 131.842,186.662 131.5,187.5C 126.288,188.467 121.288,189.8 116.5,191.5C 104.833,192.833 93.1667,192.833 81.5,191.5C 79.0948,190.232 76.4282,189.565 73.5,189.5C 63.2892,185.984 53.6225,181.317 44.5,175.5C 44.5,174.833 44.1667,174.5 43.5,174.5C 42.0552,172.937 40.3885,171.604 38.5,170.5C 38.5,169.833 38.1667,169.5 37.5,169.5C 34.1667,166.833 31.1667,163.833 28.5,160.5C 28.5,159.833 28.1667,159.5 27.5,159.5C 27.5,158.833 27.1667,158.5 26.5,158.5C 25.1891,155.865 23.5224,153.531 21.5,151.5C 21.5,150.833 21.1667,150.5 20.5,150.5C 19.4161,147.996 18.0828,145.663 16.5,143.5C 16.6716,142.508 16.3382,141.842 15.5,141.5C 15.3404,139.847 14.6737,138.514 13.5,137.5C 13.6716,136.508 13.3382,135.842 12.5,135.5C 12.2041,133.597 11.5375,131.93 10.5,130.5C 10.7373,129.209 10.404,128.209 9.5,127.5C 9.73731,126.209 9.40397,125.209 8.5,124.5C 5.46962,110.619 4.80296,96.619 6.5,82.5C 7.86843,78.7024 8.86843,74.7024 9.5,70.5C 11.0198,68.1098 12.0198,65.4432 12.5,62.5C 13.3382,62.1583 13.6716,61.4916 13.5,60.5C 14.3382,60.1583 14.6716,59.4916 14.5,58.5C 15.3382,58.1583 15.6716,57.4916 15.5,56.5C 16.3382,56.1583 16.6716,55.4916 16.5,54.5C 19.0692,51.039 21.4026,47.3723 23.5,43.5C 24.1667,43.5 24.5,43.1667 24.5,42.5C 25.803,40.8577 27.1363,39.1911 28.5,37.5C 29.1667,37.5 29.5,37.1667 29.5,36.5C 32.1667,34.5 34.5,32.1667 36.5,29.5C 37.1667,29.5 37.5,29.1667 37.5,28.5C 40.7198,26.3971 43.7198,24.0638 46.5,21.5C 47.1667,21.5 47.5,21.1667 47.5,20.5C 50.0041,19.4161 52.3374,18.0828 54.5,16.5C 55.4916,16.6716 56.1583,16.3382 56.5,15.5C 57.4916,15.6716 58.1583,15.3382 58.5,14.5C 59.4916,14.6716 60.1583,14.3382 60.5,13.5C 61.4916,13.6716 62.1583,13.3382 62.5,12.5C 64.403,12.2041 66.0697,11.5375 67.5,10.5C 68.791,10.7373 69.791,10.404 70.5,9.5C 71.791,9.73731 72.791,9.40397 73.5,8.5C 75.099,8.76781 76.4324,8.43448 77.5,7.5C 88.0983,5.90329 98.7649,5.23663 109.5,5.5 Z"/></g>
<g><path style="opacity:0.011" fill="#000000" d="M 73.5,7.5 C 73.5,7.83333 73.5,8.16667 73.5,8.5C 72.209,8.26269 71.209,8.59603 70.5,9.5C 69.209,9.26269 68.209,9.59603 67.5,10.5C 65.6526,10.7658 64.986,10.4325 65.5,9.5C 68.0205,8.21473 70.6872,7.54807 73.5,7.5 Z"/></g>
<g><path style="opacity:0.011" fill="#000000" d="M 62.5,12.5 C 61.5084,12.3284 60.8417,12.6618 60.5,13.5C 59.5084,13.3284 58.8417,13.6618 58.5,14.5C 57.8333,14.5 57.1667,14.5 56.5,14.5C 58.0852,12.0183 60.0852,11.3516 62.5,12.5 Z"/></g>
<g><path style="opacity:0.01" fill="#000000" d="M 56.5,14.5 C 56.5,14.8333 56.5,15.1667 56.5,15.5C 55.5084,15.3284 54.8417,15.6618 54.5,16.5C 53.7611,16.631 53.0944,16.4643 52.5,16C 53.5634,14.8118 54.8967,14.3118 56.5,14.5 Z"/></g>
<g><path style="opacity:0.012" fill="#000000" d="M 145.5,17.5 C 144.632,15.1081 145.299,14.9414 147.5,17C 146.906,17.4643 146.239,17.631 145.5,17.5 Z"/></g>
<g><path style="opacity:0.012" fill="#000000" d="M 149.5,19.5 C 150.497,18.2875 151.497,18.4542 152.5,20C 151.906,20.4643 151.239,20.631 150.5,20.5C 149.833,20.5 149.5,20.1667 149.5,19.5 Z"/></g>
<g><path style="opacity:0.011" fill="#000000" d="M 47.5,20.5 C 46.8333,20.5 46.5,20.8333 46.5,21.5C 44.0248,21.2533 44.0248,20.5866 46.5,19.5C 47.1067,19.6236 47.44,19.9569 47.5,20.5 Z"/></g>
<g><path style="opacity:0.011" fill="#000000" d="M 153.5,22.5 C 154.497,21.2875 155.497,21.4542 156.5,23C 155.906,23.4643 155.239,23.631 154.5,23.5C 153.833,23.5 153.5,23.1667 153.5,22.5 Z"/></g>
<g><path style="opacity:0.011" fill="#000000" d="M 158.5,26.5 C 159.497,25.2875 160.497,25.4542 161.5,27C 160.906,27.4643 160.239,27.631 159.5,27.5C 158.833,27.5 158.5,27.1667 158.5,26.5 Z"/></g>
<g><path style="opacity:0.008" fill="#000000" d="M 37.5,28.5 C 36.8333,28.5 36.5,28.8333 36.5,29.5C 34.0248,29.2533 34.0248,28.5866 36.5,27.5C 37.1067,27.6236 37.44,27.9569 37.5,28.5 Z"/></g>
<g><path style="opacity:0.008" fill="#000000" d="M 29.5,36.5 C 28.8333,36.5 28.5,36.8333 28.5,37.5C 27.2875,36.5029 27.4542,35.5029 29,34.5C 29.4643,35.0944 29.631,35.7611 29.5,36.5 Z"/></g>
<g><path style="opacity:0.013" fill="#000000" d="M 172.5,40.5 C 171.833,40.5 171.5,40.1667 171.5,39.5C 171.747,37.0248 172.413,37.0248 173.5,39.5C 173.376,40.1067 173.043,40.44 172.5,40.5 Z"/></g>
<g><path style="opacity:0.011" fill="#000000" d="M 24.5,42.5 C 23.8333,42.5 23.5,42.8333 23.5,43.5C 22.2875,42.5029 22.4542,41.5029 24,40.5C 24.4643,41.0944 24.631,41.7611 24.5,42.5 Z"/></g>
<g><path style="opacity:0.01" fill="#000000" d="M 16.5,54.5 C 15.6618,54.8417 15.3284,55.5084 15.5,56.5C 15.1667,56.5 14.8333,56.5 14.5,56.5C 14.3118,54.8967 14.8118,53.5634 16,52.5C 16.4643,53.0944 16.631,53.7611 16.5,54.5 Z"/></g>
<g><path style="opacity:0.01" fill="#000000" d="M 14.5,56.5 C 14.5,57.1667 14.5,57.8333 14.5,58.5C 13.6618,58.8417 13.3284,59.5084 13.5,60.5C 12.6618,60.8417 12.3284,61.5084 12.5,62.5C 11.3516,60.0852 12.0183,58.0852 14.5,56.5 Z"/></g>
<g><path style="opacity:1" fill="#c9d3d9" d="M 97.5,55.5 C 98.1174,55.6107 98.6174,55.944 99,56.5C 99.1667,67.3333 99.3333,78.1667 99.5,89C 99.4988,100.188 98.8322,111.021 97.5,121.5C 88.8333,116.5 80.1667,111.5 71.5,106.5C 70.3995,105.395 69.7329,104.062 69.5,102.5C 70.8202,100.537 72.1535,98.5368 73.5,96.5C 74.4867,94.5266 75.4867,92.5266 76.5,90.5C 72.6667,86.1667 68.8333,81.8333 65,77.5C 64.6012,77.7284 64.4346,78.0618 64.5,78.5C 63.2973,77.0575 62.7973,75.3908 63,73.5C 67.6814,78.3485 72.5148,83.0152 77.5,87.5C 79.5075,85.9918 81.1741,84.1584 82.5,82C 81.944,81.6174 81.6107,81.1174 81.5,80.5C 87.5681,72.7119 92.9015,64.3786 97.5,55.5 Z"/></g>
<g><path style="opacity:1" fill="#dfe1e3" d="M 162.5,64.5 C 161.602,72.4828 160.768,80.4828 160,88.5C 157.253,91.7537 154.086,94.4203 150.5,96.5C 150.062,96.5654 149.728,96.3988 149.5,96C 151.326,94.1646 152.326,92.3313 152.5,90.5C 149.222,92.0355 145.889,93.3689 142.5,94.5C 142.071,93.0473 141.904,91.3806 142,89.5C 139.55,86.6218 138.884,83.2885 140,79.5C 142.402,73.4595 144.902,67.4595 147.5,61.5C 152.456,60.5059 157.456,60.1725 162.5,60.5C 162.5,61.8333 162.5,63.1667 162.5,64.5 Z"/></g>
<g><path style="opacity:0.011" fill="#000000" d="M 9.5,70.5 C 8.73209,71.2625 8.23209,72.2625 8,73.5C 7.36528,71.3646 7.69862,69.3646 9,67.5C 9.48278,68.448 9.64945,69.448 9.5,70.5 Z"/></g>
<g><path style="opacity:1" fill="#b5b9bc" d="M 162.5,64.5 C 162.5,63.1667 162.5,61.8333 162.5,60.5C 157.456,60.1725 152.456,60.5059 147.5,61.5C 144.902,67.4595 142.402,73.4595 140,79.5C 138.884,83.2885 139.55,86.6218 142,89.5C 141.904,91.3806 142.071,93.0473 142.5,94.5C 141.749,95.5735 140.749,95.7401 139.5,95C 139.833,94.6667 140.167,94.3333 140.5,94C 139.069,93.5348 137.903,92.7014 137,91.5C 136.336,88.4841 136.836,85.6508 138.5,83C 138.43,82.2352 138.097,81.7352 137.5,81.5C 140.159,75.1957 142.826,68.8624 145.5,62.5C 145.376,61.8933 145.043,61.56 144.5,61.5C 144.611,60.8826 144.944,60.3826 145.5,60C 151.491,59.5005 157.491,59.3338 163.5,59.5C 163.784,61.4147 163.451,63.0813 162.5,64.5 Z"/></g>
<g><path style="opacity:1" fill="#edeeef" d="M 53.5,61.5 C 62.8333,67.8333 72.1667,74.1667 81.5,80.5C 81.6107,81.1174 81.944,81.6174 82.5,82C 81.1741,84.1584 79.5075,85.9918 77.5,87.5C 72.5148,83.0152 67.6814,78.3485 63,73.5C 62.7973,75.3908 63.2973,77.0575 64.5,78.5C 65.038,80.1172 65.3713,81.7839 65.5,83.5C 65.5086,85.3084 65.0086,86.9751 64,88.5C 59.8833,79.9924 56.05,71.3258 52.5,62.5C 52.6236,61.8933 52.9569,61.56 53.5,61.5 Z"/></g>
<g><path style="opacity:1" fill="#e9ebec" d="M 144.5,61.5 C 145.043,61.56 145.376,61.8933 145.5,62.5C 142.826,68.8624 140.159,75.1957 137.5,81.5C 136.361,84.918 135.028,88.2513 133.5,91.5C 132.102,90.2233 131.436,88.5566 131.5,86.5C 135.844,72.5351 134.178,71.8685 126.5,84.5C 125.167,86.1667 123.833,87.8333 122.5,89.5C 121.504,89.5858 120.671,89.2524 120,88.5C 118.519,85.89 117.352,83.2234 116.5,80.5C 125.833,74.1667 135.167,67.8333 144.5,61.5 Z"/></g>
<g><path style="opacity:0.011" fill="#000000" d="M 6.5,82.5 C 5.68618,84.631 5.18618,86.9644 5,89.5C 4.34183,85.4285 4.67516,81.4285 6,77.5C 6.49351,79.1341 6.66018,80.8008 6.5,82.5 Z"/></g>
<g><path style="opacity:1" fill="#dfe1e3" d="M 56.5,94.5 C 52.7157,93.5711 49.049,92.2378 45.5,90.5C 45.1667,90.6667 44.8333,90.8333 44.5,91C 46.8607,92.5618 47.8607,94.3952 47.5,96.5C 43.9135,94.4203 40.7468,91.7537 38,88.5C 37.5478,80.1181 36.7145,71.7847 35.5,63.5C 35.5,62.5 35.5,61.5 35.5,60.5C 40.544,60.1725 45.544,60.5059 50.5,61.5C 53.8923,68.6781 56.8923,76.0114 59.5,83.5C 58.3903,86.1123 57.0569,88.6123 55.5,91C 55.7591,92.2613 56.4258,93.2613 57.5,94C 57.2716,94.3988 56.9382,94.5654 56.5,94.5 Z"/></g>
<g><path style="opacity:0.012" fill="#000000" d="M 192.5,80.5 C 194.045,86.4191 194.711,92.5858 194.5,99C 194.542,105.221 194.042,111.387 193,117.5C 193.832,105.174 193.665,92.8404 192.5,80.5 Z"/></g>
<g><path style="opacity:1" fill="#7691a4" d="M 73.5,96.5 C 70.4784,92.5147 67.8118,88.1813 65.5,83.5C 65.3713,81.7839 65.038,80.1172 64.5,78.5C 64.4346,78.0618 64.6012,77.7284 65,77.5C 68.8333,81.8333 72.6667,86.1667 76.5,90.5C 75.4867,92.5266 74.4867,94.5266 73.5,96.5 Z"/></g>
<g><path style="opacity:0.009" fill="#000000" d="M 3.5,90.5 C 4.6517,95.9846 4.81837,101.651 4,107.5C 3.50058,101.843 3.33391,96.1764 3.5,90.5 Z"/></g>
<g><path style="opacity:1" fill="#93a3af" d="M 116.5,80.5 C 117.352,83.2234 118.519,85.89 120,88.5C 120.671,89.2524 121.504,89.5858 122.5,89.5C 122.007,92.2126 123.007,94.546 125.5,96.5C 128.105,92.8454 129.605,88.8454 130,84.5C 129.014,85.1712 127.847,85.1712 126.5,84.5C 134.178,71.8685 135.844,72.5351 131.5,86.5C 131.436,88.5566 132.102,90.2233 133.5,91.5C 132.441,94.6179 131.108,97.6179 129.5,100.5C 129.285,102.179 129.952,103.179 131.5,103.5C 131.389,104.117 131.056,104.617 130.5,105C 131.833,105.667 133.167,106.333 134.5,107C 132.574,107.422 131.574,108.589 131.5,110.5C 128.622,111.562 126.622,113.562 125.5,116.5C 124.298,118.392 122.965,120.226 121.5,122C 123.025,123.009 124.692,123.509 126.5,123.5C 126.5,124.167 126.5,124.833 126.5,125.5C 126.631,126.376 126.298,127.043 125.5,127.5C 122.201,123.309 120.535,123.976 120.5,129.5C 119.71,128.391 119.21,127.058 119,125.5C 116.615,128.379 114.448,131.379 112.5,134.5C 108.525,140.149 104.525,145.815 100.5,151.5C 99.3864,152.776 98.3864,152.776 97.5,151.5C 98.8232,148.062 99.4898,144.229 99.5,140C 99.4696,135.752 99.1362,131.586 98.5,127.5C 98.8333,127.5 99.1667,127.5 99.5,127.5C 109.471,122.181 119.138,116.347 128.5,110C 126.792,108.938 126.126,107.771 126.5,106.5C 117.307,111.593 108.307,116.926 99.5,122.5C 98.5084,122.672 97.8417,122.338 97.5,121.5C 98.8322,111.021 99.4988,100.188 99.5,89C 99.3333,78.1667 99.1667,67.3333 99,56.5C 98.6174,55.944 98.1174,55.6107 97.5,55.5C 98.0076,53.7673 98.841,53.434 100,54.5C 105.275,63.4002 110.775,72.0669 116.5,80.5 Z"/></g>
<g><path style="opacity:1" fill="#6e8b9e" d="M 126.5,84.5 C 127.847,85.1712 129.014,85.1712 130,84.5C 129.605,88.8454 128.105,92.8454 125.5,96.5C 123.007,94.546 122.007,92.2126 122.5,89.5C 123.833,87.8333 125.167,86.1667 126.5,84.5 Z"/></g>
<g><path style="opacity:1" fill="#a9b6be" d="M 53.5,61.5 C 52.9569,61.56 52.6236,61.8933 52.5,62.5C 56.05,71.3258 59.8833,79.9924 64,88.5C 65.0086,86.9751 65.5086,85.3084 65.5,83.5C 67.8118,88.1813 70.4784,92.5147 73.5,96.5C 72.1535,98.5368 70.8202,100.537 69.5,102.5C 69.1667,101.833 68.8333,101.167 68.5,100.5C 66.9977,97.4954 65.4977,94.4954 64,91.5C 63.4054,92.8989 63.5721,94.2322 64.5,95.5C 61.4702,98.1581 58.8035,97.8247 56.5,94.5C 56.9382,94.5654 57.2716,94.3988 57.5,94C 56.4258,93.2613 55.7591,92.2613 55.5,91C 57.0569,88.6123 58.3903,86.1123 59.5,83.5C 56.8923,76.0114 53.8923,68.6781 50.5,61.5C 45.544,60.5059 40.544,60.1725 35.5,60.5C 35.5,61.5 35.5,62.5 35.5,63.5C 34.5655,62.4324 34.2322,61.099 34.5,59.5C 40.5092,59.3338 46.5092,59.5005 52.5,60C 53.056,60.3826 53.3893,60.8826 53.5,61.5 Z"/></g>
<g><path style="opacity:1" fill="#94a7b3" d="M 137.5,81.5 C 138.097,81.7352 138.43,82.2352 138.5,83C 136.836,85.6508 136.336,88.4841 137,91.5C 137.903,92.7014 139.069,93.5348 140.5,94C 140.167,94.3333 139.833,94.6667 139.5,95C 140.749,95.7401 141.749,95.5735 142.5,94.5C 145.889,93.3689 149.222,92.0355 152.5,90.5C 152.326,92.3313 151.326,94.1646 149.5,96C 149.728,96.3988 150.062,96.5654 150.5,96.5C 149.564,97.9744 148.23,98.9744 146.5,99.5C 145.041,99.4326 143.708,99.7659 142.5,100.5C 142.029,99.0992 141.362,97.7658 140.5,96.5C 138.5,97.8333 136.5,97.8333 134.5,96.5C 134.405,94.7855 134.072,93.1188 133.5,91.5C 135.028,88.2513 136.361,84.918 137.5,81.5 Z"/></g>
<g><path style="opacity:1" fill="#7990a0" d="M 56.5,94.5 C 58.8035,97.8247 61.4702,98.1581 64.5,95.5C 63.5721,94.2322 63.4054,92.8989 64,91.5C 65.4977,94.4954 66.9977,97.4954 68.5,100.5C 66.2143,100.595 64.2143,101.262 62.5,102.5C 60.1843,101.84 57.851,101.173 55.5,100.5C 54.5836,100.543 53.9169,100.876 53.5,101.5C 51.4602,99.823 49.4602,98.1563 47.5,96.5C 47.8607,94.3952 46.8607,92.5618 44.5,91C 44.8333,90.8333 45.1667,90.6667 45.5,90.5C 49.049,92.2378 52.7157,93.5711 56.5,94.5 Z"/></g>
<g><path style="opacity:1" fill="#6b8596" d="M 133.5,91.5 C 134.072,93.1188 134.405,94.7855 134.5,96.5C 136.5,97.8333 138.5,97.8333 140.5,96.5C 141.362,97.7658 142.029,99.0992 142.5,100.5C 140.167,101.167 137.833,101.833 135.5,102.5C 133.898,100.926 131.898,100.259 129.5,100.5C 131.108,97.6179 132.441,94.6179 133.5,91.5 Z"/></g>
<g><path style="opacity:1" fill="#274152" d="M 68.5,100.5 C 68.8333,101.167 69.1667,101.833 69.5,102.5C 68.609,103.11 67.609,103.443 66.5,103.5C 65.1667,103.167 63.8333,102.833 62.5,102.5C 64.2143,101.262 66.2143,100.595 68.5,100.5 Z"/></g>
<g><path style="opacity:1" fill="#2a495c" d="M 129.5,100.5 C 131.898,100.259 133.898,100.926 135.5,102.5C 134.167,102.833 132.833,103.167 131.5,103.5C 129.952,103.179 129.285,102.179 129.5,100.5 Z"/></g>
<g><path style="opacity:1" fill="#cbd1d5" d="M 62.5,102.5 C 63.8333,102.833 65.1667,103.167 66.5,103.5C 66.5299,104.497 66.0299,105.164 65,105.5C 62.755,106.137 60.5883,106.97 58.5,108C 59.3994,109.652 60.3994,111.152 61.5,112.5C 61.9528,113.458 62.6195,114.292 63.5,115C 61.8659,115.494 60.1992,115.66 58.5,115.5C 57.6851,114.163 56.5185,113.163 55,112.5C 54.5034,110.19 54.3367,107.857 54.5,105.5C 54.9175,104.778 55.5842,104.278 56.5,104C 55.4293,103.148 54.4293,102.315 53.5,101.5C 53.9169,100.876 54.5836,100.543 55.5,100.5C 57.851,101.173 60.1843,101.84 62.5,102.5 Z"/></g>
<g><path style="opacity:1" fill="#bbc3c9" d="M 146.5,99.5 C 145.521,101.145 144.188,102.479 142.5,103.5C 144.301,106.535 144.968,109.869 144.5,113.5C 143.609,114.11 142.609,114.443 141.5,114.5C 139.473,114.662 137.473,114.495 135.5,114C 135.957,113.586 136.291,113.086 136.5,112.5C 134.978,111.438 133.312,110.771 131.5,110.5C 131.574,108.589 132.574,107.422 134.5,107C 133.167,106.333 131.833,105.667 130.5,105C 131.056,104.617 131.389,104.117 131.5,103.5C 132.833,103.167 134.167,102.833 135.5,102.5C 137.833,101.833 140.167,101.167 142.5,100.5C 143.708,99.7659 145.041,99.4326 146.5,99.5 Z"/></g>
<g><path style="opacity:1" fill="#a2b1bb" d="M 69.5,102.5 C 69.7329,104.062 70.3995,105.395 71.5,106.5C 71.4729,108.199 70.8062,109.533 69.5,110.5C 69.5,110.833 69.5,111.167 69.5,111.5C 66.4658,109.898 63.7991,110.231 61.5,112.5C 60.3994,111.152 59.3994,109.652 58.5,108C 60.5883,106.97 62.755,106.137 65,105.5C 66.0299,105.164 66.5299,104.497 66.5,103.5C 67.609,103.443 68.609,103.11 69.5,102.5 Z"/></g>
<g><path style="opacity:1" fill="#7a848b" d="M 54.5,105.5 C 54.3367,107.857 54.5034,110.19 55,112.5C 56.5185,113.163 57.6851,114.163 58.5,115.5C 56.8297,115.249 55.3297,114.582 54,113.5C 53.7679,114.737 53.2679,115.737 52.5,116.5C 52.8084,112.64 53.4751,108.974 54.5,105.5 Z"/></g>
<g><path style="opacity:1" fill="#617e91" d="M 69.5,111.5 C 70.7515,113.001 71.7515,114.668 72.5,116.5C 70.457,117.579 69.1237,119.246 68.5,121.5C 64.827,120 61.4937,118 58.5,115.5C 60.1992,115.66 61.8659,115.494 63.5,115C 62.6195,114.292 61.9528,113.458 61.5,112.5C 63.7991,110.231 66.4658,109.898 69.5,111.5 Z"/></g>
<g><path style="opacity:1" fill="#446275" d="M 71.5,106.5 C 80.1667,111.5 88.8333,116.5 97.5,121.5C 97.8417,122.338 98.5084,122.672 99.5,122.5C 99.5,124.167 99.5,125.833 99.5,127.5C 99.1667,127.5 98.8333,127.5 98.5,127.5C 88.9977,121.581 79.331,115.914 69.5,110.5C 70.8062,109.533 71.4729,108.199 71.5,106.5 Z"/></g>
<g><path style="opacity:1" fill="#627c8e" d="M 131.5,110.5 C 133.312,110.771 134.978,111.438 136.5,112.5C 136.291,113.086 135.957,113.586 135.5,114C 137.473,114.495 139.473,114.662 141.5,114.5C 137.836,117.335 133.836,119.668 129.5,121.5C 128.876,119.246 127.543,117.579 125.5,116.5C 126.622,113.562 128.622,111.562 131.5,110.5 Z"/></g>
<g><path style="opacity:1" fill="#1e2d38" d="M 99.5,127.5 C 99.5,125.833 99.5,124.167 99.5,122.5C 108.307,116.926 117.307,111.593 126.5,106.5C 126.126,107.771 126.792,108.938 128.5,110C 119.138,116.347 109.471,122.181 99.5,127.5 Z"/></g>
<g><path style="opacity:1" fill="#e6e7e8" d="M 58.5,115.5 C 61.4937,118 64.827,120 68.5,121.5C 69.2905,122.401 70.2905,123.068 71.5,123.5C 71.5,123.833 71.5,124.167 71.5,124.5C 69.4922,126.268 67.3256,127.934 65,129.5C 64.3333,131.5 64.3333,133.5 65,135.5C 67.3333,133.167 69.6667,130.833 72,128.5C 73.6495,130.824 75.1495,132.491 76.5,133.5C 75.9933,137.86 75.3266,142.193 74.5,146.5C 73.1501,149.106 71.6501,149.106 70,146.5C 64.7159,138.881 59.0492,131.548 53,124.5C 52.5026,121.854 52.3359,119.187 52.5,116.5C 53.2679,115.737 53.7679,114.737 54,113.5C 55.3297,114.582 56.8297,115.249 58.5,115.5 Z"/></g>
<g><path style="opacity:1" fill="#e5e6e6" d="M 144.5,113.5 C 145.643,116.976 145.81,120.642 145,124.5C 139.038,132.959 132.538,140.959 125.5,148.5C 124.893,148.376 124.56,148.043 124.5,147.5C 124.643,141.375 125.476,135.375 127,129.5C 128.684,131.351 130.517,133.018 132.5,134.5C 133.76,132.647 133.76,130.814 132.5,129C 130.612,127.606 128.612,126.44 126.5,125.5C 126.5,124.833 126.5,124.167 126.5,123.5C 127.71,123.068 128.71,122.401 129.5,121.5C 133.836,119.668 137.836,117.335 141.5,114.5C 142.609,114.443 143.609,114.11 144.5,113.5 Z"/></g>
<g><path style="opacity:1" fill="#222c34" d="M 125.5,116.5 C 127.543,117.579 128.876,119.246 129.5,121.5C 128.71,122.401 127.71,123.068 126.5,123.5C 124.692,123.509 123.025,123.009 121.5,122C 122.965,120.226 124.298,118.392 125.5,116.5 Z"/></g>
<g><path style="opacity:1" fill="#c7d1d7" d="M 69.5,110.5 C 79.331,115.914 88.9977,121.581 98.5,127.5C 99.1362,131.586 99.4696,135.752 99.5,140C 99.4898,144.229 98.8232,148.062 97.5,151.5C 93.4676,145.81 89.4676,140.143 85.5,134.5C 82.9749,130.104 79.9749,126.104 76.5,122.5C 75.5514,120.223 74.2181,118.223 72.5,116.5C 71.7515,114.668 70.7515,113.001 69.5,111.5C 69.5,111.167 69.5,110.833 69.5,110.5 Z"/></g>
<g><path style="opacity:1" fill="#232d35" d="M 72.5,116.5 C 74.2181,118.223 75.5514,120.223 76.5,122.5C 74.8828,123.038 73.2161,123.371 71.5,123.5C 70.2905,123.068 69.2905,122.401 68.5,121.5C 69.1237,119.246 70.457,117.579 72.5,116.5 Z"/></g>
<g><path style="opacity:0.01" fill="#000000" d="M 8.5,124.5 C 8.26269,125.791 8.59603,126.791 9.5,127.5C 9.26269,128.791 9.59603,129.791 10.5,130.5C 10.5875,133.598 10.0875,133.932 9,131.5C 7.6077,129.059 7.44103,126.726 8.5,124.5 Z"/></g>
<g><path style="opacity:0.012" fill="#000000" d="M 189.5,125.5 C 190.794,127.68 190.461,129.68 188.5,131.5C 188.5,130.5 188.5,129.5 188.5,128.5C 189.404,127.791 189.737,126.791 189.5,125.5 Z"/></g>
<g><path style="opacity:1" fill="#bdc7ce" d="M 71.5,124.5 C 78.849,124.171 80.5157,127.171 76.5,133.5C 75.1495,132.491 73.6495,130.824 72,128.5C 69.6667,130.833 67.3333,133.167 65,135.5C 64.3333,133.5 64.3333,131.5 65,129.5C 67.3256,127.934 69.4922,126.268 71.5,124.5 Z"/></g>
<g><path style="opacity:1" fill="#5e7d91" d="M 76.5,122.5 C 79.9749,126.104 82.9749,130.104 85.5,134.5C 81.8333,138.5 78.1667,142.5 74.5,146.5C 75.3266,142.193 75.9933,137.86 76.5,133.5C 80.5157,127.171 78.849,124.171 71.5,124.5C 71.5,124.167 71.5,123.833 71.5,123.5C 73.2161,123.371 74.8828,123.038 76.5,122.5 Z"/></g>
<g><path style="opacity:0.016" fill="#000000" d="M 187.5,131.5 C 187.833,131.5 188.167,131.5 188.5,131.5C 188.672,132.492 188.338,133.158 187.5,133.5C 187.5,132.833 187.5,132.167 187.5,131.5 Z"/></g>
<g><path style="opacity:0.009" fill="#000000" d="M 186.5,133.5 C 186.833,133.5 187.167,133.5 187.5,133.5C 187.737,134.791 187.404,135.791 186.5,136.5C 186.5,135.5 186.5,134.5 186.5,133.5 Z"/></g>
<g><path style="opacity:1" fill="#5c7b8f" d="M 120.5,129.5 C 121.714,135.138 122.714,140.805 123.5,146.5C 119.833,142.5 116.167,138.5 112.5,134.5C 114.448,131.379 116.615,128.379 119,125.5C 119.21,127.058 119.71,128.391 120.5,129.5 Z"/></g>
<g><path style="opacity:0.01" fill="#000000" d="M 12.5,135.5 C 12.3284,136.492 12.6618,137.158 13.5,137.5C 13.7658,139.347 13.4325,140.014 12.5,139.5C 11.2947,138.005 11.2947,136.672 12.5,135.5 Z"/></g>
<g><path style="opacity:0.018" fill="#000000" d="M 185.5,136.5 C 185.833,136.5 186.167,136.5 186.5,136.5C 186.672,137.492 186.338,138.158 185.5,138.5C 185.5,137.833 185.5,137.167 185.5,136.5 Z"/></g>
<g><path style="opacity:1" fill="#c7d0d5" d="M 126.5,125.5 C 128.612,126.44 130.612,127.606 132.5,129C 133.76,130.814 133.76,132.647 132.5,134.5C 130.517,133.018 128.684,131.351 127,129.5C 125.476,135.375 124.643,141.375 124.5,147.5C 123.833,147.5 123.5,147.167 123.5,146.5C 122.714,140.805 121.714,135.138 120.5,129.5C 120.535,123.976 122.201,123.309 125.5,127.5C 126.298,127.043 126.631,126.376 126.5,125.5 Z"/></g>
<g><path style="opacity:0.014" fill="#000000" d="M 184.5,138.5 C 184.833,138.5 185.167,138.5 185.5,138.5C 185.672,139.492 185.338,140.158 184.5,140.5C 184.5,139.833 184.5,139.167 184.5,138.5 Z"/></g>
<g><path style="opacity:0.012" fill="#000000" d="M 183.5,140.5 C 183.833,140.5 184.167,140.5 184.5,140.5C 184.672,141.492 184.338,142.158 183.5,142.5C 183.5,141.833 183.5,141.167 183.5,140.5 Z"/></g>
<g><path style="opacity:0.01" fill="#000000" d="M 15.5,141.5 C 15.3284,142.492 15.6618,143.158 16.5,143.5C 16.6068,145.379 16.1068,145.712 15,144.5C 14.2599,143.251 14.4265,142.251 15.5,141.5 Z"/></g>
<g><path style="opacity:0.014" fill="#000000" d="M 182.5,142.5 C 182.833,142.5 183.167,142.5 183.5,142.5C 183.167,145.167 182.833,145.167 182.5,142.5 Z"/></g>
<g><path style="opacity:0.012" fill="#000000" d="M 178.5,149.5 C 179.715,150.779 179.382,151.779 177.5,152.5C 177.5,151.833 177.5,151.167 177.5,150.5C 178.167,150.5 178.5,150.167 178.5,149.5 Z"/></g>
<g><path style="opacity:0.012" fill="#000000" d="M 20.5,150.5 C 21.1667,150.5 21.5,150.833 21.5,151.5C 21.2533,153.975 20.5866,153.975 19.5,151.5C 19.6236,150.893 19.9569,150.56 20.5,150.5 Z"/></g>
<g><path style="opacity:0.013" fill="#000000" d="M 176.5,152.5 C 176.833,152.5 177.167,152.5 177.5,152.5C 176.968,155.46 176.301,155.793 175.5,153.5C 176.167,153.5 176.5,153.167 176.5,152.5 Z"/></g>
<g><path style="opacity:0.011" fill="#000000" d="M 172.5,157.5 C 173.713,158.497 173.546,159.497 172,160.5C 171.536,159.906 171.369,159.239 171.5,158.5C 172.167,158.5 172.5,158.167 172.5,157.5 Z"/></g>
<g><path style="opacity:0.01" fill="#000000" d="M 26.5,158.5 C 27.1667,158.5 27.5,158.833 27.5,159.5C 28.1667,159.5 28.5,159.833 28.5,160.5C 27.7145,162.592 26.7145,162.259 25.5,159.5C 25.6236,158.893 25.9569,158.56 26.5,158.5 Z"/></g>
<g><path style="opacity:0.024" fill="#000000" d="M 168.5,162.5 C 169.833,163.167 169.833,163.167 168.5,162.5 Z"/></g>
<g><path style="opacity:0.02" fill="#000000" d="M 167.5,163.5 C 167.833,163.5 168.167,163.5 168.5,163.5C 168.315,164.17 167.981,164.17 167.5,163.5 Z"/></g>
<g><path style="opacity:0.024" fill="#000000" d="M 166.5,164.5 C 166.833,164.5 167.167,164.5 167.5,164.5C 167.315,165.17 166.981,165.17 166.5,164.5 Z"/></g>
<g><path style="opacity:0.027" fill="#000000" d="M 165.5,165.5 C 165.833,165.5 166.167,165.5 166.5,165.5C 166.315,166.17 165.981,166.17 165.5,165.5 Z"/></g>
<g><path style="opacity:0.024" fill="#000000" d="M 164.5,166.5 C 164.833,166.5 165.167,166.5 165.5,166.5C 165.315,167.17 164.981,167.17 164.5,166.5 Z"/></g>
<g><path style="opacity:0.02" fill="#000000" d="M 163.5,167.5 C 163.833,167.5 164.167,167.5 164.5,167.5C 164.315,168.17 163.981,168.17 163.5,167.5 Z"/></g>
<g><path style="opacity:0.024" fill="#000000" d="M 162.5,168.5 C 162.833,168.5 163.167,168.5 163.5,168.5C 163.315,169.17 162.981,169.17 162.5,168.5 Z"/></g>
<g><path style="opacity:0.009" fill="#000000" d="M 37.5,169.5 C 38.1667,169.5 38.5,169.833 38.5,170.5C 37.5029,171.713 36.5029,171.546 35.5,170C 36.0944,169.536 36.7611,169.369 37.5,169.5 Z"/></g>
<g><path style="opacity:0.011" fill="#000000" d="M 158.5,171.5 C 160.975,171.747 160.975,172.413 158.5,173.5C 157.893,173.376 157.56,173.043 157.5,172.5C 158.167,172.5 158.5,172.167 158.5,171.5 Z"/></g>
<g><path style="opacity:0.013" fill="#000000" d="M 43.5,174.5 C 44.1667,174.5 44.5,174.833 44.5,175.5C 43.5029,176.713 42.5029,176.546 41.5,175C 42.0944,174.536 42.7611,174.369 43.5,174.5 Z"/></g>
<g><path style="opacity:0.02" fill="#000000" d="M 152.5,176.5 C 153.833,177.167 153.833,177.167 152.5,176.5 Z"/></g>
<g><path style="opacity:0.01" fill="#000000" d="M 150.5,178.5 C 150.5,178.167 150.5,177.833 150.5,177.5C 151.167,177.5 151.833,177.5 152.5,177.5C 152.158,178.338 151.492,178.672 150.5,178.5 Z"/></g>
<g><path style="opacity:0.024" fill="#000000" d="M 149.5,178.5 C 149.833,178.5 150.167,178.5 150.5,178.5C 150.315,179.17 149.981,179.17 149.5,178.5 Z"/></g>
<g><path style="opacity:0.014" fill="#000000" d="M 142.5,183.5 C 142.5,183.167 142.5,182.833 142.5,182.5C 145.167,182.833 145.167,183.167 142.5,183.5 Z"/></g>
<g><path style="opacity:0.012" fill="#000000" d="M 140.5,184.5 C 140.5,184.167 140.5,183.833 140.5,183.5C 141.167,183.5 141.833,183.5 142.5,183.5C 142.158,184.338 141.492,184.672 140.5,184.5 Z"/></g>
<g><path style="opacity:0.014" fill="#000000" d="M 138.5,185.5 C 138.5,185.167 138.5,184.833 138.5,184.5C 139.167,184.5 139.833,184.5 140.5,184.5C 140.158,185.338 139.492,185.672 138.5,185.5 Z"/></g>
<g><path style="opacity:0.016" fill="#000000" d="M 136.5,186.5 C 136.5,186.167 136.5,185.833 136.5,185.5C 137.167,185.5 137.833,185.5 138.5,185.5C 138.158,186.338 137.492,186.672 136.5,186.5 Z"/></g>
<g><path style="opacity:0.01" fill="#000000" d="M 133.5,187.5 C 133.5,187.167 133.5,186.833 133.5,186.5C 134.5,186.5 135.5,186.5 136.5,186.5C 135.791,187.404 134.791,187.737 133.5,187.5 Z"/></g>
<g><path style="opacity:0.014" fill="#000000" d="M 131.5,187.5 C 132.167,187.5 132.833,187.5 133.5,187.5C 132.833,188.833 132.167,188.833 131.5,187.5 Z"/></g>
<g><path style="opacity:0.01" fill="#000000" d="M 73.5,189.5 C 74.2625,190.268 75.2625,190.768 76.5,191C 74.0871,191.484 71.7538,191.15 69.5,190C 70.7932,189.51 72.1266,189.343 73.5,189.5 Z"/></g>
<g><path style="opacity:0.011" fill="#000000" d="M 81.5,191.5 C 87.0923,192.993 92.9256,193.659 99,193.5C 105.074,193.659 110.908,192.993 116.5,191.5C 118.199,191.34 119.866,191.506 121.5,192C 106.826,195.333 92.1589,195.333 77.5,192C 78.7932,191.51 80.1266,191.343 81.5,191.5 Z M 81.5,191.5 C 93.1667,192.833 104.833,192.833 116.5,191.5C 110.908,192.993 105.074,193.659 99,193.5C 92.9256,193.659 87.0923,192.993 81.5,191.5 Z"/></g>
</svg>
