<svg width="600" height="600" viewBox="0 0 600 600" fill="none" xmlns="http://www.w3.org/2000/svg">
<g clip-path="url(#clip0_9744_25110)">
<path d="M300 600C465.685 600 600 465.685 600 300C600 134.315 465.685 0 300 0C134.315 0 0 134.315 0 300C0 465.685 134.315 600 300 600Z" fill="url(#paint0_linear_9744_25110)"/>
<path d="M477.9 250.5H442.3C422.7 196.1 370 158.8 300.5 158.8H186.2V250.5H146.5V283.4H186.2V317.9H146.5V350.8H186.2V441.4H300.5C369.2 441.4 421.5 404.4 441.6 350.8H477.9V317.9H449.6C450.3 312.1 450.7 306.1 450.7 300.1V299.3C450.7 293.9 450.4 288.6 449.9 283.4H478V250.5H477.9ZM218.2 188.1H300.5C351.5 188.1 389.4 213.2 406.9 250.4H218.2V188.1ZM300.5 411.8H218.2V350.7H406.7C389.1 387.3 351.3 411.8 300.5 411.8ZM417.6 300.8C417.6 306.6 417.2 312.3 416.4 317.8H218.2V283.3H416.5C417.2 288.7 417.6 294.3 417.6 300V300.8Z" fill="white"/>
</g>
<defs>
<linearGradient id="paint0_linear_9744_25110" x1="300" y1="-85" x2="300" y2="663" gradientUnits="userSpaceOnUse">
<stop stop-color="#71BE17"/>
<stop offset="1" stop-color="#8BC34A"/>
</linearGradient>
<clipPath id="clip0_9744_25110">
<rect width="600" height="600" fill="white"/>
</clipPath>
</defs>
</svg>
