<?xml version="1.0" encoding="UTF-8"?>
<!DOCTYPE svg PUBLIC "-//W3C//DTD SVG 1.1//EN" "http://www.w3.org/Graphics/SVG/1.1/DTD/svg11.dtd">
<svg xmlns="http://www.w3.org/2000/svg" version="1.1" width="1000px" height="1000px" style="shape-rendering:geometricPrecision; text-rendering:geometricPrecision; image-rendering:optimizeQuality; fill-rule:evenodd; clip-rule:evenodd" xmlns:xlink="http://www.w3.org/1999/xlink">
<g><path style="opacity:0.983" fill="#fdfdfd" d="M 467.5,-0.5 C 489.167,-0.5 510.833,-0.5 532.5,-0.5C 690.621,13.1196 816.454,83.4529 910,210.5C 959.646,281.928 989.479,360.928 999.5,447.5C 999.5,482.5 999.5,517.5 999.5,552.5C 979.466,708.808 904.8,831.308 775.5,920C 707.438,964.028 633.105,990.528 552.5,999.5C 517.5,999.5 482.5,999.5 447.5,999.5C 293.682,979.715 172.515,906.715 84,780.5C 34.1973,705.26 6.03065,622.593 -0.5,532.5C -0.5,510.833 -0.5,489.167 -0.5,467.5C 13.4306,310.762 83.0972,185.595 208.5,92C 286.259,37.4671 372.592,6.63375 467.5,-0.5 Z"/></g>
<g><path style="opacity:1" fill="#000000" d="M 466.5,26.5 C 630.206,19.6322 764.706,78.2989 870,202.5C 963.663,323.854 994.329,459.854 962,610.5C 927.049,745.069 849.549,846.902 729.5,916C 612.742,977.943 490.742,990.943 363.5,955C 222.19,909.359 121.69,818.525 62,682.5C 20.5277,577.673 15.1943,471.007 46,362.5C 81.944,249.924 149.444,161.757 248.5,98C 315.442,56.6304 388.109,32.797 466.5,26.5 Z"/></g>
<g><path style="opacity:1" fill="#fefefe" d="M 284.5,214.5 C 311.082,239.581 337.249,265.248 363,291.5C 439.369,243.94 519.202,237.44 602.5,272C 615.395,277.693 627.562,284.527 639,292.5C 664.68,266.653 690.514,240.986 716.5,215.5C 739.986,238.486 763.32,261.653 786.5,285C 760.459,310.707 734.793,336.707 709.5,363C 756.087,438.297 762.92,517.13 730,599.5C 723.715,613.242 716.549,626.409 708.5,639C 733.64,665.307 759.307,691.14 785.5,716.5C 762.681,739.82 739.681,762.986 716.5,786C 715.833,786.667 715.167,786.667 714.5,786C 688.986,760.319 663.32,734.819 637.5,709.5C 559.571,757.547 478.571,763.38 394.5,727C 383.177,721.34 372.177,715.173 361.5,708.5C 335.514,733.986 309.68,759.653 284,785.5C 261,762.5 238,739.5 215,716.5C 214.333,715.833 214.333,715.167 215,714.5C 240.681,688.986 266.181,663.32 291.5,637.5C 250.999,573.178 240.499,504.178 260,430.5C 267.506,405.859 278.339,382.859 292.5,361.5C 267.014,335.514 241.347,309.68 215.5,284C 238.702,260.965 261.702,237.799 284.5,214.5 Z"/></g>
<g><path style="opacity:1" fill="#010101" d="M 484.5,349.5 C 538.519,346.109 583.019,364.776 618,405.5C 657.184,458.836 661.851,515.17 632,574.5C 599.239,627.638 551.406,653.138 488.5,651C 434.45,644.91 393.95,618.41 367,571.5C 339.539,513.968 344.205,459.302 381,407.5C 407.826,374.503 442.326,355.169 484.5,349.5 Z"/></g>
<g><path style="opacity:1" fill="#fcfcfc" d="M 488.5,405.5 C 508.537,403.872 527.204,408.039 544.5,418C 560.59,429.68 568.59,445.513 568.5,465.5C 556.167,465.5 543.833,465.5 531.5,465.5C 529.592,451.764 521.592,444.264 507.5,443C 495.26,441.229 483.927,443.562 473.5,450C 466.55,457.095 466.883,463.762 474.5,470C 491.623,478.042 509.289,484.708 527.5,490C 544.287,495.798 557.121,506.298 566,521.5C 574.82,553.027 564.32,575.527 534.5,589C 528.264,591.142 521.93,592.809 515.5,594C 492.449,597.984 471.449,593.318 452.5,580C 438.617,568.063 431.951,552.896 432.5,534.5C 444.833,534.5 457.167,534.5 469.5,534.5C 470.382,547.553 477.382,555.053 490.5,557C 501.108,558.384 511.442,557.384 521.5,554C 535.156,546.456 535.823,538.123 523.5,529C 507.138,522.212 490.471,516.212 473.5,511C 459.243,505.796 447.41,497.296 438,485.5C 423.855,451.281 433.688,426.447 467.5,411C 474.433,408.352 481.433,406.518 488.5,405.5 Z"/></g>
</svg>
