<svg width="500" height="500" viewBox="0 0 500 500" fill="none" xmlns="http://www.w3.org/2000/svg">
<g clip-path="url(#clip0_1351_2606)">
<path d="M492.517 310.478C459.123 444.406 323.459 525.914 189.5 492.516C55.5955 459.125 -25.9211 323.47 7.48879 189.55C40.8674 55.6056 176.53 -25.9092 310.45 7.48116C444.403 40.8714 525.911 176.542 492.517 310.478Z" fill="url(#paint0_linear_1351_2606)"/>
<path fill-rule="evenodd" clip-rule="evenodd" d="M292.114 114.881C294.348 106.544 302.917 101.597 311.253 103.831C319.591 106.065 324.537 114.634 322.303 122.97L315.684 147.674L319.789 148.774C349.347 156.694 366.887 187.075 358.967 216.631L358.6 218.005C352.425 241.05 332.234 256.599 309.658 257.936L309.651 257.956L309.292 257.958H309.266L309.155 257.964C307.511 258.099 307.205 260.464 308.844 260.975C337.291 272.241 353.394 303.3 345.283 333.569C336.552 366.158 303.055 385.497 270.466 376.766L260.872 374.194L254.255 398.892C252.02 407.228 243.451 412.175 235.116 409.942C226.778 407.708 221.831 399.139 224.066 390.802L230.683 366.105L203.234 358.75L196.617 383.447C194.384 391.783 185.816 396.73 177.478 394.497C169.142 392.263 164.195 383.694 166.428 375.356L173.045 350.661L145.591 343.305L130.501 339.261C121.407 336.824 116.01 327.475 118.447 318.381C120.884 309.286 130.231 303.889 139.326 306.327L154.416 310.37L197.069 151.186L183.361 147.513C174.267 145.077 168.869 135.729 171.306 126.634C173.744 117.54 183.091 112.143 192.186 114.579L205.908 118.256L227.858 124.141L234.478 99.4381C236.711 91.1015 245.28 86.1542 253.617 88.3879C261.953 90.6218 266.901 99.1907 264.667 107.527L258.048 132.231L285.495 139.585L292.114 114.881ZM217.997 220.369C215.126 209.652 221.486 198.638 232.201 195.766L288.411 180.705C299.128 177.833 310.142 184.192 313.014 194.908C315.884 205.625 309.525 216.639 298.809 219.511L242.6 234.572C231.883 237.444 220.869 231.084 217.997 220.369ZM192.292 311.263C189.422 300.547 195.781 289.531 206.497 286.661L262.706 271.599C273.423 268.728 284.437 275.088 287.309 285.803C290.18 296.519 283.82 307.534 273.105 310.405L216.895 325.467C206.178 328.338 195.164 321.978 192.292 311.263Z" fill="white"/>
</g>
<defs>
<linearGradient id="paint0_linear_1351_2606" x1="250" y1="2.38473e-05" x2="250" y2="500" gradientUnits="userSpaceOnUse">
<stop stop-color="#FEDF70"/>
<stop offset="1" stop-color="#D88528"/>
</linearGradient>
<clipPath id="clip0_1351_2606">
<rect width="500" height="500" fill="white"/>
</clipPath>
</defs>
</svg>
