<svg width="450" height="450" viewBox="0 0 450 450" fill="none" xmlns="http://www.w3.org/2000/svg">
<circle cx="225" cy="225" r="225" fill="#ECEEF0"/>
<path d="M120.45 207.031L117.697 211.16C86.0414 260.709 92.9231 325.397 135.59 366.687C158.988 391.461 192.02 403.848 225.052 403.848C225.052 403.848 225.052 403.848 120.45 207.031Z" fill="#00A3FF"/>
<path opacity="0.6" d="M225.051 266.215L120.5 207C225.102 405.194 225.051 403.85 225.051 403.85C225.051 361.183 225.051 311.635 225.051 266.215Z" fill="#00A3FF"/>
<path opacity="0.6" d="M329.654 207.031L332.407 211.16C364.063 260.709 357.181 325.397 314.514 366.687C289.74 391.461 258.084 403.848 225.052 403.848C225.052 403.848 225.052 403.848 329.654 207.031Z" fill="#00A3FF"/>
<path opacity="0.2" d="M225.052 266.215L329.5 207C224.898 405.194 225.052 403.85 225.052 403.85C225.052 361.183 225.052 311.635 225.052 266.215Z" fill="#00A3FF"/>
<path opacity="0.2" d="M225.052 132.709V235.935L315.89 185.01L225.052 132.709Z" fill="#00A3FF"/>
<path opacity="0.6" d="M225.052 132.709L134.213 185.01L225.052 235.935V132.709Z" fill="#00A3FF"/>
<path d="M225.052 46L134.213 185.011L225.052 132.71V46Z" fill="#00A3FF"/>
<path opacity="0.6" d="M225.052 132.71L315.89 185.011L225.052 46V132.71Z" fill="#00A3FF"/>
</svg>
