<svg width="400" height="400" viewBox="0 0 400 400" fill="none" xmlns="http://www.w3.org/2000/svg">
<g clip-path="url(#clip0_364_16925)">
<path d="M200 400C310.457 400 400 310.457 400 200C400 89.5433 310.457 0 200 0C89.5433 0 0 89.5433 0 200C0 310.457 89.5433 400 200 400Z" fill="url(#paint0_radial_364_16925)"/>
<path d="M166.443 293.567L140.11 286.9L130.41 325.192L156.743 331.859L166.443 293.567Z" fill="#664AED"/>
<path d="M212.085 305.093L185.751 298.426L176.043 336.718L202.376 343.385L212.076 305.093H212.085ZM270.185 75.2428L243.851 68.5762L234.151 106.868L260.485 113.535L270.185 75.2428Z" fill="#146AF4"/>
<path d="M224.777 63.5924L198.444 56.9258L188.744 95.2174L215.077 101.884L224.777 63.5924Z" fill="#664AED"/>
<path d="M224.352 308.334L88.3516 273.834L96.5182 241.501L232.518 276.001C244.185 279.001 255.852 272.501 258.518 261.667C261.185 250.834 254.018 239.667 242.352 236.667L157.352 215.167L165.518 182.834L250.518 204.334C281.185 212.167 300.352 241.834 293.018 270.334C285.685 298.834 254.852 316.001 224.185 308.167L224.352 308.334Z" fill="#B9B9FC"/>
<path d="M215.035 101.984L170.61 90.7344L122.043 282.518L166.476 293.768L215.035 101.984Z" fill="#664AED"/>
<path d="M229.184 216.168L144.184 194.668L152.351 162.335L237.351 183.835C249.018 186.835 260.684 180.335 263.351 169.501C266.018 158.668 258.851 147.501 247.184 144.501L128.518 114.501L136.684 82.168L255.351 112.168C286.018 120.001 305.184 149.668 297.851 178.168C290.518 206.668 259.684 223.835 229.018 216.001L229.184 216.168Z" fill="#9FF7EC"/>
<path d="M214.835 101.867L170.419 90.6172L161.127 127.292L205.552 138.542L214.844 101.876L214.835 101.867Z" fill="#664AED"/>
</g>
<defs>
<radialGradient id="paint0_radial_364_16925" cx="0" cy="0" r="1" gradientUnits="userSpaceOnUse" gradientTransform="translate(130.667 95.6667) rotate(54.1675) scale(331.388)">
<stop stop-color="#323638"/>
<stop offset="1"/>
</radialGradient>
<clipPath id="clip0_364_16925">
<rect width="400" height="400" fill="white"/>
</clipPath>
</defs>
</svg>
