<?xml version="1.0" encoding="UTF-8"?>
<!DOCTYPE svg PUBLIC "-//W3C//DTD SVG 1.1//EN" "http://www.w3.org/Graphics/SVG/1.1/DTD/svg11.dtd">
<svg xmlns="http://www.w3.org/2000/svg" version="1.1" width="200px" height="200px" style="shape-rendering:geometricPrecision; text-rendering:geometricPrecision; image-rendering:optimizeQuality; fill-rule:evenodd; clip-rule:evenodd" xmlns:xlink="http://www.w3.org/1999/xlink">
<g><path style="opacity:0.987" fill="#010101" d="M 85.5,-0.5 C 94.8333,-0.5 104.167,-0.5 113.5,-0.5C 149.972,6.4615 176.139,26.7948 192,60.5C 195.468,69.7155 197.968,79.0488 199.5,88.5C 199.5,95.5 199.5,102.5 199.5,109.5C 190.492,160.508 160.492,190.508 109.5,199.5C 102.5,199.5 95.5,199.5 88.5,199.5C 45.5812,192.757 17.0812,168.757 3,127.5C 1.80115,122.705 0.634482,118.038 -0.5,113.5C -0.5,104.167 -0.5,94.8333 -0.5,85.5C 9.17563,37.8244 37.8423,9.1577 85.5,-0.5 Z"/></g>
<g><path style="opacity:1" fill="#f3f3f3" d="M 66.5,21.5 C 67.8333,21.5 69.1667,21.5 70.5,21.5C 70.8134,24.2469 70.48,26.9135 69.5,29.5C 33.8052,47.2195 18.9719,75.8862 25,115.5C 31.6684,140.497 46.6684,158.497 70,169.5C 70.8184,172.227 70.6517,174.894 69.5,177.5C 35.2106,162.685 17.2106,136.518 15.5,99C 17.5091,63.182 34.5091,37.3486 66.5,21.5 Z"/></g>
<g><path style="opacity:1" fill="#f4f4f4" d="M 128.5,21.5 C 153.571,30.7391 170.405,48.0724 179,73.5C 189.068,114.5 176.901,147 142.5,171C 138.046,173.311 133.546,175.478 129,177.5C 128.179,174.446 128.345,171.446 129.5,168.5C 165.536,150.093 180.036,120.76 173,80.5C 165.959,57.0534 151.459,40.0534 129.5,29.5C 128.52,26.9135 128.187,24.2469 128.5,21.5 Z"/></g>
<g><path style="opacity:1" fill="#f9f9f9" d="M 147.5,89.5 C 115.5,89.5 83.5,89.5 51.5,89.5C 51.5,87.1667 51.5,84.8333 51.5,82.5C 57.2055,82.8288 62.8722,82.4954 68.5,81.5C 78.8661,64.2966 89.0327,46.9633 99,29.5C 109.374,47.0829 119.874,64.5829 130.5,82C 136.157,82.4994 141.824,82.6661 147.5,82.5C 147.5,84.8333 147.5,87.1667 147.5,89.5 Z"/></g>
<g><path style="opacity:1" fill="#040404" d="M 98.5,49.5 C 105.267,60.1858 111.933,71.0191 118.5,82C 105.82,82.8326 93.1535,82.666 80.5,81.5C 86.524,70.7788 92.524,60.1121 98.5,49.5 Z"/></g>
<g><path style="opacity:1" fill="#b7b7b7" d="M 51.5,82.5 C 51.5,84.8333 51.5,87.1667 51.5,89.5C 83.5,89.5 115.5,89.5 147.5,89.5C 115.338,90.4982 83.0043,90.8316 50.5,90.5C 50.1936,87.6146 50.5269,84.9479 51.5,82.5 Z"/></g>
<g><path style="opacity:1" fill="#dedede" d="M 51.5,108.5 C 83.329,107.502 115.329,107.168 147.5,107.5C 147.5,110.167 147.5,112.833 147.5,115.5C 141.833,115.5 136.167,115.5 130.5,115.5C 135.64,114.512 140.974,114.179 146.5,114.5C 146.5,112.5 146.5,110.5 146.5,108.5C 114.833,108.5 83.1667,108.5 51.5,108.5 Z"/></g>
<g><path style="opacity:1" fill="#f9f9f9" d="M 51.5,108.5 C 83.1667,108.5 114.833,108.5 146.5,108.5C 146.5,110.5 146.5,112.5 146.5,114.5C 140.974,114.179 135.64,114.512 130.5,115.5C 120.011,133.139 109.511,150.806 99,168.5C 89.0327,151.037 78.8661,133.703 68.5,116.5C 62.8722,115.505 57.2055,115.171 51.5,115.5C 51.5,113.167 51.5,110.833 51.5,108.5 Z"/></g>
<g><path style="opacity:1" fill="#040404" d="M 80.5,115.5 C 93.1711,115.333 105.838,115.5 118.5,116C 111.874,126.75 105.374,137.584 99,148.5C 92.577,137.594 86.4103,126.594 80.5,115.5 Z"/></g>
</svg>
