<svg width="496px" height="496px" viewBox="0 0 496 496" version="1.1" xmlns="http://www.w3.org/2000/svg" xmlns:xlink="http://www.w3.org/1999/xlink">
    <g id="USDi" stroke="none" stroke-width="1" fill="none" fill-rule="evenodd">
        <g fill-rule="nonzero">
            <circle id="Oval" fill="#000000" cx="248" cy="248" r="248"></circle>
            <polygon id="Path" fill="#FFFFFF" points="160.32 400.72 179.78 327.48 135.12 327.48 140.79 308.35 189.68 308.35 184.07 328.4 164.35 400.72"></polygon>
            <path d="M201.23,454.79 C193.85,452.68 186.93,450.2 180.08,447.22 C175.28,445.12 170.9,439.3 172.27,434.3 C176.93,417.49 181.44,401.34 185.68,386.29 L189.9,371.12 C198.15,341.65 210.69,296.82 223.54,250.92 L224.07,249.02 L211.52,249.02 C199.51,249.02 190.08,247.75 183.47,245.23 C177.38,242.9 172.98,239.79 170.38,235.99 C167.81,232.2 166.53,227.74 166.559485,222.74 C166.58,217.05 167.58,210.82 169.54,204.22 C173.86,189.66 181.44,177.99 192.07,169.55 C199.99,163.27 210.71,159.31 223.93,157.77 L231.82,157.78 L226.5,176.8 C217.06,177.29 209.2,179.98 203.12,184.77 C196.44,190.05 191.83,196.85 189.42,204.98 C186.95,213.31 187.47,220.53 190.96,226.45 C194.7,232.81 203.29,236.04 216.46,236.04 L227.69,236.04 L227.76,235.8 C227.76,235.8 253.58,143.56 262.18,112.84 L281.54,112.87 L278.39,124.15 C270.99,150.7 259.64,191.38 247.7,234.15 L247.17,236.05 L260.62,236.05 C272.68,236.05 282.24,237.28 289.05,239.7 C295.34,241.97 299.89,244.92 302.57,248.45 C305.12,251.86 306.43,255.96 306.460316,260.63 C306.48,266.1 305.55,272.06 303.69,278.34 C301.4,286.06 298.29,293.13 294.43,299.36 C290.79,305.24 286.21,310.34 280.79,314.52 C275.32,318.74 268.72,322.13 261.2,324.6 C257.39,325.86 253.08,326.83 248.41,327.48 L238.4,327.47 L243.75,308.33 C254.46,308.17 263.17,305.43 269.65,300.18 C276.16,294.92 280.67,288.15 283.07,280.07 C285.44,272.1 285,265.01 281.78,259.02 C278.22,252.38 269.55,249.01 256.02,249.01 L243.54,249.01 L243.23,250.1 C229.44,299.48 215.42,349.65 206.23,382.51 C200.93,401.45 197.58,417.96 198.43,437.02 C198.62,441.24 199.71,448.18 201.23,454.79 Z" id="Path" fill="#FFFFFF"></path>
            <polygon id="Path" fill="#FFFFFF" points="280.33 176.73 285.8 156.91 298.31 112.75 302.02 112.75 289.96 157.81 331.97 157.82 326.36 176.73"></polygon>
            <path d="M277.72,93.23 C273.04,93.23 268.84,91.42 265.89,88.14 C262.92,84.83 261.56,80.4 262.07,75.68 C263.13,65.83 272.01,57.81 281.86,57.81 C286.54,57.81 290.74,59.62 293.69,62.9 C296.66,66.21 298.02,70.64 297.51,75.36 C296.45,85.21 287.57,93.23 277.72,93.23 Z" id="Path" fill="#FFFFFF"></path>
            <path d="M443.87,167.63 C433.55,141.49 417.88,117.6 398.25,97.75 C378.64,77.89 355.06,62.06 329.38,51.56 C303.71,41 275.95,35.9 248.38,36.34 C275.95,36.77 303.35,42.75 328.35,53.97 C353.37,65.14 375.97,81.42 394.47,101.38 C412.99,121.32 427.39,144.95 436.52,170.41 C445.69,195.85 449.5,223.08 447.89,249.91 C446.34,276.74 439.32,303.13 427.38,327 C415.46,350.88 398.64,372.19 378.43,389.35 C358.23,406.53 334.63,419.54 309.48,427.32 C296.91,431.22 283.96,433.83 270.9,435.1 C264.37,435.74 257.81,436.06 251.25,436.03 C247.97,436.11 244.69,435.98 241.42,435.82 C240.98,435.8 240.54,435.76 240.1,435.74 L225.57,434.57 C224.91,447.07 228.87,454.37 229.85,455.96 L229.85,455.97 C229.85,455.97 229.85,455.97 229.86,455.97 C230.1,455.99 230.34,456.02 230.58,456.02 C230.58,456.02 230.58,456.02 230.58,456.02 C233.95,456.24 237.33,456.4 240.7,456.47 C244.32,456.53 247.93,456.56 251.54,456.36 C258.76,456.16 265.98,455.58 273.14,454.65 C287.46,452.79 301.58,449.47 315.2,444.77 C342.44,435.38 367.62,420.4 388.82,401.17 C410.03,381.96 427.31,358.53 439.2,332.67 C451.12,306.82 457.63,278.61 458.37,250.36 C459.16,222.1 454.23,193.76 443.87,167.63 Z" id="Path" fill="#FFFFFF"></path>
        </g>
    </g>
</svg>