<svg width="48" height="48" viewBox="0 0 48 48" fill="none" xmlns="http://www.w3.org/2000/svg">
<g clip-path="url(#clip0_3886_5852)">
<path d="M23.9999 48C37.2546 48 47.9997 37.2549 47.9997 24.0001C47.9997 10.7453 37.2546 0.000244141 23.9999 0.000244141C10.7451 0.000244141 0 10.7453 0 24.0001C0 37.2549 10.7451 48 23.9999 48Z" fill="white"/>
<path d="M41.8629 7.98635C41.4155 7.48442 40.9464 7.0045 40.4611 6.55709C36.1623 2.48764 30.369 0 24.0028 0C17.6367 0 12.0942 2.38398 7.8228 6.28423C7.33188 6.73702 6.85733 7.20619 6.40455 7.69711C2.42749 11.9795 0 17.7076 0 23.9972C0 30.2868 2.48764 36.1623 6.55709 40.4608C7.00988 40.9463 7.48979 41.4155 7.98635 41.8573C12.236 45.6705 17.8547 47.9997 24.0028 47.9997C30.1509 47.9997 36.0205 45.5666 40.3029 41.5955C40.7938 41.1427 41.263 40.6681 41.7158 40.1772C45.6163 35.9058 48 30.2269 48 23.9972C48 17.7675 45.6762 12.2304 41.8629 7.98635ZM40.5591 39.0208C40.1117 39.5117 39.6371 39.9863 39.1516 40.439C35.1638 44.1105 29.8396 46.3634 24.0026 46.3634C18.1655 46.3634 13.0978 44.2195 9.14276 40.7009C8.64619 40.2591 8.16628 39.7899 7.70812 39.3098C3.9494 35.3056 1.63659 29.9105 1.63659 23.9972C1.63659 18.0838 3.88414 12.8413 7.56095 8.85352C8.01374 8.3626 8.48828 7.89343 8.98484 7.44601C12.956 3.84037 18.2256 1.63659 24.0028 1.63659C29.78 1.63659 35.3058 3.94967 39.31 7.70812C39.7956 8.16628 40.2591 8.64646 40.7012 9.14275C44.2198 13.0924 46.3637 18.3019 46.3637 23.9972C46.3637 29.6925 44.1599 35.0494 40.5594 39.0208H40.5591Z" fill="#FF0000"/>
<path d="M38.0443 39.3371C34.3403 42.7357 29.4032 44.8087 24.0028 44.8087C18.6024 44.8087 13.9163 42.8394 10.2449 39.599L11.4069 38.4426C14.7781 41.3884 19.1859 43.1721 24.0028 43.1721C28.8196 43.1721 33.4839 41.2791 36.8932 38.1807L38.0443 39.3371Z" fill="#FFAAAA"/>
<path d="M9.97196 37.0461L8.80991 38.2082C5.32941 34.4878 3.19116 29.4854 3.19116 23.9975C3.19116 18.5095 5.26415 13.6545 8.66274 9.95032L9.81915 11.1067C6.72054 14.5107 4.82775 19.0386 4.82775 23.9972C4.82775 28.9558 6.78069 33.6255 9.97196 37.0458V37.0461Z" fill="#FFAAAA"/>
<path d="M38.2078 8.81L37.0514 9.9664C33.6257 6.78051 29.0377 4.82757 24.0028 4.82757C18.9679 4.82757 14.6307 6.67148 11.2431 9.70456L10.0811 8.54251C13.7689 5.2202 18.6566 3.19098 24.0028 3.19098C29.3489 3.19098 34.4875 5.32386 38.2081 8.80973L38.2078 8.81Z" fill="#FFAAAA"/>
<path d="M44.8086 23.9972C44.8086 29.3487 42.7794 34.2311 39.4571 37.9186L38.295 36.7566C41.3281 33.369 43.172 28.8903 43.172 23.9969C43.172 19.1035 41.3883 14.7722 38.4425 11.401L39.6045 10.2446C42.8396 13.9161 44.8089 18.7275 44.8089 23.9972H44.8086Z" fill="#FFAAAA"/>
<path d="M31.6024 19.1718L31.5968 19.1731C31.3248 16.3938 28.9778 15.4461 26.0183 15.1563L25.9968 11.3028L23.7093 11.2888L23.7302 15.0414C23.1249 15.0336 22.5126 15.0465 21.8987 15.0534L21.8834 11.2743L19.5888 11.256L19.6103 15.1096C19.1196 15.1176 18.6293 15.1257 18.1544 15.1233L18.1571 15.1098L14.9989 15.0846L15.0107 17.5867C15.0107 17.5867 16.6683 17.5671 16.6755 17.5969C17.6015 17.6074 17.9047 18.1582 17.9984 18.6349L18.018 23.0266C18.0865 23.0285 18.1663 23.0277 18.2621 23.0419C18.188 23.0411 18.1023 23.0435 18.0226 23.0444L18.0537 29.1919C18.0172 29.4919 17.8453 29.9648 17.1981 29.961C17.2244 29.9925 15.5333 29.9508 15.5333 29.9508L15.0956 32.7481L18.0739 32.7675C18.6298 32.775 19.1739 32.7852 19.7126 32.7967L19.7328 36.6951L22.0203 36.7088L21.9988 32.8553C22.6246 32.8706 23.2312 32.8843 23.8293 32.8878L23.8462 36.7233L26.1354 36.7432L26.1164 32.851C29.9645 32.6541 32.6525 31.6766 32.971 27.9788C33.2224 25 31.8428 23.6599 29.6543 23.1029C30.9807 22.4192 31.8063 21.2082 31.6019 19.1715L31.6024 19.1718ZM28.4404 27.4852C28.456 30.3977 23.5863 30.026 22.0332 30.0193L22.0069 24.8574C23.5613 24.8697 28.4243 24.4462 28.4404 27.4849V27.4852ZM27.3359 20.1874C27.3485 22.8413 23.2874 22.5027 21.9911 22.4895L21.9671 17.8078C23.1646 17.8204 26.7381 17.4828 27.2709 19.628C27.3122 19.7948 27.3351 19.9855 27.3359 20.1874Z" fill="#FF9F41"/>
</g>
<defs>
<clipPath id="clip0_3886_5852">
<rect width="48" height="48" fill="white"/>
</clipPath>
</defs>
</svg>
