<svg width="48" height="48" viewBox="0 0 48 48" fill="none" xmlns="http://www.w3.org/2000/svg">
<rect width="48" height="48" rx="24" fill="white"/>
<path fill-rule="evenodd" clip-rule="evenodd" d="M28.0848 20.6769C28.0848 23.3326 23.9426 23.0104 22.6286 23.0104V18.332C23.945 18.332 28.0848 17.9154 28.0848 20.6769ZM29.1664 27.9398C29.1664 30.8417 24.2049 30.5102 22.6239 30.5102V25.3716C24.2049 25.3716 29.1664 24.9113 29.1664 27.9513M32.4343 19.6414C32.1696 16.8568 29.7857 15.9363 26.7686 15.6464V11.8286H24.4512V15.5704C23.8367 15.5704 23.2108 15.5704 22.5871 15.5934V11.8286H20.2582V15.6694H15.5337V18.1686C15.5337 18.1686 17.2551 18.1386 17.2298 18.1686C17.5404 18.1344 17.8522 18.2223 18.0991 18.4139C18.3461 18.6054 18.5089 18.8855 18.553 19.1949V29.7141C18.5466 29.8224 18.5188 29.9282 18.4713 30.0257C18.4238 30.1234 18.3576 30.2105 18.2763 30.2822C18.1951 30.354 18.1004 30.4092 17.9979 30.4445C17.8953 30.4795 17.7867 30.4941 17.6785 30.4872C17.7084 30.5148 15.9825 30.4872 15.9825 30.4872L15.5222 33.2786H20.2283V37.1909H22.5595V33.3362H24.4212V37.1657H26.7525V33.3062C30.69 33.0763 33.4262 32.0935 33.7805 28.4001C34.0591 25.4244 32.6645 24.0989 30.4346 23.5674C31.7899 22.877 32.6414 21.6596 32.4389 19.6345" fill="#F7931A"/>
<path opacity="0.6" d="M11.3497 9.96455C13.7126 7.82701 16.5812 6.32673 19.6847 5.60519C22.7882 4.88365 26.0243 4.9647 29.0879 5.84065L29.3548 5.91661C29.4885 5.95573 29.6195 5.99716 29.7508 6.04088C29.9394 6.10072 30.1281 6.16513 30.3122 6.23188L30.4962 6.29862C30.7473 6.39066 30.9981 6.48961 31.2443 6.59317L31.2741 6.607C33.237 7.45091 35.061 8.58678 36.6844 9.97605L37.7109 8.86684C37.5726 8.72877 37.4301 8.60219 37.2897 8.47103C33.7362 5.39269 29.2264 3.63956 24.5267 3.50946C24.2759 3.50946 24.0251 3.50946 23.7743 3.50946H23.7214C22.197 3.53058 20.6794 3.71574 19.1947 4.06177L18.891 4.13543L18.6378 4.20215C17.1585 4.5988 15.7287 5.1616 14.3759 5.87977C12.8945 6.67509 11.546 7.69602 10.3785 8.90596L11.3497 9.96455Z" fill="#221D34"/>
<path opacity="0.6" d="M10.0496 11.2556L8.92194 10.2683C1.27249 18.2859 2.3863 31.332 8.92194 37.5499L10.0726 36.6501C6.89137 33.1879 5.1243 28.6586 5.12046 23.9568C5.11662 19.2551 6.8763 14.7229 10.0519 11.2556H10.0496Z" fill="#221D34"/>
<path opacity="0.6" d="M39.5589 10.7677C39.3818 10.5836 39.2023 10.4018 39.0158 10.2292L38.0284 11.3108C43.8278 17.8993 45.0521 28.3586 38.2104 36.4109L39.1723 37.573C42.4591 33.9036 44.3095 29.1701 44.3822 24.2443C44.4549 19.3186 42.7452 14.5325 39.568 10.7677H39.5589Z" fill="#221D34"/>
<path opacity="0.6" d="M36.7583 37.9503C36.0909 38.4497 35.4283 38.9076 34.7632 39.331C32.3498 41.0369 29.5667 42.1471 26.6418 42.5712C25.1454 42.8098 23.6236 42.8455 22.1176 42.6771C18.3244 42.3091 14.7336 40.7935 11.824 38.3323C11.6721 38.2219 11.5225 38.1137 11.3638 37.9987L10.3029 38.9491C14.0148 42.6149 19.1029 44.3777 24.1106 44.3755C24.221 44.3755 24.3407 44.3755 24.442 44.3755H24.4948C29.153 44.2541 33.628 42.5376 37.1726 39.5129C37.3336 39.361 37.4971 39.2115 37.6511 39.0526L36.7583 37.9503Z" fill="#221D34"/>
<path d="M23.9908 1.6109C28.4198 1.60907 32.7497 2.92086 36.4329 5.38031C40.1162 7.83976 42.9874 11.3364 44.6832 15.4278C46.3788 19.5193 46.823 24.0218 45.9595 28.3656C45.0958 32.7096 42.9633 36.6998 39.8316 39.8316C36.6998 42.9631 32.7096 45.0958 28.3656 45.9593C24.0218 46.823 19.5193 46.3788 15.4278 44.683C11.3364 42.9874 7.83978 40.1162 5.38033 36.433C2.92088 32.7497 1.60908 28.4198 1.6109 23.9909C1.62003 18.0581 3.98084 12.371 8.17592 8.1759C12.371 3.98082 18.0581 1.62002 23.9908 1.6109ZM23.9908 1.76559e-06C19.2441 0.00182289 14.6045 1.41118 10.6587 4.04985C6.7129 6.6885 3.63821 10.438 1.82338 14.8241C0.00855974 19.2102 -0.46487 24.036 0.462962 28.6913C1.39079 33.3463 3.67822 37.6219 7.03597 40.9771C10.3937 44.3323 14.671 46.6164 19.3269 47.5406C23.9827 48.4649 28.8081 47.9878 33.1929 46.1695C37.5777 44.3515 41.3249 41.2738 43.9606 37.326C46.596 33.3782 48.0019 28.7376 48 23.9909C47.9988 20.8391 47.377 17.7185 46.1698 14.8071C44.9623 11.8957 43.1935 9.25067 40.9641 7.02292C38.7345 4.79517 36.0883 3.02836 33.1759 1.82337C30.2637 0.618375 27.1425 -0.00120711 23.9908 1.76559e-06Z" fill="#221D34"/>
</svg>
