<svg width="500" height="500" viewBox="0 0 500 500" fill="none" xmlns="http://www.w3.org/2000/svg">
<path d="M137.827 499.999C266.132 499.999 266.132 498.089 287.887 491.631C316.317 483.192 207.617 407.949 137.827 407.949C68.0364 407.949 11.4602 428.555 11.4602 453.974C11.4602 479.393 68.0393 499.999 137.827 499.999Z" fill="black"/>
<path d="M429.17 108.614L435.071 114.973L429.912 121.949C262.578 348.197 166.183 450.636 125.284 436.896C100.372 428.528 75.3892 403.36 50.4055 366.814C41.6238 353.968 33.3776 340.442 25.8776 326.981C20.8833 318.017 16.656 309.841 14.4612 305.237C11.6614 299.363 10.4793 295.744 9.54148 290.992C9.48426 290.701 9.48426 290.701 9.42989 290.421C9.03846 288.404 8.90304 287.766 8.61045 286.663C3.5753 267.686 1 248.025 1 228.033C1 102.094 103.094 0 229.033 0C268.489 0 306.51 10.0415 340.206 28.8911L341.076 29.4354C368.665 48.6428 398.01 75.0352 429.17 108.614ZM329.546 46.8998C299.062 29.9458 264.715 20.9205 229.033 20.9205C114.648 20.9205 21.9205 113.648 21.9205 228.033C21.9205 246.21 24.2596 264.068 28.8313 281.298C29.2834 283.002 29.4878 283.964 29.9674 286.436C30.0177 286.695 30.0177 286.695 30.0661 286.942C30.6714 290.009 31.31 291.964 33.346 296.235C35.3483 300.436 39.3721 308.218 44.1529 316.798C51.3613 329.736 59.2828 342.73 67.6761 355.007C90.2484 388.026 112.634 410.578 131.946 417.065C157.703 425.717 254.666 323.075 407.902 116.516C380.082 87.1513 353.947 63.9456 329.546 46.8998Z" fill="black"/>
<path d="M329.546 46.8997C299.062 29.9457 264.715 20.9204 229.033 20.9204C114.648 20.9204 21.9204 113.648 21.9204 228.033C21.9204 246.21 24.2595 264.068 28.8312 281.298C29.2833 283.002 29.4877 283.964 29.9673 286.436C30.0176 286.695 30.0176 286.695 30.066 286.942C30.6713 290.009 31.3099 291.963 33.346 296.235C35.3482 300.436 39.372 308.218 44.1528 316.798C51.3612 329.736 59.2827 342.73 67.676 355.007C90.2483 388.026 112.634 410.578 131.946 417.065C157.703 425.717 254.666 323.075 407.902 116.516C380.081 87.1512 353.947 63.9455 329.546 46.8997Z" fill="#EC1C79"/>
<path d="M270.875 497.908C144.935 497.908 42.8411 395.814 42.8411 269.874C42.8411 143.935 144.935 41.8408 270.875 41.8408C396.814 41.8408 498.908 143.935 498.908 269.874C498.908 395.814 396.814 497.908 270.875 497.908ZM270.875 476.987C385.26 476.987 477.987 384.26 477.987 269.874C477.987 155.489 385.26 62.7613 270.875 62.7613C156.489 62.7613 63.7616 155.489 63.7616 269.874C63.7616 384.26 156.489 476.987 270.875 476.987Z" fill="black"/>
<path d="M270.874 476.988C385.26 476.988 477.987 384.26 477.987 269.875C477.987 155.489 385.26 62.7617 270.874 62.7617C156.489 62.7617 63.7615 155.489 63.7615 269.875C63.7615 384.26 156.489 476.988 270.874 476.988Z" fill="white"/>
<path fill-rule="evenodd" clip-rule="evenodd" d="M115.946 312.301L88.5315 229.707H112.548L126.841 277.155L142.657 229.473H162.222L178.038 277.155L192.331 229.707H215.879L188.465 312.301H168.665L152.147 265.088L135.745 312.301H115.946ZM224.9 311.715V229.707H290.858V249.037H247.393V261.456H286.757V279.381H247.393V292.385H291.444V311.715H224.9ZM323.075 311.715V249.623H298.473V229.707H370.406V249.623H345.803V311.715H323.075ZM380.364 311.715V229.707H403.092V260.402H432.264V229.707H454.992V311.715H432.264V280.552H403.092V311.715H380.364Z" fill="black"/>
<path d="M14.5891 205.039C8.80188 202.145 6.45616 195.108 9.34975 189.321C12.2434 183.534 19.2805 181.188 25.0677 184.082L58.5405 200.818C64.3277 203.712 66.6734 210.749 63.7798 216.536C60.8862 222.323 53.8491 224.669 48.0619 221.775L14.5891 205.039Z" fill="black"/>
<path d="M10.7351 260.541C4.86029 257.829 2.29575 250.869 5.00704 244.994C7.71834 239.119 14.6788 236.555 20.5536 239.266L54.0264 254.714C59.9012 257.425 62.4657 264.386 59.7544 270.261C57.0431 276.136 50.0827 278.7 44.2079 275.989L10.7351 260.541Z" fill="black"/>
</svg>
