<svg width="116" height="116" viewBox="0 0 116 116" fill="none" xmlns="http://www.w3.org/2000/svg">
<path d="M116 58C116 90.0325 90.0325 116 58 116C25.9675 116 0 90.0325 0 58C0 25.9675 25.9675 0 58 0C90.0325 0 116 25.9675 116 58Z" fill="#17438C"/>
<path d="M68 58C68 63.5228 63.5228 68 58 68C52.4772 68 48 63.5228 48 58C48 52.4772 52.4772 48 58 48C63.5228 48 68 52.4772 68 58Z" fill="#3682FF"/>
<path d="M68 34C68 39.5228 63.5228 44 58 44C52.4772 44 48 39.5228 48 34C48 28.4772 52.4772 24 58 24C63.5228 24 68 28.4772 68 34Z" fill="#FFBF60"/>
<path d="M68 82C68 87.5228 63.5228 92 58 92C52.4772 92 48 87.5228 48 82C48 76.4772 52.4772 72 58 72C63.5228 72 68 76.4772 68 82Z" fill="#3682FF"/>
<path d="M34 48C39.5228 48 44 52.4772 44 58C44 63.5228 39.5228 68 34 68C28.4772 68 24 63.5228 24 58C24 52.4772 28.4772 48 34 48Z" fill="#3682FF"/>
<path d="M34 72C39.5228 72 44 76.4772 44 82C44 87.5228 39.5228 92 34 92C28.4772 92 24 87.5228 24 82C24 76.4772 28.4772 72 34 72Z" fill="#3682FF"/>
<path d="M82 48C87.5228 48 92 52.4772 92 58C92 63.5228 87.5228 68 82 68C76.4772 68 72 63.5228 72 58C72 52.4772 76.4772 48 82 48Z" fill="#3682FF"/>
<path d="M82 72C87.5228 72 92 76.4772 92 82C92 87.5228 87.5228 92 82 92C76.4772 92 72 87.5228 72 82C72 76.4772 76.4772 72 82 72Z" fill="#3682FF"/>
<path d="M82 24C87.5228 24 92 28.4772 92 34C92 39.5228 87.5228 44 82 44C76.4772 44 72 39.5228 72 34C72 28.4772 76.4772 24 82 24Z" fill="#FFBF60"/>
<path fill-rule="evenodd" clip-rule="evenodd" d="M75.5 37H60.5V31L75.5 31V37Z" fill="#FFBF60"/>
<path fill-rule="evenodd" clip-rule="evenodd" d="M55 37H40V31L55 31V37Z" fill="#FFBF60"/>
<path d="M34 24C39.5228 24 44 28.4772 44 34C44 39.5228 39.5228 44 34 44C28.4772 44 24 39.5228 24 34C24 28.4772 28.4772 24 34 24Z" fill="#FFBF60"/>
</svg>
