<svg width="136" height="136" viewBox="0 0 136 136" fill="none" xmlns="http://www.w3.org/2000/svg">
<path d="M68.0603 135.767C105.551 135.767 135.944 105.375 135.944 67.8836C135.944 30.3925 105.551 0 68.0603 0C30.5693 0 0.176758 30.3925 0.176758 67.8836C0.176758 105.375 30.5693 135.767 68.0603 135.767Z" fill="#9562AD"/>
<path d="M130.917 68.6083C130.917 99.0742 109.73 124.536 81.445 130.74L81.0346 128.831C76.7732 129.761 72.4261 130.229 68.0667 130.229C37.5797 130.229 11.6122 107.209 7.6652 76.6821C7.32232 74.0048 7.15081 71.308 7.15175 68.6083H5.20703C5.20703 33.4989 33.3465 5.0293 68.0622 5.0293V6.9811C101.662 6.9811 128.982 34.625 128.982 68.6022L130.917 68.6083Z" fill="#191919"/>
<path d="M101.155 115.653L99.0664 112.448C122.567 96.1744 129.174 63.5558 113.952 38.9558L117.11 36.875C133.429 63.2451 126.35 98.2098 101.155 115.653Z" fill="#9562AD"/>
<path d="M19.9177 100.571C15.5734 93.8852 12.5995 86.3398 11.1817 78.4052C9.76391 70.4705 9.93257 62.3169 11.6772 54.4531C13.4218 46.5893 16.7048 39.1841 21.3216 32.6995C25.9383 26.2149 31.7896 20.7902 38.5103 16.7637L40.4009 20.1796C24.1296 29.9466 14.0216 48.1435 14.0216 67.6698C14.0025 78.6131 17.1494 89.309 23.0528 98.3649L19.9177 100.571Z" fill="#9562AD"/>
<path d="M45.3836 113.977C20.1635 101.557 9.76976 70.9956 22.1698 45.7236C23.1001 43.828 24.147 41.9921 25.3044 40.2266L28.5676 42.3768C23.5222 50.0504 20.8405 59.0415 20.8563 68.2309C20.8563 86.3025 30.9158 102.482 47.108 110.469L45.3836 113.977Z" fill="#9562AD"/>
<path d="M117.541 80.4569L113.804 79.4668C114.811 75.5736 115.321 71.566 115.319 67.542C115.319 41.6937 94.4954 20.6646 68.8994 20.6646V16.7637C96.6685 16.7652 119.184 39.4991 119.184 67.542C119.185 71.9001 118.633 76.2405 117.541 80.4569Z" fill="#9562AD"/>
<path d="M61.9956 56.2958C60.7148 58.7375 59.4671 61.1434 58.1822 63.5314C58.0514 63.7738 57.6768 63.8715 57.4799 64.0946C57.2678 64.3343 56.9235 64.7199 56.9951 64.9072C57.5336 66.3256 56.7954 67.3447 55.9388 68.244C54.6911 69.5537 53.2465 70.6375 51.5911 71.4143C51.1008 71.6442 50.7042 72.1318 50.0528 71.8246C49.9619 71.782 49.7223 72.0505 49.5543 72.1772C49.1949 72.4444 48.8685 72.7804 48.4718 72.9691C47.4803 73.4401 46.475 73.8945 45.4421 74.2608C44.7549 74.5046 44.0085 74.7015 43.291 74.6905C42.8503 74.685 42.4192 74.2402 41.9744 74.0116C41.7816 73.9124 41.5392 73.7651 41.3616 73.8091C40.5669 74.0019 39.9169 73.6783 39.2366 73.3574C38.0825 72.8121 36.9051 72.3149 35.7345 71.804C34.8614 71.4225 34.5308 70.6706 34.4868 69.8085C34.4496 69.0882 34.5777 68.3611 34.6038 67.6353C34.6575 66.1631 33.98 64.9085 33.3919 63.625C33.2074 63.2229 33.0986 62.785 32.9526 62.3649C32.9154 62.2603 32.8948 62.1281 32.8204 62.0606C31.7999 61.1392 31.8908 59.7965 31.5644 58.6328C30.9364 56.4128 30.6417 54.1281 30.6142 51.8186C30.5715 48.2187 31.2546 44.7538 32.4637 41.366C33.2349 39.2052 33.9056 37.0059 35.2828 35.1384C36.1256 33.9954 37.0937 32.9446 38.0151 31.8608C38.2864 31.5413 38.5701 31.4986 39.0135 31.668C39.6277 31.9021 40.3163 31.9434 40.9346 32.0591C41.0875 33.0507 41.1302 34.1758 41.4511 35.2156C42.0832 37.2689 43.5182 38.8003 45.3195 39.8401C47.7089 41.22 50.2098 42.4154 52.6997 43.6107C55.359 44.8874 58.05 46.113 60.2383 48.1416C61.4557 49.2709 62.1801 50.7086 62.2503 52.4149C62.2641 52.7358 62.209 53.0636 62.2614 53.3762C62.3784 54.0909 62.1195 54.5371 61.4764 54.8787C60.8374 55.2175 60.8677 55.5755 61.4723 55.9432C61.6416 56.0465 61.8014 56.1649 61.9942 56.2958H61.9956Z" fill="white"/>
<path d="M69.2256 99.7374C68.3608 98.1014 66.4603 97.7846 65.0404 99.0213C64.8352 98.6688 64.6232 98.3272 64.4317 97.9747C64.0503 97.2723 63.4085 97.2103 62.8397 97.4417C62.0121 97.7777 61.1637 98.1179 60.6776 99.0764C60.3829 98.4016 60.4875 97.4266 59.58 97.4569C58.9644 97.4775 58.3626 97.8852 57.6919 98.1427C57.7732 98.2336 57.7263 98.2047 57.7263 98.1771C57.7608 96.8206 57.2732 96.7903 56.2376 97.1525C55.9622 97.2489 55.6923 97.3591 55.3314 97.4968C55.4017 97.1415 55.4788 96.8413 55.516 96.5369C55.5408 96.3386 55.5077 96.1334 55.4995 95.931C55.2461 95.9613 54.961 95.931 54.7462 96.0384C54.4707 96.1775 54.2531 96.4295 54.081 96.5755C53.9804 96.3744 53.8303 96.0728 53.6802 95.7698C53.3483 95.9819 53.0178 96.194 52.6584 96.424C51.7302 95.8552 52.5096 95.0661 52.5689 94.3555C52.6997 92.7841 52.7961 91.1729 52.2328 89.7131C51.9064 88.8675 51.5263 88.0054 51.1283 87.1722C50.9273 86.7508 50.5155 86.4285 50.1946 86.065C50.0886 85.9452 49.8848 85.8543 49.8641 85.7276C49.6493 84.3862 48.3768 84.0419 47.5353 83.3409C46.5878 82.5518 45.4407 81.9996 44.3018 81.2959C44.3665 80.5288 44.7672 80.3305 45.7257 80.2864C46.8137 80.2368 47.8975 79.9752 48.9662 79.7287C49.6369 79.5744 50.2855 79.3031 50.9259 79.0401C51.8293 78.6682 52.7369 78.5195 53.6968 78.7867C53.8868 78.839 54.1306 78.8514 54.3068 78.7784C55.9181 78.1105 57.3283 77.1782 58.4163 75.7693C59.0608 74.9361 59.7742 74.1388 60.5481 73.4254C61.7311 72.3333 62.585 71.0553 63.089 69.5377C63.5545 68.1385 63.9993 66.731 64.4717 65.3332C64.5088 65.2244 64.7388 65.066 64.7939 65.0936C65.3999 65.4144 65.5954 64.9076 65.8791 64.6074C67.1626 65.9254 67.646 67.6812 68.3911 69.3049C68.6858 69.9467 69.2022 70.4838 69.592 71.087C70.1814 72 70.7653 72.9172 71.3106 73.8564C71.4139 74.0341 71.3988 74.3467 71.3189 74.5519C71.0738 75.1882 71.4194 75.3658 71.9331 75.5132C72.2375 75.6013 72.5515 75.7473 72.7911 75.9511C73.6188 76.6535 74.2922 77.4577 74.5952 78.5512C74.8568 79.4959 75.6101 79.9642 76.5494 80.0289C77.2283 80.0757 77.7021 80.3511 78.0284 80.9158C78.2226 81.2518 78.4168 81.4818 78.8754 81.3165C79.031 81.2601 79.272 81.4405 79.4731 81.5148C80.0116 81.7131 80.5473 81.9197 81.0885 82.107C81.4452 82.2296 81.9451 82.2131 82.1462 82.4541C82.7989 83.2349 83.6968 83.2831 84.5658 83.4979C85.472 83.721 86.4484 83.8615 87.0984 84.6286C87.283 84.8476 87.4069 85.2442 87.3491 85.5141C87.2458 85.992 87.3463 86.295 87.7512 86.5318C87.8476 86.5883 87.9316 86.6723 88.0101 86.7536C88.4522 87.2204 88.8915 87.6914 89.3033 88.1321C88.5155 87.8663 87.6341 87.5523 86.7417 87.2727C85.3178 86.8252 83.9296 87.0717 82.5758 87.5771C80.5431 88.3345 78.9856 89.6786 77.837 91.5075C77.8246 91.5268 77.8095 91.5488 77.8095 91.5695C77.7847 92.5721 76.9694 93.1601 76.5425 93.9492C75.993 94.9628 76.1224 96.0177 76.2009 97.074C76.2712 98.0091 76.4061 98.9401 76.497 99.7471H74.9546C75.1681 97.5092 75.0276 95.252 74.8197 92.9976C74.7136 92.9797 74.6076 92.9618 74.5002 92.9439C74.4065 93.2758 74.2371 93.6063 74.2302 93.9396C74.2013 95.4517 74.2041 96.9666 74.2247 98.4787C74.2316 98.9538 74.1201 99.1411 73.5899 99.2031C73.134 99.2554 72.7112 99.5846 72.2499 99.8022C71.3396 98.4071 70.8149 98.3988 69.2201 99.7374H69.2256ZM65.5307 88.0453C65.9039 88.1087 66.2248 88.1596 66.5429 88.2216C66.6614 88.245 66.8087 88.2615 66.8845 88.3387C67.3072 88.7752 67.7865 88.6527 68.0729 88.2918C68.5398 87.7066 69.048 87.0634 69.2353 86.3624C69.647 84.8228 69.4763 83.2859 68.7257 81.8343C68.2396 80.8979 67.7879 79.9407 67.3609 78.9753C66.8734 77.8764 66.4355 76.754 65.9659 75.6481C65.824 75.3162 65.6009 75.2653 65.331 75.5338C65.2704 75.5944 65.2016 75.677 65.1272 75.6894C64.5639 75.7831 63.8547 76.5639 63.761 77.1258C63.4953 78.7137 63.1358 80.2644 62.4596 81.7517C61.8564 83.0793 61.3717 84.4688 61.5548 85.9989C61.6705 86.9684 62.2434 87.3099 63.0422 86.7467C63.5407 86.3941 63.9759 85.952 64.5557 85.4494C64.5557 86.1724 64.5323 86.8018 64.5653 87.427C64.5832 87.752 64.7003 88.0729 64.7719 88.3951C65.0446 88.2698 65.3172 88.1445 65.5321 88.0467L65.5307 88.0453Z" fill="white"/>
<path d="M107.466 48.6973C107.545 48.9093 107.645 49.0512 107.647 49.1958C107.702 51.3414 107.866 53.4925 107.753 55.6299C107.664 57.3238 107.238 58.9998 106.942 60.6799C106.905 60.8934 106.802 61.1399 106.648 61.279C105.831 62.0034 106.115 62.8683 106.228 63.7524C106.329 64.5443 106.321 65.2934 105.82 66.0784C105.218 67.019 104.879 68.1414 104.506 69.2115C103.919 70.8916 103.063 72.3528 101.586 73.4159C101.135 73.7423 100.854 74.1816 100.735 74.8151C100.474 76.2171 100.033 77.586 99.6681 78.9687C99.5345 79.4782 99.0966 79.6848 98.7371 79.4672C97.8723 78.9439 97.1617 79.4121 96.4318 79.6903C95.7639 79.9437 95.1648 80.4092 94.4845 80.5868C94.052 80.6997 93.5136 80.4987 93.044 80.3623C91.6406 79.9533 90.342 79.3061 89.1287 78.4935C88.9882 78.3985 88.8202 78.1974 88.8271 78.0542C88.8546 77.4937 88.5062 77.2568 88.0765 77.3188C86.1857 77.5915 84.7094 76.4856 83.0843 75.8811C82.5183 75.6703 81.9509 75.4225 81.451 75.0906C81.1728 74.906 80.8988 74.5314 80.8561 74.2106C80.75 73.4049 80.319 72.8017 79.5987 72.737C78.5879 72.6461 78.2298 71.868 77.6927 71.291C76.6489 70.1686 75.6711 68.9842 74.6823 67.8123C74.5721 67.6814 74.5294 67.4707 74.5074 67.2917C74.4316 66.6734 74.2498 66.1803 73.5461 66.0013C72.8369 65.8223 72.6565 65.1089 72.4664 64.5608C71.9761 63.1506 71.6071 61.6977 71.2311 60.2503C71.1912 60.0947 71.3757 59.7848 71.5396 59.6843C73.0779 58.745 74.7043 57.9366 76.4932 57.697C77.8718 57.5125 79.2902 57.6144 80.6908 57.624C81.3243 57.6282 81.9551 57.7246 82.5886 57.7631C84.2439 57.8609 85.9061 57.8816 87.5518 58.0606C89.3132 58.2506 91.0526 58.6404 92.8126 58.8318C93.5067 58.9062 94.2338 58.6693 94.9472 58.5894C95.8437 58.4903 96.7444 58.42 97.6395 58.314C98.974 58.1556 100.313 58.0551 101.564 57.4629C102.767 56.8941 103.596 55.9398 104.334 54.911C105.594 53.1538 106.584 51.245 107.247 49.1765C107.292 49.0319 107.373 48.8997 107.466 48.7014V48.6973Z" fill="white"/>
<path d="M71.6136 115.311C71.8725 115.328 72.1933 115.452 72.3793 115.345C73.0141 114.979 73.598 114.527 74.2081 114.117C74.5221 113.905 74.8485 113.712 75.1694 113.509C75.2286 113.578 75.2878 113.646 75.347 113.714C75.1405 114.037 74.938 114.363 74.7259 114.683C74.182 115.501 74.2026 116.277 74.8816 116.94C75.2259 117.277 75.3484 117.615 75.3333 118.081C75.3099 118.799 75.5743 118.939 76.2546 118.667C76.4736 118.579 76.7724 118.423 76.9349 118.501C78.1234 119.077 78.9511 118.422 79.7994 117.751C80.0129 117.582 80.2828 117.484 80.5968 117.423C80.1409 118.378 79.8834 119.426 78.9566 120.073C78.823 120.166 78.677 120.303 78.6316 120.449C78.1826 121.876 77.0919 122.776 75.9957 123.659C74.6805 124.718 73.3419 125.748 71.9964 126.771C71.6783 127.014 71.3133 127.22 70.9401 127.358C69.8714 127.753 68.7642 128.051 67.7162 128.494C67.0662 128.768 66.5883 128.341 66.0264 128.305C65.7868 128.29 65.5458 128.259 65.3062 128.26C64.3229 128.266 63.312 128.518 62.6042 127.431C62.2902 126.95 61.7063 126.607 61.1829 126.309C60.4296 125.879 59.77 126.3 59.2329 126.782C58.7963 127.173 58.3832 127.208 57.9452 126.937C57.393 126.595 56.8669 126.205 56.356 125.802C54.6373 124.44 53.3744 122.743 52.6308 120.669C52.5481 120.441 52.4834 120.175 52.3237 120.011C51.4822 119.15 51.1241 118.033 50.6752 116.967C50.4411 116.411 50.4149 115.868 51.0897 115.536C51.2095 115.477 51.3596 115.293 51.3472 115.181C51.2798 114.563 51.7329 114.209 51.9918 113.748C52.3953 113.03 52.3347 112.263 52.1102 111.486C51.9766 111.023 51.854 110.529 51.8761 110.057C51.9174 109.181 52.3843 108.561 53.2808 108.348C53.5489 108.926 53.9785 109.041 54.5698 108.693C54.6566 109.072 54.7185 109.44 54.8315 109.792C54.8783 109.937 55.0256 110.139 55.1413 110.149C55.2598 110.159 55.4099 109.978 55.52 109.857C55.6991 109.66 55.8588 109.27 56.0241 109.272C56.3601 109.274 56.8063 109.324 56.7622 109.911C56.7278 110.358 56.7994 110.814 56.8228 111.266C56.911 111.287 56.9977 111.307 57.0859 111.329C57.269 111.043 57.4371 110.745 57.6409 110.475C57.7648 110.311 58.0168 110.043 58.0843 110.076C58.2909 110.178 58.4975 110.378 58.5884 110.588C58.7192 110.89 58.7206 111.248 58.8349 111.559C58.8941 111.719 59.0993 111.954 59.204 111.938C59.3816 111.909 59.5868 111.74 59.6818 111.574C59.8788 111.229 60.011 110.847 60.1707 110.478C60.7588 110.521 61.1099 110.738 61.1705 111.313C61.1871 111.464 61.2298 111.646 61.3289 111.749C61.5079 111.937 61.7366 112.077 61.9445 112.235C62.0505 112.054 62.1965 111.884 62.2557 111.689C62.4141 111.163 62.6565 110.782 63.2542 110.886C63.3644 111.45 63.4718 111.994 63.5778 112.538C63.6811 112.541 63.7858 112.545 63.8891 112.548C64.002 112.23 64.0956 111.905 64.232 111.598C64.3256 111.388 64.4812 111.207 64.6093 111.012C64.758 111.183 64.9095 111.35 65.0528 111.525C65.0941 111.576 65.0996 111.656 65.1409 111.705C65.3378 111.932 65.5224 112.306 65.7482 112.333C65.9782 112.362 66.3156 112.1 66.4919 111.877C66.8073 111.479 67.0428 111.022 67.6845 111.168C67.7492 111.508 67.7809 111.868 67.8952 112.198C67.9558 112.372 68.1624 112.494 68.3029 112.64C68.4406 112.501 68.6155 112.384 68.7064 112.22C68.8124 112.029 68.8152 111.781 68.9198 111.588C69.0231 111.399 69.1994 111.251 69.3041 111.128C69.5547 111.601 69.7613 111.99 69.9678 112.38C70.2281 112.213 70.4884 112.048 70.8079 111.843C71.608 112.419 71.7044 111.445 72.1038 111.052C72.6065 111.693 72.7607 111.987 73.5719 110.659C74.0498 111.382 74.0938 111.368 74.8141 110.212C75.4751 110.862 75.5853 110.17 75.8056 109.802C76.0095 110.065 76.2064 110.321 76.457 110.646C76.1513 111.143 75.7891 111.786 74.8678 112.048C74.3458 112.195 73.8267 112.815 73.5788 113.348C73.2414 114.075 72.7373 114.479 72.057 114.772C71.8973 114.841 71.7595 114.961 71.6122 115.057C71.6136 115.143 71.6149 115.227 71.6163 115.312L71.6136 115.311ZM53.5383 111.271C53.0205 111.369 53.0894 111.844 53.205 112.114C53.5893 113.011 54.0492 113.878 54.523 114.734C54.596 114.864 54.8921 114.87 55.0862 114.933C55.0876 114.756 55.151 114.55 55.0821 114.407C54.5946 113.378 54.0795 112.363 53.5383 111.271Z" fill="white"/>
<path d="M59.9078 103.348C60.0951 102.961 60.2893 102.576 60.4655 102.185C60.8856 101.251 61.256 100.293 61.7284 99.3882C61.9129 99.0356 62.2834 98.7478 62.6277 98.5164C63.2777 98.0799 63.9236 98.471 64.0324 99.395C64.2362 101.129 64.3519 102.859 63.8286 104.577C63.4485 105.826 63.4939 105.857 62.2627 105.775C60.4573 105.658 58.7276 105.198 57.0584 104.519C56.9111 104.459 56.7913 104.19 56.7624 104.003C56.6178 103.06 56.9882 102.249 57.4055 101.426C57.8062 100.634 58.0707 99.7751 58.4508 98.9709C58.5499 98.7616 58.8556 98.6514 59.0663 98.4958C59.2123 98.7285 59.4024 98.9433 59.496 99.1954C59.8858 100.242 59.8679 101.315 59.6544 102.4C59.5993 102.677 59.6461 102.974 59.6461 103.262L59.9078 103.349V103.348Z" fill="white"/>
<path d="M68.668 102.5C69.0976 101.85 69.5245 101.197 69.9611 100.551C70.074 100.383 70.209 100.225 70.3564 100.087C70.6979 99.7645 71.1 99.8307 71.1716 100.271C71.2846 100.964 71.2832 101.676 71.3424 102.378C71.3741 102.76 71.4774 103.14 71.4663 103.517C71.4443 104.244 71.3823 104.97 71.2914 105.692C71.2749 105.824 71.0573 106 70.9072 106.032C70.3164 106.157 69.7132 106.317 69.1169 106.306C68.1722 106.288 67.2274 106.061 66.2841 106.071C64.586 106.088 64.8009 105.473 64.9303 104.166C65.0391 103.072 65.2719 101.991 65.4137 100.901C65.5032 100.201 65.8379 99.6558 66.3846 99.2605C67.0278 98.795 68.0331 99.361 68.1639 100.253C68.2424 100.788 68.2548 101.333 68.3126 101.872C68.3347 102.075 68.4022 102.274 68.449 102.473C68.522 102.483 68.5963 102.493 68.6693 102.502L68.668 102.5Z" fill="white"/>
<path d="M85.6689 89.5962C85.4307 90.6608 85.2007 91.7281 84.9445 92.7899C84.8936 92.9978 84.7366 93.1796 84.6319 93.3765C84.3634 93.8792 83.9654 93.7401 83.8221 93.3848C83.6376 92.9248 83.588 92.3808 83.6045 91.8768C83.6376 90.8426 83.7822 89.8138 83.8249 88.7796C83.8469 88.2425 84.1526 87.9478 85.0051 87.9037C85.5532 87.8748 85.4926 88.3155 85.5036 88.668C85.5133 88.9655 85.505 89.263 85.505 89.559C85.5601 89.5714 85.6138 89.5838 85.6689 89.5962Z" fill="white"/>
<path d="M73.7789 100.042C73.8725 100.511 73.991 100.87 74.0103 101.234C74.0805 102.601 74.3807 104.003 73.5641 105.267C73.4139 105.5 73.1964 105.733 72.9554 105.853C72.5284 106.065 72.1649 105.792 72.1621 105.311C72.1621 105.175 72.1745 105.039 72.1841 104.902C72.2213 104.358 72.3122 103.813 72.2874 103.272C72.2461 102.368 72.8892 100.815 73.7789 100.041V100.042Z" fill="white"/>
<path d="M56.4593 98.0215C56.8945 99.1205 56.7857 100.093 56.5654 101.062C56.4125 101.734 56.2266 102.401 56.0641 103.072C55.9511 103.533 55.2405 103.749 54.8701 103.403C54.6594 103.206 54.5079 102.948 54.417 102.828C54.6621 102.065 54.8701 101.378 55.1056 100.7C55.3548 99.9867 55.6124 99.2733 55.9098 98.5792C55.9966 98.3782 56.2348 98.2418 56.4607 98.0215H56.4593Z" fill="white"/>
<path d="M80.3544 113.22C80.459 114.118 80.0555 114.764 79.1356 115.229C78.1661 115.72 77.7557 115.678 77.0699 115.02C77.0533 115.005 77.0382 114.987 77.0217 114.972C76.3014 114.298 76.3097 114.309 77.1194 113.676C77.3356 113.507 77.5188 113.271 77.6524 113.03C77.892 112.598 78.3424 112.459 78.5875 112.857C78.9648 113.472 79.4165 113.436 79.9715 113.228C80.0858 113.186 80.2304 113.222 80.353 113.222L80.3544 113.22Z" fill="white"/>
<path d="M64.2666 109.191C64.5351 108.456 64.739 107.805 65.0227 107.19C65.097 107.029 65.4179 106.92 65.6314 106.912C65.7374 106.908 65.9481 107.185 65.9495 107.336C65.9578 108.061 66.0018 108.809 65.8393 109.501C65.7732 109.784 65.2182 109.953 64.8863 110.173C64.6908 109.865 64.4966 109.555 64.2666 109.19V109.191Z" fill="white"/>
<path d="M63.4718 108.087C63.3079 108.614 63.2005 109.172 62.954 109.658C62.8342 109.892 62.4445 110.12 62.1883 110.107C62.0162 110.099 61.6994 109.636 61.7352 109.426C61.8619 108.663 62.0768 107.907 62.337 107.177C62.4059 106.984 62.7543 106.892 62.9733 106.754C63.1 106.98 63.2639 107.195 63.3424 107.436C63.403 107.623 63.3548 107.845 63.3548 108.051C63.3947 108.064 63.4333 108.076 63.4732 108.088L63.4718 108.087Z" fill="white"/>
<path d="M54.4866 98.3701C54.3585 99.3493 54.2291 100.328 54.1038 101.309C54.0638 101.62 54.0569 101.938 53.9936 102.244C53.9537 102.437 53.8338 102.612 53.7498 102.795C53.5584 102.688 53.2403 102.615 53.199 102.466C53.0874 102.064 52.9621 101.586 53.0819 101.217C53.4028 100.228 53.849 99.2804 54.2442 98.3164C54.3255 98.3343 54.4054 98.3522 54.4866 98.3701Z" fill="white"/>
<path d="M66.7578 109.064C67.0085 108.487 67.2137 107.883 67.529 107.343C67.726 107.007 68.011 107.085 68.1708 107.474C68.5041 108.286 68.3415 109.271 67.7273 109.853C67.5924 109.98 67.328 110.118 67.1999 110.064C67.0635 110.008 66.9974 109.738 66.941 109.548C66.9024 109.422 66.9341 109.275 66.9341 109.139C66.8762 109.114 66.817 109.089 66.7592 109.064H66.7578Z" fill="white"/>
<path d="M61.0943 106.637C61.0613 107.148 61.0668 107.666 60.9828 108.167C60.9098 108.601 60.7459 109.024 60.5917 109.44C60.5448 109.565 60.4099 109.725 60.2983 109.738C60.2033 109.751 60.0298 109.597 59.9857 109.481C59.6883 108.674 59.6194 107.846 60.0601 107.08C60.2088 106.822 60.5641 106.682 60.8258 106.488C60.9153 106.538 61.0048 106.587 61.0943 106.636V106.637Z" fill="white"/>
<path d="M70.4205 107.117C70.9741 108.333 70.3916 109.866 69.2844 110.214C69.2678 109.053 69.0819 107.847 70.4205 107.117Z" fill="white"/>
<path d="M58.5624 109.337C57.6865 108.724 57.5956 107.147 58.382 106.209C59.1174 106.73 59.2221 108.546 58.5624 109.337Z" fill="white"/>
<path d="M56.6859 105.633C57.2037 106.456 57.0867 107.621 56.4284 108.289C55.9601 107.335 56.2562 106.503 56.6859 105.633Z" fill="white"/>
<path d="M71.775 107.154C72.3988 107.906 72.1454 109.093 71.4004 109.618C71.5202 108.833 71.6359 108.067 71.775 107.154Z" fill="white"/>
<path d="M55.7204 104.998C55.4532 105.969 55.237 106.758 55.0084 107.588C54.6476 106.832 54.8528 106.016 55.7204 104.998Z" fill="white"/>
<path d="M73.4867 107.48C73.6575 108.248 73.4495 108.911 72.7871 109.449C72.9606 108.78 73.1355 108.111 73.3091 107.441C73.3683 107.454 73.4275 107.468 73.4867 107.48Z" fill="white"/>
<path d="M54.4431 104.816C54.249 105.374 54.0548 105.932 53.8124 106.633C53.6086 105.765 53.8344 105.199 54.4431 104.816Z" fill="white"/>
<path d="M65.5301 88.0465C65.3153 88.1456 65.0426 88.2696 64.7699 88.3949C64.6983 88.0726 64.5799 87.7518 64.5634 87.4268C64.5303 86.8015 64.5537 86.1722 64.5537 85.4492C63.9753 85.9518 63.5401 86.3939 63.0402 86.7464C62.2429 87.3097 61.67 86.9682 61.5529 85.9986C61.3697 84.4686 61.8545 83.0791 62.4577 81.7515C63.1339 80.2641 63.4933 78.7135 63.7591 77.1256C63.8528 76.5637 64.562 75.7829 65.1253 75.6892C65.1996 75.6768 65.2685 75.5942 65.3291 75.5336C65.5976 75.265 65.8221 75.316 65.9639 75.6479C66.4349 76.7551 66.8729 77.8761 67.359 78.9751C67.7859 79.9405 68.239 80.8963 68.7238 81.8341C69.4757 83.2856 69.6465 84.8225 69.2333 86.3622C69.046 87.0618 68.5379 87.7049 68.071 88.2916C67.7832 88.6524 67.3039 88.7736 66.8825 88.3384C66.8081 88.2613 66.6594 88.2448 66.541 88.2214C66.2229 88.1594 65.902 88.1098 65.5288 88.0451L65.5301 88.0465Z" fill="#1A1A1A"/>
<path d="M53.5393 111.271C54.0819 112.364 54.5956 113.38 55.0831 114.407C55.1506 114.551 55.0886 114.757 55.0872 114.933C54.8944 114.87 54.5969 114.863 54.524 114.734C54.0502 113.878 53.5902 113.012 53.206 112.114C53.0903 111.844 53.0215 111.368 53.5393 111.271Z" fill="#1A1A1A"/>
</svg>
