<?xml version="1.0" encoding="UTF-8"?>
<!DOCTYPE svg PUBLIC "-//W3C//DTD SVG 1.1//EN" "http://www.w3.org/Graphics/SVG/1.1/DTD/svg11.dtd">
<svg xmlns="http://www.w3.org/2000/svg" version="1.1" width="226px" height="262px" style="shape-rendering:geometricPrecision; text-rendering:geometricPrecision; image-rendering:optimizeQuality; fill-rule:evenodd; clip-rule:evenodd" xmlns:xlink="http://www.w3.org/1999/xlink">
<g><path style="opacity:0.592" fill="#997b46" d="M 111.5,-0.5 C 112.5,-0.5 113.5,-0.5 114.5,-0.5C 117.167,1.5 119.833,3.5 122.5,5.5C 119.91,4.87165 117.577,3.70499 115.5,2C 113.527,1.50454 111.527,1.33788 109.5,1.5C 110.167,0.833333 110.833,0.166667 111.5,-0.5 Z"/></g>
<g><path style="opacity:0.765" fill="#8f7e49" d="M 109.5,1.5 C 108.9,2.89992 107.9,3.89992 106.5,4.5C 105.833,4.5 105.167,4.5 104.5,4.5C 105.659,2.74973 107.326,1.74973 109.5,1.5 Z"/></g>
<g><path style="opacity:1" fill="#eac57b" d="M 109.5,1.5 C 111.527,1.33788 113.527,1.50454 115.5,2C 117.577,3.70499 119.91,4.87165 122.5,5.5C 122.833,6.5 123.5,7.16667 124.5,7.5C 124.5,9.5 124.5,11.5 124.5,13.5C 122.079,13.1218 119.746,12.4552 117.5,11.5C 116.508,11.6716 115.842,11.3382 115.5,10.5C 115.038,9.12011 114.038,8.45344 112.5,8.5C 110.004,9.25148 107.67,10.2515 105.5,11.5C 104.472,8.72315 104.805,6.38981 106.5,4.5C 107.9,3.89992 108.9,2.89992 109.5,1.5 Z"/></g>
<g><path style="opacity:1" fill="#a2975b" d="M 104.5,4.5 C 103.145,7.51767 100.812,8.851 97.5,8.5C 99.3356,6.41203 101.669,5.0787 104.5,4.5 Z"/></g>
<g><path style="opacity:0.647" fill="#8c6a4b" d="M 122.5,5.5 C 129.332,8.41244 135.666,12.0791 141.5,16.5C 141.167,16.5 140.833,16.5 140.5,16.5C 137.339,15.0869 134.339,13.4203 131.5,11.5C 129.167,10.1667 126.833,8.83333 124.5,7.5C 123.5,7.16667 122.833,6.5 122.5,5.5 Z"/></g>
<g><path style="opacity:1" fill="#dad083" d="M 104.5,4.5 C 105.167,4.5 105.833,4.5 106.5,4.5C 104.805,6.38981 104.472,8.72315 105.5,11.5C 102.506,13.9998 99.173,15.9998 95.5,17.5C 94.5489,16.0813 94.2155,14.4147 94.5,12.5C 95.7888,11.3634 96.7888,10.0301 97.5,8.5C 100.812,8.851 103.145,7.51767 104.5,4.5 Z"/></g>
<g><path style="opacity:1" fill="#a2a165" d="M 97.5,8.5 C 96.7888,10.0301 95.7888,11.3634 94.5,12.5C 93.1667,12.5 91.8333,12.5 90.5,12.5C 92.3356,10.412 94.6689,9.0787 97.5,8.5 Z"/></g>
<g><path style="opacity:1" fill="#d0a977" d="M 124.5,7.5 C 126.833,8.83333 129.167,10.1667 131.5,11.5C 131.104,14.0444 131.771,16.2111 133.5,18C 131.381,18.3418 131.047,19.1751 132.5,20.5C 126.995,18.2513 121.995,15.2513 117.5,11.5C 119.746,12.4552 122.079,13.1218 124.5,13.5C 124.5,11.5 124.5,9.5 124.5,7.5 Z"/></g>
<g><path style="opacity:1" fill="#98a067" d="M 90.5,12.5 C 89.1906,15.4507 86.8573,16.7841 83.5,16.5C 85.3356,14.412 87.6689,13.0787 90.5,12.5 Z"/></g>
<g><path style="opacity:1" fill="#deb08c" d="M 131.5,11.5 C 134.339,13.4203 137.339,15.0869 140.5,16.5C 140.577,17.7498 141.244,18.5831 142.5,19C 141.272,20.4902 141.272,21.9902 142.5,23.5C 139.673,23.4162 137.006,22.7496 134.5,21.5C 133.508,21.6716 132.842,21.3382 132.5,20.5C 131.047,19.1751 131.381,18.3418 133.5,18C 131.771,16.2111 131.104,14.0444 131.5,11.5 Z"/></g>
<g><path style="opacity:0.733" fill="#788858" d="M 83.5,16.5 C 82.5144,18.4077 80.8477,19.4077 78.5,19.5C 79.6594,17.7497 81.326,16.7497 83.5,16.5 Z"/></g>
<g><path style="opacity:1" fill="#c8d58d" d="M 90.5,12.5 C 91.8333,12.5 93.1667,12.5 94.5,12.5C 94.2155,14.4147 94.5489,16.0813 95.5,17.5C 93.5,18.8333 91.5,20.1667 89.5,21.5C 86.3388,22.9131 83.3388,24.5797 80.5,26.5C 80.1249,24.3024 79.4582,22.3024 78.5,20.5C 78.5,20.1667 78.5,19.8333 78.5,19.5C 80.8477,19.4077 82.5144,18.4077 83.5,16.5C 86.8573,16.7841 89.1906,15.4507 90.5,12.5 Z"/></g>
<g><path style="opacity:0.58" fill="#918851" d="M 115.5,10.5 C 114.417,10.4606 113.417,10.1272 112.5,9.5C 105.433,14.0328 98.0993,18.0328 90.5,21.5C 90.1667,21.5 89.8333,21.5 89.5,21.5C 91.5,20.1667 93.5,18.8333 95.5,17.5C 99.173,15.9998 102.506,13.9998 105.5,11.5C 107.67,10.2515 110.004,9.25148 112.5,8.5C 114.038,8.45344 115.038,9.12011 115.5,10.5 Z"/></g>
<g><path style="opacity:1" fill="#20dd8b" d="M 98.5,116.5 C 87.7466,109.066 76.7466,101.899 65.5,95C 61.1339,93.1476 56.8006,91.3143 52.5,89.5C 42.2212,83.6906 31.8879,77.8573 21.5,72C 20.6433,71.3109 19.9767,70.4776 19.5,69.5C 36.0319,59.0658 53.0319,49.3991 70.5,40.5C 76.3379,38.4943 82.0046,35.9943 87.5,33C 94.5361,28.1492 101.869,23.8159 109.5,20C 111.167,19.3333 112.833,19.3333 114.5,20C 143.886,35.688 172.886,51.8546 201.5,68.5C 172.868,86.4883 143.868,103.988 114.5,121C 112.167,121.667 109.833,121.667 107.5,121C 104.804,118.828 101.804,117.328 98.5,116.5 Z"/></g>
<g><path style="opacity:1" fill="#d7a693" d="M 140.5,16.5 C 140.833,16.5 141.167,16.5 141.5,16.5C 142.492,16.3284 143.158,16.6618 143.5,17.5C 146.458,20.1314 149.125,23.1314 151.5,26.5C 151.167,27.5 150.5,28.1667 149.5,28.5C 147.929,27.6906 146.262,27.3573 144.5,27.5C 144.011,26.0048 143.345,24.6715 142.5,23.5C 141.272,21.9902 141.272,20.4902 142.5,19C 141.244,18.5831 140.577,17.7498 140.5,16.5 Z"/></g>
<g><path style="opacity:1" fill="#8da66f" d="M 78.5,19.5 C 78.5,19.8333 78.5,20.1667 78.5,20.5C 76.8148,22.8176 74.4815,23.8176 71.5,23.5C 73.3356,21.412 75.6689,20.0787 78.5,19.5 Z"/></g>
<g><path style="opacity:1" fill="#a9826d" d="M 134.5,21.5 C 137.006,22.7496 139.673,23.4162 142.5,23.5C 143.345,24.6715 144.011,26.0048 144.5,27.5C 140.827,25.9998 137.494,23.9998 134.5,21.5 Z"/></g>
<g><path style="opacity:1" fill="#bd8f87" d="M 143.5,17.5 C 146.331,18.0787 148.664,19.412 150.5,21.5C 151.833,22.8333 153.167,24.1667 154.5,25.5C 154.5,27.1667 154.5,28.8333 154.5,30.5C 153.209,30.2627 152.209,30.596 151.5,31.5C 148.996,30.4161 146.663,29.0828 144.5,27.5C 146.262,27.3573 147.929,27.6906 149.5,28.5C 150.5,28.1667 151.167,27.5 151.5,26.5C 149.125,23.1314 146.458,20.1314 143.5,17.5 Z"/></g>
<g><path style="opacity:0.62" fill="#785358" d="M 150.5,21.5 C 156.668,24.0804 162.335,27.4137 167.5,31.5C 163.167,29.5 158.833,27.5 154.5,25.5C 153.167,24.1667 151.833,22.8333 150.5,21.5 Z"/></g>
<g><path style="opacity:0.792" fill="#729060" d="M 71.5,23.5 C 70.5144,25.4077 68.8477,26.4077 66.5,26.5C 67.6594,24.7497 69.326,23.7497 71.5,23.5 Z"/></g>
<g><path style="opacity:0.682" fill="#7e8e5e" d="M 89.5,21.5 C 89.8333,21.5 90.1667,21.5 90.5,21.5C 84.8697,25.6543 78.8697,29.321 72.5,32.5C 71.8333,32.5 71.1667,32.5 70.5,32.5C 73.5488,30.1373 76.8822,28.1373 80.5,26.5C 83.3388,24.5797 86.3388,22.9131 89.5,21.5 Z"/></g>
<g><path style="opacity:1" fill="#c48f9c" d="M 154.5,25.5 C 158.833,27.5 163.167,29.5 167.5,31.5C 168.492,31.3284 169.158,31.6618 169.5,32.5C 169.833,33.1667 170.167,33.8333 170.5,34.5C 169.799,36.5877 168.799,38.5877 167.5,40.5C 164.669,39.9213 162.336,38.588 160.5,36.5C 158.168,33.7276 155.168,32.0609 151.5,31.5C 152.209,30.596 153.209,30.2627 154.5,30.5C 154.5,28.8333 154.5,27.1667 154.5,25.5 Z"/></g>
<g><path style="opacity:1" fill="#85af7b" d="M 66.5,26.5 C 65.1906,29.4507 62.8573,30.7841 59.5,30.5C 61.3356,28.412 63.6689,27.0787 66.5,26.5 Z"/></g>
<g><path style="opacity:1" fill="#afde9d" d="M 78.5,20.5 C 79.4582,22.3024 80.1249,24.3024 80.5,26.5C 76.8822,28.1373 73.5488,30.1373 70.5,32.5C 66.8333,34.5 63.1667,36.5 59.5,38.5C 59.2231,36.2719 58.2231,34.6053 56.5,33.5C 57.9002,32.8999 58.9002,31.8999 59.5,30.5C 62.8573,30.7841 65.1906,29.4507 66.5,26.5C 68.8477,26.4077 70.5144,25.4077 71.5,23.5C 74.4815,23.8176 76.8148,22.8176 78.5,20.5 Z"/></g>
<g><path style="opacity:1" fill="#926b6a" d="M 151.5,31.5 C 155.168,32.0609 158.168,33.7276 160.5,36.5C 157.008,35.5903 154.008,33.9236 151.5,31.5 Z"/></g>
<g><path style="opacity:1" fill="#72a978" d="M 59.5,30.5 C 58.9002,31.8999 57.9002,32.8999 56.5,33.5C 54.0983,35.8717 51.0983,37.205 47.5,37.5C 50.9758,34.3768 54.9758,32.0435 59.5,30.5 Z"/></g>
<g><path style="opacity:1" fill="#c086a8" d="M 170.5,34.5 C 172.328,35.7945 174.328,36.7945 176.5,37.5C 177.01,40.3878 176.344,42.7211 174.5,44.5C 171.669,43.9213 169.336,42.588 167.5,40.5C 168.799,38.5877 169.799,36.5877 170.5,34.5 Z"/></g>
<g><path style="opacity:1" fill="#b278a6" d="M 176.5,37.5 C 178.795,38.4746 180.795,39.8079 182.5,41.5C 182.338,43.5273 182.505,45.5273 183,47.5C 184.627,48.5323 185.793,49.8656 186.5,51.5C 181.976,49.9565 177.976,47.6232 174.5,44.5C 176.344,42.7211 177.01,40.3878 176.5,37.5 Z"/></g>
<g><path style="opacity:0.592" fill="#764b6f" d="M 169.5,32.5 C 179.668,37.4134 189.334,43.08 198.5,49.5C 197.167,49.1667 195.833,48.8333 194.5,48.5C 190.836,45.6654 186.836,43.332 182.5,41.5C 180.795,39.8079 178.795,38.4746 176.5,37.5C 174.328,36.7945 172.328,35.7945 170.5,34.5C 170.167,33.8333 169.833,33.1667 169.5,32.5 Z"/></g>
<g><path style="opacity:1" fill="#94e4ab" d="M 56.5,33.5 C 58.2231,34.6053 59.2231,36.2719 59.5,38.5C 52.1667,42.8333 44.8333,47.1667 37.5,51.5C 37.5,49.5 37.5,47.5 37.5,45.5C 38.7888,44.3634 39.7888,43.0301 40.5,41.5C 42.3356,39.412 44.6689,38.0787 47.5,37.5C 51.0983,37.205 54.0983,35.8717 56.5,33.5 Z"/></g>
<g><path style="opacity:0.616" fill="#5d9065" d="M 70.5,32.5 C 71.1667,32.5 71.8333,32.5 72.5,32.5C 60.5355,39.485 48.5355,46.485 36.5,53.5C 36.5,53.1667 36.5,52.8333 36.5,52.5C 36.5,51.8333 36.8333,51.5 37.5,51.5C 44.8333,47.1667 52.1667,42.8333 59.5,38.5C 63.1667,36.5 66.8333,34.5 70.5,32.5 Z"/></g>
<g><path style="opacity:1" fill="#60ae84" d="M 40.5,41.5 C 39.7888,43.0301 38.7888,44.3634 37.5,45.5C 34.5738,46.6976 31.5738,47.6976 28.5,48.5C 31.9758,45.3768 35.9758,43.0435 40.5,41.5 Z"/></g>
<g><path style="opacity:1" fill="#bc7abf" d="M 182.5,41.5 C 186.836,43.332 190.836,45.6654 194.5,48.5C 194.5,50.1667 194.5,51.8333 194.5,53.5C 190.333,53.1538 188.5,50.8205 189,46.5C 188.95,48.744 188.117,50.4107 186.5,51.5C 185.793,49.8656 184.627,48.5323 183,47.5C 182.505,45.5273 182.338,43.5273 182.5,41.5 Z"/></g>
<g><path style="opacity:1" fill="#9b5fa7" d="M 194.5,48.5 C 195.833,48.8333 197.167,49.1667 198.5,49.5C 198.5,49.8333 198.5,50.1667 198.5,50.5C 197.351,50.7911 196.684,51.6244 196.5,53C 196.667,53.8333 196.833,54.6667 197,55.5C 199.971,57.9064 202.804,60.2398 205.5,62.5C 198.668,59.5876 192.334,55.9209 186.5,51.5C 188.117,50.4107 188.95,48.744 189,46.5C 188.5,50.8205 190.333,53.1538 194.5,53.5C 194.5,51.8333 194.5,50.1667 194.5,48.5 Z"/></g>
<g><path style="opacity:0.416" fill="#469870" d="M 28.5,48.5 C 26.7396,50.5587 24.4062,51.892 21.5,52.5C 23.3356,50.412 25.6689,49.0787 28.5,48.5 Z"/></g>
<g><path style="opacity:0.573" fill="#683a76" d="M 198.5,50.5 C 198.5,50.1667 198.5,49.8333 198.5,49.5C 201.331,50.0787 203.664,51.412 205.5,53.5C 203.046,52.7729 200.713,51.7729 198.5,50.5 Z"/></g>
<g><path style="opacity:1" fill="#7aedbb" d="M 37.5,45.5 C 37.5,47.5 37.5,49.5 37.5,51.5C 36.8333,51.5 36.5,51.8333 36.5,52.5C 26.3133,57.5114 16.4799,63.1781 7,69.5C 6.33333,110.167 6.33333,150.833 7,191.5C 15.3139,196.4 23.4806,201.4 31.5,206.5C 31.9227,208.781 31.256,210.448 29.5,211.5C 28.1667,211.167 26.8333,210.833 25.5,210.5C 23.847,210.34 22.5137,209.674 21.5,208.5C 20.656,206.241 18.9893,205.241 16.5,205.5C 16.0269,204.094 15.0269,203.427 13.5,203.5C 11.847,203.34 10.5137,202.674 9.5,201.5C 9.02694,200.094 8.02694,199.427 6.5,199.5C 4.84702,199.34 3.51369,198.674 2.5,197.5C 2.21719,196.711 1.71719,196.044 1,195.5C 0.333333,152.167 0.333333,108.833 1,65.5C 1.71719,64.9558 2.21719,64.2891 2.5,63.5C 3.87344,63.6567 5.20677,63.49 6.5,63C 9.77345,61.4407 12.4401,59.274 14.5,56.5C 17.3311,55.9213 19.6644,54.588 21.5,52.5C 24.4062,51.892 26.7396,50.5587 28.5,48.5C 31.5738,47.6976 34.5738,46.6976 37.5,45.5 Z"/></g>
<g><path style="opacity:1" fill="#af69c8" d="M 198.5,50.5 C 200.713,51.7729 203.046,52.7729 205.5,53.5C 207.336,55.588 209.669,56.9213 212.5,57.5C 212.5,57.8333 212.5,58.1667 212.5,58.5C 210.915,59.4737 209.915,60.9737 209.5,63C 211.063,63.7589 212.063,64.9256 212.5,66.5C 210.847,66.3404 209.514,65.6737 208.5,64.5C 208.027,63.0937 207.027,62.427 205.5,62.5C 202.804,60.2398 199.971,57.9064 197,55.5C 196.833,54.6667 196.667,53.8333 196.5,53C 196.684,51.6244 197.351,50.7911 198.5,50.5 Z"/></g>
<g><path style="opacity:0.514" fill="#408e6c" d="M 21.5,52.5 C 19.6644,54.588 17.3311,55.9213 14.5,56.5C 16.3356,54.412 18.6689,53.0787 21.5,52.5 Z"/></g>
<g><path style="opacity:0.557" fill="#613479" d="M 205.5,53.5 C 208.331,54.0787 210.664,55.412 212.5,57.5C 209.669,56.9213 207.336,55.588 205.5,53.5 Z"/></g>
<g><path style="opacity:1" fill="#5bb78e" d="M 14.5,56.5 C 12.4401,59.274 9.77345,61.4407 6.5,63C 5.20677,63.49 3.87344,63.6567 2.5,63.5C 5.97579,60.3768 9.97579,58.0435 14.5,56.5 Z"/></g>
<g><path style="opacity:1" fill="#ab60d5" d="M 212.5,58.5 C 216.15,60.4717 219.816,62.4717 223.5,64.5C 224.667,108.163 224.833,151.83 224,195.5C 220.506,198.163 216.673,200.163 212.5,201.5C 211.258,199.611 211.258,197.611 212.5,195.5C 213.338,195.158 213.672,194.492 213.5,193.5C 215.17,193.249 216.67,192.582 218,191.5C 218.5,150.501 218.667,109.501 218.5,68.5C 217.5,68.5 216.5,68.5 215.5,68.5C 215.027,67.0937 214.027,66.427 212.5,66.5C 212.063,64.9256 211.063,63.7589 209.5,63C 209.915,60.9737 210.915,59.4737 212.5,58.5 Z"/></g>
<g><path style="opacity:0.369" fill="#562e78" d="M 205.5,62.5 C 207.027,62.427 208.027,63.0937 208.5,64.5C 206.973,64.573 205.973,63.9063 205.5,62.5 Z"/></g>
<g><path style="opacity:0.451" fill="#552b75" d="M 212.5,66.5 C 214.027,66.427 215.027,67.0937 215.5,68.5C 213.973,68.573 212.973,67.9063 212.5,66.5 Z"/></g>
<g><path style="opacity:1" fill="#ac60d7" d="M 209.5,182.5 C 209.068,183.71 208.401,184.71 207.5,185.5C 207.44,184.957 207.107,184.624 206.5,184.5C 185.831,197.504 164.831,210.004 143.5,222C 141.937,222.759 140.937,223.926 140.5,225.5C 140.158,226.338 139.492,226.672 138.5,226.5C 132.832,228.66 127.498,231.493 122.5,235C 121.207,235.49 119.873,235.657 118.5,235.5C 118.832,200.663 118.498,165.996 117.5,131.5C 117.414,130.504 117.748,129.671 118.5,129C 141.059,115.89 163.726,103.056 186.5,90.5C 189.146,89.5134 191.812,88.5134 194.5,87.5C 198.675,84.5788 203.009,81.9122 207.5,79.5C 208.595,106.663 208.595,133.83 207.5,161C 207.503,168.533 208.169,175.699 209.5,182.5 Z"/></g>
<g><path style="opacity:0.682" fill="#20cb81" d="M 98.5,116.5 C 101.804,117.328 104.804,118.828 107.5,121C 109.833,121.667 112.167,121.667 114.5,121C 143.868,103.988 172.868,86.4883 201.5,68.5C 172.886,51.8546 143.886,35.688 114.5,20C 112.833,19.3333 111.167,19.3333 109.5,20C 101.869,23.8159 94.5361,28.1492 87.5,33C 82.0046,35.9943 76.3379,38.4943 70.5,40.5C 83.9225,32.2796 97.7558,24.613 112,17.5C 142.231,33.6989 172.397,50.0323 202.5,66.5C 203.747,68.0064 203.747,69.5064 202.5,71C 173.167,88.3333 143.833,105.667 114.5,123C 108.324,123.01 102.991,120.844 98.5,116.5 Z"/></g>
<g><path style="opacity:1" fill="#ecb12b" d="M 106.5,133.5 C 77.7563,116.955 49.0897,100.122 20.5,83C 19.2068,82.51 17.8734,82.3433 16.5,82.5C 16.3333,116.835 16.5,151.168 17,185.5C 18.7707,187.291 20.604,188.957 22.5,190.5C 19.2077,189.943 16.7077,188.276 15,185.5C 14.1708,150.262 14.3375,115.095 15.5,80C 18.9172,80.6937 22.2506,82.027 25.5,84C 51.5,99.3333 77.5,114.667 103.5,130C 105.063,130.759 106.063,131.926 106.5,133.5 Z"/></g>
<g><path style="opacity:1" fill="#febd2d" d="M 106.5,133.5 C 107.167,133.5 107.5,133.833 107.5,134.5C 107.353,168.324 107.353,202.324 107.5,236.5C 104.406,235.787 101.406,234.787 98.5,233.5C 72.6487,219.959 47.3154,205.626 22.5,190.5C 20.604,188.957 18.7707,187.291 17,185.5C 16.5,151.168 16.3333,116.835 16.5,82.5C 17.8734,82.3433 19.2068,82.51 20.5,83C 49.0897,100.122 77.7563,116.955 106.5,133.5 Z"/></g>
<g><path style="opacity:0.176" fill="#4d9a76" d="M 36.5,52.5 C 36.5,52.8333 36.5,53.1667 36.5,53.5C 27.2789,58.6955 18.1122,64.0288 9,69.5C 8.16673,110.171 8.3334,150.837 9.5,191.5C 23.8938,199.356 37.8938,207.689 51.5,216.5C 51.1667,216.5 50.8333,216.5 50.5,216.5C 44.2978,212.899 37.9644,209.566 31.5,206.5C 23.4806,201.4 15.3139,196.4 7,191.5C 6.33333,150.833 6.33333,110.167 7,69.5C 16.4799,63.1781 26.3133,57.5114 36.5,52.5 Z"/></g>
<g><path style="opacity:0.677" fill="#6e3d8c" d="M 215.5,68.5 C 216.5,68.5 217.5,68.5 218.5,68.5C 218.667,109.501 218.5,150.501 218,191.5C 216.67,192.582 215.17,193.249 213.5,193.5C 214.315,192.163 215.482,191.163 217,190.5C 217.167,170.333 217.333,150.167 217.5,130C 217.489,109.283 216.822,88.7833 215.5,68.5 Z"/></g>
<g><path style="opacity:0.631" fill="#4d987b" d="M 2.5,63.5 C 2.21719,64.2891 1.71719,64.9558 1,65.5C 0.333333,108.833 0.333333,152.167 1,195.5C 1.71719,196.044 2.21719,196.711 2.5,197.5C 1.39105,197.443 0.391047,197.11 -0.5,196.5C -0.5,152.5 -0.5,108.5 -0.5,64.5C 0.391047,63.8902 1.39105,63.5569 2.5,63.5 Z"/></g>
<g><path style="opacity:0.517" fill="#20cc82" d="M 52.5,89.5 C 56.8006,91.3143 61.1339,93.1476 65.5,95C 76.7466,101.899 87.7466,109.066 98.5,116.5C 82.8299,108.001 67.4965,99.001 52.5,89.5 Z"/></g>
<g><path style="opacity:0.888" fill="#a05ac7" d="M 209.5,182.5 C 208.169,175.699 207.503,168.533 207.5,161C 208.595,133.83 208.595,106.663 207.5,79.5C 203.009,81.9122 198.675,84.5788 194.5,87.5C 191.812,88.5134 189.146,89.5134 186.5,90.5C 192.934,86.108 199.601,81.9413 206.5,78C 207.784,77.3162 208.951,77.4829 210,78.5C 210.417,113.169 210.25,147.835 209.5,182.5 Z"/></g>
<g><path style="opacity:0.839" fill="#774295" d="M 212.5,58.5 C 212.5,58.1667 212.5,57.8333 212.5,57.5C 216.833,59.5 221.167,61.5 225.5,63.5C 225.5,107.833 225.5,152.167 225.5,196.5C 216.833,201.5 208.167,206.5 199.5,211.5C 199.5,211.167 199.5,210.833 199.5,210.5C 200.306,209.272 201.306,208.272 202.5,207.5C 206.173,206 209.506,204 212.5,201.5C 216.673,200.163 220.506,198.163 224,195.5C 224.833,151.83 224.667,108.163 223.5,64.5C 219.816,62.4717 216.15,60.4717 212.5,58.5 Z"/></g>
<g><path style="opacity:0.58" fill="#e7ab28" d="M 107.5,134.5 C 108.692,169.092 109.358,203.759 109.5,238.5C 105.164,238.163 101.497,236.496 98.5,233.5C 101.406,234.787 104.406,235.787 107.5,236.5C 107.353,202.324 107.353,168.324 107.5,134.5 Z"/></g>
<g><path style="opacity:0.831" fill="#703d8a" d="M 213.5,193.5 C 213.672,194.492 213.338,195.158 212.5,195.5C 211.167,195.833 209.833,196.167 208.5,196.5C 209.659,194.75 211.326,193.75 213.5,193.5 Z"/></g>
<g><path style="opacity:1" fill="#af66cf" d="M 212.5,195.5 C 211.258,197.611 211.258,199.611 212.5,201.5C 209.506,204 206.173,206 202.5,207.5C 201.222,205.456 201.388,203.456 203,201.5C 205.375,200.285 207.209,198.619 208.5,196.5C 209.833,196.167 211.167,195.833 212.5,195.5 Z"/></g>
<g><path style="opacity:0.4" fill="#9f5ac5" d="M 207.5,185.5 C 185.34,199.082 163.007,212.415 140.5,225.5C 140.937,223.926 141.937,222.759 143.5,222C 164.831,210.004 185.831,197.504 206.5,184.5C 207.107,184.624 207.44,184.957 207.5,185.5 Z"/></g>
<g><path style="opacity:0.388" fill="#38805f" d="M 6.5,199.5 C 8.02694,199.427 9.02694,200.094 9.5,201.5C 7.97306,201.573 6.97306,200.906 6.5,199.5 Z"/></g>
<g><path style="opacity:0.424" fill="#3a8a66" d="M 13.5,203.5 C 15.0269,203.427 16.0269,204.094 16.5,205.5C 14.9731,205.573 13.9731,204.906 13.5,203.5 Z"/></g>
<g><path style="opacity:0.863" fill="#a15dc8" d="M 117.5,131.5 C 118.498,165.996 118.832,200.663 118.5,235.5C 119.873,235.657 121.207,235.49 122.5,235C 127.498,231.493 132.832,228.66 138.5,226.5C 132.734,230.559 126.734,234.392 120.5,238C 119.551,238.617 118.718,238.451 118,237.5C 116.348,202.01 116.182,166.677 117.5,131.5 Z"/></g>
<g><path style="opacity:1" fill="#ae6bbd" d="M 208.5,196.5 C 207.209,198.619 205.375,200.285 203,201.5C 201.388,203.456 201.222,205.456 202.5,207.5C 201.306,208.272 200.306,209.272 199.5,210.5C 197.716,210.893 196.05,211.559 194.5,212.5C 193.85,210.565 193.517,208.565 193.5,206.5C 194.338,206.158 194.672,205.492 194.5,204.5C 198.833,201.331 203.5,198.664 208.5,196.5 Z"/></g>
<g><path style="opacity:0.329" fill="#439c6d" d="M 16.5,205.5 C 18.9893,205.241 20.656,206.241 21.5,208.5C 19.5659,207.89 17.8993,206.89 16.5,205.5 Z"/></g>
<g><path style="opacity:1" fill="#8e5a93" d="M 194.5,204.5 C 194.672,205.492 194.338,206.158 193.5,206.5C 191.858,208.081 189.858,208.747 187.5,208.5C 189.336,206.412 191.669,205.079 194.5,204.5 Z"/></g>
<g><path style="opacity:0.725" fill="#43926e" d="M 25.5,210.5 C 26.8333,210.833 28.1667,211.167 29.5,211.5C 29.8333,212.167 30.1667,212.833 30.5,213.5C 28.326,213.25 26.6594,212.25 25.5,210.5 Z"/></g>
<g><path style="opacity:1" fill="#bd7cbd" d="M 193.5,206.5 C 193.517,208.565 193.85,210.565 194.5,212.5C 190.5,214.833 186.5,217.167 182.5,219.5C 182.5,217.167 182.5,214.833 182.5,212.5C 184.795,211.864 186.461,210.531 187.5,208.5C 189.858,208.747 191.858,208.081 193.5,206.5 Z"/></g>
<g><path style="opacity:1" fill="#8ae1ab" d="M 31.5,206.5 C 37.9644,209.566 44.2978,212.899 50.5,216.5C 51.8333,217.5 53.1667,218.5 54.5,219.5C 54.5,221.5 54.5,223.5 54.5,225.5C 53.5,225.5 52.5,225.5 51.5,225.5C 49.847,225.34 48.5137,224.674 47.5,223.5C 47.0269,222.094 46.0269,221.427 44.5,221.5C 41.2402,220.226 38.2402,218.56 35.5,216.5C 35.0269,215.094 34.0269,214.427 32.5,214.5C 31.5084,214.672 30.8417,214.338 30.5,213.5C 30.1667,212.833 29.8333,212.167 29.5,211.5C 31.256,210.448 31.9227,208.781 31.5,206.5 Z"/></g>
<g><path style="opacity:1" fill="#905f8b" d="M 187.5,208.5 C 186.461,210.531 184.795,211.864 182.5,212.5C 181.833,212.5 181.167,212.5 180.5,212.5C 182.336,210.412 184.669,209.079 187.5,208.5 Z"/></g>
<g><path style="opacity:0.745" fill="#7a506d" d="M 180.5,212.5 C 179.514,214.408 177.848,215.408 175.5,215.5C 176.659,213.75 178.326,212.75 180.5,212.5 Z"/></g>
<g><path style="opacity:0.412" fill="#44825e" d="M 32.5,214.5 C 34.0269,214.427 35.0269,215.094 35.5,216.5C 33.9731,216.573 32.9731,215.906 32.5,214.5 Z"/></g>
<g><path style="opacity:1" fill="#c487b2" d="M 180.5,212.5 C 181.167,212.5 181.833,212.5 182.5,212.5C 182.5,214.833 182.5,217.167 182.5,219.5C 179.167,221.5 175.833,223.5 172.5,225.5C 171.359,223.451 171.359,221.451 172.5,219.5C 173.789,218.363 174.789,217.03 175.5,215.5C 177.848,215.408 179.514,214.408 180.5,212.5 Z"/></g>
<g><path style="opacity:1" fill="#996983" d="M 175.5,215.5 C 174.789,217.03 173.789,218.363 172.5,219.5C 171.167,219.5 169.833,219.5 168.5,219.5C 170.336,217.412 172.669,216.079 175.5,215.5 Z"/></g>
<g><path style="opacity:1" fill="#80b883" d="M 54.5,219.5 C 55.4916,219.328 56.1583,219.662 56.5,220.5C 55.3775,222.288 55.2109,224.288 56,226.5C 58.1824,227.936 60.0158,229.603 61.5,231.5C 57.827,230 54.4937,228 51.5,225.5C 52.5,225.5 53.5,225.5 54.5,225.5C 54.5,223.5 54.5,221.5 54.5,219.5 Z"/></g>
<g><path style="opacity:0.404" fill="#794b6f" d="M 199.5,210.5 C 199.5,210.833 199.5,211.167 199.5,211.5C 188.806,217.512 178.139,223.512 167.5,229.5C 167.167,229.5 166.833,229.5 166.5,229.5C 168.118,227.684 170.118,226.351 172.5,225.5C 175.833,223.5 179.167,221.5 182.5,219.5C 186.5,217.167 190.5,214.833 194.5,212.5C 196.05,211.559 197.716,210.893 199.5,210.5 Z"/></g>
<g><path style="opacity:0.357" fill="#4a7a56" d="M 44.5,221.5 C 46.0269,221.427 47.0269,222.094 47.5,223.5C 45.9731,223.573 44.9731,222.906 44.5,221.5 Z"/></g>
<g><path style="opacity:1" fill="#a6db9d" d="M 56.5,220.5 C 61.3715,222.429 65.7049,225.095 69.5,228.5C 68.8529,229.274 68.5195,230.274 68.5,231.5C 68.9865,233.304 69.6532,234.971 70.5,236.5C 68.847,236.34 67.5137,235.674 66.5,234.5C 66.0269,233.094 65.0269,232.427 63.5,232.5C 62.5084,232.672 61.8417,232.338 61.5,231.5C 60.0158,229.603 58.1824,227.936 56,226.5C 55.2109,224.288 55.3775,222.288 56.5,220.5 Z"/></g>
<g><path style="opacity:1" fill="#9a6e7d" d="M 168.5,219.5 C 167.191,222.451 164.857,223.784 161.5,223.5C 163.336,221.412 165.669,220.079 168.5,219.5 Z"/></g>
<g><path style="opacity:1" fill="#cd95a6" d="M 168.5,219.5 C 169.833,219.5 171.167,219.5 172.5,219.5C 171.359,221.451 171.359,223.451 172.5,225.5C 170.118,226.351 168.118,227.684 166.5,229.5C 164.02,230.242 161.687,231.242 159.5,232.5C 158.631,230.283 158.298,227.95 158.5,225.5C 160.179,225.715 161.179,225.048 161.5,223.5C 164.857,223.784 167.191,222.451 168.5,219.5 Z"/></g>
<g><path style="opacity:0.714" fill="#6e8658" d="M 50.5,216.5 C 50.8333,216.5 51.1667,216.5 51.5,216.5C 64.9941,223.077 77.9941,230.41 90.5,238.5C 89.8333,238.5 89.1667,238.5 88.5,238.5C 86.5,237.5 84.5,236.5 82.5,235.5C 78.4235,232.773 74.0902,230.439 69.5,228.5C 65.7049,225.095 61.3715,222.429 56.5,220.5C 56.1583,219.662 55.4916,219.328 54.5,219.5C 53.1667,218.5 51.8333,217.5 50.5,216.5 Z"/></g>
<g><path style="opacity:1" fill="#a97c7f" d="M 161.5,223.5 C 161.179,225.048 160.179,225.715 158.5,225.5C 158.298,227.95 158.631,230.283 159.5,232.5C 159.158,233.338 158.492,233.672 157.5,233.5C 157.5,231.833 157.5,230.167 157.5,228.5C 154.673,228.584 152.006,229.25 149.5,230.5C 153.164,227.665 157.164,225.332 161.5,223.5 Z"/></g>
<g><path style="opacity:1" fill="#b7d592" d="M 69.5,228.5 C 74.0902,230.439 78.4235,232.773 82.5,235.5C 81.7611,235.369 81.0944,235.536 80.5,236C 81.8333,237.333 81.8333,238.667 80.5,240C 81.7305,241.405 83.0639,242.571 84.5,243.5C 83.8333,243.5 83.1667,243.5 82.5,243.5C 81.5084,243.672 80.8417,243.338 80.5,242.5C 80.0269,241.094 79.0269,240.427 77.5,240.5C 75.847,240.34 74.5137,239.674 73.5,238.5C 73.0269,237.094 72.0269,236.427 70.5,236.5C 69.6532,234.971 68.9865,233.304 68.5,231.5C 68.5195,230.274 68.8529,229.274 69.5,228.5 Z"/></g>
<g><path style="opacity:0.812" fill="#8f6b60" d="M 149.5,230.5 C 148.514,232.408 146.848,233.408 144.5,233.5C 145.659,231.75 147.326,230.75 149.5,230.5 Z"/></g>
<g><path style="opacity:0.388" fill="#7b5656" d="M 166.5,229.5 C 166.833,229.5 167.167,229.5 167.5,229.5C 160.095,234.226 152.428,238.559 144.5,242.5C 148.659,239.253 152.992,236.253 157.5,233.5C 158.492,233.672 159.158,233.338 159.5,232.5C 161.687,231.242 164.02,230.242 166.5,229.5 Z"/></g>
<g><path style="opacity:0.38" fill="#577b4e" d="M 63.5,232.5 C 65.0269,232.427 66.0269,233.094 66.5,234.5C 64.9731,234.573 63.9731,233.906 63.5,232.5 Z"/></g>
<g><path style="opacity:1" fill="#d6a497" d="M 157.5,233.5 C 152.992,236.253 148.659,239.253 144.5,242.5C 144.167,242.5 143.833,242.5 143.5,242.5C 143.5,240.167 143.5,237.833 143.5,235.5C 144.338,235.158 144.672,234.492 144.5,233.5C 146.848,233.408 148.514,232.408 149.5,230.5C 152.006,229.25 154.673,228.584 157.5,228.5C 157.5,230.167 157.5,231.833 157.5,233.5 Z"/></g>
<g><path style="opacity:0.773" fill="#92715d" d="M 144.5,233.5 C 144.672,234.492 144.338,235.158 143.5,235.5C 141.5,236.167 139.5,236.833 137.5,237.5C 139.336,235.412 141.669,234.079 144.5,233.5 Z"/></g>
<g><path style="opacity:0.384" fill="#577048" d="M 70.5,236.5 C 72.0269,236.427 73.0269,237.094 73.5,238.5C 71.9731,238.573 70.9731,237.906 70.5,236.5 Z"/></g>
<g><path style="opacity:1" fill="#ccd289" d="M 82.5,235.5 C 84.5,236.5 86.5,237.5 88.5,238.5C 91.7976,240.485 95.1309,242.485 98.5,244.5C 98.7989,246.604 98.4656,248.604 97.5,250.5C 95.9291,249.691 94.2624,249.357 92.5,249.5C 92.0269,248.094 91.0269,247.427 89.5,247.5C 87.847,247.34 86.5137,246.674 85.5,245.5C 85.1667,244.833 84.8333,244.167 84.5,243.5C 83.0639,242.571 81.7305,241.405 80.5,240C 81.8333,238.667 81.8333,237.333 80.5,236C 81.0944,235.536 81.7611,235.369 82.5,235.5 Z"/></g>
<g><path style="opacity:0.408" fill="#8e7255" d="M 137.5,237.5 C 135.74,239.559 133.406,240.892 130.5,241.5C 132.336,239.412 134.669,238.079 137.5,237.5 Z"/></g>
<g><path style="opacity:1" fill="#dfb28b" d="M 143.5,235.5 C 143.5,237.833 143.5,240.167 143.5,242.5C 141.77,243.026 140.436,244.026 139.5,245.5C 136.978,246.011 134.645,247.011 132.5,248.5C 131.464,246.609 131.464,244.776 132.5,243C 131.906,242.536 131.239,242.369 130.5,242.5C 130.5,242.167 130.5,241.833 130.5,241.5C 133.406,240.892 135.74,239.559 137.5,237.5C 139.5,236.833 141.5,236.167 143.5,235.5 Z"/></g>
<g><path style="opacity:0.424" fill="#687547" d="M 77.5,240.5 C 79.0269,240.427 80.0269,241.094 80.5,242.5C 78.9731,242.573 77.9731,241.906 77.5,240.5 Z"/></g>
<g><path style="opacity:0.361" fill="#7d5947" d="M 143.5,242.5 C 143.833,242.5 144.167,242.5 144.5,242.5C 143.341,244.25 141.674,245.25 139.5,245.5C 140.436,244.026 141.77,243.026 143.5,242.5 Z"/></g>
<g><path style="opacity:0.365" fill="#616d42" d="M 82.5,243.5 C 83.1667,243.5 83.8333,243.5 84.5,243.5C 84.8333,244.167 85.1667,244.833 85.5,245.5C 83.9731,245.573 82.9731,244.906 82.5,243.5 Z"/></g>
<g><path style="opacity:1" fill="#b09060" d="M 130.5,241.5 C 130.5,241.833 130.5,242.167 130.5,242.5C 128.03,243.249 126.03,244.749 124.5,247C 122.482,247.505 120.482,248.005 118.5,248.5C 121.976,245.377 125.976,243.043 130.5,241.5 Z"/></g>
<g><path style="opacity:1" fill="#d7c77c" d="M 98.5,244.5 C 101.203,246.181 103.869,247.847 106.5,249.5C 105.761,249.369 105.094,249.536 104.5,250C 105.074,251.919 105.407,253.753 105.5,255.5C 104.833,255.5 104.167,255.5 103.5,255.5C 101.847,255.34 100.514,254.674 99.5,253.5C 99.0269,252.094 98.0269,251.427 96.5,251.5C 94.847,251.34 93.5137,250.674 92.5,249.5C 94.2624,249.357 95.9291,249.691 97.5,250.5C 98.4656,248.604 98.7989,246.604 98.5,244.5 Z"/></g>
<g><path style="opacity:1" fill="#e8bf82" d="M 130.5,242.5 C 131.239,242.369 131.906,242.536 132.5,243C 131.464,244.776 131.464,246.609 132.5,248.5C 128.5,250.833 124.5,253.167 120.5,255.5C 120.975,252.918 120.308,250.918 118.5,249.5C 118.5,249.167 118.5,248.833 118.5,248.5C 120.482,248.005 122.482,247.505 124.5,247C 126.03,244.749 128.03,243.249 130.5,242.5 Z"/></g>
<g><path style="opacity:0.4" fill="#696b42" d="M 89.5,247.5 C 91.0269,247.427 92.0269,248.094 92.5,249.5C 90.9731,249.573 89.9731,248.906 89.5,247.5 Z"/></g>
<g><path style="opacity:0.341" fill="#94844b" d="M 88.5,238.5 C 89.1667,238.5 89.8333,238.5 90.5,238.5C 97.3024,242.069 103.969,245.902 110.5,250C 113.322,250.428 115.988,249.928 118.5,248.5C 118.5,248.833 118.5,249.167 118.5,249.5C 116.598,250.368 114.765,251.368 113,252.5C 110.747,251.623 108.581,250.623 106.5,249.5C 103.869,247.847 101.203,246.181 98.5,244.5C 95.1309,242.485 91.7976,240.485 88.5,238.5 Z"/></g>
<g><path style="opacity:0.467" fill="#91744a" d="M 139.5,245.5 C 130.833,250.833 122.167,256.167 113.5,261.5C 112.833,261.5 112.167,261.5 111.5,261.5C 109.833,260.167 108.167,258.833 106.5,257.5C 108.666,257.579 110.666,258.246 112.5,259.5C 115.157,258.172 117.824,256.838 120.5,255.5C 124.5,253.167 128.5,250.833 132.5,248.5C 134.645,247.011 136.978,246.011 139.5,245.5 Z"/></g>
<g><path style="opacity:0.447" fill="#797442" d="M 96.5,251.5 C 98.0269,251.427 99.0269,252.094 99.5,253.5C 97.9731,253.573 96.9731,252.906 96.5,251.5 Z"/></g>
<g><path style="opacity:1" fill="#edcc7b" d="M 106.5,249.5 C 108.581,250.623 110.747,251.623 113,252.5C 114.765,251.368 116.598,250.368 118.5,249.5C 120.308,250.918 120.975,252.918 120.5,255.5C 117.824,256.838 115.157,258.172 112.5,259.5C 110.666,258.246 108.666,257.579 106.5,257.5C 106.167,256.833 105.833,256.167 105.5,255.5C 105.407,253.753 105.074,251.919 104.5,250C 105.094,249.536 105.761,249.369 106.5,249.5 Z"/></g>
<g><path style="opacity:0.459" fill="#856f3f" d="M 103.5,255.5 C 104.167,255.5 104.833,255.5 105.5,255.5C 105.833,256.167 106.167,256.833 106.5,257.5C 104.973,257.573 103.973,256.906 103.5,255.5 Z"/></g>
</svg>
