<svg width="179" height="179" viewBox="0 0 179 179" fill="none" xmlns="http://www.w3.org/2000/svg">
<circle cx="89.5" cy="89.5" r="89.5" fill="url(#paint0_linear)"/>
<path fill-rule="evenodd" clip-rule="evenodd" d="M89.5 172C135.063 172 172 134.84 172 89C172 43.1604 135.063 6 89.5 6C43.9365 6 7 43.1604 7 89C7 134.84 43.9365 172 89.5 172ZM89.5 165C131.198 165 165 130.974 165 89C165 47.0264 131.198 13 89.5 13C47.8025 13 14 47.0264 14 89C14 130.974 47.8025 165 89.5 165Z" fill="white"/>
<path d="M81.8666 70.6667V70.7333L75.6 37.6667L70.4 36L67.1333 40.4L81.8666 70.6667Z" fill="white"/>
<path d="M85.2666 56.8667L87.9333 69.6667L90.7999 56.6667L87.9999 54.8L85.2666 56.8667Z" fill="white"/>
<path d="M105.067 59.1333L101.667 59.4667L97.6665 72.1333L106.467 62.2L105.067 59.1333Z" fill="white"/>
<path d="M134.133 61.8V56.4L128.866 54.7333L104.2 77.8667L134.133 61.8Z" fill="white"/>
<path d="M73.8665 75.4667L66.5332 64.4667L66.6665 64.7333L66.5332 64.4667L63.1998 65L62.6665 68.3333L73.8665 75.4667Z" fill="white"/>
<path d="M121.066 86.6667L107.933 89.2667L121.066 92.1333L123.066 89.4L121.066 86.6667Z" fill="white"/>
<path d="M68 89.3333L34.2667 85.0667L31 89.4667L34.2667 93.8667L68 89.3333Z" fill="white"/>
<path d="M55.5332 96.6667L54.5332 99.8L57.2665 101.8L68.9332 95.2667L55.5332 96.6667Z" fill="white"/>
<path d="M59.3999 105.933L59.2666 109.267L62.4666 110.4L71.7999 100.6L59.3999 105.933Z" fill="white"/>
<path d="M76.1999 105.133L66.2666 113.867L67.1333 117.067L70.5333 117.2L76.1999 105.133Z" fill="white"/>
<path d="M88.0002 109L85.3335 121.933L88.0668 123.867L90.8002 121.867L88.0002 109Z" fill="white"/>
<path d="M134.2 116.867L104.2 100.933L129 123.933L134.2 122.267V116.867Z" fill="white"/>
<path d="M101.133 119.333L94.3999 108.067L95.9332 121L99.1332 122L101.133 119.333Z" fill="white"/>
<path d="M81.9335 108.067L67.3335 138.4L70.6002 142.8L75.8002 141.133L81.9335 108.067Z" fill="white"/>
<defs>
<linearGradient id="paint0_linear" x1="47" y1="168" x2="115.5" y2="-6.54113e-06" gradientUnits="userSpaceOnUse">
<stop stop-color="#3FAD6C"/>
<stop offset="1" stop-color="#6EC2B7"/>
</linearGradient>
</defs>
</svg>
