<?xml version="1.0" standalone="no"?>
<!DOCTYPE svg PUBLIC "-//W3C//DTD SVG 20010904//EN"
 "http://www.w3.org/TR/2001/REC-SVG-20010904/DTD/svg10.dtd">
<svg version="1.0" xmlns="http://www.w3.org/2000/svg"
 width="512.000000pt" height="512.000000pt" viewBox="0 0 512.000000 512.000000"
 preserveAspectRatio="xMidYMid meet">

<g transform="translate(0.000000,512.000000) scale(0.100000,-0.100000)"
fill="#000000" stroke="none">
<path d="M807 5109 c-168 -40 -296 -209 -356 -473 -38 -162 -46 -263 -45 -551
0 -343 32 -687 99 -1064 l15 -85 -29 -90 c-16 -50 -40 -141 -54 -202 -37 -167
-48 -182 -167 -237 -41 -18 -90 -47 -109 -63 -50 -42 -108 -138 -134 -219 -31
-99 -30 -285 1 -402 27 -101 27 -124 0 -220 -18 -62 -22 -104 -22 -203 0 -150
15 -215 82 -350 39 -81 60 -109 142 -190 67 -67 126 -114 199 -158 1024 -627
2273 -772 3413 -396 142 47 176 86 127 148 -28 36 -62 34 -190 -10 -57 -19
-174 -53 -259 -74 -908 -228 -1864 -126 -2695 287 -373 185 -524 301 -604 463
-103 210 -92 395 36 635 62 117 163 222 255 265 134 63 246 71 395 30 111 -30
192 -42 293 -42 212 1 313 47 660 303 122 90 289 172 403 199 175 42 419 42
594 0 115 -27 281 -109 403 -199 371 -273 450 -307 695 -299 96 4 156 12 230
31 141 36 182 40 266 28 174 -26 314 -135 415 -321 125 -230 135 -422 33 -630
-81 -163 -233 -280 -611 -468 -180 -89 -204 -116 -157 -176 36 -45 71 -37 273
67 277 143 376 207 486 317 82 81 103 109 142 190 67 135 82 200 82 350 0 99
-4 141 -22 203 -27 96 -27 119 0 220 31 117 32 303 1 402 -26 81 -84 177 -134
219 -19 16 -68 45 -109 63 -119 54 -129 70 -166 232 -13 58 -37 149 -54 202
l-30 96 15 84 c26 145 63 427 82 609 24 247 24 700 0 863 -47 312 -151 509
-311 587 -278 137 -675 -89 -1190 -679 -93 -106 -101 -113 -130 -108 -17 3
-85 15 -151 27 -236 42 -514 37 -774 -11 l-115 -22 -30 35 c-210 235 -290 319
-311 324 -57 14 -115 -39 -99 -90 4 -11 39 -55 78 -96 39 -42 100 -108 134
-148 55 -62 61 -73 45 -79 -94 -33 -188 -75 -291 -128 l-124 -64 -16 31 c-93
169 -271 421 -326 462 -71 53 -155 60 -234 20 -60 -30 -98 -74 -117 -137 -33
-108 -28 -526 9 -883 l14 -129 -48 -80 c-26 -44 -54 -93 -62 -109 -15 -29 -15
-29 -27 50 -47 325 -77 754 -66 959 18 353 73 560 179 669 123 126 323 83 601
-128 80 -61 102 -70 137 -57 31 12 51 62 38 95 -16 44 -190 171 -329 240 -129
65 -270 90 -374 65z m3533 -177 c88 -53 156 -191 194 -389 50 -265 41 -731
-24 -1198 -11 -77 -20 -144 -20 -150 0 -5 -16 19 -36 55 -20 36 -49 84 -65
107 l-29 42 15 133 c35 324 42 721 14 865 -14 70 -55 124 -120 157 -71 35
-129 34 -200 -1 -45 -24 -67 -46 -137 -138 -71 -94 -222 -331 -234 -367 -2 -6
-43 10 -101 41 -53 29 -149 74 -214 101 -65 27 -117 52 -116 55 1 4 37 48 81
98 114 132 352 361 457 440 100 75 266 163 335 177 71 14 149 3 200 -28z
m-3324 -546 c47 -49 192 -264 250 -370 32 -58 35 -70 22 -77 -46 -26 -197
-156 -290 -251 l-106 -109 -9 98 c-4 54 -8 235 -8 401 l0 304 28 24 c40 34 64
30 113 -20z m3201 20 l28 -24 0 -304 c0 -166 -4 -347 -8 -401 l-9 -98 -111
114 c-62 62 -154 146 -205 186 l-92 74 36 66 c54 100 204 320 250 368 46 49
71 53 111 19z m-1361 -231 c223 -34 410 -93 609 -192 552 -276 947 -787 1075
-1393 13 -58 32 -124 42 -147 31 -66 94 -122 183 -164 90 -42 134 -82 165
-151 28 -64 44 -189 34 -262 l-9 -58 -47 60 c-131 169 -360 274 -568 259 -41
-3 -120 -17 -175 -32 -132 -35 -285 -44 -374 -21 -97 25 -178 68 -308 163
-193 142 -272 193 -380 245 -315 151 -763 154 -1076 5 -114 -54 -176 -93 -338
-213 -149 -109 -211 -148 -299 -182 -58 -23 -80 -26 -195 -26 -113 -1 -144 3
-235 28 -203 55 -349 44 -515 -38 -99 -49 -183 -118 -242 -198 l-38 -53 -8 65
c-10 79 4 188 33 256 29 67 83 120 148 144 123 46 199 132 228 255 76 330 138
491 272 710 284 468 774 810 1315 920 68 14 168 29 223 34 124 12 350 5 480
-14z"/>
<path d="M1603 2750 c-34 -14 -43 -42 -43 -133 0 -104 16 -131 75 -131 60 0
75 27 75 134 0 69 -4 92 -17 108 -21 25 -60 35 -90 22z"/>
<path d="M3453 2750 c-34 -14 -43 -42 -43 -132 0 -92 12 -121 55 -132 29 -7
79 15 89 39 3 9 6 54 6 100 0 64 -4 87 -17 103 -21 25 -60 35 -90 22z"/>
<path d="M2431 2189 c-187 -17 -342 -75 -405 -153 -29 -35 -31 -43 -31 -119 0
-112 31 -174 139 -282 89 -87 182 -144 281 -170 32 -8 59 -16 61 -18 10 -9
-59 -127 -92 -159 -122 -116 -314 -119 -441 -7 -45 39 -96 38 -126 -3 -25 -34
-17 -70 26 -110 145 -134 384 -158 558 -56 48 29 102 77 137 122 l22 29 22
-29 c60 -77 138 -133 235 -165 54 -18 82 -21 167 -17 95 3 109 6 177 40 132
66 182 132 142 186 -30 41 -81 42 -126 3 -127 -112 -319 -109 -441 7 -33 32
-102 150 -92 159 2 2 29 10 61 18 146 38 328 182 389 307 116 237 -31 383
-421 417 -65 6 -125 10 -133 10 -8 -1 -57 -6 -109 -10z"/>
</g>
</svg>
