<svg width="1000" height="1000" viewBox="0 0 1000 1000" fill="none" xmlns="http://www.w3.org/2000/svg">
<path d="M853.568 146.5C759.083 52 633.57 0 500.05 0C224.302 0 0 224.3 0 500C0 775.7 224.302 1000 500.05 1000C633.57 1000 759.183 948 853.568 853.5C948.053 759 1000 633.5 1000 500C1000 366.5 948.053 240.9 853.568 146.5ZM500.05 965.4C243.419 965.4 34.6312 756.6 34.6312 500C34.6312 243.4 243.419 34.6 500.05 34.6C756.681 34.6 965.469 243.4 965.469 500C965.469 756.6 756.681 965.4 500.05 965.4Z" fill="#151A20"/>
<path d="M500.05 965.4C243.419 965.4 34.6312 756.6 34.6312 500C34.6312 243.4 243.419 34.6 500.05 34.6C756.681 34.6 965.469 243.4 965.469 500C965.469 756.6 756.681 965.4 500.05 965.4Z" fill="#151A20"/>
<path d="M853.568 146.5C759.083 52 633.57 0 500.05 0C224.302 0 0 224.3 0 500C0 775.7 224.302 1000 500.05 1000C633.57 1000 759.183 948 853.568 853.5C948.053 759 1000 633.5 1000 500C1000 366.5 948.053 240.9 853.568 146.5ZM500.05 965.4C243.419 965.4 34.6312 756.6 34.6312 500C34.6312 243.4 243.419 34.6 500.05 34.6C756.681 34.6 965.469 243.4 965.469 500C965.469 756.6 756.681 965.4 500.05 965.4Z" fill="white"/>
<path d="M663.879 511.702C631.888 483.111 590.001 464.016 549.412 445.522L549.113 445.422C477.533 412.731 415.651 384.44 420.05 317.559C421.95 292.066 440.444 276.671 455.64 268.373C472.735 258.976 495.428 253.378 516.422 253.378C518.921 253.378 521.421 253.478 523.82 253.578C584.902 257.676 633.088 283.569 680.174 337.353L682.974 340.652L686.273 337.853L704.667 321.858L707.966 318.959L705.067 315.66C652.582 255.477 595.599 225.186 525.919 220.487C522.92 220.187 519.721 220.087 516.222 220.087C514.123 220.087 511.823 220.087 509.424 220.187H506.425C460.738 220.187 410.653 235.183 372.564 260.376C327.077 290.467 301.585 331.855 300.885 376.942C299.085 486.61 388.759 523.499 467.836 556.19L468.036 556.289L468.836 556.589C538.816 585.581 599.198 610.574 597.898 677.554C597.299 721.741 534.117 746.134 490.73 746.134H488.93H484.631V746.234C419.95 744.335 362.167 716.443 312.881 663.558L309.882 660.359L306.683 663.258L288.788 679.854L285.589 682.853L288.588 686.052C344.572 746.334 413.652 778.725 488.43 779.624H491.829C540.115 779.624 592.6 766.628 632.188 744.735C681.774 717.642 710.666 678.154 713.665 633.567C717.064 584.581 700.768 544.693 663.879 511.702ZM431.747 416.33C460.239 440.723 498.827 458.218 536.116 475.113L536.816 475.413C576.305 493.608 613.694 510.803 640.786 534.696C670.777 561.088 683.473 591.679 680.774 630.968C678.275 669.856 649.383 695.849 623.091 711.544C628.19 701.147 630.989 689.851 631.289 677.854C631.888 637.466 616.393 605.175 583.802 578.983C555.311 556.09 517.522 540.594 480.932 525.498C404.855 494.208 332.976 464.616 334.275 377.242C334.675 343.651 354.869 311.861 391.159 287.768C392.358 286.968 393.558 286.168 394.858 285.368C390.559 294.766 388.159 304.563 387.56 314.86C384.661 355.348 399.156 388.538 431.747 416.33Z" fill="white"/>
</svg>
