<?xml version="1.0" encoding="UTF-8" standalone="no"?>
<!-- Creator: CorelDRAW 2018 (64-Bit) -->

<svg
   xml:space="preserve"
   width="234.685mm"
   height="234.685mm"
   version="1.1"
   style="shape-rendering:geometricPrecision; text-rendering:geometricPrecision; image-rendering:optimizeQuality; fill-rule:evenodd; clip-rule:evenodd"
   viewBox="0 0 23442.11 23442.11"
   id="svg3"
   sodipodi:docname="ampCapa.svg"
   inkscape:version="1.3.2 (091e20e, 2023-11-25, custom)"
   xmlns:inkscape="http://www.inkscape.org/namespaces/inkscape"
   xmlns:sodipodi="http://sodipodi.sourceforge.net/DTD/sodipodi-0.dtd"
   xmlns="http://www.w3.org/2000/svg"
   xmlns:svg="http://www.w3.org/2000/svg"><sodipodi:namedview
   id="namedview3"
   pagecolor="#ffffff"
   bordercolor="#666666"
   borderopacity="1.0"
   inkscape:showpageshadow="2"
   inkscape:pageopacity="0.0"
   inkscape:pagecheckerboard="0"
   inkscape:deskcolor="#d1d1d1"
   inkscape:document-units="mm"
   inkscape:zoom="1.3517499"
   inkscape:cx="443.12932"
   inkscape:cy="443.49921"
   inkscape:window-width="2560"
   inkscape:window-height="1377"
   inkscape:window-x="-8"
   inkscape:window-y="-8"
   inkscape:window-maximized="1"
   inkscape:current-layer="Layer_x0020_1" />
 <defs
   id="defs2">
  <style
   type="text/css"
   id="style1">
   <![CDATA[
    .fil1 {fill:black}
    .fil0 {fill:url(#id0)}
   ]]>
  </style>
  <linearGradient
   id="id0"
   gradientUnits="userSpaceOnUse"
   x1="2405"
   y1="19953.54"
   x2="19504.26"
   y2="2854.28">
   <stop
   offset="0"
   style="stop-color:#3563a1;stop-opacity:1;"
   id="stop1" />
   <stop
   offset="1"
   style="stop-color:#82afc2;stop-opacity:1;"
   id="stop2" />
  </linearGradient>
 </defs>
 <g
   id="Layer_x0020_1"
   inkscape:label="Layer 1">
  <metadata
   id="CorelCorpID_0Corel-Layer" />
  <circle
   class="fil0"
   cx="11721.05"
   cy="11721.05"
   r="11721.05"
   id="circle2" />
  <path
   class="fil1"
   d="M13352.76 9356.1c-886.47,890.67 -2323.84,890.67 -3210.3,-0.38l-0.37 0c-210.11,-210.42 -550.88,-210.42 -760.96,0.38 -210.07,211.16 -210.07,554.07 0,764.87 886.47,891.04 886.84,2335.78 0,3226.84 -210.07,211.53 -210.07,553.71 0,764.84 210.08,211.17 550.51,211.17 760.96,0 886.46,-891.04 2323.83,-890.67 3210.4,0.4 210.11,211.14 550.78,211.14 760.88,0 210.1,-211.16 210.1,-553.34 0,-764.87l0.26 0c-886.41,-891.8 -886.41,-2336.55 0,-3227.58 210.11,-211.54 210.64,-554.08 0,-765.25 -210.1,-211.16 -550.77,-210.79 -760.87,0l0 0.75zm-907.16 3079.87c-460.41,-97.97 -936.31,-97.97 -1396.36,0 97.47,-462.39 97.47,-941.14 0,-1403.54 460.04,97.97 936.68,97.97 1396.36,0 -97.84,462.03 -97.84,941.15 0,1403.54z"
   id="path2"
   style="fill:#ffffff" />
  <path
   class="fil1"
   d="M8142.24 15326.67l-1986.21 -1986.21c-443.55,-443.57 -665.16,-1024.49 -665.16,-1605.82 0,-580.95 221.61,-1162.25 664.79,-1605.46l3973.16 -3973.16c886.75,-886.73 2324.52,-886.73 3211.25,0 210.1,209.79 551.03,210.16 761.14,0 210.1,-210.13 210.1,-551.03 0,-761.16l0.79 0c-654.1,-654.45 -1510.89,-981.29 -2367.36,-981.29 -856.84,0 -1713.65,326.84 -2367.36,980.55l-3973.16 3973.16c-653.71,653.7 -980.55,1510.52 -980.55,2367.36 0,856.46 326.84,1713.28 980.55,2367.36l1986.21 1986.21 1986.21 1986.21c654.08,654.08 1510.89,980.55 2367.36,980.55 856.84,0 1713.73,-326.84 2367.31,-980.55l3973.26 -3973.16c653.58,-653.71 980.23,-1510.53 980.5,-2367.36 0,-856.47 -326.92,-1713.29 -980.5,-2367.36l0 0.74c-210.63,-210.13 -551.56,-210.5 -761.66,0 -210.11,210.52 -210.11,551.03 0,761.16l-0.27 0c886.68,886.76 887.21,2324.53 0,3211.28l-3973.27 3973.16c-443.2,443.18 -1024.42,665.16 -1605.37,664.79 -581.32,0 -1162.25,-221.61 -1605.83,-665.16l-1986.2 -1986.21 0.37 0.37z"
   id="path3"
   style="fill:#ffffff" />
 </g>
</svg>
