<svg width="400" height="400" viewBox="0 0 400 400" fill="none" xmlns="http://www.w3.org/2000/svg">
<circle cx="200" cy="200" r="146.41" transform="rotate(-30 200 200)" fill="url(#paint0_linear)"/>
<g clip-path="url(#clip0)">
<path d="M219.326 213.744V213.704C208.627 213.49 200.02 204.963 200.02 194.456C200.02 204.94 191.444 213.455 180.777 213.699V213.744C191.444 213.988 200.02 222.502 200.02 232.986C200.016 222.485 208.627 213.957 219.326 213.744Z" fill="white"/>
<path d="M215.362 117.865H185.558C181.715 117.865 178.196 120.008 176.435 123.422L108.567 254.96C106.592 258.792 109.372 263.358 113.687 263.358H147.957C151.836 263.358 155.381 261.175 157.125 257.716L175.354 221.556C177.832 216.639 177.792 210.832 175.243 205.951L162.125 180.821C158.557 173.988 163.522 165.807 171.235 165.816L229.752 165.878C237.465 165.887 242.412 174.077 238.831 180.901L224.067 209.054C222.528 211.984 222.501 215.479 223.992 218.435L243.795 257.721C245.539 261.18 249.084 263.363 252.963 263.363H287.233C291.548 263.363 294.328 258.797 292.353 254.964L224.485 123.422C222.724 120.008 219.201 117.865 215.362 117.865Z" fill="white"/>
</g>
<defs>
<linearGradient id="paint0_linear" x1="200" y1="53.5898" x2="200" y2="346.41" gradientUnits="userSpaceOnUse">
<stop offset="0.140625" stop-color="#1A9FD5"/>
<stop offset="0.71875" stop-color="#5643F2"/>
<stop offset="0.993058" stop-color="#2233E2"/>
</linearGradient>
<clipPath id="clip0">
<rect width="185.085" height="145.489" fill="white" transform="translate(107.918 117.865)"/>
</clipPath>
</defs>
</svg>
