<svg width="400" height="400" viewBox="0 0 400 400" fill="none" xmlns="http://www.w3.org/2000/svg">
<g style="mix-blend-mode:luminosity" clip-path="url(#clip0_10777_104806)">
<mask id="mask0_10777_104806" style="mask-type:alpha" maskUnits="userSpaceOnUse" x="0" y="0" width="400" height="400">
<circle cx="200" cy="200" r="200" fill="#C4C4C4"/>
</mask>
<g mask="url(#mask0_10777_104806)">
<circle cx="204.197" cy="193.514" r="296.582" transform="rotate(-30 204.197 193.514)" fill="url(#paint0_linear_10777_104806)"/>
</g>
<g clip-path="url(#clip1_10777_104806)">
<path d="M224.045 217.281V217.231C210.693 216.966 199.951 206.357 199.951 193.286C199.951 206.329 189.247 216.921 175.933 217.226V217.281C189.247 217.585 199.951 228.177 199.951 241.22C199.945 228.155 210.693 217.546 224.045 217.281Z" fill="white"/>
<path d="M219.099 98H181.902C177.105 98 172.713 100.666 170.515 104.914L85.8107 268.557C83.3457 273.325 86.8156 279.006 92.2009 279.006H134.972C139.813 279.006 144.238 276.29 146.414 271.986L169.166 227C172.258 220.883 172.208 213.659 169.027 207.586L152.655 176.323C148.202 167.821 154.398 157.644 164.025 157.655L237.059 157.732C246.686 157.743 252.859 167.932 248.39 176.422L229.964 211.447C228.043 215.092 228.009 219.439 229.869 223.118L254.586 271.992C256.762 276.295 261.187 279.011 266.028 279.011H308.799C314.185 279.011 317.655 273.33 315.19 268.562L230.486 104.914C228.287 100.666 223.89 98 219.099 98Z" fill="white"/>
</g>
</g>
<defs>
<linearGradient id="paint0_linear_10777_104806" x1="204.197" y1="-103.067" x2="204.197" y2="490.096" gradientUnits="userSpaceOnUse">
<stop offset="0.40625" stop-color="#6E7DA4"/>
<stop offset="1" stop-color="#3B4A71"/>
</linearGradient>
<clipPath id="clip0_10777_104806">
<rect width="400" height="400" fill="white"/>
</clipPath>
<clipPath id="clip1_10777_104806">
<rect width="231" height="181" fill="white" transform="translate(85 98)"/>
</clipPath>
</defs>
</svg>
