<svg width="26" height="26" viewBox="0 0 26 26" fill="none" xmlns="http://www.w3.org/2000/svg">
<circle cx="13" cy="13" r="13" fill="url(#paint0_linear_529_5357)"/>
<path d="M12.6656 21.561H13.929V19.976C16.811 19.7803 18.3902 17.9213 18.3902 15.9254C18.3902 13.0294 15.982 12.501 13.929 11.9727V8.27434C14.6989 8.50916 15.1726 9.0962 15.2516 9.85935H18.2323C18.0547 7.53076 16.3965 6.21971 13.929 6.02403V4.43903H12.6656V6.02403C10.0995 6.21971 8.2439 7.72644 8.2439 10.0355C8.2439 12.9315 10.6324 13.499 12.6656 14.0078V17.7452C11.7576 17.5496 11.2839 16.9429 11.2049 16.0428H8.2439C8.30312 18.391 10.1192 19.7412 12.6656 19.9564V21.561ZM15.5279 16.0428C15.5279 16.9234 14.9357 17.6083 13.929 17.7844V14.36C14.8568 14.6731 15.5279 15.1231 15.5279 16.0428ZM11.1259 9.89848C11.1259 8.90052 11.7576 8.35262 12.6656 8.21564V11.6009C11.7576 11.2878 11.1259 10.8182 11.1259 9.89848Z" fill="white"/>
<defs>
<linearGradient id="paint0_linear_529_5357" x1="2.85366" y1="5.07317" x2="21.2439" y2="23.4634" gradientUnits="userSpaceOnUse">
<stop stop-color="#D641FF"/>
<stop offset="1" stop-color="#2EA9FF"/>
</linearGradient>
</defs>
</svg>
