<svg width="37" height="37" viewBox="0 0 37 37" fill="none" xmlns="http://www.w3.org/2000/svg">
  <path
    d="M18.1443 36.5696C28.0854 36.5696 36.1443 28.5107 36.1443 18.5696C36.1443 8.62845 28.0854 0.56958 18.1443 0.56958C8.20316 0.56958 0.144287 8.62845 0.144287 18.5696C0.144287 28.5107 8.20316 36.5696 18.1443 36.5696Z"
    fill="#020E12" />
  <path opacity="0.9"
    d="M18.1445 35.6003C27.5503 35.6003 35.1752 27.9754 35.1752 18.5696C35.1752 9.16384 27.5503 1.53894 18.1445 1.53894C8.73867 1.53894 1.11377 9.16384 1.11377 18.5696C1.11377 27.9754 8.73867 35.6003 18.1445 35.6003Z"
    stroke="#082F49" stroke-width="0.276922" />
  <mask id="mask0_106_294" style="mask-type:alpha" maskUnits="userSpaceOnUse" x="7" y="7" width="23"
    height="23">
    <path
      d="M14.0127 7.7838C14.2362 7.54716 14.5655 7.44495 14.8822 7.51398L23.5661 9.40728C24.276 9.56205 24.5439 10.4416 24.0429 10.9721L17.9133 17.4623C17.6898 17.699 17.3604 17.8011 17.0438 17.7321L8.3598 15.8388C7.64993 15.684 7.38195 14.8046 7.88303 14.274L14.0127 7.7838Z"
      fill="white" fill-opacity="0.9" />
    <path
      d="M7.11596 18.7786C6.88725 18.0828 7.50198 17.4028 8.20946 17.5692L16.5476 19.5283C16.8629 19.6024 17.1174 19.8367 17.2193 20.1469L19.9148 28.3474C20.1434 29.0433 19.5287 29.7232 18.8211 29.557L10.4831 27.5977C10.1677 27.5236 9.91328 27.2893 9.81134 26.9791L7.11596 18.7786Z"
      fill="white" fill-opacity="0.8" />
    <path
      d="M18.7698 19.5111C18.6729 19.1951 18.7481 18.851 18.9675 18.6053L24.9575 11.9005C25.4405 11.3597 26.3232 11.556 26.5365 12.2516L29.1797 20.876C29.2766 21.192 29.2014 21.5361 28.982 21.7818L22.992 28.4867C22.509 29.0274 21.6263 28.8311 21.413 28.1355L18.7698 19.5111Z"
      fill="white" fill-opacity="0.8" />
  </mask>
  <g mask="url(#mask0_106_294)">
    <path d="M29.3855 7.4928H7.06738V29.547H29.3855V7.4928Z" fill="url(#paint0_linear_106_294)" />
  </g>
  <defs>
    <linearGradient id="paint0_linear_106_294" x1="4.51009" y1="17.8583" x2="31.7084" y2="18.5934"
      gradientUnits="userSpaceOnUse">
      <stop stop-color="#1CAFEC" />
      <stop offset="0.497004" stop-color="#8CCAE4" />
      <stop offset="0.833333" stop-color="#E9F5FA" />
      <stop offset="1" stop-color="white" />
    </linearGradient>
  </defs>
</svg>