<svg width="512" height="512" viewBox="0 0 512 512" fill="none" xmlns="http://www.w3.org/2000/svg">
<rect width="512" height="512" rx="256" fill="#00A3FF"/>
<path opacity="0.6" d="M361.012 237.812L363.878 242.209C396.204 291.798 388.984 356.742 346.52 398.348C321.539 422.826 288.798 435.066 256.056 435.069C256.056 435.069 256.056 435.069 361.012 237.812Z" fill="white"/>
<path opacity="0.2" d="M256.044 297.764L361 237.812C256.045 435.069 256.044 435.069 256.044 435.069C256.044 392.108 256.044 342.88 256.044 297.764Z" fill="white"/>
<path d="M150.988 237.812L148.122 242.209C115.796 291.798 123.016 356.742 165.48 398.348C190.461 422.826 223.202 435.066 255.944 435.069C255.944 435.069 255.944 435.069 150.988 237.812Z" fill="white"/>
<path opacity="0.6" d="M255.914 297.764L150.958 237.812C255.914 435.069 255.914 435.069 255.914 435.069C255.914 392.108 255.914 342.88 255.914 297.764Z" fill="white"/>
<path opacity="0.2" d="M256.083 163.833V267.233L346.491 215.566L256.083 163.833Z" fill="white"/>
<path opacity="0.6" d="M256.056 163.833L165.583 215.565L256.056 267.233V163.833Z" fill="white"/>
<path d="M256.056 76.875L165.583 215.599L256.056 163.722V76.875Z" fill="white"/>
<path opacity="0.6" d="M256.083 163.706L346.56 215.585L256.083 76.7916V163.706Z" fill="white"/>
</svg>
