<?xml version="1.0" encoding="utf-8"?>
<!-- Generator: Adobe Illustrator 26.3.1, SVG Export Plug-In . SVG Version: 6.00 Build 0)  -->
<svg version="1.1" id="레이어_1" xmlns="http://www.w3.org/2000/svg" xmlns:xlink="http://www.w3.org/1999/xlink" x="0px"
	 y="0px" viewBox="0 0 1000 1000" style="enable-background:new 0 0 1000 1000;" xml:space="preserve">
<style type="text/css">
	.st0{fill:#196AE5;}
	.st1{fill:#BADAFB;}
	.st2{fill:#FFFFFF;}
</style>
<circle class="st0" cx="500" cy="500" r="500"/>
<g>
	<g>
		<path class="st1" d="M711.88,346.56c-16.69-7.43-36.24,0.08-43.67,16.76L558.48,609.77c-7.43,16.69,0.08,36.24,16.76,43.67
			c16.69,7.43,36.24-0.07,43.67-16.76l109.72-246.45C736.08,373.54,728.57,353.99,711.88,346.56z"/>
		<g>
			<circle class="st2" cx="698.43" cy="376.78" r="33.08"/>
		</g>
		<g>
			<circle class="st2" cx="588.7" cy="623.22" r="33.08"/>
		</g>
		<path class="st2" d="M424.75,346.56c-16.69-7.43-36.24,0.08-43.67,16.76L271.35,609.77c-7.43,16.69,0.07,36.24,16.76,43.67
			c16.69,7.43,36.24-0.07,43.67-16.76l109.72-246.45C448.95,373.54,441.44,353.99,424.75,346.56z"/>
		<path class="st2" d="M568.32,346.56c-16.69-7.43-36.24,0.08-43.67,16.76l-54.86,123.22c-7.43,16.69,0.08,36.24,16.77,43.67
			c16.69,7.43,36.24-0.08,43.67-16.77l54.86-123.22C592.51,373.54,585.01,353.99,568.32,346.56z"/>
	</g>
</g>
</svg>
