<svg width="40" height="40" viewBox="0 0 40 40" fill="none" xmlns="http://www.w3.org/2000/svg">
<g clip-path="url(#clip0_1180_4250)">
<g clip-path="url(#clip1_1180_4250)">
<path fill-rule="evenodd" clip-rule="evenodd" d="M20 31.1515C26.1588 31.1515 31.1515 26.1588 31.1515 20C31.1515 13.8412 26.1588 8.84848 20 8.84848C13.8412 8.84848 8.84848 13.8412 8.84848 20C8.84848 26.1588 13.8412 31.1515 20 31.1515ZM20 36C28.8366 36 36 28.8366 36 20C36 11.1634 28.8366 4 20 4C11.1634 4 4 11.1634 4 20C4 28.8366 11.1634 36 20 36Z" fill="white"/>
<path fill-rule="evenodd" clip-rule="evenodd" d="M26.4156 30.9768C24.4911 29.8304 22.6972 27.8337 21.795 25.6871C21.3047 24.5203 22.652 22.5344 24.1151 21.0171L24.3719 21.2403C24.2261 21.4082 24.0996 21.6861 24.0201 22.1292C23.6994 23.9182 24.6518 25.7168 26.3931 26.8393C27.3707 27.4695 28.2316 27.4288 28.724 26.9555L31.9857 30.5067C30.8275 31.7153 28.9313 32.2096 26.4156 30.9768Z" fill="white"/>
<path fill-rule="evenodd" clip-rule="evenodd" d="M13.5564 30.9768C15.4808 29.8304 17.2748 27.8337 18.177 25.6871C18.6674 24.5203 17.3201 22.5344 15.8568 21.0171L15.6002 21.2403C15.7459 21.4082 15.8724 21.6861 15.9519 22.1292C16.2726 23.9182 15.3203 25.7168 13.5789 26.8393C12.6012 27.4695 11.7404 27.4288 11.248 26.9555L7.98633 30.5067C9.14447 31.7153 11.0408 32.2096 13.5564 30.9768Z" fill="white"/>
<path fill-rule="evenodd" clip-rule="evenodd" d="M34.9197 15.4092L31.0828 13.0667C28.9438 16.1923 25.0434 19.0889 19.9863 19.0889V26.726C21.4872 26.726 22.3789 27.6124 23.4289 28.6562C24.226 29.4486 25.1144 30.3318 26.4301 30.9867C21.617 27.0384 25.247 23.0975 28.8505 20.9579C31.6071 19.3211 33.6018 17.376 34.9197 15.4092Z" fill="white"/>
<path fill-rule="evenodd" clip-rule="evenodd" d="M5.05273 15.4092L8.88971 13.0667C11.0287 16.1923 14.929 19.0889 19.9861 19.0889V26.726C18.4851 26.726 17.5935 27.6124 16.5436 28.6562C15.7464 29.4486 14.8579 30.3318 13.5424 30.9867C18.3553 27.0384 14.7254 23.0975 11.1218 20.9579C8.36526 19.3211 6.37062 17.376 5.05273 15.4092Z" fill="white"/>
</g>
</g>
<defs>
<clipPath id="clip0_1180_4250">
<rect width="40" height="40" fill="white"/>
</clipPath>
<clipPath id="clip1_1180_4250">
<rect width="32" height="32" fill="white" transform="translate(4 4)"/>
</clipPath>
</defs>
</svg>
