<svg width="180" height="180" viewBox="0 0 180 180" fill="none" xmlns="http://www.w3.org/2000/svg"><style>path{fill:#ff761c}@media (prefers-color-scheme:dark){path{fill:#ffa41c}}</style><path d="M106.452 52.416c0 8.35-7.366 15.12-16.452 15.12-9.086 0-16.452-6.77-16.452-15.12 0-8.352 7.366-15.122 16.452-15.122 9.086 0 16.452 6.77 16.452 15.122ZM120.162 107.608c0 11.691-13.504 12.098-30.162 12.098s-30.162-.407-30.162-12.098c0-11.692 7.54-30.998 30.162-30.998s30.162 19.306 30.162 30.998ZM46.128 89.463c9.086 0 16.452-6.77 16.452-15.121 0-8.352-7.366-15.122-16.452-15.122-9.087 0-16.453 6.77-16.453 15.121 0 8.352 7.366 15.122 16.453 15.122ZM150.324 74.341c0 8.352-7.365 15.122-16.452 15.122-9.086 0-16.452-6.77-16.452-15.121 0-8.352 7.366-15.122 16.452-15.122 9.087 0 16.452 6.77 16.452 15.121Z"/><path fill-rule="evenodd" clip-rule="evenodd" d="M90 168.882c48.601 0 88-35.343 88-78.94 0-24.592-12.535-46.557-32.185-61.035C130.93 17.76 111.394 11 90 11s-40.93 6.761-55.815 17.907C14.535 43.385 2 65.35 2 89.941c0 43.598 39.399 78.941 88 78.941Zm0-17.47c45.382 0 81.245-31.181 81.245-68.589 0-37.407-35.863-68.588-81.245-68.588-45.383 0-81.245 31.18-81.245 68.588 0 37.408 35.862 68.589 81.245 68.589Z"/></svg>