<svg width="156" height="156" viewBox="0 0 156 156" fill="none" xmlns="http://www.w3.org/2000/svg">
<rect width="156" height="156" rx="23" fill="black"/>
<path d="M124.54 45.9597C121.68 41.0309 116.558 38.0791 110.837 38.0791H79.2912C78.8825 38.052 78.4739 38.0249 78.0653 38.0249C77.6566 38.0249 77.248 38.052 76.8394 38.0791H45.2931C39.5723 38.0791 34.4508 41.0309 31.5904 45.9597C28.73 50.8885 28.73 56.7652 31.5904 61.694L64.3625 118.104C67.223 123.033 72.3445 125.985 78.0653 125.985C83.7861 125.985 88.9076 123.033 91.768 118.104L124.54 61.694C127.401 56.7923 127.401 50.8885 124.54 45.9597ZM84.1947 113.771C82.9144 115.965 80.626 117.292 78.0653 117.292C75.5045 117.292 73.2162 115.965 71.9358 113.771L53.493 82.0321L71.9358 50.2657C73.08 48.2887 75.0142 47.043 77.248 46.7992H78.8825C81.1164 47.043 83.0506 48.3158 84.1947 50.2657L102.638 82.005L84.1947 113.771Z" fill="white"/>
</svg>
