<svg width="432" height="499" viewBox="0 0 432 499" fill="none" xmlns="http://www.w3.org/2000/svg">
<path d="M108.458 193.929C109.055 189.15 112.043 184.669 116.225 182.279L208.232 129.106C210.622 127.612 213.31 127.015 215.999 127.015V54.7234C206.738 54.7234 197.478 52.3336 189.412 47.554L108.458 0.952881V193.929Z" fill="url(#paint0_linear_1437_100)"/>
<path d="M216 54.7234V127.015C218.987 127.015 221.676 127.612 224.364 129.106L316.371 182.279C319.956 184.37 322.346 187.656 323.541 191.241V0.952881L242.586 47.554C234.222 52.3336 225.26 54.7234 216 54.7234Z" fill="#0B0B0B"/>
<path d="M0.319824 435.894L108.458 498.029V0.950195L0.319824 63.085V435.595V435.894Z" fill="#0B0B0B"/>
<path d="M431.68 63.0877L323.542 0.952881V498.032L431.68 435.897V63.3864V63.0877Z" fill="url(#paint1_linear_1437_100)"/>
<path d="M215.999 371.988C213.31 371.988 210.622 371.091 208.232 369.897L116.225 316.724C112.043 314.334 109.055 309.853 108.458 305.073V498.05L189.412 451.449C197.777 446.669 206.738 444.279 215.999 444.279V371.988Z" fill="url(#paint2_linear_1437_100)"/>
<path d="M242.586 451.431L323.541 498.032V307.744C322.346 311.329 319.956 314.615 316.371 316.706L224.364 369.879C221.676 371.373 218.987 371.97 216 371.97V444.262C225.26 444.262 234.521 446.652 242.586 451.431Z" fill="#0B0B0B"/>
<defs>
<linearGradient id="paint0_linear_1437_100" x1="108.458" y1="97.4411" x2="215.999" y2="97.4411" gradientUnits="userSpaceOnUse">
<stop stop-color="#C2FFDD"/>
<stop offset="1" stop-color="#06574A"/>
</linearGradient>
<linearGradient id="paint1_linear_1437_100" x1="323.542" y1="249.492" x2="431.68" y2="249.492" gradientUnits="userSpaceOnUse">
<stop stop-color="#C2FFDD"/>
<stop offset="1" stop-color="#06574A"/>
</linearGradient>
<linearGradient id="paint2_linear_1437_100" x1="108.458" y1="401.561" x2="215.999" y2="401.561" gradientUnits="userSpaceOnUse">
<stop stop-color="#C2FFDD"/>
<stop offset="1" stop-color="#06574A"/>
</linearGradient>
</defs>
</svg>
