<?xml version="1.0" encoding="UTF-8"?>
<svg xmlns="http://www.w3.org/2000/svg" width="791" height="791" xmlns:xlink="http://www.w3.org/1999/xlink" version="1.1" viewBox="0 0 791 791">
  <defs>
    <style>
      .cls-1 {
        fill: url(#linear-gradient-3);
      }

      .cls-2 {
        fill: url(#linear-gradient-2);
      }

      .cls-3 {
        fill: url(#linear-gradient);
      }

      .cls-4 {
        fill: #0b0b0b;
      }
    </style>
    <linearGradient id="linear-gradient" x1="299.7" y1="760.1" x2="395.3" y2="760.1" gradientTransform="translate(0 1004) scale(1 -1)" gradientUnits="userSpaceOnUse">
      <stop offset="0" stop-color="#c2ffdd"/>
      <stop offset="1" stop-color="#06574a"/>
    </linearGradient>
    <linearGradient id="linear-gradient-2" x1="490.9" y1="625" x2="587" y2="625" gradientTransform="translate(0 1004) scale(1 -1)" gradientUnits="userSpaceOnUse">
      <stop offset="0" stop-color="#c2ffdd"/>
      <stop offset="1" stop-color="#06574a"/>
    </linearGradient>
    <linearGradient id="linear-gradient-3" x1="299.7" y1="489.9" x2="395.3" y2="489.9" gradientTransform="translate(0 1004) scale(1 -1)" gradientUnits="userSpaceOnUse">
      <stop offset="0" stop-color="#c2ffdd"/>
      <stop offset="1" stop-color="#06574a"/>
    </linearGradient>
  </defs>
  <!-- Generator: Adobe Illustrator 28.7.7, SVG Export Plug-In . SVG Version: 1.2.0 Build 194)  -->
  <g>
    <g id="Layer_1">
      <g>
        <path class="cls-3" d="M299.7,329.6c.5-4.2,3.2-8.2,6.9-10.4l81.8-47.3c2.1-1.3,4.5-1.9,6.9-1.9v-64.2c-8.2,0-16.5-2.1-23.6-6.4l-71.9-41.4v171.5Z"/>
        <path class="cls-4" d="M395.3,205.9v64.2c2.7,0,5,.5,7.4,1.9l81.8,47.3c3.2,1.9,5.3,4.8,6.4,8v-169.1l-71.9,41.4c-7.4,4.2-15.4,6.4-23.6,6.4Z"/>
        <path class="cls-4" d="M203.6,544.7l96.1,55.2V158.1l-96.1,55.2v331.3Z"/>
        <path class="cls-2" d="M587,213.3l-96.1-55.2v441.8l96.1-55.2V213.3Z"/>
        <path class="cls-3" d="M395.3,487.8c-2.4,0-4.8-.8-6.9-1.9l-81.8-47.3c-3.7-2.1-6.4-6.1-6.9-10.4v171.5l71.9-41.4c7.4-4.2,15.4-6.4,23.6-6.4v-64.3Z" />
        <path class="cls-4" d="M418.9,558.5l71.9,41.4v-169.1c-1.1,3.2-3.2,6.1-6.4,8l-81.8,47.3c-2.4,1.3-4.8,1.9-7.4,1.9v64.3c8.2,0,16.5,2.1,23.6,6.4Z"/>
      </g>
    </g>
  </g>
</svg>