<?xml version="1.0" encoding="utf-8"?>
<!-- Generator: Adobe Illustrator 25.4.1, SVG Export Plug-In . SVG Version: 6.00 Build 0)  -->
<svg version="1.1" id="Layer_1" xmlns="http://www.w3.org/2000/svg" xmlns:xlink="http://www.w3.org/1999/xlink" x="0px" y="0px"
	 viewBox="0 0 285 285" style="enable-background:new 0 0 285 285;" xml:space="preserve">
<style type="text/css">
	.st0{fill:#FFFFFF;}
</style>
<g>
	<circle cx="142.5" cy="142.5" r="142.5"/>
	<g>
		<g>
			<polygon class="st0" points="207.54,94.93 208.2,96.87 207.49,98.57 208.09,100.27 207.63,101.98 207.79,103.68 207.61,105.39 
				207.81,107.1 208.04,108.81 207.31,110.67 209.5,109.81 210.72,108.38 211.96,106.97 213.69,106.24 215.29,105.35 216.73,104.22 
				217.74,102.83 217.38,104.85 216.47,106.54 214.98,107.79 213.65,109.13 211.93,109.99 210.27,110.94 207.69,111.74 
				207.52,113.6 207.44,115.4 207.38,117.19 207.68,118.98 208.16,120.78 207.35,122.57 208.08,124.37 207.83,126.16 208.18,127.95 
				208.13,129.75 208.11,131.55 208.04,133.34 207.9,135.13 207.31,136.92 207.47,138.71 207.93,140.5 208.16,142.29 207.69,144.09 
				208.04,145.88 208.03,147.68 207.45,149.47 208.19,151.27 207.85,153.06 207.99,154.86 208.03,156.65 207.5,158.45 
				207.99,160.25 207.37,162.04 208,163.84 208.18,165.64 207.31,167.43 208.11,169.23 207.78,171.03 207.69,172.82 207.64,174.62 
				208.15,176.42 207.67,178.22 208,180.02 207.63,181.83 208.09,183.96 205.96,184.11 204.16,183.93 202.35,183.78 200.55,183.22 
				198.75,184.05 196.95,183.87 195.15,183.48 193.34,184.01 191.54,183.96 189.74,184.12 187.93,183.95 186.12,183.19 
				183.96,183.95 184.83,181.86 184.51,180.02 184.87,178.23 185.12,176.43 184.76,174.59 185.48,172.84 185.57,171.03 
				185.67,169.22 185.87,167.42 185.18,165.56 186.01,163.81 186.34,162.02 186.38,160.21 186.52,158.4 186.16,156.56 
				186.22,154.75 186.38,152.95 186.31,151.13 187.27,149.38 186.52,147.51 187.13,145.75 187.07,143.93 187.43,142.15 
				187.62,140.35 187.33,138.52 187.36,136.71 188.21,134.95 187.9,133.12 188.25,131.33 188.56,129.54 188.66,127.73 188.5,125.9 
				188.87,124.12 189.27,122.33 188.84,120.48 189.44,118.71 189.67,116.91 189.48,115.08 189.2,113.24 189.48,111.44 
				189.52,109.63 190.44,107.88 189.85,106.02 189.97,104.21 190.07,102.4 190.57,100.62 190.18,98.77 191.1,97.01 191.1,94.97 
				189.02,95.04 187.15,95.57 185.29,95.6 183.42,94.72 181.55,95.36 179.69,94.78 177.81,94.9 175.95,95.01 174.07,94.99 
				172.2,95.42 170.61,95.45 170.76,96.95 171,98.75 171.22,100.55 170.65,102.4 171.27,104.17 170.81,106.01 170.89,107.82 
				171.82,109.57 171.61,111.4 171.82,113.19 171.39,115.04 172.22,116.79 171.84,118.63 171.74,120.46 172.13,122.24 
				172.69,124.02 173,125.81 172.96,127.62 172.85,129.45 173.33,131.23 172.82,133.08 173.57,134.83 173.24,136.67 173.32,138.47 
				173.95,140.24 173.33,142.1 174.21,143.85 173.97,145.68 173.74,147.51 174.81,149.24 174.55,151.08 174.56,152.89 174.6,154.7 
				174.51,156.53 174.64,158.33 174.8,160.14 174.98,161.94 175.87,163.69 175.28,165.56 175.23,167.38 175.98,169.13 
				175.98,170.95 176.01,172.77 176.66,174.54 176.61,176.36 176.14,178.21 176.21,180.03 176.88,181.81 176.87,183.6 175.1,183.44 
				173.3,183.65 171.49,183.94 169.69,183.52 167.89,183.56 166.09,183.52 164.29,183.98 162.49,183.45 160.68,183.82 
				158.88,183.85 157.07,183.93 155.26,183.6 153.44,183.64 153.16,181.83 153.33,180.02 153.29,178.22 152.96,176.41 
				153.72,174.61 153.76,172.81 153.7,171.01 153.23,169.2 153.51,167.4 153.38,165.59 153.87,163.79 153.58,161.99 153.07,160.18 
				153.45,158.38 153.77,156.57 153.43,154.77 153.74,152.96 153.52,151.16 153.28,149.35 153.88,147.55 153.07,145.75 
				153.87,143.94 153.61,142.14 153.32,140.34 153.86,138.54 153.05,136.74 153.38,134.93 153.55,133.13 153.19,131.33 
				153.66,129.52 153.94,127.72 153.19,125.91 153.38,124.11 153.81,122.3 153.37,120.49 153.72,118.69 153.58,116.88 153.6,115.07 
				153.58,113.26 153.01,111.46 153.63,109.65 152.97,107.84 153.05,106.04 153.73,104.23 153.92,102.42 153.16,100.61 153.64,98.8 
				153.39,96.98 153.19,95.44 151.58,95.29 149.71,94.69 147.85,95.24 145.98,95.56 144.11,95.2 142.24,95.04 140.37,95.63 
				138.5,95.15 136.63,94.73 134.75,95.4 132.87,95.16 132.63,96.95 132.98,98.74 133.17,100.53 133.04,102.31 132.47,104.1 
				132.51,105.89 132.62,107.67 132.6,109.46 132.52,111.25 132.84,113.04 133.14,114.82 132.61,116.61 132.81,118.4 132.48,120.18 
				132.83,121.97 133.11,123.76 133.37,125.54 133.34,127.32 133.04,129.11 133.17,130.89 132.63,132.68 133.36,134.47 
				132.67,136.25 133.37,138.04 132.78,139.83 133.3,141.61 132.92,143.4 132.48,145.19 133.04,146.98 132.78,148.77 132.64,150.56 
				133.32,152.35 132.41,154.14 132.73,155.93 133.09,157.72 132.71,159.5 132.96,161.3 132.5,163.08 132.45,164.88 133.37,166.67 
				133.06,168.46 132.63,170.25 132.77,172.05 132.77,173.91 133.48,173.42 133.51,174.76 135.25,173.71 136.93,172.92 
				138.47,171.87 140.24,171.21 141.67,169.96 143.66,168.9 141.88,170.33 140.5,171.65 138.86,172.64 137.18,173.58 136.06,175.23 
				134.66,176.54 133.1,177.47 133.29,179.08 133.11,180.8 132.76,182.53 133.3,184.26 132.79,185.98 132.91,187.71 132.48,189.44 
				132.86,191.19 134.68,191.65 136.47,191.39 138.27,191.61 140.07,190.92 141.87,191.44 143.67,191.04 145.47,191.29 
				147.27,191.65 149.07,191.38 150.87,190.87 152.67,190.71 154.47,191.21 156.27,190.98 158.07,191.27 159.87,191.42 
				161.67,190.7 163.47,190.95 165.27,191.51 167.07,191.04 168.87,191.59 170.67,190.92 172.47,191.62 174.27,191.41 
				176.07,191.04 177.87,191.28 179.67,190.83 181.46,190.81 183.26,190.94 185.06,191.45 186.86,191.02 188.66,191.38 
				190.46,191.14 192.26,191.51 194.06,191.21 195.86,191.39 197.66,191.41 199.46,191.38 201.26,191.47 203.07,191.27 
				204.87,191.48 206.67,191.61 208.48,191.32 210.28,191.23 212.08,190.69 213.88,190.91 215.69,190.96 217.49,191.39 
				219.29,190.78 221.1,191.41 222.9,191.43 224.71,191.07 226.52,191.12 228.13,190.97 228.27,189.37 228.53,187.56 228.21,185.75 
				228.12,183.94 228.65,182.13 228.7,180.32 228.82,178.51 228.52,176.7 227.95,174.89 228.55,173.08 228.67,171.27 228.5,169.46 
				228.38,167.65 228.29,165.84 227.97,164.03 228.65,162.22 228.74,160.41 228.07,158.6 228.59,156.79 227.89,154.98 
				228.12,153.17 228.73,151.36 228.48,149.54 228.1,147.73 228.28,145.92 227.84,144.12 227.91,142.31 228.15,140.5 228.67,138.69 
				228.7,136.88 227.98,135.07 228.7,133.26 228.49,131.45 228.32,129.64 227.89,127.83 228.65,126.02 227.89,124.21 227.97,122.39 
				228.48,120.58 228.51,118.77 228.62,116.95 228.49,115.14 228.45,113.33 228.57,111.51 228.24,109.7 228.83,107.89 
				228.74,106.08 228.28,104.26 228.26,102.44 228,100.63 228.56,98.81 228.52,96.99 228.25,95.26 226.46,95.53 224.6,94.98 
				222.73,95.21 220.86,95.35 219,94.79 217.13,95.15 215.26,94.95 213.39,94.96 211.51,94.76 209.66,94.82 			"/>
		</g>
		<g>
			<path class="st0" d="M121.63,115.59l-2.14,0.19l-2.18-0.92l2.05-1.2l0.71-2.45l-1.08-1.75l-1.29-1.49l-1.06-1.59l-0.75-1.84
				l-1.48-1.28l-1.28-1.45l-1.58-0.84l-0.86-1.78l-1.84-0.42l-1.23-1.4l-1.88-0.17l-1.48-1l-1.64-0.65l-1.8-0.52l-1.91-0.04
				l-1.75-0.8l-1.91,0.15l-1.83-0.48l-1.89,0.34l-1.85-0.89l-1.8,0.25l-1.79,0.17l-1.83-0.14l-1.68,0.9l-1.84-0.08l-1.79,0.31
				l-1.73,0.55l-1.36,1.45l-1.72,0.79l-2.03,0.3l-1.15,1.72l-1.7,0.92l-1.48,1.23L66.32,103l-1.11,1.59l-1.29,1.38l-0.85,1.67
				l-0.44,1.86l-1.32,1.42l-0.72,1.72l-0.34,1.86l-0.88,1.67l0,1.93l-0.27,1.84l-0.72,1.68l-0.6,1.72l-0.34,1.78l0.3,1.87l-0.2,1.79
				l-0.03,1.8l-0.81,1.74l0.5,1.84l-0.43,1.78l0.2,1.82l-0.37,1.79l-0.24,1.81l-0.17,2.04l1.43,1.05l1.12,1.26l1.81,0.53l0.86,1.6
				l1.57-1.26l1.47-1.4l1.66-0.43l1.64-0.48l1.81,0.09l1.4-1.31l1.84,0.17l1.39-0.75l-1.56,0.81l-1.74,0.79l-1.64,0.99l-1.58,1.09
				l-1.84,0.62l-1.39,1.47l-1.66,0.59l1.3,1.03l0.86,1.77l1.99,0.56l1.07,1.55l1.41,1.18l1.14,1.47l1.5,1.09l1.15,1.46l1.75,0.81
				l0.93,1.69l1.4,1.19l1.26,1.34l1.25,1.36l1.77,0.8l1.52,1.06l0.97,1.67l1.48,1.12l1.27,1.34l-0.87,1.3l-0.69,1.41l-0.4,1.56
				l-0.55,1.94l-1.42,1.52l-1.04,1.7l-0.83,1.87l-0.65,1.96l-1.26,1.65l-0.4,1.82l-0.53,1.75l-1.28,1.54l1.82-0.12l1.77,0.28
				l1.77-0.75l1.77,0.29l1.77,0.4l1.77-0.73l1.77,0.18l1.77-0.18l1.77,0.82l1.77-0.16l1.78-0.43l1.78,0.22l1.9,0.43l0.95-1.99
				l0.56-1.8l1-1.6l0.48-1.83l0.76-1.71l0.35-1.9l1.42-1.41l0.26-1.94l0.72-1.73l1.28-1.46l0.67-1.75l1.03-1.57l0.55-1.65l0.7-1.57
				l0.5-1.66l1.44-1.22l0.35-1.74l0.26-1.78l1.44-1.22l0.72-1.56l0.32-1.74l0.35-1.72l1.25-1.38l0.66-1.64l0.23-1.81l1.29-1.41
				l-0.17-1.93l1.33-1.43l0.41-1.73l0.02-1.82l0.22-1.72l0.66-1.63l0.29-1.71l0.08-1.73l0.51-1.69l0.17-1.73l-0.24-1.75l-0.28-1.73
				l0.52-1.79l-0.72-1.75l-0.01-1.78l-0.16-1.76l0.01-1.8l-0.2-1.78L121.63,115.59z M101.22,135.91l0.35,1.82l-0.43,1.67l-0.4,1.68
				l-1.26,1.4l-0.36,1.69l-0.22,1.7l-0.58,1.57l-1.1,1.36l-0.39,1.65l-0.79,1.48l-0.32,1.7l-1.53,1.18l-0.12,1.83l-1.27,1.29
				l-0.12,1.84l-1.05,1.4l-0.81,1.51l-0.54,1.48l-1.55-0.9l-1-1.56l-1.61-0.92l-1.12-1.44l-1.63-0.9l-0.73-1.86l-1.47-1.07
				l-1.36-1.19l-1.1-1.48l-1.78-0.79l0.41-1.96l0.16-1.87l0.02-1.87l-0.84-1.89l0.05-1.87l0.8-1.85l-0.69-1.91l0.44-1.85l0.23-1.86
				l0.33-1.85l0.03-1.87l0.43-1.76l0.05-1.8l-0.29-1.84l0.81-1.71l0.26-1.77l-0.04-1.82l0.62-1.71l-0.18-1.86l0.19-1.8l0.77-1.73
				l0.75-1.71l0.62-1.74l0.15-1.93l0.78-1.7l0.81-1.71l1.6-1.03l0.91-1.67l1.79-0.56l1.77-0.56l1.63,0.44l1.51,0.6l1.32,0.88
				l1.38,0.78l1.08,1.38l1.73,0.95l0.38,1.86l0.84,1.57l0.85,1.58l0.45,1.73l0.41,1.73l-0.26,1.85l1.1,1.63l-0.5,1.78l0.22,1.69
				l0.18,1.7l-0.04,1.71l0.15,1.7l0.23,1.71l-0.37,1.94l0.49,1.99l-0.41,1.93L101.22,135.91z"/>
		</g>
	</g>
</g>
</svg>
