<svg id="Layer_1" data-name="Layer 1" xmlns="http://www.w3.org/2000/svg" viewBox="0 0 65 65"><defs><style>.cls-1{fill:none;}.cls-2{fill:#fcca27;}</style></defs><rect class="cls-1" x="-0.07" y="-0.45" width="65.14" height="65.89" rx="3.32"/><path class="cls-2" d="M37.12,28.41a5.79,5.79,0,0,1,1.31,1.94,5.89,5.89,0,0,1,.48,2.09c0,.1,0,.21,0,.31a6,6,0,0,1-.49,2.39,5.93,5.93,0,0,1-1.31,2,6.1,6.1,0,0,1-1.94,1.31,6.22,6.22,0,0,1-4.79,0,6.31,6.31,0,0,1-1.78-1.15c-.05-.06-.11-.11-.16-.16a6.08,6.08,0,0,1-1.8-4.34,3.85,3.85,0,0,1,0-.48,6.13,6.13,0,0,1,8.51-5.17,5.34,5.34,0,0,1,1,.52A5.59,5.59,0,0,1,37.12,28.41Z"/><path class="cls-2" d="M16.37,16.34l5.86,5.86a17.85,17.85,0,0,0-2.53,3.14l-.15.25a6.28,6.28,0,0,0-1,3.07A3.29,3.29,0,0,0,22.08,32h.09c0,.27,0,.55,0,.83A10.8,10.8,0,0,0,23,37a10.65,10.65,0,0,0,2.29,3.38l-8.89,8.89a22.65,22.65,0,0,1-2.59-3.07,23.27,23.27,0,0,1,2.58-29.83Z"/><path class="cls-2" d="M49.28,16.34a22.65,22.65,0,0,1,2.59,3.07A23.2,23.2,0,0,1,56.1,32.79h0a1.5,1.5,0,0,1,0,.22,23.09,23.09,0,0,1-1.15,7q-.16.39-.36.78a30.05,30.05,0,0,1-5.77,7.74l-.11.11L43.33,43.3l0,0a21.11,21.11,0,0,0,2.14-2.45l.42-.6a12.56,12.56,0,0,0,.92-1.64,6.9,6.9,0,0,0,.61-2,3.68,3.68,0,0,0-.18-1.7,4.26,4.26,0,0,0-1-1.45,4.81,4.81,0,0,0-.81-.65,3.51,3.51,0,0,0-1.94-.54h-.05a10.71,10.71,0,0,0-3.12-7Z"/><path class="cls-2" d="M32.83,9.52l.26.84,2.25,7.23,1.5,4.81L37,23l-.17-.07a10.7,10.7,0,0,0-8,0l-.17.07.17-.55,1.08-3.48,2.7-8.66.23-.73Z"/><path class="cls-2" d="M37,42.64l-.16.53-1.24,4-2.72,8.73-.05.18-.06-.2L29.85,46.5l-1-3.32-.17-.54.17.06a10.7,10.7,0,0,0,8,0Z"/><path class="cls-2" d="M40.57,40.53a10.84,10.84,0,0,1-3.47,2.34l-.17.07a10.93,10.93,0,0,1-8.21,0l-.17-.07a10.74,10.74,0,0,1-3.16-2l-.3-.29a10.91,10.91,0,0,1-3.21-7.74c0-.27,0-.56,0-.85a11.14,11.14,0,0,1,.84-3.42,10.74,10.74,0,0,1,2.34-3.47,11,11,0,0,1,3.46-2.34l.18-.07a10.91,10.91,0,0,1,8.2,0l.18.07a11,11,0,0,1,3.46,2.34,10.86,10.86,0,0,1,3.19,7.19c0,.19,0,.37,0,.55a10.85,10.85,0,0,1-3.2,7.74ZM25.45,25.41a10.35,10.35,0,0,0-2.23,3.3,10.52,10.52,0,0,0-.8,3.27c0,.27,0,.55,0,.81a10.42,10.42,0,0,0,3.06,7.38,2.37,2.37,0,0,0,.28.27,10.32,10.32,0,0,0,3,2l.16.07a10.46,10.46,0,0,0,7.83,0l.17-.07a10.44,10.44,0,0,0,6.36-9.61c0-.17,0-.35,0-.52a10.36,10.36,0,0,0-3-6.86,10.69,10.69,0,0,0-1.65-1.35,10.91,10.91,0,0,0-1.65-.88l-.16-.07a10.49,10.49,0,0,0-7.84,0l-.16.07A10.24,10.24,0,0,0,25.45,25.41Z"/></svg>
