<svg xmlns="http://www.w3.org/2000/svg" fill="none" viewBox="0 0 44 43"><circle cx="22.074" cy="21.637" r="21.143" fill="#FF0"/><g fill="#262626"><path d="M28.02 21.636h-5.732v5.732h5.732v-5.732ZM16.552 15.901a5.735 5.735 0 0 1 5.732 5.732h-5.732v-5.732ZM16.551 21.636l-3.31 5.732h6.62l-3.31-5.732ZM28.04 21.632a2.864 2.864 0 1 0 0-5.729 2.864 2.864 0 0 0 0 5.729Z"/><path d="M22.074 36.963a15.228 15.228 0 0 1-10.839-4.49 15.227 15.227 0 0 1-4.49-10.838c0-4.094 1.595-7.944 4.49-10.839a15.228 15.228 0 0 1 10.84-4.49c4.094 0 7.943 1.595 10.838 4.49a15.228 15.228 0 0 1 4.49 10.839c0 4.095-1.595 7.944-4.49 10.839a15.228 15.228 0 0 1-10.839 4.49v-.001Zm0-28.757c-3.587 0-6.959 1.397-9.495 3.933a13.34 13.34 0 0 0-3.934 9.496 13.34 13.34 0 0 0 3.934 9.496 13.34 13.34 0 0 0 9.495 3.933c3.587 0 6.96-1.397 9.496-3.933a13.341 13.341 0 0 0 3.933-9.496c0-3.587-1.397-6.96-3.933-9.496a13.341 13.341 0 0 0-9.496-3.933Z"/></g></svg>
