<svg width="501" height="501" viewBox="0 0 501 501" fill="none" xmlns="http://www.w3.org/2000/svg">
<path d="M250.8 500.5C388.922 500.5 500.8 388.545 500.8 250.5C500.8 112.455 388.922 0.5 250.8 0.5C112.677 0.5 0.799805 112.455 0.799805 250.5C0.799805 388.545 112.773 500.5 250.8 500.5Z" fill="#FF060A"/>
<path d="M391.413 205.618C377.62 192.823 358.462 173.331 342.945 159.537L341.987 158.937C340.455 157.737 338.731 156.738 336.911 156.038C299.363 149.041 124.65 116.354 121.298 116.754C120.34 116.854 119.382 117.253 118.616 117.753L117.754 118.453C116.7 119.553 115.838 120.852 115.359 122.351L115.167 122.951V126.25V126.75C134.803 181.528 212.485 360.856 227.811 403.039C228.769 405.938 230.493 411.336 233.75 411.636H234.516C236.24 411.636 243.712 401.74 243.712 401.74C243.712 401.74 377.141 240.004 390.646 222.811C392.371 220.712 393.903 218.413 395.244 216.014C395.627 214.115 395.436 212.215 394.765 210.416C394.095 208.617 392.849 206.918 391.413 205.618ZM277.811 224.511L334.708 177.329L368.137 208.117L277.811 224.511ZM255.685 221.412L157.696 141.044L316.317 170.332L255.685 221.412ZM264.497 242.403L364.784 226.21L250.129 364.455L264.497 242.403ZM144.382 149.141L247.543 236.606L232.6 364.555L144.382 149.141Z" fill="white"/>
</svg>
