<svg width="400" height="400" viewBox="0 0 400 400" fill="none" xmlns="http://www.w3.org/2000/svg">
<circle cx="200" cy="200" r="200" fill="white"/>
<path d="M159.84 146.529L160.116 147.298C162.58 154.467 169.185 159.393 176.758 159.711C184.332 160.029 191.326 155.674 194.382 148.737L227.9 73.0862C230.972 66.1191 229.444 57.9802 224.055 52.6011C219.773 48.3235 213.663 46.421 207.708 47.5111C201.754 48.6012 196.714 52.545 194.225 58.0625L160.471 132.984C158.543 137.254 158.318 142.098 159.84 146.529Z" fill="#E11F53"/>
<path d="M216.13 130.126C218.054 125.775 221.706 122.423 226.206 120.879L268.023 106.546C274.196 104.426 281.037 106.009 285.65 110.627L286.201 111.179C290.412 115.38 292.133 121.469 290.744 127.252C289.356 133.036 285.058 137.68 279.399 139.511L237.05 153.312C230.632 155.402 223.585 153.521 219.063 148.509C214.542 143.498 213.393 136.296 216.13 130.126Z" fill="#E11F53"/>
<path d="M252.604 159.361L251.836 159.617C244.684 162.097 239.775 168.697 239.457 176.26C239.139 183.824 243.477 190.813 250.396 193.883L326.048 227.401C333.005 230.495 341.15 228.981 346.532 223.596C350.82 219.319 352.732 213.208 351.645 207.251C350.559 201.294 346.613 196.251 341.091 193.764L266.169 159.991C261.894 158.059 257.041 157.833 252.604 159.361Z" fill="#4C8BF5"/>
<path d="M269.46 216.184C273.811 218.113 277.167 221.761 278.727 226.259L293.06 268.017C295.171 274.19 293.588 281.026 288.979 285.644L288.427 286.196C284.229 290.378 278.164 292.087 272.401 290.713C266.636 289.339 261.995 285.078 260.134 279.452L246.333 237.103C244.261 230.7 246.138 223.677 251.129 219.162C256.121 214.647 263.296 213.481 269.46 216.184Z" fill="#4C8BF5"/>
<path d="M239.414 252.62L239.158 251.872C236.668 244.742 230.083 239.853 222.539 239.532C214.995 239.21 208.018 243.522 204.93 250.412L171.413 326.064C168.321 333.027 169.834 341.176 175.218 346.568C179.501 350.846 185.611 352.748 191.565 351.658C197.52 350.568 202.559 346.624 205.049 341.107L238.822 266.185C240.742 261.905 240.954 257.052 239.414 252.62Z" fill="#43C6AC"/>
<path d="M182.591 269.442C180.665 273.799 177.005 277.152 172.496 278.689L130.698 293.023C124.49 295.182 117.594 293.597 112.953 288.941L112.421 288.389C108.252 284.175 106.567 278.1 107.97 272.34C109.372 266.581 113.662 261.962 119.302 260.136L161.652 246.335C168.05 244.277 175.061 246.154 179.574 251.135C184.088 256.115 185.268 263.277 182.591 269.442Z" fill="#43C6AC"/>
<path d="M146.531 239.925L147.3 239.669C154.469 237.205 159.396 230.6 159.714 223.026C160.032 215.453 155.676 208.459 148.74 205.402L73.0886 171.885C66.1236 168.795 57.9744 170.325 52.6036 175.729C48.3259 180.012 46.4235 186.122 47.5136 192.077C48.6037 198.03 52.5474 203.071 58.0649 205.559L132.986 239.314C137.259 241.234 142.103 241.453 146.531 239.925Z" fill="#F8B233"/>
<path d="M129.339 183.695C125.015 181.753 121.688 178.105 120.151 173.62L105.759 131.822C103.603 125.614 105.189 118.72 109.84 114.077L110.392 113.525C114.601 109.327 120.688 107.614 126.469 109.001C132.25 110.388 136.897 114.676 138.744 120.327L152.545 162.678C154.696 169.113 152.838 176.212 147.808 180.767C142.779 185.322 135.531 186.471 129.339 183.695Z" fill="#F8B233"/>
</svg>
