<svg width="1080" height="1080" viewBox="0 0 1080 1080" fill="none" xmlns="http://www.w3.org/2000/svg">
<rect width="1080" height="1080" rx="540" fill="white"/>
<path d="M409.776 465.289C380.962 448.15 358.322 461.893 358.322 494.69V765.691C358.322 770.54 363.033 773.992 367.656 772.533L432.575 752.036C437.056 750.621 440.102 746.599 440.096 741.898C440.042 700.455 439.79 506.637 439.79 493.706C439.79 493.706 429.081 480.844 426.877 478.639C418.984 470.03 409.776 465.289 409.776 465.289Z" fill="url(#paint0_linear_944_35424)"/>
<path d="M514.789 192.031C508.583 188.51 501.299 187.719 494.439 189.682C466.054 197.804 422.848 210.56 422.848 210.56L337.582 234.399C320.186 239.286 289.877 247.824 271.334 253.201C265.267 254.961 264.293 263.13 269.764 266.289L460.881 376.678C502.45 403.401 559.758 467.108 563.471 547.116C563.471 660.242 563.748 840.92 563.818 884.715C563.825 889.57 568.555 892.998 573.178 891.516L638.073 870.737C642.536 869.308 645.562 865.289 645.553 860.603C645.476 820.354 645.125 632.399 645.125 519.649C645.125 445.863 573.715 367.472 542.536 352.328C520.854 339.92 479.329 315.879 439.251 292.703C438.151 292.068 436.976 291.518 436.019 290.834C422.1 280.896 423.27 266.21 439.438 256.876C456.337 247.118 483.886 246.597 501.085 255.813C501.474 256.02 501.856 256.234 502.233 256.451C502.6 256.663 502.961 256.879 503.311 257.096C547.65 282.672 599.353 312.52 628.136 329.223C669.707 355.948 727.202 419.613 730.913 499.622C730.913 612.963 731.415 793.304 731.541 836.459C731.554 841.226 736.126 844.645 740.705 843.322L805.223 824.689C809.837 823.357 813.009 819.264 813 814.463C812.921 773.542 812.569 584.731 812.569 472.156C812.569 399.086 740.98 321.171 709.98 304.835C667.737 280.659 550.235 212.139 514.789 192.031Z" fill="url(#paint1_linear_944_35424)"/>
<defs>
<linearGradient id="paint0_linear_944_35424" x1="399.291" y1="241.592" x2="399.291" y2="818.822" gradientUnits="userSpaceOnUse">
<stop stop-color="#08F7DB"/>
<stop offset="1" stop-color="#0F81F0"/>
</linearGradient>
<linearGradient id="paint1_linear_944_35424" x1="540.097" y1="188.665" x2="540.097" y2="974.757" gradientUnits="userSpaceOnUse">
<stop stop-color="#08F7DB"/>
<stop offset="1" stop-color="#0F81F0"/>
</linearGradient>
</defs>
</svg>
