<svg width="118" height="213" viewBox="0 0 118 213" fill="none" xmlns="http://www.w3.org/2000/svg">
<path d="M80.7067 58.1386V69.0225L70.605 73.0386L47.1188 82.3562C46.9179 82.4323 46.7658 82.6351 46.7658 82.8614V139.885L36.6641 143.901V82.8614C36.6641 78.4688 39.3168 74.5795 43.3816 72.9625L70.605 62.1547L80.7067 58.1386Z" fill="#7EE900"/>
<path d="M112.703 50.4116C109.773 48.4163 106.061 48.0125 102.779 49.3252L80.7067 58.1396V68.9981L106.516 58.7208C106.592 58.6701 106.795 58.6194 107.021 58.7715C107.273 58.9217 107.273 59.1499 107.273 59.226V202.263C107.273 202.339 107.273 202.567 107.021 202.718C106.769 202.895 106.592 202.794 106.516 202.768L47.1188 178.525C46.9179 178.449 46.7658 178.246 46.7658 178.02V150.771L36.6641 154.786V178.02C36.6641 182.364 39.2641 186.228 43.2802 187.868L102.703 212.137C103.99 212.667 105.353 212.921 106.719 212.921C108.814 212.921 110.885 212.314 112.652 211.103C115.607 209.133 117.374 205.825 117.374 202.263V59.226C117.374 55.6897 115.633 52.3816 112.703 50.4116Z" fill="#7EE900"/>
<path d="M74.0708 25.0575L14.6737 0.789157C11.391 -0.550846 7.65381 -0.170499 4.72414 1.82488C1.76911 3.79295 0 7.10103 0 10.6627V153.702C0 157.236 1.74376 160.544 4.67343 162.514C6.46595 163.727 8.53739 164.357 10.6576 164.357C11.9703 164.357 13.3103 164.106 14.5976 163.6L36.6697 154.786V143.928L10.8605 154.207C10.7844 154.256 10.5815 154.332 10.3299 154.156C10.1017 154.004 10.1017 153.776 10.1017 153.702V10.6627C10.1017 10.5866 10.1017 10.3603 10.3553 10.2082C10.4567 10.1321 10.5562 10.1068 10.6323 10.1068C10.7337 10.1068 10.8097 10.1321 10.8605 10.1575L70.2575 34.4024C70.4584 34.4765 70.6106 34.6793 70.6106 34.9056V62.1562L80.7123 58.1401V34.9056C80.7123 30.5638 78.1103 26.6998 74.0708 25.0575Z" fill="#7EE900"/>
<path d="M80.7067 69.025V130.064C80.7067 134.457 78.054 138.346 73.9637 139.963L46.7658 150.771L36.6641 154.787V143.903L46.7658 139.887L70.2519 130.57C70.4528 130.493 70.605 130.291 70.605 130.064V73.0411L80.7067 69.025Z" fill="#7EE900"/>
</svg>
