<svg width="500" height="500" viewBox="0 0 500 500" fill="none" xmlns="http://www.w3.org/2000/svg">
<path d="M357.488 136.344C352.234 132.783 345.522 132.051 339.587 134.393L295.275 152.101V110.879C295.275 101.513 289.681 93.1219 281.023 89.5607L166.617 42.7283C159.515 39.8013 151.49 40.6306 145.166 44.9236C138.794 49.2166 135 56.339 135 64.0468V340.407C135 348.066 138.745 355.139 145.069 359.432C148.912 362.067 153.435 363.384 157.959 363.384C160.829 363.384 163.699 362.847 166.471 361.725L205.677 346.066V389.825C205.677 397.679 210.346 404.704 217.642 407.68L339.539 457.585C341.874 458.561 344.354 459 346.786 459C350.532 459 354.277 457.878 357.488 455.732C362.79 452.122 366 446.17 366 439.73V152.297C366 145.906 362.838 139.954 357.585 136.344H357.488ZM159.321 338.358V66.0957L271.003 111.806V161.858L220.123 182.103C211.319 185.616 205.628 194.007 205.628 203.471V319.771L159.321 338.309V338.358ZM271.003 188.153V293.769L229.997 310.112V204.495L271.003 188.153ZM341.63 432.12L229.949 386.41V336.358L283.163 315.137C290.508 312.21 295.275 305.185 295.275 297.233V178.396L341.582 159.858V432.12H341.63Z" fill="#7EE900"/>
</svg>
