<svg width="1231" height="1231" viewBox="0 0 1231 1231" fill="none" xmlns="http://www.w3.org/2000/svg">
<path opacity="0.997" fill-rule="evenodd" clip-rule="evenodd" d="M581.225 0.5C604.075 0.5 626.925 0.5 649.775 0.5C821.986 13.0149 966.107 84.0149 1082.14 213.5C1171.39 318.669 1220.84 441.003 1230.5 580.5C1230.5 603.5 1230.5 626.5 1230.5 649.5C1216.15 831.329 1140.09 979.495 1002.32 1094C893.571 1179.97 770.179 1225.47 632.148 1230.5C621.05 1230.5 609.95 1230.5 598.852 1230.5C414.784 1222.26 262.177 1147.93 141.029 1007.5C56.5543 903.921 9.71115 784.588 0.5 649.5C0.5 626.833 0.5 604.167 0.5 581.5C12.4327 416.977 77.0664 278.477 194.401 166C304.323 65.6078 433.264 10.4411 581.225 0.5Z" fill="#0390FF"/>
<path fill-rule="evenodd" clip-rule="evenodd" d="M584.162 35.5004C746.068 29.4427 887.74 80.276 1009.18 188C1153.63 326.131 1214.18 495.964 1190.84 697.5C1165.22 855.844 1089.98 983.011 965.11 1079C826.072 1179.29 672.322 1214.62 503.86 1185C338.475 1149.88 210.023 1060.38 118.506 916.5C41.082 784.781 17.2524 643.448 47.0168 492.5C78.9756 355.651 148.995 244.151 257.076 158C353.795 83.4625 462.823 42.6292 584.162 35.5004Z" fill="#FEFEFF"/>
<path fill-rule="evenodd" clip-rule="evenodd" d="M592.976 75.5001C681.852 72.6833 766.397 90.5166 846.615 129C843.326 136.736 840.226 144.57 837.311 152.5C836.84 154.478 835.699 155.811 833.884 156.5C686.393 90.874 539.172 91.2073 392.22 157.5C388.397 147.952 384.479 138.452 380.468 129C447.806 96.2262 518.642 78.3928 592.976 75.5001Z" fill="#0991FF"/>
<path fill-rule="evenodd" clip-rule="evenodd" d="M311.917 165.5C318.253 173.841 324.129 182.674 329.544 192C274.409 232.63 228.382 281.964 191.463 340C190.484 340.667 189.505 340.667 188.525 340C181.188 334.42 173.68 329.087 166.001 324C181.806 296.855 200.251 271.688 221.332 248.5C249.382 218.004 279.577 190.337 311.917 165.5Z" fill="#0A91FF"/>
<path fill-rule="evenodd" clip-rule="evenodd" d="M905.372 166.5C907.836 166.755 910.122 167.589 912.228 169C970.747 208.088 1020.36 256.754 1061.08 315C1053.61 320.819 1045.77 326.152 1037.58 331C1036.6 331.667 1035.62 331.667 1034.64 331C994.969 274.647 946.653 227.814 889.704 190.5C894.937 182.471 900.16 174.471 905.372 166.5Z" fill="#0A91FF"/>
<path fill-rule="evenodd" clip-rule="evenodd" d="M777.084 260.5C796.155 258.866 814.762 261.032 832.904 267C847.498 273.243 859.086 283.077 867.67 296.5C869.448 308.082 867.816 319.082 862.773 329.5C851.468 338.965 840.206 338.798 828.987 329C820.337 318.833 811.686 308.667 803.036 298.5C788.84 283.779 773.008 281.612 755.54 292C728.401 317.241 711.264 348.408 704.127 385.5C691.972 430.231 679.73 474.898 667.403 519.5C714.394 526.297 761.4 532.963 808.422 539.5C805.633 552.226 802.531 564.892 799.119 577.5C798.459 578.578 797.479 579.245 796.181 579.5C751.264 572.638 706.38 565.638 661.527 558.5C656.251 586.771 651.354 615.105 646.838 643.5C695.477 650.167 744.116 656.834 792.753 663.5C789.964 676.226 786.863 688.892 783.45 701.5C783.07 702.428 782.417 703.095 781.491 703.5C733.708 696.172 685.886 689.172 638.024 682.5C621.153 757.352 597.16 829.686 566.045 899.5C535.67 955.771 488.827 982.604 425.516 980C404.284 977.67 386.167 968.837 371.165 953.5C361.382 937.064 363.504 922.231 377.53 909C386.555 907.968 395.369 908.968 403.971 912C412.638 921.532 419.983 932.032 426.006 943.5C443.872 962.317 462.968 963.484 483.295 947C501.584 927.828 514.477 905.328 521.977 879.5C538.714 814.805 554.056 749.805 568.004 684.5C568.493 680.179 568.656 675.846 568.494 671.5C523.084 665.093 477.71 658.426 432.371 651.5C433.807 638.178 435.112 624.845 436.288 611.5C483.945 618.499 531.604 625.499 579.266 632.5C584.939 605.12 590.815 577.787 596.893 550.5C547.956 542.647 498.991 534.98 449.998 527.5C451.47 513.478 453.102 499.478 454.895 485.5C504.606 491.376 554.223 498.043 603.748 505.5C605.054 505.167 606.36 504.833 607.666 504.5C618.299 468.401 629.235 432.401 640.472 396.5C654.649 356.704 676.684 322.204 706.575 293C726.866 274.805 750.369 263.971 777.084 260.5Z" fill="#0590FF"/>
<path fill-rule="evenodd" clip-rule="evenodd" d="M128.788 377.5C138.765 380.597 148.231 384.764 157.188 390C89.4619 538.41 89.2986 686.91 156.698 835.5C157.178 836.793 157.342 838.127 157.188 839.5C148.294 842.871 139.48 846.538 130.747 850.5C124.673 840.758 119.614 830.424 115.568 819.5C65.6894 694.054 61.7722 567.054 103.816 438.5C111.104 417.662 119.428 397.329 128.788 377.5Z" fill="#0990FF"/>
<path fill-rule="evenodd" clip-rule="evenodd" d="M1094.38 377.5C1096.23 377.297 1097.7 377.963 1098.78 379.5C1161.3 513.454 1169.14 650.787 1122.29 791.5C1117.24 805.787 1111.69 819.787 1105.64 833.5C1103.03 839.493 1099.93 845.16 1096.34 850.5C1087.2 846.833 1078.39 842.666 1069.9 838C1137.69 688.543 1137.69 539.21 1069.9 390C1077.93 385.545 1086.09 381.378 1094.38 377.5Z" fill="#0991FF"/>
<path fill-rule="evenodd" clip-rule="evenodd" d="M1034.64 884.5C1043.59 889.286 1052.08 894.953 1060.1 901.5C1046.67 925.602 1030.84 947.935 1012.61 968.5C982.326 1002.43 949.355 1033.1 913.697 1060.5C908.718 1052 903.495 1043.66 898.028 1035.5C897.375 1034.5 897.375 1033.5 898.028 1032.5C941.982 999.952 980.505 961.618 1013.59 917.5C1021.23 906.869 1028.26 895.869 1034.64 884.5Z" fill="#0A91FF"/>
<path fill-rule="evenodd" clip-rule="evenodd" d="M190.484 900.5C192.316 900.859 193.785 901.859 194.891 903.5C233.912 959.351 281.734 1005.52 338.358 1042C332.569 1049.82 327.019 1057.82 321.71 1066C313.904 1062.51 306.396 1058.17 299.186 1053C247.793 1015.02 203.398 969.854 166.001 917.5C174.021 911.576 182.181 905.909 190.484 900.5Z" fill="#0A91FF"/>
<path fill-rule="evenodd" clip-rule="evenodd" d="M391.241 1070.5C539.08 1137.15 686.954 1137.15 834.863 1070.5C838.963 1079.72 842.88 1089.05 846.615 1098.5C777.698 1132.51 704.902 1150.34 628.231 1152C541.365 1154.48 458.778 1136.81 380.468 1099C384.471 1089.66 388.061 1080.16 391.241 1070.5Z" fill="#0991FF"/>
</svg>
