<?xml version='1.0' encoding='utf-8'?>
<svg xmlns="http://www.w3.org/2000/svg" width="73.0" height="73.0" viewBox="0 0 73.0 73.0" fill="none">
<rect width="73.0" height="73.0" fill="none" /><path d="M36.3082 0.965927V0.99102L36.2831 0.965927H26.1708C25.2298 0.965927 24.6527 1.99473 25.1545 2.79769L35.2794 21.4918C35.7437 22.2445 36.8477 22.2445 37.3245 21.4918L47.349 2.79769C47.8383 1.99473 47.2612 0.965927 46.3328 0.965927H36.3208H36.3082Z" fill="#F67327" transform="translate(0.0,1.0)" />
<path d="M0.939951 0.727676H13.8878C14.2265 0.727676 14.5402 0.915872 14.6908 1.21698L35.4424 40.4118C35.7812 41.0516 36.7096 41.0516 37.0483 40.4118L57.7875 1.21698C57.9506 0.915872 58.2517 0.727676 58.5904 0.727676H71.5383C72.2283 0.727676 72.6674 1.45536 72.3412 2.07014L37.0358 67.9761C36.697 68.616 35.7812 68.616 35.4299 67.9761L0.136985 2.07014C-0.189221 1.46791 0.249902 0.727676 0.939951 0.727676Z" fill="white" transform="translate(0.0,1.0)" />
</svg>