<?xml version="1.0" encoding="UTF-8"?>
<svg version="1.1" xmlns="http://www.w3.org/2000/svg" width="256" height="256">
<path d="M0 0 C84.48 0 168.96 0 256 0 C256 84.48 256 168.96 256 256 C171.52 256 87.04 256 0 256 C0 171.52 0 87.04 0 0 Z " fill="#FEFEFD" transform="translate(0,0)"/>
<path d="M0 0 C0.33 0.66 0.66 1.32 1 2 C1.99 2.53625 2.98 3.0725 4 3.625 C8.04727055 5.85058666 11.21457606 8.74543694 14.609375 11.8515625 C20.60381288 17.23872073 27.02572332 22.1209663 33.6015625 26.7734375 C34.06304687 27.17820313 34.52453125 27.58296875 35 28 C35 28.66 35 29.32 35 30 C35.54914063 30.06574219 36.09828125 30.13148437 36.6640625 30.19921875 C39.98257059 31.3368344 41.850743 33.3978396 44.375 35.8125 C48.06476748 39.33077124 51.73904747 42.20913352 56 45 C57.36017211 46.15666151 58.69480393 47.34414157 60 48.5625 C63.91800249 52.10862429 67.96974742 55.42714856 72.125 58.6875 C72.69863281 59.13875244 73.27226562 59.59000488 73.86328125 60.05493164 C74.42660156 60.49442139 74.98992187 60.93391113 75.5703125 61.38671875 C76.1262207 61.82161621 76.68212891 62.25651367 77.25488281 62.70458984 C78.466799 63.60420195 79.71494281 64.45619324 80.98730469 65.26806641 C85.79596525 68.3662557 85.79596525 68.3662557 86.7734375 71.40234375 C85.64377757 75.19640361 83.25105832 77.70994415 80.625 80.5625 C76.2470572 85.38779933 76.2470572 85.38779933 73 91 C72.236875 91.7425 71.47375 92.485 70.6875 93.25 C68.46068203 95.52860443 67.09837304 97.31755692 65.5 100 C62.51017367 104.96742305 59.28841714 108.51790993 54 111 C45.37356789 104.63860872 36.94932441 98.0543003 28.62548828 91.30224609 C27.12346865 90.09891585 25.59213861 88.93241852 24.05859375 87.76953125 C23.37925781 87.18558594 22.69992188 86.60164063 22 86 C22 85.34 22 84.68 22 84 C20.91912109 83.62875 20.91912109 83.62875 19.81640625 83.25 C16.69576323 81.8649712 14.54350853 80.20115351 11.9375 78 C10.9784375 77.19691406 10.019375 76.39382812 9.03125 75.56640625 C7.53078125 74.29603516 7.53078125 74.29603516 6 73 C3.98044765 71.31096717 1.95961477 69.62346425 -0.0625 67.9375 C-1.0525 67.10992187 -2.0425 66.28234375 -3.0625 65.4296875 C-6.64783198 62.46416025 -10.28435357 59.56780729 -13.94140625 56.69140625 C-16 55 -16 55 -17.58984375 53.33984375 C-19.074522 51.73948929 -19.074522 51.73948929 -22 51 C-22 50.34 -22 49.68 -22 49 C-22.95712891 48.80083984 -22.95712891 48.80083984 -23.93359375 48.59765625 C-24.75988281 48.42105469 -25.58617187 48.24445313 -26.4375 48.0625 C-27.26121094 47.88847656 -28.08492188 47.71445313 -28.93359375 47.53515625 C-31 47 -31 47 -32 46 C-41.7108625 44.8964929 -47.60205006 46.95153755 -55.25 52.6875 C-61.59517334 61.07219334 -63.17218813 68.52512735 -62 79 C-61.27666987 81.96656912 -60.33859696 84.21983709 -59 87 C-58.690625 87.78375 -58.38125 88.5675 -58.0625 89.375 C-57.12240386 91.1239792 -57.12240386 91.1239792 -55.3046875 91.79296875 C-52.19960497 93.41918994 -49.69774403 95.65756977 -47.0625 97.9375 C-43.54246565 100.979341 -40.05119796 103.68602244 -36 106 C-33.4020756 107.9484433 -31.06594005 109.93312958 -28.78515625 112.24609375 C-25.61870297 115.3770188 -22.31568707 118.28935223 -18.9375 121.1875 C-18.02000977 121.98704102 -18.02000977 121.98704102 -17.08398438 122.80273438 C-16.48779297 123.31513672 -15.89160156 123.82753906 -15.27734375 124.35546875 C-14.74359131 124.81590576 -14.20983887 125.27634277 -13.65991211 125.75073242 C-11.86345108 127.10276817 -10.03518547 128.05367889 -8 129 C-8 129.66 -8 130.32 -8 131 C-7.195625 131.37125 -7.195625 131.37125 -6.375 131.75 C-3.4176018 133.30652537 -0.70275949 135.03435673 2 137 C2 137.66 2 138.32 2 139 C3.36125 139.37125 3.36125 139.37125 4.75 139.75 C8.12496123 141.04806201 9.74102121 142.21971841 12 145 C12 145.66 12 146.32 12 147 C12.5775 147.2475 13.155 147.495 13.75 147.75 C16.38288682 149.2127149 18.12450669 150.63826769 20 153 C19.80024375 157.26146659 16.67241082 160.07399765 14 163.125 C10.65982225 166.82486697 10.65982225 166.82486697 8 171 C7.34 171 6.68 171 6 171 C5.7525 171.94875 5.505 172.8975 5.25 173.875 C3.82576013 177.43559968 3.28284113 177.51742659 0 179 C-0.12246094 179.58265625 -0.24492187 180.1653125 -0.37109375 180.765625 C-1.22229996 183.78978618 -2.86422551 185.34429796 -5 187.625 C-7.83496105 190.58030757 -7.83496105 190.58030757 -10 194 C-13.61129538 193.39126228 -15.7278777 191.89845341 -18.5625 189.625 C-19.70912109 188.71621094 -19.70912109 188.71621094 -20.87890625 187.7890625 C-23 186 -23 186 -24.3984375 184.5625 C-26.7620321 182.25655405 -29.42501774 180.3519643 -32.0625 178.375 C-37.22255479 174.46952692 -42.06968937 170.35548143 -46.78125 165.91015625 C-48.98605201 163.8961165 -48.98605201 163.8961165 -51.78125 162.37109375 C-52.5134375 161.91863281 -53.245625 161.46617187 -54 161 C-54 160.34 -54 159.68 -54 159 C-54.52464844 158.77183594 -55.04929687 158.54367188 -55.58984375 158.30859375 C-58.83073011 156.54895529 -61.66289654 154.32282081 -64.5625 152.0625 C-65.13935547 151.61970703 -65.71621094 151.17691406 -66.31054688 150.72070312 C-72.15994402 146.19366104 -72.15994402 146.19366104 -74 144 C-74 143.34 -74 142.68 -74 142 C-74.8353125 141.5978125 -74.8353125 141.5978125 -75.6875 141.1875 C-80.54242758 138.69442908 -84.63914889 135.77246148 -88.8125 132.25 C-89.60515259 131.58303101 -89.60515259 131.58303101 -90.41381836 130.90258789 C-93.32492563 128.44582811 -96.20609836 125.95750723 -99.0625 123.4375 C-109.04163897 114.58313709 -109.04163897 114.58313709 -120.1484375 107.265625 C-122.75110741 105.48658481 -124.78267482 103.23703473 -127 101 C-128.91767024 99.37218005 -130.85522043 97.76747267 -132.8125 96.1875 C-134.27623047 95.00220703 -134.27623047 95.00220703 -135.76953125 93.79296875 C-136.50558594 93.20128906 -137.24164063 92.60960937 -138 92 C-137.21953642 86.85244809 -135.54435289 84.71724815 -132 81 C-131.34 81 -130.68 81 -130 81 C-129.34 79.68 -128.68 78.36 -128 77 C-127.34 77 -126.68 77 -126 77 C-125.74734375 76.27425781 -125.4946875 75.54851562 -125.234375 74.80078125 C-123.91023671 71.79632823 -122.34833488 69.70468855 -120.25 67.1875 C-117.11979659 63.39950023 -114.19603311 59.55126016 -111.421875 55.49609375 C-109.62607826 53.60656036 -108.60630725 53.11846851 -106 53 C-104.140625 54.22265625 -104.140625 54.22265625 -102.25 56.0625 C-99.54895257 58.58782873 -96.857179 60.93692613 -93.875 63.125 C-90.46841669 65.62944465 -87.22135585 68.26184753 -84 71 C-84.39832031 70.05640625 -84.39832031 70.05640625 -84.8046875 69.09375 C-90.88490668 54.35920425 -92.15963194 40.87583826 -86.1328125 25.8359375 C-85.45290216 24.21062802 -84.73165849 22.60268051 -84 21 C-83.34 21 -82.68 21 -82 21 C-81.92007813 20.28714844 -81.84015625 19.57429688 -81.7578125 18.83984375 C-79.39482183 9.98471891 -69.88572164 2.01785659 -62.26171875 -2.69140625 C-54.71418213 -7 -54.71418213 -7 -50 -7 C-50 -7.66 -50 -8.32 -50 -9 C-32.12806791 -12.51765012 -15.55200748 -9.20696591 0 0 Z " fill="#CAFC05" transform="translate(154,37)"/>
<path d="M0 0 C3.57628134 1.91289467 5.23939355 4.21998866 7.6875 7.4375 C4.7155615 6.31298273 2.35309313 5.21456209 -0.3125 3.4375 C-0.3125 2.7775 -0.3125 2.1175 -0.3125 1.4375 C-0.9725 1.4375 -1.6325 1.4375 -2.3125 1.4375 C-2.580625 1.994375 -2.84875 2.55125 -3.125 3.125 C-5.36859803 7.49411195 -7.57262849 11.18019255 -11.3125 14.4375 C-11.9725 14.4375 -12.6325 14.4375 -13.3125 14.4375 C-12.9825 16.0875 -12.6525 17.7375 -12.3125 19.4375 C-11.6525 19.4375 -10.9925 19.4375 -10.3125 19.4375 C-10.3125 20.0975 -10.3125 20.7575 -10.3125 21.4375 C-11.3025 21.4375 -12.2925 21.4375 -13.3125 21.4375 C-13.6425 20.7775 -13.9725 20.1175 -14.3125 19.4375 C-15.9625 20.0975 -17.6125 20.7575 -19.3125 21.4375 C-17.89282866 18.34762708 -16.18194424 15.84157883 -14.0625 13.1875 C-11.14425677 9.50771105 -8.3288053 5.77234349 -5.57421875 1.96875 C-3.6932131 -0.31408039 -2.90913043 -0.70762632 0 0 Z " fill="#D2F83B" transform="translate(48.3125,90.5625)"/>
<path d="M0 0 C2.04159095 -0.0272616 4.08328963 -0.04651345 6.125 -0.0625 C7.26195313 -0.07410156 8.39890625 -0.08570312 9.5703125 -0.09765625 C12.8129156 -0.005327 15.81932612 0.38610094 19 1 C19 1.66 19 2.32 19 3 C19.804375 3.1546875 19.804375 3.1546875 20.625 3.3125 C23.62502044 4.18092697 26.2379535 5.55620296 29 7 C28.67 7.66 28.34 8.32 28 9 C27.01 8.67 26.02 8.34 25 8 C25 7.34 25 6.68 25 6 C24.36191406 5.86722656 23.72382813 5.73445313 23.06640625 5.59765625 C21.82697266 5.33275391 21.82697266 5.33275391 20.5625 5.0625 C19.73878906 4.88847656 18.91507813 4.71445313 18.06640625 4.53515625 C16 4 16 4 15 3 C8.77117843 2.58345361 2.79843469 2.42291791 -3 5 C-3 4.01 -3 3.02 -3 2 C-2.01 2 -1.02 2 0 2 C0 1.34 0 0.68 0 0 Z " fill="#D2F73C" transform="translate(107,80)"/>
<path d="M0 0 C0.98291016 0.00966797 1.96582031 0.01933594 2.97851562 0.02929688 C4.00267578 0.05443359 5.02683594 0.07957031 6.08203125 0.10546875 C7.11779297 0.11900391 8.15355469 0.13253906 9.22070312 0.14648438 C11.77916824 0.18185486 14.33658905 0.23121331 16.89453125 0.29296875 C16.89453125 0.95296875 16.89453125 1.61296875 16.89453125 2.29296875 C18.07015625 2.47859375 18.07015625 2.47859375 19.26953125 2.66796875 C21.89453125 3.29296875 21.89453125 3.29296875 23.89453125 5.29296875 C17.89453125 4.29296875 17.89453125 4.29296875 15.33203125 3.76171875 C10.71287667 3.13183403 6.17469262 3.18730392 1.51953125 3.23046875 C0.12927734 3.23723633 0.12927734 3.23723633 -1.2890625 3.24414062 C-3.56126584 3.25585301 -5.83333263 3.27225503 -8.10546875 3.29296875 C-5.60795648 0.15933179 -3.93251113 -0.06819383 0 0 Z " fill="#F7FEC3" transform="translate(116.10546875,24.70703125)"/>
<path d="M0 0 C3 1 3 1 4.1875 3.25 C4.99938294 5.99791147 5.16260121 8.15447889 5 11 C2.36 11 -0.28 11 -3 11 C-3.33 10.01 -3.66 9.02 -4 8 C-4.99 7.67 -5.98 7.34 -7 7 C-7.33 5.35 -7.66 3.7 -8 2 C-6.7260098 2.76560456 -5.45593488 3.53772626 -4.1875 4.3125 C-3.12595703 4.95638672 -3.12595703 4.95638672 -2.04296875 5.61328125 C0 7 0 7 3 10 C2.01 6.7 1.02 3.4 0 0 Z " fill="#CEF62A" transform="translate(67,98)"/>
<path d="M0 0 C1.05128687 3.23529832 0.91901775 5.39722097 0.125 8.6875 C-0.05804688 9.47511719 -0.24109375 10.26273438 -0.4296875 11.07421875 C-1 13 -1 13 -2 14 C-2.09908783 15.78940972 -2.12970379 17.58285508 -2.125 19.375 C-2.12757812 20.35210937 -2.13015625 21.32921875 -2.1328125 22.3359375 C-2.11434035 25.10464416 -2.11434035 25.10464416 -1 28 C-0.96045766 30.33299825 -0.95598268 32.66708189 -1 35 C-1.33 35 -1.66 35 -2 35 C-5.71473106 23.62363612 -5.39171384 10.78342769 0 0 Z " fill="#D2F644" transform="translate(68,63)"/>
<path d="M0 0 C0 3.92132374 -1.70195866 6.32218209 -3.6875 9.5625 C-4.02716797 10.15224609 -4.36683594 10.74199219 -4.71679688 11.34960938 C-6.98998676 15.08443911 -8.75017841 16.86125621 -13 18 C-11.46457536 13.52167812 -9.39145948 9.19572974 -5 7 C-3.98133771 5.34467377 -2.98189187 3.67739862 -2 2 C-1.34 1.34 -0.68 0.68 0 0 Z " fill="#F2FCBA" transform="translate(232,120)"/>
<path d="M0 0 C0.375 3.25 0.375 3.25 0 7 C-2.875 9.25 -2.875 9.25 -6 11 C-6.99 12.485 -6.99 12.485 -8 14 C-8.66 14 -9.32 14 -10 14 C-10 13.34 -10 12.68 -10 12 C-9.34 12 -8.68 12 -8 12 C-7.95875 11.319375 -7.9175 10.63875 -7.875 9.9375 C-7.02052422 7.06890273 -3.57421111 0 0 0 Z " fill="#CFF82D" transform="translate(80,46)"/>
<path d="M0 0 C2.475 0.99 2.475 0.99 5 2 C5.3125 4.1875 5.3125 4.1875 5 7 C2.5 9.8125 2.5 9.8125 0 12 C0 10.02 0 8.04 0 6 C-0.66 6 -1.32 6 -2 6 C-2 5.34 -2 4.68 -2 4 C-1.34 4 -0.68 4 0 4 C0 2.68 0 1.36 0 0 Z " fill="#CCF71E" transform="translate(235,104)"/>
<path d="M0 0 C0.66 0.33 1.32 0.66 2 1 C1.34 2.65 0.68 4.3 0 6 C1.65 6 3.3 6 5 6 C4.67 7.65 4.34 9.3 4 11 C0.09120039 9.34627709 -2.76211625 6.69823646 -6 4 C-8.21587348 2.72147713 -8.21587348 2.72147713 -10 2 C-9.34 1.67 -8.68 1.34 -8 1 C-6.31923769 1.63028587 -4.65204456 2.29788106 -3 3 C-2.34 3 -1.68 3 -1 3 C-0.67 2.01 -0.34 1.02 0 0 Z " fill="#F4FEC9" transform="translate(164,37)"/>
<path d="M0 0 C2.9375 1.3125 2.9375 1.3125 6 3 C6.33 3.99 6.66 4.98 7 6 C7.928125 6.28875 8.85625 6.5775 9.8125 6.875 C13.56530658 8.19951997 14.78868745 9.76808166 17 13 C15.5164999 12.57742724 14.03823576 12.13643678 12.5625 11.6875 C11.73878906 11.44386719 10.91507813 11.20023438 10.06640625 10.94921875 C9.38449219 10.63597656 8.70257813 10.32273438 8 10 C7.67 9.01 7.34 8.02 7 7 C6.01 6.67 5.02 6.34 4 6 C4 5.34 4 4.68 4 4 C2.68 3.67 1.36 3.34 0 3 C0 2.01 0 1.02 0 0 Z " fill="#D7F84B" transform="translate(149,170)"/>
<path d="M0 0 C1.06965312 3.5714038 1.23890176 7.03742888 1.4375 10.75 C1.78337506 16.09432758 2.46372929 20.87909762 4 26 C0.86397181 23.43415875 0.05440555 20.86011987 -1 17 C-1.23046875 13.45703125 -1.23046875 13.45703125 -1.1875 9.8125 C-1.17783203 7.99685547 -1.17783203 7.99685547 -1.16796875 6.14453125 C-1 3 -1 3 0 0 Z " fill="#F5FEBF" transform="translate(92,99)"/>
<path d="M0 0 C1.98 0.66 3.96 1.32 6 2 C5.50769231 9.38461538 5.50769231 9.38461538 2.9375 12.5 C2.298125 12.995 1.65875 13.49 1 14 C0.01 13.67 -0.98 13.34 -2 13 C-1.154375 12.0925 -0.30875 11.185 0.5625 10.25 C2.65442541 7.86863224 2.65442541 7.86863224 2.9375 4.8125 C1.91257504 2.74922841 1.91257504 2.74922841 0 0 Z " fill="#F3FEBF" transform="translate(170,186)"/>
<path d="M0 0 C4.78775956 3.53613714 9.46451416 7.14483704 14 11 C11 12 11 12 8 12 C7.6596875 10.824375 7.6596875 10.824375 7.3125 9.625 C6.25064593 6.76777147 6.25064593 6.76777147 3.4375 6 C2.633125 5.67 1.82875 5.34 1 5 C0.1875 2.375 0.1875 2.375 0 0 Z " fill="#FAFED7" transform="translate(153,104)"/>
<path d="M0 0 C0.53625 0.350625 1.0725 0.70125 1.625 1.0625 C4.73103527 2.28856655 6.77295161 1.63137903 10 1 C10.66 1.33 11.32 1.66 12 2 C12 2.66 12 3.32 12 4 C11.01 4.33 10.02 4.66 9 5 C11.475 6.98 11.475 6.98 14 9 C13.67 9.66 13.34 10.32 13 11 C11.01712504 9.54648985 9.03870613 8.08752713 7.0625 6.625 C6.49853516 6.2125 5.93457031 5.8 5.35351562 5.375 C1.11328125 2.2265625 1.11328125 2.2265625 0 0 Z " fill="#D1F63C" transform="translate(176,122)"/>
<path d="M0 0 C1.31157516 2.62315032 0.89649988 4.23033436 0.5625 7.125 C0.46066406 8.03507813 0.35882812 8.94515625 0.25390625 9.8828125 C0.17011719 10.58148438 0.08632813 11.28015625 0 12 C-3.8671875 10.21875 -3.8671875 10.21875 -5.0625 8.25 C-4.9586362 4.51090325 -2.49204823 2.67439322 0 0 Z " fill="#D3F741" transform="translate(21,120)"/>
<path d="M0 0 C1.65 0.33 3.3 0.66 5 1 C4.68554487 3.33595238 4.3496418 5.66905466 4 8 C3.9175 8.7425 3.835 9.485 3.75 10.25 C2.36336822 13.48547416 -0.9934787 14.49673935 -4 16 C-2.88323912 13.48728801 -1.72986081 11.6807446 0.0625 9.5625 C2.06707735 6.91128479 2.62776506 5.25705571 3 2 C2.01 1.67 1.02 1.34 0 1 C0 0.67 0 0.34 0 0 Z " fill="#F0FBB2" transform="translate(237,104)"/>
<path d="M0 0 C3.44552193 1.14850731 4.49149722 2.41982571 7 5 C9.87752478 7.52919283 12.80826932 9.87217955 16 12 C13.69 11.67 11.38 11.34 9 11 C9 10.01 9 9.02 9 8 C5.86501708 6.14223235 3.62528568 5.79859524 0 6 C0 5.34 0 4.68 0 4 C0.66 4 1.32 4 2 4 C1.34 2.68 0.68 1.36 0 0 Z " fill="#F7FEC9" transform="translate(128,220)"/>
<path d="M0 0 C0 0.66 0 1.32 0 2 C-0.804375 2.45375 -1.60875 2.9075 -2.4375 3.375 C-5.1440849 4.70432964 -5.1440849 4.70432964 -5.625 7 C-5.74875 7.66 -5.8725 8.32 -6 9 C-7.4375 10.75 -7.4375 10.75 -9 12 C-9.66 12 -10.32 12 -11 12 C-11 12.66 -11 13.32 -11 14 C-11.66 14 -12.32 14 -13 14 C-12.35330586 12.65686601 -11.68096422 11.32608822 -11 10 C-10.38125 8.7934375 -10.38125 8.7934375 -9.75 7.5625 C-7.52517412 4.30471925 -4.21637691 0 0 0 Z " fill="#F6FEC2" transform="translate(106,85)"/>
<path d="M0 0 C1.11375 0.495 1.11375 0.495 2.25 1 C2.25 1.33 2.25 1.66 2.25 2 C-0.06 2 -2.37 2 -4.75 2 C-4.75 1.34 -4.75 0.68 -4.75 0 C-9.52287914 0.4792899 -9.52287914 0.4792899 -13.9375 2.1875 C-14.535625 2.455625 -15.13375 2.72375 -15.75 3 C-18 2.125 -18 2.125 -19.75 1 C-13.91241666 -2.51930862 -6.36034381 -1.69609168 0 0 Z " fill="#F7FECE" transform="translate(125.75,83)"/>
<path d="M0 0 C0.99 0 1.98 0 3 0 C2.51035207 2.54616926 1.84914295 4.25142841 0.5 6.5 C-1.66197274 11.54460305 -1.74482572 16.56214802 -2 22 C-2.33 22 -2.66 22 -3 22 C-3.33608711 13.94635715 -3.0517291 7.50216736 0 0 Z " fill="#D5F655" transform="translate(93,92)"/>
<path d="M0 0 C3.37321275 2.05683704 5.17362434 4.42283485 7.5625 7.5625 C4.5905615 6.43798273 2.22809313 5.33956209 -0.4375 3.5625 C-0.4375 2.9025 -0.4375 2.2425 -0.4375 1.5625 C-4.49774321 3.60052135 -4.49774321 3.60052135 -6.4375 7.5625 C-7.0975 7.5625 -7.7575 7.5625 -8.4375 7.5625 C-7.51928464 4.73133598 -6.67092141 2.81201943 -4.625 0.625 C-2.4375 -0.4375 -2.4375 -0.4375 0 0 Z " fill="#DAF661" transform="translate(48.4375,90.4375)"/>
<path d="M0 0 C1.32 0 2.64 0 4 0 C3.34 1.65 2.68 3.3 2 5 C1.34 5 0.68 5 0 5 C-0.2475 5.94875 -0.495 6.8975 -0.75 7.875 C-2 11 -2 11 -4.125 12.375 C-4.74375 12.58125 -5.3625 12.7875 -6 13 C-5.01 10.69 -4.02 8.38 -3 6 C-2.34 6 -1.68 6 -1 6 C-1.020625 5.195625 -1.04125 4.39125 -1.0625 3.5625 C-1 1 -1 1 0 0 Z " fill="#D0F836" transform="translate(160,203)"/>
<path d="M0 0 C0.33 0.66 0.66 1.32 1 2 C0.34 2 -0.32 2 -1 2 C-1.103125 2.66 -1.20625 3.32 -1.3125 4 C-2.52978808 9.31180252 -4.56690902 14.13381805 -7 19 C-6.67 15.37 -6.34 11.74 -6 8 C-5.34 8 -4.68 8 -4 8 C-4 6.35 -4 4.7 -4 3 C-3.34 3 -2.68 3 -2 3 C-2 2.34 -2 1.68 -2 1 C-1.34 0.67 -0.68 0.34 0 0 Z " fill="#F2FDBA" transform="translate(71,56)"/>
<path d="M0 0 C3.58719576 5.38079365 5.18132788 11.61435743 6 18 C5.01 17.67 4.02 17.34 3 17 C2.814375 15.4221875 2.814375 15.4221875 2.625 13.8125 C2.16523147 10.13109695 2.16523147 10.13109695 0.9375 7.375 C-0.09752133 4.75294596 -0.15959779 2.79296141 0 0 Z " fill="#F0FDAB" transform="translate(64,90)"/>
<path d="M0 0 C0.99 0.33 1.98 0.66 3 1 C1.69118353 2.66956087 0.37785174 4.33558304 -0.9375 6 C-1.66839844 6.928125 -2.39929688 7.85625 -3.15234375 8.8125 C-3.76207031 9.534375 -4.37179688 10.25625 -5 11 C-5.33 11 -5.66 11 -6 11 C-6 9.35 -6 7.7 -6 6 C-5.01 5.67 -4.02 5.34 -3 5 C-3 4.01 -3 3.02 -3 2 C-2.01 1.34 -1.02 0.68 0 0 Z " fill="#FBFED1" transform="translate(79,42)"/>
<path d="M0 0 C2.86336051 -0.23861338 4.60734493 -0.20193689 7.1875 1.125 C9.5084683 3.52600169 10.14875108 5.80781657 11 9 C9.72689688 8.06558465 8.456612 7.12732889 7.1875 6.1875 C6.47980469 5.66542969 5.77210938 5.14335938 5.04296875 4.60546875 C3.21468607 3.16871123 1.60103312 1.68184237 0 0 Z " fill="#F5FEC5" transform="translate(213,85)"/>
<path d="M0 0 C2.64 0 5.28 0 8 0 C8 0.99 8 1.98 8 3 C8.62599617 4.68236471 9.28752268 6.3523962 10 8 C6.05205855 6.32971708 3.18203882 3.8204435 0 1 C0 0.67 0 0.34 0 0 Z " fill="#CFF72B" transform="translate(190,133)"/>
<path d="M0 0 C1.0725 0.70125 2.145 1.4025 3.25 2.125 C5.12515437 3.25826965 5.12515437 3.25826965 7 4 C9.33664149 3.45782232 9.33664149 3.45782232 11 2 C11.66 1.67 12.32 1.34 13 1 C12.34 2.65 11.68 4.3 11 6 C8.36 6 5.72 6 3 6 C2.67 4.68 2.34 3.36 2 2 C1.34 2 0.68 2 0 2 C0 1.34 0 0.68 0 0 Z " fill="#F6FEBA" transform="translate(201,143)"/>
<path d="M0 0 C0.33 0.99 0.66 1.98 1 3 C1.99 3.33 2.98 3.66 4 4 C5.1875 7.0625 5.1875 7.0625 6 10 C4.70391053 9.06862408 3.41328368 8.1296434 2.125 7.1875 C1.40570313 6.66542969 0.68640625 6.14335937 -0.0546875 5.60546875 C-2 4 -2 4 -4 1 C-2 0 -2 0 0 0 Z " fill="#CCF624" transform="translate(48,149)"/>
<path d="M0 0 C4.08963819 2.28538605 7.46362104 4.95706926 11 8 C8 9 8 9 5 8 C4.67 7.01 4.34 6.02 4 5 C3.01 4.67 2.02 4.34 1 4 C0.3125 1.9375 0.3125 1.9375 0 0 Z " fill="#F8FED0" transform="translate(102,199)"/>
<path d="M0 0 C3.25 0.0625 3.25 0.0625 7 1 C8.8544092 3.2231534 9.78559244 5.32830337 11 8 C2.65454545 3.98181818 2.65454545 3.98181818 0 0 Z " fill="#CFF62F" transform="translate(69,171)"/>
<path d="M0 0 C4.47200388 1.21963742 6.90144153 2.56945312 10 6 C10.66 6.33 11.32 6.66 12 7 C11.67 7.66 11.34 8.32 11 9 C9.34793553 8.07352464 7.7035003 7.13343426 6.0625 6.1875 C5.14597656 5.66542969 4.22945312 5.14335937 3.28515625 4.60546875 C1 3 1 3 0 0 Z " fill="#CEF436" transform="translate(31,140)"/>
<path d="M0 0 C4.51045941 2.46025059 8.18504423 5.60282037 12 9 C8.24633583 9 6.21284338 7.88579937 3 6 C2.67 5.01 2.34 4.02 2 3 C1.34 2.67 0.68 2.34 0 2 C0 1.34 0 0.68 0 0 Z " fill="#CCF432" transform="translate(218,90)"/>
<path d="M0 0 C3.81684226 1.55500981 6.19195732 4.03595495 9 7 C6.69 7 4.38 7 2 7 C1.34 4.69 0.68 2.38 0 0 Z " fill="#D8F953" transform="translate(114,141)"/>
<path d="M0 0 C1.31611677 0.95336021 2.62778961 1.91285774 3.9375 2.875 C4.66839844 3.40867188 5.39929687 3.94234375 6.15234375 4.4921875 C8 6 8 6 9 8 C7.68 7.67 6.36 7.34 5 7 C5 6.34 5 5.68 5 5 C3.35 4.67 1.7 4.34 0 4 C0 2.68 0 1.36 0 0 Z " fill="#F1FEAF" transform="translate(45,152)"/>
<path d="M0 0 C2.25 0.125 2.25 0.125 5 1 C7.3125 4.0625 7.3125 4.0625 9 7 C5.18315774 5.44499019 2.80804268 2.96404505 0 0 Z " fill="#F3FEB8" transform="translate(55,96)"/>
<path d="M0 0 C1.98 0.99 3.96 1.98 6 3 C1.25 7.875 1.25 7.875 -1 9 C-1 8.01 -1 7.02 -1 6 C-0.34 6 0.32 6 1 6 C0.67 4.02 0.34 2.04 0 0 Z " fill="#CDF91F" transform="translate(98,82)"/>
<path d="M0 0 C1.48285242 0.95262034 2.96118201 1.91228405 4.4375 2.875 C5.67306641 3.67550781 5.67306641 3.67550781 6.93359375 4.4921875 C9 6 9 6 10 8 C7.03 7.01 4.06 6.02 1 5 C0.67 3.35 0.34 1.7 0 0 Z " fill="#EDFDA0" transform="translate(35,144)"/>
<path d="M0 0 C2.31 0 4.62 0 7 0 C7 0.66 7 1.32 7 2 C5.37373596 3.38232443 3.7074998 4.71937515 2 6 C2 4.68 2 3.36 2 2 C1.34 2 0.68 2 0 2 C0 1.34 0 0.68 0 0 Z " fill="#F7FEDA" transform="translate(21,112)"/>
<path d="M0 0 C0.66 1.32 1.32 2.64 2 4 C2.66 4 3.32 4 4 4 C4 4.66 4 5.32 4 6 C3.01 6 2.02 6 1 6 C0.67 5.34 0.34 4.68 0 4 C-1.65 4.66 -3.3 5.32 -5 6 C-3.63016497 2.83884224 -3.0109362 2.0072908 0 0 Z " fill="#CDF825" transform="translate(34,106)"/>
<path d="M0 0 C5.75 2.625 5.75 2.625 8 6 C5.03 5.505 5.03 5.505 2 5 C2 4.34 2 3.68 2 3 C1.34 3 0.68 3 0 3 C0 2.01 0 1.02 0 0 Z " fill="#D0F72F" transform="translate(203,78)"/>
<path d="M0 0 C0.66 0.33 1.32 0.66 2 1 C0.84826645 3.46800047 -0.04783565 5.04783565 -2 7 C-3.32 6.67 -4.64 6.34 -6 6 C-4.02 4.02 -2.04 2.04 0 0 Z " fill="#D7F949" transform="translate(86,38)"/>
<path d="M0 0 C1.65 0 3.3 0 5 0 C5.66 1.98 6.32 3.96 7 6 C6.34 6 5.68 6 5 6 C5 5.34 5 4.68 5 4 C4.360625 3.71125 3.72125 3.4225 3.0625 3.125 C1 2 1 2 0 0 Z " fill="#CFF735" transform="translate(95,192)"/>
<path d="M0 0 C0.598125 0.20625 1.19625 0.4125 1.8125 0.625 C1.1525 1.945 0.4925 3.265 -0.1875 4.625 C-1.1775 4.625 -2.1675 4.625 -3.1875 4.625 C-3.8475 3.635 -4.5075 2.645 -5.1875 1.625 C-2.1875 -0.375 -2.1875 -0.375 0 0 Z " fill="#CEF72A" transform="translate(69.1875,165.375)"/>
<path d="M0 0 C0.33 0.66 0.66 1.32 1 2 C-0.65 3.98 -2.3 5.96 -4 8 C-4.66 7.34 -5.32 6.68 -6 6 C-6 5.01 -6 4.02 -6 3 C-4.35 3 -2.7 3 -1 3 C-0.67 2.01 -0.34 1.02 0 0 Z " fill="#D4F844" transform="translate(218,136)"/>
<path d="M0 0 C0 1.65 0 3.3 0 5 C-3.16115776 3.63016497 -3.9927092 3.0109362 -6 0 C-3.50907189 -1.24546405 -2.58919267 -0.7767578 0 0 Z " fill="#FAFEDE" transform="translate(198,67)"/>
<path d="M0 0 C0.6875 1.8125 0.6875 1.8125 1 4 C-0.4375 5.75 -0.4375 5.75 -2 7 C-2.99 6.67 -3.98 6.34 -5 6 C-4.34 5.01 -3.68 4.02 -3 3 C-2.34 3 -1.68 3 -1 3 C-0.67 2.01 -0.34 1.02 0 0 Z " fill="#F4FEBF" transform="translate(163,205)"/>
<path d="M0 0 C1.8125 0.125 1.8125 0.125 4 1 C5.75 4.0625 5.75 4.0625 7 7 C4.13302508 5.71480435 2.02392288 4.42870746 0 2 C0 1.34 0 0.68 0 0 Z " fill="#D3F847" transform="translate(80,179)"/>
<path d="M0 0 C2.64 1.65 5.28 3.3 8 5 C4 6 4 6 1 5 C0.67 3.35 0.34 1.7 0 0 Z " fill="#D3F742" transform="translate(59,100)"/>
<path d="M0 0 C2.475 0.495 2.475 0.495 5 1 C5 2.32 5 3.64 5 5 C4.01 5 3.02 5 2 5 C1.34 3.35 0.68 1.7 0 0 Z " fill="#FAFEEE" transform="translate(62,99)"/>
<path d="M0 0 C3.875 4.75 3.875 4.75 5 7 C1.63408134 5.55746343 -0.51047079 3.66735273 -3 1 C-2.01 0.67 -1.02 0.34 0 0 Z " fill="#D2F643" transform="translate(90,185)"/>
<path d="M0 0 C4.875 2.625 4.875 2.625 6 6 C4.02 5.34 2.04 4.68 0 4 C0 2.68 0 1.36 0 0 Z " fill="#F2FDA8" transform="translate(75,176)"/>
<path d="M0 0 C2 1 2 1 3.125 4.0625 C3.41375 5.031875 3.7025 6.00125 4 7 C3.34 7 2.68 7 2 7 C0.2856382 5.04072937 -1.38405168 3.04119788 -3 1 C-2.01 0.67 -1.02 0.34 0 0 Z " fill="#F5FEC2" transform="translate(187,60)"/>
<path d="M0 0 C2 3 2 3 2 6 C-0.97 5.505 -0.97 5.505 -4 5 C-4 4.34 -4 3.68 -4 3 C-2.68 3 -1.36 3 0 3 C0 2.01 0 1.02 0 0 Z " fill="#C8F910" transform="translate(84,42)"/>
</svg>
