<svg width="220" height="220" viewBox="0 0 220 220" fill="none" xmlns="http://www.w3.org/2000/svg">
<g clip-path="url(#clip0_627_1596)">
<path d="M135.674 51.7035C136.712 52.7173 137.682 53.7782 138.582 54.8627L138.397 54.6269C137.543 53.5896 136.62 52.623 135.674 51.7035ZM71.9242 65.0239L31.0247 114.133C17.4761 130.4 19.4149 154.896 35.3408 168.758C42.1728 174.723 50.8974 178 59.899 178C71.0471 178 81.572 173.025 88.7964 164.373L108 141.339L94.3358 124.978L72.9859 150.605C69.7084 154.518 64.9537 156.782 59.899 156.782C57.0369 156.782 52.767 156.051 48.797 152.609C45.3118 149.567 43.1883 145.324 42.8191 140.656C42.4498 135.988 43.8808 131.461 46.8582 127.901L72.8474 96.71C71.601 93.9045 70.6547 90.9575 70.0777 87.9398C69.893 86.926 69.7315 85.9122 69.593 84.8985C69.5237 84.4269 69.4776 83.9554 69.4314 83.4839C69.4314 83.3189 69.4083 83.1303 69.3853 82.9417C69.3622 82.4701 69.316 81.975 69.316 81.4799C69.2699 80.3719 69.2699 79.2638 69.316 78.1322C69.316 77.5899 69.3622 77.0241 69.4083 76.4583C69.4314 76.0103 69.4776 75.5624 69.5237 75.1144C69.5468 75.0673 69.5468 75.0201 69.5468 74.973C69.6161 74.4543 69.6853 73.9356 69.7546 73.4405C70.17 70.5407 70.9086 67.7352 71.9242 65.0239ZM99.1366 65.7783C98.9058 65.9434 98.6981 66.132 98.4904 66.3206C98.7212 66.132 98.9289 65.9434 99.1366 65.7783ZM98.4904 66.3206C98.4904 66.3206 98.4211 66.3677 98.398 66.3913C98.2826 66.4856 98.1672 66.5799 98.0749 66.6978C98.2134 66.5564 98.3519 66.4385 98.4904 66.3206ZM122.218 67.9945C122.356 68.1359 122.495 68.301 122.633 68.466L122.587 68.3953C122.472 68.2538 122.356 68.1359 122.218 67.9945ZM96.8055 67.9945C96.667 68.1359 96.5516 68.2538 96.4362 68.3953L96.39 68.466C96.5285 68.301 96.667 68.1595 96.8055 67.9945ZM122.633 68.466L122.979 68.8904C122.864 68.7489 122.748 68.6075 122.633 68.466ZM96.3669 68.466C96.2515 68.6075 96.1361 68.7489 96.0207 68.8904L96.3669 68.466ZM147.376 78.1322C147.376 78.25 147.376 78.3915 147.376 78.5094C147.376 78.3679 147.376 78.25 147.376 78.1322ZM147.399 78.5094C147.445 79.5703 147.399 80.6312 147.399 81.6921C147.445 81.0556 147.468 80.3955 147.468 79.7589C147.468 79.3345 147.445 78.9337 147.422 78.5094H147.399Z" fill="black"/>
<path d="M109.5 41C108.946 41 108.369 41.0236 107.815 41.0472C107.284 41.0707 106.753 41.0943 106.199 41.165C106.199 41.165 106.176 41.165 106.153 41.165C106.13 41.165 106.084 41.165 106.061 41.165C105.646 41.1886 105.207 41.2593 104.768 41.3301C104.538 41.3301 104.307 41.3536 104.076 41.4244C103.707 41.4244 103.361 41.5187 102.991 41.5894C101.283 41.8723 99.5983 42.2967 97.9596 42.8389C97.4979 42.9804 97.0594 43.1454 96.5978 43.3104C96.4824 43.3576 96.367 43.4047 96.2516 43.4519C95.8361 43.5934 95.3976 43.782 94.9821 43.947C94.2666 44.2535 93.5742 44.5835 92.8817 44.9136C92.0277 45.338 91.2199 45.7859 90.4121 46.281C89.9274 46.5639 89.4427 46.8468 88.9811 47.1769C88.5194 47.4834 88.0578 47.7899 87.5962 48.1199C87.1346 48.45 86.696 48.8036 86.2344 49.1573C85.7959 49.5109 85.3804 49.8646 84.9419 50.2418C84.3649 50.7369 83.8109 51.2555 83.257 51.7978L82.126 52.953C76.0788 59.3657 72.432 67.6409 71.7165 76.6469C71.2087 82.9181 72.2012 89.0714 74.5093 94.7297C74.8324 95.5077 75.2017 96.3092 75.571 97.0637C76.9328 99.8456 78.6177 102.439 80.6257 104.867L94.3589 121.323L95.8592 123.139L109.5 139.524L109.685 139.736L111.023 141.339L130.227 164.373C137.428 173.025 147.976 178 159.124 178C168.103 178 176.827 174.723 183.682 168.758C199.608 154.896 201.547 130.4 187.975 114.133L147.053 65.0239C150.861 75.1852 150.63 86.6195 146.176 96.71L172.165 127.901C175.142 131.461 176.573 135.988 176.204 140.656C175.835 145.324 173.711 149.567 170.226 152.609C166.256 156.051 161.986 156.782 159.124 156.782C154.069 156.782 149.292 154.518 146.037 150.605L124.664 124.954L123.349 123.351L123.164 123.139L109.523 106.753L108 104.962L96.4593 91.0989C93.4818 87.539 92.0508 83.0124 92.4201 78.3443C92.4663 77.7314 92.5355 77.142 92.674 76.5526C93.1587 73.7235 94.3128 71.1065 96.0438 68.8904L96.4362 68.3953C96.5516 68.2538 96.667 68.1359 96.8055 67.9945C96.9901 67.7587 97.1979 67.523 97.4287 67.3108C97.6364 67.0986 97.8441 66.8864 98.075 66.6978C98.1673 66.5799 98.2827 66.4856 98.3981 66.3913C98.652 66.1791 98.9059 65.967 99.1367 65.7784C99.4829 65.519 99.806 65.2833 100.152 65.0711C100.452 64.8589 100.752 64.6703 101.052 64.5052C101.422 64.2695 101.791 64.0809 102.16 63.8923C102.391 63.7744 102.645 63.6565 102.899 63.5622C103.13 63.4679 103.384 63.35 103.637 63.2793C103.938 63.1614 104.238 63.0435 104.538 62.9728C104.953 62.8314 105.369 62.7371 105.761 62.6427C106.084 62.572 106.407 62.5013 106.707 62.4541C106.915 62.407 107.1 62.3834 107.284 62.3598C107.654 62.3127 108 62.2891 108.346 62.2655C108.738 62.242 109.108 62.2184 109.454 62.2184H109.546C109.892 62.2184 110.262 62.242 110.654 62.2655C111 62.2891 111.347 62.3127 111.716 62.3598C111.924 62.3598 112.108 62.4306 112.293 62.4541C113.008 62.572 113.747 62.737 114.532 62.9964C114.832 63.0671 115.109 63.1614 115.386 63.2793C115.616 63.35 115.87 63.4679 116.124 63.5622C116.378 63.6801 116.632 63.798 116.863 63.8923C117.324 64.128 117.74 64.3638 118.178 64.6231C118.294 64.6939 118.409 64.7646 118.525 64.8353C118.986 65.1182 119.425 65.4247 119.863 65.7784H119.886C120.279 66.0848 120.648 66.3913 120.994 66.745C121.202 66.91 121.41 67.1222 121.594 67.3108C121.825 67.523 122.033 67.7587 122.218 67.9945C122.356 68.1359 122.472 68.2538 122.587 68.3953L122.979 68.8904C124.71 71.1065 125.864 73.7235 126.349 76.5526C126.488 77.142 126.557 77.7314 126.603 78.3443C126.972 83.0124 125.541 87.539 122.564 91.0989L111.023 104.962L124.664 121.323L138.374 104.867C140.405 102.415 142.09 99.7985 143.429 97.0401C143.821 96.2621 144.168 95.4841 144.514 94.7061C146.014 91.0282 146.914 87.2089 147.261 83.3425C147.307 82.8002 147.353 82.2344 147.376 81.6921C147.422 80.5133 147.445 79.311 147.376 78.1322V78.085C147.376 77.4249 147.307 76.7648 147.237 76.1046C147.237 75.7274 147.168 75.3502 147.122 74.973C146.984 73.8178 146.753 72.6625 146.522 71.5073C146.36 70.7529 146.176 69.9984 145.991 69.2676C144.56 64.0809 142.09 59.1535 138.582 54.8627C137.682 53.7782 136.713 52.7173 135.674 51.7035C134.266 50.3125 132.743 49.063 131.15 47.9313C130.781 47.672 130.411 47.4127 130.042 47.1769C129.58 46.8468 129.096 46.5639 128.611 46.281C127.642 45.6916 126.672 45.1494 125.657 44.6779C125.149 44.4421 124.641 44.2063 124.133 43.9941C123.626 43.782 123.118 43.5698 122.587 43.3812C122.079 43.169 121.548 43.004 121.017 42.8389C119.425 42.2967 117.786 41.8959 116.101 41.613C115.686 41.5187 115.27 41.4479 114.832 41.4008C114.647 41.3536 114.486 41.3301 114.278 41.3301C113.839 41.2593 113.378 41.1886 112.916 41.165C112.916 41.165 112.893 41.165 112.87 41.165C112.87 41.165 112.847 41.165 112.824 41.165C112.293 41.0943 111.762 41.0707 111.208 41.0472C110.654 41.0236 110.077 41 109.5 41Z" fill="black"/>
</g>
<defs>
<clipPath id="clip0_627_1596">
<rect width="175" height="137" fill="white" transform="translate(22 41)"/>
</clipPath>
</defs>
</svg>
