<svg width="256" height="256" viewBox="0 0 256 256" fill="none" xmlns="http://www.w3.org/2000/svg">
<g clip-path="url(#clip0_4717_9458)">
<path d="M128 256C198.692 256 256 198.692 256 128C256 57.3075 198.692 0 128 0C57.3075 0 0 57.3075 0 128C0 198.692 57.3075 256 128 256Z" fill="#133348"/>
<path d="M139.076 89.9045L116.048 105.411V74.6639L139.09 59L139.09 59.0994L162.12 74.4609V119.761L139.076 104.237V89.9045Z" fill="white"/>
<path d="M93 88.7469L116.044 104.272V166.342L139.081 150.829V181.576L116.039 197.24L93 181.865V88.7469Z" fill="white"/>
<path d="M139.076 150.704L162.12 166.229V135.13L139.076 119.759V150.704Z" fill="white"/>
</g>
<defs>
<clipPath id="clip0_4717_9458">
<rect width="256" height="256" fill="white"/>
</clipPath>
</defs>
</svg>
