<svg width="256" height="256" viewBox="0 0 256 256" fill="none" xmlns="http://www.w3.org/2000/svg">
<g clip-path="url(#clip0_4717_9462)">
<path d="M128 256C198.692 256 256 198.692 256 128C256 57.3075 198.692 0 128 0C57.3075 0 0 57.3075 0 128C0 198.692 57.3075 256 128 256Z" fill="#133348"/>
<path d="M178.932 115.463C181.065 102.014 170.215 94.7827 155.389 89.9576L160.2 71.7351L148.459 68.9761L143.771 86.7173C140.687 85.9859 137.52 85.3057 134.361 84.6256L139.083 66.7689L127.343 64.0034L122.532 82.2195C119.978 81.6677 117.464 81.1287 115.031 80.5512L115.045 80.4935L98.8473 76.6757L95.7219 88.5203C95.7219 88.5203 104.439 90.4068 104.256 90.5222C109.012 91.6451 109.868 94.6159 109.725 96.9771L104.249 117.734C104.575 117.811 104.996 117.927 105.472 118.1L104.228 117.811L96.5508 146.89C95.9665 148.25 94.4922 150.297 91.1629 149.521C91.2852 149.681 82.6293 147.512 82.6293 147.512L76.7998 160.204L92.087 163.804C94.927 164.477 97.7126 165.183 100.451 165.844L95.5928 184.272L107.327 187.031L112.137 168.808C115.344 169.623 118.456 170.38 121.499 171.099L116.703 189.244L128.443 192.003L133.301 173.614C153.331 177.194 168.387 175.751 174.726 158.645C179.835 144.875 174.475 136.925 163.937 131.747C171.614 130.079 177.389 125.312 178.932 115.463V115.463ZM152.094 150.996C148.473 164.772 123.911 157.323 115.949 155.456L122.403 131.042C130.366 132.922 155.892 136.637 152.094 150.996ZM155.729 115.264C152.42 127.795 131.983 121.423 125.359 119.864L131.202 97.7278C137.826 99.287 159.181 102.194 155.729 115.264Z" fill="white"/>
</g>
<defs>
<clipPath id="clip0_4717_9462">
<rect width="256" height="256" fill="white"/>
</clipPath>
</defs>
</svg>
