<svg width="500" height="500" viewBox="0 0 500 500" fill="none" xmlns="http://www.w3.org/2000/svg">
<rect width="500" height="500" rx="250" fill="url(#paint0_linear_12239_10792)"/>
<path d="M253.804 94.1719L259.917 85.4814L253.804 81.1816L247.691 85.4814L253.804 94.1719ZM158.857 160.958L152.744 152.267L140.591 160.816L152.61 169.552L158.857 160.958ZM348.751 160.958H359.376V155.441L354.864 152.267L348.751 160.958ZM348.751 298.982L342.504 307.576L359.376 319.84V298.982H348.751ZM340.307 339.055L346.532 347.665L358.41 339.078L346.554 330.46L340.307 339.055ZM150.418 201.031L156.665 192.436L139.793 180.172V201.031H150.418ZM247.928 405.84L241.925 414.606L248.094 418.832L254.153 414.451L247.928 405.84ZM150.418 339.055H139.793V344.656L144.414 347.821L150.418 339.055ZM247.691 85.4814L152.744 152.267L164.97 169.648L259.917 102.862L247.691 85.4814ZM354.864 152.267L259.917 85.4814L247.691 102.862L342.638 169.648L354.864 152.267ZM359.376 298.982V160.958H338.126V298.982H359.376ZM152.61 169.552L342.504 307.576L354.998 290.387L165.104 152.363L152.61 169.552ZM346.554 330.46L156.665 192.436L144.171 209.625L334.06 347.649L346.554 330.46ZM254.153 414.451L346.532 347.665L334.082 330.444L241.703 397.23L254.153 414.451ZM144.414 347.821L241.925 414.606L253.932 397.074L156.422 330.289L144.414 347.821ZM139.793 201.031V339.055H161.043V201.031H139.793Z" fill="white"/>
<defs>
<linearGradient id="paint0_linear_12239_10792" x1="-46.191" y1="-53.8437" x2="523.81" y2="-23.3861" gradientUnits="userSpaceOnUse">
<stop stop-color="#F29AC4"/>
<stop offset="0.13" stop-color="#F2A9CB"/>
<stop offset="0.275" stop-color="#F2BAD5"/>
<stop offset="0.395" stop-color="#CDC6D7"/>
<stop offset="0.52" stop-color="#82D1D9"/>
<stop offset="0.66" stop-color="#09D4D7"/>
<stop offset="0.8" stop-color="#11BBCA"/>
<stop offset="1" stop-color="#17A0BF"/>
</linearGradient>
</defs>
</svg>
