<svg width="600" height="600" viewBox="0 0 600 600" fill="none" xmlns="http://www.w3.org/2000/svg">
<circle cx="300" cy="300" r="300" fill="#111130"/>
<path fill-rule="evenodd" clip-rule="evenodd" d="M300 581.25C455.33 581.25 581.25 455.33 581.25 300C581.25 144.67 455.33 18.75 300 18.75C144.67 18.75 18.75 144.67 18.75 300C18.75 455.33 144.67 581.25 300 581.25ZM300 600C465.685 600 600 465.685 600 300C600 134.315 465.685 0 300 0C134.315 0 0 134.315 0 300C0 465.685 134.315 600 300 600Z" fill="url(#paint0_linear_307_9286)"/>
<path d="M231.976 312.252L178.064 406.33H226.318L255.959 354.085L231.976 312.252Z" fill="white"/>
<path d="M306.639 312.66L299.934 324.382L226.312 194.442H178.43L300.323 406.636L330.403 354.119L306.639 312.66Z" fill="white"/>
<path d="M299.658 194.138L269.763 246.331L293.544 287.841L300.046 276.392L374.276 406.331H421.55L299.658 194.138Z" fill="white"/>
<path d="M368.066 288.418L421.927 194.442H374.298L344.269 246.908L368.066 288.418Z" fill="white"/>
<defs>
<linearGradient id="paint0_linear_307_9286" x1="0" y1="300" x2="600" y2="300" gradientUnits="userSpaceOnUse">
<stop stop-color="#01EEFD"/>
<stop offset="1" stop-color="#073DC8"/>
</linearGradient>
</defs>
</svg>
