<svg width="48" height="48" viewBox="0 0 48 48" fill="none" xmlns="http://www.w3.org/2000/svg">
<path fill-rule="evenodd" clip-rule="evenodd" d="M24 46.5C36.4264 46.5 46.5 36.4264 46.5 24C46.5 11.5736 36.4264 1.5 24 1.5C11.5736 1.5 1.5 11.5736 1.5 24C1.5 36.4264 11.5736 46.5 24 46.5ZM24 48C37.2548 48 48 37.2548 48 24C48 10.7452 37.2548 0 24 0C10.7452 0 0 10.7452 0 24C0 37.2548 10.7452 48 24 48Z" fill="url(#paint0_linear_608_9453)"/>
<g clip-path="url(#clip0_608_9453)">
<path d="M24.1579 12.9213L24.5904 12.3021L24.1579 12L23.7254 12.3021L24.1579 12.9213ZM17.3596 17.6693L16.9271 17.05L16.0549 17.6592L16.9176 18.2818L17.3596 17.6693ZM30.9561 17.6693H31.7115V17.2755L31.3886 17.05L30.9561 17.6693ZM30.9561 27.4818L30.5141 28.0943L31.7115 28.9585V27.4818H30.9561ZM30.3515 30.3306L30.792 30.9442L31.6445 30.3323L30.7935 29.7181L30.3515 30.3306ZM16.7554 20.5181L17.1974 19.9056L16 19.0414V20.5181H16.7554ZM23.7371 35.0786L23.3124 35.7032L23.7488 36L24.1776 35.6922L23.7371 35.0786ZM16.7554 30.3306H16V30.7304L16.3306 30.9552L16.7554 30.3306ZM23.7254 12.3021L16.9271 17.05L17.7922 18.2886L24.5904 13.5406L23.7254 12.3021ZM31.3886 17.05L24.5904 12.3021L23.7254 13.5406L30.5236 18.2886L31.3886 17.05ZM31.7115 27.4818V17.6693H30.2008V27.4818H31.7115ZM16.9176 18.2818L30.5141 28.0943L31.3982 26.8693L17.8017 17.0568L16.9176 18.2818ZM30.7935 29.7181L17.1974 19.9056L16.3133 21.1306L29.9094 30.9431L30.7935 29.7181ZM24.1776 35.6922L30.792 30.9442L29.911 29.717L23.2967 34.465L24.1776 35.6922ZM16.3306 30.9552L23.3124 35.7032L24.1619 34.454L17.1801 29.706L16.3306 30.9552ZM16 20.5181V30.3306H17.5107V20.5181H16Z" fill="url(#paint1_linear_608_9453)"/>
</g>
<defs>
<linearGradient id="paint0_linear_608_9453" x1="0" y1="0" x2="50.0052" y2="3.355" gradientUnits="userSpaceOnUse">
<stop stop-color="#0BF6CC"/>
<stop offset="1" stop-color="#073DC8"/>
</linearGradient>
<linearGradient id="paint1_linear_608_9453" x1="16" y1="12" x2="32" y2="36" gradientUnits="userSpaceOnUse">
<stop stop-color="#0BF6CC"/>
<stop offset="1" stop-color="#073DC8"/>
</linearGradient>
<clipPath id="clip0_608_9453">
<rect width="15.7115" height="24" fill="white" transform="translate(16 12)"/>
</clipPath>
</defs>
</svg>
