<svg width="500" height="500" viewBox="0 0 500 500" fill="none" xmlns="http://www.w3.org/2000/svg">
<rect width="500" height="500" rx="250" fill="url(#paint0_linear_15515_1620)"/>
<path d="M254.472 83.9844L260.984 74.7261L254.472 70.1453L247.959 74.7261L254.472 83.9844ZM153.32 155.134L146.808 145.876L133.86 154.983L146.665 164.29L153.32 155.134ZM355.623 155.134H366.942V149.257L362.135 145.876L355.623 155.134ZM355.623 302.177L348.968 311.333L366.942 324.398V302.177H355.623ZM346.626 344.881L353.257 354.054L365.911 344.905L353.281 335.724L346.626 344.881ZM144.328 197.838L150.983 188.682L133.009 175.617V197.838H144.328ZM248.211 416.03L241.814 425.369L248.387 429.871L254.842 425.203L248.211 416.03ZM144.328 344.881H133.009V350.848L137.932 354.219L144.328 344.881ZM247.959 74.7261L146.808 145.876L159.833 164.392L260.984 93.2427L247.959 74.7261ZM362.135 145.876L260.984 74.7261L247.959 93.2427L349.111 164.392L362.135 145.876ZM366.942 302.177V155.134H344.304V302.177H366.942ZM146.665 164.29L348.968 311.333L362.278 293.021L159.975 145.978L146.665 164.29ZM353.281 335.724L150.983 188.682L137.673 206.994L339.97 354.037L353.281 335.724ZM254.842 425.203L353.257 354.054L339.994 335.707L241.579 406.857L254.842 425.203ZM137.932 354.219L241.814 425.369L254.607 406.691L150.724 335.542L137.932 354.219ZM133.009 197.838V344.881H155.647V197.838H133.009Z" fill="white"/>
<defs>
<linearGradient id="paint0_linear_15515_1620" x1="250" y1="-83.0078" x2="250" y2="500" gradientUnits="userSpaceOnUse">
<stop stop-color="#3DD164"/>
<stop offset="1" stop-color="#17A0BF"/>
</linearGradient>
</defs>
</svg>
