<svg width="232" height="233" viewBox="0 0 232 233" fill="#600014" xmlns="http://www.w3.org/2000/svg">
<title>Sei mark (maroon)</title>
<g transform="translate(0,0.5000) scale(9.668077)" fill="#600014">
  <path d="M11.9969 23.9965H11.9965L11.9967 23.9965L11.9969 23.9965Z"/>
  <path d="M16.085 19.5256C16.8061 18.8689 17.9092 18.869 18.6303 19.5258L18.6305 19.5259L20.091 20.8558C17.957 22.8065 15.1158 23.9965 11.9967 23.9965C8.88824 23.9964 6.05591 22.8147 3.92448 20.876L5.4072 19.5259L5.40734 19.5258C6.12844 18.869 7.23147 18.8689 7.95265 19.5256L9.25088 20.7087L9.25109 20.7089C10.8195 22.1374 13.2182 22.1374 14.7866 20.7089L14.7868 20.7087L16.085 19.5256L16.085 19.5256Z"/>
  <path d="M11.9965 0C15.1214 0 17.9672 1.19421 20.1025 3.15105C20.0412 3.20075 19.981 3.25245 19.922 3.30619L19.9218 3.30636L18.6236 4.48944C17.9025 5.14605 16.7996 5.14605 16.0785 4.48944L14.7803 3.30636L14.78 3.30619L14.7431 3.27296C13.1742 1.87772 10.8007 1.88883 9.24454 3.30622L5.92566 6.32832L7.42038 7.96939L10.7394 4.94715L10.7395 4.94704C11.4607 4.29025 12.5637 4.29016 13.2849 4.94683L14.5831 6.12991L14.5833 6.13012C16.1517 7.55866 18.5504 7.55866 20.1188 6.13012L20.119 6.12994L21.4172 4.94687L21.4172 4.94683C21.4753 4.89391 21.5359 4.8453 21.5986 4.80091C23.1043 6.80592 23.9965 9.2979 23.9965 11.9983C23.9965 14.7069 23.0988 17.2058 21.5847 19.2139L20.1253 17.885L20.1253 17.8849C18.5569 16.4564 16.1582 16.4564 14.5898 17.8849L14.5896 17.8851L13.2914 19.0682C12.5703 19.7248 11.4674 19.7248 10.7463 19.0682L9.44805 17.8851L9.44784 17.8849L9.41092 17.8517C7.842 16.4565 5.46849 16.4676 3.91233 17.885L2.42664 19.2378C1.38127 17.8584 0.627365 16.2461 0.256536 14.4924L2.73458 12.236L2.73472 12.2359C3.45586 11.579 4.55861 11.579 5.27978 12.2358L6.57837 13.4188L6.57847 13.4189C8.14681 14.8474 10.5455 14.8476 12.1137 13.4188L13.4122 12.2358C14.1334 11.579 15.2365 11.579 15.9577 12.2359L15.9578 12.236L19.2769 15.2582L20.7716 13.6171L17.4527 10.595L17.4527 10.595C15.8843 9.16646 13.4856 9.16646 11.9172 10.595L11.9171 10.5951L10.6185 11.7782L10.6185 11.7782C9.89779 12.4348 8.79476 12.435 8.07352 11.7782L6.77493 10.5951L6.77486 10.595L6.73795 10.5618C5.16903 9.16654 2.79587 9.17765 1.23971 10.595L0 11.7239C0.145876 5.22438 5.46071 7.07913e-06 11.9965 0Z"/>
</g>
</svg>
