<?xml version="1.0" encoding="utf-8"?>
<!-- Generator: Adobe Illustrator 27.7.0, SVG Export Plug-In . SVG Version: 6.00 Build 0)  -->
<svg version="1.1" id="Layer_1" xmlns="http://www.w3.org/2000/svg" xmlns:xlink="http://www.w3.org/1999/xlink" x="0px" y="0px"
	 viewBox="0 0 1000 400" style="enable-background:new 0 0 1000 400;" xml:space="preserve">
<style type="text/css">
	.st0{display:none;}
	.st1{display:inline;}
	.st2{fill:url(#SVGID_1_);}
	.st3{fill:url(#SVGID_00000155851278561159015440000013496311391300341394_);}
	.st4{fill:url(#SVGID_00000103982461592189754320000004591753495435975586_);}
	.st5{fill:url(#SVGID_00000078044031766994816180000007172081470526731453_);}
</style>
<g class="st0">
	<g class="st1">
		<g>
			<path d="M388.8,204.5c4.5,0,8.9,0.8,13.1,2.5v-3.3c0-6.6-3.8-11.8-11-11.8c-4.9,0-9.2,2.7-11,7.2l-10.8-2.4
				c2.7-9.4,12.6-14.4,22.1-14.4c13.1,0,22.4,8.7,22.4,22v32h-10.7l-0.4-6.9c-3.3,5.8-9.9,8.4-16.4,8.4c-9.8,0-18.9-6-18.9-16.5
				C367.1,209.6,378.1,204.5,388.8,204.5L388.8,204.5L388.8,204.5z M388.7,228.5c7.2,0,13.2-4.9,13.2-12.2v-1.2
				c-1.7-0.7-3.6-1.3-5.4-1.8c-1.9-0.4-3.9-0.6-5.8-0.6c-5.1,0-11.8,2-11.8,8.1C378.9,226,383.9,228.5,388.7,228.5L388.7,228.5
				L388.7,228.5z"/>
			<path d="M424.9,169.1c0-1.3,0.3-2.4,1-3.5c0.6-1.1,1.4-1.9,2.6-2.6c1.1-0.6,2.2-0.9,3.6-0.9c1.4,0,2.5,0.3,3.6,0.9
				c1.1,0.7,1.9,1.5,2.7,2.6c0.6,1.1,0.9,2.2,0.9,3.5s-0.3,2.4-0.9,3.5c-0.7,1.1-1.5,1.9-2.7,2.5c-1.1,0.7-2.2,1-3.6,1
				c-1.4,0-2.5-0.3-3.6-1c-1.1-0.6-1.9-1.4-2.6-2.5C425.2,171.5,424.9,170.4,424.9,169.1z M426.2,236.2v-52.5H438v52.5H426.2z"/>
			<path d="M461.4,183.8l0.5,8.6c2.6-5.8,7.6-9.3,14.2-9.3c1.8,0,3.8,0.2,5.5,0.9l-1.3,11.3c-1.5-0.6-3.1-0.7-4.8-0.7
				c-9.2,0-13.1,6.9-13.1,15.2v26.6h-11.8v-52.6H461.4L461.4,183.8z"/>
			<path d="M512.9,182.3c10.4,0,19.8,5.6,22.8,15.8l-11.1,2.6c-2.1-4.8-6.3-8-11.8-8c-9.4,0-14.4,9.3-14.4,17.6
				c0,8.3,4.8,17.1,14.4,17.1c5.5,0,10.2-2.9,12.5-7.9l11,2.5c-2.9,10-13.3,15.8-23.5,15.8c-15.5,0-26.4-12.2-26.4-27.4
				C486.4,195.2,496.9,182.3,512.9,182.3L512.9,182.3z"/>
			<path d="M545.9,161.6h11.7v28.5c3.6-5.2,9.4-7.8,15.7-7.8c13.3,0,19.8,10.4,19.8,22.8v31.2h-11.7v-30c0-7.1-2.9-13.6-11-13.6
				c-7.5,0-12.8,5.6-12.8,13.1v30.5h-11.8L545.9,161.6L545.9,161.6L545.9,161.6z"/>
			<path d="M625,204.5c4.5,0,8.9,0.8,13.1,2.5v-3.3c0-6.6-3.8-11.8-11-11.8c-4.9,0-9.2,2.7-11,7.2l-10.8-2.4
				c2.7-9.4,12.6-14.4,22.1-14.4c13.1,0,22.4,8.7,22.4,22v32h-10.7l-0.4-6.9c-3.3,5.8-9.9,8.4-16.4,8.4c-9.8,0-18.9-6-18.9-16.5
				C603.3,209.6,614.3,204.5,625,204.5L625,204.5L625,204.5z M624.9,228.5c7.2,0,13.2-4.9,13.2-12.2v-1.2c-1.7-0.7-3.6-1.3-5.4-1.8
				c-1.9-0.4-3.9-0.6-5.8-0.6c-5.1,0-11.8,2-11.8,8.1C615.1,226,620.1,228.5,624.9,228.5L624.9,228.5z"/>
			<path d="M661.1,169.1c0-1.3,0.3-2.4,1-3.5c0.6-1.1,1.4-1.9,2.6-2.6c1.2-0.6,2.2-0.9,3.6-0.9c1.3,0,2.5,0.3,3.6,0.9
				c1.2,0.7,1.9,1.5,2.7,2.6c0.6,1.1,0.9,2.2,0.9,3.5s-0.3,2.4-0.9,3.5c-0.7,1.1-1.5,1.9-2.7,2.5c-1.2,0.7-2.2,1-3.6,1
				c-1.3,0-2.5-0.3-3.6-1c-1.2-0.6-1.9-1.4-2.6-2.5C661.4,171.5,661.1,170.4,661.1,169.1z M662.4,236.2v-52.5h11.8v52.5H662.4z"/>
			<path d="M697.5,183.8l0.4,7.2c3.2-5.8,9.7-8.7,16.3-8.7c13.3,0,19.8,10.4,19.8,22.8v31.2h-11.8v-30c0-7.1-2.9-13.6-11-13.6
				c-7.5,0-12.8,5.6-12.8,13.1v30.5h-11.8v-52.5H697.5L697.5,183.8z"/>
			<path d="M754,221c1.8,4.7,6,7.2,11.1,7.2c4.1,0,9.1-1.9,9.1-6.6s-4.9-6.1-8.7-6.7l-3.3-0.6c-8.7-1.5-17.3-5.6-17.3-15.5
				c0-10.8,9.6-16.6,19.9-16.6c9.3,0,17.7,4.7,20.3,13.8l-10.5,2.6c-1.7-4.4-5.1-6.9-9.9-6.9c-3.8,0-8.3,1.9-8.3,6.2
				c0,4.3,5.8,5.6,9.2,6.2l3.3,0.6c8.7,1.4,17,6.1,17,15.7c0,11.3-10.2,17.3-20.9,17.3c-9.5,0-18.7-4.7-21.7-14L754,221L754,221
				L754,221z"/>
		</g>
	</g>
	<g class="st1">
		<path d="M321.9,222.8c0,0,2.2,8.5,2.7,17.2c0.5,10.6-0.9,22.2-0.9,22.2s1.5,0.2,2.8-1c11.9-9.4,11.5-34.8,6.7-49.1
			C333.1,212.1,326.1,219.7,321.9,222.8z"/>
		<path d="M278.6,209.9c15.7-12.6,27.5-21,27.5-21l-2.6-5.2c0,0-9.9,6.8-19.8,14.8c-9.9,7.9-23.3,19.4-23.3,19.4s1.7,1.1,2.5,2
			c0.8,0.9,1.6,2.3,1.6,2.3S271.8,215.4,278.6,209.9z"/>
		<path d="M335.6,206.3c16.6-18.8,19.3-30.7,15-36c-2.4-3-10.7-4.1-18-1.9c-7.1,2.2-14.5,6.7-14.5,6.7l2.4,4.8
			c35.1-19.7,30.6,1.4,10.8,19.4c0,0-60.8,59.7-85.8,44.7c-25-15.1,1-69,12.6-86.2c27.6-38.9,58.2,52.3,58.5,51.5l0,0
			c0,0,10.7-9.7,11-9.9c-5.2-9.8-31.3-79-65-62.8c-11.1,5.4-21.6,24-21.6,24S192.1,243,226,262C259.8,281.1,318.9,225.1,335.6,206.3
			z"/>
		<path d="M255.8,218.3c-11.4,0.4-11.4,16.8,0,17.2c4.8,0,8.6-3.9,8.6-8.6S260.5,218.3,255.8,218.3z"/>
	</g>
</g>
<g>
	<g>
		<g>
			<path d="M388.8,204.5c4.5,0,8.9,0.8,13.1,2.5v-3.3c0-6.6-3.8-11.8-11-11.8c-4.9,0-9.2,2.7-11,7.2l-10.8-2.4
				c2.7-9.4,12.6-14.4,22.1-14.4c13.1,0,22.4,8.7,22.4,22v32h-10.7l-0.4-6.9c-3.3,5.8-9.9,8.4-16.4,8.4c-9.8,0-18.9-6-18.9-16.5
				C367.1,209.6,378.1,204.5,388.8,204.5L388.8,204.5L388.8,204.5z M388.7,228.5c7.2,0,13.2-4.9,13.2-12.2v-1.2
				c-1.7-0.7-3.6-1.3-5.4-1.8c-1.9-0.4-3.9-0.6-5.8-0.6c-5.1,0-11.8,2-11.8,8.1C378.9,226,383.9,228.5,388.7,228.5L388.7,228.5
				L388.7,228.5z"/>
			<path d="M424.9,169.1c0-1.3,0.3-2.4,1-3.5c0.6-1.1,1.4-1.9,2.6-2.6c1.1-0.6,2.2-0.9,3.6-0.9c1.4,0,2.5,0.3,3.6,0.9
				c1.1,0.7,1.9,1.5,2.7,2.6c0.6,1.1,0.9,2.2,0.9,3.5c0,1.3-0.3,2.4-0.9,3.5c-0.7,1.1-1.5,1.9-2.7,2.5c-1.1,0.7-2.2,1-3.6,1
				c-1.4,0-2.5-0.3-3.6-1c-1.1-0.6-1.9-1.4-2.6-2.5C425.2,171.5,424.9,170.4,424.9,169.1z M426.2,236.2v-52.5H438v52.5H426.2z"/>
			<path d="M461.4,183.8l0.5,8.6c2.6-5.8,7.6-9.3,14.2-9.3c1.8,0,3.8,0.2,5.5,0.9l-1.3,11.3c-1.5-0.6-3.1-0.7-4.8-0.7
				c-9.2,0-13.1,6.9-13.1,15.2v26.6h-11.8v-52.6H461.4L461.4,183.8z"/>
			<path d="M512.9,182.3c10.4,0,19.8,5.6,22.8,15.8l-11.1,2.6c-2.1-4.8-6.3-8-11.8-8c-9.4,0-14.4,9.3-14.4,17.6
				c0,8.3,4.8,17.1,14.4,17.1c5.5,0,10.2-2.9,12.5-7.9l11,2.5c-2.9,10-13.3,15.8-23.5,15.8c-15.5,0-26.4-12.2-26.4-27.4
				S496.9,182.3,512.9,182.3L512.9,182.3z"/>
			<path d="M545.9,161.6h11.7v28.5c3.6-5.2,9.4-7.8,15.7-7.8c13.3,0,19.8,10.4,19.8,22.8v31.2h-11.7v-30c0-7.1-2.9-13.6-11-13.6
				c-7.5,0-12.8,5.6-12.8,13.1v30.5h-11.8L545.9,161.6L545.9,161.6L545.9,161.6z"/>
			<path d="M625,204.5c4.5,0,8.9,0.8,13.1,2.5v-3.3c0-6.6-3.8-11.8-11-11.8c-4.9,0-9.2,2.7-11,7.2l-10.8-2.4
				c2.7-9.4,12.6-14.4,22.1-14.4c13.1,0,22.4,8.7,22.4,22v32h-10.7l-0.4-6.9c-3.3,5.8-9.9,8.4-16.4,8.4c-9.8,0-18.9-6-18.9-16.5
				C603.3,209.6,614.3,204.5,625,204.5L625,204.5L625,204.5z M624.9,228.5c7.2,0,13.2-4.9,13.2-12.2v-1.2c-1.7-0.7-3.6-1.3-5.4-1.8
				c-1.9-0.4-3.9-0.6-5.8-0.6c-5.1,0-11.8,2-11.8,8.1C615.1,226,620.1,228.5,624.9,228.5L624.9,228.5z"/>
			<path d="M661.1,169.1c0-1.3,0.3-2.4,1-3.5c0.6-1.1,1.4-1.9,2.6-2.6c1.2-0.6,2.2-0.9,3.6-0.9c1.3,0,2.5,0.3,3.6,0.9
				c1.2,0.7,1.9,1.5,2.7,2.6c0.6,1.1,0.9,2.2,0.9,3.5c0,1.3-0.3,2.4-0.9,3.5c-0.7,1.1-1.5,1.9-2.7,2.5c-1.2,0.7-2.2,1-3.6,1
				c-1.3,0-2.5-0.3-3.6-1c-1.2-0.6-1.9-1.4-2.6-2.5C661.4,171.5,661.1,170.4,661.1,169.1z M662.4,236.2v-52.5h11.8v52.5H662.4z"/>
			<path d="M697.5,183.8l0.4,7.2c3.2-5.8,9.7-8.7,16.3-8.7c13.3,0,19.8,10.4,19.8,22.8v31.2h-11.8v-30c0-7.1-2.9-13.6-11-13.6
				c-7.5,0-12.8,5.6-12.8,13.1v30.5h-11.8v-52.5H697.5L697.5,183.8z"/>
			<path d="M754,221c1.8,4.7,6,7.2,11.1,7.2c4.1,0,9.1-1.9,9.1-6.6c0-4.7-4.9-6.1-8.7-6.7l-3.3-0.6c-8.7-1.5-17.3-5.6-17.3-15.5
				c0-10.8,9.6-16.6,19.9-16.6c9.3,0,17.7,4.7,20.3,13.8l-10.5,2.6c-1.7-4.4-5.1-6.9-9.9-6.9c-3.8,0-8.3,1.9-8.3,6.2
				c0,4.3,5.8,5.6,9.2,6.2l3.3,0.6c8.7,1.4,17,6.1,17,15.7c0,11.3-10.2,17.3-20.9,17.3c-9.5,0-18.7-4.7-21.7-14L754,221L754,221
				L754,221z"/>
		</g>
	</g>
	<g>
		
			<linearGradient id="SVGID_1_" gradientUnits="userSpaceOnUse" x1="329.1542" y1="137.822" x2="329.1542" y2="187.9345" gradientTransform="matrix(1 0 0 -1 0 400)">
			<stop  offset="0" style="stop-color:#4E4BFC"/>
			<stop  offset="1" style="stop-color:#9D6CE7"/>
		</linearGradient>
		<path class="st2" d="M321.9,222.8c0,0,2.2,8.5,2.7,17.2c0.5,10.6-0.9,22.2-0.9,22.2s1.5,0.2,2.8-1c11.9-9.4,11.5-34.8,6.7-49.1
			C333.1,212.1,326.1,219.7,321.9,222.8z"/>
		
			<linearGradient id="SVGID_00000016761965097220696780000003821579149974828939_" gradientUnits="userSpaceOnUse" x1="283.283" y1="177.8345" x2="283.283" y2="216.393" gradientTransform="matrix(1 0 0 -1 0 400)">
			<stop  offset="0" style="stop-color:#4E4BFC"/>
			<stop  offset="1" style="stop-color:#9D6CE7"/>
		</linearGradient>
		<path style="fill:url(#SVGID_00000016761965097220696780000003821579149974828939_);" d="M278.6,209.9c15.7-12.6,27.5-21,27.5-21
			l-2.6-5.2c0,0-9.9,6.8-19.8,14.8c-9.9,7.9-23.3,19.4-23.3,19.4s1.7,1.1,2.5,2c0.8,0.9,1.6,2.3,1.6,2.3S271.8,215.4,278.6,209.9z"
			/>
		
			<linearGradient id="SVGID_00000121959498233163168550000014804848155583345320_" gradientUnits="userSpaceOnUse" x1="283.2581" y1="134.1193" x2="283.2581" y2="265.8807" gradientTransform="matrix(1 0 0 -1 0 400)">
			<stop  offset="0" style="stop-color:#4E4BFC"/>
			<stop  offset="1" style="stop-color:#9D6CE7"/>
		</linearGradient>
		<path style="fill:url(#SVGID_00000121959498233163168550000014804848155583345320_);" d="M335.6,206.3c16.6-18.8,19.3-30.7,15-36
			c-2.4-3-10.7-4.1-18-1.9c-7.1,2.2-14.5,6.7-14.5,6.7l2.4,4.8c35.1-19.7,30.6,1.4,10.8,19.4c0,0-60.8,59.7-85.8,44.7
			c-25-15.1,1-69,12.6-86.2c27.6-38.9,58.2,52.3,58.5,51.5l0,0c0,0,10.7-9.7,11-9.9c-5.2-9.8-31.3-79-65-62.8
			c-11.1,5.4-21.6,24-21.6,24S192.1,243,226,262C259.8,281.1,318.9,225.1,335.6,206.3z"/>
		
			<linearGradient id="SVGID_00000137847159975931168580000010038354647275100091_" gradientUnits="userSpaceOnUse" x1="255.858" y1="164.5877" x2="255.858" y2="181.7596" gradientTransform="matrix(1 0 0 -1 0 400)">
			<stop  offset="0" style="stop-color:#4E4BFC"/>
			<stop  offset="1" style="stop-color:#9D6CE7"/>
		</linearGradient>
		<path style="fill:url(#SVGID_00000137847159975931168580000010038354647275100091_);" d="M255.8,218.3c-11.4,0.4-11.4,16.8,0,17.2
			c4.8,0,8.6-3.9,8.6-8.6S260.5,218.3,255.8,218.3z"/>
	</g>
</g>
</svg>
