<svg id="图层_1" data-name="图层 1" xmlns="http://www.w3.org/2000/svg" viewBox="0 0 1232.57 343.65"><defs><style>.cls-1{fill:#fff;}</style></defs><title>5. Black logo with OKC</title><path d="M642.25,397.86c.24-12.66.28-25.32.8-38a145,145,0,0,1,6.31-36.83c11.43-37.18,36.37-60.4,73.66-70.51,17.52-4.75,35.43-5.77,53.51-4.43a135,135,0,0,1,31.86,5.81q53,17.11,68.57,70.66A166.73,166.73,0,0,1,883,362c0,.5,0,1,0,1.5,0,22.65.24,45.31-.07,68a143.45,143.45,0,0,1-6.81,41.26c-11,34.89-34.34,57.45-68.89,68.67a133.67,133.67,0,0,1-36.33,6.14c-12.51.48-25,.16-37.35-2A120.37,120.37,0,0,1,702.66,536c-24.19-11.47-40.94-29.82-50.44-54.8a146.87,146.87,0,0,1-8.31-35.4,267.17,267.17,0,0,1-1.44-29.93c0-6,0-12,0-18Zm185.79.71h.14c0-7.66,0-15.32,0-23A140.63,140.63,0,0,0,826,350.25a84.05,84.05,0,0,0-8.74-25.91c-7.4-13.4-18.5-22.09-33.32-25.86a84.48,84.48,0,0,0-41.05-.09c-16.78,4-28.77,14-36,29.7a83.31,83.31,0,0,0-5.87,18,141.83,141.83,0,0,0-3,28.76c0,14.33,0,28.65,0,43a166.44,166.44,0,0,0,1.09,20.94c1.21,9.8,3.39,19.33,7.67,28.3,6.6,13.85,17.15,23.17,31.85,27.57a84.72,84.72,0,0,0,47.32.6c14.75-4,25.63-13.06,32.68-26.65A72,72,0,0,0,824,454.65a106.54,106.54,0,0,0,4-26.6C828.19,418.23,828,408.4,828,398.57Z" transform="translate(-189.31 -225.57)"/><path d="M1101.6,253.16c22.51,0,45.16-.06,67.81.08a6.26,6.26,0,0,1,1.61.59c-1.18,2.25-3,3.69-4.49,5.39-1.65,1.87-3.39,3.67-5.09,5.51l-4.74,5.14-4.76,5.14-5.09,5.5-4.74,5.14-4.76,5.14c-1.7,1.83-3.39,3.67-5.09,5.51l-4.75,5.14-4.75,5.13c-1.7,1.84-3.39,3.68-5.09,5.51s-3.17,3.42-4.75,5.14-3.17,3.43-4.75,5.14-3.17,3.42-4.75,5.14l-5.1,5.5-4.74,5.15-4.76,5.13-5.08,5.51-4.76,5.14-4.75,5.13-5.08,5.52-4.87,5.3c3.78,6.13,7.83,11.8,11.68,17.6s7.62,11.34,11.43,17l11.7,17.43,11.45,17,11.7,17.42,11.44,17,11.71,17.43,11.44,17,11.71,17.42c3.8,5.65,7.59,11.31,11.32,16.88-1.19,1.66-2.64,1.11-3.87,1.12q-29,.06-58,0c-.66,0-1.33,0-2,0a3.38,3.38,0,0,1-3.33-1.75c-.78-1.27-1.64-2.5-2.46-3.76q-39.66-61.25-79.33-122.49c-1.07-1.66-2.2-3.29-3.48-5.2a19.64,19.64,0,0,0-2.45,1.89c-15,16.1-29.92,32.26-45,48.3-1.83,1.95-2,4-2,6.38q0,35.24,0,70.48c0,1.81-.06,3.62-.09,5.65a27.8,27.8,0,0,1-3.63.48q-23.74,0-47.49,0a35.68,35.68,0,0,1-3.61-.41c-.08-1.68-.21-3.14-.22-4.61-.51-76.36-.17-280.15.53-284.66,5.84-.75,11.8-.25,17.73-.34s12,0,18,0h18.16a26.29,26.29,0,0,1,.59,3.08c.09,1.5,0,3,0,4.5V392.12c1.81.55,2.25-.85,2.94-1.63q17.68-20.07,35.3-40.19,40.73-46.4,81.45-92.79C1098.89,256.13,1100.13,254.79,1101.6,253.16Z" transform="translate(-189.31 -225.57)"/><path d="M1421.59,349.8a17.23,17.23,0,0,1-2.08.43c-7.11.4-48.4.08-52.25-.42-.13-.83-.32-1.76-.43-2.7-.42-3.63-.55-7.33-1.27-10.9-3-14.84-11.56-25.56-24.83-32.64a63.86,63.86,0,0,0-23.35-6.87,102.81,102.81,0,0,0-29.87.79,66.24,66.24,0,0,0-14.34,4.25,52.22,52.22,0,0,0-25.3,22.51,79.92,79.92,0,0,0-8.85,24.82,115.4,115.4,0,0,0-2.22,19.34c-.49,21-.71,42,.17,63a95.49,95.49,0,0,0,4.79,26c6.83,20.72,20.79,33.68,42.1,38.49a97.06,97.06,0,0,0,45.06-.46,53.56,53.56,0,0,0,18.12-8.17,44,44,0,0,0,19.06-31.51c.46-3.45.71-6.92,1.07-10.55a23,23,0,0,1,2.49-.41c11.13-.46,46.87-.14,51.2.47a11.27,11.27,0,0,1,.45,2.2,105.93,105.93,0,0,1-6.61,39.18c-6.39,16.69-17.2,29.9-31.83,40.08a110.22,110.22,0,0,1-42.12,17.58,179.53,179.53,0,0,1-75.38-.76,111,111,0,0,1-35.8-14.89c-20.81-13.38-34.18-32.29-41.46-55.72a159,159,0,0,1-6.26-32.81c-.73-8-.87-16-.86-24,0-14.67,0-29.33,0-44a181.54,181.54,0,0,1,4-37.69,126,126,0,0,1,6.4-21c10.79-26.6,29.84-44.92,56.22-55.77,12.73-5.23,26.07-7.95,39.75-9.22a190.3,190.3,0,0,1,36.43.1c14.84,1.46,29.24,4.7,42.89,10.88a103.27,103.27,0,0,1,24.06,15.07c15.94,13.42,25.44,30.55,29.19,50.94a110.7,110.7,0,0,1,1.91,20.87C1421.86,347.41,1421.69,348.54,1421.59,349.8Z" transform="translate(-189.31 -225.57)"/><path d="M475.49,569.2H430c-1.33,0-2.67.06-4,0-4.37-.32-7-2.88-7.48-7.25a27.26,27.26,0,0,1-.07-3q0-47,0-93.95a23.8,23.8,0,0,1,.15-3.49,7.56,7.56,0,0,1,6.94-6.75,29,29,0,0,1,3.49-.09h93.46a29,29,0,0,1,3.49.09,7.71,7.71,0,0,1,7,7.28c.1,1.15,0,2.33,0,3.49q0,46.49,0,93c0,1.16.06,2.34,0,3.5a7.54,7.54,0,0,1-7,7.18c-1.32.13-2.67.06-4,.06Z" transform="translate(-189.31 -225.57)"/><path d="M189.32,282.49q0-22.74,0-45.48a31.94,31.94,0,0,1,.14-4.49,7.6,7.6,0,0,1,7.34-6.89c1-.09,2,0,3,0h93.46a34,34,0,0,1,3.5,0,7.69,7.69,0,0,1,7.12,7.14,30,30,0,0,1,.06,3v94c0,1,0,2-.05,3a7.7,7.7,0,0,1-6.91,7.36,19.84,19.84,0,0,1-3,.13H199.54a21.24,21.24,0,0,1-3-.11,7.68,7.68,0,0,1-7.13-7.16,39.49,39.49,0,0,1-.09-4.49Q189.32,305.47,189.32,282.49Z" transform="translate(-189.31 -225.57)"/><path d="M304,512.17v46a38.09,38.09,0,0,1-.07,4,7.54,7.54,0,0,1-7.21,7c-1,.09-2,0-3,0h-94c-1,0-2,0-3,0a7.58,7.58,0,0,1-7.29-6.94,27,27,0,0,1-.1-3.49q0-46.72,0-93.46a27.08,27.08,0,0,1,.09-3.49,7.73,7.73,0,0,1,7.22-7.07,31.41,31.41,0,0,1,3.5-.07h92.95a34,34,0,0,1,3.5.06,7.72,7.72,0,0,1,7.31,7.5c.11,1.32.05,2.66.05,4Z" transform="translate(-189.31 -225.57)"/><path d="M533.05,282.87v45.48c0,1.33.05,2.67,0,4-.26,4.35-2.78,7.15-7,7.75a29.46,29.46,0,0,1-4,.12H429.53a26.8,26.8,0,0,1-4.48-.21,7.34,7.34,0,0,1-6.42-6.67,27.78,27.78,0,0,1-.16-4q0-46.49,0-93a29.31,29.31,0,0,1,.15-4,7.48,7.48,0,0,1,6.91-6.75,31.41,31.41,0,0,1,3.5-.07h93.46a26.53,26.53,0,0,1,4,.13,7.56,7.56,0,0,1,6.46,6.67,37.47,37.47,0,0,1,.1,4.5Q533.05,259.87,533.05,282.87Z" transform="translate(-189.31 -225.57)"/><path d="M361.07,454.64h-46c-1.33,0-2.67.06-4-.06a7.44,7.44,0,0,1-7.07-7.1c-.1-1.16-.05-2.33-.05-3.5V351a38.09,38.09,0,0,1,.08-4,7.38,7.38,0,0,1,6.88-6.73c1.32-.13,2.66-.08,4-.08h92.45a39.54,39.54,0,0,1,4.49.12,7.09,7.09,0,0,1,6.39,6,22,22,0,0,1,.27,4q0,47,0,93.94a23,23,0,0,1-.24,4,7.21,7.21,0,0,1-6.76,6.26c-1.49.14-3,.08-4.49.08Z" transform="translate(-189.31 -225.57)"/><path class="cls-1" d="M828,398.57c0,9.83.15,19.66,0,29.48a106.54,106.54,0,0,1-4,26.6,72,72,0,0,1-5.43,13.93c-7.05,13.59-17.93,22.65-32.68,26.65a84.72,84.72,0,0,1-47.32-.6c-14.7-4.4-25.25-13.72-31.85-27.57-4.28-9-6.46-18.5-7.67-28.3A166.44,166.44,0,0,1,698,417.82c.06-14.32,0-28.64,0-43a141.83,141.83,0,0,1,3-28.76,83.31,83.31,0,0,1,5.87-18c7.26-15.67,19.25-25.66,36-29.7a84.48,84.48,0,0,1,41.05.09c14.82,3.77,25.92,12.46,33.32,25.86A84.05,84.05,0,0,1,826,350.25a140.63,140.63,0,0,1,2.18,25.34c0,7.66,0,15.32,0,23Z" transform="translate(-189.31 -225.57)"/></svg>