<?xml version="1.0" encoding="UTF-8" standalone="no"?>
<!DOCTYPE svg PUBLIC "-//W3C//DTD SVG 1.1//EN" "http://www.w3.org/Graphics/SVG/1.1/DTD/svg11.dtd">
<svg xmlns="http://www.w3.org/2000/svg" version="1.1" viewBox="0.00 0.00 250.00 250.00">
<g stroke-width="2.00" fill="none" stroke-linecap="butt">
<path stroke="#994475" vector-effect="non-scaling-stroke" d="
  M 179.46 44.37
  Q 190.21 51.71 198.73 61.55"
/>
<path stroke="#962d6f" vector-effect="non-scaling-stroke" d="
  M 198.73 61.55
  Q 219.22 85.65 221.92 117.41
  Q 221.94 117.69 222.22 117.69
  L 232.24 117.69
  Q 232.85 117.69 232.80 117.08
  Q 229.59 80.42 206.27 53.59"
/>
<path stroke="#994475" vector-effect="non-scaling-stroke" d="
  M 206.27 53.59
  Q 197.27 43.38 186.01 35.65"
/>
<path stroke="#9b587a" vector-effect="non-scaling-stroke" d="
  M 186.01 35.65
  Q 161.84 19.16 132.67 17.09
  A 0.40 0.40 0.0 0 0 132.24 17.49
  L 132.24 27.47
  Q 132.24 27.94 132.71 27.98
  Q 158.41 30.17 179.46 44.37"
/>
<path stroke="#f99c36" vector-effect="non-scaling-stroke" d="
  M 186.01 35.65
  L 179.46 44.37"
/>
<path stroke="#f4712a" vector-effect="non-scaling-stroke" d="
  M 206.27 53.59
  L 198.73 61.55"
/>
<path stroke="#3256ce" vector-effect="non-scaling-stroke" d="
  M 48.56 48.56
  C 30.12 67.01 18.97 91.46 17.23 117.42
  A 0.34 0.33 2.0 0 0 17.56 117.78
  L 27.56 117.78
  A 0.63 0.62 -87.5 0 0 28.18 117.21
  C 30.01 94.11 39.82 72.82 56.32 56.32
  C 72.83 39.81 94.11 30.00 117.21 28.16
  A 0.63 0.62 -2.5 0 0 117.78 27.54
  L 117.78 17.54
  A 0.34 0.33 88.0 0 0 117.42 17.21
  C 91.46 18.95 67.01 30.11 48.56 48.56"
/>
<path stroke="#8e6295" vector-effect="non-scaling-stroke" d="
  M 90.88 41.75
  L 90.33 48.62"
/>
<path stroke="#743e73" vector-effect="non-scaling-stroke" d="
  M 90.33 48.62
  Q 89.43 59.01 88.43 64.43
  C 87.60 68.97 83.95 72.87 79.24 73.54
  C 75.66 74.05 73.03 75.15 70.55 78.05
  C 65.11 84.39 63.03 91.52 61.50 100.96"
/>
<path stroke="#8e6295" vector-effect="non-scaling-stroke" d="
  M 61.50 100.96
  L 60.73 105.49"
/>
<path stroke="#9a77b8" vector-effect="non-scaling-stroke" d="
  M 60.73 105.49
  Q 60.33 106.85 59.65 108.35
  Q 58.89 110.00 58.60 111.18
  Q 53.40 132.54 63.30 152.02"
/>
<path stroke="#93679d" vector-effect="non-scaling-stroke" d="
  M 63.30 152.02
  Q 63.94 157.99 61.06 163.08
  Q 60.81 163.53 61.03 163.98
  C 62.80 167.66 60.24 168.90 60.19 172.18
  Q 60.09 179.07 59.44 182.65
  Q 59.34 183.21 59.74 183.62
  Q 69.79 194.10 82.58 201.05"
/>
<path stroke="#845380" vector-effect="non-scaling-stroke" d="
  M 82.58 201.05
  Q 91.39 205.91 101.17 208.57"
/>
<path stroke="#8e6295" vector-effect="non-scaling-stroke" d="
  M 101.17 208.57
  L 107.40 210.09"
/>
<path stroke="#93679d" vector-effect="non-scaling-stroke" d="
  M 107.40 210.09
  Q 139.46 216.20 167.32 202.03"
/>
<path stroke="#854e73" vector-effect="non-scaling-stroke" d="
  M 167.32 202.03
  Q 182.17 194.49 193.37 182.16
  Q 193.70 181.79 193.66 181.29
  Q 193.22 175.98 193.26 170.76
  Q 193.27 168.92 191.98 162.99"
/>
<path stroke="#8b567b" vector-effect="non-scaling-stroke" d="
  M 191.98 162.99
  C 191.35 161.15 190.76 159.62 190.73 157.61
  Q 190.57 147.87 189.84 143.93
  Q 189.08 139.84 188.70 138.85
  Q 184.81 128.71 183.85 122.36
  C 183.32 118.80 182.02 116.11 180.67 112.51
  C 179.07 108.19 178.86 101.08 178.26 96.64
  Q 177.82 93.42 175.82 88.86
  Q 174.24 85.26 172.50 81.40"
/>
<path stroke="#743e73" vector-effect="non-scaling-stroke" d="
  M 172.50 81.40
  Q 171.79 77.05 172.72 71.82
  Q 173.45 67.69 173.33 65.09
  C 173.06 59.75 172.40 52.04 170.01 48.25
  Q 166.20 42.23 159.29 46.20"
/>
<path stroke="#854e73" vector-effect="non-scaling-stroke" d="
  M 159.29 46.20
  L 149.58 56.72"
/>
<path stroke="#804472" vector-effect="non-scaling-stroke" d="
  M 149.58 56.72
  Q 147.37 58.85 145.10 61.10
  Q 143.72 62.47 142.24 62.29
  Q 133.76 61.27 126.53 62.86"
/>
<path stroke="#8b567b" vector-effect="non-scaling-stroke" d="
  M 126.53 62.86
  C 123.54 63.17 120.87 63.73 117.84 63.24
  Q 113.80 62.59 109.73 62.09
  Q 108.55 61.95 106.26 59.64"
/>
<path stroke="#804472" vector-effect="non-scaling-stroke" d="
  M 106.26 59.64
  Q 104.30 55.71 102.65 51.22
  Q 101.82 48.99 100.19 47.12
  Q 98.02 44.63 96.11 41.92"
/>
<path stroke="#8b567b" vector-effect="non-scaling-stroke" d="
  M 96.11 41.92
  Q 95.17 40.71 93.63 40.38
  Q 91.49 39.92 90.88 41.75"
/>
<path stroke="#d09a34" vector-effect="non-scaling-stroke" d="
  M 96.11 41.92
  Q 95.28 43.91 95.53 44.68
  Q 97.58 51.13 97.23 58.54
  Q 97.14 60.41 98.55 61.95
  Q 98.88 62.31 99.34 62.16
  Q 103.43 60.81 106.95 61.26
  Q 107.58 61.34 107.19 60.84
  L 106.26 59.64"
/>
<path stroke="#d09a34" vector-effect="non-scaling-stroke" d="
  M 126.53 62.86
  Q 124.43 63.88 121.89 63.84
  Q 121.87 63.84 121.88 63.85
  Q 121.88 63.86 121.88 63.87
  L 121.90 63.87
  Q 121.96 63.85 122.03 63.96
  Q 122.09 64.05 122.20 64.05
  Q 126.84 64.25 133.08 63.91
  C 135.85 63.77 139.37 64.17 141.71 64.43
  A 0.39 0.39 0.0 0 1 141.93 65.10
  Q 139.75 67.12 138.57 69.66
  Q 138.35 70.13 138.61 70.57
  Q 139.83 72.68 141.53 74.07"
/>
<path stroke="#d4a335" vector-effect="non-scaling-stroke" d="
  M 141.53 74.07
  Q 144.47 79.01 146.65 81.11
  Q 151.35 85.64 159.31 87.39"
/>
<path stroke="#bb872d" vector-effect="non-scaling-stroke" d="
  M 159.31 87.39
  Q 160.55 88.16 161.96 87.68
  Q 162.55 87.48 162.62 87.05
  Q 162.71 86.50 162.16 86.40
  Q 160.64 86.11 159.74 85.48
  Q 159.29 85.17 159.36 84.62
  Q 159.62 82.72 161.10 81.32"
/>
<path stroke="#c49435" vector-effect="non-scaling-stroke" d="
  M 161.10 81.32
  L 166.35 77.11
  Q 166.87 76.69 166.90 77.35
  Q 167.07 80.46 168.88 82.95
  A 0.52 0.52 0.0 0 0 169.73 82.94
  Q 170.76 81.50 171.17 79.58
  Q 171.32 78.91 171.61 79.53
  L 172.50 81.40"
/>
<path stroke="#d4a335" vector-effect="non-scaling-stroke" d="
  M 191.98 162.99
  L 190.23 159.18
  Q 189.98 158.62 189.73 159.18
  L 186.49 166.33"
/>
<path stroke="#ddb757" vector-effect="non-scaling-stroke" d="
  M 186.49 166.33
  Q 185.31 162.32 181.21 163.59
  Q 179.49 164.12 177.48 165.90
  Q 174.66 168.41 170.45 168.32
  A 1.54 1.48 28.5 0 0 169.61 168.55
  Q 164.57 171.75 163.63 172.13
  Q 162.47 172.60 162.28 171.17"
/>
<path stroke="#c49435" vector-effect="non-scaling-stroke" d="
  M 162.28 171.17
  Q 167.37 167.66 170.96 161.47"
/>
<path stroke="#d4a335" vector-effect="non-scaling-stroke" d="
  M 170.96 161.47
  L 176.19 157.87
  Q 177.21 157.17 176.88 158.36
  L 176.50 159.74
  Q 176.17 160.94 177.25 160.31
  L 182.51 157.27
  Q 182.96 157.01 183.17 156.54
  Q 184.85 152.72 184.37 147.63
  Q 184.33 147.12 183.84 147.29
  L 182.17 147.88
  Q 181.37 148.16 181.31 147.31
  L 180.90 140.77
  Q 180.86 140.23 180.39 139.96
  L 177.71 138.41
  A 0.75 0.73 -63.1 0 1 177.41 137.46
  Q 179.90 132.12 179.84 126.76
  Q 179.82 125.15 179.02 126.55
  Q 176.23 131.46 169.65 141.91
  Q 168.80 143.26 166.44 145.12
  Q 166.20 145.30 166.00 145.31
  Q 165.78 145.31 165.60 145.21
  Q 165.12 144.93 165.37 144.44
  C 170.59 134.29 174.95 120.70 168.78 110.16
  Q 167.70 108.31 167.59 110.45
  L 166.97 122.17"
/>
<path stroke="#e2bc5f" vector-effect="non-scaling-stroke" d="
  M 166.97 122.17
  L 162.90 102.64"
/>
<path stroke="#deb145" vector-effect="non-scaling-stroke" d="
  M 162.90 102.64
  Q 161.50 100.63 158.74 95.02
  Q 155.66 88.76 148.23 87.80
  Q 147.70 87.73 147.44 87.27
  L 144.86 82.79
  Q 144.50 82.18 144.03 82.72
  C 141.10 86.09 141.76 89.29 141.01 92.79
  C 140.09 97.15 135.03 99.98 130.97 101.76"
/>
<path stroke="#a7883e" vector-effect="non-scaling-stroke" d="
  M 130.97 101.76
  Q 131.79 100.66 131.20 100.09"
/>
<path stroke="#7f6321" vector-effect="non-scaling-stroke" d="
  M 131.20 100.09
  Q 131.77 99.99 131.44 99.29
  Q 131.30 99.00 130.95 98.79
  C 127.52 96.81 123.81 94.47 120.05 94.94"
/>
<path stroke="#deb145" vector-effect="non-scaling-stroke" d="
  M 120.05 94.94
  Q 122.09 92.04 122.82 88.43
  A 1.65 1.62 74.2 0 1 123.30 87.55
  Q 125.68 85.25 129.04 83.98
  A 1.07 1.06 56.2 0 0 129.39 82.20
  Q 124.23 77.41 116.98 77.19
  A 1.72 1.70 22.9 0 0 115.68 77.71
  L 112.51 81.02"
/>
<path stroke="#d4a335" vector-effect="non-scaling-stroke" d="
  M 112.51 81.02
  L 113.10 77.03
  Q 113.18 76.52 113.61 76.25
  Q 117.97 73.51 121.20 69.45
  Q 122.09 68.34 120.73 68.79
  Q 111.96 71.71 106.82 79.08
  C 104.69 82.13 103.32 86.89 100.69 90.58"
/>
<path stroke="#ddb757" vector-effect="non-scaling-stroke" d="
  M 100.69 90.58
  Q 100.47 89.80 100.07 89.90"
/>
<path stroke="#deb145" vector-effect="non-scaling-stroke" d="
  M 100.07 89.90
  Q 102.02 82.42 104.95 75.47
  C 106.27 72.35 106.89 65.91 102.64 64.64
  C 99.20 63.61 97.07 64.47 94.30 66.91
  Q 91.26 69.61 88.02 72.09
  Q 87.53 72.47 87.52 71.85
  Q 87.51 71.06 88.32 70.26"
/>
<path stroke="#ddb757" vector-effect="non-scaling-stroke" d="
  M 88.32 70.26
  Q 95.65 60.85 95.14 48.92
  Q 95.03 46.44 94.12 44.79
  Q 92.86 42.51 90.88 41.75"
/>
<path stroke="#dcb457" vector-effect="non-scaling-stroke" d="
  M 167.32 202.03
  Q 167.41 200.31 169.13 199.11
  Q 172.46 196.77 175.36 194.42"
/>
<path stroke="#d7af4f" vector-effect="non-scaling-stroke" d="
  M 175.36 194.42
  C 176.52 191.66 179.26 190.12 180.61 188.59
  Q 182.65 186.27 184.17 183.98
  A 3.37 3.37 0.0 0 0 184.71 181.90
  Q 184.37 177.07 185.53 172.62
  Q 185.65 172.14 185.50 171.66
  Q 185.15 170.53 185.69 169.54
  C 186.13 168.73 186.22 167.40 186.49 166.33"
/>
<path stroke="#4b4022" vector-effect="non-scaling-stroke" d="
  M 131.20 100.09
  Q 127.93 101.83 125.11 105.31
  Q 124.79 105.71 124.28 105.67
  L 121.95 105.51"
/>
<path stroke="#877443" vector-effect="non-scaling-stroke" d="
  M 121.95 105.51
  Q 120.06 104.46 119.42 102.83
  Q 118.83 101.30 119.70 100.81"
/>
<path stroke="#8e845e" vector-effect="non-scaling-stroke" d="
  M 119.70 100.81
  Q 121.43 100.05 122.50 98.14
  Q 123.06 97.12 122.01 96.63
  L 120.82 96.08"
/>
<path stroke="#877443" vector-effect="non-scaling-stroke" d="
  M 120.82 96.08
  Q 115.02 97.52 114.91 103.50
  Q 114.89 104.75 116.46 105.56"
/>
<path stroke="#4b4022" vector-effect="non-scaling-stroke" d="
  M 116.46 105.56
  Q 116.85 106.26 116.00 106.72"
/>
<path stroke="#745218" vector-effect="non-scaling-stroke" d="
  M 112.51 104.90
  Q 112.45 104.82 112.39 104.73"
/>
<path stroke="#412b12" vector-effect="non-scaling-stroke" d="
  M 112.39 104.73
  Q 111.89 101.59 114.13 98.22"
/>
<path stroke="#e5c878" vector-effect="non-scaling-stroke" d="
  M 175.36 194.42
  C 174.34 190.81 175.72 188.52 177.34 184.78
  Q 178.86 181.26 177.63 174.87
  Q 177.52 174.33 176.98 174.31
  Q 166.06 173.91 158.80 180.82
  C 153.70 185.69 150.77 188.46 144.60 190.54
  Q 141.64 191.54 128.94 196.43
  Q 125.73 197.67 123.76 199.25
  Q 116.02 205.45 107.40 210.09"
/>
<path stroke="#e1bd5f" vector-effect="non-scaling-stroke" d="
  M 88.32 70.26
  L 88.26 68.23"
/>
<path stroke="#c7a04e" vector-effect="non-scaling-stroke" d="
  M 88.26 68.23
  Q 90.80 64.31 91.21 62.44
  Q 92.79 55.16 90.33 48.62"
/>
<path stroke="#966b26" vector-effect="non-scaling-stroke" d="
  M 151.67 70.96
  Q 151.32 71.54 151.23 72.00
  Q 151.07 72.81 151.79 72.40
  L 153.48 71.42
  Q 153.93 71.16 154.45 71.20
  Q 155.76 71.31 157.11 70.39
  Q 157.34 70.24 157.54 70.42
  Q 157.65 70.52 157.69 70.65
  Q 157.75 70.85 157.60 71.00
  Q 156.07 72.43 156.01 72.50
  Q 154.93 73.93 156.51 73.58
  L 160.03 72.80
  Q 160.37 72.73 160.34 73.08
  L 160.28 73.75
  A 0.38 0.38 0.0 0 1 159.89 74.10
  Q 155.85 74.05 154.55 77.40
  C 153.94 78.96 153.08 79.70 151.96 80.52
  Q 149.55 82.28 152.47 82.14
  Q 153.79 82.08 155.00 84.67"
/>
<path stroke="#b57f25" vector-effect="non-scaling-stroke" d="
  M 155.00 84.67
  L 159.31 87.39"
/>
<path stroke="#ca922c" vector-effect="non-scaling-stroke" d="
  M 141.53 74.07
  L 144.46 74.71"
/>
<path stroke="#b57f25" vector-effect="non-scaling-stroke" d="
  M 144.46 74.71
  Q 145.95 75.60 145.39 79.21
  Q 145.35 79.46 145.58 79.58
  Q 145.76 79.66 145.96 79.68
  A 0.33 0.31 -72.7 0 0 146.25 79.52
  L 147.19 77.90
  Q 147.43 77.49 147.47 77.01
  L 148.17 69.38
  Q 148.21 68.95 147.90 68.63
  Q 147.28 68.01 148.04 67.02
  Q 148.75 66.09 150.60 62.57
  Q 151.17 61.47 150.88 59.21"
/>
<path stroke="#ca922c" vector-effect="non-scaling-stroke" d="
  M 150.88 59.21
  Q 151.24 58.41 151.32 57.55
  Q 151.38 57.01 150.87 56.82
  Q 150.37 56.62 149.58 56.72"
/>
<path stroke="#be8c2d" vector-effect="non-scaling-stroke" d="
  M 170.96 161.47
  L 174.29 154.11
  A 0.90 0.90 0.0 0 0 173.18 152.89
  Q 173.05 152.93 172.84 153.01
  Q 172.29 153.22 172.22 152.64
  Q 172.16 152.17 172.55 151.56
  Q 173.84 149.55 176.29 146.01
  Q 176.32 145.96 176.29 145.92
  L 176.16 145.69
  A 0.34 0.34 0.0 0 0 175.62 145.63
  C 173.01 148.59 169.85 152.03 166.21 154.61
  C 163.56 156.49 160.75 158.13 159.65 160.54
  Q 159.42 161.04 159.74 161.49
  Q 160.26 162.25 160.20 163.49
  A 0.44 0.44 0.0 0 0 160.91 163.87
  L 164.05 161.55
  Q 164.89 160.92 164.60 161.93
  Q 163.59 165.42 161.61 168.64
  Q 160.93 169.76 158.52 172.73
  Q 158.17 173.16 158.72 173.26
  Q 159.05 173.32 159.54 173.08"
/>
<path stroke="#d7af4f" vector-effect="non-scaling-stroke" d="
  M 159.54 173.08
  Q 159.22 173.52 158.83 173.73
  Q 158.39 173.97 157.95 173.75
  Q 157.27 173.43 156.52 173.68
  Q 154.37 174.40 153.41 174.68
  Q 151.44 175.25 152.80 173.72
  C 154.84 171.44 157.89 168.44 157.26 165.49
  Q 157.15 164.97 156.63 165.09
  Q 154.27 165.65 153.89 164.81"
/>
<path stroke="#e6c267" vector-effect="non-scaling-stroke" d="
  M 162.90 102.64
  Q 153.81 101.97 144.81 101.44
  C 141.71 101.26 139.33 100.64 137.94 102.96
  Q 136.49 105.37 134.81 107.70
  Q 133.52 109.49 131.06 110.62
  Q 128.89 111.60 122.36 114.38
  C 120.04 115.36 117.05 113.41 114.63 114.61
  Q 113.14 115.35 111.91 116.80"
/>
<path stroke="#d39f3c" vector-effect="non-scaling-stroke" d="
  M 109.05 109.17
  Q 110.63 108.18 110.93 105.43
  Q 110.99 104.89 111.53 104.90
  L 112.51 104.90"
/>
<path stroke="#826929" vector-effect="non-scaling-stroke" d="
  M 112.51 104.90
  Q 113.96 106.16 116.00 106.72"
/>
<path stroke="#aa8d46" vector-effect="non-scaling-stroke" d="
  M 116.00 106.72
  Q 121.59 108.02 124.76 107.01
  Q 127.87 106.02 130.97 101.76"
/>
<path stroke="#e1bd5f" vector-effect="non-scaling-stroke" d="
  M 99.81 96.93
  L 99.59 97.11
  Q 99.34 97.31 99.44 97.62
  L 103.74 109.84
  Q 103.83 110.10 104.07 109.96
  L 107.43 107.96"
/>
<path stroke="#d3a64d" vector-effect="non-scaling-stroke" d="
  M 107.43 107.96
  L 109.05 109.17"
/>
<path stroke="#e1bd5f" vector-effect="non-scaling-stroke" d="
  M 109.05 109.17
  L 111.91 116.80"
/>
<path stroke="#e5c878" vector-effect="non-scaling-stroke" d="
  M 111.91 116.80
  L 110.45 130.60"
/>
<path stroke="#e1bd5f" vector-effect="non-scaling-stroke" d="
  M 110.45 130.60
  L 110.48 124.67
  Q 110.48 124.17 110.04 123.93
  Q 108.61 123.18 106.57 124.24"
/>
<path stroke="#e5c878" vector-effect="non-scaling-stroke" d="
  M 106.57 124.24
  Q 104.36 119.97 102.06 115.77
  C 99.27 110.68 93.96 111.00 89.13 110.34
  Q 82.74 109.45 75.31 106.86"
/>
<path stroke="#edd894" vector-effect="non-scaling-stroke" d="
  M 75.31 106.86
  Q 71.61 105.54 72.58 97.66
  C 72.93 94.83 76.18 95.11 75.92 92.55
  C 75.73 90.60 73.16 90.37 71.71 90.86
  Q 71.18 91.04 70.91 91.53
  L 68.96 94.89
  A 1.00 0.95 4.6 0 1 68.43 95.32
  C 65.35 96.34 66.11 98.54 65.00 100.42
  Q 63.28 103.33 60.73 105.49"
/>
<path stroke="#7d4f1d" vector-effect="non-scaling-stroke" d="
  M 155.00 84.67
  C 160.50 79.99 163.29 73.52 165.85 67.02
  A 1.16 1.15 6.0 0 0 164.58 65.46
  L 155.27 66.98"
/>
<path stroke="#d8a93d" vector-effect="non-scaling-stroke" d="
  M 112.51 81.02
  Q 110.09 84.16 109.29 88.21
  Q 109.10 89.17 108.70 89.80
  Q 108.05 90.83 107.56 91.08
  Q 104.14 92.87 102.57 94.82
  Q 101.05 96.72 100.28 97.47
  Q 99.95 97.79 99.71 97.39
  Q 99.60 97.19 99.81 96.93"
/>
<path stroke="#d7af4f" vector-effect="non-scaling-stroke" d="
  M 99.81 96.93
  L 100.69 90.58"
/>
<path stroke="#dcb457" vector-effect="non-scaling-stroke" d="
  M 166.97 122.17
  Q 166.64 125.92 165.44 128.99
  Q 159.47 144.29 150.65 157.30
  Q 149.69 158.72 151.25 158.00
  L 156.83 155.40
  Q 157.88 154.92 157.12 155.79
  L 153.76 159.64
  Q 152.71 160.86 154.36 160.52
  Q 154.52 160.48 154.72 160.64
  Q 155.07 160.90 154.95 161.32
  L 153.89 164.81"
/>
<path stroke="#e5c878" vector-effect="non-scaling-stroke" d="
  M 153.89 164.81
  L 140.27 172.29
  Q 139.84 172.53 139.36 172.45
  L 130.48 170.93"
/>
<path stroke="#dbb964" vector-effect="non-scaling-stroke" d="
  M 130.48 170.93
  L 141.36 162.65
  Q 142.04 162.13 141.19 162.13
  L 140.57 162.13
  A 0.37 0.37 0.0 0 1 140.32 161.49
  Q 141.11 160.76 141.42 160.33
  Q 142.55 158.78 140.77 159.51
  C 138.97 160.25 137.11 161.94 135.16 162.88
  Q 134.73 163.08 127.84 166.29
  C 123.18 168.47 119.15 169.63 114.72 170.16
  Q 110.00 170.73 105.91 171.47
  Q 99.19 172.70 97.14 172.74
  Q 87.73 172.90 79.82 168.29"
/>
<path stroke="#e6c267" vector-effect="non-scaling-stroke" d="
  M 79.82 168.29
  C 77.92 163.35 73.64 161.36 70.66 159.00
  Q 70.43 158.82 70.18 158.82
  Q 69.86 158.82 69.71 159.14
  Q 69.49 159.64 69.01 159.37
  Q 68.44 159.05 67.95 158.39"
/>
<path stroke="#af9960" vector-effect="non-scaling-stroke" d="
  M 72.33 139.31
  L 72.71 139.70"
/>
<path stroke="#e5c878" vector-effect="non-scaling-stroke" d="
  M 72.71 139.70
  Q 75.36 147.06 79.93 153.38
  C 81.66 155.76 83.89 156.77 85.79 158.66
  C 91.75 164.61 98.88 156.82 104.50 152.03
  C 108.61 148.54 112.00 147.50 116.51 145.78
  A 1.62 1.61 -21.9 0 0 117.42 143.65
  Q 116.16 140.66 113.52 137.98"
/>
<path stroke="#dbb964" vector-effect="non-scaling-stroke" d="
  M 113.52 137.98
  L 113.03 137.24"
/>
<path stroke="#e6c267" vector-effect="non-scaling-stroke" d="
  M 113.03 137.24
  Q 111.23 135.77 111.85 133.70
  Q 111.99 133.23 111.69 132.85
  Q 110.78 131.70 110.45 130.60"
/>
<path stroke="#c7a04e" vector-effect="non-scaling-stroke" d="
  M 162.28 171.17
  L 159.54 173.08"
/>
<path stroke="#a47024" vector-effect="non-scaling-stroke" d="
  M 161.10 81.32
  L 167.31 72.19
  A 0.87 0.86 -54.1 0 0 167.13 71.03
  Q 166.46 70.50 166.67 69.45
  Q 167.01 67.67 168.39 64.35
  A 0.48 0.48 0.0 0 0 167.90 63.69
  C 163.27 64.16 159.66 64.41 155.27 66.98"
/>
<path stroke="#865c25" vector-effect="non-scaling-stroke" d="
  M 155.27 66.98
  C 152.81 67.66 152.77 69.04 151.67 70.96"
/>
<path stroke="#be8c2d" vector-effect="non-scaling-stroke" d="
  M 151.67 70.96
  C 149.82 69.01 151.09 67.31 152.82 65.82
  Q 155.22 63.73 157.40 61.40
  Q 158.27 60.48 163.53 58.46
  A 1.12 1.08 -1.0 0 0 164.16 57.83
  C 165.77 53.64 162.24 50.71 159.40 48.46
  Q 158.88 48.05 159.02 47.40
  L 159.29 46.20"
/>
<path stroke="#e1bd5f" vector-effect="non-scaling-stroke" d="
  M 100.07 89.90
  Q 95.71 92.04 92.77 94.72
  Q 90.54 96.76 91.64 93.95
  Q 93.06 90.33 96.28 87.20
  C 100.77 82.84 100.55 77.42 99.07 72.06
  A 1.43 1.43 0.0 0 0 97.43 71.04
  C 96.06 71.30 94.80 71.93 93.78 73.00
  Q 89.35 77.62 84.47 81.71
  C 83.36 82.65 82.52 83.96 81.55 85.14
  Q 81.39 85.33 81.31 85.09
  L 81.09 84.46
  Q 80.98 84.15 81.18 83.88
  Q 85.48 78.20 87.19 72.71
  Q 87.51 71.67 86.10 71.77"
/>
<path stroke="#b07623" vector-effect="non-scaling-stroke" d="
  M 150.88 59.21
  Q 150.59 59.17 150.29 59.38
  Q 150.08 59.53 149.96 59.85
  Q 148.16 64.38 144.10 69.57
  Q 141.84 72.46 144.46 74.71"
/>
<path stroke="#826929" vector-effect="non-scaling-stroke" d="
  M 120.05 94.94
  Q 116.60 95.62 114.13 98.22"
/>
<path stroke="#d39f3c" vector-effect="non-scaling-stroke" d="
  M 114.13 98.22
  Q 112.55 98.14 112.56 96.57
  Q 112.57 96.03 112.05 95.92
  C 110.96 95.67 109.88 95.57 109.07 96.75
  Q 108.57 97.48 106.91 98.65
  A 1.22 1.21 47.9 0 0 106.82 100.56
  Q 107.50 101.15 107.30 102.24
  Q 106.76 105.14 107.43 107.96"
/>
<path stroke="#926224" vector-effect="non-scaling-stroke" d="
  M 114.13 98.22
  L 113.34 98.29
  Q 112.82 98.33 112.57 98.78
  Q 111.68 100.32 110.08 100.86
  A 0.51 0.51 0.0 0 0 109.78 101.56
  Q 110.72 103.61 112.39 104.73"
/>
<path stroke="#f2dd9c" vector-effect="non-scaling-stroke" d="
  M 120.82 96.08
  Q 120.52 97.21 119.23 98.95
  Q 118.38 100.11 119.70 100.81"
/>
<path stroke="#af9960" vector-effect="non-scaling-stroke" d="
  M 121.95 105.51
  Q 119.79 106.44 116.46 105.56"
/>
<path stroke="#d6b45c" vector-effect="non-scaling-stroke" d="
  M 130.48 170.93
  Q 125.97 172.74 125.04 173.80
  Q 123.30 175.78 120.63 176.60
  Q 115.43 178.18 110.25 179.34
  A 0.93 0.93 0.0 0 0 109.65 180.71
  L 109.82 181.00
  Q 110.13 181.54 109.65 181.94
  L 107.09 184.09
  A 0.90 0.89 63.1 0 0 106.80 185.00
  L 107.17 186.43
  Q 107.31 186.95 106.78 187.02
  L 103.48 187.44
  Q 102.97 187.51 102.97 188.03
  L 102.97 189.48
  A 1.27 1.24 64.7 0 1 102.70 190.26
  L 100.32 193.24
  Q 100.03 193.62 99.61 193.38
  L 98.98 193.02
  Q 98.60 192.80 98.38 193.18
  L 96.79 195.93
  Q 96.59 196.29 96.21 196.10
  Q 95.95 195.97 95.67 195.66
  A 0.78 0.75 -26.9 0 0 94.95 195.44
  C 91.97 196.07 91.95 199.47 91.41 202.48
  Q 91.32 202.97 91.65 203.35
  C 93.52 205.51 97.38 204.81 101.41 204.76
  Q 102.25 204.75 102.55 205.04
  Q 103.05 205.52 102.98 206.21
  A 1.14 1.14 0.0 0 1 102.52 207.04
  Q 101.71 207.65 101.17 208.57"
/>
<path stroke="#c7993d" vector-effect="non-scaling-stroke" d="
  M 88.26 68.23
  L 86.10 71.77"
/>
<path stroke="#c7a04e" vector-effect="non-scaling-stroke" d="
  M 86.10 71.77
  Q 81.94 74.11 77.42 75.73
  Q 74.86 76.65 73.51 78.09
  C 67.32 84.65 65.20 91.72 63.17 100.35
  A 0.82 0.53 78.0 0 1 63.12 100.48
  Q 62.55 101.88 61.50 100.96"
/>
<path stroke="#e6c267" vector-effect="non-scaling-stroke" d="
  M 106.57 124.24
  Q 106.92 125.49 106.48 126.43
  Q 106.27 126.88 105.80 127.05
  L 102.90 128.07
  Q 102.32 128.27 102.01 128.81
  L 99.78 132.66
  Q 99.52 133.13 99.01 133.31
  L 97.45 133.85
  Q 96.85 134.06 97.09 134.65
  Q 97.37 135.33 97.39 135.99
  Q 97.40 136.53 96.90 136.74
  L 93.55 138.18"
/>
<path stroke="#877443" vector-effect="non-scaling-stroke" d="
  M 93.55 138.18
  L 90.63 136.76"
/>
<path stroke="#af9960" vector-effect="non-scaling-stroke" d="
  M 90.63 136.76
  Q 88.81 134.69 89.54 132.78
  Q 89.71 132.34 89.50 131.92
  Q 89.21 131.32 88.56 131.01
  A 1.07 1.07 0.0 0 1 87.96 130.21
  Q 87.78 129.08 88.04 128.12
  A 0.65 0.65 0.0 0 1 88.99 127.73
  L 89.74 128.17
  A 0.53 0.53 0.0 0 1 89.94 128.89
  Q 89.59 129.53 89.91 130.57
  A 0.37 0.37 0.0 0 0 90.46 130.77
  Q 90.63 130.66 90.69 130.52
  Q 90.85 130.11 90.83 129.98
  Q 90.62 128.87 89.75 127.24
  Q 89.58 126.92 89.22 126.95
  Q 88.97 126.97 88.87 126.94
  Q 88.21 126.71 88.97 126.27
  Q 89.55 125.93 90.26 125.90
  Q 90.46 125.89 90.55 125.70
  Q 90.62 125.53 90.59 125.36
  Q 90.52 124.97 90.13 124.93
  Q 89.34 124.85 89.02 124.28
  A 0.59 0.59 0.0 0 1 89.20 123.49
  Q 91.00 122.24 91.15 120.19"
/>
<path stroke="#877443" vector-effect="non-scaling-stroke" d="
  M 91.15 120.19
  C 93.38 117.91 93.38 115.08 90.47 113.37
  C 87.18 111.42 82.66 110.35 79.13 110.36"
/>
<path stroke="#d7ae4a" vector-effect="non-scaling-stroke" d="
  M 113.03 137.24
  L 112.29 138.77"
/>
<path stroke="#826929" vector-effect="non-scaling-stroke" d="
  M 112.29 138.77
  Q 112.52 137.97 111.55 137.56
  C 110.36 137.06 108.13 137.46 106.91 137.54
  C 101.46 137.91 98.41 141.17 93.55 138.18"
/>
<path stroke="#f2dd9c" vector-effect="non-scaling-stroke" d="
  M 75.31 106.86
  L 79.13 110.36"
/>
<path stroke="#8e845e" vector-effect="non-scaling-stroke" d="
  M 79.13 110.36
  Q 71.28 110.29 70.55 119.03"
/>
<path stroke="#b6a97b" vector-effect="non-scaling-stroke" d="
  M 70.55 119.03
  Q 68.08 125.05 68.68 129.25
  Q 68.98 131.40 71.38 133.97"
/>
<path stroke="#8e845e" vector-effect="non-scaling-stroke" d="
  M 71.38 133.97
  L 71.76 134.88"
/>
<path stroke="#b6a97b" vector-effect="non-scaling-stroke" d="
  M 71.76 134.88
  Q 71.66 137.10 72.33 139.31"
/>
<path stroke="#f2dd9c" vector-effect="non-scaling-stroke" d="
  M 72.33 139.31
  Q 71.25 143.44 69.18 147.35
  Q 68.20 149.20 68.60 154.62
  Q 68.67 155.47 67.95 158.39"
/>
<path stroke="#edd282" vector-effect="non-scaling-stroke" d="
  M 67.95 158.39
  Q 66.94 155.71 65.34 155.08"
/>
<path stroke="#f2dd9c" vector-effect="non-scaling-stroke" d="
  M 65.34 155.08
  Q 65.11 153.95 63.30 152.02"
/>
<path stroke="#a08543" vector-effect="non-scaling-stroke" d="
  M 106.27 140.41
  Q 102.81 142.38 99.07 143.13
  C 96.27 143.69 93.36 143.01 90.50 142.51
  Q 89.27 142.30 86.35 142.94
  Q 85.87 143.05 85.51 143.40
  Q 83.36 145.45 79.75 145.77"
/>
<path stroke="#aa9458" vector-effect="non-scaling-stroke" d="
  M 79.75 145.77
  L 72.71 139.70"
/>
<path stroke="#d6b45c" vector-effect="non-scaling-stroke" d="
  M 113.52 137.98
  Q 113.50 143.62 109.13 144.25
  Q 105.60 144.76 105.16 144.91
  C 100.67 146.46 97.43 149.71 92.43 147.74
  Q 91.93 147.54 91.40 147.64
  Q 84.73 148.86 79.75 145.77"
/>
<path stroke="#d7ae4a" vector-effect="non-scaling-stroke" d="
  M 79.82 168.29
  Q 76.47 166.23 73.77 164.25
  Q 73.54 164.08 73.61 164.30
  Q 73.65 164.44 73.57 164.55
  Q 73.48 164.67 73.57 164.78
  Q 78.09 170.07 83.93 173.52
  C 87.50 175.64 91.85 176.00 94.49 179.01
  Q 97.06 181.94 97.59 186.48
  A 0.52 0.51 4.3 0 1 96.94 187.03
  Q 94.93 186.49 92.85 185.69
  Q 90.55 184.81 86.35 181.72"
/>
<path stroke="#e6c267" vector-effect="non-scaling-stroke" d="
  M 65.34 155.08
  Q 67.50 162.11 69.54 165.97
  Q 70.28 167.37 71.99 169.35
  Q 73.19 170.73 75.34 171.59
  Q 83.65 174.90 86.35 181.72"
/>
<path stroke="#dbb964" vector-effect="non-scaling-stroke" d="
  M 86.35 181.72
  Q 85.58 187.68 87.94 193.06
  Q 88.14 193.52 88.03 194.01
  Q 86.78 199.62 82.58 201.05"
/>
<path stroke="#4b4022" vector-effect="non-scaling-stroke" d="
  M 90.63 136.76
  Q 88.87 136.25 82.21 134.01
  Q 76.87 132.22 71.38 133.97"
/>
<path stroke="#786026" vector-effect="non-scaling-stroke" d="
  M 112.29 138.77
  L 106.27 140.41"
/>
<path stroke="#4b4022" vector-effect="non-scaling-stroke" d="
  M 106.27 140.41
  Q 98.54 141.09 96.56 140.45
  C 92.89 139.28 89.33 137.99 85.50 137.36
  Q 78.54 136.20 71.76 134.88"
/>
<path stroke="#4b4022" vector-effect="non-scaling-stroke" d="
  M 91.15 120.19
  C 88.16 123.15 87.33 126.13 82.20 127.32
  C 81.14 127.57 79.37 127.26 78.40 127.49
  Q 77.90 127.61 77.90 128.12
  Q 77.90 129.40 77.40 130.15
  Q 76.82 130.99 76.76 129.97
  L 76.59 127.50
  Q 76.56 127.00 76.15 126.70
  C 72.59 124.19 72.21 122.30 70.55 119.03"
/>
<path stroke="#57139e" vector-effect="non-scaling-stroke" d="
  M 25.23 166.31
  L 31.72 179.49"
/>
<path stroke="#66129d" vector-effect="non-scaling-stroke" d="
  M 31.72 179.49
  L 38.77 190.06"
/>
<path stroke="#7a119b" vector-effect="non-scaling-stroke" d="
  M 38.77 190.06
  Q 45.83 199.45 54.70 207.05"
/>
<path stroke="#940f99" vector-effect="non-scaling-stroke" d="
  M 54.70 207.05
  Q 81.71 229.95 117.20 232.77
  Q 117.79 232.82 117.79 232.23
  L 117.79 222.53
  Q 117.79 221.95 117.22 221.90
  Q 85.65 219.07 61.59 198.67"
/>
<path stroke="#7a119b" vector-effect="non-scaling-stroke" d="
  M 61.59 198.67
  Q 52.99 191.17 46.22 182.00"
/>
<path stroke="#66129d" vector-effect="non-scaling-stroke" d="
  M 46.22 182.00
  L 39.05 170.44"
/>
<path stroke="#57139e" vector-effect="non-scaling-stroke" d="
  M 39.05 170.44
  L 32.94 156.24"
/>
<path stroke="#47149f" vector-effect="non-scaling-stroke" d="
  M 32.94 156.24
  Q 29.06 144.79 28.16 132.87
  A 0.64 0.64 0.0 0 0 27.52 132.28
  L 17.74 132.28
  A 0.52 0.52 0.0 0 0 17.22 132.84
  Q 18.33 147.93 23.45 162.25
  Q 24.19 164.31 25.23 166.31"
/>
<path stroke="#632684" vector-effect="non-scaling-stroke" d="
  M 32.94 156.24
  L 25.23 166.31"
/>
<path stroke="#822481" vector-effect="non-scaling-stroke" d="
  M 39.05 170.44
  L 31.72 179.49"
/>
<path stroke="#a5227f" vector-effect="non-scaling-stroke" d="
  M 46.22 182.00
  L 38.77 190.06"
/>
<path stroke="#d3207b" vector-effect="non-scaling-stroke" d="
  M 61.59 198.67
  L 54.70 207.05"
/>
<path stroke="#3256ce" vector-effect="non-scaling-stroke" d="
  M 201.43 201.43
  C 219.88 182.99 231.04 158.55 232.79 132.59
  A 0.34 0.33 2.0 0 0 232.45 132.23
  L 222.46 132.23
  A 0.63 0.62 -87.5 0 0 221.84 132.80
  C 219.99 155.89 210.18 177.17 193.68 193.67
  C 177.17 210.16 155.89 219.96 132.80 221.80
  A 0.63 0.62 -2.5 0 0 132.22 222.41
  L 132.22 232.41
  A 0.34 0.33 88.0 0 0 132.58 232.75
  C 158.54 231.01 182.99 219.87 201.43 201.43"
/>
<path stroke="#bb872d" vector-effect="non-scaling-stroke" d="
  M 169.78 93.36
  Q 170.85 90.32 169.55 87.42
  Q 169.29 86.84 168.80 87.26
  L 167.87 88.10
  A 1.03 1.00 -64.2 0 1 167.18 88.35
  Q 165.68 88.31 164.63 88.70
  Q 164.13 88.89 164.01 89.41
  Q 163.72 90.75 163.02 91.55
  A 1.06 1.04 59.0 0 0 162.80 92.47
  Q 163.64 96.16 167.13 98.64
  Q 167.47 98.89 167.90 100.17
  A 0.78 0.78 0.0 0 0 168.61 100.70
  Q 169.79 100.74 170.09 100.04
  Q 171.36 97.14 169.86 94.34
  Q 169.60 93.86 169.78 93.36"
/>
<path stroke="#9f7f47" vector-effect="non-scaling-stroke" d="
  M 79.41 91.70
  Q 77.47 95.76 80.40 98.85
  Q 82.98 101.57 85.50 98.30"
/>
<path stroke="#826f3b" vector-effect="non-scaling-stroke" d="
  M 85.50 98.30
  C 88.76 97.17 88.90 95.28 89.93 92.75
  Q 90.13 92.25 89.97 91.95
  L 88.64 89.46
  Q 88.36 88.95 87.82 88.74
  Q 82.11 86.47 79.41 91.70"
/>
<path stroke="#412b12" vector-effect="non-scaling-stroke" d="
  M 85.50 98.30
  Q 83.78 97.71 82.49 96.52"
/>
<path stroke="#877443" vector-effect="non-scaling-stroke" d="
  M 82.49 96.52
  Q 81.93 92.61 84.40 91.98
  Q 85.48 91.70 85.41 90.58
  Q 85.39 90.21 85.17 89.93
  Q 84.65 89.28 83.86 89.53
  Q 81.12 90.41 80.17 91.97"
/>
<path stroke="#412b12" vector-effect="non-scaling-stroke" d="
  M 80.17 91.97
  Q 79.74 91.91 79.41 91.70"
/>
<path stroke="#a4844f" vector-effect="non-scaling-stroke" d="
  M 82.49 96.52
  Q 82.28 97.68 81.84 97.59
  A 2.24 2.22 88.0 0 1 80.13 95.98
  Q 79.59 93.92 80.17 91.97"
/>
<path stroke="#8e845e" vector-effect="non-scaling-stroke" d="
  M 89.08 92.42
  A 1.14 1.14 0.0 0 0 87.94 91.28
  A 1.14 1.14 0.0 0 0 86.80 92.42
  A 1.14 1.14 0.0 0 0 87.94 93.56
  A 1.14 1.14 0.0 0 0 89.08 92.42"
/>
<path stroke="#4b4022" vector-effect="non-scaling-stroke" d="
  M 125.7339 101.0642
  A 0.48 0.36 55.2 0 0 125.7556 100.4645
  A 0.48 0.36 55.2 0 0 125.1861 100.2758
  A 0.48 0.36 55.2 0 0 125.1644 100.8755
  A 0.48 0.36 55.2 0 0 125.7339 101.0642"
/>
<path stroke="#dbb964" vector-effect="non-scaling-stroke" d="
  M 97.04 123.74
  A 0.66 0.65 -60.8 0 0 97.35 124.84
  Q 97.80 124.94 98.38 124.31
  A 0.53 0.53 0.0 0 0 98.27 123.50
  Q 97.66 123.11 97.04 123.74"
/>
<path stroke="#dbb964" vector-effect="non-scaling-stroke" d="
  M 94.40 124.95
  Q 94.10 125.11 94.10 125.46
  A 0.42 0.42 0.0 0 0 94.57 125.87
  Q 94.90 125.84 95.07 125.56
  A 0.48 0.47 -53.3 0 0 94.99 124.96
  Q 94.76 124.76 94.40 124.95"
/>
<path stroke="#cca556" vector-effect="non-scaling-stroke" d="
  M 94.92 129.08
  A 0.48 0.48 0.0 0 0 95.18 129.94
  Q 95.99 129.99 96.50 129.71
  Q 97.07 129.40 96.61 128.95
  Q 95.94 128.31 94.92 129.08"
/>
<path stroke="#cca556" vector-effect="non-scaling-stroke" d="
  M 94.0298 130.2209
  A 0.78 0.64 -1.4 0 0 93.2344 129.6002
  A 0.78 0.64 -1.4 0 0 92.4702 130.2591
  A 0.78 0.64 -1.4 0 0 93.2656 130.8798
  A 0.78 0.64 -1.4 0 0 94.0298 130.2209"
/>
<path stroke="#af9960" vector-effect="non-scaling-stroke" d="
  M 91.42 133.14
  Q 91.07 133.41 91.15 133.74
  Q 91.24 134.10 91.58 133.94
  Q 91.91 133.78 91.91 133.37
  A 0.30 0.30 0.0 0 0 91.42 133.14"
/>
</g>
<path fill="#3b00b9" d="
  M 132.19 0.00
  Q 169.78 2.57 198.49 23.78
  Q 245.11 58.21 250.00 117.71
  L 250.00 132.17
  Q 247.26 171.66 224.09 201.34
  Q 189.71 245.37 132.28 250.00
  L 117.83 250.00
  Q 75.72 247.06 44.78 220.96
  Q 4.25 186.78 0.00 132.26
  L 0.00 117.81
  C 4.31 53.98 53.92 4.37 117.73 0.00
  L 132.19 0.00
  Z
  M 179.46 44.37
  Q 190.21 51.71 198.73 61.55
  Q 219.22 85.65 221.92 117.41
  Q 221.94 117.69 222.22 117.69
  L 232.24 117.69
  Q 232.85 117.69 232.80 117.08
  Q 229.59 80.42 206.27 53.59
  Q 197.27 43.38 186.01 35.65
  Q 161.84 19.16 132.67 17.09
  A 0.40 0.40 0.0 0 0 132.24 17.49
  L 132.24 27.47
  Q 132.24 27.94 132.71 27.98
  Q 158.41 30.17 179.46 44.37
  Z
  M 48.56 48.56
  C 30.12 67.01 18.97 91.46 17.23 117.42
  A 0.34 0.33 2.0 0 0 17.56 117.78
  L 27.56 117.78
  A 0.63 0.62 -87.5 0 0 28.18 117.21
  C 30.01 94.11 39.82 72.82 56.32 56.32
  C 72.83 39.81 94.11 30.00 117.21 28.16
  A 0.63 0.62 -2.5 0 0 117.78 27.54
  L 117.78 17.54
  A 0.34 0.33 88.0 0 0 117.42 17.21
  C 91.46 18.95 67.01 30.11 48.56 48.56
  Z
  M 90.88 41.75
  L 90.33 48.62
  Q 89.43 59.01 88.43 64.43
  C 87.60 68.97 83.95 72.87 79.24 73.54
  C 75.66 74.05 73.03 75.15 70.55 78.05
  C 65.11 84.39 63.03 91.52 61.50 100.96
  L 60.73 105.49
  Q 60.33 106.85 59.65 108.35
  Q 58.89 110.00 58.60 111.18
  Q 53.40 132.54 63.30 152.02
  Q 63.94 157.99 61.06 163.08
  Q 60.81 163.53 61.03 163.98
  C 62.80 167.66 60.24 168.90 60.19 172.18
  Q 60.09 179.07 59.44 182.65
  Q 59.34 183.21 59.74 183.62
  Q 69.79 194.10 82.58 201.05
  Q 91.39 205.91 101.17 208.57
  L 107.40 210.09
  Q 139.46 216.20 167.32 202.03
  Q 182.17 194.49 193.37 182.16
  Q 193.70 181.79 193.66 181.29
  Q 193.22 175.98 193.26 170.76
  Q 193.27 168.92 191.98 162.99
  C 191.35 161.15 190.76 159.62 190.73 157.61
  Q 190.57 147.87 189.84 143.93
  Q 189.08 139.84 188.70 138.85
  Q 184.81 128.71 183.85 122.36
  C 183.32 118.80 182.02 116.11 180.67 112.51
  C 179.07 108.19 178.86 101.08 178.26 96.64
  Q 177.82 93.42 175.82 88.86
  Q 174.24 85.26 172.50 81.40
  Q 171.79 77.05 172.72 71.82
  Q 173.45 67.69 173.33 65.09
  C 173.06 59.75 172.40 52.04 170.01 48.25
  Q 166.20 42.23 159.29 46.20
  L 149.58 56.72
  Q 147.37 58.85 145.10 61.10
  Q 143.72 62.47 142.24 62.29
  Q 133.76 61.27 126.53 62.86
  C 123.54 63.17 120.87 63.73 117.84 63.24
  Q 113.80 62.59 109.73 62.09
  Q 108.55 61.95 106.26 59.64
  Q 104.30 55.71 102.65 51.22
  Q 101.82 48.99 100.19 47.12
  Q 98.02 44.63 96.11 41.92
  Q 95.17 40.71 93.63 40.38
  Q 91.49 39.92 90.88 41.75
  Z
  M 25.23 166.31
  L 31.72 179.49
  L 38.77 190.06
  Q 45.83 199.45 54.70 207.05
  Q 81.71 229.95 117.20 232.77
  Q 117.79 232.82 117.79 232.23
  L 117.79 222.53
  Q 117.79 221.95 117.22 221.90
  Q 85.65 219.07 61.59 198.67
  Q 52.99 191.17 46.22 182.00
  L 39.05 170.44
  L 32.94 156.24
  Q 29.06 144.79 28.16 132.87
  A 0.64 0.64 0.0 0 0 27.52 132.28
  L 17.74 132.28
  A 0.52 0.52 0.0 0 0 17.22 132.84
  Q 18.33 147.93 23.45 162.25
  Q 24.19 164.31 25.23 166.31
  Z
  M 201.43 201.43
  C 219.88 182.99 231.04 158.55 232.79 132.59
  A 0.34 0.33 2.0 0 0 232.45 132.23
  L 222.46 132.23
  A 0.63 0.62 -87.5 0 0 221.84 132.80
  C 219.99 155.89 210.18 177.17 193.68 193.67
  C 177.17 210.16 155.89 219.96 132.80 221.80
  A 0.63 0.62 -2.5 0 0 132.22 222.41
  L 132.22 232.41
  A 0.34 0.33 88.0 0 0 132.58 232.75
  C 158.54 231.01 182.99 219.87 201.43 201.43
  Z"
/>
<path fill="#fbb03b" d="
  M 186.01 35.65
  L 179.46 44.37
  Q 158.41 30.17 132.71 27.98
  Q 132.24 27.94 132.24 27.47
  L 132.24 17.49
  A 0.40 0.40 0.0 0 1 132.67 17.09
  Q 161.84 19.16 186.01 35.65
  Z"
/>
<path fill="#29abe2" d="
  M 56.32 56.32
  C 39.82 72.82 30.01 94.11 28.18 117.21
  A 0.63 0.62 -87.5 0 1 27.56 117.78
  L 17.56 117.78
  A 0.34 0.33 2.0 0 1 17.23 117.42
  C 18.97 91.46 30.12 67.01 48.56 48.56
  C 67.01 30.11 91.46 18.95 117.42 17.21
  A 0.34 0.33 88.0 0 1 117.78 17.54
  L 117.78 27.54
  A 0.63 0.62 -2.5 0 1 117.21 28.16
  C 94.11 30.00 72.83 39.81 56.32 56.32
  Z"
/>
<path fill="#f68730" d="
  M 186.01 35.65
  Q 197.27 43.38 206.27 53.59
  L 198.73 61.55
  Q 190.21 51.71 179.46 44.37
  L 186.01 35.65
  Z"
/>
<path fill="#daab3d" d="
  M 96.11 41.92
  Q 95.28 43.91 95.53 44.68
  Q 97.58 51.13 97.23 58.54
  Q 97.14 60.41 98.55 61.95
  Q 98.88 62.31 99.34 62.16
  Q 103.43 60.81 106.95 61.26
  Q 107.58 61.34 107.19 60.84
  L 106.26 59.64
  Q 108.55 61.95 109.73 62.09
  Q 113.80 62.59 117.84 63.24
  C 120.87 63.73 123.54 63.17 126.53 62.86
  Q 124.43 63.88 121.89 63.84
  Q 121.87 63.84 121.88 63.85
  Q 121.88 63.86 121.88 63.87
  L 121.90 63.87
  Q 121.96 63.85 122.03 63.96
  Q 122.09 64.05 122.20 64.05
  Q 126.84 64.25 133.08 63.91
  C 135.85 63.77 139.37 64.17 141.71 64.43
  A 0.39 0.39 0.0 0 1 141.93 65.10
  Q 139.75 67.12 138.57 69.66
  Q 138.35 70.13 138.61 70.57
  Q 139.83 72.68 141.53 74.07
  Q 144.47 79.01 146.65 81.11
  Q 151.35 85.64 159.31 87.39
  Q 160.55 88.16 161.96 87.68
  Q 162.55 87.48 162.62 87.05
  Q 162.71 86.50 162.16 86.40
  Q 160.64 86.11 159.74 85.48
  Q 159.29 85.17 159.36 84.62
  Q 159.62 82.72 161.10 81.32
  L 166.35 77.11
  Q 166.87 76.69 166.90 77.35
  Q 167.07 80.46 168.88 82.95
  A 0.52 0.52 0.0 0 0 169.73 82.94
  Q 170.76 81.50 171.17 79.58
  Q 171.32 78.91 171.61 79.53
  L 172.50 81.40
  Q 174.24 85.26 175.82 88.86
  Q 177.82 93.42 178.26 96.64
  C 178.86 101.08 179.07 108.19 180.67 112.51
  C 182.02 116.11 183.32 118.80 183.85 122.36
  Q 184.81 128.71 188.70 138.85
  Q 189.08 139.84 189.84 143.93
  Q 190.57 147.87 190.73 157.61
  C 190.76 159.62 191.35 161.15 191.98 162.99
  L 190.23 159.18
  Q 189.98 158.62 189.73 159.18
  L 186.49 166.33
  Q 185.31 162.32 181.21 163.59
  Q 179.49 164.12 177.48 165.90
  Q 174.66 168.41 170.45 168.32
  A 1.54 1.48 28.5 0 0 169.61 168.55
  Q 164.57 171.75 163.63 172.13
  Q 162.47 172.60 162.28 171.17
  Q 167.37 167.66 170.96 161.47
  L 176.19 157.87
  Q 177.21 157.17 176.88 158.36
  L 176.50 159.74
  Q 176.17 160.94 177.25 160.31
  L 182.51 157.27
  Q 182.96 157.01 183.17 156.54
  Q 184.85 152.72 184.37 147.63
  Q 184.33 147.12 183.84 147.29
  L 182.17 147.88
  Q 181.37 148.16 181.31 147.31
  L 180.90 140.77
  Q 180.86 140.23 180.39 139.96
  L 177.71 138.41
  A 0.75 0.73 -63.1 0 1 177.41 137.46
  Q 179.90 132.12 179.84 126.76
  Q 179.82 125.15 179.02 126.55
  Q 176.23 131.46 169.65 141.91
  Q 168.80 143.26 166.44 145.12
  Q 166.20 145.30 166.00 145.31
  Q 165.78 145.31 165.60 145.21
  Q 165.12 144.93 165.37 144.44
  C 170.59 134.29 174.95 120.70 168.78 110.16
  Q 167.70 108.31 167.59 110.45
  L 166.97 122.17
  L 162.90 102.64
  Q 161.50 100.63 158.74 95.02
  Q 155.66 88.76 148.23 87.80
  Q 147.70 87.73 147.44 87.27
  L 144.86 82.79
  Q 144.50 82.18 144.03 82.72
  C 141.10 86.09 141.76 89.29 141.01 92.79
  C 140.09 97.15 135.03 99.98 130.97 101.76
  Q 131.79 100.66 131.20 100.09
  Q 131.77 99.99 131.44 99.29
  Q 131.30 99.00 130.95 98.79
  C 127.52 96.81 123.81 94.47 120.05 94.94
  Q 122.09 92.04 122.82 88.43
  A 1.65 1.62 74.2 0 1 123.30 87.55
  Q 125.68 85.25 129.04 83.98
  A 1.07 1.06 56.2 0 0 129.39 82.20
  Q 124.23 77.41 116.98 77.19
  A 1.72 1.70 22.9 0 0 115.68 77.71
  L 112.51 81.02
  L 113.10 77.03
  Q 113.18 76.52 113.61 76.25
  Q 117.97 73.51 121.20 69.45
  Q 122.09 68.34 120.73 68.79
  Q 111.96 71.71 106.82 79.08
  C 104.69 82.13 103.32 86.89 100.69 90.58
  Q 100.47 89.80 100.07 89.90
  Q 102.02 82.42 104.95 75.47
  C 106.27 72.35 106.89 65.91 102.64 64.64
  C 99.20 63.61 97.07 64.47 94.30 66.91
  Q 91.26 69.61 88.02 72.09
  Q 87.53 72.47 87.52 71.85
  Q 87.51 71.06 88.32 70.26
  Q 95.65 60.85 95.14 48.92
  Q 95.03 46.44 94.12 44.79
  Q 92.86 42.51 90.88 41.75
  Q 91.49 39.92 93.63 40.38
  Q 95.17 40.71 96.11 41.92
  Z
  M 169.78 93.36
  Q 170.85 90.32 169.55 87.42
  Q 169.29 86.84 168.80 87.26
  L 167.87 88.10
  A 1.03 1.00 -64.2 0 1 167.18 88.35
  Q 165.68 88.31 164.63 88.70
  Q 164.13 88.89 164.01 89.41
  Q 163.72 90.75 163.02 91.55
  A 1.06 1.04 59.0 0 0 162.80 92.47
  Q 163.64 96.16 167.13 98.64
  Q 167.47 98.89 167.90 100.17
  A 0.78 0.78 0.0 0 0 168.61 100.70
  Q 169.79 100.74 170.09 100.04
  Q 171.36 97.14 169.86 94.34
  Q 169.60 93.86 169.78 93.36
  Z"
/>
<path fill="#e0c370" d="
  M 88.32 70.26
  L 88.26 68.23
  Q 90.80 64.31 91.21 62.44
  Q 92.79 55.16 90.33 48.62
  L 90.88 41.75
  Q 92.86 42.51 94.12 44.79
  Q 95.03 46.44 95.14 48.92
  Q 95.65 60.85 88.32 70.26
  Z"
/>
<path fill="#c5882a" d="
  M 106.26 59.64
  L 107.19 60.84
  Q 107.58 61.34 106.95 61.26
  Q 103.43 60.81 99.34 62.16
  Q 98.88 62.31 98.55 61.95
  Q 97.14 60.41 97.23 58.54
  Q 97.58 51.13 95.53 44.68
  Q 95.28 43.91 96.11 41.92
  Q 98.02 44.63 100.19 47.12
  Q 101.82 48.99 102.65 51.22
  Q 104.30 55.71 106.26 59.64
  Z"
/>
<path fill="#ad7c2c" d="
  M 172.50 81.40
  L 171.61 79.53
  Q 171.32 78.91 171.17 79.58
  Q 170.76 81.50 169.73 82.94
  A 0.52 0.52 0.0 0 1 168.88 82.95
  Q 167.07 80.46 166.90 77.35
  Q 166.87 76.69 166.35 77.11
  L 161.10 81.32
  L 167.31 72.19
  A 0.87 0.86 -54.1 0 0 167.13 71.03
  Q 166.46 70.50 166.67 69.45
  Q 167.01 67.67 168.39 64.35
  A 0.48 0.48 0.0 0 0 167.90 63.69
  C 163.27 64.16 159.66 64.41 155.27 66.98
  C 152.81 67.66 152.77 69.04 151.67 70.96
  C 149.82 69.01 151.09 67.31 152.82 65.82
  Q 155.22 63.73 157.40 61.40
  Q 158.27 60.48 163.53 58.46
  A 1.12 1.08 -1.0 0 0 164.16 57.83
  C 165.77 53.64 162.24 50.71 159.40 48.46
  Q 158.88 48.05 159.02 47.40
  L 159.29 46.20
  Q 166.20 42.23 170.01 48.25
  C 172.40 52.04 173.06 59.75 173.33 65.09
  Q 173.45 67.69 172.72 71.82
  Q 171.79 77.05 172.50 81.40
  Z"
/>
<path fill="#ce9b2d" d="
  M 159.29 46.20
  L 159.02 47.40
  Q 158.88 48.05 159.40 48.46
  C 162.24 50.71 165.77 53.64 164.16 57.83
  A 1.12 1.08 -1.0 0 1 163.53 58.46
  Q 158.27 60.48 157.40 61.40
  Q 155.22 63.73 152.82 65.82
  C 151.09 67.31 149.82 69.01 151.67 70.96
  Q 151.32 71.54 151.23 72.00
  Q 151.07 72.81 151.79 72.40
  L 153.48 71.42
  Q 153.93 71.16 154.45 71.20
  Q 155.76 71.31 157.11 70.39
  Q 157.34 70.24 157.54 70.42
  Q 157.65 70.52 157.69 70.65
  Q 157.75 70.85 157.60 71.00
  Q 156.07 72.43 156.01 72.50
  Q 154.93 73.93 156.51 73.58
  L 160.03 72.80
  Q 160.37 72.73 160.34 73.08
  L 160.28 73.75
  A 0.38 0.38 0.0 0 1 159.89 74.10
  Q 155.85 74.05 154.55 77.40
  C 153.94 78.96 153.08 79.70 151.96 80.52
  Q 149.55 82.28 152.47 82.14
  Q 153.79 82.08 155.00 84.67
  L 159.31 87.39
  Q 151.35 85.64 146.65 81.11
  Q 144.47 79.01 141.53 74.07
  L 144.46 74.71
  Q 145.95 75.60 145.39 79.21
  Q 145.35 79.46 145.58 79.58
  Q 145.76 79.66 145.96 79.68
  A 0.33 0.31 -72.7 0 0 146.25 79.52
  L 147.19 77.90
  Q 147.43 77.49 147.47 77.01
  L 148.17 69.38
  Q 148.21 68.95 147.90 68.63
  Q 147.28 68.01 148.04 67.02
  Q 148.75 66.09 150.60 62.57
  Q 151.17 61.47 150.88 59.21
  Q 151.24 58.41 151.32 57.55
  Q 151.38 57.01 150.87 56.82
  Q 150.37 56.62 149.58 56.72
  L 159.29 46.20
  Z"
/>
<path fill="#ad7c2c" d="
  M 88.26 68.23
  L 86.10 71.77
  Q 81.94 74.11 77.42 75.73
  Q 74.86 76.65 73.51 78.09
  C 67.32 84.65 65.20 91.72 63.17 100.35
  A 0.82 0.53 78.0 0 1 63.12 100.48
  Q 62.55 101.88 61.50 100.96
  C 63.03 91.52 65.11 84.39 70.55 78.05
  C 73.03 75.15 75.66 74.05 79.24 73.54
  C 83.95 72.87 87.60 68.97 88.43 64.43
  Q 89.43 59.01 90.33 48.62
  Q 92.79 55.16 91.21 62.44
  Q 90.80 64.31 88.26 68.23
  Z"
/>
<path fill="#f15a24" d="
  M 206.27 53.59
  Q 229.59 80.42 232.80 117.08
  Q 232.85 117.69 232.24 117.69
  L 222.22 117.69
  Q 221.94 117.69 221.92 117.41
  Q 219.22 85.65 198.73 61.55
  L 206.27 53.59
  Z"
/>
<path fill="#c5882a" d="
  M 149.58 56.72
  Q 150.37 56.62 150.87 56.82
  Q 151.38 57.01 151.32 57.55
  Q 151.24 58.41 150.88 59.21
  Q 150.59 59.17 150.29 59.38
  Q 150.08 59.53 149.96 59.85
  Q 148.16 64.38 144.10 69.57
  Q 141.84 72.46 144.46 74.71
  L 141.53 74.07
  Q 139.83 72.68 138.61 70.57
  Q 138.35 70.13 138.57 69.66
  Q 139.75 67.12 141.93 65.10
  A 0.39 0.39 0.0 0 0 141.71 64.43
  C 139.37 64.17 135.85 63.77 133.08 63.91
  Q 126.84 64.25 122.20 64.05
  Q 122.09 64.05 122.03 63.96
  Q 121.96 63.85 121.90 63.87
  L 121.88 63.87
  Q 121.88 63.86 121.88 63.85
  Q 121.87 63.84 121.89 63.84
  Q 124.43 63.88 126.53 62.86
  Q 133.76 61.27 142.24 62.29
  Q 143.72 62.47 145.10 61.10
  Q 147.37 58.85 149.58 56.72
  Z"
/>
<path fill="#9b631c" d="
  M 150.88 59.21
  Q 151.17 61.47 150.60 62.57
  Q 148.75 66.09 148.04 67.02
  Q 147.28 68.01 147.90 68.63
  Q 148.21 68.95 148.17 69.38
  L 147.47 77.01
  Q 147.43 77.49 147.19 77.90
  L 146.25 79.52
  A 0.33 0.31 -72.7 0 1 145.96 79.68
  Q 145.76 79.66 145.58 79.58
  Q 145.35 79.46 145.39 79.21
  Q 145.95 75.60 144.46 74.71
  Q 141.84 72.46 144.10 69.57
  Q 148.16 64.38 149.96 59.85
  Q 150.08 59.53 150.29 59.38
  Q 150.59 59.17 150.88 59.21
  Z"
/>
<path fill="#9b631c" d="
  M 161.10 81.32
  Q 159.62 82.72 159.36 84.62
  Q 159.29 85.17 159.74 85.48
  Q 160.64 86.11 162.16 86.40
  Q 162.71 86.50 162.62 87.05
  Q 162.55 87.48 161.96 87.68
  Q 160.55 88.16 159.31 87.39
  L 155.00 84.67
  C 160.50 79.99 163.29 73.52 165.85 67.02
  A 1.16 1.15 6.0 0 0 164.58 65.46
  L 155.27 66.98
  C 159.66 64.41 163.27 64.16 167.90 63.69
  A 0.48 0.48 0.0 0 1 168.39 64.35
  Q 167.01 67.67 166.67 69.45
  Q 166.46 70.50 167.13 71.03
  A 0.87 0.86 -54.1 0 1 167.31 72.19
  L 161.10 81.32
  Z"
/>
<path fill="#e1b64d" d="
  M 100.07 89.90
  Q 95.71 92.04 92.77 94.72
  Q 90.54 96.76 91.64 93.95
  Q 93.06 90.33 96.28 87.20
  C 100.77 82.84 100.55 77.42 99.07 72.06
  A 1.43 1.43 0.0 0 0 97.43 71.04
  C 96.06 71.30 94.80 71.93 93.78 73.00
  Q 89.35 77.62 84.47 81.71
  C 83.36 82.65 82.52 83.96 81.55 85.14
  Q 81.39 85.33 81.31 85.09
  L 81.09 84.46
  Q 80.98 84.15 81.18 83.88
  Q 85.48 78.20 87.19 72.71
  Q 87.51 71.67 86.10 71.77
  L 88.26 68.23
  L 88.32 70.26
  Q 87.51 71.06 87.52 71.85
  Q 87.53 72.47 88.02 72.09
  Q 91.26 69.61 94.30 66.91
  C 97.07 64.47 99.20 63.61 102.64 64.64
  C 106.89 65.91 106.27 72.35 104.95 75.47
  Q 102.02 82.42 100.07 89.90
  Z"
/>
<path fill="#5e3b1e" d="
  M 155.00 84.67
  Q 153.79 82.08 152.47 82.14
  Q 149.55 82.28 151.96 80.52
  C 153.08 79.70 153.94 78.96 154.55 77.40
  Q 155.85 74.05 159.89 74.10
  A 0.38 0.38 0.0 0 0 160.28 73.75
  L 160.34 73.08
  Q 160.37 72.73 160.03 72.80
  L 156.51 73.58
  Q 154.93 73.93 156.01 72.50
  Q 156.07 72.43 157.60 71.00
  Q 157.75 70.85 157.69 70.65
  Q 157.65 70.52 157.54 70.42
  Q 157.34 70.24 157.11 70.39
  Q 155.76 71.31 154.45 71.20
  Q 153.93 71.16 153.48 71.42
  L 151.79 72.40
  Q 151.07 72.81 151.23 72.00
  Q 151.32 71.54 151.67 70.96
  C 152.77 69.04 152.81 67.66 155.27 66.98
  L 164.58 65.46
  A 1.16 1.15 6.0 0 1 165.85 67.02
  C 163.29 73.52 160.50 79.99 155.00 84.67
  Z"
/>
<path fill="#ce9b2d" d="
  M 112.51 81.02
  Q 110.09 84.16 109.29 88.21
  Q 109.10 89.17 108.70 89.80
  Q 108.05 90.83 107.56 91.08
  Q 104.14 92.87 102.57 94.82
  Q 101.05 96.72 100.28 97.47
  Q 99.95 97.79 99.71 97.39
  Q 99.60 97.19 99.81 96.93
  L 100.69 90.58
  C 103.32 86.89 104.69 82.13 106.82 79.08
  Q 111.96 71.71 120.73 68.79
  Q 122.09 68.34 121.20 69.45
  Q 117.97 73.51 113.61 76.25
  Q 113.18 76.52 113.10 77.03
  L 112.51 81.02
  Z"
/>
<path fill="#e0c370" d="
  M 100.07 89.90
  Q 100.47 89.80 100.69 90.58
  L 99.81 96.93
  L 99.59 97.11
  Q 99.34 97.31 99.44 97.62
  L 103.74 109.84
  Q 103.83 110.10 104.07 109.96
  L 107.43 107.96
  L 109.05 109.17
  L 111.91 116.80
  L 110.45 130.60
  L 110.48 124.67
  Q 110.48 124.17 110.04 123.93
  Q 108.61 123.18 106.57 124.24
  Q 104.36 119.97 102.06 115.77
  C 99.27 110.68 93.96 111.00 89.13 110.34
  Q 82.74 109.45 75.31 106.86
  Q 71.61 105.54 72.58 97.66
  C 72.93 94.83 76.18 95.11 75.92 92.55
  C 75.73 90.60 73.16 90.37 71.71 90.86
  Q 71.18 91.04 70.91 91.53
  L 68.96 94.89
  A 1.00 0.95 4.6 0 1 68.43 95.32
  C 65.35 96.34 66.11 98.54 65.00 100.42
  Q 63.28 103.33 60.73 105.49
  L 61.50 100.96
  Q 62.55 101.88 63.12 100.48
  A 0.82 0.53 78.0 0 0 63.17 100.35
  C 65.20 91.72 67.32 84.65 73.51 78.09
  Q 74.86 76.65 77.42 75.73
  Q 81.94 74.11 86.10 71.77
  Q 87.51 71.67 87.19 72.71
  Q 85.48 78.20 81.18 83.88
  Q 80.98 84.15 81.09 84.46
  L 81.31 85.09
  Q 81.39 85.33 81.55 85.14
  C 82.52 83.96 83.36 82.65 84.47 81.71
  Q 89.35 77.62 93.78 73.00
  C 94.80 71.93 96.06 71.30 97.43 71.04
  A 1.43 1.43 0.0 0 1 99.07 72.06
  C 100.55 77.42 100.77 82.84 96.28 87.20
  Q 93.06 90.33 91.64 93.95
  Q 90.54 96.76 92.77 94.72
  Q 95.71 92.04 100.07 89.90
  Z
  M 79.41 91.70
  Q 77.47 95.76 80.40 98.85
  Q 82.98 101.57 85.50 98.30
  C 88.76 97.17 88.90 95.28 89.93 92.75
  Q 90.13 92.25 89.97 91.95
  L 88.64 89.46
  Q 88.36 88.95 87.82 88.74
  Q 82.11 86.47 79.41 91.70
  Z"
/>
<path fill="#e1b64d" d="
  M 120.05 94.94
  Q 116.60 95.62 114.13 98.22
  Q 112.55 98.14 112.56 96.57
  Q 112.57 96.03 112.05 95.92
  C 110.96 95.67 109.88 95.57 109.07 96.75
  Q 108.57 97.48 106.91 98.65
  A 1.22 1.21 47.9 0 0 106.82 100.56
  Q 107.50 101.15 107.30 102.24
  Q 106.76 105.14 107.43 107.96
  L 104.07 109.96
  Q 103.83 110.10 103.74 109.84
  L 99.44 97.62
  Q 99.34 97.31 99.59 97.11
  L 99.81 96.93
  Q 99.60 97.19 99.71 97.39
  Q 99.95 97.79 100.28 97.47
  Q 101.05 96.72 102.57 94.82
  Q 104.14 92.87 107.56 91.08
  Q 108.05 90.83 108.70 89.80
  Q 109.10 89.17 109.29 88.21
  Q 110.09 84.16 112.51 81.02
  L 115.68 77.71
  A 1.72 1.70 22.9 0 1 116.98 77.19
  Q 124.23 77.41 129.39 82.20
  A 1.07 1.06 56.2 0 1 129.04 83.98
  Q 125.68 85.25 123.30 87.55
  A 1.65 1.62 74.2 0 0 122.82 88.43
  Q 122.09 92.04 120.05 94.94
  Z"
/>
<path fill="#e1b64d" d="
  M 162.90 102.64
  Q 153.81 101.97 144.81 101.44
  C 141.71 101.26 139.33 100.64 137.94 102.96
  Q 136.49 105.37 134.81 107.70
  Q 133.52 109.49 131.06 110.62
  Q 128.89 111.60 122.36 114.38
  C 120.04 115.36 117.05 113.41 114.63 114.61
  Q 113.14 115.35 111.91 116.80
  L 109.05 109.17
  Q 110.63 108.18 110.93 105.43
  Q 110.99 104.89 111.53 104.90
  L 112.51 104.90
  Q 113.96 106.16 116.00 106.72
  Q 121.59 108.02 124.76 107.01
  Q 127.87 106.02 130.97 101.76
  C 135.03 99.98 140.09 97.15 141.01 92.79
  C 141.76 89.29 141.10 86.09 144.03 82.72
  Q 144.50 82.18 144.86 82.79
  L 147.44 87.27
  Q 147.70 87.73 148.23 87.80
  Q 155.66 88.76 158.74 95.02
  Q 161.50 100.63 162.90 102.64
  Z"
/>
<path fill="#9b631c" d="
  M 169.86 94.34
  Q 171.36 97.14 170.09 100.04
  Q 169.79 100.74 168.61 100.70
  A 0.78 0.78 0.0 0 1 167.90 100.17
  Q 167.47 98.89 167.13 98.64
  Q 163.64 96.16 162.80 92.47
  A 1.06 1.04 59.0 0 1 163.02 91.55
  Q 163.72 90.75 164.01 89.41
  Q 164.13 88.89 164.63 88.70
  Q 165.68 88.31 167.18 88.35
  A 1.03 1.00 -64.2 0 0 167.87 88.10
  L 168.80 87.26
  Q 169.29 86.84 169.55 87.42
  Q 170.85 90.32 169.78 93.36
  Q 169.60 93.86 169.86 94.34
  Z"
/>
<path fill="#231b05" d="
  M 85.50 98.30
  Q 83.78 97.71 82.49 96.52
  Q 81.93 92.61 84.40 91.98
  Q 85.48 91.70 85.41 90.58
  Q 85.39 90.21 85.17 89.93
  Q 84.65 89.28 83.86 89.53
  Q 81.12 90.41 80.17 91.97
  Q 79.74 91.91 79.41 91.70
  Q 82.11 86.47 87.82 88.74
  Q 88.36 88.95 88.64 89.46
  L 89.97 91.95
  Q 90.13 92.25 89.93 92.75
  C 88.90 95.28 88.76 97.17 85.50 98.30
  Z
  M 89.08 92.42
  A 1.14 1.14 0.0 0 0 87.94 91.28
  A 1.14 1.14 0.0 0 0 86.80 92.42
  A 1.14 1.14 0.0 0 0 87.94 93.56
  A 1.14 1.14 0.0 0 0 89.08 92.42
  Z"
/>
<path fill="#eacd80" d="
  M 82.49 96.52
  Q 82.28 97.68 81.84 97.59
  A 2.24 2.22 88.0 0 1 80.13 95.98
  Q 79.59 93.92 80.17 91.97
  Q 81.12 90.41 83.86 89.53
  Q 84.65 89.28 85.17 89.93
  Q 85.39 90.21 85.41 90.58
  Q 85.48 91.70 84.40 91.98
  Q 81.93 92.61 82.49 96.52
  Z"
/>
<path fill="#f9edb7" d="
  M 75.31 106.86
  L 79.13 110.36
  Q 71.28 110.29 70.55 119.03
  Q 68.08 125.05 68.68 129.25
  Q 68.98 131.40 71.38 133.97
  L 71.76 134.88
  Q 71.66 137.10 72.33 139.31
  Q 71.25 143.44 69.18 147.35
  Q 68.20 149.20 68.60 154.62
  Q 68.67 155.47 67.95 158.39
  Q 66.94 155.71 65.34 155.08
  Q 65.11 153.95 63.30 152.02
  Q 53.40 132.54 58.60 111.18
  Q 58.89 110.00 59.65 108.35
  Q 60.33 106.85 60.73 105.49
  Q 63.28 103.33 65.00 100.42
  C 66.11 98.54 65.35 96.34 68.43 95.32
  A 1.00 0.95 4.6 0 0 68.96 94.89
  L 70.91 91.53
  Q 71.18 91.04 71.71 90.86
  C 73.16 90.37 75.73 90.60 75.92 92.55
  C 76.18 95.11 72.93 94.83 72.58 97.66
  Q 71.61 105.54 75.31 106.86
  Z"
/>
<circle fill="#f9edb7" cx="87.94" cy="92.42" r="1.14"/>
<path fill="#5e3b1e" d="
  M 79.41 91.70
  Q 79.74 91.91 80.17 91.97
  Q 79.59 93.92 80.13 95.98
  A 2.24 2.22 88.0 0 0 81.84 97.59
  Q 82.28 97.68 82.49 96.52
  Q 83.78 97.71 85.50 98.30
  Q 82.98 101.57 80.40 98.85
  Q 77.47 95.76 79.41 91.70
  Z"
/>
<path fill="#231b05" d="
  M 131.20 100.09
  Q 127.93 101.83 125.11 105.31
  Q 124.79 105.71 124.28 105.67
  L 121.95 105.51
  Q 120.06 104.46 119.42 102.83
  Q 118.83 101.30 119.70 100.81
  Q 121.43 100.05 122.50 98.14
  Q 123.06 97.12 122.01 96.63
  L 120.82 96.08
  Q 115.02 97.52 114.91 103.50
  Q 114.89 104.75 116.46 105.56
  Q 116.85 106.26 116.00 106.72
  Q 113.96 106.16 112.51 104.90
  Q 112.45 104.82 112.39 104.73
  Q 111.89 101.59 114.13 98.22
  Q 116.60 95.62 120.05 94.94
  C 123.81 94.47 127.52 96.81 130.95 98.79
  Q 131.30 99.00 131.44 99.29
  Q 131.77 99.99 131.20 100.09
  Z
  M 125.7339 101.0642
  A 0.48 0.36 55.2 0 0 125.7556 100.4645
  A 0.48 0.36 55.2 0 0 125.1861 100.2758
  A 0.48 0.36 55.2 0 0 125.1644 100.8755
  A 0.48 0.36 55.2 0 0 125.7339 101.0642
  Z"
/>
<path fill="#c5882a" d="
  M 114.13 98.22
  L 113.34 98.29
  Q 112.82 98.33 112.57 98.78
  Q 111.68 100.32 110.08 100.86
  A 0.51 0.51 0.0 0 0 109.78 101.56
  Q 110.72 103.61 112.39 104.73
  Q 112.45 104.82 112.51 104.90
  L 111.53 104.90
  Q 110.99 104.89 110.93 105.43
  Q 110.63 108.18 109.05 109.17
  L 107.43 107.96
  Q 106.76 105.14 107.30 102.24
  Q 107.50 101.15 106.82 100.56
  A 1.22 1.21 47.9 0 1 106.91 98.65
  Q 108.57 97.48 109.07 96.75
  C 109.88 95.57 110.96 95.67 112.05 95.92
  Q 112.57 96.03 112.56 96.57
  Q 112.55 98.14 114.13 98.22
  Z"
/>
<path fill="#eacd80" d="
  M 120.82 96.08
  Q 120.52 97.21 119.23 98.95
  Q 118.38 100.11 119.70 100.81
  Q 118.83 101.30 119.42 102.83
  Q 120.06 104.46 121.95 105.51
  Q 119.79 106.44 116.46 105.56
  Q 114.89 104.75 114.91 103.50
  Q 115.02 97.52 120.82 96.08
  Z"
/>
<path fill="#f9edb7" d="
  M 119.70 100.81
  Q 118.38 100.11 119.23 98.95
  Q 120.52 97.21 120.82 96.08
  L 122.01 96.63
  Q 123.06 97.12 122.50 98.14
  Q 121.43 100.05 119.70 100.81
  Z"
/>
<path fill="#5e3b1e" d="
  M 114.13 98.22
  Q 111.89 101.59 112.39 104.73
  Q 110.72 103.61 109.78 101.56
  A 0.51 0.51 0.0 0 1 110.08 100.86
  Q 111.68 100.32 112.57 98.78
  Q 112.82 98.33 113.34 98.29
  L 114.13 98.22
  Z"
/>
<ellipse fill="#73643f" cx="0.00" cy="0.00" transform="translate(125.46,100.67) rotate(55.2)" rx="0.48" ry="0.36"/>
<path fill="#73643f" d="
  M 131.20 100.09
  Q 131.79 100.66 130.97 101.76
  Q 127.87 106.02 124.76 107.01
  Q 121.59 108.02 116.00 106.72
  Q 116.85 106.26 116.46 105.56
  Q 119.79 106.44 121.95 105.51
  L 124.28 105.67
  Q 124.79 105.71 125.11 105.31
  Q 127.93 101.83 131.20 100.09
  Z"
/>
<path fill="#eacd80" d="
  M 162.90 102.64
  L 166.97 122.17
  Q 166.64 125.92 165.44 128.99
  Q 159.47 144.29 150.65 157.30
  Q 149.69 158.72 151.25 158.00
  L 156.83 155.40
  Q 157.88 154.92 157.12 155.79
  L 153.76 159.64
  Q 152.71 160.86 154.36 160.52
  Q 154.52 160.48 154.72 160.64
  Q 155.07 160.90 154.95 161.32
  L 153.89 164.81
  L 140.27 172.29
  Q 139.84 172.53 139.36 172.45
  L 130.48 170.93
  L 141.36 162.65
  Q 142.04 162.13 141.19 162.13
  L 140.57 162.13
  A 0.37 0.37 0.0 0 1 140.32 161.49
  Q 141.11 160.76 141.42 160.33
  Q 142.55 158.78 140.77 159.51
  C 138.97 160.25 137.11 161.94 135.16 162.88
  Q 134.73 163.08 127.84 166.29
  C 123.18 168.47 119.15 169.63 114.72 170.16
  Q 110.00 170.73 105.91 171.47
  Q 99.19 172.70 97.14 172.74
  Q 87.73 172.90 79.82 168.29
  C 77.92 163.35 73.64 161.36 70.66 159.00
  Q 70.43 158.82 70.18 158.82
  Q 69.86 158.82 69.71 159.14
  Q 69.49 159.64 69.01 159.37
  Q 68.44 159.05 67.95 158.39
  Q 68.67 155.47 68.60 154.62
  Q 68.20 149.20 69.18 147.35
  Q 71.25 143.44 72.33 139.31
  L 72.71 139.70
  Q 75.36 147.06 79.93 153.38
  C 81.66 155.76 83.89 156.77 85.79 158.66
  C 91.75 164.61 98.88 156.82 104.50 152.03
  C 108.61 148.54 112.00 147.50 116.51 145.78
  A 1.62 1.61 -21.9 0 0 117.42 143.65
  Q 116.16 140.66 113.52 137.98
  L 113.03 137.24
  Q 111.23 135.77 111.85 133.70
  Q 111.99 133.23 111.69 132.85
  Q 110.78 131.70 110.45 130.60
  L 111.91 116.80
  Q 113.14 115.35 114.63 114.61
  C 117.05 113.41 120.04 115.36 122.36 114.38
  Q 128.89 111.60 131.06 110.62
  Q 133.52 109.49 134.81 107.70
  Q 136.49 105.37 137.94 102.96
  C 139.33 100.64 141.71 101.26 144.81 101.44
  Q 153.81 101.97 162.90 102.64
  Z"
/>
<path fill="#eacd80" d="
  M 106.57 124.24
  Q 106.92 125.49 106.48 126.43
  Q 106.27 126.88 105.80 127.05
  L 102.90 128.07
  Q 102.32 128.27 102.01 128.81
  L 99.78 132.66
  Q 99.52 133.13 99.01 133.31
  L 97.45 133.85
  Q 96.85 134.06 97.09 134.65
  Q 97.37 135.33 97.39 135.99
  Q 97.40 136.53 96.90 136.74
  L 93.55 138.18
  L 90.63 136.76
  Q 88.81 134.69 89.54 132.78
  Q 89.71 132.34 89.50 131.92
  Q 89.21 131.32 88.56 131.01
  A 1.07 1.07 0.0 0 1 87.96 130.21
  Q 87.78 129.08 88.04 128.12
  A 0.65 0.65 0.0 0 1 88.99 127.73
  L 89.74 128.17
  A 0.53 0.53 0.0 0 1 89.94 128.89
  Q 89.59 129.53 89.91 130.57
  A 0.37 0.37 0.0 0 0 90.46 130.77
  Q 90.63 130.66 90.69 130.52
  Q 90.85 130.11 90.83 129.98
  Q 90.62 128.87 89.75 127.24
  Q 89.58 126.92 89.22 126.95
  Q 88.97 126.97 88.87 126.94
  Q 88.21 126.71 88.97 126.27
  Q 89.55 125.93 90.26 125.90
  Q 90.46 125.89 90.55 125.70
  Q 90.62 125.53 90.59 125.36
  Q 90.52 124.97 90.13 124.93
  Q 89.34 124.85 89.02 124.28
  A 0.59 0.59 0.0 0 1 89.20 123.49
  Q 91.00 122.24 91.15 120.19
  C 93.38 117.91 93.38 115.08 90.47 113.37
  C 87.18 111.42 82.66 110.35 79.13 110.36
  L 75.31 106.86
  Q 82.74 109.45 89.13 110.34
  C 93.96 111.00 99.27 110.68 102.06 115.77
  Q 104.36 119.97 106.57 124.24
  Z
  M 97.04 123.74
  A 0.66 0.65 -60.8 0 0 97.35 124.84
  Q 97.80 124.94 98.38 124.31
  A 0.53 0.53 0.0 0 0 98.27 123.50
  Q 97.66 123.11 97.04 123.74
  Z
  M 94.40 124.95
  Q 94.10 125.11 94.10 125.46
  A 0.42 0.42 0.0 0 0 94.57 125.87
  Q 94.90 125.84 95.07 125.56
  A 0.48 0.47 -53.3 0 0 94.99 124.96
  Q 94.76 124.76 94.40 124.95
  Z
  M 94.92 129.08
  A 0.48 0.48 0.0 0 0 95.18 129.94
  Q 95.99 129.99 96.50 129.71
  Q 97.07 129.40 96.61 128.95
  Q 95.94 128.31 94.92 129.08
  Z
  M 94.0298 130.2209
  A 0.78 0.64 -1.4 0 0 93.2344 129.6002
  A 0.78 0.64 -1.4 0 0 92.4702 130.2591
  A 0.78 0.64 -1.4 0 0 93.2656 130.8798
  A 0.78 0.64 -1.4 0 0 94.0298 130.2209
  Z
  M 91.42 133.14
  Q 91.07 133.41 91.15 133.74
  Q 91.24 134.10 91.58 133.94
  Q 91.91 133.78 91.91 133.37
  A 0.30 0.30 0.0 0 0 91.42 133.14
  Z"
/>
<path fill="#ce9b2d" d="
  M 170.96 161.47
  L 174.29 154.11
  A 0.90 0.90 0.0 0 0 173.18 152.89
  Q 173.05 152.93 172.84 153.01
  Q 172.29 153.22 172.22 152.64
  Q 172.16 152.17 172.55 151.56
  Q 173.84 149.55 176.29 146.01
  Q 176.32 145.96 176.29 145.92
  L 176.16 145.69
  A 0.34 0.34 0.0 0 0 175.62 145.63
  C 173.01 148.59 169.85 152.03 166.21 154.61
  C 163.56 156.49 160.75 158.13 159.65 160.54
  Q 159.42 161.04 159.74 161.49
  Q 160.26 162.25 160.20 163.49
  A 0.44 0.44 0.0 0 0 160.91 163.87
  L 164.05 161.55
  Q 164.89 160.92 164.60 161.93
  Q 163.59 165.42 161.61 168.64
  Q 160.93 169.76 158.52 172.73
  Q 158.17 173.16 158.72 173.26
  Q 159.05 173.32 159.54 173.08
  Q 159.22 173.52 158.83 173.73
  Q 158.39 173.97 157.95 173.75
  Q 157.27 173.43 156.52 173.68
  Q 154.37 174.40 153.41 174.68
  Q 151.44 175.25 152.80 173.72
  C 154.84 171.44 157.89 168.44 157.26 165.49
  Q 157.15 164.97 156.63 165.09
  Q 154.27 165.65 153.89 164.81
  L 154.95 161.32
  Q 155.07 160.90 154.72 160.64
  Q 154.52 160.48 154.36 160.52
  Q 152.71 160.86 153.76 159.64
  L 157.12 155.79
  Q 157.88 154.92 156.83 155.40
  L 151.25 158.00
  Q 149.69 158.72 150.65 157.30
  Q 159.47 144.29 165.44 128.99
  Q 166.64 125.92 166.97 122.17
  L 167.59 110.45
  Q 167.70 108.31 168.78 110.16
  C 174.95 120.70 170.59 134.29 165.37 144.44
  Q 165.12 144.93 165.60 145.21
  Q 165.78 145.31 166.00 145.31
  Q 166.20 145.30 166.44 145.12
  Q 168.80 143.26 169.65 141.91
  Q 176.23 131.46 179.02 126.55
  Q 179.82 125.15 179.84 126.76
  Q 179.90 132.12 177.41 137.46
  A 0.75 0.73 -63.1 0 0 177.71 138.41
  L 180.39 139.96
  Q 180.86 140.23 180.90 140.77
  L 181.31 147.31
  Q 181.37 148.16 182.17 147.88
  L 183.84 147.29
  Q 184.33 147.12 184.37 147.63
  Q 184.85 152.72 183.17 156.54
  Q 182.96 157.01 182.51 157.27
  L 177.25 160.31
  Q 176.17 160.94 176.50 159.74
  L 176.88 158.36
  Q 177.21 157.17 176.19 157.87
  L 170.96 161.47
  Z"
/>
<path fill="#231b05" d="
  M 79.13 110.36
  C 82.66 110.35 87.18 111.42 90.47 113.37
  C 93.38 115.08 93.38 117.91 91.15 120.19
  C 88.16 123.15 87.33 126.13 82.20 127.32
  C 81.14 127.57 79.37 127.26 78.40 127.49
  Q 77.90 127.61 77.90 128.12
  Q 77.90 129.40 77.40 130.15
  Q 76.82 130.99 76.76 129.97
  L 76.59 127.50
  Q 76.56 127.00 76.15 126.70
  C 72.59 124.19 72.21 122.30 70.55 119.03
  Q 71.28 110.29 79.13 110.36
  Z"
/>
<path fill="#73643f" d="
  M 70.55 119.03
  C 72.21 122.30 72.59 124.19 76.15 126.70
  Q 76.56 127.00 76.59 127.50
  L 76.76 129.97
  Q 76.82 130.99 77.40 130.15
  Q 77.90 129.40 77.90 128.12
  Q 77.90 127.61 78.40 127.49
  C 79.37 127.26 81.14 127.57 82.20 127.32
  C 87.33 126.13 88.16 123.15 91.15 120.19
  Q 91.00 122.24 89.20 123.49
  A 0.59 0.59 0.0 0 0 89.02 124.28
  Q 89.34 124.85 90.13 124.93
  Q 90.52 124.97 90.59 125.36
  Q 90.62 125.53 90.55 125.70
  Q 90.46 125.89 90.26 125.90
  Q 89.55 125.93 88.97 126.27
  Q 88.21 126.71 88.87 126.94
  Q 88.97 126.97 89.22 126.95
  Q 89.58 126.92 89.75 127.24
  Q 90.62 128.87 90.83 129.98
  Q 90.85 130.11 90.69 130.52
  Q 90.63 130.66 90.46 130.77
  A 0.37 0.37 0.0 0 1 89.91 130.57
  Q 89.59 129.53 89.94 128.89
  A 0.53 0.53 0.0 0 0 89.74 128.17
  L 88.99 127.73
  A 0.65 0.65 0.0 0 0 88.04 128.12
  Q 87.78 129.08 87.96 130.21
  A 1.07 1.07 0.0 0 0 88.56 131.01
  Q 89.21 131.32 89.50 131.92
  Q 89.71 132.34 89.54 132.78
  Q 88.81 134.69 90.63 136.76
  Q 88.87 136.25 82.21 134.01
  Q 76.87 132.22 71.38 133.97
  Q 68.98 131.40 68.68 129.25
  Q 68.08 125.05 70.55 119.03
  Z"
/>
<path fill="#cca547" d="
  M 97.04 123.74
  Q 97.66 123.11 98.27 123.50
  A 0.53 0.53 0.0 0 1 98.38 124.31
  Q 97.80 124.94 97.35 124.84
  A 0.66 0.65 -60.8 0 1 97.04 123.74
  Z"
/>
<path fill="#e1b64d" d="
  M 110.45 130.60
  Q 110.78 131.70 111.69 132.85
  Q 111.99 133.23 111.85 133.70
  Q 111.23 135.77 113.03 137.24
  L 112.29 138.77
  Q 112.52 137.97 111.55 137.56
  C 110.36 137.06 108.13 137.46 106.91 137.54
  C 101.46 137.91 98.41 141.17 93.55 138.18
  L 96.90 136.74
  Q 97.40 136.53 97.39 135.99
  Q 97.37 135.33 97.09 134.65
  Q 96.85 134.06 97.45 133.85
  L 99.01 133.31
  Q 99.52 133.13 99.78 132.66
  L 102.01 128.81
  Q 102.32 128.27 102.90 128.07
  L 105.80 127.05
  Q 106.27 126.88 106.48 126.43
  Q 106.92 125.49 106.57 124.24
  Q 108.61 123.18 110.04 123.93
  Q 110.48 124.17 110.48 124.67
  L 110.45 130.60
  Z"
/>
<path fill="#cca547" d="
  M 94.40 124.95
  Q 94.76 124.76 94.99 124.96
  A 0.48 0.47 -53.3 0 1 95.07 125.56
  Q 94.90 125.84 94.57 125.87
  A 0.42 0.42 0.0 0 1 94.10 125.46
  Q 94.10 125.11 94.40 124.95
  Z"
/>
<path fill="#ad7c2c" d="
  M 94.92 129.08
  Q 95.94 128.31 96.61 128.95
  Q 97.07 129.40 96.50 129.71
  Q 95.99 129.99 95.18 129.94
  A 0.48 0.48 0.0 0 1 94.92 129.08
  Z"
/>
<ellipse fill="#ad7c2c" cx="0.00" cy="0.00" transform="translate(93.25,130.24) rotate(-1.4)" rx="0.78" ry="0.64"/>
<path fill="#532785" d="
  M 32.94 156.24
  L 25.23 166.31
  Q 24.19 164.31 23.45 162.25
  Q 18.33 147.93 17.22 132.84
  A 0.52 0.52 0.0 0 1 17.74 132.28
  L 27.52 132.28
  A 0.64 0.64 0.0 0 1 28.16 132.87
  Q 29.06 144.79 32.94 156.24
  Z"
/>
<path fill="#29abe2" d="
  M 201.43 201.43
  C 182.99 219.87 158.54 231.01 132.58 232.75
  A 0.34 0.33 88.0 0 1 132.22 232.41
  L 132.22 222.41
  A 0.63 0.62 -2.5 0 1 132.80 221.80
  C 155.89 219.96 177.17 210.16 193.68 193.67
  C 210.18 177.17 219.99 155.89 221.84 132.80
  A 0.63 0.62 -87.5 0 1 222.46 132.23
  L 232.45 132.23
  A 0.34 0.33 2.0 0 1 232.79 132.59
  C 231.04 158.55 219.88 182.99 201.43 201.43
  Z"
/>
<path fill="#73643f" d="
  M 91.42 133.14
  A 0.30 0.30 0.0 0 1 91.91 133.37
  Q 91.91 133.78 91.58 133.94
  Q 91.24 134.10 91.15 133.74
  Q 91.07 133.41 91.42 133.14
  Z"
/>
<path fill="#231b05" d="
  M 90.63 136.76
  L 93.55 138.18
  C 98.41 141.17 101.46 137.91 106.91 137.54
  C 108.13 137.46 110.36 137.06 111.55 137.56
  Q 112.52 137.97 112.29 138.77
  L 106.27 140.41
  Q 98.54 141.09 96.56 140.45
  C 92.89 139.28 89.33 137.99 85.50 137.36
  Q 78.54 136.20 71.76 134.88
  L 71.38 133.97
  Q 76.87 132.22 82.21 134.01
  Q 88.87 136.25 90.63 136.76
  Z"
/>
<path fill="#73643f" d="
  M 106.27 140.41
  Q 102.81 142.38 99.07 143.13
  C 96.27 143.69 93.36 143.01 90.50 142.51
  Q 89.27 142.30 86.35 142.94
  Q 85.87 143.05 85.51 143.40
  Q 83.36 145.45 79.75 145.77
  L 72.71 139.70
  L 72.33 139.31
  Q 71.66 137.10 71.76 134.88
  Q 78.54 136.20 85.50 137.36
  C 89.33 137.99 92.89 139.28 96.56 140.45
  Q 98.54 141.09 106.27 140.41
  Z"
/>
<path fill="#cca547" d="
  M 113.03 137.24
  L 113.52 137.98
  Q 113.50 143.62 109.13 144.25
  Q 105.60 144.76 105.16 144.91
  C 100.67 146.46 97.43 149.71 92.43 147.74
  Q 91.93 147.54 91.40 147.64
  Q 84.73 148.86 79.75 145.77
  Q 83.36 145.45 85.51 143.40
  Q 85.87 143.05 86.35 142.94
  Q 89.27 142.30 90.50 142.51
  C 93.36 143.01 96.27 143.69 99.07 143.13
  Q 102.81 142.38 106.27 140.41
  L 112.29 138.77
  L 113.03 137.24
  Z"
/>
<path fill="#e0c370" d="
  M 72.71 139.70
  L 79.75 145.77
  Q 84.73 148.86 91.40 147.64
  Q 91.93 147.54 92.43 147.74
  C 97.43 149.71 100.67 146.46 105.16 144.91
  Q 105.60 144.76 109.13 144.25
  Q 113.50 143.62 113.52 137.98
  Q 116.16 140.66 117.42 143.65
  A 1.62 1.61 -21.9 0 1 116.51 145.78
  C 112.00 147.50 108.61 148.54 104.50 152.03
  C 98.88 156.82 91.75 164.61 85.79 158.66
  C 83.89 156.77 81.66 155.76 79.93 153.38
  Q 75.36 147.06 72.71 139.70
  Z"
/>
<path fill="#ad7c2c" d="
  M 170.96 161.47
  Q 167.37 167.66 162.28 171.17
  L 159.54 173.08
  Q 159.05 173.32 158.72 173.26
  Q 158.17 173.16 158.52 172.73
  Q 160.93 169.76 161.61 168.64
  Q 163.59 165.42 164.60 161.93
  Q 164.89 160.92 164.05 161.55
  L 160.91 163.87
  A 0.44 0.44 0.0 0 1 160.20 163.49
  Q 160.26 162.25 159.74 161.49
  Q 159.42 161.04 159.65 160.54
  C 160.75 158.13 163.56 156.49 166.21 154.61
  C 169.85 152.03 173.01 148.59 175.62 145.63
  A 0.34 0.34 0.0 0 1 176.16 145.69
  L 176.29 145.92
  Q 176.32 145.96 176.29 146.01
  Q 173.84 149.55 172.55 151.56
  Q 172.16 152.17 172.22 152.64
  Q 172.29 153.22 172.84 153.01
  Q 173.05 152.93 173.18 152.89
  A 0.90 0.90 0.0 0 1 174.29 154.11
  L 170.96 161.47
  Z"
/>
<path fill="#eacd80" d="
  M 65.34 155.08
  Q 67.50 162.11 69.54 165.97
  Q 70.28 167.37 71.99 169.35
  Q 73.19 170.73 75.34 171.59
  Q 83.65 174.90 86.35 181.72
  Q 85.58 187.68 87.94 193.06
  Q 88.14 193.52 88.03 194.01
  Q 86.78 199.62 82.58 201.05
  Q 69.79 194.10 59.74 183.62
  Q 59.34 183.21 59.44 182.65
  Q 60.09 179.07 60.19 172.18
  C 60.24 168.90 62.80 167.66 61.03 163.98
  Q 60.81 163.53 61.06 163.08
  Q 63.94 157.99 63.30 152.02
  Q 65.11 153.95 65.34 155.08
  Z"
/>
<path fill="#e1b64d" d="
  M 65.34 155.08
  Q 66.94 155.71 67.95 158.39
  Q 68.44 159.05 69.01 159.37
  Q 69.49 159.64 69.71 159.14
  Q 69.86 158.82 70.18 158.82
  Q 70.43 158.82 70.66 159.00
  C 73.64 161.36 77.92 163.35 79.82 168.29
  Q 76.47 166.23 73.77 164.25
  Q 73.54 164.08 73.61 164.30
  Q 73.65 164.44 73.57 164.55
  Q 73.48 164.67 73.57 164.78
  Q 78.09 170.07 83.93 173.52
  C 87.50 175.64 91.85 176.00 94.49 179.01
  Q 97.06 181.94 97.59 186.48
  A 0.52 0.51 4.3 0 1 96.94 187.03
  Q 94.93 186.49 92.85 185.69
  Q 90.55 184.81 86.35 181.72
  Q 83.65 174.90 75.34 171.59
  Q 73.19 170.73 71.99 169.35
  Q 70.28 167.37 69.54 165.97
  Q 67.50 162.11 65.34 155.08
  Z"
/>
<path fill="#732582" d="
  M 32.94 156.24
  L 39.05 170.44
  L 31.72 179.49
  L 25.23 166.31
  L 32.94 156.24
  Z"
/>
<path fill="#ce9b2d" d="
  M 191.98 162.99
  Q 193.27 168.92 193.26 170.76
  Q 193.22 175.98 193.66 181.29
  Q 193.70 181.79 193.37 182.16
  Q 182.17 194.49 167.32 202.03
  Q 167.41 200.31 169.13 199.11
  Q 172.46 196.77 175.36 194.42
  C 176.52 191.66 179.26 190.12 180.61 188.59
  Q 182.65 186.27 184.17 183.98
  A 3.37 3.37 0.0 0 0 184.71 181.90
  Q 184.37 177.07 185.53 172.62
  Q 185.65 172.14 185.50 171.66
  Q 185.15 170.53 185.69 169.54
  C 186.13 168.73 186.22 167.40 186.49 166.33
  L 189.73 159.18
  Q 189.98 158.62 190.23 159.18
  L 191.98 162.99
  Z"
/>
<path fill="#cca547" d="
  M 130.48 170.93
  Q 125.97 172.74 125.04 173.80
  Q 123.30 175.78 120.63 176.60
  Q 115.43 178.18 110.25 179.34
  A 0.93 0.93 0.0 0 0 109.65 180.71
  L 109.82 181.00
  Q 110.13 181.54 109.65 181.94
  L 107.09 184.09
  A 0.90 0.89 63.1 0 0 106.80 185.00
  L 107.17 186.43
  Q 107.31 186.95 106.78 187.02
  L 103.48 187.44
  Q 102.97 187.51 102.97 188.03
  L 102.97 189.48
  A 1.27 1.24 64.7 0 1 102.70 190.26
  L 100.32 193.24
  Q 100.03 193.62 99.61 193.38
  L 98.98 193.02
  Q 98.60 192.80 98.38 193.18
  L 96.79 195.93
  Q 96.59 196.29 96.21 196.10
  Q 95.95 195.97 95.67 195.66
  A 0.78 0.75 -26.9 0 0 94.95 195.44
  C 91.97 196.07 91.95 199.47 91.41 202.48
  Q 91.32 202.97 91.65 203.35
  C 93.52 205.51 97.38 204.81 101.41 204.76
  Q 102.25 204.75 102.55 205.04
  Q 103.05 205.52 102.98 206.21
  A 1.14 1.14 0.0 0 1 102.52 207.04
  Q 101.71 207.65 101.17 208.57
  Q 91.39 205.91 82.58 201.05
  Q 86.78 199.62 88.03 194.01
  Q 88.14 193.52 87.94 193.06
  Q 85.58 187.68 86.35 181.72
  Q 90.55 184.81 92.85 185.69
  Q 94.93 186.49 96.94 187.03
  A 0.52 0.51 4.3 0 0 97.59 186.48
  Q 97.06 181.94 94.49 179.01
  C 91.85 176.00 87.50 175.64 83.93 173.52
  Q 78.09 170.07 73.57 164.78
  Q 73.48 164.67 73.57 164.55
  Q 73.65 164.44 73.61 164.30
  Q 73.54 164.08 73.77 164.25
  Q 76.47 166.23 79.82 168.29
  Q 87.73 172.90 97.14 172.74
  Q 99.19 172.70 105.91 171.47
  Q 110.00 170.73 114.72 170.16
  C 119.15 169.63 123.18 168.47 127.84 166.29
  Q 134.73 163.08 135.16 162.88
  C 137.11 161.94 138.97 160.25 140.77 159.51
  Q 142.55 158.78 141.42 160.33
  Q 141.11 160.76 140.32 161.49
  A 0.37 0.37 0.0 0 0 140.57 162.13
  L 141.19 162.13
  Q 142.04 162.13 141.36 162.65
  L 130.48 170.93
  Z"
/>
<path fill="#e0c370" d="
  M 186.49 166.33
  C 186.22 167.40 186.13 168.73 185.69 169.54
  Q 185.15 170.53 185.50 171.66
  Q 185.65 172.14 185.53 172.62
  Q 184.37 177.07 184.71 181.90
  A 3.37 3.37 0.0 0 1 184.17 183.98
  Q 182.65 186.27 180.61 188.59
  C 179.26 190.12 176.52 191.66 175.36 194.42
  C 174.34 190.81 175.72 188.52 177.34 184.78
  Q 178.86 181.26 177.63 174.87
  Q 177.52 174.33 176.98 174.31
  Q 166.06 173.91 158.80 180.82
  C 153.70 185.69 150.77 188.46 144.60 190.54
  Q 141.64 191.54 128.94 196.43
  Q 125.73 197.67 123.76 199.25
  Q 116.02 205.45 107.40 210.09
  L 101.17 208.57
  Q 101.71 207.65 102.52 207.04
  A 1.14 1.14 0.0 0 0 102.98 206.21
  Q 103.05 205.52 102.55 205.04
  Q 102.25 204.75 101.41 204.76
  C 97.38 204.81 93.52 205.51 91.65 203.35
  Q 91.32 202.97 91.41 202.48
  C 91.95 199.47 91.97 196.07 94.95 195.44
  A 0.78 0.75 -26.9 0 1 95.67 195.66
  Q 95.95 195.97 96.21 196.10
  Q 96.59 196.29 96.79 195.93
  L 98.38 193.18
  Q 98.60 192.80 98.98 193.02
  L 99.61 193.38
  Q 100.03 193.62 100.32 193.24
  L 102.70 190.26
  A 1.27 1.24 64.7 0 0 102.97 189.48
  L 102.97 188.03
  Q 102.97 187.51 103.48 187.44
  L 106.78 187.02
  Q 107.31 186.95 107.17 186.43
  L 106.80 185.00
  A 0.90 0.89 63.1 0 1 107.09 184.09
  L 109.65 181.94
  Q 110.13 181.54 109.82 181.00
  L 109.65 180.71
  A 0.93 0.93 0.0 0 1 110.25 179.34
  Q 115.43 178.18 120.63 176.60
  Q 123.30 175.78 125.04 173.80
  Q 125.97 172.74 130.48 170.93
  L 139.36 172.45
  Q 139.84 172.53 140.27 172.29
  L 153.89 164.81
  Q 154.27 165.65 156.63 165.09
  Q 157.15 164.97 157.26 165.49
  C 157.89 168.44 154.84 171.44 152.80 173.72
  Q 151.44 175.25 153.41 174.68
  Q 154.37 174.40 156.52 173.68
  Q 157.27 173.43 157.95 173.75
  Q 158.39 173.97 158.83 173.73
  Q 159.22 173.52 159.54 173.08
  L 162.28 171.17
  Q 162.47 172.60 163.63 172.13
  Q 164.57 171.75 169.61 168.55
  A 1.54 1.48 28.5 0 1 170.45 168.32
  Q 174.66 168.41 177.48 165.90
  Q 179.49 164.12 181.21 163.59
  Q 185.31 162.32 186.49 166.33
  Z"
/>
<path fill="#912380" d="
  M 39.05 170.44
  L 46.22 182.00
  L 38.77 190.06
  L 31.72 179.49
  L 39.05 170.44
  Z"
/>
<path fill="#eacd80" d="
  M 175.36 194.42
  Q 172.46 196.77 169.13 199.11
  Q 167.41 200.31 167.32 202.03
  Q 139.46 216.20 107.40 210.09
  Q 116.02 205.45 123.76 199.25
  Q 125.73 197.67 128.94 196.43
  Q 141.64 191.54 144.60 190.54
  C 150.77 188.46 153.70 185.69 158.80 180.82
  Q 166.06 173.91 176.98 174.31
  Q 177.52 174.33 177.63 174.87
  Q 178.86 181.26 177.34 184.78
  C 175.72 188.52 174.34 190.81 175.36 194.42
  Z"
/>
<path fill="#b9217d" d="
  M 46.22 182.00
  Q 52.99 191.17 61.59 198.67
  L 54.70 207.05
  Q 45.83 199.45 38.77 190.06
  L 46.22 182.00
  Z"
/>
<path fill="#ed1e79" d="
  M 54.70 207.05
  L 61.59 198.67
  Q 85.65 219.07 117.22 221.90
  Q 117.79 221.95 117.79 222.53
  L 117.79 232.23
  Q 117.79 232.82 117.20 232.77
  Q 81.71 229.95 54.70 207.05
  Z"
/>
</svg>
