<svg width="200" height="200" viewBox="0 0 200 200" fill="none" xmlns="http://www.w3.org/2000/svg">
<g clip-path="url(#clip0_1301_2)">
<path d="M100 200C155.225 200 200 155.225 200 100C200 44.7749 155.225 0 100 0C44.7749 0 0 44.7749 0 100C0 155.225 44.7749 200 100 200Z" fill="#E3E3E3"/>
<path d="M134.756 66.1836C127.202 66.1836 118.983 70.2932 110.255 78.3558C106.145 82.1523 102.544 86.301 99.8828 89.5495C99.8828 89.5495 104.11 94.4028 108.728 99.6083C111.272 96.438 114.834 92.1719 119.022 88.2971C126.732 81.0955 131.781 79.6083 134.716 79.6083C145.558 79.6083 154.403 88.7276 154.403 99.9605C154.403 111.076 145.597 120.195 134.716 120.313C134.208 120.313 133.581 120.234 132.838 120.078C136.008 121.526 139.452 122.583 142.623 122.583C162.505 122.583 166.458 108.845 166.654 107.867C167.202 105.362 167.554 102.7 167.554 99.9996C167.554 81.3695 152.838 66.1836 134.756 66.1836Z" fill="url(#paint0_linear_1301_2)"/>
<path d="M65.2448 133.815C72.7986 133.815 81.0178 129.706 89.7458 121.643C93.8554 117.847 97.4561 113.698 100.118 110.449C100.118 110.449 95.8906 105.596 91.2722 100.391C88.7282 103.561 85.1665 107.827 80.9787 111.702C73.2683 118.864 68.1802 120.391 65.2839 120.391C54.4425 120.391 45.597 111.271 45.597 100.038C45.597 88.923 54.4033 79.8036 65.2839 79.6862C65.7927 79.6862 66.419 79.7644 67.1626 79.921C63.9924 78.4729 60.5481 77.4161 57.3779 77.4161C37.4953 77.377 33.5423 91.1147 33.3466 92.1323C32.7986 94.6372 32.4464 97.2987 32.4464 99.9993C32.4072 118.59 47.0843 133.815 65.2448 133.815Z" fill="url(#paint1_linear_1301_2)"/>
<path fill-rule="evenodd" clip-rule="evenodd" d="M80.3915 88.6494C78.1998 86.5358 67.5931 77.9253 57.417 77.6122C39.2565 77.1425 33.9336 90.3323 33.4639 92.0153C36.9865 77.2599 49.9414 66.2619 65.323 66.1836C77.8866 66.1836 90.5677 78.4732 99.961 89.5887L100 89.5495C100 89.5495 104.227 94.4028 108.846 99.6083C108.846 99.6083 114.129 105.831 119.687 111.272C121.879 113.385 132.446 121.878 142.622 122.191C161.292 122.7 166.458 108.806 166.693 107.749C163.249 122.622 150.255 133.659 134.795 133.737C122.231 133.737 109.55 121.448 100.118 110.332C100.118 110.371 100.078 110.371 100.078 110.411C100.078 110.411 95.8514 105.557 91.233 100.352C91.2722 100.352 85.9884 94.0897 80.3915 88.6494Z" fill="#29ABE2"/>
</g>
<defs>
<linearGradient id="paint0_linear_1301_2" x1="-56.4773" y1="-17.2606" x2="-17.3383" y2="-17.2606" gradientUnits="userSpaceOnUse">
<stop stop-color="#F15A24"/>
<stop offset="0.21" stop-color="#F15A24"/>
<stop offset="0.68" stop-color="#FBB03B"/>
<stop offset="1" stop-color="#FBB03B"/>
</linearGradient>
<linearGradient id="paint1_linear_1301_2" x1="-56.4773" y1="-17.261" x2="-17.3384" y2="-17.261" gradientUnits="userSpaceOnUse">
<stop stop-color="#ED1E79"/>
<stop offset="0.21" stop-color="#ED1E79"/>
<stop offset="0.89" stop-color="#522785"/>
<stop offset="1" stop-color="#522785"/>
</linearGradient>
<clipPath id="clip0_1301_2">
<rect width="200" height="200" fill="white"/>
</clipPath>
</defs>
</svg>
