<svg width="251" height="251" viewBox="0 0 251 251" fill="none" xmlns="http://www.w3.org/2000/svg">
<path d="M125.3 250.1C194.331 250.1 250.3 194.131 250.3 125.1C250.3 56.0683 194.331 0.0996094 125.3 0.0996094C56.2685 0.0996094 0.299805 56.0683 0.299805 125.1C0.299805 194.131 56.2685 250.1 125.3 250.1Z" fill="#E3E3E3"/>
<path d="M168.744 82.8301C159.302 82.8301 149.028 87.9671 138.118 98.0453C132.981 102.791 128.48 107.977 125.153 112.038C125.153 112.038 130.437 118.104 136.21 124.611C139.39 120.648 143.842 115.315 149.077 110.472C158.715 101.47 165.026 99.6109 168.695 99.6109C182.247 99.6109 193.304 111.01 193.304 125.051C193.304 138.946 182.296 150.345 168.695 150.492C168.059 150.492 167.277 150.394 166.347 150.198C170.31 152.008 174.615 153.329 178.578 153.329C203.431 153.329 208.372 136.157 208.617 134.934C209.302 131.803 209.742 128.476 209.742 125.1C209.742 101.812 191.347 82.8301 168.744 82.8301Z" fill="url(#paint0_linear_1302_12)"/>
<path d="M81.8556 167.37C91.2978 167.37 101.572 162.233 112.482 152.155C117.619 147.409 122.12 142.223 125.447 138.163C125.447 138.163 120.163 132.096 114.39 125.589C111.21 129.552 106.758 134.885 101.523 139.728C91.8849 148.681 85.5248 150.589 81.9045 150.589C68.3526 150.589 57.2959 139.19 57.2959 125.149C57.2959 111.255 68.3037 99.8555 81.9045 99.7088C82.5405 99.7088 83.3233 99.8066 84.2528 100.002C80.29 98.1921 75.9847 96.8712 72.0219 96.8712C47.1687 96.8223 42.2274 113.994 41.9828 115.267C41.2978 118.398 40.8575 121.724 40.8575 125.1C40.8086 148.339 59.155 167.37 81.8556 167.37Z" fill="url(#paint1_linear_1302_12)"/>
<path fill-rule="evenodd" clip-rule="evenodd" d="M100.789 110.912C98.0498 108.27 84.7914 97.5072 72.0713 97.1158C49.3707 96.5287 42.7171 113.016 42.13 115.12C46.5331 96.6755 62.7269 82.9279 81.9539 82.8301C97.6584 82.8301 113.51 98.1921 125.251 112.086L125.3 112.038C125.3 112.038 130.584 118.104 136.357 124.611C136.357 124.611 142.962 132.39 149.909 139.19C152.649 141.832 165.858 152.448 178.578 152.84C201.915 153.476 208.373 136.108 208.666 134.787C204.361 153.378 188.118 167.174 168.793 167.272C153.089 167.272 137.238 151.91 125.447 138.016C125.447 138.065 125.398 138.065 125.398 138.114C125.398 138.114 120.114 132.047 114.341 125.54C114.39 125.54 107.786 117.713 100.789 110.912Z" fill="#29ABE2"/>
<defs>
<linearGradient id="paint0_linear_1302_12" x1="146.717" y1="89.4797" x2="204.662" y2="148.032" gradientUnits="userSpaceOnUse">
<stop offset="0.21" stop-color="#F15A24"/>
<stop offset="0.6841" stop-color="#FBB03B"/>
</linearGradient>
<linearGradient id="paint1_linear_1302_12" x1="103.854" y1="160.716" x2="45.9087" y2="102.163" gradientUnits="userSpaceOnUse">
<stop offset="0.21" stop-color="#ED1E79"/>
<stop offset="0.8929" stop-color="#522785"/>
</linearGradient>
</defs>
</svg>
