<svg version="1.2" xmlns="http://www.w3.org/2000/svg" viewBox="0 0 250 250" width="250" height="250">
	<title>lefeef_ico_source</title>
	<defs>
		<linearGradient id="g1" x2="1" gradientUnits="userSpaceOnUse" gradientTransform="matrix(0,-106.233,41.064,0,82.796,152.416)">
			<stop offset="0" stop-color="#0d19a3"/>
			<stop offset="1" stop-color="#7c1bc8"/>
		</linearGradient>
		<linearGradient id="g2" x2="1" gradientUnits="userSpaceOnUse" gradientTransform="matrix(83.283,0,0,73.397,95.271,150.347)">
			<stop offset="0" stop-color="#01a5fd"/>
			<stop offset="1" stop-color="#005cfe"/>
		</linearGradient>
		<linearGradient id="g3" x2="1" gradientUnits="userSpaceOnUse" gradientTransform="matrix(101.98,100.183,-46.598,47.434,49.977,112.435)">
			<stop offset="0" stop-color="#82cef7"/>
			<stop offset="1" stop-color="#2292ff"/>
		</linearGradient>
		<linearGradient id="g4" x2="1" gradientUnits="userSpaceOnUse" gradientTransform="matrix(49.348,77.091,-22.89,14.652,49.975,138.58)">
			<stop offset="0" stop-color="#b6e9fc"/>
			<stop offset="1" stop-color="#7fd5fd"/>
		</linearGradient>
	</defs>
	<style>
		.s0 { fill: url(#g1) } 
		.s1 { fill: url(#g2) } 
		.s2 { fill: url(#g3) } 
		.s3 { fill: url(#g4) } 
	</style>
	<path id="Layer copy 2" class="s0" d="m46 65c0-19.4 15.6-35 35-35 21.3 0 38.6 17.3 38.6 38.6v151.8c-40.7 0-73.6-32.9-73.6-73.6z"/>
	<path id="Layer copy 3" class="s1" d="m46 80.3c0 0 0.5 67 78.3 67.9 50.1 0.6 39.5 0.6 58.9 0.4 7.2 0 14.1 3.6 18.1 9.6 4 6 4.8 13.7 2 20.4l-1 2.3c-2.4 5.6-5.5 10.8-9.4 15.4-12.8 15.3-31.6 24.1-51.5 24.1h-26c-38.4 0-69.4-31.1-69.4-69.4z"/>
	<path id="Layer copy 4" class="s2" d="m189.8 199.9c0 0-129.6 10.5-143.8-119.6 0 0 0 47.4 0 70.7 0 38.3 31 69.4 69.4 69.4h27.3c15.7 0 30.8-5.8 42.4-16.3z"/>
	<path id="Layer copy 5" class="s3" d="m46 82.3c0 0 0 119.4 87.5 138.1 0.5 0-13.1 0-19.6 0-37.5 0-67.9-30.4-67.9-67.9z"/>
</svg>