<svg width="342" height="100" viewBox="0 0 342 100" fill="none" xmlns="http://www.w3.org/2000/svg">
<mask id="mask0_2_15" style="mask-type:luminance" maskUnits="userSpaceOnUse" x="0" y="0" width="342" height="100">
<path d="M341.667 0H0V100H341.667V0Z" fill="white"/>
</mask>
<g mask="url(#mask0_2_15)">
<path d="M135.902 31.2201C138.063 30.5718 140.521 29.9775 143.277 29.4371C146.086 28.8428 149.139 28.5456 152.435 28.5456C157.405 28.5456 161.053 29.7613 163.376 32.1927C165.699 34.624 166.861 37.8929 166.861 41.9992C166.861 43.1339 166.753 44.3495 166.537 45.6463C166.374 46.889 166.159 48.1857 165.889 49.5365L160.539 71.8239H150.733L155.758 50.5901C156.028 49.4014 156.298 48.1857 156.568 46.943C156.838 45.7003 157.001 44.5116 157.054 43.377C157.108 41.4859 156.649 39.919 155.677 38.6763C154.758 37.4337 152.921 36.8123 150.165 36.8123C147.842 36.8123 145.843 37.0554 144.168 37.5417L135.983 71.8239H126.176L135.902 31.2201ZM186.837 72.9587C181.812 72.9587 177.976 71.4728 175.328 68.5011C172.681 65.5294 171.357 61.6125 171.357 56.7495C171.357 53.6158 171.843 50.3739 172.816 47.024C173.789 43.6741 175.274 40.6214 177.273 37.8659C179.272 35.1103 181.785 32.841 184.811 31.0581C187.836 29.275 191.402 28.3835 195.509 28.3835C200.534 28.3835 204.37 29.8694 207.017 32.841C209.665 35.7587 210.989 39.6489 210.989 44.5116C210.989 47.6994 210.502 50.9683 209.529 54.3182C208.611 57.6679 207.152 60.7207 205.153 63.4761C203.208 66.2321 200.696 68.5011 197.616 70.2842C194.59 72.0674 190.997 72.9587 186.837 72.9587ZM194.293 36.6502C192.186 36.6502 190.295 37.2715 188.62 38.5143C186.999 39.7029 185.621 41.2428 184.486 43.1339C183.406 45.0249 182.568 47.1051 181.974 49.3744C181.38 51.5896 181.083 53.7508 181.083 55.8582C181.083 58.5598 181.596 60.694 182.622 62.2609C183.649 63.8277 185.459 64.6109 188.052 64.6109C190.16 64.6109 192.024 64.0169 193.645 62.8277C195.32 61.5853 196.697 60.0457 197.778 58.2082C198.913 56.3174 199.777 54.2371 200.371 51.9678C200.966 49.6985 201.263 47.5373 201.263 45.4842C201.263 42.7827 200.749 40.6484 199.723 39.0816C198.696 37.4607 196.886 36.6502 194.293 36.6502ZM222.373 31.2201C224.535 30.5718 226.966 29.9775 229.667 29.4371C232.369 28.8428 235.341 28.5456 238.583 28.5456C241.014 28.5456 243.04 28.8968 244.661 29.5992C246.336 30.3016 247.741 31.3012 248.876 32.5979C250.442 31.6794 252.333 30.7879 254.548 29.9234C256.818 29.0049 259.384 28.5456 262.248 28.5456C264.733 28.5456 266.841 28.8968 268.57 29.5992C270.298 30.3016 271.703 31.2741 272.784 32.5169C273.865 33.7596 274.648 35.2454 275.134 36.9744C275.621 38.6493 275.864 40.4864 275.864 42.4855C275.864 44.7007 275.566 47.051 274.972 49.5365L269.623 71.8239H259.816L264.841 50.5901C265.111 49.5635 265.355 48.4559 265.571 47.2672C265.841 46.0245 265.976 44.7818 265.976 43.5391C265.976 42.6746 265.868 41.8371 265.652 41.0266C265.49 40.1622 265.166 39.4328 264.679 38.8384C264.193 38.2441 263.517 37.7578 262.653 37.3796C261.843 37.0014 260.789 36.8123 259.492 36.8123C258.087 36.8123 256.71 37.0825 255.359 37.6227C254.008 38.1631 252.874 38.7304 251.955 39.3247C252.171 40.3513 252.279 41.4589 252.279 42.6476C252.279 43.7282 252.198 44.8628 252.036 46.0515C251.874 47.2402 251.658 48.4019 251.388 49.5365L246.039 71.8239H236.232L241.257 50.5901C241.527 49.6175 241.77 48.5099 241.986 47.2672C242.257 45.9704 242.392 44.7007 242.392 43.4581C242.392 41.675 241.959 40.1352 241.095 38.8384C240.285 37.4877 238.717 36.8123 236.395 36.8123C235.314 36.8123 234.287 36.8933 233.315 37.0554C232.342 37.1635 231.451 37.3256 230.64 37.5417L222.454 71.8239H212.648L222.373 31.2201ZM288.166 71.8239H278.441L288.571 29.4371H298.378L288.166 71.8239ZM295.46 23.0345C294.002 23.0345 292.732 22.6022 291.651 21.7378C290.571 20.8733 290.03 19.5765 290.03 17.8476C290.03 15.8484 290.705 14.2005 292.057 12.9038C293.461 11.6071 295.055 10.9587 296.838 10.9587C298.297 10.9587 299.566 11.4179 300.647 12.3365C301.782 13.2009 302.349 14.4977 302.349 16.2266C302.349 18.2258 301.647 19.8737 300.242 21.1705C298.837 22.4132 297.243 23.0345 295.46 23.0345ZM299.957 55.7772C299.957 52.1029 300.524 48.6179 301.659 45.3221C302.848 41.9722 304.523 39.0546 306.684 36.5691C308.845 34.0297 311.492 32.0306 314.626 30.5718C317.76 29.1129 321.326 28.3835 325.324 28.3835C327.432 28.3835 329.349 28.5726 331.079 28.9508C332.861 29.275 334.536 29.7883 336.103 30.4907L332.618 38.3522C331.646 37.9199 330.565 37.5417 329.377 37.2175C328.188 36.8933 326.729 36.7313 325 36.7313C322.677 36.7313 320.57 37.2175 318.679 38.1901C316.841 39.1086 315.274 40.3783 313.978 41.9992C312.681 43.6201 311.682 45.5382 310.979 47.7535C310.277 49.9687 309.926 52.319 309.926 54.8044C309.926 56.2093 310.061 57.506 310.331 58.6946C310.655 59.8294 311.141 60.856 311.79 61.7745C312.492 62.6391 313.437 63.3141 314.626 63.8006C315.815 64.287 317.301 64.5299 319.084 64.5299C320.921 64.5299 322.677 64.287 324.352 63.8006C326.081 63.3141 327.404 62.8277 328.323 62.3419L329.134 70.3652C327.891 70.9598 326.243 71.5266 324.19 72.0674C322.136 72.6614 319.813 72.9587 317.22 72.9587C314.248 72.9587 311.682 72.5266 309.521 71.662C307.359 70.7435 305.549 69.5277 304.09 68.0147C302.685 66.4478 301.632 64.6381 300.929 62.5848C300.281 60.4777 299.957 58.2082 299.957 55.7772Z" fill="black"/>
<mask id="mask1_2_15" style="mask-type:luminance" maskUnits="userSpaceOnUse" x="-1" y="0" width="117" height="95">
<path d="M115.339 0H-0.0012207V94.1174H115.339V0Z" fill="white"/>
</mask>
<g mask="url(#mask1_2_15)">
<path d="M88.2321 24.4374C81.9565 26.4313 75.8027 28.795 69.8027 31.5162C35.6189 46.9597 12.7508 70.363 18.7241 83.7766C19.9375 86.3065 21.9572 88.3538 24.4609 89.5918C32.5981 93.7103 41.8394 95.0674 50.8053 93.4603C59.7712 91.8538 67.981 87.369 74.2081 80.6761C80.4359 73.9826 84.3473 65.4402 85.3587 56.3239C86.3701 47.2075 84.4277 38.0061 79.8206 30.0932L88.2321 24.4374Z" fill="url(#paint0_linear_2_15)"/>
<path d="M77.037 25.5968C70.8266 16.9062 61.5315 10.8749 51.0226 8.71728C40.5139 6.55961 29.5722 8.43581 20.4007 13.9681C11.2292 19.5005 4.50903 28.278 1.59329 38.5334C-1.32244 48.7887 -0.217153 59.7603 4.68658 69.2386C12.6975 57.625 30.4641 44.3424 53.0402 34.2822C60.8114 30.8008 68.8321 27.8977 77.037 25.5968Z" fill="url(#paint1_linear_2_15)"/>
<path d="M114.945 21.5904C102.948 19.495 101.281 20.3656 96.0571 31.3737C98.1527 19.377 97.2821 17.6947 86.2739 12.4858C98.2707 14.5812 99.9381 13.7106 105.162 2.70255C103.066 14.6993 103.937 16.3667 114.945 21.5904Z" fill="#4A13E5"/>
</g>
</g>
<defs>
<linearGradient id="paint0_linear_2_15" x1="30.7615" y1="76.4299" x2="138.789" y2="51.2049" gradientUnits="userSpaceOnUse">
<stop stop-color="#2810B3"/>
<stop offset="1" stop-color="#8A76FF"/>
</linearGradient>
<linearGradient id="paint1_linear_2_15" x1="57.631" y1="17.2085" x2="-33.3975" y2="75.3348" gradientUnits="userSpaceOnUse">
<stop stop-color="#6000FF"/>
<stop offset="1" stop-color="#7472C9"/>
</linearGradient>
</defs>
</svg>
