<?xml version="1.0" encoding="UTF-8"?>
<svg id="Layer_1" xmlns="http://www.w3.org/2000/svg" xmlns:xlink="http://www.w3.org/1999/xlink" version="1.1" viewBox="0 0 250.9 250.9">
  <!-- Generator: Adobe Illustrator 29.4.0, SVG Export Plug-In . SVG Version: 2.1.0 Build 152)  -->
  <defs>
    <style>
      .st0 {
        fill: url(#linear-gradient2);
      }

      .st1 {
        fill: url(#linear-gradient1);
      }

      .st2 {
        fill: url(#linear-gradient3);
      }

      .st3 {
        fill: url(#linear-gradient5);
      }

      .st4 {
        fill: url(#linear-gradient4);
      }

      .st5 {
        fill: url(#linear-gradient);
      }
    </style>
    <linearGradient id="linear-gradient" x1="65.3" y1="279.7" x2="65.3" y2="2" gradientTransform="translate(0 280) scale(1 -1)" gradientUnits="userSpaceOnUse">
      <stop offset="0" stop-color="#078a8a"/>
      <stop offset=".5" stop-color="#47c78a"/>
    </linearGradient>
    <linearGradient id="linear-gradient1" x1="281.2" y1="32" x2="103.3" y2="36.6" gradientTransform="translate(0 280) scale(1 -1)" gradientUnits="userSpaceOnUse">
      <stop offset=".5" stop-color="#47c78a"/>
      <stop offset="1" stop-color="#078a8a"/>
    </linearGradient>
    <linearGradient id="linear-gradient2" x1="282.6" y1="52.3" x2="96.3" y2="57.3" xlink:href="#linear-gradient1"/>
    <linearGradient id="linear-gradient3" x1="283" y1="73.2" x2="94.4" y2="78.3" xlink:href="#linear-gradient1"/>
    <linearGradient id="linear-gradient4" x1="283" y1="94" x2="94.1" y2="99.2" xlink:href="#linear-gradient1"/>
    <linearGradient id="linear-gradient5" x1="283" y1="114.9" x2="94.1" y2="120.1" xlink:href="#linear-gradient1"/>
  </defs>
  <path class="st5" d="M94,181.5V0h-10.5v177.7c0,31.7,3,63.4,26.2,71.8-37.5-7.1-36.7-45.7-36.7-78.6V0h-10.5v167.1c0,25.4,3.7,66.5,22,77.1-30.2-12.1-32.4-52.8-32.4-83.6V0h-10.5v156.8c0,19.7,1.3,53,17.2,75.1-30.2-26.5-27.6-55.5-27.6-81.8V0h-10.5v146.3c0,12.5-2.8,44.5,16.4,70.6-20.5-23.9-26.8-54.6-26.8-77.3V0H0v135.9C0,198.6,52.3,250.9,115,250.9h15.7c-26.2,0-36.6-7.8-36.6-69.4Z"/>
  <path class="st1" d="M130.7,250.9h120.2v-10.5H103.3c5.9,8.6,14.8,10.5,27.4,10.5Z"/>
  <path class="st0" d="M250.9,230v-10.5H96.3c.6,4,1.4,7.4,2.3,10.5h152.3Z"/>
  <path class="st2" d="M250.9,209.1v-10.5H94.4c.2,3.7.4,7.2.7,10.5h155.9Z"/>
  <path class="st4" d="M94.1,188.2h156.8v-10.5H94v3.8c0,2.3,0,4.5,0,6.6Z"/>
  <rect class="st3" x="94" y="156.8" width="156.9" height="10.5"/>
</svg>