<svg width="1080" height="1080" viewBox="0 0 1080 1080" fill="none" xmlns="http://www.w3.org/2000/svg">
<rect width="1080" height="1080" fill="#101417"/>
<path d="M742.852 602.11L577.923 314.277L894.71 347.865L894.714 347.865C896.671 348.057 898.547 348.745 900.164 349.863C901.78 350.981 903.084 352.492 903.952 354.253C904.82 356.013 905.223 357.966 905.124 359.926C905.024 361.882 904.427 363.781 903.388 365.444L742.852 602.11Z" fill="url(#paint0_linear_721_98)" stroke="black"/>
<path d="M894.588 450.802L894.629 450.735L894.647 450.658C894.83 449.892 895.162 449.17 895.624 448.532C896.087 447.895 896.671 447.354 897.343 446.942C898.015 446.529 898.762 446.253 899.541 446.128C900.32 446.003 901.116 446.033 901.884 446.215C902.651 446.398 903.376 446.729 904.015 447.191C904.654 447.652 905.196 448.235 905.609 448.905C906.022 449.575 906.299 450.32 906.424 451.097C906.549 451.874 906.519 452.668 906.337 453.434L906.323 453.491V453.55V701.415H906.323L906.323 701.423C906.338 702.425 906.079 703.413 905.573 704.28C905.068 705.146 904.335 705.859 903.453 706.341C902.572 706.824 901.575 707.057 900.57 707.017C899.566 706.976 898.591 706.663 897.752 706.111L897.743 706.105L897.733 706.1L781.193 636.571L894.588 450.802Z" fill="white" stroke="black"/>
<path d="M877.676 286.156L877.683 286.16L877.69 286.163C878.968 286.691 880.002 287.678 880.586 288.929C881.17 290.18 881.263 291.604 880.847 292.92C880.43 294.236 879.534 295.348 878.336 296.038C877.137 296.727 875.722 296.943 874.371 296.643L874.345 296.637L874.317 296.634L564.239 262.692L564.239 163.272L564.238 163.262C564.199 161.301 564.662 159.363 565.583 157.63C566.504 155.897 567.852 154.428 569.501 153.36C571.15 152.292 573.045 151.661 575.007 151.527C576.968 151.393 578.931 151.761 580.711 152.595L580.718 152.598L877.676 286.156Z" fill="white" stroke="black"/>
<path d="M633.513 895.988L633.516 895.982L753.86 678.946L879.427 752.68C879.428 752.681 879.43 752.682 879.432 752.683C880.23 753.177 880.888 753.867 881.345 754.685C881.803 755.506 882.043 756.429 882.043 757.368C882.043 758.307 881.803 759.23 881.345 760.051C880.887 760.871 880.227 761.562 879.427 762.057L879.427 762.056L879.416 762.063L649.11 912.451C646.839 913.584 644.263 913.96 641.761 913.523C639.251 913.084 636.948 911.851 635.196 910.005C633.443 908.159 632.333 905.799 632.03 903.274C631.727 900.75 632.247 898.195 633.513 895.988Z" fill="white" stroke="black"/>
<path d="M518.942 917.134L373.46 661.609H539.319H705.177L559.695 917.134C559.694 917.137 559.692 917.139 559.691 917.142C557.551 920.612 554.556 923.477 550.991 925.466C547.424 927.455 543.405 928.5 539.319 928.5C535.232 928.5 531.213 927.455 527.646 925.466C524.082 923.477 521.087 920.612 518.947 917.142C518.945 917.139 518.944 917.137 518.942 917.134Z" fill="url(#paint1_linear_721_98)" stroke="black"/>
<path d="M182.108 706.101L182.1 706.106L182.092 706.111C181.252 706.663 180.278 706.976 179.273 707.017C178.268 707.057 177.272 706.824 176.39 706.341C175.509 705.859 174.776 705.146 174.27 704.28C173.765 703.413 173.506 702.425 173.521 701.423V701.415V453.866C173.596 452.674 174.038 451.533 174.787 450.6C175.538 449.663 176.562 448.981 177.718 448.647C178.874 448.313 180.105 448.344 181.243 448.736C182.374 449.125 183.358 449.853 184.06 450.819L297.446 636.273L182.108 706.101Z" fill="white" stroke="black"/>
<path d="M325.22 678.685L325.223 678.683L326.287 678.046L446.629 895.078L446.628 895.078L446.632 895.084C447.898 897.291 448.418 899.846 448.115 902.37C447.812 904.895 446.702 907.255 444.949 909.101C443.196 910.947 440.894 912.18 438.383 912.619C435.882 913.056 433.306 912.68 431.035 911.547L200.729 761.159L200.729 761.159L200.718 761.153C199.918 760.658 199.258 759.967 198.8 759.147C198.342 758.326 198.102 757.403 198.102 756.464C198.102 755.525 198.342 754.602 198.8 753.781C199.257 752.962 199.915 752.273 200.713 751.779C200.715 751.778 200.717 751.777 200.718 751.776L325.22 678.685Z" fill="white" stroke="black"/>
<path d="M204.323 296.634L204.296 296.637L204.269 296.643C202.918 296.943 201.504 296.727 200.305 296.038C199.106 295.348 198.21 294.236 197.794 292.92C197.377 291.604 197.47 290.18 198.055 288.929C198.639 287.678 199.672 286.691 200.951 286.163L200.958 286.16L200.965 286.156L497.923 152.598L497.93 152.595C499.709 151.761 501.672 151.393 503.634 151.527C505.595 151.661 507.49 152.292 509.139 153.36C510.788 154.428 512.137 155.897 513.058 157.63C513.978 159.363 514.441 161.301 514.402 163.262L514.402 163.262V163.272V262.692L204.323 296.634Z" fill="white" stroke="black"/>
<path d="M500.716 314.277L335.787 602.11L175.256 365.451C175.255 365.449 175.253 365.446 175.251 365.443C174.212 363.781 173.615 361.882 173.516 359.926C173.416 357.966 173.819 356.013 174.687 354.253C175.555 352.492 176.859 350.981 178.476 349.863C180.092 348.745 181.968 348.057 183.926 347.865L183.93 347.865L500.716 314.277Z" fill="#A4A5A7" stroke="black"/>
<defs>
<linearGradient id="paint0_linear_721_98" x1="741.321" y1="603.054" x2="741.321" y2="313.677" gradientUnits="userSpaceOnUse">
<stop stop-color="#AFB0B1"/>
<stop offset="1" stop-color="#9B9C9E"/>
</linearGradient>
<linearGradient id="paint1_linear_721_98" x1="539.319" y1="929" x2="539.319" y2="661.109" gradientUnits="userSpaceOnUse">
<stop stop-color="#AFB0B1"/>
<stop offset="1" stop-color="#9B9C9E"/>
</linearGradient>
</defs>
</svg>
