<?xml version="1.0" encoding="UTF-8"?>
<svg version="1.1" xmlns="http://www.w3.org/2000/svg" width="250" height="250">
<path d="M0 0 C1.05477539 -0.00580078 1.05477539 -0.00580078 2.13085938 -0.01171875 C7.55790204 -0.00154622 11.50816142 0.08877428 16.0625 3.125 C18.63016546 3.7367498 21.15793602 4.27563535 23.75 4.75 C24.45189453 4.8840625 25.15378906 5.018125 25.87695312 5.15625 C27.60431706 5.4852717 29.33326591 5.80595312 31.0625 6.125 C31.0625 6.785 31.0625 7.445 31.0625 8.125 C31.62759277 8.20540527 32.19268555 8.28581055 32.77490234 8.36865234 C35.33042602 8.73718188 37.88389284 9.11842652 40.4375 9.5 C41.77167969 9.68949219 41.77167969 9.68949219 43.1328125 9.8828125 C43.98359375 10.01171875 44.834375 10.140625 45.7109375 10.2734375 C46.88922119 10.44625244 46.88922119 10.44625244 48.09130859 10.62255859 C50.0625 11.125 50.0625 11.125 52.0625 13.125 C54.25954511 13.80151207 54.25954511 13.80151207 56.6875 14.25 C57.50476563 14.41757813 58.32203125 14.58515625 59.1640625 14.7578125 C59.79054687 14.87898437 60.41703125 15.00015625 61.0625 15.125 C60.32328218 18.49724128 59.23782183 20.42760093 57.0625 23.125 C56.0725 24.61 56.0725 24.61 55.0625 26.125 C54.0625 27.45833333 53.0625 28.79166667 52.0625 30.125 C51.0725 31.61 51.0725 31.61 50.0625 33.125 C49.0725 34.115 49.0725 34.115 48.0625 35.125 C47.5984375 36.3625 47.5984375 36.3625 47.125 37.625 C46.0625 40.125 46.0625 40.125 43.0625 42.125 C42.38117549 43.78572849 41.71507873 45.452767 41.0625 47.125 C40.0625 48.125 39.0625 49.125 38.0625 50.125 C36.87222016 52.72415538 36.87222016 52.72415538 36.0625 55.125 C35.4025 55.125 34.7425 55.125 34.0625 55.125 C33.670625 56.23875 33.27875 57.3525 32.875 58.5 C31.937369 61.16484599 31.3455177 61.96061849 28.86328125 63.40234375 C25.40043205 64.29582646 22.94894708 63.93810264 19.4375 63.3125 C18.31085938 63.12042969 17.18421875 62.92835938 16.0234375 62.73046875 C13.0625 62.125 13.0625 62.125 10.0625 61.125 C10.0625 60.465 10.0625 59.805 10.0625 59.125 C5.4425 58.135 0.8225 57.145 -3.9375 56.125 C-3.9375 55.465 -3.9375 54.805 -3.9375 54.125 C-4.90171875 53.94324219 -5.8659375 53.76148438 -6.859375 53.57421875 C-8.12265625 53.32285156 -9.3859375 53.07148438 -10.6875 52.8125 C-11.94046875 52.56886719 -13.1934375 52.32523438 -14.484375 52.07421875 C-17.81655299 51.15824675 -19.29153334 50.19841505 -21.9375 48.125 C-24.37813441 47.45352082 -24.37813441 47.45352082 -26.9375 47.125 C-30.87342005 46.5490117 -32.80069179 45.5069944 -35.9375 43.125 C-38.24908324 42.42326199 -38.24908324 42.42326199 -40.625 42.0625 C-43.01171875 41.65234375 -43.01171875 41.65234375 -44.9375 41.125 C-45.2675 40.465 -45.5975 39.805 -45.9375 39.125 C-47.89566886 38.54821978 -49.8808228 38.06130036 -51.875 37.625 C-57.71917939 36.34332061 -57.71917939 36.34332061 -59.9375 34.125 C-61.89923607 33.56047163 -63.88260426 33.06936463 -65.875 32.625 C-69.54675071 31.80409826 -71.77883814 31.23077457 -74.9375 29.125 C-77.05030345 28.49207617 -77.05030345 28.49207617 -78.9375 28.125 C-78.9375 26.805 -78.9375 25.485 -78.9375 24.125 C-77.2875 23.795 -75.6375 23.465 -73.9375 23.125 C-73.9375 22.465 -73.9375 21.805 -73.9375 21.125 C-72.81730469 20.85945313 -71.69710937 20.59390625 -70.54296875 20.3203125 C-69.07023662 19.96385504 -67.59758449 19.60706692 -66.125 19.25 C-65.01801758 18.98896484 -65.01801758 18.98896484 -63.88867188 18.72265625 C-60.44032963 17.88007489 -57.91821638 17.11214425 -54.9375 15.125 C-52.97241717 14.57223408 -50.99051274 14.07772478 -49 13.625 C-45.32833401 12.78784195 -42.28078866 11.8205738 -38.9375 10.125 C-36.62252499 9.55613242 -34.30413037 9.12344286 -31.9609375 8.6875 C-29.7308256 8.2462482 -29.7308256 8.2462482 -27.9375 6.125 C-24.35429859 5.24676436 -20.7500127 4.58965403 -17.125 3.90625 C-13.86641639 3.39955035 -13.86641639 3.39955035 -11.9375 1.125 C-8.11612755 -0.32290611 -4.02754643 -0.02202851 0 0 Z " fill="#8471FB" transform="translate(128.9375,138.875)"/>
<path d="M0 0 C2.00001075 2.65117704 2.61449564 5.46248441 3.5 8.625 C4.42661448 10.99301478 5.51270043 12.06190902 7.34375 13.78125 C8.01724161 15.44517045 8.6846659 17.11157028 9.34375 18.78125 C10.00375 19.11125 10.66375 19.44125 11.34375 19.78125 C12.21763005 21.80865171 12.87355922 23.8719737 13.5625 25.96875 C14.19704445 27.97637796 14.19704445 27.97637796 16.34375 28.78125 C17.34375 30.7421875 17.34375 30.7421875 18.34375 33.15625 C19.51972659 35.97675635 20.63294072 38.21503609 22.34375 40.78125 C24.28280006 46.59840018 23.80353262 52.21437355 21.34375 57.78125 C20.34375 58.78125 19.34375 59.78125 18.34375 60.78125 C18.01375 61.77125 17.68375 62.76125 17.34375 63.78125 C16.34375 66.78125 16.34375 66.78125 14.84375 68.21875 C12.50388283 70.65611164 12.13254223 73.56540476 11.34375 76.78125 C10.68375 76.78125 10.02375 76.78125 9.34375 76.78125 C8.35375 79.42125 7.36375 82.06125 6.34375 84.78125 C5.68375 84.78125 5.02375 84.78125 4.34375 84.78125 C4.34375 85.44125 4.34375 86.10125 4.34375 86.78125 C2.55134337 86.66735125 0.75980165 86.53977313 -1.03125 86.40625 C-2.52785156 86.30183594 -2.52785156 86.30183594 -4.0546875 86.1953125 C-6.65625 85.78125 -6.65625 85.78125 -8.65625 83.78125 C-12.30476017 83.04640404 -15.94314991 82.469844 -19.62304688 81.92578125 C-21.6446388 81.60467442 -23.65242752 81.19914833 -25.65625 80.78125 C-25.98625 80.12125 -26.31625 79.46125 -26.65625 78.78125 C-29.89694357 78.05983686 -33.12408377 77.52382467 -36.40234375 77.01367188 C-41.2410224 76.20124067 -45.18176977 74.78742643 -49.65625 72.78125 C-51.98222511 72.3999426 -54.31537158 72.05664746 -56.65625 71.78125 C-57.31625 71.45125 -57.97625 71.12125 -58.65625 70.78125 C-58.65625 62.20125 -58.65625 53.62125 -58.65625 44.78125 C-58.32625 44.78125 -57.99625 44.78125 -57.65625 44.78125 C-57.53507813 43.50507812 -57.41390625 42.22890625 -57.2890625 40.9140625 C-57.12025509 39.24474474 -56.9509589 37.57547635 -56.78125 35.90625 C-56.70261719 35.06449219 -56.62398437 34.22273438 -56.54296875 33.35546875 C-56.45917969 32.54980469 -56.37539062 31.74414062 -56.2890625 30.9140625 C-56.21574707 30.17043457 -56.14243164 29.42680664 -56.06689453 28.66064453 C-55.65625 26.78125 -55.65625 26.78125 -53.65625 24.78125 C-52.810625 24.45125 -51.965 24.12125 -51.09375 23.78125 C-48.50783559 23.03254886 -48.50783559 23.03254886 -47.65625 20.78125 C-45.7040516 20.05331161 -43.75020103 19.32923006 -41.78515625 18.63671875 C-38.78197858 17.42993726 -36.29325118 15.63913719 -33.65625 13.78125 C-32.33057801 13.09947584 -30.99871312 12.42933564 -29.65625 11.78125 C-28.66625 11.12125 -27.67625 10.46125 -26.65625 9.78125 C-25.46 9.471875 -24.26375 9.1625 -23.03125 8.84375 C-21.9175 8.493125 -20.80375 8.1425 -19.65625 7.78125 C-19.32625 6.79125 -18.99625 5.80125 -18.65625 4.78125 C-15.76066559 3.3334578 -13.91436062 2.78125 -10.65625 2.78125 C-10.32625 1.79125 -9.99625 0.80125 -9.65625 -0.21875 C-6.44259216 -1.43772367 -2.91458864 -2.1446973 0 0 Z " fill="#8472FC" transform="translate(188.65625,64.21875)"/>
<path d="M0 0 C5.13769514 -0.1466009 9.77688863 0.36084896 14.8125 1.375 C15.47958984 1.50132813 16.14667969 1.62765625 16.83398438 1.7578125 C21.74993086 2.74993086 21.74993086 2.74993086 24 5 C26.67279513 5.57603343 29.30383843 6.07106521 32 6.5 C39.72972973 7.72972973 39.72972973 7.72972973 42 10 C44.71616785 10.62592451 47.38171667 11.16067916 50.125 11.625 C50.87910156 11.7590625 51.63320312 11.893125 52.41015625 12.03125 C54.27219918 12.36123229 56.13595175 12.68154073 58 13 C59.13476689 16.40430066 59.04014999 18.81565898 58.9140625 22.3984375 C58.87023437 23.68363281 58.82640625 24.96882813 58.78125 26.29296875 C58.75546875 26.96505371 58.7296875 27.63713867 58.703125 28.32958984 C58.62661258 30.33278061 58.55930074 32.33631606 58.4921875 34.33984375 C58.19759608 42.58022038 57.70457612 50.78460746 57 59 C52.5078125 60.07421875 52.5078125 60.07421875 48.015625 61.1484375 C45.41827707 61.88188549 43.38575899 62.7923936 41 64 C38.68502499 64.56886758 36.36663037 65.00155714 34.0234375 65.4375 C31.7933256 65.8787518 31.7933256 65.8787518 30 68 C26.41679859 68.87823564 22.8125127 69.53534597 19.1875 70.21875 C15.92891639 70.72544965 15.92891639 70.72544965 14 73 C10.67821446 73.87415409 7.33422258 74.53374231 3.96875 75.21875 C0.90589909 75.7581869 0.90589909 75.7581869 -1 78 C-3.12910885 78.56700635 -5.27912585 79.05725659 -7.4375 79.5 C-11.29898789 80.29387014 -13.69953905 80.7996927 -17 83 C-18.32 83 -19.64 83 -21 83 C-20.85805236 80.93722893 -20.71127784 78.87478969 -20.5625 76.8125 C-20.44068359 75.08966797 -20.44068359 75.08966797 -20.31640625 73.33203125 C-19.58031088 65.58031088 -19.58031088 65.58031088 -17 63 C-16.42396657 60.32720487 -15.92893479 57.69616157 -15.5 55 C-14.27027027 47.27027027 -14.27027027 47.27027027 -12 45 C-11.26717808 41.56672931 -10.68974977 38.14376641 -10.14453125 34.67773438 C-9.82292965 32.77406041 -9.41749013 30.88496794 -9 29 C-8.34 28.67 -7.68 28.34 -7 28 C-6.41213382 25.34578421 -5.92171568 22.74340683 -5.5 20.0625 C-4.26741486 12.26741486 -4.26741486 12.26741486 -2 10 C-1.32059533 7.57284794 -1.32059533 7.57284794 -0.875 4.875 C-0.70742187 3.96492188 -0.53984375 3.05484375 -0.3671875 2.1171875 C-0.24601562 1.41851562 -0.12484375 0.71984375 0 0 Z " fill="#8471FB" transform="translate(69,77)"/>
<path d="M0 0 C2.20826378 -0.02722517 4.41662638 -0.04649729 6.625 -0.0625 C7.85476562 -0.07410156 9.08453125 -0.08570313 10.3515625 -0.09765625 C15.31305047 0.03514589 18.82960187 0.21973458 23 3 C25.08622807 3.51164757 25.08622807 3.51164757 27.37890625 3.78125 C28.21744141 3.90113281 29.05597656 4.02101563 29.91992188 4.14453125 C31.68547752 4.38202654 33.45110298 4.61900349 35.21679688 4.85546875 C36.05404297 4.97535156 36.89128906 5.09523438 37.75390625 5.21875 C38.52033447 5.32123047 39.2867627 5.42371094 40.07641602 5.52929688 C42 6 42 6 44 8 C46.07391097 8.52091085 46.07391097 8.52091085 48.46484375 8.78125 C49.34720703 8.90113281 50.22957031 9.02101563 51.13867188 9.14453125 C52.06228516 9.26183594 52.98589844 9.37914062 53.9375 9.5 C55.76003894 9.73244715 57.5817199 9.9717507 59.40234375 10.21875 C60.21179443 10.32123047 61.02124512 10.42371094 61.85522461 10.52929688 C64 11 64 11 67 13 C68.9882494 13.51008009 68.9882494 13.51008009 71.16015625 13.78125 C71.95357422 13.90113281 72.74699219 14.02101563 73.56445312 14.14453125 C75.23364652 14.38205525 76.90291788 14.61903195 78.57226562 14.85546875 C79.76045898 15.03529297 79.76045898 15.03529297 80.97265625 15.21875 C82.05945679 15.3724707 82.05945679 15.3724707 83.16821289 15.52929688 C85 16 85 16 87 18 C86.875 20.5 86.875 20.5 86 23 C84.1875 24.1875 84.1875 24.1875 82 25 C81.360625 25.33 80.72125 25.66 80.0625 26 C78 27 78 27 75.4375 27.9375 C73.00277009 28.82202148 73.00277009 28.82202148 71.5625 30.4375 C69.36320066 32.63679934 66.78884916 33.66367644 64 35 C63.01 35.66 62.02 36.32 61 37 C59 38 57 39 55 40 C54.01 40.66 53.02 41.32 52 42 C51.13375 42.33 50.2675 42.66 49.375 43 C46.84860062 43.76047262 46.84860062 43.76047262 46 46 C40.19659408 48.74898175 36.3067332 49.2505659 30 48 C28.98808594 47.85046875 27.97617188 47.7009375 26.93359375 47.546875 C18.41322674 46.2754845 18.41322674 46.2754845 15 44 C12.66440178 43.36368614 12.66440178 43.36368614 10.125 42.9375 C9.28195313 42.78152344 8.43890625 42.62554687 7.5703125 42.46484375 C5.81816177 42.14796543 4.06265958 41.84921045 2.3046875 41.56640625 C0 41 0 41 -2 39 C-4.65219723 38.422808 -7.26147084 37.92835295 -9.9375 37.5 C-17.59943182 36.26704545 -17.59943182 36.26704545 -21 34 C-19.375 26.25 -19.375 26.25 -16 24 C-14.79549696 21.44816596 -14.79549696 21.44816596 -14 19 C-13.34 19 -12.68 19 -12 19 C-11.566875 18.05125 -11.13375 17.1025 -10.6875 16.125 C-9 13 -9 13 -6 11 C-5.67 10.175 -5.34 9.35 -5 8.5 C-4 6 -4 6 -1 4 C-0.27617533 1.94074861 -0.27617533 1.94074861 0 0 Z " fill="#8472FC" transform="translate(94,39)"/>
<path d="M0 0 C5.13769514 -0.1466009 9.77688863 0.36084896 14.8125 1.375 C15.47958984 1.50132813 16.14667969 1.62765625 16.83398438 1.7578125 C21.74993086 2.74993086 21.74993086 2.74993086 24 5 C26.67279513 5.57603343 29.30383843 6.07106521 32 6.5 C39.72972973 7.72972973 39.72972973 7.72972973 42 10 C44.71616785 10.62592451 47.38171667 11.16067916 50.125 11.625 C50.87910156 11.7590625 51.63320312 11.893125 52.41015625 12.03125 C54.27219918 12.36123229 56.13595175 12.68154073 58 13 C59.13476689 16.40430066 59.04014999 18.81565898 58.9140625 22.3984375 C58.87023437 23.68363281 58.82640625 24.96882813 58.78125 26.29296875 C58.75546875 26.96505371 58.7296875 27.63713867 58.703125 28.32958984 C58.62661258 30.33278061 58.55930074 32.33631606 58.4921875 34.33984375 C58.19759608 42.58022038 57.70457612 50.78460746 57 59 C52.5078125 60.07421875 52.5078125 60.07421875 48.015625 61.1484375 C45.41827707 61.88188549 43.38575899 62.7923936 41 64 C38.68502499 64.56886758 36.36663037 65.00155714 34.0234375 65.4375 C31.7933256 65.8787518 31.7933256 65.8787518 30 68 C27.28383215 68.62592451 24.61828333 69.16067916 21.875 69.625 C20.74384766 69.82609375 20.74384766 69.82609375 19.58984375 70.03125 C17.72780082 70.36123229 15.86404825 70.68154073 14 71 C14 70.34 14 69.68 14 69 C16.97 68.505 16.97 68.505 20 68 C20 67.34 20 66.68 20 66 C21.98 66 23.96 66 26 66 C26 65.34 26 64.68 26 64 C31.62377237 61.85274146 37.27950255 59.87298339 43 58 C43.99 57.67 44.98 57.34 46 57 C48.97 57 51.94 57 55 57 C55.33 43.8 55.66 30.6 56 17 C53.36 16.67 50.72 16.34 48 16 C45.64453125 15.09765625 45.64453125 15.09765625 43.8125 14.0625 C39.15226809 11.48220317 34.83616527 9.82203863 29.54296875 9.03515625 C27.99706055 8.79442383 27.99706055 8.79442383 26.41992188 8.54882812 C24.27700699 8.22641978 22.13377928 7.9060833 19.99023438 7.58789062 C13.95869313 6.64464025 8.6268744 5.38242812 3 3 C2.0050722 6.88960455 1.21536015 10.81231558 0.4375 14.75 C0.29892578 15.44738281 0.16035156 16.14476563 0.01757812 16.86328125 C-0.32248977 18.57534723 -0.66136368 20.28765029 -1 22 C-1.99 22.33 -2.98 22.66 -4 23 C-4 23.99 -4 24.98 -4 26 C-4.66 26 -5.32 26 -6 26 C-5.71861942 23.70704764 -5.4245814 21.41564544 -5.125 19.125 C-4.96257812 17.84882812 -4.80015625 16.57265625 -4.6328125 15.2578125 C-4 12 -4 12 -2 10 C-1.32059533 7.57284794 -1.32059533 7.57284794 -0.875 4.875 C-0.62363281 3.50988281 -0.62363281 3.50988281 -0.3671875 2.1171875 C-0.24601562 1.41851562 -0.12484375 0.71984375 0 0 Z " fill="#766ACF" transform="translate(69,77)"/>
<path d="M0 0 C2.20826378 -0.02722517 4.41662638 -0.04649729 6.625 -0.0625 C7.85476562 -0.07410156 9.08453125 -0.08570313 10.3515625 -0.09765625 C15.31305047 0.03514589 18.82960187 0.21973458 23 3 C25.08622807 3.51164757 25.08622807 3.51164757 27.37890625 3.78125 C28.21744141 3.90113281 29.05597656 4.02101563 29.91992188 4.14453125 C31.68547752 4.38202654 33.45110298 4.61900349 35.21679688 4.85546875 C36.05404297 4.97535156 36.89128906 5.09523438 37.75390625 5.21875 C38.52033447 5.32123047 39.2867627 5.42371094 40.07641602 5.52929688 C42 6 42 6 44 8 C46.074479 8.50468111 46.074479 8.50468111 48.46484375 8.74609375 C49.34720703 8.86146484 50.22957031 8.97683594 51.13867188 9.09570312 C53.00024148 9.32304066 54.86222492 9.54701543 56.72460938 9.76757812 C57.60826172 9.88423828 58.49191406 10.00089844 59.40234375 10.12109375 C60.21179443 10.2183374 61.02124512 10.31558105 61.85522461 10.41577148 C64.34710747 11.09455073 65.35998673 12.0456536 67 14 C56.22784284 14.28683259 46.08125682 14.06678212 36 10 C31.69971083 8.85605121 27.34864717 7.94136502 23 7 C22.3395166 6.85353027 21.6790332 6.70706055 20.99853516 6.55615234 C18.98023611 6.11059147 16.95949094 5.6784636 14.9375 5.25 C13.09478516 4.85554688 13.09478516 4.85554688 11.21484375 4.453125 C8.29075514 4.04098128 6.68735647 3.8818126 4 5 C2.64691687 6.31328657 1.31129922 7.64499081 0 9 C-0.66 9 -1.32 9 -2 9 C-2.33 10.32 -2.66 11.64 -3 13 C-3.928125 13.12375 -3.928125 13.12375 -4.875 13.25 C-7.1765144 13.79994195 -7.1765144 13.79994195 -8.125 16 C-8.41375 16.66 -8.7025 17.32 -9 18 C-9.66 18.33 -10.32 18.66 -11 19 C-9.375 13.25 -9.375 13.25 -6 11 C-5.67 10.175 -5.34 9.35 -5 8.5 C-4 6 -4 6 -1 4 C-0.27617533 1.94074861 -0.27617533 1.94074861 0 0 Z " fill="#7F71E0" transform="translate(94,39)"/>
<path d="M0 0 C0.6875 1.625 0.6875 1.625 1 4 C0.04987876 6.02417134 -0.94991347 8.02583732 -2 10 C-2 10.99 -2 11.98 -2 13 C-1.01 13.33 -0.02 13.66 1 14 C1 14.66 1 15.32 1 16 C1.92619141 16.09087891 1.92619141 16.09087891 2.87109375 16.18359375 C4.64624012 16.35921706 6.42095966 16.53918917 8.1953125 16.72265625 C9.95900799 16.89706068 11.72467951 17.05338548 13.4921875 17.18359375 C14.25789063 17.24675781 15.02359375 17.30992188 15.8125 17.375 C16.49957031 17.42398438 17.18664062 17.47296875 17.89453125 17.5234375 C20 18 20 18 22.40234375 19.4453125 C25.20963421 21.12546529 27.56656199 21.79256933 30.75 22.5 C34.55308622 23.38302616 38.20307758 24.36187377 41.875 25.6875 C48.41925389 27.91983077 53.49549764 26.79434548 60 25 C60 25.66 60 26.32 60 27 C54.14876095 29.61216029 50.32055805 30.25330724 44 29 C42.98808594 28.85046875 41.97617188 28.7009375 40.93359375 28.546875 C32.41322674 27.2754845 32.41322674 27.2754845 29 25 C26.66440178 24.36368614 26.66440178 24.36368614 24.125 23.9375 C23.28195313 23.78152344 22.43890625 23.62554687 21.5703125 23.46484375 C19.81816177 23.14796543 18.06265958 22.84921045 16.3046875 22.56640625 C14 22 14 22 12 20 C9.34780277 19.422808 6.73852916 18.92835295 4.0625 18.5 C-3.59943182 17.26704545 -3.59943182 17.26704545 -7 15 C-5.375 7.25 -5.375 7.25 -2 5 C-0.79549696 2.44816596 -0.79549696 2.44816596 0 0 Z " fill="#5E559E" transform="translate(80,58)"/>
<path d="M0 0 C3 1 3 1 4.09765625 2.9609375 C4.41605469 3.75757812 4.73445312 4.55421875 5.0625 5.375 C6.21523735 8.21749291 7.28043703 10.42065555 9 13 C10.93905006 18.81715018 10.45978262 24.43312355 8 30 C7 31 6 32 5 33 C4.67 33.99 4.34 34.98 4 36 C3 39 3 39 1.5 40.4375 C-0.83986717 42.87486164 -1.21120777 45.78415476 -2 49 C-2.66 49 -3.32 49 -4 49 C-4.99 51.64 -5.98 54.28 -7 57 C-7.66 56.67 -8.32 56.34 -9 56 C-8.01 52.37 -7.02 48.74 -6 45 C-5.34 45 -4.68 45 -4 45 C-3.67 43.35 -3.34 41.7 -3 40 C-2.34 40 -1.68 40 -1 40 C-1 38.35 -1 36.7 -1 35 C-0.34 35 0.32 35 1 35 C1 34.34 1 33.68 1 33 C1.99 32.505 1.99 32.505 3 32 C3.65772428 28.97065509 3.65772428 28.97065509 4 26 C4.66 26 5.32 26 6 26 C6.66 22.7 7.32 19.4 8 16 C7.01 16 6.02 16 5 16 C2 10.375 2 10.375 2 7 C1.34 7 0.68 7 0 7 C0 4.69 0 2.38 0 0 Z " fill="#6D63BF" transform="translate(202,92)"/>
<path d="M0 0 C0.66 0 1.32 0 2 0 C2 0.99 2 1.98 2 3 C1.34 3.66 0.68 4.32 0 5 C2.97 5.495 2.97 5.495 6 6 C6 6.66 6 7.32 6 8 C7.423125 7.9690625 7.423125 7.9690625 8.875 7.9375 C12 8 12 8 14 9 C14 9.66 14 10.32 14 11 C14.94875 10.79375 15.8975 10.5875 16.875 10.375 C17.90625 10.25125 18.9375 10.1275 20 10 C20.66 10.66 21.32 11.32 22 12 C23.98356483 12.71408334 25.98315437 13.38617742 28 14 C28 14.66 28 15.32 28 16 C28.61488281 16.04898438 29.22976562 16.09796875 29.86328125 16.1484375 C30.67152344 16.22320312 31.47976562 16.29796875 32.3125 16.375 C33.11300781 16.44460937 33.91351563 16.51421875 34.73828125 16.5859375 C37 17 37 17 40 19 C40 19.99 40 20.98 40 22 C38.1858073 21.71905418 36.37364999 21.42493567 34.5625 21.125 C33.55316406 20.96257812 32.54382813 20.80015625 31.50390625 20.6328125 C30.67761719 20.42398438 29.85132813 20.21515625 29 20 C28.505 19.01 28.505 19.01 28 18 C26.04183114 17.42321978 24.0566772 16.93630036 22.0625 16.5 C16.21832061 15.21832061 16.21832061 15.21832061 14 13 C12.03826393 12.43547163 10.05489574 11.94436463 8.0625 11.5 C4.39074929 10.67909826 2.15866186 10.10577457 -1 8 C-3.11280345 7.36707617 -3.11280345 7.36707617 -5 7 C-5 5.68 -5 4.36 -5 3 C-3.35 2.67 -1.7 2.34 0 2 C0 1.34 0 0.68 0 0 Z " fill="#8172E4" transform="translate(55,160)"/>
<path d="M0 0 C0.33 0 0.66 0 1 0 C0.67 6.6 0.34 13.2 0 20 C-4.4921875 21.07421875 -4.4921875 21.07421875 -8.984375 22.1484375 C-11.58172293 22.88188549 -13.61424101 23.7923936 -16 25 C-18.31497501 25.56886758 -20.63336963 26.00155714 -22.9765625 26.4375 C-25.2066744 26.8787518 -25.2066744 26.8787518 -27 29 C-29.71616785 29.62592451 -32.38171667 30.16067916 -35.125 30.625 C-35.87910156 30.7590625 -36.63320312 30.893125 -37.41015625 31.03125 C-39.27219918 31.36123229 -41.13595175 31.68154073 -43 32 C-43 31.34 -43 30.68 -43 30 C-41.02 29.67 -39.04 29.34 -37 29 C-37 28.34 -37 27.68 -37 27 C-35.02 27 -33.04 27 -31 27 C-31 26.34 -31 25.68 -31 25 C-25.37622763 22.85274146 -19.72049745 20.87298339 -14 19 C-13.01 18.67 -12.02 18.34 -11 18 C-9.43881572 17.93259135 -7.8749748 17.91485544 -6.3125 17.9375 C-5.10013672 17.95103516 -5.10013672 17.95103516 -3.86328125 17.96484375 C-3.24839844 17.97644531 -2.63351563 17.98804688 -2 18 C-1.90912109 16.17662109 -1.90912109 16.17662109 -1.81640625 14.31640625 C-1.73201668 12.73175772 -1.6473679 11.14712298 -1.5625 9.5625 C-1.52318359 8.76005859 -1.48386719 7.95761719 -1.44335938 7.13085938 C-1.11328125 1.11328125 -1.11328125 1.11328125 0 0 Z " fill="#7566CA" transform="translate(126,116)"/>
<path d="M0 0 C-2.38573379 1.89213369 -4.07175348 3.02391783 -7 4 C-8.26172899 17.65371014 -8.10117918 31.30033933 -8 45 C-5.03 45.66 -2.06 46.32 1 47 C1 47.66 1 48.32 1 49 C-0.79206547 48.85915204 -2.58364917 48.71216299 -4.375 48.5625 C-5.37273437 48.48128906 -6.37046875 48.40007812 -7.3984375 48.31640625 C-10 48 -10 48 -12 47 C-12 38.42 -12 29.84 -12 21 C-11.67 21 -11.34 21 -11 21 C-10.87882813 19.72382812 -10.75765625 18.44765625 -10.6328125 17.1328125 C-10.46400509 15.46349474 -10.2947089 13.79422635 -10.125 12.125 C-10.00705078 10.86236328 -10.00705078 10.86236328 -9.88671875 9.57421875 C-9.80292969 8.76855469 -9.71914062 7.96289062 -9.6328125 7.1328125 C-9.55949707 6.38918457 -9.48618164 5.64555664 -9.41064453 4.87939453 C-9 3 -9 3 -7 1 C-2.38461538 -1.19230769 -2.38461538 -1.19230769 0 0 Z " fill="#655BA9" transform="translate(142,88)"/>
<path d="M0 0 C0 0.66 0 1.32 0 2 C-5.58583698 4.94464646 -10.84429732 7.46107433 -17 9 C-18.62552589 9.51918971 -20.25048498 10.04015594 -21.875 10.5625 C-25.90979216 11.78274869 -29.75668564 12.45151438 -33.94921875 12.81640625 C-36.66033596 13.05911579 -39.32218458 13.51936646 -42 14 C-40 11 -40 11 -37.03125 10.12109375 C-35.8659375 9.89550781 -34.700625 9.66992188 -33.5 9.4375 C-28.7449984 8.69137757 -28.7449984 8.69137757 -25 6 C-21.41679859 5.12176436 -17.8125127 4.46465403 -14.1875 3.78125 C-10.92891639 3.27455035 -10.92891639 3.27455035 -9 1 C-5.97380078 -0.04351697 -3.18208557 -0.08839127 0 0 Z " fill="#695BBA" transform="translate(126,139)"/>
<path d="M0 0 C-0.56589844 0.26554687 -1.13179687 0.53109375 -1.71484375 0.8046875 C-2.44832031 1.15789062 -3.18179688 1.51109375 -3.9375 1.875 C-4.66839844 2.22304687 -5.39929688 2.57109375 -6.15234375 2.9296875 C-8.16332459 3.8684977 -8.16332459 3.8684977 -9 6 C-9.99 6 -10.98 6 -12 6 C-12 6.66 -12 7.32 -12 8 C-14.67105721 9.78070481 -16.37383188 10.50435396 -19.375 11.375 C-23.33454166 12.63311243 -25.7743384 14.36853922 -29 17 C-31.32548007 17.69356423 -33.65880445 18.36149212 -36 19 C-37.34275169 19.98731742 -38.67732273 20.98594743 -40 22 C-42.75 22.6875 -42.75 22.6875 -45 23 C-45.33 22.34 -45.66 21.68 -46 21 C-44.80375 20.5875 -43.6075 20.175 -42.375 19.75 C-38.51419446 18.31072444 -35.37578411 16.37839335 -32 14 C-30.67432801 13.31822584 -29.34246312 12.64808564 -28 12 C-27.01 11.34 -26.02 10.68 -25 10 C-23.80375 9.690625 -22.6075 9.38125 -21.375 9.0625 C-20.26125 8.711875 -19.1475 8.36125 -18 8 C-17.67 7.01 -17.34 6.02 -17 5 C-14.10441559 3.5522078 -12.25811062 3 -9 3 C-8.67 2.01 -8.34 1.02 -8 0 C-4.99093136 -1.24513185 -3.0590674 -0.84653438 0 0 Z " fill="#57509C" transform="translate(187,64)"/>
<path d="M0 0 C1.60495567 0.11442461 3.20898119 0.24194694 4.8125 0.375 C5.70582031 0.44460937 6.59914062 0.51421875 7.51953125 0.5859375 C10 1 10 1 13 3 C15.56766546 3.6117498 18.09543602 4.15063535 20.6875 4.625 C21.38939453 4.7590625 22.09128906 4.893125 22.81445312 5.03125 C24.54181706 5.3602717 26.27076591 5.68095312 28 6 C28 6.66 28 7.32 28 8 C37.405 9.485 37.405 9.485 47 11 C45 13 45 13 43.06323242 13.09960938 C35.89460446 12.33386459 29.21057081 10.55579848 22.3125 8.5 C12.78313774 5.64757035 12.78313774 5.64757035 3 4 C3 3.34 3 2.68 3 2 C2.01 2 1.02 2 0 2 C0 1.34 0 0.68 0 0 Z " fill="#5B529C" transform="translate(132,139)"/>
<path d="M0 0 C2.61240811 3.81058024 1.97649608 7.40558292 1.375 11.75 C1.2349353 12.82362793 1.2349353 12.82362793 1.09204102 13.91894531 C0.30326561 19.2916746 -1.20426582 23.31038138 -4 28 C-4.37291919 29.32280768 -4.71642368 30.65520509 -5 32 C-2.69 32 -0.38 32 2 32 C-0 34 -0 34 -3 36 C-4.32 36 -5.64 36 -7 36 C-6.85805236 33.93722893 -6.71127784 31.87478969 -6.5625 29.8125 C-6.48128906 28.66394531 -6.40007813 27.51539063 -6.31640625 26.33203125 C-5.58031088 18.58031088 -5.58031088 18.58031088 -3 16 C-2.37407549 13.28383215 -1.83932084 10.61828333 -1.375 7.875 C-1.2409375 7.12089844 -1.106875 6.36679688 -0.96875 5.58984375 C-0.63876771 3.72780082 -0.31845927 1.86404825 0 0 Z " fill="#6B62AB" transform="translate(55,124)"/>
<path d="M0 0 C0.33 0.66 0.66 1.32 1 2 C-0.37285156 2.29003906 -0.37285156 2.29003906 -1.7734375 2.5859375 C-2.96195313 2.84632813 -4.15046875 3.10671875 -5.375 3.375 C-6.55835937 3.63023437 -7.74171875 3.88546875 -8.9609375 4.1484375 C-12.08196967 4.75523965 -12.08196967 4.75523965 -14 7 C-16.6015625 7.4140625 -16.6015625 7.4140625 -19.625 7.625 C-20.62789062 7.69976562 -21.63078125 7.77453125 -22.6640625 7.8515625 C-23.82035156 7.92503906 -23.82035156 7.92503906 -25 8 C-25 7.01 -25 6.02 -25 5 C-22.78899655 4.26299885 -20.57771278 3.52744541 -18.36328125 2.80078125 C-16.57596293 2.19516099 -14.81208288 1.51977819 -13.0625 0.8125 C-8.70253969 -0.34422416 -4.48394088 -0.15950778 0 0 Z " fill="#7F71E1" transform="translate(82,148)"/>
<path d="M0 0 C8.33460494 -0.65369451 15.8851304 1.8530177 23.53125 5.0625 C26.28190528 6.10705264 28.91345795 6.63600496 31.8125 7.125 C32.78832031 7.29257813 33.76414063 7.46015625 34.76953125 7.6328125 C35.50558594 7.75398437 36.24164063 7.87515625 37 8 C36.67 8.66 36.34 9.32 36 10 C33.35254679 9.71943562 30.70762036 9.42614369 28.0625 9.125 C26.93038086 9.00705078 26.93038086 9.00705078 25.77539062 8.88671875 C23.84080701 8.66116192 21.91823981 8.33741026 20 8 C19.67 7.34 19.34 6.68 19 6 C15.64154547 5.28247784 12.29735646 4.73660215 8.90234375 4.23242188 C3.41125284 3.32724204 3.41125284 3.32724204 0.9921875 1.40234375 C0.66476563 0.93957031 0.33734375 0.47679687 0 0 Z " fill="#665EAE" transform="translate(143,137)"/>
<path d="M0 0 C2.79310605 0.28110489 5.58398875 0.57436052 8.375 0.875 C9.1690625 0.95363281 9.963125 1.03226563 10.78125 1.11328125 C16.7734375 1.7734375 16.7734375 1.7734375 19 4 C18.875 6.5 18.875 6.5 18 9 C16.1875 10.1875 16.1875 10.1875 14 11 C13.34 11.350625 12.68 11.70125 12 12.0625 C10.01065256 12.99500661 8.14321257 13.54074016 6 14 C7 11 7 11 8.875 9.875 C10.55705727 9.18238818 12.27427551 8.5752415 14 8 C13.67 7.01 13.34 6.02 13 5 C9.97717357 3.96452953 9.97717357 3.96452953 6.4375 3.3125 C5.23996094 3.06113281 4.04242188 2.80976562 2.80859375 2.55078125 C1.88175781 2.36902344 0.95492187 2.18726563 0 2 C0 1.34 0 0.68 0 0 Z " fill="#625BA5" transform="translate(162,53)"/>
<path d="M0 0 C5.77807024 -0.2358396 10.51324804 0.13216954 16 2 C16 2.33 16 2.66 16 3 C14.67935547 2.80470703 14.67935547 2.80470703 13.33203125 2.60546875 C7.03741946 1.54891026 7.03741946 1.54891026 1.09375 3.046875 C-0.35997625 4.56493054 -0.35997625 4.56493054 -2 7 C-2.66 7 -3.32 7 -4 7 C-4.33 8.32 -4.66 9.64 -5 11 C-5.928125 11.12375 -5.928125 11.12375 -6.875 11.25 C-9.1765144 11.79994195 -9.1765144 11.79994195 -10.125 14 C-10.41375 14.66 -10.7025 15.32 -11 16 C-11.66 16.33 -12.32 16.66 -13 17 C-11.375 11.25 -11.375 11.25 -8 9 C-7.566875 7.7315625 -7.566875 7.7315625 -7.125 6.4375 C-6.75375 5.633125 -6.3825 4.82875 -6 4 C-3.375 3.1875 -3.375 3.1875 -1 3 C-0.67 2.01 -0.34 1.02 0 0 Z " fill="#7F71E1" transform="translate(96,41)"/>
<path d="M0 0 C0.66 0.33 1.32 0.66 2 1 C0.75023244 4.65316671 0.32901247 5.78065836 -3 8 C-3.68132451 9.66072849 -4.34742127 11.327767 -5 13 C-6 14 -7 15 -8 16 C-9.19027984 18.59915538 -9.19027984 18.59915538 -10 21 C-10.99 21 -11.98 21 -13 21 C-13 19.35 -13 17.7 -13 16 C-12.34 16 -11.68 16 -11 16 C-11 15.01 -11 14.02 -11 13 C-10.34 13 -9.68 13 -9 13 C-8.8453125 12.1646875 -8.8453125 12.1646875 -8.6875 11.3125 C-7.85821592 8.5230899 -6.65700944 6.3860936 -5 4 C-4.34 4 -3.68 4 -3 4 C-3 3.34 -3 2.68 -3 2 C-2.01 2 -1.02 2 0 2 C0 1.34 0 0.68 0 0 Z " fill="#6860BA" transform="translate(175,173)"/>
<path d="M0 0 C2.31 0 4.62 0 7 0 C7 0.33 7 0.66 7 1 C5.35 1 3.7 1 2 1 C1.95101562 1.59425781 1.90203125 2.18851562 1.8515625 2.80078125 C1.26681078 9.28345975 0.25048188 15.61404401 -1 22 C-1.99 22.33 -2.98 22.66 -4 23 C-4 23.99 -4 24.98 -4 26 C-4.66 26 -5.32 26 -6 26 C-5.71861942 23.70704764 -5.4245814 21.41564544 -5.125 19.125 C-4.96257812 17.84882812 -4.80015625 16.57265625 -4.6328125 15.2578125 C-4 12 -4 12 -2 10 C-1.32059533 7.57284794 -1.32059533 7.57284794 -0.875 4.875 C-0.62363281 3.50988281 -0.62363281 3.50988281 -0.3671875 2.1171875 C-0.24601562 1.41851562 -0.12484375 0.71984375 0 0 Z " fill="#6F61BF" transform="translate(69,77)"/>
<path d="M0 0 C0.66 0 1.32 0 2 0 C2 0.99 2 1.98 2 3 C1.34 3.66 0.68 4.32 0 5 C2.97 5.495 2.97 5.495 6 6 C6 6.66 6 7.32 6 8 C7.423125 7.9690625 7.423125 7.9690625 8.875 7.9375 C12 8 12 8 14 9 C14 9.99 14 10.98 14 12 C7.60107793 11.59371923 1.37785852 10.78130677 -4 7 C-4.75 4.86328125 -4.75 4.86328125 -5 3 C-3.35 2.67 -1.7 2.34 0 2 C0 1.34 0 0.68 0 0 Z " fill="#7360BD" transform="translate(55,160)"/>
<path d="M0 0 C0 0.66 0 1.32 0 2 C-8.40073704 5.48709839 -16.8747888 7.40556494 -26 7 C-25.67 6.34 -25.34 5.68 -25 5 C-23.0632904 4.42187773 -21.09869173 3.93544278 -19.125 3.5 C-15.43193653 2.68129677 -13.17487018 2.11658012 -10 0 C-6.33469563 -0.85783719 -3.58826313 -1.24209108 0 0 Z " fill="#6B61B5" transform="translate(84,154)"/>
<path d="M0 0 C0 0.66 0 1.32 0 2 C-0.54269531 2.26554687 -1.08539063 2.53109375 -1.64453125 2.8046875 C-2.35996094 3.15789062 -3.07539063 3.51109375 -3.8125 3.875 C-4.52019531 4.22304687 -5.22789062 4.57109375 -5.95703125 4.9296875 C-8.21246418 6.0656486 -8.21246418 6.0656486 -11 8 C-13 9 -15 10 -17 11 C-17.99 11.66 -18.98 12.32 -20 13 C-22.1875 12.625 -22.1875 12.625 -24 12 C-22.68 11.67 -21.36 11.34 -20 11 C-20 10.01 -20 9.02 -20 8 C-19.01 7.67 -18.02 7.34 -17 7 C-16.2884375 6.2265625 -16.2884375 6.2265625 -15.5625 5.4375 C-14 4 -14 4 -10 4 C-10 3.34 -10 2.68 -10 2 C-8.7090864 1.66376204 -7.41723903 1.33110751 -6.125 1 C-5.40570313 0.814375 -4.68640625 0.62875 -3.9453125 0.4375 C-2 0 -2 0 0 0 Z " fill="#675CB1" transform="translate(166,68)"/>
<path d="M0 0 C-2.7572539 2.7572539 -5.88057633 3.18229404 -9.5625 4.0625 C-10.64797119 4.32800659 -10.64797119 4.32800659 -11.75537109 4.59887695 C-16.83814229 5.80832811 -21.78674038 6.57957584 -27 7 C-29.00277585 7.31622777 -31.00430399 7.64179815 -33 8 C-31 5 -31 5 -28.6796875 4.3046875 C-27.75414063 4.16289062 -26.82859375 4.02109375 -25.875 3.875 C-24.88886719 3.71773437 -23.90273437 3.56046875 -22.88671875 3.3984375 C-20.48876985 3.06746214 -18.0928555 2.76984646 -15.6875 2.5 C-12.20953559 2.0284116 -9.28657972 1.1951199 -6 0 C-2.27586207 -1.13793103 -2.27586207 -1.13793103 0 0 Z " fill="#7066C5" transform="translate(117,145)"/>
<path d="M0 0 C-0.6875 3.375 -0.6875 3.375 -2 7 C-6.05423574 9.38871187 -9.09852139 8.99394159 -13.625 8.1875 C-15.31496094 7.89939453 -15.31496094 7.89939453 -17.0390625 7.60546875 C-20 7 -20 7 -23 6 C-23 5.34 -23 4.68 -23 4 C-18.4936052 3.78540977 -15.23495614 4.52697178 -11 6 C-9.68 6 -8.36 6 -7 6 C-6.731875 5.38125 -6.46375 4.7625 -6.1875 4.125 C-4.67436553 1.41728569 -3.21502868 0 0 0 Z " fill="#665EA9" transform="translate(162,194)"/>
<path d="M0 0 C2.20826378 -0.02722517 4.41662638 -0.04649729 6.625 -0.0625 C7.85476562 -0.07410156 9.08453125 -0.08570313 10.3515625 -0.09765625 C18.95929204 0.13274336 18.95929204 0.13274336 21.875 2.5625 C22.431875 3.2740625 22.431875 3.2740625 23 4 C16.59641256 4.12556054 16.59641256 4.12556054 13.625 3.5 C9.75783545 2.76339723 5.92483556 2.92304244 2 3 C1.67 3.66 1.34 4.32 1 5 C0.34 4.67 -0.32 4.34 -1 4 C-0.67 2.68 -0.34 1.36 0 0 Z " fill="#574F98" transform="translate(94,39)"/>
<path d="M0 0 C0.33 0 0.66 0 1 0 C0.67 6.6 0.34 13.2 0 20 C-4.95 20.495 -4.95 20.495 -10 21 C-10 20.34 -10 19.68 -10 19 C-6.04 18.505 -6.04 18.505 -2 18 C-1.93941406 16.78441406 -1.87882812 15.56882813 -1.81640625 14.31640625 C-1.73201668 12.73175772 -1.6473679 11.14712298 -1.5625 9.5625 C-1.52318359 8.76005859 -1.48386719 7.95761719 -1.44335938 7.13085938 C-1.11328125 1.11328125 -1.11328125 1.11328125 0 0 Z " fill="#645BA0" transform="translate(126,116)"/>
<path d="M0 0 C3.60689895 0.41664439 7.20970203 0.86187001 10.8125 1.3125 C11.83666016 1.43044922 12.86082031 1.54839844 13.91601562 1.66992188 C14.89892578 1.79560547 15.88183594 1.92128906 16.89453125 2.05078125 C17.80050049 2.16075439 18.70646973 2.27072754 19.63989258 2.3840332 C22.27605446 3.07204773 23.29496355 3.91990488 25 6 C19.22721294 6.24795864 14.16645104 5.33663941 8.5625 4 C7.73556641 3.80921875 6.90863281 3.6184375 6.05664062 3.421875 C4.03617634 2.95471563 2.01785453 2.47830626 0 2 C0 1.34 0 0.68 0 0 Z " fill="#575094" transform="translate(136,47)"/>
<path d="M0 0 C3.63 0.66 7.26 1.32 11 2 C10.0534344 5.78626239 9.3416661 7.09633404 7 10 C6.01 11.485 6.01 11.485 5 13 C3.39968656 9.79937313 4.96826309 7.27728194 6 4 C4.35 3.67 2.7 3.34 1 3 C0.67 2.01 0.34 1.02 0 0 Z " fill="#786DC9" transform="translate(179,152)"/>
<path d="M0 0 C9.11689851 0.72356337 18.01638277 2.34292907 27 4 C25 6 25 6 23.14453125 6.1171875 C15.18761117 5.29084069 7.66707075 3.19789361 0 1 C0 0.67 0 0.34 0 0 Z " fill="#7A6ECC" transform="translate(152,146)"/>
<path d="M0 0 C0.66 0 1.32 0 2 0 C1.88541307 1.43836751 1.75790884 2.87570966 1.625 4.3125 C1.55539063 5.11300781 1.48578125 5.91351563 1.4140625 6.73828125 C1 9 1 9 -1 12 C-1.99 12.66 -2.98 13.32 -4 14 C-4 12.02 -4 10.04 -4 8 C-3.34 8 -2.68 8 -2 8 C-1.855625 7.236875 -1.71125 6.47375 -1.5625 5.6875 C-1 3 -1 3 0 0 Z " fill="#6F66C8" transform="translate(210,110)"/>
<path d="M0 0 C-2 3 -2 3 -5.6953125 3.94921875 C-7.16966453 4.20822654 -8.64641921 4.45383827 -10.125 4.6875 C-10.87910156 4.81705078 -11.63320312 4.94660156 -12.41015625 5.08007812 C-14.27151866 5.39815904 -16.13554435 5.70058286 -18 6 C-18 5.34 -18 4.68 -18 4 C-16.02 3.67 -14.04 3.34 -12 3 C-12 2.34 -12 1.68 -12 1 C-7.95858806 0.36605303 -4.0934693 -0.12404452 0 0 Z " fill="#5E54A3" transform="translate(101,142)"/>
<path d="M0 0 C2.77982621 1.3899131 2.87463341 3.18658353 4 6 C4.66 6.33 5.32 6.66 6 7 C6.6328125 8.84765625 6.6328125 8.84765625 7.125 11.0625 C7.29257813 11.79597656 7.46015625 12.52945313 7.6328125 13.28515625 C7.75398437 13.85105469 7.87515625 14.41695312 8 15 C7.34 15 6.68 15 6 15 C5.731875 14.401875 5.46375 13.80375 5.1875 13.1875 C4.00150961 11.00278087 2.77943518 9.70529205 1 8 C-1 5 -1 5 -0.625 2.3125 C-0.41875 1.549375 -0.2125 0.78625 0 0 Z " fill="#6F66C2" transform="translate(194,77)"/>
<path d="M0 0 C5.94 0.66 11.88 1.32 18 2 C17.67 2.66 17.34 3.32 17 4 C10.9981863 4.21824777 5.80766296 3.5056904 0 2 C0 1.34 0 0.68 0 0 Z " fill="#574B99" transform="translate(118,43)"/>
<path d="M0 0 C1.65 0 3.3 0 5 0 C0.9975128 4.77716214 -2.92702699 6.65755333 -9 8 C-12.5625 8.1875 -12.5625 8.1875 -15 8 C-15 7.67 -15 7.34 -15 7 C-13.989375 6.731875 -12.97875 6.46375 -11.9375 6.1875 C-8.11498703 5.08979261 -4.58794836 3.72221521 -1 2 C-0.67 1.34 -0.34 0.68 0 0 Z " fill="#796DD5" transform="translate(141,78)"/>
<path d="M0 0 C8.91 1.485 8.91 1.485 18 3 C18 3.99 18 4.98 18 6 C14.04095497 5.23204965 10.11559159 4.35008694 6.1875 3.4375 C5.02605469 3.16808594 3.86460938 2.89867188 2.66796875 2.62109375 C1.34732422 2.31365234 1.34732422 2.31365234 0 2 C0 1.34 0 0.68 0 0 Z " fill="#625BA8" transform="translate(91,82)"/>
<path d="M0 0 C1.05767578 0.21462891 1.05767578 0.21462891 2.13671875 0.43359375 C5.02411601 1.00477056 7.91609386 1.53905311 10.8125 2.0625 C11.78832031 2.23910156 12.76414063 2.41570312 13.76953125 2.59765625 C14.50558594 2.73042969 15.24164063 2.86320313 16 3 C15.67 3.66 15.34 4.32 15 5 C9.72 4.34 4.44 3.68 -1 3 C-0.67 2.01 -0.34 1.02 0 0 Z " fill="#5D53AB" transform="translate(164,142)"/>
<path d="M0 0 C0.99 0.33 1.98 0.66 3 1 C2.67 2.65 2.34 4.3 2 6 C1.34 6 0.68 6 0 6 C-0.99 8.64 -1.98 11.28 -3 14 C-3.66 13.67 -4.32 13.34 -5 13 C-4.01 9.37 -3.02 5.74 -2 2 C-1.34 2 -0.68 2 0 2 C0 1.34 0 0.68 0 0 Z " fill="#6B63B1" transform="translate(198,135)"/>
<path d="M0 0 C0.33 0 0.66 0 1 0 C1.33278764 6.81598387 1.24201565 11.92122066 -2 18 C-3.23853632 14.38905609 -2.79209453 11.59428048 -2.125 7.875 C-1.85042969 6.29332031 -1.85042969 6.29332031 -1.5703125 4.6796875 C-1 2 -1 2 0 0 Z " fill="#7D70DF" transform="translate(63,103)"/>
<path d="M0 0 C-2.91726476 1.94484317 -5.86835873 3.43417937 -9 5 C-9.99 5.66 -10.98 6.32 -12 7 C-14.1875 6.625 -14.1875 6.625 -16 6 C-14.68 5.67 -13.36 5.34 -12 5 C-12 4.01 -12 3.02 -12 2 C-10.56656 1.46809459 -9.12804633 0.94984742 -7.6875 0.4375 C-6.48673828 0.00244141 -6.48673828 0.00244141 -5.26171875 -0.44140625 C-3 -1 -3 -1 0 0 Z " fill="#5B5293" transform="translate(158,74)"/>
<path d="M0 0 C-0.99 0.66 -1.98 1.32 -3 2 C-3.66 2.66 -4.32 3.32 -5 4 C-7.6015625 4.4140625 -7.6015625 4.4140625 -10.625 4.625 C-11.62789062 4.69976562 -12.63078125 4.77453125 -13.6640625 4.8515625 C-14.82035156 4.92503906 -14.82035156 4.92503906 -16 5 C-15.67 4.34 -15.34 3.68 -15 3 C-13.02 3 -11.04 3 -9 3 C-9 2.34 -9 1.68 -9 1 C-5.8035914 -0.06546953 -3.34252724 -0.07427838 0 0 Z " fill="#5F54A2" transform="translate(73,151)"/>
<path d="M0 0 C0 0.66 0 1.32 0 2 C-5.96710356 4.66388552 -9.58566989 5.46291739 -16 4 C-16.33 3.34 -16.66 2.68 -17 2 C-16.41992188 2.02320312 -15.83984375 2.04640625 -15.2421875 2.0703125 C-9.84459917 2.19500926 -5.09762812 0 0 0 Z " fill="#514A81" transform="translate(140,83)"/>
<path d="M0 0 C4.62 0.66 9.24 1.32 14 2 C13.67 2.66 13.34 3.32 13 4 C8.17639811 4.19294408 4.50353262 3.75747614 0 2 C0 1.34 0 0.68 0 0 Z " fill="#5C58AB" transform="translate(77,78)"/>
<path d="M0 0 C5.4512815 0.56784182 9.95293491 1.82454091 15 4 C15.33 4.66 15.66 5.32 16 6 C13.70549415 5.57764318 11.41441562 5.13663083 9.125 4.6875 C7.84882812 4.44386719 6.57265625 4.20023438 5.2578125 3.94921875 C2 3 2 3 0 0 Z " fill="#5D4F9C" transform="translate(109,187)"/>
<path d="M0 0 C1.43655854 -0.08131463 2.8744483 -0.13933559 4.3125 -0.1875 C5.51326172 -0.23970703 5.51326172 -0.23970703 6.73828125 -0.29296875 C9.47851584 0.06198392 10.29171079 0.89366282 12 3 C8.99011728 3.58052245 6.07110598 4.05989746 3 4 C0.9375 2.0625 0.9375 2.0625 0 0 Z " fill="#6F62BC" transform="translate(91,76)"/>
<path d="M0 0 C0.66 0 1.32 0 2 0 C2 0.99 2 1.98 2 3 C1.34 3.66 0.68 4.32 0 5 C0.33 5.99 0.66 6.98 1 8 C-1.97 7.505 -1.97 7.505 -5 7 C-5 5.68 -5 4.36 -5 3 C-3.35 2.67 -1.7 2.34 0 2 C0 1.34 0 0.68 0 0 Z " fill="#4F4B6C" transform="translate(55,160)"/>
<path d="M0 0 C4.92127034 -0.16682272 8.50343896 -0.24828052 13 2 C13 2.66 13 3.32 13 4 C11.20741442 3.91306859 9.41584856 3.80489496 7.625 3.6875 C6.62726563 3.62949219 5.62953125 3.57148438 4.6015625 3.51171875 C3.74304688 3.34285156 2.88453125 3.17398438 2 3 C1.34 2.01 0.68 1.02 0 0 Z " fill="#6258A3" transform="translate(180,147)"/>
<path d="M0 0 C-4.90268569 3.26845713 -9.13173703 4.27944109 -15 4 C-13 1 -13 1 -10.46875 0.234375 C-8.99921875 -0.00539062 -8.99921875 -0.00539062 -7.5 -0.25 C-6.5203125 -0.42015625 -5.540625 -0.5903125 -4.53125 -0.765625 C-2 -1 -2 -1 0 0 Z " fill="#60589B" transform="translate(114,144)"/>
<path d="M0 0 C2 2 2 2 2.01171875 4.05859375 C1.90472656 4.84363281 1.79773438 5.62867187 1.6875 6.4375 C1.58824219 7.21996094 1.48898438 8.00242187 1.38671875 8.80859375 C1 11 1 11 0 14 C-0.66 14 -1.32 14 -2 14 C-1.34 9.38 -0.68 4.76 0 0 Z " fill="#6A64AF" transform="translate(65,89)"/>
<path d="M0 0 C5.94 0.99 5.94 0.99 12 2 C12 2.66 12 3.32 12 4 C12.66 4.33 13.32 4.66 14 5 C9.13103697 4.40380045 4.67209049 3.43023178 0 2 C0 1.34 0 0.68 0 0 Z " fill="#7066C1" transform="translate(109,87)"/>
<path d="M0 0 C1.79206547 0.14084796 3.58364917 0.28783701 5.375 0.4375 C6.87160156 0.55931641 6.87160156 0.55931641 8.3984375 0.68359375 C11 1 11 1 13 2 C13 2.66 13 3.32 13 4 C8.62065881 3.48041715 4.31196609 2.94324258 0 2 C0 1.34 0 0.68 0 0 Z " fill="#635DB5" transform="translate(162,53)"/>
<path d="M0 0 C-0.66 2.31 -1.32 4.62 -2 7 C-3.32 7.33 -4.64 7.66 -6 8 C-6.25 5.6875 -6.25 5.6875 -6 3 C-3.95575462 1.02389614 -2.8823175 0 0 0 Z " fill="#645BB6" transform="translate(162,194)"/>
<path d="M0 0 C2.64 0 5.28 0 8 0 C8 0.66 8 1.32 8 2 C8.99 2 9.98 2 11 2 C11 2.66 11 3.32 11 4 C7.37 3.34 3.74 2.68 0 2 C0 1.34 0 0.68 0 0 Z " fill="#635CB0" transform="translate(125,193)"/>
<path d="M0 0 C4.3177458 0.50797009 8.03302114 1.19682779 12 3 C12 3.66 12 4.32 12 5 C10.37247769 4.74476126 8.74796804 4.47025506 7.125 4.1875 C6.22007813 4.03667969 5.31515625 3.88585937 4.3828125 3.73046875 C2 3 2 3 0 0 Z " fill="#665AB1" transform="translate(69,172)"/>
<path d="M0 0 C-0.56589844 0.26554687 -1.13179687 0.53109375 -1.71484375 0.8046875 C-2.44832031 1.15789062 -3.18179688 1.51109375 -3.9375 1.875 C-5.03384766 2.39707031 -5.03384766 2.39707031 -6.15234375 2.9296875 C-8.16332459 3.8684977 -8.16332459 3.8684977 -9 6 C-10.32 5.34 -11.64 4.68 -13 4 C-12.360625 3.896875 -11.72125 3.79375 -11.0625 3.6875 C-10.381875 3.460625 -9.70125 3.23375 -9 3 C-8.67 2.01 -8.34 1.02 -8 0 C-4.99093136 -1.24513185 -3.0590674 -0.84653438 0 0 Z " fill="#4A4976" transform="translate(187,64)"/>
<path d="M0 0 C1.65 0 3.3 0 5 0 C5.6875 1.8125 5.6875 1.8125 6 4 C4.75 5.75 4.75 5.75 3 7 C2.01 7 1.02 7 0 7 C0 6.34 0 5.68 0 5 C0.66 5 1.32 5 2 5 C1.34 3.35 0.68 1.7 0 0 Z " fill="#8272EA" transform="translate(170,57)"/>
<path d="M0 0 C0.33 0 0.66 0 1 0 C1.20086443 3.71599191 1.1519437 4.77208445 -1 8 C-1.66 8 -2.32 8 -3 8 C-3.28875 8.639375 -3.5775 9.27875 -3.875 9.9375 C-5 12 -5 12 -7 13 C-5.375 7.25 -5.375 7.25 -2 5 C-0.79549696 2.44816596 -0.79549696 2.44816596 0 0 Z " fill="#6057A2" transform="translate(90,45)"/>
<path d="M0 0 C1.98 0 3.96 0 6 0 C5 3 5 3 2 5 C1.01 5 0.02 5 -1 5 C-0.67 3.35 -0.34 1.7 0 0 Z " fill="#6B63C4" transform="translate(170,69)"/>
<path d="M0 0 C1.65 0 3.3 0 5 0 C5 0.66 5 1.32 5 2 C7.64 2.33 10.28 2.66 13 3 C13 3.33 13 3.66 13 4 C8.17639811 4.19294408 4.50353262 3.75747614 0 2 C0 1.34 0 0.68 0 0 Z " fill="#8072E3" transform="translate(157,53)"/>
<path d="M0 0 C0 3.75366417 -1.11420063 5.78715662 -3 9 C-3.99 9.33 -4.98 9.66 -6 10 C-5.72510809 5.96825194 -5.46508424 4.43105369 -2.4375 1.625 C-1.633125 1.08875 -0.82875 0.5525 0 0 Z " fill="#7B6FDA" transform="translate(86,55)"/>
<path d="M0 0 C4.21878192 -0.19622241 7.17010894 0.19769832 11 2 C11 2.66 11 3.32 11 4 C7.37 3.34 3.74 2.68 0 2 C0 1.34 0 0.68 0 0 Z " fill="#5F57AA" transform="translate(84,178)"/>
<path d="M0 0 C5.66104589 0.49658297 9.87674471 1.54510684 15 4 C9.8108215 5.72972617 4.87132662 3.06662341 0 1 C0 0.67 0 0.34 0 0 Z " fill="#8273E7" transform="translate(96,85)"/>
<path d="M0 0 C2.16874252 0.50603992 3.99967627 0.99983813 6 2 C6.40729228 4.32156597 6.74438677 6.6568787 7 9 C3.15795869 6.52126367 3.15795869 6.52126367 2.375 3.9375 C2.25125 3.298125 2.1275 2.65875 2 2 C1.34 1.34 0.68 0.68 0 0 Z " fill="#6F67BA" transform="translate(184,64)"/>
<path d="M0 0 C1.2380014 3.57644848 0.74926071 6.33694766 0 10 C-0.99 10 -1.98 10 -3 10 C-2.25 2.25 -2.25 2.25 0 0 Z " fill="#4F4B94" transform="translate(52,140)"/>
<path d="M0 0 C-2.57404971 3.86107457 -4.61020259 3.94319692 -9 5 C-7.93411431 2.09303901 -7.29651501 1.15567038 -4.5 -0.3125 C-2 -1 -2 -1 0 0 Z " fill="#7E70DF" transform="translate(169,65)"/>
<path d="M0 0 C3.3 0.33 6.6 0.66 10 1 C8 3 8 3 5 3.1875 C2 3 2 3 0 2 C0 1.34 0 0.68 0 0 Z " fill="#6059AD" transform="translate(169,149)"/>
<path d="M0 0 C1.98 0 3.96 0 6 0 C6 0.66 6 1.32 6 2 C6.99 2 7.98 2 9 2 C9 2.66 9 3.32 9 4 C4.545 3.01 4.545 3.01 0 2 C0 1.34 0 0.68 0 0 Z " fill="#8071E1" transform="translate(126,139)"/>
<path d="M0 0 C2.64 0.33 5.28 0.66 8 1 C8 1.33 8 1.66 8 2 C6.35 2 4.7 2 3 2 C3 2.66 3 3.32 3 4 C1.68 4 0.36 4 -1 4 C-1.33 4.66 -1.66 5.32 -2 6 C-2 5.01 -2 4.02 -2 3 C-1.34 3 -0.68 3 0 3 C0 2.01 0 1.02 0 0 Z " fill="#7E71D3" transform="translate(57,160)"/>
<path d="M0 0 C-3.03525486 2.02350324 -4.19426202 2.32124018 -7.6875 2.625 C-8.49574219 2.69976562 -9.30398437 2.77453125 -10.13671875 2.8515625 C-10.75160156 2.90054688 -11.36648437 2.94953125 -12 3 C-8.61613364 -0.38386636 -4.56431325 -1.75550509 0 0 Z " fill="#7F72DF" transform="translate(94,152)"/>
<path d="M0 0 C0.66 0 1.32 0 2 0 C1.34 2.31 0.68 4.62 0 7 C-1.65 6.67 -3.3 6.34 -5 6 C-3.68 5.67 -2.36 5.34 -1 5 C-0.67 3.35 -0.34 1.7 0 0 Z " fill="#8173E3" transform="translate(193,142)"/>
<path d="M0 0 C0.66 0.33 1.32 0.66 2 1 C1.34 2.65 0.68 4.3 0 6 C-0.99 6 -1.98 6 -3 6 C-3 4.35 -3 2.7 -3 1 C-2.01 0.67 -1.02 0.34 0 0 Z " fill="#5C58A2" transform="translate(165,188)"/>
<path d="M0 0 C0.66 0.33 1.32 0.66 2 1 C1.1875 3.4375 1.1875 3.4375 0 6 C-0.99 6.33 -1.98 6.66 -3 7 C-3 5.35 -3 3.7 -3 2 C-2.01 2 -1.02 2 0 2 C0 1.34 0 0.68 0 0 Z " fill="#5F57A1" transform="translate(175,173)"/>
<path d="M0 0 C2.97 0.495 2.97 0.495 6 1 C5.625 2.9375 5.625 2.9375 5 5 C4.01 5.495 4.01 5.495 3 6 C2.67 4.68 2.34 3.36 2 2 C1.34 2 0.68 2 0 2 C0 1.34 0 0.68 0 0 Z " fill="#6C6B79" transform="translate(184,153)"/>
<path d="M0 0 C3.79588866 0.54226981 5.47211993 2.20127563 8 5 C6.35 4.67 4.7 4.34 3 4 C3 3.34 3 2.68 3 2 C2.01 2 1.02 2 0 2 C0 1.34 0 0.68 0 0 Z " fill="#7B6ED7" transform="translate(133,193)"/>
<path d="M0 0 C4.55384615 -0.36923077 4.55384615 -0.36923077 6.8125 1.5 C7.204375 1.995 7.59625 2.49 8 3 C2.25 3.125 2.25 3.125 0 2 C0 1.34 0 0.68 0 0 Z " fill="#796CD4" transform="translate(105,184)"/>
<path d="M0 0 C0.66 0 1.32 0 2 0 C1.67 1.98 1.34 3.96 1 6 C0.01 6.33 -0.98 6.66 -2 7 C-1.125 2.25 -1.125 2.25 0 0 Z " fill="#786BD4" transform="translate(170,177)"/>
<path d="M0 0 C0.33 0.66 0.66 1.32 1 2 C-1.64 2.33 -4.28 2.66 -7 3 C-7 2.34 -7 1.68 -7 1 C-4.53721199 -0.231394 -2.7204945 -0.07159196 0 0 Z " fill="#5F5895" transform="translate(82,148)"/>
</svg>
