<svg version="1.1" id="Layer_1" xmlns="http://www.w3.org/2000/svg" xmlns:xlink="http://www.w3.org/1999/xlink" x="0px" y="0px"
	 width="100%" viewBox="0 0 500 500" enable-background="new 0 0 500 500" xml:space="preserve">
<path fill="#101418" opacity="1.000000" stroke="none" 
	d="
M316.000000,501.000000 
	C210.666687,501.000000 105.833382,501.000000 1.000056,501.000000 
	C1.000037,334.333405 1.000037,167.666794 1.000019,1.000146 
	C167.666565,1.000097 334.333130,1.000097 500.999756,1.000049 
	C500.999847,167.666519 500.999847,334.333038 500.999939,500.999786 
	C439.500000,501.000000 378.000000,501.000000 316.000000,501.000000 
M318.012726,281.368378 
	C340.145264,287.302032 362.277771,293.235657 384.431549,299.175018 
	C397.124023,275.826294 409.518890,253.020477 421.919434,230.217728 
	C424.025940,226.344131 423.674316,222.659378 421.534515,218.846466 
	C409.393433,197.212143 397.341400,175.527847 385.249786,153.865723 
	C380.805847,145.904419 376.336670,137.957199 371.652374,129.599213 
	C361.905823,135.012192 352.613617,140.160477 343.332977,145.329559 
	C320.201538,158.213226 297.045410,171.053406 273.999207,184.087921 
	C271.976898,185.231720 269.385406,187.588501 269.257935,189.526566 
	C267.640289,214.121826 266.479004,238.746704 265.043671,263.354858 
	C264.857239,266.551422 266.019531,267.621277 268.951721,268.374817 
	C285.073120,272.518005 301.137726,276.882050 318.012726,281.368378 
M324.126343,386.649536 
	C341.461548,362.069336 358.796753,337.489136 376.330170,312.627899 
	C374.526947,311.987915 373.460297,311.524292 372.349121,311.227234 
	C335.527466,301.383575 298.716614,291.498352 261.846771,281.838318 
	C258.995728,281.091339 255.505844,281.254852 252.683517,282.155975 
	C212.564377,294.965393 172.506973,307.968323 132.440384,320.942200 
	C123.471977,323.846252 114.525597,326.818329 104.544121,330.095581 
	C107.143036,331.177185 108.602661,331.847290 110.105209,332.400909 
	C155.407730,349.093323 200.713562,365.776733 246.021042,382.455688 
	C264.295410,389.182953 282.567078,395.917755 300.855804,402.605835 
	C308.294922,405.326263 311.566010,404.305420 316.252228,397.872467 
	C318.802124,394.372192 321.231323,390.783997 324.126343,386.649536 
M168.764755,163.794540 
	C160.499710,161.524857 152.234665,159.255188 143.712128,156.914810 
	C128.749664,210.177124 113.990280,262.716492 98.950668,316.253418 
	C112.818275,311.753479 125.451378,307.638977 138.094162,303.554504 
	C174.181824,291.895844 210.284470,280.283264 246.326248,268.484558 
	C247.902283,267.968658 249.973053,265.855957 250.065018,264.378235 
	C251.584793,239.961121 252.796112,215.524979 254.165619,191.098099 
	C254.315521,188.424637 253.379852,187.372711 250.787491,186.659546 
	C223.682022,179.202469 196.617035,171.598190 168.764755,163.794540 
M308.389008,147.843689 
	C325.606171,138.229568 342.823334,128.615448 360.778625,118.589149 
	C356.988922,117.464638 354.345428,116.518158 351.627502,115.897812 
	C302.620697,104.712456 253.600922,93.583946 204.596664,82.387474 
	C199.142609,81.141335 194.942245,82.362381 191.501465,87.037003 
	C179.850739,102.865532 168.006134,118.551247 156.263443,134.312271 
	C154.231812,137.039124 152.335587,139.866867 150.286316,142.776489 
	C151.353012,143.327255 151.755875,143.628937 152.207748,143.755234 
	C187.156128,153.521713 222.092728,163.331558 257.094696,172.902374 
	C259.479523,173.554474 262.756592,173.147705 264.940643,171.972855 
	C279.312958,164.241592 293.499054,156.164215 308.389008,147.843689 
z"/>
<path fill="#8472FD" opacity="1.000000" stroke="none" 
	d="
M317.617279,281.269348 
	C301.137726,276.882050 285.073120,272.518005 268.951721,268.374817 
	C266.019531,267.621277 264.857239,266.551422 265.043671,263.354858 
	C266.479004,238.746704 267.640289,214.121826 269.257935,189.526566 
	C269.385406,187.588501 271.976898,185.231720 273.999207,184.087921 
	C297.045410,171.053406 320.201538,158.213226 343.332977,145.329559 
	C352.613617,140.160477 361.905823,135.012192 371.652374,129.599213 
	C376.336670,137.957199 380.805847,145.904419 385.249786,153.865723 
	C397.341400,175.527847 409.393433,197.212143 421.534515,218.846466 
	C423.674316,222.659378 424.025940,226.344131 421.919434,230.217728 
	C409.518890,253.020477 397.124023,275.826294 384.431549,299.175018 
	C362.277771,293.235657 340.145264,287.302032 317.617279,281.269348 
z"/>
<path fill="#8472FC" opacity="1.000000" stroke="none" 
	d="
M323.920654,386.942505 
	C321.231323,390.783997 318.802124,394.372192 316.252228,397.872467 
	C311.566010,404.305420 308.294922,405.326263 300.855804,402.605835 
	C282.567078,395.917755 264.295410,389.182953 246.021042,382.455688 
	C200.713562,365.776733 155.407730,349.093323 110.105209,332.400909 
	C108.602661,331.847290 107.143036,331.177185 104.544121,330.095581 
	C114.525597,326.818329 123.471977,323.846252 132.440384,320.942200 
	C172.506973,307.968323 212.564377,294.965393 252.683517,282.155975 
	C255.505844,281.254852 258.995728,281.091339 261.846771,281.838318 
	C298.716614,291.498352 335.527466,301.383575 372.349121,311.227234 
	C373.460297,311.524292 374.526947,311.987915 376.330170,312.627899 
	C358.796753,337.489136 341.461548,362.069336 323.920654,386.942505 
z"/>
<path fill="#8472FC" opacity="1.000000" stroke="none" 
	d="
M169.152802,163.914612 
	C196.617035,171.598190 223.682022,179.202469 250.787491,186.659546 
	C253.379852,187.372711 254.315521,188.424637 254.165619,191.098099 
	C252.796112,215.524979 251.584793,239.961121 250.065018,264.378235 
	C249.973053,265.855957 247.902283,267.968658 246.326248,268.484558 
	C210.284470,280.283264 174.181824,291.895844 138.094162,303.554504 
	C125.451378,307.638977 112.818275,311.753479 98.950668,316.253418 
	C113.990280,262.716492 128.749664,210.177124 143.712128,156.914810 
	C152.234665,159.255188 160.499710,161.524857 169.152802,163.914612 
z"/>
<path fill="#8472FB" opacity="1.000000" stroke="none" 
	d="
M308.067444,148.021698 
	C293.499054,156.164215 279.312958,164.241592 264.940643,171.972855 
	C262.756592,173.147705 259.479523,173.554474 257.094696,172.902374 
	C222.092728,163.331558 187.156128,153.521713 152.207748,143.755234 
	C151.755875,143.628937 151.353012,143.327255 150.286316,142.776489 
	C152.335587,139.866867 154.231812,137.039124 156.263443,134.312271 
	C168.006134,118.551247 179.850739,102.865532 191.501465,87.037003 
	C194.942245,82.362381 199.142609,81.141335 204.596664,82.387474 
	C253.600922,93.583946 302.620697,104.712456 351.627502,115.897812 
	C354.345428,116.518158 356.988922,117.464638 360.778625,118.589149 
	C342.823334,128.615448 325.606171,138.229568 308.067444,148.021698 
z"/>
</svg>