<svg version="1.1" id="Layer_1" xmlns="http://www.w3.org/2000/svg" xmlns:xlink="http://www.w3.org/1999/xlink" x="0px" y="0px"
	 width="100%" viewBox="0 0 250 250" enable-background="new 0 0 250 250" xml:space="preserve">
<path fill="#111619" opacity="1.000000" stroke="none" 
	d="
M140.000000,251.000000 
	C93.333336,251.000000 47.166672,251.000000 1.000006,251.000000 
	C1.000004,167.666672 1.000004,84.333351 1.000002,1.000017 
	C84.333321,1.000012 167.666641,1.000012 250.999969,1.000006 
	C250.999985,84.333321 250.999985,167.666641 251.000000,250.999969 
	C214.166672,251.000000 177.333328,251.000000 140.000000,251.000000 
M213.703964,164.571457 
	C214.133911,163.203415 214.931396,161.837158 214.938065,160.467056 
	C215.022278,143.179016 215.048218,125.889938 214.894119,108.602859 
	C214.880646,107.092651 213.492508,105.594704 212.146591,104.094528 
	C211.773392,104.159096 211.400192,104.223656 210.396393,104.456512 
	C201.303406,119.223175 192.210434,133.989853 182.823502,149.233887 
	C192.316422,154.708679 201.175034,159.817657 210.389709,165.394897 
	C211.285065,165.264191 212.180420,165.133484 213.703964,164.571457 
M186.494354,122.592133 
	C188.529282,119.441734 190.564209,116.291328 193.091293,112.737869 
	C194.317825,110.813187 195.544357,108.888496 197.230988,106.605286 
	C197.617706,105.943642 198.004425,105.281998 198.951523,104.210777 
	C200.930344,101.124084 202.909164,98.037392 205.442123,94.584312 
	C206.712708,92.560280 207.983292,90.536247 209.818665,88.124901 
	C213.980301,81.958237 213.338730,80.542160 206.280762,79.803703 
	C184.263580,77.500107 162.253647,75.127617 140.237167,72.817230 
	C138.742844,72.660416 137.217743,72.796761 134.876984,72.796761 
	C137.539856,77.190575 139.681519,80.724380 141.881531,84.949196 
	C143.624527,87.741447 145.367508,90.533699 147.236572,94.057755 
	C148.832916,96.702805 150.429245,99.347855 152.136856,102.666306 
	C153.332169,104.602974 154.527496,106.539642 155.778809,109.071251 
	C156.225296,109.717758 156.671783,110.364265 157.118744,111.690758 
	C157.698669,112.379768 158.278595,113.068779 158.821259,114.297318 
	C159.242020,114.865112 159.662796,115.432907 160.180374,116.705368 
	C164.628983,124.600388 169.077591,132.495407 174.065262,141.347122 
	C178.432617,134.596771 182.188400,128.791672 186.494354,122.592133 
M60.457512,115.158920 
	C60.457512,115.158920 60.423115,115.552094 60.651493,116.176918 
	C62.291527,118.494789 63.931557,120.812668 65.771484,123.819824 
	C69.496758,129.389801 73.222031,134.959763 77.637909,141.562317 
	C81.450104,133.990234 84.721458,127.492439 88.385559,120.445885 
	C89.900978,117.964386 91.416389,115.482880 93.257927,112.409431 
	C94.479568,110.273659 95.701210,108.137886 97.229004,105.363503 
	C98.084663,103.994812 98.940315,102.626114 100.307129,100.841850 
	C101.465317,98.639343 102.623497,96.436844 104.280350,93.877388 
	C105.256920,92.016037 106.233482,90.154678 107.697395,87.906174 
	C108.247047,86.845520 108.796700,85.784866 109.848877,84.313232 
	C110.189232,83.536903 110.529594,82.760582 111.108292,81.718529 
	C111.108292,81.718529 111.152596,81.364334 111.673080,80.942024 
	C111.916138,80.329597 112.159195,79.717178 112.771561,78.846443 
	C112.935501,78.437630 113.099442,78.028824 113.806892,77.178993 
	C114.537949,75.844749 115.269005,74.510513 116.628838,72.028702 
	C113.856178,72.628098 112.469246,72.927925 110.310478,73.129173 
	C109.554314,73.282219 108.798149,73.435265 107.258324,73.364182 
	C105.195572,73.637779 103.132812,73.911385 100.250710,74.093193 
	C99.181328,74.306862 98.111954,74.520531 96.221893,74.556984 
	C91.495308,75.110519 86.768730,75.664055 81.369514,76.119781 
	C80.923286,76.181000 80.477051,76.242218 79.228645,76.174416 
	C77.169785,76.497925 75.110931,76.821442 72.291718,77.058723 
	C71.540802,77.184837 70.789879,77.310944 69.272377,77.286224 
	C67.536049,77.579514 65.799721,77.872803 63.218811,78.071800 
	C61.828423,78.284843 60.438038,78.497887 58.332088,78.526138 
	C56.907734,78.736740 55.483376,78.947342 53.188175,79.093201 
	C51.474026,79.352356 49.759876,79.611519 47.541561,79.692886 
	C47.032509,79.810875 46.523453,79.928864 45.262096,79.951149 
	C43.437138,80.457924 41.612175,80.964706 39.320652,81.774231 
	C39.429165,82.752556 39.537674,83.730881 39.728218,85.218216 
	C40.241928,85.889008 40.755634,86.559792 41.484707,87.922333 
	C43.403564,90.593330 45.322426,93.264336 47.374168,96.579811 
	C48.913845,98.721352 50.453518,100.862892 52.108780,103.603203 
	C53.065300,104.847176 54.021820,106.091148 55.046600,107.678421 
	C55.046600,107.678421 55.390095,107.745697 55.534981,108.502541 
	C55.986168,109.094833 56.437351,109.687126 57.010178,110.851151 
	C57.624794,111.583252 58.239410,112.315353 58.975792,113.641663 
	C59.468193,114.278633 59.960590,114.915604 60.457512,115.158920 
M38.867859,161.727692 
	C38.967972,162.489624 39.068081,163.251541 39.126526,164.620819 
	C40.052895,164.678909 40.979259,164.737000 42.589207,164.698853 
	C51.055355,159.575058 59.521503,154.451263 67.893913,149.384201 
	C63.611736,138.444885 42.551201,105.999374 39.115208,105.172112 
	C39.115208,107.486275 39.115208,109.749069 38.896172,112.925537 
	C38.969994,128.946060 39.043816,144.966599 38.867859,161.727692 
M144.727127,191.252350 
	C151.392761,179.432861 158.058380,167.613373 164.972458,155.353348 
	C138.511490,155.353348 112.882797,155.353348 87.078720,155.353348 
	C87.257484,156.263245 87.234802,156.797607 87.458397,157.192535 
	C98.365845,176.457962 109.233322,195.746536 120.261581,214.942719 
	C123.205795,220.067505 128.167496,219.986893 131.212814,214.856628 
	C135.715179,207.271835 139.982285,199.547348 144.727127,191.252350 
M45.242046,176.819687 
	C46.379463,178.240906 47.250824,180.062653 48.695042,181.022034 
	C64.925621,191.803879 81.215866,202.497147 97.589195,213.060608 
	C99.015556,213.980850 101.144592,213.811920 102.947250,214.148880 
	C102.825043,212.204102 103.321259,209.927826 102.484200,208.366226 
	C94.773918,193.981995 86.843559,179.715530 78.947548,165.431213 
	C77.778137,163.315674 76.453865,161.285721 74.979774,158.850250 
	C64.840210,164.878479 55.271694,170.567200 45.242046,176.819687 
M151.294296,204.783142 
	C150.814957,205.657700 150.116470,206.481552 149.900024,207.416946 
	C149.384521,209.644760 149.096832,211.925278 148.717117,214.184525 
	C150.931015,213.651001 153.493713,213.660965 155.304276,212.498947 
	C171.532028,202.084061 187.632355,191.470459 203.751648,180.887085 
	C204.933960,180.110809 205.972092,179.114944 207.970016,177.499191 
	C197.169830,171.139816 187.136932,165.232239 176.594147,159.024445 
	C168.027725,174.506805 159.835052,189.313675 151.294296,204.783142 
M134.500626,33.663414 
	C133.480789,35.279003 131.686737,36.845837 131.581360,38.519024 
	C131.215927,44.321419 131.562149,50.164574 131.385162,55.984539 
	C131.289886,59.117062 132.450638,60.441990 135.584244,60.772438 
	C157.758682,63.110775 179.919098,65.581726 202.090179,67.952591 
	C203.530121,68.106575 205.021362,67.780762 206.488739,67.678139 
	C206.620102,67.062248 206.751480,66.446358 206.882843,65.830467 
	C182.993347,55.138321 159.103836,44.446171 134.500626,33.663414 
M76.094444,51.663872 
	C65.582497,56.466808 55.070545,61.269749 44.558598,66.072685 
	C44.752407,66.636505 44.946217,67.200317 45.140026,67.764130 
	C46.376526,67.841492 47.632351,68.099396 48.846664,67.969444 
	C71.368515,65.559235 93.881668,63.067009 116.408157,60.701645 
	C119.207077,60.407749 120.063377,59.155560 120.008270,56.518646 
	C119.889977,50.857727 119.969101,45.192703 119.965210,39.529362 
	C119.961021,33.422550 118.687775,32.513073 113.222946,34.948223 
	C101.055428,40.370110 88.918541,45.860752 76.094444,51.663872 
z"/>
<path fill="#85A4B3" opacity="1.000000" stroke="none" 
	d="
M144.538361,191.567352 
	C139.982285,199.547348 135.715179,207.271835 131.212814,214.856628 
	C128.167496,219.986893 123.205795,220.067505 120.261581,214.942719 
	C109.233322,195.746536 98.365845,176.457962 87.458397,157.192535 
	C87.234802,156.797607 87.257484,156.263245 87.078720,155.353348 
	C112.882797,155.353348 138.511490,155.353348 164.972458,155.353348 
	C158.058380,167.613373 151.392761,179.432861 144.538361,191.567352 
z"/>
<path fill="#60879A" opacity="1.000000" stroke="none" 
	d="
M45.472618,176.537811 
	C55.271694,170.567200 64.840210,164.878479 74.979774,158.850250 
	C76.453865,161.285721 77.778137,163.315674 78.947548,165.431213 
	C86.843559,179.715530 94.773918,193.981995 102.484200,208.366226 
	C103.321259,209.927826 102.825043,212.204102 102.947250,214.148895 
	C101.144592,213.811920 99.015556,213.980850 97.589195,213.060608 
	C81.215866,202.497147 64.925621,191.803879 48.695042,181.022034 
	C47.250824,180.062653 46.379463,178.240906 45.472618,176.537811 
z"/>
<path fill="#60879A" opacity="1.000000" stroke="none" 
	d="
M151.468338,204.451843 
	C159.835052,189.313675 168.027725,174.506805 176.594147,159.024445 
	C187.136932,165.232239 197.169830,171.139816 207.970016,177.499191 
	C205.972092,179.114944 204.933960,180.110809 203.751648,180.887085 
	C187.632355,191.470459 171.532028,202.084061 155.304276,212.498947 
	C153.493713,213.660965 150.931015,213.651001 148.717117,214.184509 
	C149.096832,211.925278 149.384521,209.644760 149.900024,207.416946 
	C150.116470,206.481552 150.814957,205.657700 151.468338,204.451843 
z"/>
<path fill="#61899D" opacity="1.000000" stroke="none" 
	d="
M134.857483,33.708717 
	C159.103836,44.446171 182.993347,55.138321 206.882843,65.830467 
	C206.751480,66.446358 206.620102,67.062248 206.488739,67.678139 
	C205.021362,67.780762 203.530121,68.106575 202.090179,67.952591 
	C179.919098,65.581726 157.758682,63.110775 135.584244,60.772438 
	C132.450638,60.441990 131.289886,59.117062 131.385162,55.984539 
	C131.562149,50.164574 131.215927,44.321419 131.581360,38.519024 
	C131.686737,36.845837 133.480789,35.279003 134.857483,33.708717 
z"/>
<path fill="#83A1B0" opacity="1.000000" stroke="none" 
	d="
M76.431808,51.493622 
	C88.918541,45.860752 101.055428,40.370110 113.222946,34.948223 
	C118.687775,32.513073 119.961021,33.422550 119.965210,39.529362 
	C119.969101,45.192703 119.889977,50.857727 120.008270,56.518646 
	C120.063377,59.155560 119.207077,60.407749 116.408157,60.701645 
	C93.881668,63.067009 71.368515,65.559235 48.846664,67.969444 
	C47.632351,68.099396 46.376526,67.841492 45.140026,67.764130 
	C44.946217,67.200317 44.752407,66.636505 44.558598,66.072685 
	C55.070545,61.269749 65.582497,56.466808 76.431808,51.493622 
z"/>
<path fill="#85A4B3" opacity="1.000000" stroke="none" 
	d="
M210.033646,164.926636 
	C201.175034,159.817657 192.316422,154.708679 182.823502,149.233887 
	C192.210434,133.989853 201.303406,119.223175 210.811737,104.593666 
	C211.700409,105.145432 212.173767,105.560043 212.788727,106.365402 
	C212.838608,107.846153 212.746872,108.936157 212.369354,110.255600 
	C212.274338,114.981339 212.465134,119.477646 212.783691,124.308121 
	C212.826294,125.103569 212.741104,125.564857 212.368408,126.257370 
	C211.733047,127.388947 211.090698,128.286758 211.082886,129.190048 
	C211.003967,138.310455 210.971573,147.432556 211.096786,156.551834 
	C211.112564,157.699463 212.111450,158.833572 212.795471,160.365189 
	C212.842422,161.845291 212.748749,162.934174 212.374084,164.057632 
	C211.406601,164.370361 210.720123,164.648499 210.033646,164.926636 
z"/>
<path fill="#84A3B2" opacity="1.000000" stroke="none" 
	d="
M39.168190,164.013474 
	C39.068081,163.251541 38.967972,162.489624 39.307404,161.147003 
	C40.161385,159.364517 40.928562,158.164963 40.936260,156.960556 
	C41.022926,143.398270 41.048641,129.834671 40.911949,116.273239 
	C40.897572,114.846886 39.741562,113.432053 39.115208,112.011871 
	C39.115208,109.749069 39.115208,107.486275 39.115208,105.172112 
	C42.551201,105.999374 63.611736,138.444885 67.893913,149.384201 
	C59.521503,154.451263 51.055355,159.575058 41.995804,164.606659 
	C40.657665,164.347473 39.912930,164.180481 39.168190,164.013474 
z"/>
<path fill="#679AB4" opacity="1.000000" stroke="none" 
	d="
M70.038963,77.437050 
	C70.789879,77.310944 71.540802,77.184837 72.986427,77.276108 
	C75.797699,77.096802 77.914261,76.700111 80.030823,76.303421 
	C80.477051,76.242218 80.923286,76.181000 82.056854,76.338562 
	C87.510323,75.949631 92.276451,75.341919 97.042572,74.734200 
	C98.111954,74.520531 99.181328,74.306862 100.969780,74.309204 
	C103.806564,74.212914 105.924271,73.900604 108.041985,73.588310 
	C108.798149,73.435265 109.554314,73.282219 110.921875,73.353539 
	C112.109978,74.925270 112.686684,76.272644 113.263382,77.620018 
	C113.099442,78.028824 112.935501,78.437630 112.332413,79.192764 
	C111.646370,80.147507 111.399483,80.755920 111.152596,81.364334 
	C111.152596,81.364334 111.108292,81.718529 110.697701,82.018944 
	C109.973526,83.120979 109.659943,83.922592 109.346359,84.724205 
	C108.796700,85.784866 108.247047,86.845520 107.140717,87.848015 
	C103.035332,87.213036 99.490433,86.171211 95.937233,86.142059 
	C82.490372,86.031700 69.039825,86.182655 55.592800,86.380890 
	C50.815174,86.451332 46.043652,86.935356 41.269341,87.230576 
	C40.755634,86.559792 40.241928,85.889008 39.744083,84.425049 
	C39.769039,82.911751 39.778130,82.191620 39.787216,81.471481 
	C41.612175,80.964706 43.437138,80.457924 45.791077,80.130875 
	C46.895283,80.163956 47.470505,80.017319 48.045727,79.870674 
	C49.759876,79.611519 51.474026,79.352356 53.891602,79.287910 
	C56.079231,79.225388 57.563442,78.968155 59.047649,78.710922 
	C60.438038,78.497887 61.828423,78.284843 63.936943,78.289352 
	C66.449707,78.150284 68.244331,77.793671 70.038963,77.437050 
z"/>
<path fill="#6495AE" opacity="1.000000" stroke="none" 
	d="
M141.823196,84.258194 
	C139.681519,80.724380 137.539856,77.190575 134.876984,72.796761 
	C137.217743,72.796761 138.742844,72.660416 140.237167,72.817230 
	C162.253647,75.127617 184.263580,77.500107 206.280762,79.803703 
	C213.338730,80.542160 213.980301,81.958237 209.468826,87.903809 
	C208.889511,85.022095 207.575806,84.159981 204.816238,84.249641 
	C193.962097,84.602295 183.099060,84.829140 172.239471,84.823921 
	C162.100632,84.819046 151.961945,84.460861 141.823196,84.258194 
z"/>
<path fill="#6C9EB9" opacity="1.000000" stroke="none" 
	d="
M141.852356,84.603699 
	C151.961945,84.460861 162.100632,84.819046 172.239471,84.823921 
	C183.099060,84.829140 193.962097,84.602295 204.816238,84.249641 
	C207.575806,84.159981 208.889511,85.022095 209.186432,88.097466 
	C207.983292,90.536247 206.712708,92.560280 204.846344,94.568893 
	C202.042480,94.036140 199.843475,93.123665 197.624664,93.072586 
	C189.703674,92.890251 181.775681,92.958046 173.850876,93.011169 
	C164.937103,93.070915 156.023926,93.217270 147.110489,93.325958 
	C145.367508,90.533699 143.624527,87.741447 141.852356,84.603699 
z"/>
<path fill="#6D9FBA" opacity="1.000000" stroke="none" 
	d="
M41.377022,87.576454 
	C46.043652,86.935356 50.815174,86.451332 55.592800,86.380890 
	C69.039825,86.182655 82.490372,86.031700 95.937233,86.142059 
	C99.490433,86.171211 103.035332,87.213036 106.897041,88.041588 
	C106.233482,90.154678 105.256920,92.016037 103.508224,94.011688 
	C85.704796,93.851631 68.673927,93.490280 51.641438,93.382141 
	C50.180183,93.372864 48.708252,95.044525 47.241280,95.935333 
	C45.322426,93.264336 43.403564,90.593330 41.377022,87.576454 
z"/>
<path fill="#72A4BE" opacity="1.000000" stroke="none" 
	d="
M147.173523,93.691856 
	C156.023926,93.217270 164.937103,93.070915 173.850876,93.011169 
	C181.775681,92.958046 189.703674,92.890251 197.624664,93.072586 
	C199.843475,93.123665 202.042480,94.036140 204.569275,94.752090 
	C202.909164,98.037392 200.930344,101.124084 198.427521,104.082153 
	C195.990250,103.078110 194.077408,101.449341 192.163696,101.448349 
	C178.784424,101.441383 165.404968,101.771027 152.025574,101.992912 
	C150.429245,99.347855 148.832916,96.702805 147.173523,93.691856 
z"/>
<path fill="#72A4BF" opacity="1.000000" stroke="none" 
	d="
M47.307724,96.257568 
	C48.708252,95.044525 50.180183,93.372864 51.641438,93.382141 
	C68.673927,93.490280 85.704796,93.851631 103.258896,94.190170 
	C102.623497,96.436844 101.465317,98.639343 99.533722,101.000809 
	C90.469734,100.880898 82.180695,100.535080 73.888092,100.343094 
	C66.472969,100.171432 58.888123,98.815475 51.993191,103.004433 
	C50.453518,100.862892 48.913845,98.721352 47.307724,96.257568 
z"/>
<path fill="#7DAECA" opacity="1.000000" stroke="none" 
	d="
M196.770889,106.963814 
	C195.544357,108.888496 194.317825,110.813187 192.424347,112.987946 
	C188.355698,113.824783 184.974579,114.653885 181.547745,114.945320 
	C175.378876,115.469933 169.182617,115.672302 162.633545,116.008957 
	C161.540710,116.005981 160.812134,116.003342 160.083557,116.000710 
	C159.662796,115.432907 159.242020,114.865112 158.774261,113.685760 
	C158.190933,112.386383 157.654602,111.698578 157.118286,111.010765 
	C156.671783,110.364265 156.225296,109.717758 156.103790,108.507332 
	C169.876144,107.616882 183.323517,107.290344 196.770889,106.963814 
z"/>
<path fill="#7DAFCA" opacity="1.000000" stroke="none" 
	d="
M55.390095,107.745697 
	C55.390095,107.745697 55.046600,107.678421 55.448410,107.408691 
	C69.541100,106.760017 83.231979,106.381065 96.922859,106.002113 
	C95.701210,108.137886 94.479568,110.273659 92.723602,112.793518 
	C88.970718,113.602455 85.763763,114.205093 82.531242,114.416138 
	C75.168526,114.896843 67.793274,115.185432 60.423115,115.552094 
	C60.423115,115.552094 60.457512,115.158920 60.458176,115.024048 
	C59.923901,114.275269 59.388966,113.661362 58.854027,113.047447 
	C58.239410,112.315353 57.624794,111.583252 56.856323,110.205688 
	C56.265007,108.955391 55.827549,108.350540 55.390095,107.745697 
z"/>
<path fill="#78A9C4" opacity="1.000000" stroke="none" 
	d="
M97.075928,105.682808 
	C83.231979,106.381065 69.541100,106.760017 55.414280,107.237045 
	C54.021820,106.091148 53.065300,104.847176 52.050987,103.303818 
	C58.888123,98.815475 66.472969,100.171432 73.888092,100.343094 
	C82.180695,100.535080 90.469734,100.880898 99.278152,101.208588 
	C98.940315,102.626114 98.084663,103.994812 97.075928,105.682808 
z"/>
<path fill="#78AAC5" opacity="1.000000" stroke="none" 
	d="
M197.000946,106.784546 
	C183.323517,107.290344 169.876144,107.616882 156.075806,108.209862 
	C154.527496,106.539642 153.332169,104.602974 152.081207,102.329605 
	C165.404968,101.771027 178.784424,101.441383 192.163696,101.448349 
	C194.077408,101.449341 195.990250,103.078110 198.147324,104.286942 
	C198.004425,105.281998 197.617706,105.943642 197.000946,106.784546 
z"/>
<path fill="#83B4CF" opacity="1.000000" stroke="none" 
	d="
M60.537304,115.864502 
	C67.793274,115.185432 75.168526,114.896843 82.531242,114.416138 
	C85.763763,114.205093 88.970718,113.602455 92.560539,113.089493 
	C91.416389,115.482880 89.900978,117.964386 87.837090,120.857864 
	C80.107307,122.563522 73.129669,126.234352 65.571587,123.130539 
	C63.931557,120.812668 62.291527,118.494789 60.537304,115.864502 
z"/>
<path fill="#89B7CF" opacity="1.000000" stroke="none" 
	d="
M160.131958,116.353043 
	C160.812134,116.003342 161.540710,116.005981 162.779999,116.341423 
	C164.977188,119.025269 166.449829,123.159302 168.390366,123.392029 
	C174.142685,124.081909 180.079514,123.233498 185.944199,122.986572 
	C182.188400,128.791672 178.432617,134.596771 174.065262,141.347122 
	C169.077591,132.495407 164.628983,124.600388 160.131958,116.353043 
z"/>
<path fill="#83B5CF" opacity="1.000000" stroke="none" 
	d="
M186.219269,122.789352 
	C180.079514,123.233498 174.142685,124.081909 168.390366,123.392029 
	C166.449829,123.159302 164.977188,119.025269 163.144257,116.341766 
	C169.182617,115.672302 175.378876,115.469933 181.547745,114.945320 
	C184.974579,114.653885 188.355698,113.824783 192.178284,113.189468 
	C190.564209,116.291328 188.529282,119.441734 186.219269,122.789352 
z"/>
<path fill="#8AB8D1" opacity="1.000000" stroke="none" 
	d="
M65.671539,123.475182 
	C73.129669,126.234352 80.107307,122.563522 87.640717,121.132240 
	C84.721458,127.492439 81.450104,133.990234 77.637909,141.562317 
	C73.222031,134.959763 69.496758,129.389801 65.671539,123.475182 
z"/>
<path fill="#050C11" opacity="1.000000" stroke="none" 
	d="
M212.655090,164.023041 
	C212.748749,162.934174 212.842422,161.845291 212.916321,159.912109 
	C212.816345,148.053909 212.736130,137.040024 212.655914,126.026138 
	C212.741104,125.564857 212.826294,125.103569 212.904053,123.858948 
	C212.816147,118.725784 212.735641,114.375977 212.655151,110.026161 
	C212.746872,108.936157 212.838608,107.846153 212.874283,106.058784 
	C212.793121,104.937965 212.768005,104.514511 212.742889,104.091057 
	C213.492508,105.594704 214.880646,107.092651 214.894119,108.602859 
	C215.048218,125.889938 215.022278,143.179016 214.938065,160.467056 
	C214.931396,161.837158 214.133911,163.203415 213.306946,164.532608 
	C212.824966,164.336838 212.740036,164.179932 212.655090,164.023041 
z"/>
<path fill="#90ACBA" opacity="1.000000" stroke="none" 
	d="
M39.005692,112.468704 
	C39.741562,113.432053 40.897572,114.846886 40.911949,116.273239 
	C41.048641,129.834671 41.022926,143.398270 40.936260,156.960556 
	C40.928562,158.164963 40.161385,159.364517 39.432293,160.776718 
	C39.043816,144.966599 38.969994,128.946060 39.005692,112.468704 
z"/>
<path fill="#608DA4" opacity="1.000000" stroke="none" 
	d="
M96.632233,74.645592 
	C92.276451,75.341919 87.510323,75.949631 82.393173,76.387466 
	C86.768730,75.664055 91.495308,75.110519 96.632233,74.645592 
z"/>
<path fill="#608DA4" opacity="1.000000" stroke="none" 
	d="
M113.535141,77.399506 
	C112.686684,76.272644 112.109978,74.925270 111.307785,73.402832 
	C112.469246,72.927925 113.856178,72.628098 116.628838,72.028702 
	C115.269005,74.510513 114.537949,75.844749 113.535141,77.399506 
z"/>
<path fill="#608DA4" opacity="1.000000" stroke="none" 
	d="
M107.650154,73.476242 
	C105.924271,73.900604 103.806564,74.212914 101.379456,74.355103 
	C103.132812,73.911385 105.195572,73.637779 107.650154,73.476242 
z"/>
<path fill="#608DA4" opacity="1.000000" stroke="none" 
	d="
M79.629730,76.238922 
	C77.914261,76.700111 75.797699,77.096802 73.366608,77.319214 
	C75.110931,76.821442 77.169785,76.497925 79.629730,76.238922 
z"/>
<path fill="#608DA4" opacity="1.000000" stroke="none" 
	d="
M69.655670,77.361633 
	C68.244331,77.793671 66.449707,78.150284 64.359238,78.336494 
	C65.799721,77.872803 67.536049,77.579514 69.655670,77.361633 
z"/>
<path fill="#608DA4" opacity="1.000000" stroke="none" 
	d="
M58.689869,78.618530 
	C57.563442,78.968155 56.079231,79.225388 54.327019,79.320282 
	C55.483376,78.947342 56.907734,78.736740 58.689869,78.618530 
z"/>
<path fill="#90ACBA" opacity="1.000000" stroke="none" 
	d="
M212.374084,164.057632 
	C212.740036,164.179932 212.824966,164.336838 212.992844,164.748260 
	C212.180420,165.133484 211.285065,165.264191 210.211670,165.160767 
	C210.720123,164.648499 211.406601,164.370361 212.374084,164.057632 
z"/>
<path fill="#90ACBA" opacity="1.000000" stroke="none" 
	d="
M39.147358,164.317139 
	C39.912930,164.180481 40.657665,164.347473 41.654015,164.654785 
	C40.979259,164.737000 40.052895,164.678909 39.147358,164.317139 
z"/>
<path fill="#83B4CF" opacity="1.000000" stroke="none" 
	d="
M58.914909,113.344559 
	C59.388966,113.661362 59.923901,114.275269 60.455910,115.220879 
	C59.960590,114.915604 59.468193,114.278633 58.914909,113.344559 
z"/>
<path fill="#89B7CF" opacity="1.000000" stroke="none" 
	d="
M157.118515,111.350761 
	C157.654602,111.698578 158.190933,112.386383 158.792892,113.415985 
	C158.278595,113.068779 157.698669,112.379768 157.118515,111.350761 
z"/>
<path fill="#90ACBA" opacity="1.000000" stroke="none" 
	d="
M212.444733,104.092789 
	C212.768005,104.514511 212.793121,104.937965 212.732666,105.668037 
	C212.173767,105.560043 211.700409,105.145432 211.127029,104.509521 
	C211.400192,104.223656 211.773392,104.159096 212.444733,104.092789 
z"/>
<path fill="#608DA4" opacity="1.000000" stroke="none" 
	d="
M47.793644,79.781784 
	C47.470505,80.017319 46.895283,80.163956 46.167229,80.178726 
	C46.523453,79.928864 47.032509,79.810875 47.793644,79.781784 
z"/>
<path fill="#608DA4" opacity="1.000000" stroke="none" 
	d="
M39.553932,81.622856 
	C39.778130,82.191620 39.769039,82.911751 39.703064,84.170547 
	C39.537674,83.730881 39.429165,82.752556 39.553932,81.622856 
z"/>
<path fill="#608DA4" opacity="1.000000" stroke="none" 
	d="
M109.597618,84.518723 
	C109.659943,83.922592 109.973526,83.120979 110.578537,82.151810 
	C110.529594,82.760582 110.189232,83.536903 109.597618,84.518723 
z"/>
<path fill="#78A9C4" opacity="1.000000" stroke="none" 
	d="
M55.462540,108.124115 
	C55.827549,108.350540 56.265007,108.955391 56.795502,109.919830 
	C56.437351,109.687126 55.986168,109.094833 55.462540,108.124115 
z"/>
<path fill="#608DA4" opacity="1.000000" stroke="none" 
	d="
M111.412842,81.153183 
	C111.399483,80.755920 111.646370,80.147507 112.147758,79.321922 
	C112.159195,79.717178 111.916138,80.329597 111.412842,81.153183 
z"/>
<path fill="#90ACBA" opacity="1.000000" stroke="none" 
	d="
M212.368408,126.257370 
	C212.736130,137.040024 212.816345,148.053909 212.775696,159.520874 
	C212.111450,158.833572 211.112564,157.699463 211.096786,156.551834 
	C210.971573,147.432556 211.003967,138.310455 211.082886,129.190048 
	C211.090698,128.286758 211.733047,127.388947 212.368408,126.257370 
z"/>
<path fill="#90ACBA" opacity="1.000000" stroke="none" 
	d="
M212.369339,110.255600 
	C212.735641,114.375977 212.816147,118.725784 212.776291,123.524780 
	C212.465134,119.477646 212.274338,114.981339 212.369339,110.255600 
z"/>
</svg>