<?xml version="1.0" encoding="UTF-8"?>
<svg version="1.1" xmlns="http://www.w3.org/2000/svg" width="250" height="250">
<path d="M0 0 C82.5 0 165 0 250 0 C250 82.5 250 165 250 250 C167.5 250 85 250 0 250 C0 167.5 0 85 0 0 Z " fill="#111519" transform="translate(0,0)"/>
<path d="M0 0 C25.74 0 51.48 0 78 0 C76.4528384 3.09432319 74.85236441 6.1046356 73.1640625 9.12109375 C72.60017822 10.12889893 72.03629395 11.1367041 71.45532227 12.17504883 C70.54931274 13.78996216 70.54931274 13.78996216 69.625 15.4375 C68.69095337 17.10365356 68.69095337 17.10365356 67.73803711 18.8034668 C61.88211743 29.23490496 55.96849436 39.63258861 50 50 C49.61134766 50.67530762 49.22269531 51.35061523 48.82226562 52.04638672 C43.19939294 61.80060706 43.19939294 61.80060706 42 63 C39.66702567 63.04092937 37.33294775 63.04241723 35 63 C34.65743164 62.39526855 34.31486328 61.79053711 33.96191406 61.16748047 C32.3935908 58.40200025 30.82182656 55.63849042 29.25 52.875 C28.71117188 51.92367187 28.17234375 50.97234375 27.6171875 49.9921875 C24.89176818 45.20608528 22.09020321 40.55685595 19 36 C18.12135649 34.47215106 17.26703746 32.93005769 16.4375 31.375 C14.37698799 27.53616495 12.28993369 23.71546768 10.16796875 19.91015625 C9.41785522 18.56074951 9.41785522 18.56074951 8.65258789 17.18408203 C7.64049458 15.36435217 6.62539307 13.54629189 5.60717773 11.72998047 C4.90830444 10.46951904 4.90830444 10.46951904 4.1953125 9.18359375 C3.77266113 8.42618896 3.35000977 7.66878418 2.91455078 6.88842773 C2 5 2 5 2 3 C1.34 3 0.68 3 0 3 C0 2.01 0 1.02 0 0 Z " fill="#86A5B3" transform="translate(86,154)"/>
<path d="M0 0 C-0.6153391 2.92124568 -1.52647894 5.17483042 -3.046875 7.73828125 C-3.47291016 8.46402344 -3.89894531 9.18976563 -4.33789062 9.9375 C-4.80388672 10.72125 -5.26988281 11.505 -5.75 12.3125 C-6.7563704 14.02666204 -7.76152658 15.74153737 -8.765625 17.45703125 C-9.55936523 18.81175537 -9.55936523 18.81175537 -10.36914062 20.19384766 C-13.12547518 24.93655865 -15.81058411 29.71912854 -18.5 34.5 C-22.69213643 41.9383068 -26.91196815 49.35927449 -31.1875 56.75 C-31.64511719 57.54212891 -32.10273437 58.33425781 -32.57421875 59.15039062 C-32.99703125 59.87935547 -33.41984375 60.60832031 -33.85546875 61.359375 C-34.22309326 61.99327148 -34.59071777 62.62716797 -34.96948242 63.28027344 C-35.93049815 64.8840154 -36.96291243 66.44436865 -38 68 C-38.66 68 -39.32 68 -40 68 C-41.48046875 65.9453125 -41.48046875 65.9453125 -43.1875 63.125 C-45.47452483 59.42623145 -47.79384879 55.79521047 -50.3125 52.25 C-53.28819701 48.05058939 -56.15636623 43.78919652 -59 39.5 C-61.86964955 35.17368376 -64.76103572 30.87038732 -67.75 26.625 C-68.56210938 25.46291016 -68.56210938 25.46291016 -69.390625 24.27734375 C-70.50897166 22.69482894 -71.6458406 21.12530719 -72.796875 19.56640625 C-73.35890625 18.78136719 -73.9209375 17.99632813 -74.5 17.1875 C-75.0053125 16.50042969 -75.510625 15.81335938 -76.03125 15.10546875 C-77.28965911 12.37045863 -76.67872275 10.86772186 -76 8 C-61.58989692 6.09943085 -47.16953296 4.46941958 -32.70288086 3.06201172 C-24.50329201 2.26181794 -16.32515687 1.36944716 -8.15234375 0.33203125 C-5.40121909 0.04225976 -2.76249324 -0.06788736 0 0 Z " fill="#72A5BF" transform="translate(115,71)"/>
<path d="M0 0 C8.90238 0.48604948 17.6613963 1.2914675 26.50390625 2.45703125 C35.30551365 3.56708925 44.16264552 4.23992886 53 5 C53 5.66 53 6.32 53 7 C53.73863281 6.98839844 54.47726563 6.97679688 55.23828125 6.96484375 C62.22453848 6.90270423 69.0562763 7.23455014 76 8 C76.83203125 9.9765625 76.83203125 9.9765625 77 13 C75.56784453 16.01982478 73.62657452 18.66127587 71.6875 21.375 C70.5688073 22.9933492 69.45032071 24.61184088 68.33203125 26.23046875 C67.76822754 27.03532715 67.20442383 27.84018555 66.62353516 28.66943359 C64.32128733 31.97428438 62.09701989 35.3284449 59.875 38.6875 C59.06685687 39.90004004 58.25826351 41.11228012 57.44921875 42.32421875 C55.74031699 44.88722644 54.03520977 47.45271705 52.33203125 50.01953125 C51.88939941 50.68573486 51.44676758 51.35193848 50.99072266 52.03833008 C50.15477939 53.29662985 49.31973746 54.55552915 48.48583984 55.81518555 C45.74288956 59.94114082 42.8967563 63.9804302 40 68 C37 67 37 67 35.1796875 63.59375 C34.83905273 62.86800781 34.49841797 62.14226562 34.14746094 61.39453125 C32.03049563 56.97683003 29.54343001 52.7578303 27.125 48.5 C26.29029175 47.02430542 26.29029175 47.02430542 25.4387207 45.51879883 C22.34422178 40.06543857 19.21110293 34.63681562 16.03515625 29.23046875 C15.39239746 28.13605469 14.74963867 27.04164062 14.08740234 25.9140625 C12.83543575 23.78787507 11.57934549 21.66410961 10.31884766 19.54296875 C9.4707251 18.104375 9.4707251 18.104375 8.60546875 16.63671875 C8.10168701 15.78811279 7.59790527 14.93950684 7.07885742 14.06518555 C6 12 6 12 6 10 C5.34 10 4.68 10 4 10 C2.5393715 7.35261084 2 6.10551666 2 3 C1.34 3 0.68 3 0 3 C0 2.01 0 1.02 0 0 Z " fill="#72A5BF" transform="translate(134,71)"/>
<path d="M0 0 C3.06144083 1.04499359 3.63222229 1.96094298 5.14550781 4.77270508 C5.7980957 5.96573242 5.7980957 5.96573242 6.46386719 7.18286133 C6.89892578 8.01946289 7.33398438 8.85606445 7.78222656 9.71801758 C8.23662109 10.54688477 8.69101563 11.37575195 9.15917969 12.22973633 C12.46972656 18.39282961 12.46972656 18.39282961 12.46972656 21.84301758 C13.12972656 21.84301758 13.78972656 21.84301758 14.46972656 21.84301758 C14.88859131 22.62539795 15.30745605 23.40777832 15.73901367 24.21386719 C17.28999381 27.10884345 18.84256702 30.00295316 20.39624023 32.89648438 C21.069085 34.15037065 21.7412879 35.40460158 22.4128418 36.65917969 C23.37674177 38.45964525 24.34292319 40.25886953 25.30957031 42.05786133 C25.89085693 43.14188232 26.47214355 44.22590332 27.07104492 45.34277344 C28.24717112 47.71109102 28.24717112 47.71109102 29.46972656 48.84301758 C29.51036488 50.50918873 29.51244756 52.17689853 29.46972656 53.84301758 C27.38769531 54.60473633 27.38769531 54.60473633 24.46972656 54.84301758 C22.03316586 53.54736201 19.99531005 52.26387858 17.78222656 50.65551758 C16.44670403 49.72523407 15.11074745 48.79557344 13.77441406 47.86645508 C13.07413086 47.37242187 12.37384766 46.87838867 11.65234375 46.36938477 C7.94579347 43.77728719 4.17460021 41.28299231 0.40722656 38.78051758 C-0.34816406 38.27617187 -1.10355469 37.77182617 -1.88183594 37.25219727 C-6.62927997 34.08655247 -11.40868185 30.97652478 -16.21777344 27.90551758 C-18.32317324 26.55326893 -20.4275134 25.19936743 -22.53027344 23.84301758 C-23.32820313 23.32868164 -24.12613281 22.8143457 -24.94824219 22.28442383 C-26.90527344 20.96801758 -26.90527344 20.96801758 -29.53027344 18.84301758 C-29.53027344 17.85301758 -29.53027344 16.86301758 -29.53027344 15.84301758 C-27.80541992 14.46435547 -27.80541992 14.46435547 -25.40136719 13.06567383 C-24.53060547 12.55198242 -23.65984375 12.03829102 -22.76269531 11.5090332 C-21.84037109 10.97987305 -20.91804688 10.45071289 -19.96777344 9.90551758 C-19.07251953 9.38022461 -18.17726563 8.85493164 -17.25488281 8.3137207 C-15.49644617 7.28442336 -13.73267816 6.26417318 -11.96337891 5.25366211 C-10.45467604 4.37895961 -8.96040111 3.47816279 -7.49169922 2.5378418 C-4.8675946 0.88257169 -3.15298659 -0.19561659 0 0 Z " fill="#5F8598" transform="translate(73.5302734375,159.156982421875)"/>
<path d="M0 0 C3.36241563 0.45438049 6.04009971 1.35561095 9 3 C9 3.66 9 4.32 9 5 C11.97 5.99 14.94 6.98 18 8 C18 8.66 18 9.32 18 10 C18.94875 10.309375 19.8975 10.61875 20.875 10.9375 C24 12 24 12 26 13 C26 13.66 26 14.32 26 15 C28.475 15.99 28.475 15.99 31 17 C29.59050182 21.22849455 26.53298816 22.39315913 22.875 24.5625 C21.39726865 25.46162343 19.92073102 26.36271133 18.4453125 27.265625 C17.69668945 27.72259766 16.94806641 28.17957031 16.17675781 28.65039062 C12.98364872 30.63014692 9.86438933 32.71181891 6.75 34.8125 C0.58457491 38.95049883 -5.60228872 43.05446462 -11.8125 47.125 C-12.69131836 47.70612549 -13.57013672 48.28725098 -14.47558594 48.88598633 C-15.70390137 49.68879028 -15.70390137 49.68879028 -16.95703125 50.5078125 C-18.05494995 51.22928467 -18.05494995 51.22928467 -19.17504883 51.96533203 C-21 53 -21 53 -23 53 C-23 53.66 -23 54.32 -23 55 C-24.65 54.67 -26.3 54.34 -28 54 C-28.61528766 48.92387682 -26.61658349 46.17017994 -24 42 C-23.34 42 -22.68 42 -22 42 C-21.4740625 40.14375 -21.4740625 40.14375 -20.9375 38.25 C-19.22398322 33.09328441 -16.63096677 28.68817547 -13.83203125 24.05078125 C-12.10385737 21.17294799 -10.47270719 18.26433628 -8.875 15.3125 C-8.15376953 13.98025391 -8.15376953 13.98025391 -7.41796875 12.62109375 C-6.95003906 11.75613281 -6.48210937 10.89117187 -6 10 C-5.06564099 8.28994671 -4.1283587 6.58148584 -3.1875 4.875 C-2.78917969 4.15054688 -2.39085937 3.42609375 -1.98046875 2.6796875 C-1 1 -1 1 0 0 Z " fill="#60879A" transform="translate(175,159)"/>
<path d="M0 0 C0 8.58 0 17.16 0 26 C-1.876875 26.103125 -3.75375 26.20625 -5.6875 26.3125 C-11.73061065 26.73509515 -17.64125448 27.50893832 -23.625 28.4375 C-33.6641767 29.98177182 -43.71177224 30.73158916 -53.84619141 31.35327148 C-55.56588135 31.46070679 -55.56588135 31.46070679 -57.3203125 31.5703125 C-58.34398926 31.62977051 -59.36766602 31.68922852 -60.42236328 31.75048828 C-63.11512918 31.91429164 -63.11512918 31.91429164 -66 33 C-67.56118428 33.06740865 -69.1250252 33.08514456 -70.6875 33.0625 C-71.89986328 33.04896484 -71.89986328 33.04896484 -73.13671875 33.03515625 C-73.75160156 33.02355469 -74.36648437 33.01195312 -75 33 C-75 32.01 -75 31.02 -75 30 C-65.22882162 25.3142445 -55.39478665 20.76604704 -45.51138306 16.32189941 C-43.7028834 15.50693225 -41.8976871 14.68464754 -40.0925293 13.86230469 C-38.97273682 13.36118164 -37.85294434 12.86005859 -36.69921875 12.34375 C-35.69721436 11.89193359 -34.69520996 11.44011719 -33.6628418 10.97460938 C-31 10 -31 10 -27 10 C-27 9.34 -27 8.68 -27 8 C-20.5 5 -20.5 5 -16 5 C-16 4.34 -16 3.68 -16 3 C-14.27709395 2.29695778 -12.54632534 1.61316509 -10.8125 0.9375 C-9.84957031 0.55464844 -8.88664062 0.17179687 -7.89453125 -0.22265625 C-5 -1 -5 -1 0 0 Z " fill="#819EAD" transform="translate(119,34)"/>
<path d="M0 0 C5.04782595 0.41181275 8.913043 1.64876779 13.4375 3.875 C18.24346302 6.18164204 22.99216273 8.18681754 28 10 C30.34701761 10.9711797 32.67277537 11.98183923 35 13 C35 13.66 35 14.32 35 15 C35.71285156 15.17015625 36.42570312 15.3403125 37.16015625 15.515625 C43.11221932 17.02166519 47.7885795 18.792972 53 22 C54.69333721 22.72921759 56.38731734 23.4570658 58.08740234 24.17041016 C61.26701268 25.54956716 64.34701702 27.12100122 67.4375 28.6875 C68.39172852 29.16799805 68.39172852 29.16799805 69.36523438 29.65820312 C70.91109357 30.43694422 72.45568387 31.21820334 74 32 C74 32.66 74 33.32 74 34 C44.90323245 32.36541608 44.90323245 32.36541608 30.68017578 30.11279297 C20.18156141 28.48466561 9.59031655 27.7701797 -1 27 C-1.02886537 22.68751391 -1.04675255 18.37505238 -1.0625 14.0625 C-1.07087891 12.83080078 -1.07925781 11.59910156 -1.08789062 10.33007812 C-1.09111328 9.16025391 -1.09433594 7.99042969 -1.09765625 6.78515625 C-1.10289307 5.70113525 -1.10812988 4.61711426 -1.11352539 3.50024414 C-1 1 -1 1 0 0 Z " fill="#628A9E" transform="translate(131,33)"/>
<path d="M0 0 C0.99 0 1.98 0 3 0 C3 20.46 3 40.92 3 62 C-1.88709915 61.02258017 -5.06862293 59.39275522 -9.1875 56.8125 C-10.51561003 55.99737145 -11.84373509 55.18226737 -13.171875 54.3671875 C-14.14350586 53.76535645 -14.14350586 53.76535645 -15.13476562 53.15136719 C-17.72079023 51.55507242 -20.32830753 49.99556065 -22.9375 48.4375 C-24.29166667 47.625 -25.64583333 46.8125 -27 46 C-26.33260625 42.12234305 -24.50718147 39.27039417 -22.46484375 35.94140625 C-22.10789932 35.35640854 -21.7509549 34.77141083 -21.38319397 34.16868591 C-20.23950567 32.2969206 -19.08863977 30.42968978 -17.9375 28.5625 C-17.1902793 27.34208813 -16.44353021 26.12138738 -15.69726562 24.90039062 C-13.84435501 21.8714805 -11.98405847 18.84718336 -10.12176514 15.82403564 C-8.9753623 13.95993809 -7.83315593 12.09332332 -6.69189453 10.22607422 C-6.32391251 9.62504379 -5.95593048 9.02401337 -5.57679749 8.4047699 C-4.56169185 6.7467289 -3.54754068 5.08810365 -2.53344727 3.42944336 C-1 1 -1 1 0 0 Z " fill="#83A1AF" transform="translate(209,103)"/>
<path d="M0 0 C0.99 0 1.98 0 3 0 C3.33 1.32 3.66 2.64 4 4 C4.66 4 5.32 4 6 4 C7.4453125 6.16796875 7.4453125 6.16796875 9.125 9.1875 C11.08465591 12.65900785 13.04222781 16.10798122 15.16796875 19.48046875 C15.52552246 20.04805908 15.88307617 20.61564941 16.25146484 21.20043945 C17.26477348 22.79967644 18.28266573 24.3960064 19.30078125 25.9921875 C20.97089413 28.94847926 22.0444481 31.75015343 23 35 C23.66 35 24.32 35 25 35 C29 41.625 29 41.625 29 45 C28.05253906 45.49306641 28.05253906 45.49306641 27.0859375 45.99609375 C20.75501494 49.3622471 14.71926855 53.01844834 8.77294922 57.01538086 C5.74840375 59.01660014 3.57787541 60.10553115 0 61 C0 40.87 0 20.74 0 0 Z " fill="#84A2B1" transform="translate(38,104)"/>
<path d="M0 0 C8.90238 0.48604948 17.6613963 1.2914675 26.50390625 2.45703125 C35.30551365 3.56708925 44.16264552 4.23992886 53 5 C53 5.66 53 6.32 53 7 C53.73863281 6.98839844 54.47726563 6.97679688 55.23828125 6.96484375 C62.22453848 6.90270423 69.0562763 7.23455014 76 8 C76 8.33 76 8.66 76 9 C66.83997663 9.29495603 57.81629634 8.78263105 48.6875 8.0625 C47.55965088 7.97564941 46.43180176 7.88879883 45.26977539 7.79931641 C44.2152417 7.71214355 43.16070801 7.6249707 42.07421875 7.53515625 C41.12119873 7.456604 40.16817871 7.37805176 39.1862793 7.29711914 C37 7 37 7 36 6 C24.18193595 3.52420262 12.02278072 3.40173921 0 3 C0 2.01 0 1.02 0 0 Z " fill="#597B8E" transform="translate(134,71)"/>
<path d="M0 0 C-0.375 1.9375 -0.375 1.9375 -1 4 C-1.66 4.33 -2.32 4.66 -3 5 C-3.495 4.01 -3.495 4.01 -4 3 C-4.52851562 3.165 -5.05703125 3.33 -5.6015625 3.5 C-9.61003979 4.33564347 -13.633389 4.01389435 -17.7109375 3.9375 C-20.95331906 3.91760828 -20.95331906 3.91760828 -23.921875 4.49609375 C-27.59016898 5.09661396 -31.17169276 5.10915019 -34.875 5.0625 C-35.90753906 5.05573242 -35.90753906 5.05573242 -36.9609375 5.04882812 C-38.64066335 5.03716336 -40.32034375 5.01923271 -42 5 C-42 4.67 -42 4.34 -42 4 C-40.75347656 3.87882812 -39.50695312 3.75765625 -38.22265625 3.6328125 C-28.9590126 2.72355391 -19.70576801 1.78051991 -10.47094727 0.60986328 C-6.95720472 0.17636941 -3.54087212 -0.09551485 0 0 Z " fill="#4F6B7B" transform="translate(115,71)"/>
<path d="M0 0 C0.66 0.33 1.32 0.66 2 1 C1.67 8.92 1.34 16.84 1 25 C4.3 25.33 7.6 25.66 11 26 C11 26.33 11 26.66 11 27 C7.04 27 3.08 27 -1 27 C-1.02682299 22.68745917 -1.04675244 18.37508293 -1.0625 14.0625 C-1.07087891 12.83080078 -1.07925781 11.59910156 -1.08789062 10.33007812 C-1.09111328 9.16025391 -1.09433594 7.99042969 -1.09765625 6.78515625 C-1.10289307 5.70113525 -1.10812988 4.61711426 -1.11352539 3.50024414 C-1 1 -1 1 0 0 Z " fill="#506A78" transform="translate(131,33)"/>
<path d="M0 0 C0 0.33 0 0.66 0 1 C-9.1694776 2.74604424 -18.10209275 4.30943067 -27.4609375 4.59375 C-30.33689202 5.05390272 -31.23451818 5.74210488 -33 8 C-32.67 6.35 -32.34 4.7 -32 3 C-28.16772354 2.49167358 -24.33403696 1.99485826 -20.5 1.5 C-18.88351563 1.28537109 -18.88351563 1.28537109 -17.234375 1.06640625 C-11.43522303 0.32383191 -5.84610901 -0.17027502 0 0 Z " fill="#547384" transform="translate(71,76)"/>
<path d="M0 0 C10.40798659 0.56825214 20.67275755 1.60222605 31 3 C31 3.33 31 3.66 31 4 C20.77 3.67 10.54 3.34 0 3 C0 2.01 0 1.02 0 0 Z " fill="#4D6B7B" transform="translate(134,71)"/>
<path d="M0 0 C0.99 0.33 1.98 0.66 3 1 C3 2.32 3 3.64 3 5 C4.32 5.33 5.64 5.66 7 6 C7 6.99 7 7.98 7 9 C7.66 9 8.32 9 9 9 C9 10.98 9 12.96 9 15 C6.67527795 12.14693203 5.2491742 9.45925163 4 6 C3.34 6 2.68 6 2 6 C1.34 4.02 0.68 2.04 0 0 Z " fill="#638699" transform="translate(136,75)"/>
<path d="M0 0 C0.99 0.33 1.98 0.66 3 1 C2.34 1 1.68 1 1 1 C0.71125 1.9075 0.4225 2.815 0.125 3.75 C-2.22727273 10.54545455 -2.22727273 10.54545455 -5.125 12.25 C-5.74375 12.4975 -6.3625 12.745 -7 13 C-5.35821735 8.22390502 -2.73453298 4.20617096 0 0 Z " fill="#5A7684" transform="translate(175,159)"/>
<path d="M0 0 C-0.375 1.9375 -0.375 1.9375 -1 4 C-1.99 4.495 -1.99 4.495 -3 5 C-3.33 4.34 -3.66 3.68 -4 3 C-4.53625 3.185625 -5.0725 3.37125 -5.625 3.5625 C-8.61990614 4.11419324 -11.03745829 3.60597444 -14 3 C-14 2.67 -14 2.34 -14 2 C-4.58997722 -0.29612756 -4.58997722 -0.29612756 0 0 Z " fill="#5A7D8F" transform="translate(115,71)"/>
<path d="M0 0 C0.66 0.66 1.32 1.32 2 2 C1.401875 2.556875 0.80375 3.11375 0.1875 3.6875 C-2.07852072 5.91398916 -2.07852072 5.91398916 -3.5625 8.625 C-5 11 -5 11 -8 13 C-6.53181332 9.89257577 -4.79975 7.09528261 -2.875 4.25 C-2.33617187 3.45078125 -1.79734375 2.6515625 -1.2421875 1.828125 C-0.62730469 0.92320313 -0.62730469 0.92320313 0 0 Z " fill="#23333D" transform="translate(195,107)"/>
<path d="M0 0 C0.75 1.6875 0.75 1.6875 1 4 C-0.875 6.5625 -0.875 6.5625 -3 9 C-3.33 9.99 -3.66 10.98 -4 12 C-4.66 12 -5.32 12 -6 12 C-4.43358249 7.69235185 -2.31663844 3.93828536 0 0 Z " fill="#6D8591" transform="translate(197,122)"/>
<path d="M0 0 C1 2 1 2 0.1875 5.0625 C-1 8 -1 8 -3 9 C-3.33 9.99 -3.66 10.98 -4 12 C-4.66 12 -5.32 12 -6 12 C-4.43358249 7.69235185 -2.31663844 3.93828536 0 0 Z " fill="#2F3F48" transform="translate(147,183)"/>
<path d="M0 0 C1 2 1 2 0.25 4.3125 C-1.01118343 7.02404437 -2.30790527 9.53236186 -4 12 C-4.66 12 -5.32 12 -6 12 C-4.43358249 7.69235185 -2.31663844 3.93828536 0 0 Z " fill="#253540" transform="translate(88,119)"/>
<path d="M0 0 C6.09781001 -0.22084624 11.21642935 -0.01167675 17 2 C17 2.33 17 2.66 17 3 C10.84765625 3.09765625 10.84765625 3.09765625 9 3 C8.67 2.67 8.34 2.34 8 2 C6.65252916 1.76924918 5.29622435 1.58846937 3.9375 1.4375 C2.638125 1.293125 1.33875 1.14875 0 1 C0 0.67 0 0.34 0 0 Z " fill="#658EA4" transform="translate(162,75)"/>
<path d="M0 0 C1 2 1 2 0.375 4.3125 C-1.26624041 7.52037899 -3.36337053 9.57152549 -6 12 C-5.36934243 8.78147169 -4.21979305 6.49198931 -2.4375 3.75 C-1.98246094 3.04359375 -1.52742187 2.3371875 -1.05859375 1.609375 C-0.53458984 0.81273437 -0.53458984 0.81273437 0 0 Z " fill="#667C88" transform="translate(188,137)"/>
<path d="M0 0 C0.66 0 1.32 0 2 0 C1.67 1.65 1.34 3.3 1 5 C-0.32 5.33 -1.64 5.66 -3 6 C-3.33 4.35 -3.66 2.7 -4 1 C-2.515 1.99 -2.515 1.99 -1 3 C-0.67 2.01 -0.34 1.02 0 0 Z " fill="#93BED5" transform="translate(175,131)"/>
<path d="M0 0 C3.93846154 3.32307692 3.93846154 3.32307692 4.25 6.75 C4.1675 7.4925 4.085 8.235 4 9 C4.99 9.33 5.98 9.66 7 10 C5.68 10 4.36 10 3 10 C0.96564469 6.27034861 0 4.33094958 0 0 Z " fill="#84ACC1" transform="translate(168,128)"/>
<path d="M0 0 C0.33 0.66 0.66 1.32 1 2 C-0.25 5.5625 -0.25 5.5625 -2 9 C-2.99 9.33 -3.98 9.66 -5 10 C-3.66511872 6.40608886 -2.03977277 3.24509304 0 0 Z " fill="#203039" transform="translate(108,84)"/>
</svg>
