<svg width="200" height="200" viewBox="0 0 200 200" fill="none" xmlns="http://www.w3.org/2000/svg">
<g clip-path="url(#clip0_1320_5)">
<path d="M100 200C155.228 200 200 155.228 200 100C200 44.7715 155.228 0 100 0C44.7715 0 0 44.7715 0 100C0 155.228 44.7715 200 100 200Z" fill="#0AC18E"/>
<path d="M131.193 66.4222C126.168 55.0263 114.619 52.5897 100.482 54.9501L95.9391 37.3359L85.2285 40.1024L89.6955 57.6659C86.8782 58.3765 83.9848 58.9857 81.1168 59.7979L76.6498 42.3359L65.9391 45.1024L70.4823 62.7166C68.1726 63.3765 48.8579 68.3258 48.8579 68.3258L51.8021 79.7979C51.8021 79.7979 59.6701 77.5897 59.594 77.7674C63.9594 76.6253 66.0153 78.808 66.9797 80.8639L79.467 129.138C79.6193 130.534 79.3655 132.92 76.3706 133.732C76.5483 133.833 68.5787 135.737 68.5787 135.737L69.7462 149.113C69.7462 149.113 88.8833 144.214 91.396 143.58L95.9899 161.397L106.701 158.63L102.107 140.686C105.051 140.001 107.919 139.29 110.711 138.554L115.279 156.397L125.99 153.63L121.396 135.838C137.893 131.828 149.543 121.422 147.157 105.509C145.635 95.9146 135.152 88.0466 126.447 87.1583C131.802 82.4121 134.518 75.4831 131.193 66.4222ZM126.041 108.427C128.173 124.189 106.269 126.118 99.0356 128.021L92.7412 104.443C100 102.539 122.437 94.5441 126.041 108.427ZM112.843 76.3207C115.102 90.3309 96.3706 91.9552 90.33 93.5034L84.5939 72.1075C90.6599 70.61 108.249 63.3512 112.843 76.3207Z" fill="white"/>
</g>
<defs>
<clipPath id="clip0_1320_5">
<rect width="200" height="200" fill="white"/>
</clipPath>
</defs>
</svg>
