<svg width="500" height="500" viewBox="0 0 500 500" fill="none" xmlns="http://www.w3.org/2000/svg">
<g clip-path="url(#clip0_214_428)">
<path d="M33.4058 125.05L105.652 83.3125L322.107 208.38L322.112 208.618C316.451 211.526 311.062 214.948 305.509 218.054L250.045 250.093C249.566 249.927 249.092 249.747 248.624 249.553L42.5114 130.454C39.458 128.78 36.5284 126.872 33.386 125.362L33.4058 125.05V125.05ZM322.157 125.01L394.363 83.3125L466.545 125.015L466.609 125.287L394.333 166.876L338.651 134.743C333.192 131.43 327.477 128.542 322.157 125.01V125.01Z" fill="#2B6DEF"/>
<path d="M322.107 208.38L322.157 125.01C327.477 128.542 333.192 131.429 338.651 134.743L394.334 166.876L394.373 402.488C394.309 407.342 394.517 412.206 394.215 417.051L322.147 375.443L322.122 292.067L322.112 208.618L322.107 208.38V208.38ZM33.3861 125.361C36.5285 126.872 39.4581 128.779 42.5115 130.454L248.624 249.552C249.092 249.747 249.566 249.927 250.045 250.092C249.728 252.505 249.896 254.942 249.866 257.369L249.857 333.705L177.893 292.033C174.231 289.551 170.247 287.58 166.471 285.276L108.374 251.707C107.522 251.202 106.637 250.771 105.726 250.39C105.642 251.061 105.581 251.735 105.543 252.411L105.568 396.044C105.652 403.043 105.325 410.067 105.79 417.051L105.696 417.353H105.498C105.479 417.274 105.434 417.12 105.414 417.041L33.3613 375.388L33.3861 125.361Z" fill="#2891F9"/>
<path d="M394.333 166.876L466.609 125.287L466.639 375.388L394.586 417.036L394.507 417.353H394.314L394.215 417.051C394.517 412.206 394.309 407.342 394.373 402.488L394.333 166.876V166.876ZM305.509 218.054C311.062 214.948 316.451 211.525 322.112 208.618L322.122 292.067L267.771 323.467L249.856 333.705L249.866 257.369C249.896 254.942 249.728 252.505 250.045 250.092L305.509 218.054V218.054ZM105.726 250.39C106.637 250.771 107.522 251.202 108.374 251.707L166.471 285.276C170.247 287.579 174.231 289.551 177.893 292.033L177.848 375.452L105.79 417.051C105.325 410.067 105.652 403.043 105.568 396.044L105.543 252.411C105.581 251.735 105.642 251.061 105.726 250.39V250.39Z" fill="#2BBDF7"/>
</g>
<defs>
<clipPath id="clip0_214_428">
<rect width="434" height="334.353" fill="white" transform="translate(33 83)"/>
</clipPath>
</defs>
</svg>
