<?xml version="1.0" encoding="UTF-8"?>
<svg xmlns="http://www.w3.org/2000/svg" xmlns:xlink="http://www.w3.org/1999/xlink" version="1.1" viewBox="0 0 500 500">
  <defs>
    <style>
      .cls-1, .cls-2 {
        fill: none;
      }

      .cls-3 {
        fill: #fff;
      }

      .cls-4 {
        fill: #e6007a;
      }

      .cls-5 {
        clip-path: url(#clippath);
      }

      .cls-2 {
        stroke: #000;
        stroke-width: 5px;
      }
    </style>
    <clipPath id="clippath">
      <rect class="cls-1" x="15" y="0" width="470.1" height="500"/>
    </clipPath>
  </defs>
  <!-- Generator: Adobe Illustrator 28.7.0, SVG Export Plug-In . SVG Version: 1.2.0 Build 136)  -->
  <g>
    <g id="Layer_1">
      <g class="cls-5">
        <g>
          <path class="cls-4" d="M250.1,104.9c49.8,0,90.2-23.5,90.2-52.4S299.8,0,250.1,0s-90.2,23.5-90.2,52.4,40.4,52.4,90.2,52.4Z"/>
          <path class="cls-4" d="M250.1,500c49.8,0,90.2-23.5,90.2-52.4s-40.4-52.4-90.2-52.4-90.2,23.5-90.2,52.4,40.4,52.4,90.2,52.4Z"/>
          <path class="cls-4" d="M124.4,177.5c24.9-43.1,24.7-89.8-.4-104.3-25.1-14.5-65.6,8.7-90.5,51.8-24.9,43.1-24.7,89.8.4,104.3,25.1,14.5,65.6-8.7,90.5-51.8Z"/>
          <path class="cls-4" d="M466.5,375c24.9-43.1,24.7-89.8-.3-104.3-25.1-14.5-65.6,8.7-90.5,51.9-24.9,43.1-24.7,89.8.3,104.3,25.1,14.5,65.6-8.7,90.5-51.9Z"/>
          <path class="cls-4" d="M124.1,426.8c25.1-14.5,25.3-61.2.4-104.3-24.9-43.1-65.4-66.3-90.5-51.8-25.1,14.5-25.3,61.2-.4,104.3,24.9,43.1,65.4,66.3,90.5,51.8Z"/>
          <path class="cls-4" d="M466.2,229.3c25.1-14.5,25.2-61.2.3-104.3-24.9-43.1-65.4-66.3-90.5-51.9-25.1,14.5-25.2,61.2-.3,104.3,24.9,43.1,65.4,66.3,90.5,51.9Z"/>
        </g>
      </g>
      <g>
        <circle class="cls-3" cx="375" cy="375" r="125"/>
        <rect class="cls-1" x="280.5" y="285" width="200" height="200"/>
        <circle class="cls-2" cx="375" cy="375" r="122.5"/>
        <path d="M428.2,418.2c-3.5-3.5-8.1-5.3-12.7-5.6h0c-17.6-.6-20.1-15.2-20.1-18.9s2.8-18.1,20.1-18.7c4.6-.3,9.1-2.1,12.7-5.6,7.8-7.6,8-20.1.4-28-3.9-4-9-6-14.1-6h-.1c-4.9,0-9.9,1.9-13.7,5.6-4.2,4.1-5.9,9.6-5.9,15s-3.1,17.8-17.8,17.8-11.3,1.6-15.5,5.9c-.2.2-.3.4-.5.6h0c-1,1-1.2.1-1.2-.4v-79.6c0-1.5-1.2-2.7-2.7-2.7h-27.5c-1.5,0-2.7,1.2-2.7,2.7v146c0,1.5,1.2,2.7,2.7,2.7h27.5c1.5,0,2.7-1.2,2.7-2.7v-38.8c0-.6.2-1.4,1.2-.4h0c.2.1.3.3.5.5,4.2,4.3,9.9,5.9,15.5,5.9,14.6,0,17.8,14.7,17.8,17.8s1.8,10.9,5.9,15c3.8,3.7,8.8,5.6,13.8,5.6h0c5.1,0,10.3-2,14.2-6,3.7-3.8,5.6-8.8,5.6-13.7h0c0-5.2-2-10.4-6-14.2"/>
      </g>
    </g>
  </g>
</svg>