<?xml version="1.0" encoding="UTF-8"?>
<svg xmlns="http://www.w3.org/2000/svg" version="1.1" viewBox="0 0 1000 1000">
  <defs>
    <style>
      .cls-1 {
        fill: #fff;
      }
    </style>
  </defs>
  <!-- Generator: Adobe Illustrator 28.7.0, SVG Export Plug-In . SVG Version: 1.2.0 Build 136)  -->
  <g>
    <g id="Layer_1">
      <path class="cls-1" d="M500,982.5c266.5,0,482.5-216,482.5-482.5S766.5,17.5,500,17.5,17.5,233.5,17.5,500s216,482.5,482.5,482.5Z"/>
      <path d="M712.3,692.4c-15.8-15.4-35.9-23.6-56.3-24.8h0c-78.3-2.6-89.5-67.6-89.5-84s12.4-80.7,89.3-83.1c20.4-1.1,40.5-9.4,56.3-24.8,34.8-33.9,35.5-89.6,1.6-124.4-17.1-17.6-39.9-26.5-62.7-26.6h-.6c-22,0-44,8.4-61.1,25-18.7,18.2-26.5,42.6-26.5,66.8s-14,79.2-79,79.2-50.2,7.2-68.9,26.4c-.8.8-1.5,1.8-2.2,2.7v-.3c-4.4,4.7-5.3,1-5.3-1.6V168.6c0-6.7-5.4-12.1-12-12.1h-122.4c-6.7,0-12,5.4-12,12.1v649.7c0,6.7,5.4,12.1,12,12.1h122.5c6.7,0,12-5.4,12-12.1v-172.8c0-2.6.9-6.2,5.4-1.6v-.3c.7.8,1.3,1.7,2.1,2.6,18.8,19.3,44,26.4,69,26.4,65.1,0,79,65.6,79,79.2s7.9,48.6,26.5,66.7c17.1,16.7,39.2,25,61.3,25h0c22.9,0,45.7-8.9,63-26.6,16.6-17,24.9-39.1,24.9-61.1v-.5c0-22.8-8.9-45.6-26.6-62.8"/>
    </g>
  </g>
</svg>