<?xml version="1.0" encoding="UTF-8"?>
<svg xmlns="http://www.w3.org/2000/svg" version="1.1" viewBox="0 0 500 500">
  <defs>
    <style>
      .cls-1, .cls-2 {
        fill: none;
      }

      .cls-3 {
        fill: #2775ca;
      }

      .cls-4 {
        fill: #fff;
      }

      .cls-2 {
        stroke: #000;
        stroke-width: 5px;
      }
    </style>
  </defs>
  <!-- Generator: Adobe Illustrator 28.7.0, SVG Export Plug-In . SVG Version: 1.2.0 Build 136)  -->
  <g>
    <g id="Layer_1">
      <circle class="cls-3" cx="250.5" cy="250.9" r="245.9"/>
      <path class="cls-4" d="M204.4,422c0,5.8-4.6,9-10,7.3-74.6-23.8-128.4-93.4-128.4-175.8S119.8,101.5,194.4,77.6c5.6-1.7,10,1.5,10,7.3v14.4c0,3.8-2.9,8.3-6.5,9.6-59,21.7-101.1,78.4-101.1,144.5s42.1,122.8,101.1,144.3c3.7,1.3,6.5,5.8,6.5,9.6v14.6Z"/>
      <path class="cls-4" d="M265.9,368.7c0,4.2-3.5,7.7-7.7,7.7h-15.4c-4.2,0-7.7-3.5-7.7-7.7v-24.2c-33.6-4.6-50-23.2-54.4-49-.8-4.4,2.7-8.3,7.1-8.3h17.5c3.7,0,6.7,2.7,7.5,6.1,3.3,15.2,12.1,26.9,39,26.9s34-11.1,34-27.7-8.3-22.9-37.5-27.7c-43-5.8-63.4-18.8-63.4-52.5s19.8-46.3,50.1-50.5v-23.8c0-4.2,3.5-7.7,7.7-7.7h15.4c4.2,0,7.7,3.5,7.7,7.7v24.4c24.8,4.4,40.5,18.4,45.7,41.9,1,4.4-2.5,8.5-7.1,8.5h-16.1c-3.5,0-6.3-2.3-7.3-5.6-4.4-14.8-15-21.3-33.4-21.3s-30.9,9.8-30.9,23.6,6,21.9,37.3,26.3c42.3,5.8,64.2,17.9,64.2,53.8s-20.4,49.4-52.1,54.4v24.6h-.2Z"/>
      <path class="cls-4" d="M306.6,429.3c-5.6,1.7-10-1.5-10-7.3v-14.4c0-4.2,2.5-8.3,6.5-9.6,58.8-21.5,101.1-78.2,101.1-144.3s-42.1-122.8-101.1-144.3c-3.7-1.3-6.5-5.8-6.5-9.6v-14.4c0-5.8,4.6-9,10-7.3,74.6,23.4,128.4,93.2,128.4,175.4s-53.8,152-128.4,175.8Z"/>
      <g>
        <circle class="cls-4" cx="375" cy="375" r="125"/>
        <rect class="cls-1" x="280.5" y="285" width="200" height="200"/>
        <circle class="cls-2" cx="375" cy="375" r="122.5"/>
        <path d="M428.2,418.2c-3.5-3.5-8.1-5.3-12.7-5.6h0c-17.6-.6-20.1-15.2-20.1-18.9s2.8-18.1,20.1-18.7c4.6-.3,9.1-2.1,12.7-5.6,7.8-7.6,8-20.1.4-28-3.9-4-9-6-14.1-6h-.1c-4.9,0-9.9,1.9-13.7,5.6-4.2,4.1-5.9,9.6-5.9,15s-3.1,17.8-17.8,17.8-11.3,1.6-15.5,5.9c-.2.2-.3.4-.5.6h0c-1,1-1.2.1-1.2-.4v-79.6c0-1.5-1.2-2.7-2.7-2.7h-27.5c-1.5,0-2.7,1.2-2.7,2.7v146c0,1.5,1.2,2.7,2.7,2.7h27.5c1.5,0,2.7-1.2,2.7-2.7v-38.8c0-.6.2-1.4,1.2-.4h0c.2.1.3.3.5.5,4.2,4.3,9.9,5.9,15.5,5.9,14.6,0,17.8,14.7,17.8,17.8s1.8,10.9,5.9,15c3.8,3.7,8.8,5.6,13.8,5.6h0c5.1,0,10.3-2,14.2-6,3.7-3.8,5.6-8.8,5.6-13.7h0c0-5.2-2-10.4-6-14.2"/>
      </g>
    </g>
  </g>
</svg>