<?xml version="1.0" encoding="UTF-8"?>
<svg xmlns="http://www.w3.org/2000/svg" xmlns:xodm="http://www.corel.com/coreldraw/odm/2003" version="1.1" viewBox="0 0 595.3 841.9">
  <defs>
    <style>
      .cls-1, .cls-2 {
        fill: none;
      }

      .cls-3 {
        fill: #fefefd;
      }

      .cls-4 {
        fill: #f5ac37;
      }

      .cls-5 {
        fill: #fff;
      }

      .cls-2 {
        stroke: #000;
        stroke-width: 5px;
      }
    </style>
  </defs>
  <!-- Generator: Adobe Illustrator 28.7.0, SVG Export Plug-In . SVG Version: 1.2.0 Build 136)  -->
  <g>
    <g id="Layer_1" image-rendering="optimizeQuality" shape-rendering="geometricPrecision" text-rendering="geometricPrecision">
      <g id="Layer_x5F_1">
        <path class="cls-4" d="M297.6,123.3c164.4,0,297.6,133.3,297.6,297.6s-133.2,297.6-297.6,297.6S0,585.3,0,420.9,133.3,123.3,297.6,123.3Z"/>
        <path class="cls-3" d="M308.6,442h113.1c2.4,0,3.5,0,3.7-3.2.9-11.5.9-23.1,0-34.6,0-2.2-1.1-3.2-3.5-3.2h-225.1c-2.8,0-3.5.9-3.5,3.5v33.1q0,4.3,4.5,4.3h110.9ZM412.8,362.3c.3-.8.3-1.8,0-2.6-1.9-4.1-4.1-8-6.7-11.7-3.9-6.3-8.5-12.1-13.8-17.3-2.5-3.1-5.3-6-8.6-8.4-16.1-13.7-35.2-23.4-55.8-28.3-10.4-2.3-21-3.4-31.6-3.3h-99.9c-2.8,0-3.2,1.1-3.2,3.5v66c0,2.8,0,3.5,3.5,3.5h214.7s1.9-.4,2.2-1.5h-.9,0ZM412.8,480.7c-3.2-.3-6.3-.3-9.5,0h-206.3c-2.8,0-3.7,0-3.7,3.7v64.6c0,3,0,3.7,3.7,3.7h95.2c4.6.3,9.1,0,13.6-.9,13.8-1,27.4-4,40.4-8.9,4.7-1.6,9.3-3.8,13.6-6.3h1.3c22.3-11.6,40.5-29.9,51.9-52.2,0,0,1.3-2.8-.2-3.5h0ZM155.9,586.1v-102.9c0-2.4,0-2.8-3-2.8h-40.4c-2.2,0-3.2,0-3.2-3v-35.3h43.2c2.4,0,3.3,0,3.3-3.2v-35c0-2.2,0-2.8-3-2.8h-40.4c-2.2,0-3.2,0-3.2-3v-32.7c0-2,0-2.6,3-2.6h40c2.8,0,3.5,0,3.5-3.5v-100.3c0-3,0-3.7,3.7-3.7h139.5c10.1.4,20.2,1.5,30.1,3.3,20.5,3.8,40.2,11.1,58.2,21.6,11.9,7,22.9,15.5,32.7,25.3,7.4,7.6,14,15.9,19.9,24.7,5.9,8.9,10.7,18.5,14.5,28.5.5,2.6,3,4.4,5.6,3.9h33.3q4.3,0,4.5,4.1v30.5c0,3-1.1,3.7-4.1,3.7h-25.7c-2.6,0-3.3,0-3.2,3.3,1,11.3,1,22.7,0,34,0,3.2,0,3.5,3.5,3.5h29.4c1.3,1.7,0,3.3,0,5,.2,2.2.2,4.3,0,6.5v22.5c0,3.2-.9,4.1-3.7,4.1h-35.2c-2.5-.5-4.8,1.1-5.4,3.5-8.4,21.8-21.8,41.3-39.1,56.9-6.3,5.7-13,11-19.9,16-7.4,4.3-14.7,8.7-22.3,12.3-14.1,6.3-28.8,11-43.9,13.9-14.4,2.6-28.9,3.7-43.5,3.5h-129.1v-.2h0Z"/>
      </g>
      <g>
        <circle class="cls-5" cx="462.2" cy="586.4" r="125"/>
        <rect class="cls-1" x="367.7" y="496.4" width="200" height="200"/>
        <circle class="cls-2" cx="462.2" cy="586.4" r="122.5"/>
        <path d="M515.4,629.6c-3.5-3.5-8.1-5.3-12.7-5.6h0c-17.6-.6-20.1-15.2-20.1-18.9s2.8-18.1,20.1-18.7c4.6-.3,9.1-2.1,12.7-5.6,7.8-7.6,8-20.1.4-28-3.9-4-9-6-14.1-6h-.1c-4.9,0-9.9,1.9-13.7,5.6-4.2,4.1-5.9,9.6-5.9,15s-3.1,17.8-17.8,17.8-11.3,1.6-15.5,5.9c-.2.2-.3.4-.5.6h0c-1,1-1.2.1-1.2-.4v-79.6c0-1.5-1.2-2.7-2.7-2.7h-27.5c-1.5,0-2.7,1.2-2.7,2.7v146c0,1.5,1.2,2.7,2.7,2.7h27.5c1.5,0,2.7-1.2,2.7-2.7v-38.8c0-.6.2-1.4,1.2-.4h0c.2.1.3.3.5.5,4.2,4.3,9.9,5.9,15.5,5.9,14.6,0,17.8,14.7,17.8,17.8s1.8,10.9,5.9,15c3.8,3.7,8.8,5.6,13.8,5.6h0c5.1,0,10.3-2,14.2-6,3.7-3.8,5.6-8.8,5.6-13.7h0c0-5.2-2-10.4-6-14.2"/>
      </g>
    </g>
  </g>
</svg>