<?xml version="1.0" encoding="utf-8"?>
<!-- Generator: Adobe Illustrator 25.4.1, SVG Export Plug-In . SVG Version: 6.00 Build 0)  -->
<svg version="1.1" id="Layer_1" xmlns="http://www.w3.org/2000/svg" xmlns:xlink="http://www.w3.org/1999/xlink" x="0px" y="0px"
	 viewBox="0 0 100 100" style="enable-background:new 0 0 100 100;" xml:space="preserve">
<style type="text/css">
	.st0{fill:#EE348A;}
</style>
<g>
	<path class="st0" d="M97.05,66.95c-3.36-0.35-17.55-2.22-18.3-9.38c-0.01-0.07-0.02-0.13-0.03-0.2c-0.26-4.95-1.41-9.65-1.92-11.52
		c0.63-0.39,1.26-0.91,1.73-1.54c1.33-1.76,1.81-4.4-1.09-5.59c-2.37-0.97-3.74,0.48-4.38,2.12c-1-0.14-2.85-0.16-5.27-0.1
		c-0.49-1.89-1.9-3.96-4.62-2.85c-1.7,0.7-2.23,1.9-2.12,3.13c-13.57,0.74-33.05,2.52-33.05,2.52c-4.43,0.54-11.07,2.42-10.06,8.18
		c0.84,5.38,1.39,11.99,2.79,17.58c0.41,1.62,1.69,4.29,6.57,6.43c3.71,1.63,13.96,2.36,24.42,1.42c0.35,0.25,0.61,0.61,0.68,1.11
		c0.35,2.38,0.95,15.62,1.21,21.62C52.44,99.96,51.22,100,50,100C22.39,100,0,77.61,0,50C0,22.39,22.39,0,50,0
		c27.61,0,50,22.39,50,50C100,56.05,99.02,61.58,97.05,66.95"/>
	<path class="st0" d="M72.22,49.24c-0.02-0.17-0.13-0.69-0.13-0.69c-0.09-0.37-0.26-0.74-0.51-1.1c-0.25-0.36-0.54-0.63-0.86-0.81
		c-0.61-0.34-1.27-0.48-1.98-0.4c-0.78,0.08-1.43,0.38-1.93,0.92c-0.57,0.6-0.86,1.38-0.86,2.34c0,0.83,0.23,1.53,0.69,2.12
		c0.44,0.55,1.01,0.89,1.7,1.03c0.67,0.14,1.36,0.09,2.06-0.16c0.18-0.07,0.36-0.15,0.54-0.25c0.18-0.1,0.36-0.24,0.56-0.4
		c0.2-0.17,0.37-0.39,0.5-0.65c0.14-0.27,0.23-0.56,0.27-0.88C72.26,50.3,72.3,49.91,72.22,49.24 M69.16,51.71
		c-1.66,0-2.16-1.11-2.16-2.48h4.32C71.32,50.6,70.95,51.71,69.16,51.71"/>
</g>
</svg>
