<?xml version="1.0" standalone="no"?>
<!DOCTYPE svg PUBLIC "-//W3C//DTD SVG 20010904//EN"
 "http://www.w3.org/TR/2001/REC-SVG-20010904/DTD/svg10.dtd">
<svg version="1.0" xmlns="http://www.w3.org/2000/svg"
 width="1816.000000pt" height="1867.000000pt" viewBox="0 0 1816.000000 1867.000000"
 preserveAspectRatio="xMidYMid meet">
<metadata>
Created by potrace 1.16, written by Peter Selinger 2001-2019
</metadata>
<g transform="translate(0.000000,1867.000000) scale(0.100000,-0.100000)"
fill="#000000" stroke="none">
<path d="M8370 18379 c-1586 -94 -3087 -611 -4382 -1510 -86 -60 -162 -109
-168 -109 -6 0 -31 13 -55 30 -129 89 -353 175 -533 205 -128 22 -416 16 -529
-9 -560 -127 -975 -548 -1095 -1109 -29 -139 -31 -387 -4 -532 35 -186 105
-365 204 -516 l49 -76 -74 -109 c-724 -1064 -1202 -2291 -1382 -3549 -66 -461
-85 -735 -85 -1230 0 -618 45 -1090 158 -1659 301 -1512 1002 -2900 2053
-4063 148 -164 460 -473 633 -627 876 -779 1886 -1367 2978 -1733 l199 -67 7
-107 c16 -276 93 -511 234 -725 210 -318 525 -528 912 -611 120 -26 420 -25
540 0 282 61 506 178 703 367 177 169 293 351 372 585 l40 120 60 2 c2711 105
5231 1516 6755 3783 697 1037 1153 2205 1344 3440 27 172 56 421 78 670 18
197 18 1041 0 1250 -28 327 -75 690 -122 930 -11 58 -20 114 -20 125 0 13 27
40 81 79 270 199 467 512 541 859 28 134 30 385 5 527 -53 285 -188 542 -397
750 -299 299 -679 439 -1112 409 -101 -7 -114 -6 -126 9 -7 9 -66 101 -130
205 -364 584 -825 1148 -1339 1639 -1484 1417 -3396 2246 -5443 2358 -211 11
-749 11 -950 -1z m775 -639 c718 -29 1350 -135 2015 -337 1796 -546 3359
-1736 4370 -3328 55 -87 100 -161 100 -165 0 -4 -36 -37 -79 -74 -244 -206
-422 -520 -476 -841 -22 -128 -22 -339 -1 -468 84 -514 452 -945 951 -1112
139 -47 266 -67 435 -70 l155 -2 12 -64 c24 -129 73 -478 87 -629 50 -509 50
-1075 1 -1565 -122 -1216 -528 -2392 -1182 -3420 -716 -1124 -1690 -2040
-2867 -2695 -782 -435 -1690 -746 -2589 -885 -312 -48 -775 -92 -891 -83 l-48
3 -34 104 c-158 483 -571 845 -1081 948 -124 25 -414 25 -533 -1 -194 -41
-371 -115 -530 -221 -109 -72 -303 -270 -379 -385 -35 -52 -67 -96 -72 -98
-12 -5 -227 67 -424 141 -781 293 -1513 709 -2165 1232 -614 492 -1160 1082
-1603 1731 -696 1021 -1141 2196 -1296 3419 -46 367 -55 521 -55 990 -1 470 8
627 55 995 154 1207 586 2361 1261 3368 38 56 72 102 77 102 4 0 37 -13 72
-29 178 -80 352 -115 574 -114 240 0 426 44 633 149 330 168 585 463 702 812
54 163 65 239 65 452 0 150 -4 214 -18 278 -23 107 -71 251 -109 325 -28 56
-28 60 -11 73 52 42 436 292 553 361 1147 678 2405 1050 3720 1103 279 11 334
11 605 0z"/>
<path d="M11190 12322 l0 -2159 -1552 -6 c-854 -4 -1914 -7 -2355 -7 l-803 0
0 2150 0 2151 -77 -43 c-472 -255 -883 -566 -1270 -961 l-183 -186 0 -1991 c0
-2243 -7 -2056 80 -2235 103 -214 320 -377 551 -414 43 -7 967 -11 2837 -11
l2772 0 0 -1730 c0 -952 3 -1730 7 -1730 13 0 250 129 365 198 377 228 688
471 1006 788 l172 171 0 3503 0 3502 -92 97 c-387 405 -838 747 -1339 1015
-58 31 -109 56 -112 56 -4 0 -7 -971 -7 -2158z"/>
</g>
</svg>
