<svg width="202" height="202" viewBox="0 0 202 202" fill="none" xmlns="http://www.w3.org/2000/svg">
<mask id="mask0_230_3" style="mask-type:luminance" maskUnits="userSpaceOnUse" x="1" y="1" width="200" height="200">
<path d="M101 201C156.228 201 201 156.229 201 101C201 45.7715 156.228 1 101 1C45.7715 1 1 45.7715 1 101C1 156.229 45.7715 201 101 201Z" fill="white"/>
</mask>
<g mask="url(#mask0_230_3)">
<path d="M753.996 -101.147H1V201H753.996V-101.147Z" fill="#000B48"/>
<mask id="mask1_230_3" style="mask-type:luminance" maskUnits="userSpaceOnUse" x="1" y="-102" width="753" height="303">
<path d="M753.996 -101.147H1V201H753.996V-101.147Z" fill="white"/>
</mask>
<g mask="url(#mask1_230_3)">
<g opacity="0.5">
<g style="mix-blend-mode:overlay">
<path d="M111.411 281.405C75.9568 281.426 40.8461 274.436 8.08664 260.835C-24.6728 247.235 -54.4385 227.289 -79.5085 202.14C-104.578 176.992 -124.461 147.132 -138.019 114.269C-151.577 81.4067 -158.545 46.1854 -158.524 10.6195C-158.631 -24.9586 -151.702 -60.2047 -138.139 -93.0787C-124.576 -125.953 -104.648 -155.802 -79.5086 -180.898C-28.8537 -231.654 39.814 -260.163 111.409 -260.163C183.005 -260.163 251.673 -231.654 302.328 -180.898C327.467 -155.802 347.395 -125.953 360.958 -93.0787C374.521 -60.2047 381.45 -24.9586 381.343 10.6195C381.364 46.1852 374.396 81.4062 360.838 114.269C347.28 147.131 327.398 176.99 302.329 202.139C277.259 227.288 247.494 247.233 214.734 260.834C181.975 274.435 146.865 281.426 111.411 281.405ZM111.411 -259.377C58.1785 -259.377 6.14147 -243.542 -38.1197 -213.874C-82.381 -184.207 -116.878 -142.039 -137.25 -92.7036C-157.621 -43.3682 -162.951 10.919 -152.566 63.2931C-142.181 115.667 -116.547 163.776 -78.9055 201.536C-41.2645 239.295 6.69316 265.01 58.9028 275.428C111.112 285.846 165.229 280.499 214.41 260.063C263.59 239.628 305.625 205.022 335.2 160.621C364.774 116.221 380.559 64.0197 380.559 10.6195C380.482 -60.9654 352.101 -129.596 301.643 -180.216C251.185 -230.835 182.771 -259.296 111.411 -259.377Z" fill="#02238E"/>
</g>
<g style="mix-blend-mode:overlay">
<path d="M111.412 267.725C77.7571 267.744 44.4283 261.109 13.3314 248.198C-17.7656 235.287 -46.0207 216.354 -69.8186 192.482C-93.6165 168.609 -112.49 140.265 -125.361 109.07C-138.232 77.8756 -144.847 44.4418 -144.828 10.6807C-144.847 -23.0804 -138.232 -56.5141 -125.361 -87.7088C-112.49 -118.904 -93.6165 -147.247 -69.8186 -171.12C-46.0207 -194.993 -17.7656 -213.926 13.3314 -226.836C44.4283 -239.747 77.7571 -246.383 111.412 -246.363C145.067 -246.383 178.396 -239.748 209.493 -226.837C240.59 -213.926 268.845 -194.993 292.643 -171.121C316.441 -147.248 335.314 -118.904 348.184 -87.7091C361.054 -56.5142 367.669 -23.0803 367.649 10.6807C367.669 44.4418 361.054 77.8756 348.184 109.071C335.314 140.265 316.441 168.61 292.643 192.482C268.845 216.355 240.59 235.288 209.493 248.199C178.396 261.109 145.067 267.745 111.412 267.725ZM111.412 -245.577C60.8883 -245.577 11.499 -230.548 -30.5101 -202.39C-72.5192 -174.232 -105.261 -134.21 -124.596 -87.385C-143.931 -40.5599 -148.989 10.965 -139.133 60.6742C-129.276 110.383 -104.946 156.044 -69.2206 191.883C-33.4948 227.721 12.0226 252.127 61.5757 262.015C111.129 271.903 162.492 266.828 209.17 247.432C255.848 228.037 295.744 195.192 323.814 153.05C351.883 110.909 366.866 61.3638 366.866 10.6807C366.789 -57.2596 339.851 -122.395 291.961 -170.437C244.071 -218.478 179.139 -245.501 111.412 -245.577Z" fill="#02238E"/>
</g>
<g style="mix-blend-mode:overlay">
<path d="M111.405 284.147C75.589 284.252 40.1084 277.229 7.01628 263.486C-26.0758 249.744 -56.1221 229.553 -81.3836 204.084C-106.774 178.741 -126.901 148.598 -140.601 115.399C-154.3 82.2002 -161.299 46.6055 -161.193 10.6751C-161.299 -25.2548 -154.3 -60.8492 -140.601 -94.0473C-126.902 -127.245 -106.774 -157.388 -81.3836 -182.73C-30.2302 -233.989 39.1152 -262.781 111.418 -262.781C183.72 -262.781 253.065 -233.989 304.219 -182.73C329.606 -157.386 349.73 -127.243 363.427 -94.0451C377.123 -60.8471 384.12 -25.2536 384.011 10.6751C384.119 46.6043 377.123 82.1982 363.426 115.397C349.73 148.595 329.606 178.739 304.219 204.084C278.954 229.556 248.904 249.748 215.807 263.491C182.71 277.235 147.225 284.255 111.405 284.147ZM111.405 -261.975C57.6447 -261.976 5.09191 -245.984 -39.6081 -216.023C-84.3081 -186.062 -119.148 -143.477 -139.721 -93.6531C-160.294 -43.8291 -165.677 10.996 -155.189 63.889C-144.702 116.782 -118.814 165.367 -80.7998 203.501C-42.7858 241.635 5.64703 267.604 58.374 278.125C111.101 288.646 165.754 283.246 215.421 262.608C265.089 241.97 307.54 207.021 337.407 162.18C367.274 117.339 383.215 64.6206 383.215 10.6914C383.138 -61.602 354.476 -130.913 303.519 -182.033C252.562 -233.154 183.471 -261.893 111.405 -261.975Z" fill="#02238E"/>
</g>
<g style="mix-blend-mode:overlay">
<path d="M111.414 362.506C65.3275 362.645 19.6713 353.614 -22.9121 335.934C-65.4956 318.255 -104.161 292.278 -136.669 259.508C-169.336 226.897 -195.232 188.11 -212.856 145.392C-230.48 102.675 -239.483 56.8748 -239.344 10.6434C-239.483 -35.5876 -230.48 -81.3871 -212.856 -124.104C-195.232 -166.821 -169.337 -205.607 -136.669 -238.218C-70.8484 -304.172 18.3795 -341.219 111.412 -341.219C204.445 -341.219 293.673 -304.172 359.493 -238.218C392.161 -205.607 418.056 -166.821 435.68 -124.104C453.304 -81.3871 462.307 -35.5876 462.168 10.6434C462.307 56.8748 453.304 102.675 435.68 145.392C418.056 188.11 392.161 226.897 359.493 259.508C326.986 292.278 288.321 318.255 245.738 335.935C203.155 353.614 157.5 362.646 111.414 362.506ZM111.414 -340.43C42.1955 -340.432 -25.469 -319.845 -83.0231 -281.27C-140.577 -242.695 -185.436 -187.866 -211.926 -123.716C-238.417 -59.5655 -245.349 11.024 -231.847 79.1264C-218.345 147.229 -185.014 209.785 -136.071 258.885C-87.1267 307.985 -24.7679 341.423 43.1201 354.97C111.008 368.517 181.376 361.565 245.326 334.994C309.275 308.422 363.934 263.425 402.39 205.691C440.846 147.957 461.372 80.0797 461.372 10.6434C461.266 -82.4323 424.362 -171.666 358.756 -237.481C293.149 -303.297 204.197 -340.321 111.414 -340.43Z" fill="#02238E"/>
</g>
<g style="mix-blend-mode:overlay">
<path d="M111.419 329.086C69.713 329.212 28.3963 321.039 -10.1399 305.04C-48.6761 289.041 -83.6664 265.533 -113.086 235.878C-142.648 206.366 -166.081 171.266 -182.03 132.608C-197.979 93.9508 -206.126 52.504 -206 10.6667C-206.126 -31.1701 -197.978 -72.6164 -182.03 -111.273C-166.081 -149.93 -142.647 -185.03 -113.086 -214.542C-53.5196 -274.225 27.2275 -307.75 111.417 -307.75C195.607 -307.75 276.354 -274.225 335.92 -214.542C365.482 -185.03 388.915 -149.93 404.864 -111.273C420.813 -72.6164 428.96 -31.1701 428.835 10.6667C428.96 52.504 420.813 93.9508 404.864 132.608C388.916 171.266 365.482 206.366 335.92 235.878C306.501 265.533 271.512 289.041 232.976 305.04C194.44 321.039 153.124 329.212 111.419 329.086ZM111.419 -306.963C48.7941 -306.963 -12.4246 -288.335 -64.4955 -253.433C-116.566 -218.532 -157.151 -168.924 -181.117 -110.884C-205.082 -52.8444 -211.353 11.0212 -199.136 72.6362C-186.918 134.251 -156.762 190.848 -112.479 235.27C-68.1969 279.692 -11.7776 309.944 49.644 322.2C111.066 334.455 174.731 328.165 232.588 304.124C290.446 280.082 339.898 239.37 374.69 187.135C409.482 134.9 428.052 73.4888 428.051 10.6667C427.956 -73.5446 394.566 -154.279 335.207 -213.826C275.847 -273.372 195.366 -306.867 111.419 -306.963Z" fill="#02238E"/>
</g>
<g style="mix-blend-mode:overlay">
<path d="M111.408 216.952C84.3941 216.967 57.6418 211.641 32.681 201.277C7.72027 190.914 -14.9594 175.717 -34.0614 156.555C-53.1633 137.393 -68.3127 114.642 -78.6435 89.6022C-88.9743 64.5628 -94.2838 37.7262 -94.2685 10.627C-94.2563 -30.1786 -82.1853 -70.0647 -59.5813 -103.99C-36.9773 -137.916 -4.85491 -164.357 32.7259 -179.974C70.3067 -195.59 111.659 -199.68 151.556 -191.726C191.454 -183.772 228.105 -164.132 256.878 -135.288C276.033 -116.165 291.217 -93.4218 301.551 -68.3732C311.885 -43.3247 317.164 -16.4688 317.082 10.64C317.096 37.7381 311.786 64.5734 301.455 89.6115C291.124 114.65 275.975 137.399 256.873 156.56C237.772 175.721 215.092 190.917 190.133 201.28C165.173 211.642 138.421 216.967 111.408 216.952ZM111.408 -194.908C70.884 -194.909 31.2695 -182.855 -2.42546 -160.27C-36.1205 -137.686 -62.3826 -105.585 -77.8909 -68.0275C-93.3992 -30.4701 -97.457 10.8571 -89.5513 50.728C-81.6455 90.5989 -62.1313 127.223 -33.4763 155.968C-4.82126 184.713 31.6875 204.289 71.4332 212.22C111.179 220.15 152.376 216.08 189.816 200.522C227.255 184.965 259.255 158.62 281.769 124.819C304.283 91.0182 316.299 51.2789 316.298 10.627C316.236 -43.8654 294.63 -96.1081 256.219 -134.64C217.808 -173.172 165.73 -194.846 111.408 -194.908Z" fill="#02238E"/>
</g>
<g style="mix-blend-mode:overlay">
<path d="M111.404 333.522C69.1118 333.648 27.2145 325.358 -11.8626 309.131C-50.9397 292.905 -86.4205 269.064 -116.251 238.99C-146.231 209.065 -169.997 173.473 -186.172 134.272C-202.348 95.0722 -210.612 53.0429 -210.487 10.6172C-210.612 -31.8085 -202.348 -73.8379 -186.173 -113.038C-169.997 -152.238 -146.231 -187.831 -116.251 -217.755C-55.848 -278.276 26.0327 -312.27 111.404 -312.27C196.776 -312.27 278.657 -278.276 339.06 -217.755C369.04 -187.831 392.806 -152.238 408.981 -113.038C425.157 -73.8379 433.421 -31.8085 433.296 10.6172C433.421 53.0429 425.157 95.0722 408.981 134.272C392.805 173.473 369.04 209.065 339.06 238.99C309.229 269.064 273.748 292.905 234.671 309.131C195.594 325.358 153.697 333.648 111.404 333.522ZM111.404 -311.486C47.8963 -311.486 -14.1858 -292.595 -66.9911 -257.201C-119.796 -221.807 -160.953 -171.5 -185.257 -112.642C-209.561 -53.7832 -215.92 10.9832 -203.53 73.4672C-191.141 135.951 -160.559 193.346 -115.652 238.395C-70.7447 283.443 -13.5296 314.122 48.7582 326.55C111.046 338.979 175.609 332.6 234.283 308.219C292.956 283.839 343.105 242.553 378.388 189.581C413.671 136.609 432.503 74.3318 432.502 10.6237C432.405 -74.7752 398.544 -156.649 338.348 -217.035C278.151 -277.421 196.535 -311.388 111.404 -311.486Z" fill="#02238E"/>
</g>
<g style="mix-blend-mode:overlay">
<path d="M111.41 188.114C88.1739 188.128 65.1626 183.547 43.6922 174.634C22.2217 165.721 2.71317 152.649 -13.718 136.168C-30.1492 119.686 -43.1808 100.117 -52.0677 78.5794C-60.9545 57.042 -65.5224 33.9585 -65.51 10.649C-65.51 -36.4176 -46.8716 -81.5564 -13.6951 -114.837C19.4815 -148.119 64.4786 -166.816 111.397 -166.816C158.316 -166.816 203.313 -148.119 236.49 -114.837C269.666 -81.5564 288.305 -36.4176 288.305 10.649C288.317 33.9564 283.75 57.0377 274.865 78.5734C265.98 100.109 252.95 119.677 236.522 136.158C220.093 152.64 200.588 165.712 179.12 174.626C157.653 183.541 134.644 188.124 111.41 188.114ZM111.41 -166.026C76.576 -166.027 42.5239 -155.665 13.56 -136.252C-15.4039 -116.838 -37.9786 -89.2451 -51.3094 -56.9612C-64.6402 -24.6773 -68.1283 10.8471 -61.3326 45.1197C-54.537 79.3923 -37.7628 110.874 -13.1312 135.583C11.5003 160.292 42.8829 177.119 77.0478 183.936C111.213 190.753 146.626 187.254 178.808 173.881C210.991 160.508 238.497 137.863 257.85 108.808C277.202 79.7524 287.531 45.593 287.531 10.649C287.478 -36.1918 268.905 -81.0989 235.888 -114.22C202.87 -147.342 158.104 -165.973 111.41 -166.026Z" fill="#02238E"/>
</g>
<g style="mix-blend-mode:overlay">
<path d="M111.409 241.594C81.1682 241.611 51.2203 235.649 23.2778 224.047C-4.66459 212.446 -30.0535 195.433 -51.4372 173.982C-72.8209 152.531 -89.7801 127.062 -101.345 99.032C-112.91 71.0016 -118.854 40.9593 -118.837 10.6229C-118.826 -35.0585 -105.315 -79.7114 -80.0126 -117.692C-54.7097 -155.672 -18.7504 -185.275 23.3202 -202.759C65.3908 -220.243 111.684 -224.823 156.349 -215.92C201.014 -207.017 242.045 -185.03 274.256 -152.74C295.7 -131.334 312.699 -105.874 324.268 -77.8329C335.838 -49.7921 341.747 -19.7278 341.655 10.6196C341.672 40.956 335.729 70.9983 324.164 99.0288C312.599 127.059 295.64 152.528 274.256 173.979C252.872 195.43 227.483 212.443 199.541 224.044C171.598 235.646 141.651 241.611 111.409 241.594ZM111.409 -219.566C66.026 -219.566 21.6618 -206.065 -16.0731 -180.772C-53.808 -155.479 -83.2188 -119.529 -100.586 -77.4684C-117.954 -35.4076 -122.498 10.875 -113.644 55.5265C-104.79 100.178 -82.936 141.193 -50.8451 173.385C-18.7542 205.577 22.1321 227.5 66.6435 236.382C111.155 245.264 157.292 240.705 199.221 223.283C241.15 205.861 276.987 176.357 302.2 138.504C327.414 100.65 340.872 56.146 340.872 10.6196C340.802 -50.4079 316.605 -108.916 273.587 -152.069C230.57 -195.222 172.245 -219.496 111.409 -219.566Z" fill="#02238E"/>
</g>
<g style="mix-blend-mode:overlay">
<path d="M111.423 227.382C83.0414 227.398 54.9349 221.802 28.7106 210.914C2.48631 200.026 -21.3415 184.06 -41.4103 163.928C-61.4792 143.796 -77.3955 119.893 -88.2492 93.5858C-99.1029 67.2788 -104.681 39.0838 -104.665 10.6128C-104.655 -32.2593 -91.9749 -74.166 -68.2278 -109.81C-44.4808 -145.455 -10.7327 -173.237 28.7508 -189.645C68.2343 -206.053 111.681 -210.351 153.598 -201.995C195.516 -193.639 234.024 -173.004 264.253 -142.699C284.378 -122.609 300.331 -98.7147 311.189 -72.3988C322.046 -46.0829 327.593 -17.868 327.508 10.6128C327.524 39.0835 321.946 67.2783 311.092 93.585C300.239 119.892 284.323 143.794 264.254 163.926C244.186 184.058 220.358 200.025 194.135 210.913C167.911 221.801 139.804 227.397 111.423 227.382ZM111.423 -205.367C68.8396 -205.367 27.2123 -192.701 -8.19485 -168.968C-43.602 -145.236 -71.1986 -111.504 -87.4949 -72.0385C-103.791 -32.5727 -108.055 10.8545 -99.7477 52.7513C-91.4402 94.6482 -70.9344 133.133 -40.8234 163.339C-10.7123 193.545 27.6516 214.115 69.4168 222.449C111.182 230.782 154.473 226.505 193.815 210.157C233.157 193.81 266.783 166.126 290.44 130.607C314.098 95.0888 326.725 53.3304 326.724 10.6128C326.659 -46.6485 303.955 -101.546 263.592 -142.036C223.229 -182.525 168.505 -205.301 111.423 -205.367Z" fill="#02238E"/>
</g>
<g style="mix-blend-mode:overlay">
<path d="M111.408 244.169C80.8333 244.186 50.5546 238.159 22.3034 226.43C-5.94777 214.701 -31.6174 197.502 -53.2378 175.814C-74.8581 154.127 -92.0052 128.378 -103.699 100.038C-115.392 71.6986 -121.403 41.3248 -121.386 10.6536C-121.381 -35.5355 -107.723 -80.6859 -82.1413 -119.09C-56.5591 -157.493 -20.2006 -187.426 22.3377 -205.104C64.876 -222.782 111.684 -227.411 156.845 -218.406C202.005 -209.4 243.49 -187.166 276.055 -154.512C297.736 -132.869 314.923 -107.127 326.62 -78.7766C338.317 -50.4259 344.292 -20.0293 344.2 10.6536C344.216 41.3246 338.205 71.698 326.512 100.037C314.819 128.377 297.672 154.126 276.052 175.813C254.432 197.5 228.763 214.7 200.512 226.429C172.261 238.158 141.983 244.186 111.408 244.169ZM111.408 -222.098C65.5205 -222.099 20.6631 -208.449 -17.4914 -182.875C-55.6459 -157.302 -85.3838 -120.952 -102.945 -78.4241C-120.505 -35.896 -125.1 10.9009 -116.148 56.0487C-107.196 101.196 -85.0991 142.667 -52.6516 175.217C-20.204 207.767 21.1366 229.933 66.1427 238.914C111.149 247.894 157.799 243.285 200.193 225.669C242.588 208.053 278.823 178.221 304.316 139.946C329.81 101.672 343.417 56.6728 343.416 10.6406C343.342 -51.0617 318.875 -110.215 275.38 -153.844C231.886 -197.473 172.917 -222.028 111.408 -222.098Z" fill="#02238E"/>
</g>
<g style="mix-blend-mode:overlay">
<path d="M111.407 191.738C87.6953 191.751 64.2132 187.076 42.3036 177.98C20.394 168.884 0.486668 155.544 -16.2802 138.724C-33.0471 121.905 -46.3446 101.935 -55.4125 79.9561C-64.4804 57.9775 -69.1407 34.4214 -69.1271 10.6348C-69.1179 -25.183 -58.5238 -60.1942 -38.6838 -89.9735C-18.8438 -119.753 9.35143 -142.963 42.3383 -156.672C75.3251 -170.38 111.623 -173.971 146.643 -166.99C181.664 -160.009 213.836 -142.77 239.092 -117.452C255.906 -100.668 269.234 -80.7053 278.306 -58.7191C287.377 -36.7329 292.01 -13.16 291.938 10.6348C291.952 34.4211 287.292 57.9769 278.224 79.9553C269.156 101.934 255.859 121.904 239.093 138.723C222.326 155.543 202.419 168.882 180.51 177.979C158.601 187.076 135.119 191.751 111.407 191.738ZM111.407 -169.679C75.8556 -169.679 41.1022 -159.105 11.5419 -139.291C-18.0184 -119.478 -41.058 -91.3165 -54.6633 -58.3678C-68.2686 -25.419 -71.8286 10.8369 -64.893 45.8153C-57.9573 80.7936 -40.8377 112.923 -15.6989 138.141C9.43986 163.359 41.4687 180.533 76.3372 187.49C111.206 194.448 147.348 190.877 180.193 177.228C213.038 163.58 241.112 140.468 260.863 110.815C280.614 81.1612 291.155 46.2983 291.155 10.6348C291.101 -37.1707 272.146 -83.0028 238.448 -116.806C204.751 -150.61 159.063 -169.625 111.407 -169.679Z" fill="#02238E"/>
</g>
<g style="mix-blend-mode:overlay">
<path d="M111.422 173.452C90.1071 173.464 68.9985 169.262 49.3034 161.085C29.6084 152.908 11.7132 140.917 -3.35897 125.797C-18.4311 110.678 -30.3845 92.7261 -38.5358 72.969C-46.6871 53.2119 -50.8763 32.0368 -50.864 10.6544C-50.864 -32.5222 -33.766 -73.9303 -3.33144 -104.461C27.1031 -134.991 68.3813 -152.143 111.422 -152.143C154.463 -152.143 195.741 -134.991 226.176 -104.461C256.611 -73.9303 273.709 -32.5222 273.709 10.6544C273.72 32.0365 269.53 53.2113 261.379 72.968C253.227 92.7247 241.274 110.676 226.202 125.795C211.13 140.915 193.235 152.906 173.54 161.083C153.845 169.26 132.737 173.463 111.422 173.452ZM111.422 -151.354C79.4793 -151.357 48.2527 -141.858 21.6915 -124.058C-4.86966 -106.257 -25.5724 -80.9555 -37.7985 -51.3519C-50.0246 -21.7483 -53.2251 10.8275 -46.995 42.2558C-40.765 73.684 -25.3843 102.553 -2.79806 125.212C19.7882 147.872 48.5654 163.303 79.8945 169.555C111.224 175.807 143.697 172.6 173.209 160.337C202.721 148.075 227.945 127.309 245.691 100.666C263.438 74.0223 272.909 42.6981 272.909 10.6544C272.86 -32.2955 255.831 -73.4725 225.557 -103.844C195.284 -134.215 154.237 -151.301 111.422 -151.354Z" fill="#02238E"/>
</g>
<g style="mix-blend-mode:overlay">
<path d="M111.424 182.486C88.9273 182.499 66.6491 178.064 45.8628 169.433C25.0765 160.803 6.18974 148.148 -9.71754 132.19C-25.6248 116.233 -38.2407 97.2867 -46.8437 76.4349C-55.4468 55.5831 -59.8683 33.2347 -59.8556 10.6676C-59.9536 -11.9586 -55.5958 -34.3814 -47.0322 -55.3137C-38.4687 -76.2459 -25.868 -95.2752 -9.9537 -111.309C5.96063 -127.343 24.8752 -140.066 45.7043 -148.748C66.5333 -157.429 88.8666 -161.898 111.422 -161.898C133.977 -161.898 156.311 -157.429 177.14 -148.748C197.969 -140.066 216.883 -127.343 232.798 -111.309C248.712 -95.2752 261.313 -76.2459 269.876 -55.3137C278.44 -34.3814 282.798 -11.9586 282.699 10.6676C282.712 33.2345 278.291 55.5826 269.688 76.4342C261.085 97.2857 248.47 116.232 232.563 132.189C216.656 148.146 197.769 160.802 176.983 169.432C156.197 178.063 133.92 182.499 111.424 182.486ZM111.424 -160.362C77.7025 -160.362 44.7385 -150.332 16.7002 -131.539C-11.3382 -112.746 -33.1915 -86.0342 -46.0963 -54.782C-59.0011 -23.5297 -62.3778 10.8595 -55.7993 44.0368C-49.2208 77.2142 -32.9826 107.69 -9.13816 131.609C14.7063 155.529 45.0859 171.818 78.1591 178.417C111.232 185.016 145.513 181.629 176.668 168.684C207.822 155.738 234.449 133.816 253.183 105.689C271.918 77.5627 281.916 44.4949 281.916 10.6676C281.864 -34.6764 263.885 -78.1484 231.923 -110.211C199.961 -142.274 156.625 -160.31 111.424 -160.362Z" fill="#02238E"/>
</g>
<g style="mix-blend-mode:overlay">
<path d="M111.416 169.912C90.5664 169.924 69.9191 165.813 50.6545 157.815C31.3898 149.817 13.8857 138.087 -0.857063 123.298C-15.5998 108.509 -27.2921 90.9498 -35.2653 71.6245C-43.2385 52.2992 -47.3364 31.5868 -47.3244 10.6717C-47.4189 -10.3003 -43.3827 -31.0845 -35.4476 -50.4874C-27.5125 -69.8904 -15.8349 -87.5298 -1.0853 -102.393C13.6643 -117.256 31.1954 -129.05 50.5014 -137.097C69.8073 -145.145 90.5078 -149.288 111.414 -149.288C132.321 -149.288 153.021 -145.145 172.327 -137.097C191.633 -129.05 209.164 -117.256 223.914 -102.393C238.663 -87.5298 250.341 -69.8904 258.276 -50.4874C266.211 -31.0845 270.247 -10.3003 270.153 10.6717C270.165 31.5865 266.067 52.2986 258.094 71.6237C250.121 90.9489 238.429 108.508 223.687 123.297C208.944 138.086 191.441 149.815 172.176 157.814C152.912 165.813 132.265 169.924 111.416 169.912ZM111.416 -147.795C80.1747 -147.796 49.635 -138.503 23.6586 -121.092C-2.31768 -103.682 -22.5639 -78.9344 -34.5196 -49.9806C-46.4754 -21.0267 -49.6037 10.8334 -43.5091 41.5708C-37.4144 72.3082 -22.3704 100.542 -0.279566 122.703C21.8113 144.863 49.9567 159.955 80.5976 166.068C111.238 172.182 142.999 169.044 171.862 157.051C200.724 145.057 225.394 124.747 242.75 98.6891C260.106 72.6309 269.37 41.995 269.369 10.6555C269.317 -31.3507 252.658 -71.6212 223.047 -101.323C193.436 -131.024 153.29 -147.747 111.416 -147.795Z" fill="#02238E"/>
</g>
<g style="mix-blend-mode:overlay">
<path d="M111.421 156.271C92.3542 156.283 73.472 152.524 55.8542 145.211C38.2364 137.897 22.2286 127.171 8.7461 113.646C-4.73636 100.121 -15.429 84.0634 -22.7204 66.3902C-30.0117 48.7171 -33.7588 29.7755 -33.7473 10.6485C-33.74 -13.2965 -27.8468 -36.8704 -16.5896 -57.9853C-5.33239 -79.1003 10.9415 -97.1049 30.7909 -110.405C50.6403 -123.704 73.4527 -131.889 97.2079 -134.233C120.963 -136.578 144.928 -133.01 166.981 -123.845C189.033 -114.681 208.493 -100.203 223.636 -81.6934C238.779 -63.1839 249.139 -41.2141 253.798 -17.7295C258.456 5.75509 257.271 30.0298 250.345 52.9448C243.419 75.8599 230.968 96.7082 214.093 113.644C200.639 127.206 184.637 137.957 167.013 145.274C149.39 152.591 130.494 156.329 111.421 156.271ZM111.421 -134.188C82.8652 -134.188 54.9505 -125.693 31.2071 -109.778C7.46364 -93.8636 -11.0421 -71.2433 -21.97 -44.7779C-32.8979 -18.3125 -35.7571 10.8092 -30.1861 38.9047C-24.6151 67.0002 -10.8641 92.8075 9.32798 113.063C29.5201 133.319 55.2464 147.113 83.2537 152.702C111.261 158.29 140.291 155.422 166.673 144.46C193.056 133.497 215.605 114.933 231.47 91.1153C247.335 67.2971 255.803 39.2945 255.803 10.6485C255.76 -27.7512 240.534 -64.5659 213.467 -91.7187C186.399 -118.871 149.7 -134.145 111.421 -134.188Z" fill="#02238E"/>
</g>
<g style="mix-blend-mode:overlay">
<path d="M111.415 121.766C89.5025 121.766 68.0824 115.248 49.863 103.036C31.6437 90.8237 17.4434 73.4661 9.05796 53.1581C0.672518 32.8501 -1.5215 10.5037 2.75336 -11.0552C7.02822 -32.6141 17.58 -52.4172 33.0743 -67.9603C48.5685 -83.5033 68.3094 -94.0883 89.8006 -98.3766C111.292 -102.665 133.568 -100.464 153.812 -92.0522C174.057 -83.6403 191.36 -69.3954 203.533 -51.1186C215.707 -32.8419 222.205 -11.3543 222.205 10.627C222.172 40.0929 210.489 68.3426 189.719 89.1782C168.949 110.014 140.788 121.733 111.415 121.766ZM111.415 -99.7228C89.6569 -99.7247 68.3872 -93.2542 50.2954 -81.1294C32.2036 -69.0047 18.1023 -51.7704 9.77475 -31.606C1.44723 -11.4416 -0.732465 10.7471 3.51132 32.1543C7.75511 53.5614 18.2318 73.2253 33.6164 88.6593C49.001 104.093 68.6026 114.604 89.9422 118.863C111.282 123.121 133.401 120.936 153.503 112.583C173.604 104.231 190.785 90.0858 202.873 71.9377C214.961 53.7896 221.412 32.4533 221.411 10.627C221.378 -18.6282 209.779 -46.6756 189.158 -67.3627C168.537 -88.0499 140.578 -99.6875 111.415 -99.7228Z" fill="#02238E"/>
</g>
<g style="mix-blend-mode:overlay">
<path d="M111.421 124.317C89.015 124.317 67.1122 117.652 48.4822 105.164C29.8523 92.6771 15.332 74.9284 6.75759 54.1627C-1.81682 33.397 -4.06028 10.547 0.310922 -11.4977C4.68212 -33.5424 15.4717 -53.7918 31.3151 -69.6852C47.1586 -85.5785 67.3444 -96.402 89.3199 -100.787C111.295 -105.172 134.074 -102.921 154.774 -94.32C175.475 -85.7186 193.168 -71.1526 205.616 -52.464C218.064 -33.7754 224.708 -11.8035 224.708 10.6731C224.675 40.803 212.728 69.6893 191.49 90.9944C170.252 112.299 141.456 124.283 111.421 124.317ZM111.421 -102.185C89.1699 -102.185 67.4182 -95.5667 48.9167 -83.1661C30.4152 -70.7656 15.9949 -53.1399 7.47931 -32.5179C-1.03629 -11.8959 -3.26469 10.7961 1.07591 32.6886C5.41651 54.581 16.1311 74.6906 31.8649 90.4744C47.5986 106.258 67.6447 117.007 89.4683 121.362C111.292 125.717 133.913 123.482 154.47 114.94C175.028 106.398 192.598 91.9332 204.961 73.3738C217.323 54.8144 223.921 32.9944 223.921 10.6731C223.888 -19.2477 212.024 -47.9335 190.934 -69.0911C169.843 -90.2486 141.248 -102.15 111.421 -102.185Z" fill="#02238E"/>
</g>
</g>
<g opacity="0.5">
<g style="mix-blend-mode:overlay">
<path d="M263.216 53.4449C239.931 53.5158 216.862 48.9526 195.346 40.0197C173.831 31.0867 154.295 17.9613 137.87 1.40325C121.364 -15.0734 108.28 -34.6708 99.3746 -56.2544C90.4697 -77.838 85.9209 -100.979 85.9915 -124.338C85.9211 -147.697 90.4701 -170.837 99.375 -192.42C108.28 -214.003 121.364 -233.6 137.87 -250.076C154.295 -266.634 173.831 -279.76 195.346 -288.693C216.862 -297.626 239.931 -302.189 263.216 -302.118C286.501 -302.188 309.569 -297.625 331.085 -288.692C352.6 -279.759 372.135 -266.634 388.56 -250.076C405.065 -233.6 418.149 -214.003 427.054 -192.42C435.959 -170.837 440.508 -147.697 440.438 -124.338C440.508 -100.979 435.96 -77.838 427.055 -56.2544C418.15 -34.6708 405.066 -15.0734 388.56 1.40325C372.135 17.961 352.6 31.0863 331.085 40.0193C309.569 48.9523 286.501 53.5155 263.216 53.4449ZM263.216 -301.332C216.438 -301.278 171.591 -282.614 138.513 -249.433C105.436 -216.252 86.8292 -171.264 86.7752 -124.338C86.8284 -77.412 105.435 -32.4231 138.512 0.758705C171.59 33.9405 216.437 52.6055 263.216 52.6588C309.997 52.6081 354.847 33.9442 387.927 0.762152C421.006 -32.4199 439.614 -77.4103 439.667 -124.338C439.614 -171.266 421.006 -216.256 387.926 -249.437C354.847 -282.619 309.996 -301.282 263.216 -301.332Z" fill="#19369E"/>
</g>
<g style="mix-blend-mode:overlay">
<path d="M263.206 44.3839C241.101 44.4509 219.202 40.119 198.777 31.6388C178.352 23.1586 159.806 10.6986 144.214 -5.01997C128.544 -20.6616 116.124 -39.2656 107.67 -59.7551C99.2164 -80.2446 94.8981 -102.213 94.9649 -124.388C94.8983 -146.562 99.2168 -168.53 107.67 -189.019C116.124 -209.508 128.545 -228.111 144.214 -243.752C159.806 -259.471 178.352 -271.931 198.777 -280.411C219.202 -288.891 241.101 -293.223 263.206 -293.156C285.311 -293.223 307.21 -288.891 327.634 -280.411C348.059 -271.93 366.604 -259.47 382.196 -243.752C397.865 -228.111 410.286 -209.508 418.739 -189.019C427.193 -168.53 431.511 -146.562 431.445 -124.388C431.512 -102.213 427.193 -80.2446 418.74 -59.7551C410.286 -39.2656 397.865 -20.6616 382.196 -5.01997C366.604 10.6984 348.059 23.1582 327.634 31.6384C307.21 40.1186 285.311 44.4507 263.206 44.3839ZM263.206 -292.37C218.81 -292.319 176.247 -274.605 144.854 -243.113C113.461 -211.621 95.8024 -168.924 95.7518 -124.388C95.8024 -79.8516 113.461 -37.1542 144.854 -5.66239C176.247 25.8294 218.81 43.5438 263.206 43.5945C307.603 43.5438 350.166 25.8294 381.559 -5.66239C412.952 -37.1542 430.611 -79.8516 430.661 -124.388C430.611 -168.924 412.952 -211.621 381.559 -243.113C350.166 -274.605 307.603 -292.319 263.206 -292.37Z" fill="#19369E"/>
</g>
<g style="mix-blend-mode:overlay">
<path d="M263.206 55.2055C239.69 55.2774 216.394 50.6694 194.666 41.6483C172.938 32.6272 153.209 19.3721 136.622 2.65053C119.954 -13.9891 106.741 -33.7799 97.7481 -55.5764C88.7553 -77.3729 84.1615 -100.742 84.2324 -124.332C84.1621 -147.921 88.7562 -171.289 97.7489 -193.085C106.742 -214.881 119.954 -234.671 136.622 -251.311C153.21 -268.031 172.939 -281.285 194.667 -290.306C216.395 -299.326 239.691 -303.934 263.206 -303.862C286.721 -303.934 310.016 -299.326 331.743 -290.305C353.471 -281.285 373.199 -268.031 389.786 -251.311C406.454 -234.672 419.667 -214.881 428.66 -193.085C437.653 -171.289 442.247 -147.921 442.176 -124.332C442.247 -100.742 437.653 -77.3729 428.66 -55.5764C419.668 -33.7799 406.455 -13.9891 389.786 2.65053C373.2 19.3719 353.472 32.6268 331.744 41.6479C310.016 50.669 286.721 55.2771 263.206 55.2055ZM263.206 -303.08C215.964 -303.026 170.672 -284.177 137.267 -250.667C103.861 -217.157 85.0701 -171.723 85.0161 -124.332C85.0693 -76.9404 103.86 -31.5053 137.265 2.00546C170.671 35.5162 215.963 54.366 263.206 54.4193C310.448 54.3652 355.739 35.515 389.144 2.00432C422.549 -31.5064 441.339 -76.9409 441.392 -124.332C441.338 -171.722 422.548 -217.156 389.143 -250.666C355.738 -284.176 310.447 -303.025 263.206 -303.08Z" fill="#19369E"/>
</g>
<g style="mix-blend-mode:overlay">
<path d="M263.211 106.611C232.958 106.703 202.988 100.774 175.035 89.1688C147.082 77.5632 121.701 60.5111 100.361 38.9994C78.9171 17.5926 61.9185 -7.86822 50.3493 -35.9095C38.7802 -63.9507 32.8702 -94.0154 32.9616 -124.363C32.8708 -154.711 38.7811 -184.775 50.3502 -212.815C61.9193 -240.856 78.9176 -266.316 100.361 -287.723C121.701 -309.234 147.082 -326.286 175.035 -337.892C202.988 -349.498 232.958 -355.426 263.211 -355.335C293.463 -355.426 323.434 -349.498 351.387 -337.892C379.34 -326.287 404.721 -309.235 426.061 -287.723C447.504 -266.316 464.502 -240.856 476.072 -212.815C487.641 -184.775 493.551 -154.711 493.46 -124.363C493.552 -94.0154 487.642 -63.9507 476.072 -35.9095C464.503 -7.86822 447.505 17.5926 426.061 38.9994C404.721 60.5112 379.34 77.5635 351.387 89.1691C323.434 100.775 293.463 106.703 263.211 106.611ZM263.211 -354.548C202.374 -354.48 144.049 -330.206 101.031 -287.053C58.0128 -243.9 33.8147 -185.391 33.7452 -124.363C33.8138 -63.3346 58.0116 -4.82521 101.03 38.3286C144.048 81.4824 202.374 105.756 263.211 105.825C324.047 105.756 382.372 81.4812 425.39 38.3275C468.407 -4.82624 492.605 -63.3352 492.673 -124.363C492.604 -185.391 468.406 -243.899 425.389 -287.052C382.371 -330.205 324.047 -354.479 263.211 -354.548Z" fill="#19369E"/>
</g>
<g style="mix-blend-mode:overlay">
<path d="M263.219 84.6987C235.84 84.7826 208.716 79.4176 183.417 68.9144C158.119 58.4111 135.148 42.9783 115.836 23.5092C96.4288 4.13596 81.0452 -18.9064 70.5755 -44.284C60.1058 -69.6616 54.758 -96.8704 54.8416 -124.335C54.7582 -151.8 60.1061 -179.008 70.5758 -204.385C81.0455 -229.762 96.429 -252.804 115.836 -272.176C135.148 -291.645 158.118 -307.078 183.416 -317.581C208.714 -328.084 235.837 -333.449 263.216 -333.366C290.594 -333.449 317.717 -328.084 343.015 -317.581C368.312 -307.077 391.281 -291.645 410.593 -272.176C430 -252.804 445.384 -229.762 455.855 -204.385C466.325 -179.008 471.673 -151.8 471.59 -124.335C471.674 -96.8701 466.325 -69.6612 455.855 -44.2836C445.385 -18.906 430 4.13623 410.593 23.5092C391.282 42.9772 368.313 58.4095 343.016 68.9128C317.719 79.416 290.597 84.7815 263.219 84.6987ZM263.219 -332.58C208.186 -332.514 155.427 -310.554 116.512 -271.517C77.5984 -232.48 55.7074 -179.554 55.6415 -124.348C55.6997 -69.1371 77.5873 -16.2035 116.502 22.8395C155.417 61.8824 208.181 83.8463 263.219 83.9126C318.252 83.8464 371.012 61.8865 409.926 22.8498C448.84 -16.1868 470.731 -69.1129 470.797 -124.319C470.739 -179.53 448.851 -232.464 409.936 -271.507C371.021 -310.55 318.257 -332.514 263.219 -332.58Z" fill="#19369E"/>
</g>
<g style="mix-blend-mode:overlay">
<path d="M263.208 11.1375C227.396 11.1005 193.061 -3.18621 167.738 -28.5879C142.414 -53.9895 128.17 -88.4313 128.13 -124.356C128.171 -160.278 142.414 -194.718 167.735 -220.119C193.057 -245.519 227.389 -259.807 263.198 -259.846C299.007 -259.806 333.338 -245.518 358.659 -220.117C383.98 -194.717 398.223 -160.278 398.263 -124.356C398.224 -88.4353 383.982 -53.9969 358.664 -28.5959C333.345 -3.1949 299.016 11.0945 263.208 11.1375ZM263.208 -259.06C227.606 -259.02 193.475 -244.815 168.3 -219.562C143.126 -194.309 128.965 -160.07 128.924 -124.356C128.964 -88.6418 143.125 -54.4019 168.299 -29.1482C193.474 -3.89439 227.606 10.3109 263.208 10.3513C298.809 10.3101 332.941 -3.89565 358.115 -29.1493C383.289 -54.403 397.449 -88.6424 397.489 -124.356C397.447 -160.068 383.286 -194.306 358.112 -219.558C332.939 -244.811 298.808 -259.019 263.208 -259.06Z" fill="#19369E"/>
</g>
<g style="mix-blend-mode:overlay">
<path d="M263.202 87.6378C235.438 87.7221 207.933 82.2816 182.28 71.6312C156.626 60.9808 133.333 45.332 113.749 25.5906C94.0695 5.94458 78.4699 -17.4219 67.8529 -43.1562C57.2359 -68.8906 51.8125 -96.4818 51.8966 -124.333C51.8128 -152.183 57.2363 -179.774 67.8533 -205.508C78.4702 -231.242 94.0697 -254.608 113.749 -274.253C133.333 -293.994 156.625 -309.643 182.278 -320.293C207.931 -330.944 235.435 -336.384 263.198 -336.3C290.962 -336.384 318.466 -330.944 344.119 -320.293C369.772 -309.643 393.064 -293.994 412.648 -274.253C432.327 -254.608 447.927 -231.242 458.544 -205.508C469.16 -179.774 474.584 -152.183 474.5 -124.333C474.584 -96.4818 469.161 -68.8906 458.544 -43.1562C447.927 -17.4219 432.327 5.94458 412.648 25.5906C393.064 45.3314 369.772 60.9798 344.12 71.6302C318.468 82.2806 290.964 87.7214 263.202 87.6378ZM263.202 -335.521C207.385 -335.46 153.872 -313.192 114.403 -273.6C74.9344 -234.009 52.7331 -180.328 52.6705 -124.336C52.7331 -68.3458 74.9331 -14.6667 114.4 24.9245C153.867 64.5157 207.377 86.7856 263.192 86.8484C319.006 86.7848 372.516 64.5146 411.983 24.9236C451.45 -14.6674 473.65 -68.3461 473.713 -124.336C473.65 -180.325 451.451 -234.002 411.986 -273.592C372.522 -313.183 319.014 -335.454 263.202 -335.521Z" fill="#19369E"/>
</g>
<g style="mix-blend-mode:overlay">
<path d="M263.211 27.3012C243.346 27.3618 223.666 23.4692 205.311 15.8488C186.956 8.22849 170.29 -2.96825 156.277 -17.0933C142.197 -31.1499 131.035 -47.8686 123.439 -66.2815C115.842 -84.6945 111.962 -104.436 112.022 -124.363C111.962 -144.29 115.843 -164.031 123.439 -182.444C131.036 -200.856 142.197 -217.574 156.277 -231.63C170.29 -245.755 186.956 -256.952 205.311 -264.573C223.666 -272.193 243.346 -276.085 263.211 -276.025C283.075 -276.085 302.754 -272.192 321.109 -264.572C339.463 -256.952 356.129 -245.755 370.141 -231.63C384.221 -217.574 395.383 -200.856 402.979 -182.444C410.576 -164.031 414.456 -144.29 414.396 -124.363C414.456 -104.436 410.576 -84.6945 402.98 -66.2815C395.383 -47.8686 384.222 -31.1499 370.141 -17.0933C356.129 -2.9685 339.463 8.22813 321.109 15.8485C302.754 23.4688 283.075 27.3615 263.211 27.3012ZM263.211 -275.239C223.336 -275.192 185.108 -259.281 156.912 -230.996C128.716 -202.712 112.854 -164.364 112.806 -124.363C112.853 -84.3625 128.714 -46.0134 156.911 -17.7284C185.107 10.5565 223.335 26.4678 263.211 26.5151C303.086 26.467 341.313 10.5553 369.509 -17.7296C397.704 -46.0145 413.565 -84.3631 413.612 -124.363C413.564 -164.363 397.703 -202.711 369.508 -230.995C341.312 -259.279 303.085 -275.191 263.211 -275.239Z" fill="#19369E"/>
</g>
<g style="mix-blend-mode:overlay">
<path d="M263.21 18.0229C244.565 18.079 226.095 14.4251 208.868 7.27259C191.64 0.120101 175.998 -10.3889 162.847 -23.6461C149.632 -36.8392 139.156 -52.5306 132.027 -69.8122C124.897 -87.0937 121.255 -105.622 121.312 -124.325C121.256 -143.027 124.898 -161.555 132.027 -178.836C139.157 -196.117 149.632 -211.808 162.847 -225.001C175.999 -238.257 191.641 -248.766 208.868 -255.918C226.095 -263.07 244.565 -266.723 263.21 -266.666C281.852 -266.721 300.319 -263.067 317.544 -255.916C334.769 -248.764 350.409 -238.256 363.559 -225.001C376.775 -211.808 387.251 -196.117 394.381 -178.836C401.511 -161.555 405.153 -143.028 405.098 -124.325C405.153 -105.622 401.511 -87.0934 394.381 -69.8119C387.251 -52.5304 376.775 -36.8391 363.559 -23.6461C350.409 -10.3903 334.77 0.117893 317.545 7.27034C300.32 14.4228 281.852 18.0775 263.21 18.0229ZM263.21 -265.88C225.797 -265.838 189.929 -250.911 163.474 -224.373C137.02 -197.836 122.138 -161.855 122.096 -124.325C122.138 -86.7942 137.018 -50.8127 163.473 -24.2745C189.928 2.26373 225.797 17.1914 263.21 17.2336C300.622 17.1906 336.49 2.2625 362.944 -24.2757C389.398 -50.8138 404.278 -86.7948 404.32 -124.325C404.277 -161.855 389.397 -197.835 362.943 -224.372C336.489 -250.91 300.621 -265.837 263.21 -265.88Z" fill="#19369E"/>
</g>
<g style="mix-blend-mode:overlay">
<path d="M263.202 28.9882C243.117 29.0494 223.22 25.1138 204.662 17.4093C186.104 9.70473 169.254 -1.61574 155.086 -15.8969C140.85 -30.1089 129.565 -47.0124 121.885 -65.6288C114.205 -84.2453 110.281 -104.205 110.342 -124.353C110.282 -144.5 114.205 -164.459 121.885 -183.075C129.566 -201.691 140.851 -218.594 155.086 -232.805C169.254 -247.086 186.104 -258.407 204.662 -266.111C223.22 -273.816 243.117 -277.752 263.202 -277.69C283.287 -277.752 303.185 -273.817 321.745 -266.113C340.304 -258.408 357.155 -247.087 371.323 -232.805C385.559 -218.594 396.844 -201.691 404.524 -183.075C412.205 -164.459 416.128 -144.5 416.068 -124.353C416.129 -104.205 412.205 -84.2453 404.525 -65.6288C396.845 -47.0124 385.56 -30.1089 371.323 -15.8969C357.155 -1.61496 340.304 9.70595 321.745 17.4105C303.185 25.1151 283.287 29.0503 263.202 28.9882ZM263.202 -276.904C222.883 -276.86 184.228 -260.773 155.718 -232.174C127.208 -203.575 111.171 -164.798 111.126 -124.353C111.17 -83.9064 127.207 -45.1294 155.717 -16.5296C184.227 12.0703 222.882 28.1574 263.202 28.2021C303.52 28.1565 342.175 12.0691 370.684 -16.5307C399.194 -45.1305 415.23 -83.907 415.274 -124.353C415.229 -164.798 399.192 -203.574 370.683 -232.173C342.174 -260.772 303.52 -276.859 263.202 -276.904Z" fill="#19369E"/>
</g>
</g>
<g opacity="0.5">
<g style="mix-blend-mode:overlay">
<path d="M-62.3802 169.552C-85.6659 169.622 -108.734 165.059 -130.25 156.126C-151.766 147.193 -171.302 134.068 -187.727 117.51C-204.232 101.033 -217.315 81.4353 -226.219 59.8518C-235.124 38.2683 -239.672 15.1275 -239.602 -8.23124C-239.672 -31.5889 -235.123 -54.7285 -226.218 -76.3109C-217.314 -97.8932 -204.231 -117.49 -187.727 -133.966C-171.302 -150.524 -151.766 -163.649 -130.25 -172.582C-108.734 -181.515 -85.6659 -186.078 -62.3802 -186.008C-39.0946 -186.078 -16.0262 -181.515 5.48958 -172.582C27.0054 -163.649 46.5412 -150.524 62.9663 -133.966C79.4721 -117.49 92.5561 -97.8931 101.461 -76.3101C110.366 -54.727 114.915 -31.5865 114.845 -8.22798C114.915 15.131 110.366 38.2721 101.461 59.8557C92.5565 81.4393 79.4723 101.037 62.9663 117.513C46.5409 134.071 27.005 147.195 5.48921 156.128C-16.0266 165.06 -39.0948 169.623 -62.3802 169.552ZM-62.3802 -185.225C-97.2771 -185.225 -131.39 -174.844 -160.406 -155.395C-189.422 -135.946 -212.037 -108.303 -225.391 -75.961C-238.745 -43.6189 -242.239 -8.03054 -235.431 26.3036C-228.623 60.6377 -211.818 92.1755 -187.142 116.929C-162.466 141.682 -131.027 158.539 -96.8002 165.368C-62.5738 172.197 -27.0972 168.692 5.14309 155.295C37.3834 141.898 64.9395 119.211 84.3267 90.1038C103.714 60.9964 114.061 26.7756 114.061 -8.23124C114.008 -55.1571 95.4013 -100.146 62.3236 -133.327C29.2459 -166.508 -15.6018 -185.172 -62.3802 -185.225Z" fill="#02135B"/>
</g>
<g style="mix-blend-mode:overlay">
<path d="M-62.39 160.494C-84.4949 160.561 -106.393 156.229 -126.818 147.749C-147.243 139.268 -165.788 126.808 -181.38 111.09C-197.049 95.4485 -209.47 76.8445 -217.923 56.355C-226.377 35.8655 -230.695 13.8974 -230.628 -8.27757C-230.695 -30.452 -226.377 -52.4195 -217.923 -72.9085C-209.469 -93.3974 -197.049 -112.001 -181.38 -127.642C-165.788 -143.36 -147.243 -155.82 -126.818 -164.3C-106.393 -172.781 -84.4949 -177.113 -62.39 -177.046C-40.2847 -177.113 -18.3858 -172.78 2.03934 -164.3C22.4645 -155.82 41.0101 -143.36 56.6028 -127.642C72.2706 -112 84.6904 -93.3965 93.1434 -72.9077C101.596 -52.4188 105.915 -30.4517 105.848 -8.27757C105.915 13.8971 101.597 35.8648 93.144 56.3543C84.691 76.8437 72.271 95.4479 56.6028 111.09C41.0101 126.808 22.4645 139.268 2.03934 147.748C-18.3858 156.229 -40.2847 160.561 -62.39 160.494ZM-62.39 -176.26C-95.5094 -176.26 -127.885 -166.408 -155.423 -147.95C-182.961 -129.492 -204.424 -103.256 -217.098 -72.5616C-229.772 -41.8668 -233.088 -8.09124 -226.627 24.4941C-220.166 57.0795 -204.217 87.011 -180.798 110.504C-157.379 133.996 -127.542 149.995 -95.0588 156.477C-62.5758 162.958 -28.9062 159.632 1.69209 146.918C32.2904 134.204 58.4433 112.673 76.8434 85.0483C95.2436 57.4238 105.065 24.9462 105.065 -8.27757C105.01 -52.8108 87.3491 -95.5041 55.9567 -126.992C24.5643 -158.481 -17.9966 -176.209 -62.39 -176.26Z" fill="#02135B"/>
</g>
<g style="mix-blend-mode:overlay">
<path d="M-62.3907 171.318C-85.9056 171.389 -109.201 166.781 -130.928 157.76C-152.656 148.739 -172.384 135.484 -188.971 118.763C-205.64 102.124 -218.853 82.3335 -227.846 60.5369C-236.839 38.7402 -241.433 15.3707 -241.361 -8.2189C-241.432 -31.808 -236.839 -55.1769 -227.846 -76.973C-218.853 -98.7691 -205.64 -118.559 -188.971 -135.198C-172.384 -151.919 -152.656 -165.173 -130.928 -174.194C-109.201 -183.215 -85.9056 -187.824 -62.3907 -187.753C-38.8754 -187.823 -15.5796 -183.215 6.14844 -174.194C27.8765 -165.173 47.6052 -151.919 64.1929 -135.198C80.8608 -118.559 94.0735 -98.7683 103.066 -76.9724C112.059 -55.1765 116.653 -31.8078 116.583 -8.2189C116.653 15.3705 112.059 38.7397 103.067 60.5362C94.0739 82.3327 80.8611 102.124 64.1929 118.763C47.6052 135.484 27.8765 148.738 6.14844 157.759C-15.5796 166.78 -38.8754 171.389 -62.3907 171.318ZM-62.3907 -186.967C-97.6326 -186.967 -132.083 -176.483 -161.386 -156.842C-190.688 -137.201 -213.527 -109.285 -227.014 -76.6227C-240.5 -43.9608 -244.029 -8.02062 -237.153 26.6531C-230.278 61.3267 -213.307 93.1766 -188.388 118.175C-163.468 143.173 -131.718 160.197 -97.1531 167.094C-62.5883 173.991 -26.761 170.452 5.79834 156.923C38.3577 143.394 66.1866 120.483 85.766 91.0881C105.345 61.6931 115.796 27.1341 115.796 -8.2189C115.742 -55.6091 96.9513 -101.043 63.5466 -134.553C30.1418 -168.063 -15.1493 -186.913 -62.3907 -186.967Z" fill="#02135B"/>
</g>
<g style="mix-blend-mode:overlay">
<path d="M-62.3856 222.721C-92.6377 222.813 -122.607 216.884 -150.56 205.278C-178.513 193.673 -203.893 176.621 -225.232 155.109C-246.677 133.703 -263.676 108.242 -275.245 80.2007C-286.814 52.1594 -292.724 22.0946 -292.632 -8.25338C-292.724 -38.6008 -286.814 -68.6651 -275.245 -96.7059C-263.675 -124.747 -246.677 -150.207 -225.232 -171.613C-203.893 -193.125 -178.513 -210.177 -150.56 -221.783C-122.608 -233.388 -92.6378 -239.317 -62.3856 -239.225C-32.133 -239.317 -2.16273 -233.388 25.7905 -221.782C53.7437 -210.177 79.1246 -193.125 100.464 -171.613C121.908 -150.207 138.906 -124.746 150.476 -96.7055C162.045 -68.6648 167.955 -38.6007 167.864 -8.25338C167.955 22.0944 162.045 52.159 150.475 80.2002C138.906 108.241 121.908 133.702 100.464 155.109C79.1242 176.621 53.7432 193.672 25.7901 205.278C-2.16306 216.884 -32.1332 222.812 -62.3856 222.721ZM-62.3856 -238.439C-107.77 -238.439 -152.135 -224.939 -189.871 -199.646C-227.607 -174.353 -257.019 -138.403 -274.387 -96.3409C-291.755 -54.2794 -296.299 -7.99586 -287.446 36.6566C-278.592 81.3091 -256.737 122.325 -224.646 154.518C-192.554 186.71 -151.667 208.634 -107.155 217.516C-62.6423 226.397 -16.5042 221.839 25.4253 204.416C67.3548 186.993 103.192 157.489 128.406 119.634C153.62 81.7789 167.077 37.2739 167.077 -8.25338C167.007 -69.2809 142.81 -127.789 99.7921 -170.942C56.7746 -214.095 -1.54974 -238.369 -62.3856 -238.439Z" fill="#02135B"/>
</g>
<g style="mix-blend-mode:overlay">
<path d="M-62.3774 200.809C-89.7562 200.892 -116.88 195.526 -142.177 185.023C-167.475 174.52 -190.445 159.087 -209.758 139.619C-229.164 120.246 -244.547 97.2033 -255.017 71.8258C-265.487 46.4482 -270.835 19.2396 -270.752 -8.22522C-270.832 -35.6868 -265.483 -62.8917 -255.013 -88.2657C-244.544 -113.64 -229.162 -136.679 -209.758 -156.05C-190.446 -175.521 -167.477 -190.957 -142.179 -201.463C-116.881 -211.969 -89.7573 -217.337 -62.3774 -217.256C-34.9974 -217.337 -7.87334 -211.969 17.4246 -201.463C42.7225 -190.957 65.6918 -175.522 85.0028 -156.05C104.409 -136.677 119.793 -113.635 130.263 -88.2585C140.733 -62.8816 146.082 -35.6735 146 -8.20897C146.081 19.2533 140.731 46.459 130.261 71.8335C119.791 97.2081 104.408 120.248 85.0028 139.619C65.6905 159.088 42.7206 174.52 17.4227 185.023C-7.87515 195.527 -34.9985 200.892 -62.3774 200.809ZM-62.3774 -216.47C-103.432 -216.467 -143.563 -204.251 -177.697 -181.369C-211.831 -158.486 -238.434 -125.963 -254.143 -87.9137C-269.851 -49.8641 -273.96 -7.99618 -265.948 32.3957C-257.937 72.7876 -238.166 109.889 -209.135 139.009C-180.104 168.13 -143.117 187.96 -102.852 195.993C-62.5859 204.027 -20.8498 199.902 17.0791 184.141C55.008 168.38 87.4263 141.691 110.234 107.447C133.043 73.2042 145.217 32.9454 145.217 -8.23821C145.151 -63.4477 123.259 -116.377 84.3409 -155.415C45.4233 -194.453 -7.34123 -216.408 -62.3774 -216.47Z" fill="#02135B"/>
</g>
<g style="mix-blend-mode:overlay">
<path d="M-62.395 127.25C-89.1089 127.25 -115.223 119.304 -137.435 104.416C-159.647 89.5275 -176.959 68.3663 -187.182 43.6081C-197.404 18.8499 -200.079 -8.39334 -194.868 -34.6765C-189.656 -60.9597 -176.792 -85.1023 -157.902 -104.051C-139.013 -123 -114.946 -135.905 -88.7454 -141.133C-62.5448 -146.361 -35.3871 -143.678 -10.7067 -133.423C13.9738 -123.168 35.0685 -105.801 49.91 -83.5192C64.7514 -61.2374 72.673 -35.0411 72.673 -8.24304C72.6327 27.6797 58.3895 62.1195 33.068 87.5207C7.74661 112.922 -26.5851 127.21 -62.395 127.25ZM-62.395 -142.947C-88.954 -142.947 -114.917 -135.047 -137 -120.245C-159.083 -105.443 -176.294 -84.404 -186.458 -59.7893C-196.621 -35.1746 -199.28 -8.08925 -194.099 18.0415C-188.917 44.1722 -176.127 68.1748 -157.347 87.0138C-138.567 105.853 -114.639 118.682 -88.5905 123.88C-62.5417 129.077 -35.5415 126.409 -11.0043 116.213C13.5329 106.016 34.505 88.7501 49.2599 66.5972C64.0149 44.4443 71.89 18.3997 71.8893 -8.24304C71.8482 -43.9567 57.6871 -78.1957 32.5127 -103.449C7.33837 -128.702 -26.7935 -142.907 -62.395 -142.947Z" fill="#02135B"/>
</g>
<g style="mix-blend-mode:overlay">
<path d="M-62.3948 203.748C-90.1579 203.832 -117.662 198.391 -143.315 187.741C-168.968 177.09 -192.26 161.442 -211.844 141.7C-231.524 122.055 -247.124 98.6885 -257.741 72.9541C-268.358 47.2196 -273.781 19.6281 -273.697 -8.22303C-273.781 -36.0737 -268.358 -63.6646 -257.741 -89.3985C-247.124 -115.132 -231.524 -138.498 -211.844 -158.143C-192.26 -177.884 -168.968 -193.533 -143.315 -204.183C-117.662 -214.834 -90.1579 -220.275 -62.3948 -220.19C-34.6313 -220.275 -7.12672 -214.834 18.5268 -204.184C44.1804 -193.533 67.4734 -177.885 87.0579 -158.143C106.737 -138.498 122.337 -115.132 132.954 -89.3982C143.571 -63.6643 148.994 -36.0736 148.91 -8.22303C148.994 19.6281 143.571 47.2193 132.954 72.9538C122.337 98.6882 106.737 122.055 87.0579 141.7C67.4734 161.442 44.1804 177.09 18.5268 187.741C-7.12672 198.391 -34.6313 203.832 -62.3948 203.748ZM-62.3948 -219.411C-104.032 -219.411 -144.734 -207.025 -179.354 -183.82C-213.974 -160.615 -240.957 -127.632 -256.891 -89.0431C-272.825 -50.4542 -276.994 -7.99201 -268.871 32.9738C-260.748 73.9396 -240.698 111.569 -211.256 141.104C-181.814 170.638 -144.303 190.752 -103.466 198.9C-62.6284 207.049 -20.2995 202.867 18.1682 186.883C56.636 170.899 89.5149 143.831 112.647 109.102C135.78 74.3725 148.127 33.5421 148.127 -8.22628C148.06 -64.2141 125.858 -117.889 86.3916 -157.478C46.9253 -197.066 -6.58281 -219.347 -62.3948 -219.411Z" fill="#02135B"/>
</g>
<g style="mix-blend-mode:overlay">
<path d="M-62.3922 108.341C-85.3733 108.341 -107.838 101.505 -126.947 88.6967C-146.055 75.8888 -160.948 57.6844 -169.742 36.3857C-178.537 15.087 -180.838 -8.34954 -176.354 -30.9601C-171.871 -53.5708 -160.805 -74.3399 -144.554 -90.6413C-128.304 -106.943 -107.6 -118.044 -85.0607 -122.542C-62.5211 -127.039 -39.1581 -124.731 -17.9263 -115.909C3.30558 -107.086 21.4528 -92.1464 34.2204 -72.978C46.9881 -53.8097 53.8028 -31.2738 53.8028 -8.22024C53.7685 22.6831 41.5156 52.3108 19.7322 74.1628C-2.05115 96.0148 -31.5859 108.306 -62.3922 108.341ZM-62.3922 -123.992C-85.2185 -123.992 -107.532 -117.202 -126.512 -104.48C-145.491 -91.7584 -160.283 -73.6766 -169.019 -52.5213C-177.754 -31.3661 -180.039 -8.08745 -175.586 14.3708C-171.132 36.829 -160.14 57.458 -143.999 73.6493C-127.858 89.8406 -107.294 100.867 -84.9058 105.334C-62.518 109.8 -39.3125 107.507 -18.2239 98.7441C2.86467 89.9808 20.8892 75.1412 33.5704 56.1017C46.2515 37.0622 53.0197 14.678 53.0191 -8.22024C52.9848 -38.9148 40.8143 -68.3422 19.1779 -90.0463C-2.45861 -111.75 -31.794 -123.958 -62.3922 -123.992Z" fill="#02135B"/>
</g>
<g style="mix-blend-mode:overlay">
<path d="M-62.3832 143.41C-82.2407 143.422 -101.906 139.507 -120.254 131.889C-138.602 124.271 -155.274 113.1 -169.315 99.0146C-183.357 84.9289 -194.493 68.205 -202.087 49.7989C-209.68 31.3929 -213.583 11.6659 -213.572 -8.25428C-213.583 -28.1741 -209.68 -47.9008 -202.086 -66.3065C-194.492 -84.7121 -183.355 -101.436 -169.314 -115.521C-155.273 -129.606 -138.601 -140.777 -120.253 -148.395C-101.905 -156.012 -82.2405 -159.927 -62.3832 -159.916C-42.5257 -159.928 -22.8607 -156.013 -4.51249 -148.396C13.8357 -140.778 30.5072 -129.607 44.5487 -115.522C58.5902 -101.437 69.7262 -84.7128 77.3201 -66.307C84.914 -47.9012 88.8168 -28.1743 88.8053 -8.25428C88.8172 11.666 84.9148 31.3932 77.3211 49.7994C69.7273 68.2057 58.5913 84.9298 44.5498 99.0155C30.5083 113.101 13.8367 124.272 -4.51174 131.89C-22.8602 139.508 -42.5255 143.422 -62.3832 143.41ZM-62.3832 -159.13C-92.1306 -159.13 -121.21 -150.281 -145.944 -133.702C-170.678 -117.123 -189.956 -93.5587 -201.339 -65.989C-212.723 -38.4194 -215.701 -8.08256 -209.898 21.1851C-204.094 50.4528 -189.769 77.3368 -168.734 98.4374C-147.699 119.538 -120.9 133.908 -91.7237 139.729C-62.5478 145.55 -32.3063 142.562 -4.82349 131.142C22.6593 119.722 46.1491 100.383 62.6754 75.5702C79.2017 50.758 88.0223 21.5868 88.0216 -8.25428C87.9736 -48.2547 72.1119 -86.6029 43.9159 -114.887C15.7198 -143.171 -22.5084 -159.082 -62.3832 -159.13Z" fill="#02135B"/>
</g>
<g style="mix-blend-mode:overlay">
<path d="M-62.3843 134.056C-81.0217 134.066 -99.4784 130.391 -116.699 123.241C-133.92 116.091 -149.567 105.606 -162.745 92.386C-175.924 79.1657 -186.375 63.4693 -193.502 46.1943C-200.63 28.9192 -204.293 10.4043 -204.282 -8.2918C-204.292 -26.9876 -200.629 -45.5022 -193.501 -62.7769C-186.374 -80.0515 -175.922 -95.7476 -162.744 -108.968C-149.565 -122.187 -133.919 -132.672 -116.698 -139.822C-99.4778 -146.972 -81.0214 -150.647 -62.3843 -150.636C-43.7469 -150.648 -25.2901 -146.973 -8.06932 -139.824C9.15149 -132.674 24.7986 -122.19 37.9772 -108.969C51.1558 -95.7493 61.6075 -80.0529 68.7346 -62.7779C75.8617 -45.5028 79.5244 -26.9879 79.5134 -8.2918C79.5249 10.4046 75.8624 28.9198 68.7355 46.1953C61.6086 63.4707 51.157 79.1675 37.9783 92.3879C24.7997 105.608 9.15246 116.093 -8.06857 123.243C-25.2896 130.393 -43.7466 134.067 -62.3843 134.056ZM-62.3843 -149.85C-90.294 -149.85 -117.577 -141.548 -140.783 -125.993C-163.989 -110.439 -182.076 -88.3303 -192.757 -62.4639C-203.437 -36.5975 -206.232 -8.13477 -200.787 19.3249C-195.342 46.7846 -181.902 72.0079 -162.167 91.8052C-142.432 111.603 -117.288 125.085 -89.9143 130.547C-62.5408 136.009 -34.1675 133.205 -8.38232 122.491C17.4029 111.777 39.4419 93.6331 54.9477 70.3539C70.4535 47.0747 78.7297 19.7058 78.7297 -8.2918C78.6877 -45.8225 63.8069 -81.804 37.352 -108.342C10.8971 -134.88 -24.9714 -149.808 -62.3843 -149.85Z" fill="#02135B"/>
</g>
<g style="mix-blend-mode:overlay">
<path d="M-62.3822 145.081C-82.4576 145.092 -102.338 141.133 -120.887 133.431C-139.437 125.729 -156.291 114.435 -170.486 100.195C-184.681 85.9544 -195.94 69.0473 -203.618 50.4396C-211.296 31.832 -215.242 11.8888 -215.232 -8.24981C-215.243 -28.3887 -211.297 -48.3322 -203.619 -66.9403C-195.942 -85.5483 -184.684 -102.456 -170.488 -116.696C-156.292 -130.936 -139.438 -142.23 -120.888 -149.932C-102.339 -157.634 -82.4578 -161.592 -62.3822 -161.581C-42.3068 -161.591 -22.4262 -157.632 -3.87703 -149.93C14.6722 -142.228 31.5263 -130.934 45.7217 -116.694C59.9171 -102.454 71.1756 -85.5469 78.8534 -66.9393C86.5312 -48.3316 90.4778 -28.3884 90.4676 -8.24981C90.4769 11.8886 86.5298 31.8314 78.8517 50.4386C71.1736 69.0459 59.9151 85.9527 45.7198 100.193C31.5245 114.433 14.6708 125.727 -3.87803 133.429C-22.4268 141.131 -42.307 145.091 -62.3822 145.081ZM-62.3822 -160.811C-92.4601 -160.811 -121.862 -151.864 -146.871 -135.101C-171.88 -118.338 -191.372 -94.5117 -202.882 -66.6358C-214.392 -38.7598 -217.404 -8.08597 -211.536 21.5069C-205.667 51.0997 -191.183 78.2824 -169.915 99.6174C-148.646 120.952 -121.549 135.482 -92.0487 141.368C-62.5487 147.254 -31.9712 144.232 -4.18304 132.685C23.6051 121.138 47.3559 101.584 64.0658 76.4963C80.7757 51.4083 89.6943 21.9131 89.6936 -8.25955C89.6482 -48.7053 73.6113 -87.4814 45.1013 -116.081C16.5913 -144.68 -22.0634 -160.766 -62.3822 -160.811Z" fill="#02135B"/>
</g>
<g style="mix-blend-mode:overlay">
<path d="M-62.3838 110.657C-85.8357 110.657 -108.761 103.681 -128.261 90.6109C-147.76 77.5406 -162.958 58.9634 -171.933 37.2284C-180.908 15.4934 -183.256 -8.42325 -178.681 -31.497C-174.105 -54.5708 -162.812 -75.7654 -146.229 -92.4007C-129.646 -109.036 -108.518 -120.365 -85.5167 -124.954C-62.5153 -129.544 -38.6738 -127.188 -17.0071 -118.186C4.65971 -109.183 23.1786 -93.9366 36.2078 -74.3756C49.237 -54.8146 56.1913 -31.8171 56.1913 -8.2913C56.1562 23.245 43.6522 53.4796 21.4227 75.7792C-0.806874 98.0787 -30.9465 110.622 -62.3838 110.657ZM-62.3838 -126.451C-85.681 -126.451 -108.455 -119.522 -127.826 -106.538C-147.198 -93.5543 -162.296 -75.0999 -171.212 -53.5084C-180.127 -31.9169 -182.46 -8.15806 -177.915 14.7635C-173.37 37.6851 -162.152 58.7399 -145.678 75.2654C-129.205 91.791 -108.216 103.045 -85.3662 107.604C-62.5166 112.163 -38.8324 109.823 -17.3087 100.879C4.21499 91.9354 22.6115 76.7897 35.5543 57.3575C48.4972 37.9253 55.4051 15.0793 55.4044 -8.2913C55.3693 -39.6183 42.9482 -69.652 20.8662 -91.8036C-1.21574 -113.955 -31.1552 -126.415 -62.3838 -126.451Z" fill="#02135B"/>
</g>
<g style="mix-blend-mode:overlay">
<path d="M-62.3782 98.6928C-83.4623 98.6928 -104.073 92.4209 -121.604 80.6703C-139.134 68.9198 -152.798 52.2182 -160.866 32.6777C-168.935 13.1372 -171.046 -8.36462 -166.933 -29.1087C-162.82 -49.8528 -152.667 -68.9075 -137.758 -83.8631C-122.849 -98.8188 -103.854 -109.004 -83.1754 -113.13C-62.4964 -117.256 -41.0621 -115.138 -21.583 -107.045C-2.10385 -98.9506 14.5453 -85.244 26.2589 -67.658C37.9726 -50.072 44.2248 -29.3965 44.2248 -8.246C44.1931 20.1062 32.9515 47.288 12.9665 67.336C-7.01859 87.384 -34.115 98.661 -62.3782 98.6928ZM-62.3782 -114.395C-83.3074 -114.395 -103.767 -108.17 -121.169 -96.5052C-138.571 -84.8409 -152.134 -68.2619 -160.143 -48.8648C-168.152 -29.4678 -170.247 -8.12389 -166.164 12.4678C-162.081 33.0595 -152.002 51.9741 -137.203 66.8196C-122.403 81.6652 -103.548 91.775 -83.0205 95.8706C-62.4934 99.9661 -41.2165 97.8635 -21.8806 89.8286C-2.54476 81.7936 13.9817 68.1873 25.6089 50.7301C37.2361 33.273 43.4417 12.7491 43.4411 -8.246C43.4094 -36.3894 32.2503 -63.3709 12.4121 -83.2709C-7.42605 -103.171 -34.3232 -114.364 -62.3782 -114.395Z" fill="#02135B"/>
</g>
<g style="mix-blend-mode:overlay">
<path d="M-62.3878 104.582C-84.6389 104.582 -106.39 97.9632 -124.891 85.5623C-143.392 73.1613 -157.812 55.5354 -166.327 34.9133C-174.842 14.2913 -177.07 -8.40058 -172.729 -30.2928C-168.388 -52.185 -157.673 -72.2944 -141.94 -88.0778C-126.206 -103.861 -106.16 -114.61 -84.3361 -118.964C-62.5126 -123.319 -39.892 -121.084 -19.3347 -112.542C1.22257 -104 18.7932 -89.5351 31.1552 -70.9757C43.5172 -52.4164 50.1154 -30.5965 50.1154 -8.27539C50.082 21.646 38.2183 50.3323 17.127 71.49C-3.96416 92.6476 -32.5604 104.549 -62.3878 104.582ZM-62.3878 -120.344C-84.4845 -120.344 -106.085 -113.771 -124.458 -101.456C-142.83 -89.1407 -157.15 -71.637 -165.606 -51.158C-174.062 -30.6791 -176.275 -8.14456 -171.964 13.5958C-167.653 35.3362 -157.012 55.306 -141.388 70.9799C-125.763 86.6538 -105.856 97.3279 -84.1839 101.652C-62.5118 105.977 -40.048 103.757 -19.6334 95.2746C0.7813 86.792 18.23 72.4271 30.5063 53.9965C42.7825 35.5659 49.335 13.8974 49.335 -8.26889C49.3032 -37.9832 37.5223 -66.4714 16.5771 -87.4825C-4.36814 -108.494 -32.7668 -120.312 -62.3878 -120.344Z" fill="#02135B"/>
</g>
<g style="mix-blend-mode:overlay">
<path d="M-62.394 96.3214C-83.0176 96.3214 -103.178 90.1866 -120.326 78.6926C-137.474 67.1987 -150.839 50.8619 -158.731 31.7482C-166.624 12.6345 -168.689 -8.39768 -164.665 -28.6887C-160.642 -48.9797 -150.71 -67.6182 -136.127 -82.2472C-121.544 -96.8762 -102.964 -106.839 -82.737 -110.875C-62.5097 -114.911 -41.5436 -112.839 -22.4899 -104.922C-3.43619 -97.0051 12.8493 -83.5979 24.3071 -66.396C35.765 -49.1941 41.8806 -28.9702 41.8806 -8.28164C41.8489 19.4511 30.8526 46.0388 11.3042 65.6488C-8.24419 85.2587 -34.7484 96.2896 -62.394 96.3214ZM-62.394 -112.102C-82.8626 -112.102 -102.872 -106.013 -119.891 -94.6055C-136.91 -83.198 -150.174 -66.984 -158.007 -48.0139C-165.84 -29.0438 -167.89 -8.16973 -163.896 11.9688C-159.903 32.1073 -150.047 50.6057 -135.573 65.1248C-121.1 79.6438 -102.659 89.5314 -82.5841 93.5372C-62.5088 97.543 -41.7003 95.4871 -22.7898 87.6295C-3.87929 79.7718 12.2838 66.4653 23.6555 49.3927C35.0273 32.3201 41.0969 12.2482 41.0969 -8.28489C41.0609 -35.8078 30.1459 -62.193 10.7454 -81.6547C-8.65516 -101.116 -34.9576 -112.066 -62.394 -112.102Z" fill="#02135B"/>
</g>
<g style="mix-blend-mode:overlay">
<path d="M-62.3822 87.4229C-81.2451 87.4229 -99.6843 81.8117 -115.368 71.2991C-131.052 60.7864 -143.276 45.8444 -150.495 28.3624C-157.713 10.8805 -159.602 -8.3561 -155.922 -26.9148C-152.242 -45.4735 -143.159 -62.5208 -129.821 -75.9009C-116.483 -89.281 -99.4889 -98.3929 -80.9884 -102.084C-62.488 -105.776 -43.3118 -103.881 -25.8847 -96.6401C-8.45772 -89.3989 6.43741 -77.1363 16.9171 -61.403C27.3967 -45.6696 32.9902 -27.1723 32.9902 -8.24998C32.9619 17.1153 22.9047 41.4336 5.02505 59.3696C-12.8546 77.3056 -37.0965 87.3945 -62.3822 87.4229ZM-62.3822 -103.133C-81.0903 -103.134 -99.3786 -97.5695 -114.934 -87.1435C-130.49 -76.7174 -142.614 -61.8982 -149.773 -44.5598C-156.933 -27.2214 -158.806 -8.14257 -155.157 10.264C-151.507 28.6705 -142.498 45.578 -129.27 58.8483C-116.041 72.1186 -99.1867 81.1558 -80.838 84.8169C-62.4893 88.478 -43.4704 86.5987 -26.1864 79.4165C-8.90243 72.2344 5.87028 60.072 16.2636 44.4675C26.6569 28.8629 32.2039 10.5171 32.2033 -8.24998C32.1716 -33.404 22.1959 -57.5185 4.46425 -75.3041C-13.2674 -93.0898 -37.3072 -103.104 -62.3822 -103.133Z" fill="#02135B"/>
</g>
<g style="mix-blend-mode:overlay">
<path d="M-62.3818 64.7807C-76.7843 64.7807 -90.8634 60.4964 -102.839 52.4695C-114.814 44.4427 -124.148 33.0338 -129.659 19.6857C-135.171 6.33755 -136.613 -8.35036 -133.803 -22.5207C-130.993 -36.691 -124.058 -49.7072 -113.874 -59.9235C-103.69 -70.1397 -90.7142 -77.097 -76.5884 -79.9157C-62.4626 -82.7343 -47.8208 -81.2877 -34.5145 -75.7587C-21.2083 -70.2297 -9.83529 -60.8667 -1.83366 -48.8537C6.16797 -36.8407 10.4388 -22.7172 10.4388 -8.26932C10.4174 11.0981 2.73836 29.6662 -10.9135 43.3611C-24.5654 57.0559 -43.0751 64.7592 -62.3818 64.7807ZM-62.3818 -80.5299C-76.6296 -80.5305 -90.5576 -76.2928 -102.405 -68.3526C-114.251 -60.4124 -123.485 -49.1264 -128.938 -35.9217C-134.391 -22.7171 -135.817 -8.18701 -133.038 5.83111C-130.258 19.8492 -123.398 32.7257 -113.323 42.8322C-103.248 52.9387 -90.412 59.8212 -76.4379 62.6094C-62.4638 65.3976 -47.9793 63.9663 -34.8162 58.4964C-21.653 53.0265 -10.4024 43.7638 -2.48716 31.8795C5.42811 19.9953 9.65254 6.02339 9.6519 -8.26932C9.62961 -27.4272 2.03322 -45.7939 -11.4709 -59.3406C-24.975 -72.8872 -43.2841 -80.5076 -62.3818 -80.5299Z" fill="#02135B"/>
</g>
<g style="mix-blend-mode:overlay">
<path d="M-62.3804 66.482C-77.1069 66.4826 -91.5029 62.1026 -103.748 53.8959C-115.993 45.6891 -125.537 34.0241 -131.173 20.3761C-136.81 6.728 -138.285 -8.29018 -135.413 -22.7794C-132.541 -37.2686 -125.45 -50.5781 -115.038 -61.0247C-104.625 -71.4714 -91.3584 -78.5862 -76.9151 -81.4692C-62.4718 -84.3523 -47.5005 -82.8742 -33.8946 -77.2219C-20.2887 -71.5696 -8.65909 -61.997 -0.476482 -49.7144C7.70612 -37.4319 12.0743 -22.9911 12.0755 -8.21824C12.055 11.5855 4.20423 30.5723 -9.75424 44.5766C-23.7127 58.5808 -42.6389 66.4588 -62.3804 66.482ZM-62.3804 -82.1161C-76.9514 -82.1161 -91.1952 -77.7817 -103.311 -69.661C-115.426 -61.5402 -124.869 -49.998 -130.445 -36.4937C-136.021 -22.9895 -137.48 -8.12976 -134.637 6.20628C-131.794 20.5423 -124.778 33.7108 -114.475 44.0465C-104.171 54.3822 -91.0442 61.4209 -76.7532 64.2726C-62.4622 67.1242 -47.6491 65.6606 -34.1873 60.067C-20.7254 54.4733 -9.21938 45.0008 -1.12416 32.8473C6.97105 20.6938 11.2919 6.40516 11.2919 -8.21174C11.2713 -27.8067 3.50301 -46.5932 -10.3086 -60.4495C-24.1202 -74.3058 -42.847 -82.0937 -62.3804 -82.1161Z" fill="#02135B"/>
</g>
</g>
</g>
</g>
<path d="M143.347 49.9387C136.348 49.9314 129.422 51.3678 123.002 54.1582C116.583 56.9486 110.808 61.0331 106.038 66.1564L104.206 68.3876C102.155 70.8449 100.421 73.5495 99.0436 76.4381C94.7125 85.6504 92.3942 95.6799 92.2431 105.858L92.133 112.782C91.0367 117.046 88.9258 120.981 85.9801 124.252C83.0349 127.095 79.5289 129.291 75.6864 130.701C71.8439 132.111 67.7494 132.704 63.6647 132.442C58.7197 132.263 53.8868 130.919 49.5584 128.521C45.23 126.123 41.5283 122.738 38.7537 118.641C35.9792 114.544 34.2101 109.85 33.5901 104.941C32.9702 100.032 33.5169 95.0454 35.1858 90.3871C36.8547 85.7288 39.5988 81.5298 43.1952 78.1311C46.7915 74.7324 51.1388 72.2299 55.884 70.8267C60.6291 69.4236 65.6383 69.1594 70.5047 70.0556C75.3711 70.9518 79.9575 72.9832 83.8914 75.9847L83.9497 76.5093L95.3584 60.2853C87.4496 54.3013 77.9693 50.7501 68.0755 50.0654C58.1817 49.3807 48.3027 51.5922 39.645 56.4298C30.9874 61.2674 23.926 68.5216 19.3234 77.3063C14.7207 86.0911 12.776 96.0261 13.7269 105.898C14.6777 115.77 18.483 125.151 24.6777 132.896C30.8725 140.64 39.1887 146.413 48.6105 149.51C58.0323 152.606 68.1518 152.891 77.7331 150.33C87.3143 147.77 95.9425 142.474 102.564 135.091L103.953 133.469L186.093 73.0605C181.456 65.9534 175.117 60.1163 167.653 56.0787C160.188 52.0411 151.834 49.9307 143.347 49.9387ZM111.761 105.761C110.967 100.352 111.582 94.6921 113.588 89.6058C115.595 84.5195 118.9 80.0482 123.173 76.6376C127.447 73.227 132.54 70.9963 137.945 70.1681C143.349 69.3399 148.877 69.943 153.976 71.9174L155.151 72.3707L111.761 105.761Z" fill="url(#paint0_linear_230_3)"/>
<path d="M186.886 138.391L182.223 134.088C177.785 139.3 172.345 143.567 166.225 146.634C160.105 149.701 153.43 151.506 146.599 151.941C139.767 152.376 132.917 151.432 126.458 149.166C119.998 146.9 114.06 143.358 108.997 138.751L124.169 126.053C127.045 129.127 130.611 131.474 134.572 132.899C138.533 134.324 142.777 134.786 146.952 134.248C151.127 133.711 155.115 132.188 158.586 129.806C162.057 127.424 164.912 124.251 166.915 120.548L167.132 120.163L162.252 115.661L185.934 114.69L186.886 138.391Z" fill="url(#paint1_linear_230_3)"/>
<mask id="mask2_230_3" style="mask-type:luminance" maskUnits="userSpaceOnUse" x="108" y="119" width="75" height="34">
<path d="M182.453 133.83C178.032 139.096 172.593 143.415 166.462 146.527C160.332 149.639 153.635 151.481 146.775 151.941C139.915 152.401 133.032 151.471 126.541 149.206C120.049 146.94 114.082 143.387 108.997 138.758L124.169 126.061C127.045 129.135 130.611 131.481 134.572 132.906C138.533 134.331 142.777 134.794 146.952 134.256C151.127 133.718 155.115 132.196 158.586 129.813C162.057 127.431 164.912 124.258 166.915 120.556L167.265 119.908L182.453 133.83Z" fill="white"/>
</mask>
<g mask="url(#mask2_230_3)">
<path d="M132.66 128.722L116.469 150.419L145.614 158.838L178.321 146.533L157.919 127.103L132.66 128.722Z" fill="url(#paint2_linear_230_3)"/>
<path d="M145.673 128.526L146.217 144.763L143.776 128.688L145.673 128.526ZM140.11 145.148L139.462 145.741L139.232 152.327L140.469 152.379L140.699 145.786L140.11 145.148ZM151.444 144.636L150.955 145.349L152.092 151.848L153.303 151.638L152.169 145.138L151.444 144.636ZM161.703 141.615L161.379 142.428L164.051 148.464L165.181 147.965L162.519 141.929L161.703 141.615ZM129.352 142.936L128.559 143.315L126.272 149.504L127.432 149.931L129.718 143.743L129.352 142.936Z" fill="white"/>
</g>
<mask id="mask3_230_3" style="mask-type:luminance" maskUnits="userSpaceOnUse" x="13" y="49" width="174" height="104">
<path d="M143.347 49.9387C136.348 49.9314 129.422 51.3678 123.002 54.1582C116.583 56.9486 110.808 61.0331 106.038 66.1564L104.206 68.3876C102.155 70.8449 100.421 73.5495 99.0436 76.4381C94.7125 85.6504 92.3942 95.6799 92.2431 105.858L92.133 112.782C91.0367 117.046 88.9258 120.981 85.9801 124.252C83.0349 127.095 79.5289 129.291 75.6864 130.701C71.8439 132.111 67.7494 132.704 63.6647 132.442C58.7197 132.263 53.8868 130.919 49.5584 128.521C45.23 126.123 41.5283 122.738 38.7537 118.641C35.9792 114.544 34.2101 109.85 33.5901 104.941C32.9702 100.032 33.5169 95.0454 35.1858 90.3871C36.8547 85.7288 39.5988 81.5298 43.1952 78.1311C46.7915 74.7324 51.1388 72.2299 55.884 70.8267C60.6291 69.4236 65.6383 69.1594 70.5047 70.0556C75.3711 70.9518 79.9575 72.9832 83.8914 75.9847L83.9497 76.5093L95.3584 60.2853C87.4496 54.3013 77.9693 50.7501 68.0755 50.0654C58.1817 49.3807 48.3027 51.5922 39.645 56.4298C30.9874 61.2674 23.926 68.5216 19.3234 77.3063C14.7207 86.0911 12.776 96.0261 13.7269 105.898C14.6777 115.77 18.483 125.151 24.6777 132.896C30.8725 140.64 39.1887 146.413 48.6105 149.51C58.0323 152.606 68.1518 152.891 77.7331 150.33C87.3143 147.77 95.9425 142.474 102.564 135.091L103.953 133.469L186.093 73.0605C181.456 65.9534 175.117 60.1163 167.653 56.0787C160.188 52.0411 151.834 49.9307 143.347 49.9387ZM111.761 105.761C110.967 100.352 111.582 94.6921 113.588 89.6058C115.595 84.5195 118.9 80.0482 123.173 76.6376C127.447 73.227 132.54 70.9963 137.945 70.1681C143.349 69.3399 148.877 69.943 153.976 71.9174L155.151 72.3707L111.761 105.761Z" fill="white"/>
</mask>
<g mask="url(#mask3_230_3)">
<path d="M153.907 160.155C189.472 160.155 218.304 131.323 218.304 95.757C218.304 60.1912 189.472 31.3594 153.907 31.3594C118.341 31.3594 89.5089 60.1912 89.5089 95.757C89.5089 131.323 118.341 160.155 153.907 160.155Z" fill="url(#paint3_linear_230_3)"/>
</g>
<path d="M101 201C156.228 201 201 156.229 201 101C201 45.7715 156.228 1 101 1C45.7715 1 1 45.7715 1 101C1 156.229 45.7715 201 101 201Z" stroke="white" stroke-width="0.015" stroke-miterlimit="10"/>
<defs>
<linearGradient id="paint0_linear_230_3" x1="13.4931" y1="100.998" x2="93.166" y2="100.998" gradientUnits="userSpaceOnUse">
<stop stop-color="#87F2FF"/>
<stop offset="1" stop-color="#0093FF"/>
</linearGradient>
<linearGradient id="paint1_linear_230_3" x1="108.997" y1="133.375" x2="186.886" y2="133.375" gradientUnits="userSpaceOnUse">
<stop stop-color="#ECAC1A"/>
<stop offset="0.31985" stop-color="#E7BA1E"/>
<stop offset="0.68015" stop-color="#FFE864"/>
<stop offset="1" stop-color="#F5C635"/>
</linearGradient>
<linearGradient id="paint2_linear_230_3" x1="116.41" y1="142.964" x2="178.373" y2="142.964" gradientUnits="userSpaceOnUse">
<stop stop-color="#B46A11"/>
<stop offset="0.31985" stop-color="#D68D15"/>
<stop offset="0.68015" stop-color="#E7AC18"/>
<stop offset="1" stop-color="#F8C73D"/>
</linearGradient>
<linearGradient id="paint3_linear_230_3" x1="89.5089" y1="95.757" x2="218.301" y2="95.757" gradientUnits="userSpaceOnUse">
<stop stop-color="#DA9917"/>
<stop offset="0.31985" stop-color="#FFCF25"/>
<stop offset="0.68015" stop-color="#FFFF90"/>
<stop offset="1" stop-color="#ECBF26"/>
</linearGradient>
</defs>
</svg>
