<?xml version="1.0" encoding="UTF-8" standalone="no"?>
<!-- Generator: Adobe Illustrator 23.1.0, SVG Export Plug-In . SVG Version: 6.00 Build 0)  -->

<svg
   version="1.1"
   id="Layer_1"
   x="0px"
   y="0px"
   viewBox="0 0 512 512"
   style="enable-background:new 0 0 512 512;"
   xml:space="preserve"
   sodipodi:docname="into.svg"
   inkscape:version="1.3.2 (091e20e, 2023-11-25)"
   xmlns:inkscape="http://www.inkscape.org/namespaces/inkscape"
   xmlns:sodipodi="http://sodipodi.sourceforge.net/DTD/sodipodi-0.dtd"
   xmlns="http://www.w3.org/2000/svg"
   xmlns:svg="http://www.w3.org/2000/svg"><defs
   id="defs9" /><sodipodi:namedview
   id="namedview9"
   pagecolor="#ffffff"
   bordercolor="#000000"
   borderopacity="0.25"
   inkscape:showpageshadow="2"
   inkscape:pageopacity="0.0"
   inkscape:pagecheckerboard="0"
   inkscape:deskcolor="#d1d1d1"
   inkscape:zoom="0.62868749"
   inkscape:cx="197.23631"
   inkscape:cy="300.62631"
   inkscape:window-width="1392"
   inkscape:window-height="1027"
   inkscape:window-x="234"
   inkscape:window-y="25"
   inkscape:window-maximized="0"
   inkscape:current-layer="Layer_1" />
<style
   type="text/css"
   id="style1">
	.st0{fill:#BDE3F4;}
	.st1{fill:#2477D1;}
	.st2{fill:#3873F9;}
	.st3{fill:#AEE1F9;}
	.st4{fill:#BFE7FB;}
	.st5{fill:#B7E2E0;}
</style>
<path
   class="st0"
   d="m 472.57851,100.48541 c -12.45387,-21.108159 -44.11599,-15.408975 -48.54869,8.54869 -12.55926,67.96814 -54.14224,164.53772 -184.48484,164.53772 -66.17397,0 -119.99961,53.82579 -119.99961,119.99963 0,48.65422 44.96022,113.87828 119.99961,113.87828 149.23426,0 270.1838,-120.94939 270.1838,-270.18379 0.10552,-49.81519 -13.50918,-96.67513 -37.15027,-136.78053 z"
   id="path1"
   style="stroke-width:1.05545" />
<path
   class="st1"
   d="m 270.46825,240.11555 c 66.17398,0 119.99962,-53.82565 119.99962,-119.99962 C 390.46787,71.461701 364.39944,6.2376374 270.46825,6.2376374 121.234,6.2376374 0.28446149,127.18719 0.28446149,276.42143 c 0,48.12657 12.55932951,93.29786 34.61730951,132.4535 12.242696,21.63572 44.960273,16.1477 48.865282,-8.33777 C 94.53224,332.78008 134.53211,240.11555 270.46825,240.11555 Z"
   id="path2"
   style="stroke-width:1.05545" />
<path
   class="st2"
   d="m 314.68976,123.28214 c 30.71235,0 55.09216,6.01579 74.30054,15.93665 0.94991,-6.22686 1.47757,-12.5594 1.47757,-19.10286 C 390.46787,71.461701 364.39944,6.2376374 270.46825,6.2376374 121.234,6.2376374 0.28446149,127.18719 0.28446149,276.42143 c 0,26.17411 3.69392081,51.60937 10.65959751,75.56704 C 49.149743,220.1683 170.94353,123.28214 314.68976,123.28214 Z"
   id="path3"
   style="stroke-width:1.05545" />
<path
   class="st3"
   d="m 314.68976,123.28214 c 0,24.3798 -19.73603,44.2215 -44.22151,44.2215 -24.48533,0 -44.22138,-19.73603 -44.22138,-44.2215 0,-24.485498 19.73605,-44.221509 44.22138,-44.221509 24.48548,0 44.22151,19.84168 44.22151,44.221509 z"
   id="path4"
   style="stroke-width:1.05545" />
<path
   class="st4"
   d="m 270.46825,79.060631 c -24.37981,0 -44.22138,19.736011 -44.22138,44.221509 0,4.22163 0.63318,8.23221 1.68863,12.13713 27.546,-7.9155 56.67525,-12.13713 86.64874,-12.13713 0.10552,-24.379829 -19.63051,-44.221509 -44.11599,-44.221509 z"
   id="path5"
   style="stroke-width:1.05545" />
<path
   class="st3"
   d="M 499.06921,161.80443 C 460.96903,293.6246 339.17525,390.51078 195.429,390.51078 c -30.71235,0 -55.09215,-6.0158 -74.30054,-15.93653 -0.94991,6.22688 -1.47757,12.55926 -1.47757,19.10287 0,48.65408 44.96024,113.87814 119.99963,113.87814 149.23425,0 270.18378,-120.94939 270.18378,-270.18379 0,-41.58297 -10.76509,-75.56704 -10.76509,-75.56704 z"
   id="path6"
   style="stroke-width:1.05545" />
<path
   class="st5"
   d="m 283.76637,390.51078 c 0,24.37995 -19.73605,44.22151 -44.22139,44.22151 -24.48547,0 -44.22151,-19.73603 -44.22151,-44.22151 0,-24.48534 19.73604,-44.22138 44.22151,-44.22138 24.48534,0 44.22139,19.84158 44.22139,44.22138 z"
   id="path7"
   style="stroke-width:1.05545" />
<path
   class="st2"
   d="m 283.76637,390.51078 c 0,24.37995 -19.73605,44.22151 -44.22139,44.22151 -24.48547,0 -44.22151,-19.73603 -44.22151,-44.22151 0,-24.48534 19.73604,-44.22138 44.22151,-44.22138 24.48534,0 44.22139,19.84158 44.22139,44.22138 z"
   id="path8"
   style="stroke-width:1.05545" />
<path
   class="st1"
   d="m 239.65052,434.73229 c 24.3798,0 44.22137,-19.73603 44.22137,-44.22151 0,-4.22151 -0.63318,-8.23209 -1.68863,-12.13715 -27.546,7.91564 -56.67524,12.13715 -86.64874,12.13715 -0.10552,24.37995 19.63052,44.22151 44.116,44.22151 z"
   id="path9"
   style="stroke-width:1.05545" />
</svg>
