<svg width="1299" height="1299" viewBox="0 -229 1299 1299" fill="none" xmlns="http://www.w3.org/2000/svg">
<path d="M614.666 490.64L649.651 533.181L684.076 491.2L809.463 420.391L684.916 350.142L649.651 307.601L615.506 349.583L490.12 420.391L614.666 490.64Z" fill="#4CB1DF"/>
<path d="M982.092 192.004C1085.37 181.929 1172.69 155.62 1199.84 114.478L767.984 6.72588C683.46 -11.746 633.082 8.12526 539.322 62.7012C530.645 67.7389 465.713 116.997 427.649 149.463C395.183 177.171 365.796 202.359 365.796 202.359C340.887 225.869 329.411 247.699 322.694 294.719L296.106 352.373C292.747 359.65 291.348 368.046 292.187 376.163L293.587 390.996C293.587 390.996 478.588 212.435 647.915 212.435C785.057 212.435 932.833 337.54 983.772 384.839C996.086 396.314 1012.32 402.751 1029.11 402.751H1298.08L982.932 192.284L982.092 192.004Z" fill="#4CB1DF"/>
<path d="M1004.49 449.976C1004.49 449.976 819.49 628.538 650.162 628.538C513.021 628.538 365.244 503.433 314.306 456.134C301.991 444.659 285.758 438.222 268.965 438.222H0L315.145 648.689C211.87 658.764 124.547 685.073 97.3986 726.215L529.534 833.967C614.058 852.439 664.436 832.568 758.196 777.992C766.872 772.954 831.804 723.696 869.868 691.23C902.334 663.522 931.722 638.333 931.722 638.333C956.631 614.824 968.106 592.993 974.823 545.974L1001.41 488.32C1004.77 481.043 1006.17 472.646 1005.33 464.53L1003.93 449.697L1004.49 449.976Z" fill="#4CB1DF"/>
</svg>
