<svg width="256" height="256" viewBox="0 0 256 256" fill="none" xmlns="http://www.w3.org/2000/svg">
<g clip-path="url(#clip0_53_2)">
<rect width="256" height="256" rx="128" fill="url(#paint0_linear_53_2)"/>
<path d="M167.408 134.83C167.794 132.614 168 130.336 168 128.006C168 105.947 150.044 88 127.993 88C111.453 88 97.2226 98.0876 91.1337 112.439H109.037C113.546 106.946 120.351 103.426 127.993 103.426C138.538 103.426 147.514 110.109 151.009 119.441H111.837H88.9261C88.3223 122.194 88 125.062 88 127.994C88 150.051 105.956 168 128.018 168C143.971 168 157.776 158.603 164.198 145.071H145.652C141.183 149.693 134.942 152.574 128.018 152.574C116.833 152.574 107.393 145.059 104.426 134.817H151.625H167.447L167.408 134.83Z" fill="white"/>
<path d="M121 182.177C94.373 178.486 73.8028 155.642 73.8028 128.088C73.8028 100.533 94.373 77.6912 121 73.9872V28C69.0755 31.8806 28 75.2345 28 128C28 180.766 69.0755 224.12 121 228V182.177ZM43.2337 128C43.2337 88.9429 69.7599 55.9703 105.779 45.9916V62.0935C78.3527 71.5554 58.5943 97.5486 58.5943 128.088C58.5943 158.629 78.3527 184.621 105.779 194.084V210.034C69.7599 200.055 43.2337 167.082 43.2337 128.025V128Z" fill="white"/>
<path d="M135 28V73.9872C161.627 77.6787 182.197 100.522 182.197 128.088C182.197 155.655 161.627 178.486 135 182.177V228C186.938 224.12 228 180.766 228 128C228 75.2345 186.924 31.8806 135 28ZM150.183 210.021V194.084C177.633 184.634 197.418 158.629 197.418 128.076C197.418 97.5219 177.633 71.5177 150.183 62.0684V45.9791C186.227 55.9451 212.766 88.9295 212.766 128C212.766 167.07 186.227 200.055 150.183 210.021Z" fill="white"/>
</g>
<defs>
<linearGradient id="paint0_linear_53_2" x1="1.12369e-05" y1="-3.12501" x2="244.66" y2="262.293" gradientUnits="userSpaceOnUse">
<stop offset="0.106096" stop-color="#00AFFF"/>
<stop offset="0.243721" stop-color="#006EFF"/>
<stop offset="0.877321" stop-color="#E200ED"/>
</linearGradient>
<clipPath id="clip0_53_2">
<rect width="256" height="256" rx="128" fill="white"/>
</clipPath>
</defs>
</svg>
