<svg width="258" height="258" viewBox="0 0 258 258" fill="none" xmlns="http://www.w3.org/2000/svg">
<path d="M178.718 137.743C179.212 134.937 179.472 132.027 179.472 129.091C179.472 101.11 156.765 78.3508 128.887 78.3508C107.973 78.3508 89.9681 91.1593 82.2778 109.346H104.907C110.597 102.383 119.222 97.9143 128.861 97.9143C142.189 97.9143 153.543 106.384 157.96 118.231H108.44H79.4719C78.7184 121.739 78.3027 125.35 78.3027 129.091C78.3027 157.072 101.01 179.832 128.887 179.832C149.048 179.832 166.507 167.932 174.613 150.733H151.179C145.541 156.579 137.643 160.242 128.887 160.242C114.754 160.242 102.803 150.707 99.0613 137.717H158.739H178.744L178.718 137.743Z" fill="white"/>
<path opacity="0.7" d="M119.148 198.701C85.0349 193.946 58.6905 164.484 58.6905 128.994C58.6905 93.5047 85.0349 64.0425 119.148 59.2881V0C52.611 5.01428 0 60.8729 0 128.89C0 196.908 52.611 252.767 119.148 257.781V198.727V198.701ZM19.5115 128.89C19.5115 78.5658 53.4943 36.0613 99.6361 23.2008V43.9594C64.4842 56.1444 39.1789 89.6596 39.1789 129.02C39.1789 168.381 64.5102 201.87 99.6361 214.081V234.632C53.4943 221.772 19.5115 179.267 19.5115 128.942V128.89Z" fill="white"/>
<path opacity="0.7" d="M138.612 0V59.2621C172.725 64.0166 199.069 93.4787 199.069 128.968C199.069 164.458 172.725 193.92 138.612 198.675V257.729C205.149 252.715 257.76 196.856 257.76 128.839C257.76 60.8209 205.149 5.01428 138.612 0ZM158.072 234.606V214.055C193.25 201.87 218.607 168.355 218.607 128.994C218.607 89.6336 193.25 56.0924 158.072 43.9334V23.2008C204.24 36.0353 238.248 78.5658 238.248 128.916C238.248 179.267 204.24 221.798 158.072 234.632V234.606Z" fill="white"/>
</svg>
