<?xml version="1.0" encoding="UTF-8" standalone="no"?>
<svg
   xmlns:dc="http://purl.org/dc/elements/1.1/"
   xmlns:cc="http://creativecommons.org/ns#"
   xmlns:rdf="http://www.w3.org/1999/02/22-rdf-syntax-ns#"
   xmlns:svg="http://www.w3.org/2000/svg"
   xmlns="http://www.w3.org/2000/svg"
   xmlns:xlink="http://www.w3.org/1999/xlink"
   viewBox="0 0 81.919998 81.919998"
   height="81.919998"
   width="81.919998"
   id="svg3808"
   version="1.1">
  <metadata
     id="metadata3814">
    <rdf:RDF>
      <cc:Work
         rdf:about="">
        <dc:format>image/svg+xml</dc:format>
        <dc:type
           rdf:resource="http://purl.org/dc/dcmitype/StillImage" />
        <dc:title></dc:title>
      </cc:Work>
    </rdf:RDF>
  </metadata>
  <defs
     id="defs3812">
    <linearGradient
       id="linearGradient3847">
      <stop
         id="stop3843"
         offset="0"
         style="stop-color:#000000;stop-opacity:1;" />
      <stop
         id="stop3845"
         offset="1"
         style="stop-color:#000000;stop-opacity:0;" />
    </linearGradient>
    <linearGradient
       gradientTransform="matrix(0.98604762,0,0,0.88235294,-22.495742,12.766819)"
       gradientUnits="userSpaceOnUse"
       y2="29.591866"
       x2="29.678644"
       y1="29.591864"
       x1="98.408134"
       id="linearGradient3849"
       xlink:href="#linearGradient3847" />
  </defs>
  <g
     transform="translate(-0.17355932,6.7688134)"
     id="g4908">
    <g
       id="g4853"
       transform="translate(0.12272497,0.24544994)">
      <g
         transform="translate(-2.196715,65.645733)"
         id="g4797">
        <rect
           style="fill:#000000;fill-opacity:1;stroke-width:0.9900434"
           id="rect3933"
           width="5.2111402"
           height="14.170502"
           x="52.236996"
           y="-42.486084" />
        <rect
           style="fill:#000000;fill-opacity:1;stroke-width:1.06810832"
           id="rect3935"
           width="5.5793152"
           height="11.342719"
           x="61.353218"
           y="-39.658306" />
        <rect
           style="fill:#6bab17;fill-opacity:1;stroke-width:1.07067335"
           id="rect4755"
           width="5.7680736"
           height="20.188257"
           x="70.873672"
           y="-55.409245" />
        <g
           id="g4790"
           style="fill:#000000;fill-opacity:1">
          <path
             id="rect4786"
             d="m 56.954917,-40.356186 c 2.649628,-3.027712 7.687134,-3.461974 9.445355,-0.09719 0,0 1.844523,-2.751854 4.534762,-1.996578 l 0.05476,5.615505 c -0.792442,-2.213075 -4.010768,-1.574272 -4.104196,0.592669 l -5.461726,-0.635997 c 0.04138,-1.202498 -3.295795,-2.369273 -4.172649,0.368175 z"
             style="fill:#000000;fill-opacity:1" />
        </g>
      </g>
      <rect
         y="31.342348"
         x="35.181709"
         height="5.9877963"
         width="5.6406779"
         id="rect3851"
         style="fill:#000000;fill-opacity:1;stroke-width:1.01481557" />
      <rect
         y="27.090145"
         x="42.348476"
         height="10.24"
         width="5.9877963"
         id="rect3853"
         style="fill:#000000;fill-opacity:1" />
    </g>
    <g
       aria-label="microtick"
       transform="matrix(1.0076272,0,0,0.99243056,4.2522033,-23.604067)"
       style="font-style:normal;font-weight:normal;font-size:15.92117691px;line-height:1.25;font-family:sans-serif;letter-spacing:0px;word-spacing:0px;fill:#000000;fill-opacity:1;stroke:none;stroke-width:0.39802936"
       id="text3820">
      <path
         d="m 15.111197,69.785816 c 0,-1.79905 -1.170765,-2.817981 -3.001114,-2.817981 -0.659586,0 -1.81386,0.0796 -2.6383424,1.209981 -0.659586,-0.907485 -1.731413,-1.209981 -2.72079,-1.209981 -0.989379,0 -1.945778,0.286575 -2.555895,1.209981 v -0.939327 h -1.566515 v 9.329586 h 1.648963 v -5.588199 c 0,-1.241822 0.511179,-2.770218 1.945778,-2.770218 0.87395,0 1.434598,0.461703 1.648964,1.082614 0.181385,0.493544 0.164896,1.066693 0.164896,1.576158 v 5.699645 h 1.648964 v -5.60412 c 0,-1.225901 0.3957514,-2.754297 1.9787574,-2.754297 0.87395,0 1.401618,0.461703 1.648963,1.082614 0.181386,0.493544 0.148407,1.066693 0.148407,1.592079 v 5.683724 h 1.648964 z"
         style="font-style:normal;font-variant:normal;font-weight:normal;font-stretch:normal;font-size:15.92079544px;font-family:Example;-inkscape-font-specification:'Example, Normal';font-variant-ligatures:normal;font-variant-caps:normal;font-variant-numeric:normal;font-feature-settings:normal;text-align:start;writing-mode:lr-tb;text-anchor:start;fill:#6bab17;fill-opacity:1;stroke-width:0.2;stroke-miterlimit:4;stroke-dasharray:none;stroke:#6bab17;stroke-opacity:1"
         id="path3822" />
      <path
         d="m 18.723826,67.238489 h -1.592079 v 9.329586 h 1.592079 z m 0,-3.566258 h -1.592079 v 1.783129 h 1.592079 z"
         style="font-style:normal;font-variant:normal;font-weight:normal;font-stretch:normal;font-size:15.92079544px;font-family:Example;-inkscape-font-specification:'Example, Normal';font-variant-ligatures:normal;font-variant-caps:normal;font-variant-numeric:normal;font-feature-settings:normal;text-align:start;writing-mode:lr-tb;text-anchor:start;fill:#6bab17;fill-opacity:1;stroke-width:0.2;stroke-miterlimit:4;stroke-dasharray:none;stroke:#6bab17;stroke-opacity:1"
         id="path3824" />
      <path
         d="m 26.440148,73.678573 c -0.187405,0.907485 -0.821697,1.910496 -2.075866,1.910496 -1.773136,0 -2.320934,-2.340357 -2.320934,-3.78915 0,-1.464713 0.533381,-3.773228 2.306518,-3.773228 1.268585,0 1.902877,1.034851 2.090282,1.942337 H 27.9538 c -0.345978,-1.974179 -1.701057,-3.168238 -3.603934,-3.168238 -2.623664,0 -3.820171,2.197069 -3.820171,4.983208 0,2.80206 1.225338,5.030972 3.820171,5.030972 1.902877,0 3.286788,-1.209981 3.603934,-3.136397 z"
         style="font-style:normal;font-variant:normal;font-weight:normal;font-stretch:normal;font-size:15.92079544px;font-family:Example;-inkscape-font-specification:'Example, Normal';font-variant-ligatures:normal;font-variant-caps:normal;font-variant-numeric:normal;font-feature-settings:normal;text-align:start;writing-mode:lr-tb;text-anchor:start;fill:#6bab17;fill-opacity:1;stroke-width:0.2;stroke-miterlimit:4;stroke-dasharray:none;stroke:#6bab17;stroke-opacity:1"
         id="path3826" />
      <path
         d="m 33.89778,66.999677 c -0.0974,-0.03184 -0.259708,-0.04776 -0.373329,-0.04776 -1.217379,0 -2.110123,0.668673 -2.580842,1.910495 v -1.623921 h -1.542012 v 9.329586 h 1.62317 v -4.664793 c 0,-1.576159 0.519415,-3.359288 2.46722,-3.359288 0.146085,0 0.292171,0.01592 0.405793,0.04776 z"
         style="font-style:normal;font-variant:normal;font-weight:normal;font-stretch:normal;font-size:15.92079544px;font-family:Example;-inkscape-font-specification:'Example, Normal';font-variant-ligatures:normal;font-variant-caps:normal;font-variant-numeric:normal;font-feature-settings:normal;text-align:start;writing-mode:lr-tb;text-anchor:start;fill:#6bab17;fill-opacity:1;stroke-width:0.2;stroke-miterlimit:4;stroke-dasharray:none;stroke:#6bab17;stroke-opacity:1"
         id="path3828" />
      <path
         d="m 41.155132,71.87144 c 0,1.512476 -0.530387,3.805071 -2.379568,3.805071 -1.820512,0 -2.393901,-2.276674 -2.393901,-3.805071 0,-1.480633 0.587724,-3.773228 2.408236,-3.773228 1.777507,0 2.365233,2.19707 2.365233,3.773228 z m 1.505147,0.01592 c 0,-2.770218 -1.204118,-5.01505 -3.87038,-5.01505 -2.680597,0 -3.913385,2.133386 -3.913385,5.030971 0,2.913506 1.247123,4.99913 3.89905,4.99913 2.680597,0 3.884715,-2.133387 3.884715,-5.015051 z"
         style="font-style:normal;font-variant:normal;font-weight:normal;font-stretch:normal;font-size:15.92079544px;font-family:Example;-inkscape-font-specification:'Example, Normal';font-variant-ligatures:normal;font-variant-caps:normal;font-variant-numeric:normal;font-feature-settings:normal;text-align:start;writing-mode:lr-tb;text-anchor:start;fill:#6bab17;fill-opacity:1;stroke-width:0.2;stroke-miterlimit:4;stroke-dasharray:none;stroke:#6bab17;stroke-opacity:1"
         id="path3830" />
      <path
         d="m 47.65652,75.413695 c -1.40103,0.111446 -1.623921,-0.39802 -1.623921,-1.592079 v -5.269784 h 1.623921 v -1.20998 h -1.623921 v -2.674694 l -1.592079,0.620911 v 2.053783 h -1.241822 v 1.20998 h 1.241822 v 5.651883 c 0,1.846812 0.636831,2.579169 2.165228,2.579169 0.270653,0 0.827881,-0.06368 1.050772,-0.127367 z"
         style="font-style:normal;font-variant:normal;font-weight:normal;font-stretch:normal;font-size:15.92079544px;font-family:Example;-inkscape-font-specification:'Example, Normal';font-variant-ligatures:normal;font-variant-caps:normal;font-variant-numeric:normal;font-feature-settings:normal;text-align:start;writing-mode:lr-tb;text-anchor:start;stroke-width:0.2;stroke-miterlimit:4;stroke-dasharray:none;stroke:#000000;stroke-opacity:1"
         id="path3832" />
      <path
         d="m 51.596285,67.238489 h -1.592079 v 9.329586 h 1.592079 z m 0,-3.566258 h -1.592079 v 1.783129 h 1.592079 z"
         style="font-style:normal;font-variant:normal;font-weight:normal;font-stretch:normal;font-size:15.92079544px;font-family:Example;-inkscape-font-specification:'Example, Normal';font-variant-ligatures:normal;font-variant-caps:normal;font-variant-numeric:normal;font-feature-settings:normal;text-align:start;writing-mode:lr-tb;text-anchor:start;stroke-width:0.2;stroke-miterlimit:4;stroke-dasharray:none;stroke:#000000;stroke-opacity:1"
         id="path3834" />
      <path
         d="m 59.553414,73.853457 c -0.189579,0.907485 -0.83123,1.910496 -2.099948,1.910496 -1.793705,0 -2.347857,-2.340357 -2.347857,-3.78915 0,-1.464713 0.53957,-3.773228 2.333274,-3.773228 1.283301,0 1.924952,1.034851 2.114531,1.942337 h 1.531211 c -0.349991,-1.974179 -1.72079,-3.168238 -3.645742,-3.168238 -2.654099,0 -3.864485,2.197069 -3.864485,4.983208 0,2.80206 1.239552,5.030972 3.864485,5.030972 1.924952,0 3.324917,-1.209981 3.645742,-3.136397 z"
         style="font-style:normal;font-variant:normal;font-weight:normal;font-stretch:normal;font-size:15.92079544px;font-family:Example;-inkscape-font-specification:'Example, Normal';font-variant-ligatures:normal;font-variant-caps:normal;font-variant-numeric:normal;font-feature-settings:normal;text-align:start;writing-mode:lr-tb;text-anchor:start;stroke-width:0.2;stroke-miterlimit:4;stroke-dasharray:none;stroke:#000000;stroke-opacity:1"
         id="path3836" />
      <path
         d="m 65.903262,71.043559 3.059333,-3.80507 H 67.14799 l -3.374264,4.187169 v -7.753427 h -1.499673 v 12.895844 h 1.499673 v -3.056793 l 1.034774,-1.305505 2.639425,4.362298 h 1.814605 z"
         style="font-style:normal;font-variant:normal;font-weight:normal;font-stretch:normal;font-size:15.92079544px;font-family:Example;-inkscape-font-specification:'Example, Normal';font-variant-ligatures:normal;font-variant-caps:normal;font-variant-numeric:normal;font-feature-settings:normal;text-align:start;writing-mode:lr-tb;text-anchor:start;stroke-width:0.2;stroke-miterlimit:4;stroke-dasharray:none;stroke:#000000;stroke-opacity:1"
         id="path3838" />
    </g>
    <rect
       style="fill:url(#linearGradient3849);fill-opacity:1;stroke-width:0.93276048"
       id="rect3841"
       width="67.770554"
       height="1.3016949"
       x="6.768815"
       y="37.575592" />
    <ellipse
       style="fill:#6bab17;fill-opacity:1;stroke-width:0.99596202"
       id="path4855"
       cx="71.641884"
       cy="34.755249"
       rx="2.8817015"
       ry="2.820339" />
  </g>
</svg>
