<?xml version="1.0" encoding="utf-8"?>
<!-- Generator: Adobe Illustrator 28.0.0, SVG Export Plug-In . SVG Version: 6.00 Build 0)  -->
<svg version="1.1" id="_图层_1" xmlns="http://www.w3.org/2000/svg" xmlns:xlink="http://www.w3.org/1999/xlink" x="0px" y="0px"
	 viewBox="0 0 2000 2000" style="enable-background:new 0 0 2000 2000;" xml:space="preserve">
<style type="text/css">
	.st0{fill:#0B825D;}
</style>
<path class="st0" d="M918.5,519.5L918.5,519.5c219.4,0,404.4,147.1,461.8,347c5,17,7.9,34.5,11.2,52.4H1990v-52.4
	c-77.7-57.4-132.6-98.1-210.3-155.4C1659.2,351.2,1319.2,91.5,918.5,91.5l0,0C416.9,91.5,10,497.9,10,1000s406.5,908.5,908.5,908.5
	c400.7,0,740.6-259.8,861.2-619.7c77.7-57.4,132.6-98.1,210.3-155.4l0,0V1081h-598.9c-2.9,17.9-6.2,35.3-11.2,52.4
	c-57.4,200.3-241.9,347-461.3,347c-264.7,0-480.5-215.3-480.5-480.5S653.8,519.5,918.5,519.5L918.5,519.5z"/>
</svg>
