<svg width="400" height="400" viewBox="0 0 400 400" fill="none" xmlns="http://www.w3.org/2000/svg">
<circle cx="200" cy="200" r="200" fill="black"/>
<path d="M173.682 112.996C177.081 111.66 180.479 110.323 184.14 109.282C186.103 114.206 187.694 118.88 189.533 123.454C192.363 130.496 195.318 137.488 198.35 144.445C198.701 145.25 199.877 145.696 200.728 146.598C200.845 148.466 200.903 150.043 200.924 151.932C200.928 157.802 200.97 163.362 200.958 169.209C200.935 170.857 200.964 172.218 200.887 173.759C200.703 174.495 200.625 175.05 200.291 175.59C199.239 174.78 198.139 174.127 197.7 173.171C195.369 168.088 193.153 162.95 190.991 157.791C185.226 144.029 179.485 130.256 173.822 116.45C173.411 115.448 173.712 114.155 173.682 112.996Z" fill="#D7B501"/>
<path d="M250.833 121.674C250.968 121.68 251.103 121.687 251.53 121.893C252.111 122.182 252.398 122.27 252.686 122.359C252.686 122.359 252.838 122.304 253.017 122.504C253.554 122.795 253.913 122.887 254.271 122.979C254.271 122.979 254.575 122.964 254.757 123.27C255.511 124.231 256.085 124.884 256.656 125.54C262.882 132.681 269.11 139.82 275.325 146.97C275.601 147.287 275.917 147.681 275.962 148.068C276.569 153.346 280.866 154.93 284.759 156.926C284.792 160.496 284.826 164.066 284.56 167.937C283.424 167.784 282.417 167.497 281.779 166.848C279.032 164.053 276.38 161.166 273.724 158.284C272.673 157.145 271.747 155.679 269.941 157.565C260.319 146.637 250.841 135.831 241.558 124.86C239.245 122.127 237.563 118.862 235.591 115.841C240.111 117.518 244.632 119.195 249.486 121.129C250.157 121.482 250.495 121.578 250.833 121.674Z" fill="#B802D2"/>
<path d="M185.016 303.145C180.354 303.182 175.692 303.22 170.733 302.967C170.67 302.066 170.812 301.399 171.152 300.856C177.369 290.922 183.698 281.058 189.813 271.061C193.489 265.051 196.838 258.842 200.56 252.679C201.343 252.145 202.006 251.733 202.444 251.152C208.237 243.455 213.999 235.734 219.918 228.01C220.068 228.002 220.305 228.183 220.257 228.411C217.359 233.881 214.487 239.112 211.666 244.37C208.956 249.421 205.432 254.24 203.805 259.625C200.737 269.784 196.068 279.065 191.126 288.348C188.637 293.023 185.27 297.487 185.016 303.145Z" fill="#00E6EE"/>
<path d="M185.308 303.2C185.27 297.487 188.637 293.023 191.126 288.348C196.068 279.065 200.737 269.784 203.805 259.625C205.432 254.239 208.956 249.421 211.666 244.37C214.487 239.112 217.359 233.881 220.497 228.41C223.503 229.277 226.22 230.372 228.833 231.674C225.125 238.181 221.456 244.443 217.935 250.786C210.702 263.816 203.473 276.848 196.406 289.967C194.117 294.217 192.337 298.741 190.324 303.139C188.749 303.178 187.175 303.217 185.308 303.2Z" fill="#01F0DC"/>
<path d="M278.935 261.411C275.603 266.882 272.271 272.352 268.474 277.94C260.239 278.194 254.054 280.89 250.873 288.555C250.326 289.873 249.43 291.044 248.851 292.351C247.264 295.934 245.759 299.553 244.222 303.158C241.327 303.187 238.433 303.217 235.245 302.956C236.005 300.38 237.018 298.074 238.118 295.811C241.432 288.992 244.679 282.138 248.167 275.409C249.414 273.005 251.275 270.919 252.857 268.941C252.975 270.005 253.093 270.816 253.21 271.628C253.522 271.862 253.834 272.097 254.145 272.332C258.011 268.898 262.328 265.837 265.589 261.901C267.888 259.126 270.006 257.562 273.755 258.009C275.64 259.167 277.288 260.289 278.935 261.411Z" fill="#D4EF02"/>
<path d="M135.104 127.514C136.266 127.073 137.428 126.633 138.845 126.468C139.95 129.685 140.673 132.669 141.672 135.558C145.241 145.873 148.853 156.174 152.546 166.445C155.718 175.266 159.14 183.997 162.244 192.841C166.588 205.216 170.74 217.659 174.763 230.16C173.385 230.661 172.218 231.075 170.913 231.297C168.216 223.78 165.673 216.449 163.087 209.132C161.519 204.696 159.971 200.247 158.211 195.886C157.834 194.954 156.58 194.375 155.73 193.633C155.068 194.417 154.362 195.169 153.763 195.998C153.45 196.433 153.324 197.003 152.869 197.503C152.007 197.316 151.089 197.334 150.821 196.925C148.524 193.425 145.517 194.631 142.351 195.528C142.049 195.534 141.929 195.542 141.609 195.444C140.222 194.542 139.034 193.744 137.859 192.694C138.572 191.487 139.271 190.531 140.213 189.583C141.816 189.989 143.182 190.366 144.534 190.789C148.216 191.942 148.941 191.43 149.116 187.509C149.145 186.854 149.168 186.199 149.472 185.545C154.426 185.514 154.512 185.487 153.136 181.109C150.955 174.166 148.704 167.243 146.37 160.35C144.419 154.592 142.259 148.906 140.28 143.157C138.493 137.964 136.825 132.73 135.104 127.514Z" fill="#17E6B5"/>
<path d="M161.18 117.701C163.415 116.811 165.65 115.921 168.32 115.151C169.447 116.387 170.329 117.43 170.801 118.634C173.728 126.113 176.558 133.631 179.43 141.132C183.647 152.147 187.917 163.142 192.066 174.183C193.437 177.83 194.503 181.592 195.416 185.37C193.33 185.414 191.537 185.389 189.685 185.134C185.036 173.701 180.549 162.455 175.83 151.307C171.066 140.054 166.073 128.899 161.18 117.701Z" fill="#D4D136"/>
<path d="M164.427 303.15C163.925 303.187 163.423 303.223 162.674 302.946C162.561 301.768 162.524 300.832 162.854 300.051C167.017 290.189 171.345 280.396 175.394 270.488C177.837 264.51 179.867 258.364 182.106 252.231C180.655 251.758 179.914 251.517 179.238 251.296C179.438 249.826 179.601 248.629 179.972 247.354C184.717 240.124 189.281 232.99 193.739 225.79C194.078 225.243 193.662 224.23 193.749 223.242C196.049 222.27 198.197 221.491 200.586 220.751C202.203 221.218 203.58 221.645 205.121 222.194C205.636 222.523 205.988 222.729 206.288 223.155C202.149 230.695 198.357 238.199 193.912 245.293C185.237 259.138 176.395 272.856 170.57 288.247C168.668 293.27 166.483 298.186 164.427 303.15Z" fill="#02B8F0"/>
<path d="M160.923 117.701C166.073 128.899 171.066 140.054 175.83 151.307C180.549 162.455 185.037 173.701 189.417 185.195C188.476 185.522 187.745 185.558 186.742 185.567C185.564 185.507 184.656 185.473 183.733 185.175C183.614 183.929 183.748 182.842 183.368 181.983C181.058 176.76 178.843 171.479 176.195 166.427C171.971 158.37 167.358 150.517 163.066 142.494C161.409 139.397 160.215 136.055 158.722 132.866C158.38 132.137 157.671 131.581 157.088 130.701C156.006 127.106 154.966 123.755 153.927 120.404C156.173 119.503 158.42 118.601 160.923 117.701Z" fill="#D4E76B"/>
<path d="M205.736 104.479C208.422 105.459 211.108 106.439 213.765 107.636C213.724 108.614 213.399 109.583 213.746 110.104C219.316 118.445 224.918 126.766 230.624 135.014C235.015 141.361 239.48 147.66 244.06 153.872C249.161 160.792 254.429 167.589 259.567 174.649C258.614 176.201 257.717 177.544 256.599 178.846C256.007 178.579 255.541 178.432 255.281 178.116C249.151 170.639 243.042 163.145 236.917 155.398C236.498 154.01 236.26 152.776 235.652 151.766C233.324 147.895 230.992 144.019 228.453 140.287C221.808 130.519 214.983 120.873 208.404 111.062C207.113 109.137 206.605 106.687 205.736 104.479Z" fill="#B3D4D4"/>
<path d="M116.72 168.934C116.692 161.6 116.664 154.267 116.894 146.713C117.875 147.69 118.415 149.061 119.355 150.053C122.687 153.572 126.048 157.08 129.62 160.349C131.331 161.914 133.541 162.934 135.659 164.321C136.015 164.859 136.237 165.276 136.501 165.877C136.768 166.349 136.993 166.637 137.392 167.065C138.736 169.167 139.906 171.13 141.02 173.308C137.765 175.523 134.567 177.523 131.048 179.532C127.76 179.605 124.794 179.668 121.812 179.491C121.359 178.597 120.922 177.944 120.496 177.057C119.245 174.194 117.983 171.564 116.72 168.934Z" fill="#B3D4D4"/>
<path d="M205.55 104.34C206.605 106.687 207.113 109.137 208.404 111.062C214.983 120.873 221.808 130.519 228.453 140.287C230.992 144.02 233.324 147.896 235.652 151.766C236.26 152.776 236.498 154.01 236.736 155.295C235.798 155.502 235.03 155.555 234.035 155.572C233.025 154.956 232.097 154.501 231.481 153.779C225.869 147.196 220.337 140.545 214.708 133.976C213.894 133.026 212.693 132.407 211.657 131.394C210.779 129.389 210.195 127.399 208.993 125.905C206.496 122.8 203.671 119.959 200.935 116.704C200.844 111.955 200.8 107.512 201.05 103.007C201.543 102.942 201.743 102.94 201.943 102.938C203.084 103.359 204.224 103.781 205.55 104.34Z" fill="#B4ECD1"/>
<path d="M284.742 230.761C284.773 233.874 284.805 236.987 284.538 240.403C283.12 240.277 281.916 239.991 280.891 239.397C272.384 234.469 263.915 229.475 255.412 224.54C254.876 224.229 254.148 224.25 253.459 223.827C253.292 222.182 253.175 220.825 253.144 219.172C253.293 215.746 253.355 212.618 253.672 209.497C255.184 210.11 256.703 210.448 257.654 211.371C261.78 215.377 267.185 216.987 272.25 219.645C275.442 222.776 278.485 225.752 281.613 228.635C282.53 229.48 283.692 230.059 284.742 230.761Z" fill="#01F1B9"/>
<path d="M200.756 103.069C200.8 107.512 200.844 111.955 200.875 117.011C200.898 120.109 200.934 122.593 200.912 125.347C200.872 126.719 200.89 127.822 200.884 129.246C200.88 134.66 200.901 139.753 200.878 145.09C200.78 145.658 200.725 145.983 200.67 146.308C199.877 145.695 198.701 145.25 198.35 144.444C195.318 137.488 192.363 130.495 189.533 123.454C187.694 118.88 186.103 114.206 184.394 109.313C189.433 107.029 194.478 105.01 199.95 103.01C200.502 103.042 200.629 103.056 200.756 103.069Z" fill="#E4B503"/>
<path d="M134.854 127.541C136.825 132.73 138.493 137.964 140.28 143.157C142.259 148.906 144.419 154.592 146.37 160.35C148.704 167.243 150.955 174.166 153.136 181.109C154.512 185.487 154.426 185.514 149.406 185.321C147.549 182.78 146.036 180.462 144.431 177.96C143.932 177.049 143.526 176.322 143.279 175.412C142.694 172.063 142.221 168.803 141.159 165.748C137.028 153.856 132.711 142.028 128.463 130.176C130.51 129.307 132.557 128.438 134.854 127.541Z" fill="#02DFB8"/>
<path d="M164.701 303.203C166.482 298.186 168.668 293.27 170.569 288.247C176.395 272.856 185.237 259.139 193.912 245.293C198.357 238.199 202.149 230.695 206.516 223.171C208.443 223.714 210.09 224.462 211.687 225.455C206.52 233.958 201.316 242.163 196.32 250.492C193.478 255.23 191.272 260.366 188.26 264.983C181.624 275.157 174.555 285.06 169.886 296.37C168.985 298.553 168.453 300.888 167.751 303.153C166.825 303.187 165.9 303.221 164.701 303.203Z" fill="#00C8F1"/>
<path d="M190.616 303.198C192.337 298.741 194.117 294.217 196.406 289.967C203.473 276.848 210.702 263.816 217.935 250.786C221.456 244.443 225.126 238.181 229.072 231.67C231.027 232.128 232.638 232.797 234.1 233.632C231.904 236.92 229.665 239.934 227.843 243.183C219.489 258.088 211.187 273.022 203.009 288.024C200.33 292.939 198.085 298.091 195.641 303.134C194.063 303.175 192.486 303.216 190.616 303.198Z" fill="#01F1B9"/>
<path d="M284.81 156.621C280.866 154.931 276.569 153.347 275.962 148.069C275.917 147.681 275.601 147.287 275.325 146.97C269.11 139.82 262.882 132.681 256.656 125.54C256.085 124.884 255.511 124.231 254.879 123.361C264.081 126.599 273.326 130.099 282.619 133.466C284.363 134.098 284.984 134.952 284.949 136.808C284.827 143.309 284.877 149.813 284.81 156.621Z" fill="#C600D2"/>
<path d="M136.968 283.753C134.578 280.062 132.188 276.372 129.852 272.245C135.738 263.484 139.19 254.422 138.689 243.93C142.072 242.515 145.269 241.247 148.575 240.017C148.685 240.054 148.9 240.14 148.91 240.446C148.878 246.729 148.836 252.705 148.57 258.7C147.685 259.235 146.81 259.619 146.395 260.288C141.889 267.555 138.213 275.17 136.968 283.753Z" fill="#D4B5C0"/>
<path d="M146.595 123.147C147.494 122.871 148.394 122.594 149.546 122.487C149.805 122.784 149.812 122.912 149.847 123.265C150.508 124.224 151.139 124.959 151.777 125.944C151.791 126.698 151.799 127.2 151.844 127.948C154.562 135.898 157.239 143.603 159.925 151.304C162.166 157.728 164.438 164.141 166.659 170.571C169.057 177.512 171.412 184.469 173.787 191.418C174.888 194.638 175.994 197.856 177.095 201.076C179.948 209.418 182.8 217.761 185.652 226.194C185.651 226.284 185.654 226.464 185.419 226.537C184.248 226.861 183.312 227.112 182.376 227.102C181.928 225.254 181.529 223.651 181.022 222.082C179.702 217.992 178.356 213.909 176.98 209.837C174.404 202.214 171.927 194.554 169.171 186.996C166.271 179.043 162.922 171.252 160.078 163.28C156.512 153.289 153.253 143.187 149.875 133.129C148.761 129.809 147.687 126.475 146.595 123.147Z" fill="#A2F3AF"/>
<path d="M259.624 174.439C254.429 167.589 249.161 160.792 244.06 153.872C239.48 147.661 235.015 141.361 230.624 135.014C224.918 126.766 219.316 118.445 213.746 110.104C213.399 109.584 213.724 108.614 213.932 107.785C215.848 108.331 217.567 108.947 219.501 109.922C220.034 110.979 220.251 111.75 220.687 112.366C232.07 128.455 243.403 144.58 254.942 160.556C257.204 163.688 260.279 166.234 262.914 169.263C261.985 171.047 261.121 172.617 260.099 174.25C259.835 174.355 259.73 174.397 259.624 174.439Z" fill="#B4B4D2"/>
<path d="M168.014 303.206C168.453 300.888 168.985 298.553 169.886 296.37C174.555 285.06 181.624 275.157 188.26 264.983C191.272 260.366 193.478 255.23 196.32 250.492C201.316 242.163 206.52 233.958 211.923 225.476C212.897 225.57 213.585 225.889 214.268 226.45C211.48 231.9 208.699 237.109 205.914 242.317C204.057 245.787 202.194 249.253 200.334 252.721C196.838 258.841 193.489 265.051 189.813 271.061C183.698 281.057 177.369 290.922 171.152 300.856C170.812 301.399 170.67 302.066 170.426 302.914C169.703 303.188 168.99 303.224 168.014 303.206Z" fill="#01D7EF"/>
<path d="M146.374 123.146C147.687 126.475 148.761 129.809 149.875 133.129C153.253 143.187 156.512 153.289 160.078 163.28C162.922 171.252 166.271 179.043 169.171 186.996C171.927 194.554 174.404 202.214 176.98 209.837C178.356 213.909 179.702 217.992 181.022 222.082C181.529 223.651 181.928 225.254 182.163 227.229C180.984 227.87 180.019 228.122 179.052 228.07C178.582 225.409 178.284 223.001 177.602 220.708C176.753 217.854 175.516 215.119 174.573 212.29C171.801 203.971 169.183 195.598 166.285 187.323C165.65 185.507 163.77 184.145 163.04 182.341C160.331 175.641 157.818 168.86 155.329 162.074C154.426 159.613 153.839 157.039 153.033 154.541C151.317 149.223 149.463 143.948 147.835 138.604C146.397 133.885 145.188 129.096 143.879 124.338C144.637 123.94 145.395 123.542 146.374 123.146Z" fill="#7AF0B5"/>
<path d="M284.76 212.81C284.798 215.491 284.836 218.173 284.573 221.145C281.645 219.231 278.989 217.058 276.396 214.812C273.812 212.574 271.488 209.608 267.265 212.104C265.47 210.702 263.968 209.247 262.315 207.99C259.4 205.774 256.394 203.679 253.373 201.25C253.223 199.652 253.125 198.336 253.152 196.76C253.181 194.848 253.087 193.196 253.116 191.31C253.235 189.18 253.23 187.284 253.309 185.237C253.479 185.009 253.564 184.931 253.868 184.905C256.103 186.78 258.194 188.529 260.122 190.443C266.589 196.864 272.931 203.412 279.48 209.747C280.899 211.12 282.982 211.807 284.76 212.81Z" fill="#02D7DD"/>
<path d="M195.708 185.302C194.503 181.592 193.437 177.83 192.066 174.183C187.917 163.142 183.647 152.147 179.43 141.132C176.558 133.631 173.728 126.113 170.801 118.634C170.33 117.43 169.447 116.387 168.569 115.134C169.988 114.339 171.592 113.68 173.439 113.008C173.712 114.154 173.411 115.448 173.822 116.45C179.485 130.255 185.226 144.029 190.992 157.791C193.153 162.95 195.369 168.087 197.7 173.171C198.139 174.127 199.24 174.78 200.311 175.815C200.735 176.777 200.884 177.499 200.998 178.521C200.946 180.993 200.929 183.165 200.627 185.388C198.798 185.393 197.253 185.347 195.708 185.302Z" fill="#D3BC0F"/>
<path d="M158.418 303.155C155.311 303.069 152.203 302.984 148.978 302.34C148.9 299.391 148.941 297 149.188 294.497C152.264 290.278 155.386 286.322 157.943 282.029C161.752 275.637 165.129 268.989 168.79 262.506C169.223 261.739 170.282 261.328 171.043 261.026C170.847 262.162 170.489 263.026 170.5 263.884C170.59 270.554 168.285 276.59 165.89 282.665C163.225 289.426 160.894 296.319 158.418 303.155Z" fill="#0279F3"/>
<path d="M148.981 294.61C148.941 297 148.9 299.391 148.82 302.067C144.883 296.292 140.985 290.232 137.028 283.962C138.213 275.17 141.889 267.555 146.395 260.288C146.81 259.619 147.685 259.235 148.63 258.924C148.964 259.433 149.013 259.738 149.008 260.349C148.96 264.692 148.966 268.728 148.931 273.067C148.897 277.158 148.906 280.946 148.888 285.03C148.901 288.421 148.941 291.515 148.981 294.61Z" fill="#B4B4D2"/>
<path d="M208.958 303.141C207.396 303.178 205.835 303.216 204.139 303.034C205.716 299.524 207.368 296.2 209.148 292.947C214.625 282.937 220.007 272.871 225.708 262.989C229.835 255.837 234.472 248.981 238.74 241.907C239.793 240.162 240.293 238.083 241.263 236.154C242.419 236.575 243.361 236.999 244.235 237.659C242.196 241.82 240.175 245.724 238.264 249.68C235.54 255.32 232.897 260.998 229.994 266.706C229.401 266.985 228.884 267.128 228.687 267.461C222.958 277.119 217.205 286.764 211.603 296.496C210.426 298.541 209.825 300.918 208.958 303.141Z" fill="#05F334"/>
<path d="M143.639 124.29C145.188 129.096 146.397 133.885 147.835 138.604C149.463 143.948 151.317 149.223 153.033 154.541C153.839 157.039 154.426 159.613 155.329 162.074C157.818 168.86 160.331 175.641 163.04 182.341C163.77 184.145 165.65 185.507 166.285 187.323C169.183 195.598 171.801 203.971 174.573 212.29C175.516 215.119 176.753 217.854 177.602 220.708C178.284 223.001 178.582 225.409 178.947 228.204C178.471 228.932 178.097 229.22 177.505 229.516C176.994 229.524 176.702 229.526 176.405 229.257C175.711 226.798 175.059 224.597 174.323 222.424C171.714 214.721 169.1 207.019 166.442 199.332C163.095 189.655 159.684 179.999 156.338 170.322C154.069 163.76 151.843 157.183 149.637 150.599C146.797 142.123 143.995 133.633 141.176 125.15C141.917 124.847 142.658 124.545 143.639 124.29Z" fill="#4FDCB5"/>
<path d="M116.881 252.001C116.77 244.91 116.66 237.819 116.814 230.455C120.335 230.982 121.996 228.576 123.49 226.567C128.201 220.235 128.825 212.919 127.397 205.478C126.777 202.25 125.042 199.235 123.817 195.851C123.935 194.324 124.051 193.069 124.166 191.815C124.453 191.688 124.739 191.561 125.026 191.433C125.959 192.377 126.893 193.322 127.831 194.525C127.847 195.477 127.859 196.17 127.863 197.144C128.122 199.051 128.286 200.701 128.672 202.297C130.708 210.729 131.365 219.055 127.046 227.063C125.357 230.194 123.575 233.206 125.602 237C127.287 240.156 128.542 243.54 129.811 246.987C126.823 248.267 124.012 249.383 120.945 250.548C119.421 251.065 118.151 251.533 116.881 252.001Z" fill="#02B8F0"/>
<path d="M284.815 212.506C282.982 211.807 280.899 211.12 279.48 209.747C272.931 203.412 266.589 196.864 260.122 190.443C258.194 188.529 256.103 186.78 253.917 184.699C253.946 183.775 254.145 183.109 254.535 182.378C255.035 182.054 255.344 181.796 255.876 181.589C260.367 183.612 264.636 185.584 269.086 187.667C271.118 189.478 272.968 191.178 274.853 193.109C277.373 196.455 279.806 199.614 282.388 202.645C282.861 203.2 283.94 203.239 284.739 203.515C284.783 206.411 284.826 209.306 284.815 212.506Z" fill="#01D7EF"/>
<path d="M158.703 303.202C160.895 296.319 163.225 289.426 165.89 282.665C168.285 276.59 170.59 270.554 170.5 263.884C170.489 263.026 170.847 262.162 171.151 260.818C171.841 259.391 172.422 258.449 172.987 257.498C175.001 254.104 177.01 250.707 179.207 247.336C179.517 247.385 179.641 247.409 179.764 247.432C179.601 248.629 179.438 249.827 179.238 251.296C179.914 251.517 180.655 251.759 182.106 252.231C179.867 258.364 177.837 264.51 175.394 270.488C171.345 280.396 167.017 290.19 162.854 300.051C162.524 300.832 162.561 301.768 162.427 302.892C161.28 303.185 160.134 303.217 158.703 303.202Z" fill="#01A6F3"/>
<path d="M244.527 303.208C245.759 299.553 247.264 295.934 248.851 292.352C249.43 291.044 250.326 289.873 250.873 288.555C254.054 280.89 260.239 278.194 268.323 278.085C264.248 285.269 259.731 292.351 255.536 299.618C253.913 302.43 252.074 303.862 248.784 303.306C247.501 303.089 246.152 303.262 244.527 303.208Z" fill="#EEEE01"/>
<path d="M121.2 250.499C124.012 249.383 126.823 248.267 130.033 246.978C131.37 246.423 132.309 246.042 133.486 245.625C134.882 245.111 136.038 244.632 137.414 244.152C137.922 244.127 138.213 244.102 138.503 244.077C139.19 254.422 135.738 263.484 129.788 272.025C127.982 269.677 126.295 267.113 124.623 264.072C127.301 258.159 126.147 253.765 121.2 250.499Z" fill="#D3B486"/>
<path d="M140.972 125.156C143.995 133.633 146.797 142.123 149.637 150.599C151.843 157.183 154.069 163.76 156.338 170.322C159.684 179.999 163.095 189.655 166.442 199.332C169.1 207.019 171.714 214.721 174.323 222.424C175.059 224.597 175.711 226.798 176.268 229.403C175.748 229.904 175.361 229.988 174.975 230.073C170.74 217.659 166.588 205.216 162.244 192.841C159.14 183.997 155.718 175.265 152.546 166.445C148.852 156.174 145.241 145.873 141.672 135.558C140.673 132.669 139.95 129.685 139.085 126.45C139.636 125.824 140.202 125.493 140.972 125.156Z" fill="#37EBB5"/>
<path d="M241.047 236.158C240.293 238.083 239.793 240.162 238.74 241.907C234.472 248.981 229.835 255.837 225.708 262.989C220.007 272.871 214.625 282.937 209.148 292.947C207.368 296.2 205.716 299.524 203.851 302.981C202.971 303.18 202.245 303.214 201.301 302.96C202.622 299.402 204.049 296.073 205.725 292.875C208.892 286.833 212.131 280.825 215.473 274.878C219.232 268.188 223.141 261.583 226.978 254.938C230.775 248.363 234.564 241.783 238.553 235.191C239.013 235.167 239.276 235.157 239.721 235.284C240.284 235.666 240.665 235.912 241.047 236.158Z" fill="#06F362"/>
<path d="M116.682 224.792C116.663 213.716 116.644 202.64 116.867 191.356C118.471 191.899 119.834 192.649 121.242 193.635C121.926 194.636 122.564 195.403 123.202 196.439C123.854 202.163 124.893 207.605 125.057 213.073C125.242 219.265 121.3 224.255 116.682 224.792Z" fill="#0279F3"/>
<path d="M221.603 303.149C220.026 303.18 218.448 303.211 216.594 302.947C217.641 299.64 219.018 296.649 220.28 293.611C222.723 287.731 225.094 281.821 227.51 275.929C228.415 273.723 229.364 271.535 230.515 269.297C232.269 267.165 233.7 264.991 235.368 263.017C236.352 261.854 237.711 261.008 238.903 260.306C238.468 262.611 238.221 264.696 237.546 266.632C236.677 269.124 235.489 271.506 234.398 273.917C231.33 280.705 228.202 287.466 225.178 294.274C223.884 297.187 222.789 300.188 221.603 303.149Z" fill="#30F302"/>
<path d="M226.949 112.543C228.976 113.274 231.002 114.004 233.02 114.95C232.958 115.637 232.686 116.253 232.886 116.555C234.843 119.504 236.722 122.525 238.922 125.288C245.588 133.661 252.335 141.971 259.159 150.216C262.034 153.689 265.18 156.936 268.192 160.54C268.163 161.301 268.143 161.809 267.926 162.367C267.016 163.07 266.304 163.722 265.488 164.165C258.535 155.507 251.423 147.256 244.912 138.555C238.603 130.125 232.912 121.232 226.949 112.543Z" fill="#B54AD3"/>
<path d="M128.23 130.21C132.711 142.028 137.028 153.856 141.159 165.748C142.221 168.803 142.694 172.063 143.104 175.295C142.207 174.605 141.642 173.85 141.077 173.094C139.906 171.131 138.736 169.167 137.356 166.881C136.917 166.27 136.688 165.982 136.459 165.694C136.237 165.276 136.015 164.859 135.564 164.096C134.145 161.726 132.954 159.702 131.781 157.4C131.08 154.498 130.45 151.844 129.625 149.253C127.765 143.414 125.808 137.607 123.891 131.786C123.891 131.786 124.095 131.615 124.434 131.607C125.136 131.418 125.498 131.237 125.861 131.057C126.573 130.785 127.285 130.514 128.23 130.21Z" fill="#02D8C5"/>
<path d="M232.255 303.147C231.117 303.179 229.978 303.211 228.561 302.943C229.175 300.417 229.97 298.147 230.974 295.973C237.337 282.196 243.72 268.429 250.191 254.703C250.685 253.654 251.914 252.952 252.824 252.294C252.887 252.773 252.927 253.046 252.955 253.586C253.12 255.261 253.296 256.67 253.384 258.196C253.178 258.473 253.032 258.602 252.783 258.773C252.602 259.058 252.659 259.233 252.886 259.644C252.897 260.84 252.896 261.76 252.65 262.696C251.244 264.334 249.835 265.834 248.964 267.599C243.792 278.073 238.73 288.601 233.675 299.131C233.065 300.404 232.722 301.806 232.255 303.147Z" fill="#9CF300"/>
<path d="M226.748 112.418C232.912 121.232 238.603 130.125 244.912 138.555C251.423 147.256 258.535 155.507 265.445 164.369C265.099 165.492 264.692 166.203 264.079 166.817C261.113 163.719 258.074 160.923 255.639 157.675C247.291 146.537 239.07 135.301 230.984 123.972C228.055 119.87 225.643 115.399 222.995 111.097C224.179 111.495 225.362 111.893 226.748 112.418Z" fill="#B571D3"/>
<path d="M230.292 269.338C229.364 271.535 228.415 273.723 227.51 275.93C225.094 281.821 222.723 287.731 220.28 293.611C219.018 296.649 217.641 299.64 216.302 302.897C214.046 303.176 211.805 303.21 209.261 303.193C209.825 300.918 210.426 298.541 211.603 296.496C217.205 286.764 222.958 277.119 228.687 267.461C228.884 267.128 229.401 266.985 230.008 266.975C230.262 267.91 230.277 268.624 230.292 269.338Z" fill="#03F31C"/>
<path d="M238.356 235.206C234.564 241.783 230.775 248.363 226.978 254.938C223.141 261.583 219.232 268.188 215.473 274.878C212.131 280.825 208.892 286.833 205.725 292.875C204.049 296.073 202.622 299.402 201.034 302.905C200.274 303.176 199.563 303.212 198.594 302.943C198.525 301.901 198.587 301.099 198.924 300.437C202.373 293.658 205.637 286.771 209.397 280.168C216.477 267.732 223.817 255.443 231.127 243.139C232.91 240.137 234.992 237.314 237.107 234.418C237.636 234.686 237.996 234.946 238.356 235.206Z" fill="#03F37C"/>
<path d="M226.258 303.149C225.549 303.182 224.839 303.215 223.88 302.958C224.688 300.374 225.728 298.073 226.805 295.789C229.858 289.313 233.206 282.96 235.922 276.347C240.182 265.973 244.017 255.425 248.038 244.953C248.742 243.121 249.472 241.3 250.416 239.531C251.391 239.779 252.14 239.97 252.908 240.317C252.926 240.473 252.961 240.786 252.931 241.009C252.863 241.531 252.825 241.829 252.638 242.331C252.405 243.385 252.323 244.234 252.358 245.167C252.575 245.419 252.636 245.599 252.4 245.878C251.609 246.49 250.836 246.92 250.579 247.557C248.187 253.472 246.012 259.476 243.523 265.348C240.266 273.031 236.831 280.64 233.374 288.236C231.092 293.248 228.636 298.18 226.258 303.149Z" fill="#60F303"/>
<path d="M236.937 234.409C234.992 237.314 232.909 240.137 231.127 243.139C223.817 255.443 216.477 267.732 209.397 280.168C205.637 286.771 202.373 293.658 198.924 300.437C198.587 301.099 198.525 301.901 198.331 302.889C197.608 303.177 196.89 303.214 195.906 303.192C198.085 298.091 200.33 292.939 203.009 288.024C211.186 273.022 219.489 258.088 227.843 243.183C229.664 239.934 231.904 236.92 234.339 233.631C235.463 233.779 236.2 234.094 236.937 234.409Z" fill="#02F394"/>
<path d="M250.19 239.474C249.472 241.3 248.741 243.121 248.038 244.953C244.017 255.425 240.182 265.973 235.922 276.347C233.206 282.96 229.858 289.313 226.805 295.789C225.728 298.073 224.688 300.374 223.618 302.907C223.102 303.181 222.601 303.214 221.851 303.199C222.789 300.188 223.884 297.187 225.178 294.274C228.202 287.466 231.33 280.705 234.398 273.917C235.489 271.506 236.677 269.124 237.546 266.632C238.22 264.696 238.468 262.611 239.072 260.154C240.678 256.198 242.761 252.789 243.384 249.133C244.07 245.104 245.665 241.871 248.43 238.884C249.155 239.063 249.672 239.269 250.19 239.474Z" fill="#4AF301"/>
<path d="M222.819 110.951C225.643 115.399 228.055 119.87 230.984 123.972C239.07 135.301 247.291 146.537 255.639 157.675C258.074 160.924 261.113 163.719 264.059 167.044C264.236 167.67 264.227 167.973 264.053 168.355C263.585 168.64 263.281 168.845 262.978 169.05C260.279 166.234 257.204 163.688 254.942 160.556C243.403 144.58 232.07 128.455 220.687 112.366C220.251 111.75 220.034 110.979 219.706 110.051C220.68 110.149 221.662 110.478 222.819 110.951Z" fill="#B591D3"/>
<path d="M268.124 162.317C268.143 161.809 268.163 161.302 268.369 160.43C269.09 159.253 269.623 158.44 270.156 157.628C271.747 155.679 272.673 157.145 273.724 158.285C276.38 161.166 279.032 164.054 281.779 166.848C282.417 167.497 283.424 167.784 284.498 168.242C284.759 171.566 284.782 174.886 284.518 178.51C281.727 176.752 278.998 174.906 276.775 172.576C273.693 169.346 270.99 165.754 268.124 162.317Z" fill="#AC27F3"/>
<path d="M269.941 157.566C269.623 158.44 269.09 159.253 268.379 160.176C265.18 156.936 262.034 153.689 259.159 150.216C252.335 141.971 245.588 133.661 238.922 125.288C236.722 122.525 234.843 119.504 232.886 116.555C232.686 116.253 232.958 115.637 233.184 115.096C233.959 115.226 234.56 115.427 235.376 115.734C237.563 118.862 239.245 122.127 241.558 124.86C250.841 135.831 260.319 146.637 269.941 157.566Z" fill="#B528D4"/>
<path d="M131.762 157.677C132.953 159.702 134.145 161.726 135.43 163.976C133.541 162.934 131.331 161.914 129.62 160.349C126.048 157.08 122.687 153.572 119.355 150.053C118.415 149.061 117.875 147.69 116.951 146.406C116.719 142.699 116.688 139.077 116.87 135.313C121.976 142.673 126.869 150.175 131.762 157.677Z" fill="#B4D4C0"/>
<path d="M284.737 247.385C284.77 248.782 284.803 250.179 284.53 251.807C280.78 250.774 277.335 249.509 273.737 248.13C271.376 247.319 269.168 246.622 266.881 245.712C264.651 242.98 260.574 241.827 261.338 237.42C263.312 237.343 265.325 236.652 266.684 237.311C271.35 239.573 275.788 242.305 280.312 244.862C281.79 245.697 283.262 246.543 284.737 247.385Z" fill="#06F362"/>
<path d="M267.489 212.14C271.488 209.608 273.812 212.574 276.396 214.812C278.989 217.058 281.645 219.231 284.51 221.447C284.781 224.356 284.813 227.254 284.794 230.456C283.692 230.059 282.531 229.48 281.613 228.635C278.485 225.752 275.442 222.776 272.215 219.419C270.539 216.715 269.014 214.428 267.489 212.14Z" fill="#01F0DC"/>
<path d="M267.926 162.367C270.99 165.754 273.693 169.346 276.775 172.576C278.998 174.905 281.727 176.752 284.463 178.81C284.74 179.997 284.783 181.187 284.53 182.648C282.879 182.066 281.558 181.154 280.163 180.373C277.28 178.759 274.358 177.216 271.422 175.411C269 172.877 266.609 170.576 264.218 168.275C264.227 167.973 264.236 167.67 264.264 167.14C264.692 166.203 265.099 165.492 265.549 164.578C266.304 163.722 267.016 163.07 267.926 162.367Z" fill="#7C5AF3"/>
<path d="M253.509 224.116C254.148 224.25 254.876 224.229 255.412 224.54C263.915 229.475 272.384 234.469 280.891 239.397C281.916 239.991 283.12 240.277 284.485 240.706C284.768 241.642 284.807 242.577 284.55 243.781C283.554 243.762 282.818 243.537 282.158 243.174C277.523 240.627 273.043 237.734 268.226 235.602C265.195 234.261 261.762 234.016 259.121 231.53C257.577 230.076 255.432 229.259 253.497 227.864C253.302 226.395 253.167 225.22 253.152 224.06C253.272 224.075 253.509 224.116 253.509 224.116Z" fill="#02F394"/>
<path d="M226.509 303.199C228.636 298.181 231.092 293.248 233.374 288.236C236.831 280.64 240.265 273.031 243.523 265.348C246.012 259.476 248.187 253.472 250.578 247.557C250.836 246.92 251.609 246.49 252.433 246.032C252.776 246.3 252.856 246.488 252.927 246.964C252.861 248.872 252.831 250.48 252.801 252.089C251.914 252.952 250.685 253.654 250.191 254.703C243.719 268.429 237.337 282.196 230.974 295.973C229.97 298.147 229.175 300.417 228.28 302.893C227.771 303.179 227.265 303.214 226.509 303.199Z" fill="#78F303"/>
<path d="M116.623 225.083C121.3 224.255 125.242 219.265 125.057 213.072C124.893 207.605 123.854 202.163 123.355 196.424C123.507 196.138 123.814 196.123 123.814 196.123C125.042 199.235 126.777 202.249 127.397 205.478C128.825 212.919 128.201 220.235 123.49 226.567C121.996 228.576 120.335 230.981 116.861 230.147C116.616 228.533 116.59 226.953 116.623 225.083Z" fill="#01A6F3"/>
<path d="M232.52 303.2C232.722 301.805 233.065 300.404 233.675 299.131C238.73 288.6 243.792 278.073 248.964 267.599C249.835 265.834 251.244 264.334 252.727 262.834C253.17 263.135 253.328 263.273 253.519 263.616C253.52 264.362 253.524 264.861 253.428 265.579C253.187 266.747 253.045 267.694 252.892 268.653C252.88 268.664 252.856 268.688 252.856 268.688C251.275 270.919 249.414 273.005 248.167 275.409C244.679 282.138 241.432 288.992 238.118 295.811C237.018 298.074 236.005 300.38 234.94 302.906C234.214 303.181 233.499 303.217 232.52 303.2Z" fill="#B1F303"/>
<path d="M131.78 157.4C126.869 150.175 121.976 142.673 116.94 134.997C118.996 133.821 121.196 132.818 123.644 131.801C125.808 137.607 127.765 143.415 129.625 149.253C130.45 151.844 131.08 154.498 131.78 157.4Z" fill="#02D7DD"/>
<path d="M271.452 175.644C274.358 177.216 277.28 178.759 280.163 180.373C281.558 181.154 282.879 182.066 284.473 182.939C284.759 186.053 284.806 189.147 284.57 192.51C282.876 191.912 281.464 191.044 279.961 189.984C278.382 187.933 276.896 186.076 275.571 184.07C274.796 182.39 273.785 180.896 272.945 179.311C272.331 178.15 271.941 176.87 271.452 175.644Z" fill="#4779F3"/>
<path d="M253.558 228.156C255.432 229.26 257.577 230.076 259.121 231.53C261.762 234.016 265.195 234.261 268.226 235.602C273.043 237.734 277.523 240.627 282.158 243.174C282.818 243.537 283.554 243.762 284.496 244.056C284.773 244.988 284.809 245.913 284.791 247.112C283.262 246.543 281.79 245.697 280.312 244.862C275.788 242.305 271.35 239.573 266.684 237.311C265.325 236.652 263.312 237.343 261.225 237.209C258.347 234.93 255.844 232.856 253.341 230.528C253.249 229.779 253.156 229.283 253.189 228.632C253.396 228.369 253.477 228.263 253.558 228.156Z" fill="#03F37C"/>
<path d="M149.819 123.04C149.812 122.912 149.805 122.784 149.787 122.462C150.994 121.653 152.211 121.036 153.678 120.411C154.966 123.755 156.006 127.106 157.117 130.959C158.853 136.126 160.534 140.784 162.176 145.456C163.596 149.498 164.973 153.555 166.155 157.545C164.415 155.001 162.566 152.655 161.434 150.004C159.416 145.28 157.97 140.314 156.013 135.562C154.887 132.828 153.226 130.315 151.806 127.702C151.799 127.2 151.791 126.698 151.749 125.72C151.082 124.51 150.45 123.775 149.819 123.04Z" fill="#B4ED8A"/>
<path d="M273.889 248.244C277.334 249.509 280.78 250.774 284.462 252.101C282.899 255.168 281.098 258.173 279.116 261.294C277.288 260.289 275.64 259.167 273.752 257.72C273.453 255.834 273.396 254.272 273.533 252.509C273.781 250.952 273.835 249.598 273.889 248.244Z" fill="#D4D136"/>
<path d="M120.945 250.548C126.147 253.765 127.301 258.159 124.579 263.849C122.017 260.231 119.516 256.358 116.948 252.242C118.151 251.533 119.421 251.065 120.945 250.548Z" fill="#D4D136"/>
<path d="M120.484 177.29C120.922 177.944 121.36 178.597 121.829 179.755C121.611 182.916 121.362 185.573 120.87 188.223C117.804 187.942 117.324 185.701 116.722 183.562C116.679 180.867 116.637 178.172 116.787 175.36C117.477 177.073 118.518 177.973 120.484 177.29Z" fill="#559EF3"/>
<path d="M284.801 203.225C283.94 203.239 282.861 203.2 282.388 202.645C279.806 199.614 277.373 196.456 275.097 193.113C276.253 193.09 277.201 193.294 278.373 193.544C280.642 195.131 282.688 196.671 284.733 198.211C284.776 199.786 284.819 201.361 284.801 203.225Z" fill="#00C8F1"/>
<path d="M284.796 197.918C282.688 196.671 280.642 195.13 278.365 193.318C277.697 192.125 277.26 191.203 277.093 190.262C278.26 190.22 279.156 190.198 280.052 190.177C281.464 191.044 282.876 191.912 284.513 192.815C284.779 194.442 284.819 196.034 284.796 197.918Z" fill="#01A6F3"/>
<path d="M116.663 183.862C117.324 185.701 117.804 187.942 120.89 188.513C121.167 190.34 121.182 191.869 121.196 193.399C119.834 192.649 118.471 191.899 116.921 191.055C116.691 188.695 116.647 186.429 116.663 183.862Z" fill="#4779F3"/>
<path d="M120.496 177.057C118.518 177.973 117.477 177.073 116.844 175.054C116.672 173.083 116.636 171.301 116.66 169.227C117.983 171.564 119.245 174.194 120.496 177.057Z" fill="#B4B4D2"/>
<path d="M250.708 121.543C250.495 121.578 250.157 121.482 249.683 121.268C249.892 121.237 250.238 121.324 250.708 121.543Z" fill="#C600D2"/>
<path d="M252.576 122.249C252.398 122.27 252.11 122.182 251.707 121.993C251.883 121.975 252.175 122.057 252.576 122.249Z" fill="#C600D2"/>
<path d="M254.141 122.842C253.912 122.887 253.554 122.795 253.065 122.569C253.293 122.525 253.652 122.615 254.141 122.842Z" fill="#C600D2"/>
<path d="M125.651 131.056C125.498 131.237 125.135 131.418 124.566 131.625C124.72 131.452 125.08 131.253 125.651 131.056Z" fill="#02D7DD"/>
<path d="M201.05 103.007C200.629 103.056 200.502 103.042 200.188 102.988C200.54 102.839 201.079 102.73 201.781 102.779C201.743 102.94 201.543 102.942 201.05 103.007Z" fill="#D3BC0F"/>
<path d="M201.032 178.22C200.884 177.499 200.735 176.777 200.567 175.831C200.625 175.05 200.703 174.495 201.116 173.798C204.473 175.655 207.376 177.875 210.551 179.589C213.523 181.193 215.529 179.838 215.596 176.511C215.622 175.207 215.594 173.797 215.141 172.606C213.46 168.195 211.771 163.771 209.744 159.514C207.718 155.26 205.284 151.2 203.254 147.064C205.304 149.028 207.198 150.926 208.934 152.959C210.184 154.424 211.225 156.068 212.387 157.878C213.952 161.705 215.488 165.285 217.042 169.113C218.966 174.594 222.093 179.48 221.357 185.445C220.142 185.515 219.203 185.528 217.96 185.521C215.201 185.521 212.747 185.543 210.045 185.563C209.308 185.502 208.819 185.442 208.315 185.15C206.376 182.145 204.809 178.984 201.032 178.22Z" fill="#60F303"/>
<path d="M203.029 147.055C205.284 151.2 207.718 155.26 209.744 159.514C211.771 163.771 213.46 168.195 215.141 172.606C215.595 173.797 215.622 175.207 215.596 176.511C215.529 179.838 213.523 181.193 210.551 179.589C207.376 177.875 204.474 175.655 201.223 173.617C200.964 172.218 200.935 170.857 201.202 169.248C202.536 169.357 203.585 169.684 204.609 170.076C208.001 171.375 209.047 170.734 208.942 167.005C208.774 160.99 205.312 156.426 201.893 151.887C201.738 151.681 201.279 151.704 200.962 151.621C200.903 150.043 200.845 148.466 200.728 146.598C200.725 145.983 200.781 145.658 201.051 145.229C201.854 145.769 202.442 146.412 203.029 147.055Z" fill="#4AF301"/>
<path d="M200.924 151.931C201.279 151.704 201.738 151.681 201.893 151.887C205.312 156.425 208.774 160.99 208.942 167.004C209.047 170.734 208.001 171.374 204.609 170.076C203.585 169.684 202.536 169.357 201.254 168.961C200.97 163.362 200.928 157.802 200.924 151.931Z" fill="#30F302"/>
<path d="M237.107 234.418C236.2 234.094 235.463 233.779 234.487 233.465C232.638 232.797 231.027 232.128 229.177 231.463C226.22 230.372 223.503 229.277 220.545 228.182C220.305 228.183 220.067 228.002 219.883 227.883C219.698 227.764 219.587 227.524 219.642 227.266C220.151 223.4 220.605 219.791 221.28 216.214C222.218 216.463 222.935 216.683 223.641 217.158C224.207 219.199 224.783 220.982 225.423 222.966C226.745 222.108 227.517 221.606 227.781 221.435C230.341 224.606 232.667 227.584 235.103 230.468C236.488 232.107 238.055 233.593 239.54 235.148C239.276 235.157 239.013 235.167 238.553 235.191C237.996 234.946 237.636 234.686 237.107 234.418Z" fill="#D4EF02"/>
<path d="M219.587 227.524C219.587 227.524 219.699 227.764 219.734 227.892C214 235.734 208.238 243.455 202.444 251.152C202.006 251.733 201.343 252.145 200.56 252.679C202.194 249.253 204.057 245.787 205.914 242.317C208.699 237.11 211.48 231.9 214.433 226.359C214.724 225.99 214.845 225.955 215.187 226.028C216.802 226.599 218.195 227.061 219.587 227.524Z" fill="#02D7DD"/>
<path d="M273.338 252.711C273.396 254.272 273.453 255.834 273.514 257.684C270.006 257.562 267.888 259.126 265.589 261.901C262.328 265.837 258.011 268.898 254.145 272.332C253.834 272.097 253.522 271.862 253.21 271.628C253.093 270.816 252.975 270.005 252.857 268.941C252.856 268.688 252.88 268.664 253.134 268.653C259.607 265.983 264.167 261.645 267.06 255.354C269.346 254.531 270.539 251.774 273.338 252.711Z" fill="#B1F303"/>
<path d="M148.9 240.14C148.9 240.14 148.685 240.054 148.578 239.712C148.471 235.502 148.603 231.626 148.395 227.769C148.328 226.516 147.7 224.894 146.764 224.155C142.828 221.045 141.463 216.727 140.487 211.841C140.281 208.948 140.671 206.115 139.732 203.828C138.265 200.253 138.718 197.713 141.808 195.549C141.929 195.542 142.049 195.534 142.391 195.747C143.945 197.084 145.427 198.068 146.563 199.358C147.423 200.333 148.334 201.681 148.375 202.892C148.599 209.567 150.598 215.743 152.95 221.902C154.778 226.692 156.178 231.645 157.567 236.635C156.812 237.014 156.26 237.284 155.472 237.591C153.125 238.465 151.013 239.302 148.9 240.14Z" fill="#02D7DD"/>
<path d="M174.763 230.16C175.361 229.988 175.748 229.904 176.272 229.673C176.702 229.526 176.994 229.524 177.492 229.764C176.948 231.829 176.219 233.661 175.446 235.474C174.029 238.796 172.587 242.107 170.945 245.521C169.803 246.816 168.448 247.874 168.006 249.23C164.401 260.298 157.706 269.78 152.403 279.97C151.505 281.695 150.091 283.152 148.915 284.733C148.906 280.946 148.898 277.158 149.122 272.917C153.315 266.021 157.421 259.661 161.157 253.091C162.463 250.794 162.859 247.979 163.805 245.211C165.946 240.86 167.954 236.7 169.994 232.379C170.368 231.976 170.709 231.733 171.051 231.489C172.218 231.075 173.385 230.661 174.763 230.16Z" fill="#7C5AF3"/>
<path d="M170.913 231.297C170.709 231.733 170.368 231.976 169.734 232.339C168.211 232.938 166.98 233.418 165.517 233.926C164.824 234.033 164.363 234.11 163.693 234.056C162.879 232.657 162.134 231.435 161.695 230.112C160.069 225.217 158.611 220.266 156.964 215.378C155.003 209.561 152.136 203.956 153.114 197.512C153.324 197.003 153.45 196.433 153.763 195.998C154.362 195.169 155.068 194.417 155.73 193.634C156.58 194.375 157.834 194.954 158.211 195.886C159.971 200.248 161.519 204.696 163.087 209.133C165.673 216.449 168.215 223.78 170.913 231.297Z" fill="#02DFB8"/>
<path d="M141.609 195.444C138.718 197.714 138.265 200.253 139.732 203.828C140.671 206.115 140.281 208.948 140.231 211.832C137.017 210.971 135.637 212.197 135.405 215.155C135.327 216.144 135.305 217.141 135.158 218.119C133.824 226.956 132.946 235.754 137.195 244.153C136.038 244.632 134.882 245.111 133.437 245.357C132.25 242.161 131.095 239.246 130.535 236.22C130.094 233.838 129.776 231.131 130.464 228.895C133.212 219.958 133.168 211.025 131.038 202.076C130.59 200.193 128.957 198.593 127.871 196.862C127.859 196.17 127.847 195.477 128.07 194.4C131.484 193.659 134.665 193.303 137.845 192.947C139.033 193.745 140.222 194.542 141.609 195.444Z" fill="#01D7EF"/>
<path d="M152.869 197.504C152.136 203.956 155.003 209.561 156.964 215.378C158.611 220.266 160.069 225.217 161.695 230.112C162.134 231.435 162.879 232.657 163.517 234.217C161.623 235.181 159.696 235.854 157.769 236.526C156.178 231.645 154.778 226.692 152.95 221.902C150.598 215.743 148.599 209.567 148.375 202.892C148.334 201.681 147.423 200.333 146.563 199.358C145.427 198.068 143.945 197.084 142.572 195.749C145.517 194.631 148.524 193.425 150.821 196.926C151.089 197.334 152.007 197.316 152.869 197.504Z" fill="#02D8C5"/>
<path d="M137.859 192.694C134.665 193.303 131.484 193.659 128.065 194.141C126.893 193.322 125.959 192.378 125.026 191.433C124.739 191.561 124.453 191.688 124.166 191.815C124.051 193.069 123.935 194.324 123.817 195.851C123.814 196.124 123.508 196.138 123.355 196.154C122.564 195.403 121.926 194.636 121.242 193.635C121.182 191.87 121.167 190.34 121.132 188.52C121.362 185.573 121.611 182.916 121.844 179.996C124.794 179.669 127.76 179.605 131.027 179.767C133.112 182.425 135.417 183.781 138.617 183.688C139.128 185.793 139.549 187.685 139.97 189.576C139.271 190.532 138.572 191.487 137.859 192.694Z" fill="#3DC4F3"/>
<path d="M140.213 189.583C139.549 187.685 139.128 185.793 138.664 183.464C139.662 181.174 140.446 179.045 143.288 179.425C143.636 179.472 144.108 178.594 144.523 178.145C146.036 180.462 147.549 182.779 149.127 185.321C149.167 186.199 149.145 186.854 149.116 187.509C148.941 191.43 148.216 191.942 144.534 190.789C143.182 190.366 141.816 189.989 140.213 189.583Z" fill="#4FDCB5"/>
<path d="M195.416 185.37C197.253 185.347 198.798 185.393 200.666 185.447C200.989 185.455 201.041 185.586 201.01 185.83C200.978 186.564 200.977 187.054 200.962 187.844C200.96 189.932 200.971 191.721 200.938 193.773C200.726 195.664 200.56 197.293 200.171 198.857C197.465 195.1 194.181 192.313 190.486 189.856C189.028 188.887 188.154 187.041 187.013 185.593C187.745 185.558 188.476 185.522 189.476 185.425C191.537 185.389 193.33 185.414 195.416 185.37Z" fill="#D4B5C0"/>
<path d="M186.742 185.567C188.153 187.041 189.028 188.887 190.486 189.856C194.181 192.313 197.465 195.1 200.28 199.101C200.768 202.378 200.265 205.581 201.228 208.258C202.834 212.728 201.586 216.637 200.346 220.711C198.197 221.491 196.048 222.27 193.507 223.284C191.544 224.059 189.974 224.601 188.373 224.865C184.853 214.075 181.308 203.581 177.918 193.037C177.14 190.618 176.892 188.029 176.705 185.522C179.256 185.497 181.502 185.468 183.748 185.438C184.656 185.473 185.564 185.507 186.742 185.567Z" fill="#D4DCB4"/>
<path d="M200.585 220.751C201.586 216.637 202.834 212.728 201.228 208.258C200.265 205.581 200.767 202.378 200.502 199.167C200.56 197.293 200.726 195.664 201.164 193.818C203.063 194.681 204.69 195.761 206.328 197.09C207.655 199.821 208.972 202.303 210.28 205.05C208.5 210.9 206.728 216.486 204.957 222.072C203.58 221.645 202.202 221.218 200.585 220.751Z" fill="#D1F293"/>
<path d="M205.121 222.194C206.729 216.486 208.5 210.9 210.531 205.062C211.292 204.813 211.793 204.816 212.396 205.03C213.985 208.204 215.473 211.166 216.96 214.405C216.294 218.427 215.63 222.173 214.965 225.919C214.845 225.955 214.724 225.99 214.438 226.117C213.585 225.889 212.897 225.57 211.973 225.231C210.09 224.462 208.443 223.714 206.568 222.95C205.988 222.729 205.636 222.523 205.121 222.194Z" fill="#D4E76B"/>
<path d="M188.404 225.143C189.974 224.601 191.544 224.059 193.356 223.476C193.662 224.23 194.077 225.243 193.739 225.79C189.281 232.99 184.717 240.124 179.971 247.354C179.641 247.409 179.517 247.385 179.25 247.105C179.268 245.919 179.429 244.989 179.623 243.799C180.013 242.385 180.327 241.217 180.733 240.081C182.358 235.537 184.011 231.002 185.654 226.464C185.654 226.464 185.651 226.283 185.867 226.175C186.856 225.759 187.63 225.451 188.404 225.143Z" fill="#3DC4F3"/>
<path d="M183.733 185.175C181.502 185.468 179.256 185.497 176.697 185.264C174.53 179.871 172.689 174.736 170.818 169.612C169.354 165.603 167.854 161.608 166.369 157.606C164.973 153.555 163.596 149.498 162.176 145.456C160.534 140.784 158.853 136.126 157.161 131.203C157.671 131.581 158.38 132.137 158.722 132.866C160.215 136.055 161.409 139.397 163.066 142.494C167.358 150.517 171.971 158.37 176.195 166.427C178.843 171.479 181.058 176.76 183.368 181.983C183.748 182.842 183.614 183.929 183.733 185.175Z" fill="#D1F293"/>
<path d="M279.961 189.984C279.156 190.199 278.26 190.22 276.905 190.133C274.857 188.671 273.31 187.264 271.668 185.978C269.572 184.336 268.718 185.088 268.904 187.555C264.636 185.584 260.367 183.612 255.914 181.388C256.094 180.385 256.458 179.636 256.821 178.886C257.718 177.544 258.614 176.201 259.567 174.649C259.73 174.397 259.835 174.355 260.278 174.378C265.547 177.701 270.478 180.96 275.409 184.218C276.896 186.076 278.383 187.933 279.961 189.984Z" fill="#3DC4F3"/>
<path d="M256.599 178.846C256.458 179.636 256.094 180.385 255.692 181.336C255.345 181.796 255.036 182.054 254.472 182.131C253.523 180.718 252.99 179.352 252.105 178.278C246.516 171.5 240.832 164.802 235.237 158.03C234.708 157.39 234.577 156.423 234.261 155.608C235.03 155.555 235.798 155.502 236.748 155.552C243.042 163.145 249.151 170.64 255.281 178.116C255.541 178.432 256.007 178.579 256.599 178.846Z" fill="#B4D4C0"/>
<path d="M144.431 177.96C144.108 178.594 143.636 179.472 143.287 179.426C140.446 179.045 139.662 181.174 138.574 183.25C135.417 183.781 133.112 182.425 131.348 179.757C134.567 177.523 137.765 175.523 141.02 173.308C141.642 173.85 142.206 174.605 142.946 175.478C143.526 176.322 143.932 177.049 144.431 177.96Z" fill="#7AF0B5"/>
<path d="M136.501 165.877C136.688 165.982 136.917 166.27 137.182 166.742C136.993 166.637 136.768 166.349 136.501 165.877Z" fill="#B4D4C0"/>
<path d="M234.035 155.572C234.577 156.423 234.708 157.39 235.236 158.03C240.832 164.802 246.516 171.5 252.104 178.278C252.99 179.352 253.522 180.718 254.281 182.196C254.145 183.109 253.946 183.775 253.698 184.648C253.564 184.932 253.479 185.009 253.105 185.273C252.399 185.455 251.982 185.45 251.52 185.223C247.419 179.936 243.275 174.937 239.325 169.791C233.3 161.942 227.492 153.925 221.422 146.112C218.595 142.472 215.368 139.142 212.276 135.421C212.044 133.992 211.857 132.813 211.671 131.635C212.693 132.407 213.894 133.026 214.708 133.976C220.337 140.545 225.869 147.196 231.481 153.779C232.097 154.501 233.025 154.956 234.035 155.572Z" fill="#B4ECAD"/>
<path d="M211.657 131.394C211.858 132.813 212.044 133.992 212.271 135.649C212.179 136.707 212.046 137.287 211.73 138.669C208.547 134.352 205.815 130.595 203.012 126.892C202.473 126.18 201.658 125.677 200.97 125.077C200.934 122.593 200.898 120.109 200.922 117.317C203.671 119.959 206.496 122.8 208.993 125.905C210.195 127.399 210.779 129.388 211.657 131.394Z" fill="#A2F3AF"/>
<path d="M253.417 209.49C253.355 212.618 253.293 215.746 252.923 219.192C251.06 219.865 249.361 220.796 247.981 220.451C245.351 219.793 242.773 218.635 240.405 217.279C234.579 213.942 230.935 208.562 227.871 202.888C229.705 203.307 231.308 203.756 232.951 204.432C234.733 208.68 238.126 210.862 241.879 212.644C247.233 215.187 250.681 213.855 251.722 208.176C252.275 208.2 252.644 208.224 253.092 208.451C253.254 208.933 253.335 209.212 253.417 209.49Z" fill="#4AF301"/>
<path d="M253.672 209.497C253.335 209.212 253.254 208.933 253.196 208.158C253.288 205.619 253.357 203.576 253.426 201.533C256.394 203.679 259.4 205.774 262.315 207.99C263.968 209.247 265.47 210.702 267.265 212.104C269.014 214.428 270.539 216.715 272.098 219.229C267.185 216.987 261.779 215.377 257.654 211.371C256.703 210.448 255.184 210.11 253.672 209.497Z" fill="#02D8C5"/>
<path d="M227.64 202.918C230.935 208.562 234.579 213.942 240.405 217.279C242.773 218.635 245.351 219.793 247.981 220.451C249.361 220.796 251.06 219.865 252.836 219.49C253.175 220.825 253.292 222.182 253.46 223.827C253.509 224.116 253.272 224.075 252.929 224.088C250.64 223.977 248.602 224.181 246.764 223.668C240.989 222.056 236.838 218.087 232.988 213.702C232.132 212.727 230.751 212.214 229.457 211.32C227.815 208.196 226.328 205.24 225.104 202.261C225.893 202.226 226.42 202.214 227.085 202.297C227.362 202.567 227.501 202.742 227.64 202.918Z" fill="#60F303"/>
<path d="M200.912 125.346C201.658 125.677 202.473 126.179 203.012 126.892C205.815 130.595 208.547 134.352 211.73 138.669C212.046 137.287 212.179 136.707 212.317 135.899C215.368 139.142 218.595 142.472 221.422 146.112C227.492 153.925 233.3 161.942 239.325 169.791C243.275 174.937 247.419 179.936 251.239 185.28C249.865 185.601 248.728 185.642 247.346 185.639C246.606 185.548 246.11 185.502 245.589 185.224C240.111 178.277 234.647 171.574 229.212 164.845C225.774 160.589 222.206 156.423 219.016 151.987C215.758 147.457 213.211 142.385 208.323 138.904C205.769 135.446 203.339 132.186 200.908 128.926C200.89 127.822 200.872 126.719 200.912 125.346Z" fill="#B4ED8A"/>
<path d="M200.884 129.246C203.339 132.186 205.769 135.446 208.295 139.15C209.43 141.972 210.395 144.386 211.523 146.721C213.286 150.37 215.16 153.967 216.695 157.586C215.056 157.601 213.707 157.616 212.359 157.631C211.225 156.068 210.184 154.424 208.934 152.96C207.198 150.926 205.304 149.028 203.254 147.064C202.442 146.412 201.854 145.769 201.094 144.986C200.901 139.753 200.88 134.66 200.884 129.246Z" fill="#67F354"/>
<path d="M137.414 244.152C132.946 235.753 133.824 226.956 135.158 218.119C135.305 217.141 135.327 216.144 135.405 215.155C135.637 212.197 137.017 210.971 140.231 212.137C141.463 216.727 142.828 221.045 146.764 224.155C147.7 224.894 148.328 226.516 148.395 227.769C148.603 231.626 148.471 235.502 148.468 239.675C145.269 241.247 142.072 242.515 138.689 243.93C138.213 244.102 137.922 244.127 137.414 244.152Z" fill="#00E6EE"/>
<path d="M148.91 240.446C151.013 239.302 153.125 238.465 155.436 237.835C153.644 245.435 152.99 253.228 149.063 260.042C149.013 259.738 148.964 259.433 148.854 258.905C148.836 252.705 148.878 246.728 148.91 240.446Z" fill="#C600D2"/>
<path d="M166.155 157.545C167.854 161.607 169.354 165.603 170.818 169.612C172.689 174.736 174.53 179.871 176.392 185.26C176.892 188.029 177.14 190.618 177.918 193.037C181.309 203.581 184.853 214.075 188.373 224.865C187.63 225.451 186.856 225.759 185.868 226.085C182.801 217.761 179.948 209.418 177.095 201.076C175.994 197.856 174.888 194.638 173.787 191.418C171.412 184.469 169.057 177.512 166.659 170.571C164.438 164.141 162.166 157.728 159.925 151.304C157.239 143.603 154.562 135.898 151.844 127.948C153.227 130.315 154.887 132.828 156.013 135.562C157.97 140.314 159.416 145.28 161.434 150.004C162.566 152.655 164.415 155.001 166.155 157.545Z" fill="#B4ECAD"/>
<path d="M185.419 226.537C184.011 231.002 182.358 235.537 180.733 240.081C180.327 241.217 180.013 242.385 179.426 243.871C177.889 245.649 176.583 247.095 175.277 248.541C175.114 248.377 174.952 248.213 174.789 248.048C175.31 246.252 175.831 244.456 176.477 242.224C174.175 243.608 172.665 244.515 171.155 245.422C172.587 242.107 174.029 238.796 175.446 235.474C176.219 233.661 176.948 231.829 177.711 229.757C178.097 229.22 178.471 228.932 178.949 228.509C180.019 228.122 180.984 227.87 182.163 227.49C183.312 227.112 184.248 226.861 185.419 226.537Z" fill="#559EF3"/>
<path d="M149.847 123.265C150.45 123.775 151.082 124.51 151.742 125.469C151.139 124.959 150.508 124.224 149.847 123.265Z" fill="#B4ECAD"/>
<path d="M275.572 184.07C270.478 180.96 265.547 177.701 260.437 174.315C261.121 172.617 261.985 171.047 262.914 169.263C263.281 168.845 263.585 168.639 264.053 168.355C266.61 170.576 269.001 172.877 271.422 175.411C271.942 176.87 272.331 178.15 272.945 179.31C273.785 180.896 274.796 182.39 275.572 184.07Z" fill="#559EF3"/>
<path d="M253.373 201.25C253.357 203.576 253.288 205.619 253.116 207.955C252.644 208.224 252.275 208.2 251.493 208.13C249.904 206.557 248.729 205.029 247.587 203.279C250.573 200.054 248.071 197.559 246.884 194.714C246.897 194.181 246.893 193.877 247.114 193.609C249.236 194.77 251.132 195.895 253.028 197.019C253.125 198.336 253.223 199.652 253.373 201.25Z" fill="#31F31A"/>
<path d="M253.152 196.76C251.132 195.895 249.236 194.77 247.027 193.394C245.023 190.639 243.331 188.136 241.922 185.605C243.34 185.537 244.477 185.497 245.615 185.456C246.11 185.502 246.606 185.549 247.347 185.875C248.324 189.022 249.73 191.213 252.992 191.544C253.087 193.196 253.181 194.848 253.152 196.76Z" fill="#06F362"/>
<path d="M253.116 191.31C249.73 191.213 248.324 189.022 247.592 185.92C248.728 185.643 249.865 185.601 251.283 185.503C251.982 185.45 252.399 185.455 253.02 185.424C253.23 187.284 253.235 189.18 253.116 191.31Z" fill="#03F37C"/>
<path d="M200.998 178.521C204.809 178.984 206.376 182.145 208.064 185.206C207.318 185.553 206.809 185.611 206.011 185.614C204.163 185.567 202.602 185.577 201.041 185.586C201.041 185.586 200.989 185.455 200.95 185.396C200.929 183.165 200.946 180.993 200.998 178.521Z" fill="#78F303"/>
<path d="M170.945 245.521C172.665 244.515 174.175 243.608 176.477 242.225C175.831 244.456 175.31 246.252 174.789 248.049C174.952 248.213 175.114 248.377 175.277 248.541C176.583 247.095 177.89 245.649 179.393 244.131C179.429 244.989 179.268 245.919 179.063 247.08C177.01 250.707 175.001 254.104 172.987 257.498C172.422 258.449 171.841 259.391 171.159 260.544C170.282 261.328 169.223 261.74 168.79 262.506C165.129 268.989 161.752 275.637 157.943 282.03C155.386 286.322 152.264 290.278 149.188 294.497C148.941 291.515 148.901 288.421 148.888 285.03C150.091 283.152 151.505 281.696 152.403 279.97C157.706 269.78 164.401 260.298 168.006 249.23C168.448 247.874 169.803 246.816 170.945 245.521Z" fill="#4779F3"/>
<path d="M149.008 260.349C152.99 253.228 153.644 245.436 155.671 237.798C156.26 237.284 156.812 237.014 157.567 236.635C159.696 235.854 161.623 235.181 163.726 234.348C164.363 234.11 164.824 234.033 165.511 234.195C164.848 236.782 163.759 239.08 163.156 241.499C162.861 242.683 163.471 244.093 163.671 245.401C162.859 247.979 162.463 250.794 161.157 253.091C157.421 259.661 153.315 266.021 149.164 272.614C148.966 268.728 148.96 264.692 149.008 260.349Z" fill="#AC27F3"/>
<path d="M248.222 238.909C245.665 241.871 244.07 245.104 243.384 249.133C242.761 252.79 240.678 256.198 239.07 259.868C237.711 261.008 236.352 261.854 235.368 263.017C233.7 264.991 232.269 267.165 230.515 269.297C230.277 268.624 230.262 267.91 230.233 266.928C232.897 260.998 235.54 255.32 238.264 249.68C240.175 245.724 242.196 241.821 244.469 237.648C245.921 237.904 247.072 238.406 248.222 238.909Z" fill="#31F31A"/>
<path d="M248.43 238.883C247.072 238.406 245.921 237.904 244.537 237.413C243.361 236.999 242.419 236.574 241.262 236.154C240.665 235.912 240.283 235.666 239.721 235.284C238.055 233.593 236.488 232.107 235.103 230.468C232.667 227.584 230.341 224.606 227.782 221.435C227.517 221.606 226.745 222.108 225.423 222.966C224.783 220.982 224.207 219.198 223.901 217.124C224.87 216.83 225.569 216.826 226.371 217.024C228.166 218.748 229.876 220.252 231.547 221.797C235.258 225.231 238.65 229.114 242.752 231.986C245.661 234.023 248.754 236.69 252.962 236.326C252.969 237.761 252.929 238.961 252.889 240.162C252.14 239.97 251.391 239.779 250.416 239.531C249.672 239.269 249.155 239.063 248.43 238.883Z" fill="#B1F303"/>
<path d="M127.863 197.144C128.957 198.593 130.59 200.193 131.038 202.076C133.168 211.025 133.212 219.958 130.464 228.895C129.776 231.131 130.094 233.838 130.535 236.22C131.095 239.246 132.251 242.161 133.199 245.393C132.309 246.042 131.37 246.423 130.21 246.814C128.542 243.54 127.287 240.156 125.602 237C123.575 233.206 125.357 230.194 127.046 227.063C131.365 219.055 130.708 210.729 128.672 202.297C128.287 200.701 128.122 199.051 127.863 197.144Z" fill="#00C8F1"/>
<path d="M269.087 187.667C268.718 185.088 269.572 184.336 271.668 185.978C273.309 187.265 274.857 188.671 276.635 190.153C277.26 191.204 277.697 192.125 278.141 193.272C277.201 193.294 276.253 193.09 275.062 192.882C272.968 191.178 271.119 189.478 269.087 187.667Z" fill="#02B8F0"/>
<path d="M253.523 263.367C253.328 263.273 253.17 263.136 252.973 262.818C252.896 261.76 252.897 260.84 252.888 259.477C252.872 258.924 252.866 258.813 252.861 258.702C253.032 258.602 253.178 258.473 253.617 258.148C257.482 256.201 258.781 252.946 259.842 249.354C261.267 249.137 262.438 248.934 263.543 248.962C262.833 250.797 262.19 252.401 261.498 254.24C258.807 257.438 256.165 260.403 253.523 263.367Z" fill="#60F303"/>
<path d="M252.824 252.294C252.831 250.48 252.862 248.872 253.167 246.943C255.715 246.148 257.901 245.566 258.533 242.747C262.572 243.973 262.671 244.311 260.228 247.294C259.904 247.689 259.781 248.25 259.322 248.747C257.041 250.279 255.004 251.799 252.967 253.319C252.927 253.046 252.887 252.773 252.824 252.294Z" fill="#31F31A"/>
<path d="M252.955 253.586C255.003 251.799 257.04 250.279 259.331 248.905C259.584 249.051 259.589 249.369 259.589 249.369C258.781 252.946 257.482 256.201 253.705 258.03C253.296 256.67 253.12 255.261 252.955 253.586Z" fill="#4AF301"/>
<path d="M252.783 258.773C252.866 258.812 252.872 258.923 252.876 259.201C252.659 259.232 252.603 259.058 252.783 258.773Z" fill="#B1F303"/>
<path d="M259.842 249.354C259.589 249.369 259.584 249.051 259.575 248.892C259.781 248.25 259.904 247.689 260.228 247.294C262.671 244.311 262.572 243.973 258.357 242.581C256.282 241.869 254.622 241.327 252.961 240.786C252.961 240.786 252.926 240.473 252.907 240.317C252.929 238.961 252.969 237.761 252.981 236.045C253.083 233.948 253.212 232.365 253.34 230.782C255.844 232.856 258.347 234.929 260.964 237.214C260.574 241.827 264.651 242.98 266.672 245.808C265.564 246.988 264.587 247.86 263.61 248.731C262.438 248.934 261.267 249.137 259.842 249.354Z" fill="#67F354"/>
<path d="M252.931 241.009C254.622 241.327 256.282 241.869 258.119 242.576C257.901 245.566 255.715 246.148 253.202 246.643C252.856 246.488 252.776 246.3 252.691 245.946C252.636 245.599 252.575 245.419 252.549 244.984C252.677 243.853 252.732 242.99 252.787 242.127C252.825 241.829 252.863 241.531 252.931 241.009Z" fill="#05F334"/>
<path d="M252.638 242.331C252.732 242.99 252.677 243.854 252.431 244.9C252.323 244.234 252.405 243.385 252.638 242.331Z" fill="#78F303"/>
<path d="M263.543 248.962C264.587 247.86 265.564 246.988 266.751 246.021C269.168 246.622 271.376 247.319 273.737 248.13C273.835 249.598 273.781 250.952 273.533 252.509C270.539 251.774 269.346 254.531 266.809 255.349C265.81 255.358 265.307 255.353 264.737 255.12C263.629 254.596 262.588 254.301 261.547 254.005C262.19 252.401 262.833 250.797 263.543 248.962Z" fill="#93F328"/>
<path d="M229.612 211.489C230.751 212.214 232.132 212.728 232.988 213.702C236.838 218.087 240.989 222.056 246.764 223.668C248.602 224.181 250.64 223.977 252.81 224.072C253.167 225.22 253.302 226.395 253.497 227.864C253.477 228.263 253.396 228.369 252.944 228.636C249.576 227.831 246.09 227.531 243.682 225.764C238.68 222.091 234.249 217.641 229.583 213.257C229.593 212.498 229.602 211.993 229.612 211.489Z" fill="#78F303"/>
<path d="M264.804 255.348C265.307 255.353 265.81 255.358 266.565 255.369C264.167 261.646 259.607 265.983 253.146 268.641C253.045 267.694 253.187 266.747 253.66 265.537C254.947 264.738 256.074 264.378 256.824 263.637C259.552 260.943 262.154 258.122 264.804 255.348Z" fill="#9CF300"/>
<path d="M264.737 255.12C262.154 258.121 259.552 260.943 256.824 263.637C256.074 264.378 254.947 264.738 253.761 265.316C253.524 264.861 253.52 264.363 253.519 263.616C256.165 260.403 258.807 257.439 261.498 254.24C262.588 254.301 263.629 254.597 264.737 255.12Z" fill="#78F303"/>
<path d="M229.583 213.51C234.249 217.641 238.68 222.091 243.682 225.764C246.09 227.531 249.576 227.831 252.818 228.792C253.156 229.283 253.249 229.779 253.341 230.528C253.212 232.365 253.083 233.948 252.935 235.811C248.754 236.69 245.662 234.023 242.752 231.986C238.65 229.114 235.258 225.231 231.547 221.797C229.876 220.252 228.166 218.748 226.283 216.808C225.062 212.772 228.767 214.892 229.583 213.51Z" fill="#9CF300"/>
<path d="M212.387 157.878C213.707 157.616 215.056 157.601 216.811 157.777C217.968 158.771 218.797 159.514 219.456 160.384C224.985 167.679 230.507 174.978 235.953 182.333C236.564 183.158 236.688 184.343 236.725 185.417C234.16 185.439 231.908 185.404 229.641 185.123C226.594 178.619 224.532 171.599 217.024 168.865C215.488 165.285 213.952 161.705 212.387 157.878Z" fill="#93F328"/>
<path d="M226.947 202.202C226.42 202.214 225.893 202.226 224.916 202.115C222.227 201.213 219.99 200.434 217.534 199.535C215.464 198.335 213.611 197.254 211.752 195.895C211.692 194.686 211.639 193.756 211.746 192.654C211.369 190.176 210.831 187.87 210.293 185.564C212.747 185.543 215.201 185.521 217.956 185.775C218.441 189.421 221.009 190.441 223.608 191.679C224.068 192.683 224.506 193.459 224.889 194.46C225 195.913 225.03 197.18 225.368 198.359C225.749 199.682 226.409 200.924 226.947 202.202Z" fill="#67F354"/>
<path d="M217.042 169.113C224.532 171.599 226.595 178.619 229.335 185.17C227.017 185.517 224.988 185.571 222.738 185.586C222.222 185.495 221.928 185.442 221.633 185.389C222.093 179.48 218.966 174.594 217.042 169.113Z" fill="#78F303"/>
<path d="M210.045 185.563C210.831 187.87 211.369 190.176 211.529 192.618C209.98 192.102 208.809 191.451 207.636 190.554C207.188 188.762 206.744 187.216 206.299 185.67C206.809 185.611 207.318 185.553 208.078 185.438C208.819 185.442 209.308 185.502 210.045 185.563Z" fill="#7AF0B5"/>
<path d="M221.357 185.445C221.928 185.442 222.222 185.495 222.736 185.859C223.165 187.931 223.375 189.691 223.585 191.452C221.009 190.441 218.441 189.421 218.26 185.795C219.203 185.528 220.142 185.515 221.357 185.445Z" fill="#06F362"/>
<path d="M217.752 199.655C219.99 200.434 222.228 201.213 224.653 202.138C226.328 205.24 227.815 208.196 229.457 211.32C229.602 211.993 229.593 212.498 229.583 213.257C228.767 214.892 225.062 212.772 226.179 216.607C225.569 216.827 224.87 216.83 223.911 216.868C222.935 216.682 222.218 216.463 221.251 215.983C220.771 215.173 220.542 214.623 220.311 213.807C220.477 212.371 220.76 211.203 220.78 210.031C220.802 208.697 220.832 207.28 220.425 206.041C219.707 203.855 218.661 201.778 217.752 199.655Z" fill="#93F328"/>
<path d="M220.313 214.073C220.542 214.623 220.771 215.173 221.029 215.953C220.605 219.791 220.151 223.4 219.642 227.266C218.195 227.061 216.802 226.599 215.187 226.028C215.63 222.173 216.294 218.428 217.239 214.412C218.45 214.119 219.381 214.096 220.313 214.073Z" fill="#D4D136"/>
<path d="M163.805 245.211C163.471 244.093 162.861 242.683 163.156 241.499C163.759 239.08 164.848 236.782 165.743 234.166C166.98 233.418 168.211 232.938 169.701 232.499C167.954 236.7 165.946 240.86 163.805 245.211Z" fill="#B54AD3"/>
<path d="M206.317 196.841C204.69 195.761 203.063 194.681 201.209 193.556C200.971 191.721 200.96 189.932 201.19 187.882C203.046 188.718 204.661 189.814 206.29 191.162C205.609 193.224 208.925 195.025 206.317 196.841Z" fill="#B4ECAD"/>
<path d="M206.276 190.911C204.661 189.814 203.046 188.718 201.204 187.583C200.977 187.054 200.978 186.564 201.01 185.829C202.602 185.576 204.163 185.567 206.011 185.613C206.744 187.216 207.188 188.762 207.41 190.582C206.883 190.873 206.58 190.892 206.276 190.911Z" fill="#A2F3AF"/>
<path d="M206.29 191.162C206.58 190.892 206.883 190.874 207.413 190.827C208.809 191.451 209.98 192.102 211.368 192.789C211.639 193.756 211.692 194.686 211.72 196.176C211.895 199.43 212.095 202.124 212.294 204.819C211.793 204.816 211.292 204.813 210.54 204.798C208.972 202.303 207.655 199.821 206.328 197.09C208.925 195.026 205.608 193.224 206.29 191.162Z" fill="#B4ED8A"/>
<path d="M212.396 205.03C212.095 202.124 211.895 199.43 211.728 196.455C213.612 197.254 215.464 198.335 217.534 199.535C218.661 201.777 219.707 203.855 220.425 206.04C220.832 207.279 220.802 208.697 220.78 210.031C220.76 211.203 220.477 212.371 220.311 213.807C219.381 214.096 218.45 214.119 217.239 214.135C215.473 211.166 213.985 208.204 212.396 205.03Z" fill="#B3F160"/>
<path d="M247.553 203.501C248.729 205.029 249.904 206.557 251.308 208.13C250.681 213.855 247.233 215.187 241.879 212.644C238.126 210.862 234.733 208.68 233.041 204.229C233.257 203.242 233.423 202.684 233.832 202.143C234.926 202.618 235.896 202.937 236.609 203.554C241.564 207.844 243.191 207.859 247.553 203.501Z" fill="#30F302"/>
<path d="M233.59 202.126C233.423 202.684 233.256 203.243 233 204.003C231.307 203.756 229.705 203.307 227.871 202.888C227.501 202.742 227.362 202.567 227.085 202.297C226.409 200.925 225.749 199.682 225.368 198.359C225.03 197.18 225 195.913 225.127 194.441C225.741 194.188 226.061 194.179 226.477 194.372C227.578 195.503 228.44 196.917 229.616 197.263C232.216 198.027 233.276 199.681 233.59 202.126Z" fill="#31F31A"/>
<path d="M237.038 185.361C236.688 184.343 236.564 183.158 235.953 182.333C230.507 174.978 224.985 167.679 219.456 160.384C218.797 159.514 217.968 158.771 217.102 157.777C215.159 153.967 213.286 150.37 211.523 146.72C210.395 144.386 209.43 141.972 208.419 139.348C213.211 142.385 215.758 147.457 219.016 151.987C222.206 156.423 225.774 160.589 229.212 164.845C234.647 171.574 240.111 178.278 245.589 185.224C244.477 185.497 243.34 185.537 241.631 185.545C239.719 185.462 238.379 185.412 237.038 185.361Z" fill="#B3F160"/>
<path d="M233.832 202.144C233.276 199.681 232.216 198.027 229.616 197.263C228.44 196.917 227.578 195.503 226.611 194.19C228.422 191.887 230.118 189.885 232.022 188.106C232.524 187.637 233.863 187.492 234.485 187.823C237.115 189.222 239.604 190.883 242.176 192.395C243.709 193.296 245.302 194.097 246.868 194.943C248.071 197.559 250.573 200.054 247.587 203.279C243.191 207.86 241.564 207.844 236.609 203.555C235.896 202.937 234.926 202.618 233.832 202.144Z" fill="#03F31C"/>
<path d="M246.884 194.714C245.302 194.097 243.709 193.296 242.176 192.395C239.603 190.883 237.115 189.222 234.485 187.823C233.863 187.492 232.524 187.637 232.022 188.106C230.118 189.885 228.422 191.887 226.514 193.988C226.061 194.179 225.741 194.188 225.182 194.217C224.506 193.459 224.068 192.683 223.608 191.679C223.375 189.691 223.165 187.931 222.957 185.897C224.988 185.571 227.017 185.517 229.351 185.417C231.908 185.404 234.16 185.439 236.725 185.418C238.379 185.412 239.719 185.462 241.35 185.572C243.331 188.136 245.023 190.639 246.801 193.357C246.893 193.877 246.897 194.181 246.884 194.714Z" fill="#05F334"/>
</svg>
