<svg width="198" height="198" viewBox="0 0 198 198" fill="none" xmlns="http://www.w3.org/2000/svg">
<rect width="198" height="198" rx="99" fill="#FF6500"/>
<path d="M111.713 68.0029C111.713 74.4562 106.021 79.6876 99 79.6876C91.9788 79.6876 86.287 74.4562 86.287 68.0029C86.287 61.5496 91.9788 56.3181 99 56.3181C106.021 56.3181 111.713 61.5496 111.713 68.0029Z" fill="white"/>
<path d="M122.307 110.652C122.307 119.686 111.872 120 99 120C86.1278 120 75.6928 119.686 75.6928 110.652C75.6928 101.617 81.5196 86.6985 99 86.6985C116.48 86.6985 122.307 101.617 122.307 110.652Z" fill="white"/>
<path d="M65.0987 96.6305C72.1199 96.6305 77.8117 91.399 77.8117 84.9457C77.8117 78.4924 72.1199 73.261 65.0987 73.261C58.0775 73.261 52.3857 78.4924 52.3857 84.9457C52.3857 91.399 58.0775 96.6305 65.0987 96.6305Z" fill="white"/>
<path d="M145.614 84.9457C145.614 91.399 139.923 96.6305 132.901 96.6305C125.88 96.6305 120.188 91.399 120.188 84.9457C120.188 78.4924 125.88 73.261 132.901 73.261C139.923 73.261 145.614 78.4924 145.614 84.9457Z" fill="white"/>
<path fill-rule="evenodd" clip-rule="evenodd" d="M99 158C136.555 158 167 130.689 167 97C167 77.9976 157.314 61.0245 142.129 49.8372C130.628 41.2244 115.532 36 99 36C82.4683 36 67.372 41.2245 55.8705 49.8373C40.6859 61.0246 31 77.9976 31 97C31 130.689 61.4446 158 99 158ZM99 144.5C134.068 144.5 161.78 120.406 161.78 91.5C161.78 62.594 134.068 38.5 99 38.5C63.9317 38.5 36.22 62.594 36.22 91.5C36.22 120.406 63.9317 144.5 99 144.5Z" fill="white"/>
</svg>
