<svg width="500" height="500" viewBox="0 0 500 500" fill="none" xmlns="http://www.w3.org/2000/svg">
<g clip-path="url(#clip0_748_263)">
<rect width="500" height="500" rx="250" fill="black"/>
<path d="M156.922 248.236C163.794 241.519 163.815 230.649 156.968 223.958C150.121 217.266 138.999 217.286 132.127 224.003C125.255 230.719 125.234 241.589 132.081 248.281C138.928 254.972 150.05 254.952 156.922 248.236Z" fill="url(#paint0_linear_748_263)"/>
<path d="M124.802 274.183C130.275 268.834 130.291 260.179 124.839 254.85C119.387 249.522 110.531 249.538 105.058 254.886C99.5857 260.235 99.5693 268.89 105.021 274.219C110.474 279.547 119.33 279.531 124.802 274.183Z" fill="url(#paint1_linear_748_263)"/>
<path fill-rule="evenodd" clip-rule="evenodd" d="M244.321 138.376C252.983 146.842 253.023 160.53 244.409 168.948C239.431 173.814 232.652 175.854 226.145 175.076L225.965 175.059C219.498 174.324 212.811 176.405 207.865 181.238C203.004 185.989 200.899 192.418 201.544 198.639C202.489 205.128 200.421 211.94 195.332 216.913C186.719 225.331 172.714 225.292 164.051 216.826C155.388 208.36 155.349 194.673 163.962 186.254C169.169 181.166 176.344 179.167 183.119 180.252C189.351 180.752 195.745 178.681 200.497 174.037C205.485 169.162 207.571 162.52 206.761 156.148L206.77 156.139C205.974 149.779 208.062 143.155 213.039 138.29C221.653 129.871 235.658 129.91 244.321 138.376Z" fill="url(#paint2_linear_748_263)"/>
<path d="M236.766 326.126C243.638 319.41 243.659 308.54 236.812 301.848C229.965 295.157 218.843 295.177 211.971 301.893C205.098 308.61 205.078 319.479 211.925 326.171C218.772 332.863 229.893 332.843 236.766 326.126Z" fill="url(#paint3_linear_748_263)"/>
<path d="M204.646 352.073C210.118 346.725 210.135 338.07 204.683 332.741C199.23 327.412 190.374 327.428 184.902 332.777C179.429 338.125 179.413 346.781 184.865 352.109C190.317 357.438 199.174 357.422 204.646 352.073Z" fill="url(#paint4_linear_748_263)"/>
<path fill-rule="evenodd" clip-rule="evenodd" d="M324.164 216.267C332.827 224.733 332.867 238.421 324.253 246.839C319.275 251.704 312.496 253.745 305.989 252.966L305.809 252.95C299.341 252.214 292.655 254.295 287.709 259.129C282.848 263.88 280.743 270.309 281.388 276.53C282.333 283.018 280.264 289.83 275.176 294.803C266.562 303.222 252.557 303.183 243.895 294.717C235.232 286.251 235.193 272.563 243.806 264.145C249.012 259.057 256.188 257.058 262.963 258.142C269.195 258.642 275.588 256.572 280.34 251.927C285.329 247.052 287.415 240.41 286.605 234.039L286.614 234.03C285.817 227.67 287.905 221.045 292.883 216.18C301.497 207.762 315.502 207.801 324.164 216.267Z" fill="url(#paint5_linear_748_263)"/>
<path d="M262.631 173.925C255.758 180.641 255.738 191.511 262.585 198.203C269.432 204.894 280.553 204.874 287.426 198.158C294.298 191.441 294.319 180.571 287.472 173.88C280.625 167.188 269.503 167.208 262.631 173.925Z" fill="url(#paint6_linear_748_263)"/>
<path d="M294.759 147.985C289.287 153.334 289.27 161.989 294.723 167.318C300.175 172.646 309.031 172.63 314.503 167.282C319.976 161.933 319.992 153.278 314.54 147.949C309.088 142.621 300.232 142.637 294.759 147.985Z" fill="url(#paint7_linear_748_263)"/>
<path fill-rule="evenodd" clip-rule="evenodd" d="M175.231 283.792C166.569 275.326 166.529 261.638 175.143 253.22C180.121 248.354 186.899 246.314 193.407 247.092L193.587 247.109C200.054 247.844 206.741 245.763 211.686 240.93C216.547 236.179 218.653 229.75 218.007 223.529C217.062 217.04 219.131 210.228 224.22 205.255C232.833 196.837 246.838 196.876 255.501 205.342C264.163 213.808 264.203 227.495 255.589 235.914C250.383 241.002 243.208 243.001 236.432 241.916C230.201 241.416 223.807 243.487 219.055 248.131C214.067 253.006 211.981 259.648 212.79 266.02L212.782 266.029C213.578 272.389 211.49 279.013 206.512 283.878C197.899 292.297 183.894 292.258 175.231 283.792Z" fill="url(#paint8_linear_748_263)"/>
<path d="M342.478 251.815C335.606 258.532 335.585 269.401 342.432 276.093C349.279 282.785 360.401 282.765 367.273 276.048C374.146 269.332 374.166 258.462 367.319 251.77C360.472 245.079 349.351 245.099 342.478 251.815Z" fill="url(#paint9_linear_748_263)"/>
<path d="M374.593 225.856C369.121 231.205 369.104 239.86 374.557 245.189C380.009 250.517 388.865 250.501 394.337 245.153C399.81 239.804 399.826 231.149 394.374 225.82C388.922 220.492 380.066 220.508 374.593 225.856Z" fill="url(#paint10_linear_748_263)"/>
<path fill-rule="evenodd" clip-rule="evenodd" d="M255.085 361.671C246.422 353.205 246.383 339.517 254.996 331.098C259.974 326.233 266.753 324.193 273.26 324.971L273.44 324.988C279.908 325.723 286.594 323.642 291.54 318.809C296.401 314.058 298.506 307.629 297.861 301.407C296.916 294.919 298.985 288.107 304.073 283.134C312.687 274.716 326.692 274.754 335.354 283.221C344.017 291.687 344.056 305.374 335.443 313.793C330.237 318.881 323.061 320.879 316.286 319.795C310.054 319.295 303.661 321.366 298.909 326.01C293.92 330.885 291.834 337.527 292.644 343.899L292.636 343.908C293.432 350.268 291.344 356.892 286.366 361.757C277.752 370.176 263.747 370.137 255.085 361.671Z" fill="url(#paint11_linear_748_263)"/>
<mask id="mask0_748_263" style="mask-type:alpha" maskUnits="userSpaceOnUse" x="0" y="0" width="500" height="500">
<circle cx="250" cy="250" r="250" fill="#D9D9D9"/>
</mask>
<g mask="url(#mask0_748_263)">
<rect y="430" width="500" height="70" fill="#00FF00"/>
</g>
<path d="M220.264 449.6V454.304H211.234V479H206.32V454.304H197.29V449.6H220.264ZM225.668 449.6H229.952L243.854 469.508V449.6H248.81V479H244.568L230.582 459.092V479H225.668V449.6ZM277.19 449.6V454.304H268.16V479H263.246V454.304H254.216V449.6H277.19ZM303.763 468.248V472.7H300.277V479H295.363V472.7H280.747V469.34L291.205 449.6H296.791L286.879 468.248H295.363V459.974H300.277V468.248H303.763Z" fill="black"/>
</g>
<defs>
<linearGradient id="paint0_linear_748_263" x1="132.081" y1="248.281" x2="156.398" y2="223.4" gradientUnits="userSpaceOnUse">
<stop stop-color="#0091B7"/>
<stop offset="1" stop-color="#00DA99"/>
</linearGradient>
<linearGradient id="paint1_linear_748_263" x1="105.021" y1="274.219" x2="124.385" y2="254.406" gradientUnits="userSpaceOnUse">
<stop stop-color="#0041DA"/>
<stop offset="1" stop-color="#007AC2"/>
</linearGradient>
<linearGradient id="paint2_linear_748_263" x1="164.051" y1="216.826" x2="242.48" y2="136.578" gradientUnits="userSpaceOnUse">
<stop stop-color="#00F190"/>
<stop offset="1" stop-color="#F2E901"/>
</linearGradient>
<linearGradient id="paint3_linear_748_263" x1="211.925" y1="326.171" x2="236.241" y2="301.291" gradientUnits="userSpaceOnUse">
<stop stop-color="#0091B7"/>
<stop offset="1" stop-color="#00DA99"/>
</linearGradient>
<linearGradient id="paint4_linear_748_263" x1="184.865" y1="352.109" x2="204.228" y2="332.297" gradientUnits="userSpaceOnUse">
<stop stop-color="#0041DA"/>
<stop offset="1" stop-color="#007AC2"/>
</linearGradient>
<linearGradient id="paint5_linear_748_263" x1="243.895" y1="294.717" x2="322.324" y2="214.468" gradientUnits="userSpaceOnUse">
<stop stop-color="#00F190"/>
<stop offset="1" stop-color="#F2E901"/>
</linearGradient>
<linearGradient id="paint6_linear_748_263" x1="287.472" y1="173.88" x2="263.155" y2="198.76" gradientUnits="userSpaceOnUse">
<stop stop-color="#0091B7"/>
<stop offset="1" stop-color="#00DA99"/>
</linearGradient>
<linearGradient id="paint7_linear_748_263" x1="314.54" y1="147.949" x2="295.177" y2="167.762" gradientUnits="userSpaceOnUse">
<stop stop-color="#0041DA"/>
<stop offset="1" stop-color="#007AC2"/>
</linearGradient>
<linearGradient id="paint8_linear_748_263" x1="255.501" y1="205.342" x2="177.071" y2="285.59" gradientUnits="userSpaceOnUse">
<stop stop-color="#00F190"/>
<stop offset="1" stop-color="#F2E901"/>
</linearGradient>
<linearGradient id="paint9_linear_748_263" x1="367.319" y1="251.77" x2="343.003" y2="276.651" gradientUnits="userSpaceOnUse">
<stop stop-color="#0091B7"/>
<stop offset="1" stop-color="#00DA99"/>
</linearGradient>
<linearGradient id="paint10_linear_748_263" x1="394.374" y1="225.82" x2="375.011" y2="245.633" gradientUnits="userSpaceOnUse">
<stop stop-color="#0041DA"/>
<stop offset="1" stop-color="#007AC2"/>
</linearGradient>
<linearGradient id="paint11_linear_748_263" x1="335.354" y1="283.221" x2="256.925" y2="363.469" gradientUnits="userSpaceOnUse">
<stop stop-color="#00F190"/>
<stop offset="1" stop-color="#F2E901"/>
</linearGradient>
<clipPath id="clip0_748_263">
<rect width="500" height="500" rx="250" fill="white"/>
</clipPath>
</defs>
</svg>
