<svg width="500" height="500" viewBox="0 0 500 500" fill="none" xmlns="http://www.w3.org/2000/svg">
<rect width="500" height="500" rx="250" fill="black"/>
<path d="M156.92 248.236C163.792 241.519 163.813 230.649 156.966 223.958C150.119 217.266 138.997 217.286 132.125 224.003C125.253 230.719 125.232 241.589 132.079 248.281C138.926 254.972 150.048 254.952 156.92 248.236Z" fill="url(#paint0_linear_663_276)"/>
<path d="M124.8 274.187C130.273 268.838 130.289 260.183 124.837 254.854C119.385 249.526 110.529 249.542 105.056 254.89C99.5837 260.238 99.5673 268.894 105.02 274.223C110.472 279.551 119.328 279.535 124.8 274.187Z" fill="url(#paint1_linear_663_276)"/>
<path fill-rule="evenodd" clip-rule="evenodd" d="M244.319 138.376C252.981 146.842 253.021 160.53 244.407 168.948C239.429 173.814 232.65 175.854 226.143 175.076L225.963 175.059C219.496 174.324 212.809 176.405 207.863 181.238C203.002 185.989 200.897 192.418 201.542 198.639C202.487 205.128 200.419 211.94 195.33 216.913C186.717 225.331 172.712 225.292 164.049 216.826C155.387 208.36 155.347 194.673 163.96 186.254C169.167 181.166 176.342 179.167 183.117 180.252C189.349 180.752 195.743 178.681 200.495 174.037C205.483 169.162 207.569 162.52 206.759 156.148L206.768 156.139C205.972 149.779 208.06 143.155 213.037 138.29C221.651 129.871 235.656 129.91 244.319 138.376Z" fill="url(#paint2_linear_663_276)"/>
<path d="M236.764 326.126C243.636 319.41 243.657 308.54 236.81 301.848C229.963 295.157 218.841 295.177 211.969 301.893C205.097 308.61 205.076 319.479 211.923 326.171C218.77 332.863 229.891 332.843 236.764 326.126Z" fill="url(#paint3_linear_663_276)"/>
<path d="M204.644 352.069C210.116 346.721 210.133 338.066 204.681 332.737C199.228 327.409 190.372 327.425 184.9 332.773C179.427 338.121 179.411 346.777 184.863 352.105C190.315 357.434 199.172 357.418 204.644 352.069Z" fill="url(#paint4_linear_663_276)"/>
<path fill-rule="evenodd" clip-rule="evenodd" d="M324.161 216.271C332.824 224.737 332.864 238.425 324.25 246.843C319.272 251.708 312.493 253.749 305.986 252.97L305.806 252.954C299.338 252.218 292.652 254.299 287.706 259.133C282.845 263.884 280.74 270.312 281.385 276.534C282.33 283.022 280.262 289.834 275.173 294.807C266.559 303.226 252.554 303.187 243.892 294.721C235.229 286.255 235.19 272.567 243.803 264.149C249.009 259.061 256.185 257.062 262.96 258.146C269.192 258.646 275.585 256.576 280.338 251.931C285.326 247.056 287.412 240.414 286.602 234.042L286.611 234.034C285.815 227.674 287.902 221.049 292.88 216.184C301.494 207.766 315.499 207.805 324.161 216.271Z" fill="url(#paint5_linear_663_276)"/>
<path d="M262.629 173.929C255.756 180.645 255.736 191.515 262.583 198.206C269.43 204.898 280.551 204.878 287.424 198.161C294.296 191.445 294.317 180.575 287.47 173.884C280.623 167.192 269.501 167.212 262.629 173.929Z" fill="url(#paint6_linear_663_276)"/>
<path d="M294.757 147.989C289.285 153.337 289.268 161.993 294.721 167.321C300.173 172.65 309.029 172.634 314.501 167.286C319.974 161.937 319.99 153.282 314.538 147.953C309.086 142.625 300.23 142.641 294.757 147.989Z" fill="url(#paint7_linear_663_276)"/>
<path fill-rule="evenodd" clip-rule="evenodd" d="M175.23 283.796C166.568 275.33 166.528 261.642 175.142 253.223C180.12 248.358 186.898 246.318 193.406 247.096L193.586 247.113C200.053 247.848 206.74 245.767 211.685 240.934C216.546 236.183 218.652 229.754 218.006 223.532C217.061 217.044 219.13 210.232 224.219 205.259C232.832 196.841 246.837 196.879 255.5 205.346C264.162 213.812 264.202 227.499 255.588 235.918C250.382 241.006 243.207 243.004 236.431 241.92C230.2 241.42 223.806 243.491 219.054 248.135C214.066 253.01 211.98 259.652 212.789 266.024L212.781 266.033C213.577 272.393 211.489 279.017 206.511 283.882C197.898 292.301 183.893 292.262 175.23 283.796Z" fill="url(#paint8_linear_663_276)"/>
<path d="M342.476 251.815C335.604 258.532 335.583 269.401 342.43 276.093C349.277 282.785 360.399 282.765 367.271 276.048C374.144 269.332 374.164 258.462 367.317 251.77C360.47 245.079 349.349 245.099 342.476 251.815Z" fill="url(#paint9_linear_663_276)"/>
<path d="M374.592 225.86C369.12 231.209 369.103 239.864 374.556 245.193C380.008 250.521 388.864 250.505 394.336 245.157C399.809 239.808 399.825 231.153 394.373 225.824C388.921 220.496 380.065 220.512 374.592 225.86Z" fill="url(#paint10_linear_663_276)"/>
<path fill-rule="evenodd" clip-rule="evenodd" d="M255.083 361.675C246.42 353.208 246.381 339.521 254.994 331.102C259.972 326.237 266.751 324.197 273.258 324.975L273.438 324.992C279.906 325.727 286.592 323.646 291.538 318.812C296.399 314.062 298.504 307.633 297.859 301.411C296.914 294.923 298.983 288.111 304.071 283.138C312.685 274.72 326.69 274.758 335.352 283.224C344.015 291.691 344.055 305.378 335.441 313.797C330.235 318.885 323.059 320.883 316.284 319.799C310.052 319.299 303.659 321.37 298.907 326.014C293.919 330.889 291.832 337.531 292.642 343.903L292.634 343.912C293.43 350.271 291.342 356.896 286.364 361.761C277.75 370.179 263.745 370.141 255.083 361.675Z" fill="url(#paint11_linear_663_276)"/>
<defs>
<linearGradient id="paint0_linear_663_276" x1="132.079" y1="248.281" x2="156.396" y2="223.4" gradientUnits="userSpaceOnUse">
<stop stop-color="#0091B7"/>
<stop offset="1" stop-color="#00DA99"/>
</linearGradient>
<linearGradient id="paint1_linear_663_276" x1="105.02" y1="274.222" x2="124.383" y2="254.41" gradientUnits="userSpaceOnUse">
<stop stop-color="#0041DA"/>
<stop offset="1" stop-color="#007AC2"/>
</linearGradient>
<linearGradient id="paint2_linear_663_276" x1="164.049" y1="216.826" x2="242.479" y2="136.578" gradientUnits="userSpaceOnUse">
<stop stop-color="#00F190"/>
<stop offset="1" stop-color="#F2E901"/>
</linearGradient>
<linearGradient id="paint3_linear_663_276" x1="211.923" y1="326.171" x2="236.239" y2="301.291" gradientUnits="userSpaceOnUse">
<stop stop-color="#0091B7"/>
<stop offset="1" stop-color="#00DA99"/>
</linearGradient>
<linearGradient id="paint4_linear_663_276" x1="184.863" y1="352.105" x2="204.226" y2="332.293" gradientUnits="userSpaceOnUse">
<stop stop-color="#0041DA"/>
<stop offset="1" stop-color="#007AC2"/>
</linearGradient>
<linearGradient id="paint5_linear_663_276" x1="243.892" y1="294.721" x2="322.321" y2="214.472" gradientUnits="userSpaceOnUse">
<stop stop-color="#00F190"/>
<stop offset="1" stop-color="#F2E901"/>
</linearGradient>
<linearGradient id="paint6_linear_663_276" x1="287.47" y1="173.884" x2="263.153" y2="198.764" gradientUnits="userSpaceOnUse">
<stop stop-color="#0091B7"/>
<stop offset="1" stop-color="#00DA99"/>
</linearGradient>
<linearGradient id="paint7_linear_663_276" x1="314.538" y1="147.953" x2="295.175" y2="167.765" gradientUnits="userSpaceOnUse">
<stop stop-color="#0041DA"/>
<stop offset="1" stop-color="#007AC2"/>
</linearGradient>
<linearGradient id="paint8_linear_663_276" x1="255.5" y1="205.346" x2="177.07" y2="285.594" gradientUnits="userSpaceOnUse">
<stop stop-color="#00F190"/>
<stop offset="1" stop-color="#F2E901"/>
</linearGradient>
<linearGradient id="paint9_linear_663_276" x1="367.317" y1="251.77" x2="343.001" y2="276.651" gradientUnits="userSpaceOnUse">
<stop stop-color="#0091B7"/>
<stop offset="1" stop-color="#00DA99"/>
</linearGradient>
<linearGradient id="paint10_linear_663_276" x1="394.373" y1="225.824" x2="375.01" y2="245.637" gradientUnits="userSpaceOnUse">
<stop stop-color="#0041DA"/>
<stop offset="1" stop-color="#007AC2"/>
</linearGradient>
<linearGradient id="paint11_linear_663_276" x1="335.352" y1="283.224" x2="256.923" y2="363.473" gradientUnits="userSpaceOnUse">
<stop stop-color="#00F190"/>
<stop offset="1" stop-color="#F2E901"/>
</linearGradient>
</defs>
</svg>
