<svg width="200" height="200" viewBox="0 0 200 200" fill="none" xmlns="http://www.w3.org/2000/svg">
<mask id="mask0_234_474" style="mask-type:alpha" maskUnits="userSpaceOnUse" x="0" y="0" width="200" height="200">
<circle cx="100" cy="100" r="100" fill="#D9D9D9"/>
</mask>
<g mask="url(#mask0_234_474)">
<path d="M200 0H0V200H200V0Z" fill="#1C1C1C"/>
<path d="M0 5H200" stroke="#06FC99" stroke-opacity="0.1"/>
<path d="M0 10H200" stroke="#06FC99" stroke-opacity="0.1"/>
<path d="M0 15H200" stroke="#06FC99" stroke-opacity="0.1"/>
<path d="M0 20H200" stroke="#06FC99" stroke-opacity="0.1"/>
<path d="M0 25H200" stroke="#06FC99" stroke-opacity="0.1"/>
<path d="M0 30H200" stroke="#06FC99" stroke-opacity="0.1"/>
<path d="M0 35H200" stroke="#06FC99" stroke-opacity="0.1"/>
<path d="M0 40H200" stroke="#06FC99" stroke-opacity="0.1"/>
<path d="M0 45H200" stroke="#06FC99" stroke-opacity="0.1"/>
<path d="M0 50H200" stroke="#06FC99" stroke-opacity="0.1"/>
<path d="M0 55H200" stroke="#06FC99" stroke-opacity="0.1"/>
<path d="M0 60H200" stroke="#06FC99" stroke-opacity="0.1"/>
<path d="M0 65H200" stroke="#06FC99" stroke-opacity="0.1"/>
<path d="M0 70H200" stroke="#06FC99" stroke-opacity="0.1"/>
<path d="M0 75H200" stroke="#06FC99" stroke-opacity="0.1"/>
<path d="M0 80H200" stroke="#06FC99" stroke-opacity="0.1"/>
<path d="M0 85H200" stroke="#06FC99" stroke-opacity="0.1"/>
<path d="M0 90H200" stroke="#06FC99" stroke-opacity="0.1"/>
<path d="M0 95H200" stroke="#06FC99" stroke-opacity="0.1"/>
<path d="M0 100H200" stroke="#06FC99" stroke-opacity="0.1"/>
<path d="M0 105H200" stroke="#06FC99" stroke-opacity="0.1"/>
<path d="M0 110H200" stroke="#06FC99" stroke-opacity="0.1"/>
<path d="M0 115H200" stroke="#06FC99" stroke-opacity="0.1"/>
<path d="M0 120H200" stroke="#06FC99" stroke-opacity="0.1"/>
<path d="M0 125H200" stroke="#06FC99" stroke-opacity="0.1"/>
<path d="M0 130H200" stroke="#06FC99" stroke-opacity="0.1"/>
<path d="M0 135H200" stroke="#06FC99" stroke-opacity="0.1"/>
<path d="M0 140H200" stroke="#06FC99" stroke-opacity="0.1"/>
<path d="M0 145H200" stroke="#06FC99" stroke-opacity="0.1"/>
<path d="M0 150H200" stroke="#06FC99" stroke-opacity="0.1"/>
<path d="M0 155H200" stroke="#06FC99" stroke-opacity="0.1"/>
<path d="M0 160H200" stroke="#06FC99" stroke-opacity="0.1"/>
<path d="M0 165H200" stroke="#06FC99" stroke-opacity="0.1"/>
<path d="M0 170H200" stroke="#06FC99" stroke-opacity="0.1"/>
<path d="M0 175H200" stroke="#06FC99" stroke-opacity="0.1"/>
<path d="M0 180H200" stroke="#06FC99" stroke-opacity="0.1"/>
<path d="M0 185H200" stroke="#06FC99" stroke-opacity="0.1"/>
<path d="M0 190H200" stroke="#06FC99" stroke-opacity="0.1"/>
<path d="M0 195H200" stroke="#06FC99" stroke-opacity="0.1"/>
<path d="M0 200H200" stroke="#06FC99" stroke-opacity="0.1"/>
<path fill-rule="evenodd" clip-rule="evenodd" d="M148 48V151H52V150.999H70V132.823H52V66.1765H70V48H148ZM84.999 66.1773H129.999V84.3538H84.999V66.1773ZM129.999 117.677H84.999V84.3538L66.9991 84.3546V117.678L84.999 117.677V135.854H129.999V117.677Z" fill="#06FC99"/>
</g>
</svg>
