<svg id="Layer_1" data-name="Layer 1" xmlns="http://www.w3.org/2000/svg" xmlns:xlink="http://www.w3.org/1999/xlink" viewBox="0 0 720 720"><defs><style>.cls-1{fill:none;}.cls-2{clip-path:url(#clip-path);}.cls-3{fill:#002fa7;}.cls-4{fill:#fff;}</style><clipPath id="clip-path"><circle class="cls-1" cx="360" cy="360" r="318.69"/></clipPath></defs><g class="cls-2"><circle class="cls-3" cx="360" cy="360" r="318.69"/><path class="cls-4" d="M519.79,493.82l-8.17,1.36H511c-.6.16-1.21.16-1.81.31l-2.12.3c-107.16,17.56-197.82,19.83-277,7.11-21.34-3.48-52.67-9.38-79.46-20.88C119,468.39,101,449.93,97.21,427.07c-9.54-55.85,73.26-100.65,100.5-115.33,72.35-39.2,161.5-67.35,272.44-86.12S674.63,204,755.76,217.15h0c53,8.62,124.41,25.73,132.88,75.82s-53.27,89.76-100.5,115.34c-70.53,38.14-156.8,65.84-263.81,84.6l-2.12.31c-.6.15-1.21.15-1.81.3C520.1,493.82,519.94,493.82,519.79,493.82Zm-9.23-3h.3l8.33-1.51h.15c.6-.15,1.21-.15,1.82-.3l2.11-.3c106.41-18.62,192.22-46.17,262.45-84.16,107.16-58,100.35-97.62,98.23-110.64-8.78-52.67-99.29-67.35-129-72h0c-80.67-13-173.61-10.29-284.09,8.47s-199,46.77-271.08,85.67C92.67,374,99.48,413.6,101.6,426.62c8.93,52.67,99.44,67.2,129.11,72.05,78.7,12.71,168.91,10.44,275.61-7.12l2.12-.3c.61-.15,1.21-.15,1.82-.3Z"/><path class="cls-4" d="M511.92,472.48c-2.12.3-4.39.76-6.81,1.06-4.54.76-9.69,1.51-15.29,2.42l-.6.15c-2.42.31-5,.76-7.72,1.06-2.42.31-5,.76-7.72,1.06h-.45c-4.09.61-8.48,1.06-12.87,1.67h-.6l-5.6.6c-1.52.15-3.18.31-4.7.61h-.3c-34.36,3.78-67.05,6.05-97,6.51-54.48.75-98.23-4.24-129.71-14.84-30.12-10.14-49.34-25.58-56.91-45.86a57.9,57.9,0,0,1-2.87-10.74c-2.73-15.9,1.21-31.64,11.65-46.62,14.53-20.89,42.08-40.87,81.88-59.18,37.24-17.25,84.46-32.84,140.16-46.47,35.26-8.62,63.57-13.77,77.34-16,13.93-2.42,42.68-6.81,78.4-10.44,39.36-3.94,96.87-7.57,147.88-2.58,43.74,4.24,76.43,14.08,97,29.37,14.38,10.74,23.16,24.06,25.74,39.95a59.93,59.93,0,0,1,.75,11.51h0c-.6,21.64-13.47,42.38-38.14,61.6-26.18,20.43-65.84,39.65-117.75,56.91-28.76,9.53-60.39,18.16-94.15,25.88a29.57,29.57,0,0,1-3.48.76l-11.65,2.57c-3,.61-5.9,1.21-8.78,1.82l-2.88.6c-1.66.3-3.17.61-4.84.91s-3.48.76-5.3,1.06l-2.87.6c-5.6,1.06-10.75,2-15.29,2.88C516.31,471.72,514,472.18,511.92,472.48Zm-52.37,3h.76c4.24-.46,8.48-1.06,12.56-1.67h.46c2.57-.3,5.14-.75,7.72-1.06s5.29-.75,7.72-1.06l.6-.15c5.6-.91,10.6-1.66,15.14-2.27,4.84-.75,8.62-1.36,13.47-2.27,4.54-.75,9.68-1.81,15.28-2.87l2.88-.61c1.66-.3,3.48-.6,5.15-1.06,1.51-.3,3.17-.6,4.69-.91l2.87-.6c2.88-.61,5.75-1.21,8.78-1.82l11.66-2.57c1.21-.3,2.27-.46,3.48-.76,33.6-7.57,65.08-16.34,93.69-25.73,51.46-17.1,90.66-36,116.39-56.15,23.61-18.47,35.87-38,36.47-58.27h0a49.56,49.56,0,0,0-.75-10.6C816.15,290.4,808,278,794.5,268c-20-14.68-51.76-24.37-94.75-28.45-50.7-4.85-107.91-1.37-147,2.57-35.72,3.48-64.33,8-78.1,10.29s-42.08,7.57-77,16c-54.64,13.32-102.92,29.22-139.4,46.17-39.05,18-66,37.38-80.07,57.66-9.68,13.93-13.31,28.61-10.89,43.29a53.41,53.41,0,0,0,2.72,10c7.12,19.07,25.28,33.6,54.19,43.29,31,10.44,74.16,15.28,128.19,14.53,30-.46,62.51-2.57,96.72-6.51h.3a41.21,41.21,0,0,0,4.69-.61l5.45-.75Z"/><path class="cls-4" d="M335,428.14l-.45-.16h-.43l.43,4.24c1.36-.15,2.57-.15,3.93-.3a88.34,88.34,0,0,1,10.67-.17A123.26,123.26,0,0,1,335,428.14Zm42,11.23h0Zm7.46-4h0l.5-.11Zm1.68-.26H386v.26l.3-.06M822.65,304.48c-2.58-15.89-11.36-29.21-25.73-40-20.59-15.29-53.28-25.12-97-29.36-51-5-108.52-1.36-147.88,2.57-35.72,3.63-64.47,8-78.4,10.44-13.77,2.27-42.07,7.42-77.34,16.05-55.7,13.62-102.92,29.21-140.15,46.46C216.32,329,188.77,349,174.24,369.86c-10.44,15-14.38,30.73-11.65,46.62a55.19,55.19,0,0,0,2,8.11c.28.9.59,1.77.9,2.64l.65,1.65c8,19.46,27,34.34,56.26,44.21,31.49,10.59,75.23,15.59,129.71,14.83H353l.61-.76c7.85-8.31,16.3-16.9,24.76-24.23.17-.15.35-.29.51-.44l4.7-4.08H376.3c-40.41.39-73-3.23-96.81-11l-.21-.06.28-.11c20.91-8.41,38.24-13.08,54.21-14.88h.09c11.67,3.65,26,6,42.73,7h0a210.43,210.43,0,0,1-29.28-3.62c-1.76-.36-3.47-.74-5.15-1.14-.7-.16-1.39-.34-2.09-.51-2-.55-3.95-1.11-5.83-1.7l-.45-.1h-.15c-2.86-.92-5.59-1.94-8.14-3-15.58,2.58-32.74,7.8-53,16.34l-4.93,2.12-.32.14h-.05l5.3,2c23.76,8.93,57.21,13.47,99.29,13.32-7.11,6.36-13.92,13.47-20.43,20.28-53.58.76-96.26-4.24-127.14-14.53-27.86-9.34-45.74-23.17-53.37-41.24-.29-.67-.56-1.37-.82-2.05s-.54-1.48-.78-2.24a52.92,52.92,0,0,1-1.94-7.75c-2.42-14.68,1.21-29.36,10.9-43.28,14.07-20.29,41-39.66,80.06-57.67,36.48-17,84.76-32.84,139.4-46.16,35-8.48,63.27-13.78,77-16s42.38-6.81,78.1-10.29c39-3.93,96.26-7.42,147-2.57,43,4.08,74.77,13.77,94.74,28.45,13.47,10,21.65,22.4,24.07,37.08a49.57,49.57,0,0,1,.76,10.6c-.61,20.28-12.87,39.81-36.48,58.27-25.58,20-64.48,38.9-115.48,55.85-8.48-4.39-17.56-8.93-26.64-12.86,39.5-13.93,69.62-29.06,89.6-45.11l4.39-3.63-.91-.05-4.8-.41c-28.15-1.82-49.19-.31-66,4.54l-.46.15-.45.3c-9.84,7-22.55,13.77-37.84,20l-2.12.76c-4.09,1.66-8.47,3.33-12.86,4.84l-2.73.91a4.17,4.17,0,0,1,.08-.49c.18-1.06.33-2.12.45-3.17a119,119,0,0,0,1-18.29c0-1-.07-1.94-.13-2.9s-.1-2-.18-2.94-.16-2-.25-3-.22-2-.35-3c-.18-1.32-.38-2.64-.61-4s-.54-2.63-.8-3.93c-.12-.67-.26-1.32-.41-2a108.81,108.81,0,0,0-11.2-29.52,107.22,107.22,0,0,0-5.71-9.18c-.63-.91-1.27-1.83-1.93-2.73s-1.12-1.53-1.7-2.27-1.25-1.6-1.89-2.39a113.05,113.05,0,0,0-24.79-22.48,108.42,108.42,0,0,0-23.61-12,112.57,112.57,0,0,0-54-5.6,49.54,49.54,0,0,0-5.28.83.94.94,0,0,0-.47.08,112.83,112.83,0,0,0-49.19,23.15A103.47,103.47,0,0,0,408,311.49l-.44.55a114.63,114.63,0,0,0-9.28,14.13c-.54,1-1.07,2-1.57,3-.43.78-.82,1.59-1.2,2.4s-.66,1.36-1,2.06a108.88,108.88,0,0,0-4,10.14v.08c-.32.92-.62,1.86-.93,2.78s-.56,1.86-.83,2.8c-.2.71-.41,1.44-.59,2.17a2.22,2.22,0,0,1-.1.41,5.75,5.75,0,0,0-.2.71c-.17.63-.32,1.28-.47,1.93a.86.86,0,0,0-.06.23.3.3,0,0,1-.05.2c-.12.51-.22,1-.33,1.53s-.2.92-.29,1.39c-.19,1-.38,2-.54,2.94-.38,2.19-.71,4.39-1,6.58-.09.74-.16,1.5-.22,2.25-.09,1-.17,2-.23,3a112.27,112.27,0,0,0-.05,13.48c.1,1.8.23,3.62.43,5.42a9.44,9.44,0,0,0,.12,1.18c.18,1.27.36,2.48.54,3.68.05.26.08.51.13.76v.13l.09.61a.38.38,0,0,0,0,.15,6.45,6.45,0,0,0,.11.73c.07.53.16,1,.27,1.57a113.57,113.57,0,0,0,4,15.38A108.05,108.05,0,0,0,399,435.22h0c.59,1,1.22,2.09,1.85,3.15l.67,1.09h-.79l-5.46.26h.25c1.29,0,2.55,0,3.79-.07.5,0,1,0,1.5,0h2l3.93-.15v-.05l-2.09-3.28c-.22-.36-.45-.73-.66-1.11a105.91,105.91,0,0,1-13.74-37c-.31-2-.61-3.79-.76-5.76-.12-1.06-.23-2.11-.32-3.17a103.41,103.41,0,0,1,1.23-27.55A106.39,106.39,0,0,1,411,314.62c1.47-1.86,3-3.69,4.57-5.46a105.67,105.67,0,0,1,12.69-12.25,108.69,108.69,0,0,1,47.22-22.1l.44-.07,2.28-.38,2.73-.46a107.86,107.86,0,0,1,51.91,5.45,104.59,104.59,0,0,1,22.55,11.36,106.85,106.85,0,0,1,45.26,65.68c.3,1.82.76,3.64,1.06,5.6a103.82,103.82,0,0,1,1.51,15.14,110.15,110.15,0,0,1-2.09,23.69,6.21,6.21,0,0,1-.18,1l-.76,3.94,3.79-1.22,1.56-.53c1.69-.57,3.31-1.16,5-1.74,4.54-1.51,8.78-3.17,13-4.84l2.12-.76c15.34-6.37,28.23-13.18,38.34-20.3,15.13-4.24,34.2-5.75,58.42-4.69l-.18.14c-20.28,15.24-50.19,29.57-88.82,42.69l-5.9,2h.06l5.69,2.24a4.19,4.19,0,0,1,.49.2A324.37,324.37,0,0,1,666,434l.91.45h.61c51.91-17.25,91.57-36.47,117.75-56.91,24.67-19.22,37.54-40,38.14-61.6A59.42,59.42,0,0,0,822.65,304.48ZM386.12,435.13H386v.26l.3-.06m-1.32,0-.53.1h0Zm-.19,4.5H385c.85,0,1.71.06,2.59.07h2c-1.77,0-3.54-.1-5.19-.18a11.74,11.74,0,0,1-1.33-.05h-.73M334.1,428l.43,4.24c1.36-.15,2.57-.15,3.93-.3a88.34,88.34,0,0,1,10.67-.17A122.49,122.49,0,0,1,335,428.14l-.45-.16Zm.88.16-.45-.16h-.43l.43,4.24c1.36-.15,2.57-.15,3.93-.3a88.34,88.34,0,0,1,10.67-.17A122.49,122.49,0,0,1,335,428.14Zm49.46,7.25h0l.5-.11Zm1.68-.26H386v.26l.3-.06m-.17-.21H386v.26l.3-.06m-1.85.05h0l.5-.11ZM335,428.14l-.45-.16h-.43l.43,4.24c1.36-.15,2.57-.15,3.93-.3a88.34,88.34,0,0,1,10.67-.17A123.26,123.26,0,0,1,335,428.14Z"/><path class="cls-4" d="M335,428.14l-.45-.16h-.43l.43,4.24c1.36-.15,2.57-.15,3.93-.3a88.34,88.34,0,0,1,10.67-.17A123.26,123.26,0,0,1,335,428.14Zm42,11.23h0Zm7.46-4h0l.5-.11Zm1.68-.26H386v.26l.3-.06M822.65,304.48c-2.58-15.89-11.36-29.21-25.73-40-20.59-15.29-53.28-25.12-97-29.36-51-5-108.52-1.36-147.88,2.57-35.72,3.63-64.47,8-78.4,10.44-13.77,2.27-42.07,7.42-77.34,16.05-55.7,13.62-102.92,29.21-140.15,46.46C216.32,329,188.77,349,174.24,369.86c-10.44,15-14.38,30.73-11.65,46.62a55.19,55.19,0,0,0,2,8.11c.28.9.59,1.77.9,2.64l.65,1.65c8,19.46,27,34.34,56.26,44.21,31.49,10.59,75.23,15.59,129.71,14.83H353l.61-.76c7.85-8.31,16.3-16.9,24.76-24.23.17-.15.35-.29.51-.44l4.7-4.08H376.3c-40.41.39-73-3.23-96.81-11l-.21-.06.28-.11c20.91-8.41,38.24-13.08,54.21-14.88h.09c11.67,3.65,26,6,42.73,7h0a210.43,210.43,0,0,1-29.28-3.62c-1.76-.36-3.47-.74-5.15-1.14-.7-.16-1.39-.34-2.09-.51-2-.55-3.95-1.11-5.83-1.7l-.45-.1h-.15c-2.86-.92-5.59-1.94-8.14-3-15.58,2.58-32.74,7.8-53,16.34l-4.93,2.12-.32.14h-.05l5.3,2c23.76,8.93,57.21,13.47,99.29,13.32-7.11,6.36-13.92,13.47-20.43,20.28-53.58.76-96.26-4.24-127.14-14.53-27.86-9.34-45.74-23.17-53.37-41.24-.29-.67-.56-1.37-.82-2.05s-.54-1.48-.78-2.24a52.92,52.92,0,0,1-1.94-7.75c-2.42-14.68,1.21-29.36,10.9-43.28,14.07-20.29,41-39.66,80.06-57.67,36.48-17,84.76-32.84,139.4-46.16,35-8.48,63.27-13.78,77-16s42.38-6.81,78.1-10.29c39-3.93,96.26-7.42,147-2.57,43,4.08,74.77,13.77,94.74,28.45,13.47,10,21.65,22.4,24.07,37.08a49.57,49.57,0,0,1,.76,10.6c-.61,20.28-12.87,39.81-36.48,58.27-25.58,20-64.48,38.9-115.48,55.85-8.48-4.39-17.56-8.93-26.64-12.86,39.5-13.93,69.62-29.06,89.6-45.11l4.39-3.63-.91-.05-4.8-.41c-28.15-1.82-49.19-.31-66,4.54l-.46.15-.45.3c-9.84,7-22.55,13.77-37.84,20l-2.12.76c-4.09,1.66-8.47,3.33-12.86,4.84l-2.73.91a4.17,4.17,0,0,1,.08-.49c.18-1.06.33-2.12.45-3.17a119,119,0,0,0,1-18.29c0-1-.07-1.94-.13-2.9s-.1-2-.18-2.94-.16-2-.25-3-.22-2-.35-3c-.18-1.32-.38-2.64-.61-4s-.54-2.63-.8-3.93c-.12-.67-.26-1.32-.41-2a108.81,108.81,0,0,0-11.2-29.52,107.22,107.22,0,0,0-5.71-9.18c-.63-.91-1.27-1.83-1.93-2.73s-1.12-1.53-1.7-2.27-1.25-1.6-1.89-2.39a113.05,113.05,0,0,0-24.79-22.48,108.42,108.42,0,0,0-23.61-12,112.57,112.57,0,0,0-54-5.6,49.54,49.54,0,0,0-5.28.83.94.94,0,0,0-.47.08,112.83,112.83,0,0,0-49.19,23.15A103.47,103.47,0,0,0,408,311.49l-.44.55a114.63,114.63,0,0,0-9.28,14.13c-.54,1-1.07,2-1.57,3-.43.78-.82,1.59-1.2,2.4s-.66,1.36-1,2.06a108.88,108.88,0,0,0-4,10.14v.08c-.32.92-.62,1.86-.93,2.78s-.56,1.86-.83,2.8c-.2.71-.41,1.44-.59,2.17a2.22,2.22,0,0,1-.1.41,5.75,5.75,0,0,0-.2.71c-.17.63-.32,1.28-.47,1.93a.86.86,0,0,0-.06.23.3.3,0,0,1-.05.2c-.12.51-.22,1-.33,1.53s-.2.92-.29,1.39c-.19,1-.38,2-.54,2.94-.38,2.19-.71,4.39-1,6.58-.09.74-.16,1.5-.22,2.25-.09,1-.17,2-.23,3a112.27,112.27,0,0,0-.05,13.48c.1,1.8.23,3.62.43,5.42a9.44,9.44,0,0,0,.12,1.18c.18,1.27.36,2.48.54,3.68.05.26.08.51.13.76v.13l.09.61a.38.38,0,0,0,0,.15,6.45,6.45,0,0,0,.11.73c.07.53.16,1,.27,1.57a113.57,113.57,0,0,0,4,15.38A108.05,108.05,0,0,0,399,435.22h0c.59,1,1.22,2.09,1.85,3.15l.67,1.09h-.79l-5.46.26h.25c1.29,0,2.55,0,3.79-.07.5,0,1,0,1.5,0h2l3.93-.15v-.05l-2.09-3.28c-.22-.36-.45-.73-.66-1.11a105.91,105.91,0,0,1-13.74-37c-.31-2-.61-3.79-.76-5.76-.12-1.06-.23-2.11-.32-3.17a103.41,103.41,0,0,1,1.23-27.55A106.39,106.39,0,0,1,411,314.62c1.47-1.86,3-3.69,4.57-5.46a105.67,105.67,0,0,1,12.69-12.25,108.69,108.69,0,0,1,47.22-22.1l.44-.07,2.28-.38,2.73-.46a107.86,107.86,0,0,1,51.91,5.45,104.59,104.59,0,0,1,22.55,11.36,106.85,106.85,0,0,1,45.26,65.68c.3,1.82.76,3.64,1.06,5.6a103.82,103.82,0,0,1,1.51,15.14,110.15,110.15,0,0,1-2.09,23.69,6.21,6.21,0,0,1-.18,1l-.76,3.94,3.79-1.22,1.56-.53c1.69-.57,3.31-1.16,5-1.74,4.54-1.51,8.78-3.17,13-4.84l2.12-.76c15.34-6.37,28.23-13.18,38.34-20.3,15.13-4.24,34.2-5.75,58.42-4.69l-.18.14c-20.28,15.24-50.19,29.57-88.82,42.69l-5.9,2h.06l5.69,2.24a4.19,4.19,0,0,1,.49.2A324.37,324.37,0,0,1,666,434l.91.45h.61c51.91-17.25,91.57-36.47,117.75-56.91,24.67-19.22,37.54-40,38.14-61.6A59.42,59.42,0,0,0,822.65,304.48ZM386.12,435.13H386v.26l.3-.06m-1.32,0-.53.1h0Zm-.19,4.5H385c.85,0,1.71.06,2.59.07h2c-1.77,0-3.54-.1-5.19-.18a11.74,11.74,0,0,1-1.33-.05h-.73M334.1,428l.43,4.24c1.36-.15,2.57-.15,3.93-.3a88.34,88.34,0,0,1,10.67-.17A122.49,122.49,0,0,1,335,428.14l-.45-.16Zm.88.16-.45-.16h-.43l.43,4.24c1.36-.15,2.57-.15,3.93-.3a88.34,88.34,0,0,1,10.67-.17A122.49,122.49,0,0,1,335,428.14Zm49.46,7.25h0l.5-.11Zm0,0h0l.5-.11ZM335,428.14l-.45-.16h-.43l.43,4.24c1.36-.15,2.57-.15,3.93-.3a88.34,88.34,0,0,1,10.67-.17A123.26,123.26,0,0,1,335,428.14Z"/><path class="cls-4" d="M384.81,435l-.79.12h-.17c-2.78-.09-5.52-.21-8.18-.38q-5.09-.3-9.86-.8-7.92-.78-14.94-2.09h0a124.47,124.47,0,0,1-16.15-4l-.46-.15h-.45c-2.91.32-5.86.74-8.87,1.27-15.32,2.61-32.12,7.77-52,16-20.51-7.75-33.42-19-38.45-33.47-.27-.79-.53-1.59-.76-2.41s-.36-1.4-.51-2.1c-.2-.94-.36-1.86-.54-2.74-2.12-12.41,1.21-24.67,9.83-36.32l.61-.76c11.8-15.44,33-30.27,63.27-44A476.45,476.45,0,0,1,356.6,304c18.68-6.08,39.16-11.79,60.88-17,9.66-2.3,18.5-4.34,26.52-6,.39-.09.78-.17,1.18-.24a107.45,107.45,0,0,0-19.68,12.86,103.84,103.84,0,0,0-17.74,18.12c-.09.1-.18.23-.27.35-1.45,1.87-2.83,3.8-4.13,5.76A110.18,110.18,0,0,0,390.42,344V344c-.32.92-.62,1.86-.93,2.78s-.56,1.86-.83,2.8q-.18.61-.33,1.26c-.08.3-.17.6-.26.91a2.22,2.22,0,0,1-.1.41,5.75,5.75,0,0,0-.2.71c-.17.63-.32,1.28-.47,1.93a.86.86,0,0,0-.06.23.3.3,0,0,1-.05.2c-.12.51-.22,1-.33,1.53s-.2.92-.29,1.39a3.06,3.06,0,0,1-.1.47c-.17.77-.31,1.54-.44,2.31-.4,2.23-.71,4.48-1,6.74-.09.74-.16,1.5-.22,2.25-.09,1-.17,2-.23,3a112.27,112.27,0,0,0-.05,13.48c.11,1.8.25,3.6.44,5.41a6.38,6.38,0,0,0,.11,1c.18,1.32.38,2.57.56,3.81a.74.74,0,0,0,.08.41q.13.93.27,1.83c.21,1.35.45,2.7.74,4a2.66,2.66,0,0,0,.07.39c.17.75.34,1.49.5,2.21.69,2.89,1.44,5.62,2.26,8.22.21.71.44,1.41.67,2.11s.57,1.66.87,2.49.61,1.67.94,2.5c.65,1.65,1.33,3.3,2.06,4.93.32.7.62,1.4.95,2.08s.65,1.35,1,2q1.36,2.79,2.94,5.48h0c.59,1.05,1.22,2.09,1.85,3.15l.67,1.09h-.79l-5.46.26h.25c1.29,0,2.55,0,3.79-.07h3.78l3.94-.15v0l-1.94-3.28c-.23-.36-.46-.73-.68-1.11A106.65,106.65,0,0,1,390.68,398c-.3-2-.61-3.79-.76-5.76-.13-1.15-.25-2.3-.35-3.45a104.28,104.28,0,0,1,1.26-27.27,106.47,106.47,0,0,1,20.59-46.92c1.13-1.44,2.3-2.85,3.49-4.24a106.75,106.75,0,0,1,61-35.57v-.07l-.73-4.24v-.08c-2.18.38-4.82.85-7.89,1.41-11.67,2.15-29.44,5.66-50.54,10.7-44.34,10.6-81.88,22.86-111.85,36.48-30.42,13.92-52.22,28.91-64.48,44.8l-.6.76c-9.84,13-13.62,26.63-11.2,40.56.15.94.35,1.83.56,2.72s.42,1.7.65,2.58c.18.63.38,1.27.59,1.9,4.9,15,17.28,26.81,36.82,35.18a2.07,2.07,0,0,0,.34.15c1.59.68,3.24,1.33,4.93,2l.91.3.76-.3c1.81-.76,3.6-1.5,5.35-2.21l.29-.11c20.8-8.35,38-13.09,54.08-14.91h.21c1.93.61,3.92,1.17,6,1.7-2-.55-3.95-1.11-5.83-1.7l-.45-.1h-.15c-2.86-.92-5.59-1.94-8.14-3q4.38-.75,8.59-1.22h0l.43,4.24c1.36-.15,2.57-.15,3.93-.3a88.34,88.34,0,0,1,10.67-.17A182.65,182.65,0,0,0,368,434.51c2.63.26,5.35.46,8.14.62s5.45.29,8.26.38h.15l.5-.11.58-.07.44-.08v.26l.3-.06v.06H388c2.46,0,4.91.13,7.26.13H399l-.09-.15h-4c-2.32,0-4.74-.11-7.19-.14h-1l-.44-.09H386M385,440H385l2.53.09h2c-1.77,0-3.54-.1-5.19-.18a11.74,11.74,0,0,1-1.33-.05h-.38m2.06-4.69.3.1m13.8.32h-4c-2.32,0-4.74-.11-7.19-.14h-1l-.44-.09h-.3v.3l.3-.06v.06h1.67c2.46,0,4.91.13,7.26.13H399Z"/><path class="cls-4" d="M600.46,405.88l.76-3.93a111.66,111.66,0,0,0,2.27-24.67A105.2,105.2,0,0,0,602,362.14c-.3-2-.76-3.78-1.06-5.6a106.85,106.85,0,0,0-45.26-65.68,104.59,104.59,0,0,0-22.55-11.36,107.86,107.86,0,0,0-51.91-5.45l-.76-4.38c10.29-1.67,31.79-5,59-7.57,30.72-3,75.83-5.75,116.39-2.12h.3c33.91,3,59.64,10.14,76.74,21.19h0l.76.45c13.47,8.93,21.49,20.28,23.76,34.06a43.82,43.82,0,0,1,.61,6.05c.6,17.41-8.78,34.36-28,50.1l-.75.61h-.91c-26.94-1.67-48-.31-64.33,4.38-10.14,7.12-23,13.93-38.44,20.29l-2.12.75c-4.24,1.67-8.47,3.33-13,4.85-2.11.75-4.23,1.51-6.5,2.27ZM511.92,269.36a114.44,114.44,0,0,1,22.55,5.6,108.5,108.5,0,0,1,23.62,12,112.68,112.68,0,0,1,36,39.05,109.08,109.08,0,0,1,11.2,29.51c.45,2,.76,3.94,1.21,5.91a111.69,111.69,0,0,1,1.5,15.7,119.41,119.41,0,0,1-1.51,21.94l2.72-.9c4.39-1.52,8.78-3.18,12.87-4.85l2.12-.75c15.28-6.21,28-13,37.84-20l.45-.31.45-.15c16.65-4.84,37.39-6.2,65.09-4.54,17.55-14.68,26.18-30.12,25.58-45.86a37.61,37.61,0,0,0-.61-5.6c-2.12-12.26-9.23-22.55-21.19-30.72l-.6-.46c-16.35-10.74-41.63-17.71-75.08-20.88h-.3c-40.26-3.64-85.21-.91-115.94,2.11C529.63,267.24,520.25,268.3,511.92,269.36Z"/><path class="cls-4" d="M386.29,435.25v.09l.44-.09Zm12.62.15h-4c-2.32,0-4.74-.11-7.19-.14l.23.16c2.46,0,4.91.13,7.26.13H399Zm-13.8-.32-1,.15H384c-2.78-.09-5.49-.21-8.14-.38-3.05-.17-6-.39-8.87-.68q-9.23-.87-17.24-2.42h0a120.62,120.62,0,0,1-15-3.79l-.46-.15h-.13l-.32-.11c-15.79-5.25-26.5-13.24-31.89-23.84a29.21,29.21,0,0,1-1.41-3.1c-.21-.53-.42-1.07-.62-1.63a36.22,36.22,0,0,1-1.5-5.79c-1.36-7.26,1.06-14.68,7.12-22.25,4.23-5.37,10.29-10.77,18.08-16.21a215.91,215.91,0,0,1,28.53-16.33A443.58,443.58,0,0,1,403,317.93l.33-.12h0c-1.86,2.77-3.6,5.61-5.19,8.53-.54,1-1.07,2-1.57,3-.43.78-.82,1.59-1.2,2.4s-.66,1.36-1,2.06a108.88,108.88,0,0,0-4,10.14V344c-.32.92-.62,1.86-.93,2.78s-.56,1.86-.83,2.8c-.2.71-.41,1.44-.59,2.17a2.22,2.22,0,0,1-.1.41,5.75,5.75,0,0,0-.2.71c-.17.63-.32,1.28-.47,1.93a.86.86,0,0,0-.06.23.3.3,0,0,1-.05.2c-.12.51-.22,1-.33,1.53s-.27,1.24-.39,1.86-.31,1.54-.44,2.31c-.4,2.23-.71,4.48-1,6.74-.09.74-.16,1.5-.22,2.25-.09,1-.17,2-.23,3a112.27,112.27,0,0,0,0,13.48c.11,1.8.25,3.6.44,5.41a6.38,6.38,0,0,0,.11,1c.18,1.32.38,2.57.56,3.81a.74.74,0,0,0,.08.41q.13.93.27,1.83c.21,1.35.45,2.7.74,4a2.66,2.66,0,0,0,.07.39c.17.75.34,1.49.5,2.21.69,2.89,1.44,5.62,2.26,8.22.21.71.44,1.41.67,2.11s.57,1.66.87,2.49.61,1.67.94,2.5c.65,1.65,1.33,3.3,2.06,4.93.32.7.62,1.4.95,2.08s.65,1.35,1,2q1.37,2.79,2.94,5.48h0c.59,1,1.22,2.09,1.85,3.15l.67,1.09h-.79l-5.46.26h.25c1.29,0,2.55,0,3.79-.07h1.48a.14.14,0,0,1,.09,0H403l3.94-.15v-.05l-1.79-3.13c-.27-.42-.53-.85-.77-1.27a104.11,104.11,0,0,1-9.52-20.68,102.25,102.25,0,0,1-4.09-16.34c-.3-2-.6-3.79-.76-5.75a104.84,104.84,0,0,1,.91-30.73,106.47,106.47,0,0,1,20.59-46.92l3.34-4.39,1-1.36-.43.14-6.45,2.2-1.07.36-.17.05-.36.12q-16,5.31-30,10.82-14.67,5.79-27,11.81c-23,11.05-39.35,22.4-48.28,33.75-6.81,8.63-9.54,17.4-8,25.88a45.11,45.11,0,0,0,1.25,5,32.68,32.68,0,0,0,1.17,3.32c.18.45.38.9.57,1.36,4.77,10.77,14.06,19.2,27.79,25.18l.21.09h0l.35.16q4.38-.75,8.59-1.22h0l.43,4.24c1.36-.15,2.57-.15,3.93-.3a88.34,88.34,0,0,1,10.67-.17,182.65,182.65,0,0,0,18.79,2.65c2.63.26,5.35.46,8.14.62s5.45.29,8.26.38h.15l.5-.11.58-.07.44-.08m13,.41-.09-.15h-4c-2.32,0-4.74-.11-7.19-.14l.23.16c2.46,0,4.91.13,7.26.13Zm-12.71-.21.44-.09h-.44ZM385,439.81h.06l2.53.09h2c-1.77,0-3.54-.1-5.19-.18a11.74,11.74,0,0,1-1.33-.05h-.38m16.16-4.27h-4c-2.32,0-4.74-.11-7.19-.14H386v.15l.3-.06v.06H388c2.46,0,4.91.13,7.26.13H399Z"/><path class="cls-4" d="M600.46,405.88l.76-3.93a111.66,111.66,0,0,0,2.27-24.67A105.2,105.2,0,0,0,602,362.14c-.3-2-.76-3.78-1.06-5.6a106.85,106.85,0,0,0-45.26-65.68l-6-4.09,7.26-.15a513.21,513.21,0,0,1,61.61,2.72c25.42,3,44.49,8.17,56.91,15.74,9.68,5.75,15.28,13,16.64,21.49h0a43,43,0,0,1,.46,8.78c-.76,14.68-10.14,28.46-27.85,41l-.45.3c-10,7.12-23,13.78-38.3,20.13l-2.12.76c-4.23,1.67-8.47,3.33-13,4.84-2.12.76-4.24,1.52-6.51,2.27ZM563.84,291a111.84,111.84,0,0,1,30.27,35,109.08,109.08,0,0,1,11.2,29.51c.45,2,.76,3.94,1.21,5.91A111.94,111.94,0,0,1,608,377.13a119.41,119.41,0,0,1-1.51,21.94l2.72-.9c4.39-1.52,8.78-3.18,12.87-4.85l2.12-.75c15.28-6.21,28-13,37.84-20l.45-.31c16.2-11.65,24.82-24.21,25.43-37.23a32.76,32.76,0,0,0-.46-7.72c-1.21-7.11-6-13.17-14.53-18.31-11.8-7.12-30.27-12.11-55.09-15.14A487,487,0,0,0,563.84,291Z"/><path class="cls-4" d="M398.91,435.4h-4c-2.32,0-4.74-.11-7.19-.14l.23.16c2.46,0,4.91.13,7.26.13H399Zm8.09,4.19-1.79-3.13c-.27-.42-.53-.85-.77-1.27a104.11,104.11,0,0,1-9.52-20.68,102.25,102.25,0,0,1-4.09-16.34c-.3-2-.6-3.79-.76-5.75l-.45-3.64h-.05l-.42.28-2.56,1.66c-.54.36-1.09.71-1.62,1.08h0l-.09.06A76,76,0,0,0,374,400.74c-5.63,5.63-8.37,11.26-8.2,16.63v.78a14.27,14.27,0,0,0,.6,3.78c.11.41.25.82.38,1.23h0a22,22,0,0,0,4.38,7.43,30,30,0,0,0,4.45,4.12.8.8,0,0,0,.21.15l.18.15c2.69.17,5.45.29,8.26.38h.12l-.3-.16-.29-.13a1.51,1.51,0,0,0-.28-.15l-.61-.46h-.15c-.45-.24-.89-.5-1.33-.77a26.94,26.94,0,0,1-8.21-7.07,16.16,16.16,0,0,1-2.72-5.63c-.06-.39-.14-.83-.2-1.27s-.16-1.16-.25-1.76c-.46-4.23,2-8.93,6.81-13.92a64.61,64.61,0,0,1,8.67-7.34h0a1.62,1.62,0,0,0,0,.44,2.29,2.29,0,0,0,0,.37v.13l.09.61a.38.38,0,0,0,0,.15,3.38,3.38,0,0,0,.11.57c.21,1.35.45,2.7.74,4a2.66,2.66,0,0,0,.07.39c.17.75.34,1.49.5,2.21.69,2.89,1.44,5.62,2.26,8.22.21.71.44,1.41.67,2.11s.57,1.66.87,2.49.61,1.67.94,2.5c.65,1.65,1.33,3.3,2.06,4.93.32.7.62,1.4.95,2.08s.65,1.35,1,2q1.37,2.79,2.94,5.48h0c.59,1,1.22,2.09,1.85,3.15l.67,1.09h-.79l-5.46.26h.25c1.29,0,2.55,0,3.79-.07h3.78l3.94-.15Zm-8-4-.09-.15h-4c-2.32,0-4.74-.11-7.19-.14l.23.16c2.46,0,4.91.13,7.26.13Zm-.09-.15h-4c-2.32,0-4.74-.11-7.19-.14h-1l-.44.09v.06H388c2.46,0,4.91.13,7.26.13H399Z"/><path class="cls-4" d="M600.46,405.88l.76-3.93a111.66,111.66,0,0,0,2.27-24.67A105.2,105.2,0,0,0,602,362.14c-.3-2-.76-3.78-1.06-5.6l-.76-3.63,3.63.91A77.36,77.36,0,0,1,618,358.66c8.18,3.79,13,8.63,14.38,14.23.15.76.3,1.51.45,2.42,1.06,7.42-1.66,14.68-8.32,21.64l-.3.31-.46.15c-4.23,1.66-8.47,3.33-13,4.84-2.12.76-4.24,1.52-6.51,2.27Zm5.61-46.76.45,2.27A112.36,112.36,0,0,1,608,377.13a119.41,119.41,0,0,1-1.51,21.94l2.72-.9c4.24-1.52,8.33-3,12.41-4.7,5.3-5.9,7.57-11.8,6.82-17.55h0c-.16-.61-.16-1.21-.31-2-1.06-4.24-5.14-8-12-11.2A72.8,72.8,0,0,0,606.07,359.12Z"/><path class="cls-4" d="M694.76,448.26c-6.81-2.87-15-7.11-23.61-11.5l-5-2.57,2.12-3.94,5,2.58c8.62,4.39,16.65,8.62,23.31,11.35Z"/><path class="cls-4" d="M626.35,396.35l-2.88-3.48a112.23,112.23,0,0,1,37.84-20.28,12.79,12.79,0,0,0,1.36-.46l1.06,4.39c-.3.15-.76.15-1.06.3A109.27,109.27,0,0,0,626.35,396.35Z"/><path class="cls-4" d="M611.67,401.65,608,398.92c7.72-10,14.38-17.86,20.74-24.82,19.37-21,38.44-34.05,60.09-41l.45-.15c18.47-5.9,40.11-10.44,66.14-13.62,22-2.72,44.35-4.39,65.84-5.9l2.27-.15c22-1.52,42.53-3,62.21-5.6l.6,4.54c-19.82,2.57-40.56,4.08-62.51,5.6l-2.27.15c-21.49,1.51-43.74,3.18-65.68,5.9-25.73,3.18-47.23,7.57-65.39,13.47l-.45.15c-20.74,6.66-39.2,19.38-58.12,39.81C625.89,383.94,619.38,391.81,611.67,401.65Z"/><path class="cls-4" d="M607.58,378.49l-3.79-2.42c4.09-6.36,7.72-11.81,11.21-16.65,18.16-25.28,36.17-42.38,57.06-53.88l.3-.15a4.52,4.52,0,0,0,.76-.46c15.89-8.78,35.11-16.5,58.42-23.91h.15c19.83-6.21,39.65-11.2,63.42-17.11l1.36-.3c19.52-4.84,38-9.38,55.55-14.68l1.36,4.24c-17.56,5.3-36.17,10-55.7,14.83l-1.36.3c-23.76,5.91-43.59,10.9-63.42,17.11h-.15c-23,7.26-41.93,15-57.67,23.61-.3.15-.45.3-.6.3l-.31.15c-20.13,11.2-37.83,27.85-55.54,52.67C615.3,366.84,611.67,372.28,607.58,378.49Z"/><path class="cls-4" d="M594.11,328.09l-3.94-2.27a176.91,176.91,0,0,1,24.07-33.45c.76-.76,1.51-1.67,2.27-2.42,9.84-10.14,22.4-20,38.14-30l.45-.3C668.88,250.9,683.71,243,698.85,235l2.27-1.22c12.26-6.5,23.91-12.56,34.66-18.76l2.27,3.93c-10.9,6.36-22.56,12.41-34.82,18.92L701,239.09c-15.28,8-30.12,15.89-43.89,24.67l-.45.31c-15.44,9.68-27.55,19.22-37.08,29.06l-2.27,2.27A201.79,201.79,0,0,0,594.11,328.09Z"/><path class="cls-4" d="M535.84,278l-4.24-1.66c1.66-4.09,3.63-8.18,6-13.32,4.09-8.33,8.63-16.65,12.87-24.37l1.51-2.58c3.79-7,7.87-14.07,11.35-21l4.09,2c-3.48,7-7.57,14.23-11.35,21.19l-1.52,2.58c-4.23,7.72-8.77,15.89-12.86,24.21C539.32,270,537.35,274.05,535.84,278Z"/><path class="cls-4" d="M425.35,296.76c-3-3.48-6.36-6.81-10-10.45-6.21-6.2-12.72-11.95-20-18.46l-2-1.67c-6.36-5.75-12.41-11-18.16-16.64l3.18-3.18c5.6,5.45,11.65,10.89,18,16.49l2,1.67c7.26,6.51,13.77,12.41,20.13,18.62,3.63,3.63,7,7.11,10.14,10.59Z"/><path class="cls-4" d="M664,376.37c-10.14,7.12-23,13.93-38.45,20.28l-2.12.76c-4.23,1.67-8.47,3.33-13,4.84-1.64.58-3.26,1.17-5,1.74-.52.19-1,.35-1.56.53l-3.79,1.22.76-3.94c.06-.33.14-.65.18-1-4.66,1.54-9.71,3.08-15.16,4.76-9.69,2.88-20.13,5.6-31.64,8.33-11.35,2.72-23.46,5.3-35.87,7.57q-8.4,1.59-15,2.72c-4.24.61-9.38,1.51-15.14,2.42-13,2.12-24.67,3.79-35.72,5-11.8,1.36-23,2.42-33.6,3-4.83.28-9.79.43-14.54.55h-.5c.21.38.44.75.66,1.11l2.09,3.28h.4c2.83-.07,5.63-.19,8.4-.33l4.2-.23c10.6-.6,21.95-1.66,33.74-3,11.05-1.21,22.7-2.88,35.87-5q3.66-.48,7-1l3.81-.63,1.38-.25,3-.51c4.39-.76,9.53-1.67,15.13-2.72,12.57-2.27,24.67-4.85,36.18-7.57,5.13-1.2,10-2.42,14.74-3.68l.26-.06c5.9-1.56,11.5-3.15,16.93-4.74,5.91-1.66,11.35-3.48,16.5-5.14l1.35-.47c1.77-.59,3.46-1.2,5.16-1.8,4.54-1.52,8.78-3.18,13-4.85l2.12-.75c15.44-6.36,28.31-13.17,38.45-20.29,15.06-4.22,34-5.73,58.09-4.7l.18-.14C698.23,370.62,679.16,372.13,664,376.37ZM385.11,435.08l-1,.15H384c-2.78-.09-5.49-.21-8.14-.38-3.05-.17-6-.39-8.87-.68q-9.23-.87-17.24-2.42h0a120.62,120.62,0,0,1-15-3.79l-.46-.15h-.45c-2.83.32-5.71.71-8.64,1.21h0c-15.56,2.61-32.69,7.81-52.94,16.35l-5,2.12-.33.15.35.14,5,1.83c25,9.38,60.39,13.92,105.34,13.32h.85c13.08-.16,27.17-.75,41.68-1.8l2.58-.15c.9-.15,2-.15,3-.3l1.21-.15c6.06-.46,12-.91,17.71-1.52,3.48-.3,6.81-.75,10-1.06l6.51-.75c2.88-.31,5.75-.76,8.48-1.06l.75-.16q13.62-1.58,26.34-3.63c4.54-.6,8.32-1.21,11.5-1.81s7.11-1.21,10.9-2.12c8.93-1.67,17.71-3.48,26.49-5.45,3-.61,6.05-1.21,9.23-2l6.2-1.51c2.88-.76,5.76-1.37,8.78-2.12,5.45-1.21,11-2.73,16.8-4.24l3.48-.91c1.37-.3,2.58-.75,3.94-1.06l.45-.15c13.72-3.87,27-7.9,39.39-12.06.19-.08.38-.14.57-.2h.15c42.53-14.38,74.47-30.27,95.2-47.22l4.09-3.38.3-.25-5.75-.31c-28.15-1.81-49.19-.3-66,4.54l-.45.16-.46.3c-9.83,7-22.55,13.77-37.84,20l-2.11.75c-4.09,1.67-8.48,3.33-12.87,4.85l-2,.72h-.06c-1.43.5-2.83,1-4.26,1.52l-1.18.38c-4.66,1.54-9.71,3.08-15.16,4.76-9.69,2.88-20.13,5.6-31.64,8.33-11.35,2.72-23.46,5.3-35.87,7.57q-8.4,1.59-15,2.72c-4.24.61-9.38,1.51-15.14,2.42-13,2.12-24.67,3.79-35.72,5-11.8,1.36-23,2.42-33.6,3-4.83.28-9.79.43-14.54.55H404l-1.3.05c-1.24.08-2.44.11-3.65.14H395c-2.32,0-4.74-.11-7.19-.14H386v.15l.3-.06v.06H388c2.46,0,4.91.13,7.26.13H399l-.09-.15H399c.59,1.05,1.22,2.09,1.85,3.15l.67,1.09h1.28c1.3,0,2.59,0,3.89-.05H407c2.83-.07,5.63-.19,8.4-.33l4.2-.23c10.6-.6,21.95-1.66,33.74-3,11.05-1.21,22.7-2.88,35.87-5q3.66-.48,7-1l3.81-.63,1.38-.25,3-.51c4.39-.76,9.53-1.67,15.13-2.72,12.57-2.27,24.67-4.85,36.18-7.57,5.13-1.2,10-2.42,14.74-3.68l.26-.06c5.9-1.56,11.5-3.15,16.93-4.74,5.91-1.66,11.35-3.48,16.5-5.14l1.35-.47c1.77-.59,3.46-1.2,5.16-1.8,4.54-1.52,8.78-3.18,13-4.85l2.12-.75c15.44-6.36,28.31-13.17,38.45-20.29,15.06-4.22,34-5.73,58.09-4.7h.33c-20.28,15.29-50.1,29.52-88.84,42.68h-.16l-6,2c-10.78,3.53-22.08,6.92-33.81,10.11l-.46.15c-1.36.31-2.57.76-3.93,1.06l-4.24,1.06c-5.45,1.52-10.9,2.88-16,4.09-3,.76-5.91,1.36-8.78,2.12l-6.21,1.51c-3.18.61-6.2,1.36-9.23,2-8.78,1.82-17.56,3.63-26.34,5.3-4.23.75-8,1.36-11.35,2s-7,1.22-11.35,1.82c-8.32,1.21-17.25,2.57-26.18,3.63l-.76.15c-2.72.46-5.6.76-8.48,1.06l-6.5.76c-3.18.45-6.51.76-9.84,1.06-5.75.45-11.66,1.06-17.56,1.51l-1.06.15c-1.06.16-2,.16-3,.31l-2.57.15c-13.14.94-25.8,1.51-37.78,1.74l-4.6.08h-1.06c-40.33.39-72.84-3.21-96.67-10.95l-.22-.06h-.13c20.91-8.42,38.07-13.11,54.34-14.94h-.15c-2.86-.92-5.59-1.94-8.14-3q4.38-.75,8.59-1.22h0l.43,4.24c1.36-.15,2.57-.15,3.93-.3a88.34,88.34,0,0,1,10.67-.17A182.65,182.65,0,0,0,368,434.53c2.63.26,5.35.46,8.14.62s5.45.29,8.26.38h.15l.5-.11.58-.07.44-.08"/><path class="cls-4" d="M386.9,362.9a176,176,0,0,0-33-22.7l-3.63-1.82c-12.72-6.21-27.55-11.05-45.26-15.14-15.44-3.63-31.63-6.05-48.13-8.62l-2.72-.46c-13.78-2.12-26.79-4.08-39.36-6.5l.91-4.39c12.56,2.42,25.58,4.39,39.2,6.5l2.73.46c16.65,2.57,32.84,5,48.43,8.63,18.16,4.08,33.15,9.23,46.16,15.43l3.64,1.82a174.16,174.16,0,0,1,33.9,23.31Z"/><path class="cls-4" d="M391.14,416.78c-6.05-4.69-11.65-8.93-17.1-12.71-24.67-17.26-46.62-27.55-69.17-32.09l-1.51-.3c-17.26-3.33-37.39-4.54-61.76-3.63h-.15c-21.95.75-44.8,3-64.93,5h-.45c-20.89,2.12-40.57,4.09-58.88,4.84l-.15-4.54c18.16-.75,37.84-2.72,58.57-4.84h.46c20.13-2,43-4.24,65.08-5h.15c24.67-.91,45.26.3,62.81,3.78l1.52.3c23.15,4.69,45.7,15.14,70.83,32.85,5.45,3.93,11.2,8,17.25,12.86Z"/><path class="cls-4" d="M396.58,435.55h-1.36c-2.35,0-4.8-.1-7.26-.13l-.23-.16h0c-5.2-3.28-9.94-6.1-14.44-8.61-2-1.12-4-2.19-5.9-3.21l-.53-.27h0c-23.37-12.4-44-18.53-65-19.32-1,0-1.95-.06-2.92-.07h-1.85c-17.86,0-38.31,2.57-62.63,7.7-.76.15-1.51.3-2.27.47-.6.14-1.22.26-1.83.39-20.43,4.45-41.06,10.15-59.56,15.28l-2.48.68-2.23.59h0c-21.49,6.06-41.77,11.66-60.69,15.59l-.91-4.39c18.67-3.92,38.85-9.47,60.09-15.5l.3-.09,2.27-.6,2.09-.58c18.55-5.14,39.39-10.86,59.92-15.47l2-.45,2.06-.44c24.07-5.16,44.44-7.75,62.16-7.87h4.5c21.52.46,42.56,6.26,66,18.26,1.16.59,2.33,1.22,3.51,1.84.33.18.66.34,1,.54,7.68,4.1,16.09,9.19,26,15.65h0Z"/><path class="cls-4" d="M385.55,435.22l-.58.07-.5.11h-.15c-2.81-.09-5.57-.21-8.26-.38s-5.51-.36-8.14-.62l-.91-.21c-.4-.11-.79-.18-1.2-.27a95.25,95.25,0,0,0-14.94-2.09h0c-.35,0-.71-.05-1.06-.06h-.59a88.34,88.34,0,0,0-10.67.17c-1.36.15-2.57.15-3.93.3L334.1,428v-.3a40,40,0,0,1,4.09-.3,100.45,100.45,0,0,1,33.06,3.22q5.06,1.31,10.26,3.12c.44.15.89.3,1.33.47h.3l.46.3,1.24.49.3.1a2.85,2.85,0,0,0,.39.11Z"/><path class="cls-4" d="M182.73,492.16l-1.67-4.09c13-5.45,26.64-12.11,41-19.22l1.06-.46c16-7.87,32.54-16,49.19-23l1.66,4.08c-16.5,7-33,15-48.88,22.86l-1.06.6C209.52,480.05,195.89,486.71,182.73,492.16Z"/><path class="cls-4" d="M511.92,472.48c-2.12.3-4.39.76-6.81,1.06-4.54.76-9.69,1.51-15.29,2.42l-1.36.15c-2.27.31-4.54.61-7,.91s-5,.76-7.72,1.06h-.45c-4.09.61-8.48,1.06-12.87,1.67H460l-5.6.6a1011.71,1011.71,0,0,1-102.17,7l-5.29.15,3.63-3.93c8-8.48,16.8-17.41,25.58-25l.6-.61h.76c15-.15,31.18-.91,48-2.27l1.21-.15c6-.46,12-1.06,17.56-1.51,3.48-.31,7-.76,10.29-1.06l6.05-.76c2.88-.3,5.6-.61,8.18-1.06l.9-.15c9.09-1.06,17.86-2.42,26.19-3.63q6.58-.92,11.35-1.82c3.33-.61,7.11-1.21,11.35-2,8.78-1.66,17.56-3.48,26.34-5.3,3-.6,6.05-1.36,9.23-2l6.81-1.67c2.73-.6,5.45-1.21,8.17-2q7.73-1.81,15.9-4.08h0l4.23-1.06c15.44-4.24,30.28-8.63,44-13.32l.91-.15.6.15C646,418.6,657.37,424.35,668,429.8l4.84,2.42-5.14,1.67A1030.86,1030.86,0,0,1,568.07,461L559,463c-3.33.75-6.5,1.36-9.53,2l-2.88.61c-1.66.3-3.18.6-4.84.91s-3.48.75-5.15,1.06l-2.87.6c-5.6,1.06-10.75,2-15.29,2.88A33.87,33.87,0,0,1,511.92,472.48Zm-52.37,3h.61c4.24-.46,8.47-1.06,12.56-1.67h.46c2.57-.3,5.14-.75,7.56-1.06s4.85-.6,7-.9l1.21-.16c5.6-.9,10.59-1.66,15.13-2.27a65.12,65.12,0,0,1,6.81-1.06c2.12-.3,4.39-.75,6.66-1.21,4.54-.75,9.69-1.81,15.29-2.87l2.88-.61c1.66-.3,3.32-.6,5.14-1.06,1.51-.3,3.18-.6,4.69-.91l2.88-.6c3-.61,6.2-1.36,9.53-2l8.93-2c33.76-7.56,65.39-16,94-25.27-8.78-4.54-18-8.93-27.1-12.56-13.62,4.54-28.3,9.08-43.59,13.16l-3.48.91c-5.75,1.51-11.35,3-16.8,4.24-2.72.6-5.45,1.36-8.17,2l-7,1.66c-3.18.76-6.21,1.36-9.24,2-8.78,2-17.71,3.78-26.48,5.45-4.24.75-8,1.51-11.36,2q-4.76.9-11.5,1.81-12.71,2-26.33,3.63l-.91.16c-2.73.3-5.45.6-8.33,1.06l-6.05.75c-3.33.3-6.81.76-10.44,1.06-5.76.61-11.66,1.06-17.71,1.52l-1.21.15c-16.65,1.21-32.55,2-47.38,2.27-7.11,6.2-14.23,13.32-20.88,20.28,29.81-.61,62.2-3,96.26-7l6.35-.91Z"/><path class="cls-4" d="M331.36,509.87l-3-3.33c5.45-4.85,11.8-11.66,18.46-18.77l3.79-4.09,3.33,3.18-3.79,3.93C343.31,498.06,337,504.87,331.36,509.87Z"/><rect class="cls-4" x="617.11" y="392.79" width="4.54" height="33.15" transform="translate(-20.79 785.38) rotate(-63.89)"/><path class="cls-4" d="M401,439.67l-.16.15h0c-1.48,1.45-11.64,11.33-18.68,18.34a2.39,2.39,0,0,1-.22.23l-2.43,2.43-3.31-2.28.3-.3.31-.31s14.87-15.95,18.46-18h0l5.46-.26Z"/><path class="cls-4" d="M402.8,439.64h-2.07l-5.46.26h-5.62c-1.77,0-3.54-.1-5.19-.18a11.74,11.74,0,0,1-1.33-.05h-2.69l-1-.05h-.87a4.69,4.69,0,0,1-.75,0h-1.21A210.43,210.43,0,0,1,347.33,436c-1.76-.36-3.47-.74-5.15-1.14-.7-.16-1.39-.34-2.09-.51-2-.55-3.95-1.11-5.83-1.7l-.45-.1h-.15c-2.86-.92-5.59-1.94-8.14-3q4.38-.75,8.59-1.22h0l.43,4.24c1.36-.15,2.57-.15,3.93-.3a88.34,88.34,0,0,1,10.67-.17,182.65,182.65,0,0,0,18.79,2.65c2.63.26,5.35.46,8.14.62s5.45.29,8.26.38h.15l.5-.11.58-.07.44-.08v.26l.3-.06v.06H388c2.46,0,4.91.13,7.26.13H399l-.09-.15H399c.59,1,1.22,2.09,1.85,3.15l.67,1.09Z"/><path class="cls-4" d="M607,395.72c-.15,1.07-.32,2.14-.51,3.2-.25,1.38-.52,2.76-.82,4.12l-.21.95-.06.22v.09l-1.21.41c-5.92,2-11.7,3.72-16.57,5.17-5.31,1.58-11,3.12-17,4.68l-.26.06c-4.63,1.2-9.51,2.39-14.67,3.62-13,3.13-25.05,5.49-36.13,7.58-4.67.89-9.5,1.76-15.16,2.74l-3.06.54-1.38.25-3.81.63c-2.18.34-4.54.68-7,1-12.82,2.07-24.58,3.7-35.91,5-11.66,1.32-23,2.33-33.86,3l-4,.23c-2.77.14-5.57.26-8.4.33h-.31c-1.3,0-2.59,0-3.89,0H401.5l-.67-1.09c-.63-1.06-1.26-2.1-1.85-3.15h0q-1.58-2.76-2.94-5.48c-.35-.68-.68-1.37-1-2s-.63-1.38-1-2.08c-.76-1.65-1.44-3.29-2.06-4.93-.33-.83-.63-1.66-.94-2.5s-.62-1.8-.9-2.71c-.22-.62-.43-1.25-.64-1.89-.82-2.6-1.57-5.33-2.26-8.22-.16-.72-.33-1.46-.5-2.21a2.66,2.66,0,0,1-.07-.39c-.17-.76-.33-1.51-.47-2.3-.14-.64-.26-1.27-.38-1.92l-.3-2-.62-4-.09-.86a109.65,109.65,0,0,1,1-31.22A111.08,111.08,0,0,1,403,317.93c1.37-2.07,2.83-4.08,4.34-6.07h0a120,120,0,0,1,17.86-18.47,113,113,0,0,1,42-21.52c2.36-.63,4.74-1.19,7.14-1.66l5.53-.93a111.42,111.42,0,0,1,103,40.46c.64.79,1.27,1.59,1.89,2.39s1.15,1.52,1.7,2.27,1.3,1.82,1.93,2.73q2.82,4.15,5.27,8.53A113.1,113.1,0,0,1,604.92,355c.31.93.58,1.83.79,2.74a35.72,35.72,0,0,1,.77,3.7.89.89,0,0,1,0,.23c.23,1.33.43,2.65.61,4,.13,1,.25,2,.35,3s.18,2,.25,3,.14,1.94.18,2.94.1,1.77.13,2.67v.23A103.65,103.65,0,0,1,607,395.72Z"/></g></svg>