<?xml version="1.0" encoding="UTF-8"?>
<svg id="Layer_1" data-name="Layer 1" xmlns="http://www.w3.org/2000/svg" xmlns:xlink="http://www.w3.org/1999/xlink" viewBox="0 0 240 240">
  <defs>
    <style>
      .cls-1 {
        fill: url(#linear-gradient);
      }

      .cls-1, .cls-2, .cls-3, .cls-4, .cls-5 {
        stroke-width: 0px;
      }

      .cls-2 {
        fill: url(#linear-gradient-4);
      }

      .cls-3 {
        fill: url(#linear-gradient-2);
      }

      .cls-4 {
        fill: url(#linear-gradient-3);
      }

      .cls-5 {
        fill: url(#linear-gradient-5);
      }
    </style>
    <linearGradient id="linear-gradient" x1="69.31" y1="94.1" x2="165.04" y2="94.1" gradientUnits="userSpaceOnUse">
      <stop offset="0" stop-color="#4c3ac6"/>
      <stop offset=".17" stop-color="#503cc5"/>
      <stop offset=".34" stop-color="#5c44c4"/>
      <stop offset=".52" stop-color="#7152c3"/>
      <stop offset=".7" stop-color="#8e65c1"/>
      <stop offset=".88" stop-color="#b37dbe"/>
      <stop offset="1" stop-color="#d291bc"/>
    </linearGradient>
    <linearGradient id="linear-gradient-2" y1="145.9" x2="164.7" y2="145.9" xlink:href="#linear-gradient"/>
    <linearGradient id="linear-gradient-3" x1="108.36" y1="68.17" x2="108.36" y2="164.02" gradientUnits="userSpaceOnUse">
      <stop offset="0" stop-color="#1b1638"/>
      <stop offset=".05" stop-color="#1f1940"/>
      <stop offset=".13" stop-color="#2a2259"/>
      <stop offset=".24" stop-color="#3c3181"/>
      <stop offset=".36" stop-color="#5446b7"/>
      <stop offset=".4" stop-color="#5e4ecc"/>
      <stop offset=".5" stop-color="#6651c9"/>
      <stop offset=".66" stop-color="#7f5ac1"/>
      <stop offset=".86" stop-color="#a668b5"/>
      <stop offset="1" stop-color="#c775ab"/>
    </linearGradient>
    <linearGradient id="linear-gradient-4" x1="28.31" y1="18.87" x2="222.84" y2="213.4" gradientUnits="userSpaceOnUse">
      <stop offset="0" stop-color="#d291bc"/>
      <stop offset=".3" stop-color="#c59aff"/>
      <stop offset="1" stop-color="#7061d1"/>
    </linearGradient>
    <linearGradient id="linear-gradient-5" x1="18.88" y1="28.3" x2="213.41" y2="222.83" xlink:href="#linear-gradient-4"/>
  </defs>
  <path class="cls-1" d="m147.47,107.54c-5.24-16.04-20.32-27.64-38.11-27.64-21.45,0-38.97,16.85-40.04,38.03,1.08-26.51,22.9-47.67,49.68-47.67,20.8,0,38.62,12.78,46.04,30.91l-17.57,6.36"/>
  <path class="cls-3" d="m147.47,132.46c-5.24,16.04-20.32,27.64-38.11,27.64-21.45,0-38.97-16.85-40.04-38.03,1.08,26.51,22.9,47.67,49.68,47.67,20.5,0,38.1-12.4,45.71-30.12l-17.24-7.15Z"/>
  <path class="cls-4" d="m109.36,160.09c17.79,0,32.87-11.59,38.11-27.64-4.8,10.96-15.74,18.62-28.48,18.62-17.17,0-31.08-13.92-31.08-31.08s13.92-31.08,31.08-31.08c12.73,0,23.67,7.66,28.48,18.62-5.24-16.04-20.32-27.64-38.11-27.64-21.45,0-38.97,16.85-40.04,38.03-.03.69-.05,1.37-.05,2.06s.02,1.38.05,2.06c1.07,21.18,18.59,38.03,40.04,38.03Z"/>
  <g>
    <path class="cls-2" d="m61.49,185.54L23.9,120.44l48.05-83.22h88.4c1.42,4.09,5.31,7.04,9.88,7.04,5.77,0,10.46-4.69,10.46-10.46s-4.69-10.46-10.46-10.46c-4.89,0-8.99,3.37-10.14,7.91h-91.59L17,120.44l39.31,68.09c.55.96,1.56,1.5,2.59,1.5.51,0,1.02-.13,1.49-.4,1.43-.83,1.92-2.65,1.09-4.08ZM170.23,29.3c2.47,0,4.48,2.01,4.48,4.48s-2.01,4.48-4.48,4.48-4.48-2.01-4.48-4.48,2.01-4.48,4.48-4.48Z"/>
    <path class="cls-5" d="m223,120.44l-39.48-68.38c-.82-1.43-2.65-1.92-4.08-1.09-1.43.83-1.92,2.65-1.09,4.08l37.75,65.39-48.05,83.22h-87.34c-1.14-4.54-5.25-7.91-10.14-7.91-5.77,0-10.46,4.69-10.46,10.46s4.69,10.46,10.46,10.46c4.57,0,8.45-2.95,9.88-7.04h91.06l51.5-89.2Zm-152.43,90.26c-2.47,0-4.48-2.01-4.48-4.48s2.01-4.48,4.48-4.48,4.35,1.9,4.46,4.27c-.05.21-.08.43-.08.66,0,.09.02.18.03.27-.34,2.13-2.18,3.77-4.41,3.77Z"/>
  </g>
</svg>