<?xml version="1.0" encoding="utf-8"?>
<!-- Generator: Adobe Illustrator 27.4.0, SVG Export Plug-In . SVG Version: 6.00 Build 0)  -->
<svg version="1.1" id="Layer_1" xmlns="http://www.w3.org/2000/svg" xmlns:xlink="http://www.w3.org/1999/xlink" x="0px" y="0px"
	 viewBox="0 0 1080 1080" style="enable-background:new 0 0 1080 1080;" xml:space="preserve">
<style type="text/css">
	.st0{fill:url(#SVGID_1_);}
	.st1{fill:url(#SVGID_00000016059809960481015050000013267646215201249434_);}
	.st2{fill:url(#SVGID_00000103235662904410382650000011048132863588087721_);}
	.st3{fill:url(#SVGID_00000091706191020429021730000005622600269502087821_);}
</style>
<g>
	<g>
		<linearGradient id="SVGID_1_" gradientUnits="userSpaceOnUse" x1="171.1731" y1="171.1731" x2="908.8269" y2="908.8269">
			<stop  offset="0" style="stop-color:#3283D9"/>
			<stop  offset="0.5065" style="stop-color:#9F5AED"/>
			<stop  offset="1" style="stop-color:#DE1D54"/>
		</linearGradient>
		<path class="st0" d="M540,32.45l439.55,253.78v507.55L540,1047.55L100.45,793.78V286.22L540,32.45 M540,0L72.35,270v540L540,1080
			l467.65-270V270L540,0L540,0z"/>
	</g>
	
		<linearGradient id="SVGID_00000098899190712266176910000010298786840082219407_" gradientUnits="userSpaceOnUse" x1="261.0731" y1="397.3297" x2="800.8171" y2="397.3297">
		<stop  offset="0" style="stop-color:#3283D9"/>
		<stop  offset="0.5056" style="stop-color:#9F5AED"/>
		<stop  offset="1" style="stop-color:#DE1D54"/>
	</linearGradient>
	<path style="fill:url(#SVGID_00000098899190712266176910000010298786840082219407_);" d="M701.75,473.1
		c-29.55-90.46-114.57-155.83-214.89-155.83c-120.96,0-219.73,94.99-225.78,214.44c6.11-149.46,129.15-268.77,280.11-268.77
		c117.31,0,217.79,72.04,259.63,174.28L701.75,473.1"/>
	
		<linearGradient id="SVGID_00000095333499334994639520000002633971022522688934_" gradientUnits="userSpaceOnUse" x1="261.0731" y1="689.3736" x2="798.9428" y2="689.3736">
		<stop  offset="0" style="stop-color:#3283D9"/>
		<stop  offset="0.5056" style="stop-color:#9F5AED"/>
		<stop  offset="1" style="stop-color:#DE1D54"/>
	</linearGradient>
	<path style="fill:url(#SVGID_00000095333499334994639520000002633971022522688934_);" d="M701.75,613.6
		c-29.55,90.46-114.57,155.83-214.89,155.83c-120.96,0-219.73-94.99-225.78-214.44c6.11,149.46,129.15,268.77,280.11,268.77
		c115.59,0,214.85-69.94,257.76-169.82L701.75,613.6z"/>
	
		<linearGradient id="SVGID_00000140705286956488974150000001042755840605583033_" gradientUnits="userSpaceOnUse" x1="481.265" y1="251.1086" x2="481.265" y2="791.5924">
		<stop  offset="0" style="stop-color:#032C57"/>
		<stop  offset="0.5073" style="stop-color:#7036A6"/>
		<stop  offset="1" style="stop-color:#FF9983"/>
	</linearGradient>
	<path style="fill:url(#SVGID_00000140705286956488974150000001042755840605583033_);" d="M486.86,769.43
		c100.33,0,185.34-65.37,214.89-155.83c-27.08,61.81-88.76,105.01-160.56,105.01c-96.79,0-175.25-78.46-175.25-175.26
		S444.4,368.1,541.19,368.1c71.8,0,133.48,43.2,160.56,105.01c-29.55-90.46-114.57-155.83-214.89-155.83
		c-120.96,0-219.73,94.99-225.78,214.44c-0.16,3.86-0.29,7.73-0.29,11.64c0,3.9,0.14,7.77,0.29,11.64
		C267.13,674.44,365.9,769.43,486.86,769.43z"/>
</g>
</svg>
