<?xml version="1.0" encoding="UTF-8"?>
<svg xmlns="http://www.w3.org/2000/svg" xmlns:xlink="http://www.w3.org/1999/xlink" width="150px" height="150px" viewBox="0 0 150 150" version="1.1">
<g id="surface1">
<path style=" stroke:none;fill-rule:nonzero;fill:rgb(15.294118%,29.803922%,74.901961%);fill-opacity:1;" d="M 124.175781 18.113281 C 124.175781 27.757812 116.96875 35.578125 108.078125 35.578125 C 99.1875 35.578125 91.980469 27.757812 91.980469 18.113281 C 91.980469 8.464844 99.1875 0.644531 108.078125 0.644531 C 116.96875 0.644531 124.175781 8.464844 124.175781 18.113281 Z M 124.175781 18.113281 "/>
<path style=" stroke:none;fill-rule:nonzero;fill:rgb(15.294118%,29.803922%,74.901961%);fill-opacity:1;" d="M 96.753906 42.808594 C 96.753906 42.808594 94.476562 47.683594 77.429688 80.652344 C 76.628906 82.191406 75.820312 83.585938 75 84.824219 C 74.921875 84.726562 74.863281 84.621094 74.792969 84.519531 C 74.046875 83.355469 73.300781 82.066406 72.570312 80.652344 C 55.523438 47.683594 53.246094 42.808594 53.246094 42.808594 L 32.042969 42.808594 L 0 149.175781 C 0 149.175781 25.917969 155.824219 32.988281 130.761719 C 40.054688 105.703125 46.652344 83.71875 46.652344 83.71875 C 46.652344 83.71875 60.949219 125.722656 82.191406 113.414062 C 87.515625 110.332031 93.273438 103.851562 99.359375 92.429688 C 99.511719 92.109375 99.660156 91.785156 99.808594 91.472656 C 101.824219 87.175781 103.351562 83.71875 103.351562 83.71875 C 103.351562 83.71875 109.945312 105.710938 117.015625 130.769531 C 124.082031 155.824219 150 149.175781 150 149.175781 L 117.957031 42.808594 Z M 96.753906 42.808594 "/>
<path style=" stroke:none;fill-rule:nonzero;fill:rgb(15.294118%,29.803922%,74.901961%);fill-opacity:1;" d="M 59.292969 10.808594 C 62.695312 19.71875 58.792969 29.9375 50.582031 33.628906 C 42.367188 37.320312 32.953125 33.089844 29.550781 24.175781 C 26.148438 15.261719 30.046875 5.046875 38.261719 1.355469 C 46.472656 -2.339844 55.890625 1.894531 59.292969 10.808594 Z M 59.292969 10.808594 "/>
</g>
</svg>
