<svg width="500" height="500" viewBox="0 0 500 500" fill="none" xmlns="http://www.w3.org/2000/svg">
<g clip-path="url(#clip0_1244_8)">
<path d="M360.258 129.219C389.892 129.219 413.916 105.196 413.916 75.5615C413.916 45.9275 389.892 21.9043 360.258 21.9043C330.624 21.9043 306.601 45.9275 306.601 75.5615C306.601 105.196 330.624 129.219 360.258 129.219Z" fill="#274CBF"/>
<path d="M322.51 151.42C322.51 151.42 314.916 166.401 258.097 267.672C255.434 272.396 252.739 276.684 250 280.494C249.745 280.189 249.546 279.859 249.315 279.554C246.826 275.975 244.342 272.016 241.903 267.672C185.084 166.395 177.49 151.42 177.49 151.42H106.81L0 478.168C0 478.168 86.3955 498.583 109.96 421.604C133.518 344.626 155.507 277.095 155.507 277.095C155.507 277.095 203.158 406.119 273.969 368.314C291.713 358.848 310.908 338.937 331.192 303.852C331.703 302.863 332.207 301.873 332.692 300.908C339.42 287.707 344.499 277.095 344.499 277.095C344.499 277.095 366.482 344.651 390.047 421.629C413.604 498.583 500.006 478.168 500.006 478.168L393.196 151.42H322.516H322.51Z" fill="#274CBF"/>
<path d="M168.604 123.229C195.982 111.889 208.984 80.5008 197.643 53.1225C186.303 25.7442 154.915 12.743 127.537 24.0835C100.158 35.4239 87.1571 66.8117 98.4976 94.19C109.838 121.568 141.226 134.57 168.604 123.229Z" fill="#274CBF"/>
</g>
<defs>
<clipPath id="clip0_1244_8">
<rect width="500" height="460.621" fill="white" transform="translate(0 20)"/>
</clipPath>
</defs>
</svg>
