<?xml version="1.0" encoding="UTF-8"?>
<svg xmlns="http://www.w3.org/2000/svg" xmlns:xlink="http://www.w3.org/1999/xlink" width="150px" height="138px" viewBox="0 0 149 138" version="1.1">
<g id="surface1">
<path style=" stroke:none;fill-rule:nonzero;fill:rgb(15.294118%,29.803922%,74.901961%);fill-opacity:1;" d="M 123.347656 16.664062 C 123.347656 25.539062 116.1875 32.734375 107.355469 32.734375 C 98.527344 32.734375 91.367188 25.539062 91.367188 16.664062 C 91.367188 7.789062 98.527344 0.59375 107.355469 0.59375 C 116.1875 0.59375 123.347656 7.789062 123.347656 16.664062 Z M 123.347656 16.664062 "/>
<path style=" stroke:none;fill-rule:nonzero;fill:rgb(15.294118%,29.803922%,74.901961%);fill-opacity:1;" d="M 96.109375 39.382812 C 96.109375 39.382812 93.84375 43.871094 76.914062 74.199219 C 76.121094 75.613281 75.316406 76.898438 74.5 78.039062 C 74.425781 77.949219 74.363281 77.851562 74.296875 77.757812 C 73.554688 76.6875 72.8125 75.5 72.085938 74.199219 C 55.15625 43.867188 52.890625 39.382812 52.890625 39.382812 L 31.828125 39.382812 L 0 137.242188 C 0 137.242188 25.746094 143.355469 32.769531 120.300781 C 39.789062 97.246094 46.339844 77.023438 46.339844 77.023438 C 46.339844 77.023438 60.542969 115.664062 81.644531 104.34375 C 86.929688 101.507812 92.652344 95.542969 98.695312 85.035156 C 98.847656 84.738281 98.996094 84.441406 99.140625 84.152344 C 101.148438 80.199219 102.660156 77.023438 102.660156 77.023438 C 102.660156 77.023438 109.210938 97.253906 116.234375 120.308594 C 123.253906 143.355469 149 137.242188 149 137.242188 L 117.171875 39.382812 Z M 96.109375 39.382812 "/>
<path style=" stroke:none;fill-rule:nonzero;fill:rgb(15.294118%,29.803922%,74.901961%);fill-opacity:1;" d="M 58.898438 9.941406 C 62.277344 18.140625 58.402344 27.542969 50.242188 30.9375 C 42.085938 34.335938 32.730469 30.441406 29.351562 22.242188 C 25.972656 14.042969 29.847656 4.640625 38.007812 1.246094 C 46.164062 -2.152344 55.519531 1.742188 58.898438 9.941406 Z M 58.898438 9.941406 "/>
</g>
</svg>
