<?xml version="1.0" encoding="UTF-8"?>
<svg id="Layer_1" data-name="Layer 1" xmlns="http://www.w3.org/2000/svg" viewBox="0 0 803.34 740.07">
  <defs>
    <style>
      .cls-1 {
        fill: #274cbf;
        stroke-width: 0px;
      }
    </style>
  </defs>
  <circle class="cls-1" cx="578.82" cy="89.27" r="86.21"/>
  <path class="cls-1" d="m518.17,211.15s-12.2,24.07-103.49,186.78c-4.28,7.59-8.61,14.48-13.01,20.6-.41-.49-.73-1.02-1.1-1.51-4-5.75-7.99-12.11-11.91-19.09-91.29-162.72-103.49-186.78-103.49-186.78h-113.56L0,736.13s138.81,32.8,176.67-90.88c37.85-123.68,73.18-232.18,73.18-232.18,0,0,76.56,207.3,190.33,146.56,28.51-15.21,59.35-47.2,91.94-103.57.82-1.59,1.63-3.18,2.41-4.73,10.81-21.21,18.97-38.26,18.97-38.26,0,0,35.32,108.54,73.18,232.22,37.85,123.64,176.67,90.84,176.67,90.84l-171.61-524.98h-113.56Z"/>
  <circle class="cls-1" cx="237.9" cy="86.21" r="86.21" transform="translate(-14.88 97.6) rotate(-22.5)"/>
</svg>