<svg width="400" height="400" viewBox="0 0 400 400" fill="none" xmlns="http://www.w3.org/2000/svg">
<g clip-path="url(#clip0_256_2719)">
<path d="M400 200C400 89.543 310.457 0 200 0C89.543 0 0 89.543 0 200C0 310.457 89.543 400 200 400C310.457 400 400 310.457 400 200Z" fill="white"/>
<path d="M158.215 157.237C125.927 139.225 113.353 153.299 110.502 178.315C103.08 130.194 118.231 112.004 145.173 124.205C156.799 129.54 167.561 136.588 177.098 145.113C182.669 149.996 189.855 152.633 197.262 152.513" fill="#353340"/>
<path d="M197.127 152.513C204.58 152.409 211.761 149.7 217.426 144.857C227.196 136.486 238.096 129.534 249.805 124.205C276.788 112.004 291.96 130.194 284.528 178.315C281.11 180.738 277.732 183.217 274.395 185.749C274.713 178.171 273.671 169.38 273.555 162.768C273.183 141.232 242.907 149.04 227.267 167.175C218.185 177.706 230.548 192.111 244.672 201.682C247.2 202.401 249.78 202.923 252.388 203.243C245.678 208.745 238.985 214.269 232.311 219.815C222.497 210.599 209.939 198.785 197.388 187.698" fill="#353340"/>
<path d="M197.522 152.511C190.166 152.35 183.093 149.646 177.506 144.859C167.751 136.49 156.866 129.538 145.172 124.206C118.228 112.009 103.077 130.195 110.501 178.315C113.855 180.697 117.143 183.107 120.62 185.747C120.307 178.169 121.347 169.382 121.457 162.759C121.83 141.224 152.062 149.034 167.668 167.165C176.737 177.698 164.394 192.105 150.292 201.671C147.766 202.389 145.189 202.912 142.583 203.235C148.277 207.908 154.826 213.326 162.628 219.811C172.431 210.593 184.978 198.769 197.518 187.678C210.058 176.588 197.522 152.511 197.522 152.511ZM209.357 250.113C215.404 263.974 225.528 275.664 238.381 283.63C269.175 298.851 287.059 275.175 279.251 249.736C275.747 238.319 262.627 215.733 242.225 207.421C237.104 205.334 203.69 236.512 209.357 250.113ZM223.334 227.57C224.784 219.42 228.721 220.091 230.891 221.021C239.711 224.799 250.313 234.082 254.063 243.439C259.421 256.808 250.229 265.208 238.241 257.414C227.303 250.302 221.321 238.906 223.334 227.57Z" fill="#353340"/>
<path d="M152.817 207.42C132.415 215.732 119.296 238.318 115.791 249.734C107.983 275.174 125.866 298.85 156.661 283.629C169.516 275.663 179.64 263.972 185.687 250.112C191.352 236.512 157.938 205.334 152.817 207.42ZM156.802 257.413C144.814 265.206 135.621 256.806 140.979 243.437C144.728 234.081 155.336 224.804 164.152 221.02C166.322 220.09 170.259 219.419 171.708 227.569C173.722 238.906 167.74 250.302 156.8 257.414L156.802 257.413Z" fill="#353340"/>
<path d="M249.861 124.205C308.711 103.832 273.952 208.191 197.516 208.191C121.08 208.191 86.3207 103.824 145.17 124.205C81.03 90.8857 64.4062 174.378 141.309 220.042C164.157 233.609 187.176 258.598 156.657 283.631C175.986 274.011 180.773 256.616 197.514 256.616C214.256 256.616 219.042 274.007 238.371 283.631C207.852 258.596 230.871 233.609 253.719 220.042C330.624 174.383 314 90.8857 249.861 124.205Z" fill="#00000E"/>
</g>
<defs>
<clipPath id="clip0_256_2719">
<rect width="400" height="400" fill="white"/>
</clipPath>
</defs>
</svg>
