<?xml version="1.0" encoding="UTF-8"?>
<svg id="Layer_1" data-name="Layer 1" xmlns="http://www.w3.org/2000/svg" viewBox="0 0 148.17 146.28">
  <defs>
    <style>
      .cls-1 {
        stroke-width: 0px;
      }
    </style>
  </defs>
  <path class="cls-1" d="M112.31,27.28c-2.08,3.61-4.02,6.99-5.97,10.36-1.21,2.09-2.48,4.15-3.6,6.28-.48.91-1.06,1.17-2.04,1.17-15.46-.03-30.93,0-46.39-.05-1.23,0-1.87.37-2.48,1.43-10.22,17.78-20.48,35.55-30.76,53.29-.53.91-.54,1.56,0,2.48,4.89,8.38,9.73,16.78,14.55,25.2.45.78.94,1.05,1.82,1.05,20.92-.02,41.85.03,62.77-.04,13.89-.05,26.73-11.59,28.26-25.35,1.41-12.7-3.38-22.51-14.09-29.44-.2-.13-.39-.27-.62-.43,1.79-1.37,3.63-2.6,5.26-4.05,14.72-13.16,12.42-36.96-4.52-47.13-4.71-2.82-9.81-4.23-15.29-4.24-20.25,0-40.5.01-60.74-.04-1.31,0-1.95.44-2.57,1.53-8.07,14.06-16.19,28.1-24.3,42.14-.33.58-.69,1.15-1.12,1.87-.27-.39-.5-.66-.67-.96-3.05-5.26-6.08-10.53-9.15-15.78-.42-.71-.44-1.24-.01-1.98C9,30.1,17.38,15.6,25.72,1.08,26.21.24,26.75,0,27.67,0c26,.02,52-.05,78,.05,10.74.04,19.73,4.53,27.34,11.88,10.62,10.28,15.63,22.9,15.1,37.64-.28,7.95-2.51,15.4-6.57,22.26-.57.96-.56,1.63,0,2.59,13.79,23.74,5.35,54.21-18.66,67.34-5.39,2.95-11.21,4.46-17.35,4.46-26.1.03-52.19,0-78.29.04-1.06,0-1.62-.33-2.14-1.25-8.2-14.27-16.43-28.52-24.69-42.75-.57-.98-.51-1.66.04-2.6,13.61-23.52,27.2-47.04,40.75-70.6.76-1.31,1.51-1.86,3.11-1.85,21.99.07,43.98.05,65.96.05.58,0,1.16,0,2.05,0Z"/>
  <path class="cls-1" d="M43.95,82.49c2.82,4.87,5.5,9.5,8.18,14.13.77,1.34,1.61,2.64,2.29,4.02.45.92,1.05,1.17,2.04,1.17,15.02-.03,30.04.02,45.06-.07,1.9-.01,2.89.53,3.8,2.2,2.59,4.79,5.4,9.47,8.12,14.19.23.41.44.83.77,1.45h-1.73c-22.07,0-44.14,0-66.21.03-1.16,0-1.79-.35-2.37-1.37-3.18-5.63-6.45-11.2-9.65-16.82-.25-.44-.5-1.17-.3-1.52,3.25-5.75,6.56-11.46,10-17.41Z"/>
</svg>