<?xml version="1.0" encoding="utf-8"?>
<!-- Generator: Adobe Illustrator 25.4.1, SVG Export Plug-In . SVG Version: 6.00 Build 0)  -->
<svg version="1.1" id="Layer_1" xmlns="http://www.w3.org/2000/svg" xmlns:xlink="http://www.w3.org/1999/xlink" x="0px" y="0px"
	 viewBox="0 0 1000 1000" style="enable-background:new 0 0 1000 1000;" xml:space="preserve">
<style type="text/css">
	.st0{fill:#3CC194;}
	.st1{fill:#FFFFFF;}
</style>
<g>
	<circle class="st0" cx="500.5" cy="499.5" r="479.5"/>
</g>
<g id="Group_5" transform="translate(-91.385 -97.772)">
	<g id="Group_4" transform="translate(91.385 97.772)">
		<g id="Group_3">
			<g id="Laag_1">
				<g id="Group_2">
					<g id="Group_1">
						<path id="Path_1" class="st1" d="M724.8,589.4l-1.4,1.5c-8.6,8.7-19,15.6-30.4,20.1h-0.6c-10.5,4.1-21.7,6.2-32.9,6.2
							c-16.5,0.3-32.8-3.2-47.7-10.3h-0.9l-2.2-1.1l-0.6-0.3c-13.8-7.4-25.1-18.7-32.6-32.5l-1.4-2.5l-30.5,32.7
							c0,0-6.1,31.3-8.8,46.6v1l0.7,0.7l0,0l0.4,0.5c31,34,74.9,53.3,120.9,53.3l2.5,0.1l2,0.1c30.1,0,59.7-7.7,86-22.3l0.8-0.4
							c14.5-8.2,27.8-18.4,39.4-30.3l1.4-1.5L724.8,589.4z"/>
						<path id="Path_2" class="st1" d="M294.4,438v0.6l12.4,46.5l2.5-4c13.4-19.4,33.8-32.9,56.9-37.4h1c8.1-1.7,16.4-2.3,24.7-1.9
							c12.5,0.8,24.6,4.4,35.6,10.4l0.9,0.5c15.1,8.5,28.5,19.8,39.4,33.3l1.8,2.3l29.2-41.1l0,0l9.3-43.4l-1-0.8l-3.3-2.9
							c-19.1-17.6-41.7-30.8-66.4-38.9c-13.3-4-27.1-6.2-40.9-6.4h-0.6c-31.3,0.1-62,8-89.5,22.9l-0.9,0.5l-12.3,55.1L294.4,438z"/>
						<path id="Path_3" class="st1" d="M567.7,556.5v-0.8c0.2-3.4-0.6-16.8-0.8-24.6l0.2-2.1c-0.4-20.7,6.3-40.9,19.2-57.1l0.4-0.6
							c1.9-2.4,3.8-4.6,5.9-6.8c16.8-17.3,39.8-27.1,63.9-27.1c3.8,0,7.7,0.2,11.5,0.6h0.6c19.8,2.6,38.2,11.6,52.5,25.5l1.5,1.5
							l61.7-62.2l-1.5-1.5c-31.2-30.3-72.2-48.3-115.6-51h-0.6l-11.7-0.6c-26.1-0.2-51.9,4.8-76,14.7c-15.9,6.8-30.6,16.3-43.2,28.1
							l-0.7,0.6h-0.8v0.4l-0.5,0.4l0,0l-0.7,0.6c-4.4,4.3-8.5,8.9-12.2,13.8v0.4l-10,43.5l-32.9,45.4v31.7
							c-0.3,35.1-20.5,66.9-52.2,82l-0.6,0.3c-11.6,5.2-24.1,7.9-36.8,8c-50,0.4-91.1-39.2-92.5-89.2l-0.4-29.6l0.1-1.9l-16.2-63.5
							l13.7-58.9l-1.5-92.5l-89.4-31.6l3.4,204.6v0.9l1.2,72.8c0,2.5,0.1,5,0.3,7.5c-0.1,0.4-0.1,0.9-0.1,1.3
							c3.5,50,28,96.2,67.4,127.2l0.6,0.5c32.5,25.8,72.9,39.7,114.4,39.5l6.5-0.1l1.4,0.1c41.6-0.1,81.6-15.7,112.3-43.8l0.5-0.5
							c4.2-4,8.2-8.3,12.1-12.8l0.3-0.4l9.6-51.1l35.3-40.5L567.7,556.5z"/>
					</g>
				</g>
			</g>
		</g>
	</g>
</g>
</svg>
