<svg width="407" height="405" viewBox="0 0 407 405" fill="none" xmlns="http://www.w3.org/2000/svg">
<g clip-path="url(#clip0_29_74)">
<path d="M406.88 202.69C406.88 202.69 406.88 202.69 406.88 202.68C406.88 201.58 406.89 200.48 406.88 199.37C406.88 199.37 406.88 199.37 406.88 199.36C406.88 199.33 406.88 199.31 406.88 199.28V199.26C406.88 198.38 406.86 197.53 406.85 196.69C406.82 195.17 406.78 193.71 406.71 192.32C406.71 192.32 406.71 192.31 406.71 192.3C406.71 192.28 406.71 192.26 406.71 192.24C406.71 192.24 406.71 192.24 406.71 192.23C406.66 191.08 406.61 189.93 406.54 188.8C406.47 187.66 406.39 186.52 406.31 185.33C406.13 182.93 405.9 180.57 405.65 178.33C405.52 177.17 405.38 176 405.24 174.94C405.24 174.94 405.24 174.92 405.24 174.91C405.24 174.89 405.24 174.88 405.24 174.86C405.14 174.1 405.04 173.36 404.94 172.62C404.83 171.81 404.71 171.01 404.59 170.21C404.47 169.43 404.35 168.65 404.22 167.88C404.03 166.72 403.83 165.57 403.63 164.45C403.52 163.84 403.41 163.24 403.3 162.65C403.25 162.38 403.2 162.12 403.15 161.86C403.09 161.55 403.03 161.23 402.97 160.92C402.91 160.62 402.85 160.33 402.79 160.04C402.73 159.77 402.68 159.5 402.62 159.24C402.56 158.95 402.5 158.67 402.43 158.38C402.38 158.15 402.33 157.92 402.28 157.7C402.28 157.66 402.26 157.62 402.25 157.58C402.25 157.56 402.25 157.53 402.24 157.51C402.23 157.45 402.22 157.39 402.2 157.34C401.97 156.35 401.75 155.35 401.52 154.35C401.48 154.15 401.42 153.9 401.34 153.62C401.34 153.58 401.32 153.54 401.31 153.51C401.1 152.64 400.88 151.77 400.65 150.85C400.63 150.79 400.62 150.73 400.61 150.67C400.61 150.66 400.61 150.64 400.6 150.63C400.6 150.63 400.6 150.63 400.6 150.62C400.6 150.6 400.59 150.58 400.58 150.56C400.04 148.4 399.43 146.16 398.76 143.9C398.75 143.86 398.73 143.81 398.72 143.77C398.72 143.75 398.71 143.73 398.7 143.72C398.7 143.71 398.7 143.69 398.69 143.68L398.64 143.5L398.57 143.28C398.57 143.28 398.56 143.23 398.55 143.21V143.17C398.32 142.42 398.09 141.68 397.87 140.94C397.87 140.94 397.87 140.93 397.87 140.92C397.85 140.85 397.83 140.78 397.8 140.71C397.57 139.96 397.34 139.21 397.09 138.47C397.04 138.31 396.99 138.15 396.93 137.99C396.93 137.98 396.93 137.96 396.92 137.95C396.85 137.72 396.77 137.5 396.69 137.27L396.65 137.14C396.65 137.14 396.65 137.13 396.65 137.12C396.63 137.05 396.6 136.97 396.58 136.9C396.46 136.53 396.33 136.16 396.21 135.79C396.21 135.79 396.21 135.77 396.21 135.76C396.1 135.43 395.99 135.1 395.87 134.76L395.85 134.7L395.78 134.5C395.67 134.18 395.56 133.85 395.44 133.52C395.43 133.48 395.42 133.45 395.4 133.41C395.36 133.3 395.32 133.2 395.29 133.09C395.22 132.88 395.14 132.67 395.07 132.46L395.03 132.35L394.8 131.73L394.26 130.25C394.26 130.25 394.26 130.23 394.25 130.22C394.22 130.14 394.19 130.06 394.16 129.97L393.96 129.42C393.91 129.28 393.86 129.14 393.8 129.01L393.75 128.89C393.75 128.89 393.7 128.77 393.7 128.75C393.52 128.27 393.33 127.8 393.14 127.3C393.07 127.12 393 126.94 392.93 126.77C392.92 126.74 392.91 126.71 392.9 126.68C392.74 126.27 392.58 125.87 392.42 125.46C392.42 125.45 392.41 125.43 392.4 125.42C392.4 125.4 392.38 125.38 392.38 125.36C392.14 124.75 391.9 124.15 391.64 123.55C391.63 123.52 391.61 123.49 391.6 123.46C391.59 123.43 391.58 123.4 391.56 123.37C391.56 123.36 391.55 123.35 391.54 123.33C391.54 123.32 391.53 123.3 391.52 123.29C391.09 122.24 390.64 121.19 390.19 120.15C390.19 120.13 390.17 120.11 390.16 120.09L390.13 120.03C389.92 119.55 389.7 119.06 389.48 118.57C389.21 117.95 388.94 117.33 388.65 116.71C388.57 116.53 388.49 116.35 388.4 116.18C388.21 115.74 388 115.31 387.8 114.88C387.64 114.52 387.46 114.15 387.29 113.79C387.19 113.57 387.09 113.36 386.98 113.15C386.95 113.09 386.92 113.03 386.89 112.97L386.32 111.79C386.32 111.79 386.29 111.73 386.27 111.7L386.22 111.59C386.06 111.27 385.9 110.95 385.74 110.63C385.59 110.33 385.45 110.04 385.3 109.75C385.01 109.16 384.71 108.57 384.4 107.98C384.31 107.81 384.22 107.63 384.13 107.46C384.07 107.35 384.02 107.24 383.96 107.13C383.92 107.06 383.88 106.98 383.84 106.91C383.84 106.9 383.83 106.89 383.82 106.87C383.82 106.86 383.81 106.85 383.8 106.83C383.79 106.81 383.77 106.78 383.76 106.76L383.25 105.8L383.23 105.76C383.23 105.76 383.2 105.71 383.19 105.68C383.11 105.54 383.04 105.39 382.96 105.25C382.72 104.79 382.46 104.32 382.21 103.86C382.18 103.81 382.15 103.75 382.12 103.69C382.12 103.69 382.12 103.69 382.12 103.68C382.08 103.6 382.05 103.55 382.01 103.48C381.97 103.41 381.93 103.32 381.89 103.26C381.68 102.87 381.46 102.48 381.24 102.1C381.18 102 381.13 101.9 381.07 101.8C380.98 101.64 380.91 101.5 380.84 101.38C380.71 101.14 380.57 100.89 380.43 100.65L380.3 100.43C380.25 100.34 380.21 100.28 380.16 100.18L380.11 100.09C380.05 99.9799 379.99 99.8699 379.92 99.7599C379.9 99.7299 379.88 99.6999 379.86 99.6599C379.85 99.6399 379.84 99.6199 379.83 99.6099C379.36 98.7999 378.89 97.9899 378.41 97.1799C377.93 96.3799 377.44 95.5699 376.95 94.7699C376.88 94.6399 376.79 94.5099 376.72 94.3799C376.66 94.2799 376.61 94.1899 376.55 94.0899C376.32 93.7199 376.09 93.3499 375.85 92.9799C375.79 92.8799 375.71 92.7499 375.61 92.5999C375.55 92.4999 375.48 92.3999 375.42 92.2999C375.37 92.2299 375.33 92.1599 375.28 92.0799C375.05 91.6999 374.81 91.3199 374.56 90.9599L374.19 90.3899C373.88 89.8999 373.56 89.4099 373.24 88.9399C373.23 88.9199 373.21 88.8999 373.2 88.8799C373.12 88.7499 373.03 88.6099 372.93 88.4699C372.75 88.1999 372.57 87.9299 372.38 87.6499C372.38 87.6499 372.37 87.6299 372.36 87.6199C372.31 87.5499 372.26 87.4799 372.22 87.3999C372.18 87.3399 372.14 87.2799 372.1 87.2299C372.02 87.1099 371.94 86.9999 371.86 86.8799C371.8 86.7999 371.75 86.7099 371.69 86.6299C371.53 86.3899 371.36 86.1399 371.19 85.8999C371.18 85.8799 371.16 85.8599 371.15 85.8399C371.13 85.7999 371.1 85.7699 371.08 85.7299C370.83 85.3699 370.59 85.0099 370.33 84.6499C370.3 84.6099 370.27 84.5699 370.24 84.5299C370.14 84.3899 370.05 84.2599 369.95 84.1199C369.92 84.0799 369.9 84.0399 369.87 83.9999L369.23 83.0899C369.18 83.0199 369.14 82.9599 369.09 82.8899L368.27 81.7699L368.18 81.6499C368.18 81.6499 368.13 81.5699 368.1 81.5399C368.1 81.5399 368.1 81.5399 368.1 81.5299C367.87 81.1999 367.63 80.8799 367.39 80.5499C367.39 80.5499 367.39 80.5399 367.38 80.5299C367.17 80.2399 366.96 79.9599 366.75 79.6799L366.45 79.2799C366.15 78.8599 365.83 78.4499 365.52 78.0399C365.49 77.9999 365.45 77.9499 365.42 77.9099C365.42 77.9099 365.41 77.8999 365.4 77.8899C365.4 77.8899 365.4 77.8899 365.39 77.8799C364.62 76.8799 363.84 75.8699 363.04 74.8399C362.57 74.2499 362.11 73.6699 361.63 73.0799L361.53 72.9499C361.53 72.9499 361.5 72.9199 361.49 72.8999C361.29 72.6499 361.09 72.3999 360.89 72.1699C360.71 71.9499 360.53 71.7299 360.35 71.5099C360.3 71.4499 360.25 71.3899 360.21 71.3399C360.01 71.0999 359.82 70.8599 359.62 70.6199C359.53 70.4999 359.43 70.3899 359.33 70.2699C359.28 70.2099 359.23 70.1499 359.18 70.0899C359.07 69.9599 358.96 69.8199 358.85 69.6899C358.85 69.6899 358.85 69.6899 358.84 69.6799C358.83 69.6599 358.81 69.6499 358.8 69.6299C358.8 69.6199 358.78 69.6099 358.77 69.5999C358.56 69.3499 358.36 69.1099 358.15 68.8699C358.08 68.7899 358.01 68.7099 357.95 68.6299C357.94 68.6199 357.93 68.6099 357.92 68.5899C357.87 68.5299 357.82 68.4699 357.76 68.4099C357.59 68.2199 357.43 68.0299 357.26 67.8299C357.24 67.8099 357.23 67.7999 357.21 67.7799C357.09 67.6299 356.97 67.4999 356.88 67.3999C356.28 66.6999 355.66 65.9999 355.04 65.3199C354.86 65.1099 354.68 64.8999 354.5 64.7099C354.46 64.6699 354.43 64.6299 354.39 64.5899C354.04 64.1999 353.69 63.8099 353.33 63.4299C353.11 63.1799 352.88 62.9399 352.66 62.6999C352.28 62.2899 351.9 61.8799 351.56 61.5299C351.54 61.5099 351.52 61.4899 351.5 61.4599C351.48 61.4399 351.46 61.4199 351.44 61.3999C351.26 61.2099 351.08 61.0099 350.89 60.8199C350.74 60.6599 350.59 60.4999 350.43 60.3399C350.3 60.1999 350.17 60.0699 350.04 59.9399C349.98 59.8699 349.91 59.7999 349.85 59.7399L349.77 59.6599L348.85 58.6999C348.85 58.6999 348.76 58.6099 348.72 58.5599C348.67 58.5099 348.63 58.4699 348.58 58.4199L348.03 57.8699C347.43 57.2599 346.83 56.6499 346.21 56.0499C346.17 56.0099 346.13 55.9799 346.09 55.9399C346.09 55.9399 346.09 55.9399 346.08 55.9299C346.07 55.9199 346.06 55.9099 346.05 55.8999C345.95 55.7999 345.84 55.6999 345.74 55.5999C345.7 55.5599 345.67 55.5299 345.63 55.4899C345.63 55.4899 345.62 55.4799 345.61 55.4699C344.63 54.5099 343.64 53.5599 342.62 52.6099L340.98 51.0899C340.35 50.5099 339.73 49.9599 339.12 49.4099C337.86 48.2899 336.65 47.2199 335.44 46.1999C335.36 46.1299 335.27 46.0599 335.19 45.9899C334.75 45.6199 334.31 45.2499 333.87 44.8799C333.49 44.5599 333.11 44.2599 332.73 43.9399C332.39 43.6599 332.05 43.3799 331.71 43.1099L331.49 42.9299C331.04 42.5599 330.58 42.1799 330.15 41.8499C327.68 39.8999 325.39 38.1599 323.16 36.5399C323.13 36.5199 323.1 36.4999 323.08 36.4799L322.51 36.0699C322.08 35.7599 321.64 35.4499 321.26 35.1799C319.54 33.9599 317.76 32.7399 315.81 31.4599C315.07 30.9599 314.32 30.4699 313.56 29.9899C313.5 29.9499 313.45 29.9199 313.39 29.8799C312.72 29.4499 312.05 29.0199 311.37 28.6099C310.8 28.2599 310.24 27.9099 309.74 27.5999C308.16 26.6299 306.55 25.6799 304.95 24.7599C304.18 24.3199 303.4 23.8799 302.61 23.4299C301.85 23.0099 301.08 22.5799 300.24 22.1299C300.16 22.0799 300.07 22.0399 299.99 21.9999C299.73 21.8599 299.47 21.7199 299.21 21.5799C299.05 21.4899 298.89 21.4099 298.73 21.3199C298.44 21.1699 298.16 21.0199 297.87 20.8699C297.71 20.7799 297.54 20.6999 297.38 20.6099C297.1 20.4699 296.84 20.3299 296.58 20.1999C296.43 20.1199 296.28 20.0399 296.13 19.9699C295.74 19.7699 295.37 19.5799 295.02 19.4099C294.98 19.3899 294.93 19.3699 294.88 19.3499C276.28 10.0299 256.42 3.61993 235.86 0.289932C230.9 -0.510068 225.94 1.73993 223.27 5.99993C212.03 23.9599 204.31 43.3599 200.08 63.3099C196 46.0199 189.27 29.2599 179.94 13.5499C178.71 11.4799 177.4 9.37993 175.93 7.13993C173.13 2.84993 167.99 0.709932 162.97 1.72993C142.73 5.84993 123.28 13.0199 105.16 23.0399C104.92 23.1699 104.67 23.3099 104.43 23.4599L104.34 23.5099C103.03 24.2399 101.84 24.9199 100.71 25.5799C100.59 25.6499 100.48 25.7099 100.37 25.7799C100.22 25.8699 100.07 25.9599 99.92 26.0399C99.83 26.0899 99.74 26.1399 99.66 26.1999C98.68 26.7799 97.72 27.3699 96.81 27.9299C96.36 28.1999 95.93 28.4699 95.51 28.7399C94.02 29.6699 92.65 30.5499 91.35 31.4199C91.14 31.5599 90.93 31.6999 90.72 31.8299C90.5 31.9699 90.28 32.1199 90.06 32.2599C89.97 32.3199 89.89 32.3699 89.8 32.4299C89.08 32.9099 88.37 33.3899 87.67 33.8799C87.5 33.9899 87.33 34.1099 87.17 34.2299C86.28 34.8499 85.4 35.4699 84.52 36.0999C84.09 36.3999 83.68 36.7099 83.26 37.0199C83 37.2099 82.73 37.3999 82.47 37.5999C82.33 37.6999 82.2 37.7999 82.06 37.8999C81.65 38.1999 81.25 38.4999 80.89 38.7699C79.13 40.0899 77.51 41.3499 75.96 42.6099C75.28 43.1599 74.59 43.7099 73.91 44.2699C73.68 44.4499 73.46 44.6399 73.25 44.8199C73.01 45.0199 72.76 45.2299 72.52 45.4399C71.84 45.9999 71.17 46.5699 70.5 47.1499C69.73 47.7999 68.96 48.4799 68.18 49.1699L67.47 49.8099C66.7 50.4999 65.93 51.1999 65.25 51.8399C64.39 52.6299 63.55 53.4299 62.71 54.2299C61.91 54.9899 61.12 55.7599 60.34 56.5399C60.34 56.5399 60.34 56.5399 60.33 56.5499C60.17 56.6999 60.03 56.8399 59.91 56.9599C59.24 57.6299 58.57 58.3099 57.91 58.9799C57.89 58.9999 57.81 59.0899 57.78 59.1099C57.15 59.7599 56.52 60.4199 55.9 61.0799C55.87 61.1099 55.84 61.1299 55.82 61.1599C55.65 61.3399 55.47 61.5199 55.3 61.7199C55.1 61.9299 54.9 62.1399 54.71 62.3499C54.33 62.7499 53.96 63.1499 53.59 63.5599C53.56 63.5899 53.54 63.6199 53.51 63.6399C53.3 63.8599 53.09 64.0899 52.89 64.3199C52.79 64.4299 52.68 64.5399 52.58 64.6599C52.51 64.7399 52.43 64.8299 52.34 64.9199C52.23 65.0399 52.13 65.1599 52.02 65.2799C52 65.3099 51.97 65.3399 51.94 65.3699C51.94 65.3699 51.92 65.3899 51.92 65.3999C51.58 65.7799 51.24 66.1599 50.91 66.5399C50.73 66.7299 50.56 66.9199 50.4 67.1199C50.06 67.4999 49.73 67.8799 49.41 68.2599C49.1 68.6099 48.8 68.9599 48.49 69.3399C48.31 69.5499 48.12 69.7699 47.95 69.9799C47.9 70.0299 47.86 70.0799 47.82 70.1399C47.77 70.1999 47.73 70.2499 47.68 70.3099C47.32 70.7399 46.96 71.1699 46.61 71.5999C46.53 71.6899 46.45 71.7899 46.38 71.8799C46.3 71.9699 46.22 72.0699 46.15 72.1599C45.81 72.5699 45.47 72.9799 45.15 73.3899C44.97 73.6099 44.79 73.8299 44.61 74.0599L44.44 74.2699C44.29 74.4599 44.13 74.6499 43.98 74.8499C43.83 75.0299 43.68 75.2199 43.53 75.4199C43.49 75.4699 43.45 75.5199 43.41 75.5699C43.1 75.9699 42.79 76.3699 42.48 76.7599C42.28 77.0099 42.1 77.2499 41.9 77.5099L41.86 77.5599C41.15 78.4799 40.45 79.4099 39.76 80.3499C39.71 80.4199 39.66 80.4899 39.6 80.5699C39.44 80.7899 39.28 81.0199 39.12 81.2399C38.9 81.5499 38.67 81.8499 38.45 82.1599C38.16 82.5499 37.87 82.9599 37.58 83.3699L37.21 83.8899C36.82 84.4499 36.43 85.0099 36.04 85.5699C35.93 85.7199 35.82 85.8799 35.71 86.0399C35.36 86.5499 35.02 87.0599 34.67 87.5799C34.5 87.8399 34.32 88.0999 34.15 88.3599L33.9 88.7299C33.85 88.8099 33.8 88.8799 33.75 88.9599L33.51 89.3399C33.15 89.8799 32.79 90.4499 32.43 91.0099C31.67 92.1899 30.92 93.3799 30.17 94.5999C29.6 95.5299 29.03 96.4599 28.48 97.3899C28.42 97.4899 28.34 97.6099 28.26 97.7499C28.2 97.8499 28.15 97.9499 28.08 98.0599C27.92 98.3399 27.76 98.6099 27.6 98.8899L27.4 99.2399C27.24 99.5199 27.08 99.7999 26.92 100.08L26.84 100.22C26.79 100.3 26.75 100.38 26.7 100.47C26.22 101.31 25.74 102.17 25.27 103.02C25.24 103.07 25.21 103.12 25.19 103.17L24.86 103.8C24.59 104.29 24.33 104.78 24.07 105.27C23.88 105.61 23.69 105.97 23.51 106.32C23.51 106.32 23.5 106.34 23.49 106.35C23.41 106.51 23.32 106.67 23.23 106.85C23.01 107.25 22.8 107.67 22.59 108.09C22.56 108.15 22.53 108.21 22.5 108.27C22.5 108.29 22.48 108.31 22.47 108.32L22.32 108.61C22.16 108.92 22 109.23 21.84 109.55L21.79 109.65C21.79 109.65 21.74 109.74 21.72 109.79C21.53 110.18 21.33 110.57 21.14 110.96C20.99 111.26 20.84 111.56 20.7 111.87C20.58 112.11 20.47 112.34 20.36 112.58C20.36 112.6 20.34 112.61 20.34 112.63C20.34 112.65 20.32 112.67 20.31 112.69C20.28 112.74 20.26 112.79 20.23 112.85C20.21 112.88 20.2 112.92 20.18 112.96C20.04 113.26 19.89 113.55 19.75 113.86C19.46 114.47 19.17 115.07 18.9 115.69C18.81 115.89 18.72 116.09 18.63 116.29C18.47 116.63 18.32 116.97 18.16 117.32V117.35C18.16 117.35 18.11 117.43 18.09 117.48C17.82 118.07 17.55 118.67 17.29 119.27C17.26 119.34 17.23 119.4 17.2 119.46C17.2 119.47 17.19 119.49 17.18 119.5C17.17 119.53 17.16 119.55 17.15 119.58C16.82 120.34 16.49 121.1 16.16 121.88C16.16 121.88 16.16 121.88 16.16 121.89C16.16 121.9 16.16 121.91 16.15 121.92C16.14 121.95 16.12 121.98 16.11 122C16.11 122.02 16.09 122.04 16.09 122.06C15.87 122.59 15.65 123.11 15.44 123.62C14.77 125.25 14.16 126.77 13.61 128.22C13.61 128.23 13.61 128.24 13.6 128.25C13.57 128.34 13.53 128.45 13.48 128.57C13.48 128.59 13.47 128.6 13.46 128.62C13.12 129.51 12.79 130.4 12.46 131.31C12.32 131.71 12.18 132.1 12.04 132.49L11.96 132.72C11.93 132.8 11.9 132.89 11.87 132.97C11.86 133 11.84 133.07 11.83 133.08C11.83 133.09 11.83 133.11 11.82 133.12L11.53 133.92C11.47 134.09 11.4 134.26 11.35 134.43L10.41 137.22C10.18 137.9 9.97001 138.59 9.75 139.28C9.35001 140.53 8.96 141.77 8.60001 143.02L8.56001 143.14C8.56001 143.14 8.56001 143.16 8.55 143.17C8.54 143.21 8.52001 143.25 8.51 143.29C8.51 143.29 8.51 143.29 8.51 143.3C8.51 143.32 8.5 143.34 8.49 143.36L8.33 143.92C8.33 143.92 8.33 143.92 8.33 143.93C8.33 143.95 8.32001 143.97 8.31001 143.99C8.29 144.05 8.27001 144.11 8.25 144.17C8.23 144.23 8.21 144.28 8.2 144.34C8.2 144.36 8.19001 144.38 8.18001 144.41C8.17 144.45 8.16 144.49 8.15 144.52C8.13 144.58 8.12001 144.64 8.10001 144.69C8.10001 144.71 8.09 144.73 8.08 144.75C7.92 145.3 7.76 145.85 7.61 146.41L7.43 147.07C7.43 147.07 7.41 147.13 7.41 147.16L7.21 147.88L7.18 148C7.13 148.18 7.08 148.36 7.04 148.53L6.84 149.3C6.71 149.77 6.61 150.26 6.48 150.74C6.22001 151.77 5.96 152.81 5.7 153.86C5.52 154.6 5.35 155.34 5.18 156.09C4.84 157.6 4.5 159.14 4.17 160.76C4.17 160.76 4.17 160.77 4.17 160.78C4.17 160.78 4.17 160.79 4.17 160.8C3.95 161.9 3.74 162.99 3.54 164.07C3.54 164.1 3.54 164.12 3.53 164.15C2.29 170.82 1.38 177.6 0.830005 184.27C0.830005 184.27 0.830005 184.27 0.830005 184.28C0.830005 184.28 0.830005 184.3 0.830005 184.32C0.780005 184.95 0.730005 185.56 0.680005 186.17C0.550005 187.91 0.450005 189.53 0.380005 191.07C0.320005 192.19 0.280005 193.3 0.230005 194.52C0.200005 195.62 0.170005 196.73 0.150005 197.88C0.130005 198.98 0.130005 200.08 0.130005 201.22C0.130005 201.23 0.130005 201.25 0.130005 201.26C0.130005 201.26 0.130005 201.28 0.130005 201.29C0.130005 201.35 0.130005 201.42 0.130005 201.48C0.130005 204.78 0.210005 208.16 0.380005 211.52C1.43 232.19 5.63 252.52 12.87 271.94C14.66 276.73 19.18 279.95 24.29 280.07C25.64 280.1 26.99 280.12 28.34 280.12C48.74 280.12 68.89 276.55 87.96 269.68C71.8 284.02 58.35 301.24 48.36 320.6C46.02 325.14 46.68 330.66 50.03 334.52C63.61 350.17 79.44 363.59 97.1 374.41C98.57 375.31 100.05 376.19 101.54 377.05C103.03 377.91 104.52 378.74 106 379.55C106.99 380.09 107.98 380.62 109.03 381.17C110 381.67 110.98 382.18 112.05 382.72C113.06 383.22 114.06 383.71 115.02 384.18C115.03 384.18 115.05 384.19 115.06 384.2C115.09 384.22 115.13 384.23 115.16 384.25C115.93 384.62 116.73 385 117.55 385.39C118.72 385.93 119.94 386.49 121.24 387.07C121.33 387.11 121.42 387.14 121.51 387.18C127.59 389.86 133.91 392.27 140.28 394.35C141.3 394.68 142.32 395.01 143.39 395.35C143.42 395.35 143.45 395.37 143.48 395.38C143.48 395.38 143.49 395.38 143.5 395.38C143.51 395.38 143.52 395.38 143.53 395.38C145.12 395.87 146.65 396.32 148.17 396.74C148.84 396.93 149.52 397.12 150.19 397.3C151.32 397.61 152.44 397.9 153.55 398.18C154.01 398.3 154.46 398.43 154.93 398.54L155.62 398.71C155.74 398.74 155.86 398.77 155.97 398.8L156.15 398.84C156.15 398.84 156.23 398.86 156.26 398.87L156.99 399.04C156.99 399.04 157.04 399.05 157.06 399.06L157.75 399.22C158.32 399.36 158.88 399.49 159.44 399.61H159.46C159.47 399.61 159.49 399.61 159.51 399.62C159.65 399.65 159.81 399.69 159.97 399.72C160.05 399.74 160.13 399.75 160.22 399.77C160.24 399.77 160.26 399.77 160.28 399.78L160.46 399.82L160.92 399.92C160.92 399.92 160.98 399.93 161.01 399.94C161.03 399.94 161.05 399.94 161.07 399.95L161.36 400.01C162.08 400.16 162.8 400.31 163.52 400.46C164.72 400.7 165.93 400.94 167.17 401.16L170.05 401.67C170.24 401.7 170.42 401.73 170.61 401.76L171.45 401.89H171.46C171.46 401.89 171.47 401.89 171.48 401.89C171.5 401.89 171.51 401.89 171.54 401.89C171.54 401.89 171.54 401.89 171.55 401.89C171.56 401.89 171.57 401.89 171.58 401.89C171.58 401.89 171.59 401.89 171.6 401.89H171.64C171.64 401.89 171.72 401.91 171.76 401.92L172.03 401.96C172.46 402.03 172.89 402.1 173.35 402.17C174.25 402.31 175.17 402.44 176.08 402.56C176.17 402.58 176.27 402.58 176.36 402.6C176.39 402.6 176.43 402.6 176.46 402.61C176.53 402.62 176.61 402.63 176.68 402.64C176.72 402.64 176.75 402.65 176.79 402.66L176.93 402.68C176.93 402.68 176.96 402.68 176.97 402.68L178.09 402.82C178.58 402.88 179.08 402.95 179.52 403C179.52 403 179.52 403 179.53 403C179.54 403 179.56 403 179.57 403C179.58 403 179.59 403 179.6 403C180.88 403.16 182.15 403.3 183.39 403.41C183.4 403.41 183.42 403.41 183.43 403.41C184.19 403.48 184.94 403.56 185.69 403.62C185.7 403.62 185.71 403.62 185.72 403.62H185.74C186.02 403.65 186.31 403.67 186.6 403.7C186.61 403.7 186.63 403.7 186.64 403.7C186.88 403.73 187.13 403.74 187.38 403.76C187.41 403.76 187.44 403.76 187.47 403.76C187.48 403.76 187.49 403.76 187.5 403.76C187.52 403.76 187.54 403.76 187.56 403.76C187.6 403.76 187.65 403.76 187.7 403.76C188.24 403.8 188.78 403.84 189.32 403.88C189.33 403.88 189.35 403.88 189.36 403.88C190.13 403.94 190.91 403.98 191.68 404.03C191.81 404.03 191.95 404.05 192.08 404.06C192.1 404.06 192.13 404.06 192.15 404.06C192.17 404.06 192.19 404.06 192.2 404.06C192.21 404.06 192.23 404.06 192.24 404.06C192.53 404.08 192.83 404.09 193.12 404.1C193.81 404.14 194.49 404.18 195.18 404.2C195.24 404.2 195.3 404.2 195.35 404.2C195.36 404.2 195.38 404.2 195.39 404.2C195.85 404.22 196.31 404.24 196.77 404.26C196.81 404.26 196.85 404.26 196.89 404.26C196.89 404.26 196.89 404.26 196.9 404.26C197.38 404.28 197.86 404.29 198.31 404.3C198.31 404.3 198.33 404.3 198.34 404.3C198.38 404.3 198.43 404.3 198.47 404.3C198.47 404.3 198.47 404.3 198.48 404.3C199.09 404.32 199.7 404.34 200.31 404.34C200.5 404.34 200.7 404.34 200.89 404.34C201.58 404.35 202.27 404.37 202.95 404.37C203.17 404.37 203.38 404.37 203.6 404.37C203.7 404.37 203.81 404.37 203.91 404.37C204.1 404.37 204.3 404.37 204.49 404.37C205.04 404.37 205.6 404.37 206.15 404.35H206.58C206.84 404.35 207.09 404.35 207.33 404.33C207.51 404.33 207.7 404.33 207.88 404.33H208.2C208.3 404.33 208.41 404.33 208.51 404.32H208.95C209.05 404.3 209.15 404.3 209.25 404.3C209.36 404.3 209.47 404.3 209.58 404.29C209.69 404.29 209.79 404.29 209.9 404.28C210.22 404.28 210.55 404.26 210.87 404.25H211.07C211.98 404.21 212.89 404.18 213.8 404.13C214.02 404.13 214.23 404.11 214.45 404.1C215.27 404.06 216.08 404.01 216.89 403.96L217.35 403.93C217.35 403.93 217.42 403.93 217.46 403.93C218.73 403.84 220 403.75 221.28 403.63C222.09 403.56 222.9 403.48 223.71 403.4C224.12 403.36 224.53 403.32 224.93 403.28C225.07 403.26 225.22 403.25 225.37 403.24C225.61 403.22 225.84 403.19 226.08 403.16C226.22 403.14 226.37 403.13 226.52 403.11C226.61 403.1 226.69 403.09 226.78 403.08C226.88 403.07 226.98 403.06 227.08 403.05C227.1 403.05 227.13 403.05 227.15 403.05C227.33 403.03 227.49 403.01 227.66 402.99C227.69 402.99 227.73 402.99 227.76 402.98L228.28 402.92C228.9 402.84 229.52 402.77 230.13 402.69C230.46 402.65 230.78 402.61 231.1 402.56C231.54 402.5 231.99 402.44 232.43 402.37C232.72 402.33 233.02 402.29 233.33 402.24C233.72 402.19 234.1 402.13 234.51 402.06C234.55 402.06 234.6 402.05 234.64 402.04C234.9 402 235.17 401.96 235.4 401.92C236 401.82 236.62 401.72 237.23 401.62C237.57 401.57 237.9 401.51 238.24 401.45L238.51 401.4C238.51 401.4 238.6 401.38 238.62 401.38C239 401.31 239.38 401.25 239.75 401.18C240.3 401.09 240.84 400.99 241.39 400.87C241.95 400.77 242.5 400.65 243.05 400.55C243.38 400.49 243.71 400.42 244.04 400.36C244.34 400.3 244.64 400.24 244.94 400.17C245.93 399.97 246.93 399.75 247.92 399.52C247.98 399.51 248.04 399.49 248.09 399.48C248.09 399.48 248.11 399.48 248.12 399.48C248.19 399.47 248.25 399.45 248.32 399.43C248.58 399.37 248.84 399.31 249.1 399.25C249.13 399.25 249.15 399.24 249.18 399.23C249.21 399.23 249.24 399.22 249.27 399.21C249.42 399.18 249.57 399.14 249.71 399.11C250.1 399.02 250.48 398.93 250.87 398.83C250.94 398.81 251.01 398.8 251.08 398.78C251.11 398.78 251.14 398.77 251.16 398.76C251.26 398.74 251.36 398.71 251.46 398.69C251.53 398.67 251.61 398.66 251.67 398.64C251.69 398.64 251.72 398.63 251.74 398.62C251.9 398.58 252.06 398.54 252.22 398.5C252.25 398.5 252.28 398.49 252.31 398.48C253.07 398.3 253.82 398.1 254.57 397.91C254.57 397.91 254.57 397.91 254.58 397.91C254.78 397.86 254.97 397.81 255.17 397.76H255.12C255.23 397.74 255.35 397.72 255.46 397.68C255.93 397.56 256.4 397.43 256.87 397.29C256.96 397.26 257.05 397.24 257.14 397.22L258.4 396.87C258.4 396.87 258.47 396.85 258.51 396.84C259.42 396.58 260.33 396.32 261.24 396.05C261.41 396 261.6 395.94 261.82 395.87C262.87 395.56 263.93 395.23 264.97 394.89C266.08 394.54 267.18 394.18 268.22 393.83C269.19 393.51 270.17 393.17 271.11 392.84L272.07 392.5C273.02 392.16 273.98 391.81 274.93 391.44C275.59 391.2 276.25 390.94 276.9 390.68C277.03 390.63 277.17 390.58 277.3 390.53C277.64 390.4 277.98 390.27 278.32 390.13C278.48 390.07 278.64 390 278.8 389.94C278.89 389.9 278.98 389.87 279.08 389.83C279.51 389.66 279.95 389.48 280.39 389.3C281.73 388.75 283.14 388.15 284.67 387.49C285.53 387.12 286.38 386.74 287.23 386.35C287.69 386.15 288.14 385.94 288.59 385.73C288.71 385.68 288.84 385.62 288.96 385.56C288.98 385.55 289 385.54 289.02 385.53C289.79 385.18 290.56 384.81 291.33 384.44C292.23 384.01 293.11 383.57 294.01 383.13C294.09 383.09 294.16 383.06 294.24 383.02C294.33 382.98 294.42 382.93 294.52 382.88C294.61 382.83 294.71 382.79 294.8 382.74C295.57 382.36 296.33 381.96 297.09 381.57C297.19 381.52 297.28 381.47 297.37 381.42C297.82 381.19 298.27 380.95 298.73 380.7C300.52 379.77 302.37 378.74 304.36 377.6C305.34 377.04 306.32 376.47 307.3 375.89C307.65 375.68 308 375.47 308.36 375.25C309.46 374.58 310.63 373.86 311.9 373.06L311.98 373.01C312.22 372.86 312.46 372.72 312.71 372.56C330.18 361.45 345.79 347.8 359.09 332.01C362.39 328.09 362.97 322.55 360.54 318.04C359.26 315.66 358.05 313.51 356.83 311.46C346.93 294.78 334.68 280.34 320.77 268.28C337.64 273.48 355.22 276.15 372.92 276.15C376.86 276.15 380.8 276.02 384.74 275.75C389.76 275.41 394.09 272.1 395.72 267.35C402.52 247.6 406.25 227.03 406.81 206.21C406.82 205.72 406.82 205.23 406.83 204.73C406.83 204.2 406.85 203.66 406.86 203.1C406.86 202.96 406.86 202.82 406.86 202.69H406.88ZM338.69 84.5799C339.13 85.0899 339.57 85.5999 340 86.1099C340.03 86.1499 340.07 86.1899 340.1 86.2299C340.68 86.9199 341.26 87.6199 341.82 88.3199C341.89 88.3999 341.96 88.4999 342.04 88.5899C342.06 88.6099 342.08 88.6299 342.09 88.6599C342.53 89.1999 342.95 89.7299 343.36 90.2399C344.07 91.1499 344.78 92.0599 345.48 92.9799C345.87 93.4799 346.24 93.9899 346.61 94.4999C346.61 94.4999 346.62 94.5099 346.62 94.5199L346.7 94.6199C347 95.0199 347.3 95.4199 347.59 95.8399C347.66 95.9399 347.73 96.0399 347.81 96.1399C347.86 96.2199 347.92 96.2899 347.98 96.3699C348.34 96.8499 348.68 97.3399 349.03 97.8399L349.36 98.2999C349.36 98.2999 349.37 98.3199 349.38 98.3199L349.49 98.4799C349.71 98.7999 349.94 99.1199 350.16 99.4399C350.23 99.5399 350.3 99.6399 350.37 99.7299C350.41 99.7899 350.45 99.8499 350.5 99.9199C350.54 99.9799 350.58 100.03 350.62 100.09L350.79 100.34C350.86 100.45 350.94 100.57 351.01 100.68C351.25 101.03 351.49 101.38 351.71 101.73C351.82 101.9 351.93 102.06 352.05 102.23C352.05 102.23 352.06 102.25 352.07 102.26C352.13 102.35 352.18 102.44 352.24 102.52C352.52 102.94 352.81 103.37 353.09 103.82L353.54 104.53C353.6 104.62 353.66 104.72 353.72 104.81C353.76 104.87 353.8 104.94 353.84 105C353.92 105.14 354.03 105.31 354.12 105.45L354.26 105.66C354.36 105.82 354.45 105.98 354.56 106.13C354.6 106.2 354.64 106.26 354.69 106.33C354.87 106.61 355.04 106.88 355.21 107.16C355.23 107.19 355.24 107.21 355.25 107.24C355.3 107.33 355.36 107.42 355.41 107.51C355.89 108.29 356.37 109.08 356.84 109.86C357.26 110.56 357.67 111.27 358.08 111.98C358.08 112 358.1 112.01 358.11 112.03C358.18 112.16 358.26 112.3 358.34 112.43L358.36 112.47C358.54 112.77 358.7 113.06 358.86 113.36C358.9 113.43 358.94 113.51 358.99 113.59C359.05 113.7 359.11 113.8 359.17 113.91C359.4 114.31 359.63 114.71 359.84 115.11C359.9 115.21 359.96 115.33 360.02 115.44C360.04 115.48 360.07 115.53 360.09 115.57C360.15 115.69 360.22 115.8 360.27 115.9C360.36 116.09 360.46 116.27 360.56 116.45C360.59 116.5 360.62 116.56 360.65 116.62C360.83 116.94 361 117.26 361.17 117.58L361.29 117.8C361.29 117.8 361.32 117.87 361.34 117.9C361.49 118.19 361.64 118.47 361.79 118.76C361.85 118.88 361.91 119 361.98 119.12C361.98 119.12 361.98 119.13 361.99 119.14L362.09 119.35C362.09 119.35 362.14 119.44 362.16 119.48C362.39 119.91 362.61 120.34 362.82 120.78C362.85 120.85 362.89 120.92 362.92 120.99C363.01 121.17 363.11 121.35 363.2 121.54C363.23 121.6 363.26 121.66 363.29 121.72C363.66 122.47 364.03 123.21 364.39 123.97L364.42 124.02C364.42 124.02 364.42 124.04 364.43 124.05C364.51 124.23 364.59 124.4 364.68 124.57C364.78 124.77 364.88 124.97 364.97 125.17C365.03 125.31 365.09 125.44 365.16 125.58C365.29 125.86 365.42 126.14 365.55 126.42C365.66 126.66 365.77 126.9 365.89 127.14C365.88 127.11 365.87 127.09 365.86 127.07C365.84 127.03 365.82 127 365.82 127C365.86 127.08 365.89 127.16 365.93 127.25C366.15 127.71 366.35 128.18 366.55 128.64C366.59 128.74 366.64 128.84 366.69 128.94C366.86 129.3 367.01 129.65 367.16 130C367.16 130.01 367.17 130.03 367.18 130.04C367.18 130.05 367.19 130.07 367.2 130.08C367.35 130.43 367.5 130.79 367.65 131.15C367.9 131.73 368.14 132.3 368.38 132.88C368.44 133.03 368.49 133.17 368.56 133.32C368.92 134.16 369.25 134.99 369.58 135.84C369.62 135.93 369.65 136.03 369.69 136.12C369.69 136.12 369.69 136.12 369.69 136.13C369.71 136.17 369.72 136.21 369.74 136.26C369.81 136.44 369.87 136.61 369.94 136.79C358.11 135.88 347.09 129.32 340.75 118.64C334.47 108.06 333.94 95.3499 338.68 84.5799H338.69ZM308.42 56.6499C309.59 57.4999 310.79 58.3999 312.03 59.3499C312.86 59.9899 313.71 60.6499 314.6 61.3499C314.91 61.5899 315.22 61.8499 315.53 62.0999L315.84 62.3499C315.84 62.3499 315.92 62.4199 315.97 62.4499C316.57 62.9299 317.18 63.4299 317.77 63.9299L317.87 64.0099C318.25 64.3199 318.63 64.6299 318.99 64.9499C319.04 64.9899 319.08 65.0299 319.13 65.0699C319.52 65.3999 319.92 65.7499 320.31 66.0899C307.86 85.5799 307.09 110.89 319.26 131.39C330.7 150.66 351.25 161.89 372.79 161.89C374.37 161.89 375.95 161.82 377.54 161.7C377.54 161.73 377.55 161.76 377.56 161.79C377.62 162.06 377.69 162.34 377.75 162.61C377.75 162.62 377.75 162.63 377.75 162.65C377.76 162.7 377.77 162.76 377.78 162.81C377.93 163.49 378.07 164.14 378.2 164.79C378.49 166.21 378.76 167.58 379.01 168.92C379.2 169.93 379.36 170.94 379.54 171.98C379.54 172.02 379.55 172.06 379.56 172.11C379.66 172.69 379.75 173.28 379.84 173.87C379.95 174.62 380.07 175.39 380.18 176.18C380.27 176.8 380.35 177.42 380.43 178.06C380.56 179.07 380.68 180.1 380.8 181.12C381.02 183.06 381.21 185.11 381.37 187.16C381.45 188.2 381.52 189.23 381.58 190.27C381.64 191.26 381.69 192.26 381.73 193.25C381.73 193.27 381.73 193.29 381.73 193.31C381.75 193.91 381.77 194.49 381.79 195.04C381.79 195.06 381.79 195.08 381.79 195.1C345.22 198.54 309.39 180.65 290.33 148.55C271.43 116.73 272.73 76.9299 292.87 46.5399C293.24 46.7599 293.62 46.9699 294 47.1999C294.21 47.3199 294.42 47.4399 294.63 47.5699C295.22 47.9199 295.81 48.2799 296.41 48.6499C296.49 48.6999 296.57 48.7399 296.65 48.7899C297.14 49.0899 297.63 49.3899 298.12 49.6999C298.16 49.7199 298.2 49.7499 298.24 49.7699C298.75 50.0799 299.26 50.3999 299.76 50.7299C299.82 50.7699 299.87 50.7999 299.93 50.8399C300.55 51.2299 301.16 51.6299 301.76 52.0299C301.81 52.0599 301.86 52.0999 301.91 52.1299C303.63 53.2599 305.19 54.3299 306.72 55.4199L308.43 56.6399L308.42 56.6499ZM82.19 70.0399C82.8 69.4699 83.42 68.8999 84.09 68.3099L84.71 67.7599C85.36 67.1799 86.02 66.5999 86.68 66.0399C86.72 65.9999 86.77 65.9599 86.81 65.9199C87.32 65.4799 87.83 65.0399 88.35 64.6099C88.44 64.5399 88.52 64.4699 88.61 64.3899C88.78 64.2399 88.95 64.0899 89.13 63.9499C89.26 63.8399 89.39 63.7299 89.52 63.6199L89.58 63.5699C89.58 63.5699 89.64 63.5199 89.67 63.4899C90.29 62.9799 90.91 62.4799 91.57 61.9499C92.91 60.8699 94.29 59.7899 95.88 58.5999C96.17 58.3799 96.45 58.1599 96.75 57.9499C96.93 57.8199 97.12 57.6799 97.3 57.5399C97.85 57.1299 98.4 56.7299 98.97 56.3199L99.07 56.2499C99.85 55.6799 100.64 55.1299 101.44 54.5699C101.55 54.4999 101.65 54.4299 101.76 54.3499C102.33 53.9499 102.91 53.5599 103.49 53.1699C103.67 53.0599 103.84 52.9399 104.01 52.8199C104.3 52.6199 104.6 52.4299 104.9 52.2299C104.96 52.1899 105.02 52.1499 105.08 52.1099C105.48 51.8399 105.9 51.5599 106.33 51.2899C106.44 51.2199 106.56 51.1399 106.67 51.0699C107 50.8599 107.34 50.6399 107.69 50.4199C107.75 50.3799 107.81 50.3499 107.86 50.3099C108.79 51.7099 109.69 53.1299 110.54 54.5699C123.62 76.5999 127.34 102.4 121.01 127.22C114.68 152.04 99.07 172.92 77.04 186C61.06 195.49 43.25 200.04 24.99 199.41C24.99 199.14 24.99 198.87 24.99 198.6C24.99 198.49 24.99 198.38 24.99 198.27C25.01 197.24 25.04 196.21 25.06 195.27C25.1 194.27 25.14 193.28 25.19 192.29C25.19 192.27 25.19 192.25 25.19 192.22C25.28 190.43 25.41 188.48 25.58 186.27C25.63 185.64 25.7 185.01 25.76 184.38C25.84 183.53 25.91 182.69 26.01 181.84C26.02 181.74 26.04 181.63 26.05 181.53C26.2 180.15 26.37 178.77 26.55 177.4C26.95 174.44 27.42 171.48 27.96 168.54C28.13 167.61 28.31 166.7 28.49 165.79C39.46 165.72 50.29 162.75 59.84 157.08C74.14 148.59 84.28 135.03 88.39 118.92C92.5 102.8 90.08 86.0499 81.59 71.7499C81.44 71.4999 81.27 71.2499 81.12 70.9999C81.45 70.6899 81.79 70.3699 82.15 70.0399H82.19ZM47.12 135.59C43.58 137.69 39.75 139.17 35.78 140.01C35.93 139.58 36.09 139.16 36.25 138.73C36.43 138.24 36.61 137.74 36.79 137.25C36.82 137.17 36.86 137.09 36.89 137.01C37.2 136.2 37.51 135.4 37.84 134.59C38.25 133.55 38.68 132.53 39.12 131.48C39.39 130.85 39.65 130.23 39.92 129.61C39.92 129.61 39.92 129.59 39.93 129.58C39.99 129.46 40.04 129.34 40.09 129.22C40.16 129.06 40.23 128.9 40.3 128.75C40.41 128.5 40.52 128.25 40.63 128C40.7 127.84 40.77 127.68 40.85 127.51L40.9 127.39C41 127.16 41.1 126.93 41.21 126.71C41.25 126.63 41.29 126.54 41.32 126.46L41.43 126.21C41.49 126.09 41.54 125.98 41.59 125.86C41.59 125.84 41.6 125.83 41.61 125.82L41.65 125.74C41.73 125.58 41.8 125.43 41.88 125.27C42.09 124.81 42.3 124.36 42.52 123.91C42.6 123.75 42.68 123.58 42.75 123.41C42.8 123.32 42.83 123.23 42.88 123.13L43.1 122.69C43.16 122.57 43.22 122.44 43.28 122.31C43.31 122.24 43.34 122.18 43.38 122.12C43.43 122.01 43.49 121.91 43.54 121.8C43.56 121.76 43.58 121.72 43.6 121.68C43.65 121.58 43.71 121.47 43.76 121.37C44.01 120.86 44.26 120.37 44.52 119.87C44.56 119.8 44.6 119.72 44.64 119.64C44.65 119.61 44.67 119.59 44.68 119.56C44.68 119.56 44.69 119.52 44.7 119.51C44.73 119.46 44.76 119.4 44.78 119.35C44.92 119.08 45.06 118.8 45.2 118.54C45.28 118.39 45.37 118.21 45.45 118.06L45.51 117.94C45.58 117.82 45.64 117.7 45.7 117.57C45.75 117.47 45.8 117.37 45.86 117.28C45.93 117.16 46 117.03 46.06 116.91C46.27 116.51 46.48 116.11 46.7 115.72C46.74 115.65 46.78 115.57 46.82 115.5L47.15 114.88C47.55 114.16 47.95 113.44 48.37 112.7L49.19 111.27C49.34 111.01 49.49 110.75 49.64 110.5C49.67 110.45 49.7 110.4 49.72 110.36C49.78 110.26 49.85 110.15 49.91 110.05C50.39 109.22 50.9 108.39 51.42 107.55C52.39 105.96 53.38 104.4 54.35 102.93L54.43 102.81L55.28 101.53C55.32 101.48 55.35 101.43 55.38 101.37C55.69 100.91 55.99 100.45 56.31 99.9999C56.34 99.9599 56.37 99.9199 56.38 99.8999C56.42 99.8399 56.46 99.7899 56.5 99.7299C56.86 99.1999 57.23 98.6799 57.6 98.1599L57.97 97.6299C58.17 97.3399 58.38 97.0499 58.59 96.7699C58.63 96.7099 58.67 96.6599 58.71 96.5999C59.06 96.0999 59.42 95.6199 59.78 95.1199C59.84 95.0399 59.89 94.9699 59.95 94.8899C60.17 94.5899 60.4 94.2899 60.62 93.9899C60.96 93.5399 61.3 93.0899 61.66 92.6199L61.94 92.2499C62 92.1799 62.05 92.1099 62.11 92.0299C62.44 91.6099 62.77 91.1799 63.1 90.7599C63.1 90.7599 63.1 90.7599 63.1 90.7499C69.15 107.26 62.78 126.3 47.12 135.6V135.59ZM26.53 224.42C27.02 224.42 27.51 224.45 28 224.45C49.63 224.45 71.09 218.63 89.81 207.51C117.58 191.02 137.27 164.7 145.25 133.41C153.23 102.12 148.54 69.5899 132.05 41.8199C131.37 40.6799 130.66 39.5499 129.94 38.4199C139.46 34.0999 149.33 30.6199 159.45 28.0399C179.24 62.4299 184.73 102.45 174.91 140.97C164.91 180.19 140.24 213.17 105.44 233.83C83.46 246.88 58.69 254.13 33.33 254.99C30.15 245.01 27.89 234.78 26.52 224.42H26.53ZM227.69 377.81C227.6 377.82 227.48 377.84 227.39 377.85C227.26 377.87 227.13 377.88 226.99 377.9C226.94 377.9 226.89 377.91 226.84 377.92C226.3 377.99 225.76 378.06 225.22 378.12L224.62 378.19C224.62 378.19 224.55 378.19 224.51 378.2H224.47C224.4 378.21 224.34 378.22 224.27 378.23C224.13 378.24 223.99 378.26 223.91 378.27C223.52 378.32 223.13 378.36 222.74 378.4C222.67 378.4 222.59 378.42 222.52 378.42C222.14 378.46 221.77 378.5 221.38 378.54C221.33 378.54 221.28 378.54 221.23 378.55C220.5 378.62 219.76 378.69 219.05 378.76C217.94 378.86 216.81 378.94 215.69 379.02L215.27 379.05C214.54 379.1 213.8 379.14 213.07 379.18C213.03 379.18 213 379.18 212.96 379.18C212.82 379.18 212.69 379.19 212.55 379.2C211.78 379.25 211.01 379.28 210.19 379.3H209.86C209.68 379.32 209.51 379.33 209.33 379.33C209.22 379.33 209.11 379.33 209.01 379.33C208.28 379.36 207.54 379.37 206.8 379.38C206.71 379.38 206.61 379.38 206.52 379.38C206.48 379.38 206.44 379.38 206.4 379.38H205.8C205.43 379.39 205.05 379.4 204.68 379.4C204.54 379.4 204.4 379.4 204.25 379.4C203.49 379.4 202.73 379.4 201.96 379.39C201.9 379.39 201.83 379.39 201.77 379.39C201.07 379.39 200.36 379.38 199.66 379.35H199.58C199.48 379.35 199.39 379.35 199.29 379.35H199.18C199.13 379.35 199.07 379.35 199.01 379.35H198.97C198.97 379.35 198.93 379.35 198.91 379.35C198.78 379.35 198.65 379.34 198.53 379.34C197.99 379.33 197.46 379.32 196.92 379.29C196.81 379.29 196.69 379.29 196.58 379.28C196.54 379.28 196.49 379.28 196.45 379.28C196.4 379.28 196.34 379.28 196.29 379.28C196.25 379.28 196.22 379.28 196.18 379.28C195.58 379.26 194.99 379.23 194.39 379.19C194.27 379.19 194.18 379.18 194.09 379.17C193.62 379.15 193.14 379.12 192.67 379.09C192.62 379.09 192.57 379.09 192.52 379.08C192.42 379.08 192.32 379.07 192.23 379.06C191.57 379.02 190.9 378.98 190.24 378.93C190.17 378.93 190.09 378.92 190.02 378.91C190 378.91 189.98 378.91 189.96 378.91C189.59 378.88 189.22 378.85 188.85 378.82C188.66 378.8 188.47 378.79 188.29 378.77C188.15 378.76 188.01 378.75 187.87 378.74C187.84 378.74 187.81 378.74 187.77 378.74C187.1 378.68 186.44 378.62 185.81 378.56C184.82 378.46 183.82 378.35 182.81 378.23C181.82 378.12 180.82 377.98 179.83 377.85C179.77 377.85 179.7 377.83 179.64 377.83C179.21 377.77 178.77 377.7 178.34 377.64C177.81 377.56 177.28 377.49 176.76 377.4C179.39 374.32 182.52 371.66 186.06 369.56C194.62 364.48 204.65 363.03 214.29 365.49C221.68 367.37 228.17 371.38 233.09 377C232.89 377.03 232.68 377.07 232.48 377.1C232.44 377.1 232.4 377.11 232.35 377.12C232.05 377.17 231.74 377.22 231.42 377.27L230.73 377.38C230.42 377.43 230.11 377.48 229.79 377.52C229.72 377.52 229.65 377.54 229.58 377.55C229.45 377.57 229.32 377.59 229.19 377.6C229.04 377.62 228.88 377.64 228.73 377.66C228.39 377.71 228.05 377.76 227.71 377.81H227.69ZM283.5 360.45C283.39 360.5 283.29 360.55 283.19 360.61C282.31 361.05 281.44 361.48 280.56 361.9C280.52 361.92 280.49 361.94 280.45 361.95C279.83 362.25 279.22 362.54 278.61 362.82C278.39 362.91 278.18 363.01 277.96 363.12C277.64 363.28 277.31 363.42 276.97 363.58C276.93 363.6 276.89 363.62 276.85 363.63C276.15 363.95 275.46 364.26 274.72 364.58C272.87 365.39 271.24 366.07 269.76 366.66C269.7 366.68 269.64 366.71 269.58 366.73L269.53 366.75C269.37 366.81 269.21 366.87 269.05 366.94C268.94 366.98 268.83 367.03 268.77 367.06C268.55 367.14 268.33 367.22 268.11 367.31C267.49 367.56 266.86 367.8 266.23 368.03C266.17 368.05 266.12 368.07 266.06 368.09C265.25 368.4 264.42 368.7 263.62 368.99L262.77 369.29C261.98 369.57 261.18 369.85 260.31 370.14C259.89 370.28 259.47 370.41 259.05 370.55C258.9 370.3 258.77 370.04 258.62 369.79C250.13 355.49 236.57 345.35 220.46 341.24C204.34 337.13 187.59 339.55 173.29 348.04C163.74 353.71 155.96 361.8 150.64 371.4C149.75 371.12 148.86 370.84 147.96 370.54C147.51 370.39 147.07 370.24 146.63 370.09C145.65 369.76 144.68 369.44 143.7 369.09C143.52 369.03 143.34 368.96 143.16 368.89C139.15 367.45 135.19 365.88 131.35 364.19C131.32 364.18 131.29 364.17 131.26 364.15C129.23 363.24 127.45 362.42 125.82 361.64C124.91 361.2 124 360.75 123.18 360.35C122.26 359.88 121.33 359.41 120.48 358.96C120.12 358.77 119.77 358.58 119.42 358.39C127.6 342.05 140.12 328.6 156.1 319.12C201.57 292.12 260.53 307.15 287.53 352.62C288.38 354.06 289.2 355.52 289.99 357.01C289.91 357.05 289.84 357.09 289.76 357.14C289.42 357.33 289.09 357.51 288.76 357.69C288.64 357.76 288.51 357.83 288.39 357.89C287.94 358.13 287.5 358.37 287.06 358.6C287 358.63 286.94 358.67 286.87 358.7C286.55 358.88 286.23 359.05 285.91 359.21C285.73 359.3 285.55 359.39 285.38 359.49C284.75 359.82 284.13 360.14 283.5 360.45ZM334.24 322.4C327.13 330.06 319.34 337.05 311 343.34C310.36 342.17 309.71 341 309.03 339.86C274.99 282.53 200.66 263.59 143.34 297.63C124.19 309 108.54 325.54 98.19 345.09C89.75 338.93 81.86 332.05 74.62 324.49C87.52 302.64 105.73 284.36 127.71 271.31C198.94 229.02 291.11 252 334.25 322.41L334.24 322.4ZM145.48 235.43C171.65 212.23 190.31 181.78 199.14 147.15C199.76 144.7 200.33 142.24 200.84 139.78C204.91 157.07 211.62 173.92 221.02 189.74C230.76 206.14 243 220.73 257.21 233.05C221.37 221.98 182.14 222.27 145.48 235.43ZM303.4 234.33C278.14 221.35 257.09 201.52 242.52 176.97C214.86 130.39 214.14 73.4299 240.13 26.3899C250.45 28.5599 260.52 31.6399 270.26 35.5699C246.62 73.4999 245.6 122.2 268.84 161.34C290.9 198.49 330.8 220.54 372.87 220.54C375.51 220.54 378.16 220.44 380.81 220.27C379.67 230.71 377.63 241.03 374.67 251.14C349.94 251.43 325.49 245.67 303.41 234.32L303.4 234.33Z" fill="black"/>
</g>
<defs>
<clipPath id="clip0_29_74">
<rect width="406.89" height="404.44" fill="white"/>
</clipPath>
</defs>
</svg>
