<?xml version="1.0" encoding="UTF-8" standalone="no"?>
<svg
   version="1.1"
   id="Layer_1"
   x="0px"
   y="0px"
   width="100%"
   viewBox="0 0 1000 1000"
   enable-background="new 0 0 1000 1000"
   xml:space="preserve"
   sodipodi:docname="poa.svg"
   inkscape:version="1.2.1 (9c6d41e, 2022-07-14)"
   xmlns:inkscape="http://www.inkscape.org/namespaces/inkscape"
   xmlns:sodipodi="http://sodipodi.sourceforge.net/DTD/sodipodi-0.dtd"
   xmlns="http://www.w3.org/2000/svg"
   xmlns:svg="http://www.w3.org/2000/svg"><defs
   id="defs188" /><sodipodi:namedview
   id="namedview186"
   pagecolor="#ffffff"
   bordercolor="#000000"
   borderopacity="0.25"
   inkscape:showpageshadow="2"
   inkscape:pageopacity="0.0"
   inkscape:pagecheckerboard="0"
   inkscape:deskcolor="#d1d1d1"
   showgrid="false"
   inkscape:zoom="0.236"
   inkscape:cx="381.35593"
   inkscape:cy="527.54237"
   inkscape:window-width="1419"
   inkscape:window-height="775"
   inkscape:window-x="0"
   inkscape:window-y="38"
   inkscape:window-maximized="0"
   inkscape:current-layer="Layer_1" />
<path
   fill="#000000"
   opacity="1.000000"
   stroke="none"
   d=" M633.000000,1001.000000   C422.000000,1001.000000 211.500000,1001.000000 1.000000,1001.000000   C1.000000,667.666687 1.000000,334.333344 1.000000,1.000000   C334.333344,1.000000 667.666687,1.000000 1001.000000,1.000000   C1001.000000,334.333344 1001.000000,667.666687 1001.000000,1001.000000   C878.500000,1001.000000 756.000000,1001.000000 633.000000,1001.000000  M784.669739,672.855103   C794.145752,662.314392 803.621765,651.773621 813.724609,640.925415   C814.698914,639.618835 815.698975,638.330627 816.643677,637.002991   C829.406372,619.066589 840.071472,600.035461 847.206726,578.327209   C850.752625,563.883667 854.298584,549.440125 858.007690,534.160217   C858.623596,521.105896 859.239502,508.051544 860.005493,494.099121   C859.673523,488.358826 859.676147,482.574493 858.927612,476.889008   C857.918518,469.224976 856.331116,461.637085 855.005615,453.203766   C854.687683,452.463898 854.220886,451.752350 854.073792,450.979950   C850.591492,432.691254 844.344421,415.310303 835.957214,398.781250   C822.135681,371.542572 803.815674,347.756958 780.574158,327.737183   C761.816528,311.579742 741.145386,298.586853 718.364197,289.106110   C684.972351,275.209534 650.055298,270.021484 613.166443,272.027588   C600.445679,274.135834 587.724976,276.244080 574.297363,278.586792   C561.537231,283.060547 548.777161,287.534271 535.284058,292.067474   C525.353455,297.624695 515.422791,303.181915 504.830261,308.861633   C501.155365,311.370911 497.480499,313.880188 493.198883,316.066376   C483.795990,309.836639 474.393066,303.606903 464.370758,296.977905   C451.246643,291.691223 438.122498,286.404572 424.308685,280.804352   C409.873474,278.146759 395.438293,275.489197 380.216431,272.551636   C368.746185,272.349548 357.252441,271.584900 345.810547,272.062439   C321.946594,273.058380 298.925446,278.350800 276.611603,286.936890   C238.020355,301.786316 205.985779,325.570221 179.997925,357.559662   C160.209747,381.917725 146.270126,409.351379 137.602051,439.525116   C128.773987,470.255798 128.411179,501.501221 131.206177,533.786987   C131.503769,535.586060 131.676331,537.416565 132.119156,539.179138   C135.120651,551.126038 138.179230,563.058533 141.182007,575.749939   C142.709244,579.921509 143.806213,584.317139 145.840790,588.224548   C153.272995,602.498474 161.017899,616.609619 168.811508,631.402832   C171.523621,635.172852 174.071594,639.074768 176.976562,642.689819   C188.906326,657.535767 201.518997,671.722046 217.492004,683.484070   C222.414368,687.071472 227.209091,690.851868 232.283524,694.209412   C246.315277,703.493530 260.983337,711.577148 277.506042,717.460144   C296.747284,725.170593 316.850647,730.036377 337.339783,731.742188   C367.268646,734.234009 397.006805,731.843262 426.630585,722.704529   C437.123169,718.650330 448.063873,715.462402 457.995758,710.324402   C470.621979,703.792480 482.430603,695.680115 495.097717,688.854675   C508.787903,696.714783 522.074646,705.412048 536.258484,712.247803   C560.316284,723.842102 586.094666,730.017761 612.722290,731.595398   C625.756775,732.367676 638.904785,731.223206 652.880859,731.107483   C668.262695,729.765015 683.349670,726.964355 698.777649,721.999390   C702.056458,720.892090 705.459900,720.057739 708.591736,718.628357   C719.776184,713.523376 730.868530,708.216431 742.700928,702.917053   C757.649475,694.606689 771.490723,684.758545 784.669739,672.855103  z"
   id="path131" />
<path
   fill="#06C9FD"
   opacity="1.000000"
   stroke="none"
   d=" M131.387604,532.991943   C128.411179,501.501221 128.773987,470.255798 137.602051,439.525116   C146.270126,409.351379 160.209747,381.917725 179.997925,357.559662   C205.985779,325.570221 238.020355,301.786316 276.611603,286.936890   C298.925446,278.350800 321.946594,273.058380 345.810547,272.062439   C357.252441,271.584900 368.746185,272.349548 380.593018,273.063660   C380.200043,274.995117 379.692047,276.662231 378.619507,277.794708   C370.044952,286.848633 361.364014,295.801849 352.714783,304.785034   C341.315979,316.623932 329.884796,328.431885 318.526276,340.309357   C308.125153,351.185699 297.824371,362.157928 287.439453,373.049866   C272.985748,388.209167 258.502106,403.339935 244.017883,418.470093   C228.619339,434.555328 213.227661,450.647247 197.791794,466.696625   C179.821136,485.381653 161.876312,504.092682 143.751984,522.627869   C140.010544,526.454163 135.528366,529.556152 131.387604,532.991943  z"
   id="path133" />
<path
   fill="#0EC1FC"
   opacity="1.000000"
   stroke="none"
   d=" M168.644989,630.782043   C161.017899,616.609619 153.272995,602.498474 145.840790,588.224548   C143.806213,584.317139 142.709244,579.921509 141.565475,575.367676   C143.784409,574.004883 145.976212,573.382690 147.389389,571.977539   C151.859222,567.532959 155.962585,562.722961 160.343521,558.185364   C171.993439,546.118835 183.798004,534.200867 195.388184,522.077576   C214.120911,502.483185 232.632217,482.676575 251.419128,463.134613   C273.424683,440.244781 295.631439,417.548431 317.738190,394.755768   C327.563263,384.625763 337.406921,374.513031 347.150604,364.305084   C356.222504,354.800995 365.087830,345.099121 374.196167,335.630585   C388.925476,320.318756 403.829315,305.174652 418.531891,289.837341   C421.016052,287.245941 422.859131,284.039948 424.998413,281.117889   C438.122498,286.404572 451.246643,291.691223 464.594116,297.486206   C464.241180,298.799164 463.754761,299.690338 463.075500,300.395905   C444.958282,319.214569 426.839386,338.031708 408.681030,356.810638   C396.894165,369.000305 384.934052,381.025024 373.295166,393.353668   C370.081726,396.757507 367.741913,400.986115 364.538025,404.907532   C343.266418,404.223877 323.957031,409.109467 306.574738,420.711914   C280.566315,438.072235 266.104218,462.465820 262.840881,493.529297   C261.542755,505.885834 263.393311,517.965271 265.838989,530.124451   C258.645386,537.403442 251.754913,544.518188 244.862656,551.631226   C234.355637,562.474915 223.868408,573.337891 213.334473,584.155334   C199.342316,598.524109 185.304367,612.848267 171.318741,627.223328   C170.292435,628.278137 169.530060,629.589783 168.644989,630.782043  z"
   id="path135" />
<path
   fill="#09C5FC"
   opacity="1.000000"
   stroke="none"
   d=" M424.653564,280.961121   C422.859131,284.039948 421.016052,287.245941 418.531891,289.837341   C403.829315,305.174652 388.925476,320.318756 374.196167,335.630585   C365.087830,345.099121 356.222504,354.800995 347.150604,364.305084   C337.406921,374.513031 327.563263,384.625763 317.738190,394.755768   C295.631439,417.548431 273.424683,440.244781 251.419128,463.134613   C232.632217,482.676575 214.120911,502.483185 195.388184,522.077576   C183.798004,534.200867 171.993439,546.118835 160.343521,558.185364   C155.962585,562.722961 151.859222,567.532959 147.389389,571.977539   C145.976212,573.382690 143.784409,574.004883 141.584137,574.990540   C138.179230,563.058533 135.120651,551.126038 132.119156,539.179138   C131.676331,537.416565 131.503769,535.586060 131.296890,533.389465   C135.528366,529.556152 140.010544,526.454163 143.751984,522.627869   C161.876312,504.092682 179.821136,485.381653 197.791794,466.696625   C213.227661,450.647247 228.619339,434.555328 244.017883,418.470093   C258.502106,403.339935 272.985748,388.209167 287.439453,373.049866   C297.824371,362.157928 308.125153,351.185699 318.526276,340.309357   C329.884796,328.431885 341.315979,316.623932 352.714783,304.785034   C361.364014,295.801849 370.044952,286.848633 378.619507,277.794708   C379.692047,276.662231 380.200043,274.995117 380.986328,273.203674   C395.438293,275.489197 409.873474,278.146759 424.653564,280.961121  z"
   id="path137" />
<path
   fill="#6D51D7"
   opacity="1.000000"
   stroke="none"
   d=" M652.001404,730.946289   C638.904785,731.223206 625.756775,732.367676 612.722290,731.595398   C586.094666,730.017761 560.316284,723.842102 536.258484,712.247803   C522.074646,705.412048 508.787903,696.714783 494.683441,688.358887   C478.805145,672.990906 463.302734,658.158386 447.887695,643.235657   C431.749268,627.612671 415.699768,611.897888 399.588989,596.246277   C398.772552,595.453064 397.744080,594.878113 396.565704,593.946289   C396.135376,593.255005 395.953674,592.818909 395.864929,592.051758   C400.454407,576.090454 404.950897,560.460266 409.781372,544.985168   C412.310425,546.907471 414.448456,548.751587 416.709869,550.429382   C430.968231,561.008484 445.358002,571.413635 459.500885,582.144409   C473.078156,592.446106 486.314667,603.196289 499.870605,613.526672   C518.997192,628.102112 538.300171,642.445862 557.487610,656.941772   C567.418884,664.444763 577.224670,672.113892 587.160339,679.610901   C594.570923,685.202698 602.142639,690.580750 609.564148,696.158447   C620.035889,704.028503 630.552490,711.847229 640.807373,719.993286   C644.873291,723.223083 648.289429,727.270874 652.001404,730.946289  z"
   id="path139" />
<path
   fill="#8C73EE"
   opacity="1.000000"
   stroke="none"
   d=" M857.844482,534.996582   C854.298584,549.440125 850.752625,563.883667 846.704590,578.594727   C842.914612,576.644165 839.544800,574.537354 836.353333,572.188110   C823.920837,563.036377 811.488098,553.882935 799.167358,544.581787   C790.709412,538.196716 782.458069,531.538574 774.074768,525.053772   C764.625427,517.744385 755.243835,510.339691 745.615906,503.271881   C739.654114,498.895447 733.288574,495.068970 726.942261,490.634827   C726.520203,489.145630 726.165405,488.029785 726.014160,486.886993   C721.143921,450.098053 691.230896,416.729523 654.923889,408.159058   C646.779907,406.236633 638.319763,405.653778 629.978149,404.124939   C625.380615,399.818695 621.001160,395.593048 616.205322,391.909546   C599.081055,378.757019 581.824829,365.776062 564.600586,352.753845   C548.045044,340.237152 531.481201,327.731201 514.886536,315.266418   C511.839752,312.977875 508.627838,310.909241 505.492126,308.739136   C515.422791,303.181915 525.353455,297.624695 535.900635,292.257446   C538.378357,293.827454 540.281921,295.154297 542.093445,296.596680   C550.776978,303.510376 559.286865,310.652771 568.145630,317.332947   C576.729492,323.805725 585.820740,329.605377 594.406067,336.076324   C607.487915,345.936493 620.241394,356.231720 633.289917,366.137177   C648.077087,377.362457 663.084839,388.296722 677.904053,399.480316   C689.272888,408.059967 700.519226,416.802673 711.780212,425.524261   C720.434509,432.226990 728.934753,439.131622 737.667847,445.728851   C751.425964,456.122162 765.355103,466.288788 779.147583,476.636993   C787.472351,482.882935 795.643005,489.333801 803.942749,495.613464   C811.987732,501.700378 820.179749,507.594513 828.177795,513.741577   C836.591248,520.207886 844.809998,526.927429 853.223999,533.392944   C854.450623,534.335510 856.289124,534.481812 857.844482,534.996582  z"
   id="path141" />
<path
   fill="#9178F1"
   opacity="1.000000"
   stroke="none"
   d=" M857.926086,534.578369   C856.289124,534.481812 854.450623,534.335510 853.223999,533.392944   C844.809998,526.927429 836.591248,520.207886 828.177795,513.741577   C820.179749,507.594513 811.987732,501.700378 803.942749,495.613464   C795.643005,489.333801 787.472351,482.882935 779.147583,476.636993   C765.355103,466.288788 751.425964,456.122162 737.667847,445.728851   C728.934753,439.131622 720.434509,432.226990 711.780212,425.524261   C700.519226,416.802673 689.272888,408.059967 677.904053,399.480316   C663.084839,388.296722 648.077087,377.362457 633.289917,366.137177   C620.241394,356.231720 607.487915,345.936493 594.406067,336.076324   C585.820740,329.605377 576.729492,323.805725 568.145630,317.332947   C559.286865,310.652771 550.776978,303.510376 542.093445,296.596680   C540.281921,295.154297 538.378357,293.827454 536.267090,292.227722   C548.777161,287.534271 561.537231,283.060547 574.737793,278.779938   C577.339539,281.244629 579.282715,283.788269 581.706970,285.731964   C587.010315,289.984100 592.559448,293.929626 598.005310,298.004211   C607.967224,305.457642 617.965942,312.862518 627.878052,320.381622   C641.206787,330.492645 654.422607,340.752991 667.775269,350.832123   C675.845642,356.923920 684.192261,362.651855 692.216797,368.801636   C701.045410,375.567688 709.500061,382.824707 718.377808,389.523102   C737.293823,403.795563 756.417969,417.791809 775.377197,432.007446   C785.583740,439.660278 795.626404,447.531555 805.741638,455.306091   C820.492981,466.643890 835.193726,478.048676 850.035034,489.267517   C853.036926,491.536713 856.568237,493.105499 859.855469,494.997192   C859.239502,508.051544 858.623596,521.105896 857.926086,534.578369  z"
   id="path143" />
<path
   fill="#755ADD"
   opacity="1.000000"
   stroke="none"
   d=" M741.995728,702.985901   C730.868530,708.216431 719.776184,713.523376 708.591736,718.628357   C705.459900,720.057739 702.056458,720.892090 698.324036,721.646912   C697.047791,720.087830 696.457031,718.589539 695.365234,717.721741   C688.083496,711.934448 680.760620,706.194214 673.327026,700.603760   C658.733337,689.628540 643.979797,678.864868 629.437622,667.822449   C611.186646,653.963989 593.111694,639.874084 574.903809,625.958557   C560.397034,614.871643 545.809937,603.889648 531.249023,592.873596   C518.545776,583.263062 505.813385,573.690979 493.122528,564.064087   C478.326508,552.840271 463.608643,541.512817 448.768280,530.348083   C436.970093,521.472107 425.038696,512.773254 413.107697,503.760437   C413.048950,503.525146 413.119507,503.045258 413.521973,503.022186   C417.005737,503.659637 420.083588,504.337006 423.168976,504.977966   C444.433807,509.395508 465.279144,515.568237 484.466705,525.610779   C505.949890,536.854858 526.506714,549.868530 547.473633,562.100220   C550.314758,563.757690 553.196228,565.346008 556.036438,566.984680   C556.013855,567.002991 556.013733,566.944885 556.124023,567.174927   C556.507874,567.598755 556.781494,567.792480 557.026245,567.992798   C556.997314,567.999451 557.006165,567.940796 557.152588,568.168152   C557.795593,568.582031 558.292175,568.768494 558.988220,569.238770   C561.618225,571.517944 563.887756,573.761475 566.509094,575.462891   C574.815369,580.854309 583.253052,586.043213 591.955811,591.493896   C597.515198,593.486206 602.758789,595.295105 608.073914,597.433533   C610.402954,600.158386 612.399109,602.888306 614.963379,604.890686   C625.551636,613.158447 636.321899,621.192749 647.006775,629.337158   C665.495300,643.429871 683.937744,657.583252 702.461975,671.628845   C714.637085,680.860352 726.946045,689.915283 739.120056,699.148132   C740.344543,700.076660 741.049561,701.690247 741.995728,702.985901  z"
   id="path145" />
<path
   fill="#977FF6"
   opacity="1.000000"
   stroke="none"
   d=" M614.003296,272.166504   C650.055298,270.021484 684.972351,275.209534 718.364197,289.106110   C741.145386,298.586853 761.816528,311.579742 780.574158,327.737183   C803.815674,347.756958 822.135681,371.542572 835.957214,398.781250   C844.344421,415.310303 850.591492,432.691254 854.073792,450.979950   C854.220886,451.752350 854.687683,452.463898 854.740234,453.812195   C852.696777,453.820770 850.618774,453.622955 849.189148,452.556122   C839.614929,445.411438 830.216492,438.031769 820.689880,430.822418   C801.360840,416.195038 781.941040,401.687317 762.642456,387.020050   C737.661011,368.033783 712.776184,348.920593 687.821167,329.899506   C673.297180,318.829041 658.736084,307.807007 644.155518,296.811066   C635.559143,290.328064 626.833679,284.014557 618.305054,277.444702   C616.554565,276.096252 615.421143,273.946747 614.003296,272.166504  z"
   id="path147" />
<path
   fill="#7156DA"
   opacity="1.000000"
   stroke="none"
   d=" M413.166443,503.995758   C425.038696,512.773254 436.970093,521.472107 448.768280,530.348083   C463.608643,541.512817 478.326508,552.840271 493.122528,564.064087   C505.813385,573.690979 518.545776,583.263062 531.249023,592.873596   C545.809937,603.889648 560.397034,614.871643 574.903809,625.958557   C593.111694,639.874084 611.186646,653.963989 629.437622,667.822449   C643.979797,678.864868 658.733337,689.628540 673.327026,700.603760   C680.760620,706.194214 688.083496,711.934448 695.365234,717.721741   C696.457031,718.589539 697.047791,720.087830 697.933350,721.639954   C683.349670,726.964355 668.262695,729.765015 652.441162,731.026855   C648.289429,727.270874 644.873291,723.223083 640.807373,719.993286   C630.552490,711.847229 620.035889,704.028503 609.564148,696.158447   C602.142639,690.580750 594.570923,685.202698 587.160339,679.610901   C577.224670,672.113892 567.418884,664.444763 557.487610,656.941772   C538.300171,642.445862 518.997192,628.102112 499.870605,613.526672   C486.314667,603.196289 473.078156,592.446106 459.500885,582.144409   C445.358002,571.413635 430.968231,561.008484 416.709869,550.429382   C414.448456,548.751587 412.310425,546.907471 409.884857,544.564331   C410.825043,530.657471 411.995758,517.326599 413.166443,503.995758  z"
   id="path149" />
<path
   fill="#25ADFA"
   opacity="1.000000"
   stroke="none"
   d=" M395.771973,592.382812   C395.953674,592.818909 396.135376,593.255005 396.618164,594.308289   C402.680847,611.352905 408.870453,627.645386 414.104523,644.239197   C422.138458,669.709595 426.685730,695.808777 425.890411,722.657410   C397.006805,731.843262 367.268646,734.234009 337.339783,731.742188   C316.850647,730.036377 296.747284,725.170593 277.326569,716.871582   C279.959351,712.828003 282.531860,709.140259 285.623688,705.956787   C302.477051,688.604004 319.504486,671.420410 336.373230,654.082458   C343.307434,646.955444 349.951721,639.547180 356.805511,632.340698   C364.111694,624.658569 371.674011,617.213257 378.806793,609.375427   C383.179779,604.570129 386.955902,599.221619 391.316833,593.934326   C393.013092,593.295349 394.392548,592.839050 395.771973,592.382812  z"
   id="path151" />
<path
   fill="#16BAFB"
   opacity="1.000000"
   stroke="none"
   d=" M365.001221,404.836304   C367.741913,400.986115 370.081726,396.757507 373.295166,393.353668   C384.934052,381.025024 396.894165,369.000305 408.681030,356.810638   C426.839386,338.031708 444.958282,319.214569 463.075500,300.395905   C463.754761,299.690338 464.241180,298.799164 464.903809,297.685822   C474.393066,303.606903 483.795990,309.836639 493.741211,316.450836   C505.267914,327.190704 516.252319,337.546082 526.925903,348.073975   C519.938843,355.144592 513.239563,362.020752 506.590942,368.945465   C491.428711,384.737122 476.328522,400.588562 461.129303,416.344513   C452.493164,425.297058 443.711456,434.109222 434.706116,442.823883   C429.124573,437.394989 424.295959,431.521820 418.418518,427.017059   C411.597595,421.789154 403.856079,417.762329 396.296204,412.933929   C394.674805,411.928040 393.346680,410.864777 391.855560,410.532166   C382.924927,408.540222 373.956818,406.716461 365.001221,404.836304  z"
   id="path153" />
<path
   fill="#16BAFB"
   opacity="1.000000"
   stroke="none"
   d=" M168.728241,631.092407   C169.530060,629.589783 170.292435,628.278137 171.318741,627.223328   C185.304367,612.848267 199.342316,598.524109 213.334473,584.155334   C223.868408,573.337891 234.355637,562.474915 244.862656,551.631226   C251.754913,544.518188 258.645386,537.403442 266.119659,530.352295   C272.449585,548.394775 281.994843,563.882385 296.679352,575.973755   C300.755798,579.330383 304.918671,582.582153 308.974670,586.239014   C307.940247,588.101807 307.192719,589.820007 305.972809,591.081116   C289.459869,608.151611 272.881012,625.158325 256.319611,642.181946   C255.160950,643.372925 254.009766,644.571228 252.857758,645.768677   C240.928986,658.168701 229.000763,670.569214 217.072372,682.969604   C201.518997,671.722046 188.906326,657.535767 176.976562,642.689819   C174.071594,639.074768 171.523621,635.172852 168.728241,631.092407  z"
   id="path155" />
<path
   fill="#1EB2FA"
   opacity="1.000000"
   stroke="none"
   d=" M217.282196,683.226807   C229.000763,670.569214 240.928986,658.168701 252.857758,645.768677   C254.009766,644.571228 255.160950,643.372925 256.319611,642.181946   C272.881012,625.158325 289.459869,608.151611 305.972809,591.081116   C307.192719,589.820007 307.940247,588.101807 309.345642,586.291565   C317.905853,589.270325 325.822144,593.261658 334.191528,595.693542   C353.179749,601.211060 372.210541,599.997131 391.000031,594.117004   C386.955902,599.221619 383.179779,604.570129 378.806793,609.375427   C371.674011,617.213257 364.111694,624.658569 356.805511,632.340698   C349.951721,639.547180 343.307434,646.955444 336.373230,654.082458   C319.504486,671.420410 302.477051,688.604004 285.623688,705.956787   C282.531860,709.140259 279.959351,712.828003 277.081085,716.617249   C260.983337,711.577148 246.315277,703.493530 232.283524,694.209412   C227.209091,690.851868 222.414368,687.071472 217.282196,683.226807  z"
   id="path157" />
<path
   fill="#947CF4"
   opacity="1.000000"
   stroke="none"
   d=" M613.584839,272.097046   C615.421143,273.946747 616.554565,276.096252 618.305054,277.444702   C626.833679,284.014557 635.559143,290.328064 644.155518,296.811066   C658.736084,307.807007 673.297180,318.829041 687.821167,329.899506   C712.776184,348.920593 737.661011,368.033783 762.642456,387.020050   C781.941040,401.687317 801.360840,416.195038 820.689880,430.822418   C830.216492,438.031769 839.614929,445.411438 849.189148,452.556122   C850.618774,453.622955 852.696777,453.820770 854.733398,454.218567   C856.331116,461.637085 857.918518,469.224976 858.927612,476.889008   C859.676147,482.574493 859.673523,488.358826 859.930481,494.548157   C856.568237,493.105499 853.036926,491.536713 850.035034,489.267517   C835.193726,478.048676 820.492981,466.643890 805.741638,455.306091   C795.626404,447.531555 785.583740,439.660278 775.377197,432.007446   C756.417969,417.791809 737.293823,403.795563 718.377808,389.523102   C709.500061,382.824707 701.045410,375.567688 692.216797,368.801636   C684.192261,362.651855 675.845642,356.923920 667.775269,350.832123   C654.422607,340.752991 641.206787,330.492645 627.878052,320.381622   C617.965942,312.862518 607.967224,305.457642 598.005310,298.004211   C592.559448,293.929626 587.010315,289.984100 581.706970,285.731964   C579.282715,283.788269 577.339539,281.244629 575.091187,278.662720   C587.724976,276.244080 600.445679,274.135834 613.584839,272.097046  z"
   id="path159" />
<path
   fill="#876EEA"
   opacity="1.000000"
   stroke="none"
   d=" M727.104309,490.995605   C733.288574,495.068970 739.654114,498.895447 745.615906,503.271881   C755.243835,510.339691 764.625427,517.744385 774.074768,525.053772   C782.458069,531.538574 790.709412,538.196716 799.167358,544.581787   C811.488098,553.882935 823.920837,563.036377 836.353333,572.188110   C839.544800,574.537354 842.914612,576.644165 846.542053,578.928955   C840.071472,600.035461 829.406372,619.066589 816.643677,637.002991   C815.698975,638.330627 814.698914,639.618835 813.242188,640.769592   C811.718994,639.549744 810.797913,638.325195 809.619202,637.446106   C795.930786,627.236145 782.164185,617.130554 768.496521,606.893005   C752.310120,594.768738 736.131104,582.632080 720.105103,570.297913   C716.063049,567.187012 712.616028,563.302979 708.924438,559.426636   C716.852539,547.637878 723.155884,535.347351 725.179688,521.539917   C726.654114,511.480560 726.520874,501.185577 727.104309,490.995605  z"
   id="path161" />
<path
   fill="#7A60E1"
   opacity="1.000000"
   stroke="none"
   d=" M742.348328,702.951477   C741.049561,701.690247 740.344543,700.076660 739.120056,699.148132   C726.946045,689.915283 714.637085,680.860352 702.461975,671.628845   C683.937744,657.583252 665.495300,643.429871 647.006775,629.337158   C636.321899,621.192749 625.551636,613.158447 614.963379,604.890686   C612.399109,602.888306 610.402954,600.158386 608.478516,597.390625   C622.713806,599.996643 636.717590,600.360535 650.478149,596.857727   C659.173645,594.644287 667.507385,591.010132 676.070557,588.350098   C677.942566,590.573120 679.558899,592.700867 681.595398,594.290161   C684.866028,596.842590 688.536987,598.880005 691.824097,601.413452   C705.216492,611.735229 718.436768,622.281738 731.892822,632.518921   C746.293762,643.475037 760.936035,654.113525 775.361328,665.038086   C778.502808,667.417236 781.170410,670.422119 784.056274,673.138733   C771.490723,684.758545 757.649475,694.606689 742.348328,702.951477  z"
   id="path163" />
<path
   fill="#8066E5"
   opacity="1.000000"
   stroke="none"
   d=" M784.363037,672.996948   C781.170410,670.422119 778.502808,667.417236 775.361328,665.038086   C760.936035,654.113525 746.293762,643.475037 731.892822,632.518921   C718.436768,622.281738 705.216492,611.735229 691.824097,601.413452   C688.536987,598.880005 684.866028,596.842590 681.595398,594.290161   C679.558899,592.700867 677.942566,590.573120 676.299500,588.095337   C683.574524,582.220215 690.905762,577.199951 697.719727,571.555237   C701.858093,568.127014 705.197327,563.733948 708.895508,559.774292   C712.616028,563.302979 716.063049,567.187012 720.105103,570.297913   C736.131104,582.632080 752.310120,594.768738 768.496521,606.893005   C782.164185,617.130554 795.930786,627.236145 809.619202,637.446106   C810.797913,638.325195 811.718994,639.549744 812.928772,640.923340   C803.621765,651.773621 794.145752,662.314392 784.363037,672.996948  z"
   id="path165" />
<path
   fill="#2A82C4"
   opacity="1.000000"
   stroke="none"
   d=" M426.260498,722.680969   C426.685730,695.808777 422.138458,669.709595 414.104523,644.239197   C408.870453,627.645386 402.680847,611.352905 396.866821,594.563477   C397.744080,594.878113 398.772552,595.453064 399.588989,596.246277   C415.699768,611.897888 431.749268,627.612671 447.887695,643.235657   C463.302734,658.158386 478.805145,672.990906 494.430450,688.056152   C482.430603,695.680115 470.621979,703.792480 457.995758,710.324402   C448.063873,715.462402 437.123169,718.650330 426.260498,722.680969  z"
   id="path167" />
<path
   fill="#876EEA"
   opacity="1.000000"
   stroke="none"
   d=" M527.236694,347.901489   C516.252319,337.546082 505.267914,327.190704 494.044556,316.612396   C497.480499,313.880188 501.155365,311.370911 505.161194,308.800354   C508.627838,310.909241 511.839752,312.977875 514.886536,315.266418   C531.481201,327.731201 548.045044,340.237152 564.600586,352.753845   C581.824829,365.776062 599.081055,378.757019 616.205322,391.909546   C621.001160,395.593048 625.380615,399.818695 629.542969,404.289185   C616.333069,404.749390 604.123779,407.680725 591.944580,411.991760   C590.811707,411.154541 589.957947,410.485291 588.931885,409.538025   C568.251953,388.807159 547.744324,368.354340 527.236694,347.901489  z"
   id="path169" />
<path
   fill="#000000"
   opacity="1.000000"
   stroke="none"
   d=" M391.316833,593.934326   C372.210541,599.997131 353.179749,601.211060 334.191528,595.693542   C325.822144,593.261658 317.905853,589.270325 309.412872,585.934448   C304.918671,582.582153 300.755798,579.330383 296.679352,575.973755   C281.994843,563.882385 272.449585,548.394775 266.421997,530.187256   C263.393311,517.965271 261.542755,505.885834 262.840881,493.529297   C266.104218,462.465820 280.566315,438.072235 306.574738,420.711914   C323.957031,409.109467 343.266418,404.223877 364.538025,404.907532   C373.956818,406.716461 382.924927,408.540222 391.855560,410.532166   C393.346680,410.864777 394.674805,411.928040 396.414490,413.303436   C407.597839,442.660095 413.330048,472.306732 413.119507,503.045258   C413.119507,503.045258 413.048950,503.525146 413.107697,503.760437   C411.995758,517.326599 410.825043,530.657471 409.550873,544.409180   C404.950897,560.460266 400.454407,576.090454 395.864929,592.051758   C394.392548,592.839050 393.013092,593.295349 391.316833,593.934326  z"
   id="path171" />
<path
   fill="#000000"
   opacity="1.000000"
   stroke="none"
   d=" M592.223755,412.159729   C604.123779,407.680725 616.333069,404.749390 629.570007,404.618469   C638.319763,405.653778 646.779907,406.236633 654.923889,408.159058   C691.230896,416.729523 721.143921,450.098053 726.014160,486.886993   C726.165405,488.029785 726.520203,489.145630 726.942261,490.634827   C726.520874,501.185577 726.654114,511.480560 725.179688,521.539917   C723.155884,535.347351 716.852539,547.637878 708.924438,559.426636   C705.197327,563.733948 701.858093,568.127014 697.719727,571.555237   C690.905762,577.199951 683.574524,582.220215 676.232361,587.758423   C667.507385,591.010132 659.173645,594.644287 650.478149,596.857727   C636.717590,600.360535 622.713806,599.996643 608.406860,597.061157   C602.758789,595.295105 597.515198,593.486206 592.095825,591.110718   C590.586304,586.988770 589.155518,583.466492 587.933655,579.873230   C571.718750,532.189514 570.515259,484.119690 584.473999,435.726013   C586.764221,427.786041 589.626099,420.010986 592.223755,412.159729  z"
   id="path173" />
<path
   fill="#25ADFA"
   opacity="1.000000"
   stroke="none"
   d=" M591.944580,411.991760   C589.626099,420.010986 586.764221,427.786041 584.473999,435.726013   C570.515259,484.119690 571.718750,532.189514 587.933655,579.873230   C589.155518,583.466492 590.586304,586.988770 591.780029,590.927246   C583.253052,586.043213 574.815369,580.854309 566.509094,575.462891   C563.887756,573.761475 561.618225,571.517944 558.859375,568.983643   C558.022705,568.276733 557.514465,568.108765 557.006165,567.940796   C557.006165,567.940796 556.997314,567.999451 557.002441,567.702087   C556.676270,567.251404 556.345032,567.098145 556.013733,566.944885   C556.013733,566.944885 556.013855,567.002991 556.037781,566.637878   C548.810486,558.737671 541.608948,551.153931 534.296997,543.678223   C521.635681,530.733215 508.905884,517.855225 496.550659,504.937195   C498.633972,503.746246 500.625305,502.816559 502.068329,501.348114   C512.420044,490.813751 522.656128,480.165863 532.936890,469.561829   C543.895447,458.258636 554.980408,447.075043 565.787231,435.628784   C573.745361,427.199921 581.344910,418.432587 589.104248,409.816040   C589.957947,410.485291 590.811707,411.154541 591.944580,411.991760  z"
   id="path175" />
<path
   fill="#53459C"
   opacity="1.000000"
   stroke="none"
   d=" M496.204834,504.949097   C508.905884,517.855225 521.635681,530.733215 534.296997,543.678223   C541.608948,551.153931 548.810486,558.737671 556.060364,566.619568   C553.196228,565.346008 550.314758,563.757690 547.473633,562.100220   C526.506714,549.868530 505.949890,536.854858 484.466705,525.610779   C465.279144,515.568237 444.433807,509.395508 423.168976,504.977966   C420.083588,504.337006 417.005737,503.659637 413.521973,503.022186   C413.330048,472.306732 407.597839,442.660095 396.632446,413.583679   C403.856079,417.762329 411.597595,421.789154 418.418518,427.017059   C424.295959,431.521820 429.124573,437.394989 434.855164,443.123444   C454.832123,463.411072 474.368591,483.240631 493.918945,503.056519   C494.610199,503.757141 495.439728,504.321320 496.204834,504.949097  z"
   id="path177" />
<path
   fill="#53459C"
   opacity="1.000000"
   stroke="none"
   d=" M557.152588,568.168152   C557.514465,568.108765 558.022705,568.276733 558.659912,568.699829   C558.292175,568.768494 557.795593,568.582031 557.152588,568.168152  z"
   id="path179" />
<path
   fill="#53459C"
   opacity="1.000000"
   stroke="none"
   d=" M556.124023,567.174927   C556.345032,567.098145 556.676270,567.251404 557.031311,567.695435   C556.781494,567.792480 556.507874,567.598755 556.124023,567.174927  z"
   id="path181" />
<path
   fill="#1EB2FA"
   opacity="1.000000"
   stroke="none"
   d=" M496.550659,504.937195   C495.439728,504.321320 494.610199,503.757141 493.918945,503.056519   C474.368591,483.240631 454.832123,463.411072 435.144348,443.284149   C443.711456,434.109222 452.493164,425.297058 461.129303,416.344513   C476.328522,400.588562 491.428711,384.737122 506.590942,368.945465   C513.239563,362.020752 519.938843,355.144592 526.925903,348.073975   C547.744324,368.354340 568.251953,388.807159 588.931885,409.538025   C581.344910,418.432587 573.745361,427.199921 565.787231,435.628784   C554.980408,447.075043 543.895447,458.258636 532.936890,469.561829   C522.656128,480.165863 512.420044,490.813751 502.068329,501.348114   C500.625305,502.816559 498.633972,503.746246 496.550659,504.937195  z"
   id="path183" />
<text
   xml:space="preserve"
   style="fill:#ffff00;fill-rule:evenodd;stroke-width:1.00157"
   x="172.2034"
   y="661.01697"
   id="text348"><tspan
     sodipodi:role="line"
     id="tspan346"
     x="172.2034"
     y="661.01697"
     style="font-style:normal;font-variant:normal;font-weight:normal;font-stretch:normal;font-size:341.333px;font-family:'American Typewriter';-inkscape-font-specification:'American Typewriter, Normal';font-variant-ligatures:normal;font-variant-caps:normal;font-variant-numeric:normal;font-variant-east-asian:normal" /></text><text
   xml:space="preserve"
   style="font-style:normal;font-variant:normal;font-weight:normal;font-stretch:normal;font-size:341.333px;font-family:'American Typewriter';-inkscape-font-specification:'American Typewriter, Normal';font-variant-ligatures:normal;font-variant-caps:normal;font-variant-numeric:normal;font-variant-east-asian:normal;fill:#ffff00;fill-rule:evenodd;stroke-width:1.00157"
   x="173.72882"
   y="868.64404"
   id="text456"><tspan
     sodipodi:role="line"
     id="tspan454"
     x="173.72882"
     y="868.64404">POA</tspan></text></svg>
