<svg width="160" height="54" viewBox="0 0 160 54" fill="none" xmlns="http://www.w3.org/2000/svg">
<path d="M64.1186 35.0561L58.6345 19.0469H53.4841L48 35.0561H50.8359L52.3581 30.464H59.7605L61.2827 35.0561H64.1186ZM56.0697 19.3839L58.989 28.1469H53.1296L56.0697 19.3839Z" fill="black"/>
<path d="M67.5882 23.7022H65.0025V35.0561H67.609V28.6945C67.609 26.7145 68.5891 26.0404 70.6117 26.0404H71.3207V23.4494C69.1521 23.4494 68.0261 24.7554 67.5882 26.4617V23.7022Z" fill="black"/>
<path d="M77.343 35.3089C80.0329 35.3089 82.1806 33.8344 82.7437 31.1381H80.1163C79.6993 32.6126 78.8235 33.4552 77.343 33.4552C75.4663 33.4552 74.3611 31.8964 74.3611 29.3686C74.3611 26.883 75.4455 25.3031 77.343 25.3031C78.8443 25.3031 79.6993 26.3564 79.9912 27.6624H82.6394C82.1598 25.1346 80.2206 23.4494 77.343 23.4494C73.965 23.4494 71.7129 25.8297 71.7129 29.3686C71.7129 32.9075 73.9441 35.3089 77.343 35.3089Z" fill="black"/>
<path d="M90.3475 23.4494C88.4082 23.4494 87.3031 24.629 86.7818 26.0193V19.0469H84.1961V35.0561H86.8026V28.4628C86.8026 26.2932 87.7201 25.3242 89.1797 25.3242C90.6602 25.3242 91.5569 26.2721 91.5569 28.4207V28.4628V35.0561H94.1634V27.9573V27.9152C94.1634 25.3874 92.9331 23.4494 90.3475 23.4494Z" fill="black"/>
<path d="M108.535 34.7823L106.659 23.7022H102.029L100.153 34.7823L97.8174 23.7022H95.3777L97.7965 35.0561H102.509L104.344 23.955L106.179 35.0561H110.892L113.31 23.7022H110.871L108.535 34.7823Z" fill="black"/>
<path d="M119.262 23.4494C116.509 23.4494 114.591 24.8608 114.32 27.0936H116.947C117.093 26.1457 117.865 25.3031 119.262 25.3031C120.826 25.3031 121.576 26.3774 121.576 27.7045V27.7466V27.8941L118.595 28.2101C116.468 28.4207 113.945 28.9895 113.945 31.6226C113.945 33.7712 115.654 35.3089 117.781 35.3089C119.929 35.3089 120.888 34.2978 121.597 32.8022V35.0561H124.183V27.852V27.8098C124.183 25.4927 122.723 23.4494 119.262 23.4494ZM118.782 33.6448C117.594 33.6448 116.593 32.9075 116.593 31.6226C116.593 30.148 118.136 29.9374 119.554 29.7689L121.576 29.5582V30.2323C121.576 32.1281 120.638 33.6448 118.782 33.6448Z" fill="black"/>
<path d="M130.873 33.4552L127.453 23.7022H124.826L128.433 33.8344H130.748L129.1 39.1848H131.79L136.607 23.7022H133.875L130.873 33.4552Z" fill="black"/>
<path d="M18 27.096C18 20.4156 23.3726 15 30 15C36.6274 15 42 20.4156 42 27.096V38.988C41.9935 32.3661 36.6234 27 30 27C23.3726 27 18 32.3726 18 39L18 27.096Z" fill="black"/>
</svg>
