<svg width="196" height="196" viewBox="0 0 196 196" fill="none" xmlns="http://www.w3.org/2000/svg">
<path fill-rule="evenodd" clip-rule="evenodd" d="M117.724 25.4235C124.091 26.4852 130.306 22.4862 131.895 16.1149C133.565 9.41637 129.489 2.63227 122.79 0.962145C116.092 -0.707977 109.307 3.36832 107.637 10.0668C106.888 13.0714 107.295 16.0933 108.576 18.6631L88.4307 30.7679L64.7593 24.8659C65.8922 18.6866 62.037 12.6107 55.8566 11.0697C49.426 9.46638 42.9133 13.3796 41.31 19.8102C39.7527 26.0559 43.3995 32.3791 49.5022 34.2065L43.651 57.6743L23.2639 69.9241C21.5964 67.5864 19.1194 65.8084 16.1149 65.0593C9.41637 63.3892 2.63227 67.4655 0.962145 74.164C-0.707977 80.8625 3.36832 87.6466 10.0668 89.3167C16.5038 90.9216 23.0198 87.2201 25.0008 80.9844L37.0878 83.998L25.3034 131.262C19.0542 130.023 12.8128 134.106 11.1907 140.612C9.52054 147.311 13.3796 154.041 19.8102 155.644C25.9675 157.179 32.2499 153.457 34.2388 147.258L82.298 159.24L79.234 171.529C72.8703 170.446 66.7053 174.236 65.18 180.354C63.5767 186.784 67.7071 193.351 74.4056 195.021C81.1041 196.691 87.834 192.832 89.4374 186.402C90.17 183.463 89.7055 180.497 88.3459 177.982L108.616 165.802L131.325 171.464C130.188 177.876 134.198 184.164 140.612 185.763C147.311 187.433 154.095 183.357 155.765 176.658C157.348 170.31 153.769 163.885 147.689 161.809L153.403 138.891L173.432 126.857C175.014 129.238 177.415 131.041 180.354 131.774C186.784 133.377 193.351 129.247 195.021 122.548C196.691 115.85 192.832 109.12 186.402 107.516C180.347 106.007 174.172 109.58 172.077 115.593L159.965 112.573L171.903 64.6934C178.241 65.7358 184.365 61.951 185.884 55.8568C187.487 49.4262 183.357 42.8593 176.658 41.1892C170.22 39.5841 163.754 43.0863 161.837 49.0701L114.755 37.3312L117.724 25.4235ZM161.392 51.0203L114.271 39.2718L105.122 75.9642C110.469 77.6693 114.801 81.1872 117.602 85.6574L162.851 58.4688C161.584 56.2452 161.025 53.6478 161.392 51.0203ZM163.981 60.1232L118.59 87.3971C120.936 91.9802 121.763 97.3663 120.588 102.756L158.024 112.09L169.959 64.2201C167.525 63.4277 165.476 61.9723 163.981 60.1232ZM110.922 116.974C115.16 114.134 118.472 109.884 120.079 104.69L157.54 114.03L151.663 137.604L130.836 150.117L110.922 116.974ZM94.0172 120.504C99.3893 121.482 104.719 120.493 109.214 118.015L129.122 151.147L108.296 163.661L84.7224 157.784L94.0172 120.504ZM79.2514 111.034C82.2318 115.308 86.6694 118.594 92.0663 120.062L82.7818 157.3L34.7038 145.313C35.0966 142.859 34.7666 140.439 33.86 138.308L79.2514 111.034ZM75.5159 93.5793C74.4495 99.167 75.5159 104.719 78.1791 109.345L32.9296 136.534C31.5957 134.425 29.6322 132.745 27.2261 131.818L39.0284 84.4819L75.5159 93.5793ZM85.5385 78.6122C81.0295 81.5547 77.5366 86.078 75.9747 91.6324L39.5122 82.5413L45.3912 58.9619L66.2138 46.4505L85.5385 78.6122ZM103.192 75.4387C97.5882 74.1673 91.9776 75.0653 87.2592 77.5926L67.9281 45.4204L88.7507 32.9089L112.33 38.7879L103.192 75.4387ZM171.564 117.527L159.481 114.514L154.087 136.147L172.463 125.106C171.431 122.822 171.069 120.188 171.564 117.527ZM145.751 161.314L150.979 140.348L131.867 151.832L138.203 162.377C140.481 161.275 143.105 160.857 145.751 161.314ZM136.477 163.387L130.152 152.862L111.04 164.346L131.829 169.529C132.716 166.967 134.376 164.854 136.477 163.387ZM87.2543 176.304L105.871 165.118L84.2385 159.724L81.1746 172.013C83.6722 172.842 85.7604 174.37 87.2543 176.304ZM25.4543 79.0363L37.5716 82.0575L42.9668 60.4187L24.2922 71.6395C25.3977 73.8686 25.8462 76.4359 25.4543 79.0363ZM51.4601 34.6211L46.0755 56.2175L65.1837 44.7361L58.3817 33.4156C56.2983 34.4734 53.8996 34.9302 51.4601 34.6211ZM60.0839 32.3654L66.8981 43.706L86.0063 32.2247L64.2382 26.7972C63.4126 29.0871 61.94 30.9959 60.0839 32.3654ZM109.608 20.3764C111.094 22.4501 113.218 24.0809 115.783 24.9399L112.814 36.8473L91.1752 31.4522L109.608 20.3764Z" fill="url(#paint0_linear)"/>
<defs>
<linearGradient id="paint0_linear" x1="120.113" y1="0.870603" x2="73.6128" y2="195.871" gradientUnits="userSpaceOnUse">
<stop stop-color="#FF00FF"/>
<stop offset="0.461458" stop-color="#7A85FF"/>
<stop offset="1" stop-color="#21DFFF"/>
</linearGradient>
</defs>
</svg>
