<?xml version="1.0" encoding="UTF-8"?>
<svg width="26px" height="26px" viewBox="0 0 26 26" version="1.1" xmlns="http://www.w3.org/2000/svg" xmlns:xlink="http://www.w3.org/1999/xlink">
    <title>Group 9 Copy 6</title>
    <g id="StaFiHub" stroke="none" stroke-width="1" fill="none" fill-rule="evenodd">
        <g id="StaFi-rDOT-Copy-11" transform="translate(-436.000000, -383.000000)">
            <g id="Group-9-Copy-6" transform="translate(436.000000, 383.000000)">
                <ellipse id="Oval-5" fill="#FFFFFF" cx="12.9026068" cy="13" rx="12.9026068" ry="13"></ellipse>
                <ellipse id="Oval-6" stroke="#23292F" stroke-width="0.5" cx="12.9026068" cy="13" rx="7.7415641" ry="7.8"></ellipse>
                <path d="M12.9067441,1.1204271 C13.1147051,1.14348731 13.3013234,1.27179329 13.4755199,1.48283914 C13.7119552,1.76928969 13.9210028,2.20088571 14.1099474,2.77316999 C14.5080733,3.97903253 14.8045033,5.78823441 15.0035474,8.19973165 C15.422404,13.2743412 15.2017921,15.6352502 14.8646902,17.7012574 L14.8040988,18.063278 C14.7630403,18.3032407 14.7207953,18.5410909 14.6782154,18.7807674 C14.584696,19.3071747 14.4896527,19.8423103 14.4018975,20.4270641 C14.1050647,22.4049986 13.6012751,23.6362886 12.8003607,24.0104178 C12.6393058,23.9811988 12.493335,23.8726154 12.35383,23.7045448 C12.1590302,23.4698571 11.9826913,23.1238205 11.8188679,22.6701554 C11.4713838,21.7078914 11.1911869,20.2802093 10.9742893,18.3881936 C10.3177482,12.6611339 10.573948,9.74802854 10.9745959,5.86482411 C11.2258533,3.42955922 11.8493643,1.83035922 12.9067441,1.1204271 Z" id="Rectangle" stroke="#23292F" stroke-width="0.5"></path>
                <path d="M12.9067441,1.1204271 C13.1147051,1.14348731 13.3013234,1.27179329 13.4755199,1.48283914 C13.7119552,1.76928969 13.9210028,2.20088571 14.1099474,2.77316999 C14.5080733,3.97903253 14.8045033,5.78823441 15.0035474,8.19973165 C15.422404,13.2743412 15.2017921,15.6352502 14.8646902,17.7012574 L14.8040988,18.063278 C14.7630403,18.3032407 14.7207953,18.5410909 14.6782154,18.7807674 C14.584696,19.3071747 14.4896527,19.8423103 14.4018975,20.4270641 C14.1050647,22.4049986 13.6012751,23.6362886 12.8003607,24.0104178 C12.6393058,23.9811988 12.493335,23.8726154 12.35383,23.7045448 C12.1590302,23.4698571 11.9826913,23.1238205 11.8188679,22.6701554 C11.4713838,21.7078914 11.1911869,20.2802093 10.9742893,18.3881936 C10.3177482,12.6611339 10.573948,9.74802854 10.9745959,5.86482411 C11.2258533,3.42955922 11.8493643,1.83035922 12.9067441,1.1204271 Z" id="Rectangle-Copy" stroke="#23292F" stroke-width="0.5" transform="translate(12.902607, 12.566667) rotate(-60.000000) translate(-12.902607, -12.566667) "></path>
                <path d="M12.9067441,1.1204271 C13.1147051,1.14348731 13.3013234,1.27179329 13.4755199,1.48283914 C13.7119552,1.76928969 13.9210028,2.20088571 14.1099474,2.77316999 C14.5080733,3.97903253 14.8045033,5.78823441 15.0035474,8.19973165 C15.422404,13.2743412 15.2017921,15.6352502 14.8646902,17.7012574 L14.8040988,18.063278 C14.7630403,18.3032407 14.7207953,18.5410909 14.6782154,18.7807674 C14.584696,19.3071747 14.4896527,19.8423103 14.4018975,20.4270641 C14.1050647,22.4049986 13.6012751,23.6362886 12.8003607,24.0104178 C12.6393058,23.9811988 12.493335,23.8726154 12.35383,23.7045448 C12.1590302,23.4698571 11.9826913,23.1238205 11.8188679,22.6701554 C11.4713838,21.7078914 11.1911869,20.2802093 10.9742893,18.3881936 C10.3177482,12.6611339 10.573948,9.74802854 10.9745959,5.86482411 C11.2258533,3.42955922 11.8493643,1.83035922 12.9067441,1.1204271 Z" id="Rectangle-Copy-2" stroke="#23292F" stroke-width="0.5" transform="translate(12.902607, 12.566667) rotate(-300.000000) translate(-12.902607, -12.566667) "></path>
                <ellipse id="Oval-7" fill="#23292F" cx="13.3326937" cy="13.4333333" rx="1.29026068" ry="1.3"></ellipse>
                <ellipse id="Oval-7-Copy" fill="#23292F" cx="5.16104273" cy="10.4" rx="1" ry="1"></ellipse>
                <ellipse id="Oval-7-Copy-2" fill="#23292F" cx="11.1822592" cy="19.9333333" rx="1" ry="1"></ellipse>
                <ellipse id="Oval-7-Copy-3" fill="#23292F" cx="18.0636496" cy="6.93333333" rx="1" ry="1"></ellipse>
                <path d="M4.33333333,9.25561725 L4.33333333,5.21410124 C4.35872409,3.90469387 5.01887373,3.25 6.31380208,3.25 L8.21809896,3.25 L8.21809896,4.11873709 L6.7327474,4.11873709 C6.04719709,4.11873709 5.6917319,4.45867429 5.66634115,5.13855888 L5.66634115,9.25561725 L4.33333333,9.25561725 Z" id="r" fill="#00F3AB"></path>
            </g>
        </g>
    </g>
</svg>