<?xml version="1.0" encoding="UTF-8"?>
<svg width="76px" height="76px" viewBox="0 0 76 76" version="1.1" xmlns="http://www.w3.org/2000/svg" xmlns:xlink="http://www.w3.org/1999/xlink">
    <title>Group 9</title>
    <defs>
        <linearGradient x1="10.4929716%" y1="0%" x2="92.2525491%" y2="100%" id="linearGradient-1">
            <stop stop-color="#0093ED" offset="0%"></stop>
            <stop stop-color="#00F3AB" offset="100%"></stop>
        </linearGradient>
        <linearGradient x1="65.9995755%" y1="92.5603766%" x2="10.8118122%" y2="0%" id="linearGradient-2">
            <stop stop-color="#000A17" offset="0%"></stop>
            <stop stop-color="#00554F" offset="100%"></stop>
        </linearGradient>
        <linearGradient x1="29.8433528%" y1="0%" x2="71.557423%" y2="100%" id="linearGradient-3">
            <stop stop-color="#0093ED" offset="0%"></stop>
            <stop stop-color="#00F3AB" offset="100%"></stop>
        </linearGradient>
        <linearGradient x1="65.7777302%" y1="92.5603766%" x2="11.3551837%" y2="0%" id="linearGradient-4">
            <stop stop-color="#000A17" offset="0%"></stop>
            <stop stop-color="#00554F" offset="100%"></stop>
        </linearGradient>
        <linearGradient x1="61.8236321%" y1="92.5603766%" x2="21.0400619%" y2="0%" id="linearGradient-5">
            <stop stop-color="#000A17" offset="0%"></stop>
            <stop stop-color="#00554F" offset="100%"></stop>
        </linearGradient>
        <linearGradient x1="65.7777302%" y1="92.5603766%" x2="11.3551837%" y2="0%" id="linearGradient-6">
            <stop stop-color="#000A17" offset="0%"></stop>
            <stop stop-color="#00554F" offset="100%"></stop>
        </linearGradient>
        <linearGradient x1="65.7777302%" y1="92.5603766%" x2="11.3551837%" y2="0%" id="linearGradient-7">
            <stop stop-color="#000A17" offset="0%"></stop>
            <stop stop-color="#00554F" offset="100%"></stop>
        </linearGradient>
    </defs>
    <g id="staker---staking-flow" stroke="none" stroke-width="1" fill="none" fill-rule="evenodd">
        <g id="最终-copy-2" transform="translate(-212.000000, -48.000000)">
            <g id="Group-5-Copy-8" transform="translate(212.000000, 48.000000)">
                <circle id="Oval" stroke-opacity="0.2" stroke="#00F3AB" fill="url(#linearGradient-1)" cx="38" cy="38" r="37.5"></circle>
                <g id="Group-12" transform="translate(8.000000, 10.000000)">
                    <circle id="Combined-Shape-Copy-5" fill="url(#linearGradient-2)" cx="6.5" cy="6.5" r="6.5"></circle>
                    <path d="M5.76537585,4.68486739 L5.76537585,3 L4,3 L4,10 L5.76537585,10 L5.76537585,7.69266771 C5.76537585,6.49453978 7.42824601,5.14664587 8.80637813,5.14664587 L9,5.14664587 L9,3.21216849 L8.80637813,3.21216849 C7.59908884,3.21216849 6.31207289,3.71138846 5.76537585,4.68486739 Z" id="Path" fill="url(#linearGradient-3)"></path>
                </g>
                <g id="Group-58" transform="translate(13.000000, 10.000000)">
                    <path d="M24.5000134,9.35820896 C34.7646771,9.35820896 43.0862069,17.7378452 43.0862069,28.0745862 C43.0862069,38.4114627 34.7646771,46.7910448 24.5000134,46.7910448 C14.2351077,46.7910448 5.9137931,38.4114627 5.9137931,28.0745862 C5.9137931,17.7378452 14.2351077,9.35820896 24.5000134,9.35820896 Z" id="Path" fill-opacity="0.2" fill="url(#linearGradient-4)"></path>
                    <path d="M24.9082648,1.51646646 C24.6537072,1.27849345 24.5224175,1.27398185 24.5004913,1.27398185 C24.4782977,1.27398185 24.347008,1.27849345 24.0927177,1.51646646 C23.8314753,1.76071766 23.5194283,2.18219842 23.1830485,2.83249311 C22.511626,4.13050056 21.8690819,6.09241902 21.3153121,8.62399422 C20.692555,11.4708103 20.2002854,14.9504454 19.8898428,18.8456093 C21.3893798,19.5830647 22.9314322,20.3847968 24.4999565,21.2456959 C26.0687482,20.3846609 27.611068,19.5827929 29.1108724,18.8452288 C28.8004297,14.950228 28.3081602,11.4707288 27.6854031,8.62399422 C27.1316333,6.09241902 26.4890891,4.13050056 25.8176666,2.83249311 C25.4815543,2.18219842 25.1692399,1.76071766 24.9082648,1.51646646 Z M23.1875942,21.976384 C22.0356674,21.354246 20.9008537,20.7657275 19.7895706,20.2128398 C19.705342,21.4668184 19.6398308,22.7593902 19.5941067,24.0838421 C20.1818354,23.726176 20.7781206,23.3695969 21.3824276,23.0153009 C21.9867346,22.6608961 22.5889024,22.314509 23.1875942,21.976384 Z M18.6801325,18.2601348 C19.5799349,7.57898938 21.8466209,0 24.5004913,0 C27.1540942,0 29.4205129,7.57882631 30.320556,18.2597814 C39.8766283,13.711143 47.4711095,11.9156915 48.7981784,14.250197 C50.1249799,16.5847297 44.7969173,22.3679686 36.1406206,28.5000408 C44.7969173,34.632276 50.1249799,40.4152703 48.7981784,42.7498845 C47.4711095,45.0844987 39.8766283,43.2891016 30.320556,38.7402729 C29.4205129,49.4213368 27.1540942,57 24.5004913,57 C21.8466209,57 19.5799349,49.421065 18.6801325,38.7400011 C9.12371245,43.2888298 1.52877672,45.0844987 0.201841542,42.7498845 C-1.12504015,40.4152703 4.20310259,34.632276 12.8593191,28.5000408 C4.20310259,22.3679686 -1.12504015,16.5847297 0.201841542,14.250197 C1.52877672,11.9156372 9.12371245,13.7112246 18.6801325,18.2601348 Z M13.9638104,27.7281776 C10.7979102,25.5074404 8.07708481,23.334537 5.96120813,21.3631061 C4.0797277,19.6100799 2.72829937,18.063826 1.95732664,16.8241975 C1.57105147,16.2031467 1.36785992,15.7178513 1.29020915,15.3661372 C1.21459055,15.0236365 1.27641169,14.9063894 1.28713413,14.8875005 L1.28713413,14.8874733 C1.29796353,14.8684485 1.3672984,14.7551967 1.69752811,14.6503429 C2.03652829,14.5426897 2.55214121,14.4787936 3.27487634,14.5080646 C4.71740528,14.5664979 6.71156491,14.982244 9.14689538,15.7608474 C11.8854757,16.6363956 15.0981963,17.9433176 18.574352,19.6177714 C18.4533836,21.3054066 18.3659463,23.0624824 18.315623,24.8725558 C16.7971814,25.8221649 15.3424861,26.7777532 13.9638104,27.7281776 Z M13.9638104,29.2719039 C10.7979102,31.4926411 8.07708481,33.6655446 5.96120813,35.637057 C4.0797277,37.390056 2.72829937,38.9362283 1.95732664,40.1758296 C1.57105147,40.7968533 1.36785992,41.2822574 1.29020915,41.6339443 C1.21459055,41.9763907 1.27641169,42.0938008 1.28713413,42.1125538 C1.29791005,42.1315786 1.36719144,42.2449121 1.69752811,42.3498202 C2.03652829,42.4574462 2.55214121,42.5213152 3.27487634,42.4919626 C4.71740528,42.4335293 6.71156491,42.0179734 9.14689538,41.2393157 C11.8854757,40.3636316 15.0981963,39.0568999 18.574352,37.3824461 C18.4533836,35.6946749 18.3659463,33.9375991 18.315623,32.1275257 C16.7971814,31.1779166 15.3424861,30.2223283 13.9638104,29.2719039 Z M18.2823861,30.6077163 C17.1758091,29.9054296 16.1064264,29.2012404 15.0792382,28.5000408 C16.1064264,27.7988412 17.1758091,27.0946519 18.2823861,26.3923652 C18.2712626,27.0884009 18.2655939,27.7912312 18.2655939,28.5000408 C18.2655939,29.2088503 18.2712626,29.9119524 18.2823861,30.6077163 Z M19.5513239,31.4021375 C19.5299325,30.4487234 19.5189694,29.4806331 19.5189694,28.5000408 C19.5189694,27.5197202 19.5299325,26.5513581 19.5513239,25.5979441 C20.3535013,25.102484 21.1733267,24.6089265 22.0089282,24.1186303 C22.8450644,23.6283342 23.6761203,23.1538014 24.4999565,22.6957115 C25.3237927,23.1538014 26.1548485,23.6283342 26.9909848,24.1186303 C27.8271211,24.6089265 28.6472138,25.1027558 29.4493913,25.5984876 C29.4707827,26.5516299 29.4817457,27.5197202 29.4817457,28.5000408 C29.4817457,29.4803613 29.4707827,30.4484516 29.4493913,31.4015939 C28.6472138,31.8973257 27.8271211,32.391155 26.9909848,32.8814512 C26.1548485,33.3717474 25.3237927,33.8462801 24.4999565,34.3045059 C23.6761203,33.8462801 22.8450644,33.3717474 22.0089282,32.8814512 C21.1733267,32.391155 20.3535013,31.8975975 19.5513239,31.4021375 Z M19.5941067,32.9162394 C19.6398308,34.240637 19.705342,35.5332359 19.7895706,36.7872418 C20.9008537,36.2344355 22.0356674,35.645754 23.1875942,35.0236432 C22.5889024,34.6855454 21.9867346,34.3392941 21.3824276,33.9848894 C20.7781206,33.6304846 20.1818354,33.2739056 19.5941067,32.9162394 Z M24.4999565,35.7544671 C22.9314322,36.6152032 21.3893798,37.4169625 19.8898428,38.154581 C20.2002854,42.049772 20.692555,45.5294071 21.3153121,48.3760601 C21.8690819,50.9077169 22.511626,52.8697169 23.1830485,54.1677515 C23.5194283,54.8178559 23.8314753,55.2393911 24.0927177,55.4837238 C24.347008,55.7215337 24.4782977,55.726154 24.5004913,55.726154 C24.5224175,55.726154 24.6537072,55.7215337 24.9082648,55.4837238 C25.1692399,55.2393911 25.4815543,54.8178559 25.8176666,54.1677515 C26.4890891,52.8697169 27.1316333,50.9077169 27.6854031,48.3760601 C28.3081602,45.5294071 28.8004297,42.049772 29.1108724,38.1548528 C27.611068,37.4172343 26.0687482,36.615475 24.4999565,35.7544671 Z M30.4264434,37.3827179 C33.9022782,39.0568999 37.1147314,40.3639033 39.8530978,41.2393157 C42.2885085,42.0179734 44.2824542,42.4335293 45.7250366,42.4919626 C46.4477985,42.5213152 46.9633312,42.4574462 47.3023849,42.3498202 C47.632882,42.2449121 47.7021366,42.1315786 47.7128323,42.1125538 C47.723528,42.0938008 47.7852957,41.9766624 47.7096236,41.6339443 C47.6320798,41.2822574 47.4288615,40.7968533 47.0427468,40.1758296 C46.2715869,38.9362283 44.9201853,37.390056 43.0388118,35.637057 C40.9229351,33.6655446 38.2019493,31.4926411 35.0360223,29.2719039 C33.6576141,30.2220566 32.2032664,31.1776449 30.6850119,32.1269822 C30.6347421,33.9373274 30.5473048,35.6949467 30.4264434,37.3827179 Z M35.0360223,27.7281776 C38.2019493,25.5074404 40.9229351,23.334537 43.0388118,21.3631061 C44.9201853,19.6100799 46.2715869,18.063826 47.0427468,16.8241975 C47.4288615,16.2031467 47.6320798,15.7178513 47.7096236,15.3661372 C47.7852957,15.0235278 47.723528,14.9063079 47.7128323,14.8874733 C47.7021366,14.8685301 47.632882,14.755251 47.3023849,14.6503429 C46.9633312,14.5426897 46.4477985,14.4787936 45.7250366,14.5080646 C44.2824542,14.5664979 42.2885085,14.982244 39.8530978,15.7608474 C37.1147314,16.6363413 33.9022782,17.9431273 30.4264434,19.6173909 C30.5473048,21.3052979 30.6347421,23.0626726 30.6850119,24.8730994 C32.2032664,25.8224367 33.6576141,26.778025 35.0360223,27.7281776 Z M30.718436,26.3929088 C31.8246386,27.0949237 32.8936738,27.7991129 33.9207283,28.5000408 C32.8936738,29.2009686 31.8246386,29.9051578 30.718436,30.6071728 C30.7293991,29.9114088 30.7350143,29.2088503 30.7350143,28.5000408 C30.7350143,27.7912312 30.7293991,27.0886727 30.718436,26.3929088 Z M29.4066085,24.0843857 C29.3611517,22.7595533 29.2953732,21.4667097 29.2111446,20.2124321 C28.099594,20.7654557 26.964513,21.3541101 25.8123188,21.976384 C26.4112779,22.314509 27.0131784,22.6608961 27.6174854,23.0153009 C28.2220598,23.3698687 28.8186124,23.7264478 29.4066085,24.0843857 Z M29.2111446,36.7877853 C28.099594,36.2347073 26.964513,35.6460258 25.8123188,35.0236432 C26.4112779,34.6855454 27.0131784,34.3392941 27.6174854,33.9848894 C28.2220598,33.6302128 28.8186124,33.2736338 29.4066085,32.9156958 C29.3611517,34.240637 29.2953732,35.5335077 29.2111446,36.7877853 Z" id="Shape" fill="url(#linearGradient-5)"></path>
                    <path d="M7.18103448,20.4179104 C8.34751293,20.4179104 9.29310345,21.3701381 9.29310345,22.5447473 C9.29310345,23.719443 8.34751293,24.6716418 7.18103448,24.6716418 C6.01455604,24.6716418 5.06896552,23.719443 5.06896552,22.5447473 C5.06896552,21.3701381 6.01455604,20.4179104 7.18103448,20.4179104 Z" id="Path" fill="url(#linearGradient-6)"></path>
                    <path d="M38.4396552,12.761194 C39.6061882,12.761194 40.5517241,13.7134281 40.5517241,14.8880741 C40.5517241,16.0626913 39.6061882,17.0149254 38.4396552,17.0149254 C37.2731221,17.0149254 36.3275862,16.0626913 36.3275862,14.8880741 C36.3275862,13.7134281 37.2731221,12.761194 38.4396552,12.761194 Z" id="Path" fill="url(#linearGradient-6)"></path>
                    <path d="M20.698419,44.238806 C21.8647449,44.238806 22.8103448,45.1909057 22.8103448,46.3656716 C22.8103448,47.5401491 21.8647449,48.4925373 20.698419,48.4925373 C19.5318069,48.4925373 18.5862069,47.5401491 18.5862069,46.3656716 C18.5862069,45.1909057 19.5318069,44.238806 20.698419,44.238806 Z" id="Path" fill="url(#linearGradient-6)"></path>
                    <path d="M24.4998647,24.6716418 C26.3663923,24.6716418 27.8793103,26.1951591 27.8793103,28.0744906 C27.8793103,29.9540947 26.3663923,31.4776119 24.4998647,31.4776119 C22.6336077,31.4776119 21.1206897,29.9540947 21.1206897,28.0744906 C21.1206897,26.1951591 22.6336077,24.6716418 24.4998647,24.6716418 Z" id="Path" fill="url(#linearGradient-7)"></path>
                </g>
            </g>
        </g>
    </g>
</svg>