<?xml version="1.0" encoding="UTF-8"?>
<svg width="104px" height="104px" viewBox="0 0 104 104" version="1.1" xmlns="http://www.w3.org/2000/svg" xmlns:xlink="http://www.w3.org/1999/xlink">
    <title>Group 63</title>
    <g id="rpool,-rasset，rbridge" stroke="none" stroke-width="1" fill="none" fill-rule="evenodd">
        <g id="Group-63">
            <circle id="Oval" fill="#FFFFFF" cx="52" cy="52" r="52"></circle>
            <g id="Logo_Flat_White" transform="translate(16.624535, 19.137546)" fill="#000000" fill-rule="nonzero">
                <path d="M4.96802974,29.6921933 C4.96802974,13.2996283 18.267658,0 34.660223,0 C51.0527881,0 64.3524164,13.2996283 64.3524164,29.6921933 L64.3524164,29.7115242 C60.0609665,31.4899628 55.3635688,32.4758364 50.4342007,32.4758364 C48.6364312,32.4758364 46.8579926,32.3405204 45.1375465,32.0892193 C41.9286245,42.527881 32.2245353,50.1055762 20.7420074,50.1055762 C17.5330855,50.1055762 14.4594796,49.5063197 11.6178439,48.4237918 C7.46171004,43.3204461 4.96802974,36.805948 4.96802974,29.6921933 Z" id="Path"></path>
                <path d="M52.7539033,34.795539 C59.3457249,34.795539 65.5315985,33.0364312 70.8475836,29.9628253 C70.7122677,49.8349442 54.5516729,65.8795539 34.660223,65.8795539 C18.3063197,65.8795539 4.48475836,55.0349442 0,40.1501859 C0.30929368,40.3241636 0.618587361,40.4981413 0.947211896,40.672119 C5.04535316,49.2743494 13.8215613,55.2089219 23.9895911,55.2089219 C36.4,55.2089219 46.7420074,46.3553903 49.0423792,34.6022305 C50.260223,34.7375465 51.4973978,34.795539 52.7539033,34.795539 Z" id="Path"></path>
            </g>
            <path d="M17,37.022469 L17,20.856405 C17.1013457,15.6187755 19.7362944,13 24.9049251,13 L32.5058146,13 L32.5058146,16.4749483 L26.5771208,16.4749483 C23.8407869,16.4749483 22.4219684,17.8346971 22.3206227,20.5542355 L22.3206227,37.022469 L17,37.022469 Z" id="r" fill="#00F3AB"></path>
        </g>
    </g>
</svg>