<?xml version="1.0" encoding="UTF-8"?>
<svg width="78px" height="78px" viewBox="0 0 78 78" version="1.1" xmlns="http://www.w3.org/2000/svg" xmlns:xlink="http://www.w3.org/1999/xlink">
    <title>rswth</title>
    <defs>
        <linearGradient x1="10.4929716%" y1="0%" x2="92.2525491%" y2="100%" id="linearGradient-1">
            <stop stop-color="#0093ED" offset="0%"></stop>
            <stop stop-color="#00F3AB" offset="100%"></stop>
        </linearGradient>
        <linearGradient x1="10.4929716%" y1="14.2011834%" x2="92.2525491%" y2="85.7988166%" id="linearGradient-2">
            <stop stop-color="#003F3F" offset="0%"></stop>
            <stop stop-color="#00121D" offset="100%"></stop>
        </linearGradient>
        <linearGradient x1="10.4929716%" y1="36.9624264%" x2="92.2525491%" y2="63.0375736%" id="linearGradient-3">
            <stop stop-color="#003F3F" offset="0%"></stop>
            <stop stop-color="#00121D" offset="100%"></stop>
        </linearGradient>
        <linearGradient x1="65.9995755%" y1="92.5603766%" x2="10.8118122%" y2="0%" id="linearGradient-4">
            <stop stop-color="#000A17" offset="0%"></stop>
            <stop stop-color="#00554F" offset="100%"></stop>
        </linearGradient>
        <linearGradient x1="29.8433528%" y1="0%" x2="71.557423%" y2="100%" id="linearGradient-5">
            <stop stop-color="#0093ED" offset="0%"></stop>
            <stop stop-color="#00F3AB" offset="100%"></stop>
        </linearGradient>
    </defs>
    <g id="staker---staking-flow" stroke="none" stroke-width="1" fill="none" fill-rule="evenodd">
        <g id="最终-copy-2" transform="translate(-211.000000, -247.000000)">
            <g id="rswth" transform="translate(212.000000, 248.000000)">
                <path d="M37.9999365,0 C58.9867462,0 76,17.0131586 76,37.9999365 C76,58.9867462 58.9867462,76 37.9999365,76 C17.0131586,76 0,58.9867462 0,37.9999365 C0,17.0131586 17.0131586,0 37.9999365,0 Z" id="Path" stroke-opacity="0.2" stroke="#00F3AB" fill="url(#linearGradient-1)"></path>
                <g id="Group-75" transform="translate(14.000000, 16.000000)" fill-rule="nonzero">
                    <path d="M3,19.5555556 C3,8.75416667 11.7292969,0 22.5,0 C33.2707031,0 42,8.75416667 42,19.5555556 L42,19.5555556 C39.1816406,20.7319444 36.1042969,21.3888889 32.859375,21.3888889 C31.6710937,21.3888889 30.5132812,21.2972222 29.3859375,21.1291667 C27.2835937,28.0041667 20.9003906,33 13.359375,33 C11.2417969,33 9.23085938,32.6027778 7.37226563,31.9 C4.6453125,28.5236111 3,24.2305556 3,19.5555556 Z" id="Path" fill="url(#linearGradient-2)"></path>
                    <path d="M34.9960707,23.2382182 C39.3667322,23.2382182 43.4757695,22.0606843 47,20 C46.9076621,33.278244 36.1964637,44 22.9921415,44 C12.1424361,44 2.97020301,36.7488702 0,26.8173015 C0.200065488,26.9412524 0.415520629,27.0497095 0.630975769,27.1736604 C3.35494434,32.9063912 9.17223314,36.8728212 15.9129011,36.8728212 C24.1463654,36.8728212 31.0101506,30.954164 32.5337263,23.1142673 C33.3339882,23.1917366 34.1650295,23.2382182 34.9960707,23.2382182 Z" id="Path" fill="url(#linearGradient-3)"></path>
                </g>
                <g id="Group-12" transform="translate(8.000000, 10.000000)">
                    <circle id="Combined-Shape-Copy-5" fill="url(#linearGradient-4)" cx="6.5" cy="6.5" r="6.5"></circle>
                    <path d="M5.76537585,4.68486739 L5.76537585,3 L4,3 L4,10 L5.76537585,10 L5.76537585,7.69266771 C5.76537585,6.49453978 7.42824601,5.14664587 8.80637813,5.14664587 L9,5.14664587 L9,3.21216849 L8.80637813,3.21216849 C7.59908884,3.21216849 6.31207289,3.71138846 5.76537585,4.68486739 Z" id="Path" fill="url(#linearGradient-5)"></path>
                </g>
            </g>
        </g>
    </g>
</svg>