<?xml version="1.0" standalone="no"?>
<!DOCTYPE svg PUBLIC "-//W3C//DTD SVG 20010904//EN"
 "http://www.w3.org/TR/2001/REC-SVG-20010904/DTD/svg10.dtd">
<svg version="1.0" xmlns="http://www.w3.org/2000/svg"
 width="71.000000pt" height="59.000000pt" viewBox="0 0 71.000000 59.000000"
 preserveAspectRatio="xMidYMid meet">
<metadata>
Created by potrace 1.16, written by Peter Selinger 2001-2019
</metadata>
<g transform="translate(0.000000,59.000000) scale(0.100000,-0.100000)"
fill="#000000" stroke="none">
<path d="M263 460 c-90 -24 -143 -51 -177 -90 -30 -36 -31 -41 -12 -79 26 -49
83 -66 226 -66 159 0 249 26 317 90 24 23 43 50 43 59 0 33 -61 83 -118 95
-77 16 -197 13 -279 -9z"/>
<path d="M485 233 c-56 -17 -109 -25 -177 -26 -54 -1 -98 -3 -98 -5 0 -17 56
-114 80 -137 27 -26 39 -30 87 -30 54 0 56 1 103 52 29 32 57 75 70 109 11 31
19 57 18 58 -2 1 -39 -8 -83 -21z m17 -90 c-21 -39 -51 -56 -96 -55 -50 0 -92
17 -66 26 8 2 35 7 60 11 25 3 59 14 75 25 33 22 41 20 27 -7z"/>
</g>
</svg>
