<?xml version="1.0" encoding="utf-8"?>
<!-- Generator: Adobe Illustrator 26.3.1, SVG Export Plug-In . SVG Version: 6.00 Build 0)  -->
<svg version="1.1" id="Layer_1" xmlns="http://www.w3.org/2000/svg" xmlns:xlink="http://www.w3.org/1999/xlink" x="0px" y="0px"
	 viewBox="0 0 300 300" style="enable-background:new 0 0 300 300;" xml:space="preserve">
<style type="text/css">
	.st0{fill:url(#SVGID_1_);}
	.st1{fill:url(#SVGID_00000115514504007300606130000004341539269348517558_);}
	.st2{fill:url(#SVGID_00000103261651518015722190000016304477590476163992_);}
	.st3{fill:#12B8C4;}
	.st4{fill:url(#SVGID_00000163055686587874363610000005625470432421932197_);}
	.st5{fill:url(#SVGID_00000136373845958478210430000007422834519922258077_);}
	.st6{fill:#262626;}
	.st7{fill:url(#glasses_00000040552394317545271380000004806362804109817275_);}
	.st8{fill:url(#glasses_00000109726896039266739380000007409911057931899039_);}
	.st9{fill:url(#right_00000067197155722609980440000006273397547000549566_);}
	.st10{fill:url(#middle_00000116223938083724110480000008068023699553011603_);}
	.st11{fill:url(#left_00000101076627757621176600000008194656191342263951_);}
</style>
<g>
	<g id="face">
		<g id="Layer_1-2_00000143606016915746945470000001678610518393456793_">
			<g id="head">
				
					<linearGradient id="SVGID_1_" gradientUnits="userSpaceOnUse" x1="158.7063" y1="-248.5398" x2="162.4425" y2="-522.626" gradientTransform="matrix(0.9999 1.588183e-02 1.588183e-02 -0.9999 -0.2723 -233.0088)">
					<stop  offset="0" style="stop-color:#12B8C4"/>
					<stop  offset="0.45" style="stop-color:#11B2C6"/>
					<stop  offset="0.8152" style="stop-color:#003FE9"/>
				</linearGradient>
				<path class="st0" d="M249.7,142.8c0-0.5,0.5-4.1,0-6.8c0-0.2-0.2-1.2-0.4-2.7c-0.1-0.6-0.2-1.3-0.3-2.3c-0.2-1.6-0.3-3-0.3-4.4
					c-2.2,1-5.1,0.3-6.4-1.4c-1.7-0.7-3-2-2.9-4c0.1-3.9,1.4-7.4,3.3-10.9c-0.3-0.1-0.5-0.2-0.8-0.4c-4.9-2.7-5.3-8-8.6-11.8
					c-4.8-5.5-16.2-5.9-22.8-6.2c-8.9-0.4-17.9-0.8-26.7-0.3c-9.4,0.6-17.7,3.9-26.7,6.1c-7.9,1.9-15.8,2.5-23.9,1.7
					c-2.7-0.2-4.3-2.2-4.7-4.4c-1.2,0.3-2.3,0.5-3.5,0.7c-18,3.3-36.3,2.6-54.4,2.9c0,0.1,0,0.2,0,0.3c-0.4,2.7-2.7,3.7-5,3.6
					c-1.2,1.1-2.6,2-4.1,2.9c-0.7,2.1-2.2,3.8-4.5,4.6c0.1,2.3,0.1,4.6,0,6.9c0,0.1,0,0.1,0,0.2c0,0.1,0,0.3,0,0.4
					c-0.2,1.2-0.5,4.3-0.6,5.2c-1,3.5-2.1,8.2-2.9,13.9c-0.2,1.8-1.7,13-0.3,24.6c3.1,25.4,18.9,44.2,22.4,48.2
					c2.4,2.8,13.9,15.6,33.8,24.8c23.3,10.8,44.5,10.4,54.3,9.5c8.9-0.8,41.4-3.9,66.7-30.1c19.4-20.1,29.2-48.4,24.1-57.4
					C253.7,155,249.2,147.9,249.7,142.8z"/>
				
					<linearGradient id="SVGID_00000008130413960567592340000011868636824763069873_" gradientUnits="userSpaceOnUse" x1="111.1166" y1="112.8561" x2="113.2239" y2="-42.7577">
					<stop  offset="0.2918" style="stop-color:#12B8C4"/>
					<stop  offset="0.5657" style="stop-color:#003FE9"/>
				</linearGradient>
				<path style="fill:url(#SVGID_00000008130413960567592340000011868636824763069873_);" d="M189.2,102.7
					c1.9,8.2-61.4,45.8-110.9,25.1c-21.6-9-36.6-24.5-40.5-33.8c-2.5-6-3.5-12.1-3.5-12.1c-1.1-6.8-0.6-12.2-0.2-15.6
					c0.4-3.9,1.1-7.1,1.4-8.8c0.7-3.1,1.4-5.7,2-7.8c10-1,18.5-0.4,24.7,0.5c10.3,1.5,17.8,4.2,20.3,5.1c8.5,3.2,15.1,7.1,19.8,10.3
					c-18.6,3.6-22.5,6.7-22.6,9C79.5,83,129.9,95,171.1,99.4C184.4,100.9,188.8,100.7,189.2,102.7z"/>
				
					<linearGradient id="SVGID_00000070096475762464109350000002476933609381858217_" gradientUnits="userSpaceOnUse" x1="212.3707" y1="98.0097" x2="214.6017" y2="-17.1498">
					<stop  offset="0.2918" style="stop-color:#12B8C4"/>
					<stop  offset="0.5393" style="stop-color:#003FE9"/>
				</linearGradient>
				<path style="fill:url(#SVGID_00000070096475762464109350000002476933609381858217_);" d="M255.3,48.4
					c-8.5,1.1-15.2,2.7-19.1,3.7c-4.8,1.2-8.5,2.4-10.1,3c-5.6,1.9-9.8,3.6-16.4,6.4c-3.6,1.5-6.7,2.9-8.9,3.9
					c0.1,0.5,1.4,8-1.5,9.4c-0.2,0.1-0.5,0.2-0.8,0.2c1.8,1.9,2,5.1,0,7.1c-7.7,7.3-21.4,5-31,4.4c-4-0.3-8.1-0.4-12.2-0.4
					c1.7,0.2,2.6,0.3,2.6,0.3c9.7,1.2,16.4,1.9,20,7.2c1.4,2.1,2,4.2,2.2,5.8c2.1,0.9,5.2,2.1,9,3.4c2.8,1,5.3,1.9,6.4,2.2
					c6.9,2.2,13.8,2.7,18.2,3c12.9,0.8,24.9-0.6,31.1-1.5l0,0c1.3-0.6,2.4-1.1,3.2-1.4c0.7-0.3,1.2-0.5,1.3-0.6c0,0,0,0,0,0
					c1.8-4.5,3.5-9,5.3-13.6c5.6-14.8,10.9-29.4,15.8-43.7C264.7,47.3,259.6,47.9,255.3,48.4z"/>
				<path class="st3" d="M91.5,67.2c-4.1,1.5-7.1,2.8-9.4,3.8c-13.8,6.5-25.7,17-29.8,24.7c-9.2,17.8,9.9,48,33.6,60.5
					c57.9,30.5,172.2-28.8,167.9-61c-3.1-23.3-69.3-37.8-102.2-37.5C132.9,57.9,109.4,60.9,91.5,67.2z"/>
				
					<linearGradient id="SVGID_00000014615691792925241850000012292171319310058913_" gradientUnits="userSpaceOnUse" x1="153.1592" y1="226.1981" x2="153.1592" y2="18.7082" gradientTransform="matrix(1 0 0 -1 0 300)">
					<stop  offset="0.28" style="stop-color:#12B8C4"/>
					<stop  offset="0.9693" style="stop-color:#003FE9"/>
				</linearGradient>
				<path style="fill:url(#SVGID_00000014615691792925241850000012292171319310058913_);" d="M244.3,181.7c-1.7,3-4.8,7.9-11.7,14.1
					c-23.6,21.2-55.1,24.8-62.7,25.5c-1.6,0.2-2.8,0.2-3.8,0.3c-24.2,1.6-58.1,3.8-82.1-17.3c-18.3-16.1-22.6-38.4-23.5-44
					c-2.2-12.3-1-22.6,0.3-29.2c1-0.7,2.1-1.6,1.9-1.9c-0.1-0.2-0.7-0.2-1.6-0.1c-1.1,0.1-2.6,0.3-4.3,0.5c0,0,0,0,0,0c0,0,0,0,0,0
					c0,0,0,0,0,0c0,0,0.2-0.1,0.7-0.2c88.9-25.6,176.3-18.2,184.3,3.3c0.7,1.9,3.7,9.4,5.9,18.5c1.5,6.2,2.3,9.4,2.1,13.6
					C249.3,172.6,246.1,178.5,244.3,181.7z"/>
				
					<linearGradient id="SVGID_00000178186842757131741450000014023935448346274731_" gradientUnits="userSpaceOnUse" x1="164.3523" y1="165.0435" x2="164.3523" y2="67.1106" gradientTransform="matrix(1 0 0 -1 0 300)">
					<stop  offset="0.9254" style="stop-color:#12B8C4"/>
					<stop  offset="0.9699" style="stop-color:#003FE9"/>
				</linearGradient>
				<path style="fill:url(#SVGID_00000178186842757131741450000014023935448346274731_);" d="M223.7,190.2
					c-20.9,22.5-53.3,23.4-58.2,23.5c-7.3,0.1-36.1,0.4-56.2-19.4c-3-2.9-21.6-22-15.1-38.8c3.3-8.4,11.4-12.8,17.2-15.5
					c23.2-10.9,86.7-40.7,113.2-12.1c8.8,9.5,13,24.9,10.8,38.6C233.4,178.6,227,186.7,223.7,190.2z"/>
				<g id="ears">
					<path class="st6" d="M270.6,47.1c-6.7,1.7-12.1,3.6-15.8,5.2c-10.1,4.1-16.2,6.5-21.5,12.1c-2.6,2.7-7.3,8.8-9,19.6
						c15-9,20.4-8.6,22.6-6.6c3.5,3.1-0.4,10.6-0.9,21.7c-0.7,13.5,3.9,24.6,7.7,31.9c-5.1-14.5-3.3-23.1-0.7-28.3
						c1.5-3,2.9-4.1,6.2-10.3c2.3-4.3,4.9-9.5,6.6-16.5c1.2-5.1,0.8-6.2,2.1-14.8C268.8,55,269.8,50.2,270.6,47.1z"/>
					<path class="st6" d="M59.4,127c0.2-2.2-1.2-3.7-2.7-7.3c-1.3-3.2-1.7-6.1-1.7-8.5c-6.6-17.5-6.5-24.4-3.7-26.3
						c0,0,3-2.1,26.9,11.5c2.5,1.7,3.5,1.6,3.9,1.3c2.1-1.5-2.9-12.3-7.7-19.8c-3.6-5.6-7.1-9.4-9.7-12.1c-4.8-5-8-8.4-13.3-11.3
						c-5.3-2.9-10.3-4.2-14-4.8c-0.6,1.9-1.3,4.6-2,7.8c-0.9,4.4-1.8,8.4-1.9,13.9c0,0-0.2,6.7,1.4,14.6c0.6,3,1.4,5.5,1.4,5.5
						c0.1,0.2,0.1,0.4,0.1,0.5c1.1,3.4,2.4,5.7,4.4,9.5c1.3,2.4,2.5,4.5,3.4,5.9c1,1.7,1.9,3.1,2.5,4.1c1.8,2.9,2.2,3.3,2.8,4.5
						c0,0,0,0,0,0c0,0,1,2.1,1.9,4.5c0.6,1.5,1.8,5.7,2.7,11.5C58.1,130.2,59.3,128.4,59.4,127z"/>
					<g id="wiskers">
						<path class="st6" d="M96.4,165.4c-1.2,0.2-2.3,0.4-3.3,0.5c-0.2,0.3-0.4,0.5-0.7,0.8c-0.5,0.5-1,0.9-1.6,1.4
							c15.2-2.3,42.1-5.4,66.4-3.8C158.2,164.1,134.7,159.4,96.4,165.4z"/>
						<path class="st6" d="M124.5,177.8c0,0,2.4,12.4,41.1-6.9c7.5-3,32-0.4,26.5,2.6c-2.5-0.8-4.1-0.9-4.5-0.2
							c-1.2,1.2,1.2,4.9,6.7,11.3c-3.2-2.8-7.1-4.9-11.5-6.1C163.8,171.6,131.8,194.7,124.5,177.8z"/>
						<path class="st6" d="M113.2,178.2c-4.4,1.5,34.1-7.2,41.5-10.7C157.1,166,117.7,176.6,113.2,178.2z"/>
						<path class="st6" d="M125.1,169.4c-3.1,0.8,23.2-2.1,28.7-3.9C155.6,164.8,128.3,168.8,125.1,169.4z"/>
						<path class="st6" d="M228.9,165.5c4.2,0.9-30.8-1.9-37.9-4C188.7,160.5,224.7,164.6,228.9,165.5z"/>
						<path class="st6" d="M186.3,151.9l-8.3,5.5l-5.4,5.7c-1.9-2.1-4-4.1-6.3-5.8c-4.1-3-7-4.1-6.7-5c0.3-1,3.9-1.1,9.8-1
							C173.5,151.3,181.8,151.7,186.3,151.9z"/>
						<path class="st6" d="M192.8,166.4c7.4,3.7,45.6,13.5,41.1,11.9C229.5,176.6,190.6,164.9,192.8,166.4z"/>
						<path class="st6" d="M194,164.4c5.2,1.9,31.6,5.4,28.6,4.6C219.2,168.3,192.3,163.6,194,164.4z"/>
					</g>
				</g>
			</g>
			<g id="glasses_00000123439468372043449030000005507457061808765590_">
				<path class="st6" d="M144.6,149c3.5-2.5,6.5-5.3,9.2-8.5c2.4-2.7,4.3-6.1,5.4-9.5c1.4-4.1,0.7-5.6,2-7.3c2.4-2.9,9.3-3.4,13.8-1
					c7,3.7,3.3,11.7,9.2,19.1c6.8,8.5,20.3,8.7,34.4,8.9c11,0.1,20.9,0.3,27.8-6.5c3.3-3.4,5.3-7.6,6.1-12.3
					c-7.9-4.5-41.8-21.3-50.2-24.2c-2.6-0.7-80.6-1.8-80.6-1.8c-5.1,0.3-10.2,0.8-15.3,1.2c-8.3,0.8-16.5,1.5-24.5,2.3
					c-2.8,6.4-4.1,13.2-4,20.2c0.1,8.5-0.2,15.6,4.9,20.7c5.8,5.9,15,5.6,31.2,5.3C119.6,155.5,135.9,155.1,144.6,149z"/>
				<path class="st6" d="M253.6,105.6c0.8,2.9,0.7,9.3,0.8,12.2c0.1,2,0,3.9-0.3,7.7c-0.5,7.3-0.8,11-1.7,13.3
					c-0.8,1.8-3.4,6.9-12.8,10c-1.6-1.1-3.1-2.2-4.6-3.3l-6.1-5.2l-52.5-32.6c-18.6,1.8-48.2,5.1-65.5,7.3
					c-16.5,3.8-18.2,12.4-32.9,14.6c-2.6,0.4-3.6,0.3-6.3,0.4c-0.7,0-1.5,0.1-2.3,0.1c-0.6,0-2.3,0.2-5,0.5
					c-4.3,0.5-8.9,1.2-10.1,1.4c-0.6-3.1-1.3-5.8-2-8c-1.3-4-2.7-6.4-3.5-8.8c-0.1-0.4-0.4-1.5-0.9-2.2c-0.4-0.6-0.5-0.8-0.9-1.3
					c-0.1-0.1-0.1-0.2-0.1-0.2c-0.3-1.5,35.8-10,35.8-10c9-2,11.4-2.8,18.6-4c2.5-0.4,9.8-1.5,19.7-2.1c3.3-0.2,9.6-0.6,29.2,0.2
					c4.7,0.2,14.6,0.6,19.2,0.8c14.8,1,30.5-3.1,47.9-3.7C231.6,92.4,251,96.6,253.6,105.6z"/>
				
					<linearGradient id="glasses_00000150789817148168425430000016223134410914273982_" gradientUnits="userSpaceOnUse" x1="74.0342" y1="6.1631" x2="118.0339" y2="-58.6407" gradientTransform="matrix(0.998 -6.342829e-02 -6.342829e-02 -0.998 -3.2935 75.1281)">
					<stop  offset="0.6864" style="stop-color:#12B8C4"/>
					<stop  offset="0.9997" style="stop-color:#E90050"/>
				</linearGradient>
				
					<path id="glasses_00000134218351375473668030000017790796921999924366_" style="fill:url(#glasses_00000150789817148168425430000016223134410914273982_);" d="
					M143,102.1c-5.5-1.2-13.7-2.4-23.5-1.4c-11.3,1.1-20.9,2.1-27.1,9.6c-6.6,8.1-5.2,19.2-4.3,26.3c0.8,6,1.2,9.4,3.7,10.8
					c6.7,3.8,21.3-10.4,28.9-17.9C126.8,123.6,135,114.6,143,102.1z"/>
				
					<linearGradient id="glasses_00000154414938957460852300000003534054701471734954_" gradientUnits="userSpaceOnUse" x1="177.3545" y1="-2.9383" x2="216.9028" y2="-61.1859" gradientTransform="matrix(0.998 -6.342829e-02 -6.342829e-02 -0.998 -3.2935 75.1281)">
					<stop  offset="0.6864" style="stop-color:#12B8C4"/>
					<stop  offset="0.9997" style="stop-color:#E90050"/>
				</linearGradient>
				<path id="glasses" style="fill:url(#glasses_00000154414938957460852300000003534054701471734954_);" d="M239.3,100.8
					c-4.9-1.1-12.3-2.1-21.1-1.2c-10.1,1-18.8,1.8-24.3,8.6c-5.9,7.3-4.7,17.3-3.9,23.7c0.7,5.4,1.1,8.4,3.3,9.7
					c6,3.4,19.1-9.4,26-16.1C224.8,120.1,232.1,112.1,239.3,100.8z"/>
			</g>
		</g>
	</g>
	<g id="fly">
		
			<radialGradient id="right_00000065781336593640573050000017067110852903896970_" cx="196.7265" cy="274.6354" r="420.6702" gradientTransform="matrix(0.9022 -5.697726e-02 2.369299e-02 0.4594 1.9731 159.6764)" gradientUnits="userSpaceOnUse">
			<stop  offset="1.744732e-02" style="stop-color:#4A0050"/>
			<stop  offset="0.1551" style="stop-color:#BF0050"/>
			<stop  offset="0.1551" style="stop-color:#C20050"/>
			<stop  offset="0.1554" style="stop-color:#D30050"/>
			<stop  offset="0.1556" style="stop-color:#E00050"/>
			<stop  offset="0.1559" style="stop-color:#E70050"/>
			<stop  offset="0.1567" style="stop-color:#E90050"/>
			<stop  offset="0.2144" style="stop-color:#EA0250"/>
			<stop  offset="0.2352" style="stop-color:#EC0950"/>
			<stop  offset="0.25" style="stop-color:#F11450"/>
			<stop  offset="0.2619" style="stop-color:#F72550"/>
			<stop  offset="0.2717" style="stop-color:#FF3A50"/>
		</radialGradient>
		<path id="right" style="fill:url(#right_00000065781336593640573050000017067110852903896970_);" d="M168.2,227.4l0.3,3.1
			c0.2,1.1,0.4,2.1,0.8,3c0.3,1.1,0.8,2,1.3,3c0.5,0.9,1,2.2,1.8,2.8c1.4,1.9,3,3.7,4.8,5.1c2,1.6,4.1,2.9,6.4,4
			c3.5,1.9,7.5,3.1,11.2,4.4c1.3,0.3,2.6,0.7,3.9,0.9l1,0.2c2.3,0.3,4.5,0.9,6.8,1.2c2.8,0.5,5.6,0.8,8.5,1c1.6,0,3.2,0.1,4.9,0
			c2.1-0.2,4.2-0.4,6.2-1.3c1.2-0.4,2.3-1,3.3-1.7c1.7-1.2,2.8-2.8,3.3-4.7c0.1-0.7,0.3-1.3,0.2-1.9c0-1.2-0.1-2.3-0.2-3.4
			c-0.2-1-0.4-2-0.8-2.9c-0.1-0.4-0.2-0.9-0.5-1.4c0-0.2-0.1-0.5-0.2-0.6c-0.1-0.3-0.3-1.1-0.5-1.5c-0.1-0.2-0.2-0.4-0.2-0.7
			l-0.7-1.4c-2.1-4.2-4.8-7.9-8.3-11.2c-0.3-0.3-1-0.9-1.3-1.2c-0.1-0.1-0.2-0.1-0.2-0.2c1.1-1.4,2-2.9,3-4.2
			c2.3-3.5,4.4-7.2,6.1-10.9c0.9-1.9,1.4-4,2.1-6c0.2-1,0.5-2.1,0.5-3.2l-0.3-3.1c0-0.2,0-0.3-0.1-0.4l-0.1-0.4
			c-0.1-0.2-0.2-0.5-0.3-0.7l0-0.2l-0.2-0.6l0-0.1l-0.1-0.2l-0.2-0.2l-0.4-0.6c-0.3-0.2-0.7-0.7-1-0.9l-0.4-0.2
			c-0.1-0.1-0.3-0.2-0.4-0.3l-0.4-0.2c-0.3-0.1-0.6-0.3-0.9-0.5c-0.3-0.1-0.7-0.3-1-0.3c-0.2-0.1-0.6-0.2-0.9-0.3l-0.5,0l-0.3-0.1
			L224,188l-1-0.1c-0.6,0-1.3,0-1.9,0c-1.9,0.1-4,0.4-5.8,0.9c-1.5,0.3-3.1,0.8-4.5,1.4c-2.6,0.9-5.2,2.1-7.7,3.3
			c-7,3.4-13.4,7.1-19.8,11.1l-3.1,2l-0.3,0.2c-0.2,0.1-0.6,0.5-0.9,0.6l-0.2,0.1l-0.2,0.2c-0.3,0.2-0.6,0.4-0.9,0.7L177,209
			c-1.4,1.1-2.5,2.3-3.6,3.6l-0.7,0.8l-0.6,0.8c-0.2,0.3-0.3,0.6-0.6,0.8c-0.7,1.1-1.2,2.1-1.8,3.2l-0.3,0.9
			c-0.1,0.3-0.1,0.6-0.2,0.9c0,0.1-0.1,0.3-0.2,0.3l-0.1,0.3c0,0.1-0.1,0.3-0.2,0.3l-0.1,0.3c-0.2,0.9-0.3,2-0.5,3
			C168.2,225.3,168.2,226.4,168.2,227.4z"/>
		
			<radialGradient id="middle_00000031921212546267684090000012915907565320565170_" cx="118.1535" cy="63.0902" r="335.7399" fx="120.5943" fy="62.6806" gradientTransform="matrix(0.8934 -0.1506 -8.384624e-02 -0.6092 14.9028 294.0195)" gradientUnits="userSpaceOnUse">
			<stop  offset="0.1021" style="stop-color:#4A0050"/>
			<stop  offset="0.1551" style="stop-color:#BF0050"/>
			<stop  offset="0.1551" style="stop-color:#C20050"/>
			<stop  offset="0.1554" style="stop-color:#D30050"/>
			<stop  offset="0.1556" style="stop-color:#E00050"/>
			<stop  offset="0.1559" style="stop-color:#E70050"/>
			<stop  offset="0.1567" style="stop-color:#E90050"/>
			<stop  offset="0.1861" style="stop-color:#E70050"/>
			<stop  offset="0.2014" style="stop-color:#DF0050"/>
			<stop  offset="0.2135" style="stop-color:#D10050"/>
			<stop  offset="0.2239" style="stop-color:#BE0050"/>
			<stop  offset="0.2332" style="stop-color:#A60050"/>
			<stop  offset="0.2416" style="stop-color:#880050"/>
			<stop  offset="0.2451" style="stop-color:#790050"/>
		</radialGradient>
		<path id="middle" style="fill:url(#middle_00000031921212546267684090000012915907565320565170_);" d="M185.5,241.2
			c-1,6.2-5.1,8.8-11.9,9.5c-10.9,1.2-13.6,1.5-24.8-2.3c0.3-0.5,0.7-1,0.9-1.6c0.3-0.5,0.8-1.3,1.1-2.2c0.1-0.3,0.5-1.2,0.6-1.5
			l0.2-0.4c1-2.7,1.5-5.6,1.9-8.5l0-4.3c-0.3-2.7-0.5-5.5-1.5-8.2l-0.1-0.4l-0.1-0.2l-0.1-0.3l-0.1-0.5l-0.1-0.3l-0.1-0.2
			c-0.2-0.5-0.6-1.7-0.8-2.2c-0.7-1.5-1.6-2.9-2.6-4.2c-0.2-0.3-0.4-0.7-0.8-1l-0.8-1l-0.2-0.3c2.2-1,6-2,12.6-2.4
			c9.2-0.4,13.6,0,16.4,1.8C181.3,213.8,187.2,234.4,185.5,241.2z"/>
		
			<radialGradient id="left_00000021082512821548476630000013892350879367083426_" cx="142.922" cy="286.2626" r="428.8745" gradientTransform="matrix(0.9016 -6.787962e-02 3.362889e-02 0.547 -1.1376 139.3916)" gradientUnits="userSpaceOnUse">
			<stop  offset="1.744732e-02" style="stop-color:#4A0050"/>
			<stop  offset="0.1551" style="stop-color:#BF0050"/>
			<stop  offset="0.1551" style="stop-color:#C20050"/>
			<stop  offset="0.1554" style="stop-color:#D30050"/>
			<stop  offset="0.1556" style="stop-color:#E00050"/>
			<stop  offset="0.1559" style="stop-color:#E70050"/>
			<stop  offset="0.1567" style="stop-color:#E90050"/>
			<stop  offset="0.2099" style="stop-color:#EA0250"/>
			<stop  offset="0.2319" style="stop-color:#EC0950"/>
			<stop  offset="0.2482" style="stop-color:#F11550"/>
			<stop  offset="0.2616" style="stop-color:#F82750"/>
			<stop  offset="0.2717" style="stop-color:#FF3A50"/>
			<stop  offset="0.3948" style="stop-color:#FF3A50"/>
		</radialGradient>
		<path id="left" style="fill:url(#left_00000021082512821548476630000013892350879367083426_);" d="M156.2,226.4
			c-0.3-1.2-0.6-2.4-0.9-3.5l-0.1-0.4c-0.1-0.1-0.2-0.3-0.2-0.4l-0.1-0.4c-0.1-0.1-0.2-0.3-0.2-0.4c-0.1-0.3-0.2-0.7-0.3-1l-0.4-1
			c-0.7-1.3-1.4-2.5-2.3-3.7c-0.3-0.2-0.5-0.6-0.7-0.9l-0.7-0.9l-0.8-0.9c-1.3-1.4-2.8-2.7-4.4-3.9l-1-0.7c-0.3-0.3-0.7-0.5-1-0.7
			l-0.2-0.2l-0.2-0.1c-0.3-0.1-0.8-0.5-1-0.6l-0.4-0.2l-3.6-2c-7.5-4-15.1-7.6-23.1-10.8c-2.9-1-5.8-2.2-8.9-2.9
			c-1.6-0.6-3.4-0.9-5.1-1.1c-2-0.4-4.4-0.5-6.5-0.3c-0.7,0.1-1.4,0.1-2.1,0.3l-1.1,0.2l-0.2,0.1l-0.3,0.1l-0.5,0.1
			c-0.3,0.1-0.8,0.3-1,0.4c-0.3,0.1-0.8,0.3-1.1,0.5c-0.3,0.3-0.7,0.5-1,0.7l-0.4,0.3c-0.1,0.1-0.3,0.3-0.4,0.4l-0.4,0.3
			c-0.4,0.3-0.8,0.9-1.1,1.3l-0.4,0.8l-0.2,0.3l-0.1,0.2l0,0.1l-0.2,0.7l0,0.3c-0.1,0.3-0.2,0.6-0.3,0.9l-0.1,0.5
			c-0.1,0.1-0.1,0.3-0.1,0.5l0,3.8c0.1,1.3,0.6,2.6,0.9,3.9c1,2.3,1.8,4.7,3,7c2.3,4.3,5,8.4,7.9,12.4c1.2,1.5,2.4,3.2,3.8,4.8
			c-0.1,0.1-0.2,0.2-0.2,0.3c-0.4,0.4-1.1,1.3-1.4,1.7c-3.5,4.5-6.2,9.4-8.1,14.8l-0.7,1.8c0,0.4-0.1,0.6-0.2,0.9
			c-0.1,0.4-0.3,1.4-0.4,1.8c-0.1,0.2-0.2,0.6-0.2,0.8c-0.2,0.6-0.3,1.2-0.4,1.7c-0.4,1.2-0.5,2.5-0.6,3.7c-0.1,1.4,0,2.8,0.1,4.2
			c0,0.8,0.2,1.5,0.5,2.3c0.8,2.3,2.1,4,4.1,5.3c1.2,0.7,2.4,1.3,3.8,1.6c2.3,0.9,4.6,0.8,7,0.7c1.9-0.2,3.7-0.4,5.5-0.7
			c3.2-0.7,6.3-1.4,9.3-2.4c2.5-0.7,5-1.7,7.4-2.3l1.1-0.4c1.4-0.4,2.9-1.1,4.3-1.6c4.1-2,8.3-4.1,12-6.9c2.5-1.6,4.6-3.5,6.7-5.7
			c1.9-2,3.5-4.4,4.8-6.9c0.8-0.8,1.2-2.5,1.7-3.6c0.5-1.2,0.8-2.5,1.1-3.8c0.4-1.2,0.5-2.5,0.6-3.8l0-3.8
			C156.5,228.9,156.4,227.6,156.2,226.4z"/>
	</g>
</g>
</svg>
