<svg id="svg" version="1.1" xmlns="http://www.w3.org/2000/svg" width="400"
     height="400" viewBox="0, 0, 400,400">
    <g id="svgg">
        <path id="path0"
              d="M60.839 183.526 C 59.543 184.756,58.717 185.915,58.553 186.734 C 58.412 187.439,58.140 188.114,57.948 188.232 C 57.464 188.531,57.509 192.697,58.000 193.000 C 58.220 193.136,58.400 193.569,58.400 193.962 C 58.400 194.355,58.760 195.002,59.200 195.400 C 59.640 195.798,60.000 196.336,60.000 196.594 C 60.000 196.853,60.495 197.320,61.100 197.632 C 61.705 197.945,62.549 198.515,62.975 198.900 C 63.842 199.682,68.557 199.917,69.000 199.200 C 69.136 198.980,69.582 198.800,69.992 198.800 C 71.099 198.800,74.247 195.463,74.545 193.973 C 76.081 186.294,72.829 181.600,65.973 181.600 L 62.869 181.600 60.839 183.526 M90.400 182.000 C 90.400 182.220,90.125 182.400,89.789 182.400 C 88.996 182.400,85.600 185.796,85.600 186.589 C 85.600 186.925,85.420 187.200,85.200 187.200 C 84.967 187.200,84.800 188.525,84.800 190.376 C 84.800 192.123,84.980 193.664,85.200 193.800 C 85.420 193.936,85.600 194.324,85.600 194.663 C 85.600 195.601,89.188 198.800,90.240 198.800 C 90.742 198.800,91.264 198.980,91.400 199.200 C 91.743 199.755,384.657 199.755,385.000 199.200 C 385.136 198.980,385.564 198.800,385.952 198.800 C 388.363 198.800,390.882 194.523,390.898 190.400 C 390.912 186.884,388.480 182.400,386.560 182.400 C 386.252 182.400,386.000 182.220,386.000 182.000 C 386.000 181.734,336.467 181.600,238.200 181.600 C 139.933 181.600,90.400 181.734,90.400 182.000 M5.400 216.400 C 5.264 216.620,4.735 216.800,4.225 216.800 C 3.683 216.800,2.610 217.467,1.648 218.400 L 0.000 219.999 -0.000 225.219 C -0.000 230.772,0.631 232.345,2.876 232.387 C 3.248 232.394,3.664 232.580,3.800 232.800 C 4.090 233.270,11.200 233.349,11.200 232.883 C 11.200 232.708,11.780 232.393,12.488 232.183 C 15.332 231.338,17.096 226.726,16.189 222.508 C 15.381 218.747,6.912 213.953,5.400 216.400 M32.600 216.400 C 32.464 216.620,32.003 216.800,31.576 216.800 C 31.149 216.800,30.800 216.980,30.800 217.200 C 30.800 217.420,30.538 217.600,30.218 217.600 C 28.477 217.600,26.083 221.770,26.097 224.779 C 26.112 228.187,28.589 232.400,30.577 232.400 C 30.894 232.400,31.264 232.580,31.400 232.800 C 31.564 233.065,68.404 233.200,140.624 233.200 C 213.008 233.200,249.600 233.066,249.600 232.800 C 249.600 232.580,250.144 232.400,250.810 232.400 C 251.719 232.400,252.111 232.161,252.385 231.439 C 252.586 230.910,252.942 230.360,253.175 230.215 C 253.409 230.071,253.600 229.603,253.600 229.176 C 253.600 228.749,253.780 228.400,254.000 228.400 C 254.784 228.400,254.472 222.110,253.604 220.407 C 252.753 218.740,250.538 216.800,249.486 216.800 C 249.135 216.800,248.736 216.620,248.600 216.400 C 248.436 216.135,212.004 216.000,140.600 216.000 C 69.196 216.000,32.764 216.135,32.600 216.400 M65.800 250.800 C 65.664 251.020,64.944 251.200,64.200 251.200 C 63.456 251.200,62.736 251.380,62.600 251.600 C 62.464 251.820,62.085 252.000,61.758 252.000 C 61.080 252.000,59.200 253.751,59.200 254.382 C 59.200 254.612,59.020 254.800,58.800 254.800 C 58.580 254.800,58.400 255.250,58.400 255.800 C 58.400 256.350,58.220 256.800,58.000 256.800 C 57.774 256.800,57.600 257.933,57.600 259.400 C 57.600 260.867,57.774 262.000,58.000 262.000 C 58.220 262.000,58.400 262.319,58.400 262.710 C 58.400 263.669,62.260 267.600,63.202 267.600 C 63.615 267.600,64.064 267.780,64.200 268.000 C 64.336 268.220,65.236 268.400,66.200 268.400 C 67.164 268.400,68.064 268.220,68.200 268.000 C 68.336 267.780,68.799 267.600,69.229 267.600 C 71.026 267.600,74.153 264.735,74.556 262.720 C 75.368 258.659,74.236 253.237,72.400 252.399 C 72.070 252.248,71.397 251.916,70.905 251.662 C 70.413 251.408,69.389 251.200,68.629 251.200 C 67.869 251.200,67.136 251.020,67.000 250.800 C 66.864 250.580,66.594 250.400,66.400 250.400 C 66.206 250.400,65.936 250.580,65.800 250.800 M89.600 251.600 C 89.600 251.820,89.178 252.000,88.662 252.000 C 87.797 252.000,86.400 253.080,86.400 253.748 C 86.400 253.905,86.066 254.392,85.658 254.830 C 84.323 256.263,84.663 263.600,86.064 263.600 C 86.249 263.600,86.400 263.878,86.400 264.218 C 86.400 265.018,88.182 266.800,88.982 266.800 C 89.322 266.800,89.600 266.980,89.600 267.200 C 89.600 267.420,90.140 267.600,90.800 267.600 C 91.460 267.600,92.000 267.780,92.000 268.000 C 92.000 268.266,135.333 268.400,221.200 268.400 C 307.067 268.400,350.400 268.266,350.400 268.000 C 350.400 267.780,350.940 267.600,351.600 267.600 C 352.260 267.600,352.800 267.450,352.800 267.268 C 352.800 267.085,353.234 266.703,353.764 266.419 C 356.662 264.869,358.409 258.616,356.793 255.583 C 355.832 253.780,354.208 252.000,353.524 252.000 C 353.152 252.000,352.736 251.820,352.600 251.600 C 352.436 251.335,308.129 251.200,220.976 251.200 C 133.659 251.200,89.600 251.334,89.600 251.600 M20.000 285.200 C 20.000 285.420,19.640 285.600,19.200 285.600 C 18.760 285.600,18.400 285.780,18.400 286.000 C 18.400 286.220,18.106 286.400,17.747 286.400 C 17.011 286.400,15.746 287.711,15.385 288.848 C 15.254 289.261,14.978 289.600,14.773 289.600 C 14.568 289.600,14.400 289.949,14.400 290.376 C 14.400 290.803,14.220 291.264,14.000 291.400 C 13.155 291.922,13.981 298.000,14.897 298.000 C 15.064 298.000,15.200 298.278,15.200 298.618 C 15.200 301.122,24.532 304.452,25.800 302.400 C 25.936 302.180,26.313 302.000,26.637 302.000 C 29.510 302.000,33.504 292.024,31.200 290.600 C 30.980 290.464,30.800 290.089,30.800 289.766 C 30.800 289.003,27.397 285.600,26.634 285.600 C 26.311 285.600,25.936 285.420,25.800 285.200 C 25.664 284.980,24.303 284.800,22.776 284.800 C 21.192 284.800,20.000 284.972,20.000 285.200 M47.200 285.200 C 47.200 285.420,46.816 285.600,46.347 285.600 C 45.238 285.600,42.000 288.838,42.000 289.947 C 42.000 290.416,41.820 290.800,41.600 290.800 C 41.369 290.800,41.200 292.059,41.200 293.776 C 41.200 295.413,41.380 296.864,41.600 297.000 C 41.820 297.136,42.000 297.543,42.000 297.904 C 42.000 298.788,45.447 302.000,46.397 302.000 C 46.813 302.000,47.264 302.180,47.400 302.400 C 47.563 302.663,65.592 302.800,100.186 302.800 L 152.724 302.800 154.462 301.900 C 155.418 301.405,156.785 300.380,157.500 299.622 L 158.800 298.244 158.800 293.785 L 158.800 289.327 157.040 287.464 C 156.071 286.439,155.002 285.600,154.663 285.600 C 154.324 285.600,153.936 285.420,153.800 285.200 C 153.637 284.937,135.396 284.800,100.376 284.800 C 65.192 284.800,47.200 284.935,47.200 285.200 M177.288 285.627 C 175.526 286.661,173.200 289.028,173.200 289.787 C 173.200 290.124,173.020 290.400,172.800 290.400 C 172.565 290.400,172.400 291.800,172.400 293.800 C 172.400 295.800,172.565 297.200,172.800 297.200 C 173.020 297.200,173.200 297.435,173.200 297.722 C 173.200 298.508,175.638 301.011,177.330 301.961 L 178.824 302.800 286.574 302.800 L 394.324 302.800 396.062 301.900 C 399.607 300.064,399.986 299.277,399.994 293.742 C 400.001 288.296,399.652 287.539,396.258 285.632 L 394.776 284.800 286.688 284.828 C 180.747 284.856,178.574 284.872,177.288 285.627 M194.400 319.600 C 194.400 319.820,193.805 320.000,193.078 320.000 C 191.610 320.000,188.800 322.203,188.800 323.354 C 188.800 323.709,188.620 324.000,188.400 324.000 C 188.180 324.000,188.000 324.349,188.000 324.776 C 188.000 325.203,187.820 325.664,187.600 325.800 C 187.380 325.936,187.200 327.117,187.200 328.424 C 187.200 329.741,187.378 330.800,187.600 330.800 C 187.820 330.800,188.000 331.162,188.000 331.605 C 188.000 334.021,191.037 336.759,194.419 337.392 C 197.297 337.930,202.800 335.549,202.800 333.766 C 202.800 333.455,202.951 333.200,203.136 333.200 C 203.320 333.200,203.680 332.742,203.936 332.181 C 204.508 330.926,204.561 324.800,204.000 324.800 C 203.780 324.800,203.600 324.565,203.600 324.278 C 203.600 323.619,201.044 320.800,200.446 320.800 C 200.201 320.800,200.000 320.620,200.000 320.400 C 200.000 320.180,199.561 320.000,199.024 320.000 C 198.487 320.000,197.936 319.820,197.800 319.600 C 197.664 319.380,196.843 319.200,195.976 319.200 C 195.109 319.200,194.400 319.380,194.400 319.600 M221.000 319.600 C 220.864 319.820,220.403 320.000,219.976 320.000 C 219.549 320.000,219.200 320.180,219.200 320.400 C 219.200 320.620,218.924 320.800,218.587 320.800 C 218.249 320.800,217.349 321.424,216.587 322.187 C 215.824 322.949,215.200 323.849,215.200 324.187 C 215.200 324.524,215.020 324.800,214.800 324.800 C 214.214 324.800,214.299 331.033,214.900 332.091 C 215.749 333.585,217.728 335.503,219.323 336.377 L 220.845 337.212 287.829 337.212 C 324.671 337.212,355.290 337.092,355.873 336.946 C 357.439 336.553,360.400 333.923,360.400 332.925 C 360.400 332.636,360.580 332.400,360.800 332.400 C 361.020 332.400,361.200 331.871,361.200 331.224 C 361.200 330.577,361.380 329.936,361.600 329.800 C 361.820 329.664,362.000 328.944,362.000 328.200 C 362.000 327.456,361.820 326.736,361.600 326.600 C 361.380 326.464,361.200 326.003,361.200 325.576 C 361.200 325.149,361.020 324.800,360.800 324.800 C 360.580 324.800,360.400 324.480,360.400 324.088 C 360.400 323.697,360.040 323.117,359.600 322.800 C 359.160 322.483,358.800 322.021,358.800 321.774 C 358.800 320.943,357.348 320.000,356.069 320.000 C 355.371 320.000,354.800 319.820,354.800 319.600 C 354.800 319.335,332.275 319.200,288.024 319.200 C 243.937 319.200,221.163 319.336,221.000 319.600 M112.800 354.800 C 112.800 355.020,112.566 355.200,112.281 355.200 C 111.549 355.200,108.699 358.021,108.100 359.338 C 107.502 360.652,107.421 366.400,108.000 366.400 C 108.220 366.400,108.400 366.751,108.400 367.180 C 108.400 367.871,110.630 370.000,111.354 370.000 C 111.508 370.000,112.020 370.360,112.492 370.800 C 113.672 371.899,119.041 371.969,120.225 370.900 C 120.651 370.515,121.491 369.947,122.091 369.637 C 124.599 368.343,126.090 362.472,124.711 359.319 C 124.092 357.904,121.392 355.200,120.600 355.200 C 120.270 355.200,120.000 355.020,120.000 354.800 C 120.000 354.563,118.533 354.400,116.400 354.400 C 114.267 354.400,112.800 354.563,112.800 354.800 M139.600 354.800 C 139.600 355.020,139.338 355.200,139.018 355.200 C 138.264 355.200,136.400 357.064,136.400 357.818 C 136.400 358.138,136.220 358.400,136.000 358.400 C 135.780 358.400,135.600 358.940,135.600 359.600 C 135.600 360.260,135.420 360.800,135.200 360.800 C 134.980 360.800,134.800 361.599,134.800 362.576 C 134.800 363.553,134.980 364.464,135.200 364.600 C 135.420 364.736,135.600 365.176,135.600 365.578 C 135.600 367.073,137.718 370.000,138.800 370.000 C 139.038 370.000,139.620 370.360,140.092 370.800 C 141.069 371.710,276.000 372.107,276.000 371.200 C 276.000 370.980,276.360 370.800,276.800 370.800 C 277.240 370.800,277.600 370.664,277.600 370.498 C 277.600 370.331,278.142 369.955,278.806 369.662 C 281.016 368.683,282.400 366.076,282.400 362.889 C 282.400 360.145,281.597 357.600,280.731 357.600 C 280.506 357.600,279.817 357.060,279.200 356.400 C 278.583 355.740,277.791 355.200,277.440 355.200 C 277.088 355.200,276.800 355.020,276.800 354.800 C 276.800 354.535,253.667 354.400,208.200 354.400 C 162.733 354.400,139.600 354.535,139.600 354.800 "
              stroke="none" fill="#e4147c" fill-rule="evenodd"></path>
        <path id="path1"
              d="M225.744 28.808 C 225.555 28.992,224.230 29.186,222.800 29.238 C 221.370 29.290,220.110 29.465,220.000 29.628 C 219.890 29.791,218.990 29.973,218.000 30.033 C 217.010 30.092,215.975 30.311,215.700 30.519 C 215.365 30.773,215.200 30.734,215.200 30.400 C 215.200 30.028,215.064 30.015,214.662 30.349 C 214.366 30.594,213.061 30.866,211.762 30.952 C 208.715 31.154,206.800 31.596,206.800 32.099 C 206.800 32.318,206.495 32.251,206.123 31.949 C 205.663 31.576,205.543 31.560,205.747 31.900 C 206.052 32.409,205.936 32.451,203.920 32.565 C 203.326 32.599,202.711 32.756,202.553 32.913 C 202.396 33.071,201.957 33.200,201.579 33.200 C 201.201 33.200,200.389 33.461,199.774 33.780 C 199.160 34.098,198.509 34.268,198.329 34.156 C 198.148 34.044,198.000 34.143,198.000 34.376 C 198.000 34.609,197.674 34.800,197.275 34.800 C 196.876 34.800,195.805 35.160,194.894 35.600 C 193.984 36.040,192.960 36.400,192.619 36.400 C 192.279 36.400,192.000 36.580,192.000 36.800 C 192.000 37.020,191.728 37.200,191.395 37.200 C 190.755 37.200,189.153 37.995,188.778 38.498 C 188.655 38.662,188.083 38.835,187.506 38.883 C 186.930 38.931,186.545 39.112,186.652 39.285 C 186.760 39.458,186.387 39.600,185.824 39.600 C 185.261 39.600,184.800 39.736,184.800 39.902 C 184.800 40.377,182.297 41.365,181.300 41.283 C 180.805 41.242,180.400 41.387,180.400 41.604 C 180.400 41.822,180.122 42.000,179.783 42.000 C 179.158 42.000,178.568 42.400,177.211 43.743 C 176.799 44.151,176.286 44.377,176.073 44.245 C 175.859 44.113,175.573 44.292,175.439 44.644 C 175.299 45.008,174.937 45.185,174.597 45.054 C 174.268 44.928,174.000 44.999,174.000 45.213 C 174.000 45.426,173.739 45.600,173.420 45.600 C 173.101 45.600,172.696 45.834,172.520 46.120 C 172.344 46.406,171.340 47.136,170.289 47.743 C 169.238 48.350,168.159 49.196,167.893 49.623 C 167.626 50.051,167.131 50.400,166.792 50.400 C 166.454 50.400,165.917 50.760,165.600 51.200 C 165.283 51.640,164.613 52.000,164.112 52.000 C 163.610 52.000,163.200 52.136,163.200 52.302 C 163.200 52.469,162.659 52.844,161.998 53.137 C 161.336 53.430,160.880 53.806,160.984 53.974 C 161.088 54.142,160.729 54.517,160.186 54.807 C 159.644 55.098,159.200 55.485,159.200 55.668 C 159.200 55.850,158.924 56.000,158.587 56.000 C 158.251 56.000,157.855 56.315,157.708 56.700 C 157.370 57.587,154.546 60.236,153.100 61.022 C 152.495 61.351,152.000 61.807,152.000 62.034 C 152.000 62.261,151.852 62.356,151.671 62.244 C 151.354 62.048,150.260 63.072,150.101 63.715 C 150.058 63.888,149.253 64.628,148.311 65.360 C 147.370 66.091,146.645 66.895,146.700 67.145 C 146.755 67.395,146.500 67.600,146.133 67.600 C 145.767 67.600,145.572 67.705,145.700 67.833 C 145.947 68.080,145.670 68.458,143.410 70.961 C 142.634 71.820,142.000 72.632,142.000 72.767 C 142.000 72.901,141.598 73.188,141.107 73.405 C 140.616 73.622,140.014 74.206,139.769 74.703 C 139.524 75.199,138.711 76.279,137.962 77.102 C 137.213 77.925,136.578 78.734,136.550 78.899 C 136.523 79.065,136.478 79.481,136.450 79.824 C 136.422 80.167,136.220 80.336,136.000 80.200 C 135.780 80.064,135.591 80.278,135.580 80.676 C 135.570 81.074,134.853 82.120,133.988 83.000 C 133.123 83.880,132.210 85.095,131.959 85.700 C 131.708 86.305,131.366 86.800,131.198 86.800 C 131.030 86.800,130.784 87.115,130.651 87.500 C 130.518 87.885,130.045 88.740,129.600 89.400 C 129.155 90.060,128.682 90.915,128.549 91.300 C 128.416 91.685,128.137 92.000,127.930 92.000 C 127.722 92.000,127.655 92.165,127.779 92.366 C 127.903 92.567,127.814 92.795,127.581 92.873 C 127.218 92.994,126.952 93.712,126.831 94.900 C 126.814 95.065,126.530 95.200,126.200 95.200 C 125.682 95.200,125.435 96.363,125.634 97.855 C 125.653 97.996,125.518 98.221,125.334 98.355 C 124.803 98.744,124.000 100.332,124.000 100.995 C 124.000 101.328,123.820 101.600,123.600 101.600 C 123.380 101.600,123.200 101.968,123.200 102.417 C 123.200 102.866,122.840 103.620,122.400 104.092 C 121.960 104.564,121.600 105.277,121.600 105.675 C 121.600 106.074,121.420 106.400,121.200 106.400 C 120.980 106.400,120.800 106.850,120.800 107.400 C 120.800 107.950,120.620 108.400,120.400 108.400 C 120.180 108.400,120.000 108.861,120.000 109.424 C 120.000 110.129,119.845 110.358,119.500 110.159 C 119.225 110.001,119.125 110.011,119.279 110.181 C 119.523 110.452,119.110 111.879,117.999 114.600 C 117.365 116.153,117.078 117.009,116.928 117.791 C 116.845 118.227,116.602 118.758,116.389 118.971 C 115.885 119.475,115.884 120.119,116.388 119.808 C 116.601 119.676,116.432 120.335,116.012 121.273 C 115.461 122.503,115.367 123.119,115.673 123.489 C 115.907 123.770,115.933 124.000,115.731 124.000 C 115.529 124.000,115.318 124.675,115.263 125.499 C 115.207 126.324,114.990 127.170,114.781 127.379 C 114.571 127.589,114.400 128.624,114.400 129.680 C 114.400 130.736,114.251 131.600,114.068 131.600 C 113.886 131.600,113.696 132.635,113.646 133.900 C 113.596 135.165,113.385 136.260,113.178 136.333 C 112.970 136.407,112.800 137.701,112.800 139.210 C 112.800 140.718,112.648 142.047,112.462 142.162 C 111.474 142.772,112.035 158.000,113.045 158.000 C 113.350 158.000,113.600 158.330,113.600 158.732 C 113.600 159.135,114.050 159.706,114.600 160.000 C 115.150 160.294,115.600 160.685,115.600 160.868 C 115.600 161.050,170.500 161.200,237.600 161.200 C 318.667 161.200,359.600 161.066,359.600 160.800 C 359.600 160.580,359.920 160.400,360.312 160.400 C 360.703 160.400,361.283 160.040,361.600 159.600 C 361.917 159.160,362.407 158.800,362.688 158.800 C 362.970 158.800,363.201 158.575,363.202 158.300 C 363.204 158.025,363.445 157.340,363.738 156.778 C 364.311 155.680,364.443 148.310,363.900 147.767 C 363.735 147.602,363.600 145.617,363.600 143.357 C 363.600 141.049,363.425 139.139,363.200 139.000 C 362.980 138.864,362.800 137.683,362.800 136.376 C 362.800 135.059,362.622 134.000,362.400 134.000 C 362.180 134.000,362.000 133.111,362.000 132.024 C 362.000 130.937,361.820 129.936,361.600 129.800 C 361.380 129.664,361.200 128.764,361.200 127.800 C 361.200 126.836,361.020 125.936,360.800 125.800 C 360.580 125.664,360.400 125.023,360.400 124.376 C 360.400 123.729,360.220 123.200,360.000 123.200 C 359.780 123.200,359.600 122.671,359.600 122.024 C 359.600 121.377,359.420 120.736,359.200 120.600 C 358.980 120.464,358.800 119.298,358.800 118.010 C 358.800 116.721,358.658 115.607,358.484 115.533 C 358.310 115.460,357.871 114.500,357.509 113.400 C 356.595 110.622,355.837 108.637,355.600 108.400 C 355.408 108.208,355.201 107.521,355.040 106.540 C 354.999 106.288,354.749 105.821,354.486 105.504 C 354.222 105.186,354.125 104.808,354.270 104.663 C 354.415 104.518,354.323 104.400,354.067 104.400 C 353.810 104.400,353.594 104.085,353.587 103.700 C 353.580 103.315,353.316 102.658,353.000 102.241 C 352.684 101.824,352.520 101.329,352.636 101.141 C 352.752 100.953,352.685 100.800,352.488 100.800 C 352.290 100.800,351.891 100.083,351.602 99.206 C 351.313 98.329,350.744 97.311,350.338 96.944 C 349.932 96.577,349.600 96.001,349.600 95.664 C 349.600 95.327,349.210 94.636,348.733 94.129 C 348.257 93.622,347.840 92.890,347.808 92.503 C 347.724 91.496,346.375 88.800,345.954 88.800 C 345.759 88.800,345.600 88.440,345.600 88.000 C 345.600 87.560,345.464 87.200,345.298 87.200 C 345.131 87.200,344.756 86.659,344.463 85.998 C 344.170 85.336,343.766 84.897,343.565 85.021 C 343.364 85.146,343.200 84.889,343.200 84.451 C 343.200 84.005,342.847 83.542,342.400 83.400 C 341.960 83.260,341.600 82.913,341.600 82.627 C 341.600 82.342,341.063 81.499,340.406 80.754 C 339.750 80.009,339.210 79.265,339.206 79.100 C 339.203 78.935,338.840 78.440,338.400 78.000 C 337.960 77.560,337.600 76.925,337.600 76.589 C 337.600 75.944,334.527 72.667,333.566 72.287 C 333.252 72.163,333.207 72.049,333.465 72.032 C 333.721 72.014,332.326 70.403,330.365 68.452 C 328.404 66.500,326.800 64.782,326.800 64.634 C 326.800 64.221,324.887 62.400,324.454 62.400 C 324.243 62.400,323.617 61.860,323.061 61.200 C 322.506 60.540,321.900 60.000,321.714 60.000 C 321.528 60.000,321.117 59.640,320.800 59.200 C 320.483 58.760,320.069 58.400,319.880 58.400 C 319.428 58.400,316.400 55.240,316.400 54.767 C 316.400 54.565,316.098 54.400,315.729 54.400 C 315.360 54.400,314.555 53.815,313.941 53.100 C 313.004 52.010,312.758 51.897,312.418 52.400 C 312.195 52.730,312.009 52.805,312.006 52.568 C 312.003 52.330,311.508 51.880,310.907 51.568 C 310.306 51.255,309.327 50.542,308.733 49.981 C 308.138 49.421,307.145 48.702,306.526 48.384 C 305.907 48.066,305.109 47.489,304.753 47.103 C 304.397 46.716,303.902 46.400,303.653 46.400 C 303.404 46.400,303.200 46.261,303.200 46.091 C 303.200 45.710,300.366 44.162,299.922 44.300 C 299.745 44.355,299.600 44.238,299.600 44.039 C 299.600 43.841,299.052 43.487,298.382 43.254 C 297.713 43.020,296.650 42.463,296.021 42.015 C 295.391 41.567,294.364 41.196,293.738 41.191 C 293.112 41.186,292.150 40.830,291.600 40.400 C 291.050 39.970,290.285 39.614,289.900 39.609 C 289.515 39.604,289.200 39.449,289.200 39.264 C 289.200 39.079,288.435 38.686,287.500 38.389 C 286.565 38.093,285.322 37.524,284.738 37.125 C 284.154 36.726,283.164 36.386,282.538 36.368 C 281.912 36.351,281.635 36.243,281.922 36.128 C 282.209 36.013,280.589 35.304,278.322 34.553 C 276.055 33.802,273.840 33.009,273.400 32.790 C 272.960 32.571,272.105 32.354,271.500 32.309 C 270.895 32.263,270.400 32.070,270.400 31.879 C 270.400 31.689,270.175 31.612,269.900 31.709 C 269.625 31.806,268.983 31.731,268.474 31.542 C 267.964 31.354,266.169 31.099,264.485 30.976 C 262.802 30.853,261.238 30.600,261.012 30.415 C 260.785 30.230,259.610 29.977,258.400 29.853 C 253.542 29.354,250.562 28.918,249.834 28.599 C 249.232 28.336,249.142 28.385,249.411 28.832 C 249.684 29.284,249.636 29.306,249.177 28.941 C 248.492 28.396,226.295 28.270,225.744 28.808 "
              stroke="none" fill="#54cccb" fill-rule="evenodd"></path>
        <path id="path2" d="" stroke="none" fill="#e83ca4" fill-rule="evenodd"></path>
        <path id="path3" d="" stroke="none" fill="#a09ca4" fill-rule="evenodd"></path>
        <path id="path4"
              d="M148.484 64.615 C 147.822 65.366,148.370 65.349,149.376 64.587 C 149.922 64.174,149.982 64.005,149.576 64.015 C 149.259 64.024,148.768 64.294,148.484 64.615 "
              stroke="none" fill="#54d0a4" fill-rule="evenodd"></path>
    </g>
</svg>