<?xml version="1.0" encoding="UTF-8"?>
<svg xmlns="http://www.w3.org/2000/svg" xmlns:xlink="http://www.w3.org/1999/xlink" width="240px" height="240px" viewBox="0 0 240 240" version="1.1">
<g id="surface1">
<path style=" stroke:none;fill-rule:evenodd;fill:rgb(39.215686%,58.431373%,92.941176%);fill-opacity:1;" d="M 204.394531 205.292969 C 213.84375 195.957031 221.757812 185.042969 227.699219 172.988281 C 222.355469 171.242188 217.164062 169.292969 212.210938 167.210938 C 184.574219 155.570312 153.320312 153.28125 125.457031 163.050781 C 73.855469 181.125 35.980469 179.289062 10.835938 169.894531 C 18.824219 187.386719 30.917969 202.613281 45.863281 214.367188 C 63.207031 213.789062 84.039062 210.054688 108.710938 201.394531 C 139.914062 190.460938 174.300781 192.992188 204.394531 205.3125 Z M 192.863281 215.363281 C 167.117188 206.269531 138.882812 205.125 113.457031 214.050781 C 95.363281 220.386719 78.9375 224.289062 64.179688 226.257812 C 80.851562 235.03125 99.84375 240 120 240 C 147.394531 240 172.648438 230.8125 192.863281 215.363281 Z M 217.761719 154.875 C 222.75 156.976562 227.851562 158.867188 232.988281 160.5 C 237.523438 147.84375 240 134.210938 240 120 L 0 120 C 0 130.988281 1.480469 141.617188 4.238281 151.726562 C 23.886719 163.539062 61.03125 171.320312 120.730469 150.394531 C 152.398438 139.292969 187.351562 142.070312 217.761719 154.875 Z M 217.761719 154.875 "/>
<path style=" stroke:none;fill-rule:evenodd;fill:rgb(92.941176%,73.72549%,39.215686%);fill-opacity:1;" d="M 0 120 C 0 53.71875 53.71875 0 120 0 C 186.28125 0 240 53.71875 240 120 L 184.800781 120 C 184.800781 84.207031 155.792969 55.199219 120 55.199219 C 84.207031 55.199219 55.199219 84.207031 55.199219 120 Z M 0 120 "/>
</g>
</svg>
