<svg width="240" height="240" viewBox="0 0 240 240" fill="none" xmlns="http://www.w3.org/2000/svg">
  <g transform="scale(0.66852367688)">
    <path fill-rule="evenodd" clip-rule="evenodd" d="M305.739 307.085C319.875 293.118 331.71 276.795 340.601 258.76C332.608 256.152 324.839 253.235 317.435 250.122C276.093 232.705 229.339 229.283 187.662 243.896C110.477 270.933 53.822 268.184 16.2111 254.133C28.1591 280.3 46.2493 303.075 68.6027 320.66C94.546 319.79 125.706 314.209 162.616 301.251C209.286 284.9 260.724 288.686 305.739 307.113V307.085ZM288.49 322.146C249.982 308.544 207.743 306.833 169.712 320.183C142.646 329.663 118.077 335.497 96.0044 338.442C120.938 351.568 149.35 359 179.5 359C220.476 359 258.256 345.257 288.49 322.146ZM325.736 231.667C333.197 234.808 340.826 237.641 348.51 240.081C355.298 221.15 359 200.76 359 179.5H0C0 195.935 2.21571 211.838 6.33859 226.955C35.7317 244.625 91.2926 256.264 180.594 224.964C227.965 208.36 280.244 212.511 325.736 231.667Z" fill="#00C88F"/>
    <path fill-rule="evenodd" clip-rule="evenodd" d="M0 179.5C0 80.3543 80.3543 0 179.5 0C278.646 0 359 80.3543 359 179.5H276.43C276.43 125.959 233.041 82.57 179.5 82.57C125.959 82.57 82.57 125.959 82.57 179.5H0Z" fill="#00C88F"/>
    <circle cx="178.5" cy="179.5" r="106.5" fill="white"/>
    <g transform="translate(124.5, 94)">
      <path d="M65.4962 171H44.5038V152.524C13.645 148.986 0 132.672 0 110.462V107.121H22.2519V109.283C22.2519 125.597 29.5992 133.852 58.9885 133.852C79.771 133.852 87.3282 128.545 87.3282 116.359C87.3282 104.369 83.1298 100.045 61.5076 95.9172L37.5763 91.3966C13.4351 87.0724 0.419847 76.0655 0.419847 55.231C0.419847 37.3448 14.0649 20.6379 44.5038 18.0828V0H65.4962V18.4759C95.0954 22.4069 107.271 40.8828 107.271 61.5207V63.8793H85.0191V61.7172C85.0191 45.6 77.4618 37.1483 52.271 37.1483C31.4885 37.1483 23.0916 42.6517 23.0916 54.2483C23.0916 66.2379 28.7595 69.5793 48.0725 73.5103L72.0038 78.2276C98.4542 83.3379 110 95.7207 110 115.572C110 134.834 96.145 150.952 65.4962 153.114V171Z" fill="#00C88F"/>
    </g>
  </g>
</svg>