<?xml version="1.0" encoding="UTF-8"?>
<svg xmlns="http://www.w3.org/2000/svg" xmlns:xlink="http://www.w3.org/1999/xlink" width="240px" height="240px" viewBox="0 0 240 240" version="1.1">
<g id="surface1">
<path style=" stroke:none;fill-rule:evenodd;fill:rgb(65.098039%,69.019608%,76.470588%);fill-opacity:1;" d="M 204.40625 205.308594 C 213.855469 195.957031 221.757812 185.046875 227.695312 172.996094 C 222.34375 171.261719 217.160156 169.300781 212.214844 167.21875 C 184.574219 155.589844 153.328125 153.289062 125.460938 163.058594 C 73.84375 181.148438 35.976562 179.296875 10.828125 169.902344 C 18.828125 187.386719 30.910156 202.617188 45.847656 214.375 C 63.183594 213.796875 84.023438 210.050781 108.71875 201.394531 C 139.917969 190.460938 174.300781 192.988281 204.40625 205.308594 Z M 192.863281 215.367188 C 167.117188 206.265625 138.878906 205.132812 113.457031 214.046875 C 95.347656 220.394531 78.925781 224.285156 64.15625 226.261719 C 80.492188 234.863281 99.054688 239.8125 118.753906 240.011719 L 121.238281 240.011719 C 148.164062 239.738281 172.96875 230.597656 192.863281 215.367188 Z M 217.761719 154.882812 C 222.746094 156.976562 227.839844 158.886719 232.984375 160.523438 C 237.519531 147.871094 239.992188 134.234375 239.992188 120.019531 L 239.992188 120.015625 L 0 120.015625 L 0 120.019531 C 0 131 1.476562 141.636719 4.238281 151.742188 C 23.875 163.550781 61.027344 171.332031 120.722656 150.40625 C 152.390625 139.308594 187.339844 142.078125 217.761719 154.882812 Z M 217.761719 154.882812 "/>
<path style=" stroke:none;fill-rule:evenodd;fill:rgb(65.098039%,69.019608%,76.470588%);fill-opacity:1;" d="M 120.054688 0 C 186.300781 0.03125 239.992188 53.742188 239.992188 119.996094 L 184.796875 119.996094 C 184.789062 84.210938 155.78125 55.207031 119.996094 55.207031 C 84.214844 55.207031 55.203125 84.210938 55.199219 119.996094 L 0 119.996094 C 0 53.742188 53.691406 0.03125 119.9375 0 Z M 120.054688 0 "/>
</g>
</svg>
