<svg xmlns="http://www.w3.org/2000/svg" viewBox="0 0 93.5 93.5"><defs><style>.cls-1{fill:#a04e9e;}.cls-2{fill:#72297e;}</style></defs><g id="Layer_9" data-name="Layer 9"><path class="cls-1" d="M45.67,90.18C22.22,89.47,3.91,69.84,3.91,46.75S22.34,4,45.67,3.32v6.94C26.53,11,11.81,28.56,11.81,46.75s14.84,35.78,33.86,36.5Z"/><path class="cls-1" d="M45.67,80.21c-12.59-.55-22.43-15.67-22.43-33.46s9.9-32.91,22.43-33.46v5.34c-10.28.56-17.53,14.11-17.53,28.12s7.31,27.56,17.53,28.12Z"/><path class="cls-2" d="M48,74.87c10.28-.65,17.43-14.11,17.43-28.12S58.23,19.37,48,18.63V13.29C60.42,13.84,70.31,29,70.31,46.75S60.48,79.66,48,80.21Z"/><path class="cls-2" d="M48,83.25c19.14-.84,33.74-18.31,33.74-36.5S67.09,11.21,48,10.26V3.32C71.16,4,89.59,23.66,89.59,46.75S71.28,89.47,48,90.18Z"/></g></svg>
