<svg width="200" height="200" viewBox="0 0 200 200" fill="none" xmlns="http://www.w3.org/2000/svg">
<circle cx="100" cy="100" r="100" fill="black"/>
<path d="M144.587 61.741L129.644 69.3544L57.485 106.109C57.2409 104.247 57.1182 102.373 57.1174 100.496C57.1273 93.0067 59.0935 85.6502 62.8212 79.1549C66.549 72.6597 71.909 67.251 78.3703 63.4646C84.8316 59.6782 92.1699 57.6456 99.6585 57.568C107.147 57.4904 114.526 59.3705 121.064 63.0221L129.618 58.6641L130.893 58.0131C123.058 52.3261 113.803 48.9162 104.151 48.1603C94.499 47.4044 84.8259 49.3319 76.2008 53.7297C67.5757 58.1276 60.3345 64.8246 55.2775 73.0805C50.2205 81.3364 47.5446 90.8298 47.5456 100.511C47.5456 101.849 47.5963 103.18 47.6978 104.507C47.84 106.386 47.4234 108.265 46.5003 109.907C45.5772 111.55 44.189 112.882 42.5103 113.738L38 116.037V126.764L51.2788 119.996L55.579 117.802L59.8162 115.644L135.887 76.8837L144.435 72.531L162.103 63.5262V52.8045L144.587 61.741Z" fill="white"/>
<path d="M162.103 74.2578L64.1375 124.138L55.5895 128.502L38 137.464V148.181L55.4687 139.281L70.4119 131.668L142.644 94.8611C142.889 96.7345 143.011 98.6216 143.012 100.511C143.007 108.008 141.042 115.374 137.31 121.878C133.579 128.381 128.211 133.795 121.741 137.582C115.27 141.37 107.921 143.399 100.424 143.469C92.9268 143.538 85.5417 141.646 79.0019 137.979L78.4768 138.257L69.2043 142.983C77.0378 148.67 86.291 152.081 95.9415 152.839C105.592 153.596 115.264 151.671 123.889 147.277C132.514 142.882 139.757 136.188 144.816 127.935C149.875 119.682 152.554 110.191 152.557 100.511C152.557 99.1614 152.505 97.812 152.405 96.4783C152.263 94.6003 152.679 92.7222 153.601 91.0799C154.523 89.4376 155.91 88.1044 157.588 87.2478L162.103 84.948V74.2578Z" fill="white"/>
</svg>
