<svg version="1.1" id="Layer_1" xmlns="http://www.w3.org/2000/svg" xmlns:xlink="http://www.w3.org/1999/xlink" x="0px" y="0px"
	 width="100%" viewBox="0 0 400 400" enable-background="new 0 0 400 400" xml:space="preserve">
<path fill="#FEFFFF" opacity="1.000000" stroke="none" 
	d="
M401.000000,157.000000 
	C401.000000,185.020889 401.000000,213.041794 400.631409,241.596069 
	C399.821045,242.942123 399.264404,243.713440 398.954529,244.573624 
	C394.069946,258.131836 390.201996,272.160858 384.135468,285.165070 
	C374.030334,306.826324 359.467987,325.448700 341.861450,341.791260 
	C324.369995,358.027039 304.802124,370.810150 282.863068,380.057007 
	C257.800049,390.620544 231.592697,395.643738 204.463959,395.943176 
	C199.013382,396.003357 193.529205,395.561127 188.105560,394.950500 
	C178.921509,393.916412 169.682861,393.025055 160.628876,391.249207 
	C141.454559,387.488312 123.434631,380.463715 106.219543,371.174011 
	C92.110153,363.560211 79.027451,354.493378 67.320816,343.665802 
	C47.128716,324.989990 30.858110,303.416016 19.870682,277.923096 
	C7.382173,248.947403 1.546749,219.027786 3.851707,187.419846 
	C4.942264,172.465012 7.408398,157.930862 11.600528,143.555542 
	C20.041260,114.611221 35.159733,89.517906 55.258636,67.371826 
	C67.469101,53.917667 81.637337,42.707466 97.185455,33.188900 
	C128.934509,13.752115 163.552277,4.158405 200.543655,3.150612 
	C211.425980,2.854135 222.466873,3.626434 233.243500,5.211518 
	C254.337906,8.314197 274.647644,14.463778 293.825897,23.944195 
	C319.344238,36.558720 341.519684,53.648693 359.152191,75.955383 
	C368.457031,87.726868 377.030426,100.378258 383.901581,113.682114 
	C390.082428,125.649445 393.452271,139.063400 398.156372,151.804413 
	C398.832825,153.636490 400.039001,155.272980 401.000000,157.000000 
M307.092499,193.953537 
	C307.079559,172.631470 307.281769,151.306351 306.980530,129.988358 
	C306.768158,114.960564 297.073517,101.611420 283.952515,98.253845 
	C270.444824,94.797325 257.523621,96.436600 245.855621,104.690002 
	C244.814178,105.426666 243.735031,106.110069 242.742966,106.771805 
	C228.344574,93.985405 215.956604,93.462929 194.488632,104.664253 
	C194.275711,102.398277 194.069229,100.200706 193.875107,98.134735 
	C183.728256,98.134735 174.006821,98.134735 164.301514,98.134735 
	C164.301514,130.568634 164.301514,162.633118 164.301514,194.707016 
	C174.661270,194.707016 184.720978,194.707016 195.062836,194.707016 
	C195.062836,192.902512 195.062729,191.425400 195.062851,189.948288 
	C195.064270,172.290268 195.014221,154.632019 195.091507,136.974335 
	C195.124268,129.488693 199.005798,124.678680 205.390656,123.766434 
	C213.881119,122.553337 219.904312,127.698166 219.968399,136.614136 
	C220.095337,154.271271 220.015045,171.929871 220.020309,189.587875 
	C220.020828,191.339981 220.020386,193.092087 220.020386,194.797241 
	C230.696426,194.797241 240.633667,194.797241 251.032867,194.797241 
	C251.032867,192.945099 251.032791,191.324646 251.032867,189.704193 
	C251.033737,172.379349 250.784607,155.048035 251.231567,137.734711 
	C251.329224,133.951248 253.089554,129.529480 255.548355,126.653419 
	C258.942108,122.683754 264.185394,122.657814 268.970520,124.704781 
	C273.988068,126.851196 275.972595,131.138809 276.000153,136.363876 
	C276.102966,155.850739 276.138397,175.337982 276.056030,195.785187 
	C276.056030,207.881073 276.056030,219.976959 276.056030,232.733582 
	C274.260315,231.505905 273.085541,230.666077 271.875366,229.880829 
	C252.016846,216.995529 224.485733,227.810623 220.625565,250.692841 
	C217.822403,267.309235 217.840393,284.247406 221.048676,300.902557 
	C223.562454,313.952332 233.400055,322.289978 246.521332,324.080688 
	C257.591888,325.591492 267.627777,323.545197 276.829010,315.896820 
	C276.960236,318.654846 277.058533,320.720703 277.166138,322.981964 
	C287.167786,322.981964 296.881042,322.981964 306.628540,322.981964 
	C306.800659,322.227234 307.001831,321.757294 307.001556,321.287476 
	C306.978119,279.143524 306.939209,236.999557 307.092499,193.953537 
M163.463837,86.929031 
	C205.226700,59.689129 249.985519,41.807159 300.976593,43.004517 
	C299.805084,42.179249 298.667542,41.590576 297.470947,41.422653 
	C289.069305,40.243614 280.686371,38.745831 272.240143,38.101200 
	C234.792603,35.243145 198.485229,40.913361 163.471863,54.200794 
	C125.517883,68.604179 91.676582,89.401978 66.064613,121.575348 
	C29.179718,167.909576 23.461189,218.762405 47.362720,272.415436 
	C58.025711,296.351227 76.383339,313.716278 101.820145,322.253876 
	C107.395569,324.125214 113.453354,324.559418 120.545776,325.891479 
	C117.541267,320.875458 115.360725,317.540955 113.478371,314.045807 
	C91.055054,272.410461 84.098808,228.509171 94.347450,182.136139 
	C98.693611,162.470612 104.999107,143.656174 118.170547,127.839241 
	C131.169266,112.229721 146.700027,99.427925 163.463837,86.929031 
z"/>
<path fill="#EDEDED" opacity="1.000000" stroke="none" 
	d="
M401.000000,156.531342 
	C400.039001,155.272980 398.832825,153.636490 398.156372,151.804413 
	C393.452271,139.063400 390.082428,125.649445 383.901581,113.682114 
	C377.030426,100.378258 368.457031,87.726868 359.152191,75.955383 
	C341.519684,53.648693 319.344238,36.558720 293.825897,23.944195 
	C274.647644,14.463778 254.337906,8.314197 233.243500,5.211518 
	C222.466873,3.626434 211.425980,2.854135 200.543655,3.150612 
	C163.552277,4.158405 128.934509,13.752115 97.185455,33.188900 
	C81.637337,42.707466 67.469101,53.917667 55.258636,67.371826 
	C35.159733,89.517906 20.041260,114.611221 11.600528,143.555542 
	C7.408398,157.930862 4.942264,172.465012 3.851707,187.419846 
	C1.546749,219.027786 7.382173,248.947403 19.870682,277.923096 
	C30.858110,303.416016 47.128716,324.989990 67.320816,343.665802 
	C79.027451,354.493378 92.110153,363.560211 106.219543,371.174011 
	C123.434631,380.463715 141.454559,387.488312 160.628876,391.249207 
	C169.682861,393.025055 178.921509,393.916412 188.105560,394.950500 
	C193.529205,395.561127 199.013382,396.003357 204.463959,395.943176 
	C231.592697,395.643738 257.800049,390.620544 282.863068,380.057007 
	C304.802124,370.810150 324.369995,358.027039 341.861450,341.791260 
	C359.467987,325.448700 374.030334,306.826324 384.135468,285.165070 
	C390.201996,272.160858 394.069946,258.131836 398.954529,244.573624 
	C399.264404,243.713440 399.821045,242.942123 400.631409,242.064728 
	C401.000000,294.984711 401.000000,347.969391 401.000000,400.977051 
	C267.720459,400.977051 134.440933,400.977051 1.080699,400.977051 
	C1.080699,267.759003 1.080699,134.517944 1.080699,1.138444 
	C134.333237,1.138444 267.666595,1.138444 401.000000,1.138444 
	C401.000000,52.759212 401.000000,104.410950 401.000000,156.531342 
z"/>
<path fill="#147CCA" opacity="1.000000" stroke="none" 
	d="
M163.153992,87.111221 
	C146.700027,99.427925 131.169266,112.229721 118.170547,127.839241 
	C104.999107,143.656174 98.693611,162.470612 94.347450,182.136139 
	C84.098808,228.509171 91.055054,272.410461 113.478371,314.045807 
	C115.360725,317.540955 117.541267,320.875458 120.545776,325.891479 
	C113.453354,324.559418 107.395569,324.125214 101.820145,322.253876 
	C76.383339,313.716278 58.025711,296.351227 47.362720,272.415436 
	C23.461189,218.762405 29.179718,167.909576 66.064613,121.575348 
	C91.676582,89.401978 125.517883,68.604179 163.471863,54.200794 
	C198.485229,40.913361 234.792603,35.243145 272.240143,38.101200 
	C280.686371,38.745831 289.069305,40.243614 297.470947,41.422653 
	C298.667542,41.590576 299.805084,42.179249 300.976593,43.004517 
	C249.985519,41.807159 205.226700,59.689129 163.153992,87.111221 
z"/>
<path fill="#137BCA" opacity="1.000000" stroke="none" 
	d="
M276.199097,194.825073 
	C276.138397,175.337982 276.102966,155.850739 276.000153,136.363876 
	C275.972595,131.138809 273.988068,126.851196 268.970520,124.704781 
	C264.185394,122.657814 258.942108,122.683754 255.548355,126.653419 
	C253.089554,129.529480 251.329224,133.951248 251.231567,137.734711 
	C250.784607,155.048035 251.033737,172.379349 251.032867,189.704193 
	C251.032791,191.324646 251.032867,192.945099 251.032867,194.797241 
	C240.633667,194.797241 230.696426,194.797241 220.020386,194.797241 
	C220.020386,193.092087 220.020828,191.339981 220.020309,189.587875 
	C220.015045,171.929871 220.095337,154.271271 219.968399,136.614136 
	C219.904312,127.698166 213.881119,122.553337 205.390656,123.766434 
	C199.005798,124.678680 195.124268,129.488693 195.091507,136.974335 
	C195.014221,154.632019 195.064270,172.290268 195.062851,189.948288 
	C195.062729,191.425400 195.062836,192.902512 195.062836,194.707016 
	C184.720978,194.707016 174.661270,194.707016 164.301514,194.707016 
	C164.301514,162.633118 164.301514,130.568634 164.301514,98.134735 
	C174.006821,98.134735 183.728256,98.134735 193.875107,98.134735 
	C194.069229,100.200706 194.275711,102.398277 194.488632,104.664253 
	C215.956604,93.462929 228.344574,93.985405 242.742966,106.771805 
	C243.735031,106.110069 244.814178,105.426666 245.855621,104.690002 
	C257.523621,96.436600 270.444824,94.797325 283.952515,98.253845 
	C297.073517,101.611420 306.768158,114.960564 306.980530,129.988358 
	C307.281769,151.306351 307.079559,172.631470 306.534454,194.416168 
	C296.050629,194.860901 286.124878,194.842987 276.199097,194.825073 
z"/>
<path fill="#637179" opacity="1.000000" stroke="none" 
	d="
M276.127563,195.305130 
	C286.124878,194.842987 296.050629,194.860901 306.438873,194.867218 
	C306.939209,236.999557 306.978119,279.143524 307.001556,321.287476 
	C307.001831,321.757294 306.800659,322.227234 306.628540,322.981964 
	C296.881042,322.981964 287.167786,322.981964 277.166138,322.981964 
	C277.058533,320.720703 276.960236,318.654846 276.829010,315.896820 
	C267.627777,323.545197 257.591888,325.591492 246.521332,324.080688 
	C233.400055,322.289978 223.562454,313.952332 221.048676,300.902557 
	C217.840393,284.247406 217.822403,267.309235 220.625565,250.692841 
	C224.485733,227.810623 252.016846,216.995529 271.875366,229.880829 
	C273.085541,230.666077 274.260315,231.505905 276.056030,232.733582 
	C276.056030,219.976959 276.056030,207.881073 276.127563,195.305130 
M270.902191,295.536072 
	C272.283173,292.959015 274.685577,290.447571 274.856201,287.792694 
	C275.396515,279.385498 275.676147,270.876038 274.964630,262.498871 
	C274.300140,254.675659 270.134430,251.723831 262.604004,251.889191 
	C255.807251,252.038437 251.685760,255.638214 251.126404,263.119324 
	C250.583755,270.377380 250.419281,277.741364 250.992157,284.987396 
	C251.910645,296.605133 259.415344,300.646973 270.902191,295.536072 
z"/>
<path fill="#FDFDFD" opacity="1.000000" stroke="none" 
	d="
M270.586243,295.751038 
	C259.415344,300.646973 251.910645,296.605133 250.992157,284.987396 
	C250.419281,277.741364 250.583755,270.377380 251.126404,263.119324 
	C251.685760,255.638214 255.807251,252.038437 262.604004,251.889191 
	C270.134430,251.723831 274.300140,254.675659 274.964630,262.498871 
	C275.676147,270.876038 275.396515,279.385498 274.856201,287.792694 
	C274.685577,290.447571 272.283173,292.959015 270.586243,295.751038 
z"/>
</svg>