<svg width="260" height="260" viewBox="0 0 260 260" fill="none" xmlns="http://www.w3.org/2000/svg">
<circle cx="130" cy="130" r="130" fill="#19A3F9"/>
<path d="M168.327 145.291C163.721 142.849 158.577 141.603 153.366 141.668C151.947 141.685 150.539 141.416 149.225 140.878C147.912 140.34 146.72 139.544 145.719 138.536C144.719 137.528 143.93 136.33 143.4 135.011C142.871 133.693 142.611 132.281 142.635 130.86C142.667 128.02 143.808 125.305 145.813 123.297C147.819 121.289 150.53 120.146 153.366 120.114C158.573 120.148 163.71 118.904 168.327 116.491C172.454 114.09 175.878 110.645 178.257 106.5C180.635 102.356 181.884 97.658 181.877 92.8779C181.871 88.0977 180.61 83.4032 178.22 79.2652C175.831 75.1272 172.397 71.6911 168.263 69.3014C164.129 66.9118 159.44 65.6525 154.667 65.65C149.894 65.6475 145.204 66.9019 141.068 69.2873C136.932 71.6726 133.494 75.1051 131.1 79.2406C128.707 83.3761 127.44 88.0693 127.429 92.8495C127.637 98.02 129.111 103.06 131.721 107.526C132.473 108.742 132.969 110.099 133.182 111.513C133.394 112.928 133.317 114.37 132.956 115.754C132.595 117.138 131.957 118.434 131.08 119.563C130.204 120.693 129.108 121.632 127.858 122.325C125.357 123.728 122.405 124.09 119.64 123.332C116.875 122.573 114.519 120.756 113.081 118.272C110.513 113.785 106.894 109.992 102.535 107.219C98.3953 104.837 93.7033 103.588 88.9295 103.596C84.1557 103.604 79.4679 104.868 75.3363 107.263C71.2047 109.658 67.7745 113.099 65.3899 117.241C63.0052 121.383 61.75 126.079 61.75 130.86C61.75 135.641 63.0052 140.338 65.3899 144.48C67.7745 148.622 71.2047 152.062 75.3363 154.457C79.4679 156.852 84.1557 158.117 88.9295 158.125C93.7033 158.133 98.3953 156.884 102.535 154.502C106.925 151.767 110.552 147.965 113.081 143.449C113.763 142.188 114.693 141.079 115.814 140.188C116.935 139.297 118.225 138.642 119.606 138.264C120.986 137.885 122.429 137.79 123.848 137.985C125.266 138.179 126.63 138.659 127.858 139.396C130.324 140.867 132.111 143.251 132.834 146.033C133.557 148.814 133.157 151.768 131.721 154.257C129.104 158.719 127.629 163.761 127.429 168.933C127.422 173.733 128.677 178.45 131.069 182.61C133.46 186.769 136.904 190.225 141.053 192.628C145.201 195.031 149.909 196.298 154.702 196.3C159.495 196.302 164.204 195.04 168.355 192.64C172.506 190.241 175.952 186.789 178.348 182.631C180.743 178.474 182.003 173.758 182 168.958C181.997 164.158 180.732 159.443 178.331 155.288C175.931 151.134 172.481 147.686 168.327 145.291Z" fill="white"/>
</svg>
