<svg width="32" height="32" viewBox="0 0 32 32" fill="none" xmlns="http://www.w3.org/2000/svg">
<path d="M16 32C24.8366 32 32 24.8366 32 16C32 7.16344 24.8366 0 16 0C7.16344 0 0 7.16344 0 16C0 24.8366 7.16344 32 16 32Z" fill="#2D2D2D"/>
<path d="M16 0C12.8355 0 9.74205 0.938406 7.11087 2.69651C4.47968 4.45461 2.42894 6.95352 1.21794 9.87714C0.00693486 12.8008 -0.309922 16.0178 0.307442 19.1215C0.924805 22.2252 2.44864 25.0761 4.68628 27.3138C6.92392 29.5514 9.77484 31.0752 12.8785 31.6926C15.9822 32.3099 19.1993 31.9931 22.1229 30.7821C25.0465 29.5711 27.5454 27.5204 29.3035 24.8892C31.0616 22.258 32 19.1645 32 16C32 11.7565 30.3143 7.68689 27.3137 4.68631C24.3131 1.68572 20.2435 0 16 0ZM20.7167 22.9715C19.2696 24.0114 17.5161 24.5372 15.7355 24.4653C14.0509 24.5585 12.3892 24.0402 11.0563 23.0057C10.5102 22.5673 10.0733 22.008 9.78005 21.372C9.48681 20.7359 9.34525 20.0405 9.36653 19.3404C9.29811 18.3792 9.5975 17.428 10.2041 16.6792C10.8119 16.0439 11.5691 15.5707 12.4065 15.3028C13.3823 14.9726 14.3753 14.6957 15.3812 14.4735C16.2727 14.2773 17.14 13.984 17.9673 13.5984C18.2452 13.5004 18.4872 13.3211 18.6619 13.0839C18.8366 12.8466 18.9359 12.5623 18.9469 12.2678C18.9506 11.9983 18.8882 11.7319 18.7652 11.492C18.6423 11.2521 18.4626 11.0459 18.2416 10.8915C17.653 10.4997 16.9522 10.3116 16.2465 10.356C15.5003 10.3179 14.7618 10.523 14.142 10.9404C13.8819 11.132 13.6635 11.3746 13.5002 11.6533C13.3368 11.932 13.2319 12.2411 13.1918 12.5617H9.91183C9.96988 11.8505 10.1724 11.1586 10.507 10.5283C10.8417 9.89812 11.3013 9.34285 11.858 8.89639C13.1105 7.9854 14.6357 7.5276 16.1829 7.59836C17.8062 7.49847 19.4095 8.00073 20.6857 9.00899C21.1986 9.4388 21.609 9.97773 21.8869 10.5864C22.1649 11.1952 22.3033 11.8583 22.2922 12.5274C22.3155 12.9689 22.2493 13.4106 22.0975 13.8258C21.9457 14.2411 21.7115 14.6213 21.409 14.9437C20.7806 15.5628 20.022 16.0341 19.1886 16.3232C18.3125 16.6443 17.415 16.904 16.5029 17.1004C15.5727 17.2706 14.6627 17.537 13.7877 17.8955C13.4693 18.0353 13.2032 18.272 13.0273 18.5719C12.8514 18.8719 12.7747 19.2196 12.8082 19.5657C12.8112 19.8506 12.8758 20.1315 12.9975 20.389C13.1192 20.6466 13.2952 20.8748 13.5135 21.058C14.1576 21.5461 14.9595 21.7788 15.7649 21.7111C16.6797 21.7559 17.5807 21.4741 18.3069 20.916C18.9151 20.4384 19.3452 19.7701 19.5282 19.0188H22.9681C22.8916 19.7981 22.6522 20.5527 22.2655 21.2336C21.8788 21.9145 21.3533 22.5065 20.7232 22.9715H20.7167Z" fill="white"/>
</svg>
