<?xml version="1.0" encoding="UTF-8"?>
<svg xmlns="http://www.w3.org/2000/svg" xmlns:xlink="http://www.w3.org/1999/xlink" width="250px" height="250px" viewBox="0 0 250 250" version="1.1">
<g id="surface1">
<path style=" stroke:none;fill-rule:nonzero;fill:rgb(17.647059%,17.647059%,17.647059%);fill-opacity:1;" d="M 125 250 C 194.035156 250 250 194.035156 250 125 C 250 55.964844 194.035156 0 125 0 C 55.964844 0 0 55.964844 0 125 C 0 194.035156 55.964844 250 125 250 Z M 125 250 "/>
<path style=" stroke:none;fill-rule:nonzero;fill:rgb(100%,100%,100%);fill-opacity:1;" d="M 125 0 C 100.277344 0 76.109375 7.332031 55.554688 21.066406 C 34.996094 34.800781 18.976562 54.324219 9.515625 77.164062 C 0.0546875 100.007812 -2.421875 125.140625 2.402344 149.386719 C 7.226562 173.632812 19.128906 195.90625 36.613281 213.390625 C 54.09375 230.871094 76.367188 242.773438 100.613281 247.597656 C 124.859375 252.421875 149.996094 249.945312 172.835938 240.484375 C 195.675781 231.023438 215.199219 215.003906 228.933594 194.445312 C 242.667969 173.890625 250 149.722656 250 125 C 250 91.847656 236.832031 60.054688 213.386719 36.613281 C 189.945312 13.167969 158.152344 0 125 0 Z M 161.847656 179.464844 C 150.542969 187.589844 136.84375 191.695312 122.933594 191.136719 C 109.773438 191.863281 96.789062 187.8125 86.378906 179.730469 C 82.109375 176.308594 78.699219 171.9375 76.40625 166.96875 C 74.117188 162 73.007812 156.566406 73.175781 151.097656 C 72.640625 143.585938 74.980469 136.15625 79.71875 130.304688 C 84.46875 125.34375 90.382812 121.644531 96.925781 119.554688 C 104.550781 116.972656 112.308594 114.808594 120.164062 113.074219 C 127.128906 111.542969 133.90625 109.25 140.371094 106.238281 C 142.539062 105.472656 144.429688 104.070312 145.796875 102.21875 C 147.160156 100.363281 147.9375 98.144531 148.023438 95.84375 C 148.050781 93.738281 147.5625 91.65625 146.601562 89.78125 C 145.644531 87.90625 144.238281 86.296875 142.511719 85.089844 C 137.914062 82.027344 132.4375 80.558594 126.925781 80.90625 C 121.097656 80.609375 115.328125 82.210938 110.484375 85.472656 C 108.453125 86.96875 106.746094 88.863281 105.46875 91.042969 C 104.195312 93.21875 103.375 95.632812 103.0625 98.136719 L 77.4375 98.136719 C 77.890625 92.582031 79.472656 87.175781 82.085938 82.253906 C 84.699219 77.328125 88.292969 72.992188 92.640625 69.503906 C 102.425781 62.386719 114.339844 58.808594 126.429688 59.363281 C 139.109375 58.582031 151.636719 62.503906 161.605469 70.382812 C 165.613281 73.742188 168.820312 77.949219 170.992188 82.707031 C 173.164062 87.460938 174.246094 92.644531 174.15625 97.871094 C 174.339844 101.320312 173.824219 104.769531 172.636719 108.015625 C 171.449219 111.257812 169.621094 114.230469 167.257812 116.746094 C 162.347656 121.585938 156.421875 125.265625 149.910156 127.523438 C 143.066406 130.035156 136.054688 132.0625 128.929688 133.597656 C 121.660156 134.925781 114.550781 137.007812 107.714844 139.808594 C 105.230469 140.902344 103.148438 142.75 101.777344 145.09375 C 100.402344 147.4375 99.800781 150.152344 100.0625 152.855469 C 100.085938 155.082031 100.59375 157.277344 101.542969 159.289062 C 102.492188 161.300781 103.867188 163.085938 105.574219 164.515625 C 110.605469 168.328125 116.871094 170.148438 123.164062 169.617188 C 130.308594 169.96875 137.347656 167.765625 143.023438 163.40625 C 147.773438 159.675781 151.132812 154.453125 152.5625 148.585938 L 179.4375 148.585938 C 178.839844 154.671875 176.96875 160.566406 173.949219 165.886719 C 170.929688 171.207031 166.824219 175.832031 161.898438 179.464844 Z M 161.847656 179.464844 "/>
</g>
</svg>
