<svg width="200" height="200" viewBox="0 0 200 200" fill="none" xmlns="http://www.w3.org/2000/svg">
<g clip-path="url(#clip0_1148_7)">
<path d="M100 200C155.228 200 200 155.228 200 100C200 44.7715 155.228 0 100 0C44.7715 0 0 44.7715 0 100C0 155.228 44.7715 200 100 200Z" fill="black"/>
<path d="M145.632 43.9883H164.292L125.449 84.2623C111.385 98.8437 88.5846 98.8437 74.5511 84.2623L35.7079 43.9883H54.3685L83.8662 74.5819C92.7855 83.8056 107.215 83.8056 116.104 74.5819L145.632 43.9883ZM54.1249 156.013H35.4644L74.5511 115.465C88.615 100.883 111.416 100.883 125.48 115.465L164.566 156.013H145.906L116.165 125.145C107.245 115.921 92.816 115.921 83.9271 125.145L54.1249 156.013Z" fill="white"/>
</g>
<defs>
<clipPath id="clip0_1148_7">
<rect width="200" height="200" fill="white"/>
</clipPath>
</defs>
</svg>
