<?xml version="1.0" encoding="UTF-8"?>
<svg id="Layer_3" data-name="Layer 3" xmlns="http://www.w3.org/2000/svg" xmlns:xlink="http://www.w3.org/1999/xlink" viewBox="0 0 2000 2000">
  <defs>
    <style>
      .cls-1 {
        stroke: url(#Spectrum_-5);
        stroke-width: .07px;
      }

      .cls-1, .cls-2, .cls-3, .cls-4, .cls-5, .cls-6, .cls-7, .cls-8, .cls-9, .cls-10, .cls-11, .cls-12, .cls-13, .cls-14, .cls-15, .cls-16, .cls-17, .cls-18, .cls-19, .cls-20, .cls-21, .cls-22, .cls-23, .cls-24, .cls-25, .cls-26, .cls-27, .cls-28, .cls-29, .cls-30, .cls-31, .cls-32, .cls-33, .cls-34, .cls-35, .cls-36, .cls-37, .cls-38, .cls-39, .cls-40, .cls-41, .cls-42, .cls-43, .cls-44, .cls-45, .cls-46, .cls-47, .cls-48, .cls-49, .cls-50, .cls-51, .cls-52, .cls-53, .cls-54, .cls-55, .cls-56, .cls-57, .cls-58, .cls-59, .cls-60, .cls-61 {
        fill: none;
        stroke-miterlimit: 10;
      }

      .cls-2 {
        stroke: url(#Spectrum_-61);
        stroke-width: 27.28px;
      }

      .cls-3 {
        stroke: url(#Spectrum_-49);
        stroke-width: 7.7px;
      }

      .cls-4 {
        stroke: url(#Spectrum_-43);
        stroke-width: 4.09px;
      }

      .cls-5 {
        stroke: url(#Spectrum_-37);
        stroke-width: 2.17px;
      }

      .cls-6 {
        stroke: url(#Spectrum_-47);
        stroke-width: 6.24px;
      }

      .cls-7 {
        stroke: url(#Spectrum_-31);
        stroke-width: 1.15px;
      }

      .cls-8 {
        stroke: url(#Spectrum_-52);
        stroke-width: 10.56px;
      }

      .cls-9 {
        stroke: url(#Spectrum_-58);
        stroke-width: 19.89px;
      }

      .cls-10 {
        stroke: url(#Spectrum_-38);
        stroke-width: 2.41px;
      }

      .cls-11 {
        stroke: url(#Spectrum_-19);
        stroke-width: .33px;
      }

      .cls-12 {
        stroke: url(#Spectrum_-20);
        stroke-width: .36px;
      }

      .cls-13 {
        stroke: url(#Spectrum_-16);
        stroke-width: .24px;
      }

      .cls-14 {
        stroke: url(#Spectrum_-39);
        stroke-width: 2.68px;
      }

      .cls-15 {
        stroke: url(#Spectrum_-56);
        stroke-width: 16.11px;
      }

      .cls-16 {
        stroke: url(#Spectrum_-25);
        stroke-width: .61px;
      }

      .cls-17 {
        stroke: url(#Spectrum_-12);
        stroke-width: .16px;
      }

      .cls-18 {
        stroke: url(#Spectrum_-45);
        stroke-width: 5.05px;
      }

      .cls-19 {
        stroke: url(#Spectrum_-33);
        stroke-width: 1.43px;
      }

      .cls-20 {
        stroke: url(#Spectrum_-9);
        stroke-width: .11px;
      }

      .cls-21 {
        stroke: url(#Spectrum_);
        stroke-width: .05px;
      }

      .cls-22 {
        stroke: url(#Spectrum_-54);
        stroke-width: 13.04px;
      }

      .cls-23 {
        stroke: url(#Spectrum_-15);
        stroke-width: .21px;
      }

      .cls-24 {
        stroke: url(#Spectrum_-18);
        stroke-width: .29px;
      }

      .cls-25 {
        stroke: url(#Spectrum_-23);
        stroke-width: .5px;
      }

      .cls-26 {
        stroke: url(#Spectrum_-40);
        stroke-width: 2.98px;
      }

      .cls-27 {
        stroke: url(#Spectrum_-4);
        stroke-width: .07px;
      }

      .cls-28 {
        stroke: url(#Spectrum_-42);
        stroke-width: 3.68px;
      }

      .cls-29 {
        stroke: url(#Spectrum_-51);
        stroke-width: 9.51px;
      }

      .cls-30 {
        stroke: url(#Spectrum_-24);
        stroke-width: .55px;
      }

      .cls-31 {
        stroke: url(#Spectrum_-13);
        stroke-width: .17px;
      }

      .cls-32 {
        stroke: url(#Spectrum_-29);
        stroke-width: .94px;
      }

      .cls-33 {
        stroke: url(#Spectrum_-36);
        stroke-width: 1.96px;
      }

      .cls-34 {
        stroke: url(#Spectrum_-50);
        stroke-width: 8.56px;
      }

      .cls-35 {
        stroke: url(#Spectrum_-48);
        stroke-width: 6.93px;
      }

      .cls-36 {
        stroke: url(#Spectrum_-35);
        stroke-width: 1.76px;
      }

      .cls-37 {
        stroke: url(#Spectrum_-17);
        stroke-width: .26px;
      }

      .cls-38 {
        stroke: url(#Spectrum_-7);
        stroke-width: .09px;
      }

      .cls-39 {
        stroke: url(#Spectrum_-14);
        stroke-width: .19px;
      }

      .cls-40 {
        stroke: url(#Spectrum_-60);
        stroke-width: 24.55px;
      }

      .cls-41 {
        stroke: url(#Spectrum_-53);
        stroke-width: 11.74px;
      }

      .cls-42 {
        stroke: url(#Spectrum_-46);
        stroke-width: 5.61px;
      }

      .cls-43 {
        stroke: url(#Spectrum_-26);
        stroke-width: .68px;
      }

      .cls-44 {
        stroke: url(#Spectrum_-44);
        stroke-width: 4.55px;
      }

      .cls-45 {
        stroke: url(#Spectrum_-3);
        stroke-width: .06px;
      }

      .cls-46 {
        stroke: url(#Spectrum_-30);
        stroke-width: 1.04px;
      }

      .cls-47 {
        stroke: url(#Spectrum_-2);
        stroke-width: .05px;
      }

      .cls-48 {
        stroke: url(#Spectrum_-21);
        stroke-width: .4px;
      }

      .cls-49 {
        stroke: url(#Spectrum_-22);
        stroke-width: .45px;
      }

      .cls-50 {
        stroke: url(#Spectrum_-59);
        stroke-width: 22.1px;
      }

      .cls-51 {
        stroke: url(#Spectrum_-55);
        stroke-width: 14.49px;
      }

      .cls-52 {
        stroke: url(#Spectrum_-57);
        stroke-width: 17.9px;
      }

      .cls-53 {
        stroke: url(#Spectrum_-32);
        stroke-width: 1.28px;
      }

      .cls-54 {
        stroke: url(#Spectrum_-34);
        stroke-width: 1.58px;
      }

      .cls-55 {
        stroke: url(#Spectrum_-27);
        stroke-width: .76px;
      }

      .cls-56 {
        stroke: url(#Spectrum_-11);
        stroke-width: .14px;
      }

      .cls-57 {
        stroke: url(#Spectrum_-8);
        stroke-width: .1px;
      }

      .cls-58 {
        stroke: url(#Spectrum_-10);
        stroke-width: .13px;
      }

      .cls-59 {
        stroke: url(#Spectrum_-6);
        stroke-width: .08px;
      }

      .cls-60 {
        stroke: url(#Spectrum_-28);
        stroke-width: .84px;
      }

      .cls-61 {
        stroke: url(#Spectrum_-41);
        stroke-width: 3.31px;
      }
    </style>
    <linearGradient id="Spectrum_" data-name="Spectrum " x1="997.12" y1="842.3" x2="1002.88" y2="842.3" gradientUnits="userSpaceOnUse">
      <stop offset="0" stop-color="#00a8de"/>
      <stop offset=".2" stop-color="#33368f"/>
      <stop offset=".4" stop-color="#e81989"/>
      <stop offset=".6" stop-color="#ea2f30"/>
      <stop offset=".8" stop-color="#fce828"/>
      <stop offset="1" stop-color="#009e54"/>
    </linearGradient>
    <linearGradient id="Spectrum_-2" data-name="Spectrum " x1="996.84" y1="842.32" x2="1003.16" y2="842.32" xlink:href="#Spectrum_"/>
    <linearGradient id="Spectrum_-3" data-name="Spectrum " x1="996.52" y1="842.34" x2="1003.48" y2="842.34" xlink:href="#Spectrum_"/>
    <linearGradient id="Spectrum_-4" data-name="Spectrum " x1="996.18" y1="842.36" x2="1003.82" y2="842.36" xlink:href="#Spectrum_"/>
    <linearGradient id="Spectrum_-5" data-name="Spectrum " x1="995.8" y1="842.39" x2="1004.2" y2="842.39" xlink:href="#Spectrum_"/>
    <linearGradient id="Spectrum_-6" data-name="Spectrum " x1="995.38" y1="842.42" x2="1004.62" y2="842.42" xlink:href="#Spectrum_"/>
    <linearGradient id="Spectrum_-7" data-name="Spectrum " x1="994.93" y1="842.45" x2="1005.07" y2="842.45" xlink:href="#Spectrum_"/>
    <linearGradient id="Spectrum_-8" data-name="Spectrum " x1="994.42" y1="842.48" x2="1005.58" y2="842.48" xlink:href="#Spectrum_"/>
    <linearGradient id="Spectrum_-9" data-name="Spectrum " x1="993.87" y1="842.52" x2="1006.13" y2="842.52" xlink:href="#Spectrum_"/>
    <linearGradient id="Spectrum_-10" data-name="Spectrum " x1="993.27" y1="842.57" x2="1006.73" y2="842.57" xlink:href="#Spectrum_"/>
    <linearGradient id="Spectrum_-11" data-name="Spectrum " x1="992.6" y1="842.62" x2="1007.4" y2="842.62" xlink:href="#Spectrum_"/>
    <linearGradient id="Spectrum_-12" data-name="Spectrum " x1="991.87" y1="842.68" x2="1008.13" y2="842.68" xlink:href="#Spectrum_"/>
    <linearGradient id="Spectrum_-13" data-name="Spectrum " x1="991.06" y1="842.74" x2="1008.94" y2="842.74" xlink:href="#Spectrum_"/>
    <linearGradient id="Spectrum_-14" data-name="Spectrum " x1="990.18" y1="842.82" x2="1009.82" y2="842.82" xlink:href="#Spectrum_"/>
    <linearGradient id="Spectrum_-15" data-name="Spectrum " x1="989.2" y1="842.9" x2="1010.8" y2="842.9" xlink:href="#Spectrum_"/>
    <linearGradient id="Spectrum_-16" data-name="Spectrum " x1="988.13" y1="842.99" x2="1011.87" y2="842.99" xlink:href="#Spectrum_"/>
    <linearGradient id="Spectrum_-17" data-name="Spectrum " x1="986.96" y1="843.09" x2="1013.04" y2="843.09" xlink:href="#Spectrum_"/>
    <linearGradient id="Spectrum_-18" data-name="Spectrum " x1="985.67" y1="843.21" x2="1014.33" y2="843.21" xlink:href="#Spectrum_"/>
    <linearGradient id="Spectrum_-19" data-name="Spectrum " x1="984.25" y1="843.34" x2="1015.75" y2="843.34" xlink:href="#Spectrum_"/>
    <linearGradient id="Spectrum_-20" data-name="Spectrum " x1="982.69" y1="843.48" x2="1017.31" y2="843.48" xlink:href="#Spectrum_"/>
    <linearGradient id="Spectrum_-21" data-name="Spectrum " x1="980.97" y1="843.65" x2="1019.03" y2="843.65" xlink:href="#Spectrum_"/>
    <linearGradient id="Spectrum_-22" data-name="Spectrum " x1="979.09" y1="843.83" x2="1020.91" y2="843.83" xlink:href="#Spectrum_"/>
    <linearGradient id="Spectrum_-23" data-name="Spectrum " x1="977.02" y1="844.04" x2="1022.98" y2="844.04" xlink:href="#Spectrum_"/>
    <linearGradient id="Spectrum_-24" data-name="Spectrum " x1="974.74" y1="844.27" x2="1025.26" y2="844.27" xlink:href="#Spectrum_"/>
    <linearGradient id="Spectrum_-25" data-name="Spectrum " x1="972.24" y1="844.53" x2="1027.76" y2="844.53" xlink:href="#Spectrum_"/>
    <linearGradient id="Spectrum_-26" data-name="Spectrum " x1="969.49" y1="844.83" x2="1030.51" y2="844.83" xlink:href="#Spectrum_"/>
    <linearGradient id="Spectrum_-27" data-name="Spectrum " x1="966.47" y1="845.16" x2="1033.53" y2="845.16" xlink:href="#Spectrum_"/>
    <linearGradient id="Spectrum_-28" data-name="Spectrum " x1="963.15" y1="845.53" x2="1036.85" y2="845.53" xlink:href="#Spectrum_"/>
    <linearGradient id="Spectrum_-29" data-name="Spectrum " x1="959.5" y1="845.95" x2="1040.5" y2="845.95" xlink:href="#Spectrum_"/>
    <linearGradient id="Spectrum_-30" data-name="Spectrum " x1="955.49" y1="846.42" x2="1044.51" y2="846.42" xlink:href="#Spectrum_"/>
    <linearGradient id="Spectrum_-31" data-name="Spectrum " x1="951.08" y1="846.94" x2="1048.92" y2="846.94" xlink:href="#Spectrum_"/>
    <linearGradient id="Spectrum_-32" data-name="Spectrum " x1="946.23" y1="847.53" x2="1053.77" y2="847.53" xlink:href="#Spectrum_"/>
    <linearGradient id="Spectrum_-33" data-name="Spectrum " x1="940.91" y1="848.2" x2="1059.09" y2="848.2" xlink:href="#Spectrum_"/>
    <linearGradient id="Spectrum_-34" data-name="Spectrum " x1="935.06" y1="848.94" x2="1064.94" y2="848.94" xlink:href="#Spectrum_"/>
    <linearGradient id="Spectrum_-35" data-name="Spectrum " x1="928.62" y1="849.78" x2="1071.38" y2="849.78" xlink:href="#Spectrum_"/>
    <linearGradient id="Spectrum_-36" data-name="Spectrum " x1="921.55" y1="850.73" x2="1078.45" y2="850.73" xlink:href="#Spectrum_"/>
    <linearGradient id="Spectrum_-37" data-name="Spectrum " x1="913.78" y1="851.79" x2="1086.22" y2="851.79" xlink:href="#Spectrum_"/>
    <linearGradient id="Spectrum_-38" data-name="Spectrum " x1="905.24" y1="852.98" x2="1094.76" y2="852.98" xlink:href="#Spectrum_"/>
    <linearGradient id="Spectrum_-39" data-name="Spectrum " x1="895.86" y1="854.31" x2="1104.14" y2="854.31" xlink:href="#Spectrum_"/>
    <linearGradient id="Spectrum_-40" data-name="Spectrum " x1="885.54" y1="855.82" x2="1114.46" y2="855.82" xlink:href="#Spectrum_"/>
    <linearGradient id="Spectrum_-41" data-name="Spectrum " x1="874.2" y1="857.5" x2="1125.8" y2="857.5" xlink:href="#Spectrum_"/>
    <linearGradient id="Spectrum_-42" data-name="Spectrum " x1="861.74" y1="859.4" x2="1138.26" y2="859.4" xlink:href="#Spectrum_"/>
    <linearGradient id="Spectrum_-43" data-name="Spectrum " x1="848.04" y1="861.53" x2="1151.96" y2="861.53" xlink:href="#Spectrum_"/>
    <linearGradient id="Spectrum_-44" data-name="Spectrum " x1="832.99" y1="863.93" x2="1167.01" y2="863.93" xlink:href="#Spectrum_"/>
    <linearGradient id="Spectrum_-45" data-name="Spectrum " x1="816.44" y1="866.62" x2="1183.56" y2="866.62" xlink:href="#Spectrum_"/>
    <linearGradient id="Spectrum_-46" data-name="Spectrum " x1="798.26" y1="869.64" x2="1201.74" y2="869.64" xlink:href="#Spectrum_"/>
    <linearGradient id="Spectrum_-47" data-name="Spectrum " x1="778.27" y1="873.04" x2="1221.73" y2="873.04" xlink:href="#Spectrum_"/>
    <linearGradient id="Spectrum_-48" data-name="Spectrum " x1="756.31" y1="876.85" x2="1243.69" y2="876.85" xlink:href="#Spectrum_"/>
    <linearGradient id="Spectrum_-49" data-name="Spectrum " x1="732.16" y1="881.14" x2="1267.84" y2="881.14" xlink:href="#Spectrum_"/>
    <linearGradient id="Spectrum_-50" data-name="Spectrum " x1="705.62" y1="885.96" x2="1294.38" y2="885.96" xlink:href="#Spectrum_"/>
    <linearGradient id="Spectrum_-51" data-name="Spectrum " x1="676.46" y1="891.37" x2="1323.54" y2="891.37" xlink:href="#Spectrum_"/>
    <linearGradient id="Spectrum_-52" data-name="Spectrum " x1="644.4" y1="897.46" x2="1355.6" y2="897.46" xlink:href="#Spectrum_"/>
    <linearGradient id="Spectrum_-53" data-name="Spectrum " x1="609.17" y1="904.29" x2="1390.83" y2="904.29" xlink:href="#Spectrum_"/>
    <linearGradient id="Spectrum_-54" data-name="Spectrum " x1="570.44" y1="911.97" x2="1429.56" y2="911.97" xlink:href="#Spectrum_"/>
    <linearGradient id="Spectrum_-55" data-name="Spectrum " x1="527.88" y1="920.6" x2="1472.12" y2="920.6" xlink:href="#Spectrum_"/>
    <linearGradient id="Spectrum_-56" data-name="Spectrum " x1="481.09" y1="930.3" x2="1518.91" y2="930.3" xlink:href="#Spectrum_"/>
    <linearGradient id="Spectrum_-57" data-name="Spectrum " x1="429.67" y1="941.19" x2="1570.33" y2="941.19" xlink:href="#Spectrum_"/>
    <linearGradient id="Spectrum_-58" data-name="Spectrum " x1="373.16" y1="953.43" x2="1626.84" y2="953.43" xlink:href="#Spectrum_"/>
    <linearGradient id="Spectrum_-59" data-name="Spectrum " x1="311.04" y1="967.18" x2="1688.96" y2="967.18" xlink:href="#Spectrum_"/>
    <linearGradient id="Spectrum_-60" data-name="Spectrum " x1="242.77" y1="982.64" x2="1757.23" y2="982.64" xlink:href="#Spectrum_"/>
    <linearGradient id="Spectrum_-61" data-name="Spectrum " x1="167.72" y1="1000" x2="1832.28" y2="1000" xlink:href="#Spectrum_"/>
  </defs>
  <path class="cls-21" d="M999.57,841.7l-2.36,1.08c-.19.09.05.2.43.2h4.72c.38,0,.62-.11.43-.2l-2.36-1.08c-.19-.09-.67-.09-.86,0Z"/>
  <path class="cls-47" d="M999.53,841.64l-2.59,1.21c-.21.1.05.22.47.22h5.18c.42,0,.68-.12.47-.22l-2.59-1.21c-.21-.1-.73-.1-.94,0Z"/>
  <path class="cls-45" d="M999.48,841.58l-2.85,1.36c-.23.11.06.25.52.25h5.7c.46,0,.75-.14.52-.25l-2.85-1.36c-.23-.11-.81-.11-1.04,0Z"/>
  <path class="cls-27" d="M999.43,841.51l-3.13,1.53c-.25.12.06.28.57.28h6.26c.51,0,.82-.15.57-.28l-3.13-1.53c-.25-.12-.89-.12-1.14,0Z"/>
  <path class="cls-1" d="M999.37,841.43l-3.44,1.72c-.28.14.07.31.63.31h6.88c.56,0,.9-.17.63-.31l-3.44-1.72c-.28-.14-.97-.14-1.25,0Z"/>
  <path class="cls-59" d="M999.31,841.34l-3.78,1.93c-.31.16.08.35.69.35h7.56c.61,0,.99-.2.69-.35l-3.78-1.93c-.31-.16-1.07-.16-1.38,0Z"/>
  <path class="cls-38" d="M999.24,841.23l-4.15,2.17c-.34.18.08.39.76.39h8.3c.67,0,1.09-.22.76-.39l-4.15-2.17c-.34-.18-1.18-.18-1.51,0Z"/>
  <path class="cls-57" d="M999.17,841.12l-4.56,2.43c-.37.2.09.44.83.44h9.13c.74,0,1.2-.25.83-.44l-4.56-2.43c-.37-.2-1.29-.2-1.66,0Z"/>
  <path class="cls-20" d="M999.09,840.99l-5.01,2.73c-.41.22.1.5.91.5h10.03c.81,0,1.32-.28.91-.5l-5.01-2.73c-.41-.22-1.42-.22-1.83,0Z"/>
  <path class="cls-58" d="M999,840.85l-5.51,3.07c-.45.25.11.56,1,.56h11.02c.89,0,1.45-.31,1-.56l-5.51-3.07c-.45-.25-1.56-.25-2.01,0Z"/>
  <path class="cls-56" d="M998.9,840.69l-6.06,3.45c-.49.28.12.63,1.1.63h12.11c.98,0,1.59-.35,1.1-.63l-6.06-3.45c-.49-.28-1.72-.28-2.21,0Z"/>
  <path class="cls-17" d="M998.79,840.5l-6.65,3.88c-.54.31.13.71,1.21.71h13.31c1.08,0,1.75-.39,1.21-.71l-6.65-3.88c-.54-.31-1.89-.31-2.42,0Z"/>
  <path class="cls-31" d="M998.67,840.3l-7.31,4.36c-.59.35.15.79,1.33.79h14.62c1.18,0,1.92-.44,1.33-.79l-7.31-4.36c-.59-.35-2.07-.35-2.66,0Z"/>
  <path class="cls-39" d="M998.54,840.07l-8.04,4.9c-.65.4.16.89,1.46.89h16.07c1.3,0,2.11-.5,1.46-.89l-8.04-4.9c-.65-.4-2.28-.4-2.93,0Z"/>
  <path class="cls-23" d="M998.39,839.81l-8.83,5.5c-.71.45.18,1,1.61,1h17.66c1.43,0,2.32-.56,1.61-1l-8.83-5.5c-.71-.45-2.5-.45-3.22,0Z"/>
  <path class="cls-13" d="M998.23,839.52l-9.7,6.18c-.79.5.2,1.13,1.77,1.13h19.41c1.57,0,2.55-.63,1.77-1.13l-9.7-6.18c-.79-.5-2.75-.5-3.54,0Z"/>
  <path class="cls-37" d="M998.06,839.2l-10.66,6.95c-.86.56.22,1.27,1.94,1.27h21.33c1.73,0,2.81-.7,1.94-1.27l-10.66-6.95c-.86-.56-3.02-.56-3.88,0Z"/>
  <path class="cls-24" d="M997.87,838.83l-11.72,7.81c-.95.63.24,1.42,2.13,1.42h23.44c1.9,0,3.08-.79,2.13-1.42l-11.72-7.81c-.95-.63-3.32-.63-4.27,0Z"/>
  <path class="cls-11" d="M997.65,838.42l-12.88,8.77c-1.04.71.26,1.6,2.35,1.6h25.75c2.09,0,3.39-.89,2.35-1.6l-12.88-8.77c-1.04-.71-3.65-.71-4.69,0Z"/>
  <path class="cls-12" d="M997.42,837.96l-14.15,9.85c-1.15.8.29,1.8,2.58,1.8h28.3c2.29,0,3.72-1,2.58-1.8l-14.15-9.85c-1.15-.8-4.01-.8-5.16,0Z"/>
  <path class="cls-48" d="M997.17,837.44l-15.55,11.07c-1.26.9.31,2.02,2.83,2.02h31.1c2.52,0,4.09-1.12,2.83-2.02l-15.55-11.07c-1.26-.9-4.41-.9-5.67,0Z"/>
  <path class="cls-49" d="M996.89,836.86l-17.09,12.44c-1.38,1.01.35,2.27,3.11,2.27h34.18c2.77,0,4.5-1.26,3.11-2.27l-17.09-12.44c-1.38-1.01-4.84-1.01-6.23,0Z"/>
  <path class="cls-25" d="M996.58,836.2l-18.78,13.98c-1.52,1.13.38,2.55,3.42,2.55h37.56c3.04,0,4.94-1.41,3.42-2.55l-18.78-13.98c-1.52-1.13-5.32-1.13-6.84,0Z"/>
  <path class="cls-30" d="M996.24,835.47l-20.63,15.71c-1.67,1.27.42,2.86,3.76,2.86h41.27c3.34,0,5.43-1.59,3.76-2.86l-20.63-15.71c-1.67-1.27-5.85-1.27-7.52,0Z"/>
  <path class="cls-16" d="M995.87,834.64l-22.68,17.65c-1.84,1.43.46,3.21,4.13,3.21h45.35c3.67,0,5.97-1.79,4.13-3.21l-22.68-17.65c-1.84-1.43-6.43-1.43-8.26,0Z"/>
  <path class="cls-43" d="M995.46,833.71l-24.92,19.83c-2.02,1.61.5,3.61,4.54,3.61h49.84c4.03,0,6.56-2.01,4.54-3.61l-24.92-19.83c-2.02-1.61-7.06-1.61-9.08,0Z"/>
  <path class="cls-55" d="M995.01,832.67l-27.38,22.28c-2.22,1.8.55,4.06,4.99,4.06h54.77c4.43,0,7.2-2.25,4.99-4.06l-27.38-22.28c-2.22-1.8-7.76-1.8-9.98,0Z"/>
  <path class="cls-60" d="M994.52,831.49l-30.09,25.03c-2.44,2.03.61,4.56,5.48,4.56h60.18c4.87,0,7.92-2.53,5.48-4.56l-30.09-25.03c-2.44-2.03-8.53-2.03-10.96,0Z"/>
  <path class="cls-32" d="M993.98,830.18l-33.07,28.13c-2.68,2.28.67,5.12,6.02,5.12h66.13c5.35,0,8.7-2.85,6.02-5.12l-33.07-28.13c-2.68-2.28-9.37-2.28-12.05,0Z"/>
  <path class="cls-46" d="M993.38,828.7l-36.34,31.6c-2.94,2.56.74,5.76,6.62,5.76h72.67c5.88,0,9.56-3.2,6.62-5.76l-36.34-31.6c-2.94-2.56-10.3-2.56-13.24,0Z"/>
  <path class="cls-7" d="M992.73,827.03l-39.93,35.51c-3.23,2.87.81,6.47,7.27,6.47h79.86c6.47,0,10.51-3.59,7.27-6.47l-39.93-35.51c-3.23-2.87-11.31-2.87-14.55,0Z"/>
  <path class="cls-53" d="M992.01,825.16l-43.88,39.9c-3.55,3.23.89,7.27,7.99,7.27h87.76c7.11,0,11.55-4.04,7.99-7.27l-43.88-39.9c-3.55-3.23-12.43-3.23-15.99,0Z"/>
  <path class="cls-19" d="M991.22,823.06l-48.22,44.83c-3.9,3.63.98,8.17,8.78,8.17h96.44c7.81,0,12.69-4.54,8.78-8.17l-48.22-44.83c-3.9-3.63-13.66-3.63-17.57,0Z"/>
  <path class="cls-54" d="M990.35,820.7l-52.99,50.37c-4.29,4.08,1.07,9.18,9.65,9.18h105.98c8.58,0,13.94-5.1,9.65-9.18l-52.99-50.37c-4.29-4.08-15.01-4.08-19.3,0Z"/>
  <path class="cls-36" d="M989.39,818.05l-58.23,56.59c-4.71,4.58,1.18,10.31,10.61,10.31h116.46c9.43,0,15.32-5.73,10.61-10.31l-58.23-56.59c-4.71-4.58-16.5-4.58-21.21,0Z"/>
  <path class="cls-33" d="M988.34,815.07l-63.99,63.59c-5.18,5.15,1.3,11.58,11.66,11.58h127.98c10.36,0,16.84-6.44,11.66-11.58l-63.99-63.59c-5.18-5.15-18.13-5.15-23.31,0Z"/>
  <path class="cls-5" d="M987.19,811.72l-70.32,71.45c-5.69,5.78,1.42,13.01,12.81,13.01h140.63c11.39,0,18.5-7.23,12.81-13.01l-70.32-71.45c-5.69-5.78-19.93-5.78-25.62,0Z"/>
  <path class="cls-10" d="M985.92,807.96l-77.27,80.28c-6.26,6.5,1.56,14.62,14.08,14.62h154.54c12.51,0,20.33-8.12,14.08-14.62l-77.27-80.28c-6.26-6.5-21.9-6.5-28.15,0Z"/>
  <path class="cls-14" d="M984.53,803.74l-84.91,90.2c-6.87,7.3,1.72,16.43,15.47,16.43h169.83c13.75,0,22.34-9.13,15.47-16.43l-84.91-90.2c-6.87-7.3-24.06-7.3-30.94,0Z"/>
  <path class="cls-26" d="M983,798.99l-93.31,101.35c-7.55,8.21,1.89,18.46,17,18.46h186.62c15.11,0,24.55-10.26,17-18.46l-93.31-101.35c-7.55-8.21-26.44-8.21-34,0Z"/>
  <path class="cls-61" d="M981.32,793.65l-102.54,113.88c-8.3,9.22,2.08,20.74,18.68,20.74h205.08c16.6,0,26.98-11.52,18.68-20.74l-102.54-113.88c-8.3-9.22-29.06-9.22-37.36,0Z"/>
  <path class="cls-28" d="M979.47,787.66l-112.68,127.95c-9.12,10.36,2.28,23.31,20.53,23.31h225.36c18.25,0,29.65-12.95,20.53-23.31l-112.68-127.95c-9.12-10.36-31.93-10.36-41.05,0Z"/>
  <path class="cls-4" d="M977.44,780.92l-123.83,143.76c-10.02,11.64,2.51,26.19,22.56,26.19h247.65c20.05,0,32.58-14.55,22.56-26.19l-123.83-143.76c-10.02-11.64-35.09-11.64-45.11,0Z"/>
  <path class="cls-44" d="M975.21,773.35l-136.07,161.53c-11.02,13.08,2.75,29.42,24.79,29.42h272.15c22.03,0,35.8-16.35,24.79-29.42l-136.07-161.53c-11.02-13.08-38.56-13.08-49.57,0Z"/>
  <path class="cls-18" d="M972.76,764.85l-149.53,181.5c-12.11,14.69,3.03,33.06,27.24,33.06h299.06c24.21,0,39.34-18.37,27.24-33.06l-149.53-181.5c-12.11-14.69-42.37-14.69-54.48,0Z"/>
  <path class="cls-42" d="M970.07,755.29l-164.32,203.93c-13.3,16.51,3.33,37.15,29.93,37.15h328.64c26.61,0,43.24-20.64,29.93-37.15l-164.32-203.93c-13.3-16.51-46.56-16.51-59.86,0Z"/>
  <path class="cls-6" d="M967.11,744.56l-180.57,229.13c-14.62,18.55,3.65,41.74,32.89,41.74h361.14c29.24,0,47.51-23.19,32.89-41.74l-180.57-229.13c-14.62-18.55-51.17-18.55-65.79,0Z"/>
  <path class="cls-35" d="M963.85,732.49l-198.43,257.45c-16.06,20.84,4.02,46.9,36.15,46.9h396.86c32.13,0,52.21-26.05,36.15-46.9l-198.43-257.45c-16.06-20.84-56.23-20.84-72.29,0Z"/>
  <path class="cls-3" d="M960.28,718.94l-218.06,289.27c-17.65,23.42,4.41,52.69,39.72,52.69h436.11c35.31,0,57.37-29.27,39.72-52.69l-218.06-289.27c-17.65-23.42-61.79-23.42-79.44,0Z"/>
  <path class="cls-34" d="M956.35,703.71l-239.62,325.03c-19.4,26.31,4.85,59.21,43.65,59.21h479.24c38.8,0,63.05-32.89,43.65-59.21l-239.62-325.03c-19.4-26.31-67.9-26.31-87.3,0Z"/>
  <path class="cls-29" d="M952.03,686.6l-263.32,365.2c-21.32,29.57,5.33,66.52,47.97,66.52h526.64c42.64,0,69.28-36.96,47.97-66.52l-263.32-365.2c-21.32-29.57-74.61-29.57-95.93,0Z"/>
  <path class="cls-8" d="M947.29,667.37l-289.36,410.34c-23.43,33.22,5.86,74.75,52.71,74.75h578.73c46.85,0,76.14-41.53,52.71-74.75l-289.36-410.34c-23.43-33.22-81.99-33.22-105.42,0Z"/>
  <path class="cls-41" d="M942.08,645.77l-317.98,461.05c-25.74,37.33,6.44,83.98,57.92,83.98h635.96c51.49,0,83.67-46.66,57.92-83.98l-317.98-461.05c-25.74-37.33-90.1-37.33-115.85,0Z"/>
  <path class="cls-22" d="M936.35,621.5l-349.43,518.04c-28.29,41.94,7.07,94.36,63.65,94.36h698.86c56.58,0,91.94-52.42,63.65-94.36l-349.43-518.04c-28.29-41.94-99.01-41.94-127.3,0Z"/>
  <path class="cls-51" d="M930.05,594.23l-383.99,582.06c-31.09,47.12,7.77,106.03,69.95,106.03h767.98c62.18,0,101.03-58.9,69.95-106.03l-383.99-582.06c-31.09-47.12-108.81-47.12-139.89,0Z"/>
  <path class="cls-15" d="M923.14,563.58l-421.97,654c-34.16,52.95,8.54,119.13,76.86,119.13h843.93c68.32,0,111.03-66.18,76.86-119.13l-421.97-654c-34.16-52.95-119.57-52.95-153.73,0Z"/>
  <path class="cls-52" d="M915.53,529.15l-463.7,734.84c-37.54,59.49,9.39,133.86,84.47,133.86h927.4c75.08,0,122.01-74.36,84.47-133.86l-463.7-734.84c-37.54-59.49-131.39-59.49-168.93,0Z"/>
  <path class="cls-9" d="M907.18,490.47l-509.56,825.66c-41.25,66.84,10.31,150.4,92.82,150.4h1019.12c82.51,0,134.07-83.56,92.82-150.4l-509.56-825.66c-41.25-66.84-144.39-66.84-185.64,0Z"/>
  <path class="cls-50" d="M898,447l-559.95,927.71c-45.33,75.11,11.33,168.99,102,168.99h1119.91c90.67,0,147.33-93.88,102-168.99l-559.95-927.71c-45.33-75.11-158.67-75.11-204,0Z"/>
  <path class="cls-40" d="M887.91,398.16L272.58,1440.53c-49.82,84.39,12.45,189.88,112.09,189.88h1230.67c99.63,0,161.91-105.49,112.09-189.88L1112.09,398.16c-49.82-84.39-174.36-84.39-224.18,0Z"/>
  <path class="cls-2" d="M876.83,343.29L200.63,1514.48c-54.74,94.82,13.69,213.34,123.17,213.34h1352.38c109.49,0,177.92-118.52,123.17-213.34L1123.17,343.29c-54.74-94.82-191.6-94.82-246.35,0Z"/>
</svg>