<svg width="120" height="120" viewBox="0 0 120 120" fill="none" xmlns="http://www.w3.org/2000/svg">
<path d="M60 119.231C93.1371 119.231 120 113.49 120 106.41V96.1536H96.0059C85.977 94.5434 73.5098 93.5894 60 93.5894C46.4902 93.5894 34.023 94.5434 23.9941 96.1536H0V106.41C0 113.49 26.8629 119.231 60 119.231Z" fill="#4BDB4B"/>
<path d="M60 108.974C93.1371 108.974 120 103.235 120 96.1543C120 89.0736 93.1371 83.3337 60 83.3337C26.8629 83.3337 0 89.0736 0 96.1543C0 103.235 26.8629 108.974 60 108.974Z" fill="#145E02"/>
<path fill-rule="evenodd" clip-rule="evenodd" d="M59.9999 8C87.614 8 110 30.3857 110 57.9999C110 73.2075 103.211 86.8295 92.4974 96C82 96 73.4065 95.9979 61 95.9979C48.5923 95.9979 41.5 96 27.5 95.9979C16.7884 86.8274 10 73.2064 10 57.9999C10 30.3857 32.3857 8 59.9999 8Z" fill="#2E3148"/>
<path fill-rule="evenodd" clip-rule="evenodd" d="M60.095 20.1746C81.0394 20.1746 98.0182 37.1534 98.0182 58.0977C98.0182 79.042 81.0394 96.0209 60.095 96.0209C39.1507 96.0209 22.1719 79.042 22.1719 58.0977C22.1719 37.1534 39.1507 20.1746 60.095 20.1746Z" fill="#1B1E36"/>
<path opacity="0.67" fill-rule="evenodd" clip-rule="evenodd" d="M60.785 16.5532C60.3878 16.1877 60.1828 16.1808 60.1483 16.1808C60.1139 16.1808 59.9089 16.1877 59.5118 16.5532C59.1041 16.9284 58.6167 17.5758 58.0916 18.5747C57.0434 20.5685 56.0403 23.5821 55.1755 27.4706C54.2033 31.8434 53.435 37.1882 52.9503 43.1713C55.2914 44.3041 57.6988 45.5356 60.1478 46.8579C62.5971 45.5354 65.0049 44.3037 67.3464 43.1707C66.8617 37.1879 66.0934 31.8433 65.1212 27.4706C64.2565 23.5821 63.2533 20.5685 62.2052 18.5747C61.6801 17.5758 61.1927 16.9284 60.785 16.5532ZM58.0988 47.9803C56.3003 47.0247 54.5285 46.1207 52.7936 45.2714C52.6621 47.1975 52.5597 49.183 52.4885 51.2174C53.4061 50.6679 54.3371 50.1205 55.2806 49.5761C56.2241 49.0317 57.1639 48.4996 58.0988 47.9803ZM51.0615 42.272C52.4665 25.8654 56.0051 14.2239 60.1483 14.2239C64.2915 14.2239 67.8302 25.8651 69.2352 42.2715C84.1546 35.2846 96.0116 32.5267 98.0833 36.1126C100.155 39.6985 91.8362 48.5817 78.3218 58.0009C91.8362 67.42 100.155 76.3032 98.0833 79.8891C96.0116 83.475 84.1546 80.7172 69.2352 73.7302C68.4272 83.1654 66.9135 91.0246 64.985 96C61 96 61.9088 96 60.1483 96C58.3879 96 60 96 55.3117 96C53.3832 91.0245 51.8695 83.1651 51.0615 73.7298C36.1416 80.717 24.2839 83.4751 22.2122 79.8891C20.1406 76.3032 28.4592 67.42 41.9738 58.0009C28.4592 48.5817 20.1406 39.6986 22.2122 36.1126C24.2839 32.5266 36.1416 35.2848 51.0615 42.272ZM43.6982 56.8154C38.7554 53.4041 34.5075 50.0664 31.2041 47.0383C28.2666 44.3456 26.1567 41.9704 24.9529 40.0664C24.3499 39.1124 24.0327 38.3669 23.9115 37.8267C23.7934 37.3006 23.8899 37.1205 23.9067 37.0915C23.9235 37.0623 24.0318 36.8883 24.5474 36.7273C25.0766 36.5619 25.8816 36.4638 27.01 36.5087C29.2622 36.5984 32.3756 37.237 36.1777 38.433C40.4534 39.7779 45.4692 41.7854 50.8963 44.3574C50.7075 46.9496 50.571 49.6486 50.4924 52.4289C48.1217 53.8874 45.8506 55.3554 43.6982 56.8154ZM43.6982 59.1863C38.7554 62.5977 34.5075 65.9353 31.2041 68.9635C28.2666 71.6562 26.1567 74.0313 24.9529 75.9354C24.3499 76.8893 24.0327 77.6348 23.9115 78.175C23.7934 78.7011 23.8899 78.8812 23.9067 78.9102C23.9234 78.9394 24.0316 79.1133 24.5474 79.2745C25.0766 79.4398 25.8816 79.538 27.01 79.493C29.2622 79.4032 32.3756 78.7647 36.1777 77.5687C40.4534 76.2238 45.4692 74.2163 50.8963 71.6443C50.7075 69.052 50.571 66.3531 50.4924 63.5728C48.1217 62.1143 45.8506 60.6464 43.6982 59.1863ZM50.4406 61.2384C48.7128 60.1595 47.0433 59.0779 45.4396 58.0009C47.0433 56.9238 48.7128 55.8422 50.4406 54.7633C50.4232 55.8324 50.4143 56.912 50.4143 58.0009C50.4143 59.0898 50.4232 60.1694 50.4406 61.2384ZM52.4215 62.4586C52.3882 60.994 52.3712 59.5069 52.3712 58.0009C52.3712 56.4949 52.3882 55.0077 52.4215 53.5431C53.6739 52.7821 54.9538 52.0239 56.2586 51.2711C57.564 50.5179 58.8616 49.7889 60.1478 49.0852C61.4339 49.7889 62.7315 50.5179 64.0369 51.2711C65.3421 52.0242 66.6225 52.7827 67.8752 53.5439C67.9084 55.0082 67.9256 56.4952 67.9256 58.0009C67.9256 59.5066 67.9084 60.9935 67.8752 62.4579C66.6225 63.2191 65.3421 63.9776 64.0369 64.7307C62.7315 65.4839 61.4339 66.2128 60.1478 66.9165C58.8616 66.2128 57.564 65.4839 56.2587 64.7307C54.9538 63.9779 53.6739 63.2197 52.4215 62.4586ZM52.4885 64.7844C52.5597 66.8188 52.6621 68.8042 52.7936 70.7304C54.5285 69.8811 56.3003 68.977 58.0988 68.0215C57.1639 67.5021 56.2241 66.97 55.2806 66.4256C54.3371 65.8812 53.4061 65.3339 52.4885 64.7844ZM60.1478 69.1438C57.6988 70.4662 55.2914 71.6976 52.9503 72.8304C53.435 78.8135 54.2033 84.1583 55.1755 88.5311C56.0403 92.4197 56.374 94.0062 57.4222 96C58.6076 96 58.3535 96 59 96C60 96 60.1139 96 60.1483 96C60.1828 96 60.5 96 61 96C61.5 96 61.5 96 62 96C62.5 96 61.8337 96 62.6937 96C63.5522 94.096 64.4425 91.5831 65.1212 88.5311C66.0934 84.1584 66.8617 78.8138 67.3464 72.831C65.0049 71.698 62.5971 70.4664 60.1478 69.1438ZM69.4004 71.6449C74.827 74.2166 79.8424 76.2239 84.1177 77.5687C87.9199 78.7647 91.0333 79.4032 93.2855 79.493C94.4138 79.538 95.2188 79.4398 95.7481 79.2745C96.2639 79.1133 96.372 78.9394 96.3888 78.9102C96.4055 78.8813 96.5021 78.7013 96.384 78.175C96.2628 77.6348 95.9456 76.8893 95.3425 75.9354C94.1388 74.0313 92.0289 71.6562 89.0914 68.9635C85.788 65.9353 81.5401 62.5977 76.5974 59.1863C74.4453 60.6461 72.1745 62.1138 69.8044 63.572C69.7258 66.3528 69.5893 69.0522 69.4004 71.6449ZM76.5974 56.8154C81.5401 53.4041 85.788 50.0664 89.0914 47.0383C92.0289 44.3456 94.1388 41.9704 95.3425 40.0664C95.9456 39.1124 96.2628 38.3669 96.384 37.8267C96.5021 37.3004 96.4055 37.1204 96.3888 37.0915C96.372 37.0624 96.2639 36.8884 95.7481 36.7273C95.2188 36.5619 94.4138 36.4638 93.2855 36.5087C91.0333 36.5984 87.9199 37.237 84.1177 38.433C79.8424 39.7778 74.827 41.7851 69.4004 44.3568C69.5893 46.9495 69.7258 49.6489 69.8044 52.4296C72.1745 53.8879 74.4453 55.3557 76.5974 56.8154ZM69.8562 54.7641C71.5834 55.8427 73.2526 56.9241 74.8558 58.0009C73.2526 59.0776 71.5834 60.159 69.8562 61.2376C69.8735 60.1689 69.8824 59.0895 69.8824 58.0009C69.8824 56.9123 69.8735 55.8328 69.8562 54.7641ZM67.8082 51.2181C67.7371 49.1833 67.6346 47.1974 67.5031 45.2708C65.7678 46.1203 63.9956 47.0245 62.1967 47.9803C63.1316 48.4996 64.0714 49.0317 65.0148 49.5761C65.9588 50.1207 66.8903 50.6684 67.8082 51.2181ZM67.5031 70.7309C65.7678 69.8815 63.9956 68.9773 62.1967 68.0215C63.1316 67.5021 64.0714 66.97 65.0148 66.4256C65.9588 65.881 66.8903 65.3334 67.8082 64.7836C67.7371 66.8185 67.6346 68.8043 67.5031 70.7309Z" fill="white"/>
<path fill-rule="evenodd" clip-rule="evenodd" d="M32.1668 45.7449C33.8671 45.7449 35.2453 47.1238 35.2453 48.8247C35.2453 50.5257 33.8671 51.9046 32.1668 51.9046C30.4667 51.9046 29.0885 50.5257 29.0885 48.8247C29.0885 47.1238 30.4667 45.7449 32.1668 45.7449Z" fill="white"/>
<path fill-rule="evenodd" clip-rule="evenodd" d="M81.093 35.1926C82.7939 35.1926 84.1729 36.5715 84.1729 38.2726C84.1729 39.9736 82.7939 41.3525 81.093 41.3525C79.392 41.3525 78.0131 39.9736 78.0131 38.2726C78.0131 36.5715 79.392 35.1926 81.093 35.1926Z" fill="white"/>
<path fill-rule="evenodd" clip-rule="evenodd" d="M53.9446 83.5364C55.6456 83.5364 57.0245 84.9146 57.0245 86.6148C57.0245 88.315 55.6456 89.6932 53.9446 89.6932C52.2435 89.6932 50.8646 88.315 50.8646 86.6148C50.8646 84.9146 52.2435 83.5364 53.9446 83.5364Z" fill="white"/>
<path fill-rule="evenodd" clip-rule="evenodd" d="M59.9762 52.7629C62.856 52.7629 65.1906 55.0976 65.1906 57.9774C65.1906 60.8572 62.856 63.1917 59.9762 63.1917C57.0964 63.1917 54.7617 60.8572 54.7617 57.9774C54.7617 55.0976 57.0964 52.7629 59.9762 52.7629Z" fill="white"/>
</svg>
