<svg width="64" height="64" viewBox="0 0 64 64" fill="none" xmlns="http://www.w3.org/2000/svg">
<circle cx="32" cy="32" r="32" fill="#00E676"/>
<path d="M54 28.6917L50.5905 30.1493C51.8649 18.9056 43.0807 12.0535 43.0807 12.0535L42.1825 14.8462C32.0003 7.15547 20.5128 13.2463 20.1387 14.086C20.1387 14.086 37.1941 13.35 41.2237 25.9476C43.4735 32.9796 39.9868 38.3851 36.6424 40.4971C28.6714 45.5319 22.8708 41.6876 21.9318 40.7972C20.0899 39.1532 18.9568 36.8593 18.7705 34.3975C18.5885 25.7832 27.9188 24.0652 27.9188 24.0652C25.2743 23.1668 22.4128 23.1315 19.7469 23.9644C17.081 24.7973 14.7485 26.4554 13.0858 28.6995C5.29905 38.4249 14.7045 49.4744 14.7045 49.4744L15.6611 46.6827C25.3369 58.0478 42.8589 50.4178 42.8589 50.4178L40.3067 48.6126C44.0956 46.7315 47.3417 43.9147 49.7379 40.4287C52.1341 36.9427 53.601 32.903 54 28.6917Z" fill="url(#paint0_linear_1592_264)"/>
<g style="mix-blend-mode:soft-light" opacity="0.8">
<path d="M11.1731 31.7822C11.6791 30.6764 12.3218 29.6384 13.0863 28.6927C14.7491 26.4486 17.0816 24.7906 19.7475 23.9577C22.4134 23.1247 25.2749 23.16 27.9194 24.0584C27.9194 24.0584 15.6617 22.2709 10.0255 36.4165C10.1203 34.8144 10.5094 33.2434 11.1731 31.7822Z" fill="url(#paint1_linear_1592_264)"/>
</g>
<g style="mix-blend-mode:soft-light" opacity="0.8">
<path d="M15.6607 46.6771C25.3364 58.0422 42.8585 50.4121 42.8585 50.4121C42.8585 50.4121 23.4386 55.3201 16.6935 43.6659L15.6607 46.6771Z" fill="url(#paint2_linear_1592_264)"/>
</g>
<g style="mix-blend-mode:soft-light" opacity="0.8">
<path d="M50.5895 30.1492C51.8639 18.9055 43.0797 12.0533 43.0797 12.0533C45.1088 14.7921 46.5737 17.9066 47.3893 21.2161C48.205 24.5255 48.3551 27.9641 47.831 31.332L50.5895 30.1492Z" fill="url(#paint3_linear_1592_264)"/>
</g>
<g style="mix-blend-mode:soft-light" opacity="0.8">
<path d="M42.1807 14.8417C31.9985 7.15095 20.511 13.2417 20.1369 14.0814C20.1369 14.0814 31.7558 8.1981 41.2329 17.7889L42.1807 14.8417Z" fill="url(#paint4_linear_1592_264)"/>
</g>
<g style="mix-blend-mode:soft-light" opacity="0.8">
<path d="M40.306 48.6069C44.0941 46.7263 47.3397 43.9103 49.7358 40.4254C52.132 36.9405 53.5994 32.9019 53.9993 28.6916C53.9993 28.6916 49.227 42.8151 37.2054 46.4145L40.306 48.6069Z" fill="url(#paint5_linear_1592_264)"/>
</g>
<defs>
<linearGradient id="paint0_linear_1592_264" x1="16.5025" y1="50.6652" x2="50.4199" y2="15.5521" gradientUnits="userSpaceOnUse">
<stop stop-color="#1D252D"/>
<stop offset="1" stop-color="#394D60" stop-opacity="0.23"/>
</linearGradient>
<linearGradient id="paint1_linear_1592_264" x1="12.6699" y1="35.7128" x2="22.78" y2="22.049" gradientUnits="userSpaceOnUse">
<stop stop-color="#1D252D"/>
<stop offset="1" stop-color="#394D60" stop-opacity="0.23"/>
</linearGradient>
<linearGradient id="paint2_linear_1592_264" x1="19.6801" y1="52.42" x2="24.2981" y2="39.0311" gradientUnits="userSpaceOnUse">
<stop stop-color="#1D252D"/>
<stop offset="1" stop-color="#394D60" stop-opacity="0.23"/>
</linearGradient>
<linearGradient id="paint3_linear_1592_264" x1="44.2082" y1="30.2932" x2="54.7885" y2="26.1598" gradientUnits="userSpaceOnUse">
<stop stop-color="#1D252D"/>
<stop offset="1" stop-color="#394D60" stop-opacity="0.23"/>
</linearGradient>
<linearGradient id="paint4_linear_1592_264" x1="23.3946" y1="17.4231" x2="26.5221" y2="7.40704" gradientUnits="userSpaceOnUse">
<stop stop-color="#1D252D"/>
<stop offset="1" stop-color="#394D60" stop-opacity="0.23"/>
</linearGradient>
<linearGradient id="paint5_linear_1592_264" x1="39.6873" y1="47.5337" x2="55.5406" y2="34.3482" gradientUnits="userSpaceOnUse">
<stop stop-color="#1D252D"/>
<stop offset="1" stop-color="#394D60" stop-opacity="0.23"/>
</linearGradient>
</defs>
</svg>
