<svg width="64" height="64" viewBox="0 0 64 64" fill="none" xmlns="http://www.w3.org/2000/svg">
<circle cx="32" cy="32" r="32" fill="black"/>
<path d="M53.9328 28.7269L50.5231 30.1845C51.7976 18.9404 43.0131 12.088 43.0131 12.088L42.1149 14.8808C31.9322 7.18977 20.4442 13.2808 20.0702 14.1205C20.0702 14.1205 37.1262 13.3845 41.156 25.9826C43.4059 33.0149 39.919 38.4207 36.5745 40.5327C28.6031 45.5677 22.8023 41.7233 21.8633 40.8328C20.0213 39.1887 18.8882 36.8948 18.7019 34.4328C18.5198 25.8182 27.8506 24.1001 27.8506 24.1001C25.2059 23.2017 22.3443 23.1665 19.6783 23.9994C17.0123 24.8323 14.6798 26.4904 13.0169 28.7346C5.2299 38.4604 14.6357 49.5103 14.6357 49.5103L15.5924 46.7186C25.2685 58.0841 42.7913 50.4538 42.7913 50.4538L40.239 48.6485C44.0279 46.7674 47.2742 43.9504 49.6705 40.4643C52.0668 36.9782 53.5338 32.9383 53.9328 28.7269Z" fill="#00E676"/>
<g style="mix-blend-mode:soft-light" opacity="0.8">
<path d="M11.1036 31.817C11.6096 30.7111 12.2524 29.6731 13.0169 28.7273C14.6797 26.4832 17.0123 24.8251 19.6783 23.9921C22.3443 23.1592 25.2059 23.1945 27.8506 24.0929C27.8506 24.0929 15.5924 22.3053 9.95596 36.4515C10.0508 34.8493 10.4398 33.2783 11.1036 31.817Z" fill="black"/>
</g>
<g style="mix-blend-mode:soft-light" opacity="0.8">
<path d="M15.5924 46.7139C25.2685 58.0794 42.7913 50.4491 42.7913 50.4491C42.7913 50.4491 23.3706 55.3572 16.6252 43.7026L15.5924 46.7139Z" fill="black"/>
</g>
<g style="mix-blend-mode:soft-light" opacity="0.8">
<path d="M50.5231 30.1828C51.7976 18.9386 43.0131 12.0862 43.0131 12.0862C45.0422 14.8251 46.5072 17.9397 47.3228 21.2493C48.1385 24.5589 48.2886 27.9976 47.7645 31.3657L50.5231 30.1828Z" fill="black"/>
</g>
<g style="mix-blend-mode:soft-light" opacity="0.8">
<path d="M42.1138 14.8764C31.9312 7.18537 20.4432 13.2764 20.0691 14.1161C20.0691 14.1161 31.6884 8.23257 41.1659 17.8237L42.1138 14.8764Z" fill="black"/>
</g>
<g style="mix-blend-mode:soft-light" opacity="0.8">
<path d="M40.2379 48.6403C44.0262 46.7596 47.2719 43.9435 49.6681 40.4584C52.0644 36.9734 53.5319 32.9346 53.9317 28.7242C53.9317 28.7242 49.1593 42.8483 37.1373 46.4477L40.2379 48.6403Z" fill="black"/>
</g>
</svg>
