<svg xmlns="http://www.w3.org/2000/svg" viewBox="0 0 80 80">
  <defs>
    <linearGradient id="bbf8c15c-7ee5-4450-ba7b-5a47080c8c76" x1="17.336" x2="80" y1="74.339" y2="74.339" gradientUnits="userSpaceOnUse">
      <stop offset="0" stop-color="#700000"/>
      <stop offset=".327" stop-color="#730000"/>
      <stop offset=".59" stop-color="#7d0000"/>
      <stop offset=".83" stop-color="#8e0000"/>
      <stop offset="1" stop-color="#9f0000"/>
    </linearGradient>
    <linearGradient id="eb381b39-e05a-4191-952a-0cb96c350420" x1="48.668" x2="48.668" y1="68.69" y2="80" gradientUnits="userSpaceOnUse">
      <stop offset=".35" stop-color="#cf2000"/>
      <stop offset=".645" stop-color="#cd1f00"/>
      <stop offset=".752" stop-color="#c61d00"/>
      <stop offset=".828" stop-color="#bb1900"/>
      <stop offset=".889" stop-color="#aa1300"/>
      <stop offset=".941" stop-color="#940c00"/>
      <stop offset=".987" stop-color="#790300"/>
      <stop offset="1" stop-color="#700000"/>
    </linearGradient>
    <linearGradient id="b7cc7b29-54f7-42ca-a0bf-8674b463b565" x1="17.336" x2="80" y1="55.314" y2="55.314" gradientUnits="userSpaceOnUse">
      <stop offset="0" stop-color="#cf2000"/>
      <stop offset=".021" stop-color="#d12201"/>
      <stop offset=".244" stop-color="#e23309"/>
      <stop offset=".487" stop-color="#ec3d0e"/>
      <stop offset=".791" stop-color="#ef4010"/>
      <stop offset=".841" stop-color="#ec3d0f"/>
      <stop offset=".882" stop-color="#e2330d"/>
      <stop offset=".919" stop-color="#d12208"/>
      <stop offset=".954" stop-color="#b90a03"/>
      <stop offset=".966" stop-color="#af0000"/>
      <stop offset="1" stop-color="#ef4010"/>
    </linearGradient>
    <linearGradient id="a3675e1b-35cc-4b6d-9081-1330c430a63b" x1="17.336" x2="80" y1="56.152" y2="56.152" gradientUnits="userSpaceOnUse">
      <stop offset="0" stop-color="#dfdfdf"/>
      <stop offset=".021" stop-color="#e1e1e1"/>
      <stop offset=".244" stop-color="#f2f2f2"/>
      <stop offset=".487" stop-color="#fcfcfc"/>
      <stop offset=".791" stop-color="#fff"/>
      <stop offset=".841" stop-color="#fcfcfc"/>
      <stop offset=".882" stop-color="#f2f2f2"/>
      <stop offset=".919" stop-color="#e1e1e1"/>
      <stop offset=".954" stop-color="#c9c9c9"/>
      <stop offset=".966" stop-color="#bfbfbf"/>
      <stop offset="1" stop-color="#fff"/>
    </linearGradient>
  </defs>
  <path fill="#0e3ca5" d="M32.585 59.26c2 7.4 9.176 13.045 12.8 12.811.127-.008 13.745-2.547 21.2-15 5.8-9.693 3.826-19.05-4.064-19.255-2.839.208-33.745 7.349-29.934 21.446m29.198-47.527-.008-.007.011-.006a34.626 34.626 0 0 0-36.5-5.267A20.236 20.236 0 0 0 23.1 7.53c-.486.258-.972.516-1.444.8l.115.035a15.78 15.78 0 0 0-3.655 3.46C8.172 24.953 41.486 34.5 59.3 34.528c8.191 5.883 10.491-16.561 2.485-22.793Z"/>
  <path fill="#5493f7" d="M27.3 12C22.723 18.88 7.478 23.727 4.971 22.972l-.017-.032q.155-.311.313-.619a36.682 36.682 0 0 1 10.87-12.683q1.407-1.03 2.913-1.928a10.8 10.8 0 0 1 5.04-1.343c6.789.13 3.244 5.58 3.207 5.635m-3.753 48.611c.329 2.161-.008 10.7-.45 11.418-.381.023-1.174.072-3.471-1.217A36.541 36.541 0 0 1 3.054 27.558q.183-.55.383-1.093c2.631 3.5 5.676 6.666 8.264 10.2 2.465 3.366 5.856 8.852 6.546 10.024 4.284 7.278 4.967 11.767 5.294 13.925m50.648-21.52A36.4 36.4 0 0 1 71.648 52.5c-4.3 4.62-33.283-6.753-33.567-6.877C34.116 43.886 22.05 38.6 20.961 30.3 19.4 18.35 43.63 10.027 54.28 9.711c1.277.015 5.163.06 7.429 1.9a36.415 36.415 0 0 1 12.48 27.483M54.568 71.467c-3.16 1.474-6.638.4-5.734-2.677 1.735-5.909 16.886-11.967 20.232-12.3.413-.041.588.24.405.561a36.866 36.866 0 0 1-14.9 14.411"/>
  <path fill="url(#bbf8c15c-7ee5-4450-ba7b-5a47080c8c76)" d="M17.336 77.254a2.551 2.551 0 0 0 2.328 2.713c30.7.211 60.336-1.2 60.336-5.8 0-13.923-62.664 3.087-62.664 3.087Z"/>
  <path fill="url(#eb381b39-e05a-4191-952a-0cb96c350420)" d="M17.336 77.254a2.55 2.55 0 0 0 2.34 2.714c30.692.233 60.287-.731 60.324-5.8 0-13.924-62.664 3.086-62.664 3.086Zm2.342 2.537a2.194 2.194 0 0 1-.245-.014 2.4 2.4 0 0 1-1.987-1.763 2.368 2.368 0 0 0 2.229 1.761c30.67-.192 59.844-9.635 59.844-5.477 0 4.244-29.171 5.702-59.841 5.493Z"/>
  <path fill="url(#b7cc7b29-54f7-42ca-a0bf-8674b463b565)" d="M19.68 37.823a2.343 2.343 0 0 0-2.344 2.343v37.088a2.344 2.344 0 0 0 2.328 2.346C50.363 79.37 80.038 69.209 80 74.169V32.394c.038-4.961-29.627 5.198-60.32 5.429Z"/>
  <path fill="url(#a3675e1b-35cc-4b6d-9081-1330c430a63b)" d="M55.86 51.133c-.942.159-1.957.325-3.179.518v-9.14l-2.737.426c-.815.125-1.564.244-2.372.362s-1.681.242-2.73.383v9.138a292.315 292.315 0 0 1-5.976.732c-.949.104-1.97.213-3.193.332v7.833a209.66 209.66 0 0 0 5.97-.657 265.12 265.12 0 0 0 3.194-.407v9.14c1.048-.139 1.921-.264 2.733-.382s1.562-.239 2.376-.364 1.684-.259 2.731-.424v-9.139c1.222-.192 2.237-.357 3.18-.517s1.821-.313 2.769-.475 1.962-.337 3.179-.549V50.11c-1.218.21-2.233.386-3.18.548s-1.825.317-2.765.475Z"/>
</svg>
