<svg width="27" height="27" viewBox="0 0 27 27" fill="none" xmlns="http://www.w3.org/2000/svg">
<path d="M13.5 26.6707C20.9558 26.6707 27 20.774 27 13.5C27 6.22601 20.9558 0.329268 13.5 0.329268C6.04416 0.329268 0 6.22601 0 13.5C0 20.774 6.04416 26.6707 13.5 26.6707Z" fill="url(#paint0_linear_1263_792)"/>
<path d="M7.42626 13.639C7.4372 13.4978 7.4457 13.3555 7.46028 13.2143C7.51746 12.6448 7.66096 12.0955 7.88472 11.5675C8.22526 10.7631 8.72746 10.0678 9.37931 9.47581C9.41333 9.445 9.44863 9.41536 9.48387 9.38448C9.52281 9.3501 9.56655 9.33699 9.61765 9.35721C9.66875 9.37736 9.69062 9.41655 9.69305 9.46752C9.70641 9.74397 9.73807 10.0181 9.79153 10.2897C9.98613 11.2745 10.4106 12.1595 11.0271 12.958C11.6875 13.8134 12.5058 14.4897 13.4654 15.007C14.2266 15.4186 15.0353 15.7046 15.8914 15.8624C16.2891 15.9359 16.6917 15.9763 17.0966 15.987C17.7472 16.0047 18.3893 15.9395 19.0217 15.7888C19.0751 15.7758 19.1275 15.7746 19.1664 15.8209C19.2041 15.8659 19.2004 15.9134 19.1798 15.9656C18.9305 16.5944 18.5814 17.1639 18.1327 17.6753C17.5879 18.2969 16.9385 18.7905 16.1857 19.1512C15.5704 19.4466 14.9222 19.6328 14.2412 19.7124C13.3328 19.8179 12.4439 19.7337 11.578 19.449C10.5832 19.1215 9.732 18.5769 9.02419 17.8224C8.32739 17.0809 7.85313 16.2219 7.60257 15.2466C7.50288 14.8587 7.4457 14.4648 7.43112 14.065C7.43112 14.0495 7.42748 14.0341 7.42505 14.0187C7.42626 13.8917 7.42626 13.766 7.42626 13.639Z" fill="#1A1B2A"/>
<path d="M13.6953 7.90244C13.8401 7.91311 13.986 7.9214 14.1306 7.93563C14.7412 7.99378 15.3285 8.14327 15.8916 8.37935C16.609 8.67839 17.2427 9.09834 17.7947 9.63702C18.449 10.2753 18.9306 11.0203 19.237 11.8722C19.3562 12.202 19.4401 12.5414 19.5009 12.8855C19.5058 12.9103 19.5046 12.9364 19.5058 12.9614C19.4912 12.959 19.4875 12.946 19.4827 12.9364C19.4207 12.7917 19.3112 12.6909 19.1774 12.6102C18.9354 12.4643 18.674 12.3587 18.4125 12.2531C17.9164 12.0525 17.4117 11.871 16.9082 11.6895C16.7891 11.6468 16.6723 11.597 16.5495 11.5661H16.5507C16.547 11.5626 16.5421 11.5578 16.5385 11.5543C15.5134 11.1912 14.487 10.8294 13.4619 10.4651C12.8757 10.2575 12.3017 10.025 11.7642 9.71295C11.5173 9.56939 11.2802 9.41161 11.0941 9.19093C11.0187 9.1019 10.9579 9.00463 10.9372 8.88833C10.9044 8.69025 11.0029 8.55024 11.1537 8.43631C11.3434 8.29157 11.5647 8.20971 11.7909 8.14208C12.1825 8.02466 12.5838 7.95585 12.9924 7.92378C13.0934 7.91548 13.1943 7.90955 13.294 7.90244C13.4278 7.90244 13.5616 7.90244 13.6953 7.90244Z" fill="#1A1B2A"/>
<path d="M16.5491 11.5651C16.6731 11.5959 16.7898 11.6458 16.9078 11.6884C17.4113 11.8712 17.9159 12.0515 18.4121 12.252C18.6736 12.3576 18.9351 12.4632 19.177 12.6091C19.3108 12.6898 19.4202 12.7906 19.4823 12.9354C19.4871 12.946 19.4896 12.958 19.5054 12.9603C19.5017 12.9746 19.5029 12.9864 19.5151 12.9971C19.5455 13.1643 19.5577 13.334 19.5674 13.5025C19.5917 13.9237 19.5698 14.3425 19.5029 14.7577C19.4835 14.7637 19.475 14.7506 19.4641 14.7423C18.9679 14.3722 18.4693 14.0032 18.0096 13.5891C17.3869 13.0303 16.8823 12.3896 16.5649 11.6172C16.5551 11.603 16.5381 11.5876 16.5491 11.5651Z" fill="#1A1B2A" fill-opacity="0.6"/>
<path d="M19.5125 12.998C19.5004 12.9885 19.4991 12.9755 19.5028 12.9613C19.5174 12.9719 19.5137 12.985 19.5125 12.998Z" fill="#FED73F"/>
<path d="M16.5382 11.5542C16.5419 11.5577 16.5455 11.5625 16.5504 11.566C16.5382 11.5696 16.5394 11.5589 16.5382 11.5542Z" fill="#FE6F03"/>
<defs>
<linearGradient id="paint0_linear_1263_792" x1="13.5" y1="0.329268" x2="13.5" y2="26.6707" gradientUnits="userSpaceOnUse">
<stop stop-color="#FFE978"/>
<stop offset="1" stop-color="#A2E65A"/>
</linearGradient>
</defs>
</svg>
