<svg width="35" height="35" viewBox="0 0 35 35" fill="none" xmlns="http://www.w3.org/2000/svg">
  <g clip-path="url(#clip0_1028_656)">
    <path
      d="M17.1983 34.1463C26.6966 34.1463 34.3966 26.5024 34.3966 17.0732C34.3966 7.64392 26.6966 0 17.1983 0C7.69993 0 0 7.64392 0 17.0732C0 26.5024 7.69993 34.1463 17.1983 34.1463Z"
      fill="#EDA774" />
    <path
      d="M24.8579 16.8493C24.8425 16.837 24.8409 16.8201 24.8456 16.8016C24.8641 16.8155 24.8595 16.8324 24.8579 16.8493Z"
      fill="#FED73F" />
    <path
      d="M21.0687 14.9776C21.0734 14.9822 21.078 14.9884 21.0842 14.993C21.0687 14.9976 21.0703 14.9837 21.0687 14.9776Z"
      fill="#FE6F03" />
    <path fill-rule="evenodd" clip-rule="evenodd"
      d="M25 17C25 21.4183 21.4183 25 17 25C12.5817 25 9 21.4183 9 17C9 12.5817 12.5817 9 17 9C21.4183 9 25 12.5817 25 17ZM14.733 20.1836H13.1805C12.8542 20.1836 12.6931 20.1836 12.5948 20.1207C12.4887 20.0519 12.4238 19.9379 12.416 19.8121C12.4101 19.6962 12.4906 19.5547 12.6518 19.2717L16.4853 12.5146C16.6484 12.2277 16.731 12.0842 16.8351 12.0312C16.9471 11.9742 17.0808 11.9742 17.1928 12.0312C17.297 12.0842 17.3795 12.2277 17.5426 12.5146L18.3307 13.8903L18.3347 13.8973C18.5109 14.2052 18.6002 14.3613 18.6393 14.5251C18.6825 14.7039 18.6825 14.8926 18.6393 15.0715C18.5999 15.2365 18.5115 15.3938 18.3327 15.7062L16.319 19.2658L16.3138 19.2749C16.1365 19.5853 16.0466 19.7426 15.922 19.8613C15.7864 19.991 15.6233 20.0853 15.4445 20.1384C15.2813 20.1836 15.0986 20.1836 14.733 20.1836ZM18.6538 20.1836H20.8785C21.2067 20.1836 21.3718 20.1836 21.4701 20.1188C21.5762 20.05 21.643 19.934 21.6489 19.8083C21.6546 19.6961 21.5758 19.5601 21.4213 19.2935C21.416 19.2845 21.4107 19.2752 21.4052 19.2658L20.2909 17.3595L20.2782 17.3381C20.1216 17.0733 20.0426 16.9395 19.941 16.8879C19.8291 16.8308 19.6973 16.8308 19.5853 16.8879C19.4831 16.9409 19.4006 17.0804 19.2375 17.3615L18.1271 19.2678L18.1233 19.2744C17.9607 19.555 17.8795 19.6952 17.8854 19.8102C17.8932 19.936 17.9581 20.0519 18.0642 20.1207C18.1605 20.1836 18.3256 20.1836 18.6538 20.1836Z"
      fill="black" />
  </g>
  <defs>
    <clipPath id="clip0_1028_656">
      <rect width="34.3966" height="35" fill="white" />
    </clipPath>
  </defs>
</svg>