<svg xmlns="http://www.w3.org/2000/svg" xmlns:xlink="http://www.w3.org/1999/xlink" viewBox="0 0 80 80">
  <defs>
    <linearGradient id="e7cd2a00-2e26-4851-bc48-703e1e134589" x1="17.337" x2="80" y1="74.339" y2="74.339" gradientUnits="userSpaceOnUse">
      <stop offset="0" stop-color="#700000"/>
      <stop offset=".327" stop-color="#730000"/>
      <stop offset=".59" stop-color="#7d0000"/>
      <stop offset=".83" stop-color="#8e0000"/>
      <stop offset="1" stop-color="#9f0000"/>
    </linearGradient>
    <linearGradient id="ef7dd267-8826-4ab3-bb1d-c97520b77ed5" x1="48.669" x2="48.669" y1="68.69" y2="80" gradientUnits="userSpaceOnUse">
      <stop offset=".35" stop-color="#cf2000"/>
      <stop offset=".645" stop-color="#cd1f00"/>
      <stop offset=".752" stop-color="#c61d00"/>
      <stop offset=".828" stop-color="#bb1900"/>
      <stop offset=".889" stop-color="#aa1300"/>
      <stop offset=".941" stop-color="#940c00"/>
      <stop offset=".987" stop-color="#790300"/>
      <stop offset="1" stop-color="#700000"/>
    </linearGradient>
    <linearGradient id="f60c71fe-a50d-4caf-8128-f224336104dc" x1="17.337" x2="80" y1="50.108" y2="50.108" gradientUnits="userSpaceOnUse">
      <stop offset="0" stop-color="#0050cf"/>
      <stop offset=".021" stop-color="#0252d1"/>
      <stop offset=".244" stop-color="#1363e2"/>
      <stop offset=".487" stop-color="#1d6dec"/>
      <stop offset=".791" stop-color="#2070ef"/>
      <stop offset=".841" stop-color="#1e6dec"/>
      <stop offset=".882" stop-color="#1963e2"/>
      <stop offset=".919" stop-color="#1152d1"/>
      <stop offset=".954" stop-color="#053ab9"/>
      <stop offset=".966" stop-color="#0030af"/>
      <stop offset="1" stop-color="#2070ef"/>
    </linearGradient>
    <linearGradient id="fbe5cf5c-aee4-440d-97ae-1d39c1442943" x1="17.337" x2="80" y1="65.759" y2="65.759" gradientUnits="userSpaceOnUse">
      <stop offset="0" stop-color="#cf2000"/>
      <stop offset=".021" stop-color="#d12201"/>
      <stop offset=".244" stop-color="#e23309"/>
      <stop offset=".487" stop-color="#ec3d0e"/>
      <stop offset=".791" stop-color="#ef4010"/>
      <stop offset=".841" stop-color="#ec3d0f"/>
      <stop offset=".882" stop-color="#e2330d"/>
      <stop offset=".919" stop-color="#d12208"/>
      <stop offset=".954" stop-color="#b90a03"/>
      <stop offset=".966" stop-color="#af0000"/>
      <stop offset="1" stop-color="#ef4010"/>
    </linearGradient>
    <linearGradient id="a471b575-62f5-446b-ae55-3d0600dc89ab" x1="17.337" x2="80" y1="58.727" y2="58.727" gradientUnits="userSpaceOnUse">
      <stop offset="0" stop-color="#dfdfdf"/>
      <stop offset=".021" stop-color="#e1e1e1"/>
      <stop offset=".244" stop-color="#f2f2f2"/>
      <stop offset=".487" stop-color="#fcfcfc"/>
      <stop offset=".791" stop-color="#fff"/>
      <stop offset=".841" stop-color="#fcfcfc"/>
      <stop offset=".882" stop-color="#f2f2f2"/>
      <stop offset=".919" stop-color="#e1e1e1"/>
      <stop offset=".954" stop-color="#c9c9c9"/>
      <stop offset=".966" stop-color="#bfbfbf"/>
      <stop offset="1" stop-color="#fff"/>
    </linearGradient>
    <linearGradient id="aacbc031-286b-40ba-8b21-cae6e223db6a" x1="17.337" x2="80.001" y1="58.261" y2="58.261" gradientUnits="userSpaceOnUse">
      <stop offset="0" stop-color="#fbbf00"/>
      <stop offset=".021" stop-color="#fbc102"/>
      <stop offset=".244" stop-color="#fdd213"/>
      <stop offset=".487" stop-color="#ffdc1d"/>
      <stop offset=".791" stop-color="#ffdf20"/>
      <stop offset=".841" stop-color="#fddc1e"/>
      <stop offset=".882" stop-color="#f8d219"/>
      <stop offset=".919" stop-color="#eec111"/>
      <stop offset=".954" stop-color="#e1a905"/>
      <stop offset=".966" stop-color="#db9f00"/>
      <stop offset="1" stop-color="#ffdf20"/>
    </linearGradient>
    <linearGradient xlink:href="#aacbc031-286b-40ba-8b21-cae6e223db6a" id="e434f2cd-2be7-450f-8c3c-3b011c52b50e" x1="17.335" x2="80.002" y1="56.33" y2="56.33"/>
    <linearGradient xlink:href="#aacbc031-286b-40ba-8b21-cae6e223db6a" id="b986b230-e7cd-47dd-ab28-eaa13375413d" x1="17.337" x2="80.003" y1="73.695" y2="73.695"/>
    <linearGradient xlink:href="#aacbc031-286b-40ba-8b21-cae6e223db6a" id="aae3eeaa-a443-48c2-a7a3-a22f357aa985" x1="17.337" x2="80.002" y1="43.75" y2="43.75"/>
  </defs>
  <path fill="#0e3ca5" d="M32.585 59.261c2 7.4 9.176 13.045 12.8 12.811.127-.008 13.745-2.547 21.2-15 5.8-9.693 3.826-19.05-4.064-19.255-2.839.208-33.745 7.349-29.934 21.446m29.198-47.527-.008-.007.011-.007a34.628 34.628 0 0 0-36.5-5.266 20.236 20.236 0 0 0-2.2 1.075c-.486.258-.972.516-1.444.8l.115.035a15.759 15.759 0 0 0-3.655 3.46C8.172 24.954 41.486 34.5 59.3 34.529c8.191 5.883 10.491-16.561 2.485-22.793Z"/>
  <path fill="#5493f7" d="M27.3 12C22.723 18.881 7.478 23.728 4.971 22.973l-.017-.032c.1-.207.207-.414.313-.619a36.682 36.682 0 0 1 10.87-12.683q1.407-1.03 2.913-1.929a10.8 10.8 0 0 1 5.04-1.342c6.789.13 3.244 5.58 3.207 5.635m-3.753 48.611c.329 2.161-.008 10.7-.45 11.418-.381.023-1.174.072-3.471-1.217A36.541 36.541 0 0 1 3.054 27.559q.183-.551.383-1.093c2.631 3.5 5.676 6.666 8.264 10.2 2.465 3.365 5.856 8.852 6.546 10.024 4.284 7.277 4.967 11.767 5.294 13.925M74.189 39.1a36.4 36.4 0 0 1-2.541 13.4c-4.3 4.62-33.283-6.753-33.567-6.877C34.116 43.887 22.05 38.6 20.961 30.3 19.4 18.351 43.63 10.027 54.28 9.712c1.277.015 5.163.06 7.429 1.9A36.415 36.415 0 0 1 74.189 39.1M54.568 71.467c-3.159 1.475-6.638.4-5.734-2.676C50.569 62.882 65.72 56.824 69.066 56.5c.413-.041.588.24.405.561a36.864 36.864 0 0 1-14.9 14.41"/>
  <path fill="url(#e7cd2a00-2e26-4851-bc48-703e1e134589)" d="M17.337 77.255a2.552 2.552 0 0 0 2.329 2.713c30.7.211 60.334-1.2 60.334-5.8 0-13.924-62.663 3.087-62.663 3.087Z"/>
  <path fill="url(#ef7dd267-8826-4ab3-bb1d-c97520b77ed5)" d="M17.337 77.255a2.548 2.548 0 0 0 2.34 2.713c30.691.233 60.285-.731 60.323-5.8 0-13.924-62.663 3.087-62.663 3.087Zm2.342 2.537a2.193 2.193 0 0 1-.245-.015 2.4 2.4 0 0 1-1.987-1.763 2.369 2.369 0 0 0 2.228 1.763c30.671-.194 59.844-9.637 59.844-5.479 0 4.244-29.171 5.702-59.84 5.494Z"/>
  <path fill="url(#f60c71fe-a50d-4caf-8128-f224336104dc)" d="M19.681 37.824a2.343 2.343 0 0 0-2.344 2.343v29.017q1.8 0 3.511-.039t3.356-.1q1.639-.063 3.216-.148t3.1-.2c1.013-.075 2.007-.161 2.986-.249s1.945-.181 2.9-.276 1.895-.194 2.825-.3 1.848-.216 2.762-.327 1.824-.23 2.728-.349 1.8-.245 2.7-.376 1.786-.271 2.683-.408 1.8-.28 2.7-.421 1.809-.289 2.719-.44 1.825-.313 2.752-.472 1.865-.319 2.814-.483l2.884-.5c.973-.169 1.962-.346 2.967-.515s2.031-.336 3.074-.494 1.993-.3 3.3-.463a24.282 24.282 0 0 1 4.28-.229c1.346.092 2.411.433 2.411 1.37V32.4c.032-4.966-29.631 5.194-60.324 5.424Z"/>
  <path fill="url(#fbe5cf5c-aee4-440d-97ae-1d39c1442943)" d="M19.666 79.6C50.364 79.37 80.037 69.21 80 74.17V53.318c0-.937-1.065-1.281-2.41-1.37a24.282 24.282 0 0 0-4.28.227c-1.307.161-2.258.306-3.3.465s-2.066.323-3.072.492-1.994.344-2.968.517-1.934.339-2.884.5-1.887.323-2.814.483-1.841.32-2.75.473-1.814.3-2.718.439-1.8.281-2.7.42-1.786.277-2.68.409-1.8.256-2.7.376a289.362 289.362 0 0 1-5.491.676c-.93.105-1.871.206-2.825.3s-1.92.188-2.9.277a169.348 169.348 0 0 1-9.301.596 181.907 181.907 0 0 1-6.868.14v18.51a2.342 2.342 0 0 0 2.327 2.352Z"/>
  <path fill="url(#a471b575-62f5-446b-ae55-3d0600dc89ab)" d="M23.582 75.922a292.563 292.563 0 0 0 8.134-5.138c.857-.56 1.684-1.122 2.525-1.684s1.677-1.123 2.517-1.691 1.685-1.142 2.536-1.728 1.711-1.187 2.59-1.8 1.776-1.244 2.7-1.893 1.862-1.32 2.83-2.022 1.961-1.432 3-2.19 2.114-1.541 3.23-2.362q-1.674-.7-3.229-1.354a289.308 289.308 0 0 1-5.83-2.512c-.921-.408-1.819-.808-2.7-1.2s-1.737-.791-2.589-1.186-1.694-.79-2.535-1.188-1.678-.8-2.519-1.2-1.681-.813-2.534-1.234-1.715-.855-2.6-1.3-1.777-.908-2.7-1.392-1.859-.989-2.83-1.513-1.974-1.07-3.014-1.645a245.68 245.68 0 0 1-2.36-1.326 2.325 2.325 0 0 0-.875 1.812v37.079a2.328 2.328 0 0 0 .915 1.845c.79-.459 1.566-.914 2.315-1.36q1.567-.928 3.023-1.818Z"/>
  <path fill="url(#aacbc031-286b-40ba-8b21-cae6e223db6a)" d="M36.394 57.047c-.556.116-1.113.233-1.854.384a4.779 4.779 0 0 0-.049-.318l1.677-.437c.5-.131 1.008-.265 1.678-.446l-.625-.443c-1.127.393-1.692.589-2.818.975a3.771 3.771 0 0 0-.373-.853c1-.678 1.5-1.018 2.5-1.7l.087-.8-1.393 1.109-1.392 1.1a2.927 2.927 0 0 0-.2-.245c.582-.516 1.017-.906 1.454-1.294s.874-.778 1.456-1.3l.081-1.312c-.527.08-.791.121-1.319.2l-1.165 1.561c-.35.468-.7.935-1.162 1.557a3.504 3.504 0 0 0-.263-.173l.989-1.463c.3-.44.595-.881.991-1.468l-.8.157c-.6 1.046-.9 1.566-1.493 2.609a4.072 4.072 0 0 0-.895-.288c.293-1.142.44-1.714.732-2.859l-.5-.582-.295 1.693c-.088.507-.178 1.016-.3 1.692a5.737 5.737 0 0 0-.326-.025l.207-1.859.208-1.859-.869-.913-.881 1.041.207 1.832.206 1.832c-.11.021-.218.043-.325.072l-.275-1.652-.276-1.654c-.2.264-.306.4-.51.657.281 1.1.421 1.657.7 2.761a4.615 4.615 0 0 0-.893.428c-.587-.961-.88-1.444-1.467-2.41-.319-.018-.478-.029-.8-.048l.977 1.339.974 1.333a4.41 4.41 0 0 0-.265.213c-.465-.553-.814-.971-1.162-1.389s-.7-.835-1.161-1.395c-.524-.008-.785-.015-1.307-.027l.071 1.31a303.842 303.842 0 0 0 2.911 2.188 6.145 6.145 0 0 0-.2.272 273.996 273.996 0 0 1-2.758-1.852l.081.8c.993.559 1.49.835 2.485 1.382a4.314 4.314 0 0 0-.364.91 194.999 194.999 0 0 1-2.806-.614l-.625.522c.669.1 1.172.164 1.673.233s1 .134 1.673.221c-.02.108-.039.217-.05.328-.74-.047-1.295-.087-1.849-.127s-1.108-.084-1.848-.142c-.393.358-.589.538-.983.894l.983.849a250.937 250.937 0 0 0 3.702-.556c.013.11.029.215.05.322-.671.141-1.174.244-1.676.346s-1 .2-1.675.336l.624.488c1.126-.321 1.687-.481 2.814-.816a4.012 4.012 0 0 0 .373.871c-1 .634-1.5.948-2.5 1.57l-.086.8c.556-.408.972-.717 1.39-1.028s.836-.621 1.393-1.038c.062.088.128.172.2.253-.583.495-1.018.861-1.454 1.229s-.873.735-1.455 1.218l-.08 1.307c.527-.048.788-.073 1.315-.125.466-.6.816-1.052 1.166-1.506l1.174-1.525c.086.064.173.124.264.18-.4.574-.7 1-.992 1.431s-.594.856-.99 1.425c.321-.048.481-.069.8-.12.6-1.023.9-1.536 1.495-2.564a3.883 3.883 0 0 0 .9.306l-.733 2.846c.2.239.3.354.5.591l.294-1.689c.088-.508.179-1.014.3-1.689a3.184 3.184 0 0 0 .326.028l-.208 1.857-.208 1.859.869.916c.352-.417.529-.626.88-1.045-.083-.732-.144-1.283-.207-1.831s-.124-1.1-.206-1.83c.11-.02.217-.046.324-.074l.277 1.648.275 1.649c.2-.265.306-.4.509-.664-.28-1.1-.421-1.649-.7-2.75a4.423 4.423 0 0 0 .892-.445c.586.948.879 1.42 1.466 2.365l.8.011-.976-1.3-.973-1.3c.091-.069.179-.145.265-.221.464.538.812.943 1.161 1.346s.7.8 1.161 1.34c.524-.019.786-.028 1.31-.05l-.073-1.3-1.463-1.016-1.455-1.025c.068-.091.134-.183.2-.28.551.346.965.6 1.379.859s.83.511 1.383.851l-.082-.793c-.995-.5-1.492-.746-2.486-1.249a4.655 4.655 0 0 0 .363-.928c1.124.187 1.685.278 2.809.455.25-.224.376-.339.625-.566-.669-.046-1.172-.084-1.675-.122s-1.005-.076-1.675-.133c.02-.109.039-.219.05-.33.74.014 1.3.02 1.851.028s1.111.009 1.851.014c.392-.388.588-.584.98-.974-.392-.306-.588-.459-.98-.768-.745.162-1.301.282-1.857.398Z"/>
  <path fill="url(#e434f2cd-2be7-450f-8c3c-3b011c52b50e)" d="M47.718 55.764c0-.749 0-1.125.008-1.873a540.16 540.16 0 0 1-1.089 1.679c-.711-.134-1.067-.2-1.781-.341l1.112 1.355c-.443.664-.666 1-1.11 1.659.713-.331 1.07-.5 1.78-.834.437.546.656.816 1.092 1.359 0-.748-.007-1.121-.011-1.868.71-.333 1.063-.5 1.777-.84-.714-.118-1.067-.176-1.778-.296Z"/>
  <path fill="url(#b986b230-e7cd-47dd-ab28-eaa13375413d)" d="M21.131 73c-.3-.678-.452-1.017-.753-1.7-.153.736-.23 1.1-.382 1.839-.748.088-1.122.127-1.87.2.652.367.978.55 1.63.912l-.4 1.833c.556-.511.834-.767 1.391-1.283.648.365.971.544 1.619.9l-.77-1.683c.561-.514.842-.769 1.4-1.285-.745.116-1.119.167-1.865.267Z"/>
  <path fill="url(#aae3eeaa-a443-48c2-a7a3-a22f357aa985)" d="M20 44.3c.152.731.229 1.1.382 1.823l.753-1.73c.748.064 1.122.093 1.868.151a227.15 227.15 0 0 1-1.4-1.2l.772-1.727c-.649.4-.972.594-1.621.986-.557-.491-.835-.736-1.392-1.232.161.728.241 1.091.4 1.821-.652.38-.979.57-1.632.946.744.072 1.119.105 1.87.162Z"/>
</svg>
