<?xml version="1.0" encoding="utf-8"?>
<!-- Generator: Adobe Illustrator 23.1.1, SVG Export Plug-In . SVG Version: 6.00 Build 0)  -->
<svg version="1.1" id="图层_1" xmlns="http://www.w3.org/2000/svg" xmlns:xlink="http://www.w3.org/1999/xlink" x="0px" y="0px"
	 viewBox="0 0 340.16 340.16" style="enable-background:new 0 0 340.16 340.16;" xml:space="preserve">
<style type="text/css">
	.st0{fill:url(#SVGID_1_);}
	.st1{fill:#83FFCB;}
	.st2{fill:#000D37;}
	.st3{fill:url(#SVGID_2_);}
	.st4{fill:url(#SVGID_3_);}
	.st5{fill:url(#SVGID_4_);}
	.st6{fill:url(#SVGID_5_);}
</style>
<g>
	<g>
		<linearGradient id="SVGID_1_" gradientUnits="userSpaceOnUse" x1="71.1388" y1="160.1179" x2="269.0186" y2="160.1179">
			<stop  offset="0" style="stop-color:#9277FE"/>
			<stop  offset="1" style="stop-color:#5743F2"/>
		</linearGradient>
		<path class="st0" d="M218.48,160.76c10.33,17.9,9.63,39.13,0.02,55.85l50.52,29.1l-0.1-114.19l-98.94-57l0.05,58.3
			C189.34,132.82,208.13,142.83,218.48,160.76z"/>
		<path class="st1" d="M121.67,216.66c-15.43-26.73-6.27-60.92,20.46-76.35c8.8-5.08,18.41-7.48,27.9-7.48l-0.05-58.3l-98.84,57.18
			l0.1,114.19l50.46-29.19C121.69,216.69,121.68,216.67,121.67,216.66z"/>
		<path class="st2" d="M218.5,216.61c-4.74,8.25-11.64,15.41-20.48,20.51c-26.72,15.43-60.88,6.28-76.32-20.41l-50.46,29.19
			l98.94,57l98.84-57.18L218.5,216.61z"/>
	</g>
	<linearGradient id="SVGID_2_" gradientUnits="userSpaceOnUse" x1="147.7343" y1="175.8092" x2="192.4231" y2="201.6103">
		<stop  offset="0" style="stop-color:#9277FE"/>
		<stop  offset="1" style="stop-color:#5743F2"/>
	</linearGradient>
	<circle class="st3" cx="170.08" cy="188.71" r="25.8"/>
	<linearGradient id="SVGID_3_" gradientUnits="userSpaceOnUse" x1="71.191" y1="50.7604" x2="236.0039" y2="50.7604">
		<stop  offset="0" style="stop-color:#9277FE"/>
		<stop  offset="1" style="stop-color:#5743F2"/>
	</linearGradient>
	<polygon class="st4" points="236,38.06 170.08,0 71.19,57.09 71.19,101.52 170.08,44.43 236,82.49 	"/>
	
		<linearGradient id="SVGID_4_" gradientUnits="userSpaceOnUse" x1="-15.3084" y1="1503.8895" x2="135.7797" y2="1416.6588" gradientTransform="matrix(-0.5 -0.866 0.866 -0.5 -1159.1837 1044.745)">
		<stop  offset="0" style="stop-color:#9277FE"/>
		<stop  offset="1" style="stop-color:#5743F2"/>
	</linearGradient>
	<polygon class="st5" points="6.65,206.94 6.65,283.06 105.54,340.16 144.01,317.94 45.13,260.85 45.13,184.73 	"/>
	
		<linearGradient id="SVGID_5_" gradientUnits="userSpaceOnUse" x1="-1172.821" y1="727.7944" x2="-1021.733" y2="640.5637" gradientTransform="matrix(-0.5 0.866 -0.866 -0.5 325.1838 1526.255)">
		<stop  offset="0" style="stop-color:#9277FE"/>
		<stop  offset="1" style="stop-color:#5743F2"/>
	</linearGradient>
	<polygon class="st6" points="267.58,321.13 333.51,283.06 333.51,168.88 295.03,146.67 295.03,260.85 229.11,298.91 	"/>
</g>
</svg>
