<svg width="64" height="64" viewBox="0 0 64 64" fill="none" xmlns="http://www.w3.org/2000/svg">
<path d="M32 63.5898C49.6731 63.5898 64 60.5282 64 56.7522V51.2819H51.2031C45.8544 50.4231 39.2052 49.9143 32 49.9143C24.7948 49.9143 18.1456 50.4231 12.7969 51.2819H0V56.7522C0 60.5282 14.3269 63.5898 32 63.5898Z" fill="#4BDB4B"/>
<path d="M32 58.1195C49.6731 58.1195 64 55.0585 64 51.2822C64 47.5059 49.6731 44.4446 32 44.4446C14.3269 44.4446 0 47.5059 0 51.2822C0 55.0585 14.3269 58.1195 32 58.1195Z" fill="#145E02"/>
<path fill-rule="evenodd" clip-rule="evenodd" d="M32 4.2666C46.7275 4.2666 58.6667 16.2056 58.6667 30.9332C58.6667 39.0439 55.0456 46.309 49.332 51.1999C43.7334 51.1999 39.1502 51.1988 32.5334 51.1988C25.916 51.1988 22.1334 51.1999 14.6667 51.1988C8.95384 46.3079 5.33337 39.0433 5.33337 30.9332C5.33337 16.2056 17.2724 4.2666 32 4.2666Z" fill="#2E3148"/>
<path fill-rule="evenodd" clip-rule="evenodd" d="M32.0508 10.7598C43.2211 10.7598 52.2765 19.8151 52.2765 30.9855C52.2765 42.1558 43.2211 51.2111 32.0508 51.2111C20.8805 51.2111 11.8251 42.1558 11.8251 30.9855C11.8251 19.8151 20.8805 10.7598 32.0508 10.7598Z" fill="#1B1E36"/>
<path opacity="0.67" fill-rule="evenodd" clip-rule="evenodd" d="M32.4187 8.82824C32.2068 8.63329 32.0975 8.6296 32.0791 8.6296C32.0608 8.6296 31.9514 8.63329 31.7396 8.82824C31.5222 9.02835 31.2623 9.37363 30.9822 9.90638C30.4231 10.9697 29.8882 12.577 29.427 14.6508C28.9084 16.983 28.4987 19.8336 28.2402 23.0245C29.4888 23.6287 30.7727 24.2855 32.0788 24.9908C33.3851 24.2854 34.6693 23.6285 35.9181 23.0242C35.6596 19.8334 35.2498 16.983 34.7313 14.6508C34.2702 12.577 33.7351 10.9697 33.1761 9.90638C32.8961 9.37363 32.6361 9.02835 32.4187 8.82824ZM30.986 25.5894C30.0269 25.0797 29.0819 24.5976 28.1566 24.1446C28.0865 25.1719 28.0318 26.2308 27.9939 27.3158C28.4833 27.0227 28.9798 26.7308 29.483 26.4405C29.9862 26.1501 30.4874 25.8663 30.986 25.5894ZM27.2328 22.5449C27.9822 13.7948 29.8694 7.58594 32.0791 7.58594C34.2888 7.58594 36.1761 13.7946 36.9255 22.5447C44.8825 18.8183 51.2062 17.3475 52.3111 19.2599C53.4159 21.1724 48.9793 25.9101 41.7716 30.9337C48.9793 35.9572 53.4159 40.6949 52.3111 42.6074C51.2062 44.5199 44.8825 43.049 36.9255 39.3227C36.4945 44.3548 35.6872 48.5463 34.6587 51.1999C32.5334 51.1999 33.0181 51.1999 32.0791 51.1999C31.1402 51.1999 32 51.1999 29.4996 51.1999C28.4711 48.5463 27.6638 44.3546 27.2328 39.3224C19.2755 43.0489 12.9514 44.5199 11.8465 42.6074C10.7417 40.6949 15.1782 35.9572 22.386 30.9337C15.1782 25.9101 10.7417 21.1725 11.8465 19.2599C12.9514 17.3474 19.2755 18.8184 27.2328 22.5449ZM23.3057 30.3014C20.6696 28.482 18.404 26.702 16.6422 25.0869C15.0755 23.6509 13.9503 22.3841 13.3082 21.3686C12.9866 20.8598 12.8175 20.4622 12.7528 20.1741C12.6898 19.8935 12.7413 19.7975 12.7503 19.782C12.7592 19.7664 12.817 19.6736 13.0919 19.5877C13.3742 19.4996 13.8035 19.4472 14.4054 19.4712C15.6065 19.519 17.267 19.8596 19.2948 20.4975C21.5751 21.2148 24.2503 22.2854 27.1447 23.6572C27.044 25.0397 26.9712 26.4791 26.9293 27.9619C25.6649 28.7398 24.4537 29.5227 23.3057 30.3014ZM23.3057 31.5659C20.6696 33.3853 18.404 35.1654 16.6422 36.7804C15.0755 38.2165 13.9503 39.4832 13.3082 40.4987C12.9866 41.0075 12.8175 41.4051 12.7528 41.6932C12.6898 41.9738 12.7413 42.0699 12.7503 42.0853C12.7592 42.1009 12.8169 42.1936 13.0919 42.2796C13.3742 42.3678 13.8035 42.4201 14.4054 42.3962C15.6065 42.3483 17.267 42.0077 19.2948 41.3698C21.5751 40.6526 24.2503 39.5819 27.1447 38.2102C27.044 36.8276 26.9712 35.3882 26.9293 33.9054C25.6649 33.1275 24.4537 32.3446 23.3057 31.5659ZM26.9017 32.6604C25.9802 32.0849 25.0898 31.5081 24.2345 30.9337C25.0898 30.3592 25.9802 29.7824 26.9017 29.207C26.8924 29.7771 26.8877 30.3529 26.8877 30.9337C26.8877 31.5144 26.8924 32.0902 26.9017 32.6604ZM27.9582 33.3111C27.9404 32.53 27.9313 31.7369 27.9313 30.9337C27.9313 30.1305 27.9404 29.3373 27.9582 28.5562C28.6261 28.1503 29.3087 27.7459 30.0046 27.3444C30.7008 26.9427 31.3929 26.554 32.0788 26.1787C32.7648 26.554 33.4568 26.9427 34.153 27.3444C34.8491 27.7461 35.532 28.1506 36.2001 28.5566C36.2179 29.3376 36.227 30.1306 36.227 30.9337C36.227 31.7367 36.2179 32.5297 36.2001 33.3107C35.532 33.7167 34.8491 34.1212 34.153 34.5229C33.4568 34.9246 32.7648 35.3134 32.0788 35.6887C31.3929 35.3134 30.7008 34.9246 30.0046 34.5229C29.3087 34.1214 28.6261 33.717 27.9582 33.3111ZM27.9939 34.5515C28.0318 35.6365 28.0865 36.6954 28.1566 37.7227C29.0819 37.2698 30.0269 36.7876 30.986 36.278C30.4874 36.001 29.9862 35.7172 29.483 35.4269C28.9798 35.1365 28.4833 34.8446 27.9939 34.5515ZM32.0788 36.8766C30.7727 37.5818 29.4888 38.2386 28.2402 38.8427C28.4987 42.0337 28.9084 44.8843 29.427 47.2164C29.8882 49.2904 30.0662 50.1365 30.6252 51.1999C31.2574 51.1999 31.1219 51.1999 31.4667 51.1999C32 51.1999 32.0608 51.1999 32.0791 51.1999C32.0975 51.1999 32.2667 51.1999 32.5334 51.1999C32.8 51.1999 32.8 51.1999 33.0667 51.1999C33.3334 51.1999 32.978 51.1999 33.4367 51.1999C33.8945 50.1844 34.3694 48.8442 34.7313 47.2164C35.2498 44.8844 35.6596 42.0339 35.9181 38.843C34.6693 38.2388 33.3851 37.5819 32.0788 36.8766ZM37.0135 38.2105C39.9077 39.5821 42.5827 40.6526 44.8628 41.3698C46.8907 42.0077 48.5511 42.3483 49.7523 42.3962C50.3541 42.4201 50.7834 42.3678 51.0657 42.2796C51.3407 42.1936 51.3984 42.1009 51.4074 42.0853C51.4163 42.0699 51.4678 41.9739 51.4048 41.6932C51.3402 41.4051 51.171 41.0075 50.8493 40.4987C50.2074 39.4832 49.0821 38.2165 47.5154 36.7804C45.7536 35.1654 43.4881 33.3853 40.8519 31.5659C39.7042 32.3444 38.4931 33.1272 37.229 33.9049C37.1871 35.388 37.1143 36.8277 37.0135 38.2105ZM40.8519 30.3014C43.4881 28.482 45.7536 26.702 47.5154 25.0869C49.0821 23.6509 50.2074 22.3841 50.8493 21.3686C51.171 20.8598 51.3402 20.4622 51.4048 20.1741C51.4678 19.8934 51.4163 19.7974 51.4074 19.782C51.3984 19.7665 51.3407 19.6737 51.0657 19.5877C50.7834 19.4996 50.3541 19.4472 49.7523 19.4712C48.5511 19.519 46.8907 19.8596 44.8628 20.4975C42.5827 21.2147 39.9077 22.2853 37.0135 23.6569C37.1143 25.0396 37.1871 26.4793 37.229 27.9623C38.4931 28.7401 39.7042 29.5229 40.8519 30.3014ZM37.2567 29.2074C38.1779 29.7827 39.0681 30.3594 39.9231 30.9337C39.0681 31.5079 38.1779 32.0847 37.2567 32.6599C37.2659 32.0899 37.2707 31.5143 37.2707 30.9337C37.2707 30.3531 37.2659 29.7774 37.2567 29.2074ZM36.1644 27.3162C36.1265 26.231 36.0718 25.1718 36.0017 24.1443C35.0762 24.5974 34.131 25.0796 33.1716 25.5894C33.6702 25.8663 34.1714 26.1501 34.6746 26.4405C35.178 26.7309 35.6748 27.023 36.1644 27.3162ZM36.0017 37.723C35.0762 37.27 34.131 36.7878 33.1716 36.278C33.6702 36.001 34.1714 35.7172 34.6746 35.4269C35.178 35.1364 35.6748 34.8443 36.1644 34.5511C36.1265 35.6364 36.0718 36.6955 36.0017 37.723Z" fill="white"/>
<path fill-rule="evenodd" clip-rule="evenodd" d="M17.1557 24.3972C18.0625 24.3972 18.7975 25.1326 18.7975 26.0398C18.7975 26.947 18.0625 27.6824 17.1557 27.6824C16.249 27.6824 15.5139 26.947 15.5139 26.0398C15.5139 25.1326 16.249 24.3972 17.1557 24.3972Z" fill="white"/>
<path fill-rule="evenodd" clip-rule="evenodd" d="M43.2496 18.7693C44.1567 18.7693 44.8922 19.5047 44.8922 20.4119C44.8922 21.3191 44.1567 22.0545 43.2496 22.0545C42.3424 22.0545 41.6069 21.3191 41.6069 20.4119C41.6069 19.5047 42.3424 18.7693 43.2496 18.7693Z" fill="white"/>
<path fill-rule="evenodd" clip-rule="evenodd" d="M28.7704 44.5527C29.6776 44.5527 30.4131 45.2878 30.4131 46.1946C30.4131 47.1013 29.6776 47.8364 28.7704 47.8364C27.8632 47.8364 27.1278 47.1013 27.1278 46.1946C27.1278 45.2878 27.8632 44.5527 28.7704 44.5527Z" fill="white"/>
<path fill-rule="evenodd" clip-rule="evenodd" d="M31.9874 28.1401C33.5233 28.1401 34.7684 29.3853 34.7684 30.9212C34.7684 32.4571 33.5233 33.7022 31.9874 33.7022C30.4514 33.7022 29.2063 32.4571 29.2063 30.9212C29.2063 29.3853 30.4514 28.1401 31.9874 28.1401Z" fill="white"/>
<path d="M37.7455 59.2654L36.8545 59.7193L37.7455 59.2654C37.4021 58.5913 37.2053 57.7694 37.1035 56.5239C37.0008 55.2667 37 53.6679 37 51.456V48.544C37 46.3321 37.0008 44.7333 37.1035 43.4761C37.2052 42.2306 37.4021 41.4087 37.7455 40.7346C38.4012 39.4476 39.4476 38.4012 40.7346 37.7455C41.4087 37.4021 42.2306 37.2052 43.4761 37.1035C44.7333 37.0008 46.3321 37 48.544 37H51.456C53.6679 37 55.2667 37.0008 56.5239 37.1035C57.7694 37.2053 58.5913 37.4021 59.2654 37.7455L59.7193 36.8545L59.2654 37.7455C60.5523 38.4012 61.5988 39.4476 62.2545 40.7346C62.5979 41.4087 62.7948 42.2306 62.8965 43.4761C62.9992 44.7333 63 46.3321 63 48.544V51.456C63 53.6679 62.9992 55.2667 62.8965 56.5239C62.7948 57.7694 62.5979 58.5913 62.2545 59.2654L63.1455 59.7193L62.2545 59.2654C61.5988 60.5523 60.5523 61.5988 59.2654 62.2545L59.7193 63.1455L59.2654 62.2545C58.5913 62.5979 57.7694 62.7948 56.5239 62.8965C55.2667 62.9992 53.6679 63 51.456 63H48.544C46.3321 63 44.7333 62.9992 43.4761 62.8965C42.2306 62.7948 41.4087 62.5979 40.7346 62.2545C39.4476 61.5988 38.4012 60.5523 37.7455 59.2654Z" fill="#030313" stroke="white" stroke-width="2"/>
<path d="M48.546 50.2627C48.5493 47.3766 47.4226 44.6039 45.4073 42.5381C45.371 42.5015 45.3279 42.4723 45.2802 42.4524C45.2326 42.4326 45.1815 42.4225 45.1299 42.4226H42.5482C42.4456 42.4226 42.3471 42.4631 42.2745 42.5355C42.2017 42.6078 42.1604 42.706 42.1599 42.8086V45.4643C42.1602 45.5626 42.1979 45.6571 42.2652 45.7288C42.3326 45.8005 42.4246 45.8438 42.5228 45.8503C43.6325 45.9383 44.6685 46.4414 45.4238 47.2591C46.1793 48.0769 46.5988 49.1493 46.5988 50.2627C46.5988 51.3759 46.1793 52.4483 45.4238 53.2661C44.6685 54.0838 43.6325 54.5869 42.5228 54.675C42.4246 54.6814 42.3326 54.7249 42.2652 54.7965C42.1979 54.8681 42.1602 54.9626 42.1599 55.061V57.7166C42.1604 57.8192 42.2017 57.9174 42.2745 57.9897C42.3471 58.0621 42.4456 58.1026 42.5482 58.1026H45.1299C45.1815 58.1028 45.2326 58.0926 45.2802 58.0728C45.3279 58.0529 45.371 58.0239 45.4073 57.9871C47.4226 55.9213 48.5493 53.1487 48.546 50.2627Z" fill="#FF0000"/>
<path d="M57.8401 55.061C57.8397 54.9615 57.8011 54.866 57.7323 54.7942C57.6635 54.7223 57.5697 54.6797 57.4703 54.675C56.3606 54.5869 55.3247 54.0838 54.5693 53.2661C53.8138 52.4483 53.3943 51.3759 53.3943 50.2627C53.3943 49.1493 53.8138 48.0769 54.5693 47.2591C55.3247 46.4414 56.3606 45.9383 57.4703 45.8503C57.5685 45.8438 57.6605 45.8005 57.7279 45.7288C57.7952 45.6571 57.8329 45.5626 57.8332 45.4643V42.8086C57.8332 42.7579 57.8233 42.7077 57.8039 42.6609C57.7845 42.614 57.756 42.5715 57.7202 42.5356C57.6843 42.4998 57.6418 42.4713 57.5949 42.452C57.5481 42.4326 57.4979 42.4226 57.4472 42.4226H54.8701C54.766 42.4228 54.6663 42.4644 54.5928 42.5381C52.5816 44.6065 51.4564 47.3777 51.4564 50.2627C51.4564 53.1475 52.5816 55.9187 54.5928 57.9871C54.6663 58.0608 54.766 58.1024 54.8701 58.1026H57.4541C57.5565 58.1026 57.6547 58.062 57.7271 57.9896C57.7995 57.9172 57.8401 57.819 57.8401 57.7166V55.061Z" fill="#0073FF"/>
<path d="M48.0283 41.04C47.9573 41.0402 47.8875 41.0578 47.8249 41.0912C47.7622 41.1246 47.7088 41.1729 47.6691 41.2317C47.6294 41.2905 47.6048 41.3581 47.5973 41.4286C47.5898 41.4992 47.5997 41.5706 47.6261 41.6364C48.6962 44.3863 49.2449 47.3115 49.244 50.2623C49.2449 53.2131 48.6962 56.1382 47.6261 58.8882C47.5997 58.954 47.5898 59.0253 47.5973 59.0959C47.6048 59.1664 47.6294 59.2342 47.6691 59.293C47.7088 59.3518 47.7622 59.4 47.8249 59.4334C47.8875 59.4667 47.9573 59.4844 48.0283 59.4845H51.9575C52.0285 59.4844 52.0983 59.4667 52.1609 59.4334C52.2235 59.4 52.277 59.3518 52.3166 59.293C52.3563 59.2342 52.381 59.1664 52.3885 59.0959C52.396 59.0253 52.3861 58.954 52.3597 58.8882C50.187 53.3428 50.187 47.1817 52.3597 41.6364C52.3861 41.5706 52.396 41.4992 52.3885 41.4286C52.381 41.3581 52.3563 41.2905 52.3166 41.2317C52.277 41.1729 52.2235 41.1246 52.1609 41.0912C52.0983 41.0578 52.0285 41.0402 51.9575 41.04H48.0283Z" fill="#00F3D7"/>
</svg>
