<?xml version="1.0" encoding="UTF-8" standalone="no"?>
<!DOCTYPE svg PUBLIC "-//W3C//DTD SVG 1.1//EN" "http://www.w3.org/Graphics/SVG/1.1/DTD/svg11.dtd">
<svg width="100%" height="100%" viewBox="0 0 24 24" version="1.1" xmlns="http://www.w3.org/2000/svg" xmlns:xlink="http://www.w3.org/1999/xlink" xml:space="preserve" xmlns:serif="http://www.serif.com/" style="fill-rule:evenodd;clip-rule:evenodd;">
    <path d="M12.985,0.812C13.949,0.812 14.279,0.928 14.929,1.155C15.091,1.211 15.273,1.275 15.49,1.345C19.947,2.795 23.25,7.071 23.25,12.005C23.25,12.829 23.133,13.721 22.963,14.506C22.196,17.622 20.213,20.269 17.543,21.804C16.213,22.568 14.67,23.131 13.068,23.239C12.8,23.257 11.93,23.249 11.339,23.243C11.126,23.241 10.95,23.239 10.85,23.239C5.061,22.419 0.75,18.142 0.75,12.005C0.75,10.447 1.047,8.887 1.653,7.454C2.282,5.968 3.362,4.699 4.486,3.6C5.476,2.634 6.7,2.1 7.906,1.574C8.081,1.498 8.255,1.422 8.428,1.345C9.05,1.068 9.469,1.008 9.996,0.932C10.214,0.9 10.45,0.866 10.727,0.812C11.214,0.719 11.726,0.75 12.234,0.781C12.486,0.797 12.738,0.812 12.985,0.812Z" style="fill:url(#_Linear1);fill-rule:nonzero;"/>
    <path d="M12.985,0.812C13.949,0.812 14.279,0.928 14.929,1.155C15.091,1.211 15.273,1.275 15.49,1.345C19.947,2.795 23.25,7.071 23.25,12.005C23.25,12.829 23.133,13.721 22.963,14.506C22.196,17.622 20.213,20.269 17.543,21.804C16.213,22.568 14.67,23.131 13.068,23.239C12.8,23.257 11.93,23.249 11.339,23.243C11.126,23.241 10.95,23.239 10.85,23.239C5.061,22.419 0.75,18.142 0.75,12.005C0.75,10.447 1.047,8.887 1.653,7.454C2.282,5.968 3.362,4.699 4.486,3.6C5.476,2.634 6.7,2.1 7.906,1.574C8.081,1.498 8.255,1.422 8.428,1.345C9.05,1.068 9.469,1.008 9.996,0.932C10.214,0.9 10.45,0.866 10.727,0.812C11.214,0.719 11.726,0.75 12.234,0.781C12.486,0.797 12.738,0.812 12.985,0.812Z" style="fill:none;fill-rule:nonzero;stroke:white;stroke-width:1px;"/>
    <path d="M11.999,0.166L15.656,0.746L18.955,2.426L21.573,5.044L23.254,8.342L23.834,11.999L23.254,15.656L21.573,18.955L18.955,21.573L15.656,23.254L11.999,23.834L8.343,23.254L5.044,21.573L2.426,18.955L0.746,15.656L0.166,11.999L0.746,8.343L2.426,5.044L5.044,2.426L8.343,0.746L11.999,0.166ZM8.549,1.381L5.436,2.966L2.967,5.436L1.381,8.549L0.834,11.999L1.381,15.45L2.967,18.562L5.436,21.032L8.549,22.619L11.999,23.166L15.45,22.619L18.562,21.032L21.032,18.562L22.619,15.45L23.166,11.999L22.619,8.549L21.032,5.436L18.562,2.966L15.45,1.381L11.999,0.834L8.549,1.381Z" style="fill:white;"/>
    <path d="M11.999,3.904L17.36,4.484L17.325,4.812L11.999,4.236L6.674,4.812L6.639,4.484L11.999,3.904Z" style="fill:white;"/>
    <path d="M8.412,0.903C8.462,0.893 8.513,0.906 8.552,0.938L11.999,3.853L15.446,0.938C15.484,0.906 15.536,0.893 15.586,0.903C15.635,0.913 15.677,0.945 15.7,0.991L17.49,4.573L17.195,4.721L15.499,1.326L12.105,4.195C12.044,4.247 11.954,4.247 11.892,4.195L8.499,1.326L6.804,4.721L6.509,4.573L8.298,0.991C8.32,0.945 8.363,0.913 8.412,0.903Z" style="fill:white;"/>
    <path d="M18.857,2.563C18.93,2.616 18.947,2.719 18.893,2.793L17.457,4.77C17.403,4.844 17.3,4.86 17.226,4.807C17.153,4.753 17.136,4.65 17.19,4.576L18.626,2.599C18.68,2.525 18.783,2.509 18.857,2.563Z" style="fill:white;"/>
    <path d="M5.144,2.563C5.218,2.509 5.321,2.525 5.375,2.599L6.811,4.576C6.865,4.65 6.848,4.753 6.775,4.807C6.701,4.86 6.598,4.844 6.544,4.77L5.108,2.793C5.054,2.719 5.07,2.616 5.144,2.563Z" style="fill:white;"/>
    <path d="M6.788,4.547C6.824,4.595 6.832,4.659 6.807,4.715L4.614,9.601L3.535,14.751L7.435,18.284L12.078,20.948L15.442,22.696L16.502,18.379C16.521,18.301 16.594,18.248 16.674,18.254L21.105,18.581L20.482,14.837L20.807,14.783L21.465,18.733C21.473,18.783 21.458,18.834 21.424,18.872C21.39,18.909 21.34,18.929 21.29,18.925L16.789,18.593L15.713,22.978C15.701,23.027 15.667,23.068 15.621,23.089C15.574,23.11 15.521,23.108 15.476,23.085L11.917,21.236L7.255,18.562C7.245,18.556 7.235,18.549 7.227,18.541L3.238,14.928L0.384,12.118C0.348,12.083 0.33,12.033 0.336,11.982C0.342,11.932 0.37,11.887 0.413,11.861L4.251,9.483L2.543,5.303C2.524,5.256 2.528,5.203 2.553,5.159C2.578,5.115 2.622,5.085 2.672,5.078L6.632,4.484C6.692,4.475 6.752,4.499 6.788,4.547ZM4.216,9.893L0.765,12.03L3.254,14.48L4.216,9.893ZM4.463,9.131L2.928,5.373L6.382,4.855L4.463,9.131Z" style="fill:white;"/>
    <path d="M2.893,18.581L3.517,14.837L3.191,14.783L2.533,18.734C2.525,18.784 2.54,18.835 2.574,18.872C2.608,18.909 2.658,18.929 2.708,18.925L7.211,18.594L8.286,22.978C8.298,23.027 8.332,23.068 8.378,23.089C8.424,23.11 8.477,23.109 8.522,23.085L12.075,21.24L11.923,20.947L8.556,22.696L7.498,18.38C7.479,18.301 7.406,18.248 7.325,18.254L2.893,18.581Z" style="fill:white;"/>
    <path d="M12,20.961C12.091,20.961 12.165,21.035 12.165,21.126L12.165,23.5C12.165,23.591 12.091,23.665 12,23.665C11.909,23.665 11.835,23.591 11.835,23.5L11.835,21.126C11.835,21.035 11.909,20.961 12,20.961Z" style="fill:white;"/>
    <path d="M3.509,14.758C3.537,14.845 3.489,14.938 3.403,14.966L1.115,15.709C1.029,15.737 0.936,15.69 0.908,15.603C0.879,15.517 0.927,15.424 1.013,15.395L3.301,14.652C3.387,14.624 3.48,14.671 3.509,14.758Z" style="fill:white;"/>
    <path d="M17.212,4.547C17.249,4.499 17.309,4.475 17.368,4.484L21.327,5.078C21.378,5.085 21.421,5.115 21.446,5.159C21.471,5.203 21.475,5.256 21.456,5.303L19.75,9.483L23.587,11.861C23.63,11.887 23.659,11.932 23.665,11.982C23.67,12.033 23.652,12.083 23.616,12.118L20.756,14.932L16.774,18.541C16.706,18.602 16.602,18.597 16.541,18.529C16.48,18.462 16.485,18.358 16.552,18.296L20.464,14.751L19.387,9.601L17.193,4.715C17.169,4.659 17.176,4.595 17.212,4.547ZM19.785,9.893L20.745,14.48L23.235,12.03L19.785,9.893ZM19.537,9.13L17.618,4.855L21.071,5.373L19.537,9.13Z" style="fill:white;"/>
    <path d="M20.498,14.76C20.527,14.673 20.62,14.626 20.706,14.654L22.987,15.395C23.074,15.424 23.122,15.517 23.093,15.603C23.065,15.69 22.972,15.737 22.885,15.709L20.604,14.968C20.518,14.94 20.47,14.847 20.498,14.76Z" style="fill:white;"/>
    <path d="M16.58,18.276C16.653,18.234 16.746,18.254 16.796,18.322L18.892,21.208C18.945,21.282 18.929,21.385 18.855,21.439C18.782,21.492 18.678,21.476 18.625,21.402L16.616,18.636L12.081,21.237C12.002,21.282 11.901,21.255 11.856,21.176C11.81,21.097 11.838,20.996 11.917,20.951L16.58,18.276Z" style="fill:white;"/>
    <path d="M11.999,0.335C12.09,0.335 12.164,0.409 12.164,0.5L12.164,4.068C12.164,4.159 12.09,4.233 11.999,4.233C11.908,4.233 11.834,4.159 11.834,4.068L11.834,0.5C11.834,0.409 11.908,0.335 11.999,0.335Z" style="fill:white;"/>
    <path d="M23.093,8.396C23.121,8.483 23.073,8.576 22.987,8.604L19.594,9.706C19.507,9.735 19.414,9.687 19.386,9.601C19.358,9.514 19.405,9.421 19.492,9.393L22.885,8.29C22.971,8.262 23.064,8.309 23.093,8.396Z" style="fill:white;"/>
    <path d="M7.436,18.286C7.509,18.34 7.526,18.443 7.472,18.516L5.375,21.402C5.321,21.476 5.218,21.492 5.144,21.439C5.07,21.385 5.054,21.282 5.108,21.208L7.205,18.322C7.259,18.249 7.362,18.232 7.436,18.286Z" style="fill:white;"/>
    <path d="M0.908,8.396C0.936,8.309 1.029,8.262 1.115,8.29L4.508,9.393C4.595,9.421 4.642,9.514 4.614,9.601C4.586,9.687 4.493,9.735 4.406,9.706L1.013,8.604C0.927,8.576 0.879,8.483 0.908,8.396Z" style="fill:white;"/>
    <path d="M16.665,7.372L13.525,7.372L12.014,9.571L10.502,7.372L7.362,7.372L10.48,11.801L7.192,16.466L10.332,16.466L12.014,14.028L13.695,16.466L16.835,16.466L13.548,11.801L16.665,7.372ZM12.285,10.341L13.339,10.48L12.855,9.512L12.285,10.341ZM13.122,9.124L14.338,9.197L13.756,8.202L13.122,9.124ZM14.039,8.032L14.654,9.083L15.394,8.032L14.039,8.032ZM14.341,9.528L13.198,9.46L13.693,10.448L14.341,9.528ZM13.428,10.824L12.333,10.681L12.921,11.544L13.428,10.824ZM12.963,12.117L13.567,12.974L12.492,13.16L12.95,12.113C12.954,12.114 12.959,12.116 12.963,12.117ZM13.436,14.474L13.876,13.413L14.545,14.362L13.436,14.474ZM14.214,15.806L14.795,14.716L15.563,15.806L14.214,15.806ZM14.426,14.706L13.928,15.642L13.357,14.814L14.426,14.706ZM13.562,13.31L13.095,14.434L12.452,13.502L13.562,13.31ZM12.173,13.065L11.555,12.16L12.606,12.074L12.173,13.065ZM11.782,13.201L11.07,14.234L10.484,13.236L11.782,13.201ZM10.819,14.599L10.191,15.509L9.628,14.599L10.819,14.599ZM9.986,15.806L9.986,15.806L8.465,15.806L9.276,14.655L9.986,15.806ZM9.548,14.269L10.181,13.371L10.708,14.269L9.548,14.269ZM11.176,12.191L11.643,12.875L10.509,12.905L11.095,12.073L11.172,12.185L11.17,12.192L11.176,12.191ZM11.323,11.821L11.683,10.949L10.817,11.134L11.064,11.484C11.091,11.496 11.115,11.516 11.132,11.541L11.323,11.821ZM10.768,9.652L10.477,10.651L9.774,9.652L10.768,9.652ZM8.772,8.228L9.442,9.18L10.075,8.221L8.772,8.228ZM11.041,9.322L10.379,8.359L9.744,9.322L11.041,9.322ZM10.776,10.805L11.158,9.492L11.688,10.263L11.646,10.257L11.861,10.574L10.776,10.805ZM11.681,11.819L12.069,10.879L12.655,11.739L11.681,11.819Z" style="fill:white;"/>
    <defs>
        <linearGradient id="_Linear1" x1="0" y1="0" x2="1" y2="0" gradientUnits="userSpaceOnUse" gradientTransform="matrix(-14.8673,-14.7971,14.7971,-14.8673,20.4244,16.9042)"><stop offset="0" style="stop-color:rgb(239,65,54);stop-opacity:1"/><stop offset="0.01" style="stop-color:rgb(239,65,54);stop-opacity:1"/><stop offset="0.32" style="stop-color:rgb(223,81,83);stop-opacity:1"/><stop offset="1" style="stop-color:rgb(172,11,27);stop-opacity:1"/></linearGradient>
    </defs>
</svg>
