<svg width="66" height="66" fill="none" xmlns="http://www.w3.org/2000/svg"><path d="M33 66c18.2254 0 33-14.7746 33-33S51.2254 0 33 0 0 14.7746 0 33s14.7746 33 33 33Z" fill="url(#a)"/><path d="M26.5479 54.8259c4.7252-2.7282 6.8049-7.9647 7.0657-13.0703.2486-4.8659-4.5526-7.695-8.8374-10.0143-5.4154-2.9313-9.1018-8.6626-9.1018-15.2411 0-2.505.5365-4.8866 1.4988-7.03806.2816-.62946-.4262-1.32462-.9942-.93361C8.40122 13.883 3.2998 22.8434 3.2998 33.0002c0 8.7392 2.89986-3.9973 9.574 17.0344 1.2416 3.9126 4.3381 7.3376 8.386 6.6563 1.824-.3069 3.6543-.9219 5.2881-1.865Z" fill="#1F1F1F"/><path d="M17.3467 16.4952c.0001 5.4563 3.4952 9.8756 7.7863 12.6542 4.0898 2.6483 8.9404-.0951 13.0914-2.6462 5.2463-3.2243 12.053-3.5511 17.7501-.2619 2.1694 1.2525 3.9636 2.908 5.3457 4.8171.4044.5586 1.3603.2932 1.3057-.3942-.7483-9.413-5.9575-18.3111-14.7536-23.38954-7.5684-4.3696 2.0118 4.51004-19.5392-.2259-4.0092-.88103-8.5236.08813-9.9575 3.93434-.6462 1.7331-1.0287 3.6257-1.0289 5.5121Z" fill="#1F1F1F"/><path d="M55.1384 27.6954c-4.7254-2.7281-10.3002-1.9109-14.8521.416-4.3383 2.2177-4.3878 7.7902-4.254 12.6606.1692 6.1556-2.9511 12.2137-8.6482 15.503-2.1694 1.2525-4.5002 1.9786-6.8446 2.221-.6859.0709-.9341 1.0314-.3115 1.3278 8.5261 4.0584 18.8367 3.9962 27.6328-1.0822 7.5683-4.3696-4.9117-.5127 9.9652-16.8085 2.7676-3.0315 4.1855-7.4257 1.5715-10.5907-1.1778-1.426-2.6256-2.7037-4.2591-3.647Z" fill="#1F1F1F"/><defs><linearGradient id="a" x1="12.276" y1="2.77213" x2="54.516" y2="62.9641" gradientUnits="userSpaceOnUse"><stop stop-color="#FCECB2"/><stop offset=".260417" stop-color="#FF8B89"/><stop offset=".520833" stop-color="#FC8ADC"/><stop offset=".755208" stop-color="#7954FF"/><stop offset="1" stop-color="#70BCFF"/></linearGradient></defs></svg>