<svg width="400" height="400" viewBox="0 0 400 400" fill="none" xmlns="http://www.w3.org/2000/svg">
<mask id="mask0_279_4" style="mask-type:alpha" maskUnits="userSpaceOnUse" x="0" y="0" width="400" height="400">
<circle cx="200" cy="200" r="200" fill="#D9D9D9"/>
</mask>
<g mask="url(#mask0_279_4)">
<path d="M0 400H400V1.52588e-05H0V400Z" fill="url(#paint0_linear_279_4)"/>
</g>
<mask id="mask1_279_4" style="mask-type:luminance" maskUnits="userSpaceOnUse" x="0" y="0" width="400" height="400">
<path d="M0 1.52588e-05H400V400H0V1.52588e-05Z" fill="white"/>
</mask>
<g mask="url(#mask1_279_4)">
<path d="M403.036 403.036H-3.0332V-3.03329H403.036V403.036Z" stroke="url(#paint1_linear_279_4)" stroke-width="1.33333" stroke-miterlimit="10"/>
<path d="M199.996 254.88L134.766 156.408L139.888 146.733H239.477L244.699 156.819L199.985 220.922L163.135 165.591H214.044V169.763H170.927L200.066 213.516L239.835 156.499L236.938 150.905H142.399L139.61 156.169L200.005 247.338L260.405 156.641L248.169 132.08H130.757L117.896 158.022L191.085 267.916H208.919L282.105 158.019L260.046 113.258H119.083L96.2019 159.402L181.008 286.741H218.999L303.799 159.402L271.502 94.4328H107.405L74.5047 160.786L170.927 305.563H229.08L325.494 160.783L283.305 75.6105H95.7297L52.8103 162.169L160.846 324.388H239.16L347.191 162.166L303.696 74.4467L307.432 72.5939L351.999 162.469L241.396 328.561H158.613L48.002 162.474L93.1408 71.4383H285.891L330.305 161.088L277.891 239.791L231.316 309.736H168.691L69.6964 161.091L104.819 90.2606H274.085L308.607 159.708L221.232 290.913H178.771L91.3936 159.711L116.494 109.086H262.641L286.91 158.33L211.152 272.088H188.852L113.088 158.33L128.171 127.911H250.752L265.216 156.944C243.477 189.588 221.738 222.233 199.996 254.88Z" fill="white"/>
<path d="M199.996 254.88L134.766 156.408L139.888 146.733H239.477L244.699 156.819L199.985 220.922L163.135 165.591H214.044V169.763H170.927L200.066 213.516L239.835 156.499L236.938 150.905H142.399L139.61 156.169L200.005 247.338L260.405 156.641L248.169 132.08H130.757L117.896 158.022L191.085 267.916H208.919L282.105 158.019L260.046 113.258H119.083L96.2019 159.402L181.008 286.741H218.999L303.799 159.402L271.502 94.4328H107.405L74.5047 160.786L170.927 305.563H229.08L325.494 160.783L283.305 75.6105H95.7297L52.8103 162.169L160.846 324.388H239.16L347.191 162.166L303.696 74.4467L307.432 72.5939L351.999 162.469L241.396 328.561H158.613L48.002 162.474L93.1408 71.4383H285.891L330.305 161.088L277.891 239.791L231.316 309.736H168.691L69.6964 161.091L104.819 90.2606H274.085L308.607 159.708L221.232 290.913H178.771L91.3936 159.711L116.494 109.086H262.641L286.91 158.33L211.152 272.088H188.852L113.088 158.33L128.171 127.911H250.752L265.216 156.944C243.477 189.588 221.738 222.233 199.996 254.88Z" stroke="white" stroke-width="2.66667" stroke-miterlimit="10"/>
</g>
<defs>
<linearGradient id="paint0_linear_279_4" x1="-3.03436" y1="200" x2="403.034" y2="200" gradientUnits="userSpaceOnUse">
<stop stop-color="#0092D5"/>
<stop offset="0.380022" stop-color="#0092D5"/>
<stop offset="0.656313" stop-color="#475FA9"/>
<stop offset="0.776414" stop-color="#475FA9"/>
<stop offset="0.811727" stop-color="#475FA9"/>
<stop offset="1" stop-color="#475FA9"/>
</linearGradient>
<linearGradient id="paint1_linear_279_4" x1="-4.42312" y1="200" x2="404.424" y2="200" gradientUnits="userSpaceOnUse">
<stop stop-color="#0092D5"/>
<stop offset="0.380022" stop-color="#0092D5"/>
<stop offset="0.656313" stop-color="#475FA9"/>
<stop offset="0.776414" stop-color="#475FA9"/>
<stop offset="0.811727" stop-color="#475FA9"/>
<stop offset="1" stop-color="#475FA9"/>
</linearGradient>
</defs>
</svg>
