<?xml version="1.0" encoding="UTF-8"?>
<svg id="Layer_1" data-name="Layer 1" xmlns="http://www.w3.org/2000/svg" xmlns:xlink="http://www.w3.org/1999/xlink" viewBox="0 0 1224.45 1224.45">
  <defs>
    <style>
      .cls-1 {
        fill: url(#linear-gradient);
      }

      .cls-1, .cls-2 {
        stroke-width: 0px;
      }

      .cls-2 {
        fill: #fff;
      }
    </style>
    <linearGradient id="linear-gradient" x1="612.22" y1="-8798.95" x2="612.22" y2="-7574.5" gradientTransform="translate(0 -7574.5) scale(1 -1)" gradientUnits="userSpaceOnUse">
      <stop offset="0" stop-color="#a9883c"/>
      <stop offset=".69" stop-color="#c9ab67"/>
      <stop offset="1" stop-color="#c9b78d"/>
    </linearGradient>
  </defs>
  <path class="cls-2" d="m306.32,629.49c4.55-4.53,7.17-10.83,7.17-17.28s-2.62-12.78-7.17-17.31l-132.27-132.24c-4.62-4.64-10.77-7.19-17.31-7.19s-12.69,2.55-17.31,7.16L7.17,594.9c-4.62,4.61-7.17,10.78-7.17,17.31s2.55,12.67,7.17,17.28l132.24,132.27c9.24,9.27,25.39,9.24,34.63.03l132.27-132.3h.01Z"/>
  <path class="cls-2" d="m1217.3,594.88l-132.27-132.24c-4.77-4.77-11.04-7.16-17.31-7.16s-12.54,2.39-17.31,7.16l-132.27,132.27c-9.53,9.55-9.53,25.07,0,34.59l132.27,132.27c9.15,9.24,25.47,9.16,34.62.03l132.27-132.3c9.53-9.52,9.53-25.04,0-34.62h0Z"/>
  <path class="cls-1" d="m992.61,854.67c4.86-4.83,7.52-11.27,7.52-18.13s-2.66-13.33-7.52-18.19l-137.89-137.87c-10.01-10.04-26.31-10.01-36.32,0l-3.21,3.21c-12.34,12.29-33.88,12.29-46.22,0l-3.88-3.87c-6.1-6.12-9.59-14.57-9.59-23.15s3.48-17.03,9.57-23.12l3.21-3.21c4.86-4.86,7.53-11.27,7.53-18.13s-2.67-13.3-7.53-18.19l-137.23-137.21c-10.38-10.37-27.27-10.37-37.65.03l-1.89,1.87c-6.34,6.34-14.79,9.85-23.77,9.85s-17.43-3.51-23.78-9.85l-2.54-2.52c-6.25-6.28-9.85-14.95-9.85-23.81s3.5-17.45,9.85-23.81l2.54-2.52c4.84-4.83,7.52-11.3,7.52-18.16s-2.66-13.3-7.52-18.13c-14.51-14.51-14.51-38.16,0-52.67,6.35-6.36,14.8-9.88,23.78-9.88h.01c9,.03,17.45,3.51,23.8,9.9l1.84,1.81c10.11,10.12,27.61,10.09,37.66,0l1.87-1.87c13.11-13.06,34.44-13.11,47.58,0l2.54,2.58c6.35,6.34,9.85,14.79,9.85,23.76s-3.5,17.45-9.86,23.81l-1.87,1.87c-4.95,4.94-7.79,11.8-7.79,18.82s2.77,13.8,7.79,18.82l137.25,137.23c10.04,10.07,26.32,10.04,36.3,0l137.91-137.89c4.86-4.83,7.52-11.3,7.52-18.16s-2.66-13.3-7.52-18.13l-137.89-137.92c-9.72-9.76-26.63-9.74-36.32-.03l-3.21,3.24c-12.32,12.32-33.85,12.37-46.25,0l-3.87-3.87c-12.73-12.76-12.73-33.52,0-46.25l3.21-3.24c4.79-4.77,7.53-11.38,7.53-18.13s-2.74-13.36-7.53-18.13L630.38,7.51c-10.04-10.04-26.32-9.98-36.3,0l-137.23,137.23c-4.95,4.94-7.79,11.8-7.79,18.82s2.84,13.88,7.79,18.82l1.87,1.87c6.36,6.36,9.86,14.81,9.86,23.81s-3.5,17.42-9.86,23.78l-2.51,2.52c-6.36,6.36-14.81,9.87-23.8,9.87h-.01c-9-.03-17.45-3.51-23.8-9.9l-1.87-1.84c-10.07-10.07-27.64-10.04-37.65,0l-137.25,137.26c-4.77,4.75-7.52,11.36-7.52,18.13s2.74,13.39,7.52,18.19l137.92,137.87c10.01,10.04,26.31,10.07,36.32,0l3.17-3.18c12.77-12.73,33.49-12.75,46.26-.03l3.87,3.87c6.19,6.2,9.59,14.43,9.59,23.12s-3.4,16.95-9.59,23.12l-3.2,3.21c-10,10.01-10,26.28,0,36.32l137.91,137.89c9.71,9.74,26.72,9.66,36.3.03l3.21-3.24c6.08-6.09,14.51-9.57,23.12-9.57s17.05,3.48,23.11,9.6l3.87,3.84c6.17,6.17,9.57,14.4,9.57,23.12s-3.4,16.95-9.57,23.12l-3.21,3.21c-4.77,4.77-7.52,11.41-7.52,18.16s2.74,13.39,7.52,18.13l3.21,3.21c6.19,6.2,9.59,14.43,9.59,23.15s-3.4,16.92-9.59,23.1l-3.87,3.89c-12.32,12.34-33.85,12.34-46.25,0l-3.2-3.24c-9.98-9.96-26.26-10.01-36.3.03l-3.21,3.21c-12.34,12.34-33.88,12.37-46.22-.03l-3.88-3.84c-6.19-6.2-9.59-14.43-9.59-23.15s3.48-17.03,9.57-23.12l3.21-3.21c4.77-4.75,7.52-11.36,7.52-18.13s-2.74-13.39-7.52-18.19l-137.89-137.87c-10.01-10.04-26.31-10.01-36.32,0l-137.92,137.89c-4.77,4.77-7.52,11.41-7.52,18.16s2.74,13.39,7.52,18.13l137.92,137.89c9.71,9.77,26.61,9.77,36.32,0l26.31-26.31,50.13,50.12-26.38,26.38c-4.8,4.8-7.5,11.32-7.5,18.12s2.7,13.31,7.5,18.12l137.95,137.94c10.04,10.07,26.32,10.04,36.3,0l137.91-137.92c4.79-4.77,7.53-11.38,7.53-18.13s-2.74-13.36-7.53-18.13l-3.21-3.21c-6.17-6.23-9.57-14.43-9.57-23.15s3.4-16.9,9.57-23.1l3.91-3.89c12.32-12.34,33.86-12.37,46.21.03l3.2,3.15c9.74,9.77,26.62,9.77,36.33,0l137.89-137.89h0Zm-156.05,57.74l-28.68-28.69-148.45,148.48,28.68,28.66-75.89,75.87-75.87-75.87,28.69-28.69-148.45-148.45-28.68,28.69-75.87-75.87,75.87-75.87,75.87,75.87-28.68,28.66,148.44,148.48,28.68-28.69,28.69,28.69,148.45-148.45-28.68-28.69,28.66-28.66-148.44-148.48-28.69,28.69-75.87-75.87,28.69-28.69-148.45-148.43-28.68,28.66-75.87-75.87,75.87-75.9,28.68,28.72,148.45-148.45-28.69-28.69,75.87-75.87,75.89,75.87-28.68,28.69,148.45,148.43,28.68-28.69,75.86,75.9-75.86,75.87-75.87-75.87,28.68-28.69-148.45-148.45-28.69,28.69-28.68-28.66-148.44,148.43,28.68,28.69-28.68,28.69,148.44,148.43,28.68-28.67,75.89,75.87-28.68,28.69,148.44,148.45,28.69-28.69,75.86,75.87-75.86,75.87h0Z"/>
</svg>