<svg width="54" height="53" viewBox="0 0 54 53" fill="none" xmlns="http://www.w3.org/2000/svg">
<path d="M40.0064 13.0363C43.6063 13.0363 46.5246 10.118 46.5246 6.51815C46.5246 2.91827 43.6063 0 40.0064 0C36.4066 0 33.4883 2.91827 33.4883 6.51815C33.4883 10.118 36.4066 13.0363 40.0064 13.0363Z" fill="white"/>
<path d="M26.9704 51.7181C41.1338 51.7181 52.6155 40.2363 52.6155 26.0729C52.6155 11.9095 41.1338 0.427734 26.9704 0.427734C12.8069 0.427734 1.3252 11.9095 1.3252 26.0729C1.3252 40.2363 12.8069 51.7181 26.9704 51.7181Z" stroke="white" stroke-width="0.854839"/>
<path d="M26.9705 38.2545C33.6981 38.2545 39.152 32.8007 39.152 26.0731C39.152 19.3454 33.6981 13.8916 26.9705 13.8916C20.2429 13.8916 14.7891 19.3454 14.7891 26.0731C14.7891 32.8007 20.2429 38.2545 26.9705 38.2545Z" fill="white"/>
</svg>
