<svg width="42" height="42" viewBox="0 0 42 42" fill="none" xmlns="http://www.w3.org/2000/svg">
<g clip-path="url(#clip0_1_721)">
<path d="M20.9116 39.9819C20.9405 39.9941 20.9715 40.0002 21.0028 40C21.0339 40.0001 21.0647 39.9939 21.0934 39.9818C21.122 39.9696 21.148 39.9518 21.1697 39.9293L27.5711 33.478C27.6156 33.4335 27.6408 33.373 27.6411 33.3097V23.4182H41.7636C41.8104 23.4178 41.856 23.4036 41.8948 23.3773C41.9336 23.3509 41.9639 23.3136 41.9818 23.2701C41.9997 23.2265 42.0045 23.1786 41.9957 23.1323C41.9868 23.086 41.9645 23.0434 41.9318 23.0097L21.1671 2.07049C21.1452 2.04816 21.1191 2.03043 21.0904 2.01833C21.0616 2.00623 21.0308 2 20.9996 2C20.9685 2 20.9376 2.00623 20.9089 2.01833C20.8801 2.03043 20.854 2.04816 20.8321 2.07049L0.067497 23.0097C0.0350542 23.0432 0.0130743 23.0855 0.00428615 23.1315C-0.00450201 23.1774 0.000288552 23.225 0.0180631 23.2682C0.0358377 23.3114 0.0658135 23.3485 0.104269 23.3747C0.142725 23.4009 0.187967 23.4151 0.234378 23.4156H14.3645V33.3072C14.3649 33.3704 14.3901 33.4309 14.4346 33.4754L20.8347 39.9293C20.8566 39.9519 20.8827 39.9698 20.9116 39.9819Z" fill="#181E2C"/>
<mask id="mask0_1_721" style="mask-type:luminance" maskUnits="userSpaceOnUse" x="15" y="21" width="2" height="14">
<path d="M15.5477 22.5962V32.8154L16.9699 34.2389V21.174L15.5477 22.5962Z" fill="white"/>
</mask>
<g mask="url(#mask0_1_721)">
<mask id="mask1_1_721" style="mask-type:luminance" maskUnits="userSpaceOnUse" x="15" y="21" width="2" height="14">
<path d="M16.9699 21.174H15.5477V34.2389H16.9699V21.174Z" fill="white"/>
</mask>
<g mask="url(#mask1_1_721)">
<path d="M17.1279 34.3637H15.4152V21.0899H17.1279V34.3637Z" fill="white"/>
</g>
</g>
<mask id="mask2_1_721" style="mask-type:luminance" maskUnits="userSpaceOnUse" x="17" y="18" width="3" height="19">
<path d="M17.9185 20.2247V35.1871L19.3419 36.6105V18.8025L17.9185 20.2247Z" fill="white"/>
</mask>
<g mask="url(#mask2_1_721)">
<mask id="mask3_1_721" style="mask-type:luminance" maskUnits="userSpaceOnUse" x="17" y="18" width="3" height="19">
<path d="M19.3407 18.8025H17.9185V36.6093H19.3407V18.8025Z" fill="white"/>
</mask>
<g mask="url(#mask3_1_721)">
<path d="M19.7078 36.7492H17.7504V18.7041H19.7078V36.7492Z" fill="white"/>
</g>
</g>
<mask id="mask4_1_721" style="mask-type:luminance" maskUnits="userSpaceOnUse" x="25" y="21" width="2" height="14">
<path d="M26.4563 22.5962V32.8154L25.0341 34.2389V21.174L26.4563 22.5962Z" fill="white"/>
</mask>
<g mask="url(#mask4_1_721)">
<mask id="mask5_1_721" style="mask-type:luminance" maskUnits="userSpaceOnUse" x="25" y="21" width="2" height="14">
<path d="M26.4563 21.174H25.0341V34.2389H26.4563V21.174Z" fill="white"/>
</mask>
<g mask="url(#mask5_1_721)">
<path d="M26.589 34.3637H24.8762V21.0899H26.589V34.3637Z" fill="white"/>
</g>
</g>
<mask id="mask6_1_721" style="mask-type:luminance" maskUnits="userSpaceOnUse" x="22" y="18" width="3" height="19">
<path d="M24.0856 20.2245V35.1869L22.6621 36.6103V18.7985L24.0856 20.2245Z" fill="white"/>
</mask>
<g mask="url(#mask6_1_721)">
<mask id="mask7_1_721" style="mask-type:luminance" maskUnits="userSpaceOnUse" x="22" y="18" width="3" height="19">
<path d="M24.0843 18.7985H22.6621V36.6103H24.0843V18.7985Z" fill="white"/>
</mask>
<g mask="url(#mask7_1_721)">
<path d="M24.4374 36.748H22.48V18.7029H24.4374V36.748Z" fill="white"/>
</g>
</g>
<mask id="mask8_1_721" style="mask-type:luminance" maskUnits="userSpaceOnUse" x="20" y="17" width="2" height="22">
<path d="M20.2905 17.8543V37.5586L21.0016 38.2697L21.714 37.5586V17.8543L21.0029 17.1432L20.2905 17.8543Z" fill="white"/>
</mask>
<g mask="url(#mask8_1_721)">
<mask id="mask9_1_721" style="mask-type:luminance" maskUnits="userSpaceOnUse" x="20" y="17" width="2" height="22">
<path d="M21.7127 17.1432H20.2905V38.271H21.7127V17.1432Z" fill="white"/>
</mask>
<g mask="url(#mask9_1_721)">
<path d="M21.8591 38.4008H20.1464V17.0525H21.8591V38.4008Z" fill="white"/>
</g>
</g>
<mask id="mask10_1_721" style="mask-type:luminance" maskUnits="userSpaceOnUse" x="2" y="3" width="21" height="20">
<path d="M21.0015 3.72797L2.51428 22.214H4.52678L22.0084 4.73472L21.0015 3.72797Z" fill="white"/>
</mask>
<g mask="url(#mask10_1_721)">
<mask id="mask11_1_721" style="mask-type:luminance" maskUnits="userSpaceOnUse" x="2" y="3" width="21" height="20">
<path d="M22.0084 3.72797H2.51428V22.2127H22.0084V3.72797Z" fill="white"/>
</mask>
<g mask="url(#mask11_1_721)">
<path d="M22.2073 22.3579H2.38562V3.6399H22.2073V22.3579Z" fill="white"/>
</g>
</g>
<mask id="mask12_1_721" style="mask-type:luminance" maskUnits="userSpaceOnUse" x="5" y="5" width="19" height="18">
<path d="M22.6788 5.40497L5.86755 22.2139H7.88133L23.6856 6.41045L22.6788 5.40497Z" fill="white"/>
</mask>
<g mask="url(#mask12_1_721)">
<mask id="mask13_1_721" style="mask-type:luminance" maskUnits="userSpaceOnUse" x="5" y="5" width="19" height="18">
<path d="M23.6856 5.40497H5.86755V22.2139H23.6856V5.40497Z" fill="white"/>
</mask>
<g mask="url(#mask13_1_721)">
<path d="M23.822 22.3653H5.71326V5.29889H23.822V22.3653Z" fill="white"/>
</g>
</g>
<mask id="mask14_1_721" style="mask-type:luminance" maskUnits="userSpaceOnUse" x="9" y="7" width="17" height="16">
<path d="M24.3561 7.08191L9.22217 22.2138H11.2347L25.363 8.08739L24.3561 7.08191Z" fill="white"/>
</mask>
<g mask="url(#mask14_1_721)">
<mask id="mask15_1_721" style="mask-type:luminance" maskUnits="userSpaceOnUse" x="9" y="7" width="17" height="16">
<path d="M25.363 7.08191H9.22217V22.2138H25.363V7.08191Z" fill="white"/>
</mask>
<g mask="url(#mask15_1_721)">
<path d="M25.6802 22.373H9.03979V7.0194H25.6802V22.373Z" fill="white"/>
</g>
</g>
<mask id="mask16_1_721" style="mask-type:luminance" maskUnits="userSpaceOnUse" x="12" y="8" width="16" height="15">
<path d="M26.0335 8.75903L12.5769 22.2138H14.5881L27.0391 9.76451L26.0335 8.75903Z" fill="white"/>
</mask>
<g mask="url(#mask16_1_721)">
<mask id="mask17_1_721" style="mask-type:luminance" maskUnits="userSpaceOnUse" x="12" y="8" width="16" height="15">
<path d="M27.0404 8.75903H12.5769V22.2138H27.0404V8.75903Z" fill="white"/>
</mask>
<g mask="url(#mask17_1_721)">
<path d="M27.3553 22.3806H12.4279V8.6786H27.3553V22.3806Z" fill="white"/>
</g>
</g>
<mask id="mask18_1_721" style="mask-type:luminance" maskUnits="userSpaceOnUse" x="26" y="10" width="14" height="13">
<path d="M27.7095 10.4348L26.7039 11.4416L37.4776 22.2138H39.4901L27.7095 10.4348Z" fill="white"/>
</mask>
<g mask="url(#mask18_1_721)">
<mask id="mask19_1_721" style="mask-type:luminance" maskUnits="userSpaceOnUse" x="26" y="10" width="14" height="13">
<path d="M39.4901 10.4348H26.7039V22.2138H39.4901V10.4348Z" fill="white"/>
</mask>
<g mask="url(#mask19_1_721)">
<path d="M39.7717 22.3885H26.5573V10.3381H39.7717V22.3885Z" fill="white"/>
</g>
</g>
<mask id="mask20_1_721" style="mask-type:luminance" maskUnits="userSpaceOnUse" x="25" y="12" width="12" height="11">
<path d="M25.0264 13.1186L34.1228 22.2138H36.1353L26.0333 12.1118L25.0264 13.1186Z" fill="white"/>
</mask>
<g mask="url(#mask20_1_721)">
<mask id="mask21_1_721" style="mask-type:luminance" maskUnits="userSpaceOnUse" x="25" y="12" width="12" height="11">
<path d="M36.1353 12.1118H25.0264V22.2125H36.1353V12.1118Z" fill="white"/>
</mask>
<g mask="url(#mask21_1_721)">
<path d="M36.3839 22.3961H24.8824V11.9972H36.3839V22.3961Z" fill="white"/>
</g>
</g>
<mask id="mask22_1_721" style="mask-type:luminance" maskUnits="userSpaceOnUse" x="23" y="13" width="10" height="10">
<path d="M23.3506 14.7945L30.7697 22.2139H32.7822L24.3562 13.789L23.3506 14.7945Z" fill="white"/>
</mask>
<g mask="url(#mask22_1_721)">
<mask id="mask23_1_721" style="mask-type:luminance" maskUnits="userSpaceOnUse" x="23" y="13" width="10" height="10">
<path d="M32.7822 13.789H23.3506V22.2139H32.7822V13.789Z" fill="white"/>
</mask>
<g mask="url(#mask23_1_721)">
<path d="M32.9963 22.3425H23.2078V13.7176H32.9963V22.3425Z" fill="white"/>
</g>
</g>
<mask id="mask24_1_721" style="mask-type:luminance" maskUnits="userSpaceOnUse" x="21" y="15" width="9" height="8">
<path d="M21.6733 16.4716L27.4164 22.2139H29.4277L22.679 15.4648L21.6733 16.4716Z" fill="white"/>
</mask>
<g mask="url(#mask24_1_721)">
<mask id="mask25_1_721" style="mask-type:luminance" maskUnits="userSpaceOnUse" x="21" y="15" width="9" height="8">
<path d="M29.4289 15.4648H21.6733V22.2126H29.4289V15.4648Z" fill="white"/>
</mask>
<g mask="url(#mask25_1_721)">
<path d="M29.6072 22.35H21.5317V15.3766H29.6072V22.35Z" fill="white"/>
</g>
</g>
</g>
<defs>
<clipPath id="clip0_1_721">
<rect width="42" height="38" fill="white" transform="translate(0 2)"/>
</clipPath>
</defs>
</svg>
