<svg width="42" height="38" viewBox="0 0 42 38" fill="none" xmlns="http://www.w3.org/2000/svg">
<path d="M20.9116 37.9819C20.9405 37.9941 20.9715 38.0002 21.0028 38C21.0339 38.0001 21.0647 37.9939 21.0934 37.9818C21.122 37.9696 21.148 37.9518 21.1697 37.9293L27.5711 31.478C27.6156 31.4335 27.6408 31.373 27.6411 31.3097V21.4182H41.7636C41.8104 21.4178 41.856 21.4036 41.8948 21.3773C41.9336 21.3509 41.9639 21.3136 41.9818 21.2701C41.9997 21.2265 42.0045 21.1786 41.9957 21.1323C41.9868 21.086 41.9645 21.0434 41.9318 21.0097L21.1671 0.0704919C21.1452 0.0481589 21.1191 0.0304298 21.0904 0.01833C21.0616 0.00623021 21.0308 0 20.9996 0C20.9685 0 20.9376 0.00623021 20.9089 0.01833C20.8801 0.0304298 20.854 0.0481589 20.8321 0.0704919L0.067497 21.0097C0.0350542 21.0432 0.0130743 21.0855 0.00428615 21.1315C-0.00450201 21.1774 0.000288554 21.225 0.0180631 21.2682C0.0358377 21.3114 0.0658135 21.3485 0.104269 21.3747C0.142725 21.4009 0.187967 21.4151 0.234378 21.4156H14.3645V31.3072C14.3649 31.3704 14.3901 31.4309 14.4346 31.4754L20.8347 37.9293C20.8566 37.9519 20.8827 37.9698 20.9116 37.9819Z" fill="#181E2C"/>
<mask id="mask0_3119_8585" style="mask-type:luminance" maskUnits="userSpaceOnUse" x="15" y="19" width="2" height="14">
<path d="M15.5477 20.5962V30.8154L16.9699 32.2389V19.174L15.5477 20.5962Z" fill="white"/>
</mask>
<g mask="url(#mask0_3119_8585)">
<mask id="mask1_3119_8585" style="mask-type:luminance" maskUnits="userSpaceOnUse" x="15" y="19" width="2" height="14">
<path d="M16.9699 19.174H15.5477V32.2389H16.9699V19.174Z" fill="white"/>
</mask>
<g mask="url(#mask1_3119_8585)">
<rect width="1.71275" height="13.2738" transform="matrix(1 0 0 -1 15.4152 32.3637)" fill="white"/>
</g>
</g>
<mask id="mask2_3119_8585" style="mask-type:luminance" maskUnits="userSpaceOnUse" x="17" y="16" width="3" height="19">
<path d="M17.9185 18.2247V33.1871L19.3419 34.6105V16.8025L17.9185 18.2247Z" fill="white"/>
</mask>
<g mask="url(#mask2_3119_8585)">
<mask id="mask3_3119_8585" style="mask-type:luminance" maskUnits="userSpaceOnUse" x="17" y="16" width="3" height="19">
<path d="M19.3407 16.8025H17.9185V34.6093H19.3407V16.8025Z" fill="white"/>
</mask>
<g mask="url(#mask3_3119_8585)">
<rect width="1.95743" height="18.0451" transform="matrix(1 0 0 -1 17.7504 34.7492)" fill="white"/>
</g>
</g>
<mask id="mask4_3119_8585" style="mask-type:luminance" maskUnits="userSpaceOnUse" x="25" y="19" width="2" height="14">
<path d="M26.4563 20.5962V30.8154L25.0341 32.2389V19.174L26.4563 20.5962Z" fill="white"/>
</mask>
<g mask="url(#mask4_3119_8585)">
<mask id="mask5_3119_8585" style="mask-type:luminance" maskUnits="userSpaceOnUse" x="25" y="19" width="2" height="14">
<path d="M26.4563 19.174H25.0341V32.2389H26.4563V19.174Z" fill="white"/>
</mask>
<g mask="url(#mask5_3119_8585)">
<rect width="1.71275" height="13.2738" transform="matrix(1 0 0 -1 24.8762 32.3637)" fill="white"/>
</g>
</g>
<mask id="mask6_3119_8585" style="mask-type:luminance" maskUnits="userSpaceOnUse" x="22" y="16" width="3" height="19">
<path d="M24.0856 18.2245V33.1869L22.6621 34.6103V16.7985L24.0856 18.2245Z" fill="white"/>
</mask>
<g mask="url(#mask6_3119_8585)">
<mask id="mask7_3119_8585" style="mask-type:luminance" maskUnits="userSpaceOnUse" x="22" y="16" width="3" height="19">
<path d="M24.0843 16.7985H22.6621V34.6103H24.0843V16.7985Z" fill="white"/>
</mask>
<g mask="url(#mask7_3119_8585)">
<rect width="1.95743" height="18.0451" transform="matrix(1 0 0 -1 22.48 34.748)" fill="white"/>
</g>
</g>
<mask id="mask8_3119_8585" style="mask-type:luminance" maskUnits="userSpaceOnUse" x="20" y="15" width="2" height="22">
<path d="M20.2905 15.8543V35.5586L21.0016 36.2697L21.714 35.5586V15.8543L21.0029 15.1432L20.2905 15.8543Z" fill="white"/>
</mask>
<g mask="url(#mask8_3119_8585)">
<mask id="mask9_3119_8585" style="mask-type:luminance" maskUnits="userSpaceOnUse" x="20" y="15" width="2" height="22">
<path d="M21.7127 15.1432H20.2905V36.271H21.7127V15.1432Z" fill="white"/>
</mask>
<g mask="url(#mask9_3119_8585)">
<rect width="1.71275" height="21.3483" transform="matrix(1 0 0 -1 20.1464 36.4008)" fill="white"/>
</g>
</g>
<mask id="mask10_3119_8585" style="mask-type:luminance" maskUnits="userSpaceOnUse" x="2" y="1" width="21" height="20">
<path d="M21.0015 1.72797L2.51428 20.214H4.52678L22.0084 2.73472L21.0015 1.72797Z" fill="white"/>
</mask>
<g mask="url(#mask10_3119_8585)">
<mask id="mask11_3119_8585" style="mask-type:luminance" maskUnits="userSpaceOnUse" x="2" y="1" width="21" height="20">
<path d="M22.0084 1.72797H2.51428V20.2127H22.0084V1.72797Z" fill="white"/>
</mask>
<g mask="url(#mask11_3119_8585)">
<rect width="19.8217" height="18.718" transform="matrix(1 0 0 -1 2.38562 20.3579)" fill="white"/>
</g>
</g>
<mask id="mask12_3119_8585" style="mask-type:luminance" maskUnits="userSpaceOnUse" x="5" y="3" width="19" height="18">
<path d="M22.6788 3.40497L5.86755 20.2139H7.88133L23.6856 4.41045L22.6788 3.40497Z" fill="white"/>
</mask>
<g mask="url(#mask12_3119_8585)">
<mask id="mask13_3119_8585" style="mask-type:luminance" maskUnits="userSpaceOnUse" x="5" y="3" width="19" height="18">
<path d="M23.6856 3.40497H5.86755V20.2139H23.6856V3.40497Z" fill="white"/>
</mask>
<g mask="url(#mask13_3119_8585)">
<rect width="18.1087" height="17.0664" transform="matrix(1 0 0 -1 5.71326 20.3653)" fill="white"/>
</g>
</g>
<mask id="mask14_3119_8585" style="mask-type:luminance" maskUnits="userSpaceOnUse" x="9" y="5" width="17" height="16">
<path d="M24.3561 5.08191L9.22217 20.2138H11.2347L25.363 6.08739L24.3561 5.08191Z" fill="white"/>
</mask>
<g mask="url(#mask14_3119_8585)">
<mask id="mask15_3119_8585" style="mask-type:luminance" maskUnits="userSpaceOnUse" x="9" y="5" width="17" height="16">
<path d="M25.363 5.08191H9.22217V20.2138H25.363V5.08191Z" fill="white"/>
</mask>
<g mask="url(#mask15_3119_8585)">
<rect width="16.6404" height="15.3536" transform="matrix(1 0 0 -1 9.03979 20.373)" fill="white"/>
</g>
</g>
<mask id="mask16_3119_8585" style="mask-type:luminance" maskUnits="userSpaceOnUse" x="12" y="6" width="16" height="15">
<path d="M26.0335 6.75903L12.5769 20.2138H14.5881L27.0391 7.76451L26.0335 6.75903Z" fill="white"/>
</mask>
<g mask="url(#mask16_3119_8585)">
<mask id="mask17_3119_8585" style="mask-type:luminance" maskUnits="userSpaceOnUse" x="12" y="6" width="16" height="15">
<path d="M27.0404 6.75903H12.5769V20.2138H27.0404V6.75903Z" fill="white"/>
</mask>
<g mask="url(#mask17_3119_8585)">
<rect width="14.9274" height="13.702" transform="matrix(1 0 0 -1 12.4279 20.3806)" fill="white"/>
</g>
</g>
<mask id="mask18_3119_8585" style="mask-type:luminance" maskUnits="userSpaceOnUse" x="26" y="8" width="14" height="13">
<path d="M27.7095 8.43481L26.7039 9.44157L37.4776 20.2138H39.4901L27.7095 8.43481Z" fill="white"/>
</mask>
<g mask="url(#mask18_3119_8585)">
<mask id="mask19_3119_8585" style="mask-type:luminance" maskUnits="userSpaceOnUse" x="26" y="8" width="14" height="13">
<path d="M39.4901 8.43481H26.7039V20.2138H39.4901V8.43481Z" fill="white"/>
</mask>
<g mask="url(#mask19_3119_8585)">
<rect width="13.2144" height="12.0504" transform="matrix(1 0 0 -1 26.5573 20.3885)" fill="white"/>
</g>
</g>
<mask id="mask20_3119_8585" style="mask-type:luminance" maskUnits="userSpaceOnUse" x="25" y="10" width="12" height="11">
<path d="M25.0264 11.1186L34.1228 20.2138H36.1353L26.0333 10.1118L25.0264 11.1186Z" fill="white"/>
</mask>
<g mask="url(#mask20_3119_8585)">
<mask id="mask21_3119_8585" style="mask-type:luminance" maskUnits="userSpaceOnUse" x="25" y="10" width="12" height="11">
<path d="M36.1353 10.1118H25.0264V20.2125H36.1353V10.1118Z" fill="white"/>
</mask>
<g mask="url(#mask21_3119_8585)">
<rect width="11.5015" height="10.3989" transform="matrix(1 0 0 -1 24.8824 20.3961)" fill="white"/>
</g>
</g>
<mask id="mask22_3119_8585" style="mask-type:luminance" maskUnits="userSpaceOnUse" x="23" y="11" width="10" height="10">
<path d="M23.3506 12.7945L30.7697 20.2139H32.7822L24.3562 11.789L23.3506 12.7945Z" fill="white"/>
</mask>
<g mask="url(#mask22_3119_8585)">
<mask id="mask23_3119_8585" style="mask-type:luminance" maskUnits="userSpaceOnUse" x="23" y="11" width="10" height="10">
<path d="M32.7822 11.789H23.3506V20.2139H32.7822V11.789Z" fill="white"/>
</mask>
<g mask="url(#mask23_3119_8585)">
<rect width="9.78848" height="8.62494" transform="matrix(1 0 0 -1 23.2078 20.3425)" fill="white"/>
</g>
</g>
<mask id="mask24_3119_8585" style="mask-type:luminance" maskUnits="userSpaceOnUse" x="21" y="13" width="9" height="8">
<path d="M21.6733 14.4716L27.4164 20.2139H29.4277L22.679 13.4648L21.6733 14.4716Z" fill="white"/>
</mask>
<g mask="url(#mask24_3119_8585)">
<mask id="mask25_3119_8585" style="mask-type:luminance" maskUnits="userSpaceOnUse" x="21" y="13" width="9" height="8">
<path d="M29.4289 13.4648H21.6733V20.2126H29.4289V13.4648Z" fill="white"/>
</mask>
<g mask="url(#mask25_3119_8585)">
<rect width="8.0755" height="6.97336" transform="matrix(1 0 0 -1 21.5317 20.35)" fill="white"/>
</g>
</g>
</svg>
