<svg width="500" height="500" viewBox="0 0 500 500" fill="none" xmlns="http://www.w3.org/2000/svg">
<g clip-path="url(#clip0_118_733)">
<path d="M250.056 104.871C299.849 104.871 340.214 81.3951 340.214 52.4356C340.214 23.4762 299.849 0 250.056 0C200.263 0 159.898 23.4762 159.898 52.4356C159.898 81.3951 200.263 104.871 250.056 104.871Z" fill="#E6007A"/>
<path d="M250.056 499.965C299.849 499.965 340.214 476.488 340.214 447.529C340.214 418.57 299.849 395.093 250.056 395.093C200.263 395.093 159.898 418.57 159.898 447.529C159.898 476.488 200.263 499.965 250.056 499.965Z" fill="#E6007A"/>
<path d="M124.415 177.455C149.312 134.334 149.15 87.6317 124.054 73.1423C98.9583 58.6528 58.4316 81.8629 33.5351 124.984C8.63864 168.104 8.80022 214.807 33.896 229.296C58.9918 243.786 99.5186 220.575 124.415 177.455Z" fill="#E6007A"/>
<path d="M466.539 374.978C491.435 331.857 491.287 285.163 466.209 270.683C441.13 256.203 400.617 279.422 375.72 322.542C350.824 365.663 350.972 412.357 376.051 426.837C401.129 441.317 441.642 418.099 466.539 374.978Z" fill="#E6007A"/>
<path d="M124.067 426.825C149.162 412.335 149.324 365.633 124.428 322.512C99.531 279.391 59.0043 256.181 33.9085 270.671C8.81268 285.16 8.65108 331.862 33.5476 374.983C58.444 418.104 98.9708 441.314 124.067 426.825Z" fill="#E6007A"/>
<path d="M466.23 229.308C491.309 214.828 491.456 168.134 466.56 125.013C441.663 81.8922 401.15 58.6741 376.072 73.1538C350.993 87.6335 350.845 134.328 375.741 177.449C400.638 220.569 441.151 243.787 466.23 229.308Z" fill="#E6007A"/>
</g>
<defs>
<clipPath id="clip0_118_733">
<rect width="470.148" height="500" fill="white" transform="translate(15)"/>
</clipPath>
</defs>
</svg>
