<svg width="501" height="501" viewBox="0 0 501 501" fill="none" xmlns="http://www.w3.org/2000/svg">
<path d="M250.75 500.75C388.82 500.75 500.75 388.82 500.75 250.75C500.75 112.679 388.82 0.75 250.75 0.75C112.679 0.75 0.75 112.679 0.75 250.75C0.75 388.82 112.679 500.75 250.75 500.75Z" fill="white"/>
<path d="M273.334 220.069L391.959 101.448L346.955 56.4492L250.835 152.568L154.715 56.4492L109.714 101.448L228.336 220.069C234.549 226.281 242.692 229.389 250.835 229.389C258.978 229.389 267.121 226.284 273.334 220.069ZM445.056 346.79L348.936 250.671L445.056 154.549L400.055 109.551L281.436 228.172C269.012 240.598 269.012 260.744 281.436 273.17L400.055 391.792L445.056 346.79ZM250.67 348.934L346.79 445.053L391.788 400.054L273.169 281.433C260.74 269.006 240.598 269.006 228.168 281.433L109.549 400.054L154.55 445.053L250.67 348.934ZM220.069 273.333C226.039 267.364 229.39 259.273 229.39 250.834C229.39 242.395 226.039 234.301 220.069 228.334L101.45 109.713L56.4492 154.715L152.569 250.834L56.4492 346.955L101.45 391.954L220.069 273.333Z" fill="black"/>
</svg>
