<?xml version="1.0" encoding="utf-8"?>
<!-- Generator: Adobe Illustrator 25.4.1, SVG Export Plug-In . SVG Version: 6.00 Build 0)  -->
<svg version="1.1" id="Layer_1" xmlns="http://www.w3.org/2000/svg" x="0px"
     y="0px"
     viewBox="0 0 800 800" style="enable-background:new 0 0 800 800;" xml:space="preserve">
    <g>
	<path class="axelar-logo0" d="M23.5,35.2c5.3,1.8,12.4,3.6,17.8,5.3c3.6,0,7.1,5.3,7.1,8.9c1.8,5.3,5.3,12.4,7.1,19.6c1.8,3.6,0,5.3-3.6,5.3
		c-5.3-1.8-10.7-3.6-17.8-3.6c-3.6,0-7.1-3.6-7.1-8.9c-1.8-7.1-5.3-14.2-7.1-23.1C18.2,37,19.9,33.5,23.5,35.2"/>
        <path class="axelar-logo0" d="M57.3,44.1c5.3,1.8,12.4,3.6,17.8,5.3c3.6,1.8,7.1,5.3,7.1,8.9c3.6,7.1,5.3,14.2,8.9,21.3
		c1.8,3.6,0,5.3-3.6,5.3c-5.3-1.8-12.4-3.6-17.8-5.3c-3.6,0-7.1-5.3-7.1-8.9c-1.8-7.1-5.3-14.2-7.1-21.3
		C53.7,45.9,55.5,44.1,57.3,44.1"/>
        <path class="axelar-logo0" d="M163.9,83.2c5.3,1.8,12.4,5.3,17.8,8.9c3.6,1.8,7.1,5.3,7.1,8.9c1.8,7.1,3.6,12.4,7.1,19.6
		c1.8,3.6,0,5.3-3.6,3.6c-5.3-3.6-12.4-5.3-17.8-7.1c-3.6-1.8-7.1-5.3-7.1-8.9c-1.8-7.1-3.6-12.4-7.1-19.6
		C160.4,83.2,162.1,83.2,163.9,83.2"/>
        <path class="axelar-logo0" d="M37.7,79.7c5.3,1.8,10.7,1.8,17.8,3.6c3.6,0,7.1,3.6,7.1,8.9c1.8,7.1,5.3,14.2,7.1,21.3c1.8,3.6,0,5.3-3.6,5.3
		c-5.3-1.8-10.7-3.6-16-3.6c-3.6,0-5.3-3.6-7.1-7.1c-1.8-7.1-5.3-14.2-7.1-23.1C34.2,81.5,35.9,77.9,37.7,79.7"/>
        <path class="axelar-logo0" d="M71.5,88.6c5.3,1.8,12.4,3.6,17.8,5.3c3.6,0,7.1,3.6,7.1,7.1c1.8,7.1,5.3,14.2,7.1,21.3c1.8,3.6,0,5.3-3.6,5.3
		c-5.3-1.8-12.4-3.6-17.8-3.6c-3.6,0-7.1-3.6-7.1-7.1c-1.8-7.1-5.3-14.2-7.1-21.3C67.9,88.6,69.7,86.8,71.5,88.6"/>
        <path class="axelar-logo0" d="M107,97.5c5.3,1.8,12.4,3.6,17.8,5.3c3.6,1.8,7.1,5.3,7.1,8.9c1.8,7.1,5.3,14.2,7.1,19.6
		c1.8,3.6,0,5.3-3.6,3.6c-5.3-1.8-12.4-3.6-17.8-5.3c-3.6,0-7.1-3.6-7.1-7.1c-1.8-7.1-5.3-14.2-7.1-21.3
		C101.7,99.2,103.5,97.5,107,97.5"/>
        <path class="axelar-logo0" d="M142.6,109.9c5.3,1.8,12.4,3.6,17.8,7.1c3.6,1.8,7.1,5.3,7.1,8.9c1.8,7.1,3.6,12.4,7.1,19.6
		c1.8,3.6,0,5.3-3.6,3.6c-5.3-1.8-12.4-3.6-17.8-7.1c-3.6-1.8-7.1-5.3-7.1-8.9c-1.8-7.1-5.3-14.2-7.1-19.6
		C137.3,109.9,139,108.1,142.6,109.9"/>
        <path class="axelar-logo0" d="M178.1,124.1c5.3,1.8,12.4,5.3,17.8,7.1c3.6,1.8,7.1,5.3,7.1,8.9c1.8,7.1,3.6,12.4,7.1,19.6
		c1.8,3.6,0,5.3-3.6,3.6c-5.3-3.6-12.4-5.3-17.8-7.1c-3.6-1.8-7.1-5.3-7.1-8.9c-1.8-7.1-3.6-12.4-7.1-19.6
		C172.8,124.1,174.6,122.3,178.1,124.1"/>
        <path class="axelar-logo0" d="M121.3,140.1c5.3,1.8,12.4,3.6,17.8,5.3c3.6,1.8,7.1,5.3,7.1,7.1c1.8,7.1,5.3,14.2,7.1,19.6
		c1.8,3.6,0,5.3-3.6,5.3c-5.3-1.8-12.4-3.6-17.8-5.3c-3.6,0-7.1-3.6-7.1-7.1c-1.8-7.1-5.3-14.2-7.1-21.3
		C115.9,140.1,117.7,138.3,121.3,140.1"/>
        <path class="axelar-logo0" d="M155,150.8c5.3,1.8,12.4,3.6,17.8,7.1c3.6,1.8,7.1,5.3,7.1,8.9c1.8,7.1,5.3,12.4,7.1,19.6
		c1.8,3.6,0,5.3-3.6,3.6c-5.3-1.8-12.4-3.6-17.8-5.3c-3.6-1.8-7.1-5.3-7.1-7.1c-1.8-7.1-5.3-14.2-7.1-19.6
		C151.5,150.8,153.3,149,155,150.8"/>
        <path class="axelar-logo0" d="M101.7,173.9c5.3,1.8,10.7,1.8,17.8,3.6c3.6,0,7.1,3.6,7.1,7.1c1.8,7.1,5.3,14.2,7.1,21.3
		c1.8,3.6,0,5.3-3.6,5.3c-5.3-1.8-10.7-1.8-16-3.6c-3.6,0-5.3-3.6-7.1-7.1c-1.8-7.1-5.3-14.2-7.1-21.3
		C96.4,175.7,98.1,173.9,101.7,173.9"/>
        <path class="axelar-logo0" d="M135.5,181c5.3,1.8,12.4,3.6,17.8,5.3c3.6,0,7.1,3.6,7.1,7.1c1.8,7.1,5.3,14.2,7.1,19.6c1.8,3.6,0,5.3-3.6,5.3
		c-5.3-1.8-12.4-3.6-17.8-3.6c-3.6,0-7.1-3.6-7.1-7.1c-1.8-7.1-5.3-14.2-7.1-21.3C130.1,182.8,131.9,181,135.5,181"/>
        <path class="axelar-logo0" d="M169.3,191.7c5.3,1.8,12.4,3.6,17.8,5.3c3.6,1.8,7.1,5.3,7.1,8.9c1.8,7.1,5.3,12.4,7.1,19.6
		c1.8,3.6,0,5.3-3.6,3.6c-5.3-1.8-12.4-3.6-17.8-5.3c-3.6-1.8-7.1-3.6-7.1-7.1c-1.8-7.1-5.3-14.2-7.1-19.6
		C165.7,191.7,165.7,189.9,169.3,191.7"/>
        <path class="axelar-logo0" d="M204.8,204.1c5.3,1.8,12.4,5.3,17.8,7.1c3.6,1.8,7.1,5.3,7.1,8.9c1.8,7.1,3.6,12.4,7.1,19.6
		c1.8,3.6,0,5.3-3.6,3.6c-5.3-1.8-12.4-5.3-17.8-7.1c-3.6-1.8-7.1-5.3-7.1-8.9c-1.8-7.1-3.6-12.4-7.1-19.6
		C199.5,204.1,201.3,202.3,204.8,204.1"/>
        <path class="axelar-logo0" d="M204.8,102.8c7.1,3.6,12.4,7.1,19.6,10.7c3.6,1.8,7.1,7.1,8.9,8.9c1.8,7.1,3.6,12.4,7.1,19.6
		c1.8,3.6,0,3.6-3.6,1.8c-8.9-3.6-16-7.1-21.3-10.7c-3.6-1.8-7.1-5.3-7.1-8.9c-1.8-7.1-3.6-12.4-7.1-19.6
		C199.5,102.8,201.3,101,204.8,102.8"/>
        <path class="axelar-logo0" d="M217.3,141.9c7.1,3.6,12.4,7.1,19.6,8.9c3.6,1.8,7.1,7.1,8.9,8.9c1.8,7.1,3.6,12.4,7.1,19.6
		c1.8,3.6,0,3.6-3.6,1.8c-7.1-3.6-12.4-7.1-19.6-8.9c-3.6-1.8-7.1-5.3-7.1-8.9c-5.3-5.3-7.1-12.4-8.9-17.8
		C211.9,141.9,213.7,140.1,217.3,141.9"/>
        <path class="axelar-logo0" d="M229.7,181c7.1,3.6,12.4,5.3,19.6,8.9c3.6,1.8,7.1,5.3,8.9,8.9c1.8,7.1,3.6,12.4,7.1,19.6
		c1.8,3.6,0,3.6-3.6,1.8c-7.1-3.6-12.4-7.1-19.6-8.9c-3.6-1.8-7.1-5.3-7.1-8.9c-1.8-7.1-3.6-12.4-7.1-19.6
		C226.1,181,227.9,179.2,229.7,181"/>
        <path class="axelar-logo0" d="M243.9,220.1c7.1,3.6,12.4,5.3,19.6,8.9c3.6,1.8,7.1,5.3,8.9,8.9c1.8,7.1,3.6,12.4,7.1,19.6
		c1.8,3.6,0,3.6-3.6,1.8c-7.1-3.6-12.4-5.3-19.6-8.9c-3.6-1.8-7.1-5.3-7.1-8.9c-1.8-7.1-3.6-12.4-7.1-19.6
		C238.6,220.1,240.4,218.3,243.9,220.1"/>
        <path class="axelar-logo0" d="M242.1,124.1c7.1,3.6,14.2,8.9,19.6,12.4c3.6,1.8,7.1,7.1,8.9,10.7c1.8,7.1,3.6,12.4,7.1,19.6
		c1.8,3.6,0,3.6-3.6,1.8c-7.1-5.3-14.2-8.9-19.6-12.4c-3.6-1.8-7.1-7.1-8.9-8.9c-1.8-7.1-3.6-12.4-7.1-19.6
		C236.8,122.3,238.6,122.3,242.1,124.1"/>
        <path class="axelar-logo0" d="M283,150.8c7.1,5.3,14.2,12.4,21.3,17.8c3.6,3.6,7.1,8.9,8.9,10.7c1.8,5.3,3.6,12.4,7.1,19.6
		c1.8,3.6-1.8,3.6-5.3,0c-7.1-5.3-14.2-12.4-21.3-17.8c-3.6-3.6-7.1-7.1-8.9-10.7c-1.8-7.1-3.6-12.4-7.1-19.6
		C277.7,149,279.5,147.2,283,150.8"/>
        <path class="axelar-logo0" d="M327.5,189.9c8.9,8.9,17.8,19.6,28.4,33.8c5.3,7.1,49.8,140.4,49.8,140.4s-37.3-106.7-40.9-112
		c-8.9-12.4-19.6-23.1-26.7-32c-3.6-3.6-7.1-8.9-8.9-12.4c-1.8-5.3-3.6-12.4-5.3-17.8C320.4,184.6,323.9,186.3,327.5,189.9"/>
        <path class="axelar-logo0" d="M295.5,188.1c7.1,5.3,14.2,10.7,21.3,17.8c3.6,3.6,7.1,8.9,8.9,10.7c1.8,7.1,3.6,12.4,7.1,19.6
		c1.8,3.6-1.8,3.6-5.3,0c-7.1-5.3-14.2-12.4-21.3-17.8c-3.6-1.8-7.1-7.1-8.9-10.7c-1.8-7.1-3.6-12.4-7.1-19.6
		C290.1,186.3,291.9,186.3,295.5,188.1"/>
        <path class="axelar-logo0" d="M339.9,227.2c8.9,8.9,17.8,19.6,26.7,32c5.3,5.3,39.1,104.9,39.1,104.9s-24.9-72.9-30.2-78.2
		c-8.9-10.7-17.8-21.3-26.7-28.4c-3.6-3.6-7.1-8.9-8.9-12.4c-1.8-7.1-3.6-12.4-5.3-17.8C332.8,221.9,336.4,223.7,339.9,227.2"/>
        <path class="axelar-logo0" d="M268.8,200.6c7.1,3.6,12.4,8.9,19.6,12.4c3.6,1.8,7.1,7.1,8.9,10.7c1.8,7.1,3.6,12.4,7.1,19.6
		c1.8,3.6,0,3.6-3.6,1.8c-7.1-3.6-14.2-8.9-19.6-12.4c-3.6-1.8-7.1-5.3-7.1-8.9c-1.8-7.1-3.6-12.4-7.1-19.6
		C263.5,200.6,265.2,198.8,268.8,200.6"/>
        <path class="axelar-logo0" d="M307.9,227.2c7.1,5.3,14.2,10.7,21.3,17.8c3.6,3.6,7.1,8.9,8.9,10.7c1.8,7.1,3.6,12.4,7.1,19.6
		c1.8,3.6-1.8,3.6-5.3,0c-7.1-5.3-14.2-10.7-21.3-16c-3.6-1.8-7.1-7.1-8.9-10.7c-1.8-7.1-3.6-12.4-7.1-19.6
		C302.6,225.4,304.4,223.7,307.9,227.2"/>
        <path class="axelar-logo0" d="M352.4,264.6c8.9,7.1,17.8,17.8,26.7,28.4c5.3,5.3,28.4,71.1,28.4,71.1s-14.2-37.3-19.6-42.7
		c-8.9-10.7-17.8-19.6-24.9-26.7c-3.6-3.6-7.1-8.9-8.9-12.4c-1.8-5.3-3.6-12.4-5.3-17.8C345.2,259.2,348.8,261,352.4,264.6"/>
        <path class="axelar-logo0" d="M281.2,239.7c7.1,3.6,12.4,8.9,19.6,12.4c3.6,1.8,7.1,7.1,8.9,10.7c1.8,7.1,3.6,12.4,7.1,19.6
		c1.8,3.6,0,3.6-3.6,1.8c-7.1-3.6-14.2-8.9-19.6-12.4c-3.6-1.8-7.1-5.3-7.1-8.9c-1.8-7.1-3.6-12.4-7.1-19.6
		C275.9,239.7,277.7,237.9,281.2,239.7"/>
        <path class="axelar-logo0" d="M322.1,266.3c7.1,5.3,14.2,10.7,21.3,16c3.6,3.6,7.1,8.9,8.9,10.7c1.8,7.1,3.6,12.4,7.1,19.6
		c1.8,3.6-1.8,3.6-5.3,0c-7.1-5.3-14.2-10.7-21.3-16c-3.6-1.8-7.1-7.1-8.9-10.7c-1.8-7.1-3.6-12.4-7.1-19.6
		C315,264.6,318.6,262.8,322.1,266.3"/>
        <path class="axelar-logo0" d="M364.8,300.1c8.9,7.1,16,16,24.9,26.7c3.6,5.3,16,35.6,16,35.6s-3.6-3.6-7.1-8.9c-8.9-8.9-16-17.8-24.9-24.9
		c-3.6-3.6-7.1-8.9-8.9-10.7c-1.8-5.3-3.6-12.4-5.3-17.8C357.7,296.6,361.2,296.6,364.8,300.1"/>
        <path class="axelar-logo0" d="M316.8,764.1c5.3-5.3,10.7-8.9,16-14.2c1.8-1.8,1.8-5.3,0-7.1c-5.3-5.3-8.9-10.7-14.2-14.2
		c-1.8-1.8-3.6-1.8-7.1,0c-5.3,5.3-10.7,8.9-16,12.4c-1.8,1.8-1.8,3.6,0,5.3c5.3,5.3,8.9,10.7,14.2,16
		C313.2,765.9,315,765.9,316.8,764.1 M268.8,655.6c5.3-5.3,10.7-8.9,16-14.2c1.8-1.8,1.8-5.3,0-7.1c-3.6-5.3-8.9-8.9-12.4-14.2
		c-1.8-1.8-3.6-1.8-5.3,0c-5.3,3.6-10.7,8.9-16,12.4c-1.8,1.8-1.8,3.6,0,5.3c5.3,5.3,8.9,10.7,14.2,14.2
		C265.2,657.4,267,657.4,268.8,655.6z M297.2,629c5.3-5.3,8.9-10.7,14.2-14.2c1.8-1.8,1.8-5.3,0-7.1c-3.6-5.3-8.9-8.9-12.4-14.2
		c-1.8-1.8-3.6-1.8-5.3,0c-5.3,5.3-8.9,8.9-14.2,14.2c-1.8,1.8-1.8,3.6,0,5.3c3.6,5.3,8.9,8.9,12.4,14.2
		C293.7,630.8,295.5,630.8,297.2,629z M323.9,600.5c5.3-5.3,8.9-10.7,12.4-16c1.8-1.8,1.8-5.3,0-7.1c-3.6-3.6-7.1-8.9-12.4-12.4
		c-1.8-1.8-3.6-1.8-5.3,0c-5.3,5.3-8.9,10.7-14.2,16c-1.8,1.8-1.8,5.3,0,7.1c3.6,5.3,8.9,8.9,12.4,14.2
		C320.4,604.1,322.1,602.3,323.9,600.5z M348.8,570.3c3.6-5.3,7.1-10.7,12.4-17.8c1.8-1.8,1.8-5.3,0-7.1c-3.6-3.6-7.1-7.1-10.7-12.4
		c-1.8-1.8-3.6-1.8-5.3,1.8c-3.6,5.3-8.9,10.7-12.4,16c-1.8,1.8-1.8,5.3,0,7.1c3.6,3.6,7.1,8.9,12.4,12.4
		C343.5,573.9,347,573.9,348.8,570.3z M370.1,538.3c3.6-5.3,7.1-12.4,10.7-19.6c1.8-1.8,1.8-5.3,0-7.1c-3.6-3.6-7.1-7.1-8.9-10.7
		c-1.8-1.8-3.6,0-5.3,1.8c-3.6,5.3-7.1,12.4-12.4,17.8c-1.8,1.8-1.8,5.3,0,7.1c3.6,3.6,7.1,7.1,10.7,12.4
		C366.6,541.9,368.4,540.1,370.1,538.3z M389.7,502.8c3.6-7.1,5.3-14.2,8.9-21.3c1.8-1.8,0-5.3,0-7.1c-3.6-3.6-5.3-5.3-8.9-8.9
		c-1.8-1.8-1.8,0-3.6,1.8c-3.6,7.1-7.1,12.4-10.7,19.6c-1.8,1.8-1.8,5.3,0,7.1c3.6,3.6,7.1,7.1,8.9,10.7
		C386.1,506.3,387.9,504.5,389.7,502.8z M403.9,461.9c1.8-7.1,3.6-16,5.3-24.9c0-3.6,0-7.1,0-7.1c-1.8-1.8-3.6-3.6-5.3-5.3
		c0,0-1.8,1.8-1.8,3.6c-1.8,7.1-5.3,14.2-7.1,21.3c-1.8,1.8-1.8,5.3,0,7.1c1.8,3.6,5.3,5.3,7.1,8.9
		C402.1,465.4,403.9,465.4,403.9,461.9z M322.1,655.6c5.3-5.3,8.9-10.7,14.2-16c1.8-1.8,1.8-5.3,0-7.1c-3.6-5.3-8.9-8.9-12.4-14.2
		c-1.8-1.8-3.6-1.8-5.3,0c-5.3,5.3-8.9,10.7-14.2,14.2c-1.8,1.8-1.8,5.3,0,7.1c3.6,5.3,8.9,8.9,12.4,14.2
		C318.6,657.4,320.4,657.4,322.1,655.6z M347,627.2c3.6-5.3,8.9-10.7,12.4-16c1.8-1.8,1.8-5.3,0-7.1c-3.6-3.6-8.9-8.9-12.4-12.4
		c-1.8-1.8-3.6-1.8-5.3,0c-3.6,5.3-8.9,10.7-12.4,16c-1.8,1.8-1.8,5.3,0,7.1c3.6,5.3,8.9,8.9,12.4,14.2
		C343.5,629,345.2,629,347,627.2z M370.1,595.2c3.6-5.3,7.1-12.4,10.7-17.8c1.8-1.8,1.8-5.3,0-7.1c-3.6-3.6-7.1-7.1-10.7-12.4
		c-1.8-1.8-3.6,0-5.3,1.8c-3.6,5.3-7.1,12.4-12.4,17.8c-1.8,1.8-1.8,5.3,0,7.1c3.6,3.6,7.1,8.9,12.4,12.4
		C366.6,597,368.4,597,370.1,595.2z M389.7,559.6c3.6-7.1,7.1-12.4,8.9-19.6c1.8-1.8,1.8-5.3,0-7.1c-3.6-3.6-7.1-7.1-8.9-10.7
		c-1.8-1.8-3.6,0-3.6,1.8c-3.6,7.1-7.1,12.4-10.7,19.6c-1.8,1.8-1.8,5.3,0,7.1c3.6,3.6,7.1,7.1,10.7,12.4
		C386.1,563.2,387.9,561.4,389.7,559.6z M405.7,520.5c1.8-7.1,5.3-14.2,7.1-23.1c0-3.6,0-5.3,0-7.1c-3.6-3.6-5.3-5.3-8.9-8.9
		c-1.8-1.8-1.8,0-3.6,3.6c-1.8,7.1-5.3,14.2-8.9,21.3c-1.8,1.8-1.8,5.3,0,7.1c3.6,3.6,7.1,7.1,8.9,10.7
		C403.9,524.1,405.7,524.1,405.7,520.5z M418.1,476.1c1.8-8.9,1.8-17.8,1.8-26.7c0-3.6,0-7.1-1.8-7.1c-1.8-1.8-3.6-3.6-5.3-5.3
		c0,0-1.8,1.8-1.8,5.3c-1.8,8.9-3.6,17.8-5.3,24.9c0,3.6,0,5.3,0,7.1c1.8,3.6,5.3,5.3,7.1,8.9C416.3,481.4,416.3,479.7,418.1,476.1z
		 M320.4,710.7c5.3-5.3,10.7-8.9,14.2-14.2c1.8-1.8,1.8-5.3,0-7.1c-3.6-5.3-8.9-8.9-12.4-14.2c-1.8-1.8-3.6-1.8-5.3,0
		c-5.3,5.3-10.7,8.9-14.2,14.2c-1.8,1.8-1.8,3.6,0,5.3c5.3,5.3,8.9,10.7,14.2,14.2C315,710.7,318.6,712.5,320.4,710.7z M347,682.3
		c3.6-5.3,8.9-10.7,12.4-16c1.8-1.8,1.8-5.3,0-7.1c-3.6-5.3-8.9-8.9-12.4-14.2c-1.8-1.8-3.6-1.8-5.3,0c-5.3,5.3-8.9,10.7-14.2,16
		c-1.8,1.8-1.8,5.3,0,7.1c3.6,5.3,8.9,8.9,12.4,14.2C341.7,684.1,345.2,684.1,347,682.3z M370.1,652.1c3.6-5.3,8.9-10.7,12.4-17.8
		c1.8-1.8,1.8-5.3,0-7.1c-3.6-3.6-7.1-8.9-12.4-12.4c-1.8-1.8-3.6-1.8-5.3,1.8c-3.6,5.3-8.9,10.7-12.4,17.8c-1.8,1.8-1.8,5.3,0,7.1
		c3.6,5.3,8.9,8.9,12.4,14.2C366.6,653.9,368.4,653.9,370.1,652.1z M391.5,618.3c3.6-7.1,7.1-12.4,10.7-19.6c1.8-1.8,1.8-5.3,0-7.1
		c-3.6-3.6-7.1-7.1-10.7-12.4c-1.8-1.8-3.6,0-5.3,1.8c-3.6,7.1-7.1,12.4-10.7,17.8c-1.8,1.8-1.8,5.3,0,7.1
		c3.6,3.6,7.1,8.9,12.4,12.4C387.9,620.1,391.5,620.1,391.5,618.3z M409.2,581c3.6-7.1,5.3-14.2,7.1-21.3c0-3.6,0-5.3,0-7.1
		c-3.6-3.6-7.1-7.1-8.9-10.7c-1.8-1.8-3.6,0-3.6,1.8c-3.6,7.1-5.3,14.2-8.9,21.3c-1.8,1.8-1.8,5.3,0,7.1c3.6,3.6,7.1,7.1,10.7,10.7
		C407.5,584.5,409.2,582.8,409.2,581z M423.5,538.3c1.8-8.9,3.6-16,5.3-24.9c0-3.6,0-7.1-1.8-7.1c-1.8-3.6-5.3-5.3-8.9-8.9
		c-1.8-1.8-1.8,0-3.6,3.6c-1.8,8.9-3.6,16-7.1,23.1c0,3.6,0,5.3,0,7.1c3.6,3.6,7.1,7.1,8.9,10.7
		C421.7,543.6,423.5,541.9,423.5,538.3z M430.6,490.3c0-8.9,0-19.6,0-30.2c0-3.6-1.8-7.1-1.8-8.9c-1.8-1.8-3.6-3.6-5.3-5.3
		c0,0-1.8,1.8-1.8,5.3c0,10.7-1.8,19.6-1.8,28.4c0,3.6,0,7.1,1.8,7.1c1.8,3.6,5.3,5.3,7.1,8.9C430.6,495.7,430.6,493.9,430.6,490.3z
		 M345.2,737.4c5.3-5.3,8.9-10.7,14.2-16c1.8-1.8,1.8-5.3,0-7.1c-3.6-5.3-8.9-8.9-12.4-14.2c-1.8-1.8-3.6-1.8-5.3,0
		c-5.3,5.3-8.9,10.7-14.2,14.2c-1.8,1.8-1.8,5.3,0,7.1c5.3,5.3,8.9,10.7,14.2,14.2C341.7,739.2,343.5,739.2,345.2,737.4z M371.9,709
		c3.6-5.3,8.9-10.7,12.4-16c1.8-1.8,1.8-5.3,0-7.1c-3.6-5.3-8.9-8.9-12.4-14.2c-1.8-1.8-3.6-1.8-5.3,0c-3.6,5.3-8.9,10.7-12.4,16
		c-1.8,1.8-1.8,5.3,0,7.1c3.6,5.3,8.9,8.9,12.4,14.2C366.6,710.7,370.1,710.7,371.9,709z M414.6,641.4c3.6-7.1,5.3-14.2,8.9-21.3
		c1.8-1.8,0-5.3,0-7.1c-3.6-3.6-7.1-7.1-10.7-12.4c-1.8-1.8-3.6,0-5.3,1.8c-3.6,7.1-7.1,12.4-8.9,19.6c-1.8,1.8-1.8,5.3,0,7.1
		c3.6,3.6,7.1,8.9,12.4,12.4C411,645,412.8,643.2,414.6,641.4z M428.8,602.3c1.8-7.1,5.3-14.2,7.1-23.1c0-3.6,0-5.3,0-7.1
		c-3.6-3.6-7.1-7.1-8.9-10.7c-1.8-1.8-3.6,0-3.6,3.6c-1.8,7.1-5.3,14.2-7.1,21.3c-1.8,1.8,0,5.3,0,7.1c3.6,3.6,7.1,7.1,10.7,12.4
		C427,605.9,428.8,604.1,428.8,602.3z M441.2,557.9c1.8-8.9,1.8-17.8,3.6-26.7c0-3.6,0-7.1-1.8-8.9c-3.6-3.6-5.3-5.3-8.9-8.9
		c-1.8-1.8-1.8,0-1.8,3.6c-1.8,8.9-3.6,17.8-5.3,24.9c0,3.6,0,7.1,1.8,7.1c3.6,3.6,7.1,7.1,8.9,10.7
		C439.5,563.2,439.5,561.4,441.2,557.9z M444.8,506.3c0-10.7-1.8-21.3-3.6-33.8c0-5.3-1.8-8.9-1.8-8.9c-1.8-1.8-3.6-3.6-5.3-5.3
		c0,0,0,1.8,0,5.3c1.8,10.7,1.8,21.3,1.8,32c0,3.6,0,7.1,1.8,8.9c1.8,3.6,5.3,5.3,7.1,8.9C444.8,511.7,444.8,509.9,444.8,506.3z
		 M434.1,437c-5.3-14.2-10.7-32-21.3-53.3c-3.6-8.9-7.1-14.2-7.1-14.2s0,3.6,0,7.1c0,10.7,0,19.6-1.8,28.4c0,3.6,0,5.3,0,7.1
		c1.8,1.8,3.6,3.6,5.3,5.3c0,0,1.8-1.8,1.8-5.3c0-10.7-1.8-21.3-3.6-33.8c-1.8-5.3-1.8-8.9-1.8-8.9s1.8,3.6,1.8,8.9
		c3.6,12.4,3.6,24.9,5.3,35.6c0,3.6,0,7.1,1.8,7.1c1.8,1.8,3.6,3.6,5.3,5.3c0,0,0-1.8,0-7.1c-1.8-12.4-3.6-24.9-8.9-40.9
		c-1.8-5.3-3.6-10.7-3.6-10.7s1.8,5.3,3.6,10.7c5.3,16,8.9,30.2,10.7,40.9c0,3.6,1.8,7.1,1.8,8.9c1.8,1.8,3.6,3.6,5.3,5.3
		c0,0,0-1.8,0-7.1c-3.6-14.2-7.1-28.4-14.2-46.2c-3.6-7.1-5.3-12.4-5.3-12.4s3.6,5.3,5.3,12.4c7.1,17.8,12.4,33.8,16,48
		C432.3,433.4,432.3,437,434.1,437c1.8,1.8,3.6,3.6,5.3,5.3C435.9,445.9,435.9,442.3,434.1,437z M265.2,707.2
		c5.3-3.6,10.7-8.9,16-12.4c1.8-1.8,1.8-3.6,0-5.3c-5.3-5.3-8.9-10.7-14.2-14.2c-1.8-1.8-5.3-1.8-7.1,0c-5.3,3.6-10.7,8.9-16,12.4
		c-1.8,1.8-1.8,3.6,0,5.3c5.3,5.3,8.9,10.7,14.2,16C259.9,707.2,263.5,709,265.2,707.2z"/>
        <path class="axelar-logo0" d="M587,449.4l188.4-186.7h-160L507,369.4L398.6,262.8h-23.1c1.8,5.3,5.3,12.4,8.9,19.6
		c10.7,28.4,23.1,69.3,35.6,119.1c35.6,40.9,51.6,96,48,165.3l37.3-37.3L620.8,645h160L601.2,463.7L587,449.4"/>
</g>
</svg>
