<?xml version="1.0" encoding="utf-8"?>
<!-- Generator: Adobe Illustrator 26.3.1, SVG Export Plug-In . SVG Version: 6.00 Build 0)  -->
<svg version="1.1" id="Layer_1" xmlns="http://www.w3.org/2000/svg" xmlns:xlink="http://www.w3.org/1999/xlink" x="0px" y="0px"
	 viewBox="0 0 750 750" style="enable-background:new 0 0 750 750;" xml:space="preserve">
<style type="text/css">
	.st0{fill:#7B3FE4;}
	.st1{fill:#231F20;}
	.st2{fill:#FFFFFF;}
	.st3{fill:none;stroke:#D0BAF5;stroke-width:26;stroke-miterlimit:10;stroke-dasharray:436.43,43.64;}
	.st4{enable-background:new    ;}
</style>
<path class="st0" d="M375,734.5c-198.6,0-359.5-161-359.5-359.5c0-95.3,37.9-186.8,105.3-254.2c140.9-139.8,368.6-139,508.4,2
	c139.1,140.2,139.1,366.3,0,506.4C561.9,696.8,470.4,734.8,375,734.5z"/>
<path class="st1" d="M375,30c190.6,0.1,345,154.8,344.9,345.3c-0.1,138.5-83,263.6-210.6,317.6c-175.9,73.4-378-9.8-451.3-185.7
	c-72.9-174.8,8.7-375.6,182.8-450.1C283.2,39.1,328.9,29.9,375,30 M375,1C168.4,1,1,168.4,1,375s167.4,374,374,374
	s374-167.5,374-374S581.5,1,375,1z"/>
<path class="st2" d="M567.5,330.9v87.2c-0.1,11-5.9,21.2-15.4,26.9l-75.3,43.5c-9.5,5.7-21.3,5.7-30.8,0L370.7,445
	c-9.5-5.6-15.4-15.8-15.4-26.9v-24.5l38.5-22.5v42.5l67.5,39.3l67.5-39.3v-78.4l-67.5-39.3l-158,91.9c-9.6,5.4-21.3,5.4-30.8,0
	l-75.3-43.7c-9.4-5.7-15.1-15.9-15.1-26.9v-87.2c0.1-11.1,5.9-21.3,15.4-26.9l75.3-43.5c9.5-5.6,21.3-5.6,30.8,0l75.3,43.5
	c9.5,5.6,15.4,15.8,15.4,26.9v24.5l-38.8,22.3v-42.3L288,195.3l-67.5,39.3v78.3l67.5,39.3l158-91.9c9.6-5.4,21.3-5.4,30.8,0
	l75.4,43.7C561.6,309.7,567.4,319.9,567.5,330.9L567.5,330.9z"/>
<path class="st3" d="M174.6,142.7C302.2,32.2,495.2,46,605.7,173.6c253.3,316.9-184.4,696-461.9,400.2
	C33.3,446.3,47.1,253.3,174.6,142.7z"/>
<g class="st4">
	<path class="st2" d="M228.6,600.9l-13.3-55.1h17c3.8,21,5,30.2,5.7,39h0.2c2.2-11.9,5.6-26.1,8.4-39H261c2.4,11.2,6.1,26.5,8,38.3
		h0.2c1.4-11.4,5-29.8,6.4-38.3h15.5l-14,55.1h-16.5c-2.4-11.4-5.6-24.5-7.7-35.1h-0.2c-1.9,10.4-5.4,24.5-7.8,35.1H228.6z"/>
</g>
<g class="st4">
	<path class="st2" d="M343.1,582.9c0-8.6,0.2-19.7,0.5-26.2h-0.5c-2.2,11.8-6,28.2-10,44.2h-13c-3.1-15.6-6.8-32-8.9-44.2h-0.6
		c0.5,6.5,0.8,17.3,0.8,26.7v17.5h-14.4v-55.1h23.3c2.7,11.2,5.8,27.4,7.1,35.5h0.2c1.4-8.9,5.1-23.5,8.3-35.5h22.6v55.1h-15.5
		V582.9z"/>
</g>
<g class="st4">
	<path class="st2" d="M383.5,590.2l-3.2,10.7h-15.7l17.4-55.1H403l18.1,55.1h-16.9l-3.4-10.7H383.5z M398,578.2
		c-2.6-8.6-4.7-16.3-5.9-21.7h-0.2c-1.3,5.9-3.4,13.8-5.6,21.7H398z"/>
</g>
<g class="st4">
	<path class="st2" d="M432.5,557.8h-15.8v-12h47.5v12h-15.6v43.1h-16.2V557.8z"/>
	<path class="st2" d="M487,545.8v55.1h-16.2v-55.1H487z"/>
	<path class="st2" d="M548.3,582.8c-2.1,11.5-10.5,19.2-25.6,19.2c-18.1,0-26.8-12.2-26.8-28.2c0-15.6,8.6-29,27.6-29
		c16.2,0,23.5,9.4,24.6,19h-16c-0.8-3.9-3-7.6-9-7.6c-7.8,0-10.6,7.4-10.6,17.1c0,8.7,2.2,17.4,10.7,17.4c6.5,0,8.2-4.7,9-7.8H548.3
		z"/>
</g>
</svg>
