<?xml version="1.0" encoding="UTF-8"?>
<!-- Generator: Adobe Illustrator 22.1.0, SVG Export Plug-In . SVG Version: 6.00 Build 0)  -->
<svg version="1.1" id="Слой_1" xmlns="http://www.w3.org/2000/svg" xmlns:xlink="http://www.w3.org/1999/xlink" x="0px" y="0px" viewBox="0 0 104 104" style="enable-background:new 0 0 104 104;" xml:space="preserve">
<style type="text/css">
	.weth0{fill:#ED1E79;}
	.weth1{fill:#FFFFFF;}
</style>
<g>
	<g>
		<path class="weth0" d="M90.4,31.4L76.9,17.9C69.2,8.2,57.3,2,44,2C20.8,2,2,20.8,2,44c0,13.3,6.2,25.2,15.9,32.9l13.5,13.5    c7.3,7.3,19,7.3,26.3,0l32.7-32.7C97.7,50.5,97.7,38.7,90.4,31.4z"/>
		<path d="M44.6,97.9c-5.5,0-10.7-2.1-14.6-6L16.5,78.4C6,70,0,57.4,0,44C0,19.7,19.7,0,44,0c13.4,0,26,6,34.4,16.5L91.8,30    c3.9,3.9,6,9.1,6,14.6s-2.1,10.7-6,14.6L59.1,91.8C55.2,95.7,50.1,97.9,44.6,97.9z M44,4C21.9,4,4,21.9,4,44    c0,12.2,5.5,23.7,15.1,31.3l0.2,0.2L32.8,89c3.1,3.1,7.3,4.9,11.7,4.9c4.4,0,8.6-1.7,11.7-4.9L89,56.3c3.1-3.1,4.9-7.3,4.9-11.7    c0-4.4-1.7-8.6-4.9-11.7L75.3,19.1C67.7,9.5,56.2,4,44,4z"/>
	</g>
	<g>
		<rect x="13" y="46" transform="matrix(0.7071 -0.7071 0.7071 0.7071 -40.5079 29.2053)" width="4" height="35"/>
	</g>
	<g>
		<rect x="13" y="31" transform="matrix(0.7071 -0.7071 0.7071 0.7071 -29.9013 24.8119)" width="4" height="35"/>
	</g>
	<g>
		<circle class="weth1" cx="60" cy="60" r="42"/>
		<path d="M60,104c-24.3,0-44-19.7-44-44s19.7-44,44-44s44,19.7,44,44S84.3,104,60,104z M60,20c-22.1,0-40,17.9-40,40s17.9,40,40,40    s40-17.9,40-40S82.1,20,60,20z"/>
	</g>
	<g>
		<circle class="weth1" cx="60" cy="60" r="32"/>
		<path d="M60,94c-18.7,0-34-15.3-34-34s15.3-34,34-34s34,15.3,34,34S78.7,94,60,94z M60,30c-16.5,0-30,13.5-30,30s13.5,30,30,30    s30-13.5,30-30S76.5,30,60,30z"/>
	</g>
	<g>
		<g>
			<path d="M52.6,70h-9.1V52.1h8.8v3.3h-5.4v4h5v3.3h-5v4.1h5.7V70z"/>
		</g>
		<g>
			<path d="M65.8,55.4h-4.3V70H58V55.4h-4.3v-3.3h12.1V55.4z"/>
		</g>
		<g>
			<path d="M81,70h-3.4v-7.3h-6.3V70h-3.4V52.1h3.4v7.1h6.3v-7.1H81V70z"/>
		</g>
	</g>
</g>
</svg>