<svg xmlns="http://www.w3.org/2000/svg" viewBox="0 0 750 750"><defs><style>.a{fill:#7b3fe4;}.b{fill:#231f20;}.c,.e{fill:#fff;}.d{fill:none;stroke:#d0baf5;stroke-miterlimit:10;stroke-width:26px;stroke-dasharray:436.43 43.64;}.e{font-size:80px;font-family:AcuminPro-Black, Acumin Pro;font-weight:800;}.f{letter-spacing:-0.01em;}.g{letter-spacing:0em;}.h{letter-spacing:-0.07em;}</style></defs><path class="a" d="M375,734.5A359.51,359.51,0,0,1,120.79,120.79,359.51,359.51,0,0,1,629.21,629.21,357.17,357.17,0,0,1,375,734.5Z"/><path class="b" d="M375,30A345.1,345.1,0,0,1,509.28,692.9,345.1,345.1,0,0,1,240.72,57.1,342.82,342.82,0,0,1,375,30m0-29C168.45,1,1,168.45,1,375S168.45,749,375,749,749,581.55,749,375,581.55,1,375,1Z"/><path class="c" d="M567.49,330.91v87.21A31.51,31.51,0,0,1,552.07,445l-75.29,43.52a30,30,0,0,1-30.84,0L370.66,445a31.46,31.46,0,0,1-15.42-26.9V393.65l38.55-22.46v42.55L461.24,453l67.46-39.29V335.35l-67.46-39.29-158,91.87a31.29,31.29,0,0,1-30.83,0l-75.29-43.7A31.43,31.43,0,0,1,182,317.37V230.15a31.42,31.42,0,0,1,15.42-26.89l75.29-43.52a30.26,30.26,0,0,1,30.83,0l75.29,43.52a31.42,31.42,0,0,1,15.42,26.89v24.48l-38.79,22.3V234.62L288,195.34l-67.46,39.28v78.31L288,352.21l158-91.87a31.31,31.31,0,0,1,30.84,0L552.19,304a31.46,31.46,0,0,1,15.3,26.87Z"/><path class="d" d="M174.63,142.74C302.19,32.21,495.2,46,605.72,173.58,859,490.5,421.3,869.62,143.78,573.83,33.26,446.27,47.07,253.27,174.63,142.74Z"/><text class="e" transform="translate(214.49 600.92)"><tspan class="f">W</tspan><tspan class="g" x="76.88" y="0">M</tspan><tspan class="h" x="149.76" y="0">A</tspan><tspan x="201.28" y="0">TIC</tspan></text></svg>