<svg xmlns="http://www.w3.org/2000/svg" xmlns:xlink="http://www.w3.org/1999/xlink" viewBox="0 0 48.07 48.07"><defs><style>.cls-1{fill:url(#linear-gradient);}.cls-2{fill:#191919;}.cls-3{fill:url(#linear-gradient-2);}</style><linearGradient id="linear-gradient" x1="3.22" y1="36.06" x2="44.86" y2="12.02" gradientUnits="userSpaceOnUse"><stop offset="0" stop-color="#32fdef"/><stop offset="0.27" stop-color="#2ffcb1"/><stop offset="0.61" stop-color="#2cfa6b"/><stop offset="0.85" stop-color="#2af93f"/><stop offset="0.98" stop-color="#29f92e"/></linearGradient><linearGradient id="linear-gradient-2" x1="17.07" y1="28.01" x2="30.18" y2="20.44" xlink:href="#linear-gradient"/></defs><g id="Layer_2" data-name="Layer 2"><g id="Layer_1-2" data-name="Layer 1"><circle class="cls-1" cx="24.04" cy="24.04" r="24.04"/><path class="cls-2" d="M24,10.72s2.22.45,7.05,1.69c4.56,1.18,6.16,1.65,6.16,1.65s.23,4.7-1.83,13.21C33.75,34.14,27.52,37.94,24,40.1c-3.48-2.16-9.71-6-11.38-12.83-2.07-8.51-1.84-13.21-1.84-13.21s1.6-.47,6.16-1.65C21.81,11.17,24,10.72,24,10.72Z"/><polygon class="cls-3" points="28.95 18.31 24.04 23.77 28.41 23.77 19.66 32.51 22.94 25.41 19.12 25.41 23.49 18.31 28.95 18.31 28.95 18.31"/></g></g></svg>