<svg width="40" height="40" viewBox="0 0 40 40" fill="none" xmlns="http://www.w3.org/2000/svg">
    <path
        d="M20 0C8.95469 0 0 8.95469 0 20C0 31.0453 8.95469 40 20 40C31.0453 40 40 31.0453 40 20C40 8.95469 31.0453 0 20 0ZM29.527 27.4046H25.4452C24.4316 27.4046 23.4976 26.868 22.9849 25.9976L20.4611 21.3076C20.4611 21.3076 20.4452 21.2838 20.4372 21.2679L22.2496 20.2186V17.6192L20 16.3196L17.7504 17.6192V20.2186L19.5628 21.2679C19.5628 21.2679 19.5469 21.2917 19.539 21.3076L17.0151 25.9976C16.5024 26.872 15.5644 27.4046 14.5548 27.4046H10.473C9.56677 27.4046 9.00239 26.4189 9.46343 25.6399L18.9905 9.43959C19.4436 8.66852 20.5564 8.66852 21.0095 9.43959L30.5366 25.6359C30.9976 26.4149 30.4332 27.4006 29.527 27.4006V27.4046Z"
        fill="#3BE0FF" />
</svg>