<?xml version="1.0" encoding="UTF-8"?><svg id="Layer_1" xmlns="http://www.w3.org/2000/svg" xmlns:xlink="http://www.w3.org/1999/xlink" viewBox="0 0 1000 1000"><defs><style>.cls-1{fill:url(#linear-gradient);}.cls-2{fill:#fff;}.cls-3{fill:url(#linear-gradient-2);}</style><linearGradient id="linear-gradient" x1="73.85" y1="671.28" x2="923.97" y2="327.81" gradientUnits="userSpaceOnUse"><stop offset="0" stop-color="#8e898e"/><stop offset=".36" stop-color="#a7a4a7"/><stop offset=".76" stop-color="#bdbcbd"/><stop offset="1" stop-color="#c6c6c6"/></linearGradient><linearGradient id="linear-gradient-2" x1="73.85" y1="671.28" x2="923.97" y2="327.81" gradientUnits="userSpaceOnUse"><stop offset="0" stop-color="#f8a800"/><stop offset=".34" stop-color="#f9af00"/><stop offset=".83" stop-color="#fdc300"/><stop offset="1" stop-color="#fc0"/></linearGradient></defs><g><circle class="cls-1" cx="498.91" cy="499.54" r="458.32"/><path class="cls-3" d="M498.91,126.26c50.43,0,99.31,9.86,145.27,29.3,44.44,18.8,84.37,45.72,118.68,80.03s61.24,74.24,80.03,118.68c19.44,45.97,29.3,94.84,29.3,145.27s-9.86,99.31-29.3,145.27c-18.8,44.44-45.72,84.37-80.03,118.68s-74.24,61.24-118.68,80.03c-45.97,19.44-94.84,29.3-145.27,29.3s-99.31-9.86-145.27-29.3c-44.44-18.8-84.37-45.72-118.68-80.03-34.31-34.31-61.24-74.24-80.03-118.68-19.44-45.97-29.3-94.84-29.3-145.27s9.86-99.31,29.3-145.27c18.8-44.44,45.72-84.37,80.03-118.68,34.31-34.31,74.24-61.24,118.68-80.03,45.97-19.44,94.84-29.3,145.27-29.3m0-85.04C245.79,41.22,40.59,246.42,40.59,499.54s205.2,458.32,458.32,458.32,458.32-205.2,458.32-458.32S752.04,41.22,498.91,41.22h0Z"/></g><path class="cls-2" d="M706.59,635.13c-5.39,8.23-11.22,16.14-17.52,23.66l-61.8-40.31c5.78-6.24,11.09-12.92,15.93-19.95l-26.72-15.43c-20.65,29-51.72,50.09-87.73,57.69-5.05-6.73-13.07-11.11-22.14-11.11-10.03,0-18.78,5.35-23.64,13.33-30.73-3.4-58.58-16.47-80.41-36.12,.62-2.3,.98-4.71,.98-7.21,0-15.29-12.4-27.69-27.69-27.69-.54,0-1.06,.05-1.59,.08-12.24-21-19.34-45.33-19.53-71.29,8.47-4.74,14.2-13.78,14.2-24.17,0-7.52-3-14.32-7.87-19.31,15.25-49.52,56.51-87.73,107.75-98.66,4.92,4.46,11.42,7.2,18.58,7.2,8.57,0,16.23-3.9,21.31-10.02,22.72,1.53,44,8.34,62.65,19.21,1.16,14.23,13.05,25.42,27.58,25.42,1.43,0,2.82-.14,4.19-.35,4.83,5.05,9.29,10.47,13.35,16.17l26.71-15.42c-5.24-7.62-11.03-14.83-17.38-21.52,.52-2.11,.82-4.31,.82-6.58,0-3.1-.53-6.08-1.47-8.86l54.41-34c9.98,10.61,19.01,22.12,27.03,34.36l26.73-15.43c-31.87-49.31-78.88-87.96-134.38-109.37-2.89-12.21-13.83-21.31-26.92-21.31-7.55,0-14.39,3.03-19.38,7.93-17.38-3.41-35.33-5.24-53.69-5.24-50.93,0-98.67,13.79-139.8,37.73-3.16-1.25-6.59-1.96-10.2-1.96-15.29,0-27.69,12.4-27.69,27.69,0,.21,.03,.42,.03,.63-61.77,51.19-101.19,128.45-101.19,214.76,0,16.04,1.44,31.75,4.05,47.06-10.65,3.86-18.28,14.03-18.28,26.02,0,15.29,12.4,27.69,27.69,27.69,1.8,0,3.55-.19,5.26-.51,15.51,40.11,40.01,75.77,71.06,104.47-.1,.98-.16,1.97-.16,2.97,0,15.29,12.4,27.69,27.69,27.69,3.38,0,6.61-.64,9.61-1.75,43.75,28.55,95.92,45.21,151.93,45.21,13.81,0,27.38-1.05,40.66-3,5.08,5.83,12.54,9.53,20.88,9.53,12.97,0,23.83-8.93,26.84-20.98,60.56-20.3,111.89-60.86,145.96-113.57l-26.67-15.4Zm-118.42-366.85c31.23,12.09,59.41,30.31,83.07,53.2l-52.01,32.51c-5.06-5.47-12.27-8.91-20.31-8.91-.6,0-1.19,.05-1.79,.09l-14.35-73.81c1.92-.81,3.72-1.86,5.39-3.07Zm-34.43-1.66c4.75,4.17,10.92,6.75,17.71,6.88l14.47,74.44c-22.12-12.73-47.25-20.75-74.06-22.73-.49-.92-1.02-1.82-1.61-2.68l43.49-55.91Zm-177.14,17.37c36.13-20.57,77.86-32.39,122.32-32.39,16.22,0,32.05,1.61,47.41,4.6,.1,.25,.2,.5,.31,.75l-44.81,57.61c-4.21-2.59-9.15-4.11-14.46-4.11-10.18,0-19.05,5.51-23.86,13.69l-87.74-33.2c.53-2.13,.84-4.35,.84-6.64,0-.1-.01-.2-.02-.3Zm-24.87,27.86c7.7-.77,14.45-4.72,18.98-10.49l79.79,30.19c-43.7,12.61-80.41,41.8-102.85,80.32l4.08-100.02Zm-100.88,187.84c0-75.94,34.33-143.98,88.25-189.52,.38,.14,.75,.29,1.14,.42l-5.22,127.85c-1.54,4.1-2.9,8.27-4.13,12.51-10.16,4.1-17.35,14.04-17.35,25.67,0,4.63,1.15,8.98,3.16,12.82l-60.51,61.46c-3.48-16.53-5.34-33.65-5.34-51.21Zm8.86,64.08l64.25-65.26c0,.4-.03,.78-.03,1.18,0,32.72,9.05,63.36,24.74,89.58l-87.83-21.01c-.25-1.54-.63-3.04-1.13-4.49Zm79.66,116.02c-.66-.05-1.31-.1-1.98-.1-2.69,0-5.28,.4-7.73,1.12-29.12-27.23-51.67-61.36-65.04-99.78l83.61,20c.46,9.5,5.68,17.72,13.34,22.35l-22.2,56.41Zm11.14,3.2l21.98-55.84c1.1,.13,2.22,.22,3.36,.22s2.26-.09,3.36-.22c20.08,18.87,44.59,33.05,71.8,40.81l-90.25,24.61c-2.54-4.01-6.07-7.33-10.26-9.59Zm185.2,62.03c-12.01,1.79-24.29,2.74-36.78,2.74-49.3,0-95.24-14.51-133.9-39.4,.01-.33,.05-.65,.05-.98,0-1.34-.13-2.65-.31-3.93l111.16-30.32c2.85,.38,5.72,.68,8.61,.92,5.06,6.69,13.05,11.02,22.08,11.02,2.12,0,4.17-.26,6.15-.71l30.34,51.46c-3.09,2.49-5.61,5.63-7.4,9.2Zm24.76-15.33c-2.43,0-4.78,.35-7.03,.93l-30.16-51.16c2.76-2.09,5.11-4.67,6.93-7.63,21.86-3.96,42.33-11.97,60.57-23.27l-26.86,81.36c-1.13-.14-2.28-.24-3.45-.24Zm16.45,5.45c-.68-.5-1.38-.97-2.1-1.41l31.76-96.22c4.3-3.37,8.44-6.92,12.4-10.67l62.41,40.71c-28.23,30.66-64.07,54.17-104.48,67.59Z"/></svg>