<svg width="400" height="400" viewBox="0 0 400 400" fill="none" xmlns="http://www.w3.org/2000/svg">
<path fill-rule="evenodd" clip-rule="evenodd" d="M68.75 50H331.25V192.639C331.25 213.86 326.252 247.244 308.117 278.306C289.812 309.654 258.351 338.207 200 350C141.655 338.208 110.19 309.658 91.8799 278.311C73.7451 247.241 68.75 213.857 68.75 192.632V50ZM321.875 59.375V192.632C321.875 232.725 304.136 318.755 200 340.625C95.8643 318.755 78.125 232.725 78.125 192.632V59.375H321.875Z" fill="#00B6FA"/>
<path d="M321.875 59.375H78.125V192.632C78.125 232.725 95.8643 318.755 200 341.094C304.136 318.755 321.875 232.725 321.875 192.632V59.375Z" fill="#142D51"/>
<path d="M291.875 94.1001H108.125V154.604L232.988 257.129L221.313 266.724L108.125 173.779V192.961C108.125 233.053 130.156 294.254 200 305.9C259.4 296.001 284.217 250.25 290.311 212.122C290.442 211.302 167.012 109.604 167.012 109.604H190.361L291.875 192.954L291.875 94.1001Z" fill="#10A0EC"/>
</svg>
