<svg width="241" height="241" viewBox="0 0 241 241" fill="none" xmlns="http://www.w3.org/2000/svg">
<rect width="241" height="241" fill="white"/>
<g clip-path="url(#clip0_61_252)">
<path d="M178.171 60.8573C179.801 60.8573 181.123 62.1775 181.123 63.8045V110.662V113.572C181.161 119.355 181.207 126.551 180.202 134.203C179.028 143.119 176.7 150.371 173.115 156.367C161.437 175.91 140.465 190.218 120.788 192.134C120.695 192.143 120.593 192.152 120.5 192.152C120.407 192.152 120.304 192.152 120.211 192.134C100.506 190.209 79.5436 175.901 67.8844 156.367C64.2898 150.361 61.9804 143.11 60.7977 134.203C59.7919 126.561 59.8385 119.355 59.8851 113.572V110.662L59.8944 63.8045C59.8944 62.1775 61.2167 60.8573 62.8464 60.8573H178.171ZM178.171 55.0001H62.8464C57.9853 55.0001 54.0276 58.9514 54.0276 63.8045V113.554C53.9717 119.16 53.9065 126.867 54.9774 134.965C56.2625 144.69 58.8328 152.667 62.8371 159.361C68.9833 169.662 77.588 178.755 87.7106 185.672C97.917 192.645 108.934 196.894 119.568 197.944C119.876 197.981 120.183 198 120.49 198C120.798 198 121.105 197.981 121.412 197.944C132.038 196.903 143.045 192.664 153.261 185.681C163.383 178.764 171.988 169.662 178.144 159.361C182.157 152.648 184.727 144.671 186.003 134.965C187.065 126.932 187.018 119.513 186.981 113.563V110.644V63.8045C186.981 58.9514 183.023 55.0001 178.162 55.0001L178.171 55.0001Z" fill="#0156FC"/>
<path d="M170.145 120.192C171.011 120.843 172.24 120.229 172.24 119.151L172.213 113.228V71.0006C172.222 70.2754 171.635 69.6804 170.909 69.6804H70.0832C69.3569 69.6804 68.7609 70.2661 68.7609 71.0006V96.9769C68.7609 98.0926 69.0216 99.1896 69.5152 100.184C70.018 101.179 70.7444 102.044 71.6291 102.713L147.479 159.333C148.14 159.826 148.186 160.783 147.591 161.341C146.184 162.662 144.713 163.907 143.176 165.079C142.711 165.432 142.059 165.432 141.593 165.088L70.8655 112.168C69.9994 111.518 68.7702 112.131 68.7702 113.219C68.7702 122.293 67.9693 139.223 75.6055 152.193C84.1357 166.687 98.7841 178.123 113.852 181.823C116.031 182.353 118.201 182.734 120.38 182.92C120.463 182.929 120.547 182.929 120.631 182.92C130.493 182.037 140.532 177.537 149.146 170.741C151.306 169.03 153.374 167.189 155.338 165.209C159.222 161.304 162.602 156.934 165.405 152.202C167.938 147.916 169.531 143.202 170.546 138.489C170.769 137.466 170.965 136.434 171.132 135.402C171.579 132.697 170.48 129.973 168.292 128.327L104.083 80.3814C103.077 79.6283 103.599 78.0199 104.874 78.0199H113.367C113.656 78.0199 113.926 78.1129 114.159 78.2803L170.145 120.183V120.192Z" fill="#0156FC"/>
</g>
<defs>
<clipPath id="clip0_61_252">
<rect width="133" height="143" fill="white" transform="translate(54 55)"/>
</clipPath>
</defs>
</svg>
