<svg width="144" height="144" viewBox="0 0 144 144" fill="none" xmlns="http://www.w3.org/2000/svg">
<rect width="144" height="144" fill="black"/>
<path d="M92 88.0001C92 105.673 77.6731 120 60 120C42.3269 120 28 105.673 28 88.0001H44C44 96.8366 51.1635 104 60 104C68.8365 104 76 96.8366 76 88.0001H92Z" fill="white"/>
<rect x="116" y="80" width="16" height="16" transform="rotate(-180 116 80)" fill="white"/>
<rect x="76" y="64" width="16" height="16" fill="white"/>
<rect x="68" y="80" width="16" height="16" transform="rotate(-180 68 80)" fill="white"/>
<rect x="28" y="64" width="16" height="16" fill="white"/>
<path d="M52 56C52 38.3269 66.3269 24 84 24C101.673 24 116 38.3269 116 56L100 56C100 47.1634 92.8366 40 84 40C75.1635 40 68 47.1634 68 56L52 56Z" fill="white"/>
</svg>
