<svg width="124" height="125" viewBox="0 0 124 125" fill="none" xmlns="http://www.w3.org/2000/svg">
<circle cx="62" cy="62.1836" r="62" fill="url(#paint0_linear_9267_27183)"/>
<g clip-path="url(#clip0_9267_27183)">
<path d="M61.5996 89.3103C62.0023 89.1826 62.4043 89.194 62.807 89.3103H61.5996Z" fill="#EE7139"/>
<path d="M67.3353 72.0234C67.3353 72.0234 67.3299 72.027 67.3281 72.0306L67.3371 72.0234H67.3353Z" fill="#EE7139"/>
<path d="M86.0436 60.4456C84.2831 59.3093 82.3753 58.553 80.3104 58.179C79.9031 58.1049 79.4883 58.2318 79.0954 58.0739C78.9466 58.0566 78.7872 58.1155 78.6497 58.0142C78.0951 57.9863 77.5413 57.9765 76.9874 58.0226C76.8424 58.1125 76.6844 58.0664 76.5303 58.0671C75.4076 58.1185 74.3233 58.3724 73.2655 58.732C72.0385 59.1491 70.8878 59.7331 69.7544 60.3618C68.7193 60.9352 67.6071 61.3032 66.4277 61.4936C64.8441 61.749 63.3163 61.5911 61.8211 61.0357C61.775 61.0184 61.7228 61.0191 61.6737 61.0108C61.8165 61.1642 61.9865 61.2526 62.1664 61.316C61.9858 61.2526 61.8158 61.1634 61.6737 61.0108C61.4297 60.8831 61.1864 60.7539 60.9408 60.6292C59.9102 60.1041 59.0444 59.3863 58.3719 58.4404C58.2072 58.4457 58.2049 58.3346 58.2125 58.2167C58.0508 58.2152 58.0523 58.1049 58.0621 57.9901L58.0637 57.9878C57.8838 57.6637 57.7033 57.3388 57.5234 57.0146C57.5 56.9829 57.4766 56.9512 57.4532 56.9194C57.4569 56.8998 57.4554 56.8817 57.4479 56.8635C57.4252 56.8288 57.4018 56.794 57.3791 56.7585C57.3882 56.7449 57.3889 56.7313 57.3814 56.7169C57.16 56.6822 57.2416 56.5114 57.2303 56.3815C57.2393 56.3679 57.2401 56.3543 57.2318 56.3399C57.1351 56.3218 57.0323 56.3067 57.1547 56.1813C57.1547 55.7393 56.9212 55.3486 56.8865 54.9112C56.8298 54.1972 56.7664 53.4688 56.8888 52.7752C57.0331 51.9562 57.2998 51.153 57.6776 50.3952C58.2699 49.2074 59.1275 48.235 60.1694 47.4492C61.0224 46.8055 62.0032 46.3522 62.9612 45.8716C65.0163 44.8395 67.0397 43.75 68.6763 42.0825C68.8493 41.8853 69.02 41.6851 69.1953 41.4901C70.2622 40.3062 70.7306 38.8986 70.7563 37.3247C70.8598 36.6477 70.6339 35.9995 70.5833 35.3353C70.5735 35.2024 70.5659 35.0807 70.3967 35.0611C70.2539 35.0445 70.1836 35.1125 70.1035 35.2341C69.7952 35.701 69.5316 36.1989 69.1349 36.6054C68.1187 37.6458 66.8682 38.307 65.5392 38.8389C63.9699 39.4667 62.3371 39.8951 60.7195 40.3749C58.387 41.0678 56.1052 41.9065 53.8801 42.8977C50.9644 44.1966 48.2844 45.8505 45.9958 48.0952C42.9449 51.0865 40.8278 54.6384 39.6612 58.7471C39.0318 60.9655 38.6971 63.2299 38.7568 65.5434C38.7598 65.6703 38.7621 65.7965 38.7651 65.9235C38.8316 65.9915 38.8331 66.0625 38.775 66.1358C38.809 67.6227 38.9638 69.0953 39.3061 70.5452C39.5532 71.5902 39.7972 72.6359 40.2506 73.6173C40.2725 73.6831 40.2951 73.7488 40.3171 73.8145C40.5883 74.2875 40.8444 74.7703 41.1361 75.2312C41.4534 75.7337 41.8032 76.2157 42.1387 76.7061L42.1342 76.703C42.1614 76.7295 42.1893 76.7552 42.2165 76.7816C42.9464 77.4609 43.6158 78.2104 44.4689 78.7491C44.5013 78.737 44.5301 78.7204 44.555 78.7023C44.5301 78.7211 44.5013 78.737 44.4689 78.7491C45.3642 79.3724 46.32 79.8779 47.3475 80.2459C47.816 80.2693 48.2119 80.5299 48.6554 80.6471C50.2043 81.0551 51.7797 81.0641 53.355 80.9999C54.4883 80.9538 55.599 80.7045 56.6946 80.406C57.6859 80.0728 58.6855 79.7646 59.6473 79.3467C60.8887 78.8065 62.0946 78.2066 63.178 77.383C64.835 76.0208 65.9729 74.2528 67.0533 72.4387C67.0911 72.3752 67.1395 72.3178 67.1825 72.2573C67.1991 72.1606 67.246 72.0828 67.3276 72.0276C67.3714 71.8818 67.4303 71.7443 67.5565 71.6476L67.5535 71.6498C67.6019 71.5274 67.6079 71.3741 67.7817 71.3461H67.7809C67.7454 71.0386 67.9638 70.8316 68.1043 70.6087C69.4046 68.5475 70.9603 66.716 72.9784 65.3182C73.4801 64.9707 73.975 64.6005 74.5621 64.3942L74.5659 64.3919C74.6142 64.367 74.6633 64.3421 74.7117 64.3171H74.7147C74.7449 64.2975 74.7751 64.2794 74.8054 64.2605C75.8397 63.6311 76.9889 63.3115 78.154 63.0546C80.4449 62.5491 82.7599 62.5627 85.081 62.7985C85.5419 62.8453 86.0058 62.8687 86.4591 62.9737C87.127 63.0289 87.7814 63.1702 88.4357 63.3077C88.6276 63.3477 88.7719 63.3266 88.9102 63.2004V62.8989C88.0027 62.0248 87.0915 61.1566 86.0451 60.4449L86.0436 60.4456ZM44.5709 78.6871C44.5769 78.6819 44.5829 78.6773 44.5882 78.672C44.5829 78.6773 44.5761 78.6819 44.5709 78.6871ZM44.725 78.4605C44.7348 78.4401 44.7454 78.4189 44.7552 78.3985C44.7446 78.4189 44.7348 78.4393 44.725 78.4605Z" fill="#202232" fill-opacity="0.7"/>
<path d="M38.7656 65.9219C38.8321 65.9899 38.8336 66.0609 38.7754 66.1342C38.7724 66.0632 38.7686 65.9921 38.7656 65.9219Z" fill="#F9B13E"/>
<path d="M76.5277 58.0682C76.6735 57.9858 76.8291 58.007 76.9848 58.0236C77.5386 57.9775 78.0932 57.9873 78.647 58.0153C78.7989 58.0138 78.9568 57.9647 79.0928 58.075C79.4857 58.2336 79.9005 58.1067 80.3077 58.18C82.3734 58.554 84.2805 59.3103 86.0409 60.4467C86.0288 60.3349 86.0266 60.2215 86.0031 60.112C85.4697 57.6519 84.5736 55.3308 83.2884 53.1661C80.616 48.663 76.8813 45.3597 72.0782 43.2645C70.972 42.7817 69.8236 42.4303 68.6721 42.082C67.0348 43.7496 65.0122 44.8391 62.957 45.8712C61.999 46.3525 61.0183 46.805 60.1652 47.4488C59.1233 48.2346 58.2658 49.207 57.6734 50.3947C57.2956 51.1525 57.0289 51.9557 56.8846 52.7747C56.7622 53.4691 56.8257 54.1974 56.8823 54.9107C56.9171 55.3482 57.1498 55.7395 57.1505 56.1808C57.2148 56.2148 57.2291 56.2737 57.2276 56.3395C57.2359 56.3538 57.2352 56.3674 57.2261 56.3803C57.3085 56.4777 57.3651 56.5865 57.3772 56.7157C57.3848 56.7301 57.384 56.7437 57.375 56.7573L57.4437 56.8623C57.4513 56.8804 57.4535 56.8993 57.449 56.9182C57.4724 56.95 57.4958 56.9817 57.5193 57.0134C57.6991 57.3376 57.8797 57.6624 58.0595 57.9866L58.058 57.9888C58.1418 58.0417 58.1902 58.1188 58.2083 58.2148C58.2952 58.2654 58.3451 58.3424 58.3678 58.4392C59.0402 59.3851 59.9061 60.1029 60.9367 60.628C61.1822 60.7534 61.4255 60.8826 61.6696 61.0096C61.7187 61.0171 61.7716 61.0171 61.8169 61.0345C63.3129 61.5898 64.8399 61.7478 66.4235 61.4924C67.603 61.302 68.7159 60.9348 69.7503 60.3605C70.8836 59.7319 72.0343 59.1479 73.2614 58.7308C74.3191 58.3712 75.4034 58.1173 76.5261 58.0659L76.5277 58.0682Z" fill="#202232" fill-opacity="0.3"/>
<path d="M73.3759 77.9931C73.3759 77.9931 73.3759 77.9873 73.3759 77.9844C73.373 77.9844 73.3701 77.9844 73.3672 77.9844L73.3759 77.9931Z" fill="#F5E25D"/>
<path d="M73.2238 77.8449C73.2238 77.8449 73.2238 77.8395 73.2238 77.8359C73.2202 77.8359 73.2184 77.8359 73.2148 77.8359L73.2238 77.8449Z" fill="#F5E25D"/>
<path d="M73.3078 77.9191C73.3078 77.9191 73.3078 77.9137 73.3078 77.9102C73.3042 77.9102 73.3024 77.9102 73.2988 77.9102L73.3078 77.9191Z" fill="#F5E25D"/>
<path d="M73.1476 77.7668C73.1476 77.7668 73.1476 77.7614 73.1476 77.7578C73.144 77.7578 73.1423 77.7578 73.1387 77.7578L73.1476 77.7668Z" fill="#F5E25D"/>
<path d="M86.4508 62.9773C85.9975 62.8723 85.5336 62.8489 85.0727 62.802C82.7516 62.5663 80.4366 62.5527 78.1457 63.0582C76.9814 63.3151 75.8314 63.6347 74.7971 64.264C74.7668 64.2822 74.7366 64.3011 74.7071 64.3192H74.7041C74.6807 64.394 74.6255 64.4061 74.5583 64.3947L74.5545 64.3963C74.4858 64.6063 74.284 64.6796 74.1314 64.802C72.8152 65.853 71.8247 67.1397 71.2663 68.7415C71.2429 68.8095 71.2029 68.8722 71.1704 68.9372C71.1553 69.0566 71.1243 69.1691 71.023 69.2477L71.02 69.3913C70.9958 69.4192 70.9709 69.4464 70.9467 69.4744V69.6912C70.9475 69.7547 70.9361 69.8121 70.8757 69.8476C70.8727 69.8967 70.8697 69.9459 70.8666 69.995C70.7616 70.7732 70.7133 71.5575 70.7269 72.341C70.7374 72.9228 70.9218 73.4819 71.0419 74.0493C71.4318 75.3141 72.0642 76.4459 72.9082 77.4622C72.9618 77.4962 73.0102 77.5339 72.9905 77.608C73.0457 77.6027 73.0676 77.6307 73.0646 77.6835C73.1182 77.6798 73.1431 77.7055 73.1401 77.7591C73.1938 77.7553 73.2187 77.781 73.2157 77.8347C73.2693 77.8309 73.2927 77.8581 73.2912 77.9102C73.3426 77.9087 73.3683 77.9329 73.3668 77.9843C73.4363 77.9714 73.4748 78.0152 73.5073 78.0674C73.5859 78.1361 73.6637 78.2049 73.7423 78.2729C73.8428 78.3545 73.944 78.4368 74.0445 78.5184C74.0687 78.5373 74.0936 78.557 74.1178 78.5766C74.1813 78.6167 74.2463 78.6544 74.3075 78.6968C76.4925 80.2177 78.8839 80.6423 81.4671 80.0462C82.7206 78.3877 83.8041 76.6295 84.6193 74.7119C86.2166 70.9538 86.8248 67.0422 86.4508 62.9766V62.9773Z" fill="#202232" fill-opacity="0.4"/>
<path d="M72.9936 77.6147C72.9936 77.6147 72.9936 77.6112 72.9945 77.6094C72.9918 77.6094 72.991 77.6094 72.9883 77.6094L72.9936 77.6147Z" fill="#F5E25D"/>
<path d="M73.0734 77.6925C73.0734 77.6925 73.0734 77.6872 73.0734 77.6836C73.0698 77.6836 73.068 77.6836 73.0645 77.6836L73.0734 77.6925Z" fill="#F5E25D"/>
<path d="M83.3365 79.576C83.202 79.4007 83.0434 79.4997 82.8953 79.5647C82.4351 79.7664 81.9689 79.95 81.4725 80.0445C78.8885 80.6406 76.4979 80.216 74.3129 78.695C74.2517 78.652 74.1867 78.6149 74.1232 78.5749C74.099 78.5552 74.0741 78.5364 74.0499 78.5167C73.8761 78.525 73.7432 78.4827 73.7477 78.2712C73.6691 78.2024 73.5913 78.1336 73.5127 78.0656C73.4515 78.0604 73.3941 78.049 73.3676 77.9833L73.3722 77.9878C73.3457 77.9614 73.3193 77.9349 73.2928 77.9085L73.2966 77.9123C73.2702 77.8858 73.2437 77.8594 73.2173 77.8329L73.2211 77.8367C73.1946 77.8103 73.1682 77.7838 73.1417 77.7574L73.1455 77.7612C73.1191 77.7347 73.0926 77.7083 73.0662 77.6818L73.07 77.6856C73.0435 77.6592 73.0171 77.6327 72.9906 77.6063L72.9952 77.6108C72.9279 77.5828 72.9166 77.5239 72.9136 77.4604C72.0696 76.4442 71.4372 75.3124 71.0473 74.0476C71.0315 74.1065 71.0073 74.1541 70.9786 74.1941C71.008 74.1541 71.0315 74.1065 71.0473 74.0476C70.9279 73.4809 70.7428 72.921 70.7322 72.3392C70.7186 71.5557 70.767 70.7715 70.872 69.9932C70.875 69.9441 70.8781 69.895 70.8811 69.8459C70.761 69.7288 70.8478 69.7054 70.9521 69.6895V69.4727C70.9763 69.4447 71.0012 69.4175 71.0254 69.3895C71.0262 69.3419 71.0269 69.2936 71.0284 69.246C71.0428 69.1258 70.9702 68.9649 71.1758 68.9354C71.2083 68.8705 71.2483 68.8078 71.2717 68.7398C71.8293 67.1372 72.8206 65.8513 74.1368 64.8003C74.2894 64.6786 74.4912 64.6053 74.5599 64.3945C73.9728 64.6 73.4772 64.971 72.9763 65.3186C70.9582 66.7164 69.4025 68.5478 68.1021 70.609C67.9616 70.8319 67.7433 71.0389 67.7788 71.3464C67.7591 71.4892 67.7395 71.632 67.5536 71.6494C67.5483 71.8179 67.5483 71.9894 67.3277 72.0272C67.3156 72.1277 67.3829 72.278 67.1796 72.2569C67.1365 72.3173 67.0882 72.3748 67.0504 72.4382C65.9699 74.2523 64.8321 76.0203 63.1759 77.3826C62.0924 78.2054 60.8865 78.8061 59.6452 79.3456C58.6833 79.7641 57.6837 80.0717 56.6924 80.4049C55.5969 80.7033 54.4862 80.9526 53.3528 80.9987C51.7775 81.0629 50.2014 81.0539 48.6533 80.6459C48.2097 80.5288 47.8138 80.2689 47.3454 80.2447C46.3178 79.8775 45.3613 79.3712 44.4667 78.7479C43.6137 78.2092 42.9442 77.4604 42.2144 76.7804C42.1879 76.7547 42.1615 76.7298 42.135 76.7041H42.1373C41.8018 76.2138 41.452 75.7317 41.1347 75.2293C40.8438 74.7684 40.5877 74.2856 40.3164 73.8133C40.6511 74.89 41.1468 75.8926 41.7127 76.8628C42.6473 78.5779 43.7844 80.1449 45.1429 81.5495C46.0239 82.5038 46.9706 83.3863 48.0209 84.1532C48.9366 84.9171 49.9445 85.5464 50.9751 86.138C51.8863 86.6609 52.8111 87.1611 53.8115 87.5018C53.8545 87.526 53.8946 87.5555 53.9399 87.5744C55.9663 88.4002 58.0683 88.9268 60.2436 89.1701C60.5186 89.2011 60.814 89.1467 61.0694 89.3061H61.5975C62.0002 89.1784 62.4022 89.1898 62.8049 89.3061H64.6152C64.8472 89.1603 65.1177 89.2086 65.3663 89.1822C67.3473 88.9722 69.2793 88.5475 71.1584 87.8917C74.263 86.8082 77.1182 85.2797 79.6902 83.2072C80.9285 82.2099 82.1253 81.1793 83.2186 80.0278C83.3403 79.8994 83.4854 79.7664 83.338 79.5745L83.3365 79.576ZM74.1232 78.8076C74.1104 78.8272 74.093 78.8461 74.068 78.8643C74.0922 78.8461 74.1104 78.8272 74.1232 78.8076C74.1398 78.7812 74.1474 78.7517 74.1474 78.7192C74.1474 78.7517 74.1398 78.7812 74.1232 78.8076Z" fill="#202232"/>
<path d="M67.3203 72.0313C67.3203 72.0313 67.3282 72.0313 67.3308 72.0313V72.0234L67.3203 72.034V72.0313Z" fill="#F9B13E"/>
<path d="M67.5469 71.6537C67.5469 71.6537 67.5548 71.6537 67.5574 71.6537V71.6484L67.5469 71.6563V71.6537Z" fill="#F9B13E"/>
<path d="M67.5492 71.6484C67.544 71.8184 67.5455 71.9915 67.3203 72.0285C67.3641 71.8819 67.4231 71.7444 67.5492 71.6484Z" fill="#F9B13E"/>
<path d="M67.7829 71.3477C67.7632 71.4912 67.7436 71.6355 67.5547 71.6506C67.603 71.5282 67.6091 71.3749 67.7829 71.3477Z" fill="#F9B13E"/>
<path d="M78.6504 58.0161C78.8023 58.0146 78.9602 57.9655 79.0962 58.0758C78.9473 58.0584 78.7879 58.1173 78.6504 58.0161Z" fill="#EE7139"/>
<path d="M76.5234 58.0678C76.6693 57.9854 76.8249 58.0066 76.9806 58.0232C76.8355 58.1131 76.6776 58.0678 76.5234 58.0678Z" fill="#EE7139"/>
<path d="M67.3317 72.0234C67.3181 72.1232 67.3884 72.2773 67.1836 72.2554C67.201 72.1572 67.2478 72.0786 67.3317 72.0234Z" fill="#F9B13E"/>
<path d="M74.7083 64.3164C74.6849 64.3905 74.6297 64.4025 74.5625 64.3912C74.6109 64.3663 74.66 64.3413 74.7083 64.3164Z" fill="#F9B13E"/>
<path d="M74.8048 64.2617C74.7745 64.2799 74.7443 64.2987 74.7148 64.3169C74.7451 64.2987 74.7753 64.2799 74.8048 64.2617Z" fill="#F9B13E"/>
<path d="M57.3814 56.7144C57.16 56.6796 57.2416 56.5089 57.2303 56.3789C57.3126 56.4764 57.3693 56.5852 57.3814 56.7144Z" fill="#EE7139"/>
<path d="M58.3707 58.4385C58.2059 58.4438 58.2037 58.3327 58.2112 58.2148C58.2981 58.2655 58.348 58.3418 58.3707 58.4385Z" fill="#F3913D"/>
<path d="M58.2107 58.2142C58.049 58.2134 58.0505 58.1031 58.0603 57.9883C58.1442 58.0412 58.1925 58.1182 58.2107 58.2142Z" fill="#F3913D"/>
<path d="M57.2287 56.3384C57.132 56.3202 57.0292 56.3051 57.1516 56.1797C57.2159 56.2137 57.2302 56.2726 57.2287 56.3384Z" fill="#EE7139"/>
<path d="M57.5214 57.0132C57.498 56.9814 57.4746 56.9497 57.4512 56.918C57.4746 56.9497 57.498 56.9814 57.5214 57.0132Z" fill="#EE7139"/>
<path d="M57.4438 56.8628C57.4211 56.8281 57.3977 56.7933 57.375 56.7578C57.3977 56.7926 57.4211 56.8273 57.4438 56.8628Z" fill="#EE7139"/>
<path d="M42.2152 76.7817C42.188 76.7553 42.1608 76.7296 42.1328 76.7031C42.16 76.7296 42.188 76.7553 42.2152 76.7817Z" fill="#F5E25D"/>
<path d="M73.754 78.2734C73.8545 78.355 73.9558 78.4374 74.0562 78.519C73.8825 78.5273 73.7495 78.485 73.754 78.2734Z" fill="#E84132"/>
<path d="M72.9141 77.4609C72.9692 77.4957 73.0183 77.5342 72.9957 77.6113C72.9284 77.5833 72.9171 77.5244 72.9141 77.4609Z" fill="#E84132"/>
<path d="M73.3672 77.9835C73.4397 77.9683 73.4783 78.0129 73.5123 78.0658C73.4511 78.0605 73.3936 78.0492 73.3672 77.9835Z" fill="#E84132"/>
<path d="M72.9883 77.6069C73.0495 77.5985 73.0721 77.628 73.0676 77.6862C73.0412 77.6597 73.0147 77.6333 72.9883 77.6069Z" fill="#E84132"/>
<path d="M73.0645 77.6843C73.1226 77.679 73.1491 77.7054 73.1438 77.7636C73.1173 77.7371 73.0909 77.7107 73.0645 77.6843Z" fill="#E84132"/>
<path d="M73.1484 77.7585C73.2066 77.7532 73.2331 77.7796 73.2278 77.8378C73.2013 77.8114 73.1749 77.7849 73.1484 77.7585Z" fill="#E84132"/>
<path d="M73.2168 77.8327C73.275 77.8274 73.2992 77.8561 73.2961 77.912C73.2697 77.8855 73.2432 77.8591 73.2168 77.8327Z" fill="#E84132"/>
<path d="M73.293 77.9104C73.3489 77.9074 73.3768 77.9323 73.3723 77.9897C73.3459 77.9633 73.3194 77.9368 73.293 77.9104Z" fill="#E84132"/>
<path d="M71.0306 69.248C71.0449 69.1279 70.9724 68.967 71.1779 68.9375C71.1628 69.0569 71.1318 69.1695 71.0306 69.248Z" fill="#F3913D"/>
<path d="M70.8824 69.8478C70.7623 69.7307 70.8492 69.7073 70.9534 69.6914C70.9542 69.7549 70.9429 69.8123 70.8824 69.8478Z" fill="#F3913D"/>
<path d="M70.9531 69.4737C70.9773 69.4458 71.0022 69.4186 71.0264 69.3906L70.9531 69.4737Z" fill="#F3913D"/>
</g>
<circle cx="62" cy="62.1836" r="62" fill="url(#paint1_linear_9267_27183)"/>
<path d="M63.9246 35.0586C60.3679 35.0586 57.4883 47.2027 57.4883 62.183C57.4883 77.1633 60.3705 89.3086 63.9246 89.3086C67.4787 89.3086 70.3623 77.1645 70.3623 62.183C70.3623 47.2014 67.48 35.0586 63.9246 35.0586ZM64.3699 87.7763C63.9628 88.2875 63.5571 87.9004 63.5571 87.9004C61.9197 86.1138 61.1003 82.7949 61.1003 82.7949C58.2378 74.1099 58.9189 55.4782 58.9189 55.4782C60.2652 40.6864 62.714 37.1914 63.5453 36.4159C63.6308 36.3351 63.7442 36.2857 63.8651 36.2769C63.9859 36.268 64.1061 36.3002 64.2039 36.3675C65.4132 37.174 66.4262 40.5475 66.4262 40.5475C69.4204 51.0141 69.1491 60.843 69.1491 60.843C69.4204 69.3952 67.6487 78.9685 67.6487 78.9685C66.2787 86.244 64.3699 87.7763 64.3699 87.7763Z" fill="#202232"/>
<path d="M88.9175 48.6843C87.1483 45.7785 74.5312 49.4672 60.7271 56.9238C46.923 64.3805 37.1895 72.7776 38.9573 75.6809C40.7251 78.5841 53.3449 74.8967 67.1477 67.4413C80.9504 59.9859 90.6866 51.5875 88.9175 48.6843ZM40.5894 75.2814C39.9123 75.2007 40.0625 74.6759 40.0625 74.6759C40.8937 72.4501 43.5389 70.1299 43.5389 70.1299C50.1109 63.4711 67.614 54.7538 67.614 54.7538C81.9068 48.4895 86.3474 48.7538 87.4737 49.0466C87.5894 49.0767 87.69 49.1445 87.7577 49.2378C87.8255 49.3311 87.856 49.444 87.8439 49.5565C87.7121 50.9461 85.0986 53.4523 85.0986 53.4523C76.9537 61.1112 67.7668 65.7825 67.7668 65.7825C60.025 70.2615 50.327 73.5766 50.327 73.5766C42.9501 76.0804 40.5868 75.2826 40.5868 75.2826L40.5894 75.2814Z" fill="#202232"/>
<path d="M88.8565 75.7748C90.6401 72.8777 80.9289 64.4397 67.1723 56.9297C53.4157 49.4196 40.8038 45.6839 39.0215 48.5933C37.2392 51.5028 46.949 59.921 60.7096 67.4323C74.4702 74.9435 87.0742 78.678 88.8565 75.7748ZM40.2031 49.71C39.9396 49.1219 40.4955 48.9792 40.4955 48.9792C42.9576 48.5425 46.4234 49.5388 46.4234 49.5388C55.8329 51.5574 72.6115 61.4496 72.6115 61.4496C85.529 69.9633 87.5102 73.714 87.8079 74.7785C87.8381 74.8876 87.8264 75.0032 87.7748 75.1049C87.7232 75.2067 87.6351 75.2879 87.526 75.3343C86.1784 75.915 82.5703 75.0502 82.5703 75.0502C71.4443 72.245 62.5538 67.0985 62.5538 67.0985C54.563 63.0401 46.6618 56.8006 46.6618 56.8006C40.6589 52.0388 40.207 49.7174 40.207 49.7174L40.2031 49.71Z" fill="#202232"/>
<path d="M63.8666 65.3119C65.7378 65.3119 67.2547 63.8832 67.2547 62.1208C67.2547 60.3584 65.7378 58.9297 63.8666 58.9297C61.9954 58.9297 60.4785 60.3584 60.4785 62.1208C60.4785 63.8832 61.9954 65.3119 63.8666 65.3119Z" fill="#202232"/>
<path d="M77.7389 51.782C78.8243 51.782 79.7043 50.9248 79.7043 49.8675C79.7043 48.8102 78.8243 47.9531 77.7389 47.9531C76.6534 47.9531 75.7734 48.8102 75.7734 49.8675C75.7734 50.9248 76.6534 51.782 77.7389 51.782Z" fill="#202232"/>
<path d="M45.5064 58.2898C46.5919 58.2898 47.4719 57.4327 47.4719 56.3754C47.4719 55.318 46.5919 54.4609 45.5064 54.4609C44.421 54.4609 43.541 55.318 43.541 56.3754C43.541 57.4327 44.421 58.2898 45.5064 58.2898Z" fill="#202232"/>
<path d="M59.8717 81.778C60.9571 81.778 61.8371 80.9209 61.8371 79.8636C61.8371 78.8063 60.9571 77.9492 59.8717 77.9492C58.7862 77.9492 57.9062 78.8063 57.9062 79.8636C57.9062 80.9209 58.7862 81.778 59.8717 81.778Z" fill="#202232"/>
<defs>
<linearGradient id="paint0_linear_9267_27183" x1="0" y1="0.183594" x2="124" y2="124.184" gradientUnits="userSpaceOnUse">
<stop stop-color="#FFD6A7"/>
<stop offset="1" stop-color="#FFA26D"/>
</linearGradient>
<linearGradient id="paint1_linear_9267_27183" x1="0" y1="0.183594" x2="124" y2="124.184" gradientUnits="userSpaceOnUse">
<stop stop-color="#FFC8C5"/>
<stop offset="1" stop-color="#FF5E5E"/>
</linearGradient>
<clipPath id="clip0_9267_27183">
<rect width="50.1579" height="54.25" fill="white" transform="translate(38.75 35.0586)"/>
</clipPath>
</defs>
</svg>
