<svg width="257" height="257" viewBox="0 0 257 257" fill="none" xmlns="http://www.w3.org/2000/svg">
<circle cx="128.582" cy="128.32" r="128" fill="url(#paint0_linear_9267_28113)"/>
<path fill-rule="evenodd" clip-rule="evenodd" d="M70.4013 169.309C68.8873 171.903 70.748 175.165 73.7457 175.173L96.9098 175.236L158.196 130.875L122.518 175.337L129.147 175.346L152.119 175.415L163.241 140.37L167.422 175.472L184.548 175.515C187.546 175.523 189.424 172.27 187.923 169.669L160.39 121.937L132.821 74.1375C131.329 71.5504 127.606 71.5408 126.101 74.1203L117.211 89.3524L145.859 110.546L109.477 102.524L98.2319 121.746L94.5613 128.071L151.637 119.622L81.4878 150.319L70.4013 169.309ZM168.39 115.456C169.895 115.79 170.778 117.359 170.285 118.823L165.976 131.619L154.931 112.471L168.39 115.456Z" fill="#202232"/>
<defs>
<linearGradient id="paint0_linear_9267_28113" x1="0.582031" y1="0.320312" x2="256.582" y2="256.32" gradientUnits="userSpaceOnUse">
<stop stop-color="#FFC8C5"/>
<stop offset="1" stop-color="#FF5E5E"/>
</linearGradient>
</defs>
</svg>
