<svg width="124" height="124" viewBox="0 0 124 124" fill="none" xmlns="http://www.w3.org/2000/svg">
<g clip-path="url(#clip0_9267_28043)">
<path d="M123.721 61.8863C123.721 70.0133 122.121 78.0608 119.013 85.5691C115.904 93.0775 111.347 99.8998 105.603 105.647C99.8585 111.393 93.039 115.952 85.5338 119.062C78.0285 122.172 69.9844 123.773 61.8607 123.773C53.737 123.773 45.6929 122.172 38.1876 119.062C30.6823 115.952 23.8629 111.393 18.1186 105.647C12.3743 99.8998 7.81765 93.0775 4.70886 85.5691C1.60007 78.0608 -1.538e-06 70.0133 0 61.8863C3.10613e-06 45.473 6.51745 29.732 18.1186 18.1261C29.7197 6.52016 45.4542 6.83914e-07 61.8607 0C78.2672 -6.21741e-07 94.0017 6.52016 105.603 18.1261C117.204 29.732 123.721 45.473 123.721 61.8863Z" fill="url(#paint0_linear_9267_28043)"/>
<g clip-path="url(#clip1_9267_28043)">
<path fill-rule="evenodd" clip-rule="evenodd" d="M84.0007 62.6494C83.9983 62.679 83.9865 62.7071 83.9671 62.7296C83.9476 62.7521 83.9216 62.7678 83.8926 62.7745C83.8637 62.7811 83.8333 62.7784 83.806 62.7667C83.7787 62.755 83.7558 62.7349 83.7407 62.7094L83.6607 62.5294C83.6317 62.4792 83.6165 62.4223 83.6165 62.3644C83.6165 62.3065 83.6317 62.2495 83.6607 62.1994L83.7407 62.0894C83.8307 61.9694 83.9707 61.9794 83.9707 62.0894C83.9707 62.1994 83.9707 62.4394 83.9707 62.6194M82.9107 59.7094C82.8706 59.7756 82.8141 59.8304 82.7467 59.8684C82.6792 59.9064 82.6031 59.9264 82.5257 59.9264C82.4482 59.9264 82.3721 59.9064 82.3047 59.8684C82.2372 59.8304 82.1808 59.7756 82.1407 59.7094L82.0607 59.5794C81.3787 58.5275 80.6235 57.5251 79.8007 56.5794C79.7549 56.5257 79.7255 56.4601 79.7158 56.3902C79.7061 56.3203 79.7166 56.2491 79.746 56.185C79.7754 56.1209 79.8226 56.0666 79.8819 56.0284C79.9412 55.9901 80.0101 55.9697 80.0807 55.9694C82.0807 55.9694 83.0807 56.4594 83.4107 57.0494C83.7407 57.6394 83.5907 58.4194 82.9107 59.6394M82.5007 70.0594C82.3907 70.3294 82.2807 70.5894 82.1607 70.8594C82.1644 70.896 82.1644 70.9328 82.1607 70.9694C81.3686 72.4246 80.1117 73.5724 78.5907 74.2294C78.5091 74.2696 78.4176 74.2853 78.3273 74.2746C78.237 74.2639 78.1517 74.2271 78.0819 74.1689C78.012 74.1107 77.9605 74.0335 77.9337 73.9466C77.9069 73.8597 77.9058 73.7669 77.9307 73.6794C78.4923 71.6361 78.9002 69.5536 79.1507 67.4494C79.2006 67.0392 79.4 66.6618 79.7107 66.3894C80.3807 65.8094 81.0107 65.2394 81.5807 64.6594C81.6461 64.5952 81.727 64.5491 81.8155 64.5255C81.9041 64.502 81.9972 64.5018 82.0859 64.5249C82.1745 64.5481 82.2556 64.5939 82.3213 64.6577C82.387 64.7216 82.435 64.8014 82.4607 64.8894C83.0304 66.5648 83.0584 68.3771 82.5407 70.0694M78.1107 77.0694C77.9507 77.2494 77.7807 77.4194 77.6107 77.5994C77.4407 77.7794 77.0007 78.1894 76.6907 78.4694C76.6476 78.5053 76.5936 78.5256 76.5376 78.5272C76.4815 78.5287 76.4266 78.5113 76.3815 78.4779C76.3365 78.4444 76.3041 78.3968 76.2894 78.3426C76.2748 78.2885 76.2787 78.231 76.3007 78.1794C76.3299 78.1075 76.3633 78.0374 76.4007 77.9694C76.5307 77.6794 76.6507 77.3794 76.7807 77.0794C76.7954 77.0457 76.8174 77.0157 76.845 76.9915C76.8727 76.9673 76.9053 76.9495 76.9407 76.9394C77.2607 76.8594 77.5607 76.7694 77.8607 76.6694C77.9128 76.649 77.9704 76.6475 78.0235 76.6651C78.0766 76.6827 78.1219 76.7183 78.1515 76.7657C78.1812 76.8132 78.1933 76.8695 78.1858 76.9249C78.1784 76.9804 78.1518 77.0315 78.1107 77.0694ZM74.8207 75.2994C74.154 75.3927 73.464 75.4527 72.7507 75.4794C70.892 75.5226 69.0342 75.3617 67.2107 74.9994C67.1617 74.9882 67.1172 74.9626 67.0831 74.9258C67.0489 74.8891 67.0265 74.8429 67.019 74.7932C67.0114 74.7436 67.019 74.6928 67.0407 74.6475C67.0624 74.6023 67.0972 74.5646 67.1407 74.5394L68.4007 73.8894C71.2004 72.4123 73.8937 70.7416 76.4607 68.8894C76.5006 68.8617 76.5477 68.8463 76.5963 68.845C76.6448 68.8436 76.6927 68.8565 76.7341 68.882C76.7755 68.9074 76.8085 68.9444 76.8292 68.9883C76.8499 69.0323 76.8574 69.0813 76.8507 69.1294C76.5355 71.0213 76.0775 72.8866 75.4807 74.7094C75.4313 74.8525 75.3437 74.9795 75.2274 75.0764C75.111 75.1734 74.9704 75.2366 74.8207 75.2594M74.1507 77.9994C72.5707 81.0994 70.6407 82.8294 68.7607 82.7994C66.7607 82.7994 64.6907 80.6394 63.1907 76.9694C63.147 76.8564 63.1487 76.731 63.1952 76.6192C63.2418 76.5074 63.3297 76.4179 63.4407 76.3694H63.4907C63.591 76.3343 63.7003 76.3343 63.8007 76.3694C66.4711 77.109 69.2297 77.4824 72.0007 77.4794H72.8407L73.8407 77.4294C73.9076 77.4216 73.9753 77.4323 74.0367 77.4602C74.098 77.4881 74.1505 77.5322 74.1885 77.5878C74.2266 77.6433 74.2488 77.7083 74.2527 77.7755C74.2566 77.8428 74.2421 77.9098 74.2107 77.9694M64.9007 83.8494C63.9383 83.9626 62.9696 84.0127 62.0007 83.9994C57.7861 84.0104 53.6578 82.8055 50.1107 80.5294C50.0579 80.4946 50.0175 80.444 49.9952 80.3848C49.9729 80.3257 49.9699 80.261 49.9865 80.2001C50.0031 80.1391 50.0386 80.0849 50.0878 80.0453C50.1371 80.0057 50.1975 79.9826 50.2607 79.9794H50.4307C51.4149 79.9086 52.3935 79.775 53.3607 79.5794C55.8824 79.0679 58.3551 78.3385 60.7507 77.3994C60.8649 77.3563 60.9913 77.3594 61.1033 77.4079C61.2153 77.4565 61.304 77.5466 61.3507 77.6594C62.1138 79.7737 63.3642 81.6784 65.0007 83.2194C65.0513 83.2641 65.088 83.3224 65.1062 83.3875C65.1244 83.4525 65.1234 83.5215 65.1033 83.5859C65.0832 83.6504 65.0449 83.7077 64.993 83.7509C64.9411 83.7941 64.8777 83.8214 64.8107 83.8294M52.1107 68.4094C54.2323 66.6997 56.4749 65.1456 58.8207 63.7594C58.8495 66.7854 59.1845 69.8008 59.8207 72.7594C58.8907 72.3594 57.9707 71.9294 57.0607 71.4494C55.3206 70.5545 53.6493 69.5317 52.0607 68.3894M46.0807 76.9994C45.6107 76.1294 46.2107 74.1094 49.2507 70.9994C49.326 70.9249 49.3848 70.8352 49.423 70.7364C49.4612 70.6375 49.478 70.5317 49.4723 70.4259C49.4666 70.3201 49.4386 70.2167 49.3901 70.1225C49.3415 70.0283 49.2736 69.9454 49.1907 69.8794L48.8207 69.5894C48.6842 69.4643 48.5058 69.3949 48.3207 69.3949C48.1355 69.3949 47.9571 69.4643 47.8207 69.5894L47.7007 69.7094C46.4074 70.9531 45.3294 72.4028 44.5107 73.9994C44.4715 74.0822 44.4111 74.1532 44.3356 74.2052C44.2602 74.2572 44.1723 74.2883 44.081 74.2954C43.9896 74.3025 43.898 74.2853 43.8154 74.2456C43.7328 74.206 43.6622 74.1451 43.6107 74.0694C41.2473 70.4883 39.9917 66.2901 40.0007 61.9994C40 60.4573 40.1575 58.9193 40.4707 57.4094C40.485 57.3622 40.5142 57.321 40.5538 57.2916C40.5934 57.2623 40.6414 57.2465 40.6907 57.2465C40.74 57.2465 40.7879 57.2623 40.8275 57.2916C40.8672 57.321 40.8963 57.3622 40.9107 57.4094C41.4314 59.0343 42.1752 60.579 43.1207 61.9994C44.6277 64.2357 46.4346 66.2545 48.4907 67.9994C49.2307 68.6394 50.0107 69.2594 50.8207 69.8494C52.5139 71.0899 54.2991 72.1997 56.1607 73.1694C57.0107 73.5994 57.8307 74.0194 58.6707 74.3994C58.9048 74.4984 59.1565 74.5494 59.4107 74.5494C59.6649 74.5494 59.9165 74.4984 60.1507 74.3994L61.3507 73.9194C61.5576 73.8243 61.7258 73.6615 61.8277 73.4579C61.9295 73.2542 61.9588 73.0219 61.9107 72.7994C61.9107 72.7394 61.9107 72.6894 61.9107 72.6694C61.2202 69.644 60.8614 66.5525 60.8407 63.4494V63.3294C60.8407 63.1494 60.8407 62.9694 60.8407 62.7894V62.5794C60.8458 62.5563 60.8458 62.5324 60.8407 62.5094V61.9994C60.8407 61.4394 60.8607 60.8794 60.9007 60.3194C61.0519 56.6371 61.7081 52.9931 62.8507 49.4894C62.8983 49.3488 62.8882 49.1951 62.8226 49.0619C62.757 48.9288 62.6412 48.8272 62.5007 48.7794L61.6507 48.4994C61.5141 48.4581 61.3668 48.4715 61.2399 48.5368C61.113 48.6022 61.0165 48.7142 60.9707 48.8494C59.7382 52.644 59.0415 56.5921 58.9007 60.5794C58.8889 60.8463 58.8104 61.1061 58.6724 61.3349C58.5344 61.5637 58.3413 61.7544 58.1107 61.8894C55.7148 63.2954 53.4193 64.8658 51.2407 66.5894C51.0404 66.7535 50.7896 66.8432 50.5307 66.8432C50.2718 66.8432 50.0209 66.7535 49.8207 66.5894C47.9031 64.9591 46.2205 63.0712 44.8207 60.9794C42.2707 57.0794 41.6707 53.4394 43.1007 50.6894C43.2807 50.3894 43.4707 50.0894 43.6707 49.7894C45.3107 47.6194 48.3707 46.3494 52.4407 46.2094H53.2107C55.8831 46.2387 58.5385 46.6392 61.1007 47.3994L61.2807 47.4494H61.4207C62.0507 47.6294 62.6807 47.8394 63.3107 48.0694L63.8007 48.2594L63.9607 48.3094L64.1107 48.3694C65.477 48.8933 66.8124 49.4943 68.1107 50.1694C70.5686 51.4384 72.8792 52.9743 75.0007 54.7494C70.5418 55.8642 66.2315 57.5057 62.1607 59.6394C62.0572 59.6908 61.9693 59.7688 61.906 59.8655C61.8427 59.9622 61.8064 60.074 61.8007 60.1894C61.8007 60.4694 61.8007 61.0294 61.8007 61.4694C61.7966 61.5335 61.8097 61.5976 61.8387 61.6549C61.8677 61.7122 61.9115 61.7608 61.9655 61.7955C62.0196 61.8301 62.082 61.8497 62.1462 61.8522C62.2104 61.8546 62.2741 61.8399 62.3307 61.8094C66.3625 59.64 70.6396 57.9614 75.0707 56.8094C75.4142 56.7238 75.7138 56.5139 75.9114 56.2202C76.1091 55.9264 76.1908 55.5698 76.1407 55.2194C76.0707 54.7094 75.9907 54.2194 75.9107 53.7194C75.7881 53.0937 75.4301 52.539 74.9107 52.1694C73.061 50.763 71.0938 49.5184 69.0307 48.4494C67.629 47.7204 66.1867 47.0727 64.7107 46.5094C64.6379 46.4819 64.5719 46.439 64.5172 46.3837C64.4625 46.3283 64.4204 46.2618 64.3938 46.1887C64.3672 46.1156 64.3568 46.0376 64.3631 45.96C64.3695 45.8825 64.3925 45.8072 64.4307 45.7394C65.9207 43.0694 67.7007 41.5694 69.4307 41.5694C71.4307 41.5694 73.5007 43.7294 75.0107 47.3994C75.819 49.4372 76.4057 51.556 76.7607 53.7194C76.9307 54.7194 77.0707 55.7194 77.1707 56.7894C77.3428 58.6107 77.4129 60.4402 77.3807 62.2694C77.3807 63.4594 77.3007 64.6294 77.1907 65.7694C74.1341 68.1968 70.8526 70.3265 67.3907 72.1294C66.1707 72.7794 64.9507 73.3794 63.7407 73.9294H63.6907L63.4107 74.0594C62.4107 74.5094 61.4107 74.9294 60.4107 75.3094L60.2507 75.3694L60.0507 75.4494L59.5607 75.6394H59.4207L58.8307 75.8494H58.7607C56.887 76.5861 54.9619 77.1844 53.0007 77.6394C48.6307 78.4794 46.5707 77.8394 46.1007 76.9494M49.2207 44.0694C52.9493 41.4077 57.4195 39.984 62.0007 39.9994C63.2131 39.9995 64.4237 40.0965 65.6207 40.2894C65.6926 40.3001 65.7597 40.3318 65.8138 40.3805C65.8678 40.4291 65.9063 40.4926 65.9244 40.563C65.9425 40.6335 65.9395 40.7076 65.9157 40.7764C65.892 40.8451 65.8485 40.9052 65.7907 40.9494C64.4816 42.0591 63.4072 43.419 62.6307 44.9494C62.5237 45.1577 62.3469 45.3219 62.1313 45.4133C61.9157 45.5046 61.6748 45.5174 61.4507 45.4494C58.5093 44.5915 55.4538 44.1901 52.3907 44.2594C51.3842 44.2861 50.3813 44.3897 49.3907 44.5694C49.3346 44.5798 49.2767 44.5708 49.2264 44.5438C49.1762 44.5168 49.1367 44.4734 49.1145 44.4209C49.0924 44.3683 49.0888 44.3098 49.1045 44.2549C49.1201 44.2001 49.1541 44.1523 49.2007 44.1194M79.4207 60.1194C79.4147 60.0596 79.4304 59.9997 79.4649 59.9506C79.4994 59.9014 79.5505 59.8664 79.6088 59.8518C79.667 59.8373 79.7286 59.8442 79.7822 59.8713C79.8358 59.8983 79.8779 59.9438 79.9007 59.9994C80.0807 60.2494 80.2607 60.5094 80.4207 60.7594C80.5807 61.0094 80.8507 61.4394 81.0407 61.7594C81.0985 61.8614 81.1229 61.979 81.1104 62.0957C81.0978 62.2123 81.0489 62.322 80.9707 62.4094L80.1307 63.2894L79.7907 63.6194C79.7588 63.6492 79.7187 63.6688 79.6756 63.6758C79.6325 63.6828 79.5883 63.6768 79.5486 63.6585C79.5089 63.6403 79.4756 63.6107 79.4528 63.5734C79.43 63.5362 79.4188 63.493 79.4207 63.4494V62.3594C79.4207 61.6194 79.4207 60.8794 79.4207 60.1394M77.1607 45.9994C77.2907 46.1394 77.4307 46.2694 77.5707 46.3994C79.657 48.4837 81.3029 50.9662 82.4107 53.6994C82.4374 53.7612 82.4467 53.8291 82.4377 53.8958C82.4286 53.9625 82.4016 54.0255 82.3594 54.078C82.3172 54.1304 82.2615 54.1704 82.1983 54.1935C82.1351 54.2167 82.0668 54.2222 82.0007 54.2094C81.2974 54.089 80.5839 54.0388 79.8707 54.0594C79.6079 54.0637 79.3521 53.9746 79.1488 53.8079C78.9455 53.6413 78.808 53.4079 78.7607 53.1494C78.376 50.9049 77.7594 48.7065 76.9207 46.5894C76.8707 46.4794 76.8207 46.3794 76.7807 46.2694C76.7609 46.2195 76.7584 46.1643 76.7737 46.1129C76.789 46.0614 76.821 46.0165 76.8648 45.9854C76.9086 45.9543 76.9615 45.9388 77.0152 45.9413C77.0688 45.9438 77.12 45.9643 77.1607 45.9994ZM85.4807 56.9994C84.5891 52.766 82.5699 48.8524 79.6365 45.6725C76.7032 42.4926 72.9649 40.1647 68.817 38.9351C64.6692 37.7055 60.2662 37.6199 56.0737 38.6874C51.8813 39.755 48.0553 41.9358 45.0007 44.9994C43.9098 46.09 42.9254 47.282 42.0607 48.5594C41.8053 48.897 41.5779 49.2548 41.3807 49.6294C39.8287 52.4367 38.8553 55.5267 38.5179 58.7167C38.1805 61.9067 38.486 65.1319 39.4164 68.2018C40.3468 71.2717 41.8831 74.124 43.9346 76.59C45.9861 79.0559 48.5112 81.0857 51.3605 82.5591C54.2099 84.0326 57.3257 84.9199 60.5238 85.1687C63.7219 85.4174 66.9374 85.0225 69.9803 84.0073C73.0232 82.9921 75.8317 81.3772 78.2398 79.258C80.648 77.1389 82.6068 74.5585 84.0007 71.6694C84.1407 71.3694 84.2707 71.0694 84.3807 70.7594C85.4626 67.9661 86.0121 64.9949 86.0007 61.9994C86.0034 60.3427 85.8325 58.6904 85.4907 57.0694V56.9994" fill="#202232"/>
</g>
</g>
<defs>
<linearGradient id="paint0_linear_9267_28043" x1="0" y1="0" x2="123.773" y2="123.721" gradientUnits="userSpaceOnUse">
<stop stop-color="#FFC8C5"/>
<stop offset="1" stop-color="#FF5E5E"/>
</linearGradient>
<clipPath id="clip0_9267_28043">
<rect width="124" height="124" fill="white"/>
</clipPath>
<clipPath id="clip1_9267_28043">
<rect width="48" height="48" fill="white" transform="translate(38 38)"/>
</clipPath>
</defs>
</svg>
