<svg width="124" height="124" viewBox="0 0 124 124" fill="none" xmlns="http://www.w3.org/2000/svg">
<circle cx="62" cy="62" r="62" fill="white"/>
<circle cx="62" cy="62" r="62" fill="url(#paint0_radial_9267_28096)"/>
<path d="M40.3476 51.8493C40.8038 51.9832 41.2425 52.1712 41.6542 52.4093C43.1005 53.2724 44.7533 53.7282 46.4376 53.7282C48.1218 53.7282 49.7746 53.2724 51.2209 52.4093C52.132 51.894 53.1609 51.6231 54.2076 51.6231C55.2543 51.6231 56.2831 51.894 57.1942 52.4093C58.6579 53.2462 60.3148 53.6865 62.0009 53.6865C63.687 53.6865 65.3439 53.2462 66.8076 52.4093C67.7186 51.894 68.7475 51.6231 69.7942 51.6231C70.8409 51.6231 71.8698 51.894 72.7809 52.4093C74.2596 53.2544 75.9311 53.7044 77.6342 53.7159C79.2796 53.7125 80.893 53.2608 82.3009 52.4093C82.7126 52.1712 83.1513 51.9832 83.6076 51.8493C84.2016 51.676 84.7026 51.2738 85.0001 50.7312C85.2977 50.1886 85.3675 49.55 85.1942 48.9559C85.021 48.3618 84.6188 47.8609 84.0762 47.5634C83.5336 47.2658 82.895 47.196 82.3009 47.3693C81.4828 47.6217 80.6991 47.9744 79.9676 48.4193C79.2242 48.8539 78.3786 49.083 77.5176 49.083C76.6565 49.083 75.8109 48.8539 75.0676 48.4193C73.4497 47.5118 71.6259 47.0352 69.7709 47.0352C67.9159 47.0352 66.0921 47.5118 64.4742 48.4193C63.723 48.8557 62.8697 49.0856 62.0009 49.0856C61.1321 49.0856 60.2788 48.8557 59.5276 48.4193C57.9097 47.5118 56.0859 47.0352 54.2309 47.0352C52.3759 47.0352 50.5521 47.5118 48.9342 48.4193C48.1909 48.8539 47.3453 49.083 46.4842 49.083C45.6231 49.083 44.7775 48.8539 44.0342 48.4193C43.3027 47.9744 42.519 47.6217 41.7009 47.3693C41.1068 47.196 40.4682 47.2658 39.9256 47.5634C39.383 47.8609 38.9808 48.3618 38.8076 48.9559C38.6343 49.55 38.7041 50.1886 39.0017 50.7312C39.2992 51.2738 39.8001 51.676 40.3942 51.8493H40.3476ZM82.3476 70.7026C81.5295 70.9551 80.7457 71.3077 80.0142 71.7526C79.2709 72.1873 78.4253 72.4164 77.5642 72.4164C76.7031 72.4164 75.8575 72.1873 75.1142 71.7526C73.4964 70.8451 71.6725 70.3685 69.8176 70.3685C67.9626 70.3685 66.1387 70.8451 64.5209 71.7526C63.7697 72.1891 62.9164 72.419 62.0476 72.419C61.1788 72.419 60.3254 72.1891 59.5742 71.7526C57.9564 70.8451 56.1325 70.3685 54.2776 70.3685C52.4226 70.3685 50.5987 70.8451 48.9809 71.7526C48.2376 72.1873 47.392 72.4164 46.5309 72.4164C45.6698 72.4164 44.8242 72.1873 44.0809 71.7526C43.3494 71.3077 42.5656 70.9551 41.7476 70.7026C41.4534 70.6168 41.1452 70.5898 40.8406 70.6231C40.536 70.6564 40.2409 70.7494 39.9723 70.8967C39.7036 71.044 39.4666 71.2428 39.2747 71.4818C39.0829 71.7207 38.94 71.9951 38.8542 72.2893C38.7684 72.5834 38.7414 72.8916 38.7747 73.1962C38.808 73.5008 38.901 73.7959 39.0483 74.0645C39.1957 74.3332 39.3945 74.5702 39.6334 74.7621C39.8723 74.9539 40.1467 75.0968 40.4409 75.1826C40.8972 75.3166 41.3358 75.5046 41.7476 75.7426C43.1938 76.6058 44.8466 77.0615 46.5309 77.0615C48.2151 77.0615 49.868 76.6058 51.3142 75.7426C52.2253 75.2273 53.2542 74.9565 54.3009 74.9565C55.3476 74.9565 56.3765 75.2273 57.2876 75.7426C58.7513 76.5795 60.4081 77.0198 62.0942 77.0198C63.7803 77.0198 65.4372 76.5795 66.9009 75.7426C67.812 75.2273 68.8409 74.9565 69.8876 74.9565C70.9343 74.9565 71.9632 75.2273 72.8742 75.7426C74.3529 76.5877 76.0244 77.0377 77.7276 77.0493C79.373 77.0459 80.9863 76.5941 82.3942 75.7426C82.8059 75.5046 83.2446 75.3166 83.7009 75.1826C84.295 75.0093 84.7959 74.6071 85.0935 74.0645C85.391 73.5219 85.4608 72.8833 85.2876 72.2893C85.1143 71.6952 84.7121 71.1943 84.1695 70.8967C83.6269 70.5991 82.9883 70.5293 82.3942 70.7026H82.3476ZM82.3476 59.0359C81.5295 59.2884 80.7457 59.6411 80.0142 60.0859C79.2709 60.5206 78.4253 60.7497 77.5642 60.7497C76.7031 60.7497 75.8575 60.5206 75.1142 60.0859C73.4964 59.1784 71.6725 58.7018 69.8176 58.7018C67.9626 58.7018 66.1387 59.1784 64.5209 60.0859C63.7697 60.5224 62.9164 60.7523 62.0476 60.7523C61.1788 60.7523 60.3254 60.5224 59.5742 60.0859C57.9564 59.1784 56.1325 58.7018 54.2776 58.7018C52.4226 58.7018 50.5987 59.1784 48.9809 60.0859C48.2376 60.5206 47.392 60.7497 46.5309 60.7497C45.6698 60.7497 44.8242 60.5206 44.0809 60.0859C43.3494 59.6411 42.5656 59.2884 41.7476 59.0359C41.442 58.9206 41.1157 58.8707 40.7897 58.8894C40.4636 58.9081 40.1452 58.995 39.8548 59.1446C39.5645 59.2941 39.3088 59.503 39.1043 59.7576C38.8998 60.0122 38.751 60.3069 38.6676 60.6226C38.5818 60.9168 38.5547 61.2249 38.588 61.5295C38.6213 61.8341 38.7143 62.1292 38.8617 62.3979C39.009 62.6665 39.2078 62.9036 39.4467 63.0954C39.6857 63.2872 39.9601 63.4301 40.2542 63.5159C40.7105 63.6499 41.1492 63.8379 41.5609 64.0759C43.0071 64.9391 44.66 65.3948 46.3442 65.3948C48.0285 65.3948 49.6813 64.9391 51.1276 64.0759C52.0386 63.5606 53.0675 63.2898 54.1142 63.2898C55.1609 63.2898 56.1898 63.5606 57.1009 64.0759C58.5646 64.9129 60.2215 65.3531 61.9076 65.3531C63.5936 65.3531 65.2505 64.9129 66.7142 64.0759C67.6253 63.5606 68.6542 63.2898 69.7009 63.2898C70.7476 63.2898 71.7765 63.5606 72.6876 64.0759C74.1663 64.921 75.8377 65.371 77.5409 65.3826C79.1863 65.3792 80.7996 64.9275 82.2076 64.0759C82.6193 63.8379 83.0579 63.6499 83.5142 63.5159C84.1083 63.3426 84.6092 62.9405 84.9068 62.3979C85.2043 61.8553 85.2742 61.2167 85.1009 60.6226C84.9276 60.0285 84.5254 59.5276 83.9828 59.23C83.4402 58.9325 82.8016 58.8626 82.2076 59.0359H82.3476Z" fill="#35354A"/>
<defs>
<radialGradient id="paint0_radial_9267_28096" cx="0" cy="0" r="1" gradientUnits="userSpaceOnUse" gradientTransform="translate(18.2193 104.965) rotate(-45.9276) scale(124.712)">
<stop stop-color="#BDBFFF"/>
<stop offset="1" stop-color="#CCF4ED"/>
</radialGradient>
</defs>
</svg>
