<svg width="256" height="257" viewBox="0 0 256 257" fill="none" xmlns="http://www.w3.org/2000/svg">
<g clip-path="url(#clip0_12303_8161)">
<path fill-rule="evenodd" clip-rule="evenodd" d="M247.619 84.3294C243.864 87.2026 239.743 89.5811 235.356 91.3983C228.744 94.1372 221.657 95.5469 214.5 95.5469C207.343 95.5469 200.256 94.1372 193.644 91.3983C187.032 88.6594 181.023 84.645 175.963 79.5842C170.902 74.5234 166.887 68.5154 164.149 61.9031C161.41 55.2909 160 48.2039 160 41.0469C160 29.096 163.925 17.5499 171.062 8.13204C157.289 3.15968 142.635 0.546875 127.712 0.546875C93.841 0.546875 61.3568 14.0079 37.4061 37.9685C13.4554 61.9291 6.41267e-06 94.4267 0 128.312C-3.17522e-06 145.09 3.30337 161.705 9.72152 177.206C16.1397 192.707 25.5469 206.792 37.4061 218.656C49.2653 230.52 63.3442 239.931 78.839 246.352C94.3338 252.773 110.941 256.077 127.712 256.077C144.484 256.077 161.091 252.773 176.586 246.352C192.081 239.931 206.16 230.52 218.019 218.656C229.878 206.792 239.285 192.707 245.703 177.206C252.121 161.705 255.425 145.09 255.425 128.312C255.425 113.161 252.735 98.2868 247.619 84.3294Z" fill="url(#paint0_linear_12303_8161)"/>
<path fill-rule="evenodd" clip-rule="evenodd" d="M247.619 84.3294C243.864 87.2026 239.743 89.5811 235.356 91.3983C228.744 94.1372 221.657 95.5469 214.5 95.5469C207.343 95.5469 200.256 94.1372 193.644 91.3983C187.032 88.6594 181.023 84.645 175.963 79.5842C170.902 74.5234 166.887 68.5154 164.149 61.9031C161.41 55.2909 160 48.2039 160 41.0469C160 29.096 163.925 17.5499 171.062 8.13204C157.289 3.15968 142.635 0.546875 127.712 0.546875C93.841 0.546875 61.3568 14.0079 37.4061 37.9685C13.4554 61.9291 6.41267e-06 94.4267 0 128.312C-3.17522e-06 145.09 3.30337 161.705 9.72152 177.206C16.1397 192.707 25.5469 206.792 37.4061 218.656C49.2653 230.52 63.3442 239.931 78.839 246.352C94.3338 252.773 110.941 256.077 127.712 256.077C144.484 256.077 161.091 252.773 176.586 246.352C192.081 239.931 206.16 230.52 218.019 218.656C229.878 206.792 239.285 192.707 245.703 177.206C252.121 161.705 255.425 145.09 255.425 128.312C255.425 113.161 252.735 98.2868 247.619 84.3294Z" fill="url(#paint1_radial_12303_8161)"/>
<path fill-rule="evenodd" clip-rule="evenodd" d="M247.619 84.3294C243.864 87.2026 239.743 89.5811 235.356 91.3983C228.744 94.1372 221.657 95.5469 214.5 95.5469C207.343 95.5469 200.256 94.1372 193.644 91.3983C187.032 88.6594 181.023 84.645 175.963 79.5842C170.902 74.5234 166.887 68.5154 164.149 61.9031C161.41 55.2909 160 48.2039 160 41.0469C160 29.096 163.925 17.5499 171.062 8.13204C157.289 3.15968 142.635 0.546875 127.712 0.546875C93.841 0.546875 61.3568 14.0079 37.4061 37.9685C13.4554 61.9291 6.41267e-06 94.4267 0 128.312C-3.17522e-06 145.09 3.30337 161.705 9.72152 177.206C16.1397 192.707 25.5469 206.792 37.4061 218.656C49.2653 230.52 63.3442 239.931 78.839 246.352C94.3338 252.773 110.941 256.077 127.712 256.077C144.484 256.077 161.091 252.773 176.586 246.352C192.081 239.931 206.16 230.52 218.019 218.656C229.878 206.792 239.285 192.707 245.703 177.206C252.121 161.705 255.425 145.09 255.425 128.312C255.425 113.161 252.735 98.2868 247.619 84.3294Z" fill="url(#paint2_radial_12303_8161)"/>
<g clip-path="url(#clip1_12303_8161)">
<path fill-rule="evenodd" clip-rule="evenodd" d="M133.751 79.5469H98.4294C95.8152 79.5469 93.3079 80.6644 91.4594 82.6536C89.6108 84.6429 88.5723 87.3409 88.5723 90.154V167.94C88.5723 170.753 89.6108 173.451 91.4594 175.44C93.3079 177.43 95.8151 178.547 98.4294 178.547H157.572C160.186 178.547 162.694 177.43 164.543 175.44C166.391 173.451 167.429 170.753 167.429 167.94V115.788H137.858C135.59 115.788 133.751 113.809 133.751 111.368V79.5469ZM164.683 106.949L141.965 82.502V106.949H164.683Z" fill="url(#paint3_linear_12303_8161)"/>
</g>
<circle cx="213.5" cy="41.0469" r="40.5" fill="white"/>
<circle cx="213.5" cy="41.0469" r="40.5" fill="url(#paint4_radial_12303_8161)"/>
<path fill-rule="evenodd" clip-rule="evenodd" d="M195.092 54.0177C194.613 54.8383 195.202 55.8706 196.15 55.8732L203.48 55.8929L222.871 41.8569L211.582 55.925L213.68 55.9278L220.948 55.9496L224.467 44.8611L225.79 55.9677L231.209 55.9814C232.157 55.9838 232.752 54.9546 232.277 54.1316L223.565 39.0289L214.842 23.9048C214.37 23.0862 213.192 23.0832 212.716 23.8994L209.903 28.7189L218.967 35.4247L207.456 32.8866L203.898 38.9685L202.736 40.9697L220.796 38.2965L198.6 48.0093L195.092 54.0177ZM226.096 36.9784C226.573 37.084 226.852 37.5805 226.696 38.0437L225.332 42.0922L221.838 36.0339L226.096 36.9784Z" fill="#35354A"/>
</g>
<defs>
<linearGradient id="paint0_linear_12303_8161" x1="0" y1="0.546875" x2="255.531" y2="255.972" gradientUnits="userSpaceOnUse">
<stop offset="0.146906" stop-color="#FF8AF3"/>
<stop offset="0.340907" stop-color="#FFAAAB"/>
<stop offset="0.651042" stop-color="#86A4D8"/>
<stop offset="0.851314" stop-color="#494FFF"/>
</linearGradient>
<radialGradient id="paint1_radial_12303_8161" cx="0" cy="0" r="1" gradientUnits="userSpaceOnUse" gradientTransform="translate(127.712 128.312) rotate(90) scale(240.235 240.135)">
<stop stop-color="#23222E"/>
<stop offset="1" stop-color="#23222E" stop-opacity="0"/>
</radialGradient>
<radialGradient id="paint2_radial_12303_8161" cx="0" cy="0" r="1" gradientUnits="userSpaceOnUse" gradientTransform="translate(127.712 128.312) rotate(90) scale(127.765 127.712)">
<stop stop-color="#23222E"/>
<stop offset="1" stop-color="#23222E" stop-opacity="0"/>
</radialGradient>
<linearGradient id="paint3_linear_12303_8161" x1="88.5723" y1="79.5469" x2="185.065" y2="156.407" gradientUnits="userSpaceOnUse">
<stop offset="0.146906" stop-color="#FF8AF3"/>
<stop offset="0.340907" stop-color="#FFAAAB"/>
<stop offset="0.651042" stop-color="#86A4D8"/>
<stop offset="0.851314" stop-color="#494FFF"/>
</linearGradient>
<radialGradient id="paint4_radial_12303_8161" cx="0" cy="0" r="1" gradientUnits="userSpaceOnUse" gradientTransform="translate(184.901 69.1127) rotate(-45.9276) scale(81.4652)">
<stop stop-color="#BDBFFF"/>
<stop offset="1" stop-color="#CCF4ED"/>
</radialGradient>
<clipPath id="clip0_12303_8161">
<rect width="256" height="256" fill="white" transform="translate(0 0.546875)"/>
</clipPath>
<clipPath id="clip1_12303_8161">
<rect width="92" height="99" fill="white" transform="translate(82 79.5469)"/>
</clipPath>
</defs>
</svg>
