<svg width="256" height="256" viewBox="0 0 256 256" fill="none" xmlns="http://www.w3.org/2000/svg">
<g clip-path="url(#clip0_11274_18806)">
<path d="M255 40.5C255 45.8185 253.952 51.085 251.917 55.9987C249.882 60.9124 246.899 65.377 243.138 69.1378C239.377 72.8986 234.912 75.8818 229.999 77.9171C225.085 79.9524 219.819 81 214.5 81C209.181 81 203.915 79.9524 199.001 77.9171C194.088 75.8818 189.623 72.8986 185.862 69.1378C182.101 65.377 179.118 60.9124 177.083 55.9987C175.048 51.085 174 45.8185 174 40.5C174 29.7587 178.267 19.4574 185.862 11.8622C193.457 4.26696 203.759 4.47571e-07 214.5 0C225.241 -4.06883e-07 235.543 4.26696 243.138 11.8622C250.733 19.4574 255 29.7587 255 40.5Z" fill="white"/>
<path d="M230.061 28.0689L221.439 19.4471C217.634 15.6426 211.466 15.6426 207.662 19.4471L199.04 28.0689C190.474 36.6351 190.474 50.5236 199.04 59.0898C207.606 67.656 221.495 67.656 230.061 59.0898C238.627 50.5236 238.627 36.6351 230.061 28.0689Z" fill="white" stroke="#1E1E1E" stroke-width="2.21351"/>
<path fill-rule="evenodd" clip-rule="evenodd" d="M216.339 26.4336C215.321 25.4909 213.749 25.4909 212.731 26.4336L204.815 33.7651C204.422 34.1287 204.149 34.6026 204.03 35.1245L201.639 45.6456C201.541 46.0772 201.554 46.5097 201.66 46.9119C201.665 47.2168 201.723 47.5273 201.841 47.8316L203.543 52.2258C203.77 52.8125 204.198 53.2993 204.751 53.5997L213.268 58.2289C214.059 58.6586 215.013 58.6586 215.804 58.2289L224.321 53.5997C224.874 53.2993 225.302 52.8125 225.529 52.2258L227.231 47.8316C227.35 47.5245 227.408 47.2111 227.411 46.9035C227.516 46.5037 227.528 46.0742 227.431 45.6456L225.04 35.1245C224.921 34.6026 224.647 34.1287 224.255 33.7651L216.339 26.4336Z" fill="#1E1E1E"/>
<path d="M219.814 35.4407C219.231 35.9732 217.98 35.5532 217.02 34.5026C216.06 33.452 215.753 32.1686 216.336 31.6361C216.918 31.1036 218.169 31.5236 219.13 32.5742C220.09 33.6248 220.396 34.9082 219.814 35.4407Z" fill="white"/>
<path d="M222.663 38.4623C222.282 38.8106 221.464 38.5359 220.836 37.8489C220.208 37.1618 220.007 36.3225 220.388 35.9743C220.769 35.6261 221.587 35.9007 222.215 36.5878C222.843 37.2748 223.044 38.1141 222.663 38.4623Z" fill="white"/>
<path fill-rule="evenodd" clip-rule="evenodd" d="M247.619 83.7826C243.864 86.6557 239.743 89.0343 235.356 90.8514C228.744 93.5903 221.657 95 214.5 95C207.343 95 200.256 93.5903 193.644 90.8514C187.032 88.1125 181.023 84.0981 175.963 79.0373C170.902 73.9765 166.887 67.9685 164.149 61.3562C161.41 54.744 160 47.657 160 40.5C160 28.5491 163.925 17.003 171.062 7.58517C157.289 2.6128 142.635 0 127.712 0C93.841 0 61.3568 13.461 37.4061 37.4216C13.4554 61.3822 6.41266e-06 93.8798 0 127.765C-3.17523e-06 144.544 3.30337 161.158 9.72152 176.659C16.1397 192.16 25.5469 206.245 37.4061 218.109C49.2653 229.973 63.3442 239.384 78.839 245.805C94.3338 252.226 110.941 255.531 127.712 255.531C144.484 255.531 161.091 252.226 176.586 245.805C192.081 239.384 206.16 229.973 218.019 218.109C229.878 206.245 239.285 192.16 245.703 176.659C252.121 161.158 255.425 144.544 255.425 127.765C255.425 112.614 252.735 97.7399 247.619 83.7826Z" fill="url(#paint0_linear_11274_18806)"/>
<path fill-rule="evenodd" clip-rule="evenodd" d="M127.501 82C153.181 82 174 102.819 174 128.499C174 154.181 153.181 175 127.501 175C101.819 175 81 154.181 81 128.501C81 102.819 101.822 82 127.501 82Z" fill="#202232" fill-opacity="0.3"/>
<path d="M127.974 72C120.631 72 114.686 97.0716 114.686 127.999C114.686 158.926 120.636 184 127.974 184C135.311 184 141.264 158.928 141.264 127.999C141.264 97.069 135.314 72 127.974 72ZM128.893 180.837C128.052 181.892 127.215 181.093 127.215 181.093C123.834 177.404 122.143 170.552 122.143 170.552C116.233 152.622 117.639 114.157 117.639 114.157C120.418 83.6188 125.474 76.4032 127.19 74.8022C127.367 74.6353 127.601 74.5335 127.851 74.5152C128.1 74.4968 128.348 74.5632 128.55 74.7023C131.047 76.3673 133.138 83.3319 133.138 83.3319C139.32 104.94 138.759 125.232 138.759 125.232C139.32 142.889 135.662 162.653 135.662 162.653C132.833 177.673 128.893 180.837 128.893 180.837Z" fill="#202232"/>
<path d="M179.572 100.128C175.919 94.129 149.871 101.744 121.372 117.139C92.8734 132.533 72.7783 149.869 76.428 155.863C80.0777 161.857 106.131 154.244 134.627 138.852C163.123 123.46 183.224 106.122 179.572 100.128ZM79.7976 155.038C78.3997 154.872 78.7097 153.788 78.7097 153.788C80.4258 149.193 85.8867 144.403 85.8867 144.403C99.4548 130.655 135.59 112.659 135.59 112.659C165.098 99.7258 174.266 100.271 176.591 100.876C176.83 100.938 177.037 101.078 177.177 101.271C177.317 101.463 177.38 101.696 177.355 101.929C177.083 104.797 171.687 109.972 171.687 109.972C154.872 125.784 135.906 135.427 135.906 135.427C119.923 144.674 99.9008 151.519 99.9008 151.519C84.6711 156.688 79.7921 155.041 79.7921 155.041L79.7976 155.038Z" fill="#202232"/>
<path d="M179.446 156.062C183.128 150.081 163.079 132.661 134.678 117.156C106.278 101.652 80.2401 93.9391 76.5605 99.9457C72.8808 105.952 92.927 123.332 121.336 138.839C149.745 154.346 175.766 162.056 179.446 156.062ZM78.9999 102.251C78.456 101.037 79.6037 100.742 79.6037 100.742C84.6866 99.8407 91.8419 101.898 91.8419 101.898C111.268 106.065 145.908 126.488 145.908 126.488C172.576 144.064 176.666 151.808 177.281 154.005C177.343 154.231 177.319 154.469 177.212 154.679C177.106 154.889 176.924 155.057 176.699 155.153C173.917 156.352 166.468 154.566 166.468 154.566C143.498 148.775 125.143 138.15 125.143 138.15C108.646 129.771 92.3341 116.89 92.3341 116.89C79.9409 107.059 79.0081 102.266 79.0081 102.266L78.9999 102.251Z" fill="#202232"/>
<path d="M127.854 134.457C131.717 134.457 134.849 131.508 134.849 127.869C134.849 124.231 131.717 121.281 127.854 121.281C123.991 121.281 120.859 124.231 120.859 127.869C120.859 131.508 123.991 134.457 127.854 134.457Z" fill="#202232"/>
<path d="M156.493 106.522C158.734 106.522 160.551 104.752 160.551 102.57C160.551 100.387 158.734 98.6172 156.493 98.6172C154.252 98.6172 152.436 100.387 152.436 102.57C152.436 104.752 154.252 106.522 156.493 106.522Z" fill="#202232"/>
<path d="M89.9483 119.959C92.1892 119.959 94.0059 118.19 94.0059 116.007C94.0059 113.824 92.1892 112.055 89.9483 112.055C87.7073 112.055 85.8906 113.824 85.8906 116.007C85.8906 118.19 87.7073 119.959 89.9483 119.959Z" fill="#202232"/>
<path d="M119.606 168.452C121.847 168.452 123.664 166.682 123.664 164.499C123.664 162.316 121.847 160.547 119.606 160.547C117.365 160.547 115.549 162.316 115.549 164.499C115.549 166.682 117.365 168.452 119.606 168.452Z" fill="#202232"/>
</g>
<defs>
<linearGradient id="paint0_linear_11274_18806" x1="0" y1="0" x2="255.531" y2="255.425" gradientUnits="userSpaceOnUse">
<stop stop-color="#D3C6FF"/>
<stop offset="1" stop-color="#987FEB"/>
</linearGradient>
<clipPath id="clip0_11274_18806">
<rect width="256" height="256" fill="white"/>
</clipPath>
</defs>
</svg>
