<svg width="256" height="257" viewBox="0 0 256 257" fill="none" xmlns="http://www.w3.org/2000/svg">
<g clip-path="url(#clip0_12303_8153)">
<path fill-rule="evenodd" clip-rule="evenodd" d="M247.619 84.3294C243.864 87.2026 239.743 89.5811 235.356 91.3983C228.744 94.1372 221.657 95.5469 214.5 95.5469C207.343 95.5469 200.256 94.1372 193.644 91.3983C187.032 88.6594 181.023 84.645 175.963 79.5842C170.902 74.5234 166.887 68.5154 164.149 61.9031C161.41 55.2909 160 48.2039 160 41.0469C160 29.096 163.925 17.5499 171.062 8.13204C157.289 3.15968 142.635 0.546875 127.712 0.546875C93.841 0.546875 61.3568 14.0079 37.4061 37.9685C13.4554 61.9291 6.41267e-06 94.4267 0 128.312C-3.17522e-06 145.09 3.30337 161.705 9.72152 177.206C16.1397 192.707 25.5469 206.792 37.4061 218.656C49.2653 230.52 63.3442 239.931 78.839 246.352C94.3338 252.773 110.941 256.077 127.712 256.077C144.484 256.077 161.091 252.773 176.586 246.352C192.081 239.931 206.16 230.52 218.019 218.656C229.878 206.792 239.285 192.707 245.703 177.206C252.121 161.705 255.425 145.09 255.425 128.312C255.425 113.161 252.735 98.2868 247.619 84.3294Z" fill="url(#paint0_linear_12303_8153)"/>
<path fill-rule="evenodd" clip-rule="evenodd" d="M247.619 84.3294C243.864 87.2026 239.743 89.5811 235.356 91.3983C228.744 94.1372 221.657 95.5469 214.5 95.5469C207.343 95.5469 200.256 94.1372 193.644 91.3983C187.032 88.6594 181.023 84.645 175.963 79.5842C170.902 74.5234 166.887 68.5154 164.149 61.9031C161.41 55.2909 160 48.2039 160 41.0469C160 29.096 163.925 17.5499 171.062 8.13204C157.289 3.15968 142.635 0.546875 127.712 0.546875C93.841 0.546875 61.3568 14.0079 37.4061 37.9685C13.4554 61.9291 6.41267e-06 94.4267 0 128.312C-3.17522e-06 145.09 3.30337 161.705 9.72152 177.206C16.1397 192.707 25.5469 206.792 37.4061 218.656C49.2653 230.52 63.3442 239.931 78.839 246.352C94.3338 252.773 110.941 256.077 127.712 256.077C144.484 256.077 161.091 252.773 176.586 246.352C192.081 239.931 206.16 230.52 218.019 218.656C229.878 206.792 239.285 192.707 245.703 177.206C252.121 161.705 255.425 145.09 255.425 128.312C255.425 113.161 252.735 98.2868 247.619 84.3294Z" fill="url(#paint1_radial_12303_8153)"/>
<path fill-rule="evenodd" clip-rule="evenodd" d="M247.619 84.3294C243.864 87.2026 239.743 89.5811 235.356 91.3983C228.744 94.1372 221.657 95.5469 214.5 95.5469C207.343 95.5469 200.256 94.1372 193.644 91.3983C187.032 88.6594 181.023 84.645 175.963 79.5842C170.902 74.5234 166.887 68.5154 164.149 61.9031C161.41 55.2909 160 48.2039 160 41.0469C160 29.096 163.925 17.5499 171.062 8.13204C157.289 3.15968 142.635 0.546875 127.712 0.546875C93.841 0.546875 61.3568 14.0079 37.4061 37.9685C13.4554 61.9291 6.41267e-06 94.4267 0 128.312C-3.17522e-06 145.09 3.30337 161.705 9.72152 177.206C16.1397 192.707 25.5469 206.792 37.4061 218.656C49.2653 230.52 63.3442 239.931 78.839 246.352C94.3338 252.773 110.941 256.077 127.712 256.077C144.484 256.077 161.091 252.773 176.586 246.352C192.081 239.931 206.16 230.52 218.019 218.656C229.878 206.792 239.285 192.707 245.703 177.206C252.121 161.705 255.425 145.09 255.425 128.312C255.425 113.161 252.735 98.2868 247.619 84.3294Z" fill="url(#paint2_radial_12303_8153)"/>
<path d="M127.929 195.328C123.038 195.328 118.147 195.338 113.256 195.325C109.946 195.315 107.298 194.023 105.626 191.099C105.12 190.215 104.779 189.185 104.585 188.181C103.884 184.516 103.273 180.833 102.634 177.155C102.52 176.492 102.371 175.83 102.347 175.162C102.295 173.696 103.32 172.509 104.773 172.35C105.277 172.295 105.423 172.128 105.423 171.635C105.405 168.093 105.475 164.548 105.368 161.008C105.345 160.189 104.818 159.347 104.4 158.58C100.404 151.279 96.4106 143.975 92.3545 136.708C89.8321 132.185 87.1871 127.727 84.6282 123.222C82.9954 120.348 81.6103 117.353 80.9008 114.106C80.0478 110.206 79.6644 106.26 79.9774 102.261C80.1939 99.5037 80.6504 96.7857 81.4355 94.1355C82.4554 90.6923 83.9057 87.4318 85.802 84.3747C89.5582 78.3204 94.5404 73.5079 100.589 69.7882C103.98 67.7014 107.588 66.0868 111.378 64.853C118.517 62.5237 125.826 61.8794 133.258 62.5263C137.069 62.8575 140.801 63.6453 144.458 64.8165C152.698 67.4589 159.783 71.8932 165.563 78.3439C168.939 82.1079 171.544 86.3571 173.363 91.094C175.319 96.1935 176.187 101.46 175.966 106.912C175.723 112.924 174.046 118.509 171.025 123.718C167.134 130.432 163.257 137.157 159.467 143.928C156.504 149.223 153.671 154.594 150.802 159.941C150.606 160.304 150.507 160.763 150.505 161.178C150.481 164.634 150.505 168.09 150.481 171.546C150.479 172.089 150.617 172.287 151.185 172.355C152.696 172.535 153.721 173.805 153.541 175.337C153.35 176.951 153.035 178.55 152.758 180.154C152.406 182.186 152.038 184.213 151.681 186.245C151.358 188.079 151.144 189.946 150.048 191.545C148.254 194.162 145.723 195.325 142.604 195.328C137.713 195.328 132.822 195.328 127.931 195.328H127.929ZM128.316 156.972C128.315 156.97 128.317 156.968 128.319 156.968C129.014 156.968 129.711 156.926 130.401 156.983C131.103 157.041 131.4 156.736 131.599 156.099C132.112 154.443 132.681 152.805 133.237 151.164C134.103 148.597 134.974 146.033 135.837 143.466C136.701 140.9 137.554 138.33 138.417 135.764C139.377 132.91 140.347 130.056 141.31 127.203C142.293 124.287 143.277 121.373 144.252 118.454C144.68 117.168 145.353 115.885 144.654 114.505C144.177 113.563 143.702 112.588 143.042 111.779C139.956 107.981 135.957 105.74 131.116 104.992C126.369 104.259 121.906 105.052 117.776 107.509C115.241 109.017 113.097 110.968 111.673 113.597C111.219 114.432 110.741 115.363 111.057 116.323C111.926 118.978 112.899 121.602 113.825 124.24C114.787 126.978 115.742 129.72 116.704 132.461C117.659 135.182 118.614 137.9 119.571 140.618C120.541 143.378 121.509 146.138 122.482 148.895C123.369 151.409 124.271 153.916 125.143 156.436C125.284 156.84 125.508 156.983 125.904 156.978C126.706 156.968 127.511 156.976 128.313 156.976C128.315 156.976 128.317 156.974 128.316 156.972ZM114.565 156.968C115.935 156.968 117.304 156.96 118.674 156.973C119.18 156.978 119.404 156.874 119.185 156.295C118.723 155.079 118.324 153.843 117.891 152.617C116.942 149.92 115.99 147.223 115.035 144.528C113.971 141.526 112.899 138.529 111.837 135.526C110.869 132.79 109.909 130.051 108.949 127.31C107.969 124.508 107.019 121.696 106.004 118.908C105.6 117.799 105.53 116.547 104.698 115.611C101.805 112.353 98.3357 110.553 93.8543 111.414C91.3528 111.896 89.3548 113.175 87.9984 115.366C87.5784 116.041 87.5262 116.738 87.9514 117.455C88.3818 118.18 88.7783 118.929 89.1878 119.667C92.8814 126.342 96.5749 133.017 100.266 139.692C103.328 145.23 106.393 150.768 109.45 156.311C109.708 156.78 110.035 156.994 110.59 156.978C111.915 156.944 113.24 156.968 114.568 156.968H114.565ZM141.719 156.969C141.719 156.968 141.72 156.968 141.721 156.968C142.915 156.968 144.112 156.939 145.306 156.981C145.893 157.002 146.216 156.764 146.485 156.274C148.65 152.322 150.833 148.376 153.011 144.429C157.988 135.417 162.965 126.407 167.95 117.4C168.341 116.693 168.305 116.023 167.898 115.371C166.208 112.666 163.659 111.364 160.568 111.2C156.671 110.994 153.637 112.791 151.172 115.671C150.859 116.039 150.646 116.519 150.484 116.98C150.197 117.797 150.006 118.647 149.735 119.469C148.869 122.103 147.988 124.733 147.111 127.362C146.261 129.91 145.41 132.459 144.555 135.005C143.587 137.879 142.611 140.751 141.644 143.626C140.77 146.213 139.901 148.801 139.027 151.388C138.495 152.969 137.95 154.547 137.426 156.131C137.196 156.824 137.314 156.965 138.068 156.97C139.285 156.976 140.5 156.97 141.718 156.97C141.719 156.97 141.719 156.97 141.719 156.969ZM127.975 172.306C133.388 172.306 138.801 172.298 144.21 172.319C144.808 172.319 144.983 172.144 144.975 171.546C144.946 168.787 144.951 166.027 144.972 163.265C144.975 162.746 144.844 162.539 144.284 162.539C133.417 162.553 122.55 162.553 111.68 162.539C111.117 162.539 110.927 162.712 110.934 163.288C110.961 166.004 110.945 168.722 110.945 171.44C110.945 172.3 110.945 172.306 111.803 172.306C117.192 172.306 122.584 172.306 127.973 172.306H127.975Z" fill="url(#paint3_linear_12303_8153)"/>
<circle cx="213.5" cy="41.0469" r="40.5" fill="white"/>
<circle cx="213.5" cy="41.0469" r="40.5" fill="url(#paint4_radial_12303_8153)"/>
<path fill-rule="evenodd" clip-rule="evenodd" d="M195.092 54.0177C194.613 54.8383 195.202 55.8706 196.15 55.8732L203.48 55.8929L222.871 41.8569L211.582 55.925L213.68 55.9278L220.948 55.9496L224.467 44.8611L225.79 55.9677L231.209 55.9814C232.157 55.9838 232.752 54.9546 232.277 54.1316L223.565 39.0289L214.842 23.9048C214.37 23.0862 213.192 23.0832 212.716 23.8994L209.903 28.7189L218.967 35.4247L207.456 32.8866L203.898 38.9685L202.736 40.9697L220.796 38.2965L198.6 48.0093L195.092 54.0177ZM226.096 36.9784C226.573 37.084 226.852 37.5805 226.696 38.0437L225.332 42.0922L221.838 36.0339L226.096 36.9784Z" fill="#35354A"/>
</g>
<defs>
<linearGradient id="paint0_linear_12303_8153" x1="0" y1="0.546875" x2="255.531" y2="255.972" gradientUnits="userSpaceOnUse">
<stop offset="0.146906" stop-color="#D3FFEC"/>
<stop offset="0.340907" stop-color="#FFFDAA"/>
<stop offset="0.651042" stop-color="#D886D8"/>
<stop offset="0.851314" stop-color="#B18BE1"/>
</linearGradient>
<radialGradient id="paint1_radial_12303_8153" cx="0" cy="0" r="1" gradientUnits="userSpaceOnUse" gradientTransform="translate(127.712 128.312) rotate(90) scale(240.235 240.135)">
<stop stop-color="#23222E"/>
<stop offset="1" stop-color="#23222E" stop-opacity="0"/>
</radialGradient>
<radialGradient id="paint2_radial_12303_8153" cx="0" cy="0" r="1" gradientUnits="userSpaceOnUse" gradientTransform="translate(127.712 128.312) rotate(90) scale(127.765 127.712)">
<stop stop-color="#23222E"/>
<stop offset="1" stop-color="#23222E" stop-opacity="0"/>
</radialGradient>
<linearGradient id="paint3_linear_12303_8153" x1="79.8691" y1="128.261" x2="176" y2="128.261" gradientUnits="userSpaceOnUse">
<stop stop-color="#D3FFEC"/>
<stop offset="0.3125" stop-color="#FFFDAA"/>
<stop offset="0.651042" stop-color="#D886D8"/>
<stop offset="1" stop-color="#B18BE1"/>
</linearGradient>
<radialGradient id="paint4_radial_12303_8153" cx="0" cy="0" r="1" gradientUnits="userSpaceOnUse" gradientTransform="translate(184.901 69.1127) rotate(-45.9276) scale(81.4652)">
<stop stop-color="#BDBFFF"/>
<stop offset="1" stop-color="#CCF4ED"/>
</radialGradient>
<clipPath id="clip0_12303_8153">
<rect width="256" height="256" fill="white" transform="translate(0 0.546875)"/>
</clipPath>
</defs>
</svg>
