<svg width="124" height="125" viewBox="0 0 124 125" fill="none" xmlns="http://www.w3.org/2000/svg">
<circle cx="62" cy="62.1836" r="62" fill="url(#paint0_linear_9267_27241)"/>
<g clip-path="url(#clip0_9267_27241)">
<path d="M61.5996 89.3103C62.0023 89.1826 62.4043 89.194 62.807 89.3103H61.5996Z" fill="#EE7139"/>
<path d="M67.3358 72.0234C67.3358 72.0234 67.33 72.0273 67.3281 72.0311L67.3377 72.0234H67.3358Z" fill="#EE7139"/>
<path d="M86.0436 60.4456C84.2831 59.3093 82.3753 58.553 80.3104 58.179C79.9031 58.1049 79.4883 58.2318 79.0954 58.0739C78.9466 58.0566 78.7872 58.1155 78.6497 58.0142C78.0951 57.9863 77.5413 57.9765 76.9874 58.0226C76.8424 58.1125 76.6844 58.0664 76.5303 58.0671C75.4076 58.1185 74.3233 58.3724 73.2655 58.732C72.0385 59.1491 70.8878 59.7331 69.7544 60.3618C68.7193 60.9352 67.6071 61.3032 66.4277 61.4936C64.8441 61.749 63.3163 61.5911 61.8211 61.0357C61.775 61.0184 61.7228 61.0191 61.6737 61.0108C61.8165 61.1642 61.9865 61.2526 62.1664 61.316C61.9858 61.2526 61.8158 61.1634 61.6737 61.0108C61.4297 60.8831 61.1864 60.7539 60.9408 60.6292C59.9102 60.1041 59.0444 59.3863 58.3719 58.4404C58.2072 58.4457 58.2049 58.3346 58.2125 58.2167C58.0508 58.2152 58.0523 58.1049 58.0621 57.9901L58.0637 57.9878C57.8838 57.6637 57.7033 57.3388 57.5234 57.0146C57.5 56.9829 57.4766 56.9512 57.4532 56.9194C57.4569 56.8998 57.4554 56.8817 57.4479 56.8635C57.4252 56.8288 57.4018 56.794 57.3791 56.7585C57.3882 56.7449 57.3889 56.7313 57.3814 56.7169C57.16 56.6822 57.2416 56.5114 57.2303 56.3815C57.2393 56.3679 57.2401 56.3543 57.2318 56.3399C57.1351 56.3218 57.0323 56.3067 57.1547 56.1813C57.1547 55.7393 56.9212 55.3486 56.8865 54.9112C56.8298 54.1972 56.7664 53.4688 56.8888 52.7752C57.0331 51.9562 57.2998 51.153 57.6776 50.3952C58.2699 49.2074 59.1275 48.235 60.1694 47.4492C61.0224 46.8055 62.0032 46.3522 62.9612 45.8716C65.0163 44.8395 67.0397 43.75 68.6763 42.0825C68.8493 41.8853 69.02 41.6851 69.1953 41.4901C70.2622 40.3062 70.7306 38.8986 70.7563 37.3247C70.8598 36.6477 70.6339 35.9995 70.5833 35.3353C70.5735 35.2024 70.5659 35.0807 70.3967 35.0611C70.2539 35.0445 70.1836 35.1125 70.1035 35.2341C69.7952 35.701 69.5316 36.1989 69.1349 36.6054C68.1187 37.6458 66.8682 38.307 65.5392 38.8389C63.9699 39.4667 62.3371 39.8951 60.7195 40.3749C58.387 41.0678 56.1052 41.9065 53.8801 42.8977C50.9644 44.1966 48.2844 45.8505 45.9958 48.0952C42.9449 51.0865 40.8278 54.6384 39.6612 58.7471C39.0318 60.9655 38.6971 63.2299 38.7568 65.5434C38.7598 65.6703 38.7621 65.7965 38.7651 65.9235C38.8316 65.9915 38.8331 66.0625 38.775 66.1358C38.809 67.6227 38.9638 69.0953 39.3061 70.5452C39.5532 71.5902 39.7972 72.6359 40.2506 73.6173C40.2725 73.6831 40.2951 73.7488 40.3171 73.8145C40.5883 74.2875 40.8444 74.7703 41.1361 75.2312C41.4534 75.7337 41.8032 76.2157 42.1387 76.7061L42.1342 76.703C42.1614 76.7295 42.1893 76.7552 42.2165 76.7816C42.9464 77.4609 43.6158 78.2104 44.4689 78.7491C44.5013 78.737 44.5301 78.7204 44.555 78.7023C44.5301 78.7211 44.5013 78.737 44.4689 78.7491C45.3642 79.3724 46.32 79.8779 47.3475 80.2459C47.816 80.2693 48.2119 80.5299 48.6554 80.6471C50.2043 81.0551 51.7797 81.0641 53.355 80.9999C54.4883 80.9538 55.599 80.7045 56.6946 80.406C57.6859 80.0728 58.6855 79.7646 59.6473 79.3467C60.8887 78.8065 62.0946 78.2066 63.178 77.383C64.835 76.0208 65.9729 74.2528 67.0533 72.4387C67.0911 72.3752 67.1395 72.3178 67.1825 72.2573C67.1991 72.1606 67.246 72.0828 67.3276 72.0276C67.3714 71.8818 67.4303 71.7443 67.5565 71.6476L67.5535 71.6498C67.6019 71.5274 67.6079 71.3741 67.7817 71.3461H67.7809C67.7454 71.0386 67.9638 70.8316 68.1043 70.6087C69.4046 68.5475 70.9603 66.716 72.9784 65.3182C73.4801 64.9707 73.975 64.6005 74.5621 64.3942L74.5659 64.3919C74.6142 64.367 74.6633 64.3421 74.7117 64.3171H74.7147C74.7449 64.2975 74.7751 64.2794 74.8054 64.2605C75.8397 63.6311 76.9889 63.3115 78.154 63.0546C80.4449 62.5491 82.7599 62.5627 85.081 62.7985C85.5419 62.8453 86.0058 62.8687 86.4591 62.9737C87.127 63.0289 87.7814 63.1702 88.4357 63.3077C88.6276 63.3477 88.7719 63.3266 88.9102 63.2004V62.8989C88.0027 62.0248 87.0915 61.1566 86.0451 60.4449L86.0436 60.4456ZM44.5709 78.6871C44.5769 78.6819 44.5829 78.6773 44.5882 78.672C44.5829 78.6773 44.5761 78.6819 44.5709 78.6871ZM44.725 78.4605C44.7348 78.4401 44.7454 78.4189 44.7552 78.3985C44.7446 78.4189 44.7348 78.4393 44.725 78.4605Z" fill="#202232" fill-opacity="0.7"/>
<path d="M38.7656 65.9219C38.8321 65.9899 38.8336 66.0609 38.7754 66.1342C38.7724 66.0632 38.7686 65.9921 38.7656 65.9219Z" fill="#F9B13E"/>
<path d="M76.5277 58.0682C76.6735 57.9858 76.8291 58.007 76.9848 58.0236C77.5386 57.9775 78.0932 57.9873 78.647 58.0153C78.7989 58.0138 78.9568 57.9647 79.0928 58.075C79.4857 58.2336 79.9005 58.1067 80.3077 58.18C82.3734 58.554 84.2805 59.3103 86.0409 60.4467C86.0288 60.3349 86.0266 60.2215 86.0031 60.112C85.4697 57.6519 84.5736 55.3308 83.2884 53.1661C80.616 48.663 76.8813 45.3597 72.0782 43.2645C70.972 42.7817 69.8236 42.4303 68.6721 42.082C67.0348 43.7496 65.0122 44.8391 62.957 45.8712C61.999 46.3525 61.0183 46.805 60.1652 47.4488C59.1233 48.2346 58.2658 49.207 57.6734 50.3947C57.2956 51.1525 57.0289 51.9557 56.8846 52.7747C56.7622 53.4691 56.8257 54.1974 56.8823 54.9107C56.9171 55.3482 57.1498 55.7395 57.1505 56.1808C57.2148 56.2148 57.2291 56.2737 57.2276 56.3395C57.2359 56.3538 57.2352 56.3674 57.2261 56.3803C57.3085 56.4777 57.3651 56.5865 57.3772 56.7157C57.3848 56.7301 57.384 56.7437 57.375 56.7573L57.4437 56.8623C57.4513 56.8804 57.4535 56.8993 57.449 56.9182C57.4724 56.95 57.4958 56.9817 57.5193 57.0134C57.6991 57.3376 57.8797 57.6624 58.0595 57.9866L58.058 57.9888C58.1418 58.0417 58.1902 58.1188 58.2083 58.2148C58.2952 58.2654 58.3451 58.3424 58.3678 58.4392C59.0402 59.3851 59.9061 60.1029 60.9367 60.628C61.1822 60.7534 61.4255 60.8826 61.6696 61.0096C61.7187 61.0171 61.7716 61.0171 61.8169 61.0345C63.3129 61.5898 64.8399 61.7478 66.4235 61.4924C67.603 61.302 68.7159 60.9348 69.7503 60.3605C70.8836 59.7319 72.0343 59.1479 73.2614 58.7308C74.3191 58.3712 75.4034 58.1173 76.5261 58.0659L76.5277 58.0682Z" fill="#202232" fill-opacity="0.3"/>
<path d="M73.3759 77.9931C73.3759 77.9931 73.3759 77.9873 73.3759 77.9844C73.373 77.9844 73.3701 77.9844 73.3672 77.9844L73.3759 77.9931Z" fill="#F5E25D"/>
<path d="M73.2244 77.8455C73.2244 77.8455 73.2244 77.8398 73.2244 77.8359C73.2206 77.8359 73.2187 77.8359 73.2148 77.8359L73.2244 77.8455Z" fill="#F5E25D"/>
<path d="M73.3084 77.9197C73.3084 77.9197 73.3084 77.914 73.3084 77.9102C73.3046 77.9102 73.3027 77.9102 73.2988 77.9102L73.3084 77.9197Z" fill="#F5E25D"/>
<path d="M73.1482 77.7674C73.1482 77.7674 73.1482 77.7616 73.1482 77.7578C73.1444 77.7578 73.1425 77.7578 73.1387 77.7578L73.1482 77.7674Z" fill="#F5E25D"/>
<path d="M86.4508 62.9773C85.9975 62.8723 85.5336 62.8489 85.0727 62.802C82.7516 62.5663 80.4366 62.5527 78.1457 63.0582C76.9814 63.3151 75.8314 63.6347 74.7971 64.264C74.7668 64.2822 74.7366 64.3011 74.7071 64.3192H74.7041C74.6807 64.394 74.6255 64.4061 74.5583 64.3947L74.5545 64.3963C74.4858 64.6063 74.284 64.6796 74.1314 64.802C72.8152 65.853 71.8247 67.1397 71.2663 68.7415C71.2429 68.8095 71.2029 68.8722 71.1704 68.9372C71.1553 69.0566 71.1243 69.1691 71.023 69.2477L71.02 69.3913C70.9958 69.4192 70.9709 69.4464 70.9467 69.4744V69.6912C70.9475 69.7547 70.9361 69.8121 70.8757 69.8476C70.8727 69.8967 70.8697 69.9459 70.8666 69.995C70.7616 70.7732 70.7133 71.5575 70.7269 72.341C70.7374 72.9228 70.9218 73.4819 71.0419 74.0493C71.4318 75.3141 72.0642 76.4459 72.9082 77.4622C72.9618 77.4962 73.0102 77.5339 72.9905 77.608C73.0457 77.6027 73.0676 77.6307 73.0646 77.6835C73.1182 77.6798 73.1431 77.7055 73.1401 77.7591C73.1938 77.7553 73.2187 77.781 73.2157 77.8347C73.2693 77.8309 73.2927 77.8581 73.2912 77.9102C73.3426 77.9087 73.3683 77.9329 73.3668 77.9843C73.4363 77.9714 73.4748 78.0152 73.5073 78.0674C73.5859 78.1361 73.6637 78.2049 73.7423 78.2729C73.8428 78.3545 73.944 78.4368 74.0445 78.5184C74.0687 78.5373 74.0936 78.557 74.1178 78.5766C74.1813 78.6167 74.2463 78.6544 74.3075 78.6968C76.4925 80.2177 78.8839 80.6423 81.4671 80.0462C82.7206 78.3877 83.8041 76.6295 84.6193 74.7119C86.2166 70.9538 86.8248 67.0422 86.4508 62.9766V62.9773Z" fill="#202232" fill-opacity="0.4"/>
<path d="M72.9936 77.6147C72.9936 77.6147 72.9936 77.6112 72.9945 77.6094C72.9918 77.6094 72.991 77.6094 72.9883 77.6094L72.9936 77.6147Z" fill="#F5E25D"/>
<path d="M73.074 77.6932C73.074 77.6932 73.074 77.6874 73.074 77.6836C73.0702 77.6836 73.0683 77.6836 73.0645 77.6836L73.074 77.6932Z" fill="#F5E25D"/>
<path d="M83.3365 79.576C83.202 79.4007 83.0434 79.4997 82.8953 79.5647C82.4351 79.7664 81.9689 79.95 81.4725 80.0445C78.8885 80.6406 76.4979 80.216 74.3129 78.695C74.2517 78.652 74.1867 78.6149 74.1232 78.5749C74.099 78.5552 74.0741 78.5364 74.0499 78.5167C73.8761 78.525 73.7432 78.4827 73.7477 78.2712C73.6691 78.2024 73.5913 78.1336 73.5127 78.0656C73.4515 78.0604 73.3941 78.049 73.3676 77.9833L73.3722 77.9878C73.3457 77.9614 73.3193 77.9349 73.2928 77.9085L73.2966 77.9123C73.2702 77.8858 73.2437 77.8594 73.2173 77.8329L73.2211 77.8367C73.1946 77.8103 73.1682 77.7838 73.1417 77.7574L73.1455 77.7612C73.1191 77.7347 73.0926 77.7083 73.0662 77.6818L73.07 77.6856C73.0435 77.6592 73.0171 77.6327 72.9906 77.6063L72.9952 77.6108C72.9279 77.5828 72.9166 77.5239 72.9136 77.4604C72.0696 76.4442 71.4372 75.3124 71.0473 74.0476C71.0315 74.1065 71.0073 74.1541 70.9786 74.1941C71.008 74.1541 71.0315 74.1065 71.0473 74.0476C70.9279 73.4809 70.7428 72.921 70.7322 72.3392C70.7186 71.5557 70.767 70.7715 70.872 69.9932C70.875 69.9441 70.8781 69.895 70.8811 69.8459C70.761 69.7288 70.8478 69.7054 70.9521 69.6895V69.4727C70.9763 69.4447 71.0012 69.4175 71.0254 69.3895C71.0262 69.3419 71.0269 69.2936 71.0284 69.246C71.0428 69.1258 70.9702 68.9649 71.1758 68.9354C71.2083 68.8705 71.2483 68.8078 71.2717 68.7398C71.8293 67.1372 72.8206 65.8513 74.1368 64.8003C74.2894 64.6786 74.4912 64.6053 74.5599 64.3945C73.9728 64.6 73.4772 64.971 72.9763 65.3186C70.9582 66.7164 69.4025 68.5478 68.1021 70.609C67.9616 70.8319 67.7433 71.0389 67.7788 71.3464C67.7591 71.4892 67.7395 71.632 67.5536 71.6494C67.5483 71.8179 67.5483 71.9894 67.3277 72.0272C67.3156 72.1277 67.3829 72.278 67.1796 72.2569C67.1365 72.3173 67.0882 72.3748 67.0504 72.4382C65.9699 74.2523 64.8321 76.0203 63.1759 77.3826C62.0924 78.2054 60.8865 78.8061 59.6452 79.3456C58.6833 79.7641 57.6837 80.0717 56.6924 80.4049C55.5969 80.7033 54.4862 80.9526 53.3528 80.9987C51.7775 81.0629 50.2014 81.0539 48.6533 80.6459C48.2097 80.5288 47.8138 80.2689 47.3454 80.2447C46.3178 79.8775 45.3613 79.3712 44.4667 78.7479C43.6137 78.2092 42.9442 77.4604 42.2144 76.7804C42.1879 76.7547 42.1615 76.7298 42.135 76.7041H42.1373C41.8018 76.2138 41.452 75.7317 41.1347 75.2293C40.8438 74.7684 40.5877 74.2856 40.3164 73.8133C40.6511 74.89 41.1468 75.8926 41.7127 76.8628C42.6473 78.5779 43.7844 80.1449 45.1429 81.5495C46.0239 82.5038 46.9706 83.3863 48.0209 84.1532C48.9366 84.9171 49.9445 85.5464 50.9751 86.138C51.8863 86.6609 52.8111 87.1611 53.8115 87.5018C53.8545 87.526 53.8946 87.5555 53.9399 87.5744C55.9663 88.4002 58.0683 88.9268 60.2436 89.1701C60.5186 89.2011 60.814 89.1467 61.0694 89.3061H61.5975C62.0002 89.1784 62.4022 89.1898 62.8049 89.3061H64.6152C64.8472 89.1603 65.1177 89.2086 65.3663 89.1822C67.3473 88.9722 69.2793 88.5475 71.1584 87.8917C74.263 86.8082 77.1182 85.2797 79.6902 83.2072C80.9285 82.2099 82.1253 81.1793 83.2186 80.0278C83.3403 79.8994 83.4854 79.7664 83.338 79.5745L83.3365 79.576ZM74.1232 78.8076C74.1104 78.8272 74.093 78.8461 74.068 78.8643C74.0922 78.8461 74.1104 78.8272 74.1232 78.8076C74.1398 78.7812 74.1474 78.7517 74.1474 78.7192C74.1474 78.7517 74.1398 78.7812 74.1232 78.8076Z" fill="#202232"/>
<path d="M67.3203 72.0307C67.3203 72.0307 67.3276 72.0307 67.33 72.0307V72.0234L67.3203 72.0331V72.0307Z" fill="#F9B13E"/>
<path d="M67.5469 71.6533C67.5469 71.6533 67.5541 71.6533 67.5565 71.6533V71.6484L67.5469 71.6557V71.6533Z" fill="#F9B13E"/>
<path d="M67.5492 71.6484C67.544 71.8184 67.5455 71.9915 67.3203 72.0285C67.3641 71.8819 67.4231 71.7444 67.5492 71.6484Z" fill="#F9B13E"/>
<path d="M67.7829 71.3477C67.7632 71.4912 67.7436 71.6355 67.5547 71.6506C67.603 71.5282 67.6091 71.3749 67.7829 71.3477Z" fill="#F9B13E"/>
<path d="M78.6504 58.0161C78.8023 58.0146 78.9602 57.9655 79.0962 58.0758C78.9473 58.0584 78.7879 58.1173 78.6504 58.0161Z" fill="#EE7139"/>
<path d="M76.5234 58.0678C76.6693 57.9854 76.8249 58.0066 76.9806 58.0232C76.8355 58.1131 76.6776 58.0678 76.5234 58.0678Z" fill="#EE7139"/>
<path d="M67.3317 72.0234C67.3181 72.1232 67.3884 72.2773 67.1836 72.2554C67.201 72.1572 67.2478 72.0786 67.3317 72.0234Z" fill="#F9B13E"/>
<path d="M74.7083 64.3164C74.6849 64.3905 74.6297 64.4025 74.5625 64.3912C74.6109 64.3663 74.66 64.3413 74.7083 64.3164Z" fill="#F9B13E"/>
<path d="M74.8048 64.2617C74.7745 64.2799 74.7443 64.2987 74.7148 64.3169C74.7451 64.2987 74.7753 64.2799 74.8048 64.2617Z" fill="#F9B13E"/>
<path d="M57.3814 56.7144C57.16 56.6796 57.2416 56.5089 57.2303 56.3789C57.3126 56.4764 57.3693 56.5852 57.3814 56.7144Z" fill="#EE7139"/>
<path d="M58.3707 58.4385C58.2059 58.4438 58.2037 58.3327 58.2112 58.2148C58.2981 58.2655 58.348 58.3418 58.3707 58.4385Z" fill="#F3913D"/>
<path d="M58.2107 58.2142C58.049 58.2134 58.0505 58.1031 58.0603 57.9883C58.1442 58.0412 58.1925 58.1182 58.2107 58.2142Z" fill="#F3913D"/>
<path d="M57.2287 56.3384C57.132 56.3202 57.0292 56.3051 57.1516 56.1797C57.2159 56.2137 57.2302 56.2726 57.2287 56.3384Z" fill="#EE7139"/>
<path d="M57.5214 57.0132C57.498 56.9814 57.4746 56.9497 57.4512 56.918C57.4746 56.9497 57.498 56.9814 57.5214 57.0132Z" fill="#EE7139"/>
<path d="M57.4438 56.8628C57.4211 56.8281 57.3977 56.7933 57.375 56.7578C57.3977 56.7926 57.4211 56.8273 57.4438 56.8628Z" fill="#EE7139"/>
<path d="M42.2152 76.7817C42.188 76.7553 42.1608 76.7296 42.1328 76.7031C42.16 76.7296 42.188 76.7553 42.2152 76.7817Z" fill="#F5E25D"/>
<path d="M73.754 78.2734C73.8545 78.355 73.9558 78.4374 74.0562 78.519C73.8825 78.5273 73.7495 78.485 73.754 78.2734Z" fill="#E84132"/>
<path d="M72.9141 77.4609C72.9692 77.4957 73.0183 77.5342 72.9957 77.6113C72.9284 77.5833 72.9171 77.5244 72.9141 77.4609Z" fill="#E84132"/>
<path d="M73.3672 77.9835C73.4397 77.9683 73.4783 78.0129 73.5123 78.0658C73.4511 78.0605 73.3936 78.0492 73.3672 77.9835Z" fill="#E84132"/>
<path d="M72.9883 77.6069C73.0495 77.5985 73.0721 77.628 73.0676 77.6862C73.0412 77.6597 73.0147 77.6333 72.9883 77.6069Z" fill="#E84132"/>
<path d="M73.0645 77.6843C73.1226 77.679 73.1491 77.7054 73.1438 77.7636C73.1173 77.7371 73.0909 77.7107 73.0645 77.6843Z" fill="#E84132"/>
<path d="M73.1484 77.7585C73.2066 77.7532 73.2331 77.7796 73.2278 77.8378C73.2013 77.8114 73.1749 77.7849 73.1484 77.7585Z" fill="#E84132"/>
<path d="M73.2168 77.8327C73.275 77.8274 73.2992 77.8561 73.2961 77.912C73.2697 77.8855 73.2432 77.8591 73.2168 77.8327Z" fill="#E84132"/>
<path d="M73.293 77.9104C73.3489 77.9074 73.3768 77.9323 73.3723 77.9897C73.3459 77.9633 73.3194 77.9368 73.293 77.9104Z" fill="#E84132"/>
<path d="M71.0306 69.248C71.0449 69.1279 70.9724 68.967 71.1779 68.9375C71.1628 69.0569 71.1318 69.1695 71.0306 69.248Z" fill="#F3913D"/>
<path d="M70.8824 69.8478C70.7623 69.7307 70.8492 69.7073 70.9534 69.6914C70.9542 69.7549 70.9429 69.8123 70.8824 69.8478Z" fill="#F3913D"/>
<path d="M70.9531 69.4737C70.9773 69.4458 71.0022 69.4186 71.0264 69.3906L70.9531 69.4737Z" fill="#F3913D"/>
</g>
<circle cx="62" cy="62.1836" r="62" fill="url(#paint1_linear_9267_27241)"/>
<path fill-rule="evenodd" clip-rule="evenodd" d="M88.6499 47.9453C90.3953 47.1383 91.0432 45.1829 90.6632 43.7062C90.0418 41.4772 88.034 39.2007 84.4967 36.6397C82.7775 35.3951 81.047 34.5089 79.4589 33.9812L79.4726 33.9824C78.3795 33.6106 77.3272 33.421 76.409 33.4003C76.3519 33.399 76.2953 33.3984 76.2392 33.3984C75.8172 33.3986 75.4258 33.4356 75.0748 33.5082C72.7803 33.9824 72.111 37.4446 72.6847 38.7725C72.8168 39.061 73.0367 39.422 73.3281 39.8314C73.4804 39.7348 73.6355 39.6352 73.7931 39.5326C73.5063 38.7738 73.4107 37.7304 74.2711 36.8767C75.5618 35.5962 78.43 36.3551 82.541 39.0584C83.9751 40.0543 85.4091 41.1451 86.4608 42.1411C87.9427 43.5164 88.6597 44.6546 88.6597 45.5557C88.7075 46.5043 88.2773 47.026 87.8949 47.3105C87.369 47.7374 86.6998 47.8322 86.1262 47.8322C85.8872 47.8322 85.6482 47.8322 85.4569 47.7848C85.402 47.9109 85.348 48.037 85.295 48.1629C86.5961 48.486 87.637 48.3854 88.4595 48.068C88.518 48.0321 88.5819 47.9913 88.6499 47.9453ZM73.2188 41.567C74.5714 40.7543 76.2227 39.6394 78.0475 38.2047C79.0036 38.5841 80.2465 39.2481 81.7761 40.244C83.5926 41.4297 85.1701 42.7576 86.174 43.801C84.8179 45.5692 83.8387 47.867 83.16 49.7854C86.4031 54.1734 88.3183 59.5879 88.3183 65.4462C88.3183 80.0879 76.3546 91.9574 61.5967 91.9574C46.8387 91.9574 34.875 80.0879 34.875 65.4462C34.875 50.8044 46.8387 38.9349 61.5967 38.9349C65.762 38.9349 69.7048 39.8805 73.2188 41.567ZM87.0822 44.9866C87.2256 45.2238 87.2734 45.4609 87.2734 45.6032C87.2734 46.03 87.13 46.1723 87.0344 46.2671C86.8432 46.4094 86.4608 46.5043 86.1262 46.5043C86.413 45.9352 86.7476 45.4609 87.0822 44.9866ZM75.275 37.9201C75.4184 37.7778 75.8008 37.683 76.4222 37.7778C75.9442 38.1573 75.4662 38.4892 74.9882 38.8212C74.9404 38.4892 74.9882 38.1573 75.275 37.9201Z" fill="#202232" fill-opacity="0.3"/>
<path d="M87.1943 64.0898C87.1943 77.8926 75.8935 89.1044 61.9812 89.1044C48.069 89.1044 36.7207 77.8926 36.7207 64.0898H87.1943Z" fill="#202232" fill-opacity="0.5"/>
<path d="M87.1468 64.3267C87.1468 61.453 82.1137 59.8043 75.4187 59.239C70.5755 58.8621 65.6849 59.3332 60.082 61.0291C55.2388 62.4423 50.8704 62.2068 47.6891 61.8299C40.6142 61.0291 36.7207 60.9349 36.7207 64.3267C36.7207 69.2259 46.7869 75.35 61.8863 73.2301C69.5309 72.1466 73.472 69.9325 77.9828 68.4251C82.8734 66.8234 87.1468 66.8705 87.1468 64.3267Z" fill="#202232"/>
<path d="M68.5268 56.0836C70.9029 56.0836 72.8291 54.1726 72.8291 51.8152C72.8291 49.4579 70.9029 47.5469 68.5268 47.5469C66.1508 47.5469 64.2246 49.4579 64.2246 51.8152C64.2246 54.1726 66.1508 56.0836 68.5268 56.0836Z" fill="white" fill-opacity="0.3"/>
<path d="M75.547 59.2606C76.5502 59.2606 77.3635 58.4538 77.3635 57.4584C77.3635 56.4631 76.5502 55.6562 75.547 55.6562C74.5437 55.6562 73.7305 56.4631 73.7305 57.4584C73.7305 58.4538 74.5437 59.2606 75.547 59.2606Z" fill="white" fill-opacity="0.3"/>
<g opacity="0.6">
<path d="M82.0585 48.4029C82.0107 48.4029 81.9629 48.4029 81.9629 48.4029C81.6761 48.3554 81.4849 48.0709 81.5327 47.7389C81.9629 45.5573 83.7794 43.4705 83.875 43.3757C84.0663 43.1385 84.4487 43.1385 84.6399 43.3283C84.8789 43.518 84.8789 43.8974 84.6877 44.0871C84.6399 44.1345 82.9668 46.079 82.5844 47.976C82.5366 48.2606 82.2976 48.4029 82.0585 48.4029Z" fill="white" fill-opacity="0.3"/>
</g>
<path opacity="0.2" d="M60.224 83.974C60.9583 83.974 61.5535 83.3835 61.5535 82.655C61.5535 81.9265 60.9583 81.3359 60.224 81.3359C59.4898 81.3359 58.8945 81.9265 58.8945 82.655C58.8945 83.3835 59.4898 83.974 60.224 83.974Z" fill="white"/>
<g opacity="0.4">
<path opacity="0.6" d="M59.4606 83.5027C58.9383 82.9845 58.9383 82.1365 59.4606 81.6184C59.5555 81.5241 59.6505 81.477 59.7455 81.3828C59.5555 81.4299 59.4131 81.5241 59.2706 81.6655C58.7483 82.1837 58.7483 83.0316 59.2706 83.5498C59.698 83.9738 60.3627 84.068 60.885 83.7853C60.4102 83.9738 59.8404 83.8796 59.4606 83.5027Z" fill="url(#paint2_linear_9267_27241)"/>
</g>
<path opacity="0.3" d="M60.6931 82.2762C60.8504 82.2762 60.978 82.1497 60.978 81.9936C60.978 81.8375 60.8504 81.7109 60.6931 81.7109C60.5358 81.7109 60.4082 81.8375 60.4082 81.9936C60.4082 82.1497 60.5358 82.2762 60.6931 82.2762Z" fill="white"/>
<path opacity="0.2" d="M67.1596 83.3138C67.8938 83.3138 68.4891 82.7233 68.4891 81.9948C68.4891 81.2663 67.8938 80.6758 67.1596 80.6758C66.4253 80.6758 65.8301 81.2663 65.8301 81.9948C65.8301 82.7233 66.4253 83.3138 67.1596 83.3138Z" fill="white"/>
<g opacity="0.4">
<path opacity="0.6" d="M66.3961 82.8464C65.8738 82.3282 65.8738 81.4803 66.3961 80.9621C66.4911 80.8679 66.586 80.8208 66.681 80.7266C66.4911 80.7737 66.3486 80.8679 66.2062 81.0092C65.6839 81.5274 65.6839 82.3754 66.2062 82.8935C66.6335 83.3175 67.2983 83.4117 67.8206 83.1291C67.3458 83.3175 66.776 83.2233 66.3961 82.8464Z" fill="url(#paint3_linear_9267_27241)"/>
</g>
<path opacity="0.3" d="M67.6286 81.6161C67.786 81.6161 67.9135 81.4895 67.9135 81.3334C67.9135 81.1773 67.786 81.0508 67.6286 81.0508C67.4713 81.0508 67.3438 81.1773 67.3438 81.3334C67.3438 81.4895 67.4713 81.6161 67.6286 81.6161Z" fill="white"/>
<path opacity="0.2" d="M63.7237 86.3731C64.2744 86.3731 64.7208 85.9302 64.7208 85.3838C64.7208 84.8374 64.2744 84.3945 63.7237 84.3945C63.173 84.3945 62.7266 84.8374 62.7266 85.3838C62.7266 85.9302 63.173 86.3731 63.7237 86.3731Z" fill="white"/>
<g opacity="0.4">
<path opacity="0.6" d="M63.1539 85.996C62.774 85.6191 62.774 84.9596 63.1539 84.5827C63.2014 84.5356 63.2963 84.4885 63.3438 84.4414C63.2014 84.4885 63.1064 84.5827 63.0115 84.6769C62.6316 85.0538 62.6316 85.7133 63.0115 86.0902C63.3438 86.42 63.8187 86.4671 64.246 86.2315C63.8661 86.3728 63.4388 86.2786 63.1539 85.996Z" fill="url(#paint4_linear_9267_27241)"/>
</g>
<path opacity="0.3" d="M64.0513 85.0526C64.1562 85.0526 64.2412 84.9683 64.2412 84.8642C64.2412 84.7601 64.1562 84.6758 64.0513 84.6758C63.9464 84.6758 63.8613 84.7601 63.8613 84.8642C63.8613 84.9683 63.9464 85.0526 64.0513 85.0526Z" fill="white"/>
<path opacity="0.2" d="M54.5885 83.498C55.7948 83.498 56.7727 82.5278 56.7727 81.331C56.7727 80.1343 55.7948 79.1641 54.5885 79.1641C53.3822 79.1641 52.4043 80.1343 52.4043 81.331C52.4043 82.5278 53.3822 83.498 54.5885 83.498Z" fill="white"/>
<g opacity="0.4">
<path opacity="0.6" d="M53.3458 82.6965C52.4911 81.8485 52.4911 80.4824 53.3458 79.6344C53.4883 79.4931 53.6307 79.3989 53.8206 79.3047C53.5358 79.3989 53.2983 79.5873 53.0609 79.7758C52.2063 80.6237 52.2063 81.9899 53.0609 82.8378C53.7732 83.5444 54.8653 83.6858 55.7199 83.1676C54.9127 83.4973 53.9631 83.356 53.3458 82.6965Z" fill="url(#paint5_linear_9267_27241)"/>
</g>
<path opacity="0.3" d="M55.3459 80.6726C55.6082 80.6726 55.8207 80.4617 55.8207 80.2016C55.8207 79.9414 55.6082 79.7305 55.3459 79.7305C55.0837 79.7305 54.8711 79.9414 54.8711 80.2016C54.8711 80.4617 55.0837 80.6726 55.3459 80.6726Z" fill="white"/>
<path opacity="0.2" d="M74.0689 78.1777C75.2752 78.1777 76.2531 77.2075 76.2531 76.0107C76.2531 74.8139 75.2752 73.8438 74.0689 73.8438C72.8627 73.8438 71.8848 74.8139 71.8848 76.0107C71.8848 77.2075 72.8627 78.1777 74.0689 78.1777Z" fill="white"/>
<g opacity="0.4">
<path opacity="0.6" d="M72.795 77.3762C71.9404 76.5282 71.9404 75.1621 72.795 74.3141C72.9375 74.1728 73.0799 74.0786 73.2699 73.9844C72.985 74.0786 72.7476 74.267 72.5102 74.4555C71.6555 75.3034 71.6555 76.6696 72.5102 77.5175C73.2224 78.2241 74.3145 78.3655 75.1692 77.8473C74.362 78.177 73.4598 78.0357 72.795 77.3762Z" fill="url(#paint6_linear_9267_27241)"/>
</g>
<path opacity="0.3" d="M74.842 75.3523C75.1042 75.3523 75.3168 75.1414 75.3168 74.8812C75.3168 74.6211 75.1042 74.4102 74.842 74.4102C74.5798 74.4102 74.3672 74.6211 74.3672 74.8812C74.3672 75.1414 74.5798 75.3523 74.842 75.3523Z" fill="white"/>
<defs>
<linearGradient id="paint0_linear_9267_27241" x1="0" y1="0.183594" x2="124" y2="124.184" gradientUnits="userSpaceOnUse">
<stop stop-color="#FFD6A7"/>
<stop offset="1" stop-color="#FFA26D"/>
</linearGradient>
<linearGradient id="paint1_linear_9267_27241" x1="0" y1="0.183594" x2="124" y2="124.184" gradientUnits="userSpaceOnUse">
<stop stop-color="#D3C6FF"/>
<stop offset="1" stop-color="#987FEB"/>
</linearGradient>
<linearGradient id="paint2_linear_9267_27241" x1="58.8789" y1="82.6649" x2="60.8878" y2="82.6649" gradientUnits="userSpaceOnUse">
<stop offset="0.2888" stop-color="white"/>
<stop offset="0.7796" stop-color="white" stop-opacity="0"/>
</linearGradient>
<linearGradient id="paint3_linear_9267_27241" x1="65.8083" y1="82.0086" x2="67.8172" y2="82.0086" gradientUnits="userSpaceOnUse">
<stop offset="0.2888" stop-color="white"/>
<stop offset="0.7796" stop-color="white" stop-opacity="0"/>
</linearGradient>
<linearGradient id="paint4_linear_9267_27241" x1="62.7203" y1="85.4101" x2="64.2285" y2="85.4101" gradientUnits="userSpaceOnUse">
<stop offset="0.2888" stop-color="white"/>
<stop offset="0.7796" stop-color="white" stop-opacity="0"/>
</linearGradient>
<linearGradient id="paint5_linear_9267_27241" x1="52.3981" y1="81.3918" x2="55.6789" y2="81.3918" gradientUnits="userSpaceOnUse">
<stop offset="0.2888" stop-color="white"/>
<stop offset="0.7796" stop-color="white" stop-opacity="0"/>
</linearGradient>
<linearGradient id="paint6_linear_9267_27241" x1="71.8655" y1="76.0715" x2="75.1463" y2="76.0715" gradientUnits="userSpaceOnUse">
<stop offset="0.2888" stop-color="white"/>
<stop offset="0.7796" stop-color="white" stop-opacity="0"/>
</linearGradient>
<clipPath id="clip0_9267_27241">
<rect width="50.1579" height="54.25" fill="white" transform="translate(38.75 35.0586)"/>
</clipPath>
</defs>
</svg>
