<svg width="256" height="257" viewBox="0 0 256 257" fill="none" xmlns="http://www.w3.org/2000/svg">
<circle cx="128" cy="128.32" r="128" fill="url(#paint0_linear_9267_28110)"/>
<path fill-rule="evenodd" clip-rule="evenodd" d="M69.8212 169.309C68.3072 171.903 70.1679 175.165 73.1656 175.173L96.3298 175.236L157.616 130.875L121.938 175.337L128.567 175.346L151.539 175.415L162.661 140.37L166.842 175.472L183.968 175.515C186.966 175.523 188.844 172.27 187.343 169.669L159.81 121.937L132.241 74.1375C130.748 71.5504 127.026 71.5408 125.521 74.1203L116.631 89.3524L145.279 110.546L108.897 102.524L97.6518 121.746L93.9813 128.071L151.057 119.622L80.9077 150.319L69.8212 169.309ZM167.81 115.456C169.315 115.79 170.198 117.359 169.705 118.823L165.396 131.619L154.351 112.471L167.81 115.456Z" fill="#202232"/>
<defs>
<linearGradient id="paint0_linear_9267_28110" x1="0" y1="0.320313" x2="256" y2="256.32" gradientUnits="userSpaceOnUse">
<stop stop-color="#D3C6FF"/>
<stop offset="1" stop-color="#987FEB"/>
</linearGradient>
</defs>
</svg>
