<svg width="124" height="124" viewBox="0 0 124 124" fill="none" xmlns="http://www.w3.org/2000/svg">
<circle cx="62" cy="61.9998" r="62" fill="white"/>
<circle cx="62" cy="61.9998" r="62" fill="url(#paint0_radial_5352_17587)"/>
<path fill-rule="evenodd" clip-rule="evenodd" d="M33.8192 81.8559C33.0858 83.1121 33.9871 84.6924 35.4391 84.6963L46.6593 84.7265L76.3448 63.2394L59.0631 84.7756L62.2741 84.7799L73.4011 84.8133L78.7883 67.8383L80.8138 84.841L89.1092 84.862C90.5612 84.8657 91.4707 83.2901 90.7439 82.0302L77.4077 58.91L64.0536 35.7571C63.3308 34.5039 61.5277 34.4993 60.7986 35.7488L56.4927 43.1268L70.369 53.3924L52.7463 49.5069L47.2997 58.8176L45.5217 61.881L73.1678 57.7887L39.1892 72.6577L33.8192 81.8559ZM81.2824 55.7709C82.0114 55.9326 82.4393 56.6927 82.2004 57.4018L80.1131 63.5995L74.7632 54.3251L81.2824 55.7709Z" fill="#35354A"/>
<defs>
<radialGradient id="paint0_radial_5352_17587" cx="0" cy="0" r="1" gradientUnits="userSpaceOnUse" gradientTransform="translate(18.2193 104.965) rotate(-45.9276) scale(124.712)">
<stop stop-color="#BDBFFF"/>
<stop offset="1" stop-color="#CCF4ED"/>
</radialGradient>
</defs>
</svg>
