<svg width="256" height="256" viewBox="0 0 256 256" fill="none" xmlns="http://www.w3.org/2000/svg">
<g clip-path="url(#clip0_10954_8845)">
<path d="M255 40.5C255 45.8185 253.952 51.085 251.917 55.9987C249.882 60.9124 246.899 65.377 243.138 69.1378C239.377 72.8986 234.912 75.8818 229.999 77.9171C225.085 79.9524 219.819 81 214.5 81C209.181 81 203.915 79.9524 199.001 77.9171C194.088 75.8818 189.623 72.8986 185.862 69.1378C182.101 65.377 179.118 60.9124 177.083 55.9987C175.048 51.085 174 45.8185 174 40.5C174 29.7587 178.267 19.4574 185.862 11.8622C193.457 4.26696 203.759 4.47571e-07 214.5 0C225.241 -4.06883e-07 235.543 4.26696 243.138 11.8622C250.733 19.4574 255 29.7587 255 40.5Z" fill="#E6007A"/>
<path fill-rule="evenodd" clip-rule="evenodd" d="M247.619 83.7826C243.864 86.6557 239.743 89.0343 235.356 90.8514C228.744 93.5903 221.657 95 214.5 95C207.343 95 200.256 93.5903 193.644 90.8514C187.032 88.1125 181.023 84.0981 175.963 79.0373C170.902 73.9765 166.887 67.9685 164.149 61.3562C161.41 54.744 160 47.657 160 40.5C160 28.5491 163.925 17.003 171.062 7.58517C157.289 2.6128 142.635 0 127.712 0C93.841 0 61.3568 13.461 37.4061 37.4216C13.4554 61.3822 6.41267e-06 93.8798 0 127.765C-3.17522e-06 144.544 3.30337 161.158 9.72152 176.659C16.1397 192.16 25.5469 206.245 37.4061 218.109C49.2653 229.973 63.3442 239.384 78.839 245.805C94.3338 252.226 110.941 255.531 127.712 255.531C144.484 255.531 161.091 252.226 176.586 245.805C192.081 239.384 206.16 229.973 218.019 218.109C229.878 206.245 239.285 192.16 245.703 176.659C252.121 161.158 255.425 144.544 255.425 127.765C255.425 112.614 252.735 97.7399 247.619 83.7826Z" fill="url(#paint0_linear_10954_8845)"/>
<path d="M147.358 86.707L88.5156 169.288H106.466L165.514 86.707H147.358Z" fill="#202232"/>
<path d="M108.459 86.707L125.811 111.045L116.636 124.205L90.1035 86.707H108.459Z" fill="url(#paint1_linear_10954_8845)"/>
<path d="M148.955 169.284L129.807 142.358L138.782 129.391L167.105 169.284H148.955Z" fill="#202232" fill-opacity="0.3"/>
<path d="M228.223 48.5936C224.833 48.5936 222.09 45.8363 222.09 42.4398V33.2247H230V27.8646H222.09V19L216.029 22.2469V27.8646H204.534C196.521 27.8646 194.415 37.5539 200.579 41.1617L206.845 45.3878C208.232 46.4186 207.667 48.5833 205.715 48.5833H197.189V53.9948H205.715C213.779 53.9948 215.834 44.3056 209.67 40.6978L203.455 36.4717C202.068 35.4408 202.582 33.2247 204.534 33.2247H216.029V42.512C216.029 49.5213 220.857 54 228.151 54H230V48.5936H228.223Z" fill="white"/>
</g>
<defs>
<linearGradient id="paint0_linear_10954_8845" x1="0" y1="0" x2="255.531" y2="255.425" gradientUnits="userSpaceOnUse">
<stop stop-color="#D3C6FF"/>
<stop offset="1" stop-color="#987FEB"/>
</linearGradient>
<linearGradient id="paint1_linear_10954_8845" x1="102.044" y1="92.8825" x2="126.38" y2="122.006" gradientUnits="userSpaceOnUse">
<stop stop-color="#202232"/>
<stop offset="1" stop-color="#202232" stop-opacity="0.4"/>
</linearGradient>
<clipPath id="clip0_10954_8845">
<rect width="256" height="256" fill="white"/>
</clipPath>
</defs>
</svg>
