<svg width="256" height="256" viewBox="0 0 256 256" fill="none" xmlns="http://www.w3.org/2000/svg">
<g clip-path="url(#clip0_11025_6048)">
<path d="M255 40.5C255 45.8185 253.952 51.085 251.917 55.9987C249.882 60.9124 246.899 65.377 243.138 69.1378C239.377 72.8986 234.912 75.8818 229.999 77.9171C225.085 79.9524 219.819 81 214.5 81C209.181 81 203.915 79.9524 199.001 77.9171C194.088 75.8818 189.623 72.8986 185.862 69.1378C182.101 65.377 179.118 60.9124 177.083 55.9987C175.048 51.085 174 45.8185 174 40.5C174 29.7587 178.267 19.4574 185.862 11.8622C193.457 4.26696 203.759 4.47571e-07 214.5 0C225.241 -4.06883e-07 235.543 4.26696 243.138 11.8622C250.733 19.4574 255 29.7587 255 40.5Z" fill="#E6007A"/>
<path fill-rule="evenodd" clip-rule="evenodd" d="M247.619 83.7826C243.864 86.6557 239.743 89.0343 235.356 90.8514C228.744 93.5903 221.657 95 214.5 95C207.343 95 200.256 93.5903 193.644 90.8514C187.032 88.1125 181.023 84.0981 175.963 79.0373C170.902 73.9765 166.887 67.9685 164.149 61.3562C161.41 54.744 160 47.657 160 40.5C160 28.5491 163.925 17.003 171.062 7.58517C157.289 2.6128 142.635 0 127.712 0C93.841 0 61.3568 13.461 37.4061 37.4216C13.4554 61.3822 6.41267e-06 93.8798 0 127.765C-3.17522e-06 144.544 3.30337 161.158 9.72152 176.659C16.1397 192.16 25.5469 206.245 37.4061 218.109C49.2653 229.973 63.3442 239.384 78.839 245.805C94.3338 252.226 110.941 255.531 127.712 255.531C144.484 255.531 161.091 252.226 176.586 245.805C192.081 239.384 206.16 229.973 218.019 218.109C229.878 206.245 239.285 192.16 245.703 176.659C252.121 161.158 255.425 144.544 255.425 127.765C255.425 112.614 252.735 97.7399 247.619 83.7826Z" fill="url(#paint0_linear_11025_6048)"/>
<g clip-path="url(#clip1_11025_6048)">
<path fill-rule="evenodd" clip-rule="evenodd" d="M173.165 129.338C173.16 129.399 173.136 129.457 173.096 129.503C173.056 129.55 173.002 129.582 172.942 129.596C172.882 129.61 172.82 129.604 172.763 129.58C172.707 129.556 172.659 129.515 172.628 129.462L172.463 129.09C172.403 128.987 172.372 128.869 172.372 128.749C172.372 128.63 172.403 128.512 172.463 128.409L172.628 128.182C172.814 127.934 173.103 127.955 173.103 128.182C173.103 128.409 173.103 128.904 173.103 129.276M170.915 123.268C170.832 123.405 170.715 123.518 170.576 123.597C170.437 123.675 170.28 123.716 170.12 123.716C169.96 123.716 169.803 123.675 169.664 123.597C169.524 123.518 169.408 123.405 169.325 123.268L169.16 123C167.752 120.828 166.193 118.759 164.494 116.806C164.4 116.695 164.339 116.56 164.319 116.416C164.299 116.271 164.32 116.124 164.381 115.992C164.442 115.86 164.539 115.748 164.662 115.669C164.784 115.59 164.926 115.548 165.072 115.547C169.201 115.547 171.266 116.559 171.947 117.777C172.628 118.995 172.319 120.605 170.915 123.124M170.068 144.636C169.841 145.193 169.614 145.73 169.366 146.288C169.374 146.363 169.374 146.439 169.366 146.515C167.731 149.519 165.136 151.889 161.996 153.245C161.828 153.328 161.639 153.36 161.452 153.338C161.266 153.316 161.09 153.24 160.946 153.12C160.801 153 160.695 152.841 160.64 152.661C160.584 152.482 160.582 152.29 160.633 152.109C161.793 147.891 162.635 143.592 163.152 139.248C163.255 138.401 163.667 137.622 164.308 137.059C165.691 135.862 166.992 134.685 168.169 133.488C168.304 133.355 168.471 133.26 168.654 133.211C168.837 133.163 169.029 133.162 169.212 133.21C169.395 133.258 169.562 133.352 169.698 133.484C169.834 133.616 169.933 133.781 169.986 133.962C171.162 137.421 171.22 141.163 170.151 144.657M161.005 159.108C160.675 159.48 160.324 159.831 159.973 160.202C159.622 160.574 158.713 161.42 158.073 161.999C157.984 162.073 157.873 162.115 157.757 162.118C157.642 162.121 157.528 162.085 157.435 162.016C157.342 161.947 157.275 161.849 157.245 161.737C157.215 161.625 157.223 161.506 157.268 161.4C157.329 161.251 157.398 161.107 157.475 160.966C157.743 160.368 157.991 159.748 158.259 159.129C158.29 159.059 158.335 158.997 158.392 158.947C158.449 158.898 158.517 158.861 158.59 158.84C159.25 158.675 159.87 158.489 160.489 158.282C160.596 158.24 160.715 158.237 160.825 158.274C160.935 158.31 161.028 158.383 161.089 158.481C161.151 158.579 161.176 158.696 161.16 158.81C161.145 158.924 161.09 159.03 161.005 159.108ZM154.213 155.454C152.836 155.647 151.412 155.771 149.939 155.826C146.102 155.915 142.266 155.583 138.502 154.835C138.401 154.812 138.309 154.759 138.238 154.683C138.168 154.607 138.122 154.512 138.106 154.409C138.09 154.307 138.106 154.202 138.151 154.108C138.196 154.015 138.268 153.937 138.357 153.885L140.959 152.543C146.739 149.494 152.299 146.044 157.599 142.22C157.681 142.163 157.778 142.131 157.879 142.129C157.979 142.126 158.078 142.153 158.163 142.205C158.248 142.258 158.317 142.334 158.359 142.425C158.402 142.515 158.418 142.617 158.404 142.716C157.753 146.622 156.807 150.473 155.575 154.236C155.473 154.532 155.293 154.794 155.052 154.994C154.812 155.194 154.522 155.324 154.213 155.371M152.83 161.028C149.568 167.428 145.583 171 141.702 170.938C137.573 170.938 133.299 166.479 130.202 158.902C130.112 158.669 130.116 158.41 130.212 158.179C130.308 157.948 130.49 157.763 130.719 157.663H130.822C131.029 157.591 131.255 157.591 131.462 157.663C136.975 159.19 142.67 159.961 148.391 159.955H150.125L152.19 159.851C152.328 159.835 152.468 159.857 152.594 159.915C152.721 159.973 152.829 160.064 152.908 160.178C152.986 160.293 153.032 160.427 153.04 160.566C153.048 160.705 153.018 160.843 152.953 160.966M133.733 173.106C131.746 173.339 129.746 173.443 127.746 173.415C119.045 173.438 110.522 170.951 103.199 166.251C103.09 166.18 103.006 166.075 102.96 165.953C102.914 165.831 102.908 165.697 102.942 165.572C102.977 165.446 103.05 165.334 103.151 165.252C103.253 165.17 103.378 165.123 103.508 165.116H103.859C105.891 164.97 107.912 164.694 109.908 164.29C115.114 163.234 120.219 161.728 125.165 159.79C125.401 159.701 125.662 159.707 125.893 159.807C126.124 159.907 126.307 160.093 126.404 160.326C127.979 164.691 130.561 168.624 133.939 171.805C134.044 171.897 134.119 172.018 134.157 172.152C134.195 172.286 134.193 172.429 134.151 172.562C134.11 172.695 134.031 172.813 133.923 172.902C133.816 172.992 133.685 173.048 133.547 173.064M107.328 141.229C111.708 137.7 116.338 134.491 121.18 131.629C121.24 137.877 121.932 144.102 123.245 150.21C121.325 149.384 119.426 148.497 117.547 147.506C113.954 145.658 110.504 143.547 107.224 141.188M94.8786 158.964C93.9082 157.168 95.1469 152.997 101.423 146.577C101.579 146.423 101.7 146.238 101.779 146.034C101.858 145.83 101.892 145.611 101.881 145.393C101.869 145.174 101.811 144.961 101.711 144.766C101.611 144.572 101.47 144.401 101.299 144.264L100.535 143.666C100.254 143.407 99.8853 143.264 99.5031 143.264C99.1209 143.264 98.7526 143.407 98.4708 143.666L98.2231 143.913C95.553 146.481 93.3275 149.474 91.6373 152.77C91.5563 152.941 91.4317 153.088 91.2759 153.195C91.1201 153.302 90.9387 153.367 90.7501 153.381C90.5615 153.396 90.3724 153.36 90.2019 153.279C90.0314 153.197 89.8856 153.071 89.7792 152.915C84.9 145.521 82.3077 136.854 82.3263 127.996C82.3249 124.812 82.65 121.637 83.2966 118.52C83.3263 118.422 83.3865 118.337 83.4682 118.277C83.55 118.216 83.6491 118.183 83.7508 118.183C83.8526 118.183 83.9516 118.216 84.0334 118.277C84.1152 118.337 84.1753 118.422 84.205 118.52C85.2801 121.874 86.8156 125.064 88.7676 127.996C91.8789 132.613 95.6092 136.781 99.854 140.383C101.382 141.704 102.992 142.984 104.664 144.202C108.16 146.763 111.846 149.055 115.689 151.057C117.444 151.944 119.137 152.811 120.871 153.596C121.354 153.8 121.874 153.906 122.399 153.906C122.923 153.906 123.443 153.8 123.926 153.596L126.404 152.605C126.831 152.409 127.178 152.073 127.388 151.652C127.599 151.232 127.659 150.752 127.56 150.293C127.56 150.169 127.56 150.066 127.56 150.024C126.134 143.778 125.394 137.396 125.351 130.99V130.742C125.351 130.37 125.351 129.999 125.351 129.627V129.193C125.361 129.146 125.361 129.096 125.351 129.049V127.996C125.351 126.84 125.392 125.684 125.475 124.528C125.787 116.926 127.142 109.402 129.5 102.169C129.599 101.879 129.578 101.561 129.443 101.286C129.307 101.012 129.068 100.802 128.778 100.703L127.023 100.125C126.741 100.04 126.437 100.068 126.175 100.202C125.913 100.337 125.714 100.569 125.619 100.848C123.075 108.682 121.636 116.833 121.346 125.064C121.321 125.615 121.159 126.152 120.874 126.624C120.589 127.097 120.191 127.49 119.715 127.769C114.768 130.672 110.029 133.914 105.531 137.472C105.118 137.811 104.6 137.996 104.066 137.996C103.531 137.996 103.013 137.811 102.6 137.472C98.641 134.106 95.1671 130.209 92.2773 125.89C87.0127 117.839 85.774 110.324 88.7263 104.646C89.0979 104.027 89.4902 103.408 89.9031 102.788C93.2889 98.3082 99.6063 95.6863 108.009 95.3972H109.599C115.116 95.4577 120.598 96.2846 125.888 97.854L126.259 97.9572H126.548C127.849 98.3289 129.15 98.7624 130.45 99.2372L131.462 99.6295L131.792 99.7327L132.102 99.8566C134.922 100.938 137.68 102.179 140.36 103.573C145.434 106.193 150.205 109.364 154.584 113.028C145.379 115.33 136.48 118.719 128.076 123.124C127.862 123.23 127.681 123.391 127.55 123.591C127.42 123.79 127.345 124.021 127.333 124.259C127.333 124.837 127.333 125.993 127.333 126.902C127.324 127.034 127.351 127.166 127.411 127.285C127.471 127.403 127.561 127.503 127.673 127.575C127.785 127.647 127.914 127.687 128.046 127.692C128.179 127.697 128.31 127.667 128.427 127.604C136.751 123.125 145.581 119.659 154.729 117.281C155.438 117.104 156.057 116.671 156.465 116.065C156.873 115.458 157.041 114.722 156.938 113.999C156.793 112.946 156.628 111.934 156.463 110.902C156.21 109.61 155.471 108.465 154.399 107.702C150.58 104.798 146.519 102.229 142.259 100.022C139.366 98.5169 136.388 97.1796 133.34 96.0166C133.19 95.9599 133.054 95.8714 132.941 95.7571C132.828 95.6428 132.741 95.5055 132.686 95.3545C132.631 95.2036 132.61 95.0425 132.623 94.8824C132.636 94.7223 132.684 94.5669 132.762 94.4269C135.839 88.9147 139.513 85.8179 143.085 85.8179C147.214 85.8179 151.488 90.2772 154.605 97.854C156.274 102.061 157.485 106.436 158.218 110.902C158.569 112.966 158.858 115.031 159.064 117.24C159.42 121 159.564 124.777 159.498 128.553C159.498 131.01 159.333 133.426 159.106 135.779C152.795 140.791 146.021 145.187 138.873 148.91C136.355 150.251 133.836 151.49 131.338 152.626H131.235L130.657 152.894C128.592 153.823 126.528 154.69 124.463 155.475L124.133 155.599L123.72 155.764L122.708 156.156H122.419L121.201 156.589H121.057C117.188 158.11 113.214 159.346 109.165 160.285C100.143 162.019 95.8902 160.698 94.9198 158.86M101.361 90.9792C109.059 85.484 118.288 82.5449 127.746 82.5766C130.249 82.5769 132.748 82.7771 135.219 83.1753C135.368 83.1974 135.506 83.2628 135.618 83.3633C135.729 83.4638 135.809 83.5949 135.846 83.7403C135.884 83.8857 135.877 84.0388 135.828 84.1807C135.779 84.3225 135.689 84.4468 135.57 84.5379C132.867 86.8288 130.65 89.6364 129.046 92.796C128.825 93.2261 128.461 93.565 128.015 93.7536C127.57 93.9423 127.073 93.9687 126.61 93.8282C120.538 92.0571 114.229 91.2285 107.906 91.3714C105.828 91.4265 103.757 91.6405 101.712 92.0114C101.596 92.033 101.477 92.0144 101.373 91.9586C101.269 91.9028 101.188 91.8133 101.142 91.7048C101.096 91.5963 101.089 91.4755 101.121 91.3623C101.154 91.2491 101.224 91.1503 101.32 91.0824M163.71 124.115C163.697 123.991 163.73 123.868 163.801 123.766C163.872 123.665 163.978 123.592 164.098 123.562C164.218 123.532 164.345 123.546 164.456 123.602C164.567 123.658 164.653 123.752 164.7 123.867C165.072 124.383 165.444 124.92 165.774 125.436C166.104 125.952 166.662 126.84 167.054 127.5C167.174 127.711 167.224 127.954 167.198 128.195C167.172 128.435 167.071 128.662 166.91 128.842L165.175 130.659L164.473 131.34C164.408 131.402 164.325 131.443 164.236 131.457C164.147 131.471 164.056 131.459 163.974 131.421C163.892 131.384 163.823 131.323 163.776 131.246C163.729 131.169 163.706 131.08 163.71 130.99V128.739C163.71 127.211 163.71 125.684 163.71 124.156M159.044 94.9637C159.312 95.2527 159.601 95.5211 159.89 95.7895C164.197 100.093 167.595 105.218 169.882 110.86C169.938 110.988 169.957 111.128 169.938 111.266C169.92 111.404 169.864 111.534 169.777 111.642C169.689 111.75 169.574 111.833 169.444 111.881C169.313 111.928 169.172 111.94 169.036 111.913C167.584 111.665 166.111 111.561 164.639 111.604C164.096 111.613 163.568 111.429 163.148 111.085C162.729 110.741 162.445 110.259 162.347 109.725C161.553 105.091 160.28 100.553 158.548 96.1818C158.445 95.9547 158.342 95.7482 158.259 95.5211C158.218 95.418 158.213 95.3043 158.245 95.198C158.276 95.0917 158.343 94.999 158.433 94.9348C158.523 94.8706 158.633 94.8385 158.743 94.8438C158.854 94.849 158.96 94.8912 159.044 94.9637ZM176.22 117.673C174.38 108.934 170.211 100.854 164.155 94.2887C158.099 87.7238 150.381 82.9178 141.818 80.3793C133.255 77.8408 124.165 77.6642 115.509 79.8681C106.854 82.072 98.9553 86.5745 92.6489 92.8992C90.3968 95.1507 88.3644 97.6117 86.5792 100.249C86.0519 100.946 85.5824 101.685 85.1753 102.458C81.9713 108.254 79.9616 114.633 79.2651 121.219C78.5685 127.805 79.1993 134.463 81.1201 140.801C83.0408 147.139 86.2127 153.027 90.448 158.118C94.6834 163.21 99.8964 167.4 105.779 170.442C111.661 173.484 118.094 175.316 124.697 175.829C131.299 176.343 137.938 175.528 144.22 173.432C150.502 171.336 156.3 168.002 161.272 163.627C166.243 159.252 170.287 153.924 173.165 147.96C173.454 147.34 173.722 146.721 173.95 146.081C176.183 140.314 177.318 134.18 177.294 127.996C177.3 124.576 176.947 121.164 176.241 117.818V117.673" fill="#202232"/>
</g>
<path d="M228.223 48.5936C224.833 48.5936 222.09 45.8363 222.09 42.4398V33.2247H230V27.8646H222.09V19L216.029 22.2469V27.8646H204.534C196.521 27.8646 194.415 37.5539 200.579 41.1617L206.845 45.3878C208.232 46.4186 207.667 48.5833 205.715 48.5833H197.189V53.9948H205.715C213.779 53.9948 215.834 44.3056 209.67 40.6978L203.455 36.4717C202.068 35.4408 202.582 33.2247 204.534 33.2247H216.029V42.512C216.029 49.5213 220.857 54 228.151 54H230V48.5936H228.223Z" fill="white"/>
</g>
<defs>
<linearGradient id="paint0_linear_11025_6048" x1="0" y1="0" x2="255.531" y2="255.425" gradientUnits="userSpaceOnUse">
<stop stop-color="#D3C6FF"/>
<stop offset="1" stop-color="#987FEB"/>
</linearGradient>
<clipPath id="clip0_11025_6048">
<rect width="256" height="256" fill="white"/>
</clipPath>
<clipPath id="clip1_11025_6048">
<rect width="99.0968" height="99.0968" fill="white" transform="translate(78.1953 78.4531)"/>
</clipPath>
</defs>
</svg>
