<svg width="256" height="256" viewBox="0 0 256 256" fill="none" xmlns="http://www.w3.org/2000/svg">
<g clip-path="url(#clip0_12730_7727)">
<path d="M255 40.5C255 45.8185 253.952 51.085 251.917 55.9987C249.882 60.9124 246.899 65.377 243.138 69.1378C239.377 72.8986 234.912 75.8818 229.999 77.9171C225.085 79.9524 219.819 81 214.5 81C209.181 81 203.915 79.9524 199.001 77.9171C194.088 75.8818 189.623 72.8986 185.862 69.1378C182.101 65.377 179.118 60.9124 177.083 55.9987C175.048 51.085 174 45.8185 174 40.5C174 29.7587 178.267 19.4574 185.862 11.8622C193.457 4.26696 203.759 4.47571e-07 214.5 0C225.241 -4.06883e-07 235.543 4.26696 243.138 11.8622C250.733 19.4574 255 29.7587 255 40.5Z" fill="white"/>
<path fill-rule="evenodd" clip-rule="evenodd" d="M247.619 83.7826C243.864 86.6557 239.743 89.0343 235.356 90.8514C228.744 93.5903 221.657 95 214.5 95C207.343 95 200.256 93.5903 193.644 90.8514C187.032 88.1125 181.023 84.0981 175.963 79.0373C170.902 73.9765 166.887 67.9685 164.149 61.3562C161.41 54.744 160 47.657 160 40.5C160 28.5491 163.925 17.003 171.062 7.58517C157.289 2.6128 142.635 0 127.712 0C93.841 0 61.3568 13.461 37.4061 37.4216C13.4554 61.3822 6.41266e-06 93.8798 0 127.765C-3.17523e-06 144.544 3.30337 161.158 9.72152 176.659C16.1397 192.16 25.5469 206.245 37.4061 218.109C49.2653 229.973 63.3442 239.384 78.839 245.805C94.3338 252.226 110.941 255.531 127.712 255.531C144.484 255.531 161.091 252.226 176.586 245.805C192.081 239.384 206.16 229.973 218.019 218.109C229.878 206.245 239.285 192.16 245.703 176.659C252.121 161.158 255.425 144.544 255.425 127.765C255.425 112.614 252.735 97.7399 247.619 83.7826Z" fill="url(#paint0_linear_12730_7727)"/>
<path d="M96.3642 149.744H85C85.9277 167.535 100.771 183 127.094 183C153.302 183 170 168.581 170 149.977C170 114.628 116.773 116.605 116.773 96.1396C116.773 90.4418 121.064 83.6977 131.037 83.6977C142.169 83.6977 155.273 92.4186 156.2 103.581H167.449C166.289 85.5581 148.779 73 126.515 73C103.438 73 86.0437 86.4884 86.0437 105.558C86.0437 141.953 139.27 137.186 139.27 159.628C139.27 166.604 134.979 172.418 124.195 172.418C110.743 172.418 97.1761 163 96.3642 149.744ZM105.873 98.814C105.873 126.488 158.636 121.023 158.636 150.558C158.636 159.395 152.838 167.186 145.88 169.163C148.315 166.837 150.171 161.721 150.171 156.837C150.171 129.512 97.292 133.233 97.292 105.209C97.292 95.7906 103.322 88.2325 110.859 85.907C107.96 89.3953 105.873 93.9303 105.873 98.814Z" fill="#202232"/>
<g clip-path="url(#clip1_12730_7727)">
<path d="M196.297 27.271C196.99 26.3173 197.756 25.4195 198.59 24.5859L198.869 24.7396L214.353 40.3059L214.5 40.4949L196.297 27.271Z" fill="url(#paint1_radial_12730_7727)"/>
<path d="M198.59 24.5869C201.95 21.2267 206.287 19.0176 210.98 18.2734L211.136 18.7009L214.5 40.1979V40.4959L198.59 24.5869Z" fill="url(#paint2_radial_12730_7727)"/>
<path d="M224.718 20.4531C225.767 20.9877 226.773 21.6042 227.726 22.2972L227.686 22.6473L214.582 40.4348L214.5 40.5L224.718 20.4531Z" fill="url(#paint3_radial_12730_7727)"/>
<path d="M237 40.5C237 42.8609 236.628 45.2069 235.899 47.4533L235.367 47.539L214.666 40.5848L214.5 40.5009H237V40.5Z" fill="url(#paint4_radial_12730_7727)"/>
<path d="M235.899 47.4524C235.17 49.6978 234.091 51.8147 232.704 53.7249L232.191 53.6383L214.606 40.6108L214.5 40.5L235.899 47.4524Z" fill="url(#paint5_radial_12730_7727)"/>
<path d="M221.453 61.8992C218.076 62.9963 214.488 63.2785 210.98 62.7234L210.84 62.2922L214.398 40.8828L214.5 40.5L221.453 61.8992Z" fill="url(#paint6_radial_12730_7727)"/>
<path d="M210.98 62.7234C209.815 62.539 208.667 62.2633 207.547 61.8992L207.484 61.3786L214.372 40.7347L214.5 40.5L210.981 62.7234H210.98Z" fill="url(#paint7_radial_12730_7727)"/>
<path d="M207.548 61.8992C205.302 61.1699 203.186 60.0915 201.275 58.7028V58.2959L214.271 40.7291L214.501 40.5L207.548 61.8992Z" fill="url(#paint8_radial_12730_7727)"/>
<path d="M194.452 50.7116C192.84 47.5479 192 44.048 192 40.4968L192.288 40.3906H213.773L214.501 40.4968L194.452 50.7116Z" fill="url(#paint9_radial_12730_7727)"/>
<path d="M210.979 18.2774C214.487 17.7214 218.076 18.0036 221.453 19.1017L214.5 40.5008L210.979 18.2774Z" fill="url(#paint10_radial_12730_7727)"/>
<path d="M227.726 22.2969C231.569 25.0899 234.43 29.0276 235.899 33.5464L214.5 40.4997L227.726 22.2969Z" fill="url(#paint11_radial_12730_7727)"/>
<path d="M201.275 58.7028C199.365 57.3152 197.685 55.635 196.297 53.7249L214.5 40.5L201.275 58.7028Z" fill="url(#paint12_radial_12730_7727)"/>
<path d="M192 40.5002C192 38.1393 192.372 35.7923 193.101 33.5469L214.5 40.5002H192Z" fill="url(#paint13_radial_12730_7727)"/>
<path d="M232.704 53.724C231.316 55.6341 229.636 57.3142 227.726 58.7019L214.5 40.5L232.704 53.724Z" fill="url(#paint14_radial_12730_7727)"/>
</g>
</g>
<defs>
<linearGradient id="paint0_linear_12730_7727" x1="0" y1="0" x2="255.531" y2="255.425" gradientUnits="userSpaceOnUse">
<stop stop-color="#D3C6FF"/>
<stop offset="1" stop-color="#987FEB"/>
</linearGradient>
<radialGradient id="paint1_radial_12730_7727" cx="0" cy="0" r="1" gradientUnits="userSpaceOnUse" gradientTransform="translate(214.408 39.9235) rotate(-139.19) scale(22.636 22.636)">
<stop stop-color="#A273FF"/>
<stop offset="1" stop-color="#4331E9"/>
</radialGradient>
<radialGradient id="paint2_radial_12730_7727" cx="0" cy="0" r="1" gradientUnits="userSpaceOnUse" gradientTransform="translate(213.644 37.7298) rotate(-98.99) scale(23.0402 23.0402)">
<stop stop-color="#F7A7F9"/>
<stop offset="1" stop-color="#00DDFB"/>
</radialGradient>
<radialGradient id="paint3_radial_12730_7727" cx="0" cy="0" r="1" gradientUnits="userSpaceOnUse" gradientTransform="translate(214.5 40.4991) scale(23.0569 23.0569)">
<stop stop-color="#FFF3D0"/>
<stop offset="1" stop-color="#FFC044"/>
</radialGradient>
<radialGradient id="paint4_radial_12730_7727" cx="0" cy="0" r="1" gradientUnits="userSpaceOnUse" gradientTransform="translate(214.527 40.4514) rotate(-90) scale(23.0169 23.0169)">
<stop stop-color="#A273FF"/>
<stop offset="0.5" stop-color="#9FAEFF"/>
<stop offset="1" stop-color="#AAF2E1"/>
</radialGradient>
<radialGradient id="paint5_radial_12730_7727" cx="0" cy="0" r="1" gradientUnits="userSpaceOnUse" gradientTransform="translate(213.761 40.6529) rotate(35.99) scale(22.9508)">
<stop stop-color="#0075FF"/>
<stop offset="1" stop-color="#00DDFB"/>
</radialGradient>
<radialGradient id="paint6_radial_12730_7727" cx="0" cy="0" r="1" gradientUnits="userSpaceOnUse" gradientTransform="translate(214.479 40.5471) rotate(90) scale(23.0355)">
<stop stop-color="#FFCD6B"/>
<stop offset="1" stop-color="#EB5EDF"/>
</radialGradient>
<radialGradient id="paint7_radial_12730_7727" cx="0" cy="0" r="1" gradientUnits="userSpaceOnUse" gradientTransform="translate(214.213 40.4817) rotate(90) scale(23.083 23.083)">
<stop stop-color="#D4FAFF"/>
<stop offset="1" stop-color="#00DDFB"/>
</radialGradient>
<radialGradient id="paint8_radial_12730_7727" cx="0" cy="0" r="1" gradientUnits="userSpaceOnUse" gradientTransform="translate(215.256 39.6241) rotate(114.17) scale(24.6625 24.6626)">
<stop stop-color="#FFD2B9"/>
<stop offset="0.29" stop-color="#C99BED"/>
<stop offset="1" stop-color="#0075FF"/>
</radialGradient>
<radialGradient id="paint9_radial_12730_7727" cx="0" cy="0" r="1" gradientUnits="userSpaceOnUse" gradientTransform="translate(214.486 40.4323) rotate(180) scale(29.9702 29.9702)">
<stop stop-color="#6D28FF"/>
<stop offset="1" stop-color="#F7A7F9"/>
</radialGradient>
<radialGradient id="paint10_radial_12730_7727" cx="0" cy="0" r="1" gradientUnits="userSpaceOnUse" gradientTransform="translate(214.527 40.4513) rotate(-90) scale(23.0169 23.0169)">
<stop stop-color="#A273FF"/>
<stop offset="0.5" stop-color="#9FAEFF"/>
<stop offset="1" stop-color="#AAF2E1"/>
</radialGradient>
<radialGradient id="paint11_radial_12730_7727" cx="0" cy="0" r="1" gradientUnits="userSpaceOnUse" gradientTransform="translate(214.479 40.5468) rotate(90) scale(23.0355)">
<stop stop-color="#FFCD6B"/>
<stop offset="1" stop-color="#EB5EDF"/>
</radialGradient>
<radialGradient id="paint12_radial_12730_7727" cx="0" cy="0" r="1" gradientUnits="userSpaceOnUse" gradientTransform="translate(214.408 39.9277) rotate(-139.19) scale(22.636)">
<stop stop-color="#A273FF"/>
<stop offset="1" stop-color="#4331E9"/>
</radialGradient>
<radialGradient id="paint13_radial_12730_7727" cx="0" cy="0" r="1" gradientUnits="userSpaceOnUse" gradientTransform="translate(214.475 40.638) rotate(180) scale(23.056)">
<stop stop-color="#FFF3D0"/>
<stop offset="1" stop-color="#FFC044"/>
</radialGradient>
<radialGradient id="paint14_radial_12730_7727" cx="0" cy="0" r="1" gradientUnits="userSpaceOnUse" gradientTransform="translate(214.408 39.9277) rotate(-139.19) scale(22.636)">
<stop stop-color="#A273FF"/>
<stop offset="1" stop-color="#4331E9"/>
</radialGradient>
<clipPath id="clip0_12730_7727">
<rect width="256" height="256" fill="white"/>
</clipPath>
<clipPath id="clip1_12730_7727">
<rect width="45" height="45" fill="white" transform="translate(192 18)"/>
</clipPath>
</defs>
</svg>
