<svg width="256" height="256" viewBox="0 0 256 256" fill="none" xmlns="http://www.w3.org/2000/svg">
<g clip-path="url(#clip0_12507_7624)">
<path d="M255 40.5C255 45.8185 253.952 51.085 251.917 55.9987C249.882 60.9124 246.899 65.377 243.138 69.1378C239.377 72.8986 234.912 75.8818 229.999 77.9171C225.085 79.9524 219.819 81 214.5 81C209.181 81 203.915 79.9524 199.001 77.9171C194.088 75.8818 189.623 72.8986 185.862 69.1378C182.101 65.377 179.118 60.9124 177.083 55.9987C175.048 51.085 174 45.8185 174 40.5C174 29.7587 178.267 19.4574 185.862 11.8622C193.457 4.26696 203.759 4.47571e-07 214.5 0C225.241 -4.06883e-07 235.543 4.26696 243.138 11.8622C250.733 19.4574 255 29.7587 255 40.5Z" fill="white"/>
<g clip-path="url(#clip1_12507_7624)">
<path fill-rule="evenodd" clip-rule="evenodd" d="M214.4 21.2C203.8 21.2 195.2 29.8 195.2 40.4C195.2 51 203.8 59.6 214.4 59.6H225.9C222.5 61.6 218.6 62.8 214.4 62.8C202 62.8 192 52.7 192 40.4C192 28 202 18 214.4 18C226.8 18 236.8 28 236.8 40.4C236.8 41.5 236.7 42.6 236.6 43.6H233.4C233.6 42.6 233.7 41.5 233.7 40.4C233.6 29.8 225 21.2 214.4 21.2Z" fill="#06070A"/>
<path fill-rule="evenodd" clip-rule="evenodd" d="M232.8 53.1984C232 54.2984 231 55.3984 230 56.3984H225H214.4C205.6 56.3984 198.4 49.1984 198.4 40.3984C198.4 31.5984 205.6 24.3984 214.4 24.3984C223.2 24.3984 230.4 31.5984 230.4 40.3984C230.4 41.4984 230.3 42.5984 230.1 43.5984H226.8C227.1 42.5984 227.2 41.4984 227.2 40.3984C227.2 33.2984 221.5 27.5984 214.4 27.5984C207.3 27.5984 201.6 33.2984 201.6 40.3984C201.6 47.4984 207.3 53.1984 214.4 53.1984H224H228.7H232.8Z" fill="#06070A"/>
<path fill-rule="evenodd" clip-rule="evenodd" d="M234.6 49.9969C235.1 48.9969 235.5 47.8969 235.8 46.7969H232.4H229H225.4H221.5H214.3C210.8 46.7969 207.9 43.8969 207.9 40.3969C207.9 36.8969 210.8 33.9969 214.3 33.9969C217.8 33.9969 220.7 36.8969 220.7 40.3969C220.7 41.5969 220.4 42.6969 219.8 43.5969H223.3C223.7 42.5969 223.8 41.4969 223.8 40.3969C223.8 35.0969 219.5 30.7969 214.2 30.7969C208.9 30.7969 204.6 35.0969 204.6 40.3969C204.6 45.6969 208.9 49.9969 214.2 49.9969H222.7H227H231H234.6Z" fill="#06070A"/>
</g>
<path fill-rule="evenodd" clip-rule="evenodd" d="M247.619 83.7826C243.864 86.6557 239.743 89.0343 235.356 90.8514C228.744 93.5903 221.657 95 214.5 95C207.343 95 200.256 93.5903 193.644 90.8514C187.032 88.1125 181.023 84.0981 175.963 79.0373C170.902 73.9765 166.887 67.9685 164.149 61.3562C161.41 54.744 160 47.657 160 40.5C160 28.5491 163.925 17.003 171.062 7.58517C157.289 2.6128 142.635 0 127.712 0C93.841 0 61.3568 13.461 37.4061 37.4216C13.4554 61.3822 6.41266e-06 93.8798 0 127.765C-3.17523e-06 144.544 3.30337 161.158 9.72152 176.659C16.1397 192.16 25.5469 206.245 37.4061 218.109C49.2653 229.973 63.3442 239.384 78.839 245.805C94.3338 252.226 110.941 255.531 127.712 255.531C144.484 255.531 161.091 252.226 176.586 245.805C192.081 239.384 206.16 229.973 218.019 218.109C229.878 206.245 239.285 192.16 245.703 176.659C252.121 161.158 255.425 144.544 255.425 127.765C255.425 112.614 252.735 97.7399 247.619 83.7826Z" fill="url(#paint0_linear_12507_7624)"/>
<g clip-path="url(#clip2_12507_7624)">
<mask id="mask0_12507_7624" style="mask-type:luminance" maskUnits="userSpaceOnUse" x="51" y="51" width="154" height="154">
<path d="M205 51H51V205H205V51Z" fill="white"/>
</mask>
<g mask="url(#mask0_12507_7624)">
<path fill-rule="evenodd" clip-rule="evenodd" d="M170.349 128C170.349 104.611 151.388 85.65 127.999 85.65V70.25C131.986 70.25 135.878 70.6541 139.638 71.4233C165.953 76.8083 185.749 100.092 185.749 128C185.749 159.894 159.894 185.75 127.999 185.75C102.854 185.75 81.4631 169.68 73.5352 147.25H90.2669C97.2766 160.963 111.542 170.35 127.999 170.35C151.388 170.35 170.349 151.389 170.349 128ZM76.9101 101.05C86.5928 119.368 105.838 131.85 127.999 131.85V116.45C109.019 116.45 92.9557 103.964 87.5736 86.7588C83.324 90.9249 79.7156 95.7426 76.9101 101.05ZM94.0878 81.25C97.3826 96.9563 111.314 108.75 127.999 108.75C138.631 108.75 147.249 117.369 147.249 128C147.249 138.632 138.631 147.25 127.999 147.25H99.184C105.4 156.536 115.986 162.65 127.999 162.65C147.136 162.65 162.649 147.137 162.649 128C162.649 108.863 147.136 93.35 127.999 93.35C117.368 93.35 108.749 84.7314 108.749 74.1V73.5362C103.467 75.403 98.5376 78.0166 94.0878 81.25Z" fill="#202232"/>
</g>
</g>
</g>
<defs>
<linearGradient id="paint0_linear_12507_7624" x1="0" y1="0" x2="255.531" y2="255.425" gradientUnits="userSpaceOnUse">
<stop stop-color="#D3C6FF"/>
<stop offset="1" stop-color="#987FEB"/>
</linearGradient>
<clipPath id="clip0_12507_7624">
<rect width="256" height="256" fill="white"/>
</clipPath>
<clipPath id="clip1_12507_7624">
<rect width="44.8" height="44.8" fill="white" transform="translate(192 18)"/>
</clipPath>
<clipPath id="clip2_12507_7624">
<rect width="154" height="154" fill="white" transform="translate(51 51)"/>
</clipPath>
</defs>
</svg>
