<svg width="256" height="257" viewBox="0 0 256 257" fill="none" xmlns="http://www.w3.org/2000/svg">
<g clip-path="url(#clip0_12303_8169)">
<path fill-rule="evenodd" clip-rule="evenodd" d="M247.619 84.3294C243.864 87.2026 239.743 89.5811 235.356 91.3983C228.744 94.1372 221.657 95.5469 214.5 95.5469C207.343 95.5469 200.256 94.1372 193.644 91.3983C187.032 88.6594 181.023 84.645 175.963 79.5842C170.902 74.5234 166.887 68.5154 164.149 61.9031C161.41 55.2909 160 48.2039 160 41.0469C160 29.096 163.925 17.5499 171.062 8.13204C157.289 3.15968 142.635 0.546875 127.712 0.546875C93.841 0.546875 61.3568 14.0079 37.4061 37.9685C13.4554 61.9291 6.41267e-06 94.4267 0 128.312C-3.17522e-06 145.09 3.30337 161.705 9.72152 177.206C16.1397 192.707 25.5469 206.792 37.4061 218.656C49.2653 230.52 63.3442 239.931 78.839 246.352C94.3338 252.773 110.941 256.077 127.712 256.077C144.484 256.077 161.091 252.773 176.586 246.352C192.081 239.931 206.16 230.52 218.019 218.656C229.878 206.792 239.285 192.707 245.703 177.206C252.121 161.705 255.425 145.09 255.425 128.312C255.425 113.161 252.735 98.2868 247.619 84.3294Z" fill="url(#paint0_linear_12303_8169)"/>
<path fill-rule="evenodd" clip-rule="evenodd" d="M247.619 84.3294C243.864 87.2026 239.743 89.5811 235.356 91.3983C228.744 94.1372 221.657 95.5469 214.5 95.5469C207.343 95.5469 200.256 94.1372 193.644 91.3983C187.032 88.6594 181.023 84.645 175.963 79.5842C170.902 74.5234 166.887 68.5154 164.149 61.9031C161.41 55.2909 160 48.2039 160 41.0469C160 29.096 163.925 17.5499 171.062 8.13204C157.289 3.15968 142.635 0.546875 127.712 0.546875C93.841 0.546875 61.3568 14.0079 37.4061 37.9685C13.4554 61.9291 6.41267e-06 94.4267 0 128.312C-3.17522e-06 145.09 3.30337 161.705 9.72152 177.206C16.1397 192.707 25.5469 206.792 37.4061 218.656C49.2653 230.52 63.3442 239.931 78.839 246.352C94.3338 252.773 110.941 256.077 127.712 256.077C144.484 256.077 161.091 252.773 176.586 246.352C192.081 239.931 206.16 230.52 218.019 218.656C229.878 206.792 239.285 192.707 245.703 177.206C252.121 161.705 255.425 145.09 255.425 128.312C255.425 113.161 252.735 98.2868 247.619 84.3294Z" fill="url(#paint1_radial_12303_8169)"/>
<path fill-rule="evenodd" clip-rule="evenodd" d="M247.619 84.3294C243.864 87.2026 239.743 89.5811 235.356 91.3983C228.744 94.1372 221.657 95.5469 214.5 95.5469C207.343 95.5469 200.256 94.1372 193.644 91.3983C187.032 88.6594 181.023 84.645 175.963 79.5842C170.902 74.5234 166.887 68.5154 164.149 61.9031C161.41 55.2909 160 48.2039 160 41.0469C160 29.096 163.925 17.5499 171.062 8.13204C157.289 3.15968 142.635 0.546875 127.712 0.546875C93.841 0.546875 61.3568 14.0079 37.4061 37.9685C13.4554 61.9291 6.41267e-06 94.4267 0 128.312C-3.17522e-06 145.09 3.30337 161.705 9.72152 177.206C16.1397 192.707 25.5469 206.792 37.4061 218.656C49.2653 230.52 63.3442 239.931 78.839 246.352C94.3338 252.773 110.941 256.077 127.712 256.077C144.484 256.077 161.091 252.773 176.586 246.352C192.081 239.931 206.16 230.52 218.019 218.656C229.878 206.792 239.285 192.707 245.703 177.206C252.121 161.705 255.425 145.09 255.425 128.312C255.425 113.161 252.735 98.2868 247.619 84.3294Z" fill="url(#paint2_radial_12303_8169)"/>
<g clip-path="url(#clip1_12303_8169)">
<path fill-rule="evenodd" clip-rule="evenodd" d="M70.0332 116.603V130.955C70.0332 139.118 83.101 145.974 100.607 147.497V126.139C100.607 125.798 100.617 125.461 100.635 125.128C90.905 124.434 82.0673 122.369 75.1303 119.274C73.3314 118.472 71.6202 117.582 70.0332 116.603ZM145.89 86.404V98.7986C135.475 99.1411 125.691 101.161 117.973 104.592C113.737 106.475 109.656 108.99 106.492 112.315C105.77 113.073 105.076 113.897 104.433 114.785C94.4305 114.409 85.6957 112.451 79.423 109.653C75.9166 108.088 73.4095 106.364 71.8497 104.718C70.7664 103.575 70.2457 102.594 70.0332 101.785V86.404C70.0332 77.0941 87.0144 69.5469 107.962 69.5469C128.909 69.5469 145.89 77.0941 145.89 86.404ZM107.961 94.2535C122.588 94.2535 134.445 90.8436 134.445 86.6372C134.445 82.4308 122.588 79.0208 107.961 79.0208C93.3338 79.0208 81.4763 82.4308 81.4763 86.6372C81.4763 90.8436 93.3338 94.2535 107.961 94.2535ZM111.143 170.69V156.338C112.73 157.317 114.441 158.207 116.24 159.009C124.883 162.865 136.477 165.122 149.071 165.122C161.665 165.122 173.258 162.865 181.902 159.009C183.701 158.206 185.413 157.316 187 156.337V170.69C187 179.961 170.143 187.547 149.072 187.547C128 187.547 111.143 179.961 111.143 170.69ZM112.96 144.453C111.876 143.31 111.356 142.329 111.143 141.521V126.139C111.143 116.829 128.124 109.282 149.072 109.282C170.019 109.282 187 116.829 187 126.139V141.515C186.789 142.325 186.268 143.307 185.182 144.453C183.622 146.099 181.115 147.823 177.609 149.388C170.609 152.511 160.543 154.586 149.071 154.586C137.598 154.586 127.533 152.511 120.533 149.388C117.026 147.823 114.519 146.099 112.96 144.453ZM175.555 126.372C175.555 130.579 163.698 133.989 149.071 133.989C134.444 133.989 122.586 130.579 122.586 126.372C122.586 122.166 134.444 118.756 149.071 118.756C163.698 118.756 175.555 122.166 175.555 126.372Z" fill="url(#paint3_linear_12303_8169)"/>
</g>
<circle cx="213.5" cy="41.0469" r="40.5" fill="white"/>
<circle cx="213.5" cy="41.0469" r="40.5" fill="url(#paint4_radial_12303_8169)"/>
<path fill-rule="evenodd" clip-rule="evenodd" d="M195.092 54.0177C194.613 54.8383 195.202 55.8706 196.15 55.8732L203.48 55.8929L222.871 41.8569L211.582 55.925L213.68 55.9278L220.948 55.9496L224.467 44.8611L225.79 55.9677L231.209 55.9814C232.157 55.9838 232.752 54.9546 232.277 54.1316L223.565 39.0289L214.842 23.9048C214.37 23.0862 213.192 23.0832 212.716 23.8994L209.903 28.7189L218.967 35.4247L207.456 32.8866L203.898 38.9685L202.736 40.9697L220.796 38.2965L198.6 48.0093L195.092 54.0177ZM226.096 36.9784C226.573 37.084 226.852 37.5805 226.696 38.0437L225.332 42.0922L221.838 36.0339L226.096 36.9784Z" fill="#35354A"/>
</g>
<defs>
<linearGradient id="paint0_linear_12303_8169" x1="0" y1="0.546875" x2="255.531" y2="255.972" gradientUnits="userSpaceOnUse">
<stop offset="0.146906" stop-color="#49FCFF"/>
<stop offset="0.340907" stop-color="#86A4D8"/>
<stop offset="0.651042" stop-color="#D88687"/>
<stop offset="0.851314" stop-color="#FF494C"/>
</linearGradient>
<radialGradient id="paint1_radial_12303_8169" cx="0" cy="0" r="1" gradientUnits="userSpaceOnUse" gradientTransform="translate(127.712 128.312) rotate(90) scale(240.235 240.135)">
<stop stop-color="#23222E"/>
<stop offset="1" stop-color="#23222E" stop-opacity="0"/>
</radialGradient>
<radialGradient id="paint2_radial_12303_8169" cx="0" cy="0" r="1" gradientUnits="userSpaceOnUse" gradientTransform="translate(127.712 128.312) rotate(90) scale(127.765 127.712)">
<stop stop-color="#23222E"/>
<stop offset="1" stop-color="#23222E" stop-opacity="0"/>
</radialGradient>
<linearGradient id="paint3_linear_12303_8169" x1="70.0332" y1="69.5469" x2="188.029" y2="186.509" gradientUnits="userSpaceOnUse">
<stop offset="0.146906" stop-color="#49FCFF"/>
<stop offset="0.340907" stop-color="#86A4D8"/>
<stop offset="0.651042" stop-color="#D88687"/>
<stop offset="0.851314" stop-color="#FF494C"/>
</linearGradient>
<radialGradient id="paint4_radial_12303_8169" cx="0" cy="0" r="1" gradientUnits="userSpaceOnUse" gradientTransform="translate(184.901 69.1127) rotate(-45.9276) scale(81.4652)">
<stop stop-color="#BDBFFF"/>
<stop offset="1" stop-color="#CCF4ED"/>
</radialGradient>
<clipPath id="clip0_12303_8169">
<rect width="256" height="256" fill="white" transform="translate(0 0.546875)"/>
</clipPath>
<clipPath id="clip1_12303_8169">
<rect width="118" height="118" fill="white" transform="translate(69 69.5469)"/>
</clipPath>
</defs>
</svg>
