<svg width="124" height="124" viewBox="0 0 124 124" fill="none" xmlns="http://www.w3.org/2000/svg">
<g clip-path="url(#clip0_9267_28058)">
<path d="M123.993 62.1636C123.993 70.2906 122.393 78.3381 119.284 85.8465C116.175 93.3549 111.619 100.177 105.874 105.924C100.13 111.671 93.3105 116.229 85.8052 119.339C78.3 122.449 70.2558 124.05 62.1322 124.05C54.0085 124.05 45.9644 122.449 38.4591 119.339C30.9538 116.229 24.1344 111.671 18.3901 105.924C12.6458 100.177 8.08914 93.3549 4.98035 85.8465C1.87156 78.3381 0.271483 70.2906 0.271484 62.1636C0.271487 45.7504 6.78894 30.0094 18.3901 18.4034C29.9912 6.79751 45.7257 0.277344 62.1322 0.277344C78.5387 0.277343 94.2732 6.79751 105.874 18.4034C117.475 30.0094 123.993 45.7504 123.993 62.1636Z" fill="url(#paint0_linear_9267_28058)"/>
<path d="M43.8202 47.2932C44.1202 46.9212 44.4322 46.5612 44.7442 46.2012C44.7562 46.1892 44.7922 46.1772 44.8042 46.1652C44.8282 46.1292 44.8762 46.1052 44.9122 46.0692L44.9362 46.0332C45.1522 45.8292 45.3922 45.6132 45.6562 45.4092C46.6162 44.6892 47.6002 44.1372 48.6442 43.7652C52.0042 42.5892 55.7362 43.3092 58.6642 46.0812C62.7562 49.9092 62.3842 56.0892 59.1202 60.1932C54.9922 66.3132 47.9122 74.8451 57.7162 82.4892C59.4802 83.8692 60.7882 84.9972 66.3442 86.6052C62.7082 87.2772 59.3362 87.0612 55.5922 86.1132C52.9402 84.6132 48.7642 81.4091 47.3482 77.0771C45.2002 70.5131 51.1282 60.6852 53.9842 56.9052C57.9082 51.6732 51.5602 46.0092 46.8682 52.3332C44.4442 55.6332 40.1602 64.9572 41.6482 71.8812C42.5122 75.8052 43.6762 78.6612 48.2722 82.5971C47.4202 82.0932 46.5922 81.5292 45.7882 80.8812C35.1202 70.9332 36.3562 55.5492 43.8202 47.2932Z" fill="#202232"/>
<path d="M80.1802 78.7065C79.8802 79.0785 79.5682 79.4385 79.2562 79.7985C79.2442 79.8105 79.2082 79.8225 79.1962 79.8345C79.1722 79.8705 79.1242 79.8945 79.0882 79.9305L79.0642 79.9665C78.8482 80.1705 78.6082 80.3865 78.3442 80.5785C77.3842 81.2985 76.4002 81.8505 75.3562 82.2225C71.9962 83.3985 68.2642 82.6785 65.3362 79.9065C61.2442 76.0785 61.6162 69.8985 64.8802 65.7945C69.0082 59.6745 76.0882 51.1425 66.2842 43.4985C64.5202 42.1185 63.2122 40.9905 57.6562 39.3825C61.2922 38.7105 64.6642 38.9265 68.4082 39.8745C71.0602 41.3745 75.2362 44.5785 76.6522 48.9105C78.8002 55.4745 72.8722 65.3025 70.0162 69.0825C66.0922 74.3145 72.4402 79.9785 77.1322 73.6545C79.5802 70.3545 83.8642 61.0305 82.3762 54.1065C81.5122 50.1825 80.3482 47.3265 75.7522 43.3905C76.6042 43.8945 77.4322 44.4585 78.2362 45.1065C88.8802 55.0665 87.6442 70.4505 80.1802 78.7065Z" fill="#202232"/>
</g>
<defs>
<linearGradient id="paint0_linear_9267_28058" x1="0.271484" y1="0.277344" x2="124.044" y2="123.999" gradientUnits="userSpaceOnUse">
<stop stop-color="#CCF4ED"/>
<stop offset="1" stop-color="#6ECCBB"/>
</linearGradient>
<clipPath id="clip0_9267_28058">
<rect width="124" height="124" fill="white"/>
</clipPath>
</defs>
</svg>
