<svg width="124" height="124" viewBox="0 0 124 124" fill="none" xmlns="http://www.w3.org/2000/svg">
<circle cx="62" cy="62" r="62" fill="url(#paint0_linear_9267_27634)"/>
<g clip-path="url(#clip0_9267_27634)">
<path d="M61.5977 89.1228C62.0004 88.9951 62.4023 89.0065 62.805 89.1228H61.5977Z" fill="#EE7139"/>
<path d="M67.334 71.8398C67.334 71.8398 67.3296 71.8428 67.3281 71.8457L67.3354 71.8398H67.334Z" fill="#EE7139"/>
<path d="M86.0436 60.262C84.2831 59.1257 82.3753 58.3694 80.3104 57.9954C79.9031 57.9213 79.4883 58.0483 79.0954 57.8903C78.9466 57.873 78.7872 57.9319 78.6497 57.8306C78.0951 57.8027 77.5413 57.7929 76.9874 57.839C76.8424 57.9289 76.6844 57.8828 76.5303 57.8835C75.4076 57.9349 74.3233 58.1888 73.2655 58.5484C72.0385 58.9655 70.8878 59.5495 69.7544 60.1782C68.7193 60.7516 67.6071 61.1196 66.4277 61.31C64.8441 61.5654 63.3163 61.4075 61.8211 60.8521C61.775 60.8348 61.7228 60.8355 61.6737 60.8272C61.8165 60.9806 61.9865 61.069 62.1664 61.1324C61.9858 61.069 61.8158 60.9798 61.6737 60.8272C61.4297 60.6995 61.1864 60.5703 60.9408 60.4456C59.9102 59.9205 59.0444 59.2027 58.3719 58.2568C58.2072 58.2621 58.2049 58.151 58.2125 58.0331C58.0508 58.0316 58.0523 57.9213 58.0621 57.8065L58.0637 57.8042C57.8838 57.4801 57.7033 57.1552 57.5234 56.831C57.5 56.7993 57.4766 56.7676 57.4532 56.7358C57.4569 56.7162 57.4554 56.6981 57.4479 56.6799C57.4252 56.6452 57.4018 56.6104 57.3791 56.5749C57.3882 56.5613 57.3889 56.5477 57.3814 56.5334C57.16 56.4986 57.2416 56.3278 57.2303 56.1979C57.2393 56.1843 57.2401 56.1707 57.2318 56.1563C57.1351 56.1382 57.0323 56.1231 57.1547 55.9977C57.1547 55.5557 56.9212 55.165 56.8865 54.7276C56.8298 54.0136 56.7664 53.2852 56.8888 52.5916C57.0331 51.7726 57.2998 50.9694 57.6776 50.2116C58.2699 49.0238 59.1275 48.0514 60.1694 47.2656C61.0224 46.6219 62.0032 46.1686 62.9612 45.688C65.0163 44.6559 67.0397 43.5664 68.6763 41.8989C68.8493 41.7017 69.02 41.5015 69.1953 41.3065C70.2622 40.1226 70.7306 38.715 70.7563 37.1411C70.8598 36.4642 70.6339 35.8159 70.5833 35.1517C70.5735 35.0188 70.5659 34.8971 70.3967 34.8775C70.2539 34.8609 70.1836 34.9289 70.1035 35.0505C69.7952 35.5174 69.5316 36.0154 69.1349 36.4218C68.1187 37.4623 66.8682 38.1234 65.5392 38.6553C63.9699 39.2832 62.3371 39.7116 60.7195 40.1913C58.387 40.8842 56.1052 41.7229 53.8801 42.7142C50.9644 44.013 48.2844 45.6669 45.9958 47.9117C42.9449 50.9029 40.8278 54.4548 39.6612 58.5635C39.0318 60.7819 38.6971 63.0463 38.7568 65.3598C38.7598 65.4867 38.7621 65.6129 38.7651 65.7399C38.8316 65.8079 38.8331 65.8789 38.775 65.9522C38.809 67.4391 38.9638 68.9117 39.3061 70.3616C39.5532 71.4066 39.7972 72.4523 40.2506 73.4337C40.2725 73.4995 40.2951 73.5652 40.3171 73.6309C40.5883 74.1039 40.8444 74.5867 41.1361 75.0476C41.4534 75.5501 41.8032 76.0321 42.1387 76.5225L42.1342 76.5194C42.1614 76.5459 42.1893 76.5716 42.2165 76.598C42.9464 77.2773 43.6158 78.0268 44.4689 78.5655C44.5013 78.5534 44.5301 78.5368 44.555 78.5187C44.5301 78.5375 44.5013 78.5534 44.4689 78.5655C45.3642 79.1888 46.32 79.6943 47.3475 80.0623C47.816 80.0857 48.2119 80.3464 48.6554 80.4635C50.2043 80.8715 51.7797 80.8805 53.355 80.8163C54.4883 80.7702 55.599 80.5209 56.6946 80.2224C57.6859 79.8892 58.6855 79.581 59.6473 79.1631C60.8887 78.6229 62.0946 78.023 63.178 77.1994C64.835 75.8372 65.9729 74.0692 67.0533 72.2551C67.0911 72.1916 67.1395 72.1342 67.1825 72.0737C67.1991 71.977 67.246 71.8992 67.3276 71.844C67.3714 71.6982 67.4303 71.5607 67.5565 71.464L67.5535 71.4662C67.6019 71.3438 67.6079 71.1905 67.7817 71.1625H67.7809C67.7454 70.855 67.9638 70.648 68.1043 70.4251C69.4046 68.3639 70.9603 66.5324 72.9784 65.1347C73.4801 64.7871 73.975 64.4169 74.5621 64.2106L74.5659 64.2083C74.6142 64.1834 74.6633 64.1585 74.7117 64.1335H74.7147C74.7449 64.1139 74.7751 64.0958 74.8054 64.0769C75.8397 63.4475 76.9889 63.1279 78.154 62.871C80.4449 62.3655 82.7599 62.3791 85.081 62.6149C85.5419 62.6617 86.0058 62.6851 86.4591 62.7901C87.127 62.8453 87.7814 62.9866 88.4357 63.1241C88.6276 63.1642 88.7719 63.143 88.9102 63.0168V62.7153C88.0027 61.8412 87.0915 60.973 86.0451 60.2613L86.0436 60.262ZM44.5709 78.5035C44.5769 78.4983 44.5829 78.4937 44.5882 78.4884C44.5829 78.4937 44.5761 78.4983 44.5709 78.5035ZM44.725 78.2769C44.7348 78.2565 44.7454 78.2353 44.7552 78.2149C44.7446 78.2353 44.7348 78.2557 44.725 78.2769Z" fill="#202232" fill-opacity="0.7"/>
<path d="M38.7637 65.7383C38.8302 65.8063 38.8317 65.8773 38.7735 65.9506C38.7705 65.8796 38.7667 65.8085 38.7637 65.7383Z" fill="#F9B13E"/>
<path d="M76.5374 57.8846C76.6832 57.8022 76.8389 57.8234 76.9945 57.84C77.5484 57.7939 78.1029 57.8037 78.6568 57.8317C78.8086 57.8302 78.9665 57.7811 79.1025 57.8914C79.4954 58.0501 79.9102 57.9231 80.3175 57.9964C82.3832 58.3704 84.2902 59.1267 86.0507 60.2631C86.0386 60.1513 86.0363 60.0379 86.0129 59.9284C85.4795 57.4683 84.5834 55.1472 83.2982 52.9825C80.6258 48.4794 76.891 45.1761 72.0879 43.0809C70.9818 42.5981 69.8333 42.2468 68.6819 41.8984C67.0446 43.566 65.0219 44.6555 62.9668 45.6876C62.0087 46.1689 61.028 46.6214 60.175 47.2652C59.1331 48.051 58.2755 49.0234 57.6832 50.2111C57.3054 50.9689 57.0387 51.7721 56.8944 52.5911C56.772 53.2855 56.8354 54.0138 56.8921 54.7271C56.9268 55.1646 57.1596 55.5559 57.1603 55.9972C57.2245 56.0312 57.2389 56.0901 57.2374 56.1559C57.2457 56.1702 57.2449 56.1838 57.2359 56.1967C57.3182 56.2941 57.3749 56.4029 57.387 56.5321C57.3945 56.5465 57.3938 56.5601 57.3847 56.5737L57.4535 56.6787C57.461 56.6968 57.4633 56.7157 57.4588 56.7346C57.4822 56.7664 57.5056 56.7981 57.529 56.8298C57.7089 57.154 57.8894 57.4789 58.0693 57.803L58.0677 57.8053C58.1516 57.8581 58.2 57.9352 58.2181 58.0312C58.305 58.0818 58.3549 58.1589 58.3775 58.2556C59.05 59.2015 59.9158 59.9193 60.9464 60.4444C61.192 60.5698 61.4353 60.699 61.6793 60.826C61.7284 60.8335 61.7813 60.8335 61.8267 60.8509C63.3227 61.4063 64.8497 61.5642 66.4333 61.3088C67.6127 61.1184 68.7257 60.7512 69.76 60.177C70.8934 59.5483 72.0441 58.9643 73.2711 58.5472C74.3289 58.1876 75.4131 57.9337 76.5359 57.8823L76.5374 57.8846Z" fill="#202232" fill-opacity="0.3"/>
<path d="M73.3834 77.8072C73.3834 77.8072 73.3834 77.8029 73.3834 77.8008C73.3812 77.8008 73.3791 77.8008 73.377 77.8008L73.3834 77.8072Z" fill="#F5E25D"/>
<path d="M73.2319 77.6597C73.2319 77.6597 73.2319 77.6553 73.2319 77.6523C73.229 77.6523 73.2275 77.6523 73.2246 77.6523L73.2319 77.6597Z" fill="#F5E25D"/>
<path d="M73.314 77.7339C73.314 77.7339 73.314 77.7295 73.314 77.7266C73.311 77.7266 73.3096 77.7266 73.3066 77.7266L73.314 77.7339Z" fill="#F5E25D"/>
<path d="M73.1616 77.5815C73.1616 77.5815 73.1616 77.5771 73.1616 77.5742C73.1587 77.5742 73.1572 77.5742 73.1543 77.5742L73.1616 77.5815Z" fill="#F5E25D"/>
<path d="M86.4586 62.7937C86.0053 62.6887 85.5414 62.6653 85.0805 62.6184C82.7594 62.3827 80.4444 62.3691 78.1535 62.8746C76.9892 63.1315 75.8392 63.4511 74.8049 64.0804C74.7746 64.0986 74.7444 64.1175 74.715 64.1356H74.7119C74.6885 64.2104 74.6334 64.2225 74.5661 64.2112L74.5623 64.2127C74.4936 64.4227 74.2918 64.496 74.1392 64.6184C72.823 65.6694 71.8325 66.9561 71.2741 68.5579C71.2507 68.6259 71.2107 68.6886 71.1782 68.7536C71.1631 68.873 71.1321 68.9855 71.0308 69.0641L71.0278 69.2077C71.0036 69.2356 70.9787 69.2628 70.9545 69.2908V69.5076C70.9553 69.5711 70.944 69.6285 70.8835 69.664C70.8805 69.7131 70.8775 69.7623 70.8744 69.8114C70.7694 70.5896 70.7211 71.3739 70.7347 72.1574C70.7452 72.7392 70.9296 73.2983 71.0497 73.8657C71.4396 75.1305 72.072 76.2623 72.916 77.2786C72.9696 77.3126 73.018 77.3504 72.9983 77.4244C73.0535 77.4191 73.0754 77.4471 73.0724 77.5C73.126 77.4962 73.151 77.5219 73.1479 77.5755C73.2016 77.5717 73.2265 77.5974 73.2235 77.6511C73.2771 77.6473 73.3006 77.6745 73.299 77.7266C73.3504 77.7251 73.3761 77.7493 73.3746 77.8007C73.4441 77.7878 73.4826 77.8316 73.5151 77.8838C73.5937 77.9525 73.6715 78.0213 73.7501 78.0893C73.8506 78.1709 73.9518 78.2532 74.0523 78.3348C74.0765 78.3537 74.1014 78.3734 74.1256 78.393C74.1891 78.4331 74.2541 78.4708 74.3153 78.5132C76.5004 80.0341 78.8917 80.4587 81.475 79.8626C82.7284 78.2041 83.8119 76.4459 84.6272 74.5283C86.2244 70.7702 86.8326 66.8586 86.4586 62.793V62.7937Z" fill="#202232" fill-opacity="0.4"/>
<path d="M73.0124 77.4362C73.0124 77.4362 73.0124 77.4293 73.0141 77.4258C73.0089 77.4258 73.0072 77.4258 73.002 77.4258L73.0124 77.4362Z" fill="#F5E25D"/>
<path d="M73.0796 77.5073C73.0796 77.5073 73.0796 77.5029 73.0796 77.5C73.0767 77.5 73.0752 77.5 73.0723 77.5L73.0796 77.5073Z" fill="#F5E25D"/>
<path d="M83.3346 79.3924C83.2001 79.2171 83.0414 79.3161 82.8933 79.3811C82.4332 79.5828 81.967 79.7664 81.4706 79.8609C78.8866 80.457 76.496 80.0324 74.3109 78.5114C74.2497 78.4684 74.1847 78.4313 74.1212 78.3913C74.0971 78.3717 74.0721 78.3528 74.048 78.3331C73.8742 78.3414 73.7412 78.2991 73.7457 78.0876C73.6672 78.0188 73.5893 77.95 73.5108 77.882C73.4496 77.8768 73.3921 77.8654 73.3657 77.7997L73.3702 77.8042C73.3438 77.7778 73.3173 77.7513 73.2909 77.7249L73.2947 77.7287C73.2682 77.7022 73.2418 77.6758 73.2153 77.6493L73.2191 77.6531C73.1927 77.6267 73.1662 77.6002 73.1398 77.5738L73.1436 77.5776C73.1171 77.5511 73.0907 77.5247 73.0642 77.4982L73.068 77.502C73.0416 77.4756 73.0151 77.4491 72.9887 77.4227L72.9932 77.4272C72.926 77.3992 72.9146 77.3403 72.9116 77.2768C72.0676 76.2606 71.4352 75.1288 71.0454 73.864C71.0295 73.9229 71.0053 73.9705 70.9766 74.0106C71.0061 73.9705 71.0295 73.9229 71.0454 73.864C70.926 73.2973 70.7409 72.7374 70.7303 72.1557C70.7167 71.3721 70.765 70.5879 70.8701 69.8096C70.8731 69.7605 70.8761 69.7114 70.8791 69.6623C70.759 69.5452 70.8459 69.5218 70.9502 69.5059V69.2891C70.9743 69.2611 70.9993 69.2339 71.0235 69.2059C71.0242 69.1583 71.025 69.11 71.0265 69.0624C71.0408 68.9423 70.9683 68.7813 71.1738 68.7519C71.2063 68.6869 71.2463 68.6242 71.2698 68.5562C71.8274 66.9536 72.8187 65.6677 74.1348 64.6167C74.2875 64.495 74.4892 64.4217 74.558 64.2109C73.9709 64.4164 73.4752 64.7874 72.9743 65.135C70.9562 66.5328 69.4005 68.3643 68.1002 70.4254C67.9597 70.6483 67.7413 70.8553 67.7768 71.1629C67.7572 71.3057 67.7375 71.4485 67.5516 71.4658C67.5464 71.6343 67.5464 71.8058 67.3257 71.8436C67.3136 71.9441 67.3809 72.0945 67.1776 72.0733C67.1346 72.1337 67.0862 72.1912 67.0484 72.2546C65.968 74.0687 64.8301 75.8367 63.1739 77.199C62.0905 78.0218 60.8846 78.6225 59.6432 79.162C58.6814 79.5805 57.6818 79.8881 56.6905 80.2213C55.5949 80.5197 54.4842 80.769 53.3509 80.8151C51.7755 80.8794 50.1994 80.8703 48.6513 80.4623C48.2078 80.3452 47.8119 80.0853 47.3434 80.0611C46.3159 79.6939 45.3593 79.1877 44.4647 78.5643C43.6117 78.0256 42.9423 77.2768 42.2124 76.5968C42.186 76.5712 42.1595 76.5462 42.1331 76.5205H42.1354C41.7999 76.0302 41.4501 75.5481 41.1327 75.0457C40.8418 74.5848 40.5857 74.102 40.3145 73.6298C40.6492 74.7064 41.1448 75.7091 41.7107 76.6792C42.6454 78.3943 43.7825 79.9614 45.141 81.3659C46.022 82.3202 46.9687 83.2027 48.0189 83.9696C48.9346 84.7335 49.9426 85.3629 50.9731 85.9545C51.8843 86.4773 52.8092 86.9775 53.8095 87.3182C53.8526 87.3424 53.8926 87.3719 53.938 87.3908C55.9644 88.2166 58.0663 88.7432 60.2416 88.9865C60.5166 89.0175 60.8121 88.9631 61.0674 89.1225H61.5956C61.9983 88.9948 62.4002 89.0062 62.803 89.1225H64.6133C64.8452 88.9767 65.1157 89.0251 65.3643 88.9986C67.3454 88.7886 69.2774 88.3639 71.1564 87.7081C74.261 86.6246 77.1163 85.0961 79.6882 83.0236C80.9266 82.0263 82.1234 80.9957 83.2167 79.8442C83.3383 79.7158 83.4834 79.5828 83.3361 79.3909L83.3346 79.3924ZM74.1212 78.624C74.1084 78.6437 74.091 78.6625 74.0661 78.6807C74.0903 78.6625 74.1084 78.6437 74.1212 78.624C74.1379 78.5976 74.1454 78.5681 74.1454 78.5356C74.1454 78.5681 74.1379 78.5976 74.1212 78.624Z" fill="#202232"/>
<path d="M67.3145 71.8476C67.3145 71.8476 67.3222 71.8476 67.3248 71.8476V71.8398L67.3145 71.8502V71.8476Z" fill="#F9B13E"/>
<path d="M67.5508 71.47C67.5508 71.47 67.5585 71.47 67.5611 71.47V71.4648L67.5508 71.4726V71.47Z" fill="#F9B13E"/>
<path d="M67.5571 71.4648C67.5518 71.6348 67.5533 71.8079 67.3281 71.8449C67.3719 71.6983 67.4309 71.5608 67.5571 71.4648Z" fill="#F9B13E"/>
<path d="M67.777 71.1641C67.7574 71.3076 67.7377 71.4519 67.5488 71.467C67.5972 71.3446 67.6032 71.1913 67.777 71.1641Z" fill="#F9B13E"/>
<path d="M78.6484 57.8286C78.8003 57.8271 78.9582 57.778 79.0942 57.8883C78.9454 57.8709 78.7859 57.9298 78.6484 57.8286Z" fill="#EE7139"/>
<path d="M76.5312 57.8842C76.6771 57.8018 76.8327 57.823 76.9884 57.8396C76.8433 57.9295 76.6854 57.8842 76.5312 57.8842Z" fill="#EE7139"/>
<path d="M67.3375 71.8398C67.3239 71.9396 67.3942 72.0937 67.1895 72.0718C67.2068 71.9736 67.2537 71.895 67.3375 71.8398Z" fill="#F9B13E"/>
<path d="M74.7122 64.1328C74.6888 64.2069 74.6337 64.2189 74.5664 64.2076C74.6148 64.1827 74.6639 64.1577 74.7122 64.1328Z" fill="#F9B13E"/>
<path d="M74.8087 64.0781C74.7784 64.0963 74.7482 64.1151 74.7188 64.1333C74.749 64.1151 74.7792 64.0963 74.8087 64.0781Z" fill="#F9B13E"/>
<path d="M57.3814 56.5308C57.16 56.496 57.2416 56.3253 57.2303 56.1953C57.3126 56.2928 57.3693 56.4016 57.3814 56.5308Z" fill="#EE7139"/>
<path d="M58.3687 58.2549C58.204 58.2602 58.2017 58.1491 58.2093 58.0312C58.2962 58.0819 58.346 58.1582 58.3687 58.2549Z" fill="#F3913D"/>
<path d="M58.2087 58.0306C58.047 58.0298 58.0485 57.9195 58.0583 57.8047C58.1422 57.8576 58.1906 57.9346 58.2087 58.0306Z" fill="#F3913D"/>
<path d="M57.2346 56.1548C57.1379 56.1366 57.0351 56.1215 57.1575 55.9961C57.2217 56.0301 57.2361 56.089 57.2346 56.1548Z" fill="#EE7139"/>
<path d="M57.5312 56.8296C57.5078 56.7978 57.4844 56.7661 57.4609 56.7344C57.4844 56.7661 57.5078 56.7978 57.5312 56.8296Z" fill="#EE7139"/>
<path d="M57.4457 56.6792C57.423 56.6445 57.3996 56.6097 57.377 56.5742C57.3996 56.609 57.423 56.6437 57.4457 56.6792Z" fill="#EE7139"/>
<path d="M42.223 76.5981C42.1958 76.5717 42.1686 76.546 42.1406 76.5195C42.1678 76.546 42.1958 76.5717 42.223 76.5981Z" fill="#F5E25D"/>
<path d="M73.7501 78.0898C73.8506 78.1714 73.9518 78.2538 74.0523 78.3354C73.8786 78.3437 73.7456 78.3014 73.7501 78.0898Z" fill="#E84132"/>
<path d="M72.9199 77.2773C72.9751 77.3121 73.0242 77.3506 73.0015 77.4277C72.9343 77.3997 72.9229 77.3408 72.9199 77.2773Z" fill="#E84132"/>
<path d="M73.375 77.7999C73.4475 77.7847 73.4861 77.8293 73.5201 77.8822C73.4589 77.8769 73.4014 77.8656 73.375 77.7999Z" fill="#E84132"/>
<path d="M72.9883 77.4233C73.0495 77.4149 73.0721 77.4444 73.0676 77.5026C73.0412 77.4761 73.0147 77.4497 72.9883 77.4233Z" fill="#E84132"/>
<path d="M73.0703 77.4968C73.1285 77.4915 73.1549 77.5179 73.1496 77.5761C73.1232 77.5496 73.0968 77.5232 73.0703 77.4968Z" fill="#E84132"/>
<path d="M73.1406 77.5749C73.1988 77.5696 73.2252 77.596 73.22 77.6542C73.1935 77.6278 73.1671 77.6013 73.1406 77.5749Z" fill="#E84132"/>
<path d="M73.2227 77.6491C73.2808 77.6438 73.305 77.6725 73.302 77.7284C73.2755 77.7019 73.2491 77.6755 73.2227 77.6491Z" fill="#E84132"/>
<path d="M73.293 77.7268C73.3489 77.7238 73.3768 77.7487 73.3723 77.8061C73.3459 77.7797 73.3194 77.7533 73.293 77.7268Z" fill="#E84132"/>
<path d="M71.0384 69.0605C71.0527 68.9404 70.9802 68.7795 71.1857 68.75C71.1706 68.8694 71.1396 68.982 71.0384 69.0605Z" fill="#F3913D"/>
<path d="M70.8883 69.6642C70.7681 69.5471 70.855 69.5237 70.9593 69.5078C70.9601 69.5713 70.9487 69.6287 70.8883 69.6642Z" fill="#F3913D"/>
<path d="M70.9531 69.2901C70.9773 69.2622 71.0022 69.235 71.0264 69.207L70.9531 69.2901Z" fill="#F3913D"/>
</g>
<defs>
<linearGradient id="paint0_linear_9267_27634" x1="0" y1="0" x2="124" y2="124" gradientUnits="userSpaceOnUse">
<stop stop-color="#CCF4ED"/>
<stop offset="1" stop-color="#6ECCBB"/>
</linearGradient>
<clipPath id="clip0_9267_27634">
<rect width="50.1579" height="54.25" fill="white" transform="translate(38.75 34.875)"/>
</clipPath>
</defs>
</svg>
