<svg width="256" height="256" viewBox="0 0 256 256" fill="none" xmlns="http://www.w3.org/2000/svg">
<g clip-path="url(#clip0_12761_7789)">
<path d="M255 40.5C255 45.8185 253.952 51.085 251.917 55.9987C249.882 60.9124 246.899 65.377 243.138 69.1378C239.377 72.8986 234.912 75.8818 229.999 77.9171C225.085 79.9524 219.819 81 214.5 81C209.181 81 203.915 79.9524 199.001 77.9171C194.088 75.8818 189.623 72.8986 185.862 69.1378C182.101 65.377 179.118 60.9124 177.083 55.9987C175.048 51.085 174 45.8185 174 40.5C174 29.7587 178.267 19.4574 185.862 11.8622C193.457 4.26696 203.759 4.47571e-07 214.5 0C225.241 -4.06883e-07 235.543 4.26696 243.138 11.8622C250.733 19.4574 255 29.7587 255 40.5Z" fill="#508DF7"/>
<path fill-rule="evenodd" clip-rule="evenodd" d="M206.187 48.2939V57.3833C206.187 57.849 205.683 58.1395 205.28 57.9055L190.163 49.1189C189.791 48.9025 189.562 48.5048 189.562 48.0745V29.2846C189.562 28.8188 190.067 28.5284 190.47 28.7624L198.018 33.1498V43.334L206.187 48.2939Z" fill="white" fill-opacity="0.45"/>
<path fill-rule="evenodd" clip-rule="evenodd" d="M222.812 48.8147V57.3833C222.812 57.849 223.317 58.1395 223.72 57.9055L238.837 49.1189C239.209 48.9025 239.438 48.5048 239.438 48.0745V29.2846C239.438 28.8188 238.933 28.5284 238.53 28.7624L231.84 32.6512V43.334L222.812 48.8147Z" fill="white" fill-opacity="0.45"/>
<path d="M198.018 24.4486C198.018 23.9849 198.519 23.6941 198.921 23.9242L214.629 32.8999C214.814 33.0062 215.042 33.0062 215.228 32.8999L230.936 23.9242C231.338 23.6941 231.839 23.9849 231.839 24.4486V43.3386L215.242 53.4156C215.049 53.5324 214.808 53.5324 214.615 53.4156L198.018 43.3386V24.4486Z" fill="url(#paint0_linear_12761_7789)"/>
<path fill-rule="evenodd" clip-rule="evenodd" d="M247.619 83.7826C243.864 86.6557 239.743 89.0343 235.356 90.8514C228.744 93.5903 221.657 95 214.5 95C207.343 95 200.256 93.5903 193.644 90.8514C187.032 88.1125 181.023 84.0981 175.963 79.0373C170.902 73.9765 166.887 67.9685 164.149 61.3562C161.41 54.744 160 47.657 160 40.5C160 28.5491 163.925 17.003 171.062 7.58517C157.289 2.6128 142.635 0 127.712 0C93.841 0 61.3568 13.461 37.4061 37.4216C13.4554 61.3822 6.41266e-06 93.8798 0 127.765C-3.17523e-06 144.544 3.30337 161.158 9.72152 176.659C16.1397 192.16 25.5469 206.245 37.4061 218.109C49.2653 229.973 63.3442 239.384 78.839 245.805C94.3338 252.226 110.941 255.531 127.712 255.531C144.484 255.531 161.091 252.226 176.586 245.805C192.081 239.384 206.16 229.973 218.019 218.109C229.878 206.245 239.285 192.16 245.703 176.659C252.121 161.158 255.425 144.544 255.425 127.765C255.425 112.614 252.735 97.7399 247.619 83.7826Z" fill="url(#paint1_linear_12761_7789)"/>
<path d="M166.635 145.026C165.663 141.654 163.914 138.763 161.377 136.393C159.64 134.723 156.967 132.898 153.369 130.966C157.252 130.642 160.515 129.845 163.153 128.52C165.817 127.186 168.006 125.448 169.755 123.319C171.531 121.184 172.778 118.774 173.454 116.064C174.377 112.356 174.129 108.662 172.712 104.993C171.28 101.321 168.754 98.1606 165.09 95.4938C163.683 94.457 161.931 93.5006 159.958 92.5882L163.561 78.1356L149.709 74.6811L146.349 88.1629L137.428 85.9382L140.788 72.4563L126.929 69L123.569 82.4818L102.413 77.2056L99.5916 88.5257L102.787 89.3226C104.944 89.8606 106.376 90.4317 107.027 91.0146C107.684 91.591 108.109 92.2561 108.258 93.011C108.414 93.7519 108.177 95.3422 107.571 97.7728L96.1827 143.46C95.5843 145.861 95.059 147.332 94.5687 147.932C94.0783 148.547 93.4012 148.925 92.5392 149.139C91.6978 149.317 90.1714 149.127 88.0139 148.589L84.8188 147.792L82 159.101L103.156 164.377L99.7936 177.867L113.652 181.323L117.015 167.834L124.902 169.8C125.248 169.887 125.592 169.973 125.928 170.056L122.566 183.546L136.417 187L140.065 172.365C142.524 172.506 144.718 172.435 146.636 172.167C151.894 171.448 156.29 169.587 159.823 166.581C163.383 163.575 165.682 159.885 166.766 155.54C167.664 151.921 167.625 148.417 166.635 145.026ZM129.069 97.8721L138.043 100.11C143.283 101.417 146.863 102.659 148.731 103.831C150.592 104.969 151.889 106.446 152.574 108.231C153.276 110.044 153.348 112.029 152.814 114.172C152.299 116.236 151.271 117.915 149.758 119.228C148.206 120.537 146.222 121.296 143.787 121.502C141.335 121.735 137.768 121.27 133.072 120.098L124.099 117.861L129.069 97.8721ZM141.798 154.849C139.683 156.467 137.437 157.346 134.969 157.404C132.543 157.481 129.58 157.091 126.097 156.223L120.118 154.732C118.132 154.236 116.941 153.816 116.534 153.489C116.123 153.184 115.915 152.716 115.845 152.124C115.817 151.644 116.065 150.156 116.674 147.619L121.094 129.884L131.687 132.526C136.367 133.693 139.679 134.975 141.74 136.413C143.783 137.835 145.188 139.534 145.866 141.508C146.595 143.462 146.67 145.642 146.06 148.091C145.348 150.963 143.931 153.195 141.798 154.849Z" fill="#202232"/>
</g>
<defs>
<linearGradient id="paint0_linear_12761_7789" x1="200.433" y1="46.757" x2="231.839" y2="23.2026" gradientUnits="userSpaceOnUse">
<stop offset="0.16" stop-color="white"/>
<stop offset="0.56" stop-color="white" stop-opacity="0.7"/>
<stop offset="1" stop-color="white"/>
</linearGradient>
<linearGradient id="paint1_linear_12761_7789" x1="0" y1="0" x2="255.531" y2="255.425" gradientUnits="userSpaceOnUse">
<stop stop-color="#CCF4ED"/>
<stop offset="1" stop-color="#6ECCBB"/>
</linearGradient>
<clipPath id="clip0_12761_7789">
<rect width="256" height="256" fill="white"/>
</clipPath>
</defs>
</svg>
