<svg width="257" height="257" viewBox="0 0 257 257" fill="none" xmlns="http://www.w3.org/2000/svg">
<circle cx="128.291" cy="128.32" r="128" fill="url(#paint0_linear_9267_28116)"/>
<path fill-rule="evenodd" clip-rule="evenodd" d="M70.1103 169.309C68.5962 171.903 70.4569 175.165 73.4546 175.173L96.6188 175.236L157.905 130.875L122.227 175.337L128.856 175.346L151.828 175.415L162.95 140.37L167.131 175.472L184.257 175.515C187.255 175.523 189.133 172.27 187.632 169.669L160.099 121.937L132.53 74.1375C131.038 71.5504 127.315 71.5408 125.81 74.1203L116.92 89.3524L145.568 110.546L109.186 102.524L97.9409 121.746L94.2703 128.071L151.346 119.622L81.1968 150.319L70.1103 169.309ZM168.099 115.456C169.604 115.79 170.487 117.359 169.994 118.823L165.685 131.619L154.64 112.471L168.099 115.456Z" fill="#202232"/>
<defs>
<linearGradient id="paint0_linear_9267_28116" x1="0.291016" y1="0.320313" x2="256.291" y2="256.32" gradientUnits="userSpaceOnUse">
<stop stop-color="#CCF4ED"/>
<stop offset="1" stop-color="#6ECCBB"/>
</linearGradient>
</defs>
</svg>
