<?xml version="1.0" encoding="UTF-8"?><svg id="Layer_2" xmlns="http://www.w3.org/2000/svg" xmlns:xlink="http://www.w3.org/1999/xlink" viewBox="0 0 700.96 700.96"><defs><style>.cls-1{fill:url(#linear-gradient);}</style><linearGradient id="linear-gradient" x1="102.65" y1="598.31" x2="598.31" y2="102.65" gradientTransform="matrix(1, 0, 0, 1, 0, 0)" gradientUnits="userSpaceOnUse"><stop offset="0" stop-color="#4c80e9"/><stop offset="1" stop-color="#91d2f5"/></linearGradient></defs><g id="Layer_1-2"><path class="cls-1" d="M350.48,0C156.92,0,0,156.92,0,350.48s156.92,350.48,350.48,350.48,350.48-156.92,350.48-350.48S544.05,0,350.48,0Zm0,508.63c-87.2,0-158.15-70.95-158.15-158.15s70.95-158.15,158.15-158.15,158.15,70.95,158.15,158.15-70.95,158.15-158.15,158.15ZM38.78,350.48C38.78,185.12,168.23,49.49,331.11,39.44v115.06c-99.67,9.74-177.56,93.75-177.56,195.97s77.89,186.24,177.56,195.97v115.06c-162.87-10.05-292.32-145.68-292.32-311.04Zm331.07,311.04v-115.06c99.67-9.74,177.56-93.75,177.56-195.97s-77.89-186.24-177.56-195.97V39.44c162.87,10.05,292.32,145.68,292.32,311.04s-129.45,300.99-292.32,311.04Z"/></g></svg>