<svg width="348" height="348" viewBox="0 0 348 348" fill="none" xmlns="http://www.w3.org/2000/svg">
<g filter="url(#filter0_i_5995_2307)">
<circle cx="174" cy="174" r="174" fill="black"/>
</g>
<g filter="url(#filter1_i_5995_2307)">
<circle cx="174" cy="174" r="151" stroke="#FA7501" stroke-width="10"/>
</g>
<path d="M246.556 134.971C244.676 111.781 224.851 103.7 199.709 101.087L200.182 68.97L180.679 68.6609L180.22 99.9322C175.092 99.8498 169.85 99.8678 164.641 99.8886L165.108 68.4099L145.616 68.0981L145.137 100.206C140.914 100.226 136.765 100.239 132.722 100.176L132.721 100.076L105.822 99.6356L105.52 120.516C105.52 120.516 119.926 120.472 119.683 120.732C127.582 120.86 130.086 125.5 130.777 129.478L130.239 166.067C130.784 166.078 131.494 166.112 132.299 166.237C131.648 166.227 130.955 166.213 130.238 166.208L129.478 217.465C129.096 219.951 127.576 223.903 122.056 223.823C122.303 224.049 107.879 223.594 107.879 223.594L103.659 246.88L129.041 247.285C133.764 247.367 138.41 247.521 142.973 247.622L142.503 280.105L161.985 280.419L162.457 248.279C167.805 248.476 172.98 248.601 178.036 248.677L177.556 280.669L197.06 280.978L197.543 248.552C230.36 247.191 253.43 239.278 256.734 208.458C259.4 183.642 247.901 172.367 229.356 167.589C240.749 161.997 247.969 151.941 246.563 134.972L246.557 134.969L246.556 134.971ZM218.247 203.992C217.9 228.267 176.475 224.843 163.257 224.644L163.896 181.605C177.117 181.821 218.622 178.672 218.248 203.991L218.247 203.992ZM210.07 143.125C209.739 165.209 175.196 162.08 164.186 161.904L164.762 122.871C175.772 123.047 210.408 120.091 210.071 143.124L210.07 143.125Z" fill="#FA7501"/>
<defs>
<filter id="filter0_i_5995_2307" x="0" y="0" width="348" height="348" filterUnits="userSpaceOnUse" color-interpolation-filters="sRGB">
<feFlood flood-opacity="0" result="BackgroundImageFix"/>
<feBlend mode="normal" in="SourceGraphic" in2="BackgroundImageFix" result="shape"/>
<feColorMatrix in="SourceAlpha" type="matrix" values="0 0 0 0 0 0 0 0 0 0 0 0 0 0 0 0 0 0 127 0" result="hardAlpha"/>
<feOffset dy="1"/>
<feComposite in2="hardAlpha" operator="arithmetic" k2="-1" k3="1"/>
<feColorMatrix type="matrix" values="0 0 0 0 1 0 0 0 0 1 0 0 0 0 1 0 0 0 0.25 0"/>
<feBlend mode="normal" in2="shape" result="effect1_innerShadow_5995_2307"/>
</filter>
<filter id="filter1_i_5995_2307" x="18" y="18" width="312" height="312" filterUnits="userSpaceOnUse" color-interpolation-filters="sRGB">
<feFlood flood-opacity="0" result="BackgroundImageFix"/>
<feBlend mode="normal" in="SourceGraphic" in2="BackgroundImageFix" result="shape"/>
<feColorMatrix in="SourceAlpha" type="matrix" values="0 0 0 0 0 0 0 0 0 0 0 0 0 0 0 0 0 0 127 0" result="hardAlpha"/>
<feOffset dy="0.896552"/>
<feComposite in2="hardAlpha" operator="arithmetic" k2="-1" k3="1"/>
<feColorMatrix type="matrix" values="0 0 0 0 1 0 0 0 0 1 0 0 0 0 1 0 0 0 0.25 0"/>
<feBlend mode="normal" in2="shape" result="effect1_innerShadow_5995_2307"/>
</filter>
</defs>
</svg>
