<svg width="175" height="175" viewBox="0 0 175 175" fill="none" xmlns="http://www.w3.org/2000/svg">
<rect width="174.415" height="174.415" rx="87.2077" fill="black"/>
<circle cx="60.2936" cy="87.1667" r="22.3134" transform="rotate(-11.8781 60.2936 87.1667)" fill="url(#paint0_linear_5259_4507)"/>
<path d="M110.45 46.6754C112.732 48.6784 114.98 50.7089 117.017 52.9765C130.791 68.3197 134.504 90.9345 126.304 109.831C120.883 122.322 112.024 131.584 99.725 137.38C88.845 142.51 77.4114 143.775 65.5923 141.309C65.3966 141.268 65.2093 141.206 64.9751 141.027C79.5844 140.031 92.1286 134.533 102.042 123.749C111.964 112.96 116.795 100.108 116.254 85.3982C115.814 73.3982 111.739 62.6753 104.092 53.3805C96.4713 44.108 86.7171 38.1395 75.0851 35.1813C75.2869 34.7496 75.5938 34.882 75.8295 34.8796C81.8653 34.7662 87.7471 35.6654 93.4823 37.5517C96.7007 38.6114 99.7802 39.9728 102.75 41.6001C102.895 41.6785 103.065 41.7128 103.225 41.7703L110.444 46.6765L110.45 46.6754Z" fill="url(#paint1_linear_5259_4507)"/>
<circle cx="87.2071" cy="87.2071" r="74.1265" stroke="#F7771A" stroke-width="4.36038"/>
<defs>
<linearGradient id="paint0_linear_5259_4507" x1="60.2936" y1="64.8533" x2="60.2936" y2="109.48" gradientUnits="userSpaceOnUse">
<stop stop-color="#F7771A"/>
<stop offset="1" stop-color="#E95228"/>
</linearGradient>
<linearGradient id="paint1_linear_5259_4507" x1="108.184" y1="33.6519" x2="57.9768" y2="136.275" gradientUnits="userSpaceOnUse">
<stop stop-color="#F7771A"/>
<stop offset="1" stop-color="#E95228"/>
</linearGradient>
</defs>
</svg>
