<svg width="512" height="512" viewBox="0 0 512 512" fill="none" xmlns="http://www.w3.org/2000/svg">
<rect width="512" height="512" fill="#141521"/>
<path fill-rule="evenodd" clip-rule="evenodd" d="M137.014 342.916C133.973 348.114 137.711 354.653 143.733 354.669L190.269 354.793L313.39 265.887L241.714 354.997L255.032 355.015L301.181 355.153L323.525 284.916L331.926 355.267L366.331 355.354C372.353 355.37 376.125 348.85 373.111 343.637L317.799 247.973L262.412 152.174C259.415 146.989 251.936 146.97 248.912 152.139L231.053 182.667L288.606 225.143L215.515 209.066L192.925 247.591L185.551 260.266L300.214 243.334L159.287 304.857L137.014 342.916ZM333.869 234.985C336.893 235.654 338.667 238.798 337.677 241.733L329.019 267.377L306.831 229.002L333.869 234.985Z" fill="url(#paint0_linear_5054_1804)"/>
<path fill-rule="evenodd" clip-rule="evenodd" d="M137.014 342.916C133.973 348.114 137.711 354.653 143.733 354.669L190.269 354.793L313.39 265.887L241.714 354.997L255.032 355.015L301.181 355.153L323.525 284.916L331.926 355.267L366.331 355.354C372.353 355.37 376.125 348.85 373.111 343.637L317.799 247.973L262.412 152.174C259.415 146.989 251.936 146.97 248.912 152.139L231.053 182.667L288.606 225.143L215.515 209.066L192.925 247.591L185.551 260.266L300.214 243.334L159.287 304.857L137.014 342.916ZM333.869 234.985C336.893 235.654 338.667 238.798 337.677 241.733L329.019 267.377L306.831 229.002L333.869 234.985Z" fill="white" fill-opacity="0.5"/>
<defs>
<linearGradient id="paint0_linear_5054_1804" x1="135.934" y1="204.358" x2="342.22" y2="390.722" gradientUnits="userSpaceOnUse">
<stop stop-color="#BEFFF4"/>
<stop offset="0.536458" stop-color="#E5E6F6"/>
<stop offset="1" stop-color="#C6B4FF"/>
</linearGradient>
</defs>
</svg>
