<svg width="256" height="257" viewBox="0 0 256 257" fill="none" xmlns="http://www.w3.org/2000/svg">
<g clip-path="url(#clip0_9267_28103)">
<path d="M128 256.355C198.934 256.355 256 199.289 256 128.355C256 57.4217 198.934 0.355469 128 0.355469C57.0662 0.355469 0 57.4217 0 128.355C0 199.289 57.0662 256.355 128 256.355Z" fill="url(#paint0_linear_9267_28103)"/>
<path d="M154.842 142.224C154.842 127.533 146.106 122.496 128.634 120.397C116.155 118.718 113.659 115.36 113.659 109.483C113.659 103.606 117.819 99.8291 126.138 99.8291C133.626 99.8291 137.786 102.348 139.866 108.644C140.282 109.903 141.53 110.742 142.778 110.742H149.433C151.098 110.742 152.346 109.483 152.346 107.805V107.385C150.681 98.1497 143.194 91.0142 133.626 90.175V80.1009C133.626 78.4215 132.378 77.1623 130.299 76.7422H124.059C122.395 76.7422 121.147 78.0015 120.73 80.1009V89.7549C108.251 91.4343 100.348 99.829 100.348 110.323C100.348 124.175 108.667 129.631 126.138 131.731C137.786 133.829 141.53 136.348 141.53 143.064C141.53 149.781 135.706 154.398 127.803 154.398C116.986 154.398 113.243 149.78 111.995 143.483C111.579 141.805 110.331 140.965 109.083 140.965H102.011C100.348 140.965 99.0996 142.224 99.0996 143.903V144.323C100.763 154.817 107.419 162.372 121.147 164.472V174.546C121.147 176.224 122.395 177.483 124.474 177.903H130.714C132.378 177.903 133.626 176.644 134.043 174.546V164.472C146.522 162.372 154.842 153.557 154.842 142.224Z" fill="white"/>
<path d="M107.001 186.83C74.8818 175.136 58.4101 138.798 70.3525 106.636C76.5293 89.0936 90.1183 75.7282 107.001 69.463C108.649 68.628 109.472 67.375 109.472 65.2859V59.4387C109.472 57.7677 108.649 56.5147 107.001 56.0977C106.589 56.0977 105.766 56.0977 105.354 56.5147C66.2343 69.045 44.8211 111.231 57.1747 150.91C64.5869 174.3 82.294 192.261 105.354 199.779C107.001 200.614 108.649 199.779 109.06 198.108C109.472 197.691 109.472 197.273 109.472 196.438V190.589C109.472 189.336 108.237 187.666 107.001 186.83ZM150.651 56.5147C149.003 55.6796 147.356 56.5147 146.945 58.1857C146.533 58.6037 146.533 59.0207 146.533 59.8568V65.7039C146.533 67.375 147.768 69.045 149.003 69.8811C181.123 81.5754 197.594 117.913 185.652 150.075C179.475 167.618 165.886 180.983 149.003 187.248C147.356 188.083 146.533 189.336 146.533 191.426V197.273C146.533 198.944 147.356 200.197 149.003 200.614C149.415 200.614 150.239 200.614 150.651 200.197C189.77 187.666 211.183 145.48 198.83 105.801C191.418 81.9934 173.298 64.0329 150.651 56.5147Z" fill="white"/>
</g>
<defs>
<linearGradient id="paint0_linear_9267_28103" x1="-38.1935" y1="-34.7413" x2="250.679" y2="221.811" gradientUnits="userSpaceOnUse">
<stop stop-color="#81B6EF"/>
<stop offset="1" stop-color="#266EBC"/>
</linearGradient>
<clipPath id="clip0_9267_28103">
<rect width="256" height="256" fill="white" transform="translate(0 0.355469)"/>
</clipPath>
</defs>
</svg>
