<svg width="50" height="50" viewBox="0 0 50 50" fill="none" xmlns="http://www.w3.org/2000/svg">
<g clip-path="url(#clip0_2_5)">
<path d="M25 50C38.8071 50 50 38.8071 50 25C50 11.1929 38.8071 0 25 0C11.1929 0 0 11.1929 0 25C0 38.8071 11.1929 50 25 50Z" fill="#EDF0F4"/>
<path d="M23.2769 36.0991C29.4484 36.0991 34.4514 31.0961 34.4514 24.9246C34.4514 18.7531 29.4484 13.7501 23.2769 13.7501C17.1054 13.7501 12.1024 18.7531 12.1024 24.9246C12.1024 31.0961 17.1054 36.0991 23.2769 36.0991Z" fill="#2EB6EA"/>
<path d="M23.2159 36.0991C12.1021 36.0991 7.71581 21.4782 17.5326 15.3166C16.3651 27.5366 22.5755 27.8069 28.3385 27.5366C37.9954 27.0837 38.0018 36.0991 38.0018 36.0991H23.2159Z" fill="#1542CD"/>
<path fill-rule="evenodd" clip-rule="evenodd" d="M33.8393 28.5802C32.1581 32.8891 28.0238 35.9704 23.1529 36.1075C23.2675 36.1107 23.3827 36.1123 23.4986 36.1123H38.1918C38.1918 36.1123 38.1879 30.8282 33.8393 28.5802Z" fill="#745DDF"/>
</g>
<defs>
<clipPath id="clip0_2_5">
<rect width="50" height="50" fill="white"/>
</clipPath>
</defs>
</svg>
