<svg version="1.1" id="Layer_1" xmlns="http://www.w3.org/2000/svg" xmlns:xlink="http://www.w3.org/1999/xlink" x="0px" y="0px"
	 width="100%" viewBox="0 0 160 160" enable-background="new 0 0 160 160" xml:space="preserve">
<path fill="#010101" opacity="1.000000" stroke="none" 
	d="
M98.000000,161.000000 
	C66.500000,161.000000 35.499771,160.947052 4.500388,161.084808 
	C1.516166,161.098068 0.910133,160.482758 0.916903,157.499832 
	C1.032651,106.500099 1.032649,55.499954 0.916913,4.500218 
	C0.910144,1.517411 1.517177,0.910128 4.500158,0.916899 
	C55.499893,1.032654 106.500038,1.032645 157.499771,0.916917 
	C160.482529,0.910148 161.089874,1.517110 161.083115,4.500139 
	C160.967346,55.499874 160.967361,106.500015 161.083069,157.499756 
	C161.089844,160.482452 160.486282,161.112350 157.499329,161.086807 
	C137.834091,160.918610 118.166695,161.000000 98.000000,161.000000 
z"/>
<path fill="#927028" opacity="1.000000" stroke="none" 
	d="
M40.341438,108.239388 
	C39.886131,107.762260 39.591934,107.548157 39.148769,107.102730 
	C38.847652,106.764816 38.695499,106.658234 38.401573,106.311752 
	C37.365368,103.948349 38.692169,102.722443 40.034763,101.406418 
	C44.162594,97.360260 48.232517,93.255035 52.626713,89.025009 
	C54.976185,88.482262 57.028885,88.194145 59.495640,88.665596 
	C61.133110,89.242844 61.835400,90.419815 63.116318,91.493103 
	C64.191040,93.459175 65.157158,95.022049 66.707161,95.879402 
	C66.847382,95.492264 66.476952,95.565964 66.453018,95.378647 
	C68.417648,98.303886 71.130730,100.713417 74.292450,103.136978 
	C75.191673,103.626564 75.633652,104.152687 76.424271,104.779861 
	C76.865852,106.827400 74.966286,107.701538 74.563705,109.645432 
	C71.479172,111.854698 68.168968,111.386292 64.561684,111.401779 
	C63.934898,111.273804 63.689461,111.198944 63.115231,110.923523 
	C62.408012,110.383507 62.104122,109.987358 61.769978,109.187317 
	C61.508472,107.947495 61.553467,107.010010 60.951508,105.875916 
	C59.870449,103.525360 58.682812,101.287018 56.115257,103.046188 
	C53.387192,104.915329 55.560246,106.699905 56.921692,108.298058 
	C57.560757,109.048233 58.233261,109.770058 58.536247,111.127670 
	C58.477440,111.752014 58.396378,111.998718 58.049431,112.540901 
	C57.091751,113.311195 56.280842,113.459061 55.088104,113.803848 
	C51.857128,114.866188 49.039772,115.615364 45.959862,113.353638 
	C45.563366,113.165436 45.177189,112.954247 45.042469,112.780228 
	C44.749928,112.548355 44.592106,112.490509 44.357925,112.192360 
	C44.281570,111.952065 44.099201,111.897865 44.070896,111.807053 
	C43.863216,111.645607 43.683838,111.574974 43.398666,111.235214 
	C42.983440,110.729378 42.674011,110.492661 42.195091,110.015854 
	C41.846279,109.679779 41.666965,109.583801 41.332123,109.225380 
	C41.176598,108.962929 41.040680,108.954788 41.036377,108.886841 
	C40.855560,108.713409 40.679050,108.607910 40.341438,108.239388 
z"/>
<path fill="#5F5F62" opacity="1.000000" stroke="none" 
	d="
M145.875381,75.816269 
	C146.691681,76.417770 147.245834,76.863182 147.916931,77.552673 
	C148.205826,78.104103 148.412796,78.385269 148.861557,78.805740 
	C149.486343,83.648201 144.844528,84.978065 142.731979,87.899315 
	C141.040909,90.237755 138.363632,92.162598 136.502243,94.663033 
	C133.874634,98.192749 130.973907,98.441666 127.887100,95.192978 
	C125.959686,93.164490 124.018997,91.148628 122.024666,88.815849 
	C120.566505,86.082649 121.905159,84.274300 123.577118,82.890114 
	C126.456528,80.506294 126.878922,77.893631 125.315582,74.605194 
	C124.205544,72.270241 124.168556,69.815704 125.791359,67.207657 
	C125.993248,66.916954 125.962646,66.980049 125.932190,66.962685 
	C129.878433,65.326317 130.764206,68.632233 131.813736,70.992149 
	C132.991653,73.640762 134.150742,74.825111 136.892395,72.875931 
	C138.611893,71.653435 140.541931,71.510017 142.731720,72.788124 
	C143.358536,72.990379 143.640427,73.130280 143.936249,73.647316 
	C144.440323,74.571243 144.816498,75.302864 145.875381,75.816269 
z"/>
<path fill="#5F5F61" opacity="1.000000" stroke="none" 
	d="
M24.626266,68.494896 
	C23.769955,66.435539 25.662868,66.195229 26.432377,65.066208 
	C30.462788,62.989281 32.816864,64.537048 34.577053,67.942230 
	C35.588135,69.898216 36.036648,72.328796 38.738518,73.526741 
	C40.583103,77.225685 42.009319,80.720276 43.803101,84.423111 
	C44.673824,85.409912 45.220135,86.168243 44.966873,87.530540 
	C43.487030,89.975609 41.216564,89.872055 38.781898,90.286163 
	C37.472816,90.210213 36.654148,89.758690 36.028667,89.495888 
	C36.385773,89.765472 37.042385,90.061699 37.795074,90.787323 
	C38.407505,91.925552 40.529781,92.260506 39.147800,93.705589 
	C37.498951,95.429726 36.296215,97.979393 33.310101,97.738571 
	C30.781164,97.534607 28.591988,96.655716 26.724792,94.747467 
	C22.336033,90.262222 17.790888,85.930000 13.244017,81.207474 
	C13.815401,77.724037 15.866059,77.470238 18.419014,78.372528 
	C20.784370,79.208504 22.732878,80.818520 24.917952,81.997314 
	C28.106817,83.717621 29.690039,83.295586 28.928421,78.972984 
	C27.339514,75.415909 23.683022,73.120728 24.626266,68.494896 
z"/>
<path fill="#8A6521" opacity="1.000000" stroke="none" 
	d="
M80.141533,147.273438 
	C79.818878,147.124527 79.379280,146.985016 79.192856,146.849274 
	C78.827065,146.633224 78.647705,146.552902 78.340500,146.206970 
	C76.617859,144.404007 75.023064,142.866653 73.239250,141.055389 
	C72.853920,140.678192 72.657600,140.574921 72.223633,140.238770 
	C69.672791,137.712875 67.478134,135.282211 65.016014,133.162170 
	C62.027222,130.588623 62.059498,128.404953 65.602982,126.087341 
	C68.040398,124.417068 70.307549,124.898224 72.933777,125.670212 
	C75.519020,126.521149 74.313194,129.817169 77.034973,130.584198 
	C78.888344,131.757339 79.909645,134.138626 82.390541,132.753281 
	C84.941223,131.328949 85.369041,128.981155 85.173309,125.985931 
	C85.877892,124.436806 86.784203,123.572456 88.426254,123.026611 
	C91.525749,123.391609 94.235855,123.866150 97.041504,125.323845 
	C97.742241,125.827904 98.123848,126.139229 98.761063,126.718681 
	C99.030350,126.970100 99.002281,127.000305 99.013817,126.984901 
	C99.175377,127.137535 99.325409,127.305580 99.693626,127.731659 
	C99.911804,127.989685 99.980469,128.006561 99.971298,128.040710 
	C100.454224,129.554382 99.629555,130.608688 98.570312,131.895096 
	C98.011963,132.431122 97.697235,132.745010 97.158737,133.317078 
	C93.286156,137.227203 89.584259,140.827560 85.998589,144.540695 
	C84.443405,146.151169 82.855095,147.506393 80.141533,147.273438 
z"/>
<path fill="#906D26" opacity="1.000000" stroke="none" 
	d="
M63.770439,110.203033 
	C67.224800,109.489288 70.454147,108.482353 74.065018,109.931824 
	C74.509880,110.442429 74.599983,110.917068 74.667778,111.754257 
	C74.510681,112.741386 74.833328,113.113777 75.617462,113.434235 
	C76.460045,113.498543 77.028969,113.515656 77.787674,113.129196 
	C77.996185,112.928482 77.993248,112.991280 77.965088,112.977310 
	C78.419205,112.572678 79.030991,112.512733 79.806534,112.111046 
	C80.023773,111.905830 80.047890,112.008850 80.177078,111.897537 
	C81.614006,110.837288 82.762512,112.097412 84.024963,112.074509 
	C85.318596,112.051048 86.241623,114.911156 87.950699,112.482193 
	C89.295296,110.571228 90.084846,108.636192 88.273300,106.789459 
	C86.645409,105.129974 87.692284,103.868805 88.692200,102.309021 
	C91.649559,102.718178 94.352249,101.177765 97.351166,102.575760 
	C100.472168,104.647285 101.182747,107.062477 99.526337,110.439117 
	C94.512527,114.543991 91.094536,119.742188 86.044037,123.717896 
	C84.512138,123.959679 83.603401,123.136093 82.218346,122.851524 
	C81.492653,122.772774 81.083366,122.807083 80.392647,123.035004 
	C79.511665,123.310738 78.892067,123.370934 78.048386,123.778107 
	C77.375267,124.085258 76.965904,124.191994 76.226868,124.278992 
	C75.698044,124.284416 75.487396,124.266548 74.972954,124.172958 
	C74.483292,124.012856 74.297424,123.928474 73.633621,123.499390 
	C73.013336,123.030663 72.870987,122.906631 72.334106,122.404831 
	C71.816139,121.901520 71.692711,121.775986 71.202240,121.290482 
	C70.722099,120.807274 70.608986,120.684029 70.140732,120.218338 
	C69.785599,119.875900 69.457054,119.517548 69.109558,119.183716 
	C68.762054,118.849876 68.437096,118.498283 68.092674,118.166588 
	C67.748253,117.834892 67.421394,117.484161 67.073410,117.148239 
	C66.725426,116.812325 66.387848,116.455666 66.029449,116.104248 
	C65.551926,115.628433 65.432800,115.504044 64.948120,114.990440 
	C64.459328,114.464142 64.336098,114.327042 64.042076,113.964645 
	C63.784279,113.568878 63.697266,113.398407 63.533092,112.948868 
	C63.345966,112.293922 63.268734,111.911285 63.251118,111.227783 
	C63.372581,110.755959 63.461723,110.579330 63.770439,110.203033 
z"/>
<path fill="#B89F5F" opacity="1.000000" stroke="none" 
	d="
M107.612137,87.278122 
	C109.537750,87.774269 110.311684,89.062561 111.049988,90.706398 
	C109.664543,93.642662 107.115486,93.048111 104.885742,93.228386 
	C102.907303,93.388336 100.909904,93.287674 98.557343,93.701447 
	C97.675697,93.955299 97.164162,94.024086 96.266960,93.944427 
	C95.176155,93.672768 94.593658,93.216606 93.666458,92.664085 
	C93.155037,92.392883 92.950172,92.287491 92.459816,91.991493 
	C90.771027,90.656784 89.606056,89.263184 88.034103,87.801392 
	C83.948799,84.772766 85.101952,81.048241 85.976761,77.054672 
	C86.499405,75.151016 88.639885,74.281113 88.029007,72.368370 
	C87.561287,70.903900 86.427338,69.704147 84.948677,69.335266 
	C82.994774,68.847824 82.701843,70.885941 81.599747,72.242577 
	C81.099854,73.233101 80.654381,73.824768 79.852402,74.623085 
	C78.830681,75.256905 78.057671,75.351051 76.864273,75.194534 
	C76.236900,74.982300 76.000511,74.857552 75.479347,74.453995 
	C75.067566,73.944839 74.940559,73.714508 74.723366,73.103889 
	C74.552498,71.959785 74.556328,71.196457 74.737640,70.077057 
	C76.143372,67.490379 77.404892,65.220032 79.740204,63.328926 
	C82.310089,61.316887 84.180374,62.083794 86.060188,63.950169 
	C90.629570,68.486877 94.238899,73.915825 99.284416,78.017914 
	C100.498138,79.004677 100.696495,80.095589 99.441376,81.764870 
	C96.825218,85.244316 97.816200,87.211006 102.668945,88.306961 
	C104.339828,87.194221 105.755920,87.038467 107.612137,87.278122 
z"/>
<path fill="#95732A" opacity="1.000000" stroke="none" 
	d="
M96.619431,93.628906 
	C97.829193,90.207886 100.475716,91.052979 102.661819,90.971992 
	C105.140236,90.880165 107.626289,90.994186 110.576279,91.025940 
	C115.756760,94.263191 118.747734,99.422226 123.933517,102.624138 
	C125.520073,106.786369 122.618431,108.425125 119.871185,110.392090 
	C117.236588,109.130241 117.603287,110.694069 117.671021,112.386856 
	C117.163391,113.384979 116.570801,113.791527 115.469299,114.078972 
	C112.923340,113.509460 110.608635,113.407120 108.293137,112.066788 
	C106.721657,109.968597 107.770996,108.450089 108.598328,106.790230 
	C110.244720,103.487061 109.437828,101.910622 105.703476,101.570450 
	C103.667511,101.384995 101.874695,100.627632 99.674545,99.913170 
	C98.350426,97.806152 96.117393,96.524963 96.619431,93.628906 
z"/>
<path fill="#8B6823" opacity="1.000000" stroke="none" 
	d="
M74.384430,127.041260 
	C71.546234,126.902870 69.015892,127.334709 66.261795,126.104584 
	C65.085686,123.022575 64.703835,120.018333 60.243744,122.713463 
	C58.062153,124.031754 55.157589,123.249413 53.109467,121.143112 
	C50.712978,118.678551 48.302414,116.227684 45.730659,113.468155 
	C48.363869,112.781548 51.164375,112.397652 54.370705,111.991158 
	C55.598194,112.840797 56.528107,112.925598 57.775185,112.141785 
	C58.001518,111.933899 58.003357,111.581680 58.004204,111.405579 
	C58.139175,111.018974 58.273300,110.808487 58.740677,110.429115 
	C59.320068,110.229683 59.566212,110.199135 60.175537,110.241837 
	C65.371254,114.535179 69.308525,119.677834 74.354965,123.685982 
	C75.463760,124.566658 75.974876,125.793335 74.384430,127.041260 
z"/>
<path fill="#96742C" opacity="1.000000" stroke="none" 
	d="
M97.503357,104.080048 
	C94.537971,103.588768 91.666138,104.981354 89.169540,102.501999 
	C90.398827,100.420631 89.717934,98.663246 88.616478,97.259285 
	C87.295998,95.576103 86.103920,97.225540 84.772507,97.718117 
	C82.325096,98.623604 79.908417,98.291267 77.928108,96.319290 
	C76.050423,94.449501 74.152863,92.599648 72.244225,90.125961 
	C73.883827,87.403610 76.628639,88.602211 78.876328,87.215218 
	C79.992622,86.522842 80.967636,86.505394 82.199707,86.101044 
	C82.786720,86.006783 83.025917,86.001625 83.614296,86.075577 
	C85.259399,86.679062 85.812317,88.305038 87.698456,88.495972 
	C88.250824,88.582466 88.469650,88.621849 88.994812,88.783936 
	C89.483467,89.025909 89.665779,89.145180 90.092682,89.477753 
	C90.489700,89.843246 90.642120,89.995422 91.004517,90.391907 
	C91.742722,91.369576 92.512878,91.747688 93.609955,92.232849 
	C95.617126,94.212143 97.175392,96.165764 98.897369,98.418686 
	C99.300430,99.680084 99.900330,100.487267 100.025520,101.841064 
	C99.682083,103.285156 98.996368,103.944183 97.503357,104.080048 
z"/>
<path fill="#CBB98A" opacity="1.000000" stroke="none" 
	d="
M64.338577,38.327362 
	C64.050049,36.022709 65.492508,34.017948 63.514965,32.147156 
	C62.550056,31.234339 62.618690,29.734009 63.981224,28.331635 
	C64.321404,27.741430 64.509819,27.487679 64.810333,27.024508 
	C67.691490,23.948109 70.457680,21.079006 73.519989,18.066299 
	C74.561363,17.524050 75.340645,17.214853 76.587509,17.009703 
	C79.291832,17.482483 80.057198,19.184437 80.411041,21.619297 
	C80.714203,24.481567 78.881500,25.762239 77.392433,27.154263 
	C75.958641,28.494614 75.150337,29.848747 76.257782,32.140106 
	C75.568863,36.860378 72.259163,39.036686 68.554092,41.287018 
	C66.329842,41.303028 65.003136,40.566170 64.338577,38.327362 
z"/>
<path fill="#916B23" opacity="1.000000" stroke="none" 
	d="
M107.881287,110.942703 
	C110.422279,111.196365 112.965729,110.358185 114.911507,112.998573 
	C115.692871,114.044914 115.869789,114.983795 115.202980,115.535179 
	C112.341934,117.901009 110.235085,121.152306 106.381866,122.774643 
	C104.654556,122.756775 103.542458,122.151321 102.270325,121.107544 
	C98.324005,121.005363 98.014557,123.802795 97.304161,126.703690 
	C94.721664,125.670204 91.662537,126.437614 89.243660,124.222412 
	C88.182999,119.700996 92.343361,118.546188 94.282318,115.609955 
	C94.892822,114.841492 95.397964,114.431442 96.069916,113.741409 
	C96.423126,113.349449 96.563095,113.191452 96.945953,112.830650 
	C97.376228,112.530441 97.563606,112.433052 98.289230,111.997665 
	C99.718887,110.693283 100.673218,109.834404 102.397675,109.744019 
	C102.915207,109.758232 103.118240,109.782341 103.607849,109.879990 
	C104.082222,109.990417 104.270027,110.027298 104.734863,110.110413 
	C105.373245,110.218956 105.732780,110.290459 106.356606,110.424362 
	C106.955467,110.612518 107.287918,110.748482 107.881287,110.942703 
z"/>
<path fill="#C4B286" opacity="1.000000" stroke="none" 
	d="
M91.774963,20.809978 
	C92.294197,21.119646 92.561821,21.310011 92.872551,21.817204 
	C93.153976,22.195053 93.327133,22.347679 93.730553,22.758850 
	C95.041061,24.030243 96.130104,25.033903 97.199738,26.057827 
	C99.500267,28.260067 102.039925,30.298031 98.912827,33.853279 
	C97.953407,34.944050 98.272118,36.690159 99.449226,38.380894 
	C96.125237,40.039478 95.468376,39.526966 95.006744,34.803612 
	C94.947678,34.746616 94.817696,34.917690 94.531883,35.334362 
	C91.046501,38.848900 89.216904,36.565369 87.321655,33.437683 
	C85.925964,30.589985 83.747765,28.541759 83.322281,25.257065 
	C84.382019,22.167648 80.701241,20.947363 81.385666,18.027960 
	C83.120613,15.713614 84.986465,15.971564 87.282242,17.181572 
	C88.289459,17.638483 88.917641,18.008554 89.727142,18.756954 
	C89.986748,19.010628 90.000000,18.999903 89.994751,19.006647 
	C90.533508,19.530859 91.060760,20.065214 91.774963,20.809978 
z"/>
<path fill="#BFA666" opacity="1.000000" stroke="none" 
	d="
M70.399460,88.073746 
	C68.339935,86.440002 66.727158,84.801529 64.944344,83.375656 
	C62.642662,81.534821 61.949299,79.740196 64.000305,77.157387 
	C65.823112,74.861931 64.960640,72.857620 62.301804,71.209007 
	C60.205994,68.949661 61.748112,67.273666 62.883972,65.241730 
	C66.375008,63.004105 67.396729,66.786133 69.917816,67.618866 
	C70.630020,67.860779 71.047630,67.948044 71.787361,68.052017 
	C72.501266,68.244461 72.890640,68.407494 73.549393,68.735825 
	C73.988411,69.009819 74.148125,69.142189 74.491257,69.520432 
	C74.745934,69.953651 74.817192,70.140999 74.916824,70.621025 
	C74.944641,71.105957 74.944092,71.298203 74.983871,71.771500 
	C75.096649,72.225014 75.169083,72.397484 75.361710,72.821030 
	C75.546959,73.245117 75.612022,73.418137 75.831970,73.821106 
	C75.986870,74.051056 76.003387,73.999420 75.977432,74.007248 
	C76.309227,74.358070 76.606812,74.747765 76.938004,75.538315 
	C77.123253,78.062614 74.611740,79.003464 74.533539,81.477074 
	C73.729477,84.237328 73.191269,86.753319 70.399460,88.073746 
z"/>
<path fill="#BBA05A" opacity="1.000000" stroke="none" 
	d="
M60.202560,70.760902 
	C57.188206,74.031380 54.715771,73.517143 52.183331,70.544647 
	C50.378685,68.426422 48.276512,66.561684 46.155613,64.286201 
	C43.710453,61.098701 44.903179,58.549351 47.060066,55.734295 
	C48.041874,54.845757 48.867599,54.644081 50.145737,54.546055 
	C51.083141,54.633369 51.586121,54.791779 52.379681,55.217323 
	C53.575535,56.092522 54.223606,57.041405 55.491905,57.747894 
	C56.696926,58.400112 57.611996,58.921658 58.913155,59.389275 
	C59.597679,59.730087 59.979259,59.945904 60.644005,60.341080 
	C61.138172,60.604362 61.339039,60.706329 61.814857,61.009007 
	C62.256916,61.365154 62.424030,61.520588 63.025692,62.208511 
	C63.538399,62.957027 63.616554,63.173065 63.715111,63.730572 
	C63.667850,64.287346 63.600193,64.502647 63.398773,65.025993 
	C62.140919,66.967918 61.432148,68.827644 60.202560,70.760902 
z"/>
<path fill="#A1A1A4" opacity="1.000000" stroke="none" 
	d="
M125.697205,67.077698 
	C125.496170,70.438148 127.069374,73.582771 128.569977,76.406250 
	C130.223618,79.517677 129.814911,81.042938 126.952499,82.850273 
	C125.049454,84.051857 123.678993,86.096931 122.017609,88.134529 
	C120.420265,87.189285 118.875458,85.873978 117.171463,84.265709 
	C114.827011,80.987778 116.591331,78.362160 117.790756,75.313919 
	C120.343712,72.376091 122.872437,69.807266 125.697205,67.077698 
z"/>
<path fill="#CAB57F" opacity="1.000000" stroke="none" 
	d="
M82.334671,48.052895 
	C80.211884,48.545540 78.903732,47.490307 77.163445,46.486664 
	C75.079376,47.345238 73.843231,46.762569 72.827843,44.748272 
	C72.613045,42.015484 74.502060,40.239483 74.712738,37.577492 
	C75.270531,36.253754 75.976807,35.538387 77.218399,34.856834 
	C79.921593,34.039772 82.338898,34.691475 85.068024,34.475418 
	C85.652359,34.605427 85.884293,34.663544 86.438904,34.874592 
	C86.953476,35.166470 87.145363,35.305408 87.613525,35.666409 
	C88.060814,36.051868 88.231827,36.215267 88.888153,36.903236 
	C89.523018,37.618305 89.672585,37.808811 90.046951,38.289421 
	C90.568222,38.983273 90.823235,39.412037 91.164841,40.228020 
	C91.359772,41.115875 91.366280,41.637642 91.202011,42.547493 
	C90.497520,44.405933 90.329559,46.199455 87.930832,46.585274 
	C87.228531,46.536671 86.942940,46.480442 86.463539,46.291603 
	C85.029274,46.745258 84.189308,48.052288 82.334671,48.052895 
z"/>
<path fill="#C2A968" opacity="1.000000" stroke="none" 
	d="
M42.339417,60.203896 
	C36.528172,55.304325 36.497715,54.927006 41.369801,50.074276 
	C45.356884,46.103039 49.360332,42.148232 53.691689,38.153542 
	C56.059418,39.669575 55.583786,41.452766 54.678680,43.426456 
	C53.085823,46.899864 50.982651,50.099686 49.184616,53.902687 
	C46.280277,55.696918 46.484062,60.121700 42.339417,60.203896 
z"/>
<path fill="#9D9DA0" opacity="1.000000" stroke="none" 
	d="
M142.820465,72.721199 
	C139.878510,72.808235 137.855087,74.793922 135.759262,76.648705 
	C133.758774,78.419106 132.400116,77.978287 131.211304,75.594170 
	C129.784164,72.732132 129.740601,69.081993 126.237305,67.062744 
	C126.686852,66.032990 127.471970,65.120651 128.533112,64.074356 
	C129.140564,63.763451 129.439407,63.542461 129.804382,63.015015 
	C129.903061,62.752598 129.900238,62.846172 129.853714,62.840996 
	C130.609680,62.419533 131.470657,62.513092 132.695343,62.761574 
	C136.744568,65.638313 139.457214,69.277321 142.820465,72.721199 
z"/>
<path fill="#8B8B8F" opacity="1.000000" stroke="none" 
	d="
M30.711298,77.806641 
	C32.115021,79.869362 32.123959,81.708710 31.228849,83.703476 
	C29.968107,86.513046 28.613031,87.710464 25.672997,85.323311 
	C23.377340,83.459373 20.652004,82.114128 18.075165,80.611160 
	C16.660337,79.785957 15.162925,78.729645 13.422039,80.707558 
	C12.645528,76.138229 17.440420,75.131485 19.636604,71.928429 
	C23.669100,73.296593 26.493093,76.468987 30.711298,77.806641 
z"/>
<path fill="#9F8446" opacity="1.000000" stroke="none" 
	d="
M73.642731,43.808708 
	C74.012299,45.620403 75.213913,45.745937 76.571304,46.132774 
	C74.801895,48.573925 73.834007,51.007442 75.861336,53.776505 
	C76.901627,55.197403 76.697487,56.454750 75.668518,57.767681 
	C74.439140,59.336338 74.492851,61.084808 75.286652,63.241302 
	C75.254684,64.192062 74.886482,64.611633 73.915680,64.992157 
	C67.430321,63.842426 66.778580,58.787075 65.763123,53.583652 
	C66.968719,50.534935 68.065926,47.869167 69.889008,45.586525 
	C70.789970,44.458458 71.523781,43.116005 73.642731,43.808708 
z"/>
<path fill="#BFA970" opacity="1.000000" stroke="none" 
	d="
M118.222778,61.395645 
	C115.965714,65.660698 112.419777,68.820724 108.391800,71.849518 
	C106.763466,72.003586 105.194099,72.032364 104.592209,70.689369 
	C102.804710,66.700905 99.666466,63.313919 99.367950,58.416832 
	C101.832695,56.093937 103.617859,57.659477 106.437630,59.006134 
	C107.432602,59.062321 107.740204,58.755508 108.052330,58.378792 
	C108.484718,57.865513 108.604973,57.728954 109.170074,57.199135 
	C109.796364,56.696533 109.977806,56.587196 110.462570,56.355843 
	C111.434914,56.057961 112.098122,56.084229 113.057419,56.458748 
	C115.540993,59.231354 114.278999,61.744667 113.434357,63.764210 
	C113.906425,62.836617 114.836082,61.609482 116.871399,61.180138 
	C117.449486,61.169289 117.680603,61.202095 118.222778,61.395645 
z"/>
<path fill="#D0BC86" opacity="1.000000" stroke="none" 
	d="
M111.682388,40.781132 
	C113.477486,42.639992 115.528458,43.836246 116.308701,46.514061 
	C115.814369,49.438217 115.332489,52.043629 112.563911,53.829685 
	C108.270020,54.113495 106.595116,50.858330 103.989792,48.360329 
	C103.044022,44.363888 104.339539,41.314449 106.731636,38.179985 
	C107.024490,37.871532 107.501152,37.973145 107.744843,37.973251 
	C108.391106,38.457340 108.987206,38.482632 109.718246,38.846001 
	C110.196068,39.229752 110.449745,39.440552 110.804703,39.903709 
	C111.129791,40.238163 111.313934,40.368000 111.682388,40.781132 
z"/>
<path fill="#C7B37F" opacity="1.000000" stroke="none" 
	d="
M95.726089,31.705727 
	C97.570923,33.953178 94.754150,37.878601 99.320953,38.720810 
	C99.679077,38.732632 99.899551,38.685421 99.934967,38.792450 
	C100.847366,39.719284 101.759544,39.754833 102.804596,38.728874 
	C103.714996,38.279942 104.526993,38.124405 105.655174,37.915672 
	C106.450462,41.658752 103.610939,44.595798 103.141991,48.515194 
	C102.823814,49.022194 102.661858,49.201065 102.186493,49.558743 
	C101.415184,49.864330 100.950066,49.914467 100.151718,49.777298 
	C99.619911,49.614681 99.412346,49.543636 98.903275,49.362347 
	C98.422615,49.146812 98.243477,49.041527 97.598770,48.562164 
	C96.993126,48.058243 96.853065,47.928398 96.318863,47.409626 
	C95.799698,46.891174 95.674667,46.761658 95.168274,46.258411 
	C94.665642,45.753742 94.544365,45.622803 94.034401,45.110176 
	C93.515808,44.593655 93.385895,44.458828 92.872559,43.884712 
	C92.361366,43.288357 92.233604,43.131283 91.950211,42.704819 
	C91.735649,42.233189 91.676704,42.030949 91.583481,41.511612 
	C91.530861,40.763546 91.525444,40.332394 91.545609,39.571175 
	C91.498032,37.250790 93.830658,36.494160 93.969757,34.263683 
	C94.188606,33.420963 94.389923,32.913048 94.781830,32.205051 
	C95.135139,31.818975 95.297874,31.632986 95.726089,31.705727 
z"/>
<path fill="#AB8D46" opacity="1.000000" stroke="none" 
	d="
M47.967087,54.066284 
	C49.151455,48.535419 53.582821,44.550705 54.024475,38.503674 
	C55.063679,37.412182 56.111931,36.741688 57.795887,37.273720 
	C59.550510,37.670719 60.102726,39.169155 61.617470,39.862419 
	C63.046192,41.350597 63.654346,42.885998 64.036598,44.921474 
	C63.882759,47.699440 62.117352,48.800209 59.945995,49.977200 
	C59.335426,50.100922 59.088333,50.113457 58.483028,50.061577 
	C57.464466,49.774422 56.906609,49.385429 56.170456,48.753296 
	C55.623466,48.394222 55.341267,47.965191 54.824272,48.628685 
	C54.687542,49.045254 54.630993,49.222000 54.455093,49.668739 
	C54.107750,50.284271 53.850872,50.607162 53.356201,51.161041 
	C51.996330,52.485104 51.108948,53.864296 49.202713,54.481747 
	C48.632778,54.456318 48.408619,54.397053 47.967087,54.066284 
z"/>
<path fill="#717174" opacity="1.000000" stroke="none" 
	d="
M38.420380,75.078537 
	C35.356827,73.834007 33.594170,71.780655 32.489185,69.031982 
	C31.597227,66.813232 30.452431,64.743225 27.102282,64.971992 
	C30.297293,61.971054 34.498714,62.128654 37.442642,65.318260 
	C38.785709,66.773399 40.140282,68.217926 41.698601,69.933929 
	C42.278259,70.520515 42.502487,70.918808 42.450760,71.748871 
	C41.858627,72.666687 41.220058,72.887444 40.152306,72.789993 
	C39.573013,72.506844 39.310223,72.324829 39.032349,72.166206 
	C38.723412,71.989853 38.807850,72.033051 39.476410,72.560852 
	C39.880459,73.797821 39.688576,74.606117 38.420380,75.078537 
z"/>
<path fill="#C8B275" opacity="1.000000" stroke="none" 
	d="
M95.129456,63.311699 
	C93.280182,61.869343 91.884216,60.504875 90.348419,59.321957 
	C87.252197,56.937157 86.445702,54.341312 89.550751,50.930378 
	C89.106400,46.615887 90.851860,46.712917 93.783051,48.706913 
	C95.243629,50.602837 95.954315,52.506878 97.247620,54.510277 
	C97.620895,55.339527 97.723991,55.845318 97.781052,56.765629 
	C98.102196,58.744553 98.906540,60.288723 97.986649,62.311234 
	C97.167786,63.343372 96.430786,63.654705 95.129456,63.311699 
z"/>
<path fill="#838387" opacity="1.000000" stroke="none" 
	d="
M39.165176,72.483749 
	C39.927738,72.058830 40.590847,72.034012 41.585541,72.029831 
	C42.890987,72.084862 43.236599,72.844208 43.855309,73.750961 
	C44.576904,74.513618 45.079884,75.065994 45.822037,75.767258 
	C47.039124,77.353012 48.952862,78.118126 49.058182,80.531296 
	C47.525135,82.883873 46.499947,85.356384 43.288712,85.912292 
	C40.460674,82.958679 38.228188,79.871284 38.054504,75.419189 
	C38.409225,74.316956 38.737476,73.600395 39.165176,72.483749 
z"/>
<path fill="#B79C5A" opacity="1.000000" stroke="none" 
	d="
M111.910889,53.388550 
	C113.243027,51.084747 114.477776,49.133717 116.033302,47.022102 
	C120.064537,48.122551 122.267349,51.321465 124.280426,54.177643 
	C126.231560,56.945946 122.684174,58.177479 120.606987,59.892147 
	C119.975639,59.990135 119.744469,59.951057 119.206940,59.739769 
	C116.998955,58.706890 117.772331,54.952263 114.182373,55.550529 
	C112.775841,55.377968 112.093857,54.781208 111.910889,53.388550 
z"/>
<path fill="#6D501C" opacity="1.000000" stroke="none" 
	d="
M96.763107,131.250076 
	C97.949722,130.259476 98.800545,129.423141 99.806747,128.330841 
	C101.763741,129.816513 100.915558,131.408798 99.558975,132.811630 
	C95.064034,137.459854 90.482582,142.024445 85.990501,146.675369 
	C84.306580,148.418823 82.399750,147.972336 80.128601,147.339874 
	C86.449844,143.746094 90.455475,137.485718 95.923035,132.348328 
	C96.215866,131.849380 96.321594,131.626862 96.763107,131.250076 
z"/>
<path fill="#634B20" opacity="1.000000" stroke="none" 
	d="
M106.258492,122.976006 
	C108.974564,119.818985 111.927887,116.860733 114.999390,113.613144 
	C115.624207,113.032181 116.130852,112.740555 116.825821,112.225250 
	C117.069000,111.089119 117.432854,110.369751 118.604034,109.901405 
	C121.211929,108.241692 123.575111,106.696907 124.122612,103.257622 
	C125.934082,104.674904 125.576431,106.544357 124.036819,108.132858 
	C119.314423,113.005241 114.501488,117.790451 109.685455,122.570992 
	C108.819443,123.430626 107.707939,123.762161 106.258492,122.976006 
z"/>
<path fill="#7B7B7F" opacity="1.000000" stroke="none" 
	d="
M30.818588,77.717819 
	C25.455008,78.834320 22.073875,77.129639 19.992531,72.141121 
	C21.286236,70.447464 22.635508,69.131142 24.294453,67.970306 
	C26.625580,71.220955 28.647034,74.316124 30.818588,77.717819 
z"/>
<path fill="#A78639" opacity="1.000000" stroke="none" 
	d="
M97.177025,62.295151 
	C96.708557,60.571079 96.422791,59.140434 96.105103,57.344509 
	C96.378571,56.663250 96.720100,56.392189 97.412003,56.076996 
	C98.174782,55.988178 98.604485,56.058884 99.296158,56.393967 
	C99.748192,56.699249 99.922386,56.830696 100.283524,57.230873 
	C101.273262,63.003101 104.361229,67.327667 107.912277,71.721245 
	C105.781494,74.237846 104.004486,72.767853 102.105652,70.727783 
	C101.831429,70.017990 101.640503,69.674606 101.146484,69.180641 
	C100.918312,68.988396 101.008911,69.177071 100.915176,69.223602 
	C100.298409,66.716087 97.805481,65.182655 97.177025,62.295151 
z"/>
<path fill="#AE9966" opacity="1.000000" stroke="none" 
	d="
M82.049683,17.593233 
	C82.747444,20.287661 85.662392,21.649296 84.795433,25.031984 
	C83.903145,25.859711 83.044167,25.845352 81.874176,25.377701 
	C80.820389,24.809067 80.247353,24.160923 79.387207,23.357815 
	C78.580116,21.609699 78.014328,20.069407 77.229568,18.259544 
	C76.376320,17.277380 76.271164,16.463388 76.753357,15.196253 
	C76.975777,14.484947 77.127014,14.234620 77.633408,14.013205 
	C80.923897,12.853711 81.911247,14.515992 82.049683,17.593233 
z"/>
<path fill="#BDAE88" opacity="1.000000" stroke="none" 
	d="
M82.301140,17.987141 
	C80.626595,16.876839 80.405548,14.752469 78.172745,14.057096 
	C82.537788,11.001146 83.524445,11.280671 87.678215,16.895336 
	C88.077789,17.260155 88.213829,17.399178 88.175240,17.771938 
	C86.215439,17.994545 84.430267,17.983412 82.301140,17.987141 
z"/>
<path fill="#C3AB6B" opacity="1.000000" stroke="none" 
	d="
M72.338852,64.127975 
	C73.241776,63.757442 73.870384,63.738876 74.968132,63.665184 
	C76.927849,64.398651 77.937584,62.614391 79.661713,62.984039 
	C79.735413,65.825699 79.009911,68.326004 76.162125,70.032051 
	C75.446297,70.431458 75.022781,70.519844 74.297592,70.230606 
	C74.033882,70.017311 74.024429,69.973824 74.002563,69.969666 
	C72.578758,68.403580 71.042664,66.888527 72.338852,64.127975 
z"/>
<path fill="#A18645" opacity="1.000000" stroke="none" 
	d="
M93.368912,50.098915 
	C91.968369,49.291718 90.743202,46.673729 89.929504,50.432751 
	C89.294167,49.390003 89.150978,47.959805 87.733429,46.813568 
	C88.797462,45.548500 88.934067,43.966240 89.809525,42.372520 
	C93.213936,43.149044 95.190048,45.380276 96.326035,48.722786 
	C95.638039,49.999359 94.783264,50.346497 93.368912,50.098915 
z"/>
<path fill="#838387" opacity="1.000000" stroke="none" 
	d="
M38.161076,90.863022 
	C35.452038,91.123878 32.780582,90.955772 31.672268,88.254974 
	C31.083691,86.820709 32.476704,84.815704 33.773422,84.791862 
	C36.693676,84.738182 36.544735,88.058243 38.216164,90.013298 
	C38.418739,90.331108 38.289333,90.709579 38.161076,90.863022 
z"/>
<path fill="#C2A968" opacity="1.000000" stroke="none" 
	d="
M63.616310,45.374077 
	C61.941872,44.096443 61.269577,42.579948 60.840893,40.540291 
	C61.064190,39.381138 61.793781,39.534157 62.708557,39.289955 
	C63.321583,38.922142 63.640179,38.708755 64.072144,38.223091 
	C65.352226,38.626957 66.518944,39.303108 68.008987,40.086716 
	C68.692719,43.439251 66.820129,44.846352 63.616310,45.374077 
z"/>
<path fill="#3B3B3C" opacity="1.000000" stroke="none" 
	d="
M43.073353,86.159592 
	C44.409679,84.401718 45.908485,82.862244 47.668274,81.134911 
	C48.708675,80.389755 49.417511,80.513321 50.031532,81.572601 
	C48.688374,84.017326 47.367859,86.044510 45.111397,87.696136 
	C44.292175,87.361031 43.764004,86.869507 43.073353,86.159592 
z"/>
<path fill="#BFA76C" opacity="1.000000" stroke="none" 
	d="
M102.338264,49.142372 
	C102.262344,45.103527 104.870285,42.144131 105.845871,38.205605 
	C106.144012,37.441814 106.210793,36.806900 106.956680,37.640316 
	C106.372261,40.821262 105.720032,43.770996 105.030205,47.085480 
	C104.946068,48.944210 104.053284,49.435020 102.338264,49.142372 
z"/>
<path fill="#AB8D46" opacity="1.000000" stroke="none" 
	d="
M42.138573,60.276508 
	C44.913162,59.118710 45.408535,56.055298 47.516003,54.027317 
	C47.749714,53.794781 47.887794,53.906780 47.956993,53.962589 
	C48.365849,54.323330 48.508533,54.702408 48.261887,55.417328 
	C47.575951,58.233074 45.488525,60.350323 46.008537,63.585960 
	C44.754463,62.850647 43.504814,61.712719 42.138573,60.276508 
z"/>
<path fill="#6D501C" opacity="1.000000" stroke="none" 
	d="
M97.423012,126.972038 
	C96.055237,123.109383 96.648705,120.370636 101.743073,120.744354 
	C100.229843,122.281609 98.785469,123.790436 99.036285,126.607803 
	C98.601547,126.971581 98.172745,126.973053 97.423012,126.972038 
z"/>
<path fill="#BFA666" opacity="1.000000" stroke="none" 
	d="
M60.175461,89.753174 
	C57.867516,89.925468 55.622181,90.375458 53.223171,89.150787 
	C54.191235,87.729393 54.632187,84.823174 57.660267,86.940567 
	C58.898491,87.701149 60.210217,87.954781 60.175461,89.753174 
z"/>
<path fill="#BBA05A" opacity="1.000000" stroke="none" 
	d="
M96.744431,62.201675 
	C99.940392,63.172318 100.562386,65.749878 100.870972,68.878647 
	C98.885422,67.433868 96.949402,65.597610 94.876396,63.456512 
	C95.324455,62.901657 95.909508,62.651646 96.744431,62.201675 
z"/>
<path fill="#937C4B" opacity="1.000000" stroke="none" 
	d="
M75.199196,104.201546 
	C70.943573,102.560112 68.559341,99.400948 66.412338,95.597946 
	C67.519875,94.546150 67.969154,95.526779 68.765579,96.346863 
	C69.076836,97.039055 69.314011,97.365593 69.919632,97.762909 
	C70.196358,97.900291 70.094116,97.907082 70.093460,97.855850 
	C70.253487,98.172859 70.473793,98.500137 71.033150,98.907730 
	C72.794716,100.480934 74.285934,101.926643 75.861649,103.682617 
	C75.777176,104.141579 75.608208,104.290276 75.199196,104.201546 
z"/>
<path fill="#8B8B8F" opacity="1.000000" stroke="none" 
	d="
M117.560287,75.048508 
	C119.584579,77.888573 116.428535,80.362160 117.019989,83.583435 
	C116.332344,83.382812 115.652412,82.792877 114.841728,81.961075 
	C114.549789,80.251930 115.036339,78.916718 115.753647,77.211250 
	C116.404449,76.273880 116.855019,75.712997 117.560287,75.048508 
z"/>
<path fill="#545457" opacity="1.000000" stroke="none" 
	d="
M50.264183,81.769958 
	C49.496330,81.676178 49.000771,81.376244 48.217236,81.011688 
	C47.306068,79.502510 46.682873,78.057968 46.060448,76.264786 
	C48.649105,76.930107 51.468700,77.760460 50.264183,81.769958 
z"/>
<path fill="#7F7050" opacity="1.000000" stroke="none" 
	d="
M60.236420,90.345451 
	C59.490746,89.233727 58.929672,88.385551 58.165314,87.305862 
	C61.332779,86.510178 62.283649,89.272575 63.916679,91.606354 
	C63.942783,92.047852 63.822002,92.182144 63.447258,92.222076 
	C62.269207,91.621475 61.345116,91.115242 60.236420,90.345451 
z"/>
<path fill="#AB8D46" opacity="1.000000" stroke="none" 
	d="
M70.143814,88.255905 
	C71.001007,85.829956 71.973717,83.675941 73.041992,81.166504 
	C74.052490,80.785454 74.646637,81.274139 75.197952,82.410027 
	C75.342926,85.258667 75.403702,87.733032 72.468369,89.380440 
	C72.133141,89.605354 72.018036,89.871880 71.990097,90.014526 
	C71.394554,89.614059 70.826950,89.070953 70.143814,88.255905 
z"/>
<path fill="#AB8D46" opacity="1.000000" stroke="none" 
	d="
M60.305534,71.067963 
	C60.111923,68.695702 60.780441,66.655128 63.348221,65.099892 
	C63.352554,66.743980 62.755669,68.530655 62.089199,70.664795 
	C61.561123,71.056969 61.102634,71.101685 60.305534,71.067963 
z"/>
<path fill="#A18645" opacity="1.000000" stroke="none" 
	d="
M82.255951,48.214840 
	C82.914398,46.928616 83.978096,46.020512 85.912422,46.113602 
	C85.336853,47.493408 84.504150,48.932484 82.255951,48.214840 
z"/>
<path fill="#BFA970" opacity="1.000000" stroke="none" 
	d="
M62.685291,39.043972 
	C62.460197,39.428753 61.917412,39.721981 61.070122,40.100655 
	C59.483898,39.919903 59.091423,38.810825 58.336662,37.649460 
	C59.539967,37.953014 60.953781,38.452717 62.685291,39.043972 
z"/>
<path fill="#CBB98A" opacity="1.000000" stroke="none" 
	d="
M107.678329,87.090668 
	C106.711960,88.207573 105.229279,88.073479 103.409622,88.061172 
	C104.231354,86.660103 105.403786,85.225212 107.678329,87.090668 
z"/>
<path fill="#A1A1A4" opacity="1.000000" stroke="none" 
	d="
M115.621986,77.006241 
	C115.664909,78.201668 115.375938,79.568581 114.898972,81.327347 
	C113.351952,80.007462 113.757759,78.520760 115.621986,77.006241 
z"/>
<path fill="#BDAE88" opacity="1.000000" stroke="none" 
	d="
M76.663986,14.947382 
	C76.981720,15.609853 77.004753,16.403387 77.019188,17.593449 
	C76.211922,17.973726 75.413246,17.957478 74.215340,17.931961 
	C74.667160,16.974609 75.518227,16.026527 76.663986,14.947382 
z"/>
<path fill="#937C4B" opacity="1.000000" stroke="none" 
	d="
M63.207756,92.457870 
	C63.193298,92.127708 63.630592,92.028694 63.847080,91.971130 
	C64.063568,91.913559 64.040443,91.939697 64.046295,91.933273 
	C64.261665,92.253929 64.511612,92.546936 65.063995,92.922958 
	C65.916016,93.667229 66.500687,94.298935 66.966370,95.211449 
	C64.777481,95.745750 63.792545,94.544785 63.207756,92.457870 
z"/>
<path fill="#A28E5E" opacity="1.000000" stroke="none" 
	d="
M76.291130,113.694641 
	C74.755638,114.019791 73.431526,113.809937 72.976120,112.778816 
	C72.209381,111.042793 73.703651,112.250908 74.404877,112.097672 
	C74.924171,112.364594 75.202873,112.612366 75.715233,113.016937 
	C76.178619,113.290535 76.408356,113.407341 76.291130,113.694641 
z"/>
<path fill="#545457" opacity="1.000000" stroke="none" 
	d="
M44.085861,73.627312 
	C43.458424,73.494171 42.842922,73.027084 42.072277,72.305237 
	C41.907078,71.639145 41.897022,71.227829 41.897270,70.508553 
	C43.258751,70.791664 43.839966,71.928017 44.085861,73.627312 
z"/>
<path fill="#BFA970" opacity="1.000000" stroke="none" 
	d="
M119.178360,60.112862 
	C119.494675,59.988426 119.970398,60.086384 120.088608,60.057800 
	C120.369911,60.986179 119.568626,61.158569 118.765060,61.536793 
	C118.533852,61.556389 118.511917,61.528385 118.499855,61.515297 
	C118.467979,61.037792 118.592735,60.616161 119.178360,60.112862 
z"/>
<path fill="#908369" opacity="1.000000" stroke="none" 
	d="
M88.223755,18.181101 
	C88.000618,18.005676 87.950966,17.564751 87.946350,17.342941 
	C88.878494,17.102621 89.486176,17.576187 89.922340,18.706589 
	C89.473465,18.792593 88.960182,18.574558 88.223755,18.181101 
z"/>
<path fill="#908369" opacity="1.000000" stroke="none" 
	d="
M91.886620,20.726011 
	C91.352226,20.548286 90.743034,20.075691 90.061668,19.308243 
	C90.867699,19.137959 91.449883,19.643000 91.886620,20.726011 
z"/>
<path fill="#CBB98A" opacity="1.000000" stroke="none" 
	d="
M102.549156,38.568474 
	C102.341652,39.464199 101.623940,40.050011 100.203598,39.102798 
	C100.712029,38.833477 101.453667,38.767471 102.549156,38.568474 
z"/>
<path fill="#7B7B7F" opacity="1.000000" stroke="none" 
	d="
M145.975922,75.718697 
	C145.230682,75.825867 144.459473,75.496742 144.099106,74.194435 
	C144.621002,74.405037 145.217651,74.935036 145.975922,75.718697 
z"/>
<path fill="#A1A1A4" opacity="1.000000" stroke="none" 
	d="
M132.907104,62.669590 
	C132.250320,62.966045 131.434723,62.955948 130.213165,62.890839 
	C130.582672,61.403656 131.659866,61.848450 132.907104,62.669590 
z"/>
<path fill="#908369" opacity="1.000000" stroke="none" 
	d="
M79.700378,111.848587 
	C79.536728,112.259483 79.049690,112.613136 78.249786,112.965057 
	C78.416946,112.572670 78.896965,112.182014 79.700378,111.848587 
z"/>
<path fill="#908369" opacity="1.000000" stroke="none" 
	d="
M109.803680,38.744438 
	C109.396088,38.838909 108.889465,38.611126 108.185684,38.178349 
	C108.738419,37.442928 109.205849,37.992527 109.803680,38.744438 
z"/>
<path fill="#906D26" opacity="1.000000" stroke="none" 
	d="
M75.133545,104.153641 
	C74.959160,103.964119 75.453247,103.962906 75.699692,103.977898 
	C76.274940,104.060585 76.522156,104.240410 76.681900,104.766968 
	C76.219986,104.782097 75.763962,104.562630 75.133545,104.153641 
z"/>
<path fill="#908369" opacity="1.000000" stroke="none" 
	d="
M76.254074,113.864594 
	C75.944176,113.865135 75.948486,113.519592 75.948685,113.346664 
	C76.402046,113.101135 76.855194,113.028549 77.652267,112.942215 
	C77.518776,113.240341 77.041374,113.552200 76.254074,113.864594 
z"/>
<path fill="#908369" opacity="1.000000" stroke="none" 
	d="
M93.891663,22.775345 
	C93.614548,22.965759 93.341400,22.796274 93.061096,22.275684 
	C93.261383,22.206051 93.541939,22.369671 93.891663,22.775345 
z"/>
<path fill="#BDAE88" opacity="1.000000" stroke="none" 
	d="
M64.670868,26.924202 
	C64.820282,27.122063 64.661232,27.395479 64.289131,27.815258 
	C64.225555,27.672438 64.320992,27.351816 64.670868,26.924202 
z"/>
<path fill="#8B6823" opacity="1.000000" stroke="none" 
	d="
M44.325741,112.111069 
	C44.449955,112.068672 44.600266,112.205177 44.820126,112.483894 
	C44.669029,112.589317 44.489750,112.477272 44.325741,112.111069 
z"/>
<path fill="#6D501C" opacity="1.000000" stroke="none" 
	d="
M78.279861,146.128113 
	C78.446587,146.046082 78.644745,146.197586 78.906776,146.554703 
	C78.722717,146.686386 78.502930,146.553497 78.279861,146.128113 
z"/>
<path fill="#908369" opacity="1.000000" stroke="none" 
	d="
M80.213287,111.754692 
	C80.306267,111.786232 80.033737,111.890213 79.989525,111.962502 
	C79.945312,112.034790 80.120308,111.723152 80.213287,111.754692 
z"/>
<path fill="#6D501C" opacity="1.000000" stroke="none" 
	d="
M72.125427,140.183777 
	C72.288170,140.071976 72.550125,140.212860 72.911041,140.605011 
	C72.741516,140.729324 72.479736,140.589386 72.125427,140.183777 
z"/>
<path fill="#6D501C" opacity="1.000000" stroke="none" 
	d="
M99.839813,127.763779 
	C99.637405,127.840111 99.410606,127.637306 99.128372,127.175385 
	C99.340508,127.070602 99.587997,127.260056 99.839813,127.763779 
z"/>
<path fill="#BBA05A" opacity="1.000000" stroke="none" 
	d="
M100.948524,69.303696 
	C101.158142,69.294182 101.397964,69.599976 101.792603,70.154404 
	C101.624519,70.141678 101.301628,69.880333 100.948524,69.303696 
z"/>
<path fill="#908369" opacity="1.000000" stroke="none" 
	d="
M111.840164,40.808609 
	C111.520012,41.033501 111.257988,40.868290 111.013138,40.338566 
	C111.234970,40.256485 111.524292,40.404636 111.840164,40.808609 
z"/>
<path fill="#A1A1A4" opacity="1.000000" stroke="none" 
	d="
M129.646790,62.875465 
	C129.683060,63.039879 129.463043,63.327156 129.026093,63.777412 
	C129.002930,63.626369 129.196732,63.312351 129.646790,62.875465 
z"/>
<path fill="#8B6823" opacity="1.000000" stroke="none" 
	d="
M43.354500,111.145401 
	C43.489445,111.100883 43.666500,111.257713 43.933315,111.576401 
	C43.773624,111.681938 43.564804,111.551430 43.354500,111.145401 
z"/>
<path fill="#7B7B7F" opacity="1.000000" stroke="none" 
	d="
M148.987961,78.709007 
	C148.805038,78.737747 148.547485,78.500023 148.161926,78.029526 
	C148.327042,78.012016 148.620193,78.227280 148.987961,78.709007 
z"/>
<path fill="#7F7050" opacity="1.000000" stroke="none" 
	d="
M65.206657,92.758781 
	C65.018929,92.817993 64.706497,92.600464 64.223114,92.154892 
	C64.395416,92.111916 64.738693,92.296974 65.206657,92.758781 
z"/>
<path fill="#7F7050" opacity="1.000000" stroke="none" 
	d="
M70.074951,97.613144 
	C69.885513,97.651917 69.574661,97.403549 69.097610,96.900543 
	C69.272110,96.872597 69.612823,97.099297 70.074951,97.613144 
z"/>
<path fill="#7F7050" opacity="1.000000" stroke="none" 
	d="
M71.186646,98.755569 
	C71.002655,98.790581 70.701813,98.545929 70.246887,98.052948 
	C70.418472,98.028389 70.744133,98.252144 71.186646,98.755569 
z"/>
<path fill="#8B6823" opacity="1.000000" stroke="none" 
	d="
M38.289124,106.273193 
	C38.466328,106.206963 38.646072,106.371353 38.899422,106.718216 
	C38.704395,106.856293 38.477280,106.723999 38.289124,106.273193 
z"/>
<path fill="#8B6823" opacity="1.000000" stroke="none" 
	d="
M40.253231,108.176910 
	C40.411240,108.117889 40.615341,108.291023 40.912354,108.657333 
	C40.730743,108.777313 40.495426,108.630173 40.253231,108.176910 
z"/>
<path fill="#8B6823" opacity="1.000000" stroke="none" 
	d="
M41.247223,109.162094 
	C41.404324,109.099342 41.606987,109.266190 41.905094,109.619614 
	C41.721336,109.754265 41.485420,109.616096 41.247223,109.162094 
z"/>
<path fill="#060504" opacity="1.000000" stroke="none" 
	d="
M59.134979,110.798630 
	C58.881817,110.959312 58.428963,111.048141 58.217007,111.138809 
	C55.022564,110.879364 53.369854,108.483604 52.009701,106.430092 
	C50.009174,103.409767 53.880955,102.584221 55.088207,100.777084 
	C56.086113,99.283318 57.520576,97.761665 59.487446,99.779808 
	C60.983246,101.314613 62.430878,102.896362 63.927246,104.808533 
	C63.361385,106.043877 62.572887,106.815422 62.390293,108.243095 
	C62.598427,108.850151 62.780590,109.135086 62.891518,109.943130 
	C62.336819,110.888062 61.773537,111.059441 60.847649,110.919617 
	C60.182652,110.683617 59.793549,110.612785 59.134979,110.798630 
z"/>
<path fill="#A28E5E" opacity="1.000000" stroke="none" 
	d="
M57.600365,111.949310 
	C57.237141,113.371933 56.391129,114.402550 54.871185,112.255371 
	C55.584087,111.967285 56.391647,111.966003 57.600365,111.949310 
z"/>
<path fill="#908369" opacity="1.000000" stroke="none" 
	d="
M62.637939,108.252777 
	C59.436279,106.496140 63.122932,106.462852 63.671047,105.272202 
	C63.589573,106.086662 63.224594,107.013496 62.637939,108.252777 
z"/>
<path fill="#060504" opacity="1.000000" stroke="none" 
	d="
M63.764114,109.970772 
	C63.990005,110.003380 64.038391,110.415649 64.054771,110.622559 
	C64.200661,111.061890 64.330162,111.294327 64.237228,111.857742 
	C63.031631,112.195976 62.627117,111.629585 62.762665,110.382065 
	C62.961639,110.039101 63.022007,109.976364 63.052231,109.944649 
	C63.082458,109.912933 63.538223,109.938164 63.764114,109.970772 
z"/>
<path fill="#090705" opacity="1.000000" stroke="none" 
	d="
M86.259598,125.742935 
	C87.003151,127.970375 90.349823,129.197510 86.989349,132.028290 
	C81.114746,136.976913 81.262970,137.152878 76.233063,132.253021 
	C73.562508,129.765106 76.430534,127.671379 76.321968,125.159943 
	C76.607033,124.652725 76.764748,124.476868 77.235184,124.136742 
	C79.136818,123.568771 80.580185,122.779755 82.472763,122.243149 
	C83.281799,122.374374 83.688774,122.595375 84.286407,123.165375 
	C85.234474,123.983994 86.198509,124.318199 86.259598,125.742935 
z"/>
<path fill="#746036" opacity="1.000000" stroke="none" 
	d="
M76.667465,124.728622 
	C79.283340,127.531975 74.951080,129.053223 75.953018,131.644333 
	C74.302910,130.990982 71.340492,130.610382 73.878281,127.257828 
	C74.799881,125.094749 73.204414,124.454575 72.185356,123.446785 
	C68.211227,119.516556 64.280411,115.542549 60.155235,111.304977 
	C59.832802,110.878883 59.688614,110.732628 59.753475,110.360085 
	C60.715816,110.145988 61.469112,110.158180 62.592018,110.104736 
	C63.116123,110.623779 63.270611,111.208466 63.694710,111.962997 
	C64.338867,112.106911 64.598793,112.259712 64.889511,112.819656 
	C65.053841,113.018547 64.980583,113.019409 64.979584,112.982796 
	C65.205864,113.197327 65.439735,113.442154 65.867409,113.852478 
	C66.053558,114.025291 65.975403,114.024620 65.975021,113.985542 
	C66.203430,114.196411 66.438515,114.440292 66.866898,114.850128 
	C67.053879,115.022186 66.978378,115.021729 66.977974,114.983978 
	C67.204865,115.196999 67.439110,115.441093 67.867081,115.850349 
	C68.053833,116.022194 67.978409,116.021645 67.978043,115.983932 
	C68.204750,116.196770 68.438774,116.440628 68.866837,116.848969 
	C69.053894,117.020126 68.980476,117.019539 68.980194,116.982826 
	C69.205513,117.196678 69.438148,117.440506 69.866722,117.845810 
	C70.054535,118.015053 69.984917,118.015045 69.985031,117.980240 
	C70.207748,118.197746 70.439209,118.441666 70.867065,118.845932 
	C71.054604,119.014679 70.985092,119.014931 70.985153,118.980179 
	C71.207848,119.197693 71.439301,119.441612 71.867073,119.845947 
	C72.054604,120.014709 71.985146,120.014793 71.985344,119.980072 
	C72.207039,120.197342 72.438225,120.440155 72.866333,120.841537 
	C73.054840,121.008080 72.988777,121.011177 72.990410,120.978149 
	C73.210754,121.198349 73.439140,121.442482 73.866852,121.842041 
	C74.054893,122.008080 73.988762,122.011253 73.990303,121.978188 
	C74.210175,122.198761 74.439651,122.441925 74.866852,122.842072 
	C75.054893,123.008148 74.989189,123.009827 74.991974,122.977081 
	C75.531013,123.422783 76.204445,123.745796 76.667465,124.728622 
z"/>
<path fill="#503E1F" opacity="1.000000" stroke="none" 
	d="
M86.434891,125.922318 
	C85.571648,125.559280 84.954063,125.035782 84.156044,124.263359 
	C84.015312,123.635445 84.174423,123.315903 84.713608,122.960800 
	C89.297791,119.185059 92.241165,114.089874 97.459114,110.891159 
	C98.026680,110.705078 98.273460,110.624893 98.866638,110.722206 
	C99.499443,111.362457 99.576981,111.857910 99.256454,112.726204 
	C99.067245,113.066353 99.014267,113.056564 99.033363,113.037567 
	C98.790329,113.214104 98.549355,113.432922 98.174507,113.863998 
	C98.019478,114.052956 98.034996,113.997765 98.050049,114.022171 
	C97.354774,114.468857 96.638641,114.884964 96.188736,115.993301 
	C93.821762,118.655190 91.570580,121.030098 89.153099,123.688309 
	C88.218040,124.568367 87.449295,125.165115 86.434891,125.922318 
z"/>
<path fill="#916B23" opacity="1.000000" stroke="none" 
	d="
M96.886353,130.908844 
	C96.912437,131.344986 96.703262,131.573380 96.290756,131.926422 
	C95.673828,131.708389 94.808487,131.211655 94.873062,131.003647 
	C95.211182,129.914688 95.985237,130.343781 96.886353,130.908844 
z"/>
<path fill="#664D22" opacity="1.000000" stroke="none" 
	d="
M99.321777,111.118721 
	C98.787277,110.956970 98.585449,110.929344 98.081772,110.843491 
	C98.672119,108.673096 99.866516,106.547920 97.319244,104.304817 
	C97.681313,103.532082 98.236732,103.030022 98.946571,102.289749 
	C99.480980,101.436752 99.927307,100.893135 100.987862,100.595154 
	C104.478394,103.171722 103.430244,106.454239 102.561371,109.920013 
	C101.438507,110.572243 100.563026,110.953201 99.321777,111.118721 
z"/>
<path fill="#503E1F" opacity="1.000000" stroke="none" 
	d="
M83.061951,122.807541 
	C81.522713,123.612160 80.555229,125.056953 78.558975,124.889206 
	C78.038177,124.783363 77.839340,124.669075 77.540359,124.225670 
	C77.642830,122.640877 78.417694,121.867912 79.853714,121.235435 
	C80.517326,121.088493 80.876709,121.102135 81.505821,121.113678 
	C82.484100,121.332497 83.032150,121.721153 83.061951,122.807541 
z"/>
<path fill="#8B6823" opacity="1.000000" stroke="none" 
	d="
M83.062805,123.299515 
	C82.630798,122.618858 82.353889,122.112816 81.926262,121.359177 
	C82.924850,121.069397 84.056839,121.071770 84.851486,122.562271 
	C84.769669,123.136574 84.565033,123.407341 84.167999,123.846275 
	C83.691544,123.878510 83.438980,123.698402 83.062805,123.299515 
z"/>
<path fill="#8B6823" opacity="1.000000" stroke="none" 
	d="
M79.804214,121.080765 
	C79.541321,121.866699 78.924690,122.658546 78.154274,123.708328 
	C77.553665,124.248741 77.169708,124.180023 76.914474,123.415741 
	C77.307274,121.791946 78.130791,121.130539 79.804214,121.080765 
z"/>
<path fill="#0B0905" opacity="1.000000" stroke="none" 
	d="
M76.643303,122.956673 
	C77.055611,123.405655 77.241508,123.658615 77.769257,123.898270 
	C78.000481,123.966255 78.091774,124.438911 78.164398,124.668282 
	C77.985176,124.930428 77.733330,124.963203 77.102585,125.041153 
	C76.172951,124.564278 75.622231,124.042236 75.033127,123.232269 
	C75.431931,122.910210 75.869102,122.876083 76.643303,122.956673 
z"/>
<path fill="#0B0905" opacity="1.000000" stroke="none" 
	d="
M65.179047,112.703346 
	C64.761230,112.874695 64.468620,112.730843 64.070160,112.359924 
	C63.980778,111.915604 63.997234,111.698349 64.042419,111.155273 
	C64.482185,111.349022 64.893211,111.868584 65.179047,112.703346 
z"/>
<path fill="#0B0905" opacity="1.000000" stroke="none" 
	d="
M68.089127,115.687119 
	C67.746185,115.840759 67.438538,115.659332 67.054230,115.212067 
	C67.359856,115.081497 67.742134,115.216766 68.089127,115.687119 
z"/>
<path fill="#0B0905" opacity="1.000000" stroke="none" 
	d="
M75.105942,122.668533 
	C74.736824,122.838676 74.418762,122.669205 74.046265,122.222427 
	C74.380226,122.073059 74.768600,122.200996 75.105942,122.668533 
z"/>
<path fill="#0B0905" opacity="1.000000" stroke="none" 
	d="
M74.106064,121.668465 
	C73.736794,121.838669 73.418686,121.669258 73.046310,121.222488 
	C73.380440,121.073036 73.768845,121.200943 74.106064,121.668465 
z"/>
<path fill="#0B0905" opacity="1.000000" stroke="none" 
	d="
M70.098824,117.675598 
	C69.746246,117.837036 69.437958,117.659019 69.054794,117.213562 
	C69.367653,117.076126 69.755379,117.206131 70.098824,117.675598 
z"/>
<path fill="#0B0905" opacity="1.000000" stroke="none" 
	d="
M69.097595,116.683090 
	C68.746162,116.839355 68.438423,116.658577 68.054184,116.212006 
	C68.365555,116.079498 68.753426,116.212784 69.097595,116.683090 
z"/>
<path fill="#0B0905" opacity="1.000000" stroke="none" 
	d="
M71.100151,118.676117 
	C70.742287,118.839020 70.429962,118.663361 70.051392,118.216568 
	C70.371986,118.076141 70.758842,118.206848 71.100151,118.676117 
z"/>
<path fill="#0B0905" opacity="1.000000" stroke="none" 
	d="
M73.098816,120.670334 
	C72.741669,120.836090 72.428505,120.664093 72.050446,120.218719 
	C72.371284,120.074432 72.757034,120.203506 73.098816,120.670334 
z"/>
<path fill="#0B0905" opacity="1.000000" stroke="none" 
	d="
M66.075874,113.692123 
	C65.746315,113.842789 65.439072,113.660286 65.055199,113.211983 
	C65.351784,113.083778 65.724983,113.221375 66.075874,113.692123 
z"/>
<path fill="#0B0905" opacity="1.000000" stroke="none" 
	d="
M72.100266,119.676102 
	C71.742287,119.839043 71.429970,119.663368 71.051430,119.216560 
	C71.372108,119.076111 71.759018,119.206795 72.100266,119.676102 
z"/>
<path fill="#0B0905" opacity="1.000000" stroke="none" 
	d="
M67.086227,114.691490 
	C66.745979,114.840736 66.438080,114.659294 66.052414,114.212158 
	C66.355949,114.084579 66.737259,114.222687 67.086227,114.691490 
z"/>
<path fill="#0B0905" opacity="1.000000" stroke="none" 
	d="
M76.103683,76.311134 
	C75.629852,75.491135 75.342491,74.938744 75.503311,74.200714 
	C76.699257,74.024124 77.447029,74.033180 78.576378,73.964859 
	C80.287537,73.913269 81.157501,72.648521 82.862625,72.631065 
	C85.250923,73.081429 86.546906,74.207909 86.762009,76.727257 
	C87.671219,78.753227 89.860451,79.916786 87.169395,82.299492 
	C84.841232,84.360878 88.751709,84.594643 89.197968,86.360565 
	C89.256432,86.874474 89.185966,87.094460 88.848473,87.537109 
	C86.467056,88.951378 85.243500,86.714523 83.171165,86.504532 
	C82.832779,86.567131 82.742004,86.796867 82.855614,86.845322 
	C81.297775,88.301743 79.889137,86.528778 78.037704,86.444031 
	C77.552437,86.300018 77.364960,86.222900 76.928947,85.971573 
	C76.538200,85.653839 76.396004,85.510338 76.070953,85.126205 
	C75.672379,84.542068 75.491646,84.180847 75.236160,83.515594 
	C75.099136,83.021645 75.066818,82.816566 75.013519,82.297516 
	C74.012741,79.842850 75.828423,78.373329 76.103683,76.311134 
z"/>
<path fill="#BAA162" opacity="1.000000" stroke="none" 
	d="
M87.068535,76.970596 
	C85.699219,76.156181 84.670074,75.192932 83.382988,74.066757 
	C82.269684,73.307343 81.094238,73.308479 80.190666,72.190186 
	C81.048981,69.720451 80.352722,65.618408 83.704025,65.829063 
	C87.241425,66.051407 89.785118,69.402321 91.293015,72.437553 
	C92.927895,75.728386 89.197906,75.740395 87.068535,76.970596 
z"/>
<path fill="#060502" opacity="1.000000" stroke="none" 
	d="
M98.361221,99.102707 
	C96.410873,97.033813 94.760780,95.271149 92.921227,93.229332 
	C92.455788,92.604813 92.258194,92.220222 92.207809,91.467621 
	C92.406746,90.980095 92.549278,90.815140 93.018761,90.644150 
	C93.345711,90.638123 93.769447,90.736053 93.968033,90.824646 
	C94.462128,91.530769 95.186996,91.481903 95.738800,92.145737 
	C95.970047,92.714134 96.160469,92.946831 96.617577,93.221420 
	C98.072021,94.780319 99.321175,96.247078 100.733505,97.995354 
	C100.991196,98.569855 101.085686,98.862839 100.780632,99.364807 
	C99.790939,99.695641 99.217499,99.643150 98.361221,99.102707 
z"/>
<path fill="#060502" opacity="1.000000" stroke="none" 
	d="
M89.116104,86.864685 
	C90.551048,87.806488 91.775185,88.958481 93.172516,90.374298 
	C93.159500,90.842247 92.973297,91.046379 92.508102,91.556992 
	C91.570244,91.936203 90.963806,91.805107 90.218750,91.158020 
	C90.009636,90.916039 89.989555,91.000000 90.031448,91.010376 
	C89.813972,90.800133 89.565536,90.567802 89.160980,90.130798 
	C88.993950,89.937790 89.033630,89.994102 89.059860,89.971771 
	C88.484680,89.496811 88.212975,88.891121 88.358772,87.812134 
	C88.615105,87.345650 88.760201,87.210258 89.116104,86.864685 
z"/>
<path fill="#43351B" opacity="1.000000" stroke="none" 
	d="
M79.880463,72.198807 
	C81.215622,71.832001 82.082771,72.456161 82.982368,73.606812 
	C81.892448,74.028839 80.659859,74.153839 79.192612,74.083160 
	C79.227226,73.409714 79.496506,72.931938 79.880463,72.198807 
z"/>
<path fill="#A4843B" opacity="1.000000" stroke="none" 
	d="
M73.949036,70.114044 
	C74.434914,70.021309 74.835953,70.025291 75.531281,70.090508 
	C75.915749,70.777145 76.005913,71.402550 76.105316,72.345505 
	C75.971550,72.893547 75.828560,73.124046 75.302032,73.218704 
	C74.918495,73.082863 74.979202,73.038094 74.973785,73.075417 
	C74.503159,72.530396 73.988152,71.975929 73.932716,70.815430 
	C73.974709,70.443153 73.864182,70.210762 73.949036,70.114044 
z"/>
<path fill="#95732A" opacity="1.000000" stroke="none" 
	d="
M95.761971,92.131363 
	C95.373177,92.096390 94.905342,91.761612 94.302063,91.170029 
	C94.672058,91.219337 95.177490,91.525436 95.761971,92.131363 
z"/>
<path fill="#0B0905" opacity="1.000000" stroke="none" 
	d="
M74.686020,73.512550 
	C75.096138,72.951439 75.273781,72.820015 75.782982,72.675827 
	C76.180664,72.902420 76.246780,73.141792 76.149887,73.716110 
	C75.430618,74.650818 74.919594,74.613373 74.686020,73.512550 
z"/>
<path fill="#060502" opacity="1.000000" stroke="none" 
	d="
M101.953720,110.194786 
	C101.239273,107.131012 99.991783,104.305740 101.302078,101.196640 
	C100.367302,100.901512 99.971603,100.473305 99.772446,99.538765 
	C99.975082,99.064232 100.152145,98.899803 100.612961,98.506119 
	C102.171715,98.916046 103.448555,100.218109 104.909554,98.964745 
	C106.681976,97.444214 107.729401,98.432098 109.041428,99.636284 
	C114.021355,104.206886 114.051140,104.174431 108.196411,110.666801 
	C107.926613,111.305984 107.710846,111.611443 107.236588,112.037155 
	C106.261833,112.638824 105.501999,112.713631 104.408600,112.126190 
	C104.116493,111.850960 104.338753,111.892220 104.361420,111.781487 
	C103.691078,111.751816 103.557167,111.078262 102.909554,110.643845 
	C102.481003,110.488045 102.301086,110.450859 101.953720,110.194786 
z"/>
<path fill="#A4843B" opacity="1.000000" stroke="none" 
	d="
M118.929886,109.486618 
	C118.445358,110.457230 117.973160,111.070602 117.257553,111.842773 
	C115.269608,109.490112 116.215393,107.323578 117.592331,104.998337 
	C119.437271,106.213112 118.792648,107.779976 118.929886,109.486618 
z"/>
<path fill="#927028" opacity="1.000000" stroke="none" 
	d="
M59.715992,110.157608 
	C59.962524,110.133797 59.986664,110.578545 59.981827,110.801842 
	C59.794582,111.013969 59.612179,111.002792 59.155792,110.975464 
	C58.977699,110.624435 59.173580,110.365135 59.715992,110.157608 
z"/>
<path fill="#BEA462" opacity="1.000000" stroke="none" 
	d="
M72.536339,89.747253 
	C72.752747,87.545448 73.372345,85.485542 74.051804,83.055412 
	C74.538383,82.417236 75.001877,82.313385 75.838684,82.521744 
	C76.175232,82.669868 76.221382,82.809418 76.294098,82.820068 
	C76.435799,82.995079 76.504784,83.159447 76.584831,83.590317 
	C76.556435,84.229828 76.676620,84.533676 77.238815,84.678741 
	C77.492294,84.601639 77.400421,84.640930 77.413544,84.592728 
	C77.645203,86.177734 79.762352,86.053604 80.297256,87.844528 
	C78.502205,91.259628 75.576111,89.940987 72.536339,89.747253 
z"/>
<path fill="#A28E5E" opacity="1.000000" stroke="none" 
	d="
M88.154472,87.366562 
	C88.643890,88.093727 88.817780,88.706413 89.038872,89.634277 
	C86.481102,90.455917 84.668060,89.294594 83.065254,86.884026 
	C85.063103,82.690880 86.151398,87.161346 88.154472,87.366562 
z"/>
<path fill="#A28E5E" opacity="1.000000" stroke="none" 
	d="
M80.712814,88.138443 
	C79.179749,87.467339 78.035370,86.659973 77.486252,84.880569 
	C79.321556,84.670479 80.097420,87.248810 82.621811,86.825180 
	C82.313751,87.295197 81.658279,87.696617 80.712814,88.138443 
z"/>
<path fill="#937C4B" opacity="1.000000" stroke="none" 
	d="
M99.504059,99.175400 
	C100.114487,99.666451 100.430954,100.104248 100.902679,100.766647 
	C100.595245,101.311348 100.132561,101.631454 99.385437,102.001541 
	C98.776505,101.194839 98.452011,100.338165 98.094246,99.138992 
	C98.444016,98.905037 98.827057,99.013588 99.504059,99.175400 
z"/>
<path fill="#A28E5E" opacity="1.000000" stroke="none" 
	d="
M90.082031,91.226532 
	C90.558434,91.166862 91.107231,91.417679 91.942581,91.765991 
	C92.354797,92.104584 92.500359,92.333023 92.698776,92.749496 
	C91.607437,92.962830 90.603722,92.755501 90.082031,91.226532 
z"/>
<path fill="#A28E5E" opacity="1.000000" stroke="none" 
	d="
M89.138390,90.150925 
	C89.288734,90.130493 89.583519,90.323196 89.975830,90.768333 
	C89.809845,90.801865 89.546333,90.582962 89.138390,90.150925 
z"/>
<path fill="#645433" opacity="1.000000" stroke="none" 
	d="
M63.037117,45.537216 
	C64.821571,43.773266 66.402687,42.265450 68.158051,40.475899 
	C70.829430,37.885731 73.806313,36.016903 75.154709,32.334103 
	C75.335716,31.824432 75.562859,31.678833 76.193954,31.498878 
	C78.485069,32.065022 79.195518,33.281757 78.305954,35.524357 
	C77.454010,36.379471 76.852959,36.915272 76.149017,37.738235 
	C73.307526,42.937656 69.160530,46.655399 65.065796,50.894150 
	C64.194633,51.630051 63.503826,51.916813 62.361897,52.094036 
	C60.584698,51.951542 59.496429,51.338551 58.845604,49.645630 
	C60.156773,48.102188 61.495270,46.947765 63.037117,45.537216 
z"/>
<path fill="#5F4F30" opacity="1.000000" stroke="none" 
	d="
M76.484512,31.754061 
	C75.976715,31.949495 75.803070,31.953199 75.369003,31.963469 
	C73.207726,31.133348 72.417511,30.081343 74.252136,28.320087 
	C75.805870,26.828484 77.269768,25.243292 78.959656,23.424755 
	C80.047035,22.751024 80.884766,21.448784 81.979698,23.222885 
	C83.580383,28.303356 79.840714,29.700756 76.484512,31.754061 
z"/>
<path fill="#43351B" opacity="1.000000" stroke="none" 
	d="
M101.492210,110.019714 
	C102.007759,110.005524 102.229233,110.035156 102.781288,110.119995 
	C103.217339,110.367676 103.322807,110.560135 103.117210,110.860352 
	C101.431572,111.029411 100.614120,112.056923 99.349510,112.932411 
	C99.046371,112.603989 99.025497,112.141617 98.996857,111.331917 
	C99.725441,110.677567 100.461792,110.370552 101.492210,110.019714 
z"/>
<path fill="#997A3A" opacity="1.000000" stroke="none" 
	d="
M104.208374,112.128647 
	C104.825607,111.908371 105.534729,111.965782 106.610970,112.090294 
	C106.262917,114.149117 105.335426,113.856979 104.208374,112.128647 
z"/>
<path fill="#43351B" opacity="1.000000" stroke="none" 
	d="
M96.320847,116.102448 
	C96.181450,115.364830 96.485863,114.578476 97.749207,114.131210 
	C97.566307,114.672585 97.067535,115.298607 96.320847,116.102448 
z"/>
<path fill="#997A3A" opacity="1.000000" stroke="none" 
	d="
M103.030128,111.164658 
	C102.806152,110.968102 102.981781,110.580124 103.046829,110.377670 
	C103.600105,110.485924 104.088341,110.796631 104.480331,111.389046 
	C104.007431,111.567574 103.630768,111.464394 103.030128,111.164658 
z"/>
<path fill="#43351B" opacity="1.000000" stroke="none" 
	d="
M98.255325,113.953018 
	C98.190109,113.769386 98.401413,113.520332 98.852936,113.162186 
	C98.865364,113.296745 98.678268,113.574913 98.255325,113.953018 
z"/>
<path fill="#040302" opacity="1.000000" stroke="none" 
	d="
M76.417526,32.133610 
	C76.346786,28.148674 80.249855,27.013367 81.893829,23.820755 
	C82.748726,24.021679 83.457726,24.552853 84.457787,25.256298 
	C85.307861,27.714909 89.362923,28.060835 87.939362,31.679920 
	C87.599060,33.740784 88.947411,34.880722 89.622772,36.655716 
	C89.655937,37.222336 89.614494,37.450710 89.376564,37.967995 
	C88.961143,38.337223 88.742195,38.417538 88.205116,38.352402 
	C87.886978,38.206947 87.877121,38.130657 87.838974,38.125725 
	C87.779404,37.779747 87.621201,37.522964 87.104156,37.276344 
	C86.882088,37.202240 86.875443,37.129448 86.839020,37.126404 
	C86.708824,36.922020 86.615044,36.720680 86.198669,36.436115 
	C83.511040,36.456692 81.068130,38.235981 78.432892,35.934078 
	C77.966393,34.526371 77.891930,33.203541 76.417526,32.133610 
z"/>
<path fill="#BAA162" opacity="1.000000" stroke="none" 
	d="
M89.234161,37.033081 
	C89.339447,34.889999 84.728325,35.002708 87.550888,32.088543 
	C89.791306,32.621979 89.688179,38.148579 93.754623,34.160603 
	C95.446472,35.994118 93.264954,37.479984 93.067490,39.620392 
	C92.476784,40.428551 91.873238,40.467655 90.959183,40.097385 
	C90.520630,39.805462 90.349564,39.683327 89.944870,39.351204 
	C89.380302,38.577953 89.447220,37.934055 89.234161,37.033081 
z"/>
<path fill="#BAA162" opacity="1.000000" stroke="none" 
	d="
M96.104431,31.702518 
	C95.821861,31.972460 95.652168,31.980461 95.227432,31.996714 
	C95.221642,31.010048 94.860947,29.241247 96.067673,29.298723 
	C97.402634,29.362310 96.358414,30.667683 96.104431,31.702518 
z"/>
<path fill="#A4843B" opacity="1.000000" stroke="none" 
	d="
M61.747681,51.265892 
	C62.491730,50.796993 62.960949,50.532589 63.673679,50.147667 
	C66.091110,49.500568 66.850273,50.679726 67.000969,52.991951 
	C68.743767,56.728508 69.621979,60.507214 72.384201,63.605812 
	C73.088165,65.580658 73.563164,67.385307 74.009430,69.577728 
	C73.654449,70.093285 73.328194,70.221069 72.771912,70.200279 
	C71.702286,69.737312 70.907379,69.324326 69.821564,68.755875 
	C67.367233,66.689133 66.061363,63.943981 63.185783,62.304146 
	C62.304028,61.797077 61.800480,61.331432 60.929314,60.787907 
	C60.502323,60.408070 60.360935,60.224445 60.089508,59.717537 
	C59.996483,56.663689 60.651924,54.051235 61.747681,51.265892 
z"/>
<path fill="#645433" opacity="1.000000" stroke="none" 
	d="
M62.795189,60.774967 
	C66.716484,61.615952 67.711151,64.982704 69.853653,67.606491 
	C70.357628,68.282997 70.514641,68.730553 70.249191,69.567780 
	C68.228783,68.312668 66.408501,66.740517 64.268829,65.062828 
	C63.949440,64.957298 63.671955,64.874207 63.528427,64.880157 
	C63.318008,64.730072 63.251114,64.574020 63.070511,64.190102 
	C62.724411,63.752388 62.505257,63.529537 62.147743,63.114735 
	C61.996155,62.935791 61.997684,63.006138 62.032856,63.005280 
	C61.805382,62.792412 61.560513,62.561546 61.165497,62.122864 
	C60.997578,61.933891 61.034489,61.999260 61.067074,61.980629 
	C60.957973,61.762371 60.816288,61.562748 60.860657,61.046494 
	C61.515759,60.569664 61.997143,60.521885 62.795189,60.774967 
z"/>
<path fill="#43351B" opacity="1.000000" stroke="none" 
	d="
M76.173859,82.318573 
	C75.716820,82.694191 75.258415,82.718513 74.455826,82.714005 
	C73.948479,82.164368 73.785301,81.643547 73.379837,80.966904 
	C72.929832,78.808220 74.367355,77.761292 75.753738,76.316597 
	C77.740860,76.388466 78.050064,77.354607 76.963959,78.774170 
	C76.220978,79.745270 75.926613,80.776352 76.173859,82.318573 
z"/>
<path fill="#0B0905" opacity="1.000000" stroke="none" 
	d="
M73.550919,70.406815 
	C74.343918,71.087761 74.713135,71.732368 75.025360,72.744858 
	C74.179306,74.775185 73.428345,73.496986 72.966858,72.950188 
	C72.299896,72.159935 71.397728,71.114853 73.550919,70.406815 
z"/>
<path fill="#43351B" opacity="1.000000" stroke="none" 
	d="
M70.447052,70.157928 
	C70.037773,69.443665 70.026489,69.002510 70.011444,68.229897 
	C70.694725,68.458664 71.381760,69.018883 72.305344,69.815399 
	C72.073792,70.614388 71.508278,70.741234 70.447052,70.157928 
z"/>
<path fill="#060504" opacity="1.000000" stroke="none" 
	d="
M61.802307,50.838680 
	C64.552277,54.087612 61.931011,56.974342 61.405624,60.093613 
	C60.559765,60.601566 60.063175,60.880100 59.181206,60.922623 
	C57.554485,62.225651 56.374477,61.891232 55.055763,60.363194 
	C54.145107,59.148670 52.719574,58.823250 52.125763,57.327576 
	C51.677959,56.893162 51.469383,56.645828 51.073479,56.239830 
	C50.926430,51.777248 53.882374,50.032890 57.680656,48.782654 
	C58.057278,48.872513 58.424171,49.091606 58.621223,49.174110 
	C59.739552,49.709728 60.660824,50.162846 61.802307,50.838680 
z"/>
<path fill="#69552D" opacity="1.000000" stroke="none" 
	d="
M57.953976,48.628700 
	C55.788189,51.076874 53.519104,53.281235 51.076454,55.776325 
	C50.191929,55.997807 49.480961,55.928562 48.419754,55.769173 
	C48.052303,55.310402 48.035103,54.941772 48.022045,54.295769 
	C49.250965,52.921009 50.475739,51.823616 51.852345,50.457787 
	C52.200676,49.890720 52.418404,49.608459 52.859219,49.166672 
	C53.061081,48.990765 53.001846,49.024513 53.021385,49.052444 
	C53.835453,47.832558 54.255272,46.085579 56.657101,46.834621 
	C57.251198,47.516594 57.550938,47.950745 57.953976,48.628700 
z"/>
<path fill="#69552D" opacity="1.000000" stroke="none" 
	d="
M51.889374,57.492554 
	C53.224781,57.459145 53.918713,58.538162 54.746941,59.854053 
	C53.287819,60.087364 52.304970,59.325565 51.889374,57.492554 
z"/>
<path fill="#BDAE88" opacity="1.000000" stroke="none" 
	d="
M59.125587,61.124100 
	C59.182842,60.174877 59.729374,60.091721 60.713947,60.290733 
	C61.028828,60.259201 61.048313,60.149658 60.995178,60.133179 
	C61.174358,60.239296 61.406681,60.361893 61.337196,60.737812 
	C61.035393,60.991131 61.074265,61.475842 61.086960,61.718922 
	C60.518963,61.752956 59.938267,61.543911 59.125587,61.124100 
z"/>
<path fill="#BDAE88" opacity="1.000000" stroke="none" 
	d="
M61.139618,62.146389 
	C61.301041,62.116112 61.604504,62.298336 61.987999,62.742493 
	C61.805904,62.789246 61.543781,62.574066 61.139618,62.146389 
z"/>
<path fill="#BDAE88" opacity="1.000000" stroke="none" 
	d="
M62.127586,63.132622 
	C62.271389,63.115826 62.546623,63.295860 62.889328,63.719063 
	C62.686504,63.792877 62.453911,63.581951 62.127586,63.132622 
z"/>
<path fill="#C3AB6B" opacity="1.000000" stroke="none" 
	d="
M67.271149,53.149239 
	C66.157089,52.379406 65.316963,51.362888 64.197006,50.186760 
	C67.759682,46.124607 71.602173,42.222065 75.745392,38.172459 
	C77.404846,40.474907 74.666779,41.598289 74.116730,43.774918 
	C70.179497,45.824112 70.409035,50.485268 67.271149,53.149239 
z"/>
<path fill="#7F7050" opacity="1.000000" stroke="none" 
	d="
M96.116669,49.537361 
	C94.187614,46.800056 92.305542,44.714687 90.244003,42.369411 
	C89.944427,41.734520 89.824318,41.359539 89.593292,40.709526 
	C89.462158,40.209026 89.441940,39.983555 89.746002,39.659737 
	C91.325211,39.684940 92.022095,40.548298 92.920425,41.700428 
	C93.192848,41.895088 93.121513,41.913017 93.116051,41.876648 
	C93.233353,42.167267 93.430214,42.442696 93.925156,42.781399 
	C94.159584,42.888973 94.080734,42.919197 94.095757,42.879738 
	C94.235657,43.165775 94.428986,43.443645 94.925179,43.781521 
	C95.159584,43.889153 95.080933,43.919079 95.095741,43.879696 
	C95.233376,44.167320 95.430275,44.442772 95.925171,44.781693 
	C96.159554,44.889454 96.081131,44.918846 96.095703,44.879589 
	C96.233276,45.167278 96.430237,45.442715 96.925140,45.781677 
	C97.159531,45.889454 97.081200,45.917271 97.095695,45.878319 
	C97.234215,46.164368 97.426994,46.441547 97.923836,46.775066 
	C98.159126,46.879242 98.067291,46.930435 98.093826,46.885056 
	C98.238800,47.166164 98.428719,47.443748 98.925140,47.775551 
	C99.160149,47.878700 99.087334,47.868427 99.098679,47.833458 
	C99.479164,48.375710 99.855247,48.949902 99.871994,49.998314 
	C99.542526,51.022831 99.055130,51.444637 97.969620,51.495560 
	C97.428528,51.366970 97.223396,51.277042 96.764435,50.970665 
	C96.394951,50.565903 96.279305,50.377602 96.116669,49.537361 
z"/>
<path fill="#7F7050" opacity="1.000000" stroke="none" 
	d="
M89.606812,40.333046 
	C89.225891,40.254112 88.992775,40.047379 88.647018,39.622871 
	C88.564697,39.249237 88.618378,39.067024 88.903900,38.719444 
	C89.325569,38.551414 89.515388,38.548752 89.914734,38.738937 
	C90.124260,38.931786 90.054100,38.942963 90.059845,38.907906 
	C90.226471,39.078293 90.387360,39.283737 90.259949,39.753929 
	C89.971642,40.018677 89.731262,40.231594 89.606812,40.333046 
z"/>
<path fill="#7F7050" opacity="1.000000" stroke="none" 
	d="
M87.908913,38.444748 
	C88.058586,38.188267 88.230202,38.169582 88.655396,38.203270 
	C89.110519,38.361073 89.312073,38.466507 89.251999,38.790947 
	C88.990372,39.009953 88.756783,39.224266 88.633896,39.327858 
	C88.264198,39.223213 88.070808,38.973579 87.908913,38.444748 
z"/>
<path fill="#7F7050" opacity="1.000000" stroke="none" 
	d="
M86.936455,37.436859 
	C87.172600,37.338501 87.463112,37.474762 87.777229,37.865906 
	C87.445045,38.125702 87.175041,37.975929 86.936455,37.436859 
z"/>
<path fill="#7F7050" opacity="1.000000" stroke="none" 
	d="
M85.951859,36.561607 
	C86.246460,36.191750 86.537544,36.283142 86.775955,36.875214 
	C86.474106,37.159760 86.215782,37.042080 85.951859,36.561607 
z"/>
<path fill="#0B0905" opacity="1.000000" stroke="none" 
	d="
M101.743958,48.896076 
	C103.202812,49.879066 103.866508,48.847969 104.809189,47.803444 
	C108.285423,47.845619 108.953384,51.353680 111.679268,52.923641 
	C112.497086,53.594891 112.985901,54.153999 113.683212,54.901680 
	C114.282707,55.814960 113.908394,56.276756 113.038162,56.582039 
	C112.238098,56.819386 111.747345,57.149136 111.104843,57.735023 
	C110.741531,58.222565 110.528831,58.452950 110.134499,58.833027 
	C109.953972,58.983746 110.002617,59.007858 110.002586,58.980713 
	C109.789131,59.207924 109.561646,59.449020 109.134033,59.841881 
	C108.947952,60.006908 109.008743,60.001526 108.998062,59.972939 
	C108.788124,60.207302 108.566666,60.449989 108.133301,60.830097 
	C107.943611,60.987778 108.001556,61.006832 108.002579,60.976349 
	C107.803947,61.191441 107.589096,61.422913 107.189041,61.805378 
	C107.019028,61.970478 106.968956,61.972309 106.973480,61.996948 
	C106.862083,62.198318 106.746162,62.375050 106.314529,62.522850 
	C104.349045,60.947269 102.699280,59.400623 100.759979,57.676788 
	C100.470451,57.499599 100.270027,57.588921 100.273148,57.698593 
	C100.070923,57.714783 99.865578,57.621300 99.450523,57.261032 
	C97.950134,54.849632 99.660339,53.066105 99.988632,50.772640 
	C100.084473,49.975605 100.244011,49.555397 100.777740,48.979301 
	C101.063156,48.790901 101.513496,48.889839 101.743958,48.896076 
z"/>
<path fill="#D1BC83" opacity="1.000000" stroke="none" 
	d="
M112.760880,56.909412 
	C113.062218,56.169678 113.395576,55.849720 113.810318,55.310005 
	C114.527672,53.647278 114.317810,51.202007 116.232918,51.158051 
	C118.074501,51.115776 118.210571,53.512115 118.785721,54.957481 
	C119.319885,56.299831 119.429794,57.811001 119.610580,59.618134 
	C119.230034,60.357155 118.965401,60.725891 118.594276,61.298416 
	C115.914597,63.673237 113.341408,65.844269 110.041565,68.628387 
	C110.948654,64.200714 112.855537,60.975529 112.760880,56.909412 
z"/>
<path fill="#CBB98A" opacity="1.000000" stroke="none" 
	d="
M106.083542,62.641884 
	C106.160469,62.411873 106.322121,62.329826 106.730896,62.134682 
	C106.758453,62.330742 107.233559,63.372055 106.083542,62.641884 
z"/>
<path fill="#CBB98A" opacity="1.000000" stroke="none" 
	d="
M107.193893,61.810902 
	C107.070679,61.617760 107.246071,61.344391 107.774399,61.048115 
	C107.799088,61.187412 107.587471,61.422565 107.193893,61.810902 
z"/>
<path fill="#CBB98A" opacity="1.000000" stroke="none" 
	d="
M108.147629,60.845757 
	C108.120117,60.690426 108.296631,60.393078 108.730263,60.020042 
	C108.820580,60.235241 108.608665,60.488365 108.147629,60.845757 
z"/>
<path fill="#CBB98A" opacity="1.000000" stroke="none" 
	d="
M109.128586,59.836433 
	C109.141113,59.726589 109.334267,59.446274 109.764992,59.059761 
	C109.777512,59.196930 109.546402,59.434395 109.128586,59.836433 
z"/>
<path fill="#CBB98A" opacity="1.000000" stroke="none" 
	d="
M110.148766,58.847263 
	C110.121094,58.694645 110.288208,58.405544 110.704216,58.053795 
	C110.796013,58.270061 110.592827,58.509937 110.148766,58.847263 
z"/>
<path fill="#141109" opacity="1.000000" stroke="none" 
	d="
M100.900742,48.475826 
	C101.053520,49.258629 101.043877,49.726360 101.026855,50.544895 
	C100.718193,51.306808 100.321915,51.444515 99.616592,51.029175 
	C99.248314,50.011547 99.094063,49.273537 99.024925,48.167007 
	C99.893196,46.838696 100.222931,47.917011 100.900742,48.475826 
z"/>
<path fill="#141109" opacity="1.000000" stroke="none" 
	d="
M90.239182,40.203888 
	C89.953224,39.824940 89.934814,39.631207 89.990997,39.155159 
	C91.276978,37.805130 91.582184,39.384167 92.669022,39.799561 
	C93.227081,40.402328 93.452957,40.856010 93.435837,41.602390 
	C91.847397,42.195866 91.357002,40.971531 90.239182,40.203888 
z"/>
<path fill="#141109" opacity="1.000000" stroke="none" 
	d="
M94.293350,42.512863 
	C93.798340,42.750988 93.437096,42.612999 93.093216,42.157646 
	C93.648514,41.499115 94.087196,41.598679 94.293350,42.512863 
z"/>
<path fill="#141109" opacity="1.000000" stroke="none" 
	d="
M95.293488,43.513092 
	C94.798370,43.751095 94.437149,43.613037 94.093353,43.157631 
	C94.648781,42.499390 95.087486,42.599041 95.293488,43.513092 
z"/>
<path fill="#141109" opacity="1.000000" stroke="none" 
	d="
M96.293488,44.513329 
	C95.798477,44.751228 95.437408,44.613003 95.093445,44.157547 
	C95.648674,43.499428 96.087463,43.599136 96.293488,44.513329 
z"/>
<path fill="#141109" opacity="1.000000" stroke="none" 
	d="
M97.293365,45.513260 
	C96.798531,45.751198 96.437523,45.612938 96.093399,45.157505 
	C96.648392,44.499252 97.087204,44.598896 97.293365,45.513260 
z"/>
<path fill="#141109" opacity="1.000000" stroke="none" 
	d="
M98.288651,46.503563 
	C97.797707,46.746407 97.436279,46.613571 97.092529,46.160049 
	C97.643715,45.493378 98.079605,45.590057 98.288651,46.503563 
z"/>
<path fill="#141109" opacity="1.000000" stroke="none" 
	d="
M99.292480,47.505943 
	C98.791801,47.747795 98.423454,47.616890 98.087738,47.162827 
	C98.653320,46.501373 99.087967,46.599941 99.292480,47.505943 
z"/>
<path fill="#B89F5F" opacity="1.000000" stroke="none" 
	d="
M57.126137,46.841171 
	C55.446815,46.880161 54.625710,48.014240 53.330273,48.933517 
	C53.144207,47.096268 53.107082,44.882938 55.602661,44.398579 
	C56.906857,44.145451 57.722584,45.094864 57.126137,46.841171 
z"/>
<path fill="#B89F5F" opacity="1.000000" stroke="none" 
	d="
M52.853554,49.160583 
	C52.859066,49.287048 52.657055,49.583332 52.229607,50.034485 
	C52.218128,49.903038 52.432083,49.616718 52.853554,49.160583 
z"/>
<path fill="#5F5F61" opacity="1.000000" stroke="none" 
	d="
M39.118477,72.217422 
	C39.084312,72.275681 38.822926,71.968040 38.822926,71.968040 
	C38.822926,71.968040 39.098019,71.941597 39.181324,72.012619 
	C39.264629,72.083649 39.152641,72.159164 39.118477,72.217422 
z"/>
<path fill="#A18645" opacity="1.000000" stroke="none" 
	d="
M99.103592,50.690063 
	C99.763947,50.762939 100.125336,50.776321 100.753098,50.842705 
	C102.896141,53.309811 99.327446,54.302887 99.700714,56.649014 
	C99.432396,57.349247 98.999611,57.482178 98.219833,57.205215 
	C97.521599,56.985004 97.107285,56.984726 96.383072,56.981834 
	C96.002609,56.581821 95.932045,56.184414 95.844528,55.484406 
	C96.219070,53.608837 95.204720,51.860249 96.770058,50.162079 
	C97.677567,50.165657 98.241104,50.398113 99.103592,50.690063 
z"/>
<path fill="#A78639" opacity="1.000000" stroke="none" 
	d="
M97.073860,49.910370 
	C96.902908,51.482189 97.214684,53.122257 96.068695,54.866104 
	C94.964111,53.654655 94.100655,52.127510 93.130150,50.286705 
	C93.827713,49.663437 94.632317,49.353836 95.753304,48.964832 
	C96.069679,48.885426 96.099205,48.957527 96.089935,48.995365 
	C96.216423,49.185291 96.352196,49.337376 96.714981,49.694340 
	C96.942009,49.899216 97.033684,49.887539 97.073860,49.910370 
z"/>
<path fill="#BFA970" opacity="1.000000" stroke="none" 
	d="
M98.152588,57.234386 
	C98.349556,57.003677 98.763206,57.022068 99.484665,57.018879 
	C99.940437,57.092430 100.088417,57.187553 100.256332,57.545471 
	C99.640602,57.700005 99.004936,57.591747 98.152588,57.234386 
z"/>
<path fill="#43351B" opacity="1.000000" stroke="none" 
	d="
M76.425079,84.059357 
	C76.167068,83.626221 76.178322,83.206261 76.272568,83.018494 
	C76.787796,83.090530 77.208786,83.350342 77.598175,83.808327 
	C77.272079,84.168495 76.977585,84.330490 76.425079,84.059357 
z"/>
<path fill="#A28E5E" opacity="1.000000" stroke="none" 
	d="
M76.332962,83.856316 
	C76.400742,83.688011 76.634422,83.749809 77.217339,83.909058 
	C77.566566,84.006500 77.627342,84.316208 77.559814,84.458923 
	C77.161148,84.429901 76.830002,84.258156 76.332962,83.856316 
z"/>
<path fill="#141109" opacity="1.000000" stroke="none" 
	d="
M89.277542,39.044128 
	C88.990372,39.009953 88.927223,38.635178 88.918098,38.445404 
	C88.944504,38.003174 88.980026,37.750717 89.070404,37.119789 
	C89.631500,37.285778 90.137733,37.830227 90.384109,38.653229 
	C89.937744,38.980621 89.751236,39.029461 89.277542,39.044128 
z"/>
<path fill="#060504" opacity="1.000000" stroke="none" 
	d="
M61.379250,60.975300 
	C61.035393,60.991131 60.756821,60.578644 60.849430,60.347672 
	C61.621101,58.586430 62.174763,59.880775 62.936478,60.588123 
	C62.641808,60.972034 62.182457,60.965752 61.379250,60.975300 
z"/>
<path fill="#A18645" opacity="1.000000" stroke="none" 
	d="
M96.852402,49.707382 
	C96.695061,49.768700 96.483871,49.594761 96.194550,49.205303 
	C96.363106,49.116142 96.590485,49.276920 96.852402,49.707382 
z"/>
</svg>