<?xml version="1.0" encoding="UTF-8"?>
<svg id="Layer_2" data-name="Layer 2" xmlns="http://www.w3.org/2000/svg" xmlns:xlink="http://www.w3.org/1999/xlink" viewBox="0 0 486 486">
  <defs>
    <style>
      .cls-1 {
        fill: #fff;
      }

      .cls-2 {
        fill: #2775ca;
      }

      .cls-3 {
        fill: url(#linear-gradient);
        filter: url(#drop-shadow-1);
      }
    </style>
    <linearGradient id="linear-gradient" x1="11.21" y1="241.5" x2="471.25" y2="241.5" gradientUnits="userSpaceOnUse">
      <stop offset="0" stop-color="#28f7d7"/>
      <stop offset=".59" stop-color="#5f75f9"/>
      <stop offset=".99" stop-color="#8f5afa"/>
    </linearGradient>
    <filter id="drop-shadow-1" filterUnits="userSpaceOnUse">
      <feOffset dx="1.65" dy="1.65"/>
      <feGaussianBlur result="blur" stdDeviation="4.11"/>
      <feFlood flood-color="#000" flood-opacity=".18"/>
      <feComposite in2="blur" operator="in"/>
      <feComposite in="SourceGraphic"/>
    </filter>
  </defs>
  <g id="Layer_1-2" data-name="Layer 1">
    <g>
      <path class="cls-3" d="M241.23,471.52c127.04,0,230.02-102.98,230.02-230.02S368.27,11.48,241.23,11.48,11.21,114.46,11.21,241.5s102.98,230.02,230.02,230.02Z"/>
      <path class="cls-2" d="M242.86,32.39c115.49,0,209.11,93.62,209.11,209.11s-93.62,209.11-209.11,209.11c-115.49,0-209.11-93.62-209.11-209.11,0-115.49,93.62-209.11,209.11-209.11Z"/>
    </g>
    <g>
      <path class="cls-1" d="M299.09,45.55s0,.02-.01,.05v-.04s0,0,0,0h.02Z"/>
      <path class="cls-1" d="M344.42,298.65c2.38-5.5,4.33-11.22,5.8-17.14,2.17-8.69,3.32-17.78,3.32-27.14,0-50.04-32.93-92.39-78.32-106.59v32.41c0,1.18,.03,2.36,.08,3.53,26.43,12.55,44.71,39.47,44.71,70.65,0,.33,0,.67,0,1-.08,6.83-1.05,13.45-2.78,19.75-2.41,8.78-6.32,16.94-11.43,24.19l-.12,.16c-.07,.1-.14,.19-.21,.29-1.61,2.25-3.34,4.42-5.18,6.49-8.4,9.45-19.06,16.86-31.13,21.36-8.52,3.18-17.75,4.92-27.39,4.92-17.37,0-33.43-5.66-46.41-15.24-2.19,1.54-4.33,3.21-6.39,4.99l-19.71,17.05c19.52,16.64,44.84,26.69,72.51,26.69s52.5-9.85,71.94-26.21c4.3-3.61,8.31-7.54,12.02-11.76,7.67-8.71,14-18.63,18.67-29.43Z"/>
      <path class="cls-1" d="M353.55,352.13l-15.12-13.08c7.64-8.7,14.12-18.43,19.2-28.97l18.49,16c2.88,2.49,3.19,6.84,.7,9.72l-13.55,15.63c-2.49,2.88-6.85,3.19-9.73,.7Z"/>
      <path class="cls-1" d="M207.23,148.14c-44.8,14.55-77.19,56.61-77.19,106.23,0,9.07,1.08,17.89,3.13,26.34l30.4-26.31v-.03c0-30.73,17.74-57.32,43.55-70.09,.07-1.36,.11-2.72,.11-4.09v-32.05Z"/>
      <path class="cls-1" d="M302.72,262.56c-1.78,13.33-7.83,25.3-16.74,34.51-32.69-17.11-73.04-14.22-103.15,8.68l-.11,.09c-1.6,1.22-3.16,2.48-4.7,3.81l-49.1,42.5c-2.88,2.49-7.23,2.18-9.74-.7l-13.55-15.64c-2.49-2.88-2.18-7.23,.7-9.72l84.31-72.95c21.18-18.33,33.35-44.93,33.35-72.92v-62.76c-.01-.4-.03-.83-.03-1.26v-31.63c0-3.82,3.11-6.93,6.93-6.93h20.66c3.84,0,6.94,3.11,6.94,6.93v34.48c-.01,.07-.01,.16-.03,.23v60.94c0,27.99,12.17,54.6,33.35,72.92l10.9,9.44Z"/>
      <path class="cls-1" d="M223.97,116.18c0,.43,.01,.86,.03,1.26v60.91c-.01-.23-.03-.46-.03-.7v-61.47Z"/>
      <path class="cls-1" d="M258.5,119.03v58.62c0,.24-.01,.47-.03,.7v-59.09c.01-.07,.01-.16,.03-.23Z"/>
    </g>
  </g>
</svg>