<?xml version="1.0" encoding="utf-8"?>
<!-- Generator: Adobe Illustrator 26.2.1, SVG Export Plug-In . SVG Version: 6.00 Build 0)  -->
<svg version="1.1" id="Calque_1" xmlns="http://www.w3.org/2000/svg" xmlns:xlink="http://www.w3.org/1999/xlink" x="0px" y="0px"
	 viewBox="0 0 1000 1000" style="enable-background:new 0 0 1000 1000;" xml:space="preserve">
<style type="text/css">
	.st0{fill:url(#SVGID_1_);}
	.st1{fill:#292835;}
</style>
<g>
	
		<radialGradient id="SVGID_1_" cx="494.5061" cy="467.3149" r="118.8298" gradientTransform="matrix(9.183 0 0 9.183 -4093.7197 -4092.6096)" gradientUnits="userSpaceOnUse">
		<stop  offset="0" style="stop-color:#38B187"/>
		<stop  offset="0.2995" style="stop-color:#009578"/>
		<stop  offset="1" style="stop-color:#02594E"/>
	</radialGradient>
	<circle class="st0" cx="500" cy="500" r="500"/>
	<g>
		<path class="st1" d="M579.56,220.1c54.23-0.05,103.22,21.28,139.12,56.19c35.91,34.94,58.69,83.48,60.45,137.75
			c0.19,5.63,0.27,6.27,0.27,6.95c0,55.01-20.9,103.73-55.67,139.27h-0.18c-23,23.5-51.99,41.09-84.92,50.75
			c51.47,51.45,93.65,93.71,177.44,177.6C885.6,712.51,928.03,611.21,928.03,500c0-236.39-191.64-428.03-428.03-428.03
			c-129.42,0-245.43,57.44-323.91,148.22L579.56,220.1z"/>
		<path class="st1" d="M425.61,527.22h153.46c4.53,0,2.4,0.14,4.16,0.09c29.96-0.97,56.06-12.7,74.56-31.56l-0.1-0.08
			C675.99,476.95,687,450.85,687,421c0-4.35,0.15-2.13,0.09-4.07c-0.95-29.44-13.25-55.73-32.66-74.6
			c-19.29-18.78-45.67-30.24-74.88-30.21l-464.29,0.12C87.55,368.94,71.97,432.65,71.97,500c0,236.39,191.63,428.03,428.03,428.03
			c92.04,0,177.3-29.06,247.1-78.5C601.16,703.24,483.08,584.69,425.61,527.22z M365.69,761.64H273.6V363.51l92.09,73.46V761.64z"/>
	</g>
</g>
</svg>
