<svg width="400" height="400" viewBox="0 0 400 400" fill="none" xmlns="http://www.w3.org/2000/svg">
<path d="M147.104 63.2456C146.867 64.9597 145.586 65.5765 143.796 65.7861C141.745 67.4436 140.105 69.4219 137.271 69.4719C136.492 69.4857 135.924 70.2228 135.479 70.8844C134.962 71.6543 134.262 72.1199 133.346 72.2235C131.868 72.3905 130.761 73.1365 129.882 74.3068C129.349 75.0153 128.669 75.6137 127.771 75.738C126.082 75.9719 124.899 76.8296 124.093 78.3131C123.797 78.8572 123.266 79.2522 122.653 79.3633C120.894 79.6823 119.673 80.6782 118.818 82.2015C118.692 82.426 118.514 82.7087 118.289 82.7622C115.146 83.5091 113.807 86.7051 111.098 88.0367C110.22 88.4679 109.495 89.1171 109.085 90.0111C108.586 91.0999 107.869 91.8657 106.686 92.2163C105.53 92.559 104.775 93.4114 104.315 94.4901C103.759 95.7954 102.836 96.6036 101.272 96.9206C101.001 97.0227 100.897 97.0655 100.509 97.266C100.143 97.4874 100.06 97.5512 99.7681 97.8391C99.5023 98.1483 99.446 98.2332 99.3165 98.4536C99.201 98.684 99.1588 98.779 99.0618 99.0217C98.8161 99.6759 98.7341 100.22 98.3715 100.836C97.3632 101.588 96.2513 101.919 95.4773 103.008C94.6868 103.699 94.6695 104.518 94.4892 105.456C94.3937 105.722 94.3445 105.823 94.1877 106.051C93.652 106.506 93.1029 106.573 92.5304 106.939C92.111 107.304 91.8069 107.569 91.3853 107.927C91.1989 108.093 91.1252 108.162 90.8687 108.486C90.4259 109.269 90.4579 109.855 90.3253 110.584C90.2472 110.855 90.2054 110.959 90.0688 111.198C89.7302 111.546 89.4407 111.677 89.0121 111.869C88.7886 111.981 88.7006 112.027 88.4851 112.15C88.1901 112.335 88.0224 112.442 87.7294 112.634C87.4329 112.829 87.2601 112.936 86.9538 113.125C86.5429 113.367 86.2492 113.476 85.7887 113.404C84.0636 113.319 82.4744 113.317 80.6472 113.315C80.0408 112.922 79.972 112.464 80.2009 111.731C82.2496 109.064 84.1939 106.608 86.2087 104.211C86.5069 103.856 87.1382 103.782 87.7839 103.486C88.2428 102.943 88.2492 102.375 88.6076 101.779C88.6763 101.544 88.6595 101.415 88.7098 101.378C91.4676 99.3577 93.0234 96.0433 96.1504 94.4356C96.883 94.0589 97.4917 93.7038 97.6617 92.81C97.7387 92.4049 97.9602 91.8011 98.2575 91.6991C101.438 90.6077 102.722 87.0279 105.878 85.945C106.733 85.6517 107.427 85.2705 107.778 84.3411C107.951 83.8841 108.356 83.2908 108.766 83.1833C111.954 82.3491 113.945 79.6487 116.617 78.0128C119.205 76.4283 122.119 75.2888 124.454 73.2564C126.304 71.6465 128.724 70.9112 130.851 69.9128C136.081 67.4583 141.285 64.8179 147.104 63.2456Z" fill="#D5A52F"/>
<path d="M136.905 331.639C132.398 330.369 128.498 328.001 124.439 325.914C121.76 324.537 119.214 322.933 116.729 321.343C113.905 319.536 111.037 317.701 108.35 315.596C106.053 313.798 104.037 311.475 101.325 310.223C99.7465 309.493 98.9867 308.234 98.2729 306.615C97.9466 306.275 97.7193 306.092 97.2798 306.006C95.447 305.792 94.4677 304.812 94.0721 303.016C93.923 302.213 93.4658 301.84 92.8087 301.447C91.6332 301.517 90.8625 301.157 90.3044 300.115C90.006 297.1 92.3355 297.894 93.9993 297.453C94.3464 297.467 94.4836 297.479 94.8209 297.528C95.1492 297.599 95.2774 297.634 95.5889 297.737C95.8886 297.854 96.0051 297.905 96.2904 298.035C97.3733 298.67 98.4444 298.932 99.3886 299.762C99.7176 300.266 99.8458 300.68 100.097 301.204C100.344 301.585 100.476 301.852 100.56 302.283C100.57 302.42 100.533 302.677 100.51 302.797C100.487 302.916 100.578 303.135 100.674 303.205C100.946 303.262 101.122 303.252 101.448 303.272C102.545 303.653 103.454 304.064 104.126 305.108C104.484 305.79 104.59 306.38 104.905 307.059C105.027 307.287 105.078 307.374 105.214 307.578C105.43 307.833 105.571 307.958 105.853 308.132C106.071 308.231 106.162 308.265 106.397 308.338C106.745 308.415 106.952 308.443 107.331 308.471C107.849 308.501 108.337 308.439 108.505 308.655C110.329 311 113.022 312.317 115.117 314.332C115.234 314.444 115.242 314.697 115.371 314.776C118.255 316.55 120.404 319.243 123.436 321.11C123.973 321.293 124.309 321.465 124.789 321.761C125.947 322.835 126.366 324.461 128.254 324.693C130.655 325.931 132.451 327.792 135.15 328.246C136.412 328.458 137.29 329.881 136.905 331.639Z" fill="#D5A52F"/>
<path d="M95.1979 297.99C93.3903 298.253 91.5602 297.826 90.3067 299.744C89.2962 298.515 87.462 297.369 86.8899 296.223C85.3563 293.15 81.4724 292.043 80.8957 288.427C80.8062 287.866 80.5428 287.456 80.025 287.239C78.1139 286.438 76.8866 285.138 76.8366 282.953C76.8193 282.199 76.2098 282.036 75.6757 281.737C74.1423 280.881 73.1775 279.634 73.1996 277.591C76.3459 278.695 79.5242 279.986 82.8648 281.377C83.2551 281.711 83.513 281.9 83.9659 282.083C84.3695 282.338 84.5801 282.57 84.8643 282.939C85.0139 283.137 85.073 283.216 85.3334 283.502C85.6959 283.821 85.864 283.922 86.1794 284.074C86.5142 284.234 86.6893 284.358 86.9481 284.644C87.498 285.621 87.1424 286.707 88.0163 287.56C88.6014 288.03 89.0202 288.424 89.5638 288.934C90.6544 289.853 91.4956 290.74 91.8105 292.177C92.1576 292.644 92.4065 292.983 92.7424 293.446C93.0811 293.907 93.4177 294.089 94.0043 294.153C94.8154 294.374 95.2245 294.818 95.5589 295.604C95.7501 296.505 95.7309 297.191 95.1979 297.99Z" fill="#D5A52F"/>
<path d="M58.6186 247.775C59.0048 247.356 59.3593 247.068 59.7607 246.968C64.4261 245.804 64.5519 246.011 63.9925 250.774C63.6916 253.335 63.8409 255.949 63.8066 258.785C62.8607 259.006 61.8407 258.374 61.7923 257.699C61.539 254.171 58.2504 251.676 58.6186 247.775Z" fill="#D5A52F"/>
<path d="M64.3485 162.855C61.4248 165.2 58.195 166.47 54.5275 167.224C53.6394 165.337 53.8395 163.632 55.3011 162.179C55.8223 161.66 56.1241 161.073 55.9674 160.313C55.5689 158.381 55.9765 156.698 57.5136 155.372C58.132 154.838 58.0489 154.147 57.9615 153.448C57.7557 151.802 58.0676 150.341 59.461 149.262C60.0594 148.799 60.2955 148.176 60.1973 147.427C59.9637 145.645 60.5204 144.173 61.951 143.07C62.6408 142.538 62.8911 141.87 62.7865 141.022C62.7443 140.681 62.634 140.209 62.8042 140.002C64.9835 137.341 65.4823 133.771 67.6492 131.115C67.7558 130.984 68.025 130.919 68.0448 130.795C68.5362 127.73 70.9773 125.733 72.3225 122.907C72.529 122.384 72.6866 122.065 72.9323 121.595C74.6261 119.68 76.1681 117.899 76.8879 115.503C77.1538 114.618 78.1297 114.137 79.2789 113.885C79.7518 113.529 79.9915 113.154 80.5981 112.857C82.2543 112.452 83.705 112.407 85.3457 112.911C86.4188 113.754 86.3231 114.77 86.2794 115.964C86.2163 116.289 86.1793 116.414 86.0546 116.709C85.6691 117.286 85.2134 117.463 84.6466 117.767C84.1486 118.078 83.8115 118.329 83.4278 118.762C83.268 118.965 83.2066 119.048 82.995 119.404C82.5499 120.399 82.6637 121.177 82.4979 122.082C82.4213 122.343 82.3806 122.443 82.2484 122.676C81.8455 123.09 81.4487 123.214 80.9529 123.456C80.6687 123.627 80.5141 123.735 80.263 123.949C80.0963 124.117 80.0316 124.187 79.8004 124.497C79.5463 124.917 79.4709 125.103 79.3643 125.448C79.2958 125.708 79.2681 125.813 79.1984 126.076C79.0319 126.66 78.969 127.097 78.8744 127.694C78.8128 127.956 78.7805 128.058 78.675 128.299C78.4735 128.595 78.3296 128.735 78.0497 128.934C77.8594 129.066 77.784 129.117 77.6007 129.245C77.4928 129.322 77.2915 129.487 77.1192 129.677C76.8485 130.011 76.7583 130.159 76.6155 130.434C76.51 130.636 76.4653 130.716 76.3504 130.917C76.2358 131.123 76.1915 131.207 76.0451 131.569C75.7848 132.57 75.8199 133.327 75.4946 134.182C75.3725 134.425 75.3163 134.518 75.1622 134.74C74.9932 134.95 74.922 135.03 74.6277 135.337C74.3304 135.639 74.2563 135.714 73.9701 136.021C73.6935 136.338 73.6289 136.422 73.3975 136.782C72.6826 137.964 72.7544 138.991 72.643 140.156C72.5977 140.438 72.573 140.549 72.4939 140.822C72.3499 141.191 72.2505 141.392 72.0564 141.731C71.7358 142.239 71.433 142.545 70.9927 142.935C70.8059 143.11 70.7335 143.181 70.489 143.499C70.0499 144.334 70.1011 144.961 70.0865 145.744C70.0784 146.017 70.0712 146.127 70.0401 146.401C69.9893 146.674 69.9625 146.781 69.8761 147.045C69.7137 147.397 69.5963 147.585 69.3594 147.889C69.1854 148.098 69.1135 148.179 68.825 148.502C68.5401 148.828 68.472 148.912 68.2251 149.275C67.2221 150.708 67.7853 151.997 67.6494 153.388C67.5589 153.653 67.513 153.755 67.3843 153.999C67.1848 154.322 67.0689 154.503 66.881 154.825C66.7639 155.06 66.7195 155.156 66.6168 155.398C66.4883 155.75 66.4248 155.956 66.3347 156.33C66.2272 158.729 66.3987 161.035 64.3485 162.855Z" fill="#D5A52F"/>
<circle cx="200.262" cy="199.739" r="148.042" fill="#D5A52F"/>
<ellipse cx="203.5" cy="200" rx="144.5" ry="148" fill="#F4B420"/>
<path d="M73.3074 277.536C69.4066 274.632 66.9513 270.93 65.2695 266.615C64.941 265.773 64.7942 264.987 64.7457 263.919C64.1396 262.702 63.8702 261.625 64.0956 260.267C64.142 259.794 64.0933 259.51 63.9354 259.128C62.1459 256.958 63.1683 254.537 62.9662 252.275C62.9281 251.848 63.0424 251.413 63.0951 250.983C63.531 247.421 63.4854 247.373 60.0521 247.733C59.705 247.77 59.36 247.764 58.8218 247.635C49.688 247.576 41.358 245.388 34.4613 239.584C27.0553 233.352 19.5198 227.154 15.5291 217.825C14.5947 215.641 11.9531 214.651 10.0663 213.172C5.62502 209.69 4.07514 204.931 5.77988 199.561C6.69658 196.673 7.729 193.912 9.3796 191.304C13.493 184.805 19.9817 182.429 26.8931 180.714C30.0778 179.924 33.3155 179.342 36.5399 178.722C37.4952 178.538 38.0338 178.252 38.1748 177.126C38.6182 173.586 41.096 171.732 44.1705 170.632C47.4261 169.468 50.7602 168.523 54.1869 167.347C57.2313 165.4 60.7514 164.838 63.6996 162.661C66.5529 161.208 68.094 158.551 70.5593 156.655C73.1543 154.231 75.9249 152.447 79.313 151.297C82.3565 150.464 85.2108 149.682 88.1421 149.269C89.9467 149.016 90.6437 148.047 90.6363 146.264C90.6278 144.234 90.4875 142.306 89.3657 140.506C87.8634 138.094 87.7861 135.367 88.1265 132.662C88.5954 128.937 89.4671 125.291 91.2085 121.93C92.8141 118.831 94.2741 115.65 95.2748 112.331C97.5377 104.827 102.79 100.691 110.204 98.5275C112.153 98.3557 113.89 98.3728 115.837 98.4875C117.67 98.5875 119.067 99.3479 120.404 100.141C123.86 102.192 127.526 103.801 131.237 105.289C135.217 106.886 138.903 109.012 142.556 111.208C144.567 112.417 146.494 112.551 148.749 111.672C153.316 109.892 158.103 108.967 163.027 108.926C164.461 108.914 165.744 108.53 167.015 107.884C172.926 104.879 178.951 104.53 185.179 106.987C192.98 110.066 200.519 113.624 207.267 118.658C209.005 119.955 209.861 119.445 210.556 117.691C211.389 115.592 212.362 113.558 212.988 111.366C214.944 104.52 221.997 102.716 227.023 107.706C229.192 109.86 230.291 112.596 231.326 115.379C232.39 118.241 232.936 121.253 233.88 124.149C234.568 126.258 235.141 126.55 236.712 124.976C239.334 122.35 240.947 119.12 241.03 115.301C241.126 110.876 242.537 107.287 246.999 105.537C250.576 104.135 254.493 105.112 257.117 108.237C259.026 110.512 261.075 112.642 263.298 114.594C264.968 116.06 265.525 115.807 265.939 113.6C266.163 112.404 266.203 111.178 266.498 109.99C267.139 107.415 268.11 107.053 270.374 108.548C271.755 109.46 272.776 110.833 274.44 111.693C276.605 114.188 278.968 116.062 282.181 117.021C282.762 117.275 283.094 117.615 283.703 117.777C284.313 117.859 284.754 117.935 285.346 118.109C285.911 118.344 286.23 118.674 286.814 118.867C287.195 118.964 287.413 119.026 287.795 119.14C289.176 119.623 290.392 120.054 291.811 120.429C292.574 120.584 293.126 120.811 293.851 121.087C294.355 121.272 294.677 121.435 295.211 121.538C300.801 123.393 304.919 126.85 308.03 131.572C309.225 133.387 310.328 135.263 311.76 137.122C312.109 137.591 312.321 137.959 312.854 138.204C313.186 138.31 313.377 138.369 313.712 138.472C314.145 138.604 314.431 138.699 314.877 138.788C315.229 138.854 315.43 138.899 315.778 138.991C316.224 139.12 316.517 139.219 316.974 139.313C317.334 139.378 317.539 139.423 317.896 139.512C318.355 139.635 318.656 139.735 319.129 139.805C319.612 139.861 319.933 139.916 320.415 140.008C320.9 140.117 321.214 140.228 321.712 140.292C322.221 140.35 322.558 140.414 323.068 140.511C323.587 140.623 323.921 140.755 324.461 140.807C327.99 141.467 330.658 143.345 333.31 145.633C336.081 148.54 338.788 151.236 342.156 153.461C346.971 156.371 352.182 157.732 357.337 159.2C361.537 160.396 365.597 161.596 366.135 166.919C366.217 167.729 366.843 168.006 367.598 168.152C371.073 168.825 374.579 169.383 378.003 170.259C390.42 173.434 396.989 178.881 399.248 192.695C399.86 196.441 397.847 199.909 394.772 202.169C391.316 204.709 388.547 207.495 386.47 211.421C383.153 217.691 377.575 222.177 372.369 226.923C367.219 231.618 361.362 234.726 354.624 236.223C351.374 236.945 348.046 236.448 344.519 236.528C343.859 236.58 343.456 236.808 343.025 236.77C340.852 236.579 340.665 237.825 340.901 239.533C341.252 242.079 341.686 244.643 340.628 247.33C340.335 253.881 338.281 259.559 334.016 264.572C332.585 266.179 330.997 267.364 329.212 268.609C327.804 269.369 326.475 269.838 324.98 270.422C324.542 270.575 324.283 270.64 323.82 270.725C319.441 272.445 315.027 273.032 310.393 273.605C309.626 273.794 309.054 273.848 308.261 273.856C306.889 273.894 305.715 273.7 304.379 274.209C300.815 274.63 297.464 274.499 293.889 274.336C293.228 274.211 292.816 274.048 292.248 273.716C291.97 273.508 291.869 273.415 291.656 273.156C290.452 268.189 289.802 263.258 287.186 258.922C286.292 257.439 285.478 255.909 284.48 254.49C283.683 253.357 282.915 253.251 282.11 254.525C281 256.283 279.907 258.051 278.792 259.805C276.187 263.901 273.402 267.869 270.071 271.66C267.591 274.707 264.872 277.279 262.172 280.117C260.138 282.453 257.664 283.989 255.306 285.943C252.517 288.515 249.393 290.322 246.321 292.505C245.98 292.739 245.772 292.848 245.394 293.003C244.773 293.17 244.405 293.435 243.927 293.857C240.984 295.451 238.289 297.159 235.083 298.233C234.431 298.365 234.024 298.597 233.495 298.989C232.35 299.567 231.285 299.848 230.075 300.278C229.245 300.447 228.715 300.803 228.015 301.284C219.61 304.374 211.101 305.769 202.38 306.354C185.586 307.48 169.564 304.389 154.04 298.159C152.249 297.441 150.713 296.285 148.806 295.38C141.44 291.018 134.431 286.491 128.1 280.996C125.081 278.375 122.004 275.822 119.212 272.944C116.819 270.479 116.354 270.624 115.141 273.94C115.051 274.184 114.984 274.437 114.835 274.849C114.578 275.431 114.238 275.761 114.03 276.358C113.931 276.748 113.872 276.972 113.769 277.371C113.555 278.022 113.524 278.516 113.557 279.219C113.517 280.997 113.814 282.672 112.127 283.947C110.937 284.412 109.838 284.137 108.639 284.631C106.461 285.001 104.497 284.949 102.312 284.742C100.872 284.23 99.5912 284.276 98.1094 284.292C97.2394 284.311 96.576 284.295 95.7289 284.175C95.0647 284.067 94.5941 283.935 93.9242 283.982C92.9045 283.995 92.1043 283.749 91.1175 283.549C90.4946 283.39 90.0556 283.217 89.403 283.207C88.8714 283.174 88.521 283.116 87.997 283.016C87.3664 282.862 86.9223 282.69 86.2649 282.657C85.8473 282.608 85.6098 282.567 85.1951 282.479C84.4334 282.238 83.8275 282.148 83.0316 282.041C79.4859 281.053 76.2958 279.731 73.3074 277.536Z" fill="#F9F8F6"/>
<path d="M248.755 125.468C248.731 121.799 248.585 118.237 248.446 114.674C248.404 113.594 248.462 112.528 249.669 112.053C250.954 111.548 251.574 112.507 252.223 113.319C256.801 119.048 262.444 123.445 268.91 126.865C270.504 127.708 271.086 127.596 271.374 125.691C271.656 123.832 271.175 121.169 272.608 120.347C273.832 119.644 275.578 121.864 277.22 122.573C280.905 124.165 284.746 125.267 288.589 126.355C294.837 128.125 300.187 131.083 303.273 137.125C306.027 142.519 310.378 145.464 316.432 145.961C323.021 146.502 328.253 149.541 332.57 154.52C335.976 158.449 340.743 160.367 345.482 162.119C349.472 163.594 353.57 164.782 357.635 166.05C359.234 166.549 360.517 166.861 358.893 168.943C357.44 170.806 358.182 172.268 360.829 173.145C365.053 174.543 369.485 175.05 373.81 176.017C376.267 176.567 378.72 177.188 381.112 177.968C387.961 180.203 391.39 185.328 392.758 192.106C393.163 194.115 392.298 195.696 390.838 196.947C389.586 198.021 388.218 198.959 386.904 199.961C384.799 201.564 383.086 203.41 382.163 206.009C380.972 209.363 378.547 211.97 376.088 214.41C370.735 219.721 365.693 225.491 358.346 228.254C352.326 230.518 346.202 230.607 339.678 229.094C341.447 226.897 343.481 225.464 345.449 223.959C345.982 223.552 346.862 223.34 346.767 222.508C346.66 221.572 345.708 221.443 344.998 221.215C343.748 220.814 342.435 220.539 341.145 220.944C334.894 222.907 328.575 222.211 322.289 221.323C320.382 221.054 319.912 221.67 319.982 223.315C320.084 225.706 321.04 227.87 321.76 230.099C322.381 232.018 323.417 230.072 324.311 230.369C324.638 234.078 324.966 237.781 325.332 241.923C327.593 239.814 329.621 237.969 331.592 236.064C332.666 235.024 333.193 235.002 333.537 236.638C334.608 241.729 334.828 246.772 333.566 251.887C332.157 257.598 328.779 261.379 323.289 263.427C315.583 266.301 307.543 266.935 299.432 267.183C298.328 267.217 297.751 266.879 297.473 265.656C295.403 256.542 290.093 249.271 284.11 242.384C282.928 241.023 282.445 241.975 281.761 242.831C278.603 246.783 276.037 251.13 273.321 255.378C262.597 272.147 248.656 285.331 230.018 292.805C206.35 302.297 182.59 301.337 159.011 292.188C155.412 290.792 155.571 290.664 156.817 287.071C163 269.24 169.086 251.378 171.918 232.617C172.426 229.251 172.592 225.857 172.166 222.47C172.006 221.202 171.911 219.591 170.608 219.088C169.301 218.583 168.158 219.771 167.166 220.548C164.945 222.288 163.813 224.719 163.29 227.448C162.694 230.555 162.723 233.675 163.104 236.805C163.526 240.282 162.266 241.914 158.669 242.39C157.211 242.583 155.717 242.569 154.241 242.546C152.77 242.523 151.302 242.371 149.656 242.264C150.147 243.653 150.751 244.894 151.011 246.203C151.393 248.128 150.515 248.8 148.675 248.065C145.745 246.895 143.301 244.874 140.584 243.329C139.953 242.971 139.325 242.116 138.504 242.66C137.834 243.104 138.29 243.95 138.225 244.617C138.119 245.702 138.969 247.236 137.966 247.774C136.761 248.42 135.843 246.919 134.978 246.175C130.092 241.971 125.581 237.397 121.395 232.48C118.914 229.566 118.365 226.153 117.911 222.583C117.185 216.878 117.24 211.518 120.445 206.246C123.297 201.556 123.695 195.844 125.067 190.551C125.632 188.367 126.205 186.171 126.999 184.065C127.811 181.911 128.847 181.744 130.39 183.492C131.533 184.786 132.441 186.29 133.436 187.714C134.329 188.993 134.956 188.679 135.261 187.359C135.69 185.501 136.008 183.617 136.441 181.396C138.434 182.786 139.606 184.812 141.612 186.795C142.737 181.495 143.954 176.574 143.013 171.489C142.622 169.374 140.615 168.965 138.827 169.522C136.417 170.273 135.585 169.475 135.769 167.145C135.927 165.155 135.355 164.094 133.123 164.921C131.697 165.449 131.193 164.677 131.275 163.392C131.455 160.542 130.291 159.204 127.328 159.612C124.149 160.051 121.942 158.913 121.465 155.189C120.206 156.303 120.632 157.407 120.558 158.332C120.282 161.8 120.264 165.294 119.517 168.711C119.36 169.427 119.288 170.431 118.317 170.503C117.574 170.558 117.132 169.813 116.793 169.216C114.943 165.966 113.16 162.678 111.281 159.446C110.785 158.592 110.395 157.261 109.213 157.381C108.24 157.479 108.462 158.803 108.141 159.564C107.223 161.741 106.528 161.989 104.819 160.229C99.8982 155.165 96.6441 149.412 97.8469 141.988C98.106 140.389 98.1905 138.996 96.4223 138.01C95.1881 137.323 94.9926 135.875 95.1058 134.522C95.3831 131.207 95.9892 127.929 97.519 124.968C99.4831 121.166 101.044 117.221 102.462 113.198C104.048 108.699 108.69 105.411 113.426 105.326C114.666 105.303 115.832 105.477 116.902 106.198C119.585 108.007 122.496 109.423 125.526 110.487C132.219 112.839 137.883 117.235 144.453 119.827C145.72 120.327 146.637 120.302 147.838 119.716C153.489 116.957 159.427 115.461 165.765 116.258C166.861 116.395 167.578 115.954 168.366 115.39C172.788 112.228 177.477 111.386 182.642 113.524C191.266 117.093 199.731 120.902 206.642 127.42C207.207 127.953 207.88 128.374 208.523 128.818C210.255 130.013 211.706 129.876 212.942 128.016C215.895 123.571 218.287 118.862 219.83 113.745C220.048 113.023 219.863 112.017 220.924 111.947C221.827 111.887 222.199 112.732 222.609 113.391C224.005 115.632 224.827 118.124 225.49 120.64C226.73 125.345 227.911 130.072 228.891 134.837C229.298 136.818 230.097 137.075 231.732 136.345C236.135 134.376 240.153 131.852 243.626 128.466C245.162 126.969 245.802 125.031 246.435 123.137C247.643 123.349 247.251 124.526 248.001 125.132C248.233 125.48 248.407 125.58 248.755 125.468Z" fill="#040404"/>
<path d="M147.724 254.434C152.074 255.326 155.03 254.168 156.726 250.372C157.791 247.988 159.802 248.63 161.383 248.486C162.533 248.381 161.896 249.868 161.698 250.551C159.611 257.729 157.525 264.907 155.297 272.041C153.873 276.603 152.158 281.074 150.685 285.622C150.163 287.23 149.582 287.414 148.139 286.537C139.77 281.452 132.158 275.419 125.155 268.589C124.206 267.663 124.032 267.034 124.76 265.774C127.601 260.859 127.093 256.14 123.664 252.252C122.71 251.17 122.112 250.917 121.036 252.145C114.857 259.198 109.232 266.561 107.067 275.957C106.801 277.112 106.395 277.764 105 277.699C97.165 277.331 89.3806 276.774 81.8728 274.18C75.9604 272.137 72.2124 268.273 70.7692 262.125C69.467 256.578 69.7133 251.139 71.4391 245.284C74.0248 247.707 76.3828 249.917 79.1501 252.51C79.4384 248.838 79.6561 245.675 79.9573 242.519C80.0283 241.775 79.6527 240.196 81.4192 241.333C82.2721 241.882 82.443 241.019 82.6484 240.524C83.5168 238.43 84.2361 236.281 84.4542 234.01C84.6231 232.252 84.0696 231.49 82.0377 231.87C76.7078 232.864 71.3142 233.123 65.9364 232.251C63.9909 231.936 62.145 230.861 60.0938 231.488C59.1228 231.785 57.7921 231.914 57.6096 233.078C57.4603 234.029 58.7319 234.24 59.3763 234.774C60.5141 235.717 61.7148 236.591 62.7918 237.598C63.3772 238.145 64.701 238.432 64.2826 239.438C63.972 240.184 62.7715 240.104 61.9247 240.223C52.4646 241.555 43.9906 239.585 36.7617 232.994C32.8382 229.417 28.8256 225.945 25.4524 221.821C23.9635 220.001 22.5929 218.113 21.8451 215.823C20.8924 212.905 18.4637 211.265 16.1381 209.58C10.9085 205.791 10.5675 204.477 12.8 198.395C15.4522 191.17 21.465 188.595 28.2186 187.051C32.6247 186.043 37.0772 185.241 41.4977 184.294C42.5076 184.077 43.4965 183.705 44.4508 183.3C46.3215 182.506 46.7564 181.028 45.5118 179.55C43.806 177.524 45.1271 177.106 46.7202 176.645C52.8156 174.88 58.884 173.064 64.6049 170.228C67.6075 168.74 70.432 167.006 72.5738 164.448C76.548 159.702 81.7729 157.822 87.6388 156.436C92.055 155.392 94.647 155.969 96.678 160.147C97.9962 162.858 100.207 165.099 102.963 166.907C103.039 168.093 102.17 168.167 101.43 168.335C99.2966 168.82 97.1416 169.088 94.9572 168.726C89.1297 167.761 83.7441 168.98 78.6542 171.886C74.5041 174.256 70.4217 176.788 65.7284 178.025C65.3084 178.135 64.9099 178.327 64.5383 178.553C63.0631 179.451 61.5859 180.62 62.1197 182.458C62.6807 184.391 64.6245 183.479 65.9731 183.5C67.9689 183.531 69.5945 182.392 71.2185 181.372C74.9042 179.058 78.4046 176.47 81.989 174.008C86.7082 170.765 91.9942 170.873 97.3198 171.176C98.9722 171.27 99.3529 172.298 98.5796 173.738C98.415 174.045 98.2622 174.378 98.0099 174.61C94.2246 178.082 92.4679 182.767 90.491 187.3C89.2075 190.242 87.032 191.949 84.0253 192.886C76.7959 195.138 69.6135 195.769 62.2445 193.325C55.8341 191.2 49.5096 193.044 43.2433 194.467C41.9253 194.766 41.082 195.869 40.4527 197.065C38.5084 200.762 37.7986 204.79 37.4698 208.876C37.308 210.887 38.199 212.614 39.9103 213.803C44.0014 216.645 48.6886 217.979 53.4784 218.926C55.7017 219.365 57.2706 217.796 58.5723 216.271C60.9486 213.487 63.5574 210.935 66.0706 208.286C69.1797 205.009 73.0282 203.131 77.2851 201.953C79.8535 201.243 80.5773 201.816 80.0411 204.423C79.5453 206.833 81.0814 206.498 82.4588 206.56C90.7689 206.933 98.6275 208.819 105.654 213.49C106.745 214.215 107.725 215.068 108.678 215.965C110.215 217.412 111.212 218.866 109.413 220.839C108.804 221.507 108.797 222.47 108.864 223.337C109.293 228.943 107.6 234.184 106.07 239.439C105.001 243.111 103.565 246.685 102.535 250.355C100.808 256.505 96.2068 260.183 91.6935 264C88.4325 266.758 88.4061 266.825 92.4662 268.434C99.7022 271.301 98.7508 271.787 101.085 264.484C104.147 254.906 109.773 247.147 116.544 240.015C116.847 239.697 117.208 239.456 117.826 239.287C119.205 239.161 119.649 240.139 120.268 240.819C124.144 245.075 128.328 248.998 132.905 252.489C133.934 253.274 135.037 254.004 136.519 254.359C137.789 254.94 138.283 255.929 138.75 256.98C140.825 261.655 143.312 266.12 145.784 270.591C146.203 271.349 146.687 272.071 147.26 272.724C148.39 274.011 149.5 273.902 150.483 272.578C151.96 270.591 152.715 268.547 151.355 266.091C149.889 263.442 148.596 260.694 147.465 257.877C147.143 257.075 146.718 256.305 146.912 255.206C147.108 254.787 147.294 254.605 147.724 254.434Z" fill="#080808"/>
<path d="M118.07 239.077C117.886 239.564 117.812 239.93 117.592 240.144C109.491 248 103.81 257.279 100.684 268.166C99.5615 272.074 99.2763 272.053 95.5656 270.59C93.3021 269.697 91.0967 268.657 88.8349 267.759C87.2031 267.112 87.2639 266.428 88.5893 265.489C89.296 264.988 89.8832 264.314 90.6025 263.836C97.7854 259.06 101.757 252.227 103.886 243.997C105.82 236.523 108.753 229.272 108.221 221.332C108.193 220.924 108.253 220.249 108.493 220.124C111.322 218.653 109.214 217.527 108.179 216.555C102.551 211.274 95.5188 209.132 88.1377 207.908C85.6587 207.497 83.1268 207.258 80.6159 207.23C78.372 207.205 78.4176 206.271 79.1271 204.673C79.4211 204.01 80.237 203.264 79.5651 202.56C78.9524 201.919 78.0735 202.493 77.353 202.693C73.1696 203.854 69.4311 205.842 66.4052 208.991C63.8159 211.685 61.3086 214.459 58.8067 217.235C56.6034 219.68 54.1485 220.482 50.8731 219.339C47.1818 218.05 43.406 217.049 40.0219 214.986C37.6364 213.531 36.4702 211.52 36.6296 208.714C36.8745 204.403 37.936 200.32 39.8196 196.431C40.6433 194.731 41.906 193.692 43.7468 193.341C50.7513 192.005 57.6692 190.621 64.8236 193.058C71.5299 195.343 78.2353 193.935 84.7819 191.796C86.9601 191.085 88.5777 189.752 89.4687 187.582C89.9301 186.458 90.554 185.399 91 184.27C92.4127 180.693 93.999 177.243 96.9364 174.593C97.6114 173.984 98.1058 173.175 99.1198 171.916C92.7294 172.182 86.9365 171.086 81.812 175.083C78.1879 177.91 74.1736 180.232 70.39 182.861C67.9203 184.576 65.1456 184.478 62.3643 184.515C61.3716 184.528 61.0473 184.032 60.9623 183.078C60.74 180.584 62.1339 178.121 64.9906 177.389C69.9801 176.109 74.2159 173.39 78.6021 170.935C82.6461 168.67 86.9144 167.553 91.5809 167.688C95.288 167.796 99.043 168.42 102.902 167.125C104.695 167.289 106.095 168.202 107.826 168.148C109.267 168.102 109.342 169.858 110.209 170.827C109.929 172.287 108.714 171.873 107.932 172.203C105.96 173.036 105.805 173.479 107.256 175.087C111.573 179.875 115.415 184.995 118.417 190.931C117.006 196.092 116.303 201.314 113.47 205.933C110.248 211.186 111.158 217.106 111.47 222.899C111.801 229.043 114.412 234.175 118.07 239.077Z" fill="#A3A7B3"/>
<path d="M146.9 255.209C148.768 259.207 150.626 263.032 152.418 266.887C153.447 269.098 151.882 273.498 149.737 274.589C148.095 275.424 147.319 274.22 146.614 273.125C143.316 268.002 140.61 262.557 137.972 257.076C137.596 256.296 137.18 255.535 136.74 254.585C138.576 254.366 140.437 254.458 142.066 253.135C143.46 252.003 144.603 253.503 146.052 253.863C146.583 254.229 146.839 254.574 146.9 255.209Z" fill="#A1A6B1"/>
<path d="M118.551 190.894C117.357 190.872 117.222 189.781 116.77 189.001C113.812 183.9 110.513 179.05 106.186 175.005C104.739 173.651 105.06 172.835 106.62 172.166C107.642 171.728 108.748 171.485 110.016 171.08C111.169 172.235 112.043 173.538 113.09 174.682C116.574 178.486 121.802 177.98 124.49 173.581C125.077 172.621 125.348 171.674 126.725 172.817C127.106 173.135 128.206 172.636 128.959 172.446C130.015 172.181 130.787 172.471 130.722 173.62C130.667 174.588 131.282 176.187 129.421 176.154C123.913 176.059 121.649 179.573 120.331 184.165C119.709 186.331 119.171 188.521 118.551 190.894Z" fill="#111111"/>
<path d="M113.298 277.433C113.964 277.855 113.941 278.346 113.191 278.84C112.855 278.418 112.911 277.972 113.298 277.433Z" fill="#F0C44A"/>
<path d="M260.735 233.35C260.915 229.167 260.507 225.251 259.885 221.401C258.88 215.187 260.694 209.711 263.577 204.413C266.331 199.352 269.461 194.56 273.53 190.427C275.16 188.771 276.52 188.393 278.175 190.505C279.213 191.83 280.53 193.972 282.031 193.612C283.491 193.263 282.759 190.742 283.159 189.208C285.626 179.756 290.899 171.985 297.456 164.975C299.494 162.797 299.48 162.199 296.588 161.221C291.958 159.656 287.133 158.93 282.315 158.21C281.885 158.146 281.45 158.116 281.02 158.051C276.672 157.391 276.611 157.342 279.313 153.944C280.388 152.594 279.515 152.378 278.559 152.003C269.681 148.517 264.241 141.855 261.093 133.081C260.871 132.463 260.392 131.85 261.055 130.888C264.553 134.19 267.848 137.626 270.687 141.413C273.031 144.539 275.972 146.692 279.447 148.18C285.438 150.745 291.492 153.165 297.513 155.661C301.055 157.129 304.781 157.575 308.528 157.2C316.319 156.421 323.324 158.292 329.785 162.666C332.449 164.469 335.403 165.745 338.578 166.538C341.724 167.324 343.444 169.556 343.432 172.235C343.426 173.378 343.083 174.05 341.805 174.046C338.91 174.039 336.092 173.91 333.577 172.129C330.525 169.969 327.199 168.165 324.304 165.822C320.287 162.571 315.834 161.176 310.765 161.486C309.152 161.585 306.603 160.65 306.157 161.795C305.626 163.158 307.747 164.57 308.948 165.739C310.967 167.704 312.053 170.208 312.819 172.752C314.678 178.919 318.806 181.792 325.025 182.834C330.753 183.794 336.252 183.659 341.766 181.967C348.588 179.873 355.19 181.703 361.795 183.192C363.169 183.501 363.9 184.686 364.486 185.876C366.391 189.746 367.45 193.84 367.717 198.15C367.892 200.971 366.683 202.987 364.326 204.435C360.264 206.93 355.757 208.223 351.187 209.338C349.037 209.862 347.456 208.667 346.107 207.283C344.044 205.168 342.11 202.926 340.148 200.714C336.483 196.585 332.15 193.498 326.732 192.126C326.091 191.964 325.316 191.472 324.743 191.974C324.046 192.585 324.759 193.316 325.044 193.834C326.244 196.014 325.505 196.671 323.211 196.73C315.638 196.926 308.375 198.495 301.622 202.057C299.221 203.323 297.027 204.881 295.201 206.91C294.512 207.676 293.919 208.464 295.333 209.143C296.37 209.641 296.057 210.63 296.059 211.454C296.088 223.043 300.291 233.583 304.524 244.051C306.082 247.904 309.989 250.046 313.059 252.716C317.388 256.482 317.442 256.43 312.158 258.656C310.636 259.298 309.052 259.805 307.566 260.518C305.501 261.509 304.487 260.674 303.917 258.718C303.625 257.718 303.163 256.766 302.887 255.763C300.113 245.659 294.379 237.39 287.107 230.036C282.884 225.765 278.598 221.562 274.022 217.673C272.736 216.58 271.999 215.362 271.878 213.693C271.585 209.649 271.247 205.608 270.92 201.476C270.023 201.912 270.082 202.693 269.931 203.317C268.763 208.135 267.662 212.969 266.478 217.783C265.713 220.893 266.085 223.664 268.607 225.869C271.532 228.427 271.976 231.49 270.824 235.081C267.694 244.842 263.005 253.854 257.713 262.569C256.1 265.225 254.91 265.103 253.094 262.561C251.341 260.107 250.944 257.764 252.447 254.856C254.96 249.996 257.054 244.919 259.286 239.916C260.178 237.916 260.747 235.82 260.735 233.35Z" fill="#A2A6B2"/>
<path d="M192.824 163.954C197.587 173.89 196.845 184.234 195.08 194.649C194.717 196.789 193.525 198.136 191.176 198.019C188.903 197.906 188.073 196.557 187.958 194.405C187.877 192.879 187.824 190.966 185.736 190.819C183.748 190.68 182.591 192.078 181.983 193.865C181.648 194.85 181.455 195.883 181.142 196.877C180.092 200.215 178.19 202.855 174.666 203.795C168.678 205.391 164.194 208.661 161.715 214.503C161.185 215.752 160.32 216.984 159.306 217.879C156.13 220.683 155.216 224.14 155.576 228.221C155.726 229.922 156.63 232.209 154.601 233.221C152.682 234.179 151.273 232.279 149.83 231.258C148.626 230.406 147.549 229.378 146.383 228.47C145.938 228.124 145.42 227.464 144.824 227.977C144.29 228.438 144.681 229.109 144.911 229.671C145.337 230.718 145.775 231.759 146.185 232.812C146.499 233.621 146.935 234.501 146.153 235.237C145.345 235.999 144.343 235.761 143.456 235.373C142.666 235.028 141.898 234.583 141.212 234.061C139.83 233.008 138.505 231.879 137.167 230.769C135.967 229.774 134.979 228.234 133.474 227.974C131.565 227.644 131.299 229.891 130.206 230.894C128.387 232.563 126.764 232.245 126.185 229.81C125.228 225.788 125.561 221.674 125.852 217.599C125.97 215.939 127.42 216.592 128.338 216.622C135.982 216.872 143.211 215.441 149.866 211.523C155.541 208.182 159.927 203.563 163.362 197.996C165.306 194.845 165.184 191.367 164.946 187.865C164.891 187.047 164.38 186.221 165.027 185.098C166.579 186.383 167.536 187.968 168.423 189.615C168.665 190.065 168.898 190.694 169.533 190.42C169.838 190.289 170.085 189.748 170.14 189.361C170.352 187.889 170.321 186.403 169.986 184.95C167.421 173.833 164.251 162.903 159.636 152.445C157.483 147.565 154.271 143.52 149.578 140.796C148.413 140.12 147.319 139.55 146.116 140.892C145.203 141.911 144.185 141.444 143.447 140.531C142.574 139.451 141.801 138.29 140.98 137.167C139.282 134.843 138.214 134.565 135.722 136.054C133.634 137.301 131.642 138.707 129.602 140.035C128.333 140.862 126.92 141.326 125.42 141.321C123.288 141.312 122.81 140.368 123.81 138.557C124.33 137.616 125.867 136.81 125.171 135.721C124.491 134.655 122.923 135.335 121.752 135.279C120.19 135.205 118.62 135.268 117.055 135.316C108.61 135.573 106.327 128.102 107.683 121.731C107.931 120.568 108.958 120.348 109.954 120.451C111.336 120.595 112.724 120.792 114.07 121.124C117.135 121.88 119.878 121.858 122.025 118.993C123.066 117.602 124.278 117.897 125.081 119.423C125.912 121 127.302 121.504 128.957 121.632C131.124 121.8 133.283 122.1 135.452 122.212C142.296 122.564 148.042 125.081 151.746 131.023C156.338 138.39 163.37 142.283 171.078 145.35C171.47 145.506 171.849 145.776 172.601 145.361C170.795 142.289 167.658 140.503 165.346 137.909C166.463 136.96 167.629 137.392 168.704 137.362C176.235 137.153 182.985 138.971 188.143 144.909C188.59 145.423 189.199 145.797 189.891 146.243C190.448 144.355 188.956 143.061 188.52 141.432C188.239 140.385 187.276 139.536 187.548 138.327C188.119 138.209 188.396 138.548 188.687 138.868C196.602 147.542 204.228 156.447 210.563 166.376C211.216 167.4 211.757 168.497 212.334 169.569C216.552 177.404 215.482 185.218 209.293 191.561C208.847 192.018 208.482 192.937 207.692 192.615C206.902 192.294 207.315 191.384 207.267 190.739C206.441 179.696 201.194 171.014 192.824 163.954Z" fill="#A2A7B3"/>
<path d="M228.138 173.581C228.393 173.476 228.74 173.476 228.841 173.634C233.242 180.493 238.391 186.908 240.876 194.879C243.956 204.759 247.32 214.542 247.803 225.031C248.224 234.162 247.318 243.099 244.52 251.809C243.54 254.859 242.17 257.731 239.522 260.609C238.71 254.411 237.973 248.791 237.127 242.339C236.263 244.06 235.745 245.063 235.253 246.078C233.437 249.821 230.839 252.944 227.66 255.591C225.779 257.157 225.271 256.928 224.616 254.463C224.075 252.428 224.117 250.369 224.35 248.338C223.698 248.149 223.345 248.459 223.154 248.834C221.895 251.317 220.136 252.169 217.401 251.049C215.963 250.46 214.436 251.048 213.224 251.961C211.728 253.088 211.504 252.338 211.511 250.99C211.514 250.381 211.427 249.764 211.501 249.165C211.709 247.484 211.569 246.418 209.317 246.44C207.243 246.46 207.43 245.04 208.472 243.791C210.273 241.632 212.55 239.999 214.87 238.469C219.516 235.405 224.187 232.376 228.928 229.464C233.83 226.452 235.847 222.221 235.258 216.495C234.272 206.897 234.056 197.225 232.39 187.691C231.546 182.86 229.553 178.399 228.138 173.581Z" fill="#A1A6B1"/>
<path d="M155.359 201.669C151.407 205.026 147.174 207.606 142.742 209.839C138.862 211.794 134.657 211.683 130.471 211.23C128.608 211.028 127.787 209.567 127.544 207.977C126.677 202.307 127.044 196.708 128.95 191.258C129.017 191.064 129.301 190.946 129.724 190.591C130.703 194.899 132.28 198.79 134.153 202.561C134.708 203.681 135.089 205.441 136.737 204.914C138.517 204.346 140.382 203.32 140.258 200.95C140.158 199.049 139.805 197.161 139.527 194.973C141.221 196.16 141.525 197.897 142.169 199.37C143.585 202.604 145.443 203.623 148.921 202.841C150.982 202.379 152.824 201.4 154.678 200.431C155.108 200.206 155.66 199.347 156.157 200.216C156.427 200.688 155.85 201.146 155.359 201.669Z" fill="#EFEEEE"/>
<path d="M244.166 139.346C243.847 144.727 243.038 149.763 240.881 154.505C239.856 156.758 238.474 158.734 236.405 160.142C235.884 160.496 235.267 161.239 234.591 160.62C234.038 160.115 234.66 159.507 234.872 158.974C236.443 155.024 238.186 151.134 239.228 146.994C239.406 146.29 239.938 145.558 239.239 144.566C235.563 147.058 231.57 148.85 227.141 149.566C224.89 149.93 222.641 149.902 220.385 149.782C219.816 149.751 219.003 149.897 218.854 149.147C218.704 148.396 219.52 148.22 220.026 147.952C225.476 145.072 230.949 142.233 236.389 139.334C238.303 138.314 240.133 137.14 242.024 136.076C242.587 135.759 243.063 134.898 243.8 135.346C244.473 135.755 244.144 136.619 244.19 137.287C244.233 137.891 244.182 138.502 244.166 139.346Z" fill="#9A9FA9"/>
<path d="M353.859 218.329C354.423 218.389 354.819 218.42 355.39 218.547C356.137 218.822 356.737 218.774 357.493 218.908C358.921 219.022 360.799 218.313 361.264 219.437C361.826 220.794 360.334 222.08 359.322 223.121C357.149 225.355 353.595 226.296 349.745 225.67C351.263 224.42 353.241 223.966 354.403 222.077C350.145 221.576 346.873 219.501 343.828 217.064C342.575 216.06 341.69 216.073 340.44 217.038C337.692 219.159 334.537 219.649 330.697 219.05C333.091 216.713 334.998 214.528 336.472 212.005C337.924 209.522 337.648 208.608 334.972 207.438C331.641 205.981 328.101 205.646 324.517 205.583C323.562 205.566 322.607 205.542 321.424 205.438C320.617 205.204 320.02 205.234 319.254 205.169C318.522 205.096 317.966 205.042 317.226 204.887C316.915 203.255 318.115 203.701 318.833 203.688C321.529 203.64 324.227 203.597 327.151 203.754C328.142 203.858 328.905 203.917 329.842 204.059C330.245 204.164 330.473 204.202 330.862 204.308C336.351 205.073 340.087 208.404 343.506 212.125C345.662 214.471 348.086 216.308 351.224 217.54C352.185 217.764 352.902 218.161 353.859 218.329Z" fill="#EAE9E9"/>
<path d="M311.304 239.128C316.443 243.095 317.411 242.898 320.522 237.472C320.874 236.859 320.979 235.728 322.019 236.045C322.83 236.292 322.963 237.249 322.989 238.036C323.053 239.985 322.373 241.805 321.751 243.591C320.753 246.456 323.316 246.63 324.675 247.634C326.313 248.843 326.39 246.99 326.98 246.243C327.577 245.486 328.215 244.462 329.22 244.851C330.199 245.229 329.684 246.4 329.616 247.205C329.047 253.913 327.375 254.794 321.44 251.709C316.901 249.349 313.064 246.158 309.838 242.222C308.459 240.541 307.232 238.753 307.484 236.143C309.075 236.783 309.896 238.204 311.304 239.128Z" fill="#EDEDED"/>
<path d="M110.182 149.95C109.534 148.467 109.592 146.089 108.101 146.235C106.368 146.404 106.92 148.729 106.657 150.164C106.518 150.923 106.644 151.729 106.537 152.498C106.441 153.189 107.02 154.278 105.929 154.458C105.138 154.588 104.561 153.739 104.195 153.069C101.765 148.621 102.492 144.127 103.861 139.117C107.622 143.968 112.064 146.173 117.758 145.506C119.124 145.346 119.131 146.245 118.862 147.191C117.821 150.865 116.882 154.552 116.553 158.378C116.391 160.252 115.327 160.024 114.284 159.074C112.89 157.805 112.373 155.999 111.689 154.322C111.133 152.961 110.722 151.54 110.182 149.95Z" fill="#EDEDED"/>
<path d="M253.027 158.429C250.027 156.84 249.347 154.711 250.001 151.507C250.938 146.924 250.663 142.191 250.832 137.442C251.444 139.647 252.002 141.868 252.677 144.053C254.369 149.536 256.652 154.777 259.247 159.89C259.576 160.539 260.618 161.253 259.332 162.056C258.295 162.704 257.531 162.674 256.644 161.686C255.608 160.532 254.341 159.584 253.027 158.429Z" fill="#EDEDED"/>
<path d="M323.022 169.918C325.571 171.449 327.956 172.881 330.334 174.324C330.916 174.677 331.707 174.967 331.52 175.832C331.324 176.737 330.541 176.914 329.704 177.005C322.527 177.779 316.826 174.65 313.888 168.283C313.569 167.592 312.975 166.845 313.596 166.105C314.311 165.253 315.218 165.687 315.983 166.089C318.29 167.304 320.568 168.575 323.022 169.918Z" fill="#536473"/>
<path d="M309.344 230.638C309.769 227.109 309.691 223.842 308.568 220.643C308.318 219.931 307.923 218.967 308.594 218.432C309.413 217.779 310.244 218.563 310.939 219.013C312.881 220.267 314.201 221.927 313.816 224.414C313.124 228.877 314.302 232.837 316.909 236.445C317.095 236.703 317.184 237.032 317.336 237.368C313.224 237.762 310.333 235.359 309.344 230.638Z" fill="#989DA7"/>
<path d="M290.992 138.776C293.876 141.168 296.564 143.498 298.387 146.624C298.76 147.264 299.374 148.089 298.832 148.768C298.217 149.54 297.387 148.816 296.689 148.588C290.788 146.662 286.443 143.214 285.24 136.744C285.132 136.164 284.936 135.559 285.422 134.868C287.547 135.655 289.069 137.35 290.992 138.776Z" fill="#989DA7"/>
<path d="M371.998 190.457C370.841 188.518 369.783 186.745 368.725 184.972C373.496 186.751 377.957 188.897 381.988 191.842C382.895 192.505 382.569 193.125 381.844 193.717C380.298 194.983 378.673 196.112 376.869 196.999C375.541 197.652 374.449 197.485 373.789 196.182C372.97 194.566 374.477 194.393 375.405 193.87C376.059 193.501 376.913 193.423 377.461 192.349C375.457 192.229 372.964 193.529 371.998 190.457Z" fill="#9498A2"/>
<path d="M370.477 206.999C372.112 205.908 374.013 204.204 375.374 205.377C376.476 206.326 375.139 208.575 374.483 210.138C373.612 212.214 372.283 213.876 369.869 214.234C368.925 214.374 367.878 214.475 367.282 213.536C366.786 212.753 367.015 211.861 367.424 211.059C368.175 209.587 369.115 208.25 370.477 206.999Z" fill="#989DA7"/>
<path d="M168.674 133.659C166.477 133.221 164.344 133.481 162.449 132.327C165.232 129.991 170.652 128.735 172.457 129.94C173.561 130.676 174.799 131.515 174.315 133.019C173.755 134.761 172.177 133.983 170.961 133.936C170.273 133.91 169.589 133.767 168.674 133.659Z" fill="#536473"/>
<path d="M108.472 113.64C107.666 114.421 106.997 115.074 106.311 115.744C105.907 113.047 107.309 110.416 109.919 109.096C110.761 108.671 111.693 108.405 112.604 108.14C113.469 107.889 114.661 107.115 115.167 108.155C115.786 109.427 114.476 110.119 113.538 110.708C111.938 111.713 109.925 111.998 108.472 113.64Z" fill="#9498A2"/>
<path d="M327.197 203.694C325.036 204.607 322.62 203.892 320.25 204.137C319.242 204.241 318.184 203.887 317.134 204.623C316.192 204.827 315.362 204.807 314.484 203.835C318.825 203.21 322.908 203.086 327.197 203.694Z" fill="#CAC9C9"/>
<path d="M353.884 218.26C353.063 218.986 352.336 218.242 351.461 217.791C352.257 217.427 352.952 218.011 353.884 218.26Z" fill="#CAC9C9"/>
<path d="M319.235 205.246C319.717 204.526 320.381 204.629 321.128 205.215C320.594 205.694 319.994 205.404 319.235 205.246Z" fill="#CAC9C9"/>
<path d="M357.516 218.845C357.001 219.528 356.344 219.41 355.629 218.784C356.166 218.676 356.767 218.708 357.516 218.845Z" fill="#CAC9C9"/>
<path d="M330.965 204.26C330.736 204.721 330.434 204.655 330.071 204.264C330.312 204.147 330.608 204.152 330.965 204.26Z" fill="#CAC9C9"/>
<path d="M228.199 173.371C228.069 173.199 227.925 173.037 227.781 172.874C227.875 172.804 227.969 172.735 228.063 172.665C228.123 172.816 228.184 172.967 228.203 173.26C228.161 173.402 228.186 173.381 228.199 173.371Z" fill="#A1A6B1"/>
<path d="M249.357 128.542C249.346 128.555 249.367 128.528 249.357 128.542V128.542Z" fill="#9498A2"/>
<path d="M187.269 137.728C187.168 137.746 187.13 137.697 187.093 137.648C187.173 137.652 187.253 137.656 187.269 137.728Z" fill="#A2A7B3"/>
<path d="M64.7614 228.239C62.8543 226.198 61.3568 226.796 59.5503 228.266C56.8488 230.465 53.8134 232.174 50.0076 232.563C50.8559 234.519 52.9075 234.798 54.1822 236.027C50.1729 237.386 44.5552 234.811 43.0822 231.075C42.6366 229.944 42.8772 229.459 44.1221 229.441C46.387 229.408 48.6371 229.226 50.8433 228.649C54.27 227.752 57.5294 226.446 59.8028 223.631C65.7097 216.318 73.4409 213.498 82.6167 213.933C84.8184 214.037 87.0294 213.948 89.2622 214.396C86.4613 215.772 83.5345 216.182 80.5278 216.156C76.6744 216.122 72.8712 216.407 69.298 218.018C66.5841 219.241 66.3333 220.054 67.8674 222.594C69.0846 224.609 70.4728 226.499 72.1885 228.131C72.5463 228.471 73.2076 228.73 73.026 229.319C72.7926 230.077 72.0143 229.839 71.4524 229.855C69.1515 229.923 66.96 229.467 64.7614 228.239Z" fill="#E6E5E5"/>
<path d="M84.6604 249.533C87.4375 253.194 88.2089 253.332 91.6838 250.695C93.3264 249.448 94.8661 248.065 96.778 246.473C97.0246 248.475 96.4781 249.946 95.538 251.254C91.5946 256.738 86.5567 260.889 80.2483 263.38C77.0829 264.63 75.9708 264.02 75.172 260.777C74.9041 259.689 74.787 258.554 74.7096 257.433C74.66 256.716 74.2624 255.704 75.2898 255.419C76.1349 255.184 76.6558 255.976 77.1786 256.568C77.8939 257.378 77.8991 259.505 79.8599 258.105C81.3643 257.031 83.7148 256.519 82.4432 253.683C81.8141 252.28 81.5612 250.688 81.286 249.155C81.1131 248.191 81.3539 246.984 82.2566 246.649C83.3687 246.237 83.4241 247.609 83.8838 248.255C84.1347 248.607 84.3324 248.997 84.6604 249.533Z" fill="#EDEDED"/>
<path d="M76.6146 187.377C75.6993 187.421 75.0025 187.483 74.3176 187.418C73.6802 187.358 73.1437 187.019 73.0184 186.332C72.9114 185.746 73.2872 185.347 73.7508 185.071C78.7389 182.1 83.5779 178.868 88.8769 176.443C89.4422 176.184 90.0267 175.947 90.547 176.512C91.0261 177.031 90.9662 177.679 90.69 178.22C89.2213 181.095 87.523 183.828 84.9355 185.838C83.3995 187.032 81.3778 186.255 79.654 186.88C78.7753 187.199 77.7805 187.198 76.6146 187.377Z" fill="#536473"/>
<path d="M89.1559 244.141C90.4853 240.935 91.1863 237.865 90.5086 234.56C90.2128 233.118 90.8305 231.808 91.8589 230.777C92.8978 229.735 94.2905 228.303 95.5644 228.973C96.7886 229.617 95.6438 231.349 95.3271 232.514C94.6517 235 94.6999 237.475 94.8617 239.999C95.1129 243.921 92.8581 246.978 89.136 247.908C88.5638 248.051 87.8645 248.398 87.4082 247.891C86.8548 247.277 87.6013 246.817 87.8731 246.33C88.2527 245.65 88.6797 244.996 89.1559 244.141Z" fill="#989DA7"/>
<path d="M34.157 195.578C35.1546 195.251 35.6064 195.468 35.0987 196.339C33.922 198.358 32.7185 200.365 31.4316 202.315C30.3073 204.018 28.5666 202.519 27.1157 202.886C27.3715 204.202 28.5034 204.145 29.2866 204.55C30.0679 204.954 31.0002 205.337 30.6045 206.439C30.2205 207.509 29.3644 208.24 28.1691 207.806C25.7782 206.936 23.7348 205.42 21.8661 203.754C20.8455 202.844 22.2369 202.467 22.732 202.103C26.2337 199.523 30.2116 197.761 34.157 195.578Z" fill="#9498A2"/>
<path d="M29.1699 215.582C32.9531 216.124 35.1797 218.405 36.7637 221.446C37.1986 222.28 37.6109 223.258 36.9122 224.132C36.1581 225.076 35.0842 224.928 34.0444 224.681C30.8725 223.928 28.3435 219.431 29.1699 215.582Z" fill="#989DA7"/>
<path d="M192.654 164.006C192.618 163.946 192.569 163.894 192.52 163.842C192.573 163.851 192.626 163.86 192.649 163.952C192.619 164.035 192.641 164.014 192.654 164.006Z" fill="#040404"/>
<path d="M190.061 146.234C190.169 146.273 190.393 146.302 190.393 146.323C190.386 146.56 190.279 146.59 190.106 146.304C190.095 146.193 190.072 146.22 190.061 146.234Z" fill="#040404"/>
</svg>
