<svg width="400" height="400" viewBox="0 0 400 400" fill="none" xmlns="http://www.w3.org/2000/svg">
<path d="M73.3074 277.536C69.4066 274.632 66.9513 270.93 65.2695 266.615C64.941 265.773 64.7942 264.987 64.7457 263.919C64.1396 262.702 63.8702 261.625 64.0956 260.267C64.142 259.794 64.0933 259.51 63.9354 259.128C62.1459 256.958 63.1683 254.537 62.9662 252.275C62.9281 251.848 63.0424 251.413 63.0951 250.983C63.531 247.421 63.4854 247.373 60.0521 247.733C59.705 247.77 59.36 247.764 58.8218 247.635C49.688 247.576 41.358 245.388 34.4613 239.584C27.0553 233.352 19.5198 227.154 15.5291 217.825C14.5947 215.641 11.9531 214.651 10.0663 213.172C5.62502 209.69 4.07514 204.931 5.77988 199.561C6.69658 196.673 7.729 193.912 9.3796 191.304C13.493 184.805 19.9817 182.429 26.8931 180.714C30.0778 179.924 33.3155 179.342 36.5399 178.722C37.4952 178.538 38.0338 178.252 38.1748 177.126C38.6182 173.586 41.096 171.732 44.1705 170.632C47.4261 169.468 50.7602 168.523 54.1869 167.347C57.2313 165.4 60.7514 164.838 63.6996 162.661C66.5529 161.208 68.094 158.551 70.5593 156.655C73.1543 154.231 75.9249 152.447 79.313 151.297C82.3565 150.464 85.2108 149.682 88.1421 149.269C89.9467 149.016 90.6437 148.047 90.6363 146.264C90.6278 144.234 90.4875 142.306 89.3657 140.506C87.8634 138.094 87.7861 135.367 88.1265 132.662C88.5954 128.937 89.4671 125.291 91.2085 121.93C92.8141 118.831 94.2741 115.65 95.2748 112.331C97.5377 104.827 102.79 100.691 110.204 98.5275C112.153 98.3557 113.89 98.3728 115.837 98.4875C117.67 98.5875 119.067 99.3479 120.404 100.141C123.86 102.192 127.526 103.801 131.237 105.289C135.217 106.886 138.903 109.012 142.556 111.208C144.567 112.417 146.494 112.551 148.749 111.672C153.316 109.892 158.103 108.967 163.027 108.926C164.461 108.914 165.744 108.53 167.015 107.884C172.926 104.879 178.951 104.53 185.179 106.987C192.98 110.066 200.519 113.624 207.267 118.658C209.005 119.955 209.861 119.445 210.556 117.691C211.389 115.592 212.362 113.558 212.988 111.366C214.944 104.52 221.997 102.716 227.023 107.706C229.192 109.86 230.291 112.596 231.326 115.379C232.39 118.241 232.936 121.253 233.88 124.149C234.568 126.258 235.141 126.55 236.712 124.976C239.334 122.35 240.947 119.12 241.03 115.301C241.126 110.876 242.537 107.287 246.999 105.537C250.576 104.135 254.493 105.112 257.117 108.237C259.026 110.512 261.075 112.642 263.298 114.594C264.968 116.06 265.525 115.807 265.939 113.6C266.163 112.404 266.203 111.178 266.498 109.99C267.139 107.415 268.11 107.053 270.374 108.548C271.755 109.46 272.776 110.833 274.44 111.693C276.605 114.188 278.968 116.062 282.181 117.021C282.762 117.275 283.094 117.615 283.703 117.777C284.313 117.859 284.754 117.935 285.346 118.109C285.911 118.344 286.23 118.674 286.814 118.867C287.195 118.964 287.413 119.026 287.795 119.14C289.176 119.623 290.392 120.054 291.811 120.429C292.574 120.584 293.126 120.811 293.851 121.087C294.355 121.272 294.677 121.435 295.211 121.538C300.801 123.393 304.919 126.85 308.03 131.572C309.225 133.387 310.328 135.263 311.76 137.122C312.109 137.591 312.321 137.959 312.854 138.204C313.186 138.31 313.377 138.369 313.712 138.472C314.145 138.604 314.431 138.699 314.877 138.788C315.229 138.854 315.43 138.899 315.778 138.991C316.224 139.12 316.517 139.219 316.974 139.313C317.334 139.378 317.539 139.423 317.896 139.512C318.355 139.635 318.656 139.735 319.129 139.805C319.612 139.861 319.933 139.916 320.415 140.008C320.9 140.117 321.214 140.228 321.712 140.292C322.221 140.35 322.558 140.414 323.068 140.511C323.587 140.623 323.921 140.755 324.461 140.807C327.99 141.467 330.658 143.345 333.31 145.633C336.081 148.54 338.788 151.236 342.156 153.461C346.971 156.371 352.182 157.732 357.337 159.2C361.537 160.396 365.597 161.596 366.135 166.919C366.217 167.729 366.843 168.006 367.598 168.152C371.073 168.825 374.579 169.383 378.003 170.259C390.42 173.434 396.989 178.881 399.248 192.695C399.86 196.441 397.847 199.909 394.772 202.169C391.316 204.709 388.547 207.495 386.47 211.421C383.153 217.691 377.575 222.177 372.369 226.923C367.219 231.618 361.362 234.726 354.624 236.223C351.374 236.945 348.046 236.448 344.519 236.528C343.859 236.58 343.456 236.808 343.025 236.77C340.852 236.579 340.665 237.825 340.901 239.533C341.252 242.079 341.686 244.643 340.628 247.33C340.335 253.881 338.281 259.559 334.016 264.572C332.585 266.179 330.997 267.364 329.212 268.609C327.804 269.369 326.475 269.838 324.98 270.422C324.542 270.575 324.283 270.64 323.82 270.725C319.441 272.445 315.027 273.032 310.393 273.605C309.626 273.794 309.054 273.848 308.261 273.856C306.889 273.894 305.715 273.7 304.379 274.209C300.815 274.63 297.464 274.499 293.889 274.336C293.227 274.211 292.816 274.048 292.248 273.716C291.97 273.508 291.869 273.415 291.656 273.156C290.452 268.189 289.802 263.258 287.186 258.922C286.292 257.439 285.478 255.909 284.48 254.49C283.683 253.357 282.915 253.251 282.11 254.525C281 256.283 279.907 258.051 278.792 259.805C276.187 263.901 273.402 267.869 270.071 271.66C267.591 274.707 264.872 277.279 262.172 280.117C260.138 282.453 257.664 283.989 255.306 285.943C252.517 288.515 249.393 290.322 246.321 292.505C245.98 292.739 245.772 292.848 245.394 293.003C244.773 293.17 244.405 293.435 243.927 293.857C240.984 295.451 238.289 297.159 235.083 298.233C234.431 298.365 234.024 298.597 233.495 298.989C232.35 299.567 231.285 299.848 230.075 300.278C229.245 300.447 228.715 300.803 228.015 301.284C219.61 304.374 211.101 305.769 202.38 306.354C185.586 307.48 169.564 304.389 154.04 298.159C152.249 297.441 150.713 296.285 148.806 295.38C141.44 291.018 134.431 286.491 128.1 280.996C125.081 278.375 122.004 275.822 119.212 272.944C116.819 270.479 116.354 270.624 115.141 273.94C115.051 274.184 114.984 274.437 114.835 274.849C114.578 275.431 114.238 275.761 114.03 276.358C113.931 276.748 113.872 276.972 113.769 277.371C113.555 278.022 113.524 278.516 113.557 279.219C113.517 280.997 113.814 282.672 112.127 283.947C110.937 284.412 109.838 284.137 108.639 284.631C106.461 285.001 104.497 284.949 102.312 284.742C100.872 284.23 99.5912 284.276 98.1094 284.292C97.2394 284.311 96.576 284.295 95.7288 284.175C95.0647 284.067 94.5941 283.935 93.9242 283.982C92.9045 283.995 92.1043 283.749 91.1175 283.55C90.4946 283.39 90.0556 283.217 89.403 283.207C88.8714 283.174 88.5211 283.116 87.997 283.016C87.3664 282.862 86.9223 282.69 86.2649 282.657C85.8473 282.608 85.6098 282.567 85.1951 282.479C84.4334 282.238 83.8275 282.148 83.0316 282.041C79.4859 281.053 76.2958 279.731 73.3074 277.536Z" fill="#F9F8F6"/>
<path d="M274.529 112.467C272.294 111.864 271.194 110.057 269.62 108.87C268.295 107.871 267.592 107.616 267.364 109.662C267.142 111.644 266.626 113.592 266.382 115.573C266.134 117.589 265.404 117.392 264.093 116.351C261.49 114.285 259.158 111.956 257.053 109.401C254.287 106.045 251.154 104.909 247.682 106.091C243.854 107.395 242.056 110.169 241.917 114.741C241.769 119.626 240.018 123.722 235.942 126.699C234.361 127.854 233.828 127.458 233.395 125.689C232.114 120.456 230.929 115.174 228.216 110.428C225.854 106.298 222.172 104.679 218.445 106.07C215.878 107.029 214.237 108.889 213.695 111.527C213.071 114.565 211.564 117.202 210.304 119.961C209.728 121.224 209.194 121.114 208.177 120.324C201.036 114.783 193.003 110.864 184.618 107.62C178.473 105.242 172.5 105.729 166.787 108.958C165.663 109.593 164.574 109.828 163.325 109.806C158.033 109.71 152.932 110.763 148.067 112.774C146.441 113.446 145.094 113.487 143.654 112.563C136.014 107.658 127.227 105.043 119.429 100.447C118.614 99.9674 117.669 99.71 116.614 99.2644C114.122 97.8271 114 97.3354 115.934 95.4002C119.614 91.7163 123.89 88.735 128.058 85.328C131.779 82.4246 135.761 80.2733 139.547 77.821C140.501 77.2032 141.548 76.7756 142.931 76.7327C149.842 75.0347 156.58 75.7364 163.341 76.2199C169.053 76.6285 174.799 76.4241 180.516 76.9238C187.932 77.572 195.406 77.2643 202.804 78.3104C206.854 78.8832 210.958 78.5521 215.036 78.7227C225.008 79.1399 234.933 80.5727 244.939 80.1563C248.606 80.0037 252.256 80.3655 255.839 80.907C262.41 81.9002 268.999 81.6056 275.584 81.7729C276.28 81.7906 276.978 81.7561 277.662 81.8889C282.625 82.8519 287.636 83.278 292.927 83.2448C296.882 85.0215 299.436 88.2046 302.521 90.7214C304.571 92.3941 306.335 94.3968 308.125 96.1907C310.094 98.1633 312.145 100.261 313.922 102.546C315.537 104.621 316.866 107.072 319.073 108.697C319.212 108.8 319.442 108.883 319.474 109.015C320.135 111.689 322.793 113.074 323.685 115.773C323.686 116.618 324.189 117.311 323.346 118.046C321.004 119.44 319.02 119.107 317.171 117.502C314.56 115.235 311.457 114.39 308.066 114.127C296.976 113.266 285.84 113.388 274.529 112.467Z" fill="#F4B420"/>
<path d="M293.147 83.0679C290.899 84.9711 288.222 84.2794 285.911 83.9112C278.903 82.7947 271.871 82.5026 264.814 82.5343C259.507 82.5581 254.34 81.2799 249.077 81.0709C244.154 80.8755 239.21 81.1427 234.29 80.8986C227.471 80.5603 220.669 79.8933 213.854 79.4535C211.428 79.2969 208.984 79.3442 206.55 79.3856C203.501 79.4375 200.516 78.9747 197.53 78.4648C197.188 78.4065 196.827 78.2919 196.5 78.3479C191.046 79.2807 185.668 77.9029 180.26 77.6848C171.36 77.3258 162.439 77.3099 153.546 76.3957C150.042 76.0355 146.39 77.1164 142.682 77.4105C142.342 76.6922 142.612 76.182 143.054 75.9411C147.27 73.6405 151.33 70.9852 156.365 70.0441C161.057 69.6171 165.504 68.8585 170.041 69.1149C178.627 69.6001 187.213 70.0864 195.801 70.5037C203.005 70.8538 210.199 71.343 217.401 71.718C227.809 72.26 238.232 72.5215 248.634 73.2253C251.932 73.4485 255.243 73.3237 258.548 73.267C259.292 73.2542 260.354 73.4101 260.572 72.5098C260.799 71.5721 259.738 71.3007 259.083 70.9727C252.984 67.9175 246.545 65.8207 239.924 64.2491C238.829 63.9894 237.682 63.8649 236.644 62.9316C236.029 61.1426 237.245 61.1037 238.265 60.9825C239.557 60.829 240.816 61.3608 242.228 61.349C241.479 60.331 239.779 60.2621 240.088 58.4771C240.99 57.759 241.825 57.9495 242.69 58.1512C248.115 59.4159 253.355 61.2598 258.766 63.2468C259.2 63.3142 259.44 63.3159 259.854 63.361C260.911 64.1027 262.148 63.8395 263.199 64.5963C263.587 64.8598 263.813 65.0454 264.126 65.3493C264.987 65.9872 265.982 65.6086 266.949 66.1376C268.192 66.2076 268.747 66.944 269.346 67.8673C270.167 68.6133 271.184 68.2152 272.154 68.7487C274.289 71.0693 277.354 71.5841 279.756 73.2102C281.823 74.6095 284.025 76.2549 286.324 77.5293C288.752 78.8746 291.403 80.4287 293.147 83.0679Z" fill="#F4BB20"/>
<path d="M274.374 112.645C275.789 111.476 277.49 111.624 279.102 111.789C286.073 112.5 293.077 112.432 300.061 112.8C305.037 113.063 310.078 112.838 314.831 114.837C315.477 115.109 316.169 115.262 316.59 115.828C318.397 118.257 320.635 118.829 323.552 117.497C323.853 117.393 323.959 117.291 324.249 117.306C326.124 117.919 326.672 119.23 326.818 120.998C326.973 121.901 327.536 122.224 328.243 122.633C329.063 123.104 329.246 123.795 329.464 124.642C329.443 125.758 329.705 126.58 330.59 127.275C331.297 127.484 331.564 127.886 331.702 128.557C331.913 129.275 332.269 129.876 332.056 130.452C330.451 134.798 332.576 138.533 333.948 142.393C334.265 143.285 334.678 144.158 334.632 145.132C334.597 145.878 334.364 146.502 333.229 146.364C330.53 144.171 327.883 142.321 324.508 141.323C324.068 141.135 323.812 141.021 323.399 140.934C322.869 140.871 322.477 140.836 321.905 140.717C321.459 140.565 321.196 140.482 320.798 140.373C320.269 140.292 319.874 140.249 319.295 140.124C318.875 139.999 318.639 139.952 318.229 139.855C317.817 139.779 317.58 139.75 317.183 139.636C316.785 139.499 316.546 139.455 316.123 139.397C315.71 139.358 315.478 139.339 315.086 139.251C314.667 139.068 314.413 138.943 313.991 138.878C313.62 138.843 313.389 138.825 312.996 138.742C312.528 138.508 312.229 138.328 311.813 138.008C310.249 136.605 309.257 134.969 308.305 133.336C305.272 128.137 300.947 124.473 295.244 122.098C294.822 121.874 294.58 121.717 294.171 121.573C293.449 121.361 292.863 121.195 292.115 120.938C290.68 120.371 289.405 119.898 287.917 119.535C287.517 119.482 287.285 119.456 286.892 119.359C286.355 119.149 286.005 118.96 285.515 118.744C284.881 118.642 284.397 118.549 283.754 118.356C283.219 118.106 282.861 117.915 282.355 117.729C279.013 117.049 276.55 115.212 274.374 112.645Z" fill="#F7BA1D"/>
<path d="M277.95 325.85C277.648 326.306 277.427 326.601 277.063 326.926C276.411 327.15 275.909 327.367 275.152 327.402C273.555 327.181 272.478 328.04 271.303 328.519C264.519 331.281 257.599 333.739 251.052 337.508C250.245 338.076 249.509 338.323 248.564 338.565C247.835 338.67 247.432 339.024 246.791 339.351C242.019 340.915 237.339 342.013 232.616 342.944C231.52 343.16 230.424 343.417 229.119 342.998C228.526 340.896 226.4 340.423 225.399 338.762C226.017 337.641 227.021 337.56 227.94 337.376C232.457 336.473 236.968 335.541 241.672 334.548C246.54 334.172 250.73 332.375 254.803 330.234C255.251 329.998 255.79 329.716 255.699 329.106C255.612 328.529 255.029 328.365 254.564 328.149C253.685 327.74 252.725 327.71 251.788 327.558C250.871 327.41 249.778 327.38 250.048 325.791C251.277 324.904 252.492 325.105 253.682 325.312C262.711 326.883 270.325 323.762 277.271 318.302C278.935 316.994 278.55 314.756 279.893 313.122C280.131 312.833 280.28 312.654 280.423 312.673C287.776 313.662 292.528 308.94 297.51 304.817C299.024 303.564 300.672 302.37 301.712 300.387C303.62 297.421 306.241 295.338 308.586 292.754C310.43 290.534 312.219 288.511 314.181 286.386C314.46 286.215 314.579 286.155 314.889 286.033C318.195 285.524 318.653 286.363 317.192 290.153C317.018 290.605 316.881 290.843 316.581 291.222C316.447 291.379 316.449 291.384 316.447 291.383C316.202 291.617 316.005 291.883 315.83 292.355C315.647 292.68 315.552 292.867 315.515 293.222C315.564 293.477 315.585 293.58 315.483 293.78C314.966 295.25 313.311 295.21 312.55 296.448C312.323 296.938 312.166 297.252 311.894 297.705C309.34 299.925 307.902 303.049 304.853 304.795C304.559 305.294 304.337 305.616 304.046 306.064C303.594 306.948 302.977 307.391 301.978 307.536C301.348 307.608 301.023 307.867 300.775 308.439C300.653 308.888 300.57 309.179 300.361 309.561C299.989 309.919 299.736 310.178 299.34 310.551C296.736 311.064 296.54 314.119 294.157 314.829C293.524 314.885 293.058 314.872 292.553 315.295C292.338 316.356 291.802 317.291 291.069 317.51C288.838 318.177 287.601 320.108 285.605 321.267C284.891 321.411 284.403 321.69 283.704 321.87C282.71 323.189 282.046 324.644 280.065 324.781C279.101 324.755 278.489 325.071 277.95 325.85Z" fill="#F4B420"/>
<path d="M64.3485 162.855C61.4248 165.2 58.195 166.47 54.5275 167.224C53.6394 165.337 53.8395 163.632 55.3011 162.179C55.8223 161.66 56.1241 161.073 55.9674 160.313C55.5689 158.381 55.9765 156.698 57.5136 155.372C58.132 154.838 58.0489 154.147 57.9615 153.448C57.7557 151.802 58.0676 150.341 59.461 149.262C60.0594 148.799 60.2955 148.176 60.1973 147.427C59.9637 145.645 60.5204 144.173 61.951 143.07C62.6408 142.538 62.8911 141.87 62.7865 141.022C62.7443 140.681 62.634 140.209 62.8042 140.002C64.9835 137.341 65.4823 133.771 67.6492 131.115C67.7558 130.984 68.025 130.919 68.0448 130.795C68.5362 127.73 70.9773 125.733 72.3225 122.907C72.529 122.384 72.6866 122.065 72.9323 121.595C74.6261 119.68 76.1681 117.899 76.8879 115.503C77.1538 114.618 78.1297 114.137 79.2789 113.885C79.7518 113.529 79.9915 113.154 80.5981 112.857C82.2543 112.452 83.705 112.407 85.3457 112.911C86.4188 113.754 86.3231 114.77 86.2794 115.964C86.2163 116.289 86.1793 116.414 86.0546 116.709C85.6691 117.286 85.2134 117.463 84.6466 117.767C84.1486 118.078 83.8115 118.329 83.4278 118.762C83.268 118.965 83.2066 119.048 82.995 119.404C82.5499 120.399 82.6637 121.177 82.4979 122.082C82.4213 122.343 82.3806 122.443 82.2484 122.676C81.8455 123.09 81.4487 123.214 80.9529 123.456C80.6687 123.627 80.5141 123.735 80.263 123.949C80.0963 124.117 80.0316 124.187 79.8004 124.497C79.5463 124.917 79.4709 125.103 79.3643 125.448C79.2958 125.708 79.2681 125.813 79.1984 126.076C79.0319 126.66 78.969 127.097 78.8744 127.694C78.8128 127.956 78.7805 128.058 78.675 128.299C78.4735 128.595 78.3296 128.735 78.0497 128.934C77.8594 129.066 77.784 129.117 77.6008 129.245C77.4928 129.322 77.2915 129.487 77.1192 129.677C76.8485 130.011 76.7583 130.159 76.6155 130.434C76.51 130.636 76.4653 130.716 76.3504 130.917C76.2358 131.123 76.1915 131.207 76.0451 131.569C75.7848 132.57 75.8199 133.327 75.4946 134.182C75.3725 134.425 75.3163 134.518 75.1622 134.74C74.9932 134.95 74.922 135.03 74.6277 135.337C74.3304 135.639 74.2563 135.714 73.9701 136.021C73.6935 136.338 73.6289 136.422 73.3975 136.782C72.6826 137.964 72.7544 138.991 72.643 140.156C72.5977 140.438 72.573 140.549 72.4939 140.822C72.3499 141.191 72.2505 141.392 72.0564 141.731C71.7357 142.239 71.433 142.545 70.9927 142.935C70.8059 143.11 70.7335 143.181 70.489 143.499C70.0499 144.334 70.1011 144.961 70.0865 145.744C70.0784 146.017 70.0712 146.127 70.0401 146.401C69.9893 146.674 69.9625 146.781 69.8761 147.045C69.7137 147.397 69.5963 147.585 69.3594 147.889C69.1854 148.098 69.1135 148.179 68.825 148.502C68.5401 148.828 68.472 148.912 68.2251 149.275C67.2221 150.708 67.7853 151.997 67.6494 153.388C67.5589 153.653 67.513 153.755 67.3843 153.999C67.1848 154.322 67.0689 154.503 66.881 154.825C66.7639 155.06 66.7195 155.156 66.6168 155.398C66.4883 155.75 66.4248 155.956 66.3347 156.33C66.2272 158.729 66.3987 161.035 64.3485 162.855Z" fill="#D5A52F"/>
<path d="M156.336 70.4888C151.458 72.2221 146.963 74.325 142.643 77.122C138.142 78.9532 134.521 81.9796 130.523 84.3637C129.93 84.7172 129.364 85.1166 128.624 85.568C127.251 86.3935 126.002 86.6393 124.921 85.5179C123.894 84.4541 124.441 83.2639 124.928 82.14C125.099 81.7448 125.312 81.367 125.578 80.79C126.037 79.5555 126.914 79.0034 127.772 78.4015C130.819 76.2636 133.892 74.1658 137.087 72.2517C139.673 70.7022 141.642 68.5711 143.217 65.806C144.568 64.9292 145.927 64.4132 147.165 63.3519C147.695 63.0574 148.084 62.8726 148.636 62.6846C150.055 62.7265 151.246 62.5271 152.371 61.5999C154.35 59.8955 156.81 59.7923 158.99 59.037C161.994 57.9956 165.024 56.8816 168.432 56.4956C168.972 56.7422 169.312 56.9318 169.824 56.5987C169.961 56.3956 170.001 56.3043 170.164 56.1302C170.604 55.9492 170.92 55.8509 171.402 55.735C172.082 55.5828 172.559 55.3168 173.255 55.2251C173.964 55.1072 174.52 55.0348 175.287 54.9736C176.306 54.8676 177.062 54.5959 177.949 54.1669C178.971 53.7002 179.878 53.8312 181 53.9117C181.862 53.9707 182.461 53.8015 183.186 53.5038C184.478 52.6587 185.738 52.7549 187.219 53.0497C188.008 53.2969 188.663 53.1968 189.34 53.7022C189.846 54.255 190.002 54.7427 189.861 55.4943C188.797 56.9101 187.267 56.5997 185.784 57.0394C181.709 57.1263 178.021 58.1676 174.338 59.2135C171.148 60.1191 168.657 61.7498 166.745 64.6995C164.455 68.2326 160.362 69.2818 156.336 70.4888Z" fill="#F3CC25"/>
<path d="M147.104 63.2456C146.867 64.9597 145.586 65.5765 143.796 65.7861C141.745 67.4436 140.105 69.4219 137.271 69.4719C136.492 69.4857 135.924 70.2228 135.479 70.8844C134.962 71.6543 134.262 72.1199 133.346 72.2235C131.868 72.3905 130.761 73.1365 129.882 74.3068C129.349 75.0153 128.669 75.6137 127.771 75.738C126.082 75.9719 124.899 76.8296 124.093 78.3131C123.797 78.8572 123.266 79.2522 122.653 79.3633C120.894 79.6823 119.673 80.6782 118.818 82.2015C118.692 82.426 118.514 82.7087 118.289 82.7622C115.146 83.5091 113.807 86.7051 111.098 88.0367C110.22 88.4679 109.495 89.1171 109.085 90.0111C108.586 91.0999 107.869 91.8657 106.686 92.2163C105.53 92.5589 104.775 93.4114 104.315 94.4901C103.759 95.7954 102.836 96.6036 101.272 96.9206C101.001 97.0227 100.897 97.0655 100.509 97.266C100.143 97.4874 100.06 97.5512 99.7681 97.8391C99.5023 98.1483 99.446 98.2332 99.3165 98.4536C99.201 98.684 99.1588 98.779 99.0618 99.0217C98.8161 99.6759 98.7341 100.22 98.3715 100.836C97.3632 101.588 96.2513 101.919 95.4773 103.008C94.6868 103.699 94.6695 104.518 94.4892 105.456C94.3937 105.722 94.3445 105.823 94.1877 106.051C93.652 106.506 93.1029 106.573 92.5304 106.939C92.111 107.304 91.8069 107.569 91.3853 107.927C91.1989 108.093 91.1252 108.162 90.8687 108.486C90.4259 109.269 90.4579 109.855 90.3253 110.584C90.2472 110.855 90.2054 110.959 90.0688 111.198C89.7302 111.546 89.4407 111.677 89.0121 111.869C88.7886 111.981 88.7006 112.027 88.4851 112.15C88.1901 112.335 88.0224 112.442 87.7294 112.634C87.4329 112.829 87.2601 112.936 86.9538 113.125C86.5429 113.367 86.2492 113.476 85.7887 113.404C84.0636 113.319 82.4744 113.317 80.6472 113.315C80.0408 112.922 79.972 112.464 80.2009 111.731C82.2496 109.064 84.1939 106.608 86.2087 104.211C86.5069 103.856 87.1382 103.782 87.7839 103.486C88.2428 102.943 88.2492 102.375 88.6076 101.779C88.6763 101.544 88.6595 101.415 88.7098 101.378C91.4676 99.3577 93.0234 96.0433 96.1504 94.4356C96.883 94.0589 97.4917 93.7038 97.6617 92.81C97.7387 92.4049 97.9602 91.8011 98.2575 91.6991C101.438 90.6077 102.722 87.0279 105.878 85.945C106.733 85.6517 107.427 85.2705 107.778 84.3411C107.951 83.8841 108.356 83.2908 108.766 83.1833C111.954 82.3491 113.945 79.6487 116.617 78.0128C119.205 76.4283 122.119 75.2888 124.454 73.2564C126.304 71.6465 128.724 70.9112 130.851 69.9128C136.081 67.4583 141.285 64.8179 147.104 63.2456Z" fill="#D9A030"/>
<path d="M136.905 331.639C132.398 330.369 128.498 328.001 124.439 325.914C121.76 324.537 119.214 322.933 116.729 321.343C113.905 319.536 111.037 317.701 108.35 315.596C106.053 313.798 104.037 311.475 101.325 310.223C99.7465 309.493 98.9867 308.234 98.2729 306.615C97.9466 306.275 97.7193 306.092 97.2798 306.006C95.447 305.792 94.4677 304.812 94.0721 303.016C93.923 302.213 93.4658 301.84 92.8087 301.447C91.6332 301.517 90.8625 301.157 90.3044 300.115C90.006 297.1 92.3355 297.894 93.9993 297.453C94.3464 297.467 94.4836 297.479 94.8209 297.528C95.1492 297.599 95.2774 297.634 95.5889 297.737C95.8886 297.854 96.0051 297.905 96.2904 298.035C97.3733 298.67 98.4444 298.932 99.3886 299.762C99.7176 300.266 99.8458 300.68 100.097 301.204C100.344 301.585 100.476 301.852 100.56 302.283C100.57 302.42 100.533 302.677 100.51 302.797C100.487 302.916 100.578 303.135 100.674 303.205C100.946 303.262 101.122 303.252 101.448 303.272C102.545 303.653 103.454 304.064 104.126 305.108C104.484 305.79 104.59 306.38 104.905 307.059C105.027 307.287 105.078 307.374 105.214 307.578C105.43 307.833 105.571 307.958 105.853 308.132C106.071 308.231 106.162 308.265 106.397 308.338C106.745 308.415 106.952 308.443 107.331 308.471C107.849 308.501 108.337 308.439 108.505 308.655C110.329 311 113.022 312.317 115.117 314.332C115.234 314.444 115.242 314.697 115.371 314.776C118.255 316.55 120.404 319.243 123.436 321.11C123.973 321.293 124.309 321.465 124.789 321.761C125.947 322.835 126.366 324.461 128.254 324.693C130.655 325.931 132.451 327.792 135.15 328.246C136.412 328.458 137.29 329.881 136.905 331.639Z" fill="#EBB42B"/>
<path d="M189.732 55.5217C189.428 54.9298 189.295 54.505 189.095 53.9249C188.828 53.3709 188.988 53.0545 189.424 52.6758C189.82 52.5023 190.049 52.4163 190.464 52.329C191.04 52.2443 191.436 52.2207 191.982 52.2819C192.529 52.3289 192.928 52.3556 193.518 52.4478C193.979 52.6219 194.254 52.6844 194.676 52.5317C195.384 52.2412 195.959 52.0061 196.721 51.7812C197.122 51.7554 197.338 51.7388 197.717 51.7554C198.457 51.8651 199.036 51.9583 199.811 52.1572C200.438 52.2215 200.875 52.2289 201.44 52.0156C201.815 51.8694 202.041 51.7894 202.449 51.701C202.988 51.3812 203.393 51.2902 204.036 51.5482C205.753 52.1244 207.238 51.7576 208.778 51.6332C211.183 51.4388 213.61 52.0224 216.073 52.0456C217.828 52.0621 219.729 52.3018 221.553 52.4916C223.694 52.7144 225.836 53.1797 227.994 53.4878C231.796 54.0306 235.741 54.6619 239.296 55.8948C242.029 56.8423 244.987 57.031 247.713 58.4882C249.731 59.5675 252.407 60.2708 254.886 60.7472C256.494 61.0561 257.901 61.5319 258.892 63.1407C255.733 63.8568 253.098 61.9343 250.258 61.04C247.077 60.0384 243.851 59.2969 240.422 58.4792C239.222 59.2053 238.202 58.7394 237.205 58.5343C226.553 56.3414 215.8 55.0875 204.915 55.1885C200.841 55.2263 196.785 55.7481 192.711 55.8965C191.76 55.9312 190.811 56.1506 189.732 55.5217Z" fill="#F2D333"/>
<path d="M95.1979 297.99C93.3903 298.253 91.5602 297.826 90.3067 299.744C89.2962 298.515 87.462 297.369 86.8899 296.223C85.3563 293.15 81.4724 292.043 80.8957 288.427C80.8062 287.866 80.5428 287.456 80.025 287.239C78.1139 286.438 76.8866 285.138 76.8366 282.953C76.8193 282.199 76.2098 282.036 75.6757 281.737C74.1423 280.881 73.1775 279.634 73.1996 277.591C76.3459 278.695 79.5242 279.986 82.8648 281.377C83.2551 281.711 83.513 281.9 83.9659 282.083C84.3695 282.338 84.5801 282.57 84.8643 282.939C85.0139 283.137 85.073 283.216 85.3334 283.502C85.6959 283.821 85.864 283.922 86.1794 284.074C86.5142 284.234 86.6893 284.358 86.9481 284.644C87.498 285.621 87.1424 286.707 88.0163 287.56C88.6014 288.03 89.0202 288.424 89.5638 288.934C90.6544 289.853 91.4956 290.74 91.8105 292.177C92.1576 292.644 92.4065 292.983 92.7424 293.446C93.0811 293.907 93.4177 294.089 94.0043 294.153C94.8154 294.374 95.2245 294.818 95.5589 295.604C95.7501 296.505 95.7309 297.191 95.1979 297.99Z" fill="#E5B12D"/>
<path d="M173.623 344.08C173.155 344.052 172.917 344.046 172.51 343.975C172.096 343.786 171.86 343.643 171.472 343.496C161.412 341.808 152.112 338.145 142.791 334.549C141.907 334.208 141.038 333.827 140.042 333.325C140.799 332.822 140.015 332.27 140.093 331.631C140.338 330.703 140.775 330.082 141.431 329.379C144.254 329.124 146.297 330.799 148.572 331.733C155.225 334.465 161.952 336.958 169.112 338.847C173.815 340.535 178.628 340.959 183.368 342.536C183.672 342.745 183.781 342.847 183.971 343.162C183.841 344.958 182.574 344.767 181.496 344.897C178.888 345.212 176.462 343.779 173.623 344.08Z" fill="#F5CC38"/>
<path d="M173.543 344.192C174.757 343.221 176.162 343.685 177.589 343.855C179.638 344.099 181.742 344.763 183.764 343.29C184.272 342.512 184.906 342.478 185.742 342.544C186.471 342.721 186.944 343.109 187.72 343.067C188.872 342.951 189.794 343.234 190.908 343.501C191.608 343.646 192.12 343.592 192.844 343.466C201.534 343.959 210.009 343.992 218.699 343.373C219.585 343.485 220.255 343.566 221.084 343.156C222.257 342.811 223.239 342.832 224.432 343.107C225.679 344.098 227.204 343.626 228.401 344.618C228.26 345.028 227.937 345.491 227.759 345.44C224.819 344.603 222.073 346.143 219.274 346.441C216.43 346.744 213.295 345.966 210.586 347.557C210.373 347.683 210.036 347.811 209.846 347.729C206.958 346.496 203.903 348.63 201.017 347.27C200.368 346.964 199.654 347.141 199.004 347.459C198.271 347.817 197.479 347.873 196.713 347.699C189.377 346.032 181.769 346.262 174.452 344.482C174.201 344.421 173.946 344.377 173.543 344.192Z" fill="#F5D348"/>
<path d="M333.129 146.421C334.301 146.081 334.228 145.346 333.853 144.394C333.036 142.32 332.407 140.16 331.454 138.153C329.996 135.082 330.816 132.153 331.669 128.945C332.389 131.211 334.109 133.217 335.079 135.641C335.938 137.79 337.003 140.095 338.1 142.264C339.316 144.669 340.276 147.261 340.91 149.877C341.199 151.068 341.455 152.169 342.224 153.361C339.352 153.085 337.619 150.822 335.627 148.943C334.808 148.171 334.026 147.361 333.129 146.421Z" fill="#F5C22C"/>
<path d="M316.631 290.464C316.679 289.699 316.885 289.049 317.142 288.419C317.405 287.771 317.744 287.084 317.178 286.499C316.557 285.857 315.906 286.573 315.071 286.659C314.175 285.722 314.93 285.063 315.395 284.387C316.323 283.036 317.352 281.756 318.426 280.283C320.586 276.837 323.373 273.987 324.677 270.025C325.987 269.287 327.211 268.705 328.624 268.091C330.693 269.291 329.931 270.82 329.17 272.544C329.048 272.753 328.962 272.96 328.878 273.035C328.211 274.508 327.749 275.972 326.528 277.22C326.432 277.366 326.388 277.307 326.419 277.327C326.169 277.49 325.972 277.716 325.754 278.122C325.702 278.513 325.711 278.766 325.648 279.195C325.252 279.997 324.731 280.506 324.394 281.329C323.695 282.188 322.675 282.603 322.589 283.908C322.264 284.472 322.086 284.901 321.769 285.449C319.819 286.588 319.544 288.705 318.215 290.273C317.673 290.616 317.266 290.727 316.631 290.464Z" fill="#F4BA22"/>
<path d="M228.687 344.791C227.301 344.37 225.823 345.148 224.657 343.821C225.277 341.683 226.904 342.265 228.532 342.443C233.47 342.335 238.014 341.037 242.565 339.812C243.89 339.455 245.137 338.806 246.778 338.899C247.278 338.615 247.566 338.342 247.968 337.975C248.814 337.719 249.546 337.558 250.465 337.374C251.748 337.002 252.813 335.442 253.892 337.471C247.115 341.521 239.41 342.189 232.03 344.407C231.63 344.247 231.413 344.17 231.026 344.058C230.192 344.268 229.525 344.523 228.687 344.791Z" fill="#F0C44A"/>
<path d="M254.004 337.723C253.088 335.931 251.945 337.625 250.845 337.348C250.8 337.052 250.869 336.601 251.107 336.478C258.258 332.792 265.774 329.95 273.23 326.97C273.534 326.848 273.915 326.915 274.467 326.894C274.924 327.658 274.287 327.596 273.764 327.887C273.056 329.254 272.241 330.223 270.622 330.448C269.863 330.587 269.237 330.478 268.525 330.837C268.024 331.879 267.335 332.46 266.218 332.791C265.23 333.19 264.303 333.057 263.32 333.487C262.64 334.181 262.281 334.95 261.256 335.19C260.138 335.351 259.141 335.032 258.093 335.634C257.692 336.057 257.43 336.361 257.03 336.732C256.534 337.143 256.051 337.254 255.467 337.558C254.934 337.685 254.561 337.727 254.004 337.723Z" fill="#F4BA22"/>
<path d="M141.559 329.318C141.594 330.276 141.364 330.901 140.568 331.455C140.071 331.995 139.679 332.394 139.007 332.701C138.231 332.522 137.61 332.28 136.88 331.916C136.337 329.81 135.552 328.256 133.097 328.447C130.753 328.63 130.209 325.921 128.123 325.345C127.186 324.173 128.13 323.377 128.672 322.321C129.285 321.845 129.813 321.946 130.531 322.035C134.541 324.125 138.236 326.375 141.559 329.318Z" fill="#F5C22C"/>
<path d="M58.6186 247.775C59.0048 247.356 59.3593 247.068 59.7607 246.968C64.4261 245.804 64.5519 246.011 63.9925 250.774C63.6916 253.335 63.8409 255.949 63.8066 258.785C62.8607 259.006 61.8407 258.374 61.7923 257.699C61.539 254.171 58.2504 251.676 58.6186 247.775Z" fill="#E7B63D"/>
<path d="M340.679 247.445C340.529 244.578 340.636 241.66 340.061 238.78C339.629 236.615 339.902 235.185 342.653 236.124C343.051 236.26 343.492 236.268 344.099 236.43C343.634 239.283 342.995 242.043 342.328 244.797C342.085 245.796 341.886 246.842 340.679 247.445Z" fill="#F5D348"/>
<path d="M329.228 272.703C328.56 271.331 329.781 269.884 328.897 268.263C330.385 266.947 331.959 265.835 333.741 264.722C332.518 267.413 331.646 270.424 329.228 272.703Z" fill="#F3BB28"/>
<path d="M326.612 277.336C326.517 275.685 327.754 274.569 328.634 273.155C328.839 274.848 328.438 276.374 326.612 277.336Z" fill="#F3BB28"/>
<path d="M263.287 64.4964C262.202 64.6545 260.878 65.2135 260.077 63.5806C261.29 63.0134 262.395 63.1655 263.287 64.4964Z" fill="#F2D333"/>
<path d="M152.265 61.4795C151.982 63.4173 150.637 63.4146 148.943 62.8143C149.751 61.9116 150.928 61.7626 152.265 61.4795Z" fill="#D9A030"/>
<path d="M258.166 335.759C258.517 334.109 259.744 334.805 260.949 335.076C260.332 336.123 259.287 335.611 258.166 335.759Z" fill="#F0C44A"/>
<path d="M138.959 332.865C138.923 332.02 139.29 331.589 140.271 331.601C139.793 332.029 142.305 332.934 140.076 333.171C139.637 333.112 139.352 333.04 138.959 332.865Z" fill="#F3B420"/>
<path d="M177.935 54.0542C177.57 55.0124 176.811 55.4466 175.618 55.0921C176.061 54.2175 176.983 54.2784 177.935 54.0542Z" fill="#F0C44A"/>
<path d="M267.021 66.0173C266.187 66.2156 265.183 66.6943 264.281 65.6485C265.129 65.4738 266.089 65.1726 267.021 66.0173Z" fill="#F2D333"/>
<path d="M272.22 68.6411C271.387 68.821 270.367 69.3185 269.479 68.2127C270.314 68.1318 271.288 67.8347 272.22 68.6411Z" fill="#F2D333"/>
<path d="M330.663 127.171C329.253 127.239 328.91 126.365 329.336 124.939C329.837 125.549 330.208 126.278 330.663 127.171Z" fill="#F5C22C"/>
<path d="M263.364 333.59C263.564 332.165 264.697 332.746 265.823 332.758C265.442 333.786 264.425 333.437 263.364 333.59Z" fill="#F0C44A"/>
<path d="M278.026 325.939C277.897 324.85 278.256 324.077 279.755 324.628C279.31 325.126 278.747 325.497 278.026 325.939Z" fill="#F3BB28"/>
<path d="M273.852 328.01C273.933 327.734 274.216 327.442 274.587 327.022C275.273 326.901 275.871 326.909 276.695 326.936C276.218 328.001 275.108 327.92 273.852 328.01Z" fill="#F3BB28"/>
<path d="M64.0552 260.209C64.3747 261.151 64.5581 262.224 64.7364 263.503C63.2977 262.866 63.5868 261.608 64.0552 260.209Z" fill="#CAC9C9"/>
<path d="M189.409 52.5312C189.438 52.9004 189.286 53.2125 189.081 53.6472C188.508 53.7662 187.96 53.8724 187.497 53.2507C188.025 52.9039 188.627 52.689 189.409 52.5312Z" fill="#F0C44A"/>
<path d="M328.303 122.602C327.513 122.638 326.474 122.786 326.686 121.303C327.28 121.61 327.766 122.03 328.303 122.602Z" fill="#F5C22C"/>
<path d="M315.512 293.795C315.361 293.878 315.355 293.678 315.349 293.578C315.189 293.256 315.136 293.01 315.282 292.584C315.445 291.956 315.58 291.549 316.278 291.404C316.184 292.158 315.924 292.935 315.512 293.795Z" fill="#F3BB28"/>
<path d="M268.559 330.929C268.661 329.888 269.379 329.92 270.318 330.316C270 331.015 269.323 330.802 268.559 330.929Z" fill="#F3BB28"/>
<path d="M80.1328 111.612C80.3243 111.955 80.3655 112.409 80.4082 113.089C80.1904 113.484 79.9711 113.653 79.6099 113.841C79.58 113.134 79.3791 112.331 80.1328 111.612Z" fill="#E7B63D"/>
<path d="M324.449 281.412C324.257 280.628 324.318 279.83 325.416 279.412C325.784 280.291 325.183 280.816 324.449 281.412Z" fill="#F3BB28"/>
<path d="M300.872 308.525C300.164 307.577 300.49 307.168 301.712 307.415C301.542 307.836 301.276 308.145 300.872 308.525Z" fill="#F3BB28"/>
<path d="M92.7246 301.551C93.4844 301.385 94.378 301.304 94.1935 302.708C93.6608 302.453 93.237 302.076 92.7246 301.551Z" fill="#E5B12D"/>
<path d="M183.138 53.3901C183.034 54.4838 182.29 54.4038 181.353 54.0545C181.801 53.7517 182.378 53.5543 183.138 53.3901Z" fill="#F0C44A"/>
<path d="M283.729 321.969C283.773 321.143 284.386 321.14 285.227 321.233C285.102 321.887 284.541 322.021 283.729 321.969Z" fill="#F3BB28"/>
<path d="M292.599 315.384C292.519 314.576 292.888 314.187 293.864 314.711C293.571 315.006 293.169 315.179 292.599 315.384Z" fill="#F3BB28"/>
<path d="M201.382 51.9072C201.332 52.7295 200.869 52.9344 200.085 52.3616C200.397 52.1302 200.786 51.9976 201.382 51.9072Z" fill="#F0C44A"/>
<path d="M192.038 52.1812C191.77 52.7551 191.335 52.7955 190.746 52.4343C190.994 51.8148 191.44 51.7885 192.038 52.1812Z" fill="#F0C44A"/>
<path d="M204.176 51.5061C203.826 51.675 203.426 51.6922 202.828 51.7009C202.933 50.7113 203.404 50.4731 204.176 51.5061Z" fill="#F0C44A"/>
<path d="M170.095 56.2878C170.008 57.4295 169.569 57.8191 168.684 56.6748C168.84 56.4429 169.041 56.3711 169.404 56.2932C169.687 56.2536 169.81 56.2202 170.095 56.2878Z" fill="#E7B63D"/>
<path d="M173.245 55.1006C173.112 55.8502 172.547 55.8868 171.749 55.7606C171.907 55.1259 172.417 54.9052 173.245 55.1006Z" fill="#F0C44A"/>
<path d="M88.5218 101.727C88.7321 102.227 88.9271 102.853 88.1159 103.339C87.8763 102.811 87.9099 102.258 88.5218 101.727Z" fill="#E7B63D"/>
<path d="M255.469 337.682C255.462 336.977 255.949 336.8 256.724 336.798C256.683 337.395 256.208 337.629 255.469 337.682Z" fill="#F0C44A"/>
<path d="M324.376 117.264C324.32 117.439 324.207 117.456 323.92 117.483C323.626 117.051 323.169 116.681 323.564 116.056C323.886 116.343 324.102 116.724 324.376 117.264Z" fill="#F5C22C"/>
<path d="M321.8 285.52C321.699 285.053 321.581 284.464 322.355 284.118C322.652 284.671 322.324 285.076 321.8 285.52Z" fill="#F3BB28"/>
<path d="M316.449 290.514C316.85 290.341 317.25 290.342 317.85 290.349C317.802 290.911 317.286 291.119 316.611 291.356C316.447 291.148 316.447 290.917 316.449 290.514Z" fill="#F3BB28"/>
<path d="M311.971 297.792C311.784 297.443 311.763 297.023 312.305 296.667C312.658 297.071 312.46 297.414 311.971 297.792Z" fill="#F3BB28"/>
<path d="M304.132 306.124C303.948 305.74 303.952 305.299 304.6 305.004C304.86 305.437 304.628 305.77 304.132 306.124Z" fill="#F3BB28"/>
<path d="M97.2305 306.106C97.5739 305.473 97.9021 305.557 98.1502 306.321C97.8888 306.382 97.6081 306.301 97.2305 306.106Z" fill="#E5B12D"/>
<path d="M299.366 310.654C299.258 310.216 299.415 309.836 300.074 309.677C300.202 310.125 299.95 310.441 299.366 310.654Z" fill="#F3BB28"/>
<path d="M194.626 52.42C194.596 53.042 194.335 53.4252 193.751 52.6285C193.953 52.4634 194.199 52.4134 194.626 52.42Z" fill="#F0C44A"/>
<path d="M72.8426 121.512C73.0551 121.856 73.0858 122.278 72.5386 122.653C72.1679 122.253 72.4019 121.918 72.8426 121.512Z" fill="#E7B63D"/>
<path d="M197.803 51.6724C197.673 52.101 197.413 52.2259 196.983 51.8887C197.108 51.4417 197.376 51.351 197.803 51.6724Z" fill="#F0C44A"/>
<path d="M171.407 343.592C171.771 343.027 172.07 343.168 172.314 343.789C172.052 343.853 171.762 343.794 171.407 343.592Z" fill="#F5D348"/>
<path d="M230.945 344.132C231.212 343.614 231.522 343.613 231.812 344.221C231.573 344.305 231.302 344.278 230.945 344.132Z" fill="#F5D348"/>
<path d="M325.829 278.188C325.253 277.66 325.579 277.435 326.299 277.339C326.288 277.603 326.127 277.859 325.829 278.188Z" fill="#F3BB28"/>
<path d="M170.267 56.3034C170.141 56.3771 170.025 56.3657 169.736 56.3205C169.715 56.192 169.866 56.0973 170.153 56.0249C170.288 56.0472 170.278 56.2183 170.267 56.3034Z" fill="#F0C44A"/>
<path d="M248.755 125.468C248.731 121.799 248.585 118.237 248.446 114.674C248.404 113.594 248.462 112.528 249.669 112.053C250.954 111.548 251.574 112.507 252.223 113.319C256.801 119.048 262.444 123.445 268.91 126.865C270.504 127.708 271.086 127.596 271.374 125.691C271.656 123.832 271.175 121.169 272.608 120.347C273.832 119.644 275.578 121.864 277.22 122.573C280.905 124.165 284.746 125.267 288.589 126.355C294.837 128.125 300.187 131.083 303.273 137.125C306.027 142.519 310.378 145.464 316.432 145.961C323.021 146.502 328.253 149.541 332.57 154.52C335.976 158.449 340.743 160.367 345.482 162.119C349.472 163.594 353.57 164.782 357.635 166.05C359.234 166.549 360.517 166.861 358.893 168.943C357.44 170.806 358.182 172.268 360.829 173.145C365.053 174.543 369.485 175.05 373.81 176.017C376.267 176.567 378.72 177.188 381.112 177.968C387.961 180.203 391.39 185.328 392.758 192.106C393.163 194.115 392.298 195.696 390.838 196.947C389.586 198.021 388.218 198.959 386.904 199.961C384.799 201.564 383.086 203.41 382.163 206.009C380.972 209.363 378.547 211.97 376.088 214.41C370.735 219.721 365.693 225.491 358.346 228.254C352.326 230.518 346.202 230.607 339.678 229.094C341.447 226.897 343.481 225.464 345.449 223.959C345.982 223.552 346.862 223.34 346.767 222.508C346.66 221.572 345.708 221.443 344.998 221.215C343.748 220.814 342.435 220.539 341.145 220.944C334.894 222.907 328.575 222.211 322.289 221.323C320.382 221.054 319.912 221.67 319.982 223.315C320.084 225.706 321.04 227.87 321.76 230.099C322.381 232.018 323.417 230.072 324.311 230.369C324.638 234.078 324.966 237.781 325.332 241.923C327.593 239.814 329.621 237.969 331.592 236.064C332.666 235.024 333.193 235.002 333.537 236.638C334.608 241.729 334.828 246.772 333.566 251.887C332.157 257.598 328.779 261.379 323.289 263.427C315.583 266.301 307.543 266.935 299.432 267.183C298.328 267.217 297.751 266.879 297.473 265.656C295.403 256.542 290.093 249.271 284.11 242.384C282.928 241.023 282.445 241.975 281.761 242.831C278.603 246.783 276.037 251.13 273.321 255.378C262.597 272.147 248.656 285.331 230.018 292.805C206.35 302.297 182.59 301.337 159.011 292.188C155.412 290.792 155.571 290.664 156.817 287.071C163 269.24 169.086 251.378 171.918 232.617C172.426 229.251 172.592 225.857 172.166 222.47C172.006 221.202 171.911 219.591 170.608 219.088C169.301 218.583 168.158 219.771 167.166 220.548C164.945 222.288 163.813 224.719 163.29 227.448C162.694 230.555 162.723 233.675 163.104 236.805C163.526 240.282 162.266 241.914 158.669 242.39C157.211 242.583 155.717 242.569 154.241 242.546C152.77 242.523 151.302 242.371 149.656 242.264C150.147 243.653 150.751 244.894 151.011 246.203C151.393 248.128 150.515 248.8 148.675 248.065C145.745 246.895 143.301 244.874 140.584 243.329C139.953 242.971 139.325 242.116 138.504 242.66C137.834 243.104 138.29 243.95 138.225 244.617C138.119 245.702 138.969 247.236 137.966 247.774C136.761 248.42 135.843 246.919 134.978 246.175C130.092 241.971 125.581 237.397 121.395 232.48C118.914 229.566 118.365 226.153 117.911 222.583C117.185 216.878 117.24 211.518 120.445 206.246C123.297 201.556 123.695 195.844 125.067 190.551C125.632 188.367 126.205 186.171 126.999 184.065C127.811 181.911 128.847 181.744 130.39 183.492C131.533 184.786 132.441 186.29 133.436 187.714C134.329 188.993 134.956 188.679 135.261 187.359C135.69 185.501 136.008 183.617 136.441 181.396C138.434 182.786 139.606 184.812 141.612 186.795C142.737 181.495 143.954 176.574 143.013 171.489C142.622 169.374 140.615 168.965 138.827 169.522C136.417 170.273 135.585 169.475 135.769 167.145C135.927 165.155 135.355 164.094 133.123 164.921C131.697 165.449 131.193 164.677 131.275 163.392C131.455 160.542 130.291 159.204 127.328 159.612C124.149 160.051 121.942 158.913 121.465 155.189C120.206 156.303 120.632 157.407 120.558 158.332C120.282 161.8 120.264 165.294 119.517 168.711C119.36 169.427 119.288 170.431 118.317 170.503C117.574 170.558 117.132 169.813 116.793 169.216C114.943 165.966 113.16 162.678 111.281 159.446C110.785 158.592 110.395 157.261 109.213 157.381C108.24 157.479 108.462 158.803 108.141 159.564C107.223 161.741 106.528 161.989 104.819 160.229C99.8982 155.165 96.6441 149.412 97.8469 141.988C98.106 140.389 98.1905 138.996 96.4223 138.01C95.1881 137.323 94.9926 135.875 95.1058 134.522C95.3831 131.207 95.9892 127.929 97.519 124.968C99.4831 121.166 101.044 117.221 102.462 113.198C104.048 108.699 108.69 105.411 113.426 105.326C114.666 105.303 115.832 105.477 116.902 106.198C119.585 108.007 122.496 109.423 125.526 110.487C132.219 112.839 137.883 117.235 144.453 119.827C145.72 120.327 146.637 120.302 147.838 119.716C153.489 116.957 159.427 115.461 165.765 116.258C166.861 116.395 167.578 115.954 168.366 115.39C172.788 112.228 177.477 111.386 182.642 113.524C191.266 117.093 199.731 120.902 206.642 127.42C207.207 127.953 207.88 128.374 208.523 128.818C210.255 130.013 211.706 129.876 212.942 128.016C215.895 123.571 218.287 118.862 219.83 113.745C220.048 113.023 219.863 112.017 220.924 111.947C221.827 111.887 222.199 112.732 222.609 113.391C224.005 115.632 224.827 118.124 225.49 120.64C226.73 125.345 227.911 130.072 228.891 134.837C229.298 136.818 230.097 137.075 231.732 136.345C236.135 134.376 240.153 131.852 243.626 128.466C245.162 126.969 245.802 125.031 246.435 123.137C247.643 123.349 247.251 124.526 248.001 125.132C248.233 125.48 248.407 125.58 248.755 125.468Z" fill="#040404"/>
<path d="M147.724 254.434C152.074 255.326 155.03 254.168 156.726 250.372C157.791 247.988 159.802 248.63 161.383 248.486C162.533 248.381 161.896 249.868 161.698 250.551C159.611 257.729 157.525 264.907 155.297 272.041C153.873 276.603 152.158 281.074 150.685 285.622C150.163 287.23 149.582 287.414 148.139 286.537C139.77 281.452 132.158 275.419 125.155 268.589C124.206 267.663 124.032 267.034 124.76 265.774C127.601 260.859 127.093 256.14 123.664 252.252C122.71 251.17 122.112 250.917 121.036 252.145C114.857 259.198 109.232 266.561 107.067 275.957C106.801 277.112 106.395 277.764 105 277.699C97.165 277.331 89.3806 276.774 81.8728 274.18C75.9604 272.137 72.2124 268.273 70.7692 262.125C69.467 256.578 69.7133 251.139 71.4391 245.284C74.0248 247.707 76.3828 249.917 79.1501 252.51C79.4384 248.838 79.6561 245.675 79.9573 242.519C80.0283 241.775 79.6527 240.196 81.4192 241.333C82.2721 241.882 82.443 241.019 82.6484 240.524C83.5168 238.43 84.2361 236.281 84.4542 234.01C84.6231 232.252 84.0696 231.49 82.0377 231.87C76.7078 232.864 71.3142 233.123 65.9364 232.251C63.9909 231.936 62.145 230.861 60.0938 231.488C59.1228 231.785 57.7922 231.914 57.6096 233.078C57.4603 234.029 58.7319 234.24 59.3763 234.774C60.5141 235.717 61.7148 236.591 62.7918 237.598C63.3772 238.145 64.701 238.432 64.2826 239.438C63.972 240.184 62.7715 240.104 61.9247 240.223C52.4646 241.555 43.9906 239.585 36.7617 232.994C32.8382 229.417 28.8256 225.945 25.4524 221.821C23.9635 220.001 22.5929 218.113 21.8451 215.823C20.8924 212.905 18.4637 211.265 16.1381 209.58C10.9085 205.791 10.5675 204.477 12.8 198.395C15.4522 191.17 21.465 188.595 28.2186 187.051C32.6247 186.043 37.0772 185.241 41.4977 184.294C42.5076 184.077 43.4965 183.705 44.4508 183.3C46.3215 182.506 46.7564 181.028 45.5118 179.55C43.806 177.524 45.1271 177.106 46.7202 176.645C52.8156 174.88 58.884 173.064 64.6048 170.228C67.6075 168.74 70.432 167.006 72.5738 164.448C76.548 159.702 81.7729 157.822 87.6388 156.436C92.055 155.392 94.647 155.969 96.678 160.147C97.9962 162.858 100.207 165.099 102.963 166.907C103.039 168.093 102.17 168.167 101.43 168.335C99.2966 168.82 97.1416 169.088 94.9572 168.726C89.1297 167.761 83.7441 168.98 78.6542 171.886C74.5041 174.256 70.4217 176.788 65.7284 178.025C65.3085 178.135 64.9099 178.327 64.5383 178.553C63.0631 179.451 61.5859 180.62 62.1197 182.458C62.6807 184.391 64.6245 183.479 65.9731 183.5C67.9689 183.531 69.5945 182.392 71.2185 181.372C74.9042 179.058 78.4046 176.47 81.989 174.008C86.7082 170.765 91.9943 170.873 97.3198 171.176C98.9722 171.27 99.3529 172.298 98.5796 173.738C98.415 174.045 98.2622 174.378 98.0099 174.61C94.2246 178.082 92.4679 182.767 90.491 187.3C89.2075 190.242 87.032 191.949 84.0253 192.886C76.7959 195.138 69.6135 195.769 62.2445 193.325C55.8341 191.2 49.5096 193.044 43.2433 194.467C41.9253 194.766 41.082 195.869 40.4527 197.065C38.5084 200.762 37.7986 204.79 37.4698 208.876C37.308 210.887 38.199 212.614 39.9103 213.803C44.0014 216.645 48.6886 217.979 53.4784 218.926C55.7017 219.365 57.2706 217.796 58.5722 216.271C60.9486 213.487 63.5574 210.935 66.0706 208.286C69.1797 205.009 73.0282 203.131 77.2851 201.953C79.8535 201.243 80.5773 201.816 80.0411 204.423C79.5453 206.833 81.0814 206.498 82.4588 206.56C90.7689 206.933 98.6275 208.819 105.654 213.49C106.745 214.215 107.725 215.068 108.678 215.965C110.215 217.412 111.212 218.866 109.413 220.839C108.804 221.507 108.797 222.47 108.864 223.337C109.293 228.943 107.6 234.184 106.07 239.439C105.001 243.111 103.565 246.685 102.535 250.355C100.808 256.505 96.2068 260.183 91.6935 264C88.4325 266.758 88.4061 266.825 92.4662 268.434C99.7022 271.301 98.7508 271.787 101.085 264.484C104.147 254.906 109.773 247.147 116.544 240.015C116.847 239.697 117.208 239.456 117.826 239.287C119.205 239.161 119.649 240.139 120.268 240.819C124.144 245.075 128.328 248.998 132.905 252.489C133.934 253.274 135.037 254.004 136.519 254.359C137.789 254.94 138.283 255.929 138.75 256.98C140.825 261.655 143.312 266.12 145.784 270.591C146.203 271.349 146.687 272.071 147.26 272.724C148.39 274.011 149.5 273.902 150.483 272.578C151.96 270.591 152.715 268.547 151.355 266.091C149.889 263.442 148.596 260.694 147.465 257.877C147.143 257.075 146.718 256.305 146.912 255.206C147.108 254.787 147.294 254.605 147.724 254.434Z" fill="#080808"/>
<path d="M118.07 239.077C117.886 239.564 117.812 239.93 117.592 240.144C109.491 248 103.81 257.279 100.684 268.166C99.5615 272.074 99.2763 272.053 95.5656 270.59C93.3021 269.697 91.0967 268.657 88.8349 267.759C87.2031 267.112 87.2639 266.428 88.5893 265.489C89.296 264.988 89.8832 264.314 90.6025 263.836C97.7854 259.06 101.757 252.227 103.886 243.997C105.82 236.523 108.753 229.272 108.221 221.332C108.193 220.924 108.253 220.249 108.493 220.124C111.322 218.653 109.214 217.527 108.179 216.555C102.551 211.274 95.5188 209.132 88.1377 207.908C85.6587 207.497 83.1268 207.258 80.6159 207.23C78.372 207.205 78.4176 206.271 79.1271 204.673C79.4211 204.01 80.237 203.264 79.5651 202.56C78.9524 201.919 78.0735 202.493 77.353 202.693C73.1696 203.854 69.4311 205.842 66.4052 208.991C63.8159 211.685 61.3086 214.459 58.8067 217.235C56.6034 219.68 54.1485 220.482 50.8731 219.339C47.1818 218.05 43.406 217.049 40.0219 214.986C37.6364 213.531 36.4702 211.52 36.6296 208.714C36.8745 204.403 37.936 200.32 39.8196 196.431C40.6433 194.731 41.906 193.692 43.7468 193.341C50.7513 192.005 57.6692 190.621 64.8236 193.058C71.5299 195.343 78.2353 193.935 84.7819 191.796C86.9601 191.085 88.5777 189.752 89.4687 187.582C89.9301 186.458 90.554 185.399 91 184.27C92.4127 180.693 93.999 177.243 96.9364 174.593C97.6114 173.984 98.1058 173.175 99.1198 171.916C92.7294 172.182 86.9365 171.086 81.812 175.083C78.1879 177.91 74.1736 180.232 70.39 182.861C67.9203 184.576 65.1456 184.478 62.3643 184.515C61.3716 184.528 61.0473 184.032 60.9623 183.078C60.74 180.584 62.1339 178.121 64.9906 177.389C69.9801 176.109 74.2159 173.39 78.6021 170.935C82.6461 168.67 86.9144 167.553 91.5809 167.688C95.288 167.796 99.043 168.42 102.902 167.125C104.695 167.289 106.095 168.202 107.826 168.148C109.267 168.102 109.342 169.858 110.209 170.827C109.929 172.287 108.714 171.873 107.932 172.203C105.96 173.036 105.805 173.479 107.256 175.087C111.573 179.875 115.415 184.995 118.417 190.931C117.006 196.092 116.303 201.314 113.47 205.933C110.248 211.186 111.158 217.106 111.47 222.899C111.801 229.043 114.412 234.175 118.07 239.077Z" fill="#A3A7B3"/>
<path d="M128.956 322.011C129.224 323.321 128.269 324.016 127.963 325.139C126.204 325.189 125.354 324.102 124.88 322.364C124.596 321.972 124.365 321.779 123.91 321.682C122.895 321.687 121.52 321.828 121.36 321.152C120.427 317.207 114.869 317.954 114.156 313.852C114.023 313.085 112.973 313.32 112.352 313.107C111.002 312.645 109.809 312.192 109.596 310.465C109.402 308.888 108.035 309.182 106.73 309.134C106.431 309.045 106.348 308.957 106.135 308.743C106.005 308.616 106.006 308.616 106.006 308.616C105.786 308.385 105.48 308.355 105.078 308.182C104.96 308.089 104.961 308.094 104.963 308.095C104.495 307.378 104.634 306.45 104.027 305.606C103.219 304.467 101.912 304.367 100.94 303.472C100.695 303.454 100.609 303.515 100.393 303.483C100.264 303.391 100.262 303.394 100.263 303.393C100.203 303.305 100.141 303.217 100.172 302.999C100.176 302.582 100.088 302.296 99.8763 301.92C99.3726 301.46 99.5369 300.959 99.3269 300.389C98.2872 299.785 97.3574 299.314 96.2655 298.77C95.9881 298.573 95.8667 298.456 95.6501 298.256C95.5607 298.166 95.5618 298.172 95.5649 298.172C95.0408 297.455 95.4475 296.619 95.1536 295.696C94.7834 295.004 94.4 294.636 93.6269 294.539C93.0692 294.782 92.8531 294.512 92.5298 294.115C92.1757 293.682 91.9263 293.383 91.5429 293.02C90.8963 291.777 91.5596 289.934 89.4046 289.458C88.8688 288.996 88.4501 288.695 87.8919 288.325C86.9763 287.258 87.3002 285.984 86.7823 284.739C86.4332 284.59 86.2097 284.591 85.8186 284.593C85.5381 284.47 85.4184 284.353 85.2031 284.154C85.1141 284.065 85.1175 284.073 85.1216 284.075C85.002 283.958 84.8839 283.835 84.6809 283.615C84.4553 283.28 84.3201 283.036 84.126 282.665C84.2156 282.23 84.4754 282.077 84.9565 282.005C85.3444 282.017 85.5753 282.039 85.9661 282.131C86.5109 282.438 86.9417 282.504 87.543 282.563C88.0989 282.613 88.4922 282.641 89.0682 282.745C89.6563 282.984 90.0858 283.026 90.6734 283.101C91.7542 283.216 92.6757 283.304 93.7888 283.441C94.212 283.519 94.4438 283.545 94.8496 283.59C95.748 283.645 96.4725 283.68 97.4031 283.787C98.3681 284.184 99.285 283.933 100.122 284.663C101.486 286.633 103.038 288.148 104.654 289.586C106.65 291.361 108.997 292.568 111.684 292.586C119.304 292.636 126.851 293.84 134.487 293.789C138.964 293.759 143.444 294.502 148.163 294.382C155.392 298.169 162.836 300.841 170.604 302.67C189.776 307.186 208.766 306.859 227.739 300.606C228.237 300.498 228.545 300.412 229.096 300.326C240.311 301.446 251.325 301.738 262.346 302.15C270.66 302.462 279 302.757 287.302 303.502C291.649 303.892 295.808 303.389 299.538 300.868C300.251 300.387 300.998 299.898 302.145 300.139C302.062 302.506 300.054 303.359 298.674 304.677C295.54 307.673 292.185 310.431 288.214 312.249C285.868 313.322 283.39 314.268 280.591 312.87C279.642 313.505 278.704 313.519 277.724 313.475C270.603 313.152 263.479 312.879 256.359 312.561C245.689 312.084 235.035 311.239 224.368 310.683C219.334 310.421 214.291 310.314 209.254 310.038C201.355 309.606 193.473 308.805 185.566 308.646C178.34 308.501 171.168 307.669 163.955 307.348C152.496 306.839 141.001 306.888 129.592 305.455C129.246 305.411 129.679 305.46 129.332 305.425C124.266 304.915 123.69 305.689 125.721 310.526C125.178 313.057 123.884 311.699 123.104 311.087C121.192 309.584 119.303 308.049 117.32 306.641C116.605 306.133 115.785 304.996 114.878 305.863C114.142 306.567 114.691 307.713 115.154 308.539C116.628 311.168 118.979 312.992 121.17 314.971C123.732 317.285 127.029 318.77 128.956 322.011Z" fill="#F4BA22"/>
<path d="M98.5907 98.83C98.7013 98.6762 98.7065 98.4345 98.707 98.3136C98.8209 98.0718 98.9331 97.9499 99.1334 97.7404C99.2226 97.6537 99.2166 97.6501 99.2185 97.653C99.3347 97.5373 99.4506 97.4201 99.6563 97.2179C99.7448 97.1316 99.7388 97.1279 99.7407 97.1308C99.8604 97.0173 99.9746 96.8972 100.177 96.6896C102.023 96.1107 102.96 94.9024 104.153 93.4972C106.053 91.26 108.403 89.2054 110.774 87.3635C111.837 86.5378 112.787 85.3051 113.685 84.8483C116.834 83.2476 118.635 79.8703 122.097 78.8417C122.261 78.7929 122.565 78.8427 122.594 78.7663C123.824 75.5554 127.6 75.7311 129.562 73.5082C129.619 73.4438 129.64 73.3205 129.705 73.2947C132.913 72.0277 135.202 69.0144 138.747 68.4495C139.695 68.2985 140.326 68.0223 140.89 67.2672C141.454 66.511 142.102 65.7502 143.408 65.7911C142.472 69.6723 139.319 71.644 136.203 73.6741C132.961 75.7866 129.757 77.9581 126.454 80.2606C124.317 82.8029 121.609 84.4218 119.25 86.4502C117.136 88.2682 115.174 90.1871 113.519 92.4343C112.627 93.6458 111.893 94.8774 111.892 96.4433C111.892 97.5555 111.476 98.466 110.305 99.1367C106.982 100.43 103.857 101.709 101.247 103.995C99.9227 105.154 98.5677 106.368 97.9689 107.995C95.479 114.757 91.9385 121.101 89.8755 128.019C88.4614 132.761 87.8432 137.436 90.9767 142.022C92.2058 143.821 91.4387 146.439 91.3069 148.671C91.2469 149.685 90.0395 149.673 89.2069 149.853C86.0672 150.533 82.9266 151.209 79.5829 151.874C78.316 149.88 79.5725 148.154 80.1317 146.436C80.9527 143.914 81.3862 141.394 81.227 138.762C81.1863 138.089 81.3605 137.146 80.6203 136.916C79.6729 136.621 79.3206 137.609 78.9791 138.265C76.3715 143.28 74.2556 148.503 72.5175 153.877C72.1945 154.875 71.8635 155.849 71.1254 156.852C68.9711 159.094 67.1482 161.41 64.4189 162.972C65.2652 160.786 65.5124 158.41 65.7698 155.833C65.9173 155.519 66.0328 155.396 66.231 155.179C66.3184 155.088 66.3184 155.091 66.3167 155.092C66.5471 154.873 66.5797 154.57 66.7559 154.173C66.8524 154.059 66.8406 154.047 66.8471 154.052C68.3797 152.647 66.7729 150.716 67.7792 149.016C67.8959 148.833 67.8853 148.825 67.8899 148.829C68.0048 148.711 68.1188 148.593 68.3253 148.394C68.4142 148.309 68.4072 148.303 68.4105 148.306C68.5311 148.191 68.6452 148.069 68.847 147.858C68.9999 147.616 69.0983 147.488 69.3406 147.329C69.8725 146.92 69.9096 146.475 69.7407 145.804C69.7307 144.879 69.6812 144.134 69.8737 143.238C69.9825 143.085 69.9738 143.08 69.9766 143.084C70.0918 142.963 70.2118 142.845 70.4285 142.646C70.8136 142.305 71.1097 142.053 71.4723 141.668C71.6606 141.42 71.7768 141.298 71.9767 141.083C72.066 140.994 72.0626 140.992 72.064 140.994C73.0414 139.676 72.2862 138.029 73.0004 136.466C73.1144 136.295 73.107 136.292 73.1088 136.295C73.225 136.18 73.3409 136.062 73.5462 135.86C73.6342 135.773 73.6292 135.77 73.6304 135.773C73.7471 135.657 73.8633 135.541 74.0685 135.338C74.1567 135.251 74.1513 135.248 74.1529 135.251C74.269 135.135 74.3848 135.019 74.5914 134.819C74.681 134.734 74.6739 134.726 74.6779 134.731C76.0318 133.891 75.2248 132.518 75.607 131.239C75.7171 131.069 75.7174 131.07 75.7174 131.07C75.8361 130.957 75.9531 130.842 76.15 130.633C76.2322 130.541 76.2398 130.548 76.2352 130.545C76.4727 130.329 76.501 130.023 76.6756 129.623C76.7691 129.506 76.7623 129.503 76.7638 129.506C76.8801 129.391 76.9961 129.274 77.2023 129.073C77.2914 128.987 77.2842 128.982 77.2867 128.986C77.5094 128.758 77.8177 128.734 78.2165 128.555C78.3335 128.462 78.3289 128.459 78.33 128.462C78.8522 127.749 78.4612 126.916 78.7395 125.989C78.8479 125.823 78.8495 125.584 78.8505 125.464C79.0855 125.12 79.1107 124.809 79.2845 124.402C79.3788 124.284 79.3733 124.281 79.3743 124.284C79.4966 124.17 79.6123 124.049 79.8117 123.834C79.9614 123.589 80.0581 123.461 80.2976 123.302C80.7751 122.864 81.278 123.039 81.8459 122.82C81.978 122.708 81.9842 122.715 81.9809 122.712C82.5682 121.657 82.0793 120.504 82.3964 119.238C82.5111 119.061 82.5063 119.06 82.5074 119.062C82.6306 118.948 82.7464 118.826 82.9429 118.607C83.2824 118.22 83.535 117.924 83.92 117.563C84.4275 117.124 84.9296 117.294 85.4981 117.075C85.6289 116.961 85.6396 116.971 85.6345 116.966C86.1798 115.739 85.6922 114.291 86.5794 112.953C86.9328 112.625 87.1695 112.462 87.5555 112.282C87.8287 112.152 87.9531 112.04 88.1656 111.838C88.2535 111.748 88.2506 111.749 88.2498 111.751C88.6205 111.388 89.1167 111.547 89.679 111.329C89.8081 111.216 89.8175 111.227 89.8121 111.223C90.3854 110.344 89.9228 109.353 90.2313 108.265C90.3454 108.095 90.339 108.094 90.3402 108.097C90.4563 107.976 90.5774 107.859 90.7935 107.659C91.1786 107.317 91.4748 107.065 91.8375 106.681C92.4345 106.066 93.1053 106.376 93.8401 106.113C93.9847 105.994 93.9947 106.005 93.9892 106C94.6914 105.146 93.7694 103.88 94.8782 102.971C95.5444 101.626 96.384 100.838 97.9676 100.79C98.6632 100.257 98.327 99.5764 98.5907 98.83Z" fill="#F5B823"/>
<path d="M302.431 300.106C301.153 300.243 300.592 301.3 299.742 301.85C295.559 304.558 290.929 304.835 286.212 304.286C284.839 304.126 283.478 303.914 282.095 303.919C271.617 303.958 261.183 302.897 250.704 302.699C243.687 302.567 236.537 302.606 229.404 300.85C229.018 300.405 229.21 300.174 229.621 299.9C230.783 299.414 231.8 298.996 233 298.56C233.601 298.5 233.881 298.182 234.368 297.945C237.432 296.397 240.362 294.916 243.464 293.385C244.077 293.271 244.352 292.94 244.8 292.593C245.118 292.397 245.312 292.296 245.668 292.161C249.974 293.187 254.245 293.23 258.465 293.572C265.884 294.171 273.346 294.056 280.769 294.687C284.737 295.025 288.725 295.131 292.681 295.593C297.198 296.119 301.486 295.438 305.583 293.477C306.584 292.998 307.536 292.284 308.949 292.81C306.93 295.284 304.721 297.617 302.431 300.106Z" fill="#F3C122"/>
<path d="M148.269 294.205C147.884 295.562 146.9 295.592 145.785 295.498C141.572 295.145 137.353 294.545 133.142 294.582C125.68 294.647 118.292 293.651 110.863 293.302C105.775 293.063 102.205 289.43 99.7402 284.783C100.178 283.989 100.837 284.111 101.637 284.079C103.929 284.061 106.035 284.043 108.382 284.055C109.562 284.05 110.504 284.127 111.613 283.979C112.995 282.605 112.598 280.874 112.985 279.102C113.254 278.495 113.312 278.068 113.402 277.483C113.452 277.084 113.468 276.844 113.562 276.44C113.772 275.934 113.926 275.603 114.163 275.117C114.207 274.765 114.188 274.584 114.232 274.42C115.679 269.069 116.202 268.922 120.062 272.737C128.497 281.075 137.803 288.265 148.269 294.205Z" fill="#F4C424"/>
<path d="M324.584 269.881C325.491 270.921 325.02 271.802 324.404 272.703C322.7 275.194 321.025 277.705 319.198 280.312C315.024 284.411 309.945 284.121 304.908 283.761C298.771 283.323 292.647 282.761 286.481 282.842C279.275 282.937 272.133 281.932 264.963 281.411C263.862 281.331 262.686 281.259 261.736 280.119C264.15 277.175 266.67 274.451 269.345 271.647C270.235 271.29 270.997 271.132 271.779 271.185C277.963 271.601 284.172 271.603 290.334 272.358C290.767 272.411 291.168 272.567 291.728 272.952C291.921 273.098 291.905 273.106 291.91 273.099C292.113 273.33 292.346 273.517 292.807 273.599C296.62 273.578 300.281 273.55 304.184 273.561C305.553 273.578 306.693 273.802 307.949 273.344C308.645 273.171 309.196 273.087 309.956 273.034C311.495 272.964 312.633 273.764 313.911 273.878C317.623 274.208 320.86 273.186 323.621 270.321C323.985 270.103 324.196 269.998 324.584 269.881Z" fill="#F4D024"/>
<path d="M309.294 292.869C306.691 293.296 304.81 294.99 302.461 295.683C299.294 296.618 296.12 296.822 292.928 296.545C284.821 295.843 276.726 295.175 268.579 294.967C261.412 294.783 254.262 293.976 247.104 293.446C246.53 293.403 246.12 293.151 245.889 292.352C248.73 290.024 251.63 287.921 254.698 285.772C258.27 286.473 261.738 286.807 265.201 286.838C273.464 286.911 281.68 287.607 289.904 288.302C295.013 288.734 300.152 288.329 305.279 288.641C307.244 288.761 309.202 287.966 311.028 287.094C311.959 286.65 312.859 286.037 314.172 286.544C313.131 289.047 310.942 290.638 309.294 292.869Z" fill="#F4C623"/>
<path d="M314.489 286.683C313.409 286.556 312.761 287.181 311.986 287.559C309.014 289.009 305.995 289.709 302.539 289.405C297.112 288.926 291.636 289.278 286.168 288.843C276.423 288.069 266.645 287.714 256.878 287.224C255.974 287.178 255.4 286.857 254.949 285.899C257.011 283.824 259.157 281.923 261.467 279.961C263.588 280.671 265.689 280.773 267.723 280.893C276.613 281.418 285.49 282.088 294.416 282.145C297.876 282.167 301.457 282.421 304.982 282.899C309.692 283.537 314.467 283.227 318.863 280.42C317.679 282.384 316.3 284.351 314.899 286.499C314.878 286.68 314.618 286.682 314.489 286.683Z" fill="#F4CB23"/>
<path d="M291.919 272.878C284.575 272.697 277.213 272.54 269.696 271.653C274.063 265.765 278.281 259.724 282.019 253.357C283.021 251.65 283.672 252.176 284.589 253.446C288.75 259.204 291.403 265.518 291.919 272.878Z" fill="#F5D52B"/>
<path d="M146.9 255.209C148.768 259.207 150.626 263.032 152.418 266.887C153.447 269.098 151.882 273.498 149.737 274.589C148.095 275.424 147.319 274.22 146.614 273.125C143.316 268.002 140.61 262.557 137.972 257.076C137.596 256.296 137.18 255.535 136.74 254.585C138.576 254.366 140.437 254.458 142.066 253.135C143.46 252.003 144.603 253.503 146.052 253.863C146.583 254.229 146.839 254.574 146.9 255.209Z" fill="#A1A6B1"/>
<path d="M118.551 190.894C117.357 190.872 117.222 189.781 116.77 189.001C113.812 183.9 110.513 179.05 106.186 175.005C104.739 173.651 105.06 172.835 106.62 172.166C107.642 171.728 108.748 171.485 110.016 171.08C111.169 172.235 112.043 173.538 113.09 174.682C116.574 178.486 121.802 177.98 124.49 173.581C125.077 172.621 125.348 171.674 126.725 172.817C127.106 173.135 128.206 172.636 128.959 172.446C130.015 172.181 130.787 172.471 130.722 173.62C130.667 174.588 131.282 176.187 129.421 176.154C123.913 176.059 121.649 179.573 120.331 184.165C119.709 186.331 119.171 188.521 118.551 190.894Z" fill="#111111"/>
<path d="M110.424 99.2971C111.773 97.1202 111.004 94.2296 112.858 91.9698C116.631 87.3708 121.182 83.788 126.189 80.438C126.175 80.986 126.027 81.5765 125.776 82.1191C124.313 85.2771 124.493 85.5689 128.242 85.6408C125.427 88.1949 122.448 90.8175 119.33 93.2645C118.228 94.1297 117.314 95.1743 116.223 96.0177C114.816 97.1053 115.026 97.9748 116.416 99.0096C114.519 99.2245 112.592 99.2693 110.424 99.2971Z" fill="#F3C122"/>
<path d="M71.1572 156.95C72.5569 149.913 75.5753 143.4 78.7904 136.963C79.2523 136.039 80.0197 135.275 81.0188 135.563C81.9266 135.824 81.8749 136.92 81.9936 137.79C82.6565 142.645 80.5211 146.958 79.3858 151.663C76.4649 153.179 73.589 154.56 71.1572 156.95Z" fill="#F6C332"/>
<path d="M323.583 270.181C323.659 272.392 321.825 272.948 320.309 273.602C317.015 275.023 313.659 275.39 310.286 273.215C314.595 272.19 319.103 271.671 323.583 270.181Z" fill="#F5D52B"/>
<path d="M101.65 283.971C101.387 284.695 100.728 284.562 99.9268 284.59C99.0623 284.514 98.3098 284.791 97.6826 284.008C98.8986 283.501 100.188 283.716 101.65 283.971Z" fill="#F0C44A"/>
<path d="M287.869 119.647C289.323 118.999 290.52 119.959 291.883 120.698C290.511 120.947 289.294 120.202 287.869 119.647Z" fill="#F0C44A"/>
<path d="M307.884 273.205C307.223 274.857 305.897 274.045 304.561 273.748C305.441 272.964 306.582 273.236 307.884 273.205Z" fill="#F5D52B"/>
<path d="M111.587 283.877C110.948 285.011 109.901 284.602 108.75 284.22C109.499 283.533 110.454 283.78 111.587 283.877Z" fill="#F0C44A"/>
<path d="M147.059 255.168C146.34 255.215 146.209 254.771 146.236 254.083C146.77 253.793 147.277 253.855 147.838 254.262C147.674 254.586 147.427 254.777 147.059 255.168Z" fill="#9498A2"/>
<path d="M84.9752 281.875C84.8667 282.16 84.6202 282.325 84.2202 282.514C83.6075 282.468 83.1982 282.33 83.0488 281.642C83.6307 281.569 84.234 281.662 84.9752 281.875Z" fill="#F0C44A"/>
<path d="M90.718 282.997C90.3263 283.671 89.8346 283.659 89.3047 282.955C89.7095 282.599 90.1593 282.637 90.718 282.997Z" fill="#F0C44A"/>
<path d="M87.5866 282.46C87.1694 283.157 86.6696 283.147 86.168 282.348C86.5731 282.246 87.0204 282.289 87.5866 282.46Z" fill="#F0C44A"/>
<path d="M113.298 277.433C113.964 277.855 113.941 278.346 113.191 278.84C112.855 278.418 112.911 277.972 113.298 277.433Z" fill="#F0C44A"/>
<path d="M248.687 125.294C249.215 125.897 249.328 126.598 248.687 126.767C248.199 126.896 248.14 126.114 248.074 125.472C248.238 125.27 248.368 125.249 248.687 125.294Z" fill="#9498A2"/>
<path d="M229.59 299.808C229.622 300.062 229.478 300.291 229.273 300.642C228.925 300.746 228.639 300.728 228.143 300.653C228.267 300.034 228.788 299.813 229.59 299.808Z" fill="#F5D348"/>
<path d="M234.344 297.848C234.36 298.369 234.057 298.645 233.354 298.581C233.518 298.302 233.852 298.06 234.344 297.848Z" fill="#F5D348"/>
<path d="M294.119 121.661C294.485 121.062 294.787 121.263 295.052 121.875C294.786 121.935 294.494 121.865 294.119 121.661Z" fill="#F0C44A"/>
<path d="M285.461 118.868C285.826 118.567 286.252 118.56 286.66 119.138C286.267 119.484 285.9 119.289 285.461 118.868Z" fill="#F0C44A"/>
<path d="M282.307 117.864C282.665 117.545 283.099 117.517 283.525 118.104C283.14 118.436 282.77 118.234 282.307 117.864Z" fill="#F0C44A"/>
<path d="M316.055 139.478C316.249 138.924 316.576 138.926 316.972 139.442C316.738 139.561 316.453 139.571 316.055 139.478Z" fill="#F0C44A"/>
<path d="M114.061 275.027C114.329 275.386 114.346 275.809 113.785 276.206C113.439 275.816 113.612 275.449 114.061 275.027Z" fill="#F0C44A"/>
<path d="M323.361 141.024C323.635 140.425 323.96 140.531 324.293 141.112C324.041 141.203 323.751 141.172 323.361 141.024Z" fill="#F0C44A"/>
<path d="M320.753 140.467C321.026 139.884 321.345 139.993 321.684 140.52C321.431 140.622 321.135 140.61 320.753 140.467Z" fill="#F0C44A"/>
<path d="M94.952 283.506C94.7659 283.981 94.4666 284.049 94.0469 283.614C94.2538 283.192 94.5594 283.215 94.952 283.506Z" fill="#F0C44A"/>
<path d="M292.86 273.494C292.488 274.181 292.159 274.06 291.927 273.245C292.196 273.188 292.478 273.284 292.86 273.494Z" fill="#F5D52B"/>
<path d="M318.146 139.936C318.385 139.378 318.701 139.469 319.061 139.938C318.82 140.05 318.528 140.057 318.146 139.936Z" fill="#F0C44A"/>
<path d="M244.76 292.503C244.842 293.03 244.591 293.387 243.817 293.364C243.956 293.06 244.277 292.784 244.76 292.503Z" fill="#F5D348"/>
<path d="M313.949 138.982C314.219 138.37 314.55 138.448 314.892 139.052C314.633 139.154 314.34 139.128 313.949 138.982Z" fill="#F0C44A"/>
<path d="M311.713 138.064C312.115 137.865 312.493 137.974 312.786 138.53C312.349 138.82 312.014 138.61 311.713 138.064Z" fill="#F0C44A"/>
<path d="M156.276 70.6411C156.936 69.6353 158.034 69.337 159.072 68.902C162.437 67.4914 165.816 66.1139 167.476 62.4373C168.435 60.3116 170.603 59.7245 172.532 59.0647C176.543 57.6926 180.612 56.4536 185.149 56.397C186.209 59.7568 186.732 60.129 191.216 59.6173C198.047 58.8378 204.891 58.5886 211.76 58.6701C219.524 58.7622 227.161 59.8894 234.773 61.2766C235.288 61.3704 235.785 61.5269 236.392 61.9787C239.776 63.9244 243.491 64.0515 246.905 65.2237C251.67 66.8595 256.407 68.5258 260.858 70.9126C261.616 71.3193 262.61 71.715 262.407 72.7453C262.22 73.6976 261.171 74.0593 260.35 74.068C255.925 74.1148 251.493 74.4109 247.075 73.9123C246.475 73.8447 245.875 73.6173 245.285 73.6492C239.028 73.9882 232.807 73.182 226.565 73.0191C216.362 72.7528 206.185 71.778 195.972 71.4429C189.929 71.2446 183.89 70.686 177.837 70.4122C174.644 70.2678 171.45 70.0112 168.244 69.9594C164.852 69.9046 161.497 70.0595 158.19 70.9056C157.645 71.045 157.01 70.8341 156.276 70.6411Z" fill="#F4C422"/>
<path d="M236.7 61.9971C232.034 61.5358 227.523 60.8736 222.997 60.331C214.83 59.3518 206.649 59.1495 198.444 59.9285C194.839 60.2707 191.212 60.4916 187.593 60.5346C184.508 60.5713 183.916 59.4304 185.356 56.5844C186.681 56.1439 187.983 55.8902 189.423 55.4956C196.383 54.7821 203.21 54.0361 210.062 54.3436C220.093 54.7937 230.077 55.7286 240.009 58.4537C240.725 60.4747 243.131 60.0542 244.172 61.6549C241.737 63.1306 239.213 60.8455 236.7 61.9971Z" fill="#F4B120"/>
<path d="M125.357 311.934C125.511 310.546 124.648 309.865 124.031 309.035C123.268 308.01 122.905 306.774 123.402 305.587C123.925 304.339 125.219 304.371 126.346 304.452C132.808 304.917 139.268 305.427 145.729 305.91C146.595 305.974 147.468 306.039 148.332 305.995C155.109 305.654 161.875 306.296 168.613 306.667C177.681 307.166 186.755 307.641 195.818 308.209C205.234 308.799 214.635 309.45 224.071 309.727C231.322 309.939 238.549 310.988 245.799 311.159C255.823 311.397 265.812 312.464 275.849 312.297C277.223 312.275 278.54 313.01 280.188 312.794C280.236 317.801 276.605 320.081 272.895 322.287C266.694 325.973 260.09 327.42 252.936 325.906C252.185 325.748 251.377 325.861 250.363 325.849C249.651 326.275 249.095 326.526 248.22 326.586C247.514 326.6 247.042 326.597 246.33 326.63C237.734 327.011 229.416 326.168 221.08 325.853C213.609 325.57 206.148 325.11 198.686 324.656C190.791 324.176 182.895 323.681 174.999 323.289C168.143 322.948 161.289 322.433 154.407 322.522C149.014 322.591 143.628 322.236 138.219 320.46C135.796 320.214 134.16 318.802 132.181 317.662C129.968 315.543 127.119 314.513 125.357 311.934Z" fill="#F3B420"/>
<path d="M183.446 342.867C178.688 341.954 173.95 341.328 169.319 339.571C168.042 335.329 164.685 333.791 161.145 332.386C157.431 330.911 153.788 329.262 150.169 327.568C149.285 327.154 148.055 326.984 148.281 325.364C151.745 324.326 155.149 324.849 158.454 325.119C162.953 325.486 167.465 325.583 171.961 325.862C180.959 326.421 189.987 326.599 198.988 327.117C209.549 327.724 220.139 327.888 230.671 328.991C233.096 329.246 235.529 329.108 237.959 329.15C239.441 329.175 240.921 329.24 242.314 329.796C243.592 330.306 245.128 330.709 245.232 332.39C245.334 334.03 243.853 334.408 242.49 335.1C236.819 336.369 231.342 337.491 225.725 338.757C223.058 340.32 220.235 340.002 217.513 340.263C207.544 341.221 197.62 340.406 187.695 339.51C185.095 339.275 184.441 339.836 183.446 342.867Z" fill="#F5C22C"/>
<path d="M242.51 335.247C242.316 334.524 242.86 334.259 243.377 333.912C245.403 332.554 245.382 332.038 243.244 331.038C241.986 330.449 240.688 329.953 239.248 330.024C230.827 330.438 222.491 329.001 214.08 328.862C207.349 328.751 200.602 328.235 193.867 327.858C186.607 327.452 179.335 327.34 172.085 326.848C165.349 326.392 158.622 325.851 151.867 325.866C150.75 325.868 149.74 324.928 148.442 325.7C148.175 325.967 148.002 326.141 147.88 326.097C143.977 324.67 140.051 323.277 137.279 319.778C145.708 321.862 154.288 321.478 162.847 321.745C172.689 322.052 182.518 322.836 192.36 323.318C198.485 323.618 204.615 323.956 210.733 324.359C222.476 325.134 234.219 325.714 246.23 325.848C246.865 326.285 247.303 326.433 247.933 325.959C248.598 325.848 249.155 325.848 249.921 325.848C250.223 326.572 250.655 326.884 251.362 326.882C251.965 326.881 252.586 326.808 253.168 326.923C254.689 327.222 256.706 327.621 257.044 328.985C257.415 330.481 255.287 330.773 254.141 331.392C250.563 333.325 246.758 334.638 242.51 335.247Z" fill="#F4BA22"/>
<path d="M183.439 343.061C182.673 339.459 184.358 337.972 188.074 338.64C190.363 339.051 192.699 339.281 195.025 339.404C204.106 339.884 213.188 340.205 222.243 338.93C223.182 338.798 224.155 338.905 225.349 338.9C226.084 339.565 226.913 339.725 227.584 339.796C229.404 339.987 229.314 340.927 228.743 342.381C227.417 342.834 226.114 343.093 224.68 343.501C223.482 343.652 222.414 343.653 221.118 343.672C220.66 343.859 220.433 344.038 220.007 344.137C214.166 344.792 208.445 344.635 202.729 344.668C199.35 344.688 195.976 344.662 192.398 344.133C191.936 344.128 191.704 344.124 191.296 344.117C190.043 343.947 188.964 343.779 187.677 343.61C187.158 343.595 186.875 343.502 186.513 343.21C185.681 343.103 184.964 343.094 184.032 343.086C183.817 343.086 183.565 343.069 183.439 343.061Z" fill="#F4B120"/>
<path d="M315.246 292.447C315.392 292.659 315.388 292.894 315.363 293.304C315.013 293.418 314.62 293.371 314.626 292.951C314.628 292.788 314.93 292.63 315.246 292.447Z" fill="#F4BA22"/>
<path d="M247.912 337.894C248.01 338.343 247.864 338.749 247.161 338.872C247.046 338.413 247.193 338.008 247.912 337.894Z" fill="#F4BA22"/>
<path d="M72.9603 136.417C72.8126 137.818 73.7421 139.514 72.2661 140.948C72.1554 139.484 71.7225 137.886 72.9603 136.417Z" fill="#E7B63D"/>
<path d="M67.746 148.948C67.5654 150.527 68.58 152.388 67.0547 154.008C67.6914 152.48 66.0113 150.528 67.746 148.948Z" fill="#E7B63D"/>
<path d="M86.5612 112.847C86.4373 114.093 86.1784 115.397 85.7745 116.831C85.6344 115.899 85.6392 114.837 85.6485 113.548C85.9107 113.182 86.1684 113.043 86.5612 112.847Z" fill="#E7B63D"/>
<path d="M75.5755 131.202C75.4751 132.256 76.299 133.633 74.8789 134.689C75.4339 133.713 74.9615 132.419 75.5755 131.202Z" fill="#E7B63D"/>
<path d="M82.3642 119.204C82.4198 120.182 82.7267 121.332 82.1263 122.569C82.065 121.589 81.7651 120.441 82.3642 119.204Z" fill="#E7B63D"/>
<path d="M69.8362 143.225C69.9834 143.977 69.9842 144.869 69.7365 146.001C69.5167 145.28 69.2632 144.298 69.8362 143.225Z" fill="#E7B63D"/>
<path d="M78.7073 125.961C78.7721 126.615 78.6965 127.406 78.4759 128.331C78.4096 127.676 78.4883 126.888 78.7073 125.961Z" fill="#E7B63D"/>
<path d="M69.9785 146.211C70.5297 146.69 70.3926 147.02 69.6006 147.253C69.4552 147.176 69.4616 147.08 69.4781 146.841C69.5624 146.615 69.6367 146.532 69.8347 146.338C69.9583 146.226 69.9716 146.216 69.9785 146.211Z" fill="#E7B63D"/>
<path d="M85.4531 116.961C85.3522 117.434 84.891 117.487 84.2314 117.495C84.3426 117.047 84.7931 116.967 85.4531 116.961Z" fill="#E7B63D"/>
<path d="M81.8016 122.709C81.6999 123.179 81.2384 123.229 80.582 123.242C80.6896 122.788 81.1423 122.715 81.8016 122.709Z" fill="#E7B63D"/>
<path d="M79.2507 124.373C79.2869 124.574 79.1945 124.866 78.9771 125.25C78.9421 125.05 79.0321 124.757 79.2507 124.373Z" fill="#E7B63D"/>
<path d="M78.1781 128.473C78.0888 128.63 77.8441 128.798 77.4443 128.978C77.5337 128.822 77.7782 128.653 78.1781 128.473Z" fill="#E7B63D"/>
<path d="M76.6416 129.593C76.6746 129.793 76.5799 130.08 76.3579 130.454C76.3251 130.254 76.4195 129.967 76.6416 129.593Z" fill="#E7B63D"/>
<path d="M66.7239 154.145C66.7581 154.345 66.6639 154.631 66.4423 155.004C66.4084 154.804 66.5019 154.517 66.7239 154.145Z" fill="#E7B63D"/>
<path d="M68.824 147.833C68.8858 147.944 68.788 148.084 68.5293 148.251C68.4681 148.14 68.5668 148.001 68.824 147.833Z" fill="#E7B63D"/>
<path d="M68.2995 148.366C68.3595 148.477 68.2618 148.613 68.0074 148.775C67.9454 148.664 68.0424 148.527 68.2995 148.366Z" fill="#E7B63D"/>
<path d="M66.2023 155.148C66.2633 155.258 66.1647 155.398 65.91 155.572C65.8934 155.494 65.9897 155.351 66.2023 155.148Z" fill="#E7B63D"/>
<path d="M73.5192 135.83C73.5796 135.941 73.4813 136.078 73.2245 136.241C73.1636 136.13 73.2617 135.992 73.5192 135.83Z" fill="#E7B63D"/>
<path d="M74.0416 135.308C74.1021 135.42 74.0034 135.556 73.7459 135.718C73.6851 135.606 73.7836 135.47 74.0416 135.308Z" fill="#E7B63D"/>
<path d="M74.5655 134.79C74.6253 134.902 74.526 135.037 74.2683 135.197C74.2076 135.085 74.3065 134.949 74.5655 134.79Z" fill="#E7B63D"/>
<path d="M76.1191 130.6C76.1817 130.71 76.086 130.848 75.8312 131.013C75.7682 130.901 75.8644 130.764 76.1191 130.6Z" fill="#E7B63D"/>
<path d="M82.9167 118.58C82.9337 118.658 82.8374 118.801 82.6249 119.004C82.562 118.893 82.6601 118.752 82.9167 118.58Z" fill="#E7B63D"/>
<path d="M77.1762 129.043C77.2361 129.155 77.137 129.291 76.8796 129.452C76.819 129.341 76.9177 129.204 77.1762 129.043Z" fill="#E7B63D"/>
<path d="M79.7876 123.807C79.8498 123.918 79.752 124.059 79.492 124.227C79.4311 124.116 79.5303 123.977 79.7876 123.807Z" fill="#E7B63D"/>
<path d="M71.9496 141.052C72.0111 141.164 71.9113 141.303 71.6531 141.473C71.637 141.394 71.7349 141.253 71.9496 141.052Z" fill="#E7B63D"/>
<path d="M70.3987 142.613C70.4531 142.723 70.3505 142.86 70.0942 143.028C70.0794 142.948 70.1798 142.808 70.3987 142.613Z" fill="#E7B63D"/>
<path d="M69.8402 146.229C69.9047 146.375 69.8155 146.497 69.5888 146.645C69.4875 146.698 69.4804 146.469 69.4841 146.355C69.4878 146.242 69.7228 146.233 69.8402 146.229Z" fill="#F5B823"/>
<path d="M94.8383 102.899C94.776 103.817 94.5207 104.784 94.1245 105.874C94.2032 104.98 93.4656 103.756 94.8383 102.899Z" fill="#E7B63D"/>
<path d="M90.1995 108.233C90.2641 109.045 90.1825 109.996 89.954 111.083C89.889 110.27 89.62 109.29 90.1995 108.233Z" fill="#E7B63D"/>
<path d="M93.7943 105.995C93.5625 106.627 92.8978 106.499 92.0947 106.542C92.3228 105.909 92.9875 106.027 93.7943 105.995Z" fill="#E7B63D"/>
<path d="M98.5627 98.8032C98.6171 99.2988 98.5324 99.9215 98.3017 100.665C98.245 100.167 98.3343 99.5487 98.5627 98.8032Z" fill="#E7B63D"/>
<path d="M89.6324 111.218C89.5335 111.684 89.08 111.746 88.4248 111.752C88.5276 111.293 88.9806 111.23 89.6324 111.218Z" fill="#E7B63D"/>
<path d="M88.1364 111.805C88.195 111.919 88.0912 112.055 87.8229 112.211C87.7698 112.1 87.8751 111.965 88.1364 111.805Z" fill="#E7B63D"/>
<path d="M99.6303 97.1885C99.6901 97.2996 99.5914 97.436 99.3348 97.5983C99.274 97.4868 99.3723 97.3499 99.6303 97.1885Z" fill="#E7B63D"/>
<path d="M90.7642 107.625C90.8185 107.736 90.7153 107.873 90.4574 108.04C90.443 107.96 90.5444 107.821 90.7642 107.625Z" fill="#E7B63D"/>
<path d="M100.154 96.6641C100.213 96.7745 100.115 96.9119 99.8572 97.0757C99.7964 96.9642 99.8953 96.8271 100.154 96.6641Z" fill="#E7B63D"/>
<path d="M99.1078 97.7119C99.1682 97.8213 99.0711 97.9593 98.8197 98.1299C98.7545 98.0192 98.8494 97.8784 99.1078 97.7119Z" fill="#E7B63D"/>
<path d="M103.908 305.665C105.332 305.693 104.845 306.834 104.966 307.889C104.255 307.516 103.963 306.741 103.908 305.665Z" fill="#E7B63D"/>
<path d="M95.0371 295.754C95.7771 296.145 95.4995 296.996 95.5662 297.969C95.5677 298.172 95.318 298.165 95.1934 298.162C95.0582 297.431 95.0475 296.702 95.0371 295.754Z" fill="#F0C44A"/>
<path d="M123.849 321.793C124.235 321.12 124.56 321.253 124.788 322.045C124.516 322.103 124.227 322.011 123.849 321.793Z" fill="#F5C22C"/>
<path d="M99.2207 300.432C99.6703 300.544 99.7299 301 99.7455 301.654C99.2921 301.546 99.2343 301.088 99.2207 300.432Z" fill="#F0C44A"/>
<path d="M105.05 308.215C105.248 308.181 105.536 308.274 105.915 308.491C105.717 308.525 105.429 308.433 105.05 308.215Z" fill="#E7B63D"/>
<path d="M100.182 302.917C100.265 302.956 100.265 303.043 100.265 303.261C100.21 303.25 100.155 303.107 100.182 302.917Z" fill="#F0C44A"/>
<path d="M95.6211 298.282C95.7286 298.226 95.8668 298.327 96.0382 298.583C95.9624 298.597 95.8225 298.497 95.6211 298.282Z" fill="#F0C44A"/>
<path d="M100.312 303.473C100.263 303.391 100.522 303.391 100.652 303.392C100.641 303.447 100.5 303.501 100.312 303.473Z" fill="#F0C44A"/>
<path d="M106.062 308.727C106.167 308.673 106.3 308.771 106.458 309.021C106.353 309.073 106.222 308.974 106.062 308.727Z" fill="#E7B63D"/>
<path d="M86.665 284.801C87.7521 285.431 87.7228 286.643 87.7415 288.05C86.2745 287.547 86.8005 286.172 86.665 284.801Z" fill="#F0C44A"/>
<path d="M89.3252 289.481C91.099 289.65 91.6512 290.823 91.4003 292.741C90.7509 291.844 90.7344 290.333 89.3252 289.481Z" fill="#F0C44A"/>
<path d="M92.4424 294.132C92.6805 294.124 92.9364 294.267 93.3263 294.469C92.9695 295.088 92.6627 294.898 92.4424 294.132Z" fill="#F0C44A"/>
<path d="M85.1738 284.181C85.284 284.121 85.4226 284.221 85.5902 284.479C85.4817 284.537 85.3427 284.437 85.1738 284.181Z" fill="#F0C44A"/>
<path d="M84.6475 283.644C84.7279 283.63 84.8662 283.736 85.0647 283.96C84.9849 283.972 84.8452 283.868 84.6475 283.644Z" fill="#F0C44A"/>
<path d="M137.147 319.565C140.351 322.533 144.424 323.682 148.116 325.821C153.738 328.269 159.18 330.681 164.607 333.129C167.151 334.276 169.395 335.7 169.189 339.221C163.895 338.72 159.054 336.526 154.115 334.708C149.969 333.182 145.961 331.282 141.704 329.527C137.982 327.256 134.449 325.006 130.734 322.734C129.739 321.931 129.007 321.102 128.645 319.994C127.764 317.303 128.814 316.174 131.911 316.85C133.732 317.828 135.347 318.686 137.147 319.565Z" fill="#F5CF26"/>
<path d="M186.422 343.259C186.693 343.192 186.989 343.273 187.377 343.481C187.007 344.151 186.677 344.027 186.422 343.259Z" fill="#F6C332"/>
<path d="M191.197 344.231C191.352 343.761 191.63 343.606 192.092 344.017C191.938 344.488 191.66 344.646 191.197 344.231Z" fill="#F6C332"/>
<path d="M219.952 344.265C220.104 343.995 220.343 343.831 220.736 343.679C220.789 344.144 220.739 344.662 219.952 344.265Z" fill="#F0C44A"/>
<path d="M132.035 316.814C128.544 317.004 128.262 317.455 129.784 320.667C130.042 321.213 130.265 321.775 130.528 322.521C130.131 322.584 129.71 322.455 129.135 322.26C124.866 318.368 119.98 315.447 116.182 311.243C114.928 309.855 113.88 308.411 113.854 306.466C113.846 305.812 113.606 305.007 114.412 304.613C115.135 304.26 115.739 304.622 116.316 305.064C118.443 306.69 120.579 308.306 122.716 309.92C123.471 310.491 124.24 311.044 125.165 311.677C127.535 313.385 129.744 315.022 132.035 316.814Z" fill="#F4C422"/>
<path d="M260.735 233.35C260.915 229.167 260.507 225.251 259.885 221.401C258.88 215.187 260.694 209.711 263.577 204.413C266.331 199.352 269.461 194.56 273.53 190.427C275.16 188.771 276.52 188.393 278.175 190.505C279.213 191.83 280.53 193.972 282.031 193.612C283.491 193.263 282.759 190.742 283.159 189.208C285.626 179.756 290.899 171.985 297.456 164.975C299.494 162.797 299.48 162.199 296.588 161.221C291.958 159.656 287.133 158.93 282.315 158.21C281.885 158.146 281.45 158.116 281.02 158.051C276.672 157.391 276.611 157.342 279.313 153.944C280.388 152.594 279.515 152.378 278.559 152.003C269.681 148.517 264.241 141.855 261.093 133.081C260.871 132.463 260.392 131.85 261.055 130.888C264.553 134.19 267.848 137.626 270.687 141.413C273.031 144.539 275.972 146.692 279.447 148.18C285.438 150.745 291.492 153.165 297.513 155.661C301.055 157.129 304.781 157.575 308.528 157.2C316.319 156.421 323.324 158.292 329.785 162.666C332.449 164.469 335.403 165.745 338.578 166.538C341.724 167.324 343.444 169.556 343.432 172.235C343.426 173.378 343.083 174.05 341.805 174.046C338.91 174.039 336.092 173.91 333.577 172.129C330.525 169.969 327.199 168.165 324.304 165.822C320.287 162.571 315.834 161.176 310.765 161.486C309.152 161.585 306.603 160.65 306.157 161.795C305.626 163.158 307.747 164.57 308.948 165.739C310.967 167.704 312.053 170.208 312.819 172.752C314.678 178.919 318.806 181.792 325.025 182.834C330.753 183.794 336.252 183.659 341.766 181.967C348.588 179.873 355.19 181.703 361.795 183.192C363.169 183.501 363.9 184.686 364.486 185.876C366.391 189.746 367.45 193.84 367.717 198.15C367.892 200.971 366.683 202.987 364.326 204.435C360.264 206.93 355.757 208.223 351.187 209.338C349.037 209.862 347.456 208.667 346.107 207.283C344.044 205.168 342.11 202.926 340.148 200.714C336.483 196.585 332.15 193.498 326.732 192.126C326.091 191.964 325.316 191.472 324.743 191.974C324.046 192.585 324.759 193.316 325.044 193.834C326.244 196.014 325.505 196.671 323.211 196.73C315.638 196.926 308.375 198.495 301.622 202.057C299.221 203.323 297.027 204.881 295.201 206.91C294.512 207.676 293.919 208.464 295.333 209.143C296.37 209.641 296.057 210.63 296.059 211.454C296.088 223.043 300.291 233.583 304.524 244.051C306.082 247.904 309.989 250.046 313.059 252.716C317.388 256.482 317.442 256.43 312.158 258.656C310.636 259.298 309.052 259.805 307.566 260.518C305.501 261.509 304.487 260.674 303.917 258.718C303.625 257.718 303.163 256.766 302.887 255.763C300.113 245.659 294.379 237.39 287.107 230.036C282.884 225.765 278.598 221.562 274.022 217.673C272.736 216.58 271.999 215.362 271.878 213.693C271.585 209.649 271.247 205.608 270.92 201.476C270.023 201.912 270.082 202.693 269.931 203.317C268.763 208.135 267.662 212.969 266.478 217.783C265.713 220.893 266.085 223.664 268.607 225.869C271.532 228.427 271.976 231.49 270.824 235.081C267.694 244.842 263.005 253.854 257.713 262.569C256.1 265.225 254.91 265.103 253.094 262.561C251.341 260.107 250.944 257.764 252.447 254.856C254.96 249.996 257.054 244.919 259.286 239.916C260.178 237.916 260.747 235.82 260.735 233.35Z" fill="#A2A6B2"/>
<path d="M192.824 163.954C197.587 173.89 196.845 184.234 195.08 194.649C194.717 196.789 193.525 198.136 191.176 198.019C188.903 197.906 188.073 196.557 187.958 194.405C187.877 192.879 187.824 190.966 185.736 190.819C183.748 190.68 182.591 192.078 181.983 193.865C181.648 194.85 181.455 195.883 181.142 196.877C180.092 200.215 178.19 202.855 174.666 203.795C168.678 205.391 164.194 208.661 161.715 214.503C161.185 215.752 160.32 216.984 159.306 217.879C156.13 220.683 155.216 224.14 155.576 228.221C155.726 229.922 156.63 232.209 154.601 233.221C152.682 234.179 151.273 232.279 149.83 231.258C148.626 230.406 147.549 229.378 146.383 228.47C145.938 228.124 145.42 227.464 144.824 227.977C144.29 228.438 144.681 229.109 144.911 229.671C145.337 230.718 145.775 231.759 146.185 232.812C146.499 233.621 146.935 234.501 146.153 235.237C145.345 235.999 144.343 235.761 143.456 235.373C142.666 235.028 141.898 234.583 141.212 234.061C139.83 233.008 138.505 231.879 137.167 230.769C135.967 229.774 134.979 228.234 133.474 227.974C131.565 227.644 131.299 229.891 130.206 230.894C128.387 232.563 126.764 232.245 126.185 229.81C125.228 225.788 125.561 221.674 125.852 217.599C125.97 215.939 127.42 216.592 128.338 216.622C135.982 216.872 143.211 215.441 149.866 211.523C155.541 208.182 159.927 203.563 163.362 197.996C165.306 194.845 165.184 191.367 164.946 187.865C164.891 187.047 164.38 186.221 165.027 185.098C166.579 186.383 167.536 187.968 168.423 189.615C168.665 190.065 168.898 190.694 169.533 190.42C169.838 190.289 170.085 189.748 170.14 189.361C170.352 187.889 170.321 186.403 169.986 184.95C167.421 173.833 164.251 162.903 159.636 152.445C157.483 147.565 154.271 143.52 149.578 140.796C148.413 140.12 147.319 139.55 146.116 140.892C145.203 141.911 144.185 141.444 143.447 140.531C142.574 139.451 141.801 138.29 140.98 137.167C139.282 134.843 138.214 134.565 135.722 136.054C133.634 137.301 131.642 138.707 129.602 140.035C128.333 140.862 126.92 141.326 125.42 141.321C123.288 141.312 122.81 140.368 123.81 138.557C124.33 137.616 125.867 136.81 125.171 135.721C124.491 134.655 122.923 135.335 121.752 135.279C120.19 135.205 118.62 135.268 117.055 135.316C108.61 135.573 106.327 128.102 107.683 121.731C107.931 120.568 108.958 120.348 109.954 120.451C111.336 120.595 112.724 120.792 114.07 121.124C117.135 121.88 119.878 121.858 122.025 118.993C123.066 117.602 124.278 117.897 125.081 119.423C125.912 121 127.302 121.504 128.957 121.632C131.124 121.8 133.283 122.1 135.452 122.212C142.296 122.564 148.042 125.081 151.746 131.023C156.338 138.39 163.37 142.283 171.078 145.35C171.47 145.506 171.849 145.776 172.601 145.361C170.795 142.289 167.658 140.503 165.346 137.909C166.463 136.96 167.629 137.392 168.704 137.362C176.235 137.153 182.985 138.971 188.143 144.909C188.59 145.423 189.199 145.797 189.891 146.243C190.448 144.355 188.956 143.061 188.52 141.432C188.239 140.385 187.276 139.536 187.548 138.327C188.119 138.209 188.396 138.548 188.687 138.868C196.602 147.542 204.228 156.447 210.563 166.376C211.216 167.4 211.757 168.497 212.334 169.569C216.552 177.404 215.482 185.218 209.293 191.561C208.847 192.018 208.482 192.937 207.692 192.615C206.902 192.294 207.315 191.384 207.267 190.739C206.441 179.696 201.194 171.014 192.824 163.954Z" fill="#A2A7B3"/>
<path d="M228.138 173.581C228.393 173.476 228.74 173.476 228.841 173.634C233.242 180.493 238.391 186.908 240.876 194.879C243.956 204.759 247.32 214.542 247.803 225.031C248.224 234.162 247.318 243.099 244.52 251.809C243.54 254.859 242.17 257.731 239.522 260.609C238.71 254.411 237.973 248.791 237.127 242.339C236.263 244.06 235.745 245.063 235.253 246.078C233.437 249.821 230.839 252.944 227.66 255.591C225.779 257.157 225.271 256.928 224.616 254.463C224.075 252.428 224.117 250.369 224.35 248.338C223.698 248.149 223.345 248.459 223.154 248.834C221.895 251.317 220.136 252.169 217.401 251.049C215.963 250.46 214.436 251.048 213.224 251.961C211.728 253.088 211.504 252.338 211.511 250.99C211.514 250.381 211.427 249.764 211.501 249.165C211.709 247.484 211.569 246.418 209.317 246.44C207.243 246.46 207.43 245.04 208.472 243.791C210.273 241.632 212.55 239.999 214.87 238.469C219.516 235.405 224.187 232.376 228.928 229.464C233.83 226.452 235.847 222.221 235.258 216.495C234.272 206.897 234.056 197.225 232.39 187.691C231.546 182.86 229.553 178.399 228.138 173.581Z" fill="#A1A6B1"/>
<path d="M155.359 201.669C151.407 205.026 147.174 207.606 142.742 209.839C138.862 211.794 134.657 211.683 130.471 211.23C128.608 211.028 127.787 209.567 127.544 207.977C126.677 202.307 127.044 196.708 128.95 191.258C129.017 191.064 129.301 190.946 129.724 190.591C130.703 194.899 132.28 198.79 134.153 202.561C134.708 203.681 135.089 205.441 136.737 204.914C138.517 204.346 140.382 203.32 140.258 200.95C140.158 199.049 139.805 197.161 139.527 194.973C141.221 196.16 141.525 197.897 142.169 199.37C143.585 202.604 145.443 203.623 148.921 202.841C150.982 202.379 152.824 201.4 154.678 200.431C155.108 200.206 155.66 199.347 156.157 200.216C156.427 200.688 155.85 201.146 155.359 201.669Z" fill="#EFEEEE"/>
<path d="M244.166 139.346C243.847 144.727 243.038 149.763 240.881 154.505C239.856 156.758 238.474 158.734 236.405 160.142C235.884 160.496 235.267 161.239 234.591 160.62C234.038 160.115 234.66 159.507 234.872 158.974C236.443 155.024 238.186 151.134 239.228 146.994C239.406 146.29 239.938 145.558 239.239 144.566C235.563 147.058 231.57 148.85 227.141 149.566C224.89 149.93 222.641 149.902 220.385 149.782C219.816 149.751 219.003 149.897 218.854 149.147C218.704 148.396 219.52 148.22 220.026 147.952C225.476 145.072 230.949 142.233 236.389 139.334C238.303 138.314 240.133 137.14 242.024 136.076C242.587 135.759 243.063 134.898 243.8 135.346C244.473 135.755 244.144 136.619 244.19 137.287C244.233 137.891 244.182 138.502 244.166 139.346Z" fill="#9A9FA9"/>
<path d="M353.859 218.329C354.423 218.389 354.819 218.42 355.39 218.547C356.137 218.822 356.737 218.774 357.493 218.908C358.921 219.022 360.799 218.313 361.264 219.437C361.826 220.794 360.334 222.08 359.322 223.121C357.149 225.355 353.595 226.296 349.745 225.67C351.263 224.42 353.241 223.966 354.403 222.077C350.145 221.576 346.873 219.501 343.828 217.064C342.575 216.06 341.69 216.073 340.44 217.038C337.692 219.159 334.537 219.649 330.697 219.05C333.091 216.713 334.998 214.528 336.472 212.005C337.924 209.522 337.648 208.608 334.972 207.438C331.641 205.981 328.101 205.646 324.517 205.583C323.562 205.566 322.607 205.542 321.424 205.438C320.617 205.204 320.02 205.234 319.254 205.169C318.522 205.096 317.966 205.042 317.226 204.887C316.915 203.255 318.115 203.701 318.833 203.688C321.529 203.64 324.227 203.597 327.151 203.754C328.142 203.858 328.905 203.917 329.842 204.059C330.245 204.164 330.473 204.202 330.862 204.308C336.351 205.073 340.087 208.404 343.506 212.125C345.662 214.471 348.086 216.308 351.224 217.54C352.185 217.764 352.902 218.161 353.859 218.329Z" fill="#EAE9E9"/>
<path d="M311.304 239.128C316.443 243.095 317.411 242.898 320.522 237.472C320.874 236.859 320.979 235.728 322.019 236.045C322.83 236.292 322.963 237.249 322.989 238.036C323.053 239.985 322.373 241.805 321.751 243.591C320.753 246.456 323.316 246.63 324.675 247.634C326.313 248.843 326.39 246.99 326.98 246.243C327.577 245.486 328.215 244.462 329.22 244.851C330.199 245.229 329.684 246.4 329.616 247.205C329.047 253.913 327.375 254.794 321.44 251.709C316.901 249.349 313.064 246.158 309.838 242.222C308.459 240.541 307.232 238.753 307.484 236.143C309.075 236.783 309.896 238.204 311.304 239.128Z" fill="#EDEDED"/>
<path d="M110.182 149.95C109.534 148.467 109.592 146.089 108.101 146.235C106.368 146.404 106.92 148.729 106.657 150.164C106.518 150.923 106.644 151.729 106.537 152.498C106.441 153.189 107.02 154.278 105.929 154.458C105.138 154.588 104.561 153.739 104.195 153.069C101.765 148.621 102.492 144.127 103.861 139.117C107.622 143.968 112.064 146.173 117.758 145.506C119.124 145.346 119.131 146.245 118.862 147.191C117.821 150.865 116.882 154.552 116.553 158.378C116.391 160.252 115.327 160.024 114.284 159.074C112.89 157.805 112.373 155.999 111.689 154.322C111.133 152.961 110.722 151.54 110.182 149.95Z" fill="#EDEDED"/>
<path d="M253.027 158.429C250.027 156.84 249.347 154.711 250.001 151.507C250.938 146.924 250.663 142.191 250.832 137.442C251.444 139.647 252.002 141.868 252.677 144.053C254.369 149.536 256.652 154.777 259.247 159.89C259.576 160.539 260.618 161.253 259.332 162.056C258.295 162.704 257.531 162.674 256.644 161.686C255.608 160.532 254.341 159.584 253.027 158.429Z" fill="#EDEDED"/>
<path d="M323.022 169.918C325.571 171.449 327.956 172.881 330.334 174.324C330.916 174.677 331.707 174.967 331.52 175.832C331.324 176.737 330.541 176.914 329.704 177.005C322.527 177.779 316.826 174.65 313.888 168.283C313.569 167.592 312.975 166.845 313.596 166.105C314.311 165.253 315.218 165.687 315.983 166.089C318.29 167.304 320.568 168.575 323.022 169.918Z" fill="#536473"/>
<path d="M309.344 230.638C309.769 227.109 309.691 223.842 308.568 220.643C308.318 219.931 307.923 218.967 308.594 218.432C309.413 217.779 310.244 218.563 310.939 219.013C312.881 220.267 314.201 221.927 313.816 224.414C313.124 228.877 314.302 232.837 316.909 236.445C317.095 236.703 317.184 237.032 317.336 237.368C313.224 237.762 310.333 235.359 309.344 230.638Z" fill="#989DA7"/>
<path d="M290.992 138.776C293.876 141.168 296.564 143.498 298.387 146.624C298.76 147.264 299.374 148.089 298.832 148.768C298.217 149.54 297.387 148.816 296.689 148.588C290.788 146.662 286.443 143.214 285.24 136.744C285.132 136.164 284.936 135.559 285.422 134.868C287.547 135.655 289.069 137.35 290.992 138.776Z" fill="#989DA7"/>
<path d="M371.998 190.457C370.841 188.518 369.783 186.745 368.725 184.972C373.496 186.751 377.957 188.897 381.988 191.842C382.895 192.505 382.569 193.125 381.844 193.717C380.298 194.983 378.673 196.112 376.869 196.999C375.541 197.652 374.449 197.485 373.789 196.182C372.97 194.566 374.477 194.393 375.405 193.87C376.059 193.501 376.913 193.423 377.461 192.349C375.457 192.229 372.964 193.529 371.998 190.457Z" fill="#9498A2"/>
<path d="M370.477 206.999C372.112 205.908 374.013 204.204 375.374 205.377C376.476 206.326 375.139 208.575 374.483 210.138C373.612 212.214 372.283 213.876 369.869 214.234C368.925 214.374 367.878 214.475 367.282 213.536C366.786 212.753 367.015 211.861 367.424 211.059C368.175 209.587 369.115 208.25 370.477 206.999Z" fill="#989DA7"/>
<path d="M168.674 133.659C166.477 133.221 164.344 133.481 162.449 132.327C165.232 129.991 170.652 128.735 172.457 129.94C173.561 130.676 174.799 131.515 174.315 133.019C173.755 134.761 172.177 133.983 170.961 133.936C170.273 133.91 169.589 133.767 168.674 133.659Z" fill="#536473"/>
<path d="M108.472 113.64C107.666 114.421 106.997 115.074 106.311 115.744C105.907 113.047 107.309 110.416 109.919 109.096C110.761 108.671 111.693 108.405 112.604 108.14C113.469 107.889 114.661 107.115 115.167 108.155C115.786 109.427 114.476 110.119 113.538 110.708C111.938 111.713 109.925 111.998 108.472 113.64Z" fill="#9498A2"/>
<path d="M327.197 203.694C325.036 204.607 322.62 203.892 320.25 204.137C319.242 204.241 318.184 203.887 317.134 204.623C316.192 204.827 315.362 204.807 314.484 203.835C318.825 203.21 322.908 203.086 327.197 203.694Z" fill="#CAC9C9"/>
<path d="M353.884 218.26C353.063 218.986 352.336 218.242 351.461 217.791C352.257 217.427 352.952 218.011 353.884 218.26Z" fill="#CAC9C9"/>
<path d="M319.235 205.246C319.717 204.526 320.381 204.629 321.128 205.215C320.594 205.694 319.994 205.404 319.235 205.246Z" fill="#CAC9C9"/>
<path d="M357.516 218.845C357.001 219.528 356.344 219.41 355.629 218.784C356.166 218.676 356.767 218.708 357.516 218.845Z" fill="#CAC9C9"/>
<path d="M330.965 204.26C330.736 204.721 330.434 204.655 330.071 204.264C330.312 204.147 330.608 204.152 330.965 204.26Z" fill="#CAC9C9"/>
<path d="M228.199 173.371C228.069 173.199 227.925 173.037 227.781 172.874C227.875 172.804 227.969 172.735 228.063 172.665C228.123 172.816 228.184 172.967 228.203 173.26C228.161 173.402 228.186 173.381 228.199 173.371Z" fill="#A1A6B1"/>
<path d="M249.357 128.542C249.367 128.528 249.346 128.555 249.357 128.542Z" fill="#9498A2"/>
<path d="M187.269 137.728C187.168 137.746 187.13 137.697 187.093 137.648C187.173 137.652 187.253 137.656 187.269 137.728Z" fill="#A2A7B3"/>
<path d="M64.7614 228.239C62.8543 226.198 61.3568 226.796 59.5503 228.266C56.8488 230.465 53.8134 232.174 50.0076 232.563C50.8559 234.519 52.9075 234.798 54.1822 236.027C50.1729 237.386 44.5552 234.811 43.0822 231.075C42.6366 229.944 42.8772 229.459 44.1221 229.441C46.387 229.408 48.6371 229.226 50.8433 228.649C54.27 227.752 57.5294 226.446 59.8028 223.631C65.7097 216.318 73.4409 213.498 82.6167 213.933C84.8184 214.037 87.0294 213.948 89.2622 214.396C86.4613 215.772 83.5345 216.182 80.5278 216.156C76.6744 216.122 72.8712 216.407 69.298 218.018C66.5841 219.241 66.3333 220.054 67.8674 222.594C69.0846 224.609 70.4728 226.499 72.1885 228.131C72.5463 228.471 73.2076 228.73 73.026 229.319C72.7926 230.077 72.0143 229.839 71.4524 229.855C69.1515 229.923 66.96 229.467 64.7614 228.239Z" fill="#E6E5E5"/>
<path d="M84.6604 249.533C87.4375 253.194 88.2089 253.332 91.6838 250.695C93.3264 249.448 94.8661 248.065 96.778 246.473C97.0246 248.475 96.4781 249.946 95.538 251.254C91.5946 256.738 86.5567 260.889 80.2483 263.38C77.0829 264.63 75.9708 264.02 75.172 260.777C74.9041 259.689 74.787 258.554 74.7096 257.433C74.66 256.716 74.2624 255.704 75.2898 255.419C76.1349 255.184 76.6558 255.976 77.1786 256.568C77.8939 257.378 77.8991 259.505 79.8599 258.105C81.3643 257.031 83.7148 256.519 82.4432 253.683C81.8141 252.28 81.5612 250.688 81.286 249.155C81.1131 248.191 81.3539 246.984 82.2566 246.649C83.3687 246.237 83.4241 247.609 83.8838 248.255C84.1347 248.607 84.3324 248.997 84.6604 249.533Z" fill="#EDEDED"/>
<path d="M76.6146 187.377C75.6993 187.421 75.0025 187.483 74.3176 187.418C73.6802 187.358 73.1437 187.019 73.0184 186.332C72.9114 185.746 73.2872 185.347 73.7508 185.071C78.7389 182.1 83.5779 178.868 88.8769 176.443C89.4422 176.184 90.0267 175.947 90.547 176.512C91.0261 177.031 90.9662 177.679 90.69 178.22C89.2213 181.095 87.523 183.828 84.9355 185.838C83.3995 187.032 81.3778 186.255 79.654 186.88C78.7753 187.199 77.7805 187.198 76.6146 187.377Z" fill="#536473"/>
<path d="M89.1559 244.141C90.4853 240.935 91.1863 237.865 90.5086 234.56C90.2128 233.118 90.8305 231.808 91.8589 230.777C92.8978 229.735 94.2905 228.303 95.5644 228.973C96.7886 229.617 95.6438 231.349 95.3271 232.514C94.6517 235 94.6999 237.475 94.8617 239.999C95.1129 243.921 92.8581 246.978 89.136 247.908C88.5638 248.051 87.8645 248.398 87.4082 247.891C86.8548 247.277 87.6013 246.817 87.8731 246.33C88.2527 245.65 88.6797 244.996 89.1559 244.141Z" fill="#989DA7"/>
<path d="M34.157 195.578C35.1546 195.251 35.6064 195.468 35.0987 196.339C33.922 198.358 32.7185 200.365 31.4316 202.315C30.3073 204.018 28.5666 202.519 27.1157 202.886C27.3715 204.202 28.5034 204.145 29.2866 204.55C30.0679 204.954 31.0002 205.337 30.6045 206.439C30.2205 207.509 29.3644 208.24 28.1691 207.806C25.7782 206.936 23.7348 205.42 21.8661 203.754C20.8455 202.844 22.2369 202.467 22.732 202.103C26.2337 199.523 30.2116 197.761 34.157 195.578Z" fill="#9498A2"/>
<path d="M29.1699 215.582C32.9531 216.124 35.1797 218.405 36.7637 221.446C37.1986 222.28 37.6109 223.258 36.9122 224.132C36.1581 225.076 35.0842 224.928 34.0444 224.681C30.8725 223.928 28.3435 219.431 29.1699 215.582Z" fill="#989DA7"/>
<path d="M247.846 325.849C247.761 326.938 247.315 327.304 246.504 326.021C246.867 325.849 247.259 325.849 247.846 325.849Z" fill="#F4B420"/>
<path d="M192.654 164.006C192.618 163.946 192.569 163.894 192.52 163.842C192.573 163.851 192.626 163.86 192.649 163.952C192.619 164.035 192.641 164.014 192.654 164.006Z" fill="#040404"/>
<path d="M190.061 146.234C190.169 146.273 190.393 146.302 190.393 146.323C190.386 146.56 190.279 146.59 190.106 146.304C190.095 146.193 190.072 146.22 190.061 146.234Z" fill="#040404"/>
</svg>
