<svg width="200" height="200" viewBox="0 0 200 200" fill="none" xmlns="http://www.w3.org/2000/svg">
<rect width="200" height="200" rx="100" fill="white"/>
<path fill-rule="evenodd" clip-rule="evenodd" d="M113.874 36.3537C114.493 36.4727 115.505 36.4727 116.124 36.3537C116.743 36.2342 116.237 36.1367 114.999 36.1367C113.762 36.1367 113.255 36.2342 113.874 36.3537ZM159.078 68.0007C159.078 68.6882 159.192 68.9697 159.33 68.6257C159.469 68.2822 159.469 67.7197 159.33 67.3757C159.192 67.0322 159.078 67.3132 159.078 68.0007ZM46.5966 125.251C46.6066 126.076 46.7186 126.353 46.8456 125.866C46.9726 125.38 46.9641 124.705 46.8271 124.366C46.6901 124.028 46.5866 124.426 46.5966 125.251ZM46.5781 132.001C46.5781 132.688 46.6916 132.97 46.8301 132.626C46.9691 132.282 46.9691 131.72 46.8301 131.376C46.6916 131.032 46.5781 131.313 46.5781 132.001ZM78.6241 172.845C79.1056 172.971 79.8926 172.971 80.3741 172.845C80.8556 172.72 80.4616 172.617 79.4991 172.617C78.5366 172.617 78.1426 172.72 78.6241 172.845ZM87.6336 172.847C88.1201 172.974 88.7951 172.966 89.1336 172.829C89.4721 172.692 89.0741 172.588 88.2491 172.598C87.4241 172.608 87.1471 172.72 87.6336 172.847Z" fill="#0C0484"/>
<path fill-rule="evenodd" clip-rule="evenodd" d="M110.75 28.8168C98.533 30.0328 86.5675 36.6143 79.4135 46.0528C76.957 49.2948 73.6345 54.7628 66.9905 66.4993C65.9785 68.2868 64.364 71.0993 63.4025 72.7493C62.441 74.3993 59.449 79.5743 56.7535 84.2493C54.0585 88.9243 51.065 94.0993 50.101 95.7493C49.1375 97.3993 47.48 100.305 46.4175 102.207C45.3545 104.109 44.2885 105.909 44.0475 106.207C43.171 107.293 40.0985 115.327 39.442 118.249C39.0285 120.089 38.787 124.054 38.817 128.499C38.872 136.701 39.6645 140.539 42.653 147.08C47.745 158.227 57.4015 167.255 68.7965 171.522C74.4855 173.653 78.14 174.157 85.937 173.888C92.021 173.678 93.278 173.472 97.6875 171.963C104.029 169.792 109.76 166.499 114.23 162.458C120.285 156.983 121.312 155.512 131.487 137.749C134.323 132.799 137.249 127.737 137.99 126.499C138.731 125.262 140.31 122.562 141.5 120.499C142.689 118.437 144.264 115.737 145 114.499C145.735 113.262 147.249 110.674 148.364 108.749C149.479 106.824 151.595 103.224 153.065 100.749C159.854 89.3208 162.099 78.9258 160.299 67.2493C158.811 57.5923 154.761 49.7398 147.516 42.4628C141.001 35.9198 133.452 31.6113 125.25 29.7538C121.995 29.0163 113.96 28.4973 110.75 28.8168ZM113.875 36.3523C114.494 36.4713 115.506 36.4713 116.125 36.3523C116.744 36.2328 116.237 36.1353 115 36.1353C113.762 36.1353 113.256 36.2328 113.875 36.3523ZM108.96 38.0318C105.074 38.6033 99.1535 41.0568 95.0085 43.8133L91.5075 46.1408L94.129 47.7333C96.7985 49.3553 99.114 50.7078 109.75 56.8568C129.307 68.1633 133.678 70.8183 134.541 71.9153C135.856 73.5868 135.743 75.6338 134.236 77.4243C131.742 80.3883 130.479 80.1603 121.75 75.1698C119.825 74.0693 114.987 71.3073 111 69.0313C107.012 66.7558 102.512 64.1658 101 63.2753C94.25 59.3008 85.5925 54.4998 85.1905 54.5078C84.948 54.5123 83.3085 57.0438 81.5465 60.1328C79.7845 63.2218 77.6135 66.9868 76.7215 68.4993C73.9885 73.1333 63 92.5398 63 92.7328C63 92.8323 63.956 93.4608 65.125 94.1293C66.2935 94.7978 70.175 97.0338 73.75 99.0983C77.325 101.163 85.758 106.02 92.4905 109.893C99.223 113.765 105.464 117.519 106.36 118.234C110.186 121.286 108.506 126.499 103.697 126.499C101.996 126.499 100.476 125.853 95.9165 123.193C90.6425 120.116 88.533 118.895 80 113.974C78.2125 112.943 73.2625 110.084 69 107.62C64.7375 105.157 60.538 102.776 59.668 102.329L58.0855 101.518L55.1125 106.154C53.477 108.704 51.29 112.919 50.252 115.52C48.525 119.849 48.3445 120.766 48.1155 126.364C47.831 133.334 48.3565 136.801 50.479 141.948C52.454 146.738 55.3005 150.759 59.396 154.545C65.0705 159.79 70.1185 162.2 78.739 163.78C83.461 164.645 86.0235 164.544 92.177 163.25C95.614 162.528 102.5 159.678 102.5 158.978C102.5 158.773 99.8565 157.085 96.625 155.228C93.3935 153.371 89.456 151.097 87.875 150.175C86.294 149.254 83.65 147.712 82 146.749C80.35 145.787 77.65 144.212 76 143.249C74.35 142.287 71.5935 140.676 69.875 139.669C68.1565 138.663 65.5645 137.181 64.116 136.377C60.998 134.646 59.763 132.67 60.233 130.165C60.612 128.143 63.0895 126.319 64.873 126.747C65.4905 126.896 68.158 128.266 70.801 129.791C73.444 131.317 77.326 133.53 79.428 134.708C81.53 135.887 87.1875 139.102 92 141.853C96.8125 144.605 102.972 148.126 105.689 149.678C108.405 151.23 110.804 152.499 111.019 152.499C111.607 152.499 114.354 148.046 121.505 135.499C122.524 133.712 124.771 129.774 126.498 126.749C131.876 117.33 133.88 113.752 133.814 113.685C133.779 113.649 131.275 112.21 128.25 110.487C125.225 108.763 118.812 105.102 114 102.35C109.187 99.5983 103.787 96.5143 102 95.4968C88.9325 88.0578 89.5 88.5293 89.5 85.1053C89.5 83.7178 89.858 82.7588 90.726 81.8223C92.9545 79.4178 93.143 79.4898 109.5 88.9763C111.287 90.0128 115.225 92.2683 118.25 93.9873C121.275 95.7068 125.212 97.9568 127 98.9868C136.844 104.659 138.559 105.604 138.705 105.435C138.971 105.125 145.243 94.4383 146.884 91.4993C149.47 86.8663 151.126 80.1278 151.115 74.2813C151.072 51.5568 131.489 34.7173 108.96 38.0318ZM159.079 67.9993C159.079 68.6868 159.192 68.9683 159.331 68.6243C159.47 68.2808 159.47 67.7183 159.331 67.3743C159.192 67.0308 159.079 67.3118 159.079 67.9993ZM46.5975 125.249C46.6075 126.074 46.7195 126.351 46.8465 125.865C46.9735 125.378 46.965 124.703 46.828 124.365C46.691 124.026 46.5875 124.424 46.5975 125.249ZM46.579 131.999C46.579 132.687 46.6925 132.968 46.831 132.624C46.97 132.281 46.97 131.718 46.831 131.374C46.6925 131.031 46.579 131.312 46.579 131.999ZM78.625 172.844C79.1065 172.97 79.8935 172.97 80.375 172.844C80.8565 172.718 80.4625 172.615 79.5 172.615C78.5375 172.615 78.1435 172.718 78.625 172.844ZM87.6345 172.846C88.121 172.973 88.796 172.964 89.1345 172.827C89.473 172.69 89.075 172.587 88.25 172.597C87.425 172.607 87.148 172.719 87.6345 172.846Z" fill="#0C047C"/>
</svg>
