<svg xmlns="http://www.w3.org/2000/svg" width="300" height="300" viewBox="0 0 300 300" version="1.1"><path d="M 177.750 22.706 C 178.988 22.944, 181.012 22.944, 182.250 22.706 C 183.488 22.467, 182.475 22.272, 180 22.272 C 177.525 22.272, 176.512 22.467, 177.750 22.706 M 268.158 86 C 268.158 87.375, 268.385 87.938, 268.662 87.250 C 268.940 86.563, 268.940 85.438, 268.662 84.750 C 268.385 84.063, 268.158 84.625, 268.158 86 M 43.195 200.500 C 43.215 202.150, 43.439 202.704, 43.693 201.731 C 43.947 200.758, 43.930 199.408, 43.656 198.731 C 43.382 198.054, 43.175 198.850, 43.195 200.500 M 43.158 214 C 43.158 215.375, 43.385 215.938, 43.662 215.250 C 43.940 214.563, 43.940 213.438, 43.662 212.750 C 43.385 212.063, 43.158 212.625, 43.158 214 M 107.250 295.689 C 108.213 295.941, 109.787 295.941, 110.750 295.689 C 111.713 295.438, 110.925 295.232, 109 295.232 C 107.075 295.232, 106.287 295.438, 107.250 295.689 M 125.269 295.693 C 126.242 295.947, 127.592 295.930, 128.269 295.656 C 128.946 295.382, 128.150 295.175, 126.500 295.195 C 124.850 295.215, 124.296 295.439, 125.269 295.693" stroke="none" fill="#0c0484" fill-rule="evenodd"/><path d="M 171.500 7.635 C 147.066 10.067, 123.135 23.230, 108.827 42.107 C 103.914 48.591, 97.269 59.527, 83.981 83 C 81.957 86.575, 78.728 92.200, 76.805 95.500 C 74.882 98.800, 68.898 109.150, 63.507 118.500 C 58.117 127.850, 52.130 138.200, 50.202 141.500 C 48.275 144.800, 44.960 150.612, 42.835 154.415 C 40.709 158.219, 38.577 161.819, 38.095 162.415 C 36.342 164.587, 30.197 180.655, 28.884 186.500 C 28.057 190.179, 27.574 198.110, 27.634 207 C 27.744 223.403, 29.329 231.080, 35.306 244.162 C 45.490 266.455, 64.803 284.511, 87.593 293.046 C 98.971 297.308, 106.280 298.316, 121.874 297.778 C 134.042 297.358, 136.556 296.946, 145.375 293.927 C 158.059 289.586, 169.520 283, 178.460 274.918 C 190.571 263.968, 192.625 261.026, 212.975 225.500 C 218.646 215.600, 224.498 205.475, 225.980 203 C 227.462 200.525, 230.621 195.125, 233 191 C 235.379 186.875, 238.529 181.475, 240 179 C 241.471 176.525, 244.499 171.350, 246.729 167.500 C 248.959 163.650, 253.190 156.450, 256.130 151.500 C 269.708 128.643, 274.198 107.853, 270.599 84.500 C 267.623 65.186, 259.523 49.481, 245.032 34.927 C 232.003 21.841, 216.905 13.224, 200.500 9.509 C 193.990 8.034, 177.920 6.996, 171.500 7.635 M 177.750 22.706 C 178.988 22.944, 181.012 22.944, 182.250 22.706 C 183.488 22.467, 182.475 22.272, 180 22.272 C 177.525 22.272, 176.512 22.467, 177.750 22.706 M 167.920 26.065 C 160.149 27.208, 148.307 32.115, 140.017 37.628 L 133.015 42.283 138.258 45.468 C 143.597 48.712, 148.228 51.417, 169.500 63.715 C 208.615 86.328, 217.357 91.638, 219.082 93.832 C 221.712 97.175, 221.486 101.269, 218.473 104.850 C 213.485 110.778, 210.959 110.322, 193.500 100.341 C 189.650 98.140, 179.975 92.616, 172 88.064 C 164.025 83.513, 155.025 78.333, 152 76.552 C 138.500 68.603, 121.185 59.001, 120.381 59.017 C 119.896 59.026, 116.617 64.089, 113.093 70.267 C 109.569 76.445, 105.227 83.975, 103.443 87 C 97.977 96.268, 76 135.081, 76 135.467 C 76 135.666, 77.912 136.923, 80.250 138.260 C 82.587 139.597, 90.350 144.069, 97.500 148.198 C 104.650 152.327, 121.516 162.042, 134.981 169.787 C 148.446 177.532, 160.928 185.039, 162.721 186.469 C 170.372 192.574, 167.013 203, 157.395 203 C 153.993 203, 150.952 201.708, 141.833 196.388 C 131.285 190.234, 127.066 187.791, 110 177.950 C 106.425 175.888, 96.525 170.170, 88 165.242 C 79.475 160.315, 71.076 155.553, 69.336 154.660 L 66.171 153.037 60.225 162.310 C 56.954 167.410, 52.580 175.839, 50.504 181.041 C 47.050 189.700, 46.689 191.534, 46.231 202.729 C 45.662 216.670, 46.713 223.604, 50.958 233.897 C 54.908 243.477, 60.601 251.520, 68.792 259.091 C 80.141 269.581, 90.237 274.401, 107.478 277.561 C 116.922 279.292, 122.047 279.090, 134.354 276.502 C 141.228 275.057, 155 269.357, 155 267.957 C 155 267.547, 149.713 264.172, 143.250 260.458 C 136.787 256.744, 128.912 252.196, 125.750 250.352 C 122.588 248.509, 117.300 245.425, 114 243.500 C 110.700 241.575, 105.300 238.425, 102 236.500 C 98.700 234.575, 93.187 231.353, 89.750 229.340 C 86.313 227.327, 81.129 224.364, 78.232 222.755 C 71.996 219.293, 69.526 215.341, 70.466 210.331 C 71.224 206.288, 76.179 202.639, 79.746 203.496 C 80.981 203.793, 86.316 206.533, 91.602 209.584 C 96.888 212.636, 104.652 217.061, 108.856 219.418 C 113.060 221.775, 124.375 228.205, 134 233.708 C 143.625 239.211, 155.945 246.253, 161.378 249.357 C 166.811 252.461, 171.608 255, 172.039 255 C 173.214 255, 178.708 246.093, 193.010 221 C 195.048 217.425, 199.542 209.550, 202.996 203.500 C 213.753 184.662, 217.761 177.505, 217.628 177.371 C 217.558 177.300, 212.550 174.422, 206.500 170.975 C 200.450 167.528, 187.625 160.205, 178 154.702 C 168.375 149.198, 157.575 143.030, 154 140.995 C 127.865 126.117, 129 127.060, 129 120.212 C 129 117.437, 129.716 115.519, 131.452 113.646 C 135.909 108.837, 136.286 108.981, 169 127.954 C 172.575 130.027, 180.450 134.538, 186.500 137.976 C 192.550 141.415, 200.425 145.915, 204 147.975 C 223.688 159.320, 227.119 161.210, 227.410 160.872 C 227.942 160.252, 240.487 138.878, 243.768 133 C 248.941 123.734, 252.253 110.257, 252.231 98.564 C 252.145 53.115, 212.979 19.436, 167.920 26.065 M 268.158 86 C 268.158 87.375, 268.385 87.938, 268.662 87.250 C 268.940 86.563, 268.940 85.438, 268.662 84.750 C 268.385 84.063, 268.158 84.625, 268.158 86 M 43.195 200.500 C 43.215 202.150, 43.439 202.704, 43.693 201.731 C 43.947 200.758, 43.930 199.408, 43.656 198.731 C 43.382 198.054, 43.175 198.850, 43.195 200.500 M 43.158 214 C 43.158 215.375, 43.385 215.938, 43.662 215.250 C 43.940 214.563, 43.940 213.438, 43.662 212.750 C 43.385 212.063, 43.158 212.625, 43.158 214 M 107.250 295.689 C 108.213 295.941, 109.787 295.941, 110.750 295.689 C 111.713 295.438, 110.925 295.232, 109 295.232 C 107.075 295.232, 106.287 295.438, 107.250 295.689 M 125.269 295.693 C 126.242 295.947, 127.592 295.930, 128.269 295.656 C 128.946 295.382, 128.150 295.175, 126.500 295.195 C 124.850 295.215, 124.296 295.439, 125.269 295.693" stroke="none" fill="#0c047c" fill-rule="evenodd"/></svg>