<svg width="1080" height="1080" viewBox="0 0 1080 1080" fill="none" xmlns="http://www.w3.org/2000/svg">
<g clip-path="url(#clip0_72_78)">
<path d="M540 1080C241.4 1080 0 838.6 0 540C0 241.4 241.4 0 540 0C838.6 0 1080 241.4 1080 540C1080 838.6 838.6 1080 540 1080Z" fill="black"/>
<g opacity="0.96">
<path fill-rule="evenodd" clip-rule="evenodd" d="M427.766 200.658H305.256V895.658C346.028 889.618 386.865 883.778 427.766 878.133V652.929C427.766 578.223 477.975 516.642 550.277 516.642C615.549 516.642 662.745 555.004 662.745 645.862V848.013C703.522 843.184 744.359 838.55 785.256 834.116V644.853C785.256 498.47 722.996 402.564 582.411 402.564C526.176 402.564 471.95 419.727 427.766 477.27V200.658Z" fill="white"/>
</g>
</g>
<defs>
<clipPath id="clip0_72_78">
<rect width="1080" height="1080" fill="white"/>
</clipPath>
</defs>
</svg>
