<svg width="514" height="98" viewBox="0 0 514 98" fill="none" xmlns="http://www.w3.org/2000/svg">
<path fill-rule="evenodd" clip-rule="evenodd" d="M17.8567 0H0.719971V97.1343C6.42318 96.2901 12.1355 95.4738 17.8567 94.6854V63.2102C17.8567 52.7693 24.8799 44.1625 34.9934 44.1625C44.1236 44.1625 50.7255 49.5241 50.7255 62.2226V90.4756C56.4292 89.8003 62.1415 89.1528 67.8622 88.5331V62.0815C67.8622 41.6228 59.1534 28.2189 39.4883 28.2189C31.6222 28.2189 24.0371 30.6175 17.8567 38.6598V0ZM179.918 80.037C174.198 80.2863 168.486 80.5632 162.781 80.8678V29.0632H178.653L179.918 37.5289C183.57 30.4741 191.576 27.9345 198.178 27.9345C206.465 27.9345 214.753 31.3207 218.686 40.9151C224.866 31.0385 232.873 28.2166 241.863 28.2166C261.528 28.2166 271.22 40.3507 271.22 61.2327V78.4274C266.379 78.3877 261.533 78.3678 256.683 78.3678C255.816 78.3678 254.95 78.3684 254.083 78.3697V61.2327C254.083 52.0616 250.291 44.3014 241.02 44.3014C231.749 44.3014 225.99 52.3438 225.99 61.5149V78.634C220.271 78.7333 214.559 78.8603 208.853 79.0149V61.5149C208.853 52.3438 204.078 44.0192 194.666 44.0192C185.396 44.0192 179.918 52.3438 179.918 61.5149V80.037ZM358.853 81.3287V29.2079H342.418L341.857 38.8023C337.924 31.8887 329.074 27.5148 319.804 27.5148C299.577 27.3737 283.704 39.9311 283.704 63.9171C283.704 69.4122 284.473 74.3138 285.898 78.609C292.752 78.7222 299.595 78.8752 306.429 79.0678C302.96 75.451 300.841 70.306 300.841 63.9167C300.841 50.6538 309.971 42.8936 321.349 42.8936C342.542 42.8936 347.081 68.9445 334.967 80.1039C342.943 80.4584 350.905 80.8668 358.853 81.3287ZM388.754 83.3238C383.097 82.8975 377.431 82.4984 371.758 82.1266V29.0674H387.069L388.193 38.5207C395.216 31.6071 402.239 28.0797 410.948 28.0797C427.242 28.0797 440.305 40.3549 440.305 62.2245V87.9778C434.601 87.3773 428.889 86.8044 423.168 86.2593V62.3656C423.168 51.7836 417.409 43.7412 406.453 43.7412C395.918 43.7412 388.754 52.6301 388.754 63.2122V83.3238ZM502.693 95.6907C485.354 93.2273 467.933 91.0204 450.432 89.0741C450.328 88.967 450.224 88.8591 450.12 88.7502L458.548 76.475C463.464 81.9777 474.701 86.0694 482.427 86.2105C488.888 86.3516 494.928 82.9653 494.928 77.8859C494.928 73.0887 490.995 71.1134 481.162 70.549C468.099 69.5614 452.508 64.7642 452.508 48.9616C452.508 32.8769 469.083 27.2331 481.724 27.2331C492.54 27.2331 500.687 29.3495 508.694 36.4042L499.142 47.6918C494.226 43.0356 488.607 41.4836 482.005 41.4836C473.858 41.4836 469.363 44.0233 469.363 48.3972C469.363 52.9122 473.437 55.4519 482.286 56.0163C495.349 56.8629 511.924 59.8259 511.924 78.3092C511.924 85.1366 508.839 91.4403 502.693 95.6907ZM148.752 81.673C141.123 82.1417 133.506 82.6598 125.904 83.2269C129.596 79.6286 131.756 74.3282 131.756 68.5173V29.2064H148.752V81.673ZM104.096 84.9911C97.212 85.5914 90.3398 86.232 83.4794 86.9126C81.3728 82.0532 80.2055 76.2153 80.2055 69.505V29.2064H97.3422V69.3639C97.3422 76.0489 99.6406 81.7205 104.096 84.9911Z" fill="black"/>
</svg>
