<svg width="132" height="132" viewBox="0 0 132 132" fill="none" xmlns="http://www.w3.org/2000/svg">
<rect width="132" height="132" rx="66" fill="url(#paint0_linear_4601_15507)"/>
<path fill-rule="evenodd" clip-rule="evenodd" d="M59.3052 13H71.648V23.4074C83.6958 26.2494 92.6601 37.0396 92.6601 49.9167C92.6601 64.9615 80.4239 77.1574 65.33 77.1574C50.2361 77.1574 38 64.9615 38 49.9167C38 36.9353 47.1099 26.0748 59.3052 23.34V13ZM80.8416 49.9167C80.8416 58.4556 73.8967 65.3775 65.33 65.3775C56.7632 65.3775 49.8184 58.4556 49.8184 49.9167C49.8184 41.3778 56.7632 34.4557 65.33 34.4557C73.8967 34.4557 80.8416 41.3778 80.8416 49.9167ZM77.2494 94.1613C74.1675 97.2332 69.9874 98.9587 65.629 98.9587C61.2706 98.9587 57.0906 97.2332 54.0087 94.1613C50.9269 91.0894 49.1955 86.923 49.1955 82.5789H38.2397C38.2397 89.8191 41.1254 96.7631 46.2619 101.883C49.8801 105.489 54.4064 107.982 59.3052 109.141V119.623H71.648V109.211C76.6638 108.085 81.3031 105.564 84.9963 101.883C90.1325 96.7631 93.0182 89.8191 93.0182 82.5789H82.0625C82.0625 86.923 80.3314 91.0894 77.2494 94.1613Z" fill="url(#paint1_linear_4601_15507)"/>
<defs>
<linearGradient id="paint0_linear_4601_15507" x1="73.5" y1="7.97551e-08" x2="73.5" y2="132" gradientUnits="userSpaceOnUse">
<stop stop-color="white"/>
<stop offset="1" stop-color="#E1D1DD"/>
</linearGradient>
<linearGradient id="paint1_linear_4601_15507" x1="65.5091" y1="13" x2="65.5091" y2="119.623" gradientUnits="userSpaceOnUse">
<stop stop-color="#0E112C"/>
<stop offset="1" stop-color="#461847"/>
</linearGradient>
</defs>
</svg>
