<svg xmlns="http://www.w3.org/2000/svg" xmlns:xlink="http://www.w3.org/1999/xlink" width="800" zoomAndPan="magnify" viewBox="0 0 600 599.999999" height="800" preserveAspectRatio="xMidYMid meet" version="1.0"><defs><clipPath id="0abc6df97b"><path d="M 298 19.527344 L 444 19.527344 L 444 158 L 298 158 Z M 298 19.527344 " clip-rule="nonzero"/></clipPath><clipPath id="82cf33dfa8"><path d="M 154 441 L 301 441 L 301 580.527344 L 154 580.527344 Z M 154 441 " clip-rule="nonzero"/></clipPath></defs><g clip-path="url(#0abc6df97b)"><path fill="#000000" d="M 306.570312 19.527344 C 304.085938 26.199219 301.515625 34.421875 299.851562 43.203125 C 295.054688 68.40625 299.597656 86.605469 313.402344 97.246094 C 326.390625 107.277344 364.054688 123.503906 403.917969 140.675781 C 416.933594 146.289062 430.257812 152.011719 443.8125 157.988281 C 428.3125 106.917969 351.460938 48.425781 306.570312 19.527344 Z M 306.570312 19.527344 " fill-opacity="1" fill-rule="nonzero"/></g><path fill="#000000" d="M 227.378906 66.792969 C 177.71875 108.585938 151.460938 146.121094 151.460938 175.382812 C 151.460938 233.566406 260.921875 273.632812 303.074219 284.164062 C 309.566406 285.777344 448.332031 321.203125 475.152344 398.253906 C 489.15625 389.695312 508.664062 377.386719 528.144531 363.855469 C 595.792969 316.839844 597.992188 300.472656 598.050781 299.78125 C 598.050781 290.832031 589.523438 270.769531 532.464844 237.707031 C 490.625 213.476562 437.488281 190.582031 390.625 170.378906 C 345.195312 150.820312 309.3125 135.34375 293.078125 122.808594 C 263.238281 99.746094 261.964844 64.460938 267.695312 35.785156 C 255.359375 44.507812 241.328125 55.066406 227.378906 66.792969 Z M 227.378906 66.792969 " fill-opacity="1" fill-rule="nonzero"/><g clip-path="url(#82cf33dfa8)"><path fill="#000000" d="M 284.609375 502.617188 C 271.621094 492.585938 233.988281 476.359375 194.125 459.1875 C 181.109375 453.574219 167.78125 447.851562 154.230469 441.847656 C 169.730469 492.917969 246.582031 551.410156 291.472656 580.308594 C 293.957031 573.640625 296.523438 565.414062 298.191406 556.660156 C 302.988281 531.460938 298.445312 513.257812 284.640625 502.617188 Z M 284.609375 502.617188 " fill-opacity="1" fill-rule="nonzero"/></g><path fill="#000000" d="M 370.667969 533.042969 C 420.332031 491.253906 446.589844 453.714844 446.589844 424.425781 C 446.589844 366.242188 337.15625 326.175781 294.976562 315.644531 C 288.484375 314.035156 149.71875 278.605469 122.898438 201.554688 C 108.894531 210.113281 89.386719 222.421875 69.90625 235.953125 C 2.257812 282.96875 0.0546875 299.335938 0 300 C 0 308.949219 8.527344 329.011719 65.585938 362.074219 C 107.425781 386.304688 160.558594 409.199219 207.425781 429.402344 C 252.855469 448.960938 288.738281 464.4375 305 476.972656 C 334.84375 500.035156 336.113281 535.320312 330.382812 563.996094 C 342.71875 555.273438 356.75 544.714844 370.699219 532.988281 Z M 370.667969 533.042969 " fill-opacity="1" fill-rule="nonzero"/></svg>