<svg class="icon-denom" xmlns="http://www.w3.org/2000/svg" viewBox="0 0 100 100"><g fill="none" fill-rule="evenodd"><circle fill="#22242F" cx="50" cy="50" r="50"></circle><path d="M50 2c26.51 0 48 21.49 48 48S76.51 98 50 98 2 76.51 2 50 23.49 2 50 2Zm0 3.388C25.362 5.388 5.388 25.362 5.388 50S25.362 94.612 50 94.612 94.612 74.638 94.612 50 74.638 5.388 50 5.388Z" fill="#4f7cbb" fill-rule="nonzero"></path><path d="M80.25 31.083v-4.36H66.44c-.742-2.817-1.483-5.3-2.292-7.58l-4.648.805a78.586 78.586 0 0 1 2.358 6.775h-14.62v4.36H80.25Zm-35.37 32.4V35.645h-6.805c1.415-2.08 2.83-4.629 4.244-7.715v-3.22H31.203a74.322 74.322 0 0 0 1.684-4.091l-4.312-1.342c-2.021 6.574-5.188 11.873-9.432 15.965l1.01 4.763c.876-.805 1.752-1.61 2.56-2.482v25.96H44.88ZM33.426 35.645h-9.028a55.368 55.368 0 0 0 4.918-7.11h8.49c-1.483 2.682-2.898 5.097-4.38 7.11Zm27.758 45.212c3.369 0 5.12-1.878 5.12-5.568V56.171h10.713v-19.05H50.808v19.05h10.78V74.15c0 1.677-.673 2.55-2.02 2.55-1.55 0-3.168-.135-4.784-.336l.943 4.494h5.457ZM31.876 47.585h-4.985v-7.983h4.985v7.983Zm8.826 0h-4.918v-7.983h4.918v7.983Zm31.733 4.36H55.39V41.414h17.045v10.531Zm-31.733 7.513h-4.918v-7.982h4.918v7.982Zm-8.826 0h-4.985v-7.982h4.985v7.982Zm45.41 18.313 3.571-2.482c-1.819-4.293-4.38-9.257-7.748-14.959l-3.57 2.147c3.233 5.568 5.86 10.666 7.747 15.294Zm-28.23 1.14c2.965-4.628 5.525-10.128 7.681-16.434l-3.907-1.878c-2.089 6.037-4.582 11.27-7.411 15.697l3.638 2.616Zm-5.591-4.56 3.301-.806c-.943-3.22-1.886-6.037-2.964-8.452l-3.167.94a80.48 80.48 0 0 1 2.83 8.317Zm-7.142 3.89 3.504-.402c-.405-5.099-1.146-9.123-2.224-12.075l-3.368.402c1.078 2.818 1.751 6.843 2.088 12.075Zm-12.868 1.811c1.415-3.958 2.29-8.452 2.695-13.55l-3.638-.47c-.337 4.83-1.28 9.123-2.763 12.88l3.706 1.14Zm5.66-.805 3.503-.402c-.135-5.3-.472-9.526-.944-12.611l-3.234.402c.337 2.952.54 7.178.674 12.611Z" fill="#4f7cbb" fill-rule="nonzero"></path></g></svg>