<svg xmlns="http://www.w3.org/2000/svg" viewBox="415 362 295 287">
    <g opacity="1" transform="matrix(.93648 0 0 .93648 414.977 361.905)">
        <g>
            <linearGradient
                id="aqla"
                x1="158.437"
                x2="157.065"
                y1="-30.661"
                y2="220.429"
                gradientTransform="matrix(1 0 0 -1 0 308)"
                gradientUnits="userSpaceOnUse"
            >
                <stop offset="0" stop-color="rgba(0, 0, 0, 1)"></stop>
                <stop offset="1" stop-color="rgba(1, 254, 191, 1)"></stop>
            </linearGradient>
            <path
                fill="url(#aqla)"
                d="M162.9 23.9l36.7 36.7c2.9 2.9 2.9 7.7 0 10.7l-36.5 36.5c-2.9 2.9-7.7 2.9-10.7 0l-36-36c-2.9-2.9-2.9-7.7 0-10.7l37.2-37.2c2.6-2.5 6.7-2.5 9.3 0zm-46.8 225.8l35.6 35.6c3.4 3.4 8.8 3.4 12.2 0l36.1-36.1c2.7-2.7 2.7-7.1 0-9.8l-36.8-36.8c-2.7-2.7-7.1-2.7-9.8 0l-37.3 37.3c-2.7 2.7-2.7 7.1 0 9.8zm54.9 52.1c30.4-29.8 107.5-105.5 138.5-136 7.3-7.2 7.2-18.9-.1-26L170.6 5.1c-7.1-6.9-18.3-6.8-25.4.1L4.5 143.2c-6.1 5.9-6.1 15.7 0 21.6 29.5 28.7 110 106.7 141.2 137 7.1 6.9 18.3 6.8 25.3 0zm41.7-47.4L168.8 297c-5.8 5.7-15.1 5.7-20.9 0l-44.1-42.9c-7.3-7.1-7.3-18.7-.1-25.9l21.7-21.6c7.1-7.1 7.1-18.6 0-25.7l-14.6-14.5c-7.1-7.1-7.1-18.6 0-25.7l14.7-14.7c7.1-7.1 7.1-18.7 0-25.7l-22-21.9c-7.2-7.2-7.2-18.8.1-25.9l45.5-44.2c4.9-4.8 12.8-4.8 17.7 0l45.7 44.4c7.3 7.1 7.3 18.7.1 25.9l-21.7 21.6c-7.1 7.1-7.1 18.6 0 25.7l14.6 14.5c7.1 7.1 7.1 18.6 0 25.7l-14.7 14.7c-7.1 7.1-7.1 18.7 0 25.7l22 21.9c7.3 7.3 7.2 18.9-.1 26z"
            ></path>
        </g>
    </g>
</svg>
  