<svg width="295" height="295" viewBox="0 0 295 295" fill="none" xmlns="http://www.w3.org/2000/svg">
<g clip-path="url(#clip0_66_1500)">
<path d="M152.574 27.2869L186.932 61.6557C189.647 64.3715 189.647 68.8666 186.932 71.676L152.762 105.858C150.047 108.573 145.553 108.573 142.744 105.858L109.042 72.1443C106.327 69.4285 106.327 64.9334 109.042 62.1239L143.868 27.2869C146.302 24.9457 150.14 24.9457 152.574 27.2869ZM108.761 238.744L142.089 272.083C145.272 275.267 150.327 275.267 153.511 272.083L187.307 238.276C189.834 235.747 189.834 231.627 187.307 229.098L152.855 194.636C150.327 192.107 146.208 192.107 143.681 194.636L108.761 229.567C106.233 232.095 106.233 236.216 108.761 238.744ZM160.157 287.535C188.617 259.628 260.797 188.736 289.819 160.173C296.653 153.431 296.559 142.474 289.725 135.825L159.783 9.68106C153.136 3.21935 142.651 3.313 136.004 9.77471L4.28303 139.009C-1.42768 144.534 -1.42768 153.712 4.28303 159.237C31.9004 186.114 107.263 259.159 136.472 287.535C143.119 293.996 153.604 293.903 160.157 287.535ZM199.196 243.146L158.098 283.04C152.668 288.378 143.961 288.378 138.532 283.04L97.246 242.865C90.4118 236.216 90.4118 225.352 97.1523 218.61L117.467 198.382C124.114 191.733 124.114 180.963 117.467 174.314L103.799 160.735C97.1523 154.086 97.1523 143.317 103.799 136.668L117.561 122.901C124.208 116.252 124.208 105.389 117.561 98.834L96.9651 78.325C90.2246 71.5824 90.2246 60.7192 97.0587 54.0702L139.655 12.6778C144.242 8.18269 151.638 8.18269 156.225 12.6778L199.009 54.2575C205.843 60.9065 205.843 71.7697 199.103 78.5123L178.787 98.7403C172.141 105.389 172.141 116.159 178.787 122.808L192.456 136.387C199.103 143.036 199.103 153.805 192.456 160.454L178.694 174.221C172.047 180.87 172.047 191.733 178.694 198.288L199.29 218.797C206.124 225.633 206.03 236.497 199.196 243.146Z" fill="url(#paint0_linear_66_1500)"/>
</g>
<defs>
<linearGradient id="paint0_linear_66_1500" x1="148.396" y1="322.054" x2="147.111" y2="86.9135" gradientUnits="userSpaceOnUse">
<stop/>
<stop offset="1" stop-color="#01FEBF"/>
</linearGradient>
<clipPath id="clip0_66_1500">
<rect width="295" height="295" fill="white"/>
</clipPath>
</defs>
</svg>
