<?xml version="1.0" encoding="UTF-8" standalone="no"?>
<svg
   version="1.1"
   id="Layer_1"
   x="0px"
   y="0px"
   viewBox="0 0 40 40"
   style="enable-background:new 0 0 40 40;"
   xml:space="preserve"
   sodipodi:docname="boon.svg"
   inkscape:version="1.3.2 (091e20e, 2023-11-25)"
   inkscape:export-filename="boon.png"
   inkscape:export-xdpi="2400"
   inkscape:export-ydpi="2400"
   xmlns:inkscape="http://www.inkscape.org/namespaces/inkscape"
   xmlns:sodipodi="http://sodipodi.sourceforge.net/DTD/sodipodi-0.dtd"
   xmlns="http://www.w3.org/2000/svg"
   xmlns:svg="http://www.w3.org/2000/svg"><defs
   id="defs1" /><sodipodi:namedview
   id="namedview1"
   pagecolor="#ffffff"
   bordercolor="#000000"
   borderopacity="0.25"
   inkscape:showpageshadow="2"
   inkscape:pageopacity="0.0"
   inkscape:pagecheckerboard="0"
   inkscape:deskcolor="#d1d1d1"
   inkscape:zoom="11.8"
   inkscape:cx="10.974576"
   inkscape:cy="23.177966"
   inkscape:window-width="1512"
   inkscape:window-height="916"
   inkscape:window-x="0"
   inkscape:window-y="38"
   inkscape:window-maximized="1"
   inkscape:current-layer="Layer_1" />
  <style
   type="text/css"
   id="style1">
    .st0{fill:#FFFFFF;}
    .background{fill:#000000;}
  </style>
  
  
<circle
   style="fill:#000000;stroke-width:0.861518"
   id="path2"
   cx="19.917381"
   cy="20.086874"
   r="19.493652" /><path
   class="st0"
   d="m 37.288824,26.973027 c -1.498992,6.726727 -9.527967,11.945092 -17.481994,11.945092 -7.785389,0 -14.4652737,-4.740562 -17.3039898,-11.504763 l 13.0693378,-4.39392 c 0.159267,-0.149899 0.252955,-0.346642 0.262323,-0.571491 v -0.01874 c 0,-0.534015 -0.524647,-0.918132 -1.030557,-0.740126 L 1.9688243,25.970576 C 1.884506,25.698884 1.8001877,25.427192 1.725238,25.146131 1.706501,25.071181 1.687763,24.996232 1.669026,24.921282 1.2942781,23.515977 1.078798,22.045091 1.0600606,20.527362 c 0,0 0,0 0,0 0,-0.04684 0,-0.09369 0,-0.140531 0,-0.07495 0,-0.159268 0,-0.234218 0,-0.299797 0.00937,-0.599596 0.018738,-0.890026 0,-0.09369 0.00937,-0.196742 0.018738,-0.29043 0.00937,-0.14053 0.018738,-0.281061 0.028107,-0.421591 0.037475,-0.459067 0.093687,-0.908764 0.159268,-1.349093 0.9181326,-5.864806 4.5531882,-10.8208489 9.5841804,-13.5471406 0.01874,-0.00937 0.03747,-0.018738 0.04684,-0.028107 0.196743,-0.1030562 0.393486,-0.2061114 0.58086,-0.2997984 0.09369,-0.046843 0.187375,-0.093687 0.281061,-0.1311618 0.09369,-0.046843 0.178006,-0.084319 0.262323,-0.1217931 0.04684,-0.018738 0.08432,-0.037475 0.131163,-0.056212 0.04684,-0.018738 0.08432,-0.037475 0.131161,-0.056212 0.252955,-0.1124245 0.487173,-0.2061114 0.702653,-0.2904297 0.234218,-0.093687 0.440329,-0.1686366 0.618334,-0.2342175 0.04684,-0.018738 0.08432,-0.028107 0.131161,-0.046843 0.02811,-0.00937 0.06558,-0.018738 0.103055,-0.037474 0.04684,-0.018738 0.103054,-0.028106 0.149899,-0.046843 2.24849,-0.693285 5.021625,-0.505911 2.913668,1.6020465 C 14.766469,6.0620883 2.4747341,18.15708 2.4747341,18.15708 c -0.2716923,0.459067 0.3841167,0.899396 0.7026525,0.477804 0,0 10.3524144,-9.8558724 18.0347484,-17.1915648 6.314504,0.468435 11.767087,4.0660158 14.793177,9.2469078 L 7.1216093,22.513526 c -0.4965411,0.243587 -0.2248488,0.993082 0.3091671,0.871289 0,0 6.8485206,-2.576393 18.1003296,-6.932837 8.703522,-3.363364 13.266079,3.803691 11.757718,10.521049 z"
   id="path1"
   style="stroke-width:0.93687" /></svg>
