<?xml version="1.0" encoding="UTF-8"?>
<svg xmlns="http://www.w3.org/2000/svg" xmlns:xlink="http://www.w3.org/1999/xlink" version="1.1" id="Layer_1" x="0px" y="0px" viewBox="0 0 40 40" style="enable-background:new 0 0 40 40;" xml:space="preserve">
  <style type="text/css">
    .st0{fill:#FFFFFF;}
    .background{fill:#000000;}
  </style>
  <rect class="background" width="100%" height="100%"/>
  <path class="st0" d="M39.19,27.25C37.59,34.43,29.02,40,20.53,40c-8.31,0-15.44-5.06-18.47-12.28l13.95-4.69 c0.17-0.16,0.27-0.37,0.28-0.61v-0.02c0-0.57-0.56-0.98-1.1-0.79L1.49,26.18c-0.09-0.29-0.18-0.58-0.26-0.88 c-0.02-0.08-0.04-0.16-0.06-0.24c-0.4-1.5-0.63-3.07-0.65-4.69c0,0,0,0,0,0c0-0.05,0-0.1,0-0.15c0-0.08,0-0.17,0-0.25 c0-0.32,0.01-0.64,0.02-0.95c0-0.1,0.01-0.21,0.02-0.31c0.01-0.15,0.02-0.3,0.03-0.45c0.04-0.49,0.1-0.97,0.17-1.44 C1.74,10.56,5.62,5.27,10.99,2.36c0.02-0.01,0.04-0.02,0.05-0.03c0.21-0.11,0.42-0.22,0.62-0.32c0.1-0.05,0.2-0.1,0.3-0.14 c0.1-0.05,0.19-0.09,0.28-0.13c0.05-0.02,0.09-0.04,0.14-0.06c0.05-0.02,0.09-0.04,0.14-0.06c0.27-0.12,0.52-0.22,0.75-0.31 c0.25-0.1,0.47-0.18,0.66-0.25c0.05-0.02,0.09-0.03,0.14-0.05C14.1,1,14.14,0.99,14.18,0.97c0.05-0.02,0.11-0.03,0.16-0.05 c2.4-0.74,5.36-0.54,3.11,1.71c-2.3,2.3-15.42,15.21-15.42,15.21c-0.29,0.49,0.41,0.96,0.75,0.51c0,0,11.05-10.52,19.25-18.35 c6.74,0.5,12.56,4.34,15.79,9.87L6.99,22.49c-0.53,0.26-0.24,1.06,0.33,0.93c0,0,7.31-2.75,19.32-7.4 C35.93,12.43,40.8,20.08,39.19,27.25z"/>
</svg>