<svg width="299" height="299" viewBox="0 0 299 299" fill="none" xmlns="http://www.w3.org/2000/svg">
<circle cx="149.5" cy="149.5" r="149.5" fill="#151A32"/>
<path d="M243.371 217.611C249.811 217.611 255.032 212.352 255.032 205.864C255.032 199.377 249.811 194.117 243.371 194.117C236.931 194.117 231.71 199.377 231.71 205.864C231.71 212.352 236.931 217.611 243.371 217.611Z" fill="#FFB83B"/>
<path d="M206.295 217.611C212.735 217.611 217.956 212.352 217.956 205.864C217.956 199.377 212.735 194.117 206.295 194.117C199.855 194.117 194.634 199.377 194.634 205.864C194.634 212.352 199.855 217.611 206.295 217.611Z" fill="#FF637B"/>
<path d="M168.044 274.084C174.484 274.084 179.705 268.825 179.705 262.337C179.705 255.849 174.484 250.59 168.044 250.59C161.604 250.59 156.383 255.849 156.383 262.337C156.383 268.825 161.604 274.084 168.044 274.084Z" fill="#FF637B"/>
<path d="M148.977 245.832C155.418 245.832 160.639 240.573 160.639 234.085C160.639 227.597 155.418 222.338 148.977 222.338C142.537 222.338 137.316 227.597 137.316 234.085C137.316 240.573 142.537 245.832 148.977 245.832Z" fill="#E82FCE"/>
<path d="M206.201 217.611C212.641 217.611 217.862 212.352 217.862 205.864C217.862 199.377 212.641 194.117 206.201 194.117C199.761 194.117 194.54 199.377 194.54 205.864C194.54 212.352 199.761 217.611 206.201 217.611Z" fill="#FF637B"/>
<path d="M129.894 217.611C136.335 217.611 141.556 212.352 141.556 205.864C141.556 199.377 136.335 194.117 129.894 194.117C123.454 194.117 118.233 199.377 118.233 205.864C118.233 212.352 123.454 217.611 129.894 217.611Z" fill="#7232CE"/>
<path d="M168.044 217.611C174.484 217.611 179.705 212.352 179.705 205.864C179.705 199.377 174.484 194.117 168.044 194.117C161.604 194.117 156.383 199.377 156.383 205.864C156.383 212.352 161.604 217.611 168.044 217.611Z" fill="#E82FCE"/>
<path d="M92.6298 254.928C99.0701 254.928 104.291 249.668 104.291 243.181C104.291 236.693 99.0701 231.434 92.6298 231.434C86.1896 231.434 80.9688 236.693 80.9688 243.181C80.9688 249.668 86.1896 254.928 92.6298 254.928Z" fill="#FFB83B"/>
<path d="M92.6298 217.582C99.0701 217.582 104.291 212.323 104.291 205.835C104.291 199.347 99.0701 194.088 92.6298 194.088C86.1896 194.088 80.9688 199.347 80.9688 205.835C80.9688 212.323 86.1896 217.582 92.6298 217.582Z" fill="#FF637B"/>
<path d="M36.582 179.039C43.0222 179.039 48.2431 173.78 48.2431 167.292C48.2431 160.804 43.0222 155.545 36.582 155.545C30.1417 155.545 24.9209 160.804 24.9209 167.292C24.9209 173.78 30.1417 179.039 36.582 179.039Z" fill="#FF637B"/>
<path d="M64.5976 159.842C71.0379 159.842 76.2587 154.583 76.2587 148.095C76.2587 141.607 71.0379 136.348 64.5976 136.348C58.1574 136.348 52.9365 141.607 52.9365 148.095C52.9365 154.583 58.1574 159.842 64.5976 159.842Z" fill="#E82FCE"/>
<path d="M92.6298 217.481C99.0701 217.481 104.291 212.221 104.291 205.733C104.291 199.246 99.0701 193.986 92.6298 193.986C86.1896 193.986 80.9688 199.246 80.9688 205.733C80.9688 212.221 86.1896 217.481 92.6298 217.481Z" fill="#FF637B"/>
<path d="M92.6289 140.629C99.0691 140.629 104.29 135.37 104.29 128.882C104.29 122.394 99.0691 117.135 92.6289 117.135C86.1886 117.135 80.9678 122.394 80.9678 128.882C80.9678 135.37 86.1886 140.629 92.6289 140.629Z" fill="#7232CE"/>
<path d="M92.6298 179.039C99.0701 179.039 104.291 173.78 104.291 167.292C104.291 160.804 99.0701 155.545 92.6298 155.545C86.1896 155.545 80.9688 160.804 80.9688 167.292C80.9688 173.78 86.1896 179.039 92.6298 179.039Z" fill="#E82FCE"/>
<path d="M55.6425 104.873C62.0828 104.873 67.3036 99.6138 67.3036 93.126C67.3036 86.6383 62.0828 81.3789 55.6425 81.3789C49.2023 81.3789 43.9814 86.6383 43.9814 93.126C43.9814 99.6138 49.2023 104.873 55.6425 104.873Z" fill="#FFB83B"/>
<path d="M92.7099 104.873C99.1502 104.873 104.371 99.6138 104.371 93.126C104.371 86.6383 99.1502 81.3789 92.7099 81.3789C86.2697 81.3789 81.0488 86.6383 81.0488 93.126C81.0488 99.6138 86.2697 104.873 92.7099 104.873Z" fill="#FF637B"/>
<path d="M130.961 48.4025C137.401 48.4025 142.622 43.1431 142.622 36.6553C142.622 30.1676 137.401 24.9082 130.961 24.9082C124.521 24.9082 119.3 30.1676 119.3 36.6553C119.3 43.1431 124.521 48.4025 130.961 48.4025Z" fill="#FF637B"/>
<path d="M150.035 76.6232C156.475 76.6232 161.696 71.3638 161.696 64.876C161.696 58.3883 156.475 53.1289 150.035 53.1289C143.595 53.1289 138.374 58.3883 138.374 64.876C138.374 71.3638 143.595 76.6232 150.035 76.6232Z" fill="#E82FCE"/>
<path d="M92.8115 104.873C99.2517 104.873 104.473 99.6138 104.473 93.126C104.473 86.6383 99.2517 81.3789 92.8115 81.3789C86.3712 81.3789 81.1504 86.6383 81.1504 93.126C81.1504 99.6138 86.3712 104.873 92.8115 104.873Z" fill="#FF637B"/>
<path d="M169.117 104.873C175.557 104.873 180.778 99.6138 180.778 93.126C180.778 86.6383 175.557 81.3789 169.117 81.3789C162.677 81.3789 157.456 86.6383 157.456 93.126C157.456 99.6138 162.677 104.873 169.117 104.873Z" fill="#7232CE"/>
<path d="M130.961 104.873C137.401 104.873 142.622 99.6138 142.622 93.126C142.622 86.6383 137.401 81.3789 130.961 81.3789C124.521 81.3789 119.3 86.6383 119.3 93.126C119.3 99.6138 124.521 104.873 130.961 104.873Z" fill="#E82FCE"/>
<path d="M206.39 67.5431C212.83 67.5431 218.051 62.2837 218.051 55.796C218.051 49.3082 212.83 44.0488 206.39 44.0488C199.949 44.0488 194.729 49.3082 194.729 55.796C194.729 62.2837 199.949 67.5431 206.39 67.5431Z" fill="#FFB83B"/>
<path d="M206.39 104.873C212.83 104.873 218.051 99.6138 218.051 93.126C218.051 86.6383 212.83 81.3789 206.39 81.3789C199.949 81.3789 194.729 86.6383 194.729 93.126C194.729 99.6138 199.949 104.873 206.39 104.873Z" fill="#FF637B"/>
<path d="M262.431 143.416C268.871 143.416 274.092 138.157 274.092 131.669C274.092 125.181 268.871 119.922 262.431 119.922C255.99 119.922 250.77 125.181 250.77 131.669C250.77 138.157 255.99 143.416 262.431 143.416Z" fill="#FF637B"/>
<path d="M234.414 162.631C240.854 162.631 246.075 157.372 246.075 150.884C246.075 144.396 240.854 139.137 234.414 139.137C227.974 139.137 222.753 144.396 222.753 150.884C222.753 157.372 227.974 162.631 234.414 162.631Z" fill="#E82FCE"/>
<path d="M206.39 104.992C212.83 104.992 218.051 99.7329 218.051 93.2452C218.051 86.7574 212.83 81.498 206.39 81.498C199.949 81.498 194.729 86.7574 194.729 93.2452C194.729 99.7329 199.949 104.992 206.39 104.992Z" fill="#FF637B"/>
<path d="M206.39 181.844C212.83 181.844 218.051 176.584 218.051 170.097C218.051 163.609 212.83 158.35 206.39 158.35C199.949 158.35 194.729 163.609 194.729 170.097C194.729 176.584 199.949 181.844 206.39 181.844Z" fill="#7232CE"/>
<path d="M206.39 143.416C212.83 143.416 218.051 138.157 218.051 131.669C218.051 125.181 212.83 119.922 206.39 119.922C199.949 119.922 194.729 125.181 194.729 131.669C194.729 138.157 199.949 143.416 206.39 143.416Z" fill="#E82FCE"/>
</svg>
