<?xml version="1.0" encoding="UTF-8"?>
<svg width="100px" height="100px" viewBox="0 0 100 100" version="1.1" xmlns="http://www.w3.org/2000/svg" xmlns:xlink="http://www.w3.org/1999/xlink">
    <title>kuji</title>
    <g id="kuji" stroke="none" stroke-width="1" fill="none" fill-rule="evenodd">
        <circle id="Oval" fill="#22242F" cx="50" cy="50" r="50"></circle>
        <path d="M50,2 C76.509668,2 98,23.490332 98,50 C98,76.509668 76.509668,98 50,98 C23.490332,98 2,76.509668 2,50 C2,23.490332 23.490332,2 50,2 Z M50,5.38823529 C25.3616027,5.38823529 5.38823529,25.3616027 5.38823529,50 C5.38823529,74.6383973 25.3616027,94.6117647 50,94.6117647 C74.6383973,94.6117647 94.6117647,74.6383973 94.6117647,50 C94.6117647,25.3616027 74.6383973,5.38823529 50,5.38823529 Z" id="Oval" fill="#E53935" fill-rule="nonzero"></path>
        <path d="M80.2507798,31.0832298 L80.2507798,26.7229814 L66.4391765,26.7229814 C65.6980661,23.9055901 64.9569557,21.4236025 64.1484716,19.1428571 L59.4996881,19.9478261 C60.3081722,21.9602484 61.1166563,24.2409938 61.8577667,26.7229814 L47.2376794,26.7229814 L47.2376794,31.0832298 L80.2507798,31.0832298 Z M44.8796007,63.4832298 L44.8796007,35.6447205 L38.0748596,35.6447205 C39.4897068,33.5652174 40.904554,31.0161491 42.3194011,27.9304348 L42.3194011,24.710559 L31.2027449,24.710559 C31.8091079,23.3689441 32.3480973,22.0273292 32.8870867,20.6186335 L28.5751716,19.2770186 C26.5539613,25.8509317 23.3873986,31.1503106 19.1428571,35.242236 L20.1534623,40.0049689 C21.02932,39.2 21.9051778,38.3950311 22.7136619,37.5229814 L22.7136619,63.4832298 L44.8796007,63.4832298 Z M33.4260761,35.6447205 L24.3980037,35.6447205 C26.1497193,33.4981366 27.8340611,31.0832298 29.316282,28.5341615 L37.8053649,28.5341615 C36.3231441,31.2173913 34.9082969,33.6322981 33.4260761,35.6447205 Z M61.1840299,80.8571429 C64.5527137,80.8571429 66.3044292,78.978882 66.3044292,75.289441 L66.3044292,56.1714286 L77.0168434,56.1714286 L77.0168434,37.1204969 L50.8084841,37.1204969 L50.8084841,56.1714286 L61.588272,56.1714286 L61.588272,74.1490683 C61.588272,75.826087 60.9145352,76.6981366 59.5670618,76.6981366 C58.0174672,76.6981366 56.4004991,76.5639752 54.7835309,76.3627329 L55.7267623,80.8571429 L61.1840299,80.8571429 Z M31.8764816,47.5850932 L26.8908297,47.5850932 L26.8908297,39.6024845 L31.8764816,39.6024845 L31.8764816,47.5850932 Z M40.7024329,47.5850932 L35.7841547,47.5850932 L35.7841547,39.6024845 L40.7024329,39.6024845 L40.7024329,47.5850932 Z M72.4354336,51.9453416 L55.3898939,51.9453416 L55.3898939,41.4136646 L72.4354336,41.4136646 L72.4354336,51.9453416 Z M40.7024329,59.4583851 L35.7841547,59.4583851 L35.7841547,51.4757764 L40.7024329,51.4757764 L40.7024329,59.4583851 Z M31.8764816,59.4583851 L26.8908297,59.4583851 L26.8908297,51.4757764 L31.8764816,51.4757764 L31.8764816,59.4583851 Z M77.2863381,77.7714286 L80.8571429,75.289441 C79.0380536,70.9962733 76.477854,66.0322981 73.1091703,60.3304348 L69.5383656,62.4770186 C72.7723019,68.0447205 75.3998752,73.1428571 77.2863381,77.7714286 Z M49.0567686,78.9118012 C52.0212102,74.2832298 54.5814099,68.7826087 56.7373674,62.4770186 L52.8296943,60.5987578 C50.7411104,66.6360248 48.2482845,71.868323 45.4185901,76.2956522 L49.0567686,78.9118012 Z M43.4647536,74.3503106 L46.7660636,73.5453416 C45.8228322,70.3254658 44.8796007,67.5080745 43.801622,65.0931677 L40.6350593,66.0322981 C41.7130381,68.715528 42.6562695,71.4658385 43.4647536,74.3503106 Z M36.3231441,78.2409938 L39.8265752,77.8385093 C39.4223331,72.7403727 38.6812227,68.715528 37.6032439,65.7639752 L34.2345602,66.1664596 C35.312539,68.9838509 35.9862757,73.0086957 36.3231441,78.2409938 Z M23.4547723,80.0521739 C24.8696195,76.0944099 25.7454772,71.6 26.1497193,66.5018634 L22.5115409,66.0322981 C22.1746725,70.8621118 21.231441,75.1552795 19.7492202,78.9118012 L23.4547723,80.0521739 Z M29.1141609,79.247205 L32.617592,78.8447205 C32.4828447,73.5453416 32.1459763,69.3192547 31.6743606,66.2335404 L28.4404242,66.6360248 C28.7772926,69.5875776 28.9794136,73.8136646 29.1141609,79.247205 Z" id="鯨" fill="#E53935" fill-rule="nonzero"></path>
    </g>
</svg>