<?xml version="1.0" encoding="UTF-8"?>
<svg width="100px" height="100px" viewBox="0 0 100 100" version="1.1" xmlns="http://www.w3.org/2000/svg" xmlns:xlink="http://www.w3.org/1999/xlink">
    <title>kuji copy</title>
    <g id="kuji-copy" stroke="none" stroke-width="1" fill="none" fill-rule="evenodd">
        <circle id="Oval" fill="#22242F" cx="50" cy="50" r="49"></circle>
        <path d="M50,0 C77.6142375,0 100,22.3857625 100,50 C100,77.6142375 77.6142375,100 50,100 C22.3857625,100 0,77.6142375 0,50 C0,22.3857625 22.3857625,0 50,0 Z M50,5 C25.1471863,5 5,25.1471863 5,50 C5,74.8528137 25.1471863,95 50,95 C74.8528137,95 95,74.8528137 95,50 C95,25.1471863 74.8528137,5 50,5 Z" id="Oval-Copy-3" fill="#E53935" fill-rule="nonzero"></path>
        <g id="Group-Copy" transform="translate(14.9895, 18)" fill="#E53935">
            <rect id="Rectangle" x="6.25772412" y="17.9579644" width="27.6584037" height="5.03337549"></rect>
            <rect id="Rectangle-Copy-5" x="38.9449285" y="17.9579644" width="25.1440033" height="5.03337549"></rect>
            <rect id="Rectangle-Copy-9" x="38.9449285" y="9.14955733" width="25.1440033" height="5.03337549"></rect>
            <rect id="Rectangle-Copy-11" x="11.2865248" y="9.14955733" width="16.3436022" height="5.03337549"></rect>
            <polygon id="Rectangle-Copy-10" transform="translate(49.3838, 7.0145) rotate(-315) translate(-49.3838, -7.0145)" points="43.7227219 4.49640898 55.0426701 4.50155566 55.0449575 9.53264374 43.7250093 9.52749706"></polygon>
            <polygon id="Rectangle-Copy-14" transform="translate(22.6863, 16.8554) rotate(125) translate(-22.6863, -16.8554)" points="17.6555297 14.3423511 27.7192705 14.3380522 27.7171211 19.3683579 17.6533802 19.3726569"></polygon>
            <polygon id="Rectangle-Copy-13" transform="translate(9.6417, 12.2666) rotate(125) translate(-9.6417, -12.2666)" points="-3.56587808 9.7571393 22.8514416 9.74585462 22.8492922 14.7761604 -3.56802755 14.787445"></polygon>
            <polygon id="Rectangle-Copy-15" transform="translate(41.1003, 49.3205) rotate(115) translate(-41.1003, -49.3205)" points="35.4395175 46.8076133 46.7627739 46.8036708 46.7610217 51.8332885 35.4377653 51.8372311"></polygon>
            <polygon id="Rectangle-Copy-16" transform="translate(62.2781, 51.6013) scale(-1, 1) rotate(115) translate(-62.2781, -51.6013)" points="54.1010725 49.0893832 70.4568873 49.0836883 70.4551351 54.1133061 54.0993203 54.1190009"></polygon>
            <rect id="Rectangle-Copy-6" x="38.9449285" y="34.3164348" width="25.1440033" height="5.03337549"></rect>
            <rect id="Rectangle-Copy-17" x="42.716529" y="56.9666245" width="11.3148015" height="5.03337549"></rect>
            <rect id="Rectangle-Copy" x="7.51492428" y="39.3498103" width="25.1440033" height="5.03337549"></rect>
            <rect id="Rectangle-Copy-4" x="8.77212445" y="29.2830593" width="22.629603" height="3.77503162"></rect>
            <rect id="Rectangle" x="6.25772412" y="21.7329961" width="5.02880067" height="22.6501897"></rect>
            <rect id="Rectangle-Copy-2" x="17.5725256" y="21.7329961" width="5.02880067" height="22.6501897"></rect>
            <rect id="Rectangle-Copy-7" x="38.9449285" y="21.7329961" width="5.02880067" height="13.8417826"></rect>
            <rect id="Rectangle-Copy-12" x="49.0025298" y="36.8331225" width="5.02880067" height="25.1668775"></rect>
            <rect id="Rectangle-Copy-18" x="6.25772412" y="48.1582174" width="5.02880067" height="11.3250949"></rect>
            <rect id="Rectangle-Copy-19" x="13.8009251" y="48.1582174" width="5.02880067" height="11.3250949"></rect>
            <rect id="Rectangle-Copy-20" x="21.3441261" y="48.1582174" width="5.02880067" height="11.3250949"></rect>
            <rect id="Rectangle-Copy-21" x="28.8873271" y="48.1582174" width="5.02880067" height="5.03337549"></rect>
            <rect id="Rectangle-Copy-8" x="59.0601311" y="21.7329961" width="5.02880067" height="13.8417826"></rect>
            <rect id="Rectangle-Copy-3" x="28.8873271" y="21.7329961" width="5.02880067" height="22.6501897"></rect>
        </g>
    </g>
</svg>