<?xml version="1.0" encoding="utf-8"?>
<!DOCTYPE svg PUBLIC "-//W3C//DTD SVG 1.0//EN" "http://www.w3.org/TR/2001/REC-SVG-20010904/DTD/svg10.dtd">
<svg version="1.0" xmlns="http://www.w3.org/2000/svg" width="1000px" height="1000px" viewBox="0 0 1000 1000" preserveAspectRatio="xMidYMid meet">
 <g fill="#000000">
  <path d="M 430 486.5 l 0 -83.5 25.4 0 c 14 0 25.6 0.4 25.8 0.9 0.2 0.5 12.2 15.1 26.8 32.5 l 26.5 31.6 0.3 -32.5 0.2 -32.5 29.5 0 29.5 0 0 83.5 0 83.5 -25.2 0 -25.3 0 -27.5 -33 -27.5 -33 -0.3 33 -0.2 33 -29 0 -29 0 0 -83.5 z "/>
 </g>
 <g fill="#1b1b1b">
  <path d="M999.5 500 C 999.5 775.9 775.8 999.5 500 999.5 224.1 999.5 0.5 775.9 0.5 500 0.5 224.1 224.1 0.5 500 0.5 775.8 0.5 999.5 224.1 999.5 500 Z M478.4 998.9  M986 500 C 986 231.6 768.4 14 500 14 231.6 14 14 231.6 14 500 14 768.4 231.6 986 500 986 768.4 986 986 768.4 986 500 Z M523.5 986 "/>
  <path d="M 267.8 821 c -4.9 -2.6 -8.6 -8.3 -9.4 -14.2 l -0.7 -4.8 -19.1 0 c -21.6 0 -26.7 -0.9 -38.1 -6.5 -15.9 -7.8 -27.2 -21.2 -32.7 -38.7 l -2.3 -7.3 0 -261 0 -261 2.8 -8.2 c 3.3 -9.9 10.9 -21.6 18 -27.8 2.9 -2.5 8.6 -6.3 12.8 -8.5 14.7 -7.6 -12.5 -7 300.7 -7 202.3 0 282.6 0.3 286 1.1 2.6 0.6 8.8 3.1 13.9 5.5 15.5 7.4 27.1 21.1 32.5 38.4 l 2.3 7.5 0 260 c 0 248.4 -0.1 260.3 -1.8 266.4 -3.3 11.6 -8.2 19.9 -17.1 28.6 -9.1 9 -16.2 13.3 -27.6 16.4 -6.3 1.8 -10.3 2.1 -26.5 2.1 l -19.1 0 -1.1 5.5 c -1.5 6.9 -4.3 10.9 -9.3 13.5 -3.7 1.9 -6.1 2 -47.4 2 -28.4 0 -44.4 -0.4 -46.3 -1.1 -6 -2.3 -11.2 -10 -11.3 -16.6 l 0 -3.3 -127 0 -127 0 0 3.3 c -0.1 4.8 -3.3 11.1 -7.6 14.3 l -3.7 2.9 -45.1 0.2 c -43.3 0.2 -45.3 0.2 -48.8 -1.7 z  m 85.9 -16.5 l 2.8 -2.4 -40.2 -0.1 c -24.6 0 -40.3 0.4 -40.3 0.9 0 0.6 1 1.7 2.2 2.5 1.9 1.4 7.2 1.6 37.5 1.6 l 35.2 0 2.8 -2.5 z  m 368.1 0.9 c 1.2 -0.8 2.2 -1.9 2.2 -2.5 0 -0.5 -15.7 -0.9 -40.2 -0.9 l -40.3 0.1 2.8 2.4 2.8 2.5 35.2 0 c 30.3 0 35.6 -0.2 37.5 -1.6 z  m 61.5 -34.2 c 13.6 -6.7 22 -18.7 23.8 -34 0.6 -4.5 0.8 -108.9 0.7 -254.2 -0.3 -278.7 0.6 -251.2 -8.6 -263.2 -5.3 -6.9 -11.5 -11.6 -20 -15 l -5.7 -2.3 -263 -0.3 c -146 -0.2 -268.4 0.1 -275.2 0.6 -11.1 0.8 -12.9 1.2 -19.6 4.5 -7.9 3.9 -13.6 9.2 -18.1 16.9 -5.9 10 -5.6 -3.9 -5.6 264.4 0 171.2 0.3 247.8 1.1 251.8 2.9 15.8 14 28.3 29.4 33.2 3.2 1 58.8 1.2 279 1.1 l 275 -0.2 6.8 -3.3 z "/>
  <path d="M 251.9 737.3 c -1.1 -1.3 -1.5 -8.7 -1.7 -36.3 l -0.3 -34.8 -8.9 -0.4 c -5.3 -0.2 -9.5 -0.9 -10.3 -1.7 -0.9 -0.9 -1.3 -12.3 -1.5 -47.8 -0.2 -40.7 -0.1 -46.9 1.3 -48.9 1.4 -2.2 2.2 -2.4 10.5 -2.4 l 9 0 0.2 -67.1 c 0.3 -65.1 0.4 -67.1 2.2 -68.5 1.1 -0.8 4.1 -1.4 6.7 -1.4 8.6 0 7.9 -14.2 7.9 149.7 l 0 145.3 161.8 0 c 124.5 0 162.1 0.3 163 1.2 0.7 0.7 1.2 3.7 1.2 6.8 0 3.1 -0.5 6.1 -1.2 6.8 -0.9 0.9 -40 1.2 -169.9 1.2 -155.6 0 -168.8 -0.1 -170 -1.7 z  m -1.9 -122.3 c 0 -33.3 0 -34 -2 -34 -2 0 -2 0.7 -2 34 0 33.3 0 34 2 34 2 0 2 -0.7 2 -34 z "/>
  <path d="M 599 737.1 c -0.5 -1.1 -1 -4 -1 -6.5 0 -7.3 0.7 -7.6 18.9 -7.6 10.9 0 16.1 0.4 16.9 1.2 0.7 0.7 1.2 3.7 1.2 6.8 0 3.1 -0.5 6.1 -1.2 6.8 -0.8 0.8 -6.1 1.2 -17.5 1.2 -15 0 -16.3 -0.1 -17.3 -1.9 z "/>
  <path d="M 652.2 737.8 c -1.6 -1.6 -1.6 -12.2 0.1 -13.6 0.8 -0.7 13.7 -1.2 37.2 -1.4 39.7 -0.3 39.4 -0.3 47 -6.9 2.1 -1.9 4.9 -5.6 6.1 -8.4 l 2.4 -5 0 -213.5 c 0 -212.5 -0.1 -213.5 -2.1 -218 -2.9 -6.4 -8.4 -11.7 -14.6 -14 -5.3 -2 -8.1 -2 -233.3 -2 l -228 0 0 71.9 c 0 62.9 -0.2 72.1 -1.5 73.5 -2.2 2.1 -9.1 2.9 -21.7 2.4 -10.1 -0.4 -11.3 -0.7 -13 -2.7 -1.7 -2.2 -1.8 -5.1 -1.8 -48 0 -39.7 0.2 -45.9 1.6 -47.9 1.4 -2 2.3 -2.2 10.5 -2.2 l 8.9 0 0 -29.4 c 0 -27.4 0.1 -29.5 1.9 -31.7 l 1.9 -2.4 232.9 -0.3 c 135.3 -0.1 236 0.1 240.5 0.7 17.3 2 29.2 11.9 33.3 27.7 1.3 5.1 1.5 32.4 1.5 222.4 0 238.8 0.4 223 -6.2 233.3 -3.7 5.7 -9.7 10.8 -16.4 13.9 -4.8 2.3 -5.7 2.3 -45.4 2.6 -31.3 0.2 -40.8 0 -41.8 -1 z  m -402.2 -385.8 c 0 -33.3 0 -34 -2 -34 -2 0 -2 0.7 -2 34 0 33.3 0 34 2 34 2 0 2 -0.7 2 -34 z "/>
  <path d="M720.3 678.3 C 720.3 694.9 706.9 708.3 690.4 708.3 673.8 708.3 660.4 694.9 660.4 678.3 660.4 661.8 673.8 648.4 690.4 648.4 706.9 648.4 720.3 661.8 720.3 678.3 Z M682.3 707  M702.2 678.3 C 702.2 671.9 696.9 666.6 690.4 666.6 683.9 666.6 678.7 671.9 678.7 678.3 678.7 684.8 683.9 690.1 690.4 690.1 696.9 690.1 702.2 684.8 702.2 678.3 Z M695.1 688.7 "/>
  <path d="M668.4 487.6 C 668.4 573.9 598.4 643.8 512.1 643.8 425.8 643.8 355.8 573.9 355.8 487.6 355.8 401.2 425.8 331.3 512.1 331.3 598.4 331.3 668.4 401.2 668.4 487.6 Z M486.6 641.4  M650.6 486.9 C 650.6 410.3 588.4 348.1 511.8 348.1 435.1 348.1 373 410.3 373 486.9 373 563.6 435.1 625.7 511.8 625.7 588.4 625.7 650.6 563.6 650.6 486.9 Z M535.9 624 "/>
  <path d="M351.7 299.5 C 351.7 316 338.3 329.4 321.7 329.4 305.2 329.4 291.8 316 291.8 299.5 291.8 283 305.2 269.5 321.7 269.5 338.3 269.5 351.7 283 351.7 299.5 Z M310.2 327.2  m 17.6 -17.8 c 2.9 -1.9 6.2 -7.2 6.2 -10 0 -3.2 -4.1 -8.7 -8.3 -10.9 l -3.7 -2 -4.4 2.4 c -8 4.2 -10 11.6 -4.8 17.5 4.9 5.4 9.7 6.4 15 3 z "/>
 </g>
 <g fill="#b9e0de">
  <path d="M 445.3 575.6 c -6.5 -1.6 -10.3 -4.1 -10.3 -6.6 0 -1.9 0.8 -2 22.5 -2 21.6 0 22.5 0.1 22.5 1.9 0 4.7 -5.9 7 -20 7.6 -6 0.3 -11.4 0 -14.7 -0.9 z "/>
  <path d="M 555.3 575.9 c -12.3 -1.6 -18.9 -6.5 -35.8 -26.9 -10.7 -12.9 -16.3 -18.7 -20.9 -21.7 l -4 -2.6 -2.3 2.8 c -1.3 1.5 -2.7 4 -3 5.6 -0.4 2 -1.2 2.9 -2.4 2.9 -1.8 0 -1.9 -1.1 -1.9 -20.5 0 -11.3 0.3 -20.5 0.8 -20.5 0.4 0 14.2 16.2 30.7 36 l 30 36 19.8 0 19.7 0 0 2.5 c 0 3.1 -3.6 5.1 -12.1 6.4 -7.1 1.2 -9.6 1.2 -18.6 0 z "/>
  <path d="M 529.6 468.8 l -7.6 -9.3 4.4 -0.3 c 3.4 -0.2 4.6 -0.8 5.1 -2.3 0.4 -1.3 1.5 -1.9 3.6 -1.9 l 2.9 0 0 11.5 c 0 6.3 -0.2 11.5 -0.4 11.5 -0.2 0 -3.8 -4.2 -8 -9.2 z "/>
 </g>
 <g fill="#c8f2f1">
  <path d="M989.8 500 C 989.8 770.5 770.5 989.8 500 989.8 229.5 989.8 10.2 770.5 10.2 500 10.2 229.5 229.5 10.2 500 10.2 770.5 10.2 989.8 229.5 989.8 500 Z M471.5 988.9  m -109.1 -172.3 c 4.3 -3.2 7.5 -9.5 7.6 -14.3 l 0 -3.3 130 0 130 0 0 3.3 c 0.1 6.6 5.3 14.3 11.3 16.6 1.8 0.7 17.1 1.1 43.3 1.1 38.4 0 40.7 -0.1 44.4 -2 5 -2.6 7.8 -6.6 9.3 -13.5 l 1.1 -5.5 19.1 0 c 16.2 0 20.2 -0.3 26.5 -2.1 11.4 -3.1 18.5 -7.4 27.6 -16.4 8.9 -8.7 13.8 -17 17.1 -28.6 1.7 -6.1 1.8 -17.9 1.8 -263.4 l 0 -257 -2.3 -7.5 c -5.4 -17.3 -17 -31 -32.5 -38.4 -5.1 -2.4 -11.3 -4.9 -13.9 -5.5 -3.4 -0.8 -82.9 -1.1 -283 -1.1 -309.8 0 -283 -0.6 -297.7 7 -4.2 2.2 -9.9 6 -12.8 8.5 -7.1 6.2 -14.7 17.9 -18 27.8 l -2.8 8.2 0 258 0 258 2.3 7.3 c 5.5 17.5 16.8 30.9 32.7 38.7 11.4 5.6 16.5 6.5 38.1 6.5 l 19.1 0 0.7 4.8 c 0.8 5.9 4.5 11.6 9.4 14.2 3.5 1.9 5.5 1.9 45.8 1.7 l 42.1 -0.2 3.7 -2.9 z "/>
  <path d="M 274.5 807.5 c -1.6 -1.5 -2.5 -3.6 -2.5 -5.5 l 0 -3 43.5 0 43.5 0 0 3.4 c 0 2.5 -0.7 4 -2.6 5.5 -2.6 2 -3.7 2.1 -41.1 2.1 l -38.4 0 -2.4 -2.5 z "/>
  <path d="M 644.2 808.4 c -2.7 -1.9 -4.4 -5.7 -3.6 -7.9 0.5 -1.3 6.2 -1.5 44 -1.5 l 43.4 0 0 3 c 0 1.9 -0.9 4 -2.5 5.5 l -2.4 2.5 -38.3 0 c -33.6 0 -38.6 -0.2 -40.6 -1.6 z "/>
  <path d="M 219.5 776.6 c -15.4 -4.9 -26.5 -17.4 -29.4 -33.2 -0.8 -4 -1.1 -81.4 -1.1 -254.8 0 -271.5 -0.3 -257.4 5.6 -267.4 6.6 -11.2 18.5 -19.4 31 -21.2 3.3 -0.5 125.8 -0.8 278.4 -0.7 l 272.5 0.2 5.7 2.3 c 8.6 3.5 14.7 8.1 20 15 9.2 12 8.3 -15.9 8.6 266.2 0.1 147.1 -0.1 252.7 -0.7 257.2 -1.8 15.3 -10.2 27.3 -23.8 34 l -6.8 3.3 -278 0.2 c -222.6 0.1 -278.8 -0.1 -282 -1.1 z  m 369.3 -41.8 c 1.5 -1.5 1.5 -6.1 0 -7.6 -0.9 -0.9 -38.5 -1.2 -163 -1.2 l -161.8 0 0 -145.4 c 0 -139.4 -0.1 -145.5 -1.8 -147.6 -2.3 -2.9 -6.8 -2.1 -8.2 1.4 -0.4 1.3 -0.8 31.7 -0.9 67.7 l 0 65.4 -9 0.3 c -8.3 0.2 -9.2 0.5 -10.6 2.6 -1.4 2 -1.5 8.2 -1.3 45.9 0.2 34.1 0.6 43.9 1.6 44.9 0.9 0.9 4.3 1.3 10.4 1.3 l 9 0 0.2 35.1 c 0.1 28.1 0.4 35.4 1.5 36.7 1.2 1.6 14.1 1.7 167 1.7 127.5 0 166 -0.3 166.9 -1.2 z  m 42 0 c 0.7 -0.7 1.2 -2.4 1.2 -3.8 0 -4.5 -1.4 -5 -15.1 -5 -10.3 0 -13.1 0.3 -14.3 1.6 -1.9 1.8 -2 3.8 -0.6 6.5 1 1.7 2.2 1.9 14.3 1.9 9 0 13.7 -0.4 14.5 -1.2 z  m 105.6 -1.6 c 6.7 -3.1 12.7 -8.2 16.4 -13.9 6.6 -10.3 6.2 5.2 6.2 -230.3 0 -187.3 -0.2 -214.3 -1.5 -219.4 -4.1 -15.8 -16 -25.7 -33.3 -27.7 -4.5 -0.6 -104 -0.8 -237.4 -0.7 -219 0.3 -229.8 0.4 -231.5 2.1 -1.6 1.6 -1.8 4.3 -1.9 31.5 l 0 29.7 -9 0.3 c -13.5 0.4 -12.4 -3.7 -12.4 47.2 0 39.5 0.1 42.9 1.8 45 1.5 1.9 2.9 2.2 11.7 2.5 10.9 0.4 17 -0.6 17.9 -3.1 0.3 -0.9 0.6 -33.7 0.6 -73 l 0 -71.4 231 0 c 228.2 0 231 0 236.3 2 6.2 2.3 11.7 7.6 14.6 14 2 4.5 2.1 5.5 2.1 221 l 0 216.5 -2.4 5 c -1.2 2.8 -4 6.5 -6.1 8.4 -7.6 6.6 -7.3 6.6 -47 6.9 -23.5 0.2 -36.4 0.7 -37.2 1.4 -1.7 1.3 -1.7 6 -0.1 7.6 1 1 9.9 1.2 38.8 1 36.6 -0.3 37.6 -0.4 42.4 -2.6 z  M716.5 678.3 C 716.5 663.9 704.8 652.2 690.4 652.2 675.9 652.2 664.2 663.9 664.2 678.3 664.2 692.8 675.9 704.5 690.4 704.5 704.8 704.5 716.5 692.8 716.5 678.3 Z M701.5 702.1  M664.6 487.5 C 664.6 403.3 596.3 335.1 512.1 335.1 427.9 335.1 359.6 403.3 359.6 487.5 359.6 571.7 427.9 640 512.1 640 596.3 640 664.6 571.7 664.6 487.5 Z M531 638.9  M348 299.5 C 348 285.1 336.3 273.4 321.8 273.4 307.4 273.4 295.7 285.1 295.7 299.5 295.7 313.9 307.4 325.6 321.8 325.6 336.3 325.6 348 313.9 348 299.5 Z M333.7 322.9 "/>
  <path d="M 243 614.9 l 0 -37 5.2 0.3 5.1 0.3 -0.1 34 c -0.1 18.7 -0.1 35.2 -0.2 36.8 0 2.6 -0.2 2.7 -5 2.7 l -5 0 0 -37.1 z "/>
  <path d="M 243 352.1 l 0 -37.1 5 0 c 4.1 0 5 0.3 5 1.8 0.1 0.9 0.2 17.5 0.2 36.7 l 0.2 35 -5.2 0.3 -5.2 0.3 0 -37 z "/>
  <path d="M705.9 678.4 C 705.9 686.9 699 693.9 690.4 693.9 681.8 693.9 674.8 686.9 674.8 678.4 674.8 669.8 681.8 662.8 690.4 662.8 699 662.8 705.9 669.8 705.9 678.4 Z M683.2 692.3 "/>
  <path d="M654.4 486.9 C 654.4 565.7 590.5 629.5 511.8 629.5 433 629.5 369.2 565.7 369.2 486.9 369.2 408.2 433 344.3 511.8 344.3 590.5 344.3 654.4 408.2 654.4 486.9 Z M496.5 628.8  m -25.3 -57.3 c 2.3 -0.7 4.6 -2.1 5 -2.9 0.6 -1 2.3 -1.6 4.8 -1.6 l 4 0 0.1 -17 c 0.2 -20.9 0.1 -20.2 1.4 -21.9 2.9 -3.9 6.5 -7.1 8 -7.1 5 0 13.8 7.9 28 25 11.1 13.4 19.9 21.8 25 24.1 5.9 2.6 16.7 3.9 23.9 2.7 6.2 -0.9 11.6 -3.2 11.6 -4.8 0 -0.6 1.8 -1 4 -1 l 4 0 0 -80.5 0 -80.5 -26.5 0 -26.5 0 0 26 c 0 20.1 -0.3 26 -1.2 26 -0.7 0 -2.1 1.4 -3 3 -2.3 4 -4.7 4.9 -6.5 2.4 -0.8 -1 -1.7 -1.7 -2.1 -1.4 -0.7 0.4 -45.7 -52.2 -46.9 -54.7 -0.4 -1 -6 -1.3 -22.9 -1.3 l -22.4 0 0 80.5 c 0 80.4 0 80.5 2 80.5 1.2 0 3.4 1 5 2.1 6.3 4.7 21.2 5.9 31.2 2.4 z "/>
  <path d="M337.3 299.5 C 337.3 308 330.4 315 321.8 315 313.2 315 306.3 308 306.3 299.5 306.3 290.9 313.2 284 321.8 284 330.4 284 337.3 290.9 337.3 299.5 Z M314.1 312.8 "/>
 </g>
</svg>