<svg xmlns="http://www.w3.org/2000/svg" class="icon-denom" viewBox="0 0 500 500"><defs><linearGradient id="nstk_a" x1="36.513%" x2="51.386%" y1="52.298%" y2="47.554%"><stop offset="0%" stop-color="#571614"></stop><stop offset="100%" stop-color="#E53935"></stop></linearGradient><linearGradient id="nstk_b" x1="20.355%" x2="109.885%" y1="31.489%" y2="31.489%"><stop offset="0%" stop-color="#FFF" stop-opacity=".35"></stop><stop offset="100%" stop-color="#FFF" stop-opacity=".85"></stop></linearGradient></defs><g fill="none" fill-rule="evenodd"><path fill="url(#nstk_a)" d="M172.426.221c-18.127-.283-27.42-.244-32.075-.158-4.654-.086-13.95-.125-32.075.158-31.913.496-76.363 50.094-91.181 62.494C2.279 75.115 0 83.547 0 121.737c0 38.191 6.269 123.004 20.827 170.67 37.433 122.55 77.19 166.602 94.856 189.912 8.501 11.216 15.543 15.534 20.569 17.006.577.244 1.982.715 4.099.67 2.115.045 3.52-.426 4.097-.67 5.026-1.472 12.07-5.79 20.569-17.006 17.666-23.31 57.422-67.361 94.856-189.912 14.56-47.666 20.829-132.479 20.829-170.67 0-38.19-2.28-46.622-17.097-59.022C248.788 50.315 204.337.717 172.425.22Z" transform="translate(110)"></path><path fill="url(#nstk_b)" d="M174.137 447.368c51.654-90.464 81.259-187.706 88.816-291.725 4.43-30.186.928-70.304-6.303-77.086-7.23-6.782-53.07-54.954-63.774-56.841-24.028-4.236-23.491 12.4-29.078 33.113-5.586 20.713-19.854 46.422-12.72 59.575 7.134 13.152 22.585 146.074 14.86 191.799-5.151 30.483-2.418 77.538 8.199 141.165Z" transform="translate(110)"></path></g></svg>