<svg
    xmlns="http://www.w3.org/2000/svg"
    viewBox="0 0 182 182"
    fill="none"
>
    <circle cx="91" cy="91" r="91" fill="#00FDDC" fill-rule="evenodd" />
    <g style="transform-origin: center; transform: scale(0.75); width: 100%; height: 100%;">
        <path
            fill="#0B0D17"
            d="M160.087 140.134a8.542 8.542 0 0 0 8.542-8.542 8.542 8.542 0 1 0-8.542 8.542Z"
        ></path>
        <path
            fill="#0B0D17"
            d="M132.932 140.134a8.542 8.542 0 0 0 8.542-8.542 8.542 8.542 0 1 0-17.085 0 8.542 8.542 0 0 0 8.543 8.542ZM104.912 181.19a8.542 8.542 0 1 0 0-17.085 8.542 8.542 0 0 0-8.542 8.543 8.542 8.542 0 0 0 8.542 8.542Z"
        ></path>
        <path
            fill="#0B0D17"
            d="M90.939 160.658a8.543 8.543 0 1 0-.001-17.085 8.543 8.543 0 0 0 0 17.085Z"
        ></path>
        <path
            fill="#0B0D17"
            d="M132.859 140.134a8.542 8.542 0 0 0 8.542-8.542 8.542 8.542 0 1 0-8.542 8.542Z"
        ></path>
        <path
            fill="#0B0D17"
            d="M76.965 140.134a8.543 8.543 0 1 0 0-17.085 8.543 8.543 0 0 0 0 17.085Z"
        ></path>
        <path
            fill="#0B0D17"
            d="M104.912 140.134a8.542 8.542 0 1 0 0-17.085 8.542 8.542 0 0 0-8.542 8.543 8.542 8.542 0 0 0 8.542 8.542Z"
        ></path>
        <path
            fill="#0B0D17"
            d="M49.665 167.262a8.543 8.543 0 1 0 0-17.085 8.543 8.543 0 0 0 0 17.085Z"
        ></path>
        <path
            fill="#0B0D17"
            d="M49.665 140.116a8.543 8.543 0 1 0 0-17.085 8.543 8.543 0 0 0 0 17.085ZM8.609 112.087a8.542 8.542 0 1 0 0-17.084 8.542 8.542 0 0 0 0 17.084Z"
        ></path>
        <path
            fill="#0B0D17"
            d="M29.132 98.123a8.542 8.542 0 1 0 0-17.085 8.542 8.542 0 0 0 0 17.085Z"
        ></path>
        <path
            fill="#0B0D17"
            d="M49.665 140.034a8.543 8.543 0 1 0 0-17.085 8.543 8.543 0 0 0 0 17.085Z"
        ></path>
        <path
            fill="#0B0D17"
            d="M49.665 84.15a8.542 8.542 0 1 0 0-17.085 8.542 8.542 0 0 0 0 17.085Z"
        ></path>
        <path
            fill="#0B0D17"
            d="M49.665 112.087a8.542 8.542 0 1 0 0-17.084 8.542 8.542 0 0 0 0 17.084Z"
        ></path>
        <path
            fill="#0B0D17"
            d="M22.573 58.14a8.542 8.542 0 1 0 0-17.084 8.542 8.542 0 0 0 0 17.085Z"
        ></path>
        <path
            fill="#0B0D17"
            d="M49.728 58.14a8.542 8.542 0 1 0 0-17.084 8.542 8.542 0 0 0 0 17.085ZM77.748 17.085a8.542 8.542 0 1 0 0-17.085 8.542 8.542 0 0 0 0 17.085Z"
        ></path>
        <path
            fill="#0B0D17"
            d="M91.721 37.608a8.542 8.542 0 0 0 8.542-8.542 8.542 8.542 0 1 0-17.084 0 8.542 8.542 0 0 0 8.542 8.542Z"
        ></path>
        <path
            fill="#0B0D17"
            d="M49.801 58.14a8.542 8.542 0 1 0 0-17.084 8.542 8.542 0 0 0 0 17.085Z"
        ></path>
        <path
            fill="#0B0D17"
            d="M105.695 58.14a8.543 8.543 0 1 0-.001-17.085 8.543 8.543 0 0 0 .001 17.086Z"
        ></path>
        <path
            fill="#0B0D17"
            d="M77.748 58.14a8.542 8.542 0 1 0 0-17.084 8.542 8.542 0 0 0 0 17.085Z"
        ></path>
        <path
            fill="#0B0D17"
            d="M133.005 31.003a8.543 8.543 0 1 0-.001-17.085 8.543 8.543 0 0 0 .001 17.085Z"
        ></path>
        <path
            fill="#0B0D17"
            d="M133.005 58.15a8.543 8.543 0 1 0-.001-17.085 8.543 8.543 0 0 0 .001 17.085ZM174.051 86.178a8.543 8.543 0 1 0 0-17.085 8.543 8.543 0 0 0 0 17.085Z"
        ></path>
        <path
            fill="#0B0D17"
            d="M153.528 100.152a8.542 8.542 0 0 0 8.542-8.543 8.542 8.542 0 1 0-17.084 0 8.542 8.542 0 0 0 8.542 8.543Z"
        ></path>
        <path
            fill="#0B0D17"
            d="M133.005 58.231a8.543 8.543 0 1 0-.001-17.085 8.543 8.543 0 0 0 .001 17.085Z"
        ></path>
        <path
            fill="#0B0D17"
            d="M133.005 114.125a8.542 8.542 0 0 0 0-17.085 8.543 8.543 0 1 0 0 17.085Z"
        ></path>
        <path
            fill="#0B0D17"
            d="M133.005 86.178a8.543 8.543 0 1 0-.001-17.085 8.543 8.543 0 0 0 .001 17.085Z"
        ></path>
    </g>
</svg>