<svg
    xmlns="http://www.w3.org/2000/svg"
    height="100%"
    width="100%"
    viewBox="0 0 80 80"
    version="1.1"
>
    <circle cx="40" cy="40" r="40" fill="#00FDDC" fill-rule="evenodd" />
    <g stroke="none" stroke-width="1" fill="none" fill-rule="evenodd">
        <g id="Group" fill="#0B0D17" fill-rule="nonzero">
            <path
                d="m 63.5 25.3 l 0 -3.4 l -10.7 0 c -0.6 -2.2 -1.2 -4.1 -1.8 -5.9 l -3.6 0.6 c 0.6 1.6 1.2 3.4 1.8 5.3 l -11.3 0 l 0 3.4 l 25.6 0 z m -27.5 25.2 l 0 -21.7 l -5.3 0 c 1.1 -1.6 2.2 -3.6 3.3 -6 l 0 -2.5 l -8.6 0 c 0.5 -1 0.9 -2.1 1.3 -3.2 l -3.4 -1 c -1.5 5.1 -4 9.2 -7.3 12.4 l 0.8 3.7 c 0.7 -0.6 1.3 -1.2 2 -1.9 l 0 20.2 l 17.2 0 z m -8.9 -21.7 l -7 0 c 1.3 -1.6 2.7 -3.5 3.8 -5.5 l 6.6 0 c -1.1 2.1 -2.2 4 -3.4 5.5 z m 21.6 35.2 c 2.6 0 4 -1.5 4 -4.3 l 0 -14.9 l 8.3 0 l 0 -14.8 l -20.4 0 l 0 14.8 l 8.4 0 l 0 14 c 0 1.3 -0.5 2 -1.6 2 c -1.2 0 -2.4 -0.1 -3.7 -0.3 l 0.8 3.5 l 4.2 0 z m -22.8 -25.9 l -3.9 0 l 0 -6.2 l 3.9 0 l 0 6.2 z m 6.9 0 l -3.9 0 l 0 -6.2 l 3.9 0 l 0 6.2 z m 24.6 3.4 l -13.2 0 l 0 -8.2 l 13.2 0 l 0 8.2 z m -24.6 5.9 l -3.9 0 l 0 -6.3 l 3.9 0 l 0 6.3 z m -6.9 0 l -3.9 0 l 0 -6.3 l 3.9 0 l 0 6.3 z m 35.3 14.2 l 2.8 -1.9 c -1.4 -3.4 -3.4 -7.2 -6 -11.7 l -2.8 1.7 c 2.5 4.3 4.6 8.3 6 11.9 z m -21.9 0.9 c 2.3 -3.6 4.3 -7.9 5.9 -12.8 l -3 -1.5 c -1.6 4.7 -3.6 8.8 -5.8 12.3 l 2.9 2 z m -4.4 -3.6 l 2.6 -0.6 c -0.7 -2.5 -1.5 -4.7 -2.3 -6.6 l -2.5 0.8 c 0.9 2.1 1.6 4.2 2.2 6.4 z m -5.5 3.1 l 2.7 -0.3 c -0.3 -4 -0.9 -7.1 -1.7 -9.4 l -2.7 0.3 c 0.9 2.2 1.4 5.3 1.7 9.4 z m -10 1.4 c 1.1 -3.1 1.7 -6.6 2 -10.6 l -2.8 -0.3 c -0.2 3.7 -1 7.1 -2.1 10 l 2.9 0.9 z m 4.4 -0.7 l 2.7 -0.3 c -0.1 -4.1 -0.4 -7.4 -0.8 -9.8 l -2.5 0.3 c 0.3 2.3 0.5 5.6 0.6 9.8 z"
                id="鯨"
            />
        </g>
    </g>
</svg>