<svg
  xmlns="http://www.w3.org/2000/svg"
  height="100%"
  width="100%"
  viewBox="0 0 400 400"
  version="1.1"
>
  <circle cx="200" cy="200" r="200" fill="#00FDDC" fill-rule="evenodd" />
  <path
    d="m 170 86.75 c -7.6 3.68 -13.92 8.64 -21.84 17.28 c -7.28 7.84 -12.96 12.16 -21.92 16.48 c -10.16 4.88 -19.04 3.6 -36.8 -5.36 c -16.88 -8.48 -22.88 -9.76 -26.48 -5.52 c -2.56 3.04 -3.28 7.76 -2.64 17.92 c 0.88 14.16 6.4 37.04 13.84 57.28 c 4.32 11.76 16.32 35.44 23.12 45.6 c 8.4 12.64 13.44 18.64 26 31.2 c 15.44 15.44 32 27.52 50.24 36.72 c 36.64 18.32 81.2 21.84 120.16 9.52 c 14.48 -4.56 28 -12.24 28 -15.92 c 0 -2.48 -2.96 -1.92 -15.52 2.8 c -16.48 6.16 -26.08 8.48 -35.52 8.4 c -5.76 0 -8.48 -0.4 -10.96 -1.52 c -6.64 -3.04 -9.12 -8.08 -7.52 -15.68 c 2.16 -10.4 8 -17.68 22.8 -28.32 c 3.92 -2.8 10.96 -8.24 15.6 -11.92 c 9.28 -7.52 35.44 -33.44 42.56 -42.16 c 8.4 -10.4 13.84 -22.96 15.92 -37.12 c 1.92 -13.12 -0.56 -25.76 -5.28 -26.96 c -3.12 -0.8 -11.6 1.92 -29.92 9.36 c -32 13.12 -39.44 15.04 -62.4 15.6 c -17.92 0.48 -26.88 -0.56 -37.52 -4.48 c -7.2 -2.64 -14.48 -7.12 -16.8 -10.4 c -4.72 -6.64 -5.04 -16.56 -1.2 -37.36 c 2.32 -12.4 2.24 -16.4 -0.16 -16.4 c -0.72 0 -4.08 2.72 -7.52 6 c -3.36 3.28 -6.72 6 -7.52 6 c -4.16 0 -10.88 -5.12 -10.88 -8.24 c 0 -0.96 2.4 -4.08 5.6 -7.36 c 3.12 -3.2 5.6 -6.32 5.6 -7.04 c 0 -2.16 -4.72 -1.52 -10.8 1.44"
    stroke="none"
    fill="#0B0D17"
    fill-rule="evenodd"
  />
</svg>