<?xml version="1.0" encoding="UTF-8"?>
<svg width="100px" height="100px" viewBox="0 0 100 100" version="1.1" xmlns="http://www.w3.org/2000/svg" xmlns:xlink="http://www.w3.org/1999/xlink">
    <title>rkuji</title>
    <defs>
        <linearGradient x1="50%" y1="0%" x2="50%" y2="100%" id="linearGradient-1">
            <stop stop-color="#E81891" offset="0.0355113636%"></stop>
            <stop stop-color="#5D3C8F" offset="100%"></stop>
        </linearGradient>
    </defs>
    <g id="rkuji" stroke="none" stroke-width="1" fill="none" fill-rule="evenodd">
        <circle id="Oval" fill="url(#linearGradient-1)" cx="50" cy="50" r="50"></circle>
        <path d="M30.1431082,18 L34.2624606,20.8870256 L29.881,27.149 L42.6196502,27.1495573 L42.6196502,32.1829328 L42.614,32.182 L39.974,35.957 L48.905651,35.9579644 L48.905651,62.3831858 L21.2472474,62.3831858 L21.247,39.491 L19.1193523,42.5332997 L15,39.6462741 L30.1431082,18 Z M32.562,51.058 L26.276,51.058 L26.276,57.349 L32.562,57.349 L32.562,51.058 Z M43.876,51.058 L37.59,51.058 L37.59,57.349 L43.876,57.349 L43.876,51.058 Z M32.562,40.991 L26.276,40.991 L26.276,47.283 L32.562,47.283 L32.562,40.991 Z M43.876,40.991 L37.59,40.991 L37.59,47.283 L43.876,47.283 L43.876,40.991 Z M36.475,32.182 L26.36,32.182 L23.719,35.957 L33.834,35.957 L36.475,32.182 Z M57.7060522,80 L57.7060522,74.9666245 L63.992,74.966 L63.992,57.349 L53.9344517,57.3498103 L53.9344517,35.9579644 L79.0784551,35.9579644 L79.0784551,57.3498103 L69.02,57.349 L69.0208537,80 L57.7060522,80 Z M76.0928953,61.1248419 L83,75.950651 L78.4423588,78.0778474 L71.5352541,63.2520383 L76.0928953,61.1248419 Z M56.2018931,61.1248419 L60.7595343,63.2520383 L55.9776926,73.51606 L51.4200514,71.3888636 L56.2018931,61.1248419 Z M74.049,40.991 L58.963,40.991 L58.963,52.316 L74.049,52.316 L74.049,40.991 Z M62.150926,19.2309337 L70.062,27.149 L79.0784551,27.1495573 L79.0784551,32.1829328 L53.9344517,32.1829328 L53.9344517,27.1495573 L62.95,27.149 L58.595027,22.7900676 L62.150926,19.2309337 Z M21.2472474,66.1582174 L26.276048,66.1582174 L26.276048,77.4833123 L21.2472474,77.4833123 Z M28.7904484,66.1582174 L33.819249,66.1582174 L33.819249,77.4833123 L28.7904484,77.4833123 Z M36.3336494,66.1582174 L41.36245,66.1582174 L41.36245,77.4833123 L36.3336494,77.4833123 Z M43.8768504,66.1582174 L48.905651,66.1582174 L48.905651,71.1915929 L43.8768504,71.1915929 Z" id="Combined-Shape" fill="#FFFFFF"></path>
    </g>
</svg>