<?xml version="1.0" encoding="UTF-8"?>
<svg width="100px" height="100px" viewBox="0 0 100 100" version="1.1" xmlns="http://www.w3.org/2000/svg" xmlns:xlink="http://www.w3.org/1999/xlink">
    <title>usk copy</title>
    <defs>
        <linearGradient x1="97.930916%" y1="2.06908405%" x2="4.14686793%" y2="95.8531321%" id="linearGradient-1">
            <stop stop-color="#282A2D" offset="0%"></stop>
            <stop stop-color="#354252" offset="100%"></stop>
        </linearGradient>
        <radialGradient cx="50%" cy="119.460446%" fx="50%" fy="119.460446%" r="121.762496%" gradientTransform="translate(0.5, 1.1946), scale(1, 0.9011), rotate(-91.4426), scale(1, 1.0125), translate(-0.5, -1.1946)" id="radialGradient-2">
            <stop stop-color="#1E89DD" offset="0%"></stop>
            <stop stop-color="#60FBD0" offset="100%"></stop>
        </radialGradient>
        <path d="M43.5902137,51.0762778 L43.5902137,51.5841332 C43.5902137,58.8624125 43.5902137,66.140832 43.5902137,73.4191113 C43.5902137,73.9914295 43.589513,73.9925506 43.0107485,73.9926907 C40.9580262,73.9931111 38.905304,73.9933914 36.8525817,73.9924105 C36.3756966,73.9922703 36.3598611,73.9764349 36.3598611,73.5006708 C36.3591604,68.9750965 36.3595809,64.4493821 36.3591604,59.9238078 C36.3590203,59.380638 36.333095,59.3625604 35.8091239,59.4757908 C32.8476153,60.1153747 29.8519132,60.4383897 26.8220178,60.4595504 C26.4917156,60.4617926 26.4055316,60.3487023 26.4070731,60.0338151 C26.4180037,57.9110245 26.4178636,55.7882339 26.4073534,53.6653032 C26.4058119,53.3518174 26.4977415,53.2329815 26.8232791,53.2298985 C30.0570733,53.1987882 33.245183,52.7873468 36.3497713,51.8847264 C37.9687705,51.4140073 39.5394225,50.7763853 41.1305345,50.2106535 C41.2336751,50.1739377 41.3256048,50.1065319 41.5002151,50.0110989 C41.3142537,49.9072576 41.2053675,49.8329851 41.0865316,49.7819754 C38.5707977,48.7026426 35.9687396,47.9142336 33.2755927,47.4125442 C31.1484579,47.0165179 29.0052073,46.8171034 26.8458411,46.7745019 C26.5114749,46.7679154 26.4046908,46.6681381 26.4066262,46.3323706 C26.4189847,44.20958 26.4175833,42.0867894 26.4079139,39.9638587 C26.4066262,39.6481307 26.5078314,39.5271928 26.831407,39.5351806 C28.8611468,39.5854896 30.8859819,39.6988602 32.8928794,40.0199134 C33.9392801,40.1872366 34.9804957,40.3873518 36.0217113,40.5846642 C36.3068895,40.638757 36.3630843,40.5173986 36.3619632,40.2687961 C36.3560774,38.8342168 36.3593006,37.3994974 36.3594407,35.9647779 C36.3594407,32.8154861 36.3591604,29.6661942 36.359721,26.5170425 C36.3598611,26.0108688 36.3615428,26.0097477 36.8653342,26.0096076 C38.9530906,26.0093273 41.0407069,26.009047 43.1284633,26.0097477 C43.5876912,26.010028 43.5897933,26.0118498 43.5897933,26.4824288 C43.5902137,31.8245796 43.593577,37.1667303 43.582366,42.508741 C43.5816653,42.85628 43.704285,43.0128127 44.0095027,43.1609371 C45.5298456,43.8983364 47.0410797,44.6553548 48.5419436,45.4312917 C48.8323069,45.5813781 49.0212111,45.591608 49.2842477,45.3835051 C55.5375672,40.4345778 59.8201445,34.1487466 62.0961045,26.50415 C62.2107363,26.1193346 62.3735752,25.9964347 62.7714232,26 C64.9173364,26.0198376 67.0633896,26.009047 69.2094429,26.010028 C69.6760981,26.0101681 69.7192602,26.0648214 69.6071509,26.5156412 C67.3234833,35.7004801 62.6063422,43.4000103 55.4939847,49.6369339 C55.0713325,50.0075954 55.069791,50.0057737 55.5007113,50.3821808 C61.6378575,55.7443712 66.0267985,62.2764226 68.6030715,70.0128087 C68.9855045,71.1616493 69.2810528,72.3396383 69.6064502,73.5071171 C69.7245854,73.9303299 69.6672695,73.9917098 69.2156089,73.9919901 C67.0345215,73.9936717 64.8535742,73.9863846 62.6724867,74 C62.3389614,74.0019398 62.208354,73.8737147 62.1158638,73.5687772 C59.1131549,63.6737255 53.0735438,56.231206 44.0396321,51.21179 C43.9484031,51.1612007 43.8524094,51.1181787 43.7559954,51.0780996 C43.726847,51.0660479 43.6885896,51.0762778 43.5902137,51.0762778" id="path-3"></path>
        <filter x="-10.4%" y="-9.4%" width="120.9%" height="118.7%" filterUnits="objectBoundingBox" id="filter-4">
            <feMorphology radius="1.5" operator="dilate" in="SourceAlpha" result="shadowSpreadOuter1"></feMorphology>
            <feOffset dx="0" dy="0" in="shadowSpreadOuter1" result="shadowOffsetOuter1"></feOffset>
            <feColorMatrix values="0 0 0 0 0.121568627   0 0 0 0 0.160784314   0 0 0 0 0.215686275  0 0 0 0.25 0" type="matrix" in="shadowOffsetOuter1"></feColorMatrix>
        </filter>
    </defs>
    <g id="usk-copy" stroke="none" stroke-width="1" fill="none" fill-rule="evenodd">
        <circle id="Oval-Copy" fill="url(#linearGradient-1)" cx="50" cy="50" r="50"></circle>
        <g id="Fill-1" fill-rule="nonzero">
            <use fill="black" fill-opacity="1" filter="url(#filter-4)" xlink:href="#path-3"></use>
            <use fill="url(#radialGradient-2)" xlink:href="#path-3"></use>
        </g>
    </g>
</svg>