<?xml version="1.0" encoding="UTF-8"?>
<svg width="100px" height="100px" viewBox="0 0 100 100" version="1.1" xmlns="http://www.w3.org/2000/svg" xmlns:xlink="http://www.w3.org/1999/xlink">
    <title>usk</title>
    <defs>
        <linearGradient x1="97.930916%" y1="2.06908405%" x2="4.14686793%" y2="95.8531321%" id="linearGradient-1">
            <stop stop-color="#282A2D" offset="0%"></stop>
            <stop stop-color="#354252" offset="100%"></stop>
        </linearGradient>
        <radialGradient cx="50%" cy="119.460446%" fx="50%" fy="119.460446%" r="121.762496%" gradientTransform="translate(0.500000,1.194604),scale(1.000000,0.901104),rotate(-91.442649),scale(1.000000,1.012515),translate(-0.500000,-1.194604)" id="radialGradient-2">
            <stop stop-color="#1E89DD" offset="0%"></stop>
            <stop stop-color="#60FBD0" offset="100%"></stop>
        </radialGradient>
    </defs>
    <g id="usk" stroke="none" stroke-width="1" fill="none" fill-rule="evenodd">
        <circle id="Oval-Copy" fill="url(#linearGradient-1)" cx="50" cy="50" r="50"></circle>
        <path d="M43.4794843,51.3453473 L43.4794843,51.9801665 C43.4794843,61.0780156 43.4794843,70.1760399 43.4794843,79.2738891 C43.4794843,79.9892869 43.4786085,79.9906883 42.7551528,79.9908634 C40.18925,79.9913889 37.6233472,79.9917393 35.0574444,79.9905131 C34.461338,79.9903379 34.4415436,79.9705436 34.4415436,79.3758385 C34.4406678,73.7188707 34.4411933,68.0617276 34.4406678,62.4047598 C34.4404926,61.7257975 34.408086,61.7032005 33.7531222,61.8447385 C30.0512363,62.6442183 26.3066088,63.0479872 22.5192395,63.074438 C22.1063618,63.0772407 21.9986317,62.9358778 22.0005586,62.5422689 C22.0142219,59.8887807 22.0140467,57.2352924 22.0009089,54.581629 C21.998982,54.1897718 22.1138941,54.0412269 22.5208161,54.0373731 C26.5630589,53.9984852 30.548196,53.4841836 34.4289313,52.355908 C36.4526803,51.7675091 38.4159954,50.9704817 40.4048853,50.2633169 C40.5338111,50.2174221 40.6487232,50.1331649 40.8669861,50.0138736 C40.6345343,49.884072 40.4984266,49.7912314 40.3498817,49.7274692 C37.2052144,48.3783032 33.9526418,47.3927919 30.5862081,46.7656803 C27.9272896,46.2706474 25.2482264,46.0213793 22.5490186,45.9681273 C22.1310609,45.9598943 21.9975807,45.8351726 22,45.4154632 C22.0154481,42.761975 22.0136964,40.1084868 22.0016096,37.4548234 C22,37.0601634 22.1265064,36.9089909 22.530976,36.9189757 C25.0681507,36.981862 27.5991946,37.1235753 30.1078165,37.5248917 C31.4158173,37.7340457 32.7173368,37.9841897 34.0188564,38.2308303 C34.3753291,38.2984462 34.4455726,38.1467483 34.4441712,37.8359952 C34.436814,36.042771 34.440843,34.2493717 34.4410181,32.4559724 C34.4410181,28.5193576 34.4406678,24.5827428 34.4413685,20.6463032 C34.4415436,20.013586 34.4436457,20.0121846 35.0733849,20.0120095 C37.6830805,20.0116591 40.2926008,20.0113088 42.9022963,20.0121846 C43.4763313,20.012535 43.4789588,20.0148122 43.4789588,20.603036 C43.4794843,27.2807244 43.4836884,33.9584129 43.4696748,40.6359262 C43.4687989,41.07035 43.6220734,41.2660158 44.0035956,41.4511714 C45.9040243,42.3729205 47.7930668,43.3191935 49.6691468,44.2891146 C50.0321008,44.4767226 50.2682311,44.4895101 50.5970269,44.2293813 C58.4136763,38.0432223 63.7668979,30.1859332 66.6118479,20.6301874 C66.7551376,20.1491683 66.9586862,19.9955434 67.4559963,20 C70.1383877,20.0247969 72.8209543,20.0113088 75.5035209,20.012535 C76.0868399,20.0127102 76.1407925,20.0810268 76.0006558,20.6445515 C73.1460714,32.1256002 67.249645,41.7500129 58.3591982,49.5461674 C57.8308828,50.0094943 57.828956,50.0072171 58.3676064,50.477726 C66.0390391,57.1804639 71.5252154,65.3455282 74.7455566,75.0160109 C75.2235979,76.4520616 75.5930332,77.9245479 75.9997799,79.3838964 C76.147449,79.9129124 76.0758041,79.9896372 75.5112284,79.9899876 C72.7848691,79.9920896 70.0586849,79.9829807 67.3323256,80 C66.915419,80.0024247 66.7521597,79.8421434 66.636547,79.4609716 C62.8831609,67.0921569 55.333647,57.7890075 44.0412573,51.5147375 C43.9272211,51.4515009 43.807229,51.3977234 43.6867115,51.3476245 C43.6502759,51.3325598 43.6024543,51.3453473 43.4794843,51.3453473" id="Fill-1" fill="url(#radialGradient-2)" fill-rule="nonzero"></path>
    </g>
</svg>