<?xml version="1.0" encoding="utf-8"?>
<!-- Generator: Adobe Illustrator 27.3.1, SVG Export Plug-In . SVG Version: 6.00 Build 0)  -->
<svg version="1.1" id="Layer_1" xmlns="http://www.w3.org/2000/svg" xmlns:xlink="http://www.w3.org/1999/xlink" x="0px" y="0px"
	 viewBox="0 0 2000 2000" style="enable-background:new 0 0 2000 2000;" xml:space="preserve">
<style type="text/css">
	.st0{fill:url(#SVGID_1_);}
	.st1{fill:#FFFFFF;}
</style>
<linearGradient id="SVGID_1_" gradientUnits="userSpaceOnUse" x1="719.4275" y1="1000" x2="1254.5725" y2="1000">
	<stop  offset="0" style="stop-color:#FF8BE2"/>
	<stop  offset="0.1712" style="stop-color:#FF86CC"/>
	<stop  offset="0.5269" style="stop-color:#FF7A95"/>
	<stop  offset="1" style="stop-color:#FF6742"/>
</linearGradient>
<circle class="st0" cx="987" cy="1000" r="267.6"/>
<path class="st1" d="M983.8,1168.8c-53.1,0-89.9-24.7-92.2-26.2c-9.7-6.7-12.2-20-5.5-29.7c6.7-9.7,19.9-12.2,29.6-5.6
	c2.8,1.9,64,41.6,137.7-0.8c10.2-5.9,23.3-2.4,29.2,7.8c5.9,10.2,2.4,23.3-7.8,29.2C1041.9,1162.4,1010.8,1168.8,983.8,1168.8z
	 M903.8,942.8c-19.1,0-34.6,24-34.6,53.6s15.5,53.6,34.6,53.6c19.1,0,34.6-24,34.6-53.6S922.9,942.8,903.8,942.8z M1050.2,1036.9
	c35-16.7,64.2-1.5,65.7-0.6c10.2,5.7,23.2,2.1,29-8.1c5.8-10.3,2.2-23.3-8-29.1c-2-1.1-49.3-27.3-105.1-0.7
	c-10.7,5.1-15.2,17.8-10.1,28.5c3.7,7.7,11.3,12.2,19.3,12.2C1044.1,1039,1047.3,1038.3,1050.2,1036.9z M839.6,922.6
	c12.8-36.5,44.2-46.5,45.9-47c11.3-3.2,17.8-15,14.7-26.3c-3.2-11.4-15-18-26.3-14.9c-2.2,0.6-54.1,15.7-74.6,74
	c-3.9,11.1,1.9,23.3,13.1,27.3c2.3,0.8,4.7,1.2,7.1,1.2C828.3,936.9,836.5,931.4,839.6,922.6z M1191.2,986.7
	c9.9-6.4,12.8-19.6,6.4-29.6c-1.2-1.9-31.1-47-92.8-49.2c-11.8-0.3-21.7,8.8-22.1,20.6c-0.4,11.8,8.8,21.7,20.6,22.1
	c38.7,1.4,57.5,28.4,58.5,29.9c4.1,6.2,10.9,9.6,17.9,9.6C1183.6,990.2,1187.6,989,1191.2,986.7z"/>
</svg>
