<?xml version="1.0" encoding="utf-8"?>
<!-- Generator: Adobe Illustrator 27.4.0, SVG Export Plug-In . SVG Version: 6.00 Build 0)  -->
<svg version="1.1" id="Layer_1" xmlns="http://www.w3.org/2000/svg" xmlns:xlink="http://www.w3.org/1999/xlink" x="0px" y="0px"
	 viewBox="0 0 1000 1000" style="enable-background:new 0 0 1000 1000;" xml:space="preserve">
<style type="text/css">
	.st0{fill:url(#SVGID_1_);}
	.st1{fill:#FFFFFF;}
</style>
<linearGradient id="SVGID_1_" gradientUnits="userSpaceOnUse" x1="-0.5" y1="502.4167" x2="1000.3333" y2="502.4167" gradientTransform="matrix(1 0 0 -1 0 1002)">
	<stop  offset="0" style="stop-color:#FF8BE2"/>
	<stop  offset="0.1712" style="stop-color:#FF86CC"/>
	<stop  offset="0.5269" style="stop-color:#FF7A95"/>
	<stop  offset="1" style="stop-color:#FF6742"/>
</linearGradient>
<circle class="st0" cx="499.9" cy="499.6" r="500.4"/>
<path class="st1" d="M493.9,815.2c-99.3,0-168.1-46.2-172.4-49c-18.1-12.5-22.8-37.4-10.3-55.5c12.5-18.1,37.2-22.8,55.4-10.5
	c5.2,3.6,119.7,77.8,257.5-1.5c19.1-11,43.6-4.5,54.6,14.6c11,19.1,4.5,43.6-14.6,54.6C602.6,803.3,544.4,815.2,493.9,815.2z
	 M344.3,392.6c-35.7,0-64.7,44.9-64.7,100.2c0,55.4,29,100.2,64.7,100.2S409,548.2,409,492.9S380,392.6,344.3,392.6z M618.1,568.6
	c65.5-31.2,120.1-2.8,122.9-1.1c19.1,10.7,43.4,3.9,54.2-15.1c10.8-19.3,4.1-43.6-15-54.4c-3.7-2.1-92.2-51.1-196.5-1.3
	c-20,9.5-28.4,33.3-18.9,53.3c6.9,14.4,21.1,22.8,36.1,22.8C606.7,572.5,612.7,571.2,618.1,568.6z M224.3,354.8
	c23.9-68.3,82.7-87,85.8-87.9c21.1-6,33.3-28.1,27.5-49.2c-6-21.3-28.1-33.7-49.2-27.9c-4.1,1.1-101.2,29.4-139.5,138.4
	c-7.3,20.8,3.6,43.6,24.5,51.1c4.3,1.5,8.8,2.2,13.3,2.2C203.1,381.6,218.5,371.3,224.3,354.8z M881.8,474.7
	c18.5-12,23.9-36.7,12-55.4c-2.2-3.6-58.2-87.9-173.5-92c-22.1-0.6-40.6,16.5-41.3,38.5s16.5,40.6,38.5,41.3
	c72.4,2.6,107.5,53.1,109.4,55.9c7.7,11.6,20.4,18,33.5,18C867.6,481.3,875,479,881.8,474.7z"/>
</svg>
