<svg width="24" height="24" viewBox="0 0 24 24" fill="none" xmlns="http://www.w3.org/2000/svg">
<circle cx="12" cy="12" r="12" fill="#FDE4F3"/>
<path d="M8.32138 1.39884C11.1209 0.446756 14.1829 0.635292 16.8444 1.92363C18.1625 2.56329 19.3404 3.45813 20.3101 4.55629C21.2797 5.65445 22.0217 6.9341 22.4931 8.32107C23.4493 11.1185 23.2652 14.1799 21.9807 16.8427C21.3375 18.1581 20.4414 19.334 19.3435 20.3031C18.2456 21.2721 16.9675 22.0154 15.5822 22.4904C14.1969 22.9679 12.7309 23.1674 11.2684 23.0773C9.80581 22.9873 8.3754 22.6095 7.05916 21.9656C5.7384 21.3279 4.55771 20.4338 3.5858 19.3355C2.61389 18.2372 1.87018 16.9566 1.39796 15.5682C0.445721 12.7691 0.634284 9.70768 1.92284 7.04658C3.23067 4.39657 5.52921 2.36775 8.32138 1.39884V1.39884ZM15.8197 3.9978C14.7761 3.48578 13.6417 3.1847 12.4815 3.1118C11.3213 3.0389 10.1582 3.19562 9.05871 3.57297C7.95806 3.95111 6.94309 4.54323 6.0723 5.31524C5.2015 6.08724 4.49208 7.02386 3.98488 8.07117C3.46982 9.11139 3.16698 10.2437 3.09403 11.4021C3.02108 12.5605 3.17946 13.7219 3.55996 14.8185C3.93443 15.9209 4.52528 16.9374 5.29782 17.8085C6.07037 18.6797 7.00909 19.3878 8.05894 19.8914C9.10103 20.4081 10.2357 20.7118 11.3966 20.7847C12.5575 20.8577 13.7213 20.6984 14.8199 20.3163C15.9188 19.9384 16.9325 19.3477 17.8031 18.578C18.6737 17.8084 19.3841 16.8748 19.8937 15.8306C20.4038 14.7863 20.7028 13.6517 20.7735 12.4918C20.8443 11.3318 20.6855 10.1693 20.3061 9.07077C19.5457 6.85404 17.9367 5.02955 15.8321 3.9978H15.8197Z" fill="#FF62C4"/>
<path d="M15.3554 9.01041L14.1155 9.84307L12.9375 10.6379C12.8596 10.5056 12.7554 10.3912 12.6315 10.3021C12.5077 10.2131 12.367 10.1513 12.2184 10.1206C11.811 10.02 11.3859 10.02 10.9785 10.1206C10.401 10.2299 9.88393 10.5536 9.52783 11.029C9.37123 11.2721 9.26705 11.5462 9.22217 11.8332C9.17729 12.1203 9.19273 12.4138 9.26746 12.6943C9.33982 13.0306 9.47907 13.3484 9.67663 13.6279C9.85227 13.8644 10.0881 14.0476 10.3586 14.1578C10.6095 14.2696 10.8785 14.3337 11.1521 14.347C11.4311 14.3583 11.7103 14.3329 11.9828 14.2713C12.4026 14.1886 12.7975 14.0072 13.1359 13.7414C13.2812 13.641 13.4038 13.5104 13.4958 13.3581C13.5877 13.2059 13.6468 13.0355 13.6691 12.8583V12.6817L10.4702 13.4008L10.7677 11.357L15.8389 10.2089L16.9176 15.2554L14.5866 15.7852L14.4378 15.1166C13.8117 15.8927 12.931 16.4125 11.958 16.58C10.7933 16.8944 9.55525 16.7549 8.48632 16.1889C7.97317 15.906 7.53008 15.5079 7.19065 15.0249C6.85122 14.5418 6.62435 13.9864 6.52728 13.4008C6.375 12.8192 6.3585 12.2094 6.47905 11.6202C6.59961 11.0309 6.85391 10.4785 7.22164 10.0071C8.06145 8.98398 9.2296 8.29583 10.5197 8.06421C11.4302 7.8575 12.3743 7.8575 13.2847 8.06421C14.0518 8.16408 14.7724 8.49339 15.3554 9.01041V9.01041Z" fill="#FF62C4"/>
<path d="M10.5997 5.59863L8.50879 6.06056L9.36299 9.80592L11.4539 9.35648L10.5997 5.59863Z" fill="#FF62C4"/>
<path d="M10.6064 15.0716L11.4274 18.4282L13.5515 17.9981L12.7436 14.6416L10.6064 15.0716Z" fill="#FF62C4"/>
<path d="M13.6873 4.66756C13.6609 4.67947 13.6385 4.69875 13.6227 4.7231C13.607 4.74745 13.5986 4.77583 13.5986 4.80482C13.5986 4.83381 13.607 4.86218 13.6227 4.88653C13.6385 4.91088 13.6609 4.93017 13.6873 4.94208L14.1567 5.1369C14.4995 5.26758 14.8109 5.46926 15.0703 5.7287C15.3298 5.98814 15.5314 6.29949 15.6621 6.64233C15.733 6.8283 15.8038 6.9877 15.8658 7.11167C15.8777 7.13811 15.897 7.16054 15.9213 7.17628C15.9457 7.19202 15.9741 7.20039 16.0031 7.20039C16.0321 7.20039 16.0604 7.19202 16.0848 7.17628C16.1091 7.16054 16.1284 7.13811 16.1403 7.11167C16.1935 6.9877 16.2643 6.8283 16.3351 6.64233C16.4687 6.30116 16.6714 5.99129 16.9305 5.73222C17.1895 5.47314 17.4994 5.27046 17.8406 5.1369L18.3099 4.94208C18.3364 4.93017 18.3588 4.91088 18.3745 4.88653C18.3903 4.86218 18.3986 4.83381 18.3986 4.80482C18.3986 4.77583 18.3903 4.74745 18.3745 4.7231C18.3588 4.69875 18.3364 4.67947 18.3099 4.66756C18.1859 4.60557 18.0265 4.53473 17.8406 4.46388C17.4977 4.3332 17.1864 4.13152 16.927 3.87208C16.6675 3.61264 16.4658 3.30129 16.3351 2.95845C16.2643 2.77248 16.1935 2.61308 16.1403 2.48911C16.1284 2.46267 16.1091 2.44024 16.0848 2.4245C16.0604 2.40876 16.0321 2.40039 16.0031 2.40039C15.9741 2.40039 15.9457 2.40876 15.9213 2.4245C15.897 2.44024 15.8777 2.46267 15.8658 2.48911C15.8038 2.61308 15.733 2.77248 15.6621 2.95845C15.5314 3.30129 15.3298 3.61264 15.0703 3.87208C14.8109 4.13152 14.4995 4.3332 14.1567 4.46388C13.9707 4.53473 13.8113 4.60557 13.6873 4.66756Z" fill="white"/>
</svg>
