<?xml version="1.0" encoding="utf-8"?>
<!-- Generator: Adobe Illustrator 26.0.3, SVG Export Plug-In . SVG Version: 6.00 Build 0)  -->
<svg version="1.1" id="Layer_1" xmlns="http://www.w3.org/2000/svg" xmlns:xlink="http://www.w3.org/1999/xlink" x="0px" y="0px"
	 viewBox="0 0 2496 2496" style="enable-background:new 0 0 2496 2496;" xml:space="preserve">
<style type="text/css">
	.st0{fill:#FDE4F3;}
	.st1{fill:#FF62C4;}
	.st2{fill:#FFFFFF;}
</style>
<g>
	<circle class="st0" cx="1248" cy="1248" r="1248"/>
	<path class="st1" d="M865.4,145.5c291.2-99,609.6-79.4,886.4,54.6c137.1,66.5,259.6,159.6,360.4,273.8
		c100.8,114.2,178,247.3,227,391.5c99.4,290.9,80.3,609.3-53.3,886.2c-66.9,136.8-160.1,259.1-274.3,359.9
		c-114.2,100.8-247.1,178.1-391.2,227.5c-144.1,49.7-296.5,70.4-448.6,61c-152.1-9.4-300.9-48.7-437.8-115.6
		c-137.4-66.3-260.2-159.3-361.2-273.5c-101.1-114.2-178.4-247.4-227.5-391.8C46.4,1328,66,1009.6,200,732.8
		C336,457.2,575,246.2,865.4,145.5L865.4,145.5z M1645.2,415.8c-108.5-53.3-226.5-84.6-347.2-92.1c-120.7-7.6-241.6,8.7-356,48
		c-114.5,39.3-220,100.9-310.6,181.2C541,633.1,467.2,730.5,414.4,839.4c-53.6,108.2-85.1,225.9-92.6,346.4
		c-7.6,120.5,8.9,241.3,48.5,355.3c38.9,114.6,100.4,220.4,180.7,311c80.3,90.6,178,164.2,287.2,216.6
		c108.4,53.7,226.4,85.3,347.1,92.9c120.7,7.6,241.8-9,356-48.7c114.3-39.3,219.7-100.7,310.3-180.8
		c90.5-80,164.4-177.1,217.4-285.7c53.1-108.6,84.1-226.6,91.5-347.2c7.4-120.6-9.2-241.5-48.6-355.8
		c-79.1-230.5-246.4-420.3-465.3-527.6H1645.2z"/>
	<path class="st1" d="M1759.4,1586.6l-242.4,55.1l-15.5-69.5c-37.9,47-84.8,85-137.4,111.9l45.2,187.8l-220.9,44.7l-43.1-176.1
		c-90.4,5.6-181.3-13.7-262.8-56.8c-53.4-29.4-99.5-70.8-134.8-121.1c-35.3-50.2-58.9-108-69-168.9c-15.8-60.5-17.6-123.9-5-185.2
		c12.5-61.3,39-118.7,77.2-167.8C804.2,976,870,924.1,943.7,888l-58.8-257.7l217.5-48l55.7,245.2c74.4-9.2,150-5.5,223.5,11.2
		c79.8,10.4,154.7,44.6,215.3,98.4l-128.9,86.6l-122.5,82.7c-8.1-13.8-18.9-25.7-31.8-34.9c-12.9-9.3-27.5-15.7-43-18.9
		c-42.4-10.5-86.6-10.5-128.9,0c-60.1,11.4-113.8,45-150.9,94.5c-16.3,25.3-27.1,53.8-31.8,83.6c-4.7,29.9-3.1,60.4,4.7,89.6
		c7.5,35,22,68,42.5,97.1c18.3,24.6,42.8,43.6,70.9,55.1c26.1,11.6,54.1,18.3,82.5,19.7c29,1.2,58-1.5,86.4-7.9
		c43.7-8.6,84.7-27.5,119.9-55.1c15.1-10.5,27.9-24,37.4-39.9c9.6-15.8,15.7-33.6,18-52v-18.4l-332.7,74.8l30.9-212.5l527.4-119.4
		L1759.4,1586.6z"/>
	<path class="st2" d="M1423.5,485.4c-2.7,1.2-5.1,3.2-6.7,5.8c-1.6,2.5-2.5,5.5-2.5,8.5c0,3,0.9,6,2.5,8.5c1.6,2.5,4,4.5,6.7,5.8
		l48.8,20.3c35.7,13.6,68,34.6,95,61.5c27,27,48,59.4,61.5,95c7.4,19.3,14.7,35.9,21.2,48.8c1.2,2.7,3.2,5.1,5.8,6.7
		c2.5,1.6,5.5,2.5,8.5,2.5c3,0,6-0.9,8.5-2.5c2.5-1.6,4.5-4,5.8-6.7c5.5-12.9,12.9-29.5,20.3-48.8c13.9-35.5,35-67.7,61.9-94.7
		c26.9-26.9,59.2-48,94.7-61.9l48.8-20.3c2.8-1.2,5.1-3.2,6.7-5.8c1.6-2.5,2.5-5.5,2.5-8.5c0-3-0.9-6-2.5-8.5
		c-1.6-2.5-4-4.5-6.7-5.8c-12.9-6.4-29.5-13.8-48.8-21.2c-35.7-13.6-68-34.6-95-61.5c-27-27-48-59.4-61.6-95
		c-7.4-19.3-14.7-35.9-20.3-48.8c-1.2-2.7-3.2-5.1-5.8-6.7c-2.5-1.6-5.5-2.5-8.5-2.5c-3,0-6,0.9-8.5,2.5c-2.5,1.6-4.5,4-5.8,6.7
		c-6.4,12.9-13.8,29.5-21.2,48.8c-13.6,35.7-34.6,68-61.5,95c-27,27-59.4,48-95,61.5C1453,471.6,1436.4,479,1423.5,485.4z"/>
</g>
</svg>
