<svg id="Capa_1" data-name="Capa 1" xmlns="http://www.w3.org/2000/svg" viewBox="0 0 429 263"><defs><style>.cls-1{fill:none;}.cls-2{fill:#f1d1e5;}.cls-3{fill:#191919;}.cls-4{fill:#fe7dcd;}</style></defs><path class="cls-1" d="M416.34,245.4H76.09v-3c0-16,.07-32,0-48,0-1.74.36-2.49,2.28-2.71,15.06-1.71,30.11-3.56,45.16-5.31q49.1-5.64,98.16-11.33,44.52-5.23,89.1-10.42,51.61-6.06,103.21-11.94c1.61-.18,2.2-.69,2.34-1.79Z"/><path class="cls-2" d="M416.34,148.93v2c-.14,1.1-.73,1.61-2.34,1.79q-51.6,5.88-103.21,11.94-44.58,5.19-89.1,10.42-49.06,5.69-98.16,11.33c-15,1.75-30.1,3.6-45.16,5.31-1.92.22-2.29,1-2.28,2.71.07,16,0,32,0,48v3a3.61,3.61,0,0,1-2.27-1.54l-6-6v-1.35c0-16,.06-32,0-48,0-1.74.37-2.49,2.28-2.7,15.06-1.71,30.11-3.57,45.16-5.32q49.1-5.64,98.16-11.33,44.52-5.24,89.1-10.42,51.6-6.06,103.2-11.93c2.06-.23,2.44-1,2.38-2.84-.26-6.91-.35-13.81-.51-20.74q-1.22-51.6-2.28-103.15c1.77-.21,3.54-.44,5.3-.68,2-.27,2.78.09,2.82,2.35q1.11,53.67,2.38,107.4C416,135.74,416.09,142.34,416.34,148.93Z"/><path class="cls-3" d="M416.34,150.89v-2l0,.91A5.84,5.84,0,0,1,416.34,150.89Z"/><path class="cls-4" d="M222,80.84a17.42,17.42,0,0,0-12.83,7.74,22.91,22.91,0,0,0-3.83,15.23c1.06,9.17,7.94,15.85,18,14.69a17.45,17.45,0,0,0,12.86-7.73h0a23,23,0,0,0,3.83-15.24C238.88,86.36,232,79.68,222,80.84Z"/><path class="cls-4" d="M113.19,98.82H113c-1.79,4.55-3.89,9.4-5.94,14.07l-3.27,7.51,15.79-1.86-2.34-6.88C115.82,107.47,114.46,103.11,113.19,98.82Z"/><path class="cls-4" d="M67.7,103.42a6,6,0,0,0-2.3-2c-2.1-1.08-5.05-1.23-8.78-.83l-5.78.67-1.12,16.32,7.79-.88c4.59-.53,7.2-1.65,9-3.58A8.21,8.21,0,0,0,68.36,110a8.13,8.13,0,0,0,.34-3.63A6.18,6.18,0,0,0,67.7,103.42Z"/><path class="cls-4" d="M361.44,70.15h-.17c-1.79,4.56-3.9,9.41-5.94,14.08l-3.27,7.47,15.79-1.84L365.51,83C364.08,78.8,362.72,74.44,361.44,70.15Z"/><path class="cls-4" d="M407.61,123.22q-1.22-51.6-2.28-103.15l-.09-4.25c0-1.73-.49-2.35-1.62-2.42h-.46a7.22,7.22,0,0,0-.75.07c-5.5.76-11,1.34-16.56,2l-94.63,11Q255.6,30.64,220,34.77c-18.07,2.12-36.16,4.14-54.23,6.25l-85.09,9.9c-20.9,2.44-41.82,4.91-62.75,7.28-1.92.21-2.54.8-2.54,2.7v.23q1.47,63.68,2.79,127.37a4.7,4.7,0,0,0,.38,1.92A4.77,4.77,0,0,0,19.63,192q23,23,45.94,45.94a3.61,3.61,0,0,0,2.27,1.55v-3c0-16,.06-32,0-48,0-1.74.37-2.49,2.28-2.7,15.06-1.71,30.11-3.57,45.16-5.32q49.1-5.64,98.16-11.33,44.52-5.24,89.1-10.42,51.6-6.06,103.2-11.93c2.06-.23,2.44-1,2.38-2.84C407.86,137.05,407.77,130.15,407.61,123.22ZM57.23,127.3l-8.25,1L47.5,149.72,34,151.28l4-60,17.41-2c8.16-1,14.25-.34,18.86,2.33a15.47,15.47,0,0,1,5.34,4.93,15.2,15.2,0,0,1,2.47,6.82,19.46,19.46,0,0,1-5.78,16C72.05,123.69,65.72,126.32,57.23,127.3ZM127,140.48l-4-12-23.86,2.76-5.78,13.16L79.16,146l28.26-62.78,13.16-1.52L141,138.87Zm59.6-6.82-39.82,4.61,4.08-60.06,13.5-1.56-3.26,48.5,26.32-3.05Zm60.7-16.87a32.54,32.54,0,0,1-23.24,13.37c-16,1.85-30.31-6.94-32.26-23.81a34.33,34.33,0,0,1,6.11-23.79,32.54,32.54,0,0,1,23.24-13.37c16-1.84,30.32,6.93,32.26,23.8A34.3,34.3,0,0,1,247.33,116.79Zm74.3,1.19-13.5,1.56,1.65-24c.35-5.22.76-10.61,1.22-15.59h-.18q-4.74,7-9.74,13.95l-9.41,13.21-7.35-10.74c-2.68-3.88-5.7-8.38-8.32-12.43h-.17c-.2,5-.47,10-.82,15.22l-1.65,24.43-13,1.49,4.08-60,12.31-1.42,16.11,23.21,19.46-27.33L325.71,58Zm53.66-6.21-4.05-12-23.86,2.76-5.78,13.16-14.19,1.65,28.27-62.78L368.84,53l20.38,57.15Z"/></svg>