<?xml version="1.0" encoding="utf-8"?>
<!-- Generator: Adobe Illustrator 26.0.3, SVG Export Plug-In . SVG Version: 6.00 Build 0)  -->
<svg version="1.1" id="Layer_1" xmlns="http://www.w3.org/2000/svg" xmlns:xlink="http://www.w3.org/1999/xlink" x="0px" y="0px"
	 viewBox="0 0 2246.6 2496" style="enable-background:new 0 0 2246.6 2496;" xml:space="preserve">
<style type="text/css">
	.st0{fill:#FF62C4;}
	.st1{fill:#FDE4F3;}
</style>
<g>
	<path class="st0" d="M2204.1,1757.8c-76.6,7.4-471.4,45.8-714.5,69.2l-528,50v571.9c0,18.3-10.8,35.2-27.4,42.8
		c-6.3,2.9-13,4.3-19.6,4.3c-11.1,0-22-3.9-30.7-11.3l-660.7-566.1c-10.1-8.7-16.1-21.3-16.5-34.6
		c-1.5-57.9-38.7-1485.8-39.1-1500.3c-0.7-24.6,18-45.8,42.6-48.2l1944.2-189.9c13-1.3,26,3,35.8,11.6c9.8,8.6,15.6,21.1,15.9,34.1
		c1.8,72.1,31.4,1174.4,40.5,1510.6l0.2,7.7C2247.3,1734.3,2228.6,1755.5,2204.1,1757.8z"/>
</g>
<g>
	<path class="st0" d="M2079.1,1564.3l-0.2-7.7c-9-336.1-38.6-1438.5-40.5-1510.6c-0.3-13-6.1-25.5-15.9-34.1
		c-9.8-8.6-22.8-12.9-35.8-11.6L42.6,190.2C18,192.5-0.7,213.7,0,238.3c0.4,14.4,37.6,1442.4,39.1,1500.3
		c0.3,13.3,6.3,25.9,16.5,34.6l660.7,566.1c8.7,7.5,19.7,11.3,30.7,11.3c6.7,0,13.4-1.4,19.7-4.3c16.7-7.7,27.4-24.5,27.4-42.8
		v-571.9l528-50c243.1-23.4,637.8-61.7,714.5-69.2C2061.1,1610.1,2079.8,1588.9,2079.1,1564.3z M1314.4,1600.7l-559.3,53
		c-24.8,2.3-43.6,23.7-42.7,48.7c0.3,9.5,0.4,14.9,0.4,16.8l0,0.5v509.7L120,1721.3c-3.9-150.2-32.6-1251-37.9-1453.3l1876-183.3
		c5.4,203.4,29.9,1118.1,38.9,1449.9C1875.3,1546.4,1533.3,1579.6,1314.4,1600.7z"/>
	<path class="st1" d="M1997,1534.6c-121.7,11.8-463.7,45-682.6,66.1l-559.3,53c-24.8,2.3-43.6,23.7-42.7,48.7
		c0.3,9.5,0.4,14.9,0.4,16.8l0,0.5v509.7L120,1721.3c-3.9-150.2-32.6-1251-37.9-1453.3l1876-183.3
		C1963.5,288.1,1988.1,1202.8,1997,1534.6z"/>
</g>
</svg>
