<svg width="126" height="126" viewBox="0 0 126 126" fill="none" xmlns="http://www.w3.org/2000/svg">
<path d="M108 0H18C8.05887 0 0 8.05887 0 18V108C0 117.941 8.05887 126 18 126H108C117.941 126 126 117.941 126 108V18C126 8.05887 117.941 0 108 0Z" fill="url(#paint0_radial_198_1012)"/>
<path opacity="0.95" d="M57 33H27C24.6131 33 22.3239 33.9482 20.636 35.636C18.9482 37.3239 18 39.6131 18 42V84C18.0034 85.9049 18.6112 87.7596 19.7358 89.2971C20.8604 90.8346 22.4438 91.9757 24.2581 92.556C26.0725 93.1363 28.0242 93.126 29.8323 92.5265C31.6405 91.9271 33.2117 90.7693 34.32 89.22L64.32 47.22C65.2779 45.8747 65.8471 44.2917 65.9654 42.6445C66.0836 40.9972 65.7463 39.3492 64.9905 37.8808C64.2346 36.4124 63.0893 35.1804 61.6799 34.3195C60.2706 33.4586 58.6515 33.0021 57 33ZM33 54C31.8133 54 30.6533 53.6481 29.6666 52.9888C28.6799 52.3295 27.9108 51.3925 27.4567 50.2961C27.0026 49.1997 26.8838 47.9933 27.1153 46.8295C27.3468 45.6656 27.9182 44.5965 28.7574 43.7574C29.5965 42.9182 30.6656 42.3468 31.8295 42.1153C32.9933 41.8838 34.1997 42.0026 35.2961 42.4567C36.3925 42.9108 37.3295 43.6799 37.9888 44.6666C38.6481 45.6533 39 46.8133 39 48C39 49.5913 38.3679 51.1174 37.2426 52.2426C36.1174 53.3679 34.5913 54 33 54Z" fill="#0D0A03"/>
<path opacity="0.95" d="M79.5 90C83.6421 90 87 86.6421 87 82.5C87 78.3579 83.6421 75 79.5 75C75.3579 75 72 78.3579 72 82.5C72 86.6421 75.3579 90 79.5 90Z" fill="#0D0A03"/>
<path opacity="0.95" d="M108 42V84C108.003 86.2459 107.167 88.4119 105.655 90.0727C104.143 91.7334 102.065 92.7688 99.8283 92.9755C97.5919 93.1823 95.3591 92.5454 93.5683 91.1899C91.7775 89.8345 90.5582 87.8585 90.1499 85.65C90.054 85.1051 90.0038 84.5532 89.9999 84V77.16C89.9839 75.2602 89.3671 73.4142 88.2379 71.8863C87.1086 70.3585 85.5249 69.2272 83.7134 68.6544C81.9019 68.0817 79.9557 68.0969 78.1533 68.6978C76.351 69.2988 74.7851 70.4547 73.6799 72L68.9999 78.57L61.4699 89.13C60.0337 90.9561 57.9471 92.1561 55.6465 92.479C53.3458 92.8019 51.0095 92.2227 49.1261 90.8625C47.2428 89.5023 45.9584 87.4665 45.5416 85.181C45.1248 82.8956 45.6079 80.5374 46.8899 78.6L76.8899 36.6C77.719 35.4943 78.7917 34.5944 80.0247 33.9701C81.2577 33.3458 82.6179 33.0139 83.9999 33H98.9999C101.387 33 103.676 33.9482 105.364 35.636C107.052 37.3239 108 39.6131 108 42Z" fill="#FFFDFA"/>
<defs>
<radialGradient id="paint0_radial_198_1012" cx="0" cy="0" r="1" gradientUnits="userSpaceOnUse" gradientTransform="translate(63 63) scale(63)">
<stop offset="0.473958" stop-color="#FFC640"/>
<stop offset="1" stop-color="#F2AF13"/>
</radialGradient>
</defs>
</svg>
