<svg width="256" height="256" viewBox="0 0 256 256" fill="none" xmlns="http://www.w3.org/2000/svg">
<mask id="mask0_510_16" style="mask-type:alpha" maskUnits="userSpaceOnUse" x="0" y="0" width="256" height="256">
<circle cx="128" cy="128" r="128" fill="#D9D9D9"/>
</mask>
<g mask="url(#mask0_510_16)">
<path d="M256 0H0V256H256V0Z" fill="black"/>
<mask id="mask1_510_16" style="mask-type:luminance" maskUnits="userSpaceOnUse" x="65" y="65" width="126" height="126">
<path d="M190.894 65.1055H65.1055V190.894H190.894V65.1055Z" fill="white"/>
</mask>
<g mask="url(#mask1_510_16)">
<mask id="mask2_510_16" style="mask-type:luminance" maskUnits="userSpaceOnUse" x="65" y="65" width="126" height="126">
<path d="M190.894 65.1055H65.1055V190.894H190.894V65.1055Z" fill="white"/>
</mask>
<g mask="url(#mask2_510_16)">
<path d="M190.894 65.1055H74.0156L107.29 104.335C112.822 99.4893 120.068 96.5527 128 96.5527C145.368 96.5527 159.447 110.632 159.447 128C159.447 135.834 156.583 142.999 151.844 148.504L190.894 182.105V65.1055Z" fill="white"/>
<path d="M175.499 190.893L144.573 154.73C139.761 157.72 134.082 159.446 128 159.446C110.632 159.446 96.5527 145.367 96.5527 127.999C96.5527 121.972 98.2484 116.34 101.189 111.556L65.1055 80.1348V190.893H175.499Z" fill="white"/>
</g>
</g>
</g>
</svg>
