<svg xmlns="http://www.w3.org/2000/svg" width="156" height="41" viewBox="0 0 156 41" fill="none"><path d="M61.0213 35.6618H56.1675V7.70526H63.9902L74.2129 33.6338L73.4755 33.8436V7.70526H78.3452V35.6618H70.3985L60.2267 9.79048L61.0213 9.60294V35.6618Z" fill="white"></path><path d="M91.273 36.0624C89.3182 36.1033 87.3855 35.6425 85.6594 34.7242C84.0748 33.8652 82.7598 32.5832 81.8608 31.021C80.9267 29.3686 80.4525 27.496 80.4877 25.5982C80.4495 23.706 80.924 21.8388 81.8608 20.1944C82.7649 18.6451 84.0795 17.3757 85.6594 16.5262C87.4012 15.6546 89.3221 15.2008 91.2698 15.2008C93.2175 15.2008 95.1384 15.6546 96.8802 16.5262C98.4663 17.3728 99.7867 18.6425 100.695 20.1944C101.631 21.8388 102.106 23.706 102.068 25.5982C102.103 27.496 101.629 29.3686 100.695 31.021C99.7918 32.5858 98.4709 33.8681 96.8802 34.7242C95.1566 35.6432 93.2258 36.104 91.273 36.0624ZM91.273 31.9874C92.3325 32.0105 93.3771 31.734 94.2863 31.1895C95.1524 30.6521 95.8489 29.8807 96.2953 28.9644C96.796 27.9144 97.0421 26.7611 97.0137 25.5982C97.0412 24.4455 96.795 23.3028 96.2953 22.2637C95.8493 21.3538 95.1522 20.5905 94.2863 20.0641C93.3646 19.5554 92.3289 19.2886 91.2761 19.2886C90.2233 19.2886 89.1877 19.5554 88.2659 20.0641C87.3957 20.5881 86.6949 21.3518 86.2474 22.2637C85.7477 23.3028 85.5015 24.4455 85.5291 25.5982C85.4986 26.7606 85.7426 27.9139 86.2411 28.9644C86.6901 29.882 87.3899 30.6535 88.2595 31.1895C89.1692 31.733 90.2135 32.0095 91.273 31.9874Z" fill="white"></path><path d="M104.274 35.6618V6.03955H109.277V35.6618H104.274ZM115.609 36.0814C114.072 36.0903 112.564 35.6662 111.257 34.8575C109.917 34.0351 108.809 32.8841 108.037 31.5136C107.212 30.0616 106.79 28.4155 106.814 26.7455V26.4785L109.277 26.4245V26.612C109.261 27.5409 109.519 28.4539 110.018 29.2376C110.497 29.9905 111.158 30.6104 111.941 31.04C112.936 31.5844 114.079 31.796 115.203 31.6438C116.327 31.4917 117.372 30.9837 118.187 30.1944C119.21 29.1963 119.722 27.6483 119.722 25.5504C119.722 23.4524 119.214 21.9086 118.196 20.919C117.704 20.4389 117.121 20.0617 116.482 19.8095C115.842 19.5574 115.158 19.4353 114.471 19.4504C113.59 19.4532 112.723 19.6727 111.947 20.0895C111.171 20.5064 110.51 21.1079 110.021 21.8408C109.513 22.616 109.251 23.5269 109.271 24.4537L106.807 24.3425C106.775 22.6806 107.198 21.0415 108.031 19.603C108.807 18.2652 109.916 17.1514 111.251 16.3703C112.572 15.5942 114.077 15.189 115.609 15.1974C117.24 15.1846 118.843 15.616 120.247 16.4454C121.651 17.2747 122.802 18.4707 123.578 19.905C124.443 21.4414 124.875 23.321 124.875 25.544C124.875 27.8326 124.451 29.76 123.603 31.326C122.84 32.8072 121.67 34.0399 120.231 34.8798C118.823 35.6812 117.229 36.0957 115.609 36.0814Z" fill="white"></path><path d="M132.288 6.03955V35.6618H127.38V6.03955H132.288Z" fill="white"></path><path d="M137.348 27.2097V23.6655H151.43L150.861 24.6191V24.1264C150.866 23.2733 150.665 22.4316 150.276 21.6724C149.871 20.896 149.252 20.2519 148.493 19.8161C147.565 19.3077 146.517 19.0615 145.46 19.1041C144.359 19.0755 143.269 19.3399 142.304 19.8701C141.408 20.3892 140.689 21.1641 140.237 22.0952C139.726 23.1714 139.477 24.3532 139.51 25.5441C139.477 26.7658 139.716 27.9796 140.209 29.0979C140.641 30.0521 141.36 30.8477 142.265 31.3738C143.279 31.9251 144.421 32.1961 145.574 32.1589C146.346 32.1726 147.115 32.0904 147.866 31.9142C148.432 31.7861 148.97 31.5578 149.456 31.2403C149.824 30.9995 150.139 30.6871 150.384 30.3217C150.581 30.0259 150.709 29.6888 150.756 29.3363H155.721C155.635 30.2145 155.346 31.0609 154.879 31.8093C154.347 32.661 153.655 33.4015 152.841 33.9899C151.878 34.6854 150.803 35.2111 149.662 35.5443C148.28 35.9485 146.846 36.1435 145.406 36.1228C143.435 36.1686 141.484 35.7113 139.738 34.7941C138.153 33.9414 136.842 32.6575 135.956 31.0909C135.061 29.4129 134.595 27.5401 134.598 25.6387C134.602 23.7372 135.075 21.866 135.975 20.1912C136.877 18.6351 138.199 17.364 139.789 16.523C141.52 15.6177 143.45 15.1619 145.403 15.1975C147.365 15.1466 149.308 15.6032 151.042 16.523C152.594 17.3729 153.868 18.6533 154.71 20.2103C155.595 21.8978 156.038 23.7821 155.997 25.6871C155.997 25.9541 155.997 26.237 155.978 26.539C155.973 26.7614 155.954 26.9833 155.921 27.2034L137.348 27.2097Z" fill="white"></path><path d="M35.012 0.00086924C33.5094 0.00477842 32.0695 0.603991 31.0078 1.66728C29.9461 2.73057 29.349 4.17127 29.3473 5.67386V8.65709C27.6762 5.25366 24.814 2.58191 21.3036 1.14863C17.7933 -0.284654 13.879 -0.379789 10.3032 0.881271C7.29137 1.94905 4.68395 3.92309 2.83911 6.53227C0.994272 9.14146 0.00249575 12.2578 0 15.4533L0 35.0121C0 36.5173 0.597924 37.9607 1.66224 39.025C2.72655 40.0893 4.17006 40.6872 5.67523 40.6872C7.18039 40.6872 8.62391 40.0893 9.68822 39.025C10.7525 37.9607 11.3505 36.5173 11.3505 35.0121V32.0352C13.0212 35.4374 15.8826 38.1079 19.3919 39.54C22.9012 40.9722 26.8141 41.0664 30.3882 39.8047C33.3991 38.7373 36.0057 36.7638 37.8498 34.1553C39.6939 31.5469 40.6851 28.4314 40.6872 25.2369V5.67386C40.685 4.16961 40.0863 2.72764 39.0224 1.66417C37.9585 0.600704 36.5163 0.00254456 35.012 0.00086924ZM25.2345 39.1164C22.2676 39.1288 19.3757 38.1854 16.9868 36.426C14.598 34.6665 12.8393 32.1845 11.9712 29.3476L11.948 29.2652C11.5495 27.9597 11.3482 26.6019 11.3505 25.2369V15.4533C11.3516 14.3647 11.7846 13.3211 12.5546 12.5516C13.3245 11.7821 14.3684 11.3495 15.457 11.349C16.5445 11.3518 17.5866 11.7851 18.3554 12.5543C19.1242 13.3235 19.557 14.3658 19.5593 15.4533V25.2327C19.5611 26.7377 20.1602 28.1805 21.2251 29.2441C22.0196 30.0352 23.0304 30.5734 24.1302 30.7909C25.23 31.0085 26.3696 30.8957 27.4054 30.4668C28.4412 30.0378 29.3269 29.3119 29.9509 28.3805C30.5749 27.4491 30.9092 26.3538 30.9118 25.2327V5.67386C30.9118 5.13515 31.0179 4.60172 31.2241 4.10402C31.4303 3.60631 31.7324 3.15409 32.1134 2.77317C32.4943 2.39224 32.9465 2.09007 33.4442 1.88392C33.9419 1.67776 34.4754 1.57166 35.0141 1.57166C35.5528 1.57166 36.0863 1.67776 36.584 1.88392C37.0817 2.09007 37.5339 2.39224 37.9149 2.77317C38.2958 3.15409 38.598 3.60631 38.8041 4.10402C39.0103 4.60172 39.1164 5.13515 39.1164 5.67386V25.2327C39.1178 27.0562 38.7597 28.862 38.0626 30.5469C37.3655 32.2319 36.343 33.7629 35.0537 35.0523C33.7644 36.3418 32.2335 37.3645 30.5487 38.0618C28.8638 38.7592 27.058 39.1176 25.2345 39.1164ZM29.3473 25.2327C29.3465 26.0439 29.1055 26.8367 28.6548 27.5112C28.2041 28.1856 27.5637 28.7116 26.8146 29.0227C26.0654 29.3338 25.2409 29.4162 24.4449 29.2595C23.649 29.1028 22.9173 28.714 22.342 28.142C21.9207 27.7247 21.5957 27.2203 21.3898 26.6642C21.3518 26.5649 21.318 26.453 21.2842 26.3411L21.2715 26.2841L21.2589 26.2313C21.2399 26.1574 21.2209 26.0835 21.2082 26.0054C21.2082 25.978 21.2082 25.9484 21.1934 25.9189V25.8745C21.1934 25.8049 21.1723 25.7352 21.166 25.6634C21.1596 25.5916 21.166 25.5768 21.166 25.5198C21.166 25.4628 21.166 25.3784 21.166 25.3087V15.4533C21.1646 14.7055 21.0157 13.9653 20.728 13.275C20.4402 12.5848 20.0191 11.9581 19.4888 11.4308C18.9586 10.9035 18.3295 10.4859 17.6377 10.2019C16.9458 9.91801 16.2048 9.77329 15.457 9.77607C13.9518 9.77774 12.5087 10.3764 11.4443 11.4407C10.38 12.5051 9.78131 13.9481 9.77963 15.4533V35.0121C9.77963 36.1007 9.3472 37.1446 8.57748 37.9143C7.80775 38.684 6.76378 39.1164 5.67523 39.1164C4.58667 39.1164 3.5427 38.684 2.77297 37.9143C2.00325 37.1446 1.57082 36.1007 1.57082 35.0121V15.4533C1.57326 12.1249 2.77114 8.9082 4.94629 6.38892C7.12145 3.86964 10.1292 2.21543 13.4216 1.72758C16.7141 1.23974 20.0723 1.9507 22.8845 3.731C25.6968 5.51129 27.776 8.24246 28.7435 11.4271L28.8005 11.6129C29.1618 12.8611 29.3459 14.1539 29.3473 15.4533V25.2327Z" fill="url(#paint0_linear_7_26)"></path><defs><linearGradient id="paint0_linear_7_26" x1="2.79017" y1="37.8401" x2="51.276" y2="-10.7198" gradientUnits="userSpaceOnUse"><stop offset="0.05" stop-color="white"></stop><stop offset="0.38" stop-color="#A7B3FF"></stop><stop offset="1" stop-color="#74A4FF"></stop></linearGradient></defs></svg>
