<?xml version="1.0" encoding="UTF-8"?><svg id="_레이어_2" xmlns="http://www.w3.org/2000/svg" viewBox="0 0 150 150"><defs><style>.cls-1,.cls-2{stroke-width:0px;}.cls-2{fill:#fff;}</style></defs><g id="Asset"><circle class="cls-1" cx="75" cy="75" r="75"/><path class="cls-2" d="M75.96,36.34c-21.27,0-38.51,17.24-38.51,38.51v37.29c0,.83.67,1.51,1.51,1.51h5.79c.83,0,1.51-.67,1.51-1.51v-37.29c0-16.41,13.3-29.71,29.71-29.71h27.8v30c0,16.41-13.3,29.71-29.71,29.71h-11v-22.57h29.62c.83,0,1.5-.67,1.5-1.5v-5.79c0-.83-.67-1.5-1.5-1.5h-28.92c2.01-6.54,8.11-11.31,15.3-11.31h14.44c.83,0,1.5-.67,1.5-1.5v-5.79c0-.83-.67-1.5-1.5-1.5h-14.44c-13.7,0-24.8,11.1-24.8,24.8v32.46c0,1.66,1.35,3.01,3.01,3.01h16.79c21.27,0,38.51-17.24,38.51-38.51v-35.79c0-1.66-1.35-3.01-3.01-3.01h-33.59Z"/></g></svg>