<?xml version="1.0" encoding="UTF-8"?><svg xmlns="http://www.w3.org/2000/svg" xmlns:xlink="http://www.w3.org/1999/xlink" viewBox="0 0 500 500"><defs><style>.m{fill:url(#g);}.n{fill:url(#f);}.o{fill:url(#i);}.p{fill:url(#h);}.q{fill:url(#k);}.r{fill:url(#l);}.s{fill:none;}.t{fill:#fff;}.u{fill:#77daff;}.v{clip-path:url(#e);}.w{clip-path:url(#d);}.x{clip-path:url(#j);}</style><clipPath id="d"><circle class="s" cx="250" cy="250" r="250"/></clipPath><clipPath id="e"><rect class="s" x="0" width="500" height="500"/></clipPath><linearGradient id="f" x1="27.42" y1="122.59" x2="456.92" y2="368.44" gradientTransform="matrix(1, 0, 0, 1, 0, 0)" gradientUnits="userSpaceOnUse"><stop offset="0" stop-color="#420082"/><stop offset="1" stop-color="#643cfc"/></linearGradient><linearGradient id="g" x1="6859.97" y1="-3879.49" x2="6597.14" y2="-3616.65" gradientTransform="translate(4853.66 6422.24) rotate(-97.61)" gradientUnits="userSpaceOnUse"><stop offset="0" stop-color="#5b14cd"/><stop offset="1" stop-color="#5567ff"/></linearGradient><linearGradient id="h" x1="6826.23" y1="-3845.74" x2="6629.54" y2="-3649.06" gradientTransform="translate(4853.66 6422.24) rotate(-97.61)" gradientUnits="userSpaceOnUse"><stop offset="0" stop-color="#733cff"/><stop offset="1" stop-color="#55a0ff"/></linearGradient><linearGradient id="i" x1="340.62" y1="212.02" x2="196.95" y2="289.72" gradientTransform="matrix(1, 0, 0, 1, 0, 0)" gradientUnits="userSpaceOnUse"><stop offset="0" stop-color="#ffa9ff"/><stop offset="1" stop-color="#77daff"/></linearGradient><clipPath id="j"><path class="s" d="M155.25,251.99c0,13.22,2.68,25.81,7.52,37.26l176.08-75.26c-5.08-11.73-12.44-22.24-21.51-30.98l74.38-15.39,7.97,44.1-44.09,54.23-173.4,72.25-79.13-1.38,7.11-51.61,45.07-33.23Z"/></clipPath><linearGradient id="k" x1="104.23" y1="381.91" x2="188.19" y2="472.28" gradientTransform="matrix(1, 0, 0, 1, 0, 0)" xlink:href="#g"/><linearGradient id="l" x1="237.93" y1="468.16" x2="393.12" y2="519.44" gradientTransform="matrix(1, 0, 0, 1, 0, 0)" xlink:href="#h"/></defs><g id="a"/><g id="b"><g id="c"><g class="w"><g class="v"><rect class="n" x="-9.23" y="-9.23" width="518.47" height="518.47"/><g><path class="m" d="M249.81,450.68c-47.74,0-93.96-17.31-130.14-48.73-36.53-31.73-60.18-75.63-66.6-123.63-7.03-52.6,6.84-104.79,39.06-146.96,32.22-42.17,78.93-69.26,131.53-76.29,8.78-1.17,17.7-1.77,26.51-1.77,47.74,0,93.96,17.31,130.14,48.73,36.53,31.73,60.18,75.63,66.6,123.63,7.03,52.6-6.84,104.79-39.06,146.96-32.22,42.17-78.93,69.26-131.53,76.29-8.78,1.17-17.7,1.77-26.51,1.77Z"/><circle class="p" cx="250" cy="251.99" r="148.67"/><circle class="t" cx="302.17" cy="113.34" r="20.58"/><circle class="t" cx="392.74" cy="295.8" r="14.08"/><circle class="u" cx="144.31" cy="146.74" r="29.7"/><g><circle class="t" cx="250.97" cy="251.99" r="95.72"/><path class="o" d="M274.91,159.28c-51.94,1.07-93.72,43.5-93.72,95.7,0,44.6,30.5,82.07,71.78,92.7,51.94-1.07,93.72-43.5,93.72-95.7,0-44.6-30.5-82.07-71.78-92.7Z"/><g class="x"><path class="t" d="M150.71,334.34c-13.98,0-34.98-.44-40-11.2-7.42-15.9,16.93-37.53,31.98-50.5,20.58-17.74,52.27-36.82,91.64-55.18,39.37-18.36,74.35-30.37,101.17-34.73,19.61-3.19,50-6.26,57.42,9.64,7.42,15.9-14.43,37.31-29.48,50.28-20.58,17.74-52.27,36.82-91.64,55.18-39.37,18.36-74.35,30.37-101.17,34.73-6.34,1.03-13.24,1.78-19.93,1.78Zm190.93-131.38c-4.28,0-9.44,.43-15.57,1.43-22.12,3.6-51.26,13.64-84.3,29.05-33.03,15.4-59.46,31.28-76.43,45.9-16.11,13.89-19.76,23.32-17.8,27.52,1.96,4.2,11.53,7.47,32.53,4.06,22.12-3.6,51.26-13.64,84.3-29.05,33.03-15.4,59.46-31.28,76.43-45.9,16.11-13.89,19.76-23.32,17.8-27.52h0c-1.39-2.97-6.59-5.48-16.96-5.48Z"/></g></g></g><path class="t" d="M286.41,36.54c1.14,1.98-53.54,35.69-55.52,36.83-1.98,1.14-4.51,.46-5.65-1.51-1.14-1.98-.46-4.51,1.51-5.65s58.51-31.64,59.65-29.67Z"/><g><path class="t" d="M-16.79,306.5s52.36-.18,117.12,40.01c59.98,37.22,107.36,62.12,186.35,48.33,76.62-13.38,196,18.8,232.83,40.83v159.97H-16.79V306.5Z"/><path class="q" d="M-21.61,631.93H514.58v-193.83c-40.64-21.89-154.88-51.63-229.04-38.68-2.18,.38-4.33,.73-6.46,1.05-.24,.07-.48,.13-.72,.2-76.92,22.67-126.82,3.3-190.63-26.87-49.51-23.41-90.3-26.84-109.33-26.92v285.04Z"/><path class="t" d="M516.06,345.78s-106.64-20.78-214.46,41.84c-96.29,55.92-169.89,108.83-393.96,95.62v97.72H516.06v-235.18Z"/><path class="r" d="M516.06,345.78s-2.29-.44-6.52-1.01c-32.51-.18-116.03,5.57-195.5,62.29-90.63,64.69-158.96,124.26-383.28,132.08v41.82H516.06v-235.18Z"/></g><g><circle class="t" cx="181.68" cy="66.48" r="6.76"/><circle class="t" cx="101.59" cy="252.96" r="6.76"/><circle class="t" cx="423.13" cy="232.42" r="2.94"/><circle class="t" cx="83.94" cy="206.4" r="2.94"/></g><path class="t" d="M429.92,101.98c1.14,1.98-53.54,35.69-55.52,36.83s-4.51,.46-5.65-1.51c-1.14-1.98-.46-4.51,1.51-5.65,1.98-1.14,58.51-31.64,59.65-29.67Z"/></g></g></g></g></svg>