<svg width="500" height="500" viewBox="0 0 500 500" fill="none" xmlns="http://www.w3.org/2000/svg">
<g clip-path="url(#clip0_1301_2351)">
<mask id="mask0_1301_2351" style="mask-type:alpha" maskUnits="userSpaceOnUse" x="0" y="0" width="500" height="500">
<rect width="500" height="500" fill="#D9D9D9"/>
</mask>
<g mask="url(#mask0_1301_2351)">
<g clip-path="url(#clip1_1301_2351)">
<path d="M250 467.285C370.003 467.285 467.285 370.003 467.285 250C467.285 129.997 370.003 32.7148 250 32.7148C129.997 32.7148 32.7148 129.997 32.7148 250C32.7148 370.003 129.997 467.285 250 467.285Z" fill="white"/>
<path fill-rule="evenodd" clip-rule="evenodd" d="M250 466.666C369.662 466.666 466.666 369.662 466.666 250C466.666 130.338 369.662 33.3333 250 33.3333C130.338 33.3333 33.3333 130.338 33.3333 250C33.3333 369.662 130.338 466.666 250 466.666ZM250 500C388.071 500 500 388.071 500 250C500 111.929 388.071 0 250 0C111.929 0 0 111.929 0 250C0 388.071 111.929 500 250 500Z" fill="#27201D"/>
<path d="M296.691 140.819C298.58 138.499 300.958 136.625 303.656 135.332C306.353 134.038 309.303 133.357 312.294 133.336C314.779 133.347 317.236 133.85 319.525 134.816C321.814 135.781 323.889 137.19 325.631 138.962C327.373 140.733 328.747 142.832 329.673 145.137C330.6 147.442 331.061 149.907 331.031 152.392V346.279C331.235 348.879 330.899 351.493 330.044 353.957C329.189 356.421 327.834 358.682 326.063 360.597C324.293 362.512 322.145 364.04 319.756 365.085C317.366 366.13 314.787 366.669 312.179 366.669C309.571 366.669 306.991 366.13 304.601 365.085C302.212 364.04 300.064 362.512 298.294 360.597C296.523 358.682 295.168 356.421 294.313 353.957C293.458 351.493 293.123 348.879 293.327 346.279V200.595L160.839 358.954C159.107 360.947 156.976 362.553 154.582 363.668C152.188 364.782 149.586 365.38 146.946 365.421C142.245 365.376 137.749 363.488 134.425 360.164C131.1 356.839 129.212 352.344 129.167 347.642C129.136 343.396 130.628 339.281 133.373 336.041L296.691 140.819Z" fill="#27201D"/>
</g>
</g>
</g>
<g clip-path="url(#clip2_1301_2351)">
<path d="M100 486.914C148.001 486.914 186.914 448.001 186.914 400C186.914 351.999 148.001 313.086 100 313.086C51.9987 313.086 13.0859 351.999 13.0859 400C13.0859 448.001 51.9987 486.914 100 486.914Z" fill="white"/>
<path fill-rule="evenodd" clip-rule="evenodd" d="M100 486.667C147.865 486.667 186.667 447.865 186.667 400C186.667 352.135 147.865 313.333 100 313.333C52.1354 313.333 13.3333 352.135 13.3333 400C13.3333 447.865 52.1354 486.667 100 486.667ZM100 500C155.229 500 200 455.229 200 400C200 344.771 155.229 300 100 300C44.7715 300 0 344.771 0 400C0 455.229 44.7715 500 100 500Z" fill="#27201D"/>
<path d="M118.676 356.325C119.432 355.397 120.383 354.648 121.462 354.13C122.541 353.613 123.721 353.34 124.918 353.332C125.912 353.337 126.895 353.538 127.81 353.924C128.726 354.31 129.556 354.874 130.252 355.582C130.949 356.291 131.499 357.13 131.869 358.052C132.24 358.974 132.425 359.961 132.412 360.954V438.509C132.494 439.549 132.36 440.595 132.018 441.58C131.676 442.566 131.134 443.471 130.425 444.236C129.717 445.002 128.858 445.614 127.902 446.032C126.946 446.45 125.915 446.665 124.871 446.665C123.828 446.665 122.796 446.45 121.84 446.032C120.885 445.614 120.026 445.002 119.318 444.236C118.609 443.471 118.067 442.566 117.725 441.58C117.383 440.595 117.249 439.549 117.331 438.509V380.236L64.3356 443.579C63.643 444.377 62.7903 445.019 61.8326 445.465C60.8752 445.911 59.8346 446.15 58.7785 446.166C56.8981 446.148 55.0996 445.393 53.7699 444.063C52.4401 442.733 51.685 440.935 51.6668 439.054C51.6545 437.356 52.2514 435.71 53.349 434.414L118.676 356.325Z" fill="#27201D"/>
</g>
<circle cx="100" cy="400" r="97.5" stroke="black" stroke-width="5"/>
<defs>
<clipPath id="clip0_1301_2351">
<rect width="500" height="500" rx="250" fill="white"/>
</clipPath>
<clipPath id="clip1_1301_2351">
<rect width="500" height="500" fill="white"/>
</clipPath>
<clipPath id="clip2_1301_2351">
<rect width="200" height="200" fill="white" transform="translate(0 300)"/>
</clipPath>
</defs>
</svg>
