<svg width="48" height="48" viewBox="0 0 48 48" fill="none" xmlns="http://www.w3.org/2000/svg">
<path fill-rule="evenodd" clip-rule="evenodd" d="M35.4003 4.25462C35.7316 3.68067 35.5362 2.94387 34.9464 2.6416C32.0604 1.16251 28.9006 0.281719 25.6571 0.0572642C22.0141 -0.194843 18.3615 0.387721 14.9776 1.76059C11.5937 3.13346 8.5677 5.26043 6.13006 7.97952C3.95979 10.4004 2.30684 13.2337 1.26714 16.3055C1.05467 16.9333 1.42785 17.5979 2.06545 17.7788C2.70304 17.9596 3.36328 17.588 3.57924 16.9614C4.51705 14.2405 5.99061 11.7305 7.91708 9.58157C10.111 7.13439 12.8344 5.22012 15.8799 3.98453C18.9254 2.74895 22.2127 2.22464 25.4915 2.45154C28.3706 2.65078 31.1764 3.42465 33.7449 4.72301C34.3364 5.02201 35.0689 4.82858 35.4003 4.25462ZM35.4003 43.7454C35.7316 44.3193 36.4674 44.5185 37.0241 44.1589C39.7074 42.4253 42.0212 40.171 43.8261 37.5254C45.8567 34.5488 47.1911 31.1532 47.7302 27.5906C48.2692 24.0279 47.9992 20.3896 46.9401 16.9455C45.9987 13.8843 44.4554 11.0465 42.405 8.59661C41.9797 8.08837 41.2179 8.06095 40.7316 8.51118C40.2452 8.9614 40.2188 9.71858 40.6413 10.2292C42.4484 12.4129 43.8106 14.9342 44.6461 17.651C45.5993 20.7506 45.8423 24.0251 45.3572 27.2315C44.872 30.4379 43.6711 33.4939 41.8435 36.1728C40.2417 38.5208 38.1946 40.5262 35.8223 42.0776C35.2676 42.4403 35.0689 43.1714 35.4003 43.7454ZM0.0302544 25.1995C-0.00286838 24.5376 0.53752 24 1.20026 24C1.863 24 2.39679 24.5377 2.43359 25.1994C2.59135 28.0362 3.30753 30.8182 4.54533 33.3843C5.95717 36.3113 8.01122 38.8819 10.5545 40.9048C13.0977 42.9276 16.0646 44.3506 19.2342 45.0676C22.013 45.6963 24.8848 45.7681 27.6844 45.2835C28.3374 45.1705 28.9814 45.5696 29.1305 46.2153C29.2797 46.8611 28.8774 47.5086 28.225 47.6252C25.073 48.1889 21.8357 48.1168 18.7046 47.4085C15.1829 46.6118 11.8863 45.0307 9.0605 42.7831C6.23466 40.5354 3.95238 37.6792 2.38367 34.427C0.988977 31.5357 0.19029 28.3976 0.0302544 25.1995Z" fill="#E84142"/>
<path d="M35.1016 12.1755L12.874 12.1755L12.874 32.3777H35.1016V12.1755Z" fill="white"/>
<path fill-rule="evenodd" clip-rule="evenodd" d="M41.9883 24C41.9883 33.928 33.9348 41.9761 24.0002 41.9761C14.0657 41.9761 6.01221 33.928 6.01221 24C6.01221 14.0721 14.0657 6.02393 24.0002 6.02393C33.9348 6.02393 41.9883 14.0721 41.9883 24ZM18.9029 31.1536L15.412 31.1536C14.6784 31.1536 14.3161 31.1536 14.0951 31.0123C13.8565 30.8577 13.7107 30.6016 13.693 30.3189C13.6797 30.0585 13.8609 29.7404 14.2233 29.1045L22.8429 13.9213C23.2097 13.2766 23.3953 12.9542 23.6295 12.835C23.8814 12.7069 24.1819 12.7069 24.4337 12.835C24.6679 12.9542 24.8535 13.2766 25.2203 13.9213L26.9923 17.0125L27.0014 17.0283C27.3975 17.72 27.5984 18.0707 27.6861 18.4389C27.7833 18.8407 27.7833 19.2647 27.6861 19.6665C27.5977 20.0375 27.3989 20.3908 26.9967 21.0929L22.469 29.0913L22.4573 29.1117C22.0586 29.8091 21.8565 30.1626 21.5764 30.4292C21.2715 30.7208 20.9047 30.9326 20.5026 31.0521C20.1358 31.1536 19.7249 31.1536 18.9029 31.1536ZM27.7188 31.1536H32.7209C33.4589 31.1536 33.8302 31.1536 34.0512 31.008C34.2898 30.8534 34.44 30.5927 34.4534 30.3103C34.4661 30.0582 34.2889 29.7526 33.9415 29.1536C33.9296 29.1332 33.9176 29.1125 33.9054 29.0914L31.3998 24.8078L31.3712 24.7596C31.0192 24.1646 30.8414 23.8641 30.6132 23.748C30.3614 23.6199 30.0651 23.6199 29.8134 23.748C29.5836 23.8672 29.398 24.1808 29.0312 24.8122L26.5345 29.0958L26.526 29.1105C26.1605 29.741 25.9778 30.0561 25.991 30.3146C26.0087 30.5973 26.1545 30.8577 26.3931 31.0123C26.6096 31.1536 26.9808 31.1536 27.7188 31.1536Z" fill="#E84142"/>
</svg>
