<svg width="48" height="48" viewBox="0 0 48 48" fill="none" xmlns="http://www.w3.org/2000/svg">
<path fill-rule="evenodd" clip-rule="evenodd" d="M35.4003 4.25462C35.7316 3.68067 35.5362 2.94387 34.9464 2.6416C32.0604 1.16251 28.9006 0.281719 25.6571 0.0572642C22.0141 -0.194843 18.3615 0.387721 14.9776 1.76059C11.5937 3.13346 8.5677 5.26043 6.13006 7.97952C3.95979 10.4004 2.30684 13.2337 1.26714 16.3055C1.05467 16.9333 1.42785 17.5979 2.06545 17.7788C2.70304 17.9596 3.36328 17.588 3.57924 16.9614C4.51705 14.2405 5.99061 11.7305 7.91708 9.58157C10.111 7.13439 12.8344 5.22012 15.8799 3.98453C18.9254 2.74895 22.2127 2.22464 25.4915 2.45154C28.3706 2.65078 31.1764 3.42465 33.7449 4.72301C34.3364 5.02201 35.0689 4.82858 35.4003 4.25462ZM35.4003 43.7454C35.7316 44.3193 36.4674 44.5185 37.0241 44.1589C39.7074 42.4253 42.0212 40.171 43.8261 37.5254C45.8567 34.5488 47.1911 31.1532 47.7302 27.5906C48.2692 24.0279 47.9992 20.3896 46.9401 16.9455C45.9987 13.8843 44.4554 11.0465 42.405 8.59661C41.9797 8.08837 41.2179 8.06095 40.7316 8.51118C40.2452 8.9614 40.2188 9.71858 40.6413 10.2292C42.4484 12.4129 43.8106 14.9342 44.6461 17.651C45.5993 20.7506 45.8423 24.0251 45.3572 27.2315C44.872 30.4379 43.6711 33.4939 41.8435 36.1728C40.2417 38.5208 38.1946 40.5262 35.8223 42.0776C35.2676 42.4403 35.0689 43.1714 35.4003 43.7454ZM0.0302544 25.1995C-0.00286838 24.5376 0.53752 24 1.20026 24C1.863 24 2.39679 24.5377 2.43359 25.1994C2.59135 28.0362 3.30753 30.8182 4.54533 33.3843C5.95717 36.3113 8.01122 38.8819 10.5545 40.9048C13.0977 42.9276 16.0646 44.3506 19.2342 45.0676C22.013 45.6963 24.8848 45.7681 27.6844 45.2835C28.3374 45.1705 28.9814 45.5696 29.1305 46.2153C29.2797 46.8611 28.8774 47.5086 28.225 47.6252C25.073 48.1889 21.8357 48.1168 18.7046 47.4085C15.1829 46.6118 11.8863 45.0307 9.0605 42.7831C6.23466 40.5354 3.95238 37.6792 2.38367 34.427C0.988977 31.5357 0.19029 28.3976 0.0302544 25.1995Z" fill="white"/>
<g clip-path="url(#clip0_4702_6941)">
<path d="M33.8357 18.0061L30.6535 18.0061C30.3 18.0061 29.9465 17.8456 29.6893 17.5888L28.4035 16.1442C28.0178 15.7269 27.4072 15.6948 26.9572 16.0479L26.8607 16.1442L25.7678 17.3962C25.4143 17.8135 24.8678 18.0382 24.3215 18.0382L6.93214 18.0382C6.45 19.4507 6.12857 20.9595 6 22.4683L22.4571 22.4683C22.7464 22.4683 23.0357 22.3399 23.2286 22.1473L24.7715 20.5422C24.9643 20.3496 25.2215 20.2212 25.5107 20.2212H25.575C25.8643 20.2212 26.1535 20.3496 26.3465 20.5743L27.6322 22.0189C27.8893 22.3078 28.2428 22.4683 28.5965 22.4683L42 22.4683C41.8715 20.9595 41.55 19.4507 41.0678 18.0382H33.8357V18.0061ZM23.2929 26.8662L22.0071 25.4216C21.6214 25.0043 21.0107 24.9722 20.5607 25.3254L20.4643 25.4216L19.3393 26.6737C18.9857 27.0909 18.4714 27.3156 17.925 27.3156L6.25714 27.3156C6.54643 28.8564 7.06071 30.3653 7.73571 31.8099H15.9321C16.2214 31.8099 16.4786 31.6815 16.7036 31.4888L18.2464 29.8838C18.4393 29.6911 18.6964 29.5628 18.9857 29.5628H19.05C19.3393 29.5628 19.6286 29.6911 19.8214 29.9158L21.1071 31.3605C21.3643 31.6494 21.7179 31.8099 22.0714 31.8099L40.2643 31.8099C40.9393 30.3974 41.4535 28.8886 41.7428 27.3156L24.2572 27.3156C23.8714 27.3156 23.5179 27.1551 23.2929 26.8662ZM29.5928 12.8698L31.1357 11.2647C31.3285 11.0721 31.5857 10.9437 31.875 10.9437H31.9393C32.2285 10.9437 32.5178 11.0721 32.7107 11.2647L33.9965 12.7093C34.2535 12.9983 34.6072 13.1267 34.9607 13.1267L38.4322 13.1267C32.3893 5.16541 21.0429 3.59242 13.0393 9.59546C11.7214 10.5906 10.5321 11.7784 9.50357 13.1267L28.8215 13.1267C29.1428 13.1909 29.4 13.0624 29.5928 12.8698ZM17.1536 36.24C16.7679 36.24 16.4143 36.0794 16.1893 35.8225L14.9036 34.3781C14.5179 33.9607 13.875 33.9287 13.4571 34.3139L13.3929 34.3781L12.2679 35.63C11.9143 36.0473 11.4 36.272 10.8536 36.272H10.7893C17.5714 43.5271 29.0465 43.8802 36.3428 37.0425C36.6322 36.7857 36.8893 36.4967 37.1785 36.2078H17.1536V36.24Z" fill="white"/>
</g>
<defs>
<clipPath id="clip0_4702_6941">
<rect width="36" height="36" fill="white" transform="translate(6 6)"/>
</clipPath>
</defs>
</svg>
