<svg width="48" height="48" viewBox="0 0 48 48" fill="none" xmlns="http://www.w3.org/2000/svg">
<path fill-rule="evenodd" clip-rule="evenodd" d="M35.4003 4.25462C35.7316 3.68067 35.5362 2.94387 34.9464 2.6416C32.0604 1.16251 28.9006 0.281719 25.6571 0.0572642C22.0141 -0.194843 18.3615 0.387721 14.9776 1.76059C11.5937 3.13346 8.5677 5.26043 6.13006 7.97952C3.95979 10.4004 2.30684 13.2337 1.26714 16.3055C1.05467 16.9333 1.42785 17.5979 2.06545 17.7788C2.70304 17.9596 3.36328 17.588 3.57924 16.9614C4.51705 14.2405 5.99061 11.7305 7.91708 9.58157C10.111 7.13439 12.8344 5.22012 15.8799 3.98453C18.9254 2.74895 22.2127 2.22464 25.4915 2.45154C28.3706 2.65078 31.1764 3.42465 33.7449 4.72301C34.3364 5.02201 35.0689 4.82858 35.4003 4.25462ZM35.4003 43.7454C35.7316 44.3193 36.4674 44.5185 37.0241 44.1589C39.7074 42.4253 42.0212 40.171 43.8261 37.5254C45.8567 34.5488 47.1911 31.1532 47.7302 27.5906C48.2692 24.0279 47.9992 20.3896 46.9401 16.9455C45.9987 13.8843 44.4554 11.0465 42.405 8.59661C41.9797 8.08837 41.2179 8.06095 40.7316 8.51118C40.2452 8.9614 40.2188 9.71858 40.6413 10.2292C42.4484 12.4129 43.8106 14.9342 44.6461 17.651C45.5993 20.7506 45.8423 24.0251 45.3572 27.2315C44.872 30.4379 43.6711 33.4939 41.8435 36.1728C40.2417 38.5208 38.1946 40.5262 35.8223 42.0776C35.2676 42.4403 35.0689 43.1714 35.4003 43.7454ZM0.0302544 25.1995C-0.00286838 24.5376 0.53752 24 1.20026 24C1.863 24 2.39679 24.5377 2.43359 25.1994C2.59135 28.0362 3.30753 30.8182 4.54533 33.3843C5.95717 36.3113 8.01122 38.8819 10.5545 40.9048C13.0977 42.9276 16.0646 44.3506 19.2342 45.0676C22.013 45.6963 24.8848 45.7681 27.6844 45.2835C28.3374 45.1705 28.9814 45.5696 29.1305 46.2153C29.2797 46.8611 28.8774 47.5086 28.225 47.6252C25.073 48.1889 21.8357 48.1168 18.7046 47.4085C15.1829 46.6118 11.8863 45.0307 9.0605 42.7831C6.23466 40.5354 3.95238 37.6792 2.38367 34.427C0.988977 31.5357 0.19029 28.3976 0.0302544 25.1995Z" fill="#9DCCED"/>
<path d="M9.44727 17.0353L9.44727 30.9649C9.44727 31.8542 9.92257 32.6765 10.6924 33.1198L22.7558 40.086C23.5256 40.5293 24.4733 40.5293 25.2431 40.086L37.3065 33.1198C38.0763 32.6765 38.5516 31.8542 38.5516 30.9649V17.0353C38.5516 16.1459 38.0763 15.3236 37.3065 14.8804L25.2431 7.91409C24.4733 7.47086 23.5256 7.47086 22.7558 7.91409L10.6895 14.8804C9.91965 15.3236 9.44727 16.1459 9.44727 17.0353Z" fill="#213147"/>
<path d="M26.6304 26.7015L24.91 31.4195C24.8633 31.5507 24.8633 31.6936 24.91 31.8248L27.8697 39.9429L31.2931 37.9659L27.1845 26.7015C27.0911 26.442 26.7237 26.442 26.6304 26.7015Z" fill="#12AAFF"/>
<path d="M30.08 18.7672C29.9866 18.5076 29.6192 18.5076 29.5259 18.7672L27.8055 23.4852C27.7588 23.6164 27.7588 23.7593 27.8055 23.8905L32.6548 37.1815L36.0781 35.2045L30.08 18.7672Z" fill="#12AAFF"/>
<path d="M23.9977 8.43606C24.0823 8.43606 24.1669 8.45939 24.2427 8.50021L37.2975 16.038C37.4491 16.1255 37.5424 16.2888 37.5424 16.4608V31.5335C37.5424 31.7085 37.4491 31.8688 37.2975 31.9563L24.2427 39.4941C24.1698 39.5378 24.0823 39.5583 23.9977 39.5583C23.9132 39.5583 23.8286 39.5349 23.7528 39.4941L10.698 31.9621C10.5463 31.8747 10.453 31.7114 10.453 31.5393L10.453 16.4637C10.453 16.2888 10.5463 16.1284 10.698 16.0409L23.7528 8.50313C23.8286 8.45939 23.9132 8.43606 23.9977 8.43606ZM23.9977 6.2345C23.5341 6.2345 23.0675 6.35405 22.6506 6.59608L9.59865 14.131C8.76468 14.6121 8.25146 15.5015 8.25146 16.4637L8.25146 31.5364C8.25146 32.4987 8.76468 33.3881 9.59865 33.8692L22.6535 41.407C23.0705 41.6461 23.5341 41.7686 24.0006 41.7686C24.4643 41.7686 24.9308 41.649 25.3478 41.407L38.4027 33.8692C39.2366 33.3881 39.7498 32.4987 39.7498 31.5364V16.4637C39.7498 15.5015 39.2366 14.6121 38.4027 14.131L25.3449 6.59608C24.9279 6.35405 24.4614 6.2345 23.9977 6.2345Z" fill="#9DCCED"/>
<path d="M15.3638 37.1993L16.5652 33.91L18.9825 35.9191L16.7226 37.9837L15.3638 37.1993Z" fill="#213147"/>
<path d="M22.8987 15.3848H19.589C19.3412 15.3848 19.1196 15.5393 19.035 15.7726L11.9404 35.2221L15.3638 37.1992L23.1757 15.7813C23.2486 15.5889 23.1057 15.3848 22.8987 15.3848Z" fill="white"/>
<path d="M28.6893 15.3848H25.3797C25.1319 15.3848 24.9102 15.5393 24.8257 15.7726L16.7251 37.9807L20.1485 39.9577L28.9664 15.7813C29.0363 15.5889 28.8935 15.3848 28.6893 15.3848Z" fill="white"/>
</svg>
