<svg width="48" height="48" viewBox="0 0 48 48" fill="none" xmlns="http://www.w3.org/2000/svg">
<path fill-rule="evenodd" clip-rule="evenodd" d="M35.4003 4.25462C35.7316 3.68067 35.5362 2.94387 34.9464 2.6416C32.0604 1.16251 28.9006 0.281719 25.6571 0.0572642C22.0141 -0.194843 18.3615 0.387721 14.9776 1.76059C11.5937 3.13346 8.5677 5.26043 6.13006 7.97952C3.95979 10.4004 2.30684 13.2337 1.26714 16.3055C1.05467 16.9333 1.42785 17.5979 2.06545 17.7788C2.70304 17.9596 3.36328 17.588 3.57924 16.9614C4.51705 14.2405 5.99061 11.7305 7.91708 9.58157C10.111 7.13439 12.8344 5.22012 15.8799 3.98453C18.9254 2.74895 22.2127 2.22464 25.4915 2.45154C28.3706 2.65078 31.1764 3.42465 33.7449 4.72301C34.3364 5.02201 35.0689 4.82858 35.4003 4.25462ZM35.4003 43.7454C35.7316 44.3193 36.4674 44.5185 37.0241 44.1589C39.7074 42.4253 42.0212 40.171 43.8261 37.5254C45.8567 34.5488 47.1911 31.1532 47.7302 27.5906C48.2692 24.0279 47.9992 20.3896 46.9401 16.9455C45.9987 13.8843 44.4554 11.0465 42.405 8.59661C41.9797 8.08837 41.2179 8.06095 40.7316 8.51118C40.2452 8.9614 40.2188 9.71858 40.6413 10.2292C42.4484 12.4129 43.8106 14.9342 44.6461 17.651C45.5993 20.7506 45.8423 24.0251 45.3572 27.2315C44.872 30.4379 43.6711 33.4939 41.8435 36.1728C40.2417 38.5208 38.1946 40.5262 35.8223 42.0776C35.2676 42.4403 35.0689 43.1714 35.4003 43.7454ZM0.0302544 25.1995C-0.00286838 24.5376 0.53752 24 1.20026 24C1.863 24 2.39679 24.5377 2.43359 25.1994C2.59135 28.0362 3.30753 30.8182 4.54533 33.3843C5.95717 36.3113 8.01122 38.8819 10.5545 40.9048C13.0977 42.9276 16.0646 44.3506 19.2342 45.0676C22.013 45.6963 24.8848 45.7681 27.6844 45.2835C28.3374 45.1705 28.9814 45.5696 29.1305 46.2153C29.2797 46.8611 28.8774 47.5086 28.225 47.6252C25.073 48.1889 21.8357 48.1168 18.7046 47.4085C15.1829 46.6118 11.8863 45.0307 9.0605 42.7831C6.23466 40.5354 3.95238 37.6792 2.38367 34.427C0.988977 31.5357 0.19029 28.3976 0.0302544 25.1995Z" fill="#F0B90B"/>
<g clip-path="url(#clip0_4701_6332)">
<path fill-rule="evenodd" clip-rule="evenodd" d="M24 6C33.9418 6 42 14.0582 42 24C42 33.9418 33.9418 42 24 42C14.0582 42 6 33.9418 6 24C6 14.0582 14.0582 6 24 6Z" fill="#F0B90B"/>
<path d="M15.8924 24L15.9054 28.7596L19.9496 31.1394V33.926L13.5386 30.1659V22.6082L15.8924 24ZM15.8924 19.2404V22.014L13.5371 20.6207V17.8471L15.8924 16.4539L18.2592 17.8471L15.8924 19.2404ZM21.6386 17.8471L23.9938 16.4539L26.3607 17.8471L23.9938 19.2404L21.6386 17.8471Z" fill="white"/>
<path d="M17.5947 27.7731L17.5947 24.9866L19.95 26.3798L19.95 29.1534L17.5947 27.7731ZM21.639 32.1375L23.9942 33.5308L26.3611 32.1375L26.3611 34.9111L23.9942 36.3043L21.639 34.9111V32.1375ZM29.739 17.8471L32.0942 16.4539L34.4611 17.8471V20.6207L32.0942 22.014V19.2404L29.739 17.8471ZM32.0942 28.7596L32.1072 24L34.4625 22.6067V30.1644L28.0515 33.9245L28.0515 31.138L32.0942 28.7596Z" fill="white"/>
<path d="M30.4051 27.773L28.0498 29.1533V26.3798L30.4051 24.9865V27.773Z" fill="white"/>
<path d="M30.4053 20.2269L30.4183 23.0135L26.3625 25.3933L26.3625 30.1644L24.0072 31.5447L21.6519 30.1644L21.6519 25.3933L17.5962 23.0135L17.5962 20.2269L19.9616 18.8337L23.9928 21.225L28.0486 18.8337L30.4154 20.2269H30.4053ZM17.5947 15.4688L23.9942 11.6957L30.4053 15.4688L28.05 16.862L23.9942 14.4707L19.95 16.862L17.5947 15.4688Z" fill="white"/>
</g>
<defs>
<clipPath id="clip0_4701_6332">
<rect width="36" height="36" fill="white" transform="translate(6 6)"/>
</clipPath>
</defs>
</svg>
