<svg width="48" height="48" viewBox="0 0 48 48" fill="none" xmlns="http://www.w3.org/2000/svg">
<path fill-rule="evenodd" clip-rule="evenodd" d="M35.4003 4.25462C35.7316 3.68067 35.5362 2.94387 34.9464 2.6416C32.0604 1.16251 28.9006 0.281719 25.6571 0.0572642C22.0141 -0.194843 18.3615 0.387721 14.9776 1.76059C11.5937 3.13346 8.5677 5.26043 6.13006 7.97952C3.95979 10.4004 2.30684 13.2337 1.26714 16.3055C1.05467 16.9333 1.42785 17.5979 2.06545 17.7788C2.70304 17.9596 3.36328 17.588 3.57924 16.9614C4.51705 14.2405 5.99061 11.7305 7.91708 9.58157C10.111 7.13439 12.8344 5.22012 15.8799 3.98453C18.9254 2.74895 22.2127 2.22464 25.4915 2.45154C28.3706 2.65078 31.1764 3.42465 33.7449 4.72301C34.3364 5.02201 35.0689 4.82858 35.4003 4.25462ZM35.4003 43.7454C35.7316 44.3193 36.4674 44.5185 37.0241 44.1589C39.7074 42.4253 42.0212 40.171 43.8261 37.5254C45.8567 34.5488 47.1911 31.1532 47.7302 27.5906C48.2692 24.0279 47.9992 20.3896 46.9401 16.9455C45.9987 13.8843 44.4554 11.0465 42.405 8.59661C41.9797 8.08837 41.2179 8.06095 40.7316 8.51118C40.2452 8.9614 40.2188 9.71858 40.6413 10.2292C42.4484 12.4129 43.8106 14.9342 44.6461 17.651C45.5993 20.7506 45.8423 24.0251 45.3572 27.2315C44.872 30.4379 43.6711 33.4939 41.8435 36.1728C40.2417 38.5208 38.1946 40.5262 35.8223 42.0776C35.2676 42.4403 35.0689 43.1714 35.4003 43.7454ZM0.0302544 25.1995C-0.00286838 24.5376 0.53752 24 1.20026 24C1.863 24 2.39679 24.5377 2.43359 25.1994C2.59135 28.0362 3.30753 30.8182 4.54533 33.3843C5.95717 36.3113 8.01122 38.8819 10.5545 40.9048C13.0977 42.9276 16.0646 44.3506 19.2342 45.0676C22.013 45.6963 24.8848 45.7681 27.6844 45.2835C28.3374 45.1705 28.9814 45.5696 29.1305 46.2153C29.2797 46.8611 28.8774 47.5086 28.225 47.6252C25.073 48.1889 21.8357 48.1168 18.7046 47.4085C15.1829 46.6118 11.8863 45.0307 9.0605 42.7831C6.23466 40.5354 3.95238 37.6792 2.38367 34.427C0.988977 31.5357 0.19029 28.3976 0.0302544 25.1995Z" fill="#F7931A"/>
<path d="M41.4612 28.3544C39.0568 37.9973 29.2891 43.8658 19.644 41.4611C10.0029 39.057 4.13369 29.2898 6.53919 19.6476C8.94245 10.0036 18.7102 4.13454 28.3525 6.53864C37.997 8.94274 43.8656 18.711 41.4612 28.3544Z" fill="#F7931A"/>
<path d="M31.937 21.4356C32.2953 19.0405 30.4715 17.753 27.9777 16.8941L28.7866 13.6496L26.8115 13.1574L26.0239 16.3164C25.5047 16.187 24.9713 16.0649 24.4414 15.944L25.2346 12.7642L23.2606 12.272L22.4511 15.5154C22.0213 15.4175 21.5994 15.3208 21.1898 15.2189L21.1921 15.2088L18.4682 14.5288L17.9427 16.6381C17.9427 16.6381 19.4082 16.9739 19.3773 16.9947C20.1772 17.1944 20.3218 17.7237 20.2976 18.1433L19.3761 21.8395C19.4313 21.8536 19.5027 21.8738 19.5815 21.9053C19.5157 21.889 19.4453 21.871 19.3728 21.8536L18.0811 27.0313C17.9832 27.2743 17.7352 27.6388 17.176 27.5004C17.1957 27.5291 15.7403 27.1421 15.7403 27.1421L14.7598 29.4028L17.3301 30.0435C17.8083 30.1633 18.2769 30.2887 18.7382 30.4068L17.9208 33.6884L19.8937 34.1806L20.7032 30.9339C21.2421 31.0802 21.7653 31.2152 22.2773 31.3423L21.4705 34.5738L23.4457 35.066L24.2631 31.7906C27.6311 32.4279 30.1638 32.1708 31.2298 29.1249C32.0889 26.6725 31.1871 25.2578 29.415 24.3353C30.7055 24.0377 31.6776 23.1889 31.937 21.4356ZM27.4241 27.7631C26.8137 30.2156 22.684 28.8898 21.3451 28.5574L22.4297 24.2098C23.7686 24.544 28.062 25.2055 27.4241 27.7631ZM28.035 21.4002C27.4781 23.631 24.0409 22.4976 22.9259 22.2197L23.9092 18.2767C25.0242 18.5545 28.615 19.0732 28.035 21.4002Z" fill="white"/>
</svg>
