<svg width="48" height="48" viewBox="0 0 48 48" fill="none" xmlns="http://www.w3.org/2000/svg">
    <path
        d="M41.4612 28.3544C39.0568 37.9973 29.2891 43.8658 19.644 41.4611C10.0029 39.057 4.13369 29.2898 6.53919 19.6476C8.94245 10.0036 18.7102 4.13454 28.3525 6.53864C37.997 8.94274 43.8656 18.711 41.4612 28.3544V28.3544Z"
        fill="#F7931A" />
    <path
        d="M31.937 21.4357C32.2953 19.0406 30.4715 17.753 27.9777 16.8941L28.7866 13.6496L26.8115 13.1575L26.0239 16.3164C25.5047 16.1871 24.9713 16.065 24.4414 15.9441L25.2346 12.7643L23.2606 12.2721L22.4511 15.5154C22.0213 15.4176 21.5994 15.3208 21.1898 15.219L21.1921 15.2089L18.4682 14.5288L17.9427 16.6382C17.9427 16.6382 19.4082 16.974 19.3773 16.9948C20.1772 17.1945 20.3218 17.7238 20.2976 18.1434L19.3761 21.8396C19.4313 21.8536 19.5027 21.8739 19.5815 21.9054C19.5157 21.8891 19.4453 21.8711 19.3728 21.8536L18.0811 27.0314C17.9832 27.2744 17.7352 27.6389 17.176 27.5005C17.1957 27.5292 15.7403 27.1422 15.7403 27.1422L14.7598 29.4029L17.3301 30.0435C17.8083 30.1633 18.2769 30.2888 18.7382 30.4069L17.9208 33.6885L19.8937 34.1807L20.7032 30.934C21.2421 31.0802 21.7653 31.2152 22.2773 31.3423L21.4705 34.5739L23.4457 35.0661L24.2631 31.7907C27.6311 32.428 30.1638 32.1709 31.2298 29.125C32.0889 26.6725 31.1871 25.2578 29.415 24.3354C30.7055 24.0378 31.6776 23.189 31.937 21.4357V21.4357ZM27.4241 27.7632C26.8137 30.2157 22.684 28.8899 21.3451 28.5574L22.4297 24.2099C23.7686 24.544 28.062 25.2055 27.4241 27.7632ZM28.035 21.4003C27.4781 23.6311 24.0409 22.4977 22.9259 22.2198L23.9092 18.2767C25.0242 18.5546 28.615 19.0732 28.035 21.4003Z"
        fill="white" />
    <path
        d="M46.8 24C47.4627 24 48.0031 23.4624 47.97 22.8005C47.8079 19.5616 46.9908 16.3847 45.5635 13.4635C43.9603 10.1825 41.6295 7.31054 38.7486 5.06644C35.8677 2.82233 32.5127 1.26522 28.939 0.51371C25.7574 -0.155375 22.4772 -0.170192 19.2971 0.465288C18.6472 0.595157 18.2582 1.25068 18.4203 1.89327C18.5825 2.53586 19.2345 2.92183 19.8851 2.79558C22.7103 2.24731 25.6209 2.26842 28.4451 2.86234C31.6614 3.5387 34.6809 4.94009 37.2737 6.95979C39.8665 8.97949 41.9642 11.5642 43.4071 14.5172C44.6741 17.1102 45.4069 19.9271 45.5667 22.8006C45.6035 23.4623 46.1373 24 46.8 24Z"
        fill="#F7931A" />
    <path
        d="M12.6 43.7454C12.2686 44.3193 12.464 45.0561 13.0538 45.3584C15.8968 46.8155 19.006 47.6921 22.1996 47.9324C25.7927 48.2027 29.4005 47.6605 32.7554 46.346C36.1103 45.0315 39.1262 42.9785 41.5792 40.3392C43.7596 37.9934 45.4457 35.2379 46.5421 32.2373C46.7696 31.6148 46.4124 30.9414 45.7794 30.7453C45.1463 30.5492 44.4773 30.9049 44.2464 31.5261C43.2588 34.183 41.7564 36.6234 39.8213 38.7053C37.6136 41.0806 34.8993 42.9283 31.8799 44.1114C28.8605 45.2944 25.6134 45.7824 22.3797 45.5391C19.5454 45.3259 16.785 44.5557 14.2554 43.277C13.6639 42.978 12.9314 43.1714 12.6 43.7454Z"
        fill="#F7931A" />
    <path
        d="M12.6 4.25462C12.2686 3.68067 11.5328 3.48149 10.9762 3.84113C8.28656 5.57877 5.96829 7.83947 4.16163 10.493C2.12955 13.4776 0.797092 16.8823 0.263508 20.4533C-0.270077 24.0244 0.00896867 27.6698 1.07986 31.1181C2.03195 34.1838 3.58814 37.0234 5.65234 39.4714C6.07957 39.978 6.84145 40.0026 7.32612 39.5506C7.81079 39.0986 7.83443 38.3413 7.41002 37.8323C5.59055 35.6501 4.21687 33.1271 3.37187 30.4063C2.40807 27.3028 2.15693 24.022 2.63716 20.808C3.11738 17.594 4.3166 14.5298 6.14547 11.8437C7.7489 9.48867 9.80008 7.47744 12.178 5.92241C12.7326 5.55968 12.9314 4.82857 12.6 4.25462Z"
        fill="#F7931A" />
</svg>