<svg width="48" height="48" viewBox="0 0 48 48" fill="none" xmlns="http://www.w3.org/2000/svg">
<path fill-rule="evenodd" clip-rule="evenodd" d="M35.4003 4.25462C35.7316 3.68067 35.5362 2.94387 34.9464 2.6416C32.0604 1.16251 28.9006 0.281719 25.6571 0.0572642C22.0141 -0.194843 18.3615 0.387721 14.9776 1.76059C11.5937 3.13346 8.5677 5.26043 6.13006 7.97952C3.95979 10.4004 2.30684 13.2337 1.26714 16.3055C1.05467 16.9333 1.42785 17.5979 2.06545 17.7788C2.70304 17.9596 3.36328 17.588 3.57924 16.9614C4.51705 14.2405 5.99061 11.7305 7.91708 9.58157C10.111 7.13439 12.8344 5.22012 15.8799 3.98453C18.9254 2.74895 22.2127 2.22464 25.4915 2.45154C28.3706 2.65078 31.1764 3.42465 33.7449 4.72301C34.3364 5.02201 35.0689 4.82858 35.4003 4.25462ZM35.4003 43.7454C35.7316 44.3193 36.4674 44.5185 37.0241 44.1589C39.7074 42.4253 42.0212 40.171 43.8261 37.5254C45.8567 34.5488 47.1911 31.1532 47.7302 27.5906C48.2692 24.0279 47.9992 20.3896 46.9401 16.9455C45.9987 13.8843 44.4554 11.0465 42.405 8.59661C41.9797 8.08837 41.2179 8.06095 40.7316 8.51118C40.2452 8.9614 40.2188 9.71858 40.6413 10.2292C42.4484 12.4129 43.8106 14.9342 44.6461 17.651C45.5993 20.7506 45.8423 24.0251 45.3572 27.2315C44.872 30.4379 43.6711 33.4939 41.8435 36.1728C40.2417 38.5208 38.1946 40.5262 35.8223 42.0776C35.2676 42.4403 35.0689 43.1714 35.4003 43.7454ZM0.0302544 25.1995C-0.00286838 24.5376 0.53752 24 1.20026 24C1.863 24 2.39679 24.5377 2.43359 25.1994C2.59135 28.0362 3.30753 30.8182 4.54533 33.3843C5.95717 36.3113 8.01122 38.8819 10.5545 40.9048C13.0977 42.9276 16.0646 44.3506 19.2342 45.0676C22.013 45.6963 24.8848 45.7681 27.6844 45.2835C28.3374 45.1705 28.9814 45.5696 29.1305 46.2153C29.2797 46.8611 28.8774 47.5086 28.225 47.6252C25.073 48.1889 21.8357 48.1168 18.7046 47.4085C15.1829 46.6118 11.8863 45.0307 9.0605 42.7831C6.23466 40.5354 3.95238 37.6792 2.38367 34.427C0.988977 31.5357 0.19029 28.3976 0.0302544 25.1995Z" fill="#FDDE00"/>
<g clip-path="url(#clip0_4740_8475)">
<path d="M24 42C33.9411 42 42 33.9411 42 24C42 14.0589 33.9411 6 24 6C14.0589 6 6 14.0589 6 24C6 33.9411 14.0589 42 24 42Z" fill="#FDDE00"/>
<path d="M15.2391 18.7266C15.2391 18.7266 14.311 19.9008 14.6203 25.2094C14.6203 25.2094 12.5883 30.4125 13.2774 33.0704C13.9664 35.7211 16.6524 35.5875 16.6524 35.5875C16.6524 35.5875 20.9625 39.3774 24.2672 36.0375C27.5789 32.6907 21.511 19.7321 21.511 19.7321L20.7516 15.2532C20.7516 15.2532 19.9219 15.9071 20.0274 20.2172C20.1328 24.5274 18.3399 21.4899 18.3399 21.4899L15.2391 18.7266Z" fill="#3C2D0C"/>
<path d="M15.5835 23.4164L14.4445 26.6227L14.0296 28.8656C14.0296 28.8656 12.6163 33.8649 18.4452 33.7945C18.4452 33.7945 22.9945 37.8656 25.9617 35.1375L26.7562 34.2727L28.1343 32.1352L30.4124 25.343C30.4124 25.343 29.6882 20.6883 25.1038 18.7617C25.1038 18.7617 24.7242 18.5578 24.0351 18.832C24.0351 18.832 22.1367 14.557 20.9343 15.0774C20.9343 15.0774 19.9007 15.6258 20.7937 19.8375L19.1765 20.5617C19.1765 20.5617 17.4046 17.2008 15.7663 17.8758C14.2406 18.4875 15.5835 23.4164 15.5835 23.4164Z" fill="#E78C19"/>
<path d="M21.4755 17.1726L21.6161 19.0359C21.6161 19.0359 21.7216 20.1047 22.8536 19.725C23.1771 19.6195 23.4583 19.3945 23.4302 19.0289C23.4091 18.7547 23.2193 18.5015 23.0927 18.2695C22.8607 17.8265 22.6708 17.3554 22.3966 16.9265C22.256 16.7086 21.9677 16.2234 21.6513 16.2797C21.6513 16.2797 21.4122 16.2093 21.4755 17.1726Z" fill="#EFB99D"/>
<path d="M16.4976 19.268C16.5187 19.2539 16.9828 18.6703 17.9461 20.0906C18.9094 21.5109 18.8109 21.3281 18.8109 21.3281C18.8109 21.3281 19.3312 21.8976 18.2695 22.6289C18.0375 22.7976 17.7844 22.9383 17.5172 23.0508C17.3484 23.1141 17.1726 23.1492 16.9969 23.1492C16.7929 23.1422 16.7015 23.0367 16.6523 22.8469C16.4906 22.2281 16.3078 21.6094 16.2164 20.9766C16.1461 20.4844 16.0054 19.5844 16.4976 19.268Z" fill="#EFB99D"/>
<path d="M27.6912 22.1297C27.6912 22.4672 27.199 22.7414 26.5873 22.7414C25.9756 22.7414 25.4834 22.4672 25.4834 22.1297C25.4834 21.7922 25.9896 21.293 26.5943 21.293C27.199 21.293 27.6912 21.7922 27.6912 22.1297Z" fill="#FBFBFB"/>
<path d="M21.3251 24.7706C21.6522 24.1927 21.6159 23.5537 21.2441 23.3433C20.8724 23.1329 20.3059 23.4309 19.9789 24.0088C19.6518 24.5867 19.6881 25.2257 20.0598 25.4361C20.4316 25.6465 20.9981 25.3485 21.3251 24.7706Z" fill="#FBFBFB"/>
<path d="M22.8891 27.5648L25.9055 25.9968C25.9055 25.9968 29.6602 24.0351 30.5743 25.5468C31.4883 27.0586 30.5743 29.3718 30.5743 29.3718C30.5743 29.3718 30.1805 32.0789 27.4173 32.3179L25.9337 32.5218L24.0352 32.5711C24.0352 32.5711 20.9837 32.7468 18.7407 31.0875L18.0305 30.2226C18.0305 30.2226 16.6032 28.2609 17.6016 26.8476C18.6001 25.4343 22.0173 27.6211 22.0173 27.6211C22.0173 27.6211 22.4954 27.8812 22.8891 27.5648Z" fill="#FBFBFB"/>
<path d="M29.7301 19.746C30.1301 19.746 30.4543 19.4218 30.4543 19.0218C30.4543 18.6219 30.1301 18.2976 29.7301 18.2976C29.3301 18.2976 29.0059 18.6219 29.0059 19.0218C29.0059 19.4218 29.3301 19.746 29.7301 19.746Z" fill="#E72D36"/>
<path d="M28.1275 17.9672C28.5275 17.9672 28.8518 17.643 28.8518 17.243C28.8518 16.843 28.5275 16.5188 28.1275 16.5188C27.7276 16.5188 27.4033 16.843 27.4033 17.243C27.4033 17.643 27.7276 17.9672 28.1275 17.9672Z" fill="#E72D36"/>
<path d="M25.5611 17.3977C25.9611 17.3977 26.2854 17.0734 26.2854 16.6734C26.2854 16.2735 25.9611 15.9492 25.5611 15.9492C25.1612 15.9492 24.8369 16.2735 24.8369 16.6734C24.8369 17.0734 25.1612 17.3977 25.5611 17.3977Z" fill="#E72D36"/>
<path d="M26.1305 11.5405C26.2852 13.678 25.9758 15.6116 25.4555 15.6116C24.9352 15.6116 24.2461 13.5233 24.2461 11.5405C24.2461 10.7249 24.675 10.5913 25.1953 10.5913C25.7227 10.5913 26.0742 10.7249 26.1305 11.5405Z" fill="#E72D36"/>
<path d="M30.9259 12.8695C30.1384 14.8594 29.0204 16.4695 28.5563 16.2445C28.0923 16.0195 28.3735 13.8399 29.2384 12.0539C29.597 11.3156 30.0399 11.386 30.504 11.611C30.968 11.843 31.2282 12.1102 30.9259 12.8695Z" fill="#E72D36"/>
<path d="M34.3569 16.7508C32.6202 18.0094 30.8202 18.7688 30.5459 18.3258C30.2717 17.8828 31.685 16.2024 33.3655 15.1547C34.0616 14.7258 34.3991 15.0211 34.6733 15.4571C34.9405 15.9 35.0178 16.2657 34.3569 16.7508Z" fill="#E72D36"/>
<path d="M22.7482 25.4625C22.685 25.4695 22.6217 25.4765 22.5584 25.4836C22.5654 25.5047 22.5725 25.5258 22.5725 25.5539C22.5725 25.7719 22.2279 25.9547 21.799 25.9687C21.799 25.9898 21.792 26.0039 21.799 26.025C21.8201 26.2922 22.2842 26.475 22.8256 26.4328C23.374 26.3906 23.8029 26.1375 23.7818 25.8703C23.7537 25.6031 23.2967 25.4203 22.7482 25.4625Z" fill="black"/>
<path d="M26.5593 24.5203C26.496 24.5274 26.4327 24.5344 26.3694 24.5414C26.3765 24.5625 26.3835 24.5836 26.3835 24.6117C26.3835 24.8297 26.039 25.0125 25.6101 25.0266C25.6101 25.0477 25.603 25.0617 25.6101 25.0828C25.6312 25.35 26.0952 25.5328 26.6366 25.4906C27.1851 25.4485 27.614 25.1953 27.5929 24.9281C27.5718 24.661 27.1077 24.4781 26.5593 24.5203Z" fill="black"/>
<path d="M27.811 25.6382C27.811 25.6382 26.2993 26.0812 26.3907 26.932C26.4821 27.7828 28.3032 28.2257 28.3032 28.2257C28.3032 28.2257 28.7954 28.4226 29.0766 27.9515C29.3579 27.4875 29.7727 26.8546 29.6602 25.9476C29.6602 25.9476 29.6251 25.2726 27.811 25.6382Z" fill="black"/>
</g>
<defs>
<clipPath id="clip0_4740_8475">
<rect width="36" height="36" fill="white" transform="translate(6 6)"/>
</clipPath>
</defs>
</svg>
