<svg width="48" height="48" viewBox="0 0 48 48" fill="none" xmlns="http://www.w3.org/2000/svg">
<path fill-rule="evenodd" clip-rule="evenodd" d="M35.4003 4.25462C35.7316 3.68067 35.5362 2.94387 34.9464 2.6416C32.0604 1.16251 28.9006 0.281719 25.6571 0.0572642C22.0141 -0.194843 18.3615 0.387721 14.9776 1.76059C11.5937 3.13346 8.5677 5.26043 6.13006 7.97952C3.95979 10.4004 2.30684 13.2337 1.26714 16.3055C1.05467 16.9333 1.42785 17.5979 2.06545 17.7788C2.70304 17.9596 3.36328 17.588 3.57924 16.9614C4.51705 14.2405 5.99061 11.7305 7.91708 9.58157C10.111 7.13439 12.8344 5.22012 15.8799 3.98453C18.9254 2.74895 22.2127 2.22464 25.4915 2.45154C28.3706 2.65078 31.1764 3.42465 33.7449 4.72301C34.3364 5.02201 35.0689 4.82858 35.4003 4.25462ZM35.4003 43.7454C35.7316 44.3193 36.4674 44.5185 37.0241 44.1589C39.7074 42.4253 42.0212 40.171 43.8261 37.5254C45.8567 34.5488 47.1911 31.1532 47.7302 27.5906C48.2692 24.0279 47.9992 20.3896 46.9401 16.9455C45.9987 13.8843 44.4554 11.0465 42.405 8.59661C41.9797 8.08837 41.2179 8.06095 40.7316 8.51118C40.2452 8.9614 40.2188 9.71858 40.6413 10.2292C42.4484 12.4129 43.8106 14.9342 44.6461 17.651C45.5993 20.7506 45.8423 24.0251 45.3572 27.2315C44.872 30.4379 43.6711 33.4939 41.8435 36.1728C40.2417 38.5208 38.1946 40.5262 35.8223 42.0776C35.2676 42.4403 35.0689 43.1714 35.4003 43.7454ZM0.0302544 25.1995C-0.00286838 24.5376 0.53752 24 1.20026 24C1.863 24 2.39679 24.5377 2.43359 25.1994C2.59135 28.0362 3.30753 30.8182 4.54533 33.3843C5.95717 36.3113 8.01122 38.8819 10.5545 40.9048C13.0977 42.9276 16.0646 44.3506 19.2342 45.0676C22.013 45.6963 24.8848 45.7681 27.6844 45.2835C28.3374 45.1705 28.9814 45.5696 29.1305 46.2153C29.2797 46.8611 28.8774 47.5086 28.225 47.6252C25.073 48.1889 21.8357 48.1168 18.7046 47.4085C15.1829 46.6118 11.8863 45.0307 9.0605 42.7831C6.23466 40.5354 3.95238 37.6792 2.38367 34.427C0.988977 31.5357 0.19029 28.3976 0.0302544 25.1995Z" fill="#F5AC37"/>
<path d="M24 6C33.942 6 42 14.0596 42 24C42 33.942 33.942 42 24 42C14.0596 42 6 33.9412 6 24C6 14.0596 14.0596 6 24 6Z" fill="#F5AC37"/>
<path d="M24.6633 25.2709L31.503 25.2709C31.6488 25.2709 31.7177 25.2709 31.7282 25.0798C31.7841 24.384 31.7841 23.6841 31.7282 22.9875C31.7282 22.8522 31.661 22.7964 31.5143 22.7964L17.9022 22.7964C17.7337 22.7964 17.6883 22.8522 17.6883 23.0102V25.0125C17.6883 25.2709 17.6883 25.2709 17.958 25.2709H24.6633ZM30.9643 20.4562C30.9838 20.4052 30.9838 20.3493 30.9643 20.2991C30.8501 20.0504 30.7149 19.8131 30.5577 19.5903C30.3212 19.2096 30.0426 18.8589 29.725 18.5438C29.5752 18.3535 29.4018 18.1825 29.2074 18.0376C28.2338 17.2089 27.0763 16.6225 25.8321 16.3276C25.2044 16.1867 24.5629 16.1195 23.9197 16.1251H17.8787C17.7102 16.1251 17.6875 16.1924 17.6875 16.339V20.3323C17.6875 20.5008 17.6875 20.5462 17.9013 20.5462L30.8833 20.5462C30.8833 20.5462 30.9959 20.5235 31.0186 20.4562H30.9635H30.9643ZM30.9643 27.611C30.7732 27.59 30.5804 27.59 30.3892 27.611L17.9135 27.611C17.745 27.611 17.6883 27.611 17.6883 27.8362V31.7405C17.6883 31.9203 17.6883 31.9656 17.9135 31.9656L23.6735 31.9656C23.9489 31.9867 24.2243 31.9673 24.494 31.9098C25.3299 31.8498 26.1521 31.6684 26.9362 31.3695C27.2213 31.2707 27.4967 31.1419 27.7567 30.9872H27.8353C29.1856 30.2849 30.2823 29.1816 30.9741 27.8273C30.9741 27.8273 31.0526 27.6572 30.9643 27.6127V27.611ZM15.4276 33.9899V33.9226V31.3014V30.4129L15.4276 27.769C15.4276 27.6224 15.4276 27.6005 15.2478 27.6005H12.8064C12.6711 27.6005 12.6152 27.6005 12.6152 27.4207V25.2831H15.2251C15.3709 25.2831 15.4276 25.2831 15.4276 25.0919V22.977C15.4276 22.8417 15.4276 22.8085 15.2478 22.8085H12.8064C12.6711 22.8085 12.6152 22.8085 12.6152 22.6287V20.649C12.6152 20.5251 12.6152 20.4919 12.7951 20.4919H15.2137C15.3822 20.4919 15.4276 20.4919 15.4276 20.278V14.2143C15.4276 14.0345 15.4276 13.9891 15.6528 13.9891L24.0898 13.9891C24.7022 14.0134 25.3105 14.0807 25.9123 14.1916C27.1525 14.4209 28.344 14.8639 29.4334 15.4966C30.156 15.9218 30.821 16.4354 31.4131 17.0267C31.8586 17.4892 32.2604 17.9898 32.6168 18.5228C32.9707 19.063 33.2648 19.6406 33.4956 20.244C33.524 20.4012 33.6746 20.5073 33.8318 20.4805H35.8455C36.1038 20.4805 36.1038 20.4805 36.1152 20.7284V22.5736C36.1152 22.7534 36.048 22.7988 35.8673 22.7988H34.3145C34.1574 22.7988 34.112 22.7988 34.1234 23.0013C34.1849 23.6866 34.1849 24.3743 34.1234 25.0595C34.1234 25.2507 34.1234 25.2734 34.338 25.2734H36.1144C36.1929 25.3746 36.1144 25.4759 36.1144 25.5779C36.1257 25.7083 36.1257 25.8404 36.1144 25.9708V27.3324C36.1144 27.5236 36.0585 27.5803 35.8892 27.5803H33.7629C33.6147 27.5519 33.4705 27.6467 33.4365 27.7941C32.9302 29.1104 32.1202 30.2905 31.0737 31.2366C30.6914 31.5809 30.2896 31.9049 29.87 32.2038C29.4197 32.463 28.9814 32.7327 28.5197 32.9466C27.67 33.3289 26.779 33.6108 25.8645 33.7898C24.9962 33.9453 24.1157 34.0158 23.232 34.0036H15.4243V33.9923L15.4276 33.9899Z" fill="#FEFEFD"/>
</svg>
