<svg width="256" height="256" viewBox="0 0 256 256" fill="none" xmlns="http://www.w3.org/2000/svg">
<g clip-path="url(#clip0_1430_60)">
<path d="M42.4136 151.739C38.1187 147.443 35.2384 142.482 33.7727 136.857C32.3411 131.197 32.3411 125.538 33.7727 119.878C35.2384 114.185 38.1017 109.207 42.3625 104.946C46.6914 100.615 51.6851 97.7346 57.3435 96.3029C63.0019 94.8707 68.6602 94.8707 74.3186 96.3029C79.977 97.7346 84.9537 100.598 89.2484 104.894L99.8835 115.531L115.631 99.7803L104.996 89.143C100.701 84.8475 97.8212 79.8869 96.3555 74.2614C94.9238 68.6019 94.9067 62.9595 96.3044 57.3341C97.7361 51.6746 100.617 46.6799 104.945 42.3501C109.24 38.0543 114.217 35.1905 119.875 33.7586C125.533 32.3267 131.175 32.3437 136.799 33.8097C142.457 35.2416 147.434 38.1055 151.729 42.4012C156.024 46.697 158.887 51.6746 160.319 57.3341C161.785 62.9595 161.801 68.6019 160.37 74.2614C158.972 79.955 156.126 84.9496 151.831 89.2456L141.247 99.8313L156.944 115.531L167.528 104.946C171.823 100.65 176.783 97.7686 182.407 96.3029C188.065 94.8707 193.706 94.8878 199.331 96.3539C204.989 97.7857 209.983 100.667 214.312 104.997C218.607 109.292 221.47 114.27 222.901 119.929C224.367 125.555 224.367 131.18 222.901 136.806C221.47 142.465 218.607 147.443 214.312 151.739C209.983 156.068 204.989 158.949 199.331 160.381C193.706 161.779 188.065 161.762 182.407 160.33C176.817 158.898 171.874 156.034 167.579 151.739L156.995 141.152L141.247 156.903L151.831 167.49C156.126 171.785 158.972 176.746 160.37 182.371C161.801 188.031 161.801 193.69 160.37 199.35C158.938 205.009 156.058 210.004 151.729 214.334C147.468 218.595 142.491 221.459 136.799 222.925C131.141 224.357 125.482 224.357 119.824 222.925C114.234 221.493 109.291 218.629 104.996 214.334C100.667 210.004 97.7701 205.026 96.3044 199.401C94.8727 193.741 94.8727 188.082 96.3044 182.422C97.8042 176.763 100.685 171.802 104.945 167.541L115.631 156.852L99.9345 141.152L89.2484 151.841C84.9877 156.102 79.994 158.949 74.2674 160.381C68.6091 161.813 62.9508 161.813 57.2924 160.381C51.6682 158.915 46.7085 156.034 42.4136 151.739ZM55.196 138.954C57.1389 140.897 59.3887 142.192 61.9452 142.84C64.5357 143.522 67.1093 143.539 69.6658 142.891C72.2223 142.243 74.472 140.948 76.4149 139.005L87.1011 128.316L76.466 117.679C74.5231 115.736 72.2564 114.457 69.6658 113.844C67.1093 113.196 64.5528 113.196 61.9963 113.844C59.4398 114.491 57.1731 115.804 55.196 117.782C53.2531 119.725 51.9408 121.958 51.2591 124.481C50.6115 127.038 50.6115 129.595 51.2591 132.152C51.9408 134.743 53.2531 137.01 55.196 138.954ZM117.779 76.358L128.414 86.9953L138.998 76.4091C140.975 74.4319 142.27 72.1817 142.884 69.6588C143.531 67.1018 143.514 64.5277 142.833 61.9366C142.185 59.3796 140.889 57.1295 138.946 55.1862C137.004 53.2429 134.754 51.9473 132.197 51.2995C129.641 50.6518 127.085 50.6518 124.528 51.2995C122.006 51.9132 119.756 53.2087 117.779 55.1862C115.836 57.1295 114.506 59.3796 113.791 61.9366C113.143 64.4936 113.143 67.0506 113.791 69.6076C114.506 72.1646 115.836 74.4148 117.779 76.358ZM166.783 128.367L177.367 138.954C179.31 140.897 181.543 142.209 184.065 142.891C186.622 143.539 192.156 143.522 194.678 142.84C197.234 142.192 199.501 140.88 201.478 138.902C203.455 136.925 204.75 134.675 205.364 132.152C206.046 129.629 206.063 127.089 205.415 124.532C204.768 121.975 203.472 119.725 201.53 117.782C199.552 115.804 197.285 114.491 194.729 113.844C192.173 113.196 186.622 113.196 184.065 113.844C181.577 114.491 179.344 115.804 177.367 117.782L166.783 128.367ZM117.779 201.549C119.722 203.492 121.972 204.788 124.528 205.435C127.085 206.083 129.624 206.066 132.146 205.384C134.703 204.736 136.953 203.441 138.895 201.498C140.872 199.52 142.185 197.253 142.833 194.696C143.514 192.173 143.531 189.633 142.884 187.076C142.27 184.485 140.992 182.218 139.049 180.275L128.465 169.688L117.779 180.377C115.836 182.32 114.523 184.553 113.842 187.076C113.194 189.633 113.194 192.19 113.842 194.747C114.489 197.304 115.802 199.571 117.779 201.549ZM112.717 128.367L128.414 144.067L144.162 128.316L128.465 112.616L112.717 128.367Z" fill="#F1E1D4"/>
</g>
<g clip-path="url(#clip1_1430_60)">
<path d="M249.6 128C253.134 128 256.016 125.133 255.84 121.603C254.975 104.329 250.617 87.3851 243.005 71.8053C234.455 54.3067 222.024 38.9896 206.659 27.021C191.294 15.0524 173.401 6.74784 154.341 2.73979C137.373 -0.828665 119.878 -0.907689 102.918 2.48154C99.4515 3.17417 97.3768 6.67029 98.2414 10.0974C99.1064 13.5246 102.584 15.5831 106.054 14.9098C121.121 11.9857 136.645 12.0982 151.707 15.2658C168.861 18.8731 184.965 26.3472 198.793 37.1189C212.621 47.8906 223.809 61.6757 231.504 77.4251C238.262 91.2544 242.17 106.278 243.022 121.603C243.218 125.132 246.065 128 249.6 128Z" fill="#F1E1D4"/>
<path d="M67.2001 233.309C65.4326 236.37 66.4747 240.3 69.6203 241.912C84.783 249.683 101.365 254.358 118.398 255.64C137.561 257.082 156.803 254.19 174.696 247.179C192.588 240.169 208.673 229.219 221.756 215.143C233.385 202.632 242.377 187.936 248.225 171.933C249.438 168.613 247.533 165.021 244.157 163.975C240.78 162.93 237.212 164.827 235.981 168.14C230.714 182.31 222.701 195.325 212.38 206.429C200.606 219.097 186.13 228.951 170.026 235.261C153.923 241.571 136.605 244.173 119.358 242.876C104.242 241.739 89.5201 237.631 76.0289 230.811C72.8742 229.217 68.9675 230.248 67.2001 233.309Z" fill="#F1E1D4"/>
<path d="M67.2 22.6921C65.4325 19.631 61.5083 18.5687 58.5397 20.4868C44.195 29.7542 31.8309 41.8113 22.1954 55.9635C11.3576 71.8813 4.25117 90.0397 1.40539 109.085C-1.4404 128.131 0.0478427 147.573 5.75926 165.964C10.8371 182.314 19.1368 197.459 30.1458 210.515C32.4244 213.217 36.4877 213.348 39.0726 210.937C41.6576 208.527 41.7836 204.488 39.5201 201.773C29.8163 190.135 22.49 176.679 17.9833 162.168C12.843 145.616 11.5036 128.118 14.0649 110.977C16.626 93.8355 23.0219 77.4931 32.7758 63.1672C41.3275 50.607 52.2671 39.8805 64.9493 31.587C67.9072 29.6524 68.9675 25.7532 67.2 22.6921Z" fill="#F1E1D4"/>
</g>
<defs>
<clipPath id="clip0_1430_60">
<rect width="192" height="192" fill="white" transform="translate(32 32)"/>
</clipPath>
<clipPath id="clip1_1430_60">
<rect width="256" height="256" fill="white"/>
</clipPath>
</defs>
</svg>
