<svg width="48" height="48" viewBox="0 0 48 48" fill="none" xmlns="http://www.w3.org/2000/svg">
<path fill-rule="evenodd" clip-rule="evenodd" d="M35.4003 4.25462C35.7316 3.68067 35.5362 2.94387 34.9464 2.6416C32.0604 1.16251 28.9006 0.281719 25.6571 0.0572642C22.0141 -0.194843 18.3615 0.387721 14.9776 1.76059C11.5937 3.13346 8.5677 5.26043 6.13006 7.97952C3.95979 10.4004 2.30684 13.2337 1.26714 16.3055C1.05467 16.9333 1.42785 17.5979 2.06545 17.7788C2.70304 17.9596 3.36328 17.588 3.57924 16.9614C4.51705 14.2405 5.99061 11.7305 7.91708 9.58157C10.111 7.13439 12.8344 5.22012 15.8799 3.98453C18.9254 2.74895 22.2127 2.22464 25.4915 2.45154C28.3706 2.65078 31.1764 3.42465 33.7449 4.72301C34.3364 5.02201 35.0689 4.82858 35.4003 4.25462ZM35.4003 43.7454C35.7316 44.3193 36.4674 44.5185 37.0241 44.1589C39.7074 42.4253 42.0212 40.171 43.8261 37.5254C45.8567 34.5488 47.1911 31.1532 47.7302 27.5906C48.2692 24.0279 47.9992 20.3896 46.9401 16.9455C45.9987 13.8843 44.4554 11.0465 42.405 8.59661C41.9797 8.08837 41.2179 8.06095 40.7316 8.51118C40.2452 8.9614 40.2188 9.71858 40.6413 10.2292C42.4484 12.4129 43.8106 14.9342 44.6461 17.651C45.5993 20.7506 45.8423 24.0251 45.3572 27.2315C44.872 30.4379 43.6711 33.4939 41.8435 36.1728C40.2417 38.5208 38.1946 40.5262 35.8223 42.0776C35.2676 42.4403 35.0689 43.1714 35.4003 43.7454ZM0.0302544 25.1995C-0.00286838 24.5376 0.53752 24 1.20026 24C1.863 24 2.39679 24.5377 2.43359 25.1994C2.59135 28.0362 3.30753 30.8182 4.54533 33.3843C5.95717 36.3113 8.01122 38.8819 10.5545 40.9048C13.0977 42.9276 16.0646 44.3506 19.2342 45.0676C22.013 45.6963 24.8848 45.7681 27.6844 45.2835C28.3374 45.1705 28.9814 45.5696 29.1305 46.2153C29.2797 46.8611 28.8774 47.5086 28.225 47.6252C25.073 48.1889 21.8357 48.1168 18.7046 47.4085C15.1829 46.6118 11.8863 45.0307 9.0605 42.7831C6.23466 40.5354 3.95238 37.6792 2.38367 34.427C0.988977 31.5357 0.19029 28.3976 0.0302544 25.1995Z" fill="#575757"/>
<path d="M23.9973 41.961C33.9175 41.961 41.9594 33.9191 41.9594 23.9989C41.9594 14.0787 33.9175 6.03674 23.9973 6.03674C14.0771 6.03674 6.03516 14.0787 6.03516 23.9989C6.03516 33.9191 14.0771 41.961 23.9973 41.961Z" fill="black" stroke="black" stroke-width="0.927975" stroke-miterlimit="11.3386"/>
<path d="M14.0886 14.0079C13.3312 14.8032 12.7064 15.4722 12.7001 15.4848C12.6938 15.5037 13.3754 16.1727 14.2148 16.968C15.0542 17.7695 15.7863 18.4701 15.8368 18.5142L15.9315 18.6026L15.7611 18.8866C14.2653 21.3607 13.956 24.3396 14.8964 27.0788C15.0731 27.5963 15.3761 28.259 15.6349 28.6945C15.7611 28.9091 15.8179 29.0479 15.8053 29.0732C15.7926 29.0984 15.029 29.9063 14.1075 30.8719C13.186 31.8312 12.435 32.6328 12.4224 32.6454C12.4161 32.6643 14.9974 35.1573 15.2436 35.3593L15.3382 35.4413L16.7961 33.9203C17.5977 33.0809 18.3487 32.2919 18.4623 32.172L18.6769 31.9574L18.8789 32.0837C19.9076 32.7401 21.1131 33.1945 22.4448 33.4343C23.1138 33.5542 24.3887 33.5858 25.1019 33.4974C26.4778 33.3396 27.841 32.8789 28.9581 32.2036L29.2485 32.0269L29.5577 32.3298C30.233 32.9862 32.7576 35.3845 32.7828 35.3971C32.8081 35.4098 35.5788 32.5128 35.5724 32.475C35.5661 32.456 33.6664 30.6321 32.5051 29.5402L32.1201 29.1741L32.2968 28.8838C33.78 26.4161 34.0893 23.4245 33.1299 20.6664C32.9911 20.2625 32.5682 19.3537 32.3221 18.9371L32.2022 18.7288L33.8242 17.0311C34.7141 16.1033 35.4399 15.327 35.4336 15.3081C35.4083 15.245 32.5682 12.5626 32.5304 12.5626C32.5051 12.5626 31.7919 13.2884 30.9399 14.1847C30.0879 15.0746 29.381 15.8067 29.3621 15.813C29.3494 15.8193 29.2674 15.7814 29.1917 15.7246C28.9771 15.5795 28.4343 15.2828 28.1313 15.144C27.2099 14.7211 26.3515 14.4624 25.3544 14.3172C24.8368 14.2415 23.2842 14.2288 22.8046 14.2983C21.6559 14.4624 20.7155 14.7464 19.7562 15.226C19.4785 15.3586 19.1566 15.5353 19.0304 15.611L18.8032 15.7499L18.5444 15.4974C18.4055 15.3586 17.7744 14.7653 17.1496 14.1657C16.5248 13.5725 15.8873 12.9666 15.7358 12.8151L15.4581 12.5437L14.0886 14.0079ZM24.6853 18.1229C25.6889 18.2429 26.5851 18.5837 27.4119 19.1643C27.8347 19.461 28.4659 20.0921 28.7625 20.515C30.4476 22.9006 30.1257 26.1447 28.0051 28.1328C26.1938 29.8242 23.5745 30.2029 21.3719 29.0795C19.7814 28.2653 18.658 26.7758 18.2983 24.9897C18.1846 24.4217 18.1846 23.3614 18.2983 22.7997C18.4055 22.2443 18.5507 21.8466 18.8221 21.2912C19.9076 19.1075 22.2618 17.8326 24.6853 18.1229Z" fill="white"/>
</svg>
