<svg width="48" height="48" viewBox="0 0 48 48" fill="none" xmlns="http://www.w3.org/2000/svg">
<path fill-rule="evenodd" clip-rule="evenodd" d="M35.4003 4.25462C35.7316 3.68067 35.5362 2.94387 34.9464 2.6416C32.0604 1.16251 28.9006 0.281719 25.6571 0.0572642C22.0141 -0.194843 18.3615 0.387721 14.9776 1.76059C11.5937 3.13346 8.5677 5.26043 6.13006 7.97952C3.95979 10.4004 2.30684 13.2337 1.26714 16.3055C1.05467 16.9333 1.42785 17.5979 2.06545 17.7788C2.70304 17.9596 3.36328 17.588 3.57924 16.9614C4.51705 14.2405 5.99061 11.7305 7.91708 9.58157C10.111 7.13439 12.8344 5.22012 15.8799 3.98453C18.9254 2.74895 22.2127 2.22464 25.4915 2.45154C28.3706 2.65078 31.1764 3.42465 33.7449 4.72301C34.3364 5.02201 35.0689 4.82858 35.4003 4.25462ZM35.4003 43.7454C35.7316 44.3193 36.4674 44.5185 37.0241 44.1589C39.7074 42.4253 42.0212 40.171 43.8261 37.5254C45.8567 34.5488 47.1911 31.1532 47.7302 27.5906C48.2692 24.0279 47.9992 20.3896 46.9401 16.9455C45.9987 13.8843 44.4554 11.0465 42.405 8.59661C41.9797 8.08837 41.2179 8.06095 40.7316 8.51118C40.2452 8.9614 40.2188 9.71858 40.6413 10.2292C42.4484 12.4129 43.8106 14.9342 44.6461 17.651C45.5993 20.7506 45.8423 24.0251 45.3572 27.2315C44.872 30.4379 43.6711 33.4939 41.8435 36.1728C40.2417 38.5208 38.1946 40.5262 35.8223 42.0776C35.2676 42.4403 35.0689 43.1714 35.4003 43.7454ZM0.0302544 25.1995C-0.00286838 24.5376 0.53752 24 1.20026 24C1.863 24 2.39679 24.5377 2.43359 25.1994C2.59135 28.0362 3.30753 30.8182 4.54533 33.3843C5.95717 36.3113 8.01122 38.8819 10.5545 40.9048C13.0977 42.9276 16.0646 44.3506 19.2342 45.0676C22.013 45.6963 24.8848 45.7681 27.6844 45.2835C28.3374 45.1705 28.9814 45.5696 29.1305 46.2153C29.2797 46.8611 28.8774 47.5086 28.225 47.6252C25.073 48.1889 21.8357 48.1168 18.7046 47.4085C15.1829 46.6118 11.8863 45.0307 9.0605 42.7831C6.23466 40.5354 3.95238 37.6792 2.38367 34.427C0.988977 31.5357 0.19029 28.3976 0.0302544 25.1995Z" fill="white"/>
<g clip-path="url(#clip0_4702_9123)">
<path d="M24 42C21.5705 42 19.2133 41.5237 16.9933 40.5852C14.8495 39.6784 12.9254 38.3804 11.2719 36.7281C9.61956 35.0758 8.3216 33.1505 7.4148 31.0067C6.47626 28.7867 6 26.4295 6 24C6 21.5705 6.47626 19.2133 7.4148 16.9933C8.3216 14.8495 9.61956 12.9254 11.2719 11.2719C12.9254 9.61956 14.8495 8.3216 16.9933 7.4148C19.2133 6.47626 21.5705 6 24 6C26.4295 6 28.7867 6.47626 31.0067 7.4148C33.1505 8.3216 35.0746 9.61956 36.7281 11.2719C38.3804 12.9242 39.6784 14.8495 40.5852 16.9933C41.5237 19.2133 42 21.5705 42 24C42 26.4295 41.5237 28.7867 40.5852 31.0067C39.6784 33.1505 38.3804 35.0746 36.7281 36.7281C35.0758 38.3804 33.1505 39.6784 31.0067 40.5852C28.7867 41.525 26.4295 42 24 42Z" fill="white"/>
<path d="M23.9998 41.0463C33.4142 41.0463 41.046 33.4144 41.046 24.0001C41.046 14.5857 33.4142 6.95386 23.9998 6.95386C14.5855 6.95386 6.95361 14.5857 6.95361 24.0001C6.95361 33.4144 14.5855 41.0463 23.9998 41.0463Z" fill="black"/>
<path d="M24.4189 20.7983V28.6521L32.1077 23.9924L24.4189 20.7983Z" fill="white"/>
<path d="M24.4189 19.9119L32.0378 23.0781L30.2166 20.1088L34.0889 16.2365L31.7749 13.9212L28.4576 17.2398L24.4189 10.656V19.9119Z" fill="white"/>
<path d="M23.6008 28.6521V20.7983L15.9121 23.9924L23.6008 28.6521Z" fill="white"/>
<path d="M15.9822 23.0781L23.6011 19.9119V10.656L19.5637 17.2398L16.2451 13.9212L13.9312 16.2365L17.8034 20.1075L15.9822 23.0781Z" fill="white"/>
<path d="M32.0213 26.4373L24.4189 31.0449V37.1473L27.547 32.7391L30.8122 36.0043L33.1262 33.6903L29.4685 30.0327L32.0213 26.4373Z" fill="white"/>
<path d="M23.6013 31.0449L15.999 26.4373L18.5517 30.0327L14.894 33.6903L17.208 36.0043L20.4732 32.7404L23.6013 37.1461V31.0449Z" fill="white"/>
</g>
<defs>
<clipPath id="clip0_4702_9123">
<rect width="36" height="36" fill="white" transform="translate(6 6)"/>
</clipPath>
</defs>
</svg>
