<svg width="48" height="48" viewBox="0 0 48 48" fill="none" xmlns="http://www.w3.org/2000/svg">
<path fill-rule="evenodd" clip-rule="evenodd" d="M35.4003 4.25462C35.7316 3.68067 35.5362 2.94387 34.9464 2.6416C32.0604 1.16251 28.9006 0.281719 25.6571 0.0572642C22.0141 -0.194843 18.3615 0.387721 14.9776 1.76059C11.5937 3.13346 8.5677 5.26043 6.13006 7.97952C3.95979 10.4004 2.30684 13.2337 1.26714 16.3055C1.05467 16.9333 1.42785 17.5979 2.06545 17.7788C2.70304 17.9596 3.36328 17.588 3.57924 16.9614C4.51705 14.2405 5.99061 11.7305 7.91708 9.58157C10.111 7.13439 12.8344 5.22012 15.8799 3.98453C18.9254 2.74895 22.2127 2.22464 25.4915 2.45154C28.3706 2.65078 31.1764 3.42465 33.7449 4.72301C34.3364 5.02201 35.0689 4.82858 35.4003 4.25462ZM35.4003 43.7454C35.7316 44.3193 36.4674 44.5185 37.0241 44.1589C39.7074 42.4253 42.0212 40.171 43.8261 37.5254C45.8567 34.5488 47.1911 31.1532 47.7302 27.5906C48.2692 24.0279 47.9992 20.3896 46.9401 16.9455C45.9987 13.8843 44.4554 11.0465 42.405 8.59661C41.9797 8.08837 41.2179 8.06095 40.7316 8.51118C40.2452 8.9614 40.2188 9.71858 40.6413 10.2292C42.4484 12.4129 43.8106 14.9342 44.6461 17.651C45.5993 20.7506 45.8423 24.0251 45.3572 27.2315C44.872 30.4379 43.6711 33.4939 41.8435 36.1728C40.2417 38.5208 38.1946 40.5262 35.8223 42.0776C35.2676 42.4403 35.0689 43.1714 35.4003 43.7454ZM0.0302544 25.1995C-0.00286838 24.5376 0.53752 24 1.20026 24C1.863 24 2.39679 24.5377 2.43359 25.1994C2.59135 28.0362 3.30753 30.8182 4.54533 33.3843C5.95717 36.3113 8.01122 38.8819 10.5545 40.9048C13.0977 42.9276 16.0646 44.3506 19.2342 45.0676C22.013 45.6963 24.8848 45.7681 27.6844 45.2835C28.3374 45.1705 28.9814 45.5696 29.1305 46.2153C29.2797 46.8611 28.8774 47.5086 28.225 47.6252C25.073 48.1889 21.8357 48.1168 18.7046 47.4085C15.1829 46.6118 11.8863 45.0307 9.0605 42.7831C6.23466 40.5354 3.95238 37.6792 2.38367 34.427C0.988977 31.5357 0.19029 28.3976 0.0302544 25.1995Z" fill="#0090FF"/>
<g clip-path="url(#clip0_4702_9015)">
<path fill-rule="evenodd" clip-rule="evenodd" d="M24 41.9999C14.1 41.9999 6 33.8999 6 23.9099C6.09 14.0099 14.1 5.90989 24.09 5.99989C33.99 6.08989 42 14.0999 42 24.1799C41.91 33.9899 33.9 41.9999 24 41.9999Z" fill="#0090FF"/>
<path fill-rule="evenodd" clip-rule="evenodd" d="M25.7099 21.84L25.1699 24.72L30.2999 25.44L29.9399 26.79L24.8999 26.07C24.5399 27.24 24.3599 28.5 23.9099 29.58C23.4599 30.84 23.0099 32.1 22.4699 33.27C21.7499 34.8 20.4899 35.88 18.7799 36.15C17.7899 36.33 16.7099 36.24 15.8999 35.61C15.6299 35.43 15.3599 35.07 15.3599 34.8C15.3599 34.44 15.5399 33.99 15.8099 33.81C15.9899 33.72 16.4399 33.81 16.7099 33.9C16.9799 34.17 17.2499 34.53 17.4299 34.89C17.9699 35.61 18.6899 35.7 19.4099 35.16C20.2199 34.44 20.6699 33.45 20.9399 32.46C21.4799 30.3 22.0199 28.23 22.4699 26.07V25.71L17.6999 24.99L17.8799 23.64L22.8299 24.36L23.4599 21.57L18.3299 20.76L18.5099 19.32L23.8199 20.04C23.9999 19.5 24.0899 19.05 24.2699 18.6C24.7199 16.98 25.1699 15.36 26.2499 13.92C27.3299 12.48 28.5899 11.58 30.4799 11.67C31.2899 11.67 32.0999 11.94 32.6399 12.57C32.7299 12.66 32.9099 12.84 32.9099 13.02C32.9099 13.38 32.9099 13.83 32.6399 14.1C32.2799 14.37 31.8299 14.28 31.4699 13.92C31.1999 13.65 31.0199 13.38 30.7499 13.11C30.2099 12.39 29.3999 12.3 28.7699 12.93C28.3199 13.38 27.8699 14.01 27.5999 14.64C26.9699 16.53 26.5199 18.51 25.8899 20.49L30.8399 21.21L30.4799 22.56L25.7099 21.84Z" fill="white"/>
</g>
<defs>
<clipPath id="clip0_4702_9015">
<rect width="36" height="36" fill="white" transform="translate(6 6)"/>
</clipPath>
</defs>
</svg>
