<svg width="48" height="48" viewBox="0 0 48 48" fill="none" xmlns="http://www.w3.org/2000/svg">
<path fill-rule="evenodd" clip-rule="evenodd" d="M35.4003 4.25462C35.7316 3.68067 35.5362 2.94387 34.9464 2.6416C32.0604 1.16251 28.9006 0.281719 25.6571 0.0572642C22.0141 -0.194843 18.3615 0.387721 14.9776 1.76059C11.5937 3.13346 8.5677 5.26043 6.13006 7.97952C3.95979 10.4004 2.30684 13.2337 1.26714 16.3055C1.05467 16.9333 1.42785 17.5979 2.06545 17.7788C2.70304 17.9596 3.36328 17.588 3.57924 16.9614C4.51705 14.2405 5.99061 11.7305 7.91708 9.58157C10.111 7.13439 12.8344 5.22012 15.8799 3.98453C18.9254 2.74895 22.2127 2.22464 25.4915 2.45154C28.3706 2.65078 31.1764 3.42465 33.7449 4.72301C34.3364 5.02201 35.0689 4.82858 35.4003 4.25462ZM35.4003 43.7454C35.7316 44.3193 36.4674 44.5185 37.0241 44.1589C39.7074 42.4253 42.0212 40.171 43.8261 37.5254C45.8567 34.5488 47.1911 31.1532 47.7302 27.5906C48.2692 24.0279 47.9992 20.3896 46.9401 16.9455C45.9987 13.8843 44.4554 11.0465 42.405 8.59661C41.9797 8.08837 41.2179 8.06095 40.7316 8.51118C40.2452 8.9614 40.2188 9.71858 40.6413 10.2292C42.4484 12.4129 43.8106 14.9342 44.6461 17.651C45.5993 20.7506 45.8423 24.0251 45.3572 27.2315C44.872 30.4379 43.6711 33.4939 41.8435 36.1728C40.2417 38.5208 38.1946 40.5262 35.8223 42.0776C35.2676 42.4403 35.0689 43.1714 35.4003 43.7454ZM0.0302544 25.1995C-0.00286838 24.5376 0.53752 24 1.20026 24C1.863 24 2.39679 24.5377 2.43359 25.1994C2.59135 28.0362 3.30753 30.8182 4.54533 33.3843C5.95717 36.3113 8.01122 38.8819 10.5545 40.9048C13.0977 42.9276 16.0646 44.3506 19.2342 45.0676C22.013 45.6963 24.8848 45.7681 27.6844 45.2835C28.3374 45.1705 28.9814 45.5696 29.1305 46.2153C29.2797 46.8611 28.8774 47.5086 28.225 47.6252C25.073 48.1889 21.8357 48.1168 18.7046 47.4085C15.1829 46.6118 11.8863 45.0307 9.0605 42.7831C6.23466 40.5354 3.95238 37.6792 2.38367 34.427C0.988977 31.5357 0.19029 28.3976 0.0302544 25.1995Z" fill="#1969FF"/>
<g clip-path="url(#clip0_4702_7054)">
<mask id="mask0_4702_7054" style="mask-type:luminance" maskUnits="userSpaceOnUse" x="6" y="6" width="36" height="36">
<path d="M42 6L6 6L6 42L42 42L42 6Z" fill="white"/>
</mask>
<g mask="url(#mask0_4702_7054)">
<path fill-rule="evenodd" clip-rule="evenodd" d="M24.0003 5.99139C33.9473 5.99139 42.0089 14.053 42.0089 24C42.0089 33.947 33.9473 42.0086 24.0003 42.0086C14.0533 42.0086 5.9917 33.947 5.9917 24C5.9917 14.053 14.0533 5.99139 24.0003 5.99139Z" fill="#1969FF"/>
<path d="M22.9052 11.592C23.5193 11.2699 24.4557 11.2699 25.0699 11.592L31.3448 14.8905C31.7141 15.0838 31.9203 15.3758 31.9546 15.6765H31.9589L31.9589 32.2506C31.9503 32.577 31.7441 32.9034 31.3448 33.1139L25.0699 36.4123C24.4557 36.7344 23.5193 36.7344 22.9052 36.4123L16.6304 33.1139C16.2309 32.9034 16.0376 32.577 16.0291 32.2506C16.0291 32.2205 16.0291 32.1904 16.0291 32.1689L16.0291 15.7795C16.0291 15.7624 16.0291 15.7452 16.0291 15.7237V15.6722H16.0334C16.0591 15.3715 16.2567 15.0881 16.6346 14.8862L22.9095 11.5877L22.9052 11.592ZM30.9754 24.9191L25.0699 28.02C24.4557 28.3422 23.5193 28.3422 22.9052 28.02L17.0126 24.9234V32.2118L22.9052 35.2914C23.2359 35.4674 23.5838 35.6393 23.9188 35.6608L23.9876 35.665C24.3398 35.665 24.679 35.4889 25.0269 35.3214L30.9754 32.1862V24.9191ZM15.0069 31.8854C15.0069 32.5211 15.0799 32.9377 15.2302 33.2341C15.3505 33.4789 15.5351 33.6636 15.8702 33.8912L15.8873 33.9041C15.9603 33.9514 16.0419 34.0028 16.1407 34.0673L16.2567 34.136L16.6132 34.3507L16.1021 35.1925L15.7026 34.952L15.6339 34.9091C15.518 34.8361 15.4235 34.776 15.3333 34.7159C14.3798 34.0759 14.0233 33.3802 14.019 31.9284V31.8854H15.0069ZM23.4937 20.4739C23.4464 20.4911 23.4034 20.5082 23.3648 20.5297L17.0899 23.8282C17.0813 23.8325 17.077 23.8368 17.0727 23.8368L17.0684 23.8411L17.077 23.8454L17.0899 23.854L23.3648 27.1525C23.4034 27.174 23.4464 27.1912 23.4937 27.2083V20.4781V20.4739ZM24.4815 20.4739V27.204C24.5287 27.1868 24.5716 27.1697 24.6103 27.1482L30.8852 23.8496C30.8938 23.8454 30.898 23.8411 30.9023 23.8411L30.9067 23.8368L30.898 23.8325L30.8852 23.824L24.6103 20.5254C24.5716 20.5039 24.5287 20.4868 24.4815 20.4696V20.4739ZM30.9754 16.8447L25.3448 19.8038L30.9754 22.763L30.9754 16.8447ZM17.0169 16.8533V22.7545L22.6346 19.8038L17.0169 16.8533ZM24.6103 12.4596C24.2839 12.2878 23.6955 12.2878 23.3691 12.4596L17.0942 15.7581C17.0856 15.7624 17.0813 15.7666 17.077 15.7666L17.0727 15.7709L17.0813 15.7752L17.0942 15.7838L23.3691 19.0823C23.6955 19.2541 24.2839 19.2541 24.6103 19.0823L30.8852 15.7838C30.8938 15.7795 30.898 15.7752 30.9023 15.7752L30.9067 15.7709L30.898 15.7666L30.8852 15.7581L24.6103 12.4596ZM31.903 12.8203L32.3025 13.0608L32.3713 13.1038C32.4872 13.1725 32.5816 13.2369 32.6719 13.2971C33.6254 13.937 33.9818 14.6328 33.9861 16.0845V16.1274H32.9983C32.9983 15.4918 32.9253 15.0752 32.7749 14.7788C32.6547 14.534 32.47 14.3493 32.135 14.1217L32.1178 14.1088C32.0449 14.0616 31.9631 14.01 31.8644 13.9456L31.7485 13.8769L31.3919 13.6621L31.903 12.8203Z" fill="white"/>
</g>
</g>
<defs>
<clipPath id="clip0_4702_7054">
<rect width="36" height="36" fill="white" transform="translate(6 6)"/>
</clipPath>
</defs>
</svg>
