<svg width="48" height="48" viewBox="0 0 48 48" fill="none" xmlns="http://www.w3.org/2000/svg">
<path fill-rule="evenodd" clip-rule="evenodd" d="M35.4003 4.25462C35.7316 3.68067 35.5362 2.94387 34.9464 2.6416C32.0604 1.16251 28.9006 0.281719 25.6571 0.0572642C22.0141 -0.194843 18.3615 0.387721 14.9776 1.76059C11.5937 3.13346 8.5677 5.26043 6.13006 7.97952C3.95979 10.4004 2.30684 13.2337 1.26714 16.3055C1.05467 16.9333 1.42785 17.5979 2.06545 17.7788C2.70304 17.9596 3.36328 17.588 3.57924 16.9614C4.51705 14.2405 5.99061 11.7305 7.91708 9.58157C10.111 7.13439 12.8344 5.22012 15.8799 3.98453C18.9254 2.74895 22.2127 2.22464 25.4915 2.45154C28.3706 2.65078 31.1764 3.42465 33.7449 4.72301C34.3364 5.022 35.0689 4.82858 35.4003 4.25462ZM35.4003 43.7454C35.7316 44.3193 36.4674 44.5185 37.0241 44.1589C39.7074 42.4253 42.0212 40.171 43.8261 37.5254C45.8567 34.5488 47.1911 31.1532 47.7302 27.5906C48.2692 24.0279 47.9992 20.3896 46.9401 16.9455C45.9987 13.8843 44.4554 11.0465 42.405 8.59661C41.9797 8.08837 41.2179 8.06095 40.7316 8.51118C40.2452 8.9614 40.2188 9.71858 40.6413 10.2292C42.4484 12.4129 43.8106 14.9342 44.6461 17.651C45.5993 20.7506 45.8423 24.0251 45.3572 27.2315C44.872 30.4379 43.6711 33.4939 41.8435 36.1728C40.2417 38.5208 38.1946 40.5262 35.8223 42.0776C35.2676 42.4403 35.0689 43.1714 35.4003 43.7454ZM0.0302544 25.1995C-0.00286838 24.5376 0.53752 24 1.20026 24C1.863 24 2.39679 24.5377 2.43359 25.1994C2.59135 28.0362 3.30753 30.8182 4.54533 33.3843C5.95717 36.3113 8.01122 38.8819 10.5545 40.9048C13.0977 42.9276 16.0646 44.3506 19.2342 45.0676C22.013 45.6963 24.8848 45.7681 27.6844 45.2835C28.3374 45.1705 28.9814 45.5696 29.1305 46.2153C29.2797 46.8611 28.8774 47.5086 28.225 47.6252C25.073 48.1889 21.8357 48.1168 18.7046 47.4085C15.1829 46.6118 11.8863 45.0307 9.0605 42.7831C6.23466 40.5354 3.95238 37.6792 2.38367 34.427C0.988977 31.5357 0.19029 28.3976 0.0302544 25.1995Z" fill="#FF0420"/>
<g clip-path="url(#clip0_5033_9825)">
<path d="M24 42C33.9411 42 42 33.9411 42 24C42 14.0589 33.9411 6 24 6C14.0589 6 6 14.0589 6 24C6 33.9411 14.0589 42 24 42Z" fill="#FF0420"/>
<path d="M18.751 28.7808C17.6782 28.7808 16.7998 28.5288 16.1158 28.0248C15.439 27.5136 15.1006 26.7792 15.1006 25.836C15.1006 25.6344 15.1222 25.3968 15.1654 25.1088C15.2806 24.4608 15.4462 23.6832 15.6622 22.7688C16.2742 20.292 17.8582 19.0536 20.407 19.0536C21.0982 19.0536 21.7246 19.1688 22.2718 19.4064C22.819 19.6296 23.251 19.9752 23.5678 20.436C23.8846 20.8896 24.043 21.4296 24.043 22.056C24.043 22.2432 24.0214 22.4808 23.9782 22.7688C23.8414 23.568 23.683 24.3528 23.4886 25.1088C23.1718 26.34 22.6318 27.2688 21.8542 27.8808C21.0838 28.4856 20.047 28.7808 18.751 28.7808ZM18.9454 26.8368C19.4494 26.8368 19.8742 26.6856 20.227 26.3904C20.587 26.0952 20.8462 25.6416 20.9974 25.0224C21.2062 24.1728 21.3646 23.4384 21.4726 22.8048C21.5086 22.6176 21.5302 22.4232 21.5302 22.2216C21.5302 21.4008 21.1054 20.9904 20.2486 20.9904C19.7446 20.9904 19.3126 21.1416 18.9526 21.4368C18.5998 21.732 18.3478 22.1856 18.1966 22.8048C18.031 23.4096 17.8726 24.144 17.707 25.0224C17.671 25.2024 17.6494 25.3896 17.6494 25.5912C17.6422 26.4264 18.0814 26.8368 18.9454 26.8368Z" fill="white"/>
<path d="M24.6696 28.6512C24.5688 28.6512 24.4968 28.6224 24.4392 28.5576C24.396 28.4856 24.3816 28.4064 24.396 28.3128L26.2608 19.5288C26.2752 19.428 26.3256 19.3488 26.412 19.284C26.4912 19.2192 26.5776 19.1904 26.6712 19.1904H30.264C31.2648 19.1904 32.064 19.3992 32.6688 19.8096C33.2808 20.2272 33.5904 20.8248 33.5904 21.6096C33.5904 21.8328 33.5616 22.0704 33.5112 22.3152C33.288 23.352 32.8344 24.1152 32.1432 24.612C31.4664 25.1088 30.5376 25.3536 29.3568 25.3536H27.5352L26.916 28.3128C26.8944 28.4136 26.8512 28.4928 26.7648 28.5576C26.6856 28.6224 26.5992 28.6512 26.5056 28.6512H24.6696ZM29.4504 23.4888C29.832 23.4888 30.156 23.388 30.4368 23.1792C30.7248 22.9704 30.912 22.6752 31.0056 22.2864C31.0344 22.1352 31.0488 21.9984 31.0488 21.8832C31.0488 21.624 30.9696 21.4224 30.8184 21.2856C30.6672 21.1416 30.4008 21.0696 30.0336 21.0696H28.4136L27.9024 23.4888H29.4504Z" fill="white"/>
</g>
<defs>
<clipPath id="clip0_5033_9825">
<rect width="36" height="36" fill="white" transform="translate(6 6)"/>
</clipPath>
</defs>
</svg>
