<svg width="256" height="256" viewBox="0 0 256 256" fill="none" xmlns="http://www.w3.org/2000/svg">
<g clip-path="url(#clip0_1430_61)">
<path d="M128.077 31.5918C181.015 31.5918 223.923 74.4917 223.923 127.419C223.923 180.347 181.015 223.209 128.115 223.209C75.177 223.209 32.3067 180.309 32.3067 127.419C32.269 74.4917 75.177 31.5918 128.077 31.5918Z" fill="#8247E5"/>
<mask id="mask0_1430_61" style="mask-type:luminance" maskUnits="userSpaceOnUse" x="64" y="73" width="127" height="111">
<path d="M190.215 73.5918H64.6199V183.653H190.215V73.5918Z" fill="white"/>
</mask>
<g mask="url(#mask0_1430_61)">
<path d="M159.485 107.111C157.186 105.791 154.245 105.791 151.643 107.111L133.318 117.97L120.876 124.87L102.89 135.691C100.59 137.011 97.6494 137.011 95.0477 135.691L80.9838 127.132C78.6836 125.812 77.0625 123.173 77.0625 120.232V103.793C77.0625 101.153 78.382 98.5518 80.9838 96.8928L95.0477 88.6728C97.3478 87.3533 100.289 87.3533 102.89 88.6728L116.954 97.2319C119.254 98.5518 120.876 101.191 120.876 104.132V114.991L133.318 107.752V96.5908C133.318 93.9515 131.999 91.3501 129.397 89.691L103.23 74.2318C100.93 72.9123 97.9886 72.9123 95.3872 74.2318L68.5788 90.0302C65.9771 91.3501 64.6575 93.9894 64.6575 96.5908V127.471C64.6575 130.111 65.9771 132.712 68.5788 134.371L95.0852 149.83C97.3854 151.15 100.326 151.15 102.928 149.83L120.913 139.311L133.356 132.071L151.341 121.552C153.641 120.232 156.582 120.232 159.184 121.552L173.248 129.772C175.548 131.091 177.169 133.73 177.169 136.671V153.111C177.169 155.75 175.849 158.352 173.248 160.011L159.523 168.231C157.223 169.55 154.282 169.55 151.68 168.231L137.579 160.011C135.279 158.691 133.658 156.052 133.658 153.111V142.591L121.215 149.83V160.689C121.215 163.329 122.535 165.93 125.136 167.589L151.643 183.049C153.943 184.368 156.884 184.368 159.485 183.049L185.992 167.589C188.292 166.27 189.913 163.631 189.913 160.689V129.47C189.913 126.83 188.594 124.229 185.992 122.57L159.485 107.111Z" fill="white"/>
</g>
</g>
<g clip-path="url(#clip1_1430_61)">
<path d="M249.6 128C253.134 128 256.016 125.133 255.84 121.603C254.975 104.329 250.617 87.3851 243.005 71.8053C234.455 54.3067 222.024 38.9896 206.659 27.021C191.294 15.0524 173.401 6.74784 154.341 2.73979C137.373 -0.828665 119.878 -0.907689 102.918 2.48154C99.4515 3.17417 97.3768 6.67029 98.2414 10.0974C99.1064 13.5246 102.584 15.5831 106.054 14.9098C121.121 11.9857 136.645 12.0982 151.707 15.2658C168.861 18.8731 184.965 26.3472 198.793 37.1189C212.621 47.8906 223.809 61.6757 231.504 77.4251C238.262 91.2544 242.17 106.278 243.022 121.603C243.218 125.132 246.065 128 249.6 128Z" fill="#8247E5"/>
<path d="M67.2001 233.309C65.4326 236.37 66.4747 240.3 69.6203 241.912C84.783 249.683 101.365 254.358 118.398 255.64C137.561 257.082 156.803 254.19 174.696 247.179C192.588 240.169 208.673 229.219 221.756 215.143C233.385 202.632 242.377 187.936 248.225 171.933C249.438 168.613 247.533 165.021 244.157 163.975C240.78 162.93 237.212 164.827 235.981 168.14C230.714 182.31 222.701 195.325 212.38 206.429C200.606 219.097 186.13 228.951 170.026 235.261C153.923 241.571 136.605 244.173 119.358 242.876C104.242 241.739 89.5201 237.631 76.0289 230.811C72.8742 229.217 68.9675 230.248 67.2001 233.309Z" fill="#8247E5"/>
<path d="M67.2 22.6921C65.4325 19.631 61.5083 18.5687 58.5397 20.4868C44.195 29.7542 31.8309 41.8113 22.1954 55.9635C11.3576 71.8813 4.25117 90.0397 1.40539 109.085C-1.4404 128.131 0.0478427 147.573 5.75926 165.964C10.8371 182.314 19.1368 197.459 30.1458 210.515C32.4244 213.217 36.4877 213.348 39.0726 210.937C41.6576 208.527 41.7836 204.488 39.5201 201.773C29.8163 190.135 22.49 176.679 17.9833 162.168C12.843 145.616 11.5036 128.118 14.0649 110.977C16.626 93.8355 23.0219 77.4931 32.7758 63.1672C41.3275 50.607 52.2671 39.8805 64.9493 31.587C67.9072 29.6524 68.9675 25.7532 67.2 22.6921Z" fill="#8247E5"/>
</g>
<defs>
<clipPath id="clip0_1430_61">
<rect width="192" height="192" fill="white" transform="translate(32 32)"/>
</clipPath>
<clipPath id="clip1_1430_61">
<rect width="256" height="256" fill="white"/>
</clipPath>
</defs>
</svg>
