<svg width="48" height="48" viewBox="0 0 48 48" fill="none" xmlns="http://www.w3.org/2000/svg">
<path fill-rule="evenodd" clip-rule="evenodd" d="M35.4003 4.25462C35.7316 3.68067 35.5362 2.94387 34.9464 2.6416C32.0604 1.16251 28.9006 0.281719 25.6571 0.0572642C22.0141 -0.194843 18.3615 0.387721 14.9776 1.76059C11.5937 3.13346 8.5677 5.26043 6.13006 7.97952C3.95979 10.4004 2.30684 13.2337 1.26714 16.3055C1.05467 16.9333 1.42785 17.5979 2.06545 17.7788C2.70304 17.9596 3.36328 17.588 3.57924 16.9614C4.51705 14.2405 5.99061 11.7305 7.91708 9.58157C10.111 7.13439 12.8344 5.22012 15.8799 3.98453C18.9254 2.74895 22.2127 2.22464 25.4915 2.45154C28.3706 2.65078 31.1764 3.42465 33.7449 4.72301C34.3364 5.02201 35.0689 4.82858 35.4003 4.25462ZM35.4003 43.7454C35.7316 44.3193 36.4674 44.5185 37.0241 44.1589C39.7074 42.4253 42.0212 40.171 43.8261 37.5254C45.8567 34.5488 47.1911 31.1532 47.7302 27.5906C48.2692 24.0279 47.9992 20.3896 46.9401 16.9455C45.9987 13.8843 44.4554 11.0465 42.405 8.59661C41.9797 8.08837 41.2179 8.06095 40.7316 8.51118C40.2452 8.9614 40.2188 9.71858 40.6413 10.2292C42.4484 12.4129 43.8106 14.9342 44.6461 17.651C45.5993 20.7506 45.8423 24.0251 45.3572 27.2315C44.872 30.4379 43.6711 33.4939 41.8435 36.1728C40.2417 38.5208 38.1946 40.5262 35.8223 42.0776C35.2676 42.4403 35.0689 43.1714 35.4003 43.7454ZM0.0302544 25.1995C-0.00286838 24.5376 0.53752 24 1.20026 24C1.863 24 2.39679 24.5377 2.43359 25.1994C2.59135 28.0362 3.30753 30.8182 4.54533 33.3843C5.95717 36.3113 8.01122 38.8819 10.5545 40.9048C13.0977 42.9276 16.0646 44.3506 19.2342 45.0676C22.013 45.6963 24.8848 45.7681 27.6844 45.2835C28.3374 45.1705 28.9814 45.5696 29.1305 46.2153C29.2797 46.8611 28.8774 47.5086 28.225 47.6252C25.073 48.1889 21.8357 48.1168 18.7046 47.4085C15.1829 46.6118 11.8863 45.0307 9.0605 42.7831C6.23466 40.5354 3.95238 37.6792 2.38367 34.427C0.988977 31.5357 0.19029 28.3976 0.0302544 25.1995Z" fill="url(#paint0_linear_4700_9495)"/>
<mask id="mask0_4700_9495" style="mask-type:luminance" maskUnits="userSpaceOnUse" x="10" y="13" width="28" height="22">
<path d="M38 13.01L10 13.01L10 34.9552H38V13.01Z" fill="white"/>
</mask>
<g mask="url(#mask0_4700_9495)">
<path d="M14.5481 29.7592C14.7171 29.5903 14.9494 29.4917 15.1958 29.4917L37.5423 29.4917C37.9507 29.4917 38.1548 29.9846 37.8662 30.2732L33.4518 34.6876C33.2828 34.8566 33.0505 34.9551 32.8041 34.9551H10.4576C10.0492 34.9551 9.84506 34.4623 10.1337 34.1736L14.5481 29.7592Z" fill="url(#paint1_linear_4700_9495)"/>
<path d="M14.5481 13.2775C14.7241 13.1086 14.9565 13.01 15.1958 13.01L37.5423 13.01C37.9507 13.01 38.1548 13.5028 37.8662 13.7915L33.4518 18.2059C33.2828 18.3749 33.0505 18.4734 32.8041 18.4734L10.4576 18.4734C10.0492 18.4734 9.84506 17.9806 10.1337 17.692L14.5481 13.2775Z" fill="url(#paint2_linear_4700_9495)"/>
<path d="M33.4518 21.4656C33.2828 21.2966 33.0505 21.1981 32.8041 21.1981L10.4576 21.1981C10.0492 21.1981 9.84506 21.6909 10.1337 21.9795L14.5481 26.3939C14.7171 26.5629 14.9494 26.6614 15.1958 26.6614L37.5423 26.6614C37.9507 26.6614 38.1548 26.1686 37.8662 25.8799L33.4518 21.4656Z" fill="url(#paint3_linear_4700_9495)"/>
</g>
<defs>
<linearGradient id="paint0_linear_4700_9495" x1="35.5" y1="-1.53312e-07" x2="15.5" y2="48" gradientUnits="userSpaceOnUse">
<stop stop-color="#00FFA3"/>
<stop offset="1" stop-color="#DC1FFF"/>
</linearGradient>
<linearGradient id="paint1_linear_4700_9495" x1="35.4076" y1="10.3729" x2="19.942" y2="39.9957" gradientUnits="userSpaceOnUse">
<stop stop-color="#00FFA3"/>
<stop offset="1" stop-color="#DC1FFF"/>
</linearGradient>
<linearGradient id="paint2_linear_4700_9495" x1="28.6452" y1="6.84245" x2="13.1796" y2="36.4652" gradientUnits="userSpaceOnUse">
<stop stop-color="#00FFA3"/>
<stop offset="1" stop-color="#DC1FFF"/>
</linearGradient>
<linearGradient id="paint3_linear_4700_9495" x1="32.0049" y1="8.59642" x2="16.5393" y2="38.2192" gradientUnits="userSpaceOnUse">
<stop stop-color="#00FFA3"/>
<stop offset="1" stop-color="#DC1FFF"/>
</linearGradient>
</defs>
</svg>
