<svg width="48" height="48" viewBox="0 0 48 48" fill="none" xmlns="http://www.w3.org/2000/svg">
<path fill-rule="evenodd" clip-rule="evenodd" d="M35.4003 4.25462C35.7316 3.68067 35.5362 2.94387 34.9464 2.6416C32.0604 1.16251 28.9006 0.281719 25.6571 0.0572642C22.0141 -0.194843 18.3615 0.387721 14.9776 1.76059C11.5937 3.13346 8.5677 5.26043 6.13006 7.97952C3.95979 10.4004 2.30684 13.2337 1.26714 16.3055C1.05467 16.9333 1.42785 17.5979 2.06545 17.7788C2.70304 17.9596 3.36328 17.588 3.57924 16.9614C4.51705 14.2405 5.99061 11.7305 7.91708 9.58157C10.111 7.13439 12.8344 5.22012 15.8799 3.98453C18.9254 2.74895 22.2127 2.22464 25.4915 2.45154C28.3706 2.65078 31.1764 3.42465 33.7449 4.72301C34.3364 5.022 35.0689 4.82858 35.4003 4.25462ZM35.4003 43.7454C35.7316 44.3193 36.4674 44.5185 37.0241 44.1589C39.7074 42.4253 42.0212 40.171 43.8261 37.5254C45.8567 34.5488 47.1911 31.1532 47.7302 27.5906C48.2692 24.0279 47.9992 20.3896 46.9401 16.9455C45.9987 13.8843 44.4554 11.0465 42.405 8.59661C41.9797 8.08837 41.2179 8.06095 40.7316 8.51118C40.2452 8.9614 40.2188 9.71858 40.6413 10.2292C42.4484 12.4129 43.8106 14.9342 44.6461 17.651C45.5993 20.7506 45.8423 24.0251 45.3572 27.2315C44.872 30.4379 43.6711 33.4939 41.8435 36.1728C40.2417 38.5208 38.1946 40.5262 35.8223 42.0776C35.2676 42.4403 35.0689 43.1714 35.4003 43.7454ZM0.0302544 25.1995C-0.00286838 24.5376 0.53752 24 1.20026 24C1.863 24 2.39679 24.5377 2.43359 25.1994C2.59135 28.0362 3.30753 30.8182 4.54533 33.3843C5.95717 36.3113 8.01122 38.8819 10.5545 40.9048C13.0977 42.9276 16.0646 44.3506 19.2342 45.0676C22.013 45.6963 24.8848 45.7681 27.6844 45.2835C28.3374 45.1705 28.9814 45.5696 29.1305 46.2153C29.2797 46.8611 28.8774 47.5086 28.225 47.6252C25.073 48.1889 21.8357 48.1168 18.7046 47.4085C15.1829 46.6118 11.8863 45.0307 9.0605 42.7831C6.23466 40.5354 3.95238 37.6792 2.38367 34.427C0.988977 31.5357 0.19029 28.3976 0.0302544 25.1995Z" fill="#FFA409"/>
<g clip-path="url(#clip0_5033_8132)">
<g clip-path="url(#clip1_5033_8132)">
<path d="M31.1608 10.8173C30.3374 11.6407 29.583 12.5332 28.9124 13.4848L28.7004 13.4158C27.4776 13.0164 26.2104 12.7699 24.9334 12.686C24.5488 12.6565 23.114 12.6565 22.6455 12.686C21.2304 12.7797 20.1457 12.9917 18.913 13.4207C18.8637 13.4404 18.8194 13.4552 18.775 13.47C18.0798 12.5233 17.3056 11.6358 16.4526 10.8223C20.5451 8.72672 25.3328 8.47526 29.6175 10.127C30.0761 10.2996 30.5247 10.5018 30.9636 10.7187L31.1608 10.8173Z" fill="#F00500"/>
<path d="M38.7935 29.5194C38.1722 31.2895 37.2403 32.9314 36.0323 34.3613C35.3765 35.1305 34.6517 35.8355 33.8727 36.4765C32.0483 37.9459 29.9183 38.9961 27.6452 39.5483C25.1306 40.1548 22.5075 40.1548 19.9929 39.5483C17.7149 38.9961 15.5898 37.9459 13.7654 36.4765C12.9864 35.8355 12.2616 35.1305 11.6058 34.3613C8.12969 30.254 7.07452 24.6134 8.84463 19.5298C9.17992 18.5881 9.59902 17.6808 10.102 16.818C10.3337 16.4235 10.6197 15.9798 10.7577 15.7973C11.2311 17.8337 11.8129 19.6235 12.0298 20.2694C12.015 20.304 11.9953 20.3434 11.9756 20.3779C10.8268 22.7052 10.2055 24.9486 10.0576 27.3351C10.0576 27.3647 10.0526 27.3992 10.0526 27.4288C10.0132 28.1437 10.0329 28.4839 10.1513 28.9326C10.5211 30.3379 11.66 31.8861 13.4449 33.4047C16.3688 35.8898 20.3331 37.6845 23.3358 37.8916C26.4668 38.1036 31.0868 36.2744 34.1636 33.602C34.6468 33.173 35.1004 32.7194 35.5244 32.2362C35.8301 31.8812 36.2838 31.2698 36.2493 31.2698C36.2394 31.2698 36.2493 31.2599 36.269 31.25C36.2838 31.2402 36.2986 31.2254 36.2887 31.2155C36.2838 31.2106 36.2936 31.1958 36.3084 31.1909C36.3232 31.1859 36.3331 31.1761 36.3281 31.1662C36.3232 31.1563 36.3281 31.1465 36.3479 31.1416C36.3627 31.1366 36.3676 31.1218 36.3627 31.112C36.3577 31.1021 36.3627 31.0922 36.3725 31.0922C36.3824 31.0922 36.3922 31.0775 36.3922 31.0676C36.3922 31.0577 36.4021 31.0429 36.412 31.0429C36.4218 31.0429 36.4317 31.0331 36.4317 31.0232C36.4465 30.9838 36.4711 30.9443 36.4958 30.9098C36.5697 30.7964 36.8656 30.2688 36.905 30.1801C37.1861 29.544 37.3636 28.977 37.4474 28.41C37.4868 28.1388 37.5115 27.6408 37.4918 27.5224C37.4868 27.5027 37.4869 27.4682 37.4819 27.414C37.4721 27.3154 37.4671 27.1674 37.4573 27.0195C37.4474 26.7976 37.4277 26.487 37.4129 26.3342C37.2009 24.0956 36.6289 22.2664 35.5442 20.3286C35.4998 20.2547 35.4603 20.1807 35.4357 20.1215C35.4258 20.1067 35.4209 20.0919 35.416 20.0821C35.5688 19.6235 36.195 17.7055 36.693 15.5114L36.7029 15.5212L36.7768 15.6198C36.905 15.7924 37.2452 16.3052 37.3981 16.5517C38.0933 17.6858 38.6357 18.9036 39.0203 20.1758C39.9127 23.2377 39.8388 26.5018 38.7935 29.5194Z" fill="#F00500"/>
<path d="M32.3933 23.6271C32.3785 23.706 32.1467 23.9426 31.915 24.1152C31.2346 24.6132 30.0167 25.0767 28.7791 25.2986C28.074 25.4268 27.3689 25.4465 27.1569 25.343C27.0189 25.2739 26.9991 25.2197 27.0484 25.0422C27.152 24.6724 27.4873 24.2681 28.0099 23.8884C28.2762 23.6961 29.356 23.0403 29.8589 22.7642C30.6873 22.3106 31.3578 22.0394 31.8115 21.9753C31.9544 21.9556 32.127 21.9507 32.1813 21.9753C32.27 22.0098 32.3686 22.2711 32.4081 22.5867C32.4278 22.7544 32.4179 23.494 32.3933 23.6271Z" fill="black"/>
<path d="M20.777 25.2592C20.7474 25.3184 20.5995 25.3825 20.4318 25.4071C20.2642 25.4318 19.7514 25.417 19.4605 25.3825C18.4152 25.2444 17.3058 24.9239 16.4972 24.5295C16.0435 24.3076 15.7181 24.0857 15.4765 23.8441L15.3385 23.7011L15.3237 23.5137C15.299 23.1883 15.3039 22.6755 15.3434 22.4931C15.368 22.3402 15.4223 22.1923 15.4962 22.0592C15.5357 22.0099 15.5357 22.0099 15.7132 22.0099C15.9301 22.0099 16.1126 22.0444 16.4084 22.1381C17.0149 22.3255 17.9172 22.7791 19.0167 23.4398C19.924 23.9822 20.2642 24.2484 20.5255 24.6133C20.703 24.8401 20.8213 25.1606 20.777 25.2592Z" fill="black"/>
<path d="M27.7588 32.1227C27.7588 32.1375 27.6997 32.3742 27.6257 32.6552C27.5517 32.9362 27.4926 33.1631 27.4926 33.1729C27.4383 33.1779 27.389 33.1828 27.3348 33.1779H27.177L26.9601 33.6906C26.8417 33.9717 26.7332 34.233 26.7185 34.2725L26.6889 34.3415L26.5853 34.1738L26.4818 34.0062V32.6404L26.4423 32.6503C26.3585 32.67 25.7619 32.7489 25.5006 32.7735C24.4208 32.882 23.336 32.8574 22.2611 32.7045C22.0886 32.6799 21.9406 32.6601 21.9357 32.6651C21.9308 32.67 21.9357 32.9856 21.9456 33.3751L21.9604 34.0752L21.8765 34.2034C21.8322 34.2725 21.7878 34.3316 21.7878 34.3366C21.773 34.3513 21.7237 34.2725 21.6103 34.0456C21.487 33.809 21.3983 33.5575 21.3342 33.2962L21.2997 33.1532L21.1468 33.1631L20.994 33.1779L20.9545 32.9954C20.9348 32.8968 20.9101 32.744 20.9003 32.6601L20.8855 32.5024L20.7573 32.3889C20.6833 32.3248 20.6094 32.2607 20.5946 32.2509C20.5699 32.2312 20.5601 32.1966 20.5601 32.1671V32.1079L21.1764 32.1128L21.7927 32.1178L21.8124 32.1819L21.8322 32.246L22.0442 32.2558C22.1625 32.2608 22.5373 32.2706 22.8725 32.2805L23.4889 32.2953L23.6467 32.0487L23.8094 31.8022H24.0165L24.0115 31.2894L24.0066 30.7766L23.7354 30.6583C22.8627 30.2737 22.3499 29.8349 22.1576 29.3024C22.1181 29.1939 22.1181 29.1544 22.1083 28.6614C22.1034 28.1732 22.1034 28.1289 22.1379 28.0204C22.2069 27.7738 22.3992 27.5815 22.6457 27.5175C22.7296 27.4928 22.9514 27.4928 24.1151 27.4928L25.4858 27.4977L25.6386 27.5717C25.8211 27.6604 25.9049 27.7245 26.0084 27.8626C26.1268 28.0204 26.1613 28.1436 26.1613 28.4444C26.1613 28.8734 26.1317 29.2432 26.0873 29.3911C26.0232 29.5933 25.9246 29.7856 25.8014 29.9581C25.5548 30.2737 25.1061 30.5893 24.6969 30.7322L24.5785 30.7766L24.5835 31.2943L24.5884 31.8121L24.6969 31.8219L24.8054 31.8318L24.9533 32.0537L25.0963 32.2755H25.757C26.1218 32.2755 26.4423 32.2805 26.4719 32.2854C26.5212 32.2953 26.5311 32.2903 26.5804 32.2065L26.6396 32.1178H27.2066C27.6306 32.098 27.7588 32.1079 27.7588 32.1227Z" fill="black"/>
<path d="M25.1553 33.5378C25.0616 33.592 24.9975 33.6166 24.9828 33.6068C24.968 33.6019 24.8989 33.5427 24.825 33.4885L24.6918 33.38L24.5538 33.5279C24.253 33.8533 24.2432 33.8681 24.1544 33.873C24.0163 33.8878 23.9868 33.8632 23.8191 33.6117C23.7304 33.4835 23.6613 33.375 23.6613 33.375C23.6613 33.375 23.5972 33.3652 23.5233 33.3603L23.3852 33.3455L23.3211 33.4786L23.257 33.6117L23.1436 33.5772C23.0549 33.5476 22.9661 33.5131 22.8823 33.4737L22.7344 33.3997V33.1187L24.0459 33.1236L25.3575 33.1285L25.3624 33.2616C25.3673 33.4194 25.3723 33.4145 25.1553 33.5378Z" fill="black"/>
<path d="M37.4819 27.5223C37.477 27.5026 37.477 27.4681 37.4721 27.4138C36.2887 27.2856 32.9112 27.2067 29.7753 29.7953C29.7753 29.7953 28.7645 25.1605 24.0311 25.1605C19.2976 25.1605 17.5423 29.7953 17.5423 29.7953C14.8896 26.9405 11.3395 27.1476 10.0576 27.3349C10.0576 27.3645 10.0526 27.399 10.0526 27.4286C10.0132 28.1436 10.0329 28.4838 10.1513 28.9325C10.5211 30.3377 11.66 31.8859 13.4449 33.4046C16.3688 35.8896 20.3331 37.6844 23.3358 37.8915C26.4668 38.1035 31.0868 36.2742 34.1636 33.6018C34.6468 33.1729 35.1004 32.7192 35.5244 32.236C35.8301 31.881 36.2838 31.2696 36.2493 31.2696C36.2394 31.2696 36.2493 31.2598 36.269 31.2499C36.2838 31.24 36.2986 31.2252 36.2887 31.2154C36.2838 31.2104 36.2936 31.1957 36.3084 31.1907C36.3232 31.1858 36.3331 31.1759 36.3281 31.1661C36.3232 31.1562 36.3281 31.1463 36.3479 31.1414C36.3627 31.1365 36.3676 31.1217 36.3627 31.1118C36.3577 31.102 36.3627 31.0921 36.3725 31.0921C36.3824 31.0921 36.3922 31.0773 36.3922 31.0675C36.3922 31.0576 36.4021 31.0428 36.412 31.0428C36.4218 31.0428 36.4317 31.0329 36.4317 31.0231C36.4465 30.9836 36.4711 30.9442 36.4958 30.9097C36.5697 30.7963 36.8656 30.2687 36.905 30.1799C37.1861 29.5439 37.3636 28.9769 37.4474 28.4098C37.477 28.1386 37.5016 27.6406 37.4819 27.5223ZM25.1553 33.5377C25.0616 33.592 24.9975 33.6166 24.9827 33.6067C24.9679 33.6018 24.8989 33.5427 24.8249 33.4884L24.6918 33.3799L24.5537 33.5279C24.2529 33.8533 24.2431 33.8681 24.1543 33.873C24.0163 33.8878 23.9867 33.8631 23.8191 33.6117C23.7303 33.4835 23.6613 33.375 23.6613 33.375C23.6613 33.375 23.5972 33.3651 23.5232 33.3602L23.3852 33.3454L23.3211 33.4786L23.257 33.6117L23.1435 33.5772C23.0548 33.5476 22.966 33.5131 22.8822 33.4736L22.7343 33.3997V33.1186L24.0459 33.1235L25.3574 33.1285L25.3623 33.2616C25.3673 33.4194 25.3722 33.4145 25.1553 33.5377ZM27.6206 32.6502C27.5466 32.9312 27.4875 33.1581 27.4875 33.1679C27.4332 33.1729 27.3839 33.1778 27.3297 33.1728H27.1719L26.9599 33.6906C26.8415 33.9716 26.7331 34.2329 26.7183 34.2724L26.6887 34.3414L26.5852 34.1738L26.4816 34.0061V32.6403L26.4422 32.6502C26.3583 32.6699 25.7617 32.7488 25.5004 32.7735C24.4206 32.8819 23.3358 32.8573 22.261 32.7044C22.0884 32.6798 21.9405 32.6601 21.9355 32.665C21.9306 32.6699 21.9355 32.9855 21.9454 33.375L21.9602 34.0752L21.8764 34.2034C21.832 34.2724 21.7876 34.3316 21.7876 34.3365C21.7728 34.3513 21.7235 34.2724 21.6101 34.0456C21.4868 33.8089 21.3981 33.5574 21.334 33.2961L21.2995 33.1531L21.1466 33.163L20.9938 33.1778L20.9543 32.9953C20.9346 32.8967 20.91 32.7439 20.9001 32.6601L20.8853 32.5023L20.7571 32.3889C20.6831 32.3248 20.6092 32.2607 20.5944 32.2508C20.5697 32.2311 20.5599 32.1966 20.5599 32.167V32.1078L21.1762 32.1128L21.7925 32.1177L21.8123 32.1818L21.832 32.2459L22.044 32.2557C22.1624 32.2607 22.5371 32.2705 22.8724 32.2804L23.4887 32.2952L23.6465 32.0487L23.8092 31.8021L24.0163 31.8021L24.0113 31.2893L24.0064 30.7765L23.7352 30.6582C22.8625 30.2736 22.3497 29.8348 22.1574 29.3023C22.118 29.1938 22.118 29.1544 22.1081 28.6613C22.1032 28.1732 22.1032 28.1288 22.1377 28.0203C22.2067 27.7738 22.399 27.5815 22.6456 27.5174C22.7294 27.4927 22.9513 27.4927 24.1149 27.4927L25.4856 27.4977L25.6385 27.5716C25.8209 27.6604 25.9047 27.7245 26.0083 27.8625C26.1266 28.0203 26.1611 28.1436 26.1611 28.4443C26.1611 28.8733 26.1315 29.2431 26.0872 29.391C26.0231 29.5932 25.9244 29.7855 25.8012 29.9581C25.5546 30.2736 25.106 30.5892 24.6967 30.7322L24.5784 30.7765L24.5833 31.2943L24.5882 31.812L24.6967 31.8218L24.8052 31.8317L24.9531 32.0536L25.0961 32.2755H25.7568C26.1217 32.2755 26.4422 32.2804 26.4717 32.2853C26.5211 32.2952 26.5309 32.2903 26.5802 32.2064L26.6394 32.1177H27.2064C27.6452 32.1177 27.7734 32.1226 27.7734 32.1374C27.7587 32.1325 27.6946 32.3741 27.6206 32.6502Z" fill="white"/>
<path d="M37.4421 27.0194C37.4323 26.7975 37.4125 26.4869 37.3977 26.334C37.1857 24.0955 36.6138 22.2663 35.529 20.3285C35.4847 20.2545 35.4452 20.1806 35.4205 20.1214C35.4107 20.1066 35.4058 20.0918 35.4008 20.082C35.5537 19.6234 36.1799 17.7054 36.6779 15.5112C37.3534 12.5331 37.7823 9.05208 36.4708 8.00678C36.4708 8.00678 34.2027 7.83913 31.1654 10.8173C30.342 11.6407 29.5876 12.5331 28.917 13.4847L28.705 13.4157C27.4822 13.0163 26.215 12.7698 24.938 12.686C24.5534 12.6564 23.1185 12.6564 22.6501 12.686C21.235 12.7797 20.1503 12.9917 18.9176 13.4206C18.8683 13.4404 18.8239 13.4552 18.7796 13.4699C18.0843 12.5233 17.3102 11.6357 16.4572 10.8222C13.2967 7.82927 10.9447 8.00184 10.9447 8.00184C9.5543 9.08166 10.0276 12.7205 10.7475 15.7972C11.2209 17.8336 11.8027 19.6234 12.0196 20.2693C12.0048 20.3038 11.9851 20.3433 11.9654 20.3778C10.8165 22.7051 10.1953 24.9485 10.0474 27.335C11.3343 27.1476 14.8794 26.9356 17.537 29.7954C17.537 29.7954 19.2924 25.1606 24.0258 25.1606C28.7592 25.1606 29.77 29.7954 29.77 29.7954C32.9059 27.2068 36.2834 27.2906 37.4668 27.4139C37.4618 27.3153 37.452 27.1673 37.4421 27.0194ZM12.9515 18.4105C12.9515 18.4105 11.1075 13.8003 11.5808 11.1673C11.6597 10.7236 11.8076 10.334 12.0394 10.0382C12.0394 10.0382 14.1299 10.2453 17.5025 13.9926C17.5025 13.9926 16.8615 14.3032 16.0036 14.9639C16.0036 14.9639 15.9987 14.9689 15.9937 14.9689C15.0618 15.6838 13.8686 16.8179 12.9515 18.4105ZM20.7765 25.2592C20.7469 25.3183 20.599 25.3824 20.4313 25.4071C20.2637 25.4317 19.7509 25.4169 19.46 25.3824C18.4147 25.2444 17.3053 24.9239 16.4967 24.5294C16.0431 24.3075 15.7176 24.0857 15.476 23.8441L15.338 23.7011L15.3232 23.5137C15.2985 23.1883 15.3035 22.6755 15.3429 22.4931C15.3675 22.3402 15.4218 22.1923 15.4957 22.0592C15.5352 22.0099 15.5352 22.0099 15.7127 22.0099C15.9296 22.0099 16.1121 22.0444 16.4079 22.1381C17.0144 22.3254 17.9167 22.779 19.0162 23.4397C19.9235 23.9821 20.2637 24.2484 20.525 24.6132C20.7025 24.8401 20.8209 25.1606 20.7765 25.2592ZM32.3931 23.6271C32.3783 23.706 32.1466 23.9427 31.9148 24.1153C31.2344 24.6132 30.0165 25.0767 28.7789 25.2986C28.0739 25.4268 27.3688 25.4465 27.1568 25.343C27.0187 25.274 26.999 25.2197 27.0483 25.0422C27.1518 24.6724 27.4871 24.2681 28.0098 23.8884C28.276 23.6961 29.3558 23.0404 29.8588 22.7643C30.6871 22.3106 31.3577 22.0394 31.8113 21.9753C31.9543 21.9556 32.1269 21.9507 32.1811 21.9753C32.2699 22.0099 32.3685 22.2712 32.4079 22.5867C32.4276 22.7544 32.4178 23.494 32.3931 23.6271ZM31.5746 14.9639L31.5648 14.959C30.7364 14.2983 30.1152 13.9877 30.1152 13.9877C33.3743 10.2404 35.391 10.0333 35.391 10.0333C35.6128 10.334 35.7558 10.7186 35.8347 11.1624C36.2933 13.7954 34.5133 18.4105 34.5133 18.4105C33.7688 17.0841 32.7679 15.9106 31.5746 14.9639Z" fill="#FFA409"/>
<path d="M35.8402 11.1624C35.4556 11.1131 33.6362 11.1033 31.5752 14.964L31.5653 14.9591C30.737 14.2983 30.1157 13.9877 30.1157 13.9877C33.3749 10.2404 35.3915 10.0333 35.3915 10.0333C35.6183 10.3341 35.7613 10.7187 35.8402 11.1624Z" fill="#FF9300"/>
<path d="M34.5188 18.4105C33.7693 17.0792 32.7733 15.9106 31.5752 14.9639C33.6362 11.1032 35.4507 11.1131 35.8402 11.1624C36.2988 13.8003 34.5188 18.4105 34.5188 18.4105Z" fill="#FF8300"/>
<path d="M35.9143 11.1773C35.8896 11.1723 35.865 11.1674 35.8403 11.1625L35.9143 11.1773Z" fill="#FF8300"/>
<path d="M17.5028 13.9876C17.5028 13.9876 16.8618 14.2982 16.0039 14.9589C16.0039 14.9589 15.999 14.9639 15.994 14.9639C13.8591 11.0982 11.9805 11.113 11.5762 11.1623C11.6551 10.7186 11.803 10.329 12.0347 10.0332C12.0397 10.0332 14.1303 10.2403 17.5028 13.9876Z" fill="#FF9300"/>
<path d="M15.999 14.9639C15.0622 15.6838 13.8689 16.8129 12.9518 18.4105C12.9518 18.4105 11.1078 13.8003 11.5811 11.1624C11.9805 11.1131 13.864 11.1032 15.999 14.9639Z" fill="#FF8300"/>
<path d="M11.5813 11.1625C11.5567 11.1674 11.5271 11.1723 11.5024 11.1773L11.5813 11.1625Z" fill="#FF8300"/>
<path d="M29.5285 20.9695C29.5285 20.9695 27.9507 21.0682 28.1479 19.8355C28.3451 18.6028 29.5778 18.4549 29.923 18.5042C30.2681 18.5535 31.6487 19.0466 31.4022 20.082C31.1556 21.1175 30.8105 20.9202 30.6133 20.9695C30.416 21.0188 29.5285 20.9695 29.5285 20.9695Z" fill="white"/>
<path d="M17.8923 20.9695C17.8923 20.9695 16.3145 21.0682 16.5117 19.8355C16.7089 18.6028 17.9416 18.4549 18.2867 18.5042C18.6319 18.5535 20.0125 19.0466 19.7659 20.082C19.5194 21.1175 19.1742 20.9202 18.977 20.9695C18.7798 21.0188 17.8923 20.9695 17.8923 20.9695Z" fill="white"/>
</g>
</g>
<defs>
<clipPath id="clip0_5033_8132">
<rect width="32" height="32" fill="white" transform="translate(8 8)"/>
</clipPath>
<clipPath id="clip1_5033_8132">
<rect width="31.6401" height="32" fill="white" transform="translate(8 8)"/>
</clipPath>
</defs>
</svg>
