<svg width="200" height="200" viewBox="0 0 200 200" fill="none" xmlns="http://www.w3.org/2000/svg">
<g clip-path="url(#clip0_1303_2)">
<path fill-rule="evenodd" clip-rule="evenodd" d="M147.501 17.7276C148.882 15.3361 148.068 12.2661 145.61 11.0066C133.585 4.84381 120.42 1.17383 106.905 0.2386C91.7253 -0.811843 76.5062 1.6155 62.4066 7.33581C48.307 13.0561 35.6988 21.9184 25.542 33.248C16.4992 43.3349 9.61192 55.1404 5.27984 67.9395C4.39454 70.5554 5.94946 73.3245 8.60609 74.0783C11.2628 74.8316 14.0138 73.2833 14.9136 70.6724C18.8211 59.3353 24.961 48.877 32.9879 39.9232C42.1291 29.7266 53.4766 21.7505 66.1662 16.6022C78.8557 11.454 92.5528 9.26935 106.214 10.2147C118.211 11.0449 129.902 14.2694 140.604 19.6792C143.068 20.925 146.12 20.1191 147.501 17.7276ZM147.501 182.272C148.882 184.664 151.948 185.494 154.267 183.995C165.448 176.772 175.089 167.379 182.609 156.356C191.07 143.953 196.629 129.805 198.876 114.961C201.122 100.116 199.997 84.9566 195.584 70.6066C191.661 57.8516 185.231 46.027 176.688 35.8192C174.915 33.7016 171.741 33.5873 169.715 35.4632C167.689 37.3392 167.578 40.4941 169.339 42.6216C176.868 51.7204 182.544 62.2258 186.025 73.5458C189.997 86.4608 191.01 100.105 188.988 113.465C186.967 126.825 181.963 139.558 174.348 150.72C167.674 160.503 159.144 168.859 149.259 175.323C146.949 176.835 146.12 179.881 147.501 182.272ZM0.126141 104.998C-0.0118704 102.24 2.23975 99.9999 5.00117 99.9999C7.76259 99.9999 9.98671 102.24 10.14 104.997C10.7973 116.817 13.7815 128.409 18.939 139.101C24.8216 151.297 33.3802 162.008 43.977 170.437C54.5741 178.865 66.9362 184.794 80.1424 187.782C91.7212 190.401 103.687 190.7 115.352 188.681C118.073 188.21 120.756 189.873 121.377 192.564C121.999 195.255 120.323 197.952 117.604 198.438C104.471 200.787 90.982 200.487 77.9362 197.535C63.2624 194.216 49.5266 187.628 37.7522 178.263C25.9778 168.898 16.4683 156.997 9.93204 143.446C4.12082 131.399 0.792956 118.323 0.126141 104.998Z" fill="url(#paint0_linear_1303_2)"/>
<path d="M100 175C141.421 175 175 141.421 175 100C175 58.5787 141.421 25 100 25C58.5787 25 25 58.5787 25 100C25 141.421 58.5787 175 100 175Z" fill="#232323"/>
<mask id="mask0_1303_2" style="mask-type:luminance" maskUnits="userSpaceOnUse" x="53" y="60" width="91" height="80">
<path d="M143.75 60.5195H53.125V139.48H143.75V60.5195Z" fill="white"/>
</mask>
<g mask="url(#mask0_1303_2)">
<path d="M143.283 122.775L128.323 138.405C127.998 138.744 127.604 139.015 127.167 139.2C126.73 139.385 126.258 139.48 125.781 139.48H54.8616C54.5233 139.48 54.1925 139.384 53.9096 139.203C53.6262 139.022 53.4037 138.765 53.2687 138.462C53.1341 138.16 53.0929 137.826 53.15 137.501C53.2075 137.176 53.3612 136.875 53.5921 136.634L68.5637 121.003C68.8879 120.665 69.2804 120.395 69.7158 120.21C70.1521 120.025 70.6221 119.929 71.0975 119.928H142.013C142.352 119.928 142.682 120.025 142.966 120.205C143.248 120.386 143.471 120.643 143.606 120.946C143.741 121.248 143.782 121.582 143.725 121.907C143.667 122.232 143.514 122.533 143.283 122.775ZM128.323 91.2991C127.998 90.9595 127.604 90.6891 127.167 90.5041C126.73 90.3191 126.258 90.2237 125.781 90.2241H54.8616C54.5233 90.2241 54.1925 90.3204 53.9096 90.5012C53.6262 90.6816 53.4037 90.9391 53.2687 91.2416C53.1341 91.5437 53.0929 91.8779 53.15 92.2029C53.2075 92.5279 53.3612 92.8291 53.5921 93.0704L68.5637 108.701C68.8879 109.039 69.2804 109.31 69.7158 109.495C70.1521 109.679 70.6221 109.775 71.0975 109.776H142.013C142.352 109.776 142.682 109.68 142.966 109.499C143.248 109.318 143.471 109.061 143.606 108.758C143.741 108.456 143.782 108.122 143.725 107.797C143.667 107.472 143.514 107.171 143.283 106.93L128.323 91.2991ZM54.8616 80.072H125.781C126.258 80.072 126.73 79.9766 127.167 79.7916C127.604 79.6066 127.998 79.3362 128.323 78.9966L143.283 63.3662C143.514 63.1249 143.667 62.8237 143.725 62.4987C143.782 62.1737 143.741 61.8395 143.606 61.5374C143.471 61.2349 143.248 60.9774 142.966 60.797C142.682 60.6162 142.352 60.5199 142.013 60.5195H71.0975C70.6221 60.5204 70.1521 60.6162 69.7158 60.8012C69.2804 60.9862 68.8879 61.2566 68.5637 61.5949L53.5958 77.2254C53.365 77.4662 53.2116 77.7674 53.1541 78.092C53.0966 78.4166 53.1375 78.7504 53.2721 79.0525C53.4062 79.355 53.6283 79.612 53.9108 79.7933C54.1933 79.9741 54.5237 80.0712 54.8616 80.072Z" fill="url(#paint1_linear_1303_2)"/>
</g>
</g>
<defs>
<linearGradient id="paint0_linear_1303_2" x1="147.917" y1="2.6552e-07" x2="64.5833" y2="200" gradientUnits="userSpaceOnUse">
<stop stop-color="#00FFA3"/>
<stop offset="1" stop-color="#DC1FFF"/>
</linearGradient>
<linearGradient id="paint1_linear_1303_2" x1="60.775" y1="141.362" x2="132.977" y2="57.8133" gradientUnits="userSpaceOnUse">
<stop offset="0.08" stop-color="#9945FF"/>
<stop offset="0.3" stop-color="#8752F3"/>
<stop offset="0.5" stop-color="#5497D5"/>
<stop offset="0.6" stop-color="#43B4CA"/>
<stop offset="0.72" stop-color="#28E0B9"/>
<stop offset="0.97" stop-color="#19FB9B"/>
</linearGradient>
<clipPath id="clip0_1303_2">
<rect width="200" height="200" fill="white"/>
</clipPath>
</defs>
</svg>
