<svg width="48" height="48" viewBox="0 0 48 48" fill="none" xmlns="http://www.w3.org/2000/svg">
<g clip-path="url(#clip0_1257_2)">
<path fill-rule="evenodd" clip-rule="evenodd" d="M35.4008 4.25462C35.7321 3.68067 35.5367 2.94387 34.9469 2.6416C32.0609 1.16251 28.9011 0.281719 25.6576 0.0572643C22.0146 -0.194843 18.362 0.387721 14.9781 1.76059C11.5942 3.13346 8.56819 5.26043 6.13055 7.97952C3.96028 10.4004 2.30733 13.2337 1.26763 16.3055C1.05516 16.9333 1.42834 17.5979 2.06594 17.7788C2.70353 17.9596 3.36377 17.588 3.57973 16.9614C4.51754 14.2405 5.9911 11.7305 7.91757 9.58157C10.1115 7.13439 12.8349 5.22012 15.8804 3.98453C18.9259 2.74895 22.2132 2.22464 25.492 2.45154C28.3711 2.65078 31.1769 3.42465 33.7454 4.72301C34.3369 5.022 35.0694 4.82858 35.4008 4.25462ZM35.4008 43.7454C35.7321 44.3193 36.4679 44.5185 37.0246 44.1589C39.7079 42.4253 42.0217 40.171 43.8266 37.5254C45.8572 34.5488 47.1916 31.1532 47.7307 27.5906C48.2697 24.0279 47.9997 20.3896 46.9406 16.9455C45.9992 13.8843 44.4559 11.0465 42.4055 8.59661C41.9802 8.08837 41.2184 8.06095 40.7321 8.51118C40.2457 8.9614 40.2193 9.71858 40.6418 10.2292C42.4489 12.4129 43.8111 14.9342 44.6466 17.651C45.5998 20.7506 45.8428 24.0251 45.3577 27.2315C44.8725 30.4379 43.6716 33.4939 41.844 36.1728C40.2422 38.5208 38.1951 40.5262 35.8228 42.0776C35.2681 42.4403 35.0694 43.1714 35.4008 43.7454ZM0.0307427 25.1995C-0.00238011 24.5376 0.538008 24 1.20075 24C1.86349 24 2.39728 24.5377 2.43408 25.1994C2.59184 28.0362 3.30802 30.8182 4.54582 33.3843C5.95766 36.3113 8.01171 38.8819 10.555 40.9048C13.0982 42.9276 16.0651 44.3506 19.2347 45.0676C22.0135 45.6963 24.8853 45.7681 27.6849 45.2835C28.3379 45.1705 28.9819 45.5696 29.131 46.2153C29.2802 46.8611 28.8779 47.5086 28.2255 47.6252C25.0735 48.1889 21.8362 48.1168 18.7051 47.4085C15.1834 46.6118 11.8868 45.0307 9.06099 42.7831C6.23515 40.5354 3.95287 37.6792 2.38416 34.427C0.989465 31.5357 0.190778 28.3976 0.0307427 25.1995Z" fill="#FF060A"/>
<path d="M24 42C33.9448 42 42 33.9392 42 24C42 14.0608 33.9448 6 24 6C14.0552 6 6 14.0608 6 24C6 33.9392 14.0621 42 24 42Z" fill="#FF060A"/>
<path d="M34.124 20.7676C33.1309 19.8464 31.7516 18.443 30.6344 17.4498L30.5654 17.4066C30.4551 17.3202 30.3309 17.2483 30.1999 17.1979C27.4964 16.6941 14.9171 14.3406 14.6758 14.3694C14.6068 14.3766 14.5378 14.4054 14.4826 14.4414L14.4206 14.4918C14.3447 14.5709 14.2826 14.6645 14.2482 14.7724L14.2344 14.8156V15.0531V15.0891C15.6482 19.0331 21.2413 31.9448 22.3447 34.982C22.4137 35.1907 22.5378 35.5793 22.7723 35.6009H22.8275C22.9516 35.6009 23.4895 34.8884 23.4895 34.8884C23.4895 34.8884 33.0964 23.2435 34.0689 22.0055C34.193 21.8544 34.3033 21.6889 34.3999 21.5161C34.4275 21.3794 34.4137 21.2427 34.3654 21.1131C34.3171 20.9836 34.2275 20.8612 34.124 20.7676ZM25.9447 22.1279L30.0413 18.7309L32.4482 20.9476L25.9447 22.1279ZM24.3516 21.9048L17.2964 16.1183L28.7171 18.2271L24.3516 21.9048ZM24.9861 23.4162L32.2068 22.2502L23.9516 32.2039L24.9861 23.4162ZM16.3378 16.7013L23.7654 22.9988L22.6895 32.2111L16.3378 16.7013Z" fill="white"/>
</g>
<defs>
<clipPath id="clip0_1257_2">
<rect width="48" height="48" fill="white"/>
</clipPath>
</defs>
</svg>
