<svg width="48" height="48" viewBox="0 0 48 48" fill="none" xmlns="http://www.w3.org/2000/svg">
<path fill-rule="evenodd" clip-rule="evenodd" d="M35.4002 4.25462C35.7316 3.68067 35.5362 2.94387 34.9464 2.6416C32.0604 1.16251 28.9006 0.281719 25.6571 0.0572642C22.014 -0.194843 18.3614 0.387721 14.9775 1.76059C11.5936 3.13346 8.56764 5.26043 6.13 7.97952C3.95973 10.4004 2.30678 13.2337 1.26708 16.3055C1.05461 16.9333 1.42779 17.5979 2.06538 17.7788C2.70298 17.9596 3.36322 17.588 3.57918 16.9614C4.51699 14.2405 5.99055 11.7305 7.91702 9.58157C10.1109 7.13439 12.8343 5.22012 15.8798 3.98453C18.9253 2.74895 22.2126 2.22464 25.4914 2.45154C28.3705 2.65078 31.1764 3.42465 33.7448 4.72301C34.3363 5.022 35.0688 4.82858 35.4002 4.25462ZM35.4002 43.7454C35.7316 44.3193 36.4674 44.5185 37.024 44.1589C39.7074 42.4253 42.0212 40.171 43.8261 37.5254C45.8567 34.5488 47.191 31.1532 47.7301 27.5906C48.2692 24.0279 47.9991 20.3896 46.94 16.9455C45.9986 13.8843 44.4553 11.0465 42.405 8.59661C41.9796 8.08837 41.2178 8.06095 40.7315 8.51118C40.2452 8.9614 40.2187 9.71858 40.6412 10.2292C42.4483 12.4129 43.8106 14.9342 44.646 17.651C45.5992 20.7506 45.8423 24.0251 45.3571 27.2315C44.8719 30.4379 43.671 33.4939 41.8435 36.1728C40.2417 38.5208 38.1945 40.5262 35.8222 42.0776C35.2676 42.4403 35.0688 43.1714 35.4002 43.7454ZM0.0301934 25.1995C-0.00292941 24.5376 0.537459 24 1.2002 24C1.86294 24 2.39673 24.5377 2.43352 25.1994C2.59128 28.0362 3.30747 30.8182 4.54527 33.3843C5.9571 36.3113 8.01116 38.8819 10.5544 40.9048C13.0977 42.9276 16.0646 44.3506 19.2341 45.0676C22.013 45.6963 24.8848 45.7681 27.6843 45.2835C28.3374 45.1705 28.9814 45.5696 29.1305 46.2153C29.2796 46.8611 28.8774 47.5086 28.225 47.6252C25.0729 48.1889 21.8356 48.1168 18.7046 47.4085C15.1829 46.6118 11.8863 45.0307 9.06044 42.7831C6.2346 40.5354 3.95231 37.6792 2.38361 34.427C0.988916 31.5357 0.190229 28.3976 0.0301934 25.1995Z" fill="#0088CC"/>
<g clip-path="url(#clip0_32_1724)">
<mask id="mask0_32_1724" style="mask-type:luminance" maskUnits="userSpaceOnUse" x="6" y="6" width="36" height="36">
<path d="M42 6H6V42H42V6Z" fill="white"/>
</mask>
<g mask="url(#mask0_32_1724)">
<path d="M24 42C33.941 42 42 33.941 42 24C42 14.0589 33.941 6 24 6C14.0589 6 6 14.0589 6 24C6 33.941 14.0589 42 24 42Z" fill="#0088CC"/>
<path fill-rule="evenodd" clip-rule="evenodd" d="M18.9856 17.893H29.0785C29.4643 17.893 29.7856 17.9573 30.1713 18.1501C30.6213 18.343 30.8785 18.6644 31.007 18.9216C31.007 18.9216 31.007 18.9859 31.0713 18.9859C31.2643 19.3073 31.3928 19.693 31.3928 20.143C31.3928 20.5287 31.3285 20.9144 31.0713 21.3001L24.707 32.2287C24.5785 32.4859 24.3213 32.6144 23.9999 32.6144C23.7428 32.6144 23.4856 32.4859 23.2928 32.2287L17.0571 21.3001C16.9285 21.043 16.6714 20.7216 16.6714 20.2073C16.6071 19.7573 16.7356 19.3716 16.9285 18.9859C17.1214 18.6001 17.4428 18.2787 17.8928 18.1501C18.2785 17.893 18.7285 17.893 18.9856 17.893ZM23.2285 19.4359H18.9856C18.7285 19.4359 18.5999 19.4359 18.5356 19.5001C18.4071 19.5644 18.3428 19.6287 18.2785 19.7573C18.2142 19.8216 18.2142 19.9501 18.2142 20.0787C18.2142 20.143 18.2785 20.2073 18.4071 20.4644L23.2285 28.8217V19.4359ZM24.7713 19.4359V28.8859L29.657 20.4644C29.7213 20.3359 29.7213 20.2073 29.7213 20.0787C29.7213 19.9501 29.7213 19.8216 29.657 19.7573C29.5928 19.693 29.5928 19.6287 29.5285 19.6287L29.4643 19.5644C29.3356 19.5001 29.207 19.5001 29.0143 19.5001H24.7713V19.4359Z" fill="white"/>
</g>
</g>
<defs>
<clipPath id="clip0_32_1724">
<rect width="36" height="36" fill="white" transform="translate(6 6)"/>
</clipPath>
</defs>
</svg>
