<svg width="48" height="48" viewBox="0 0 48 48" fill="none" xmlns="http://www.w3.org/2000/svg">
<path fill-rule="evenodd" clip-rule="evenodd" d="M35.4003 4.25462C35.7316 3.68067 35.5362 2.94387 34.9464 2.6416C32.0604 1.16251 28.9006 0.281719 25.6571 0.0572642C22.0141 -0.194843 18.3615 0.387721 14.9776 1.76059C11.5937 3.13346 8.5677 5.26043 6.13006 7.97952C3.95979 10.4004 2.30684 13.2337 1.26714 16.3055C1.05467 16.9333 1.42785 17.5979 2.06545 17.7788C2.70304 17.9596 3.36328 17.588 3.57924 16.9614C4.51705 14.2405 5.99061 11.7305 7.91708 9.58157C10.111 7.13439 12.8344 5.22012 15.8799 3.98453C18.9254 2.74895 22.2127 2.22464 25.4915 2.45154C28.3706 2.65078 31.1764 3.42465 33.7449 4.72301C34.3364 5.02201 35.0689 4.82858 35.4003 4.25462ZM35.4003 43.7454C35.7316 44.3193 36.4674 44.5185 37.0241 44.1589C39.7074 42.4253 42.0212 40.171 43.8261 37.5254C45.8567 34.5488 47.1911 31.1532 47.7302 27.5906C48.2692 24.0279 47.9992 20.3896 46.9401 16.9455C45.9987 13.8843 44.4554 11.0465 42.405 8.59661C41.9797 8.08837 41.2179 8.06095 40.7316 8.51118C40.2452 8.9614 40.2188 9.71858 40.6413 10.2292C42.4484 12.4129 43.8106 14.9342 44.6461 17.651C45.5993 20.7506 45.8423 24.0251 45.3572 27.2315C44.872 30.4379 43.6711 33.4939 41.8435 36.1728C40.2417 38.5208 38.1946 40.5262 35.8223 42.0776C35.2676 42.4403 35.0689 43.1714 35.4003 43.7454ZM0.0302544 25.1995C-0.00286838 24.5376 0.53752 24 1.20026 24C1.863 24 2.39679 24.5377 2.43359 25.1994C2.59135 28.0362 3.30753 30.8182 4.54533 33.3843C5.95717 36.3113 8.01122 38.8819 10.5545 40.9048C13.0977 42.9276 16.0646 44.3506 19.2342 45.0676C22.013 45.6963 24.8848 45.7681 27.6844 45.2835C28.3374 45.1705 28.9814 45.5696 29.1305 46.2153C29.2797 46.8611 28.8774 47.5086 28.225 47.6252C25.073 48.1889 21.8357 48.1168 18.7046 47.4085C15.1829 46.6118 11.8863 45.0307 9.0605 42.7831C6.23466 40.5354 3.95238 37.6792 2.38367 34.427C0.988977 31.5357 0.19029 28.3976 0.0302544 25.1995Z" fill="#2775CA"/>
<path d="M24 42C33.9751 42 42 33.9751 42 24C42 14.0249 33.9751 6 24 6C14.0249 6 6 14.0249 6 24C6 33.9751 14.0249 42 24 42Z" fill="#2775CA"/>
<path d="M28.9503 26.8499C28.9503 24.225 27.3753 23.325 24.2253 22.95C21.9753 22.65 21.5253 22.05 21.5253 20.9999C21.5253 19.9498 22.2754 19.275 23.7753 19.275C25.1253 19.275 25.8754 19.725 26.2503 20.85C26.3254 21.075 26.5504 21.2249 26.7754 21.2249H27.9753C28.2753 21.2249 28.5003 20.9999 28.5003 20.7V20.625C28.2003 18.9749 26.8503 17.7 25.1253 17.55V15.75C25.1253 15.45 24.9003 15.225 24.5254 15.1499L23.4004 15.1499C23.1003 15.1499 22.8753 15.3749 22.8003 15.75V17.475C20.5503 17.775 19.1254 19.275 19.1254 21.15C19.1254 23.625 20.6253 24.5999 23.7753 24.975C25.8754 25.35 26.5504 25.8 26.5504 27C26.5504 28.2001 25.5003 29.025 24.0754 29.025C22.1253 29.025 21.4503 28.1999 21.2253 27.0749C21.1504 26.775 20.9254 26.6249 20.7004 26.6249H19.4253C19.1254 26.6249 18.9004 26.8499 18.9004 27.15V27.225C19.2003 29.0999 20.4003 30.4499 22.8753 30.825V32.625C22.8753 32.9249 23.1003 33.1499 23.4753 33.225H24.6003C24.9003 33.225 25.1253 33 25.2004 32.625V30.825C27.4504 30.4499 28.9503 28.8749 28.9503 26.8499Z" fill="white"/>
<path d="M20.175 34.7249C14.325 32.6251 11.3249 26.1001 13.5001 20.3249C14.6251 17.1749 17.1001 14.775 20.175 13.65C20.4751 13.5001 20.625 13.2751 20.625 12.8999V11.85C20.625 11.5499 20.4751 11.3249 20.175 11.2501C20.0999 11.2501 19.95 11.2501 19.8749 11.3249C12.75 13.5749 8.84994 21.1501 11.0999 28.275C12.4499 32.4749 15.675 35.7 19.8749 37.05C20.175 37.1999 20.4751 37.05 20.5499 36.7499C20.625 36.6751 20.625 36.6 20.625 36.4501V35.3999C20.625 35.1749 20.4 34.8751 20.175 34.7249ZM28.1251 11.3249C27.825 11.175 27.5249 11.3249 27.4501 11.625C27.375 11.7001 27.375 11.7749 27.375 11.9251V12.975C27.375 13.2751 27.6 13.5749 27.825 13.7251C33.675 15.8249 36.6751 22.3499 34.4999 28.1251C33.3749 31.2751 30.8999 33.675 27.825 34.8C27.5249 34.9499 27.375 35.1749 27.375 35.5501V36.6C27.375 36.9001 27.5249 37.1251 27.825 37.1999C27.9001 37.1999 28.05 37.1999 28.1251 37.1251C35.25 34.8751 39.1501 27.2999 36.9001 20.175C35.5501 15.9 32.2499 12.6749 28.1251 11.3249Z" fill="white"/>
</svg>
