<svg width="48" height="48" viewBox="0 0 48 48" fill="none" xmlns="http://www.w3.org/2000/svg">
<g clip-path="url(#clip0_49_2027)">
<path d="M24 48C37.2548 48 48 37.2548 48 24C48 10.7452 37.2548 0 24 0C10.7452 0 0 10.7452 0 24C0 37.2548 10.7452 48 24 48Z" fill="url(#paint0_linear_49_2027)"/>
<g clip-path="url(#clip1_49_2027)">
<path d="M24 44C35.0457 44 44 35.0457 44 24C44 12.9543 35.0457 4 24 4C12.9543 4 4 12.9543 4 24C4 35.0457 12.9543 44 24 44Z" fill="#009393"/>
<path fill-rule="evenodd" clip-rule="evenodd" d="M24.0247 25.4295C27.4642 25.4295 30.3387 24.848 31.0412 24.071C30.4447 23.412 28.2872 22.893 25.5472 22.751V24.3925C25.0567 24.418 24.5467 24.4305 24.0242 24.4305C23.5017 24.4305 22.9917 24.418 22.5002 24.3925V22.751C19.7612 22.893 17.6027 23.412 17.0062 24.071C17.7097 24.848 20.5847 25.4295 24.0242 25.4295H24.0247ZM30.1357 17.703V19.9635H25.5472V21.531C28.7702 21.6985 31.1887 22.3875 31.2067 23.212V24.931C31.1887 25.7555 28.7702 26.443 25.5472 26.611V30.458H22.5007V26.611C19.2777 26.4435 16.8602 25.7555 16.8422 24.931V23.212C16.8602 22.3875 19.2777 21.6985 22.5007 21.531V19.9635H17.9122V17.703H30.1362H30.1357ZM16.1077 14.1055H32.2157C32.6007 14.1055 32.9552 14.308 33.1472 14.637L37.8397 22.695C38.0827 23.113 38.0107 23.6405 37.6637 23.979L24.7467 36.588C24.3277 36.9965 23.6547 36.9965 23.2367 36.588L10.3357 23.996C9.98116 23.649 9.91416 23.1065 10.1757 22.6865L15.1922 14.612C15.3877 14.298 15.7347 14.106 16.1082 14.106L16.1077 14.1055Z" fill="white"/>
</g>
</g>
<defs>
<linearGradient id="paint0_linear_49_2027" x1="0.0203198" y1="23.972" x2="47.9883" y2="23.972" gradientUnits="userSpaceOnUse">
<stop stop-color="#8A86FF"/>
<stop offset="0.9952" stop-color="#E13CBD"/>
</linearGradient>
<clipPath id="clip0_49_2027">
<rect width="48" height="48" fill="white"/>
</clipPath>
<clipPath id="clip1_49_2027">
<rect width="40" height="40" fill="white" transform="translate(4 4)"/>
</clipPath>
</defs>
</svg>
