<svg width="48" height="48" viewBox="0 0 48 48" fill="none" xmlns="http://www.w3.org/2000/svg">
<path fill-rule="evenodd" clip-rule="evenodd" d="M35.4003 4.25462C35.7316 3.68067 35.5362 2.94387 34.9464 2.6416C32.0604 1.16251 28.9006 0.281719 25.6571 0.0572642C22.0141 -0.194843 18.3615 0.387721 14.9776 1.76059C11.5937 3.13346 8.5677 5.26043 6.13006 7.97952C3.95979 10.4004 2.30684 13.2337 1.26714 16.3055C1.05467 16.9333 1.42785 17.5979 2.06545 17.7788C2.70304 17.9596 3.36328 17.588 3.57924 16.9614C4.51705 14.2405 5.99061 11.7305 7.91708 9.58157C10.111 7.13439 12.8344 5.22012 15.8799 3.98453C18.9254 2.74895 22.2127 2.22464 25.4915 2.45154C28.3706 2.65078 31.1764 3.42465 33.7449 4.72301C34.3364 5.02201 35.0689 4.82858 35.4003 4.25462ZM35.4003 43.7454C35.7316 44.3193 36.4674 44.5185 37.0241 44.1589C39.7074 42.4253 42.0212 40.171 43.8261 37.5254C45.8567 34.5488 47.1911 31.1532 47.7302 27.5906C48.2692 24.0279 47.9992 20.3896 46.9401 16.9455C45.9987 13.8843 44.4554 11.0465 42.405 8.59661C41.9797 8.08837 41.2179 8.06095 40.7316 8.51118C40.2452 8.9614 40.2188 9.71858 40.6413 10.2292C42.4484 12.4129 43.8106 14.9342 44.6461 17.651C45.5993 20.7506 45.8423 24.0251 45.3572 27.2315C44.872 30.4379 43.6711 33.4939 41.8435 36.1728C40.2417 38.5208 38.1946 40.5262 35.8223 42.0776C35.2676 42.4403 35.0689 43.1714 35.4003 43.7454ZM0.0302544 25.1995C-0.00286838 24.5376 0.53752 24 1.20026 24C1.863 24 2.39679 24.5377 2.43359 25.1994C2.59135 28.0362 3.30753 30.8182 4.54533 33.3843C5.95717 36.3113 8.01122 38.8819 10.5545 40.9048C13.0977 42.9276 16.0646 44.3506 19.2342 45.0676C22.013 45.6963 24.8848 45.7681 27.6844 45.2835C28.3374 45.1705 28.9814 45.5696 29.1305 46.2153C29.2797 46.8611 28.8774 47.5086 28.225 47.6252C25.073 48.1889 21.8357 48.1168 18.7046 47.4085C15.1829 46.6118 11.8863 45.0307 9.0605 42.7831C6.23466 40.5354 3.95238 37.6792 2.38367 34.427C0.988977 31.5357 0.19029 28.3976 0.0302544 25.1995Z" fill="#009393"/>
<g clip-path="url(#clip0_4699_6251)">
<path d="M24 42C33.9411 42 42 33.9411 42 24C42 14.0589 33.9411 6 24 6C14.0589 6 6 14.0589 6 24C6 33.9411 14.0589 42 24 42Z" fill="#009393"/>
<path fill-rule="evenodd" clip-rule="evenodd" d="M24.0221 25.2866C27.1176 25.2866 29.7047 24.7632 30.3369 24.0639C29.8001 23.4708 27.8583 23.0037 25.3923 22.8759V24.3533C24.9509 24.3762 24.4919 24.3875 24.0216 24.3875C23.5514 24.3875 23.0924 24.3762 22.65 24.3533V22.8759C20.1849 23.0037 18.2423 23.4708 17.7054 24.0639C18.3386 24.7632 20.9261 25.2866 24.0216 25.2866H24.0221ZM29.522 18.3327V20.3672H25.3923V21.7779C28.293 21.9287 30.4697 22.5488 30.4859 23.2908V24.8379C30.4697 25.58 28.293 26.1987 25.3923 26.3499V29.8122H22.6505V26.3499C19.7498 26.1992 17.574 25.58 17.5578 24.8379V23.2908C17.574 22.5488 19.7498 21.9287 22.6505 21.7779V20.3672H18.5208V18.3327L29.5224 18.3327H29.522ZM16.8968 15.095L31.394 15.095C31.7405 15.095 32.0595 15.2772 32.2323 15.5733L36.4556 22.8255C36.6743 23.2017 36.6095 23.6765 36.2972 23.9811L24.6719 35.3292C24.2948 35.6969 23.6891 35.6969 23.3129 35.3292L11.702 23.9964C11.3829 23.6841 11.3226 23.1959 11.558 22.8179L16.0728 15.5508C16.2488 15.2682 16.5611 15.0954 16.8972 15.0954L16.8968 15.095Z" fill="white"/>
</g>
<defs>
<clipPath id="clip0_4699_6251">
<rect width="36" height="36" fill="white" transform="translate(6 6)"/>
</clipPath>
</defs>
</svg>
