<svg width="48" height="48" viewBox="0 0 48 48" fill="none" xmlns="http://www.w3.org/2000/svg">
<g clip-path="url(#clip0_95_2056)">
<path d="M24 42C33.9411 42 42 33.9411 42 24C42 14.0589 33.9411 6 24 6C14.0589 6 6 14.0589 6 24C6 33.9411 14.0589 42 24 42Z" fill="#009393"/>
<path fill-rule="evenodd" clip-rule="evenodd" d="M24.0221 25.2866C27.1176 25.2866 29.7047 24.7632 30.3369 24.0639C29.8001 23.4708 27.8583 23.0037 25.3923 22.8759V24.3533C24.9509 24.3762 24.4919 24.3875 24.0216 24.3875C23.5514 24.3875 23.0924 24.3762 22.65 24.3533V22.8759C20.1849 23.0037 18.2423 23.4708 17.7054 24.0639C18.3386 24.7632 20.9261 25.2866 24.0216 25.2866H24.0221ZM29.522 18.3327V20.3672H25.3923V21.7779C28.293 21.9287 30.4697 22.5488 30.4859 23.2908V24.8379C30.4697 25.58 28.293 26.1987 25.3923 26.3499V29.8122H22.6505V26.3499C19.7498 26.1992 17.574 25.58 17.5578 24.8379V23.2908C17.574 22.5488 19.7498 21.9287 22.6505 21.7779V20.3672H18.5208V18.3327H29.5224H29.522ZM16.8968 15.095H31.394C31.7405 15.095 32.0595 15.2772 32.2323 15.5733L36.4556 22.8255C36.6743 23.2017 36.6095 23.6765 36.2972 23.9811L24.6719 35.3292C24.2948 35.6969 23.6891 35.6969 23.3129 35.3292L11.702 23.9964C11.3829 23.6841 11.3226 23.1959 11.558 22.8179L16.0728 15.5508C16.2488 15.2682 16.5611 15.0954 16.8972 15.0954L16.8968 15.095Z" fill="white"/>
</g>
<path d="M46.8 24C47.4627 24 48.0031 23.4624 47.97 22.8005C47.8079 19.5616 46.9908 16.3847 45.5635 13.4635C43.9603 10.1825 41.6295 7.31054 38.7486 5.06644C35.8677 2.82233 32.5127 1.26522 28.939 0.51371C25.7574 -0.155375 22.4772 -0.170192 19.2971 0.465288C18.6472 0.595157 18.2582 1.25068 18.4203 1.89327C18.5825 2.53586 19.2345 2.92183 19.8851 2.79558C22.7103 2.24731 25.6209 2.26842 28.4451 2.86234C31.6614 3.5387 34.6809 4.94009 37.2737 6.95979C39.8665 8.97949 41.9642 11.5642 43.4071 14.5172C44.6741 17.1102 45.4069 19.9271 45.5667 22.8006C45.6035 23.4623 46.1373 24 46.8 24Z" fill="#009393"/>
<path d="M12.6 43.7454C12.2686 44.3193 12.464 45.0561 13.0538 45.3584C15.8968 46.8155 19.006 47.6921 22.1996 47.9324C25.7927 48.2027 29.4005 47.6605 32.7554 46.346C36.1103 45.0315 39.1262 42.9785 41.5792 40.3392C43.7596 37.9934 45.4457 35.2379 46.5421 32.2373C46.7696 31.6148 46.4124 30.9414 45.7794 30.7453C45.1463 30.5492 44.4773 30.9049 44.2464 31.5261C43.2588 34.183 41.7564 36.6234 39.8213 38.7053C37.6136 41.0806 34.8993 42.9283 31.8799 44.1114C28.8605 45.2944 25.6134 45.7824 22.3797 45.5391C19.5454 45.3259 16.785 44.5557 14.2554 43.277C13.6639 42.978 12.9314 43.1714 12.6 43.7454Z" fill="#009393"/>
<path d="M12.6 4.25462C12.2686 3.68067 11.5328 3.48149 10.9762 3.84113C8.28656 5.57877 5.96829 7.83947 4.16163 10.493C2.12955 13.4776 0.797092 16.8823 0.263508 20.4533C-0.270077 24.0244 0.00896867 27.6698 1.07986 31.1181C2.03195 34.1838 3.58814 37.0234 5.65234 39.4714C6.07957 39.978 6.84145 40.0026 7.32612 39.5506C7.81079 39.0986 7.83443 38.3413 7.41002 37.8323C5.59055 35.6501 4.21687 33.1271 3.37187 30.4063C2.40807 27.3028 2.15693 24.022 2.63716 20.808C3.11738 17.594 4.3166 14.5298 6.14547 11.8437C7.7489 9.48867 9.80008 7.47744 12.178 5.92241C12.7326 5.55968 12.9314 4.82857 12.6 4.25462Z" fill="#009393"/>
<defs>
<clipPath id="clip0_95_2056">
<rect width="36" height="36" fill="white" transform="translate(6 6)"/>
</clipPath>
</defs>
</svg>
