<svg width="48" height="48" viewBox="0 0 48 48" fill="none" xmlns="http://www.w3.org/2000/svg">
<path fill-rule="evenodd" clip-rule="evenodd" d="M35.4003 4.25462C35.7316 3.68067 35.5362 2.94387 34.9464 2.6416C32.0604 1.16251 28.9006 0.281719 25.6571 0.0572642C22.0141 -0.194843 18.3615 0.387721 14.9776 1.76059C11.5937 3.13346 8.5677 5.26043 6.13006 7.97952C3.95979 10.4004 2.30684 13.2337 1.26714 16.3055C1.05467 16.9333 1.42785 17.5979 2.06545 17.7788C2.70304 17.9596 3.36328 17.588 3.57924 16.9614C4.51705 14.2405 5.99061 11.7305 7.91708 9.58157C10.111 7.13439 12.8344 5.22012 15.8799 3.98453C18.9254 2.74895 22.2127 2.22464 25.4915 2.45154C28.3706 2.65078 31.1764 3.42465 33.7449 4.72301C34.3364 5.02201 35.0689 4.82858 35.4003 4.25462ZM35.4003 43.7454C35.7316 44.3193 36.4674 44.5185 37.0241 44.1589C39.7074 42.4253 42.0212 40.171 43.8261 37.5254C45.8567 34.5488 47.1911 31.1532 47.7302 27.5906C48.2692 24.0279 47.9992 20.3896 46.9401 16.9455C45.9987 13.8843 44.4554 11.0465 42.405 8.59661C41.9797 8.08837 41.2179 8.06095 40.7316 8.51118C40.2452 8.9614 40.2188 9.71858 40.6413 10.2292C42.4484 12.4129 43.8106 14.9342 44.6461 17.651C45.5993 20.7506 45.8423 24.0251 45.3572 27.2315C44.872 30.4379 43.6711 33.4939 41.8435 36.1728C40.2417 38.5208 38.1946 40.5262 35.8223 42.0776C35.2676 42.4403 35.0689 43.1714 35.4003 43.7454ZM0.0302544 25.1995C-0.00286838 24.5376 0.53752 24 1.20026 24C1.863 24 2.39679 24.5377 2.43359 25.1994C2.59135 28.0362 3.30753 30.8182 4.54533 33.3843C5.95717 36.3113 8.01122 38.8819 10.5545 40.9048C13.0977 42.9276 16.0646 44.3506 19.2342 45.0676C22.013 45.6963 24.8848 45.7681 27.6844 45.2835C28.3374 45.1705 28.9814 45.5696 29.1305 46.2153C29.2797 46.8611 28.8774 47.5086 28.225 47.6252C25.073 48.1889 21.8357 48.1168 18.7046 47.4085C15.1829 46.6118 11.8863 45.0307 9.0605 42.7831C6.23466 40.5354 3.95238 37.6792 2.38367 34.427C0.988977 31.5357 0.19029 28.3976 0.0302544 25.1995Z" fill="#00A3FF"/>
<g clip-path="url(#clip0_4700_9587)">
<mask id="mask0_4700_9587" style="mask-type:alpha" maskUnits="userSpaceOnUse" x="6" y="6" width="36" height="36">
<path d="M24 42C33.9411 42 42 33.9411 42 24C42 14.0589 33.9411 6 24 6C14.0589 6 6 14.0589 6 24C6 33.9411 14.0589 42 24 42Z" fill="#D9D9D9"/>
</mask>
<g mask="url(#mask0_4700_9587)">
<path d="M44.48 3.52002L3.52002 3.52002L3.52002 44.48L44.48 44.48L44.48 3.52002Z" fill="#00A3FF"/>
<path d="M15.5988 22.5468L15.3695 22.8985C12.7835 26.8656 13.3611 32.0611 16.7582 35.3896C18.7566 37.3478 21.3759 38.327 23.9953 38.3273C23.9953 38.3273 23.9953 38.3273 15.5988 22.5468Z" fill="white"/>
<path opacity="0.6" d="M23.9951 27.3428L15.5986 22.5468C23.9951 38.3273 23.9951 38.3273 23.9951 38.3273C23.9951 34.8904 23.9951 30.9522 23.9951 27.3428Z" fill="white"/>
<path opacity="0.6" d="M32.4009 22.5468L32.6302 22.8985C35.2162 26.8656 34.6386 32.0611 31.2415 35.3896C29.243 37.3478 26.6238 38.327 24.0044 38.3273C24.0044 38.3273 24.0044 38.3273 32.4009 22.5468Z" fill="white"/>
<path opacity="0.2" d="M24.0039 27.3428L32.4004 22.5468C24.004 38.3273 24.0039 38.3273 24.0039 38.3273C24.0039 34.8904 24.0039 30.9522 24.0039 27.3428Z" fill="white"/>
<path opacity="0.2" d="M24.0049 16.6268V24.8987L31.2375 20.7654L24.0049 16.6268Z" fill="white"/>
<path opacity="0.6" d="M24.0064 16.6268L16.7686 20.7653L24.0064 24.8987V16.6268Z" fill="white"/>
<path d="M24.0064 9.67004L16.7686 20.768L24.0064 16.6178V9.67004Z" fill="white"/>
<path opacity="0.6" d="M24.0049 16.6166L31.243 20.7669L24.0049 9.66345V16.6166Z" fill="white"/>
</g>
</g>
<defs>
<clipPath id="clip0_4700_9587">
<rect width="36" height="36" fill="white" transform="translate(6 6)"/>
</clipPath>
</defs>
</svg>
