<svg width="500" height="500" viewBox="0 0 500 500" fill="none" xmlns="http://www.w3.org/2000/svg">
<g clip-path="url(#clip0_1291_2217)">
<path d="M386.608 166.967H342.41C337.5 166.967 332.59 164.735 329.017 161.163L311.16 141.074C305.802 135.27 297.323 134.824 291.073 139.735L289.732 141.074L274.552 158.485C269.642 164.288 262.053 167.413 254.465 167.413H12.9464C6.25 187.056 1.78572 208.038 0 229.021H228.571C232.589 229.021 236.607 227.235 239.286 224.556L260.715 202.235C263.393 199.556 266.965 197.771 270.982 197.771H271.875C275.892 197.771 279.91 199.556 282.59 202.681L300.448 222.771C304.018 226.788 308.928 229.021 313.84 229.021H500C498.215 208.038 493.75 187.056 487.052 167.413H386.608V166.967ZM240.179 290.181L222.321 270.091C216.964 264.289 208.482 263.841 202.232 268.754L200.893 270.091L185.268 287.504C180.357 293.306 173.214 296.431 165.625 296.431H3.57143C7.58927 317.859 14.7322 338.841 24.1072 358.931H137.947C141.964 358.931 145.536 357.146 148.661 354.466L170.089 332.146C172.768 329.466 176.339 327.681 180.357 327.681H181.25C185.268 327.681 189.286 329.466 191.964 332.591L209.821 352.681C213.393 356.699 218.303 358.931 223.214 358.931H475.892C485.267 339.289 492.41 318.306 496.427 296.431H253.573C248.214 296.431 243.304 294.199 240.179 290.181ZM327.677 95.5383L349.108 73.2168C351.785 70.5383 355.358 68.7525 359.375 68.7525H360.267C364.285 68.7525 368.303 70.5383 370.983 73.2168L388.84 93.306C392.41 97.324 397.323 99.1098 402.233 99.1098H450.448C366.518 -11.6046 208.928 -33.4797 97.7678 50.0025C79.4643 63.8418 62.9465 80.3598 48.6608 99.1098H316.965C321.428 100.003 325 98.2168 327.677 95.5383ZM154.911 420.539C149.553 420.539 144.643 418.306 141.518 414.734L123.661 394.646C118.303 388.841 109.375 388.396 103.572 393.754L102.678 394.646L87.0535 412.056C82.1427 417.859 75 420.984 67.4108 420.984H66.5177C160.714 521.879 320.09 526.789 421.427 431.699C425.447 428.129 429.018 424.109 433.035 420.091H154.911V420.539Z" fill="white"/>
</g>
<g clip-path="url(#clip1_1291_2217)">
<mask id="mask0_1291_2217" style="mask-type:luminance" maskUnits="userSpaceOnUse" x="300" y="300" width="200" height="200">
<path d="M500 300H300V500H500V300Z" fill="white"/>
</mask>
<g mask="url(#mask0_1291_2217)">
<path d="M500 300H300V500H500V300Z" fill="white"/>
<path d="M847.945 300H300V847.945H847.945V300Z" fill="black"/>
<g opacity="0.4" filter="url(#filter0_f_1291_2217)">
<path d="M624.715 265.785C792.833 208.419 956.263 241.462 989.748 339.588C1023.23 437.714 914.082 563.764 745.966 621.13C577.848 678.495 414.418 645.453 380.935 547.327C347.452 449.201 456.596 323.15 624.715 265.785Z" fill="#FF2B57"/>
</g>
<g opacity="0.6" filter="url(#filter1_f_1291_2217)">
<path d="M579.495 232.211C808.906 197.272 1014.95 300.717 1039.7 463.261C1064.46 625.806 898.553 785.898 669.141 820.837C439.73 855.774 233.688 752.331 208.933 589.786C184.178 427.241 350.084 267.149 579.495 232.211Z" fill="#164094"/>
</g>
<path d="M400.274 475.215C380.38 475.203 361.304 467.298 347.23 453.238C333.157 439.177 325.236 420.108 325.206 400.214C325.236 380.319 333.157 361.249 347.23 347.187C361.303 333.124 380.379 325.218 400.274 325.203C420.169 325.218 439.245 333.124 453.318 347.187C467.391 361.249 475.312 380.319 475.343 400.214C475.312 420.108 467.391 439.177 453.318 453.238C439.244 467.298 420.168 475.203 400.274 475.215ZM400.274 330.978C381.91 330.99 364.301 338.287 351.31 351.267C338.319 364.247 331.008 381.85 330.98 400.214C330.998 418.58 338.306 436.188 351.3 449.169C364.293 462.149 381.908 469.441 400.274 469.441C418.641 469.441 436.255 462.149 449.249 449.169C462.242 436.188 469.55 418.58 469.568 400.214C469.54 381.85 462.229 364.247 449.238 351.267C436.247 338.287 418.638 330.99 400.274 330.978Z" fill="white"/>
<path d="M409.765 463.349C393.283 463.336 377.479 456.787 365.82 445.137C354.161 433.487 347.599 417.688 347.574 401.206C347.599 384.724 354.161 368.925 365.82 357.275C377.479 345.625 393.283 339.075 409.765 339.062C426.247 339.075 442.051 345.625 453.71 357.275C465.369 368.925 471.931 384.724 471.957 401.206C471.931 417.688 465.369 433.487 453.71 445.137C442.051 456.787 426.247 463.336 409.765 463.349ZM409.765 343.547C394.473 343.56 379.811 349.638 368.995 360.447C358.179 371.256 352.091 385.914 352.068 401.206C352.094 416.496 358.182 431.152 368.998 441.959C379.815 452.766 394.475 458.842 409.765 458.855C425.055 458.842 439.716 452.766 450.532 441.959C461.348 431.152 467.437 416.496 467.462 401.206C467.437 385.916 461.348 371.26 450.532 360.453C439.716 349.646 425.055 343.57 409.765 343.557V343.547Z" fill="white"/>
<path d="M419.255 451.493C406.186 451.483 393.655 446.289 384.41 437.052C375.165 427.814 369.962 415.286 369.941 402.217C369.962 389.148 375.165 376.621 384.41 367.383C393.655 358.145 406.186 352.952 419.255 352.941C432.326 352.949 444.858 358.142 454.104 367.38C463.349 376.618 468.552 389.147 468.569 402.217C468.549 415.286 463.346 427.814 454.101 437.052C444.856 446.289 432.324 451.483 419.255 451.493ZM419.255 356.146C407.036 356.154 395.317 361.009 386.673 369.646C378.029 378.284 373.164 389.997 373.146 402.217C373.166 414.435 378.032 426.147 386.677 434.782C395.321 443.417 407.037 448.271 419.255 448.279C431.474 448.271 443.19 443.417 451.835 434.782C460.478 426.147 465.345 414.435 465.365 402.217C465.347 389.997 460.482 378.284 451.838 369.646C443.193 361.009 431.476 356.154 419.255 356.146Z" fill="white"/>
<path d="M428.739 439.627C419.082 439.619 409.823 435.782 402.992 428.956C396.161 422.131 392.317 412.875 392.301 403.219C392.314 393.561 396.158 384.302 402.989 377.475C409.82 370.647 419.081 366.808 428.739 366.801C438.397 366.808 447.658 370.647 454.488 377.475C461.319 384.302 465.163 393.561 465.175 403.219C465.16 412.875 461.316 422.131 454.485 428.956C447.654 435.782 438.395 439.619 428.739 439.627ZM428.739 368.726C419.591 368.733 410.82 372.369 404.35 378.836C397.88 385.302 394.239 394.071 394.226 403.219C394.242 412.365 397.883 421.131 404.353 427.595C410.823 434.06 419.593 437.694 428.739 437.702C437.884 437.694 446.654 434.06 453.124 427.595C459.593 421.131 463.236 412.365 463.25 403.219C463.238 394.071 459.598 385.302 453.128 378.836C446.658 372.369 437.886 368.733 428.739 368.726Z" fill="white"/>
</g>
</g>
<circle cx="400" cy="400" r="97.5" stroke="black" stroke-width="5"/>
<defs>
<filter id="filter0_f_1291_2217" x="-75.1031" y="-212.383" width="1520.89" height="1311.68" filterUnits="userSpaceOnUse" color-interpolation-filters="sRGB">
<feFlood flood-opacity="0" result="BackgroundImageFix"/>
<feBlend mode="normal" in="SourceGraphic" in2="BackgroundImageFix" result="shape"/>
<feGaussianBlur stdDeviation="225" result="effect1_foregroundBlur_1291_2217"/>
</filter>
<filter id="filter1_f_1291_2217" x="-543.513" y="-524.574" width="2335.66" height="2102.2" filterUnits="userSpaceOnUse" color-interpolation-filters="sRGB">
<feFlood flood-opacity="0" result="BackgroundImageFix"/>
<feBlend mode="normal" in="SourceGraphic" in2="BackgroundImageFix" result="shape"/>
<feGaussianBlur stdDeviation="375" result="effect1_foregroundBlur_1291_2217"/>
</filter>
<clipPath id="clip0_1291_2217">
<rect width="500" height="500" fill="white"/>
</clipPath>
<clipPath id="clip1_1291_2217">
<rect x="300" y="300" width="200" height="200" rx="100" fill="white"/>
</clipPath>
</defs>
</svg>
