<svg width="500" height="500" viewBox="0 0 500 500" fill="none" xmlns="http://www.w3.org/2000/svg">
<g clip-path="url(#clip0_1208_1659)">
<mask id="mask0_1208_1659" style="mask-type:alpha" maskUnits="userSpaceOnUse" x="0" y="0" width="500" height="500">
<rect width="500" height="500" fill="#D9D9D9"/>
</mask>
<g mask="url(#mask0_1208_1659)">
<path d="M47.0581 151.17V345.408C47.0581 357.81 53.6843 369.278 64.4184 375.459L232.635 472.597C243.368 478.778 256.584 478.778 267.319 472.597L435.535 375.459C446.27 369.278 452.895 357.81 452.895 345.408V151.17C452.895 138.769 446.27 127.301 435.535 121.12L267.319 23.9808C256.584 17.8007 243.368 17.8007 232.635 23.9808L64.3779 121.12C53.6437 127.301 47.0581 138.769 47.0581 151.17Z" fill="#213147"/>
<path d="M286.676 285.964L262.686 351.751C262.037 353.58 262.037 355.575 262.686 357.405L303.956 470.602L351.689 443.035L294.397 285.964C293.095 282.345 287.973 282.345 286.672 285.964H286.676Z" fill="#12AAFF"/>
<path d="M334.78 175.325C333.478 171.707 328.356 171.707 327.056 175.325L303.064 241.112C302.416 242.942 302.416 244.937 303.064 246.766L370.681 432.099L418.416 404.531L334.775 175.325H334.78Z" fill="#12AAFF"/>
<path d="M249.959 31.2606C251.14 31.2606 252.321 31.585 253.375 32.1571L435.416 137.265C437.527 138.486 438.829 140.761 438.829 143.162V353.338C438.829 355.779 437.527 358.014 435.416 359.233L253.375 464.341C252.356 464.949 251.14 465.238 249.959 465.238C248.78 465.238 247.6 464.914 246.546 464.341L64.5049 359.314C62.3922 358.095 61.0904 355.819 61.0904 353.419V143.202C61.0904 140.761 62.3922 138.527 64.5049 137.306L246.546 32.1976C247.605 31.5895 248.78 31.2606 249.959 31.2606ZM249.959 0.5625C243.497 0.5625 236.986 2.22918 231.176 5.60304L49.176 110.671C37.5454 117.378 30.3922 129.783 30.3922 143.198V353.373C30.3922 366.792 37.5498 379.193 49.176 385.9L231.216 491.008C237.032 494.341 243.497 496.049 250 496.049C256.505 496.049 262.973 494.382 268.784 491.008L450.824 385.9C462.456 379.193 469.608 366.787 469.608 353.373V143.198C469.608 129.779 462.451 117.378 450.824 110.671L268.743 5.60304C262.929 2.22918 256.424 0.5625 249.959 0.5625Z" fill="#9DCCED"/>
<path d="M129.563 432.343L146.315 386.479L180.022 414.492L148.509 443.281L129.563 432.343Z" fill="#213147"/>
<path d="M234.63 128.158H188.481C185.027 128.158 181.936 130.311 180.757 133.568L81.8284 404.775L129.562 432.342L238.495 133.69C239.514 131.005 237.517 128.158 234.63 128.158Z" fill="white"/>
<path d="M315.382 128.158H269.233C265.779 128.158 262.688 130.311 261.508 133.568L148.553 443.244L196.287 470.812L319.247 133.69C320.225 131.005 318.228 128.158 315.382 128.158Z" fill="white"/>
</g>
</g>
<g clip-path="url(#clip1_1208_1659)">
<path d="M399.7 499.499C454.818 499.499 499.5 454.817 499.5 399.699C499.5 344.581 454.818 299.898 399.7 299.898C344.582 299.898 299.899 344.581 299.899 399.699C299.899 454.817 344.582 499.499 399.7 499.499Z" fill="white"/>
<path d="M408.715 387.452L456.071 340.098L438.105 322.135L399.734 360.506L361.362 322.135L343.398 340.098L390.752 387.452C393.232 389.932 396.483 391.173 399.734 391.173C402.984 391.173 406.235 389.933 408.715 387.452ZM477.267 438.039L438.896 399.668L477.267 361.296L459.303 343.333L411.95 390.687C406.99 395.647 406.99 403.69 411.95 408.65L459.303 456.004L477.267 438.039ZM399.668 438.895L438.039 477.266L456.002 459.302L408.649 411.949C403.688 406.988 395.647 406.988 390.685 411.949L343.332 459.302L361.297 477.266L399.668 438.895ZM387.452 408.715C389.835 406.332 391.173 403.102 391.173 399.733C391.173 396.365 389.835 393.133 387.452 390.751L340.099 343.398L322.135 361.363L360.506 399.733L322.135 438.105L340.099 456.069L387.452 408.715Z" fill="black"/>
</g>
<circle cx="400" cy="400" r="97.5" stroke="black" stroke-width="5"/>
<defs>
<clipPath id="clip0_1208_1659">
<rect width="500" height="500" rx="250" fill="white"/>
</clipPath>
<clipPath id="clip1_1208_1659">
<rect width="200" height="200" fill="white" transform="translate(299.6 299.6)"/>
</clipPath>
</defs>
</svg>
