<svg width="500" height="500" viewBox="0 0 500 500" fill="none" xmlns="http://www.w3.org/2000/svg">
<g clip-path="url(#clip0_1223_1944)">
<mask id="mask0_1223_1944" style="mask-type:alpha" maskUnits="userSpaceOnUse" x="0" y="0" width="500" height="500">
<rect width="500" height="500" fill="#D9D9D9"/>
</mask>
<g mask="url(#mask0_1223_1944)">
<g clip-path="url(#clip1_1223_1944)">
<path d="M288.217 371.607L438.639 442.91C446.344 446.563 455.569 443.297 458.952 435.47C494.109 354.134 515.924 239.65 476.907 151.582C440.158 68.6344 349.277 46.1004 317.104 50.8144L258.078 82.7861C280.416 86.8848 325.46 114.757 326.936 193.457C328.157 258.581 301.959 315.846 281.855 347.135C276.431 355.575 279.151 367.309 288.217 371.607Z" fill="#2B80D7"/>
<mask id="mask1_1223_1944" style="mask-type:alpha" maskUnits="userSpaceOnUse" x="258" y="50" width="240" height="395">
<path d="M288.223 371.621L438.644 442.925C446.35 446.577 455.575 443.311 458.958 435.484C494.115 354.147 515.929 239.663 476.912 151.595C440.163 68.648 349.283 46.1141 317.109 50.828L258.084 82.7997C280.422 86.8985 325.466 114.771 326.942 193.47C328.162 258.594 301.965 315.859 281.86 347.149C276.437 355.59 279.157 367.324 288.223 371.621Z" fill="#DEA00D"/>
</mask>
<g mask="url(#mask1_1223_1944)">
<g filter="url(#filter0_f_1223_1944)">
<path d="M334.245 396.06C413.495 338.96 519.691 106.246 466.418 60.2348C446.831 43.3174 268.06 47.3191 252.089 34.6816L265.107 54.0594C265.107 54.0594 317.445 119.615 314.02 222.561C311.916 285.784 289.199 351.143 275.084 383.094C272.776 388.318 167.91 336.573 165.941 340.587C160.339 351.999 263.175 402.94 263.175 402.94L329.056 397.897C330.945 397.753 332.707 397.168 334.245 396.06Z" fill="url(#paint0_linear_1223_1944)"/>
</g>
<g filter="url(#filter1_f_1223_1944)">
<path d="M460.766 458.227C538.273 399.915 610.212 226.716 556.117 129.938C543.489 107.346 448.927 42.696 432.956 30.0586L427.992 94.4552C427.992 94.4552 486.356 150.685 482.923 253.827C480.231 334.711 457.41 396.372 447.685 419.219C445.337 424.737 439.055 427.157 433.495 424.909C407.23 414.285 337.559 385.547 339.997 380.579C334.395 391.991 436.284 451.717 436.284 451.717L449.645 458.917C453.208 460.837 457.532 460.66 460.766 458.227Z" fill="url(#paint1_linear_1223_1944)"/>
</g>
<g opacity="0.8" filter="url(#filter2_f_1223_1944)">
<path d="M424.117 288.621L296.91 246.8C280.712 241.475 263.265 250.289 257.94 266.487L226.081 363.407C220.757 379.605 229.572 397.053 245.769 402.378L372.976 444.199C389.174 449.524 406.621 440.71 411.946 424.512L443.805 327.592C449.129 311.394 440.315 293.946 424.117 288.621Z" fill="#13497E"/>
</g>
<g opacity="0.7" filter="url(#filter3_f_1223_1944)">
<path d="M282.963 333.373C345.818 289.483 355.423 149.558 301.023 95.5646C286.999 81.6466 266.071 66.7053 252.574 57.3887L263.575 71.6744C263.575 71.6744 307.805 120.004 304.909 195.899C303.131 242.508 283.934 290.692 272.006 314.248C270.057 318.098 181.437 279.95 179.772 282.91C175.038 291.323 261.942 328.878 261.942 328.878L272.93 334.043C276.185 335.573 280.014 335.432 282.963 333.373Z" fill="#2B80D7"/>
</g>
</g>
<path d="M399.013 310.016L260.962 260.052C256.68 258.502 252.004 260.961 250.679 265.319C241.086 296.854 215.921 353.784 167.048 375.116C102.777 403.17 81.6311 340.407 109.911 419.721C138.192 499.035 231.642 521.784 317.098 473.211C379.044 438.002 402.933 366.142 408.703 325.515C409.67 318.705 405.481 312.357 399.013 310.016Z" fill="url(#paint2_linear_1223_1944)"/>
<mask id="mask2_1223_1944" style="mask-type:alpha" maskUnits="userSpaceOnUse" x="97" y="259" width="312" height="240">
<path d="M399.01 310.03L260.96 260.065C256.678 258.515 252.002 260.976 250.676 265.332C241.084 296.867 215.919 353.798 167.046 375.131C102.775 403.184 81.6289 340.42 109.909 419.734C138.19 499.048 231.639 521.798 317.095 473.225C379.042 438.015 402.931 366.157 408.7 325.53C409.668 318.719 405.478 312.37 399.01 310.03Z" fill="url(#paint3_radial_1223_1944)"/>
</mask>
<g mask="url(#mask2_1223_1944)">
<g filter="url(#filter4_f_1223_1944)">
<path d="M183.618 519.943C317.61 519.943 373.658 278.136 358.058 237.078C357.219 234.868 355.18 233.468 352.925 232.761L103.984 154.674L255.464 217.146C257.138 217.836 258.105 219.572 257.742 221.345C254.825 235.604 240.528 297.167 204.327 336.236C163.172 380.652 78.1674 390.618 43.1029 382.336C24.4308 382.307 13.8907 375.918 13.8907 375.918C56.3521 403.509 117.33 519.943 183.618 519.943Z" fill="url(#paint4_linear_1223_1944)"/>
</g>
<g opacity="0.4" filter="url(#filter5_f_1223_1944)">
<path d="M199.051 367.315C253.497 330.424 294.104 190.686 283.248 151.766C282.269 148.255 278.875 146.332 275.234 146.169L129.379 139.652L256.33 202.066C257.834 202.804 258.692 204.389 258.41 206.041C256.075 219.75 244.127 281.883 213.555 321.215C179.029 365.632 107.723 375.597 78.3075 367.315C62.6441 367.285 54.5574 373.629 54.5574 373.629C90.177 401.218 150.708 400.071 199.051 367.315Z" fill="#3EBADD"/>
</g>
<g filter="url(#filter6_f_1223_1944)">
<path d="M321.369 485.132C386.933 447.866 444.546 298.271 430.936 260.444C429.902 257.572 427.07 256.018 424.04 255.652L250.337 234.689L246.393 260.172L383.572 313.738C388.058 315.489 390.956 319.822 390.365 324.601C388.192 342.178 378.898 386.37 339.223 431.52C288.051 489.755 214.072 486.996 179.008 478.714C160.335 478.685 155.74 478.714 155.74 478.714C195.695 507.108 263.739 517.888 321.369 485.132Z" fill="url(#paint5_linear_1223_1944)"/>
</g>
</g>
<path d="M190.459 240.78C148.653 319.44 108.198 480.517 236.076 498.348C186.067 502.195 72.4099 476.509 20.7671 354.525C-43.7864 202.046 82.8685 18.8236 224.272 2.22292C362.509 -14.0061 433.763 61.4333 474.796 146.968C475.85 149.002 476.774 150.974 477.568 152.858C476.659 150.89 475.736 148.926 474.796 146.968C459.008 116.473 414.087 72.0077 338.009 100.597C282.977 121.277 222.622 180.263 190.459 240.78Z" fill="#2CBBF9"/>
<mask id="mask3_1223_1944" style="mask-type:alpha" maskUnits="userSpaceOnUse" x="3" y="0" width="475" height="499">
<path d="M190.458 240.772C148.651 319.433 108.196 480.509 236.075 498.34C186.066 502.187 72.4087 476.502 20.7659 354.518C-43.7875 202.038 82.8674 18.8158 224.27 2.21512C362.508 -14.014 433.762 61.4256 474.795 146.96C475.848 148.994 476.772 150.966 477.567 152.85C476.658 150.882 475.735 148.918 474.795 146.96C459.006 116.466 414.085 71.9999 338.008 100.589C282.976 121.269 222.621 180.256 190.458 240.772Z" fill="#00CCC0"/>
</mask>
<g mask="url(#mask3_1223_1944)">
<g filter="url(#filter7_f_1223_1944)">
<path d="M-104.142 351.131C-52.4999 473.115 182.392 509.644 232.402 505.798C234.911 482.134 163.158 430.757 165.66 373.588C165.66 373.588 74.1623 376.518 60.1908 240.764C46.2194 105.011 124.083 36.6914 124.083 36.6914C31.2519 82.4554 -132.08 285.141 -104.142 351.131Z" fill="url(#paint6_linear_1223_1944)"/>
<path d="M477.56 152.868C718.61 -41.7026 310.82 -86.6184 169.417 -70.0177C110.552 -63.1071 -44.292 92.5315 16.6605 159.508C16.6605 159.508 79.8695 89.4822 169.417 76.6888C258.963 63.8955 300.43 128.451 300.43 128.451C311.341 121.758 340.028 119.915 350.782 115.874C431.934 85.3779 473.594 144.508 477.56 152.868Z" fill="url(#paint7_linear_1223_1944)"/>
</g>
<g filter="url(#filter8_f_1223_1944)">
<path d="M26.6548 370.234C-117.262 324.783 -47.9953 16.1013 96.3953 -28.0776C226.311 -67.8276 237.017 -5.36937 259.87 -1.56406C262.837 -1.65572 264.445 -1.59694 264.445 -1.59694C262.847 -1.31722 261.334 -1.32035 259.87 -1.56406C242.703 -1.03366 180.044 4.53425 120.291 55.6799C30.4213 132.602 -5.76248 255.578 26.6548 370.234Z" fill="#56E5FF"/>
</g>
<g filter="url(#filter9_f_1223_1944)">
<path d="M259.371 498.089C219.377 543.111 55.6767 488.365 4.03392 366.381C-5.26386 344.419 4.84539 277.042 4.17362 250.856C4.05658 248.891 4.03392 247.84 4.03392 247.84C4.10012 248.771 4.14599 249.779 4.17362 250.856C5.04231 265.436 11.1101 330.318 51.7002 388.952C97.7594 455.486 192.366 481.545 192.366 481.545C204.711 490.328 239.584 495.329 259.371 498.089Z" fill="#FDC7C7"/>
</g>
<mask id="mask4_1223_1944" style="mask-type:alpha" maskUnits="userSpaceOnUse" x="-67" y="231" width="312" height="317">
<path d="M244.382 466.78L15.8565 231.201L-66.8554 311.448L161.67 547.027L244.382 466.78Z" fill="url(#paint8_linear_1223_1944)"/>
</mask>
<g mask="url(#mask4_1223_1944)">
<path d="M259.383 498.083C219.39 543.105 55.6893 488.359 4.04658 366.375C-5.25119 344.414 4.85805 277.036 4.18629 250.85C4.06924 248.885 4.04658 247.834 4.04658 247.834C4.11279 248.765 4.15866 249.773 4.18629 250.85C5.05498 265.431 11.1228 330.312 51.7128 388.946C97.7717 455.48 192.379 481.541 192.379 481.541C204.724 490.322 239.596 495.324 259.383 498.083Z" fill="#FDC7C7"/>
</g>
<g filter="url(#filter10_f_1223_1944)">
<path d="M487.781 159.269C498.312 82.7361 361.77 -35.8641 220.366 -19.2635C169.208 -13.2574 123.878 36.0371 84.9368 76.3171C84.9368 76.3171 173.312 -2.22176 280.901 12.8874C388.489 27.9966 436.559 107.663 436.559 107.663C459.025 120.801 469.276 161.176 487.781 159.269Z" fill="#EFC7FD"/>
</g>
<mask id="mask5_1223_1944" style="mask-type:alpha" maskUnits="userSpaceOnUse" x="68" y="-34" width="406" height="188">
<path d="M473.589 23.5632L87.6142 -33.8242L68.3444 95.7985L454.319 153.186L473.589 23.5632Z" fill="url(#paint9_linear_1223_1944)"/>
</mask>
<g mask="url(#mask5_1223_1944)">
<path d="M487.781 159.286C498.312 82.7536 361.77 -35.8466 220.366 -19.2459C169.208 -13.2398 123.878 36.0547 84.9368 76.3347C84.9368 76.3347 173.312 -2.20417 280.901 12.9049C388.489 28.0142 436.559 107.681 436.559 107.681C459.025 120.819 469.276 161.194 487.781 159.286Z" fill="#EFC7FD"/>
</g>
<g filter="url(#filter11_f_1223_1944)">
<path d="M324.113 81.3658C179.261 127.047 50.9506 393.678 175.627 493.693C300.305 593.709 446.056 403.723 519.384 249.843C483.104 146.43 468.965 35.6841 324.113 81.3658Z" fill="url(#paint10_linear_1223_1944)"/>
</g>
<mask id="mask6_1223_1944" style="mask-type:alpha" maskUnits="userSpaceOnUse" x="-64" y="-74" width="623" height="651">
<path d="M558.685 145.566L197.412 -73.0801L-63.3994 357.924L297.873 576.57L558.685 145.566Z" fill="url(#paint11_linear_1223_1944)"/>
</mask>
<g mask="url(#mask6_1223_1944)">
<path d="M324.099 81.3599C179.248 127.042 50.9367 393.673 175.613 493.688C300.291 593.703 446.042 403.716 519.37 249.838C483.09 146.424 468.951 35.6783 324.099 81.3599Z" fill="url(#paint12_linear_1223_1944)"/>
</g>
</g>
</g>
</g>
</g>
<circle cx="400" cy="400" r="97.5" fill="black" stroke="black" stroke-width="5"/>
<path d="M390.771 419.988C389.932 419.988 389.261 419.988 388.423 419.152L376.008 406.774C375.672 406.441 375.504 406.273 375.504 405.939C375.336 405.771 375.169 405.102 375.336 404.433C375.336 404.098 375.504 403.931 375.672 403.764C375.84 403.596 376.008 403.43 376.175 403.263C376.511 402.928 376.679 402.593 376.846 402.426C379.866 399.583 382.718 396.739 385.738 394.063C392.449 387.54 399.16 381.016 405.871 374.493C405.871 374.158 406.374 372.151 407.884 371.65C408.387 371.482 409.059 371.482 409.394 371.482C410.233 371.482 410.904 371.482 411.743 372.319L424.829 384.696C425.332 385.365 425.836 386.202 425.668 387.038C425.5 387.874 424.661 388.376 424.326 388.543C422.816 389.379 418.118 394.063 409.226 403.43C403.858 408.615 398.657 413.8 393.288 418.818C393.12 418.985 392.952 419.486 392.449 419.821C391.946 419.988 391.442 419.988 390.771 419.988Z" fill="#AF145B"/>
<path d="M394.631 415.472C386.913 406.941 386.075 394.731 393.792 386.201L376.847 402.426C372.988 406.272 370.64 411.625 370.64 416.977C370.64 422.329 372.988 427.682 376.847 431.529L413.924 469.163C414.764 469.999 415.435 469.999 416.274 469.999C417.112 469.999 417.783 469.999 418.622 469.163C422.481 465.316 424.83 459.964 424.83 454.611C424.83 449.259 422.481 443.907 418.622 440.06L395.47 416.977C395.302 416.141 394.631 416.141 394.631 415.472Z" fill="url(#paint13_linear_1223_1944)"/>
<path d="M424.662 359.94L399.161 335.352C395.302 332.342 390.604 330 385.236 330C379.867 330 374.498 332.342 370.64 336.189C369.13 337.025 369.13 337.694 369.13 338.53C369.13 339.367 369.13 340.036 369.968 340.872L404.697 373.99C405.536 374.826 406.207 374.826 406.207 375.495C413.924 384.026 414.764 396.236 407.717 404.766L424.662 388.542C428.521 385.531 430.869 380.012 430.869 374.659C430.869 369.307 428.521 363.787 424.662 359.94Z" fill="url(#paint14_linear_1223_1944)"/>
<circle cx="400" cy="400" r="97.5" stroke="black" stroke-width="5"/>
<g clip-path="url(#clip2_1223_1944)">
<path d="M100 500C155.228 500 200 455.228 200 400C200 344.772 155.228 300 100 300C44.7715 300 0 344.772 0 400C0 455.228 44.7715 500 100 500Z" fill="white"/>
<path d="M99.9872 327.199L99.008 330.517V426.791L99.9872 427.766L144.773 401.35L99.9872 327.199Z" fill="#343434"/>
<path d="M99.9872 327.199L55.2 401.35L99.9872 427.766V381.037V327.199Z" fill="#8C8C8C"/>
<path d="M99.9872 436.228L99.4352 436.899V471.193L99.9872 472.801L144.8 409.826L99.9872 436.228Z" fill="#3C3C3B"/>
<path d="M99.9872 472.801V436.228L55.2 409.826L99.9872 472.801Z" fill="#8C8C8C"/>
<path d="M99.9872 427.766L144.773 401.35L99.9872 381.037V427.766Z" fill="#141414"/>
<path d="M55.2 401.35L99.9872 427.766V381.037L55.2 401.35Z" fill="#393939"/>
</g>
<circle cx="100" cy="400" r="97.5" stroke="black" stroke-width="5"/>
<defs>
<filter id="filter0_f_1223_1944" x="159.584" y="28.5457" width="327.346" height="380.53" filterUnits="userSpaceOnUse" color-interpolation-filters="sRGB">
<feFlood flood-opacity="0" result="BackgroundImageFix"/>
<feBlend mode="normal" in="SourceGraphic" in2="BackgroundImageFix" result="shape"/>
<feGaussianBlur stdDeviation="3.06799" result="effect1_foregroundBlur_1223_1944"/>
</filter>
<filter id="filter1_f_1223_1944" x="339.57" y="29.8541" width="235.589" height="430.571" filterUnits="userSpaceOnUse" color-interpolation-filters="sRGB">
<feFlood flood-opacity="0" result="BackgroundImageFix"/>
<feBlend mode="normal" in="SourceGraphic" in2="BackgroundImageFix" result="shape"/>
<feGaussianBlur stdDeviation="0.102266" result="effect1_foregroundBlur_1223_1944"/>
</filter>
<filter id="filter2_f_1223_1944" x="218.802" y="239.521" width="232.282" height="211.958" filterUnits="userSpaceOnUse" color-interpolation-filters="sRGB">
<feFlood flood-opacity="0" result="BackgroundImageFix"/>
<feBlend mode="normal" in="SourceGraphic" in2="BackgroundImageFix" result="shape"/>
<feGaussianBlur stdDeviation="2.86346" result="effect1_foregroundBlur_1223_1944"/>
</filter>
<filter id="filter3_f_1223_1944" x="178.767" y="56.5705" width="158.624" height="279.318" filterUnits="userSpaceOnUse" color-interpolation-filters="sRGB">
<feFlood flood-opacity="0" result="BackgroundImageFix"/>
<feBlend mode="normal" in="SourceGraphic" in2="BackgroundImageFix" result="shape"/>
<feGaussianBlur stdDeviation="0.409065" result="effect1_foregroundBlur_1223_1944"/>
</filter>
<filter id="filter4_f_1223_1944" x="9.8" y="150.583" width="354.889" height="373.451" filterUnits="userSpaceOnUse" color-interpolation-filters="sRGB">
<feFlood flood-opacity="0" result="BackgroundImageFix"/>
<feBlend mode="normal" in="SourceGraphic" in2="BackgroundImageFix" result="shape"/>
<feGaussianBlur stdDeviation="2.04533" result="effect1_foregroundBlur_1223_1944"/>
</filter>
<filter id="filter5_f_1223_1944" x="53.7392" y="138.834" width="232.091" height="255.171" filterUnits="userSpaceOnUse" color-interpolation-filters="sRGB">
<feFlood flood-opacity="0" result="BackgroundImageFix"/>
<feBlend mode="normal" in="SourceGraphic" in2="BackgroundImageFix" result="shape"/>
<feGaussianBlur stdDeviation="0.409065" result="effect1_foregroundBlur_1223_1944"/>
</filter>
<filter id="filter6_f_1223_1944" x="155.535" y="234.485" width="277.615" height="271.018" filterUnits="userSpaceOnUse" color-interpolation-filters="sRGB">
<feFlood flood-opacity="0" result="BackgroundImageFix"/>
<feBlend mode="normal" in="SourceGraphic" in2="BackgroundImageFix" result="shape"/>
<feGaussianBlur stdDeviation="0.102266" result="effect1_foregroundBlur_1223_1944"/>
</filter>
<filter id="filter7_f_1223_1944" x="-113.859" y="-79.7325" width="672.591" height="592.346" filterUnits="userSpaceOnUse" color-interpolation-filters="sRGB">
<feFlood flood-opacity="0" result="BackgroundImageFix"/>
<feBlend mode="normal" in="SourceGraphic" in2="BackgroundImageFix" result="shape"/>
<feGaussianBlur stdDeviation="3.27252" result="effect1_foregroundBlur_1223_1944"/>
</filter>
<filter id="filter8_f_1223_1944" x="-53.4688" y="-42.0779" width="318.732" height="413.13" filterUnits="userSpaceOnUse" color-interpolation-filters="sRGB">
<feFlood flood-opacity="0" result="BackgroundImageFix"/>
<feBlend mode="normal" in="SourceGraphic" in2="BackgroundImageFix" result="shape"/>
<feGaussianBlur stdDeviation="0.409065" result="effect1_foregroundBlur_1223_1944"/>
</filter>
<filter id="filter9_f_1223_1944" x="-0.737518" y="247.022" width="260.926" height="267.519" filterUnits="userSpaceOnUse" color-interpolation-filters="sRGB">
<feFlood flood-opacity="0" result="BackgroundImageFix"/>
<feBlend mode="normal" in="SourceGraphic" in2="BackgroundImageFix" result="shape"/>
<feGaussianBlur stdDeviation="0.409065" result="effect1_foregroundBlur_1223_1944"/>
</filter>
<filter id="filter10_f_1223_1944" x="84.1187" y="-21.6541" width="405.053" height="181.806" filterUnits="userSpaceOnUse" color-interpolation-filters="sRGB">
<feFlood flood-opacity="0" result="BackgroundImageFix"/>
<feBlend mode="normal" in="SourceGraphic" in2="BackgroundImageFix" result="shape"/>
<feGaussianBlur stdDeviation="0.409065" result="effect1_foregroundBlur_1223_1944"/>
</filter>
<filter id="filter11_f_1223_1944" x="124.997" y="70.5767" width="394.592" height="451.167" filterUnits="userSpaceOnUse" color-interpolation-filters="sRGB">
<feFlood flood-opacity="0" result="BackgroundImageFix"/>
<feBlend mode="normal" in="SourceGraphic" in2="BackgroundImageFix" result="shape"/>
<feGaussianBlur stdDeviation="0.102266" result="effect1_foregroundBlur_1223_1944"/>
</filter>
<linearGradient id="paint0_linear_1223_1944" x1="362.911" y1="96.9132" x2="360.465" y2="405.011" gradientUnits="userSpaceOnUse">
<stop stop-color="#13497E"/>
<stop offset="0.640419" stop-color="#2B80D7"/>
</linearGradient>
<linearGradient id="paint1_linear_1223_1944" x1="457.363" y1="119.564" x2="457.481" y2="439.667" gradientUnits="userSpaceOnUse">
<stop stop-color="#E2C7FE"/>
<stop offset="0.450702" stop-color="#77B8FD"/>
</linearGradient>
<linearGradient id="paint2_linear_1223_1944" x1="329.353" y1="201.805" x2="164.183" y2="479.73" gradientUnits="userSpaceOnUse">
<stop stop-color="#269EBF"/>
<stop offset="1" stop-color="#3EBADD"/>
</linearGradient>
<radialGradient id="paint3_radial_1223_1944" cx="0" cy="0" r="1" gradientUnits="userSpaceOnUse" gradientTransform="translate(351.875 294.7) rotate(139.707) scale(350.528 258.292)">
<stop offset="0.411461" stop-color="#FF7360"/>
<stop offset="1" stop-color="#630513"/>
</radialGradient>
<linearGradient id="paint4_linear_1223_1944" x1="295.862" y1="273.982" x2="160.022" y2="467.845" gradientUnits="userSpaceOnUse">
<stop stop-color="#33B6D2"/>
<stop offset="0.142991" stop-color="#5BD8FF"/>
<stop offset="1" stop-color="#228AA7"/>
</linearGradient>
<linearGradient id="paint5_linear_1223_1944" x1="340.292" y1="295.305" x2="223.744" y2="489.198" gradientUnits="userSpaceOnUse">
<stop offset="0.635417" stop-color="#68DEFF"/>
<stop offset="1" stop-color="#F3C8CB"/>
</linearGradient>
<linearGradient id="paint6_linear_1223_1944" x1="21.8909" y1="164.319" x2="150.331" y2="482.162" gradientUnits="userSpaceOnUse">
<stop offset="0.661495" stop-color="#88FFF8"/>
<stop offset="1" stop-color="#176781"/>
</linearGradient>
<linearGradient id="paint7_linear_1223_1944" x1="90.1255" y1="183.923" x2="446.982" y2="35.9762" gradientUnits="userSpaceOnUse">
<stop offset="0.731633" stop-color="#4D89FD"/>
<stop offset="1" stop-color="#033883"/>
</linearGradient>
<linearGradient id="paint8_linear_1223_1944" x1="193.84" y1="495.221" x2="45.5427" y2="387.965" gradientUnits="userSpaceOnUse">
<stop stop-color="#D9D9D9"/>
<stop offset="0.658857" stop-color="#D9D9D9" stop-opacity="0"/>
</linearGradient>
<linearGradient id="paint9_linear_1223_1944" x1="458.824" y1="121.105" x2="290.251" y2="9.92727" gradientUnits="userSpaceOnUse">
<stop stop-color="#D9D9D9"/>
<stop offset="1" stop-color="#D9D9D9" stop-opacity="0"/>
</linearGradient>
<linearGradient id="paint10_linear_1223_1944" x1="416.204" y1="80.29" x2="176.089" y2="487.002" gradientUnits="userSpaceOnUse">
<stop stop-color="#EFC7FE"/>
<stop offset="0.286458" stop-color="#2CBBF9"/>
<stop offset="0.65625" stop-color="#2CBBF9"/>
<stop offset="1" stop-color="#FDC8C8"/>
</linearGradient>
<linearGradient id="paint11_linear_1223_1944" x1="428.704" y1="342.675" x2="131.777" y2="154.317" gradientUnits="userSpaceOnUse">
<stop stop-color="#D9D9D9"/>
<stop offset="0.659264" stop-color="#D9D9D9" stop-opacity="0"/>
</linearGradient>
<linearGradient id="paint12_linear_1223_1944" x1="416.191" y1="80.2842" x2="176.075" y2="486.996" gradientUnits="userSpaceOnUse">
<stop stop-color="#EFC7FE"/>
<stop offset="0.317708" stop-color="#2CBBF9"/>
<stop offset="0.661458" stop-color="#2CBBF9"/>
<stop offset="1" stop-color="#FDC8C8"/>
</linearGradient>
<linearGradient id="paint13_linear_1223_1944" x1="370.037" y1="428.1" x2="424.578" y2="428.1" gradientUnits="userSpaceOnUse">
<stop stop-color="#CB0766"/>
<stop offset="1" stop-color="#E04391"/>
</linearGradient>
<linearGradient id="paint14_linear_1223_1944" x1="369.13" y1="367.383" x2="430.869" y2="367.383" gradientUnits="userSpaceOnUse">
<stop stop-color="#CB0766"/>
<stop offset="1" stop-color="#E04391"/>
</linearGradient>
<clipPath id="clip0_1223_1944">
<rect width="500" height="500" rx="250" fill="white"/>
</clipPath>
<clipPath id="clip1_1223_1944">
<rect width="500" height="500" fill="white"/>
</clipPath>
<clipPath id="clip2_1223_1944">
<rect width="200" height="200" fill="white" transform="translate(0 300)"/>
</clipPath>
</defs>
</svg>
