<svg width="500" height="500" viewBox="0 0 500 500" fill="none" xmlns="http://www.w3.org/2000/svg">
<g clip-path="url(#clip0_406_604)">
<g clip-path="url(#clip1_406_604)">
<path d="M250 500C388.542 500 500 388.542 500 250C500 111.458 388.542 0 250 0C111.458 0 0 111.458 0 250C0 388.542 111.458 500 250 500Z" fill="#2775CA"/>
<path d="M318.75 289.583C318.75 253.125 296.875 240.625 253.125 235.418C221.875 231.25 215.625 222.918 215.625 208.333C215.625 193.748 226.042 184.375 246.875 184.375C265.625 184.375 276.043 190.625 281.25 206.25C282.293 209.375 285.418 211.458 288.543 211.458H305.207C309.375 211.458 312.5 208.333 312.5 204.168V203.125C308.332 180.208 289.583 162.5 265.625 160.418V135.418C265.625 131.25 262.5 128.125 257.293 127.083H241.667C237.5 127.083 234.375 130.208 233.333 135.418V159.375C202.083 163.543 182.292 184.375 182.292 210.418C182.292 244.793 203.125 258.333 246.875 263.543C276.042 268.75 285.418 275 285.418 291.668C285.418 308.335 270.832 319.793 251.042 319.793C223.957 319.793 214.583 308.333 211.458 292.708C210.418 288.543 207.292 286.458 204.167 286.458H186.458C182.293 286.458 179.167 289.583 179.167 293.75V294.793C183.332 320.833 200 339.583 234.375 344.793V369.793C234.375 373.958 237.5 377.083 242.708 378.125H258.332C262.5 378.125 265.625 375 266.668 369.793V344.793C297.918 339.583 318.75 317.708 318.75 289.583Z" fill="white"/>
<path d="M196.875 398.957C115.625 369.792 73.9575 279.167 104.168 198.957C119.793 155.207 154.167 121.875 196.875 106.25C201.043 104.167 203.125 101.042 203.125 95.8325V81.25C203.125 77.0825 201.043 73.9575 196.875 72.9175C195.832 72.9175 193.75 72.9175 192.708 73.9575C93.75 105.207 39.5825 210.417 70.8325 309.375C89.5825 367.707 134.375 412.5 192.708 431.25C196.875 433.332 201.043 431.25 202.083 427.082C203.125 426.042 203.125 425 203.125 422.917V408.332C203.125 405.207 200 401.042 196.875 398.957ZM307.293 73.9575C303.125 71.875 298.958 73.9575 297.918 78.125C296.875 79.1675 296.875 80.2075 296.875 82.2925V96.875C296.875 101.042 300 105.207 303.125 107.292C384.375 136.457 426.043 227.082 395.833 307.292C380.208 351.042 345.833 384.375 303.125 400C298.957 402.082 296.875 405.207 296.875 410.417V425C296.875 429.167 298.957 432.292 303.125 433.332C304.168 433.332 306.25 433.332 307.293 432.292C406.25 401.042 460.418 295.832 429.168 196.875C410.418 137.5 364.583 92.7075 307.293 73.9575Z" fill="white"/>
</g>
</g>
<path d="M161.718 334.221H38.1491V446.605H161.718V334.221Z" fill="white"/>
<path fill-rule="evenodd" clip-rule="evenodd" d="M200 400C200 455.229 155.229 500 100 500C44.7715 500 0 455.229 0 400C0 344.772 44.7715 300 100 300C155.229 300 200 344.772 200 400ZM71.6628 439.795H52.2557C48.1776 439.795 46.1632 439.795 44.935 439.009C43.6084 438.149 42.7977 436.724 42.6995 435.152C42.6257 433.703 43.633 431.934 45.6474 428.396L93.5662 343.933C95.6052 340.346 96.6369 338.553 97.9389 337.889C99.3391 337.177 101.01 337.177 102.41 337.889C103.712 338.553 104.744 340.346 106.783 343.933L116.634 361.129L116.684 361.217C118.886 365.065 120.003 367.016 120.491 369.064C121.031 371.299 121.031 373.658 120.491 375.893C119.999 377.957 118.894 379.922 116.658 383.828L91.4877 428.323L91.4226 428.436C89.2059 432.316 88.0824 434.282 86.5254 435.766C84.8304 437.387 82.7913 438.566 80.5558 439.23C78.5168 439.795 76.2322 439.795 71.6628 439.795ZM120.672 439.795H148.481C152.583 439.795 154.647 439.795 155.876 438.985C157.202 438.125 158.037 436.675 158.112 435.104C158.182 433.702 157.197 432.001 155.266 428.669C155.2 428.556 155.133 428.44 155.065 428.323L141.136 404.494L140.977 404.226C139.02 400.916 138.032 399.244 136.763 398.598C135.364 397.886 133.716 397.886 132.317 398.598C131.039 399.261 130.008 401.006 127.969 404.519L114.089 428.348L114.041 428.43C112.009 431.937 110.994 433.69 111.067 435.128C111.165 436.7 111.976 438.149 113.303 439.009C114.506 439.795 116.57 439.795 120.672 439.795Z" fill="#E84142"/>
<circle cx="100" cy="400" r="97.5" stroke="black" stroke-width="5"/>
<defs>
<clipPath id="clip0_406_604">
<rect width="500" height="500" rx="250" fill="white"/>
</clipPath>
<clipPath id="clip1_406_604">
<rect width="500" height="500" fill="white"/>
</clipPath>
</defs>
</svg>
