<svg width="500" height="500" viewBox="0 0 500 500" fill="none" xmlns="http://www.w3.org/2000/svg">
<g clip-path="url(#clip0_1291_2179)">
<path fill-rule="evenodd" clip-rule="evenodd" d="M250 0C388.081 0 500 111.919 500 250C500 388.081 388.081 500 250 500C111.919 500 0 388.081 0 250C0 111.919 111.919 0 250 0Z" fill="#F0B90B"/>
<path d="M137.4 249.999L137.58 316.105L193.75 349.158V387.86L104.708 335.636V230.668L137.4 249.999ZM137.4 183.893V222.415L104.688 203.064V164.542L137.4 145.191L170.272 164.542L137.4 183.893ZM217.208 164.542L249.92 145.191L282.792 164.542L249.92 183.893L217.208 164.542Z" fill="white"/>
<path d="M161.038 302.403V263.701L193.75 283.052V321.574L161.038 302.403ZM217.208 363.02L249.92 382.371L282.792 363.02V401.542L249.92 420.893L217.208 401.542V363.02ZM329.708 164.542L362.42 145.191L395.292 164.542V203.064L362.42 222.415V183.893L329.708 164.542ZM362.42 316.105L362.6 249.999L395.312 230.648V335.616L306.27 387.84V349.138L362.42 316.105Z" fill="white"/>
<path d="M338.962 302.405L306.25 321.576V283.054L338.962 263.703V302.405Z" fill="white"/>
<path d="M338.962 197.595L339.143 236.297L282.813 269.35V335.616L250.1 354.787L217.388 335.616V269.35L161.058 236.297V197.595L193.91 178.244L249.9 211.457L306.23 178.244L339.103 197.595H338.962ZM161.038 131.509L249.92 79.1055L338.962 131.509L306.25 150.86L249.92 117.647L193.75 150.86L161.038 131.509Z" fill="white"/>
</g>
<g clip-path="url(#clip1_1291_2179)">
<path d="M399.7 499.503C454.818 499.503 499.5 454.821 499.5 399.703C499.5 344.585 454.818 299.902 399.7 299.902C344.582 299.902 299.899 344.585 299.899 399.703C299.899 454.821 344.582 499.503 399.7 499.503Z" fill="white"/>
<path d="M408.715 387.454L456.071 340.1L438.105 322.137L399.734 360.507L361.362 322.137L343.398 340.1L390.752 387.454C393.232 389.934 396.483 391.175 399.734 391.175C402.984 391.175 406.235 389.935 408.715 387.454ZM477.267 438.041L438.896 399.67L477.267 361.298L459.303 343.335L411.95 390.689C406.99 395.649 406.99 403.692 411.95 408.652L459.303 456.006L477.267 438.041ZM399.668 438.897L438.039 477.268L456.002 459.304L408.649 411.951C403.688 406.99 395.647 406.99 390.685 411.951L343.332 459.304L361.297 477.268L399.668 438.897ZM387.452 408.717C389.835 406.334 391.173 403.104 391.173 399.735C391.173 396.367 389.835 393.135 387.452 390.753L340.099 343.4L322.135 361.365L360.506 399.735L322.135 438.107L340.099 456.071L387.452 408.717Z" fill="black"/>
</g>
<circle cx="400" cy="400" r="97.5" stroke="black" stroke-width="5"/>
<defs>
<clipPath id="clip0_1291_2179">
<rect width="500" height="500" fill="white"/>
</clipPath>
<clipPath id="clip1_1291_2179">
<rect width="200" height="200" fill="white" transform="translate(299.6 299.602)"/>
</clipPath>
</defs>
</svg>
