<svg width="500" height="500" viewBox="0 0 500 500" fill="none" xmlns="http://www.w3.org/2000/svg">
<g clip-path="url(#clip0_1268_2446)">
<mask id="mask0_1268_2446" style="mask-type:alpha" maskUnits="userSpaceOnUse" x="0" y="0" width="500" height="500">
<rect width="500" height="500" fill="#D9D9D9"/>
</mask>
<g mask="url(#mask0_1268_2446)">
<g clip-path="url(#clip1_1268_2446)">
<path d="M492.516 310.478C459.122 444.408 323.46 525.914 189.5 492.516C55.5958 459.126 -25.921 323.47 7.48872 189.55C40.8674 55.6056 176.531 -25.9092 310.452 7.48116C444.402 40.8714 525.912 176.542 492.516 310.478Z" fill="#0052FF"/>
<path d="M468.982 303.554C438.828 424.486 316.33 498.082 195.371 467.926C74.4622 437.776 0.856301 315.284 31.0237 194.362C61.1631 73.4162 183.661 -0.187731 304.586 29.9622C425.536 60.112 499.136 182.616 468.982 303.554Z" fill="white"/>
<path d="M365.602 217.554C370.724 183.307 344.646 164.895 308.986 152.614L320.554 106.22L292.312 99.1838L281.05 144.353C273.624 142.504 265.998 140.759 258.42 139.03L269.762 93.5614L241.536 86.5234L229.962 132.9C223.816 131.501 217.782 130.117 211.926 128.661L211.958 128.517L173.009 118.792L165.495 148.955C165.495 148.955 186.45 153.756 186.009 154.054C197.446 156.909 199.514 164.478 199.168 170.478L185.991 223.33C186.781 223.53 187.802 223.82 188.928 224.272C187.988 224.038 186.981 223.78 185.944 223.53L167.474 297.568C166.074 301.042 162.528 306.254 154.532 304.276C154.814 304.686 134.003 299.152 134.003 299.152L119.982 331.478L156.735 340.638C163.573 342.352 170.274 344.146 176.87 345.834L165.182 392.758L193.393 399.796L204.968 353.372C212.674 355.462 220.154 357.392 227.476 359.21L215.94 405.42L244.184 412.458L255.872 365.622C304.03 374.734 340.246 371.058 355.488 327.504C367.774 292.436 354.878 272.208 329.538 259.018C347.992 254.762 361.892 242.626 365.602 217.554ZM301.07 308.032C292.342 343.1 233.292 324.144 214.146 319.388L229.656 257.224C248.8 262 310.192 271.46 301.07 308.032ZM309.806 217.048C301.842 248.946 252.694 232.74 236.75 228.766L250.81 172.384C266.754 176.358 318.1 183.773 309.806 217.048Z" fill="#0052FF"/>
</g>
</g>
</g>
<g clip-path="url(#clip2_1268_2446)">
<path d="M399.7 499.499C454.818 499.499 499.5 454.817 499.5 399.699C499.5 344.581 454.818 299.898 399.7 299.898C344.582 299.898 299.899 344.581 299.899 399.699C299.899 454.817 344.582 499.499 399.7 499.499Z" fill="white"/>
<path d="M408.715 387.452L456.071 340.098L438.105 322.135L399.734 360.506L361.362 322.135L343.398 340.098L390.752 387.452C393.232 389.932 396.483 391.173 399.734 391.173C402.984 391.173 406.235 389.933 408.715 387.452ZM477.267 438.039L438.896 399.668L477.267 361.296L459.303 343.333L411.95 390.687C406.99 395.647 406.99 403.69 411.95 408.65L459.303 456.004L477.267 438.039ZM399.668 438.895L438.039 477.266L456.002 459.302L408.649 411.949C403.688 406.988 395.647 406.988 390.685 411.949L343.332 459.302L361.297 477.266L399.668 438.895ZM387.452 408.715C389.835 406.332 391.173 403.102 391.173 399.733C391.173 396.365 389.835 393.133 387.452 390.751L340.099 343.398L322.135 361.363L360.506 399.733L322.135 438.105L340.099 456.069L387.452 408.715Z" fill="black"/>
</g>
<circle cx="400" cy="400" r="97.5" stroke="black" stroke-width="5"/>
<defs>
<clipPath id="clip0_1268_2446">
<rect width="500" height="500" rx="250" fill="white"/>
</clipPath>
<clipPath id="clip1_1268_2446">
<rect width="500" height="500" fill="white"/>
</clipPath>
<clipPath id="clip2_1268_2446">
<rect width="200" height="200" fill="white" transform="translate(299.6 299.6)"/>
</clipPath>
</defs>
</svg>
