<svg width="500" height="500" viewBox="0 0 500 500" fill="none" xmlns="http://www.w3.org/2000/svg">
<g clip-path="url(#clip0_879_1227)">
<path d="M250 0C388.084 0 500 111.939 500 250C500 388.084 388.084 500 250 500C111.939 500 0 388.073 0 250C0 111.939 111.939 0 250 0Z" fill="#F5AC37"/>
<path d="M259.214 267.652H354.21C356.235 267.652 357.191 267.652 357.337 264.997C358.114 255.333 358.114 245.613 357.337 235.937C357.337 234.059 356.404 233.282 354.367 233.282H165.309C162.969 233.282 162.339 234.059 162.339 236.252V264.063C162.339 267.652 162.339 267.652 166.085 267.652H259.214ZM346.728 200.781C346.998 200.072 346.998 199.296 346.728 198.598C345.142 195.145 343.263 191.848 341.081 188.754C337.796 183.467 333.926 178.596 329.516 174.219C327.434 171.576 325.027 169.202 322.327 167.188C308.804 155.679 292.728 147.534 275.448 143.439C266.729 141.482 257.819 140.548 248.886 140.627H164.983C162.643 140.627 162.328 141.56 162.328 143.597V199.06C162.328 201.4 162.328 202.03 165.298 202.03H345.603C345.603 202.03 347.167 201.715 347.482 200.781H346.717H346.728ZM346.728 300.153C344.073 299.861 341.396 299.861 338.741 300.153H165.467C163.127 300.153 162.339 300.153 162.339 303.281V357.506C162.339 360.004 162.339 360.634 165.467 360.634H245.466C249.291 360.926 253.116 360.656 256.863 359.857C268.473 359.025 279.892 356.505 290.782 352.354C294.742 350.981 298.567 349.192 302.178 347.044H303.269C322.023 337.29 337.256 321.967 346.863 303.157C346.863 303.157 347.955 300.794 346.728 300.176V300.153ZM130.94 388.748V387.814V351.409V339.067V302.347C130.94 300.311 130.94 300.007 128.443 300.007H94.5347C92.6559 300.007 91.8796 300.007 91.8796 297.509V267.82H128.128C130.153 267.82 130.94 267.82 130.94 265.165V235.791C130.94 233.912 130.94 233.451 128.443 233.451H94.5347C92.6559 233.451 91.8796 233.451 91.8796 230.954V203.458C91.8796 201.737 91.8796 201.276 94.3772 201.276H127.97C130.31 201.276 130.94 201.276 130.94 198.306V114.087C130.94 111.59 130.94 110.96 134.068 110.96H251.249C259.754 111.297 268.203 112.231 276.561 113.772C293.785 116.956 310.334 123.11 325.466 131.896C335.501 137.803 344.737 144.935 352.961 153.148C359.149 159.572 364.729 166.524 369.679 173.927C374.595 181.431 378.679 189.452 381.885 197.833C382.279 200.016 384.371 201.49 386.554 201.118H414.522C418.11 201.118 418.11 201.118 418.268 204.561V230.189C418.268 232.686 417.334 233.316 414.825 233.316H393.259C391.076 233.316 390.446 233.316 390.604 236.129C391.459 245.646 391.459 255.198 390.604 264.715C390.604 267.37 390.604 267.685 393.585 267.685H418.257C419.348 269.092 418.257 270.498 418.257 271.915C418.414 273.727 418.414 275.56 418.257 277.372V296.283C418.257 298.938 417.48 299.726 415.129 299.726H385.598C383.539 299.332 381.536 300.648 381.064 302.696C374.032 320.977 362.782 337.368 348.247 350.509C342.937 355.29 337.357 359.79 331.53 363.941C325.274 367.541 319.188 371.288 312.776 374.258C300.974 379.568 288.599 383.483 275.898 385.969C263.838 388.129 251.609 389.108 239.335 388.939H130.895V388.781L130.94 388.748Z" fill="#FEFEFD"/>
</g>
<g clip-path="url(#clip1_879_1227)">
<mask id="mask0_879_1227" style="mask-type:luminance" maskUnits="userSpaceOnUse" x="300" y="300" width="200" height="200">
<path d="M500 300H300V500H500V300Z" fill="white"/>
</mask>
<g mask="url(#mask0_879_1227)">
<path d="M500 300H300V500H500V300Z" fill="white"/>
<path d="M847.945 300H300V847.945H847.945V300Z" fill="black"/>
<g opacity="0.4" filter="url(#filter0_f_879_1227)">
<path d="M624.715 265.787C792.833 208.422 956.263 241.465 989.748 339.591C1023.23 437.717 914.082 563.767 745.966 621.133C577.848 678.498 414.417 645.456 380.935 547.33C347.452 449.204 456.596 323.153 624.715 265.787Z" fill="#FF2B57"/>
</g>
<g opacity="0.6" filter="url(#filter1_f_879_1227)">
<path d="M579.495 232.211C808.906 197.273 1014.95 300.718 1039.7 463.262C1064.46 625.807 898.553 785.899 669.141 820.838C439.73 855.775 233.688 752.332 208.933 589.787C184.178 427.242 350.084 267.15 579.495 232.211Z" fill="#164094"/>
</g>
<path d="M400.274 475.218C380.38 475.205 361.304 467.301 347.231 453.241C333.157 439.18 325.236 420.11 325.206 400.217C325.236 380.322 333.157 361.252 347.23 347.189C361.303 333.127 380.379 325.221 400.274 325.206C420.169 325.221 439.245 333.127 453.318 347.189C467.391 361.252 475.312 380.322 475.343 400.217C475.312 420.11 467.391 439.18 453.318 453.241C439.244 467.301 420.168 475.205 400.274 475.218ZM400.274 330.98C381.91 330.993 364.301 338.29 351.31 351.27C338.319 364.249 331.008 381.853 330.98 400.217C330.998 418.583 338.306 436.191 351.3 449.171C364.293 462.152 381.908 469.443 400.274 469.443C418.641 469.443 436.255 462.152 449.249 449.171C462.242 436.191 469.55 418.583 469.568 400.217C469.54 381.853 462.229 364.249 449.238 351.27C436.247 338.29 418.638 330.993 400.274 330.98Z" fill="white"/>
<path d="M409.765 463.351C393.283 463.338 377.48 456.788 365.82 445.138C354.161 433.488 347.599 417.689 347.574 401.207C347.599 384.726 354.161 368.927 365.82 357.276C377.48 345.626 393.283 339.077 409.765 339.064C426.247 339.077 442.051 345.626 453.71 357.276C465.369 368.927 471.931 384.726 471.957 401.207C471.931 417.689 465.369 433.488 453.71 445.138C442.051 456.788 426.247 463.338 409.765 463.351ZM409.765 343.549C394.474 343.562 379.812 349.639 368.995 360.448C358.179 371.258 352.091 385.916 352.068 401.207C352.094 416.497 358.183 431.153 368.998 441.96C379.815 452.767 394.475 458.843 409.765 458.856C425.055 458.843 439.716 452.767 450.532 441.96C461.348 431.153 467.437 416.497 467.462 401.207C467.437 385.917 461.348 371.262 450.532 360.454C439.716 349.647 425.055 343.571 409.765 343.558V343.549Z" fill="white"/>
<path d="M419.255 451.494C406.186 451.484 393.655 446.29 384.41 437.053C375.165 427.815 369.962 415.287 369.941 402.218C369.962 389.149 375.165 376.622 384.41 367.384C393.655 358.146 406.186 352.953 419.255 352.942C432.326 352.95 444.858 358.143 454.104 367.381C463.349 376.619 468.552 389.148 468.569 402.218C468.549 415.287 463.346 427.815 454.101 437.053C444.856 446.29 432.324 451.484 419.255 451.494ZM419.255 356.147C407.036 356.155 395.317 361.01 386.673 369.647C378.029 378.285 373.164 389.998 373.146 402.218C373.166 414.436 378.032 426.148 386.677 434.783C395.321 443.418 407.037 448.272 419.255 448.28C431.474 448.272 443.19 443.418 451.835 434.783C460.478 426.148 465.345 414.436 465.365 402.218C465.347 389.998 460.482 378.285 451.838 369.647C443.193 361.01 431.476 356.155 419.255 356.147Z" fill="white"/>
<path d="M428.739 439.627C419.082 439.619 409.823 435.782 402.992 428.956C396.161 422.131 392.317 412.875 392.301 403.219C392.314 393.561 396.158 384.302 402.989 377.475C409.82 370.647 419.08 366.808 428.739 366.801C438.397 366.808 447.657 370.647 454.488 377.475C461.319 384.302 465.163 393.561 465.175 403.219C465.16 412.875 461.316 422.131 454.485 428.956C447.654 435.782 438.395 439.619 428.739 439.627ZM428.739 368.726C419.591 368.733 410.82 372.369 404.35 378.836C397.88 385.302 394.239 394.071 394.226 403.219C394.242 412.365 397.883 421.131 404.353 427.595C410.823 434.06 419.593 437.694 428.739 437.702C437.884 437.694 446.654 434.06 453.124 427.595C459.593 421.131 463.236 412.365 463.25 403.219C463.238 394.071 459.598 385.302 453.128 378.836C446.657 372.369 437.886 368.733 428.739 368.726Z" fill="white"/>
</g>
</g>
<circle cx="400" cy="400" r="97.5" stroke="black" stroke-width="5"/>
<defs>
<filter id="filter0_f_879_1227" x="-75.1033" y="-212.38" width="1520.89" height="1311.68" filterUnits="userSpaceOnUse" color-interpolation-filters="sRGB">
<feFlood flood-opacity="0" result="BackgroundImageFix"/>
<feBlend mode="normal" in="SourceGraphic" in2="BackgroundImageFix" result="shape"/>
<feGaussianBlur stdDeviation="225" result="effect1_foregroundBlur_879_1227"/>
</filter>
<filter id="filter1_f_879_1227" x="-543.513" y="-524.573" width="2335.66" height="2102.2" filterUnits="userSpaceOnUse" color-interpolation-filters="sRGB">
<feFlood flood-opacity="0" result="BackgroundImageFix"/>
<feBlend mode="normal" in="SourceGraphic" in2="BackgroundImageFix" result="shape"/>
<feGaussianBlur stdDeviation="375" result="effect1_foregroundBlur_879_1227"/>
</filter>
<clipPath id="clip0_879_1227">
<rect width="500" height="500" fill="white"/>
</clipPath>
<clipPath id="clip1_879_1227">
<rect x="300" y="300" width="200" height="200" rx="100" fill="white"/>
</clipPath>
</defs>
</svg>
