<svg width="500" height="500" viewBox="0 0 500 500" fill="none" xmlns="http://www.w3.org/2000/svg">
<g clip-path="url(#clip0_1045_1277)">
<path d="M250 0C388.084 0 500 111.939 500 250C500 388.084 388.084 500 250 500C111.939 500 0 388.073 0 250C0 111.939 111.939 0 250 0Z" fill="#F5AC37"/>
<path d="M259.214 267.652H354.21C356.235 267.652 357.191 267.652 357.337 264.997C358.114 255.333 358.114 245.613 357.337 235.937C357.337 234.059 356.404 233.282 354.367 233.282H165.309C162.969 233.282 162.339 234.059 162.339 236.252V264.063C162.339 267.652 162.339 267.652 166.085 267.652H259.214ZM346.728 200.781C346.998 200.072 346.998 199.296 346.728 198.598C345.142 195.145 343.263 191.848 341.081 188.754C337.796 183.467 333.926 178.596 329.516 174.219C327.434 171.576 325.027 169.202 322.327 167.188C308.804 155.679 292.728 147.534 275.448 143.439C266.729 141.482 257.819 140.548 248.886 140.627H164.983C162.643 140.627 162.328 141.56 162.328 143.597V199.06C162.328 201.4 162.328 202.03 165.298 202.03H345.603C345.603 202.03 347.167 201.715 347.482 200.781H346.717H346.728ZM346.728 300.153C344.073 299.861 341.396 299.861 338.741 300.153H165.467C163.127 300.153 162.339 300.153 162.339 303.281V357.506C162.339 360.004 162.339 360.634 165.467 360.634H245.466C249.291 360.926 253.116 360.656 256.863 359.857C268.473 359.025 279.892 356.505 290.782 352.354C294.742 350.981 298.567 349.192 302.178 347.044H303.269C322.023 337.29 337.256 321.967 346.863 303.157C346.863 303.157 347.955 300.794 346.728 300.176V300.153ZM130.94 388.748V387.814V351.409V339.067V302.347C130.94 300.311 130.94 300.007 128.443 300.007H94.5347C92.6559 300.007 91.8796 300.007 91.8796 297.509V267.82H128.128C130.153 267.82 130.94 267.82 130.94 265.165V235.791C130.94 233.912 130.94 233.451 128.443 233.451H94.5347C92.6559 233.451 91.8796 233.451 91.8796 230.954V203.458C91.8796 201.737 91.8796 201.276 94.3772 201.276H127.97C130.31 201.276 130.94 201.276 130.94 198.306V114.087C130.94 111.59 130.94 110.96 134.068 110.96H251.249C259.754 111.297 268.203 112.231 276.561 113.772C293.785 116.956 310.334 123.11 325.466 131.896C335.501 137.803 344.737 144.935 352.961 153.148C359.149 159.572 364.729 166.524 369.679 173.927C374.595 181.431 378.679 189.452 381.885 197.833C382.279 200.016 384.371 201.49 386.554 201.118H414.522C418.11 201.118 418.11 201.118 418.268 204.561V230.189C418.268 232.686 417.334 233.316 414.825 233.316H393.259C391.076 233.316 390.446 233.316 390.604 236.129C391.459 245.646 391.459 255.198 390.604 264.715C390.604 267.37 390.604 267.685 393.585 267.685H418.257C419.348 269.092 418.257 270.498 418.257 271.915C418.414 273.727 418.414 275.56 418.257 277.372V296.283C418.257 298.938 417.48 299.726 415.129 299.726H385.598C383.539 299.332 381.536 300.648 381.064 302.696C374.032 320.977 362.782 337.368 348.247 350.509C342.937 355.29 337.357 359.79 331.53 363.941C325.274 367.541 319.188 371.288 312.776 374.258C300.974 379.568 288.599 383.483 275.898 385.969C263.838 388.129 251.609 389.108 239.335 388.939H130.895V388.781L130.94 388.748Z" fill="#FEFEFD"/>
</g>
<g clip-path="url(#clip1_1045_1277)">
<path d="M500 400C500 344.772 455.228 300 400 300C344.772 300 300 344.772 300 400C300 455.228 344.772 500 400 500C455.228 500 500 455.228 500 400Z" fill="#120901"/>
<path d="M458.729 396.781C457.045 396.781 455.361 396.991 453.887 397.833C451.993 399.096 450.519 402.043 450.519 404.78C450.519 407.096 452.624 410.043 454.94 411.306C461.466 414.675 468.413 407.096 465.044 400.78C463.992 398.465 461.255 396.991 458.729 396.781Z" fill="#FF8500"/>
<path d="M405.996 351.731C408.311 352.152 411.68 360.151 412.311 366.888C412.522 368.361 412.311 371.52 412.311 373.835C412.101 377.414 411.68 378.466 410.417 380.151C407.68 384.151 402.627 386.677 396.101 387.098C394.207 387.308 391.049 387.519 389.365 387.519C386.628 387.308 386.417 387.308 386.839 386.256C387.049 385.835 387.681 384.361 388.102 383.098C390.838 374.677 396.943 361.204 400.101 356.994C402.206 353.836 404.732 351.52 405.996 351.731ZM403.891 333.416C402.838 333.416 401.575 333.626 399.68 334.258C396.943 335.1 394.417 336.573 392.101 338.468C388.733 340.994 388.312 341.205 388.102 340.152C387.891 338.468 385.154 336.152 382.628 335.942C380.102 335.521 376.944 336.784 375.681 338.679C375.049 339.521 373.366 342.257 371.681 344.994C368.734 350.047 367.681 353.625 368.734 355.731C369.366 356.994 369.155 358.467 367.26 367.52C363.892 383.94 358.418 417.833 358.418 424.36C358.208 439.096 358.418 452.99 358.629 455.727C359.261 459.937 360.734 462.885 363.471 464.779C366.207 466.674 367.681 467.095 370.629 466.253C373.576 465.621 375.049 464.569 376.734 462.253C378.628 459.516 379.049 456.569 379.049 443.727C378.839 428.149 380.944 403.518 382.207 402.045C382.628 401.834 385.365 401.623 388.522 402.045C400.312 403.097 409.996 400.992 417.364 395.518C425.364 389.624 428.732 382.888 429.363 371.52C429.995 356.573 425.153 343.31 416.522 336.573C413.785 334.679 412.943 334.468 408.732 333.837C406.627 333.416 405.154 333.205 403.891 333.416Z" fill="white"/>
</g>
<circle cx="400" cy="400" r="97.5" stroke="black" stroke-width="5"/>
<defs>
<clipPath id="clip0_1045_1277">
<rect width="500" height="500" fill="white"/>
</clipPath>
<clipPath id="clip1_1045_1277">
<rect width="200" height="200" fill="white" transform="translate(300 300)"/>
</clipPath>
</defs>
</svg>
