<svg width="500" height="500" viewBox="0 0 500 500" fill="none" xmlns="http://www.w3.org/2000/svg">
<g clip-path="url(#clip0_805_4241)">
<mask id="mask0_805_4241" style="mask-type:alpha" maskUnits="userSpaceOnUse" x="0" y="0" width="500" height="500">
<rect width="500" height="500" transform="matrix(1 0 0 -1 0 500)" fill="black"/>
</mask>
<g mask="url(#mask0_805_4241)">
<path d="M250.075 104.879C299.871 104.879 340.239 81.4008 340.239 52.4394C340.239 23.4779 299.871 0 250.075 0C200.278 0 159.91 23.4779 159.91 52.4394C159.91 81.4008 200.278 104.879 250.075 104.879Z" fill="#E6007A"/>
<path d="M250.075 500C299.871 500 340.239 476.522 340.239 447.56C340.239 418.599 299.871 395.121 250.075 395.121C200.278 395.121 159.91 418.599 159.91 447.56C159.91 476.522 200.278 500 250.075 500Z" fill="#E6007A"/>
<path d="M124.425 177.468C149.323 134.344 149.161 87.6382 124.064 73.1477C98.9662 58.6572 58.4365 81.869 33.5383 124.993C8.64007 168.116 8.80167 214.822 33.8993 229.313C58.9968 243.803 99.5265 220.591 124.425 177.468Z" fill="#E6007A"/>
<path d="M466.573 375.004C491.471 331.881 491.323 285.183 466.242 270.702C441.162 256.221 400.646 279.441 375.748 322.565C350.849 365.689 350.997 412.386 376.078 426.867C401.158 441.348 441.674 418.128 466.573 375.004Z" fill="#E6007A"/>
<path d="M124.076 426.855C149.174 412.364 149.335 365.659 124.437 322.535C99.5389 279.411 59.0093 256.199 33.9117 270.69C8.81412 285.18 8.65252 331.886 33.5508 375.01C58.449 418.133 98.9786 441.345 124.076 426.855Z" fill="#E6007A"/>
<path d="M466.264 229.324C491.344 214.843 491.492 168.145 466.594 125.022C441.696 81.8978 401.18 58.678 376.099 73.1587C351.018 87.6395 350.871 134.337 375.769 177.461C400.667 220.585 441.183 243.804 466.264 229.324Z" fill="#E6007A"/>
</g>
</g>
<g clip-path="url(#clip1_805_4241)">
<path d="M399.7 499.5C454.818 499.5 499.5 454.818 499.5 399.7C499.5 344.582 454.818 299.899 399.7 299.899C344.582 299.899 299.899 344.582 299.899 399.7C299.899 454.818 344.582 499.5 399.7 499.5Z" fill="white"/>
<path d="M408.715 387.452L456.071 340.098L438.105 322.135L399.734 360.506L361.362 322.135L343.398 340.098L390.752 387.452C393.232 389.932 396.483 391.173 399.734 391.173C402.984 391.173 406.235 389.933 408.715 387.452ZM477.267 438.039L438.896 399.668L477.267 361.296L459.303 343.333L411.95 390.687C406.99 395.647 406.99 403.69 411.95 408.65L459.303 456.004L477.267 438.039ZM399.668 438.895L438.039 477.266L456.002 459.302L408.65 411.949C403.688 406.988 395.647 406.988 390.685 411.949L343.332 459.302L361.297 477.266L399.668 438.895ZM387.452 408.715C389.835 406.332 391.173 403.102 391.173 399.733C391.173 396.365 389.835 393.133 387.452 390.751L340.099 343.398L322.135 361.363L360.506 399.733L322.135 438.105L340.099 456.069L387.452 408.715Z" fill="black"/>
</g>
<circle cx="400" cy="400" r="97.5" stroke="black" stroke-width="5"/>
<defs>
<clipPath id="clip0_805_4241">
<rect width="500" height="500" rx="250" fill="white"/>
</clipPath>
<clipPath id="clip1_805_4241">
<rect width="200" height="200" fill="white" transform="translate(299.6 299.6)"/>
</clipPath>
</defs>
</svg>
