<svg width="500" height="500" viewBox="0 0 500 500" fill="none" xmlns="http://www.w3.org/2000/svg">
<g clip-path="url(#clip0_817_606)">
<mask id="mask0_817_606" style="mask-type:alpha" maskUnits="userSpaceOnUse" x="0" y="0" width="500" height="500">
<rect width="500" height="500" fill="#D9D9D9"/>
</mask>
<g mask="url(#mask0_817_606)">
<mask id="mask1_817_606" style="mask-type:alpha" maskUnits="userSpaceOnUse" x="0" y="0" width="500" height="500">
<rect width="500" height="500" transform="matrix(1 0 0 -1 0 500)" fill="black"/>
</mask>
<g mask="url(#mask1_817_606)">
<path d="M250.075 104.879C299.871 104.879 340.239 81.4008 340.239 52.4394C340.239 23.4779 299.871 0 250.075 0C200.278 0 159.91 23.4779 159.91 52.4394C159.91 81.4008 200.278 104.879 250.075 104.879Z" fill="#E6007A"/>
<path d="M250.075 500C299.871 500 340.239 476.522 340.239 447.56C340.239 418.599 299.871 395.121 250.075 395.121C200.278 395.121 159.91 418.599 159.91 447.56C159.91 476.522 200.278 500 250.075 500Z" fill="#E6007A"/>
<path d="M124.425 177.468C149.323 134.344 149.161 87.6382 124.064 73.1477C98.9662 58.6572 58.4365 81.869 33.5383 124.993C8.64007 168.116 8.80167 214.822 33.8993 229.313C58.9968 243.803 99.5265 220.591 124.425 177.468Z" fill="#E6007A"/>
<path d="M466.573 375.004C491.471 331.881 491.323 285.183 466.242 270.702C441.162 256.221 400.646 279.441 375.748 322.565C350.849 365.689 350.997 412.386 376.078 426.867C401.158 441.348 441.674 418.128 466.573 375.004Z" fill="#E6007A"/>
<path d="M124.076 426.855C149.174 412.364 149.335 365.659 124.437 322.535C99.5389 279.411 59.0093 256.199 33.9117 270.69C8.81412 285.18 8.65252 331.886 33.5508 375.01C58.449 418.133 98.9786 441.345 124.076 426.855Z" fill="#E6007A"/>
<path d="M466.264 229.324C491.344 214.843 491.492 168.145 466.594 125.022C441.696 81.8978 401.18 58.678 376.099 73.1587C351.018 87.6395 350.871 134.337 375.769 177.461C400.667 220.585 441.183 243.804 466.264 229.324Z" fill="#E6007A"/>
</g>
</g>
</g>
<g clip-path="url(#clip1_817_606)">
<path d="M500 400C500 344.772 455.228 300 400 300C344.772 300 300 344.772 300 400C300 455.228 344.772 500 400 500C455.228 500 500 455.228 500 400Z" fill="#120901"/>
<path d="M458.729 396.781C457.045 396.781 455.361 396.991 453.887 397.833C451.993 399.096 450.519 402.043 450.519 404.78C450.519 407.096 452.624 410.043 454.94 411.306C461.466 414.675 468.413 407.096 465.044 400.78C463.992 398.465 461.255 396.991 458.729 396.781Z" fill="#FF8500"/>
<path d="M405.996 351.731C408.311 352.152 411.68 360.151 412.311 366.888C412.522 368.361 412.311 371.52 412.311 373.835C412.101 377.414 411.68 378.466 410.417 380.151C407.68 384.151 402.627 386.677 396.101 387.098C394.207 387.308 391.049 387.519 389.365 387.519C386.628 387.308 386.417 387.308 386.839 386.256C387.049 385.835 387.681 384.361 388.102 383.098C390.838 374.677 396.943 361.204 400.101 356.994C402.206 353.836 404.732 351.52 405.996 351.731ZM403.891 333.416C402.838 333.416 401.575 333.626 399.68 334.258C396.943 335.1 394.417 336.573 392.101 338.468C388.733 340.994 388.312 341.205 388.102 340.152C387.891 338.468 385.154 336.152 382.628 335.942C380.102 335.521 376.944 336.784 375.681 338.679C375.049 339.521 373.366 342.257 371.681 344.994C368.734 350.047 367.681 353.625 368.734 355.731C369.366 356.994 369.155 358.467 367.26 367.52C363.892 383.94 358.418 417.833 358.418 424.36C358.208 439.096 358.418 452.99 358.629 455.727C359.261 459.937 360.734 462.885 363.471 464.779C366.207 466.674 367.681 467.095 370.629 466.253C373.576 465.621 375.049 464.569 376.734 462.253C378.628 459.516 379.049 456.569 379.049 443.727C378.839 428.149 380.944 403.518 382.207 402.045C382.628 401.834 385.365 401.623 388.522 402.045C400.312 403.097 409.996 400.992 417.364 395.518C425.364 389.624 428.732 382.888 429.363 371.52C429.995 356.573 425.153 343.31 416.522 336.573C413.785 334.679 412.943 334.468 408.732 333.837C406.627 333.416 405.154 333.205 403.891 333.416Z" fill="white"/>
</g>
<circle cx="400" cy="400" r="97.5" stroke="black" stroke-width="5"/>
<defs>
<clipPath id="clip0_817_606">
<rect width="500" height="500" rx="250" fill="white"/>
</clipPath>
<clipPath id="clip1_817_606">
<rect width="200" height="200" fill="white" transform="translate(300 300)"/>
</clipPath>
</defs>
</svg>
