<svg width="500" height="500" viewBox="0 0 500 500" fill="none" xmlns="http://www.w3.org/2000/svg">
<g clip-path="url(#clip0_1301_2335)">
<mask id="mask0_1301_2335" style="mask-type:alpha" maskUnits="userSpaceOnUse" x="0" y="0" width="500" height="500">
<rect width="500" height="500" fill="#D9D9D9"/>
</mask>
<g mask="url(#mask0_1301_2335)">
<g clip-path="url(#clip1_1301_2335)">
<mask id="mask1_1301_2335" style="mask-type:alpha" maskUnits="userSpaceOnUse" x="0" y="0" width="500" height="500">
<path d="M250 500C388.071 500 500 388.071 500 250C500 111.929 388.071 0 250 0C111.929 0 0 111.929 0 250C0 388.071 111.929 500 250 500Z" fill="black"/>
</mask>
<g mask="url(#mask1_1301_2335)">
<path d="M397.79 0H102.21C45.761 0 0 45.761 0 102.21V397.79C0 454.24 45.761 500 102.21 500H397.79C454.24 500 500 454.24 500 397.79V102.21C500 45.761 454.24 0 397.79 0Z" fill="url(#paint0_linear_1301_2335)"/>
<path d="M315.79 116.02L121.548 389.479H181.184L376.435 116.02H315.79Z" fill="white"/>
<path d="M187.393 116.02L244.545 196.599L214.727 240.551L126.514 116.02H187.393Z" fill="url(#paint1_linear_1301_2335)"/>
<path d="M321.58 389.503L258.218 300.381L288.038 257.648L381.218 389.503H321.58Z" fill="url(#paint2_linear_1301_2335)"/>
<path d="M397.79 0H102.21C45.761 0 0 45.761 0 102.21V397.79C0 454.24 45.761 500 102.21 500H397.79C454.24 500 500 454.24 500 397.79V102.21C500 45.761 454.24 0 397.79 0Z" stroke="#2D2D3D" stroke-width="2"/>
</g>
</g>
</g>
</g>
<g clip-path="url(#clip2_1301_2335)">
<mask id="mask2_1301_2335" style="mask-type:alpha" maskUnits="userSpaceOnUse" x="0" y="300" width="200" height="200">
<path d="M100 500C155.228 500 200 455.228 200 400C200 344.772 155.228 300 100 300C44.7715 300 0 344.772 0 400C0 455.228 44.7715 500 100 500Z" fill="black"/>
</mask>
<g mask="url(#mask2_1301_2335)">
<path d="M159.116 300H40.884C18.3044 300 0 318.304 0 340.884V459.116C0 481.696 18.3044 500 40.884 500H159.116C181.696 500 200 481.696 200 459.116V340.884C200 318.304 181.696 300 159.116 300Z" fill="url(#paint3_linear_1301_2335)"/>
<path d="M126.316 346.406L48.6191 455.79H72.4738L150.574 346.406H126.316Z" fill="white"/>
<path d="M74.9572 346.406L97.818 378.638L85.8906 396.219L50.6055 346.406H74.9572Z" fill="url(#paint4_linear_1301_2335)"/>
<path d="M128.632 455.801L103.287 420.152L115.215 403.059L152.487 455.801H128.632Z" fill="url(#paint5_linear_1301_2335)"/>
<path d="M159.116 300H40.884C18.3044 300 0 318.304 0 340.884V459.116C0 481.696 18.3044 500 40.884 500H159.116C181.696 500 200 481.696 200 459.116V340.884C200 318.304 181.696 300 159.116 300Z" stroke="#2D2D3D" stroke-width="2"/>
</g>
</g>
<circle cx="100" cy="400" r="97.5" stroke="black" stroke-width="5"/>
<defs>
<linearGradient id="paint0_linear_1301_2335" x1="404.695" y1="-70.442" x2="281.768" y2="440.607" gradientUnits="userSpaceOnUse">
<stop stop-color="#2C2C3D"/>
<stop offset="1" stop-color="#1A1A27"/>
</linearGradient>
<linearGradient id="paint1_linear_1301_2335" x1="173.726" y1="133.112" x2="253.85" y2="231.546" gradientUnits="userSpaceOnUse">
<stop stop-color="white"/>
<stop offset="1" stop-color="white" stop-opacity="0.55"/>
</linearGradient>
<linearGradient id="paint2_linear_1301_2335" x1="335.25" y1="368.751" x2="236.985" y2="233.941" gradientUnits="userSpaceOnUse">
<stop stop-color="#6966FF"/>
<stop offset="1" stop-color="#6966FF" stop-opacity="0.36"/>
</linearGradient>
<linearGradient id="paint3_linear_1301_2335" x1="161.878" y1="271.823" x2="112.707" y2="476.243" gradientUnits="userSpaceOnUse">
<stop stop-color="#2C2C3D"/>
<stop offset="1" stop-color="#1A1A27"/>
</linearGradient>
<linearGradient id="paint4_linear_1301_2335" x1="69.4904" y1="353.243" x2="101.54" y2="392.617" gradientUnits="userSpaceOnUse">
<stop stop-color="white"/>
<stop offset="1" stop-color="white" stop-opacity="0.55"/>
</linearGradient>
<linearGradient id="paint5_linear_1301_2335" x1="134.1" y1="447.5" x2="94.7938" y2="393.576" gradientUnits="userSpaceOnUse">
<stop stop-color="#6966FF"/>
<stop offset="1" stop-color="#6966FF" stop-opacity="0.36"/>
</linearGradient>
<clipPath id="clip0_1301_2335">
<rect width="500" height="500" rx="250" fill="white"/>
</clipPath>
<clipPath id="clip1_1301_2335">
<rect width="500" height="500" fill="white"/>
</clipPath>
<clipPath id="clip2_1301_2335">
<rect width="200" height="200" fill="white" transform="translate(0 300)"/>
</clipPath>
</defs>
</svg>
