<svg width="500" height="500" viewBox="0 0 500 500" fill="none" xmlns="http://www.w3.org/2000/svg">
<g clip-path="url(#clip0_1310_2540)">
<mask id="mask0_1310_2540" style="mask-type:alpha" maskUnits="userSpaceOnUse" x="0" y="0" width="500" height="500">
<rect width="500" height="500" fill="#D9D9D9"/>
</mask>
<g mask="url(#mask0_1310_2540)">
<g clip-path="url(#clip1_1310_2540)">
<path d="M27.1185 311.82C15.9339 300.632 8.43308 287.714 4.6161 273.065C0.887895 258.327 0.887893 243.588 4.6161 228.85C8.43308 214.023 15.8894 201.061 26.9853 189.963C38.2586 178.687 51.2631 171.184 65.9984 167.456C80.7337 163.727 95.4691 163.727 110.204 167.456C124.94 171.184 137.9 178.642 149.084 189.83L176.78 217.53L217.79 176.512L190.094 148.811C178.909 137.624 171.409 124.706 167.592 110.056C163.864 95.318 163.819 80.6242 167.459 65.9748C171.187 51.2365 178.689 38.2296 189.961 26.9539C201.147 15.7671 214.106 8.30922 228.841 4.58028C243.576 0.851326 258.267 0.895597 272.914 4.71333C287.649 8.44228 300.609 15.9004 311.794 27.0872C322.978 38.274 330.435 51.2365 334.164 65.9748C337.981 80.6242 338.024 95.318 334.297 110.056C330.657 124.883 323.244 137.89 312.06 149.078L284.498 176.645L325.375 217.53L352.938 189.963C364.122 178.775 377.038 171.273 391.684 167.456C406.419 163.727 421.11 163.771 435.757 167.589C450.492 171.317 463.497 178.82 474.77 190.096C485.955 201.282 493.411 214.245 497.139 228.983C500.956 243.633 500.956 258.282 497.139 272.932C493.411 287.67 485.955 300.632 474.77 311.82C463.497 323.095 450.492 330.597 435.757 334.327C421.11 337.966 406.419 337.922 391.684 334.192C377.126 330.464 364.255 323.006 353.07 311.82L325.508 284.252L284.498 325.27L312.06 352.838C323.244 364.024 330.657 376.942 334.297 391.592C338.024 406.331 338.024 421.069 334.297 435.807C330.568 450.546 323.067 463.552 311.794 474.828C300.699 485.925 287.737 493.383 272.914 497.202C258.178 500.93 243.443 500.93 228.708 497.202C214.15 493.473 201.278 486.014 190.094 474.828C178.82 463.552 171.276 450.589 167.459 435.94C163.731 421.202 163.731 406.464 167.459 391.725C171.365 376.987 178.866 364.069 189.961 352.971L217.79 325.137L176.913 284.252L149.084 312.086C137.989 323.183 124.984 330.597 110.071 334.327C95.3358 338.055 80.6007 338.055 65.8654 334.327C51.2189 330.508 38.3032 323.006 27.1185 311.82ZM60.406 278.525C65.4657 283.586 71.3243 286.959 77.9819 288.647C84.7282 290.422 91.4301 290.466 98.0877 288.78C104.745 287.092 110.604 283.719 115.664 278.658L143.492 250.824L115.797 223.123C110.737 218.063 104.834 214.733 98.0877 213.136C91.4301 211.448 84.7727 211.448 78.1151 213.136C71.4576 214.822 65.5545 218.24 60.406 223.39C55.3462 228.45 51.9289 234.266 50.1535 240.836C48.467 247.495 48.467 254.154 50.1535 260.813C51.9289 267.561 55.3462 273.464 60.406 278.525ZM223.382 115.516L251.077 143.217L278.64 115.649C283.788 110.5 287.161 104.64 288.759 98.0704C290.445 91.4116 290.401 84.7082 288.626 77.9606C286.94 71.3017 283.566 65.442 278.506 60.3813C273.447 55.3206 267.588 51.9467 260.931 50.2598C254.273 48.573 247.616 48.573 240.958 50.2598C234.39 51.858 228.531 55.2317 223.382 60.3813C218.323 65.442 214.86 71.3017 212.997 77.9606C211.31 84.6195 211.31 91.2783 212.997 97.9371C214.86 104.596 218.323 110.456 223.382 115.516ZM350.998 250.957L378.56 278.525C383.619 283.586 389.434 287.004 396.003 288.78C402.66 290.466 417.072 290.422 423.641 288.647C430.298 286.959 436.201 283.541 441.349 278.392C446.498 273.242 449.87 267.382 451.469 260.813C453.244 254.242 453.289 247.628 451.602 240.97C449.916 234.311 446.542 228.45 441.483 223.39C436.334 218.24 430.431 214.822 423.773 213.136C417.116 211.448 402.66 211.448 396.003 213.136C389.523 214.822 383.708 218.24 378.56 223.39L350.998 250.957ZM223.382 441.533C228.442 446.595 234.301 449.969 240.958 451.655C247.616 453.342 254.228 453.297 260.798 451.522C267.455 449.834 273.314 446.461 278.373 441.4C283.522 436.25 286.94 430.347 288.626 423.688C290.401 417.117 290.445 410.504 288.759 403.845C287.161 397.097 283.833 391.192 278.773 386.132L251.21 358.564L223.382 386.398C218.323 391.459 214.905 397.274 213.13 403.845C211.443 410.504 211.443 417.162 213.13 423.821C214.816 430.48 218.234 436.384 223.382 441.533ZM210.2 250.957L251.077 291.842L292.087 250.824L251.21 209.939L210.2 250.957Z" fill="#F1E1D4"/>
</g>
</g>
</g>
<circle cx="100" cy="400" r="97.5" fill="black" stroke="black" stroke-width="5"/>
<g clip-path="url(#clip2_1310_2540)">
<path d="M10.8475 424.728C6.37359 420.253 3.37328 415.086 1.84649 409.226C0.355207 403.331 0.355206 397.435 1.84649 391.54C3.37328 385.609 6.35582 380.424 10.7942 375.985C15.3035 371.475 20.5053 368.474 26.3994 366.982C32.2935 365.491 38.1877 365.491 44.0818 366.982C49.976 368.474 55.16 371.457 59.6337 375.932L70.7119 387.012L87.116 370.605L76.0378 359.524C71.5637 355.05 68.5637 349.882 67.0369 344.023C65.5455 338.127 65.5278 332.25 66.9837 326.39C68.475 320.495 71.4755 315.292 75.9846 310.782C80.4587 306.307 85.6423 303.324 91.5364 301.832C97.4305 300.341 103.307 300.358 109.166 301.885C115.06 303.377 120.244 306.36 124.718 310.835C129.191 315.31 132.174 320.495 133.666 326.39C135.192 332.25 135.21 338.127 133.719 344.023C132.263 349.953 129.298 355.156 124.824 359.631L113.799 370.658L130.15 387.012L141.175 375.985C145.649 371.51 150.815 368.509 156.674 366.982C162.568 365.491 168.444 365.508 174.303 367.036C180.197 368.527 185.399 371.528 189.908 376.038C194.382 380.513 197.365 385.698 198.856 391.593C200.382 397.453 200.382 403.313 198.856 409.173C197.365 415.068 194.382 420.253 189.908 424.728C185.399 429.238 180.197 432.239 174.303 433.731C168.444 435.187 162.568 435.169 156.674 433.677C150.851 432.186 145.702 429.202 141.228 424.728L130.203 413.701L113.799 430.108L124.824 441.135C129.298 445.61 132.263 450.777 133.719 456.637C135.21 462.532 135.21 468.427 133.719 474.323C132.227 480.218 129.227 485.421 124.718 489.931C120.28 494.37 115.095 497.353 109.166 498.881C103.271 500.372 97.3773 500.372 91.4832 498.881C85.6601 497.389 80.5114 494.406 76.0378 489.931C71.5282 485.421 68.5105 480.236 66.9837 474.376C65.4923 468.481 65.4923 462.586 66.9837 456.69C68.546 450.795 71.5464 445.627 75.9846 441.188L87.116 430.055L70.7651 413.701L59.6337 424.834C55.1955 429.273 49.9937 432.239 44.0285 433.731C38.1344 435.222 32.2403 435.222 26.3462 433.731C20.4876 432.203 15.3213 429.202 10.8475 424.728ZM24.1625 411.41C26.1863 413.434 28.5298 414.784 31.1928 415.459C33.8913 416.169 36.5721 416.187 39.2351 415.512C41.8981 414.837 44.2416 413.487 46.2655 411.463L57.3969 400.33L46.3187 389.249C44.2948 387.225 41.9336 385.893 39.2351 385.254C36.5721 384.579 33.9091 384.579 31.2461 385.254C28.5831 385.929 26.2219 387.296 24.1625 389.356C22.1385 391.38 20.7716 393.707 20.0615 396.334C19.3869 398.998 19.3869 401.662 20.0615 404.325C20.7716 407.024 22.1385 409.386 24.1625 411.41ZM89.3528 346.207L100.431 357.287L111.456 346.26C113.515 344.2 114.865 341.856 115.504 339.228C116.178 336.565 116.161 333.883 115.451 331.184C114.776 328.521 113.426 326.177 111.402 324.153C109.379 322.128 107.035 320.779 104.372 320.104C101.709 319.429 99.0464 319.429 96.3832 320.104C93.756 320.743 91.4123 322.093 89.3528 324.153C87.3291 326.177 85.9441 328.521 85.1987 331.184C84.5241 333.848 84.5241 336.511 85.1987 339.175C85.9441 341.838 87.3291 344.182 89.3528 346.207ZM140.399 400.383L151.424 411.41C153.448 413.434 155.774 414.802 158.401 415.512C161.064 416.187 166.829 416.169 169.456 415.459C172.119 414.784 174.481 413.417 176.54 411.357C178.599 409.297 179.948 406.953 180.588 404.325C181.298 401.697 181.316 399.051 180.641 396.388C179.966 393.724 178.617 391.38 176.593 389.356C174.534 387.296 172.172 385.929 169.509 385.254C166.846 384.579 161.064 384.579 158.401 385.254C155.809 385.929 153.483 387.296 151.424 389.356L140.399 400.383ZM89.3528 476.613C91.3769 478.638 93.7205 479.987 96.3832 480.662C99.0464 481.337 101.691 481.319 104.319 480.609C106.982 479.934 109.326 478.584 111.349 476.56C113.409 474.5 114.776 472.139 115.451 469.475C116.161 466.847 116.178 464.202 115.504 461.538C114.865 458.839 113.533 456.477 111.509 454.453L100.484 443.426L89.3528 454.559C87.3291 456.584 85.9619 458.91 85.2519 461.538C84.5773 464.202 84.5773 466.865 85.2519 469.528C85.9264 472.192 87.2937 474.554 89.3528 476.613ZM84.0801 400.383L100.431 416.737L116.835 400.33L100.484 383.976L84.0801 400.383Z" fill="#F1E1D4"/>
</g>
<circle cx="100" cy="400" r="97.5" stroke="black" stroke-width="5"/>
<defs>
<clipPath id="clip0_1310_2540">
<rect width="500" height="500" rx="250" fill="white"/>
</clipPath>
<clipPath id="clip1_1310_2540">
<rect width="500" height="500" fill="white"/>
</clipPath>
<clipPath id="clip2_1310_2540">
<rect width="200" height="200" fill="white" transform="translate(0 300)"/>
</clipPath>
</defs>
</svg>
