<svg width="500" height="501" viewBox="0 0 500 501" fill="none" xmlns="http://www.w3.org/2000/svg">
<g clip-path="url(#clip0_1154_1443)">
<mask id="mask0_1154_1443" style="mask-type:alpha" maskUnits="userSpaceOnUse" x="0" y="0" width="500" height="500">
<rect width="500" height="500" fill="#D9D9D9"/>
</mask>
<g mask="url(#mask0_1154_1443)">
<g clip-path="url(#clip1_1154_1443)">
<path d="M250 500C388.071 500 500 388.071 500 250C500 111.929 388.071 0 250 0C111.929 0 0 111.929 0 250C0 388.071 111.929 500 250 500Z" fill="white"/>
<path d="M249.968 68L247.52 76.2952V316.98L249.968 319.416L361.932 253.376L249.968 68Z" fill="#343434"/>
<path d="M249.968 68L138 253.376L249.968 319.416V202.594V68Z" fill="#8C8C8C"/>
<path d="M249.968 340.568L248.588 342.246V427.982L249.968 432L362 274.564L249.968 340.568Z" fill="#3C3C3B"/>
<path d="M249.968 432V340.568L138 274.564L249.968 432Z" fill="#8C8C8C"/>
<path d="M249.968 319.416L361.932 253.376L249.968 202.594V319.416Z" fill="#141414"/>
<path d="M138 253.376L249.968 319.416V202.594L138 253.376Z" fill="#393939"/>
</g>
</g>
</g>
<g clip-path="url(#clip2_1154_1443)">
<path d="M399.7 499.5C454.818 499.5 499.5 454.818 499.5 399.7C499.5 344.582 454.818 299.899 399.7 299.899C344.582 299.899 299.899 344.582 299.899 399.7C299.899 454.818 344.582 499.5 399.7 499.5Z" fill="white"/>
<path d="M408.716 387.451L456.071 340.097L438.105 322.134L399.734 360.505L361.363 322.134L343.398 340.097L390.752 387.451C393.232 389.931 396.483 391.172 399.734 391.172C402.985 391.172 406.235 389.932 408.716 387.451ZM477.267 438.038L438.896 399.667L477.267 361.295L459.303 343.332L411.95 390.686C406.99 395.646 406.99 403.689 411.95 408.649L459.303 456.003L477.267 438.038ZM399.668 438.894L438.039 477.265L456.003 459.301L408.65 411.948C403.688 406.987 395.647 406.987 390.685 411.948L343.332 459.301L361.297 477.265L399.668 438.894ZM387.452 408.714C389.835 406.331 391.173 403.101 391.173 399.733C391.173 396.364 389.835 393.133 387.452 390.75L340.099 343.397L322.135 361.362L360.506 399.733L322.135 438.104L340.099 456.068L387.452 408.714Z" fill="black"/>
</g>
<circle cx="400" cy="400" r="97.5" stroke="black" stroke-width="5"/>
<circle cx="100" cy="400" r="97.5" fill="white" stroke="black" stroke-width="5"/>
<path fill-rule="evenodd" clip-rule="evenodd" d="M197.342 399.14C197.342 453.342 153.312 497.281 98.9993 497.281C47.4706 497.281 5.1983 457.731 1 407.39H130.986V390.891H1C5.1983 340.55 47.4706 301 98.9993 301C153.312 301 197.342 344.939 197.342 399.14Z" fill="#0E76FD"/>
<circle cx="100" cy="400" r="97.5" stroke="black" stroke-width="5"/>
<defs>
<clipPath id="clip0_1154_1443">
<rect width="500" height="500" rx="250" fill="white"/>
</clipPath>
<clipPath id="clip1_1154_1443">
<rect width="500" height="500" fill="white"/>
</clipPath>
<clipPath id="clip2_1154_1443">
<rect width="200" height="200" fill="white" transform="translate(299.6 299.6)"/>
</clipPath>
</defs>
</svg>
