<svg width="500" height="500" viewBox="0 0 500 500" fill="none" xmlns="http://www.w3.org/2000/svg">
<g clip-path="url(#clip0_1382_2739)">
<mask id="mask0_1382_2739" style="mask-type:alpha" maskUnits="userSpaceOnUse" x="0" y="0" width="500" height="500">
<rect width="500" height="500" fill="#D9D9D9"/>
</mask>
<g mask="url(#mask0_1382_2739)">
<g clip-path="url(#clip1_1382_2739)">
<path d="M250 500C388.071 500 500 388.071 500 250C500 111.929 388.071 0 250 0C111.929 0 0 111.929 0 250C0 388.071 111.929 500 250 500Z" fill="white"/>
<path d="M249.968 68L247.52 76.2952V316.98L249.968 319.416L361.932 253.376L249.968 68Z" fill="#343434"/>
<path d="M249.968 68L138 253.376L249.968 319.416V202.594V68Z" fill="#8C8C8C"/>
<path d="M249.968 340.568L248.588 342.246V427.982L249.968 432L362 274.564L249.968 340.568Z" fill="#3C3C3B"/>
<path d="M249.968 432V340.568L138 274.564L249.968 432Z" fill="#8C8C8C"/>
<path d="M249.968 319.416L361.932 253.376L249.968 202.594V319.416Z" fill="#141414"/>
<path d="M138 253.376L249.968 319.416V202.594L138 253.376Z" fill="#393939"/>
</g>
</g>
</g>
<circle cx="400" cy="400" r="97.5" fill="black" stroke="black" stroke-width="5"/>
<g clip-path="url(#clip2_1382_2739)">
<path fill-rule="evenodd" clip-rule="evenodd" d="M400.003 300.192C455.128 300.192 499.815 344.876 499.815 399.995C499.815 455.115 455.128 499.798 400.003 499.798C344.879 499.798 300.192 455.115 300.192 399.995C300.192 344.876 344.879 300.192 400.003 300.192Z" fill="#2E3148"/>
<path fill-rule="evenodd" clip-rule="evenodd" d="M399.806 342.42C431.608 342.42 457.388 368.2 457.388 400.002C457.388 431.803 431.608 457.583 399.806 457.583C368.005 457.583 342.225 431.803 342.225 400.002C342.225 368.2 368.005 342.42 399.806 342.42Z" fill="#1B1E36"/>
<path fill-rule="evenodd" clip-rule="evenodd" d="M472.496 352.704C470.758 352.219 468.641 352.054 466.242 352.15L466.241 352.15C461.099 352.355 454.397 353.78 446.653 356.216L446.653 356.216C430.611 361.262 410.42 370.526 390.054 382.277L391.554 384.876L390.054 382.277C369.689 394.028 351.565 406.872 339.172 418.233L341.199 420.445L339.172 418.233C333.189 423.718 328.604 428.806 325.854 433.155C324.572 435.183 323.655 437.098 323.207 438.845C322.772 440.542 322.676 442.508 323.664 444.217L326.261 442.717L323.664 444.217C323.664 444.217 323.664 444.217 323.664 444.217C324.651 445.926 326.403 446.826 328.09 447.298C329.827 447.783 331.945 447.948 334.344 447.852L334.225 444.855L334.344 447.852C339.487 447.647 346.189 446.223 353.933 443.787C369.975 438.741 390.166 429.476 410.531 417.725C430.897 405.974 449.02 393.131 461.414 381.769L459.387 379.558L461.414 381.769C467.397 376.284 471.982 371.197 474.731 366.848C476.013 364.819 476.93 362.904 477.378 361.157C477.813 359.461 477.909 357.494 476.922 355.785M472.496 352.704C474.183 353.176 475.935 354.076 476.922 355.785L472.496 352.704ZM471.692 358.806C471.697 358.943 471.682 359.214 471.566 359.666C471.33 360.588 470.753 361.911 469.66 363.642L469.66 363.642C467.321 367.341 463.177 372.014 457.359 377.346L457.359 377.346C445.382 388.326 427.648 400.922 407.533 412.528L409.032 415.127L407.533 412.528C387.417 424.135 367.636 433.187 352.132 438.063L352.132 438.063C344.603 440.432 338.481 441.683 334.106 441.857L334.105 441.857C332.058 441.939 330.623 441.776 329.705 441.519C329.253 441.393 329.01 441.27 328.893 441.197C328.889 441.059 328.903 440.788 329.019 440.336C329.256 439.414 329.832 438.091 330.926 436.361C333.265 432.661 337.409 427.989 343.226 422.656C355.203 411.676 372.938 399.081 393.053 387.474C413.168 375.868 432.95 366.816 448.453 361.939C455.983 359.571 462.104 358.32 466.48 358.145M471.692 358.806C471.575 358.733 471.333 358.609 470.881 358.483C469.963 358.226 468.527 358.064 466.48 358.145" fill="#6F7390"/>
<path fill-rule="evenodd" clip-rule="evenodd" d="M405.151 486.179C406.441 484.917 407.642 483.166 408.759 481.04L408.759 481.04C411.152 476.484 413.269 469.968 415.032 462.043L415.032 462.043C418.683 445.627 420.755 423.509 420.761 399.996L417.761 399.996L420.761 399.996C420.767 376.484 418.706 354.367 415.064 337.953L412.135 338.603L415.064 337.953C413.305 330.029 411.192 323.514 408.8 318.959C407.684 316.834 406.484 315.083 405.195 313.821C403.944 312.596 402.289 311.53 400.315 311.53L400.316 314.53L400.315 311.53C400.315 311.53 400.315 311.53 400.315 311.53C398.341 311.531 396.686 312.598 395.434 313.823C394.145 315.085 392.943 316.837 391.827 318.963L394.482 320.358L391.827 318.963C389.433 323.519 387.316 330.035 385.553 337.959C381.902 354.375 379.83 376.493 379.824 400.006C379.818 423.518 381.879 445.636 385.521 462.049L388.45 461.4L385.521 462.049C387.28 469.974 389.393 476.488 391.785 481.043C392.901 483.168 394.101 484.919 395.39 486.181C396.641 487.406 398.296 488.473 400.27 488.472M405.151 486.179C403.899 487.405 402.244 488.472 400.27 488.472L405.151 486.179ZM400.269 482.433C400.148 482.368 399.921 482.22 399.587 481.893C398.907 481.228 398.049 480.067 397.098 478.254L397.098 478.254C395.063 474.379 393.088 468.454 391.379 460.75L391.379 460.75C387.859 444.887 385.818 423.231 385.824 400.007L382.824 400.007L385.824 400.007C385.83 376.784 387.882 355.127 391.41 339.262L391.41 339.262C393.124 331.557 395.101 325.63 397.138 321.753L397.138 321.753C398.091 319.94 398.949 318.778 399.631 318.111C399.966 317.783 400.194 317.634 400.316 317.57C400.437 317.634 400.665 317.782 400.998 318.109C401.679 318.775 402.536 319.935 403.488 321.748C405.522 325.623 407.497 331.549 409.206 339.253C412.726 355.115 414.767 376.771 414.761 399.995C414.755 423.218 412.703 444.876 409.175 460.74C407.461 468.445 405.484 474.372 403.447 478.249M400.269 482.433C400.391 482.368 400.619 482.22 400.954 481.891C401.636 481.224 402.494 480.063 403.447 478.249" fill="#6F7390"/>
<path fill-rule="evenodd" clip-rule="evenodd" d="M328.09 352.704C329.828 352.219 331.945 352.054 334.344 352.15L334.345 352.15C339.487 352.355 346.189 353.78 353.933 356.216L353.933 356.216C369.975 361.262 390.166 370.526 410.532 382.277L409.032 384.876L410.532 382.277C430.897 394.028 449.021 406.872 461.414 418.233L459.387 420.445L461.414 418.233C467.397 423.718 471.982 428.806 474.732 433.155C476.014 435.183 476.93 437.098 477.379 438.845C477.814 440.542 477.91 442.508 476.922 444.217L474.325 442.717L476.922 444.217C476.922 444.217 476.922 444.217 476.922 444.217C475.935 445.926 474.183 446.826 472.496 447.298C470.759 447.783 468.641 447.948 466.242 447.852L466.361 444.855L466.242 447.852C461.099 447.647 454.397 446.223 446.653 443.787C430.611 438.741 410.42 429.476 390.055 417.725C369.689 405.974 351.566 393.131 339.172 381.769L341.199 379.558L339.172 381.769C333.189 376.284 328.604 371.197 325.855 366.848C324.572 364.819 323.656 362.904 323.208 361.157C322.772 359.461 322.676 357.494 323.664 355.785M328.09 352.704C326.403 353.176 324.651 354.076 323.664 355.785L328.09 352.704ZM328.893 358.806C328.889 358.943 328.903 359.214 329.02 359.666C329.256 360.588 329.832 361.911 330.926 363.642L330.926 363.642C333.265 367.341 337.409 372.014 343.227 377.346L343.227 377.346C355.204 388.326 372.938 400.922 393.053 412.528L391.554 415.127L393.053 412.528C413.168 424.135 432.95 433.187 448.453 438.063L448.454 438.063C455.983 440.432 462.105 441.683 466.48 441.857L466.481 441.857C468.527 441.939 469.963 441.776 470.881 441.519C471.333 441.393 471.576 441.27 471.693 441.197C471.697 441.059 471.683 440.788 471.567 440.336C471.33 439.414 470.754 438.091 469.66 436.361C467.321 432.661 463.177 427.989 457.36 422.656C445.382 411.676 427.648 399.081 407.533 387.474C387.418 375.868 367.636 366.816 352.133 361.939C344.603 359.571 338.482 358.32 334.106 358.145M328.893 358.806C329.011 358.733 329.253 358.609 329.705 358.483C330.623 358.226 332.059 358.064 334.106 358.145" fill="#6F7390"/>
<path fill-rule="evenodd" clip-rule="evenodd" d="M344.441 375.525C347.835 375.525 350.586 378.278 350.586 381.673C350.586 385.069 347.835 387.821 344.441 387.821C341.047 387.821 338.296 385.069 338.296 381.673C338.296 378.278 341.047 375.525 344.441 375.525Z" fill="#B7B9C8"/>
<path fill-rule="evenodd" clip-rule="evenodd" d="M442.113 354.477C445.508 354.477 448.261 357.229 448.261 360.625C448.261 364.02 445.508 366.773 442.113 366.773C438.717 366.773 435.965 364.02 435.965 360.625C435.965 357.229 438.717 354.477 442.113 354.477Z" fill="#B7B9C8"/>
<path fill-rule="evenodd" clip-rule="evenodd" d="M387.913 450.978C391.308 450.978 394.061 453.729 394.061 457.123C394.061 460.516 391.308 463.268 387.913 463.268C384.517 463.268 381.765 460.516 381.765 457.123C381.765 453.729 384.517 450.978 387.913 450.978Z" fill="#B7B9C8"/>
<path fill-rule="evenodd" clip-rule="evenodd" d="M399.953 389.543C405.701 389.543 410.362 394.203 410.362 399.952C410.362 405.7 405.701 410.361 399.953 410.361C394.204 410.361 389.544 405.7 389.544 399.952C389.544 394.203 394.204 389.543 399.953 389.543Z" fill="#B7B9C8"/>
</g>
<circle cx="400" cy="400" r="97.5" stroke="black" stroke-width="5"/>
<defs>
<clipPath id="clip0_1382_2739">
<rect width="500" height="500" rx="250" fill="white"/>
</clipPath>
<clipPath id="clip1_1382_2739">
<rect width="500" height="500" fill="white"/>
</clipPath>
<clipPath id="clip2_1382_2739">
<rect width="200" height="200" fill="white" transform="translate(300 300)"/>
</clipPath>
</defs>
</svg>
