<svg width="500" height="500" viewBox="0 0 500 500" fill="none" xmlns="http://www.w3.org/2000/svg">
<g clip-path="url(#clip0_1154_1472)">
<mask id="mask0_1154_1472" style="mask-type:alpha" maskUnits="userSpaceOnUse" x="0" y="0" width="500" height="500">
<rect width="500" height="500" fill="#D9D9D9"/>
</mask>
<g mask="url(#mask0_1154_1472)">
<g clip-path="url(#clip1_1154_1472)">
<path d="M250 500C388.071 500 500 388.071 500 250C500 111.929 388.071 0 250 0C111.929 0 0 111.929 0 250C0 388.071 111.929 500 250 500Z" fill="white"/>
<path d="M249.968 68L247.52 76.2952V316.98L249.968 319.416L361.932 253.376L249.968 68Z" fill="#343434"/>
<path d="M249.968 68L138 253.376L249.968 319.416V202.594V68Z" fill="#8C8C8C"/>
<path d="M249.968 340.568L248.588 342.246V427.982L249.968 432L362 274.564L249.968 340.568Z" fill="#3C3C3B"/>
<path d="M249.968 432V340.568L138 274.564L249.968 432Z" fill="#8C8C8C"/>
<path d="M249.968 319.416L361.932 253.376L249.968 202.594V319.416Z" fill="#141414"/>
<path d="M138 253.376L249.968 319.416V202.594L138 253.376Z" fill="#393939"/>
</g>
</g>
</g>
<g clip-path="url(#clip2_1154_1472)">
<path d="M399.7 499.5C454.818 499.5 499.5 454.818 499.5 399.7C499.5 344.582 454.818 299.899 399.7 299.899C344.582 299.899 299.899 344.582 299.899 399.7C299.899 454.818 344.582 499.5 399.7 499.5Z" fill="white"/>
<path d="M408.716 387.451L456.071 340.097L438.105 322.134L399.734 360.505L361.363 322.134L343.398 340.097L390.752 387.451C393.232 389.931 396.483 391.172 399.734 391.172C402.985 391.172 406.235 389.932 408.716 387.451ZM477.267 438.038L438.896 399.667L477.267 361.295L459.303 343.332L411.95 390.686C406.99 395.646 406.99 403.689 411.95 408.649L459.303 456.003L477.267 438.038ZM399.668 438.894L438.039 477.265L456.003 459.301L408.65 411.948C403.688 406.987 395.647 406.987 390.685 411.948L343.332 459.301L361.297 477.265L399.668 438.894ZM387.452 408.714C389.835 406.331 391.173 403.101 391.173 399.733C391.173 396.364 389.835 393.133 387.452 390.75L340.099 343.397L322.135 361.362L360.506 399.733L322.135 438.104L340.099 456.068L387.452 408.714Z" fill="black"/>
</g>
<circle cx="400" cy="400" r="97.5" stroke="black" stroke-width="5"/>
<circle cx="100" cy="400" r="97.5" fill="black" stroke="black" stroke-width="5"/>
<path d="M22.8823 362.445V436.255C22.8823 440.968 25.4003 445.326 29.4792 447.674L93.4016 484.587C97.4802 486.936 102.502 486.936 106.582 484.587L170.504 447.674C174.583 445.326 177.1 440.968 177.1 436.255V362.445C177.1 357.732 174.583 353.374 170.504 351.026L106.582 314.113C102.502 311.764 97.4802 311.764 93.4016 314.113L29.4638 351.026C25.3849 353.374 22.8823 357.732 22.8823 362.445Z" fill="#213147"/>
<path d="M113.937 413.667L104.821 438.666C104.574 439.361 104.574 440.119 104.821 440.814L120.503 483.83L138.642 473.354L116.871 413.667C116.376 412.292 114.43 412.292 113.935 413.667H113.937Z" fill="#12AAFF"/>
<path d="M132.217 371.623C131.722 370.248 129.775 370.248 129.281 371.623L120.164 396.622C119.918 397.317 119.918 398.075 120.164 398.771L145.859 469.197L163.998 458.721L132.215 371.623H132.217Z" fill="#12AAFF"/>
<path d="M99.9844 316.879C100.433 316.879 100.882 317.002 101.282 317.22L170.458 357.161C171.26 357.625 171.755 358.489 171.755 359.402V439.268C171.755 440.196 171.26 441.045 170.458 441.509L101.282 481.45C100.895 481.681 100.433 481.791 99.9844 481.791C99.5363 481.791 99.0877 481.667 98.6871 481.45L29.5116 441.539C28.7088 441.076 28.2141 440.211 28.2141 439.299V359.417C28.2141 358.489 28.7088 357.64 29.5116 357.176L98.6871 317.235C99.0896 317.004 99.5363 316.879 99.9844 316.879ZM99.9844 305.214C97.5285 305.214 95.0546 305.847 92.8465 307.129L23.6867 347.055C19.267 349.604 16.5488 354.318 16.5488 359.415V439.282C16.5488 444.381 19.2687 449.093 23.6867 451.642L92.8619 491.583C95.072 492.85 97.5285 493.499 99.9998 493.499C102.472 493.499 104.93 492.865 107.138 491.583L176.313 451.642C180.733 449.093 183.451 444.379 183.451 439.282V359.415C183.451 354.316 180.731 349.604 176.313 347.055L107.122 307.129C104.913 305.847 102.441 305.214 99.9844 305.214Z" fill="#9DCCED"/>
<path d="M54.2339 469.29L60.5997 451.861L73.4083 462.506L61.4333 473.446L54.2339 469.29Z" fill="#213147"/>
<path d="M94.1594 353.7H76.6229C75.3102 353.7 74.1356 354.518 73.6875 355.756L36.0947 458.814L54.2337 469.29L95.628 355.802C96.0151 354.782 95.2564 353.7 94.1594 353.7Z" fill="white"/>
<path d="M124.845 353.7H107.309C105.996 353.7 104.821 354.518 104.373 355.756L61.4502 473.433L79.5892 483.909L126.314 355.802C126.685 354.782 125.927 353.7 124.845 353.7Z" fill="white"/>
<circle cx="100" cy="400" r="97.5" stroke="black" stroke-width="5"/>
<defs>
<clipPath id="clip0_1154_1472">
<rect width="500" height="500" rx="250" fill="white"/>
</clipPath>
<clipPath id="clip1_1154_1472">
<rect width="500" height="500" fill="white"/>
</clipPath>
<clipPath id="clip2_1154_1472">
<rect width="200" height="200" fill="white" transform="translate(299.6 299.6)"/>
</clipPath>
</defs>
</svg>
