<svg width="500" height="500" viewBox="0 0 500 500" fill="none" xmlns="http://www.w3.org/2000/svg">
<g clip-path="url(#clip0_1154_1400)">
<mask id="mask0_1154_1400" style="mask-type:alpha" maskUnits="userSpaceOnUse" x="0" y="0" width="500" height="500">
<rect width="500" height="500" fill="#D9D9D9"/>
</mask>
<g mask="url(#mask0_1154_1400)">
<g clip-path="url(#clip1_1154_1400)">
<path d="M250 500C388.071 500 500 388.071 500 250C500 111.929 388.071 0 250 0C111.929 0 0 111.929 0 250C0 388.071 111.929 500 250 500Z" fill="white"/>
<path d="M249.968 68L247.52 76.2952V316.98L249.968 319.416L361.932 253.376L249.968 68Z" fill="#343434"/>
<path d="M249.968 68L138 253.376L249.968 319.416V202.594V68Z" fill="#8C8C8C"/>
<path d="M249.968 340.568L248.588 342.246V427.982L249.968 432L362 274.564L249.968 340.568Z" fill="#3C3C3B"/>
<path d="M249.968 432V340.568L138 274.564L249.968 432Z" fill="#8C8C8C"/>
<path d="M249.968 319.416L361.932 253.376L249.968 202.594V319.416Z" fill="#141414"/>
<path d="M138 253.376L249.968 319.416V202.594L138 253.376Z" fill="#393939"/>
</g>
</g>
</g>
<g clip-path="url(#clip2_1154_1400)">
<path d="M399.7 499.5C454.818 499.5 499.5 454.818 499.5 399.7C499.5 344.582 454.818 299.899 399.7 299.899C344.582 299.899 299.899 344.582 299.899 399.7C299.899 454.818 344.582 499.5 399.7 499.5Z" fill="white"/>
<path d="M408.715 387.451L456.071 340.097L438.105 322.134L399.734 360.505L361.362 322.134L343.398 340.097L390.752 387.451C393.232 389.931 396.483 391.172 399.734 391.172C402.984 391.172 406.235 389.932 408.715 387.451ZM477.267 438.038L438.896 399.667L477.267 361.295L459.303 343.332L411.95 390.686C406.99 395.646 406.99 403.689 411.95 408.649L459.303 456.003L477.267 438.038ZM399.668 438.894L438.039 477.265L456.002 459.301L408.649 411.948C403.688 406.987 395.647 406.987 390.685 411.948L343.332 459.301L361.297 477.265L399.668 438.894ZM387.452 408.714C389.835 406.331 391.173 403.101 391.173 399.733C391.173 396.364 389.835 393.133 387.452 390.75L340.099 343.397L322.135 361.362L360.506 399.733L322.135 438.104L340.099 456.068L387.452 408.714Z" fill="black"/>
</g>
<circle cx="400" cy="400" r="97.5" stroke="black" stroke-width="5"/>
<g clip-path="url(#clip3_1154_1400)">
<path d="M100.081 300.16C155.224 300.16 199.92 344.848 199.92 399.98C199.92 455.113 155.224 499.761 100.12 499.761C44.976 499.761 0.319392 455.074 0.319392 399.98C0.280116 344.848 44.976 300.16 100.081 300.16Z" fill="#8247E5"/>
<mask id="mask1_1154_1400" style="mask-type:luminance" maskUnits="userSpaceOnUse" x="33" y="343" width="132" height="115">
<path d="M164.807 343.324H33.9789V457.971H164.807V343.324Z" fill="white"/>
</mask>
<g mask="url(#mask1_1154_1400)">
<path d="M132.797 378.24C130.402 376.866 127.338 376.866 124.628 378.24L105.54 389.552L92.5788 396.739L73.8439 408.012C71.4483 409.387 68.3848 409.387 65.6746 408.012L51.0247 399.096C48.6287 397.722 46.9401 394.972 46.9401 391.909V374.784C46.9401 372.035 48.3146 369.325 51.0247 367.597L65.6746 359.034C68.0706 357.66 71.1341 357.66 73.8439 359.034L88.4942 367.95C90.8898 369.325 92.5788 372.074 92.5788 375.138V386.449L105.54 378.908V367.282C105.54 364.533 104.165 361.823 101.455 360.095L74.1976 343.992C71.8016 342.617 68.7381 342.617 66.0283 343.992L38.1029 360.448C35.3928 361.823 34.0182 364.573 34.0182 367.282V399.45C34.0182 402.199 35.3928 404.909 38.1029 406.637L65.7138 422.74C68.1098 424.115 71.1732 424.115 73.8834 422.74L92.6179 411.782L105.579 404.241L124.314 393.283C126.71 391.909 129.773 391.909 132.483 393.283L147.133 401.846C149.529 403.22 151.218 405.969 151.218 409.033V426.157C151.218 428.907 149.843 431.617 147.133 433.345L132.837 441.907C130.441 443.282 127.377 443.282 124.667 441.907L109.978 433.345C107.582 431.97 105.893 429.221 105.893 426.157V415.199L92.9321 422.74V434.052C92.9321 436.801 94.307 439.511 97.0168 441.239L124.628 457.343C127.024 458.717 130.087 458.717 132.797 457.343L160.408 441.239C162.804 439.865 164.493 437.116 164.493 434.052V401.531C164.493 398.782 163.119 396.072 160.408 394.344L132.797 378.24Z" fill="white"/>
</g>
</g>
<circle cx="100" cy="400" r="97.5" stroke="black" stroke-width="5"/>
<defs>
<clipPath id="clip0_1154_1400">
<rect width="500" height="500" rx="250" fill="white"/>
</clipPath>
<clipPath id="clip1_1154_1400">
<rect width="500" height="500" fill="white"/>
</clipPath>
<clipPath id="clip2_1154_1400">
<rect width="200" height="200" fill="white" transform="translate(299.6 299.6)"/>
</clipPath>
<clipPath id="clip3_1154_1400">
<rect width="200" height="200" fill="white" transform="translate(0 300)"/>
</clipPath>
</defs>
</svg>
