<svg width="500" height="500" viewBox="0 0 500 500" fill="none" xmlns="http://www.w3.org/2000/svg">
<g clip-path="url(#clip0_1045_1293)">
<mask id="mask0_1045_1293" style="mask-type:alpha" maskUnits="userSpaceOnUse" x="0" y="0" width="500" height="500">
<rect width="500" height="500" fill="#D9D9D9"/>
</mask>
<g mask="url(#mask0_1045_1293)">
<g clip-path="url(#clip1_1045_1293)">
<path d="M250 500C388.071 500 500 388.071 500 250C500 111.929 388.071 0 250 0C111.929 0 0 111.929 0 250C0 388.071 111.929 500 250 500Z" fill="white"/>
<path d="M249.968 68L247.52 76.2952V316.98L249.968 319.416L361.932 253.376L249.968 68Z" fill="#343434"/>
<path d="M249.968 68L138 253.376L249.968 319.416V202.594V68Z" fill="#8C8C8C"/>
<path d="M249.968 340.568L248.588 342.246V427.982L249.968 432L362 274.564L249.968 340.568Z" fill="#3C3C3B"/>
<path d="M249.968 432V340.568L138 274.564L249.968 432Z" fill="#8C8C8C"/>
<path d="M249.968 319.416L361.932 253.376L249.968 202.594V319.416Z" fill="#141414"/>
<path d="M138 253.376L249.968 319.416V202.594L138 253.376Z" fill="#393939"/>
</g>
</g>
</g>
<g clip-path="url(#clip2_1045_1293)">
<path d="M500 400C500 344.772 455.228 300 400 300C344.772 300 300 344.772 300 400C300 455.228 344.772 500 400 500C455.228 500 500 455.228 500 400Z" fill="#120901"/>
<path d="M458.729 396.78C457.045 396.78 455.361 396.99 453.887 397.833C451.993 399.096 450.519 402.043 450.519 404.78C450.519 407.095 452.624 410.043 454.94 411.306C461.466 414.674 468.413 407.095 465.044 400.78C463.992 398.464 461.255 396.99 458.729 396.78Z" fill="#FF8500"/>
<path d="M405.996 351.731C408.311 352.152 411.68 360.151 412.311 366.888C412.522 368.361 412.311 371.52 412.311 373.835C412.101 377.414 411.68 378.466 410.417 380.151C407.68 384.151 402.627 386.677 396.101 387.098C394.207 387.308 391.049 387.519 389.365 387.519C386.628 387.308 386.417 387.308 386.839 386.256C387.049 385.835 387.681 384.361 388.102 383.098C390.838 374.677 396.943 361.204 400.101 356.994C402.206 353.836 404.732 351.52 405.996 351.731ZM403.891 333.416C402.838 333.416 401.575 333.626 399.68 334.258C396.943 335.1 394.417 336.573 392.101 338.468C388.733 340.994 388.312 341.205 388.102 340.152C387.891 338.468 385.154 336.152 382.628 335.942C380.102 335.521 376.944 336.784 375.681 338.679C375.049 339.521 373.366 342.257 371.681 344.994C368.734 350.047 367.681 353.625 368.734 355.731C369.366 356.994 369.155 358.467 367.26 367.52C363.892 383.94 358.418 417.833 358.418 424.36C358.208 439.096 358.418 452.99 358.629 455.727C359.261 459.937 360.734 462.885 363.471 464.779C366.207 466.674 367.681 467.095 370.629 466.253C373.576 465.621 375.049 464.569 376.734 462.253C378.628 459.516 379.049 456.569 379.049 443.727C378.839 428.149 380.944 403.518 382.207 402.045C382.628 401.834 385.365 401.623 388.522 402.045C400.312 403.097 409.996 400.992 417.364 395.518C425.364 389.624 428.732 382.888 429.363 371.52C429.995 356.573 425.153 343.31 416.522 336.573C413.785 334.679 412.943 334.468 408.732 333.837C406.627 333.416 405.154 333.205 403.891 333.416Z" fill="white"/>
</g>
<circle cx="400" cy="400" r="97.5" stroke="black" stroke-width="5"/>
<defs>
<clipPath id="clip0_1045_1293">
<rect width="500" height="500" rx="250" fill="white"/>
</clipPath>
<clipPath id="clip1_1045_1293">
<rect width="500" height="500" fill="white"/>
</clipPath>
<clipPath id="clip2_1045_1293">
<rect width="200" height="200" fill="white" transform="translate(300 300)"/>
</clipPath>
</defs>
</svg>
