<svg width="500" height="500" viewBox="0 0 500 500" fill="none" xmlns="http://www.w3.org/2000/svg">
<g clip-path="url(#clip0_1268_2357)">
<mask id="mask0_1268_2357" style="mask-type:alpha" maskUnits="userSpaceOnUse" x="0" y="0" width="500" height="500">
<rect width="500" height="500" fill="#D9D9D9"/>
</mask>
<g mask="url(#mask0_1268_2357)">
<g clip-path="url(#clip1_1268_2357)">
<mask id="mask1_1268_2357" style="mask-type:luminance" maskUnits="userSpaceOnUse" x="0" y="0" width="500" height="500">
<path d="M500 0H0V500H500V0Z" fill="white"/>
</mask>
<g mask="url(#mask1_1268_2357)">
<path d="M500 250C500 111.929 388.072 0 250 0C111.929 0 0 111.929 0 250C0 388.072 111.929 500 250 500C388.072 500 500 388.072 500 250Z" fill="#F6F7FC"/>
<path fill-rule="evenodd" clip-rule="evenodd" d="M343.88 223.068C343.88 275.826 301.186 318.598 248.518 318.598C195.852 318.598 153.157 275.826 153.157 223.068C153.157 142.135 246.162 41.668 248.518 41.668C250.876 41.668 343.88 142.135 343.88 223.068ZM305.298 223.076C305.298 254.496 279.872 279.964 248.508 279.964C217.146 279.964 191.72 254.496 191.72 223.076C191.72 191.951 216.67 166.664 247.628 166.194V224.828C247.628 224.828 283.604 210.392 301.178 201.766C303.836 208.348 305.298 215.54 305.298 223.076Z" fill="url(#paint0_linear_1268_2357)"/>
<path d="M227.094 375.025L381.548 358.461C383.346 375.371 382.92 392.487 380.266 409.297L226.458 399.751C227.756 391.557 227.976 383.247 227.094 375.025Z" fill="url(#paint1_linear_1268_2357)"/>
<path d="M267.598 329.824L115.298 360.446C118.647 377.114 124.178 393.314 131.746 408.554L275.608 353.22C271.916 345.796 269.218 337.932 267.598 329.824Z" fill="url(#paint2_linear_1268_2357)"/>
</g>
</g>
</g>
</g>
<g clip-path="url(#clip2_1268_2357)">
<path d="M399.7 499.499C454.818 499.499 499.5 454.817 499.5 399.699C499.5 344.581 454.818 299.898 399.7 299.898C344.582 299.898 299.899 344.581 299.899 399.699C299.899 454.817 344.582 499.499 399.7 499.499Z" fill="white"/>
<path d="M408.715 387.452L456.071 340.098L438.105 322.135L399.734 360.506L361.362 322.135L343.398 340.098L390.752 387.452C393.232 389.932 396.483 391.173 399.734 391.173C402.984 391.173 406.235 389.933 408.715 387.452ZM477.267 438.039L438.896 399.668L477.267 361.296L459.303 343.333L411.95 390.687C406.99 395.647 406.99 403.69 411.95 408.65L459.303 456.004L477.267 438.039ZM399.668 438.895L438.039 477.266L456.002 459.302L408.649 411.949C403.688 406.988 395.647 406.988 390.685 411.949L343.332 459.302L361.297 477.266L399.668 438.895ZM387.452 408.715C389.835 406.332 391.173 403.102 391.173 399.733C391.173 396.365 389.835 393.133 387.452 390.751L340.099 343.398L322.135 361.363L360.506 399.733L322.135 438.105L340.099 456.069L387.452 408.715Z" fill="black"/>
</g>
<circle cx="400" cy="400" r="97.5" stroke="black" stroke-width="5"/>
<defs>
<linearGradient id="paint0_linear_1268_2357" x1="247.406" y1="47.4122" x2="249.556" y2="316.96" gradientUnits="userSpaceOnUse">
<stop stop-color="#FF05FF"/>
<stop offset="0.56" stop-color="#8323FF"/>
<stop offset="0.76" stop-color="#8F00FF"/>
<stop offset="0.985" stop-color="#4E68FF"/>
</linearGradient>
<linearGradient id="paint1_linear_1268_2357" x1="413.23" y1="354.167" x2="256.926" y2="398.603" gradientUnits="userSpaceOnUse">
<stop stop-color="#DFB6FF"/>
<stop offset="0.49109" stop-color="#8F00FF"/>
<stop offset="0.995" stop-color="#5263FF"/>
</linearGradient>
<linearGradient id="paint2_linear_1268_2357" x1="257.004" y1="354.16" x2="85.9024" y2="369.338" gradientUnits="userSpaceOnUse">
<stop offset="0.015" stop-color="#5066FF"/>
<stop offset="0.538411" stop-color="#8F00FF"/>
<stop offset="1" stop-color="#DFB6FF"/>
</linearGradient>
<clipPath id="clip0_1268_2357">
<rect width="500" height="500" rx="250" fill="white"/>
</clipPath>
<clipPath id="clip1_1268_2357">
<rect width="500" height="500" fill="white"/>
</clipPath>
<clipPath id="clip2_1268_2357">
<rect width="200" height="200" fill="white" transform="translate(299.6 299.6)"/>
</clipPath>
</defs>
</svg>
