<svg width="500" height="500" viewBox="0 0 500 500" fill="none" xmlns="http://www.w3.org/2000/svg">
<g clip-path="url(#clip0_1301_2367)">
<mask id="mask0_1301_2367" style="mask-type:alpha" maskUnits="userSpaceOnUse" x="0" y="0" width="500" height="500">
<rect width="500" height="500" fill="#D9D9D9"/>
</mask>
<g mask="url(#mask0_1301_2367)">
<g clip-path="url(#clip1_1301_2367)">
<path d="M-0.0505371 250.05C-0.0505371 219.241 24.899 194.292 55.707 194.292C86.5151 194.292 111.465 169.342 111.465 138.534C111.465 107.726 136.515 82.6758 167.323 82.6758C198.131 82.6758 223.081 107.625 223.081 138.433C223.081 169.241 198.131 194.191 167.323 194.191C136.515 194.191 111.566 219.14 111.566 249.949C111.566 280.757 136.515 305.706 167.323 305.706C198.131 305.706 223.081 330.656 223.081 361.464C223.081 392.272 198.131 417.221 167.323 417.221C136.515 417.221 111.566 392.272 111.566 361.464C111.566 330.656 86.6161 305.706 55.808 305.706C25 305.706 -0.0505371 280.858 -0.0505371 250.05Z" fill="black"/>
<path d="M500.05 250.05C500.05 280.858 475.101 305.807 444.293 305.807C413.485 305.807 388.535 330.757 388.535 361.565C388.535 392.373 363.586 417.322 332.778 417.322C301.97 417.322 277.02 392.373 277.02 361.565C277.02 330.757 301.97 305.807 332.778 305.807C363.586 305.807 388.535 280.858 388.535 250.05C388.535 219.241 363.586 194.292 332.778 194.292C301.97 194.292 277.02 169.342 277.02 138.534C277.02 107.726 301.869 82.6758 332.677 82.6758C363.485 82.6758 388.434 107.625 388.434 138.433C388.434 169.241 413.384 194.191 444.192 194.191C475.101 194.292 500.05 219.241 500.05 250.05Z" fill="black"/>
<path d="M304.798 250.051C304.798 279.95 280.556 304.293 250.556 304.293C220.556 304.293 196.313 280.051 196.313 250.051C196.313 220.152 220.556 195.809 250.556 195.809C280.455 195.809 304.798 220.051 304.798 250.051Z" fill="black"/>
</g>
</g>
</g>
<path d="M100 500C155.228 500 200 455.228 200 400C200 344.772 155.228 300 100 300C44.7715 300 0 344.772 0 400C0 455.228 44.7715 500 100 500Z" fill="white"/>
<g clip-path="url(#clip2_1301_2367)">
<path d="M-0.0201416 400.02C-0.0201416 387.697 9.95966 377.717 22.2829 377.717C34.6061 377.717 44.5859 367.737 44.5859 355.414C44.5859 343.091 54.6061 333.07 66.9294 333.07C79.2526 333.07 89.2324 343.05 89.2324 355.373C89.2324 367.697 79.2526 377.676 66.9294 377.676C54.6061 377.676 44.6263 387.656 44.6263 399.979C44.6263 412.303 54.6061 422.282 66.9294 422.282C79.2526 422.282 89.2324 432.262 89.2324 444.585C89.2324 456.909 79.2526 466.888 66.9294 466.888C54.6061 466.888 44.6263 456.909 44.6263 444.585C44.6263 432.262 34.6465 422.282 22.3233 422.282C10.0001 422.282 -0.0201416 412.343 -0.0201416 400.02Z" fill="black"/>
<path d="M200.02 400.02C200.02 412.343 190.04 422.323 177.717 422.323C165.394 422.323 155.414 432.303 155.414 444.626C155.414 456.949 145.434 466.929 133.111 466.929C120.788 466.929 110.808 456.949 110.808 444.626C110.808 432.303 120.788 422.323 133.111 422.323C145.434 422.323 155.414 412.343 155.414 400.02C155.414 387.697 145.434 377.717 133.111 377.717C120.788 377.717 110.808 367.737 110.808 355.414C110.808 343.091 120.748 333.07 133.071 333.07C145.394 333.07 155.374 343.05 155.374 355.373C155.374 367.697 165.354 377.676 177.677 377.676C190.04 377.717 200.02 387.697 200.02 400.02Z" fill="black"/>
<path d="M121.919 400.021C121.919 411.981 112.222 421.718 100.222 421.718C88.2222 421.718 78.5253 412.021 78.5253 400.021C78.5253 388.062 88.2222 378.324 100.222 378.324C112.182 378.324 121.919 388.021 121.919 400.021Z" fill="black"/>
</g>
<circle cx="100" cy="400" r="97.5" stroke="black" stroke-width="5"/>
<defs>
<clipPath id="clip0_1301_2367">
<rect width="500" height="500" rx="250" fill="white"/>
</clipPath>
<clipPath id="clip1_1301_2367">
<rect width="500" height="500" fill="white"/>
</clipPath>
<clipPath id="clip2_1301_2367">
<rect width="200" height="200" fill="white" transform="translate(0 300)"/>
</clipPath>
</defs>
</svg>
