<svg width="500" height="501" viewBox="0 0 500 501" fill="none" xmlns="http://www.w3.org/2000/svg">
<path fill-rule="evenodd" clip-rule="evenodd" d="M250 500.999C112.5 500.999 0 388.499 0 249.749C1.25 112.249 112.5 -0.251402 251.25 0.998598C388.75 2.2486 500 113.499 500 253.499C498.75 389.749 387.5 500.999 250 500.999Z" fill="#0090FF"/>
<path fill-rule="evenodd" clip-rule="evenodd" d="M273.75 221L266.25 261L337.5 271L332.5 289.75L262.5 279.75C257.5 296 255 313.5 248.75 328.5C242.5 346 236.25 363.5 228.75 379.75C218.75 401 201.25 416 177.5 419.75C163.75 422.25 148.75 421 137.5 412.25C133.75 409.75 130 404.75 130 401C130 396 132.5 389.75 136.25 387.25C138.75 386 145 387.25 148.75 388.5C152.5 392.25 156.25 397.25 158.75 402.25C166.25 412.25 176.25 413.5 186.25 406C197.5 396 203.75 382.25 207.5 368.5C215 338.5 222.5 309.75 228.75 279.75V274.75L162.5 264.75L165 246L233.75 256L242.5 217.25L171.25 206L173.75 186L247.5 196C250 188.5 251.25 182.25 253.75 176C260 153.5 266.25 131 281.25 111C296.25 90.9999 313.75 78.4999 340 79.7499C351.25 79.7499 362.5 83.4999 370 92.2499C371.25 93.4999 373.75 95.9999 373.75 98.4999C373.75 103.5 373.75 109.75 370 113.5C365 117.25 358.75 116 353.75 111C350 107.25 347.5 103.5 343.75 99.7499C336.25 89.7499 325 88.4999 316.25 97.2499C310 103.5 303.75 112.25 300 121C291.25 147.25 285 174.75 276.25 202.25L345 212.25L340 231L273.75 221Z" fill="white"/>
<g clip-path="url(#clip0_1280_2191)">
<path d="M399.7 500.503C454.818 500.503 499.5 455.821 499.5 400.703C499.5 345.585 454.818 300.902 399.7 300.902C344.582 300.902 299.899 345.585 299.899 400.703C299.899 455.821 344.582 500.503 399.7 500.503Z" fill="white"/>
<path d="M408.715 388.454L456.071 341.1L438.105 323.137L399.734 361.507L361.362 323.137L343.398 341.1L390.752 388.454C393.232 390.934 396.483 392.175 399.734 392.175C402.984 392.175 406.235 390.935 408.715 388.454ZM477.267 439.041L438.896 400.67L477.267 362.298L459.303 344.335L411.95 391.689C406.99 396.649 406.99 404.692 411.95 409.652L459.303 457.006L477.267 439.041ZM399.668 439.897L438.039 478.268L456.002 460.304L408.649 412.951C403.688 407.99 395.647 407.99 390.685 412.951L343.332 460.304L361.297 478.268L399.668 439.897ZM387.452 409.717C389.835 407.334 391.173 404.104 391.173 400.735C391.173 397.367 389.835 394.135 387.452 391.753L340.099 344.4L322.135 362.365L360.506 400.735L322.135 439.107L340.099 457.071L387.452 409.717Z" fill="black"/>
</g>
<circle cx="400" cy="401" r="97.5" stroke="black" stroke-width="5"/>
<defs>
<clipPath id="clip0_1280_2191">
<rect width="200" height="200" fill="white" transform="translate(299.6 300.602)"/>
</clipPath>
</defs>
</svg>
