<svg width="500" height="500" viewBox="0 0 500 500" fill="none" xmlns="http://www.w3.org/2000/svg">
<g clip-path="url(#clip0_1045_1325)">
<mask id="mask0_1045_1325" style="mask-type:alpha" maskUnits="userSpaceOnUse" x="0" y="0" width="500" height="500">
<rect width="500" height="500" fill="#D9D9D9"/>
</mask>
<g mask="url(#mask0_1045_1325)">
<path d="M250 500C388.071 500 500 388.071 500 250C500 111.929 388.071 0 250 0C111.929 0 0 111.929 0 250C0 388.071 111.929 500 250 500Z" fill="black" stroke="black" stroke-width="1.2373" stroke-miterlimit="11.3386"/>
<path d="M112.087 110.945C101.546 122.013 92.8496 131.324 92.7617 131.5C92.6739 131.764 102.161 141.075 113.844 152.143C125.527 163.299 135.717 173.05 136.419 173.665L137.737 174.894L135.365 178.847C114.547 213.282 110.242 254.743 123.331 292.867C125.791 300.07 130.007 309.293 133.609 315.355C135.365 318.341 136.156 320.274 135.98 320.625C135.805 320.977 125.176 332.22 112.351 345.66C99.5256 359.012 89.0723 370.168 88.8966 370.344C88.8088 370.608 124.736 405.305 128.162 408.116L129.48 409.258L149.772 388.088C160.928 376.405 171.381 365.425 172.962 363.756L175.949 360.769L178.76 362.526C193.078 371.662 209.856 377.986 228.391 381.324C237.702 382.993 255.446 383.433 265.372 382.203C284.522 380.007 303.496 373.594 319.044 364.195L323.085 361.735L327.389 365.952C336.788 375.088 371.925 408.468 372.277 408.643C372.628 408.819 411.191 368.499 411.103 367.972C411.015 367.709 384.575 342.322 368.412 327.126L363.053 322.031L365.513 317.99C386.156 283.643 390.46 242.006 377.108 203.619C375.176 197.997 369.29 185.348 365.864 179.55L364.195 176.651L386.771 153.022C399.157 140.109 409.259 129.304 409.171 129.04C408.819 128.162 369.29 90.829 368.763 90.829C368.412 90.829 358.486 100.931 346.627 113.405C334.768 125.79 324.93 135.98 324.666 136.068C324.49 136.156 323.348 135.629 322.294 134.838C319.308 132.818 311.753 128.689 307.537 126.757C294.712 120.871 282.765 117.27 268.886 115.249C261.683 114.195 240.074 114.019 233.398 114.986C217.41 117.27 204.322 121.222 190.97 127.899C187.105 129.743 182.625 132.203 180.868 133.257L177.705 135.189L174.104 131.676C172.171 129.743 163.387 121.486 154.691 113.141C145.994 104.884 137.122 96.4509 135.014 94.3427L131.149 90.5654L112.087 110.945ZM259.575 168.218C273.542 169.887 286.015 174.631 297.523 182.712C303.408 186.841 312.192 195.625 316.321 201.511C339.775 234.715 335.295 279.866 305.78 307.537C280.569 331.078 244.114 336.349 213.457 320.713C191.321 309.381 175.685 288.65 170.678 263.791C169.097 255.885 169.097 241.128 170.678 233.31C172.171 225.579 174.192 220.045 177.969 212.315C193.078 181.922 225.843 164.178 259.575 168.218Z" fill="white"/>
</g>
</g>
<g clip-path="url(#clip1_1045_1325)">
<path d="M500 400C500 344.772 455.228 300 400 300C344.772 300 300 344.772 300 400C300 455.228 344.772 500 400 500C455.228 500 500 455.228 500 400Z" fill="#120901"/>
<path d="M458.729 396.781C457.045 396.781 455.361 396.991 453.887 397.834C451.993 399.097 450.519 402.044 450.519 404.781C450.519 407.096 452.624 410.044 454.94 411.307C461.466 414.675 468.413 407.096 465.044 400.781C463.992 398.465 461.255 396.991 458.729 396.781Z" fill="#FF8500"/>
<path d="M405.996 351.73C408.311 352.151 411.68 360.15 412.311 366.887C412.522 368.36 412.311 371.519 412.311 373.834C412.101 377.413 411.68 378.465 410.417 380.15C407.68 384.15 402.627 386.676 396.101 387.097C394.207 387.307 391.049 387.518 389.365 387.518C386.628 387.307 386.417 387.307 386.839 386.255C387.049 385.834 387.681 384.36 388.102 383.097C390.838 374.676 396.943 361.203 400.101 356.993C402.206 353.835 404.732 351.519 405.996 351.73ZM403.891 333.415C402.838 333.415 401.575 333.625 399.68 334.257C396.943 335.099 394.417 336.572 392.101 338.467C388.733 340.993 388.312 341.204 388.102 340.151C387.891 338.467 385.154 336.151 382.628 335.941C380.102 335.52 376.944 336.783 375.681 338.678C375.049 339.52 373.366 342.256 371.681 344.993C368.734 350.046 367.681 353.624 368.734 355.73C369.366 356.993 369.155 358.466 367.26 367.519C363.892 383.939 358.418 417.832 358.418 424.359C358.208 439.095 358.418 452.989 358.629 455.726C359.261 459.936 360.734 462.884 363.471 464.778C366.207 466.673 367.681 467.094 370.629 466.252C373.576 465.62 375.049 464.568 376.734 462.252C378.628 459.515 379.049 456.568 379.049 443.726C378.839 428.148 380.944 403.517 382.207 402.044C382.628 401.833 385.365 401.622 388.522 402.044C400.312 403.096 409.996 400.991 417.364 395.517C425.364 389.623 428.732 382.887 429.363 371.519C429.995 356.572 425.153 343.309 416.522 336.572C413.785 334.678 412.943 334.467 408.732 333.836C406.627 333.415 405.154 333.204 403.891 333.415Z" fill="white"/>
</g>
<circle cx="400" cy="400" r="97.5" stroke="black" stroke-width="5"/>
<defs>
<clipPath id="clip0_1045_1325">
<rect width="500" height="500" rx="250" fill="white"/>
</clipPath>
<clipPath id="clip1_1045_1325">
<rect width="200" height="200" fill="white" transform="translate(300 300)"/>
</clipPath>
</defs>
</svg>
