<svg width="500" height="500" viewBox="0 0 500 500" fill="none" xmlns="http://www.w3.org/2000/svg">
<g clip-path="url(#clip0_1045_1309)">
<mask id="mask0_1045_1309" style="mask-type:alpha" maskUnits="userSpaceOnUse" x="0" y="0" width="500" height="500">
<rect width="500" height="500" fill="#D9D9D9"/>
</mask>
<g mask="url(#mask0_1045_1309)">
<g clip-path="url(#clip1_1045_1309)">
<path d="M250 500C216.256 500 183.518 493.385 152.685 480.35C122.91 467.756 96.1864 449.728 73.2202 426.78C50.2716 403.831 32.2444 377.09 19.65 347.315C6.61469 316.482 0 283.744 0 250C0 216.256 6.61469 183.518 19.65 152.685C32.2444 122.91 50.2716 96.1864 73.2202 73.2202C96.1864 50.2716 122.91 32.2444 152.685 19.65C183.518 6.61469 216.256 0 250 0C283.744 0 316.482 6.61469 347.315 19.65C377.09 32.2444 403.814 50.2716 426.78 73.2202C449.728 96.1688 467.756 122.91 480.35 152.685C493.385 183.518 500 216.256 500 250C500 283.744 493.385 316.482 480.35 347.315C467.756 377.09 449.728 403.814 426.78 426.78C403.831 449.728 377.09 467.756 347.315 480.35C316.482 493.403 283.744 500 250 500Z" fill="white"/>
<path d="M250 486.753C380.755 486.753 486.753 380.755 486.753 250C486.753 119.245 380.755 13.2471 250 13.2471C119.245 13.2471 13.2471 119.245 13.2471 250C13.2471 380.755 119.245 486.753 250 486.753Z" fill="black"/>
<path d="M346.151 307.451C346.151 285.561 337.049 267.587 319.11 253.987C305.846 243.933 287.307 235.695 257.232 226.452C203.098 209.818 203.098 200.24 203.098 192.532C203.098 181.878 218.867 167.114 248.448 167.114C265.964 167.114 295.35 171.524 295.35 201.087H344.599C344.599 187.152 341.477 174.152 335.568 162.81L375.079 123.298L340.26 88.4785L299.99 128.766C285.384 121.605 267.904 117.883 248.465 117.883C230.35 117.883 213.699 121.376 199.34 128.096L159.74 88.4962L124.921 123.316L162.492 160.887C156.883 170.695 153.867 181.525 153.867 192.55C153.867 214.44 162.968 232.414 180.907 246.014C194.172 256.068 212.658 264.288 242.733 273.531C296.867 290.147 296.903 299.761 296.903 307.469C296.903 318.123 281.133 332.887 251.552 332.887C234.037 332.887 204.65 328.477 204.65 298.914H155.401C155.401 312.902 158.541 325.937 164.485 337.314L124.903 376.897L159.723 411.716L200.134 371.305C214.722 378.431 232.149 382.135 251.535 382.135C269.597 382.135 286.196 378.661 300.519 371.993L340.26 411.734L375.079 376.914L337.437 339.272C343.1 329.394 346.151 318.546 346.151 307.451Z" fill="white"/>
</g>
</g>
</g>
<g clip-path="url(#clip2_1045_1309)">
<path d="M500 400C500 344.772 455.228 300 400 300C344.772 300 300 344.772 300 400C300 455.228 344.772 500 400 500C455.228 500 500 455.228 500 400Z" fill="#120901"/>
<path d="M458.729 396.78C457.045 396.78 455.361 396.99 453.887 397.833C451.993 399.096 450.519 402.043 450.519 404.78C450.519 407.095 452.624 410.043 454.94 411.306C461.466 414.674 468.413 407.095 465.044 400.78C463.992 398.464 461.255 396.99 458.729 396.78Z" fill="#FF8500"/>
<path d="M405.996 351.731C408.311 352.152 411.68 360.151 412.311 366.888C412.522 368.361 412.311 371.52 412.311 373.835C412.101 377.414 411.68 378.466 410.417 380.151C407.68 384.151 402.627 386.677 396.101 387.098C394.207 387.308 391.049 387.519 389.365 387.519C386.628 387.308 386.417 387.308 386.839 386.256C387.049 385.835 387.681 384.361 388.102 383.098C390.838 374.677 396.943 361.204 400.101 356.994C402.206 353.836 404.732 351.52 405.996 351.731ZM403.891 333.416C402.838 333.416 401.575 333.626 399.68 334.258C396.943 335.1 394.417 336.573 392.101 338.468C388.733 340.994 388.312 341.205 388.102 340.152C387.891 338.468 385.154 336.152 382.628 335.942C380.102 335.521 376.944 336.784 375.681 338.679C375.049 339.521 373.366 342.257 371.681 344.994C368.734 350.047 367.681 353.625 368.734 355.731C369.366 356.994 369.155 358.467 367.26 367.52C363.892 383.94 358.418 417.833 358.418 424.36C358.208 439.096 358.418 452.99 358.629 455.727C359.261 459.937 360.734 462.885 363.471 464.779C366.207 466.674 367.681 467.095 370.629 466.253C373.576 465.621 375.049 464.569 376.734 462.253C378.628 459.516 379.049 456.569 379.049 443.727C378.839 428.149 380.944 403.518 382.207 402.045C382.628 401.834 385.365 401.623 388.522 402.045C400.312 403.097 409.996 400.992 417.364 395.518C425.364 389.624 428.732 382.888 429.363 371.52C429.995 356.573 425.153 343.31 416.522 336.573C413.785 334.679 412.943 334.468 408.732 333.837C406.627 333.416 405.154 333.205 403.891 333.416Z" fill="white"/>
</g>
<circle cx="400" cy="400" r="97.5" stroke="black" stroke-width="5"/>
<defs>
<clipPath id="clip0_1045_1309">
<rect width="500" height="500" rx="250" fill="white"/>
</clipPath>
<clipPath id="clip1_1045_1309">
<rect width="500" height="500" fill="white"/>
</clipPath>
<clipPath id="clip2_1045_1309">
<rect width="200" height="200" fill="white" transform="translate(300 300)"/>
</clipPath>
</defs>
</svg>
