<svg xmlns="http://www.w3.org/2000/svg" width="800" height="800" fill="none" viewBox="0 0 800 800"><g clip-path="url(#clip0)"><g clip-path="url(#clip1)"><path fill="#390176" d="M399.89 761.335C599.45 761.335 761.225 599.56 761.225 400C761.225 200.44 599.45 38.665 399.89 38.665C200.33 38.665 38.5551 200.44 38.5551 400C38.5551 599.56 200.33 761.335 399.89 761.335Z"/><path fill="url(#paint0_radial)" d="M399.89 747.447C591.78 747.447 747.337 591.89 747.337 400C747.337 208.111 591.78 52.5532 399.89 52.5532C208 52.5532 52.443 208.111 52.443 400C52.443 591.89 208 747.447 399.89 747.447Z"/><path fill="url(#paint1_radial)" d="M52.443 400C52.443 591.888 208.003 747.447 399.89 747.447C591.777 747.447 747.337 591.888 747.337 400H52.443Z"/><g style="mix-blend-mode:multiply" opacity=".6"><path fill="#B2A8C1" d="M744.006 351.913C742.434 363.752 740.26 375.669 737.522 387.587C731.782 374.556 722.255 363.553 710.18 356.008C698.104 348.463 684.038 344.725 669.81 345.28C655.582 345.835 641.849 350.656 630.398 359.119C618.946 367.581 610.305 379.292 605.597 392.73C600.89 406.169 600.333 420.712 604 434.471C607.667 448.23 615.388 460.567 626.159 469.88C636.93 479.192 650.254 485.05 664.398 486.69C678.542 488.331 692.853 485.678 705.47 479.078C663.32 609.168 531.808 707.223 399.634 707.223C267.247 707.223 137.706 609.159 93.5327 478.327C106.124 485.267 120.526 488.217 134.832 486.788C149.137 485.359 162.671 479.617 173.641 470.324C184.61 461.031 192.498 448.625 196.258 434.749C200.019 420.872 199.476 406.181 194.7 392.621C189.925 379.06 181.142 367.271 169.516 358.813C157.89 350.356 143.969 345.63 129.597 345.261C115.225 344.893 101.08 348.899 89.0359 356.749C76.9917 364.6 67.6165 375.924 62.1522 389.222C59.3693 377.366 57.1518 365.51 55.5174 353.733C53.4729 369.071 52.4458 384.527 52.443 400C52.443 591.887 208.003 747.447 399.89 747.447C591.777 747.447 747.337 591.887 747.337 400C747.33 383.914 746.217 367.847 744.006 351.913V351.913Z"/></g><path fill="#390176" d="M37.0885 443.899C27.1937 443.899 17.7041 439.968 10.7074 432.971C3.71073 425.975 -0.219971 416.485 -0.219971 406.59C-0.219971 396.695 3.71073 387.206 10.7074 380.209C17.7041 373.212 27.1937 369.282 37.0885 369.282H762.691C767.591 369.282 772.442 370.247 776.969 372.122C781.495 373.997 785.608 376.745 789.073 380.209C792.537 383.674 795.285 387.786 797.16 392.313C799.035 396.839 800 401.691 800 406.59C800 411.49 799.035 416.341 797.16 420.868C795.285 425.394 792.537 429.507 789.073 432.971C785.608 436.436 781.495 439.184 776.969 441.059C772.442 442.934 767.591 443.899 762.691 443.899H37.0885Z"/><path fill="#455399" d="M767.586 378.063H32.2029C19.1461 378.063 8.56152 388.648 8.56152 401.705V411.476C8.56152 424.533 19.1461 435.117 32.2029 435.117H767.586C780.643 435.117 791.227 424.533 791.227 411.476V401.705C791.227 388.648 780.643 378.063 767.586 378.063Z"/><path fill="#fff" d="M8.6145 405.857H791.183C790.999 398.423 787.916 391.355 782.593 386.163C777.27 380.97 770.128 378.063 762.691 378.063H37.0884C29.6551 378.068 22.5177 380.977 17.1984 386.169C11.8791 391.361 8.79884 398.426 8.6145 405.857V405.857Z"/><g style="mix-blend-mode:multiply" opacity=".6"><path fill="#B2A8C1" d="M397.125 623.409C505.385 623.409 593.147 535.647 593.147 427.387C593.147 319.127 505.385 231.365 397.125 231.365C288.865 231.365 201.103 319.127 201.103 427.387C201.103 535.647 288.865 623.409 397.125 623.409Z"/></g><path fill="#390176" d="M399.89 596.022C508.15 596.022 595.912 508.26 595.912 400C595.912 291.74 508.15 203.978 399.89 203.978C291.63 203.978 203.868 291.74 203.868 400C203.868 508.26 291.63 596.022 399.89 596.022Z"/><path fill="#50CCC9" d="M399.89 589.679C504.647 589.679 589.569 504.757 589.569 400C589.569 295.243 504.647 210.321 399.89 210.321C295.133 210.321 210.211 295.243 210.211 400C210.211 504.757 295.133 589.679 399.89 589.679Z"/><g style="mix-blend-mode:multiply" opacity=".6"><path fill="#B2A8C1" d="M210.211 399.999C210.211 504.751 295.138 589.678 399.89 589.678C504.642 589.678 589.569 504.751 589.569 399.999C589.569 398.542 589.569 397.093 589.516 395.644H210.264C210.238 397.093 210.211 398.542 210.211 399.999Z"/></g><path fill="#390176" d="M399.89 565.242C491.151 565.242 565.132 491.26 565.132 400C565.132 308.739 491.151 234.757 399.89 234.757C308.629 234.757 234.648 308.739 234.648 400C234.648 491.26 308.629 565.242 399.89 565.242Z"/><path fill="#4A6899" d="M399.89 560.109C488.316 560.109 559.999 488.426 559.999 400C559.999 311.574 488.316 239.891 399.89 239.891C311.464 239.891 239.781 311.574 239.781 400C239.781 488.426 311.464 560.109 399.89 560.109Z"/><g style="mix-blend-mode:multiply" opacity=".6"><path fill="#B2A8C1" d="M399.89 246.711C487.167 246.711 558.091 316.557 559.911 403.41C559.911 402.27 559.999 401.14 559.999 400C559.999 357.536 543.131 316.812 513.104 286.786C483.078 256.759 442.354 239.891 399.89 239.891C357.426 239.891 316.702 256.759 286.676 286.786C256.649 316.812 239.781 357.536 239.781 400C239.781 401.14 239.843 402.27 239.869 403.41C241.689 316.557 312.604 246.711 399.89 246.711Z"/></g><path fill="#390176" d="M399.89 525.787C469.36 525.787 525.677 469.47 525.677 400C525.677 330.53 469.36 274.213 399.89 274.213C330.42 274.213 274.103 330.53 274.103 400C274.103 469.47 330.42 525.787 399.89 525.787Z"/><path fill="url(#paint2_linear)" d="M399.89 519.497C465.886 519.497 519.387 465.996 519.387 400C519.387 334.004 465.886 280.503 399.89 280.503C333.894 280.503 280.393 334.004 280.393 400C280.393 465.996 333.894 519.497 399.89 519.497Z"/><path fill="url(#paint3_linear)" d="M399.89 510.07C460.68 510.07 509.96 460.79 509.96 400C509.96 339.21 460.68 289.93 399.89 289.93C339.1 289.93 289.82 339.21 289.82 400C289.82 460.79 339.1 510.07 399.89 510.07Z"/><g opacity=".4"><path fill="url(#paint4_linear)" d="M399.89 477.047C442.442 477.047 476.937 442.552 476.937 400C476.937 357.449 442.442 322.954 399.89 322.954C357.338 322.954 322.844 357.449 322.844 400C322.844 442.552 357.338 477.047 399.89 477.047Z" opacity=".4"/></g><g style="mix-blend-mode:screen"><path style="mix-blend-mode:screen" fill="url(#paint5_linear)" d="M448.834 372.718C464.745 372.718 477.643 359.82 477.643 343.909C477.643 327.998 464.745 315.099 448.834 315.099C432.923 315.099 420.024 327.998 420.024 343.909C420.024 359.82 432.923 372.718 448.834 372.718Z"/></g><g style="mix-blend-mode:screen" opacity=".6"><path style="mix-blend-mode:screen" fill="url(#paint6_linear)" d="M339.329 479.918C347.726 479.918 354.533 473.111 354.533 464.714C354.533 456.316 347.726 449.509 339.329 449.509C330.932 449.509 324.125 456.316 324.125 464.714C324.125 473.111 330.932 479.918 339.329 479.918Z" opacity=".6"/></g><g style="mix-blend-mode:multiply"><g style="mix-blend-mode:multiply"><path fill="#85D0E4" d="M399.89 289.93C430.761 289.938 460.431 301.894 482.682 323.292C504.934 344.691 518.04 373.871 519.254 404.718C519.316 403.154 519.369 401.582 519.369 400C519.369 368.308 506.779 337.913 484.369 315.503C461.959 293.093 431.565 280.503 399.872 280.503C368.18 280.503 337.785 293.093 315.375 315.503C292.965 337.913 280.376 368.308 280.376 400C280.376 401.582 280.429 403.154 280.49 404.718C281.705 373.865 294.816 344.679 317.075 323.28C339.334 301.881 369.013 289.929 399.89 289.93Z"/></g></g><path fill="#390176" d="M127.784 477.541C166.969 477.541 198.735 445.775 198.735 406.59C198.735 367.405 166.969 335.64 127.784 335.64C88.5995 335.64 56.8339 367.405 56.8339 406.59C56.8339 445.775 88.5995 477.541 127.784 477.541Z"/><path fill="#fff" d="M127.784 467.903C161.646 467.903 189.096 440.453 189.096 406.591C189.096 372.729 161.646 345.279 127.784 345.279C93.9227 345.279 66.4723 372.729 66.4723 406.591C66.4723 440.453 93.9227 467.903 127.784 467.903Z"/><g style="mix-blend-mode:multiply" opacity=".6"><path fill="#B2A8C1" d="M127.785 451.365C112.963 451.364 98.6439 445.994 87.4771 436.249C76.3104 426.503 69.0524 413.042 67.0467 398.357C66.6749 401.098 66.486 403.86 66.4813 406.626C66.675 422.758 73.2194 438.164 84.6958 449.504C96.1722 460.843 111.656 467.202 127.789 467.202C143.922 467.202 159.406 460.843 170.882 449.504C182.359 438.164 188.903 422.758 189.097 406.626C189.089 403.86 188.897 401.098 188.522 398.357C186.517 413.042 179.259 426.503 168.092 436.249C156.925 445.994 142.606 451.364 127.785 451.365V451.365Z"/></g><path fill="#390176" d="M673.453 477.541C712.638 477.541 744.404 445.775 744.404 406.59C744.404 367.405 712.638 335.64 673.453 335.64C634.268 335.64 602.503 367.405 602.503 406.59C602.503 445.775 634.268 477.541 673.453 477.541Z"/><path fill="#fff" d="M673.453 467.903C707.315 467.903 734.765 440.453 734.765 406.591C734.765 372.729 707.315 345.279 673.453 345.279C639.592 345.279 612.141 372.729 612.141 406.591C612.141 440.453 639.592 467.903 673.453 467.903Z"/><g style="mix-blend-mode:multiply" opacity=".6"><path fill="#B2A8C1" d="M673.453 451.365C658.632 451.362 644.314 445.992 633.148 436.246C621.981 426.501 614.723 413.041 612.715 398.357C612.344 401.098 612.155 403.86 612.15 406.626C612.127 415.041 613.837 423.37 617.173 431.095C620.508 438.821 625.398 445.777 631.539 451.53C637.679 457.284 644.938 461.712 652.863 464.539C660.789 467.366 669.211 468.532 677.607 467.963C686.002 467.394 694.191 465.103 701.662 461.233C709.134 457.362 715.729 451.995 721.037 445.466C726.345 438.937 730.252 431.385 732.515 423.28C734.778 415.175 735.349 406.692 734.191 398.357C732.185 413.042 724.927 426.503 713.761 436.249C702.594 445.994 688.275 451.364 673.453 451.365Z"/></g><g style="mix-blend-mode:multiply" opacity=".6"><path fill="#B2A8C1" d="M200.113 307.467C191.623 306.327 175.739 300.832 164.775 276.784C161.488 269.601 157.372 268.267 154.562 267.896C147.609 266.969 137.997 271.015 128.703 274.964C118.102 279.425 108.145 283.631 99.0632 282.42C96.5557 282.127 94.1333 281.33 91.9412 280.077C89.7491 278.825 87.8325 277.143 86.306 275.132C80.8639 268.135 81.0053 259.76 86.7478 251.561C92.932 242.727 105.203 234.528 120.452 229.042C136.646 223.211 154.165 221.152 169.793 223.246C202.481 227.619 223.746 248.99 229.621 283.428C230.172 286.729 229.847 290.117 228.678 293.254C227.509 296.39 225.537 299.165 222.96 301.3C217.129 306.398 208.824 308.65 200.149 307.484L200.113 307.467Z"/></g><path fill="#390176" d="M200.493 299.286C192.003 298.155 176.119 292.66 165.155 268.603C161.868 261.421 157.751 260.095 154.942 259.716C147.998 258.788 138.386 262.843 129.083 266.783C118.482 271.2 108.525 275.459 99.4432 274.24C96.9379 273.946 94.5176 273.15 92.3272 271.899C90.1367 270.648 88.2211 268.968 86.6948 266.96C81.2527 259.954 81.3941 251.579 87.1366 243.38C93.3208 234.546 105.583 226.347 120.832 220.861C137.026 215.039 154.553 212.981 170.173 215.065C202.861 219.439 224.135 240.809 230.01 275.247C231.149 281.926 228.72 288.437 223.34 293.128C217.509 298.217 209.204 300.47 200.529 299.312L200.493 299.286Z"/><path fill="#7C9BD1" d="M169.493 267.172C153.785 232.814 107.916 287.041 90.5379 264.672C80.7227 252.039 95.1584 236.066 117.837 226.56C155.092 210.949 214.576 212.804 225.301 275.671C225.416 276.355 225.484 277.045 225.504 277.738C226.237 297.448 188.496 308.712 169.493 267.172Z"/><g style="mix-blend-mode:multiply" opacity=".6"><path fill="#B2A8C1" d="M169.493 267.172C153.785 232.814 107.916 287.041 90.5379 264.672C80.7227 252.038 95.1584 236.065 117.837 226.559C112.404 231.939 102.579 243.963 117.89 248.133C140.179 254.211 165.597 234.448 176.958 256.031C189.326 279.54 194.945 283.957 203.577 286.29C209.142 287.801 220.68 285.654 225.504 277.738C226.237 297.448 188.496 308.712 169.493 267.172Z"/></g><g style="mix-blend-mode:multiply" opacity=".6"><path fill="#B2A8C1" d="M599.649 307.467C608.139 306.327 624.024 300.832 634.987 276.784C638.274 269.601 642.391 268.267 645.2 267.896C652.153 266.969 661.765 271.015 671.059 274.964C681.661 279.425 691.617 283.631 700.699 282.42C703.206 282.126 705.628 281.328 707.82 280.076C710.012 278.824 711.929 277.142 713.456 275.132C718.898 268.135 718.757 259.76 713.015 251.561C706.83 242.727 694.559 234.528 679.311 229.042C663.117 223.211 645.598 221.152 629.969 223.246C597.281 227.619 576.008 248.99 570.141 283.428C569.59 286.729 569.915 290.117 571.084 293.254C572.253 296.39 574.225 299.165 576.803 301.3C582.634 306.398 590.938 308.65 599.614 307.484L599.649 307.467Z"/></g><path fill="#390176" d="M599.287 299.286C607.777 298.155 623.661 292.66 634.625 268.603C637.912 261.421 642.029 260.095 644.838 259.716C651.782 258.788 661.394 262.843 670.697 266.783C681.298 271.2 691.255 275.459 700.337 274.24C702.842 273.946 705.262 273.15 707.453 271.899C709.643 270.648 711.559 268.968 713.085 266.96C718.527 259.954 718.386 251.579 712.643 243.38C706.459 234.546 694.197 226.347 678.939 220.861C662.754 215.039 645.227 212.981 629.607 215.065C596.919 219.439 575.645 240.809 569.77 275.247C568.631 281.926 571.06 288.437 576.44 293.128C582.271 298.217 590.576 300.47 599.251 299.312L599.287 299.286Z"/><path fill="#7C9BD1" d="M630.278 267.172C645.995 232.814 691.864 287.041 709.242 264.672C719.057 252.038 704.622 236.065 681.943 226.559C644.705 210.94 585.204 212.804 574.479 275.671C574.364 276.354 574.296 277.045 574.276 277.738C573.534 297.448 611.284 308.712 630.278 267.172Z"/><g style="mix-blend-mode:multiply" opacity=".6"><path fill="#B2A8C1" d="M630.278 267.172C645.995 232.814 691.864 287.041 709.242 264.672C719.057 252.038 704.622 236.065 681.943 226.559C687.377 231.939 697.201 243.963 681.89 248.133C659.601 254.211 634.183 234.448 622.822 256.031C610.454 279.54 604.835 283.957 596.203 286.29C590.638 287.801 579.1 285.654 574.276 277.738C573.534 297.448 611.284 308.712 630.278 267.172Z"/></g><g style="mix-blend-mode:screen"><path style="mix-blend-mode:screen" fill="url(#paint7_linear)" d="M474.286 109.059C484.293 109.059 492.406 101.999 492.406 93.2893C492.406 84.5799 484.293 77.5195 474.286 77.5195C464.279 77.5195 456.166 84.5799 456.166 93.2893C456.166 101.999 464.279 109.059 474.286 109.059Z"/></g><path fill="url(#paint8_linear)" d="M611.496 183.923C604.102 185.69 596.142 182.519 593.05 176.211C571.378 131.958 513.953 118.291 513.397 118.176C505.119 116.268 500.145 108.882 502.318 101.673C504.492 94.4641 512.92 90.1352 521.215 91.9993C524.166 92.6619 593.809 108.918 621.621 165.609C624.987 172.474 621.32 180.416 613.431 183.349C612.798 183.579 612.152 183.771 611.496 183.923V183.923Z"/></g></g><defs><radialGradient id="paint0_radial" cx="0" cy="0" r="1" gradientTransform="translate(399.89 400) scale(347.447)" gradientUnits="userSpaceOnUse"><stop stop-color="#56C1FC"/><stop offset="1" stop-color="#3A8CFC"/></radialGradient><radialGradient id="paint1_radial" cx="0" cy="0" r="1" gradientTransform="translate(399.89 573.724) scale(274.676)" gradientUnits="userSpaceOnUse"><stop stop-color="#5577E5"/><stop offset="1" stop-color="#3F3EE5"/></radialGradient><linearGradient id="paint2_linear" x1="466.892" x2="331.554" y1="302.457" y2="499.478" gradientUnits="userSpaceOnUse"><stop stop-color="#30A4E4"/><stop offset="1" stop-color="#9DD0E4"/></linearGradient><linearGradient id="paint3_linear" x1="461.608" x2="336.952" y1="310.161" y2="491.623" gradientUnits="userSpaceOnUse"><stop stop-color="#85D0E4"/><stop offset="1" stop-color="#BBD0E4"/></linearGradient><linearGradient id="paint4_linear" x1="356.689" x2="443.948" y1="462.885" y2="335.861" gradientUnits="userSpaceOnUse"><stop stop-color="#87D0E5"/><stop offset=".3" stop-color="#6ECAE1"/><stop offset=".95" stop-color="#2DBBD6"/><stop offset="1" stop-color="#28BAD5"/></linearGradient><linearGradient id="paint5_linear" x1="417.481" x2="467.674" y1="340.479" y2="308.571" gradientUnits="userSpaceOnUse"><stop stop-color="#fff" stop-opacity="0"/><stop offset=".22" stop-color="#fff" stop-opacity=".24"/><stop offset=".6" stop-color="#fff" stop-opacity=".64"/><stop offset=".87" stop-color="#fff" stop-opacity=".9"/><stop offset="1" stop-color="#fff"/></linearGradient><linearGradient id="paint6_linear" x1="10511.7" x2="10274.2" y1="40704.7" y2="41760.5" gradientUnits="userSpaceOnUse"><stop stop-color="#fff" stop-opacity="0"/><stop offset=".22" stop-color="#fff" stop-opacity=".24"/><stop offset=".6" stop-color="#fff" stop-opacity=".64"/><stop offset=".87" stop-color="#fff" stop-opacity=".9"/><stop offset="1" stop-color="#fff"/></linearGradient><linearGradient id="paint7_linear" x1="26799.7" x2="20136.4" y1="4311.38" y2="1390.89" gradientUnits="userSpaceOnUse"><stop stop-color="#fff" stop-opacity="0"/><stop offset=".22" stop-color="#fff" stop-opacity=".24"/><stop offset=".6" stop-color="#fff" stop-opacity=".64"/><stop offset=".87" stop-color="#fff" stop-opacity=".9"/><stop offset="1" stop-color="#fff"/></linearGradient><linearGradient id="paint8_linear" x1="88060.1" x2="66788.5" y1="13534.1" y2="2953.19" gradientUnits="userSpaceOnUse"><stop stop-color="#fff" stop-opacity="0"/><stop offset=".22" stop-color="#fff" stop-opacity=".24"/><stop offset=".6" stop-color="#fff" stop-opacity=".64"/><stop offset=".87" stop-color="#fff" stop-opacity=".9"/><stop offset="1" stop-color="#fff"/></linearGradient><clipPath id="clip0"><rect width="800" height="800" fill="#fff"/></clipPath><clipPath id="clip1"><rect width="800.22" height="722.67" fill="#fff" transform="translate(-0.219971 38.6655)"/></clipPath></defs></svg>