<svg width="500" height="500" viewBox="0 0 500 500" fill="none" xmlns="http://www.w3.org/2000/svg">
<g clip-path="url(#clip0_1351_2565)">
<mask id="mask0_1351_2565" style="mask-type:alpha" maskUnits="userSpaceOnUse" x="0" y="0" width="500" height="500">
<rect width="500" height="500" fill="#D9D9D9"/>
</mask>
<g mask="url(#mask0_1351_2565)">
<g clip-path="url(#clip1_1351_2565)">
<mask id="mask1_1351_2565" style="mask-type:alpha" maskUnits="userSpaceOnUse" x="0" y="0" width="500" height="500">
<path d="M250 500C388.071 500 500 388.071 500 250C500 111.929 388.071 0 250 0C111.929 0 0 111.929 0 250C0 388.071 111.929 500 250 500Z" fill="#162E2F"/>
</mask>
<g mask="url(#mask1_1351_2565)">
<path d="M250 500C388.071 500 500 388.071 500 250C500 111.929 388.071 0 250 0C111.929 0 0 111.929 0 250C0 388.071 111.929 500 250 500Z" fill="#162E2F"/>
<path d="M-93.75 78.125H293.75V155.625L332.5 204.063L293.75 252.5L361.563 296.095L293.75 339.688V426.875H-93.75V78.125Z" fill="url(#paint0_linear_1351_2565)"/>
<path d="M187.5 156.25H0V203.125H187.5V156.25Z" fill="url(#paint1_linear_1351_2565)"/>
<path d="M0 343.75H187.5V296.875H0V343.75Z" fill="url(#paint2_linear_1351_2565)"/>
<path d="M371.421 185.273C367.698 147.207 334.839 134.499 293.373 130.934L293.284 78.125L261.163 78.1836L261.252 129.602C252.807 129.616 244.177 129.798 235.6 129.983L235.52 78.2234L203.416 78.2773L203.495 131.072C196.543 131.227 189.713 131.369 183.054 131.383L183.05 131.218L138.748 131.276L138.814 165.609C138.814 165.609 162.533 165.118 162.14 165.553C175.148 165.535 179.396 173.088 180.643 179.609C180.725 227.866 180.805 276.016 180.88 324.282C180.318 328.38 177.923 334.921 168.832 334.95C169.246 335.314 145.484 334.984 145.484 334.984L139.165 373.386L180.966 373.314C188.746 373.312 196.4 373.43 203.916 373.463L204.02 426.875L236.105 426.825L236.014 373.977C244.825 374.146 253.348 374.202 261.675 374.18L261.748 426.782L293.871 426.723L293.789 373.407C347.786 370.216 385.559 356.539 390.164 305.779C393.884 264.907 374.646 246.707 343.982 239.391C362.591 229.868 374.205 213.129 371.434 185.275L371.423 185.27L371.421 185.273ZM326.675 299.555C326.759 339.47 258.461 335.046 236.691 335.104L236.582 264.336C258.355 264.305 326.607 257.923 326.675 299.555ZM311.568 199.736C311.62 236.05 254.659 231.909 236.527 231.941L236.421 167.759C254.554 167.728 311.502 161.862 311.57 199.736H311.568Z" fill="#C4FDF2"/>
</g>
</g>
</g>
</g>
<circle cx="400" cy="400" r="97.5" fill="black" stroke="black" stroke-width="5"/>
<g clip-path="url(#clip2_1351_2565)">
<path fill-rule="evenodd" clip-rule="evenodd" d="M400.003 300.191C455.127 300.191 499.814 344.875 499.814 399.994C499.814 455.114 455.127 499.797 400.003 499.797C344.879 499.797 300.192 455.114 300.192 399.994C300.192 344.875 344.879 300.191 400.003 300.191Z" fill="#2E3148"/>
<path fill-rule="evenodd" clip-rule="evenodd" d="M399.807 342.42C431.608 342.42 457.388 368.2 457.388 400.002C457.388 431.803 431.608 457.583 399.807 457.583C368.005 457.583 342.225 431.803 342.225 400.002C342.225 368.2 368.005 342.42 399.807 342.42Z" fill="#1B1E36"/>
<path fill-rule="evenodd" clip-rule="evenodd" d="M472.496 352.705C470.759 352.22 468.641 352.055 466.242 352.151L466.242 352.151C461.099 352.356 454.398 353.781 446.653 356.217L446.653 356.217C430.611 361.263 410.42 370.527 390.054 382.278L391.554 384.877L390.054 382.278C369.689 394.029 351.566 406.873 339.172 418.234L341.199 420.446L339.172 418.234C333.189 423.719 328.604 428.807 325.855 433.156C324.572 435.184 323.656 437.099 323.208 438.846C322.772 440.543 322.676 442.509 323.664 444.218L326.262 442.718L323.664 444.218C323.664 444.218 323.664 444.218 323.664 444.218C324.651 445.927 326.403 446.827 328.09 447.299C329.827 447.784 331.945 447.949 334.344 447.853L334.225 444.856L334.345 447.853C339.487 447.648 346.189 446.224 353.933 443.788C369.975 438.742 390.166 429.477 410.531 417.726C430.897 405.975 449.021 393.132 461.414 381.77L459.387 379.559L461.414 381.77C467.397 376.285 471.982 371.197 474.731 366.849C476.014 364.82 476.93 362.905 477.378 361.158C477.814 359.462 477.91 357.495 476.922 355.786M472.496 352.705C474.183 353.177 475.935 354.077 476.922 355.786ZM471.693 358.807C471.697 358.944 471.683 359.215 471.567 359.667C471.33 360.589 470.754 361.912 469.66 363.643L469.66 363.643C467.321 367.342 463.177 372.015 457.36 377.347L457.36 377.347C445.383 388.327 427.648 400.923 407.533 412.529L409.032 415.128L407.533 412.529C387.418 424.136 367.636 433.188 352.133 438.064L352.133 438.064C344.603 440.433 338.481 441.684 334.106 441.858L334.106 441.858C332.059 441.94 330.623 441.777 329.705 441.52C329.253 441.394 329.01 441.27 328.893 441.198C328.889 441.06 328.903 440.789 329.019 440.337C329.256 439.415 329.832 438.092 330.926 436.362C333.265 432.662 337.409 427.99 343.226 422.657C355.204 411.677 372.938 399.082 393.053 387.475C413.168 375.869 432.95 366.817 448.453 361.94C455.983 359.572 462.105 358.321 466.48 358.146M471.693 358.807C471.576 358.734 471.333 358.61 470.881 358.484C469.963 358.227 468.528 358.065 466.481 358.146" fill="#6F7390"/>
<path fill-rule="evenodd" clip-rule="evenodd" d="M405.152 486.18C406.441 484.918 407.642 483.167 408.759 481.041L408.759 481.041C411.153 476.485 413.27 469.969 415.032 462.044L415.032 462.044C418.683 445.628 420.756 423.51 420.762 399.997L417.762 399.997L420.762 399.997C420.768 376.485 418.707 354.368 415.064 337.954L412.135 338.604L415.064 337.954C413.306 330.03 411.192 323.515 408.8 318.96C407.685 316.835 406.485 315.084 405.196 313.822C403.944 312.597 402.289 311.531 400.315 311.531L400.316 314.531L400.315 311.531C400.315 311.531 400.315 311.531 400.315 311.531C398.341 311.532 396.686 312.599 395.434 313.824C394.145 315.086 392.944 316.838 391.827 318.963L394.483 320.359L391.827 318.964C389.433 323.52 387.316 330.036 385.554 337.96C381.903 354.376 379.83 376.494 379.824 400.007C379.818 423.519 381.879 445.637 385.522 462.05L388.451 461.401L385.522 462.05C387.28 469.975 389.394 476.489 391.786 481.044C392.901 483.169 394.101 484.92 395.39 486.182C396.642 487.407 398.297 488.474 400.271 488.473M405.152 486.18C403.9 487.406 402.245 488.473 400.271 488.473ZM400.27 482.434C400.148 482.369 399.921 482.221 399.587 481.894C398.907 481.228 398.05 480.068 397.098 478.255L397.098 478.255C395.063 474.38 393.089 468.455 391.379 460.751L391.379 460.751C387.859 444.888 385.818 423.232 385.824 400.008L382.824 400.008L385.824 400.008C385.83 376.785 387.882 355.128 391.411 339.263L391.411 339.263C393.124 331.558 395.101 325.631 397.138 321.754L397.139 321.754C398.091 319.941 398.95 318.779 399.631 318.112C399.967 317.784 400.195 317.635 400.317 317.571C400.438 317.635 400.665 317.783 400.999 318.11C401.679 318.776 402.536 319.936 403.488 321.749C405.523 325.624 407.497 331.55 409.207 339.253C412.727 355.116 414.768 376.772 414.762 399.996C414.756 423.219 412.704 444.877 409.175 460.741C407.462 468.446 405.484 474.373 403.448 478.25M400.27 482.434C400.391 482.369 400.619 482.221 400.955 481.892C401.636 481.225 402.495 480.064 403.448 478.25" fill="#6F7390"/>
<path fill-rule="evenodd" clip-rule="evenodd" d="M328.09 352.705C329.828 352.22 331.945 352.055 334.344 352.151L334.345 352.151C339.487 352.356 346.189 353.781 353.933 356.217L353.933 356.217C369.975 361.263 390.166 370.527 410.532 382.278L409.032 384.877L410.532 382.278C430.897 394.029 449.021 406.873 461.414 418.234L459.387 420.446L461.414 418.234C467.397 423.719 471.982 428.807 474.732 433.156C476.014 435.184 476.93 437.099 477.379 438.846C477.814 440.543 477.91 442.509 476.922 444.218L474.325 442.718L476.922 444.218C476.922 444.218 476.922 444.218 476.922 444.218C475.935 445.927 474.183 446.827 472.496 447.299C470.759 447.784 468.641 447.949 466.242 447.853L466.361 444.856L466.242 447.853C461.099 447.648 454.397 446.224 446.653 443.788C430.611 438.742 410.42 429.477 390.055 417.726C369.689 405.975 351.566 393.132 339.172 381.77L341.199 379.559L339.172 381.77C333.189 376.285 328.604 371.197 325.855 366.849C324.572 364.82 323.656 362.905 323.208 361.158C322.772 359.462 322.676 357.495 323.664 355.786M328.09 352.705C326.403 353.177 324.651 354.077 323.664 355.786ZM328.893 358.807C328.889 358.944 328.903 359.215 329.02 359.667C329.256 360.589 329.832 361.912 330.926 363.643L330.926 363.643C333.265 367.342 337.409 372.015 343.227 377.347L343.227 377.347C355.204 388.327 372.938 400.923 393.053 412.529L391.554 415.128L393.053 412.529C413.168 424.136 432.95 433.188 448.453 438.064L448.454 438.064C455.983 440.433 462.105 441.684 466.48 441.858L466.481 441.858C468.527 441.94 469.963 441.777 470.881 441.52C471.333 441.394 471.576 441.27 471.693 441.198C471.697 441.06 471.683 440.789 471.567 440.337C471.33 439.415 470.754 438.092 469.66 436.362C467.321 432.662 463.177 427.99 457.36 422.657C445.382 411.677 427.648 399.082 407.533 387.475C387.418 375.869 367.636 366.817 352.133 361.94C344.603 359.572 338.482 358.321 334.106 358.146M328.893 358.807C329.011 358.734 329.253 358.61 329.705 358.484C330.623 358.227 332.059 358.065 334.106 358.146" fill="#6F7390"/>
<path fill-rule="evenodd" clip-rule="evenodd" d="M344.441 375.525C347.835 375.525 350.586 378.278 350.586 381.673C350.586 385.069 347.835 387.821 344.441 387.821C341.047 387.821 338.296 385.069 338.296 381.673C338.296 378.278 341.047 375.525 344.441 375.525Z" fill="#B7B9C8"/>
<path fill-rule="evenodd" clip-rule="evenodd" d="M442.113 354.477C445.508 354.477 448.261 357.229 448.261 360.625C448.261 364.02 445.508 366.773 442.113 366.773C438.717 366.773 435.965 364.02 435.965 360.625C435.965 357.229 438.717 354.477 442.113 354.477Z" fill="#B7B9C8"/>
<path fill-rule="evenodd" clip-rule="evenodd" d="M387.912 450.977C391.308 450.977 394.06 453.728 394.06 457.122C394.06 460.515 391.308 463.267 387.912 463.267C384.517 463.267 381.764 460.515 381.764 457.122C381.764 453.728 384.517 450.977 387.912 450.977Z" fill="#B7B9C8"/>
<path fill-rule="evenodd" clip-rule="evenodd" d="M399.953 389.543C405.702 389.543 410.362 394.203 410.362 399.952C410.362 405.7 405.702 410.361 399.953 410.361C394.204 410.361 389.544 405.7 389.544 399.952C389.544 394.203 394.204 389.543 399.953 389.543Z" fill="#B7B9C8"/>
</g>
<circle cx="400" cy="400" r="97.5" stroke="black" stroke-width="5"/>
<defs>
<linearGradient id="paint0_linear_1351_2565" x1="361.562" y1="252.5" x2="-93.75" y2="252.5" gradientUnits="userSpaceOnUse">
<stop stop-color="#4E988D"/>
<stop offset="1" stop-color="#264C4A"/>
</linearGradient>
<linearGradient id="paint1_linear_1351_2565" x1="93.75" y1="156.25" x2="93.75" y2="203.125" gradientUnits="userSpaceOnUse">
<stop stop-opacity="0.1"/>
<stop offset="1" stop-opacity="0"/>
</linearGradient>
<linearGradient id="paint2_linear_1351_2565" x1="93.75" y1="343.75" x2="93.75" y2="296.875" gradientUnits="userSpaceOnUse">
<stop stop-opacity="0.1"/>
<stop offset="1" stop-opacity="0"/>
</linearGradient>
<clipPath id="clip0_1351_2565">
<rect width="500" height="500" rx="250" fill="white"/>
</clipPath>
<clipPath id="clip1_1351_2565">
<rect width="500" height="500" fill="white"/>
</clipPath>
<clipPath id="clip2_1351_2565">
<rect width="200" height="200" fill="white" transform="translate(300 300)"/>
</clipPath>
</defs>
</svg>
