<svg width="500" height="500" viewBox="0 0 500 500" fill="none" xmlns="http://www.w3.org/2000/svg">
<g clip-path="url(#clip0_1268_2380)">
<mask id="mask0_1268_2380" style="mask-type:alpha" maskUnits="userSpaceOnUse" x="0" y="0" width="500" height="500">
<rect width="500" height="500" fill="#D9D9D9"/>
</mask>
<g mask="url(#mask0_1268_2380)">
<g clip-path="url(#clip1_1268_2380)">
<mask id="mask1_1268_2380" style="mask-type:alpha" maskUnits="userSpaceOnUse" x="0" y="0" width="500" height="500">
<path d="M250 500C388.071 500 500 388.071 500 250C500 111.929 388.071 0 250 0C111.929 0 0 111.929 0 250C0 388.071 111.929 500 250 500Z" fill="#162E2F"/>
</mask>
<g mask="url(#mask1_1268_2380)">
<path d="M250 500C388.071 500 500 388.071 500 250C500 111.929 388.071 0 250 0C111.929 0 0 111.929 0 250C0 388.071 111.929 500 250 500Z" fill="#162E2F"/>
<path d="M-93.75 78.125H293.75V155.625L332.5 204.063L293.75 252.5L361.563 296.095L293.75 339.688V426.875H-93.75V78.125Z" fill="url(#paint0_linear_1268_2380)"/>
<path d="M187.5 156.25H0V203.125H187.5V156.25Z" fill="url(#paint1_linear_1268_2380)"/>
<path d="M0 343.75H187.5V296.875H0V343.75Z" fill="url(#paint2_linear_1268_2380)"/>
<path d="M371.421 185.273C367.698 147.207 334.839 134.499 293.373 130.934L293.284 78.125L261.163 78.1836L261.252 129.602C252.807 129.616 244.177 129.798 235.6 129.983L235.52 78.2234L203.416 78.2773L203.495 131.072C196.543 131.227 189.713 131.369 183.054 131.383L183.05 131.218L138.748 131.276L138.814 165.609C138.814 165.609 162.533 165.118 162.14 165.553C175.148 165.535 179.396 173.088 180.643 179.609C180.725 227.866 180.805 276.016 180.88 324.282C180.318 328.38 177.923 334.921 168.832 334.95C169.246 335.314 145.484 334.984 145.484 334.984L139.165 373.386L180.966 373.314C188.746 373.312 196.4 373.43 203.916 373.463L204.02 426.875L236.105 426.825L236.014 373.977C244.825 374.146 253.348 374.202 261.675 374.18L261.748 426.782L293.871 426.723L293.789 373.407C347.786 370.216 385.559 356.539 390.164 305.779C393.884 264.907 374.646 246.707 343.982 239.391C362.591 229.868 374.205 213.129 371.434 185.275L371.423 185.27L371.421 185.273ZM326.675 299.555C326.759 339.47 258.461 335.046 236.691 335.104L236.582 264.336C258.355 264.305 326.607 257.923 326.675 299.555ZM311.568 199.736C311.62 236.05 254.659 231.909 236.527 231.941L236.421 167.759C254.554 167.728 311.502 161.862 311.57 199.736H311.568Z" fill="#C4FDF2"/>
</g>
</g>
</g>
</g>
<g clip-path="url(#clip2_1268_2380)">
<path d="M399.7 499.499C454.818 499.499 499.5 454.817 499.5 399.699C499.5 344.581 454.818 299.898 399.7 299.898C344.582 299.898 299.899 344.581 299.899 399.699C299.899 454.817 344.582 499.499 399.7 499.499Z" fill="white"/>
<path d="M408.715 387.452L456.071 340.098L438.105 322.135L399.734 360.506L361.362 322.135L343.398 340.098L390.752 387.452C393.232 389.932 396.483 391.173 399.734 391.173C402.984 391.173 406.235 389.933 408.715 387.452ZM477.267 438.039L438.896 399.668L477.267 361.296L459.303 343.333L411.95 390.687C406.99 395.647 406.99 403.69 411.95 408.65L459.303 456.004L477.267 438.039ZM399.668 438.895L438.039 477.266L456.002 459.302L408.649 411.949C403.688 406.988 395.647 406.988 390.685 411.949L343.332 459.302L361.297 477.266L399.668 438.895ZM387.452 408.715C389.835 406.332 391.173 403.102 391.173 399.733C391.173 396.365 389.835 393.133 387.452 390.751L340.099 343.398L322.135 361.363L360.506 399.733L322.135 438.105L340.099 456.069L387.452 408.715Z" fill="black"/>
</g>
<circle cx="400" cy="400" r="97.5" stroke="black" stroke-width="5"/>
<defs>
<linearGradient id="paint0_linear_1268_2380" x1="361.562" y1="252.5" x2="-93.75" y2="252.5" gradientUnits="userSpaceOnUse">
<stop stop-color="#4E988D"/>
<stop offset="1" stop-color="#264C4A"/>
</linearGradient>
<linearGradient id="paint1_linear_1268_2380" x1="93.75" y1="156.25" x2="93.75" y2="203.125" gradientUnits="userSpaceOnUse">
<stop stop-opacity="0.1"/>
<stop offset="1" stop-opacity="0"/>
</linearGradient>
<linearGradient id="paint2_linear_1268_2380" x1="93.75" y1="343.75" x2="93.75" y2="296.875" gradientUnits="userSpaceOnUse">
<stop stop-opacity="0.1"/>
<stop offset="1" stop-opacity="0"/>
</linearGradient>
<clipPath id="clip0_1268_2380">
<rect width="500" height="500" rx="250" fill="white"/>
</clipPath>
<clipPath id="clip1_1268_2380">
<rect width="500" height="500" fill="white"/>
</clipPath>
<clipPath id="clip2_1268_2380">
<rect width="200" height="200" fill="white" transform="translate(299.6 299.6)"/>
</clipPath>
</defs>
</svg>
