<?xml version="1.0" encoding="UTF-8"?>
<svg width="200px" height="200px" viewBox="0 0 200 200" version="1.1" xmlns="http://www.w3.org/2000/svg" xmlns:xlink="http://www.w3.org/1999/xlink">
    <title>levana-silhouette-round</title>
    <g id="Page-1" stroke="none" stroke-width="1" fill="none" fill-rule="evenodd">
        <g id="levana-silhouette-round" fill-rule="nonzero">
            <rect id="Rectangle" fill="#4A126B" x="0" y="0" width="200" height="200" rx="100"></rect>
            <path d="M157.737,93.3192 C157.76,87.9415 156.424,82.6394 153.844,77.8711 C153.844,79.7912 153.392,81.8422 153.12,83.8932 C152.577,87.9516 151.943,92.1846 150.947,96.723 C149.68,102.309 148.232,107.414 146.693,111.997 L148.232,111.342 L151.355,109.989 C151.355,110.818 150.993,111.997 150.631,113.349 C150.354,114.155 150.021,114.943 149.635,115.706 C149.273,116.535 148.865,117.32 148.458,118.106 C148.051,118.891 147.688,119.502 147.281,120.201 C146.27,121.863 145.136,123.453 143.886,124.957 C137.72,132.336 128.957,137.274 119.263,138.834 L118.177,138.834 C117.338,138.969 116.491,139.057 115.642,139.096 L114.601,139.096 C107.922,139.121 101.331,137.625 95.3636,134.732 C89.7941,132.061 84.9835,128.122 81.3478,123.256 C77.712,118.39 75.3606,112.743 74.497,106.804 C74.497,105.582 74.2707,104.403 74.2254,103.225 C74.2254,102.963 74.2254,102.701 74.2254,102.44 C74.2566,97.949 75.1785,93.5051 76.9413,89.3481 C78.9157,84.3081 82.2375,79.8612 86.5699,76.4584 C90.9023,73.0556 96.0911,70.818 101.61,69.9725 C99.9848,71.3104 98.4713,72.7695 97.0836,74.3364 C96.5569,74.7562 96.1255,75.2762 95.8162,75.8637 L114.827,73.769 L115.506,73.769 C122.742,74.0382 129.773,76.1622 135.875,79.9221 L140.718,75.2527 L141.759,78.3947 L142.257,79.9221 C143.201,78.1155 144.018,76.2493 144.701,74.3364 C145.018,73.5072 145.335,72.5908 145.606,71.6308 C146.242,69.5767 146.696,67.4746 146.964,65.3468 C147.032,64.2131 147.032,63.0767 146.964,61.943 C146.149,62.5353 145.229,62.9789 144.249,63.2521 C143.643,63.4129 143.02,63.5008 142.393,63.5139 C141.676,63.5472 140.959,63.4736 140.265,63.2958 C138.38,62.7483 136.698,61.6875 135.422,60.241 C134.476,59.1893 133.643,58.0491 132.933,56.8372 C131.484,52.4734 115.28,47.7605 102.832,40.8219 C99.3124,38.9648 96.0565,36.6765 93.1457,34.0142 C90.7601,31.8383 89.1717,28.9747 88.6193,25.8538 C88.6296,25.9553 88.6296,26.0577 88.6193,26.1593 C88.6193,26.1593 88.6193,26.1593 88.6193,26.4211 C88.5933,26.5947 88.5933,26.7711 88.6193,26.9447 C88.5925,27.0449 88.5925,27.15 88.6193,27.2502 C88.6193,27.4684 88.6193,27.6866 88.393,27.9048 C88.4143,28.0641 88.4143,28.2255 88.393,28.3849 C88.393,28.6467 88.393,28.8648 88.393,29.1267 C88.4147,29.3152 88.4147,29.5055 88.393,29.694 L88.393,30.5231 C88.4154,30.7408 88.4154,30.96 88.393,31.1777 C88.393,31.4832 88.393,31.7451 88.393,32.0942 C88.3705,32.3264 88.3705,32.5601 88.393,32.7923 L88.393,33.7523 C88.3708,34.0137 88.3708,34.2765 88.393,34.5379 C88.393,34.8434 88.393,35.1924 88.393,35.5415 C88.393,35.8907 88.393,36.0653 88.393,36.3271 L88.6646,37.3744 L88.9362,38.2036 L89.3435,39.2509 C89.4766,39.536 89.6278,39.8129 89.7962,40.08 C89.7962,40.4291 90.113,40.7782 90.3393,41.1273 L90.973,41.9564 C91.1881,42.3079 91.4302,42.6434 91.6972,42.9602 C91.9235,43.2656 92.2405,43.5274 92.512,43.8329 L93.4172,44.7494 L94.2773,45.4039 C94.641,45.729 95.035,46.0212 95.4542,46.2767 L96.6762,47.0622 L97.7625,47.7168 L98.3963,48.0658 L87.7593,43.3529 L82.4635,40.9964 C82.9424,43.0746 83.7677,45.0643 84.9076,46.8876 C85.4423,47.8028 86.0477,48.6781 86.7183,49.506 C86.7183,49.506 64.0864,48.8077 51.5936,66.0014 L52.363,66.0014 C53.65,65.9289 54.9153,66.3449 55.8881,67.1605 C56.861,67.9761 57.4641,69.1264 57.5684,70.3652 C57.6165,70.815 57.6165,71.2683 57.5684,71.718 C57.6099,72.066 57.6099,72.4173 57.5684,72.7653 C56.8894,73.8999 56.2556,75.0782 55.622,76.2565 C54.9883,77.4347 52.6798,79.8348 50.824,81.9294 C49.6019,83.2822 48.3798,84.6787 47.1576,86.2933 C43.0445,90.9978 40.4068,96.735 39.5534,102.832 C39.5083,103.486 39.5083,104.142 39.5534,104.796 C40.1586,104.426 40.7945,104.105 41.4545,103.836 L41.907,103.836 L42.2692,103.836 C43.0212,103.622 43.821,103.619 44.5747,103.827 C45.3284,104.036 46.0047,104.448 46.524,105.014 C47.3309,105.986 47.903,107.119 48.1988,108.331 C49.0127,112.479 49.497,116.68 49.6472,120.899 C49.8632,123.361 50.2259,125.808 50.7335,128.23 C51.8448,134.558 55.0152,140.381 59.7863,144.856 C59.7819,144.784 59.7819,144.711 59.7863,144.638 C59.5973,143.925 59.506,143.192 59.5147,142.456 C59.4796,141.835 59.5826,141.214 59.8168,140.635 C60.051,140.055 60.4109,139.531 60.8726,139.096 C61.2725,138.779 61.7342,138.541 62.2306,138.398 L62.4568,138.398 C63.1625,138.302 63.8786,138.302 64.5842,138.398 C69.1106,138.66 71.7811,145.511 77.258,151.271 C80.6063,154.98 85.0933,157.563 90.0678,158.646 L90.3393,158.646 C90.0845,157.672 90.0845,156.653 90.3393,155.679 C90.451,155.262 90.6658,154.877 90.9654,154.558 C91.2649,154.239 91.6403,153.995 92.0594,153.846 C93.5792,153.546 95.1578,153.698 96.5858,154.282 C100.052,155.453 103.63,156.286 107.268,156.77 L107.992,156.77 C109.214,156.77 110.618,157.075 111.84,157.119 C113.579,157.162 115.32,157.075 117.045,156.857 C121.182,156.344 125.204,155.18 128.949,153.41 C128.305,152.78 127.933,151.937 127.908,151.053 C127.916,150.525 128.04,150.005 128.27,149.526 C128.8,148.777 129.496,148.151 130.307,147.693 C131.583,146.852 132.968,146.178 134.426,145.686 C135.799,145.253 137.144,144.743 138.455,144.158 L139.179,143.765 C141.842,142.279 144.267,140.427 146.376,138.267 C151.474,132.811 155.069,126.209 156.832,119.066 C157.575,116.77 158.031,114.397 158.19,111.997 C158.19,111.342 158.19,110.687 158.19,110.033 C158.693,104.463 158.541,98.856 157.737,93.3192 Z" id="Path-2" fill="#FFFFFF"></path>
        </g>
    </g>
</svg>