<?xml version="1.0" encoding="UTF-8"?><svg id="Layer_2" xmlns="http://www.w3.org/2000/svg" viewBox="0 0 521.89 518.33"><defs><style>.cls-1{fill:#e75a5c;}</style></defs><g id="Layer_1-2"><path class="cls-1" d="M260.94,0C116.83,0,0,116.03,0,259.16s116.83,259.16,260.94,259.16,260.94-116.03,260.94-259.16S405.06,0,260.94,0Zm-98.81,59l49.64,136.23L110.39,93.89c15.45-13.89,32.85-25.67,51.75-34.89Zm-76.75,61.33l92.09,92.05-118.24-51c7.22-14.66,16.01-28.41,26.15-41.05Zm-38.96,73.21l128.12,55.27H36.77c.88-19.15,4.2-37.67,9.65-55.27Zm-8.93,86.36H169.54l-121.88,48.76c-5.14-15.57-8.6-31.89-10.17-48.76Zm24.43,82.34l121.47-48.59-89.58,94.26c-12.44-13.78-23.18-29.11-31.89-45.66Zm59.09,71.18l80.61-84.82-44.45,108.24c-12.83-6.66-24.93-14.51-36.16-23.42Zm119.05,47.67c-17.27-1.58-33.97-5.11-49.88-10.35l49.88-121.46v131.81Zm0-310.12l-45.46-124.78c14.58-4.47,29.79-7.51,45.46-8.95V170.97Zm31.31,310.84v-224.89h0V36.52c119.09,5.42,213.97,103.02,213.97,222.64s-94.88,217.23-213.97,222.64Z"/></g></svg>