<?xml version="1.0" encoding="UTF-8"?>
<svg width="512px" height="512px" viewBox="0 0 512 512" version="1.1" xmlns="http://www.w3.org/2000/svg" xmlns:xlink="http://www.w3.org/1999/xlink">
    <title>Artboard</title>
    <g id="Artboard" stroke="none" stroke-width="1" fill="none" fill-rule="evenodd">
        <rect id="Rectangle" fill="#FF0000" fill-rule="nonzero" x="0" y="0" width="512" height="512"></rect>
        <path d="M256.000768,31 C380.264422,31 481,131.735978 481,256.00063 C481,380.264361 380.264422,481 256.000768,481 C131.736039,481 31,380.264361 31,256.00063 C31,131.735978 131.736039,31 256.000768,31 Z M266,64 L266,450 L269.065996,449.835241 C370.03373,443.611039 450,359.655881 450,257.000384 C450,154.344583 370.03373,70.3885188 269.065996,64.1647452 L266,64 Z M237,335 L195,440.046903 L196.219831,440.455255 C208.84353,444.632413 222.047761,447.490996 235.679473,448.871066 L237,449 L237,335 Z M204,334 L135,407.664289 L136.032245,408.489109 C145.003224,415.607311 154.619141,421.937971 164.777005,427.376449 L165.951466,428 L204,334 Z M190,303 L85,345.27533 L85.5979316,346.409827 C92.8112015,359.986722 101.591582,372.605865 111.698023,384.024229 L112.567531,385 L190,303 Z M176,275 L62,275 L62.1274724,276.288165 C63.4910933,289.586091 66.2916639,302.475905 70.3769862,314.808289 L70.7763455,316 L176,275 Z M72.2649116,200 C67.7164809,214.888543 64.9030854,230.542059 64.0622771,246.721581 L64,248 L182,248 L72.2649116,200 Z M104.559158,135 C96.0822406,145.638131 88.7014229,157.189318 82.5876903,169.482474 L82,170.674445 L184,215 L104.559158,135 Z M170.405756,83 C154.548661,90.8083892 139.919335,100.738561 126.886149,112.42109 L126,113.220337 L213,201 L170.405756,83 Z M238,65 C224.999235,66.2043955 212.374278,68.7069294 200.252208,72.3774816 L199,72.7613551 L238,181 L238,65 Z" id="Shape" fill="#FFFFFF" fill-rule="nonzero"></path>
    </g>
</svg>