<svg width="500" height="500" viewBox="0 0 500 500" fill="none" xmlns="http://www.w3.org/2000/svg">
<g clip-path="url(#clip0_104_1591)">
<path d="M249.743 0L203.872 26.3761L78.8716 98.6239L33 125V375L78.8716 401.376L205.018 473.624L250.89 500L296.761 473.624L420.615 401.376L466.486 375V125L420.615 98.6239L295.615 26.3761L249.743 0ZM124.743 322.248V177.752L249.743 105.505L374.743 177.752V322.248L249.743 394.495L124.743 322.248Z" fill="#2A5ADA"/>
</g>
<g clip-path="url(#clip1_104_1591)">
<path d="M399.7 499.5C454.818 499.5 499.5 454.818 499.5 399.7C499.5 344.582 454.818 299.899 399.7 299.899C344.582 299.899 299.899 344.582 299.899 399.7C299.899 454.818 344.582 499.5 399.7 499.5Z" fill="white"/>
<path d="M408.715 387.452L456.071 340.098L438.105 322.135L399.734 360.506L361.362 322.135L343.398 340.098L390.752 387.452C393.232 389.932 396.483 391.173 399.734 391.173C402.984 391.173 406.235 389.933 408.715 387.452ZM477.267 438.039L438.896 399.668L477.267 361.296L459.303 343.333L411.95 390.687C406.99 395.647 406.99 403.69 411.95 408.65L459.303 456.004L477.267 438.039ZM399.668 438.895L438.039 477.266L456.002 459.302L408.649 411.949C403.688 406.988 395.647 406.988 390.685 411.949L343.332 459.302L361.297 477.266L399.668 438.895ZM387.452 408.715C389.835 406.332 391.173 403.102 391.173 399.733C391.173 396.365 389.835 393.133 387.452 390.751L340.099 343.398L322.135 361.363L360.506 399.733L322.135 438.105L340.099 456.069L387.452 408.715Z" fill="black"/>
</g>
<circle cx="400" cy="400" r="97.5" stroke="black" stroke-width="5"/>
<defs>
<clipPath id="clip0_104_1591">
<rect width="433.486" height="500" fill="white" transform="translate(33)"/>
</clipPath>
<clipPath id="clip1_104_1591">
<rect width="200" height="200" fill="white" transform="translate(299.6 299.6)"/>
</clipPath>
</defs>
</svg>
