<svg width="200" height="200" viewBox="0 0 200 200" fill="none" xmlns="http://www.w3.org/2000/svg">
<mask id="mask0_1016_8" style="mask-type:alpha" maskUnits="userSpaceOnUse" x="0" y="0" width="200" height="200">
<circle cx="100" cy="100" r="100" fill="#D9D9D9"/>
</mask>
<g mask="url(#mask0_1016_8)">
<path d="M200 0H0V200H200V0Z" fill="url(#paint0_radial_1016_8)"/>
<path fill-rule="evenodd" clip-rule="evenodd" d="M17 100C17 54.1604 54.1604 17 100 17C145.84 17 183 54.1604 183 100C183 145.84 145.84 183 100 183C54.1604 183 17 145.84 17 100ZM35.9934 70.1292C35.7605 69.0522 34.2896 68.8451 33.8321 69.8475C29.6396 79.0329 27.3034 89.2436 27.3034 100C27.3034 110.756 29.6395 120.967 33.8321 130.152C34.2896 131.155 35.7646 130.946 36.0113 129.872C36.7592 126.616 37.8122 123.265 39.1296 119.865C46.1201 101.826 58.4843 85.6661 72.0752 72.0752C77.7197 66.4307 83.5473 61.3328 89.398 56.8477C90.0458 56.3511 89.9903 55.355 89.2818 54.9498C84.8395 52.4091 80.5176 50.328 76.4118 48.7369C69.6362 46.1112 63.6826 44.9107 58.8762 45.0133C54.1054 45.1152 50.7932 46.4757 48.6345 48.6344C46.23 51.0389 44.8034 54.9033 45.0307 60.5995C45.2441 65.9507 46.9226 72.4804 50.1278 79.7726C50.5169 80.6578 50.3294 81.6944 49.6393 82.3716L45.0105 87.3236C43.9702 88.3445 42.2606 88.1407 41.6138 86.8345C39.236 82.0323 37.0957 75.2258 35.9934 70.1292ZM69.8476 33.832C68.8452 34.2896 69.0539 35.7646 70.1279 36.0113C73.3837 36.7591 76.7352 37.8122 80.1348 39.1296C95.2954 45.0046 112.35 56.5003 127.925 72.0752C132.56 76.7098 137.571 85.0812 139.074 94.9299C139.238 96.0021 140.672 96.3736 141.265 95.4651C145.577 88.8521 148.942 82.402 151.263 76.4117C153.889 69.6362 155.089 63.6826 154.987 58.8761C154.885 54.1054 153.524 50.7932 151.366 48.6344C148.907 46.1759 144.657 44.6798 138.75 44.9907C133.226 45.2815 127.994 46.6016 120.702 49.9344C119.733 50.3773 118.597 50.2673 117.745 49.6276L112.297 45.4006C111.335 44.6781 111.397 43.2145 112.428 42.5945C118.524 38.9293 123.663 36.6594 128.563 35.7699C129.744 35.5554 130.094 33.7945 128.993 33.3153C120.111 29.448 110.306 27.3034 100 27.3034C89.2437 27.3034 79.033 29.6395 69.8476 33.832ZM120.617 120.661C131.639 109.325 132.032 90.7538 120.639 79.3608C116.409 75.131 112.092 71.2466 107.765 67.7333C103.229 64.0492 96.7712 64.0493 92.2349 67.7333C87.9021 71.2521 83.5841 75.1376 79.3608 79.3608C68.5831 90.1385 68.3317 107.296 77.8289 118.936C88.3068 131.778 108.966 132.271 120.617 120.661ZM104.999 139.012C103.917 139.162 103.531 140.608 104.445 141.206C111.09 145.547 117.571 148.931 123.588 151.263C130.364 153.889 136.318 155.089 141.124 154.987C145.895 154.885 149.207 153.524 151.366 151.366C153.77 148.961 155.197 145.097 154.969 139.401C154.758 134.088 153.117 127.729 149.959 120.517C149.521 119.517 149.664 118.353 150.352 117.506L155.226 111.506C155.948 110.618 157.319 110.673 157.903 111.656C161.275 117.325 163.21 124.157 164.129 129.394C164.326 130.52 165.886 130.784 166.354 129.742C170.429 120.663 172.697 110.596 172.697 100C172.697 89.2437 170.36 79.0331 166.168 69.8477C165.71 68.8453 164.235 69.054 163.989 70.128C163.241 73.3838 162.188 76.7352 160.871 80.1347C154.995 95.2954 143.5 112.35 127.925 127.925C121.9 133.95 113.488 137.837 104.999 139.012ZM130.152 166.168C131.155 165.71 130.946 164.235 129.872 163.989C126.616 163.241 123.265 162.188 119.865 160.87C104.705 154.995 87.6501 143.5 72.0752 127.925C67.2172 123.067 62.3556 114.804 60.909 105.103C60.7487 104.028 59.3109 103.652 58.7174 104.563C54.4133 111.166 51.055 117.606 48.7369 123.588C46.1113 130.364 44.9107 136.317 45.0134 141.124C45.1153 145.895 46.4757 149.207 48.6345 151.366C51.0118 153.743 54.8134 155.163 60.4045 154.977C65.6245 154.802 71.9888 153.219 79.1074 150.161C80.0901 149.739 81.2281 149.874 82.0681 150.536L87.2306 154.604C88.1576 155.335 88.0866 156.759 87.0628 157.346C81.4234 160.58 75.1058 162.779 70.1222 163.969C69.0505 164.225 68.8452 165.71 69.8477 166.168C79.033 170.36 89.2437 172.697 100 172.697C110.756 172.697 120.967 170.36 130.152 166.168Z" fill="white"/>
<path d="M96.8811 80.4348C96.9279 80.3934 96.9716 80.3529 97.0177 80.3108C98.8427 78.6433 101.651 78.6734 103.44 80.3821C103.478 80.4186 103.514 80.4531 103.553 80.4891C104.165 81.058 109.693 86.2109 112.922 89.7439C116.226 93.7887 116.944 99.7632 114.716 104.672C108.586 118.18 91.6728 118.309 85.3654 104.906C83.0057 99.8927 83.755 93.7116 87.2225 89.6184C89.839 86.6809 96.1575 81.0748 96.8811 80.4348Z" fill="white"/>
</g>
<defs>
<radialGradient id="paint0_radial_1016_8" cx="0" cy="0" r="1" gradientUnits="userSpaceOnUse" gradientTransform="translate(200 -4.5) rotate(134.363) scale(286.042 191.372)">
<stop stop-color="#5278FF"/>
<stop offset="0.361196" stop-color="#BE7CFF"/>
<stop offset="0.756992" stop-color="#E69EFE"/>
<stop offset="1" stop-color="#F7D4F5"/>
</radialGradient>
</defs>
</svg>
