<svg width="500" height="500" viewBox="0 0 500 500" fill="none" xmlns="http://www.w3.org/2000/svg">
<g clip-path="url(#clip0_1308_2520)">
<mask id="mask0_1308_2520" style="mask-type:luminance" maskUnits="userSpaceOnUse" x="0" y="0" width="500" height="500">
<path d="M500 0H0V500H500V0Z" fill="white"/>
</mask>
<g mask="url(#mask0_1308_2520)">
<path d="M250 500C388.071 500 500 388.071 500 250C500 111.929 388.071 0 250 0C111.929 0 0 111.929 0 250C0 388.071 111.929 500 250 500Z" fill="#F1BB15"/>
<path d="M378.433 246.634C375.467 246.634 372.5 246.167 369.7 245.267L369.333 245.167C369.033 245.067 368.7 244.967 368.3 244.834C367.467 244.534 366.567 244.134 365.533 243.567L365.2 243.401C361.5 241.467 358.167 238.667 355.633 235.334C347.867 225.134 347.9 210.934 355.7 200.767C358.867 196.634 363.1 193.434 367.9 191.534L368.367 191.334C369.833 190.734 370.867 190.401 371.7 190.267L372.6 190.134C374.467 189.767 376.4 189.567 378.333 189.567C389.967 189.567 399.7 185.967 406.433 179.167C412.667 172.867 415.933 164.234 415.867 154.134V118.301H344.767V141.901C344.767 146.501 344.767 151.101 344.767 155.701C344.767 165.001 339.5 177.701 329.833 180.934C323.667 183.001 316.033 179.934 309.5 180.667C304.133 181.301 298.9 183.134 294.333 186.001C285.133 191.801 278.933 201.667 277.733 212.467C277.267 216.634 277.533 219.734 277.733 222.001C277.933 224.534 278 225.301 277.133 227.801C275.4 232.734 271.667 237.301 266.667 240.667C261.667 244.034 255.9 245.901 250.433 245.901H249.9H249.367C243.9 245.901 238.133 244.034 233.133 240.667C228.133 237.301 224.4 232.701 222.667 227.801C221.767 225.267 221.833 224.501 222.067 222.001C222.267 219.734 222.5 216.634 222.067 212.467C220.867 201.667 214.667 191.801 205.467 186.001C200.9 183.101 195.667 181.267 190.3 180.667C183.767 179.901 176.133 183.001 169.967 180.934C160.3 177.701 155.033 165.001 155.033 155.701C155.033 151.101 155.033 146.501 155.033 141.901V118.301H83.9334V154.134C83.8667 164.234 87.1001 172.867 93.3667 179.167C100.1 185.967 109.833 189.567 121.467 189.567C133.1 189.567 125.333 189.767 127.2 190.134L128.1 190.267C128.933 190.367 130 190.701 131.433 191.334L131.9 191.534C136.733 193.434 140.933 196.634 144.1 200.767C151.9 210.934 151.933 225.134 144.167 235.334C141.633 238.667 138.3 241.467 134.6 243.401L134.267 243.567C133.267 244.134 132.333 244.534 131.5 244.834C131.133 244.967 130.8 245.067 130.5 245.167L130.133 245.267C127.333 246.167 124.4 246.634 121.4 246.634C98.8667 246.634 83.7334 260.467 83.7334 281.101C83.7334 301.734 91.0667 305.534 97.2334 309.701C104.733 314.801 113.8 316.234 122.5 317.034L123.1 317.101C125.4 317.401 127.333 317.867 129.567 318.667L130.633 319.067L130.833 319.134C136.667 321.134 141.567 325.201 144.633 330.601C146.367 333.667 147.533 337.667 148 341.867C148.167 343.534 148.3 345.134 148.4 346.701C148.5 347.901 148.6 349.267 148.7 350.601V381.634H219.3V345.101C219.3 335.701 215.733 326.601 209.067 319.967C208.833 319.734 208.6 319.501 208.333 319.267C207.8 318.767 207.333 318.367 206.933 318.034L206.7 317.834C199.033 311.201 189.1 311.034 181.833 310.901H181.767C180.567 310.901 179.4 310.867 178.4 310.801L177.3 310.634L174.967 310.101L172.767 309.434L170.4 308.501C167.9 307.367 165.6 305.901 163.533 304.167L163.067 303.767C156.5 297.901 153.233 290.634 153.1 281.634C153.1 275.201 155.167 269.067 159.067 263.967C162.867 258.967 168.233 255.267 174.167 253.534C180.2 251.767 191.433 251.701 196.867 253.434C206.733 256.601 213.767 265.634 214.3 275.967C214.333 276.834 214.3 277.701 214.3 278.767C214.2 281.801 214.033 285.934 215.8 291.201C220.767 305.801 234.433 315.634 249.9 315.701C265.367 315.634 279.067 305.767 284 291.201C285.767 285.967 285.6 281.801 285.5 278.767C285.467 277.734 285.433 276.834 285.5 275.967C286.067 265.634 293.067 256.567 302.933 253.434C308.367 251.701 319.6 251.734 325.633 253.534C331.6 255.301 336.967 259.001 340.733 263.967C344.633 269.067 346.667 275.201 346.7 281.634C346.567 290.667 343.3 297.901 336.733 303.767L336.267 304.167C334.2 305.901 331.9 307.401 329.4 308.501L327.033 309.434L324.833 310.101L322.5 310.634L321.4 310.801C320.4 310.834 319.233 310.867 318.033 310.901H317.967C310.7 311.034 300.733 311.201 293.1 317.834L292.867 318.034C292.467 318.367 292 318.801 291.467 319.267C291.233 319.501 290.967 319.734 290.733 319.967C284.1 326.601 280.5 335.701 280.5 345.101V381.634H351.1V350.601C351.233 349.234 351.333 347.901 351.4 346.701C351.5 345.134 351.633 343.534 351.8 341.867C352.233 337.667 353.433 333.667 355.167 330.601C358.2 325.201 363.1 321.134 368.967 319.134L369.167 319.067L370.233 318.667C372.467 317.867 374.4 317.401 376.7 317.101L377.3 317.034C385.967 316.234 395.033 314.801 402.567 309.701C408.733 305.534 416.067 297.167 416.067 281.101C416.067 265.034 400.933 246.634 378.367 246.634H378.433Z" fill="black"/>
</g>
</g>
<g clip-path="url(#clip1_1308_2520)">
<path d="M399.7 499.503C454.818 499.503 499.5 454.821 499.5 399.703C499.5 344.585 454.818 299.902 399.7 299.902C344.582 299.902 299.899 344.585 299.899 399.703C299.899 454.821 344.582 499.503 399.7 499.503Z" fill="white"/>
<path d="M408.715 387.454L456.071 340.1L438.105 322.137L399.734 360.507L361.362 322.137L343.398 340.1L390.752 387.454C393.232 389.934 396.483 391.175 399.734 391.175C402.984 391.175 406.235 389.935 408.715 387.454ZM477.267 438.041L438.896 399.67L477.267 361.298L459.303 343.335L411.95 390.689C406.99 395.649 406.99 403.692 411.95 408.652L459.303 456.006L477.267 438.041ZM399.668 438.897L438.039 477.268L456.002 459.304L408.649 411.951C403.688 406.99 395.647 406.99 390.685 411.951L343.332 459.304L361.297 477.268L399.668 438.897ZM387.452 408.717C389.835 406.334 391.173 403.104 391.173 399.735C391.173 396.367 389.835 393.135 387.452 390.753L340.099 343.4L322.135 361.365L360.506 399.735L322.135 438.107L340.099 456.071L387.452 408.717Z" fill="black"/>
</g>
<circle cx="400" cy="400" r="97.5" stroke="black" stroke-width="5"/>
<g clip-path="url(#clip2_1308_2520)">
<path d="M100 500C155.228 500 200 455.228 200 400C200 344.772 155.228 300 100 300C44.7715 300 0 344.772 0 400C0 455.228 44.7715 500 100 500Z" fill="white"/>
<path d="M99.9873 327.199L99.0081 330.517V426.791L99.9873 427.766L144.773 401.35L99.9873 327.199Z" fill="#343434"/>
<path d="M99.9871 327.199L55.2 401.35L99.9871 427.766V381.037V327.199Z" fill="#8C8C8C"/>
<path d="M99.9872 436.226L99.4352 436.897V471.191L99.9872 472.799L144.8 409.824L99.9872 436.226Z" fill="#3C3C3B"/>
<path d="M99.9871 472.799V436.226L55.2 409.824L99.9871 472.799Z" fill="#8C8C8C"/>
<path d="M99.9872 427.768L144.773 401.352L99.9872 381.039V427.768Z" fill="#141414"/>
<path d="M55.2 401.352L99.9871 427.768V381.039L55.2 401.352Z" fill="#393939"/>
</g>
<circle cx="100" cy="400" r="97.5" stroke="black" stroke-width="5"/>
<defs>
<clipPath id="clip0_1308_2520">
<rect width="500" height="500" fill="white"/>
</clipPath>
<clipPath id="clip1_1308_2520">
<rect width="200" height="200" fill="white" transform="translate(299.6 299.602)"/>
</clipPath>
<clipPath id="clip2_1308_2520">
<rect width="200" height="200" fill="white" transform="translate(0 300)"/>
</clipPath>
</defs>
</svg>
