<svg width="500" height="503" viewBox="0 0 500 503" fill="none" xmlns="http://www.w3.org/2000/svg">
<g clip-path="url(#clip0_1191_1549)">
<mask id="mask0_1191_1549" style="mask-type:alpha" maskUnits="userSpaceOnUse" x="0" y="0" width="500" height="500">
<rect width="500" height="500" fill="#D9D9D9"/>
</mask>
<g mask="url(#mask0_1191_1549)">
<g clip-path="url(#clip1_1191_1549)">
<mask id="mask1_1191_1549" style="mask-type:luminance" maskUnits="userSpaceOnUse" x="0" y="0" width="500" height="503">
<path d="M500 0H0V503H500V0Z" fill="white"/>
</mask>
<g mask="url(#mask1_1191_1549)">
<path d="M250 503C388.071 503 500 390.399 500 251.5C500 112.601 388.071 0 250 0C111.929 0 0 112.601 0 251.5C0 390.399 111.929 503 250 503Z" fill="#FF0420"/>
<path d="M177.1 318.299C162.2 318.299 150 314.778 140.5 307.736C131.1 300.594 126.4 290.332 126.4 277.154C126.4 274.337 126.7 271.017 127.3 266.993C128.9 257.939 131.2 247.074 134.2 234.298C142.7 199.692 164.7 182.389 200.1 182.389C209.7 182.389 218.4 183.998 226 187.318C233.6 190.437 239.6 195.265 244 201.704C248.4 208.042 250.6 215.587 250.6 224.339C250.6 226.954 250.3 230.274 249.7 234.298C247.8 245.465 245.6 256.43 242.9 266.993C238.5 284.196 231 297.173 220.2 305.724C209.5 314.175 195.1 318.299 177.1 318.299ZM179.8 291.137C186.8 291.137 192.7 289.025 197.6 284.9C202.6 280.775 206.2 274.438 208.3 265.786C211.2 253.915 213.4 243.654 214.9 234.801C215.4 232.186 215.7 229.469 215.7 226.653C215.7 215.184 209.8 209.45 197.9 209.45C190.9 209.45 184.9 211.563 179.9 215.687C175 219.812 171.5 226.15 169.4 234.801C167.1 243.252 164.9 253.513 162.6 265.786C162.1 268.301 161.8 270.917 161.8 273.733C161.7 285.403 167.8 291.137 179.8 291.137Z" fill="white"/>
<path d="M259.3 316.487C257.9 316.487 256.9 316.085 256.1 315.179C255.5 314.173 255.3 313.067 255.5 311.759L281.4 189.027C281.6 187.619 282.3 186.512 283.5 185.607C284.6 184.701 285.8 184.299 287.1 184.299H337C350.9 184.299 362 187.216 370.4 192.95C378.9 198.785 383.2 207.135 383.2 218.1C383.2 221.219 382.8 224.539 382.1 227.959C379 242.446 372.7 253.109 363.1 260.051C353.7 266.992 340.8 270.412 324.4 270.412H299.1L290.5 311.759C290.2 313.167 289.6 314.274 288.4 315.179C287.3 316.085 286.1 316.487 284.8 316.487H259.3ZM325.7 244.357C331 244.357 335.5 242.949 339.4 240.031C343.4 237.114 346 232.989 347.3 227.557C347.7 225.444 347.9 223.533 347.9 221.923C347.9 218.302 346.8 215.485 344.7 213.573C342.6 211.561 338.9 210.555 333.8 210.555H311.3L304.2 244.357H325.7Z" fill="white"/>
</g>
</g>
</g>
</g>
<g clip-path="url(#clip2_1191_1549)">
<path d="M399.7 499.499C454.818 499.499 499.5 454.817 499.5 399.699C499.5 344.581 454.818 299.898 399.7 299.898C344.582 299.898 299.899 344.581 299.899 399.699C299.899 454.817 344.582 499.499 399.7 499.499Z" fill="white"/>
<path d="M408.715 387.452L456.071 340.098L438.105 322.135L399.734 360.506L361.362 322.135L343.398 340.098L390.752 387.452C393.232 389.932 396.483 391.173 399.734 391.173C402.984 391.173 406.235 389.933 408.715 387.452ZM477.267 438.039L438.896 399.668L477.267 361.296L459.303 343.333L411.95 390.687C406.99 395.647 406.99 403.69 411.95 408.65L459.303 456.004L477.267 438.039ZM399.668 438.895L438.039 477.266L456.002 459.302L408.649 411.949C403.688 406.988 395.647 406.988 390.685 411.949L343.332 459.302L361.297 477.266L399.668 438.895ZM387.452 408.715C389.835 406.332 391.173 403.102 391.173 399.733C391.173 396.365 389.835 393.133 387.452 390.751L340.099 343.398L322.135 361.363L360.506 399.733L322.135 438.105L340.099 456.069L387.452 408.715Z" fill="black"/>
</g>
<circle cx="400" cy="400" r="97.5" stroke="black" stroke-width="5"/>
<defs>
<clipPath id="clip0_1191_1549">
<rect width="500" height="503" rx="250" fill="white"/>
</clipPath>
<clipPath id="clip1_1191_1549">
<rect width="500" height="503" fill="white"/>
</clipPath>
<clipPath id="clip2_1191_1549">
<rect width="200" height="200" fill="white" transform="translate(299.6 299.6)"/>
</clipPath>
</defs>
</svg>
