<svg width="200" height="201" viewBox="0 0 200 201" fill="none" xmlns="http://www.w3.org/2000/svg">
<path d="M191.136 35.3552C189.1 27.5149 182.556 19.6746 170.777 10.9468C161.323 3.99408 151.289 0 143.291 0C141.691 0 140.237 0.147924 138.783 0.443781C135.147 1.18341 131.947 3.84617 129.912 7.84027C127.44 12.574 126.858 18.935 128.458 22.7811C129.039 23.9646 129.766 25.4439 130.639 26.7752C122.931 31.509 118.568 32.8404 117.986 32.9883C138.056 39.793 154.78 53.9943 165.25 72.4855L165.396 70.7104C165.832 65.8286 167.286 60.2073 169.323 54.4381C171.358 55.0298 173.394 55.3257 175.43 55.3257C180.811 55.3257 185.464 53.1067 188.373 49.1126C191.282 45.1186 192.444 39.793 191.136 35.3552Z" fill="#5E12A0"/>
<path d="M170.197 50.1518C183.43 53.85 188.811 43.4949 187.065 36.5423C185.175 29.5895 179.067 22.4889 168.305 14.5007C157.544 6.51255 146.638 3.25807 139.657 4.73731C132.677 6.21664 130.641 17.0155 132.385 21.1575C133.113 22.7847 134.712 25.1516 136.894 27.8144C134.131 29.7375 131.513 31.2167 129.332 32.5481C142.711 38.6132 154.345 48.0807 163.07 59.9151C164.088 55.921 165.543 52.3706 166.852 49.2642C167.869 49.4121 169.033 49.708 170.197 50.1518Z" fill="url(#paint0_radial_914_48)"/>
<path d="M94.4238 195.129C139.32 195.129 175.717 158.106 175.717 112.437C175.717 66.7669 139.32 29.7441 94.4238 29.7441C49.527 29.7441 13.1309 66.7669 13.1309 112.437C13.1309 158.106 49.527 195.129 94.4238 195.129Z" fill="url(#paint1_radial_914_48)"/>
<path opacity="0.6" d="M180.377 29.733C169.324 17.8987 160.017 14.7922 148.819 12.2774C140.094 10.2064 142.42 5.17673 153.037 6.21226C147.947 4.43712 143.148 3.99331 139.657 4.73292C132.677 6.21226 130.641 17.0111 132.386 21.1531C133.113 22.7804 134.713 25.1472 136.895 27.81C132.968 30.4727 129.623 32.3958 126.859 33.8751C128.169 34.4668 129.768 35.2064 131.658 36.242C136.603 38.9047 141.984 43.3425 141.984 43.3425C133.84 36.242 135.585 32.9875 146.783 24.9993C150.274 22.4845 156.672 22.7804 162.635 25.8869C168.597 28.9934 175.577 36.8337 175.577 36.8337L168.888 49.8515C169.324 49.9994 169.76 50.1473 170.197 50.2953C174.414 51.4787 177.758 51.1828 180.377 50.1474C183.431 48.2243 191.429 41.7154 180.377 29.733Z" fill="#A98698"/>
<path d="M148.673 19.3877C151.582 20.5711 155.363 22.6421 160.017 25.7487C165.543 29.4469 170.342 33.589 173.396 36.8434C168.306 43.6481 164.961 52.9678 162.926 59.4766C163.944 60.956 165.107 62.4352 166.125 63.9145C167.143 60.2163 168.887 54.7429 171.214 49.2695C171.796 49.4174 172.524 49.4174 173.25 49.4174C174.995 49.4174 177.031 49.1216 178.631 47.7901C179.794 46.9026 181.104 45.2754 180.958 42.3168C180.958 39.5061 178.777 35.9559 174.268 31.6659C171.069 28.5594 166.707 25.157 162.344 22.0504C149.837 13.6184 141.111 11.2516 137.185 15.2457C134.567 17.9084 134.858 21.1629 135.73 23.5298C131.077 26.6362 127.15 28.8552 124.533 30.3345C126.278 30.9262 127.878 31.6659 129.623 32.4055C134.276 29.8907 140.966 25.6007 148.673 19.3877ZM176.159 40.5417C176.595 41.2813 176.741 42.0209 176.741 42.4647C176.741 43.7961 176.305 44.2399 176.013 44.5358C175.432 44.9796 174.268 45.2754 173.25 45.2754C174.123 43.5002 175.141 42.0209 176.159 40.5417ZM140.239 18.5001C140.675 18.0563 141.839 17.7604 143.729 18.0563C142.275 19.2398 140.821 20.2753 139.367 21.3108C139.221 20.2753 139.367 19.2398 140.239 18.5001Z" fill="#5E12A0"/>
<path d="M94.4241 24.8691C46.8698 24.8691 8.33203 64.0705 8.33203 112.444C8.33203 160.816 46.8698 200.018 94.4241 200.018C141.978 200.018 180.516 160.816 180.516 112.444C180.516 64.0705 141.833 24.8691 94.4241 24.8691ZM94.4241 195.136C49.4875 195.136 13.1311 158.154 13.1311 112.444C13.1311 66.7332 49.4875 29.7508 94.4241 29.7508C139.36 29.7508 175.718 66.7332 175.718 112.444C175.718 158.154 139.216 195.136 94.4241 195.136Z" fill="#5E12A0"/>
<path opacity="0.6" d="M94.4238 195.129C139.32 195.129 175.717 158.106 175.717 112.437C175.717 66.7669 139.32 29.7441 94.4238 29.7441C49.527 29.7441 13.1309 66.7669 13.1309 112.437C13.1309 158.106 49.527 195.129 94.4238 195.129Z" fill="url(#paint2_linear_914_48)"/>
<path opacity="0.6" d="M93.8508 185.08C49.4959 177.831 19.3928 135.375 26.664 90.2568C29.8635 70.2861 39.7524 53.2742 53.7133 40.9961C33.3537 52.9784 18.2294 73.8365 14.1575 99.2806C7.0316 144.399 37.1347 186.855 81.3441 194.103C106.066 198.245 129.916 190.405 147.513 175.021C131.952 184.192 113.047 188.186 93.8508 185.08Z" fill="#A98698"/>
<path opacity="0.6" d="M107.365 30.9257C86.8602 27.5234 66.9368 32.2571 50.6491 42.7601C50.3582 43.0559 50.0674 43.3518 50.0674 43.3518C56.3207 39.5056 65.4825 36.1033 65.4825 36.1033C41.9236 50.0086 34.6523 65.8371 34.6523 65.8371C43.8142 47.7896 70.7179 35.0677 91.8046 34.1801C112.891 33.2926 126.706 39.6535 143.576 53.411C160.445 67.3164 170.625 95.7185 169.607 118.204C168.735 140.69 157.101 158.885 157.101 158.885C165.099 148.381 169.898 140.69 172.952 132.849C173.534 130.482 174.116 128.116 174.406 125.6C181.678 80.63 151.72 38.1742 107.365 30.9257Z" fill="url(#paint3_linear_914_48)"/>
<path d="M171.644 111.699C171.644 155.042 137.032 190.25 94.4231 190.25C51.8134 190.25 17.0566 155.042 17.0566 111.699H171.644Z" fill="url(#paint4_linear_914_48)"/>
<g opacity="0.6">
<path opacity="0.6" d="M165.534 111.701C165.534 154.009 132.668 188.624 91.3672 190.252C92.3852 190.252 93.4032 190.252 94.4212 190.252C137.031 190.252 171.643 155.044 171.643 111.701H165.534Z" fill="url(#paint5_linear_914_48)"/>
</g>
<g opacity="0.7">
<path opacity="0.7" d="M27.9636 111.701H17.0566C17.0566 155.044 51.668 190.252 94.2777 190.252C96.1682 190.252 97.9133 190.252 99.6585 190.103C59.6664 187.145 27.9636 153.121 27.9636 111.701Z" fill="url(#paint6_linear_914_48)"/>
</g>
<path d="M171.499 112.433C171.499 103.409 156.084 98.2311 135.578 96.4568C120.745 95.273 105.767 96.752 88.6061 102.078C73.7726 106.516 60.3935 105.776 50.65 104.592C28.9815 102.078 17.0566 101.782 17.0566 112.433C17.0566 127.818 47.8868 147.048 94.1323 140.391C117.546 136.989 129.616 130.037 143.432 125.303C158.411 120.273 171.499 120.421 171.499 112.433Z" fill="url(#paint7_linear_914_48)"/>
<path d="M119.727 75.1586C126.956 75.1586 132.815 69.1978 132.815 61.8449C132.815 54.492 126.956 48.5312 119.727 48.5312C112.499 48.5312 106.639 54.492 106.639 61.8449C106.639 69.1978 112.499 75.1586 119.727 75.1586Z" fill="white"/>
<path d="M141.108 85.0708C144.16 85.0708 146.634 82.554 146.634 79.4495C146.634 76.3449 144.16 73.8281 141.108 73.8281C138.056 73.8281 135.582 76.3449 135.582 79.4495C135.582 82.554 138.056 85.0708 141.108 85.0708Z" fill="white"/>
<g opacity="0.6">
<path opacity="0.6" d="M160.884 51.2065C160.738 51.2065 160.593 51.2065 160.593 51.2065C159.72 51.0586 159.139 50.171 159.284 49.1354C160.593 42.3307 166.119 35.8218 166.41 35.5259C166.991 34.7863 168.155 34.7863 168.737 35.378C169.464 35.9697 169.464 37.1532 168.882 37.7449C168.737 37.8928 163.647 43.9579 162.484 49.8752C162.338 50.7627 161.611 51.2065 160.884 51.2065Z" fill="url(#paint8_linear_914_48)"/>
</g>
<path opacity="0.2" d="M89.0603 174.114C91.3091 174.114 93.1322 172.26 93.1322 169.972C93.1322 167.684 91.3091 165.83 89.0603 165.83C86.8114 165.83 84.9883 167.684 84.9883 169.972C84.9883 172.26 86.8114 174.114 89.0603 174.114Z" fill="white"/>
<g opacity="0.4">
<path opacity="0.6" d="M86.7131 172.673C85.1134 171.045 85.1134 168.383 86.7131 166.756C87.0039 166.459 87.2948 166.312 87.5856 166.016C87.0039 166.164 86.5676 166.459 86.1314 166.903C84.5317 168.531 84.5317 171.194 86.1314 172.82C87.4402 174.152 89.4761 174.448 91.0758 173.56C89.6215 174.152 87.8765 173.857 86.7131 172.673Z" fill="url(#paint9_linear_914_48)"/>
</g>
<path opacity="0.3" d="M90.4917 168.795C90.9736 168.795 91.3643 168.398 91.3643 167.907C91.3643 167.417 90.9736 167.02 90.4917 167.02C90.0098 167.02 89.6191 167.417 89.6191 167.907C89.6191 168.398 90.0098 168.795 90.4917 168.795Z" fill="white"/>
<path opacity="0.2" d="M110.302 172.05C112.551 172.05 114.374 170.195 114.374 167.908C114.374 165.62 112.551 163.766 110.302 163.766C108.053 163.766 106.23 165.62 106.23 167.908C106.23 170.195 108.053 172.05 110.302 172.05Z" fill="white"/>
<g opacity="0.4">
<path opacity="0.6" d="M107.955 170.608C106.355 168.981 106.355 166.318 107.955 164.69C108.245 164.395 108.537 164.246 108.827 163.951C108.245 164.099 107.809 164.395 107.373 164.839C105.774 166.465 105.774 169.128 107.373 170.756C108.683 172.087 110.718 172.383 112.318 171.495C110.864 172.087 109.119 171.791 107.955 170.608Z" fill="url(#paint10_linear_914_48)"/>
</g>
<path opacity="0.3" d="M111.734 166.729C112.216 166.729 112.606 166.332 112.606 165.842C112.606 165.352 112.216 164.955 111.734 164.955C111.252 164.955 110.861 165.352 110.861 165.842C110.861 166.332 111.252 166.729 111.734 166.729Z" fill="white"/>
<path opacity="0.2" d="M99.798 181.677C101.485 181.677 102.852 180.287 102.852 178.572C102.852 176.855 101.485 175.465 99.798 175.465C98.1114 175.465 96.7441 176.855 96.7441 178.572C96.7441 180.287 98.1114 181.677 99.798 181.677Z" fill="white"/>
<g opacity="0.4">
<path opacity="0.6" d="M98.0529 180.515C96.8896 179.331 96.8896 177.26 98.0529 176.077C98.1984 175.929 98.4892 175.781 98.6346 175.633C98.1984 175.781 97.9075 176.077 97.6166 176.373C96.4533 177.556 96.4533 179.627 97.6166 180.811C98.6346 181.846 100.089 181.994 101.398 181.255C100.234 181.699 98.9255 181.402 98.0529 180.515Z" fill="url(#paint11_linear_914_48)"/>
</g>
<path opacity="0.3" d="M100.822 177.524C101.143 177.524 101.403 177.259 101.403 176.932C101.403 176.606 101.143 176.34 100.822 176.34C100.501 176.34 100.24 176.606 100.24 176.932C100.24 177.259 100.501 177.524 100.822 177.524Z" fill="white"/>
<path opacity="0.2" d="M118.565 179.445C120.252 179.445 121.619 178.054 121.619 176.339C121.619 174.623 120.252 173.232 118.565 173.232C116.879 173.232 115.512 174.623 115.512 176.339C115.512 178.054 116.879 179.445 118.565 179.445Z" fill="white"/>
<g opacity="0.4">
<path opacity="0.6" d="M116.821 178.282C115.658 177.098 115.658 175.028 116.821 173.844C116.966 173.697 117.257 173.549 117.403 173.4C116.966 173.549 116.675 173.844 116.385 174.14C115.221 175.323 115.221 177.395 116.385 178.578C117.403 179.614 118.857 179.761 120.166 179.022C119.003 179.466 117.693 179.17 116.821 178.282Z" fill="url(#paint12_linear_914_48)"/>
</g>
<path opacity="0.3" d="M119.592 175.309C119.914 175.309 120.174 175.044 120.174 174.716C120.174 174.39 119.914 174.125 119.592 174.125C119.271 174.125 119.01 174.39 119.01 174.716C119.01 175.044 119.271 175.309 119.592 175.309Z" fill="white"/>
<path opacity="0.2" d="M71.7365 172.651C75.4311 172.651 78.426 169.604 78.426 165.846C78.426 162.088 75.4311 159.041 71.7365 159.041C68.0419 159.041 65.0469 162.088 65.0469 165.846C65.0469 169.604 68.0419 172.651 71.7365 172.651Z" fill="white"/>
<g opacity="0.4">
<path opacity="0.6" d="M67.957 170.118C65.3392 167.455 65.3392 163.165 67.957 160.503C68.3932 160.059 68.8295 159.763 69.4111 159.467C68.5387 159.763 67.8115 160.354 67.0844 160.947C64.4667 163.609 64.4667 167.899 67.0844 170.562C69.2657 172.781 72.6106 173.225 75.2282 171.597C72.756 172.632 69.8474 172.189 67.957 170.118Z" fill="url(#paint13_linear_914_48)"/>
</g>
<path opacity="0.3" d="M74.0715 163.765C74.8746 163.765 75.5257 163.103 75.5257 162.286C75.5257 161.469 74.8746 160.807 74.0715 160.807C73.2682 160.807 72.6172 161.469 72.6172 162.286C72.6172 163.103 73.2682 163.765 74.0715 163.765Z" fill="white"/>
<path opacity="0.2" d="M131.539 155.928C135.234 155.928 138.229 152.881 138.229 149.123C138.229 145.365 135.234 142.318 131.539 142.318C127.845 142.318 124.85 145.365 124.85 149.123C124.85 152.881 127.845 155.928 131.539 155.928Z" fill="white"/>
<g opacity="0.4">
<path opacity="0.6" d="M127.574 153.415C124.956 150.752 124.956 146.463 127.574 143.8C128.01 143.356 128.447 143.06 129.029 142.764C128.155 143.06 127.429 143.651 126.702 144.244C124.084 146.907 124.084 151.196 126.702 153.859C128.883 156.078 132.228 156.522 134.846 154.894C132.373 155.93 129.609 155.487 127.574 153.415Z" fill="url(#paint14_linear_914_48)"/>
</g>
<path opacity="0.3" d="M133.837 147.063C134.641 147.063 135.291 146.4 135.291 145.583C135.291 144.765 134.641 144.104 133.837 144.104C133.034 144.104 132.383 144.765 132.383 145.583C132.383 146.4 133.034 147.063 133.837 147.063Z" fill="white"/>
<defs>
<radialGradient id="paint0_radial_914_48" cx="0" cy="0" r="1" gradientUnits="userSpaceOnUse" gradientTransform="translate(184.413 27.2225) scale(64.9971 66.1163)">
<stop stop-color="#FFEAFF" stop-opacity="0.6"/>
<stop offset="0.6807" stop-color="#A087C9"/>
<stop offset="1" stop-color="#10002F"/>
</radialGradient>
<radialGradient id="paint1_radial_914_48" cx="0" cy="0" r="1" gradientUnits="userSpaceOnUse" gradientTransform="translate(167.394 97.7512) scale(182.033 196.934)">
<stop stop-color="#FFEAFF" stop-opacity="0.6"/>
<stop offset="0.6807" stop-color="#A087C9"/>
<stop offset="1" stop-color="#10002F"/>
</radialGradient>
<linearGradient id="paint2_linear_914_48" x1="81.3838" y1="193.957" x2="108.265" y2="30.9251" gradientUnits="userSpaceOnUse">
<stop stop-color="#81FFFF"/>
<stop offset="0.6202" stop-color="white" stop-opacity="0"/>
</linearGradient>
<linearGradient id="paint3_linear_914_48" x1="151.713" y1="56.2758" x2="83.4438" y2="117.855" gradientUnits="userSpaceOnUse">
<stop offset="0.2888" stop-color="white"/>
<stop offset="0.7796" stop-color="white" stop-opacity="0"/>
</linearGradient>
<linearGradient id="paint4_linear_914_48" x1="17.1221" y1="150.928" x2="171.607" y2="150.928" gradientUnits="userSpaceOnUse">
<stop stop-color="#0002E9"/>
<stop offset="0.9952" stop-color="#FF00C7"/>
</linearGradient>
<linearGradient id="paint5_linear_914_48" x1="178.918" y1="118.594" x2="93.4793" y2="197.971" gradientUnits="userSpaceOnUse">
<stop offset="0.2888" stop-color="white"/>
<stop offset="0.7796" stop-color="white" stop-opacity="0"/>
</linearGradient>
<linearGradient id="paint6_linear_914_48" x1="17.1221" y1="150.93" x2="99.7705" y2="150.93" gradientUnits="userSpaceOnUse">
<stop stop-color="#000292"/>
<stop offset="0.9952" stop-color="#7D00C7"/>
</linearGradient>
<linearGradient id="paint7_linear_914_48" x1="17.2258" y1="118.959" x2="171.503" y2="118.959" gradientUnits="userSpaceOnUse">
<stop stop-color="#000292"/>
<stop offset="0.9952" stop-color="#BE00C7"/>
</linearGradient>
<linearGradient id="paint8_linear_914_48" x1="168.973" y1="34.8055" x2="157.608" y2="52.9608" gradientUnits="userSpaceOnUse">
<stop offset="0.2888" stop-color="white"/>
<stop offset="0.7796" stop-color="white" stop-opacity="0"/>
</linearGradient>
<linearGradient id="paint9_linear_914_48" x1="84.9275" y1="170.137" x2="91.0803" y2="170.137" gradientUnits="userSpaceOnUse">
<stop offset="0.2888" stop-color="white"/>
<stop offset="0.7796" stop-color="white" stop-opacity="0"/>
</linearGradient>
<linearGradient id="paint10_linear_914_48" x1="106.155" y1="168.044" x2="112.307" y2="168.044" gradientUnits="userSpaceOnUse">
<stop offset="0.2888" stop-color="white"/>
<stop offset="0.7796" stop-color="white" stop-opacity="0"/>
</linearGradient>
<linearGradient id="paint11_linear_914_48" x1="96.6623" y1="178.621" x2="101.282" y2="178.621" gradientUnits="userSpaceOnUse">
<stop offset="0.2888" stop-color="white"/>
<stop offset="0.7796" stop-color="white" stop-opacity="0"/>
</linearGradient>
<linearGradient id="paint12_linear_914_48" x1="115.43" y1="176.389" x2="120.049" y2="176.389" gradientUnits="userSpaceOnUse">
<stop offset="0.2888" stop-color="white"/>
<stop offset="0.7796" stop-color="white" stop-opacity="0"/>
</linearGradient>
<linearGradient id="paint13_linear_914_48" x1="65.0544" y1="166.002" x2="75.1024" y2="166.002" gradientUnits="userSpaceOnUse">
<stop offset="0.2888" stop-color="white"/>
<stop offset="0.7796" stop-color="white" stop-opacity="0"/>
</linearGradient>
<linearGradient id="paint14_linear_914_48" x1="124.728" y1="149.293" x2="134.775" y2="149.293" gradientUnits="userSpaceOnUse">
<stop offset="0.2888" stop-color="white"/>
<stop offset="0.7796" stop-color="white" stop-opacity="0"/>
</linearGradient>
</defs>
</svg>
