<svg width="20" height="20" viewBox="0 0 20 20" fill="none" xmlns="http://www.w3.org/2000/svg">
<g clip-path="url(#clip0)">
<path d="M10.0001 18.9554C14.946 18.9554 18.9554 14.946 18.9554 10.0001C18.9554 5.05431 14.946 1.04492 10.0001 1.04492C5.05431 1.04492 1.04492 5.05431 1.04492 10.0001C1.04492 14.946 5.05431 18.9554 10.0001 18.9554Z" fill="white"/>
<path d="M10.0009 19.9501C8.03295 19.9501 6.10919 19.3665 4.47291 18.2732C2.83662 17.1798 1.5613 15.6258 0.808196 13.8077C0.0550961 11.9895 -0.141952 9.98886 0.24197 8.05872C0.625891 6.12858 1.57354 4.35562 2.96508 2.96406C3.88577 2.02567 4.98329 1.27904 6.19421 0.767285C7.40514 0.255534 8.70547 -0.0111862 10.0201 -0.0174646C11.3347 -0.0237431 12.6375 0.230545 13.8533 0.730706C15.069 1.23087 16.1736 1.96699 17.1032 2.89653C18.0329 3.82608 18.7691 4.93063 19.2693 6.14635C19.7695 7.36208 20.0239 8.66488 20.0177 9.97949C20.0116 11.2941 19.7449 12.5944 19.2333 13.8054C18.7216 15.0164 17.975 16.1139 17.0367 17.0347C16.115 17.9618 15.0186 18.6968 13.8109 19.1972C12.6032 19.6977 11.3082 19.9536 10.0009 19.9501V19.9501ZM10.0009 1.47052C8.31419 1.47052 6.66536 1.97068 5.2629 2.90774C3.86044 3.84481 2.76734 5.1767 2.12182 6.73499C1.4763 8.29329 1.30735 10.008 1.63634 11.6623C1.96533 13.3166 2.77747 14.8362 3.97009 16.029C5.1627 17.2217 6.68222 18.0341 8.33649 18.3633C9.99076 18.6924 11.7055 18.5237 13.2639 17.8783C14.8222 17.233 16.1543 16.1401 17.0915 14.7377C18.0287 13.3354 18.5291 11.6866 18.5293 9.99988C18.5269 7.73865 17.6276 5.5707 16.0288 3.97168C14.43 2.37266 12.2621 1.47316 10.0009 1.47052V1.47052Z" fill="#5E12A0"/>
<path opacity="0.41" d="M9.28959 19.9264V18.4995C9.52441 18.5188 9.76156 18.5284 10.001 18.5284C10.2405 18.5284 10.4773 18.5188 10.7115 18.4995V19.9264C10.476 19.943 10.2392 19.9513 10.001 19.9513C9.76289 19.9513 9.52574 19.943 9.28959 19.9264ZM15.5055 16.5095C15.8673 16.2027 16.2031 15.8666 16.5095 15.5045L17.5204 16.5165C17.3659 16.6949 17.2043 16.868 17.0359 17.0359C16.8674 17.2037 16.6942 17.3652 16.5165 17.5204L15.5055 16.5095ZM2.96819 17.0359C2.7997 16.8674 2.63785 16.6942 2.48262 16.5165L3.49357 15.5045C3.80029 15.8666 4.13642 16.2028 4.49854 16.5095L3.48561 17.5204C3.30717 17.3665 3.1337 17.205 2.96521 17.0359H2.96819ZM18.5025 10.7115C18.5224 10.4767 18.5324 10.2398 18.5324 10C18.5324 9.76023 18.5224 9.52441 18.5035 9.28959H19.9304C19.9443 9.52441 19.9513 9.76156 19.9513 10.001C19.9513 10.2405 19.943 10.4776 19.9264 10.7125L18.5025 10.7115ZM0.0786419 10.7115C0.0600681 10.476 0.0507812 10.2392 0.0507812 10.001C0.0507812 9.76289 0.0590731 9.52607 0.0756569 9.29058H1.50252C1.48329 9.52541 1.47367 9.76222 1.47367 10.001C1.47367 10.2408 1.48362 10.4776 1.50352 10.7125L0.0786419 10.7115ZM2.48063 3.48561C2.63519 3.30717 2.79705 3.13403 2.9662 2.9662C3.13536 2.79838 3.30882 2.63652 3.4866 2.48063L4.49655 3.49058C4.13454 3.79742 3.79842 4.13355 3.49158 4.49556L2.48063 3.48561ZM15.5055 3.49158L16.5165 2.48063C16.6942 2.63586 16.8677 2.79771 17.0368 2.9662C17.206 3.13469 17.3675 3.30783 17.5214 3.48561L16.5105 4.49556C16.2037 4.13376 15.8676 3.79796 15.5055 3.49158V3.49158ZM9.28959 0.0756569C9.52508 0.0590731 9.76222 0.0507812 10.001 0.0507812C10.2398 0.0507812 10.4767 0.0590731 10.7115 0.0756569V1.50053C10.4773 1.4813 10.2405 1.47168 10.001 1.47168C9.76156 1.47168 9.52441 1.48163 9.28959 1.50153V0.0756569Z" fill="white" stroke="white" stroke-width="0.1"/>
<path d="M15.3243 5.9683C15.2056 5.51893 14.8239 5.06943 14.1371 4.56904C13.5858 4.17044 13.0006 3.94141 12.5342 3.94141C12.4409 3.94141 12.3561 3.94997 12.2712 3.96685C12.0593 4.00931 11.8727 4.162 11.754 4.3909C11.6098 4.66227 11.5759 5.0271 11.6691 5.24744C11.7031 5.31535 11.7454 5.40013 11.7963 5.47647C11.3468 5.74784 11.0925 5.82418 11.0586 5.83262C12.2288 6.2229 13.2042 7.03699 13.8148 8.09711L13.8234 7.99532C13.8487 7.7154 13.9335 7.39314 14.0521 7.06244C14.1709 7.09633 14.2897 7.11333 14.4084 7.11333C14.7222 7.11333 14.9936 6.9861 15.1633 6.75706C15.3329 6.52816 15.4006 6.22278 15.3244 5.9683H15.3243Z" fill="#5E12A0"/>
<path d="M14.1 6.82265C14.8717 7.03467 15.1855 6.44105 15.0836 6.04245C14.9735 5.64385 14.6172 5.2368 13.9897 4.77887C13.3621 4.3208 12.726 4.13423 12.319 4.21914C11.9119 4.30392 11.7931 4.92299 11.8949 5.16046C11.9373 5.25381 12.0306 5.38949 12.1579 5.54218C11.9967 5.65229 11.844 5.7372 11.7168 5.81342C12.4971 6.16125 13.1755 6.70397 13.6844 7.3825C13.7437 7.15347 13.8286 6.94989 13.9048 6.77187C13.9643 6.78031 14.0321 6.7972 14.1 6.82265Z" fill="url(#paint0_radial)"/>
<path d="M9.68229 15.1319C12.3005 15.1319 14.4231 13.0093 14.4231 10.391C14.4231 7.77284 12.3005 5.65039 9.68217 5.65039C7.06398 5.65039 4.94141 7.77284 4.94141 10.3912C4.94141 13.0093 7.0641 15.1319 9.68229 15.1319Z" fill="url(#paint1_radial)"/>
<path opacity="0.6" d="M14.6971 5.65203C14.0526 4.97362 13.5098 4.79561 12.8569 4.65124C12.3479 4.53257 12.4837 4.24432 13.1028 4.30366C12.806 4.20187 12.5261 4.17642 12.3225 4.21888C11.9154 4.30366 11.7968 4.92273 11.8986 5.1602C11.9409 5.25355 12.0342 5.38923 12.1614 5.54192C11.9324 5.69448 11.7373 5.80472 11.5762 5.8895C11.6525 5.92351 11.7459 5.96585 11.8561 6.02531C12.1445 6.17787 12.4583 6.43235 12.4583 6.43235C11.9833 6.02518 12.0851 5.83873 12.7381 5.38067C12.9417 5.23654 13.3148 5.25343 13.6625 5.43156C14.0102 5.6097 14.4174 6.0592 14.4174 6.0592L14.0271 6.8055L14.1035 6.83095C14.3494 6.89873 14.5445 6.88185 14.6972 6.82239C14.8752 6.71228 15.3417 6.33912 14.6972 5.65203H14.6971Z" fill="#A98698"/>
<path d="M12.8435 5.06076C13.0131 5.12854 13.2335 5.24721 13.5049 5.42535C13.8272 5.63737 14.1071 5.87484 14.2851 6.06142C13.9883 6.45158 13.7933 6.98574 13.6746 7.35902C13.7339 7.4438 13.8018 7.52859 13.861 7.6135C13.9205 7.40135 14.0222 7.08753 14.158 6.77384C14.1919 6.78228 14.2342 6.78228 14.2767 6.78228C14.3784 6.78228 14.4971 6.76527 14.5905 6.68893C14.6582 6.63804 14.7346 6.54481 14.7261 6.37524C14.7261 6.21399 14.5989 6.01053 14.336 5.76461C14.1494 5.58648 13.8951 5.39146 13.6406 5.21332C12.9113 4.72994 12.4024 4.59425 12.1734 4.82316C12.0207 4.97585 12.0376 5.16243 12.0886 5.29811C11.8173 5.47624 11.5882 5.60348 11.4355 5.68827C11.5373 5.72216 11.6307 5.76461 11.7324 5.80694C12.0038 5.66282 12.3939 5.4169 12.8434 5.06063L12.8435 5.06076ZM14.4462 6.27345C14.4717 6.31578 14.4802 6.35823 14.4802 6.38356C14.4802 6.46002 14.4548 6.48547 14.4378 6.50235C14.4039 6.5278 14.336 6.54481 14.2767 6.54481C14.3275 6.44302 14.3869 6.35823 14.4462 6.27345ZM12.3517 5.00974C12.3771 4.98429 12.4449 4.96741 12.5551 4.98429C12.4703 5.05219 12.3856 5.11153 12.3007 5.17087C12.2922 5.11153 12.3007 5.05219 12.3517 5.00974Z" fill="#5E12A0"/>
<path d="M9.68072 5.37109C6.90752 5.37109 4.66016 7.61858 4.66016 10.3918C4.66016 13.165 6.90764 15.4124 9.68072 15.4124C12.4541 15.4124 14.7014 13.165 14.7014 10.3918C14.7014 7.61858 12.4455 5.37109 9.68072 5.37109ZM9.68072 15.1325C7.06021 15.1325 4.93996 13.0123 4.93996 10.3917C4.93996 7.77114 7.06021 5.65102 9.68085 5.65102C12.3014 5.65102 14.4216 7.77127 14.4216 10.3918C14.4216 13.0124 12.2928 15.1325 9.68072 15.1325Z" fill="#5E12A0"/>
<path opacity="0.6" d="M9.68229 15.1319C12.3005 15.1319 14.4232 13.0093 14.4232 10.391C14.4232 7.77284 12.3005 5.65039 9.68229 5.65039C7.0641 5.65039 4.94141 7.77284 4.94141 10.391C4.94141 13.0092 7.0641 15.1318 9.68229 15.1318V15.1319Z" fill="url(#paint2_linear)"/>
<path opacity="0.6" d="M9.64973 14.5552C7.0631 14.1397 5.30756 11.7058 5.73161 9.11902C5.91819 7.97411 6.4948 6.99878 7.30901 6.29492C6.12177 6.98189 5.23966 8.1777 5.00231 9.63618C4.5867 12.223 6.34224 14.657 8.92043 15.0726C10.3621 15.3099 11.753 14.8606 12.7792 13.9786C11.8718 14.5043 10.7692 14.7333 9.64973 14.5552Z" fill="#A98698"/>
<path opacity="0.6" d="M10.4357 5.72262C9.23988 5.5276 8.07809 5.79896 7.1282 6.40114L7.09418 6.43503C7.4589 6.21457 7.99318 6.01943 7.99318 6.01943C6.61924 6.81663 6.19531 7.72407 6.19531 7.72407C6.7296 6.68939 8.29843 5.96009 9.52825 5.90919C10.7579 5.8583 11.5636 6.22301 12.5474 7.01177C13.5311 7.80885 14.1249 9.43727 14.0656 10.7263C14.0147 12.0155 13.3361 13.0586 13.3361 13.0586C13.8026 12.4564 14.0824 12.0155 14.2606 11.566C14.2945 11.4302 14.3283 11.2946 14.3454 11.1503C14.7694 8.57216 13.0223 6.13822 10.4357 5.72262Z" fill="url(#paint3_linear)"/>
<path d="M14.189 10.3438C14.189 12.8286 12.1705 14.8472 9.68556 14.8472C7.20072 14.8472 5.17383 12.8287 5.17383 10.3438H14.189Z" fill="url(#paint4_linear)"/>
<path opacity="0.6" d="M13.8271 10.3438C13.8271 12.7692 11.9104 14.7538 9.50195 14.8472H9.67997C12.1648 14.8472 14.1834 12.8287 14.1834 10.3438H13.8271Z" fill="url(#paint5_linear)"/>
<path opacity="0.7" d="M5.80807 10.3438H5.17188C5.17188 12.8286 7.19033 14.8472 9.67529 14.8472C9.78552 14.8472 9.88731 14.8472 9.9891 14.8386C7.65683 14.669 5.80807 12.7184 5.80807 10.3438Z" fill="url(#paint6_linear)"/>
<path d="M14.1805 10.3909C14.1805 9.87362 13.2815 9.57681 12.0857 9.47502C11.2208 9.40724 10.3472 9.49202 9.34642 9.79727C8.48144 10.0518 7.70112 10.0093 7.13295 9.94152C5.86936 9.79727 5.17383 9.78039 5.17383 10.3909C5.17383 11.2729 6.97182 12.3753 9.6688 11.9936C11.0342 11.7987 11.738 11.4001 12.5438 11.1286C13.4173 10.8404 14.1805 10.8488 14.1805 10.3909Z" fill="url(#paint7_linear)"/>
<path d="M11.1618 8.25514C11.5834 8.25514 11.9251 7.91343 11.9251 7.49195C11.9251 7.07035 11.5834 6.72852 11.1618 6.72852C10.7403 6.72852 10.3984 7.07035 10.3984 7.49195C10.3984 7.91343 10.7403 8.25514 11.1619 8.25514H11.1618ZM12.4085 8.82344C12.5865 8.82344 12.7307 8.67907 12.7307 8.50118C12.7307 8.32317 12.5863 8.1788 12.4085 8.1788C12.2304 8.1788 12.0862 8.32317 12.0862 8.50118C12.0862 8.67907 12.2306 8.82344 12.4085 8.82344Z" fill="white"/>
<path opacity="0.6" d="M13.5613 6.87731H13.5444C13.4935 6.86874 13.4596 6.81797 13.4681 6.75863C13.5444 6.36835 13.8667 5.9952 13.8837 5.97831C13.9176 5.93586 13.9855 5.93586 14.0194 5.96975C14.0617 6.00376 14.0617 6.07154 14.0279 6.10555C14.0194 6.11412 13.7226 6.4617 13.6547 6.80096C13.6461 6.85186 13.6038 6.87731 13.5613 6.87731Z" fill="url(#paint8_linear)"/>
<path d="M12.5314 3.9449C13.0063 3.9449 13.5915 4.17393 14.1342 4.57254C14.8212 5.07293 15.2028 5.51386 15.3216 5.97192C15.3894 6.23484 15.3301 6.53165 15.1604 6.75212C14.9823 6.98115 14.7194 7.10827 14.4056 7.10827C14.2955 7.10827 14.1767 7.09139 14.0494 7.05737C13.9731 7.25251 13.9136 7.44766 13.8713 7.63411C14.3887 8.42287 14.6939 9.37264 14.6939 10.3904C14.6939 13.1636 12.4465 15.411 9.67338 15.411C6.90005 15.411 4.66113 13.1636 4.66113 10.3904C4.66113 7.61723 6.90862 5.36974 9.68182 5.36974C10.2923 5.36974 10.8776 5.47997 11.4203 5.68356C11.5221 5.63266 11.6494 5.56488 11.7935 5.47997C11.7426 5.40363 11.6917 5.32729 11.6663 5.25106C11.573 5.02203 11.6069 4.66589 11.7512 4.3944C11.8698 4.17393 12.048 4.02125 12.2684 3.97035C12.3448 3.95347 12.438 3.9449 12.5314 3.9449ZM12.5314 3.80078C12.4296 3.80078 12.3278 3.80935 12.2346 3.83467C11.9801 3.89413 11.7596 4.0637 11.6155 4.33506C11.4544 4.64888 11.4119 5.05592 11.5221 5.31884C11.5391 5.35273 11.556 5.39519 11.5815 5.43752C11.5221 5.47153 11.4628 5.50542 11.4033 5.53087C10.8436 5.33585 10.267 5.23406 9.67338 5.23406C8.97784 5.23406 8.29944 5.36974 7.66324 5.6411C7.04417 5.90414 6.49301 6.2773 6.01806 6.75212C5.54312 7.22707 5.16996 7.77823 4.90717 8.39742C4.63556 9.0335 4.5 9.7119 4.5 10.4073C4.5 11.1027 4.6358 11.7813 4.90704 12.4173C5.17009 13.0364 5.54324 13.5877 6.01806 14.0626C6.49301 14.5376 7.0443 14.9107 7.66336 15.1735C8.29944 15.445 8.97784 15.5807 9.67326 15.5807C10.3688 15.5807 11.0472 15.4449 11.6834 15.1736C12.3025 14.9106 12.8536 14.5375 13.3286 14.0626C13.8035 13.5877 14.1767 13.0364 14.4395 12.4173C14.711 11.7813 14.8466 11.1028 14.8466 10.4073C14.8466 9.41509 14.5667 8.45676 14.0324 7.62567C14.0579 7.49843 14.1003 7.37119 14.1427 7.24395C14.2276 7.26108 14.3208 7.2694 14.4057 7.2694C14.7617 7.2694 15.0757 7.12527 15.2792 6.85391C15.4743 6.59943 15.5505 6.24329 15.4657 5.94648C15.33 5.45465 14.94 4.98814 14.219 4.47075C13.6508 4.03825 13.0318 3.80078 12.5314 3.80078Z" fill="white"/>
<path opacity="0.2" d="M9.3665 13.932C9.49753 13.932 9.60385 13.8255 9.60385 13.6945C9.60385 13.5633 9.49753 13.457 9.3665 13.457C9.23522 13.457 9.12891 13.5633 9.12891 13.6944C9.12891 13.8257 9.23535 13.932 9.36638 13.932H9.3665Z" fill="white"/>
<g opacity="0.4">
<path opacity="0.6" d="M9.23281 13.8387C9.13946 13.7454 9.13946 13.5928 9.23281 13.4995C9.24981 13.4825 9.2667 13.474 9.2837 13.457C9.24981 13.4656 9.22437 13.4825 9.19892 13.5079C9.10557 13.6013 9.10557 13.7538 9.19892 13.8472C9.27526 13.9235 9.39394 13.9404 9.48729 13.8896C9.40238 13.9235 9.30059 13.9065 9.23281 13.8387Z" fill="url(#paint9_linear)"/>
</g>
<path opacity="0.3" d="M9.45519 13.6252C9.48333 13.6252 9.50609 13.6025 9.50609 13.5743C9.50609 13.5462 9.48333 13.5234 9.45519 13.5234C9.42705 13.5234 9.4043 13.5463 9.4043 13.5743C9.4043 13.6025 9.42718 13.6252 9.45519 13.6252Z" fill="white"/>
<path opacity="0.2" d="M10.6086 13.8031C10.7397 13.8031 10.8459 13.6968 10.8459 13.5657C10.8459 13.4344 10.7397 13.3281 10.6086 13.3281C10.4774 13.3281 10.3711 13.4346 10.3711 13.5656C10.3711 13.6968 10.4774 13.8031 10.6084 13.8031H10.6086Z" fill="white"/>
<g opacity="0.4">
<path opacity="0.6" d="M10.4711 13.7253C10.3778 13.6321 10.3778 13.4794 10.4711 13.3861C10.488 13.3692 10.505 13.3606 10.522 13.3438C10.488 13.3522 10.4626 13.3692 10.4371 13.3946C10.3439 13.4879 10.3439 13.6406 10.4371 13.7338C10.5135 13.8101 10.6322 13.8271 10.7255 13.7762C10.6407 13.8101 10.5389 13.7931 10.471 13.7253H10.4711Z" fill="url(#paint10_linear)"/>
</g>
<path opacity="0.3" d="M10.6875 13.5001C10.7156 13.5001 10.7384 13.4775 10.7384 13.4493C10.7384 13.4212 10.7156 13.3984 10.6875 13.3984C10.6594 13.3984 10.6367 13.4212 10.6367 13.4493C10.6367 13.4775 10.6595 13.5002 10.6875 13.5002V13.5001Z" fill="white"/>
<path opacity="0.2" d="M9.99454 14.3561C10.0929 14.3561 10.1727 14.2764 10.1727 14.178C10.1727 14.0796 10.0929 14 9.99454 14C9.89618 14 9.81641 14.0796 9.81641 14.178C9.81641 14.2764 9.89618 14.3561 9.99454 14.3561Z" fill="white"/>
<g opacity="0.4">
<path opacity="0.6" d="M9.89269 14.2956C9.82491 14.2276 9.82491 14.109 9.89269 14.0411C9.90125 14.0325 9.91814 14.0241 9.9267 14.0156C9.90125 14.0242 9.88425 14.0411 9.86724 14.0581C9.79946 14.1259 9.79946 14.2447 9.86724 14.3126C9.9267 14.3719 10.0115 14.3803 10.0878 14.3379C10.0199 14.3633 9.94358 14.3464 9.89269 14.2956Z" fill="url(#paint11_linear)"/>
</g>
<path opacity="0.3" d="M10.0534 14.1265C10.0721 14.1265 10.0873 14.1113 10.0873 14.0926C10.0873 14.0739 10.0721 14.0586 10.0534 14.0586C10.0347 14.0586 10.0195 14.0739 10.0195 14.0926C10.0195 14.1113 10.0347 14.1265 10.0534 14.1265Z" fill="white"/>
<path opacity="0.2" d="M11.0921 14.2311C11.1904 14.2311 11.2702 14.1515 11.2702 14.053C11.2702 13.9548 11.1904 13.875 11.0921 13.875C10.9937 13.875 10.9141 13.9548 10.9141 14.0531C10.9141 14.1514 10.9937 14.2311 11.0921 14.2311Z" fill="white"/>
<g opacity="0.4">
<path opacity="0.6" d="M10.9903 14.1666C10.9226 14.0987 10.9226 13.9801 10.9903 13.9122C10.9989 13.9036 11.0158 13.8953 11.0242 13.8867C10.9988 13.8953 10.9819 13.9122 10.9649 13.9292C10.8971 13.997 10.8971 14.1157 10.9649 14.1837C11.0242 14.243 11.1091 14.2514 11.1854 14.209C11.1176 14.2344 11.0412 14.2175 10.9903 14.1666Z" fill="url(#paint12_linear)"/>
</g>
<path opacity="0.3" d="M11.1472 13.9975C11.1659 13.9975 11.1812 13.9823 11.1812 13.9636C11.1812 13.9449 11.1659 13.9297 11.1472 13.9297C11.1285 13.9297 11.1133 13.9449 11.1133 13.9636C11.1133 13.9823 11.1285 13.9975 11.1472 13.9975Z" fill="white"/>
<path opacity="0.2" d="M8.35879 13.8427C8.57424 13.8427 8.74895 13.6681 8.74895 13.4527C8.74895 13.2372 8.57424 13.0625 8.35879 13.0625C8.14346 13.0625 7.96875 13.2372 7.96875 13.4527C7.96875 13.668 8.14334 13.8427 8.35879 13.8427Z" fill="white"/>
<g opacity="0.4">
<path opacity="0.6" d="M8.13407 13.7024C7.9815 13.5497 7.9815 13.3038 8.13407 13.1511C8.15952 13.1257 8.18497 13.1088 8.21898 13.0918C8.16808 13.1088 8.12563 13.1427 8.08317 13.1766C7.93061 13.3293 7.93061 13.5752 8.08317 13.7279C8.21041 13.8551 8.40543 13.8806 8.55812 13.7872C8.414 13.8465 8.2443 13.8212 8.13407 13.7024Z" fill="url(#paint13_linear)"/>
</g>
<path opacity="0.3" d="M8.49299 13.3297C8.53985 13.3297 8.57777 13.2918 8.57777 13.2449C8.57777 13.1981 8.53985 13.1602 8.49299 13.1602C8.44613 13.1602 8.4082 13.1981 8.4082 13.2449C8.4082 13.2918 8.44613 13.3297 8.49299 13.3297Z" fill="white"/>
<path opacity="0.2" d="M11.8394 12.8857C12.0548 12.8857 12.2295 12.7111 12.2295 12.4956C12.2295 12.2802 12.0548 12.1055 11.8393 12.1055C11.6239 12.1055 11.4492 12.2802 11.4492 12.4956C11.4492 12.711 11.6239 12.8857 11.8394 12.8857Z" fill="white"/>
<g opacity="0.4">
<path opacity="0.6" d="M11.6146 12.7356C11.4619 12.5829 11.4619 12.337 11.6146 12.1843C11.6401 12.1589 11.6655 12.142 11.6994 12.125C11.6485 12.142 11.6062 12.1759 11.5637 12.2098C11.411 12.3625 11.411 12.6084 11.5637 12.7611C11.691 12.8883 11.886 12.9138 12.0387 12.8204C11.8946 12.8797 11.7333 12.8544 11.6146 12.7356Z" fill="url(#paint14_linear)"/>
</g>
<path opacity="0.3" d="M11.9852 12.3786C12.032 12.3786 12.07 12.3406 12.07 12.2938C12.07 12.2469 12.032 12.209 11.9852 12.209C11.9383 12.209 11.9004 12.2469 11.9004 12.2938C11.9004 12.3406 11.9383 12.3786 11.9852 12.3786Z" fill="white"/>
</g>
<defs>
<radialGradient id="paint0_radial" cx="0" cy="0" r="1" gradientUnits="userSpaceOnUse" gradientTransform="translate(14.929 5.50817) scale(3.79046)">
<stop stop-color="#FFEAFF" stop-opacity="0.6"/>
<stop offset="0.681" stop-color="#A087C9"/>
<stop offset="1" stop-color="#10002F"/>
</radialGradient>
<radialGradient id="paint1_radial" cx="0" cy="0" r="1" gradientUnits="userSpaceOnUse" gradientTransform="translate(12.8211 7.1227) scale(9.27389)">
<stop stop-color="#FFEAFF" stop-opacity="0.6"/>
<stop offset="0.681" stop-color="#A087C9"/>
<stop offset="1" stop-color="#10002F"/>
</radialGradient>
<linearGradient id="paint2_linear" x1="8.92179" y1="15.0646" x2="10.4381" y2="5.70973" gradientUnits="userSpaceOnUse">
<stop stop-color="#81FFFF"/>
<stop offset="0.62" stop-color="white" stop-opacity="0"/>
</linearGradient>
<linearGradient id="paint3_linear" x1="13.0219" y1="7.17596" x2="9.10175" y2="10.7728" gradientUnits="userSpaceOnUse">
<stop offset="0.289" stop-color="white"/>
<stop offset="0.78" stop-color="white" stop-opacity="0"/>
</linearGradient>
<linearGradient id="paint4_linear" x1="5.17762" y1="12.5928" x2="14.1868" y2="12.5928" gradientUnits="userSpaceOnUse">
<stop stop-color="#0002E9"/>
<stop offset="0.995" stop-color="#FF00C7"/>
</linearGradient>
<linearGradient id="paint5_linear" x1="14.6077" y1="10.7389" x2="9.70395" y2="15.3731" gradientUnits="userSpaceOnUse">
<stop offset="0.289" stop-color="white"/>
<stop offset="0.78" stop-color="white" stop-opacity="0"/>
</linearGradient>
<linearGradient id="paint6_linear" x1="5.17579" y1="12.5928" x2="9.99559" y2="12.5928" gradientUnits="userSpaceOnUse">
<stop stop-color="#000292"/>
<stop offset="0.995" stop-color="#7D00C7"/>
</linearGradient>
<linearGradient id="paint7_linear" x1="5.18374" y1="10.7651" x2="14.1808" y2="10.7651" gradientUnits="userSpaceOnUse">
<stop stop-color="#000292"/>
<stop offset="0.995" stop-color="#BE00C7"/>
</linearGradient>
<linearGradient id="paint8_linear" x1="14.0331" y1="5.93696" x2="13.3865" y2="6.98779" gradientUnits="userSpaceOnUse">
<stop offset="0.289" stop-color="white"/>
<stop offset="0.78" stop-color="white" stop-opacity="0"/>
</linearGradient>
<linearGradient id="paint9_linear" x1="9.12869" y1="13.6933" x2="9.48753" y2="13.6933" gradientUnits="userSpaceOnUse">
<stop offset="0.289" stop-color="white"/>
<stop offset="0.78" stop-color="white" stop-opacity="0"/>
</linearGradient>
<linearGradient id="paint10_linear" x1="10.366" y1="13.5784" x2="10.7249" y2="13.5784" gradientUnits="userSpaceOnUse">
<stop offset="0.289" stop-color="white"/>
<stop offset="0.78" stop-color="white" stop-opacity="0"/>
</linearGradient>
<linearGradient id="paint11_linear" x1="9.81537" y1="14.1873" x2="10.0846" y2="14.1873" gradientUnits="userSpaceOnUse">
<stop offset="0.289" stop-color="white"/>
<stop offset="0.78" stop-color="white" stop-opacity="0"/>
</linearGradient>
<linearGradient id="paint12_linear" x1="10.9092" y1="14.058" x2="11.1786" y2="14.058" gradientUnits="userSpaceOnUse">
<stop offset="0.289" stop-color="white"/>
<stop offset="0.78" stop-color="white" stop-opacity="0"/>
</linearGradient>
<linearGradient id="paint13_linear" x1="7.96487" y1="13.4664" x2="8.55078" y2="13.4664" gradientUnits="userSpaceOnUse">
<stop offset="0.289" stop-color="white"/>
<stop offset="0.78" stop-color="white" stop-opacity="0"/>
</linearGradient>
<linearGradient id="paint14_linear" x1="11.4486" y1="12.4994" x2="12.0346" y2="12.4994" gradientUnits="userSpaceOnUse">
<stop offset="0.289" stop-color="white"/>
<stop offset="0.78" stop-color="white" stop-opacity="0"/>
</linearGradient>
<clipPath id="clip0">
<rect width="20" height="20" fill="white"/>
</clipPath>
</defs>
</svg>
