<svg width="500" height="500" viewBox="0 0 500 500" fill="none" xmlns="http://www.w3.org/2000/svg">
<g clip-path="url(#clip0_1310_2614)">
<mask id="mask0_1310_2614" style="mask-type:alpha" maskUnits="userSpaceOnUse" x="0" y="0" width="500" height="500">
<rect width="500" height="500" fill="#D9D9D9"/>
</mask>
<g mask="url(#mask0_1310_2614)">
<g clip-path="url(#clip1_1310_2614)">
<path d="M250.202 0.398438C388.06 0.398438 499.8 112.117 499.8 249.948C499.8 387.781 388.06 499.4 250.299 499.4C112.44 499.4 0.798527 387.682 0.798527 249.948C0.700336 112.117 112.44 0.398438 250.202 0.398438Z" fill="#8247E5"/>
<mask id="mask1_1310_2614" style="mask-type:luminance" maskUnits="userSpaceOnUse" x="84" y="108" width="329" height="287">
<path d="M412.018 108.309H84.9473V394.925H412.018V108.309Z" fill="white"/>
</mask>
<g mask="url(#mask1_1310_2614)">
<path d="M331.993 195.597C326.004 192.161 318.345 192.161 311.57 195.597L263.849 223.877L231.447 241.845L184.61 270.025C178.621 273.463 170.962 273.463 164.187 270.025L127.562 247.736C121.572 244.3 117.35 237.427 117.35 229.768V186.957C117.35 180.083 120.786 173.309 127.562 168.989L164.187 147.582C170.177 144.146 177.835 144.146 184.61 147.582L221.235 169.872C227.224 173.309 231.447 180.182 231.447 187.841V216.119L263.849 197.267V168.202C263.849 161.329 260.413 154.554 253.638 150.234L185.494 109.976C179.504 106.539 171.845 106.539 165.071 109.976L95.2572 151.117C88.482 154.554 85.0454 161.428 85.0454 168.202V248.62C85.0454 255.494 88.482 262.269 95.2572 266.589L164.284 306.847C170.274 310.284 177.933 310.284 184.708 306.847L231.545 279.452L263.948 260.599L310.784 233.204C316.774 229.768 324.433 229.768 331.207 233.204L367.833 254.61C373.822 258.046 378.045 264.92 378.045 272.578V315.39C378.045 322.263 374.608 329.037 367.833 333.358L332.092 354.764C326.102 358.2 318.443 358.2 311.668 354.764L274.945 333.358C268.955 329.922 264.733 323.048 264.733 315.39V287.995L232.33 306.847V335.125C232.33 341.999 235.767 348.774 242.542 353.094L311.57 393.353C317.56 396.789 325.218 396.789 331.993 393.353L401.021 353.094C407.011 349.658 411.232 342.785 411.232 335.125V253.824C411.232 246.951 407.796 240.176 401.021 235.856L331.993 195.597Z" fill="white"/>
</g>
</g>
</g>
</g>
<g clip-path="url(#clip2_1310_2614)">
<path d="M399.7 499.503C454.818 499.503 499.5 454.821 499.5 399.703C499.5 344.585 454.818 299.902 399.7 299.902C344.582 299.902 299.899 344.585 299.899 399.703C299.899 454.821 344.582 499.503 399.7 499.503Z" fill="white"/>
<path d="M408.715 387.454L456.071 340.1L438.105 322.137L399.734 360.507L361.362 322.137L343.398 340.1L390.752 387.454C393.232 389.934 396.483 391.175 399.734 391.175C402.984 391.175 406.235 389.935 408.715 387.454ZM477.267 438.041L438.896 399.67L477.267 361.298L459.303 343.335L411.95 390.689C406.99 395.649 406.99 403.692 411.95 408.652L459.303 456.006L477.267 438.041ZM399.668 438.897L438.039 477.268L456.002 459.304L408.649 411.951C403.688 406.99 395.647 406.99 390.685 411.951L343.332 459.304L361.297 477.268L399.668 438.897ZM387.452 408.717C389.835 406.334 391.173 403.104 391.173 399.735C391.173 396.367 389.835 393.135 387.452 390.753L340.099 343.4L322.135 361.365L360.506 399.735L322.135 438.107L340.099 456.071L387.452 408.717Z" fill="black"/>
</g>
<circle cx="400" cy="400" r="97.5" stroke="black" stroke-width="5"/>
<defs>
<clipPath id="clip0_1310_2614">
<rect width="500" height="500" rx="250" fill="white"/>
</clipPath>
<clipPath id="clip1_1310_2614">
<rect width="500" height="500" fill="white"/>
</clipPath>
<clipPath id="clip2_1310_2614">
<rect width="200" height="200" fill="white" transform="translate(299.6 299.602)"/>
</clipPath>
</defs>
</svg>
