<svg width="500" height="500" viewBox="0 0 500 500" fill="none" xmlns="http://www.w3.org/2000/svg">
<g clip-path="url(#clip0_1272_2113)">
<mask id="mask0_1272_2113" style="mask-type:alpha" maskUnits="userSpaceOnUse" x="0" y="0" width="500" height="500">
<rect width="500" height="500" fill="#D9D9D9"/>
</mask>
<g mask="url(#mask0_1272_2113)">
<path d="M217.727 444.091C192.409 444.115 167.336 439.131 143.951 429.427C120.566 419.722 99.3316 405.489 81.4697 387.545C63.5381 369.626 49.3216 348.343 39.6362 324.916C29.9509 301.489 24.9873 276.38 25.0303 251.03C25.0303 224.969 30.1212 199.697 40.1818 175.878C49.8463 152.946 63.868 132.107 81.4697 114.515C99.3369 96.5793 120.573 82.3519 143.957 72.6505C167.34 62.9491 192.411 57.9649 217.727 57.9845C243.046 57.9611 268.119 62.945 291.503 72.6493C314.888 82.3537 336.122 96.587 353.985 114.53C371.917 132.449 386.133 153.732 395.818 177.159C405.504 200.586 410.467 225.695 410.424 251.045C410.424 277.106 405.318 302.378 395.273 326.197C385.603 349.13 371.577 369.97 353.97 387.56C336.105 405.495 314.872 419.724 291.491 429.427C268.11 439.131 243.042 444.12 217.727 444.106V444.091Z" fill="#FF9931"/>
<path d="M217.727 60.8485C322.576 60.8485 407.576 146 407.576 251.045C407.576 356.091 322.576 441.242 217.727 441.242C112.879 441.242 27.8787 356.091 27.8787 251.045C27.8787 146 112.879 60.8485 217.727 60.8485ZM217.727 55.1212C192.035 55.0967 166.591 60.1537 142.86 70.0011C119.13 79.8485 97.5811 94.2919 79.4545 112.5C61.2532 130.683 46.8238 152.283 36.9952 176.058C27.1665 199.834 22.1323 225.318 22.1818 251.045C22.1327 276.77 27.1671 302.252 36.9958 326.025C46.8245 349.799 61.2537 371.396 79.4545 389.576C97.5831 407.781 119.132 422.223 142.862 432.07C166.592 441.917 192.035 446.976 217.727 446.955C243.42 446.979 268.864 441.922 292.594 432.075C316.325 422.227 337.873 407.784 356 389.576C374.197 371.393 388.624 349.796 398.453 326.023C408.281 302.25 413.318 276.77 413.273 251.045C413.273 224.591 408.091 198.924 397.894 174.773C388.082 151.501 373.85 130.353 355.985 112.5C337.856 94.2946 316.307 79.853 292.577 70.0058C268.847 60.1585 243.419 55.1 217.727 55.1212Z" fill="white"/>
<path d="M443.97 130.561C433.97 126.258 419.379 121.41 403.515 120.834C390.455 120.349 378.697 122.879 368.561 128.334C366.532 129.431 364.569 130.645 362.682 131.97C346.455 143.379 338.152 161.364 334 175.137L332.227 181.031L337.621 178.152L366.167 162.834C368.802 161.409 371.891 161.077 374.769 161.911C377.646 162.744 380.08 164.676 381.545 167.288L381.621 167.395L381.773 167.682C381.959 168.027 382.126 168.381 382.273 168.743L448.061 132.243C447.455 131.97 444.606 130.834 443.97 130.561Z" fill="#006E3C"/>
<path d="M433.561 174.742C400.955 228.712 342.879 201.833 342.879 201.833L363.833 190.576C365.576 189.515 377.015 183.5 377.015 183.5C387.045 177.121 381.333 167.166 381.788 168.136L448.076 132.242C448.076 132.242 446.788 152.848 433.561 174.742Z" fill="#06B23C"/>
<path d="M465.939 115.303C463.061 113.621 436.545 98.5148 404.379 97.3481C387.258 96.7269 371.545 100.197 357.742 107.651C353.136 110.136 348.939 112.954 345.106 116.03C316.061 139.318 308.545 177.015 306.621 193.606L306.47 194.909L305.288 195.56L296.773 200.106C288.621 191.742 276.47 185.606 267.167 183.045L265.515 182.591L274.03 148.651L253.803 143.394L245.364 177.106C240.285 175.732 235.205 174.369 230.121 173.015L238.53 139.439L218.303 134.197L209.924 167.666C185.379 161.227 169.652 157.318 169.652 157.318C169.652 157.318 166.273 174.333 164.803 178.424C164.803 178.424 168.97 179.439 173.47 180.757C176.409 181.621 190.864 183.166 186.045 201.121C183.333 211.197 167.561 278.788 166.318 283.394C164.894 288.772 163.424 291.788 156.773 290.303L140.636 286.697L130.5 310.894C134.182 312.151 146.894 315.106 170.985 321.212L162.621 354.591L182.848 359.833L191.227 326.424C195.985 327.651 201.091 329 206.485 330.424L198.121 363.788L218.333 369.03L226.848 335.121C250.364 339.515 263.924 338.121 267.136 337.515C286.773 333.878 295.121 318.727 298.742 304.288C308.939 263.591 275.5 260 279.727 259.136C298.455 255.348 307.409 237.424 306.394 221.5L315.939 216.394L317.136 215.742L318.288 216.378C330.803 222.894 350.409 230.848 372.682 231.681C386.27 232.285 399.81 229.691 412.212 224.106C413.924 223.348 415.606 222.5 417.242 221.606C464.955 195.909 471.121 133.333 471.651 126.288L472.121 119.015L465.939 115.303ZM258.667 295.848C253.106 318.03 215.561 306.848 215.561 306.848L197.727 302.227L208.848 257.863L230.152 263.378C230.152 263.378 264.924 270.924 258.667 295.848ZM265.348 229.727C260.242 250.075 228.985 240.636 228.985 240.636L214.136 236.788L224.333 196.075L242.091 200.681C242.091 200.681 271.091 206.863 265.348 229.727ZM447.364 133.985L447.333 134.242C444.045 152.681 434.348 185.863 406.424 200.909C406.175 201.036 405.922 201.157 405.667 201.272C396.091 206.272 385.227 208.591 373.379 208.151C364.982 207.786 356.674 206.282 348.682 203.681L342.894 201.833L348.258 198.939L377.015 183.484C378.81 182.505 380.316 181.072 381.382 179.327C382.449 177.583 383.038 175.589 383.091 173.545C383.175 171.51 382.726 169.489 381.788 167.681L381.636 167.378L381.545 167.272C380.08 164.66 377.646 162.728 374.769 161.894C371.891 161.061 368.802 161.393 366.167 162.818L337.621 178.121L332.227 181.015L334 175.121C338.152 161.363 346.455 143.363 362.697 131.969C364.545 130.666 366.5 129.454 368.561 128.333C378.697 122.878 390.47 120.348 403.515 120.833C419.379 121.409 433.97 126.242 443.97 130.545L445.848 131.363L447.621 132.242L447.364 133.985Z" fill="white"/>
</g>
</g>
<circle cx="400" cy="400" r="97.5" fill="black" stroke="black" stroke-width="5"/>
<path d="M390.771 419.988C389.932 419.988 389.261 419.988 388.423 419.152L376.008 406.774C375.672 406.441 375.504 406.273 375.504 405.939C375.336 405.771 375.169 405.102 375.336 404.433C375.336 404.098 375.504 403.931 375.672 403.764C375.84 403.596 376.008 403.43 376.175 403.263C376.511 402.928 376.679 402.593 376.846 402.426C379.866 399.583 382.718 396.739 385.738 394.063C392.449 387.54 399.16 381.016 405.871 374.493C405.871 374.158 406.374 372.151 407.884 371.65C408.387 371.482 409.059 371.482 409.394 371.482C410.233 371.482 410.904 371.482 411.743 372.319L424.829 384.696C425.332 385.365 425.836 386.202 425.668 387.038C425.5 387.874 424.661 388.376 424.326 388.543C422.816 389.379 418.118 394.063 409.226 403.43C403.858 408.615 398.657 413.8 393.288 418.818C393.12 418.985 392.952 419.486 392.449 419.821C391.946 419.988 391.442 419.988 390.771 419.988Z" fill="#AF145B"/>
<path d="M394.631 415.472C386.913 406.941 386.075 394.731 393.792 386.201L376.847 402.426C372.988 406.272 370.64 411.625 370.64 416.977C370.64 422.329 372.988 427.682 376.847 431.529L413.924 469.163C414.764 469.999 415.435 469.999 416.274 469.999C417.112 469.999 417.784 469.999 418.622 469.163C422.481 465.316 424.83 459.964 424.83 454.611C424.83 449.259 422.481 443.907 418.622 440.06L395.47 416.977C395.302 416.141 394.631 416.141 394.631 415.472Z" fill="url(#paint0_linear_1272_2113)"/>
<path d="M424.662 359.94L399.161 335.352C395.302 332.342 390.604 330 385.236 330C379.867 330 374.498 332.342 370.64 336.189C369.13 337.025 369.13 337.694 369.13 338.53C369.13 339.367 369.13 340.036 369.968 340.872L404.697 373.99C405.536 374.826 406.207 374.826 406.207 375.495C413.924 384.026 414.764 396.236 407.717 404.766L424.662 388.542C428.521 385.531 430.869 380.012 430.869 374.659C430.869 369.307 428.521 363.787 424.662 359.94Z" fill="url(#paint1_linear_1272_2113)"/>
<circle cx="400" cy="400" r="97.5" stroke="black" stroke-width="5"/>
<defs>
<linearGradient id="paint0_linear_1272_2113" x1="370.037" y1="428.1" x2="424.578" y2="428.1" gradientUnits="userSpaceOnUse">
<stop stop-color="#CB0766"/>
<stop offset="1" stop-color="#E04391"/>
</linearGradient>
<linearGradient id="paint1_linear_1272_2113" x1="369.13" y1="367.383" x2="430.869" y2="367.383" gradientUnits="userSpaceOnUse">
<stop stop-color="#CB0766"/>
<stop offset="1" stop-color="#E04391"/>
</linearGradient>
<clipPath id="clip0_1272_2113">
<rect width="500" height="500" rx="250" fill="white"/>
</clipPath>
</defs>
</svg>
