<svg width="500" height="500" viewBox="0 0 500 500" fill="none" xmlns="http://www.w3.org/2000/svg">
<g clip-path="url(#clip0_1045_1341)">
<mask id="mask0_1045_1341" style="mask-type:alpha" maskUnits="userSpaceOnUse" x="0" y="0" width="500" height="500">
<rect width="500" height="500" fill="#D9D9D9"/>
</mask>
<g mask="url(#mask0_1045_1341)">
<g clip-path="url(#clip1_1045_1341)">
<path opacity="0.983" fill-rule="evenodd" clip-rule="evenodd" d="M233.75 0.75C244.583 0.75 255.417 0.75 266.25 0.75C345.311 7.5598 408.227 42.7265 455 106.25C479.823 141.964 494.74 181.464 499.75 224.75C499.75 242.25 499.75 259.75 499.75 277.25C489.733 355.404 452.4 416.654 387.75 461C353.719 483.014 316.553 496.264 276.25 500.75C258.75 500.75 241.25 500.75 223.75 500.75C146.841 490.858 86.2575 454.357 42 391.25C17.0986 353.63 3.01533 312.297 -0.25 267.25C-0.25 256.417 -0.25 245.583 -0.25 234.75C6.7153 156.381 41.5486 93.7975 104.25 47C143.13 19.7335 186.296 4.31687 233.75 0.75Z" fill="#FDFDFD"/>
<path fill-rule="evenodd" clip-rule="evenodd" d="M233.25 14.2504C315.103 10.8165 382.353 40.1498 435 102.25C481.832 162.927 497.165 230.927 481 306.25C463.525 373.535 424.775 424.451 364.75 459C306.371 489.972 245.371 496.472 181.75 478.5C111.095 455.68 60.8451 410.263 31.0001 342.25C10.264 289.837 7.59727 236.504 23.0001 182.25C40.9721 125.962 74.7221 81.8789 124.25 50.0004C157.721 29.3156 194.055 17.3989 233.25 14.2504Z" fill="black"/>
<path fill-rule="evenodd" clip-rule="evenodd" d="M142.25 108.25C155.541 120.79 168.625 133.624 181.5 146.75C219.685 122.97 259.601 119.72 301.25 137C307.698 139.846 313.781 143.263 319.5 147.25C332.34 134.326 345.257 121.493 358.25 108.75C369.993 120.243 381.66 131.826 393.25 143.5C380.23 156.354 367.397 169.354 354.75 182.5C378.044 220.148 381.46 259.565 365 300.75C361.858 307.621 358.275 314.205 354.25 320.5C366.82 333.653 379.654 346.57 392.75 359.25C381.341 370.91 369.841 382.493 358.25 394C357.917 394.333 357.584 394.333 357.25 394C344.493 381.16 331.66 368.41 318.75 355.75C279.786 379.774 239.286 382.69 197.25 364.5C191.589 361.67 186.089 358.586 180.75 355.25C167.757 367.993 154.84 380.826 142 393.75C130.5 382.25 119 370.75 107.5 359.25C107.167 358.917 107.167 358.583 107.5 358.25C120.341 345.493 133.091 332.66 145.75 319.75C125.5 287.589 120.25 253.089 130 216.25C133.753 203.929 139.17 192.429 146.25 181.75C133.507 168.757 120.674 155.84 107.75 143C119.351 131.483 130.851 119.899 142.25 108.25Z" fill="#FEFEFE"/>
<path fill-rule="evenodd" clip-rule="evenodd" d="M242.25 175.75C269.259 174.055 291.509 183.388 309 203.75C328.592 230.418 330.925 258.585 316 288.25C299.619 314.819 275.703 327.569 244.25 326.5C217.225 323.455 196.975 310.205 183.5 286.75C169.769 257.984 172.102 230.651 190.5 204.75C203.913 188.252 221.163 178.585 242.25 175.75Z" fill="#010101"/>
<path fill-rule="evenodd" clip-rule="evenodd" d="M244.25 203.75C254.268 202.936 263.602 205.019 272.25 210C280.295 215.84 284.295 223.756 284.25 233.75C278.083 233.75 271.916 233.75 265.75 233.75C264.796 226.882 260.796 223.132 253.75 222.5C247.63 221.614 241.963 222.781 236.75 226C233.275 229.547 233.441 232.881 237.25 236C245.811 240.021 254.644 243.354 263.75 246C272.143 248.899 278.56 254.149 283 261.75C287.41 277.513 282.16 288.763 267.25 295.5C264.132 296.571 260.965 297.404 257.75 298C246.224 299.992 235.724 297.659 226.25 291C219.308 285.031 215.975 277.448 216.25 268.25C222.416 268.25 228.583 268.25 234.75 268.25C235.191 274.776 238.691 278.526 245.25 279.5C250.554 280.192 255.721 279.692 260.75 278C267.578 274.228 267.911 270.061 261.75 265.5C253.569 262.106 245.235 259.106 236.75 256.5C229.621 253.898 223.705 249.648 219 243.75C211.927 226.64 216.844 214.223 233.75 206.5C237.216 205.176 240.716 204.259 244.25 203.75Z" fill="#FCFCFC"/>
</g>
</g>
</g>
<g clip-path="url(#clip2_1045_1341)">
<path d="M500 400C500 344.772 455.228 300 400 300C344.772 300 300 344.772 300 400C300 455.228 344.772 500 400 500C455.228 500 500 455.228 500 400Z" fill="#120901"/>
<path d="M458.729 396.781C457.045 396.781 455.361 396.991 453.887 397.834C451.993 399.097 450.519 402.044 450.519 404.781C450.519 407.096 452.624 410.044 454.94 411.307C461.466 414.675 468.413 407.096 465.044 400.781C463.992 398.465 461.255 396.991 458.729 396.781Z" fill="#FF8500"/>
<path d="M405.996 351.73C408.311 352.151 411.68 360.15 412.311 366.887C412.522 368.36 412.311 371.519 412.311 373.834C412.101 377.413 411.68 378.465 410.417 380.15C407.68 384.15 402.627 386.676 396.101 387.097C394.207 387.307 391.049 387.518 389.365 387.518C386.628 387.307 386.417 387.307 386.839 386.255C387.049 385.834 387.681 384.36 388.102 383.097C390.838 374.676 396.943 361.203 400.101 356.993C402.206 353.835 404.732 351.519 405.996 351.73ZM403.891 333.415C402.838 333.415 401.575 333.625 399.68 334.257C396.943 335.099 394.417 336.572 392.101 338.467C388.733 340.993 388.312 341.204 388.102 340.151C387.891 338.467 385.154 336.151 382.628 335.941C380.102 335.52 376.944 336.783 375.681 338.678C375.049 339.52 373.366 342.256 371.681 344.993C368.734 350.046 367.681 353.624 368.734 355.73C369.366 356.993 369.155 358.466 367.26 367.519C363.892 383.939 358.418 417.832 358.418 424.359C358.208 439.095 358.418 452.989 358.629 455.726C359.261 459.936 360.734 462.884 363.471 464.778C366.207 466.673 367.681 467.094 370.629 466.252C373.576 465.62 375.049 464.568 376.734 462.252C378.628 459.515 379.049 456.568 379.049 443.726C378.839 428.148 380.944 403.517 382.207 402.044C382.628 401.833 385.365 401.622 388.522 402.044C400.312 403.096 409.996 400.991 417.364 395.517C425.364 389.623 428.732 382.887 429.363 371.519C429.995 356.572 425.153 343.309 416.522 336.572C413.785 334.678 412.943 334.467 408.732 333.836C406.627 333.415 405.154 333.204 403.891 333.415Z" fill="white"/>
</g>
<circle cx="400" cy="400" r="97.5" stroke="black" stroke-width="5"/>
<defs>
<clipPath id="clip0_1045_1341">
<rect width="500" height="500" rx="250" fill="white"/>
</clipPath>
<clipPath id="clip1_1045_1341">
<rect width="500" height="500" fill="white" transform="translate(0 1)"/>
</clipPath>
<clipPath id="clip2_1045_1341">
<rect width="200" height="200" fill="white" transform="translate(300 300)"/>
</clipPath>
</defs>
</svg>
