<svg width="500" height="500" viewBox="0 0 500 500" fill="none" xmlns="http://www.w3.org/2000/svg">
<g clip-path="url(#clip0_1045_1261)">
<mask id="mask0_1045_1261" style="mask-type:alpha" maskUnits="userSpaceOnUse" x="0" y="0" width="500" height="500">
<rect width="500" height="500" fill="#D9D9D9"/>
</mask>
<g mask="url(#mask0_1045_1261)">
<g clip-path="url(#clip1_1045_1261)">
<path d="M250 500C216.256 500 183.518 493.385 152.685 480.35C122.91 467.756 96.1864 449.728 73.2202 426.78C50.2716 403.831 32.2444 377.09 19.65 347.315C6.61469 316.482 0 283.744 0 250C0 216.256 6.61469 183.518 19.65 152.685C32.2444 122.91 50.2716 96.1864 73.2202 73.2202C96.1864 50.2716 122.91 32.2444 152.685 19.65C183.518 6.61469 216.256 0 250 0C283.744 0 316.482 6.61469 347.315 19.65C377.09 32.2444 403.814 50.2716 426.78 73.2202C449.728 96.1688 467.756 122.91 480.35 152.685C493.385 183.518 500 216.256 500 250C500 283.744 493.385 316.482 480.35 347.315C467.756 377.09 449.728 403.814 426.78 426.78C403.831 449.728 377.09 467.756 347.315 480.35C316.482 493.403 283.744 500 250 500Z" fill="white"/>
<path d="M250 486.752C380.755 486.752 486.753 380.754 486.753 249.999C486.753 119.244 380.755 13.2461 250 13.2461C119.245 13.2461 13.2471 119.244 13.2471 249.999C13.2471 380.754 119.245 486.752 250 486.752Z" fill="black"/>
<path d="M255.821 155.825C287.448 158.648 312.337 184.842 313.113 217.016L361.638 237.177L336.344 195.937L390.126 142.155L357.987 110.016L311.914 156.107L255.839 64.666V155.825H255.821Z" fill="white"/>
<path d="M312.284 228.992C307.627 257.003 284.485 278.752 255.821 281.328V314.63L362.609 249.912L312.284 228.992Z" fill="white"/>
<path d="M187.998 228.992L137.674 249.895L244.461 314.613V281.31C215.798 278.752 192.655 257.003 187.998 228.992Z" fill="white"/>
<path d="M361.409 283.85L255.821 347.845V432.601L299.266 371.375L344.617 416.726L376.755 384.587L325.954 333.786L361.409 283.85Z" fill="white"/>
<path d="M244.462 347.845L138.873 283.85L174.328 333.786L123.527 384.587L155.666 416.726L201.016 371.393L244.462 432.583V347.845Z" fill="white"/>
<path d="M138.644 237.195L187.169 217.033C187.945 184.859 212.834 158.665 244.461 155.843V64.666L188.386 156.107L142.295 110.016L110.157 142.173L163.939 195.954L138.644 237.195Z" fill="white"/>
<path d="M252.364 211.337C236.788 206.556 236.788 203.91 236.788 201.776C236.788 198.813 241.269 194.72 249.683 194.72C254.657 194.72 263.018 195.955 263.018 204.281H278.17C278.17 189.499 266.722 179.568 249.683 179.568C231.461 179.568 221.636 191.016 221.636 201.776C221.636 216.487 234.548 221.708 247.813 225.801C263.388 230.581 263.476 233.262 263.476 235.396C263.476 238.36 258.996 242.452 250.582 242.452C245.59 242.452 237.247 241.217 237.247 232.892H222.095C222.095 247.673 233.543 257.604 250.582 257.604C268.803 257.604 278.628 246.156 278.628 235.396C278.646 220.668 265.646 215.411 252.364 211.337Z" fill="white"/>
</g>
</g>
</g>
<g clip-path="url(#clip2_1045_1261)">
<path d="M500 400C500 344.772 455.228 300 400 300C344.772 300 300 344.772 300 400C300 455.228 344.772 500 400 500C455.228 500 500 455.228 500 400Z" fill="#120901"/>
<path d="M458.729 396.781C457.045 396.781 455.361 396.991 453.887 397.834C451.993 399.097 450.519 402.044 450.519 404.781C450.519 407.096 452.624 410.044 454.94 411.307C461.466 414.675 468.413 407.096 465.044 400.781C463.992 398.465 461.255 396.991 458.729 396.781Z" fill="#FF8500"/>
<path d="M405.996 351.73C408.311 352.151 411.68 360.15 412.311 366.887C412.522 368.36 412.311 371.519 412.311 373.834C412.101 377.413 411.68 378.465 410.417 380.15C407.68 384.15 402.627 386.676 396.101 387.097C394.207 387.307 391.049 387.518 389.365 387.518C386.628 387.307 386.417 387.307 386.839 386.255C387.049 385.834 387.681 384.36 388.102 383.097C390.838 374.676 396.943 361.203 400.101 356.993C402.206 353.835 404.732 351.519 405.996 351.73ZM403.891 333.415C402.838 333.415 401.575 333.625 399.68 334.257C396.943 335.099 394.417 336.572 392.101 338.467C388.733 340.993 388.312 341.204 388.102 340.151C387.891 338.467 385.154 336.151 382.628 335.941C380.102 335.52 376.944 336.783 375.681 338.678C375.049 339.52 373.366 342.256 371.681 344.993C368.734 350.046 367.681 353.624 368.734 355.73C369.366 356.993 369.155 358.466 367.26 367.519C363.892 383.939 358.418 417.832 358.418 424.359C358.208 439.095 358.418 452.989 358.629 455.726C359.261 459.936 360.734 462.884 363.471 464.778C366.207 466.673 367.681 467.094 370.629 466.252C373.576 465.62 375.049 464.568 376.734 462.252C378.628 459.515 379.049 456.568 379.049 443.726C378.839 428.148 380.944 403.517 382.207 402.044C382.628 401.833 385.365 401.622 388.522 402.044C400.312 403.096 409.996 400.991 417.364 395.517C425.364 389.623 428.732 382.887 429.363 371.519C429.995 356.572 425.153 343.309 416.522 336.572C413.785 334.678 412.943 334.467 408.732 333.836C406.627 333.415 405.154 333.204 403.891 333.415Z" fill="white"/>
</g>
<circle cx="400" cy="400" r="97.5" stroke="black" stroke-width="5"/>
<defs>
<clipPath id="clip0_1045_1261">
<rect width="500" height="500" rx="250" fill="white"/>
</clipPath>
<clipPath id="clip1_1045_1261">
<rect width="500" height="500" fill="white"/>
</clipPath>
<clipPath id="clip2_1045_1261">
<rect width="200" height="200" fill="white" transform="translate(300 300)"/>
</clipPath>
</defs>
</svg>
