<svg width="500" height="500" viewBox="0 0 500 500" fill="none" xmlns="http://www.w3.org/2000/svg">
<path d="M339.554 86.6074C329.724 96.437 320.719 107.091 312.714 118.451L310.183 117.626C295.586 112.859 280.459 109.916 265.214 108.915C260.623 108.562 243.495 108.562 237.903 108.915C221.01 110.034 208.061 112.565 193.346 117.685C192.758 117.921 192.228 118.097 191.698 118.274C183.399 106.973 174.158 96.3781 163.975 86.6663C212.829 61.6508 269.982 58.649 321.131 78.367C326.605 80.4271 331.961 82.8404 337.2 85.4302L339.554 86.6074Z" fill="#F00500"/>
<path d="M430.669 309.862C423.253 330.993 412.128 350.593 397.707 367.663C389.879 376.845 381.227 385.262 371.927 392.914C350.149 410.454 324.721 422.991 297.587 429.583C267.568 436.823 236.255 436.823 206.237 429.583C179.043 422.991 153.675 410.454 131.897 392.914C122.597 385.262 113.944 376.845 106.116 367.663C64.6199 318.633 52.0239 251.297 73.1546 190.613C77.157 179.37 82.1601 168.54 88.1638 158.24C90.9302 153.531 94.3441 148.234 95.9922 146.056C101.643 170.365 108.588 191.731 111.178 199.442C111.001 199.854 110.766 200.324 110.531 200.736C96.8162 228.518 89.3999 255.299 87.6341 283.788C87.6341 284.141 87.5752 284.553 87.5752 284.906C87.1043 293.441 87.3398 297.502 88.7524 302.858C93.1669 319.633 106.764 338.115 128.071 356.244C162.975 385.909 210.298 407.334 246.144 409.806C283.519 412.337 338.671 390.5 375.4 358.598C381.168 353.478 386.583 348.062 391.645 342.294C395.294 338.056 400.709 330.758 400.297 330.758C400.18 330.758 400.297 330.64 400.533 330.522C400.709 330.405 400.886 330.228 400.768 330.11C400.709 330.051 400.827 329.875 401.004 329.816C401.18 329.757 401.298 329.639 401.239 329.522C401.18 329.404 401.239 329.286 401.475 329.227C401.651 329.168 401.71 328.992 401.651 328.874C401.592 328.756 401.651 328.639 401.769 328.639C401.887 328.639 402.004 328.462 402.004 328.344C402.004 328.227 402.122 328.05 402.24 328.05C402.357 328.05 402.475 327.932 402.475 327.815C402.652 327.344 402.946 326.873 403.24 326.461C404.123 325.107 407.655 318.809 408.126 317.75C411.481 310.157 413.6 303.388 414.6 296.619C415.071 293.382 415.365 287.437 415.13 286.024C415.071 285.789 415.071 285.377 415.012 284.729C414.895 283.552 414.836 281.786 414.718 280.021C414.6 277.372 414.365 273.664 414.188 271.839C411.657 245.117 404.829 223.28 391.88 200.148C391.351 199.265 390.88 198.382 390.585 197.676C390.468 197.499 390.409 197.323 390.35 197.205C392.175 191.731 399.65 168.834 405.595 142.642L405.712 142.76L406.595 143.937C408.126 145.997 412.187 152.118 414.012 155.061C422.311 168.599 428.785 183.137 433.376 198.323C444.03 234.875 443.147 273.84 430.669 309.862Z" fill="#F00500"/>
<path d="M354.269 239.525C354.092 240.467 351.326 243.292 348.56 245.352C340.437 251.297 325.899 256.83 311.125 259.479C302.708 261.009 294.291 261.244 291.76 260.008C290.112 259.184 289.876 258.537 290.465 256.418C291.701 252.003 295.703 247.177 301.943 242.645C305.121 240.349 318.011 232.521 324.015 229.225C333.903 223.81 341.908 220.572 347.323 219.807C349.03 219.572 351.09 219.513 351.738 219.807C352.797 220.219 353.975 223.339 354.445 227.106C354.681 229.107 354.563 237.936 354.269 239.525Z" fill="black"/>
<path d="M215.595 259.008C215.242 259.714 213.476 260.479 211.475 260.773C209.474 261.068 203.352 260.891 199.88 260.479C187.401 258.831 174.158 255.005 164.505 250.296C159.09 247.648 155.205 244.999 152.321 242.115L150.673 240.408L150.496 238.171C150.202 234.286 150.261 228.165 150.732 225.987C151.026 224.163 151.673 222.397 152.556 220.808C153.027 220.219 153.027 220.219 155.146 220.219C157.736 220.219 159.914 220.631 163.445 221.749C170.685 223.986 181.457 229.401 194.582 237.288C205.412 243.763 209.474 246.941 212.593 251.297C214.712 254.005 216.125 257.83 215.595 259.008Z" fill="black"/>
<path d="M298.941 340.94C298.941 341.117 298.234 343.942 297.351 347.297C296.469 350.652 295.762 353.36 295.762 353.478C295.115 353.536 294.526 353.595 293.879 353.536H291.995L289.405 359.658C287.993 363.013 286.698 366.132 286.521 366.603L286.168 367.427L284.932 365.426L283.696 363.425V347.121L283.225 347.238C282.225 347.474 275.102 348.416 271.983 348.71C259.093 350.005 246.143 349.711 233.312 347.886C231.252 347.592 229.486 347.356 229.427 347.415C229.368 347.474 229.427 351.241 229.545 355.891L229.722 364.249L228.721 365.779C228.191 366.603 227.661 367.31 227.661 367.369C227.485 367.545 226.896 366.603 225.543 363.896C224.071 361.071 223.012 358.069 222.246 354.949L221.834 353.242L220.01 353.36L218.185 353.536L217.714 351.359C217.479 350.181 217.184 348.357 217.067 347.356L216.89 345.473L215.36 344.119C214.477 343.354 213.594 342.589 213.417 342.471C213.123 342.235 213.005 341.823 213.005 341.47V340.764L220.363 340.823L227.72 340.882L227.956 341.647L228.191 342.412L230.722 342.53C232.135 342.589 236.608 342.706 240.611 342.824L247.968 343.001L249.852 340.058L251.794 337.115H254.266L254.207 330.993L254.148 324.872L250.911 323.459C240.493 318.868 234.371 313.63 232.076 307.273C231.605 305.978 231.605 305.507 231.487 299.621C231.428 293.794 231.428 293.264 231.841 291.969C232.665 289.026 234.96 286.731 237.903 285.965C238.904 285.671 241.552 285.671 255.443 285.671L271.806 285.73L273.631 286.613C275.809 287.672 276.809 288.438 278.045 290.086C279.458 291.969 279.87 293.441 279.87 297.031C279.87 302.152 279.517 306.566 278.987 308.332C278.222 310.745 277.045 313.041 275.573 315.101C272.63 318.868 267.274 322.635 262.389 324.342L260.976 324.872L261.035 331.052L261.094 337.232L262.389 337.35L263.684 337.468L265.449 340.116L267.156 342.765H275.044C279.399 342.765 283.225 342.824 283.578 342.883C284.167 343.001 284.285 342.942 284.873 341.941L285.58 340.882H292.348C297.41 340.646 298.941 340.764 298.941 340.94Z" fill="black"/>
<path d="M267.863 357.833C266.744 358.481 265.979 358.775 265.803 358.657C265.626 358.599 264.802 357.892 263.919 357.245L262.33 355.95L260.682 357.716C257.091 361.6 256.974 361.777 255.914 361.836C254.266 362.012 253.913 361.718 251.912 358.716C250.852 357.186 250.028 355.891 250.028 355.891C250.028 355.891 249.263 355.773 248.38 355.714L246.732 355.538L245.967 357.127L245.202 358.716L243.848 358.304C242.788 357.951 241.729 357.539 240.728 357.068L238.963 356.185V352.83L254.619 352.889L270.276 352.948L270.335 354.537C270.394 356.421 270.453 356.362 267.863 357.833Z" fill="black"/>
<path d="M415.012 286.024C414.953 285.789 414.953 285.377 414.894 284.729C400.768 283.199 360.449 282.257 323.014 313.159C323.014 313.159 310.948 257.83 254.443 257.83C197.937 257.83 176.983 313.159 176.983 313.159C145.317 279.079 102.938 281.551 87.6341 283.787C87.6341 284.141 87.5752 284.553 87.5752 284.906C87.1043 293.44 87.3397 297.502 88.7524 302.858C93.1669 319.633 106.764 338.115 128.071 356.244C162.975 385.909 210.298 407.334 246.143 409.806C283.519 412.337 338.671 390.5 375.4 358.598C381.168 353.477 386.583 348.062 391.645 342.294C395.294 338.056 400.709 330.758 400.297 330.758C400.18 330.758 400.297 330.64 400.533 330.522C400.709 330.404 400.886 330.228 400.768 330.11C400.709 330.051 400.827 329.875 401.004 329.816C401.18 329.757 401.298 329.639 401.239 329.522C401.18 329.404 401.239 329.286 401.474 329.227C401.651 329.168 401.71 328.992 401.651 328.874C401.592 328.756 401.651 328.639 401.769 328.639C401.887 328.639 402.004 328.462 402.004 328.344C402.004 328.227 402.122 328.05 402.24 328.05C402.357 328.05 402.475 327.932 402.475 327.815C402.652 327.344 402.946 326.873 403.24 326.461C404.123 325.107 407.655 318.809 408.126 317.75C411.481 310.157 413.6 303.388 414.6 296.619C414.953 293.382 415.248 287.437 415.012 286.024ZM267.863 357.833C266.744 358.481 265.979 358.775 265.803 358.657C265.626 358.598 264.802 357.892 263.919 357.245L262.33 355.95L260.682 357.715C257.091 361.6 256.974 361.777 255.914 361.836C254.266 362.012 253.913 361.718 251.912 358.716C250.852 357.186 250.028 355.891 250.028 355.891C250.028 355.891 249.263 355.773 248.38 355.714L246.732 355.538L245.967 357.127L245.202 358.716L243.848 358.304C242.788 357.951 241.729 357.539 240.728 357.068L238.963 356.185V352.83L254.619 352.889L270.276 352.948L270.335 354.537C270.394 356.42 270.453 356.362 267.863 357.833ZM297.293 347.238C296.41 350.593 295.703 353.301 295.703 353.419C295.056 353.477 294.467 353.536 293.82 353.477H291.936L289.405 359.658C287.993 363.013 286.698 366.132 286.521 366.603L286.168 367.427L284.932 365.426L283.696 363.425V347.121L283.225 347.238C282.225 347.474 275.102 348.416 271.983 348.71C259.093 350.005 246.143 349.71 233.312 347.886C231.252 347.591 229.486 347.356 229.427 347.415C229.368 347.474 229.427 351.241 229.545 355.891L229.722 364.249L228.721 365.779C228.191 366.603 227.661 367.31 227.661 367.368C227.485 367.545 226.896 366.603 225.543 363.896C224.071 361.07 223.012 358.069 222.246 354.949L221.834 353.242L220.01 353.36L218.185 353.536L217.714 351.359C217.479 350.181 217.184 348.357 217.067 347.356L216.89 345.473L215.36 344.119C214.477 343.354 213.594 342.588 213.417 342.471C213.123 342.235 213.005 341.823 213.005 341.47V340.764L220.363 340.823L227.72 340.881L227.956 341.647L228.191 342.412L230.722 342.53C232.135 342.588 236.608 342.706 240.611 342.824L247.968 343L249.852 340.057L251.794 337.114H254.266L254.207 330.993L254.148 324.872L250.911 323.459C240.493 318.868 234.372 313.629 232.076 307.273C231.605 305.978 231.605 305.507 231.487 299.621C231.429 293.794 231.428 293.264 231.841 291.969C232.665 289.026 234.96 286.73 237.903 285.965C238.904 285.671 241.552 285.671 255.443 285.671L271.806 285.73L273.631 286.613C275.809 287.672 276.809 288.437 278.045 290.085C279.458 291.969 279.87 293.44 279.87 297.031C279.87 302.152 279.517 306.566 278.987 308.332C278.222 310.745 277.045 313.041 275.573 315.101C272.63 318.868 267.274 322.635 262.389 324.342L260.976 324.872L261.035 331.052L261.094 337.232L262.389 337.35L263.684 337.468L265.45 340.116L267.156 342.765H275.044C279.399 342.765 283.225 342.824 283.578 342.883C284.167 343 284.285 342.942 284.873 341.941L285.58 340.881H292.348C297.587 340.881 299.117 340.94 299.117 341.117C298.941 341.058 298.176 343.942 297.293 347.238Z" fill="white"/>
<path d="M414.541 280.021C414.424 277.372 414.188 273.664 414.012 271.839C411.481 245.117 404.653 223.28 391.704 200.148C391.174 199.265 390.703 198.382 390.409 197.676C390.291 197.499 390.232 197.323 390.173 197.205C391.998 191.731 399.473 168.834 405.418 142.642C413.482 107.09 418.603 65.5355 402.946 53.0572C402.946 53.0572 375.87 51.056 339.613 86.6073C329.783 96.4369 320.778 107.09 312.773 118.45L310.242 117.626C295.645 112.859 280.518 109.916 265.273 108.915C260.682 108.562 243.554 108.562 237.962 108.915C221.069 110.033 208.12 112.564 193.405 117.685C192.817 117.921 192.287 118.097 191.757 118.274C183.458 106.973 174.217 96.378 164.034 86.6661C126.305 50.9383 98.2288 52.9983 98.2288 52.9983C81.6304 65.8886 87.2809 109.327 95.8745 146.056C101.525 170.365 108.47 191.731 111.06 199.441C110.884 199.854 110.648 200.324 110.413 200.736C96.6985 228.518 89.2822 255.299 87.5164 283.788C102.879 281.551 145.199 279.02 176.924 313.159C176.924 313.159 197.878 257.83 254.384 257.83C310.889 257.83 322.955 313.159 322.955 313.159C360.39 282.257 400.709 283.258 414.836 284.729C414.777 283.552 414.659 281.786 414.541 280.021ZM122.185 177.251C122.185 177.251 100.171 122.217 105.822 90.7863C106.763 85.489 108.529 80.839 111.296 77.3074C111.296 77.3074 136.252 79.7795 176.512 124.513C176.512 124.513 168.861 128.221 158.619 136.108C158.619 136.108 158.56 136.167 158.501 136.167C147.377 144.702 133.133 158.24 122.185 177.251ZM215.595 259.008C215.242 259.714 213.476 260.479 211.475 260.773C209.474 261.068 203.352 260.891 199.88 260.479C187.401 258.831 174.158 255.005 164.505 250.296C159.09 247.648 155.205 244.999 152.321 242.115L150.673 240.408L150.496 238.171C150.202 234.286 150.261 228.165 150.732 225.987C151.026 224.163 151.674 222.397 152.556 220.808C153.027 220.219 153.027 220.219 155.146 220.219C157.736 220.219 159.914 220.631 163.445 221.749C170.685 223.986 181.457 229.401 194.582 237.288C205.413 243.763 209.474 246.941 212.593 251.297C214.712 254.005 216.125 257.83 215.595 259.008ZM354.269 239.525C354.092 240.467 351.326 243.292 348.56 245.352C340.437 251.297 325.898 256.83 311.125 259.478C302.708 261.009 294.291 261.244 291.76 260.008C290.112 259.184 289.876 258.537 290.465 256.418C291.701 252.003 295.703 247.177 301.943 242.645C305.121 240.349 318.011 232.521 324.015 229.225C333.903 223.809 341.908 220.572 347.323 219.807C349.03 219.572 351.09 219.513 351.738 219.807C352.797 220.219 353.975 223.339 354.445 227.106C354.681 229.107 354.563 237.936 354.269 239.525ZM344.498 136.108L344.38 136.05C334.492 128.162 327.076 124.454 327.076 124.454C365.982 79.7207 390.056 77.2486 390.056 77.2486C392.704 80.839 394.411 85.4301 395.353 90.7275C400.827 122.159 379.579 177.251 379.579 177.251C370.691 161.418 358.742 147.409 344.498 136.108Z" fill="#FFA409"/>
<path d="M395.412 90.7274C390.821 90.1388 369.102 90.0211 344.498 136.108L344.381 136.049C334.492 128.162 327.076 124.454 327.076 124.454C365.982 79.7206 390.056 77.2485 390.056 77.2485C392.763 80.839 394.47 85.43 395.412 90.7274Z" fill="#FF9300"/>
<path d="M379.638 177.251C370.691 161.359 358.801 147.409 344.498 136.108C369.102 90.0212 390.762 90.1389 395.412 90.7275C400.886 122.218 379.638 177.251 379.638 177.251Z" fill="#FF8300"/>
<path d="M396.295 90.9041C396 90.8453 395.706 90.7864 395.412 90.7275L396.295 90.9041Z" fill="#FF8300"/>
<path d="M176.512 124.454C176.512 124.454 168.861 128.162 158.619 136.049C158.619 136.049 158.56 136.108 158.501 136.108C133.015 89.9622 110.589 90.1388 105.763 90.7274C106.705 85.43 108.47 80.7801 111.237 77.2485C111.296 77.2485 136.252 79.7206 176.512 124.454Z" fill="#FF9300"/>
<path d="M158.56 136.108C147.377 144.702 133.133 158.181 122.185 177.251C122.185 177.251 100.171 122.218 105.822 90.7275C110.589 90.1389 133.074 90.0212 158.56 136.108Z" fill="#FF8300"/>
<path d="M105.822 90.7275C105.527 90.7864 105.174 90.8453 104.88 90.9041L105.822 90.7275Z" fill="#FF8300"/>
<path d="M320.071 207.8C320.071 207.8 301.236 208.977 303.591 194.262C305.945 179.547 320.66 177.781 324.78 178.37C328.9 178.958 345.381 184.844 342.438 197.205C339.495 209.565 335.375 207.211 333.021 207.8C330.666 208.388 320.071 207.8 320.071 207.8Z" fill="white"/>
<path d="M181.162 207.8C181.162 207.8 162.327 208.977 164.682 194.262C167.036 179.547 181.751 177.781 185.871 178.37C189.991 178.958 206.472 184.844 203.529 197.205C200.586 209.565 196.466 207.211 194.111 207.8C191.757 208.388 181.162 207.8 181.162 207.8Z" fill="white"/>
<g clip-path="url(#clip0_104_1410)">
<path d="M398.697 499.5C454.366 499.5 499.495 454.818 499.495 399.7C499.495 344.582 454.366 299.899 398.697 299.899C343.027 299.899 297.898 344.582 297.898 399.7C297.898 454.818 343.027 499.5 398.697 499.5Z" fill="white"/>
<path d="M407.803 387.452L455.631 340.098L437.486 322.135L398.731 360.506L359.976 322.135L341.832 340.098L389.66 387.452C392.165 389.932 395.448 391.173 398.731 391.173C402.014 391.173 405.297 389.933 407.803 387.452ZM477.04 438.039L438.285 399.668L477.04 361.296L458.896 343.333L411.069 390.687C406.06 395.647 406.06 403.69 411.069 408.65L458.896 456.004L477.04 438.039ZM398.665 438.895L437.42 477.266L455.562 459.302L407.736 411.949C402.725 406.988 394.604 406.988 389.592 411.949L341.765 459.302L359.91 477.266L398.665 438.895ZM386.326 408.715C388.733 406.332 390.085 403.102 390.085 399.733C390.085 396.365 388.733 393.133 386.326 390.751L338.5 343.398L320.356 361.363L359.111 399.733L320.356 438.105L338.5 456.069L386.326 408.715Z" fill="black"/>
</g>
<path d="M497.5 400C497.5 453.824 453.424 497.5 399 497.5C344.576 497.5 300.5 453.824 300.5 400C300.5 346.176 344.576 302.5 399 302.5C453.424 302.5 497.5 346.176 497.5 400Z" stroke="black" stroke-width="5"/>
<defs>
<clipPath id="clip0_104_1410">
<rect width="202" height="200" fill="white" transform="translate(297.596 299.6)"/>
</clipPath>
</defs>
</svg>
