<svg
   version="1.1"
   id="svg1"
   viewBox="0 0 32 32"
   xmlns="http://www.w3.org/2000/svg">
   <defs>
    <clipPath id="circleClip">
      <circle cx="16" cy="16" r="16" />
    </clipPath>
  </defs>
  <g clip-path="url(#circleClip)">
    <path
       style="fill:#c5c5c5"
       d="M 19,14.5 V 14 H 19.5 20 V 13.5 13 H 19 18 V 13.5 14 H 17.5 17 V 13.5 13 H 16.5 16 V 12 11 H 16.5 17 V 10.5 10 H 16 15 V 9.5 9 H 15.5 16 V 8 7 H 16.5 17 V 8.5 10 H 17.5 18 V 8.5 7 H 18.5 19 V 8.5 10 H 18.5 18 v 0.5 0.5 h 1 1 V 10.5 10 H 20.5 21 V 10.5 11 H 20.5 20 v 1 1 H 20.5 21 V 13.5 14 H 20.5 20 V 14.5 15 H 19.5 19 Z M 18,12 V 11 H 17.5 17 v 1 1 h 0.5 0.5 z"
       id="path14" />
    <path
       style="fill:#629afe"
       d="M 0,15 V 0 H 16 32 V 10.5 21 H 30.5 29 V 20.5 20 H 28.5 28 V 18.5 17 H 27.5 27 V 16 15 H 26.5 26 V 14.5 14 H 27.5 29 V 13.5 13 H 26.5 24 V 12 11 H 24.5 25 V 10.5 10 H 24.5 24 V 9.5 9 H 23.5 23 V 8 7 H 21.5 20 V 8.5 10 H 19.5 19 V 8.5 7 h -2 -2 v 2 2 h 0.5 0.5 v 1 1 H 16.5 17 V 13.5 14 H 17.5 18 V 14.5 15 H 17.5 17 V 15.5 16 H 16.5 16 V 16.5 17 H 16.5 17 V 17.5 18 H 16.5 16 V 17.5 17 H 15.5 15 V 17.5 18 H 13.5 12 V 18.5 19 H 11.5 11 V 19.5 20 H 10 9 V 20.5 21 H 8.5 8 V 21.5 22 H 7 6 v 1 1 H 5.5 5 V 25.5 27 H 4.5 4 V 27.5 28 H 3.5 3 V 28.5 29 H 2.5 2 V 29.5 30 H 1 0 Z M 30,12.5 V 12 H 29.5 29 V 11.5 11 H 28.5 28 V 10.5 10 H 28.5 29 V 9.5 9 H 28.5 28 V 9.5 10 H 27.5 27 V 10.5 11 H 27.5 28 V 11.5 12 H 28.5 29 V 12.5 13 H 29.5 30 Z M 21,12 v -1 h 0.5 0.5 v 1 1 H 21.5 21 Z"
       id="path13" />
    <path
       style="fill:#9b9b9b"
       d="M 22,12 V 11 H 21.5 21 V 9.5 8 H 20.5 20 V 7.5 7 H 20.5 21 V 7.5 8 H 21.5 22 V 9.5 11 H 22.5 23 V 10 9 h 0.5 0.5 v 1 1 H 23.5 23 v 1 1 H 22.5 22 Z"
       id="path12" />
    <path
       style="fill:#c18d67"
       d="M 0,31.5 V 31 H 0.5 1 V 30.5 30 H 2.5 4 V 30.5 31 H 5 6 V 31.5 32 H 5 4 V 31.5 31 H 2.5 1 V 31.5 32 H 0.5 0 Z m 21,0 V 31 H 22.5 24 V 30.5 30 h 1 1 V 29.5 29 H 26.5 27 V 28.5 28 H 27.5 28 V 27.5 27 H 28.5 29 V 27.5 28 H 28.5 28 V 28.5 29 H 27.5 27 V 29.5 30 H 26.5 26 V 30.5 31 H 25 24 V 31.5 32 H 22.5 21 Z m 6,0 V 31 h 2 2 V 30.5 30 h 0.5 0.5 v 1 1 H 29.5 27 Z M 7,30 V 29 H 6.5 6 V 27 25 H 6.5 7 v 2 2 H 7.5 8 v 1 1 H 7.5 7 Z M 4,27.5 V 27 H 4.5 5 V 27.5 28 H 4.5 4 Z m 14,0 V 27 H 18.5 19 V 27.5 28 H 18.5 18 Z m -9,-2 V 25 H 9.5 10 V 25.5 26 H 9.5 9 Z m 8,0 V 25 H 17.5 18 V 25.5 26 H 17.5 17 Z m 8,-1 V 24 H 25.5 26 V 23.5 23 h 1 1 V 23.5 24 H 27 26 V 24.5 25 H 25.5 25 Z m -15,-1 V 23 H 10.5 11 V 23.5 24 H 10.5 10 Z m 3,0 V 23 H 13.5 14 V 23.5 24 H 13.5 13 Z m -5,-2 V 21 H 8.5 9 V 21.5 22 H 8.5 8 Z m 3,-1 V 20 H 11.5 12 V 19.5 19 H 12.5 13 V 19.5 20 H 12.5 12 V 20.5 21 H 11.5 11 Z"
       id="path11" />
    <path
       style="fill:#888888"
       d="M 22,9.5 V 8 H 21.5 21 v 1 1 H 20.5 20 V 9 8 H 20.5 21 V 7.5 7 h 1 1 v 2 2 H 22.5 22 Z"
       id="path10" />
    <path
       style="fill:#ca3b3b"
       d="m 23,18 v -1 h 1 1 v 1 1 h -1 -1 z m 3,0 v -1 h 0.5 0.5 v 1 1 H 26.5 26 Z"
       id="path9" />
    <path
       style="fill:#595959"
       d="M 19,19.5 V 19 H 18.5 18 V 18.5 18 H 17.5 17 v -1 -1 h 0.5 0.5 v -1 -1 h 0.5 0.5 v 0.5 0.5 h 1 1 V 14 13 H 21.5 22 V 13.5 14 H 22.5 23 V 13.5 13 H 24.5 26 V 13.5 14 H 25.5 25 V 14.5 15 H 24.5 24 V 14.5 14 H 23.5 23 v 1 1 H 22 21 V 17.5 19 H 21.5 22 V 19.5 20 H 21.5 21 V 19.5 19 H 20.5 20 V 19.5 20 H 19.5 19 Z m 0,-2 V 17 H 18.5 18 v 0.5 0.5 h 0.5 0.5 z m 8,2 V 19 H 27.5 28 V 19.5 20 H 27.5 27 Z"
       id="path8" />
    <path
       style="fill:#7a4e2e"
       d="M 24,31.5 V 31 H 20.5 17 V 30.5 30 H 15 13 V 30.5 31 H 12 11 V 30.5 30 H 10.5 10 V 29.5 29 H 9.5 9 V 28.5 28 h 1 1 V 27.5 27 H 9 7 V 25 23 H 7.5 8 V 22.5 22 H 8.5 9 V 21.5 21 H 10.5 12 V 20.5 20 H 12.5 13 V 19.5 19 h 0.5 0.5 v 1 1 h 0.5 0.5 v 0.5 0.5 h 1 1 v 0.5 0.5 h 0.5 0.5 v 0.5 0.5 h 3 3 V 23.5 23 h 1 1 v 0.5 0.5 h 1 1 V 23.5 23 h 1 1 V 22.5 22 H 30.5 31 V 22.5 23 H 31.5 32 V 23.5 24 H 31.5 31 v 0.5 0.5 h 0.5 0.5 v 2 2 H 31.5 31 V 29.5 30 H 29 27 V 29.5 29 H 26 25 V 28.5 28 H 23.5 22 V 28.5 29 H 22.5 23 V 29.5 30 H 23.5 24 V 30.5 31 H 24.5 25 V 31.5 32 H 24.5 24 Z m -11,-2 V 29 H 12.5 12 V 28.5 28 H 11.5 11 v 0.5 0.5 h 0.5 0.5 v 0.5 0.5 h 0.5 0.5 z m 9,0 V 29 H 19.5 17 V 28.5 28 H 16 15 V 27.5 27 H 14.5 14 V 26.5 26 H 13.5 13 v 0.5 0.5 h 0.5 0.5 v 0.5 0.5 h 0.5 0.5 v 0.5 0.5 h 1 1 v 0.5 0.5 h 2.5 2.5 z m 6,-1 V 28 H 28.5 29 V 27.5 27 H 28.5 28 V 26.5 26 H 28.5 29 V 25.5 25 H 29.5 30 V 25.5 26 H 30.5 31 V 25.5 25 H 30.5 30 V 24.5 24 H 29.5 29 V 24.5 25 H 28.5 28 V 25.5 26 H 27 26 V 26.5 27 H 25.5 25 V 27.5 28 H 25.5 26 V 27.5 27 h 1 1 V 27.5 28 H 27.5 27 v 0.5 0.5 h 0.5 0.5 z m -9,-1 V 27 H 18.5 18 v 0.5 0.5 h 0.5 0.5 z m -9,-2 V 25 H 9.5 9 V 25.5 26 H 9.5 10 Z m 8,0 V 25 H 17.5 17 v 0.5 0.5 h 0.5 0.5 z m 8,-1 V 24 H 25.5 25 v 0.5 0.5 h 0.5 0.5 z m -15,-1 V 23 H 10.5 10 v 0.5 0.5 h 0.5 0.5 z m 3,0 V 23 H 13.5 13 v 0.5 0.5 h 0.5 0.5 z"
       id="path7" />
    <path
       style="fill:#623b1e"
       d="M 1,31.5 V 31 H 0.5 0 V 30.5 30 H 0.5 1 V 30.5 31 H 2.5 4 V 30.5 30 H 3 2 V 29.5 29 H 2.5 3 V 28.5 28 H 4 5 V 26 24 H 5.5 6 V 23 22 H 7 8 V 22.5 23 H 7.5 7 v 1 1 H 6.5 6 v 2 2 H 6.5 7 v -1 -1 h 2 2 v 0.5 0.5 h 0.5 0.5 v 0.5 0.5 h 0.5 0.5 v 0.5 0.5 h 2 2 V 29.5 29 H 16 15 V 28.5 28 H 14.5 14 V 27.5 27 H 13.5 13 V 26.5 26 h 0.5 0.5 v 0.5 0.5 h 0.5 0.5 v 0.5 0.5 h 1 1 V 28.5 29 H 19.5 22 V 28.5 28 H 23.5 25 V 27.5 27 H 25.5 26 V 26.5 26 h 1 1 V 25.5 25 H 28.5 29 V 24.5 24 H 29.5 30 V 24.5 25 H 30.5 31 V 24.5 24 H 31.5 32 V 24.5 25 H 31.5 31 V 25.5 26 H 30.5 30 V 25.5 25 H 29.5 29 V 25.5 26 H 28.5 28 V 26.5 27 H 27 26 V 27.5 28 H 25.5 25 V 28.5 29 H 25.5 26 V 29.5 30 H 28.5 31 V 29.5 29 H 31.5 32 V 29.5 30 H 31.5 31 V 30.5 31 H 29 27 V 31.5 32 H 26 25 V 31.5 31 H 25.5 26 V 30.5 30 H 24.5 23 V 29.5 29 H 22.5 22 V 29.5 30 H 19.5 17 v 0.5 0.5 h 2 2 V 31.5 32 H 13.5 6 V 31.5 31 H 5 4 V 31.5 32 H 2.5 1 Z M 8,30 V 29 H 7.5 7 v 1 1 H 7.5 8 Z m 5,0.5 V 30 H 12.5 12 V 29.5 29 H 11.5 11 V 28.5 28 H 10 9 V 28.5 29 H 9.5 10 v 0.5 0.5 h 0.5 0.5 v 0.5 0.5 h 1 1 z M 31,22 v -1 h 0.5 0.5 v 1 1 H 31.5 31 Z M 9,20.5 V 20 h 1 1 V 19.5 19 H 11.5 12 V 18.5 18 H 12.5 13 V 18.5 19 H 12.5 12 V 19.5 20 H 11.5 11 V 20.5 21 H 10 9 Z m 6,-2 V 18 h 1 1 v 0.5 0.5 h -1 -1 z"
       id="path6" />
    <path
       style="fill:#513622"
       d="M 18,23.5 V 23 H 17.5 17 V 22.5 22 H 16 15 V 21.5 21 H 14.5 14 V 20 19 H 13.5 13 V 18.5 18 H 13.5 14 V 18.5 19 H 15.5 17 V 19.5 20 H 17.5 18 V 19.5 19 h 0.5 0.5 v 0.5 0.5 h 0.5 0.5 v 1 1 h 0.5 0.5 v -1 -1 h 2 2 V 20.5 21 H 24.5 24 V 21.5 22 H 25.5 27 V 21.5 21 H 26.5 26 V 20.5 20 h 1 1 v 0.5 0.5 h 0.5 0.5 v 0.5 0.5 h 0.5 0.5 v 0.5 0.5 h -3 -3 v 0.5 0.5 h -3 -3 z m 2,-1 V 22 H 19.5 19 v 0.5 0.5 h 0.5 0.5 z m -3,-2 V 20 H 16.5 16 v 0.5 0.5 h 0.5 0.5 z"
       id="path5" />
    <path
       style="fill:#0e0e75"
       d="M 24,21.5 V 21 h 0.5 0.5 v -1 -1 h 0.5 0.5 v 1 1 H 26.5 27 V 21.5 22 H 25.5 24 Z"
       id="path4" />
    <path
       style="fill:#381f1f"
       d="M 23,14.5 V 14 H 22.5 22 V 13.5 13 H 22.5 23 V 12 11 H 23.5 24 V 10.5 10 H 24.5 25 V 10.5 11 H 24.5 24 v 1 1 H 23.5 23 V 13.5 14 H 23.5 24 V 14.5 15 H 23.5 23 Z m 2,0 V 14 H 25.5 26 V 13.5 13 H 27.5 29 V 12.5 12 H 28.5 28 V 11.5 11 H 27.5 27 V 10.5 10 H 27.5 28 V 9.5 9 H 28.5 29 V 9.5 10 H 28.5 28 V 10.5 11 H 28.5 29 V 11.5 12 H 29.5 30 V 12.5 13 H 29.5 29 V 13.5 14 H 27.5 26 V 14.5 15 H 25.5 25 Z"
       id="path3" />
    <path
       style="fill:#000000"
       d="M 19,22.5 V 22 H 19.5 20 V 20.5 19 H 20.5 21 V 17.5 16 h 1 1 V 15.5 15 h 2 2 v 1 1 h 0.5 0.5 v 1 1 H 27.5 27 V 19.5 20 H 26.5 26 V 19.5 19 H 25.5 25 V 19.5 20 H 23.5 22 V 19.5 19 H 21.5 21 V 20.5 22 H 20.5 20 V 22.5 23 H 19.5 19 Z M 25,18 v -1 h -1 -1 v 1 1 h 1 1 z m 2,0 V 17 H 26.5 26 v 1 1 h 0.5 0.5 z m 2,3.5 V 21 H 28.5 28 V 20.5 20 h 0.5 0.5 v 0.5 0.5 h 1 1 v 0.5 0.5 h -1 -1 z m -13,-1 V 20 H 16.5 17 V 19 18 H 17.5 18 V 17.5 17 H 18.5 19 V 17.5 18 H 18.5 18 v 1 1 H 17.5 17 V 20.5 21 H 16.5 16 Z m -2,-2 V 18 H 14.5 15 V 17.5 17 H 15.5 16 V 16.5 16 H 16.5 17 V 15.5 15 H 17.5 18 V 15.5 16 H 17.5 17 V 16.5 17 H 16.5 16 V 17.5 18 H 15.5 15 V 18.5 19 H 14.5 14 Z"
       id="path2" />
  </g>
</svg>
