<svg width="500" height="500" viewBox="0 0 500 500" fill="none" xmlns="http://www.w3.org/2000/svg">
<g clip-path="url(#clip0_1208_1710)">
<mask id="mask0_1208_1710" style="mask-type:alpha" maskUnits="userSpaceOnUse" x="0" y="0" width="500" height="500">
<rect width="500" height="500" fill="#D9D9D9"/>
</mask>
<g mask="url(#mask0_1208_1710)">
<g clip-path="url(#clip1_1208_1710)">
<path d="M249.796 0H250.205C388.139 0 500 108.921 500 243.23V256.77C500 391.079 388.139 500 250.205 500H249.796C111.861 500 0 391.079 0 256.77V243.23C0 108.921 111.861 0 249.796 0Z" fill="#232323"/>
<path d="M351.757 188.387C350.948 189.284 349.936 189.981 348.824 190.379C347.711 190.877 346.497 191.077 345.284 191.077H116.19C108.099 191.077 103.952 181.115 109.616 175.138L147.242 135.789C148.051 134.893 149.062 134.195 150.276 133.697C151.389 133.199 152.602 133 153.816 133H383.82C392.013 133 396.059 143.061 390.293 149.038L351.757 188.387ZM351.757 364.31C350.038 366.004 347.711 367 345.284 367H116.19C108.099 367 103.952 357.238 109.616 351.46L147.242 313.008C148.051 312.111 149.164 311.414 150.276 311.015C151.389 310.517 152.602 310.318 153.816 310.318H383.82C392.013 310.318 396.059 320.18 390.293 325.958L351.757 364.31ZM351.757 224.349C350.038 222.655 347.711 221.659 345.284 221.659H116.19C108.099 221.659 103.952 231.421 109.616 237.199L147.242 275.651C148.051 276.548 149.164 277.245 150.276 277.644C151.389 278.142 152.602 278.341 153.816 278.341H383.82C392.013 278.341 396.059 268.479 390.293 262.701L351.757 224.349Z" fill="url(#paint0_linear_1208_1710)"/>
</g>
</g>
</g>
<g clip-path="url(#clip2_1208_1710)">
<mask id="mask1_1208_1710" style="mask-type:luminance" maskUnits="userSpaceOnUse" x="300" y="300" width="200" height="200">
<path d="M500 300H300V500H500V300Z" fill="white"/>
</mask>
<g mask="url(#mask1_1208_1710)">
<path d="M500 300H300V500H500V300Z" fill="white"/>
<path d="M847.945 300H300V847.945H847.945V300Z" fill="black"/>
<g opacity="0.4" filter="url(#filter0_f_1208_1710)">
<path d="M624.715 265.788C792.833 208.423 956.263 241.466 989.748 339.592C1023.23 437.718 914.082 563.768 745.966 621.134C577.848 678.499 414.417 645.457 380.935 547.331C347.452 449.204 456.596 323.154 624.715 265.788Z" fill="#FF2B57"/>
</g>
<g opacity="0.6" filter="url(#filter1_f_1208_1710)">
<path d="M579.495 232.212C808.906 197.274 1014.95 300.719 1039.7 463.263C1064.46 625.808 898.553 785.9 669.141 820.839C439.73 855.776 233.688 752.333 208.933 589.788C184.178 427.243 350.084 267.151 579.495 232.212Z" fill="#164094"/>
</g>
<path d="M400.274 475.219C380.38 475.207 361.304 467.302 347.231 453.242C333.157 439.181 325.236 420.112 325.206 400.218C325.236 380.323 333.157 361.253 347.23 347.191C361.303 333.128 380.379 325.222 400.274 325.207C420.169 325.222 439.245 333.128 453.318 347.191C467.391 361.253 475.312 380.323 475.343 400.218C475.312 420.112 467.391 439.181 453.318 453.242C439.244 467.302 420.168 475.207 400.274 475.219ZM400.274 330.982C381.91 330.994 364.301 338.291 351.31 351.271C338.319 364.251 331.008 381.854 330.98 400.218C330.998 418.584 338.306 436.192 351.3 449.173C364.293 462.153 381.908 469.445 400.274 469.445C418.641 469.445 436.255 462.153 449.249 449.173C462.242 436.192 469.55 418.584 469.568 400.218C469.54 381.854 462.229 364.251 449.238 351.271C436.247 338.291 418.638 330.994 400.274 330.982Z" fill="white"/>
<path d="M409.765 463.351C393.283 463.338 377.48 456.789 365.82 445.139C354.161 433.489 347.599 417.69 347.574 401.208C347.599 384.726 354.161 368.927 365.82 357.277C377.48 345.627 393.283 339.077 409.765 339.064C426.247 339.077 442.051 345.627 453.71 357.277C465.369 368.927 471.931 384.726 471.957 401.208C471.931 417.69 465.369 433.489 453.71 445.139C442.051 456.789 426.247 463.338 409.765 463.351ZM409.765 343.549C394.474 343.562 379.812 349.64 368.995 360.449C358.179 371.258 352.091 385.916 352.068 401.208C352.094 416.498 358.183 431.153 368.998 441.961C379.815 452.768 394.475 458.844 409.765 458.856C425.055 458.844 439.716 452.768 450.532 441.961C461.348 431.153 467.437 416.498 467.462 401.208C467.437 385.918 461.348 371.262 450.532 360.455C439.716 349.648 425.055 343.572 409.765 343.559V343.549Z" fill="white"/>
<path d="M419.255 451.495C406.186 451.485 393.655 446.291 384.41 437.054C375.165 427.816 369.962 415.288 369.941 402.219C369.962 389.15 375.165 376.622 384.41 367.385C393.655 358.147 406.186 352.954 419.255 352.943C432.326 352.951 444.858 358.144 454.104 367.382C463.349 376.62 468.552 389.149 468.569 402.219C468.549 415.288 463.346 427.816 454.101 437.054C444.856 446.291 432.324 451.485 419.255 451.495ZM419.255 356.148C407.036 356.156 395.317 361.011 386.673 369.648C378.029 378.285 373.164 389.999 373.146 402.219C373.166 414.437 378.032 426.149 386.677 434.784C395.321 443.419 407.037 448.273 419.255 448.281C431.474 448.273 443.19 443.419 451.835 434.784C460.478 426.149 465.345 414.437 465.365 402.219C465.347 389.999 460.482 378.285 451.838 369.648C443.193 361.011 431.476 356.156 419.255 356.148Z" fill="white"/>
<path d="M428.739 439.627C419.082 439.619 409.823 435.782 402.992 428.956C396.161 422.131 392.317 412.875 392.301 403.219C392.314 393.561 396.158 384.302 402.989 377.475C409.82 370.647 419.08 366.808 428.739 366.801C438.397 366.808 447.657 370.647 454.488 377.475C461.319 384.302 465.163 393.561 465.175 403.219C465.16 412.875 461.316 422.131 454.485 428.956C447.654 435.782 438.395 439.619 428.739 439.627ZM428.739 368.726C419.591 368.733 410.82 372.369 404.35 378.836C397.88 385.302 394.239 394.071 394.226 403.219C394.242 412.365 397.883 421.131 404.353 427.595C410.823 434.06 419.593 437.694 428.739 437.702C437.884 437.694 446.654 434.06 453.124 427.595C459.593 421.131 463.236 412.365 463.25 403.219C463.238 394.071 459.598 385.302 453.128 378.836C446.657 372.369 437.886 368.733 428.739 368.726Z" fill="white"/>
</g>
</g>
<circle cx="400" cy="400" r="97.5" stroke="black" stroke-width="5"/>
<defs>
<filter id="filter0_f_1208_1710" x="-75.1033" y="-212.379" width="1520.89" height="1311.68" filterUnits="userSpaceOnUse" color-interpolation-filters="sRGB">
<feFlood flood-opacity="0" result="BackgroundImageFix"/>
<feBlend mode="normal" in="SourceGraphic" in2="BackgroundImageFix" result="shape"/>
<feGaussianBlur stdDeviation="225" result="effect1_foregroundBlur_1208_1710"/>
</filter>
<filter id="filter1_f_1208_1710" x="-543.513" y="-524.572" width="2335.66" height="2102.2" filterUnits="userSpaceOnUse" color-interpolation-filters="sRGB">
<feFlood flood-opacity="0" result="BackgroundImageFix"/>
<feBlend mode="normal" in="SourceGraphic" in2="BackgroundImageFix" result="shape"/>
<feGaussianBlur stdDeviation="375" result="effect1_foregroundBlur_1208_1710"/>
</filter>
<linearGradient id="paint0_linear_1208_1710" x1="124.488" y1="369.92" x2="371.047" y2="126.193" gradientUnits="userSpaceOnUse">
<stop stop-color="#CF41E8"/>
<stop offset="1" stop-color="#10F2B0"/>
</linearGradient>
<clipPath id="clip0_1208_1710">
<rect width="500" height="500" rx="250" fill="white"/>
</clipPath>
<clipPath id="clip1_1208_1710">
<rect width="500" height="500" fill="white"/>
</clipPath>
<clipPath id="clip2_1208_1710">
<rect x="300" y="300" width="200" height="200" rx="100" fill="white"/>
</clipPath>
</defs>
</svg>
