<svg width="500" height="500" viewBox="0 0 500 500" fill="none" xmlns="http://www.w3.org/2000/svg">
<g clip-path="url(#clip0_984_982)">
<path d="M250 500C388.542 500 500 388.542 500 250C500 111.458 388.542 0 250 0C111.458 0 0 111.458 0 250C0 388.542 111.458 500 250 500Z" fill="#2775CA"/>
<path d="M318.75 289.583C318.75 253.125 296.875 240.625 253.125 235.418C221.875 231.25 215.625 222.918 215.625 208.333C215.625 193.748 226.042 184.375 246.875 184.375C265.625 184.375 276.042 190.625 281.25 206.25C282.292 209.375 285.417 211.458 288.542 211.458H305.207C309.375 211.458 312.5 208.333 312.5 204.168V203.125C308.332 180.208 289.582 162.5 265.625 160.418V135.418C265.625 131.25 262.5 128.125 257.292 127.083H241.667C237.5 127.083 234.375 130.208 233.332 135.418V159.375C202.082 163.543 182.292 184.375 182.292 210.418C182.292 244.793 203.125 258.333 246.875 263.543C276.042 268.75 285.417 275 285.417 291.668C285.417 308.335 270.832 319.793 251.042 319.793C223.957 319.793 214.582 308.333 211.457 292.708C210.417 288.543 207.292 286.458 204.167 286.458H186.457C182.292 286.458 179.167 289.583 179.167 293.75V294.793C183.332 320.833 200 339.583 234.375 344.793V369.793C234.375 373.958 237.5 377.083 242.707 378.125H258.332C262.5 378.125 265.625 375 266.667 369.793V344.793C297.917 339.583 318.75 317.708 318.75 289.583Z" fill="white"/>
<path d="M196.875 398.957C115.625 369.792 73.9573 279.167 104.167 198.957C119.792 155.207 154.167 121.875 196.875 106.25C201.042 104.167 203.125 101.042 203.125 95.8325V81.25C203.125 77.0825 201.042 73.9575 196.875 72.9175C195.832 72.9175 193.75 72.9175 192.707 73.9575C93.7498 105.207 39.5823 210.417 70.8323 309.375C89.5823 367.707 134.375 412.5 192.707 431.25C196.875 433.332 201.042 431.25 202.082 427.082C203.125 426.042 203.125 425 203.125 422.917V408.332C203.125 405.207 200 401.042 196.875 398.957ZM307.292 73.9575C303.125 71.875 298.957 73.9575 297.917 78.125C296.875 79.1675 296.875 80.2075 296.875 82.2925V96.875C296.875 101.042 300 105.207 303.125 107.292C384.375 136.457 426.042 227.082 395.832 307.292C380.207 351.042 345.832 384.375 303.125 400C298.957 402.082 296.875 405.207 296.875 410.417V425C296.875 429.167 298.957 432.292 303.125 433.332C304.167 433.332 306.25 433.332 307.292 432.292C406.25 401.042 460.417 295.832 429.167 196.875C410.417 137.5 364.582 92.7075 307.292 73.9575Z" fill="white"/>
</g>
<g clip-path="url(#clip1_984_982)">
<mask id="mask0_984_982" style="mask-type:luminance" maskUnits="userSpaceOnUse" x="300" y="300" width="200" height="200">
<path d="M500 300H300V500H500V300Z" fill="white"/>
</mask>
<g mask="url(#mask0_984_982)">
<path d="M500 300H300V500H500V300Z" fill="white"/>
<path d="M847.945 300H300V847.945H847.945V300Z" fill="black"/>
<g opacity="0.4" filter="url(#filter0_f_984_982)">
<path d="M624.715 265.787C792.833 208.422 956.263 241.465 989.748 339.591C1023.23 437.717 914.082 563.767 745.966 621.133C577.847 678.498 414.417 645.456 380.934 547.33C347.452 449.204 456.596 323.153 624.715 265.787Z" fill="#FF2B57"/>
</g>
<g opacity="0.6" filter="url(#filter1_f_984_982)">
<path d="M579.495 232.211C808.906 197.273 1014.95 300.718 1039.7 463.262C1064.46 625.807 898.553 785.899 669.141 820.838C439.73 855.775 233.688 752.332 208.933 589.787C184.178 427.242 350.084 267.15 579.495 232.211Z" fill="#164094"/>
</g>
<path d="M400.274 475.218C380.38 475.205 361.303 467.301 347.23 453.241C333.157 439.18 325.236 420.11 325.205 400.217C325.236 380.322 333.156 361.252 347.229 347.189C361.303 333.127 380.379 325.221 400.274 325.206C420.168 325.221 439.245 333.127 453.318 347.189C467.391 361.252 475.311 380.322 475.342 400.217C475.311 420.11 467.391 439.18 453.317 453.241C439.244 467.301 420.168 475.205 400.274 475.218ZM400.274 330.98C381.91 330.993 364.3 338.29 351.31 351.27C338.319 364.249 331.008 381.853 330.98 400.217C330.997 418.583 338.306 436.191 351.299 449.171C364.292 462.152 381.908 469.443 400.274 469.443C418.64 469.443 436.255 462.152 449.248 449.171C462.241 436.191 469.55 418.583 469.568 400.217C469.539 381.853 462.228 364.249 449.237 351.27C436.247 338.29 418.638 330.993 400.274 330.98Z" fill="white"/>
<path d="M409.765 463.351C393.283 463.338 377.479 456.788 365.82 445.138C354.161 433.488 347.599 417.689 347.574 401.207C347.599 384.726 354.161 368.927 365.82 357.276C377.479 345.626 393.283 339.077 409.765 339.064C426.247 339.077 442.051 345.626 453.71 357.276C465.369 368.927 471.931 384.726 471.957 401.207C471.931 417.689 465.369 433.488 453.71 445.138C442.051 456.788 426.247 463.338 409.765 463.351ZM409.765 343.549C394.473 343.562 379.811 349.639 368.995 360.448C358.178 371.258 352.091 385.916 352.068 401.207C352.094 416.497 358.182 431.153 368.998 441.96C379.815 452.767 394.475 458.843 409.765 458.856C425.055 458.843 439.716 452.767 450.532 441.96C461.348 431.153 467.437 416.497 467.462 401.207C467.437 385.917 461.348 371.262 450.532 360.454C439.716 349.647 425.055 343.571 409.765 343.558V343.549Z" fill="white"/>
<path d="M419.255 451.494C406.186 451.484 393.654 446.29 384.409 437.053C375.164 427.815 369.961 415.287 369.941 402.218C369.961 389.149 375.164 376.622 384.409 367.384C393.654 358.146 406.186 352.953 419.255 352.942C432.325 352.95 444.858 358.143 454.103 367.381C463.349 376.619 468.551 389.148 468.569 402.218C468.549 415.287 463.345 427.815 454.1 437.053C444.855 446.29 432.324 451.484 419.255 451.494ZM419.255 356.147C407.035 356.155 395.317 361.01 386.672 369.647C378.028 378.285 373.163 389.998 373.145 402.218C373.166 414.436 378.032 426.148 386.676 434.783C395.32 443.418 407.037 448.272 419.255 448.28C431.474 448.272 443.19 443.418 451.834 434.783C460.478 426.148 465.344 414.436 465.364 402.218C465.347 389.998 460.482 378.285 451.837 369.647C443.193 361.01 431.475 356.155 419.255 356.147Z" fill="white"/>
<path d="M428.739 439.627C419.082 439.619 409.823 435.782 402.992 428.956C396.161 422.131 392.317 412.875 392.301 403.219C392.314 393.561 396.158 384.302 402.989 377.475C409.82 370.647 419.08 366.808 428.739 366.801C438.397 366.808 447.657 370.647 454.488 377.475C461.319 384.302 465.163 393.561 465.175 403.219C465.16 412.875 461.316 422.131 454.485 428.956C447.654 435.782 438.395 439.619 428.739 439.627ZM428.739 368.726C419.591 368.733 410.82 372.369 404.35 378.836C397.88 385.302 394.239 394.071 394.226 403.219C394.242 412.365 397.883 421.131 404.353 427.595C410.823 434.06 419.593 437.694 428.739 437.702C437.884 437.694 446.654 434.06 453.124 427.595C459.593 421.131 463.236 412.365 463.25 403.219C463.238 394.071 459.598 385.302 453.128 378.836C446.657 372.369 437.886 368.733 428.739 368.726Z" fill="white"/>
</g>
</g>
<circle cx="400" cy="400" r="97.5" stroke="black" stroke-width="5"/>
<circle cx="100" cy="400" r="97.5" fill="black" stroke="black" stroke-width="5"/>
<g clip-path="url(#clip2_984_982)">
<mask id="mask1_984_982" style="mask-type:luminance" maskUnits="userSpaceOnUse" x="30" y="345" width="140" height="110">
<path d="M170 345.05H30V454.776H170V345.05Z" fill="white"/>
</mask>
<g mask="url(#mask1_984_982)">
<path d="M52.1701 426.694C52.9937 425.871 54.1263 425.39 55.3274 425.39H164.256C166.246 425.39 167.241 427.793 165.834 429.199L144.316 450.718C143.493 451.541 142.36 452.022 141.159 452.022H32.2308C30.2403 452.022 29.2451 449.619 30.6521 448.212L52.1701 426.694Z" fill="url(#paint0_linear_984_982)"/>
<path d="M52.1701 346.354C53.0281 345.53 54.1606 345.05 55.3274 345.05H164.256C166.246 345.05 167.241 347.452 165.834 348.859L144.316 370.377C143.493 371.201 142.36 371.681 141.159 371.681H32.2308C30.2403 371.681 29.2451 369.279 30.6521 367.872L52.1701 346.354Z" fill="url(#paint1_linear_984_982)"/>
<path d="M144.316 386.267C143.493 385.443 142.36 384.963 141.159 384.963H32.2308C30.2403 384.963 29.2451 387.365 30.6521 388.772L52.1701 410.29C52.9937 411.114 54.1263 411.594 55.3274 411.594H164.256C166.246 411.594 167.241 409.192 165.834 407.785L144.316 386.267Z" fill="url(#paint2_linear_984_982)"/>
</g>
</g>
<circle cx="100" cy="400" r="97.5" stroke="black" stroke-width="5"/>
<defs>
<filter id="filter0_f_984_982" x="-75.1035" y="-212.38" width="1520.89" height="1311.68" filterUnits="userSpaceOnUse" color-interpolation-filters="sRGB">
<feFlood flood-opacity="0" result="BackgroundImageFix"/>
<feBlend mode="normal" in="SourceGraphic" in2="BackgroundImageFix" result="shape"/>
<feGaussianBlur stdDeviation="225" result="effect1_foregroundBlur_984_982"/>
</filter>
<filter id="filter1_f_984_982" x="-543.514" y="-524.573" width="2335.66" height="2102.2" filterUnits="userSpaceOnUse" color-interpolation-filters="sRGB">
<feFlood flood-opacity="0" result="BackgroundImageFix"/>
<feBlend mode="normal" in="SourceGraphic" in2="BackgroundImageFix" result="shape"/>
<feGaussianBlur stdDeviation="375" result="effect1_foregroundBlur_984_982"/>
</filter>
<linearGradient id="paint0_linear_984_982" x1="153.85" y1="332.195" x2="78.4626" y2="476.592" gradientUnits="userSpaceOnUse">
<stop stop-color="#00FFA3"/>
<stop offset="1" stop-color="#DC1FFF"/>
</linearGradient>
<linearGradient id="paint1_linear_984_982" x1="120.886" y1="314.986" x2="45.4995" y2="459.382" gradientUnits="userSpaceOnUse">
<stop stop-color="#00FFA3"/>
<stop offset="1" stop-color="#DC1FFF"/>
</linearGradient>
<linearGradient id="paint2_linear_984_982" x1="137.263" y1="323.536" x2="61.8762" y2="467.933" gradientUnits="userSpaceOnUse">
<stop stop-color="#00FFA3"/>
<stop offset="1" stop-color="#DC1FFF"/>
</linearGradient>
<clipPath id="clip0_984_982">
<rect width="500" height="500" fill="white"/>
</clipPath>
<clipPath id="clip1_984_982">
<rect x="300" y="300" width="200" height="200" rx="100" fill="white"/>
</clipPath>
<clipPath id="clip2_984_982">
<rect width="140" height="140" fill="white" transform="translate(30 330)"/>
</clipPath>
</defs>
</svg>
