<svg width="500" height="500" viewBox="0 0 500 500" fill="none" xmlns="http://www.w3.org/2000/svg">
<g clip-path="url(#clip0_1351_2622)">
<mask id="mask0_1351_2622" style="mask-type:alpha" maskUnits="userSpaceOnUse" x="0" y="0" width="500" height="500">
<rect width="500" height="500" fill="#D9D9D9"/>
</mask>
<g mask="url(#mask0_1351_2622)">
<g clip-path="url(#clip1_1351_2622)">
<path d="M492.517 310.478C459.123 444.406 323.459 525.914 189.5 492.516C55.5955 459.125 -25.9211 323.47 7.48879 189.55C40.8674 55.6056 176.53 -25.9092 310.45 7.48116C444.403 40.8714 525.911 176.542 492.517 310.478Z" fill="url(#paint0_linear_1351_2622)"/>
<path fill-rule="evenodd" clip-rule="evenodd" d="M292.114 114.881C294.348 106.544 302.917 101.597 311.253 103.831C319.591 106.065 324.538 114.634 322.303 122.97L315.684 147.674L319.789 148.774C349.347 156.694 366.888 187.075 358.967 216.631L358.6 218.005C352.425 241.05 332.234 256.599 309.658 257.936L309.652 257.956L309.292 257.958H309.266L309.155 257.964C307.511 258.099 307.205 260.464 308.844 260.975C337.291 272.241 353.394 303.3 345.283 333.569C336.552 366.158 303.055 385.497 270.466 376.766L260.872 374.194L254.255 398.892C252.02 407.228 243.452 412.175 235.116 409.942C226.778 407.708 221.831 399.139 224.066 390.802L230.683 366.105L203.234 358.75L196.617 383.447C194.384 391.783 185.816 396.73 177.478 394.497C169.142 392.263 164.195 383.694 166.428 375.356L173.045 350.661L145.591 343.305L130.501 339.261C121.407 336.824 116.01 327.475 118.447 318.381C120.884 309.286 130.232 303.889 139.326 306.327L154.416 310.37L197.069 151.186L183.361 147.513C174.267 145.077 168.869 135.729 171.306 126.634C173.744 117.54 183.091 112.143 192.186 114.579L205.908 118.256L227.858 124.141L234.478 99.4381C236.711 91.1015 245.28 86.1542 253.617 88.3879C261.953 90.6218 266.902 99.1907 264.667 107.527L258.048 132.231L285.495 139.585L292.114 114.881ZM217.997 220.369C215.127 209.652 221.486 198.638 232.202 195.766L288.411 180.705C299.128 177.833 310.142 184.192 313.014 194.908C315.884 205.625 309.525 216.639 298.809 219.511L242.6 234.572C231.883 237.444 220.869 231.084 217.997 220.369ZM192.292 311.263C189.422 300.547 195.781 289.531 206.497 286.661L262.706 271.599C273.423 268.728 284.438 275.088 287.309 285.803C290.18 296.519 283.82 307.534 273.105 310.405L216.895 325.467C206.178 328.338 195.164 321.978 192.292 311.263Z" fill="white"/>
</g>
</g>
</g>
<circle cx="400" cy="400" r="97.5" fill="black" stroke="black" stroke-width="5"/>
<g clip-path="url(#clip2_1351_2622)">
<path fill-rule="evenodd" clip-rule="evenodd" d="M400.003 300.191C455.127 300.191 499.814 344.875 499.814 399.994C499.814 455.114 455.127 499.797 400.003 499.797C344.879 499.797 300.192 455.114 300.192 399.994C300.192 344.875 344.879 300.191 400.003 300.191Z" fill="#2E3148"/>
<path fill-rule="evenodd" clip-rule="evenodd" d="M399.806 342.422C431.608 342.422 457.388 368.202 457.388 400.004C457.388 431.805 431.608 457.585 399.806 457.585C368.005 457.585 342.225 431.805 342.225 400.004C342.225 368.202 368.005 342.422 399.806 342.422Z" fill="#1B1E36"/>
<path fill-rule="evenodd" clip-rule="evenodd" d="M472.496 352.705C470.759 352.22 468.641 352.055 466.242 352.151L466.242 352.151C461.099 352.356 454.398 353.781 446.653 356.217L446.653 356.217C430.611 361.263 410.42 370.527 390.054 382.278L391.554 384.877L390.054 382.278C369.689 394.029 351.566 406.873 339.172 418.234L341.199 420.446L339.172 418.234C333.189 423.719 328.604 428.807 325.855 433.156C324.572 435.184 323.656 437.099 323.208 438.846C322.772 440.543 322.676 442.509 323.664 444.218L326.262 442.718L323.664 444.218C323.664 444.218 323.664 444.218 323.664 444.218C324.651 445.927 326.403 446.827 328.09 447.299C329.827 447.784 331.945 447.949 334.344 447.853L334.225 444.856L334.345 447.853C339.487 447.648 346.189 446.224 353.933 443.788C369.975 438.742 390.166 429.477 410.531 417.726C430.897 405.975 449.021 393.132 461.414 381.77L459.387 379.559L461.414 381.77C467.397 376.285 471.982 371.197 474.731 366.849C476.014 364.82 476.93 362.905 477.378 361.158C477.814 359.462 477.91 357.495 476.922 355.786M472.496 352.705C474.183 353.177 475.935 354.077 476.922 355.786ZM471.693 358.807C471.697 358.944 471.683 359.215 471.567 359.667C471.33 360.589 470.754 361.912 469.66 363.643L469.66 363.643C467.321 367.342 463.177 372.015 457.36 377.347L457.36 377.347C445.383 388.327 427.648 400.923 407.533 412.529L409.032 415.128L407.533 412.529C387.418 424.136 367.636 433.188 352.133 438.064L352.133 438.064C344.603 440.433 338.481 441.684 334.106 441.858L334.106 441.858C332.059 441.94 330.623 441.777 329.705 441.52C329.253 441.394 329.01 441.27 328.893 441.198C328.889 441.06 328.903 440.789 329.019 440.337C329.256 439.415 329.832 438.092 330.926 436.362C333.265 432.662 337.409 427.99 343.226 422.657C355.204 411.677 372.938 399.082 393.053 387.475C413.168 375.869 432.95 366.817 448.453 361.94C455.983 359.572 462.105 358.321 466.48 358.146M471.693 358.807C471.576 358.734 471.333 358.61 470.881 358.484C469.963 358.227 468.528 358.065 466.481 358.146" fill="#6F7390"/>
<path fill-rule="evenodd" clip-rule="evenodd" d="M405.152 486.178C406.441 484.916 407.642 483.165 408.759 481.039L408.759 481.039C411.153 476.483 413.27 469.967 415.032 462.042L415.032 462.042C418.683 445.626 420.756 423.508 420.762 399.995L417.762 399.995L420.762 399.995C420.768 376.483 418.707 354.366 415.064 337.952L412.135 338.602L415.064 337.952C413.306 330.028 411.192 323.513 408.8 318.958C407.685 316.833 406.485 315.082 405.196 313.82C403.944 312.595 402.289 311.529 400.315 311.529L400.316 314.529L400.315 311.529C400.315 311.529 400.315 311.529 400.315 311.529C398.341 311.53 396.686 312.597 395.434 313.822C394.145 315.084 392.944 316.836 391.827 318.962L394.483 320.357L391.827 318.962C389.433 323.518 387.316 330.034 385.554 337.959C381.903 354.374 379.83 376.492 379.824 400.005C379.818 423.517 381.879 445.635 385.522 462.049L388.451 461.399L385.522 462.049C387.28 469.973 389.394 476.487 391.786 481.042C392.901 483.167 394.101 484.919 395.39 486.18C396.642 487.405 398.297 488.472 400.271 488.471M405.152 486.178C403.9 487.404 402.245 488.471 400.271 488.471ZM400.27 482.432C400.148 482.367 399.921 482.219 399.587 481.892C398.907 481.227 398.05 480.066 397.098 478.253L397.098 478.253C395.063 474.378 393.089 468.453 391.379 460.749L391.379 460.749C387.859 444.886 385.818 423.23 385.824 400.006L382.824 400.006L385.824 400.006C385.83 376.783 387.882 355.126 391.411 339.261L391.411 339.261C393.124 331.556 395.101 325.629 397.138 321.752L397.139 321.752C398.091 319.939 398.95 318.777 399.631 318.11C399.967 317.782 400.195 317.633 400.317 317.569C400.438 317.633 400.665 317.781 400.999 318.108C401.679 318.774 402.536 319.934 403.488 321.747C405.523 325.622 407.497 331.548 409.207 339.252C412.727 355.114 414.768 376.77 414.762 399.994C414.756 423.217 412.704 444.875 409.175 460.739C407.462 468.444 405.484 474.371 403.448 478.248M400.27 482.432C400.391 482.367 400.619 482.219 400.955 481.89C401.636 481.223 402.495 480.062 403.448 478.248" fill="#6F7390"/>
<path fill-rule="evenodd" clip-rule="evenodd" d="M328.09 352.705C329.828 352.22 331.945 352.055 334.344 352.151L334.345 352.151C339.487 352.356 346.189 353.781 353.933 356.217L353.933 356.217C369.975 361.263 390.166 370.527 410.532 382.278L409.032 384.877L410.532 382.278C430.897 394.029 449.021 406.873 461.414 418.234L459.387 420.446L461.414 418.234C467.397 423.719 471.982 428.807 474.732 433.156C476.014 435.184 476.93 437.099 477.379 438.846C477.814 440.543 477.91 442.509 476.922 444.218L474.325 442.718L476.922 444.218C476.922 444.218 476.922 444.218 476.922 444.218C475.935 445.927 474.183 446.827 472.496 447.299C470.759 447.784 468.641 447.949 466.242 447.853L466.361 444.856L466.242 447.853C461.099 447.648 454.397 446.224 446.653 443.788C430.611 438.742 410.42 429.477 390.055 417.726C369.689 405.975 351.566 393.132 339.172 381.77L341.199 379.559L339.172 381.77C333.189 376.285 328.604 371.197 325.855 366.849C324.572 364.82 323.656 362.905 323.208 361.158C322.772 359.462 322.676 357.495 323.664 355.786M328.09 352.705C326.403 353.177 324.651 354.077 323.664 355.786ZM328.893 358.807C328.889 358.944 328.903 359.215 329.02 359.667C329.256 360.589 329.832 361.912 330.926 363.643L330.926 363.643C333.265 367.342 337.409 372.015 343.227 377.347L343.227 377.347C355.204 388.327 372.938 400.923 393.053 412.529L391.554 415.128L393.053 412.529C413.168 424.136 432.95 433.188 448.453 438.064L448.454 438.064C455.983 440.433 462.105 441.684 466.48 441.858L466.481 441.858C468.527 441.94 469.963 441.777 470.881 441.52C471.333 441.394 471.576 441.27 471.693 441.198C471.697 441.06 471.683 440.789 471.567 440.337C471.33 439.415 470.754 438.092 469.66 436.362C467.321 432.662 463.177 427.99 457.36 422.657C445.382 411.677 427.648 399.082 407.533 387.475C387.418 375.869 367.636 366.817 352.133 361.94C344.603 359.572 338.482 358.321 334.106 358.146M328.893 358.807C329.011 358.734 329.253 358.61 329.705 358.484C330.623 358.227 332.059 358.065 334.106 358.146" fill="#6F7390"/>
<path fill-rule="evenodd" clip-rule="evenodd" d="M344.441 375.527C347.835 375.527 350.586 378.28 350.586 381.675C350.586 385.071 347.835 387.823 344.441 387.823C341.047 387.823 338.296 385.071 338.296 381.675C338.296 378.28 341.047 375.527 344.441 375.527Z" fill="#B7B9C8"/>
<path fill-rule="evenodd" clip-rule="evenodd" d="M442.113 354.477C445.508 354.477 448.261 357.229 448.261 360.625C448.261 364.02 445.508 366.773 442.113 366.773C438.717 366.773 435.965 364.02 435.965 360.625C435.965 357.229 438.717 354.477 442.113 354.477Z" fill="#B7B9C8"/>
<path fill-rule="evenodd" clip-rule="evenodd" d="M387.912 450.977C391.308 450.977 394.06 453.728 394.06 457.122C394.06 460.515 391.308 463.267 387.912 463.267C384.517 463.267 381.764 460.515 381.764 457.122C381.764 453.728 384.517 450.977 387.912 450.977Z" fill="#B7B9C8"/>
<path fill-rule="evenodd" clip-rule="evenodd" d="M399.953 389.543C405.702 389.543 410.362 394.203 410.362 399.952C410.362 405.7 405.702 410.361 399.953 410.361C394.204 410.361 389.544 405.7 389.544 399.952C389.544 394.203 394.204 389.543 399.953 389.543Z" fill="#B7B9C8"/>
</g>
<circle cx="400" cy="400" r="97.5" stroke="black" stroke-width="5"/>
<defs>
<linearGradient id="paint0_linear_1351_2622" x1="250" y1="2.38473e-05" x2="250" y2="500" gradientUnits="userSpaceOnUse">
<stop stop-color="#FEDF70"/>
<stop offset="1" stop-color="#D88528"/>
</linearGradient>
<clipPath id="clip0_1351_2622">
<rect width="500" height="500" rx="250" fill="white"/>
</clipPath>
<clipPath id="clip1_1351_2622">
<rect width="500" height="500" fill="white"/>
</clipPath>
<clipPath id="clip2_1351_2622">
<rect width="200" height="200" fill="white" transform="translate(300 300)"/>
</clipPath>
</defs>
</svg>
