<?xml version="1.0" encoding="utf-8"?>
<!-- Generator: Adobe Illustrator 28.0.0, SVG Export Plug-In . SVG Version: 6.00 Build 0)  -->
<svg version="1.1" id="Layer_1" xmlns="http://www.w3.org/2000/svg" xmlns:xlink="http://www.w3.org/1999/xlink" x="0px" y="0px"
	 viewBox="0 0 600 600" style="enable-background:new 0 0 600 600;" xml:space="preserve">
<style type="text/css">
	.st0{enable-background:new    ;}
	.st1{fill:#FFFFFF;}
	.st2{fill:#BDFF00;}
</style>
<circle cx="300" cy="300" r="300"/>
<g class="st0">
	<path class="st1" d="M300.7,134.1c-20.4,0-37,74.1-37,165.6s16.6,165.6,37,165.6c20.4,0,37-74.1,37-165.6S321.1,134.1,300.7,134.1z
		 M303.2,455.9c-2.3,3.1-4.7,0.8-4.7,0.8c-9.4-10.9-14.1-31.2-14.1-31.2c-16.5-53-12.5-166.7-12.5-166.7
		c7.7-90.3,21.8-111.6,26.6-116.4c1-1,2.6-1.1,3.7-0.3c6.9,4.9,12.8,25.5,12.8,25.5c17.2,63.9,15.7,123.9,15.7,123.9
		c1.6,52.2-8.6,110.6-8.6,110.6C314.2,446.5,303.2,455.9,303.2,455.9z"/>
	<path class="st1" d="M444.3,217.3c-10.2-17.7-82.7,4.8-162.1,50.3S146.9,364.3,157,382s82.7-4.8,162.1-50.3S454.4,235,444.3,217.3
		L444.3,217.3z M166.4,379.6c-3.9-0.5-3-3.7-3-3.7c4.8-13.6,20-27.8,20-27.8c37.8-40.6,138.4-93.9,138.4-93.9
		c82.2-38.2,107.7-36.6,114.2-34.8c1.4,0.4,2.3,1.7,2.1,3.1c-0.8,8.5-15.8,23.8-15.8,23.8c-46.8,46.7-99.6,75.2-99.6,75.2
		c-44.5,27.3-100.3,47.6-100.3,47.6C180,384.5,166.4,379.6,166.4,379.6L166.4,379.6L166.4,379.6z"/>
	<path class="st1" d="M443.9,382.6c10.3-17.7-45.6-69.2-124.7-115S167.7,199,157.4,216.7c-10.2,17.7,45.6,69.2,124.7,115
		S433.7,400.4,443.9,382.6z M164.2,223.5c-1.5-3.6,1.7-4.5,1.7-4.5c14.2-2.7,34,3.4,34,3.4c54.1,12.3,150.5,72.7,150.5,72.7
		c74.3,52,85.7,74.9,87.4,81.4c0.4,1.4-0.3,2.8-1.6,3.4c-7.7,3.5-28.5-1.7-28.5-1.7c-63.9-17.1-115.1-48.5-115.1-48.5
		c-45.9-24.8-91.4-62.9-91.4-62.9C166.8,237.7,164.2,223.6,164.2,223.5L164.2,223.5z"/>
	<circle class="st1" cx="300.3" cy="299.3" r="19.5"/>
	<ellipse class="st1" cx="380.1" cy="224.5" rx="11.3" ry="11.7"/>
	<ellipse class="st1" cx="194.7" cy="264.2" rx="11.3" ry="11.7"/>
	<ellipse class="st1" cx="277.3" cy="407.6" rx="11.3" ry="11.7"/>
</g>
<g>
	<path class="st2" d="M518.5,125.2v26.2c0,2-2.3,3-3.7,1.6l-32.1-33.9c-0.1-0.1-0.2-0.2-0.3-0.2c-0.1-0.1-0.3-0.1-0.4-0.1
		c-0.1,0-0.3,0-0.4,0.1c-0.1,0.1-0.2,0.1-0.3,0.2l-32.1,33.9c-1.3,1.4-3.7,0.4-3.7-1.6v-26.2c0-0.6,0.2-1.2,0.6-1.6l34.3-36.2
		c0.2-0.2,0.4-0.4,0.7-0.5c0.3-0.1,0.5-0.2,0.8-0.2c0.3,0,0.6,0.1,0.8,0.2c0.3,0.1,0.5,0.3,0.7,0.5l34.4,36.2
		C518.2,124,518.5,124.6,518.5,125.2z"/>
	<path class="st2" d="M460.9,102.1l-14-14.7c-0.2-0.2-0.4-0.4-0.7-0.5c-0.3-0.1-0.5-0.2-0.8-0.2c-0.3,0-0.6,0.1-0.8,0.2
		c-0.3,0.1-0.5,0.3-0.7,0.5l-34.3,36.2c-0.4,0.4-0.6,1-0.6,1.6v26.2c0,2,2.3,3,3.7,1.6L460.9,102.1z"/>
	<path class="st2" d="M482,125.2v26.2c0,2-2.3,3-3.7,1.6l-11.8-12.4l15.3-16.2C481.9,124.7,482,124.9,482,125.2z"/>
</g>
</svg>
