<?xml version="1.0" encoding="utf-8"?>
<!-- Generator: Adobe Illustrator 28.0.0, SVG Export Plug-In . SVG Version: 6.00 Build 0)  -->
<svg version="1.1" id="Layer_1" xmlns="http://www.w3.org/2000/svg" xmlns:xlink="http://www.w3.org/1999/xlink" x="0px" y="0px"
	 viewBox="0 0 600 600" style="enable-background:new 0 0 600 600;" xml:space="preserve">
<style type="text/css">
	.st0{fill:#BDFF00;}
	.st1{fill:#FFFFFF;}
</style>
<circle cx="300" cy="300" r="300"/>
<g>
	<path class="st0" d="M518.5,125.2v26.2c0,2-2.3,3-3.7,1.6l-32.1-33.9c-0.1-0.1-0.2-0.2-0.3-0.2c-0.1-0.1-0.3-0.1-0.4-0.1
		c-0.1,0-0.3,0-0.4,0.1c-0.1,0.1-0.2,0.1-0.3,0.2l-32.1,33.9c-1.3,1.4-3.7,0.4-3.7-1.6v-26.2c0-0.6,0.2-1.2,0.6-1.6l34.3-36.2
		c0.2-0.2,0.4-0.4,0.7-0.5c0.3-0.1,0.5-0.2,0.8-0.2c0.3,0,0.6,0.1,0.8,0.2c0.3,0.1,0.5,0.3,0.7,0.5l34.4,36.2
		C518.2,124,518.5,124.6,518.5,125.2z"/>
	<path class="st0" d="M460.9,102.1l-14-14.7c-0.2-0.2-0.4-0.4-0.7-0.5c-0.3-0.1-0.5-0.2-0.8-0.2c-0.3,0-0.6,0.1-0.8,0.2
		c-0.3,0.1-0.5,0.3-0.7,0.5l-34.3,36.2c-0.4,0.4-0.6,1-0.6,1.6v26.2c0,2,2.3,3,3.7,1.6L460.9,102.1z"/>
	<path class="st0" d="M482,125.2v26.2c0,2-2.3,3-3.7,1.6l-11.8-12.4l15.3-16.2C481.9,124.7,482,124.9,482,125.2z"/>
</g>
<g id="Layer_2_00000127748930854274216490000000239683474026870680_">
	<g id="Layer_1-2">
		<g id="Page-1">
			<g id="wbtc_colour">
				<path id="Shape" class="st1" d="M396.9,204.7l-8.4,8.4c41.4,45.3,41.4,114.8,0,160.1l8.4,8.4c46.1-50,46.1-127.1,0-177.1V204.7z
					"/>
				<path id="Shape-2" class="st1" d="M220.7,205.4c45.3-41.4,114.8-41.4,160.1,0l8.4-8.4c-50-46.1-127.1-46.1-177.1,0L220.7,205.4z
					"/>
				<path id="Shape-3" class="st1" d="M212.8,373.3c-41.4-45.3-41.4-114.7,0-160l-8.4-8.4c-46.1,50-46.1,127.1,0,177.1L212.8,373.3z
					"/>
				<path id="Shape-4" class="st1" d="M380.7,381c-45.3,41.4-114.8,41.4-160.1,0l-8.4,8.4c50,46.1,127.1,46.1,177.1,0L380.7,381z"/>
				<path id="Shape-5" class="st1" d="M353.6,265.3c-1.7-17.5-16.8-23.4-35.8-25.1V216H303v23.6c-3.9,0-7.8,0-11.8,0V216h-14.6v24.2
					h-29.9v15.8c0,0,10.9-0.2,10.7,0c4.1-0.4,7.8,2.4,8.4,6.5v66.4c-0.1,1.4-0.7,2.7-1.8,3.6c-1,0.9-2.4,1.4-3.8,1.3
					c0.2,0.2-10.7,0-10.7,0l-2.8,17.6h29.6v24.6H291v-24.3h11.8V376h14.8v-24.4c24.9-1.5,42.3-7.7,44.5-31
					c1.8-18.8-7.1-27.2-21.2-30.5C349.5,285.9,354.8,278.1,353.6,265.3z M332.9,317.7c0,18.3-31.4,16.2-41.4,16.2v-32.5
					C301.5,301.5,332.9,298.6,332.9,317.7z M326,271.9c0,16.8-26.2,14.7-34.5,14.7v-29.6C299.8,257.1,326,254.5,326,271.9z"/>
				<path id="Shape-6" class="st1" d="M300.6,445.8c-84.3,0-152.6-68.4-152.6-152.6c0-84.3,68.4-152.6,152.6-152.6
					c84.3,0,152.6,68.3,152.6,152.6C453.3,377.5,385,445.8,300.6,445.8C300.7,445.8,300.6,445.8,300.6,445.8z M300.6,152.5
					C223,152.6,160,215.6,160.1,293.3s63.1,140.6,140.7,140.5c77.6-0.1,140.5-63,140.5-140.6c0-77.7-62.9-140.7-140.6-140.7
					C300.7,152.5,300.7,152.5,300.6,152.5z"/>
			</g>
		</g>
	</g>
</g>
</svg>
