<?xml version="1.0" encoding="utf-8"?>
<!-- Generator: Adobe Illustrator 28.0.0, SVG Export Plug-In . SVG Version: 6.00 Build 0)  -->
<svg version="1.1" id="Layer_1" xmlns="http://www.w3.org/2000/svg" xmlns:xlink="http://www.w3.org/1999/xlink" x="0px" y="0px"
	 viewBox="0 0 600 600" style="enable-background:new 0 0 600 600;" xml:space="preserve">
<style type="text/css">
	.st0{fill:#FFFFFF;}
	.st1{fill:#FFFFFF;enable-background:new    ;}
	.st2{fill:#BDFF00;}
</style>
<circle cx="300" cy="300" r="300"/>
<g>
	<path class="st0" d="M442.1,201c-3.2-12-13.3-23.9-31.6-37.3c-14.7-10.6-30.3-16.7-42.7-16.7c-2.5,0-4.7,0.2-7,0.7
		c-5.6,1.1-10.6,5.2-13.8,11.3c-3.8,7.2-4.7,16.9-2.3,22.8c0.9,1.8,2,4.1,3.4,6.1c-12,7.2-18.7,9.3-19.6,9.5
		c31.2,10.4,57.1,32.1,73.4,60.3l0.2-2.7c0.7-7.5,2.9-16,6.1-24.8c3.2,0.9,6.3,1.4,9.5,1.4c8.4,0,15.6-3.4,20.1-9.5
		C442.4,215.9,444.2,207.8,442.1,201z M409.6,223.6c-1.8-0.7-3.6-1.1-5.2-1.4c-2,4.7-4.3,10.2-5.9,16.3
		C385,220.4,367,206,346.2,196.7c3.4-2,7.5-4.3,11.7-7.2c-3.4-4.1-5.9-7.7-7-10.2c-2.7-6.3,0.5-22.8,11.3-25.1
		c10.8-2.3,27.8,2.7,44.5,14.9c16.7,12.2,26.2,23,29.1,33.6C438.5,213.4,430.2,229.2,409.6,223.6z"/>
	<g>
		<path class="st0" d="M376.2,176.6c4.5,1.8,10.4,5,17.6,9.7c8.6,5.6,16,12,20.8,16.9c-7.9,10.4-13.1,24.6-16.3,34.5
			c1.6,2.3,3.4,4.5,5,6.8c1.6-5.6,4.3-14,7.9-22.4c0.9,0.2,2,0.2,3.2,0.2c2.7,0,5.9-0.5,8.4-2.5c1.8-1.4,3.8-3.8,3.6-8.4
			c0-4.3-3.4-9.7-10.4-16.3c-5-4.7-11.7-9.9-18.5-14.7c-19.4-12.9-33-16.5-39.1-10.4c-4.1,4.1-3.6,9-2.3,12.6
			c-7.2,4.7-13.3,8.1-17.4,10.4c2.7,0.9,5.2,2,7.9,3.2C353.9,192.6,364.2,186.1,376.2,176.6z M418.9,208.9c0.7,1.1,0.9,2.3,0.9,2.9
			c0,2-0.7,2.7-1.1,3.2c-0.9,0.7-2.7,1.1-4.3,1.1C415.7,213.4,417.3,211.2,418.9,208.9z M363.1,175.3c0.7-0.7,2.5-1.1,5.4-0.7
			c-2.3,1.8-4.5,3.4-6.8,5C361.5,178,361.8,176.4,363.1,175.3z"/>
	</g>
	<g>
		<path class="st0" d="M292,185c-73.8,0-133.7,59.8-133.7,133.7S218.2,452.3,292,452.3s133.7-59.8,133.7-133.7S365.6,185,292,185z
			 M292,444.8c-69.8,0-126.2-56.4-126.2-126.2S222.2,192.4,292,192.4s126.2,56.4,126.2,126.2S361.5,444.8,292,444.8z"/>
	</g>
	<path class="st0" d="M171.9,317.5c0,0.2,0,0.5,0,0.7L171.9,317.5L171.9,317.5z"/>
	<path class="st0" d="M411.6,317.5c-1.3-13.1-24.7-20.6-55.7-23.3c-23-1.8-46.3,0.5-72.9,8.6c-23,6.8-43.8,5.6-58.9,3.8
		c-32.9-3.7-51.3-4.3-52.1,10.8c0,0.2,0,0.5,0,0.7c0,0.5,0,0.9,0,1.4v0.1c1.4,23.3,48.9,51.6,119.6,41.6c36.4-5.2,55.1-15.8,76.5-23
		c23.3-7.7,43.6-7.5,43.6-19.6C411.7,318.3,411.6,317.9,411.6,317.5z M385.9,326.8c-6,1.4-12.7,3-19.8,5.4c-5.9,2-11.4,4.1-17.2,6.4
		c-15.9,6.2-32.3,12.6-58.2,16.4c-9.4,1.3-18.7,2-27.7,2c-23.9,0-46.1-4.8-62.5-13.6c-13.1-7-21.5-16.2-22.1-24l0-0.1
		c0-0.4,0-0.7,0-1.1c0-0.2,0-0.3,0-0.4c0.2-2.8,0.6-6.9,16.8-6.9c8,0,18.3,1,28.2,2.2c8.1,1,15.2,1.4,22.2,1.4
		c13.9,0,26.7-1.8,39.2-5.5c19.7-6,38.1-8.9,56.4-8.9c4.7,0,9.4,0.2,14.2,0.6c33.5,2.9,49.2,10.8,49.8,17.5c0,0.3,0,0.4,0,0.5
		C405.3,322.2,395.9,324.4,385.9,326.8z"/>
	<path class="st0" d="M171.9,319.6c0-0.3,0-0.6,0-0.9v-0.5C171.9,318.7,171.9,319.1,171.9,319.6z"/>
	<circle class="st0" cx="331.3" cy="241.4" r="20.3"/>
	<circle class="st0" cx="364.5" cy="268.3" r="8.6"/>
	<path class="st1" d="M411.6,317.5c0,0.4,0.1,0.7,0.1,1.1c0,12.2-20.3,12-43.6,19.6c-21.4,7.2-40.2,17.8-76.5,23
		c-70.7,10-118.2-18.3-119.6-41.6c1.2,65.2,54.7,117.7,120.1,117.7c66.2,0,119.9-53.7,119.9-119.9H411.6z M256.8,410.5
		c-5.7,0-10.4-4.7-10.4-10.4c0-2.9,1.2-5.5,3.1-7.4c0,0,0,0,0,0c0.1-0.1,0.2-0.1,0.2-0.2c0.6-0.6,1.3-1,2-1.4
		c0.2-0.1,0.4-0.2,0.5-0.3c0.3-0.1,0.5-0.2,0.8-0.3c0,0,0,0,0,0c0,0,0,0,0,0c1.1-0.4,2.3-0.7,3.6-0.7c5.7,0,10.4,4.7,10.4,10.4
		C267.2,405.9,262.5,410.5,256.8,410.5z M283.6,412.8c-2.7,0-5-1.7-5.9-4.1c0,0,0,0,0,0c-0.1-0.3-0.2-0.6-0.3-0.9
		c-0.5-2.1,0.1-4.3,1.7-5.9c0.7-0.7,1.4-1.1,2.3-1.4c-0.2,0.2-0.4,0.3-0.6,0.5c0.9-0.4,1.8-0.7,2.8-0.7c3.5,0,6.3,2.8,6.3,6.3
		C290,410,287.1,412.8,283.6,412.8z M302.7,423.6c0,0,0.1,0,0.1,0c-0.1,0-0.2,0.1-0.3,0.1c-0.4,0.2-0.8,0.4-1.2,0.5
		c-0.1,0-0.2,0-0.3,0c-0.2,0-0.5,0.1-0.7,0.1c-0.1,0-0.1,0-0.2,0c-0.2,0-0.5,0-0.7-0.1c0,0,0,0,0,0c-0.6-0.1-1.1-0.3-1.6-0.7
		c-0.1-0.1-0.2-0.1-0.3-0.2c-0.2-0.1-0.4-0.2-0.6-0.4c-1.8-1.8-1.8-5,0-6.8c0.5-0.5,0.9-0.9,1.6-1.1c-0.2,0.2-0.4,0.3-0.6,0.5
		c0.7-0.4,1.5-0.7,2.4-0.7c2.6,0,4.7,2.1,4.7,4.7C305.1,421.3,304.1,422.8,302.7,423.6z M316.6,409.6c-2.7,0-5-1.7-5.9-4.1
		c0,0,0,0,0,0c-0.1-0.3-0.2-0.6-0.3-0.9c-0.5-2.1,0.1-4.3,1.7-5.9c0.7-0.7,1.4-1.1,2.3-1.4c-0.2,0.2-0.4,0.3-0.6,0.5
		c0.9-0.4,1.8-0.7,2.8-0.7c3.5,0,6.3,2.8,6.3,6.3C322.9,406.8,320.1,409.6,316.6,409.6z M331.8,420.3c0,0,0.1,0,0.1,0
		c-0.1,0-0.2,0.1-0.3,0.1c-0.4,0.2-0.8,0.4-1.2,0.5c-0.1,0-0.2,0-0.3,0c-0.2,0-0.5,0.1-0.7,0.1c-0.1,0-0.1,0-0.2,0
		c-0.2,0-0.5,0-0.7-0.1c0,0,0,0,0,0c-0.6-0.1-1.1-0.3-1.6-0.7c-0.1-0.1-0.2-0.1-0.3-0.2c-0.2-0.1-0.4-0.2-0.6-0.4
		c-1.8-1.8-1.8-5,0-6.8c0.5-0.5,0.9-0.9,1.6-1.1c-0.2,0.2-0.4,0.3-0.6,0.5c0.7-0.4,1.5-0.7,2.4-0.7c2.6,0,4.7,2.1,4.7,4.7
		C334.2,417.9,333.3,419.4,331.8,420.3z M349.6,385c-2.9,0-5.5-1.2-7.4-3.1c0,0,0,0,0,0c-0.4-0.4-0.7-0.8-1-1.2
		c-0.1-0.1-0.1-0.2-0.2-0.2c-2.8-4.1-2.5-9.6,1.2-13.3c1.1-0.9,2.3-1.8,3.6-2.3c-0.3,0.1-0.5,0.3-0.7,0.4c1.4-0.7,2.9-1.1,4.6-1.1
		c5.7,0,10.4,4.7,10.4,10.4C360,380.4,355.3,385,349.6,385z"/>
</g>
<g>
	<path class="st2" d="M518.5,125.2v26.2c0,2-2.3,3-3.7,1.6l-32.1-33.9c-0.1-0.1-0.2-0.2-0.3-0.2c-0.1-0.1-0.3-0.1-0.4-0.1
		c-0.1,0-0.3,0-0.4,0.1c-0.1,0.1-0.2,0.1-0.3,0.2l-32.1,33.9c-1.3,1.4-3.7,0.4-3.7-1.6v-26.2c0-0.6,0.2-1.2,0.6-1.6l34.3-36.2
		c0.2-0.2,0.4-0.4,0.7-0.5c0.3-0.1,0.5-0.2,0.8-0.2c0.3,0,0.6,0.1,0.8,0.2c0.3,0.1,0.5,0.3,0.7,0.5l34.4,36.2
		C518.2,124,518.5,124.6,518.5,125.2z"/>
	<path class="st2" d="M460.9,102.1l-14-14.7c-0.2-0.2-0.4-0.4-0.7-0.5c-0.3-0.1-0.5-0.2-0.8-0.2c-0.3,0-0.6,0.1-0.8,0.2
		c-0.3,0.1-0.5,0.3-0.7,0.5l-34.3,36.2c-0.4,0.4-0.6,1-0.6,1.6v26.2c0,2,2.3,3,3.7,1.6L460.9,102.1z"/>
	<path class="st2" d="M482,125.2v26.2c0,2-2.3,3-3.7,1.6l-11.8-12.4l15.3-16.2C481.9,124.7,482,124.9,482,125.2z"/>
</g>
</svg>
