<?xml version="1.0" encoding="utf-8"?>
<!-- Generator: Adobe Illustrator 28.0.0, SVG Export Plug-In . SVG Version: 6.00 Build 0)  -->
<svg version="1.1" id="Layer_1" xmlns="http://www.w3.org/2000/svg" xmlns:xlink="http://www.w3.org/1999/xlink" x="0px" y="0px"
	 viewBox="0 0 600 600" style="enable-background:new 0 0 600 600;" xml:space="preserve">
<style type="text/css">
	.st0{fill:#BDFF00;}
	.st1{fill:#FFFFFF;}
</style>
<circle cx="300" cy="300" r="300"/>
<g>
	<path class="st0" d="M518.5,125.2v26.2c0,2-2.3,3-3.7,1.6l-32.1-33.9c-0.1-0.1-0.2-0.2-0.3-0.2c-0.1-0.1-0.3-0.1-0.4-0.1
		s-0.3,0-0.4,0.1s-0.2,0.1-0.3,0.2L449.2,153c-1.3,1.4-3.7,0.4-3.7-1.6v-26.2c0-0.6,0.2-1.2,0.6-1.6l34.3-36.2
		c0.2-0.2,0.4-0.4,0.7-0.5c0.3-0.1,0.5-0.2,0.8-0.2s0.6,0.1,0.8,0.2c0.3,0.1,0.5,0.3,0.7,0.5l34.4,36.2
		C518.2,124,518.5,124.6,518.5,125.2z"/>
	<path class="st0" d="M460.9,102.1l-14-14.7c-0.2-0.2-0.4-0.4-0.7-0.5c-0.3-0.1-0.5-0.2-0.8-0.2s-0.6,0.1-0.8,0.2
		c-0.3,0.1-0.5,0.3-0.7,0.5l-34.3,36.2c-0.4,0.4-0.6,1-0.6,1.6v26.2c0,2,2.3,3,3.7,1.6L460.9,102.1z"/>
	<path class="st0" d="M482,125.2v26.2c0,2-2.3,3-3.7,1.6l-11.8-12.4l15.3-16.2C481.9,124.7,482,124.9,482,125.2z"/>
</g>
<g>
	<path class="st1" d="M304.2,135.8c1.1,0.3,2.2,0.8,3.3,0.8c72.6,2.5,136.1,55,152.2,126.7C480.2,355,422.9,440.5,336.3,460
		c-72.4,16.3-144.9-16.6-180.6-82.1c-10.4-19.1-16.6-39.5-18.6-61.2c-3.5-36.8,3.7-71.3,23.5-102.6c25-39.7,60.6-64.8,106.7-74.5
		c8.3-1.7,16.8-2,25.2-3.1c1.1-0.1,2.2-0.6,3.3-0.9C298.5,135.8,301.4,135.8,304.2,135.8z M389.4,250.7c-1.7-1.5-2.7-2.6-3.9-3.5
		c-39.2-30.3-82.6-50.5-132.4-55c-17.3-1.6-34.4-0.6-51,5.1c-15.4,5.3-27.6,14.4-33.9,30c-4.9,12.3-4.1,24.8-0.2,37.1
		c8.8,27.6,26.8,48.8,48.2,67.4c3.2,2.8,6.6,2.6,10.1,0.2c15.8-10.8,31.6-21.6,47.3-32.4c3.2-2.2,4.9-5.3,5.2-9.2
		c0.7-8.3,1.3-16.7,2.1-25c1.9-18,5.6-35.6,11.2-52.8c1.4-4.4,2.5-4.9,7.1-3.6c1.1,0.3,2.3,0.6,3.4,1.1c2.1,1,3,2.4,2.2,4.9
		c-6.9,21-10.8,42.6-12.6,64.7c-1.4,16.9-1.9,33.8-0.2,50.5c1.5,14.8,4.3,29.6,6.6,44.3c0.6,4-0.4,6.3-4.1,8c-2.5,1.1-5,2-7.5,3
		c-3.5,1.4-6.9,1.1-10.3-0.4c-27-12.4-52.1-27.7-74-48c-20.5-18.9-37.5-40.2-46.6-67.1c-0.3-1-1.6-1.7-2.4-2.5
		c-0.8,1.2-2,2.3-2.2,3.6c-2.8,15.4-3.6,30.8-1.8,46.4c2.7,23,10.1,44.3,22.6,63.7c1,1.6,3.1,3.5,4.7,3.4c1.5-0.1,3.4-2.2,4.3-3.9
		c5.4-10.4,12.9-19.2,21-27.5c2.9-3,6-2.5,9.5,1c2.6,2.6,2.5,4.9-0.3,8c-2.6,2.9-5.4,5.6-7.9,8.6c-5.7,6.9-11.2,14.1-13.5,23
		c-1.8,7,0.3,12,7.3,13.8c6.8,1.7,14,2.9,20.9,2.4c10.5-0.8,21.1-2.6,31.3-5.1c34.2-8.3,66-22.7,96.6-39.7
		c19.4-10.7,37.9-22.6,55.3-36.4c1.5-1.2,3.3-3.1,3.5-4.9c0.8-9.3,1.5-18.6,1.3-27.9c-0.2-10.9-1-21.9-1.9-32.8
		c-1.5-18.7-5.2-37.1-11.4-54.9c-4.8-13.8-10.9-26.9-20.9-37.9c-12.2-13.5-27.2-14.6-40.3-2.2c-5.4,5.1-9.7,11.5-14,17.7
		c-3.5,5-2.5,6.9,3.2,9.2c22.6,8.9,43.7,20.7,63.5,34.8c6.1,4.3,10,9.5,10.7,17c0.1,1.5,0.4,3,0.7,4.5c1.2,6.9-1.7,10.7-8.4,12.9
		c-16.5,5.3-33,10.6-49.1,16.8c-11.9,4.6-23.2,10.6-34.7,16.1c-4,1.9-4.9,1.4-4.9-3.2c0-1.5,0-3.1,0-4.6c-0.1-2.7,1.1-4.7,3.6-6
		c26-13,52.8-24.1,81-31.4C385.2,251.9,386.9,251.4,389.4,250.7z M299.8,451.6c6.1-0.5,12.2-0.8,18.3-1.4c1.2-0.1,2.9-1.1,3.2-2.1
		c0.3-0.9-0.5-2.7-1.3-3.5c-10.7-9.8-17.6-22.1-23.3-35.2c-2-4.6-2.8-4.8-7.5-3.3c-15,4.6-29.9,9.3-45,13.3
		c-7.3,1.9-15.1,2.2-22.6,3.5c-1.4,0.2-2.7,1.4-4,2.1c0.8,1.2,1.6,2.4,2.5,3.4c0.6,0.7,1.6,1,2.4,1.5
		C246.3,444.2,272.1,451.2,299.8,451.6z M297.5,187.2c4.2,0,6.3-2.2,7.9-5.2c5.2-9.4,11.4-17.9,19.7-24.9c1-0.9,2-2.7,1.8-3.8
		c-0.3-1-2.1-2.1-3.4-2.3c-14-2.5-28.1-2.6-42.2-0.8c-22.4,2.8-43,10.2-62,22.2c-2.2,1.4-4.4,2.8-6.4,4.4c-0.6,0.5-1,1.9-0.8,2.7
		c0.1,0.5,1.4,0.9,2.3,1.1c0.8,0.1,1.6-0.1,2.5-0.2c5.6-0.6,11.2-1.6,16.8-1.8c16.1-0.5,32,1.1,47.7,4.6
		C286.8,184.6,292.4,186,297.5,187.2z M346.8,443.4c4-1.4,8.4-2.2,12.1-4.4c11.6-6.7,18.5-17.6,24.4-29.2c1.4-2.7-0.8-4.8-4.1-4.5
		c-12.1,1.1-24.3,0.5-36.3-1.5c-10.1-1.6-20-4.1-30.1-6.1c-1.3-0.3-3.2,0.1-4.1,1c-0.8,0.9-1.2,3-0.8,4.1
		c4.7,11.6,10.5,22.5,19.7,31.1C332.9,439,338.9,442.6,346.8,443.4z M231.7,344.1c17,12.3,34.3,22.3,52.7,29.8
		c-2.3-20.8-4.5-41-6.8-61.7C261.8,321.6,246.6,331.9,231.7,344.1z M367.9,393.7c0-0.2,0.1-0.4,0.1-0.5c5.8-0.4,11.5-0.6,17.3-1.1
		c3-0.3,6.2-0.8,7.1-4.3c3.2-12.4,6.2-24.9,9.2-37.3c0.2-0.9-0.3-2.6-0.9-3c-0.7-0.4-2.2,0.1-3.1,0.7c-19.4,13.9-39.9,26.1-61.1,37
		c-1.1,0.5-1.7,2-2.5,3c1,0.6,2,1.7,3.1,1.8C347.4,391.3,357.6,392.5,367.9,393.7z M443.3,338.8c-0.2-2.4-0.3-5.3-0.8-8.2
		c-0.5-3.2-1.2-6.5-2.2-9.6c-1.2-4.3-4.4-5.1-7.7-2.1c-4,3.7-8.2,7.1-11.9,11.1c-1.9,2.1-3.5,5.1-4.1,7.9
		c-2.9,13.7-5.5,27.4-8.1,41.2c-0.3,1.5,0.1,3.7,1.1,4.6c0.8,0.8,3.2,0.8,4.4,0.2C432.7,374.8,442.7,360.2,443.3,338.8z
		 M436.2,246.6c3.6,1,4.7-0.9,3.1-4.8c-7.9-19-19.4-35.6-34.2-49.9c-0.8-0.8-2.4-0.8-3.6-1.2c-0.1,1.2-0.6,2.6-0.2,3.5
		c5.9,14.5,10,29.4,12.7,44.8c0.9,4.8,3.7,7.4,8.4,7.6C427,246.7,431.6,246.6,436.2,246.6z M448.6,272.5c-0.3-0.1-0.6-0.2-0.9-0.3
		c0.5-3.6-0.7-6.5-3.8-8.6c-6-4-12.9-4.3-19.7-4.4c-2.9,0-4.1,2.5-2.5,4.7c5.3,7.1,10.6,14.2,16,21.2c1.7,2.2,4.6,2.2,5.8-0.3
		C445.5,280.8,447,276.6,448.6,272.5z M418.8,298.7C418.8,298.7,418.8,298.7,418.8,298.7c0,3.4-0.1,6.9,0,10.3
		c0,0.9,0.6,2.1,1.3,2.6c0.4,0.3,1.8-0.2,2.4-0.8c2.5-2.5,5.2-4.9,7.3-7.7c0.9-1.1,1.2-3.6,0.5-4.8c-2.1-4-4.6-7.7-7.2-11.4
		c-0.5-0.8-2.1-1.6-2.8-1.3c-0.8,0.3-1.5,1.8-1.5,2.8C418.7,291.8,418.8,295.2,418.8,298.7z M411.4,403c-0.1-0.5-0.3-1.1-0.4-1.6
		c-1.1-0.4-2.3-1.2-3.3-1.1c-5.6,0.7-9.8,5-10.3,10.6c-0.1,0.8,1.1,1.6,1.7,2.5C403.1,409.9,407.2,406.4,411.4,403z M450.5,305.7
		c0-1.8,0-3.6,0-5.6C447.2,302.1,447,303.2,450.5,305.7z"/>
	<path class="st1" d="M450.5,305.7"/>
</g>
</svg>
