<svg width="500" height="500" viewBox="0 0 500 500" fill="none" xmlns="http://www.w3.org/2000/svg">
<g clip-path="url(#clip0_1291_2278)">
<path d="M250 500C388.071 500 500 388.071 500 250C500 111.929 388.071 0 250 0C111.929 0 0 111.929 0 250C0 388.071 111.929 500 250 500Z" fill="#6FBCEF"/>
<mask id="mask0_1291_2278" style="mask-type:luminance" maskUnits="userSpaceOnUse" x="0" y="0" width="500" height="500">
<path d="M500 250C500 388.07 388.07 500 250 500C111.929 500 0 388.07 0 250C0 111.929 111.929 0 250 0C388.07 0 500 111.929 500 250Z" fill="#8DCBF5"/>
</mask>
<g mask="url(#mask0_1291_2278)">
<path d="M282.5 -10L435 47.5L490 158.75C490 158.75 423.75 101.25 346.25 61.25C268.75 21.25 146.25 10 146.25 10L282.5 -10Z" fill="#7AC1F2"/>
<path d="M39.5853 85.0039C39.5853 85.0039 182.472 126.252 258.735 161.25C335 196.248 360.97 222.55 408.738 280.001C439.028 316.433 473.448 382.631 473.448 382.631L414.998 448.746C414.998 448.746 395.68 365.053 364.998 321.246C323.55 262.068 268.733 234.999 216.241 211.249C163.75 187.498 -0.0129395 142.727 -0.0129395 142.727L39.5853 85.0039Z" fill="#7AC1F2"/>
<path d="M6.2473 326.245L-3.75012 251.25C-3.75012 251.25 113.75 293.75 188.75 346.25C263.75 398.75 308.747 499.995 308.747 499.995L224.997 503.745C224.997 503.745 216.25 480 156.25 413.75C96.25 347.5 6.2473 326.245 6.2473 326.245Z" fill="#7AC1F2"/>
</g>
<path d="M113.686 396.857C141.934 445.792 192.531 475 249.027 475C305.523 475 356.11 445.792 384.368 396.857C412.618 347.937 412.618 289.517 384.368 240.586L265.333 34.4142C258.085 21.8619 239.968 21.8619 232.721 34.4142L113.686 240.586C85.4381 289.507 85.4381 347.925 113.686 396.857ZM215.495 132.499L240.874 88.54C244.498 82.2635 253.558 82.2635 257.18 88.54L354.818 257.655C372.755 288.722 376.12 324.68 364.918 357.585C363.753 352.217 362.12 346.725 359.923 341.175C346.438 307.14 315.943 280.877 269.27 263.11C237.182 250.937 216.7 233.036 208.377 209.9C197.658 180.079 208.854 147.559 215.495 132.499ZM172.218 207.457L143.237 257.655C121.155 295.902 121.155 341.56 143.237 379.81C165.32 418.055 204.862 440.88 249.027 440.88C278.36 440.88 305.663 430.802 327.16 412.827C329.965 405.767 338.645 379.933 327.92 353.3C318.013 328.71 294.173 309.08 257.053 294.94C215.097 279.025 187.838 254.177 176.05 221.112C174.427 216.559 173.166 211.997 172.218 207.457Z" fill="white"/>
</g>
<g clip-path="url(#clip1_1291_2278)">
<mask id="mask1_1291_2278" style="mask-type:luminance" maskUnits="userSpaceOnUse" x="300" y="300" width="200" height="200">
<path d="M500 300H300V500H500V300Z" fill="white"/>
</mask>
<g mask="url(#mask1_1291_2278)">
<path d="M500 300H300V500H500V300Z" fill="white"/>
<path d="M847.945 300H300V847.945H847.945V300Z" fill="black"/>
<g opacity="0.4" filter="url(#filter0_f_1291_2278)">
<path d="M624.715 265.785C792.833 208.419 956.263 241.462 989.748 339.588C1023.23 437.714 914.082 563.764 745.966 621.13C577.848 678.495 414.418 645.453 380.935 547.327C347.452 449.201 456.596 323.15 624.715 265.785Z" fill="#FF2B57"/>
</g>
<g opacity="0.6" filter="url(#filter1_f_1291_2278)">
<path d="M579.495 232.211C808.906 197.272 1014.95 300.717 1039.7 463.261C1064.46 625.806 898.553 785.898 669.141 820.837C439.73 855.774 233.688 752.331 208.933 589.786C184.178 427.241 350.084 267.149 579.495 232.211Z" fill="#164094"/>
</g>
<path d="M400.274 475.215C380.38 475.203 361.304 467.298 347.23 453.238C333.157 439.177 325.236 420.108 325.206 400.214C325.236 380.319 333.157 361.249 347.23 347.187C361.303 333.124 380.379 325.218 400.274 325.203C420.169 325.218 439.245 333.124 453.318 347.187C467.391 361.249 475.312 380.319 475.343 400.214C475.312 420.108 467.391 439.177 453.318 453.238C439.244 467.298 420.168 475.203 400.274 475.215ZM400.274 330.978C381.91 330.99 364.301 338.287 351.31 351.267C338.319 364.247 331.008 381.85 330.98 400.214C330.998 418.58 338.306 436.188 351.3 449.169C364.293 462.149 381.908 469.441 400.274 469.441C418.641 469.441 436.255 462.149 449.249 449.169C462.242 436.188 469.55 418.58 469.568 400.214C469.54 381.85 462.229 364.247 449.238 351.267C436.247 338.287 418.638 330.99 400.274 330.978Z" fill="white"/>
<path d="M409.765 463.349C393.283 463.336 377.479 456.787 365.82 445.137C354.161 433.487 347.599 417.688 347.574 401.206C347.599 384.724 354.161 368.925 365.82 357.275C377.479 345.625 393.283 339.075 409.765 339.062C426.247 339.075 442.051 345.625 453.71 357.275C465.369 368.925 471.931 384.724 471.957 401.206C471.931 417.688 465.369 433.487 453.71 445.137C442.051 456.787 426.247 463.336 409.765 463.349ZM409.765 343.547C394.473 343.56 379.811 349.638 368.995 360.447C358.179 371.256 352.091 385.914 352.068 401.206C352.094 416.496 358.182 431.152 368.998 441.959C379.815 452.766 394.475 458.842 409.765 458.855C425.055 458.842 439.716 452.766 450.532 441.959C461.348 431.152 467.437 416.496 467.462 401.206C467.437 385.916 461.348 371.26 450.532 360.453C439.716 349.646 425.055 343.57 409.765 343.557V343.547Z" fill="white"/>
<path d="M419.255 451.493C406.186 451.483 393.655 446.289 384.41 437.052C375.165 427.814 369.962 415.286 369.941 402.217C369.962 389.148 375.165 376.621 384.41 367.383C393.655 358.145 406.186 352.952 419.255 352.941C432.326 352.949 444.858 358.142 454.104 367.38C463.349 376.618 468.552 389.147 468.569 402.217C468.549 415.286 463.346 427.814 454.101 437.052C444.856 446.289 432.324 451.483 419.255 451.493ZM419.255 356.146C407.036 356.154 395.317 361.009 386.673 369.646C378.029 378.284 373.164 389.997 373.146 402.217C373.166 414.435 378.032 426.147 386.677 434.782C395.321 443.417 407.037 448.271 419.255 448.279C431.474 448.271 443.19 443.417 451.835 434.782C460.478 426.147 465.345 414.435 465.365 402.217C465.347 389.997 460.482 378.284 451.838 369.646C443.193 361.009 431.476 356.154 419.255 356.146Z" fill="white"/>
<path d="M428.739 439.627C419.082 439.619 409.823 435.782 402.992 428.956C396.161 422.131 392.317 412.875 392.301 403.219C392.314 393.561 396.158 384.302 402.989 377.475C409.82 370.647 419.081 366.808 428.739 366.801C438.397 366.808 447.658 370.647 454.488 377.475C461.319 384.302 465.163 393.561 465.175 403.219C465.16 412.875 461.316 422.131 454.485 428.956C447.654 435.782 438.395 439.619 428.739 439.627ZM428.739 368.726C419.591 368.733 410.82 372.369 404.35 378.836C397.88 385.302 394.239 394.071 394.226 403.219C394.242 412.365 397.883 421.131 404.353 427.595C410.823 434.06 419.593 437.694 428.739 437.702C437.884 437.694 446.654 434.06 453.124 427.595C459.593 421.131 463.236 412.365 463.25 403.219C463.238 394.071 459.598 385.302 453.128 378.836C446.658 372.369 437.886 368.733 428.739 368.726Z" fill="white"/>
</g>
</g>
<circle cx="400" cy="400" r="97.5" stroke="black" stroke-width="5"/>
<defs>
<filter id="filter0_f_1291_2278" x="-75.1031" y="-212.383" width="1520.89" height="1311.68" filterUnits="userSpaceOnUse" color-interpolation-filters="sRGB">
<feFlood flood-opacity="0" result="BackgroundImageFix"/>
<feBlend mode="normal" in="SourceGraphic" in2="BackgroundImageFix" result="shape"/>
<feGaussianBlur stdDeviation="225" result="effect1_foregroundBlur_1291_2278"/>
</filter>
<filter id="filter1_f_1291_2278" x="-543.513" y="-524.574" width="2335.66" height="2102.2" filterUnits="userSpaceOnUse" color-interpolation-filters="sRGB">
<feFlood flood-opacity="0" result="BackgroundImageFix"/>
<feBlend mode="normal" in="SourceGraphic" in2="BackgroundImageFix" result="shape"/>
<feGaussianBlur stdDeviation="375" result="effect1_foregroundBlur_1291_2278"/>
</filter>
<clipPath id="clip0_1291_2278">
<rect width="500" height="500" fill="white"/>
</clipPath>
<clipPath id="clip1_1291_2278">
<rect x="300" y="300" width="200" height="200" rx="100" fill="white"/>
</clipPath>
</defs>
</svg>
