<svg width="500" height="500" viewBox="0 0 500 500" fill="none" xmlns="http://www.w3.org/2000/svg">
<g clip-path="url(#clip0_1212_1668)">
<mask id="mask0_1212_1668" style="mask-type:alpha" maskUnits="userSpaceOnUse" x="0" y="0" width="500" height="500">
<rect width="500" height="500" fill="#D9D9D9"/>
</mask>
<g mask="url(#mask0_1212_1668)">
<g clip-path="url(#clip1_1212_1668)">
<path d="M250 500C388.071 500 500 388.071 500 250C500 111.929 388.071 0 250 0C111.929 0 0 111.929 0 250C0 388.071 111.929 500 250 500Z" fill="#0088CC"/>
<path fill-rule="evenodd" clip-rule="evenodd" d="M180.357 165.178H320.536C325.893 165.178 330.357 166.071 335.714 168.749C341.964 171.428 345.536 175.892 347.321 179.463C347.321 179.463 347.321 180.356 348.214 180.356C350.893 184.821 352.678 190.178 352.678 196.428C352.678 201.785 351.786 207.142 348.214 212.499L259.821 364.285C258.036 367.856 254.464 369.642 250 369.642C246.428 369.642 242.857 367.856 240.178 364.285L153.571 212.499C151.786 208.928 148.214 204.463 148.214 197.321C147.321 191.071 149.107 185.713 151.786 180.356C154.464 174.999 158.928 170.535 165.178 168.749C170.536 165.178 176.786 165.178 180.357 165.178ZM239.286 186.606H180.357C176.786 186.606 175 186.606 174.107 187.499C172.321 188.392 171.428 189.285 170.536 191.071C169.643 191.963 169.643 193.749 169.643 195.535C169.643 196.428 170.536 197.321 172.321 200.892L239.286 316.963V186.606ZM260.714 186.606V317.856L328.571 200.892C329.464 199.106 329.464 197.321 329.464 195.535C329.464 193.749 329.464 191.963 328.571 191.071C327.678 190.178 327.678 189.285 326.786 189.285L325.893 188.392C324.107 187.499 322.321 187.499 319.643 187.499H260.714V186.606Z" fill="white"/>
</g>
</g>
</g>
<circle cx="400" cy="400" r="97.5" fill="white" stroke="black" stroke-width="5"/>
<g clip-path="url(#clip2_1212_1668)">
<mask id="mask1_1212_1668" style="mask-type:luminance" maskUnits="userSpaceOnUse" x="305" y="305" width="190" height="190">
<path d="M495 305H305V495H495V305Z" fill="white"/>
</mask>
<g mask="url(#mask1_1212_1668)">
<path d="M383.688 386.138L389.708 403.92H376.127L382.498 386.138H383.688ZM416.171 413.441H406.23V416.942H430.733V413.441H420.932V385.438H430.733V381.938H406.23V385.438H416.171V413.441ZM371.437 416.942L374.797 407.56H390.969L394.119 416.942H399.299L386.698 381.938H379.557L366.746 416.942H371.437ZM450.265 450.265H349.734V349.734H450.265V450.265Z" fill="black"/>
<path d="M409.801 495C454.676 490.379 490.38 454.676 495 409.801H483.169C478.968 448.725 449.495 479.738 409.801 484.149V495Z" fill="black"/>
<path d="M305 409.801C309.62 454.676 345.324 490.379 390.199 495V484.149C350.505 479.738 321.102 448.655 316.831 409.801H305Z" fill="black"/>
<path d="M495 390.199C490.38 345.324 454.676 309.62 409.801 305V315.851C449.495 320.262 478.898 351.345 483.169 390.199H495Z" fill="black"/>
<path d="M390.199 305C345.324 309.62 309.62 345.324 305 390.199H316.831C321.032 351.275 350.505 320.262 390.199 315.851V305Z" fill="black"/>
</g>
</g>
<circle cx="400" cy="400" r="97.5" stroke="black" stroke-width="5"/>
<defs>
<clipPath id="clip0_1212_1668">
<rect width="500" height="500" rx="250" fill="white"/>
</clipPath>
<clipPath id="clip1_1212_1668">
<rect width="500" height="500" fill="white"/>
</clipPath>
<clipPath id="clip2_1212_1668">
<rect width="190" height="190" fill="white" transform="translate(305 305)"/>
</clipPath>
</defs>
</svg>
