<?xml version="1.0" encoding="utf-8"?>
<svg version="1.0" xmlns="http://www.w3.org/2000/svg" width="520px" height="480px" viewBox="0 0 520 480" preserveAspectRatio="xMidYMid meet">
  <g fill="#0288ca">
    <path d="M220 454.8 l-15.5 -0.8 -18.2 -5 c-23.3 -6.4 -32.5 -9.7 -47.6 -17 -14.2 -6.8 -28.5 -15.5 -41.2 -25.1 l-9 -6.8 -10.1 -9.8 -10.1 -9.8 -6.1 -7.7 c-3.3 -4.3 -9.4 -12.9 -13.5 -19 l-7.5 -11.3 -5.5 -11.1 c-9.8 -19.4 -11.7 -24.7 -18.9 -52.4 l-5.1 -19.5 0 -29.5 0 -29.5 2.3 -7.5 c1.2 -4.1 3.1 -11.1 4.1 -15.5 1.1 -4.4 3.6 -13.1 5.6 -19.4 l3.6 -11.3 7.2 -14.7 7.3 -14.6 8.6 -12.9 8.6 -12.8 7 -8.3 c21.5 -25.3 50.7 -46.4 83.7 -60.6 l11.8 -5.1 20 -5.5 20 -5.4 11 -1.1 11 -1 21.6 0.6 21.6 0.5 20.5 5.9 20.4 5.9 11.9 4.8 c6.6 2.6 17.2 7.4 23.5 10.5 l11.6 5.8 9.4 6.3 9.5 6.4 11.9 11.5 c30.4 29.5 38.1 39.3 50.2 64.5 8.3 17.1 12.4 28 19.1 51 l5.7 19 0.8 16.3 0.9 16.3 -0.9 17.2 -1 17.2 -1.8 6.3 -1.7 6.4 -2.1 -0.5 c-1.2 -0.3 -6.1 -2.2 -11.1 -4.3 -4.9 -2 -12.1 -4.6 -16 -5.6 l-7 -2 -13.1 -0.5 -13.1 -0.5 -8.3 1.6 c-11.4 2.4 -18.8 5 -30 10.7 l-9.5 4.9 -6.7 5 -6.6 5 -7.1 7.6 -7 7.5 -4.1 6.2 c-2.3 3.4 -5.9 9.9 -8 14.3 l-3.9 8.1 -2.5 8.5 -2.4 8.4 -1.2 9.5 -1.1 9.5 1.2 9.5 1.1 9.4 2.4 8.5 2.5 8.5 3.9 8.3 c2.2 4.6 6.1 11.5 8.6 15.3 l4.7 6.9 -2.4 2 -2.4 1.9 -7.5 2.5 c-4.1 1.4 -13.5 3.9 -20.8 5.6 -7.3 1.6 -14.1 3.4 -15 3.9 l-1.8 1 -14 0.6 c-7.6 0.3 -15.5 0.7 -17.4 0.9 -1.9 0.1 -10.5 -0.1 -19 -0.6z m20.7 -122 c1.2 -1.3 3.1 -4.1 4.3 -6.3 3.7 -6.7 7 -12.5 13.8 -24 3.6 -6 7.6 -13 9 -15.5 1.3 -2.5 3.1 -5.2 3.8 -6.1 0.8 -0.8 1.4 -2 1.4 -2.6 0 -0.6 0.7 -1.6 1.5 -2.3 0.8 -0.7 2.1 -2.4 2.8 -3.9 0.7 -1.4 5.5 -9.8 10.7 -18.6 5.1 -8.8 11 -18.9 13 -22.5 9.5 -16.6 12.1 -21.2 17.5 -30.5 3.2 -5.4 6.6 -12.2 7.6 -14.9 l1.9 -5 -1.5 -1.6 -1.5 -1.7 0 -2.5 0 -2.5 -2.8 -3.9 c-3.4 -4.7 -4.3 -5.4 -10.4 -8.8 l-4.7 -2.6 -2 0 -2 0 -0.6 -1 -0.6 -1 -65.4 0 -65.4 0 -0.6 1 -0.6 1 -2.4 0 -2.4 0 -0.6 1 c-0.3 0.6 -2.6 1.9 -5 3 l-4.4 2 -2.4 3.3 c-1.4 1.7 -3 4.3 -3.7 5.7 l-1.3 2.4 0.2 5.8 0.2 5.8 1.9 3.5 c1.1 1.9 2.8 5 3.9 6.8 l1.8 3.3 -1.8 2.3 c-2.2 2.6 -2.2 3 -0.9 5.1 l0.9 1.5 1.5 -2 1.5 -2 1.9 2 c1.1 1.1 3.1 4 4.4 6.5 1.4 2.5 3.8 6.8 5.5 9.5 1.6 2.8 3.6 6.5 4.4 8.3 0.7 1.7 1.7 3.2 2 3.2 0.3 0 1.7 2.1 3 4.8 1.3 2.6 2.6 4.9 2.9 5.2 0.3 0.3 1.1 1.5 1.8 2.8 0.6 1.2 1.8 3.2 2.5 4.5 0.6 1.2 1.4 2.4 1.7 2.7 0.3 0.3 1.2 1.8 2 3.5 0.8 1.6 3.2 5.8 5.3 9.2 2 3.5 3.7 6.5 3.7 6.9 0 0.3 0.9 1.9 2.1 3.5 1.1 1.6 3.3 5.3 4.8 8.2 5.4 10.1 7.7 14.2 9.5 17 2.3 3.4 4.7 7.7 7.4 13.4 1.2 2.4 3.2 5.8 4.6 7.6 1.4 1.9 2.6 4 2.6 4.6 l0 1.3 3.1 2.9 3.1 2.9 1.7 0 1.8 0 2 -2.2z"/>
    <path d="M243 231.5 l0 -60.4 2.1 -1.1 2 -1.1 28.7 0.3 28.7 0.3 3.5 2.1 3.5 2.1 -0.3 7.3 -0.3 7.4 -4.8 8.5 c-11.1 19.8 -26.2 45.5 -27.6 47.1 -0.8 0.9 -1.5 2.1 -1.5 2.7 0 0.5 -1.8 3.8 -4 7.2 -2.2 3.4 -4 6.6 -4 7.1 0 0.4 -0.3 1 -0.7 1.2 -0.9 0.3 -1.7 1.7 -10.9 18.1 l-6.6 11.7 -3.9 0 -3.9 0 0 -60.5z"/>
    <path d="M219.3 285.5 c-1.3 -1.9 -2.3 -3.9 -2.3 -4.4 0 -0.5 -0.6 -1.4 -1.4 -2 -0.8 -0.7 -2.6 -3.7 -4.1 -6.8 -1.4 -3 -3.7 -7 -5 -8.8 -1.4 -1.7 -2.5 -3.6 -2.5 -4.2 0 -0.5 -1.7 -3.6 -3.8 -6.9 -2 -3.2 -4.4 -7.2 -5.2 -8.9 -0.8 -1.6 -2.2 -4.1 -3.1 -5.5 -1.6 -2.3 -2.6 -4.2 -8 -13.7 -1.2 -2.1 -2.5 -4.2 -2.9 -4.8 -0.4 -0.5 -1.7 -2.7 -2.9 -4.7 -1.2 -2.1 -3 -5.4 -4.1 -7.3 -1.1 -1.9 -2.9 -5.2 -4.1 -7.2 -1.2 -2.1 -2.5 -4.3 -2.9 -4.8 -0.5 -0.6 -2.2 -3.7 -3.9 -6.9 l-3.1 -5.8 0 -4.2 0 -4.2 2.8 -2.7 2.8 -2.7 31 0 31 0 1.5 1.3 1.4 1.2 -0.3 58.8 -0.3 58.7 -4.2 0 -4.2 0 -2.2 -3.5z"/>
  </g>
  <g fill="#000000">
    <path d="M384.3 476.6 c-14.4 -2.8 -30.1 -9.3 -42.8 -17.9 l-6 -4.1 -8.3 -8.3 -8.3 -8.2 -1.2 0.4 -1.2 0.5 -4.3 -6.4 c-2.3 -3.6 -6 -10.2 -8.2 -14.8 l-3.9 -8.3 -2.5 -8.8 -2.5 -8.7 -1.2 -10.9 -1.2 -10.9 1.2 -10.7 1.2 -10.6 2.5 -8.6 2.5 -8.6 3.9 -8.1 c2.1 -4.4 5.7 -10.9 8 -14.3 l4.1 -6.2 7 -7.5 7.1 -7.6 6.6 -5 6.7 -5 9.5 -4.9 c11 -5.6 18.4 -8.3 29.2 -10.5 l7.7 -1.6 13.6 0 13.6 0 7.7 1.6 c8.8 1.8 16.9 4.5 26 8.5 l6.2 2.8 0 1.9 0 2 3.2 1.3 3.1 1.3 8.1 6.8 c9.4 8 16.1 15.4 22.6 25.5 l4.7 7.2 3.6 8.4 c1.9 4.6 4.6 12.4 5.9 17.3 l2.3 8.9 0 16.5 0 16.5 -2.4 8.9 c-1.3 4.9 -3.8 12.4 -5.6 16.7 l-3.2 7.6 -5.8 8.9 -5.8 8.9 -8.1 8.1 -8.1 8.2 -9.5 6.1 -9.5 6.1 -8 3.1 c-4.4 1.7 -11.3 4 -15.5 5.1 l-7.5 2 -15 0.4 -15 0.4 -7.2 -1.4z m26.7 -43.6 l0 -18 3.7 0 3.8 0 8.7 8.7 8.8 8.8 4.7 -4.8 4.8 -4.7 -21 -21 -21 -21 -21 21 -21 21 4.8 4.7 4.7 4.8 8.8 -8.8 8.7 -8.7 3.8 0 3.7 0 0 18 0 18 7.5 0 7.5 0 0 -18z m-38.7 -41.8 l20.7 -20.7 -20.8 -20.8 -20.8 -20.7 -4.7 4.8 -4.7 4.8 9 8.9 9 9 0 3.2 0 3.3 -18.2 0.2 -18.3 0.3 0 7.5 0 7.5 18.3 0.3 18.2 0.2 0 3.3 0 3.2 -9 9 -9 8.9 4.2 4.3 c2.3 2.4 4.5 4.3 4.8 4.3 0.3 0 9.9 -9.3 21.3 -20.8z m88.5 16.5 l4.2 -4.3 -9 -8.9 -9 -9 0 -3.2 0 -3.3 18.3 -0.2 18.2 -0.3 0 -7.5 0 -7.5 -18.2 -0.3 -18.3 -0.2 0 -3.3 0 -3.2 9 -9 9 -9.1 -4.5 -4.4 -4.5 -4.5 -20.8 20.8 -20.7 20.7 20.5 20.5 c11.3 11.3 20.7 20.5 21 20.5 0.3 0 2.5 -1.9 4.8 -4.3z m-19.8 -94.2 l-4.4 -4.5 -9.2 9.1 -9.1 9 -3.4 -0.3 -3.4 -0.3 -0.3 -17.8 -0.2 -17.7 -7.5 0 -7.5 0 0 18 0 18 -3.8 0 -3.7 0 -8.5 -8.5 c-4.7 -4.7 -8.7 -8.5 -9.1 -8.5 -0.3 0 -2.5 1.9 -4.8 4.2 l-4.1 4.2 20.7 20.8 20.8 20.8 21 -21 21 -21 -4.5 -4.5z"/>
  </g>
  <g fill="#fdfefe">
    <path d="M312.2 432.6 c-2.3 -3.6 -6 -10.2 -8.2 -14.8 l-3.9 -8.3 -2.5 -8.7 -2.5 -8.7 -1.2 -10.6 -1.2 -10.7 1.2 -10.9 1.2 -10.9 2.5 -8.6 2.5 -8.7 3.9 -8.1 c2.1 -4.4 5.7 -10.9 8 -14.3 l4.1 -6.2 7 -7.5 7.1 -7.6 6.6 -5 6.7 -5 9.5 -4.9 c11.2 -5.7 18.6 -8.3 29.9 -10.6 l8.3 -1.7 16.2 0.5 16.1 0.5 7 1.9 c7.8 2.2 24.3 8.7 25.9 10.3 l1 1 -0.6 0.5 -0.5 0.5 -8.4 -3.9 -8.4 -3.8 -8 -2.1 -8 -2.1 -9.8 -1.1 -9.9 -1.2 -10.4 1.2 -10.5 1.1 -8.6 2.5 c-10.7 3.1 -20.9 7.8 -30.5 13.9 l-7.3 4.8 -7.9 7.6 -7.8 7.6 -4.3 6 c-6.5 9.1 -10 15.4 -13.8 25.1 l-3.5 8.9 -1.8 8.5 -1.8 8.5 0 14 0 14 2.3 9.5 2.4 9.5 3.7 8.8 3.8 8.8 5.1 7.8 c2.8 4.2 5.1 8 5.1 8.4 0 2 -1.9 0 -5.8 -5.7z"/>
    <path d="M343.2 410.7 l-7.2 -7.2 10.5 -10.5 10.5 -10.5 -18.2 -0.5 -18.3 -0.5 0 -10.5 0 -10.5 18.3 -0.5 18.2 -0.5 -10.5 -10.5 -10.5 -10.5 7.2 -7.2 c4 -4 7.7 -7.3 8.2 -7.3 0.5 0 11.4 10.5 24.3 23.2 l23.3 23.2 -23.7 23.8 c-13.1 13.1 -24 23.8 -24.3 23.8 -0.3 0 -3.8 -3.3 -7.8 -7.3z"/>
    <path d="M432 394.5 l-23.5 -23.5 23.7 -23.7 23.8 -23.8 7.5 7.5 7.5 7.5 -10.7 10.7 -10.7 10.8 18.4 0.2 18.5 0.3 0 10.5 0 10.5 -18.3 0.5 -18.2 0.5 10.5 10.5 10.5 10.5 -7.2 7.2 c-4 4 -7.5 7.3 -7.8 7.3 -0.3 0 -11.1 -10.6 -24 -23.5z"/>
    <path d="M234.7 338.3 l-2.8 -0.4 -3.5 -3.6 -3.5 -3.5 0.5 -0.6 0.6 -0.5 -2.4 -3.1 c-2.2 -2.9 -6 -9.5 -6.1 -10.6 0 -0.3 -1 -2 -2.3 -3.7 -1.3 -1.8 -2 -3.3 -1.7 -3.3 0.3 0 -0.4 -1.5 -1.7 -3.2 -1.3 -1.8 -3.2 -5.1 -4.4 -7.3 -1.1 -2.2 -3.5 -6.4 -5.2 -9.2 -1.7 -2.9 -2.9 -5.3 -2.6 -5.3 0.3 0 -0.6 -1.5 -2 -3.3 -1.5 -1.9 -2.6 -3.7 -2.6 -4.1 0 -0.3 -1.7 -3.4 -3.7 -6.9 -2.1 -3.4 -4.5 -7.6 -5.3 -9.2 -0.8 -1.7 -1.7 -3.2 -2 -3.5 -0.5 -0.5 -1.8 -2.7 -4.4 -7.5 -0.6 -1.1 -1.3 -2.2 -1.6 -2.5 -0.3 -0.3 -1.6 -2.6 -2.9 -5.2 -1.3 -2.7 -2.7 -4.8 -3 -4.8 -0.3 0 -1.3 -1.5 -2 -3.2 -0.8 -1.8 -2.8 -5.5 -4.4 -8.3 -1.7 -2.7 -4.1 -7 -5.5 -9.5 -1.3 -2.5 -3.1 -5.2 -3.9 -6.2 l-1.4 -1.6 0.9 -3.6 1 -3.6 -0.8 -0.5 -0.9 -0.5 -0.6 1 c-1 1.7 -2.3 1.1 -3.8 -1.8 -0.7 -1.5 -2.4 -4.4 -3.6 -6.5 l-2.2 -3.9 -0.4 -7.5 -0.5 -7.4 1.5 -3.7 c0.9 -2 2.7 -5.1 4.1 -7 l2.6 -3.3 2.4 -0.9 2.4 -1 0 -1.1 0 -1.1 1.4 0.5 1.5 0.6 1.1 -1.5 1.2 -1.4 2.4 0 2.3 0 0.6 -1 0.6 -1 68.4 0 68.4 0 0.6 1 0.6 1 2 0 2 0 4.7 2.6 c6 3.3 7.7 4.9 11.4 10.2 l2.9 4.2 -0.6 1.9 -0.5 1.8 1.5 1.3 1.5 1.2 0 3.2 0 3.1 -1.8 5 c-1 2.8 -4.5 9.6 -7.7 15 -5.6 9.8 -9.6 16.6 -17.3 30.3 -2.2 3.7 -8.1 13.9 -13.2 22.7 -5.2 8.8 -10 17.2 -10.7 18.6 -0.7 1.5 -2 3.2 -2.8 3.9 -0.8 0.7 -1.5 1.7 -1.5 2.3 0 0.6 -0.6 1.8 -1.4 2.6 -0.7 0.9 -2.5 3.6 -3.8 6.1 -1.4 2.5 -4.8 8.3 -7.5 13 -6 10.1 -14.2 24.4 -16.3 28.4 -0.8 1.5 -2.7 3.9 -4.3 5.2 l-2.9 2.4 -1.1 -0.1 c-0.7 -0.1 -2.5 -0.4 -4 -0.6z m19.7 -61 c9.2 -16.4 10 -17.8 10.9 -18.1 0.4 -0.2 0.7 -0.8 0.7 -1.2 0 -0.5 1.8 -3.7 4 -7.1 2.2 -3.4 4 -6.7 4 -7.2 0 -0.6 0.7 -1.8 1.5 -2.7 1.4 -1.6 16.5 -27.3 27.5 -47 l4.8 -8.5 0.3 -4.4 0.4 -4.5 -3.5 -2 -3.5 -2.1 -25.7 -0.3 -25.7 -0.3 -2 1.1 -2.1 1.1 0 57.4 0 57.5 0.9 0 0.9 0 6.6 -11.7z m-27.2 -47.4 l0.3 -56.1 -1.7 -0.9 -1.8 -1 -27.7 0.1 -27.8 0.1 -2.8 2.6 -2.7 2.7 0 1.2 c0 1.2 5.4 11.9 7 13.9 0.4 0.5 1.7 2.7 2.9 4.8 1.2 2 3 5.3 4.1 7.2 1.1 1.9 2.9 5.2 4.1 7.3 1.2 2 2.5 4.2 2.9 4.7 0.4 0.6 1.7 2.7 2.9 4.8 5.4 9.5 6.4 11.4 8 13.7 0.9 1.4 2.3 3.9 3.1 5.5 0.8 1.7 3.2 5.7 5.2 8.9 2.1 3.3 3.8 6.4 3.8 6.9 0 0.6 1.1 2.5 2.5 4.2 1.3 1.8 3.6 5.8 5 8.8 1.5 3.1 3.3 6.1 4.1 6.8 0.8 0.6 1.4 1.5 1.4 2 0 0.5 1 2.5 2.3 4.4 l2.2 3.5 1.2 0 1.3 0 0.2 -56.1z"/>
  </g>
  <g fill="#bfbfbf">
    <path d="M393 436 l0 -18 -0.7 0 c-0.4 0 -5.4 4.6 -11 10.2 l-10.3 10.3 -7.7 -7.8 -7.8 -7.7 23.5 -23.5 c12.9 -12.9 23.9 -23.5 24.5 -23.5 0.6 0 11.6 10.6 24.5 23.5 l23.5 23.5 -7.8 7.7 -7.7 7.8 -10.3 -10.3 c-5.6 -5.6 -10.6 -10.2 -11 -10.2 l-0.7 0 0 18 0 18 -10.5 0 -10.5 0 0 -18z"/>
    <path d="M379.7 342.2 l-23.7 -23.8 6.9 -6.9 c3.9 -3.8 7.4 -7.1 7.8 -7.2 l0.8 -0.3 10 10 c5.5 5.5 10.3 10 10.7 10 l0.8 0 0 -18 0 -18 10.5 0 10.5 0 0 17.3 0 17.4 0.7 0.7 0.7 0.7 10.6 -10.6 10.5 -10.5 7.5 7.5 7.5 7.5 -24 24 -24 24 -23.8 -23.8z"/>
    <path d="M241 337.3 c0 -1.3 2.9 -3.8 3.5 -3.1 0.3 0.3 -0.4 1.3 -1.5 2.3 l-2 1.8 0 -1z"/>
    <path d="M267 294.8 l0 -1.7 1.1 -0.6 c1.7 -1.1 1.8 -0.2 0.3 1.9 l-1.4 2 0 -1.6z"/>
    <path d="M224.2 287.8 l-1.2 -1.2 0.1 -1.5 0.1 -1.6 0.5 1.3 0.5 1.2 2 0 2 0 -0.4 1.2 c-0.2 0.6 -0.9 1.3 -1.4 1.5 l-1 0.3 -1.2 -1.2z"/>
    <path d="M245.3 176 l0.2 -3.5 2 -0.3 2 -0.4 -1.7 1.4 -1.7 1.3 -0.4 2.5 -0.5 2.5 0.1 -3.5z"/>
  </g>
</svg>