<svg width="500" height="500" viewBox="0 0 500 500" fill="none" xmlns="http://www.w3.org/2000/svg">
<g clip-path="url(#clip0_1276_2137)">
<mask id="mask0_1276_2137" style="mask-type:alpha" maskUnits="userSpaceOnUse" x="0" y="0" width="500" height="500">
<rect width="500" height="500" fill="#D9D9D9"/>
</mask>
<g mask="url(#mask0_1276_2137)">
<path d="M250 500C388.123 500 500 388.045 500 250C500 111.955 388.123 0 250 0C111.877 0 0 111.955 0 250C0 388.045 111.973 500 250 500Z" fill="#FF060A"/>
<path d="M390.613 205.118C376.82 192.323 357.663 172.831 342.145 159.037L341.188 158.437C339.655 157.237 337.931 156.238 336.111 155.538C298.563 148.541 123.85 115.854 120.498 116.254C119.54 116.354 118.582 116.753 117.816 117.253L116.954 117.953C115.9 119.053 115.038 120.352 114.559 121.851L114.368 122.451V125.75V126.25C134.004 181.028 211.686 360.356 227.011 402.539C227.969 405.438 229.693 410.836 232.95 411.136H233.716C235.44 411.136 242.912 401.24 242.912 401.24C242.912 401.24 376.341 239.504 389.847 222.311C391.571 220.212 393.103 217.913 394.444 215.514C394.827 213.615 394.636 211.715 393.965 209.916C393.295 208.117 392.05 206.418 390.613 205.118ZM277.011 224.011L333.908 176.829L367.337 207.617L277.011 224.011ZM254.885 220.912L156.896 140.544L315.517 169.832L254.885 220.912ZM263.697 241.903L363.985 225.71L249.329 363.955L263.697 241.903ZM143.582 148.641L246.743 236.106L231.801 364.055L143.582 148.641Z" fill="white"/>
</g>
</g>
<circle cx="400" cy="400" r="97.5" fill="black" stroke="black" stroke-width="5"/>
<path d="M390.771 419.988C389.932 419.988 389.261 419.988 388.423 419.152L376.008 406.774C375.672 406.441 375.504 406.273 375.504 405.939C375.336 405.771 375.169 405.102 375.336 404.433C375.336 404.098 375.504 403.931 375.672 403.764C375.84 403.596 376.008 403.43 376.175 403.263C376.511 402.928 376.679 402.593 376.846 402.426C379.866 399.583 382.718 396.739 385.738 394.063C392.449 387.54 399.16 381.016 405.871 374.493C405.871 374.158 406.374 372.151 407.884 371.65C408.387 371.482 409.059 371.482 409.394 371.482C410.233 371.482 410.904 371.482 411.743 372.319L424.829 384.696C425.332 385.365 425.836 386.202 425.668 387.038C425.5 387.874 424.661 388.376 424.326 388.543C422.816 389.379 418.118 394.063 409.226 403.43C403.858 408.615 398.657 413.8 393.288 418.818C393.12 418.985 392.952 419.486 392.449 419.821C391.946 419.988 391.442 419.988 390.771 419.988Z" fill="#AF145B"/>
<path d="M394.631 415.472C386.913 406.941 386.075 394.731 393.792 386.201L376.847 402.426C372.988 406.272 370.64 411.625 370.64 416.977C370.64 422.329 372.988 427.682 376.847 431.529L413.924 469.163C414.764 469.999 415.435 469.999 416.274 469.999C417.112 469.999 417.784 469.999 418.622 469.163C422.481 465.316 424.83 459.964 424.83 454.611C424.83 449.259 422.481 443.907 418.622 440.06L395.47 416.977C395.302 416.141 394.631 416.141 394.631 415.472Z" fill="url(#paint0_linear_1276_2137)"/>
<path d="M424.662 359.94L399.161 335.352C395.302 332.342 390.604 330 385.236 330C379.867 330 374.498 332.342 370.64 336.189C369.13 337.025 369.13 337.694 369.13 338.53C369.13 339.367 369.13 340.036 369.968 340.872L404.697 373.99C405.536 374.826 406.207 374.826 406.207 375.495C413.924 384.026 414.764 396.236 407.717 404.766L424.662 388.542C428.521 385.531 430.869 380.012 430.869 374.659C430.869 369.307 428.521 363.787 424.662 359.94Z" fill="url(#paint1_linear_1276_2137)"/>
<circle cx="400" cy="400" r="97.5" stroke="black" stroke-width="5"/>
<defs>
<linearGradient id="paint0_linear_1276_2137" x1="370.037" y1="428.1" x2="424.578" y2="428.1" gradientUnits="userSpaceOnUse">
<stop stop-color="#CB0766"/>
<stop offset="1" stop-color="#E04391"/>
</linearGradient>
<linearGradient id="paint1_linear_1276_2137" x1="369.13" y1="367.383" x2="430.869" y2="367.383" gradientUnits="userSpaceOnUse">
<stop stop-color="#CB0766"/>
<stop offset="1" stop-color="#E04391"/>
</linearGradient>
<clipPath id="clip0_1276_2137">
<rect width="500" height="500" rx="250" fill="white"/>
</clipPath>
</defs>
</svg>
