<svg width="500" height="500" viewBox="0 0 500 500" fill="none" xmlns="http://www.w3.org/2000/svg">
<path d="M203.158 113.689C197.744 112.915 197.487 112.657 200.065 112.4C204.963 111.626 216.306 112.657 224.298 114.462C242.859 118.845 259.616 130.188 277.404 150.038L282.044 155.452L288.747 154.421C317.362 149.78 346.751 153.39 371.242 164.733C377.945 167.826 388.515 174.013 389.804 175.56C390.319 176.076 391.093 179.427 391.608 182.778C393.413 194.895 392.639 203.918 388.772 210.878C386.71 214.745 386.71 215.777 387.999 219.128C389.03 221.706 392.124 223.51 394.96 223.51C401.147 223.51 407.592 213.714 410.685 200.051L411.974 194.637L414.294 197.215C427.442 211.91 437.754 232.276 439.301 246.712L439.816 250.579L437.496 247.228C433.629 241.298 430.02 237.432 425.122 234.08C416.357 228.151 407.076 226.346 382.585 225.057C360.415 223.768 347.783 221.964 335.408 217.839C314.269 210.878 303.441 201.855 278.435 168.6C267.35 153.905 260.389 145.913 253.429 139.211C238.219 124.516 223.009 116.782 203.158 113.689Z" fill="#FF007A"/>
<path d="M395.217 146.429C395.733 136.633 397.022 130.188 399.858 124.259C400.889 121.938 401.92 119.876 402.178 119.876C402.436 119.876 401.92 121.681 401.147 123.743C399.084 129.414 398.826 137.406 400.115 146.429C401.92 158.03 402.693 159.577 415.068 172.209C420.739 178.138 427.442 185.614 430.02 188.708L434.402 194.379L430.02 190.255C424.606 185.099 412.232 175.302 409.396 174.013C407.592 172.982 407.334 172.982 406.045 174.271C405.014 175.302 404.756 176.849 404.756 184.325C404.498 195.926 402.951 203.145 399.084 210.621C397.022 214.488 396.764 213.714 398.569 209.332C399.858 205.98 400.115 204.434 400.115 193.348C400.115 170.92 397.537 165.506 381.812 156.483C377.945 154.163 371.242 150.812 367.375 149.007C363.25 147.203 360.157 145.656 360.415 145.656C360.93 145.14 376.14 149.523 382.07 152.101C391.092 155.71 392.639 155.968 393.67 155.71C394.444 154.936 394.959 152.874 395.217 146.429Z" fill="#FF007A"/>
<path d="M213.728 184.841C202.9 169.889 195.94 146.687 197.487 129.414L198.002 124.001L200.58 124.516C205.22 125.29 213.212 128.383 217.079 130.703C227.391 136.891 232.031 145.398 236.414 166.537C237.703 172.724 239.508 179.943 240.281 182.263C241.57 186.13 246.468 195.153 250.593 200.824C253.429 204.949 251.624 207.012 245.179 206.496C235.383 205.465 222.235 196.442 213.728 184.841Z" fill="#FF007A"/>
<path d="M382.07 296.983C331.026 276.359 312.98 258.571 312.98 228.408C312.98 224.026 313.238 220.417 313.238 220.417C313.496 220.417 315.3 221.964 317.621 223.768C327.933 232.018 339.533 235.627 371.758 240.267C390.577 243.103 401.405 245.165 411.201 248.517C442.395 258.829 461.73 279.968 466.37 308.584C467.659 316.833 466.885 332.559 464.823 340.808C463.018 347.253 457.863 359.112 456.574 359.37C456.316 359.37 455.8 358.081 455.8 356.018C455.285 345.191 449.871 334.879 440.848 326.887C430.02 317.606 416.099 310.646 382.07 296.983Z" fill="#FF007A"/>
<path d="M345.978 305.49C345.463 301.623 344.174 296.725 343.4 294.663L342.111 290.796L344.432 293.631C347.783 297.498 350.361 302.139 352.681 308.584C354.486 313.482 354.486 315.029 354.486 323.02C354.486 330.754 354.228 332.559 352.681 336.941C350.103 343.902 347.01 348.8 341.854 354.214C332.573 363.752 320.456 368.908 303.184 371.229C300.09 371.486 291.325 372.26 283.591 372.775C264.257 373.806 251.367 375.869 239.766 379.994C238.219 380.509 236.672 381.025 236.414 380.767C235.899 380.251 243.891 375.611 250.335 372.517C259.358 368.135 268.639 365.815 289.005 362.206C299.059 360.659 309.371 358.596 311.949 357.565C337.471 349.573 350.103 329.723 345.978 305.49Z" fill="#FF007A"/>
<path d="M369.438 346.995C362.735 332.301 361.188 318.38 364.797 305.232C365.313 303.943 365.829 302.654 366.344 302.654C366.86 302.654 368.407 303.428 369.953 304.459C373.047 306.521 379.492 310.13 395.991 319.153C416.872 330.496 428.731 339.262 436.981 349.316C444.199 358.081 448.582 368.135 450.644 380.509C451.933 387.47 451.16 404.227 449.355 411.187C443.683 433.1 430.794 450.63 411.974 460.684C409.139 462.231 406.818 463.262 406.561 463.262C406.303 463.262 407.334 460.684 408.881 457.591C415.068 444.443 415.841 431.811 411.201 417.632C408.365 408.867 402.436 398.297 390.577 380.509C376.398 359.885 373.047 354.472 369.438 346.995Z" fill="#FF007A"/>
<path d="M177.378 425.881C196.455 409.898 219.915 398.555 241.57 394.946C250.851 393.399 266.319 393.914 274.826 396.235C288.489 399.844 300.863 407.578 307.308 417.116C313.496 426.397 316.331 434.389 319.167 452.177C320.198 459.137 321.487 466.356 321.745 467.902C323.807 477.183 327.932 484.401 333.088 488.268C341.08 494.198 355.001 494.456 368.664 489.3C370.984 488.526 373.047 487.753 373.047 488.011C373.562 488.526 366.602 493.167 361.962 495.487C355.517 498.838 350.361 499.869 343.4 499.869C331.026 499.869 320.456 493.424 311.949 480.534C310.144 477.956 306.535 470.48 303.441 463.52C294.419 442.638 289.778 436.451 279.208 429.491C269.928 423.561 258.069 422.272 249.046 426.655C237.187 432.326 234.094 447.536 242.343 456.817C245.695 460.684 251.882 463.778 257.038 464.551C266.576 465.84 274.826 458.364 274.826 448.825C274.826 442.638 272.506 439.029 266.319 436.193C258.069 432.584 249.046 436.709 249.304 444.701C249.304 448.052 250.851 450.114 254.202 451.661C256.264 452.692 256.264 452.692 254.718 452.435C247.242 450.888 245.437 441.607 251.366 435.678C258.585 428.459 273.795 431.553 278.951 441.607C281.013 445.732 281.271 453.981 279.466 459.137C275.084 470.48 262.709 476.41 250.077 473.058C241.57 470.738 237.961 468.418 227.649 457.848C209.603 439.287 202.643 435.678 176.863 431.811L171.965 431.037L177.378 425.881Z" fill="#FF007A"/>
<path fill-rule="evenodd" clip-rule="evenodd" d="M41.7766 11.0853C101.843 84.042 194.393 197.473 199.033 203.66C202.9 208.816 201.353 213.714 194.908 217.323C191.299 219.386 183.823 221.448 180.214 221.448C176.089 221.448 171.191 219.386 167.84 216.034C165.519 213.714 155.465 199.02 132.779 163.701C115.507 136.633 100.812 114.204 100.554 113.947C99.5232 113.431 99.5232 113.431 130.975 169.631C150.825 204.949 157.27 217.581 157.27 219.128C157.27 222.479 156.239 224.284 152.114 228.924C145.153 236.658 142.06 245.423 139.74 263.727C137.162 284.093 130.201 298.53 110.351 323.02C98.7499 337.457 96.9453 340.035 94.1095 345.964C90.5003 353.183 89.4691 357.307 88.9535 366.588C88.438 376.384 89.4691 382.572 92.3049 391.852C94.8829 400.102 97.7187 405.516 104.679 416.085C110.609 425.366 114.218 432.327 114.218 434.905C114.218 436.967 114.733 436.967 124.014 434.905C146.185 429.749 164.488 420.983 174.542 410.156C180.729 403.453 182.276 399.844 182.276 390.563C182.276 384.634 182.018 383.345 180.472 379.736C177.894 374.064 172.996 369.424 162.426 362.206C148.505 352.667 142.575 344.933 141.029 334.621C139.74 325.856 141.286 319.927 149.02 303.686C157.012 286.929 159.074 279.968 160.363 262.954C161.137 252.126 162.426 247.744 165.519 244.392C168.871 240.783 171.707 239.494 179.698 238.463C192.846 236.658 201.353 233.307 208.056 226.862C213.985 221.448 216.563 216.034 216.821 208.043L217.079 202.113L213.728 198.504C201.611 184.583 33.7849 0 33.0115 0C32.7537 0 36.8784 4.89815 41.7766 11.0853ZM120.92 377.673C123.756 372.775 122.209 366.588 117.569 363.495C113.187 360.659 106.484 361.948 106.484 365.815C106.484 366.846 106.999 367.877 108.546 368.393C110.866 369.682 111.124 370.971 109.32 373.807C107.515 376.642 107.515 379.22 109.835 381.025C113.444 383.861 118.342 382.314 120.92 377.673Z" fill="#FF007A"/>
<path fill-rule="evenodd" clip-rule="evenodd" d="M225.329 242.072C219.141 243.877 213.212 250.579 211.408 257.282C210.376 261.407 210.892 268.883 212.697 271.203C215.532 274.812 218.11 275.844 225.329 275.844C239.507 275.844 251.624 269.656 252.913 262.18C254.202 255.993 248.788 247.486 241.312 243.619C237.445 241.556 229.453 240.783 225.329 242.072ZM241.828 254.962C243.89 251.868 243.117 248.517 239.25 246.197C232.289 241.814 221.719 245.423 221.719 252.126C221.719 255.478 227.133 259.087 232.289 259.087C235.641 259.087 240.281 257.024 241.828 254.962Z" fill="#FF007A"/>
<g clip-path="url(#clip0_104_1413)">
<path d="M399.7 499.5C454.818 499.5 499.5 454.818 499.5 399.7C499.5 344.582 454.818 299.899 399.7 299.899C344.582 299.899 299.899 344.582 299.899 399.7C299.899 454.818 344.582 499.5 399.7 499.5Z" fill="white"/>
<path d="M408.715 387.452L456.071 340.098L438.105 322.135L399.734 360.506L361.362 322.135L343.398 340.098L390.752 387.452C393.232 389.932 396.483 391.173 399.734 391.173C402.984 391.173 406.235 389.933 408.715 387.452ZM477.267 438.039L438.896 399.668L477.267 361.296L459.303 343.333L411.95 390.687C406.99 395.647 406.99 403.69 411.95 408.65L459.303 456.004L477.267 438.039ZM399.668 438.895L438.039 477.266L456.002 459.302L408.649 411.949C403.688 406.988 395.647 406.988 390.685 411.949L343.332 459.302L361.297 477.266L399.668 438.895ZM387.452 408.715C389.835 406.332 391.173 403.102 391.173 399.733C391.173 396.365 389.835 393.133 387.452 390.751L340.099 343.398L322.135 361.363L360.506 399.733L322.135 438.105L340.099 456.069L387.452 408.715Z" fill="black"/>
</g>
<circle cx="400" cy="400" r="97.5" stroke="black" stroke-width="5"/>
<defs>
<clipPath id="clip0_104_1413">
<rect width="200" height="200" fill="white" transform="translate(299.6 299.6)"/>
</clipPath>
</defs>
</svg>
