<svg width="500" height="500" viewBox="0 0 500 500" fill="none" xmlns="http://www.w3.org/2000/svg">
<g clip-path="url(#clip0_877_668)">
<mask id="mask0_877_668" style="mask-type:alpha" maskUnits="userSpaceOnUse" x="0" y="0" width="500" height="500">
<rect width="500" height="500" fill="#D9D9D9"/>
</mask>
<g mask="url(#mask0_877_668)">
<g clip-path="url(#clip1_877_668)">
<path d="M250 500C388.542 500 500 388.542 500 250C500 111.458 388.542 0 250 0C111.458 0 0 111.458 0 250C0 388.542 111.458 500 250 500Z" fill="#2775CA"/>
<path d="M318.75 289.583C318.75 253.125 296.875 240.625 253.125 235.418C221.875 231.25 215.625 222.918 215.625 208.333C215.625 193.748 226.042 184.375 246.875 184.375C265.625 184.375 276.042 190.625 281.25 206.25C282.292 209.375 285.417 211.458 288.542 211.458H305.207C309.375 211.458 312.5 208.333 312.5 204.168V203.125C308.332 180.208 289.582 162.5 265.625 160.418V135.418C265.625 131.25 262.5 128.125 257.292 127.083H241.667C237.5 127.083 234.375 130.208 233.332 135.418V159.375C202.082 163.543 182.292 184.375 182.292 210.418C182.292 244.793 203.125 258.333 246.875 263.543C276.042 268.75 285.417 275 285.417 291.668C285.417 308.335 270.832 319.793 251.042 319.793C223.957 319.793 214.582 308.333 211.457 292.708C210.417 288.543 207.292 286.458 204.167 286.458H186.457C182.292 286.458 179.167 289.583 179.167 293.75V294.793C183.332 320.833 200 339.583 234.375 344.793V369.793C234.375 373.958 237.5 377.083 242.707 378.125H258.332C262.5 378.125 265.625 375 266.667 369.793V344.793C297.917 339.583 318.75 317.708 318.75 289.583Z" fill="white"/>
<path d="M196.875 398.957C115.625 369.792 73.9576 279.167 104.168 198.957C119.793 155.207 154.168 121.875 196.875 106.25C201.043 104.167 203.125 101.042 203.125 95.8325V81.25C203.125 77.0825 201.043 73.9575 196.875 72.9175C195.833 72.9175 193.75 72.9175 192.708 73.9575C93.7501 105.207 39.5825 210.417 70.8325 309.375C89.5825 367.707 134.375 412.5 192.708 431.25C196.875 433.332 201.043 431.25 202.083 427.082C203.125 426.042 203.125 425 203.125 422.917V408.332C203.125 405.207 200 401.042 196.875 398.957ZM307.293 73.9575C303.125 71.875 298.958 73.9575 297.918 78.125C296.875 79.1675 296.875 80.2075 296.875 82.2925V96.875C296.875 101.042 300 105.207 303.125 107.292C384.375 136.457 426.043 227.082 395.833 307.292C380.208 351.042 345.833 384.375 303.125 400C298.958 402.082 296.875 405.207 296.875 410.417V425C296.875 429.167 298.958 432.292 303.125 433.332C304.168 433.332 306.25 433.332 307.293 432.292C406.25 401.042 460.418 295.832 429.168 196.875C410.418 137.5 364.583 92.7075 307.293 73.9575Z" fill="white"/>
</g>
</g>
</g>
<g clip-path="url(#clip2_877_668)">
<mask id="mask1_877_668" style="mask-type:luminance" maskUnits="userSpaceOnUse" x="300" y="300" width="200" height="200">
<path d="M500 300H300V500H500V300Z" fill="white"/>
</mask>
<g mask="url(#mask1_877_668)">
<path d="M500 300H300V500H500V300Z" fill="white"/>
<path d="M847.945 300H300V847.945H847.945V300Z" fill="black"/>
<g opacity="0.4" filter="url(#filter0_f_877_668)">
<path d="M624.715 265.787C792.833 208.422 956.263 241.465 989.748 339.591C1023.23 437.717 914.082 563.767 745.966 621.133C577.848 678.498 414.417 645.456 380.935 547.33C347.452 449.204 456.596 323.153 624.715 265.787Z" fill="#FF2B57"/>
</g>
<g opacity="0.6" filter="url(#filter1_f_877_668)">
<path d="M579.495 232.211C808.906 197.273 1014.95 300.718 1039.7 463.262C1064.46 625.807 898.553 785.899 669.141 820.838C439.73 855.775 233.688 752.332 208.933 589.787C184.178 427.242 350.084 267.15 579.495 232.211Z" fill="#164094"/>
</g>
<path d="M400.274 475.218C380.38 475.205 361.304 467.301 347.231 453.241C333.157 439.18 325.236 420.11 325.206 400.217C325.236 380.322 333.157 361.252 347.23 347.189C361.303 333.127 380.379 325.221 400.274 325.206C420.169 325.221 439.245 333.127 453.318 347.189C467.391 361.252 475.312 380.322 475.343 400.217C475.312 420.11 467.391 439.18 453.318 453.241C439.244 467.301 420.168 475.205 400.274 475.218ZM400.274 330.98C381.91 330.993 364.301 338.29 351.31 351.27C338.319 364.249 331.008 381.853 330.98 400.217C330.998 418.583 338.306 436.191 351.3 449.171C364.293 462.152 381.908 469.443 400.274 469.443C418.641 469.443 436.255 462.152 449.249 449.171C462.242 436.191 469.55 418.583 469.568 400.217C469.54 381.853 462.229 364.249 449.238 351.27C436.247 338.29 418.638 330.993 400.274 330.98Z" fill="white"/>
<path d="M409.765 463.351C393.283 463.338 377.48 456.788 365.82 445.138C354.161 433.488 347.599 417.689 347.574 401.207C347.599 384.726 354.161 368.927 365.82 357.276C377.48 345.626 393.283 339.077 409.765 339.064C426.247 339.077 442.051 345.626 453.71 357.276C465.369 368.927 471.931 384.726 471.957 401.207C471.931 417.689 465.369 433.488 453.71 445.138C442.051 456.788 426.247 463.338 409.765 463.351ZM409.765 343.549C394.474 343.562 379.812 349.639 368.995 360.448C358.179 371.258 352.091 385.916 352.068 401.207C352.094 416.497 358.183 431.153 368.998 441.96C379.815 452.767 394.475 458.843 409.765 458.856C425.055 458.843 439.716 452.767 450.532 441.96C461.348 431.153 467.437 416.497 467.462 401.207C467.437 385.917 461.348 371.262 450.532 360.454C439.716 349.647 425.055 343.571 409.765 343.558V343.549Z" fill="white"/>
<path d="M419.255 451.494C406.186 451.484 393.655 446.29 384.41 437.053C375.165 427.815 369.962 415.287 369.941 402.218C369.962 389.149 375.165 376.622 384.41 367.384C393.655 358.146 406.186 352.953 419.255 352.942C432.326 352.95 444.858 358.143 454.104 367.381C463.349 376.619 468.552 389.148 468.569 402.218C468.549 415.287 463.346 427.815 454.101 437.053C444.856 446.29 432.324 451.484 419.255 451.494ZM419.255 356.147C407.036 356.155 395.317 361.01 386.673 369.647C378.029 378.285 373.164 389.998 373.146 402.218C373.166 414.436 378.032 426.148 386.677 434.783C395.321 443.418 407.037 448.272 419.255 448.28C431.474 448.272 443.19 443.418 451.835 434.783C460.478 426.148 465.345 414.436 465.365 402.218C465.347 389.998 460.482 378.285 451.838 369.647C443.193 361.01 431.476 356.155 419.255 356.147Z" fill="white"/>
<path d="M428.739 439.627C419.082 439.619 409.823 435.782 402.992 428.956C396.161 422.131 392.317 412.875 392.301 403.219C392.314 393.561 396.158 384.302 402.989 377.475C409.82 370.647 419.08 366.808 428.739 366.801C438.397 366.808 447.657 370.647 454.488 377.475C461.319 384.302 465.163 393.561 465.175 403.219C465.16 412.875 461.316 422.131 454.485 428.956C447.654 435.782 438.395 439.619 428.739 439.627ZM428.739 368.726C419.591 368.733 410.82 372.369 404.35 378.836C397.88 385.302 394.239 394.071 394.226 403.219C394.242 412.365 397.883 421.131 404.353 427.595C410.823 434.06 419.593 437.694 428.739 437.702C437.884 437.694 446.654 434.06 453.124 427.595C459.593 421.131 463.236 412.365 463.25 403.219C463.238 394.071 459.598 385.302 453.128 378.836C446.657 372.369 437.886 368.733 428.739 368.726Z" fill="white"/>
</g>
</g>
<circle cx="400" cy="400" r="97.5" stroke="black" stroke-width="5"/>
<defs>
<filter id="filter0_f_877_668" x="-75.1033" y="-212.38" width="1520.89" height="1311.68" filterUnits="userSpaceOnUse" color-interpolation-filters="sRGB">
<feFlood flood-opacity="0" result="BackgroundImageFix"/>
<feBlend mode="normal" in="SourceGraphic" in2="BackgroundImageFix" result="shape"/>
<feGaussianBlur stdDeviation="225" result="effect1_foregroundBlur_877_668"/>
</filter>
<filter id="filter1_f_877_668" x="-543.513" y="-524.573" width="2335.66" height="2102.2" filterUnits="userSpaceOnUse" color-interpolation-filters="sRGB">
<feFlood flood-opacity="0" result="BackgroundImageFix"/>
<feBlend mode="normal" in="SourceGraphic" in2="BackgroundImageFix" result="shape"/>
<feGaussianBlur stdDeviation="375" result="effect1_foregroundBlur_877_668"/>
</filter>
<clipPath id="clip0_877_668">
<rect width="500" height="500" rx="250" fill="white"/>
</clipPath>
<clipPath id="clip1_877_668">
<rect width="500" height="500" fill="white"/>
</clipPath>
<clipPath id="clip2_877_668">
<rect x="300" y="300" width="200" height="200" rx="100" fill="white"/>
</clipPath>
</defs>
</svg>
