<svg width="500" height="500" viewBox="0 0 500 500" fill="none" xmlns="http://www.w3.org/2000/svg">
<g clip-path="url(#clip0_1208_1568)">
<path d="M250 500C388.542 500 500 388.542 500 250C500 111.458 388.542 0 250 0C111.458 0 0 111.458 0 250C0 388.542 111.458 500 250 500Z" fill="#2775CA"/>
<path d="M318.75 289.583C318.75 253.125 296.875 240.625 253.125 235.418C221.875 231.25 215.625 222.918 215.625 208.333C215.625 193.748 226.042 184.375 246.875 184.375C265.625 184.375 276.042 190.625 281.25 206.25C282.292 209.375 285.417 211.458 288.542 211.458H305.207C309.375 211.458 312.5 208.333 312.5 204.168V203.125C308.332 180.208 289.582 162.5 265.625 160.418V135.418C265.625 131.25 262.5 128.125 257.292 127.083H241.667C237.5 127.083 234.375 130.208 233.332 135.418V159.375C202.082 163.543 182.292 184.375 182.292 210.418C182.292 244.793 203.125 258.333 246.875 263.543C276.042 268.75 285.417 275 285.417 291.668C285.417 308.335 270.832 319.793 251.042 319.793C223.957 319.793 214.582 308.333 211.457 292.708C210.417 288.543 207.292 286.458 204.167 286.458H186.457C182.292 286.458 179.167 289.583 179.167 293.75V294.793C183.332 320.833 200 339.583 234.375 344.793V369.793C234.375 373.958 237.5 377.083 242.707 378.125H258.332C262.5 378.125 265.625 375 266.667 369.793V344.793C297.917 339.583 318.75 317.708 318.75 289.583Z" fill="white"/>
<path d="M196.875 398.957C115.625 369.792 73.9573 279.167 104.167 198.957C119.792 155.207 154.167 121.875 196.875 106.25C201.042 104.167 203.125 101.042 203.125 95.8325V81.25C203.125 77.0825 201.042 73.9575 196.875 72.9175C195.832 72.9175 193.75 72.9175 192.707 73.9575C93.7498 105.207 39.5823 210.417 70.8323 309.375C89.5823 367.707 134.375 412.5 192.707 431.25C196.875 433.332 201.042 431.25 202.082 427.082C203.125 426.042 203.125 425 203.125 422.917V408.332C203.125 405.207 200 401.042 196.875 398.957ZM307.292 73.9575C303.125 71.875 298.957 73.9575 297.917 78.125C296.875 79.1675 296.875 80.2075 296.875 82.2925V96.875C296.875 101.042 300 105.207 303.125 107.292C384.375 136.457 426.042 227.082 395.832 307.292C380.207 351.042 345.832 384.375 303.125 400C298.957 402.082 296.875 405.207 296.875 410.417V425C296.875 429.167 298.957 432.292 303.125 433.332C304.167 433.332 306.25 433.332 307.292 432.292C406.25 401.042 460.417 295.832 429.167 196.875C410.417 137.5 364.582 92.7075 307.292 73.9575Z" fill="white"/>
</g>
<circle cx="100" cy="400" r="97.5" fill="black" stroke="black" stroke-width="5"/>
<g clip-path="url(#clip1_1208_1568)">
<path d="M46.974 354.197C47.8434 353.104 48.7646 352.053 49.6858 351.002C49.7271 350.949 49.8205 350.939 49.8618 350.887C49.9448 350.783 50.0795 350.72 50.1621 350.616L50.2451 350.512C50.8873 349.918 51.5705 349.272 52.3584 348.709C55.1458 346.593 58.0385 344.986 61.0888 343.928C70.8723 340.493 81.763 342.61 90.3033 350.673C102.228 361.851 101.16 379.858 91.641 391.826C79.6118 409.669 58.9394 434.562 87.5621 456.861C92.7085 460.871 96.5263 464.176 112.737 468.861C102.135 470.814 92.3043 470.206 81.3618 467.412C73.6219 463.043 61.4531 453.689 57.313 441.055C51.0557 421.897 68.3296 393.256 76.6778 382.226C88.1396 366.96 69.5934 350.434 55.9392 368.883C48.802 378.498 36.3154 405.706 40.6547 425.888C43.1919 437.332 46.5736 445.675 59.9821 457.134C57.4957 455.667 55.081 454.003 52.7388 452.141C21.585 423.121 25.1993 378.251 46.974 354.197Z" fill="url(#paint0_linear_1208_1568)"/>
<path d="M153.026 445.803C152.157 446.896 151.235 447.947 150.314 448.998C150.273 449.05 150.179 449.061 150.138 449.113C150.055 449.217 149.92 449.28 149.838 449.384L149.755 449.488C149.113 450.082 148.429 450.728 147.642 451.291C144.854 453.407 141.961 455.014 138.911 456.072C129.128 459.507 118.237 457.39 109.697 449.327C97.7718 438.149 98.8396 420.142 108.359 408.174C120.388 390.331 141.061 365.438 112.438 343.139C107.291 339.129 103.474 335.824 87.2627 331.139C97.8649 329.186 107.696 329.793 118.638 332.588C126.378 336.957 138.547 346.311 142.687 358.945C148.944 378.103 131.67 406.744 123.322 417.774C111.86 433.04 130.407 449.566 144.061 431.117C151.198 421.502 163.685 394.294 159.345 374.112C156.808 362.668 153.426 354.325 140.018 342.866C142.504 344.333 144.919 345.997 147.261 347.859C178.415 376.879 174.801 421.749 153.026 445.803Z" fill="url(#paint1_linear_1208_1568)"/>
</g>
<circle cx="100" cy="400" r="97.5" stroke="black" stroke-width="5"/>
<defs>
<linearGradient id="paint0_linear_1208_1568" x1="30" y1="400" x2="170" y2="400" gradientUnits="userSpaceOnUse">
<stop stop-color="#0082FA"/>
<stop offset="1" stop-color="#00F2FE"/>
</linearGradient>
<linearGradient id="paint1_linear_1208_1568" x1="29.9999" y1="400" x2="170" y2="400" gradientUnits="userSpaceOnUse">
<stop stop-color="#0082FA"/>
<stop offset="1" stop-color="#00F2FE"/>
</linearGradient>
<clipPath id="clip0_1208_1568">
<rect width="500" height="500" fill="white"/>
</clipPath>
<clipPath id="clip1_1208_1568">
<rect width="140" height="140" fill="white" transform="translate(30 330)"/>
</clipPath>
</defs>
</svg>
