<svg width="500" height="500" viewBox="0 0 500 500" fill="none" xmlns="http://www.w3.org/2000/svg">
<g clip-path="url(#clip0_877_696)">
<path d="M250 500C388.542 500 500 388.542 500 250C500 111.458 388.542 0 250 0C111.458 0 0 111.458 0 250C0 388.542 111.458 500 250 500Z" fill="#2775CA"/>
<path d="M318.75 289.583C318.75 253.125 296.875 240.625 253.125 235.418C221.875 231.25 215.625 222.918 215.625 208.333C215.625 193.748 226.042 184.375 246.875 184.375C265.625 184.375 276.042 190.625 281.25 206.25C282.292 209.375 285.417 211.458 288.542 211.458H305.207C309.375 211.458 312.5 208.333 312.5 204.168V203.125C308.332 180.208 289.582 162.5 265.625 160.418V135.418C265.625 131.25 262.5 128.125 257.292 127.083H241.667C237.5 127.083 234.375 130.208 233.332 135.418V159.375C202.082 163.543 182.292 184.375 182.292 210.418C182.292 244.793 203.125 258.333 246.875 263.543C276.042 268.75 285.417 275 285.417 291.668C285.417 308.335 270.832 319.793 251.042 319.793C223.957 319.793 214.582 308.333 211.457 292.708C210.417 288.543 207.292 286.458 204.167 286.458H186.457C182.292 286.458 179.167 289.583 179.167 293.75V294.793C183.332 320.833 200 339.583 234.375 344.793V369.793C234.375 373.958 237.5 377.083 242.707 378.125H258.332C262.5 378.125 265.625 375 266.667 369.793V344.793C297.917 339.583 318.75 317.708 318.75 289.583Z" fill="white"/>
<path d="M196.875 398.957C115.625 369.792 73.9575 279.167 104.167 198.957C119.792 155.207 154.167 121.875 196.875 106.25C201.042 104.167 203.125 101.042 203.125 95.8325V81.25C203.125 77.0825 201.042 73.9575 196.875 72.9175C195.832 72.9175 193.75 72.9175 192.707 73.9575C93.75 105.207 39.5825 210.417 70.8325 309.375C89.5825 367.707 134.375 412.5 192.707 431.25C196.875 433.332 201.042 431.25 202.082 427.082C203.125 426.042 203.125 425 203.125 422.917V408.332C203.125 405.207 200 401.042 196.875 398.957ZM307.292 73.9575C303.125 71.875 298.957 73.9575 297.917 78.125C296.875 79.1675 296.875 80.2075 296.875 82.2925V96.875C296.875 101.042 300 105.207 303.125 107.292C384.375 136.457 426.042 227.082 395.832 307.292C380.207 351.042 345.832 384.375 303.125 400C298.957 402.082 296.875 405.207 296.875 410.417V425C296.875 429.167 298.957 432.292 303.125 433.332C304.167 433.332 306.25 433.332 307.292 432.292C406.25 401.042 460.418 295.832 429.168 196.875C410.418 137.5 364.582 92.7075 307.292 73.9575Z" fill="white"/>
</g>
<g clip-path="url(#clip1_877_696)">
<path d="M399.7 499.5C454.818 499.5 499.5 454.818 499.5 399.7C499.5 344.582 454.818 299.899 399.7 299.899C344.582 299.899 299.899 344.582 299.899 399.7C299.899 454.818 344.582 499.5 399.7 499.5Z" fill="white"/>
<path d="M408.715 387.452L456.071 340.098L438.105 322.135L399.734 360.506L361.362 322.135L343.398 340.098L390.752 387.452C393.232 389.932 396.483 391.173 399.734 391.173C402.984 391.173 406.235 389.933 408.715 387.452ZM477.267 438.039L438.896 399.668L477.267 361.296L459.303 343.333L411.95 390.687C406.99 395.647 406.99 403.69 411.95 408.65L459.303 456.004L477.267 438.039ZM399.668 438.895L438.039 477.266L456.002 459.302L408.649 411.949C403.688 406.988 395.647 406.988 390.685 411.949L343.332 459.302L361.297 477.266L399.668 438.895ZM387.452 408.715C389.835 406.332 391.173 403.102 391.173 399.733C391.173 396.365 389.835 393.133 387.452 390.751L340.099 343.398L322.135 361.363L360.506 399.733L322.135 438.105L340.099 456.069L387.452 408.715Z" fill="black"/>
</g>
<circle cx="400" cy="400" r="97.5" stroke="black" stroke-width="5"/>
<defs>
<clipPath id="clip0_877_696">
<rect width="500" height="500" fill="white"/>
</clipPath>
<clipPath id="clip1_877_696">
<rect width="200" height="200" fill="white" transform="translate(299.6 299.6)"/>
</clipPath>
</defs>
</svg>
