<svg width="500" height="500" viewBox="0 0 500 500" fill="none" xmlns="http://www.w3.org/2000/svg">
<mask id="mask0_1057_1359" style="mask-type:alpha" maskUnits="userSpaceOnUse" x="0" y="0" width="500" height="500">
<rect width="500" height="500" fill="#D9D9D9"/>
</mask>
<g mask="url(#mask0_1057_1359)">
<g clip-path="url(#clip0_1057_1359)">
<path d="M250 500C388.071 500 500 388.071 500 250C500 111.929 388.071 0 250 0C111.929 0 0 111.929 0 250C0 388.071 111.929 500 250 500Z" fill="#009393"/>
<path fill-rule="evenodd" clip-rule="evenodd" d="M250.306 267.869C293.3 267.869 329.231 260.6 338.012 250.887C330.556 242.65 303.587 236.162 269.337 234.387V254.906C263.206 255.225 256.831 255.381 250.3 255.381C243.769 255.381 237.394 255.225 231.25 254.906V234.387C197.012 236.162 170.031 242.65 162.575 250.887C171.369 260.6 207.306 267.869 250.3 267.869H250.306ZM326.694 171.287V199.544H269.337V219.137C309.625 221.231 339.856 229.844 340.081 240.15V261.637C339.856 271.944 309.625 280.537 269.337 282.637V330.725H231.256V282.637C190.969 280.544 160.75 271.944 160.525 261.637V240.15C160.75 229.844 190.969 221.231 231.256 219.137V199.544H173.9V171.287H326.7H326.694ZM151.344 126.319H352.694C357.506 126.319 361.937 128.85 364.337 132.962L422.994 233.687C426.031 238.912 425.131 245.506 420.794 249.737L259.331 407.35C254.094 412.456 245.681 412.456 240.456 407.35L79.1936 249.95C74.7624 245.612 73.9249 238.831 77.1936 233.581L139.9 132.65C142.344 128.725 146.681 126.325 151.35 126.325L151.344 126.319Z" fill="white"/>
</g>
</g>
<g clip-path="url(#clip1_1057_1359)">
<path d="M500 400C500 344.772 455.228 300 400 300C344.772 300 300 344.772 300 400C300 455.228 344.772 500 400 500C455.228 500 500 455.228 500 400Z" fill="#120901"/>
<path d="M458.729 396.781C457.045 396.781 455.361 396.991 453.887 397.833C451.993 399.096 450.519 402.043 450.519 404.78C450.519 407.096 452.624 410.043 454.94 411.306C461.466 414.674 468.413 407.096 465.044 400.78C463.992 398.464 461.255 396.991 458.729 396.781Z" fill="#FF8500"/>
<path d="M405.996 351.731C408.311 352.152 411.68 360.151 412.311 366.888C412.522 368.361 412.311 371.519 412.311 373.835C412.101 377.414 411.68 378.466 410.417 380.151C407.68 384.151 402.627 386.677 396.101 387.098C394.207 387.308 391.049 387.519 389.365 387.519C386.628 387.308 386.417 387.308 386.839 386.256C387.049 385.834 387.681 384.361 388.102 383.098C390.838 374.677 396.943 361.204 400.101 356.994C402.206 353.836 404.732 351.52 405.996 351.731ZM403.891 333.415C402.838 333.415 401.575 333.626 399.68 334.258C396.943 335.1 394.417 336.573 392.101 338.468C388.733 340.994 388.312 341.205 388.102 340.152C387.891 338.468 385.154 336.152 382.628 335.942C380.102 335.521 376.944 336.784 375.681 338.678C375.049 339.52 373.366 342.257 371.681 344.994C368.734 350.046 367.681 353.625 368.734 355.73C369.366 356.994 369.155 358.467 367.26 367.519C363.892 383.94 358.418 417.833 358.418 424.359C358.208 439.096 358.418 452.99 358.629 455.727C359.261 459.937 360.734 462.884 363.471 464.779C366.207 466.674 367.681 467.094 370.629 466.253C373.576 465.621 375.049 464.569 376.734 462.253C378.628 459.516 379.049 456.569 379.049 443.727C378.839 428.149 380.944 403.518 382.207 402.044C382.628 401.834 385.365 401.623 388.522 402.044C400.312 403.097 409.996 400.992 417.364 395.518C425.364 389.624 428.732 382.888 429.363 371.519C429.995 356.572 425.153 343.31 416.522 336.573C413.785 334.679 412.943 334.468 408.732 333.836C406.627 333.415 405.154 333.205 403.891 333.415Z" fill="white"/>
</g>
<circle cx="400" cy="400" r="97.5" stroke="black" stroke-width="5"/>
<circle cx="100" cy="400" r="97.5" fill="black" stroke="black" stroke-width="5"/>
<g clip-path="url(#clip2_1057_1359)">
<mask id="mask1_1057_1359" style="mask-type:luminance" maskUnits="userSpaceOnUse" x="30" y="345" width="140" height="110">
<path d="M170 345.05H30V454.776H170V345.05Z" fill="white"/>
</mask>
<g mask="url(#mask1_1057_1359)">
<path d="M52.1701 426.694C52.9937 425.871 54.1263 425.39 55.3274 425.39H164.256C166.246 425.39 167.241 427.793 165.834 429.2L144.316 450.718C143.493 451.541 142.36 452.022 141.159 452.022H32.2308C30.2403 452.022 29.2451 449.619 30.6521 448.212L52.1701 426.694Z" fill="url(#paint0_linear_1057_1359)"/>
<path d="M52.1701 346.354C53.0281 345.531 54.1606 345.05 55.3274 345.05H164.256C166.246 345.05 167.241 347.452 165.834 348.859L144.316 370.377C143.493 371.201 142.36 371.682 141.159 371.682H32.2308C30.2403 371.682 29.2451 369.279 30.6521 367.872L52.1701 346.354Z" fill="url(#paint1_linear_1057_1359)"/>
<path d="M144.316 386.267C143.493 385.443 142.36 384.963 141.159 384.963H32.2308C30.2403 384.963 29.2451 387.365 30.6521 388.772L52.1701 410.29C52.9937 411.114 54.1263 411.594 55.3274 411.594H164.256C166.246 411.594 167.241 409.192 165.834 407.785L144.316 386.267Z" fill="url(#paint2_linear_1057_1359)"/>
</g>
</g>
<circle cx="100" cy="400" r="97.5" stroke="black" stroke-width="5"/>
<defs>
<linearGradient id="paint0_linear_1057_1359" x1="153.85" y1="332.196" x2="78.4626" y2="476.592" gradientUnits="userSpaceOnUse">
<stop stop-color="#00FFA3"/>
<stop offset="1" stop-color="#DC1FFF"/>
</linearGradient>
<linearGradient id="paint1_linear_1057_1359" x1="120.886" y1="314.986" x2="45.4995" y2="459.382" gradientUnits="userSpaceOnUse">
<stop stop-color="#00FFA3"/>
<stop offset="1" stop-color="#DC1FFF"/>
</linearGradient>
<linearGradient id="paint2_linear_1057_1359" x1="137.263" y1="323.536" x2="61.8762" y2="467.933" gradientUnits="userSpaceOnUse">
<stop stop-color="#00FFA3"/>
<stop offset="1" stop-color="#DC1FFF"/>
</linearGradient>
<clipPath id="clip0_1057_1359">
<rect width="500" height="500" fill="white"/>
</clipPath>
<clipPath id="clip1_1057_1359">
<rect width="200" height="200" fill="white" transform="translate(300 300)"/>
</clipPath>
<clipPath id="clip2_1057_1359">
<rect width="140" height="140" fill="white" transform="translate(30 330)"/>
</clipPath>
</defs>
</svg>
