<svg width="500" height="500" viewBox="0 0 500 500" fill="none" xmlns="http://www.w3.org/2000/svg">
<mask id="mask0_1178_1485" style="mask-type:alpha" maskUnits="userSpaceOnUse" x="0" y="0" width="500" height="500">
<rect width="500" height="500" fill="#D9D9D9"/>
</mask>
<g mask="url(#mask0_1178_1485)">
<g clip-path="url(#clip0_1178_1485)">
<path d="M250 500C388.071 500 500 388.071 500 250C500 111.929 388.071 0 250 0C111.929 0 0 111.929 0 250C0 388.071 111.929 500 250 500Z" fill="#009393"/>
<path fill-rule="evenodd" clip-rule="evenodd" d="M250.306 267.869C293.3 267.869 329.231 260.6 338.012 250.888C330.556 242.65 303.587 236.162 269.337 234.387V254.906C263.206 255.225 256.831 255.381 250.3 255.381C243.769 255.381 237.394 255.225 231.25 254.906V234.387C197.012 236.162 170.031 242.65 162.575 250.888C171.369 260.6 207.306 267.869 250.3 267.869H250.306ZM326.694 171.288V199.544H269.337V219.138C309.625 221.231 339.856 229.844 340.081 240.15V261.638C339.856 271.944 309.625 280.538 269.337 282.638V330.725H231.256V282.638C190.969 280.544 160.75 271.944 160.525 261.638V240.15C160.75 229.844 190.969 221.231 231.256 219.138V199.544H173.9V171.288H326.7H326.694ZM151.344 126.319H352.694C357.506 126.319 361.937 128.85 364.337 132.963L422.994 233.688C426.031 238.913 425.131 245.506 420.794 249.737L259.331 407.35C254.094 412.456 245.681 412.456 240.456 407.35L79.1936 249.95C74.7624 245.613 73.9249 238.831 77.1936 233.581L139.9 132.65C142.344 128.725 146.681 126.325 151.35 126.325L151.344 126.319Z" fill="white"/>
</g>
</g>
<circle cx="100" cy="400" r="97.5" fill="black" stroke="black" stroke-width="5"/>
<path d="M100 500C155.249 500 200 455.218 200 400C200 344.782 155.249 300 100 300C44.751 300 0 344.782 0 400C0 455.218 44.7893 500 100 500Z" fill="#FF060A"/>
<path d="M156.245 382.047C150.728 376.929 143.065 369.133 136.858 363.615L136.475 363.375C135.862 362.895 135.172 362.495 134.444 362.215C119.425 359.416 49.5402 346.342 48.1992 346.502C47.816 346.542 47.4329 346.701 47.1264 346.901L46.7815 347.181C46.3601 347.621 46.0153 348.141 45.8237 348.741L45.7471 348.981V350.3V350.5C53.6015 372.411 84.6743 444.143 90.8045 461.016C91.1877 462.175 91.8773 464.334 93.18 464.454H93.4865C94.1762 464.454 97.1647 460.496 97.1647 460.496C97.1647 460.496 150.536 395.802 155.939 388.925C156.628 388.085 157.241 387.165 157.778 386.206C157.931 385.446 157.854 384.686 157.586 383.967C157.318 383.247 156.82 382.567 156.245 382.047ZM110.805 389.604L133.563 370.732L146.935 383.047L110.805 389.604ZM101.954 388.365L62.7586 356.218L126.207 367.933L101.954 388.365ZM105.479 396.761L145.594 390.284L99.7317 445.582L105.479 396.761ZM57.4329 359.456L98.6972 394.442L92.7202 445.622L57.4329 359.456Z" fill="white"/>
<circle cx="100" cy="400" r="97.5" stroke="black" stroke-width="5"/>
<defs>
<clipPath id="clip0_1178_1485">
<rect width="500" height="500" fill="white"/>
</clipPath>
</defs>
</svg>
