<svg width="500" height="500" viewBox="0 0 500 500" fill="none" xmlns="http://www.w3.org/2000/svg">
<mask id="mask0_1220_1870" style="mask-type:alpha" maskUnits="userSpaceOnUse" x="0" y="0" width="500" height="500">
<rect width="500" height="500" fill="#D9D9D9"/>
</mask>
<g mask="url(#mask0_1220_1870)">
<g clip-path="url(#clip0_1220_1870)">
<path d="M250 500C388.071 500 500 388.071 500 250C500 111.929 388.071 0 250 0C111.929 0 0 111.929 0 250C0 388.071 111.929 500 250 500Z" fill="#009393"/>
<path fill-rule="evenodd" clip-rule="evenodd" d="M250.306 267.869C293.3 267.869 329.231 260.6 338.012 250.888C330.556 242.65 303.587 236.162 269.337 234.387V254.906C263.206 255.225 256.831 255.381 250.3 255.381C243.769 255.381 237.394 255.225 231.25 254.906V234.387C197.012 236.162 170.031 242.65 162.575 250.888C171.369 260.6 207.306 267.869 250.3 267.869H250.306ZM326.694 171.288V199.544H269.337V219.138C309.625 221.231 339.856 229.844 340.081 240.15V261.638C339.856 271.944 309.625 280.538 269.337 282.638V330.725H231.256V282.638C190.969 280.544 160.75 271.944 160.525 261.638V240.15C160.75 229.844 190.969 221.231 231.256 219.138V199.544H173.9V171.288H326.7H326.694ZM151.344 126.319H352.694C357.506 126.319 361.937 128.85 364.337 132.963L422.994 233.688C426.031 238.913 425.131 245.506 420.794 249.737L259.331 407.35C254.094 412.456 245.681 412.456 240.456 407.35L79.1936 249.95C74.7624 245.613 73.9249 238.831 77.1936 233.581L139.9 132.65C142.344 128.725 146.681 126.325 151.35 126.325L151.344 126.319Z" fill="white"/>
</g>
</g>
<circle cx="400" cy="400" r="97.5" fill="black" stroke="black" stroke-width="5"/>
<path d="M390.772 419.988C389.933 419.988 389.262 419.988 388.423 419.151L376.008 406.774C375.672 406.44 375.504 406.272 375.504 405.938C375.337 405.771 375.169 405.102 375.337 404.432C375.337 404.098 375.504 403.931 375.672 403.763C375.84 403.596 376.008 403.429 376.175 403.262C376.511 402.927 376.679 402.592 376.847 402.426C379.866 399.582 382.719 396.738 385.738 394.062C392.449 387.539 399.16 381.016 405.871 374.493C405.871 374.158 406.374 372.151 407.884 371.649C408.388 371.482 409.059 371.482 409.394 371.482C410.233 371.482 410.904 371.482 411.743 372.318L424.829 384.695C425.332 385.364 425.836 386.201 425.668 387.037C425.5 387.873 424.661 388.375 424.326 388.543C422.816 389.379 418.118 394.062 409.226 403.429C403.858 408.614 398.657 413.799 393.288 418.817C393.12 418.984 392.953 419.486 392.449 419.821C391.946 419.988 391.443 419.988 390.772 419.988Z" fill="#AF145B"/>
<path d="M394.631 415.471C386.913 406.941 386.075 394.731 393.792 386.201L376.847 402.426C372.988 406.272 370.64 411.625 370.64 416.977C370.64 422.329 372.988 427.682 376.847 431.529L413.924 469.163C414.764 469.999 415.435 469.999 416.274 469.999C417.112 469.999 417.784 469.999 418.622 469.163C422.481 465.316 424.83 459.963 424.83 454.611C424.83 449.259 422.481 443.907 418.622 440.06L395.47 416.977C395.302 416.141 394.631 416.141 394.631 415.471Z" fill="url(#paint0_linear_1220_1870)"/>
<path d="M424.662 359.94L399.16 335.352C395.302 332.342 390.604 330 385.235 330C379.867 330 374.498 332.342 370.639 336.189C369.129 337.025 369.129 337.694 369.129 338.53C369.129 339.367 369.129 340.036 369.968 340.872L404.697 373.99C405.536 374.826 406.207 374.826 406.207 375.495C413.924 384.026 414.764 396.236 407.717 404.766L424.662 388.542C428.521 385.531 430.869 380.012 430.869 374.659C430.869 369.307 428.521 363.787 424.662 359.94Z" fill="url(#paint1_linear_1220_1870)"/>
<circle cx="400" cy="400" r="97.5" stroke="black" stroke-width="5"/>
<defs>
<linearGradient id="paint0_linear_1220_1870" x1="370.037" y1="428.1" x2="424.578" y2="428.1" gradientUnits="userSpaceOnUse">
<stop stop-color="#CB0766"/>
<stop offset="1" stop-color="#E04391"/>
</linearGradient>
<linearGradient id="paint1_linear_1220_1870" x1="369.129" y1="367.383" x2="430.869" y2="367.383" gradientUnits="userSpaceOnUse">
<stop stop-color="#CB0766"/>
<stop offset="1" stop-color="#E04391"/>
</linearGradient>
<clipPath id="clip0_1220_1870">
<rect width="500" height="500" fill="white"/>
</clipPath>
</defs>
</svg>
