<svg width="500" height="500" viewBox="0 0 500 500" fill="none" xmlns="http://www.w3.org/2000/svg">
<mask id="mask0_1381_2706" style="mask-type:alpha" maskUnits="userSpaceOnUse" x="0" y="0" width="500" height="500">
<rect width="500" height="500" fill="#D9D9D9"/>
</mask>
<g mask="url(#mask0_1381_2706)">
<g clip-path="url(#clip0_1381_2706)">
<path d="M250 500C388.071 500 500 388.071 500 250C500 111.929 388.071 0 250 0C111.929 0 0 111.929 0 250C0 388.071 111.929 500 250 500Z" fill="#009393"/>
<path fill-rule="evenodd" clip-rule="evenodd" d="M250.307 267.869C293.3 267.869 329.232 260.6 338.013 250.887C330.557 242.65 303.588 236.162 269.338 234.387V254.906C263.207 255.225 256.832 255.381 250.3 255.381C243.769 255.381 237.394 255.225 231.25 254.906V234.387C197.013 236.162 170.032 242.65 162.575 250.887C171.369 260.6 207.307 267.869 250.3 267.869H250.307ZM326.694 171.287V199.544H269.338V219.137C309.625 221.231 339.857 229.844 340.082 240.15V261.637C339.857 271.944 309.625 280.537 269.338 282.637V330.725H231.257V282.637C190.969 280.544 160.75 271.944 160.525 261.637V240.15C160.75 229.844 190.969 221.231 231.257 219.137V199.544H173.9V171.287H326.7H326.694ZM151.344 126.319H352.694C357.507 126.319 361.938 128.85 364.338 132.962L422.994 233.687C426.032 238.912 425.132 245.506 420.794 249.737L259.332 407.35C254.094 412.456 245.682 412.456 240.457 407.35L79.1941 249.95C74.7629 245.612 73.9254 238.831 77.1941 233.581L139.9 132.65C142.344 128.725 146.682 126.325 151.35 126.325L151.344 126.319Z" fill="white"/>
</g>
</g>
<circle cx="400" cy="400" r="97.5" fill="black" stroke="black" stroke-width="5"/>
<g clip-path="url(#clip1_1381_2706)">
<path fill-rule="evenodd" clip-rule="evenodd" d="M400.003 300.192C455.128 300.192 499.815 344.875 499.815 399.995C499.815 455.115 455.128 499.798 400.003 499.798C344.879 499.798 300.192 455.115 300.192 399.995C300.192 344.875 344.879 300.192 400.003 300.192Z" fill="#2E3148"/>
<path fill-rule="evenodd" clip-rule="evenodd" d="M399.806 342.42C431.608 342.42 457.388 368.2 457.388 400.002C457.388 431.803 431.608 457.583 399.806 457.583C368.005 457.583 342.225 431.803 342.225 400.002C342.225 368.2 368.005 342.42 399.806 342.42Z" fill="#1B1E36"/>
<path fill-rule="evenodd" clip-rule="evenodd" d="M472.496 352.705C470.758 352.219 468.641 352.055 466.242 352.15L466.241 352.15C461.099 352.355 454.397 353.78 446.653 356.216L446.653 356.216C430.611 361.262 410.42 370.527 390.054 382.278L391.554 384.876L390.054 382.278C369.689 394.029 351.565 406.872 339.172 418.234L341.199 420.445L339.172 418.234C333.189 423.718 328.604 428.806 325.854 433.155C324.572 435.184 323.655 437.099 323.207 438.846C322.772 440.542 322.676 442.509 323.664 444.218L326.261 442.717L323.664 444.218C323.664 444.218 323.664 444.218 323.664 444.218C324.651 445.927 326.403 446.827 328.09 447.298C329.827 447.784 331.945 447.948 334.344 447.853L334.225 444.855L334.344 447.853C339.487 447.648 346.189 446.223 353.933 443.787C369.975 438.741 390.166 429.477 410.531 417.725C430.897 405.974 449.02 393.131 461.414 381.77L459.387 379.558L461.414 381.77C467.397 376.285 471.982 371.197 474.731 366.848C476.013 364.819 476.93 362.905 477.378 361.158C477.813 359.461 477.909 357.495 476.922 355.785M472.496 352.705C474.183 353.176 475.935 354.076 476.922 355.785L472.496 352.705ZM471.692 358.806C471.697 358.944 471.682 359.214 471.566 359.667C471.33 360.589 470.753 361.911 469.66 363.642L469.66 363.642C467.321 367.342 463.177 372.014 457.359 377.347L457.359 377.347C445.382 388.326 427.648 400.922 407.533 412.529L409.032 415.127L407.533 412.529C387.417 424.135 367.636 433.187 352.132 438.063L352.132 438.063C344.603 440.432 338.481 441.683 334.106 441.857L334.105 441.857C332.058 441.939 330.623 441.776 329.705 441.52C329.253 441.393 329.01 441.27 328.893 441.197C328.889 441.059 328.903 440.789 329.019 440.336C329.256 439.414 329.832 438.092 330.926 436.361C333.265 432.662 337.409 427.989 343.226 422.656C355.203 411.677 372.938 399.081 393.053 387.474C413.168 375.868 432.95 366.816 448.453 361.939C455.983 359.571 462.104 358.32 466.48 358.146M471.692 358.806C471.575 358.733 471.333 358.61 470.881 358.483C469.963 358.227 468.527 358.064 466.48 358.146" fill="#6F7390"/>
<path fill-rule="evenodd" clip-rule="evenodd" d="M405.151 486.18C406.441 484.918 407.642 483.166 408.759 481.04L408.759 481.04C411.152 476.484 413.269 469.968 415.032 462.043L415.032 462.043C418.683 445.628 420.755 423.509 420.761 399.997L417.761 399.996L420.761 399.997C420.767 376.484 418.706 354.367 415.064 337.953L412.135 338.603L415.064 337.953C413.305 330.029 411.192 323.514 408.8 318.959C407.684 316.834 406.484 315.083 405.195 313.822C403.944 312.596 402.289 311.53 400.315 311.531L400.316 314.531L400.315 311.531C400.315 311.531 400.315 311.531 400.315 311.531C398.341 311.531 396.686 312.598 395.434 313.823C394.145 315.085 392.943 316.837 391.827 318.963L394.482 320.358L391.827 318.963C389.433 323.519 387.316 330.035 385.553 337.96C381.902 354.375 379.83 376.494 379.824 400.006C379.818 423.519 381.879 445.636 385.521 462.05L388.45 461.4L385.521 462.05C387.28 469.974 389.393 476.489 391.785 481.044C392.901 483.169 394.101 484.92 395.39 486.181C396.641 487.407 398.296 488.473 400.27 488.473M405.151 486.18C403.899 487.405 402.244 488.472 400.27 488.473L405.151 486.18ZM400.269 482.433C400.148 482.368 399.921 482.22 399.587 481.894C398.907 481.228 398.049 480.067 397.098 478.255L397.098 478.255C395.063 474.38 393.088 468.454 391.379 460.75L391.379 460.75C387.859 444.888 385.818 423.231 385.824 400.008L382.824 400.007L385.824 400.008C385.83 376.784 387.882 355.127 391.41 339.262L391.41 339.262C393.124 331.557 395.101 325.63 397.138 321.754L397.138 321.754C398.091 319.94 398.949 318.778 399.631 318.111C399.966 317.783 400.194 317.635 400.316 317.57C400.437 317.635 400.665 317.783 400.998 318.109C401.679 318.775 402.536 319.936 403.488 321.748C405.522 325.623 407.497 331.549 409.206 339.253C412.726 355.115 414.767 376.772 414.761 399.995C414.755 423.219 412.703 444.876 409.175 460.741C407.461 468.446 405.484 474.373 403.447 478.249M400.269 482.433C400.391 482.368 400.619 482.22 400.954 481.892C401.636 481.225 402.494 480.063 403.447 478.25" fill="#6F7390"/>
<path fill-rule="evenodd" clip-rule="evenodd" d="M328.09 352.705C329.828 352.219 331.945 352.055 334.344 352.15L334.345 352.15C339.487 352.355 346.189 353.78 353.933 356.216L353.933 356.216C369.975 361.262 390.166 370.527 410.532 382.278L409.032 384.876L410.532 382.278C430.897 394.029 449.021 406.872 461.414 418.234L459.387 420.445L461.414 418.234C467.397 423.718 471.982 428.806 474.732 433.155C476.014 435.184 476.93 437.099 477.379 438.846C477.814 440.542 477.91 442.509 476.922 444.218L474.325 442.717L476.922 444.218C476.922 444.218 476.922 444.218 476.922 444.218C475.935 445.927 474.183 446.827 472.496 447.298C470.759 447.784 468.641 447.948 466.242 447.853L466.361 444.855L466.242 447.853C461.099 447.648 454.397 446.223 446.653 443.787C430.611 438.741 410.42 429.477 390.055 417.725C369.689 405.974 351.566 393.131 339.172 381.77L341.199 379.558L339.172 381.77C333.189 376.285 328.604 371.197 325.855 366.848C324.572 364.819 323.656 362.905 323.208 361.158C322.772 359.461 322.676 357.495 323.664 355.785M328.09 352.705C326.403 353.176 324.651 354.076 323.664 355.785L328.09 352.705ZM328.893 358.806C328.889 358.944 328.903 359.214 329.02 359.667C329.256 360.589 329.832 361.911 330.926 363.642L330.926 363.642C333.265 367.342 337.409 372.014 343.227 377.347L343.227 377.347C355.204 388.326 372.938 400.922 393.053 412.529L391.554 415.127L393.053 412.529C413.168 424.135 432.95 433.187 448.453 438.063L448.454 438.063C455.983 440.432 462.105 441.683 466.48 441.857L466.481 441.857C468.527 441.939 469.963 441.776 470.881 441.52C471.333 441.393 471.576 441.27 471.693 441.197C471.697 441.059 471.683 440.789 471.567 440.336C471.33 439.414 470.754 438.092 469.66 436.361C467.321 432.662 463.177 427.989 457.36 422.656C445.382 411.677 427.648 399.081 407.533 387.474C387.418 375.868 367.636 366.816 352.133 361.939C344.603 359.571 338.482 358.32 334.106 358.146M328.893 358.806C329.011 358.733 329.253 358.61 329.705 358.483C330.623 358.227 332.059 358.064 334.106 358.146" fill="#6F7390"/>
<path fill-rule="evenodd" clip-rule="evenodd" d="M344.441 375.526C347.835 375.526 350.586 378.278 350.586 381.674C350.586 385.069 347.835 387.822 344.441 387.822C341.047 387.822 338.296 385.069 338.296 381.674C338.296 378.278 341.047 375.526 344.441 375.526Z" fill="#B7B9C8"/>
<path fill-rule="evenodd" clip-rule="evenodd" d="M442.113 354.476C445.508 354.476 448.261 357.229 448.261 360.624C448.261 364.02 445.508 366.772 442.113 366.772C438.717 366.772 435.965 364.02 435.965 360.624C435.965 357.229 438.717 354.476 442.113 354.476Z" fill="#B7B9C8"/>
<path fill-rule="evenodd" clip-rule="evenodd" d="M387.913 450.977C391.308 450.977 394.061 453.729 394.061 457.122C394.061 460.516 391.308 463.267 387.913 463.267C384.517 463.267 381.765 460.516 381.765 457.122C381.765 453.729 384.517 450.977 387.913 450.977Z" fill="#B7B9C8"/>
<path fill-rule="evenodd" clip-rule="evenodd" d="M399.953 389.543C405.701 389.543 410.362 394.203 410.362 399.952C410.362 405.701 405.701 410.361 399.953 410.361C394.204 410.361 389.544 405.701 389.544 399.952C389.544 394.203 394.204 389.543 399.953 389.543Z" fill="#B7B9C8"/>
</g>
<circle cx="400" cy="400" r="97.5" stroke="black" stroke-width="5"/>
<defs>
<clipPath id="clip0_1381_2706">
<rect width="500" height="500" fill="white"/>
</clipPath>
<clipPath id="clip1_1381_2706">
<rect width="200" height="200" fill="white" transform="translate(300 300)"/>
</clipPath>
</defs>
</svg>
