<svg width="500" height="500" viewBox="0 0 500 500" fill="none" xmlns="http://www.w3.org/2000/svg">
<mask id="mask0_819_1632" style="mask-type:alpha" maskUnits="userSpaceOnUse" x="0" y="0" width="500" height="500">
<rect width="500" height="500" fill="#D9D9D9"/>
</mask>
<g mask="url(#mask0_819_1632)">
<g clip-path="url(#clip0_819_1632)">
<path d="M250 500C388.071 500 500 388.071 500 250C500 111.929 388.071 0 250 0C111.929 0 0 111.929 0 250C0 388.071 111.929 500 250 500Z" fill="#009393"/>
<path fill-rule="evenodd" clip-rule="evenodd" d="M250.306 267.869C293.3 267.869 329.231 260.6 338.012 250.888C330.556 242.65 303.587 236.162 269.337 234.387V254.906C263.206 255.225 256.831 255.381 250.3 255.381C243.769 255.381 237.394 255.225 231.25 254.906V234.387C197.013 236.162 170.031 242.65 162.575 250.888C171.369 260.6 207.306 267.869 250.3 267.869H250.306ZM326.694 171.288V199.544H269.337V219.138C309.625 221.231 339.856 229.844 340.081 240.15V261.638C339.856 271.944 309.625 280.538 269.337 282.638V330.725H231.256V282.638C190.969 280.544 160.75 271.944 160.525 261.638V240.15C160.75 229.844 190.969 221.231 231.256 219.138V199.544H173.9V171.288H326.7H326.694ZM151.344 126.319H352.694C357.506 126.319 361.937 128.85 364.337 132.963L422.994 233.688C426.031 238.913 425.131 245.506 420.794 249.737L259.331 407.35C254.094 412.456 245.681 412.456 240.456 407.35L79.1937 249.95C74.7625 245.613 73.925 238.831 77.1938 233.581L139.9 132.65C142.344 128.725 146.681 126.325 151.35 126.325L151.344 126.319Z" fill="white"/>
</g>
</g>
<g clip-path="url(#clip1_819_1632)">
<path d="M100 500C155.228 500 200 455.228 200 400C200 344.772 155.228 300 100 300C44.7715 300 0 344.772 0 400C0 455.228 44.7715 500 100 500Z" fill="#FF433E"/>
<path d="M73.5156 342.266H53.3594V457.813H73.5156V342.266Z" fill="white"/>
<path d="M128.672 457.734L84.4531 400L128.672 342.266H153.906L110.391 400L153.906 457.734H128.672Z" fill="white"/>
</g>
<circle cx="100" cy="400" r="97.5" stroke="black" stroke-width="5"/>
<defs>
<clipPath id="clip0_819_1632">
<rect width="500" height="500" fill="white"/>
</clipPath>
<clipPath id="clip1_819_1632">
<rect width="200" height="200" fill="white" transform="translate(0 300)"/>
</clipPath>
</defs>
</svg>
