<svg width="500" height="500" viewBox="0 0 500 500" fill="none" xmlns="http://www.w3.org/2000/svg">
<mask id="mask0_1267_2167" style="mask-type:alpha" maskUnits="userSpaceOnUse" x="0" y="0" width="500" height="500">
<rect width="500" height="500" fill="#D9D9D9"/>
</mask>
<g mask="url(#mask0_1267_2167)">
<g clip-path="url(#clip0_1267_2167)">
<path d="M250 500C388.071 500 500 388.071 500 250C500 111.929 388.071 0 250 0C111.929 0 0 111.929 0 250C0 388.071 111.929 500 250 500Z" fill="#009393"/>
<path fill-rule="evenodd" clip-rule="evenodd" d="M250.306 267.869C293.3 267.869 329.231 260.6 338.012 250.887C330.556 242.65 303.587 236.162 269.337 234.387V254.906C263.206 255.225 256.831 255.381 250.3 255.381C243.769 255.381 237.394 255.225 231.25 254.906V234.387C197.013 236.162 170.031 242.65 162.575 250.887C171.369 260.6 207.306 267.869 250.3 267.869H250.306ZM326.694 171.287V199.544H269.337V219.137C309.625 221.231 339.856 229.844 340.081 240.15V261.637C339.856 271.944 309.625 280.537 269.337 282.637V330.725H231.256V282.637C190.969 280.544 160.75 271.944 160.525 261.637V240.15C160.75 229.844 190.969 221.231 231.256 219.137V199.544H173.9V171.287H326.7H326.694ZM151.344 126.319H352.694C357.506 126.319 361.937 128.85 364.337 132.962L422.994 233.687C426.031 238.912 425.131 245.506 420.794 249.737L259.331 407.35C254.094 412.456 245.681 412.456 240.456 407.35L79.1937 249.95C74.7625 245.612 73.925 238.831 77.1938 233.581L139.9 132.65C142.344 128.725 146.681 126.325 151.35 126.325L151.344 126.319Z" fill="white"/>
</g>
</g>
<g clip-path="url(#clip1_1267_2167)">
<path d="M399.7 499.5C454.818 499.5 499.5 454.818 499.5 399.7C499.5 344.582 454.818 299.899 399.7 299.899C344.582 299.899 299.899 344.582 299.899 399.7C299.899 454.818 344.582 499.5 399.7 499.5Z" fill="white"/>
<path d="M408.715 387.452L456.071 340.098L438.105 322.135L399.734 360.505L361.362 322.135L343.398 340.098L390.752 387.452C393.232 389.932 396.483 391.172 399.734 391.172C402.984 391.172 406.235 389.933 408.715 387.452ZM477.267 438.039L438.896 399.668L477.267 361.296L459.303 343.333L411.95 390.687C406.99 395.647 406.99 403.689 411.95 408.65L459.303 456.004L477.267 438.039ZM399.668 438.895L438.039 477.266L456.002 459.302L408.649 411.949C403.688 406.988 395.647 406.988 390.685 411.949L343.332 459.302L361.297 477.266L399.668 438.895ZM387.452 408.715C389.835 406.332 391.173 403.102 391.173 399.733C391.173 396.365 389.835 393.133 387.452 390.751L340.099 343.398L322.135 361.363L360.506 399.733L322.135 438.105L340.099 456.069L387.452 408.715Z" fill="black"/>
</g>
<circle cx="400" cy="400" r="97.5" stroke="black" stroke-width="5"/>
<g clip-path="url(#clip2_1267_2167)">
<path d="M100.081 300.16C155.224 300.16 199.92 344.847 199.92 399.98C199.92 455.113 155.224 499.76 100.12 499.76C44.9761 499.76 0.319423 455.073 0.319423 399.98C0.280147 344.847 44.9761 300.16 100.081 300.16Z" fill="#8247E5"/>
<mask id="mask1_1267_2167" style="mask-type:luminance" maskUnits="userSpaceOnUse" x="33" y="343" width="132" height="115">
<path d="M164.807 343.324H33.9789V457.971H164.807V343.324Z" fill="white"/>
</mask>
<g mask="url(#mask1_1267_2167)">
<path d="M132.797 378.24C130.402 376.866 127.338 376.866 124.628 378.24L105.54 389.552L92.5789 396.739L73.844 408.011C71.4484 409.386 68.3849 409.386 65.6747 408.011L51.0248 399.096C48.6288 397.721 46.9402 394.972 46.9402 391.909V374.784C46.9402 372.035 48.3146 369.325 51.0248 367.597L65.6747 359.034C68.0707 357.66 71.1342 357.66 73.844 359.034L88.4943 367.95C90.8899 369.325 92.5789 372.074 92.5789 375.138V386.449L105.54 378.908V367.282C105.54 364.533 104.165 361.823 101.455 360.095L74.1977 343.992C71.8016 342.617 68.7382 342.617 66.0284 343.992L38.103 360.448C35.3929 361.823 34.0182 364.572 34.0182 367.282V399.449C34.0182 402.199 35.3929 404.909 38.103 406.637L65.7138 422.74C68.1098 424.115 71.1733 424.115 73.8835 422.74L92.618 411.782L105.579 404.241L124.314 393.283C126.71 391.909 129.773 391.909 132.483 393.283L147.133 401.845C149.529 403.22 151.218 405.969 151.218 409.033V426.157C151.218 428.907 149.843 431.616 147.133 433.344L132.837 441.907C130.441 443.281 127.377 443.281 124.667 441.907L109.978 433.344C107.582 431.97 105.893 429.221 105.893 426.157V415.199L92.9322 422.74V434.051C92.9322 436.801 94.307 439.511 97.0168 441.239L124.628 457.342C127.024 458.717 130.087 458.717 132.797 457.342L160.408 441.239C162.804 439.865 164.493 437.115 164.493 434.051V401.531C164.493 398.782 163.119 396.072 160.408 394.344L132.797 378.24Z" fill="white"/>
</g>
</g>
<circle cx="100" cy="400" r="97.5" stroke="black" stroke-width="5"/>
<defs>
<clipPath id="clip0_1267_2167">
<rect width="500" height="500" fill="white"/>
</clipPath>
<clipPath id="clip1_1267_2167">
<rect width="200" height="200" fill="white" transform="translate(299.6 299.6)"/>
</clipPath>
<clipPath id="clip2_1267_2167">
<rect width="200" height="200" fill="white" transform="translate(0 300)"/>
</clipPath>
</defs>
</svg>
