<svg width="500" height="500" viewBox="0 0 500 500" fill="none" xmlns="http://www.w3.org/2000/svg">
<mask id="mask0_879_970" style="mask-type:alpha" maskUnits="userSpaceOnUse" x="0" y="0" width="500" height="500">
<rect width="500" height="500" fill="#D9D9D9"/>
</mask>
<g mask="url(#mask0_879_970)">
<g clip-path="url(#clip0_879_970)">
<path d="M250 500C388.071 500 500 388.071 500 250C500 111.929 388.071 0 250 0C111.929 0 0 111.929 0 250C0 388.071 111.929 500 250 500Z" fill="#009393"/>
<path fill-rule="evenodd" clip-rule="evenodd" d="M250.306 267.869C293.3 267.869 329.231 260.6 338.012 250.888C330.556 242.65 303.587 236.162 269.337 234.387V254.906C263.206 255.225 256.831 255.381 250.3 255.381C243.769 255.381 237.394 255.225 231.25 254.906V234.387C197.012 236.162 170.031 242.65 162.575 250.888C171.369 260.6 207.306 267.869 250.3 267.869H250.306ZM326.694 171.288V199.544H269.337V219.138C309.625 221.231 339.856 229.844 340.081 240.15V261.638C339.856 271.944 309.625 280.538 269.337 282.638V330.725H231.256V282.638C190.969 280.544 160.75 271.944 160.525 261.638V240.15C160.75 229.844 190.969 221.231 231.256 219.138V199.544H173.9V171.288H326.7H326.694ZM151.344 126.319H352.694C357.506 126.319 361.937 128.85 364.337 132.963L422.994 233.688C426.031 238.913 425.131 245.506 420.794 249.737L259.331 407.35C254.094 412.456 245.681 412.456 240.456 407.35L79.1936 249.95C74.7624 245.613 73.9249 238.831 77.1936 233.581L139.9 132.65C142.344 128.725 146.681 126.325 151.35 126.325L151.344 126.319Z" fill="white"/>
</g>
</g>
<g clip-path="url(#clip1_879_970)">
<mask id="mask1_879_970" style="mask-type:luminance" maskUnits="userSpaceOnUse" x="300" y="300" width="200" height="200">
<path d="M500 300H300V500H500V300Z" fill="white"/>
</mask>
<g mask="url(#mask1_879_970)">
<path d="M500 300H300V500H500V300Z" fill="white"/>
<path d="M847.945 300H300V847.945H847.945V300Z" fill="black"/>
<g opacity="0.4" filter="url(#filter0_f_879_970)">
<path d="M624.715 265.787C792.833 208.422 956.263 241.465 989.748 339.591C1023.23 437.717 914.082 563.767 745.966 621.133C577.848 678.498 414.417 645.455 380.935 547.329C347.452 449.203 456.596 323.153 624.715 265.787Z" fill="#FF2B57"/>
</g>
<g opacity="0.6" filter="url(#filter1_f_879_970)">
<path d="M579.495 232.211C808.906 197.273 1014.95 300.718 1039.7 463.262C1064.46 625.807 898.553 785.899 669.141 820.838C439.73 855.775 233.688 752.332 208.933 589.787C184.178 427.242 350.084 267.15 579.495 232.211Z" fill="#164094"/>
</g>
<path d="M400.274 475.218C380.38 475.205 361.304 467.301 347.231 453.241C333.157 439.18 325.236 420.11 325.206 400.216C325.236 380.322 333.157 361.251 347.23 347.189C361.303 333.127 380.379 325.221 400.274 325.205C420.169 325.221 439.245 333.127 453.318 347.189C467.391 361.251 475.312 380.322 475.343 400.216C475.312 420.11 467.391 439.18 453.318 453.241C439.244 467.301 420.168 475.205 400.274 475.218ZM400.274 330.98C381.91 330.993 364.301 338.29 351.31 351.269C338.319 364.249 331.008 381.853 330.98 400.216C330.998 418.582 338.306 436.191 351.3 449.171C364.293 462.152 381.908 469.443 400.274 469.443C418.641 469.443 436.255 462.152 449.249 449.171C462.242 436.191 469.55 418.582 469.568 400.216C469.54 381.853 462.229 364.249 449.238 351.269C436.247 338.29 418.638 330.993 400.274 330.98Z" fill="white"/>
<path d="M409.765 463.351C393.283 463.338 377.48 456.788 365.82 445.138C354.161 433.488 347.599 417.689 347.574 401.207C347.599 384.725 354.161 368.927 365.82 357.276C377.48 345.626 393.283 339.077 409.765 339.064C426.247 339.077 442.051 345.626 453.71 357.276C465.369 368.927 471.931 384.725 471.957 401.207C471.931 417.689 465.369 433.488 453.71 445.138C442.051 456.788 426.247 463.338 409.765 463.351ZM409.765 343.549C394.474 343.561 379.812 349.639 368.995 360.448C358.179 371.258 352.091 385.916 352.068 401.207C352.094 416.497 358.183 431.153 368.998 441.96C379.815 452.767 394.475 458.843 409.765 458.856C425.055 458.843 439.716 452.767 450.532 441.96C461.348 431.153 467.437 416.497 467.462 401.207C467.437 385.917 461.348 371.261 450.532 360.454C439.716 349.647 425.055 343.571 409.765 343.558V343.549Z" fill="white"/>
<path d="M419.255 451.494C406.186 451.484 393.655 446.29 384.41 437.053C375.165 427.815 369.962 415.287 369.941 402.218C369.962 389.149 375.165 376.621 384.41 367.384C393.655 358.146 406.186 352.952 419.255 352.942C432.326 352.95 444.858 358.142 454.104 367.381C463.349 376.619 468.552 389.148 468.569 402.218C468.549 415.287 463.346 427.815 454.101 437.053C444.856 446.29 432.324 451.484 419.255 451.494ZM419.255 356.147C407.036 356.155 395.317 361.01 386.673 369.647C378.029 378.284 373.164 389.998 373.146 402.218C373.166 414.436 378.032 426.148 386.677 434.783C395.321 443.418 407.037 448.272 419.255 448.279C431.474 448.272 443.19 443.418 451.835 434.783C460.478 426.148 465.345 414.436 465.365 402.218C465.347 389.998 460.482 378.284 451.838 369.647C443.193 361.01 431.476 356.155 419.255 356.147Z" fill="white"/>
<path d="M428.739 439.627C419.082 439.619 409.823 435.782 402.992 428.956C396.161 422.131 392.317 412.875 392.301 403.219C392.314 393.561 396.158 384.302 402.989 377.475C409.82 370.647 419.08 366.808 428.739 366.801C438.397 366.808 447.657 370.647 454.488 377.475C461.319 384.302 465.163 393.561 465.175 403.219C465.16 412.875 461.316 422.131 454.485 428.956C447.654 435.782 438.395 439.619 428.739 439.627ZM428.739 368.725C419.591 368.733 410.82 372.369 404.35 378.836C397.88 385.302 394.239 394.071 394.226 403.219C394.242 412.364 397.883 421.131 404.353 427.595C410.823 434.06 419.593 437.694 428.739 437.702C437.884 437.694 446.654 434.06 453.124 427.595C459.593 421.131 463.236 412.364 463.25 403.219C463.238 394.071 459.598 385.302 453.128 378.836C446.657 372.369 437.886 368.733 428.739 368.725Z" fill="white"/>
</g>
</g>
<circle cx="400" cy="400" r="97.5" stroke="black" stroke-width="5"/>
<defs>
<filter id="filter0_f_879_970" x="-75.1033" y="-212.38" width="1520.89" height="1311.68" filterUnits="userSpaceOnUse" color-interpolation-filters="sRGB">
<feFlood flood-opacity="0" result="BackgroundImageFix"/>
<feBlend mode="normal" in="SourceGraphic" in2="BackgroundImageFix" result="shape"/>
<feGaussianBlur stdDeviation="225" result="effect1_foregroundBlur_879_970"/>
</filter>
<filter id="filter1_f_879_970" x="-543.513" y="-524.573" width="2335.66" height="2102.2" filterUnits="userSpaceOnUse" color-interpolation-filters="sRGB">
<feFlood flood-opacity="0" result="BackgroundImageFix"/>
<feBlend mode="normal" in="SourceGraphic" in2="BackgroundImageFix" result="shape"/>
<feGaussianBlur stdDeviation="375" result="effect1_foregroundBlur_879_970"/>
</filter>
<clipPath id="clip0_879_970">
<rect width="500" height="500" fill="white"/>
</clipPath>
<clipPath id="clip1_879_970">
<rect x="300" y="300" width="200" height="200" rx="100" fill="white"/>
</clipPath>
</defs>
</svg>
