<svg width="500" height="500" viewBox="0 0 500 500" fill="none" xmlns="http://www.w3.org/2000/svg">
<mask id="mask0_104_1422" style="mask-type:alpha" maskUnits="userSpaceOnUse" x="0" y="0" width="500" height="500">
<rect width="500" height="500" fill="#D9D9D9"/>
</mask>
<g mask="url(#mask0_104_1422)">
<g clip-path="url(#clip0_104_1422)">
<path d="M250 500C388.071 500 500 388.071 500 250C500 111.929 388.071 0 250 0C111.929 0 0 111.929 0 250C0 388.071 111.929 500 250 500Z" fill="#009393"/>
<path fill-rule="evenodd" clip-rule="evenodd" d="M250.306 267.869C293.3 267.869 329.231 260.6 338.012 250.888C330.556 242.65 303.587 236.162 269.337 234.387V254.906C263.206 255.225 256.831 255.381 250.3 255.381C243.769 255.381 237.394 255.225 231.25 254.906V234.387C197.013 236.162 170.031 242.65 162.575 250.888C171.369 260.6 207.306 267.869 250.3 267.869H250.306ZM326.694 171.288V199.544H269.337V219.138C309.625 221.231 339.856 229.844 340.081 240.15V261.638C339.856 271.944 309.625 280.538 269.337 282.638V330.725H231.256V282.638C190.969 280.544 160.75 271.944 160.525 261.638V240.15C160.75 229.844 190.969 221.231 231.256 219.138V199.544H173.9V171.288H326.7H326.694ZM151.344 126.319H352.694C357.506 126.319 361.937 128.85 364.337 132.963L422.994 233.688C426.031 238.913 425.131 245.506 420.794 249.737L259.331 407.35C254.094 412.456 245.681 412.456 240.456 407.35L79.1937 249.95C74.7625 245.613 73.925 238.831 77.1938 233.581L139.9 132.65C142.344 128.725 146.681 126.325 151.35 126.325L151.344 126.319Z" fill="white"/>
</g>
</g>
<g clip-path="url(#clip1_104_1422)">
<path d="M399.7 499.5C454.818 499.5 499.5 454.818 499.5 399.7C499.5 344.582 454.818 299.899 399.7 299.899C344.582 299.899 299.899 344.582 299.899 399.7C299.899 454.818 344.582 499.5 399.7 499.5Z" fill="white"/>
<path d="M408.715 387.452L456.071 340.098L438.105 322.135L399.734 360.505L361.362 322.135L343.398 340.098L390.752 387.452C393.232 389.932 396.483 391.172 399.734 391.172C402.984 391.172 406.235 389.933 408.715 387.452ZM477.267 438.039L438.896 399.668L477.267 361.296L459.303 343.333L411.95 390.687C406.99 395.647 406.99 403.689 411.95 408.65L459.303 456.004L477.267 438.039ZM399.668 438.895L438.039 477.266L456.002 459.302L408.649 411.948C403.688 406.988 395.647 406.988 390.685 411.948L343.332 459.302L361.297 477.266L399.668 438.895ZM387.452 408.715C389.835 406.332 391.173 403.102 391.173 399.733C391.173 396.364 389.835 393.133 387.452 390.751L340.099 343.398L322.135 361.362L360.506 399.733L322.135 438.105L340.099 456.069L387.452 408.715Z" fill="black"/>
</g>
<circle cx="400" cy="400" r="97.5" stroke="black" stroke-width="5"/>
<defs>
<clipPath id="clip0_104_1422">
<rect width="500" height="500" fill="white"/>
</clipPath>
<clipPath id="clip1_104_1422">
<rect width="200" height="200" fill="white" transform="translate(299.6 299.6)"/>
</clipPath>
</defs>
</svg>
