<svg width="500" height="500" viewBox="0 0 500 500" fill="none" xmlns="http://www.w3.org/2000/svg">
<mask id="mask0_1208_1568" style="mask-type:alpha" maskUnits="userSpaceOnUse" x="0" y="0" width="500" height="500">
<rect width="500" height="500" fill="#D9D9D9"/>
</mask>
<g mask="url(#mask0_1208_1568)">
<g clip-path="url(#clip0_1208_1568)">
<path d="M250 500C388.071 500 500 388.071 500 250C500 111.929 388.071 0 250 0C111.929 0 0 111.929 0 250C0 388.071 111.929 500 250 500Z" fill="#009393"/>
<path fill-rule="evenodd" clip-rule="evenodd" d="M250.306 267.869C293.3 267.869 329.231 260.6 338.012 250.888C330.556 242.65 303.587 236.162 269.337 234.387V254.906C263.206 255.225 256.831 255.381 250.3 255.381C243.769 255.381 237.394 255.225 231.25 254.906V234.387C197.012 236.162 170.031 242.65 162.575 250.888C171.369 260.6 207.306 267.869 250.3 267.869H250.306ZM326.694 171.288V199.544H269.337V219.138C309.625 221.231 339.856 229.844 340.081 240.15V261.637C339.856 271.944 309.625 280.538 269.337 282.638V330.725H231.256V282.638C190.969 280.544 160.75 271.944 160.525 261.637V240.15C160.75 229.844 190.969 221.231 231.256 219.138V199.544H173.9V171.288H326.7H326.694ZM151.344 126.319H352.694C357.506 126.319 361.937 128.85 364.337 132.963L422.994 233.688C426.031 238.912 425.131 245.506 420.794 249.737L259.331 407.35C254.094 412.456 245.681 412.456 240.456 407.35L79.1936 249.95C74.7624 245.613 73.9249 238.831 77.1936 233.581L139.9 132.65C142.344 128.725 146.681 126.325 151.35 126.325L151.344 126.319Z" fill="white"/>
</g>
</g>
<circle cx="400" cy="400" r="97.5" fill="black" stroke="black" stroke-width="5"/>
<g clip-path="url(#clip1_1208_1568)">
<path d="M346.974 354.197C347.843 353.105 348.765 352.053 349.686 351.002C349.727 350.95 349.821 350.939 349.862 350.887C349.945 350.783 350.08 350.72 350.162 350.616L350.245 350.512C350.887 349.919 351.571 349.272 352.358 348.71C355.146 346.594 358.039 344.986 361.089 343.928C370.872 340.493 381.763 342.61 390.303 350.673C402.228 361.851 401.16 379.858 391.641 391.827C379.612 409.669 358.939 434.562 387.562 456.861C392.709 460.871 396.526 464.176 412.737 468.861C402.135 470.814 392.304 470.207 381.362 467.412C373.622 463.043 361.453 453.689 357.313 441.055C351.056 421.897 368.33 393.256 376.678 382.226C388.14 366.96 369.593 350.434 355.939 368.883C348.802 378.498 336.315 405.706 340.655 425.888C343.192 437.333 346.574 445.675 359.982 457.134C357.496 455.667 355.081 454.003 352.739 452.141C321.585 423.121 325.199 378.251 346.974 354.197Z" fill="url(#paint0_linear_1208_1568)"/>
<path d="M453.026 445.803C452.157 446.896 451.235 447.947 450.314 448.998C450.273 449.05 450.179 449.061 450.138 449.113C450.055 449.217 449.92 449.28 449.838 449.384L449.755 449.488C449.113 450.082 448.429 450.728 447.642 451.291C444.854 453.407 441.961 455.014 438.911 456.072C429.128 459.507 418.237 457.39 409.697 449.327C397.772 438.149 398.84 420.142 408.359 408.174C420.388 390.331 441.061 365.438 412.438 343.139C407.291 339.129 403.474 335.824 387.263 331.139C397.865 329.186 407.696 329.793 418.638 332.588C426.378 336.957 438.547 346.311 442.687 358.945C448.944 378.103 431.67 406.744 423.322 417.774C411.86 433.04 430.407 449.566 444.061 431.117C451.198 421.502 463.685 394.294 459.345 374.112C456.808 362.668 453.426 354.325 440.018 342.866C442.504 344.333 444.919 345.997 447.261 347.859C478.415 376.879 474.801 421.749 453.026 445.803Z" fill="url(#paint1_linear_1208_1568)"/>
</g>
<circle cx="400" cy="400" r="97.5" stroke="black" stroke-width="5"/>
<defs>
<linearGradient id="paint0_linear_1208_1568" x1="330" y1="400" x2="470" y2="400" gradientUnits="userSpaceOnUse">
<stop stop-color="#0082FA"/>
<stop offset="1" stop-color="#00F2FE"/>
</linearGradient>
<linearGradient id="paint1_linear_1208_1568" x1="330" y1="400" x2="470" y2="400" gradientUnits="userSpaceOnUse">
<stop stop-color="#0082FA"/>
<stop offset="1" stop-color="#00F2FE"/>
</linearGradient>
<clipPath id="clip0_1208_1568">
<rect width="500" height="500" fill="white"/>
</clipPath>
<clipPath id="clip1_1208_1568">
<rect width="140" height="140" fill="white" transform="translate(330 330)"/>
</clipPath>
</defs>
</svg>
