<svg width="500" height="500" viewBox="0 0 500 500" fill="none" xmlns="http://www.w3.org/2000/svg">
<mask id="mask0_1267_2131" style="mask-type:alpha" maskUnits="userSpaceOnUse" x="0" y="0" width="500" height="500">
<rect width="500" height="500" fill="#D9D9D9"/>
</mask>
<g mask="url(#mask0_1267_2131)">
<g clip-path="url(#clip0_1267_2131)">
<path d="M250 500C388.071 500 500 388.071 500 250C500 111.929 388.071 0 250 0C111.929 0 0 111.929 0 250C0 388.071 111.929 500 250 500Z" fill="#009393"/>
<path fill-rule="evenodd" clip-rule="evenodd" d="M250.306 267.869C293.3 267.869 329.231 260.6 338.012 250.888C330.556 242.65 303.587 236.162 269.337 234.387V254.906C263.206 255.225 256.831 255.381 250.3 255.381C243.769 255.381 237.394 255.225 231.25 254.906V234.387C197.013 236.162 170.031 242.65 162.575 250.888C171.369 260.6 207.306 267.869 250.3 267.869H250.306ZM326.694 171.288V199.544H269.337V219.138C309.625 221.231 339.856 229.844 340.081 240.15V261.638C339.856 271.944 309.625 280.538 269.337 282.638V330.725H231.256V282.638C190.969 280.544 160.75 271.944 160.525 261.638V240.15C160.75 229.844 190.969 221.231 231.256 219.138V199.544H173.9V171.288H326.7H326.694ZM151.344 126.319H352.694C357.506 126.319 361.937 128.85 364.337 132.963L422.994 233.688C426.031 238.913 425.131 245.506 420.794 249.737L259.331 407.35C254.094 412.456 245.681 412.456 240.456 407.35L79.1937 249.95C74.7625 245.613 73.925 238.831 77.1938 233.581L139.9 132.65C142.344 128.725 146.681 126.325 151.35 126.325L151.344 126.319Z" fill="white"/>
</g>
</g>
<g clip-path="url(#clip1_1267_2131)">
<path d="M399.7 499.5C454.818 499.5 499.5 454.818 499.5 399.7C499.5 344.582 454.818 299.899 399.7 299.899C344.582 299.899 299.899 344.582 299.899 399.7C299.899 454.818 344.582 499.5 399.7 499.5Z" fill="white"/>
<path d="M408.715 387.452L456.071 340.098L438.105 322.135L399.734 360.505L361.362 322.135L343.398 340.098L390.752 387.452C393.232 389.932 396.483 391.172 399.734 391.172C402.984 391.172 406.235 389.933 408.715 387.452ZM477.267 438.039L438.896 399.668L477.267 361.296L459.303 343.333L411.95 390.687C406.99 395.647 406.99 403.689 411.95 408.65L459.303 456.004L477.267 438.039ZM399.668 438.895L438.039 477.266L456.002 459.302L408.65 411.949C403.688 406.988 395.647 406.988 390.685 411.949L343.332 459.302L361.297 477.266L399.668 438.895ZM387.452 408.715C389.835 406.332 391.173 403.102 391.173 399.733C391.173 396.365 389.835 393.133 387.452 390.751L340.099 343.398L322.135 361.363L360.506 399.733L322.135 438.105L340.099 456.069L387.452 408.715Z" fill="black"/>
</g>
<circle cx="400" cy="400" r="97.5" stroke="black" stroke-width="5"/>
<circle cx="100" cy="400" r="97.5" fill="black" stroke="black" stroke-width="5"/>
<path d="M22.8821 362.445V436.255C22.8821 440.968 25.4 445.326 29.479 447.675L93.4014 484.587C97.4799 486.936 102.502 486.936 106.581 484.587L170.503 447.675C174.583 445.326 177.1 440.968 177.1 436.255V362.445C177.1 357.733 174.583 353.375 170.503 351.026L106.581 314.113C102.502 311.765 97.4799 311.765 93.4014 314.113L29.4636 351.026C25.3846 353.375 22.8821 357.733 22.8821 362.445Z" fill="#213147"/>
<path d="M113.937 413.667L104.821 438.666C104.574 439.361 104.574 440.119 104.821 440.814L120.503 483.829L138.642 473.353L116.871 413.667C116.376 412.292 114.43 412.292 113.935 413.667H113.937Z" fill="#12AAFF"/>
<path d="M132.217 371.623C131.722 370.248 129.775 370.248 129.281 371.623L120.164 396.622C119.918 397.318 119.918 398.076 120.164 398.771L145.859 469.197L163.998 458.722L132.215 371.623H132.217Z" fill="#12AAFF"/>
<path d="M99.9846 316.879C100.433 316.879 100.882 317.002 101.282 317.22L170.458 357.161C171.26 357.625 171.755 358.489 171.755 359.401V439.268C171.755 440.196 171.26 441.045 170.458 441.509L101.282 481.45C100.895 481.681 100.433 481.79 99.9846 481.79C99.5365 481.79 99.0879 481.667 98.6873 481.45L29.5119 441.539C28.709 441.076 28.2143 440.211 28.2143 439.299V359.417C28.2143 358.489 28.709 357.64 29.5119 357.176L98.6873 317.235C99.0898 317.004 99.5365 316.879 99.9846 316.879ZM99.9846 305.214C97.5287 305.214 95.0549 305.847 92.8468 307.129L23.6869 347.055C19.2673 349.604 16.549 354.318 16.549 359.415V439.282C16.549 444.381 19.2689 449.093 23.6869 451.642L92.8622 491.583C95.0722 492.85 97.5287 493.499 100 493.499C102.472 493.499 104.93 492.865 107.138 491.583L176.313 451.642C180.733 449.093 183.451 444.379 183.451 439.282V359.415C183.451 354.316 180.731 349.604 176.313 347.055L107.122 307.129C104.913 305.847 102.441 305.214 99.9846 305.214Z" fill="#9DCCED"/>
<path d="M54.2339 469.29L60.5997 451.862L73.4083 462.507L61.4333 473.447L54.2339 469.29Z" fill="#213147"/>
<path d="M94.1594 353.7H76.6229C75.3103 353.7 74.1356 354.518 73.6876 355.756L36.0948 458.814L54.2338 469.29L95.6281 355.802C96.0151 354.782 95.2564 353.7 94.1594 353.7Z" fill="white"/>
<path d="M124.845 353.7H107.309C105.996 353.7 104.821 354.518 104.373 355.756L61.4501 473.432L79.5891 483.908L126.314 355.802C126.685 354.782 125.927 353.7 124.845 353.7Z" fill="white"/>
<circle cx="100" cy="400" r="97.5" stroke="black" stroke-width="5"/>
<defs>
<clipPath id="clip0_1267_2131">
<rect width="500" height="500" fill="white"/>
</clipPath>
<clipPath id="clip1_1267_2131">
<rect width="200" height="200" fill="white" transform="translate(299.6 299.6)"/>
</clipPath>
</defs>
</svg>
