<svg width="500" height="500" viewBox="0 0 500 500" fill="none" xmlns="http://www.w3.org/2000/svg">
<mask id="mask0_1208_1568" style="mask-type:alpha" maskUnits="userSpaceOnUse" x="0" y="0" width="500" height="500">
<rect width="500" height="500" fill="#D9D9D9"/>
</mask>
<g mask="url(#mask0_1208_1568)">
<g clip-path="url(#clip0_1208_1568)">
<path d="M250 500C388.071 500 500 388.071 500 250C500 111.929 388.071 0 250 0C111.929 0 0 111.929 0 250C0 388.071 111.929 500 250 500Z" fill="#009393"/>
<path fill-rule="evenodd" clip-rule="evenodd" d="M250.306 267.869C293.3 267.869 329.231 260.6 338.012 250.888C330.556 242.65 303.587 236.162 269.337 234.387V254.906C263.206 255.225 256.831 255.381 250.3 255.381C243.769 255.381 237.394 255.225 231.25 254.906V234.387C197.012 236.162 170.031 242.65 162.575 250.888C171.369 260.6 207.306 267.869 250.3 267.869H250.306ZM326.694 171.288V199.544H269.337V219.138C309.625 221.231 339.856 229.844 340.081 240.15V261.638C339.856 271.944 309.625 280.538 269.337 282.638V330.725H231.256V282.638C190.969 280.544 160.75 271.944 160.525 261.638V240.15C160.75 229.844 190.969 221.231 231.256 219.138V199.544H173.9V171.288H326.7H326.694ZM151.344 126.319H352.694C357.506 126.319 361.937 128.85 364.337 132.963L422.994 233.688C426.031 238.913 425.131 245.506 420.794 249.737L259.331 407.35C254.094 412.456 245.681 412.456 240.456 407.35L79.1936 249.95C74.7624 245.613 73.9249 238.831 77.1936 233.581L139.9 132.65C142.344 128.725 146.681 126.325 151.35 126.325L151.344 126.319Z" fill="white"/>
</g>
</g>
<circle cx="100" cy="400" r="97.5" fill="black" stroke="black" stroke-width="5"/>
<g clip-path="url(#clip1_1208_1568)">
<path d="M46.974 354.197C47.8434 353.105 48.7646 352.053 49.6858 351.002C49.7271 350.95 49.8205 350.939 49.8618 350.887C49.9448 350.783 50.0795 350.72 50.1621 350.616L50.2451 350.512C50.8873 349.919 51.5705 349.272 52.3584 348.71C55.1458 346.594 58.0385 344.986 61.0888 343.928C70.8723 340.493 81.763 342.61 90.3033 350.673C102.228 361.851 101.16 379.858 91.641 391.827C79.6118 409.669 58.9394 434.562 87.5621 456.861C92.7085 460.871 96.5263 464.176 112.737 468.861C102.135 470.814 92.3043 470.207 81.3618 467.412C73.6219 463.043 61.4531 453.689 57.313 441.055C51.0557 421.897 68.3296 393.256 76.6778 382.226C88.1396 366.96 69.5934 350.434 55.9392 368.883C48.802 378.498 36.3154 405.706 40.6547 425.888C43.1919 437.333 46.5736 445.675 59.9821 457.134C57.4957 455.667 55.081 454.003 52.7388 452.141C21.585 423.121 25.1993 378.251 46.974 354.197Z" fill="url(#paint0_linear_1208_1568)"/>
<path d="M153.026 445.803C152.157 446.896 151.235 447.947 150.314 448.998C150.273 449.05 150.179 449.061 150.138 449.113C150.055 449.217 149.92 449.28 149.838 449.384L149.755 449.488C149.113 450.082 148.429 450.728 147.642 451.291C144.854 453.407 141.961 455.014 138.911 456.072C129.128 459.507 118.237 457.39 109.697 449.327C97.7718 438.149 98.8396 420.142 108.359 408.174C120.388 390.331 141.061 365.438 112.438 343.139C107.291 339.129 103.474 335.824 87.2627 331.139C97.8649 329.186 107.696 329.793 118.638 332.588C126.378 336.957 138.547 346.311 142.687 358.945C148.944 378.103 131.67 406.744 123.322 417.774C111.86 433.04 130.407 449.566 144.061 431.117C151.198 421.502 163.685 394.294 159.345 374.112C156.808 362.668 153.426 354.325 140.018 342.866C142.504 344.333 144.919 345.997 147.261 347.859C178.415 376.879 174.801 421.749 153.026 445.803Z" fill="url(#paint1_linear_1208_1568)"/>
</g>
<circle cx="100" cy="400" r="97.5" stroke="black" stroke-width="5"/>
<defs>
<linearGradient id="paint0_linear_1208_1568" x1="30" y1="400" x2="170" y2="400" gradientUnits="userSpaceOnUse">
<stop stop-color="#0082FA"/>
<stop offset="1" stop-color="#00F2FE"/>
</linearGradient>
<linearGradient id="paint1_linear_1208_1568" x1="29.9999" y1="400" x2="170" y2="400" gradientUnits="userSpaceOnUse">
<stop stop-color="#0082FA"/>
<stop offset="1" stop-color="#00F2FE"/>
</linearGradient>
<clipPath id="clip0_1208_1568">
<rect width="500" height="500" fill="white"/>
</clipPath>
<clipPath id="clip1_1208_1568">
<rect width="140" height="140" fill="white" transform="translate(30 330)"/>
</clipPath>
</defs>
</svg>
