<svg width="500" height="500" viewBox="0 0 500 500" fill="none" xmlns="http://www.w3.org/2000/svg">
<g clip-path="url(#clip0_1388_2729)">
<mask id="mask0_1388_2729" style="mask-type:alpha" maskUnits="userSpaceOnUse" x="0" y="0" width="500" height="500">
<rect width="500" height="500" fill="#D9D9D9"/>
</mask>
<g mask="url(#mask0_1388_2729)">
<path d="M422.35 77.65C376.3 31.6 315.1 6.25 250 6.25C115.6 6.25 6.25 115.6 6.25 250C6.25 384.4 115.6 493.75 250 493.75C315.1 493.75 376.35 468.4 422.35 422.35C468.4 376.3 493.75 315.1 493.75 250C493.75 184.9 468.45 123.7 422.35 77.65Z" fill="#FCFCFC"/>
<path d="M375.05 187.849H230.25C229.15 187.849 228.15 187.249 227.6 186.199L198.95 133.499C198.8 133.199 198.7 132.849 198.75 132.499C199 130.899 200.25 129.699 201.75 129.699H403.6C405.1 129.699 406.4 130.899 406.6 132.499C406.65 132.849 406.55 133.199 406.4 133.499L377.7 186.199C377.15 187.199 376.15 187.849 375.05 187.849Z" fill="#3054BC"/>
<path d="M154.4 132.85L227.9 257.6C228.45 258.55 228.45 259.7 227.95 260.65L200.7 310C200.55 310.3 200.3 310.5 200.05 310.65C198.7 311.2 197.05 310.65 196.3 309.35L93.8 135.45C93.05 134.15 93.35 132.5 94.5 131.55C94.75 131.35 95.05 131.25 95.4 131.25L151.8 131.35C152.85 131.35 153.85 131.95 154.4 132.85Z" fill="#3054BC"/>
<path d="M222.3 351.998L293.65 225.998C294.2 225.048 295.15 224.448 296.25 224.448L352.6 223.398C352.9 223.398 353.25 223.448 353.5 223.648C354.65 224.548 355 226.248 354.25 227.548L254.8 403.198C254.05 404.498 252.45 405.048 251.05 404.548C250.75 404.448 250.5 404.198 250.35 403.898L222.25 354.998C221.75 354.098 221.75 352.948 222.3 351.998Z" fill="#3054BC"/>
</g>
</g>
<path d="M100 500C155.228 500 200 455.228 200 400C200 344.772 155.228 300 100 300C44.7715 300 0 344.772 0 400C0 455.228 44.7715 500 100 500Z" fill="white"/>
<path d="M168.94 331.06C150.52 312.64 126.04 302.5 100 302.5C46.24 302.5 2.5 346.24 2.5 400C2.5 453.76 46.24 497.5 100 497.5C126.04 497.5 150.54 487.36 168.94 468.94C187.36 450.52 197.5 426.04 197.5 400C197.5 373.96 187.38 349.48 168.94 331.06Z" fill="#FCFCFC"/>
<path d="M150.02 375.139H92.1C91.66 375.139 91.26 374.899 91.04 374.479L79.58 353.399C79.52 353.279 79.48 353.139 79.5 352.999C79.6 352.359 80.1 351.879 80.7 351.879H161.44C162.04 351.879 162.56 352.359 162.64 352.999C162.66 353.139 162.62 353.279 162.56 353.399L151.08 374.479C150.86 374.879 150.46 375.139 150.02 375.139Z" fill="#3054BC"/>
<path d="M61.76 353.14L91.16 403.04C91.38 403.42 91.38 403.88 91.18 404.26L80.28 424C80.22 424.12 80.12 424.2 80.02 424.26C79.48 424.48 78.82 424.26 78.52 423.74L37.52 354.18C37.22 353.66 37.34 353 37.8 352.62C37.9 352.54 38.02 352.5 38.16 352.5L60.72 352.54C61.14 352.54 61.54 352.78 61.76 353.14Z" fill="#3054BC"/>
<path d="M88.92 440.799L117.46 390.399C117.68 390.019 118.06 389.779 118.5 389.779L141.04 389.359C141.16 389.359 141.3 389.379 141.4 389.459C141.86 389.819 142 390.499 141.7 391.019L101.92 461.279C101.62 461.799 100.98 462.019 100.42 461.819C100.3 461.779 100.2 461.679 100.14 461.559L88.9 441.999C88.7 441.639 88.7 441.179 88.92 440.799Z" fill="#3054BC"/>
<circle cx="100" cy="400" r="97.5" stroke="black" stroke-width="5"/>
<defs>
<clipPath id="clip0_1388_2729">
<rect width="500" height="500" rx="250" fill="white"/>
</clipPath>
</defs>
</svg>
