<svg width="500" height="500" viewBox="0 0 500 500" fill="none" xmlns="http://www.w3.org/2000/svg">
<g clip-path="url(#clip0_879_953)">
<circle cx="250" cy="250" r="245" fill="white"/>
<path d="M407.697 104.934L393.969 118.662C426.727 154.487 444.894 201.273 444.894 249.817C444.894 298.361 426.727 345.148 393.969 380.972L407.697 394.701C444.129 355.184 464.355 303.405 464.355 249.657C464.355 195.909 444.129 144.13 407.697 104.613V104.934Z" fill="#5A5564"/>
<path d="M118.982 106.123C154.806 73.3639 201.593 55.1973 250.137 55.1973C298.681 55.1973 345.468 73.3639 381.292 106.123L395.021 92.3942C355.504 55.9627 303.725 35.7363 249.977 35.7363C196.229 35.7363 144.45 55.9627 104.933 92.3942L118.982 106.123Z" fill="#5A5564"/>
<path d="M106.123 381.11C73.403 345.293 55.2603 298.535 55.2603 250.023C55.2603 201.511 73.403 154.753 106.123 118.937L92.3944 105.208C55.963 144.725 35.7366 196.504 35.7366 250.252C35.7366 304 55.963 355.779 92.3944 395.296L106.123 381.11Z" fill="#5A5564"/>
<path d="M381.109 393.785C345.285 426.544 298.498 444.711 249.954 444.711C201.41 444.711 154.624 426.544 118.799 393.785L105.071 407.514C144.587 443.945 196.367 464.172 250.114 464.172C303.862 464.172 355.642 443.945 395.158 407.514L381.109 393.785Z" fill="#5A5564"/>
<path d="M336.674 204.192C333.928 175.545 309.217 165.935 277.961 163.006V123.559H253.798V162.274C247.437 162.274 240.939 162.274 234.487 162.274V123.559H210.507V163.28H161.496V189.136C161.496 189.136 179.343 188.816 179.068 189.136C182.286 188.782 185.516 189.691 188.077 191.672C190.638 193.652 192.33 196.549 192.797 199.753V308.484C192.728 309.614 192.434 310.719 191.931 311.733C191.428 312.747 190.726 313.65 189.868 314.388C189.026 315.14 188.041 315.714 186.972 316.076C185.902 316.438 184.77 316.58 183.645 316.493C183.965 316.767 166.072 316.493 166.072 316.493L161.496 345.369H210.05V385.731H234.212V345.964H253.524V385.548H277.732V345.644C318.552 343.172 347.016 333.105 350.586 294.893C353.469 264.141 339.008 250.412 315.898 244.875C329.947 237.965 338.642 225.151 336.674 204.192ZM302.81 290.134C302.81 320.154 251.373 316.722 234.99 316.722V263.454C251.373 263.5 302.81 258.786 302.81 290.134ZM291.598 215.083C291.598 242.541 248.673 239.2 235.036 239.2V190.784C248.673 190.784 291.598 186.482 291.598 215.083Z" fill="#F09242"/>
<path d="M249.954 500C200.513 499.991 152.184 485.322 111.079 457.848C69.9737 430.375 37.9377 391.329 19.0215 345.65C0.105237 299.97 -4.84174 249.707 4.80603 201.216C14.4538 152.725 38.263 108.184 73.2234 73.2234C108.184 38.263 152.725 14.4538 201.216 4.80603C249.707 -4.84174 299.97 0.105237 345.65 19.0215C391.329 37.9377 430.375 69.9737 457.848 111.079C485.322 152.184 499.991 200.513 500 249.954C500.006 282.792 493.543 315.31 480.979 345.65C468.415 375.989 449.997 403.557 426.777 426.777C403.557 449.997 375.989 468.415 345.65 480.979C315.31 493.543 282.792 500.006 249.954 500ZM249.954 19.4949C204.404 19.5311 159.886 33.0704 122.028 58.4015C84.1705 83.7326 54.6721 119.718 37.2614 161.81C19.8508 203.903 15.3095 250.211 24.2116 294.884C33.1136 339.556 55.0594 380.587 87.275 412.79C119.491 444.993 160.53 466.922 205.206 475.806C249.882 484.691 296.189 480.131 338.274 462.704C380.359 445.276 416.333 415.764 441.65 377.896C466.966 340.028 480.487 295.505 480.505 249.954C480.517 219.679 474.562 189.698 462.978 161.726C451.395 133.754 434.412 108.339 413 86.9357C391.588 65.5319 366.166 48.5588 338.19 36.9868C310.213 25.4148 280.23 19.4708 249.954 19.4949Z" fill="#282138"/>
</g>
<g clip-path="url(#clip1_879_953)">
<mask id="mask0_879_953" style="mask-type:luminance" maskUnits="userSpaceOnUse" x="300" y="300" width="200" height="200">
<path d="M500 300H300V500H500V300Z" fill="white"/>
</mask>
<g mask="url(#mask0_879_953)">
<path d="M500 300H300V500H500V300Z" fill="white"/>
<path d="M847.945 300H300V847.945H847.945V300Z" fill="black"/>
<g opacity="0.4" filter="url(#filter0_f_879_953)">
<path d="M624.715 265.787C792.833 208.422 956.263 241.465 989.748 339.591C1023.23 437.717 914.082 563.767 745.966 621.133C577.848 678.498 414.417 645.456 380.935 547.33C347.452 449.204 456.596 323.153 624.715 265.787Z" fill="#FF2B57"/>
</g>
<g opacity="0.6" filter="url(#filter1_f_879_953)">
<path d="M579.495 232.211C808.906 197.273 1014.95 300.718 1039.7 463.262C1064.46 625.807 898.553 785.899 669.141 820.838C439.73 855.775 233.688 752.332 208.933 589.787C184.178 427.242 350.084 267.15 579.495 232.211Z" fill="#164094"/>
</g>
<path d="M400.274 475.217C380.38 475.205 361.304 467.3 347.231 453.24C333.157 439.179 325.236 420.11 325.206 400.216C325.236 380.321 333.157 361.251 347.23 347.189C361.303 333.126 380.379 325.22 400.274 325.205C420.169 325.22 439.245 333.126 453.318 347.189C467.391 361.251 475.312 380.321 475.343 400.216C475.312 420.11 467.391 439.179 453.318 453.24C439.244 467.3 420.168 475.205 400.274 475.217ZM400.274 330.98C381.91 330.992 364.301 338.289 351.31 351.269C338.319 364.249 331.008 381.852 330.98 400.216C330.998 418.582 338.306 436.19 351.3 449.171C364.293 462.151 381.908 469.443 400.274 469.443C418.641 469.443 436.255 462.151 449.249 449.171C462.242 436.19 469.55 418.582 469.568 400.216C469.54 381.852 462.229 364.249 449.238 351.269C436.247 338.289 418.638 330.992 400.274 330.98Z" fill="white"/>
<path d="M409.765 463.35C393.283 463.337 377.48 456.788 365.82 445.138C354.161 433.488 347.599 417.689 347.574 401.207C347.599 384.725 354.161 368.926 365.82 357.276C377.48 345.626 393.283 339.076 409.765 339.063C426.247 339.076 442.051 345.626 453.71 357.276C465.369 368.926 471.931 384.725 471.957 401.207C471.931 417.689 465.369 433.488 453.71 445.138C442.051 456.788 426.247 463.337 409.765 463.35ZM409.765 343.548C394.474 343.561 379.812 349.639 368.995 360.448C358.179 371.257 352.091 385.915 352.068 401.207C352.094 416.497 358.183 431.153 368.998 441.96C379.815 452.767 394.475 458.843 409.765 458.856C425.055 458.843 439.716 452.767 450.532 441.96C461.348 431.153 467.437 416.497 467.462 401.207C467.437 385.917 461.348 371.261 450.532 360.454C439.716 349.647 425.055 343.571 409.765 343.558V343.548Z" fill="white"/>
<path d="M419.255 451.494C406.186 451.484 393.655 446.29 384.41 437.053C375.165 427.815 369.962 415.287 369.941 402.218C369.962 389.149 375.165 376.622 384.41 367.384C393.655 358.146 406.186 352.953 419.255 352.942C432.326 352.95 444.858 358.143 454.104 367.381C463.349 376.619 468.552 389.148 468.569 402.218C468.549 415.287 463.346 427.815 454.101 437.053C444.856 446.29 432.324 451.484 419.255 451.494ZM419.255 356.147C407.036 356.155 395.317 361.01 386.673 369.647C378.029 378.285 373.164 389.998 373.146 402.218C373.166 414.436 378.032 426.148 386.677 434.783C395.321 443.418 407.037 448.272 419.255 448.28C431.474 448.272 443.19 443.418 451.835 434.783C460.478 426.148 465.345 414.436 465.365 402.218C465.347 389.998 460.482 378.285 451.838 369.647C443.193 361.01 431.476 356.155 419.255 356.147Z" fill="white"/>
<path d="M428.739 439.627C419.082 439.619 409.823 435.782 402.992 428.956C396.161 422.131 392.317 412.875 392.301 403.219C392.314 393.561 396.158 384.302 402.989 377.475C409.82 370.647 419.08 366.808 428.739 366.801C438.397 366.808 447.657 370.647 454.488 377.475C461.319 384.302 465.163 393.561 465.175 403.219C465.16 412.875 461.316 422.131 454.485 428.956C447.654 435.782 438.395 439.619 428.739 439.627ZM428.739 368.726C419.591 368.733 410.82 372.369 404.35 378.836C397.88 385.302 394.239 394.071 394.226 403.219C394.242 412.365 397.883 421.131 404.353 427.595C410.823 434.06 419.593 437.694 428.739 437.702C437.884 437.694 446.654 434.06 453.124 427.595C459.593 421.131 463.236 412.365 463.25 403.219C463.238 394.071 459.598 385.302 453.128 378.836C446.657 372.369 437.886 368.733 428.739 368.726Z" fill="white"/>
</g>
</g>
<circle cx="400" cy="400" r="97.5" stroke="black" stroke-width="5"/>
<defs>
<filter id="filter0_f_879_953" x="-75.1033" y="-212.38" width="1520.89" height="1311.68" filterUnits="userSpaceOnUse" color-interpolation-filters="sRGB">
<feFlood flood-opacity="0" result="BackgroundImageFix"/>
<feBlend mode="normal" in="SourceGraphic" in2="BackgroundImageFix" result="shape"/>
<feGaussianBlur stdDeviation="225" result="effect1_foregroundBlur_879_953"/>
</filter>
<filter id="filter1_f_879_953" x="-543.513" y="-524.573" width="2335.66" height="2102.2" filterUnits="userSpaceOnUse" color-interpolation-filters="sRGB">
<feFlood flood-opacity="0" result="BackgroundImageFix"/>
<feBlend mode="normal" in="SourceGraphic" in2="BackgroundImageFix" result="shape"/>
<feGaussianBlur stdDeviation="375" result="effect1_foregroundBlur_879_953"/>
</filter>
<clipPath id="clip0_879_953">
<rect width="500" height="500" fill="white"/>
</clipPath>
<clipPath id="clip1_879_953">
<rect x="300" y="300" width="200" height="200" rx="100" fill="white"/>
</clipPath>
</defs>
</svg>
