<svg width="400" height="400" viewBox="0 0 400 400" fill="none" xmlns="http://www.w3.org/2000/svg">
<g clip-path="url(#clip0_284_1058)">
<path d="M394.016 248.381C367.301 355.525 258.77 420.73 151.601 394.012C44.4772 367.301 -20.7358 258.775 5.99038 151.639C32.6931 44.4838 141.225 -20.7268 248.36 5.98468C355.521 32.6961 420.73 141.234 394.013 248.383L394.015 248.381H394.016Z" fill="#AFE67F"/>
<path d="M288.201 171.318C292.182 144.699 271.916 130.391 244.205 120.845L253.195 84.7882L231.245 79.319L222.494 114.427C216.724 112.988 210.798 111.632 204.908 110.287L213.723 74.9477L191.788 69.4785L182.793 105.524C178.018 104.437 173.328 103.362 168.778 102.23L168.803 102.117L138.535 94.5583L132.696 118.001C132.696 118.001 148.981 121.734 148.637 121.964C157.526 124.182 159.133 130.066 158.866 134.73L148.626 175.807C149.238 175.963 150.032 176.188 150.908 176.54C150.175 176.358 149.396 176.159 148.588 175.966L134.234 233.51C133.148 236.21 130.391 240.263 124.177 238.724C124.396 239.042 108.224 234.743 108.224 234.743L97.3262 259.867L125.889 266.988C131.203 268.32 136.41 269.715 141.538 271.026L132.456 307.497L154.379 312.966L163.374 276.882C169.363 278.508 175.176 280.008 180.866 281.422L171.902 317.335L193.852 322.804L202.933 286.402C240.361 293.485 268.504 290.629 280.35 256.776C289.895 229.52 279.875 213.798 260.184 203.546C274.526 200.239 285.328 190.806 288.209 171.321L288.202 171.316L288.201 171.318ZM238.052 241.639C231.269 268.895 185.378 254.162 170.5 250.467L182.553 202.149C197.43 205.864 245.141 213.214 238.053 241.639H238.052ZM244.84 170.923C238.652 195.715 200.457 183.12 188.067 180.031L198.994 136.21C211.385 139.298 251.286 145.063 244.842 170.923H244.84Z" fill="#0F2200"/>
</g>
<defs>
<clipPath id="clip0_284_1058">
<rect width="400" height="400" fill="white"/>
</clipPath>
</defs>
</svg>
