<svg width="400" height="400" viewBox="0 0 400 400" fill="none" xmlns="http://www.w3.org/2000/svg">
<rect width="400" height="400" rx="200" fill="#94E360"/>
<rect x="86.2256" y="102" width="228.256" height="48.3863" fill="#0F2200"/>
<g clip-path="url(#clip0_284_1075)">
<path d="M200.18 121.152C237.953 121.152 275.615 121.152 313.389 121.152C318.96 121.152 319.629 121.605 319.629 125.374C319.629 139.696 319.629 153.944 319.629 168.267C319.629 191.334 319.517 214.477 319.74 237.544C319.74 240.861 318.737 243.575 315.506 246.138C310.158 250.434 305.143 254.882 299.906 259.33C291.772 266.265 283.638 273.275 275.504 280.211C273.053 282.321 270.49 284.357 267.927 286.468C262.356 290.915 255.447 290.764 250.099 286.166C241.742 278.854 233.274 271.542 224.917 264.229C219.791 259.707 214.777 255.108 209.763 250.585C203.077 244.554 196.837 244.479 190.04 250.51C181.238 258.274 172.546 266.039 163.744 273.728C158.952 277.949 154.273 282.171 149.481 286.392C144.69 290.614 137.893 290.915 132.656 286.92C127.53 283 122.85 278.778 117.948 274.708C112.711 270.336 107.585 265.888 102.348 261.516C95.4395 255.56 88.4197 249.681 81.6227 243.65C80.6199 242.821 80.2856 241.464 80.2856 240.333C80.1741 219.15 80.1741 197.968 80.1741 176.785C80.1741 159.598 80.1741 142.486 80.1741 125.298C80.1741 121.605 80.7313 121.228 86.1912 121.228C124.299 121.152 162.295 121.152 200.18 121.152ZM200.069 173.167C162.518 173.167 124.967 173.167 87.4168 173.167C86.414 173.167 84.9655 173.393 84.6312 173.845C84.1855 174.297 84.5198 175.353 85.1883 175.88C89.6454 179.876 94.3252 183.72 98.8937 187.716C106.359 194.199 113.713 200.681 121.29 207.089C125.413 210.632 129.536 214.175 133.882 217.567C137.559 220.356 143.798 220.507 147.364 217.718C153.047 213.27 158.395 208.446 163.744 203.772C172.658 195.932 181.349 188.017 190.263 180.177C196.169 174.976 202.631 174.448 208.203 178.82C212.771 182.514 217.005 186.359 221.351 190.203C226.699 194.952 231.936 199.702 237.285 204.375C241.631 208.295 246.199 212.064 250.322 216.06C254.556 220.13 263.024 221.035 267.593 216.587C269.933 214.326 272.83 212.366 275.281 210.18C282.412 203.923 289.432 197.666 296.564 191.485C302.358 186.283 308.486 181.233 314.503 176.031C315.172 175.504 315.506 174.448 315.283 173.845C315.172 173.468 313.5 173.167 312.498 173.167C274.947 173.167 237.508 173.167 200.069 173.167Z" fill="#0F2200"/>
</g>
<defs>
<clipPath id="clip0_284_1075">
<rect width="124.026" height="227.381" fill="white" transform="matrix(0 -1 1 0 84.8193 298.258)"/>
</clipPath>
</defs>
</svg>
