<svg width="801" height="801" viewBox="0 0 801 801" fill="none" xmlns="http://www.w3.org/2000/svg">
<rect x="0.576935" y="0.576904" width="800" height="800" rx="400" fill="white"/>
<path fill-rule="evenodd" clip-rule="evenodd" d="M335.734 187.427C353.081 170.129 376.107 160.577 400.587 160.577C425.067 160.577 448.137 170.085 465.44 187.427C482.743 204.77 492.298 227.747 492.298 252.264C492.298 276.781 482.743 299.802 465.44 317.101L400.587 381.937L335.734 317.101C318.43 299.758 308.876 276.781 308.876 252.264C308.876 227.747 318.386 204.726 335.734 187.427ZM484.101 335.717C519.852 299.975 578.013 299.975 613.764 335.717V335.761C649.515 371.503 649.515 429.649 613.764 465.391C578.013 501.132 519.852 501.132 484.101 465.391L419.247 400.554L484.101 335.717ZM400.587 419.217L335.734 484.053C318.43 501.352 308.876 524.373 308.876 548.89C308.876 573.407 318.43 596.384 335.734 613.727C353.037 631.025 376.063 640.577 400.587 640.577C425.111 640.577 448.093 631.025 465.44 613.727C482.743 596.428 492.298 573.407 492.298 548.89C492.298 524.373 482.743 501.396 465.44 484.053L400.587 419.217ZM187.39 465.391C151.639 429.649 151.639 371.503 187.39 335.761V335.717C223.141 299.975 281.302 299.975 317.053 335.717L381.906 400.554L317.053 465.391C281.302 501.132 223.141 501.132 187.39 465.391Z" fill="url(#paint0_linear_1321_748)"/>
<defs>
<linearGradient id="paint0_linear_1321_748" x1="249.241" y1="304.166" x2="547.346" y2="521.516" gradientUnits="userSpaceOnUse">
<stop stop-color="#FF4E4D"/>
<stop offset="0.5" stop-color="#CD00CD"/>
<stop offset="1" stop-color="#7F00FF"/>
</linearGradient>
</defs>
</svg>
