<?xml version="1.0" standalone="no"?>
<!DOCTYPE svg PUBLIC "-//W3C//DTD SVG 20010904//EN"
 "http://www.w3.org/TR/2001/REC-SVG-20010904/DTD/svg10.dtd">
<svg version="1.0" xmlns="http://www.w3.org/2000/svg"
 width="400.000000pt" height="400.000000pt" viewBox="0 0 400.000000 400.000000"
 preserveAspectRatio="xMidYMid meet">
<metadata>
Created by potrace 1.16, written by Peter Selinger 2001-2019
</metadata>
<g transform="translate(0.000000,400.000000) scale(0.100000,-0.100000)"
fill="#000000" stroke="none">
<path d="M1465 2899 c-65 -9 -150 -41 -209 -81 -77 -50 -139 -132 -254 -333
-60 -104 -151 -262 -202 -350 -184 -318 -198 -346 -214 -427 -20 -95 -20 -114
-1 -203 30 -141 102 -248 219 -324 91 -59 170 -82 282 -82 173 0 327 82 422
224 13 20 28 37 32 37 3 0 21 -22 39 -50 57 -88 163 -163 276 -196 74 -21 211
-22 281 -1 118 35 233 119 295 215 l28 44 17 -29 c64 -101 170 -186 279 -223
82 -29 225 -29 315 -1 157 49 293 192 336 355 18 66 18 197 0 263 -18 66 -47
120 -314 581 -118 205 -234 394 -256 419 -93 106 -226 164 -377 164 -97 0
-159 -15 -246 -59 -56 -29 -145 -112 -184 -173 l-32 -51 -18 34 c-44 86 -153
178 -261 220 -60 24 -179 36 -253 27z m206 -206 c99 -44 167 -133 188 -246 18
-99 3 -144 -137 -386 -68 -119 -136 -237 -151 -263 -14 -26 -28 -48 -31 -48
-3 0 -29 42 -58 93 -30 50 -95 164 -146 252 -103 179 -104 180 -117 249 -11
60 3 150 32 206 21 40 89 109 130 131 82 43 207 49 290 12z m934 -9 c61 -30
114 -84 148 -149 24 -48 34 -171 18 -230 -9 -34 -286 -524 -309 -547 -4 -4
-74 108 -155 249 -172 297 -189 343 -168 445 20 102 84 188 173 234 84 44 205
43 293 -2z m-1518 -526 c16 -29 100 -176 187 -325 l157 -273 -38 -67 c-50 -91
-104 -147 -172 -180 -79 -39 -191 -40 -272 -2 -113 53 -178 149 -186 274 -4
52 0 83 13 121 15 39 273 503 281 504 1 0 14 -24 30 -52z m1918 -57 c30 -51
55 -94 55 -96 0 -2 36 -65 79 -140 44 -75 85 -159 92 -187 34 -143 -42 -298
-180 -365 -47 -23 -69 -28 -136 -28 -136 0 -224 56 -306 196 -36 62 -40 74
-30 96 6 14 66 120 133 236 67 117 145 253 172 304 28 50 54 88 58 84 5 -4 33
-49 63 -100z m-825 -244 l170 -297 -45 -79 c-75 -130 -158 -189 -280 -199 -75
-6 -152 15 -216 57 -47 31 -86 80 -134 167 l-28 51 93 164 c182 321 253 440
261 437 4 -2 85 -137 179 -301z"/>
</g>
</svg>
