<?xml version="1.0" encoding="UTF-8"?>
<svg id="Layer_1" xmlns="http://www.w3.org/2000/svg" version="1.1" xmlns:xlink="http://www.w3.org/1999/xlink" viewBox="0 0 512 512">
  <!-- Generator: Adobe Illustrator 29.0.0, SVG Export Plug-In . SVG Version: 2.1.0 Build 186)  -->
  <defs>
    <style>
      .st0 {
        fill: url(#linear-gradient);
        fill-rule: evenodd;
      }
    </style>
    <linearGradient id="linear-gradient" x1="443.7" y1="403.1" x2="58.5" y2="113.2" gradientTransform="translate(0 -8.3)" gradientUnits="userSpaceOnUse">
      <stop offset="0" stop-color="#4d49c4"/>
      <stop offset=".8" stop-color="#1dafba"/>
      <stop offset=".9" stop-color="#1dba9b"/>
    </linearGradient>
  </defs>
  <path class="st0" d="M470.5,161.1c22.9,0,41.5,18.6,41.5,41.5v87.3c.7,22.9-17.5,42.2-40.4,42.6-22.9.7-41.8-17.5-42.5-40.4v-89.5c0-22.9,18.6-41.5,41.5-41.5h0ZM363.2,218c22.9,0,41.5,18.6,41.5,41.5v148.9c-.7,22.9-19.7,41.1-42.9,40.4-22.2-.7-39.7-18.2-40.4-40.4v-148.9c.4-22.9,19-41.5,41.8-41.5ZM256,47.3c22.9,0,41.5,18.6,41.5,41.5v372.2c-1.4,22.9-21.5,40.4-44.3,38.6-20.7-1.4-37.5-17.9-38.6-38.6V88.8c.4-22.9,18.6-41.5,41.5-41.5h0ZM148.7,12.2c22.9,0,41.5,18.6,41.8,41.5v205.8c-.7,22.9-19.7,41.1-42.9,40.4-22.2-.7-39.7-18.2-40.4-40.4V53.7c0-22.9,18.6-41.5,41.5-41.5ZM41.5,156.8c22.9,0,41.5,18.6,41.5,41.5v104.9c.7,22.9-17.5,42.2-40.4,42.6C19.7,346.5.7,328.6,0,305.7v-107.4C0,175.4,18.6,156.8,41.5,156.8s.2,0,0,0h0Z"/>
</svg>