<svg xmlns="http://www.w3.org/2000/svg" xmlns:xlink="http://www.w3.org/1999/xlink" width="90" zoomAndPan="magnify" viewBox="0 0 90 89.999999" height="89.999999" preserveAspectRatio="xMidYMid meet" version="1.0"><path fill="rgb(0%, 0%, 0%)" d="M 45 0.488281 C 20.417969 0.488281 0.488281 20.417969 0.488281 45 C 0.488281 69.582031 20.417969 89.511719 45 89.511719 C 69.582031 89.511719 89.511719 69.582031 89.511719 45 C 89.511719 20.417969 69.582031 0.488281 45 0.488281 " fill-opacity="1" fill-rule="nonzero"/><path fill="rgb(100%, 100%, 100%)" d="M 44.988281 2.988281 C 21.792969 2.988281 2.988281 21.792969 2.988281 44.988281 C 2.988281 68.183594 21.792969 86.988281 44.988281 86.988281 C 68.183594 86.988281 86.988281 68.183594 86.988281 44.988281 C 86.988281 21.792969 68.183594 2.988281 44.988281 2.988281 " fill-opacity="1" fill-rule="nonzero"/><path fill="rgb(0%, 0%, 0%)" d="M 44.980469 5.292969 C 23.0625 5.292969 5.292969 23.0625 5.292969 44.980469 C 5.292969 66.902344 23.0625 84.671875 44.980469 84.671875 C 66.902344 84.671875 84.671875 66.902344 84.671875 44.980469 C 84.671875 23.0625 66.902344 5.292969 44.980469 5.292969 " fill-opacity="1" fill-rule="nonzero"/><path fill="rgb(100%, 100%, 100%)" d="M 18.25 47.933594 L 13.160156 47.933594 C 12.949219 47.933594 12.777344 47.765625 12.777344 47.554688 L 12.777344 42.464844 C 12.777344 42.253906 12.949219 42.082031 13.160156 42.082031 L 18.25 42.082031 C 18.460938 42.082031 18.628906 42.253906 18.628906 42.464844 L 18.628906 47.554688 C 18.628906 47.765625 18.460938 47.933594 18.25 47.933594 " fill-opacity="1" fill-rule="nonzero"/><path fill="rgb(100%, 100%, 100%)" d="M 34.804688 49.375 L 27.203125 49.375 C 26.890625 49.375 26.632812 49.121094 26.632812 48.808594 L 26.632812 41.207031 C 26.632812 40.890625 26.890625 40.636719 27.203125 40.636719 L 34.804688 40.636719 C 35.117188 40.636719 35.371094 40.890625 35.371094 41.207031 L 35.371094 48.808594 C 35.371094 49.121094 35.117188 49.375 34.804688 49.375 " fill-opacity="1" fill-rule="nonzero"/><path fill="rgb(100%, 100%, 100%)" d="M 54.09375 50.726562 L 44.128906 50.726562 C 43.71875 50.726562 43.382812 50.394531 43.382812 49.984375 L 43.382812 40.015625 C 43.382812 39.605469 43.71875 39.269531 44.128906 39.269531 L 54.09375 39.269531 C 54.503906 39.269531 54.839844 39.605469 54.839844 40.015625 L 54.839844 49.984375 C 54.839844 50.394531 54.503906 50.726562 54.09375 50.726562 " fill-opacity="1" fill-rule="nonzero"/><path fill="rgb(100%, 100%, 100%)" d="M 76.273438 52.164062 L 63.796875 52.164062 C 63.285156 52.164062 62.863281 51.746094 62.863281 51.230469 L 62.863281 38.753906 C 62.863281 38.242188 63.285156 37.820312 63.796875 37.820312 L 76.273438 37.820312 C 76.789062 37.820312 77.207031 38.242188 77.207031 38.753906 L 77.207031 51.230469 C 77.207031 51.746094 76.789062 52.164062 76.273438 52.164062 " fill-opacity="1" fill-rule="nonzero"/></svg>