<?xml version="1.0" encoding="UTF-8"?>
<svg xmlns="http://www.w3.org/2000/svg" xmlns:xlink="http://www.w3.org/1999/xlink" width="80px" height="80px" viewBox="0 0 80 80" version="1.1">
<g id="surface1">
<path style=" stroke:none;fill-rule:nonzero;fill:rgb(94.117647%,50.980392%,49.019608%);fill-opacity:1;" d="M 77.125 40.234375 C 77.125 60.691406 60.578125 77.273438 40.167969 77.273438 C 19.757812 77.273438 3.210938 60.691406 3.210938 40.234375 C 3.210938 19.78125 19.757812 3.199219 40.167969 3.199219 C 60.578125 3.199219 77.125 19.78125 77.125 40.234375 Z M 77.125 40.234375 "/>
<path style=" stroke:none;fill-rule:nonzero;fill:rgb(0%,0%,0%);fill-opacity:1;" d="M 75.671875 40.113281 C 75.671875 59.742188 59.757812 75.65625 40.128906 75.65625 C 20.5 75.65625 4.585938 59.742188 4.585938 40.113281 C 4.585938 20.484375 20.5 4.570312 40.128906 4.570312 C 59.757812 4.570312 75.671875 20.484375 75.671875 40.113281 Z M 75.671875 40.113281 "/>
<path style="fill:none;stroke-width:4.109;stroke-linecap:butt;stroke-linejoin:miter;stroke:rgb(100%,100%,100%);stroke-opacity:1;stroke-miterlimit:4;" d="M 243.64146 164.85043 C 243.64146 226.074085 193.928731 275.709299 132.614643 275.709299 C 71.287635 275.709299 21.574906 226.074085 21.574906 164.85043 C 21.574906 103.613856 71.287635 53.978642 132.614643 53.978642 C 193.928731 53.978642 243.64146 103.613856 243.64146 164.85043 Z M 243.64146 164.85043 " transform="matrix(0.302362,0,0,0.302362,0.00000151181,-9.80157)"/>
<path style=" stroke:none;fill-rule:nonzero;fill:rgb(94.117647%,50.980392%,49.019608%);fill-opacity:1;" d="M 27.152344 55.425781 L 27.152344 47.535156 L 23.738281 48.597656 L 23.738281 44.480469 L 27.152344 43.394531 L 27.152344 25.378906 L 33.625 25.378906 L 42.457031 38.535156 L 47.109375 37.0625 L 47.109375 25.378906 L 53.289062 25.378906 L 53.289062 35.09375 L 57.042969 33.90625 L 57.042969 38.125 L 53.289062 39.316406 L 53.289062 55.425781 L 46.613281 55.425781 L 38.773438 43.863281 L 33.332031 45.585938 L 33.332031 55.425781 Z M 33.332031 41.445312 L 36.457031 40.441406 L 33.332031 35.832031 Z M 47.109375 45.441406 L 47.109375 41.261719 L 44.773438 41.980469 Z M 47.109375 45.441406 "/>
</g>
</svg>
