<svg width="60" height="60" viewBox="0 0 60 60" fill="none" xmlns="http://www.w3.org/2000/svg">
<path d="M30.42 0.17L4.72998 15.09V44.92L30.42 59.83L56.1 44.92V15.09L30.42 0.17ZM48.49 40.5L30.42 51L12.35 40.5V19.5L30.42 9L48.49 19.5V40.5Z" fill="#002D74"/>
<path style="mix-blend-mode:multiply" d="M30.4199 59.83L56.0999 44.92V15.09L30.4199 0.17V9L48.4899 19.5V40.5L30.4199 51V59.83Z" fill="url(#paint0_linear_204_599)"/>
<path style="mix-blend-mode:multiply" d="M30.42 50.99L12.35 40.49V19.51L30.42 9.01V0.17L4.72998 15.09V44.91L30.42 59.83V50.99Z" fill="url(#paint1_linear_204_599)"/>
<path d="M42.4099 36.97L30.4199 43.93L18.4199 36.97V23.04L30.4199 16.07L42.4099 23.04L37.4099 25.94L30.4199 21.87L23.4199 25.94V34.06L30.4199 38.13L37.4099 34.06L42.4099 36.97Z" fill="#002D74"/>
<defs>
<linearGradient id="paint0_linear_204_599" x1="43.2599" y1="59.83" x2="43.2599" y2="30" gradientUnits="userSpaceOnUse">
<stop stop-color="#002D74"/>
<stop offset="1" stop-color="#002D74" stop-opacity="0"/>
</linearGradient>
<linearGradient id="paint1_linear_204_599" x1="17.58" y1="0.17" x2="17.58" y2="30" gradientUnits="userSpaceOnUse">
<stop stop-color="#002D74"/>
<stop offset="1" stop-color="#002D74" stop-opacity="0"/>
</linearGradient>
</defs>
</svg>
