<svg width="200" height="200" viewBox="0 0 200 200" fill="none" xmlns="http://www.w3.org/2000/svg">
<path d="M99.7736 0L14.6348 50.0196V150.019L99.7736 200L184.836 150.019V50.0196L99.7736 0ZM159.648 135.196L99.7736 170.353L39.8797 135.196V64.8039L99.7736 29.6471L159.648 64.8039V135.196Z" fill="white"/>
<path d="M99.7715 200L184.833 150.019V50.0196L99.7715 0V29.6667L159.646 64.8235V135.216L99.7715 170.353V199.98V200Z" fill="white"/>
<path d="M99.6965 0L14.6348 49.9806V149.98L99.6965 200V170.333L39.8219 135.177V64.7844L99.6965 29.6471V0Z" fill="white"/>
<path d="M139.469 123.375L99.7322 146.708L59.957 123.375V76.669L99.7322 53.2969L139.469 76.669L122.934 86.3947L99.7322 72.7478L76.53 86.3947V113.61L99.7322 127.257L122.934 113.61L139.469 123.375Z" fill="white"/>
</svg>
