<svg width="183" height="182" viewBox="0 0 183 182" fill="none" xmlns="http://www.w3.org/2000/svg">
<path d="M160.087 140.134C164.805 140.134 168.629 136.31 168.629 131.592C168.629 126.874 164.805 123.049 160.087 123.049C155.369 123.049 151.545 126.874 151.545 131.592C151.545 136.31 155.369 140.134 160.087 140.134Z" fill="#FFB83B"/>
<path d="M132.932 140.134C137.65 140.134 141.474 136.31 141.474 131.592C141.474 126.874 137.65 123.049 132.932 123.049C128.214 123.049 124.389 126.874 124.389 131.592C124.389 136.31 128.214 140.134 132.932 140.134Z" fill="#FF637B"/>
<path d="M104.912 181.19C109.63 181.19 113.455 177.366 113.455 172.648C113.455 167.93 109.63 164.105 104.912 164.105C100.194 164.105 96.3699 167.93 96.3699 172.648C96.3699 177.366 100.194 181.19 104.912 181.19Z" fill="#FF637B"/>
<path d="M90.9388 160.658C95.6566 160.658 99.4811 156.833 99.4811 152.115C99.4811 147.397 95.6566 143.573 90.9388 143.573C86.221 143.573 82.3965 147.397 82.3965 152.115C82.3965 156.833 86.221 160.658 90.9388 160.658Z" fill="#E82FCE"/>
<path d="M132.859 140.134C137.577 140.134 141.401 136.31 141.401 131.592C141.401 126.874 137.577 123.049 132.859 123.049C128.141 123.049 124.317 126.874 124.317 131.592C124.317 136.31 128.141 140.134 132.859 140.134Z" fill="#FF637B"/>
<path d="M76.9654 140.134C81.6832 140.134 85.5077 136.31 85.5077 131.592C85.5077 126.874 81.6832 123.049 76.9654 123.049C72.2476 123.049 68.4231 126.874 68.4231 131.592C68.4231 136.31 72.2476 140.134 76.9654 140.134Z" fill="#7232CE"/>
<path d="M104.912 140.134C109.63 140.134 113.455 136.31 113.455 131.592C113.455 126.874 109.63 123.049 104.912 123.049C100.194 123.049 96.3699 126.874 96.3699 131.592C96.3699 136.31 100.194 140.134 104.912 140.134Z" fill="#E82FCE"/>
<path d="M49.6646 167.262C54.3824 167.262 58.2069 163.438 58.2069 158.72C58.2069 154.002 54.3824 150.177 49.6646 150.177C44.9468 150.177 41.1223 154.002 41.1223 158.72C41.1223 163.438 44.9468 167.262 49.6646 167.262Z" fill="#FFB83B"/>
<path d="M49.6646 140.116C54.3824 140.116 58.2069 136.291 58.2069 131.574C58.2069 126.856 54.3824 123.031 49.6646 123.031C44.9468 123.031 41.1223 126.856 41.1223 131.574C41.1223 136.291 44.9468 140.116 49.6646 140.116Z" fill="#FF637B"/>
<path d="M8.60867 112.087C13.3265 112.087 17.151 108.263 17.151 103.545C17.151 98.8272 13.3265 95.0026 8.60867 95.0026C3.89087 95.0026 0.0663452 98.8272 0.0663452 103.545C0.0663452 108.263 3.89087 112.087 8.60867 112.087Z" fill="#FF637B"/>
<path d="M29.132 98.123C33.8498 98.123 37.6744 94.2985 37.6744 89.5807C37.6744 84.8629 33.8498 81.0383 29.132 81.0383C24.4142 81.0383 20.5897 84.8629 20.5897 89.5807C20.5897 94.2985 24.4142 98.123 29.132 98.123Z" fill="#E82FCE"/>
<path d="M49.6646 140.034C54.3824 140.034 58.2069 136.21 58.2069 131.492C58.2069 126.774 54.3824 122.949 49.6646 122.949C44.9468 122.949 41.1223 126.774 41.1223 131.492C41.1223 136.21 44.9468 140.034 49.6646 140.034Z" fill="#FF637B"/>
<path d="M49.6646 84.1496C54.3824 84.1496 58.2069 80.3251 58.2069 75.6073C58.2069 70.8895 54.3824 67.0649 49.6646 67.0649C44.9468 67.0649 41.1223 70.8895 41.1223 75.6073C41.1223 80.3251 44.9468 84.1496 49.6646 84.1496Z" fill="#7232CE"/>
<path d="M49.6646 112.087C54.3824 112.087 58.2069 108.263 58.2069 103.545C58.2069 98.8272 54.3824 95.0026 49.6646 95.0026C44.9468 95.0026 41.1223 98.8272 41.1223 103.545C41.1223 108.263 44.9468 112.087 49.6646 112.087Z" fill="#E82FCE"/>
<path d="M22.573 58.1406C27.2908 58.1406 31.1153 54.316 31.1153 49.5982C31.1153 44.8804 27.2908 41.0559 22.573 41.0559C17.8552 41.0559 14.0306 44.8804 14.0306 49.5982C14.0306 54.316 17.8552 58.1406 22.573 58.1406Z" fill="#FFB83B"/>
<path d="M49.7283 58.1406C54.4461 58.1406 58.2706 54.316 58.2706 49.5982C58.2706 44.8804 54.4461 41.0559 49.7283 41.0559C45.0105 41.0559 41.186 44.8804 41.186 49.5982C41.186 54.316 45.0105 58.1406 49.7283 58.1406Z" fill="#FF637B"/>
<path d="M77.7478 17.0846C82.4656 17.0846 86.2901 13.2601 86.2901 8.54232C86.2901 3.82453 82.4656 0 77.7478 0C73.03 0 69.2055 3.82453 69.2055 8.54232C69.2055 13.2601 73.03 17.0846 77.7478 17.0846Z" fill="#FF637B"/>
<path d="M91.7212 37.608C96.4389 37.608 100.263 33.7835 100.263 29.0657C100.263 24.3479 96.4389 20.5234 91.7212 20.5234C87.0034 20.5234 83.1788 24.3479 83.1788 29.0657C83.1788 33.7835 87.0034 37.608 91.7212 37.608Z" fill="#E82FCE"/>
<path d="M49.801 58.1406C54.5188 58.1406 58.3434 54.316 58.3434 49.5982C58.3434 44.8804 54.5188 41.0559 49.801 41.0559C45.0833 41.0559 41.2587 44.8804 41.2587 49.5982C41.2587 54.316 45.0833 58.1406 49.801 58.1406Z" fill="#FF637B"/>
<path d="M105.695 58.1406C110.412 58.1406 114.237 54.316 114.237 49.5982C114.237 44.8804 110.412 41.0559 105.695 41.0559C100.977 41.0559 97.1522 44.8804 97.1522 49.5982C97.1522 54.316 100.977 58.1406 105.695 58.1406Z" fill="#7232CE"/>
<path d="M77.7478 58.1406C82.4656 58.1406 86.2901 54.316 86.2901 49.5982C86.2901 44.8804 82.4656 41.0559 77.7478 41.0559C73.03 41.0559 69.2055 44.8804 69.2055 49.5982C69.2055 54.316 73.03 58.1406 77.7478 58.1406Z" fill="#E82FCE"/>
<path d="M133.005 31.0034C137.722 31.0034 141.547 27.1789 141.547 22.4611C141.547 17.7433 137.722 13.9188 133.005 13.9188C128.287 13.9188 124.462 17.7433 124.462 22.4611C124.462 27.1789 128.287 31.0034 133.005 31.0034Z" fill="#FFB83B"/>
<path d="M133.005 58.1497C137.722 58.1497 141.547 54.3251 141.547 49.6074C141.547 44.8896 137.722 41.065 133.005 41.065C128.287 41.065 124.462 44.8896 124.462 49.6074C124.462 54.3251 128.287 58.1497 133.005 58.1497Z" fill="#FF637B"/>
<path d="M174.051 86.1783C178.769 86.1783 182.594 82.3538 182.594 77.636C182.594 72.9182 178.769 69.0937 174.051 69.0937C169.334 69.0937 165.509 72.9182 165.509 77.636C165.509 82.3538 169.334 86.1783 174.051 86.1783Z" fill="#FF637B"/>
<path d="M153.528 100.152C158.246 100.152 162.07 96.3271 162.07 91.6093C162.07 86.8915 158.246 83.067 153.528 83.067C148.81 83.067 144.986 86.8915 144.986 91.6093C144.986 96.3271 148.81 100.152 153.528 100.152Z" fill="#E82FCE"/>
<path d="M133.005 58.2315C137.722 58.2315 141.547 54.407 141.547 49.6892C141.547 44.9714 137.722 41.1469 133.005 41.1469C128.287 41.1469 124.462 44.9714 124.462 49.6892C124.462 54.407 128.287 58.2315 133.005 58.2315Z" fill="#FF637B"/>
<path d="M133.005 114.125C137.722 114.125 141.547 110.301 141.547 105.583C141.547 100.865 137.722 97.0404 133.005 97.0404C128.287 97.0404 124.462 100.865 124.462 105.583C124.462 110.301 128.287 114.125 133.005 114.125Z" fill="#7232CE"/>
<path d="M133.005 86.1783C137.722 86.1783 141.547 82.3538 141.547 77.636C141.547 72.9182 137.722 69.0937 133.005 69.0937C128.287 69.0937 124.462 72.9182 124.462 77.636C124.462 82.3538 128.287 86.1783 133.005 86.1783Z" fill="#E82FCE"/>
</svg>
