<svg xmlns="http://www.w3.org/2000/svg" xmlns:xlink="http://www.w3.org/1999/xlink" viewBox="0 0 18.36 18.36"><defs><style>.cls-1{fill:none;}.cls-2,.cls-3{fill-rule:evenodd;}.cls-2{fill:url(#Безымянный_градиент);}.cls-3{fill:#fff;stroke:#000;stroke-linecap:round;stroke-linejoin:round;stroke-width:0.29px;}</style><linearGradient id="Безымянный_градиент" x1="13.46" y1="5.81" x2="5.41" y2="13.14" gradientUnits="userSpaceOnUse"><stop offset="0" stop-color="#30bcd0"/><stop offset="1" stop-color="#ca28cc"/></linearGradient></defs><g id="Слой_2" data-name="Слой 2"><g id="Слой_1-2" data-name="Слой 1"><rect class="cls-1" width="18.36" height="18.36"/><path class="cls-2" d="M12.32,17.14V14.32A5.64,5.64,0,0,0,14,12.68,5.63,5.63,0,0,0,14.72,8a5.5,5.5,0,0,0-1-2l1.49-1.48,1.43-.16.82,1.47-1,1.08a.14.14,0,0,0,0,.15,8.06,8.06,0,0,1,.29,1.07.14.14,0,0,0,.09.11l1.39.5,0,1.67-1.37.46a.16.16,0,0,0-.1.11,8.06,8.06,0,0,1-.29,1.07.2.2,0,0,0,0,.15l.95,1.13-.85,1.43-1.45-.29a.16.16,0,0,0-.11,0,7.27,7.27,0,0,1-.78.79.13.13,0,0,0-.05.13l.26,1.46L13,17.71ZM4,16.84l.29-1.41a.15.15,0,0,0-.05-.14,8.3,8.3,0,0,1-.78-.79.16.16,0,0,0-.11-.05l-1.48.26-.82-1.46,1-1.08a.14.14,0,0,0,0-.14A7.8,7.8,0,0,1,1.78,11a.17.17,0,0,0-.09-.11L.3,10.34l0-1.67,1.37-.46a.16.16,0,0,0,.1-.11A8,8,0,0,1,2.07,7a.14.14,0,0,0,0-.14l-1-1.14L2,4.32l1.4.29L4.78,6.06a5.61,5.61,0,0,0-1,2,5.5,5.5,0,0,0-.11,2.39,5.63,5.63,0,0,0,.88,2.22,5.79,5.79,0,0,0,1.65,1.62v2.77l-.72.61Z" transform="translate(-0.07)"/><path d="M2,4.48l1.22.25L4.58,6.07a5.85,5.85,0,0,0-1,2,6,6,0,0,0-.12,2.45,5.73,5.73,0,0,0,.91,2.28A5.81,5.81,0,0,0,6,14.4V17l-.59.5L4.2,16.77l.27-1.31a.29.29,0,0,0-.1-.28,8.11,8.11,0,0,1-.77-.78.3.3,0,0,0-.22-.1h0L2,14.55l-.71-1.28.89-1A.31.31,0,0,0,2.21,12a7.79,7.79,0,0,1-.29-1.05.31.31,0,0,0-.18-.23l-1.3-.46,0-1.46,1.27-.43a.28.28,0,0,0,.19-.22,7.37,7.37,0,0,1,.28-1.05.28.28,0,0,0,0-.29l-.89-1L2,4.48m14.51,0,.72,1.29-.89,1a.32.32,0,0,0-.06.3,6.25,6.25,0,0,1,.28,1,.32.32,0,0,0,.19.22l1.29.46,0,1.47-1.27.42a.3.3,0,0,0-.19.22A7.4,7.4,0,0,1,16.29,12a.31.31,0,0,0,.06.29l.88,1.05-.75,1.26-1.31-.27h-.06a.29.29,0,0,0-.22.11,6.15,6.15,0,0,1-.77.76.3.3,0,0,0-.1.28l.24,1.35L13,17.53l-.52-.46V14.4A5.79,5.79,0,0,0,15,10.46,5.72,5.72,0,0,0,14.87,8a5.59,5.59,0,0,0-1-2l1.33-1.32,1.32-.17M1.88,4.16l-1,1.61L1.94,7a7.05,7.05,0,0,0-.3,1.09L.17,8.56l0,1.88L1.64,11a6.73,6.73,0,0,0,.29,1.09l-1,1.16.92,1.64,1.56-.27a8.63,8.63,0,0,0,.8.8l-.31,1.51,1.61,1,.86-.72V14.24a5.64,5.64,0,0,1-1.68-1.62,5.54,5.54,0,0,1-.75-4.5A5.58,5.58,0,0,1,5,6.05L3.38,4.46l-1.5-.3Zm14.81,0-1.62.2h0L13.49,6a5.53,5.53,0,0,1,1.22,4.42,5.45,5.45,0,0,1-.85,2.19,5.51,5.51,0,0,1-1.69,1.64v3l.78.68L14.59,17l-.28-1.56a7.55,7.55,0,0,0,.8-.8l1.52.31,1-1.62-1-1.21a8.39,8.39,0,0,0,.3-1.09l1.46-.49,0-1.88L16.87,8.1A7.94,7.94,0,0,0,16.58,7l1-1.16-.91-1.64Z" transform="translate(-0.07)"/><path class="cls-3" d="M4,2.14l1.64-.91,1.16,1A8.34,8.34,0,0,1,7.84,2L8.38.47l1.88,0L10.75,2a7.94,7.94,0,0,1,1.09.29l1.21-1,1.62,1-.31,1.52a3,3,0,0,1,.32.3L13.11,5.59a5.15,5.15,0,0,0-.86-.68l-.92-.59V9.84l-1,.59-1,.59-1-.59-1-.59V4.32l-.92.59a5.43,5.43,0,0,0-.92.74L3.82,4.08l.41-.38Z" transform="translate(-0.07)"/></g></g></svg>
