<svg xmlns="http://www.w3.org/2000/svg" xmlns:xlink="http://www.w3.org/1999/xlink" viewBox="0 0 31.01 29.66"><defs><style>.cls-1,.cls-2{fill-rule:evenodd;}.cls-1{fill:url(#Безымянный_градиент);}.cls-2{fill:#fff;}</style><linearGradient id="Безымянный_градиент" x1="22.63" y1="128.31" x2="8.68" y2="141.02" gradientTransform="matrix(1, 0, 0, -1, 0, 150.39)" gradientUnits="userSpaceOnUse"><stop offset="0" stop-color="#30bcd0"/><stop offset="1" stop-color="#ca28cc"/></linearGradient></defs><g id="Слой_2" data-name="Слой 2"><g id="Слой_1-2" data-name="Слой 1"><path class="cls-1" d="M25.42,6.72l2.75-.35,1.55,2.79-1.74,2a13.44,13.44,0,0,1,.5,1.86l2.53.92,0,3.2-2.5.84A14.41,14.41,0,0,1,28,19.8l1.74,2.07-1.64,2.75-2.58-.53a13.53,13.53,0,0,1-1.37,1.36l.47,2.65L21.8,29.66,20.48,28.5V23.44a9.43,9.43,0,0,0,2.87-2.79,9.45,9.45,0,0,0,1.23-7.72,9.56,9.56,0,0,0-1.86-3.54l2.7-2.67ZM8.21,9.5a9.37,9.37,0,0,0-2,7.49,9.41,9.41,0,0,0,4.31,6.45v5L9.09,29.64,6.34,28l.52-2.58A13.53,13.53,0,0,1,5.5,24.05l-2.65.48-1.56-2.8,1.74-2a15,15,0,0,1-.5-1.86L0,17l.05-3.2,2.5-.84a12.94,12.94,0,0,1,.5-1.85L1.31,9,3,6.28l2.56.52Z"/><path class="cls-2" d="M6.48,2.85,9.27,1.29l2,1.75a12.17,12.17,0,0,1,1.86-.5L14,0l3.2.05.84,2.5a12.94,12.94,0,0,1,1.85.5L22,1.31,24.72,3,24.2,5.53c.19.16.37.33.55.51L22.08,8.71A9.63,9.63,0,0,0,20.6,7.56L19,6.56V16L17.3,17l-1.74,1-1.75-1-1.74-1V6.56l-1.56,1A9,9,0,0,0,8.94,8.82L6.26,6.14q.33-.33.69-.63Z"/></g></g></svg>