<svg width="400" height="400" xmlns="http://www.w3.org/2000/svg" fill="none"><defs><linearGradient y2="0.13177" x2="0.27926" y1="0.67422" x1="0.72977" id="paint0_linear_1205_364"><stop stop-color="#30BCD0"/><stop stop-color="#CA28CC" offset="1"/></linearGradient></defs><g><title>Layer 1</title><g id="svg_3"><path id="svg_1" fill="url(#paint0_linear_1205_364)" d="m327.56216,95.10719l35.37994,-4.5102l19.9417,36.08104l-22.38627,25.77201c2.71388,7.8251 4.86384,15.83518 6.43302,23.96838l32.54968,11.85516l0,41.23556l-32.16343,10.69584c-1.6299,8.11915 -3.77818,16.12473 -6.43302,23.96782l22.38627,26.54564l-21.09989,35.43673l-33.19287,-6.70064c-5.48454,6.22275 -11.37277,12.07724 -17.62588,17.52468l6.04677,34.14866l-36.40939,19.71568l-16.98269,-15.07673l0,-64.43088c14.76245,-9.16433 27.36087,-21.43104 36.92439,-35.95229c9.62536,-14.4892 16.03083,-30.88099 18.78351,-48.06495c2.70713,-17.19577 1.69793,-34.7733 -2.95901,-51.54459c-4.65132,-16.73531 -12.80926,-32.286 -23.93015,-45.61701l34.73732,-34.53435l0,-0.51556zm-221.2877,35.82354c-10.87801,13.39623 -18.81274,28.94017 -23.2864,45.61645c-4.43936,16.81852 -5.22873,34.39492 -2.31582,51.54459c2.77685,17.01755 9.18345,33.23617 18.78351,47.54995c9.55058,14.33796 22.05287,26.46412 36.66689,35.56548l0,64.43032l-18.65532,15.72161l-35.37994,-21.13362l6.68996,-33.24629c-6.24299,-5.41539 -12.09017,-11.27213 -17.49713,-17.52468l-34.09362,6.05633l-20.07028,-35.95229l22.51474,-25.77201c-2.78866,-7.84591 -4.93991,-15.90433 -6.4328,-24.09713l-32.67849,-11.72641l0,-41.23556l32.16388,-10.82459c1.56918,-8.1332 3.71898,-16.14272 6.43274,-23.96782l-22.38599,-26.54564l21.0995,-35.43673l32.93588,6.70064l35.50869,34.27741z" clip-rule="evenodd" fill-rule="evenodd"/><path id="svg_2" fill="white" d="m83.88482,45.36628l35.89495,-20.10233l25.73153,22.4218c7.85097,-2.73406 15.89253,-4.88751 24.05834,-6.44303l11.70786,-32.60186l41.16978,0l10.8066,32.21527c8.06799,1.61635 16.01903,3.76879 23.8014,6.44309l26.63166,-22.42186l35.25176,21.26209l-6.68996,33.11737l7.07565,6.57189l-34.35107,34.53491c-5.88148,-5.55089 -12.25434,-10.55416 -19.04101,-14.94798l-20.06989,-12.88629l0,121.00067l-22.38627,12.88629l-22.38571,12.88573l-22.38627,-12.88573l-22.51446,-12.88629l0,-120.35635l-20.07045,12.88629c-7.56423,4.63277 -14.63482,10.03016 -21.09933,16.1073l-33.96538,-34.1481c2.83026,-2.83476 5.78983,-5.54077 8.8776,-8.24677l-6.04733,-34.40611z" clip-rule="evenodd" fill-rule="evenodd"/></g></g></svg>
