<svg xmlns="http://www.w3.org/2000/svg" xmlns:xlink="http://www.w3.org/1999/xlink" width="500" zoomAndPan="magnify" viewBox="0 0 375 374.999991" height="500" preserveAspectRatio="xMidYMid meet" version="1.0"><path fill="#d49380" d="M 25.066406 343.667969 L 25.066406 31.332031 L 79.394531 62.664062 L 79.394531 374.988281 Z M 25.066406 343.667969 " fill-opacity="1" fill-rule="nonzero"/><path fill="#e7c6b6" d="M 79.394531 0 L 25.066406 31.332031 L 79.394531 62.664062 L 133.722656 31.332031 Z M 79.394531 0 " fill-opacity="1" fill-rule="nonzero"/><path fill="#84d6cb" d="M 349.988281 157.730469 L 133.722656 31.332031 L 79.394531 62.664062 L 297.75 186.972656 Z M 349.988281 157.730469 " fill-opacity="1" fill-rule="nonzero"/><path fill="#452e33" d="M 297.75 249.660156 L 79.394531 375 L 79.394531 124.308594 L 135.8125 156.683594 L 135.8125 282.035156 L 297.75 186.984375 Z M 297.75 249.660156 " fill-opacity="1" fill-rule="nonzero"/><path fill="#e7c6b6" d="M 297.75 186.984375 L 244.46875 156.699219 L 135.8125 218.328125 L 135.8125 282.050781 L 297.75 186.996094 Z M 297.75 186.984375 " fill-opacity="1" fill-rule="nonzero"/><path fill="#6a9f97" d="M 349.988281 220.40625 L 349.988281 157.730469 L 297.75 186.972656 L 297.75 249.648438 Z M 349.988281 220.40625 " fill-opacity="1" fill-rule="nonzero"/><path fill="#6a9f97" d="M 79.394531 62.675781 L 244.46875 156.683594 L 189.09375 188.015625 L 79.394531 124.308594 Z M 79.394531 62.675781 " fill-opacity="1" fill-rule="nonzero"/></svg>