<svg width="365" height="365" viewBox="0 0 365 365" fill="none" xmlns="http://www.w3.org/2000/svg">
<g clip-path="url(#clip0_896_356)">
<rect width="365" height="365" fill="white"/>
<rect width="1000" height="1000" fill="black"/>
<g opacity="0.4" filter="url(#filter0_f_896_356)">
<path d="M592.605 -62.4383C899.421 -167.13 1197.68 -106.827 1258.79 72.2528C1319.89 251.333 1120.7 481.375 813.888 586.067C507.072 690.759 208.812 630.456 147.706 451.376C86.6003 272.296 285.788 42.2538 592.605 -62.4383Z" fill="#FF2B57"/>
</g>
<g opacity="0.6" filter="url(#filter1_f_896_356)">
<path d="M510.078 -123.714C928.753 -187.477 1304.78 1.30976 1349.96 297.954C1395.14 594.598 1092.36 886.766 673.683 950.529C255.008 1014.29 -121.019 825.505 -166.197 528.861C-211.375 232.217 91.4035 -59.9508 510.078 -123.714Z" fill="#164094"/>
</g>
<path d="M183 319.772C146.694 319.749 111.879 305.324 86.1955 279.664C60.5116 254.003 46.0558 219.201 46 182.895C46.0558 146.587 60.5108 111.784 86.1942 86.12C111.878 60.4564 146.692 46.0279 183 46C219.308 46.0279 254.122 60.4564 279.806 86.12C305.489 111.784 319.944 146.587 320 182.895C319.944 219.201 305.489 254.003 279.805 279.664C254.121 305.324 219.307 319.749 183 319.772ZM183 56.5385C149.486 56.5617 117.349 69.8784 93.641 93.5668C69.9329 117.255 56.5896 149.381 56.5385 182.895C56.5711 216.413 69.909 248.548 93.6217 272.237C117.334 295.927 149.482 309.234 183 309.234C216.519 309.234 248.666 295.927 272.379 272.237C296.091 248.548 309.429 216.413 309.462 182.895C309.41 149.381 296.067 117.255 272.359 93.5668C248.651 69.8784 216.515 56.5617 183 56.5385V56.5385Z" fill="white"/>
<path d="M200.321 298.115C170.242 298.091 141.4 286.138 120.122 264.877C98.8444 243.616 86.8688 214.783 86.8223 184.703C86.8688 154.624 98.8444 125.791 120.122 104.529C141.4 83.2681 170.242 71.3147 200.321 71.2915C230.401 71.3147 259.243 83.2681 280.521 104.529C301.798 125.791 313.774 154.624 313.821 184.703C313.774 214.783 301.798 243.616 280.521 264.877C259.243 286.138 230.401 298.091 200.321 298.115ZM200.321 79.4764C172.414 79.4997 145.656 90.5913 125.916 110.318C106.176 130.045 95.0664 156.796 95.0246 184.703C95.0711 212.607 106.183 239.354 125.922 259.077C145.662 278.8 172.417 289.889 200.321 289.912C228.226 289.889 254.981 278.8 274.721 259.077C294.46 239.354 305.572 212.607 305.618 184.703C305.572 156.799 294.46 130.052 274.721 110.329C254.981 90.6062 228.226 79.5172 200.321 79.494V79.4764Z" fill="white"/>
<path d="M217.641 276.476C193.79 276.458 170.92 266.979 154.048 250.121C137.176 233.262 127.68 210.399 127.643 186.548C127.68 162.697 137.176 139.834 154.048 122.975C170.92 106.116 193.79 96.6382 217.641 96.6196C241.494 96.6336 264.366 106.11 281.239 122.97C298.112 139.83 307.607 162.695 307.639 186.548C307.602 210.399 298.106 233.262 281.234 250.121C264.362 266.979 241.492 276.458 217.641 276.476V276.476ZM217.641 102.468C195.34 102.482 173.954 111.343 158.178 127.106C142.402 142.869 133.524 164.246 133.491 186.548C133.528 208.846 142.409 230.22 158.185 245.979C173.96 261.738 195.343 270.596 217.641 270.61C239.94 270.596 261.322 261.738 277.098 245.979C292.873 230.22 301.754 208.846 301.791 186.548C301.759 164.246 292.88 142.869 277.104 127.106C261.328 111.343 239.943 102.482 217.641 102.468V102.468Z" fill="white"/>
<path d="M234.948 254.819C217.325 254.805 200.427 247.802 187.961 235.345C175.494 222.889 168.478 205.997 168.45 188.374C168.473 170.748 175.488 153.851 187.955 141.391C200.421 128.931 217.322 121.925 234.948 121.911C252.574 121.925 269.475 128.931 281.941 141.391C294.408 153.851 301.422 170.748 301.445 188.374C301.417 205.997 294.401 222.889 281.935 235.345C269.469 247.802 252.571 254.805 234.948 254.819V254.819ZM234.948 125.424C218.253 125.438 202.247 132.073 190.439 143.875C178.631 155.676 171.986 171.679 171.963 188.374C171.991 205.065 178.637 221.064 190.445 232.861C202.252 244.659 218.257 251.292 234.948 251.306C251.639 251.292 267.643 244.659 279.451 232.861C291.258 221.064 297.905 205.065 297.932 188.374C297.909 171.679 291.266 155.676 279.458 143.875C267.65 132.073 251.642 125.438 234.948 125.424Z" fill="white"/>
</g>
<defs>
<filter id="filter0_f_896_356" x="-313.313" y="-563.844" width="2033.12" height="1651.32" filterUnits="userSpaceOnUse" color-interpolation-filters="sRGB">
<feFlood flood-opacity="0" result="BackgroundImageFix"/>
<feBlend mode="normal" in="SourceGraphic" in2="BackgroundImageFix" result="shape"/>
<feGaussianBlur stdDeviation="225" result="effect1_foregroundBlur_896_356"/>
</filter>
<filter id="filter1_f_896_356" x="-920.662" y="-886.096" width="3025.09" height="2599.01" filterUnits="userSpaceOnUse" color-interpolation-filters="sRGB">
<feFlood flood-opacity="0" result="BackgroundImageFix"/>
<feBlend mode="normal" in="SourceGraphic" in2="BackgroundImageFix" result="shape"/>
<feGaussianBlur stdDeviation="375" result="effect1_foregroundBlur_896_356"/>
</filter>
<clipPath id="clip0_896_356">
<rect width="365" height="365" fill="white"/>
</clipPath>
</defs>
</svg>
