<?xml version="1.0" encoding="UTF-8"?>
<svg width="1080px" height="1080px" viewBox="0 0 1080 1080" version="1.1" xmlns="http://www.w3.org/2000/svg" xmlns:xlink="http://www.w3.org/1999/xlink">
    <title>Band token_blue violet token</title>
    <g id="Band-token_blue-violet-token" stroke="none" stroke-width="1" fill="none" fill-rule="evenodd" transform="translate(0.000000, 0.000000)">
        <circle id="Oval" fill="#4520E6" cx="539" cy="540" r="540"></circle>
        <g id="Logo2-Copy-3" transform="translate(276.000000, 207.000000)" fill="#FFFFFF">
            <path d="M452.329412,452.192481 C452.329412,507.860488 407.894925,553.142857 353.269266,553.142857 L163.341176,553.142857 L360.724929,352 C411.818355,355.964708 452.329412,399.125265 452.329412,452.192481 L452.329412,452.192481 Z M138.211765,339.428571 L138.211765,106.857143 L359.476923,106.857143 C363.256598,106.857143 366.986807,107.064744 370.658824,107.475591 L138.211765,339.428571 Z M497.085422,209.594477 C497.085422,162.688953 474.098168,121.079942 438.837433,95.5101744 L534,0 L477.069872,0.325581395 L401.465224,76.2049419 C387.471283,71.4869186 372.498359,68.9287791 356.940364,68.9287791 L96.6556596,68.9287791 L96.6556596,438.94186 L410.026973,124.424419 C438.250913,142.218023 457.054321,173.744186 457.054321,209.594477 C457.054321,265.002907 412.147136,310.074128 356.940364,310.074128 L348.652324,310.074128 L0,660 L56.605732,660 L124.960698,591.396802 L356.940364,591.396802 C434.214784,591.396802 497.085422,528.297965 497.085422,450.741279 C497.085422,399.59157 469.655096,354.867733 428.876724,330.247093 C469.698541,305.632267 497.085422,260.768895 497.085422,209.594477 L497.085422,209.594477 Z" id="Fill-2"></path>
        </g>
    </g>
</svg>