<svg width="512" height="512" viewBox="0 0 512 512" fill="none" xmlns="http://www.w3.org/2000/svg">
<path d="M386 162C411.405 162 432 141.405 432 116C432 90.5949 411.405 70 386 70C360.595 70 340 90.5949 340 116C340 141.405 360.595 162 386 162Z" fill="url(#paint0_linear_162_35)"/>
<path d="M124.729 354.884C99.3454 353.843 77.9244 373.577 76.884 398.961C75.8437 424.345 95.5779 445.766 120.962 446.806C146.345 447.847 167.766 428.113 168.807 402.729C169.847 377.345 150.113 355.924 124.729 354.884Z" fill="url(#paint1_linear_162_35)"/>
<path d="M262.5 88C283.763 88 301 70.763 301 49.5C301 28.237 283.763 11 262.5 11C241.237 11 224 28.237 224 49.5C224 70.763 241.237 88 262.5 88Z" fill="url(#paint2_linear_162_35)"/>
<path d="M235.622 420.577C214.376 419.707 196.448 436.223 195.577 457.468C194.707 478.713 211.223 496.642 232.468 497.513C253.713 498.383 271.642 481.867 272.513 460.622C273.383 439.376 256.867 421.448 235.622 420.577Z" fill="url(#paint3_linear_162_35)"/>
<path d="M150 123C168.225 123 183 108.225 183 90C183 71.7746 168.225 57 150 57C131.775 57 117 71.7746 117 90C117 108.225 131.775 123 150 123Z" fill="url(#paint4_linear_162_35)"/>
<path d="M349.675 401.352C331.465 400.605 316.098 414.762 315.352 432.973C314.605 451.183 328.762 466.55 346.973 467.296C365.183 468.043 380.55 453.885 381.296 435.675C382.043 417.465 367.885 402.098 349.675 401.352Z" fill="url(#paint5_linear_162_35)"/>
<path d="M103.5 211C119.24 211 132 198.24 132 182.5C132 166.76 119.24 154 103.5 154C87.7599 154 75 166.76 75 182.5C75 198.24 87.7599 211 103.5 211Z" fill="url(#paint6_linear_162_35)"/>
<path d="M408.81 319.167C393.083 318.522 379.811 330.749 379.167 346.476C378.522 362.203 390.749 375.474 406.476 376.119C422.203 376.764 435.474 364.537 436.119 348.81C436.764 333.083 424.537 319.811 408.81 319.167Z" fill="url(#paint7_linear_162_35)"/>
<path d="M124 302C138.359 302 150 290.359 150 276C150 261.641 138.359 250 124 250C109.641 250 98 261.641 98 276C98 290.359 109.641 302 124 302Z" fill="url(#paint8_linear_162_35)"/>
<path d="M398.716 228.272C384.368 227.684 372.261 238.838 371.673 253.185C371.085 267.533 382.239 279.64 396.586 280.228C410.934 280.816 423.041 269.662 423.629 255.315C424.217 240.967 413.063 228.86 398.716 228.272Z" fill="url(#paint9_linear_162_35)"/>
<path d="M175.5 354C187.926 354 198 343.926 198 331.5C198 319.074 187.926 309 175.5 309C163.074 309 153 319.074 153 331.5C153 343.926 163.074 354 175.5 354Z" fill="url(#paint10_linear_162_35)"/>
<path d="M347.389 174.207C334.973 173.698 324.495 183.351 323.986 195.767C323.477 208.183 333.13 218.66 345.546 219.169C357.962 219.678 368.439 210.025 368.948 197.609C369.457 185.193 359.805 174.716 347.389 174.207Z" fill="url(#paint11_linear_162_35)"/>
<path d="M233.5 371C242.613 371 250 363.613 250 354.5C250 345.387 242.613 338 233.5 338C224.387 338 217 345.387 217 354.5C217 363.613 224.387 371 233.5 371Z" fill="url(#paint12_linear_162_35)"/>
<path d="M290.134 154.845C281.029 154.472 273.345 161.55 272.972 170.655C272.599 179.76 279.677 187.444 288.782 187.817C297.887 188.19 305.571 181.112 305.944 172.007C306.317 162.902 299.239 155.218 290.134 154.845Z" fill="url(#paint13_linear_162_35)"/>
<path d="M281 369C288.18 369 294 363.18 294 356C294 348.82 288.18 343 281 343C273.82 343 268 348.82 268 356C268 363.18 273.82 369 281 369Z" fill="url(#paint14_linear_162_35)"/>
<path d="M242.591 154.898C235.418 154.604 229.364 160.181 229.07 167.355C228.776 174.528 234.353 180.582 241.527 180.876C248.7 181.17 254.754 175.593 255.048 168.419C255.342 161.246 249.765 155.192 242.591 154.898Z" fill="url(#paint15_linear_162_35)"/>
<path d="M314.5 356C318.642 356 322 352.642 322 348.5C322 344.358 318.642 341 314.5 341C310.358 341 307 344.358 307 348.5C307 352.642 310.358 356 314.5 356Z" fill="url(#paint16_linear_162_35)"/>
<path d="M208.587 166.515C204.448 166.346 200.956 169.563 200.786 173.702C200.617 177.841 203.834 181.333 207.973 181.503C212.112 181.672 215.604 178.455 215.774 174.316C215.943 170.177 212.726 166.685 208.587 166.515Z" fill="url(#paint17_linear_162_35)"/>
<path d="M339.5 345C343.09 345 346 342.09 346 338.5C346 334.91 343.09 332 339.5 332C335.91 332 333 334.91 333 338.5C333 342.09 335.91 345 339.5 345Z" fill="url(#paint18_linear_162_35)"/>
<path d="M183.158 176.482C179.571 176.335 176.544 179.124 176.397 182.711C176.25 186.298 179.039 189.325 182.626 189.472C186.213 189.619 189.24 186.83 189.387 183.243C189.534 179.656 186.745 176.629 183.158 176.482Z" fill="url(#paint19_linear_162_35)"/>
<defs>
<linearGradient id="paint0_linear_162_35" x1="386" y1="70" x2="386" y2="162" gradientUnits="userSpaceOnUse">
<stop stop-color="#365EAB"/>
<stop offset="1" stop-color="#2AB0C9"/>
</linearGradient>
<linearGradient id="paint1_linear_162_35" x1="120.962" y1="446.806" x2="124.729" y2="354.884" gradientUnits="userSpaceOnUse">
<stop stop-color="#365EAB"/>
<stop offset="1" stop-color="#2AB0C9"/>
</linearGradient>
<linearGradient id="paint2_linear_162_35" x1="262.5" y1="11" x2="262.5" y2="88" gradientUnits="userSpaceOnUse">
<stop stop-color="#365EAB"/>
<stop offset="1" stop-color="#2AB0C9"/>
</linearGradient>
<linearGradient id="paint3_linear_162_35" x1="232.468" y1="497.513" x2="235.622" y2="420.577" gradientUnits="userSpaceOnUse">
<stop stop-color="#365EAB"/>
<stop offset="1" stop-color="#2AB0C9"/>
</linearGradient>
<linearGradient id="paint4_linear_162_35" x1="150" y1="57" x2="150" y2="123" gradientUnits="userSpaceOnUse">
<stop stop-color="#365EAB"/>
<stop offset="1" stop-color="#2AB0C9"/>
</linearGradient>
<linearGradient id="paint5_linear_162_35" x1="346.973" y1="467.296" x2="349.675" y2="401.352" gradientUnits="userSpaceOnUse">
<stop stop-color="#365EAB"/>
<stop offset="1" stop-color="#2AB0C9"/>
</linearGradient>
<linearGradient id="paint6_linear_162_35" x1="103.5" y1="154" x2="103.5" y2="211" gradientUnits="userSpaceOnUse">
<stop stop-color="#365EAB"/>
<stop offset="1" stop-color="#2AB0C9"/>
</linearGradient>
<linearGradient id="paint7_linear_162_35" x1="406.476" y1="376.119" x2="408.81" y2="319.167" gradientUnits="userSpaceOnUse">
<stop stop-color="#365EAB"/>
<stop offset="1" stop-color="#2AB0C9"/>
</linearGradient>
<linearGradient id="paint8_linear_162_35" x1="124" y1="250" x2="124" y2="302" gradientUnits="userSpaceOnUse">
<stop stop-color="#365EAB"/>
<stop offset="1" stop-color="#2AB0C9"/>
</linearGradient>
<linearGradient id="paint9_linear_162_35" x1="396.586" y1="280.228" x2="398.716" y2="228.272" gradientUnits="userSpaceOnUse">
<stop stop-color="#365EAB"/>
<stop offset="1" stop-color="#2AB0C9"/>
</linearGradient>
<linearGradient id="paint10_linear_162_35" x1="175.5" y1="309" x2="175.5" y2="354" gradientUnits="userSpaceOnUse">
<stop stop-color="#365EAB"/>
<stop offset="1" stop-color="#2AB0C9"/>
</linearGradient>
<linearGradient id="paint11_linear_162_35" x1="345.545" y1="219.169" x2="347.388" y2="174.207" gradientUnits="userSpaceOnUse">
<stop stop-color="#365EAB"/>
<stop offset="1" stop-color="#2AB0C9"/>
</linearGradient>
<linearGradient id="paint12_linear_162_35" x1="233.5" y1="338" x2="233.5" y2="371" gradientUnits="userSpaceOnUse">
<stop stop-color="#365EAB"/>
<stop offset="1" stop-color="#2AB0C9"/>
</linearGradient>
<linearGradient id="paint13_linear_162_35" x1="288.782" y1="187.817" x2="290.134" y2="154.845" gradientUnits="userSpaceOnUse">
<stop stop-color="#365EAB"/>
<stop offset="1" stop-color="#2AB0C9"/>
</linearGradient>
<linearGradient id="paint14_linear_162_35" x1="281" y1="343" x2="281" y2="369" gradientUnits="userSpaceOnUse">
<stop stop-color="#365EAB"/>
<stop offset="1" stop-color="#2AB0C9"/>
</linearGradient>
<linearGradient id="paint15_linear_162_35" x1="241.527" y1="180.876" x2="242.591" y2="154.898" gradientUnits="userSpaceOnUse">
<stop stop-color="#365EAB"/>
<stop offset="1" stop-color="#2AB0C9"/>
</linearGradient>
<linearGradient id="paint16_linear_162_35" x1="314.5" y1="341" x2="314.5" y2="356" gradientUnits="userSpaceOnUse">
<stop stop-color="#365EAB"/>
<stop offset="1" stop-color="#2AB0C9"/>
</linearGradient>
<linearGradient id="paint17_linear_162_35" x1="207.973" y1="181.503" x2="208.587" y2="166.515" gradientUnits="userSpaceOnUse">
<stop stop-color="#365EAB"/>
<stop offset="1" stop-color="#2AB0C9"/>
</linearGradient>
<linearGradient id="paint18_linear_162_35" x1="339.5" y1="332" x2="339.5" y2="345" gradientUnits="userSpaceOnUse">
<stop stop-color="#365EAB"/>
<stop offset="1" stop-color="#2AB0C9"/>
</linearGradient>
<linearGradient id="paint19_linear_162_35" x1="182.626" y1="189.472" x2="183.158" y2="176.482" gradientUnits="userSpaceOnUse">
<stop stop-color="#365EAB"/>
<stop offset="1" stop-color="#2AB0C9"/>
</linearGradient>
</defs>
</svg>
