<svg width="100" height="100" viewBox="0 0 100 100" fill="none" xmlns="http://www.w3.org/2000/svg">
<path d="M49.992 5.164C49.752 4.46 51.124 4.752 51.26 5.148C52.876 7.452 55.04 9.324 56.524 11.728C56.592 11.812 56.728 11.984 56.792 12.072C56.876 12.156 57.044 12.328 57.128 12.412C57.2 12.488 57.336 12.64 57.408 12.716C57.804 13.168 58.232 13.6 58.536 14.124C58.6 14.208 58.732 14.38 58.796 14.468C58.876 14.556 59.04 14.728 59.124 14.816C59.196 14.892 59.336 15.044 59.404 15.12C59.928 15.704 60.508 16.248 60.924 16.916C60.984 16.996 61.1 17.156 61.16 17.236C61.224 17.312 61.352 17.46 61.416 17.532C61.932 18.116 62.524 18.652 62.936 19.324C63 19.408 63.132 19.58 63.196 19.668C63.28 19.752 63.444 19.928 63.528 20.012C63.6 20.088 63.736 20.24 63.808 20.316C64.204 20.768 64.632 21.2 64.936 21.724C65 21.808 65.132 21.98 65.196 22.068C65.276 22.156 65.44 22.328 65.524 22.416C65.596 22.492 65.736 22.644 65.804 22.72C66.328 23.304 66.908 23.848 67.324 24.516C67.384 24.596 67.5 24.756 67.56 24.836C67.624 24.912 67.752 25.06 67.816 25.132C68.332 25.716 68.92 26.252 69.336 26.924C69.4 27.008 69.532 27.18 69.596 27.268C69.68 27.352 69.844 27.528 69.928 27.612C70 27.688 70.136 27.84 70.208 27.916C70.604 28.368 71.032 28.8 71.336 29.324C71.4 29.408 71.532 29.58 71.596 29.668C71.676 29.756 71.84 29.928 71.924 30.016C71.996 30.092 72.136 30.244 72.204 30.32C72.728 30.904 73.308 31.448 73.724 32.116C73.784 32.196 73.9 32.356 73.96 32.436C74.024 32.512 74.152 32.656 74.216 32.732C74.732 33.316 75.32 33.852 75.736 34.52C75.8 34.604 75.928 34.772 75.996 34.86C76.08 34.94 76.256 35.108 76.344 35.192L76.368 35.472C76.088 35.516 75.536 35.612 75.256 35.66C74.58 35.608 73.904 35.548 73.228 35.468C72.604 35.412 71.356 35.296 70.732 35.24L70.448 35.308C69.772 35.232 69.1 35.172 68.424 35.1C67.836 34.612 67.028 34.672 66.34 34.876L66.052 34.932C65.38 34.848 64.704 34.78 64.032 34.704C63.472 34.152 62.648 34.288 61.968 34.48C61.188 34.424 60.408 34.376 59.632 34.316C59.084 33.744 58.248 33.892 57.568 34.08C56.788 34.024 56.008 33.98 55.232 33.928C54.808 33.428 54.108 33.48 53.544 33.656L53.24 33.7C52.56 33.644 51.876 33.604 51.192 33.572C50.984 33.488 50.568 33.312 50.36 33.224C50.416 29.064 50.412 24.904 50.392 20.744C50.576 15.54 49.756 10.372 49.992 5.164Z" fill="#9E60BF"/>
<path d="M24.66 35.328C33.004 25.228 41.476 15.044 49.992 5.164C49.756 10.372 50.576 15.54 50.392 20.744C50.132 20.784 49.604 20.872 49.344 20.912C48.924 23.736 46.432 25.392 43.976 26.384C41.532 27.436 38.796 28.1 36.852 30.036C34.784 31.728 32.104 32.816 30.408 34.876C28.508 34.948 26.544 35.744 24.66 35.328Z" fill="#8049A1"/>
<path d="M53.24 33.7L53.544 33.656L53.584 33.888C53.5 33.84 53.328 33.748 53.24 33.7Z" fill="#8049A1"/>
<path d="M66.052 34.932L66.34 34.876L66.38 35.072C66.3 35.036 66.132 34.968 66.052 34.932Z" fill="#8049A1"/>
<path d="M70.448 35.308L70.732 35.24L70.768 35.46C70.688 35.42 70.528 35.344 70.448 35.308Z" fill="#8049A1"/>
<path d="M49.344 20.912C49.604 20.872 50.132 20.784 50.392 20.744C50.412 24.904 50.416 29.064 50.36 33.224L50.044 33.252C49.316 33.284 47.856 33.352 47.128 33.384C47.064 33.388 46.936 33.4 46.872 33.404C45.488 33.524 44.108 33.576 42.732 33.768C42.668 33.776 42.536 33.792 42.472 33.8C41.224 33.94 39.976 34 38.732 34.172C38.668 34.18 38.536 34.196 38.468 34.204C35.776 34.344 33.104 34.736 30.408 34.876C32.104 32.816 34.784 31.728 36.852 30.036C38.796 28.1 41.532 27.436 43.976 26.384C46.432 25.392 48.924 23.736 49.344 20.912Z" fill="#8554A5"/>
<path d="M50.36 33.224C50.568 33.312 50.984 33.488 51.192 33.572C50.996 33.556 50.604 33.52 50.408 33.504L50.36 33.224Z" fill="#8554A5"/>
<path d="M53.5439 33.656C54.1079 33.48 54.8079 33.428 55.2319 33.928C54.6679 34.112 54.1199 34.096 53.5839 33.888L53.5439 33.656Z" fill="#8554A5"/>
<path d="M57.568 34.08C58.248 33.892 59.084 33.744 59.632 34.316C58.952 34.508 58.112 34.656 57.568 34.08Z" fill="#8554A5"/>
<path d="M61.968 34.48C62.648 34.288 63.472 34.152 64.032 34.704C63.352 34.912 62.512 35.064 61.968 34.48Z" fill="#8554A5"/>
<path d="M66.34 34.876C67.028 34.672 67.836 34.612 68.424 35.1C67.76 35.244 67.02 35.404 66.38 35.072L66.34 34.876Z" fill="#8554A5"/>
<path d="M70.7319 35.24C71.3559 35.296 72.6039 35.412 73.2279 35.468C72.4439 35.748 71.5279 35.9 70.7679 35.46L70.7319 35.24Z" fill="#8554A5"/>
<path d="M75.2559 35.66C75.5359 35.612 76.0879 35.516 76.3679 35.472L76.6239 35.54C76.7919 36.224 75.6119 36.184 75.2479 35.904L75.2559 35.66Z" fill="#8554A5"/>
<path opacity="0.97" d="M47.128 33.384C47.856 33.352 49.316 33.284 50.044 33.252C50.136 33.316 50.316 33.44 50.408 33.504C50.604 33.52 50.996 33.556 51.192 33.572C51.876 33.604 52.56 33.644 53.24 33.7C53.328 33.748 53.5 33.84 53.584 33.888C54.12 34.096 54.668 34.112 55.232 33.928C56.008 33.98 56.788 34.024 57.568 34.08C58.112 34.656 58.952 34.508 59.632 34.316C60.408 34.376 61.188 34.424 61.968 34.48C62.512 35.064 63.352 34.912 64.032 34.704C64.704 34.78 65.38 34.848 66.052 34.932C66.132 34.968 66.3 35.036 66.38 35.072C67.02 35.404 67.76 35.244 68.424 35.1C69.1 35.172 69.772 35.232 70.448 35.308C70.528 35.344 70.688 35.42 70.768 35.46C71.528 35.9 72.444 35.748 73.228 35.468C73.904 35.548 74.58 35.608 75.256 35.66L75.248 35.904C66.848 36.668 58.416 37.06 50 37.62C41.48 37.14 32.956 36.472 24.428 35.948C24.488 35.796 24.6 35.484 24.66 35.328C26.544 35.744 28.508 34.948 30.408 34.876C33.104 34.736 35.776 34.344 38.468 34.204C38.536 34.196 38.668 34.18 38.732 34.172C39.976 34 41.224 33.94 42.472 33.8C42.536 33.792 42.668 33.776 42.732 33.768C44.108 33.576 45.488 33.524 46.872 33.404C46.936 33.4 47.064 33.388 47.128 33.384Z" fill="#5E3B57"/>
<path opacity="0.97" d="M50.0439 33.252L50.3599 33.224L50.4079 33.504C50.3159 33.44 50.1359 33.316 50.0439 33.252Z" fill="#695C58"/>
<path d="M76.344 35.192C76.412 35.276 76.552 35.452 76.624 35.54L76.368 35.472L76.344 35.192Z" fill="#5A5159"/>
<path opacity="0.68" d="M46 38.396C46.336 37.516 48.212 38.18 49.16 38.024L49.228 38.392C48.148 38.396 47.072 38.4 46 38.396Z" fill="#3F9C81"/>
<path d="M49.16 38.024C49.356 38.024 49.744 38.024 49.94 38.024C50.328 41.624 52.3 44.7 53.644 47.984C54.352 49.604 55.164 51.184 56.136 52.664C56.548 53.752 58.032 53.168 58.78 52.656C60.488 53.004 60.196 55.156 60.348 56.48C60.092 55.896 59.856 55.304 59.592 54.728C59 54.036 57.644 54.972 56.76 54.892C56.38 54.436 56.008 53.976 55.604 53.548C55.192 52.776 54.796 52 54.404 51.224C53.924 49.988 53.412 48.768 52.876 47.556C52.668 46.892 52.224 46.34 51.668 45.928C51.592 46.516 51.524 47.104 51.468 47.696C51.244 46.864 51.04 46.024 50.716 45.228C48.936 45.144 47.7 46.696 46.3 47.552C46.912 46.216 48.104 45.308 49.244 44.44C50.784 43.488 49.952 40.944 49.72 39.496C49.564 39.124 49.4 38.756 49.228 38.392L49.16 38.024Z" fill="#C1FA63"/>
<path d="M49.9399 38.024C50.7679 37.996 51.6279 37.896 52.4319 38.16L52.4959 38.388C52.5919 38.724 52.6839 39.06 52.7759 39.4C52.4679 40.036 52.9439 40.644 53.1319 41.244C53.9479 43.016 54.5319 45.052 56.1159 46.332C57.6759 47.44 58.8559 44.548 60.0999 45.5C60.3159 47.628 60.5639 49.78 60.3479 51.92C59.8199 52.16 59.2559 52.32 58.7799 52.656C58.0319 53.168 56.5479 53.752 56.1359 52.664C55.1639 51.184 54.3519 49.604 53.6439 47.984C52.2999 44.7 50.3279 41.624 49.9399 38.024Z" fill="#F4F358"/>
<path opacity="0.67" d="M52.432 38.16C53.168 37.86 54.736 37.612 55.136 38.38C54.476 38.38 53.156 38.384 52.496 38.388L52.432 38.16Z" fill="#9A3A89"/>
<path d="M39.276 38.872C41.456 38.248 43.752 38.412 46 38.396C47.072 38.4 48.148 38.396 49.228 38.392C49.4 38.756 49.564 39.124 49.72 39.496C49.68 41.152 49.676 42.832 49.244 44.44C48.104 45.308 46.912 46.216 46.3 47.552C45.48 49.124 45.3 50.964 45.096 52.708C44.952 53.768 44.82 54.844 44.704 55.908C44.292 58.376 44.44 60.88 44.336 63.368L44.04 63.384C43.816 63.34 43.376 63.256 43.156 63.212C42.716 60.924 42.68 58.564 42.14 56.296C42.084 56.048 41.976 55.556 41.92 55.308C41.676 53.412 42.048 50.84 40.664 49.352C39.304 49.612 37.832 48.656 37.92 47.248C37.972 46.46 38.02 45.672 38.076 44.884C38.412 42.864 39 40.9 39.276 38.872Z" fill="#6CF9E2"/>
<path d="M52.496 38.388C53.156 38.384 54.476 38.38 55.136 38.38C55.468 38.392 56.128 38.416 56.46 38.424C56.016 38.94 55.52 39.424 55.156 40.004C56.184 42.184 58.812 41.356 60.736 41.216C61.364 42.04 61.564 43.08 61.952 44.02C61.964 44.716 61.996 46.108 62.008 46.804H61.608L61.2 46.792C61.192 46.516 61.172 45.96 61.164 45.684C61.352 44.436 60.836 43.272 59.932 42.432C59.132 42.748 58.504 43.344 57.828 43.852C56.224 44.608 55.456 43.068 54.324 42.436C53.72 41.468 53.392 40.36 52.776 39.4C52.684 39.06 52.592 38.724 52.496 38.388Z" fill="#FA5BD7"/>
<path d="M56.46 38.424C60.016 38.368 63.556 38.928 67.112 38.88C67.228 38.964 67.46 39.136 67.576 39.22C67.036 41.368 66.536 43.568 65.472 45.532C63.844 46.204 63.072 44.7 61.952 44.02C61.564 43.08 61.364 42.04 60.736 41.216C58.812 41.356 56.184 42.184 55.156 40.004C55.52 39.424 56.016 38.94 56.46 38.424Z" fill="#F844F2"/>
<path opacity="0.67" d="M33.2679 39.132C33.7479 38.472 35.1879 38.72 35.9559 38.924L35.9519 39.152C35.7799 39.184 35.4399 39.244 35.2719 39.272C34.6039 39.224 33.9359 39.184 33.2679 39.132Z" fill="#993380"/>
<path d="M35.956 38.924L36.368 38.808C36.372 40.968 36.528 43.152 36.084 45.284C36.036 43.24 36.02 41.196 35.952 39.152L35.956 38.924Z" fill="#F6908E"/>
<path d="M36.368 38.808C37.2 38.768 38.036 38.776 38.868 38.832C38.564 40.392 38.116 41.928 37.896 43.508C37.732 44.564 37.616 45.636 37.5 46.704C37.324 48.036 37.192 49.38 37.068 50.72C36.888 52.236 36.808 53.76 36.816 55.288C36.076 56.716 35.656 58.284 34.88 59.692C34.832 58.864 34.776 58.036 34.772 57.208C35.008 56.148 35.16 55.084 35.204 54.004C35.4 52.916 35.58 51.832 35.564 50.728C35.584 50.564 35.628 50.24 35.648 50.076C35.9 48.832 36.02 47.576 35.94 46.312C35.976 46.056 36.048 45.544 36.084 45.284C36.528 43.152 36.372 40.968 36.368 38.808Z" fill="#F1EF68"/>
<path d="M38.868 38.832L39.276 38.872C39 40.9 38.412 42.864 38.076 44.884C38.032 44.54 37.944 43.852 37.896 43.508C38.116 41.928 38.564 40.392 38.868 38.832Z" fill="#88F88E"/>
<path d="M24.016 39.636C25.68 39.896 27.252 39.392 28.864 39.204C28.784 39.988 28.608 40.764 28.34 41.504C27.908 42.584 27.56 43.724 27.676 44.9C26.516 46.724 26.276 49.66 24.036 50.5C24.012 48.996 24.012 47.5 23.992 46C23.98 43.88 23.988 41.756 24.016 39.636Z" fill="#F933E9"/>
<path d="M28.864 39.204C30.06 39.164 31.264 39.176 32.46 39.224C31.58 40.128 30.94 41.216 30.372 42.336C29.348 43.768 28.632 45.492 28.844 47.288C28.496 49.256 28.16 51.236 27.92 53.22L27.62 53.2C27.652 51.452 27.84 49.72 27.984 47.98C27.724 48.012 27.212 48.08 26.956 48.112C26.24 49.476 25.416 50.896 24.024 51.668C24.028 51.376 24.036 50.792 24.036 50.5C26.276 49.66 26.516 46.724 27.676 44.9C28.252 43.856 28.496 42.692 28.34 41.504C28.608 40.764 28.784 39.988 28.864 39.204Z" fill="#F8A468"/>
<path d="M32.46 39.224C32.664 39.204 33.068 39.156 33.268 39.132C33.936 39.184 34.604 39.224 35.272 39.272C34.456 43.624 33.08 47.92 33.18 52.396C33.076 55.608 33.344 58.812 33.62 62.008C31.436 61.908 29.276 61.512 27.132 61.096C27.196 60.824 27.328 60.28 27.392 60.008C27.74 59.068 27.788 58.14 27.536 57.224C27.584 56.924 27.688 56.316 27.74 56.016C28.176 55.068 28.236 54.136 27.92 53.22C28.16 51.236 28.496 49.256 28.844 47.288C29.316 45.624 30.172 44.064 30.372 42.336C30.94 41.216 31.58 40.128 32.46 39.224Z" fill="#F94BF4"/>
<path d="M35.272 39.272C35.44 39.244 35.78 39.184 35.952 39.152C36.02 41.196 36.036 43.24 36.084 45.284C36.048 45.544 35.976 46.056 35.94 46.312C35.696 47.552 35.588 48.816 35.648 50.076C35.628 50.24 35.584 50.564 35.564 50.728C35.392 51.808 35.248 52.904 35.204 54.004C35.008 55.06 34.84 56.132 34.772 57.208C34.364 58.772 34.092 60.364 33.96 61.976L33.62 62.008C33.344 58.812 33.076 55.608 33.18 52.396C33.08 47.92 34.456 43.624 35.272 39.272Z" fill="#F863F0"/>
<path d="M67.576 39.22L67.98 39.188C68.16 39.552 68.328 39.924 68.48 40.304C68.464 44.48 69.476 48.608 69.2 52.8C69.396 54.788 68.728 56.968 69.62 58.848C69.628 59.52 69.648 60.872 69.656 61.544C67.692 62.3 65.308 62.024 63.212 62.42C62.936 57.22 63.076 51.92 62.008 46.804C61.996 46.108 61.964 44.716 61.952 44.02C63.072 44.7 63.844 46.204 65.472 45.532C66.536 43.568 67.036 41.368 67.576 39.22Z" fill="#F856F6"/>
<path d="M67.98 39.188C68.64 39.176 69.304 39.176 69.968 39.228C70.244 41.192 70.572 43.148 70.944 45.092C70.908 46.228 70.616 47.42 71.1 48.492C71.152 48.648 71.252 48.956 71.3 49.108C71.344 50.212 70.812 51.52 71.608 52.416C71.628 53.188 71.636 53.956 71.68 54.728C71.612 56.192 71.028 57.548 70.508 58.896C70.3 55.904 70.656 52.844 70.12 49.884C70.08 49.724 70 49.396 69.956 49.232C70.456 48.064 70.36 47.108 69.668 46.36C69.44 44.32 69.224 42.232 68.48 40.304C68.328 39.924 68.16 39.552 67.98 39.188Z" fill="#EBEE7A"/>
<path d="M69.968 39.228C71.356 39.508 73.288 38.608 74.448 39.732C73.424 40.788 72.32 41.764 71.36 42.88C71.748 46.388 71.62 50.344 73.912 53.26C75.312 55.044 75.556 57.392 76.732 59.296C76.756 59.808 76.78 60.32 76.796 60.832L76.424 60.744C76.312 60.572 76.092 60.224 75.98 60.052C75.96 58.86 75.316 57.84 74.856 56.78C74.716 56.392 74.56 56.012 74.392 55.636C74.112 54.548 72.82 54.576 72.172 53.86C71.972 53.38 71.808 52.892 71.608 52.416C71.548 51.304 71.736 50.156 71.3 49.108C71.252 48.956 71.152 48.648 71.1 48.492C71.096 47.352 71.272 46.2 70.944 45.092C70.572 43.148 70.244 41.192 69.968 39.228Z" fill="#6EF5DE"/>
<path d="M49.72 39.496C49.952 40.944 50.784 43.488 49.244 44.44C49.676 42.832 49.68 41.152 49.72 39.496Z" fill="#7BF894"/>
<path d="M53.132 41.244C52.944 40.644 52.468 40.036 52.776 39.4C53.392 40.36 53.72 41.468 54.324 42.436C54.752 43.128 55.608 44.516 56.036 45.212C58.152 46.4 58.496 43.184 60.276 43.66C60.596 44.324 60.86 45.012 61.164 45.684C61.172 45.96 61.192 46.516 61.2 46.792C61.18 47.116 61.136 47.76 61.116 48.084C60.912 47.148 60.896 46.12 60.1 45.5C58.856 44.548 57.676 47.44 56.116 46.332C54.532 45.052 53.948 43.016 53.132 41.244Z" fill="#FAB75F"/>
<path d="M74.448 39.732C74.784 39.68 75.012 39.928 75.132 40.476C75.884 43.24 75.908 46.14 76.7 48.9C76.764 49.664 76.792 50.432 76.812 51.2C76.784 53.896 76.848 56.596 76.732 59.296C75.556 57.392 75.312 55.044 73.912 53.26C71.62 50.344 71.748 46.388 71.36 42.88C72.32 41.764 73.424 40.788 74.448 39.732Z" fill="#67F6F4"/>
<path d="M75.132 40.476C74.864 39.484 75.648 39.516 76.376 39.604C76.4 41.104 76.512 42.6 76.708 44.088C76.732 44.764 76.784 46.116 76.808 46.792C76.784 47.492 76.74 48.196 76.7 48.9C75.908 46.14 75.884 43.24 75.132 40.476Z" fill="#DCED7C"/>
<path d="M76.376 39.604L76.796 39.6L76.804 40.004C76.792 41.364 76.792 42.728 76.708 44.088C76.512 42.6 76.4 41.104 76.376 39.604Z" fill="#F681C0"/>
<path opacity="0.85" d="M76.804 40.004L77.192 40C77.204 42.268 77.256 44.536 77.188 46.804L76.808 46.792C76.784 46.116 76.732 44.764 76.708 44.088C76.792 42.728 76.792 41.364 76.804 40.004Z" fill="#C65BBC"/>
<path d="M68.48 40.304C69.224 42.232 69.44 44.32 69.668 46.36C69.12 47.544 69.216 48.504 69.956 49.232C70 49.396 70.08 49.724 70.12 49.884C70.004 52.872 70 55.86 69.9 58.844L69.62 58.848C68.728 56.968 69.396 54.788 69.2 52.8C69.476 48.608 68.464 44.48 68.48 40.304Z" fill="#F86FE5"/>
<path d="M27.676 44.9C27.56 43.724 27.908 42.584 28.34 41.504C28.496 42.692 28.252 43.856 27.676 44.9Z" fill="#FB4D9E"/>
<path d="M28.8439 47.288C28.6319 45.492 29.3479 43.768 30.3719 42.336C30.1719 44.064 29.3159 45.624 28.8439 47.288Z" fill="#FB52A0"/>
<path d="M54.324 42.436C55.456 43.068 56.224 44.608 57.828 43.852C58.504 43.344 59.132 42.748 59.932 42.432C60.836 43.272 61.352 44.436 61.164 45.684C60.86 45.012 60.596 44.324 60.276 43.66C58.496 43.184 58.152 46.4 56.036 45.212C55.608 44.516 54.752 43.128 54.324 42.436Z" fill="#FA6A95"/>
<path d="M37.5 46.704C37.616 45.636 37.732 44.564 37.896 43.508C37.944 43.852 38.032 44.54 38.076 44.884C38.02 45.672 37.972 46.46 37.92 47.248L37.524 47.116L37.5 46.704Z" fill="#A6F87B"/>
<path d="M46.2999 47.552C47.6999 46.696 48.9359 45.144 50.7159 45.228C51.0399 46.024 51.2439 46.864 51.4679 47.696C51.5799 48.364 51.6799 49.04 51.8519 49.7C51.9719 50.232 52.1039 50.764 52.2479 51.292C52.8559 55.432 53.7839 59.516 54.4759 63.636C54.2559 63.708 53.8199 63.852 53.5999 63.92C52.9199 59.432 52.0439 54.972 51.0199 50.548C50.7239 49.608 50.2799 48.604 49.1999 48.404C46.2199 49.328 46.3199 53.028 45.8639 55.568C45.3279 56.528 45.2679 57.476 45.6759 58.424C45.8079 60.136 45.2239 62.016 45.9599 63.648C45.7599 63.628 45.3599 63.584 45.1599 63.564L45.1199 63.256C45.1599 59.744 45.3359 56.22 45.0959 52.708C45.2999 50.964 45.4799 49.124 46.2999 47.552Z" fill="#EAEF6D"/>
<path d="M70.9439 45.092C71.2719 46.2 71.0959 47.352 71.0999 48.492C70.6159 47.42 70.9079 46.228 70.9439 45.092Z" fill="#A2F59D"/>
<path d="M60.1 45.5C60.896 46.12 60.912 47.148 61.116 48.084C61.14 49.032 61.284 49.956 61.544 50.86L61.616 51.164C61.604 52.68 61.704 54.188 61.916 55.692C61.948 55.96 62.012 56.496 62.044 56.764C61.556 57.908 61.648 58.868 62.316 59.644C62.396 60.572 62.556 61.488 62.788 62.392C63.068 63.232 61.684 62.64 61.244 62.74C61.072 61.164 60.84 59.584 60.372 58.072C60.368 57.54 60.36 57.008 60.348 56.48C60.196 55.156 60.488 53.004 58.78 52.656C59.256 52.32 59.82 52.16 60.348 51.92C60.564 49.78 60.316 47.628 60.1 45.5Z" fill="#ECEC6F"/>
<path opacity="0.04" d="M23.608 46.004L23.992 46C24.012 47.5 24.012 48.996 24.036 50.5C24.036 50.792 24.028 51.376 24.024 51.668C24 53.348 23.992 55.032 24.032 56.72C24.02 57.932 24.004 59.152 24 60.372L23.612 60.404C23.584 55.604 23.584 50.804 23.608 46.004Z" fill="#070603"/>
<path d="M51.668 45.928C52.224 46.34 52.668 46.892 52.876 47.556C51.412 46.524 51.892 48.536 51.852 49.7C51.68 49.04 51.58 48.364 51.468 47.696C51.524 47.104 51.592 46.516 51.668 45.928Z" fill="#A3F968"/>
<path d="M35.648 50.076C35.588 48.816 35.696 47.552 35.94 46.312C36.02 47.576 35.9 48.832 35.648 50.076Z" fill="#F7999D"/>
<path d="M69.668 46.36C70.36 47.108 70.456 48.064 69.956 49.232C69.216 48.504 69.12 47.544 69.668 46.36Z" fill="#F692AE"/>
<path d="M37.068 50.72C37.192 49.38 37.324 48.036 37.5 46.704L37.524 47.116C37.54 47.828 37.572 49.252 37.588 49.964C37.668 50.624 37.452 51.44 38.032 51.928C38.776 51.708 39.468 51.068 40.284 51.268C40.624 51.644 40.924 52.048 41.236 52.448C41.408 53.228 41.54 54.02 41.62 54.816C41.144 54.04 40.832 53.176 40.328 52.416C39.428 52.376 38.568 52.712 37.676 52.776C37.076 52.264 37.2 51.42 37.068 50.72Z" fill="#BDFA65"/>
<path d="M61.2 46.792L61.608 46.804C61.596 48.152 61.58 49.508 61.544 50.86C61.284 49.956 61.14 49.032 61.116 48.084C61.136 47.76 61.18 47.116 61.2 46.792Z" fill="#F89986"/>
<path d="M61.6079 46.804H62.0079C63.0759 51.92 62.9359 57.22 63.2119 62.42L62.7879 62.392C62.5559 61.488 62.3959 60.572 62.3159 59.644C62.8759 58.448 62.7879 57.488 62.0439 56.764C62.0119 56.496 61.9479 55.96 61.9159 55.692C62.0559 54.164 61.9559 52.652 61.6159 51.164L61.5439 50.86C61.5799 49.508 61.5959 48.152 61.6079 46.804Z" fill="#F86EE4"/>
<path opacity="0.88" d="M76.808 46.792L77.188 46.804C77.212 48.264 77.24 49.736 77.184 51.2H76.812C76.792 50.432 76.764 49.664 76.7 48.9C76.74 48.196 76.784 47.492 76.808 46.792Z" fill="#BDC26D"/>
<path d="M37.524 47.116L37.9201 47.248C37.8321 48.656 39.3041 49.612 40.6641 49.352C42.0481 50.84 41.6761 53.412 41.9201 55.308C41.8441 55.188 41.6961 54.94 41.6201 54.816C41.5401 54.02 41.408 53.228 41.236 52.448C41.308 51.476 40.608 50.06 39.468 50.636C38.696 50.972 37.964 50.712 37.588 49.964C37.572 49.252 37.54 47.828 37.524 47.116Z" fill="#79F8AA"/>
<path d="M51.852 49.7C51.892 48.536 51.412 46.524 52.876 47.556C53.412 48.768 53.924 49.988 54.404 51.224C53.784 50.764 53.26 50.088 52.46 49.96C52.404 50.292 52.3 50.96 52.248 51.292C52.104 50.764 51.972 50.232 51.852 49.7Z" fill="#8AF7B0"/>
<path d="M26.956 48.112C27.212 48.08 27.724 48.012 27.984 47.98C27.84 49.72 27.652 51.452 27.62 53.2C27.576 53.372 27.488 53.716 27.444 53.884C27.248 54.984 27.24 56.12 27.24 57.236C27.18 57.528 27.064 58.108 27.004 58.396C26.916 59.036 26.736 60.316 26.648 60.956C25.144 59.948 25.876 57.548 24.032 56.72C23.992 55.032 24 53.348 24.024 51.668C25.416 50.896 26.24 49.476 26.956 48.112Z" fill="#F8EC56"/>
<path d="M45.864 55.568C46.32 53.028 46.22 49.328 49.2 48.404C50.28 48.604 50.724 49.608 51.02 50.548C52.044 54.972 52.92 59.432 53.6 63.92C53.312 63.94 52.728 63.984 52.436 64.004C52.2 60.504 51.536 57.048 50.728 53.644C50.508 52.816 50.048 51.88 49.2 51.576C47.076 52.636 47.056 55.492 46.7 57.504C46.48 59.412 46.024 61.468 46.684 63.34L46.808 63.736C46.596 63.716 46.172 63.672 45.96 63.648C45.224 62.016 45.808 60.136 45.676 58.424C46.308 57.48 46.372 56.528 45.864 55.568Z" fill="#F58EDB"/>
<path d="M71.3 49.108C71.736 50.156 71.548 51.304 71.608 52.416C70.812 51.52 71.344 50.212 71.3 49.108Z" fill="#9CF79A"/>
<path d="M37.588 49.964C37.964 50.712 38.696 50.972 39.468 50.636C40.608 50.06 41.308 51.476 41.236 52.448C40.924 52.048 40.624 51.644 40.284 51.268C39.468 51.068 38.776 51.708 38.032 51.928C37.452 51.44 37.668 50.624 37.588 49.964Z" fill="#8BF974"/>
<path d="M52.46 49.96C53.26 50.088 53.784 50.764 54.404 51.224C54.796 52 55.192 52.776 55.604 53.548C55.856 55.216 57.24 56.956 59.184 56.44C59.932 56.508 59.992 57.548 60.372 58.072C60.84 59.584 61.072 61.164 61.244 62.74C59.876 62.9 58.516 63.148 57.156 63.344C56.264 63.44 55.368 63.536 54.476 63.636C53.784 59.516 52.856 55.432 52.248 51.292C52.3 50.96 52.404 50.292 52.46 49.96Z" fill="#73F8E5"/>
<path d="M70.12 49.884C70.656 52.844 70.3 55.904 70.508 58.896C70.392 59.496 70.164 60.696 70.052 61.296C70.092 60.476 70.072 59.648 69.9 58.844C70 55.86 70.004 52.872 70.12 49.884Z" fill="#F8B280"/>
<path d="M35.204 54.004C35.248 52.904 35.392 51.808 35.564 50.728C35.58 51.832 35.4 52.916 35.204 54.004Z" fill="#F79898"/>
<path d="M61.616 51.164C61.956 52.652 62.056 54.164 61.916 55.692C61.704 54.188 61.604 52.68 61.616 51.164Z" fill="#F79898"/>
<path d="M36.816 55.288C36.808 53.76 36.888 52.236 37.068 50.72C37.2 51.42 37.076 52.264 37.676 52.776C38.568 52.712 39.428 52.376 40.328 52.416C40.832 53.176 41.144 54.04 41.62 54.816C41.696 54.94 41.844 55.188 41.92 55.308C41.976 55.556 42.084 56.048 42.14 56.296C42.08 57.044 41.964 58.54 41.904 59.288C41.156 57.72 41.356 55.612 39.904 54.456C38.728 54.088 37.996 55.852 36.816 55.288Z" fill="#DDFA5D"/>
<path opacity="0.9" d="M76.8121 51.2H77.1841C77.1961 54.392 77.2601 57.592 77.1801 60.784L76.7961 60.832C76.7801 60.32 76.7561 59.808 76.7321 59.296C76.8481 56.596 76.7841 53.896 76.8121 51.2Z" fill="#4CD8D2"/>
<path d="M46.7 57.504C47.056 55.492 47.076 52.636 49.2 51.576C50.048 51.88 50.508 52.816 50.728 53.644C51.536 57.048 52.2 60.504 52.436 64.004C51.892 64.012 51.348 64.016 50.804 64.008C50.668 62.268 51.084 60.44 50.536 58.748C50.288 57.804 50.236 55.84 48.876 56.04C47.232 58.208 47.856 61.296 47.208 63.816L46.808 63.736L46.684 63.34C46.748 61.392 46.816 59.448 46.7 57.504Z" fill="#EFEF64"/>
<path d="M71.608 52.416C71.808 52.892 71.972 53.38 72.172 53.86C72.82 54.576 74.112 54.548 74.392 55.636C73.564 55.592 72.732 55.536 71.94 55.28C71.876 55.14 71.748 54.864 71.68 54.728C71.636 53.956 71.628 53.188 71.608 52.416Z" fill="#79F8AE"/>
<path d="M44.704 55.908C44.82 54.844 44.952 53.768 45.096 52.708C45.336 56.22 45.16 59.744 45.12 63.256C44.676 60.828 44.832 58.36 44.704 55.908Z" fill="#C8F873"/>
<path d="M27.62 53.2L27.92 53.22C28.236 54.136 28.176 55.068 27.74 56.016C27.584 55.312 27.476 54.6 27.444 53.884C27.488 53.716 27.576 53.372 27.62 53.2Z" fill="#F974A8"/>
<path d="M55.604 53.548C56.008 53.976 56.38 54.436 56.76 54.892C57.372 56.2 58.668 54.952 59.592 54.728C59.856 55.304 60.092 55.896 60.348 56.48C60.36 57.008 60.368 57.54 60.372 58.072C59.992 57.548 59.932 56.508 59.184 56.44C57.24 56.956 55.856 55.216 55.604 53.548Z" fill="#7CF8AE"/>
<path d="M27.24 57.236C27.24 56.12 27.248 54.984 27.444 53.884C27.476 54.6 27.584 55.312 27.74 56.016C27.688 56.316 27.584 56.924 27.536 57.224L27.24 57.236Z" fill="#F9BA73"/>
<path d="M34.772 57.208C34.84 56.132 35.008 55.06 35.204 54.004C35.16 55.084 35.008 56.148 34.772 57.208Z" fill="#F88E99"/>
<path d="M36.816 55.288C37.996 55.852 38.728 54.088 39.904 54.456C41.356 55.612 41.156 57.72 41.904 59.288C42.196 60.436 43.22 62.728 41.64 62.868C41.452 62.844 41.076 62.8 40.888 62.776C40.58 61.66 40.164 60.572 39.56 59.58C37.444 59.196 37.436 62.692 35.212 62.04C34.988 62.028 34.548 61.996 34.324 61.98C34.408 61.196 34.588 60.424 34.88 59.692C35.656 58.284 36.076 56.716 36.816 55.288Z" fill="#F7F450"/>
<path d="M56.76 54.892C57.644 54.972 59 54.036 59.592 54.728C58.668 54.952 57.372 56.2 56.76 54.892Z" fill="#93F972"/>
<path d="M71.68 54.728C71.748 54.864 71.876 55.14 71.94 55.28C71.952 55.472 71.976 55.86 71.988 56.056C71.656 57.764 73.208 57.544 74.316 57.224C74.888 58.156 75.384 59.132 75.98 60.052C76.092 60.224 76.312 60.572 76.424 60.744C74.44 61.46 72.052 61.288 69.936 61.588L70.052 61.296C70.164 60.696 70.392 59.496 70.508 58.896C71.028 57.548 71.612 56.192 71.68 54.728Z" fill="#E5F457"/>
<path d="M71.9399 55.28C72.7319 55.536 73.5639 55.592 74.3919 55.636C74.5599 56.012 74.7159 56.392 74.8559 56.78C74.0639 55.972 72.9719 56.3 71.9879 56.056C71.9759 55.86 71.9519 55.472 71.9399 55.28Z" fill="#82F97B"/>
<path d="M45.676 58.424C45.268 57.476 45.328 56.528 45.864 55.568C46.372 56.528 46.308 57.48 45.676 58.424Z" fill="#F4AAAA"/>
<path d="M44.3359 63.368C44.4399 60.88 44.2919 58.376 44.7039 55.908C44.8319 58.36 44.6759 60.828 45.1199 63.256L45.1599 63.564C44.9559 63.516 44.5439 63.416 44.3359 63.368Z" fill="#83F3BB"/>
<path d="M48.876 56.04C50.236 55.84 50.288 57.804 50.536 58.748C50.42 58.64 50.184 58.424 50.068 58.312C49.948 56.928 48.344 56.904 48.364 58.36C48.056 60.2 47.592 62.236 48.36 64.008C47.972 63.968 47.588 63.904 47.208 63.816C47.856 61.296 47.232 58.208 48.876 56.04Z" fill="#ACF666"/>
<path d="M71.988 56.056C72.972 56.3 74.064 55.972 74.856 56.78C75.316 57.84 75.96 58.86 75.98 60.052C75.384 59.132 74.888 58.156 74.316 57.224C73.208 57.544 71.656 57.764 71.988 56.056Z" fill="#B6F965"/>
<path opacity="0.97" d="M42.14 56.296C42.68 58.564 42.716 60.924 43.156 63.212C42.736 63.052 41.424 63.604 41.64 62.868C43.22 62.728 42.196 60.436 41.904 59.288C41.964 58.54 42.08 57.044 42.14 56.296Z" fill="#A0EF6D"/>
<path opacity="0.98" d="M24.032 56.72C25.876 57.548 25.144 59.948 26.648 60.956L26.872 61.16C26 60.952 24.324 61.168 24 60.372C24.004 59.152 24.02 57.932 24.032 56.72Z" fill="#D8F44A"/>
<path d="M62.044 56.764C62.788 57.488 62.876 58.448 62.316 59.644C61.648 58.868 61.556 57.908 62.044 56.764Z" fill="#F7989D"/>
<path d="M27.24 57.236L27.536 57.224C27.788 58.14 27.74 59.068 27.392 60.008C27.244 59.476 27.116 58.936 27.004 58.396C27.064 58.108 27.18 57.528 27.24 57.236Z" fill="#F874AD"/>
<path d="M33.96 61.976C34.092 60.364 34.364 58.772 34.772 57.208C34.776 58.036 34.832 58.864 34.88 59.692C34.588 60.424 34.408 61.196 34.324 61.98L33.96 61.976Z" fill="#F9808B"/>
<path d="M48.364 58.36C48.344 56.904 49.948 56.928 50.068 58.312C49.504 58.06 48.912 58.064 48.364 58.36Z" fill="#81F89A"/>
<path d="M46.684 63.34C46.024 61.468 46.48 59.412 46.7 57.504C46.816 59.448 46.748 61.392 46.684 63.34Z" fill="#F7BD82"/>
<path d="M48.364 58.36C48.912 58.064 49.504 58.06 50.068 58.312C50.184 58.424 50.42 58.64 50.536 58.748C50.452 60.5 50.408 62.256 50.392 64.008C49.716 64.02 49.036 64.04 48.36 64.008C47.592 62.236 48.056 60.2 48.364 58.36Z" fill="#75F8BE"/>
<path d="M26.6479 60.956C26.7359 60.316 26.9159 59.036 27.0039 58.396C27.1159 58.936 27.2439 59.476 27.3919 60.008C27.3279 60.28 27.196 60.824 27.132 61.096L26.8719 61.16L26.6479 60.956Z" fill="#F7C368"/>
<path d="M50.536 58.748C51.084 60.44 50.668 62.268 50.804 64.008H50.392C50.408 62.256 50.452 60.5 50.536 58.748Z" fill="#9DF96D"/>
<path d="M69.62 58.848L69.9 58.844C70.072 59.648 70.092 60.476 70.052 61.296L69.936 61.588L69.656 61.544C69.648 60.872 69.628 59.52 69.62 58.848Z" fill="#F96DAE"/>
<path d="M35.212 62.04C37.436 62.692 37.444 59.196 39.56 59.58C40.164 60.572 40.58 61.66 40.888 62.776C40.672 62.752 40.24 62.704 40.024 62.68L39.988 62.404C40.084 60.568 38.02 61.172 37.512 62.36C36.936 62.28 35.788 62.12 35.212 62.04Z" fill="#F7D442"/>
<path d="M37.512 62.36C38.02 61.172 40.084 60.568 39.988 62.404C39.524 61.976 38.788 61.824 38.308 62.32C38.108 62.332 37.712 62.348 37.512 62.36Z" fill="#FCA642"/>
<path opacity="0.9" d="M38.308 62.32C38.788 61.824 39.524 61.976 39.988 62.404L40.024 62.68C39.54 63.016 38.44 63.044 38.308 62.32Z" fill="#DB6166"/>
<path d="M44.0401 63.384L44.3361 63.368C44.5441 63.416 44.9561 63.516 45.1601 63.564C45.3601 63.584 45.7601 63.628 45.9601 63.648C46.1721 63.672 46.5961 63.716 46.8081 63.736L47.2081 63.816C47.5881 63.904 47.9721 63.968 48.3601 64.008C49.0361 64.04 49.7161 64.02 50.3921 64.008H50.8041C51.3481 64.016 51.8921 64.012 52.4361 64.004C52.7281 63.984 53.3121 63.94 53.6001 63.92C53.8201 63.852 54.2561 63.708 54.4761 63.636C55.3681 63.536 56.2641 63.44 57.1561 63.344C58.4521 63.392 59.7561 63.572 60.9161 64.168C59.8201 65.028 58.3801 65.216 57.0521 65.416C53.1081 65.684 49.1161 66.408 45.1841 65.628C43.4841 65.36 41.5921 65.432 40.2841 64.144C41.2921 63.2 42.8161 63.82 44.0401 63.384Z" fill="#807697"/>
<path d="M35.932 64.484C37.348 64.232 38.888 63.684 40.284 64.144C41.592 65.432 43.484 65.36 45.184 65.628C49.116 66.408 53.108 65.684 57.052 65.416C58.38 65.216 59.82 65.028 60.916 64.168C64.016 63.944 67.232 64.804 70.392 64.832L70.384 65.18C64.412 65.892 58.468 66.82 52.528 67.756C48.288 68.868 43.88 68.396 39.588 67.968L39.656 68.328C41.82 68.424 43.944 68.928 46 69.6C41.792 69.268 37.624 68.532 33.52 67.58C34.252 66.176 35.864 66.384 37.176 66.024C36.76 65.508 36.336 65.004 35.932 64.484Z" fill="#83609E"/>
<path opacity="0.98" d="M24.408 65.64C28.264 65.512 32.132 64.628 35.932 64.484C36.336 65.004 36.76 65.508 37.176 66.024C35.864 66.384 34.252 66.176 33.52 67.58C32.02 67.652 30.584 67.168 29.132 66.88C27.688 66.68 26.236 66.54 24.788 66.404L24.412 66.36C24.412 66.18 24.408 65.82 24.408 65.64Z" fill="#7F5097"/>
<path d="M52.528 67.756C58.468 66.82 64.412 65.892 70.384 65.18C72.536 65.036 74.652 65.428 76.78 65.652C76.692 65.836 76.516 66.2 76.428 66.384C67.74 67.316 59.224 69.764 50.5 70.352C49.036 69.888 47.528 69.668 46 69.6C43.944 68.928 41.82 68.424 39.656 68.328L39.588 67.968C43.88 68.396 48.288 68.868 52.528 67.756Z" fill="#9464B5"/>
<path d="M24.788 66.404C26.236 66.54 27.688 66.68 29.132 66.88C29.072 67.048 28.96 67.38 28.904 67.548C35.464 69.704 42.232 71.308 49.1 72.1C50.04 72.72 50.18 73.82 50.344 74.876C50.46 82.332 50.388 89.788 50.392 97.248C45.864 92.388 41.704 87.048 37.48 81.88C37.42 81.8 37.3 81.64 37.24 81.564C37.176 81.488 37.048 81.344 36.984 81.268C36.468 80.688 35.888 80.148 35.476 79.484C35.416 79.404 35.3 79.24 35.24 79.16C35.176 79.088 35.048 78.94 34.98 78.868C33.596 77.436 32.36 75.868 31.124 74.316C31.072 74.248 30.972 74.112 30.924 74.044C28.976 71.428 26.384 69.244 24.788 66.404Z" fill="#4A353E"/>
<path d="M50.5 70.352C59.224 69.764 67.74 67.316 76.428 66.384C74.672 68.78 72.74 71.112 70.752 73.3C70.688 73.364 70.56 73.488 70.496 73.548C70.164 74.02 69.788 74.456 69.404 74.884C69.336 74.96 69.196 75.116 69.124 75.192C69.036 75.284 68.856 75.472 68.768 75.564C68.676 75.656 68.492 75.836 68.404 75.928C68.336 76.016 68.204 76.192 68.14 76.28C67.956 76.532 67.588 77.036 67.404 77.288C67.332 77.364 67.196 77.52 67.128 77.596C67.04 77.688 66.86 77.872 66.768 77.964C66.676 78.056 66.492 78.236 66.404 78.328C66.336 78.416 66.204 78.592 66.14 78.68C65.956 78.932 65.588 79.436 65.404 79.688C65.332 79.764 65.196 79.92 65.128 80C65.036 80.092 64.856 80.28 64.764 80.372C64.664 80.472 64.472 80.664 64.376 80.764C64.28 80.856 64.096 81.044 64 81.136C63.924 81.236 63.772 81.44 63.696 81.54L63.44 82.028C63.364 82.12 63.208 82.3 63.132 82.392C63.04 82.488 62.856 82.68 62.764 82.772C62.668 82.872 62.472 83.064 62.376 83.164C62.28 83.256 62.096 83.444 62 83.536C61.924 83.636 61.772 83.84 61.696 83.94L61.44 84.428C61.364 84.516 61.212 84.696 61.136 84.784C61.052 84.872 60.88 85.048 60.796 85.136C60.732 85.22 60.6 85.392 60.536 85.48C60.232 86 59.804 86.432 59.408 86.884C59.336 86.96 59.2 87.112 59.128 87.188C59.044 87.272 58.88 87.448 58.796 87.532C58.732 87.62 58.6 87.792 58.536 87.88C58.232 88.4 57.804 88.832 57.408 89.284C57.336 89.36 57.2 89.512 57.128 89.588C57.044 89.672 56.88 89.848 56.796 89.932C56.732 90.02 56.6 90.192 56.536 90.28C56.232 90.8 55.8 91.232 55.408 91.684C55.336 91.76 55.196 91.916 55.124 91.992C55.036 92.084 54.856 92.272 54.768 92.364C54.676 92.456 54.492 92.636 54.404 92.728C54.336 92.816 54.204 92.992 54.14 93.08C53.956 93.332 53.588 93.836 53.404 94.088C53.332 94.164 53.196 94.32 53.128 94.396C53.04 94.488 52.86 94.672 52.768 94.764C52.676 94.856 52.492 95.036 52.4 95.128C52.336 95.216 52.204 95.392 52.14 95.48C51.956 95.724 51.592 96.216 51.408 96.464C51.344 96.544 51.22 96.708 51.16 96.788C50.164 88.148 51.376 79.372 50.528 70.708L50.5 70.352Z" fill="#7F4D9E"/>
<path d="M29.1321 66.88C30.5841 67.168 32.0201 67.652 33.5201 67.58C37.6241 68.532 41.7921 69.268 46.0001 69.6C47.4401 70.192 48.9561 70.348 50.5001 70.352L50.5281 70.708C50.4681 72.092 50.3881 73.488 50.3441 74.876C50.1801 73.82 50.0401 72.72 49.1001 72.1C42.2321 71.308 35.4641 69.704 28.9041 67.548C28.9601 67.38 29.0721 67.048 29.1321 66.88Z" fill="#503E44"/>
<path d="M46 69.6C47.528 69.668 49.036 69.888 50.5 70.352C48.956 70.348 47.44 70.192 46 69.6Z" fill="#7C5595"/>
<path d="M50.528 70.708C51.376 79.372 50.164 88.148 51.16 96.788L51.208 97.164C51.004 97.184 50.596 97.224 50.392 97.248C50.388 89.788 50.46 82.332 50.344 74.876C50.388 73.488 50.468 72.092 50.528 70.708Z" fill="#592E73"/>
</svg>
