<svg width="500" height="500" viewBox="0 0 500 500" fill="none" xmlns="http://www.w3.org/2000/svg">
<path d="M500 249.961C500 388.022 388.119 500 250 500C111.881 500 0 388.101 0 249.961C0 111.82 111.96 0 250 0C388.04 0 500 111.899 500 249.961Z" fill="#321D47"/>
<path d="M347.857 307.565H294.595L284.589 283.136H216.987L206.981 307.565H153.719L217.46 162.333H284.037L347.857 307.565ZM250.867 200.079L233.218 243.42H268.437L250.867 200.079Z" fill="white"/>
<path d="M250.788 131.521C271.196 131.521 287.74 114.974 287.74 94.5626C287.74 74.1511 271.196 57.6044 250.788 57.6044C230.38 57.6044 213.835 74.1511 213.835 94.5626C213.835 114.974 230.38 131.521 250.788 131.521Z" fill="white"/>
<path d="M250.788 442.79C271.196 442.79 287.74 426.243 287.74 405.831C287.74 385.42 271.196 368.873 250.788 368.873C230.38 368.873 213.835 385.42 213.835 405.831C213.835 426.243 230.38 442.79 250.788 442.79Z" fill="white"/>
<path d="M114.324 205.516C134.732 205.516 151.276 188.969 151.276 168.558C151.276 148.146 134.732 131.6 114.324 131.6C93.9157 131.6 77.3716 148.146 77.3716 168.558C77.3716 188.969 93.9157 205.516 114.324 205.516Z" fill="white"/>
<path d="M387.331 205.516C407.739 205.516 424.283 188.969 424.283 168.558C424.283 148.146 407.739 131.6 387.331 131.6C366.922 131.6 350.378 148.146 350.378 168.558C350.378 188.969 366.922 205.516 387.331 205.516Z" fill="white"/>
<path d="M114.324 370.055C134.732 370.055 151.276 353.508 151.276 333.097C151.276 312.685 134.732 296.139 114.324 296.139C93.9157 296.139 77.3716 312.685 77.3716 333.097C77.3716 353.508 93.9157 370.055 114.324 370.055Z" fill="white"/>
<path d="M387.331 370.055C407.739 370.055 424.283 353.508 424.283 333.097C424.283 312.685 407.739 296.139 387.331 296.139C366.922 296.139 350.378 312.685 350.378 333.097C350.378 353.508 366.922 370.055 387.331 370.055Z" fill="white"/>
</svg>
