<svg xmlns="http://www.w3.org/2000/svg" xmlns:xlink="http://www.w3.org/1999/xlink" viewBox="0 0 80 80">
  <defs>
    <linearGradient id="b0d19120-5b10-4f81-af48-197ac443fb5e" x1="17.337" x2="80" y1="74.339" y2="74.339" gradientUnits="userSpaceOnUse">
      <stop offset="0" stop-color="#000040"/>
      <stop offset=".325" stop-color="#000043"/>
      <stop offset=".585" stop-color="#00004d"/>
      <stop offset=".823" stop-color="#00005e"/>
      <stop offset="1" stop-color="#000070"/>
    </linearGradient>
    <linearGradient id="bd489303-e460-4eb0-8878-91134ae65556" x1="48.668" x2="48.668" y1="68.69" y2="80" gradientUnits="userSpaceOnUse">
      <stop offset=".35" stop-color="#00209f"/>
      <stop offset=".645" stop-color="#001f9d"/>
      <stop offset=".752" stop-color="#001d96"/>
      <stop offset=".828" stop-color="#00198b"/>
      <stop offset=".889" stop-color="#00137a"/>
      <stop offset=".941" stop-color="#000c64"/>
      <stop offset=".987" stop-color="#000349"/>
      <stop offset="1" stop-color="#000040"/>
    </linearGradient>
    <linearGradient id="af0fa011-416a-45d1-829e-8b9e473039b3" x1="17.337" x2="80" y1="55.314" y2="55.314" gradientUnits="userSpaceOnUse">
      <stop offset="0" stop-color="#00209f"/>
      <stop offset=".021" stop-color="#0222a1"/>
      <stop offset=".244" stop-color="#1333b2"/>
      <stop offset=".487" stop-color="#1d3dbc"/>
      <stop offset=".791" stop-color="#2040bf"/>
      <stop offset=".841" stop-color="#1e3dbc"/>
      <stop offset=".882" stop-color="#1933b2"/>
      <stop offset=".919" stop-color="#1122a1"/>
      <stop offset=".954" stop-color="#050a89"/>
      <stop offset=".966" stop-color="#00007f"/>
      <stop offset="1" stop-color="#2040bf"/>
    </linearGradient>
    <linearGradient id="e95c8fa0-feb1-4437-83cc-11d4d81526a4" x1="17.337" x2="80.001" y1="46.992" y2="46.992" gradientUnits="userSpaceOnUse">
      <stop offset="0" stop-color="#dfdfdf"/>
      <stop offset=".021" stop-color="#e1e1e1"/>
      <stop offset=".244" stop-color="#f2f2f2"/>
      <stop offset=".487" stop-color="#fcfcfc"/>
      <stop offset=".791" stop-color="#fff"/>
      <stop offset=".841" stop-color="#fcfcfc"/>
      <stop offset=".882" stop-color="#f2f2f2"/>
      <stop offset=".919" stop-color="#e1e1e1"/>
      <stop offset=".954" stop-color="#c9c9c9"/>
      <stop offset=".966" stop-color="#bfbfbf"/>
      <stop offset="1" stop-color="#fff"/>
    </linearGradient>
    <linearGradient xlink:href="#e95c8fa0-feb1-4437-83cc-11d4d81526a4" id="a24118bf-3943-4f25-8a73-899597dd3768" x1="17.336" x2="80.001" y1="68.287" y2="68.287"/>
    <linearGradient xlink:href="#e95c8fa0-feb1-4437-83cc-11d4d81526a4" id="b15bc856-700a-4e74-9757-89bd4519b014" x1="17.339" x2="79.999" y1="67.46" y2="67.46"/>
    <linearGradient xlink:href="#e95c8fa0-feb1-4437-83cc-11d4d81526a4" id="b28dd995-4b2d-4462-9e8b-8e9408716fb7" x1="17.336" x2="80" y1="52.273" y2="52.273"/>
    <linearGradient xlink:href="#e95c8fa0-feb1-4437-83cc-11d4d81526a4" id="ee0b623d-23f4-4b3c-a216-760409029cba" x1="17.338" x2="80" y1="39.61" y2="39.61"/>
    <linearGradient xlink:href="#e95c8fa0-feb1-4437-83cc-11d4d81526a4" id="e6cba843-1e2e-40dc-8ae9-3e0d72364529" x1="17.337" x2="80" y1="46.991" y2="46.991"/>
    <linearGradient xlink:href="#e95c8fa0-feb1-4437-83cc-11d4d81526a4" id="f89e32c7-df38-4cb6-ab3d-06235c55db3f" x1="17.333" x2="80.001" y1="54.692" y2="54.692"/>
    <linearGradient id="b6c020a0-0e44-47b6-9c18-54d8e5f02c31" x1="17.337" x2="80.001" y1="47.594" y2="47.594" gradientUnits="userSpaceOnUse">
      <stop offset="0" stop-color="#bf1010"/>
      <stop offset=".021" stop-color="#c11212"/>
      <stop offset=".244" stop-color="#d22323"/>
      <stop offset=".487" stop-color="#dc2d2d"/>
      <stop offset=".791" stop-color="#df3030"/>
      <stop offset=".841" stop-color="#dc2e2e"/>
      <stop offset=".882" stop-color="#d22626"/>
      <stop offset=".919" stop-color="#c11919"/>
      <stop offset=".954" stop-color="#a90808"/>
      <stop offset=".966" stop-color="#9f0000"/>
      <stop offset="1" stop-color="#df3030"/>
    </linearGradient>
    <linearGradient xlink:href="#b6c020a0-0e44-47b6-9c18-54d8e5f02c31" id="f81a8cd9-3080-4eda-80e1-1a46566ca0b3" x1="17.337" x2="80" y1="39.541" y2="39.541"/>
    <linearGradient xlink:href="#b6c020a0-0e44-47b6-9c18-54d8e5f02c31" id="eb7a5367-460d-43ff-9c4b-f3ec6e18e1a8" x1="17.337" x2="80" y1="41.511" y2="41.511"/>
    <linearGradient xlink:href="#b6c020a0-0e44-47b6-9c18-54d8e5f02c31" id="a9f832ce-10e0-4c7c-aab7-306cc348b96d" x1="17.336" x2="80.001" y1="53.237" y2="53.237"/>
    <linearGradient xlink:href="#b6c020a0-0e44-47b6-9c18-54d8e5f02c31" id="e8ae0522-9487-4437-af93-bb4c7f61bb2e" x1="17.337" x2="79.999" y1="55.028" y2="55.028"/>
  </defs>
  <path fill="#0e3ca5" d="M32.585 59.26c2 7.4 9.176 13.045 12.8 12.812.127-.009 13.745-2.547 21.2-15 5.8-9.694 3.826-19.051-4.064-19.255-2.839.207-33.745 7.348-29.934 21.445m29.198-47.527-.008-.007.011-.006a34.632 34.632 0 0 0-36.5-5.267A20.236 20.236 0 0 0 23.1 7.53c-.486.259-.972.516-1.444.8l.115.035a15.78 15.78 0 0 0-3.655 3.46C8.172 24.953 41.486 34.5 59.3 34.528c8.191 5.883 10.491-16.56 2.485-22.793Z"/>
  <path fill="#5493f7" d="M27.3 12C22.723 18.88 7.478 23.727 4.971 22.972l-.017-.032q.155-.311.313-.618a36.705 36.705 0 0 1 10.87-12.684q1.407-1.03 2.913-1.928a10.8 10.8 0 0 1 5.04-1.343c6.789.13 3.244 5.58 3.207 5.635m-3.753 48.611c.329 2.162-.008 10.7-.45 11.418-.381.024-1.174.072-3.471-1.217a36.438 36.438 0 0 1-17.952-25.8 36.9 36.9 0 0 1 0-11.841 36.275 36.275 0 0 1 1.383-5.616q.183-.55.383-1.092c2.631 3.5 5.676 6.665 8.264 10.2 2.465 3.366 5.856 8.852 6.546 10.024 4.284 7.278 4.967 11.768 5.294 13.925m50.648-21.52A36.4 36.4 0 0 1 71.648 52.5c-4.3 4.621-33.283-6.753-33.567-6.877C34.116 43.886 22.05 38.6 20.961 30.3 19.4 18.351 43.63 10.027 54.28 9.711c1.277.015 5.163.06 7.429 1.9a36.411 36.411 0 0 1 12.48 27.482M54.568 71.467c-3.16 1.474-6.638.4-5.734-2.677 1.735-5.908 16.886-11.966 20.232-12.3.413-.04.588.241.405.561a36.866 36.866 0 0 1-14.9 14.411"/>
  <path fill="url(#b0d19120-5b10-4f81-af48-197ac443fb5e)" d="M17.337 77.254a2.552 2.552 0 0 0 2.328 2.714c30.7.21 60.335-1.2 60.335-5.8 0-13.924-62.663 3.086-62.663 3.086Z"/>
  <path fill="url(#bd489303-e460-4eb0-8878-91134ae65556)" d="M17.337 77.254a2.549 2.549 0 0 0 2.34 2.714c30.691.233 60.286-.731 60.323-5.8 0-13.924-62.663 3.086-62.663 3.086Zm2.341 2.537a2.194 2.194 0 0 1-.245-.014 2.4 2.4 0 0 1-1.987-1.763 2.368 2.368 0 0 0 2.229 1.761c30.671-.192 59.844-9.635 59.844-5.477 0 4.244-29.171 5.702-59.841 5.493Z"/>
  <path fill="url(#af0fa011-416a-45d1-829e-8b9e473039b3)" d="M19.68 37.823a2.342 2.342 0 0 0-2.343 2.343v37.088a2.343 2.343 0 0 0 2.328 2.346C50.364 79.37 80.037 69.209 80 74.169V32.394c.037-4.96-29.626 5.199-60.32 5.429Z"/>
  <path fill="url(#e95c8fa0-feb1-4437-83cc-11d4d81526a4)" d="M20.856 58.7a329.404 329.404 0 0 0 4.791-3.345c.72-.51 1.437-1.025 2.216-1.588s1.618-1.174 2.577-1.883v6.369c1.048-.078 1.834-.145 2.618-.215s1.571-.141 2.62-.244v-6.365a428.424 428.424 0 0 0 4.789 2.671c.716.393 1.434.782 2.213 1.2s1.619.869 2.577 1.376a162.267 162.267 0 0 0 3.501-.505v-2.334a446.829 446.829 0 0 1-6.952-3.673c.928-.114 1.7-.214 2.427-.308s1.4-.184 2.117-.286 1.49-.213 2.407-.356v-6.965a192.494 192.494 0 0 1-4.522.641c-.724.095-1.5.193-2.43.307.929-.731 1.706-1.344 2.429-1.918s1.4-1.112 2.117-1.693 1.492-1.207 2.406-1.965v-2.378q-1.692.255-3.439.5c-.019.015-.035.032-.054.047-.96.766-1.8 1.431-2.582 2.046l-2.214 1.744c-.714.562-1.434 1.12-2.212 1.72s-1.619 1.245-2.578 1.975V36.91q-2.7.272-5.458.474c.109 1.348.22 2.676.22 3.167v3.185a254.275 254.275 0 0 1-4.793-2.899c-.716-.445-1.434-.9-2.212-1.385s-1.618-1.022-2.577-1.637l-.011-.007c-.389.007-.777.012-1.167.015a2.342 2.342 0 0 0-2.343 2.343v.026c.929.617 1.7 1.123 2.428 1.59s1.395.9 2.117 1.359 1.5.949 2.424 1.531a211.265 211.265 0 0 1-4.541.127c-.724.011-1.5.02-2.428.021v6.96a155.708 155.708 0 0 0 4.545-.065c.722-.019 1.5-.046 2.424-.082a343.395 343.395 0 0 1-4.542 3.145c-.724.491-1.5 1.014-2.427 1.63v2.334c.742 0 1.482-.006 1.759-.009.528-.006 1.056-.014 1.76-.033Z"/>
  <path fill="url(#a24118bf-3943-4f25-8a73-899597dd3768)" d="M35.781 67.612c.438-.7.767-1.226 1.095-1.753s.659-1.054 1.1-1.758c-.741.358-1.3.624-1.853.888s-1.111.528-1.852.876l-.606-1.821c-.181-.547-.363-1.095-.6-1.824l-.606 1.931c-.182.579-.363 1.158-.6 1.929-.74-.219-1.3-.386-1.852-.556s-1.111-.342-1.852-.577c.439.631.767 1.1 1.1 1.574s.657.942 1.094 1.567c-.68.453-1.191.788-1.7 1.123s-1.022.667-1.7 1.105a179.818 179.818 0 0 0 3.947.088l-.271 1.975-.273 1.975c.545-.613.955-1.074 1.364-1.537s.818-.926 1.362-1.546l1.363 1.306c.409.392.818.781 1.364 1.3l-.271-1.928-.273-1.927c.79-.144 1.382-.256 1.974-.367s1.184-.229 1.971-.385c-.68-.327-1.189-.573-1.7-.823s-1.044-.499-1.725-.835Z"/>
  <path fill="url(#b15bc856-700a-4e74-9757-89bd4519b014)" d="M65.7 66.973c.414-.7.621-1.047 1.036-1.743-.7.384-1.051.578-1.752.968l-.572-1.689c-.229.758-.344 1.135-.574 1.891-.7-.143-1.051-.214-1.753-.359l1.037 1.386-1.613 1.238c.748-.063 1.122-.1 1.869-.161-.1.762-.154 1.143-.257 1.906l1.291-1.59c.515.453.774.68 1.289 1.136-.1-.727-.153-1.09-.256-1.817.746-.195 1.12-.291 1.866-.481-.644-.276-.967-.414-1.611-.685Z"/>
  <path fill="url(#b28dd995-4b2d-4462-9e8b-8e9408716fb7)" d="m57.881 51.8 1.04-1.744c-.7.386-1.054.579-1.756.967l-.575-1.69-.57 1.887c-.7-.148-1.049-.223-1.752-.376l1.038 1.4c-.644.49-.968.734-1.615 1.222.751-.056 1.125-.084 1.87-.143-.1.761-.155 1.142-.258 1.9.517-.631.774-.947 1.288-1.581l1.292 1.14c-.1-.727-.155-1.09-.257-1.816.747-.2 1.122-.292 1.87-.485-.646-.281-.969-.413-1.615-.681Z"/>
  <path fill="url(#ee0b623d-23f4-4b3c-a216-760409029cba)" d="M63.379 40.653c-.1.763-.155 1.144-.258 1.907l1.291-1.591c.516.453.774.681 1.289 1.136l-.257-1.816c.746-.2 1.12-.292 1.867-.481-.644-.277-.967-.414-1.611-.686.414-.7.621-1.047 1.035-1.743-.7.385-1.05.579-1.751.969-.228-.676-.343-1.013-.572-1.688l-.574 1.89-1.752-.359 1.038 1.385-1.613 1.24Z"/>
  <path fill="url(#e6cba843-1e2e-40dc-8ae9-3e0d72364529)" d="M72.658 46.566c.456-.686.71-1.032 1.235-1.715a19.562 19.562 0 0 0-1.97.917l-.573-1.708-.573 1.872c-.7-.163-1.052-.242-1.752-.4l1.036 1.4c-.644.481-.966.724-1.61 1.211.746-.054 1.12-.082 1.866-.128-.1.76-.154 1.141-.257 1.9.516-.623.774-.935 1.29-1.554.516.471.744.711 1.31 1.18-.112-.729-.168-1.093-.274-1.823a31.555 31.555 0 0 1 2.25-.428c-.847-.298-1.27-.434-1.978-.724Z"/>
  <path fill="url(#f89e32c7-df38-4cb6-ab3d-06235c55db3f)" d="m67.987 54.072-.453-1.04-.454 1.19-1.2.291.917.621c-.114.487-.171.731-.287 1.218.409-.323.612-.485 1.02-.806.408.186.612.28 1.02.469l-.287-1.123c.367-.371.55-.556.917-.924-.475.04-.714.061-1.193.104Z"/>
  <path fill="url(#b6c020a0-0e44-47b6-9c18-54d8e5f02c31)" d="M20.441 50.356a214.403 214.403 0 0 0 5.253-.173 163.305 163.305 0 0 0 5.8-.365v8.356c1.257-.1 1.883-.16 3.141-.277v-8.356a241.434 241.434 0 0 0 8.343-.922c.861-.114 1.747-.224 2.7-.354s1.967-.276 3.084-.449V43.64c-1.116.173-2.131.318-3.082.449s-1.836.246-2.7.355-1.7.212-2.555.313-1.738.2-2.689.3-1.971.2-3.1.308v-8.353q-1.56.15-3.142.276v8.359a160.516 160.516 0 0 1-5.795.364c-.86.039-1.694.07-2.554.1s-1.743.055-2.7.073-1.972.033-3.105.033v4.176c1.129-.005 2.149-.018 3.101-.037Z"/>
  <path fill="url(#f81a8cd9-3080-4eda-80e1-1a46566ca0b3)" d="M43.613 37.877c-.853.676-1.641 1.3-2.426 1.914s-1.564 1.231-2.415 1.891-1.772 1.364-2.817 2.164c.938-.094 1.408-.141 2.345-.241 1.047-.81 1.958-1.525 2.808-2.194s1.637-1.29 2.425-1.913 1.577-1.249 2.428-1.933 1.765-1.424 2.8-2.28c.014-.016.023-.032.037-.048q-1.114.168-2.253.332a.236.236 0 0 1-.107.059c-1.05.843-1.971 1.572-2.825 2.249Z"/>
  <path fill="url(#eb7a5367-460d-43ff-9c4b-f3ec6e18e1a8)" d="M22.647 42.847c.844.534 1.743 1.1 2.828 1.777.938-.041 1.406-.066 2.344-.12-1.049-.635-1.968-1.2-2.816-1.732s-1.633-1.025-2.42-1.522a302.52 302.52 0 0 1-4.426-2.85 2.325 2.325 0 0 0-.709 1.089c1.034.685 1.91 1.256 2.724 1.782.847.543 1.628 1.042 2.475 1.576Z"/>
  <path fill="url(#a9f832ce-10e0-4c7c-aab7-306cc348b96d)" d="M43.467 51.833a344 344 0 0 1-2.831-1.532c-.933.111-1.4.164-2.337.265a332.695 332.695 0 0 0 5.232 2.858 406.814 406.814 0 0 0 5.225 2.749v-1.557c-1.073-.554-1.975-1.026-2.817-1.47s-1.626-.861-2.472-1.313Z"/>
  <path fill="url(#e8ae0522-9487-4437-af93-bb4c7f61bb2e)" d="M25 53.477c-.849.6-1.635 1.152-2.421 1.7s-1.573 1.09-2.426 1.672-1.77 1.2-2.819 1.9c.938 0 1.407-.005 2.346-.019 1.049-.712 1.967-1.345 2.818-1.937s1.638-1.143 2.422-1.7 1.571-1.115 2.423-1.727 1.769-1.279 2.817-2.051c-.937.067-1.406.1-2.344.153A294.383 294.383 0 0 1 25 53.477Z"/>
</svg>
