<svg xmlns="http://www.w3.org/2000/svg" xmlns:xlink="http://www.w3.org/1999/xlink" viewBox="0 0 80 80">
  <defs>
    <linearGradient id="b778ad24-dfe8-4922-aa65-c719a381e7c5" x1="17.334" x2="80" y1="74.339" y2="74.339" gradientUnits="userSpaceOnUse">
      <stop offset="0" stop-color="#700000"/>
      <stop offset=".327" stop-color="#730000"/>
      <stop offset=".59" stop-color="#7d0000"/>
      <stop offset=".83" stop-color="#8e0000"/>
      <stop offset="1" stop-color="#9f0000"/>
    </linearGradient>
    <linearGradient id="f0bb48e5-073a-4d6f-a622-71bbf8a93979" x1="17.584" x2="17.584" y1="68.073" y2="80.102" gradientUnits="userSpaceOnUse">
      <stop offset=".35" stop-color="#dfdfdf"/>
      <stop offset=".645" stop-color="#ddd"/>
      <stop offset=".752" stop-color="#d6d6d6"/>
      <stop offset=".828" stop-color="#cbcbcb"/>
      <stop offset=".889" stop-color="#bababa"/>
      <stop offset=".941" stop-color="#a4a4a4"/>
      <stop offset=".987" stop-color="#898989"/>
      <stop offset="1" stop-color="gray"/>
    </linearGradient>
    <linearGradient xlink:href="#f0bb48e5-073a-4d6f-a622-71bbf8a93979" id="e3133609-cf30-4688-a770-1ecb52463ac6" x1="38.772" x2="38.772" y1="68.689" y2="80"/>
    <linearGradient id="b786ce43-1ad9-4d3b-8287-99ec4c9141ef" x1="48.667" x2="48.667" y1="68.69" y2="80" gradientUnits="userSpaceOnUse">
      <stop offset=".35" stop-color="#cf2000"/>
      <stop offset=".645" stop-color="#cd1f00"/>
      <stop offset=".752" stop-color="#c61d00"/>
      <stop offset=".828" stop-color="#bb1900"/>
      <stop offset=".889" stop-color="#aa1300"/>
      <stop offset=".941" stop-color="#940c00"/>
      <stop offset=".987" stop-color="#790300"/>
      <stop offset="1" stop-color="#700000"/>
    </linearGradient>
    <linearGradient id="bcb7bd4c-d4b0-487d-8ff3-de10a756b3d7" x1="17.334" x2="80" y1="55.313" y2="55.313" gradientUnits="userSpaceOnUse">
      <stop offset="0" stop-color="#cf2000"/>
      <stop offset=".021" stop-color="#d12201"/>
      <stop offset=".244" stop-color="#e23309"/>
      <stop offset=".487" stop-color="#ec3d0e"/>
      <stop offset=".791" stop-color="#ef4010"/>
      <stop offset=".841" stop-color="#ec3d0f"/>
      <stop offset=".882" stop-color="#e2330d"/>
      <stop offset=".919" stop-color="#d12208"/>
      <stop offset=".954" stop-color="#b90a03"/>
      <stop offset=".966" stop-color="#af0000"/>
      <stop offset="1" stop-color="#ef4010"/>
    </linearGradient>
    <linearGradient id="fe3dc2b5-5709-461a-82df-e8e5415dfab6" x1="17.334" x2="80" y1="57.165" y2="57.165" gradientUnits="userSpaceOnUse">
      <stop offset="0" stop-color="#dfdfdf"/>
      <stop offset=".021" stop-color="#e1e1e1"/>
      <stop offset=".244" stop-color="#f2f2f2"/>
      <stop offset=".487" stop-color="#fcfcfc"/>
      <stop offset=".791" stop-color="#fff"/>
      <stop offset=".841" stop-color="#fcfcfc"/>
      <stop offset=".882" stop-color="#f2f2f2"/>
      <stop offset=".919" stop-color="#e1e1e1"/>
      <stop offset=".954" stop-color="#c9c9c9"/>
      <stop offset=".966" stop-color="#bfbfbf"/>
      <stop offset="1" stop-color="#fff"/>
    </linearGradient>
  </defs>
  <path fill="#0e3ca5" d="M32.585 59.259c2 7.4 9.176 13.044 12.8 12.811.127-.008 13.745-2.547 21.2-15 5.8-9.693 3.826-19.051-4.064-19.255-2.839.207-33.745 7.348-29.934 21.446m29.198-47.528-.008-.006.011-.007a34.628 34.628 0 0 0-36.5-5.266 20.417 20.417 0 0 0-2.2 1.074c-.486.259-.972.516-1.444.8l.115.035a15.78 15.78 0 0 0-3.655 3.46C8.172 24.951 41.486 34.495 59.3 34.527c8.191 5.882 10.491-16.561 2.485-22.794Z"/>
  <path fill="#5493f7" d="M27.3 12C22.723 18.878 7.478 23.725 4.971 22.971l-.017-.032q.155-.312.313-.619a36.682 36.682 0 0 1 10.87-12.683q1.407-1.032 2.913-1.929a10.777 10.777 0 0 1 5.04-1.342c6.789.134 3.244 5.579 3.21 5.634m-3.756 48.612c.329 2.161-.008 10.7-.45 11.418-.381.023-1.174.071-3.471-1.217a36.44 36.44 0 0 1-17.952-25.8 36.9 36.9 0 0 1 0-11.841 36.3 36.3 0 0 1 1.383-5.616c.122-.366.25-.731.383-1.092 2.631 3.5 5.676 6.666 8.264 10.2 2.465 3.366 5.856 8.852 6.546 10.024 4.284 7.278 4.967 11.768 5.294 13.926m50.648-21.522A36.4 36.4 0 0 1 71.648 52.5c-4.3 4.621-33.283-6.753-33.567-6.877-3.965-1.739-16.031-7.023-17.12-15.329C19.4 18.349 43.63 10.025 54.28 9.709c1.277.015 5.163.061 7.429 1.9a36.411 36.411 0 0 1 12.48 27.482M54.568 71.465c-3.159 1.475-6.638.4-5.734-2.677 1.735-5.908 16.886-11.966 20.232-12.295.413-.04.588.241.405.562a36.87 36.87 0 0 1-14.9 14.41"/>
  <path fill="url(#b778ad24-dfe8-4922-aa65-c719a381e7c5)" d="M17.334 77.254a2.553 2.553 0 0 0 2.329 2.714c30.7.21 60.337-1.2 60.337-5.8 0-13.925-62.666 3.086-62.666 3.086Z"/>
  <path fill="url(#f0bb48e5-073a-4d6f-a622-71bbf8a93979)" d="M17.586 78.389v-.007Z"/>
  <path fill="url(#e3133609-cf30-4688-a770-1ecb52463ac6)" d="m44.384 77.951-5.661-5.66c-1.921.384-3.787.775-5.563 1.161l5.208 5.208q3.067-.326 6.016-.709Z"/>
  <path fill="url(#b786ce43-1ad9-4d3b-8287-99ec4c9141ef)" d="m38.723 72.291 5.661 5.66C64.347 75.374 79.519 71.3 79.519 74.3c0 4.245-29.173 5.7-59.843 5.494a2.194 2.194 0 0 1-.245-.014 2.352 2.352 0 0 1-1.845-1.388v-.007a2.576 2.576 0 0 1-.138-.368 2.7 2.7 0 0 0 .138.368v.007a2.328 2.328 0 0 0 2.087 1.386c6.38-.039 12.694-.481 18.7-1.115l-5.213-5.211c-9.072 1.969-15.826 3.8-15.826 3.8a2.549 2.549 0 0 0 2.341 2.714c30.692.233 60.288-.731 60.325-5.8 0-8.456-23.122-5.5-41.277-1.875Z"/>
  <path fill="url(#bcb7bd4c-d4b0-487d-8ff3-de10a756b3d7)" d="M19.678 37.821a2.344 2.344 0 0 0-2.344 2.344v37.089a2.344 2.344 0 0 0 2.329 2.346C50.362 79.37 80.038 69.209 80 74.169V32.393c.038-4.961-29.627 5.199-60.322 5.428Z"/>
  <path fill="url(#fe3dc2b5-5709-461a-82df-e8e5415dfab6)" d="M77.64 48.965a23.053 23.053 0 0 0-4.11.2c-1.266.15-2.171.288-3.141.433s-1.917.3-2.847.449-1.842.311-2.746.47-1.8.319-2.7.475l-2.7.465c-.9.156-1.823.312-2.753.473s-1.871.319-2.846.475-1.978.311-3.015.471-2.1.329-3.2.492-2.258.322-3.462.479V35.906q-2.931.4-5.982.742v17.914a282.974 282.974 0 0 1-6.305.601 150.48 150.48 0 0 1-5.434.358 214.26 214.26 0 0 1-5.723.202c-1.045.022-2.149.036-3.338.036v5.967c1.189 0 2.294-.013 3.337-.035s2.027-.053 2.973-.087 1.854-.071 2.752-.115 1.783-.095 2.681-.154 1.807-.127 2.752-.2 1.925-.167 2.969-.266 2.147-.206 3.335-.333v17.893q3.048-.339 5.982-.742V59.812q1.806-.235 3.462-.478c1.106-.163 2.168-.33 3.2-.49s2.039-.316 3.014-.473 1.918-.313 2.848-.474 1.845-.317 2.752-.473l2.7-.466c.9-.156 1.794-.314 2.7-.473s1.816-.318 2.746-.473 1.876-.3 2.847-.448 1.875-.282 3.14-.432a22.975 22.975 0 0 1 4.111-.2c1.3.095 2.36.424 2.36 1.366v-5.966c.001-.943-1.06-1.272-2.359-1.367Z"/>
</svg>
