<svg xmlns="http://www.w3.org/2000/svg" viewBox="0 0 80 80">
  <defs>
    <linearGradient id="a2fa1dfc-e35f-4fa5-acfb-ff66dac79dc5" x1="17.337" x2="80" y1="74.339" y2="74.339" gradientUnits="userSpaceOnUse">
      <stop offset="0" stop-color="gray"/>
      <stop offset=".327" stop-color="#838383"/>
      <stop offset=".59" stop-color="#8d8d8d"/>
      <stop offset=".83" stop-color="#9e9e9e"/>
      <stop offset="1" stop-color="#afafaf"/>
    </linearGradient>
    <linearGradient id="f08ffdaa-0de2-431c-a642-88815204e1fb" x1="48.669" x2="48.669" y1="68.69" y2="80" gradientUnits="userSpaceOnUse">
      <stop offset=".35" stop-color="#dfdfdf"/>
      <stop offset=".645" stop-color="#ddd"/>
      <stop offset=".752" stop-color="#d6d6d6"/>
      <stop offset=".828" stop-color="#cbcbcb"/>
      <stop offset=".889" stop-color="#bababa"/>
      <stop offset=".941" stop-color="#a4a4a4"/>
      <stop offset=".987" stop-color="#898989"/>
      <stop offset="1" stop-color="gray"/>
    </linearGradient>
    <linearGradient id="b0f68a6b-5885-44a6-856b-03b997d7e20d" x1="17.337" x2="80" y1="55.314" y2="55.314" gradientUnits="userSpaceOnUse">
      <stop offset="0" stop-color="#dfdfdf"/>
      <stop offset=".021" stop-color="#e1e1e1"/>
      <stop offset=".244" stop-color="#f2f2f2"/>
      <stop offset=".487" stop-color="#fcfcfc"/>
      <stop offset=".791" stop-color="#fff"/>
      <stop offset=".841" stop-color="#fcfcfc"/>
      <stop offset=".882" stop-color="#f2f2f2"/>
      <stop offset=".919" stop-color="#e1e1e1"/>
      <stop offset=".954" stop-color="#c9c9c9"/>
      <stop offset=".966" stop-color="#bfbfbf"/>
      <stop offset="1" stop-color="#fff"/>
    </linearGradient>
    <linearGradient id="a7d50d05-8cfe-4b72-ba63-2e6ad9d67eaf" x1="17.337" x2="80" y1="44.88" y2="44.88" gradientUnits="userSpaceOnUse">
      <stop offset="0" stop-color="#cf2000"/>
      <stop offset=".021" stop-color="#d12201"/>
      <stop offset=".244" stop-color="#e23309"/>
      <stop offset=".487" stop-color="#ec3d0e"/>
      <stop offset=".791" stop-color="#ef4010"/>
      <stop offset=".841" stop-color="#ec3d0f"/>
      <stop offset=".882" stop-color="#e2330d"/>
      <stop offset=".919" stop-color="#d12208"/>
      <stop offset=".954" stop-color="#b90a03"/>
      <stop offset=".966" stop-color="#af0000"/>
      <stop offset="1" stop-color="#ef4010"/>
    </linearGradient>
  </defs>
  <path fill="#0e3ca5" d="M32.585 59.261c2 7.4 9.176 13.045 12.8 12.811.127-.008 13.745-2.547 21.2-15 5.8-9.693 3.826-19.051-4.064-19.255-2.839.207-33.745 7.349-29.934 21.446m29.198-47.527-.008-.007.011-.007a34.628 34.628 0 0 0-36.5-5.266A20.417 20.417 0 0 0 23.1 7.53c-.486.259-.972.517-1.444.8l.115.036a15.776 15.776 0 0 0-3.655 3.459C8.172 24.954 41.486 34.5 59.3 34.529c8.191 5.882 10.491-16.561 2.485-22.793Z"/>
  <path fill="#5493f7" d="M27.3 12C22.723 18.881 7.478 23.728 4.971 22.973l-.017-.032c.1-.207.207-.414.313-.619a36.682 36.682 0 0 1 10.87-12.683q1.407-1.032 2.913-1.929a10.79 10.79 0 0 1 5.04-1.342c6.789.13 3.244 5.58 3.207 5.635m-3.753 48.611c.329 2.161-.008 10.7-.45 11.418-.381.023-1.174.072-3.471-1.217A36.541 36.541 0 0 1 3.054 27.559q.183-.551.383-1.093c2.631 3.5 5.676 6.666 8.264 10.2 2.465 3.365 5.856 8.852 6.546 10.024 4.284 7.277 4.967 11.767 5.294 13.925M74.189 39.1a36.4 36.4 0 0 1-2.541 13.4c-4.3 4.62-33.283-6.753-33.567-6.878C34.116 43.886 22.05 38.6 20.961 30.3 19.4 18.351 43.63 10.027 54.28 9.712c1.277.015 5.163.06 7.429 1.9A36.415 36.415 0 0 1 74.189 39.1M54.568 71.467c-3.159 1.475-6.638.4-5.734-2.676C50.569 62.882 65.72 56.824 69.066 56.5c.413-.041.588.24.405.561a36.864 36.864 0 0 1-14.9 14.41"/>
  <path fill="url(#a2fa1dfc-e35f-4fa5-acfb-ff66dac79dc5)" d="M17.337 77.254a2.552 2.552 0 0 0 2.329 2.714c30.7.21 60.334-1.2 60.334-5.8 0-13.924-62.663 3.086-62.663 3.086Z"/>
  <path fill="url(#f08ffdaa-0de2-431c-a642-88815204e1fb)" d="M17.337 77.254a2.55 2.55 0 0 0 2.341 2.714c30.69.233 60.285-.731 60.322-5.8 0-13.924-62.663 3.086-62.663 3.086Zm2.342 2.537a2.194 2.194 0 0 1-.245-.014 2.4 2.4 0 0 1-1.987-1.762 2.368 2.368 0 0 0 2.229 1.76c30.67-.192 59.843-9.635 59.843-5.477 0 4.244-29.171 5.702-59.84 5.493Z"/>
  <path fill="url(#b0f68a6b-5885-44a6-856b-03b997d7e20d)" d="M19.681 37.823a2.344 2.344 0 0 0-2.344 2.344v37.087a2.343 2.343 0 0 0 2.329 2.346C50.364 79.37 80.037 69.208 80 74.168V32.4c.037-4.966-29.626 5.194-60.319 5.423Z"/>
  <path fill="url(#a7d50d05-8cfe-4b72-ba63-2e6ad9d67eaf)" d="M19.681 37.823a2.344 2.344 0 0 0-2.344 2.344v18.56q1.8 0 3.513-.041t3.356-.1q1.64-.06 3.216-.148t3.095-.2c1.013-.076 2.006-.159 2.986-.248s1.946-.18 2.9-.276 1.9-.2 2.826-.3 1.847-.215 2.762-.328 1.825-.228 2.73-.348 1.8-.246 2.7-.377 1.784-.271 2.681-.409 1.8-.277 2.7-.42 1.809-.287 2.718-.44 1.822-.313 2.75-.471 1.864-.321 2.814-.485 1.911-.329 2.884-.5 1.961-.347 2.967-.516 2.031-.335 3.073-.493 2-.3 3.3-.464a24.266 24.266 0 0 1 4.279-.228C78.933 52.02 80 52.361 80 53.3V32.4c.037-4.966-29.626 5.194-60.319 5.423Z"/>
</svg>
