<?xml version="1.0" encoding="utf-8"?>
<!-- Generator: Adobe Illustrator 26.0.1, SVG Export Plug-In . SVG Version: 6.00 Build 0)  -->
<svg version="1.1" id="Layer_1" xmlns="http://www.w3.org/2000/svg" xmlns:xlink="http://www.w3.org/1999/xlink" x="0px" y="0px"
	 viewBox="0 0 400 400" style="enable-background:new 0 0 400 400;" xml:space="preserve">
<style type="text/css">
	.st0{fill:none;}
	.st1{fill:url(#SVGID_1_);}
</style>
<g id="Layer_1-2">
	<g id="tetst">
		<g id="ust">
			<rect id="thum" class="st0" width="400" height="400"/>
		</g>
	</g>
</g>
<rect class="st0" width="400" height="400"/>
<g id="Layer_2_00000169557010443431292880000005932176954627502227_">
	
		<linearGradient id="SVGID_1_" gradientUnits="userSpaceOnUse" x1="49.9248" y1="2298" x2="350.0753" y2="2298" gradientTransform="matrix(1 0 0 1 0 -2098)">
		<stop  offset="0" style="stop-color:#FD845E"/>
		<stop  offset="0.48" style="stop-color:#F05C8A"/>
		<stop  offset="1" style="stop-color:#7A57DF"/>
	</linearGradient>
	<path class="st1" d="M149.9,59.8c0-3,2.2-5.9,4.9-7.3l0,0c13.3-7.5,26.7-15.1,40-22.9l2.1-1.1c1.7-0.6,3.5-0.6,5.2,0
		c0.8,0.3,1.6,0.7,2.3,1.2c13.3,7.7,26.3,15.5,39.6,22.9c0.9,0.5,1.7,1,2.5,1.7c1.3,1,2.2,2.5,2.5,4.1c0.1,0.8,0.1,1.6,0,2.3v46.7
		c-0.1,1.1-0.1,2.2,0,3.3c0.1,1,0.9,1.8,2,1.8c0.1,0,0.2,0,0.2,0h0.6c1.1-0.3,2.1-0.8,3-1.4l7.3-4.7c11.3-6.7,22.7-12.9,33.9-19.6
		l1.4-0.9c2.1-1.1,4.6-1.1,6.7,0l0.9,0.5l3.3,2c12.4,7.3,24.9,14.5,37.4,21.6c0.8,0.5,1.6,1,2.3,1.6c0.8,0.7,1.4,1.7,1.9,2.7v52.1
		c0.1,2.1-0.9,4.2-2.5,5.5c-0.6,0.6-1.3,1.1-2.1,1.5l-39,22.4l-2.8,1.7l-1.3,1.1c-0.7,0.4-0.9,1.3-0.5,2c0.1,0.2,0.3,0.3,0.5,0.4
		c0.5,0.5,1.1,0.9,1.7,1.2l3.2,1.7c12.7,7.5,25.5,14.9,38.5,22.1c0.9,0.4,1.7,1,2.4,1.6c0.9,0.8,1.5,1.8,1.9,2.9v11.6v0.8v38.9
		c0,2.4-1.1,4.7-3,6.1c-0.8,0.7-1.7,1.3-2.7,1.8c-0.8,0.5-1.7,0.8-2.4,1.3l-27.6,15.4c-3.1,1.8-6.7,3.6-9.5,5.7
		c-0.7,0.4-1.3,0.7-2.1,1c-1.7,0.9-3.8,0.9-5.5,0l-1.5-0.7l-3.7-2.3c-11.8-7-24.5-13.9-36.7-21c-0.9-0.5-1.8-0.9-2.8-1.2
		c-0.9-0.5-2-0.1-2.4,0.7c0,0,0,0,0,0.1c-0.1,0.2-0.1,0.4,0,0.6c-0.1,1-0.1,2,0,3v47.5c0,2.5-1.3,4.9-3.4,6.3l-1.5,1
		c-12.7,6.7-25.4,14.4-37.9,21.7c-1.9,1.4-4,2.4-6.2,3.1h-2.2c-1.2-0.4-2.3-1-3.5-1.5c-12.9-7.9-25.9-15.4-39.1-22.7
		c-0.9-0.5-1.7-1-2.5-1.6c-1.5-1.2-2.6-2.9-3-4.9c-0.3-1.2-0.5-2.4-0.4-3.6v-45.3c0.1-1.2,0.1-2.5,0-3.7c0-1.3-0.8-1.7-2.1-1.2
		c-0.7,0.2-1.3,0.5-1.9,0.9l-6.7,3.7l-35.5,20.7c-2.8,2-6.6,2-9.5,0c-13.3-8.1-26.7-15.8-40-23.3l-1.8-1.2c-1.5-1.1-2.5-2.8-2.8-4.6
		c-0.2-1.5-0.2-3,0-4.5v-45.5c0-2.7,1.4-5.2,3.6-6.7l1.5-1.1l6.7-3.6c11.1-6.7,21.9-12.9,33-19l1.9-1.1l1.1-0.9
		c0.7-0.6,0.7-1.7,0-2.4c0,0,0,0,0,0l0,0l-1.1-1l-2.3-1.4l-6.1-3.4c-11-6.4-21.6-13.1-32.9-19.2c-0.9-0.5-1.7-1.1-2.5-1.7
		c-1.5-1.2-2.4-2.9-2.7-4.7c-0.1-1.1-0.1-2.1,0-3.2v-46.7c-0.1-2.6,1.2-5.2,3.3-6.7l1.7-1.3c13.3-7.4,26.7-14.7,39.5-22.5l1.9-0.9
		c1.8-0.7,3.9-0.7,5.7,0l2.5,1.3l5.9,3.5c10.8,6.3,21.9,12.5,32.6,18.9l2.8,1.5l1.6,0.5c0.9,0.1,1.7-0.4,2-1.2
		c0.1-0.3,0.1-0.6,0-0.9 M154.3,172.3c0.1,0.8-0.4,1.5-1.2,1.7c-0.3,0.1-0.7,0.1-1.1,0c-1.1-0.6-2.4-1.1-3.5-1.9l-78.4-45.6l-11-6
		c-0.9-0.5-1.9-1-2.9-1.4c-1,0-1.5,0-1.8,1.1v0.4c-0.1,1-0.1,2,0,2.9v40.9c-0.2,2.9,1.4,5.5,4,6.7c4.9,2.5,9.5,5.4,14.3,8.1
		c25.7,14.5,51.5,29.3,77.4,44.4l2,1.2c0.6,0.4,1.1,1,1.5,1.6c0.5,0.6,0.5,1.5,0,2.1c-0.2,0.4-0.6,0.7-0.9,1
		c-0.7,0.6-1.4,1.1-2.2,1.5l-78.1,44.7l-10.8,6.3c-0.9,0.5-1.8,1-2.6,1.7c-1.5,1.1-1.5,1.9,0,2.9c0.7,0.6,1.4,1.1,2.1,1.5l6.7,3.9
		c8.6,4.9,17.3,9.8,25.7,15.1c0.7,0.5,1.5,0.9,2.3,1.3c2.4,0.9,5,0.9,7.4,0c1.4-0.5,2.8-1.1,4.1-1.9c29.6-17.5,59.4-34.5,89-51.8
		l2.3-1.2h1.6c0.7-0.1,1.3,0.3,1.5,0.9c0.3,0.6,0.5,1.2,0.5,1.9v103.5c-0.2,1.3-0.2,2.6,0,3.9c0.4,2.1,1.3,2.5,3.3,1.9
		c1.1-0.5,2.1-1,3.1-1.7c10.6-6.7,21.3-12.7,32.1-18.7c0.9-0.5,1.8-1,2.5-1.7c1.3-1.1,2.1-2.5,2.5-4.1c0.1-1.1,0.1-2.3,0-3.4V228.5
		c-0.1-0.6-0.1-1.1,0-1.7c0.2-1.1,1.3-1.8,2.4-1.6c0,0,0,0,0,0l0,0l0.8,0.5c30.2,17.3,60.4,34.4,90.5,52.3c0.7,0.5,1.6,0.9,2.4,1.3
		c0.5,0.2,1,0.4,1.5,0.5c0.9,0.3,1.8-0.2,2.1-1.1l0,0c0.1-0.8,0.1-1.5,0-2.3v-39.7c0.1-3.4-1.6-6.7-4.5-8.5l-1.6-1l-5.4-3
		l-84.5-48.6c-0.7-0.4-1.4-0.8-2-1.3c-1.9-1.3-1.9-2.3,0-3.7c0.8-0.6,1.6-1.1,2.4-1.5c22.2-12.7,44.4-25.4,66.7-38.3
		c7.8-4.5,15.5-9.1,23.5-13.3c0.9-0.5,1.7-1.1,2.4-1.8c0.8-0.5,0.9-1.6,0.4-2.3c-0.1-0.2-0.3-0.3-0.4-0.4l-3.7-2.1
		c-10.7-6.1-21.5-12.1-31.9-18.6l-1.5-0.7c-2.5-1.2-5.3-1.2-7.8,0c-1,0.4-2,0.9-2.9,1.5l-71.1,41.3l-18.9,10.9
		c-1,0.6-2.1,1.2-3.3,1.7c-1.3,0.5-1.8,0-2.1-1.2c-0.1-1.1-0.1-2.2,0-3.3V41.2c0.1-1.7,0.1-3.3,0-5c0-2.1-1.2-2.6-3.1-1.9
		c-1,0.4-2,1-2.9,1.5c-10.7,6.7-21.6,12.8-32.7,18.9c-0.8,0.4-1.5,0.9-2.2,1.5c-1.7,1.3-2.8,3.3-2.9,5.5"/>
</g>
</svg>
