<svg xmlns="http://www.w3.org/2000/svg" viewBox="0 0 80 80">
  <path fill="#ef7730" d="m79.377 33.368-3.2-4.147L57.89 17.417c.06.347.125.694.2 1.038a43.016 43.016 0 0 0 .481 1.906q.156.577.322 1.128c.035.112.068.226.1.339C62.607 33.44 69.819 38.957 79.5 46.35a40.322 40.322 0 0 0 .119-11.924Z"/>
  <path fill="#f9d85e" d="M43.842 50c-17.4-7.782-28.278-23.577-28.912-39.473a.8.8 0 0 0-1.33-.565 40.017 40.017 0 1 0 63.843 44.3.8.8 0 0 0-.933-1.069A50.33 50.33 0 0 1 43.842 50Zm35.773-15.539C78.2 31.189 78.2 31.189 40.259 17.485 21.161 10.585 17.613 3.926 31.44.912q1.01-.217 2.037-.386a40.074 40.074 0 0 1 46.138 33.935"/>
  <path fill="#ef7730" d="m43.19.133-.461-.041c.626.044 1.242.122 1.86.193-.11-.013-.216-.029-.328-.042-.35-.043-.704-.076-1.071-.11Z"/>
</svg>
