<svg xmlns="http://www.w3.org/2000/svg" width="800" height="800" fill="none" viewBox="0 0 800 800"><path fill="#172852" d="M400 800C620.914 800 800 620.914 800 400C800 179.086 620.914 0 400 0C179.086 0 0 179.086 0 400C0 620.914 179.086 800 400 800Z"/><path fill="#FFD83D" d="M322.2 178.76C369.04 161.24 421.76 161.2 469.48 175.6C531.6 194.88 584.04 241.76 611.44 300.6C619 317.36 626.24 334.84 626.96 353.48C592.04 333.24 553.76 320.12 515.4 308.16C454.04 286.04 389.8 270.68 331.72 240.28C318.2 232.2 300.96 223.92 297.28 207.08C295.8 192.52 311.2 184.4 322.2 178.76Z"/><path fill="#FFD83D" d="M180.8 320.36C194.36 283.56 216.6 249.4 246.8 224.08C254.48 287.24 281.36 348.28 325.76 394.2C379 449.52 454.84 483.48 532 482.2C562.64 483.16 592.6 476.08 622.48 470.36C593.08 576.6 476.64 647.12 368.76 630.16C303.64 621.84 243.52 583.28 207.24 528.84C166.32 468.68 156 388.8 180.8 320.36Z"/><path fill="#FF6F03" d="M515.4 308.16C553.76 320.12 592.04 333.24 626.96 353.48L629.32 354.72C632.56 379.08 634.92 403.92 630.6 428.32C613.04 420.88 598.8 407.8 583.92 396.24C555.28 372.4 526.04 345.12 515.4 308.16Z"/></svg>