<svg xmlns="http://www.w3.org/2000/svg" viewBox="0 0 37.43 37.393">
    <defs>
        <linearGradient id="mint-logo" x1=".5" x2=".5" y1="1">
            <stop offset="0" stop-color="#66cc9a"/>
            <stop offset="1" stop-color="#339a99"/>
        </linearGradient>
    </defs>
    <path fill="url(#mint-logo)" stroke="rgba(0,0,0,0)" stroke-miterlimit="10" d="M32.952 32.823a14.582 14.582 0 0 1 0-29.164v.149-.149a14.582 14.582 0 0 1 0 29.164m13.159-14.581a13.158 13.158 0 1 0-3.855 9.3 13.175 13.175 0 0 0 3.855-9.3" transform="rotate(180 25.8445 18.47)"/>
    <path fill="url(#mint-logo)" stroke="rgba(0,0,0,0)" stroke-miterlimit="10" d="m38.242 24.787-.763.554-.765-.556a9.208 9.208 0 0 1-2.308-2.564 6.064 6.064 0 0 1-.528-1.149l-.028-.084.06-.066a6.954 6.954 0 0 0 .89-1.2 3.93 3.93 0 0 0 .567-1.937 2.649 2.649 0 0 0-.013-.269 3.835 3.835 0 0 0-.4-1.372 7.562 7.562 0 0 0-2-2.382 7.558 7.558 0 0 0-2 2.369 3.923 3.923 0 0 0-.406 1.375 2.186 2.186 0 0 0-.012.278 3.9 3.9 0 0 0 .58 1.958A6.771 6.771 0 0 0 32 20.934l.061.066-.028.085a6.138 6.138 0 0 1-.532 1.148A9.2 9.2 0 0 1 29.2 24.79l-.763.555-.763-.554c-.032-.022-3.1-2.24-3.1-5.27a5.281 5.281 0 0 1 .682-2.5l.043-.076h1.721l-.177.24a4.194 4.194 0 0 0-.826 2.34c0 2.007 1.969 3.675 2.414 4.026a7.539 7.539 0 0 0 1.952-2.294 5.927 5.927 0 0 1-1.3-3.466 4.881 4.881 0 0 1 .266-1.563 6.352 6.352 0 0 1 .531-1.148 9.161 9.161 0 0 1 2.305-2.556l.765-.555.764.555a9.209 9.209 0 0 1 2.309 2.563 6.4 6.4 0 0 1 .53 1.149 4.856 4.856 0 0 1 .26 1.562 5.909 5.909 0 0 1-1.291 3.455 7.508 7.508 0 0 0 1.954 2.294c.445-.351 2.414-2.017 2.414-4.02a4.191 4.191 0 0 0-.825-2.346l-.177-.24h1.727l.043.077a5.275 5.275 0 0 1 .682 2.5c.006 3.01-2.972 5.178-3.1 5.268" transform="rotate(180 25.8445 18.8845)"/>
    <path fill="url(#mint-logo)" stroke="rgba(0,0,0,0)" stroke-miterlimit="10" d="M47.667 8.087a.717.717 0 1 1-.716.716.717.717 0 0 1 .716-.716" transform="rotate(180 25.844 9.0325)"/>
    <path fill="url(#mint-logo)" stroke="rgba(0,0,0,0)" stroke-miterlimit="10" d="M50.537 22.9a.71.71 0 0 1-1.365-.392 16.7 16.7 0 1 0-5.48 8.593.7.7 0 0 1 .452-.168.718.718 0 0 1 .466 1.265A18.189 18.189 0 0 1 14.8 19.5c-.029-.413-.043-.836-.043-1.255A18.213 18.213 0 0 1 32.95.048h.03c.286 0 .575.007.864.021A18.186 18.186 0 0 1 50.537 22.9" transform="rotate(180 25.8445 18.4705)"/>
</svg>