<svg xmlns="http://www.w3.org/2000/svg" viewBox="0 0 80 80">
  <g>
    <path fill="#0e3ca5" d="M32.6 59.3c2 7.4 9.2 13 12.8 12.8.1 0 13.8-2.6 21.2-15 5.8-9.7 3.8-19-4.1-19.3-2.8.2-33.7 7.4-29.9 21.5m29.2-47.6C51.6 3.1 37.4 1.1 25.3 6.5c-.7.3-1.5.7-2.2 1.1-.5.3-1 .5-1.5.8h.1c-1.4 1-2.6 2.1-3.7 3.5C8.2 25 41.5 34.5 59.3 34.5c8.2 5.9 10.5-16.5 2.5-22.8z"/>
    <path fill="#5493f7" d="M27.3 12C22.7 18.9 7.5 23.7 5 23l.3-.6c1.7-3.3 4-6.4 6.6-9 1.3-1.3 2.7-2.5 4.3-3.6.9-.7 1.9-1.3 2.9-1.9 1.5-.9 3.2-1.3 5-1.3 6.8-.1 3.2 5.4 3.2 5.4m-3.8 48.6c.3 2.2 0 10.7-.5 11.4-.4 0-1.2.1-3.5-1.2-1.2-.7-2.4-1.4-3.5-2.3-1.5-1.1-2.9-2.3-4.3-3.7-2.6-2.6-4.9-5.7-6.6-9-.9-1.7-1.6-3.4-2.2-5.2-.5-1.8-.9-3.7-1.2-5.6-.7-3.9-.7-7.9 0-11.8.3-1.9.7-3.8 1.3-5.7.1-.4.2-.7.4-1.1 2.6 3.5 5.7 6.7 8.3 10.2 2.5 3.4 5.9 8.9 6.5 10 4.3 7.3 5 11.8 5.3 14m50.7-21.5c0 4.6-.9 9.1-2.5 13.4-4.3 4.6-33.3-6.8-33.6-6.9-4-1.7-16-7-17.1-15.3C19.4 18.4 43.6 10 54.3 9.7c1.3 0 5.2.1 7.4 1.9 8 6.9 12.5 17 12.5 27.5M54.6 71.5c-3.2 1.5-6.6.4-5.7-2.7 1.7-5.9 16.9-12 20.2-12.3.4 0 .6.2.4.6-3.5 6.1-8.7 11.1-14.9 14.4"/>
  </g>
  <linearGradient id="6d5ff199-0686-4e99-8b0f-e50d2a0fa61b" x1="17.331" x2="80" y1="7.641" y2="7.641" gradientTransform="matrix(1 0 0 -1 0 82)" gradientUnits="userSpaceOnUse">
    <stop offset="0" stop-color="gray"/>
    <stop offset=".33" stop-color="#838383"/>
    <stop offset=".59" stop-color="#8d8d8d"/>
    <stop offset=".83" stop-color="#9e9e9e"/>
    <stop offset="1" stop-color="#afafaf"/>
  </linearGradient>
  <path fill="url(#6d5ff199-0686-4e99-8b0f-e50d2a0fa61b)" d="M17.3 77.2c-.1 1.4.9 2.6 2.3 2.8 30.8.2 60.4-1.2 60.4-5.8 0-14-62.7 3-62.7 3z"/>
  <linearGradient id="16de2af4-eb68-4439-8a20-ed75f49083e4" x1="48.666" x2="48.666" y1="13.312" y2="2.002" gradientTransform="matrix(1 0 0 -1 0 82)" gradientUnits="userSpaceOnUse">
    <stop offset=".35" stop-color="#dfdfdf"/>
    <stop offset=".65" stop-color="#ddd"/>
    <stop offset=".75" stop-color="#d6d6d6"/>
    <stop offset=".83" stop-color="#cbcbcb"/>
    <stop offset=".89" stop-color="#bababa"/>
    <stop offset=".94" stop-color="#a4a4a4"/>
    <stop offset=".99" stop-color="#898989"/>
    <stop offset="1" stop-color="gray"/>
  </linearGradient>
  <path fill="url(#16de2af4-eb68-4439-8a20-ed75f49083e4)" d="M17.3 77.2c-.1 1.4.9 2.6 2.3 2.7 30.8.3 60.4-.7 60.4-5.7 0-14-62.7 3-62.7 3zm2.4 2.6h-.2c-1-.1-1.8-.8-2-1.8.2 1 1.1 1.8 2.2 1.8 30.7-.2 59.8-9.6 59.8-5.5S50.3 80 19.7 79.8z"/>
  <linearGradient id="aab76068-7da8-4d0c-b57d-e7dc36ed3558" x1="17.34" x2="80" y1="26.686" y2="26.686" gradientTransform="matrix(1 0 0 -1 0 82)" gradientUnits="userSpaceOnUse">
    <stop offset="0" stop-color="#bf1010"/>
    <stop offset=".02" stop-color="#c11212"/>
    <stop offset=".24" stop-color="#d22323"/>
    <stop offset=".49" stop-color="#dc2d2d"/>
    <stop offset=".79" stop-color="#df3030"/>
    <stop offset=".84" stop-color="#dc2e2e"/>
    <stop offset=".88" stop-color="#d22626"/>
    <stop offset=".92" stop-color="#c11919"/>
    <stop offset=".95" stop-color="#a90808"/>
    <stop offset=".97" stop-color="#9f0000"/>
    <stop offset="1" stop-color="#df3030"/>
  </linearGradient>
  <path fill="url(#aab76068-7da8-4d0c-b57d-e7dc36ed3558)" d="M19.7 37.8c-1.3 0-2.3 1-2.3 2.3v37.1c0 1.3 1 2.3 2.3 2.3C50.4 79.4 80 69.2 80 74.2V32.4c0-5-29.6 5.2-60.3 5.4z"/>
  <linearGradient id="2c4cb566-a9eb-4a1c-820c-d79271bc4f6a" x1="47.73" x2="80.02" y1="44.259" y2="44.259" gradientTransform="matrix(1 0 0 -1 0 82)" gradientUnits="userSpaceOnUse">
    <stop offset="0" stop-color="#dfdfdf"/>
    <stop offset=".02" stop-color="#e1e1e1"/>
    <stop offset=".24" stop-color="#f2f2f2"/>
    <stop offset=".49" stop-color="#fcfcfc"/>
    <stop offset=".79" stop-color="#fff"/>
    <stop offset=".84" stop-color="#fcfcfc"/>
    <stop offset=".88" stop-color="#f2f2f2"/>
    <stop offset=".92" stop-color="#e1e1e1"/>
    <stop offset=".95" stop-color="#c9c9c9"/>
    <stop offset=".97" stop-color="#bfbfbf"/>
    <stop offset="1" stop-color="#fff"/>
  </linearGradient>
  <path fill="url(#2c4cb566-a9eb-4a1c-820c-d79271bc4f6a)" d="m47.7 41.3 3.4-.5c1.1-.2 2.1-.3 3.1-.5s2-.3 2.9-.4l2.8-.4 2.7-.5 2.7-.4 2.7-.4 2.8-.4c.9-.1 1.8-.2 3.1-.4s2.7-.2 4-.2c1.2.1 2.3.4 2.3 1.3v-3c0-.8-1-1.2-2.3-1.2-1.3-.1-2.7 0-4 .2-1.2.1-2.2.3-3.1.4l-2.8.4-2.7.4-2.7.3-2.7.4-2.8.4-2.9.5-3.1.5-3.4.5"/>
  <linearGradient id="6091af0b-25b3-4bcb-91ea-085176e791c6" x1="47.73" x2="80.02" y1="38.294" y2="38.294" gradientTransform="matrix(1 0 0 -1 0 82)" gradientUnits="userSpaceOnUse">
    <stop offset="0" stop-color="#dfdfdf"/>
    <stop offset=".02" stop-color="#e1e1e1"/>
    <stop offset=".24" stop-color="#f2f2f2"/>
    <stop offset=".49" stop-color="#fcfcfc"/>
    <stop offset=".79" stop-color="#fff"/>
    <stop offset=".84" stop-color="#fcfcfc"/>
    <stop offset=".88" stop-color="#f2f2f2"/>
    <stop offset=".92" stop-color="#e1e1e1"/>
    <stop offset=".95" stop-color="#c9c9c9"/>
    <stop offset=".97" stop-color="#bfbfbf"/>
    <stop offset="1" stop-color="#fff"/>
  </linearGradient>
  <path fill="url(#6091af0b-25b3-4bcb-91ea-085176e791c6)" d="m47.7 47.2 3.4-.5 3.1-.5 2.9-.5 2.8-.4 2.7-.4 2.7-.4 2.7-.4 2.8-.4c.9-.1 1.8-.2 3.1-.4s2.7-.2 4-.2c1.2.1 2.3.4 2.3 1.3v-3c0-.8-1-1.2-2.3-1.2-1.3-.1-2.7 0-4 .2-1.2.1-2.2.3-3.1.4l-2.8.4-2.7.4-2.7.4-2.7.4-2.8.4-2.9.5-3.1.5-3.4.5"/>
  <linearGradient id="68c5d88e-fecd-49bb-81f3-9c720343e864" x1="47.72" x2="80.02" y1="32.379" y2="32.379" gradientTransform="matrix(1 0 0 -1 0 82)" gradientUnits="userSpaceOnUse">
    <stop offset="0" stop-color="#dfdfdf"/>
    <stop offset=".02" stop-color="#e1e1e1"/>
    <stop offset=".24" stop-color="#f2f2f2"/>
    <stop offset=".49" stop-color="#fcfcfc"/>
    <stop offset=".79" stop-color="#fff"/>
    <stop offset=".84" stop-color="#fcfcfc"/>
    <stop offset=".88" stop-color="#f2f2f2"/>
    <stop offset=".92" stop-color="#e1e1e1"/>
    <stop offset=".95" stop-color="#c9c9c9"/>
    <stop offset=".97" stop-color="#bfbfbf"/>
    <stop offset="1" stop-color="#fff"/>
  </linearGradient>
  <path fill="url(#68c5d88e-fecd-49bb-81f3-9c720343e864)" d="m47.7 53.2 3.4-.5 3.1-.5 2.9-.5c.9-.2 1.9-.3 2.8-.4l2.7-.4 2.7-.4 2.7-.4 2.8-.4c.9-.1 1.8-.2 3.1-.4s2.7-.2 4-.2c1.2.1 2.3.4 2.3 1.3v-3c0-.8-1-1.2-2.3-1.2-1.3-.1-2.7 0-4 .2-1.2.1-2.2.3-3.1.4l-2.8.4-2.7.4-2.7.4-2.7.4-2.8.4-2.9.5-3.1.5-3.4.5"/>
  <linearGradient id="fef5713d-157f-4a52-b599-209131a5f601" x1="17.31" x2="80.02" y1="19.393" y2="19.393" gradientTransform="matrix(1 0 0 -1 0 82)" gradientUnits="userSpaceOnUse">
    <stop offset="0" stop-color="#dfdfdf"/>
    <stop offset=".02" stop-color="#e1e1e1"/>
    <stop offset=".24" stop-color="#f2f2f2"/>
    <stop offset=".49" stop-color="#fcfcfc"/>
    <stop offset=".79" stop-color="#fff"/>
    <stop offset=".84" stop-color="#fcfcfc"/>
    <stop offset=".88" stop-color="#f2f2f2"/>
    <stop offset=".92" stop-color="#e1e1e1"/>
    <stop offset=".95" stop-color="#c9c9c9"/>
    <stop offset=".97" stop-color="#bfbfbf"/>
    <stop offset="1" stop-color="#fff"/>
  </linearGradient>
  <path fill="url(#fef5713d-157f-4a52-b599-209131a5f601)" d="m24.2 67.1 3.2-.1 3.1-.2 3-.2 2.9-.2 2.8-.3 2.8-.3 2.7-.3 2.7-.3 2.7-.4 2.7-.4 2.7-.4 2.8-.4 2.8-.4 2.9-.5 3-.5c1-.2 2-.3 3.1-.5s2-.3 3.3-.4c1.4-.2 2.8-.2 4.2-.2 1.3.1 2.4.4 2.4 1.3v-3c0-.9-1-1.2-2.4-1.3-1.4-.1-2.9 0-4.3.2-1.3.1-2.3.3-3.3.4s-2 .2-3 .4l-3 .5-2.9.4-2.8.5-2.8.4-2.7.4-2.7.4-2.7.3-2.7.3-2.7.5c-.9.1-1.8.2-2.8.3l-2.8.3-2.9.2c-1 .1-2 .2-3 .2s-2 .1-3.1.2l-3.2.1c-1.1 0-2.2.1-3.4.1h-3.5v3h3.5l3.4-.1z"/>
  <linearGradient id="f870b09d-d29b-46e8-a7cf-89d8f35acd21" x1="17.33" x2="80.02" y1="25.353" y2="25.353" gradientTransform="matrix(1 0 0 -1 0 82)" gradientUnits="userSpaceOnUse">
    <stop offset="0" stop-color="#dfdfdf"/>
    <stop offset=".02" stop-color="#e1e1e1"/>
    <stop offset=".24" stop-color="#f2f2f2"/>
    <stop offset=".49" stop-color="#fcfcfc"/>
    <stop offset=".79" stop-color="#fff"/>
    <stop offset=".84" stop-color="#fcfcfc"/>
    <stop offset=".88" stop-color="#f2f2f2"/>
    <stop offset=".92" stop-color="#e1e1e1"/>
    <stop offset=".95" stop-color="#c9c9c9"/>
    <stop offset=".97" stop-color="#bfbfbf"/>
    <stop offset="1" stop-color="#fff"/>
  </linearGradient>
  <path fill="url(#f870b09d-d29b-46e8-a7cf-89d8f35acd21)" d="M24.2 61.2c1.1 0 2.2-.1 3.2-.1s2.1-.1 3.1-.2l3-.2 2.9-.3c1-.1 1.9-.2 2.8-.3l2.8-.3 2.7-.3 2.7-.3 2.7-.4 2.7-.4 2.7-.4 2.8-.4 2.8-.4 2.9-.5 3-.5c1-.2 2-.3 3.1-.5s2-.3 3.3-.4c1.4-.2 2.8-.3 4.2-.2 1.3.1 2.4.4 2.4 1.3v-3c0-.9-1.1-1.2-2.4-1.3-1.4-.1-2.9 0-4.3.2-1.3.1-2.3.3-3.3.4s-2 .3-3 .5l-3 .5-2.9.5-2.8.5-2.8.3-2.7.4-2.7.4-2.7.4-2.7.3-2.7.3c-.9.1-1.8.2-2.8.3l-2.8.3-2.9.2c-1 .1-2 .2-3 .2l-3.1.2-3.2.1c-1.1 0-2.2.1-3.4.1h-3.5v3h6.9z"/>
  <linearGradient id="3a776bac-6d0b-4b8a-861d-36af2d7a2fee" x1="17.3" x2="80" y1="13.423" y2="13.423" gradientTransform="matrix(1 0 0 -1 0 82)" gradientUnits="userSpaceOnUse">
    <stop offset="0" stop-color="#dfdfdf"/>
    <stop offset=".02" stop-color="#e1e1e1"/>
    <stop offset=".24" stop-color="#f2f2f2"/>
    <stop offset=".49" stop-color="#fcfcfc"/>
    <stop offset=".79" stop-color="#fff"/>
    <stop offset=".84" stop-color="#fcfcfc"/>
    <stop offset=".88" stop-color="#f2f2f2"/>
    <stop offset=".92" stop-color="#e1e1e1"/>
    <stop offset=".95" stop-color="#c9c9c9"/>
    <stop offset=".97" stop-color="#bfbfbf"/>
    <stop offset="1" stop-color="#fff"/>
  </linearGradient>
  <path fill="url(#3a776bac-6d0b-4b8a-861d-36af2d7a2fee)" d="M77.6 63.9c-1.4-.1-2.9 0-4.3.2-1.3.2-2.3.3-3.3.4s-2 .3-3 .4l-3 .5-2.9.6-2.8.4-2.8.4-2.7.4-2.7.4-2.7.4-2.7.3-2.7.4c-.9.1-1.8.2-2.8.3l-2.8.3-2.9.2c-1 .1-2 .2-3 .2l-3.1.2-3.2.1c-1.1 0-2.2.1-3.4.1s-2.3.1-3.5.1v3c1.2 0 2.4 0 3.5-.1l3.4-.1 3.2-.1 3.1-.2 3-.2 2.9-.2 2.8-.3 2.8-.3 2.7-.3 2.7-.3 2.7-.4 2.7-.4 2.7-.4 2.8-.4 2.8-.4 2.9-.5 3-.5c1-.2 2-.3 3.1-.5s2-.3 3.3-.4c1.4-.2 2.9-.3 4.3-.2 1.3 0 2.3.3 2.3 1.2v-3c0-.9-1-1.2-2.4-1.3z"/>
  <linearGradient id="b779d34e-0a48-4d43-be4b-c032f36a21e5" x1="17.31" x2="80" y1="7.118" y2="7.118" gradientTransform="matrix(1 0 0 -1 0 82)" gradientUnits="userSpaceOnUse">
    <stop offset="0" stop-color="#dfdfdf"/>
    <stop offset=".02" stop-color="#e1e1e1"/>
    <stop offset=".24" stop-color="#f2f2f2"/>
    <stop offset=".49" stop-color="#fcfcfc"/>
    <stop offset=".79" stop-color="#fff"/>
    <stop offset=".84" stop-color="#fcfcfc"/>
    <stop offset=".88" stop-color="#f2f2f2"/>
    <stop offset=".92" stop-color="#e1e1e1"/>
    <stop offset=".95" stop-color="#c9c9c9"/>
    <stop offset=".97" stop-color="#bfbfbf"/>
    <stop offset="1" stop-color="#fff"/>
  </linearGradient>
  <path fill="url(#b779d34e-0a48-4d43-be4b-c032f36a21e5)" d="M80 74.2v-2.9c-.1-.8-1.1-1-2.4-1.1-1.4-.1-2.9 0-4.3.2-1.3.2-2.3.3-3.3.4s-2 .3-3 .5l-3 .5-2.9.5-2.8.4-2.8.4-2.7.4-2.7.4-2.7.4-2.7.3-2.7.3c-.9.1-1.8.2-2.8.3l-2.8.3-2.9.2c-1 .1-2 .2-3 .2l-3.1.2-3.2.1c-1.1 0-2.2.1-3.4.1s-2.4.1-3.5.1v.7c0 1.3 1 2.3 2.3 2.3 30.8 0 60.4-10.2 60.4-5.2z"/>
  <linearGradient id="1ab86d05-a7e3-408d-af43-59e4212f9b7f" x1="17.34" x2="80" y1="33.52" y2="33.52" gradientTransform="matrix(1 0 0 -1 0 82)" gradientUnits="userSpaceOnUse">
    <stop offset="0" stop-color="#010066"/>
    <stop offset=".19" stop-color="#081580"/>
    <stop offset=".4" stop-color="#0e2896"/>
    <stop offset=".61" stop-color="#1233a3"/>
    <stop offset=".79" stop-color="#1337a8"/>
    <stop offset=".83" stop-color="#1234a5"/>
    <stop offset=".86" stop-color="#0f2c9b"/>
    <stop offset=".89" stop-color="#0b1e8a"/>
    <stop offset=".92" stop-color="#040a72"/>
    <stop offset=".93" stop-color="#010066"/>
  </linearGradient>
  <path fill="url(#1ab86d05-a7e3-408d-af43-59e4212f9b7f)" d="m24 61.4 3-.1 2.8-.2 2.8-.2 2.7-.2c.9-.1 1.9-.2 2.8-.3l3-.3 3.2-.4 3.5-.5V35.4c-9.3 1.4-18.6 2.3-28 2.4-1.3 0-2.3 1-2.3 2.3v21.4H21l3-.1z"/>
  <linearGradient id="c17bc6c0-8b59-418b-8afe-982f0ac3f8f1" x1="19.63" x2="41.75" y1="32.642" y2="32.882" gradientTransform="matrix(1 0 0 -1 0 82)" gradientUnits="userSpaceOnUse">
    <stop offset="0" stop-color="#fc0"/>
    <stop offset=".04" stop-color="#fc0"/>
    <stop offset=".47" stop-color="#fc0"/>
    <stop offset=".6" stop-color="#ffc902"/>
    <stop offset=".71" stop-color="#ffbf09"/>
    <stop offset=".81" stop-color="#ffae15"/>
    <stop offset=".87" stop-color="#ff9f20"/>
  </linearGradient>
  <path fill="url(#c17bc6c0-8b59-418b-8afe-982f0ac3f8f1)" d="M24.2 49.3c0-4.1 3.3-7.4 7.4-7.4.9 0 1.7.2 2.6.5-3.8-2.6-9-1.6-11.5 2.2s-1.6 9 2.2 11.5c2.8 1.9 6.3 1.9 9.1.1-3.9 1.3-8.1-.7-9.4-4.6-.2-.7-.3-1.5-.4-2.3z"/>
  <linearGradient id="042aa977-5dcb-483d-9fdb-b46766594145" x1="29.22" x2="52.7" y1="32.65" y2="32.91" gradientTransform="matrix(1 0 0 -1 0 82)" gradientUnits="userSpaceOnUse">
    <stop offset="0" stop-color="#fc0"/>
    <stop offset=".04" stop-color="#fc0"/>
    <stop offset=".47" stop-color="#fc0"/>
    <stop offset=".65" stop-color="#ffc902"/>
    <stop offset=".79" stop-color="#ffbf09"/>
    <stop offset=".92" stop-color="#ffae15"/>
    <stop offset="1" stop-color="#ff9f20"/>
  </linearGradient>
  <path fill="url(#042aa977-5dcb-483d-9fdb-b46766594145)" d="m41.1 49.3 3.7-1.6-4 .2 2.6-3-3.5 1.9 1-3.8-2.3 3.2-.8-3.9-.7 3.9-2.3-3.2 1 3.8-3.5-1.9 2.6 3-4-.2 3.7 1.5-3.7 1.6 4-.2-2.6 3 3.5-1.9-1.1 3.8 2.4-3.1.7 3.8.7-3.8 2.4 3.1-1-3.7 3.5 1.8-2.6-3 4 .2z"/>
</svg>
