<svg width="25" height="24" viewBox="0 0 25 24" fill="none" xmlns="http://www.w3.org/2000/svg">
<g clip-path="url(#clip0_1251_929)">
<path d="M12.5 24C19.1274 24 24.5 18.6274 24.5 12C24.5 5.37258 19.1274 0 12.5 0C5.87258 0 0.5 5.37258 0.5 12C0.5 18.6274 5.87258 24 12.5 24Z" fill="#A09DF7"/>
<path d="M12.5 18.963C16.3456 18.963 19.463 15.8455 19.463 12C19.463 8.15445 16.3456 5.03702 12.5 5.03702C8.65448 5.03702 5.53705 8.15445 5.53705 12C5.53705 15.8455 8.65448 18.963 12.5 18.963Z" fill="#A09DF7"/>
<path d="M12.5247 1.53091C11.2294 1.53091 10.179 6.22916 10.179 12.0248C10.179 17.8204 11.2294 22.5186 12.5247 22.5186C13.82 22.5186 14.8703 17.8204 14.8703 12.0248C14.8703 6.22916 13.82 1.53091 12.5247 1.53091ZM12.6866 21.9264C12.5385 22.124 12.3904 21.9758 12.3904 21.9758C11.7938 21.2846 11.4956 20.0005 11.4956 20.0005C10.4521 16.6425 10.7005 9.43258 10.7005 9.43258C11.1909 3.70867 12.0829 2.35651 12.3864 2.05632C12.4174 2.02568 12.4583 2.00696 12.5017 2.00345C12.5451 1.99994 12.5884 2.01186 12.6239 2.03712C13.0644 2.34922 13.4338 3.65444 13.4338 3.65444C14.5246 7.70381 14.4259 11.5063 14.4259 11.5063C14.5246 14.8149 13.8792 18.5186 13.8792 18.5186C13.3824 21.3333 12.6866 21.9264 12.6866 21.9264Z" fill="#25273C"/>
<path d="M21.6269 6.80247C20.982 5.6785 16.3845 7.10564 11.3549 9.98967C6.3254 12.8737 2.77763 16.123 3.42208 17.2465C4.06652 18.37 8.66454 16.9433 13.6941 14.0593C18.7236 11.1753 22.2714 7.92596 21.6269 6.80247V6.80247ZM4.01708 17.0923C3.77017 17.0612 3.82595 16.8583 3.82595 16.8583C4.12883 15.9971 5.09267 15.0993 5.09267 15.0993C7.48719 12.523 13.865 9.15063 13.865 9.15063C19.0734 6.7274 20.6912 6.82964 21.1016 6.94263C21.1437 6.95439 21.1804 6.98068 21.2049 7.01684C21.2295 7.053 21.2406 7.0967 21.236 7.1402C21.1867 7.6778 20.236 8.6474 20.236 8.6474C17.2684 11.6099 13.9208 13.4168 13.9208 13.4168C11.1001 15.1496 7.5663 16.432 7.5663 16.432C4.87744 17.401 4.01718 17.0923 4.01718 17.0923H4.01708Z" fill="#25273C"/>
<path d="M21.6042 17.2839C22.2541 16.1629 18.7152 12.8988 13.7034 9.99302C8.69148 7.0873 4.09452 5.6425 3.44518 6.76541C2.79583 7.88832 6.33411 11.1506 11.3489 14.0563C16.3636 16.962 20.9548 18.4069 21.6042 17.2839ZM3.87583 7.19856C3.77983 6.97094 3.98249 6.91613 3.98249 6.91613C4.87971 6.74669 6.13999 7.1328 6.13999 7.1328C9.56864 7.91357 15.6824 11.7432 15.6824 11.7432C20.3896 15.0371 21.1115 16.4879 21.2197 16.8997C21.2307 16.942 21.2264 16.9868 21.2076 17.0262C21.1888 17.0656 21.1567 17.097 21.117 17.1151C20.6261 17.3398 19.3115 17.005 19.3115 17.005C15.2596 15.9185 12.0191 13.928 12.0191 13.928C9.10755 12.3576 6.22851 9.94128 6.22851 9.94128C4.04086 8.09933 3.87651 7.20106 3.87651 7.20106L3.87583 7.19856Z" fill="#25273C"/>
<path d="M12.5 13.2346C13.1818 13.2346 13.7346 12.6818 13.7346 12C13.7346 11.3182 13.1818 10.7654 12.5 10.7654C11.8182 10.7654 11.2654 11.3182 11.2654 12C11.2654 12.6818 11.8182 13.2346 12.5 13.2346Z" fill="#25273C"/>
<path d="M17.5617 7.99997C17.9572 7.99997 18.2778 7.66833 18.2778 7.25923C18.2778 6.85013 17.9572 6.51849 17.5617 6.51849C17.1662 6.51849 16.8456 6.85013 16.8456 7.25923C16.8456 7.66833 17.1662 7.99997 17.5617 7.99997Z" fill="#25273C"/>
<path d="M5.80859 10.5185C6.20406 10.5185 6.52466 10.1869 6.52466 9.77778C6.52466 9.36869 6.20406 9.03705 5.80859 9.03705C5.41312 9.03705 5.09253 9.36869 5.09253 9.77778C5.09253 10.1869 5.41312 10.5185 5.80859 10.5185Z" fill="#25273C"/>
<path d="M11.0432 19.6049C11.4387 19.6049 11.7593 19.2733 11.7593 18.8642C11.7593 18.4551 11.4387 18.1234 11.0432 18.1234C10.6477 18.1234 10.3271 18.4551 10.3271 18.8642C10.3271 19.2733 10.6477 19.6049 11.0432 19.6049Z" fill="#25273C"/>
</g>
<defs>
<clipPath id="clip0_1251_929">
<rect width="24" height="24" fill="white" transform="translate(0.5)"/>
</clipPath>
</defs>
</svg>
