<svg width="40" height="40" viewBox="0 0 40 40" fill="none" xmlns="http://www.w3.org/2000/svg">
<circle cx="20" cy="20" r="20" fill="#A09DF7"/>
<path d="M11.0018 20.2111C11.018 19.9967 11.0306 19.7805 11.0522 19.5661C11.1369 18.7013 11.3495 17.8672 11.681 17.0655C12.1855 15.844 12.9295 14.7882 13.8952 13.8892C13.9456 13.8424 13.9979 13.7974 14.0501 13.7505C14.1078 13.6983 14.1726 13.6784 14.2483 13.7091C14.324 13.7397 14.3564 13.7992 14.36 13.8766C14.3798 14.2964 14.4267 14.7126 14.5059 15.1251C14.7942 16.6205 15.423 17.9645 16.3364 19.177C17.3147 20.4759 18.5271 21.5029 19.9486 22.2884C21.0764 22.9135 22.2745 23.3477 23.5428 23.5873C24.132 23.699 24.7283 23.7603 25.3282 23.7765C26.2921 23.8035 27.2433 23.7044 28.1802 23.4756C28.2594 23.4558 28.3369 23.454 28.3946 23.5243C28.4504 23.5927 28.445 23.6648 28.4144 23.7441C28.0451 24.6989 27.528 25.5637 26.8632 26.3402C26.0561 27.2842 25.094 28.0337 23.9788 28.5814C23.0672 29.03 22.1069 29.3128 21.098 29.4336C19.7522 29.5939 18.4353 29.466 17.1525 29.0336C15.6788 28.5363 14.4177 27.7094 13.3691 26.5636C12.3368 25.4376 11.6342 24.1332 11.263 22.6523C11.1153 22.0632 11.0306 21.465 11.009 20.8579C11.009 20.8345 11.0036 20.811 11 20.7876C11.0018 20.5948 11.0018 20.4039 11.0018 20.2111Z" fill="#1A1B2A"/>
<path d="M20.2893 11.5C20.5037 11.5162 20.7199 11.5288 20.9342 11.5504C21.8387 11.6387 22.7088 11.8657 23.543 12.2242C24.6059 12.6783 25.5446 13.316 26.3625 14.134C27.3318 15.1032 28.0452 16.2346 28.4992 17.5282C28.6758 18.029 28.8001 18.5443 28.8902 19.0668C28.8974 19.1046 28.8956 19.1442 28.8974 19.1821C28.8758 19.1785 28.8703 19.1587 28.8631 19.1442C28.7713 18.9244 28.6091 18.7713 28.4109 18.6488C28.0524 18.4272 27.6651 18.2669 27.2777 18.1065C26.5427 17.802 25.795 17.5264 25.0491 17.2507C24.8726 17.1859 24.6996 17.1102 24.5177 17.0634H24.5195C24.514 17.058 24.5068 17.0508 24.5014 17.0454C22.9827 16.4941 21.4621 15.9446 19.9434 15.3915C19.075 15.0762 18.2246 14.7231 17.4283 14.2493C17.0626 14.0313 16.7113 13.7917 16.4356 13.4566C16.3239 13.3214 16.2338 13.1737 16.2032 12.9971C16.1546 12.6963 16.3005 12.4837 16.5239 12.3107C16.8049 12.0909 17.1328 11.9666 17.4679 11.8639C18.0481 11.6856 18.6426 11.5811 19.2479 11.5324C19.3975 11.5198 19.547 11.5108 19.6947 11.5C19.8929 11.5 20.0911 11.5 20.2893 11.5Z" fill="#1A1B2A"/>
<path d="M24.517 17.0618C24.7007 17.1086 24.8737 17.1843 25.0484 17.2491C25.7943 17.5266 26.542 17.8004 27.277 18.1049C27.6644 18.2652 28.0517 18.4256 28.4103 18.6472C28.6084 18.7697 28.7706 18.9228 28.8625 19.1426C28.8697 19.1588 28.8733 19.1769 28.8967 19.1805C28.8913 19.2021 28.8931 19.2201 28.9111 19.2363C28.9561 19.4903 28.9742 19.748 28.9886 20.0038C29.0246 20.6434 28.9922 21.2793 28.8931 21.9099C28.8643 21.9189 28.8516 21.8991 28.8354 21.8865C28.1004 21.3244 27.3617 20.7641 26.6807 20.1353C25.7583 19.2868 25.0106 18.3139 24.5404 17.141C24.526 17.1194 24.5008 17.096 24.517 17.0618Z" fill="#1A1B2A" fill-opacity="0.6"/>
<path d="M28.9077 19.2377C28.8897 19.2233 28.8879 19.2035 28.8933 19.1819C28.9149 19.1981 28.9095 19.2179 28.9077 19.2377Z" fill="#FED73F"/>
<path d="M24.501 17.0452C24.5064 17.0506 24.5118 17.0578 24.519 17.0632C24.501 17.0686 24.5028 17.0524 24.501 17.0452Z" fill="#FE6F03"/>
</svg>
