<svg xmlns="http://www.w3.org/2000/svg" xmlns:xlink="http://www.w3.org/1999/xlink" viewBox="0 0 80 80">
  <defs>
    <linearGradient id="beba679e-1677-47c6-8af9-b3bcadf968ad" x1="17.335" x2="80" y1="74.339" y2="74.339" gradientUnits="userSpaceOnUse">
      <stop offset="0" stop-color="#700000"/>
      <stop offset=".327" stop-color="#730000"/>
      <stop offset=".59" stop-color="#7d0000"/>
      <stop offset=".83" stop-color="#8e0000"/>
      <stop offset="1" stop-color="#9f0000"/>
    </linearGradient>
    <linearGradient id="bd75c1e5-86be-4758-92f0-81671e127ab7" x1="17.584" x2="17.584" y1="68.073" y2="80.102" gradientUnits="userSpaceOnUse">
      <stop offset=".35" stop-color="#dfdfdf"/>
      <stop offset=".645" stop-color="#ddd"/>
      <stop offset=".752" stop-color="#d6d6d6"/>
      <stop offset=".828" stop-color="#cbcbcb"/>
      <stop offset=".889" stop-color="#bababa"/>
      <stop offset=".941" stop-color="#a4a4a4"/>
      <stop offset=".987" stop-color="#898989"/>
      <stop offset="1" stop-color="gray"/>
    </linearGradient>
    <linearGradient id="eae32d70-ce4c-4323-af0a-70bac4383b2f" x1="48.667" x2="48.667" y1="68.69" y2="80" gradientUnits="userSpaceOnUse">
      <stop offset=".35" stop-color="#cf2000"/>
      <stop offset=".645" stop-color="#cd1f00"/>
      <stop offset=".752" stop-color="#c61d00"/>
      <stop offset=".828" stop-color="#bb1900"/>
      <stop offset=".889" stop-color="#aa1300"/>
      <stop offset=".941" stop-color="#940c00"/>
      <stop offset=".987" stop-color="#790300"/>
      <stop offset="1" stop-color="#700000"/>
    </linearGradient>
    <linearGradient xlink:href="#bd75c1e5-86be-4758-92f0-81671e127ab7" id="b41dc3c9-ed67-4bfd-92a6-b7427cf3ef7d" x1="38.026" x2="38.026" y1="68.69" y2="80"/>
    <linearGradient id="a65d03f5-3d3a-4739-964b-d77104073fb0" x1="37.877" x2="37.877" y1="68.689" y2="80" gradientUnits="userSpaceOnUse">
      <stop offset=".35" stop-color="#10208f"/>
      <stop offset=".645" stop-color="#101f8d"/>
      <stop offset=".752" stop-color="#0f1d86"/>
      <stop offset=".828" stop-color="#0d197b"/>
      <stop offset=".889" stop-color="#0a136a"/>
      <stop offset=".941" stop-color="#060c54"/>
      <stop offset=".987" stop-color="#020339"/>
      <stop offset="1" stop-color="#000030"/>
    </linearGradient>
    <linearGradient id="f9e2b850-e612-4203-a347-973db6412feb" x1="17.335" x2="80" y1="55.313" y2="55.313" gradientUnits="userSpaceOnUse">
      <stop offset="0" stop-color="#cf2000"/>
      <stop offset=".021" stop-color="#d12201"/>
      <stop offset=".244" stop-color="#e23309"/>
      <stop offset=".487" stop-color="#ec3d0e"/>
      <stop offset=".791" stop-color="#ef4010"/>
      <stop offset=".841" stop-color="#ec3d0f"/>
      <stop offset=".882" stop-color="#e2330d"/>
      <stop offset=".919" stop-color="#d12208"/>
      <stop offset=".954" stop-color="#b90a03"/>
      <stop offset=".966" stop-color="#af0000"/>
      <stop offset="1" stop-color="#ef4010"/>
    </linearGradient>
    <linearGradient id="a08db80f-14f0-496d-9df7-e1630ccdf289" x1="17.335" x2="80" y1="57.229" y2="57.229" gradientUnits="userSpaceOnUse">
      <stop offset="0" stop-color="#dfdfdf"/>
      <stop offset=".021" stop-color="#e1e1e1"/>
      <stop offset=".244" stop-color="#f2f2f2"/>
      <stop offset=".487" stop-color="#fcfcfc"/>
      <stop offset=".791" stop-color="#fff"/>
      <stop offset=".841" stop-color="#fcfcfc"/>
      <stop offset=".882" stop-color="#f2f2f2"/>
      <stop offset=".919" stop-color="#e1e1e1"/>
      <stop offset=".954" stop-color="#c9c9c9"/>
      <stop offset=".966" stop-color="#bfbfbf"/>
      <stop offset="1" stop-color="#fff"/>
    </linearGradient>
    <linearGradient id="ae3c0851-52e0-4846-8da2-b0a3dbe68cd2" x1="17.335" x2="80" y1="57.28" y2="57.28" gradientUnits="userSpaceOnUse">
      <stop offset="0" stop-color="#00209f"/>
      <stop offset=".021" stop-color="#0222a1"/>
      <stop offset=".244" stop-color="#1333b2"/>
      <stop offset=".487" stop-color="#1d3dbc"/>
      <stop offset=".791" stop-color="#2040bf"/>
      <stop offset=".841" stop-color="#1e3dbc"/>
      <stop offset=".882" stop-color="#1933b2"/>
      <stop offset=".919" stop-color="#1122a1"/>
      <stop offset=".954" stop-color="#050a89"/>
      <stop offset=".966" stop-color="#00007f"/>
      <stop offset="1" stop-color="#2040bf"/>
    </linearGradient>
  </defs>
  <path fill="#0e3ca5" d="M32.585 59.259c2 7.4 9.176 13.044 12.8 12.811.127-.008 13.745-2.547 21.2-15 5.8-9.693 3.826-19.051-4.065-19.255-2.838.207-33.745 7.348-29.934 21.446m29.199-47.528-.008-.007.011-.006a34.626 34.626 0 0 0-36.5-5.267 20.236 20.236 0 0 0-2.2 1.075c-.486.258-.972.516-1.444.8l.115.035a15.78 15.78 0 0 0-3.655 3.46C8.172 24.951 41.486 34.495 59.3 34.526c8.191 5.883 10.491-16.56 2.485-22.793Z"/>
  <path fill="#5493f7" d="M27.3 12C22.723 18.878 7.478 23.725 4.971 22.97l-.017-.032q.155-.31.313-.618a36.676 36.676 0 0 1 10.87-12.684q1.407-1.03 2.914-1.928a10.792 10.792 0 0 1 5.039-1.343c6.789.13 3.244 5.58 3.208 5.635m-3.753 48.611c.328 2.162-.009 10.7-.451 11.419-.381.023-1.174.071-3.471-1.217A36.542 36.542 0 0 1 3.054 27.556q.183-.551.383-1.093c2.631 3.5 5.676 6.665 8.264 10.2 2.465 3.366 5.856 8.852 6.546 10.024 4.284 7.278 4.967 11.768 5.3 13.925m50.642-21.52a36.418 36.418 0 0 1-2.54 13.408c-4.3 4.621-33.284-6.753-33.568-6.877-3.965-1.739-16.031-7.023-17.12-15.329-1.561-11.945 22.67-20.269 33.32-20.585 1.277.015 5.163.06 7.428 1.9a36.415 36.415 0 0 1 12.48 27.483m-19.62 32.373c-3.16 1.475-6.639.4-5.735-2.677 1.735-5.908 16.886-11.966 20.232-12.295.413-.04.589.241.405.561a36.864 36.864 0 0 1-14.9 14.411"/>
  <path fill="url(#beba679e-1677-47c6-8af9-b3bcadf968ad)" d="M17.335 77.254a2.551 2.551 0 0 0 2.328 2.714c30.7.21 60.337-1.2 60.337-5.8 0-13.925-62.665 3.086-62.665 3.086Z"/>
  <path fill="url(#bd75c1e5-86be-4758-92f0-81671e127ab7)" d="M17.586 78.389v-.007Z"/>
  <path fill="url(#eae32d70-ce4c-4323-af0a-70bac4383b2f)" d="m40.43 71.956 5.757 5.758c19.066-2.581 33.332-6.324 33.332-3.414 0 4.245-29.173 5.7-59.843 5.494a2.194 2.194 0 0 1-.245-.014 2.35 2.35 0 0 1-1.845-1.388v-.007a2.532 2.532 0 0 1-.138-.368 2.654 2.654 0 0 0 .138.368v.007a2.327 2.327 0 0 0 2.087 1.386c5.093-.031 10.143-.319 15.027-.756l-4.834-4.836c-7.364 1.669-12.531 3.071-12.531 3.071a2.549 2.549 0 0 0 2.34 2.714c30.692.233 60.288-.731 60.325-5.8 0-8.198-21.707-5.671-39.57-2.215Z"/>
  <path fill="url(#b41dc3c9-ed67-4bfd-92a6-b7427cf3ef7d)" d="m46.187 77.714-5.757-5.758c-3.774.731-7.375 1.5-10.564 2.227l4.834 4.836c3.963-.356 7.813-.809 11.487-1.305Z"/>
  <path fill="url(#a65d03f5-3d3a-4739-964b-d77104073fb0)" d="M37.719 72.494c-1.827.371-3.595.746-5.278 1.115l5.132 5.133q2.922-.3 5.739-.655Z"/>
  <path fill="url(#f9e2b850-e612-4203-a347-973db6412feb)" d="M19.678 37.821a2.343 2.343 0 0 0-2.343 2.344v37.089a2.342 2.342 0 0 0 2.328 2.346C50.362 79.37 80.037 69.209 80 74.169V32.392c.037-4.96-29.628 5.199-60.322 5.429Z"/>
  <path fill="url(#a08db80f-14f0-496d-9df7-e1630ccdf289)" d="M80 47.621c0-.9-.959-1.237-2.161-1.351a20.447 20.447 0 0 0-3.9.134c-1.242.136-2.153.274-3.076.409s-1.82.276-2.7.42-1.751.289-2.61.439-1.71.3-2.562.451-1.707.3-2.569.444l-2.619.451c-.885.152-1.778.307-2.7.461s-1.875.3-2.86.458-2 .309-3.055.473-2.133.325-3.276.483V35.658c-3.664.52-7.5.994-11.429 1.367v15.191c-1.143.106-2.19.2-3.173.277s-1.9.144-2.795.2-1.748.1-2.606.141-1.711.073-2.6.1-1.81.059-2.8.078-2.035.034-3.178.033v11.398c1.142 0 2.191-.014 3.176-.033s1.907-.047 2.8-.078 1.743-.065 2.6-.1 1.716-.085 2.605-.142 1.812-.121 2.8-.2 2.028-.171 3.173-.277V78.8c3.931-.372 7.762-.846 11.425-1.366V62.288a216.24 216.24 0 0 0 3.279-.483l3.052-.473q1.476-.229 2.86-.458c.924-.153 1.819-.311 2.7-.462l2.618-.45c.861-.149 1.715-.294 2.569-.444l2.562-.451c.862-.151 1.727-.3 2.61-.439s1.782-.284 2.7-.42 1.833-.273 3.075-.408a20.449 20.449 0 0 1 3.9-.135c1.2.114 2.161.456 2.161 1.351V47.621Z"/>
  <path fill="url(#ae3c0851-52e0-4846-8da2-b0a3dbe68cd2)" d="M80 50.47c0-.895-.962-1.236-2.172-1.351a20.623 20.623 0 0 0-3.929.14c-1.252.138-2.164.277-3.1.414s-1.844.279-2.738.425-1.769.294-2.636.445-1.723.306-2.577.453-1.706.3-2.562.445-1.715.293-2.583.443-1.742.3-2.637.45-1.809.292-2.749.441-1.905.3-2.9.449-2 .307-3.064.456-2.161.294-3.306.44V36.049c-1.867.246-3.773.477-5.707.686v18.049a285.096 285.096 0 0 1-6.066.562 160.008 160.008 0 0 1-5.227.33c-.864.041-1.736.075-2.645.106s-1.855.062-2.86.081-2.067.034-3.21.035v5.7c1.142 0 2.206-.014 3.209-.035s1.95-.049 2.86-.081a197.226 197.226 0 0 0 5.225-.248c.864-.054 1.739-.117 2.648-.189s1.852-.155 2.856-.247 2.066-.2 3.21-.314V78.51q2.9-.314 5.706-.685v-18.01q1.716-.215 3.305-.439c1.06-.15 2.074-.3 3.066-.457s1.956-.3 2.9-.448 1.855-.294 2.749-.441 1.769-.3 2.638-.45l2.584-.443c.856-.148 1.708-.294 2.562-.444l2.577-.453a211.968 211.968 0 0 1 5.374-.871c.933-.138 1.848-.277 3.1-.414a20.538 20.538 0 0 1 3.929-.14c1.21.114 2.172.457 2.172 1.35V50.47Z"/>
</svg>
