<svg xmlns="http://www.w3.org/2000/svg" viewBox="0 0 80 80">
  <defs>
    <linearGradient id="e008eeb1-1ee9-4233-82ce-152822e48dd8" x1="17.336" x2="80" y1="74.339" y2="74.339" gradientUnits="userSpaceOnUse">
      <stop offset="0" stop-color="#004080"/>
      <stop offset=".325" stop-color="#004383"/>
      <stop offset=".585" stop-color="#004d8d"/>
      <stop offset=".823" stop-color="#005e9d"/>
      <stop offset="1" stop-color="#0070af"/>
    </linearGradient>
    <linearGradient id="b5a4db3f-1e6f-443f-add9-3f4fad334523" x1="48.668" x2="48.668" y1="68.69" y2="80" gradientUnits="userSpaceOnUse">
      <stop offset=".35" stop-color="#009fdf"/>
      <stop offset=".645" stop-color="#009ddd"/>
      <stop offset=".752" stop-color="#0096d6"/>
      <stop offset=".828" stop-color="#008bcb"/>
      <stop offset=".889" stop-color="#007aba"/>
      <stop offset=".941" stop-color="#0064a4"/>
      <stop offset=".987" stop-color="#004989"/>
      <stop offset="1" stop-color="#004080"/>
    </linearGradient>
    <linearGradient id="fad8d21f-383d-4f1c-b1b9-2c8540e2428c" x1="17.336" x2="80" y1="55.314" y2="55.314" gradientUnits="userSpaceOnUse">
      <stop offset="0" stop-color="#009fdf"/>
      <stop offset=".021" stop-color="#02a1e1"/>
      <stop offset=".244" stop-color="#13b2f2"/>
      <stop offset=".487" stop-color="#1dbcfc"/>
      <stop offset=".791" stop-color="#20bfff"/>
      <stop offset=".841" stop-color="#1ebcfc"/>
      <stop offset=".882" stop-color="#19b2f2"/>
      <stop offset=".919" stop-color="#11a1e1"/>
      <stop offset=".954" stop-color="#0589c9"/>
      <stop offset=".966" stop-color="#007fbf"/>
      <stop offset="1" stop-color="#20bfff"/>
    </linearGradient>
  </defs>
  <path fill="#0e3ca5" d="M32.585 59.26c2 7.4 9.176 13.045 12.8 12.812.127-.009 13.745-2.548 21.2-15 5.8-9.693 3.826-19.05-4.065-19.255-2.838.208-33.745 7.349-29.934 21.446m29.199-47.528-.008-.007.011-.007a34.628 34.628 0 0 0-36.5-5.266A20.236 20.236 0 0 0 23.1 7.53c-.486.258-.972.516-1.444.8l.115.035a15.759 15.759 0 0 0-3.655 3.46C8.172 24.953 41.486 34.5 59.3 34.528c8.191 5.883 10.491-16.561 2.485-22.793Z"/>
  <path fill="#5493f7" d="M27.3 12C22.723 18.88 7.478 23.727 4.971 22.972l-.017-.032c.1-.207.207-.414.313-.619a36.682 36.682 0 0 1 10.87-12.683q1.407-1.03 2.914-1.929a10.8 10.8 0 0 1 5.039-1.342c6.789.13 3.244 5.58 3.208 5.635m-3.754 48.611c.329 2.161-.008 10.7-.45 11.418-.381.023-1.174.072-3.471-1.217A36.541 36.541 0 0 1 3.054 27.558q.183-.55.383-1.093c2.631 3.5 5.676 6.666 8.264 10.2 2.465 3.366 5.856 8.852 6.546 10.024 4.284 7.278 4.967 11.767 5.294 13.925m50.648-21.52a36.418 36.418 0 0 1-2.54 13.406c-4.3 4.62-33.284-6.753-33.568-6.877C34.116 43.886 22.05 38.6 20.961 30.3 19.4 18.35 43.63 10.026 54.28 9.711c1.277.015 5.164.06 7.429 1.9a36.415 36.415 0 0 1 12.48 27.483M54.568 71.467c-3.159 1.474-6.638.4-5.734-2.677 1.735-5.909 16.886-11.967 20.232-12.3.413-.041.588.24.405.561a36.86 36.86 0 0 1-14.9 14.411"/>
  <path fill="url(#e008eeb1-1ee9-4233-82ce-152822e48dd8)" d="M17.336 77.254a2.552 2.552 0 0 0 2.329 2.714c30.7.21 60.335-1.2 60.335-5.8 0-13.924-62.664 3.086-62.664 3.086Z"/>
  <path fill="url(#b5a4db3f-1e6f-443f-add9-3f4fad334523)" d="M17.336 77.254a2.549 2.549 0 0 0 2.34 2.714c30.692.233 60.287-.731 60.324-5.8 0-13.924-62.664 3.086-62.664 3.086Zm2.342 2.537a2.194 2.194 0 0 1-.245-.014 2.4 2.4 0 0 1-1.988-1.763 2.372 2.372 0 0 0 2.23 1.762c30.67-.193 59.844-9.636 59.844-5.479 0 4.245-29.172 5.703-59.841 5.494Z"/>
  <path fill="url(#fad8d21f-383d-4f1c-b1b9-2c8540e2428c)" d="M19.68 37.822a2.343 2.343 0 0 0-2.344 2.344v37.088a2.344 2.344 0 0 0 2.329 2.346C50.363 79.37 80.037 69.209 80 74.169V32.394c.037-4.961-29.627 5.199-60.32 5.428Z"/>
  <path fill="#fff" d="M40.681 58.057c-.073.042-.072.042-.072.108-.072.043-.072.109-.144.119-.036.037-.036.1-.071.141 0 .066-.036.1 0 .164v.164c0 .066-.035.2.037.258.036.061.108.084.145.112.036 0 .108-.08.108-.08.036-.038-.037-.094-.037-.127a1.42 1.42 0 0 1 .036-.169.193.193 0 0 1 .072-.141c0-.033.073-.109.073-.142 0-.131.036-.235-.038-.324.001-.033-.072-.088-.109-.083Zm5.147-1.508c0-.033.083-.107.124-.144.041-.07.083-.075 0-.13-.043-.028-.044-.093 0-.1.084-.074.084-.042.125-.111 0-.033-.127-.051-.169-.046-.042-.028-.083.042-.124.079s-.125.08-.167.117a.491.491 0 0 1-.292.131c-.083.042-.083.042-.082.106-.041.07 0 .1.043.125a.578.578 0 0 0 .043.125c.043.028.126-.014.168-.019.084-.009.126-.014.168.014a.1.1 0 0 0 .126-.015c-.004-.062.038-.067.037-.132Zm-.374.466c-.042.005-.209.024-.209-.009-.042-.061-.042-.126-.084-.154-.042.037 0 .1-.041.136-.042.07.041.093.083.121.084-.009.126.019.209.009a.217.217 0 0 1 .168.046c.084-.009.126-.08.042-.135 0-.029-.122-.019-.168-.014Zm-2.395-.631c0 .032-.039.134.041.157.081-.01.121-.112.12-.144s.04-.134-.041-.157c0 0-.12.111-.12.144Zm10.873-4.434c-.032.006-.064.077-.1.115 0 .033-.031.1.033.091a.218.218 0 0 0 .064-.109c.071-.047.071-.109.003-.097Zm-.708 2.109s-.1-.047-.1-.014c0 .064.035.091.069.085a.891.891 0 0 0 .27.08c.033-.006.132-.024.132-.057a.058.058 0 0 0-.067-.052 1 1 0 0 1-.304-.042Zm1.096.109a.089.089 0 0 0-.031-.058c-.061-.019-.061-.019-.092.02v.032c.031-.007.123.038.123.006Zm-.336-3.943c.033-.006.064-.044.1-.018.032-.006.032.027.064.053.064.02.095.047.157.035l.093-.018c.031-.039 0-.065 0-.1a.432.432 0 0 1-.156-.1c-.032-.027-.095-.015-.159-.068-.064-.02-.1-.014-.16.062 0 .032-.032.038-.065.044s-.032.071 0 .1c.03.06.062.054.126.01Zm-5.229 6.436c.083-.043.082-.27-.041-.222-.082.043-.041.261.041.222Zm3.39-6.881a.4.4 0 0 0-.184.06.576.576 0 0 0-.11.146s0 .1-.036.1a.431.431 0 0 0-.187.06.124.124 0 0 0-.036.1c0 .032-.036.1-.074.108 0-.032-.115-.081-.152-.011 0 .033.077.055.077.087s0 .033.039.06c.038-.006.038-.038.076.021v.1c.038.059.04.125.152.108a.134.134 0 0 1 .151.076c.037.027.038.059.075.086 0 .033.038.027.075.022a.181.181 0 0 0 .185.069c.073.022.11.016.182.037.037.027.109.016.074.087 0 .032-.071.076-.071.141 0 .13.252-.007.323.014s.142.009.177.036c.07-.011.069-.076.069-.109 0-.065-.036-.091 0-.162 0-.032.069-.044.1-.049.069-.044.068-.109 0-.1-.07-.021-.1-.015-.175-.036a.4.4 0 0 1-.142-.075c-.036-.059-.036-.059-.108-.08-.107-.016-.215 0-.361-.009-.11-.048-.293.077-.3-.086l.074-.011a.04.04 0 0 0 0-.065.517.517 0 0 1 .183-.06c.11-.017.219 0 .326-.018.072-.011.108.016.179.005s.037.091.037.124.036.059.107.08c.035-.005.071.054.106.081a.812.812 0 0 0 .312.142.967.967 0 0 0 .3.013c.1-.018.2-.068.2-.2a.136.136 0 0 0-.1-.112c-.034-.027-.034-.059-.067-.086a.21.21 0 0 0-.068-.15c-.034-.059 0-.1-.035-.124-.034-.059-.068-.085-.068-.15 0-.1 0-.1-.035-.124a.331.331 0 0 0-.171-.036c-.069-.021-.1.017-.138-.01a.4.4 0 0 1-.14-.074c-.071-.022-.106-.048-.177-.07a.336.336 0 0 0-.178 0c-.072.043-.072.043-.108.016-.103-.043-.211.006-.358.028Zm-7.321 6.786a.971.971 0 0 0-.251-.133.581.581 0 0 0-.331-.027c-.041.037 0 .1 0 .1a.293.293 0 0 0 .165.014.936.936 0 0 1 .25.133 1.192 1.192 0 0 1 .169.208c.041 0 .167.209.209.139 0-.066.082-.237 0-.26a.8.8 0 0 0-.211-.174Zm1.637.627a.828.828 0 0 1-.294.067c-.042.005 0 .065.042.061 0 .032.084.023.126-.015.042 0 .042-.038.084-.01l.126-.015c.084-.009.084-.042.042-.1Zm-.396-1.874c-.042.037-.042.07 0 .1a.323.323 0 0 0 .168.046c.042-.005.041-.1 0-.1 0-.033-.085-.121-.044-.125.042-.038.083-.075.041-.1a.112.112 0 0 0-.126-.05c-.168.016-.04.164-.039.229Zm.186 1.899c.084-.043.042-.07-.042-.061-.042-.028-.084-.023-.168-.013l-.126.015a.286.286 0 0 0-.168-.014c-.083.042 0 .066.042.061.084-.01.084.023.168.013.043-.005.252.036.294-.001Zm.59-3.454c-.085-.022-.292.1-.208.122.083-.009.208-.057.208-.122Zm-.522 1.786c.042 0 .085.022.084-.01a.243.243 0 0 0-.043-.093c-.085-.055-.124.112-.041.103Zm.388.703c0-.032.041-.07.041-.1s-.127-.018-.169-.013c0 .065-.082.107-.039.2 0 .033.169.078.211.041 0 0 .083-.075.04-.1s-.083.005-.084-.028Zm-.26-.62c-.042 0-.125.079-.125.112.042.027.084.022.085.055s-.041.07-.041.1c-.084-.023-.126.015-.21.024-.041.037-.04.1.044.093a.041.041 0 0 0 .041-.038.182.182 0 0 1 .126.018c.043.028.043.061.169.046.084-.042 0-.1 0-.162s-.085-.056-.044-.125c.04-.036-.004-.128-.045-.123Zm.21-3.051c.083-.042-.127-.115-.169-.142s-.043-.028-.043-.093c-.043-.027-.043-.027-.085-.087a4.01 4.01 0 0 0-.462-.2.041.041 0 0 1-.041.038c.084.12.294.159.421.274.042.028.043.158.086.185s.252.063.293.025Zm-.463 2.982c-.084.042 0 .1.085.088s-.043-.093-.085-.088Zm.222.918c.042-.005.167-.052.082-.107a.831.831 0 0 0-.377.108.263.263 0 0 0-.123.241v.131a.387.387 0 0 0 .168.078c.126-.047-.084-.153-.043-.223.042-.005.043.028.085.056 0 .032.042.06.084.055s.126-.047.084-.042c0-.033-.042-.06-.084-.056-.127-.05.083-.074.125-.079.125-.112-.127-.05-.169-.046 0-.065.084-.107.168-.116Zm-.194-1.994a.114.114 0 0 0-.041.1c-.041.038-.04.167-.039.2a.153.153 0 0 0 .208-.09 1.93 1.93 0 0 1-.044-.19s-.043-.057-.084-.02Zm3.932-1.82c-.039.038 0 .065.041.092 0 .033.042.125.121.082.039-.038 0-.1-.042-.125a.276.276 0 0 0-.12-.049Zm1.216-2.058c0-.065.036-.136 0-.163a.088.088 0 0 0-.113.081c-.002.065.036.06.113.082Zm-.07.628a.275.275 0 0 0 .228 0c0-.032.037-.038.037-.07-.038-.027-.076-.022-.077-.054-.038-.028-.038-.06-.076-.055s-.076.011-.077-.021c0 0-.039-.06 0-.065 0-.065 0-.065-.04-.092-.076-.022-.115-.017-.153.021-.076.043 0 .1 0 .163a.753.753 0 0 1-.037.135.249.249 0 0 0 .195.038Zm9.087-.495-.184-.25-.184.1a10.846 10.846 0 0 1 .688 2.055l.853-.253v-.222l-.429.079c-.236-.02-.374-.659-.374-.659 1.107-.4 1.688-.6 2.848-.986l.147.292.3-.113-.635-1.414-.245.074.1.3a97.964 97.964 0 0 0-2.885.997Zm-9.206.057a.275.275 0 0 0 .075-.141c.037-.07-.078-.054-.116-.016s-.075.076-.075.108c.001.064.079.119.116.049Zm-.189.254a.119.119 0 0 0-.041-.158c-.039-.027-.039-.027-.078-.021-.039-.027-.039.005-.077.043 0 .033-.037.135.041.157.079.055.118.049.155-.021Zm2.763 3.036c.032.026.033.058.065.052a.1.1 0 0 0 .1.013l.126-.026s.063.052.062-.012c-.031-.091-.125-.039-.189-.027-.032-.058-.032-.058-.1-.045 0 0-.097.018-.064.045Zm-7.387 9.379c.291-.107.582-.181.832-.25a4.3 4.3 0 0 1 .869-.226c.123-.018.288-.075.411-.094a3.1 3.1 0 0 0 .327-.178 2.514 2.514 0 0 1 .448-.165c.121-.051.282-.043.362-.088.04-.006.08-.012.08-.044s0-.033-.039-.026l-.241.037c-.121.018-.243.069-.365.087-.284.076-.574.117-.859.194a6.55 6.55 0 0 0-.785.213c-.291.107-.665.226-.957.365-.333.146-.624.318-.955.462a.133.133 0 0 0 .082.022c.291-.107.54-.208.79-.309Zm-5.591.102c-.073-.024-.146-.114-.219-.139-.036.07.146.148.183.176s.221.172.184.275c-.037-.028-.073-.024-.073.009s.037.094.037.127.037.062.037.095a.12.12 0 0 0 .186-.055.536.536 0 0 0-.112-.316c-.039-.061-.149-.114-.223-.172Zm7.123 1.36c.164-.026.287-.014.41-.033a3.4 3.4 0 0 0 .571-.092 1.01 1.01 0 0 1 .405-.13c.041-.006.041-.071.041-.071l-.4.066a2.567 2.567 0 0 1-.53.02c-.2 0-.369-.039-.575-.039-.329-.014-.66-.093-.992-.141a2.3 2.3 0 0 0-.83.025c.041.059.332.049.415.037a2.451 2.451 0 0 0 .332.081c.249.06.5.152.745.211.117.013.281.053.408.066Zm3.471-14.256-.038.005c0 .033.039.092 0 .1 0 0-.076.043-.037.07s.116.081.154.076c.037-.071.074-.109.035-.168 0-.067-.039-.127-.114-.083Zm1.171 1.712.213-.035c-.036-.059-.037-.124-.073-.15-.035.005-.143-.075-.178-.037-.035.071.108.08.073.119a.472.472 0 0 1-.179.061c-.035.07.108.048.144.042Z"/>
  <path fill="#fff" d="M54.23 54.511a.339.339 0 0 1-.185.136l.093-.117c.031-.039.031-.039.03-.071-.03.006-.031-.026-.062-.019a1.381 1.381 0 0 1-.315.161c-.032.006-.064.077-.1.116 0 0 0-.032-.032.006l-.033.007a.087.087 0 0 1-.064.077.186.186 0 0 0-.133-.007c-.033.006-.1.083-.133.089-.067-.02-.1-.014-.135-.04a.139.139 0 0 1 0-.162c0-.1.032-.233-.1-.209-.1.018-.241.14-.312.054-.036-.091.173-.224.032-.265-.106-.047-.211.068-.318.118a.121.121 0 0 1-.143.023c-.037-.027-.074-.086-.111-.113a.678.678 0 0 1-.075-.151c0-.065.036-.07.071-.141a.228.228 0 0 1 .071-.174c.035-.038.072-.011.144-.023.036-.006.107-.05.142-.056.071-.044.107-.05.177-.094.07-.012.1-.05.174-.062a.209.209 0 0 1 .14.106c.034.026 0 .065 0 .13 0 .032.07.117.1.047.1-.116.1-.213.031-.3 0-.033-.034-.059-.035-.092 0-.064 0-.1.033-.135a1.956 1.956 0 0 1 .2-.263.723.723 0 0 0 .031-.265c.033-.071.032-.2.131-.251.1-.083.032-.168.1-.245.033-.071.1-.147.162-.257.032-.038.032-.038.031-.1 0-.032-.1-.014-.065-.085l.065-.012c.032-.038 0-.032-.033-.058-.033.006-.1.05-.131.056.034.026.066.02.067.085-.033.039-.065.077-.1.051-.034-.059 0-.065-.067-.053-.033-.027-.1.018-.133.024.033-.039.066-.109.1-.115.067-.012.1-.051.165-.063.1-.018.226-.074.226-.171.031-.071-.033-.091-.066-.117a.089.089 0 0 0-.032-.059c-.033.006-.065.044-.1.05a1.408 1.408 0 0 1-.3-.044.388.388 0 0 1-.273-.115.062.062 0 0 0-.1-.047c-.035.038-.069.044-.139.023a.533.533 0 0 0-.318.019c-.072.011-.108.017-.107.082-.035.1 0 .1.073.118.036.027 0 .065.037.092s.107.048.108.08c0 .1.038.189.039.286-.071-.021-.107-.08-.179-.068-.107-.016-.143.022-.216-.031a.505.505 0 0 0-.219-.031c0-.033-.074.011-.074-.022l-.075-.054c-.075-.053-.075-.086 0-.129.036-.071.109-.115.145-.185 0-.033-.075-.152-.039-.157a.99.99 0 0 1 .182-.125c-.037-.06-.185-.1-.259-.124a.418.418 0 0 1-.149-.075c-.075-.022-.076-.087-.151-.076-.038-.027-.076-.021-.112.049 0 .033.039.092.039.125.039.059.114.081.078.151-.074.076-.112.049-.187.093a1.083 1.083 0 0 1-.343.016c-.077-.022-.116-.049-.194-.071a.192.192 0 0 0-.156-.043c-.117-.017-.234.032-.353-.017-.118-.017-.238-.066-.357-.083a.2.2 0 0 0-.121-.049c0-.032-.041-.06-.081-.055-.08-.021-.2.059-.32.107-.08.044-.2.059-.241.1a.273.273 0 0 0-.079.14c0 .033-.04.038-.08.043-.122.048-.082.011-.081.076l-.08.075a.177.177 0 0 0-.037.233c.042.06.042.06 0 .1-.039.07-.039.07-.122.048-.081.01-.205-.007-.286.068l.083.055.082-.01a.367.367 0 0 0 .2.007c.081-.043.081-.076.163-.054.041.028.122-.015.162-.02a1.051 1.051 0 0 1 .444-.058c.121-.015.2.1.244.164.122.18.205.364.327.544 0 .032.04.027.04.027 0 .032.04.06.041.092v.163a1.161 1.161 0 0 0-.033.363c0 .033 0 .1.041.125 0 .033.08.087.081.12a.584.584 0 0 0 .12.146.391.391 0 0 0 .119.114.637.637 0 0 0 .16.271c.079.087.12.179.236.228.077.021 0-.1 0-.13a.139.139 0 0 1-.079-.119c.037-.071 0-.066-.041-.125-.039-.027-.117-.049-.156-.109s0-.1.076-.075c.039-.006.078.054.079.086.039.06.078.087.079.119.039.06.078.087.117.147.039.027.077.021.116.081a.205.205 0 0 0 .078.119c.039.027.114-.017.152.042.038.027.039.092.077.119a.569.569 0 0 0 .524.311c.073-.012.145-.056.181-.029a.362.362 0 0 1 .18.035.641.641 0 0 0 .284.115c.035-.006.105-.05.14-.024.069.02.07.085.1.112a.231.231 0 0 0 .138.04l.073-.017c.034.026.035.058.068.085s.033-.071.066-.11c.033-.071.066-.077.133-.057a.278.278 0 0 1 .1.272.572.572 0 0 0-.1.149c-.033.038-.032.1-.065.174a.886.886 0 0 0 0 .291c.033.026.032.09.032.154s.032.089.032.153c.065.083.032.186.064.275a1.5 1.5 0 0 1-.033.166c.032.026.064.083.1.109a.189.189 0 0 0 .128.1v.16a.134.134 0 0 1-.033.1c0 .032-.032.071-.033.1a.539.539 0 0 1-.065.236c0 .032-.033.07-.034.1l-.065.045c0 .063-.034.1-.034.134-.033.038-.066.076-.066.108v.1c0 .064 0 .032-.033.07l-.1.21a.879.879 0 0 0-.136.216c0 .064-.069.14-.1.21.034-.006.068.02.034.058 0 .032-.069.044-.1.082s-.138.088-.139.152c-.035.07.034.186-.036.23-.035.038-.105.146 0 .159-.07.076-.141.152-.036.23 0 0 .069.02.069.052.035.025 0 .095 0 .127.07-.012.07-.044.1-.05.034.026.034.026.068.02 0 .032.069.02.069.02.034-.038.034-.038 0-.064v-.128c-.034-.09-.069.044-.1-.014 0-.032 0-.032.035-.07s.034-.006.069-.044c.068-.012.068-.044.1-.114a2.514 2.514 0 0 1 .17-.286 1.382 1.382 0 0 1 .233-.331c.1-.082.163-.159.227-.2a1.547 1.547 0 0 0 .316-.191c.062-.077.124-.153.215-.269.06-.076.179-.134.238-.211.058-.046.087-.052.144-.1a.189.189 0 0 0 .114-.091c.085-.084.142-.13.233-.216a1.471 1.471 0 0 1 .186-.238.741.741 0 0 0 .224-.181.961.961 0 0 0 .2-.273c.033-.072.033-.1.1-.153a.218.218 0 0 1 .034-.137 1.458 1.458 0 0 1 .172-.3 2.08 2.08 0 0 0 .175-.268.309.309 0 0 1 .072-.146c.036-.041 0-.065-.036-.122a.553.553 0 0 1-.142-.194c0-.032-.1-.04-.1-.073a.257.257 0 0 0-.138 0c-.1-.008-.169-.024-.267-.032-.033.008-.066-.016-.1-.008l-.16.039a.272.272 0 0 0 0-.224c-.064-.049-.095-.1-.156-.122a.347.347 0 0 1-.21-.011c-.028-.025-.056-.051-.056-.083l-.084-.076c-.057-.018-.114-.069-.172-.088s-.118-.1-.177-.12a.093.093 0 0 1-.09-.013c-.067.022-.098-.039-.128.033Zm-1.057-2.132c.033-.038.068-.011.1-.05s.068-.012.068.021c.034.026-.169.062-.2.068Zm-.347.027a.205.205 0 0 1 .14.009c.035.026.139.041.07.085-.034.006-.1-.015-.139-.009-.035-.026-.176-.068-.071-.085Zm-.28.273c0-.033.035-.038.035-.071s.034-.07.034-.1c0-.065.1-.114.141-.055-.035.035-.138.247-.21.226Zm-.042-.514c.035-.038.143.042.178.037.036.026.037.091.073.15l-.213.035c-.036.006-.179.028-.144-.042a.472.472 0 0 0 .179-.061c.035-.039-.108-.048-.077-.119Z"/>
  <path fill="#fff" d="M52.167 51.372a.17.17 0 0 0 .146.042c.073.021.073-.011.072-.076-.037-.027-.073-.021-.146-.042l-.073.011Zm.448 1.133c0 .033-.035.071-.034.1s-.036.038-.035.071c.072.021.175-.191.21-.229-.036-.056-.142-.007-.141.058Zm1.347-.884c-.032.038-.1.147-.063.206s.159-.095.191-.069a.055.055 0 0 0 .063.052c.032-.006.062-.077.031-.1 0-.064-.126-.008-.158-.034 0-.032.063-.077.031-.1s-.063.039-.095.045Zm-5.646.499c0 .033.083.055.124.05s.166.012.164-.053c0-.033-.083-.055-.124-.05a.33.33 0 0 0-.164.053Zm-.246.161c.042.06.125.017.166.045.042-.006.124-.048.082-.076s-.083-.022-.125-.049c-.082.042-.165.02-.123.08Zm.438-1.065a.449.449 0 0 0 .206.007.685.685 0 0 0 .162-.118c0 .032.042.06.083.054 0-.032.04-.037.081-.042 0 .032 0 .2.043.19a.263.263 0 0 0 .162-.086.584.584 0 0 0 .12-.146v-.065c0-.032.04-.038.039-.07a.2.2 0 0 0-.083-.12c-.042-.06 0-.1-.043-.125 0-.1-.2-.072-.286-.094a1.392 1.392 0 0 0-.37-.018c-.081.042-.081.075-.162.118-.042.005-.123.048-.165.053a.563.563 0 0 1-.2.091.262.262 0 0 0-.123.08.411.411 0 0 1-.329.171c-.081.14-.289.166-.371.306l.25-.031.249-.03c.041-.038.082-.043.082-.075s.041-.006.083-.011a.279.279 0 0 0 .166.012Zm4.392 1.275c.035-.006.105.015.139.009.069-.044-.035-.059-.07-.085a.205.205 0 0 0-.14-.009c-.108.017.033.059.071.085Zm.442-.141c0-.033-.034-.059-.068-.021s-.068.012-.1.05l-.034.039c.033-.006.236-.042.202-.068Zm8.958-4.557-.625-.647c-1.4.372-2.085.56-3.327.919l-.211-.181-.168.128c.216.212.326.317.548.527l.173-.129-.129-.2.7-.2c.248.282.374.422.629.7l-.5.476c-.125-.14-.187-.211-.31-.352l-.22.107c.383.572.579.857.978 1.426l.229-.107-.045-.213c.878-.898 1.342-1.347 2.278-2.254Zm-2.226.7a77.144 77.144 0 0 1-.476-.544c.569-.16.862-.24 1.458-.4a52.28 52.28 0 0 0-.985.942Zm-8.634 1.748a.091.091 0 0 1 .075-.076c0-.032.037-.07.074-.108l.113-.016c.036-.1-.151-.044-.189-.006a.41.41 0 0 0-.149.184c-.037.071.036.027.076.022ZM34.382 62.805l.156.289.157-.117c-.161-.387-.242-.581-.4-.967l-1.231.024a10.262 10.262 0 0 0 1.013-.864c-.031-.057-.185-1.154-.185-1.154l-.189.059.03.306c-.77.238-1.158.354-1.934.58l-.063-.273-.159.052.157.792.159-.084-.063-.241c.534-.158.8-.238 1.333-.4-.558.428-.838.641-1.4 1.065l.126.452c.648-.026.972-.041 1.616-.073-.493.259-.741.388-1.237.644l-.126-.263-.159.085.5 1.363.159-.086-.095-.266c.738-.369 1.105-.554 1.835-.923Zm-2.361-3.184.637-.551.569.357-.219-.654c.241-.208.361-.319.6-.534-.291.042-.436.063-.728.1l-.19-.682c-.1.3-.153.445-.254.741-.292.039-.439.057-.731.093.229.152.344.232.572.377ZM41.759 43.7c.25.735.372 1.1.639 1.839l-.306.109.077.15c.336-.125.507-.188.853-.314l-.041-.189-.273.1c-.175-.492-.255-.737-.421-1.228.626.412.945.616 1.608 1.032.368-.089.555-.133.929-.222-.14-.851-.194-1.269-.321-2.114l.365-.113-.04-.188-1.047.27.039.155.361-.081.157 1.266a88.054 88.054 0 0 1-1.659-1.026c-.513.189-.765.283-1.255.473l.073.182Zm-2.734 24.907c.13-.214.2-.322.33-.54a8.734 8.734 0 0 1-1.665-1.2l-.092.165.153.15c-.477.655-.718.981-1.2 1.639l-.186-.142-.093.135c.186.2 1.785 1.3 1.785 1.3l.3-.484-.183-.127c-.061.1-.091.155-.153.258a2.4 2.4 0 0 1-.766-.421l.584-.694c.11.072.165.109.274.183l-.122.228.153.061c.121-.208.182-.311.3-.521l-.153-.093-.122.131-.244-.185.519-.724c.247.086.54.525.54.525l-.129.266Zm-7.033-12.754c.763.11 1.144.16 1.9.253l-.063.3h.189l.346-1.533-.158-.04-.094.272a81.95 81.95 0 0 1-1.9-.217l.064-.265-.159-.012-.382 1.528.191.008Z"/>
  <path fill="#fff" d="M35.062 65.793a1.41 1.41 0 0 0 .41-1.3c-.211-.358-.316-.537-.528-.893a1.2 1.2 0 0 0-1.763.381 1.016 1.016 0 0 0-.162 1.051s.377.691.471.8a1.167 1.167 0 0 0 1.572-.039Zm-1.539-.31s-.157-.133-.157-.2a.226.226 0 0 1 0-.249c.063-.1.064-.2.222-.313l.789-.581s.283-.2.377-.148a.415.415 0 0 1 .219.062.384.384 0 0 1 .093.143.312.312 0 0 1 .03.4 8.414 8.414 0 0 1-1.1.842s-.284.203-.473.044Zm4.596-19.628c.359.625.53.939.91 1.566l-.219.2.125.106c.49-.371.751-.556 1.294-.927l-.1-.176s-.1.113-.172.124c-.068.044-.068.011-.068.011-.177-.28-.264-.419-.435-.7.144-.089.218-.134.366-.223a1.706 1.706 0 0 0 .2-.1c.035-.006.1.047.1.047s.315.5.386.583c.035.059.178.037.214.031a1.591 1.591 0 0 0 .4-.125c.278-.133.42-.2.706-.331l-.076-.183-.037.038a.971.971 0 0 1-.188.06.429.429 0 0 1-.186-.069 1.194 1.194 0 0 0-.185-.3c-.036.006-.219-.16-.4-.1a.673.673 0 0 1-.285.044c.674-.621.064-1.27-.479-1.112a14.458 14.458 0 0 0-2.2 1.591l.12.106Zm1.267-.975s.132-.054.2 0a4.671 4.671 0 0 1 .333.523.362.362 0 0 1-.1.177 2.976 2.976 0 0 1-.465.337 35.38 35.38 0 0 1-.445-.725c.184-.125.28-.187.477-.312Zm-5.179 6.192-.157-.137a3.942 3.942 0 0 1 .283-.686c.6.4.9.592 1.5.979l-.155.251.155.071c.186-.3.278-.454.463-.756v-.451l-1.4-.923a2.573 2.573 0 0 1 .53-.505l.156.1.155-.187-.4-.318A23.8 23.8 0 0 0 33.64 51l.473.219Zm-1.643 2.744c.736.2 1.1.293 1.832.477l-.094.271.157.04.282-.784-.157-.072-.125.277c-.49-.116-.736-.176-1.23-.3.7-.188 1.043-.286 1.731-.487l.405-.838c-.747-.3-1.124-.454-1.883-.77l.158-.28-.158-.074-.411.8.158.074.158-.28 1.166.5a72.74 72.74 0 0 1-1.831.524l-.444 1.153.159.076Zm3.267-5.676c.434.427.649.64 1.077 1.064.293-.053.439-.081.729-.136.423-.441.621-.663 1.05-1.1-.135-.181-.2-.272-.331-.452l-.148.157s-.029.006.03.059a.4.4 0 0 1 .089.111 2.865 2.865 0 0 1-.509.742l-.03.038a7.45 7.45 0 0 0-.545-.508v-.064l.243-.271.151.132.121-.119-.393-.441-.122.152.122.106c.03.091-.274.308-.274.308l-.551-.544a3.19 3.19 0 0 1 .885-.741l.152.165.121-.152-.3-.393a22.446 22.446 0 0 0-1.874 2.038l.124.107Zm1.584 18.778.092-.166a37.392 37.392 0 0 0-.46-.437l-.123.138.154.176-.93 1.035c.164-.758.245-1.137.407-1.9-.234-.264-.351-.4-.587-.653l-.155.145.155.137-1.536 1.419-.188-.222-.157.116.532.61.126-.11-.188-.224 1.067-.951-.411 1.894c.237.208.355.313.591.525.588-.676.88-1.011 1.458-1.681ZM59.8 59.187l-.227-.022-.445.741.223.056.179-.264c.649.111.985.165 1.669.274-1.138.369-1.693.555-2.721.912-.239.36-.357.54-.588.9l.167.065.21-.237c.865.277 1.329.412 2.281.678l-.231.306.186.063c.278-.341.419-.511.7-.852l-.237-.054-.234.338c-.6-.2-.9-.3-1.467-.508 1.051-.332 1.611-.5 2.748-.843.211-.353.317-.53.53-.882-1.188-.166-1.775-.247-2.881-.414.052-.103.079-.155.138-.257Zm-3.963 7.757a21.37 21.37 0 0 1-.47-.667c.13-.111.2-.167.332-.281l.137.139.209-.2c-.17-.165-.253-.247-.414-.414l-.2.163.1.178c-.119.11-.178.165-.292.274-.19-.279-.278-.419-.454-.7a2.243 2.243 0 0 1 .712-.474l.2.158c.067-.076.1-.115.171-.192a13.06 13.06 0 0 1-.405-.413 12.425 12.425 0 0 1-1.808 1.622l.065.117.293-.177c.408.609.587.92.977 1.546a19.65 19.65 0 0 0-.208.191l.118.143c.47-.412.747-.631 1.325-1.08l-.144-.138-.244.205Zm3.342-3.938c-.6-.265-.9-.4-1.456-.669l.164-.228-.206-.091c-.228.28-.34.419-.559.7l.2.125.2-.267s1.264.64 1.395.681c.088.049.183.035.266.277.093.27-.134.451-.437.639a.79.79 0 0 1-.642.121c-.555-.34-.823-.512-1.326-.859l.191-.2-.192-.126c-.456.5-.673.752-1.078 1.24l.1.111.173-.194s1.156.829 1.275.872a.887.887 0 0 0 .567.091 2.734 2.734 0 0 0 .63-.314s.872-.851.962-.934a.977.977 0 0 0 .133-.418c-.001-.232-.36-.557-.36-.557Zm3.154-7.042a2.255 2.255 0 0 0-1.855.963 197.27 197.27 0 0 0-.774 1.983l.228.022.136-.288c1.066.058 1.629.085 2.762.146a26.24 26.24 0 0 0-.145.353l.292.013a13.357 13.357 0 0 0 .877-2.246c.046-.401-.407-.979-1.521-.946Zm1.177 1.3-.194.525s-2.835-.107-2.835-.14c0 0 .046-.238.092-.411a.35.35 0 0 1 .327-.16s2.119.01 2.413.024c.295-.019.197.161.197.161Zm-.89-4.301-.39.766-1.1.2c.341.115.513.174.861.295-.153.329-.23.493-.382.823.383-.267.576-.4.965-.664l.931.3-.4-.652c.372-.247.559-.369.934-.609-.453.075-.68.113-1.13.191-.109-.262-.172-.391-.289-.65ZM51.488 67.376l.074.147.224-.1a5.2 5.2 0 0 1-.493 1.04s-.881-.379-.881-.411c-.038-.058.234-.074.234-.106a.611.611 0 0 0-.077-.147c-.746.236-1.132.357-1.911.6l.04.185.243-.075c.595.246.889.368 1.464.617l.266.8-.351.156.077.112c.719-.266 1.071-.4 1.743-.65l-.072-.145-.295.082c-.1-.322-.153-.483-.256-.8.259-.561.386-.844.637-1.411l.254-.172-.107-.109c-.319.147-.481.226-.813.387Zm-7.066 3.883c-.224-.865-.331-1.275-.559-2.177A44.686 44.686 0 0 1 42.784 69c-.691.843-1.034 1.238-1.688 2.037l-.258-.006-.074.135c.307.073.464.108.781.173l.114-.141-.264-.065c.15-.184.226-.275.379-.46.488.045.738.064 1.245.095l.078.5c-.191.014-.285.021-.473.033v.128c.157.011 2-.011 2-.011v-.191Zm-2.494-.8c.307-.33.463-.5.778-.831l.274.951a24.341 24.341 0 0 1-1.052-.116Zm6.918.041-.041.039a.731.731 0 0 1-.324-.005c0-.032-.04-.024-.04-.024s.041-.039 0-.157c0-.315-.445-.487-.445-.487s.613-.36.616-.737-.444-.519-.566-.5a2 2 0 0 0-.369.032 25.76 25.76 0 0 1-2.635.373l.041.187.287-.014-.132 1.951-.287.047s-.042.2 0 .19 1.808-.244 1.808-.244l-.04-.182-.247.043.046-.89.577-.1c.041-.039.163.129.163.129s.037.654.037.686.2.121.286.138c.082-.015 1.344-.3 1.344-.3Zm-1.546-.828a.171.171 0 0 1-.083.141l-.658.113.087-.9.577-.1.123.073c.001.068-.046.673-.046.673ZM48.547 56.3a.093.093 0 0 0 .042.092c0 .033 0 .033.043.06.041 0 .082-.042.081-.075.04-.07-.126-.147-.25-.132v.032c.001.03.042.023.084.023Zm-7.34 12.656c.037.029.568.3.568.3l-.075.244.268.035.19-.584a13.129 13.129 0 0 1-2.6-.8l-.268.539.169.088.135-.139a1.444 1.444 0 0 1 .592.02c-.337.776-.5 1.158-.826 1.907l-.3-.115-.066.164c.575.223.88.324 1.515.511l.073-.167-.288-.071c.358-.761.542-1.142.913-1.932Zm-2.176-15.84.129-.022c.032-.006.064-.044.1-.049.065-.043.032-.07.032-.1 0-.065-.032-.091-.065-.086a.107.107 0 0 1-.1-.015.144.144 0 0 1-.064.043c0 .032-.032.1-.063.108-.064.043-.127.054-.095.145.031.06.063.019.126-.024Z"/>
  <path fill="#fff" d="M39.031 53.277c0 .064.064.021.1.015s.064.021.1.016a.144.144 0 0 0 .1-.049c.033-.005.066-.043.1-.048.066-.044 0-.033.033-.07a1.219 1.219 0 0 0 .133-.28c0-.032.033-.037.067-.107a.1.1 0 0 0-.067-.021.508.508 0 0 0-.2.161c-.033.07 0 .161-.066.2-.1.049-.163 0-.227.071-.041.042-.073.079-.073.112Zm.758-1.156a.461.461 0 0 0 .2-.1c.035-.038.069-.108 0-.129-.035.037-.035.037-.1.048a.252.252 0 0 0-.137-.01c-.033.037-.1.081-.1.145s.069.056.137.046Zm-.821 1.231c.032-.038 0-.064-.032-.026-.031.005 0 .032.032.026Zm1.666.895c-.036.005-.072.011-.072-.022l-.036-.027c-.036-.027-.107.016-.142.054-.036 0-.071.107-.071.139-.035.037.071.054.106.049.072-.043.252.06.288-.01a.2.2 0 0 0 .036-.134c-.036-.059-.036-.059-.109-.049Zm6.308-2.187c.125-.048-.085-.088-.085-.088a.26.26 0 0 1-.124.08.255.255 0 0 0 .209.008Zm1.484 4.54c.041-.005.041-.005.082-.042v-.065c0-.032 0-.065-.042-.06l-.041.037c.043.06-.041.07-.082.108-.043.073.041.096.083.022Zm-7.973-3.293c.035-.038.035-.07 0-.065-.072.043-.036.07 0 .065Zm6.465 2.987.042.027c-.042.005-.083.043-.125.047-.084.043-.041.07 0 .065a.424.424 0 0 1 .085.088.294.294 0 0 0 .168.013.378.378 0 0 1 .253.069c.042.027.043.027.043.092a.12.12 0 0 1-.043.1c-.042.07.084.087.167.11.126.018.126.083.251.1.083.055.125-.08.208-.057.083-.011.124.082.207.1.042.027.125-.048.166.012 0 .032.041.157.123.114.124-.048-.04-.221-.081-.281a1.045 1.045 0 0 0-.206-.266c0-.032-.042-.027-.083-.022 0-.033 0-.033-.042-.06a.322.322 0 0 0-.167-.046c-.126-.05-.17-.175-.3-.225s-.25.127-.334.071c-.042.005-.085-.022-.085-.055.041-.037.041-.037.041-.07-.043-.027-.043-.06-.085-.055-.163-.006-.331.013-.203.129Zm.026-4.104c.041-.038.041-.038 0-.065l-.125.015c-.042.005-.041.07 0 .065s.081.022.125-.015Zm.011.78c0-.033.04-.1 0-.13-.083.01-.082.14-.123.177-.041.07.044.157 0 .2 0 .065-.124.145-.123.177s.084.055.127.115a.261.261 0 0 0-.167.053c-.041.07-.082.107-.123.177-.042 0-.082.107-.04.135a.072.072 0 0 0 .039 0c-.043.04-.161.18-.078.2.042.027.041-.038.082-.075 0 0 .084-.043.041-.07 0-.031-.037-.029-.041-.058a.131.131 0 0 0 .081-.109.9.9 0 0 0 .25-.128c.041 0 .083-.01.083-.042a.114.114 0 0 0 .04-.1s.042-.005.041-.037c.042-.005 0-.032 0-.065l.042-.038c0-.032 0-.129-.044-.157a1.282 1.282 0 0 0 .039-.167c-.042-.036-.081-.028-.126-.058Zm-.213-.3a.593.593 0 0 1-.126-.05c-.167.052.043.157.044.19.042.027 0 .129.086.152.041-.005.082-.107.082-.107 0-.033.124-.08.165-.118.083-.042 0-.032-.043-.092 0-.033-.167.02-.208.025Zm5.558-8.053-.335-.051-.035.167a14.416 14.416 0 0 1 1.552.426l.1-.178-.277-.12c.354-.767.528-1.149.866-1.908l.26.088s.1-.176.064-.2c0-.032-1.457-.425-1.457-.425l-.105.143.284.12c-.362.77-.547 1.156-.917 1.938Zm1.679-.217a.89.89 0 0 0 .331 1.013 5.4 5.4 0 0 0 .8.536 1.643 1.643 0 0 0 1.778-.686.975.975 0 0 0-.15-1.406c-.47-.193-.694-.293-1.11-.5a1.3 1.3 0 0 0-1.649 1.043Zm.8.483c.091-.177.491-.856.491-.856s.193-.29.327-.314a.706.706 0 0 1 .272-.016c.069-.012.175.065.175.065s.29.081.214.344a4.121 4.121 0 0 1-.762 1.259s-.233.364-.505.285c0 0-.181-.1-.212-.123a.28.28 0 0 1-.123-.236.814.814 0 0 1 .123-.406Zm-5.094-2.435.794-.072c-.23.764-.352 1.138-.579 1.911l-.362.015-.037.168c.2-.026 1.856.178 1.856.178l.035-.2-.309-.056c0-.033.556-1.946.556-1.946a4.575 4.575 0 0 1 .638.2l-.072.236.258.028.178-.572a14.739 14.739 0 0 0-3.119-.257 5.753 5.753 0 0 0-.157.567h.241Zm-.511 1.836-.284.005c-.461-.855-.693-1.282-1.155-2.136l-.985.095-1.273 2.386-.287.07.042.188c.123-.048.945-.156.945-.156l-.042-.22-.247.032.247-.515 1.153-.181.29.477-.329.075.043.188c.247-.064 1.885-.113 1.885-.113Zm-2.916-.46.534-.938.414.815Zm-5.877 9.365c.036-.07.107-.049.143-.054.072-.043.144-.053.216-.1s.256 0 .292-.106c.074-.075 0-.065-.073-.054-.037.005-.11.048-.183.058-.036.038-.109.016-.145.021l-.036-.027c-.036-.027 0-.032 0-.064.036-.07.108-.081.144-.118s.109.016.146-.021a.144.144 0 0 0 .073-.139c0-.033-.11-.017-.147-.012a.889.889 0 0 0-.252.231c-.036.037-.071.107-.107.144-.036.006-.071.011-.071.043a.115.115 0 0 0-.035.07c-.035.036-.295.135-.311.053 0 .069-.023.15.065.178 0 0 .1.048.14.01s.106-.076.141-.113Zm16.205-6.942.419-.081c.265-.268.4-.4.679-.672-.1.744-.149 1.116-.247 1.86v.223c.128.1.193.152.324.253.905-.674 1.4-1.015 2.411-1.7l.23.178.234-.17c-.3-.223-.446-.334-.737-.558l-.228.17.226.179c-.457.328-.681.491-1.117.816.106-.667.16-1 .268-1.668a31.22 31.22 0 0 1-1.071-.621l-.166.159.248.175c-.622.586-.919.878-1.473 1.457Z"/>
  <path fill="#fff" d="M37.969 57.368c.06-.011.15 0 .15.036.03.026 0 .16 0 .193a.178.178 0 0 0 .03.122 1.189 1.189 0 0 1 .119.3c.029.091.118.171.118.267v.161a.307.307 0 0 1-.059.172.188.188 0 0 0 .029.124.538.538 0 0 0 .12.172c.03.06.06.152.091.211a4.848 4.848 0 0 0 .28.636c.031.092.095.18.127.273a.212.212 0 0 0 .129.047c.032-.005.1-.08.13-.117.1-.079.231-.13.331-.21.1-.047.1-.21.135-.313 0-.033.034-.038.068-.075.1-.048.172-.156.1-.244a.1.1 0 0 1-.034-.061v-.132c0-.13.068-.14.138-.216a.325.325 0 0 0 .1-.277v-.426c0-.033-.175-.171-.14-.209.1-.114.173-.19.243-.266.176-.189.355-.373.537-.592a.9.9 0 0 0 .145-.311c0-.064.037-.1.073-.171 0 0 .111-.112.037-.134-.111-.017-.293.1-.4.185-.037.005-.144-.012-.18-.006-.107-.049-.107-.178-.178-.232-.035-.027-.07-.086-.105-.113-.035.005-.07.042-.07.01-.035.005 0-.064 0-.1a.83.83 0 0 0-.1-.274c-.034-.059-.034-.092-.069-.119a.3.3 0 0 1-.034-.155v-.161c0-.032.1-.113.1-.081.069.054.069.215.1.274a.777.777 0 0 0 .14.3c0 .065.071.054.106.081.071.022.036.092.072.119a.4.4 0 0 0 .036.22c.035.092.071.086.143.076a1.9 1.9 0 0 0 .181-.058c.073-.042.109-.047.183-.09a1.006 1.006 0 0 0 .3-.2.418.418 0 0 1 .187-.057c.038-.005.113-.112.113-.144l.114-.112c0-.032.037-.134 0-.129l-.076.01a.136.136 0 0 0-.076-.119.63.63 0 0 0-.263 0c-.112.015-.112.015-.149-.044a.2.2 0 0 1-.074-.151c-.037-.027-.037-.027-.037-.091.037.027.11.016.11.049a.231.231 0 0 1 .038.156c.037-.005.112-.048.149-.053.075-.01.075.022.15.044.038.027.076.087.114.082a.315.315 0 0 1 .19.007c.115-.015.23-.062.307-.072s.117-.015.156.044a.393.393 0 0 1 .117.115c.04.059.04.059.118.049s.079-.01.079.055a.456.456 0 0 0 .081.313 1.176 1.176 0 0 0 .24.229.425.425 0 0 0 .2.2.735.735 0 0 0 .119-.24c0-.065.039-.07.079-.107s.04-.07.04-.134a.265.265 0 0 1 .119-.241c.08-.075.2-.154.282-.228a.469.469 0 0 1 .285-.132.2.2 0 0 1 .123.051c.042.027 0 .1.042.124 0 0 0 .033.042.028 0 .032.041.027.082.023 0 .032.042.092.043.124.083.12.166.111.247 0 .042.06.044.189.127.244a2.445 2.445 0 0 1 .086.25 1.664 1.664 0 0 0 .127.245.531.531 0 0 0 .294.194c.042 0 .084-.01.041-.07 0 0-.042.005-.042-.028v-.1a1.82 1.82 0 0 0-.128-.245c-.042-.028-.125-.05-.167-.078-.042.005-.043-.06-.084-.088-.043-.092 0-.162.122-.241.084.055.168.175.294.193.083-.009.124-.079.166-.116s.041-.038.083-.042a.319.319 0 0 0 .082-.107c.041-.1-.044-.223-.088-.347a.274.274 0 0 1-.044-.19c0-.033.125-.112.124-.144.042.027.084.055.043.092s0 .032 0 .065c.042.027.125-.015.125-.047.042 0 0-.065 0-.1 0-.064.082-.139.165-.149a1.027 1.027 0 0 0 .207-.186.34.34 0 0 0 .082-.2c0-.065.039-.167 0-.227-.044-.158-.046-.32-.215-.4.042-.037.125-.079.083-.107-.085-.055-.126.015-.167.052 0 0-.085-.087-.043-.125.041 0 .041-.037.083-.042.041-.037.041-.037.083-.01l.127.083c.084.022.043.092.086.152 0 .033 0 .033.042.06.042-.005.042-.005.083-.042 0-.033.083-.075.083-.107 0-.065.04-.135 0-.163-.085-.055-.127-.05-.128-.147a.389.389 0 0 1 .08-.3c.083-.043.083-.043.04-.135-.042.005-.084.01-.042-.028v-.065c0-.13.081-.2.037-.329a.95.95 0 0 0-.212-.235.4.4 0 0 0-.126-.115c-.043-.027-.168-.045-.168-.077-.042-.028 0-.065 0-.065 0-.033-.042-.06-.084-.055-.042-.028-.125.047-.166.052s0-.129.039-.167c0-.032.041-.07.124-.08a.729.729 0 0 0 .166-.085c.041-.037.041-.1.123-.145l.128.18c.042.027.042.06.084.055 0 .032.042-.005.042-.005.084.022.042.06.126.05.125-.015.209.039.334.024.084-.01.084.023.083-.042s-.042-.06-.043-.125a1.393 1.393 0 0 0-.336-.122c-.126-.05-.211-.137-.336-.187a.49.49 0 0 0-.168-.077.593.593 0 0 0-.167-.045.671.671 0 0 0-.376-.117l-.166.02a.293.293 0 0 0-.206.091l-.082.01c-.041 0-.041.069-.041.069-.041.038-.04.1-.081.14-.04.07-.081.108-.122.113l-.247.03a.419.419 0 0 1-.2.058c-.041.005-.123.047-.163.052a.673.673 0 0 1-.244.063.53.53 0 0 1-.2-.007c-.081.01-.121.015-.161.085a.661.661 0 0 1-.16.117 1.608 1.608 0 0 1-.4.213c-.04.037-.119.08-.158.117-.118.048 0 .032-.039.134-.039-.027-.079-.022-.119-.081 0 0-.039-.092-.078-.055a.185.185 0 0 0-.118.048c-.038.07-.038.07-.116.048-.117.015-.194.058-.31.073-.077.01-.191-.039-.229 0a.3.3 0 0 1-.152.053c0-.033 0-.1-.038-.124a.136.136 0 0 1-.076-.119.285.285 0 0 0-.3-.087c-.074.01-.111.016-.148-.011s-.147-.044-.183-.006l-.109.112c-.036.006-.036.038-.072.043 0 .032-.036.038-.072.043-.072.01-.072.075-.143.086a.382.382 0 0 0-.177.058l-.175.027c-.07.011-.07.075-.138.118-.035.038-.035.07-.035.135s.1.016.139.01.034 0 .034.027v.065c0 .059-.055.1-.064.13a.082.082 0 0 0-.04-.082c0-.032-.1.016-.138.021a.36.36 0 0 0-.17.06.946.946 0 0 1-.267.2c-.066.011-.1.049-.164.06 0 .032-.1.016-.129.022l-.16.027c-.063.012-.063.044-.1.114-.031.037-.062.107-.093.145s-.031.1-.093.146c-.03.037-.061-.053-.091-.048-.031-.026-.121.055-.151 0-.03-.026-.059-.053-.089.017a.17.17 0 0 0-.088.146c0 .065-.03.07-.06.108s-.089.082-.059.141a.277.277 0 0 1 .03.155c0 .064.089.014.118.009.059-.012.148 0 .208-.008.09-.017.06-.011.121-.087 0-.032.031-.038.031-.07.03-.038 0-.032.03-.07.031-.005.124-.022.155 0 0 .033.095.016.126.01a.1.1 0 0 1 .126-.009c.064.021.064.054.1.112.033.027 0 .1 0 .129a.2.2 0 0 0 .066.086c0 .032.032.058.032.091 0 .064 0 .064-.065.107v.1a.29.29 0 0 0 .2-.13v.1a.366.366 0 0 0 .1-.306c0-.032-.066-.053-.066-.086v-.1c0-.032 0-.032.033-.038.133-.022.1.113.1.209v.29c.067-.011.2-.032.237-.1 0-.032-.035-.091-.035-.123s.069-.043.1-.049a.3.3 0 0 0-.034.167c0 .032-.034.037 0 .064v.064c.034.027.1.017.138.043s.035.027.035.06c0 .064.035.026.069.021s.106.081.071.086c0 .065-.035.134-.07.14s-.139.021-.174-.006a.528.528 0 0 1-.171-.038c-.034-.027-.034-.059-.1-.08l-.168.027-.132.021c-.033-.059-.033-.091-.1-.112-.033-.059-.226-.026-.226-.122v-.1l.064-.011c.032.059.032.091.064.118.065-.043.033-.07.033-.1l-.065-.054c-.032-.026 0-.032-.064-.021-.032.006 0 .032-.032.006-.032.005-.032-.027-.064-.021 0-.065 0-.033-.031-.059-.032 0-.032-.027-.063-.021-.032-.027-.094-.016-.125-.01l-.214.039-.12.023c-.059-.021-.089-.047-.147-.068-.03.006-.089-.047-.089-.047-.03.038-.06.076-.09.082a1.767 1.767 0 0 1-.331.321 3.678 3.678 0 0 0-.454.472 2.989 2.989 0 0 0-.244.367.46.46 0 0 0-.06.269c-.031.134-.031.23-.062.365 0 .064-.03.1-.03.166-.031.038 0 .1.03.123.031.091.062.214.092.3l.091.176v.129c0 .1 0 .1.061.117.031.059.061.021.122.01.091-.049.091-.049.152 0 .03.026.06.02.121.009s.271-.084.3-.058.054.093.084.119Zm2.738-2.938c-.036.07-.216-.033-.288.01-.035.005-.141-.012-.106-.049 0-.032.035-.134.071-.139.035-.038.106-.081.142-.054l.036.027c0 .033.036.027.072.022.073-.01.073-.01.109.049a.2.2 0 0 1-.036.134Zm-.254-1.188c.035 0 .035.027 0 .065-.036.005-.072-.022 0-.065Zm.658 1.26v-.129c0-.064.037-.1.111-.112.037-.037.15-.053.113.049-.038.037-.075.075-.037.134 0 .065.037.06-.037.167 0 .032 0 .1-.112.112-.037.005-.074.042-.111-.017-.037-.027 0-.065.037-.07.074-.01.037-.102.036-.136ZM40.1 53.3c-.088-.028-.067-.109-.065-.178.016.082.276-.017.311-.053a.115.115 0 0 1 .035-.07c0-.032.035-.037.071-.043.036-.037.071-.107.107-.144a.889.889 0 0 1 .252-.231c.037 0 .147-.021.147.012a.144.144 0 0 1-.073.139c-.037.037-.11-.017-.146.021s-.108.048-.144.118c0 .032-.036.037 0 .064l.036.027c.036 0 .109.017.145-.021.073-.01.146-.053.183-.058.073-.011.147-.021.073.054-.036.1-.22.063-.292.106s-.144.053-.216.1c-.036.005-.107-.016-.143.054-.035.037-.106.08-.141.117s-.14-.014-.14-.014Z"/>
  <path fill="#fff" d="M34.866 58.464c-.018 5.769 4.317 10.353 11.909 9.213 6.486-.977 12.289-6.849 12.553-13.177a7.256 7.256 0 0 0-2.052-5.089c.006-.711.028-1.438.041-2.157.006-.344 0-.7 0-1.05l-.431.084-.415.08-.255.05-.143.027-.036.007c-.7.136-1.277.248-1.929.358a12.888 12.888 0 0 0-7.464-.992 14.082 14.082 0 0 0-7.425 3.053c-.734.127-1.368.259-2.04.383-.274.051-.519.095-.765.139v3.164a12.9 12.9 0 0 0-1.548 5.907Zm11.127 6.529a.694.694 0 0 1-.332-.245c-.083-.021-.124-.081-.207-.134-.083-.021-.165-.108-.248-.1l-.371.052c-.042.006-.083-.054-.083-.087-.041-.027-.082-.021-.123-.048a.2.2 0 0 0-.124-.049c-.082-.022-.082-.055-.122-.016.082.087.164.142.246.229.041.06 0 .131.082.12s.206-.062.289-.073a.69.69 0 0 1 .62.435 1.04 1.04 0 0 1 .082.348v.163a.636.636 0 0 0-.083.176c0 .033-.041.138-.082.144a.8.8 0 0 1-.248.1.876.876 0 0 1-.412.027.782.782 0 0 1-.41-.138.506.506 0 0 1-.2-.07 1.158 1.158 0 0 1-.122-.213v-.131a1.837 1.837 0 0 0-.045-.183 1.1 1.1 0 0 1 .244-.4l.123.181c.042.06.083.087.165.01s-.042-.126-.083-.153a.093.093 0 0 1-.041-.093.093.093 0 0 0-.041-.093l-.205-.136c-.041-.028-.163-.077-.163-.11s-.042-.192-.123-.082c-.081.077 0 .1.041.192a2.038 2.038 0 0 1-.446-.039c-.121-.017-.242-.034-.4-.046-.24-.035-.478-.1-.714-.14a7.718 7.718 0 0 0-.813-.132c-.038-.028-.076-.023-.152-.015a.53.53 0 0 0-.226.027c-.038 0-.112.046-.149.051-.075.008-.149.017-.186-.045-.222-.106-.222-.337-.368-.517a1.543 1.543 0 0 0-.535-.4.593.593 0 0 1-.244-.169c0-.065-.035-.127.034-.135.1-.011.1-.011.174.079.07.025.211.008.282.033.107.053.251.1.36.155a6.566 6.566 0 0 1 .629.321 2.564 2.564 0 0 0 .686.248 3.605 3.605 0 0 0 .7.176.829.829 0 0 1 .4.049c.08.022.12.017.16-.021.04-.071.08-.109.08-.175.04-.005.04-.038.08-.076l-.041-.028a.272.272 0 0 1-.08-.154c.04-.071.08-.11.12-.181a.573.573 0 0 0 .12-.147 1.106 1.106 0 0 1 .324-.207 1.6 1.6 0 0 1 .367-.114 1.745 1.745 0 0 1 .41-.054.454.454 0 0 0 .206.038l.205-.025a.256.256 0 0 1 .083.284.7.7 0 0 1-.206.356c-.041.071-.041.137-.082.175l-.247.132a1.447 1.447 0 0 1-.491.165l-.244.033c-.041-.028-.2-.006-.2-.039-.04-.061.081-.11.121-.181.041-.038-.04-.126-.081-.154l-.04.038v.066a.688.688 0 0 1-.161.153l-.041.038c0 .033.041.061 0 .1 0 .033-.08.076-.08.109.12.05.241-.031.363-.014.04-.006.121.016.162.011.122-.016.2.006.285 0l.245-.033c.041-.006.082-.077.164-.089a1.714 1.714 0 0 0 .371-.149c.041-.038.123-.05.165-.088a.571.571 0 0 1 .124-.149c.124-.115.207-.225.29-.3.207-.16.457-.325.665-.485.291-.172.541-.3.833-.444a1.944 1.944 0 0 1 .415-.091 1.92 1.92 0 0 0 .415-.092 7.393 7.393 0 0 1 .823-.121c.163.008.326-.016.488-.008a1.6 1.6 0 0 0 .4-.029l.4-.062c.159-.025.278-.075.4-.094a1.611 1.611 0 0 1 .39-.029c.039.026.347.04.193.129a1.548 1.548 0 0 1-.389.19.964.964 0 0 0-.354.184 1.793 1.793 0 0 1-.319.211 1.6 1.6 0 0 1-.4.191 5.63 5.63 0 0 1-.771.312c-.123.052-.287.109-.41.16a.438.438 0 0 1-.206.031.588.588 0 0 0-.206.1l-.207.031a1.5 1.5 0 0 0-.207.1c-.165.024-.29.075-.456.1a6.688 6.688 0 0 1-.831.219l-.416.059-.166.024-.207.029a.741.741 0 0 0-.372.118.783.783 0 0 1-.165.088c-.082.044.124.081.124.081a1.868 1.868 0 0 0 .455-.031.432.432 0 0 0 .165-.056c.042-.039.083-.045.208-.095a6.7 6.7 0 0 1 .789-.115c.166.009.291-.01.457 0a1.3 1.3 0 0 0 .414.068 5.4 5.4 0 0 1 .7.152 2.051 2.051 0 0 0 .45-.006c.123.013.2.033.326.046a3.09 3.09 0 0 0 .8 0l.279-.046c.118-.019.2-.1.276-.077l.235-.039a.189.189 0 0 1 .155.038c.116.013.155.007.115.109a1.054 1.054 0 0 1-.155.058l-.2.033c-.2.1-.354.187-.513.277-.159.058-.28.175-.4.226-.16.059-.324.116-.484.176a4.15 4.15 0 0 1-.815.261 2.614 2.614 0 0 1-.906.014c-.124-.013-.248-.059-.414-.066-.286-.104-.618-.185-.908-.273Zm4.333-1.77c-.039.038-.078.012-.157.025a1.148 1.148 0 0 1-.159.058c-.079.012-.119-.014-.2 0a1.173 1.173 0 0 1-.16.058c-.12.051-.281.076-.4.128a4.8 4.8 0 0 1-.651.133l-.368.057c-.083.012-.247.07-.33.018a1.325 1.325 0 0 1 .33-.115c.164-.058.287-.077.41-.128a6.316 6.316 0 0 0 .812-.351c.242-.1.522-.243.8-.351l.347-.055.54-.088a3.636 3.636 0 0 0 .752-.316 2.809 2.809 0 0 1 .474-.144l.214-.037c.036-.006.036-.006.071.02.035-.006.1.078.069.116s-.035.07-.07.076l-.142.024s-.072.076-.108.082a35.14 35.14 0 0 1-.328.343c-.183.127-.333.312-.521.439a2.941 2.941 0 0 0-.3.242c-.114.051-.268.173-.384.224a7.816 7.816 0 0 1-.821.295 6.928 6.928 0 0 1-.8.1 3.857 3.857 0 0 1-.608 0c-.2-.032-.409-.033-.614-.066-.247-.027-.454-.093-.66-.127a6.921 6.921 0 0 0 .825-.06l.9-.14c.121-.019.283-.077.4-.1a2.288 2.288 0 0 0 .4-.128 3.129 3.129 0 0 0 .749-.313 1.145 1.145 0 0 0-.312.081Zm6.894-8.416c0-1.272.026-2.6.049-3.89.005-.3 0-.61 0-.915a7.319 7.319 0 0 1 1.613 4.583c.02 5.814-4.532 11.425-11.833 12.743a24.61 24.61 0 0 0 1.532-.569 19.858 19.858 0 0 0 3.439-1.774 10.143 10.143 0 0 0 3.027-2.875 12.272 12.272 0 0 0 1.942-4.291 17.433 17.433 0 0 0 .231-3.012Zm-.269-1.468c.229 1.763-.835 3.876-2.076 5.3a5.98 5.98 0 0 1-3.566 1.865 7.577 7.577 0 0 1-3.851-.409c-.124-.048-.25-.129-.375-.178a.789.789 0 0 1-.162-.08 5.828 5.828 0 0 0 2.431-4.489 4.577 4.577 0 0 0-2.477-3.881.149.149 0 0 1 .058-.026.484.484 0 0 1 .207-.155 8.38 8.38 0 0 1 6.809-1.509 4.271 4.271 0 0 1 3.002 3.562Zm-10.3-7.232a13.061 13.061 0 0 1 6.922.787l-.25.04c-1.342.211-2.834.41-4.381.608-1.711.219-3.45.432-5.142.653-1.476.194-2.846.385-4.051.583a14.223 14.223 0 0 1 6.902-2.671Zm-4.416 4.787a7.259 7.259 0 0 1 4.451.773 4.386 4.386 0 0 1 2.381 3.718 4.221 4.221 0 0 1-.189 1.309v-.049c-.041.038-.082.043-.123.08l-.041.038c-.042.069 0 .032 0 .064.041.027 0 .129.082.087.008 0 .01-.016.016-.022a6.105 6.105 0 0 1-1.37 2.16.119.119 0 0 0 .02-.06c.042-.038.125-.081.126-.114.041-.07.083-.108.125-.178 0-.032.083-.075.084-.14a.223.223 0 0 0 .042-.168V58.1a.431.431 0 0 1-.041-.32.214.214 0 0 0-.041-.157.221.221 0 0 1-.041-.157c0-.065.043-.362-.124-.244-.042.037-.042.1-.084.172 0 .033-.042.07-.084.14 0 .065-.042.07-.084.14s-.084.075-.126.015c-.083-.055-.25-.132-.125-.212.042-.07.084-.075.084-.14s.043-.1-.041-.093l-.21.025-.21.024c-.126.048-.21.155-.336.2a.661.661 0 0 0-.377.175c-.042.037-.084.042-.126.113-.042.005-.042.037-.084.042l-.084.01a1.921 1.921 0 0 1-.376.175.529.529 0 0 0-.251.227c-.041.07-.041.1-.083.173a.191.191 0 0 0-.083.142.321.321 0 0 1-.041.169.275.275 0 0 1-.083.141c-.042.038 0 .1.042.126.041-.005.124.051.166.046a3.242 3.242 0 0 1 .792-.162c.168.012.21.1.293.193.042.06 0 .1.084.12.042.028.083-.043.167-.086a1.009 1.009 0 0 0-.042.332c.042.06.042.125.083.153s.084.022.168.011c.042-.005.125-.049.209-.059l.167-.022c.071-.045.13-.09.19-.134-.117.107-.233.216-.357.319-.033.027-.073.047-.106.074 0-.02-.009-.039-.062-.053a.284.284 0 0 0-.125.081l-.084.011v-.033a.168.168 0 0 0-.125-.016l-.042.005c-.042.038-.126.114-.126.147a.108.108 0 0 0 .167.076c0 .027.018.029.029.041a8.943 8.943 0 0 1-3.99 1.575c-3.558.441-5.531-1.6-5.531-4.528a6.154 6.154 0 0 1 5.48-6.183Zm-5.819 7.843v.818a7.74 7.74 0 0 0 .273 2.067 6.952 6.952 0 0 0 2.011 3.245 9.026 9.026 0 0 0 3.413 1.876 15.793 15.793 0 0 0 3.343.655 5.3 5.3 0 0 0 .642.068c-7.16.856-10.965-3.6-10.949-9.047a12.465 12.465 0 0 1 1.27-5.307v2.1c-.002 1.157 0 2.362-.003 3.525Z"/>
  <path fill="#fff" d="M41.038 54.706c.037.059.074.022.111.017.112-.016.112-.08.112-.112.074-.107.037-.1.037-.167-.038-.059 0-.1.037-.134.037-.1-.076-.086-.113-.049-.074.01-.111.048-.111.112v.127c0 .032.038.124-.036.134-.037.007-.075.045-.037.072Z"/>
</svg>
