<?xml version='1.0' encoding='utf-8'?>
<svg xmlns="http://www.w3.org/2000/svg" width="314.0" height="314.0" viewBox="0 0 314.0 314.0" fill="none">
<rect width="314.0" height="314.0" fill="none" /><path d="M107.749 36.344C107.749 47.474 115.487 55.265 126.458 55.265C135.309 55.265 141.987 50.336 144.107 42.28H134.143C132.606 45.46 129.797 47.05 126.352 47.05C120.787 47.05 116.971 42.916 116.971 36.344C116.971 29.772 120.787 25.638 126.352 25.638C129.797 25.638 132.606 27.228 134.143 30.408H144.107C141.987 22.352 135.309 17.37 126.458 17.37C115.487 17.37 107.749 25.214 107.749 36.344ZM178.86 25.426H169.797V41.485C169.797 45.513 167.571 47.739 164.073 47.739C160.681 47.739 158.402 45.513 158.402 41.485V25.426H149.392V42.704C149.392 50.601 154.003 55.318 160.84 55.318C164.815 55.318 167.995 53.516 169.797 50.972V55H178.86V25.426ZM194.433 41.273C194.433 36.185 196.924 34.701 201.217 34.701H203.708V25.108C199.733 25.108 196.5 27.228 194.433 30.355V25.426H185.37V55H194.433V41.273ZM208.04 55H217.103V25.426H208.04V55ZM212.598 22.352C215.778 22.352 217.951 20.179 217.951 17.476C217.951 14.72 215.778 12.547 212.598 12.547C209.365 12.547 207.192 14.72 207.192 17.476C207.192 20.179 209.365 22.352 212.598 22.352ZM252.609 40.213C252.609 30.832 245.931 25.002 237.239 25.002C228.6 25.002 221.869 30.832 221.869 40.213C221.869 49.594 228.441 55.424 237.133 55.424C245.825 55.424 252.609 49.594 252.609 40.213ZM231.091 40.213C231.091 35.178 233.953 32.846 237.239 32.846C240.419 32.846 243.387 35.178 243.387 40.213C243.387 45.195 240.366 47.58 237.133 47.58C233.847 47.58 231.091 45.195 231.091 40.213Z" fill="white" transform="translate(0.0,120.5)" />
<g clip-path="url(#clip0_121_9)" transform="translate(0.0,120.5)">
<path d="M52.5902 69.2024C51.4217 69.2033 50.2545 69.1279 49.0962 68.9767C46.2148 68.6134 43.4342 67.693 40.913 66.2681C38.3919 64.8433 36.1797 62.9419 34.4027 60.6725C32.6258 58.4031 31.3188 55.8102 30.5566 53.0419C29.7944 50.2736 29.5919 47.3841 29.9606 44.5385C30.5773 39.839 33.0558 35.5728 36.8526 32.6754C40.6494 29.778 45.4546 28.4858 50.2146 29.0823C54.1286 29.5809 57.6824 31.5928 60.0961 34.6765C62.5097 37.7601 63.586 41.6637 63.0886 45.5302C62.8841 47.1151 62.3653 48.6445 61.5618 50.0312C60.7584 51.4179 59.6862 52.6346 58.4064 53.6118C57.1266 54.5889 55.6644 55.3074 54.1033 55.7261C52.5422 56.1449 50.9128 56.2556 49.3084 56.0521C47.9718 55.8839 46.6818 55.4572 45.5123 54.7963C44.3428 54.1354 43.3166 53.2533 42.4925 52.2005C41.6684 51.1477 41.0624 49.9447 40.7093 48.6605C40.3562 47.3762 40.2628 46.0358 40.4345 44.7159C40.5776 43.6071 40.9406 42.537 41.5027 41.5668C42.0648 40.5967 42.815 39.7454 43.7104 39.0618C44.6058 38.3781 45.6288 37.8754 46.7211 37.5825C47.8133 37.2896 48.9532 37.2122 50.0758 37.3546C51.9908 37.608 53.7278 38.5962 54.9104 40.1053C56.0931 41.6144 56.6263 43.5229 56.3945 45.4174C56.3607 45.6821 56.2745 45.9376 56.1407 46.1694C56.0069 46.4012 55.8282 46.6047 55.6148 46.7683C55.4014 46.9319 55.1575 47.0524 54.897 47.1228C54.6364 47.1933 54.3644 47.2124 54.0964 47.1791C53.8284 47.1457 53.5696 47.0606 53.335 46.9285C53.1003 46.7963 52.8942 46.6199 52.7286 46.4091C52.5629 46.1983 52.4409 45.9574 52.3696 45.7001C52.2982 45.4428 52.2789 45.1741 52.3127 44.9094C52.4104 44.073 52.173 43.232 51.6513 42.5661C51.1296 41.9002 50.3649 41.4622 49.5206 41.3457C48.3283 41.1994 47.1258 41.5253 46.1759 42.2519C45.2259 42.9786 44.6058 44.0471 44.451 45.2239C44.348 46.019 44.4046 46.8265 44.6176 47.6001C44.8305 48.3737 45.1957 49.0982 45.6923 49.7324C46.1888 50.3666 46.807 50.8979 47.5115 51.2961C48.216 51.6943 48.9931 51.9515 49.7982 52.053C50.8705 52.1898 51.9595 52.1163 53.003 51.8369C54.0465 51.5574 55.0239 51.0774 55.8793 50.4243C56.7346 49.7712 57.4512 48.9579 57.9879 48.031C58.5245 47.104 58.8708 46.0816 59.0068 45.0223C59.3677 42.2151 58.5861 39.3812 56.8337 37.1425C55.0812 34.9038 52.5011 33.4433 49.6595 33.0814C45.973 32.6198 42.2518 33.6212 39.3118 35.8657C36.3719 38.1103 34.4534 41.4148 33.9771 45.0545C33.3735 49.7393 34.6775 54.469 37.6028 58.2047C40.528 61.9404 44.8351 64.3764 49.5778 64.9776C52.5831 65.3609 55.6355 65.1554 58.5604 64.3727C61.4852 63.59 64.2251 62.2454 66.6233 60.416C69.0216 58.5866 71.0311 56.3081 72.537 53.711C74.0429 51.1139 75.0156 48.249 75.3995 45.2803C75.8884 41.5077 75.6201 37.677 74.61 34.0068C73.6 30.3366 71.8678 26.8989 69.5125 23.8899C67.1572 20.8809 64.2248 18.3595 60.8829 16.4698C57.5409 14.58 53.8548 13.3589 50.035 12.8762C40.4835 11.6748 31.928 14.3758 25.3073 20.689C19.0457 26.6554 14.8741 35.5808 13.5516 45.8044C13.5178 46.0691 13.4316 46.3246 13.2978 46.5564C13.164 46.7882 12.9854 46.9917 12.772 47.1553C12.5586 47.3189 12.3147 47.4394 12.0541 47.5099C11.7936 47.5803 11.5215 47.5994 11.2535 47.5661C10.9855 47.5327 10.7267 47.4476 10.492 47.3154C10.2574 47.1833 10.0513 47.0069 9.8857 46.7961C9.72007 46.5854 9.59807 46.3444 9.5267 46.0871C9.45534 45.8298 9.43598 45.5611 9.46975 45.2964C10.9066 34.1618 15.519 24.3898 22.4336 17.7944C29.985 10.5944 39.6916 7.51446 50.5166 8.87706C59.304 9.98882 67.2847 14.5016 72.704 21.4233C78.1233 28.345 80.5375 37.109 79.416 45.7883C78.5723 52.2401 75.3829 58.169 70.4416 62.4707C65.5004 66.7723 59.1444 69.1534 52.5576 69.1702L52.5902 69.2024Z" fill="#FF36FF" />
<path d="M1.64094 46.4333H1.42868C1.21582 46.4064 1.01039 46.3384 0.824178 46.2331C0.637964 46.1277 0.474617 45.9872 0.343447 45.8194C0.212278 45.6517 0.115855 45.4601 0.0597322 45.2555C0.00360942 45.0509 -0.0110998 44.8374 0.0163826 44.6272C0.138838 43.6758 0.285757 42.7083 0.449031 41.773C0.476903 41.5574 0.548618 41.3495 0.659899 41.162C0.771179 40.9744 0.919729 40.811 1.09658 40.6816C1.27344 40.5522 1.47494 40.4594 1.68903 40.4089C1.90311 40.3583 2.12536 40.3511 2.34236 40.3875C2.55935 40.4239 2.76661 40.5033 2.95174 40.6209C3.13688 40.7385 3.29607 40.8919 3.41967 41.0718C3.54327 41.2516 3.62874 41.4544 3.67099 41.6677C3.71325 41.881 3.71138 42.1006 3.66551 42.3132C3.5104 43.2082 3.37162 44.1274 3.25733 45.0385C3.20406 45.4246 3.01098 45.7786 2.71382 46.0351C2.41666 46.2915 2.03555 46.433 1.64094 46.4333Z" fill="#20FF93" />
<path d="M4.60421 33.6942C4.42333 33.6969 4.24345 33.6669 4.07356 33.6055C3.87029 33.5373 3.68261 33.4303 3.52127 33.2904C3.35994 33.1506 3.2281 32.9807 3.13332 32.7905C3.03854 32.6003 2.98271 32.3935 2.96894 32.1819C2.95517 31.9704 2.98375 31.7582 3.0531 31.5576C3.1429 31.2995 3.23272 31.0496 3.33068 30.7513C3.39497 30.5422 3.50161 30.3481 3.64415 30.181C3.78669 30.0138 3.96214 29.877 4.15986 29.7789C4.35757 29.6807 4.57343 29.6233 4.7943 29.6101C5.01518 29.5969 5.23643 29.6282 5.4447 29.702C5.65296 29.7759 5.84387 29.8908 6.0058 30.0397C6.16772 30.1887 6.29731 30.3686 6.38667 30.5685C6.47604 30.7684 6.52331 30.9842 6.52564 31.2027C6.52797 31.4213 6.48526 31.638 6.40018 31.8397L6.14711 32.5654C6.04363 32.8904 5.83863 33.1747 5.56144 33.3774C5.28425 33.5802 4.94915 33.6911 4.60421 33.6942V33.6942ZM6.99616 27.8406C6.75627 27.8405 6.51932 27.7882 6.30222 27.6874C6.10535 27.6003 5.9279 27.4756 5.78013 27.3204C5.63236 27.1652 5.51721 26.9826 5.44131 26.7832C5.3654 26.5838 5.33027 26.3715 5.33792 26.1586C5.34557 25.9457 5.39582 25.7363 5.48585 25.5427C7.00509 22.3417 8.8515 19.3024 10.9963 16.4722C11.1189 16.2881 11.2784 16.1307 11.465 16.0099C11.6515 15.889 11.8612 15.8072 12.081 15.7695C12.3008 15.7318 12.5261 15.739 12.743 15.7906C12.9599 15.8422 13.1638 15.9372 13.3421 16.0697C13.5204 16.2022 13.6693 16.3693 13.7796 16.5608C13.8899 16.7523 13.9593 16.9642 13.9836 17.1832C14.0078 17.4023 13.9863 17.6239 13.9204 17.8344C13.8545 18.0449 13.7457 18.2399 13.6005 18.4072C11.5945 21.0634 9.86583 23.9133 8.44109 26.9134C8.31174 27.1857 8.10792 27.4168 7.85259 27.5806C7.59725 27.7445 7.3006 27.8345 6.99616 27.8406Z" fill="#20FF93" />
<path d="M49.3084 73H49.1289L48.3125 72.9113C47.8795 72.8589 47.4852 72.6388 47.2166 72.2993C46.9479 71.9599 46.8267 71.5289 46.8798 71.1012C46.9328 70.6735 47.1557 70.2842 47.4994 70.0188C47.8431 69.7535 48.2795 69.6338 48.7125 69.6862L49.4636 69.7668C49.8966 69.7871 50.3037 69.9765 50.5954 70.2933C50.887 70.6101 51.0393 71.0283 51.0188 71.456C50.9982 71.8836 50.8064 72.2857 50.4857 72.5738C50.165 72.8618 49.7415 73.0122 49.3084 72.9919V73ZM59.6191 72.2824C59.2219 72.2793 58.8394 72.1332 58.5433 71.8715C58.2473 71.6098 58.058 71.2505 58.011 70.8609C57.9639 70.4713 58.0623 70.0781 58.2877 69.755C58.5131 69.4319 58.8501 69.201 59.2355 69.1057C60.9541 68.6935 62.6317 68.1296 64.248 67.4206C64.3618 67.3647 64.4826 67.3241 64.6072 67.2996C64.7089 67.224 64.8183 67.1592 64.9337 67.1061C67.9011 65.7057 70.6106 63.8254 72.9504 61.5429C73.2615 61.2654 73.6687 61.1168 74.0877 61.1277C74.5066 61.1386 74.9053 61.3082 75.2011 61.6015C75.497 61.8947 75.6673 62.289 75.6769 62.7029C75.6865 63.1167 75.5346 63.5183 75.2526 63.8246C72.6532 66.3594 69.6428 68.4469 66.346 70.0007C66.2179 70.0581 66.0837 70.1013 65.946 70.1297C65.8363 70.2172 65.7155 70.2904 65.5868 70.3473C63.7914 71.1364 61.9281 71.7651 60.0192 72.226C59.8887 72.2611 59.7543 72.28 59.6191 72.2824V72.2824ZM43.0796 71.6374C42.8904 71.6359 42.7027 71.6032 42.5244 71.5406C39.0377 70.3011 35.8572 68.3444 33.1934 65.8C33.0882 65.703 32.9975 65.5916 32.924 65.4694C32.8017 65.3948 32.6892 65.3054 32.5893 65.2033C31.202 63.7969 29.9781 62.2419 28.9402 60.5672C28.715 60.2016 28.6461 59.7626 28.7487 59.3467C28.8512 58.9309 29.1169 58.5724 29.4871 58.35C29.8573 58.1276 30.3018 58.0596 30.7229 58.1609C31.1439 58.2622 31.5069 58.5245 31.7321 58.8902C32.6414 60.3613 33.7148 61.7271 34.9323 62.9619C35.0602 63.1742 35.2398 63.3515 35.4547 63.4779C37.7846 65.7069 40.5672 67.4218 43.6184 68.509C43.9792 68.6384 44.2823 68.8891 44.4745 69.2172C44.6668 69.5453 44.7359 69.9298 44.6696 70.3032C44.6033 70.6766 44.406 71.015 44.1122 71.259C43.8185 71.503 43.4471 71.6369 43.0633 71.6374H43.0796ZM77.7017 60.0915C77.3679 60.0884 77.043 59.9843 76.771 59.7932C76.4177 59.5478 76.1772 59.1742 76.1023 58.7541C76.0273 58.334 76.1239 57.9017 76.371 57.5518L76.7955 56.931C77.0348 56.5739 77.4078 56.3252 77.8327 56.2398C78.2575 56.1544 78.6993 56.2391 79.0609 56.4754C79.4225 56.7117 79.6742 57.0802 79.7607 57.4998C79.8472 57.9194 79.7614 58.3557 79.5221 58.7128C79.367 58.9466 79.2038 59.1724 79.0405 59.3982C78.8905 59.6118 78.6904 59.7864 78.4572 59.9071C78.2241 60.0278 77.9649 60.0911 77.7017 60.0915V60.0915ZM50.2718 57.0277C49.6577 57.0303 49.044 56.9925 48.435 56.9148C47.8415 56.8456 47.2546 56.7296 46.6798 56.5681C46.5295 56.5281 46.3863 56.4655 46.2552 56.3827C46.0986 56.3746 45.9443 56.3419 45.7981 56.2859C43.7592 55.5335 41.9727 54.2353 40.6386 52.5368C40.4964 52.3711 40.3895 52.1787 40.3244 51.9712C40.2593 51.7637 40.2374 51.5454 40.2598 51.3293C40.2823 51.1132 40.3487 50.9038 40.4551 50.7137C40.5615 50.5236 40.7057 50.3567 40.8791 50.223C41.0524 50.0893 41.2513 49.9916 41.4639 49.9357C41.6764 49.8798 41.8981 49.8669 42.1159 49.8977C42.3336 49.9286 42.5428 50.0025 42.7308 50.1152C42.9189 50.2279 43.0819 50.3769 43.2102 50.5533C44.176 51.7834 45.4712 52.7218 46.9492 53.2624C47.0537 53.3026 47.1547 53.3511 47.2512 53.4075C47.3647 53.4181 47.4768 53.4397 47.5859 53.472C48.0003 53.5886 48.4234 53.6721 48.8513 53.722C51.4161 54.052 54.0167 53.4812 56.1986 52.1094C56.5634 51.8785 57.0062 51.8002 57.4295 51.8916C57.8528 51.9831 58.222 52.2369 58.4558 52.5972C58.6897 52.9576 58.769 53.3948 58.6764 53.8129C58.5837 54.231 58.3268 54.5956 57.962 54.8266C55.663 56.2684 52.9951 57.032 50.2718 57.0277ZM26.9155 51.7305C26.5157 51.7336 26.1286 51.5916 25.8276 51.3316C25.5267 51.0715 25.3328 50.7114 25.2828 50.3195C25.2828 50.0454 25.2175 49.7632 25.1848 49.5132C25.1448 49.0856 25.2784 48.6597 25.5563 48.3293C25.8342 47.9989 26.2335 47.7911 26.6665 47.7515C27.0996 47.712 27.5308 47.8439 27.8653 48.1183C28.1998 48.3928 28.4103 48.7872 28.4503 49.2149C28.4503 49.4568 28.5075 49.6987 28.5401 49.9406C28.5676 50.1508 28.5529 50.3642 28.4967 50.5688C28.4406 50.7734 28.3442 50.965 28.213 51.1327C28.0819 51.3005 27.9185 51.441 27.7323 51.5464C27.5461 51.6517 27.3407 51.7197 27.1278 51.7466L26.9155 51.7305ZM61.007 51.158C60.7005 51.1566 60.4006 51.07 60.1416 50.9081C59.9598 50.7955 59.8022 50.6485 59.6779 50.4757C59.5536 50.3028 59.465 50.1075 59.4172 49.9008C59.3695 49.6941 59.3635 49.4801 59.3995 49.2711C59.4356 49.0621 59.513 48.8622 59.6273 48.6828C59.7498 48.4893 59.8641 48.2958 59.9784 48.0942C60.0807 47.9078 60.2193 47.7432 60.3861 47.6098C60.5529 47.4763 60.7447 47.3766 60.9505 47.3163C61.1563 47.256 61.3721 47.2364 61.5856 47.2585C61.7991 47.2806 62.0061 47.344 62.1948 47.4451C62.3835 47.5463 62.5502 47.6831 62.6853 47.8478C62.8204 48.0126 62.9214 48.202 62.9824 48.4052C63.0434 48.6085 63.0634 48.8217 63.041 49.0325C63.0186 49.2434 62.9544 49.4478 62.852 49.6342C62.705 49.8922 62.5499 50.1502 62.3948 50.4404C62.2429 50.6654 62.0363 50.849 61.7937 50.9744C61.5512 51.0998 61.2807 51.1629 61.007 51.158ZM82.3468 50.1179C82.212 50.1178 82.0777 50.1015 81.9468 50.0696C81.7387 50.0178 81.5431 49.926 81.371 49.7995C81.1989 49.673 81.0537 49.5142 80.9438 49.3322C80.8338 49.1503 80.7613 48.9487 80.7303 48.739C80.6993 48.5294 80.7104 48.3157 80.763 48.1103C81.0594 46.961 81.2857 45.7952 81.4406 44.6191C81.5114 44.0816 81.5685 43.5172 81.612 42.926C81.6267 42.8 81.654 42.6757 81.6937 42.5551C81.6772 42.4293 81.6772 42.3019 81.6937 42.1761C81.7427 41.4263 81.7672 40.6684 81.7672 39.9186C81.7576 37.3927 81.4841 34.8745 80.9508 32.4041C80.8971 32.1938 80.8869 31.9749 80.9208 31.7606C80.9547 31.5463 81.0321 31.341 81.1483 31.1569C81.2644 30.9728 81.417 30.8137 81.5968 30.6892C81.7766 30.5647 81.9801 30.4773 82.1949 30.4323C82.4098 30.3873 82.6316 30.3855 82.8471 30.4271C83.0627 30.4687 83.2675 30.5528 83.4494 30.6744C83.6312 30.7961 83.7864 30.9526 83.9055 31.1349C84.0247 31.3171 84.1054 31.5212 84.1428 31.7349C84.7285 34.4167 85.0322 37.151 85.049 39.8944C85.049 40.7007 85.049 41.5069 84.9673 42.3132C84.9602 42.4528 84.9355 42.5909 84.8938 42.7244C84.9145 42.8607 84.9145 42.9993 84.8938 43.1356C84.8449 43.7484 84.7796 44.3611 84.6979 44.9739C84.5291 46.2802 84.281 47.5752 83.955 48.8521C83.8745 49.2132 83.6709 49.536 83.3781 49.7665C83.0853 49.997 82.7212 50.121 82.3468 50.1179V50.1179ZM26.9319 45.4577H26.7196C26.5068 45.4308 26.3013 45.3628 26.1151 45.2574C25.9289 45.1521 25.7656 45.0115 25.6344 44.8438C25.5032 44.6761 25.4068 44.4844 25.3507 44.2799C25.2946 44.0753 25.2798 43.8618 25.3073 43.6516C25.7952 39.9585 27.2593 36.4574 29.5524 33.5007C29.6433 33.3893 29.7475 33.2891 29.8627 33.2023C29.9228 33.068 30.0026 32.943 30.0994 32.8314C31.3935 31.3002 32.8995 29.9566 34.573 28.8404C34.7501 28.7114 34.9517 28.6191 35.1657 28.569C35.3798 28.5189 35.6019 28.5121 35.8187 28.5489C36.0355 28.5857 36.2426 28.6653 36.4274 28.7831C36.6123 28.9009 36.7711 29.0544 36.8944 29.2344C37.0177 29.4143 37.1029 29.617 37.1449 29.8303C37.1869 30.0435 37.1849 30.263 37.1388 30.4754C37.0928 30.6879 37.0038 30.889 36.8772 31.0666C36.7505 31.2442 36.5887 31.3948 36.4017 31.5092C34.9798 32.4572 33.7017 33.6001 32.6056 34.9036C32.5239 34.995 32.4337 35.0787 32.3362 35.1535C32.2828 35.2634 32.22 35.3686 32.1485 35.4679C30.2022 37.9724 28.9602 40.9401 28.5483 44.0709C28.4879 44.4512 28.2917 44.7976 27.9953 45.0475C27.6988 45.2974 27.3216 45.4343 26.9319 45.4335V45.4577ZM40.4835 43.4823C40.2558 43.4826 40.0306 43.436 39.8223 43.3452C39.4288 43.1693 39.1219 42.8464 38.9689 42.4475C38.8159 42.0485 38.8292 41.606 39.0059 41.2167C39.1337 40.9266 39.2782 40.6439 39.4386 40.3701C39.5458 40.1864 39.6886 40.0253 39.8588 39.8961C40.0291 39.7669 40.2234 39.6721 40.4307 39.6171C40.638 39.5621 40.8543 39.5479 41.0672 39.5754C41.2801 39.6029 41.4854 39.6716 41.6714 39.7775C41.8574 39.8834 42.0204 40.0244 42.1512 40.1925C42.2821 40.3606 42.3781 40.5526 42.4338 40.7573C42.4895 40.9621 42.5038 41.1757 42.476 41.3859C42.4481 41.5962 42.3786 41.7989 42.2714 41.9826C42.1734 42.16 42.0755 42.3535 41.9857 42.547C41.8498 42.8249 41.6361 43.0585 41.3698 43.22C41.1035 43.3815 40.7959 43.4641 40.4835 43.4581V43.4823ZM53.9454 42.289C53.6425 42.2896 53.3454 42.207 53.0874 42.0504C52.8293 41.8937 52.6204 41.6693 52.4841 41.4021C52.1249 40.6947 51.5954 40.0852 50.9421 39.6269C50.2888 39.1686 49.5317 38.8757 48.737 38.7737C47.6744 38.6372 46.5941 38.7647 45.594 39.1446C45.3935 39.2208 45.1798 39.2573 44.9651 39.2519C44.7503 39.2466 44.5387 39.1995 44.3424 39.1134C44.146 39.0273 43.9688 38.9039 43.8207 38.7501C43.6727 38.5964 43.5568 38.4153 43.4796 38.2173C43.4024 38.0193 43.3655 37.8083 43.3709 37.5962C43.3763 37.3841 43.4239 37.1751 43.5111 36.9812C43.5983 36.7873 43.7233 36.6122 43.879 36.466C44.0347 36.3198 44.2179 36.2053 44.4184 36.1291C45.5315 35.7092 46.7128 35.4933 47.9043 35.4921C48.3219 35.4947 48.739 35.5216 49.1534 35.5728C50.4797 35.742 51.7437 36.2306 52.8341 36.9954C53.9244 37.7602 54.8079 38.7778 55.4067 39.9589C55.5992 40.3417 55.6299 40.7843 55.4922 41.1895C55.3544 41.5947 55.0594 41.9292 54.672 42.1197C54.4451 42.2251 54.1959 42.2749 53.9454 42.2648V42.289ZM62.5581 40.5233C62.1829 40.5332 61.8157 40.4151 61.5184 40.189C61.221 39.9628 61.0116 39.6424 60.9254 39.2816C60.5427 37.6679 59.8738 36.1338 58.9498 34.7504C58.8769 34.6547 58.8191 34.5487 58.7783 34.4359C58.6864 34.357 58.6042 34.2677 58.5334 34.1699C56.6733 31.6803 54.0378 29.862 51.031 28.9936C50.6298 28.8628 50.2955 28.5836 50.0985 28.2145C49.9014 27.8454 49.8568 27.4153 49.9741 27.0144C50.0915 26.6136 50.3615 26.2733 50.7276 26.065C51.0936 25.8567 51.5272 25.7967 51.9372 25.8975C55.6373 26.9619 58.8811 29.1969 61.1703 32.259C61.2568 32.3789 61.3281 32.5089 61.3825 32.646C61.4924 32.7429 61.5885 32.8541 61.6682 32.9766C62.8109 34.6736 63.64 36.5571 64.1173 38.5399C64.167 38.7464 64.175 38.9605 64.1407 39.17C64.1065 39.3795 64.0306 39.5803 63.9176 39.7608C63.8046 39.9414 63.6566 40.0981 63.4822 40.222C63.3077 40.3459 63.1102 40.4346 62.901 40.483C62.7873 40.4979 62.6726 40.5033 62.5581 40.4991V40.5233ZM45.194 28.4292C44.9796 28.4366 44.7658 28.4022 44.5648 28.328C44.3638 28.2538 44.1797 28.1413 44.0227 27.9968C43.8658 27.8523 43.7392 27.6787 43.6502 27.4859C43.5613 27.2931 43.5116 27.0848 43.5041 26.8731C43.4966 26.6613 43.5314 26.4502 43.6065 26.2517C43.6817 26.0532 43.7956 25.8713 43.9419 25.7163C44.0882 25.5613 44.264 25.4363 44.4592 25.3484C44.6544 25.2605 44.8653 25.2115 45.0797 25.2041L45.945 25.1638C46.1594 25.1574 46.373 25.1929 46.5736 25.268C46.7741 25.3432 46.9578 25.4566 47.1139 25.6019C47.2701 25.7471 47.3957 25.9213 47.4837 26.1145C47.5717 26.3077 47.6203 26.5162 47.6267 26.7279C47.6332 26.9397 47.5973 27.1507 47.5212 27.3487C47.4451 27.5468 47.3302 27.7281 47.1832 27.8824C47.0361 28.0366 46.8597 28.1607 46.6641 28.2476C46.4684 28.3345 46.2574 28.3825 46.043 28.3889H45.3083L45.194 28.4292ZM80.9671 28.3486C80.634 28.3474 80.3091 28.2455 80.0362 28.0567C79.7633 27.8679 79.5555 27.6012 79.4405 27.2923C79.3507 27.0585 79.2609 26.8247 79.1629 26.5909C79.0038 26.1921 79.0116 25.7472 79.1846 25.354C79.3576 24.9609 79.6816 24.6517 80.0854 24.4946C80.4892 24.3374 80.9397 24.3451 81.3378 24.516C81.7358 24.6868 82.0489 25.0069 82.208 25.4057L82.5019 26.2119C82.6523 26.6129 82.6353 27.0564 82.4547 27.445C82.274 27.8336 81.9445 28.1354 81.5386 28.2841C81.353 28.3365 81.1599 28.3582 80.9671 28.3486V28.3486ZM75.6526 18.6733C75.3991 18.6733 75.1491 18.615 74.9224 18.503C74.6957 18.3911 74.4985 18.2285 74.3464 18.0283C73.2779 16.6037 72.1074 15.2565 70.8442 13.9969C70.7489 13.9062 70.6665 13.8031 70.5993 13.6905C70.4883 13.6298 70.3866 13.5538 70.2972 13.4648C67.9026 11.1891 65.209 9.24198 62.2887 7.67569C62.1 7.57458 61.9333 7.43776 61.7982 7.27302C61.663 7.10829 61.5621 6.91888 61.5011 6.71561C61.44 6.51234 61.4201 6.29918 61.4425 6.08832C61.4649 5.87745 61.5291 5.67301 61.6315 5.48666C61.7339 5.30031 61.8725 5.1357 62.0392 5.00223C62.206 4.86876 62.3978 4.76905 62.6036 4.70878C62.8095 4.64851 63.0252 4.62888 63.2387 4.65098C63.4522 4.67309 63.6593 4.7365 63.848 4.83762C67.0222 6.54464 69.9515 8.66232 72.5586 11.1346C72.6594 11.2335 72.7472 11.3445 72.8198 11.4652C72.9418 11.5339 73.0543 11.6179 73.1545 11.7151C74.5259 13.0751 75.7973 14.5301 76.9588 16.069C77.0874 16.2384 77.181 16.4312 77.2342 16.6363C77.2875 16.8415 77.2992 17.0549 77.2689 17.2646C77.2386 17.4742 77.1667 17.6759 77.0575 17.8581C76.9483 18.0403 76.8038 18.1995 76.6322 18.3266C76.3616 18.5381 76.0301 18.6595 75.6853 18.6733H75.6526ZM12.7924 18.4233C12.4289 18.424 12.0755 18.3048 11.7883 18.0847C11.6193 17.954 11.4781 17.7917 11.3726 17.6071C11.2672 17.4225 11.1997 17.2191 11.1739 17.0087C11.1482 16.7983 11.1646 16.5849 11.2224 16.3808C11.2802 16.1766 11.3782 15.9858 11.5107 15.8191C12.6972 14.3113 13.9817 12.8812 15.3558 11.5377C15.508 11.3885 15.6886 11.2702 15.8871 11.1899C16.0856 11.1095 16.2981 11.0685 16.5126 11.0692C16.7272 11.07 16.9395 11.1124 17.1374 11.1942C17.3353 11.276 17.515 11.3955 17.6661 11.5458C17.8173 11.6962 17.937 11.8744 18.0184 12.0705C18.0998 12.2665 18.1413 12.4765 18.1405 12.6884C18.1398 12.9002 18.0968 13.1099 18.014 13.3054C17.9312 13.5008 17.8102 13.6783 17.658 13.8276C16.3819 15.0763 15.1876 16.4039 14.0823 17.8025C13.9319 17.993 13.7401 18.1476 13.5211 18.2551C13.3021 18.3626 13.0615 18.42 12.8169 18.4233H12.7924ZM24.744 8.0869C24.3825 8.0894 24.0304 7.97333 23.7428 7.75689C23.4553 7.54045 23.2487 7.23586 23.1553 6.89092C23.0619 6.54599 23.0871 6.18021 23.2268 5.85092C23.3666 5.52164 23.6131 5.24747 23.9277 5.07144L24.6542 4.67638C24.8431 4.56384 25.053 4.49025 25.2714 4.46005C25.4898 4.42985 25.7122 4.44365 25.925 4.50065C26.1379 4.55764 26.3368 4.65663 26.5099 4.79165C26.6829 4.92668 26.8265 5.09493 26.9319 5.28625C27.0373 5.47757 27.1024 5.68801 27.1232 5.90486C27.144 6.1217 27.1201 6.34047 27.053 6.54795C26.9859 6.75542 26.8769 6.9473 26.7326 7.11203C26.5883 7.27676 26.4117 7.4109 26.2135 7.50638L25.544 7.87726C25.3073 8.0099 25.0407 8.08197 24.7685 8.0869H24.744ZM57.9783 5.62777C57.7864 5.62705 57.5959 5.59434 57.415 5.53103L56.6966 5.28108C56.2863 5.14316 55.9483 4.84989 55.7569 4.46583C55.5655 4.08177 55.5365 3.63836 55.6761 3.23314C55.8158 2.82792 56.1127 2.49408 56.5016 2.30507C56.8904 2.11606 57.3394 2.08737 57.7497 2.2253L58.5661 2.49943C58.9275 2.62899 59.2311 2.8804 59.4232 3.20935C59.6154 3.53829 59.6839 3.92367 59.6166 4.29758C59.5492 4.67148 59.3504 5.00991 59.0552 5.25325C58.76 5.4966 58.3873 5.62924 58.0028 5.62777H57.9783ZM30.5402 5.45039C30.1571 5.44808 29.787 5.31275 29.4947 5.06812C29.2024 4.8235 29.0065 4.48515 28.9413 4.11227C28.8761 3.73939 28.9458 3.35575 29.1381 3.02847C29.3304 2.7012 29.6331 2.45113 29.9932 2.32205C33.4049 1.11756 36.9674 0.3797 40.5815 0.128983C40.7196 0.108669 40.8598 0.108669 40.9978 0.128983C41.1304 0.0885699 41.2675 0.0642064 41.406 0.0564218C43.3402 -0.0467027 45.2791 -0.0251672 47.2104 0.120913C47.4248 0.136795 47.634 0.194241 47.8259 0.289953C48.0178 0.385664 48.1888 0.517775 48.329 0.678744C48.4693 0.839714 48.5761 1.02639 48.6433 1.22811C48.7104 1.42983 48.7368 1.64266 48.7207 1.85442C48.7046 2.06618 48.6464 2.27273 48.5495 2.4623C48.4526 2.65187 48.3189 2.82072 48.1559 2.95923C47.9929 3.09774 47.8039 3.20319 47.5996 3.26956C47.3954 3.33592 47.1799 3.36189 46.9655 3.34601C45.1781 3.21209 43.384 3.19055 41.5938 3.28152C41.4637 3.29805 41.332 3.29805 41.2019 3.28152C41.0798 3.32069 40.954 3.3477 40.8264 3.36215C37.5135 3.59757 34.2482 4.27565 31.1198 5.37783C30.9404 5.43341 30.7526 5.45796 30.5647 5.45039H30.5402Z" fill="#20FF93" />
<path d="M54.5741 45.9415H54.3618C54.1489 45.9146 53.9436 45.8466 53.7574 45.7412C53.5711 45.6359 53.4077 45.4954 53.2766 45.3276C53.1454 45.1599 53.049 44.9683 52.9929 44.7637C52.9368 44.5591 52.922 44.3456 52.9495 44.1354C53.0396 43.4336 52.9727 42.7207 52.7536 42.0472C52.6204 41.6398 52.6566 41.1969 52.8541 40.8159C53.0516 40.4348 53.3942 40.1469 53.8067 40.0154C54.2191 39.8839 54.6676 39.9196 55.0534 40.1146C55.4392 40.3097 55.7308 40.6481 55.8639 41.0555C56.2332 42.181 56.3447 43.3734 56.1905 44.5466C56.1372 44.9328 55.9442 45.2869 55.647 45.5433C55.3498 45.7997 54.9687 45.9412 54.5741 45.9415Z" fill="#20FF93" />
</g>
<defs transform="translate(0.0,120.5)">
<clipPath id="clip0_121_9">
<rect width="85" height="73" fill="white" />
</clipPath>
</defs>
</svg>