<svg xmlns="http://www.w3.org/2000/svg" viewBox="0 0 64 64" fill="none">
	<circle r="32" cx="32px" fill="white" cy="32px" />
	<path d="M47.375,20 C49.071999,23.6364 50.011398,27.287901 62.375,36.5 C62.617401,34.9646 63.262901,31.297001 62.875,28 C62.390202,24.6061 55.132599,23.151501 47.375,20 " fill="#D2BBA6" />
	<path d="M10.7655,9.36905 C12.375,8 12.7857,8.72258 12.7049,9.61147 C12.7049,16.884199 17.068501,27.990801 29.1898,36.520599 C35.735199,41.126598 47.613998,45.005402 59.735199,42.338799 C61.6595,41.8577 61.2869,42.7435 60.9552,43.532299 L60.9473,43.5509 C51.9776,64.884201 26.5231,68.099297 12.2201,55.6721 C-6.95909,39.008202 2.03824,17.1266 10.7655,9.36905 " fill="#F5D9C0" />
	<path d="M45.674599,4.03572 C32.565399,-1.92298 19.4928,2.09627 19.0079,5.24785 C18.232201,10.8721 37.674599,15.914501 48.0989,20.278099 C58.523102,24.6418 62.8867,28.0357 62.8867,28.0357 C62.401901,20.762899 56.341301,8.88418 45.674599,4.03572 " fill="#F5D9C0" />
	<path d="M43.976601,4.37888 C32.629501,-0.244373 21.314199,2.87409 20.894501,5.31934 C20.223,9.68311 36.852001,14.1143 45.875,17.5 C54.897999,20.8857 60.375,24.5 60.375,24.5 C59.955299,18.857201 53.2094,8.14071 43.976601,4.37888 " fill="#D9474B" />
	<path d="M9.8751,12.5 C11.0368,11.4736 11.6562,11.9335 11.5849,12.7124 C11.5849,19.085699 17.688299,30.5252 28.375,38 C34.145802,42.0364 47.188301,46.336899 57.875099,44 C59.571602,43.5784 59.189201,44.481998 58.949299,45.048901 L58.943699,45.062199 C49.875099,63 25.9853,65.390297 13.375,54.5 C-3.53433,39.896999 2.375,19.5 9.8751,12.5 " fill="#D9474B" />
	<ellipse cx="43.875px" fill="#F5D9C0" ry="2" rx="3" cy="51px" />
	<ellipse cx="30.875px" fill="#F5D9C0" ry="1.5" rx="2" cy="6.5px" />
</svg>
