<svg xmlns="http://www.w3.org/2000/svg" viewBox="0 0 80 80">
  <g>
    <path fill="#0e3ca5" d="M32.6 59.3c2 7.4 9.2 13 12.8 12.8.1 0 13.8-2.6 21.2-15 5.8-9.7 3.8-19-4.1-19.3-2.8.2-33.7 7.4-29.9 21.5m29.2-47.6C51.6 3.1 37.4 1.1 25.3 6.5c-.7.3-1.5.7-2.2 1.1-.5.3-1 .5-1.5.8h.1c-1.4 1-2.6 2.1-3.7 3.5C8.2 25 41.5 34.5 59.3 34.5c8.2 5.9 10.5-16.5 2.5-22.8z"/>
    <path fill="#5493f7" d="M27.3 12C22.7 18.9 7.5 23.7 5 23l.3-.6c1.7-3.3 4-6.4 6.6-9 1.3-1.3 2.7-2.5 4.3-3.6.9-.7 1.9-1.3 2.9-1.9 1.5-.9 3.2-1.3 5-1.3 6.8-.1 3.2 5.4 3.2 5.4m-3.8 48.6c.3 2.2 0 10.7-.5 11.4-.4 0-1.2.1-3.5-1.2-1.2-.7-2.4-1.4-3.5-2.3-1.5-1.1-2.9-2.3-4.3-3.7-2.6-2.6-4.9-5.7-6.6-9-.9-1.7-1.6-3.4-2.2-5.2-.5-1.8-.9-3.7-1.2-5.6-.7-3.9-.7-7.9 0-11.8.3-1.9.7-3.8 1.3-5.7.1-.4.2-.7.4-1.1 2.6 3.5 5.7 6.7 8.3 10.2 2.5 3.4 5.9 8.9 6.5 10 4.3 7.3 5 11.8 5.3 14m50.7-21.5c0 4.6-.9 9.1-2.5 13.4-4.3 4.6-33.3-6.8-33.6-6.9-4-1.7-16-7-17.1-15.3C19.4 18.4 43.6 10 54.3 9.7c1.3 0 5.2.1 7.4 1.9 8 6.9 12.5 17 12.5 27.5M54.6 71.5c-3.2 1.5-6.6.4-5.7-2.7 1.7-5.9 16.9-12 20.2-12.3.4 0 .6.2.4.6-3.5 6.1-8.7 11.1-14.9 14.4"/>
  </g>
  <linearGradient id="cdc8f04a-aa2c-4b03-b839-d80daf2b45b9" x1="17.331" x2="80" y1="7.641" y2="7.641" gradientTransform="matrix(1 0 0 -1 0 82)" gradientUnits="userSpaceOnUse">
    <stop offset="0" stop-color="#600000"/>
    <stop offset=".33" stop-color="#630000"/>
    <stop offset=".59" stop-color="#6d0000"/>
    <stop offset=".83" stop-color="#7e0000"/>
    <stop offset="1" stop-color="#8f0000"/>
  </linearGradient>
  <path fill="url(#cdc8f04a-aa2c-4b03-b839-d80daf2b45b9)" d="M17.3 77.2c-.1 1.4.9 2.6 2.3 2.8 30.8.2 60.4-1.2 60.4-5.8 0-14-62.7 3-62.7 3z"/>
  <linearGradient id="6efd65dc-1f06-4355-8c33-a6ad47c8bc1a" x1="48.666" x2="48.666" y1="13.312" y2="2.002" gradientTransform="matrix(1 0 0 -1 0 82)" gradientUnits="userSpaceOnUse">
    <stop offset=".35" stop-color="#bf1010"/>
    <stop offset=".65" stop-color="#bd1010"/>
    <stop offset=".75" stop-color="#b60f0f"/>
    <stop offset=".83" stop-color="#ab0d0d"/>
    <stop offset=".89" stop-color="#9a0a0a"/>
    <stop offset=".94" stop-color="#840606"/>
    <stop offset=".99" stop-color="#690202"/>
    <stop offset="1" stop-color="#600000"/>
  </linearGradient>
  <path fill="url(#6efd65dc-1f06-4355-8c33-a6ad47c8bc1a)" d="M17.3 77.2c-.1 1.4.9 2.6 2.3 2.7 30.8.3 60.4-.7 60.4-5.7 0-14-62.7 3-62.7 3zm2.4 2.6h-.2c-1-.1-1.7-.8-2-1.8.2 1 1.1 1.8 2.2 1.8 30.7-.2 59.8-9.6 59.8-5.5S50.3 80 19.7 79.8z"/>
  <linearGradient id="853a15b8-d966-429d-8534-91de0aeeb912" x1="17.34" x2="80" y1="26.686" y2="26.686" gradientTransform="matrix(1 0 0 -1 0 82)" gradientUnits="userSpaceOnUse">
    <stop offset="0" stop-color="#bf1010"/>
    <stop offset=".02" stop-color="#c11212"/>
    <stop offset=".24" stop-color="#d22323"/>
    <stop offset=".49" stop-color="#dc2d2d"/>
    <stop offset=".79" stop-color="#df3030"/>
    <stop offset=".84" stop-color="#dc2e2e"/>
    <stop offset=".88" stop-color="#d22626"/>
    <stop offset=".92" stop-color="#c11919"/>
    <stop offset=".95" stop-color="#a90808"/>
    <stop offset=".97" stop-color="#9f0000"/>
    <stop offset="1" stop-color="#df3030"/>
  </linearGradient>
  <path fill="url(#853a15b8-d966-429d-8534-91de0aeeb912)" d="M19.7 37.8c-1.3 0-2.3 1-2.3 2.3v37.1c0 1.3 1 2.3 2.3 2.3C50.4 79.4 80 69.2 80 74.2V32.4c0-5-29.6 5.2-60.3 5.4z"/>
  <linearGradient id="c9c65c38-f952-403f-966d-011f048199c2" x1="17.34" x2="80" y1="34.125" y2="34.125" gradientTransform="matrix(1 0 0 -1 0 82)" gradientUnits="userSpaceOnUse">
    <stop offset="0" stop-color="#000095"/>
    <stop offset=".02" stop-color="#010397"/>
    <stop offset=".18" stop-color="#091ba1"/>
    <stop offset=".36" stop-color="#0f2ca9"/>
    <stop offset=".55" stop-color="#1336ae"/>
    <stop offset=".79" stop-color="#1439af"/>
    <stop offset=".84" stop-color="#1336ac"/>
    <stop offset=".89" stop-color="#0f2ca4"/>
    <stop offset=".93" stop-color="#091b96"/>
    <stop offset=".96" stop-color="#010382"/>
    <stop offset=".97" stop-color="#00007f"/>
    <stop offset="1" stop-color="#2040bf"/>
  </linearGradient>
  <path fill="url(#c9c65c38-f952-403f-966d-011f048199c2)" d="M24 60.2c1 0 2-.1 3-.1s1.9-.1 2.8-.2 1.8-.1 2.8-.2l2.7-.3 2.8-.3c1-.1 1.9-.2 3-.3s2.1-.2 3.2-.4 2.3-.3 3.5-.5V35.4c-9.3 1.4-18.6 2.3-28 2.4-1.3 0-2.3 1-2.3 2.3v20.2H21c1.1 0 2-.1 3-.1z"/>
  <linearGradient id="50d25106-093d-4086-95df-eb9d6a6e9a51" x1="23.89" x2="85.61" y1="33.775" y2="33.775" gradientTransform="matrix(1 0 0 -1 0 82)" gradientUnits="userSpaceOnUse">
    <stop offset="0" stop-color="#ebebec"/>
    <stop offset=".24" stop-color="#f2f2f2"/>
    <stop offset=".49" stop-color="#fcfcfc"/>
    <stop offset=".79" stop-color="#fff"/>
    <stop offset=".84" stop-color="#fcfcfc"/>
    <stop offset=".88" stop-color="#f2f2f2"/>
    <stop offset=".92" stop-color="#e1e1e1"/>
    <stop offset=".95" stop-color="#c9c9c9"/>
    <stop offset=".97" stop-color="#bfbfbf"/>
    <stop offset="1" stop-color="#fff"/>
  </linearGradient>
  <path fill="url(#50d25106-093d-4086-95df-eb9d6a6e9a51)" d="m37.1 49.4 4.4-1.2-4.4-1.2 3.2-3.2-4.4 1.2 1.2-4.4-3.2 3.2-1.2-4.4-1.2 4.4-3.2-3.2 1.2 4.4-4.4-1.2 3.2 3.2-4.4 1.2 4.4 1.2-3.2 3.2 4.4-1.1-1.2 4.4 3.2-3.3 1.2 4.4 1.2-4.4 3.2 3.3-1.2-4.4 4.4 1.1z"/>
  <linearGradient id="cf56d9c1-3546-4e73-833e-ace80612db7c" x1="26.85" x2="48.72" y1="33.606" y2="34.256" gradientTransform="matrix(1 0 0 -1 0 82)" gradientUnits="userSpaceOnUse">
    <stop offset="0" stop-color="#000095"/>
    <stop offset=".02" stop-color="#010397"/>
    <stop offset=".23" stop-color="#091ba1"/>
    <stop offset=".45" stop-color="#0f2ca9"/>
    <stop offset=".7" stop-color="#1336ae"/>
    <stop offset="1" stop-color="#1439af"/>
  </linearGradient>
  <path fill="url(#cf56d9c1-3546-4e73-833e-ace80612db7c)" d="M32.7 53.2c-2.8 0-5-2.2-5-5s2.2-5 5-5 5 2.2 5 5-2.2 5-5 5zm0-9.4c-2.4 0-4.4 2-4.4 4.4s2 4.4 4.4 4.4 4.4-2 4.4-4.4c0-2.4-1.9-4.4-4.4-4.4z"/>
</svg>
