<svg width="18" height="18" viewBox="0 0 18 18" fill="none" xmlns="http://www.w3.org/2000/svg">
<circle cx="8.54651" cy="8.54651" r="8.54651" fill="#67D2CC"/>
<rect width="8.68217" height="9.49612" transform="translate(4.34131 3.79846)" fill="#67D2CC"/>
<path fill-rule="evenodd" clip-rule="evenodd" d="M6.89793 6.39147C7.13621 6.36514 7.35084 6.5359 7.37732 6.77288L7.64168 9.13907L8.28951 7.77C8.36111 7.61868 8.51414 7.5221 8.6823 7.5221C8.85046 7.5221 9.00349 7.61868 9.07509 7.77L9.72292 9.13907L9.98728 6.77288C10.0138 6.5359 10.2284 6.36514 10.4667 6.39147C10.705 6.4178 10.8767 6.63125 10.8502 6.86823L10.4161 10.7537C10.3946 10.9458 10.2474 11.1003 10.0558 11.1319C9.86407 11.1636 9.67457 11.0647 9.59184 10.8899L8.6823 8.96774L7.77276 10.8899C7.69003 11.0647 7.50053 11.1636 7.30885 11.1319C7.11716 11.1003 6.96998 10.9458 6.94852 10.7537L6.51441 6.86823C6.48794 6.63125 6.65964 6.4178 6.89793 6.39147Z" fill="white"/>
<path fill-rule="evenodd" clip-rule="evenodd" d="M8.03216 3.97145C8.22991 3.85812 8.45415 3.79846 8.68239 3.79846C8.91065 3.79846 9.13489 3.85812 9.33265 3.97146C9.33295 3.97163 9.33325 3.97181 9.33356 3.97198L12.3723 5.69887C12.5701 5.81243 12.7344 5.97572 12.8487 6.17236C12.963 6.369 13.0232 6.59207 13.0235 6.81919V7.68396C13.0235 7.9224 12.8291 8.11569 12.5894 8.11569C12.3496 8.11569 12.1553 7.9224 12.1553 7.68396V6.82008C12.1552 6.74437 12.1351 6.67001 12.097 6.60447C12.059 6.53915 12.0045 6.48487 11.9389 6.44703C11.9387 6.4469 11.9384 6.44677 11.9382 6.44664L8.89945 4.71975C8.83345 4.68186 8.7586 4.66191 8.68239 4.66191C8.60619 4.66191 8.53133 4.68186 8.46534 4.71975L8.46367 4.72071L5.42658 6.44664C5.42635 6.44677 5.42612 6.4469 5.4259 6.44703C5.36027 6.48487 5.30576 6.53915 5.2678 6.60447C5.22973 6.66996 5.20964 6.74425 5.20953 6.81989V10.2732C5.20964 10.3488 5.22973 10.4231 5.2678 10.4886C5.30576 10.5539 5.36027 10.6082 5.4259 10.646C5.42612 10.6461 5.42635 10.6463 5.42658 10.6464L8.46534 12.3733C8.53133 12.4112 8.60619 12.4311 8.68239 12.4311C8.75859 12.4311 8.83345 12.4112 8.89945 12.3733L8.90112 12.3723L11.9382 10.6464C11.9384 10.6463 11.9387 10.6461 11.9389 10.646C12.0045 10.6082 12.059 10.5539 12.097 10.4886C12.1351 10.423 12.1552 10.3487 12.1553 10.273V9.41085C12.1553 9.17242 12.3496 8.97913 12.5894 8.97913C12.8291 8.97913 13.0235 9.17242 13.0235 9.41085V10.2739C13.0232 10.501 12.963 10.724 12.8487 10.9207C12.7344 11.1173 12.5701 11.2806 12.3723 11.3942L12.3706 11.3951L9.33356 13.1211C9.3333 13.1212 9.33304 13.1214 9.33278 13.1215C9.13499 13.2349 8.9107 13.2946 8.68239 13.2946C8.4541 13.2946 8.22982 13.2349 8.03203 13.1215C8.03177 13.1214 8.0315 13.1212 8.03123 13.1211L4.99415 11.3951L4.99247 11.3942C4.79469 11.2806 4.63041 11.1173 4.51612 10.9207C4.40183 10.724 4.34154 10.501 4.34131 10.2739V6.81919C4.34154 6.59207 4.40183 6.369 4.51612 6.17236C4.63041 5.97572 4.79469 5.81243 4.99247 5.69887L4.99415 5.69791L8.03216 3.97145Z" fill="white"/>
</svg>
