<?xml version="1.0" encoding="UTF-8"?>
<svg version="1.1" xmlns="http://www.w3.org/2000/svg" width="235" height="234">
<path d="M0 0 C0.69609375 0.52207031 1.3921875 1.04414063 2.109375 1.58203125 C7.57644106 5.93311364 11.71615089 11.52706778 16 17 C16.804375 17.98806641 16.804375 17.98806641 17.625 18.99609375 C36.69781957 43.09625978 43.70478681 73.77621084 40.69970703 104.02246094 C38.65851225 120.00358591 34.46453214 134.17959134 26 148 C21 143 21 143 18.75 140.5 C13.64528073 135.85934611 7.63198108 132.87055877 1 131 C1.391875 129.845 1.78375 128.69 2.1875 127.5 C2.59162109 126.26056641 2.59162109 126.26056641 3.00390625 124.99609375 C3.7303889 122.8109479 4.49328474 120.63781003 5.27734375 118.47265625 C8.85579546 108.28673309 10.0400492 98.77323372 10 88 C10 86.783125 10 85.56625 10 84.3125 C9.19116241 62.06946618 -2.32190108 40.7462223 -18.375 25.75 C-23.24564828 21.60783129 -28.48616124 18.21970212 -34 15 C-34.74378906 14.54753906 -35.48757812 14.09507813 -36.25390625 13.62890625 C-54.52090865 3.43115361 -77.91842919 1.54796135 -97.921875 7.00390625 C-110.96169233 11.10252103 -122.81602837 16.75712146 -133 26 C-133.84304687 26.75023437 -134.68609375 27.50046875 -135.5546875 28.2734375 C-151.44189868 43.19486077 -161.07640245 65.65059434 -162.02734375 87.3515625 C-161.85520928 110.31921926 -154.33747463 131.97931594 -138.30859375 148.73046875 C-137.54675781 149.47941406 -136.78492188 150.22835937 -136 151 C-134.81083984 152.16982422 -134.81083984 152.16982422 -133.59765625 153.36328125 C-116.75362918 169.1961345 -94.86985104 176.49835643 -71.83251953 175.94824219 C-62.73685968 175.45681589 -54.19920953 173.13230501 -45.62109375 170.21875 C-42.09986695 169.03361218 -38.57827772 167.99473358 -35 167 C-34.72027344 167.7734375 -34.44054687 168.546875 -34.15234375 169.34375 C-30.78131731 178.10191516 -26.78273777 185.7417029 -18 190 C-19 193 -19 193 -22.17578125 194.68359375 C-23.54917443 195.28106524 -24.92854401 195.86492089 -26.3125 196.4375 C-27.39748779 196.89709106 -27.39748779 196.89709106 -28.50439453 197.3659668 C-34.5588129 199.89432507 -40.66164851 202.28098694 -47 204 C-47.63591064 204.17587646 -48.27182129 204.35175293 -48.92700195 204.53295898 C-57.63784611 206.62292514 -66.53203905 206.44083341 -75.4375 206.4375 C-76.71214615 206.43860275 -76.71214615 206.43860275 -78.01254272 206.43972778 C-90.68212964 206.41086972 -102.09969698 205.66638594 -114 201 C-115.46843577 200.47438172 -116.93719385 199.94966314 -118.40625 199.42578125 C-130.09140391 195.08194391 -140.35543597 188.92461678 -150 181 C-150.63421875 180.48179687 -151.2684375 179.96359375 -151.921875 179.4296875 C-168.40072504 165.41562272 -180.4884123 147.18294842 -187.4375 126.75 C-187.78965576 125.72507446 -187.78965576 125.72507446 -188.14892578 124.67944336 C-191.76294047 113.33849941 -192.32238126 101.82227239 -192.25 90 C-192.26160156 88.10507813 -192.26160156 88.10507813 -192.2734375 86.171875 C-192.25031633 74.93498537 -191.14823269 64.04728992 -187.5 53.375 C-187.24718262 52.62992187 -186.99436523 51.88484375 -186.73388672 51.1171875 C-182.06110874 38.00828375 -175.45282647 25.27481138 -166 15 C-165.46793945 14.40670898 -164.93587891 13.81341797 -164.38769531 13.20214844 C-162.56126416 11.16601224 -160.72140792 9.14303226 -158.875 7.125 C-158.28879883 6.48143555 -157.70259766 5.83787109 -157.09863281 5.17480469 C-153.66909522 1.50154361 -150.30532334 -1.34013585 -146 -4 C-144.49890994 -5.1026843 -142.99887937 -6.20681258 -141.5 -7.3125 C-97.78586389 -37.75627336 -40.92433601 -31.55030617 0 0 Z " fill="#B7B3D7" transform="translate(192,28)"/>
<path d="M0 0 C13.28699882 10.43269582 22.88300725 23.75851262 25 41 C25.97592014 58.60409782 22.50610818 74.63847216 10.75 88.375 C-1.33193185 100.82490947 -15.91556121 107.8866796 -33.25 108.3125 C-49.40130109 108.00684789 -64.33337122 102.4275373 -76.07421875 91.12890625 C-86.72305315 79.35686822 -92.61378632 65.06586082 -92.4375 49.1875 C-92.42992676 48.22481201 -92.42235352 47.26212402 -92.41455078 46.27026367 C-92.05976258 30.87323262 -86.14275918 17.50813987 -75.53515625 6.3515625 C-55.16071903 -12.54737618 -23.1482955 -16.37078889 0 0 Z M-53 28 C-59.30614436 33.75538939 -62.02032084 40.38338542 -62.4375 48.875 C-62.16071418 56.29055348 -59.94534572 63.34916223 -54.875 68.875 C-48.63836494 74.43054643 -41.36426705 77.86723386 -33 78 C-25.04019106 77.30406042 -17.34320462 73.91534066 -12.10546875 67.78125 C-7.03187533 60.37454428 -3.97827025 52.68231352 -5.5625 43.625 C-7.82661212 35.00052029 -12.16848958 28.80755719 -19.75390625 24.15625 C-31.74956918 17.98109134 -42.72190416 19.45460997 -53 28 Z " fill="#BAAED9" transform="translate(150,69)"/>
<path d="M0 0 C5.65989996 4.56115919 9.06153469 9.13057197 10.51953125 16.3046875 C11.52706316 26.13607784 11.19609991 35.30849303 4.94140625 43.328125 C-0.57248535 49.21457684 -6.69181334 52.91032764 -14.80078125 53.578125 C-25.60137908 53.86643665 -32.66781653 51.98097003 -40.85546875 44.6796875 C-46.37062776 38.7291212 -48.61749445 31.7729938 -48.98046875 23.7421875 C-48.60206415 15.17315435 -45.31888088 8.27839567 -39.48046875 2.0625 C-27.9888399 -8.03756442 -12.5383282 -8.56950305 0 0 Z " fill="#B5AEDC" transform="translate(207.48046875,166.6953125)"/>
<path d="M0 0 C2.3125 1.625 2.3125 1.625 4.3125 4.625 C3.5625 7.25 3.5625 7.25 2.3125 9.625 C1.3225 10.12 1.3225 10.12 0.3125 10.625 C0.22162109 12.43097656 0.22162109 12.43097656 0.12890625 14.2734375 C0.04450268 15.84897077 -0.04014541 17.42449096 -0.125 19 C-0.16431641 19.7940625 -0.20363281 20.588125 -0.24414062 21.40625 C-0.57421875 27.3984375 -0.57421875 27.3984375 -1.6875 29.625 C-8.10673331 29.33387831 -12.30850206 28.17284971 -17.6875 24.625 C-17.31238281 24.20089844 -16.93726563 23.77679688 -16.55078125 23.33984375 C-9.61506515 15.81335292 -9.61506515 15.81335292 -5.6875 6.625 C-6.6775 6.625 -7.6675 6.625 -8.6875 6.625 C-9.0175 5.635 -9.3475 4.645 -9.6875 3.625 C-10.0175 2.965 -10.3475 2.305 -10.6875 1.625 C-10.3575 0.965 -10.0275 0.305 -9.6875 -0.375 C-10.3475 -0.705 -11.0075 -1.035 -11.6875 -1.375 C-7.23449156 -2.85933615 -4.1270341 -2.11150582 0 0 Z " fill="#FFA1CC" transform="translate(188.6875,190.375)"/>
<path d="M0 0 C-0.99 2.97 -1.98 5.94 -3 9 C-3.66 9 -4.32 9 -5 9 C-5.15855469 9.64066406 -5.31710938 10.28132812 -5.48046875 10.94140625 C-7.10165658 16.95144511 -9.09827283 21.14920406 -13 26 C-15.475 25.01 -15.475 25.01 -18 24 C-17.62488281 23.57589844 -17.24976563 23.15179688 -16.86328125 22.71484375 C-9.92756515 15.18835292 -9.92756515 15.18835292 -6 6 C-6.99 6 -7.98 6 -9 6 C-9.33 5.01 -9.66 4.02 -10 3 C-10.33 2.34 -10.66 1.68 -11 1 C-10.67 0.34 -10.34 -0.32 -10 -1 C-10.66 -1.33 -11.32 -1.66 -12 -2 C-7.26382227 -3.57872591 -4.10216206 -2.73477471 0 0 Z " fill="#FDC089" transform="translate(189,191)"/>
<path d="M0 0 C0.33 0.99 0.66 1.98 1 3 C3.01508358 3.73323796 3.01508358 3.73323796 5 4 C4.26083824 9.02629997 2.63107238 13.36892762 -1 17 C-3.60898564 16.83167835 -4.83527359 16.13178113 -6.875 14.5 C-8.44035533 11.0214326 -7.76602649 8.67814662 -6.80859375 5.0625 C-5.49292713 1.70659673 -3.64602199 0 0 0 Z " fill="#957FFC" transform="translate(197,178)"/>
<path d="M0 0 C0.33 0 0.66 0 1 0 C1.46237127 8.16855919 0.38229186 16.54728034 -5 23 C-7.475 22.01 -7.475 22.01 -10 21 C-8.56368119 17.16981651 -6.80130736 13.57869509 -4.953125 9.9375 C-3.8382781 7.67125383 -2.88660749 5.36428664 -2 3 C-1.34 3 -0.68 3 0 3 C0 2.01 0 1.02 0 0 Z " fill="#FFABB5" transform="translate(186,197)"/>
<path d="M0 0 C1.1446875 0.12375 1.1446875 0.12375 2.3125 0.25 C3.4375 4 3.4375 4 2.3125 6.25 C1.6525 6.25 0.9925 6.25 0.3125 6.25 C-0.0175 9.22 -0.3475 12.19 -0.6875 15.25 C-3.6575 14.755 -3.6575 14.755 -6.6875 14.25 C-7.0175 12.6 -7.3475 10.95 -7.6875 9.25 C-7.3575 9.25 -7.0275 9.25 -6.6875 9.25 C-6.584375 8.5075 -6.48125 7.765 -6.375 7 C-5.35737293 2.92949173 -4.42862288 0.41196492 0 0 Z " fill="#84CCF9" transform="translate(190.6875,174.75)"/>
<path d="M0 0 C-2.64 1.98 -5.28 3.96 -8 6 C-10 3 -10 3 -11 1 C-10.67 0.34 -10.34 -0.32 -10 -1 C-10.66 -1.33 -11.32 -1.66 -12 -2 C-7.26382227 -3.57872591 -4.10216206 -2.73477471 0 0 Z " fill="#D8D79B" transform="translate(189,191)"/>
<path d="M0 0 C1.378044 3.7207188 0.50727907 5.43012852 -1 9 C-1.49295073 11.36373915 -1.93394648 13.72916188 -2.33984375 16.109375 C-2.55769531 16.73328125 -2.77554688 17.3571875 -3 18 C-3.99 18.33 -4.98 18.66 -6 19 C-6.66 18.67 -7.32 18.34 -8 18 C-6.56368119 14.16981651 -4.80130736 10.57869509 -2.953125 6.9375 C-1.8382781 4.67125383 -0.88660749 2.36428664 0 0 Z " fill="#FFB3A2" transform="translate(184,200)"/>
<path d="M0 0 C3.875 1.75 3.875 1.75 5 4 C4.1875 6.5625 4.1875 6.5625 3 9 C2.01 9.495 2.01 9.495 1 10 C0.34227572 13.02934491 0.34227572 13.02934491 0 16 C-0.33 16 -0.66 16 -1 16 C-1.02692484 13.70839681 -1.04636124 11.41670454 -1.0625 9.125 C-1.07410156 7.84882813 -1.08570313 6.57265625 -1.09765625 5.2578125 C-1 2 -1 2 0 0 Z " fill="#FEA3C8" transform="translate(188,191)"/>
<path d="M0 0 C-0.75 4.75 -0.75 4.75 -3 7 C-4.9375 6.875 -4.9375 6.875 -7 6 C-8.75 3.9375 -8.75 3.9375 -10 2 C-6.5980513 -0.09350689 -3.94727588 -0.17942163 0 0 Z " fill="#AF61F9" transform="translate(199,188)"/>
<path d="M0 0 C-0.60694155 3.15330554 -1.6416665 5.18888867 -3.5625 7.75 C-4.24505859 8.67039063 -4.24505859 8.67039063 -4.94140625 9.609375 C-5.29074219 10.06828125 -5.64007813 10.5271875 -6 11 C-7.48262169 8.03475663 -6.83538959 6.14877613 -6 3 C-2.9 0 -2.9 0 0 0 Z " fill="#8DA1FB" transform="translate(197,178)"/>
<path d="M0 0 C2.56616632 3.84924948 2.55097676 6.4349304 3 11 C0.525 10.01 0.525 10.01 -2 9 C-1.855625 8.443125 -1.71125 7.88625 -1.5625 7.3125 C-0.97230872 4.88615805 -0.476571 2.45093655 0 0 Z " fill="#88F5E9" transform="translate(185,179)"/>
<path d="M0 0 C-1.62463842 0.05395478 -3.24978541 0.09277195 -4.875 0.125 C-5.77992188 0.14820313 -6.68484375 0.17140625 -7.6171875 0.1953125 C-10 0 -10 0 -12 -2 C-7.26382227 -3.57872591 -4.10216206 -2.73477471 0 0 Z " fill="#B8E4BA" transform="translate(189,191)"/>
<path d="M0 0 C1.32 1.32 2.64 2.64 4 4 C3.34 5.65 2.68 7.3 2 9 C1.34 8.67 0.68 8.34 0 8 C0 5.36 0 2.72 0 0 Z " fill="#EB89E8" transform="translate(189,191)"/>
<path d="M0 0 C-0.33 0.99 -0.66 1.98 -1 3 C-2.98 3.33 -4.96 3.66 -7 4 C-4.83989616 0.75984424 -3.8842653 0 0 0 Z " fill="#9A68FE" transform="translate(202,184)"/>
</svg>
