<svg version="1.1" id="Layer_1" xmlns="http://www.w3.org/2000/svg" xmlns:xlink="http://www.w3.org/1999/xlink" x="0px" y="0px"
	 width="100%" viewBox="0 0 1001 1001" enable-background="new 0 0 1001 1001" xml:space="preserve">
<path fill="#47C983" opacity="1.000000" stroke="none" 
	d="
M459.000000,1002.000000 
	C306.000000,1002.000000 153.500000,1002.000000 1.000000,1002.000000 
	C1.000000,668.333313 1.000000,334.666656 1.000000,1.000000 
	C334.666656,1.000000 668.333313,1.000000 1002.000000,1.000000 
	C1002.000000,334.666656 1002.000000,668.333313 1002.000000,1002.000000 
	C821.166687,1002.000000 640.333313,1002.000000 459.000000,1002.000000 
M709.077698,511.285095 
	C716.537964,532.211548 743.843384,538.174927 759.139099,521.009949 
	C768.705688,510.274200 769.108093,494.292572 760.510010,483.246002 
	C751.790466,472.043335 736.305054,468.557831 723.629639,474.944885 
	C710.595032,481.512939 704.705811,495.708954 709.077698,511.285095 
M301.188507,620.263062 
	C310.136353,631.307922 321.883514,635.217102 334.332489,631.292480 
	C345.964996,627.625305 354.166870,617.210144 354.931488,605.134766 
	C355.738617,592.388672 348.422211,580.571289 336.744415,575.759155 
	C324.790161,570.833130 311.175690,574.109131 302.749481,583.939209 
	C294.265991,593.836121 293.514893,607.631897 301.188507,620.263062 
M590.790833,510.614532 
	C595.112488,522.602966 603.686218,529.609558 616.261047,530.778259 
	C628.657410,531.930359 638.524841,526.717346 644.627075,515.867554 
	C650.606323,505.236328 649.959229,494.393524 643.033386,484.255951 
	C635.080261,472.614868 619.576843,468.571899 606.576660,474.398956 
	C593.927307,480.068787 585.945129,495.372314 590.790833,510.614532 
M618.515503,268.012695 
	C605.403076,268.662964 595.952515,274.915833 591.275757,287.163574 
	C586.750977,299.013184 589.278198,309.989807 598.347656,318.812775 
	C607.276550,327.498993 618.114807,329.454346 629.765259,325.070709 
	C642.959473,320.106232 650.324585,306.701202 648.025330,292.569244 
	C645.755371,278.617126 634.503174,268.957306 618.515503,268.012695 
M707.012207,609.386475 
	C707.137756,608.563110 707.273438,607.741150 707.387390,606.916199 
	C709.046692,594.900513 703.085999,583.056946 692.402344,577.135559 
	C681.925964,571.329041 668.156799,572.648926 659.151978,580.322998 
	C649.606506,588.457825 646.079346,601.254150 650.168152,612.916382 
	C654.364746,624.886169 666.074585,633.111328 678.524109,632.834106 
	C691.953613,632.535095 702.464294,624.145813 707.012207,609.386475 
M472.148254,603.442505 
	C471.253052,585.124695 457.296265,571.954163 440.479523,573.557922 
	C423.718567,575.156372 412.227722,588.361938 413.016785,605.118774 
	C413.728516,620.232727 427.074005,632.786682 442.485168,632.839172 
	C458.327087,632.893127 470.974060,620.680481 472.148254,603.442505 
M644.127686,721.557617 
	C644.747986,720.379700 645.432922,719.230957 645.978516,718.019348 
	C651.164490,706.501709 648.257935,692.707642 638.864258,684.142212 
	C629.564758,675.662659 615.470520,674.039246 604.443604,680.177490 
	C593.500305,686.269348 587.560852,698.736023 589.740967,711.037537 
	C591.835754,722.857971 600.578369,732.539062 611.934753,734.784485 
	C625.098877,737.387390 635.931152,733.398193 644.127686,721.557617 
M516.473999,475.958923 
	C503.992706,469.409515 490.815033,470.724457 481.187164,479.480042 
	C472.216125,487.638367 469.196625,501.176300 473.819885,512.511658 
	C478.645111,524.342163 490.354095,531.702087 503.127167,530.933350 
	C515.587402,530.183411 526.302124,521.515564 529.722656,509.418457 
	C533.305176,496.748840 528.633118,484.492432 516.473999,475.958923 
M530.754761,709.092407 
	C530.786926,708.094604 530.852051,707.096619 530.846313,706.098999 
	C530.773376,693.518311 523.318604,682.716248 511.681488,678.311584 
	C500.360992,674.026855 487.355560,677.182251 479.241272,686.182129 
	C471.038086,695.280640 469.332489,708.716614 474.985291,719.708496 
	C480.799255,731.013733 492.592072,736.927490 505.875671,735.199097 
	C518.467346,733.560669 527.673767,724.169128 530.754761,709.092407 
M451.316772,371.049744 
	C437.461334,367.551880 424.840149,372.148651 417.633423,383.317596 
	C410.767944,393.957733 411.509583,408.072571 419.450287,417.896576 
	C427.516174,427.875458 440.637451,431.508942 452.798370,427.131165 
	C464.056274,423.078522 471.665405,412.556061 472.087555,400.457062 
	C472.549194,387.225403 465.509369,376.951599 451.316772,371.049744 
M649.629456,391.253418 
	C649.321106,393.053925 648.902039,394.843445 648.722290,396.656708 
	C647.489075,409.096863 653.966125,420.534393 665.291138,426.013611 
	C676.270020,431.325378 689.375977,429.362701 698.294006,421.071228 
	C707.278564,412.717926 710.173767,399.329987 705.434937,388.050354 
	C700.615662,376.578979 689.935242,369.592438 677.545349,369.806519 
	C664.690125,370.028656 654.734009,377.463745 649.629456,391.253418 
M277.228638,528.861328 
	C299.000061,519.973511 302.545135,490.588593 282.876404,476.941772 
	C271.539215,469.075653 256.081207,470.281952 245.971542,479.637115 
	C235.945389,488.914917 233.645294,504.496613 240.564377,516.267273 
	C247.915527,528.773071 261.926025,533.772522 277.228638,528.861328 
M520.448303,275.031097 
	C519.375854,274.248322 518.357544,273.374969 517.222595,272.696808 
	C506.541565,266.314880 495.706421,266.117065 485.217163,272.798706 
	C474.436066,279.666260 470.238159,290.042236 472.136475,302.428864 
	C473.954468,314.291260 481.138672,322.193420 492.599243,325.882782 
	C505.262756,329.959320 519.503967,324.531067 526.443359,313.206696 
	C533.985962,300.898163 531.892212,286.433258 520.448303,275.031097 
M410.277008,693.362183 
	C409.436310,691.928162 408.685516,690.431763 407.740540,689.070129 
	C400.713074,678.944092 388.022125,674.256226 376.023651,677.306946 
	C364.545441,680.225464 355.516479,690.401245 354.128357,701.983215 
	C352.596771,714.762390 358.746735,726.623718 369.883362,732.369568 
	C380.336090,737.762695 393.860870,736.217712 402.693237,728.621582 
	C412.599762,720.101562 415.442719,707.702087 410.277008,693.362183 
M354.012634,295.712646 
	C354.010742,296.544983 353.985504,297.378052 354.010468,298.209595 
	C354.374603,310.340820 360.066772,319.282257 370.942749,324.342621 
	C381.999207,329.486877 392.875397,328.192383 402.297852,320.364136 
	C411.698486,312.554047 415.016449,302.206787 412.086487,290.300415 
	C408.636261,276.280151 396.047577,267.264404 381.667175,268.035522 
	C367.193054,268.811676 356.240784,279.421295 354.012634,295.712646 
M305.182465,377.669617 
	C294.699402,388.523071 292.795990,403.130219 300.297638,415.156494 
	C307.364227,426.485321 321.407227,431.612091 334.328094,427.580170 
	C345.532532,424.083832 353.665833,414.070557 354.863586,402.297974 
	C356.045624,390.680237 349.971710,379.091339 339.736053,373.434998 
	C328.909149,367.451935 316.176300,368.855103 305.182465,377.669617 
M585.652405,587.958618 
	C584.880127,586.873413 584.151855,585.753479 583.328796,584.708313 
	C574.073181,572.955872 557.401978,570.020203 544.706238,577.891846 
	C531.852051,585.861694 526.974854,602.514771 533.540466,616.016785 
	C540.723450,630.788452 558.925476,636.986450 573.521301,629.630676 
	C588.597961,622.032593 594.048096,604.151794 585.652405,587.958618 
M362.146301,480.649323 
	C356.607880,486.884766 353.732666,494.053558 353.965973,502.512360 
	C354.310211,514.993652 362.943573,526.236633 375.193054,529.787598 
	C387.842896,533.454651 401.022614,528.535950 408.368744,517.406372 
	C415.217224,507.030762 414.298767,492.433197 406.572540,482.839935 
	C395.578827,469.189606 375.097809,468.177338 362.146301,480.649323 
M589.341248,394.386169 
	C589.074158,393.253693 588.866821,392.103119 588.530884,390.991425 
	C583.869202,375.566803 568.131470,366.606110 552.839905,370.653656 
	C537.023743,374.840027 527.605713,390.752167 531.517273,406.679047 
	C535.105286,421.288086 550.388672,431.328735 564.963074,428.651642 
	C581.101807,425.687195 591.406189,411.653076 589.341248,394.386169 
z"/>
<path fill="#FBFFFD" opacity="1.000000" stroke="none" 
	d="
M708.974670,510.902100 
	C704.705811,495.708954 710.595032,481.512939 723.629639,474.944885 
	C736.305054,468.557831 751.790466,472.043335 760.510010,483.246002 
	C769.108093,494.292572 768.705688,510.274200 759.139099,521.009949 
	C743.843384,538.174927 716.537964,532.211548 708.974670,510.902100 
z"/>
<path fill="#FCFFFD" opacity="1.000000" stroke="none" 
	d="
M300.996887,619.955750 
	C293.514893,607.631897 294.265991,593.836121 302.749481,583.939209 
	C311.175690,574.109131 324.790161,570.833130 336.744415,575.759155 
	C348.422211,580.571289 355.738617,592.388672 354.931488,605.134766 
	C354.166870,617.210144 345.964996,627.625305 334.332489,631.292480 
	C321.883514,635.217102 310.136353,631.307922 300.996887,619.955750 
z"/>
<path fill="#FCFFFD" opacity="1.000000" stroke="none" 
	d="
M590.671021,510.232361 
	C585.945129,495.372314 593.927307,480.068787 606.576660,474.398956 
	C619.576843,468.571899 635.080261,472.614868 643.033386,484.255951 
	C649.959229,494.393524 650.606323,505.236328 644.627075,515.867554 
	C638.524841,526.717346 628.657410,531.930359 616.261047,530.778259 
	C603.686218,529.609558 595.112488,522.602966 590.671021,510.232361 
z"/>
<path fill="#FCFFFD" opacity="1.000000" stroke="none" 
	d="
M618.968384,268.012970 
	C634.503174,268.957306 645.755371,278.617126 648.025330,292.569244 
	C650.324585,306.701202 642.959473,320.106232 629.765259,325.070709 
	C618.114807,329.454346 607.276550,327.498993 598.347656,318.812775 
	C589.278198,309.989807 586.750977,299.013184 591.275757,287.163574 
	C595.952515,274.915833 605.403076,268.662964 618.968384,268.012970 
z"/>
<path fill="#FCFFFE" opacity="1.000000" stroke="none" 
	d="
M706.945068,609.794800 
	C702.464294,624.145813 691.953613,632.535095 678.524109,632.834106 
	C666.074585,633.111328 654.364746,624.886169 650.168152,612.916382 
	C646.079346,601.254150 649.606506,588.457825 659.151978,580.322998 
	C668.156799,572.648926 681.925964,571.329041 692.402344,577.135559 
	C703.085999,583.056946 709.046692,594.900513 707.387390,606.916199 
	C707.273438,607.741150 707.137756,608.563110 706.945068,609.794800 
z"/>
<path fill="#FCFFFD" opacity="1.000000" stroke="none" 
	d="
M472.116638,603.849243 
	C470.974060,620.680481 458.327087,632.893127 442.485168,632.839172 
	C427.074005,632.786682 413.728516,620.232727 413.016785,605.118774 
	C412.227722,588.361938 423.718567,575.156372 440.479523,573.557922 
	C457.296265,571.954163 471.253052,585.124695 472.116638,603.849243 
z"/>
<path fill="#FCFFFE" opacity="1.000000" stroke="none" 
	d="
M643.947266,721.872620 
	C635.931152,733.398193 625.098877,737.387390 611.934753,734.784485 
	C600.578369,732.539062 591.835754,722.857971 589.740967,711.037537 
	C587.560852,698.736023 593.500305,686.269348 604.443604,680.177490 
	C615.470520,674.039246 629.564758,675.662659 638.864258,684.142212 
	C648.257935,692.707642 651.164490,706.501709 645.978516,718.019348 
	C645.432922,719.230957 644.747986,720.379700 643.947266,721.872620 
z"/>
<path fill="#FCFFFD" opacity="1.000000" stroke="none" 
	d="
M516.790527,476.141174 
	C528.633118,484.492432 533.305176,496.748840 529.722656,509.418457 
	C526.302124,521.515564 515.587402,530.183411 503.127167,530.933350 
	C490.354095,531.702087 478.645111,524.342163 473.819885,512.511658 
	C469.196625,501.176300 472.216125,487.638367 481.187164,479.480042 
	C490.815033,470.724457 503.992706,469.409515 516.790527,476.141174 
z"/>
<path fill="#FCFFFD" opacity="1.000000" stroke="none" 
	d="
M530.688110,709.524048 
	C527.673767,724.169128 518.467346,733.560669 505.875671,735.199097 
	C492.592072,736.927490 480.799255,731.013733 474.985291,719.708496 
	C469.332489,708.716614 471.038086,695.280640 479.241272,686.182129 
	C487.355560,677.182251 500.360992,674.026855 511.681488,678.311584 
	C523.318604,682.716248 530.773376,693.518311 530.846313,706.098999 
	C530.852051,707.096619 530.786926,708.094604 530.688110,709.524048 
z"/>
<path fill="#FCFFFD" opacity="1.000000" stroke="none" 
	d="
M451.697327,371.152588 
	C465.509369,376.951599 472.549194,387.225403 472.087555,400.457062 
	C471.665405,412.556061 464.056274,423.078522 452.798370,427.131165 
	C440.637451,431.508942 427.516174,427.875458 419.450287,417.896576 
	C411.509583,408.072571 410.767944,393.957733 417.633423,383.317596 
	C424.840149,372.148651 437.461334,367.551880 451.697327,371.152588 
z"/>
<path fill="#FCFFFD" opacity="1.000000" stroke="none" 
	d="
M649.742188,390.869446 
	C654.734009,377.463745 664.690125,370.028656 677.545349,369.806519 
	C689.935242,369.592438 700.615662,376.578979 705.434937,388.050354 
	C710.173767,399.329987 707.278564,412.717926 698.294006,421.071228 
	C689.375977,429.362701 676.270020,431.325378 665.291138,426.013611 
	C653.966125,420.534393 647.489075,409.096863 648.722290,396.656708 
	C648.902039,394.843445 649.321106,393.053925 649.742188,390.869446 
z"/>
<path fill="#FCFFFD" opacity="1.000000" stroke="none" 
	d="
M276.853333,528.971985 
	C261.926025,533.772522 247.915527,528.773071 240.564377,516.267273 
	C233.645294,504.496613 235.945389,488.914917 245.971542,479.637115 
	C256.081207,470.281952 271.539215,469.075653 282.876404,476.941772 
	C302.545135,490.588593 299.000061,519.973511 276.853333,528.971985 
z"/>
<path fill="#FCFFFD" opacity="1.000000" stroke="none" 
	d="
M520.716797,275.264740 
	C531.892212,286.433258 533.985962,300.898163 526.443359,313.206696 
	C519.503967,324.531067 505.262756,329.959320 492.599243,325.882782 
	C481.138672,322.193420 473.954468,314.291260 472.136475,302.428864 
	C470.238159,290.042236 474.436066,279.666260 485.217163,272.798706 
	C495.706421,266.117065 506.541565,266.314880 517.222595,272.696808 
	C518.357544,273.374969 519.375854,274.248322 520.716797,275.264740 
z"/>
<path fill="#FCFFFD" opacity="1.000000" stroke="none" 
	d="
M410.448853,693.704346 
	C415.442719,707.702087 412.599762,720.101562 402.693237,728.621582 
	C393.860870,736.217712 380.336090,737.762695 369.883362,732.369568 
	C358.746735,726.623718 352.596771,714.762390 354.128357,701.983215 
	C355.516479,690.401245 364.545441,680.225464 376.023651,677.306946 
	C388.022125,674.256226 400.713074,678.944092 407.740540,689.070129 
	C408.685516,690.431763 409.436310,691.928162 410.448853,693.704346 
z"/>
<path fill="#FCFFFE" opacity="1.000000" stroke="none" 
	d="
M354.020325,295.261292 
	C356.240784,279.421295 367.193054,268.811676 381.667175,268.035522 
	C396.047577,267.264404 408.636261,276.280151 412.086487,290.300415 
	C415.016449,302.206787 411.698486,312.554047 402.297852,320.364136 
	C392.875397,328.192383 381.999207,329.486877 370.942749,324.342621 
	C360.066772,319.282257 354.374603,310.340820 354.010468,298.209595 
	C353.985504,297.378052 354.010742,296.544983 354.020325,295.261292 
z"/>
<path fill="#FCFFFE" opacity="1.000000" stroke="none" 
	d="
M305.442963,377.427521 
	C316.176300,368.855103 328.909149,367.451935 339.736053,373.434998 
	C349.971710,379.091339 356.045624,390.680237 354.863586,402.297974 
	C353.665833,414.070557 345.532532,424.083832 334.328094,427.580170 
	C321.407227,431.612091 307.364227,426.485321 300.297638,415.156494 
	C292.795990,403.130219 294.699402,388.523071 305.442963,377.427521 
z"/>
<path fill="#14A256" opacity="1.000000" stroke="none" 
	d="
M585.841064,588.275879 
	C594.048096,604.151794 588.597961,622.032593 573.521301,629.630676 
	C558.925476,636.986450 540.723450,630.788452 533.540466,616.016785 
	C526.974854,602.514771 531.852051,585.861694 544.706238,577.891846 
	C557.401978,570.020203 574.073181,572.955872 583.328796,584.708313 
	C584.151855,585.753479 584.880127,586.873413 585.841064,588.275879 
z"/>
<path fill="#14A256" opacity="1.000000" stroke="none" 
	d="
M362.398499,480.397705 
	C375.097809,468.177338 395.578827,469.189606 406.572540,482.839935 
	C414.298767,492.433197 415.217224,507.030762 408.368744,517.406372 
	C401.022614,528.535950 387.842896,533.454651 375.193054,529.787598 
	C362.943573,526.236633 354.310211,514.993652 353.965973,502.512360 
	C353.732666,494.053558 356.607880,486.884766 362.398499,480.397705 
z"/>
<path fill="#14A256" opacity="1.000000" stroke="none" 
	d="
M589.426270,394.802063 
	C591.406189,411.653076 581.101807,425.687195 564.963074,428.651642 
	C550.388672,431.328735 535.105286,421.288086 531.517273,406.679047 
	C527.605713,390.752167 537.023743,374.840027 552.839905,370.653656 
	C568.131470,366.606110 583.869202,375.566803 588.530884,390.991425 
	C588.866821,392.103119 589.074158,393.253693 589.426270,394.802063 
z"/>
</svg>