<?xml version="1.0" encoding="utf-8"?>
<svg viewBox="0 0 1000 1000" width="1000" height="1000" xmlns="http://www.w3.org/2000/svg">
  <defs/>
  <g transform="matrix(9.922574, 0, 0, 11.445503, -14.446198, -11.810803)" style="">
    <path d="M 34.809 37.453 C 34.809 37.453 47.504 30.966 48.647 25.848 C 49.79 20.73 44.336 11.853 32.147 11.805 C 19.958 11.757 14.532 21.981 13.418 27.191 C 12.304 32.401 8.612 46.13 34.809 37.453 Z" style="stroke-width: 5px; fill-rule: nonzero; stroke: rgb(0, 255, 13); stroke-linejoin: round; stroke-linecap: round;"/>
    <path d="M 33.554 23.638 C 31.682 21.529 24.71 26.005 27.042 27.847 C 28.884 29.302 35.004 25.271 33.554 23.638 Z" style="stroke-width: 5px; fill-rule: nonzero; stroke-linejoin: round; stroke-linecap: round; fill: rgb(0, 255, 0);"/>
  </g>
  <g transform="matrix(9.168467, 0, 0, 10.989228, 29.795063, -20.394016)" style="">
    <path d="M 77.687 38.522 C 77.687 38.522 90.382 32.035 91.525 26.917 C 92.668 21.799 87.214 12.922 75.025 12.874 C 62.836 12.826 57.41 23.05 56.296 28.26 C 55.182 33.47 51.49 47.199 77.687 38.522 Z" style="stroke-width: 5px; fill-rule: nonzero; stroke: rgb(0, 255, 13); stroke-linejoin: round; stroke-linecap: round;"/>
    <path d="M 78.333 24.138 C 77.016 22.208 72.884 26.698 75.054 27.998 C 77.448 29.433 79.575 25.958 78.333 24.138 Z" style="fill-rule: nonzero; stroke-linejoin: round; stroke-linecap: round; stroke-width: 2.08357px; fill: rgb(0, 255, 0);"/>
    <path d="M 70.239 26.97 C 68.922 25.04 63.926 29.637 66.096 30.937 C 68.49 32.372 71.481 28.79 70.239 26.97 Z" style="fill-rule: nonzero; stroke-linejoin: round; stroke-linecap: round; stroke-width: 2.08357px; fill: rgb(0, 255, 0);"/>
  </g>
  <g transform="matrix(9.693844, 0, 0, 11.830814, -1.913407, -120.44696)" style="">
    <path d="M 23.955 78.669 C 23.955 78.669 29.147 74.219 29.998 70.089 C 30.849 65.959 28.092 56.643 21.679 56.436 C 15.266 56.229 12.76 64.536 12.184 69.16 C 11.607 73.786 10.394 86.372 23.955 78.669 Z" style="stroke-width: 5px; fill-rule: nonzero; stroke: rgb(0, 255, 13); stroke-linejoin: round; stroke-linecap: round;"/>
    <path d="M 41.818 78.545 C 41.818 78.545 47.01 74.095 47.861 69.965 C 48.712 65.835 45.955 56.519 39.542 56.312 C 33.129 56.105 30.623 64.412 30.047 69.036 C 29.47 73.662 28.257 86.248 41.818 78.545 Z" style="stroke-width: 5px; fill-rule: nonzero; stroke: rgb(0, 255, 13); stroke-linejoin: round; stroke-linecap: round;"/>
    <path d="M 20.028 71.793 C 18.507 70.894 20.424 66.813 22.372 67.897 C 24.136 68.878 21.998 72.832 20.028 71.793 Z" style="stroke-width: 5px; fill-rule: nonzero; stroke-linejoin: round; stroke-linecap: round; fill: rgb(0, 255, 0);" transform="matrix(1, 0, 0, 1, 17.614226, -1.169119)"/>
    <path d="M 23.071 68.153 C 24.793 69.412 21.834 72.998 20.828 72.373 C 19.408 71.49 21.47 66.983 23.071 68.153 Z" style="stroke-width: 5px; fill-rule: nonzero; stroke-linejoin: round; stroke-linecap: round; fill: rgb(0, 255, 0);" transform="matrix(1, 0, 0, 1, -1.524583, -1.013954)"/>
  </g>
  <g transform="matrix(10.894653, 0, 0, 12.317185, -94.382828, -150.463669)" style="">
    <path d="M 62.271 73.677 C 64.212 73.273 66.996 71.29 67.399 69.428 C 67.802 67.566 68.505 61.907 61.803 61.667 C 57.508 61.513 55.698 65.83 55.588 68.13 C 55.484 70.3 56.043 74.309 62.271 73.677 Z" style="fill-rule: nonzero; stroke: rgb(0, 255, 13); stroke-width: 3px; stroke-linejoin: round; stroke-linecap: round;"/>
    <path d="M 61.907 67.392 C 61.352 68.195 62.539 66.477 61.907 67.392 Z" style="fill-rule: nonzero; stroke: rgb(0, 255, 13); stroke-width: 3px; stroke-linejoin: round; stroke-linecap: round;"/>
    <path style="fill-rule: nonzero; stroke: rgb(0, 255, 13); stroke-width: 3px; stroke-linejoin: round; stroke-linecap: round;" d="M 85.83 73.732 C 88.859 73.325 89.866 71.511 90.509 69.539 C 91.152 67.567 91.815 61.941 85.113 61.704 C 80.818 61.552 79.008 65.812 78.898 68.08 C 78.794 70.222 80.079 74.505 85.83 73.732 Z"/>
    <path style="fill-rule: nonzero; stroke: rgb(0, 255, 13); stroke-width: 3px; stroke-linejoin: round; stroke-linecap: round;" d="M 85.217 67.429 C 84.662 68.232 85.849 66.514 85.217 67.429 Z"/>
    <path style="fill-rule: nonzero; stroke: rgb(0, 255, 13); stroke-width: 3px; stroke-linejoin: round; stroke-linecap: round;" d="M 79.207 84.052 C 79.207 84.052 82.865 82.539 83.886 79.9 C 84.907 77.261 83.119 72.397 78.684 72.389 C 74.386 72.381 72.385 76.208 72.275 78.454 C 72.171 80.576 72.979 84.67 79.207 84.052 Z"/>
    <path style="fill-rule: nonzero; stroke: rgb(0, 255, 13); stroke-width: 3px; stroke-linejoin: round; stroke-linecap: round;" d="M 78.594 77.864 C 78.039 78.667 79.226 76.949 78.594 77.864 Z"/>
    <path style="fill-rule: nonzero; stroke: rgb(0, 255, 13); stroke-width: 3px; stroke-linejoin: round; stroke-linecap: round;" d="M 66.683 84.189 C 69.921 83.712 71.035 81.853 71.696 80.002 C 72.357 78.151 73.8 72.446 67.042 72.263 C 62.746 72.147 60.937 76.316 60.827 78.554 C 60.723 80.667 60.455 84.805 66.683 84.189 Z"/>
    <path style="fill-rule: nonzero; stroke: rgb(0, 255, 13); stroke-width: 3px; stroke-linejoin: round; stroke-linecap: round;" d="M 67.146 77.988 C 66.591 78.791 67.778 77.073 67.146 77.988 Z"/>
    <path style="fill-rule: nonzero; stroke: rgb(0, 255, 13); stroke-width: 3px; stroke-linejoin: round; stroke-linecap: round;" d="M 73.325 73.604 C 76.47 72.893 78.693 71.108 78.826 68.61 C 78.959 66.112 79.952 62.826 73.373 61.902 C 69.117 61.304 67.698 65.778 67.609 68.136 C 67.53 70.228 69.711 74.421 73.325 73.604 Z"/>
    <path style="fill-rule: nonzero; stroke: rgb(0, 255, 13); stroke-width: 3px; stroke-linejoin: round; stroke-linecap: round;" d="M 73.321 67.271 C 72.766 68.074 73.953 66.356 73.321 67.271 Z"/>
    <path style="fill-rule: nonzero; stroke: rgb(0, 255, 13); stroke-width: 3px; stroke-linejoin: round; stroke-linecap: round;" d="M 68.227 63.011 C 70.919 62.313 72.779 60.787 73.812 58.635 C 74.845 56.483 74.992 51.493 68.358 51.203 C 64.064 51.015 62.135 55.468 62.143 57.828 C 62.15 59.983 63.084 62.98 68.227 63.011 Z"/>
    <path style="fill-rule: nonzero; stroke: rgb(0, 255, 13); stroke-width: 3px; stroke-linejoin: round; stroke-linecap: round;" d="M 68.462 56.928 C 67.907 57.731 69.094 56.013 68.462 56.928 Z"/>
    <path style="fill-rule: nonzero; stroke: rgb(0, 255, 13); stroke-width: 3px; stroke-linejoin: round; stroke-linecap: round;" d="M 80.121 63.101 C 81.855 62.944 84.079 61.726 85.273 59.226 C 86.467 56.726 84.489 51.185 79.877 51.085 C 75.58 50.992 74.273 55.05 74.197 57.408 C 74.126 59.609 74.713 63.155 80.121 63.101 Z"/>
    <path style="fill-rule: nonzero; stroke: rgb(0, 255, 13); stroke-width: 3px; stroke-linejoin: round; stroke-linecap: round;" d="M 79.981 56.81 C 79.426 57.613 80.613 55.895 79.981 56.81 Z"/>
  </g>
</svg>