<svg width="500" height="500" viewBox="0 0 500 500" fill="none" xmlns="http://www.w3.org/2000/svg">
<g clip-path="url(#clip0_402_649)">
<circle cx="250" cy="250" r="245" fill="white"/>
<path d="M407.697 104.934L393.969 118.662C426.727 154.487 444.894 201.273 444.894 249.817C444.894 298.361 426.727 345.148 393.969 380.972L407.697 394.701C444.129 355.184 464.355 303.405 464.355 249.657C464.355 195.909 444.129 144.13 407.697 104.613V104.934Z" fill="#5A5564"/>
<path d="M118.982 106.123C154.806 73.3639 201.593 55.1973 250.137 55.1973C298.681 55.1973 345.468 73.3639 381.292 106.123L395.021 92.3942C355.504 55.9627 303.725 35.7363 249.977 35.7363C196.229 35.7363 144.45 55.9627 104.933 92.3942L118.982 106.123Z" fill="#5A5564"/>
<path d="M106.123 381.11C73.403 345.293 55.2603 298.535 55.2603 250.023C55.2603 201.511 73.403 154.753 106.123 118.937L92.3944 105.208C55.963 144.725 35.7366 196.504 35.7366 250.252C35.7366 304 55.963 355.779 92.3944 395.296L106.123 381.11Z" fill="#5A5564"/>
<path d="M381.109 393.785C345.285 426.544 298.498 444.711 249.954 444.711C201.41 444.711 154.624 426.544 118.799 393.785L105.071 407.514C144.587 443.945 196.367 464.172 250.114 464.172C303.862 464.172 355.642 443.945 395.158 407.514L381.109 393.785Z" fill="#5A5564"/>
<path d="M336.674 204.192C333.928 175.545 309.217 165.935 277.961 163.006V123.559H253.798V162.274C247.437 162.274 240.939 162.274 234.487 162.274V123.559H210.507V163.28H161.496V189.136C161.496 189.136 179.343 188.816 179.068 189.136C182.286 188.782 185.516 189.691 188.077 191.672C190.638 193.652 192.33 196.549 192.797 199.753V308.484C192.728 309.614 192.434 310.719 191.931 311.733C191.428 312.747 190.726 313.65 189.868 314.388C189.026 315.14 188.041 315.714 186.972 316.076C185.902 316.438 184.77 316.58 183.645 316.493C183.965 316.767 166.072 316.493 166.072 316.493L161.496 345.369H210.05V385.731H234.212V345.964H253.524V385.548H277.732V345.644C318.552 343.172 347.016 333.105 350.586 294.893C353.469 264.141 339.008 250.412 315.898 244.875C329.947 237.965 338.642 225.151 336.674 204.192ZM302.81 290.134C302.81 320.154 251.373 316.722 234.99 316.722V263.454C251.373 263.5 302.81 258.786 302.81 290.134ZM291.598 215.083C291.598 242.541 248.673 239.2 235.036 239.2V190.784C248.673 190.784 291.598 186.482 291.598 215.083Z" fill="#F09242"/>
<path d="M249.954 500C200.513 499.991 152.184 485.322 111.079 457.848C69.9737 430.375 37.9377 391.329 19.0215 345.65C0.105237 299.97 -4.84174 249.707 4.80603 201.216C14.4538 152.725 38.263 108.184 73.2234 73.2234C108.184 38.263 152.725 14.4538 201.216 4.80603C249.707 -4.84174 299.97 0.105237 345.65 19.0215C391.329 37.9377 430.375 69.9737 457.848 111.079C485.322 152.184 499.991 200.513 500 249.954C500.006 282.792 493.543 315.31 480.979 345.65C468.415 375.989 449.997 403.557 426.777 426.777C403.557 449.997 375.989 468.415 345.65 480.979C315.31 493.543 282.792 500.006 249.954 500ZM249.954 19.4949C204.404 19.5311 159.886 33.0704 122.028 58.4015C84.1705 83.7326 54.6721 119.718 37.2614 161.81C19.8508 203.903 15.3095 250.211 24.2116 294.884C33.1136 339.556 55.0594 380.587 87.275 412.79C119.491 444.993 160.53 466.922 205.206 475.806C249.882 484.691 296.189 480.131 338.274 462.704C380.359 445.276 416.333 415.764 441.65 377.896C466.966 340.028 480.487 295.505 480.505 249.954C480.517 219.679 474.562 189.698 462.978 161.726C451.395 133.754 434.412 108.339 413 86.9357C391.588 65.5319 366.166 48.5588 338.19 36.9868C310.213 25.4148 280.23 19.4708 249.954 19.4949Z" fill="#282138"/>
</g>
<defs>
<clipPath id="clip0_402_649">
<rect width="500" height="500" fill="white"/>
</clipPath>
</defs>
</svg>
