<?xml version="1.0" encoding="UTF-8" standalone="no"?>
<!-- Generator: Adobe Illustrator 23.1.0, SVG Export Plug-In . SVG Version: 6.00 Build 0)  -->

<svg
   version="1.1"
   id="Layer_1"
   x="0px"
   y="0px"
   viewBox="0 0 512 512"
   style="enable-background:new 0 0 512 512;"
   xml:space="preserve"
   sodipodi:docname="trst.svg"
   inkscape:version="1.3.2 (091e20e, 2023-11-25)"
   xmlns:inkscape="http://www.inkscape.org/namespaces/inkscape"
   xmlns:sodipodi="http://sodipodi.sourceforge.net/DTD/sodipodi-0.dtd"
   xmlns="http://www.w3.org/2000/svg"
   xmlns:svg="http://www.w3.org/2000/svg"><defs
   id="defs9" /><sodipodi:namedview
   id="namedview9"
   pagecolor="#ffffff"
   bordercolor="#000000"
   borderopacity="0.25"
   inkscape:showpageshadow="2"
   inkscape:pageopacity="0.0"
   inkscape:pagecheckerboard="0"
   inkscape:deskcolor="#d1d1d1"
   inkscape:zoom="0.9453125"
   inkscape:cx="256"
   inkscape:cy="255.47107"
   inkscape:window-width="1392"
   inkscape:window-height="1212"
   inkscape:window-x="0"
   inkscape:window-y="25"
   inkscape:window-maximized="0"
   inkscape:current-layer="Layer_1" />
<style
   type="text/css"
   id="style1">
	.st0{fill:#BDE3F4;}
	.st1{fill:#2477D1;}
	.st2{fill:#3873F9;}
	.st3{fill:#AEE1F9;}
	.st4{fill:#BFE7FB;}
	.st5{fill:#B7E2E0;}
</style>
<path
   class="st0"
   d="M462.1,107.8c-11.8-20-41.8-14.6-46,8.1c-11.9,64.4-51.3,155.9-174.8,155.9c-62.7,0-113.7,51-113.7,113.7  c0,46.1,42.6,107.9,113.7,107.9c141.4,0,256-114.6,256-256C497.4,190.2,484.5,145.8,462.1,107.8z"
   id="path1" />
<path
   class="st1"
   d="M270.6,240.1c62.7,0,113.7-51,113.7-113.7c0-46.1-24.7-107.9-113.7-107.9c-141.4,0-256,114.6-256,256  c0,45.6,11.9,88.4,32.8,125.5c11.6,20.5,42.6,15.3,46.3-7.9C103.9,327.9,141.8,240.1,270.6,240.1z"
   id="path2" />
<path
   class="st2"
   d="M312.5,129.4c29.1,0,52.2,5.7,70.4,15.1c0.9-5.9,1.4-11.9,1.4-18.1c0-46.1-24.7-107.9-113.7-107.9  c-141.4,0-256,114.6-256,256c0,24.8,3.5,48.9,10.1,71.6C60.9,221.2,176.3,129.4,312.5,129.4z"
   id="path3" />
<path
   class="st3"
   d="M312.5,129.4c0,23.1-18.7,41.9-41.9,41.9s-41.9-18.7-41.9-41.9s18.7-41.9,41.9-41.9S312.5,106.3,312.5,129.4z"
   id="path4" />
<path
   class="st4"
   d="M270.6,87.5c-23.1,0-41.9,18.7-41.9,41.9c0,4,0.6,7.8,1.6,11.5c26.1-7.5,53.7-11.5,82.1-11.5  C312.5,106.3,293.8,87.5,270.6,87.5z"
   id="path5" />
<path
   class="st3"
   d="M487.2,165.9c-36.1,124.9-151.5,216.7-287.7,216.7c-29.1,0-52.2-5.7-70.4-15.1c-0.9,5.9-1.4,11.9-1.4,18.1  c0,46.1,42.6,107.9,113.7,107.9c141.4,0,256-114.6,256-256C497.4,198.1,487.2,165.9,487.2,165.9z"
   id="path6" />
<path
   class="st5"
   d="M283.2,382.6c0,23.1-18.7,41.9-41.9,41.9s-41.9-18.7-41.9-41.9s18.7-41.9,41.9-41.9S283.2,359.5,283.2,382.6z"
   id="path7" />
<path
   class="st2"
   d="M283.2,382.6c0,23.1-18.7,41.9-41.9,41.9s-41.9-18.7-41.9-41.9s18.7-41.9,41.9-41.9S283.2,359.5,283.2,382.6z"
   id="path8" />
<path
   class="st1"
   d="M241.4,424.5c23.1,0,41.9-18.7,41.9-41.9c0-4-0.6-7.8-1.6-11.5c-26.1,7.5-53.7,11.5-82.1,11.5  C199.5,405.7,218.2,424.5,241.4,424.5z"
   id="path9" />
</svg>
