<?xml version="1.0" encoding="utf-8"?>
<!-- Generator: Adobe Illustrator 26.0.0, SVG Export Plug-In . SVG Version: 6.00 Build 0)  -->
<svg version="1.1" id="Layer_1" xmlns="http://www.w3.org/2000/svg" xmlns:xlink="http://www.w3.org/1999/xlink" x="0px" y="0px"
	 viewBox="0 0 256 256" style="enable-background:new 0 0 256 256;" xml:space="preserve">
<style type="text/css">
	.st0{fill:#534EFF;}
	.st1{fill:#FFFFFF;}
</style>
<g>
	<path class="st0" d="M209.2,29.1L99.3,139.7l-18.2-18.1l106.3-107C169.7,5.3,149.5,0,128,0C57.3,0,0,57.3,0,128
		c0,38.2,16.7,72.5,43.3,95.9l106.6-107.2l18.2,18.1L64.4,239.1C83.1,249.8,104.8,256,128,256c70.7,0,128-57.3,128-128
		C256,88.2,237.8,52.6,209.2,29.1z"/>
	<path class="st1" d="M99.3,139.7L209.2,29.1c-6.7-5.5-14-10.4-21.8-14.4l-106.3,107L99.3,139.7z"/>
	<path class="st1" d="M149.8,116.7L43.3,223.9c6.5,5.7,13.6,10.8,21.1,15.1L168,134.7L149.8,116.7z"/>
</g>
</svg>
