<?xml version="1.0" encoding="utf-8"?>
<!-- Generator: Adobe Illustrator 25.0.0, SVG Export Plug-In . SVG Version: 6.00 Build 0)  -->
<svg version="1.1" id="Layer_1" xmlns="http://www.w3.org/2000/svg" xmlns:xlink="http://www.w3.org/1999/xlink" x="0px" y="0px"
	 viewBox="0 0 256 256" style="enable-background:new 0 0 256 256;" xml:space="preserve">
<style type="text/css">
	.st0{fill:#06D6A0;}
	.st1{fill:#FFFFFF;}
</style>
<g>
	<circle class="st0" cx="128" cy="128" r="128"/>
	<path class="st1" d="M137.8,82.7c11.5,0,20.6,6.2,26.2,11.2c3.5,3,7.1,2.5,11.6-1.9l9.2-9.4c3.9-3.8,3.9-6.7,0-11.3
		c-5.9-5.5-13.9-9.5-23.4-11.9l4.5-19.6c0.3-1-0.5-1.9-1.5-1.9h-7.9c-1,0-1.9,0.7-2.3,1.6l-4,17.9c-3.4-0.4-6.9-0.6-10.5-0.6l3.8-17
		c0.3-1-0.5-1.9-1.5-1.9h-7.9c-1,0-1.9,0.7-2.3,1.6l-4,17.9c-27.2,3.4-44.8,20-44.8,43.6c0,9.4,3.6,17.7,10.8,24.5
		c7.2,6.9,16.6,10.5,23.2,12.6c2.4,0.8,4.6,1.5,6.7,2.1c10.6,3.2,18.6,7.2,18.6,15.4c0,8.4-8.7,15.7-21.1,15.7
		c-12.2,0-25.8-7.3-33-14.3c-0.9-0.8-2.5-2-4.5-2c-2.1,0-4.5,1.3-7,3.7l-9.8,9.8c-3.9,3.9-4.1,7.8-0.6,11.5c7,7.8,17.5,13.5,30,16.5
		l-4.2,18.6c-0.4,1.4,0.7,2.7,2.2,2.7h6.7c1.3,0,2.4-0.8,2.7-2l3.9-17.5c3.2,0.3,6.5,0.5,9.8,0.5c0.3,0,0.5,0,0.8,0l-3.7,16.2
		c-0.4,1.4,0.7,2.7,2.2,2.7h6.7c1.3,0,2.4-0.8,2.7-2l4-17.8c11.5-1.6,21.8-5.2,29.8-10.8c12-8.3,19.1-22.9,19.1-37.7
		c0-22.8-20.4-30.1-38.3-36.7c-0.9-0.4-1.9-0.7-2.8-1l-1.2-0.4c-8.5-3.2-17.6-6.8-17.6-15.2C118.8,88.5,126.8,82.7,137.8,82.7z"/>
</g>
</svg>
