<?xml version="1.0" encoding="UTF-8" standalone="no"?>
<!DOCTYPE svg PUBLIC "-//W3C//DTD SVG 1.1//EN" "http://www.w3.org/Graphics/SVG/1.1/DTD/svg11.dtd">
<svg width="100%" height="100%" viewBox="0 0 24 24" version="1.1" xmlns="http://www.w3.org/2000/svg" xmlns:xlink="http://www.w3.org/1999/xlink" xml:space="preserve" xmlns:serif="http://www.serif.com/" style="fill-rule:evenodd;clip-rule:evenodd;">
    <path d="M12.985,0.812C13.949,0.812 14.279,0.928 14.929,1.155C15.091,1.211 15.273,1.275 15.49,1.345C19.947,2.795 23.25,7.071 23.25,12.005C23.25,12.829 23.133,13.721 22.963,14.506C22.196,17.622 20.213,20.269 17.543,21.804C16.213,22.568 14.67,23.131 13.068,23.239C12.8,23.257 11.93,23.249 11.339,23.243C11.126,23.241 10.95,23.239 10.85,23.239C5.061,22.419 0.75,18.142 0.75,12.005C0.75,10.447 1.047,8.887 1.653,7.454C2.282,5.968 3.362,4.699 4.486,3.6C5.476,2.634 6.7,2.1 7.906,1.574C8.081,1.498 8.255,1.422 8.428,1.345C9.05,1.068 9.469,1.008 9.996,0.932C10.214,0.9 10.45,0.866 10.727,0.812C11.214,0.719 11.726,0.75 12.234,0.781C12.486,0.797 12.738,0.812 12.985,0.812Z" style="fill:url(#_Linear1);fill-rule:nonzero;"/>
    <path d="M12.985,0.812C13.949,0.812 14.279,0.928 14.929,1.155C15.091,1.211 15.273,1.275 15.49,1.345C19.947,2.795 23.25,7.071 23.25,12.005C23.25,12.829 23.133,13.721 22.963,14.506C22.196,17.622 20.213,20.269 17.543,21.804C16.213,22.568 14.67,23.131 13.068,23.239C12.8,23.257 11.93,23.249 11.339,23.243C11.126,23.241 10.95,23.239 10.85,23.239C5.061,22.419 0.75,18.142 0.75,12.005C0.75,10.447 1.047,8.887 1.653,7.454C2.282,5.968 3.362,4.699 4.486,3.6C5.476,2.634 6.7,2.1 7.906,1.574C8.081,1.498 8.255,1.422 8.428,1.345C9.05,1.068 9.469,1.008 9.996,0.932C10.214,0.9 10.45,0.866 10.727,0.812C11.214,0.719 11.726,0.75 12.234,0.781C12.486,0.797 12.738,0.812 12.985,0.812Z" style="fill:none;fill-rule:nonzero;stroke:white;stroke-width:1px;"/>
    <path d="M11.999,0.166L15.656,0.746L18.955,2.426L21.573,5.044L23.254,8.342L23.834,11.999L23.254,15.656L21.573,18.955L18.955,21.573L15.656,23.254L11.999,23.834L8.343,23.254L5.044,21.573L2.426,18.955L0.746,15.656L0.166,11.999L0.746,8.343L2.426,5.044L5.044,2.426L8.343,0.746L11.999,0.166ZM8.549,1.381L5.436,2.966L2.967,5.436L1.381,8.549L0.834,11.999L1.381,15.45L2.967,18.562L5.436,21.032L8.549,22.619L11.999,23.166L15.45,22.619L18.562,21.032L21.032,18.562L22.619,15.45L23.166,11.999L22.619,8.549L21.032,5.436L18.562,2.966L15.45,1.381L11.999,0.834L8.549,1.381Z" style="fill:white;"/>
    <path d="M11.915,3.928C11.993,3.881 12.094,3.907 12.141,3.985L14.738,8.343C14.785,8.421 14.759,8.523 14.681,8.569C14.603,8.616 14.501,8.59 14.455,8.512L11.857,4.154C11.811,4.076 11.836,3.975 11.915,3.928Z" style="fill:white;"/>
    <path d="M11.999,3.904L17.36,4.484L17.325,4.812L11.999,4.236L6.674,4.812L6.639,4.484L11.999,3.904Z" style="fill:white;"/>
    <path d="M9.237,8.426C9.237,8.334 9.311,8.261 9.402,8.261L14.596,8.261C14.687,8.261 14.761,8.334 14.761,8.426C14.761,8.517 14.687,8.591 14.596,8.591L9.402,8.591C9.311,8.591 9.237,8.517 9.237,8.426Z" style="fill:white;"/>
    <path d="M12.083,3.928C12.161,3.975 12.187,4.076 12.14,4.154L9.544,8.512C9.497,8.59 9.396,8.616 9.318,8.569C9.24,8.523 9.214,8.421 9.261,8.343L11.857,3.985C11.903,3.907 12.004,3.881 12.083,3.928Z" style="fill:white;"/>
    <path d="M8.392,0.803L11.999,3.853L15.606,0.803L17.49,4.573L17.195,4.721L15.499,1.326L11.999,4.285L8.499,1.326L6.804,4.721L6.509,4.573L8.392,0.803Z" style="fill:white;"/>
    <path d="M5.143,2.563C5.217,2.509 5.32,2.525 5.374,2.599L11.999,11.719L18.625,2.599C18.679,2.525 18.782,2.509 18.856,2.563C18.929,2.616 18.946,2.719 18.892,2.793L12.133,12.097C12.102,12.14 12.052,12.165 11.999,12.165C11.947,12.165 11.897,12.14 11.866,12.097L5.107,2.793C5.053,2.719 5.07,2.616 5.143,2.563Z" style="fill:white;"/>
    <path d="M9.525,8.314C9.565,8.358 9.578,8.42 9.56,8.476L7.992,13.303L12.081,16.274L16.727,18.266C16.811,18.302 16.85,18.399 16.814,18.482C16.778,18.566 16.681,18.605 16.597,18.569L11.934,16.57C11.923,16.565 11.912,16.559 11.902,16.552L7.701,13.499C7.643,13.457 7.619,13.383 7.641,13.315L9.156,8.651L4.493,9.709C4.404,9.729 4.315,9.674 4.295,9.585C4.275,9.496 4.331,9.408 4.42,9.387L9.367,8.265C9.424,8.251 9.485,8.27 9.525,8.314Z" style="fill:white;"/>
    <path d="M4.347,9.426C4.416,9.366 4.52,9.373 4.58,9.442L7.922,13.259C7.982,13.328 7.975,13.432 7.907,13.492C7.838,13.552 7.734,13.545 7.674,13.477L4.332,9.659C4.272,9.591 4.279,9.486 4.347,9.426Z" style="fill:white;"/>
    <path d="M6.931,4.439L4.635,9.553L4.661,9.616L4.603,9.652L3.534,14.751L7.435,18.284L12.078,20.948L15.442,22.696L16.535,18.244L21.105,18.581L20.481,14.837L20.807,14.783L21.499,18.941L16.789,18.593L15.662,23.182L11.917,21.236L7.24,18.553L3.238,14.928L0.234,11.971L4.25,9.483L2.464,5.109L6.931,4.439ZM4.215,9.893L0.765,12.03L3.254,14.48L4.215,9.893ZM4.463,9.131L6.382,4.855L2.928,5.373L4.463,9.131Z" style="fill:white;"/>
    <path d="M7.814,13.202C7.904,13.211 7.971,13.291 7.963,13.382L7.502,18.433C7.494,18.524 7.414,18.591 7.323,18.583C7.232,18.574 7.165,18.494 7.174,18.403L7.634,13.352C7.642,13.261 7.723,13.194 7.814,13.202Z" style="fill:white;"/>
    <path d="M12.151,16.353C12.187,16.436 12.148,16.533 12.065,16.569L7.403,18.569C7.319,18.604 7.222,18.566 7.186,18.482C7.15,18.398 7.189,18.301 7.273,18.265L11.935,16.266C12.018,16.23 12.115,16.269 12.151,16.353Z" style="fill:white;"/>
    <path d="M2.893,18.581L3.517,14.837L3.191,14.783L2.499,18.941L7.211,18.594L8.336,23.182L12.075,21.24L11.923,20.947L8.556,22.696L7.465,18.244L2.893,18.581Z" style="fill:white;"/>
    <path d="M12.097,11.865C12.14,11.896 12.165,11.946 12.165,11.998L12.165,23.5C12.165,23.591 12.091,23.665 12,23.665C11.909,23.665 11.835,23.591 11.835,23.5L11.835,12.226L1.115,15.709C1.029,15.737 0.936,15.69 0.908,15.603C0.879,15.517 0.927,15.423 1.013,15.395L11.949,11.842C11.999,11.825 12.054,11.834 12.097,11.865Z" style="fill:white;"/>
    <path d="M17.212,4.547C17.248,4.499 17.308,4.475 17.368,4.484L21.327,5.078C21.377,5.085 21.421,5.115 21.446,5.159C21.471,5.203 21.474,5.256 21.455,5.303L19.749,9.483L23.587,11.861C23.63,11.887 23.658,11.932 23.664,11.982C23.669,12.033 23.652,12.083 23.616,12.118L20.762,14.926L20.756,14.932L20.755,14.932C20.755,14.933 20.754,14.934 20.753,14.934L16.773,18.541C16.727,18.583 16.661,18.595 16.602,18.572C16.544,18.55 16.504,18.496 16.498,18.434L16.039,13.4L14.44,8.478C14.421,8.421 14.435,8.359 14.475,8.315C14.515,8.272 14.575,8.253 14.633,8.266L19.258,9.315L17.193,4.715C17.168,4.659 17.175,4.595 17.212,4.547ZM19.237,9.649L14.843,8.652L16.269,13.04L19.237,9.649ZM16.372,13.422L16.797,18.074L20.464,14.751L19.45,9.907L16.372,13.422ZM19.784,9.893L20.744,14.48L23.234,12.03L19.784,9.893ZM19.536,9.13L21.07,5.373L17.617,4.855L19.536,9.13Z" style="fill:white;"/>
    <path d="M11.842,11.947C11.87,11.861 11.963,11.813 12.05,11.842L22.987,15.395C23.074,15.423 23.121,15.517 23.093,15.603C23.065,15.69 22.972,15.737 22.885,15.709L11.948,12.155C11.861,12.127 11.814,12.034 11.842,11.947Z" style="fill:white;"/>
    <path d="M16.335,13.27C16.389,13.343 16.372,13.447 16.298,13.5L12.096,16.552C12.022,16.606 11.919,16.59 11.866,16.516C11.812,16.442 11.828,16.339 11.902,16.285L16.104,13.233C16.178,13.18 16.281,13.196 16.335,13.27Z" style="fill:white;"/>
    <path d="M16.58,18.276C16.653,18.234 16.746,18.254 16.796,18.322L18.892,21.208C18.945,21.282 18.929,21.385 18.855,21.439C18.782,21.492 18.678,21.476 18.625,21.402L16.616,18.636L12.081,21.237C12.002,21.282 11.901,21.255 11.856,21.176C11.81,21.097 11.838,20.996 11.917,20.951L16.58,18.276Z" style="fill:white;"/>
    <path d="M11.999,0.335C12.09,0.335 12.164,0.409 12.164,0.5L12.164,4.068C12.164,4.159 12.09,4.233 11.999,4.233C11.908,4.233 11.834,4.159 11.834,4.068L11.834,0.5C11.834,0.409 11.908,0.335 11.999,0.335Z" style="fill:white;"/>
    <path d="M23.093,8.396C23.121,8.483 23.073,8.576 22.987,8.604L19.594,9.706C19.507,9.735 19.414,9.687 19.386,9.601C19.358,9.514 19.405,9.421 19.492,9.393L22.885,8.29C22.971,8.262 23.064,8.309 23.093,8.396Z" style="fill:white;"/>
    <path d="M7.435,18.286C7.509,18.34 7.525,18.443 7.471,18.516L5.374,21.402C5.32,21.476 5.217,21.492 5.143,21.439C5.069,21.385 5.053,21.282 5.107,21.208L7.204,18.322C7.258,18.249 7.361,18.232 7.435,18.286Z" style="fill:white;"/>
    <path d="M0.908,8.396C0.936,8.309 1.029,8.262 1.115,8.29L4.508,9.393C4.595,9.421 4.642,9.514 4.614,9.601C4.586,9.687 4.493,9.735 4.406,9.706L1.013,8.604C0.927,8.576 0.879,8.483 0.908,8.396Z" style="fill:white;"/>
    <defs>
        <linearGradient id="_Linear1" x1="0" y1="0" x2="1" y2="0" gradientUnits="userSpaceOnUse" gradientTransform="matrix(-14.8673,-14.7971,14.7971,-14.8673,20.4244,16.9042)"><stop offset="0" style="stop-color:rgb(239,65,54);stop-opacity:1"/><stop offset="0.01" style="stop-color:rgb(239,65,54);stop-opacity:1"/><stop offset="0.32" style="stop-color:rgb(223,81,83);stop-opacity:1"/><stop offset="1" style="stop-color:rgb(172,11,27);stop-opacity:1"/></linearGradient>
    </defs>
</svg>
