<svg width="32" height="32" viewBox="0 0 32 32" fill="none" xmlns="http://www.w3.org/2000/svg">
<path d="M24.3569 19.4167L16.3186 15.3854L15.9984 15.5858L15.7548 15.3476L7.64002 19.4167L7.31986 19.939L7.51508 20.3981L15.2785 24.2905H15.9984H16.7184L24.4802 20.3981L24.677 19.939L24.3569 19.4167Z" fill="#95001A"/>
<path d="M7.31987 19.939L15.9984 24.2905V24.6518L10.3746 27.473H9.6531L7.31987 26.2864L6.99971 25.8036V20.4596L7.31987 19.939Z" fill="#40004D"/>
<path d="M24.677 19.939L16.0016 24.2905V24.6518L21.6254 27.473H22.3469L24.6801 26.2864L25.0003 25.8036V20.4596L24.677 19.939Z" fill="#520033"/>
<path d="M24.6801 11.2847L24.36 11.4867V19.4167L24.677 19.939L25.0003 20.4596L30.2462 23.0898H30.9661L32 22.5644L24.6801 11.2847Z" fill="#FFA80A"/>
<path d="M7.31986 11.2847L7.64002 11.4867V19.4167L7.31986 19.939L6.99971 20.4596L1.75383 23.0898H1.03387L0 22.5644L7.31986 11.2847Z" fill="#FF3417"/>
<path d="M7.31987 26.2864L1.03387 23.0898L7.31987 19.939V26.2864Z" fill="#6D0044"/>
<path d="M15.9984 30.698L22.3422 27.4729L15.9984 24.2905L9.6531 27.4729L15.9984 30.698Z" fill="#6D0074"/>
<path d="M24.6801 26.2864L30.9661 23.0898L24.677 19.939L24.6801 26.2864Z" fill="#6D0044"/>
<path d="M16 1.30197H13.7995L7.31986 11.2847L7.64002 11.4867L15.9984 7.29445V6.93313L16.3186 6.70751L16.3202 1.5844L16 1.30197Z" fill="#FFA80A"/>
<path d="M15.9984 6.93314L7.31986 11.2847V19.9389L15.9984 15.5858L16.3186 15.3854V7.45381L15.9984 6.93314Z" fill="#D7001F"/>
<path d="M16 1.30197H18.2005L24.6801 11.2847L24.36 11.4867L16.3186 7.45381L15.9984 6.93313L16 1.30197Z" fill="#FFE50A"/>
<path d="M24.677 19.9389L15.9984 15.5858V6.93314L24.677 11.2847V19.9389Z" fill="#EF8109"/>
</svg>
