<svg width="2818" height="2750" viewBox="0 0 2818 2750" fill="none" xmlns="http://www.w3.org/2000/svg">
<ellipse cx="1409" cy="1375" rx="1409" ry="1375" fill="black"/>
<g filter="url(#filter0_di_3924_21215)">
<path d="M1009.26 2313.7C999.732 2305.28 993.765 2293.55 992.575 2280.89L897.836 1273.01H1235V2402.16C1235 2445.22 1184.19 2468.14 1151.91 2439.64L1009.26 2313.7Z" fill="url(#paint0_linear_3924_21215)"/>
<path d="M1235 1253.01V1112.31L879.847 1081.63L895.957 1253.01H1235Z" fill="url(#paint1_linear_3924_21215)"/>
<path d="M1235 1092.24L877.945 1061.39L822.138 467.679C819.381 438.346 842.456 413 871.918 413H1185C1212.61 413 1235 435.386 1235 463V1092.24Z" fill="url(#paint2_linear_3924_21215)"/>
<path d="M1893.99 1253H2151C2164.81 1253 2176 1241.81 2176 1228V1080.56C2176 1065.8 2163.27 1054.25 2148.57 1055.68L1909.91 1078.99L1893.99 1253Z" fill="url(#paint3_linear_3924_21215)"/>
<path d="M1889.64 1080.97L1534 1115.69V1253H1873.9L1889.64 1080.97Z" fill="url(#paint4_linear_3924_21215)"/>
<path d="M1514 1117.65V1253H567C553.193 1253 542 1241.81 542 1228V1080.23C542 1065.59 554.536 1054.08 569.13 1055.32L1410.77 1127.31C1412.29 1127.44 1413.81 1127.43 1415.33 1127.28L1514 1117.65Z" fill="url(#paint5_linear_3924_21215)"/>
<path d="M1619.6 2436.24C1588.2 2468.07 1534 2445.83 1534 2401.12V850.007H1911.25L1780.02 2257.53C1778.94 2269.02 1773.93 2279.78 1765.83 2288L1619.6 2436.24Z" fill="url(#paint6_linear_3924_21215)"/>
<path d="M1913.12 830.007H1534V614.432L1935.55 589.382L1913.12 830.007Z" fill="url(#paint7_linear_3924_21215)"/>
<path d="M1534 463.007V594.393L1937.43 569.226L1946.91 467.649C1949.64 438.329 1926.57 413.007 1897.12 413.007H1584C1556.39 413.007 1534 435.393 1534 463.007Z" fill="url(#paint8_linear_3924_21215)"/>
<path d="M1235 830.008V615.06L833.942 595.323L855.885 830.008H1235Z" fill="url(#paint9_linear_3924_21215)"/>
<path d="M1255 830.008H2266C2277.05 830.008 2286 821.054 2286 810.008V587.819C2286 576.274 2276.25 567.127 2264.73 567.859L1396.5 623.008L1255 616.044V830.008Z" fill="url(#paint10_linear_3924_21215)"/>
<path d="M812.114 594.248L836.07 830.008H431C419.954 830.008 411 821.054 411 810.008V595.516C411 584.085 420.565 574.979 431.983 575.541L812.114 594.248Z" fill="url(#paint11_linear_3924_21215)"/>
</g>
<defs>
<filter id="filter0_di_3924_21215" x="407" y="413" width="1889" height="2049.25" filterUnits="userSpaceOnUse" color-interpolation-filters="sRGB">
<feFlood flood-opacity="0" result="BackgroundImageFix"/>
<feColorMatrix in="SourceAlpha" type="matrix" values="0 0 0 0 0 0 0 0 0 0 0 0 0 0 0 0 0 0 127 0" result="hardAlpha"/>
<feOffset dy="4"/>
<feGaussianBlur stdDeviation="2"/>
<feComposite in2="hardAlpha" operator="out"/>
<feColorMatrix type="matrix" values="0 0 0 0 0 0 0 0 0 0 0 0 0 0 0 0 0 0 0.25 0"/>
<feBlend mode="normal" in2="BackgroundImageFix" result="effect1_dropShadow_3924_21215"/>
<feBlend mode="normal" in="SourceGraphic" in2="effect1_dropShadow_3924_21215" result="shape"/>
<feColorMatrix in="SourceAlpha" type="matrix" values="0 0 0 0 0 0 0 0 0 0 0 0 0 0 0 0 0 0 127 0" result="hardAlpha"/>
<feMorphology radius="5" operator="erode" in="SourceAlpha" result="effect2_innerShadow_3924_21215"/>
<feOffset dx="20" dy="20"/>
<feGaussianBlur stdDeviation="2.5"/>
<feComposite in2="hardAlpha" operator="arithmetic" k2="-1" k3="1"/>
<feColorMatrix type="matrix" values="0 0 0 0 1 0 0 0 0 1 0 0 0 0 1 0 0 0 1 0"/>
<feBlend mode="normal" in2="shape" result="effect2_innerShadow_3924_21215"/>
</filter>
<linearGradient id="paint0_linear_3924_21215" x1="411" y1="1432.63" x2="2286" y2="1432.63" gradientUnits="userSpaceOnUse">
<stop stop-color="#5433FF"/>
<stop offset="0.5" stop-color="#20BDFF"/>
<stop offset="1" stop-color="#A5FECB"/>
</linearGradient>
<linearGradient id="paint1_linear_3924_21215" x1="411" y1="1432.63" x2="2286" y2="1432.63" gradientUnits="userSpaceOnUse">
<stop stop-color="#5433FF"/>
<stop offset="0.5" stop-color="#20BDFF"/>
<stop offset="1" stop-color="#A5FECB"/>
</linearGradient>
<linearGradient id="paint2_linear_3924_21215" x1="411" y1="1432.63" x2="2286" y2="1432.63" gradientUnits="userSpaceOnUse">
<stop stop-color="#5433FF"/>
<stop offset="0.5" stop-color="#20BDFF"/>
<stop offset="1" stop-color="#A5FECB"/>
</linearGradient>
<linearGradient id="paint3_linear_3924_21215" x1="411" y1="1432.63" x2="2286" y2="1432.63" gradientUnits="userSpaceOnUse">
<stop stop-color="#5433FF"/>
<stop offset="0.5" stop-color="#20BDFF"/>
<stop offset="1" stop-color="#A5FECB"/>
</linearGradient>
<linearGradient id="paint4_linear_3924_21215" x1="411" y1="1432.63" x2="2286" y2="1432.63" gradientUnits="userSpaceOnUse">
<stop stop-color="#5433FF"/>
<stop offset="0.5" stop-color="#20BDFF"/>
<stop offset="1" stop-color="#A5FECB"/>
</linearGradient>
<linearGradient id="paint5_linear_3924_21215" x1="411" y1="1432.63" x2="2286" y2="1432.63" gradientUnits="userSpaceOnUse">
<stop stop-color="#5433FF"/>
<stop offset="0.5" stop-color="#20BDFF"/>
<stop offset="1" stop-color="#A5FECB"/>
</linearGradient>
<linearGradient id="paint6_linear_3924_21215" x1="411" y1="1432.63" x2="2286" y2="1432.63" gradientUnits="userSpaceOnUse">
<stop stop-color="#5433FF"/>
<stop offset="0.5" stop-color="#20BDFF"/>
<stop offset="1" stop-color="#A5FECB"/>
</linearGradient>
<linearGradient id="paint7_linear_3924_21215" x1="411" y1="1432.63" x2="2286" y2="1432.63" gradientUnits="userSpaceOnUse">
<stop stop-color="#5433FF"/>
<stop offset="0.5" stop-color="#20BDFF"/>
<stop offset="1" stop-color="#A5FECB"/>
</linearGradient>
<linearGradient id="paint8_linear_3924_21215" x1="411" y1="1432.63" x2="2286" y2="1432.63" gradientUnits="userSpaceOnUse">
<stop stop-color="#5433FF"/>
<stop offset="0.5" stop-color="#20BDFF"/>
<stop offset="1" stop-color="#A5FECB"/>
</linearGradient>
<linearGradient id="paint9_linear_3924_21215" x1="411" y1="1432.63" x2="2286" y2="1432.63" gradientUnits="userSpaceOnUse">
<stop stop-color="#5433FF"/>
<stop offset="0.5" stop-color="#20BDFF"/>
<stop offset="1" stop-color="#A5FECB"/>
</linearGradient>
<linearGradient id="paint10_linear_3924_21215" x1="411" y1="1432.63" x2="2286" y2="1432.63" gradientUnits="userSpaceOnUse">
<stop stop-color="#5433FF"/>
<stop offset="0.5" stop-color="#20BDFF"/>
<stop offset="1" stop-color="#A5FECB"/>
</linearGradient>
<linearGradient id="paint11_linear_3924_21215" x1="411" y1="1432.63" x2="2286" y2="1432.63" gradientUnits="userSpaceOnUse">
<stop stop-color="#5433FF"/>
<stop offset="0.5" stop-color="#20BDFF"/>
<stop offset="1" stop-color="#A5FECB"/>
</linearGradient>
</defs>
</svg>
