<svg xmlns="http://www.w3.org/2000/svg" xmlns:xlink="http://www.w3.org/1999/xlink" width="500" zoomAndPan="magnify" viewBox="0 0 375 374.999991" height="500" preserveAspectRatio="xMidYMid meet" version="1.0"><defs><g/><clipPath id="2390c2fe0e"><path d="M 27.789062 27.789062 L 347.210938 27.789062 L 347.210938 347.210938 L 27.789062 347.210938 Z M 27.789062 27.789062 " clip-rule="nonzero"/></clipPath><clipPath id="d6089ee65d"><path d="M 187.5 27.789062 C 99.292969 27.789062 27.789062 99.292969 27.789062 187.5 C 27.789062 275.707031 99.292969 347.210938 187.5 347.210938 C 275.707031 347.210938 347.210938 275.707031 347.210938 187.5 C 347.210938 99.292969 275.707031 27.789062 187.5 27.789062 Z M 187.5 27.789062 " clip-rule="nonzero"/></clipPath></defs><g clip-path="url(#2390c2fe0e)"><g clip-path="url(#d6089ee65d)"><path fill="#000000" d="M 27.789062 27.789062 L 347.210938 27.789062 L 347.210938 347.210938 L 27.789062 347.210938 Z M 27.789062 27.789062 " fill-opacity="1" fill-rule="nonzero"/></g></g><path fill="#8a4bdb" d="M 233.816406 188.132812 L 268.375 153.574219 C 280.011719 141.9375 271.992188 132.148438 268.605469 128.765625 L 233.816406 93.976562 Z M 233.816406 188.132812 " fill-opacity="1" fill-rule="nonzero"/><path fill="#5954cd" d="M 139.128906 93.960938 L 173.6875 59.402344 C 185.324219 47.78125 195.125 55.800781 198.511719 59.171875 L 233.300781 93.960938 Z M 139.128906 93.960938 " fill-opacity="1" fill-rule="nonzero"/><path fill="#69e9f5" d="M 139.441406 188.1875 L 174 222.746094 C 185.636719 234.371094 195.4375 226.351562 198.8125 222.976562 L 233.601562 188.1875 Z M 139.441406 188.1875 " fill-opacity="1" fill-rule="nonzero"/><path fill="#31bdc6" d="M 139.359375 94.003906 L 104.871094 128.617188 C 93.175781 140.199219 101.199219 149.988281 104.570312 153.371094 L 139.359375 188.160156 Z M 139.359375 94.003906 " fill-opacity="1" fill-rule="nonzero"/><g fill="#69e9f5" fill-opacity="1"><g transform="translate(117.167351, 304.441171)"><g><path d="M 12.5625 -37.390625 L 12.5625 -26.15625 L 31.234375 -26.15625 L 31.234375 -18.71875 L 12.5625 -18.71875 L 12.5625 -7.5 L 35.015625 -7.5 L 35.015625 0 L 5.0625 0 L 5.0625 -44.890625 L 35.015625 -44.890625 L 35.015625 -37.390625 Z M 12.5625 -37.390625 "/></g></g></g><g fill="#31bdc6" fill-opacity="1"><g transform="translate(160.551215, 304.728555)"><g><path d="M 20.015625 -44.890625 C 20.015625 -44.890625 20.375 -44.867188 21.09375 -44.828125 C 21.820312 -44.785156 22.753906 -44.644531 23.890625 -44.40625 C 25.023438 -44.175781 26.222656 -43.796875 27.484375 -43.265625 C 28.742188 -42.734375 29.941406 -41.984375 31.078125 -41.015625 C 32.210938 -40.054688 33.140625 -38.828125 33.859375 -37.328125 C 34.585938 -35.828125 34.953125 -33.988281 34.953125 -31.8125 C 34.953125 -29.632812 34.585938 -27.796875 33.859375 -26.296875 C 33.140625 -24.796875 32.210938 -23.566406 31.078125 -22.609375 C 29.941406 -21.648438 28.742188 -20.898438 27.484375 -20.359375 C 26.222656 -19.828125 25.023438 -19.441406 23.890625 -19.203125 C 22.753906 -18.972656 21.820312 -18.835938 21.09375 -18.796875 C 20.375 -18.753906 20.015625 -18.734375 20.015625 -18.734375 L 12.578125 -18.734375 L 12.578125 0 L 5.0625 0 L 5.0625 -26.171875 L 12.1875 -26.171875 L 5.0625 -37.390625 L 5.0625 -44.890625 Z M 20.96875 -26.234375 C 21.65625 -26.316406 22.507812 -26.519531 23.53125 -26.84375 C 24.5625 -27.164062 25.484375 -27.710938 26.296875 -28.484375 C 27.109375 -29.253906 27.515625 -30.363281 27.515625 -31.8125 C 27.515625 -33.226562 27.140625 -34.304688 26.390625 -35.046875 C 25.640625 -35.796875 24.757812 -36.34375 23.75 -36.6875 C 22.75 -37.03125 21.875 -37.234375 21.125 -37.296875 C 20.382812 -37.359375 20.015625 -37.390625 20.015625 -37.390625 L 13.984375 -37.390625 Z M 20.96875 -26.234375 "/></g></g></g><g fill="#5954cd" fill-opacity="1"><g transform="translate(201.01297, 304.728555)"><g><path d="M 14.875 -38.03125 L 14.875 -6.859375 L 20.140625 -6.859375 L 20.140625 0 L 2.109375 0 L 2.109375 -6.859375 L 7.375 -6.859375 L 7.375 -38.03125 L 2.375 -38.03125 L 2.375 -44.890625 L 19.890625 -44.890625 L 19.890625 -38.03125 Z M 14.875 -38.03125 "/></g></g></g><g fill="#844bcd" fill-opacity="1"><g transform="translate(229.606953, 304.728555)"><g><path d="M 17.125 -22.453125 L 1.09375 -44.890625 L 10.265625 -44.890625 L 21.75 -28.859375 L 33.15625 -44.890625 L 42.328125 -44.890625 L 26.296875 -22.453125 L 42.328125 0 L 33.15625 0 L 21.75 -16.03125 L 10.265625 0 L 1.09375 0 Z M 17.125 -22.453125 "/></g></g></g></svg>