<?xml version="1.0" encoding="utf-8"?>
<!-- Generator: Adobe Illustrator 16.0.0, SVG Export Plug-In . SVG Version: 6.00 Build 0)  -->
<!DOCTYPE svg PUBLIC "-//W3C//DTD SVG 1.1//EN" "http://www.w3.org/Graphics/SVG/1.1/DTD/svg11.dtd" [
	<!ENTITY ns_extend "http://ns.adobe.com/Extensibility/1.0/">
	<!ENTITY ns_ai "http://ns.adobe.com/AdobeIllustrator/10.0/">
	<!ENTITY ns_graphs "http://ns.adobe.com/Graphs/1.0/">
	<!ENTITY ns_vars "http://ns.adobe.com/Variables/1.0/">
	<!ENTITY ns_imrep "http://ns.adobe.com/ImageReplacement/1.0/">
	<!ENTITY ns_sfw "http://ns.adobe.com/SaveForWeb/1.0/">
	<!ENTITY ns_custom "http://ns.adobe.com/GenericCustomNamespace/1.0/">
	<!ENTITY ns_adobe_xpath "http://ns.adobe.com/XPath/1.0/">
]>
<svg version="1.1" id="Layer_1" xmlns:x="&ns_extend;" xmlns:i="&ns_ai;" xmlns:graph="&ns_graphs;"
	 xmlns="http://www.w3.org/2000/svg" xmlns:xlink="http://www.w3.org/1999/xlink" x="0px" y="0px" width="466.845px"
	 height="466.844px" viewBox="64.217 173.523 466.845 466.844" enable-background="new 64.217 173.523 466.845 466.844"
	 xml:space="preserve">
<metadata>
	<sfw  xmlns="&ns_sfw;">
		<slices></slices>
		<sliceSourceBounds  width="466.845" height="466.844" y="201.078" x="64.077" bottomLeftOrigin="true"></sliceSourceBounds>
	</sfw>
</metadata>
<circle fill="#FFFFFF" cx="297.639" cy="406.945" r="233.422"/>
<g>
	<path fill="#69CEE4" d="M286.204,429.611v32.084H254.12c-7.534,0-13.643-6.107-13.644-13.644c0-0.037,0.001-0.075,0.001-0.116
		v-22.054c-0.727-5.714-5.607-9.981-11.369-9.938c-0.295,0.033-0.593,0.033-0.888,0h-33.652v-45.816h32.061
		c7.556,0.062,13.645,6.203,13.644,13.756v19.76c0.034,0.242,0.034,0.486,0,0.729c-0.012,6.014,4.662,10.997,10.665,11.369h21.328
		c7.534-0.063,13.692,5.994,13.756,13.528c0,0.037,0,0.074,0,0.114L286.204,429.611z"/>
	<path fill="#F7EE09" d="M446.53,255.552v45.771h-22.966l-22.853,45.818h-31.992c-7.535,0-13.644-6.109-13.644-13.644v-21.396
		c-0.406-5.976-5.38-10.61-11.37-10.595c-0.24,0.034-0.484,0.034-0.728,0h-33.835v-45.954h31.994
		c7.534,0,13.643,6.108,13.643,13.643v20.76c0.073,6.248,5.118,11.295,11.368,11.369h11.372l22.966-45.816L446.53,255.552z"/>
	<path fill="#3A46A3" d="M286.204,567.155v48.729C155.527,572.681,148.819,461.036,148.819,438.82l0,0v-22.942h45.816v22.942l0,0
		c0,22.216,6.959,93.408,91.726,128.335H286.204z"/>
	<polygon fill="#55BF35" points="217.508,301.327 240.38,301.327 240.38,347.248 194.518,347.248 171.692,301.327 148.749,301.327 
		148.749,255.547 194.565,255.547 	"/>
	<path fill="#C4DB13" d="M286.207,269.085v32.242H240.38v-45.78h32.068C279.985,255.488,286.138,261.548,286.207,269.085z"/>
	<rect x="309.233" y="415.95" fill="#EE2622" width="45.839" height="45.814"/>
	<path fill="#F28713" d="M388.618,415.95h-33.545v-46.121h31.866c7.526,0,13.633,6.117,13.633,13.643v32.479h-11.074
		C389.205,415.983,388.912,415.983,388.618,415.95z"/>
	<path fill="#FF2E98" d="M446.526,415.95v26.345c0,62.711-36.199,140.781-137.351,173.834v-48.655
		c84.76-34.356,91.7-103.69,91.7-125.261V415.95H446.526z"/>
	<path fill="#69CEE4" d="M309.052,358.598v-11.52l0.006-0.006h-0.006v-0.003l-0.003,0.003h-11.51c-7.56,0-14.409-3.041-19.387-7.96
		l-0.011,0.012c4.979,4.99,8.065,11.86,8.065,19.479v11.522l-0.004,0.004h0.004v0.003l0.003-0.003h11.51
		c7.56,0,14.408,3.041,19.388,7.96l0.012-0.011C312.138,373.089,309.052,366.218,309.052,358.598z"/>
</g>
</svg>
