<?xml version="1.0" encoding="utf-8"?>
<!-- Generator: Adobe Illustrator 16.0.0, SVG Export Plug-In . SVG Version: 6.00 Build 0)  -->
<!DOCTYPE svg PUBLIC "-//W3C//DTD SVG 1.1//EN" "http://www.w3.org/Graphics/SVG/1.1/DTD/svg11.dtd" [
	<!ENTITY ns_extend "http://ns.adobe.com/Extensibility/1.0/">
	<!ENTITY ns_ai "http://ns.adobe.com/AdobeIllustrator/10.0/">
	<!ENTITY ns_graphs "http://ns.adobe.com/Graphs/1.0/">
	<!ENTITY ns_vars "http://ns.adobe.com/Variables/1.0/">
	<!ENTITY ns_imrep "http://ns.adobe.com/ImageReplacement/1.0/">
	<!ENTITY ns_sfw "http://ns.adobe.com/SaveForWeb/1.0/">
	<!ENTITY ns_custom "http://ns.adobe.com/GenericCustomNamespace/1.0/">
	<!ENTITY ns_adobe_xpath "http://ns.adobe.com/XPath/1.0/">
]>
<svg version="1.1" id="Layer_2" xmlns:x="&ns_extend;" xmlns:i="&ns_ai;" xmlns:graph="&ns_graphs;"
	 xmlns="http://www.w3.org/2000/svg" xmlns:xlink="http://www.w3.org/1999/xlink" x="0px" y="0px" width="549.753px"
	 height="549.75px" viewBox="0 0 549.753 549.75" enable-background="new 0 0 549.753 549.75" xml:space="preserve">
<metadata>
	<sfw  xmlns="&ns_sfw;">
		<slices></slices>
		<sliceSourceBounds  width="549.753" height="549.752" y="589.624" x="156.624" bottomLeftOrigin="true"></sliceSourceBounds>
	</sfw>
</metadata>
<g>
	<g>
		<defs>
			<circle id="SVGID_1_" cx="274.876" cy="274.875" r="274.876"/>
		</defs>
		<clipPath id="SVGID_2_">
			<use xlink:href="#SVGID_1_"  overflow="visible"/>
		</clipPath>
		<g clip-path="url(#SVGID_2_)">
			<rect fill="#02FCFA" width="549.753" height="549.751"/>
			<g>
				<polygon fill="#D03B32" points="285.678,29.42 285.678,55.437 259.644,55.437 259.644,81.452 233.61,81.452 233.61,107.469 
					259.644,107.469 259.644,133.484 285.678,133.484 311.71,133.484 311.71,107.469 311.71,81.452 311.71,55.437 311.71,29.42 				
					"/>
				<rect x="207.577" y="159.501" fill="#835633" width="26.033" height="26.015"/>
				<g>
					<polygon fill="#831F66" points="207.577,237.548 207.577,263.564 233.61,263.564 259.644,263.564 259.644,237.548 
						233.61,237.548 					"/>
					<polygon fill="#831F66" points="363.778,237.548 337.745,237.548 337.745,263.564 363.778,263.564 389.812,263.564 
						389.812,237.548 					"/>
				</g>
				<rect x="233.61" y="263.564" fill="#8E256A" width="26.033" height="26.017"/>
				<rect x="363.778" y="263.564" fill="#8E256A" width="26.034" height="26.017"/>
				<rect x="129.475" y="289.581" fill="#F9DA52" width="26.033" height="26.015"/>
				<polygon fill="#BC27C4" points="311.71,393.645 285.678,393.645 259.644,393.645 259.644,419.659 285.678,419.659 
					311.71,419.659 337.745,419.659 337.745,393.645 				"/>
				<path fill="#6A4124" d="M363.778,159.501v-26.016h-26.031h-26.034h-26.033h-26.033h-26.034h-26.033v26.016h26.033v26.015
					h-26.033v-26.015h-26.036v26.015v26.016v26.015h-26.034v26.016v26.018h26.034v26.014v26.017v26.015v26.016v26.016h26.033v26.016
					v26.015v26.017v26.015v26.017h26.033h26.033h26.033v-26.012v-26.014h-26.033v-26.018h-26.033v-26.014h26.033v26.014h26.033
					h26.033h26.034v-26.014h26.033v-26.017h26.034v-26.015V367.63v-26.018v-26.017v-26.014h-26.034h-26.033v-26.017v-26.016h26.033
					h26.034v-26.016v-26.016v-26.015h-26.032V159.501z M285.678,341.612h26.032v26.015h-26.032V341.612z M207.577,263.564v-26.016
					h26.033h26.033v26.016v26.017H233.61h-26.033V263.564z M311.71,419.659h-26.032h-26.034v-26.015h26.034h26.032h26.034v26.015
					H311.71z"/>
				<g>
					<polygon points="259.644,133.496 259.644,107.479 233.61,107.479 207.577,107.479 207.577,133.496 233.61,133.496 					"/>
					<polygon points="337.745,107.479 311.71,107.479 311.71,133.496 337.745,133.496 363.778,133.496 363.778,107.479 					"/>
					<rect x="181.543" y="133.496" width="26.033" height="26.016"/>
					<rect x="363.778" y="133.496" width="26.034" height="26.016"/>
					<polygon points="181.543,211.544 181.543,185.528 181.543,159.512 155.509,159.512 155.509,185.528 155.509,211.544 
						155.509,237.559 181.543,237.559 					"/>
					<polygon points="155.509,263.576 155.509,237.559 129.475,237.559 129.475,263.576 129.475,289.593 155.509,289.593 					"/>
					<rect x="207.577" y="263.576" width="26.033" height="26.017"/>
					<rect x="337.745" y="263.576" width="26.033" height="26.017"/>
					<rect x="103.442" y="289.593" width="26.033" height="26.015"/>
					<rect x="285.678" y="341.624" width="26.032" height="26.015"/>
					<polygon points="181.543,367.639 181.543,341.624 181.543,315.607 181.543,289.593 155.509,289.593 155.509,315.607 
						129.475,315.607 129.475,341.624 155.509,341.624 155.509,367.639 155.509,393.656 155.509,419.671 181.543,419.671 
						181.543,393.656 					"/>
					<polygon points="389.812,159.512 389.812,185.528 389.812,211.544 389.812,237.559 389.812,263.576 389.812,289.593 
						389.812,315.607 389.812,341.624 389.812,367.639 389.812,393.656 389.812,419.671 415.845,419.671 415.845,393.656 
						415.845,367.639 415.845,341.624 415.845,315.607 415.845,289.593 415.845,263.576 415.845,237.559 415.845,211.544 
						415.845,185.528 415.845,159.512 					"/>
					<rect x="363.778" y="419.671" width="26.034" height="26.017"/>
					<rect x="233.61" y="445.688" width="26.033" height="26.014"/>
					<rect x="337.745" y="445.688" width="26.033" height="26.014"/>
					<polygon points="181.543,445.688 181.543,471.702 181.543,497.719 181.543,523.734 181.543,549.751 207.577,549.751 
						207.577,523.734 207.577,497.719 207.577,471.702 207.577,445.688 207.577,419.671 181.543,419.671 					"/>
					<polygon points="285.678,471.702 259.644,471.702 259.644,497.719 285.678,497.719 285.678,523.734 285.678,549.751 
						311.71,549.751 311.71,523.734 311.71,497.719 337.745,497.719 337.745,471.702 311.71,471.702 					"/>
				</g>
			</g>
		</g>
	</g>
</g>
</svg>
