<svg width="175" height="175" viewBox="0 0 175 175" fill="none" xmlns="http://www.w3.org/2000/svg">
<circle cx="87.5" cy="87.5" r="87.5" fill="black"/>
<path d="M71.7259 46.8607C47.8556 56.039 45.669 79.5443 38.8244 90.5219C31.8988 101.63 16.0324 107.759 18.2021 113.419C20.3717 119.08 36.257 113 48.8245 116.612C61.2432 120.181 78.5705 136.185 102.441 127.006C114.601 122.331 123.406 112.708 127.455 101.309C127.891 100.085 127.076 98.7769 125.785 98.656C124.982 98.5805 124.211 99.0016 123.849 99.7228C120.187 107.03 113.904 113.047 105.681 116.208C92.107 121.427 77.2547 117.33 68.133 107.053C66.0614 104.719 64.2894 102.062 62.8907 99.1262C62.5062 98.3181 62.1405 97.4967 61.8162 96.6471C61.4901 95.7974 61.213 94.9421 60.9585 94.083C68.133 90.7334 76.4121 87.1856 85.7977 83.5774C95.0005 80.039 103.376 77.1691 110.833 74.8731C115.877 73.321 120.501 72.0296 124.677 70.9741C124.978 70.8986 125.276 70.823 125.572 70.7494C126.204 70.5927 126.852 70.9307 127.086 71.5386L127.09 71.55C127.227 71.9106 127.346 72.2731 127.474 72.6357C128.3 74.9751 128.918 77.339 129.327 79.7086C129.506 80.7452 130.637 81.3097 131.565 80.8113C134.992 78.9685 138.126 77.171 140.928 75.4414C151.365 69.0029 157.152 63.5424 155.965 60.4478C154.779 57.3512 146.832 57.1737 134.773 59.3828C130.941 60.0852 126.692 61.0293 122.113 62.198C121.321 62.4001 120.52 62.6097 119.71 62.8249C115.857 63.8483 111.792 65.0208 107.561 66.3331C99.6905 68.7744 91.2474 71.6991 82.5309 75.0506C74.3763 78.1868 66.6476 81.4381 59.5598 84.6782C59.4731 70.9269 67.773 57.9271 81.3471 52.7083C89.5678 49.5475 98.2578 49.8062 105.862 52.7838C106.612 53.0784 107.466 52.8744 108.015 52.2797C108.893 51.3262 108.624 49.8081 107.483 49.1888C96.8591 43.4357 83.8863 42.1857 71.7259 46.8607Z" fill="white"/>
</svg>
