<svg width="501" height="501" viewBox="0 0 501 501" fill="none" xmlns="http://www.w3.org/2000/svg">
<path d="M250.702 0.399994C388.836 0.399994 500.8 112.342 500.8 250.449C500.8 388.557 388.836 500.4 250.8 500.4C112.665 500.4 0.800114 388.458 0.800114 250.449C0.701727 112.342 112.665 0.399994 250.702 0.399994Z" fill="#8247E5"/>
<mask id="mask0_213_52" style="mask-type:luminance" maskUnits="userSpaceOnUse" x="85" y="108" width="328" height="288">
<path d="M412.842 108.527H85.1172V395.717H412.842V108.527Z" fill="white"/>
</mask>
<g mask="url(#mask0_213_52)">
<path d="M332.657 195.992C326.656 192.549 318.982 192.549 312.193 195.992L264.377 224.328L231.91 242.332L184.979 270.569C178.978 274.013 171.304 274.013 164.515 270.569L127.817 248.235C121.815 244.792 117.585 237.905 117.585 230.231V187.334C117.585 180.447 121.028 173.659 127.817 169.33L164.515 147.881C170.517 144.438 178.191 144.438 184.979 147.881L221.678 170.215C227.679 173.659 231.91 180.546 231.91 188.22V216.555L264.377 197.665V168.542C264.377 161.655 260.934 154.867 254.145 150.538L185.865 110.199C179.863 106.756 172.189 106.756 165.401 110.199L95.4478 151.423C88.6591 154.867 85.2156 161.754 85.2156 168.542V249.121C85.2156 256.008 88.6591 262.797 95.4478 267.126L164.613 307.464C170.615 310.908 178.289 310.908 185.078 307.464L232.008 280.014L264.476 261.124L311.406 233.674C317.408 230.231 325.082 230.231 331.87 233.674L368.569 255.123C374.57 258.566 378.801 265.453 378.801 273.127V316.024C378.801 322.911 375.357 329.699 368.569 334.028L332.756 355.477C326.754 358.92 319.08 358.92 312.291 355.477L275.495 334.028C269.493 330.585 265.263 323.698 265.263 316.024V288.574L232.795 307.464V335.799C232.795 342.686 236.239 349.475 243.027 353.804L312.193 394.143C318.195 397.586 325.869 397.586 332.657 394.143L401.823 353.804C407.825 350.361 412.055 343.474 412.055 335.799V254.335C412.055 247.448 408.612 240.66 401.823 236.331L332.657 195.992Z" fill="white"/>
</g>
</svg>
