<?xml version='1.0' encoding='utf-8'?>
<svg xmlns="http://www.w3.org/2000/svg" version="1.1" id="Layer_1" x="0px" y="0px" viewBox="0 0 38.4 38.4" style="enable-background:new 0 0 38.4 33.5;" xml:space="preserve" width="38.4" height="38.4">
<rect width="38.4" height="38.4" fill="none" /><style type="text/css" transform="translate(0.0,2.4499999999999993)">
	.st0{fill:#8247E5;}
</style>
<g transform="translate(0.0,2.4499999999999993)">
	<path class="st0" d="M29,10.2c-0.7-0.4-1.6-0.4-2.4,0L21,13.5l-3.8,2.1l-5.5,3.3c-0.7,0.4-1.6,0.4-2.4,0L5,16.3   c-0.7-0.4-1.2-1.2-1.2-2.1v-5c0-0.8,0.4-1.6,1.2-2.1l4.3-2.5c0.7-0.4,1.6-0.4,2.4,0L16,7.2c0.7,0.4,1.2,1.2,1.2,2.1v3.3l3.8-2.2V7   c0-0.8-0.4-1.6-1.2-2.1l-8-4.7c-0.7-0.4-1.6-0.4-2.4,0L1.2,5C0.4,5.4,0,6.2,0,7v9.4c0,0.8,0.4,1.6,1.2,2.1l8.1,4.7   c0.7,0.4,1.6,0.4,2.4,0l5.5-3.2l3.8-2.2l5.5-3.2c0.7-0.4,1.6-0.4,2.4,0l4.3,2.5c0.7,0.4,1.2,1.2,1.2,2.1v5c0,0.8-0.4,1.6-1.2,2.1   L29,28.8c-0.7,0.4-1.6,0.4-2.4,0l-4.3-2.5c-0.7-0.4-1.2-1.2-1.2-2.1V21l-3.8,2.2v3.3c0,0.8,0.4,1.6,1.2,2.1l8.1,4.7   c0.7,0.4,1.6,0.4,2.4,0l8.1-4.7c0.7-0.4,1.2-1.2,1.2-2.1V17c0-0.8-0.4-1.6-1.2-2.1L29,10.2z" />
</g>
</svg>