<svg xmlns="http://www.w3.org/2000/svg" width="1169.333" height="900" viewBox="0 0 877 675" xmlns:v="https://vecta.io/nano"><path d="M.82 84.89L146.81.63l437.4 252.49.01.48c-11.44 5.87-22.33 12.78-33.55 19.05l-112.08 64.68a51.56 51.56 0 0 1-2.87-1.09L19.22 95.8C13.05 92.42 7.13 88.57.78 85.52l.04-.63zm583.49-.08L730.22.63l145.86 84.19.13.55-146.05 83.96-112.52-64.87c-11.03-6.69-22.58-12.52-33.33-19.65z" fill="#2b6def"/><path d="M584.21 253.12l.1-168.31c10.75 7.13 22.3 12.96 33.33 19.65l112.52 64.87.08 475.66c-.13 9.8.29 19.62-.32 29.4l-145.63-84-.05-168.32-.02-168.47-.01-.48zM.78 85.52c6.35 3.05 12.27 6.9 18.44 10.28l416.5 240.44a51.56 51.56 0 0 0 2.87 1.09c-.64 4.87-.3 9.79-.36 14.69l-.02 154.11L292.79 422c-7.4-5.01-15.45-8.99-23.08-13.64l-117.4-67.77c-1.72-1.02-3.51-1.89-5.35-2.66a61.2 61.2 0 0 0-.37 4.08l.05 289.97c.17 14.13-.49 28.31.45 42.41l-.19.61h-.4c-.04-.16-.13-.47-.17-.63L.73 590.28.78 85.52z" fill="#2891f9"/><path d="M730.16 169.33l146.05-83.96.06 504.91-145.6 84.08-.16.64h-.39l-.2-.61c.61-9.78.19-19.6.32-29.4l-.08-475.66zM550.67 272.65c11.22-6.27 22.11-13.18 33.55-19.05l.02 168.47-109.83 63.39-36.2 20.67.02-154.11c.06-4.9-.28-9.82.36-14.69l112.08-64.68zm-403.71 65.28c1.84.77 3.63 1.64 5.35 2.66l117.4 67.77c7.63 4.65 15.68 8.63 23.08 13.64l-.09 168.41-145.61 83.98c-.94-14.1-.28-28.28-.45-42.41l-.05-289.97a61.2 61.2 0 0 1 .37-4.08z" fill="#2bbdf7"/></svg>