<?xml version="1.0" standalone="no"?>
<!DOCTYPE svg PUBLIC "-//W3C//DTD SVG 20010904//EN"
 "http://www.w3.org/TR/2001/REC-SVG-20010904/DTD/svg10.dtd">
<svg version="1.0" xmlns="http://www.w3.org/2000/svg"
 width="512.000000pt" height="549.000000pt" viewBox="0 0 512.000000 549.000000"
 preserveAspectRatio="xMidYMid meet">
<metadata>
Created by potrace 1.16, written by Peter Selinger 2001-2019
</metadata>
<g transform="translate(0.000000,549.000000) scale(0.100000,-0.100000)"
fill="#000000" stroke="none">
<path d="M3843 5432 c-97 -35 -170 -110 -198 -205 -19 -64 -18 -106 4 -182
l18 -60 -59 -61 -60 -61 -126 57 c-652 297 -1349 300 -1995 9 -404 -182 -783
-509 -1030 -889 -355 -548 -473 -1230 -321 -1870 101 -426 325 -830 634 -1141
409 -411 915 -652 1489 -709 406 -40 852 39 1223 217 l119 57 61 -61 61 -61
-18 -66 c-29 -107 -2 -209 78 -289 124 -124 313 -118 431 14 103 114 102 274
-1 389 -79 89 -172 121 -283 99 l-62 -12 -55 55 -54 54 43 29 c265 174 509
420 691 695 90 135 215 391 266 545 37 112 80 296 96 408 6 45 9 49 50 67 62
26 134 96 161 155 69 147 -11 330 -168 385 -34 13 -37 17 -43 64 -4 28 -16 94
-27 146 -128 612 -473 1137 -980 1487 l-87 60 52 51 52 52 58 -10 c112 -18
217 19 291 101 104 116 102 276 -5 393 -85 93 -200 126 -306 88z m-1239 -472
c247 -24 505 -92 738 -197 l57 -25 -72 -77 c-340 -363 -1561 -1647 -1568
-1649 -5 -2 -9 190 -9 470 l0 474 34 12 c48 18 121 102 141 163 22 64 17 178
-9 232 -25 51 -94 120 -147 149 -63 33 -185 33 -249 -1 -62 -32 -117 -86 -148
-146 -38 -74 -38 -178 1 -257 31 -62 91 -121 144 -140 l33 -12 0 -472 0 -472
-32 -13 c-87 -36 -166 -148 -175 -249 -11 -119 60 -245 162 -287 l45 -18 0
-461 0 -461 -57 -34 c-211 -125 -197 -417 25 -526 150 -73 326 -5 399 154 22
48 25 65 21 132 -7 112 -55 195 -144 247 l-44 26 2 472 c2 354 6 471 15 471 6
0 377 -382 823 -848 l811 -848 -97 -45 c-297 -137 -564 -196 -899 -198 -377
-1 -674 71 -1015 244 -587 300 -1019 864 -1155 1510 -46 216 -59 539 -31 750
78 577 372 1099 821 1456 450 357 1016 527 1579 474z m1061 -386 c463 -311
805 -818 909 -1349 39 -198 39 -189 0 -210 -52 -28 -104 -85 -133 -145 -21
-45 -26 -68 -25 -130 1 -47 7 -89 18 -113 22 -50 91 -124 137 -147 31 -16 36
-23 32 -47 -62 -387 -201 -721 -427 -1023 -89 -119 -284 -321 -396 -410 -98
-77 -203 -150 -217 -150 -8 0 -1367 1427 -1595 1675 l-57 62 14 39 c19 51 19
149 0 210 -14 46 -13 49 8 73 12 14 328 345 702 736 374 391 738 772 809 848
71 75 132 137 134 137 3 0 42 -25 87 -56z"/>
<path d="M3560 3571 c-109 -35 -170 -116 -170 -223 1 -69 27 -125 80 -170 111
-96 275 -61 343 72 38 73 35 146 -9 216 -51 83 -164 131 -244 105z"/>
<path d="M3855 2451 c-92 -24 -163 -80 -204 -163 -74 -148 -14 -318 142 -400
60 -32 184 -32 245 0 108 58 164 142 170 259 4 60 0 80 -21 126 -30 67 -87
125 -150 155 -52 24 -136 35 -182 23z"/>
</g>
</svg>
