<svg xmlns="http://www.w3.org/2000/svg" id="Layer_1" data-name="Layer 1" viewBox="0 0 427.08 427.08"><defs><style>.cls-1{fill:#fff}</style></defs><path d="M288.34,193.28c-5.46-35.48-35.54-61.69-73.07-61.69-38.33,0-69.6,25.85-77.41,61.69h-33.4V220h32c4.35,41.37,38.07,71.75,79.45,71.75,31.78,0,57.59-12.59,68.92-33.36l-28-17.93c-7.24,11.95-23,19.5-40.29,19.5-24.86,0-41.85-15.1-45.63-40H313.16L322,193.28Zm-75-32.73c21.09,0,37.13,13.53,39,32.73H172.15C177.5,173.13,192.29,160.55,213.38,160.55Z" class="cls-1"/><path d="M213.54,427.08C95.79,427.08,0,331.29,0,213.54H36.79c0,97.47,79.29,176.76,176.75,176.76Z" class="cls-1"/><path d="M427.08,213.54H390.3c0-97.46-79.29-176.76-176.76-176.76V0C331.29,0,427.08,95.79,427.08,213.54Z" class="cls-1"/></svg>