<?xml version="1.0" encoding="UTF-8"?>
<svg id="Layer_2" xmlns="http://www.w3.org/2000/svg" viewBox="0 0 150 150">
  <g id="SixSigma">
    <g>
      <circle cx="75" cy="75" r="75"/>
      <g>
        <g>
          <path d="M43.83,90.54c-4.46,0-7.89-.98-10.29-2.93-2.4-1.95-3.61-4.62-3.61-8h8.39c.03,1.63.51,2.75,1.44,3.37.93.61,2.4.92,4.41.92,2.91,0,4.37-.93,4.37-2.8,0-.87-.33-1.51-1-1.92-.67-.41-1.97-.77-3.89-1.09l-2.45-.39c-7.2-1.17-10.79-4.52-10.79-10.05,0-2.94,1.1-5.28,3.3-7.01,2.2-1.73,5.35-2.6,9.46-2.6s7.34.87,9.61,2.6c2.27,1.73,3.5,4.29,3.67,7.67h-8.21c-.06-1.25-.48-2.17-1.27-2.75-.79-.58-2.01-.87-3.67-.87-2.65,0-3.98.86-3.98,2.58,0,.87.33,1.53,1,1.97.67.44,1.85.8,3.54,1.09l2.58.44c3.87.64,6.69,1.73,8.46,3.26,1.76,1.53,2.64,3.68,2.64,6.45,0,3.29-1.21,5.8-3.63,7.52-2.42,1.72-5.78,2.58-10.09,2.58Z" style="fill: #67fbc9;"/>
          <path d="M76.42,78.65v-6.64h14.73v17.83h-5.94l-.87-4.06c-.96,1.54-2.33,2.72-4.11,3.54s-3.76,1.22-5.94,1.22c-4.54,0-8.17-1.47-10.88-4.41-2.74-2.91-4.11-6.86-4.11-11.84s1.43-8.94,4.28-11.89c2.83-2.91,6.77-4.37,11.84-4.37,4.22,0,7.71,1,10.44,3.02,2.8,2.04,4.43,4.81,4.89,8.3h-8.92c-.9-2.56-3.02-3.85-6.34-3.85-2.24,0-3.99.77-5.24,2.32-1.25,1.54-1.88,3.7-1.88,6.47s.66,4.92,1.99,6.47c1.33,1.54,3.2,2.32,5.62,2.32,1.54,0,2.88-.4,4-1.2,1.12-.8,1.84-1.87,2.16-3.21h-5.72Z" style="fill: #67fbc9;"/>
          <path d="M119.64,58.73v7.78h-15.82v4.11h14.42v7.25h-14.42v4.2h15.82v7.78h-24.56v-31.11h24.56Z" style="fill: #67fbc9;"/>
        </g>
        <path d="M49.98,52.93l15.74-18.62h-25.21c-1.84,0-3.59.81-4.78,2.22L6.97,70.55c-3.44,4.07-.55,10.29,4.78,10.29h12.89v-23.74c0-2.3,1.87-4.17,4.17-4.17h21.17Z" style="fill: #67fbc9;"/>
        <path d="M125.53,67.99v23.33c0,2.3-1.87,4.17-4.17,4.17h-20.82l-16.09,19.03h25.21c1.84,0,3.59-.81,4.78-2.22l28.76-34.02c3.44-4.07.55-10.29-4.78-10.29h-12.89Z" style="fill: #67fbc9;"/>
      </g>
    </g>
  </g>
</svg>