<svg width="4105" height="4105" viewBox="0 0 4105 4105" fill="none" xmlns="http://www.w3.org/2000/svg">
<path fill-rule="evenodd" clip-rule="evenodd" d="M1732.82 972.871L2052.43 1292.48L2372.02 972.871V758.115C2371.23 701.385 2392.48 644.417 2435.75 601.14L2052.41 217.773L1669.06 601.14C1712.36 644.44 1733.61 701.457 1732.82 758.211V972.871ZM755.128 2807.58V3349.74H1297.26C1297.26 3309.33 1308.28 3271.5 1327.44 3239.1C1330.24 3234.41 1333.18 3229.78 1336.31 3225.31C1344.17 3214.05 1353.06 3203.56 1362.86 3193.98L1515.05 3041.79L1515.08 2589.81H1063.1L911.314 2741.6C871.742 2782.3 816.398 2807.6 755.152 2807.6L755.128 2807.58ZM537.361 3349.74V2680L63.7851 2206.42C-21.2617 2121.37 -21.2617 1983.49 63.7851 1898.44L537.385 1424.84V755.104C537.385 634.834 634.882 537.337 755.152 537.337L1424.87 537.361L1898.44 63.7851C1983.49 -21.2617 2121.37 -21.2617 2206.42 63.7851L2679.97 537.361H3349.71C3469.98 537.361 3567.48 634.858 3567.48 755.128L3567.46 1424.87L4041.03 1898.44C4126.08 1983.49 4126.08 2121.37 4041.03 2206.42L3567.46 2679.97V3349.71C3567.46 3469.98 3469.96 3567.48 3349.69 3567.48H2679.95L2206.37 4041.06C2121.32 4126.1 1983.44 4126.1 1898.4 4041.06L1424.82 3567.48L755.104 3567.5C634.834 3567.5 537.337 3470.01 537.337 3349.74H537.361ZM601.116 2435.78C644.44 2392.45 701.433 2371.23 758.187 2372.02H972.871L1292.48 2052.43L972.871 1732.82H757.685C743.968 1732.96 730.252 1731.84 716.703 1729.43C711.23 1728.47 706.045 1727.01 700.692 1725.94C664.227 1716.57 629.696 1697.62 601.116 1669.04L217.749 2052.41L601.093 2435.75L601.116 2435.78ZM1280.87 2372.02H1515.08C1635.35 2372.02 1732.84 2469.52 1732.84 2589.79V2823.97L1898.44 2658.37C1983.49 2573.32 2121.37 2573.32 2206.42 2658.37L2372.02 2823.97V2589.76C2372.02 2469.49 2469.52 2372 2589.79 2372H2823.97L2658.37 2206.42C2573.32 2121.37 2573.32 1983.49 2658.37 1898.44L2823.99 1732.82H2589.79C2469.52 1732.82 2372.02 1635.32 2372.02 1515.05V1280.85L2206.42 1446.45C2121.37 1531.49 1983.49 1531.49 1898.44 1446.45L1732.84 1280.85V1515.03C1732.84 1635.3 1635.35 1732.8 1515.08 1732.8H1280.85L1446.47 1898.42C1531.52 1983.47 1531.52 2121.35 1446.47 2206.4L1280.87 2372V2372.02ZM1732.84 3131.97V3346.63C1733.63 3403.38 1712.41 3460.4 1669.09 3503.72L2052.46 3887.07L2435.8 3503.7C2407.22 3475.12 2388.27 3440.59 2378.9 3404.12C2377.59 3398.82 2376.37 3393.49 2375.41 3388.11C2373 3374.59 2371.88 3360.9 2372.04 3347.2V3131.97L2052.46 2812.36L1732.87 3131.95L1732.84 3131.97ZM2589.81 1063.08V1515.08L3041.79 1515.05L3193.65 1363.19C3233.22 1322.52 3288.51 1297.26 3349.71 1297.26L3349.74 755.128H2807.58C2807.58 816.374 2782.27 871.694 2741.58 911.266L2589.79 1063.06L2589.81 1063.08ZM3503.72 1669.09C3460.42 1712.36 3403.46 1733.61 3346.7 1732.82H3131.99L2812.38 2052.43L3131.97 2372H3346.68C3403.43 2371.21 3460.42 2392.45 3503.72 2435.75L3887.07 2052.41L3503.7 1669.04L3503.72 1669.09ZM2807.58 3349.74H3349.74V2807.6C3288.51 2807.6 3233.19 2782.32 3193.62 2741.65L3041.79 2589.81L2589.81 2589.79V3041.79L2741.62 3193.6C2782.3 3233.17 2807.58 3288.49 2807.58 3349.71V3349.74ZM1063.08 1515.08H1515.08V1063.1L1362.91 910.932C1353.11 901.349 1344.19 890.835 1336.33 879.556C1333.13 874.992 1330.5 870.308 1327.47 865.768C1308.3 833.34 1297.29 795.537 1297.29 755.128L755.152 755.104V1297.26C816.422 1297.26 871.718 1322.54 911.29 1363.24L1063.1 1515.05L1063.08 1515.08Z" fill="#FFBC05"/>
</svg>
