<svg width="256" height="256" viewBox="0 0 256 256" fill="none" xmlns="http://www.w3.org/2000/svg">
<g clip-path="url(#clip0_26_4)">
<path d="M128 256C198.692 256 256 198.692 256 128C256 57.3076 198.692 0 128 0C57.3076 0 0 57.3076 0 128C0 198.692 57.3076 256 128 256Z" fill="url(#paint0_linear_26_4)"/>
<path fill-rule="evenodd" clip-rule="evenodd" d="M128 36C153.405 36 176.405 46.2988 193.054 62.9482C209.504 79.399 219.754 102.056 219.996 127.101V127.152L219.998 127.493L220 128L219.992 128.848V128.904C219.754 153.949 209.504 176.601 193.051 193.054C176.405 209.702 153.407 220 128 220C102.595 220 79.5946 209.702 62.9464 193.052C46.2982 176.402 36 153.4 36 127.995C36 102.59 46.2982 79.5904 62.9464 62.9434C79.5946 46.294 102.595 36 128 36V36ZM180.878 88.876C184.365 88.876 187.749 89.336 190.971 90.1904C181.484 80.982 168.544 75.3132 154.279 75.3132C139.729 75.3132 126.557 81.2086 117.025 90.7438C107.491 100.277 101.594 113.452 101.594 128C101.594 142.548 107.491 155.723 117.025 165.254C126.559 174.789 139.732 180.685 154.279 180.685C168.544 180.685 181.486 175.013 190.971 165.807C187.752 166.664 184.37 167.122 180.882 167.122C170.081 167.122 160.298 162.742 153.221 155.663C146.141 148.583 141.762 138.801 141.762 127.998C141.762 117.195 146.141 107.412 153.221 100.333C160.293 93.2584 170.072 88.876 180.878 88.876V88.876ZM199.321 109.555C194.6 104.837 188.081 101.916 180.875 101.916C173.672 101.916 167.151 104.837 162.429 109.555C157.708 114.276 154.791 120.797 154.791 128.002C154.791 135.207 157.713 141.729 162.429 146.45C167.151 151.168 173.67 154.089 180.875 154.089C188.081 154.089 194.6 151.168 199.321 146.45C204.038 141.729 206.96 135.207 206.96 128.002L206.956 127.666C206.87 120.594 203.966 114.201 199.321 109.555ZM154.274 62.2734C162.469 62.2734 170.309 63.7724 177.545 66.5134C163.997 55.5842 146.761 49.0398 127.998 49.0398C106.196 49.0398 86.4522 57.8792 72.1612 72.1658C57.8748 86.4524 49.036 106.195 49.036 128C49.036 149.807 57.8726 169.548 72.1612 183.836C86.45 198.123 106.191 206.962 127.998 206.962C146.763 206.962 163.994 200.418 177.545 189.487C170.309 192.228 162.469 193.727 154.274 193.727C136.127 193.727 119.692 186.37 107.801 174.476C95.9092 162.583 88.551 146.151 88.551 128.002C88.551 109.854 95.9092 93.4194 107.801 81.526C119.692 69.6302 136.127 62.2734 154.274 62.2734V62.2734Z" fill="white"/>
</g>
<defs>
<linearGradient id="paint0_linear_26_4" x1="-2.00546" y1="251.38" x2="249.812" y2="12.3957" gradientUnits="userSpaceOnUse">
<stop stop-color="#04BF77"/>
<stop offset="0.612453" stop-color="#04D082"/>
<stop offset="1" stop-color="#04D484"/>
</linearGradient>
<clipPath id="clip0_26_4">
<rect width="256" height="256" fill="white"/>
</clipPath>
</defs>
</svg>
