<svg width="256" height="256" viewBox="0 0 256 256" fill="none" xmlns="http://www.w3.org/2000/svg">
<circle cx="128" cy="128" r="128" fill="url(#paint0_linear_6490_11966)"/>
<path d="M189.624 64H116.5C80.8776 64 52 92.8776 52 128.5C52 164.122 80.8776 193 116.5 193H189.624C190.384 193 191 192.384 191 191.624V117.122C191 116.018 190.105 115.122 189 115.122H133.083C131.978 115.122 131.083 116.018 131.083 117.122V139.337C131.083 140.441 131.978 141.337 133.083 141.337H164.354V167.479H117.625C96.0973 167.479 78.6458 150.028 78.6458 128.5C78.6458 106.972 96.0973 89.521 117.625 89.521H189.888C190.502 89.521 191 89.023 191 88.4086V65.3762C191 64.6162 190.384 64 189.624 64Z" fill="white"/>
<defs>
<linearGradient id="paint0_linear_6490_11966" x1="128" y1="0" x2="128" y2="256" gradientUnits="userSpaceOnUse">
<stop stop-color="#696969"/>
<stop offset="1" stop-color="#414141"/>
</linearGradient>
</defs>
</svg>
