<svg xmlns="http://www.w3.org/2000/svg" width="15" height="15" viewBox="0 0 19 19" class="mr-0_5 icon-dollar"><defs><path id="icon-dollar-a" d="M0 0h19v19H0z"></path></defs><g fill="none" fill-rule="evenodd"><path fill="#212121" d="M19 9.5A9.5 9.5 0 0 0 9.5 0a9.5 9.5 0 1 0 0 19c5.247 0 9.5-4.254 9.5-9.5"></path><path fill="#fff" d="M12.256 8.505l-2.109-1.549a.921.921 0 0 0-.54-.179c-.28 0-.56.133-.738.376a.91.91 0 0 0 .192 1.28l2.109 1.552c.476.35.747.84.747 1.348 0 1.013-1.027 1.834-2.292 1.834-1.068 0-1.962-.582-2.218-1.375H5.532C5.79 13.597 7.526 15 9.625 15c2.273 0 4.125-1.645 4.125-3.667 0-1.1-.545-2.126-1.494-2.828m1.462-1.297h-1.875c-.256-.793-1.15-1.375-2.218-1.375-1.265 0-2.292.82-2.292 1.834 0 .508.27.999.747 1.347l2.109 1.554a.91.91 0 0 1 .192 1.279.915.915 0 0 1-1.278.197l-2.109-1.55C6.045 9.795 5.5 8.768 5.5 7.668 5.5 5.645 7.352 4 9.625 4c2.1 0 3.836 1.402 4.093 3.208"></path></g></svg>