<svg width="256" height="256" viewBox="0 0 256 256" fill="none" xmlns="http://www.w3.org/2000/svg">
<g clip-path="url(#clip0_2742_233)">
<path d="M218.533 46.122L218.136 45.7245L217.779 45.3667L217.381 44.9691L217.024 44.6113L216.626 44.2138L216.269 43.856L215.871 43.4585L215.514 43.1007L215.116 42.7031L214.56 42.3453L214.163 41.9478L213.805 41.59L213.408 41.1924L213.05 40.7949L212.653 40.4371L212.295 40.0793L211.898 39.6818L211.54 39.2842L211.143 38.9264L210.785 38.5289L210.388 38.1711L209.991 37.7736L209.633 37.4158L209.236 37.0182L208.878 36.6604L208.481 36.2629L208.123 35.9051C185.272 13.0361 154.277 0.186346 121.956 0.182618C89.6356 0.17889 58.6374 13.0215 35.7807 35.8852C12.924 58.7489 0.0811191 89.7609 0.0773934 122.099C0.0736677 154.437 12.9094 185.452 35.7608 208.321L36.1581 208.678L36.5157 209.076L36.9131 209.434L37.2707 209.791L37.668 210.189L38.0256 210.587L38.4229 210.944L38.7805 211.342L39.1779 211.7L39.7341 212.018L40.1314 212.376L40.489 212.773L40.8864 213.131L41.244 213.528L41.6413 213.886L41.9989 214.284L42.3962 214.642L42.7538 215.039L43.1512 215.397L43.5485 215.794L43.9061 216.192L44.3034 216.55L44.661 216.947L45.0584 217.305L45.416 217.663L45.8133 218.06L46.1709 218.458C57.395 230.161 70.8401 239.506 85.7189 245.946C100.598 252.386 116.611 255.79 132.821 255.96C149.032 256.13 165.113 253.063 180.124 246.937C195.134 240.811 208.772 231.75 220.239 220.285C231.706 208.82 240.772 195.181 246.904 180.166C253.037 165.152 256.114 149.064 255.956 132.845C255.797 116.626 252.405 100.602 245.979 85.7103C239.554 70.819 230.223 57.3602 218.533 46.122" fill="#DF8A16"/>
<path d="M243.682 121.887C243.682 97.7706 236.534 74.1956 223.142 54.144C209.75 34.0923 190.715 18.4646 168.445 9.23737C146.176 0.0101548 121.671 -2.40209 98.0316 2.30572C74.3916 7.01353 52.678 18.6299 35.637 35.6857C18.5959 52.7415 6.99282 74.4706 2.29525 98.1248C-2.40233 121.779 0.0166118 146.296 9.24613 168.574C18.4756 190.853 34.1011 209.893 54.1464 223.285C74.1917 236.678 97.7563 243.822 121.86 243.814C137.861 243.814 153.706 240.66 168.488 234.533C183.271 228.405 196.702 219.423 208.015 208.1C219.328 196.778 228.3 183.336 234.42 168.544C240.54 153.751 243.687 137.897 243.682 121.887" fill="#F7BB19"/>
<path d="M87.4137 25.1732C92.1535 29.322 98.1337 31.7825 104.419 32.17C98.2578 32.4913 92.3818 34.871 87.7315 38.9283C83.5726 43.6961 81.162 49.7398 80.8974 56.0625C80.6299 49.8117 78.2162 43.8444 74.0633 39.1668C69.417 35.03 63.5061 32.5915 57.2959 32.2495C63.6255 31.9552 69.6777 29.5638 74.5004 25.4515C78.431 20.8214 80.7219 15.0212 81.0166 8.95337C81.229 14.9336 83.4872 20.6594 87.4137 25.1732Z" fill="white"/>
<path d="M56.6212 68.1484C59.5866 70.7181 63.3143 72.2408 67.2299 72.4816C63.3678 72.7292 59.7011 74.2694 56.8198 76.8546C54.2068 79.8219 52.6918 83.5972 52.5287 87.5486C52.423 83.5925 50.9163 79.8025 48.2772 76.8546C45.3972 74.2483 41.7057 72.7176 37.8274 72.5214C41.7769 72.3377 45.5523 70.8407 48.5553 68.2676C50.9918 65.3757 52.3906 61.751 52.5287 57.9712C52.6651 61.7035 54.0663 65.2784 56.502 68.1086" fill="white"/>
<path d="M90.1957 128.532L90.5931 128.89L90.9904 129.288L91.348 129.685L91.7056 130.043L92.1029 130.44L92.5003 130.798L92.8579 131.196L93.2552 131.554L93.6128 131.951L94.0101 132.309L94.3677 132.706L94.765 133.064L95.1226 133.462C101.043 139.425 109.705 147.098 120.711 156.48L122.062 157.633C123.029 158.51 124.161 159.187 125.391 159.623C126.622 160.059 127.927 160.246 129.231 160.173C130.534 160.1 131.81 159.769 132.985 159.198C134.159 158.628 135.209 157.83 136.072 156.85C136.936 155.87 137.596 154.728 138.015 153.491C138.433 152.253 138.602 150.945 138.511 149.642C138.42 148.339 138.071 147.067 137.485 145.9C136.898 144.733 136.085 143.694 135.094 142.844V142.844L134.856 142.566L134.578 142.287L134.339 142.009L134.061 141.731L133.823 141.452L132.71 140.459L132.472 140.18L132.194 139.902L131.955 139.584L131.121 139.067L130.882 138.789L130.604 138.511L130.366 138.232L130.088 137.954L128.22 136.483C124.009 132.866 114.195 124.557 107.043 117.719C106.111 116.768 105.272 115.73 104.539 114.618C102.565 111.316 101.663 107.483 101.957 103.646C102.91 91.0437 115.545 83.5301 127.187 83.5301C133.056 83.5002 138.789 85.292 143.597 88.6584C145.55 91.3363 146.732 94.4989 147.014 97.802L147.61 98.6766L148.007 99.0344L148.365 99.4319L148.762 99.7897L149.12 100.187L149.517 100.545L149.915 100.943L150.272 101.3L150.67 101.698L151.027 102.095L151.425 102.453L151.782 102.851L152.179 103.209L152.537 103.606L153.411 104.163H170.854C171.16 104.163 171.453 104.041 171.669 103.825C171.885 103.609 172.006 103.316 172.006 103.01C171.622 93.4674 167.698 84.4106 161 77.6067L160.603 77.2489L160.245 76.8513L159.848 76.4936L159.49 76.096L159.093 75.7382L158.735 75.3407L158.338 74.9829L157.981 74.5853L157.583 74.2275L157.226 73.83L156.828 73.4722L156.471 73.0747L156.073 72.6771C151.638 68.0693 146.309 64.4161 140.413 61.9415C134.516 59.4669 128.177 58.223 121.784 58.286C101.162 58.286 78.7128 72.6374 76.8851 96.6491C76.2666 104.603 78.1415 112.551 82.2491 119.389C84.5595 122.752 87.2236 125.857 90.1957 128.652V128.532ZM166.603 129.725C170.701 136.538 172.588 144.454 172.006 152.385C170.179 176.238 147.729 190.748 127.108 190.748C120.704 190.808 114.356 189.55 108.458 187.054C102.559 184.558 97.2361 180.877 92.8181 176.238L92.4208 175.88L92.0235 175.482L91.6659 175.125L91.2685 174.727L90.9109 174.369L90.5136 173.972L90.156 173.614L89.7587 173.216L89.4011 172.859L89.0037 172.461L88.6461 172.262L88.2488 171.865L87.8912 171.507C81.1776 164.697 77.2518 155.622 76.8851 146.064C76.8851 145.769 77.0023 145.486 77.211 145.277C77.4196 145.068 77.7026 144.951 77.9976 144.951H95.5597L96.4338 145.507L96.7914 145.905L97.1888 146.263L97.5464 146.66L97.9437 147.018L98.3013 147.416L98.6986 147.773L99.0562 148.171L99.3344 148.41L99.692 148.807L100.089 149.165L100.447 149.562L100.844 149.96L101.202 150.318L101.798 151.153C102.051 154.548 103.264 157.802 105.294 160.535C110.099 163.908 115.835 165.701 121.704 165.663C133.346 165.663 145.941 158.11 146.935 145.547C147.229 141.711 146.326 137.877 144.352 134.575C143.595 133.458 142.744 132.407 141.809 131.434C134.697 124.676 124.883 116.328 120.671 112.71L119.201 111.557V111.279L118.963 111.001L118.684 110.722L118.446 110.444L118.168 110.166L117.89 109.887L117.612 109.609L116.38 108.655L116.141 108.377L115.863 108.098L115.228 107.502L114.949 107.224L114.711 106.946L114.433 106.667C112.404 104.98 111.129 102.556 110.887 99.9281C110.644 97.3001 111.456 94.6834 113.142 92.6538C114.828 90.6241 117.251 89.3478 119.877 89.1055C122.504 88.8632 125.119 89.6748 127.148 91.3618L128.499 92.5146C139.505 101.897 148.365 109.569 154.047 115.533L154.444 115.93L154.802 116.288L155.199 116.685L155.597 117.043L155.954 117.441L156.351 117.799L156.709 118.196L157.106 118.554L157.464 118.951L157.861 119.309L158.219 119.707L158.616 120.065L158.934 120.581C161.927 123.356 164.593 126.464 166.881 129.844" fill="#DF8A16"/>
<path d="M130.605 151.59C131.472 150.611 132.136 149.47 132.559 148.233C132.983 146.996 133.157 145.688 133.072 144.383C132.987 143.078 132.644 141.803 132.064 140.631C131.484 139.46 130.677 138.415 129.691 137.557L128.221 136.483C121.784 130.997 102.315 114.38 99.2556 109.331C97.2537 106.04 96.3493 102.198 96.6729 98.3588C97.6265 85.7566 110.262 78.243 121.903 78.243C135.373 78.243 146.419 87.0288 147.055 98.1203C147.065 98.4086 147.187 98.6816 147.394 98.8818C147.602 99.082 147.879 99.1938 148.167 99.1937H165.689C165.839 99.1937 165.987 99.1637 166.125 99.1053C166.262 99.0469 166.387 98.9613 166.491 98.8537C166.594 98.7461 166.675 98.6186 166.729 98.479C166.782 98.3393 166.807 98.1903 166.802 98.0408C166.127 76.2155 146.26 58.6042 121.903 58.6042C101.282 58.6042 78.8327 72.9556 77.005 96.9674C76.3864 104.921 78.2614 112.87 82.369 119.707C86.3423 126.147 97.9046 136.682 115.387 151.511L116.778 152.703C118.738 154.398 121.285 155.255 123.87 155.092C126.455 154.928 128.874 153.757 130.605 151.829V151.59ZM113.083 92.2366C113.944 91.2468 114.992 90.4382 116.168 89.8576C117.344 89.277 118.624 88.9361 119.933 88.8547C121.241 88.7734 122.553 88.9531 123.792 89.3835C125.031 89.814 126.172 90.4865 127.148 91.362L128.499 92.5149C145.982 107.423 157.584 117.958 161.517 124.319C165.639 131.194 167.515 139.185 166.881 147.177C165.014 171.03 142.604 185.501 121.983 185.501C97.6265 185.501 77.7202 167.929 77.0447 146.064C77.0447 145.769 77.1619 145.486 77.3706 145.277C77.5792 145.068 77.8622 144.951 78.1573 144.951H95.7193C95.9971 144.951 96.2641 145.059 96.4642 145.251C96.6643 145.444 96.7818 145.707 96.7921 145.985C97.4676 156.997 108.474 165.862 121.983 165.862C133.625 165.862 146.22 158.309 147.214 145.746C147.507 141.91 146.605 138.076 144.631 134.774C141.571 129.725 122.062 113.108 115.665 107.622L114.156 106.349C113.169 105.491 112.363 104.446 111.783 103.275C111.202 102.103 110.86 100.828 110.775 99.5234C110.69 98.2186 110.864 96.9099 111.288 95.6728C111.711 94.4358 112.375 93.2949 113.242 92.3161" fill="white"/>
</g>
<defs>
<clipPath id="clip0_2742_233">
<rect width="256" height="256" fill="white"/>
</clipPath>
</defs>
</svg>
