<svg width="256" height="256" viewBox="0 0 256 256" fill="none" xmlns="http://www.w3.org/2000/svg">
<circle cx="128" cy="128" r="128" fill="url(#paint0_linear_6488_10336)"/>
<path d="M116.901 90.4091C121.458 85.365 129.265 84.8716 134.433 89.2852C135.127 89.8883 135.711 90.3817 136.155 90.7655C158.299 109.407 173.024 122.566 177.998 130.625C183.165 139.014 185.61 149.102 184.832 159.053C182.499 189.071 154.076 207 127.932 207C97.0639 207 71.8363 185.014 71.0028 157.71C71.0028 156.942 71.6418 156.284 72.4198 156.284H94.6467C95.3969 156.284 95.9803 156.86 96.0081 157.6C96.8416 171.362 110.845 182.328 127.932 182.328C142.685 182.328 158.688 172.925 159.91 157.189C160.272 152.364 159.133 147.485 156.66 143.482C152.77 137.204 128.07 116.397 119.958 109.571C119.457 109.16 118.818 108.612 118.068 107.954C112.817 103.458 112.289 95.5629 116.901 90.4366V90.4091ZM139.101 164.563C143.74 159.437 143.213 151.542 137.934 147.046C137.183 146.416 136.544 145.84 136.044 145.429C127.932 138.603 103.204 117.796 99.3421 111.518C96.8694 107.515 95.7025 102.636 96.0914 97.8109C97.3139 82.0753 113.317 72.6724 128.07 72.6724C145.13 72.6724 159.133 83.6379 159.994 97.3722C160.049 98.1124 160.633 98.7155 161.383 98.7155H183.582C184.388 98.7155 185.027 98.0576 184.999 97.29C184.138 69.9859 158.91 48 128.043 48C101.898 48 73.4756 65.9286 71.1417 95.9467C70.3638 105.898 72.8087 115.986 77.9765 124.375C82.9498 132.407 97.6751 145.593 119.819 164.234C120.263 164.618 120.874 165.112 121.541 165.715C126.709 170.128 134.544 169.635 139.073 164.591L139.101 164.563Z" fill="white"/>
<defs>
<linearGradient id="paint0_linear_6488_10336" x1="128" y1="0" x2="128" y2="256" gradientUnits="userSpaceOnUse">
<stop stop-color="#15D584"/>
<stop offset="1" stop-color="#00B377"/>
</linearGradient>
</defs>
</svg>
