<svg width="256" height="256" viewBox="0 0 256 256" fill="none" xmlns="http://www.w3.org/2000/svg">
<circle cx="128" cy="128" r="128" fill="url(#paint0_linear_6490_11965)"/>
<path d="M84 60C84 58.8954 84.8954 58 86 58H160.625C181.266 58 198 74.6212 198 95.1245C198 115.628 181.266 132.249 160.625 132.249H110.856V196C110.856 197.105 109.961 198 108.856 198H86C84.8954 198 84 197.105 84 196V107.348C84 106.243 84.8954 105.348 86 105.348H161.65C167.334 105.348 171.942 100.771 171.942 95.1249C171.942 89.479 167.334 84.9022 161.65 84.9022H86C84.8954 84.9022 84 84.0067 84 82.9022V60Z" fill="white"/>
<defs>
<linearGradient id="paint0_linear_6490_11965" x1="128" y1="0" x2="128" y2="256" gradientUnits="userSpaceOnUse">
<stop stop-color="#AE48FF"/>
<stop offset="1" stop-color="#7F01CD"/>
</linearGradient>
</defs>
</svg>
