<svg width="200" height="200" viewBox="0 0 200 200" fill="none" xmlns="http://www.w3.org/2000/svg">
<g clip-path="url(#clip0_1280_5)">
<path d="M100 200C155.228 200 200 155.228 200 100C200 44.7715 155.228 0 100 0C44.7715 0 0 44.7715 0 100C0 155.228 44.7715 200 100 200Z" fill="#0088CC"/>
<path fill-rule="evenodd" clip-rule="evenodd" d="M72.1424 66.0723H128.214C130.357 66.0723 132.142 66.4294 134.285 67.5008C136.785 68.5723 138.214 70.358 138.928 71.7866C138.928 71.7866 138.928 72.1437 139.285 72.1437C140.357 73.9294 141.071 76.0723 141.071 78.5723C141.071 80.7151 140.714 82.858 139.285 85.0008L103.928 145.715C103.214 147.144 101.785 147.858 99.9996 147.858C98.571 147.858 97.1424 147.144 96.071 145.715L61.4281 85.0008C60.7139 83.5723 59.2853 81.7866 59.2853 78.9294C58.9281 76.4294 59.6424 74.2866 60.7139 72.1437C61.7853 70.0008 63.571 68.2151 66.071 67.5008C68.2139 66.0723 70.7139 66.0723 72.1424 66.0723ZM95.7139 74.6437H72.1424C70.7139 74.6437 69.9996 74.6437 69.6424 75.0008C68.9281 75.358 68.571 75.7151 68.2139 76.4294C67.8567 76.7865 67.8567 77.5008 67.8567 78.2151C67.8567 78.5723 68.2139 78.9294 68.9281 80.358L95.7139 126.787V74.6437ZM104.285 74.6437V127.144L131.428 80.358C131.785 79.6437 131.785 78.9294 131.785 78.2151C131.785 77.5008 131.785 76.7865 131.428 76.4294C131.071 76.0723 131.071 75.7151 130.714 75.7151L130.357 75.358C129.642 75.0008 128.928 75.0008 127.857 75.0008H104.285V74.6437Z" fill="white"/>
</g>
<defs>
<clipPath id="clip0_1280_5">
<rect width="200" height="200" fill="white"/>
</clipPath>
</defs>
</svg>
