<svg width="400" height="401" viewBox="0 0 400 401" fill="none" xmlns="http://www.w3.org/2000/svg">
<path d="M200 400.907C310.457 400.907 400 311.364 400 200.907C400 90.4498 310.457 0.90673 200 0.90673C89.5431 0.90673 0 90.4498 0 200.907C0 311.364 89.5431 400.907 200 400.907Z" fill="#002E33"/>
<path d="M271.919 183.276C266.699 149.309 237.896 124.209 201.954 124.209C165.249 124.209 135.307 148.956 127.828 183.276H95.8521V208.892H126.48C130.652 248.503 162.932 277.6 202.558 277.6C232.991 277.6 257.703 265.544 268.55 245.655L241.729 228.481C234.8 239.929 219.734 247.16 203.157 247.16C179.351 247.16 163.077 232.695 159.464 208.892H271.566H295.688L304.143 183.276H271.919ZM200.145 151.937C220.336 151.937 235.703 164.89 237.512 183.276H160.665C165.789 163.989 179.954 151.937 200.145 151.937Z" fill="#CCF7ED"/>
</svg>
