<svg width="559" height="559" viewBox="0 0 559 559" fill="none" xmlns="http://www.w3.org/2000/svg">
<path d="M279.5 559C433.864 559 559 433.864 559 279.5C559 125.136 433.864 0 279.5 0C125.136 0 0 125.136 0 279.5C0 433.864 125.136 559 279.5 559Z" fill="#3CCD64"/>
<path d="M541 279.477C541 404.772 452.852 509.489 335.177 535L333.47 527.149C315.741 530.974 297.656 532.902 279.519 532.902C152.682 532.902 44.6478 438.228 28.2269 312.681C26.8003 301.671 26.0868 290.58 26.0907 279.477H18C18 135.085 135.07 18 279.5 18V26.027C419.286 26.027 532.947 139.716 532.947 279.452L541 279.477Z" fill="#191919"/>
<path d="M413.956 479L405 465.614C505.772 397.65 534.105 261.426 468.83 158.69L482.372 150C552.352 260.129 521.995 406.15 413.956 479Z" fill="#3CCD64"/>
<path d="M80.4196 414C61.8446 386.718 49.1294 355.927 43.0673 323.547C37.0052 291.167 37.7263 257.894 45.1856 225.803C52.645 193.713 66.6825 163.494 86.4223 137.031C106.162 110.569 131.18 88.4313 159.916 72L168 85.9396C98.4285 125.797 55.2098 200.055 55.2098 279.738C55.1279 324.396 68.5834 368.044 93.8247 404.999L80.4196 414Z" fill="#3CCD64"/>
<path d="M187.856 468C83.3655 416.975 40.3032 291.414 91.6783 187.584C95.5324 179.796 99.8697 172.254 104.665 165L118.185 173.834C97.2812 205.361 86.1704 242.301 86.2359 280.055C86.2359 354.302 127.914 420.774 195 453.587L187.856 468Z" fill="#3CCD64"/>
<path d="M482.172 333L466.639 328.911C470.828 312.836 472.944 296.288 472.938 279.672C472.938 172.94 386.386 86.1077 280 86.1077V70C395.419 70.0063 489 163.878 489 279.672C489.004 297.668 486.71 315.59 482.172 333Z" fill="#3CCD64"/>
<path d="M437.369 202.856C399.252 260.987 365.311 243.372 324.771 235.498C284.231 227.625 261.835 270.596 261.835 270.596C261.835 270.596 261.88 270.451 261.905 270.382C261.135 271.79 260.384 273.21 259.665 274.65C258.366 277.175 257.192 279.821 256.069 282.529C256.195 279.585 256.644 276.663 257.407 273.816C258.144 270.949 259.104 268.143 260.277 265.425C261.737 262.039 263.507 258.794 265.564 255.734C271.873 215.086 238.317 199.447 195.941 174.975C148.746 147.725 169.867 118 169.867 118C169.867 118 90.0685 200.962 143.314 279.404C196.559 357.846 263.911 380.026 193.702 498.105C193.702 498.105 241.402 525.822 318.147 512.266C298.085 426.514 303.151 394.2 334.922 365.081L331.458 366.344C330.197 366.767 328.935 367.076 327.673 367.417L325.781 367.916C325.15 368.067 324.519 368.156 323.85 368.276C322.588 368.503 321.276 368.718 319.989 368.907C318.702 369.097 317.377 369.097 316.084 369.172C315.453 369.172 314.784 369.235 314.135 369.248C313.485 369.261 312.829 369.198 312.179 369.147C310.879 369.065 309.586 368.97 308.305 368.812C309.567 368.421 310.829 368.099 312.04 367.783C312.671 367.619 313.27 367.48 313.882 367.335L315.705 366.773C316.91 366.413 318.115 366.072 319.32 365.738C320.525 365.403 321.686 364.911 322.866 364.525C323.459 364.33 324.052 364.159 324.632 363.938L326.38 363.269C327.528 362.802 328.714 362.442 329.85 361.943L333.282 360.51C334.436 360.055 335.54 359.487 336.676 358.982C341.18 356.911 345.626 354.663 350.012 352.239L353.167 350.484C368.244 342.907 381.556 334.302 393.801 323.335C469.083 256.037 437.369 202.856 437.369 202.856Z" fill="white"/>
</svg>
