<svg width="903" height="903" viewBox="0 0 903 903" fill="none" xmlns="http://www.w3.org/2000/svg">
<circle cx="451.338" cy="451.969" r="451.031" fill="#8F8FFF"/>
<path d="M666.297 302.564C659.171 297.318 651.262 293.246 642.571 290.271C635.053 287.687 627.066 286.042 618.61 285.181C617.748 276.724 616.026 268.737 613.52 261.298C610.544 252.685 606.472 244.698 601.304 237.572C598.72 234.048 595.901 230.603 592.769 227.471C575.073 209.852 550.563 201.396 521.982 201.396C460.435 201.396 380.409 240.626 310.405 310.551C263.501 357.456 228.42 411.094 211.585 461.522C192.949 517.431 198.508 564.1 227.324 592.916C230.3 595.891 233.51 598.476 236.877 600.981C244.003 606.228 251.912 610.456 260.603 613.432C268.042 616.016 276.108 617.738 284.643 618.678C285.504 627.135 287.305 635.122 289.889 642.639C292.865 651.252 297.015 659.161 302.261 666.287C304.767 669.654 307.507 672.943 310.483 675.997C328.101 693.615 352.454 702.542 381.505 702.542C399.906 702.542 420.187 698.94 441.877 691.736C492.305 674.9 545.943 639.82 592.848 592.916C695.269 490.494 731.759 366.461 675.928 310.551C672.953 307.576 669.742 304.992 666.453 302.564H666.297ZM559.568 559.715C517.754 601.529 470.615 632.616 427 647.181C410.242 652.74 394.895 655.559 381.661 655.559C377.276 655.559 373.126 655.168 369.211 654.541C358.562 652.897 349.87 648.982 343.606 642.717C342.196 641.308 341.022 639.663 339.925 638.019C335.697 632.068 332.956 624.551 331.782 615.781C329.902 601.999 331.703 585.086 337.341 566.058C337.968 563.865 338.516 561.673 339.299 559.402C341.726 552.198 344.702 544.837 347.991 537.477C353.159 525.966 359.345 514.299 366.47 502.631C382.288 476.713 402.647 450.872 426.765 426.755C451.979 401.541 477.819 381.495 502.72 366.226C509.689 353.619 515.483 341.168 519.477 329.109C523.392 317.442 524.88 308.515 525.271 302.251C481.891 320.183 435.848 351.191 393.564 393.554C352.532 434.507 320.584 480.706 301.948 525.339C299.286 531.76 296.858 538.181 294.744 544.524C294.274 545.933 293.883 547.265 293.491 548.674C290.985 556.505 289.028 564.257 287.54 571.696C278.692 570.443 271.253 567.545 265.302 563.239C263.735 562.064 262.091 561.046 260.682 559.715C254.417 553.451 250.58 544.602 248.936 533.953C246.509 518.37 248.858 498.716 256.297 476.399C270.861 432.706 301.948 385.645 343.762 343.831C408.128 279.465 476.958 248.065 521.591 248.065C526.211 248.065 530.518 248.456 534.589 249.161C545.004 250.884 553.617 254.721 559.647 260.828C561.056 262.238 562.309 263.96 563.483 265.683C567.712 271.713 570.374 279.23 571.549 288.078C573.35 301.781 571.549 318.538 565.989 337.331C565.284 339.602 564.736 341.795 563.953 344.144C561.526 351.348 558.55 358.63 555.262 365.991C550.093 377.58 543.907 389.169 536.782 400.836C520.964 426.755 500.605 452.595 476.488 476.713C452.37 500.83 426.53 521.189 400.611 537.007C393.564 549.692 387.769 562.221 383.776 574.358C379.86 586.182 378.373 595.187 377.981 601.529C422.614 582.893 468.736 550.945 509.767 509.914C550.72 468.961 582.668 422.839 601.304 378.206C603.967 371.785 606.394 365.286 608.587 358.943C609.056 357.534 609.448 356.203 609.84 354.872C612.345 346.963 614.303 339.289 615.791 331.85C624.639 333.103 632.078 336 638.029 340.307C639.595 341.482 641.239 342.499 642.649 343.831C648.835 350.017 652.75 358.865 654.395 369.671C661.129 413.208 630.277 489.163 559.568 559.793V559.715Z" fill="white"/>
</svg>
