<svg fill="none" height="500" viewBox="0 0 500 500" width="500" xmlns="http://www.w3.org/2000/svg"><circle cx="250" cy="250" fill="#356df3" r="250"/><g fill="#fff"><path d="m374.055 149.146-103.512-54.8777c-12.712-6.7532-27.864-6.7532-40.576-.0567l-104.59 55.1044c-15.777 9.477-30.5316 20.657-31.1558 53.231v26.275h40.6898v-35.922l115.373-61.517 114.521 61.517v35.922h40.69v-26.275c-.681-32.744-15.55-43.867-31.44-53.401z"/><path d="m364.748 310.656-94.148 52.721v-42.563c33.085-7.775 54.877-34.731 54.877-70.767 0-43.698-30.191-73.037-75.193-73.037-45.003 0-75.194 29.339-75.194 73.037 0 36.093 21.735 62.992 54.877 70.767v42.619l-94.999-52.777v-39.271h-40.7468v26.218c.681 32.518 15.3788 43.755 31.1558 53.232l104.59 55.104c12.712 6.697 27.921 6.697 40.576-.057l103.455-54.877c15.89-9.477 30.816-20.657 31.44-53.402v-26.218h-40.69zm-151.863-60.609c0-23.949 13.28-37.115 37.399-37.115 24.118 0 37.398 13.166 37.398 37.115 0 23.211-13.961 37.114-37.398 37.114-23.438 0-37.399-13.847-37.399-37.114z"/></g></svg>