<svg width="200" height="200" viewBox="0 0 200 200" fill="none" xmlns="http://www.w3.org/2000/svg">
<g clip-path="url(#clip0_1320_2)">
<path d="M100 189.178C149.251 189.178 189.177 149.252 189.177 100.001C189.177 50.75 149.251 10.8242 100 10.8242C50.749 10.8242 10.8232 50.75 10.8232 100.001C10.8232 149.252 50.749 189.178 100 189.178Z" fill="white"/>
<path d="M100 0C80.2219 0 60.8879 5.8649 44.443 16.853C27.9981 27.8412 15.1809 43.459 7.61209 61.7317C0.0433281 80.0043 -1.93701 100.111 1.92152 119.509C5.78004 138.907 15.3041 156.725 29.2894 170.711C43.2746 184.696 61.0929 194.22 80.491 198.079C99.8891 201.937 119.996 199.957 138.268 192.388C156.541 184.819 172.159 172.002 183.147 155.557C194.135 139.112 200 119.778 200 100C200.038 86.906 197.497 73.9326 192.521 61.8207C187.546 49.7087 180.233 38.6954 171.001 29.4096C161.769 20.1237 150.799 12.7471 138.716 7.70101C126.634 2.65491 113.675 0.0381009 100.581 0H100ZM101.695 103.39L91.2833 138.499H146.973C147.342 138.486 147.71 138.546 148.056 138.675C148.402 138.804 148.718 139.001 148.988 139.252C149.258 139.504 149.476 139.807 149.629 140.143C149.781 140.479 149.866 140.842 149.879 141.211V142.131L145.036 158.838C144.823 159.628 144.347 160.322 143.687 160.806C143.027 161.29 142.222 161.535 141.404 161.501H56.1744L70.4601 112.833L54.4795 117.676L58.1114 106.538L74.0921 101.695L94.1889 33.414C94.4101 32.6284 94.8879 31.9394 95.5461 31.4567C96.2043 30.974 97.0051 30.7255 97.8209 30.7506H119.371C119.739 30.7377 120.107 30.7976 120.453 30.9269C120.799 31.0562 121.116 31.2524 121.385 31.5043C121.655 31.7561 121.873 32.0587 122.026 32.3947C122.178 32.7307 122.264 33.0936 122.276 33.4625V34.3826L105.327 92.0097L121.308 87.1671L117.918 98.7893L101.695 103.39Z" fill="#345D9D"/>
</g>
<defs>
<clipPath id="clip0_1320_2">
<rect width="200" height="200" fill="white"/>
</clipPath>
</defs>
</svg>
