<svg id="svg" version="1.1" xmlns="http://www.w3.org/2000/svg" style="display: block;" viewBox="0 0 419 419"><path d="M0 0 C138.27 0 276.54 0 419 0 C419 138.27 419 276.54 419 419 C280.73 419 142.46 419 0 419 C0 280.73 0 142.46 0 0 Z " transform="translate(0,0)" style="fill: #000000;"/><path d="M0 0 C138.27 0 276.54 0 419 0 C419 138.27 419 276.54 419 419 C280.73 419 142.46 419 0 419 C0 280.73 0 142.46 0 0 Z M158 24 C156.81277344 24.29648437 155.62554687 24.59296875 154.40234375 24.8984375 C125.97177259 32.89568203 100.60159534 49.18544573 79 69 C78.48630859 69.46841309 77.97261719 69.93682617 77.44335938 70.41943359 C59.47094251 87.01334994 46.30902972 107.98342878 36 130 C35.46632813 131.11503906 34.93265625 132.23007813 34.3828125 133.37890625 C24.5884053 154.87077904 19.67039654 179.45567349 19 203 C18.96890137 203.65581055 18.93780273 204.31162109 18.90576172 204.98730469 C16.79310061 251.29598681 34.66354681 300.77258517 65.625 335.25 C66.37394531 336.06082031 67.12289062 336.87164062 67.89453125 337.70703125 C69.76208204 339.74089454 71.5398422 341.82147023 73.3125 343.9375 C89.51204512 362.39830885 110.94447613 375.68717015 133 386 C133.64888184 386.30824707 134.29776367 386.61649414 134.96630859 386.93408203 C176.67470126 406.45782551 227.8680765 406.3827573 271.01293945 391.71044922 C293.36697354 383.57132629 314.16853431 371.77398888 332 356 C332.51369141 355.54657227 333.02738281 355.09314453 333.55664062 354.62597656 C372.81249991 319.77068513 395.34184468 271.55950766 399.19970703 219.29443359 C399.45720765 213.84382427 399.31572112 208.44478489 399 203 C398.95601074 202.15727539 398.91202148 201.31455078 398.86669922 200.44628906 C396.00770276 150.41844755 375.11760112 102.2486078 338 68 C337.42507813 67.46632812 336.85015625 66.93265625 336.2578125 66.3828125 C287.14135537 22.15762081 221.51795304 8.07257607 158 24 Z " transform="translate(0,0)" style="fill: #FDFDFD;"/><path d="M0 0 C14.19 0 28.38 0 43 0 C43 58.08 43 116.16 43 176 C65.77 176 88.54 176 112 176 C112 187.22 112 198.44 112 210 C75.04 210 38.08 210 0 210 C0 140.7 0 71.4 0 0 Z " transform="translate(109,105)" style="fill: #FAFAFA;"/><path d="M0 0 C24.09 0 48.18 0 73 0 C73 72.27 73 144.54 73 219 C58.48 219 43.96 219 29 219 C29 159.6 29 100.2 29 39 C19.43 39 9.86 39 0 39 C0 26.13 0 13.26 0 0 Z " transform="translate(237,96)" style="fill: #FBFBFB;"/></svg>