<?xml version="1.0" encoding="UTF-8" standalone="no"?>
<!-- Created with Inkscape (http://www.inkscape.org/) -->

<svg
   width="156"
   height="156"
   viewBox="0 0 41.275 41.275001"
   version="1.1"
   id="svg3187"
   inkscape:version="1.1.1 (3bf5ae0, 2021-09-20)"
   sodipodi:docname="l1edit.svg"
   inkscape:export-filename="/home/coldchain/Pictures/l1edit.png"
   inkscape:export-xdpi="140.75085"
   inkscape:export-ydpi="140.75085"
   xmlns:inkscape="http://www.inkscape.org/namespaces/inkscape"
   xmlns:sodipodi="http://sodipodi.sourceforge.net/DTD/sodipodi-0.dtd"
   xmlns="http://www.w3.org/2000/svg"
   xmlns:svg="http://www.w3.org/2000/svg">
  <sodipodi:namedview
     id="namedview3189"
     pagecolor="#505050"
     bordercolor="#ffffff"
     borderopacity="1"
     inkscape:pageshadow="0"
     inkscape:pageopacity="0"
     inkscape:pagecheckerboard="1"
     inkscape:document-units="mm"
     showgrid="false"
     inkscape:zoom="1.8116734"
     inkscape:cx="131.64624"
     inkscape:cy="104.04745"
     inkscape:window-width="1846"
     inkscape:window-height="1136"
     inkscape:window-x="0"
     inkscape:window-y="0"
     inkscape:window-maximized="1"
     inkscape:current-layer="layer1"
     units="px"
     lock-margins="false"
     fit-margin-left="10"
     fit-margin-top="10"
     fit-margin-right="10"
     fit-margin-bottom="10" />
  <defs
     id="defs3184" />
  <g
     inkscape:label="Layer 1"
     inkscape:groupmode="layer"
     id="layer1"
     transform="translate(0.49898346,0.67999765)">
    <rect
       style="fill:#ffffff;fill-opacity:1;stroke-width:0.0609529"
       id="rect2632"
       width="18.891434"
       height="20.58321"
       x="10.67459"
       y="9.4239197" />
    <path
       style="fill:#000000;stroke-width:0.0939873"
       d="M 18.569518,38.092428 C 11.119363,37.366757 5.0333977,32.293979 2.9494592,25.072796 c -0.9100303,-3.153402 -0.9100303,-6.809246 0,-9.962648 C 4.4766973,9.8180193 8.1962579,5.5835352 13.19575,3.4453941 16.901856,1.8603983 21.202159,1.6108552 25.059966,2.7569239 c 5.846396,1.7368304 10.415501,6.3872613 12.137195,12.3532241 0.910029,3.153402 0.910029,6.809246 0,9.962648 -1.936296,6.709584 -7.421339,11.669591 -14.171414,12.814895 -1.311551,0.222532 -3.32418,0.315002 -4.456229,0.204737 z m 2.631639,-9.683082 V 26.811561 H 17.958599 14.716038 V 18.540684 10.269805 H 12.69531 10.674588 v 9.868661 9.868662 h 5.263283 5.263286 z m 8.364864,-8.693822 V 9.42392 H 26.13549 22.704953 v 1.832751 1.832752 h 1.36282 1.362811 v 8.458853 8.458852 h 2.067719 2.067718 z"
       id="path355" />
  </g>
</svg>
