<svg version="1.1" id="Layer_1" xmlns="http://www.w3.org/2000/svg" xmlns:xlink="http://www.w3.org/1999/xlink" x="0px" y="0px"
	 width="100%" viewBox="0 0 600 600" enable-background="new 0 0 600 600" xml:space="preserve">
<path fill="#50698C" opacity="1.000000" stroke="none" 
	d="
M601.000000,266.000000 
	C601.000000,288.687561 601.000000,311.375122 600.580566,334.446808 
	C599.781860,335.501831 599.120178,336.150177 599.064453,336.846985 
	C597.619263,354.912354 593.383606,372.397614 588.117371,389.663849 
	C578.942871,419.744202 565.648987,447.907623 547.004456,473.228027 
	C536.579224,487.386078 525.243225,500.983826 513.253723,513.841919 
	C504.873718,522.828918 494.880371,530.368591 485.277008,538.146484 
	C462.355652,556.710938 436.791840,570.718750 409.317322,581.326416 
	C386.278290,590.221497 362.571381,596.397766 337.983826,599.088684 
	C337.261505,599.167725 336.658600,600.338318 336.000000,601.000000 
	C313.312439,601.000000 290.624878,601.000000 267.553253,600.580627 
	C266.498199,599.781921 265.849762,599.120361 265.152863,599.064575 
	C247.080292,597.618652 229.587585,593.383606 212.315475,588.111633 
	C182.232559,578.929382 154.064041,565.635559 128.743103,546.980469 
	C114.588501,536.552185 100.831932,525.370483 88.155746,513.214600 
	C77.626053,503.117096 68.419769,491.494110 59.545696,479.847137 
	C43.135216,458.308868 30.337160,434.656891 20.656092,409.326019 
	C11.839873,386.257965 5.598160,362.577820 2.911676,337.990845 
	C2.832505,337.266266 1.661785,336.660919 1.000001,336.000000 
	C1.000000,313.312439 1.000000,290.624878 1.419409,267.553040 
	C2.218132,266.497894 2.830806,265.862885 2.940503,265.150482 
	C3.987699,258.349426 4.750922,251.499481 5.968956,244.730759 
	C13.161437,204.761337 28.521624,168.085327 50.935349,134.317108 
	C63.079922,116.020271 76.887390,99.062218 93.245026,84.357979 
	C103.275139,75.341682 113.781738,66.855453 124.043930,58.589520 
	C124.008881,131.037079 123.916771,203.026535 124.088120,275.015350 
	C124.115807,286.643097 124.519585,298.378052 126.108292,309.875671 
	C133.787613,365.451965 162.941727,405.933899 214.706329,427.668091 
	C268.103241,450.087677 323.355072,450.229370 377.749725,431.490112 
	C423.158600,415.846466 454.211395,384.264252 469.508575,338.136292 
	C474.786377,322.221405 477.714752,305.771576 477.771667,289.080353 
	C478.034119,212.094589 477.902649,135.107483 478.250793,58.166260 
	C490.112274,68.037605 502.153931,77.329315 512.998352,87.854523 
	C522.060547,96.649940 529.937683,106.712318 537.959839,116.524063 
	C556.826111,139.598907 570.903015,165.474716 581.573547,193.213623 
	C590.362671,216.061615 596.481445,239.608902 599.088806,264.013550 
	C599.165955,264.735535 600.338318,265.340485 601.000000,266.000000 
z"/>
<path fill="#516A8C" opacity="1.000000" stroke="none" 
	d="
M266.000000,0.999998 
	C288.687561,1.000000 311.375122,1.000000 334.445526,1.419424 
	C338.767151,2.560039 342.729340,3.173479 346.640381,4.022465 
	C358.767120,6.654869 370.874451,9.376815 382.839935,12.507744 
	C382.658142,15.116723 382.597473,17.281965 382.597351,19.447212 
	C382.592560,106.270737 382.675781,193.094452 382.476837,279.917511 
	C382.454834,289.521088 381.607941,299.271820 379.793030,308.694122 
	C374.492157,336.214508 359.518738,355.917664 331.597931,363.508850 
	C311.137573,369.071655 290.410004,369.110718 269.943359,363.166718 
	C246.225494,356.278473 229.937195,341.268311 224.052856,317.042725 
	C221.057510,304.710999 219.336853,291.757629 219.278091,279.074890 
	C218.875763,192.253235 219.068024,105.428833 219.061172,18.605316 
	C219.061005,16.441122 218.974030,14.276936 219.287079,11.954021 
	C234.282455,8.861609 248.923645,5.953793 263.541382,2.932359 
	C264.455017,2.743511 265.184723,1.664738 266.000000,0.999998 
z"/>
<path fill="#000000" opacity="1.000000" stroke="none" 
	d="
M265.531342,0.999998 
	C265.184723,1.664738 264.455017,2.743511 263.541382,2.932359 
	C248.923645,5.953793 234.282455,8.861609 218.892441,11.906316 
	C205.549896,16.651369 192.838425,20.979799 180.401062,25.988850 
	C160.191879,34.127941 141.573380,45.179104 124.074371,58.131195 
	C113.781738,66.855453 103.275139,75.341682 93.245026,84.357979 
	C76.887390,99.062218 63.079922,116.020271 50.935349,134.317108 
	C28.521624,168.085327 13.161437,204.761337 5.968956,244.730759 
	C4.750922,251.499481 3.987699,258.349426 2.940503,265.150482 
	C2.830806,265.862885 2.218132,266.497894 1.419409,267.084412 
	C1.000000,178.406433 1.000000,89.812866 1.000000,1.000000 
	C89.020775,1.000000 177.041733,1.000000 265.531342,0.999998 
z"/>
<path fill="#000000" opacity="1.000000" stroke="none" 
	d="
M382.989288,12.064007 
	C370.874451,9.376815 358.767120,6.654869 346.640381,4.022465 
	C342.729340,3.173479 338.767151,2.560039 334.914185,1.419424 
	C423.593567,1.000000 512.187134,1.000000 601.000000,1.000000 
	C601.000000,89.020775 601.000000,177.041733 601.000000,265.531342 
	C600.338318,265.340485 599.165955,264.735535 599.088806,264.013550 
	C596.481445,239.608902 590.362671,216.061615 581.573547,193.213623 
	C570.903015,165.474716 556.826111,139.598907 537.959839,116.524063 
	C529.937683,106.712318 522.060547,96.649940 512.998352,87.854523 
	C502.153931,77.329315 490.112274,68.037605 477.934082,58.017815 
	C448.671814,36.754410 417.289032,21.403976 382.989288,12.064007 
z"/>
<path fill="#000000" opacity="1.000000" stroke="none" 
	d="
M336.468658,601.000000 
	C336.658600,600.338318 337.261505,599.167725 337.983826,599.088684 
	C362.571381,596.397766 386.278290,590.221497 409.317322,581.326416 
	C436.791840,570.718750 462.355652,556.710938 485.277008,538.146484 
	C494.880371,530.368591 504.873718,522.828918 513.253723,513.841919 
	C525.243225,500.983826 536.579224,487.386078 547.004456,473.228027 
	C565.648987,447.907623 578.942871,419.744202 588.117371,389.663849 
	C593.383606,372.397614 597.619263,354.912354 599.064453,336.846985 
	C599.120178,336.150177 599.781860,335.501831 600.580566,334.915466 
	C601.000000,423.593567 601.000000,512.187134 601.000000,601.000000 
	C512.979248,601.000000 424.958282,601.000000 336.468658,601.000000 
z"/>
<path fill="#000000" opacity="1.000000" stroke="none" 
	d="
M1.000001,336.468658 
	C1.661785,336.660919 2.832505,337.266266 2.911676,337.990845 
	C5.598160,362.577820 11.839873,386.257965 20.656092,409.326019 
	C30.337160,434.656891 43.135216,458.308868 59.545696,479.847137 
	C68.419769,491.494110 77.626053,503.117096 88.155746,513.214600 
	C100.831932,525.370483 114.588501,536.552185 128.743103,546.980469 
	C154.064041,565.635559 182.232559,578.929382 212.315475,588.111633 
	C229.587585,593.383606 247.080292,597.618652 265.152863,599.064575 
	C265.849762,599.120361 266.498199,599.781921 267.084595,600.580627 
	C178.406433,601.000000 89.812866,601.000000 1.000000,601.000000 
	C1.000000,512.979248 1.000000,424.958282 1.000001,336.468658 
z"/>
<path fill="#FFFFFF" opacity="1.000000" stroke="none" 
	d="
M382.839935,12.507742 
	C417.289032,21.403976 448.671814,36.754410 477.595703,57.972424 
	C477.902649,135.107483 478.034119,212.094589 477.771667,289.080353 
	C477.714752,305.771576 474.786377,322.221405 469.508575,338.136292 
	C454.211395,384.264252 423.158600,415.846466 377.749725,431.490112 
	C323.355072,450.229370 268.103241,450.087677 214.706329,427.668091 
	C162.941727,405.933899 133.787613,365.451965 126.108292,309.875671 
	C124.519585,298.378052 124.115807,286.643097 124.088120,275.015350 
	C123.916771,203.026535 124.008881,131.037079 124.043930,58.589523 
	C141.573380,45.179104 160.191879,34.127941 180.401062,25.988850 
	C192.838425,20.979799 205.549896,16.651369 218.532928,12.065040 
	C218.974030,14.276936 219.061005,16.441122 219.061172,18.605316 
	C219.068024,105.428833 218.875763,192.253235 219.278091,279.074890 
	C219.336853,291.757629 221.057510,304.710999 224.052856,317.042725 
	C229.937195,341.268311 246.225494,356.278473 269.943359,363.166718 
	C290.410004,369.110718 311.137573,369.071655 331.597931,363.508850 
	C359.518738,355.917664 374.492157,336.214508 379.793030,308.694122 
	C381.607941,299.271820 382.454834,289.521088 382.476837,279.917511 
	C382.675781,193.094452 382.592560,106.270737 382.597351,19.447212 
	C382.597473,17.281965 382.658142,15.116723 382.839935,12.507742 
z"/>
</svg>