<?xml version="1.0" encoding="UTF-8"?>
<svg xmlns="http://www.w3.org/2000/svg" xmlns:svg="http://www.w3.org/2000/svg" xmlns:sodipodi="http://sodipodi.sourceforge.net/DTD/sodipodi-0.dtd" xmlns:rdf="http://www.w3.org/1999/02/22-rdf-syntax-ns#" xmlns:inkscape="http://www.inkscape.org/namespaces/inkscape" xmlns:dc="http://purl.org/dc/elements/1.1/" xmlns:cc="http://creativecommons.org/ns#" version="1.1" viewBox="0 0 570.4 570.4">
  <defs>
    <style>
      .cls-1, .cls-2 {
        fill: none;
      }

      .cls-3 {
        stroke-miterlimit: 11.3;
        stroke-width: 1.2px;
      }

      .cls-3, .cls-2 {
        stroke: #000;
      }

      .cls-4 {
        fill: #fff;
      }

      .cls-2 {
        stroke-width: 5px;
      }
    </style>
  </defs>
  <!-- Generator: Adobe Illustrator 28.7.0, SVG Export Plug-In . SVG Version: 1.2.0 Build 136)  -->
  <g>
    <g id="svg8">
      <sodipodi:namedview id="base" bordercolor="#666666" borderopacity="1.0" inkscape:current-layer="layer1" inkscape:cx="184.71274" inkscape:cy="416.19233" inkscape:document-rotation="0" inkscape:document-units="mm" inkscape:pageopacity="0.0" inkscape:pageshadow="2" inkscape:snap-bbox="true" inkscape:window-height="1051" inkscape:window-maximized="1" inkscape:window-width="1842" inkscape:window-x="69" inkscape:window-y="-9" inkscape:zoom="0.39629945" pagecolor="#ffffff" showgrid="false"/>
      <g id="layer1" inkscape:groupmode="layer" inkscape:label="Layer 1">
        <circle id="path854" class="cls-3" cx="285.2" cy="285.2" r="284.6"/>
        <path id="path862" class="cls-4" d="M128.2,126.9c-12,12.6-21.9,23.2-22,23.4-.1.3,10.7,10.9,24,23.5,13.3,12.7,24.9,23.8,25.7,24.5l1.5,1.4-2.7,4.5c-23.7,39.2-28.6,86.4-13.7,129.8,2.8,8.2,7.6,18.7,11.7,25.6,2,3.4,2.9,5.6,2.7,6s-12.3,13.2-26.9,28.5c-14.6,15.2-26.5,27.9-26.7,28.1-.1.3,40.8,39.8,44.7,43l1.5,1.3,23.1-24.1c12.7-13.3,24.6-25.8,26.4-27.7l3.4-3.4,3.2,2c16.3,10.4,35.4,17.6,56.5,21.4,10.6,1.9,30.8,2.4,42.1,1,21.8-2.5,43.4-9.8,61.1-20.5l4.6-2.8,4.9,4.8c10.7,10.4,50.7,48.4,51.1,48.6.4.2,44.3-45.7,44.2-46.3-.1-.3-30.2-29.2-48.6-46.5l-6.1-5.8,2.8-4.6c23.5-39.1,28.4-86.5,13.2-130.2-2.2-6.4-8.9-20.8-12.8-27.4l-1.9-3.3,25.7-26.9c14.1-14.7,25.6-27,25.5-27.3-.4-1-45.4-43.5-46-43.5s-11.7,11.5-25.2,25.7c-13.5,14.1-24.7,25.7-25,25.8-.2.1-1.5-.5-2.7-1.4-3.4-2.3-12-7-16.8-9.2-14.6-6.7-28.2-10.8-44-13.1-8.2-1.2-32.8-1.4-40.4-.3-18.2,2.6-33.1,7.1-48.3,14.7-4.4,2.1-9.5,4.9-11.5,6.1l-3.6,2.2-4.1-4c-2.2-2.2-12.2-11.6-22.1-21.1-9.9-9.4-20-19-22.4-21.4l-4.4-4.3-21.7,23.2ZM296.1,192.1c15.9,1.9,30.1,7.3,43.2,16.5,6.7,4.7,16.7,14.7,21.4,21.4,26.7,37.8,21.6,89.2-12,120.7-28.7,26.8-70.2,32.8-105.1,15-25.2-12.9-43-36.5-48.7-64.8-1.8-9-1.8-25.8,0-34.7,1.7-8.8,4-15.1,8.3-23.9,17.2-34.6,54.5-54.8,92.9-50.2h0Z"/>
      </g>
      <g>
        <circle class="cls-4" cx="445.4" cy="444.8" r="125"/>
        <rect class="cls-1" x="350.9" y="354.8" width="200" height="200"/>
        <circle class="cls-2" cx="445.4" cy="444.8" r="122.5"/>
        <path d="M498.6,488c-3.5-3.5-8.1-5.3-12.7-5.6h0c-17.6-.6-20.1-15.2-20.1-18.9s2.8-18.1,20.1-18.7c4.6-.3,9.1-2.1,12.7-5.6,7.8-7.6,8-20.1.4-28-3.9-4-9-6-14.1-6h-.1c-4.9,0-9.9,1.9-13.7,5.6-4.2,4.1-5.9,9.6-5.9,15s-3.1,17.8-17.8,17.8-11.3,1.6-15.5,5.9c-.2.2-.3.4-.5.6h0c-1,1-1.2.1-1.2-.4v-79.6c0-1.5-1.2-2.7-2.7-2.7h-27.5c-1.5,0-2.7,1.2-2.7,2.7v146c0,1.5,1.2,2.7,2.7,2.7h27.5c1.5,0,2.7-1.2,2.7-2.7v-38.8c0-.6.2-1.4,1.2-.4h0c.2.1.3.3.5.5,4.2,4.3,9.9,5.9,15.5,5.9,14.6,0,17.8,14.7,17.8,17.8s1.8,10.9,5.9,15c3.8,3.7,8.8,5.6,13.8,5.6h0c5.1,0,10.3-2,14.2-6,3.7-3.8,5.6-8.8,5.6-13.7h0c0-5.2-2-10.4-6-14.2"/>
      </g>
    </g>
  </g>
</svg>