<?xml version="1.0" encoding="UTF-8"?>
<svg xmlns="http://www.w3.org/2000/svg" version="1.1" viewBox="0 0 500 500">
  <defs>
    <style>
      .cls-1, .cls-2 {
        fill: none;
      }

      .cls-3, .cls-4 {
        fill-rule: evenodd;
      }

      .cls-3, .cls-5 {
        fill: #fff;
      }

      .cls-4 {
        fill: #50af95;
      }

      .cls-2 {
        stroke: #000;
        stroke-width: 5px;
      }
    </style>
  </defs>
  <!-- Generator: Adobe Illustrator 28.7.0, SVG Export Plug-In . SVG Version: 1.2.0 Build 136)  -->
  <g>
    <g id="Layer_1">
      <g>
        <path class="cls-4" d="M96.3,51L7.8,236.8c-.7,1.4-.4,3.1.8,4.2l238.9,228.9c1.4,1.4,3.6,1.4,5,0l238.9-228.9c1.1-1.1,1.5-2.8.8-4.2l-88.5-185.8c-.6-1.3-1.9-2.1-3.3-2.1H99.6c-1.4,0-2.7.8-3.3,2.1h0Z"/>
        <path class="cls-3" d="M280.7,255.8h0c-1.7.1-10.6.7-30.3.7s-26.9-.5-30.8-.7h0c-60.8-2.7-106.1-13.2-106.1-25.9s45.3-23.2,106.1-25.9v41.3c4,.3,15.4,1,31.1,1s28.3-.8,30-.9v-41.3c60.6,2.7,105.9,13.3,105.9,25.9s-45.2,23.2-105.9,25.9h0ZM280.7,199.7v-37h84.6v-56.4h-230.4v56.4h84.6v37c-68.8,3.2-120.5,16.8-120.5,33.1s51.7,29.9,120.5,33.1v118.5h61.1v-118.5c68.6-3.2,120.2-16.8,120.2-33.1s-51.6-29.9-120.2-33.1h0ZM280.7,199.7h0Z"/>
      </g>
      <g>
        <circle class="cls-5" cx="375" cy="375" r="125"/>
        <rect class="cls-1" x="280.5" y="285" width="200" height="200"/>
        <circle class="cls-2" cx="375" cy="375" r="122.5"/>
        <path d="M428.2,418.2c-3.5-3.5-8.1-5.3-12.7-5.6h0c-17.6-.6-20.1-15.2-20.1-18.9s2.8-18.1,20.1-18.7c4.6-.3,9.1-2.1,12.7-5.6,7.8-7.6,8-20.1.4-28-3.9-4-9-6-14.1-6h-.1c-4.9,0-9.9,1.9-13.7,5.6-4.2,4.1-5.9,9.6-5.9,15s-3.1,17.8-17.8,17.8-11.3,1.6-15.5,5.9c-.2.2-.3.4-.5.6h0c-1,1-1.2.1-1.2-.4v-79.6c0-1.5-1.2-2.7-2.7-2.7h-27.5c-1.5,0-2.7,1.2-2.7,2.7v146c0,1.5,1.2,2.7,2.7,2.7h27.5c1.5,0,2.7-1.2,2.7-2.7v-38.8c0-.6.2-1.4,1.2-.4h0c.2.1.3.3.5.5,4.2,4.3,9.9,5.9,15.5,5.9,14.6,0,17.8,14.7,17.8,17.8s1.8,10.9,5.9,15c3.8,3.7,8.8,5.6,13.8,5.6h0c5.1,0,10.3-2,14.2-6,3.7-3.8,5.6-8.8,5.6-13.7h0c0-5.2-2-10.4-6-14.2"/>
      </g>
    </g>
  </g>
</svg>