<svg width="400" height="400" viewBox="0 0 400 400" fill="none" xmlns="http://www.w3.org/2000/svg">
<g clip-path="url(#clip0_864_2)">
<path d="M200 400C310.457 400 400 310.457 400 200C400 89.543 310.457 0 200 0C89.543 0 0 89.543 0 200C0 310.457 89.543 400 200 400Z" fill="#120701"/>
<g clip-path="url(#clip1_864_2)">
<path fill-rule="evenodd" clip-rule="evenodd" d="M209.017 80.3613C251.348 80.3613 288.544 102.344 309.813 135.515C310.957 138.666 310.409 142.163 309.071 145.618C307.101 150.7 303.344 155.724 298.957 159.977C294.126 164.659 288.5 168.436 283.41 170.148C281.522 170.784 279.737 171.141 278.155 170.995C277.345 170.92 276.593 170.713 276.026 170.171C275.52 169.687 275.004 169.294 274.487 168.977C274.127 168.58 273.758 168.187 273.381 167.799L272.934 167.345L241.096 135.507C232.333 126.744 220.878 122.316 209.394 122.221C197.883 122.126 186.343 126.385 177.455 134.998L176.953 135.492L145.114 167.331C136.351 176.093 131.923 187.549 131.828 199.033C131.732 210.544 135.992 222.084 144.604 230.972L145.098 231.474L176.938 263.313C185.7 272.076 197.155 276.504 208.64 276.599C220.151 276.695 231.691 272.435 240.578 263.823L241.081 263.329L272.151 232.254C274.563 231.073 277.871 231.951 281.226 233.232C286.818 235.37 292.845 239.48 297.917 244.34C302.526 248.757 306.386 253.802 308.209 258.662C309.319 261.62 309.786 264.575 308.206 266.964C286.698 298.765 250.299 319.672 209.017 319.672C175.975 319.672 146.061 306.279 124.408 284.626C102.754 262.973 89.3613 233.059 89.3613 200.017C89.3613 166.975 102.754 137.061 124.408 115.408C146.061 93.7542 175.975 80.3613 209.017 80.3613Z" stroke="#F77C19" stroke-width="10.7227"/>
<path fill-rule="evenodd" clip-rule="evenodd" d="M216.09 164.658L244.378 192.946C248.284 196.852 248.284 203.184 244.378 207.09L216.09 235.378C212.184 239.284 205.852 239.284 201.946 235.378L173.658 207.09C169.752 203.184 169.752 196.852 173.658 192.946L201.946 164.658C205.852 160.752 212.184 160.752 216.09 164.658ZM209.018 171.73L180.73 200.018L209.018 228.306L237.306 200.018L209.018 171.73Z" fill="#F77C19"/>
</g>
</g>
<defs>
<clipPath id="clip0_864_2">
<rect width="400" height="400" fill="white"/>
</clipPath>
<clipPath id="clip1_864_2">
<rect width="232" height="250.034" fill="white" transform="translate(84 75)"/>
</clipPath>
</defs>
</svg>
