<svg width="1024" height="1024" viewBox="0 0 1024 1024" fill="none" xmlns="http://www.w3.org/2000/svg">
<circle cx="512" cy="512" r="445" stroke="none" fill="white" />
<path fill-rule="evenodd" clip-rule="evenodd" d="M512 955.733C757.067 955.733 955.733 757.067 955.733 512C955.733 266.933 757.067 68.2667 512 68.2667C266.933 68.2667 68.2667 266.933 68.2667 512C68.2667 757.067 266.933 955.733 512 955.733ZM512 1024C794.77 1024 1024 794.77 1024 512C1024 229.23 794.77 0 512 0C229.23 0 0 229.23 0 512C0 794.77 229.23 1024 512 1024Z" fill="#27201D"/>
<path d="M607.623 288.393C611.491 283.642 616.362 279.805 621.887 277.155C627.411 274.506 633.453 273.111 639.579 273.068C644.667 273.091 649.7 274.121 654.387 276.099C659.075 278.076 663.325 280.962 666.892 284.59C670.459 288.218 673.273 292.516 675.171 297.236C677.069 301.957 678.014 307.006 677.951 312.094V709.176C678.369 714.5 677.681 719.854 675.93 724.9C674.18 729.947 671.404 734.577 667.778 738.498C664.152 742.42 659.754 745.55 654.86 747.69C649.966 749.83 644.683 750.935 639.342 750.935C634.001 750.935 628.717 749.83 623.823 747.69C618.93 745.55 614.532 742.42 610.906 738.498C607.28 734.577 604.504 729.947 602.753 724.9C601.002 719.854 600.315 714.5 600.733 709.176V410.815L329.398 735.133C325.852 739.216 321.486 742.505 316.583 744.788C311.681 747.07 306.353 748.294 300.946 748.379C291.318 748.286 282.11 744.42 275.302 737.612C268.493 730.803 264.627 721.596 264.534 711.967C264.471 703.272 267.527 694.843 273.147 688.208L607.623 288.393Z" fill="#27201D"/>
</svg>
