<?xml version="1.0" standalone="no"?>
<!DOCTYPE svg PUBLIC "-//W3C//DTD SVG 20010904//EN"
 "http://www.w3.org/TR/2001/REC-SVG-20010904/DTD/svg10.dtd">
<svg version="1.0" xmlns="http://www.w3.org/2000/svg"
 width="88.000000pt" height="88.000000pt" viewBox="0 0 88.000000 88.000000"
 preserveAspectRatio="xMidYMid meet">
<metadata>
Created by potrace 1.16, written by Peter Selinger 2001-2019
</metadata>
<g transform="translate(0.000000,88.000000) scale(0.100000,-0.100000)"
fill="#000000" stroke="none">
<path d="M194 677 c-3 -8 -4 -45 -2 -83 l3 -69 80 0 80 0 0 80 0 80 -78 3
c-59 2 -79 0 -83 -11z"/>
<path d="M524 677 c-3 -8 -4 -45 -2 -83 l3 -69 80 0 80 0 0 80 0 80 -78 3
c-59 2 -79 0 -83 -11z"/>
<path d="M360 440 l0 -80 80 0 80 0 0 80 0 80 -80 0 -80 0 0 -80z"/>
<path d="M194 347 c-3 -8 -4 -45 -2 -83 l3 -69 80 0 80 0 0 80 0 80 -78 3
c-59 2 -79 0 -83 -11z"/>
<path d="M524 347 c-3 -8 -4 -45 -2 -83 l3 -69 80 0 80 0 0 80 0 80 -78 3
c-59 2 -79 0 -83 -11z"/>
</g>
</svg>
