<?xml version="1.0" encoding="UTF-8" standalone="no"?>
<!-- Created with Inkscape (http://www.inkscape.org/) -->

<svg
   width="300"
   height="300"
   viewBox="0 0 79.374998 79.375002"
   version="1.1"
   id="svg5"
   inkscape:version="1.1.1 (3bf5ae0, 2021-09-20)"
   sodipodi:docname="odin.svg"
   xmlns:inkscape="http://www.inkscape.org/namespaces/inkscape"
   xmlns:sodipodi="http://sodipodi.sourceforge.net/DTD/sodipodi-0.dtd"
   xmlns="http://www.w3.org/2000/svg"
   xmlns:svg="http://www.w3.org/2000/svg">
  <sodipodi:namedview
     id="namedview7"
     pagecolor="#505050"
     bordercolor="#ffffff"
     borderopacity="1"
     inkscape:pageshadow="0"
     inkscape:pageopacity="0"
     inkscape:pagecheckerboard="1"
     inkscape:document-units="mm"
     showgrid="false"
     inkscape:zoom="1.2810466"
     inkscape:cx="113.57901"
     inkscape:cy="197.88508"
     inkscape:window-width="1846"
     inkscape:window-height="1136"
     inkscape:window-x="0"
     inkscape:window-y="0"
     inkscape:window-maximized="1"
     inkscape:current-layer="layer1"
     units="px" />
  <defs
     id="defs2" />
  <g
     inkscape:label="Layer 1"
     inkscape:groupmode="layer"
     id="layer1">
    <path
       style="fill:#000000;stroke-width:0.068263"
       d="M 37.970642,73.328536 C 26.793957,72.568799 16.760418,66.442144 10.951456,56.830144 10.198448,55.58415 9.0044959,53.158073 8.4570749,51.76163 6.2289059,46.07766 5.5623749,39.838472 6.5391459,33.808435 7.5037459,27.853514 10.072564,22.194078 13.918704,17.550303 l 0.546647,-0.660013 7.144887,7.145129 7.144887,7.14513 v 9.983358 9.983355 h 9.983603 9.983603 l 6.928581,6.93281 6.928578,6.932809 -0.238923,0.205824 c -5.182899,4.464904 -11.855508,7.313863 -18.772349,8.015097 -1.277171,0.129479 -4.327069,0.1811 -5.597576,0.09473 z M 58.944352,54.748014 52.032841,47.83625 v -9.983351 -9.983355 h -9.983601 -9.9836 l -7.147834,-7.150558 -7.147836,-7.150559 0.488375,-0.409578 c 4.408482,-3.6971973 9.644648,-6.2233743 15.206934,-7.3365483 12.712727,-2.544186 25.566561,2.216828 33.629593,12.4562803 2.401431,3.049639 4.240719,6.470359 5.487305,10.205331 3.546989,10.627352 1.693434,22.142779 -5.015948,31.162104 -0.65595,0.881785 -1.589386,2.013762 -1.660561,2.013762 -0.02739,0 -3.159984,-3.110294 -6.961316,-6.911764 z"
       id="path836" />
  </g>
</svg>
