<svg width="320" height="320" viewBox="0 0 320 320" fill="none" xmlns="http://www.w3.org/2000/svg">
<mask id="mask0_2091_233873" style="mask-type:alpha" maskUnits="userSpaceOnUse" x="0" y="0" width="320" height="320">
<circle cx="160" cy="160" r="160" fill="#C4C4C4"/>
</mask>
<g mask="url(#mask0_2091_233873)">
<rect x="-63" y="-63" width="445.2" height="445.2" fill="url(#paint0_radial_2091_233873)"/>
<mask id="mask1_2091_233873" style="mask-type:alpha" maskUnits="userSpaceOnUse" x="-63" y="-63" width="446" height="446">
<rect x="-63" y="-63" width="445.2" height="445.2" fill="url(#paint1_radial_2091_233873)"/>
</mask>
<g mask="url(#mask1_2091_233873)">
<g opacity="0.5" filter="url(#filter0_f_2091_233873)">
<ellipse cx="159.883" cy="351.575" rx="471.301" ry="340.686" fill="url(#paint2_radial_2091_233873)"/>
</g>
</g>
<path fill-rule="evenodd" clip-rule="evenodd" d="M267 246.31C267 232.576 219.319 221.442 160.501 221.442C101.683 221.442 54.0021 232.576 54.0021 246.31V263.609H54.0053C54.0018 263.695 54 263.782 54 263.869C54 278.057 101.682 289.558 160.501 289.558C219.319 289.558 267.001 278.057 267.001 263.869C267.001 263.782 266.999 263.695 266.996 263.609H267V246.31Z" fill="url(#paint3_radial_2091_233873)"/>
<g filter="url(#filter1_i_2091_233873)">
<path d="M267 246.31C267 260.044 219.319 271.178 160.501 271.178C101.683 271.178 54.002 260.044 54.002 246.31C54.002 232.576 101.683 221.442 160.501 221.442C219.319 221.442 267 232.576 267 246.31Z" fill="#A56CCC"/>
<path d="M267 246.31C267 260.044 219.319 271.178 160.501 271.178C101.683 271.178 54.002 260.044 54.002 246.31C54.002 232.576 101.683 221.442 160.501 221.442C219.319 221.442 267 232.576 267 246.31Z" fill="url(#paint4_radial_2091_233873)" fill-opacity="0.9"/>
</g>
<g opacity="0.8" filter="url(#filter2_f_2091_233873)">
<ellipse cx="160" cy="256" rx="195" ry="74" fill="url(#paint5_radial_2091_233873)"/>
</g>
<mask id="mask2_2091_233873" style="mask-type:alpha" maskUnits="userSpaceOnUse" x="-40" y="-35" width="399" height="290">
<path d="M159.5 255C269.681 255 359 202.617 359 138V-35H-40V138C-40 202.617 49.3192 255 159.5 255Z" fill="#C4C4C4"/>
</mask>
<g mask="url(#mask2_2091_233873)">
<path fill-rule="evenodd" clip-rule="evenodd" d="M160.015 40C179.576 39.9851 198.811 44.9826 215.87 54.5114C232.928 64.0402 247.236 77.7797 257.416 94.4076C241.677 94.4076 226.582 100.632 215.452 111.712C204.322 122.792 198.07 137.82 198.07 153.489C198.07 169.158 204.322 184.186 215.452 195.266C226.582 206.346 241.677 212.57 257.416 212.57C247.062 229.484 232.441 243.405 215.007 252.951C197.574 262.496 177.934 267.334 158.041 266.982C138.148 266.631 118.693 261.103 101.611 250.947C84.5287 240.792 70.4134 226.363 60.6678 209.094C50.9222 191.826 45.8858 172.319 46.059 152.512C46.2322 132.705 51.6091 113.288 61.6552 96.1914C71.7013 79.0943 86.0669 64.9121 103.324 55.0544C120.582 45.1967 140.13 40.0066 160.026 40H160.015Z" fill="#FFC780"/>
<path fill-rule="evenodd" clip-rule="evenodd" d="M257.416 94.407C241.676 94.407 226.581 100.632 215.452 111.712C204.322 122.792 198.069 137.819 198.069 153.488C198.069 169.158 204.322 184.185 215.452 195.265C226.581 206.345 241.676 212.57 257.416 212.57L257.041 213.129C245.448 223.59 231.051 230.47 215.601 232.932C200.152 235.394 184.317 233.333 170.023 226.998C155.729 220.664 143.592 210.329 135.091 197.253C126.59 184.176 122.09 168.922 122.139 153.346C122.188 137.769 126.784 122.543 135.368 109.52C143.952 96.4974 156.153 86.2391 170.487 79.9941C184.82 73.7491 200.668 71.7867 216.102 74.3455C231.535 76.9044 245.889 83.8744 257.416 94.407Z" fill="url(#paint6_linear_2091_233873)"/>
</g>
<mask id="mask3_2091_233873" style="mask-type:alpha" maskUnits="userSpaceOnUse" x="46" y="40" width="212" height="215">
<path fill-rule="evenodd" clip-rule="evenodd" d="M221.211 249.295C201.779 252.998 181.038 255 159.5 255C138.555 255 118.365 253.107 99.3979 249.597C83.3085 239.531 69.9893 225.611 60.6678 209.094C50.9222 191.826 45.8858 172.319 46.059 152.512C46.2322 132.705 51.6091 113.288 61.6552 96.1914C71.7013 79.0943 86.0669 64.9121 103.324 55.0544C120.582 45.1967 140.13 40.0066 160.026 40H160.015C179.576 39.9851 198.811 44.9826 215.87 54.5114C232.928 64.0402 247.236 77.7797 257.416 94.4076C241.677 94.4076 226.582 100.632 215.452 111.712C204.322 122.792 198.07 137.82 198.07 153.489C198.07 169.158 204.322 184.186 215.452 195.266C226.582 206.346 241.677 212.57 257.416 212.57C248.315 227.437 235.917 239.992 221.211 249.295Z" fill="#FFC780"/>
</mask>
<g mask="url(#mask3_2091_233873)">
<g filter="url(#filter3_f_2091_233873)">
<path d="M160.001 255C181.539 255 202.28 252.998 221.712 249.295C236.418 239.992 248.816 227.437 257.917 212.571L326 97V-17.5H-6V97L63.2129 212.571C72.3943 227.567 84.951 240.245 99.8987 249.597C118.865 253.107 139.056 255 160.001 255Z" fill="url(#paint7_radial_2091_233873)"/>
</g>
<g opacity="0.5">
<g filter="url(#filter4_f_2091_233873)">
<path d="M160.001 255C182.447 255 204.062 253.002 224.314 249.305C239.641 240.019 252.561 227.487 262.046 212.648L333 97.2899V-17H-13V97.2899L59.1315 212.648C68.7 227.618 81.7863 240.272 97.3643 249.607C117.131 253.111 138.173 255 160.001 255Z" fill="url(#paint8_radial_2091_233873)"/>
</g>
</g>
</g>
</g>
<defs>
<filter id="filter0_f_2091_233873" x="-426.557" y="-104.249" width="1172.88" height="911.648" filterUnits="userSpaceOnUse" color-interpolation-filters="sRGB">
<feFlood flood-opacity="0" result="BackgroundImageFix"/>
<feBlend mode="normal" in="SourceGraphic" in2="BackgroundImageFix" result="shape"/>
<feGaussianBlur stdDeviation="57.5693" result="effect1_foregroundBlur_2091_233873"/>
</filter>
<filter id="filter1_i_2091_233873" x="54.002" y="221.442" width="212.998" height="49.7358" filterUnits="userSpaceOnUse" color-interpolation-filters="sRGB">
<feFlood flood-opacity="0" result="BackgroundImageFix"/>
<feBlend mode="normal" in="SourceGraphic" in2="BackgroundImageFix" result="shape"/>
<feColorMatrix in="SourceAlpha" type="matrix" values="0 0 0 0 0 0 0 0 0 0 0 0 0 0 0 0 0 0 127 0" result="hardAlpha"/>
<feOffset/>
<feGaussianBlur stdDeviation="3"/>
<feComposite in2="hardAlpha" operator="arithmetic" k2="-1" k3="1"/>
<feColorMatrix type="matrix" values="0 0 0 0 0.396078 0 0 0 0 0.184314 0 0 0 0 0.533333 0 0 0 0.6 0"/>
<feBlend mode="normal" in2="shape" result="effect1_innerShadow_2091_233873"/>
</filter>
<filter id="filter2_f_2091_233873" x="-145" y="72" width="610" height="368" filterUnits="userSpaceOnUse" color-interpolation-filters="sRGB">
<feFlood flood-opacity="0" result="BackgroundImageFix"/>
<feBlend mode="normal" in="SourceGraphic" in2="BackgroundImageFix" result="shape"/>
<feGaussianBlur stdDeviation="55" result="effect1_foregroundBlur_2091_233873"/>
</filter>
<filter id="filter3_f_2091_233873" x="-7" y="-18.5" width="334" height="274.5" filterUnits="userSpaceOnUse" color-interpolation-filters="sRGB">
<feFlood flood-opacity="0" result="BackgroundImageFix"/>
<feBlend mode="normal" in="SourceGraphic" in2="BackgroundImageFix" result="shape"/>
<feGaussianBlur stdDeviation="0.5" result="effect1_foregroundBlur_2091_233873"/>
</filter>
<filter id="filter4_f_2091_233873" x="-23" y="-27" width="366" height="292" filterUnits="userSpaceOnUse" color-interpolation-filters="sRGB">
<feFlood flood-opacity="0" result="BackgroundImageFix"/>
<feBlend mode="normal" in="SourceGraphic" in2="BackgroundImageFix" result="shape"/>
<feGaussianBlur stdDeviation="5" result="effect1_foregroundBlur_2091_233873"/>
</filter>
<radialGradient id="paint0_radial_2091_233873" cx="0" cy="0" r="1" gradientUnits="userSpaceOnUse" gradientTransform="translate(159.6 159.6) rotate(90) scale(222.6)">
<stop stop-color="#311810"/>
<stop offset="1" stop-color="#1E0E0A"/>
</radialGradient>
<radialGradient id="paint1_radial_2091_233873" cx="0" cy="0" r="1" gradientUnits="userSpaceOnUse" gradientTransform="translate(159.6 159.6) rotate(90) scale(222.6)">
<stop stop-color="#311810"/>
<stop offset="1" stop-color="#1E0E0A"/>
</radialGradient>
<radialGradient id="paint2_radial_2091_233873" cx="0" cy="0" r="1" gradientUnits="userSpaceOnUse" gradientTransform="translate(159.883 351.575) rotate(90) scale(340.686 471.301)">
<stop stop-color="#A744F4"/>
<stop offset="0.411458" stop-color="#B2B1EE" stop-opacity="0.46"/>
<stop offset="1" stop-color="#B1C2EE" stop-opacity="0"/>
</radialGradient>
<radialGradient id="paint3_radial_2091_233873" cx="0" cy="0" r="1" gradientUnits="userSpaceOnUse" gradientTransform="translate(159.961 265.5) rotate(90) scale(35.9514 375.688)">
<stop stop-color="#652F88"/>
<stop offset="0.561253" stop-color="#8E46BF"/>
</radialGradient>
<radialGradient id="paint4_radial_2091_233873" cx="0" cy="0" r="1" gradientUnits="userSpaceOnUse" gradientTransform="translate(160.501 246.31) rotate(90) scale(24.8678 106.499)">
<stop offset="0.0710042" stop-color="white"/>
<stop offset="0.854672" stop-color="white" stop-opacity="0"/>
</radialGradient>
<radialGradient id="paint5_radial_2091_233873" cx="0" cy="0" r="1" gradientUnits="userSpaceOnUse" gradientTransform="translate(160 256) rotate(90) scale(74 195)">
<stop stop-color="white"/>
<stop offset="0.411458" stop-color="white" stop-opacity="0.46"/>
<stop offset="1" stop-color="white" stop-opacity="0"/>
</radialGradient>
<linearGradient id="paint6_linear_2091_233873" x1="189.771" y1="233.964" x2="189.771" y2="73.265" gradientUnits="userSpaceOnUse">
<stop stop-color="#FFC780"/>
<stop offset="1" stop-color="#964B48"/>
</linearGradient>
<radialGradient id="paint7_radial_2091_233873" cx="0" cy="0" r="1" gradientUnits="userSpaceOnUse" gradientTransform="translate(160 -75.1389) rotate(90) scale(330.139 399.718)">
<stop offset="0.900758" stop-color="#FFE1BC" stop-opacity="0"/>
<stop offset="1" stop-color="#FFEDED" stop-opacity="0.8"/>
</radialGradient>
<radialGradient id="paint8_radial_2091_233873" cx="0" cy="0" r="1" gradientUnits="userSpaceOnUse" gradientTransform="translate(160 -59.422) rotate(90) scale(314.422 399.963)">
<stop offset="0.153071" stop-color="#B84BFF" stop-opacity="0"/>
<stop offset="1" stop-color="#B84BFF"/>
</radialGradient>
</defs>
</svg>
