<?xml version="1.0" encoding="utf-8"?>
<!-- Generator: Adobe Illustrator 25.2.3, SVG Export Plug-In . SVG Version: 6.00 Build 0)  -->
<svg version="1.1" id="Layer_1" xmlns="http://www.w3.org/2000/svg" xmlns:xlink="http://www.w3.org/1999/xlink" x="0px" y="0px"
	 viewBox="0 0 731 658" style="enable-background:new 0 0 731 658;" xml:space="preserve">
<style type="text/css">
	.st0{fill:url(#SVGID_1_);}
</style>
<g>
	<linearGradient id="SVGID_1_" gradientUnits="userSpaceOnUse" x1="407.3563" y1="626.8241" x2="323.6433" y2="31.1759">
		<stop  offset="0" style="stop-color:#31A8FA"/>
		<stop  offset="0.3771" style="stop-color:#31A8FA"/>
		<stop  offset="0.4767" style="stop-color:#5B85FB"/>
		<stop  offset="0.7003" style="stop-color:#C62DFD"/>
		<stop  offset="0.7374" style="stop-color:#D81EFD"/>
		<stop  offset="0.825" style="stop-color:#AE1CDB"/>
		<stop  offset="1" style="stop-color:#511790"/>
	</linearGradient>
	<path class="st0" d="M596.3,399.6c0,63.7-25.8,121.4-67.6,163.2c-41.8,41.8-99.5,67.6-163.2,67.6c-63.7,0-121.4-25.8-163.2-67.6
		c-41.8-41.8-67.6-99.5-67.6-163.2c0-5.3,2.1-10,5.6-13.4c3.4-3.4,8.2-5.6,13.4-5.6h70.6c5.3,0,10,2.1,13.4,5.6
		c3.4,3.4,5.6,8.2,5.6,13.4v0c0,33.7,13.7,64.3,35.8,86.4l0.9,0.9l0.1,0.1l0.1,0.1c22,21.5,52.1,34.7,85.3,34.7h4.3v-0.2
		c32.1-1.1,61-14.5,82.1-35.6l0,0l0.1-0.1l0,0c22-22,35.7-52.6,35.7-86.4c0-18.7-4.2-36.7-11.9-52.8c-7.8-16.3-19.3-30.9-33.6-42.4
		c-7.6-6.1-13.6-13.4-17.9-21.8c-4.3-8.3-6.7-17.3-7.2-27.1c-0.8-13.6-6.8-25.8-16.1-34.6c-9.2-8.7-21.8-14.1-35.5-14.1
		c-14.3,0-27.2,5.7-36.5,15l-0.1,0.1c-9.3,9.3-15,22.2-15,36.5c0,14.3,5.8,27.2,15.1,36.6l3,3l0.2-0.2c9,7.6,20.7,12.3,33.4,12.3h0
		c24.6,0,47,10,63.3,26.3l0,0l0,0l0,0l0.1,0.1c16.2,16.3,26.1,38.6,26.1,63.2c0,24.6-10,47-26.3,63.3l0,0l0,0l-0.1,0.1l0,0l0,0
		c-16.3,16.2-38.6,26.2-63.2,26.2c-23.8,0-45.4-9.3-61.4-24.5c-16.2-15.3-26.6-36.5-27.9-60.1c-0.2-4.4-1.2-8.5-3.1-12
		c-1.8-3.5-4.5-6.7-7.9-9.4c-18.7-15.1-33.7-34.2-44-55.6c-10.2-21.3-15.8-44.9-15.8-69.1c0-44.1,17.9-84.1,46.9-113.2l0,0l0.1-0.1
		l0.1-0.1c29-29,69-46.9,113.1-46.9c44.1,0,84.1,17.9,113.2,46.9l0,0l0,0l0.1,0.1l0.1,0.1c23.9,24,40.3,55.4,45.3,90.4l0.5,3.7h32.9
		l-0.6-4.8c-5.4-43.7-25.4-82.9-55-112.5C467,87.1,418.7,65.6,365.5,65.6c-53.2,0-101.5,21.6-136.4,56.5
		c-34.9,34.9-56.5,83.1-56.5,136.4c0,12.8,1.3,25.4,3.7,37.8c2.5,12.5,1.9,11.8,6.7,23.4l0,0c1,2.4,1.5,4.8,1.5,7.3
		c0,7.4-4.4,14.5-11.7,17.5c-2.4,1-4.8,1.5-7.2,1.5c-7.4,0-14.5-4.4-17.5-11.7l0,0c-5.9-14.1-6-15.8-9-30.5c-3-14.9-4.5-30-4.5-45.2
		c0-63.7,25.8-121.4,67.6-163.2c41.8-41.8,99.5-67.6,163.2-67.6c63.7,0,121.4,25.8,163.2,67.6c41.8,41.8,67.6,99.5,67.6,163.2
		c0,5.3-2.1,10-5.6,13.4c-3.4,3.4-8.2,5.6-13.4,5.6h-70.6c-5.3,0-10-2.1-13.4-5.6c-3.4-3.4-5.6-8.2-5.6-13.4
		c0-33.8-13.7-64.4-35.7-86.4l-0.1-0.1c-22-22.1-52.6-35.7-86.4-35.7c-33.8,0-64.4,13.6-86.4,35.7l0,0l-0.1,0.1l0,0
		c-22.1,22-35.7,52.6-35.7,86.4c0,18.7,4.2,36.7,11.9,52.8c7.8,16.3,19.3,30.9,33.6,42.5c7.6,6.1,13.6,13.4,17.9,21.8
		c4.3,8.3,6.7,17.4,7.2,27.1c0.8,13.6,6.8,25.8,16.1,34.6c9.2,8.7,21.8,14.1,35.5,14.1c14.3,0,27.2-5.7,36.5-15l0.1-0.1
		c9.3-9.3,15-22.2,15-36.5c0-14.3-5.7-27.2-15-36.5L402,363c-9.3-9.3-22.2-15-36.5-15h0c-24.4,0-46.5-9.8-62.7-25.6l-0.6-0.7l0,0
		c-16.2-16.2-26.2-38.6-26.2-63.3c0-24.6,10-46.9,26.2-63.2l0.1-0.1l0,0l0,0l0,0l0,0c16.3-16.2,38.6-26.2,63.3-26.3
		c23.8,0,45.4,9.3,61.4,24.5c16.2,15.3,26.6,36.5,27.9,60.1l0,0c0.2,4.4,1.2,8.5,3.1,12c1.8,3.5,4.5,6.7,7.9,9.4
		c18.7,15.1,33.7,34.2,44,55.6c10.2,21.3,15.8,44.9,15.8,69.1c0,44.1-17.9,84.1-46.9,113.1l-0.1,0.1l-0.1,0.1l0,0
		c-28.3,28.2-66.9,45.9-109.6,46.8l-3.6,0c-43.6,0-83.1-17.4-111.9-45.6l-0.1-0.1l-0.1-0.1c-0.4-0.3-0.8-0.7-1.1-1
		c-23.9-24-40.4-55.4-45.3-90.6l-0.5-3.7h-32.9l0.6,4.8c5.4,43.7,25.4,82.9,55,112.5c34.9,34.9,83.1,56.5,136.4,56.5
		c53.2,0,101.5-21.6,136.4-56.5c34.9-34.9,56.5-83.1,56.5-136.4c0-12.7-1.3-25.4-3.7-37.8c-2.5-12.5-1.9-11.7-6.7-23.4l0,0
		c-1-2.4-1.5-4.8-1.5-7.3c0-7.4,4.4-14.5,11.7-17.5c2.4-1,4.8-1.5,7.2-1.5c7.4,0,14.5,4.4,17.5,11.7l0,0c5.9,14.1,6,15.7,8.9,30.5
		C594.8,369.3,596.3,384.4,596.3,399.6z M365.4,418.7c5.3,0,10-2.1,13.5-5.6c3.5-3.5,5.6-8.2,5.6-13.5c0-5.3-2.1-10-5.6-13.5
		c-3.5-3.4-8.2-5.6-13.5-5.6c-5.3,0-10,2.1-13.5,5.6c-3.5,3.5-5.6,8.2-5.6,13.5c0,5.3,2.1,10,5.6,13.5
		C355.4,416.6,360.2,418.7,365.4,418.7z M365.4,239.3c-5.3,0-10,2.1-13.5,5.6c-3.5,3.5-5.6,8.2-5.6,13.5c0,5.3,2.1,10,5.6,13.5
		c3.5,3.4,8.2,5.6,13.5,5.6c5.3,0,10-2.1,13.5-5.6c3.5-3.5,5.6-8.2,5.6-13.5c0-5.3-2.1-10-5.6-13.5
		C375.4,241.4,370.7,239.3,365.4,239.3z"/>
</g>
</svg>
