<svg width="32" height="32" viewBox="0 0 32 32" fill="none" xmlns="http://www.w3.org/2000/svg">
<path d="M16 32C24.8366 32 32 24.8366 32 16C32 7.16344 24.8366 0 16 0C7.16344 0 0 7.16344 0 16C0 24.8366 7.16344 32 16 32Z" fill="url(#paint0_linear_1263_815)"/>
<path d="M15.6992 9.2V14.5232L20.1982 16.5338L15.6992 9.2Z" fill="#1A1B2A"/>
<path d="M15.6992 9.2L11.2 16.5338L15.6992 14.5232V9.2Z" fill="#1A1B2A"/>
<path d="M15.6992 19.9828V23.5998L20.2008 17.3711L15.6992 19.9828Z" fill="#1A1B2A"/>
<path d="M15.6992 23.5998V19.9828L11.2 17.3711L15.6992 23.5998Z" fill="#1A1B2A"/>
<path d="M15.6992 19.1455L20.1982 16.5338L15.6992 14.5258V19.1455Z" fill="#1A1B2A" fill-opacity="0.6"/>
<path d="M11.2 16.5338L15.6992 19.1455V14.5258L11.2 16.5338Z" fill="#1A1B2A" fill-opacity="0.6"/>
<defs>
<linearGradient id="paint0_linear_1263_815" x1="16" y1="0" x2="16" y2="32" gradientUnits="userSpaceOnUse">
<stop offset="0.109375" stop-color="#FDEA78"/>
<stop offset="0.734375" stop-color="#A2E65A"/>
</linearGradient>
</defs>
</svg>
