<svg xmlns="http://www.w3.org/2000/svg" xmlns:xlink="http://www.w3.org/1999/xlink" viewBox="0 0 80 80">
  <defs>
    <linearGradient id="ec6805fa-c43a-4318-bd96-ea3c7b534852" x1="17.336" x2="80" y1="74.339" y2="74.339" gradientUnits="userSpaceOnUse">
      <stop offset="0" stop-color="#000040"/>
      <stop offset=".325" stop-color="#000043"/>
      <stop offset=".585" stop-color="#00004d"/>
      <stop offset=".823" stop-color="#00005e"/>
      <stop offset="1" stop-color="#000070"/>
    </linearGradient>
    <linearGradient id="e7fd2cf8-df7a-4593-9325-8eebb141dd37" x1="48.668" x2="48.668" y1="68.69" y2="80" gradientUnits="userSpaceOnUse">
      <stop offset=".35" stop-color="#00209f"/>
      <stop offset=".645" stop-color="#001f9d"/>
      <stop offset=".752" stop-color="#001d96"/>
      <stop offset=".828" stop-color="#00198b"/>
      <stop offset=".889" stop-color="#00137a"/>
      <stop offset=".941" stop-color="#000c64"/>
      <stop offset=".987" stop-color="#000349"/>
      <stop offset="1" stop-color="#000040"/>
    </linearGradient>
    <linearGradient id="a789717b-57ff-4589-867a-c52af37f37a1" x1="17.336" x2="80" y1="55.314" y2="55.314" gradientUnits="userSpaceOnUse">
      <stop offset="0" stop-color="#00209f"/>
      <stop offset=".021" stop-color="#0222a1"/>
      <stop offset=".244" stop-color="#1333b2"/>
      <stop offset=".487" stop-color="#1d3dbc"/>
      <stop offset=".791" stop-color="#2040bf"/>
      <stop offset=".841" stop-color="#1e3dbc"/>
      <stop offset=".882" stop-color="#1933b2"/>
      <stop offset=".919" stop-color="#1122a1"/>
      <stop offset=".954" stop-color="#050a89"/>
      <stop offset=".966" stop-color="#00007f"/>
      <stop offset="1" stop-color="#2040bf"/>
    </linearGradient>
    <linearGradient id="f1604bbb-6539-40dc-8d06-c1f2da350f8c" x1="17.34" x2="79.999" y1="61.035" y2="61.035" gradientUnits="userSpaceOnUse">
      <stop offset="0" stop-color="#fbbf00"/>
      <stop offset=".021" stop-color="#fbc102"/>
      <stop offset=".244" stop-color="#fdd213"/>
      <stop offset=".487" stop-color="#ffdc1d"/>
      <stop offset=".791" stop-color="#ffdf20"/>
      <stop offset=".841" stop-color="#fddc1e"/>
      <stop offset=".882" stop-color="#f8d219"/>
      <stop offset=".919" stop-color="#eec111"/>
      <stop offset=".954" stop-color="#e1a905"/>
      <stop offset=".966" stop-color="#db9f00"/>
      <stop offset="1" stop-color="#ffdf20"/>
    </linearGradient>
    <linearGradient xlink:href="#f1604bbb-6539-40dc-8d06-c1f2da350f8c" id="ba2e43a4-9fe3-43de-8eb6-13ffd6acf69e" x1="17.336" x2="80" y1="66.982" y2="66.982"/>
    <linearGradient xlink:href="#f1604bbb-6539-40dc-8d06-c1f2da350f8c" id="b5a3f151-4398-417b-aee5-4cf0a44a5c04" x1="17.335" x2="80.002" y1="69.929" y2="69.929"/>
    <linearGradient xlink:href="#f1604bbb-6539-40dc-8d06-c1f2da350f8c" id="ba75dc40-ea6b-4afe-a991-0d60a30950c6" x1="17.339" x2="79.997" y1="68.998" y2="68.998"/>
    <linearGradient xlink:href="#f1604bbb-6539-40dc-8d06-c1f2da350f8c" id="e6047638-0b09-4743-a37c-e34193b65ab6" x1="17.337" x2="79.998" y1="64.477" y2="64.477"/>
    <linearGradient xlink:href="#f1604bbb-6539-40dc-8d06-c1f2da350f8c" id="b09669ff-ee49-410c-ab6d-208c70186fba" x1="17.335" x2="80.005" y1="57.716" y2="57.716"/>
    <linearGradient xlink:href="#f1604bbb-6539-40dc-8d06-c1f2da350f8c" id="ad6c0e54-500b-4325-809e-007115c61f54" x1="17.337" x2="79.999" y1="50.599" y2="50.599"/>
    <linearGradient xlink:href="#f1604bbb-6539-40dc-8d06-c1f2da350f8c" id="ad825707-441c-49eb-843e-75a85a2bfe06" x1="17.334" x2="80.005" y1="44.961" y2="44.961"/>
    <linearGradient xlink:href="#f1604bbb-6539-40dc-8d06-c1f2da350f8c" id="a0de9096-dea7-4d42-b75d-78e76062fd32" x1="17.334" x2="80.003" y1="42.173" y2="42.173"/>
    <linearGradient xlink:href="#f1604bbb-6539-40dc-8d06-c1f2da350f8c" id="b2e5e733-626d-40b0-b148-7c81abe19c85" x1="17.337" x2="80" y1="42.944" y2="42.944"/>
    <linearGradient xlink:href="#f1604bbb-6539-40dc-8d06-c1f2da350f8c" id="adb62729-90df-4677-aa57-16380cface84" x1="17.34" x2="79.999" y1="47.158" y2="47.158"/>
    <linearGradient xlink:href="#f1604bbb-6539-40dc-8d06-c1f2da350f8c" id="b0af24c5-14f3-46dc-a8a9-adf3617afd48" x1="17.339" x2="79.999" y1="53.776" y2="53.776"/>
  </defs>
  <path fill="#0e3ca5" d="M32.585 59.261c2 7.4 9.176 13.044 12.8 12.811.127-.008 13.745-2.547 21.2-15 5.8-9.693 3.826-19.051-4.065-19.255-2.838.207-33.745 7.348-29.934 21.446m29.199-47.528-.008-.007.011-.006a34.632 34.632 0 0 0-36.5-5.267A20.236 20.236 0 0 0 23.1 7.53c-.486.259-.972.516-1.444.8l.115.035a15.78 15.78 0 0 0-3.655 3.46C8.172 24.953 41.486 34.5 59.3 34.528c8.191 5.883 10.491-16.56 2.485-22.793Z"/>
  <path fill="#5493f7" d="M27.3 12C22.723 18.88 7.478 23.727 4.971 22.972l-.017-.032q.155-.311.313-.618a36.705 36.705 0 0 1 10.87-12.684q1.407-1.03 2.914-1.928a10.772 10.772 0 0 1 5.039-1.342c6.789.132 3.244 5.579 3.21 5.632m-3.756 48.613c.329 2.162-.008 10.7-.45 11.418-.381.024-1.174.072-3.471-1.217a36.2 36.2 0 0 1-3.486-2.262A36.513 36.513 0 0 1 3.054 50.631a36.275 36.275 0 0 1-1.383-5.616 36.9 36.9 0 0 1 0-11.841 36.275 36.275 0 0 1 1.383-5.616q.183-.55.383-1.092c2.631 3.5 5.676 6.665 8.264 10.2 2.465 3.366 5.856 8.852 6.546 10.024 4.284 7.278 4.967 11.768 5.294 13.925m50.648-21.521a36.418 36.418 0 0 1-2.54 13.406c-4.3 4.621-33.284-6.753-33.568-6.877C34.116 43.886 22.05 38.6 20.961 30.3 19.4 18.351 43.63 10.027 54.28 9.711c1.277.015 5.164.06 7.429 1.9a36.411 36.411 0 0 1 12.48 27.482M54.568 71.467c-3.159 1.474-6.638.4-5.734-2.677 1.735-5.908 16.886-11.966 20.232-12.3.413-.04.588.241.405.561a36.86 36.86 0 0 1-14.9 14.411"/>
  <path fill="url(#ec6805fa-c43a-4318-bd96-ea3c7b534852)" d="M17.336 77.255a2.552 2.552 0 0 0 2.329 2.713c30.7.21 60.335-1.2 60.335-5.8 0-13.924-62.664 3.087-62.664 3.087Z"/>
  <path fill="url(#e7fd2cf8-df7a-4593-9325-8eebb141dd37)" d="M17.336 77.255a2.548 2.548 0 0 0 2.341 2.713c30.691.233 60.286-.731 60.323-5.8 0-13.924-62.664 3.087-62.664 3.087Zm2.342 2.537a2.193 2.193 0 0 1-.245-.015 2.4 2.4 0 0 1-1.987-1.763 2.37 2.37 0 0 0 2.229 1.762c30.671-.193 59.844-9.636 59.844-5.478 0 4.244-29.172 5.702-59.841 5.494Z"/>
  <path fill="url(#a789717b-57ff-4589-867a-c52af37f37a1)" d="M19.68 37.823a2.343 2.343 0 0 0-2.344 2.343v37.089a2.343 2.343 0 0 0 2.329 2.345C50.363 79.37 80.038 69.209 80 74.169V32.394c.038-4.961-29.626 5.199-60.32 5.429Z"/>
  <path fill="url(#f1604bbb-6539-40dc-8d06-c1f2da350f8c)" d="M61.288 60.338c-.208-.6-.31-.905-.518-1.508l-.517 1.685-1.677.288 1.355.752-.516 1.684c.542-.486.814-.732 1.355-1.219.543.3.814.452 1.356.753-.208-.6-.31-.9-.518-1.506.542-.487.813-.733 1.354-1.221-.669.116-1.004.177-1.674.292Z"/>
  <path fill="url(#ba2e43a4-9fe3-43de-8eb6-13ffd6acf69e)" d="m56.215 66.29-.515-1.506-.516 1.679c-.67.111-1.005.167-1.677.274.543.308.815.46 1.357.765l-.518 1.679c.542-.483.813-.724 1.354-1.209.541.3.811.453 1.353.753l-.518-1.5L57.888 66Z"/>
  <path fill="url(#b5a3f151-4398-417b-aee5-4cf0a44a5c04)" d="m49.273 69.254-.519-1.515c-.206.67-.31 1-.516 1.675-.669.1-1 .151-1.676.246.543.317.816.474 1.357.787l-.52 1.673c.543-.474.814-.713 1.355-1.192l1.358.777-.52-1.516L50.951 69Z"/>
  <path fill="url(#ba75dc40-ea6b-4afe-a991-0d60a30950c6)" d="m42.325 68.36-.519-1.533c-.207.664-.311 1-.519 1.66-.672.082-1.007.122-1.678.2.543.332.814.5 1.357.825l-.518 1.658 1.358-1.151 1.359.815-.518-1.529 1.361-1.158-1.683.213Z"/>
  <path fill="url(#e6047638-0b09-4743-a37c-e34193b65ab6)" d="m37.236 63.864-.519-1.541c-.209.658-.312.988-.52 1.647-.674.067-1.011.1-1.684.162.544.343.817.512 1.362.853-.207.659-.312.988-.52 1.647.545-.446.817-.672 1.362-1.12.544.339.817.509 1.361.844l-.52-1.541c.544-.45.817-.678 1.36-1.132-.672.074-1.008.117-1.682.181Z"/>
  <path fill="url(#b09669ff-ee49-410c-ab6d-208c70186fba)" d="m34.85 58.755 1.362.853-.52-1.543c.545-.447.817-.671 1.363-1.122-.674.069-1.011.1-1.684.168l-.521-1.545c-.207.657-.311.987-.52 1.644-.673.062-1.009.093-1.681.151.544.347.815.518 1.36.863l-.519 1.642 1.36-1.111Z"/>
  <path fill="url(#ad6c0e54-500b-4325-809e-007115c61f54)" d="m36.718 48.444-.52 1.648c-.674.067-1.012.1-1.685.162.544.343.817.513 1.363.854l-.52 1.645c.545-.447.816-.67 1.361-1.12.545.339.818.508 1.362.843l-.52-1.54c.544-.451.817-.675 1.361-1.129-.672.075-1.009.111-1.682.181Z"/>
  <path fill="url(#ad825707-441c-49eb-843e-75a85a2bfe06)" d="M41.806 42.79c-.207.664-.311 1-.519 1.659-.672.082-1.005.123-1.676.2.543.332.811.495 1.354.824-.207.664-.308 1-.516 1.658.542-.458.814-.689 1.357-1.151.545.329.817.491 1.363.816l-.521-1.528c.546-.463.818-.7 1.364-1.161-.674.087-1.012.13-1.686.214-.208-.612-.311-.921-.52-1.531Z"/>
  <path fill="url(#a0de9096-dea7-4d42-b75d-78e76062fd32)" d="M48.754 39.985c-.2.67-.306 1-.512 1.673-.666.1-1 .148-1.671.243.543.318.814.477 1.353.79l-.517 1.671c.541-.474.811-.711 1.347-1.188.537.311.814.464 1.359.774-.208-.6-.312-.907-.52-1.514l1.361-1.2-1.681.259c-.208-.601-.314-.902-.519-1.508Z"/>
  <path fill="url(#b2e5e733-626d-40b0-b148-7c81abe19c85)" d="m55.7 40.744-.515 1.682c-.668.11-1 .164-1.676.271l1.356.767-.518 1.679c.542-.483.814-.724 1.353-1.209.539.3.8.454 1.347.755-.208-.6-.312-.9-.518-1.5.537-.488.812-.733 1.355-1.221l-1.67.287c-.202-.606-.305-.908-.514-1.511Z"/>
  <path fill="url(#adb62729-90df-4677-aa57-16380cface84)" d="m59.415 49.361 1.355-1.217 1.356.752-.517-1.507c.542-.488.813-.731 1.354-1.22l-1.674.291-.519-1.505-.517 1.683-1.677.289 1.356.75-.517 1.684Z"/>
  <path fill="url(#b0af24c5-14f3-46dc-a8a9-adf3617afd48)" d="m63.145 53.075-.517-1.5-.518 1.686c-.67.116-1 .172-1.675.287.542.3.814.453 1.356.752l-.517 1.684c.542-.487.811-.732 1.354-1.22l1.353.748-.518-1.5 1.352-1.225c-.668.113-1.001.171-1.67.288Z"/>
</svg>
