<svg xmlns="http://www.w3.org/2000/svg" viewBox="0 0 80 80">
  <defs>
    <linearGradient id="a1228c4e-5ec3-4b43-96f5-f8caf26cc027" x1="17.336" x2="80" y1="74.339" y2="74.339" gradientUnits="userSpaceOnUse">
      <stop offset="0" stop-color="#700000"/>
      <stop offset=".327" stop-color="#730000"/>
      <stop offset=".59" stop-color="#7d0000"/>
      <stop offset=".83" stop-color="#8e0000"/>
      <stop offset="1" stop-color="#9f0000"/>
    </linearGradient>
    <linearGradient id="bf1aa469-e614-4170-9118-a0c1414e0ece" x1="48.668" x2="48.668" y1="68.69" y2="80" gradientUnits="userSpaceOnUse">
      <stop offset=".35" stop-color="#cf2000"/>
      <stop offset=".645" stop-color="#cd1f00"/>
      <stop offset=".752" stop-color="#c61d00"/>
      <stop offset=".828" stop-color="#bb1900"/>
      <stop offset=".889" stop-color="#aa1300"/>
      <stop offset=".941" stop-color="#940c00"/>
      <stop offset=".987" stop-color="#790300"/>
      <stop offset="1" stop-color="#700000"/>
    </linearGradient>
    <linearGradient id="a4b921df-82bd-42de-b5e8-1fddebccad75" x1="17.336" x2="80" y1="55.314" y2="55.314" gradientUnits="userSpaceOnUse">
      <stop offset="0" stop-color="#cf2000"/>
      <stop offset=".021" stop-color="#d12201"/>
      <stop offset=".244" stop-color="#e23309"/>
      <stop offset=".487" stop-color="#ec3d0e"/>
      <stop offset=".791" stop-color="#ef4010"/>
      <stop offset=".841" stop-color="#ec3d0f"/>
      <stop offset=".882" stop-color="#e2330d"/>
      <stop offset=".919" stop-color="#d12208"/>
      <stop offset=".954" stop-color="#b90a03"/>
      <stop offset=".966" stop-color="#af0000"/>
      <stop offset="1" stop-color="#ef4010"/>
    </linearGradient>
  </defs>
  <path fill="#0e3ca5" d="M32.585 59.26c2 7.4 9.175 13.045 12.8 12.811.127-.008 13.745-2.547 21.2-15 5.8-9.693 3.826-19.05-4.065-19.254-2.838.207-33.744 7.348-29.933 21.445m29.197-47.527-.008-.006.012-.007a34.63 34.63 0 0 0-36.5-5.266A20.493 20.493 0 0 0 23.1 7.53c-.486.259-.973.516-1.444.8l.115.035a15.78 15.78 0 0 0-3.655 3.46C8.172 24.953 41.486 34.5 59.3 34.528c8.19 5.883 10.49-16.56 2.484-22.793Z"/>
  <path fill="#5493f7" d="M27.3 12C22.723 18.88 7.478 23.727 4.971 22.973l-.017-.032q.155-.312.313-.619a36.682 36.682 0 0 1 10.87-12.683q1.407-1.032 2.913-1.929a10.777 10.777 0 0 1 5.04-1.342c6.789.132 3.244 5.579 3.21 5.632m-3.756 48.613c.329 2.161-.008 10.7-.45 11.418-.381.023-1.174.072-3.472-1.217A36.537 36.537 0 0 1 3.054 50.631a36.275 36.275 0 0 1-1.383-5.616 36.9 36.9 0 0 1 0-11.841 36.275 36.275 0 0 1 1.383-5.616c.122-.366.25-.731.383-1.092 2.631 3.5 5.676 6.665 8.264 10.2 2.465 3.366 5.856 8.852 6.546 10.024 4.284 7.278 4.966 11.767 5.294 13.925m50.647-21.521a36.418 36.418 0 0 1-2.54 13.406c-4.3 4.62-33.283-6.753-33.567-6.877C34.116 43.886 22.05 38.6 20.961 30.3 19.4 18.351 43.63 10.027 54.28 9.711c1.277.015 5.163.061 7.429 1.9a36.414 36.414 0 0 1 12.479 27.483m-19.62 32.372c-3.16 1.475-6.638.4-5.735-2.676 1.735-5.909 16.887-11.967 20.232-12.3.413-.041.589.241.406.561a36.87 36.87 0 0 1-14.9 14.41"/>
  <path fill="url(#a1228c4e-5ec3-4b43-96f5-f8caf26cc027)" d="M17.336 77.255a2.552 2.552 0 0 0 2.328 2.713c30.7.21 60.336-1.2 60.336-5.8 0-13.924-62.664 3.087-62.664 3.087Z"/>
  <path fill="url(#bf1aa469-e614-4170-9118-a0c1414e0ece)" d="M17.336 77.255a2.548 2.548 0 0 0 2.34 2.713c30.692.233 60.287-.731 60.324-5.8 0-13.924-62.664 3.087-62.664 3.087Zm2.341 2.536a2.19 2.19 0 0 1-.244-.014 2.4 2.4 0 0 1-1.988-1.763 2.37 2.37 0 0 0 2.229 1.762c30.671-.193 59.845-9.636 59.845-5.478 0 4.244-29.172 5.702-59.842 5.493Z"/>
  <path fill="url(#a4b921df-82bd-42de-b5e8-1fddebccad75)" d="M19.679 37.822a2.343 2.343 0 0 0-2.343 2.344v37.089a2.342 2.342 0 0 0 2.328 2.345C50.363 79.37 80.037 69.209 80 74.169V32.394c.037-4.961-29.626 5.199-60.321 5.428Z"/>
  <path fill="#fff" d="m43.915 64.355-.154-.726-.7.024.608-.471-.153-.727.532.432.609-.471-.284.736.532.437-.7.024-.284.742m4.179-7.711c.741 2.566-1.146 5.345-2.827 6.2l-.063-.164c1.793-.954 3.408-3.643 2.714-5.991a3.087 3.087 0 0 1-2.624 3.277 2.278 2.278 0 0 1-.463.019 2.57 2.57 0 0 0-.541.02 3.838 3.838 0 0 0-3.048 3.418 2.254 2.254 0 0 1-1.917 2.256 2.078 2.078 0 0 1-.385.018 5.017 5.017 0 0 0 3.877 1.021 6.416 6.416 0 0 0 3.142-1.418 7.27 7.27 0 0 0 2.133-8.66"/>
  <path fill="#fff" d="m40.843 56.34-.153-.72-.7.024.614-.478-.153-.721.527.433.614-.478-.284.742.532.432-.709.024-.284.742m-2.954-5.3a6.2 6.2 0 0 0 1.63 7.16 5.006 5.006 0 0 0 3.794.96 6.725 6.725 0 0 0 4.226-2.5 4.335 4.335 0 0 1-2.3 1.088 4.066 4.066 0 0 1-3.682-1.341l.133-.14a3.886 3.886 0 0 0 3.531 1.291 4.233 4.233 0 0 0 2.242-1.06 2.743 2.743 0 0 1-.992.361 2.3 2.3 0 0 1-2.47-2.148 2.7 2.7 0 0 0-3.035-2.44 2.441 2.441 0 0 0-.655.186 2.262 2.262 0 0 1-.6.178 1.642 1.642 0 0 1-1.823-1.592"/>
  <path fill="#fff" d="m47.343 49.65-.153-.721-.7.024.609-.476-.148-.722.527.432.614-.477-.284.742.527.432-.7.024-.284.742m2.76-6.039a7.151 7.151 0 0 0-5.5 4.772c-1.168 3.277.1 6.615 2.827 7.7-2.055-1.391-1.894-4.641-.867-6.356l.138.078c-1.064 1.858-1.033 4.863.858 6.134-1.3-1.486-.287-3.6.946-4.4a3.781 3.781 0 0 0 1.3-4.832 2.276 2.276 0 0 1 .806-3.151 5.547 5.547 0 0 0-.514.048"/>
  <path fill="#fff" d="m54.431 53.527-.153-.72-.7.024.609-.471-.153-.727.532.432.608-.477-.283.742.532.437-.7.024-.284.736m-.655-4.066a7.311 7.311 0 0 0-5.863 6.271 5.446 5.446 0 0 1 4.338-3.693 3.424 3.424 0 0 1 1.106.011l-.043.184a3.587 3.587 0 0 0-1.081 0 5.245 5.245 0 0 0-4.174 3.566 2.77 2.77 0 0 1 2.051-1.566 2.387 2.387 0 0 1 2 .634 2.531 2.531 0 0 0 2.2.692 3.367 3.367 0 0 0 2.29-1.421 2.154 2.154 0 0 1 1.466-1.031 1.748 1.748 0 0 1 1.462.5 5.083 5.083 0 0 0-5.35-4.185 5.69 5.69 0 0 0-.412.042"/>
  <path fill="#fff" d="m52.309 62.617-.148-.727-.709.025.614-.472-.154-.726.533.431.608-.471-.284.742.533.432-.709.024-.284.742M49.3 55.846a5.759 5.759 0 0 0-.979.226c2.58-.311 4.212 2.169 4.235 4.082l-.165.035c-.065-2.045-1.735-4.221-4.1-3.929 1.967.242 2.219 2.45 1.56 3.82-.9 1.887 0 3.993 1.469 4.379 1.337.353 1.5 1.734 1.008 2.822a7.5 7.5 0 0 0 2.7-7.4 5.074 5.074 0 0 0-5.73-4.035"/>
</svg>
