<svg xmlns="http://www.w3.org/2000/svg" viewBox="0 0 80 80">
  <defs>
    <linearGradient id="a1a4942b-a14a-4800-9c2c-64d6f9854578" x1="17.337" x2="80" y1="74.339" y2="74.339" gradientUnits="userSpaceOnUse">
      <stop offset="0" stop-color="gray"/>
      <stop offset=".327" stop-color="#838383"/>
      <stop offset=".59" stop-color="#8d8d8d"/>
      <stop offset=".83" stop-color="#9e9e9e"/>
      <stop offset="1" stop-color="#afafaf"/>
    </linearGradient>
    <linearGradient id="f7cab3b6-25ba-4cff-9d2e-eec179b415cc" x1="48.669" x2="48.669" y1="68.69" y2="80" gradientUnits="userSpaceOnUse">
      <stop offset=".35" stop-color="#dfdfdf"/>
      <stop offset=".645" stop-color="#ddd"/>
      <stop offset=".752" stop-color="#d6d6d6"/>
      <stop offset=".828" stop-color="#cbcbcb"/>
      <stop offset=".889" stop-color="#bababa"/>
      <stop offset=".941" stop-color="#a4a4a4"/>
      <stop offset=".987" stop-color="#898989"/>
      <stop offset="1" stop-color="gray"/>
    </linearGradient>
    <linearGradient id="f35a7145-8dbb-42d4-b584-145b8aa89971" x1="17.337" x2="80" y1="55.314" y2="55.314" gradientUnits="userSpaceOnUse">
      <stop offset="0" stop-color="#dfdfdf"/>
      <stop offset=".021" stop-color="#e1e1e1"/>
      <stop offset=".244" stop-color="#f2f2f2"/>
      <stop offset=".487" stop-color="#fcfcfc"/>
      <stop offset=".791" stop-color="#fff"/>
      <stop offset=".841" stop-color="#fcfcfc"/>
      <stop offset=".882" stop-color="#f2f2f2"/>
      <stop offset=".919" stop-color="#e1e1e1"/>
      <stop offset=".954" stop-color="#c9c9c9"/>
      <stop offset=".966" stop-color="#bfbfbf"/>
      <stop offset="1" stop-color="#fff"/>
    </linearGradient>
    <linearGradient id="b2d38b73-8d1b-43ca-bcb9-e6cd5a72a2e6" x1="17.337" x2="80" y1="56.15" y2="56.15" gradientUnits="userSpaceOnUse">
      <stop offset="0" stop-color="#cf2000"/>
      <stop offset=".021" stop-color="#d12201"/>
      <stop offset=".244" stop-color="#e23309"/>
      <stop offset=".487" stop-color="#ec3d0e"/>
      <stop offset=".791" stop-color="#ef4010"/>
      <stop offset=".841" stop-color="#ec3d0f"/>
      <stop offset=".882" stop-color="#e2330d"/>
      <stop offset=".919" stop-color="#d12208"/>
      <stop offset=".954" stop-color="#b90a03"/>
      <stop offset=".966" stop-color="#af0000"/>
      <stop offset="1" stop-color="#ef4010"/>
    </linearGradient>
  </defs>
  <path fill="#0e3ca5" d="M32.585 59.261c2 7.4 9.176 13.044 12.8 12.811.127-.008 13.745-2.547 21.2-15 5.8-9.693 3.826-19.051-4.064-19.255-2.839.207-33.745 7.348-29.934 21.446m29.198-47.528-.008-.006.011-.007a34.628 34.628 0 0 0-36.5-5.266A20.417 20.417 0 0 0 23.1 7.53c-.486.259-.972.516-1.444.8l.115.035a15.78 15.78 0 0 0-3.655 3.46C8.172 24.953 41.486 34.5 59.3 34.529c8.191 5.882 10.491-16.561 2.485-22.794Z"/>
  <path fill="#5493f7" d="M27.3 12C22.723 18.88 7.478 23.727 4.971 22.973l-.017-.032q.155-.312.313-.619a36.682 36.682 0 0 1 10.87-12.683q1.407-1.032 2.913-1.929a10.777 10.777 0 0 1 5.04-1.342c6.789.132 3.244 5.579 3.21 5.632m-3.756 48.614c.329 2.161-.008 10.7-.45 11.417-.381.024-1.174.072-3.471-1.217a36.2 36.2 0 0 1-3.486-2.262A36.513 36.513 0 0 1 3.054 50.631a36.275 36.275 0 0 1-1.383-5.616 36.9 36.9 0 0 1 0-11.841 36.3 36.3 0 0 1 1.383-5.616c.122-.366.25-.731.383-1.092 2.631 3.5 5.676 6.666 8.264 10.2 2.465 3.366 5.856 8.852 6.546 10.024 4.284 7.278 4.967 11.768 5.294 13.926m50.648-21.522A36.4 36.4 0 0 1 71.648 52.5c-4.3 4.621-33.283-6.753-33.567-6.877C34.116 43.886 22.05 38.6 20.961 30.3 19.4 18.351 43.63 10.027 54.28 9.711c1.277.015 5.163.061 7.429 1.9a36.411 36.411 0 0 1 12.48 27.482M54.568 71.467c-3.16 1.474-6.638.4-5.734-2.677 1.735-5.908 16.886-11.966 20.232-12.3.413-.04.588.241.405.562a36.87 36.87 0 0 1-14.9 14.41"/>
  <path fill="url(#a1a4942b-a14a-4800-9c2c-64d6f9854578)" d="M17.337 77.255a2.552 2.552 0 0 0 2.329 2.713c30.7.21 60.334-1.2 60.334-5.8 0-13.924-62.663 3.087-62.663 3.087Z"/>
  <path fill="url(#f7cab3b6-25ba-4cff-9d2e-eec179b415cc)" d="M17.337 77.255a2.548 2.548 0 0 0 2.34 2.713c30.691.233 60.286-.731 60.323-5.8 0-13.924-62.663 3.087-62.663 3.087Zm2.342 2.536a2.194 2.194 0 0 1-.245-.014 2.4 2.4 0 0 1-1.987-1.763 2.369 2.369 0 0 0 2.228 1.762c30.671-.193 59.844-9.636 59.844-5.478 0 4.244-29.171 5.702-59.84 5.493Z"/>
  <path fill="url(#f35a7145-8dbb-42d4-b584-145b8aa89971)" d="M19.681 37.823a2.343 2.343 0 0 0-2.344 2.344v37.088a2.343 2.343 0 0 0 2.329 2.345C50.364 79.37 80.037 69.209 80 74.169V32.4c.037-4.966-29.626 5.194-60.319 5.423Z"/>
  <path fill="url(#b2d38b73-8d1b-43ca-bcb9-e6cd5a72a2e6)" d="M59.575 48.068a9.792 9.792 0 0 0-1.959-2.2 10.093 10.093 0 0 0-2.523-1.53 10.968 10.968 0 0 0-3-.783 12.331 12.331 0 0 0-3.341.069 14.652 14.652 0 0 0-2.864.749 15.177 15.177 0 0 0-4.986 3.062 15.575 15.575 0 0 0-1.938 2.165 14.687 14.687 0 0 0-1.484 2.486 13.638 13.638 0 0 0-.946 2.735 12.86 12.86 0 0 0-.332 2.906 12.018 12.018 0 0 0 .448 3.288 11.025 11.025 0 0 0 1.267 2.863 10.585 10.585 0 0 0 1.964 2.322 10.376 10.376 0 0 0 2.539 1.65 10.691 10.691 0 0 0 3 .874 11.5 11.5 0 0 0 3.33-.035 13.724 13.724 0 0 0 2.877-.775 14.413 14.413 0 0 0 2.642-1.361 15.3 15.3 0 0 0 2.331-1.867 16.415 16.415 0 0 0 1.936-2.276 15.662 15.662 0 0 0 1.479-2.58 14.561 14.561 0 0 0 .943-2.8 13.351 13.351 0 0 0 .331-2.931 11.7 11.7 0 0 0-.447-3.254 10.3 10.3 0 0 0-1.267-2.777Z"/>
</svg>
