<svg xmlns="http://www.w3.org/2000/svg" xmlns:xlink="http://www.w3.org/1999/xlink" viewBox="0 0 80 80">
  <defs>
    <linearGradient id="a4c0cb43-339d-471a-b8bf-c8a81cf9d019" x1="17.335" x2="79.999" y1="55.314" y2="55.314" gradientUnits="userSpaceOnUse">
      <stop offset="0"/>
      <stop offset=".791" stop-color="#fff"/>
      <stop offset=".806" stop-color="#f8f8f8"/>
      <stop offset=".829" stop-color="#e4e4e4"/>
      <stop offset=".856" stop-color="#c4c4c4"/>
      <stop offset=".886" stop-color="#979797"/>
      <stop offset=".919" stop-color="#5e5e5e"/>
      <stop offset=".954" stop-color="#191919"/>
      <stop offset=".966"/>
      <stop offset="1" stop-color="#bfbfbf"/>
    </linearGradient>
    <linearGradient id="b6d21e11-95a7-4b4c-ae97-da6daeb64a0c" x1="17.336" x2="80" y1="74.339" y2="74.339" gradientUnits="userSpaceOnUse">
      <stop offset="0" stop-color="gray"/>
      <stop offset=".327" stop-color="#838383"/>
      <stop offset=".59" stop-color="#8d8d8d"/>
      <stop offset=".83" stop-color="#9e9e9e"/>
      <stop offset="1" stop-color="#afafaf"/>
    </linearGradient>
    <linearGradient id="f910fcf5-81fd-4164-93c1-71b90c37dcd6" x1="48.668" x2="48.668" y1="68.69" y2="80" gradientUnits="userSpaceOnUse">
      <stop offset=".35" stop-color="#dfdfdf"/>
      <stop offset=".645" stop-color="#ddd"/>
      <stop offset=".752" stop-color="#d6d6d6"/>
      <stop offset=".828" stop-color="#cbcbcb"/>
      <stop offset=".889" stop-color="#bababa"/>
      <stop offset=".941" stop-color="#a4a4a4"/>
      <stop offset=".987" stop-color="#898989"/>
      <stop offset="1" stop-color="gray"/>
    </linearGradient>
    <linearGradient id="f34b6f70-7815-4d5f-b962-f16671f54244" x1="17.336" x2="80" y1="55.314" y2="55.314" gradientUnits="userSpaceOnUse">
      <stop offset="0" stop-color="#dfdfdf"/>
      <stop offset=".021" stop-color="#e1e1e1"/>
      <stop offset=".244" stop-color="#f2f2f2"/>
      <stop offset=".487" stop-color="#fcfcfc"/>
      <stop offset=".791" stop-color="#fff"/>
      <stop offset=".844" stop-color="#fcfcfc"/>
      <stop offset=".887" stop-color="#f2f2f2"/>
      <stop offset=".926" stop-color="#e1e1e1"/>
      <stop offset=".963" stop-color="#c9c9c9"/>
      <stop offset=".966" stop-color="#c7c7c7"/>
      <stop offset="1" stop-color="#fff"/>
    </linearGradient>
    <linearGradient id="b3e97437-ef32-428d-b18c-4c46393d4dc3" x1="17.338" x2="79.999" y1="42.63" y2="42.63" gradientUnits="userSpaceOnUse">
      <stop offset="0" stop-color="#242424"/>
      <stop offset=".335" stop-color="#2d2d2d"/>
      <stop offset=".791" stop-color="#303030"/>
      <stop offset=".867" stop-color="#2d2d2d"/>
      <stop offset=".928" stop-color="#232323"/>
      <stop offset=".966" stop-color="#181818"/>
      <stop offset="1" stop-color="#303030"/>
    </linearGradient>
    <linearGradient xlink:href="#b3e97437-ef32-428d-b18c-4c46393d4dc3" id="bbaa1981-f086-44f3-8940-a6702fc9795f" x1="17.332" x2="80.001" y1="46.79" y2="46.79"/>
    <linearGradient xlink:href="#b3e97437-ef32-428d-b18c-4c46393d4dc3" id="b1cbeea0-cda4-4bff-aa36-62a9a6617568" x1="17.339" x2="79.999" y1="42.886" y2="42.886"/>
    <linearGradient xlink:href="#b3e97437-ef32-428d-b18c-4c46393d4dc3" id="fc3104ee-ea7c-4df3-962b-4ab2ce1ea608" x1="17.339" x2="79.998" y1="38.975" y2="38.975"/>
    <linearGradient xlink:href="#b3e97437-ef32-428d-b18c-4c46393d4dc3" id="a64d47f7-a36b-4ba0-bb29-7f984966ddbf" x1="17.339" x2="79.999" y1="43.156" y2="43.156"/>
    <linearGradient xlink:href="#b3e97437-ef32-428d-b18c-4c46393d4dc3" id="b8988f02-36c7-4e53-bf25-611485d3d062" x1="17.337" x2="79.999" y1="67.012" y2="67.012"/>
    <linearGradient xlink:href="#b3e97437-ef32-428d-b18c-4c46393d4dc3" id="a3b79d1d-61b3-4ff8-a443-e590c03b5cae" x1="17.335" x2="80.004" y1="66.444" y2="66.444"/>
    <linearGradient xlink:href="#b3e97437-ef32-428d-b18c-4c46393d4dc3" id="f0a19fe7-2d97-4f3a-a98d-51b57abc921f" x1="17.339" x2="79.993" y1="70.879" y2="70.879"/>
    <linearGradient xlink:href="#b3e97437-ef32-428d-b18c-4c46393d4dc3" id="ac7d4098-d18f-45ca-97bd-c4390554b858" x1="17.336" x2="80" y1="70.28" y2="70.28"/>
    <linearGradient xlink:href="#b3e97437-ef32-428d-b18c-4c46393d4dc3" id="e1fdee4c-169e-4a64-a09a-2b06bcb3cc18" x1="17.337" x2="79.998" y1="48.667" y2="48.667"/>
    <linearGradient xlink:href="#b3e97437-ef32-428d-b18c-4c46393d4dc3" id="a739b0bb-a6b5-4e5e-bb5e-e41c7e55f82e" x1="17.336" x2="80" y1="47.415" y2="47.415"/>
    <linearGradient xlink:href="#b3e97437-ef32-428d-b18c-4c46393d4dc3" id="e051baf4-f8a5-463a-9874-c9886afff481" x1="17.336" x2="80" y1="46.141" y2="46.141"/>
    <linearGradient xlink:href="#b3e97437-ef32-428d-b18c-4c46393d4dc3" id="a6f47ef3-e002-442c-a2e4-26feac3ff278" x1="17.338" x2="79.999" y1="65.683" y2="65.683"/>
    <linearGradient xlink:href="#b3e97437-ef32-428d-b18c-4c46393d4dc3" id="b3d3a6f7-3c6f-4e25-839d-75a8baa2cff6" x1="17.332" x2="80.001" y1="60.429" y2="60.429"/>
    <linearGradient xlink:href="#b3e97437-ef32-428d-b18c-4c46393d4dc3" id="ade30f49-cd00-467c-ac7a-4e8d62cec1b8" x1="17.338" x2="80" y1="66.754" y2="66.754"/>
    <linearGradient xlink:href="#b3e97437-ef32-428d-b18c-4c46393d4dc3" id="f0a7bb84-a8ea-4917-8b83-1460ffec250e" x1="17.339" x2="79.999" y1="61.5" y2="61.5"/>
    <linearGradient xlink:href="#b3e97437-ef32-428d-b18c-4c46393d4dc3" id="e628063e-a13b-4bb6-9932-5e8de176588a" x1="17.339" x2="79.999" y1="67.822" y2="67.822"/>
    <linearGradient xlink:href="#b3e97437-ef32-428d-b18c-4c46393d4dc3" id="a729ad11-17c6-4dd0-b711-128241e1c95d" x1="17.339" x2="79.999" y1="62.588" y2="62.588"/>
    <linearGradient id="a98e23cb-ea2d-4e8c-9b19-395b324d8e2b" x1="17.336" x2="80" y1="54.261" y2="54.261" gradientUnits="userSpaceOnUse">
      <stop offset="0" stop-color="#b41b00"/>
      <stop offset=".021" stop-color="#b61d01"/>
      <stop offset=".244" stop-color="#c72e0b"/>
      <stop offset=".487" stop-color="#d13811"/>
      <stop offset=".791" stop-color="#d43b13"/>
      <stop offset=".841" stop-color="#d13812"/>
      <stop offset=".882" stop-color="#c72f0f"/>
      <stop offset=".919" stop-color="#b61f0a"/>
      <stop offset=".954" stop-color="#9e0903"/>
      <stop offset=".966" stop-color="#940000"/>
      <stop offset="1" stop-color="#d43b13"/>
    </linearGradient>
    <linearGradient id="ae94e8f6-da5a-4fda-8f4c-841c7327d448" x1="17.336" x2="79.999" y1="59.12" y2="59.12" gradientUnits="userSpaceOnUse">
      <stop offset="0" stop-color="#00209f"/>
      <stop offset=".021" stop-color="#0222a1"/>
      <stop offset=".244" stop-color="#1333b2"/>
      <stop offset=".487" stop-color="#1d3dbc"/>
      <stop offset=".791" stop-color="#2040bf"/>
      <stop offset=".841" stop-color="#1e3dbc"/>
      <stop offset=".882" stop-color="#1933b2"/>
      <stop offset=".919" stop-color="#1122a1"/>
      <stop offset=".954" stop-color="#050a89"/>
      <stop offset=".966" stop-color="#00007f"/>
      <stop offset="1" stop-color="#2040bf"/>
    </linearGradient>
    <linearGradient id="ac9074f8-07cd-4268-af68-8201669dd596" x1="17.335" x2="79.999" y1="55.314" y2="55.314" gradientUnits="userSpaceOnUse">
      <stop offset="0" stop-color="#404040"/>
      <stop offset=".791" stop-color="#fff"/>
      <stop offset=".966" stop-color="#fff"/>
      <stop offset="1" stop-color="#fff"/>
    </linearGradient>
  </defs>
  <path fill="#0e3ca5" d="M32.585 59.26c2 7.4 9.176 13.045 12.8 12.811.127-.008 13.745-2.547 21.2-15 5.8-9.693 3.826-19.05-4.064-19.255-2.839.208-33.745 7.349-29.934 21.446m29.198-47.527-.008-.007.011-.006a34.626 34.626 0 0 0-36.5-5.267A20.236 20.236 0 0 0 23.1 7.53c-.486.258-.972.516-1.444.8l.115.035a15.759 15.759 0 0 0-3.655 3.46C8.172 24.953 41.486 34.5 59.3 34.528c8.191 5.883 10.491-16.561 2.485-22.793Z"/>
  <path fill="#5493f7" d="M27.3 12C22.723 18.88 7.478 23.727 4.971 22.972l-.017-.032c.1-.207.207-.414.313-.619a36.682 36.682 0 0 1 10.87-12.683q1.407-1.03 2.913-1.928a10.8 10.8 0 0 1 5.04-1.343c6.789.13 3.244 5.58 3.207 5.635m-3.753 48.611c.329 2.161-.008 10.7-.45 11.418-.381.023-1.174.072-3.471-1.217A36.541 36.541 0 0 1 3.054 27.558q.183-.55.383-1.093c2.631 3.5 5.676 6.666 8.264 10.2 2.465 3.365 5.856 8.852 6.546 10.024 4.284 7.277 4.967 11.767 5.294 13.925m50.648-21.52A36.4 36.4 0 0 1 71.648 52.5c-4.3 4.62-33.283-6.753-33.567-6.877C34.116 43.886 22.05 38.6 20.961 30.3 19.4 18.35 43.63 10.026 54.28 9.711c1.277.015 5.163.06 7.429 1.9a36.415 36.415 0 0 1 12.48 27.483M54.568 71.467c-3.16 1.474-6.638.4-5.734-2.677 1.735-5.909 16.886-11.967 20.232-12.3.413-.041.588.24.405.561a36.873 36.873 0 0 1-14.9 14.411"/>
  <path fill="url(#b6d21e11-95a7-4b4c-ae97-da6daeb64a0c)" d="M17.336 77.254a2.552 2.552 0 0 0 2.328 2.714c30.7.21 60.336-1.2 60.336-5.8 0-13.924-62.664 3.086-62.664 3.086Z"/>
  <path fill="url(#f910fcf5-81fd-4164-93c1-71b90c37dcd6)" d="M17.336 77.254a2.549 2.549 0 0 0 2.34 2.714c30.692.233 60.287-.731 60.324-5.8 0-13.924-62.664 3.086-62.664 3.086Zm2.342 2.537a2.194 2.194 0 0 1-.245-.014 2.4 2.4 0 0 1-1.987-1.763 2.368 2.368 0 0 0 2.229 1.761c30.67-.192 59.844-9.635 59.844-5.477 0 4.244-29.171 5.702-59.841 5.493Z"/>
  <path fill="url(#f34b6f70-7815-4d5f-b962-f16671f54244)" d="M19.68 37.823a2.343 2.343 0 0 0-2.344 2.343v37.088a2.343 2.343 0 0 0 2.328 2.346C50.363 79.37 80.038 69.209 80 74.169V32.394c.038-4.961-29.627 5.199-60.32 5.429Z"/>
  <path fill="url(#b3e97437-ef32-428d-b18c-4c46393d4dc3)" d="M61.545 45c.58-.486.868-.73 1.447-1.218-.53-.7-.928-1.231-1.325-1.76l-1.328-1.762-1.448 1.215 1.328 1.763c.399.53.796 1.062 1.326 1.762Z"/>
  <path fill="url(#bbaa1981-f086-44f3-8940-a6702fc9795f)" d="M64.676 49.158c.576-.488.865-.732 1.442-1.217L64.8 46.18c-.4-.529-.793-1.054-1.322-1.757-.578.487-.866.733-1.445 1.219.53.7.927 1.23 1.324 1.759Z"/>
  <path fill="url(#b1cbeea0-cda4-4bff-aa36-62a9a6617568)" d="M63.954 43.494c.433.575.866 1.148 1.335 1.773l1.551 2.07c.578-.484.866-.726 1.443-1.205-.577-.776-1.083-1.449-1.552-2.077L65.4 42.274l-1.335-1.775c-.469-.622-.974-1.3-1.553-2.063-.578.487-.866.731-1.445 1.217l1.554 2.065c.47.624.901 1.2 1.333 1.776Z"/>
  <path fill="url(#fc3104ee-ea7c-4df3-962b-4ab2ce1ea608)" d="M65.877 41.344c.577-.486.866-.727 1.443-1.21-.529-.709-.92-1.234-1.32-1.768l-1.322-1.76-1.444 1.222 1.323 1.757Z"/>
  <path fill="url(#a64d47f7-a36b-4ba0-bb29-7f984966ddbf)" d="M67.8 40.778c-.577.481-.866.723-1.443 1.207l1.322 1.77 1.323 1.779c.578-.478.866-.716 1.444-1.188-.53-.718-.926-1.254-1.323-1.788s-.792-1.069-1.323-1.78Z"/>
  <path fill="url(#b8988f02-36c7-4e53-bf25-611485d3d062)" d="m35.694 66.468-1.344-1.882c-.473-.664-.979-1.375-1.56-2.2-.581.438-.871.656-1.451 1.089.58.823 1.088 1.54 1.559 2.2s.908 1.278 1.344 1.889.872 1.223 1.344 1.882.981 1.37 1.563 2.178c.581-.446.872-.669 1.452-1.119l-1.561-2.171Z"/>
  <path fill="url(#a3b79d1d-61b3-4ff8-a443-e590c03b5cae)" d="m30.49 66.984 1.332 1.887c.581-.434.87-.652 1.452-1.09-.533-.749-.932-1.311-1.331-1.876s-.8-1.131-1.331-1.887c-.581.429-.872.643-1.453 1.069Z"/>
  <path fill="url(#f0a19fe7-2d97-4f3a-a98d-51b57abc921f)" d="M33.757 68.461c-.581.441-.871.656-1.451 1.094.532.751.93 1.313 1.33 1.874l1.332 1.868c.581-.441.872-.663 1.453-1.108-.533-.744-.933-1.3-1.331-1.862Z"/>
  <path fill="url(#ac7d4098-d18f-45ca-97bd-c4390554b858)" d="M31.337 69.756c-.435-.616-.87-1.236-1.342-1.908l-1.564-2.232c-.581.421-.872.634-1.454 1.05l1.562 2.244a763.05 763.05 0 0 0 2.689 3.828c.472.669.981 1.388 1.561 2.206.581-.438.871-.655 1.453-1.1-.582-.816-1.089-1.529-1.561-2.194s-.908-1.277-1.344-1.894Z"/>
  <path fill="url(#e1fdee4c-169e-4a64-a09a-2b06bcb3cc18)" d="m35.588 46.123-1.346 2.138c-.436.692-.873 1.381-1.344 2.131s-.979 1.552-1.559 2.467c.58.34.87.507 1.451.843l1.561-2.476c.473-.75.909-1.444 1.345-2.139l1.346-2.144c.473-.755.982-1.567 1.563-2.5-.581-.323-.872-.485-1.454-.811-.581.929-1.09 1.74-1.563 2.491Z"/>
  <path fill="url(#a739b0bb-a6b5-4e5e-bb5e-e41c7e55f82e)" d="M32.064 47.007a1184.82 1184.82 0 0 1-2.905 4.562c.581.347.872.519 1.453.863.581-.913 1.089-1.715 1.561-2.46s.907-1.436 1.343-2.128l1.345-2.134c.473-.751.982-1.559 1.563-2.487-.581-.329-.873-.493-1.455-.824-.582.924-1.092 1.73-1.563 2.479s-.906 1.441-1.342 2.129Z"/>
  <path fill="url(#e051baf4-f8a5-463a-9874-c9886afff481)" d="m30 48.693 1.343-2.111c.436-.687.871-1.375 1.343-2.122l1.561-2.475c-.582-.333-.872-.5-1.452-.835a1084.572 1084.572 0 0 1-2.905 4.576c-.436.683-.873 1.363-1.346 2.1s-.98 1.527-1.562 2.426c.582.355.873.532 1.454.881.577-.906 1.085-1.7 1.564-2.44Z"/>
  <path fill="url(#a6f47ef3-e002-442c-a2e4-26feac3ff278)" d="m62.991 63.818-1.446-.713-1.327 2.221-1.327 2.218 1.448.717 1.327-2.22 1.325-2.223Z"/>
  <path fill="url(#b3d3a6f7-3c6f-4e25-839d-75a8baa2cff6)" d="M63.473 63.009c.53-.889.926-1.558 1.323-2.225l1.323-2.221c-.578-.286-.867-.432-1.443-.715l-1.323 2.226c-.4.667-.8 1.335-1.326 2.223l1.446.712Z"/>
  <path fill="url(#ade30f49-cd00-467c-ac7a-4e8d62cec1b8)" d="m65.156 64.884-1.443-.71c-.529.89-.927 1.558-1.325 2.224l-1.326 2.221 1.447.715 1.324-2.224 1.323-2.226Z"/>
  <path fill="url(#f0a7bb84-a8ea-4917-8b83-1460ffec250e)" d="M66.96 61.859c.4-.664.794-1.328 1.323-2.209-.577-.3-.866-.439-1.444-.728l-1.322 2.219-1.322 2.225c.577.282.865.424 1.442.711.529-.887.926-1.555 1.323-2.218Z"/>
  <path fill="url(#e628063e-a13b-4bb6-9932-5e8de176588a)" d="M64.555 67.465c-.4.669-.793 1.337-1.323 2.225.578.285.866.428 1.444.711.528-.889.925-1.557 1.322-2.222s.794-1.332 1.323-2.216c-.577-.291-.866-.435-1.443-.721l-1.323 2.223Z"/>
  <path fill="url(#a729ad11-17c6-4dd0-b711-128241e1c95d)" d="M67.682 62.222c-.4.663-.794 1.327-1.323 2.214.577.287.866.432 1.443.723.53-.885.927-1.543 1.324-2.2s.792-1.319 1.322-2.2c-.578-.3-.866-.449-1.443-.743l-1.323 2.206Z"/>
  <path fill="url(#a98e23cb-ea2d-4e8c-9b19-395b324d8e2b)" d="M58.561 50.975A8.349 8.349 0 0 0 57 48.418a8.226 8.226 0 0 0-2.438-1.862 8.986 8.986 0 0 0-2.522-.828 10.05 10.05 0 0 0-2.669-.1 11.739 11.739 0 0 0-2.655.585 12.737 12.737 0 0 0-4.81 2.979 12.571 12.571 0 0 0-1.851 2.326 8.793 8.793 0 0 0-1.182 3.013 7.822 7.822 0 0 0 .016 3 6.967 6.967 0 0 0 1.141 2.648 6.449 6.449 0 0 0 2.2 1.938 6.85 6.85 0 0 0 2.89.807 7.81 7.81 0 0 0 3-.444 9.362 9.362 0 0 0 2.78-1.564 9.787 9.787 0 0 0 2.21-2.54l2.172 1.1c.65.326 1.3.649 2.164 1.079a12.611 12.611 0 0 0 1.387-3.281A10.969 10.969 0 0 0 59.187 54a9.548 9.548 0 0 0-.626-3.025Z"/>
  <path fill="url(#ae94e8f6-da5a-4fda-8f4c-841c7327d448)" d="M56 53.557a4.671 4.671 0 0 0-2.583-.444 5.975 5.975 0 0 0-2.6.926 6.476 6.476 0 0 0-2.059 2.116 6.333 6.333 0 0 1-2.049 2.1 5.714 5.714 0 0 1-2.606.875 4.7 4.7 0 0 1-2.6-.541 4.335 4.335 0 0 1-1.8-1.842 4.917 4.917 0 0 1-.52-2.54 5.739 5.739 0 0 1 .871-2.687 11.882 11.882 0 0 0-1.392 3.2 10.762 10.762 0 0 0-.357 3.247 9.828 9.828 0 0 0 .628 3.067 8.961 8.961 0 0 0 1.567 2.644 8.555 8.555 0 0 0 2.455 1.972 8.844 8.844 0 0 0 2.526.9 9.374 9.374 0 0 0 2.661.128 11.035 11.035 0 0 0 2.664-.6 12.182 12.182 0 0 0 2.535-1.25 12.574 12.574 0 0 0 2.26-1.86 13.27 13.27 0 0 0 1.844-2.419 6.022 6.022 0 0 0 .868-2.737 4.761 4.761 0 0 0-.518-2.509A4.073 4.073 0 0 0 56 53.557Z"/>
</svg>
