<svg width="40" height="41" viewBox="0 0 40 41" fill="none" xmlns="http://www.w3.org/2000/svg">
  <g clip-path="url(#clip0)">
    <path d="M20 40.5C31.0457 40.5 40 31.5457 40 20.5C40 9.4543 31.0457 0.5 20 0.5C8.9543 0.5 0 9.4543 0 20.5C0 31.5457 8.9543 40.5 20 40.5Z" fill="#65A0F8"/>
  </g>
  <path d="M19.624 12V18.654L25.2477 21.1673L19.624 12Z" fill="#1A1B2A"/>
  <path d="M19.6237 12L14 21.1673L19.6237 18.654V12Z" fill="#1A1B2A"/>
  <path d="M19.624 25.4785V29.9998L25.251 22.2139L19.624 25.4785Z" fill="#1A1B2A"/>
  <path d="M19.6237 29.9998V25.4785L14 22.2139L19.6237 29.9998Z" fill="#1A1B2A"/>
  <path d="M19.624 24.4319L25.2477 21.1672L19.624 18.6572V24.4319Z" fill="#1A1B2A" fill-opacity="0.6"/>
  <path d="M14 21.1672L19.6237 24.4319V18.6572L14 21.1672Z" fill="#1A1B2A" fill-opacity="0.6"/>
  <defs>
    <clipPath id="clip0">
      <rect width="40" height="40" fill="white" transform="translate(0 0.5)"/>
    </clipPath>
  </defs>
</svg>
