<?xml version="1.0" encoding="UTF-8" standalone="no"?>
<svg
   xmlns:dc="http://purl.org/dc/elements/1.1/"
   xmlns:cc="http://creativecommons.org/ns#"
   xmlns:rdf="http://www.w3.org/1999/02/22-rdf-syntax-ns#"
   xmlns:svg="http://www.w3.org/2000/svg"
   xmlns="http://www.w3.org/2000/svg"
   id="svg1281"
   version="1.1"
   viewBox="0 0 52.916665 52.916668"
   height="200"
   width="200">
  <defs
     id="defs1275" />
  <metadata
     id="metadata1278">
    <rdf:RDF>
      <cc:Work
         rdf:about="">
        <dc:format>image/svg+xml</dc:format>
        <dc:type
           rdf:resource="http://purl.org/dc/dcmitype/StillImage" />
        <dc:title></dc:title>
      </cc:Work>
    </rdf:RDF>
  </metadata>
  <g
     transform="translate(0,-244.08332)"
     id="layer1">
    <path
       style="opacity:1;fill:#1e1e1e;fill-opacity:1;fill-rule:nonzero;stroke:none;stroke-width:8.21546936;stroke-linecap:round;stroke-linejoin:miter;stroke-miterlimit:4;stroke-dasharray:none;stroke-dashoffset:0;stroke-opacity:1;paint-order:stroke fill markers"
       d="M 52.913152,270.612 A 26.398887,26.409805 0 0 1 26.514264,297.02181 26.398887,26.409805 0 0 1 0.1153781,270.612 26.398887,26.409805 0 0 1 26.514264,244.2022 26.398887,26.409805 0 0 1 52.913152,270.612 Z"
       id="path1845" />
    <path
       style="clip-rule:evenodd;fill:#ff7b7c;fill-rule:evenodd;stroke-width:0.54303247"
       d="m 26.537597,248.90233 c -11.972335,0 -21.6806254,9.72762 -21.6806254,21.73302 0,12.00541 9.7082904,21.73286 21.6806254,21.73286 11.972337,0 21.680469,-9.72745 21.680469,-21.73286 0,-12.00109 -9.70824,-21.73302 -21.680469,-21.73302 z M 2.6585522,270.63535 c 0,-13.22272 10.6928668,-23.93673 23.8790448,-23.93673 13.18634,0 23.879266,10.71852 23.879266,23.93673 0,13.22277 -10.693034,23.93695 -23.879266,23.93695 -13.186178,0 -23.8790448,-10.71418 -23.8790448,-23.93695 z"
       id="path1828" />
    <path
       style="clip-rule:evenodd;fill:#ff7b7c;fill-rule:evenodd;stroke-width:0.54303247"
       d="m 35.96434,264.93213 -6.023593,-0.2512 4.093379,-4.44271 -1.648774,-1.6484 -4.436379,4.09012 -0.241848,-6.03821 h -2.325877 l -0.250634,6.03821 -4.431983,-4.10333 -1.644381,1.65276 4.084593,4.4471 -6.027987,0.23803 v 2.33597 l 6.023591,0.25116 -4.093432,4.44269 1.648827,1.64842 4.366032,-4.02839 0.193475,9.78447 -3.486677,0.25566 v 2.17283 l 3.539449,0.26885 0.06595,3.39817 h 2.325879 l 0.07036,-3.39374 3.574595,-0.27328 v -2.17283 l -3.521822,-0.25566 0.197859,-9.78008 4.361636,4.03281 1.644381,-1.6484 -4.080198,-4.4471 6.023593,-0.24236 z"
       id="path1830" />
  </g>
</svg>
