<svg width="201" height="201" viewBox="0 0 201 201" fill="none" xmlns="http://www.w3.org/2000/svg">
<path d="M100.953 200.841C156.182 200.841 200.953 156.07 200.953 100.841C200.953 45.6126 156.182 0.841064 100.953 0.841064C45.7249 0.841064 0.953369 45.6126 0.953369 100.841C0.953369 156.07 45.7249 200.841 100.953 200.841Z" fill="#E2AB42"/>
<line x1="47.0187" y1="61.0062" x2="99.2246" y2="165.418" stroke="white" stroke-width="4.5" stroke-linecap="round"/>
<line x1="2.25" y1="-2.25" x2="118.986" y2="-2.25" transform="matrix(-0.447214 0.894427 0.894427 0.447214 158.5 60)" stroke="white" stroke-width="4.5" stroke-linecap="round"/>
<path d="M46.7269 60.4306C39.2268 97.9305 60.7738 149.496 100.727 166.431" stroke="white" stroke-width="4.5" stroke-linecap="round"/>
<path d="M155.814 60.4306C163.314 97.9305 141.767 149.496 101.814 166.431" stroke="white" stroke-width="4.5" stroke-linecap="round"/>
<line x1="70.0303" y1="106.75" x2="132.03" y2="106.75" stroke="white" stroke-width="4.5"/>
<line x1="62.6696" y1="55.8835" x2="100.883" y2="44.3304" stroke="white" stroke-width="5" stroke-linecap="round"/>
<line x1="101.117" y1="44.3304" x2="139.33" y2="55.8835" stroke="white" stroke-width="5" stroke-linecap="round"/>
</svg>
