<svg id="svg" version="1.1" xmlns="http://www.w3.org/2000/svg" xmlns:xlink="http://www.w3.org/1999/xlink" width="400" height="400" viewBox="0, 0, 400,400"><g id="svgg"><path id="path0" d="M194.630 31.629 C 192.197 32.399,192.649 32.121,133.519 69.184 C 67.132 110.796,70.905 108.038,69.224 116.179 C 68.740 118.521,80.532 321.069,81.524 327.464 C 82.512 333.831,87.267 339.337,93.607 341.455 L 95.918 342.227 200.459 342.132 L 305.000 342.037 307.157 341.167 C 312.068 339.186,316.234 334.699,317.789 329.719 C 318.904 326.146,331.482 120.547,330.822 116.691 C 330.252 113.364,328.231 109.479,325.854 107.142 C 322.888 104.226,208.674 32.899,205.303 31.858 C 202.495 30.991,197.019 30.873,194.630 31.629 M251.481 91.457 C 302.168 123.079,303.065 123.681,303.603 126.401 C 303.927 128.037,292.889 309.999,292.388 311.296 C 291.806 312.803,290.639 314.111,289.243 314.823 C 287.825 315.547,286.740 315.556,199.699 315.556 L 111.591 315.556 110.341 314.713 C 108.411 313.413,107.493 311.763,107.245 309.154 C 107.125 307.888,104.511 266.269,101.436 216.667 L 95.845 126.481 96.679 124.905 C 97.342 123.652,98.279 122.842,101.256 120.949 C 103.315 119.640,125.917 105.465,151.481 89.449 L 197.963 60.329 200.000 60.469 C 201.974 60.606,203.575 61.570,251.481 91.457 M164.273 118.651 L 128.730 140.954 128.826 142.792 C 128.879 143.803,129.914 160.403,131.128 179.681 C 132.341 198.959,133.333 215.167,133.333 215.699 L 133.333 216.667 182.222 216.667 L 231.111 216.667 231.106 217.870 C 231.104 218.532,230.689 225.324,230.185 232.963 C 229.681 240.602,229.267 247.310,229.264 247.870 L 229.259 248.889 200.053 248.889 L 170.847 248.889 170.624 246.019 C 170.502 244.440,170.216 239.481,169.990 235.000 C 169.763 230.519,169.503 226.477,169.412 226.019 L 169.245 225.185 151.660 225.185 L 134.074 225.185 134.072 226.944 C 134.069 229.029,136.932 278.773,137.248 282.130 L 137.466 284.444 200.029 284.444 C 234.439 284.444,262.593 284.319,262.594 284.167 C 262.594 284.014,264.011 261.082,265.742 233.208 C 267.473 205.333,268.889 182.208,268.889 181.819 C 268.889 181.126,267.844 181.111,217.778 181.111 C 177.133 181.111,166.668 181.016,166.672 180.648 C 166.675 180.394,166.399 175.717,166.058 170.257 C 165.526 161.723,165.512 160.259,165.960 159.836 C 166.442 159.381,197.624 139.764,199.245 138.897 C 199.856 138.569,202.574 140.137,217.113 149.200 L 234.259 159.889 234.124 166.430 L 233.988 172.970 251.716 172.874 L 269.444 172.778 270.249 159.074 C 270.692 151.537,271.067 144.360,271.082 143.124 L 271.111 140.878 236.204 119.076 C 217.005 107.085,200.963 97.065,200.556 96.811 C 199.890 96.394,196.199 98.616,164.273 118.651 " stroke="none" fill="#e4ac4c" fill-rule="evenodd"></path><path id="path1" d="" stroke="none" fill="#e8ac4c" fill-rule="evenodd"></path><path id="path2" d="" stroke="none" fill="#e8ac4c" fill-rule="evenodd"></path><path id="path3" d="" stroke="none" fill="#e8ac4c" fill-rule="evenodd"></path><path id="path4" d="" stroke="none" fill="#e8ac4c" fill-rule="evenodd"></path></g></svg>