<?xml version="1.0" encoding="UTF-8" ?>
<!DOCTYPE svg PUBLIC "-//W3C//DTD SVG 1.1//EN" "http://www.w3.org/Graphics/SVG/1.1/DTD/svg11.dtd">
<svg width="212pt" height="250pt" viewBox="0 0 212 250" version="1.1" xmlns="http://www.w3.org/2000/svg">
<g id="#9e60bffb">
<path fill="#9e60bf" opacity="1.00" d=" M 104.98 12.91 C 104.38 11.15 107.81 11.88 108.15 12.87 C 112.19 18.63 117.60 23.31 121.31 29.32 C 121.48 29.53 121.82 29.96 121.98 30.18 C 122.19 30.39 122.61 30.82 122.82 31.03 C 123.00 31.22 123.34 31.60 123.52 31.79 C 124.51 32.92 125.58 34.00 126.34 35.31 C 126.50 35.52 126.83 35.95 126.99 36.17 C 127.19 36.39 127.60 36.82 127.81 37.04 C 127.99 37.23 128.34 37.61 128.51 37.80 C 129.82 39.26 131.27 40.62 132.31 42.29 C 132.46 42.49 132.75 42.89 132.90 43.09 C 133.06 43.28 133.38 43.65 133.54 43.83 C 134.83 45.29 136.31 46.63 137.34 48.31 C 137.50 48.52 137.83 48.95 137.99 49.17 C 138.20 49.38 138.61 49.82 138.82 50.03 C 139.00 50.22 139.34 50.60 139.52 50.79 C 140.51 51.92 141.58 53.00 142.34 54.31 C 142.50 54.52 142.83 54.95 142.99 55.17 C 143.19 55.39 143.60 55.82 143.81 56.04 C 143.99 56.23 144.34 56.61 144.51 56.80 C 145.82 58.26 147.27 59.62 148.31 61.29 C 148.46 61.49 148.75 61.89 148.90 62.09 C 149.06 62.28 149.38 62.65 149.54 62.83 C 150.83 64.29 152.30 65.63 153.34 67.31 C 153.50 67.52 153.83 67.95 153.99 68.17 C 154.20 68.38 154.61 68.82 154.82 69.03 C 155.00 69.22 155.34 69.60 155.52 69.79 C 156.51 70.92 157.58 72.00 158.34 73.31 C 158.50 73.52 158.83 73.95 158.99 74.17 C 159.19 74.39 159.60 74.82 159.81 75.04 C 159.99 75.23 160.34 75.61 160.51 75.80 C 161.82 77.26 163.27 78.62 164.31 80.29 C 164.46 80.49 164.75 80.89 164.90 81.09 C 165.06 81.28 165.38 81.64 165.54 81.83 C 166.83 83.29 168.30 84.63 169.34 86.30 C 169.50 86.51 169.82 86.93 169.99 87.15 C 170.20 87.35 170.64 87.77 170.86 87.98 L 170.92 88.68 C 170.22 88.79 168.84 89.03 168.14 89.15 C 166.45 89.02 164.76 88.87 163.07 88.67 C 161.51 88.53 158.39 88.24 156.83 88.10 L 156.12 88.27 C 154.43 88.08 152.75 87.93 151.06 87.75 C 149.59 86.53 147.57 86.68 145.85 87.19 L 145.13 87.33 C 143.45 87.12 141.76 86.95 140.08 86.76 C 138.68 85.38 136.62 85.72 134.92 86.20 C 132.97 86.06 131.02 85.94 129.08 85.79 C 127.71 84.36 125.62 84.73 123.92 85.20 C 121.97 85.06 120.02 84.95 118.08 84.82 C 117.02 83.57 115.27 83.70 113.86 84.14 L 113.10 84.25 C 111.40 84.11 109.69 84.01 107.98 83.93 C 107.46 83.72 106.42 83.28 105.90 83.06 C 106.04 72.66 106.03 62.26 105.98 51.86 C 106.44 38.85 104.39 25.93 104.98 12.91 Z" />
</g>
<g id="#8049a1fd">
<path fill="#8049a1" opacity="1.00" d=" M 41.65 88.32 C 62.51 63.07 83.69 37.61 104.98 12.91 C 104.39 25.93 106.44 38.85 105.98 51.86 C 105.33 51.96 104.01 52.18 103.36 52.28 C 102.31 59.34 96.08 63.48 89.94 65.96 C 83.83 68.59 76.99 70.25 72.13 75.09 C 66.96 79.32 60.26 82.04 56.02 87.19 C 51.27 87.37 46.36 89.36 41.65 88.32 Z" />
<path fill="#8049a1" opacity="1.00" d=" M 121.98 30.18 C 122.19 30.39 122.61 30.82 122.82 31.03 C 122.61 30.82 122.19 30.39 121.98 30.18 Z" />
<path fill="#8049a1" opacity="1.00" d=" M 126.99 36.17 C 127.19 36.39 127.60 36.82 127.81 37.04 C 127.60 36.82 127.19 36.39 126.99 36.17 Z" />
<path fill="#8049a1" opacity="1.00" d=" M 132.31 42.29 C 132.46 42.49 132.75 42.89 132.90 43.09 C 132.75 42.89 132.46 42.49 132.31 42.29 Z" />
<path fill="#8049a1" opacity="1.00" d=" M 137.99 49.17 C 138.20 49.38 138.61 49.82 138.82 50.03 C 138.61 49.82 138.20 49.38 137.99 49.17 Z" />
<path fill="#8049a1" opacity="1.00" d=" M 142.99 55.17 C 143.19 55.39 143.60 55.82 143.81 56.04 C 143.60 55.82 143.19 55.39 142.99 55.17 Z" />
<path fill="#8049a1" opacity="1.00" d=" M 148.31 61.29 C 148.46 61.49 148.75 61.89 148.90 62.09 C 148.75 61.89 148.46 61.49 148.31 61.29 Z" />
<path fill="#8049a1" opacity="1.00" d=" M 153.99 68.17 C 154.20 68.38 154.61 68.82 154.82 69.03 C 154.61 68.82 154.20 68.38 153.99 68.17 Z" />
<path fill="#8049a1" opacity="1.00" d=" M 158.99 74.17 C 159.19 74.39 159.60 74.82 159.81 75.04 C 159.60 74.82 159.19 74.39 158.99 74.17 Z" />
<path fill="#8049a1" opacity="1.00" d=" M 164.31 80.29 C 164.46 80.49 164.75 80.89 164.90 81.09 C 164.75 80.89 164.46 80.49 164.31 80.29 Z" />
<path fill="#8049a1" opacity="1.00" d=" M 97.18 83.51 C 97.34 83.50 97.66 83.47 97.82 83.46 C 97.66 83.47 97.34 83.50 97.18 83.51 Z" />
<path fill="#8049a1" opacity="1.00" d=" M 86.18 84.50 C 86.34 84.48 86.67 84.44 86.83 84.42 C 86.67 84.44 86.34 84.48 86.18 84.50 Z" />
<path fill="#8049a1" opacity="1.00" d=" M 113.10 84.25 L 113.86 84.14 L 113.96 84.72 C 113.75 84.60 113.32 84.37 113.10 84.25 Z" />
<path fill="#8049a1" opacity="1.00" d=" M 76.17 85.51 C 76.34 85.49 76.67 85.45 76.83 85.43 C 76.67 85.45 76.34 85.49 76.17 85.51 Z" />
<path fill="#8049a1" opacity="1.00" d=" M 145.13 87.33 L 145.85 87.19 L 145.95 87.68 C 145.75 87.59 145.33 87.42 145.13 87.33 Z" />
<path fill="#8049a1" opacity="1.00" d=" M 169.99 87.15 C 170.20 87.35 170.64 87.77 170.86 87.98 C 170.64 87.77 170.20 87.35 169.99 87.15 Z" />
<path fill="#8049a1" opacity="1.00" d=" M 156.12 88.27 L 156.83 88.10 L 156.92 88.65 C 156.72 88.55 156.32 88.36 156.12 88.27 Z" />
</g>
<g id="#8554a5ff">
<path fill="#8554a5" opacity="1.00" d=" M 121.31 29.32 C 121.48 29.53 121.82 29.96 121.98 30.18 C 121.82 29.96 121.48 29.53 121.31 29.32 Z" />
<path fill="#8554a5" opacity="1.00" d=" M 126.34 35.31 C 126.50 35.52 126.83 35.95 126.99 36.17 C 126.83 35.95 126.50 35.52 126.34 35.31 Z" />
<path fill="#8554a5" opacity="1.00" d=" M 137.34 48.31 C 137.50 48.52 137.83 48.95 137.99 49.17 C 137.83 48.95 137.50 48.52 137.34 48.31 Z" />
<path fill="#8554a5" opacity="1.00" d=" M 103.36 52.28 C 104.01 52.18 105.33 51.96 105.98 51.86 C 106.03 62.26 106.04 72.66 105.90 83.06 L 105.11 83.13 C 103.29 83.21 99.64 83.38 97.82 83.46 C 97.66 83.47 97.34 83.50 97.18 83.51 C 93.72 83.81 90.27 83.94 86.83 84.42 C 86.67 84.44 86.34 84.48 86.18 84.50 C 83.06 84.85 79.94 85.00 76.83 85.43 C 76.67 85.45 76.34 85.49 76.17 85.51 C 69.44 85.86 62.76 86.84 56.02 87.19 C 60.26 82.04 66.96 79.32 72.13 75.09 C 76.99 70.25 83.83 68.59 89.94 65.96 C 96.08 63.48 102.31 59.34 103.36 52.28 Z" />
<path fill="#8554a5" opacity="1.00" d=" M 142.34 54.31 C 142.50 54.52 142.83 54.95 142.99 55.17 C 142.83 54.95 142.50 54.52 142.34 54.31 Z" />
<path fill="#8554a5" opacity="1.00" d=" M 153.34 67.31 C 153.50 67.52 153.83 67.95 153.99 68.17 C 153.83 67.95 153.50 67.52 153.34 67.31 Z" />
<path fill="#8554a5" opacity="1.00" d=" M 158.34 73.31 C 158.50 73.52 158.83 73.95 158.99 74.17 C 158.83 73.95 158.50 73.52 158.34 73.31 Z" />
<path fill="#8554a5" opacity="1.00" d=" M 105.90 83.06 C 106.42 83.28 107.46 83.72 107.98 83.93 C 107.49 83.89 106.51 83.80 106.02 83.76 L 105.90 83.06 Z" />
<path fill="#8554a5" opacity="1.00" d=" M 113.86 84.14 C 115.27 83.70 117.02 83.57 118.08 84.82 C 116.67 85.28 115.30 85.24 113.96 84.72 L 113.86 84.14 Z" />
<path fill="#8554a5" opacity="1.00" d=" M 123.92 85.20 C 125.62 84.73 127.71 84.36 129.08 85.79 C 127.38 86.27 125.28 86.64 123.92 85.20 Z" />
<path fill="#8554a5" opacity="1.00" d=" M 134.92 86.20 C 136.62 85.72 138.68 85.38 140.08 86.76 C 138.38 87.28 136.28 87.66 134.92 86.20 Z" />
<path fill="#8554a5" opacity="1.00" d=" M 169.34 86.30 C 169.50 86.51 169.82 86.93 169.99 87.15 C 169.82 86.93 169.50 86.51 169.34 86.30 Z" />
<path fill="#8554a5" opacity="1.00" d=" M 145.85 87.19 C 147.57 86.68 149.59 86.53 151.06 87.75 C 149.40 88.11 147.55 88.51 145.95 87.68 L 145.85 87.19 Z" />
<path fill="#8554a5" opacity="1.00" d=" M 156.83 88.10 C 158.39 88.24 161.51 88.53 163.07 88.67 C 161.11 89.37 158.82 89.75 156.92 88.65 L 156.83 88.10 Z" />
<path fill="#8554a5" opacity="1.00" d=" M 168.14 89.15 C 168.84 89.03 170.22 88.79 170.92 88.68 L 171.56 88.85 C 171.98 90.56 169.03 90.46 168.12 89.76 L 168.14 89.15 Z" />
</g>
<g id="#664461f9">
<path fill="#664461" opacity="0.98" d=" M 122.82 31.03 C 123.00 31.22 123.34 31.60 123.52 31.79 C 123.34 31.60 123.00 31.22 122.82 31.03 Z" />
<path fill="#664461" opacity="0.98" d=" M 127.81 37.04 C 127.99 37.23 128.34 37.61 128.51 37.80 C 128.34 37.61 127.99 37.23 127.81 37.04 Z" />
<path fill="#664461" opacity="0.98" d=" M 132.90 43.09 C 133.06 43.28 133.38 43.65 133.54 43.83 C 133.38 43.65 133.06 43.28 132.90 43.09 Z" />
<path fill="#664461" opacity="0.98" d=" M 138.82 50.03 C 139.00 50.22 139.34 50.60 139.52 50.79 C 139.34 50.60 139.00 50.22 138.82 50.03 Z" />
<path fill="#664461" opacity="0.98" d=" M 143.81 56.04 C 143.99 56.23 144.34 56.61 144.51 56.80 C 144.34 56.61 143.99 56.23 143.81 56.04 Z" />
<path fill="#664461" opacity="0.98" d=" M 148.90 62.09 C 149.06 62.28 149.38 62.65 149.54 62.83 C 149.38 62.65 149.06 62.28 148.90 62.09 Z" />
<path fill="#664461" opacity="0.98" d=" M 154.82 69.03 C 155.00 69.22 155.34 69.60 155.52 69.79 C 155.34 69.60 155.00 69.22 154.82 69.03 Z" />
<path fill="#664461" opacity="0.98" d=" M 159.81 75.04 C 159.99 75.23 160.34 75.61 160.51 75.80 C 160.34 75.61 159.99 75.23 159.81 75.04 Z" />
<path fill="#664461" opacity="0.98" d=" M 164.90 81.09 C 165.06 81.28 165.38 81.64 165.54 81.83 C 165.38 81.64 165.06 81.28 164.90 81.09 Z" />
</g>
<g id="#5e3b57f8">
<path fill="#5e3b57" opacity="0.97" d=" M 97.82 83.46 C 99.64 83.38 103.29 83.21 105.11 83.13 C 105.34 83.29 105.79 83.60 106.02 83.76 C 106.51 83.80 107.49 83.89 107.98 83.93 C 109.69 84.01 111.40 84.11 113.10 84.25 C 113.32 84.37 113.75 84.60 113.96 84.72 C 115.30 85.24 116.67 85.28 118.08 84.82 C 120.02 84.95 121.97 85.06 123.92 85.20 C 125.28 86.64 127.38 86.27 129.08 85.79 C 131.02 85.94 132.97 86.06 134.92 86.20 C 136.28 87.66 138.38 87.28 140.08 86.76 C 141.76 86.95 143.45 87.12 145.13 87.33 C 145.33 87.42 145.75 87.59 145.95 87.68 C 147.55 88.51 149.40 88.11 151.06 87.75 C 152.75 87.93 154.43 88.08 156.12 88.27 C 156.32 88.36 156.72 88.55 156.92 88.65 C 158.82 89.75 161.11 89.37 163.07 88.67 C 164.76 88.87 166.45 89.02 168.14 89.15 L 168.12 89.76 C 147.12 91.67 126.04 92.65 105.00 94.05 C 83.70 92.85 62.39 91.18 41.07 89.87 C 41.22 89.49 41.50 88.71 41.65 88.32 C 46.36 89.36 51.27 87.37 56.02 87.19 C 62.76 86.84 69.44 85.86 76.17 85.51 C 76.34 85.49 76.67 85.45 76.83 85.43 C 79.94 85.00 83.06 84.85 86.18 84.50 C 86.34 84.48 86.67 84.44 86.83 84.42 C 90.27 83.94 93.72 83.81 97.18 83.51 C 97.34 83.50 97.66 83.47 97.82 83.46 Z" />
</g>
<g id="#695c58f7">
<path fill="#695c58" opacity="0.97" d=" M 105.11 83.13 L 105.90 83.06 L 106.02 83.76 C 105.79 83.60 105.34 83.29 105.11 83.13 Z" />
</g>
<g id="#5a5159fd">
<path fill="#5a5159" opacity="1.00" d=" M 170.86 87.98 C 171.03 88.19 171.38 88.63 171.56 88.85 L 170.92 88.68 L 170.86 87.98 Z" />
</g>
<g id="#3f9c81ad">
<path fill="#3f9c81" opacity="0.68" d=" M 95.00 95.99 C 95.84 93.79 100.53 95.45 102.90 95.06 L 103.07 95.98 C 100.37 95.99 97.68 96.00 95.00 95.99 Z" />
</g>
<g id="#c1fa63ff">
<path fill="#c1fa63" opacity="1.00" d=" M 102.90 95.06 C 103.39 95.06 104.36 95.06 104.85 95.06 C 105.82 104.06 110.75 111.75 114.11 119.96 C 115.88 124.01 117.91 127.96 120.34 131.66 C 121.37 134.38 125.08 132.92 126.95 131.64 C 131.22 132.51 130.49 137.89 130.87 141.20 C 130.23 139.74 129.64 138.26 128.98 136.82 C 127.50 135.09 124.11 137.43 121.90 137.23 C 120.95 136.09 120.02 134.94 119.01 133.87 C 117.98 131.94 116.99 130.00 116.01 128.06 C 114.81 124.97 113.53 121.92 112.19 118.89 C 111.67 117.23 110.56 115.85 109.17 114.82 C 108.98 116.29 108.81 117.76 108.67 119.24 C 108.11 117.16 107.60 115.06 106.79 113.07 C 102.34 112.86 99.25 116.74 95.75 118.88 C 97.28 115.54 100.26 113.27 103.11 111.10 C 106.96 108.72 104.88 102.36 104.30 98.74 C 103.91 97.81 103.50 96.89 103.07 95.98 L 102.90 95.06 Z" />
</g>
<g id="#f4f358ff">
<path fill="#f4f358" opacity="1.00" d=" M 104.85 95.06 C 106.92 94.99 109.07 94.74 111.08 95.40 L 111.24 95.97 C 111.48 96.81 111.71 97.65 111.94 98.50 C 111.17 100.09 112.36 101.61 112.83 103.11 C 114.87 107.54 116.33 112.63 120.29 115.83 C 124.19 118.60 127.14 111.37 130.25 113.75 C 130.79 119.07 131.41 124.45 130.87 129.80 C 129.55 130.40 128.14 130.80 126.95 131.64 C 125.08 132.92 121.37 134.38 120.34 131.66 C 117.91 127.96 115.88 124.01 114.11 119.96 C 110.75 111.75 105.82 104.06 104.85 95.06 Z" />
</g>
<g id="#9a3a89aa">
<path fill="#9a3a89" opacity="0.67" d=" M 111.08 95.40 C 112.92 94.65 116.84 94.03 117.84 95.95 C 116.19 95.95 112.89 95.96 111.24 95.97 L 111.08 95.40 Z" />
</g>
<g id="#6cf9e2ff">
<path fill="#6cf9e2" opacity="1.00" d=" M 78.19 97.18 C 83.64 95.62 89.38 96.03 95.00 95.99 C 97.68 96.00 100.37 95.99 103.07 95.98 C 103.50 96.89 103.91 97.81 104.30 98.74 C 104.20 102.88 104.19 107.08 103.11 111.10 C 100.26 113.27 97.28 115.54 95.75 118.88 C 93.70 122.81 93.25 127.41 92.74 131.77 C 92.38 134.42 92.05 137.11 91.76 139.77 C 90.73 145.94 91.10 152.20 90.84 158.42 L 90.10 158.46 C 89.54 158.35 88.44 158.14 87.89 158.03 C 86.79 152.31 86.70 146.41 85.35 140.74 C 85.21 140.12 84.94 138.89 84.80 138.27 C 84.19 133.53 85.12 127.10 81.66 123.38 C 78.26 124.03 74.58 121.64 74.80 118.12 C 74.93 116.15 75.05 114.18 75.19 112.21 C 76.03 107.16 77.50 102.25 78.19 97.18 Z" />
</g>
<g id="#fa5bd7ff">
<path fill="#fa5bd7" opacity="1.00" d=" M 111.24 95.97 C 112.89 95.96 116.19 95.95 117.84 95.95 C 118.67 95.98 120.32 96.04 121.15 96.06 C 120.04 97.35 118.80 98.56 117.89 100.01 C 120.46 105.46 127.03 103.39 131.84 103.04 C 133.41 105.10 133.91 107.70 134.88 110.05 C 134.91 111.79 134.99 115.27 135.02 117.01 L 134.02 117.01 L 133.00 116.98 C 132.98 116.29 132.93 114.90 132.91 114.21 C 133.38 111.09 132.09 108.18 129.83 106.08 C 127.83 106.87 126.26 108.36 124.57 109.63 C 120.56 111.52 118.64 107.67 115.81 106.09 C 114.30 103.67 113.48 100.90 111.94 98.50 C 111.71 97.65 111.48 96.81 111.24 95.97 Z" />
</g>
<g id="#f844f2fd">
<path fill="#f844f2" opacity="1.00" d=" M 121.15 96.06 C 130.04 95.92 138.89 97.32 147.78 97.20 C 148.07 97.41 148.65 97.84 148.94 98.05 C 147.59 103.42 146.34 108.92 143.68 113.83 C 139.61 115.51 137.68 111.75 134.88 110.05 C 133.91 107.70 133.41 105.10 131.84 103.04 C 127.03 103.39 120.46 105.46 117.89 100.01 C 118.80 98.56 120.04 97.35 121.15 96.06 Z" />
</g>
<g id="#993380aa">
<path fill="#993380" opacity="0.67" d=" M 63.17 97.83 C 64.37 96.18 67.97 96.80 69.89 97.31 L 69.88 97.88 C 69.45 97.96 68.60 98.11 68.18 98.18 C 66.51 98.06 64.84 97.96 63.17 97.83 Z" />
</g>
<g id="#f6908efe">
<path fill="#f6908e" opacity="1.00" d=" M 69.89 97.31 L 70.92 97.02 C 70.93 102.42 71.32 107.88 70.21 113.21 C 70.09 108.10 70.05 102.99 69.88 97.88 L 69.89 97.31 Z" />
</g>
<g id="#f1ef68ff">
<path fill="#f1ef68" opacity="1.00" d=" M 70.92 97.02 C 73.00 96.92 75.09 96.94 77.17 97.08 C 76.41 100.98 75.29 104.82 74.74 108.77 C 74.33 111.41 74.04 114.09 73.75 116.76 C 73.31 120.09 72.98 123.45 72.67 126.80 C 72.22 130.59 72.02 134.40 72.04 138.22 C 70.19 141.79 69.14 145.71 67.20 149.23 C 67.08 147.16 66.94 145.09 66.93 143.02 C 67.52 140.37 67.90 137.71 68.01 135.01 C 68.50 132.29 68.95 129.58 68.91 126.82 C 68.96 126.41 69.07 125.60 69.12 125.19 C 69.75 122.08 70.05 118.94 69.85 115.78 C 69.94 115.14 70.12 113.86 70.21 113.21 C 71.32 107.88 70.93 102.42 70.92 97.02 Z" />
</g>
<g id="#88f88eff">
<path fill="#88f88e" opacity="1.00" d=" M 77.17 97.08 L 78.19 97.18 C 77.50 102.25 76.03 107.16 75.19 112.21 C 75.08 111.35 74.86 109.63 74.74 108.77 C 75.29 104.82 76.41 100.98 77.17 97.08 Z" />
</g>
<g id="#f933e9fd">
<path fill="#f933e9" opacity="1.00" d=" M 40.04 99.09 C 44.20 99.74 48.13 98.48 52.16 98.01 C 51.96 99.97 51.52 101.91 50.85 103.76 C 49.77 106.46 48.90 109.31 49.19 112.25 C 46.29 116.81 45.69 124.15 40.09 126.25 C 40.03 122.49 40.03 118.75 39.98 115.00 C 39.95 109.70 39.97 104.39 40.04 99.09 Z" />
</g>
<g id="#f8a468fe">
<path fill="#f8a468" opacity="1.00" d=" M 52.16 98.01 C 55.15 97.91 58.16 97.94 61.15 98.06 C 58.95 100.32 57.35 103.04 55.93 105.84 C 53.37 109.42 51.58 113.73 52.11 118.22 C 51.24 123.14 50.40 128.09 49.80 133.05 L 49.05 133.00 C 49.13 128.63 49.60 124.30 49.96 119.95 C 49.31 120.03 48.03 120.20 47.39 120.28 C 45.60 123.69 43.54 127.24 40.06 129.17 C 40.07 128.44 40.09 126.98 40.09 126.25 C 45.69 124.15 46.29 116.81 49.19 112.25 C 50.63 109.64 51.24 106.73 50.85 103.76 C 51.52 101.91 51.96 99.97 52.16 98.01 Z" />
</g>
<g id="#f94bf4ff">
<path fill="#f94bf4" opacity="1.00" d=" M 61.15 98.06 C 61.66 98.01 62.67 97.89 63.17 97.83 C 64.84 97.96 66.51 98.06 68.18 98.18 C 66.14 109.06 62.70 119.80 62.95 130.99 C 62.69 139.02 63.36 147.03 64.05 155.02 C 58.59 154.77 53.19 153.78 47.83 152.74 C 47.99 152.06 48.32 150.70 48.48 150.02 C 49.35 147.67 49.47 145.35 48.84 143.06 C 48.96 142.31 49.22 140.79 49.35 140.04 C 50.44 137.67 50.59 135.34 49.80 133.05 C 50.40 128.09 51.24 123.14 52.11 118.22 C 53.29 114.06 55.43 110.16 55.93 105.84 C 57.35 103.04 58.95 100.32 61.15 98.06 Z" />
</g>
<g id="#f863f0ff">
<path fill="#f863f0" opacity="1.00" d=" M 68.18 98.18 C 68.60 98.11 69.45 97.96 69.88 97.88 C 70.05 102.99 70.09 108.10 70.21 113.21 C 70.12 113.86 69.94 115.14 69.85 115.78 C 69.24 118.88 68.97 122.04 69.12 125.19 C 69.07 125.60 68.96 126.41 68.91 126.82 C 68.48 129.52 68.12 132.26 68.01 135.01 C 67.52 137.65 67.10 140.33 66.93 143.02 C 65.91 146.93 65.23 150.91 64.90 154.94 L 64.05 155.02 C 63.36 147.03 62.69 139.02 62.95 130.99 C 62.70 119.80 66.14 109.06 68.18 98.18 Z" />
</g>
<g id="#f856f6ff">
<path fill="#f856f6" opacity="1.00" d=" M 148.94 98.05 L 149.95 97.97 C 150.40 98.88 150.82 99.81 151.20 100.76 C 151.16 111.20 153.69 121.52 153.00 132.00 C 153.49 136.97 151.82 142.42 154.05 147.12 C 154.07 148.80 154.12 152.18 154.14 153.86 C 149.23 155.75 143.27 155.06 138.03 156.05 C 137.34 143.05 137.69 129.80 135.02 117.01 C 134.99 115.27 134.91 111.79 134.88 110.05 C 137.68 111.75 139.61 115.51 143.68 113.83 C 146.34 108.92 147.59 103.42 148.94 98.05 Z" />
</g>
<g id="#ebee7aff">
<path fill="#ebee7a" opacity="1.00" d=" M 149.95 97.97 C 151.60 97.94 153.26 97.94 154.92 98.07 C 155.61 102.98 156.43 107.87 157.36 112.73 C 157.27 115.57 156.54 118.55 157.75 121.23 C 157.88 121.62 158.13 122.39 158.25 122.77 C 158.36 125.53 157.03 128.80 159.02 131.04 C 159.07 132.97 159.09 134.89 159.20 136.82 C 159.03 140.48 157.57 143.87 156.27 147.24 C 155.75 139.76 156.64 132.11 155.30 124.71 C 155.20 124.31 155.00 123.49 154.89 123.08 C 156.14 120.16 155.90 117.77 154.17 115.90 C 153.60 110.80 153.06 105.58 151.20 100.76 C 150.82 99.81 150.40 98.88 149.95 97.97 Z" />
</g>
<g id="#6ef5defc">
<path fill="#6ef5de" opacity="1.00" d=" M 154.92 98.07 C 158.39 98.77 163.22 96.52 166.12 99.33 C 163.56 101.97 160.80 104.41 158.40 107.20 C 159.37 115.97 159.05 125.86 164.78 133.15 C 168.28 137.61 168.89 143.48 171.83 148.24 C 171.89 149.52 171.95 150.80 171.99 152.08 L 171.06 151.86 C 170.78 151.43 170.23 150.56 169.95 150.13 C 169.90 147.15 168.29 144.60 167.14 141.95 C 166.79 140.98 166.40 140.03 165.98 139.09 C 165.28 136.37 162.05 136.44 160.43 134.65 C 159.93 133.45 159.52 132.23 159.02 131.04 C 158.87 128.26 159.34 125.39 158.25 122.77 C 158.13 122.39 157.88 121.62 157.75 121.23 C 157.74 118.38 158.18 115.50 157.36 112.73 C 156.43 107.87 155.61 102.98 154.92 98.07 Z" />
</g>
<g id="#7bf894ff">
<path fill="#7bf894" opacity="1.00" d=" M 104.30 98.74 C 104.88 102.36 106.96 108.72 103.11 111.10 C 104.19 107.08 104.20 102.88 104.30 98.74 Z" />
</g>
<g id="#fab75fff">
<path fill="#fab75f" opacity="1.00" d=" M 112.83 103.11 C 112.36 101.61 111.17 100.09 111.94 98.50 C 113.48 100.90 114.30 103.67 115.81 106.09 C 116.88 107.82 119.02 111.29 120.09 113.03 C 125.38 116.00 126.24 107.96 130.69 109.15 C 131.49 110.81 132.15 112.53 132.91 114.21 C 132.93 114.90 132.98 116.29 133.00 116.98 C 132.95 117.79 132.84 119.40 132.79 120.21 C 132.28 117.87 132.24 115.30 130.25 113.75 C 127.14 111.37 124.19 118.60 120.29 115.83 C 116.33 112.63 114.87 107.54 112.83 103.11 Z" />
</g>
<g id="#67f6f4ff">
<path fill="#67f6f4" opacity="1.00" d=" M 166.12 99.33 C 166.96 99.20 167.53 99.82 167.83 101.19 C 169.71 108.10 169.77 115.35 171.75 122.25 C 171.91 124.16 171.98 126.08 172.03 128.00 C 171.96 134.74 172.12 141.49 171.83 148.24 C 168.89 143.48 168.28 137.61 164.78 133.15 C 159.05 125.86 159.37 115.97 158.40 107.20 C 160.80 104.41 163.56 101.97 166.12 99.33 Z" />
</g>
<g id="#dced7cff">
<path fill="#dced7c" opacity="1.00" d=" M 167.83 101.19 C 167.16 98.71 169.12 98.79 170.94 99.01 C 171.00 102.76 171.28 106.50 171.77 110.22 C 171.83 111.91 171.96 115.29 172.02 116.98 C 171.96 118.73 171.85 120.49 171.75 122.25 C 169.77 115.35 169.71 108.10 167.83 101.19 Z" />
</g>
<g id="#f681c0ff">
<path fill="#f681c0" opacity="1.00" d=" M 170.94 99.01 L 171.99 99.00 L 172.01 100.01 C 171.98 103.41 171.98 106.82 171.77 110.22 C 171.28 106.50 171.00 102.76 170.94 99.01 Z" />
</g>
<g id="#c65bbcd8">
<path fill="#c65bbc" opacity="0.85" d=" M 172.01 100.01 L 172.98 100.00 C 173.01 105.67 173.14 111.34 172.97 117.01 L 172.02 116.98 C 171.96 115.29 171.83 111.91 171.77 110.22 C 171.98 106.82 171.98 103.41 172.01 100.01 Z" />
</g>
<g id="#f86fe5ff">
<path fill="#f86fe5" opacity="1.00" d=" M 151.20 100.76 C 153.06 105.58 153.60 110.80 154.17 115.90 C 152.80 118.86 153.04 121.26 154.89 123.08 C 155.00 123.49 155.20 124.31 155.30 124.71 C 155.01 132.18 155.00 139.65 154.75 147.11 L 154.05 147.12 C 151.82 142.42 153.49 136.97 153.00 132.00 C 153.69 121.52 151.16 111.20 151.20 100.76 Z" />
</g>
<g id="#fb4d9eff">
<path fill="#fb4d9e" opacity="1.00" d=" M 49.19 112.25 C 48.90 109.31 49.77 106.46 50.85 103.76 C 51.24 106.73 50.63 109.64 49.19 112.25 Z" />
</g>
<g id="#fb52a0ff">
<path fill="#fb52a0" opacity="1.00" d=" M 52.11 118.22 C 51.58 113.73 53.37 109.42 55.93 105.84 C 55.43 110.16 53.29 114.06 52.11 118.22 Z" />
</g>
<g id="#fa6a95ff">
<path fill="#fa6a95" opacity="1.00" d=" M 115.81 106.09 C 118.64 107.67 120.56 111.52 124.57 109.63 C 126.26 108.36 127.83 106.87 129.83 106.08 C 132.09 108.18 133.38 111.09 132.91 114.21 C 132.15 112.53 131.49 110.81 130.69 109.15 C 126.24 107.96 125.38 116.00 120.09 113.03 C 119.02 111.29 116.88 107.82 115.81 106.09 Z" />
</g>
<g id="#a6f87bff">
<path fill="#a6f87b" opacity="1.00" d=" M 73.75 116.76 C 74.04 114.09 74.33 111.41 74.74 108.77 C 74.86 109.63 75.08 111.35 75.19 112.21 C 75.05 114.18 74.93 116.15 74.80 118.12 L 73.81 117.79 L 73.75 116.76 Z" />
</g>
<g id="#eaef6dff">
<path fill="#eaef6d" opacity="1.00" d=" M 95.75 118.88 C 99.25 116.74 102.34 112.86 106.79 113.07 C 107.60 115.06 108.11 117.16 108.67 119.24 C 108.95 120.91 109.20 122.60 109.63 124.25 C 109.93 125.58 110.26 126.91 110.62 128.23 C 112.14 138.58 114.46 148.79 116.19 159.09 C 115.64 159.27 114.55 159.63 114.00 159.80 C 112.30 148.58 110.11 137.43 107.55 126.37 C 106.81 124.02 105.70 121.51 103.00 121.01 C 95.55 123.32 95.80 132.57 94.66 138.92 C 93.32 141.32 93.17 143.69 94.19 146.06 C 94.52 150.34 93.06 155.04 94.90 159.12 C 94.40 159.07 93.40 158.96 92.90 158.91 L 92.80 158.14 C 92.90 149.36 93.34 140.55 92.74 131.77 C 93.25 127.41 93.70 122.81 95.75 118.88 Z" />
</g>
<g id="#a2f59dff">
<path fill="#a2f59d" opacity="1.00" d=" M 157.36 112.73 C 158.18 115.50 157.74 118.38 157.75 121.23 C 156.54 118.55 157.27 115.57 157.36 112.73 Z" />
</g>
<g id="#ecec6ffe">
<path fill="#ecec6f" opacity="1.00" d=" M 130.25 113.75 C 132.24 115.30 132.28 117.87 132.79 120.21 C 132.85 122.58 133.21 124.89 133.86 127.15 L 134.04 127.91 C 134.01 131.70 134.26 135.47 134.79 139.23 C 134.87 139.90 135.03 141.24 135.11 141.91 C 133.89 144.77 134.12 147.17 135.79 149.11 C 135.99 151.43 136.39 153.72 136.97 155.98 C 137.67 158.08 134.21 156.60 133.11 156.85 C 132.68 152.91 132.10 148.96 130.93 145.18 C 130.92 143.85 130.90 142.52 130.87 141.20 C 130.49 137.89 131.22 132.51 126.95 131.64 C 128.14 130.80 129.55 130.40 130.87 129.80 C 131.41 124.45 130.79 119.07 130.25 113.75 Z" />
</g>
<g id="#0706030b">
<path fill="#070603" opacity="0.04" d=" M 39.02 115.01 L 39.98 115.00 C 40.03 118.75 40.03 122.49 40.09 126.25 C 40.09 126.98 40.07 128.44 40.06 129.17 C 40.00 133.37 39.98 137.58 40.08 141.80 C 40.05 144.83 40.01 147.88 40.00 150.93 L 39.03 151.01 C 38.96 139.01 38.96 127.01 39.02 115.01 Z" />
</g>
<g id="#a3f968ff">
<path fill="#a3f968" opacity="1.00" d=" M 109.17 114.82 C 110.56 115.85 111.67 117.23 112.19 118.89 C 108.53 116.31 109.73 121.34 109.63 124.25 C 109.20 122.60 108.95 120.91 108.67 119.24 C 108.81 117.76 108.98 116.29 109.17 114.82 Z" />
</g>
<g id="#f7999dff">
<path fill="#f7999d" opacity="1.00" d=" M 69.12 125.19 C 68.97 122.04 69.24 118.88 69.85 115.78 C 70.05 118.94 69.75 122.08 69.12 125.19 Z" />
</g>
<g id="#f692aeff">
<path fill="#f692ae" opacity="1.00" d=" M 154.17 115.90 C 155.90 117.77 156.14 120.16 154.89 123.08 C 153.04 121.26 152.80 118.86 154.17 115.90 Z" />
</g>
<g id="#bdfa65ff">
<path fill="#bdfa65" opacity="1.00" d=" M 72.67 126.80 C 72.98 123.45 73.31 120.09 73.75 116.76 L 73.81 117.79 C 73.85 119.57 73.93 123.13 73.97 124.91 C 74.17 126.56 73.63 128.60 75.08 129.82 C 76.94 129.27 78.67 127.67 80.71 128.17 C 81.56 129.11 82.31 130.12 83.09 131.12 C 83.52 133.07 83.85 135.05 84.05 137.04 C 82.86 135.10 82.08 132.94 80.82 131.04 C 78.57 130.94 76.42 131.78 74.19 131.94 C 72.69 130.66 73.00 128.55 72.67 126.80 Z" />
</g>
<g id="#f89986ff">
<path fill="#f89986" opacity="1.00" d=" M 133.00 116.98 L 134.02 117.01 C 133.99 120.38 133.95 123.77 133.86 127.15 C 133.21 124.89 132.85 122.58 132.79 120.21 C 132.84 119.40 132.95 117.79 133.00 116.98 Z" />
</g>
<g id="#f86ee4ff">
<path fill="#f86ee4" opacity="1.00" d=" M 134.02 117.01 L 135.02 117.01 C 137.69 129.80 137.34 143.05 138.03 156.05 L 136.97 155.98 C 136.39 153.72 135.99 151.43 135.79 149.11 C 137.19 146.12 136.97 143.72 135.11 141.91 C 135.03 141.24 134.87 139.90 134.79 139.23 C 135.14 135.41 134.89 131.63 134.04 127.91 L 133.86 127.15 C 133.95 123.77 133.99 120.38 134.02 117.01 Z" />
</g>
<g id="#bdc26de1">
<path fill="#bdc26d" opacity="0.88" d=" M 172.02 116.98 L 172.97 117.01 C 173.03 120.66 173.10 124.34 172.96 128.00 L 172.03 128.00 C 171.98 126.08 171.91 124.16 171.75 122.25 C 171.85 120.49 171.96 118.73 172.02 116.98 Z" />
</g>
<g id="#79f8aaff">
<path fill="#79f8aa" opacity="1.00" d=" M 73.81 117.79 L 74.80 118.12 C 74.58 121.64 78.26 124.03 81.66 123.38 C 85.12 127.10 84.19 133.53 84.80 138.27 C 84.61 137.97 84.24 137.35 84.05 137.04 C 83.85 135.05 83.52 133.07 83.09 131.12 C 83.27 128.69 81.52 125.15 78.67 126.59 C 76.74 127.43 74.91 126.78 73.97 124.91 C 73.93 123.13 73.85 119.57 73.81 117.79 Z" />
</g>
<g id="#8af7b0ff">
<path fill="#8af7b0" opacity="1.00" d=" M 109.63 124.25 C 109.73 121.34 108.53 116.31 112.19 118.89 C 113.53 121.92 114.81 124.97 116.01 128.06 C 114.46 126.91 113.15 125.22 111.15 124.90 C 111.01 125.73 110.75 127.40 110.62 128.23 C 110.26 126.91 109.93 125.58 109.63 124.25 Z" />
</g>
<g id="#f8ec56ff">
<path fill="#f8ec56" opacity="1.00" d=" M 47.39 120.28 C 48.03 120.20 49.31 120.03 49.96 119.95 C 49.60 124.30 49.13 128.63 49.05 133.00 C 48.94 133.43 48.72 134.29 48.61 134.71 C 48.12 137.46 48.10 140.30 48.10 143.09 C 47.95 143.82 47.66 145.27 47.51 145.99 C 47.29 147.59 46.84 150.79 46.62 152.39 C 42.86 149.87 44.69 143.87 40.08 141.80 C 39.98 137.58 40.00 133.37 40.06 129.17 C 43.54 127.24 45.60 123.69 47.39 120.28 Z" />
</g>
<g id="#f58edbff">
<path fill="#f58edb" opacity="1.00" d=" M 94.66 138.92 C 95.80 132.57 95.55 123.32 103.00 121.01 C 105.70 121.51 106.81 124.02 107.55 126.37 C 110.11 137.43 112.30 148.58 114.00 159.80 C 113.28 159.85 111.82 159.96 111.09 160.01 C 110.50 151.26 108.84 142.62 106.82 134.11 C 106.27 132.04 105.12 129.70 103.00 128.94 C 97.69 131.59 97.64 138.73 96.75 143.76 C 96.20 148.53 95.06 153.67 96.71 158.35 L 97.02 159.34 C 96.49 159.29 95.43 159.18 94.90 159.12 C 93.06 155.04 94.52 150.34 94.19 146.06 C 95.77 143.70 95.93 141.32 94.66 138.92 Z" />
</g>
<g id="#9cf79aff">
<path fill="#9cf79a" opacity="1.00" d=" M 158.25 122.77 C 159.34 125.39 158.87 128.26 159.02 131.04 C 157.03 128.80 158.36 125.53 158.25 122.77 Z" />
</g>
<g id="#8bf974ff">
<path fill="#8bf974" opacity="1.00" d=" M 73.97 124.91 C 74.91 126.78 76.74 127.43 78.67 126.59 C 81.52 125.15 83.27 128.69 83.09 131.12 C 82.31 130.12 81.56 129.11 80.71 128.17 C 78.67 127.67 76.94 129.27 75.08 129.82 C 73.63 128.60 74.17 126.56 73.97 124.91 Z" />
</g>
<g id="#73f8e5ff">
<path fill="#73f8e5" opacity="1.00" d=" M 111.15 124.90 C 113.15 125.22 114.46 126.91 116.01 128.06 C 116.99 130.00 117.98 131.94 119.01 133.87 C 119.64 138.04 123.10 142.39 127.96 141.10 C 129.83 141.27 129.98 143.87 130.93 145.18 C 132.10 148.96 132.68 152.91 133.11 156.85 C 129.69 157.25 126.29 157.87 122.89 158.36 C 120.66 158.60 118.42 158.84 116.19 159.09 C 114.46 148.79 112.14 138.58 110.62 128.23 C 110.75 127.40 111.01 125.73 111.15 124.90 Z" />
</g>
<g id="#f8b280ff">
<path fill="#f8b280" opacity="1.00" d=" M 155.30 124.71 C 156.64 132.11 155.75 139.76 156.27 147.24 C 155.98 148.74 155.41 151.74 155.13 153.24 C 155.23 151.19 155.18 149.12 154.75 147.11 C 155.00 139.65 155.01 132.18 155.30 124.71 Z" />
</g>
<g id="#f79898ff">
<path fill="#f79898" opacity="1.00" d=" M 68.01 135.01 C 68.12 132.26 68.48 129.52 68.91 126.82 C 68.95 129.58 68.50 132.29 68.01 135.01 Z" />
<path fill="#f79898" opacity="1.00" d=" M 134.04 127.91 C 134.89 131.63 135.14 135.41 134.79 139.23 C 134.26 135.47 134.01 131.70 134.04 127.91 Z" />
</g>
<g id="#ddfa5dff">
<path fill="#ddfa5d" opacity="1.00" d=" M 72.04 138.22 C 72.02 134.40 72.22 130.59 72.67 126.80 C 73.00 128.55 72.69 130.66 74.19 131.94 C 76.42 131.78 78.57 130.94 80.82 131.04 C 82.08 132.94 82.86 135.10 84.05 137.04 C 84.24 137.35 84.61 137.97 84.80 138.27 C 84.94 138.89 85.21 140.12 85.35 140.74 C 85.20 142.61 84.91 146.35 84.76 148.22 C 82.89 144.30 83.39 139.03 79.76 136.14 C 76.82 135.22 74.99 139.63 72.04 138.22 Z" />
</g>
<g id="#4cd8d2e6">
<path fill="#4cd8d2" opacity="0.90" d=" M 172.03 128.00 L 172.96 128.00 C 172.99 135.98 173.15 143.98 172.95 151.96 L 171.99 152.08 C 171.95 150.80 171.89 149.52 171.83 148.24 C 172.12 141.49 171.96 134.74 172.03 128.00 Z" />
</g>
<g id="#efef64ff">
<path fill="#efef64" opacity="1.00" d=" M 96.75 143.76 C 97.64 138.73 97.69 131.59 103.00 128.94 C 105.12 129.70 106.27 132.04 106.82 134.11 C 108.84 142.62 110.50 151.26 111.09 160.01 C 109.73 160.03 108.37 160.04 107.01 160.02 C 106.67 155.67 107.71 151.10 106.34 146.87 C 105.72 144.51 105.59 139.60 102.19 140.10 C 98.08 145.52 99.64 153.24 98.02 159.54 L 97.02 159.34 L 96.71 158.35 C 96.87 153.48 97.04 148.62 96.75 143.76 Z" />
</g>
<g id="#79f8aeff">
<path fill="#79f8ae" opacity="1.00" d=" M 159.02 131.04 C 159.52 132.23 159.93 133.45 160.43 134.65 C 162.05 136.44 165.28 136.37 165.98 139.09 C 163.91 138.98 161.83 138.84 159.85 138.20 C 159.69 137.85 159.37 137.16 159.20 136.82 C 159.09 134.89 159.07 132.97 159.02 131.04 Z" />
</g>
<g id="#c8f873ff">
<path fill="#c8f873" opacity="1.00" d=" M 91.76 139.77 C 92.05 137.11 92.38 134.42 92.74 131.77 C 93.34 140.55 92.90 149.36 92.80 158.14 C 91.69 152.07 92.08 145.90 91.76 139.77 Z" />
</g>
<g id="#f974a8ff">
<path fill="#f974a8" opacity="1.00" d=" M 49.05 133.00 L 49.80 133.05 C 50.59 135.34 50.44 137.67 49.35 140.04 C 48.96 138.28 48.69 136.50 48.61 134.71 C 48.72 134.29 48.94 133.43 49.05 133.00 Z" />
</g>
<g id="#7cf8aeff">
<path fill="#7cf8ae" opacity="1.00" d=" M 119.01 133.87 C 120.02 134.94 120.95 136.09 121.90 137.23 C 123.43 140.50 126.67 137.38 128.98 136.82 C 129.64 138.26 130.23 139.74 130.87 141.20 C 130.90 142.52 130.92 143.85 130.93 145.18 C 129.98 143.87 129.83 141.27 127.96 141.10 C 123.10 142.39 119.64 138.04 119.01 133.87 Z" />
</g>
<g id="#f9ba73ff">
<path fill="#f9ba73" opacity="1.00" d=" M 48.10 143.09 C 48.10 140.30 48.12 137.46 48.61 134.71 C 48.69 136.50 48.96 138.28 49.35 140.04 C 49.22 140.79 48.96 142.31 48.84 143.06 L 48.10 143.09 Z" />
</g>
<g id="#f88e99ff">
<path fill="#f88e99" opacity="1.00" d=" M 66.93 143.02 C 67.10 140.33 67.52 137.65 68.01 135.01 C 67.90 137.71 67.52 140.37 66.93 143.02 Z" />
</g>
<g id="#f7f450ff">
<path fill="#f7f450" opacity="1.00" d=" M 72.04 138.22 C 74.99 139.63 76.82 135.22 79.76 136.14 C 83.39 139.03 82.89 144.30 84.76 148.22 C 85.49 151.09 88.05 156.82 84.10 157.17 C 83.63 157.11 82.69 157.00 82.22 156.94 C 81.45 154.15 80.41 151.43 78.90 148.95 C 73.61 147.99 73.59 156.73 68.03 155.10 C 67.47 155.07 66.37 154.99 65.81 154.95 C 66.02 152.99 66.47 151.06 67.20 149.23 C 69.14 145.71 70.19 141.79 72.04 138.22 Z" />
</g>
<g id="#93f972ff">
<path fill="#93f972" opacity="1.00" d=" M 121.90 137.23 C 124.11 137.43 127.50 135.09 128.98 136.82 C 126.67 137.38 123.43 140.50 121.90 137.23 Z" />
</g>
<g id="#e5f457fc">
<path fill="#e5f457" opacity="1.00" d=" M 159.20 136.82 C 159.37 137.16 159.69 137.85 159.85 138.20 C 159.88 138.68 159.94 139.65 159.97 140.14 C 159.14 144.41 163.02 143.86 165.79 143.06 C 167.22 145.39 168.46 147.83 169.95 150.13 C 170.23 150.56 170.78 151.43 171.06 151.86 C 166.10 153.65 160.13 153.22 154.84 153.97 L 155.13 153.24 C 155.41 151.74 155.98 148.74 156.27 147.24 C 157.57 143.87 159.03 140.48 159.20 136.82 Z" />
</g>
<g id="#82f97bff">
<path fill="#82f97b" opacity="1.00" d=" M 159.85 138.20 C 161.83 138.84 163.91 138.98 165.98 139.09 C 166.40 140.03 166.79 140.98 167.14 141.95 C 165.16 139.93 162.43 140.75 159.97 140.14 C 159.94 139.65 159.88 138.68 159.85 138.20 Z" />
</g>
<g id="#f4aaaaff">
<path fill="#f4aaaa" opacity="1.00" d=" M 94.19 146.06 C 93.17 143.69 93.32 141.32 94.66 138.92 C 95.93 141.32 95.77 143.70 94.19 146.06 Z" />
</g>
<g id="#83f3bbff">
<path fill="#83f3bb" opacity="1.00" d=" M 90.84 158.42 C 91.10 152.20 90.73 145.94 91.76 139.77 C 92.08 145.90 91.69 152.07 92.80 158.14 L 92.90 158.91 C 92.39 158.79 91.36 158.54 90.84 158.42 Z" />
</g>
<g id="#acf666ff">
<path fill="#acf666" opacity="1.00" d=" M 102.19 140.10 C 105.59 139.60 105.72 144.51 106.34 146.87 C 106.05 146.60 105.46 146.06 105.17 145.78 C 104.87 142.32 100.86 142.26 100.91 145.90 C 100.14 150.50 98.98 155.59 100.90 160.02 C 99.93 159.92 98.97 159.76 98.02 159.54 C 99.64 153.24 98.08 145.52 102.19 140.10 Z" />
</g>
<g id="#b6f965ff">
<path fill="#b6f965" opacity="1.00" d=" M 159.97 140.14 C 162.43 140.75 165.16 139.93 167.14 141.95 C 168.29 144.60 169.90 147.15 169.95 150.13 C 168.46 147.83 167.22 145.39 165.79 143.06 C 163.02 143.86 159.14 144.41 159.97 140.14 Z" />
</g>
<g id="#a0ef6df7">
<path fill="#a0ef6d" opacity="0.97" d=" M 85.35 140.74 C 86.70 146.41 86.79 152.31 87.89 158.03 C 86.84 157.63 83.56 159.01 84.10 157.17 C 88.05 156.82 85.49 151.09 84.76 148.22 C 84.91 146.35 85.20 142.61 85.35 140.74 Z" />
</g>
<g id="#d8f44afa">
<path fill="#d8f44a" opacity="0.98" d=" M 40.08 141.80 C 44.69 143.87 42.86 149.87 46.62 152.39 L 47.18 152.90 C 45.00 152.38 40.81 152.92 40.00 150.93 C 40.01 147.88 40.05 144.83 40.08 141.80 Z" />
</g>
<g id="#f7989dff">
<path fill="#f7989d" opacity="1.00" d=" M 135.11 141.91 C 136.97 143.72 137.19 146.12 135.79 149.11 C 134.12 147.17 133.89 144.77 135.11 141.91 Z" />
</g>
<g id="#f874adff">
<path fill="#f874ad" opacity="1.00" d=" M 48.10 143.09 L 48.84 143.06 C 49.47 145.35 49.35 147.67 48.48 150.02 C 48.11 148.69 47.79 147.34 47.51 145.99 C 47.66 145.27 47.95 143.82 48.10 143.09 Z" />
</g>
<g id="#f9808bff">
<path fill="#f9808b" opacity="1.00" d=" M 64.90 154.94 C 65.23 150.91 65.91 146.93 66.93 143.02 C 66.94 145.09 67.08 147.16 67.20 149.23 C 66.47 151.06 66.02 152.99 65.81 154.95 L 64.90 154.94 Z" />
</g>
<g id="#81f89aff">
<path fill="#81f89a" opacity="1.00" d=" M 100.91 145.90 C 100.86 142.26 104.87 142.32 105.17 145.78 C 103.76 145.15 102.28 145.16 100.91 145.90 Z" />
</g>
<g id="#f7bd82ff">
<path fill="#f7bd82" opacity="1.00" d=" M 96.71 158.35 C 95.06 153.67 96.20 148.53 96.75 143.76 C 97.04 148.62 96.87 153.48 96.71 158.35 Z" />
</g>
<g id="#75f8beff">
<path fill="#75f8be" opacity="1.00" d=" M 100.91 145.90 C 102.28 145.16 103.76 145.15 105.17 145.78 C 105.46 146.06 106.05 146.60 106.34 146.87 C 106.13 151.25 106.02 155.64 105.98 160.02 C 104.29 160.05 102.59 160.10 100.90 160.02 C 98.98 155.59 100.14 150.50 100.91 145.90 Z" />
</g>
<g id="#f7c368fe">
<path fill="#f7c368" opacity="1.00" d=" M 46.62 152.39 C 46.84 150.79 47.29 147.59 47.51 145.99 C 47.79 147.34 48.11 148.69 48.48 150.02 C 48.32 150.70 47.99 152.06 47.83 152.74 L 47.18 152.90 L 46.62 152.39 Z" />
</g>
<g id="#9df96dff">
<path fill="#9df96d" opacity="1.00" d=" M 106.34 146.87 C 107.71 151.10 106.67 155.67 107.01 160.02 L 105.98 160.02 C 106.02 155.64 106.13 151.25 106.34 146.87 Z" />
</g>
<g id="#f96daeff">
<path fill="#f96dae" opacity="1.00" d=" M 154.05 147.12 L 154.75 147.11 C 155.18 149.12 155.23 151.19 155.13 153.24 L 154.84 153.97 L 154.14 153.86 C 154.12 152.18 154.07 148.80 154.05 147.12 Z" />
</g>
<g id="#f7d442fb">
<path fill="#f7d442" opacity="1.00" d=" M 68.03 155.10 C 73.59 156.73 73.61 147.99 78.90 148.95 C 80.41 151.43 81.45 154.15 82.22 156.94 C 81.68 156.88 80.60 156.76 80.06 156.70 L 79.97 156.01 C 80.21 151.42 75.05 152.93 73.78 155.90 C 72.34 155.70 69.47 155.30 68.03 155.10 Z" />
</g>
<g id="#fca642ff">
<path fill="#fca642" opacity="1.00" d=" M 73.78 155.90 C 75.05 152.93 80.21 151.42 79.97 156.01 C 78.81 154.94 76.97 154.56 75.77 155.80 C 75.27 155.83 74.28 155.87 73.78 155.90 Z" />
</g>
<g id="#db6166e6">
<path fill="#db6166" opacity="0.90" d=" M 75.77 155.80 C 76.97 154.56 78.81 154.94 79.97 156.01 L 80.06 156.70 C 78.85 157.54 76.10 157.61 75.77 155.80 Z" />
</g>
<g id="#807697fc">
<path fill="#807697" opacity="1.00" d=" M 90.10 158.46 L 90.84 158.42 C 91.36 158.54 92.39 158.79 92.90 158.91 C 93.40 158.96 94.40 159.07 94.90 159.12 C 95.43 159.18 96.49 159.29 97.02 159.34 L 98.02 159.54 C 98.97 159.76 99.93 159.92 100.90 160.02 C 102.59 160.10 104.29 160.05 105.98 160.02 L 107.01 160.02 C 108.37 160.04 109.73 160.03 111.09 160.01 C 111.82 159.96 113.28 159.85 114.00 159.80 C 114.55 159.63 115.64 159.27 116.19 159.09 C 118.42 158.84 120.66 158.60 122.89 158.36 C 126.13 158.48 129.39 158.93 132.29 160.42 C 129.55 162.57 125.95 163.04 122.63 163.54 C 112.77 164.21 102.79 166.02 92.96 164.07 C 88.71 163.40 83.98 163.58 80.71 160.36 C 83.23 158.00 87.04 159.55 90.10 158.46 Z" />
</g>
<g id="#83609efd">
<path fill="#83609e" opacity="1.00" d=" M 69.83 161.21 C 73.37 160.58 77.22 159.21 80.71 160.36 C 83.98 163.58 88.71 163.40 92.96 164.07 C 102.79 166.02 112.77 164.21 122.63 163.54 C 125.95 163.04 129.55 162.57 132.29 160.42 C 140.04 159.86 148.08 162.01 155.98 162.08 L 155.96 162.95 C 141.03 164.73 126.17 167.05 111.32 169.39 C 100.72 172.17 89.70 170.99 78.97 169.92 L 79.14 170.82 C 84.55 171.06 89.86 172.32 95.00 174.00 C 84.48 173.17 74.06 171.33 63.80 168.95 C 65.63 165.44 69.66 165.96 72.94 165.06 C 71.90 163.77 70.84 162.51 69.83 161.21 Z" />
</g>
<g id="#7f5097fa">
<path fill="#7f5097" opacity="0.98" d=" M 41.02 164.10 C 50.66 163.78 60.33 161.57 69.83 161.21 C 70.84 162.51 71.90 163.77 72.94 165.06 C 69.66 165.96 65.63 165.44 63.80 168.95 C 60.05 169.13 56.46 167.92 52.83 167.20 C 49.22 166.70 45.59 166.35 41.97 166.01 L 41.03 165.90 C 41.03 165.45 41.02 164.55 41.02 164.10 Z" />
</g>
<g id="#9464b5fe">
<path fill="#9464b5" opacity="1.00" d=" M 111.32 169.39 C 126.17 167.05 141.03 164.73 155.96 162.95 C 161.34 162.59 166.63 163.57 171.95 164.13 C 171.73 164.59 171.29 165.50 171.07 165.96 C 149.35 168.29 128.06 174.41 106.25 175.88 C 102.59 174.72 98.82 174.17 95.00 174.00 C 89.86 172.32 84.55 171.06 79.14 170.82 L 78.97 169.92 C 89.70 170.99 100.72 172.17 111.32 169.39 Z" />
</g>
<g id="#4a353eff">
<path fill="#4a353e" opacity="1.00" d=" M 41.97 166.01 C 45.59 166.35 49.22 166.70 52.83 167.20 C 52.68 167.62 52.40 168.45 52.26 168.87 C 68.66 174.26 85.58 178.27 102.75 180.25 C 105.10 181.80 105.45 184.55 105.86 187.19 C 106.15 205.83 105.97 224.47 105.98 243.12 C 94.66 230.97 84.26 217.62 73.70 204.70 C 73.55 204.50 73.25 204.10 73.10 203.91 C 72.94 203.72 72.62 203.36 72.46 203.17 C 71.17 201.72 69.72 200.37 68.69 198.71 C 68.54 198.51 68.25 198.10 68.10 197.90 C 67.94 197.72 67.62 197.35 67.45 197.17 C 63.99 193.59 60.90 189.67 57.81 185.79 C 57.68 185.62 57.43 185.28 57.31 185.11 C 52.44 178.57 45.96 173.11 41.97 166.01 Z" />
</g>
<g id="#7f4d9eff">
<path fill="#7f4d9e" opacity="1.00" d=" M 106.25 175.88 C 128.06 174.41 149.35 168.29 171.07 165.96 C 166.68 171.95 161.85 177.78 156.88 183.25 C 156.72 183.41 156.40 183.72 156.24 183.87 C 155.41 185.05 154.47 186.14 153.51 187.21 C 153.34 187.40 152.99 187.79 152.81 187.98 C 152.59 188.21 152.14 188.68 151.92 188.91 C 151.69 189.14 151.23 189.59 151.01 189.82 C 150.84 190.04 150.51 190.48 150.35 190.70 C 149.89 191.33 148.97 192.59 148.51 193.22 C 148.33 193.41 147.99 193.80 147.82 193.99 C 147.60 194.22 147.15 194.68 146.92 194.91 C 146.69 195.14 146.23 195.59 146.01 195.82 C 145.84 196.04 145.51 196.48 145.35 196.70 C 144.89 197.33 143.97 198.59 143.51 199.22 C 143.33 199.41 142.99 199.80 142.82 200.00 C 142.59 200.23 142.14 200.70 141.91 200.93 C 141.66 201.18 141.18 201.66 140.94 201.91 C 140.70 202.14 140.24 202.61 140.00 202.84 C 139.81 203.09 139.43 203.60 139.24 203.85 L 138.60 205.07 C 138.41 205.30 138.02 205.75 137.83 205.98 C 137.60 206.22 137.14 206.70 136.91 206.93 C 136.67 207.18 136.18 207.66 135.94 207.91 C 135.70 208.14 135.24 208.61 135.00 208.84 C 134.81 209.09 134.43 209.60 134.24 209.85 L 133.60 211.07 C 133.41 211.29 133.03 211.74 132.84 211.96 C 132.63 212.18 132.20 212.62 131.99 212.84 C 131.83 213.05 131.50 213.48 131.34 213.70 C 130.58 215.00 129.51 216.08 128.52 217.21 C 128.34 217.40 128.00 217.78 127.82 217.97 C 127.61 218.18 127.20 218.62 126.99 218.83 C 126.83 219.05 126.50 219.48 126.34 219.70 C 125.58 221.00 124.51 222.08 123.52 223.21 C 123.34 223.40 123.00 223.78 122.82 223.97 C 122.61 224.18 122.20 224.62 121.99 224.83 C 121.83 225.05 121.50 225.48 121.34 225.70 C 120.58 227.00 119.50 228.08 118.52 229.21 C 118.34 229.40 117.99 229.79 117.81 229.98 C 117.59 230.21 117.14 230.68 116.92 230.91 C 116.69 231.14 116.23 231.59 116.01 231.82 C 115.84 232.04 115.51 232.48 115.35 232.70 C 114.89 233.33 113.97 234.59 113.51 235.22 C 113.33 235.41 112.99 235.80 112.82 235.99 C 112.60 236.22 112.15 236.68 111.92 236.91 C 111.69 237.14 111.23 237.59 111.00 237.82 C 110.84 238.04 110.51 238.48 110.35 238.70 C 109.89 239.31 108.98 240.54 108.52 241.16 C 108.36 241.36 108.05 241.77 107.90 241.97 C 105.41 220.37 108.44 198.43 106.32 176.77 L 106.25 175.88 Z" />
</g>
<g id="#503e44ff">
<path fill="#503e44" opacity="1.00" d=" M 52.83 167.20 C 56.46 167.92 60.05 169.13 63.80 168.95 C 74.06 171.33 84.48 173.17 95.00 174.00 C 98.60 175.48 102.39 175.87 106.25 175.88 L 106.32 176.77 C 106.17 180.23 105.97 183.72 105.86 187.19 C 105.45 184.55 105.10 181.80 102.75 180.25 C 85.58 178.27 68.66 174.26 52.26 168.87 C 52.40 168.45 52.68 167.62 52.83 167.20 Z" />
</g>
<g id="#7c5595ff">
<path fill="#7c5595" opacity="1.00" d=" M 95.00 174.00 C 98.82 174.17 102.59 174.72 106.25 175.88 C 102.39 175.87 98.60 175.48 95.00 174.00 Z" />
</g>
<g id="#592e73fe">
<path fill="#592e73" opacity="1.00" d=" M 106.32 176.77 C 108.44 198.43 105.41 220.37 107.90 241.97 L 108.02 242.91 C 107.51 242.96 106.49 243.06 105.98 243.12 C 105.97 224.47 106.15 205.83 105.86 187.19 C 105.97 183.72 106.17 180.23 106.32 176.77 Z" />
<path fill="#592e73" opacity="1.00" d=" M 152.81 187.98 C 152.99 187.79 153.34 187.40 153.51 187.21 C 153.34 187.40 152.99 187.79 152.81 187.98 Z" />
<path fill="#592e73" opacity="1.00" d=" M 151.92 188.91 C 152.14 188.68 152.59 188.21 152.81 187.98 C 152.59 188.21 152.14 188.68 151.92 188.91 Z" />
<path fill="#592e73" opacity="1.00" d=" M 147.82 193.99 C 147.99 193.80 148.33 193.41 148.51 193.22 C 148.33 193.41 147.99 193.80 147.82 193.99 Z" />
<path fill="#592e73" opacity="1.00" d=" M 146.92 194.91 C 147.15 194.68 147.60 194.22 147.82 193.99 C 147.60 194.22 147.15 194.68 146.92 194.91 Z" />
<path fill="#592e73" opacity="1.00" d=" M 142.82 200.00 C 142.99 199.80 143.33 199.41 143.51 199.22 C 143.33 199.41 142.99 199.80 142.82 200.00 Z" />
<path fill="#592e73" opacity="1.00" d=" M 141.91 200.93 C 142.14 200.70 142.59 200.23 142.82 200.00 C 142.59 200.23 142.14 200.70 141.91 200.93 Z" />
<path fill="#592e73" opacity="1.00" d=" M 137.83 205.98 C 138.02 205.75 138.41 205.30 138.60 205.07 C 138.41 205.30 138.02 205.75 137.83 205.98 Z" />
<path fill="#592e73" opacity="1.00" d=" M 136.91 206.93 C 137.14 206.70 137.60 206.22 137.83 205.98 C 137.60 206.22 137.14 206.70 136.91 206.93 Z" />
<path fill="#592e73" opacity="1.00" d=" M 132.84 211.96 C 133.03 211.74 133.41 211.29 133.60 211.07 C 133.41 211.29 133.03 211.74 132.84 211.96 Z" />
<path fill="#592e73" opacity="1.00" d=" M 131.99 212.84 C 132.20 212.62 132.63 212.18 132.84 211.96 C 132.63 212.18 132.20 212.62 131.99 212.84 Z" />
<path fill="#592e73" opacity="1.00" d=" M 127.82 217.97 C 128.00 217.78 128.34 217.40 128.52 217.21 C 128.34 217.40 128.00 217.78 127.82 217.97 Z" />
<path fill="#592e73" opacity="1.00" d=" M 126.99 218.83 C 127.20 218.62 127.61 218.18 127.82 217.97 C 127.61 218.18 127.20 218.62 126.99 218.83 Z" />
<path fill="#592e73" opacity="1.00" d=" M 126.34 219.70 C 126.50 219.48 126.83 219.05 126.99 218.83 C 126.83 219.05 126.50 219.48 126.34 219.70 Z" />
<path fill="#592e73" opacity="1.00" d=" M 122.82 223.97 C 123.00 223.78 123.34 223.40 123.52 223.21 C 123.34 223.40 123.00 223.78 122.82 223.97 Z" />
<path fill="#592e73" opacity="1.00" d=" M 121.99 224.83 C 122.20 224.62 122.61 224.18 122.82 223.97 C 122.61 224.18 122.20 224.62 121.99 224.83 Z" />
<path fill="#592e73" opacity="1.00" d=" M 121.34 225.70 C 121.50 225.48 121.83 225.05 121.99 224.83 C 121.83 225.05 121.50 225.48 121.34 225.70 Z" />
<path fill="#592e73" opacity="1.00" d=" M 117.81 229.98 C 117.99 229.79 118.34 229.40 118.52 229.21 C 118.34 229.40 117.99 229.79 117.81 229.98 Z" />
<path fill="#592e73" opacity="1.00" d=" M 116.92 230.91 C 117.14 230.68 117.59 230.21 117.81 229.98 C 117.59 230.21 117.14 230.68 116.92 230.91 Z" />
<path fill="#592e73" opacity="1.00" d=" M 116.01 231.82 C 116.23 231.59 116.69 231.14 116.92 230.91 C 116.69 231.14 116.23 231.59 116.01 231.82 Z" />
<path fill="#592e73" opacity="1.00" d=" M 115.35 232.70 C 115.51 232.48 115.84 232.04 116.01 231.82 C 115.84 232.04 115.51 232.48 115.35 232.70 Z" />
<path fill="#592e73" opacity="1.00" d=" M 112.82 235.99 C 112.99 235.80 113.33 235.41 113.51 235.22 C 113.33 235.41 112.99 235.80 112.82 235.99 Z" />
<path fill="#592e73" opacity="1.00" d=" M 111.92 236.91 C 112.15 236.68 112.60 236.22 112.82 235.99 C 112.60 236.22 112.15 236.68 111.92 236.91 Z" />
<path fill="#592e73" opacity="1.00" d=" M 111.00 237.82 C 111.23 237.59 111.69 237.14 111.92 236.91 C 111.69 237.14 111.23 237.59 111.00 237.82 Z" />
<path fill="#592e73" opacity="1.00" d=" M 110.35 238.70 C 110.51 238.48 110.84 238.04 111.00 237.82 C 110.84 238.04 110.51 238.48 110.35 238.70 Z" />
<path fill="#592e73" opacity="1.00" d=" M 107.90 241.97 C 108.05 241.77 108.36 241.36 108.52 241.16 C 108.36 241.36 108.05 241.77 107.90 241.97 Z" />
</g>
<g id="#6c4386ff">
<path fill="#6c4386" opacity="1.00" d=" M 156.24 183.87 C 156.40 183.72 156.72 183.41 156.88 183.25 C 156.72 183.41 156.40 183.72 156.24 183.87 Z" />
<path fill="#6c4386" opacity="1.00" d=" M 151.01 189.82 C 151.23 189.59 151.69 189.14 151.92 188.91 C 151.69 189.14 151.23 189.59 151.01 189.82 Z" />
<path fill="#6c4386" opacity="1.00" d=" M 150.35 190.70 C 150.51 190.48 150.84 190.04 151.01 189.82 C 150.84 190.04 150.51 190.48 150.35 190.70 Z" />
<path fill="#6c4386" opacity="1.00" d=" M 146.01 195.82 C 146.23 195.59 146.69 195.14 146.92 194.91 C 146.69 195.14 146.23 195.59 146.01 195.82 Z" />
<path fill="#6c4386" opacity="1.00" d=" M 145.35 196.70 C 145.51 196.48 145.84 196.04 146.01 195.82 C 145.84 196.04 145.51 196.48 145.35 196.70 Z" />
<path fill="#6c4386" opacity="1.00" d=" M 140.94 201.91 C 141.18 201.66 141.66 201.18 141.91 200.93 C 141.66 201.18 141.18 201.66 140.94 201.91 Z" />
<path fill="#6c4386" opacity="1.00" d=" M 140.00 202.84 C 140.24 202.61 140.70 202.14 140.94 201.91 C 140.70 202.14 140.24 202.61 140.00 202.84 Z" />
<path fill="#6c4386" opacity="1.00" d=" M 139.24 203.85 C 139.43 203.60 139.81 203.09 140.00 202.84 C 139.81 203.09 139.43 203.60 139.24 203.85 Z" />
<path fill="#6c4386" opacity="1.00" d=" M 135.94 207.91 C 136.18 207.66 136.67 207.18 136.91 206.93 C 136.67 207.18 136.18 207.66 135.94 207.91 Z" />
<path fill="#6c4386" opacity="1.00" d=" M 135.00 208.84 C 135.24 208.61 135.70 208.14 135.94 207.91 C 135.70 208.14 135.24 208.61 135.00 208.84 Z" />
<path fill="#6c4386" opacity="1.00" d=" M 134.24 209.85 C 134.43 209.60 134.81 209.09 135.00 208.84 C 134.81 209.09 134.43 209.60 134.24 209.85 Z" />
<path fill="#6c4386" opacity="1.00" d=" M 131.34 213.70 C 131.50 213.48 131.83 213.05 131.99 212.84 C 131.83 213.05 131.50 213.48 131.34 213.70 Z" />
</g>
<g id="#45264cff">
<path fill="#45264c" opacity="1.00" d=" M 57.31 185.11 C 57.43 185.28 57.68 185.62 57.81 185.79 C 57.68 185.62 57.43 185.28 57.31 185.11 Z" />
<path fill="#45264c" opacity="1.00" d=" M 67.45 197.17 C 67.62 197.35 67.94 197.72 68.10 197.90 C 67.94 197.72 67.62 197.35 67.45 197.17 Z" />
<path fill="#45264c" opacity="1.00" d=" M 68.10 197.90 C 68.25 198.10 68.54 198.51 68.69 198.71 C 68.54 198.51 68.25 198.10 68.10 197.90 Z" />
<path fill="#45264c" opacity="1.00" d=" M 72.46 203.17 C 72.62 203.36 72.94 203.72 73.10 203.91 C 72.94 203.72 72.62 203.36 72.46 203.17 Z" />
<path fill="#45264c" opacity="1.00" d=" M 73.10 203.91 C 73.25 204.10 73.55 204.50 73.70 204.70 C 73.55 204.50 73.25 204.10 73.10 203.91 Z" />
</g>
</svg>
