<?xml version="1.0" encoding="UTF-8"?>
<svg id="Layer_2" data-name="Layer 2" xmlns="http://www.w3.org/2000/svg" xmlns:xlink="http://www.w3.org/1999/xlink" viewBox="0 0 374.94 374.94">
  <defs>
    <style>
      .cls-1 {
        fill: url(#linear-gradient);
      }

      .cls-2 {
        fill: #fff;
      }
    </style>
    <linearGradient id="linear-gradient" x1="47.05" y1="337.63" x2="310.13" y2="56.29" gradientUnits="userSpaceOnUse">
      <stop offset=".13" stop-color="#009fe3"/>
      <stop offset=".94" stop-color="#1e3d8c"/>
    </linearGradient>
  </defs>
  <g id="Layer_1-2" data-name="Layer 1">
    <g>
      <circle class="cls-1" cx="187.47" cy="187.47" r="187.47"/>
      <g>
        <path class="cls-2" d="M183.3,81.93c.17-1.54-.94-2.92-2.48-3.09l-.4-.04c-1.54-.17-2.92.94-3.09,2.48l-2.29,20.92,6.03.1,2.23-20.37Z"/>
        <path class="cls-2" d="M206.29,219.56c6.03-.05,55.22-1.67,59.63-56.15.48-5.88-1.54-60.64-55.37-60.64h-16.97l-4.27,38.93h16.5c10.7,0,19.37,8.67,19.37,19.37s-8.67,19.37-19.37,19.37h-.05c-1.58,0-3.15.06-4.69.19h-16.02l-7.38,67.26-5.54-5.33-2.71,25.61c-.17,1.54.94,2.92,2.48,3.09l.4.04c1.54.17,2.92-.94,3.09-2.48l2.29-20.87c18.15,17.52,46.71,43.87,59.09,48.71,18.86,7.37,40.67,4.34,49.21,1.9l-79.69-79Z"/>
        <path class="cls-2" d="M138.53,207.27h0s23,24.67,23,24.67l6.42-50.89-40.06-.51c0,10.35,4.05,19.75,10.64,26.72Z"/>
        <path class="cls-2" d="M196.02,81.93c.17-1.54-.94-2.92-2.48-3.09l-.4-.04c-1.54-.17-2.92.94-3.09,2.48l-2.29,20.92,6.03.1,2.23-20.37Z"/>
        <path class="cls-2" d="M157.63,266.19c-.17,1.54.94,2.92,2.48,3.09l.4.04c1.54.17,2.92-.94,3.09-2.48l2.81-30.23-5.59-5.36-3.19,34.93Z"/>
        <path class="cls-2" d="M175.05,102.77h-86.09c0,21.5,17.43,38.93,38.93,38.93h42.89l4.27-38.93Z"/>
      </g>
    </g>
  </g>
</svg>