<?xml version="1.0" encoding="UTF-8"?>
<svg id="Layer_2" data-name="Layer 2" xmlns="http://www.w3.org/2000/svg" xmlns:xlink="http://www.w3.org/1999/xlink" viewBox="0 0 374.94 374.94">
  <defs>
    <style>
      .cls-1 {
        fill: url(#linear-gradient);
      }

      .cls-2 {
        fill: #fff;
      }
    </style>
    <linearGradient id="linear-gradient" x1="47.05" y1="337.63" x2="310.13" y2="56.29" gradientUnits="userSpaceOnUse">
      <stop offset=".13" stop-color="#009fe3"/>
      <stop offset=".94" stop-color="#1e3d8c"/>
    </linearGradient>
  </defs>
  <g id="Layer_1-2" data-name="Layer 1">
    <g>
      <circle class="cls-1" cx="187.47" cy="187.47" r="187.47"/>
      <path class="cls-2" d="M227.58,261.96c-35.1,7.19-69.48-11.78-82.93-43.56,24.61-.09,51.97-1.17,58.32-5.92,7.61-5.69,13.2-16.99,14.96-22.08l-50.58.47h-28.54c-.02-1.29-.02-2.58.02-3.87-.09-2.69-.03-5.4.18-8.12,25.9.06,57.12-.81,63.96-5.92,7.61-5.69,13.2-16.99,14.96-22.08l-50.58.47h-20.73c14.61-29.19,47.45-46.17,80.96-39.3,15.79,3.23,29.36,11.28,39.5,22.29,0,0,30.61-45.73-31.45-61.58-58.33-11.95-115.37,22.93-132.13,78.9-4.19.46-10.52,1.71-15.26,5.06-7.73,5.46-15.68,21.8-17.44,26.88,0,0,12.72-3.81,28.01-4.84-.14,2.76-.19,5.5-.14,8.24-.03,1.65-.02,3.3.01,4.96-3.46.76-7.3,2.05-10.45,4.27-7.73,5.46-15.68,21.8-17.44,26.88,0,0,14.71-4.4,31.51-5.02,15.08,58.44,73.53,95.39,133.32,83.14,62.06-15.85,31.45-61.58,31.45-61.58-10.15,11.01-23.72,19.06-39.5,22.29Z"/>
    </g>
  </g>
</svg>