<?xml version="1.0" encoding="UTF-8"?>
<svg id="Layer_2" data-name="Layer 2" xmlns="http://www.w3.org/2000/svg" xmlns:xlink="http://www.w3.org/1999/xlink" viewBox="0 0 374.94 374.94">
  <defs>
    <style>
      .cls-1 {
        fill: url(#linear-gradient);
      }

      .cls-2 {
        fill: #fff;
      }
    </style>
    <linearGradient id="linear-gradient" x1="47.05" y1="337.63" x2="310.13" y2="56.29" gradientUnits="userSpaceOnUse">
      <stop offset=".13" stop-color="#009fe3"/>
      <stop offset=".94" stop-color="#1e3d8c"/>
    </linearGradient>
  </defs>
  <g id="Layer_1-2" data-name="Layer 1">
    <g>
      <circle class="cls-1" cx="187.47" cy="187.47" r="187.47"/>
      <g>
        <path class="cls-2" d="M171.02,199.34c3.63,2.24,6.26,4.49,8.13,6.69l6.19-56.42c-4.16-1.29-8.15-2.35-11.78-3.19,2.5-.13,5.04-.19,7.59-.16,1.51.02,3.03.05,4.55.08l5.51-50.28-8.7.02s-17.48-.24-28.77,9.86-22.9,40.32-25.48,49.73c0,0,.07-.03.18-.07-2.91,12.68,22.87,31.56,42.58,43.73Z"/>
        <path class="cls-2" d="M171.15,278.99l5.54-50.47c-.28.26-.45.4-.45.4l-.18.11-11.99.15s-23.45,1.74-35.18,11.84c-11.73,10.1-27.72,29.46-30.4,38.86l63.63-.87h0s9.04-.03,9.04-.03Z"/>
        <path class="cls-2" d="M197.19,96.05l-6.03-.1,2.29-20.92c.17-1.54,1.55-2.65,3.09-2.48l.4.04c1.54.17,2.65,1.55,2.48,3.09l-2.23,20.37Z"/>
        <g>
          <path class="cls-2" d="M197.36,153.93c-2.07-.85-4.15-1.65-6.2-2.38l-13.97,127.42,6.46-.02,13.71-125.03Z"/>
          <path class="cls-2" d="M237.36,188.93c-5.98-15.26-19.69-25.56-34.24-32.46l-13.39,122.09c6.32-.76,16.5-2.98,24.03-9.47,11.29-9.72,19.38-29.83,22.36-39.72,5.16-12.24,6.89-26.02,1.24-40.44Z"/>
        </g>
        <path class="cls-2" d="M209.91,96.05l-6.03-.1,2.29-20.92c.17-1.54,1.55-2.65,3.09-2.48l.4.04c1.54.17,2.65,1.55,2.48,3.09l-2.23,20.37Z"/>
        <path class="cls-2" d="M183.44,278.89l6.03.1-2.29,20.92c-.17,1.54-1.55,2.65-3.09,2.48l-.4-.04c-1.54-.17-2.65-1.55-2.48-3.09l2.23-20.37Z"/>
        <path class="cls-2" d="M170.72,278.89l6.03.1-2.29,20.92c-.17,1.54-1.55,2.65-3.09,2.48l-.4-.04c-1.54-.17-2.65-1.55-2.48-3.09l2.23-20.37Z"/>
        <g>
          <path class="cls-2" d="M209.76,95.95l-5.58,50.92c20.14.43,39.42-.45,50.43-10.87,11.12-10.52,19.27-31.43,21.85-40.84l-66.69.79Z"/>
          <path class="cls-2" d="M203.71,96.02h-1.13s0,.02,0,.02l-5.33.02-5.53,50.46c2.14.07,4.29.13,6.44.2l5.56-50.69Z"/>
        </g>
      </g>
    </g>
  </g>
</svg>