<svg width="1890" height="1890" viewBox="0 0 1890 1890" fill="none" xmlns="http://www.w3.org/2000/svg">
<g clip-path="url(#clip0_66_1505)">
<path d="M944.57 1889.14C1466.24 1889.14 1889.14 1466.24 1889.14 944.57C1889.14 422.898 1466.24 0 944.57 0C422.898 0 0 422.898 0 944.57C0 1466.24 422.898 1889.14 944.57 1889.14Z" fill="white"/>
<path d="M1276.44 521.58L266.762 1105.18L603.516 1299.38L1613.18 715.779L1276.44 521.58Z" fill="#3D587B"/>
<path d="M1613.37 1104.51L1613.19 715.762L1276.63 910.314L1276.84 1299.04L1613.37 1104.51Z" fill="#D5F6FF"/>
<path d="M939.894 716.1L603.143 521.902L603.327 910.637L939.894 716.1Z" fill="#5A7B92"/>
<path d="M1276.84 1299.04L1276.62 910.306L940.088 1104.84L1276.84 1299.04Z" fill="#5A7B92"/>
<path d="M603.327 910.636L603.142 521.902L266.58 716.438L266.766 1105.17L603.327 910.636Z" fill="#AAEEFF"/>
</g>
<defs>
<clipPath id="clip0_66_1505">
<rect width="1890" height="1890" fill="white"/>
</clipPath>
</defs>
</svg>
