<svg width="32" height="32" viewBox="0 0 32 32" fill="none" xmlns="http://www.w3.org/2000/svg">
<rect width="32" height="32" fill="black"/>
<path fill-rule="evenodd" clip-rule="evenodd" d="M15.9977 6.36682C16.3744 6.36682 16.7118 6.19025 16.9276 5.91558C17.0885 5.71546 17.1827 5.46041 17.1827 5.18574C17.1827 4.82474 17.0218 4.50102 16.7628 4.28521C16.5568 4.10864 16.288 4.00073 15.9977 4.00073C15.7073 4.00073 15.4385 4.10668 15.2325 4.28521C14.9775 4.50102 14.8166 4.82474 14.8166 5.18574C14.8166 5.46041 14.9108 5.71546 15.0677 5.91558C15.2835 6.19025 15.619 6.36682 15.9977 6.36682ZM8.36062 9.06981L7.11021 8.03945C8.79052 6.17179 11.0224 4.8735 13.4703 4.33763L13.7353 5.93932C11.6722 6.40623 9.78967 7.50161 8.36259 9.06981H8.36062ZM8.36099 22.9286L7.11021 23.9589C8.78905 25.8266 11.0216 27.1249 13.4702 27.6607L13.7353 26.0591C11.6716 25.5921 9.7885 24.4968 8.36099 22.9286ZM18.2652 26.0591L18.5303 27.6607C20.9788 27.1229 23.2114 25.8266 24.8903 23.9589L23.6375 22.9286C22.2139 24.4968 20.3309 25.5902 18.2652 26.0591ZM15.9975 25.634C16.3035 25.634 16.5841 25.7517 16.794 25.9479H16.796C17.0334 26.1637 17.1825 26.4737 17.1825 26.819C17.1825 27.0996 17.0863 27.3566 16.9176 27.5606C16.7018 27.8294 16.3683 28.0001 15.9975 28.0001C15.6267 28.0001 15.2931 27.8294 15.0773 27.5606C14.9125 27.3585 14.8164 27.0996 14.8164 26.819C14.8164 26.4737 14.9655 26.1637 15.2009 25.9479C15.4128 25.7498 15.6914 25.634 15.9975 25.634ZM18.5303 4.33763L18.2652 5.93932C20.3309 6.4082 22.2139 7.50161 23.6375 9.06981L24.8903 8.03945C23.2114 6.17179 20.9788 4.87547 18.5303 4.33763ZM27.4324 19.6849L25.919 19.1162C26.5452 17.089 26.5452 14.9083 25.9033 12.889L27.4187 12.3163C28.1881 14.7056 28.192 17.2917 27.4324 19.6849ZM26.4623 20.6059C26.2523 20.4097 25.9718 20.292 25.6657 20.292C25.3597 20.292 25.0811 20.4077 24.8692 20.6059C24.6338 20.8217 24.4846 21.1317 24.4846 21.477C24.4846 21.7575 24.5808 22.0165 24.7456 22.2186C24.9614 22.4874 25.2949 22.6581 25.6657 22.6581C26.0365 22.6581 26.3701 22.4874 26.5859 22.2186C26.7546 22.0145 26.8507 21.7575 26.8507 21.477C26.8507 21.1317 26.7016 20.8217 26.4642 20.6059H26.4623ZM25.6659 9.34131C25.972 9.34131 26.2525 9.45902 26.4625 9.65521H26.4644C26.7018 9.87103 26.8509 10.181 26.8509 10.5263C26.8509 10.8069 26.7548 11.0639 26.5861 11.2679C26.3702 11.5367 26.0367 11.7074 25.6659 11.7074C25.2951 11.7074 24.9616 11.5367 24.7458 11.2679C24.581 11.0658 24.4848 10.8069 24.4848 10.5263C24.4848 10.181 24.6339 9.87103 24.8694 9.65521C25.0813 9.45706 25.3599 9.34131 25.6659 9.34131ZM6.08046 19.1162L4.56705 19.6849C3.80741 17.2917 3.81133 14.7056 4.58079 12.3163L6.09617 12.889C5.45429 14.9083 5.45429 17.089 6.08046 19.1162ZM6.33069 20.292C6.63675 20.292 6.9173 20.4097 7.12723 20.6059H7.12919C7.36659 20.8217 7.51569 21.1317 7.51569 21.477C7.51569 21.7575 7.41956 22.0145 7.25083 22.2186C7.03502 22.4874 6.70149 22.6581 6.33069 22.6581C5.95988 22.6581 5.62635 22.4874 5.41054 22.2186C5.24574 22.0165 5.14961 21.7575 5.14961 21.477C5.14961 21.1317 5.29871 20.8217 5.53414 20.6059C5.74603 20.4077 6.02463 20.292 6.33069 20.292ZM7.12723 9.65521C6.9173 9.45902 6.63675 9.34131 6.33069 9.34131C6.02463 9.34131 5.74603 9.45706 5.53414 9.65521C5.29871 9.87103 5.14961 10.181 5.14961 10.5263C5.14961 10.8069 5.24574 11.0658 5.41054 11.2679C5.62635 11.5367 5.95988 11.7074 6.33069 11.7074C6.70149 11.7074 7.03502 11.5367 7.25083 11.2679C7.41956 11.0639 7.51569 10.8069 7.51569 10.5263C7.51569 10.181 7.36659 9.87103 7.12919 9.65521H7.12723ZM14.5915 17.0103C14.4795 16.9462 14.4107 16.8277 14.4107 16.6995V15.3007C14.4107 15.1725 14.4775 15.054 14.5915 14.9899L15.8165 14.2905C15.9285 14.2264 16.0681 14.2264 16.1782 14.2905L17.4071 14.9899C17.5172 15.054 17.588 15.1725 17.588 15.3007V16.6995C17.588 16.8277 17.5172 16.9462 17.4071 17.0103L16.1782 17.7097C16.0681 17.7738 15.9305 17.7738 15.8165 17.7097L14.5915 17.0103ZM16.794 21.3178C16.5841 21.1216 16.3035 21.0039 15.9975 21.0039C15.6914 21.0039 15.4128 21.1196 15.2009 21.3178C14.9655 21.5336 14.8164 21.8436 14.8164 22.1889C14.8164 22.4694 14.9125 22.7284 15.0773 22.9305C15.2931 23.1993 15.6267 23.3699 15.9975 23.3699C16.3683 23.3699 16.7018 23.1993 16.9176 22.9305C17.0863 22.7264 17.1825 22.4694 17.1825 22.1889C17.1825 21.8436 17.0334 21.5336 16.796 21.3178H16.794ZM15.9975 8.63089C16.3683 8.63089 16.7018 8.80172 16.9176 9.07269C17.0863 9.27494 17.1825 9.53413 17.1825 9.81492C17.1825 10.1566 17.0334 10.4668 16.7979 10.6828C16.588 10.8772 16.3075 10.997 15.9975 10.997C15.6875 10.997 15.4109 10.8772 15.197 10.6828C14.9616 10.4668 14.8164 10.1566 14.8164 9.81492C14.8164 9.53413 14.9125 9.2769 15.0773 9.07269C15.2931 8.80172 15.6267 8.63089 15.9975 8.63089ZM18.9627 9.64598L18.3992 11.1523C22.3177 13.1253 22.3158 18.8779 18.3992 20.849L18.9627 22.3553C24.2525 19.8467 24.2486 12.1506 18.9627 9.64598ZM13.6002 11.1523L13.0368 9.64598C7.75078 12.1506 7.74687 19.8467 13.0368 22.3553L13.6002 20.849C9.68363 18.8779 9.68167 13.1253 13.6002 11.1523Z" fill="white"/>
</svg>
