<svg width="400" height="400" viewBox="0 0 400 400" fill="none" xmlns="http://www.w3.org/2000/svg">
<rect width="400" height="400" rx="200" fill="#161627"/>
<path fill-rule="evenodd" clip-rule="evenodd" d="M199.974 81.1835C204.62 81.1835 208.782 79.0056 211.444 75.6178C213.428 73.1496 214.59 70.0037 214.59 66.6159C214.59 62.1634 212.606 58.1706 209.411 55.5088C206.87 53.3309 203.555 52 199.974 52C196.392 52 193.077 53.3067 190.536 55.5088C187.391 58.1706 185.406 62.1634 185.406 66.6159C185.406 70.0037 186.568 73.1496 188.504 75.6178C191.166 79.0056 195.304 81.1835 199.974 81.1835ZM105.778 114.52L90.3554 101.812C111.08 78.7772 138.609 62.7646 168.801 56.1554L172.069 75.91C146.623 81.6687 123.404 95.1787 105.802 114.52H105.778ZM105.783 285.449L90.3554 298.157C111.062 321.192 138.599 337.204 168.8 343.813L172.069 324.059C146.615 318.3 123.39 304.79 105.783 285.449ZM227.942 324.059L231.212 343.813C261.412 337.18 288.949 321.192 309.656 298.157L294.205 285.449C276.646 304.79 253.42 318.276 227.942 324.059ZM199.972 318.816C203.747 318.816 207.207 320.268 209.796 322.688H209.821C212.749 325.35 214.588 329.173 214.588 333.432C214.588 336.893 213.402 340.063 211.321 342.58C208.659 345.895 204.545 348 199.972 348C195.398 348 191.285 345.895 188.623 342.58C186.59 340.087 185.404 336.893 185.404 333.432C185.404 329.173 187.243 325.35 190.147 322.688C192.761 320.244 196.197 318.816 199.972 318.816ZM231.212 56.1554L227.942 75.91C253.42 81.693 276.646 95.1787 294.205 114.52L309.656 101.812C288.949 78.7772 261.412 62.7889 231.212 56.1554ZM341.011 245.443L322.344 238.428C330.068 213.425 330.068 186.53 322.151 161.624L340.841 154.561C350.332 184.029 350.381 215.926 341.011 245.443ZM329.045 256.802C326.456 254.382 322.996 252.93 319.221 252.93C315.446 252.93 312.01 254.358 309.396 256.802C306.492 259.464 304.653 263.287 304.653 267.546C304.653 271.006 305.839 274.2 307.872 276.693C310.534 280.008 314.647 282.113 319.221 282.113C323.794 282.113 327.908 280.008 330.57 276.693C332.651 274.176 333.837 271.006 333.837 267.546C333.837 263.287 331.998 259.464 329.07 256.802H329.045ZM319.222 117.869C322.997 117.869 326.457 119.321 329.047 121.741H329.071C331.999 124.403 333.838 128.226 333.838 132.485C333.838 135.945 332.652 139.115 330.571 141.632C327.909 144.947 323.796 147.053 319.222 147.053C314.649 147.053 310.535 144.947 307.873 141.632C305.84 139.14 304.655 135.945 304.655 132.485C304.655 128.226 306.494 124.403 309.397 121.741C312.011 119.297 315.447 117.869 319.222 117.869ZM77.6546 238.428L58.9881 245.443C49.6185 215.926 49.6669 184.029 59.1575 154.561L77.8482 161.624C69.9313 186.53 69.9313 213.425 77.6546 238.428ZM80.7406 252.93C84.5156 252.93 87.976 254.382 90.5652 256.802H90.5894C93.5175 259.464 95.3566 263.287 95.3566 267.546C95.3566 271.006 94.1708 274.176 92.0897 276.693C89.4279 280.008 85.3141 282.113 80.7406 282.113C76.1671 282.113 72.0533 280.008 69.3915 276.693C67.3588 274.2 66.1731 271.006 66.1731 267.546C66.1731 263.287 68.0121 259.464 70.916 256.802C73.5294 254.358 76.9656 252.93 80.7406 252.93ZM90.5642 121.741C87.9749 119.321 84.5145 117.869 80.7396 117.869C76.9646 117.869 73.5284 119.297 70.9149 121.741C68.0111 124.403 66.172 128.226 66.172 132.485C66.172 135.945 67.3578 139.14 69.3904 141.632C72.0523 144.947 76.166 147.053 80.7396 147.053C85.3131 147.053 89.4269 144.947 92.0887 141.632C94.1698 139.115 95.3555 135.945 95.3555 132.485C95.3555 128.226 93.5164 124.403 90.5884 121.741H90.5642ZM182.63 212.455C181.248 211.665 180.399 210.203 180.399 208.622V191.37C180.399 189.789 181.224 188.327 182.63 187.536L197.738 178.91C199.121 178.12 200.843 178.12 202.201 178.91L217.357 187.536C218.715 188.327 219.588 189.789 219.588 191.37V208.622C219.588 210.203 218.715 211.665 217.357 212.455L202.201 221.081C200.843 221.872 199.145 221.872 197.738 221.081L182.63 212.455ZM209.796 265.582C207.207 263.162 203.747 261.71 199.972 261.71C196.197 261.71 192.761 263.138 190.147 265.582C187.243 268.244 185.404 272.067 185.404 276.326C185.404 279.786 186.59 282.98 188.623 285.473C191.285 288.788 195.398 290.893 199.972 290.893C204.545 290.893 208.659 288.788 211.321 285.473C213.402 282.956 214.588 279.786 214.588 276.326C214.588 272.067 212.749 268.244 209.821 265.582H209.796ZM199.972 109.107C204.545 109.107 208.659 111.214 211.321 114.556C213.402 117.05 214.588 120.247 214.588 123.711C214.588 127.925 212.749 131.751 209.845 134.415C207.256 136.813 203.795 138.29 199.972 138.29C196.148 138.29 192.736 136.813 190.099 134.415C187.195 131.751 185.404 127.925 185.404 123.711C185.404 120.247 186.59 117.075 188.623 114.556C191.285 111.214 195.398 109.107 199.972 109.107ZM236.544 121.626L229.595 140.204C277.926 164.539 277.902 235.489 229.595 259.8L236.544 278.378C301.79 247.439 301.742 152.517 236.544 121.626ZM170.404 140.204L163.454 121.626C98.2567 152.517 98.2084 247.439 163.454 278.378L170.404 259.8C122.096 235.489 122.072 164.539 170.404 140.204Z" fill="white"/>
</svg>
