<svg id="svg" version="1.1" xmlns="http://www.w3.org/2000/svg" xmlns:xlink="http://www.w3.org/1999/xlink" width="400" height="400" viewBox="0, 0, 400,400"><g id="svgg"><path id="path0" d="M185.600 26.474 C 181.413 26.829,175.374 27.623,171.200 28.366 C 169.990 28.581,167.380 29.030,165.400 29.364 C 160.758 30.146,156.714 31.006,154.200 31.746 C 153.100 32.069,149.680 33.068,146.600 33.965 C 143.520 34.863,140.687 35.777,140.305 35.998 C 139.923 36.219,139.403 36.400,139.149 36.400 C 138.895 36.400,137.948 36.741,137.044 37.157 C 136.140 37.574,134.140 38.400,132.600 38.994 C 127.687 40.887,126.756 41.315,118.404 45.523 C 113.896 47.794,109.653 50.075,108.974 50.593 C 108.295 51.111,106.673 52.104,105.370 52.801 C 104.066 53.497,102.370 54.559,101.600 55.160 C 100.830 55.761,98.940 57.093,97.400 58.120 C 92.206 61.583,83.240 68.768,83.216 69.487 C 83.207 69.755,82.364 70.565,81.342 71.287 C 78.301 73.435,73.638 78.002,71.351 81.071 C 70.174 82.651,68.871 84.050,68.456 84.182 C 67.480 84.492,61.602 91.329,57.600 96.808 C 56.830 97.862,55.690 99.417,55.068 100.262 C 54.445 101.108,52.523 104.050,50.798 106.800 C 49.072 109.550,47.257 112.430,46.765 113.200 C 45.319 115.462,41.359 123.075,39.795 126.600 C 39.405 127.480,38.379 129.708,37.515 131.550 C 36.651 133.393,35.307 136.813,34.529 139.150 C 33.751 141.488,32.770 144.162,32.350 145.093 C 31.930 146.024,30.766 149.894,29.764 153.693 C 28.761 157.492,27.770 161.230,27.561 162.000 C 26.642 165.391,25.392 173.286,24.807 179.400 C 24.575 181.820,24.208 185.690,23.992 188.000 C 23.294 195.442,23.590 213.900,24.400 213.400 C 24.556 213.303,24.594 213.696,24.484 214.272 C 24.328 215.091,24.406 215.246,24.842 214.983 C 25.308 214.702,25.306 214.762,24.832 215.346 C 24.383 215.900,24.375 216.020,24.796 215.923 C 25.184 215.833,25.619 217.411,26.413 221.800 C 40.827 301.411,100.136 359.011,177.547 368.578 C 273.921 380.489,359.802 312.429,372.852 213.800 C 372.881 213.580,373.021 214.030,373.161 214.800 C 373.302 215.570,373.299 216.290,373.154 216.400 C 372.905 216.590,372.000 223.868,372.000 225.682 C 372.000 227.948,372.779 225.251,373.005 222.200 C 373.087 221.100,373.375 219.030,373.645 217.600 C 374.360 213.818,374.368 187.957,373.656 182.200 C 373.102 177.714,372.235 172.277,371.617 169.400 C 371.427 168.520,371.076 166.630,370.835 165.200 C 370.595 163.770,370.221 161.880,370.005 161.000 C 369.789 160.120,369.233 157.780,368.771 155.800 C 368.309 153.820,367.786 152.020,367.608 151.800 C 367.431 151.580,366.898 149.960,366.423 148.200 C 365.948 146.440,365.403 144.640,365.211 144.200 C 365.019 143.760,364.502 142.320,364.060 141.000 C 363.380 138.964,361.750 134.819,360.442 131.800 C 358.960 128.379,354.088 118.395,353.610 117.800 C 353.434 117.580,352.570 116.050,351.691 114.400 C 348.622 108.641,341.981 98.742,337.468 93.200 C 335.945 91.330,333.886 88.769,332.892 87.509 C 331.898 86.249,330.759 85.114,330.359 84.987 C 329.960 84.860,328.915 83.855,328.038 82.752 C 327.160 81.650,325.982 80.387,325.421 79.945 C 324.859 79.503,324.400 78.916,324.400 78.639 C 324.400 78.133,319.671 73.616,317.359 71.914 C 316.677 71.411,315.134 70.010,313.930 68.800 C 311.453 66.310,308.707 63.988,305.855 61.974 C 304.785 61.218,302.085 59.300,299.855 57.711 C 297.625 56.123,294.990 54.341,294.000 53.753 C 293.010 53.164,291.043 51.944,289.630 51.041 C 286.608 49.112,282.860 47.104,277.600 44.599 C 275.510 43.604,273.530 42.640,273.200 42.457 C 271.565 41.552,270.873 41.215,269.400 40.607 C 268.520 40.243,267.440 39.791,267.000 39.601 C 266.560 39.412,265.120 38.874,263.800 38.406 C 262.480 37.938,260.634 37.188,259.698 36.741 C 258.761 36.293,257.141 35.689,256.098 35.399 C 255.054 35.109,252.310 34.307,250.000 33.617 C 244.093 31.853,240.096 30.779,238.000 30.395 C 233.470 29.564,223.989 27.890,222.000 27.570 C 213.258 26.165,195.537 25.631,185.600 26.474 M207.000 44.403 C 268.393 47.941,321.799 85.832,343.712 141.400 C 360.262 183.368,355.066 241.093,331.398 278.200 C 330.697 279.300,329.330 281.456,328.361 282.992 C 295.498 335.081,228.927 362.318,166.657 349.150 C 86.291 332.157,35.046 257.706,45.824 173.600 C 54.669 104.574,117.234 48.443,189.800 44.430 C 198.024 43.975,199.525 43.972,207.000 44.403 M191.200 73.434 C 108.425 80.469,54.873 157.971,78.191 236.986 C 89.155 274.137,117.711 304.715,154.600 318.806 C 186.183 330.870,224.988 328.929,255.251 313.772 C 335.653 273.503,349.771 164.784,282.391 104.780 C 258.083 83.133,222.204 70.800,191.200 73.434 M212.338 76.204 C 283.138 84.113,332.990 149.964,321.383 220.241 C 309.094 294.639,235.010 341.047,163.200 319.329 C 100.168 300.267,62.857 234.350,78.778 170.183 C 93.760 109.796,151.206 69.375,212.338 76.204 M197.800 97.628 C 193.648 98.857,191.417 104.856,194.165 107.402 L 195.200 108.362 195.200 120.948 C 195.200 134.208,195.148 134.800,193.981 134.800 C 192.929 134.800,192.828 135.124,192.763 138.698 C 192.670 143.853,192.822 143.902,186.295 136.579 C 185.500 135.688,183.174 133.246,181.125 131.154 C 179.076 129.061,175.340 125.111,172.822 122.375 C 162.314 110.956,161.641 110.400,158.331 110.400 C 153.563 110.400,148.700 116.973,152.600 118.147 C 153.260 118.345,154.250 118.670,154.800 118.868 C 155.350 119.066,159.670 123.310,164.400 128.298 C 169.130 133.287,175.295 139.736,178.100 142.630 C 183.075 147.764,183.200 147.936,183.200 149.666 C 183.200 151.571,182.683 152.400,181.495 152.400 C 180.952 152.400,180.784 152.644,180.875 153.300 L 181.000 154.200 158.142 154.400 C 136.091 154.593,135.250 154.628,134.342 155.393 C 130.722 158.440,130.000 161.580,132.792 162.138 C 133.463 162.273,135.045 162.881,136.306 163.491 L 138.600 164.600 160.000 164.800 C 183.185 165.017,182.897 164.987,183.347 167.236 C 183.916 170.081,183.730 170.507,181.208 172.114 C 179.801 173.012,176.750 175.849,173.717 179.083 C 170.903 182.082,166.260 186.981,163.399 189.968 C 150.762 203.167,148.702 206.400,152.930 206.400 C 153.353 206.400,154.754 206.873,156.043 207.451 C 159.346 208.934,159.490 208.838,168.645 199.071 C 186.421 180.109,188.279 178.430,191.520 178.409 C 195.557 178.382,197.477 182.492,195.908 187.800 C 195.569 188.946,195.373 198.701,195.218 222.157 C 195.004 254.384,194.987 254.920,194.200 255.357 C 192.995 256.024,192.813 256.431,192.806 258.467 C 192.795 261.790,193.327 261.600,184.057 261.602 C 174.513 261.605,173.561 261.791,171.314 264.094 C 168.757 266.715,168.714 268.744,171.200 269.420 C 172.190 269.689,173.875 270.307,174.945 270.793 C 176.659 271.572,177.849 271.711,184.945 271.956 C 194.038 272.271,194.656 272.458,195.766 275.232 C 196.548 277.185,196.558 280.864,195.788 283.000 C 193.096 290.474,198.564 299.860,202.721 294.899 C 205.103 292.056,206.064 286.031,204.590 283.181 C 203.609 281.283,203.568 276.659,204.516 274.904 C 205.860 272.418,206.548 272.227,215.182 271.944 C 222.490 271.705,223.143 271.620,225.200 270.648 C 226.410 270.075,227.985 269.496,228.700 269.359 C 231.083 268.904,230.064 264.849,227.068 262.864 C 225.478 261.811,225.369 261.798,216.634 261.600 L 207.807 261.400 207.404 258.643 C 207.067 256.343,206.851 255.832,206.100 255.556 L 205.200 255.226 205.183 223.513 C 205.172 204.637,205.008 191.071,204.778 190.000 C 203.052 181.980,203.861 179.064,207.964 178.514 C 211.340 178.061,212.231 178.744,222.828 189.888 C 240.946 208.942,240.139 208.166,241.777 208.120 C 242.573 208.097,243.469 207.875,243.769 207.626 C 244.069 207.376,245.279 206.864,246.458 206.486 C 249.003 205.671,249.415 204.509,248.008 202.124 C 246.390 199.382,220.956 173.185,218.500 171.731 C 216.495 170.543,216.053 167.812,217.564 165.944 L 218.328 165.000 240.064 164.800 L 261.800 164.600 263.800 163.549 C 264.900 162.971,266.430 162.364,267.200 162.199 C 269.447 161.718,269.299 159.237,266.872 156.664 C 264.647 154.306,265.530 154.386,241.707 154.400 C 229.658 154.407,219.564 154.410,219.275 154.407 C 218.964 154.403,218.801 154.042,218.875 153.522 C 218.969 152.865,218.748 152.584,218.000 152.406 C 217.111 152.194,216.986 151.933,216.878 150.048 L 216.756 147.929 220.696 143.865 C 222.863 141.629,225.812 138.540,227.250 137.000 C 243.393 119.706,245.231 118.014,247.892 118.002 C 249.903 117.993,248.196 113.165,245.566 111.425 C 241.143 108.498,237.413 110.678,227.438 122.023 C 226.578 123.000,222.868 126.950,219.193 130.800 C 215.518 134.650,211.741 138.700,210.799 139.800 C 207.944 143.134,207.601 143.166,207.596 140.100 C 207.588 136.284,207.207 134.783,206.143 134.378 L 205.200 134.020 205.200 121.288 L 205.200 108.555 206.200 107.200 C 209.797 102.325,204.050 95.776,197.800 97.628 M24.557 219.044 C 25.139 225.168,25.275 225.882,25.659 224.848 C 25.890 224.225,25.854 223.706,25.553 223.343 C 25.266 222.998,25.186 222.112,25.339 220.994 C 25.502 219.802,25.436 219.200,25.142 219.200 C 24.865 219.200,24.789 218.757,24.937 218.016 C 25.074 217.332,24.988 216.716,24.734 216.559 C 24.422 216.366,24.371 217.085,24.557 219.044 M371.600 228.024 C 371.600 228.477,371.780 228.736,372.000 228.600 C 372.220 228.464,372.400 228.093,372.400 227.776 C 372.400 227.459,372.220 227.200,372.000 227.200 C 371.780 227.200,371.600 227.571,371.600 228.024 M371.301 230.600 C 371.305 231.480,371.387 231.793,371.483 231.295 C 371.579 230.798,371.575 230.078,371.475 229.695 C 371.375 229.313,371.296 229.720,371.301 230.600 M194.323 373.899 C 197.031 373.968,201.351 373.968,203.923 373.899 C 206.495 373.829,204.280 373.772,199.000 373.773 C 193.720 373.773,191.615 373.830,194.323 373.899 " stroke="none" fill="#a7f0e9" fill-rule="evenodd"></path><path id="path1" d="M190.600 47.872 C 121.851 52.250,64.984 99.029,49.425 164.000 C 40.800 200.019,45.548 238.668,62.498 270.400 C 116.378 371.273,257.316 380.722,324.507 287.966 C 362.832 235.058,362.016 161.247,322.529 109.106 C 291.541 68.188,240.872 44.670,190.600 47.872 M206.339 73.205 C 309.247 79.464,361.920 198.794,297.620 280.000 C 246.940 344.005,147.360 342.507,98.203 277.000 C 37.468 196.066,90.448 79.729,191.000 73.228 C 198.067 72.771,199.175 72.769,206.339 73.205 M189.000 76.278 C 159.255 78.950,128.154 93.703,110.194 113.660 C 87.982 138.344,77.251 163.242,75.624 193.877 C 71.554 270.475,138.306 332.958,214.000 323.405 C 289.942 313.820,338.838 239.390,317.795 165.405 C 301.845 109.325,246.611 71.103,189.000 76.278 M203.074 97.225 C 204.458 97.746,206.649 99.814,207.389 101.297 C 207.829 102.180,207.960 106.324,208.042 122.000 C 208.098 132.780,208.272 141.600,208.426 141.600 C 208.581 141.600,209.030 141.105,209.423 140.500 C 209.816 139.895,212.314 137.150,214.973 134.400 C 217.633 131.650,220.970 128.140,222.388 126.600 C 233.413 114.630,238.167 110.141,240.097 109.876 C 245.810 109.093,250.010 113.077,249.431 118.731 C 249.063 122.319,248.674 122.906,242.271 129.526 C 239.145 132.756,234.672 137.470,232.330 140.000 C 229.989 142.530,226.167 146.580,223.839 149.000 C 221.510 151.420,219.604 153.541,219.603 153.714 C 219.601 153.887,223.515 153.977,228.300 153.914 C 233.085 153.851,243.223 153.845,250.828 153.900 L 264.656 154.000 266.228 155.347 C 271.196 159.605,270.680 166.292,265.108 169.848 L 263.616 170.800 241.321 170.800 L 219.027 170.800 226.630 178.500 C 230.811 182.735,235.103 187.190,236.167 188.400 C 237.230 189.610,240.400 192.959,243.210 195.841 C 249.852 202.655,251.166 206.130,248.735 210.450 C 247.931 211.878,246.313 213.600,245.774 213.600 C 245.512 213.600,245.074 213.870,244.800 214.200 C 244.460 214.609,243.552 214.800,241.943 214.800 C 238.741 214.800,237.568 213.990,231.761 207.761 C 229.142 204.953,223.850 199.382,220.000 195.383 C 216.150 191.383,212.100 187.015,211.000 185.676 C 209.900 184.337,208.770 183.233,208.489 183.221 C 208.078 183.204,207.985 190.759,208.012 222.000 C 208.038 251.760,208.157 260.804,208.523 260.816 C 208.785 260.825,212.330 260.824,216.400 260.814 C 224.725 260.794,226.167 261.090,228.332 263.263 C 231.846 266.787,231.735 273.147,228.111 275.999 C 225.788 277.826,224.753 278.000,216.182 278.000 L 208.062 278.000 207.931 287.730 L 207.800 297.461 206.696 299.128 C 203.175 304.445,195.699 303.940,192.979 298.200 C 192.548 297.291,192.385 294.719,192.305 287.600 L 192.200 278.200 183.400 278.000 C 173.737 277.780,173.361 277.694,170.936 275.134 C 168.823 272.903,167.486 267.812,168.800 267.000 C 169.020 266.864,169.200 266.486,169.200 266.160 C 169.200 265.486,169.671 264.826,171.429 263.038 C 173.296 261.139,175.480 260.760,184.219 260.820 L 191.800 260.872 192.053 258.336 C 192.438 254.480,192.449 182.714,192.064 182.867 C 191.880 182.940,190.755 184.095,189.564 185.432 C 187.512 187.739,181.822 193.762,168.842 207.365 C 161.837 214.707,161.717 214.794,158.497 214.797 C 151.271 214.805,147.941 206.217,152.914 200.400 C 155.462 197.420,172.006 179.965,176.516 175.500 C 179.127 172.915,181.114 170.797,180.931 170.793 C 180.749 170.790,170.742 170.793,158.693 170.800 C 134.528 170.814,135.706 170.930,132.869 168.255 C 129.240 164.834,129.705 157.259,133.673 155.169 C 134.183 154.900,134.729 154.482,134.886 154.240 C 135.088 153.929,141.775 153.800,157.786 153.800 C 170.224 153.800,180.400 153.689,180.400 153.553 C 180.400 153.418,177.057 149.818,172.972 145.553 C 148.949 120.478,150.911 122.777,150.545 119.274 C 149.788 112.037,157.542 106.993,162.673 111.384 C 164.680 113.102,173.822 122.432,175.622 124.600 C 176.353 125.480,179.673 128.990,183.000 132.400 C 186.327 135.810,189.687 139.390,190.466 140.355 L 191.884 142.111 192.173 135.646 C 192.333 132.091,192.426 123.381,192.380 116.291 C 192.334 109.201,192.440 102.860,192.614 102.200 C 193.697 98.105,198.876 95.642,203.074 97.225 M328.320 316.900 C 327.563 317.835,326.787 318.870,326.595 319.200 C 325.850 320.483,327.658 318.659,328.853 316.923 C 330.369 314.719,330.095 314.708,328.320 316.900 M68.325 316.200 C 68.564 316.640,69.613 317.810,70.658 318.800 L 72.557 320.600 71.318 319.000 C 69.714 316.928,67.697 315.041,68.325 316.200 M324.792 320.610 C 324.514 320.945,324.366 321.300,324.464 321.398 C 324.562 321.496,324.946 321.221,325.317 320.788 C 325.689 320.355,325.836 320.000,325.645 320.000 C 325.454 320.000,325.070 320.274,324.792 320.610 M81.200 328.971 C 83.029 330.999,85.485 332.806,84.621 331.488 C 84.231 330.894,83.752 330.506,83.556 330.627 C 83.360 330.748,83.200 330.678,83.200 330.471 C 83.200 330.264,82.525 329.592,81.700 328.978 L 80.200 327.862 81.200 328.971 M315.985 329.229 L 314.600 330.458 316.100 329.381 C 317.426 328.430,317.857 328.000,317.485 328.000 C 317.422 328.000,316.747 328.553,315.985 329.229 M313.008 331.900 L 311.817 333.400 313.086 332.400 C 313.784 331.850,314.366 331.175,314.378 330.900 C 314.410 330.180,314.327 330.240,313.008 331.900 " stroke="none" fill="#234252" fill-rule="evenodd"></path><path id="path2" d="M185.800 45.624 C 136.305 50.156,92.423 77.133,67.388 118.420 C 63.786 124.360,55.979 140.913,56.523 141.457 C 56.611 141.545,57.183 140.488,57.794 139.108 C 88.817 69.065,167.197 32.567,241.400 53.610 C 286.314 66.347,323.629 99.192,341.013 141.292 C 343.049 146.224,343.918 147.514,342.265 143.151 C 322.062 89.831,275.310 53.567,217.200 46.142 C 211.651 45.433,191.513 45.101,185.800 45.624 M197.312 73.095 C 198.364 73.177,199.984 73.176,200.912 73.092 C 201.840 73.008,200.980 72.941,199.000 72.942 C 197.020 72.943,196.260 73.012,197.312 73.095 M196.300 75.897 C 197.895 75.973,200.505 75.973,202.100 75.897 C 203.695 75.821,202.390 75.759,199.200 75.759 C 196.010 75.759,194.705 75.821,196.300 75.897 M188.500 76.276 C 188.885 76.376,189.515 76.376,189.900 76.276 C 190.285 76.175,189.970 76.093,189.200 76.093 C 188.430 76.093,188.115 76.175,188.500 76.276 M208.305 76.283 C 208.802 76.379,209.522 76.375,209.905 76.275 C 210.287 76.175,209.880 76.096,209.000 76.101 C 208.120 76.105,207.807 76.187,208.305 76.283 M197.200 97.200 C 196.667 97.545,196.667 97.588,197.200 97.588 C 197.530 97.588,198.070 97.413,198.400 97.200 C 198.933 96.855,198.933 96.812,198.400 96.812 C 198.070 96.812,197.530 96.987,197.200 97.200 M205.200 99.001 C 207.701 101.856,207.592 100.971,207.695 119.295 L 207.791 136.200 207.900 119.413 C 208.021 100.758,208.093 101.338,205.326 98.801 L 203.800 97.401 205.200 99.001 M192.093 104.400 C 192.093 105.170,192.175 105.485,192.276 105.100 C 192.376 104.715,192.376 104.085,192.276 103.700 C 192.175 103.315,192.093 103.630,192.093 104.400 M113.978 105.900 L 112.600 107.400 114.100 106.022 C 114.925 105.263,115.600 104.588,115.600 104.522 C 115.600 104.216,115.262 104.504,113.978 105.900 M115.178 108.700 L 113.800 110.200 115.300 108.822 C 116.125 108.063,116.800 107.388,116.800 107.322 C 116.800 107.016,116.462 107.304,115.178 108.700 M285.600 107.310 C 285.600 107.371,286.995 108.766,288.700 110.410 L 291.800 113.400 288.810 110.300 C 286.033 107.421,285.600 107.017,285.600 107.310 M155.460 110.300 C 155.358 110.465,156.538 110.539,158.082 110.465 C 159.752 110.385,161.067 110.507,161.325 110.765 C 161.564 111.004,161.938 111.200,162.156 111.200 C 162.375 111.200,162.204 110.936,161.776 110.613 C 160.959 109.994,155.809 109.739,155.460 110.300 M237.824 110.613 C 237.396 110.936,237.225 111.200,237.444 111.200 C 237.662 111.200,238.011 111.035,238.220 110.834 C 238.429 110.632,239.050 110.387,239.600 110.288 L 240.600 110.109 239.600 110.067 C 239.050 110.044,238.251 110.290,237.824 110.613 M243.783 110.292 C 244.214 110.401,245.024 110.762,245.583 111.093 L 246.600 111.695 245.600 110.856 C 245.050 110.395,244.240 110.035,243.800 110.055 C 243.020 110.092,243.019 110.098,243.783 110.292 M152.441 112.614 C 151.759 113.392,151.200 114.148,151.200 114.294 C 151.200 114.440,151.336 114.389,151.503 114.180 C 151.670 113.971,152.333 113.215,152.978 112.500 C 153.622 111.785,154.045 111.200,153.916 111.200 C 153.788 111.200,153.124 111.836,152.441 112.614 M285.600 111.325 C 285.600 111.394,286.185 111.979,286.900 112.625 L 288.200 113.800 287.025 112.500 C 285.930 111.288,285.600 111.016,285.600 111.325 M235.178 113.100 L 233.800 114.600 235.300 113.222 C 236.696 111.938,236.984 111.600,236.678 111.600 C 236.612 111.600,235.937 112.275,235.178 113.100 M107.375 116.500 L 106.200 117.800 107.500 116.625 C 108.215 115.979,108.800 115.394,108.800 115.325 C 108.800 115.016,108.470 115.288,107.375 116.500 M231.775 116.900 L 230.600 118.200 231.900 117.025 C 232.615 116.379,233.200 115.794,233.200 115.725 C 233.200 115.416,232.870 115.688,231.775 116.900 M249.046 118.495 C 248.703 122.180,248.278 122.800,240.600 130.797 C 232.022 139.732,223.260 149.138,224.389 148.200 C 225.414 147.348,230.289 142.289,234.218 138.000 C 235.528 136.570,239.154 132.756,242.277 129.526 C 245.399 126.295,248.231 123.113,248.571 122.456 C 249.155 121.328,249.943 115.600,249.515 115.600 C 249.405 115.600,249.194 116.903,249.046 118.495 M150.594 118.685 C 150.793 122.337,151.174 122.911,158.095 129.964 C 161.028 132.954,164.130 136.210,164.988 137.200 C 167.155 139.700,180.839 153.725,179.428 152.000 C 178.335 150.664,171.182 143.126,158.972 130.445 C 151.481 122.666,151.273 122.367,150.814 118.755 L 150.438 115.800 150.594 118.685 M170.788 119.800 C 176.181 125.519,177.230 126.538,174.901 123.800 C 173.779 122.480,171.545 120.140,169.938 118.600 C 167.458 116.224,167.586 116.406,170.788 119.800 M222.272 126.700 C 218.432 130.825,214.624 134.830,213.809 135.600 C 212.995 136.370,211.585 137.900,210.676 139.000 C 208.767 141.309,217.528 132.290,224.760 124.500 C 227.466 121.585,229.585 119.200,229.468 119.200 C 229.350 119.200,226.113 122.575,222.272 126.700 M179.400 129.200 C 180.259 130.080,181.052 130.800,181.162 130.800 C 181.272 130.800,180.659 130.080,179.800 129.200 C 178.941 128.320,178.148 127.600,178.038 127.600 C 177.928 127.600,178.541 128.320,179.400 129.200 M186.377 136.200 C 190.117 140.285,191.240 141.350,188.907 138.600 C 187.787 137.280,186.183 135.570,185.342 134.800 C 184.501 134.030,184.967 134.660,186.377 136.200 M192.083 138.349 C 192.006 141.847,191.953 142.063,191.300 141.571 C 190.636 141.071,190.636 141.083,191.290 141.798 C 192.315 142.917,192.445 142.474,192.299 138.351 L 192.166 134.600 192.083 138.349 M208.120 138.400 C 208.120 139.610,208.195 140.105,208.287 139.500 C 208.378 138.895,208.378 137.905,208.287 137.300 C 208.195 136.695,208.120 137.190,208.120 138.400 M55.007 144.683 C 54.214 146.628,52.421 152.155,52.543 152.276 C 52.619 152.353,53.333 150.576,54.129 148.329 C 54.924 146.081,55.513 144.180,55.437 144.104 C 55.361 144.028,55.167 144.288,55.007 144.683 M221.200 151.312 C 219.308 153.423,219.006 154.160,220.000 154.233 C 220.345 154.258,220.387 154.206,220.100 154.109 C 219.318 153.847,219.472 153.558,221.476 151.523 C 222.508 150.475,223.273 149.548,223.176 149.461 C 223.079 149.374,222.190 150.208,221.200 151.312 M344.830 151.022 C 344.813 151.254,345.237 152.694,345.770 154.222 C 346.304 155.750,346.754 156.810,346.770 156.578 C 346.787 156.346,346.363 154.906,345.830 153.378 C 345.296 151.850,344.846 150.790,344.830 151.022 M51.829 153.829 C 51.681 154.415,51.638 154.972,51.732 155.066 C 51.827 155.160,52.024 154.758,52.171 154.171 C 52.319 153.585,52.362 153.028,52.268 152.934 C 52.173 152.840,51.976 153.242,51.829 153.829 M147.128 153.900 C 152.698 153.963,161.698 153.962,167.128 153.900 C 172.558 153.837,168.000 153.785,157.000 153.786 C 146.000 153.786,141.558 153.837,147.128 153.900 M229.300 153.897 C 230.785 153.974,233.215 153.974,234.700 153.897 C 236.185 153.820,234.970 153.757,232.000 153.757 C 229.030 153.757,227.815 153.820,229.300 153.897 M263.454 154.286 C 264.143 154.373,265.493 155.080,266.454 155.859 L 268.200 157.274 266.449 155.637 C 265.104 154.380,264.407 154.015,263.449 154.064 L 262.200 154.128 263.454 154.286 M133.522 155.220 C 133.149 155.437,132.458 156.197,131.987 156.908 L 131.131 158.200 131.994 157.200 C 132.469 156.650,133.250 155.889,133.729 155.509 C 134.687 154.749,134.582 154.602,133.522 155.220 M346.856 157.600 C 346.856 157.930,347.011 158.560,347.200 159.000 C 347.417 159.504,347.544 159.578,347.544 159.200 C 347.544 158.870,347.389 158.240,347.200 157.800 C 346.983 157.296,346.856 157.222,346.856 157.600 M49.400 162.400 C 49.248 163.091,49.207 163.741,49.309 163.842 C 49.411 163.944,49.609 163.453,49.750 162.750 C 50.083 161.083,49.760 160.760,49.400 162.400 M130.467 162.851 C 130.374 164.857,131.261 166.747,133.069 168.399 L 134.600 169.799 133.100 168.183 C 132.275 167.294,131.600 166.295,131.600 165.963 C 131.600 165.631,131.432 165.189,131.227 164.980 C 131.021 164.771,130.782 163.880,130.694 163.000 L 130.534 161.400 130.467 162.851 M269.260 162.851 C 269.167 164.481,268.054 166.860,266.664 168.399 L 265.400 169.798 266.738 168.599 C 268.414 167.097,269.713 164.421,269.489 162.931 C 269.320 161.802,269.320 161.802,269.260 162.851 M48.222 167.422 C 48.072 168.225,48.028 168.962,48.126 169.060 C 48.224 169.157,48.427 168.581,48.578 167.778 C 48.728 166.975,48.772 166.238,48.674 166.140 C 48.576 166.043,48.373 166.619,48.222 167.422 M135.600 170.158 C 136.471 170.693,139.437 170.761,158.600 170.692 L 180.600 170.613 158.400 170.407 C 146.190 170.293,135.840 170.053,135.400 169.872 C 134.960 169.692,135.050 169.821,135.600 170.158 M264.200 170.000 C 264.040 170.259,255.985 170.400,241.343 170.400 C 226.906 170.400,218.782 170.540,218.867 170.788 C 219.030 171.264,233.662 186.000,233.971 186.000 C 234.093 186.000,230.776 182.580,226.600 178.400 L 219.008 170.800 241.404 170.787 C 260.463 170.776,263.916 170.687,264.576 170.187 C 265.004 169.864,265.149 169.600,264.900 169.600 C 264.651 169.600,264.336 169.780,264.200 170.000 M180.934 170.668 C 181.081 170.815,180.886 171.310,180.501 171.768 C 179.801 172.599,179.801 172.599,180.700 171.838 C 181.683 171.006,181.865 170.400,181.133 170.400 C 180.877 170.400,180.787 170.520,180.934 170.668 M177.775 174.100 L 176.600 175.400 177.900 174.225 C 179.112 173.130,179.384 172.800,179.075 172.800 C 179.006 172.800,178.421 173.385,177.775 174.100 M350.893 175.600 C 350.893 176.370,350.975 176.685,351.076 176.300 C 351.176 175.915,351.176 175.285,351.076 174.900 C 350.975 174.515,350.893 174.830,350.893 175.600 M173.986 177.900 L 171.800 180.200 174.100 178.014 C 176.237 175.982,176.583 175.600,176.286 175.600 C 176.224 175.600,175.189 176.635,173.986 177.900 M351.293 178.400 C 351.293 179.170,351.375 179.485,351.476 179.100 C 351.576 178.715,351.576 178.085,351.476 177.700 C 351.375 177.315,351.293 177.630,351.293 178.400 M351.693 181.200 C 351.693 181.970,351.775 182.285,351.876 181.900 C 351.976 181.515,351.976 180.885,351.876 180.500 C 351.775 180.115,351.693 180.430,351.693 181.200 M169.200 183.000 C 168.228 183.990,167.523 184.800,167.633 184.800 C 167.743 184.800,168.628 183.990,169.600 183.000 C 170.572 182.010,171.277 181.200,171.167 181.200 C 171.057 181.200,170.172 182.010,169.200 183.000 M190.820 183.481 C 189.460 185.236,173.641 201.971,167.171 208.500 L 161.323 214.400 158.542 214.400 C 156.882 214.400,155.534 214.198,155.199 213.900 C 154.722 213.475,154.718 213.504,155.168 214.100 C 155.914 215.085,160.568 215.084,162.042 214.097 C 162.616 213.714,165.676 210.684,168.842 207.365 C 181.822 193.762,187.512 187.739,189.564 185.432 C 192.424 182.218,192.348 182.191,192.510 186.472 L 192.650 190.200 192.625 186.432 C 192.597 182.276,192.226 181.668,190.820 183.481 M207.698 220.100 L 207.796 257.800 207.900 220.500 C 207.972 194.695,208.134 183.200,208.426 183.200 C 208.658 183.200,208.736 183.020,208.600 182.800 C 207.694 181.334,207.607 184.950,207.698 220.100 M209.200 183.455 C 209.200 183.964,225.418 201.323,233.800 209.787 C 236.948 212.965,237.023 213.020,234.400 210.225 C 232.750 208.467,231.310 206.932,231.200 206.814 C 231.090 206.696,230.208 205.700,229.240 204.600 C 228.272 203.500,225.204 200.260,222.423 197.400 C 219.641 194.540,215.528 190.177,213.283 187.704 C 211.037 185.231,209.200 183.319,209.200 183.455 M162.993 189.700 L 158.600 194.200 163.100 189.807 C 165.575 187.391,167.600 185.366,167.600 185.307 C 167.600 185.018,167.074 185.520,162.993 189.700 M235.200 187.800 C 235.946 188.570,236.647 189.200,236.757 189.200 C 236.867 189.200,236.346 188.570,235.600 187.800 C 234.854 187.030,234.153 186.400,234.043 186.400 C 233.933 186.400,234.454 187.030,235.200 187.800 M45.309 188.800 C 45.309 189.790,45.387 190.195,45.482 189.700 C 45.578 189.205,45.578 188.395,45.482 187.900 C 45.387 187.405,45.309 187.810,45.309 188.800 M352.514 189.800 C 352.517 190.900,352.595 191.303,352.687 190.695 C 352.779 190.086,352.777 189.186,352.682 188.695 C 352.587 188.203,352.511 188.700,352.514 189.800 M241.600 194.600 C 244.343 197.350,246.673 199.600,246.776 199.600 C 247.121 199.600,237.407 189.714,237.006 189.657 C 236.789 189.625,238.857 191.850,241.600 194.600 M322.509 193.200 C 322.509 194.190,322.587 194.595,322.682 194.100 C 322.778 193.605,322.778 192.795,322.682 192.300 C 322.587 191.805,322.509 192.210,322.509 193.200 M72.528 194.800 C 72.528 196.230,72.601 196.815,72.689 196.100 C 72.778 195.385,72.778 194.215,72.689 193.500 C 72.601 192.785,72.528 193.370,72.528 194.800 M75.328 196.000 C 75.328 197.430,75.401 198.015,75.489 197.300 C 75.578 196.585,75.578 195.415,75.489 194.700 C 75.401 193.985,75.328 194.570,75.328 196.000 M44.957 199.600 C 44.957 202.570,45.020 203.785,45.097 202.300 C 45.174 200.815,45.174 198.385,45.097 196.900 C 45.020 195.415,44.957 196.630,44.957 199.600 M155.980 197.100 C 153.392 199.812,150.844 202.761,152.438 201.200 C 154.310 199.367,158.529 194.800,158.351 194.800 C 158.254 194.800,157.187 195.835,155.980 197.100 M352.937 199.800 C 352.939 201.560,353.009 202.230,353.093 201.289 C 353.178 200.349,353.177 198.909,353.091 198.089 C 353.005 197.270,352.936 198.040,352.937 199.800 M75.331 204.200 C 75.333 205.740,75.405 206.321,75.492 205.491 C 75.579 204.661,75.577 203.401,75.489 202.691 C 75.400 201.981,75.329 202.660,75.331 204.200 M72.531 205.000 C 72.533 206.540,72.605 207.121,72.692 206.291 C 72.779 205.461,72.777 204.201,72.689 203.491 C 72.600 202.781,72.529 203.460,72.531 205.000 M249.328 205.600 C 249.328 207.030,249.401 207.615,249.489 206.900 C 249.578 206.185,249.578 205.015,249.489 204.300 C 249.401 203.585,249.328 204.170,249.328 205.600 M150.679 207.400 C 150.927 209.944,151.980 211.961,153.660 213.114 C 154.264 213.528,154.067 213.162,153.110 212.089 C 152.291 211.171,151.532 210.011,151.423 209.510 C 150.370 204.652,150.426 204.811,150.679 207.400 M322.501 207.000 C 322.505 207.880,322.587 208.193,322.683 207.695 C 322.779 207.198,322.775 206.478,322.675 206.095 C 322.575 205.713,322.496 206.120,322.501 207.000 M248.832 208.877 C 248.784 209.890,247.219 212.362,246.320 212.843 C 245.886 213.075,245.638 213.371,245.767 213.501 C 246.471 214.204,249.507 209.804,249.070 208.715 C 248.935 208.380,248.852 208.437,248.832 208.877 M352.501 209.800 C 352.505 210.680,352.587 210.993,352.683 210.495 C 352.779 209.998,352.775 209.278,352.675 208.895 C 352.575 208.513,352.496 208.920,352.501 209.800 M45.293 210.800 C 45.293 211.570,45.375 211.885,45.476 211.500 C 45.576 211.115,45.576 210.485,45.476 210.100 C 45.375 209.715,45.293 210.030,45.293 210.800 M238.624 214.187 C 239.788 215.068,244.146 215.007,244.832 214.100 C 245.282 213.504,245.278 213.475,244.801 213.900 C 244.131 214.498,239.358 214.580,239.000 214.000 C 238.864 213.780,238.549 213.600,238.300 213.600 C 238.051 213.600,238.196 213.864,238.624 214.187 M352.093 214.800 C 352.093 215.570,352.175 215.885,352.276 215.500 C 352.376 215.115,352.376 214.485,352.276 214.100 C 352.175 213.715,352.093 214.030,352.093 214.800 M191.994 258.682 C 191.887 260.046,191.945 261.017,192.123 260.839 C 192.300 260.660,192.388 259.544,192.317 258.357 L 192.189 256.200 191.994 258.682 M179.521 261.099 C 181.788 261.170,185.388 261.170,187.521 261.098 C 189.655 261.026,187.800 260.968,183.400 260.968 C 179.000 260.968,177.255 261.027,179.521 261.099 M211.000 261.068 C 215.712 261.349,225.089 261.376,224.664 261.106 C 224.409 260.944,220.780 260.843,216.600 260.880 C 212.420 260.917,209.900 261.002,211.000 261.068 M171.894 262.451 C 171.285 262.904,170.594 263.664,170.358 264.138 C 170.033 264.791,170.156 264.736,170.864 263.912 C 171.379 263.313,172.340 262.549,173.000 262.214 C 173.660 261.879,173.930 261.610,173.600 261.615 C 173.270 261.621,172.502 261.997,171.894 262.451 M226.546 262.202 C 228.005 262.963,228.375 262.968,227.376 262.213 C 226.949 261.890,226.330 261.621,226.000 261.615 C 225.670 261.610,225.916 261.874,226.546 262.202 M229.646 265.387 C 230.489 266.817,230.609 271.445,229.854 273.400 C 229.671 273.874,229.795 273.793,230.158 273.200 C 231.436 271.117,230.555 264.000,229.019 264.000 C 228.914 264.000,229.195 264.624,229.646 265.387 M168.667 267.067 C 167.557 268.177,168.913 272.998,170.936 275.134 C 173.361 277.694,173.737 277.780,183.400 278.000 L 192.200 278.200 192.433 280.600 L 192.666 283.000 192.727 280.800 C 192.820 277.429,193.263 277.585,183.368 277.487 C 173.707 277.391,173.136 277.265,171.033 274.766 C 169.454 272.889,168.729 270.854,168.873 268.700 C 168.943 267.655,168.985 266.800,168.967 266.800 C 168.948 266.800,168.813 266.920,168.667 267.067 M356.673 274.500 C 355.488 276.315,353.741 279.150,352.791 280.800 C 287.355 394.460,129.274 401.918,54.161 294.889 C 52.248 292.162,48.652 286.572,46.171 282.466 C 43.690 278.360,41.392 274.700,41.063 274.333 C 40.735 273.967,40.572 273.562,40.700 273.433 C 40.828 273.305,40.723 273.200,40.467 273.200 C 38.988 273.200,49.422 292.073,54.839 299.200 C 55.258 299.750,56.351 301.280,57.270 302.600 C 58.188 303.920,59.050 305.090,59.184 305.200 C 59.318 305.310,60.139 306.300,61.009 307.400 C 61.879 308.500,63.493 310.461,64.596 311.757 C 66.956 314.534,77.858 325.600,78.232 325.600 C 78.374 325.600,79.618 326.762,80.997 328.182 C 82.375 329.602,83.598 330.669,83.713 330.554 C 83.828 330.439,84.230 330.852,84.607 331.472 C 86.917 335.276,109.361 350.313,120.400 355.453 C 121.610 356.017,123.680 357.019,125.000 357.681 C 126.320 358.343,129.470 359.689,132.000 360.672 C 134.530 361.656,137.140 362.700,137.800 362.993 C 144.416 365.926,159.030 369.663,171.400 371.586 C 172.720 371.791,175.510 372.256,177.600 372.620 C 184.385 373.799,214.041 373.663,221.500 372.417 C 222.875 372.188,225.035 371.827,226.300 371.615 C 227.565 371.403,230.220 370.960,232.200 370.631 C 237.865 369.687,241.313 368.869,247.800 366.929 C 248.900 366.600,250.430 366.170,251.200 365.973 C 252.643 365.604,257.645 363.853,263.600 361.633 C 272.047 358.483,286.544 351.059,294.600 345.756 C 302.844 340.329,309.649 335.171,312.900 331.883 C 313.725 331.049,314.400 330.440,314.400 330.530 C 314.400 330.621,315.043 330.088,315.828 329.347 C 316.614 328.606,317.424 328.000,317.628 328.000 C 317.833 328.000,318.000 327.758,318.000 327.462 C 318.000 327.166,318.360 326.598,318.800 326.200 C 319.240 325.802,319.600 325.561,319.600 325.664 C 319.600 325.768,321.535 323.880,323.900 321.470 C 326.265 319.060,329.129 316.168,330.265 315.044 C 332.464 312.868,336.493 308.107,338.513 305.300 C 339.185 304.365,339.864 303.600,340.021 303.600 C 340.178 303.600,340.414 303.285,340.544 302.900 C 340.675 302.515,341.772 300.850,342.981 299.200 C 344.191 297.550,345.668 295.390,346.265 294.400 C 346.861 293.410,348.097 291.430,349.011 290.000 C 351.853 285.554,359.467 271.200,358.984 271.200 C 358.898 271.200,357.858 272.685,356.673 274.500 M228.623 275.174 C 226.719 277.278,224.921 277.630,216.326 277.583 C 211.913 277.559,208.140 277.700,207.943 277.897 C 207.746 278.094,207.636 282.293,207.700 287.228 L 207.816 296.200 207.908 287.100 L 208.000 278.000 216.204 278.000 C 223.642 278.000,224.572 277.923,226.154 277.180 C 227.636 276.483,230.168 274.400,229.532 274.400 C 229.417 274.400,229.009 274.748,228.623 275.174 M289.978 284.300 L 288.600 285.800 290.100 284.422 C 291.496 283.138,291.784 282.800,291.478 282.800 C 291.412 282.800,290.737 283.475,289.978 284.300 M109.600 286.200 C 110.346 286.970,111.047 287.600,111.157 287.600 C 111.267 287.600,110.746 286.970,110.000 286.200 C 109.254 285.430,108.553 284.800,108.443 284.800 C 108.333 284.800,108.854 285.430,109.600 286.200 M109.600 290.200 C 111.460 292.070,113.072 293.600,113.182 293.600 C 113.292 293.600,111.860 292.070,110.000 290.200 C 108.140 288.330,106.528 286.800,106.418 286.800 C 106.308 286.800,107.740 288.330,109.600 290.200 M113.800 290.400 C 114.659 291.280,115.452 292.000,115.562 292.000 C 115.672 292.000,115.059 291.280,114.200 290.400 C 113.341 289.520,112.548 288.800,112.438 288.800 C 112.328 288.800,112.941 289.520,113.800 290.400 M283.978 294.300 L 282.600 295.800 284.100 294.422 C 285.496 293.138,285.784 292.800,285.478 292.800 C 285.412 292.800,284.737 293.475,283.978 294.300 M192.453 295.505 C 192.283 300.942,199.293 304.771,203.989 301.807 C 205.457 300.880,207.600 298.288,207.600 297.439 C 207.600 297.232,207.051 297.891,206.381 298.903 C 202.270 305.110,193.974 303.094,192.791 295.600 L 192.507 293.800 192.453 295.505 M89.400 307.200 C 91.371 309.180,93.073 310.800,93.183 310.800 C 93.293 310.800,91.771 309.180,89.800 307.200 C 87.829 305.220,86.127 303.600,86.017 303.600 C 85.907 303.600,87.429 305.220,89.400 307.200 M190.500 324.276 C 190.885 324.376,191.515 324.376,191.900 324.276 C 192.285 324.175,191.970 324.093,191.200 324.093 C 190.430 324.093,190.115 324.175,190.500 324.276 M206.305 324.283 C 206.802 324.379,207.522 324.375,207.905 324.275 C 208.287 324.175,207.880 324.096,207.000 324.101 C 206.120 324.105,205.807 324.187,206.305 324.283 M210.100 326.676 C 210.485 326.776,211.115 326.776,211.500 326.676 C 211.885 326.575,211.570 326.493,210.800 326.493 C 210.030 326.493,209.715 326.575,210.100 326.676 M193.091 327.089 C 193.801 327.177,195.061 327.179,195.891 327.092 C 196.721 327.005,196.140 326.933,194.600 326.931 C 193.060 326.929,192.381 327.000,193.091 327.089 M202.100 327.091 C 202.925 327.178,204.275 327.178,205.100 327.091 C 205.925 327.005,205.250 326.934,203.600 326.934 C 201.950 326.934,201.275 327.005,202.100 327.091 M185.300 351.876 C 185.685 351.976,186.315 351.976,186.700 351.876 C 187.085 351.775,186.770 351.693,186.000 351.693 C 185.230 351.693,184.915 351.775,185.300 351.876 M211.300 351.876 C 211.685 351.976,212.315 351.976,212.700 351.876 C 213.085 351.775,212.770 351.693,212.000 351.693 C 211.230 351.693,210.915 351.775,211.300 351.876 M191.100 352.289 C 191.815 352.378,192.985 352.378,193.700 352.289 C 194.415 352.201,193.830 352.128,192.400 352.128 C 190.970 352.128,190.385 352.201,191.100 352.289 M204.307 352.290 C 205.026 352.379,206.106 352.377,206.707 352.286 C 207.308 352.195,206.720 352.122,205.400 352.124 C 204.080 352.126,203.588 352.201,204.307 352.290 " stroke="none" fill="#5c8786" fill-rule="evenodd"></path><path id="path3" d="M195.300 45.098 C 197.225 45.171,200.375 45.171,202.300 45.098 C 204.225 45.025,202.650 44.965,198.800 44.965 C 194.950 44.965,193.375 45.025,195.300 45.098 M186.905 45.487 C 187.514 45.579,188.414 45.577,188.905 45.482 C 189.397 45.387,188.900 45.311,187.800 45.314 C 186.700 45.317,186.297 45.395,186.905 45.487 M209.305 45.487 C 209.914 45.579,210.814 45.577,211.305 45.482 C 211.797 45.387,211.300 45.311,210.200 45.314 C 209.100 45.317,208.697 45.395,209.305 45.487 M182.305 45.883 C 182.802 45.979,183.522 45.975,183.905 45.875 C 184.287 45.775,183.880 45.696,183.000 45.701 C 182.120 45.705,181.807 45.787,182.305 45.883 M214.305 45.883 C 214.802 45.979,215.522 45.975,215.905 45.875 C 216.287 45.775,215.880 45.696,215.000 45.701 C 214.120 45.705,213.807 45.787,214.305 45.883 M243.400 51.600 C 243.840 51.789,244.470 51.944,244.800 51.944 C 245.178 51.944,245.104 51.817,244.600 51.600 C 244.160 51.411,243.530 51.256,243.200 51.256 C 242.822 51.256,242.896 51.383,243.400 51.600 M257.600 56.600 C 258.150 56.914,258.780 57.172,259.000 57.172 C 259.220 57.172,258.950 56.914,258.400 56.600 C 257.850 56.286,257.220 56.028,257.000 56.028 C 256.780 56.028,257.050 56.286,257.600 56.600 M134.000 59.000 C 133.450 59.314,133.180 59.572,133.400 59.572 C 133.620 59.572,134.250 59.314,134.800 59.000 C 135.350 58.686,135.620 58.428,135.400 58.428 C 135.180 58.428,134.550 58.686,134.000 59.000 M264.000 59.400 C 264.550 59.714,265.180 59.972,265.400 59.972 C 265.620 59.972,265.350 59.714,264.800 59.400 C 264.250 59.086,263.620 58.828,263.400 58.828 C 263.180 58.828,263.450 59.086,264.000 59.400 M270.800 62.587 C 270.800 62.697,271.700 63.243,272.800 63.800 C 273.900 64.357,274.800 64.723,274.800 64.613 C 274.800 64.503,273.900 63.957,272.800 63.400 C 271.700 62.843,270.800 62.477,270.800 62.587 M119.000 66.853 C 117.900 67.534,116.820 68.276,116.600 68.503 C 116.157 68.958,118.914 67.390,120.434 66.321 C 122.031 65.198,121.139 65.529,119.000 66.853 M277.200 66.179 C 277.200 66.289,277.740 66.659,278.400 67.000 C 279.060 67.341,279.600 67.531,279.600 67.421 C 279.600 67.311,279.060 66.941,278.400 66.600 C 277.740 66.259,277.200 66.069,277.200 66.179 M112.496 71.007 C 110.683 72.221,109.200 73.306,109.200 73.419 C 109.200 73.618,115.014 69.842,115.780 69.145 C 116.698 68.311,115.557 68.958,112.496 71.007 M288.000 72.946 C 288.000 73.056,288.540 73.530,289.200 74.000 C 289.860 74.470,290.400 74.764,290.400 74.654 C 290.400 74.544,289.860 74.070,289.200 73.600 C 288.540 73.130,288.000 72.836,288.000 72.946 M290.800 74.953 C 290.800 75.063,291.880 75.984,293.200 77.000 C 294.520 78.016,295.600 78.757,295.600 78.647 C 295.600 78.537,294.520 77.616,293.200 76.600 C 291.880 75.584,290.800 74.843,290.800 74.953 M104.200 77.044 L 102.600 78.476 104.300 77.204 C 105.763 76.110,106.291 75.583,105.900 75.606 C 105.845 75.609,105.080 76.256,104.200 77.044 M299.400 81.807 C 300.280 82.635,303.115 85.281,305.700 87.686 C 315.597 96.896,324.962 108.737,331.953 120.882 C 334.602 125.484,335.302 126.951,339.840 137.400 C 343.002 144.679,343.641 145.639,341.438 139.800 C 333.609 119.053,317.415 96.416,300.400 82.437 C 298.970 81.262,298.520 80.978,299.400 81.807 M96.378 83.500 L 95.000 85.000 96.500 83.622 C 97.896 82.338,98.184 82.000,97.878 82.000 C 97.812 82.000,97.137 82.675,96.378 83.500 M88.157 91.300 C 76.328 103.394,67.552 115.686,60.946 129.411 C 58.254 135.005,54.692 143.875,54.894 144.482 C 54.962 144.685,55.980 142.455,57.158 139.526 C 64.984 120.050,74.153 105.998,88.754 91.100 C 92.150 87.635,94.835 84.800,94.721 84.800 C 94.608 84.800,91.654 87.725,88.157 91.300 M192.580 120.400 C 192.580 127.990,192.634 131.095,192.699 127.300 C 192.765 123.505,192.765 117.295,192.699 113.500 C 192.634 109.705,192.580 112.810,192.580 120.400 M283.200 108.925 C 283.200 108.994,283.785 109.579,284.500 110.225 L 285.800 111.400 284.625 110.100 C 283.530 108.888,283.200 108.616,283.200 108.925 M165.183 114.100 C 166.164 115.145,167.019 116.000,167.083 116.000 C 167.384 116.000,167.066 115.641,165.300 113.983 L 163.400 112.200 165.183 114.100 M243.178 127.900 L 241.800 129.400 243.300 128.022 C 244.696 126.738,244.984 126.400,244.678 126.400 C 244.612 126.400,243.937 127.075,243.178 127.900 M164.400 136.125 C 164.400 136.194,164.985 136.779,165.700 137.425 L 167.000 138.600 165.825 137.300 C 164.730 136.088,164.400 135.816,164.400 136.125 M343.829 147.600 C 343.976 148.150,344.264 148.870,344.467 149.200 C 344.725 149.617,344.757 149.495,344.571 148.800 C 344.424 148.250,344.136 147.530,343.933 147.200 C 343.675 146.783,343.643 146.905,343.829 147.600 M221.900 154.289 C 222.615 154.378,223.785 154.378,224.500 154.289 C 225.215 154.201,224.630 154.128,223.200 154.128 C 221.770 154.128,221.185 154.201,221.900 154.289 M243.100 154.299 C 246.675 154.366,252.525 154.366,256.100 154.299 C 259.675 154.233,256.750 154.179,249.600 154.179 C 242.450 154.179,239.525 154.233,243.100 154.299 M241.600 170.000 L 219.000 170.210 241.476 170.305 C 256.133 170.367,264.039 170.261,264.200 170.000 C 264.336 169.780,264.392 169.643,264.324 169.695 C 264.256 169.747,254.030 169.884,241.600 170.000 M147.500 170.300 C 153.715 170.362,163.885 170.362,170.100 170.300 C 176.315 170.238,171.230 170.187,158.800 170.187 C 146.370 170.187,141.285 170.238,147.500 170.300 M182.791 191.900 L 179.400 195.400 182.900 192.009 C 186.151 188.859,186.582 188.400,186.291 188.400 C 186.231 188.400,184.656 189.975,182.791 191.900 M192.591 222.800 C 192.591 240.950,192.640 248.375,192.700 239.300 C 192.760 230.225,192.760 215.375,192.700 206.300 C 192.640 197.225,192.591 204.650,192.591 222.800 M221.200 196.200 C 223.060 198.070,224.672 199.600,224.782 199.600 C 224.892 199.600,223.460 198.070,221.600 196.200 C 219.740 194.330,218.128 192.800,218.018 192.800 C 217.908 192.800,219.340 194.330,221.200 196.200 M72.531 199.800 C 72.533 201.340,72.605 201.921,72.692 201.091 C 72.779 200.261,72.777 199.001,72.689 198.291 C 72.600 197.581,72.529 198.260,72.531 199.800 M168.981 206.500 L 167.400 208.200 169.100 206.619 C 170.681 205.148,170.984 204.800,170.681 204.800 C 170.616 204.800,169.851 205.565,168.981 206.500 M234.600 210.400 C 236.350 212.160,237.871 213.600,237.981 213.600 C 238.091 213.600,236.750 212.160,235.000 210.400 C 233.250 208.640,231.729 207.200,231.619 207.200 C 231.509 207.200,232.850 208.640,234.600 210.400 M363.717 258.300 C 363.575 258.685,363.355 259.090,363.229 259.200 C 363.103 259.310,362.465 260.570,361.811 262.000 C 351.086 285.461,338.674 303.482,321.450 320.600 C 317.023 325.000,315.205 326.952,317.411 324.939 C 331.043 312.491,343.246 297.182,353.392 279.800 C 354.676 277.600,356.466 274.720,357.369 273.400 C 358.272 272.080,359.403 270.100,359.881 269.000 C 362.464 263.055,363.546 260.236,363.360 259.936 C 363.246 259.751,363.322 259.600,363.530 259.600 C 363.737 259.600,363.993 259.150,364.098 258.600 C 364.318 257.447,364.096 257.272,363.717 258.300 M34.255 259.800 C 34.543 261.032,35.376 263.085,37.016 266.600 C 38.790 270.401,39.453 272.023,39.550 272.800 C 39.578 273.020,39.900 273.200,40.267 273.200 C 40.633 273.200,40.828 273.305,40.700 273.433 C 40.572 273.562,40.735 273.967,41.063 274.333 C 41.392 274.700,43.701 278.377,46.195 282.505 C 52.882 293.571,60.572 304.220,66.201 310.211 C 67.916 312.037,67.768 311.799,65.572 309.200 C 55.525 297.310,47.477 284.836,38.864 267.800 C 34.369 258.909,33.829 257.973,34.255 259.800 M228.434 274.953 L 227.469 276.200 228.613 275.112 C 229.243 274.514,229.677 273.953,229.579 273.865 C 229.480 273.777,228.965 274.267,228.434 274.953 M179.700 277.498 C 181.845 277.570,185.355 277.570,187.500 277.498 C 189.645 277.426,187.890 277.367,183.600 277.367 C 179.310 277.367,177.555 277.426,179.700 277.498 M213.121 277.499 C 215.388 277.570,218.988 277.570,221.121 277.498 C 223.255 277.426,221.400 277.368,217.000 277.368 C 212.600 277.368,210.855 277.427,213.121 277.499 M192.559 288.400 C 192.559 291.590,192.621 292.895,192.697 291.300 C 192.773 289.705,192.773 287.095,192.697 285.500 C 192.621 283.905,192.559 285.210,192.559 288.400 M207.293 296.000 C 207.293 296.770,207.375 297.085,207.476 296.700 C 207.576 296.315,207.576 295.685,207.476 295.300 C 207.375 294.915,207.293 295.230,207.293 296.000 M306.181 309.300 L 304.600 311.000 306.300 309.419 C 307.881 307.948,308.184 307.600,307.881 307.600 C 307.816 307.600,307.051 308.365,306.181 309.300 M74.600 319.200 C 78.115 322.720,81.081 325.600,81.191 325.600 C 81.301 325.600,78.515 322.720,75.000 319.200 C 71.485 315.680,68.519 312.800,68.409 312.800 C 68.299 312.800,71.085 315.680,74.600 319.200 M81.634 325.900 C 81.652 326.065,82.417 326.822,83.334 327.582 L 85.000 328.963 83.419 327.282 C 81.793 325.552,81.576 325.384,81.634 325.900 M198.105 327.087 C 198.714 327.179,199.614 327.177,200.105 327.082 C 200.597 326.987,200.100 326.911,199.000 326.914 C 197.900 326.917,197.497 326.995,198.105 327.087 M308.272 332.371 C 304.981 335.093,304.535 335.692,307.500 333.408 C 309.717 331.700,311.177 330.358,310.749 330.422 C 310.667 330.435,309.552 331.311,308.272 332.371 M92.726 335.128 C 94.308 336.528,97.600 338.923,97.600 338.673 C 97.600 338.576,96.205 337.475,94.500 336.225 C 92.795 334.976,91.997 334.482,92.726 335.128 M301.800 337.435 L 300.600 338.466 301.900 337.606 C 302.615 337.133,303.200 336.668,303.200 336.573 C 303.200 336.273,303.031 336.378,301.800 337.435 M297.800 340.235 L 296.600 341.266 297.900 340.406 C 298.615 339.933,299.200 339.468,299.200 339.373 C 299.200 339.073,299.031 339.178,297.800 340.235 M100.094 340.490 C 101.282 341.500,103.600 342.947,103.600 342.679 C 103.600 342.588,102.565 341.849,101.300 341.037 C 100.035 340.225,99.492 339.979,100.094 340.490 M110.400 346.979 C 110.400 347.089,110.940 347.459,111.600 347.800 C 112.260 348.141,112.800 348.331,112.800 348.221 C 112.800 348.111,112.260 347.741,111.600 347.400 C 110.940 347.059,110.400 346.869,110.400 346.979 M114.000 348.984 C 114.000 349.094,114.720 349.551,115.600 350.000 C 116.480 350.449,117.200 350.726,117.200 350.616 C 117.200 350.506,116.480 350.049,115.600 349.600 C 114.720 349.151,114.000 348.874,114.000 348.984 M280.700 350.426 C 279.435 351.079,278.400 351.703,278.400 351.812 C 278.400 351.922,279.480 351.466,280.800 350.800 C 282.120 350.134,283.200 349.501,283.200 349.394 C 283.200 349.128,283.274 349.097,280.700 350.426 M274.400 353.600 C 273.190 354.239,272.380 354.762,272.600 354.762 C 272.820 354.762,273.990 354.239,275.200 353.600 C 276.410 352.961,277.220 352.438,277.000 352.438 C 276.780 352.438,275.610 352.961,274.400 353.600 M124.800 354.600 C 125.350 354.914,125.980 355.172,126.200 355.172 C 126.420 355.172,126.150 354.914,125.600 354.600 C 125.050 354.286,124.420 354.028,124.200 354.028 C 123.980 354.028,124.250 354.286,124.800 354.600 M140.000 360.733 C 140.330 360.936,141.050 361.224,141.600 361.371 C 142.295 361.557,142.417 361.525,142.000 361.267 C 141.670 361.064,140.950 360.776,140.400 360.629 C 139.705 360.443,139.583 360.475,140.000 360.733 M245.400 364.400 C 244.896 364.617,244.822 364.744,245.200 364.744 C 245.530 364.744,246.160 364.589,246.600 364.400 C 247.104 364.183,247.178 364.056,246.800 364.056 C 246.470 364.056,245.840 364.211,245.400 364.400 M176.500 369.476 C 176.885 369.576,177.515 369.576,177.900 369.476 C 178.285 369.375,177.970 369.293,177.200 369.293 C 176.430 369.293,176.115 369.375,176.500 369.476 M220.100 369.476 C 220.485 369.576,221.115 369.576,221.500 369.476 C 221.885 369.375,221.570 369.293,220.800 369.293 C 220.030 369.293,219.715 369.375,220.100 369.476 M179.905 369.883 C 180.402 369.979,181.122 369.975,181.505 369.875 C 181.887 369.775,181.480 369.696,180.600 369.701 C 179.720 369.705,179.407 369.787,179.905 369.883 M216.705 369.883 C 217.202 369.979,217.922 369.975,218.305 369.875 C 218.687 369.775,218.280 369.696,217.400 369.701 C 216.520 369.705,216.207 369.787,216.705 369.883 M184.105 370.287 C 184.714 370.379,185.614 370.377,186.105 370.282 C 186.597 370.187,186.100 370.111,185.000 370.114 C 183.900 370.117,183.497 370.195,184.105 370.287 M211.900 370.282 C 212.395 370.378,213.205 370.378,213.700 370.282 C 214.195 370.187,213.790 370.109,212.800 370.109 C 211.810 370.109,211.405 370.187,211.900 370.282 M193.676 370.699 C 196.468 370.767,201.148 370.768,204.076 370.699 C 207.004 370.631,204.720 370.575,199.000 370.574 C 193.280 370.574,190.884 370.630,193.676 370.699 M195.700 373.498 C 197.845 373.570,201.355 373.570,203.500 373.498 C 205.645 373.426,203.890 373.367,199.600 373.367 C 195.310 373.367,193.555 373.426,195.700 373.498 " stroke="none" fill="#6c9b98" fill-rule="evenodd"></path><path id="path4" d="M189.800 44.430 C 112.237 48.719,46.615 112.780,45.035 185.753 C 44.948 189.739,44.947 192.100,45.032 191.000 C 48.646 144.062,67.927 105.903,101.600 79.043 C 163.545 29.631,252.532 34.341,308.439 89.990 C 328.420 109.879,340.438 131.202,347.786 159.800 C 350.445 170.151,350.986 173.116,352.566 186.000 C 352.660 186.770,352.667 184.790,352.581 181.600 C 352.250 169.283,349.097 154.979,343.721 141.400 C 323.293 89.806,274.762 52.522,218.800 45.429 C 208.880 44.171,200.000 43.865,189.800 44.430 M190.305 75.883 C 190.802 75.979,191.522 75.975,191.905 75.875 C 192.287 75.775,191.880 75.696,191.000 75.701 C 190.120 75.705,189.807 75.787,190.305 75.883 M206.305 75.883 C 206.802 75.979,207.522 75.975,207.905 75.875 C 208.287 75.775,207.880 75.696,207.000 75.701 C 206.120 75.705,205.807 75.787,206.305 75.883 M198.662 97.100 C 198.560 97.265,199.252 97.400,200.200 97.400 C 201.148 97.400,201.840 97.265,201.738 97.100 C 201.636 96.935,200.944 96.800,200.200 96.800 C 199.456 96.800,198.764 96.935,198.662 97.100 M205.429 99.638 C 206.073 100.429,206.681 101.008,206.779 100.925 C 206.878 100.842,206.351 100.195,205.609 99.487 L 204.258 98.200 205.429 99.638 M207.140 103.658 C 207.255 105.282,207.092 105.913,206.240 107.142 L 205.200 108.643 205.200 121.331 L 205.200 134.020 206.171 134.389 C 206.803 134.629,207.202 135.151,207.311 135.879 C 207.404 136.496,207.507 129.136,207.540 119.524 C 207.573 109.912,207.465 101.964,207.300 101.861 C 207.135 101.759,207.063 102.568,207.140 103.658 M192.600 121.874 C 192.600 132.173,192.690 139.342,192.800 137.804 C 192.971 135.409,193.115 134.986,193.800 134.857 C 195.146 134.605,195.188 134.195,195.194 121.081 L 195.200 108.362 194.186 107.422 C 193.577 106.858,193.058 105.816,192.886 104.815 C 192.729 103.898,192.600 111.574,192.600 121.874 M284.400 106.525 C 284.400 106.594,284.985 107.179,285.700 107.825 L 287.000 109.000 285.825 107.700 C 284.730 106.488,284.400 106.216,284.400 106.525 M109.588 110.300 L 107.000 113.000 109.700 110.412 C 111.185 108.988,112.400 107.773,112.400 107.712 C 112.400 107.417,111.993 107.792,109.588 110.300 M111.591 111.900 L 108.200 115.400 111.700 112.009 C 114.951 108.859,115.382 108.400,115.091 108.400 C 115.031 108.400,113.456 109.975,111.591 111.900 M290.000 112.125 C 290.000 112.194,290.585 112.779,291.300 113.425 L 292.600 114.600 291.425 113.300 C 290.330 112.088,290.000 111.816,290.000 112.125 M290.000 115.800 C 290.746 116.570,291.447 117.200,291.557 117.200 C 291.667 117.200,291.146 116.570,290.400 115.800 C 289.654 115.030,288.953 114.400,288.843 114.400 C 288.733 114.400,289.254 115.030,290.000 115.800 M248.648 115.380 C 248.984 116.256,248.482 118.000,247.892 118.002 C 245.231 118.014,243.393 119.706,227.250 137.000 C 225.812 138.540,222.863 141.629,220.696 143.865 L 216.756 147.929 216.878 150.048 C 216.986 151.933,217.111 152.194,218.000 152.406 C 218.768 152.589,218.978 152.871,218.904 153.622 L 218.807 154.600 219.196 153.686 C 219.410 153.184,221.703 150.560,224.292 147.857 C 240.527 130.906,247.462 123.402,248.204 121.982 C 248.941 120.571,249.424 115.386,248.851 115.032 C 248.572 114.859,248.497 114.988,248.648 115.380 M151.020 118.337 C 151.270 122.152,151.863 123.007,160.373 131.817 C 164.018 135.591,170.060 141.916,173.800 145.874 C 177.540 149.831,180.660 152.919,180.733 152.735 C 180.807 152.551,181.176 152.400,181.553 152.400 C 182.683 152.400,183.200 151.542,183.200 149.666 C 183.200 147.936,183.075 147.764,178.100 142.630 C 175.295 139.736,169.130 133.287,164.400 128.298 C 159.670 123.310,155.350 119.066,154.800 118.868 C 154.250 118.670,153.261 118.345,152.602 118.145 C 151.740 117.884,151.324 117.449,151.116 116.591 C 150.957 115.936,150.914 116.722,151.020 118.337 M170.600 120.000 C 171.906 121.320,173.065 122.400,173.175 122.400 C 173.285 122.400,172.306 121.320,171.000 120.000 C 169.694 118.680,168.535 117.600,168.425 117.600 C 168.315 117.600,169.294 118.680,170.600 120.000 M227.375 121.700 L 226.200 123.000 227.500 121.825 C 228.215 121.179,228.800 120.594,228.800 120.525 C 228.800 120.216,228.470 120.488,227.375 121.700 M173.200 122.925 C 173.200 122.994,173.785 123.579,174.500 124.225 L 175.800 125.400 174.625 124.100 C 173.530 122.888,173.200 122.616,173.200 122.925 M223.986 125.500 L 221.800 127.800 224.100 125.614 C 225.365 124.411,226.400 123.376,226.400 123.314 C 226.400 123.017,226.018 123.363,223.986 125.500 M182.000 132.125 C 182.000 132.194,182.585 132.779,183.300 133.425 L 184.600 134.600 183.425 133.300 C 182.330 132.088,182.000 131.816,182.000 132.125 M215.188 134.700 L 212.600 137.400 215.300 134.812 C 216.785 133.388,218.000 132.173,218.000 132.112 C 218.000 131.817,217.593 132.192,215.188 134.700 M184.800 134.925 C 184.800 134.994,185.385 135.579,186.100 136.225 L 187.400 137.400 186.225 136.100 C 185.130 134.888,184.800 134.616,184.800 134.925 M188.600 139.200 C 189.459 140.080,190.252 140.800,190.362 140.800 C 190.472 140.800,189.859 140.080,189.000 139.200 C 188.141 138.320,187.348 137.600,187.238 137.600 C 187.128 137.600,187.741 138.320,188.600 139.200 M207.701 139.000 C 207.705 139.880,207.787 140.193,207.883 139.695 C 207.979 139.198,207.975 138.478,207.875 138.095 C 207.775 137.713,207.696 138.120,207.701 139.000 M210.575 139.700 L 209.400 141.000 210.700 139.825 C 211.415 139.179,212.000 138.594,212.000 138.525 C 212.000 138.216,211.670 138.488,210.575 139.700 M147.728 154.300 C 153.629 154.362,163.169 154.362,168.928 154.300 C 174.688 154.237,169.860 154.186,158.200 154.186 C 146.540 154.186,141.828 154.237,147.728 154.300 M228.300 154.297 C 229.895 154.373,232.505 154.373,234.100 154.297 C 235.695 154.221,234.390 154.159,231.200 154.159 C 228.010 154.159,226.705 154.221,228.300 154.297 M265.600 155.325 C 265.600 155.394,266.185 155.979,266.900 156.625 L 268.200 157.800 267.025 156.500 C 265.930 155.288,265.600 155.016,265.600 155.325 M130.800 162.249 C 130.800 163.996,132.294 167.445,133.464 168.400 C 135.399 169.978,135.749 170.000,158.795 170.000 C 182.821 170.000,182.538 169.973,180.544 172.064 L 179.400 173.263 181.491 171.931 C 183.706 170.521,183.904 170.020,183.347 167.236 C 182.897 164.987,183.185 165.017,160.000 164.800 L 138.600 164.600 136.387 163.529 C 135.170 162.941,133.640 162.334,132.987 162.181 C 132.334 162.029,131.575 161.621,131.300 161.276 C 130.879 160.746,130.800 160.899,130.800 162.249 M268.864 161.455 C 268.829 161.706,268.135 162.036,267.322 162.188 C 266.509 162.341,264.934 162.946,263.822 163.533 L 261.800 164.600 240.064 164.800 L 218.328 165.000 217.564 165.944 C 216.205 167.624,216.497 170.626,218.100 171.438 C 218.815 171.801,222.280 174.905,225.800 178.336 L 232.200 184.574 225.490 177.801 C 221.698 173.974,218.866 170.805,218.977 170.515 C 219.135 170.104,223.663 170.000,241.452 170.000 L 263.730 170.000 265.483 168.972 C 267.603 167.730,269.358 164.505,269.092 162.339 C 269.002 161.603,268.899 161.205,268.864 161.455 M175.389 176.900 L 172.600 179.800 175.500 177.011 C 178.194 174.420,178.583 174.000,178.289 174.000 C 178.228 174.000,176.923 175.305,175.389 176.900 M188.600 179.161 C 186.886 179.958,181.879 184.954,168.645 199.071 C 159.490 208.838,159.346 208.934,156.043 207.451 C 154.754 206.873,153.340 206.400,152.899 206.400 C 152.006 206.400,151.395 205.799,151.068 204.600 C 150.948 204.160,150.954 205.057,151.082 206.594 C 151.571 212.498,156.949 216.228,161.520 213.834 C 162.489 213.327,169.969 205.688,176.829 198.200 C 178.240 196.660,181.654 193.060,184.416 190.200 C 187.178 187.340,190.012 184.287,190.714 183.415 C 192.922 180.672,192.860 179.489,192.725 221.845 C 192.656 243.380,192.690 259.890,192.800 258.533 C 192.910 257.176,193.090 256.006,193.200 255.933 C 193.310 255.860,193.760 255.600,194.200 255.357 C 194.987 254.920,195.004 254.384,195.218 222.157 C 195.373 198.701,195.569 188.946,195.908 187.800 C 197.912 181.019,194.156 176.579,188.600 179.161 M206.439 178.906 C 203.943 180.189,202.973 184.810,204.483 188.229 C 204.889 189.148,205.024 196.468,205.113 222.315 L 205.227 255.230 206.186 255.595 C 206.869 255.854,207.195 256.341,207.315 257.280 C 207.408 258.006,207.499 241.504,207.518 220.608 C 207.544 192.486,207.671 182.576,208.010 182.463 C 208.261 182.380,210.024 183.996,211.926 186.055 C 213.829 188.115,217.476 191.960,220.032 194.600 C 222.587 197.240,225.830 200.659,227.239 202.199 C 238.822 214.856,240.868 216.135,245.176 213.415 C 248.557 211.281,250.564 204.968,248.614 202.600 C 247.971 201.818,247.966 201.821,248.403 202.720 C 249.347 204.665,248.793 205.738,246.458 206.486 C 245.279 206.864,244.069 207.376,243.769 207.626 C 243.469 207.875,242.573 208.097,241.777 208.120 C 240.139 208.166,240.943 208.939,222.842 189.903 C 211.698 178.182,210.027 177.062,206.439 178.906 M170.175 182.500 L 169.000 183.800 170.300 182.625 C 171.512 181.530,171.784 181.200,171.475 181.200 C 171.406 181.200,170.821 181.785,170.175 182.500 M163.993 189.100 L 159.800 193.400 164.100 189.207 C 166.465 186.901,168.400 184.966,168.400 184.907 C 168.400 184.618,167.887 185.106,163.993 189.100 M234.200 187.200 C 235.059 188.080,235.852 188.800,235.962 188.800 C 236.072 188.800,235.459 188.080,234.600 187.200 C 233.741 186.320,232.948 185.600,232.838 185.600 C 232.728 185.600,233.341 186.320,234.200 187.200 M352.942 191.800 C 352.941 193.780,353.008 194.640,353.092 193.712 C 353.176 192.784,353.177 191.164,353.095 190.112 C 353.012 189.060,352.943 189.820,352.942 191.800 M241.200 194.600 C 243.943 197.350,246.278 199.600,246.388 199.600 C 246.498 199.600,244.343 197.350,241.600 194.600 C 238.857 191.850,236.522 189.600,236.412 189.600 C 236.302 189.600,238.457 191.850,241.200 194.600 M44.555 199.000 C 44.556 201.860,44.620 202.978,44.697 201.483 C 44.774 199.989,44.774 197.649,44.696 196.283 C 44.618 194.918,44.555 196.140,44.555 199.000 M322.961 200.000 C 322.961 203.410,323.022 204.805,323.097 203.100 C 323.172 201.395,323.172 198.605,323.097 196.900 C 323.022 195.195,322.961 196.590,322.961 200.000 M156.800 196.600 C 155.828 197.590,155.123 198.400,155.233 198.400 C 155.343 198.400,156.228 197.590,157.200 196.600 C 158.172 195.610,158.877 194.800,158.767 194.800 C 158.657 194.800,157.772 195.610,156.800 196.600 M152.936 200.900 C 151.728 202.187,150.826 203.878,151.605 203.397 C 151.822 203.263,152.000 202.947,152.000 202.695 C 152.000 202.444,152.575 201.645,153.278 200.919 C 153.982 200.194,154.467 199.600,154.357 199.600 C 154.247 199.600,153.608 200.185,152.936 200.900 M352.914 206.200 C 352.917 207.300,352.995 207.703,353.087 207.095 C 353.179 206.486,353.177 205.586,353.082 205.095 C 352.987 204.603,352.911 205.100,352.914 206.200 M44.928 208.800 C 44.928 210.230,45.001 210.815,45.089 210.100 C 45.178 209.385,45.178 208.215,45.089 207.500 C 45.001 206.785,44.928 207.370,44.928 208.800 M72.893 208.800 C 72.893 209.570,72.975 209.885,73.076 209.500 C 73.176 209.115,73.176 208.485,73.076 208.100 C 72.975 207.715,72.893 208.030,72.893 208.800 M322.493 210.400 C 322.493 211.170,322.575 211.485,322.676 211.100 C 322.776 210.715,322.776 210.085,322.676 209.700 C 322.575 209.315,322.493 209.630,322.493 210.400 M372.852 213.800 C 362.891 289.086,309.436 349.363,238.393 365.420 C 138.807 387.930,43.719 323.420,26.400 221.600 C 25.932 218.850,25.442 216.330,25.311 216.000 C 25.180 215.670,25.106 215.252,25.146 215.070 C 25.187 214.889,25.051 214.845,24.846 214.972 C 24.438 215.224,24.462 215.943,24.900 216.643 C 25.052 216.887,25.018 217.640,24.824 218.317 C 24.543 219.295,24.584 219.504,25.021 219.337 C 25.460 219.168,25.524 219.524,25.336 221.109 C 25.196 222.294,25.267 223.194,25.513 223.346 C 25.742 223.488,25.832 224.287,25.715 225.157 C 25.499 226.765,26.588 234.785,27.214 236.200 C 27.409 236.640,27.650 237.540,27.749 238.200 C 27.849 238.860,28.202 240.300,28.534 241.400 C 28.865 242.500,29.516 244.840,29.979 246.600 C 31.826 253.613,38.232 267.535,45.531 280.400 C 110.868 395.559,271.971 401.574,345.476 291.600 C 350.909 283.472,362.800 261.543,362.800 259.652 C 362.800 259.404,362.980 259.200,363.200 259.200 C 363.420 259.200,363.600 258.919,363.600 258.576 C 363.600 258.191,363.791 258.063,364.100 258.241 C 364.375 258.399,364.472 258.387,364.316 258.213 C 364.160 258.040,364.332 257.336,364.698 256.649 C 365.065 255.962,365.333 255.281,365.294 255.136 C 365.255 254.990,365.668 253.599,366.212 252.043 C 366.755 250.488,367.200 248.942,367.200 248.608 C 367.200 248.273,367.391 248.000,367.624 248.000 C 367.857 248.000,367.956 247.853,367.845 247.673 C 367.734 247.493,367.925 246.548,368.270 245.573 C 369.240 242.829,370.798 235.339,371.071 232.110 C 371.207 230.509,371.446 229.200,371.603 229.200 C 371.760 229.200,371.803 228.750,371.698 228.200 C 371.581 227.589,371.691 227.200,371.980 227.200 C 372.274 227.200,372.356 226.892,372.196 226.387 C 371.904 225.466,372.741 216.707,373.151 216.400 C 373.297 216.290,373.302 215.570,373.161 214.800 C 373.021 214.030,372.881 213.580,372.852 213.800 M207.948 261.309 C 208.118 261.478,211.844 261.568,216.229 261.508 L 224.200 261.398 215.919 261.199 C 211.365 261.090,207.778 261.139,207.948 261.309 M179.700 261.498 C 182.065 261.569,185.935 261.569,188.300 261.498 C 190.665 261.428,188.730 261.370,184.000 261.370 C 179.270 261.370,177.335 261.428,179.700 261.498 M171.375 263.700 L 170.200 265.000 171.500 263.825 C 172.712 262.730,172.984 262.400,172.675 262.400 C 172.606 262.400,172.021 262.985,171.375 263.700 M229.886 267.269 C 230.090 269.077,230.080 269.096,228.746 269.350 C 228.006 269.492,226.410 270.075,225.200 270.648 C 223.143 271.620,222.490 271.705,215.182 271.944 C 206.548 272.227,205.860 272.418,204.516 274.904 C 203.568 276.659,203.609 281.283,204.590 283.181 C 206.064 286.031,205.103 292.056,202.721 294.899 C 198.564 299.860,193.096 290.474,195.788 283.000 C 196.558 280.864,196.548 277.185,195.766 275.232 C 194.656 272.458,194.038 272.271,184.945 271.956 C 177.849 271.711,176.659 271.572,174.945 270.793 C 173.875 270.307,172.190 269.688,171.200 269.418 C 169.558 268.971,169.407 268.825,169.482 267.764 C 169.552 266.758,169.505 266.701,169.137 267.343 C 168.134 269.095,170.014 274.159,172.322 275.921 L 173.736 277.000 182.961 277.128 C 189.492 277.218,192.275 277.394,192.488 277.728 C 192.653 277.988,192.791 282.273,192.794 287.251 C 192.799 294.130,192.936 296.626,193.365 297.651 C 195.336 302.360,200.784 304.003,204.338 300.960 C 207.340 298.391,207.389 298.185,207.484 287.630 C 207.530 282.476,207.656 278.031,207.763 277.751 C 207.911 277.366,210.130 277.213,216.911 277.121 L 225.864 277.000 227.333 275.879 C 229.753 274.032,231.349 268.425,230.093 266.181 C 229.780 265.621,229.730 265.883,229.886 267.269 M286.192 288.500 L 282.200 292.600 286.300 288.608 C 288.555 286.412,290.400 284.567,290.400 284.508 C 290.400 284.218,289.901 284.692,286.192 288.500 M288.181 290.100 L 286.600 291.800 288.300 290.219 C 289.881 288.748,290.184 288.400,289.881 288.400 C 289.816 288.400,289.051 289.165,288.181 290.100 M312.575 302.900 L 311.400 304.200 312.700 303.025 C 313.415 302.379,314.000 301.794,314.000 301.725 C 314.000 301.416,313.670 301.688,312.575 302.900 M196.900 324.696 C 198.165 324.775,200.235 324.775,201.500 324.696 C 202.765 324.616,201.730 324.551,199.200 324.551 C 196.670 324.551,195.635 324.616,196.900 324.696 M78.409 325.737 C 78.404 325.922,78.760 326.531,79.200 327.091 C 79.640 327.650,79.996 327.949,79.991 327.754 C 79.979 327.287,78.420 325.300,78.409 325.737 M318.646 326.586 C 317.749 327.955,317.838 328.310,318.800 327.200 C 319.528 326.360,319.835 325.600,319.446 325.600 C 319.361 325.600,319.001 326.044,318.646 326.586 M185.105 326.283 C 185.602 326.379,186.322 326.375,186.705 326.275 C 187.087 326.175,186.680 326.096,185.800 326.101 C 184.920 326.105,184.607 326.187,185.105 326.283 M211.500 326.282 C 211.995 326.378,212.805 326.378,213.300 326.282 C 213.795 326.187,213.390 326.109,212.400 326.109 C 211.410 326.109,211.005 326.187,211.500 326.282 M193.676 326.699 C 196.468 326.767,201.148 326.768,204.076 326.699 C 207.004 326.631,204.720 326.575,199.000 326.574 C 193.280 326.574,190.884 326.630,193.676 326.699 " stroke="none" fill="#6da49c" fill-rule="evenodd"></path></g></svg>