<svg xmlns="http://www.w3.org/2000/svg" xmlns:xlink="http://www.w3.org/1999/xlink" width="120" zoomAndPan="magnify" viewBox="0 0 90 89.999999" height="120" preserveAspectRatio="xMidYMid meet" version="1.0"><defs><clipPath id="id1"><path d="M 30.855469 30.855469 L 45 30.855469 L 45 54 L 30.855469 54 Z M 30.855469 30.855469 " clip-rule="nonzero"/></clipPath><clipPath id="id2"><path d="M 32 51 L 58 51 L 58 59.355469 L 32 59.355469 Z M 32 51 " clip-rule="nonzero"/></clipPath><clipPath id="id3"><path d="M 45 30.855469 L 59.355469 30.855469 L 59.355469 54 L 45 54 Z M 45 30.855469 " clip-rule="nonzero"/></clipPath></defs><path fill="rgb(0%, 0%, 0%)" d="M 45.113281 0.488281 C 20.464844 0.488281 0.488281 20.464844 0.488281 45.113281 C 0.488281 69.757812 20.464844 89.738281 45.113281 89.738281 C 69.757812 89.738281 89.738281 69.757812 89.738281 45.113281 C 89.738281 20.464844 69.757812 0.488281 45.113281 0.488281 " fill-opacity="1" fill-rule="nonzero"/><path fill="rgb(100%, 100%, 100%)" d="M 44.988281 2.988281 C 21.792969 2.988281 2.988281 21.792969 2.988281 44.988281 C 2.988281 68.1875 21.792969 86.988281 44.988281 86.988281 C 68.1875 86.988281 86.988281 68.1875 86.988281 44.988281 C 86.988281 21.792969 68.1875 2.988281 44.988281 2.988281 " fill-opacity="1" fill-rule="nonzero"/><path fill="rgb(0%, 0%, 0%)" d="M 45.042969 5.292969 C 23.089844 5.292969 5.292969 23.089844 5.292969 45.042969 C 5.292969 66.996094 23.089844 84.792969 45.042969 84.792969 C 66.996094 84.792969 84.792969 66.996094 84.792969 45.042969 C 84.792969 23.089844 66.996094 5.292969 45.042969 5.292969 " fill-opacity="1" fill-rule="nonzero"/><g clip-path="url(#id1)"><path fill="rgb(100%, 100%, 100%)" d="M 44.214844 49.617188 L 44.214844 30.957031 L 30.855469 35.128906 L 30.855469 53.792969 Z M 44.214844 49.617188 " fill-opacity="1" fill-rule="nonzero"/></g><g clip-path="url(#id2)"><path fill="rgb(100%, 100%, 100%)" d="M 45.105469 51.203125 L 32.347656 55.191406 L 45.105469 59.175781 L 57.863281 55.191406 Z M 45.105469 51.203125 " fill-opacity="1" fill-rule="nonzero"/></g><g clip-path="url(#id3)"><path fill="rgb(100%, 100%, 100%)" d="M 45.996094 49.617188 L 59.355469 53.792969 L 59.355469 35.128906 L 45.996094 30.957031 Z M 45.996094 49.617188 " fill-opacity="1" fill-rule="nonzero"/></g></svg>