<svg id="ebD82d0Im6C1" xmlns="http://www.w3.org/2000/svg" xmlns:xlink="http://www.w3.org/1999/xlink" viewBox="0 0 480 480" shape-rendering="geometricPrecision" text-rendering="geometricPrecision"><defs><radialGradient id="ebD82d0Im6C2-fill" cx="0" cy="0" r="0.498152" spreadMethod="pad" gradientUnits="objectBoundingBox" gradientTransform="matrix(0.999986 0.005272 -0.005074 0.962507 0.498252 0.444317)"><stop id="ebD82d0Im6C2-fill-0" offset="100%" stop-color="#511bb7"/><stop id="ebD82d0Im6C2-fill-1" offset="100%" stop-color="#461d92"/></radialGradient><radialGradient id="ebD82d0Im6C8-fill" cx="0" cy="0" r="1.076763" spreadMethod="pad" gradientUnits="objectBoundingBox" gradientTransform="matrix(1 0 0 1.11089 0.407157 0.32982)"><stop id="ebD82d0Im6C8-fill-0" offset="0%" stop-color="#f36ea0"/><stop id="ebD82d0Im6C8-fill-1" offset="99%" stop-color="#dc45a7"/></radialGradient><radialGradient id="ebD82d0Im6C16-fill" cx="0" cy="0" r="1.076763" spreadMethod="pad" gradientUnits="objectBoundingBox" gradientTransform="matrix(1 0 0 1.11089 0.407157 0.32982)"><stop id="ebD82d0Im6C16-fill-0" offset="0%" stop-color="#f36ea0"/><stop id="ebD82d0Im6C16-fill-1" offset="99%" stop-color="#dc45a7"/></radialGradient><radialGradient id="ebD82d0Im6C25-fill" cx="0" cy="0" r="1.076763" spreadMethod="pad" gradientUnits="objectBoundingBox" gradientTransform="matrix(1 0 0 1.11089 0.407157 0.32982)"><stop id="ebD82d0Im6C25-fill-0" offset="0%" stop-color="#f36ea0"/><stop id="ebD82d0Im6C25-fill-1" offset="99%" stop-color="#dc45a7"/></radialGradient><radialGradient id="ebD82d0Im6C33-fill" cx="0" cy="0" r="1.076763" spreadMethod="pad" gradientUnits="objectBoundingBox" gradientTransform="matrix(1 0 0 1.11089 0.407157 0.32982)"><stop id="ebD82d0Im6C33-fill-0" offset="0%" stop-color="#f36ea0"/><stop id="ebD82d0Im6C33-fill-1" offset="99%" stop-color="#dc45a7"/></radialGradient><radialGradient id="ebD82d0Im6C43-fill" cx="0" cy="0" r="1.076763" spreadMethod="pad" gradientUnits="objectBoundingBox" gradientTransform="matrix(1 0 0 1.11089 0.407157 0.32982)"><stop id="ebD82d0Im6C43-fill-0" offset="0%" stop-color="#f36ea0"/><stop id="ebD82d0Im6C43-fill-1" offset="99%" stop-color="#dc45a7"/></radialGradient><linearGradient id="ebD82d0Im6C48-fill" x1="0.496878" y1="0.959328" x2="0.637842" y2="0.220625" spreadMethod="pad" gradientUnits="objectBoundingBox" gradientTransform="translate(0 0)"><stop id="ebD82d0Im6C48-fill-0" offset="19%" stop-color="#d8a573"/><stop id="ebD82d0Im6C48-fill-1" offset="100%" stop-color="#dfab77"/></linearGradient><radialGradient id="ebD82d0Im6C49-fill" cx="0" cy="0" r="0.584007" spreadMethod="pad" gradientUnits="objectBoundingBox" gradientTransform="translate(0.506623 0.389581)"><stop id="ebD82d0Im6C49-fill-0" offset="0%" stop-color="#e443e2"/><stop id="ebD82d0Im6C49-fill-1" offset="100%" stop-color="#c631c3"/></radialGradient><filter id="ebD82d0Im6C52-filter" x="-150%" width="400%" y="-150%" height="400%"><feGaussianBlur id="ebD82d0Im6C52-filter-drop-shadow-0-blur" in="SourceAlpha" stdDeviation="6,6"/><feOffset id="ebD82d0Im6C52-filter-drop-shadow-0-offset" dx="-2" dy="9" result="tmp"/><feFlood id="ebD82d0Im6C52-filter-drop-shadow-0-flood" flood-color="#da31d5"/><feComposite id="ebD82d0Im6C52-filter-drop-shadow-0-composite" operator="in" in2="tmp"/><feMerge id="ebD82d0Im6C52-filter-drop-shadow-0-merge"><feMergeNode id="ebD82d0Im6C52-filter-drop-shadow-0-merge-node-1"/><feMergeNode id="ebD82d0Im6C52-filter-drop-shadow-0-merge-node-2" in="SourceGraphic"/></feMerge></filter><radialGradient id="ebD82d0Im6C52-fill" cx="0" cy="0" r="0.507031" spreadMethod="pad" gradientUnits="objectBoundingBox" gradientTransform="matrix(-0.50243 0.864618 -1.032642 -0.600068 0.507187 0.380492)"><stop id="ebD82d0Im6C52-fill-0" offset="100%" stop-color="#501ab7"/><stop id="ebD82d0Im6C52-fill-1" offset="100%" stop-color="#491e9b"/></radialGradient></defs><ellipse rx="125.510275" ry="125.510275" transform="matrix(1.810977 0 0 1.810977 240.000002 240)" fill="url(#ebD82d0Im6C2-fill)" stroke="#d6a473" stroke-width="13"/><g transform="matrix(1.706839 0 0 1.706367-170.184993-40.018377)"><g transform="translate(0 0.000001)"><g style="mix-blend-mode:multiply" transform="matrix(1.188004 0 0 1.188004-50.368342-28.873573)" opacity="0.11"><path d="" transform="translate(25.315312-48.925497)" fill="none" stroke="#3f5787" stroke-width="0.96"/></g><g transform="matrix(1.188004 0 0 1.188004-44.478214-45.248714)"><path d="" transform="translate(25.315312-48.925497)" fill="none" stroke="#3f5787" stroke-width="0.96"/><g transform="translate(.000001 0)"><path d="M168.314986,204.128671q6.86217-48.035191,49.99581-48.035191t45.09426,48.03519q18.001891,5.982519,19.949041,20.557679c1.891991,14.162272-12.804024,20.669403-30.250655,19.041163-16.105131-1.503042-43.809157-1.674302-43.809157-1.674302q.19372,31.944836-19.41248,31.944836t-21.566819-33.998048q-21.46103,2.573073-21.46103-11.190581c0-13.763654,1.854831-24.680746,21.46103-24.680746Z" transform="matrix(1.22922 0 0 1.318988-30.071932-107.38166)" fill="#461d92" stroke-width="0.96"/><path d="M195.722212,333.947249c0,0,54.940959,0,54.940959,0q0,0,19.604055-93.947249h-95.09007l20.545056,93.947249Z" transform="matrix(.933007 0 0 0.933008 32.592073-27.397118)" fill="url(#ebD82d0Im6C48-fill)" stroke-width="0.96"/><path d="M168.314986,204.128671q6.86217-48.035191,49.99581-48.035191t45.09426,48.03519q18.001891,5.982519,19.949041,20.557679c1.891991,14.162272-12.804024,20.669403-30.250655,19.041163-16.105131-1.503042-43.809157-1.674302-43.809157-1.674302q.19372,31.944836-19.41248,31.944836t-21.566819-33.998048q-21.46103,2.573073-21.46103-11.190581c0-13.763654,1.854831-24.680746,21.46103-24.680746Z" transform="matrix(1.182664 0 0 1.220088-15.0541-78.629065)" fill="url(#ebD82d0Im6C49-fill)" stroke-width="0.96"/></g></g></g></g><path d="M293.766775,172.987109c9.073077-1.701201,12.191947-17.012018,4.489497-25.499419-15.58177-17.169697-44.281856-18.354956-77.103123-5.322776-31.051276,12.329378-47.430311,30.03134-53.604986,66.001973s26.661853,69.580933,48.446537,76.083824s37.17486,7.586706,46.49567,7.803469s26.461003.828744,38.209576-11.697367c17.017346-18.143579,14.234329-63.30498-3.002286-81.240381-5.510174-5.733561-17.130206,1.88244-25.789431,9.223957-7.739225,6.561517,18.071426,20.706843.564732,34.260413-11.016893,8.529208-40.472466-4.141368-40.472466-4.141368-17.31845-10.165178-13.079495-33.869137-7.226893-48.500642s31.100121-20.437315,42.341012-20.090553s17.210696,4.889144,26.652161,3.11887Z" transform="matrix(.906681 0 0 0.906681 22.706746 26.382879)" filter="url(#ebD82d0Im6C52-filter)" fill="url(#ebD82d0Im6C52-fill)" stroke-width="0.96"/><style><![CDATA[@font-face {font-family: 'ebD82d0Im6C1:::Ranchers';font-style: normal;font-weight: 400;src: url(https://fonts.gstatic.com/l/font?kit=zrfm0H3Lx-P2Xvs2AoDYFCuy&skey=d5ab3d28a945ee24&v=v13) format('truetype');}]]></style></svg>