<?xml version="1.0" standalone="no"?>
<!DOCTYPE svg PUBLIC "-//W3C//DTD SVG 20010904//EN"
 "http://www.w3.org/TR/2001/REC-SVG-20010904/DTD/svg10.dtd">
<svg version="1.0" xmlns="http://www.w3.org/2000/svg"
 width="2240.000000pt" height="2200.000000pt" viewBox="0 0 2240.000000 2200.000000"
 preserveAspectRatio="xMidYMid meet">

<g transform="translate(0.000000,2200.000000) scale(0.100000,-0.100000)"
fill="#000000" stroke="none">
<path d="M10895 21976 l-80 -11 -14 -70 c-8 -45 -14 -155 -15 -305 -1 -265 7
-339 79 -730 119 -642 117 -596 97 -1560 -20 -1009 -37 -1287 -108 -1775 -132
-906 -386 -1875 -736 -2815 -315 -846 -681 -1663 -1142 -2550 -261 -501 -372
-701 -976 -1750 -84 -146 -155 -270 -157 -277 -4 -9 75 -73 90 -73 3 0 63 69
134 153 871 1026 1830 2589 2498 4067 849 1881 1383 3791 1650 5915 40 310 26
464 -56 630 -45 93 -181 240 -666 723 -503 500 -434 451 -598 428z"/>
<path d="M9622 20642 l-114 -57 -254 -248 c-366 -358 -450 -465 -504 -646 -39
-126 -33 -197 38 -471 142 -549 224 -1043 278 -1660 21 -250 30 -990 15 -1272
-58 -1055 -252 -2042 -620 -3148 -131 -391 -206 -592 -448 -1195 -102 -253
-187 -465 -190 -472 -5 -12 94 -69 104 -60 18 19 265 483 401 757 1264 2532
1734 5226 1447 8285 -19 196 -25 245 -34 244 -3 0 -57 -26 -119 -57z"/>
<path d="M13316 19663 c-3 -10 -24 -106 -47 -213 -197 -925 -520 -1975 -907
-2942 -848 -2119 -2054 -4148 -4024 -6770 -180 -240 -328 -440 -328 -444 0 -5
16 -25 36 -46 l37 -37 46 31 c79 55 120 97 330 343 112 132 268 312 346 400
2061 2337 3782 4999 5058 7825 225 499 271 637 271 820 1 96 -3 126 -23 184
-53 153 -219 348 -576 674 -238 218 -212 197 -219 175z"/>
<path d="M7524 18577 c-330 -266 -398 -379 -346 -584 20 -77 48 -143 245 -573
332 -727 528 -1422 614 -2180 25 -222 25 -898 0 -1120 -58 -513 -179 -1077
-422 -1970 -48 -173 -113 -417 -145 -543 l-58 -227 29 -15 c80 -42 71 -46 158
83 487 728 817 1782 926 2957 48 526 48 1127 -1 1655 -81 886 -319 1731 -652
2315 -57 100 -186 300 -199 308 -5 3 -72 -44 -149 -106z"/>
<path d="M14987 17918 c-19 -35 -78 -144 -132 -243 -761 -1402 -1826 -3007
-3065 -4615 -742 -963 -1594 -2005 -3008 -3678 -95 -112 -172 -208 -170 -212
2 -5 39 -40 83 -79 l80 -71 20 24 c11 13 754 831 1651 1817 897 987 2103 2314
2681 2949 577 635 1462 1609 1966 2163 504 555 917 1014 917 1020 0 13 -970
987 -982 987 -4 0 -22 -28 -41 -62z"/>
<path d="M5992 17047 c-193 -193 -352 -356 -352 -360 0 -4 44 -60 98 -125 505
-606 905 -1297 1134 -1955 331 -956 349 -1943 52 -2961 -24 -83 -44 -154 -44
-158 0 -4 23 -19 50 -33 l50 -25 34 53 c227 354 418 867 510 1367 238 1295
-28 2768 -705 3905 -141 238 -434 644 -464 645 -6 0 -169 -159 -363 -353z"/>
<path d="M13072 12697 c-1992 -1992 -3622 -3627 -3622 -3632 0 -6 17 -27 38
-47 l37 -37 1756 1412 c1968 1584 3641 2928 5217 4195 584 470 1062 857 1062
861 0 3 -195 201 -433 439 l-432 432 -3623 -3623z"/>
<path d="M4676 15721 l-337 -337 316 -273 c449 -388 602 -527 835 -761 298
-298 482 -518 665 -795 335 -507 504 -1005 555 -1640 7 -77 13 -141 14 -142 2
-3 124 256 151 322 31 76 83 300 95 413 17 157 8 460 -19 622 -28 165 -88 392
-149 565 -286 811 -902 1659 -1627 2239 -77 62 -145 115 -151 119 -5 3 -162
-146 -348 -332z"/>
<path d="M3647 14630 c-84 -15 -129 -46 -314 -222 -160 -152 -691 -688 -681
-688 1 0 35 -9 73 -20 39 -12 264 -75 500 -141 870 -243 1208 -355 1595 -529
636 -285 1116 -677 1460 -1192 54 -81 100 -152 102 -159 4 -13 228 96 228 110
0 5 -14 41 -31 82 -16 41 -71 182 -120 314 -184 489 -252 621 -455 881 -426
548 -1050 1010 -1974 1463 -182 89 -212 101 -270 105 -36 2 -86 1 -113 -4z"/>
<path d="M18542 14150 c-122 -17 -231 -52 -637 -205 -2112 -795 -4154 -1935
-5953 -3322 -253 -195 -581 -460 -922 -743 -303 -253 -1374 -1156 -1468 -1239
l-52 -46 37 -43 38 -42 305 226 c1469 1090 2610 1814 3790 2403 844 421 1638
735 2445 968 906 261 1720 402 2680 465 242 16 1073 16 1305 0 96 -7 220 -15
275 -18 l100 -6 -581 579 c-320 318 -623 628 -674 688 -112 133 -164 184 -251
241 -123 80 -284 115 -437 94z"/>
<path d="M1783 12785 c-23 -7 -64 -25 -90 -41 -30 -17 -287 -265 -681 -658
l-633 -631 93 -8 c124 -11 1316 -1 1683 14 413 17 1451 17 1695 1 982 -66
1723 -244 2429 -583 90 -44 166 -78 168 -76 1 2 -8 37 -22 78 -14 40 -50 173
-80 294 -70 278 -98 339 -198 429 -217 195 -450 350 -641 426 -180 72 -1254
309 -2855 631 -720 144 -778 153 -868 124z"/>
<path d="M17580 11564 c-30 -2 -136 -8 -235 -14 -625 -38 -1301 -139 -1850
-277 -847 -213 -1856 -600 -2850 -1093 -850 -421 -1506 -820 -2004 -1217 -140
-113 -426 -385 -469 -448 l-20 -30 37 -44 38 -44 154 95 c2100 1294 4198 1858
6359 1712 1216 -82 2432 -408 3598 -964 151 -72 213 -96 285 -111 164 -34 310
-19 387 39 82 62 327 298 838 806 l544 541 -6 95 c-12 169 -9 162 -79 188
-197 72 -742 250 -922 301 -839 239 -1595 375 -2490 447 -186 15 -1157 28
-1315 18z"/>
<path d="M4360 10620 c-480 -17 -1017 -70 -1675 -166 -262 -38 -417 -62 -1172
-183 -543 -88 -1096 -169 -1343 -197 -85 -10 -157 -19 -160 -21 -2 -3 209
-217 471 -476 261 -260 536 -536 610 -613 118 -124 143 -146 209 -178 102 -50
186 -63 302 -47 92 12 210 47 893 263 958 302 1560 470 2085 582 618 131 1240
206 1721 206 134 0 158 2 163 16 12 30 6 229 -9 298 -57 270 -243 398 -655
450 -476 60 -958 82 -1440 66z"/>
<path d="M14095 9573 c-687 -24 -1357 -162 -1865 -384 -274 -120 -509 -265
-728 -448 l-52 -44 21 -36 c41 -68 30 -68 210 -8 374 125 726 205 1119 254
117 14 218 18 525 18 339 0 399 -3 550 -23 999 -134 1892 -552 2868 -1341 351
-284 616 -528 1053 -967 l320 -323 643 643 c627 628 643 644 628 666 -78 111
-372 399 -571 558 -1161 932 -3014 1495 -4721 1435z"/>
<path d="M6536 9329 c-109 -14 -200 -41 -556 -163 -668 -228 -2278 -802 -3653
-1303 l-98 -36 257 -261 c481 -490 728 -722 803 -753 55 -23 183 -28 271 -9
109 23 182 63 1039 573 890 530 1206 702 2221 1205 239 119 441 220 448 226
10 7 5 28 -24 102 -130 324 -365 463 -708 419z"/>
<path d="M12440 8609 c-285 -37 -549 -140 -810 -317 -74 -51 -146 -101 -160
-112 l-25 -21 30 7 c54 13 564 10 660 -4 366 -52 649 -155 911 -331 280 -187
446 -375 766 -861 239 -363 396 -639 604 -1065 264 -539 368 -821 663 -1785
72 -234 149 -485 173 -559 l43 -133 506 503 c546 544 772 781 797 838 26 56
23 260 -4 326 -31 77 -715 1082 -1058 1554 -493 681 -796 1022 -1160 1305
-450 351 -986 588 -1469 651 -125 16 -358 18 -467 4z"/>
<path d="M7690 8344 c-120 -33 -248 -125 -1020 -733 -626 -493 -2285 -1836
-2305 -1866 -8 -12 92 -117 475 -500 267 -267 490 -485 496 -485 10 0 496 527
2369 2564 297 323 541 591 543 595 5 13 -166 221 -252 306 -119 119 -197 149
-306 119z"/>
<path d="M11480 7889 c-86 -9 -291 -49 -369 -72 l-43 -12 101 -83 c512 -424
807 -1011 895 -1783 75 -658 75 -2779 1 -3819 -21 -280 -47 -568 -105 -1145
-63 -626 -92 -944 -88 -957 5 -13 1800 1790 1831 1839 39 62 57 136 57 238 0
125 -246 1821 -386 2660 -88 529 -161 916 -210 1115 -124 503 -406 1208 -605
1510 -256 390 -611 557 -1079 509z"/>
<path d="M7645 5739 l-1287 -2002 618 -618 c341 -341 623 -618 628 -616 9 3
369 791 562 1231 304 691 958 2316 1204 2991 161 443 193 556 193 690 1 126
-41 203 -135 251 -67 34 -146 53 -252 59 -50 3 -125 8 -167 10 l-76 5 -1288
-2001z"/>
<path d="M10405 7644 c-111 -14 -305 -66 -305 -82 0 -4 7 -43 15 -87 44 -226
59 -602 34 -851 -22 -223 -75 -498 -150 -772 -132 -483 -526 -1516 -1174
-3082 -330 -798 -354 -859 -365 -936 -12 -91 0 -170 42 -254 26 -55 58 -91
202 -229 94 -90 406 -401 693 -690 351 -354 523 -521 527 -511 2 8 26 109 51
225 79 354 187 795 400 1635 293 1154 391 1568 499 2110 214 1069 313 2060
252 2525 -53 408 -143 689 -263 824 -91 103 -218 164 -363 174 -36 3 -78 3
-95 1z"/>
</g>
</svg>
