<svg width="200" height="200" viewBox="0 0 200 200" fill="none" xmlns="http://www.w3.org/2000/svg">
<path d="M183.89 150.002V50.0025L100.445 0.00439453L17 50.0025V150.002L100.445 200L183.89 150.002Z" fill="#02E296"/>
<path d="M100.459 0.0042493L17 50.0023V150.002L100.459 199.93V4.54537C100.459 4.54537 100.459 -0.160946 100.459 0.0042493Z" fill="#0FCE89"/>
<path d="M70.9803 36.625L34.9009 73.0454L57.2375 96.1868L95.1376 100.928L62.1019 63.8612L99.7314 96.2923L94.4697 58.6066L70.9803 36.625Z" fill="white"/>
<path d="M129.702 166.687L165.782 130.266L143.445 107.125L105.545 102.383L138.581 139.45L100.951 107.019L106.213 144.705L129.702 166.687Z" fill="white"/>
<path d="M35.3123 131.015L71.7291 167.098L94.8706 144.758L99.6156 106.858L62.5449 139.893L94.976 102.264L57.2903 107.526L35.3123 131.015Z" fill="white"/>
<path d="M165.37 72.2968L128.954 36.2139L105.812 58.5539L101.067 96.4505L138.138 63.4184L105.707 101.048L143.392 95.7863L165.37 72.2968Z" fill="white"/>
</svg>
