<?xml version="1.0" encoding="utf-8"?>
<svg version="1.1" id="Layer_2" x="0px" y="0px" viewBox="0 0 216 216" style="enable-background:new 0 0 216 216;" xmlns="http://www.w3.org/2000/svg">
  <ellipse style="stroke: rgb(0, 0, 0); paint-order: fill; fill: rgb(255, 255, 255);" cx="108.486" cy="107.517" rx="77.503" ry="75.799"/>
  <g>
    <g>
      <path d="M108,172.06c-31.26,0-57.34-22.51-62.94-52.16H37c5.68,34.1,35.3,60.1,71,60.1s65.33-26,71-60.1h-8.06 C165.34,149.56,139.26,172.06,108,172.06z" style="fill-rule: nonzero;"/>
      <path d="M108,36c-39.76,0-72,32.24-72,72c0,1.33,0.04,2.65,0.11,3.97h31.93v36.41h19.77v-17.31h31.38l5.92,17.31h19.77l-8.55-24.97 c3.77-3.11,6.81-7.01,8.83-11.44h34.73c0.07-1.31,0.11-2.64,0.11-3.97C180,68.24,147.76,36,108,36z M128.18,104.03v-12.5 c0-6.71-5.82-12-13.24-12h-13.87c-7.42,0-13.26,5.3-13.26,12v12.5H44.07c0.17-2.7,0.52-5.34,1.01-7.94h22.96v-4.57 c0-17.48,14.84-31.78,33.02-31.78h13.87c18.19,0,33.02,14.31,33.02,31.78v4.57h22.96c0.49,2.6,0.84,5.24,1.01,7.94H128.18z" style="fill-rule: nonzero;"/>
    </g>
  </g>
</svg>