<svg width="240" height="240" viewBox="0 0 240 240" fill="none" xmlns="http://www.w3.org/2000/svg">
<circle cx="120" cy="120" r="120" fill="black"/>
<path fill-rule="evenodd" clip-rule="evenodd" d="M120 227.5C179.371 227.5 227.5 179.371 227.5 120C227.5 60.6294 179.371 12.5 120 12.5C60.6294 12.5 12.5 60.6294 12.5 120C12.5 179.371 60.6294 227.5 120 227.5ZM120 232.5C182.132 232.5 232.5 182.132 232.5 120C232.5 57.868 182.132 7.5 120 7.5C57.868 7.5 7.5 57.868 7.5 120C7.5 182.132 57.868 232.5 120 232.5Z" fill="#F0827D"/>
<path fill-rule="evenodd" clip-rule="evenodd" d="M127.81 70.449C114.871 70.2788 104.486 80.183 104.613 92.5706L104.756 106.427L112.862 98.6974C115.31 96.3625 119.319 96.4153 121.816 98.8152C124.314 101.215 124.353 105.053 121.905 107.388L113.799 115.118L128.272 115.309C141.211 115.479 151.597 105.575 151.469 93.1871C151.341 80.7995 140.749 70.6193 127.81 70.449ZM92.3945 135.531L92.7436 170.488C92.7781 173.836 95.6409 176.587 99.1379 176.633C102.635 176.679 105.442 174.003 105.407 170.655L105.058 135.698L146.048 175.085C148.545 177.485 152.554 177.537 155.002 175.202C157.45 172.868 157.411 169.029 154.914 166.629L113.924 127.243L128.397 127.433C148.33 127.695 164.329 112.437 164.133 93.3538C163.936 74.2701 147.618 58.5871 127.685 58.3248C107.752 58.0625 91.7531 73.3203 91.9498 92.404L92.0927 106.261L83.8255 98.3153C81.3284 95.9154 77.3193 95.8626 74.871 98.1975C72.4227 100.532 72.4623 104.371 74.9594 106.771L83.2265 114.716L71.9193 114.567C68.4223 114.521 65.6154 117.198 65.65 120.546C65.6845 123.894 68.5473 126.645 72.0443 126.691L83.3515 126.84L75.246 134.57C72.7977 136.905 72.8372 140.743 75.3344 143.143C77.8315 145.543 81.8406 145.596 84.2889 143.261L92.3945 135.531Z" fill="url(#paint0_radial_326_42795)"/>
<path opacity="0.7" fill-rule="evenodd" clip-rule="evenodd" d="M98.2028 84.6071C101.7 84.6531 104.563 87.4045 104.597 90.7525L104.759 106.428L112.864 98.6979C115.313 96.363 119.322 96.4158 121.819 98.8157C124.316 101.216 124.355 105.054 121.907 107.389L113.802 115.119L130.174 115.334C133.671 115.38 136.534 118.132 136.569 121.48C136.603 124.828 133.796 127.504 130.299 127.458L113.927 127.243L154.914 166.628C157.411 169.028 157.451 172.866 155.002 175.201C152.554 177.536 148.545 177.483 146.048 175.083L105.06 135.698L105.185 147.736C105.219 151.084 102.412 153.761 98.9152 153.715C95.4183 153.669 92.5554 150.918 92.5209 147.57L92.3968 135.532L84.2913 143.262C81.8429 145.597 77.8339 145.544 75.3367 143.144C72.8396 140.744 72.8 136.906 75.2483 134.571L83.3539 126.841L72.0466 126.692C68.5497 126.646 65.6868 123.895 65.6523 120.547C65.6178 117.199 68.4247 114.522 71.9216 114.568L83.2289 114.717L74.9617 106.771C72.4646 104.371 72.425 100.533 74.8734 98.198C77.3217 95.8631 81.3308 95.9159 83.8279 98.3158L92.0951 106.261L91.9335 90.5859C91.8989 87.2378 94.7058 84.561 98.2028 84.6071Z" fill="url(#paint1_linear_326_42795)"/>
<g style="mix-blend-mode:overlay" opacity="0.8">
<path fill-rule="evenodd" clip-rule="evenodd" d="M125.786 58.2982C122.289 58.2521 119.482 60.9289 119.517 64.277C119.551 67.625 122.414 70.3764 125.911 70.4224L127.81 70.4474C140.749 70.6176 151.342 80.7978 151.469 93.1855C151.597 105.573 141.212 115.477 128.273 115.307L130.172 115.332C133.669 115.378 136.532 118.129 136.567 121.478C136.597 124.382 134.489 126.781 131.647 127.336C150.04 126.005 164.319 111.387 164.133 93.3521C163.936 74.2684 147.618 58.5854 127.685 58.3231L125.786 58.2982Z" fill="url(#paint2_linear_326_42795)"/>
</g>
<path opacity="0.8" fill-rule="evenodd" clip-rule="evenodd" d="M125.786 58.2982C122.289 58.2521 119.482 60.9289 119.517 64.277C119.551 67.625 122.414 70.3764 125.911 70.4224L127.81 70.4474C140.749 70.6176 151.342 80.7978 151.469 93.1855C151.597 105.573 141.212 115.477 128.273 115.307L130.172 115.332C133.669 115.378 136.532 118.129 136.567 121.478C136.597 124.382 134.489 126.781 131.647 127.336C150.04 126.005 164.319 111.387 164.133 93.3521C163.936 74.2684 147.618 58.5854 127.685 58.3231L125.786 58.2982Z" fill="url(#paint3_linear_326_42795)"/>
<defs>
<radialGradient id="paint0_radial_326_42795" cx="0" cy="0" r="1" gradientUnits="userSpaceOnUse" gradientTransform="translate(70.8624 121.942) rotate(-5.50819) scale(113.469 238.512)">
<stop stop-color="#F99974"/>
<stop offset="0.166667" stop-color="#FE4366"/>
<stop offset="0.402254" stop-color="#F43D88"/>
<stop offset="0.552743" stop-color="#D72DE5"/>
<stop offset="0.6875" stop-color="#3B7BEA"/>
<stop offset="0.828125" stop-color="#30B1CD"/>
<stop offset="0.927083" stop-color="#40CAD7"/>
<stop offset="1" stop-color="#09ACA2"/>
</radialGradient>
<linearGradient id="paint1_linear_326_42795" x1="73.2788" y1="101.722" x2="146.827" y2="176.568" gradientUnits="userSpaceOnUse">
<stop stop-color="white" stop-opacity="0"/>
<stop offset="0.270833" stop-color="white" stop-opacity="0.5"/>
<stop offset="0.515625" stop-color="white" stop-opacity="0.8"/>
<stop offset="0.802083" stop-color="white" stop-opacity="0.5"/>
<stop offset="1" stop-color="white" stop-opacity="0"/>
</linearGradient>
<linearGradient id="paint2_linear_326_42795" x1="152.735" y1="118.95" x2="152.264" y2="84.9097" gradientUnits="userSpaceOnUse">
<stop stop-color="#2F3146"/>
<stop offset="1" stop-color="#2F3146" stop-opacity="0"/>
</linearGradient>
<linearGradient id="paint3_linear_326_42795" x1="152.735" y1="118.95" x2="152.264" y2="84.9097" gradientUnits="userSpaceOnUse">
<stop stop-color="#2F3146"/>
<stop offset="1" stop-color="#2F3146" stop-opacity="0"/>
</linearGradient>
</defs>
</svg>
