<?xml version="1.0" encoding="utf-8"?>
<!-- Generator: Adobe Illustrator 26.5.1, SVG Export Plug-In . SVG Version: 6.00 Build 0)  -->
<svg version="1.1" id="Layer_1" xmlns="http://www.w3.org/2000/svg" xmlns:xlink="http://www.w3.org/1999/xlink" x="0px" y="0px"
	 viewBox="0 0 160 160" style="enable-background:new 0 0 160 160;" xml:space="preserve">
<style type="text/css">
	.st0{fill:#FAFAFA;stroke:#000000;}
	.st1{fill:#85BE60;}
	.st2{fill:#7B7F84;}
</style>
<ellipse class="st0" cx="80" cy="80" rx="80" ry="80"/>
<path class="st1" d="M105.4,47.6c-0.2-13.4-6.7-21.5-19.1-23.5c-9.4-1.5-18.7,5-20.2,14.3c-0.3,2.1,0.1,4.3,1.1,6.2
	c2.6,4.9,7.5,8.2,13.1,8.7c3.8,0.5,6.6-1.8,6.5-5.1c-0.1-2-0.9-2.9-2.9-2.5c-1.4,0.3-2.7,0.7-4.1,1.1c-3.8,1.1-6.4,0.2-8.1-3.3
	c-0.6-1.4-0.5-3.1,0.2-4.5c5.4-8,20-7.7,25.2,0.3c3.7,5.6,1.6,15-4.7,17.8c-7.8,3.3-16,5.7-25,2.9c-7.7-2.4-11.6-7.3-12.8-14.8
	c-2.9-17.2,5.5-27,22.2-30.5c6.8-1.4,13.7-1.5,20.2,1.5c10.3,4.8,15.6,13.6,18.1,24.3c3.7,15.4-5.6,35.3-19.4,43
	c-8.3,4.6-16.5,3.7-24.8,0.2c-4.3-1.8-8.5-3.9-12.5-6.2c-5.3-3-10.8-3.1-16.7-2.3c-2.7,0.3-5.4-0.2-7.7-1.4c-3-1.7-4.1-5.6-2.3-8.6
	c0.6-1,1.5-1.9,2.5-2.4c6-3.6,13.5-3.6,19.5-0.1c6,3.2,12,6.7,18.4,8.9c12.6,4.3,28.6-4.5,32.1-16.9C105.1,52.5,105.1,50,105.4,47.6
	z"/>
<path class="st2" d="M35.2,121.5c0-3.2-10.7-3.3-10.7-10.2c0-4.8,4-7,8.5-7c2.1-0.1,4.3,0.4,6.2,1.4c0.9,0.5,1.5,1.5,1.5,2.5
	c0,1.4-1.1,2.6-2.5,2.6c-0.1,0-0.1,0-0.2,0c-2,0-3.5-1.3-5.8-1.3c-1,0-1.8,0.3-1.8,1.4c0,2.7,11,3.4,10.9,9.9c0,5.2-4.6,7.2-8.7,7.2
	c-2.6,0-5.1-0.8-7.3-2.3c-0.8-0.6-1.2-1.5-1.2-2.5c0-1.4,1.1-2.6,2.5-2.6c0.1,0,0.1,0,0.2,0c2.3,0,3.4,2.2,6.4,2.2
	C34.4,122.9,35.2,122.5,35.2,121.5z M46.5,95.8c1.9,0,3.5,1.5,3.6,3.4c0,1.9-1.5,3.5-3.4,3.6c-1.9,0-3.5-1.5-3.6-3.4c0,0,0,0,0-0.1
	c-0.1-1.9,1.4-3.5,3.3-3.5C46.4,95.8,46.5,95.8,46.5,95.8L46.5,95.8z M43.6,108.2c0-2,1.1-3,2.9-3c1.9,0,3,1,3,3v16.5
	c0,2.1-1,3.1-3,3.1c-2,0-3-1-3-3.1L43.6,108.2z M52.9,99c0-2,0.9-3.1,2.9-3.1c2,0,2.9,1,2.9,3.1v13.3l7.5-6.5c0.6-0.5,1.3-0.7,2-0.7
	c1.7,0.1,3,1.5,3,3.2c0,0.9-0.4,1.8-1.2,2.3l-4.2,3.6c5.1,9.5,5.8,8.5,5.8,10.8c0,1.7-0.8,3.1-2.8,3.1c-1.1,0-2.2-0.6-2.8-1.6
	l-4.8-8.7c-0.2,0.2-2.3,1.9-2.5,2.1v5c0,2-0.9,3-2.9,3c-2,0-2.9-1-2.9-3L52.9,99z M92.7,116.4c0,6.2-3.5,11.8-10,11.8
	c-6.5,0-10-5.9-9.9-12c0-6.2,3.4-11.6,10-11.5C89.3,104.7,92.8,110.4,92.7,116.4L92.7,116.4z M78.8,116c0,2.7,1.2,6.7,3.9,6.7
	c2.7,0,3.9-3.2,3.9-6c0-2.8-1.2-6.4-3.9-6.4C80,110.2,78.8,113.2,78.8,116L78.8,116z M95.4,98.6c0-2,0.9-3.1,2.9-3.1
	c2,0,3,1.1,3,3.1v9.1c1.2-2,3.4-3.2,5.8-3.2c3.8,0,7.8,4,7.8,11.8c0,6.5-4.6,11.9-8.8,11.9c-2.4-0.1-4.5-1.5-5.3-3.7v1.3
	c-0.1,1.3-1.2,2.4-2.5,2.4c-1.9,0-2.9-1.1-2.9-3.2L95.4,98.6z M108.8,116.5c0-2.7-0.9-6.2-3.4-6.2c-2.7,0-4,3.2-4,6c0,3,1.2,6,4,6
	C107.9,122.3,108.8,119.2,108.8,116.5z M126.1,104.9c4.9,0,9.7,2.4,9.7,8.4v11.8c0.1,1.6-1.2,3-2.8,3c-0.1,0-0.1,0-0.2,0
	c-1.2,0-2.3-0.9-2.4-2.1v-0.8c-1.6,1.8-3.9,2.8-6.3,2.9c-4.4,0-6.9-3.1-6.9-6.4c0.1-4.1,3.5-7.3,7.6-7.2c0.1,0,0.1,0,0.2,0
	c1.9,0,3.9,0.5,5.5,1.6v-1.9c0-2.3-2.5-3.8-4.7-3.8c-1.6,0-2.8,0.5-4.2,0.5c-1.4,0-2.8-0.5-2.8-2.5c0.1-1.2,0.9-2.2,2-2.5
	C122.5,105.3,124.3,104.9,126.1,104.9L126.1,104.9z M126.2,122.9c1.7,0,3.6-0.7,3.6-2.1c0-1-1.7-1.6-3.2-1.6s-3.2,0.5-3.2,1.8
	C123.3,122.3,124.8,122.9,126.2,122.9L126.2,122.9z"/>
</svg>
