<svg width="472" height="472" viewBox="0 0 472 472" fill="none" xmlns="http://www.w3.org/2000/svg">
<g clip-path="url(#clip0_73_94)">
<path d="M235.586 471.172C365.697 471.172 471.172 365.697 471.172 235.586C471.172 105.475 365.697 3.05176e-05 235.586 3.05176e-05C105.475 3.05176e-05 0 105.475 0 235.586C0 365.697 105.475 471.172 235.586 471.172Z" fill="#191919"/>
<path d="M310.256 395.075C294.118 411.142 273.514 421.976 251.13 426.164C228.746 430.352 205.619 427.7 184.764 418.555L207.244 364.268C213.883 367.382 221.084 369.117 228.413 369.37C235.741 369.622 243.045 368.386 249.882 365.737C256.72 363.087 262.949 359.078 268.194 353.953C273.438 348.828 277.589 342.693 280.396 335.918C283.202 329.143 284.606 321.87 284.523 314.537C284.439 307.205 282.87 299.965 279.909 293.256C276.949 286.547 272.659 280.508 267.299 275.504C261.939 270.499 255.62 266.634 248.724 264.141L271.205 209.88C288.723 216.678 304.27 227.737 316.439 242.055C328.608 256.373 337.015 273.5 340.9 291.885C344.784 310.27 344.024 329.333 338.688 347.351C333.352 365.368 323.608 381.771 310.337 395.075H310.256Z" fill="url(#paint0_linear_73_94)"/>
<path d="M324.09 82.104L271.167 209.881L248.686 264.141L207.206 364.268L184.725 418.555C171.976 412.899 160.379 404.94 150.519 395.075L136.674 381.189L189.597 253.44L212.077 199.153L276.011 44.8465C288.785 50.4249 300.398 58.353 310.245 68.2184L324.09 82.104Z" fill="url(#paint1_linear_73_94)"/>
<path d="M258.677 38.828L235.738 94.1542C233.968 93.9567 232.188 93.8665 230.408 93.8843C219.695 93.8894 209.224 97.0688 200.316 103.021C191.409 108.974 184.466 117.432 180.362 127.328C176.259 137.224 175.18 148.115 177.262 158.624C179.343 169.133 184.492 178.789 192.058 186.374C193.314 187.633 194.639 188.822 196.025 189.936C200.809 193.898 206.242 197.002 212.083 199.112L189.602 253.44C174.915 247.769 161.583 239.075 150.47 227.922C132.927 210.41 121.636 187.608 118.343 163.039C115.049 138.47 119.935 113.5 132.247 91.9849C144.559 70.4698 163.611 53.6065 186.462 43.999C209.313 34.3915 234.691 32.5743 258.677 38.828Z" fill="url(#paint2_linear_73_94)"/>
</g>
<defs>
<linearGradient id="paint0_linear_73_94" x1="312.132" y1="388.638" x2="197.823" y2="279.554" gradientUnits="userSpaceOnUse">
<stop stop-color="#FFD700"/>
<stop offset="1" stop-color="#FF7F50"/>
</linearGradient>
<linearGradient id="paint1_linear_73_94" x1="152.731" y1="421.267" x2="293.155" y2="78.3687" gradientUnits="userSpaceOnUse">
<stop stop-color="#FFD700"/>
<stop offset="1" stop-color="#FF7F50"/>
</linearGradient>
<linearGradient id="paint2_linear_73_94" x1="168.592" y1="67.4627" x2="248.277" y2="228.136" gradientUnits="userSpaceOnUse">
<stop stop-color="#FFD700"/>
<stop offset="1" stop-color="#FF7F50"/>
</linearGradient>
<clipPath id="clip0_73_94">
<rect width="471.172" height="471.172" fill="white"/>
</clipPath>
</defs>
</svg>
