<?xml version="1.0" standalone="no"?>
<!DOCTYPE svg PUBLIC "-//W3C//DTD SVG 20010904//EN"
 "http://www.w3.org/TR/2001/REC-SVG-20010904/DTD/svg10.dtd">
<svg version="1.0" xmlns="http://www.w3.org/2000/svg"
 width="587.000000pt" height="676.000000pt" viewBox="0 0 587.000000 676.000000"
 preserveAspectRatio="xMidYMid meet">

<g transform="translate(0.000000,676.000000) scale(0.100000,-0.100000)"
fill="#000000" stroke="none">
<path d="M0 3380 l0 -3380 2935 0 2935 0 0 3380 0 3380 -2935 0 -2935 0 0
-3380z m1361 2129 c217 1 399 -2 406 -6 6 -5 19 -28 28 -53 47 -132 173 -503
210 -620 24 -74 51 -155 59 -180 33 -90 215 -641 290 -875 43 -132 106 -325
141 -430 35 -104 84 -257 110 -340 80 -258 166 -527 191 -600 22 -63 114 -365
150 -490 7 -27 14 -60 14 -72 0 -13 4 -23 9 -23 9 0 18 27 75 220 14 47 33
105 42 130 9 25 27 79 40 120 13 41 48 147 79 235 31 88 85 250 121 360 36
110 78 238 95 285 16 47 54 159 84 250 86 266 104 319 288 870 97 289 206 611
242 715 37 105 77 224 90 265 33 108 53 164 70 196 8 16 15 34 15 39 0 6 137
10 390 10 446 0 407 11 364 -102 -24 -64 -56 -156 -124 -353 -15 -47 -45 -130
-65 -185 -20 -55 -81 -233 -135 -395 -54 -162 -126 -371 -158 -465 -33 -93
-63 -179 -67 -190 -4 -11 -11 -29 -16 -40 -9 -20 -20 -51 -106 -305 -25 -74
-55 -157 -67 -185 -12 -27 -42 -111 -66 -185 -24 -74 -51 -153 -61 -175 -9
-22 -21 -56 -27 -75 -6 -19 -31 -91 -57 -160 -25 -69 -75 -208 -109 -310 -35
-102 -91 -264 -125 -360 -35 -96 -69 -193 -76 -215 -7 -22 -32 -89 -55 -150
-23 -60 -80 -220 -125 -355 -46 -135 -97 -281 -113 -325 -43 -117 -117 -323
-163 -455 -22 -63 -56 -155 -75 -205 l-35 -90 -169 0 -170 0 -14 30 c-24 49
-156 401 -236 630 -23 66 -47 134 -54 150 -19 43 -72 194 -172 485 -29 85 -72
207 -95 270 -105 291 -146 407 -199 565 -32 94 -75 215 -95 270 -90 249 -128
358 -161 460 -19 61 -44 130 -54 155 -10 25 -52 146 -94 270 -42 124 -90 263
-106 310 -17 47 -42 121 -56 165 -31 97 -35 109 -72 210 -40 109 -106 297
-130 370 -11 33 -40 119 -65 190 -179 510 -257 744 -257 768 0 6 6 3 13 -8 13
-17 36 -18 408 -16z"/>
</g>
</svg>
