<?xml version="1.0" standalone="no"?>
<!DOCTYPE svg PUBLIC "-//W3C//DTD SVG 20010904//EN"
 "http://www.w3.org/TR/2001/REC-SVG-20010904/DTD/svg10.dtd">
<svg version="1.0" xmlns="http://www.w3.org/2000/svg"
 width="550.000000pt" height="550.000000pt" viewBox="0 0 550.000000 550.000000"
 preserveAspectRatio="xMidYMid meet">

<g transform="translate(0.000000,550.000000) scale(0.100000,-0.100000)"
fill="#d8552a" stroke="none">
<path d="M1543 3988 c3 -992 5 -1089 21 -1157 28 -117 62 -197 121 -287 96
-144 231 -245 380 -285 103 -27 279 -30 379 -5 181 44 346 194 414 377 28 76
52 197 52 263 l0 55 -47 -26 c-35 -20 -65 -28 -122 -31 -106 -6 -156 10 -212
67 -84 84 -82 63 -90 801 -7 677 -7 684 -55 850 -60 208 -230 369 -449 425
-71 18 -220 34 -323 35 l-73 0 4 -1082z"/>
<path d="M3060 3212 c0 -1687 1 -1860 16 -1866 9 -3 67 -6 129 -6 188 0 315
36 437 123 134 96 243 258 282 418 34 140 37 259 33 1424 -4 1299 1 1221 -83
1394 -115 234 -325 346 -691 367 l-123 7 0 -1861z"/>
<path d="M2556 1669 c-234 -34 -379 -126 -468 -295 -52 -99 -71 -178 -71 -304
0 -156 40 -284 126 -396 69 -90 209 -178 337 -210 88 -22 264 -23 349 0 275
72 466 350 431 627 -5 45 -11 83 -13 85 -1 2 -29 -10 -62 -27 -146 -72 -285
-33 -342 96 -14 32 -18 76 -21 231 l-4 191 -66 7 c-81 7 -118 6 -196 -5z"/>
</g>
</svg>
