<svg xmlns="http://www.w3.org/2000/svg" viewBox="0 0 512 512" width="512" height="512">
<defs>
<radialGradient id="b" cx="38%" cy="33%" r="65%"><stop offset="0" stop-color="#4AA6D6"></stop><stop offset="0.5" stop-color="#2E7FBE"></stop><stop offset="1" stop-color="#22468F"></stop></radialGradient>
<radialGradient id="f" cx="42%" cy="37%" r="52%"><stop offset="0" stop-color="#3E9AD0"></stop><stop offset="1" stop-color="#286FB4"></stop></radialGradient>
</defs>
<circle cx="256" cy="256" r="248" fill="url(#b)"></circle>
<circle cx="256" cy="256" r="244" fill="none" stroke="rgba(255,255,255,0.22)" stroke-width="3"></circle>
<circle cx="256" cy="256" r="200" fill="url(#f)"></circle>
<circle cx="256" cy="256" r="200" fill="none" stroke="rgba(255,255,255,0.20)" stroke-width="2.5"></circle>
<circle cx="256" cy="256" r="196" fill="none" stroke="rgba(20,50,120,0.25)" stroke-width="1.5"></circle>
<circle cx="338.6" cy="167.9" r="29.2" fill="#fff"></circle><circle cx="171.0" cy="348.8" r="29.2" fill="#fff"></circle><circle cx="260.1" cy="125.8" r="24.5" fill="#fff"></circle><circle cx="241.7" cy="385.9" r="24.5" fill="#fff"></circle><circle cx="188.3" cy="151.6" r="21.4" fill="#fff"></circle><circle cx="314.5" cy="370.2" r="21.4" fill="#fff"></circle><circle cx="352.6" cy="315.2" r="18.4" fill="#fff"></circle><circle cx="158.8" cy="210.4" r="17.7" fill="#fff"></circle><circle cx="345.8" cy="256.0" r="16.7" fill="#fff"></circle><circle cx="171.7" cy="269.6" r="16.7" fill="#fff"></circle><circle cx="313.1" cy="219.3" r="14.3" fill="#fff"></circle><circle cx="204.7" cy="305.0" r="14.3" fill="#fff"></circle><circle cx="277.1" cy="203.3" r="10.5" fill="#fff"></circle><circle cx="241.7" cy="319.2" r="10.2" fill="#fff"></circle><circle cx="246.8" cy="200.9" r="8.5" fill="#fff"></circle><circle cx="272.0" cy="320.6" r="8.2" fill="#fff"></circle><circle cx="293.1" cy="315.5" r="5.1" fill="#fff"></circle><circle cx="225.7" cy="204.7" r="4.4" fill="#fff"></circle><circle cx="209.4" cy="211.1" r="4.1" fill="#fff"></circle><circle cx="308.7" cy="309.0" r="4.1" fill="#fff"></circle>
</svg>