<svg width="500" height="500" viewBox="0 0 500 500" fill="none" xmlns="http://www.w3.org/2000/svg">
<path d="M250 0C388.183 0 500 112.053 500 250C500 388.183 387.947 500 250 500C111.817 500 0 387.947 0 250C0 112.053 111.817 0 250 0Z" fill="#302E2D"/>
<path d="M284.134 192.324L250 157.955L215.866 192.324L250 226.693L284.134 192.324ZM373.823 190.912L280.603 282.249C263.653 298.963 236.111 298.963 219.162 282.249L125.942 190.912L92.9849 224.81L186.205 316.147C203.861 333.332 226.93 342.042 250 342.042C273.07 342.042 296.139 333.332 313.795 316.147L407.015 224.81L373.823 190.912Z" fill="url(#paint0_linear_1206_19)"/>
<defs>
<linearGradient id="paint0_linear_1206_19" x1="362.88" y1="163.691" x2="88.2954" y2="338.373" gradientUnits="userSpaceOnUse">
<stop offset="0.3724" stop-color="#FF97D6"/>
<stop offset="0.8021" stop-color="#F8B994"/>
</linearGradient>
</defs>
</svg>
