<svg width="500" height="500" viewBox="0 0 500 500" fill="none" xmlns="http://www.w3.org/2000/svg">
<path d="M250 0C388.183 0 500 112.053 500 250C500 388.183 387.947 500 250 500C111.817 500 0 387.947 0 250C0 112.053 112.053 0 250 0Z" fill="url(#paint0_linear_1206_16)"/>
<path d="M284.369 192.324L250.236 157.955L216.102 192.089L250.236 226.458L284.369 192.324ZM374.059 190.912L280.838 282.249C263.889 298.963 236.347 298.963 219.398 282.249L126.177 190.912L93.2207 224.81L186.441 316.147C204.096 333.332 227.166 342.042 250.236 342.042C273.305 342.042 296.375 333.332 314.03 316.147L407.251 224.81L374.059 190.912Z" fill="#373535"/>
<defs>
<linearGradient id="paint0_linear_1206_16" x1="484.87" y1="162.4" x2="-54.6579" y2="363.66" gradientUnits="userSpaceOnUse">
<stop offset="0.3724" stop-color="#FF97D6"/>
<stop offset="0.8021" stop-color="#F8B994"/>
</linearGradient>
</defs>
</svg>
