<?xml version="1.0" encoding="UTF-8"?>
<svg xmlns="http://www.w3.org/2000/svg" version="1.1" xmlns:xlink="http://www.w3.org/1999/xlink" viewBox="0 0 200 200">
  <!-- Generator: Adobe Illustrator 30.1.0, SVG Export Plug-In . SVG Version: 2.1.1 Build 136)  -->
  <defs>
    <style>
      .st0 {
        fill: #fff;
      }

      .st1 {
        fill: none;
      }

      .st2 {
        fill: url(#linear-gradient);
      }
    </style>
    <linearGradient id="linear-gradient" x1="35.2" y1="21.5" x2="152.2" y2="163.2" gradientUnits="userSpaceOnUse">
      <stop offset="0" stop-color="#fee773"/>
      <stop offset=".3" stop-color="#eaac4b"/>
      <stop offset=".6" stop-color="#d67022"/>
      <stop offset=".9" stop-color="#ca4b09"/>
      <stop offset="1" stop-color="#c63d00"/>
    </linearGradient>
  </defs>
  <g id="New_260109_bg_1">
    <circle class="st2" cx="100" cy="100" r="100"/>
  </g>
  <g id="logo">
    <g>
      <path class="st1" d="M68.3,134.2c.4-.6.6-1.3.6-2,0-1.4-.9-2.7-2.1-3.3-.5-.2-1-.3-1.5-.3s-.1,0-.2,0c-.4,0-.8.1-1.1.2-.5.2-.9.5-1.2.8h0c0,0-.1.1-.2.2h0c-.4.5-.7,1.2-.8,1.9h0c0,.1,0,.3,0,.4,0,1.4.8,2.6,1.9,3.2h0c.5.3,1.1.4,1.7.4s.7,0,1-.2h0c.1,0,.3,0,.4-.1,0,0,0,0,0,0,.6-.3,1.1-.7,1.5-1.3Z"/>
      <path class="st1" d="M83,107.4c.2,0,.3,0,.5,0,0,0,.2,0,.3,0,.1,0,.2,0,.4,0,2.1-.5,3.6-2.4,3.6-4.6s-.1-1.3-.4-1.8c-.2-.5-.6-1-1-1.4,0,0,0,0,0,0-.1-.1-.2-.2-.3-.3-.4-.3-.8-.6-1.2-.7-.6-.2-1.2-.4-1.8-.4s-1.1.1-1.6.3c-1.8.7-3.1,2.4-3.1,4.4s.2,1.5.5,2.2c.3.6.8,1.2,1.4,1.6.2.2.5.3.7.4.6.3,1.3.5,2.1.5Z"/>
      <g>
        <path class="st0" d="M68.6,66.4c-3.1-3-7.4-6.6-13.3-9.2-7.1-3.1-13.4-3.7-17.3-3.8-.5,6.7-1,14.1-.8,21.9.2,7.4,1.2,14.4,2,20.7,0,0,0,.2,0,.2,0,0,0,0,0,0,0,.1,0,.2,0,.3,0,0,0,0,0,0,1.1,8.4,3.6,22.2,11.5,37.6,1.5,2.9,5.1,8.6,10.7,14.2,4.8,4.8,10.1,8.5,15.4,11.2,0,0,0,0,0,0,1.7.9,3.5,1.7,5.2,2.4,0,0,0,0,0,0,10.5,4.4,20.5,5.5,26.2,5.9-5.3-2.2-9.5-5.1-13-8.3h0c0,0-.1-.1-.2-.2,0,0-.2-.2-.2-.2h0s0,0,0,0c-10.8-10.4-13.5-23.9-14.2-27.7-1.9-9.2-.6-18,.3-24.5.6.3,1.3.5,2.1.5s.3,0,.5,0c0,.5,0,1.1-.1,1.6,0,.8-.1,1.6-.2,2.4-.3,5-.2,9.4,0,12.7,0,1,.2,2.1.3,3.1.2,1.5.4,3,.7,4.5.2.8.3,1.5.5,2.3,2.7,11.1,8.1,20.9,12.8,25.5-2.1-3-6.9-10-6.1-18.9,1-11.7,6.8-18.2,13.3-22.4,15.5-10,27.7-9.1,40.9-19.5,13.4-10.6,15.1-26.4,15.8-34.3.5-5.7.3-12,0-17.5,0,0,0,0,0,0,0-.4,0-.8,0-1.3-.3-4.5-.8-8.3-1.2-10.8v-.8c-.1,0-.1-.1-.1-.1h0c-.9,1.9-4.1,5.5-7.9,7.9-9.4,6-17.5,8.8-26.5,12.2-.2,0-.4.1-.5.2,0,0,0,0,0,0-1.8.7-4,1.5-5.9,2.3-4.1,1.7-16.9,6.3-25.8,19.9-4.3,6.6-6.9,14.2-8.4,21.6-.6-.2-1.2-.4-1.9-.4s-1.1.1-1.7.3c-.3-4.3-1.3-9.7-2.5-13.9-1.2-4.1-3.1-8.3-4.9-11.2-.5-.8-1-1.5-1.4-2-.9-1.2-2.3-2.7-4-4.4M83,98c.6,0,1.3.1,1.8.4.4.2.9.4,1.2.7.1,0,.2.2.3.3,0,0,0,0,0,0,.4.4.7.9,1,1.4.2.6.4,1.2.4,1.8,0,2.2-1.5,4.1-3.6,4.6-.1,0-.2,0-.4,0,0,0-.2,0-.3,0-.2,0-.3,0-.5,0-.7,0-1.4-.2-2.1-.5-.3-.1-.5-.3-.7-.4-.6-.4-1-1-1.4-1.6-.3-.7-.5-1.4-.5-2.2,0-2,1.3-3.7,3.1-4.4.5-.2,1.1-.3,1.6-.3ZM146.5,65.4c0,4-3.2,7.2-7.2,7.2s-7.2-3.2-7.2-7.2,3.2-7.2,7.2-7.2,7.2,3.2,7.2,7.2ZM61.7,132.2c0-.1,0-.3,0-.4h0c0-.7.4-1.4.8-1.9h0c0,0,.1-.2.2-.2h0c.3-.4.8-.6,1.2-.8.3-.1.7-.2,1.1-.2,0,0,.1,0,.2,0,.5,0,1.1.1,1.5.3,1.2.6,2.1,1.8,2.1,3.3s-.2,1.5-.6,2c-.4.5-.9,1-1.5,1.3,0,0,0,0,0,0-.1,0-.3.1-.4.1h0c-.3,0-.7.2-1,.2-.6,0-1.2-.2-1.7-.4h0c-1.1-.6-1.9-1.8-1.9-3.2Z"/>
        <path class="st0" d="M162.8,104.1c0-.3,0-.5,0-.8,0-1.1-.2-2.2-.3-3.3-.7,3.2-1.7,6-3.2,8.7-1.8,3.2-4.3,6.1-7.5,8.6-5.1,4.1-10.3,6.1-19.1,9.4-1.2.4-2.4.9-3.7,1.4-9.5,3.6-15.9,8.3-19.5,14.3-6,10-2.7,18.9-.3,23.1.7,1.3,1.4,2.2,1.6,2.5h1.2s0,0,0,0c0,0,0,0,0,0h8.7c.8-2,1.7-3,3-4.2,1.6-1.5,5-3.1,9.6-5.3.6-.3,1.3-.6,1.9-.9,6.1-2.9,12.9-9.6,16.1-14.3,4.7-6.9,6.8-12.2,8.1-16,.5-1.4,1.3-4.2,2-7.5,0-.2,0-.3.1-.5.4-2.1.8-4.4,1.1-6.7.3-2.8.3-5.7.2-8.6Z"/>
      </g>
    </g>
  </g>
</svg>