<?xml version="1.0" standalone="no"?>
<!DOCTYPE svg PUBLIC "-//W3C//DTD SVG 20010904//EN"
 "http://www.w3.org/TR/2001/REC-SVG-20010904/DTD/svg10.dtd">
<svg version="1.0" xmlns="http://www.w3.org/2000/svg"
 width="200.000000pt" height="200.000000pt" viewBox="0 0 200.000000 200.000000"
 preserveAspectRatio="xMidYMid meet">
<metadata>
Created by potrace 1.16, written by Peter Selinger 2001-2019
</metadata>
<g transform="translate(0.000000,200.000000) scale(0.100000,-0.100000)"
fill="#000000" stroke="none">
<path d="M877 1984 c-87 -11 -140 -23 -187 -41 -20 -8 -20 -8 -52 -17 -16 -5
-28 -13 -28 -19 0 -6 -3 -8 -6 -4 -12 11 -214 -106 -214 -124 0 -5 -5 -9 -12
-9 -19 0 -151 -140 -197 -210 -97 -146 -147 -279 -168 -445 -57 -462 216 -894
667 -1058 181 -66 446 -67 637 -2 277 94 510 319 612 590 79 208 86 447 21
649 -34 103 -53 143 -117 243 -64 98 -112 154 -126 146 -6 -3 -7 -1 -4 4 8 13
-17 36 -27 25 -4 -4 -6 -2 -4 4 6 21 -162 154 -196 154 -8 0 -19 7 -26 15 -6
8 -15 14 -18 13 -4 -1 -22 6 -41 16 -22 12 -31 13 -25 4 4 -7 -2 -5 -14 5 -11
11 -26 16 -31 12 -6 -3 -11 -2 -11 3 0 11 -115 39 -190 47 -118 12 -130 12
-130 1 0 -8 -3 -8 -8 0 -5 7 -36 7 -105 -2z m248 -24 c3 -5 1 -10 -4 -10 -6 0
-11 5 -11 10 0 6 2 10 4 10 3 0 8 -4 11 -10z m-240 -128 c-3 -3 -11 0 -18 7
-9 10 -8 11 6 5 10 -3 15 -9 12 -12z m-124 -165 c-10 -9 -11 -8 -5 6 3 10 9
15 12 12 3 -3 0 -11 -7 -18z m336 -20 c4 -3 23 -8 42 -12 26 -6 32 -4 27 6 -4
8 -1 6 7 -3 8 -10 20 -18 28 -18 8 0 48 -18 91 -39 42 -22 80 -36 84 -33 4 4
4 1 0 -5 -4 -7 -4 -13 1 -13 17 0 130 -117 165 -170 126 -192 141 -435 39
-644 -129 -266 -416 -407 -710 -351 -94 18 -220 80 -292 142 -154 133 -239
334 -226 533 3 47 8 92 10 100 2 8 7 29 12 45 4 17 25 64 45 106 36 71 58 104
103 151 10 10 15 24 11 30 -4 7 -3 8 5 4 7 -4 27 6 47 24 74 64 194 123 277
135 23 4 45 10 49 13 8 8 172 7 185 -1z"/>
<path d="M919 1565 c-4 -3 -24 -8 -45 -11 -22 -2 -41 -9 -42 -14 -2 -6 -8 -8
-12 -5 -21 13 -146 -62 -210 -125 -76 -74 -110 -123 -139 -197 -30 -76 -33
-97 -37 -208 -3 -117 19 -204 79 -301 104 -171 270 -266 472 -270 175 -4 293
43 416 165 122 122 175 257 166 420 -5 100 -11 127 -39 195 -41 98 -106 179
-204 256 -33 27 -133 72 -144 65 -5 -3 -10 -2 -10 3 0 20 -233 45 -251 27z
m-149 -116 c0 -5 4 -8 8 -5 5 3 9 -1 9 -8 0 -14 80 -137 97 -148 6 -4 7 -8 3
-8 -4 0 -3 -6 3 -12 6 -7 37 -53 69 -103 32 -49 109 -166 170 -260 l111 -170
0 359 c-1 197 1 360 3 362 2 3 27 -13 55 -33 l51 -38 3 -90 c2 -49 1 -223 -2
-385 l-5 -294 -50 -38 c-27 -21 -52 -38 -55 -37 -4 0 -135 196 -425 638 l-55
85 -1 -350 c-1 -192 -1 -352 0 -356 2 -16 -19 -7 -61 25 l-43 33 -3 386 -2
385 52 37 c55 38 68 43 68 25z"/>
</g>
</svg>
