<?xml version="1.0" encoding="utf-8"?>
<!-- Generator: Adobe Illustrator 27.4.0, SVG Export Plug-In . SVG Version: 6.00 Build 0)  -->
<svg version="1.1" id="Layer_1" xmlns="http://www.w3.org/2000/svg" xmlns:xlink="http://www.w3.org/1999/xlink" x="0px" y="0px"
	 viewBox="0 0 500 500" style="enable-background:new 0 0 500 500;" xml:space="preserve">
<style type="text/css">
	.st0{fill:#7B2BF9;}
	.st1{fill:#FFFFFF;}
</style>
<g>
	<circle class="st0" cx="250" cy="250" r="250"/>
	<path class="st1" d="M429.7,211.8c-7.2-34.5-24.3-66.1-49.8-91.6C345.2,85.5,299.1,66.4,250,66.4s-95.2,19-129.9,53.7
		c-8.5,8.5-15.9,17.6-22.4,27.2c-1.9,2.6-3.7,5.3-5.2,8.2c-17,28.3-26.1,60.6-26.1,94.5c0,49.1,19.1,95.2,53.8,129.9
		s80.8,53.8,129.9,53.8s95.2-19.1,129.9-53.8c16.3-16.3,29.3-35.3,38.4-55.8c1.1-2.2,2-4.6,2.9-7c8.3-21,12.6-43.7,12.6-67
		c0-12.3-1.2-24-3.6-35.8C430.2,213.7,429.8,212.2,429.7,211.8z M366,127.9c1,1,2.1,2,3.2,3.1c16.2,16.2,28.8,35.2,37.1,55.8
		c0.8,2-0.9,4.3-3.2,3.9c-4.8-0.9-10.3-1.2-16.3-1.1c-4.2,0.1-7.9-2.9-8.6-6.9c-3.3-18.4-8.1-35.3-14.1-50.1c-0.3-0.8-0.7-1.6-1-2.6
		C362.3,128.1,364.6,126.4,366,127.9z M383.5,235.6c0-1.9,2.4-2.8,3.6-1.2c1.3,1.9,2.7,3.9,4,5.8c1.7,2.6,3.3,5.2,4.7,7.8
		c0.9,1.6,0.7,3.6-0.5,5c-1.9,2.1-4.1,4.4-6.4,6.7c-0.8,0.8-1.7,1.7-2.6,2.6c-1.1,1-3,0.2-2.9-1.2c0.1-2.8,0.2-5.5,0.2-8.4
		C383.7,246.8,383.7,241.2,383.5,235.6z M152.2,112.8c28.4-20.3,62.2-31.2,97.8-31.2c9.4,0,18.7,0.8,27.8,2.2c2.4,0.4,3.3,3.5,1.3,5
		c-8.8,6.9-16.9,17.1-24.2,30.3c-1.7,3.3-5.5,4.8-9.1,3.8c-24-6.7-47.6-9.9-69.4-9.2c-8.1,0.3-15.6,1.1-22.8,2.4
		C151.6,116.6,150.6,114,152.2,112.8z M128.2,364.5c-3.6-6.6,1-22.1,24.3-45.7l0,0c2.4-2.4,2.2-6.4-0.5-8.6
		c-0.9-0.7-1.8-1.4-2.8-2.2c-2.3-1.8-5.7-1.7-7.8,0.4c-0.5,0.5-0.8,0.8-0.9,0.9c-11.6,11.9-19.8,23-24.3,33
		c-1.3,2.9-5.2,3.2-6.9,0.5c-18.1-27.2-27.8-59.2-27.8-92.7c0-11.9,1.2-23.8,3.7-35.2c0.4-1.7,2.8-1.8,3.4-0.1
		c3.5,11.5,9.2,23.5,17,35.5c10.6,16.2,24.5,31.8,41.1,46.2l0,0c5.6,4.9,11.6,9.6,17.9,14.2c12.7,9.3,26.3,17.8,40.9,25.3
		c6.4,3.4,12.8,6.5,19.2,9.5c3.6,1.6,7.7,1.7,11.3,0.3c3.1-1.2,6.1-2.4,9.2-3.7c3.4-1.4,5.2-5,4.3-8.6c-0.1-0.4-0.2-0.8-0.2-1
		c-5.1-21.3-7.9-45.4-8.3-70.5l0,0c0-0.3,0-6,0-11.9s0.2-8.6,0.4-12.9l0,0c1.5-30.4,6.7-58.9,14.9-83c0.7-2.2-0.4-4.6-2.7-5.4
		c-2.1-0.7-4.3-1.4-6.5-2.1c-2.1-0.7-4.5,0.5-5.3,2.7c-8.9,26.1-14.4,57-15.8,89.7c-0.2,4.2-2.4,8-6,10.1
		c-19.4,11.5-37.1,23.7-52.6,35.9c-3.2,2.6-7.8,2.4-10.9-0.2c-15.4-13.4-28.4-27.9-38.2-43c-19.3-29.6-23.9-57.4-12.9-78.5l0.1-0.1
		c1.4-2.3,2.9-4.6,4.4-6.8c12.6-16.6,36-26.3,67.1-27.4c1.9-0.1,4-0.1,5.9-0.1c19.1,0,39.5,3.2,60.3,9.2l0,0c0.4,0.1,3.4,1,4,1.2
		c5.3,1.7,14.3,4.8,15.5,5.2c0.5,0.2,3.3,1.3,3.7,1.4l0,0c10.2,4,20.3,8.5,30.3,13.7c19.4,10.1,37.1,21.9,52.7,34.9
		c-29.5,6.7-63.8,19.8-98.3,37.3c-1.6,0.8-2.7,2.4-2.8,4.2c-0.1,2.1-0.3,6.4-0.4,9.9c-0.1,2.1,2.2,3.6,4.1,2.6l0,0
		c34.2-18,68.3-31.3,97.6-38.5c5.5-1.3,9-6.5,8.3-12.1c-0.5-3.9-1.1-7.8-1.8-11.5c-0.8-4.7-3.5-9-7.2-11.8
		c-13.7-10.4-28.8-20-45-28.5c-10.9-5.7-21.9-10.6-33.1-14.9c-2.3-0.9-3.4-3.7-2.1-5.9c11.4-20.4,25-31.8,38.3-31.8
		c0.1,0,0.3,0,0.4,0c15.6,0.3,31.1,16.5,42.7,44.6c5.8,14.2,10.3,30.6,13.5,48.4l0,0c0.9,5,1.6,10.1,2.2,15.3
		c0.3,2.7,0.8,6.8,1.1,8.6c1.3,13.5,1.8,27.6,1.6,41.9c-0.2,9.1-0.6,18.1-1.4,26.8c-20.9,16.8-46.7,33.7-75.1,48.7
		c-7.7,4-15.4,7.9-23,11.5c-1.6,0.8-8.2,3.7-8.6,3.9c-7.2,3.3-14.3,6.2-21.4,9l0,0c-0.4,0.2-8.4,3.2-8.9,3.4
		c-0.6,0.2-4.7,1.7-5.2,1.9c-15.3,5.4-30,9.5-43.4,12.1C147.6,376.2,131.7,371.2,128.2,364.5z M174.3,299.1
		c14.8-12,32.2-24.2,51.3-35.6c0.4,24.4,3.1,47.9,7.9,69c-7-3.1-14.1-6.3-21.1-10C198.8,315.5,186,307.6,174.3,299.1z M271.7,417.1
		c-7.1,0.9-14.4,1.4-21.7,1.4c-32.8,0-64.1-9.3-90.9-26.6c-1.8-1.2-1-4.1,1.1-4.2c0.4,0,0.9,0,1.2-0.1c6.8-0.4,14.3-1.4,22.4-3
		c17.2-3.4,36.4-9,56.5-16.7c1.8-0.7,3.8,0.2,4.6,2l0,0c7.8,19,17.3,33.3,28.2,42.4C275,413.9,274.1,416.8,271.7,417.1z M343,372.1
		c-12,23.7-26.8,36.9-41.2,36.6c-15.6-0.3-31.1-16.5-42.7-44.6l0,0c-0.7-1.7,0.1-3.8,1.8-4.6c0.1-0.1,0.2-0.1,0.4-0.2
		c0.7-0.3,1.6-0.4,2.4-0.2c21.5,6,42.8,9.2,62.7,9.2c2.1,0,4.3,0,6.4-0.1c2.4-0.1,4.9-0.2,7.3-0.4C342.4,367.8,344,370.1,343,372.1z
		 M348.2,351.7c-5,0.7-10.3,1.2-15.8,1.4c-13.5,0.5-27.8-0.7-42.4-3.4c-1.8-0.3-2.1-2.8-0.5-3.6c3.2-1.6,6.4-3.3,9.6-5
		c22.4-11.9,43.4-24.9,61.7-38.2c1.3-1,3.3,0.2,3,1.8c-2.6,15.3-6,29.7-10.5,42.7C352.4,349.8,350.5,351.4,348.2,351.7z
		 M373.1,365.1c-1.2,1.3-2.6,2.7-3.9,4c-2.2,2.2-4.7,4.5-7,6.6c-1.5,1.3-3.8-0.3-3-2.1c0.2-0.5,0.5-1,0.7-1.6c1-2.2,1.9-4.5,3-6.8
		c0.2-0.5,0.7-0.9,1.2-1.1c2.3-0.6,4.7-1.3,6.9-2C373,361.5,374.4,363.8,373.1,365.1z M406.9,311.7c-0.7,1.7-1.3,3.4-2.1,5.1
		c-0.2,0.3-1.2,2.4-1.3,2.7c-5.6,10.3-14.8,18.4-26.8,24.1c-2.8,1.3-5.8-1.2-5-4.2c4.2-14.8,7.2-30.8,9.3-47.7
		c0.4-3.2,1.9-6,4.3-8.1c5.1-4.4,9.9-8.9,14.3-13.3l0,0c2.1-2.1,5.8-1.2,6.7,1.7C410.6,286.5,410.9,300,406.9,311.7z M410.3,232.8
		c-1.2,2.2-4.5,2.3-5.9,0.2c-0.2-0.3-0.4-0.7-0.6-1c-5-7.8-10.8-15.3-17.2-22.7c-1.6-1.8-0.3-4.6,2.1-4.7h0.1
		c15.1,0,23,3.8,25.4,8.3C416.1,216.7,415.5,223.4,410.3,232.8z M418.5,255c0,1.1-1.6,1.4-2,0.4c-0.2-0.4-0.4-0.9-0.6-1.3
		c-0.4-0.8-0.3-1.8,0.3-2.6c0.1-0.1,0.3-0.4,0.6-0.8c0.7-0.9,1.8-0.8,1.8,0.2C418.5,252.3,418.5,253.6,418.5,255z"/>
</g>
</svg>
