<?xml version="1.0" encoding="utf-8"?>
<svg xmlns="http://www.w3.org/2000/svg" viewBox="0 0 500 500" width="500" height="500" fill="none">
	<path d="M497 265a247 212 0 0 1-247 213A247 212 0 0 1 3 265 247 212 0 0 1 250 53a247 212 0 0 1 247 212Z" style="stroke: rgb(96, 54, 54); fill: rgb(194, 136, 136);" />
	<path d="M498 250a248 212 0 0 1-248 212A248 212 0 0 1 2 250 248 212 0 0 1 250 38a248 212 0 0 1 248 212Z" style="stroke: rgb(104, 56, 56); fill: rgb(255, 186, 186);" />
	<path d="M468 250a218 186 0 0 1-218 186A218 186 0 0 1 32 250 218 186 0 0 1 250 64a218 186 0 0 1 218 186Z" style="stroke: rgb(104, 56, 56); fill: rgb(255, 192, 192);" />
	<path d="M455 250a204 175 0 0 1-204 175A204 175 0 0 1 47 250 204 175 0 0 1 251 75a204 175 0 0 1 204 175Z" style="stroke: rgb(104, 56, 56); fill: rgb(255, 203, 203);" />
	<path d="M81 341c-56-71-28-181 51-230 71-44 176-42 238 1-94 27-229 79-289 229Z" style="fill: rgba(255, 255, 255, 0.243);" />
	<path d="M227 243a59 63 0 0 1-59 63 59 63 0 0 1-60-63 59 63 0 0 1 60-63 59 63 0 0 1 59 63Z" style="fill: rgb(74, 41, 41);" />
	<path d="M229 264a59 63 0 0 1-59 63 59 63 0 0 1-60-63 59 63 0 0 1 60-64 59 63 0 0 1 59 64Z" style="fill: rgb(255, 228, 228);" />
	<path d="M228 254a59 63 0 0 1-60 63 59 63 0 0 1-59-63 59 63 0 0 1 59-63 59 63 0 0 1 60 63Z" style="fill: rgb(104, 56, 56);" />
	<path d="M386 243a58 63 0 0 1-58 63 58 63 0 0 1-58-63 58 63 0 0 1 58-63 58 63 0 0 1 58 63Z" style="fill: rgb(74, 41, 41);" />
	<path d="M388 264a58 63 0 0 1-58 63 58 63 0 0 1-58-63 58 63 0 0 1 58-64 58 63 0 0 1 58 64Z" style="fill: rgb(255, 228, 228);" />
	<path d="M387 254a58 63 0 0 1-58 63 58 63 0 0 1-58-63 58 63 0 0 1 58-63 58 63 0 0 1 58 63Z" style="fill: rgb(104, 56, 56);" />
	<path d="M128 291c-32-46-6-86 20-96 21-11 68 15 61 22-34-34-107 48-81 74Z" style="fill: rgba(255, 255, 255, 0.02);" />
	<path d="M291 291c-32-46-6-86 19-96 22-11 68 15 61 22-34-33-106 48-80 74Z" style="fill: rgba(255, 255, 255, 0.027);" />
	<path d="M497 257c-1 9-26 78-77 126-66 61-158 77-161 78 90 2 148-44 181-75 29-32 53-64 57-129Z" style="fill: rgba(0, 0, 0, 0.086);" />
	<path d="M2 248c1-9 36-104 94-147 73-54 174-60 177-62-93-9-159 29-195 58C30 136 2 199 2 248Z" style="fill: rgba(255, 255, 255, 0.41);" />
</svg>