<svg xmlns="http://www.w3.org/2000/svg" width="396" height="397" fill="none" viewBox="0 0 396 397">
  <path fill="#D8D14B" d="M396 165v90.7h-8.2v24.8h-8.3V297h-8.3v16.5h-8.3v8.3h-8.3v8.3h-8.3v8.3H338v8.3h-8.3v8.3h-8.2v8.2h-8.3v8.3h-16.5v8.3h-16.5v8.3h-16.5v-8.2h8.3v-8.2h8.3v-8.3h16.5v-8.2h8.3v-8.3h16.5v-8.2h8.2v-8.3h8.2v-8.2h8.2v-16.5h8.2v-8.2h8.2V281h8.3v-16.5h8.2v-33h8.2v-56.6c0-3.1.04-6.8.04-9.9H396ZM99.2 16.5h16.5v16.6H99.1v8.3h-8.3v8.3H74.3V58H66v8.3h-8.2v8.2h-8.3V91h-8.3v8.3h-8.3v16.5h-8.3v16.5h-8.2v33H8.2v49.5c-2.7-.3-5.4-.3-8.2-.3v-74.2h8.2v-24.7h8.2V99.1h8.3V82.6h8.2v-8.3h8.3v-8.2h8.3v-8.3h8.3v-8.2h8.3v-8.3h8.3v-8.2h8.3v-8.3h16.5v-8.3Zm16.5-8.2v8.2h8.3V8.3h-8.3ZM99 362.9h16.5v16.6H99.1v-8.2H82.6V363h-8.3v-16.6h16.5v8.3H99v8.2ZM297 24.7v-8.2h-16.5V8.3h-8.2c0 5.5 0 10.9-.1 16.4h8.2V33h16.5v8.3h16.6V24.7H297Zm-58.2 49.5c0 2.5 0 5.08.25 7.8h-8.15v8.2h-8.2v16.5h-8.3v16.6h-8.3v8.2h-8.2V148h-8.2v16.5h-8.3v8.3h-8.3v16.5h-8.2v16.5h-8.2v8.2h-8.3v16.6h-8.3v16.5h-8.2v16.5h-8.2v8.3h-8.3v16.5h-8.3v9.2h17.5v-8.3h24.7v-8.2h16.5v-8.3h8.2v-8.2h8.2V248h8.3v-8.2h8.2v-16.5h8.2v-16.5h8.2v-8.3h8.3V182h8.2v-16.5h8.2v-8.2h8.3V73.7h-9.3v.5Z"/>
  <path fill="#D8D14B" d="M272.3 8.3v16.4H264v-8.3h-33V0h24.7v8.3h16.6ZM66 330h-8.2v-8.2h-8.3v-8.3h-8.2v16.6h8.3v8.2h8.2v8.3h8.3v8.2h8.2v-16.6H66V330ZM239.38 40.6h-9.28v8.2h-8.2v8.3h-8.2v8.2h-8.2v8.3h-8.2v16.5h-8.2v8.3h-8.3v16.5h-8.2v16.4h-24.7v16.5h-8.2v8.3h-8.3v16.5h-8.2v16.6h-8.3v9.3h8.2V214h-8.2v16.5h-8.2V247h-8.3v16.5h-8.2v8.3h-8.3v16.5h-8.1v9.2h34v-8.2h8.3v-16.5h8.3v-8.3h8.2V248h8.2v-16.5h8.3v-16.6h8.3v-8.2h8.2v-16.5h8.2v-16.5h8.3v-8.3h8.3v-16.5h8.2v-16.5h8.2v-8.2h8.3v-16.6h8.3V91.1h8.2v-8.2h8.2v-8.7c0-10.77 0-21.91-.4-33.12l-.02-.48ZM346.5 57.7v16.6h-8.3V66H330v-8.2h-8.2v-8.3h-16.5c-.1-2.8-.1-5.5-.1-8.2h8.3V33h8.2v8.2h8.3v8.3h8.2v8.2h8.3ZM131.8 379.91v-8.3h-16.5v8.3c0 2.7 0 5.5-.1 8.2H140v8.2h16.5v-16.4h-24.7ZM273.77 147.8h-16.5v-8.2h-9.2v16.6h-8.3v8.2h-8.2v16.5h-8.2v16.5h-8.3v8.3h-8.2v16.5h-8.2v16.5h-8.2v8.2h-8.3v16.6h-8.2v9.2h.5c5.19 0 10.55 0 15.7.09v8.31h8.3v8.2h8.2v8.2h9.2V281h8.2v-16.5h8.3v-8.3h8.3v-16.5h8.2v-16.5h8.3v-8.3h8.3v-16.5h8.2v-16.5h8.3v-8.3h8.3v-17.5h-16.5v-8.3Z"/>
  <path fill="#D8D14B" d="M379.5 99.1v8.2h-8.2v8.3H363V99.1h-8.2v-8.2h-8.3V66.1h8.2v8.2h8.2v8.3h8.3v16.5h8.3ZM164.8 388.21v-8.2h-8.3v16.4H206v-8.2h-41.2ZM314.1 164.3h-16.5v-8.2h-9.2v16.5h-8.3v8.3h-8.3v16.5h-8.2v16.5h-8.3v8.3H247v16.5h-8.2v16.5h-8.3v8.3h-8.3V280H214v17c0 2.72 0 5.53.3 8.16l.05.44h8.25v8.2h8.2v8.2h8.3v8.3h9.2v-8.2h8.2v-16.5h8.2v-66h16.5v-8.3h8.2v-8.2h16.5v-8.3h8.2v-8.2h8.3v-16.5h8.2v-8.3h8.3v-9.3h-24.8v-8.2ZM41.2 305.2h8.2v8.2h-8.2v8.3H33v-8.2h-8.3V297h-8.3c.1-5.5.1-11 .1-16.5v-8.3h8.2v8.3H33V297h8.2v8.2ZM181.6 0v8.2H231V0h-49.4Zm-74.7 130.56h-8.2v16.5h-8.3v17.6h8.3v16.5h8.2v8.2h17.5v-16.6h8.2v-16.5h8.3v-8.3h8.2v-16.5h8.2v-.5c0-2.82 0-5.49.1-8.08l.02-.52H106.9v8.2Z"/>
  <path fill="#D8D14B" d="M181.8 0v8.2h-16.6v8.3h-33v8.2c-5.6.1-11 .1-16.5.1v-8.3h8.3V8.3h16.5V.1c.3 0 .6-.1.8-.1h40.5ZM16.5 231H8.2v-16.5H0V255c0 .2.1.5.1.8h8.2v24.7h8.2v-8.3h8.2V264h-8.2v-33Zm39.99-108.23h8.2v16.5h8.2v8.3h8.3v8.2h9.2v-8.3h8.3v-16.5h8.2v-8.7c0-2.65 0-5.39.1-8.18l.02-.52H56.49v9.2ZM396 140.7V165h-16.5v-33h-8.2v-24.8h8.2v8.2h8.3v24.8h8.1c.1.2.1.3.1.5ZM230.8 379.91v8.3H206v8.2h48.6c.3 0 .5-.1.9-.1v-8.2h8.2v-8.2h-32.9Zm32.9 0h8.3v-8.2h-8.3v8.2ZM255.5 347h9.2v-42.2h-9.2v16.5h-8.2v8.7c0 2.82 0 5.49-.1 8.28l-.02.52h8.32v8.2Zm74-157.7h-8.2v16.5H313v9.2h9.3v-8.2h8.2v-8.3H347v-8.2h8.2V181h-25.7v8.3Z"/>
  <path fill="#53BDB9" d="M396 165v90.7h-8.2v24.8h-8.3V297h-8.3v16.5h-8.3v8.3h-8.3v8.3h-8.3v8.3H338v8.3h-8.3v8.3h-8.2v8.2h-8.3v8.3h-16.5v8.3h-16.5v8.3h-16.5v-8.2h8.3v-8.2h8.3v-8.3h16.5v-8.2h8.3v-8.3h16.5v-8.2h8.2v-8.3h8.2v-8.2h8.2v-16.5h8.2v-8.2h8.2V281h8.3v-16.5h8.2v-33h8.2v-56.6c0-3.1.04-6.8.04-9.9H396Z"/>
  <path fill="#904175" d="M99.2 16.5h16.5v16.6H99.1v8.3h-8.3v8.3H74.3V58H66v8.3h-8.2v8.2h-8.3V91h-8.3v8.3h-8.3v16.5h-8.3v16.5h-8.2v33H8.2v49.5c-2.7-.3-5.4-.3-8.2-.3v-74.2h8.2v-24.7h8.2V99.1h8.3V82.6h8.2v-8.3h8.3v-8.2h8.3v-8.3h8.3v-8.2h8.3v-8.3h8.3v-8.2h8.3v-8.3h16.5v-8.3Zm16.5-8.2v8.2h8.3V8.3h-8.3Z"/>
  <path fill="#D8D14B" d="M99 362.9h16.5v16.6H99.1v-8.2H82.6V363h-8.3v-16.6h16.5v8.3H99v8.2ZM297 24.7v-8.2h-16.5V8.3h-8.2c0 5.5 0 10.9-.1 16.4h8.2V33h16.5v8.3h16.6V24.7H297Zm-58.2 49.5c0 2.5 0 5.08.25 7.8h-8.15v8.2h-8.2v16.5h-8.3v16.6h-8.3v8.2h-8.2V148h-8.2v16.5h-8.3v8.3h-8.3v16.5h-8.2v16.5h-8.2v8.2h-8.3v16.6h-8.3v16.5h-8.2v16.5h-8.2v8.3h-8.3v16.5h-8.3v9.2h17.5v-8.3h24.7v-8.2h16.5v-8.3h8.2v-8.2h8.2V248h8.3v-8.2h8.2v-16.5h8.2v-16.5h8.2v-8.3h8.3V182h8.2v-16.5h8.2v-8.2h8.3V73.7h-9.3v.5Z"/>
  <path fill="#E2B94E" d="M272.3 8.3v16.4H264v-8.3h-33V0h24.7v8.3h16.6ZM66 330h-8.2v-8.2h-8.3v-8.3h-8.2v16.6h8.3v8.2h8.2v8.3h8.3v8.2h8.2v-16.6H66V330ZM239.38 40.6h-9.28v8.2h-8.2v8.3h-8.2v8.2h-8.2v8.3h-8.2v16.5h-8.2v8.3h-8.3v16.5h-8.2v16.4h-24.7v16.5h-8.2v8.3h-8.3v16.5h-8.2v16.6h-8.3v9.3h8.2V214h-8.2v16.5h-8.2V247h-8.3v16.5h-8.2v8.3h-8.3v16.5h-8.1v9.2h34v-8.2h8.3v-16.5h8.3v-8.3h8.2V248h8.2v-16.5h8.3v-16.6h8.3v-8.2h8.2v-16.5h8.2v-16.5h8.3v-8.3h8.3v-16.5h8.2v-16.5h8.2v-8.2h8.3v-16.6h8.3V91.1h8.2v-8.2h8.2v-8.7c0-10.77 0-21.91-.4-33.12l-.02-.48Z"/>
  <path fill="#BED977" d="M346.5 57.7v16.6h-8.3V66H330v-8.2h-8.2v-8.3h-16.5c-.1-2.8-.1-5.5-.1-8.2h8.3V33h8.2v8.2h8.3v8.3h8.2v8.2h8.3ZM131.8 379.91v-8.3h-16.5v8.3c0 2.7 0 5.5-.1 8.2H140v8.2h16.5v-16.4h-24.7ZM273.77 147.8h-16.5v-8.2h-9.2v16.6h-8.3v8.2h-8.2v16.5h-8.2v16.5h-8.3v8.3h-8.2v16.5h-8.2v16.5h-8.2v8.2h-8.3v16.6h-8.2v9.2h.5c5.19 0 10.55 0 15.7.09v8.31h8.3v8.2h8.2v8.2h9.2V281h8.2v-16.5h8.3v-8.3h8.3v-16.5h8.2v-16.5h8.3v-8.3h8.3v-16.5h8.2v-16.5h8.3v-8.3h8.3v-17.5h-16.5v-8.3Z"/>
  <path fill="#A7D6A8" d="M379.5 99.1v8.2h-8.2v8.3H363V99.1h-8.2v-8.2h-8.3V66.1h8.2v8.2h8.2v8.3h8.3v16.5h8.3ZM164.8 388.21v-8.2h-8.3v16.4H206v-8.2h-41.2ZM314.1 164.3h-16.5v-8.2h-9.2v16.5h-8.3v8.3h-8.3v16.5h-8.2v16.5h-8.3v8.3H247v16.5h-8.2v16.5h-8.3v8.3h-8.3V280H214v17c0 2.72 0 5.53.3 8.16l.05.44h8.25v8.2h8.2v8.2h8.3v8.3h9.2v-8.2h8.2v-16.5h8.2v-66h16.5v-8.3h8.2v-8.2h16.5v-8.3h8.2v-8.2h8.3v-16.5h8.2v-8.3h8.3v-9.3h-24.8v-8.2Z"/>
  <path fill="#DC8D6F" d="M41.2 305.2h8.2v8.2h-8.2v8.3H33v-8.2h-8.3V297h-8.3c.1-5.5.1-11 .1-16.5v-8.3h8.2v8.3H33V297h8.2v8.2ZM181.6 0v8.2H231V0h-49.4Zm-74.7 130.56h-8.2v16.5h-8.3v17.6h8.3v16.5h8.2v8.2h17.5v-16.6h8.2v-16.5h8.3v-8.3h8.2v-16.5h8.2v-.5c0-2.82 0-5.49.1-8.08l.02-.52H106.9v8.2Z"/>
  <path fill="#B76384" d="M181.8 0v8.2h-16.6v8.3h-33v8.2c-5.6.1-11 .1-16.5.1v-8.3h8.3V8.3h16.5V.1c.3 0 .6-.1.8-.1h40.5ZM16.5 231H8.2v-16.5H0V255c0 .2.1.5.1.8h8.2v24.7h8.2v-8.3h8.2V264h-8.2v-33Zm39.99-108.23h8.2v16.5h8.2v8.3h8.3v8.2h9.2v-8.3h8.3v-16.5h8.2v-8.7c0-2.65 0-5.39.1-8.18l.02-.52H56.49v9.2Z"/>
  <path fill="#78CAB3" d="M396 140.7V165h-16.5v-33h-8.2v-24.8h8.2v8.2h8.3v24.8h8.1c.1.2.1.3.1.5ZM230.8 379.91v8.3H206v8.2h48.6c.3 0 .5-.1.9-.1v-8.2h8.2v-8.2h-32.9Zm32.9 0h8.3v-8.2h-8.3v8.2ZM255.5 347h9.2v-42.2h-9.2v16.5h-8.2v8.7c0 2.82 0 5.49-.1 8.28l-.02.52h8.32v8.2Zm74-157.7h-8.2v16.5H313v9.2h9.3v-8.2h8.2v-8.3H347v-8.2h8.2V181h-25.7v8.3Z"/>
</svg>
