<?xml version="1.0" encoding="UTF-8"?>
<svg id="a" width="500" height="500" xmlns="http://www.w3.org/2000/svg" viewBox="0 0 500 500">
  <defs>
    <style>
      .b {
        fill: #db2777;
        stroke-width: 0px;
      }
    </style>
  </defs>
  <path class="b" d="m250,500c-66.79,0-129.55-26.01-176.77-73.23C26.01,379.55,0,316.79,0,250S26.01,120.45,73.23,73.23C120.45,26.01,183.21,0,250,0s129.55,26.01,176.77,73.23c47.22,47.22,73.23,109.98,73.23,176.77s-26.01,129.55-73.23,176.77c-47.22,47.22-109.98,73.23-176.77,73.23h0Zm0-479.68c-126.64,0-229.68,103.03-229.68,229.68s103.03,229.68,229.68,229.68,229.68-103.03,229.68-229.68S376.64,20.32,250,20.32Zm-29.8,156.44l-145.96-36.11,96.97,115.02-79.55,127.78,139.4-56.69,96.97,115.02-10.86-150,139.4-56.69-145.96-36.11-10.86-150-79.55,127.78h0Z"/>
</svg>
