<svg width="4096" height="4107" viewBox="0 0 4096 4107" fill="none" xmlns="http://www.w3.org/2000/svg">
<g clip-path="url(#clip0_2540_156)">
<path d="M2048 4100.96C3179.08 4100.96 4096 3184.04 4096 2052.96C4096 921.878 3179.08 4.95703 2048 4.95703C916.921 4.95703 0 921.878 0 2052.96C0 3184.04 916.921 4100.96 2048 4100.96Z" fill="#111111"/>
<path d="M2050.82 3169.16C1527.26 3173.07 1087.17 2742.17 1089.08 2204.23C1090.99 1679.21 1522.44 1250.23 2051.55 1251.23C2577.2 1252.23 3002.37 1678.58 3007.1 2201.23C3011.93 2741.35 2571.38 3171.07 2050.91 3169.16H2050.82ZM2046.45 1502.54C1658.61 1504 1341.21 1819.39 1340.76 2208.69C1340.3 2598.63 1657.15 2917.66 2046.09 2918.12C2436.57 2918.66 2753.7 2602.18 2755.79 2212.69C2757.97 1813.38 2430.29 1501.9 2046.36 1502.45L2046.45 1502.54Z" fill="white"/>
<path d="M2247.88 2211.87C2246.7 2323.01 2156.77 2411.21 2045.82 2410.03C1933.95 2408.76 1846.57 2318.37 1848.3 2205.59C1849.94 2096.09 1940.14 2009.44 2051.19 2010.44C2160.96 2011.44 2248.98 2101.65 2247.88 2211.87Z" fill="white"/>
<path d="M1081.25 1171.77L3014.84 1171.77V936.656L1081.25 936.656V1171.77Z" fill="#FF6700"/>
</g>
<defs>
<clipPath id="clip0_2540_156">
<rect width="4096" height="4105.1" fill="white" transform="translate(0 0.949219)"/>
</clipPath>
</defs>
</svg>
