<svg width="200" height="200" viewBox="0 0 200 200" fill="none" xmlns="http://www.w3.org/2000/svg">
<path d="M100.881 178.044C144.869 178.044 180.531 142.388 180.531 98.4C180.531 54.4124 144.869 18.75 100.881 18.75C56.8939 18.75 21.2378 54.4124 21.2378 98.4C21.2378 142.388 56.8939 178.044 100.881 178.044Z" fill="#2E3148"/>
<path d="M100.694 143.475C126.106 143.475 146.712 122.869 146.712 97.4562C146.712 72.0437 126.106 51.4375 100.694 51.4375C75.2749 51.4375 54.6748 72.0437 54.6748 97.4562C54.6748 122.869 75.2749 143.475 100.694 143.475Z" fill="#1B1E36"/>
<path d="M200 97.5C200 110.631 197.412 123.631 192.387 135.769C187.362 147.9 179.994 158.925 170.712 168.206C161.425 177.494 150.4 184.862 138.269 189.887C126.137 194.912 113.131 197.5 100 197.5C86.8687 197.5 73.8625 194.912 61.7313 189.887C49.6001 184.862 38.5748 177.494 29.2873 168.206C20.0061 158.925 12.6376 147.9 7.61262 135.769C2.58761 123.631 0 110.631 0 97.5H23.9689C23.9689 107.481 25.9312 117.369 29.7562 126.594C33.5749 135.819 39.1751 144.2 46.2376 151.262C53.3001 158.319 61.6811 163.925 70.9063 167.744C80.1313 171.563 90.0125 173.531 100 173.531C109.988 173.531 119.869 171.563 129.094 167.744C138.319 163.925 146.7 158.319 153.762 151.262C160.825 144.2 166.425 135.819 170.244 126.594C174.069 117.369 176.031 107.481 176.031 97.5H200Z" fill="#C73238"/>
<path d="M178.95 97.5C178.95 107.869 176.906 118.131 172.937 127.712C168.969 137.287 163.156 145.994 155.825 153.325C148.494 160.656 139.794 166.469 130.212 170.438C120.637 174.406 110.369 176.444 99.9998 176.444C89.631 176.444 79.3685 174.406 69.7873 170.438C60.2124 166.469 51.506 160.656 44.1747 153.325C36.8435 145.994 31.0312 137.287 27.0624 127.712C23.0937 118.131 21.0562 107.869 21.0562 97.5H99.9998H178.95Z" fill="#070B09"/>
<path d="M99.2748 28.6934C90.8686 28.6934 84.0498 59.1809 84.0498 96.7934C84.0498 134.406 90.8686 164.893 99.2748 164.893C107.681 164.893 114.5 134.406 114.5 96.7934C114.5 59.1809 107.681 28.6934 99.2748 28.6934ZM100.325 161.05C99.3623 162.331 98.3998 161.368 98.3998 161.368C94.5311 156.887 92.5936 148.55 92.5936 148.55C85.8248 126.762 87.4373 79.9684 87.4373 79.9684C90.6186 42.8247 96.4061 34.0495 98.3748 32.0995C98.5811 31.8995 98.8436 31.7808 99.1248 31.7558C99.4061 31.737 99.6873 31.8121 99.9186 31.9746C102.775 33.9996 105.175 42.4745 105.175 42.4745C112.256 68.7496 111.612 93.4309 111.612 93.4309C112.256 114.9 108.069 138.937 108.069 138.937C104.844 157.2 100.325 161.05 100.325 161.05Z" fill="white"/>
<path d="M158.338 62.9C154.156 55.6063 124.319 64.8687 91.6814 83.5812C59.0376 102.3 36.0126 123.387 40.2001 130.675C44.3814 137.969 74.2189 128.713 106.856 109.994C139.5 91.275 162.525 70.1875 158.338 62.9ZM44.0564 129.675C42.4564 129.475 42.8189 128.156 42.8189 128.156C44.7814 122.569 51.0377 116.744 51.0377 116.744C66.5814 100.025 107.969 78.1375 107.969 78.1375C141.769 62.4126 152.269 63.075 154.931 63.8062C155.206 63.8875 155.444 64.0562 155.6 64.2875C155.763 64.525 155.831 64.8062 155.806 65.0875C155.481 68.5812 149.313 74.8687 149.313 74.8687C130.056 94.1 108.331 105.825 108.331 105.825C90.0252 117.069 67.0939 125.394 67.0939 125.394C49.6437 131.681 44.0564 129.675 44.0564 129.675Z" fill="white"/>
<path d="M158.194 130.919C162.412 123.644 139.45 102.457 106.925 83.6007C74.3998 64.7445 44.5623 55.3695 40.3498 62.657C36.1373 69.9445 59.1 91.1132 91.6436 109.969C124.187 128.832 153.981 138.207 158.194 130.919ZM43.1437 65.4695C42.5249 63.9882 43.8373 63.6382 43.8373 63.6382C49.6623 62.5382 57.8376 65.0382 57.8376 65.0382C80.0873 70.107 119.769 94.9632 119.769 94.9632C150.312 116.338 155 125.751 155.7 128.426C155.775 128.701 155.744 128.988 155.625 129.244C155.5 129.501 155.294 129.707 155.037 129.819C151.85 131.282 143.319 129.107 143.319 129.107C117.025 122.057 95.9936 109.138 95.9936 109.138C77.0998 98.9507 58.4124 83.2695 58.4124 83.2695C44.2187 71.3132 43.1498 65.482 43.1498 65.482L43.1437 65.4695Z" fill="white"/>
<path d="M99.1126 104.63C103.538 104.63 107.125 101.043 107.125 96.618C107.125 92.193 103.538 88.6055 99.1126 88.6055C94.6876 88.6055 91.1001 92.193 91.1001 96.618C91.1001 101.043 94.6876 104.63 99.1126 104.63Z" fill="white"/>
<path d="M131.969 70.6691C134.531 70.6691 136.613 68.5191 136.613 65.8628C136.613 63.2066 134.531 61.0566 131.969 61.0566C129.4 61.0566 127.319 63.2066 127.319 65.8628C127.319 68.5191 129.4 70.6691 131.969 70.6691Z" fill="white"/>
<path d="M55.6873 87.0133C58.2498 87.0133 60.3313 84.857 60.3313 82.207C60.3313 79.5508 58.2498 77.3945 55.6873 77.3945C53.1185 77.3945 51.0376 79.5508 51.0376 82.207C51.0376 84.857 53.1185 87.0133 55.6873 87.0133Z" fill="white"/>
</svg>
