<svg width="114" height="114" viewBox="0 0 114 114" fill="none" xmlns="http://www.w3.org/2000/svg">
<circle cx="57" cy="57" r="45" fill="#FED62E"/>
<path d="M114 57C114 64.4853 112.526 71.8974 109.661 78.813C106.797 85.7285 102.598 92.0121 97.3051 97.3051C92.0121 102.598 85.7285 106.797 78.813 109.661C71.8974 112.526 64.4853 114 57 114C49.5147 114 42.1026 112.526 35.187 109.661C28.2715 106.797 21.9879 102.598 16.6949 97.3051C11.402 92.0121 7.20338 85.7285 4.33886 78.813C1.47435 71.8974 -6.5439e-07 64.4853 0 57H13.6615C13.6615 62.6913 14.7824 68.3269 16.9604 73.5849C19.1384 78.843 22.3307 83.6206 26.355 87.645C30.3794 91.6693 35.157 94.8616 40.4151 97.0396C45.6731 99.2176 51.3087 100.339 57 100.339C62.6913 100.339 68.3269 99.2176 73.5849 97.0396C78.843 94.8616 83.6206 91.6693 87.645 87.645C91.6693 83.6206 94.8616 78.843 97.0396 73.5849C99.2176 68.3269 100.339 62.6913 100.339 57H114Z" fill="#C73238"/>
<path d="M102 57C102 62.9095 100.836 68.7611 98.5746 74.2208C96.3131 79.6804 92.9984 84.6412 88.8198 88.8198C84.6412 92.9984 79.6804 96.3131 74.2208 98.5746C68.7611 100.836 62.9095 102 57 102C51.0905 102 45.2389 100.836 39.7792 98.5746C34.3196 96.3131 29.3588 92.9984 25.1802 88.8198C21.0016 84.6412 17.6869 79.6804 15.4254 74.2208C13.164 68.7611 12 62.9095 12 57L57 57H102Z" fill="#070B09"/>
<path d="M78.9079 59.3717C79.1387 68.8647 72.2261 77.1514 63.9499 79.4486C51.3939 82.9311 36.3729 72.4311 36.4778 59.3717C36.5722 49.092 46.0233 39.2318 57.6876 39.2318C68.9429 39.2423 78.6457 48.4206 78.9079 59.3717Z" fill="#F0A841"/>
<path d="M64.5164 44.7178C64.7786 45.4311 65.5443 45.7038 66.1108 46.1339C70.359 49.4276 73.5373 53.4031 75.6982 58.0709C76.2436 59.2563 76.4954 60.536 77.1667 61.6793C77.1772 61.6688 77.1982 61.6584 77.2087 61.6584C77.2296 61.6479 77.2296 61.6374 77.2296 61.6269C77.2926 61.543 81.887 57.3472 84.4674 51.7248C85.0024 50.5605 86.0828 48.1584 86.4604 44.8646C86.9954 40.2178 85.5793 38.7073 85.7052 35.3192C85.7157 35.1409 85.7366 34.6898 85.4534 34.3017C84.8136 33.3996 83.0828 33.5674 81.6982 33.7982C77.5443 34.501 73.5164 35.1828 69.415 38.6653C68.1038 39.7877 66.1632 41.7283 64.5164 44.7178Z" fill="#373636"/>
<path d="M48.6456 45.3367C48.3834 46.05 47.6177 46.3227 47.0512 46.7528C42.803 50.0465 39.6247 54.022 37.4638 58.6898C36.9184 59.8752 36.6666 61.1549 35.9953 62.2982C35.9848 62.2877 35.9638 62.2773 35.9533 62.2773C35.9323 62.2668 35.9323 62.2563 35.9323 62.2458C35.8694 62.1619 31.275 57.9661 28.6946 52.3437C28.1596 51.1793 27.0792 48.7773 26.7016 45.4835C26.1666 40.8367 27.5827 39.3262 27.4568 35.9381C27.4463 35.7598 27.4253 35.3087 27.7086 34.9206C28.3484 34.0185 30.0792 34.1863 31.4638 34.4171C35.6177 35.1199 39.6456 35.8017 43.747 39.2842C45.0582 40.4171 47.0093 42.3472 48.6456 45.3367Z" fill="#373636"/>
<path d="M47.712 46.6899C47.5022 47.2983 46.9043 47.529 46.4637 47.8962C43.1176 50.6969 40.6106 54.085 38.9113 58.0605C38.4812 59.0675 38.2819 60.1584 37.7574 61.1339C37.7365 61.1234 37.705 61.1025 37.705 61.092C37.4847 59.3927 36.4987 58.1025 35.5022 56.7493C33.4567 53.9696 32.5441 50.7073 31.8833 47.3927C31.3064 44.5185 31.1071 41.6129 31.0337 38.6864C31.0127 37.7528 31.2644 37.564 32.1875 37.7528C38.3868 39.0325 43.5686 42.0011 47.712 46.6899Z" fill="#FED62E"/>
<path d="M66.9602 46.2808C67.1595 46.8892 67.7679 47.1199 68.2085 47.4975C71.5336 50.3192 74.0196 53.7178 75.698 57.7038C76.128 58.7213 76.3168 59.8017 76.8308 60.7773C76.8518 60.7668 76.8833 60.7458 76.8833 60.7353C77.114 59.036 78.1001 57.7563 79.1071 56.4031C81.163 53.6339 82.0966 50.3822 82.7784 47.0675C83.3763 44.2038 83.5966 41.2878 83.6805 38.3717C83.712 37.4381 83.4602 37.2388 82.5266 37.4276C76.3273 38.6759 71.135 41.6129 66.9602 46.2808Z" fill="#FED62E"/>
<path d="M66.2051 47.7913C66.3939 48.3262 66.9603 48.5255 67.3694 48.8507C70.4743 51.3052 72.803 54.2528 74.3869 57.7248C74.7855 58.6059 74.9743 59.5605 75.4568 60.4101C75.4778 60.3996 75.5093 60.3892 75.5093 60.3682C75.7191 58.8892 76.6317 57.7563 77.5547 56.571C79.4533 54.1374 80.303 51.2948 80.9219 48.3996C81.4568 45.8927 81.6456 43.3437 81.7191 40.7948C81.74 39.9766 81.5093 39.8087 80.6491 39.9766C74.8589 41.0989 70.0547 43.7003 66.2051 47.7913Z" fill="white"/>
<path d="M48.7506 48.4625C48.5618 48.9975 47.9954 49.1968 47.5863 49.522C44.4814 51.9765 42.1527 54.9241 40.5688 58.3961C40.1702 59.2772 39.9814 60.2318 39.4989 61.0814C39.4779 61.0709 39.4464 61.0604 39.4464 61.0394C39.2366 59.5604 38.324 58.4276 37.401 57.2422C35.5024 54.8087 34.6527 51.966 34.0338 49.0709C33.4989 46.5639 33.3101 44.015 33.2366 41.466C33.2157 40.6478 33.4464 40.48 34.3066 40.6478C40.0968 41.7597 44.9115 44.3611 48.7506 48.4625Z" fill="white"/>
<path d="M57.1632 81.1164C68.877 81.1164 78.373 72.0995 78.373 60.9765C78.373 49.8536 68.877 40.8367 57.1632 40.8367C45.4493 40.8367 35.9534 49.8536 35.9534 60.9765C35.9534 72.0995 45.4493 81.1164 57.1632 81.1164Z" fill="#373636"/>
<path d="M45.5722 72.2318C49.726 72.2318 53.0932 68.8645 53.0932 64.7108C53.0932 60.5571 49.726 57.1898 45.5722 57.1898C41.4185 57.1898 38.0513 60.5571 38.0513 64.7108C38.0513 68.8645 41.4185 72.2318 45.5722 72.2318Z" fill="#FED62E"/>
<path d="M45.7505 70.1339C49.0411 70.1339 51.7086 67.4663 51.7086 64.1758C51.7086 60.8853 49.0411 58.2178 45.7505 58.2178C42.46 58.2178 39.7925 60.8853 39.7925 64.1758C39.7925 67.4663 42.46 70.1339 45.7505 70.1339Z" fill="#373636"/>
<path d="M72.2261 71.8437C76.3798 71.8437 79.747 68.4765 79.747 64.3227C79.747 60.169 76.3798 56.8018 72.2261 56.8018C68.0723 56.8018 64.7051 60.169 64.7051 64.3227C64.7051 68.4765 68.0723 71.8437 72.2261 71.8437Z" fill="#FED62E"/>
<path d="M72.4043 69.7458C75.6949 69.7458 78.3624 67.0783 78.3624 63.7878C78.3624 60.4972 75.6949 57.8297 72.4043 57.8297C69.1138 57.8297 66.4463 60.4972 66.4463 63.7878C66.4463 67.0783 69.1138 69.7458 72.4043 69.7458Z" fill="#373636"/>
<path d="M73.9883 62.7808C74.9731 62.7808 75.7715 61.9824 75.7715 60.9976C75.7715 60.0127 74.9731 59.2144 73.9883 59.2144C73.0035 59.2144 72.2051 60.0127 72.2051 60.9976C72.2051 61.9824 73.0035 62.7808 73.9883 62.7808Z" fill="#FFFEDF"/>
<path d="M69.7912 68.4963C69.8831 67.9301 69.4986 67.3967 68.9325 67.3048C68.3664 67.213 67.8329 67.5974 67.7411 68.1635C67.6492 68.7297 68.0336 69.2631 68.5998 69.355C69.1659 69.4468 69.6993 69.0624 69.7912 68.4963Z" fill="#FFFEDF"/>
<path d="M56.177 82.4591C56.5651 83.1094 57.8029 85.1758 60.0476 85.1758C61.6525 85.1758 63.1735 84.0954 63.9078 82.4695C64.0651 81.9241 64.5476 80.0989 63.6036 78.6933C61.8728 76.1234 56.5126 76.5849 55.4322 78.7563C54.7504 80.1094 55.8518 81.9241 56.177 82.4591Z" fill="#FA7F5B"/>
<path d="M68.3974 74.959C68.733 77.0359 67.9148 79.1758 66.4988 80.5709C65.3554 81.7038 64.0967 82.0709 63.0058 82.3751C62.0407 82.6478 57.1421 84.0115 53.3554 81.0219C52.789 80.5814 50.4079 78.6933 50.2925 75.8087C50.2295 74.2562 50.8589 73.0499 51.247 72.3052C52.6107 69.7457 54.1526 69.7352 55.4218 68.0884C58.4533 64.1443 55.3379 56.7597 57.3204 54.0429C57.4988 53.7912 58.0127 53.0989 58.7155 53.0884C59.3974 53.0779 59.9218 53.7282 60.1107 53.959C62.2505 56.6129 59.8904 64.2912 63.3309 68.1303C64.3799 69.3052 65.7225 69.8401 67.1701 72.1478C67.7365 73.0289 68.2086 73.8157 68.3974 74.959Z" fill="white"/>
<path d="M59.5128 76.7528C58.5373 76.5325 57.7401 75.9976 57.6876 75.9556C56.9848 75.4836 56.1352 74.9067 56.1981 74.1934C56.2296 73.8472 56.4604 73.585 56.5128 73.5325C56.775 73.2598 57.1317 73.1654 57.7401 73.0185C57.824 72.9976 57.9394 72.9661 58.0967 72.9451C59.6387 72.6619 61.3275 72.8612 61.3275 72.8612C61.6632 72.9032 62.0198 72.9556 62.3974 73.0395C62.6911 73.1025 62.9743 73.1759 63.2261 73.2493C63.5303 73.3227 63.7716 73.5325 63.8555 73.8158C63.9499 74.1409 63.7925 74.4137 63.7716 74.4661C63.3834 75.1689 62.9324 75.6409 62.6177 75.9137C62.2401 76.2493 61.7995 76.6374 61.1387 76.7843C60.7296 76.8787 60.3205 76.8577 60.2261 76.8577C60.1212 76.8472 59.859 76.8262 59.5128 76.7528Z" fill="#373636"/>
<path d="M47.324 63.1689C48.3088 63.1689 49.1072 62.3705 49.1072 61.3856C49.1072 60.4008 48.3088 59.6024 47.324 59.6024C46.3391 59.6024 45.5408 60.4008 45.5408 61.3856C45.5408 62.3705 46.3391 63.1689 47.324 63.1689Z" fill="#FFFEDF"/>
<path d="M42.9603 69.7562C43.5339 69.7562 43.9988 69.2913 43.9988 68.7178C43.9988 68.1443 43.5339 67.6793 42.9603 67.6793C42.3868 67.6793 41.9219 68.1443 41.9219 68.7178C41.9219 69.2913 42.3868 69.7562 42.9603 69.7562Z" fill="#FFFEDF"/>
</svg>
