<svg width="200" height="200" viewBox="0 0 200 200" fill="none" xmlns="http://www.w3.org/2000/svg">
<path d="M100.104 175.599C142.815 175.599 177.438 141.886 177.438 100.299C177.438 58.7126 142.815 25 100.104 25C57.393 25 22.7691 58.7126 22.7691 100.299C22.7691 141.886 57.393 175.599 100.104 175.599Z" fill="url(#paint0_linear_1901_116)"/>
<path d="M198.062 100.303C198.062 112.829 195.528 125.232 190.605 136.804C185.682 148.375 178.466 158.89 169.37 167.747C160.275 176.604 149.476 183.629 137.591 188.423C125.706 193.216 112.968 195.683 100.104 195.683C87.2405 195.683 74.5027 193.216 62.6178 188.423C50.733 183.629 39.9342 176.604 30.8381 167.747C21.7419 158.89 14.5265 148.375 9.60365 136.804C4.68083 125.232 2.14709 112.829 2.14709 100.303H25.625C25.625 109.827 27.5514 119.257 31.2944 128.055C35.0373 136.854 40.5234 144.848 47.4394 151.582C54.3557 158.316 62.5659 163.658 71.6021 167.303C80.6384 170.947 90.3238 172.823 100.104 172.823C109.885 172.823 119.57 170.947 128.606 167.303C137.643 163.658 145.853 158.316 152.769 151.582C159.685 144.848 165.171 136.854 168.914 128.055C172.657 119.257 174.584 109.827 174.584 100.303H198.062Z" fill="#C73238"/>
<path d="M177.438 100.299C177.438 110.188 175.438 119.979 171.551 129.115C167.665 138.251 161.969 146.552 154.788 153.544C147.607 160.536 139.081 166.083 129.698 169.867C120.316 173.652 110.259 175.599 100.104 175.599C89.9481 175.599 79.8919 173.652 70.5092 169.867C61.1265 166.083 52.6011 160.536 45.4199 153.544C38.2387 146.552 32.5423 138.251 28.6559 129.115C24.7694 119.979 22.7691 110.188 22.7691 100.299H100.104H177.438Z" fill="#070B09"/>
<path d="M98.6005 143.373C120.106 143.373 137.541 126.275 137.541 105.183C137.541 84.0905 120.106 66.9921 98.6005 66.9921C77.094 66.9921 59.66 84.0905 59.66 105.183C59.66 126.275 77.094 143.373 98.6005 143.373Z" fill="white"/>
<path d="M144.536 69.7126C143.582 66.1047 140.515 62.4973 134.994 58.481C130.563 55.2816 125.86 53.4437 122.111 53.4437C121.362 53.4437 120.681 53.5116 119.998 53.6479C118.295 53.9879 116.795 55.2131 115.841 57.0516C114.682 59.2295 114.41 62.1568 115.159 63.9263C115.432 64.471 115.773 65.1521 116.182 65.7647C112.569 67.9426 110.524 68.5552 110.252 68.6237C119.658 71.7547 127.496 78.2895 132.404 86.7989L132.472 85.9816C132.676 83.7352 133.358 81.1484 134.312 78.4937C135.266 78.7663 136.221 78.9021 137.175 78.9021C139.697 78.9021 141.878 77.881 143.241 76.0431C144.604 74.2052 145.15 71.7547 144.536 69.7126Z" fill="white"/>
<path d="M99.2097 64.8748C76.9216 64.8748 58.8589 82.9137 58.8589 105.173C58.8589 127.433 76.9216 145.472 99.2097 145.472C121.498 145.472 139.56 127.433 139.56 105.173C139.56 82.9137 121.43 64.8748 99.2097 64.8748ZM99.2097 143.225C78.1481 143.225 61.1086 126.207 61.1086 105.173C61.1086 84.139 78.1481 67.1211 99.2097 67.1211C120.271 67.1211 137.311 84.139 137.311 105.173C137.311 126.207 120.203 143.225 99.2097 143.225Z" fill="white"/>
<path d="M135.404 104.832C135.404 124.776 119.182 140.977 99.2108 140.977C79.24 140.977 62.9503 124.776 62.9503 104.832H135.404Z" fill="#070B09"/>
<path d="M135.336 105.174C135.336 101.022 128.11 98.639 118.5 97.8221C111.548 97.2774 104.528 97.9579 96.4843 100.408C89.5319 102.451 83.2616 102.111 78.6946 101.566C68.5389 100.408 62.9503 100.272 62.9503 105.174C62.9503 112.253 77.3994 121.103 99.0746 118.039C110.048 116.474 115.705 113.274 122.181 111.096C129.201 108.782 135.336 108.849 135.336 105.174Z" fill="#070B09"/>
<path d="M111.069 88.0237C114.457 88.0237 117.204 85.2811 117.204 81.8974C117.204 78.5142 114.457 75.7711 111.069 75.7711C107.682 75.7711 104.935 78.5142 104.935 81.8974C104.935 85.2811 107.682 88.0237 111.069 88.0237Z" fill="#070B09"/>
<path d="M121.089 92.581C122.519 92.581 123.679 91.4226 123.679 89.9942C123.679 88.5652 122.519 87.4073 121.089 87.4073C119.658 87.4073 118.498 88.5652 118.498 89.9942C118.498 91.4226 119.658 92.581 121.089 92.581Z" fill="#070B09"/>
<defs>
<linearGradient id="paint0_linear_1901_116" x1="22.8917" y1="100.212" x2="177.648" y2="100.212" gradientUnits="userSpaceOnUse">
<stop stop-color="#000292" stop-opacity="0.7"/>
<stop offset="1" stop-color="#7D00C7" stop-opacity="0.7"/>
</linearGradient>
</defs>
</svg>
