<svg width="858" height="858" viewBox="0 0 858 858" fill="none" xmlns="http://www.w3.org/2000/svg">
<circle cx="428.997" cy="429" r="338.684" fill="url(#paint0_linear_3104_14944)"/>
<path d="M858 429C858 485.337 846.904 541.123 825.344 593.171C803.785 645.22 772.185 692.512 732.349 732.349C692.512 772.185 645.22 803.785 593.171 825.344C541.122 846.904 485.337 858 429 858C372.663 858 316.877 846.904 264.829 825.344C212.78 803.785 165.488 772.185 125.651 732.349C85.8148 692.512 54.2149 645.22 32.6557 593.171C11.0964 541.122 -4.92514e-06 485.337 0 429L102.82 429C102.82 471.834 111.257 514.25 127.649 553.823C144.041 593.397 168.068 629.355 198.356 659.644C228.645 689.932 264.603 713.959 304.176 730.351C343.75 746.743 386.165 755.18 429 755.18C471.834 755.18 514.25 746.743 553.823 730.351C593.397 713.959 629.355 689.932 659.644 659.644C689.932 629.355 713.959 593.397 730.351 553.824C746.743 514.25 755.18 471.835 755.18 429H858Z" fill="#C73238"/>
<path d="M767.681 429C767.681 473.476 758.921 517.517 741.9 558.608C724.88 599.7 699.932 637.036 668.483 668.486C637.033 699.935 599.697 724.883 558.606 741.903C517.514 758.924 473.473 767.684 428.997 767.684C384.52 767.684 340.479 758.924 299.388 741.903C258.297 724.883 220.961 699.935 189.511 668.486C158.061 637.036 133.114 599.7 116.093 558.608C99.0728 517.517 90.3125 473.476 90.3125 429L428.997 429H767.681Z" fill="#070B09"/>
<path d="M427.574 207.602C428.023 206.22 429.978 206.22 430.427 207.602L479.357 358.191C479.557 358.809 480.133 359.228 480.783 359.228H639.122C640.576 359.228 641.18 361.087 640.004 361.941L511.905 455.011C511.379 455.393 511.159 456.07 511.36 456.688L560.29 607.277C560.739 608.659 559.157 609.809 557.981 608.954L429.882 515.885C429.356 515.503 428.644 515.503 428.119 515.885L300.02 608.954C298.844 609.809 297.262 608.659 297.711 607.277L346.641 456.688C346.842 456.07 346.622 455.393 346.096 455.011L217.997 361.941C216.821 361.087 217.425 359.228 218.878 359.228H377.218C377.868 359.228 378.443 358.809 378.644 358.191L427.574 207.602Z" fill="white"/>
<circle cx="421.477" cy="421.474" r="226.789" stroke="white" stroke-width="2"/>
<defs>
<linearGradient id="paint0_linear_3104_14944" x1="199.734" y1="178.894" x2="699.944" y2="663.473" gradientUnits="userSpaceOnUse">
<stop stop-color="#A96A74"/>
<stop offset="0.255172" stop-color="#E3B94D"/>
<stop offset="0.498212" stop-color="#B8E287"/>
<stop offset="0.677083" stop-color="#86DABB"/>
<stop offset="1" stop-color="#003896"/>
</linearGradient>
</defs>
</svg>
