<svg width="114" height="114" viewBox="0 0 114 114" fill="none" xmlns="http://www.w3.org/2000/svg">
<path d="M57 102C81.8528 102 102 81.8528 102 57C102 32.1472 81.8528 12 57 12C32.1472 12 12 32.1472 12 57C12 81.8528 32.1472 102 57 102Z" fill="#C73238"/>
<path d="M114 57C114 64.4853 112.526 71.8974 109.661 78.813C106.797 85.7285 102.598 92.0121 97.3051 97.3051C92.0121 102.598 85.7285 106.797 78.813 109.661C71.8974 112.526 64.4853 114 57 114C49.5147 114 42.1026 112.526 35.187 109.661C28.2715 106.797 21.9879 102.598 16.6949 97.3051C11.402 92.0121 7.20338 85.7285 4.33886 78.813C1.47435 71.8974 -6.5439e-07 64.4853 0 57H13.6615C13.6615 62.6913 14.7824 68.3269 16.9604 73.5849C19.1384 78.843 22.3307 83.6206 26.355 87.645C30.3794 91.6693 35.157 94.8616 40.4151 97.0396C45.6731 99.2176 51.3087 100.339 57 100.339C62.6913 100.339 68.3269 99.2176 73.5849 97.0396C78.843 94.8616 83.6206 91.6693 87.645 87.645C91.6693 83.6206 94.8616 78.843 97.0396 73.5849C99.2176 68.3269 100.339 62.6913 100.339 57H114Z" fill="#C73238"/>
<path d="M102 57C102 62.9095 100.836 68.7611 98.5746 74.2208C96.3131 79.6804 92.9984 84.6412 88.8198 88.8198C84.6412 92.9984 79.6804 96.3131 74.2208 98.5746C68.7611 100.836 62.9095 102 57 102C51.0905 102 45.2389 100.836 39.7792 98.5746C34.3196 96.3131 29.3588 92.9984 25.1802 88.8198C21.0016 84.6412 17.6869 79.6804 15.4254 74.2208C13.164 68.7611 12 62.9095 12 57L57 57H102Z" fill="#070B09"/>
<path d="M71.3333 33H42V39.439H71.3333V33Z" fill="white"/>
<path d="M71.8947 55.8028C71.8947 58.0722 71.3738 60.1556 70.3321 62.053C69.2904 63.9131 67.6907 65.4199 65.5329 66.5732C63.3751 67.7265 60.6965 68.3031 57.497 68.3031H51.5817V82.3659H42.0391V43.1909H57.497C60.6221 43.1909 63.2635 43.7304 65.4213 44.8093C67.5791 45.8882 69.1974 47.3763 70.2763 49.2736C71.3552 51.171 71.8947 53.3474 71.8947 55.8028ZM56.7716 60.7137C58.5945 60.7137 59.9524 60.2858 60.8453 59.4301C61.7382 58.5745 62.1846 57.3654 62.1846 55.8028C62.1846 54.2403 61.7382 53.0312 60.8453 52.1755C59.9524 51.3198 58.5945 50.892 56.7716 50.892H51.5817V60.7137H56.7716Z" fill="white"/>
</svg>
