<svg width="256" height="256" viewBox="0 0 128 128" fill="none" xmlns="http://www.w3.org/2000/svg">
  <circle cx="64" cy="64" r="64" fill="black"/>
  <path d="M83.0605 63.4525C83.0605 66.5749 82.3351 69.4414 80.8843 72.0519C79.4336 74.6113 77.2056 76.6844 74.2004 78.2712C71.1953 79.858 67.4647 80.6514 63.0088 80.6514H54.7705V100H41.4805V46.1001H63.0088C67.3611 46.1001 71.0398 46.8423 74.045 48.3267C77.0502 49.8112 79.304 51.8586 80.8066 54.4692C82.3092 57.0797 83.0605 60.0742 83.0605 63.4525ZM61.9984 70.2092C64.5373 70.2092 66.4285 69.6206 67.672 68.4433C68.9155 67.266 69.5373 65.6024 69.5373 63.4525C69.5373 61.3027 68.9155 59.6391 67.672 58.4618C66.4285 57.2845 64.5373 56.6958 61.9984 56.6958H54.7705V70.2092H61.9984Z" fill="white"/>
  <path d="M83.0605 32.24H41.4805V41.48H83.0605V32.24Z" fill="#E59636"/>
</svg>
