<?xml version="1.0" standalone="no"?>
<!DOCTYPE svg PUBLIC "-//W3C//DTD SVG 20010904//EN" "http://www.w3.org/TR/2001/REC-SVG-20010904/DTD/svg10.dtd">
<svg version="1.0" xmlns="http://www.w3.org/2000/svg" width="200.000000pt" height="200.000000pt"
    viewBox="0 0 200.000000 200.000000" preserveAspectRatio="xMidYMid meet">
    <linearGradient id="gradient" x1="0" x2="0" y1="0" y2="1">
        <stop offset="0%" stop-color="#540a8d" />
        <stop offset="100%" stop-color="#db1a34" />
    </linearGradient>
    <circle cx="100" cy="100" r="90" fill="url(#gradient)" />
    <g transform="translate(0.000000,200.000000) scale(0.100000,-0.100000)" fill="white" stroke="none">
        <path d="M887 1989 m-190 -514 c35 -71 39 -75 70 -75 l33 0 0 75 0 75 68 0 c40 0 73 -5
80 -12 8 -8 12 -57 12 -155 l0 -143 -155 0 -155 0 -37 75 c-37 74 -38 75 -75
75 l-38 0 0 80 0 80 80 0 80 0 37 -75z m485 58 c13 -12 18 -31 18 -75 l0 -58
33 0 c31 0 35 4 70 75 l37 75 80 0 80 0 0 -80 0 -80 -38 0 c-37 0 -38 -1 -75
-75 l-37 -75 -68 0 c-40 0 -73 5 -80 12 -7 7 -12 39 -12 75 l0 63 -74 0 c-68
0 -74 2 -80 23 -8 30 -8 122 1 130 14 15 126 7 145 -10z m-388 -379 c11 -10
16 -34 16 -75 l0 -59 50 0 c27 0 61 -5 75 -12 23 -11 25 -16 25 -85 l0 -73
-60 0 c-47 0 -64 4 -80 20 -16 16 -20 33 -20 80 l0 60 -70 0 -70 0 0 -67 c0
-38 5 -87 10 -110 28 -120 122 -241 233 -297 l57 -28 0 -84 c0 -59 -4 -84 -12
-84 -7 0 -51 19 -98 42 -66 33 -103 59 -166 122 -123 123 -172 233 -181 409
l-6 107 77 0 76 0 0 75 0 75 64 0 c45 0 69 -5 80 -16z m538 -1 c13 -12 18 -31
18 -75 l0 -58 75 0 75 0 0 -85 c0 -46 -5 -108 -11 -137 -27 -127 -115 -263
-223 -345 -56 -43 -191 -113 -215 -113 -7 0 -11 31 -11 83 l0 82 58 30 c81 42
166 129 204 211 26 57 32 82 36 165 l5 99 -71 0 -71 0 -3 -77 -3 -78 -51 -3
c-27 -2 -62 2 -77 7 l-27 11 0 150 0 150 137 0 c113 0 140 -3 155 -17z" />
    </g>
</svg>