<?xml version="1.0" encoding="utf-8"?>
<!-- Generator: Adobe Illustrator 24.0.0, SVG Export Plug-In . SVG Version: 6.00 Build 0)  -->
<svg version="1.1" id="Layer_1" xmlns="http://www.w3.org/2000/svg" xmlns:xlink="http://www.w3.org/1999/xlink" x="0px" y="0px"
	 viewBox="0 0 766 154" style="enable-background:new 0 0 766 154;" xml:space="preserve">
<style type="text/css">
	.st0{fill:#F5D2FF;}
	.st1{font-family:'HelveticaNeue-Bold';}
	.st2{font-size:23.5511px;}
	.st3{clip-path:url(#SVGID_2_);fill:#F5D2FF;}
	.st4{clip-path:url(#SVGID_2_);}
</style>
<text transform="matrix(1 0 0 1 450.2314 74.9048)" class="st0 st1 st2">Empower Crypto </text>
<text transform="matrix(1 0 0 1 450.2314 103.166)" class="st0 st1 st2">Even Mo</text>
<text transform="matrix(1 0 0 1 547.5205 103.166)" class="st0 st1 st2">r</text>
<text transform="matrix(1 0 0 1 556.2588 103.166)" class="st0 st1 st2">e Memeingful</text>
<g>
	<defs>
		<rect id="SVGID_1_" width="766" height="154"/>
	</defs>
	<clipPath id="SVGID_2_">
		<use xlink:href="#SVGID_1_"  style="overflow:visible;"/>
	</clipPath>
	<path class="st3" d="M199.3,57.4v45.8h10.9V59.7h12.2V48.9h-14.5C203.2,48.9,199.3,52.7,199.3,57.4"/>
	<path class="st3" d="M177.6,57.4v45.8h10.9V59.7h10.9V48.9h-13.2C181.4,48.9,177.6,52.7,177.6,57.4"/>
	<rect x="221.1" y="58.4" class="st3" width="10.9" height="44.8"/>
	<path class="st3" d="M240.1,66.9v26.8H251V69.2h21.7V58.4h-24.1C243.9,58.4,240.1,62.2,240.1,66.9"/>
	<rect x="271.3" y="67.9" class="st3" width="10.9" height="19"/>
	<rect x="249.6" y="92.3" class="st3" width="24.5" height="10.9"/>
	<rect x="257.7" y="76" class="st3" width="24.5" height="10.9"/>
	<path class="st3" d="M312.1,57.4v45.8H323V59.7h12.2V48.9h-14.5C315.9,48.9,312.1,52.7,312.1,57.4"/>
	<path class="st3" d="M290.4,57.4v45.8h10.9V59.7h10.9V48.9h-13.2C294.2,48.9,290.4,52.7,290.4,57.4"/>
	<rect x="333.8" y="58.4" class="st3" width="10.9" height="44.8"/>
	<path class="st3" d="M352.9,66.9v26.8h10.9V69.2h21.7V58.4h-24C356.7,58.4,352.9,62.2,352.9,66.9"/>
	<rect x="384.1" y="67.9" class="st3" width="10.9" height="19"/>
	<rect x="362.4" y="92.3" class="st3" width="24.5" height="10.9"/>
	<rect x="370.5" y="76" class="st3" width="24.5" height="10.9"/>
	<path class="st3" d="M147.8,76c0-24.3-19.7-44-44-44c-24.3,0-44,19.7-44,44c0,24.3,19.7,44,44,44C128.1,120,147.8,100.3,147.8,76"
		/>
	<path class="st4" d="M125.3,60.1v11.8h-15.6v-8.5h-23V47.8H113C119.8,47.8,125.3,53.3,125.3,60.1"/>
	<path class="st4" d="M94,98.6c0-5.4,4.4-9.8,9.8-9.8c5.4,0,9.8,4.4,9.8,9.8c0,5.4-4.4,9.8-9.8,9.8C98.4,108.3,94,104,94,98.6"/>
	<rect x="96" y="69.9" class="st4" width="15.6" height="15.6"/>
</g>
</svg>
