<?xml version="1.0" encoding="utf-8"?>
<!-- Generator: Adobe Illustrator 24.0.0, SVG Export Plug-In . SVG Version: 6.00 Build 0)  -->
<svg version="1.1" id="Layer_1" xmlns="http://www.w3.org/2000/svg" xmlns:xlink="http://www.w3.org/1999/xlink" x="0px" y="0px"
	 viewBox="0 0 228 68" style="enable-background:new 0 0 228 68;" xml:space="preserve">
<style type="text/css">
	.st0{fill:#F5D2FF;}
</style>
<path class="st0" d="M27,15.1v45.8h10.9V17.4h12.2V6.5H35.6C30.9,6.5,27,10.3,27,15.1"/>
<path class="st0" d="M5.3,15.1v45.8h10.9V17.4H27V6.5H13.9C9.1,6.5,5.3,10.3,5.3,15.1"/>
<rect x="48.8" y="16" class="st0" width="10.9" height="44.8"/>
<path class="st0" d="M67.8,24.6v26.8h10.9V26.9h21.7V16H76.4C71.6,16,67.8,19.8,67.8,24.6"/>
<rect x="99.1" y="25.5" class="st0" width="10.9" height="19"/>
<rect x="77.3" y="50" class="st0" width="24.5" height="10.9"/>
<rect x="85.5" y="33.7" class="st0" width="24.5" height="10.9"/>
<path class="st0" d="M139.8,15.1v45.8h10.9V17.4h12.2V6.5h-14.5C143.7,6.5,139.8,10.3,139.8,15.1"/>
<path class="st0" d="M118.1,15.1v45.8H129V17.4h10.9V6.5h-13.2C121.9,6.5,118.1,10.3,118.1,15.1"/>
<rect x="161.6" y="16" class="st0" width="10.9" height="44.8"/>
<path class="st0" d="M180.6,24.6v26.8h10.9V26.9h21.7V16h-24C184.4,16,180.6,19.8,180.6,24.6"/>
<rect x="211.8" y="25.5" class="st0" width="10.9" height="19"/>
<rect x="190.1" y="50" class="st0" width="24.5" height="10.9"/>
<rect x="198.2" y="33.7" class="st0" width="24.5" height="10.9"/>
</svg>
