<svg width="400" height="400" viewBox="0 0 400 400" fill="none" xmlns="http://www.w3.org/2000/svg">
<mask id="mask0_251_2693" style="mask-type:alpha" maskUnits="userSpaceOnUse" x="0" y="0" width="400" height="400">
<path d="M200 400C310.457 400 400 310.457 400 200C400 89.543 310.457 0 200 0C89.543 0 0 89.543 0 200C0 310.457 89.543 400 200 400Z" fill="#D9D9D9"/>
</mask>
<g mask="url(#mask0_251_2693)">
<circle cx="59" cy="59" r="400" fill="url(#paint0_radial_251_2693)"/>
</g>
<path d="M221.766 63.667H122.229V130.334H221.766C230.973 130.334 238.427 137.798 238.427 146.995C238.427 156.192 230.962 163.657 221.766 163.657H138.891V230.323H221.766C267.791 230.323 305.094 193.01 305.094 146.995C305.094 100.98 267.791 63.667 221.766 63.667Z" fill="#7D5AFF"/>
<path d="M188.896 346.913C216.462 346.913 238.809 324.566 238.809 297C238.809 269.434 216.462 247.088 188.896 247.088C161.33 247.088 138.984 269.434 138.984 297C138.984 324.566 161.33 346.913 188.896 346.913Z" fill="#7D5AFF"/>
<defs>
<radialGradient id="paint0_radial_251_2693" cx="0" cy="0" r="1" gradientUnits="userSpaceOnUse" gradientTransform="translate(59 59) rotate(45.6128) scale(396.71)">
<stop stop-color="#BAFA99"/>
<stop offset="0.157403" stop-color="#AAF8AE"/>
<stop offset="0.319058" stop-color="#9BF6C4"/>
<stop offset="0.486362" stop-color="#A3EBCF"/>
<stop offset="0.68272" stop-color="#B9D9DB"/>
<stop offset="0.834858" stop-color="#C9CCE4"/>
<stop offset="1" stop-color="#D9BDEC"/>
</radialGradient>
</defs>
</svg>
