<?xml version="1.0" standalone="no"?>
<!DOCTYPE svg PUBLIC "-//W3C//DTD SVG 20010904//EN"
 "http://www.w3.org/TR/2001/REC-SVG-20010904/DTD/svg10.dtd">
<svg version="1.0" xmlns="http://www.w3.org/2000/svg"
 width="320.000000pt" height="320.000000pt" viewBox="0 0 320.000000 320.000000"
 preserveAspectRatio="xMidYMid meet">
<metadata>
Created by potrace 1.16, written by Peter Selinger 2001-2019
</metadata>
<g transform="translate(0.000000,320.000000) scale(0.100000,-0.100000)"
fill="#000000" stroke="none">
<path d="M860 2600 l0 -330 512 0 c499 0 513 -1 555 -21 116 -56 123 -224 13
-292 -34 -22 -42 -22 -472 -25 l-438 -3 0 -330 0 -330 493 4 c554 4 539 2 702
83 172 85 291 206 375 379 68 141 84 212 83 370 0 111 -4 143 -27 218 -79 262
-253 456 -495 550 -141 54 -174 57 -762 57 l-539 0 0 -330z"/>
<path d="M1415 1086 c-88 -21 -164 -63 -229 -126 -209 -201 -209 -519 0 -720
151 -146 370 -180 557 -87 91 45 145 91 196 168 112 167 112 391 -1 559 -111
166 -331 253 -523 206z"/>
</g>
</svg>
