<?xml version="1.0" encoding="utf-8"?>
<!-- Generator: Adobe Illustrator 24.0.0, SVG Export Plug-In . SVG Version: 6.00 Build 0)  -->
<svg version="1.1" id="Layer_1" xmlns="http://www.w3.org/2000/svg" xmlns:xlink="http://www.w3.org/1999/xlink" x="0px" y="0px"
	 viewBox="0 0 381 127" style="enable-background:new 0 0 381 127;" xml:space="preserve">
<style type="text/css">
	.st0{fill:#F5D2FF;}
</style>
<g>
	<path class="st0" d="M163,45.1v45.8h10.9V47.4h12.2V36.5h-14.5C166.9,36.5,163,40.3,163,45.1"/>
	<path class="st0" d="M141.3,45.1v45.8h10.9V47.4H163V36.5h-13.2C145.1,36.5,141.3,40.3,141.3,45.1"/>
	<rect x="184.8" y="46" class="st0" width="10.9" height="44.8"/>
	<path class="st0" d="M203.8,54.6v26.8h10.9V56.9h21.7V46h-24.1C207.6,46,203.8,49.8,203.8,54.6"/>
	<rect x="235.1" y="55.5" class="st0" width="10.9" height="19"/>
	<rect x="213.3" y="80" class="st0" width="24.5" height="10.9"/>
	<rect x="221.5" y="63.7" class="st0" width="24.5" height="10.9"/>
	<path class="st0" d="M275.8,45.1v45.8h10.9V47.4h12.2V36.5h-14.5C279.7,36.5,275.8,40.3,275.8,45.1"/>
	<path class="st0" d="M254.1,45.1v45.8H265V47.4h10.9V36.5h-13.2C257.9,36.5,254.1,40.3,254.1,45.1"/>
	<rect x="297.6" y="46" class="st0" width="10.9" height="44.8"/>
	<path class="st0" d="M316.6,54.6v26.8h10.9V56.9h21.7V46h-24C320.4,46,316.6,49.8,316.6,54.6"/>
	<rect x="347.8" y="55.5" class="st0" width="10.9" height="19"/>
	<rect x="326.1" y="80" class="st0" width="24.5" height="10.9"/>
	<rect x="334.2" y="63.7" class="st0" width="24.5" height="10.9"/>
	<path class="st0" d="M111.5,63.7c0-24.3-19.7-44-44-44c-24.3,0-44,19.7-44,44c0,24.3,19.7,44,44,44C91.8,107.7,111.5,88,111.5,63.7
		"/>
	<path d="M89,47.8v11.8H73.4v-8.5h-23V35.5h26.3C83.5,35.5,89,41,89,47.8"/>
	<path d="M57.7,86.2c0-5.4,4.4-9.8,9.8-9.8s9.8,4.4,9.8,9.8c0,5.4-4.4,9.8-9.8,9.8S57.7,91.6,57.7,86.2"/>
	<rect x="59.7" y="57.6" width="15.6" height="15.6"/>
</g>
</svg>
