<?xml version="1.0" encoding="UTF-8"?>
<svg id="a" data-name="Layer 1" xmlns="http://www.w3.org/2000/svg" viewBox="0 0 1000 1000">
  <defs>
    <style>
      .b, .c {
        stroke-width: 0px;
      }

      .c {
        fill: #eaf143;
      }
    </style>
  </defs>
  <circle class="b" cx="500" cy="500" r="500.98"/>
  <path class="c" d="m703.88,721.16c31.85-22.01,50.83-58.29,50.76-97,0,25.59-32.91,36-47.74,15.61h0c-7.62-9.94-4.74-23.83-4.13-35.43,1.91-22.78,8.57-43.52,16.75-64.21,12.42-38.69,4.9-84-19.28-116.45,9.73,37.82-24,73.68-62.08,68-57.43-5-93.68-67.05-70.62-119.31h0c2.13-4.95,4.71-9.69,7.71-14.16,24.39-37.83,28.08-91.22,9-132.48-6.36-14.24-15.01-27.35-25.6-38.79-20.35-22.65-31.53-55.48-27.87-87.48-20.18,32.85-22.19,79.39-5,113.89,4.36,7.86,7.53,16.32,9.41,25.11,5.4,24.39-.78,51.87-15.05,71.14-34.57,49.95-112.54,17.95-101.3-42.37-17.73,24.07-21.95,60-9.65,88.17,2.35,5.77,6.11,11,8.45,16.78,8.31,18.52,11.68,38.87,9.77,59.08-.55,6.45-1.67,12.84-3.36,19.09-.12.6-.33,1.22-.46,1.82-.15.03-.29.09-.43.15-20.5,42.9-84.4,35.27-93.72-11.93-6.9-36.47-35.5-64.95-72-71.7,24.27,14.77,37.79,47.09,29.91,75.77-5.82,23.22-8.75,47.06-8.73,71,0,8.53.34,16.91,1.11,25.32,1.99,23.3,6.8,46.27,14.34,68.4,5,10.57,5.3,24-3.21,32.62h0c-9,10.13-25.76,11.33-36,2.49h0c-2.57-2.16-4.71-4.79-6.32-7.74-.62-1.11-1.15-2.28-1.58-3.48-1.07-2.88-1.61-5.93-1.6-9-.08,38.88,18.99,75.3,50.99,97.39,5.44,4.15,7.08,11.62,3.88,17.67-12.15,22.23,0,52.25,23.32,60.26,26.61-34.22,82.39-21.25,91.19,21.31v.23c1.81,11.04,9.68,20.12,20.35,23.47h.13c8.07-19.26,36.78-12.79,35.74,8.08,3.11.4,6.26.77,9.43,1-1.61-27.4,38.54-27.41,36.92,0,4.25-.34,8.48-.86,12.64-1.48-.71-20,26.91-26.6,35.37-8.51h.1c8.46-2.89,15.03-9.66,17.66-18.2,2.15-7,3.51-14.41,7.5-20.44,17.75-30.81,63.62-33.8,85.11-5.31,22.47-8.07,34.15-32.84,26.07-55.31-.74-2.05-1.63-4.04-2.66-5.96-2.69-6.11-.69-13.28,4.78-17.11Zm-396.12,7.5c-.06-.12-.11-.24-.15-.37.12.03.23.08.33.15-.07.06-.13.14-.18.22Zm101.63-13.81c-85.67,0-43.58-94.77-94.77-94.77,12-8.64,45.95-7.68,65.1,14.83,19.15,22.51,106.7,79,106.7,31.12,0,0,8.64,48.82-77.03,48.82Zm101.21,68.55s-3.49-19-11.81-19-11.81,19-11.81,19c0,0-17.18-1-17.18-21.87s19.8-49.61,19.8-49.61c.8,5.39,4.38,8.2,9.19,8.2s8.39-2.81,9.16-8.2c0,0,19.79,28.8,19.79,49.61s-17.14,21.87-17.14,21.87Zm79.93-68.55c-85.67,0-77.06-48.82-77.06-48.82,0,47.86,87.58-8.64,106.73-31.12,19.15-22.48,53.13-23.47,65.1-14.83-51.22,0-9.1,94.77-94.77,94.77Z"/>
</svg>