<?xml version="1.0" encoding="UTF-8"?>
<svg id="a" data-name="Layer 1" xmlns="http://www.w3.org/2000/svg" viewBox="0 0 1000 1000">
  <defs>
    <style>
      .b {
        fill: #f50c96;
      }

      .b, .c {
        stroke-width: 0px;
      }
    </style>
  </defs>
  <circle class="c" cx="500" cy="500" r="499.5"/>
  <path class="b" d="m822.4,378.76c-7.35,10.45-14.71,20.9-21.68,31.35.39.39,1.16.77,1.55,1.16,15.48-19.35,30.97-38.71,46.45-57.68.39.39.77.77,1.16,1.16-8.9,11.23-18.19,22.84-27.1,34.06.39.39.77.77,1.16,1.16,12-12.39,24-25.16,35.23-37.16-1.16,4.26-2.71,8.9-4.26,13.94.77.39,1.55,1.16,2.32,1.55,3.1-1.55,6.19-3.1,8.9-4.26-1.55,2.71-3.48,6.58-5.81,10.45.77.39,1.16,1.16,1.94,1.55,2.71-1.94,5.42-3.48,9.29-6.19-1.94,3.1-3.1,5.42-4.65,7.74,1.55,1.55,3.48,2.71,5.81,4.65,3.87-5.81,7.74-10.84,11.23-16.26l.77.39c-1.94,3.1-3.87,6.19-5.42,8.9,4.26,5.81,8.52,6.97,15.1,3.48,2.71-1.55,6.58-.39,8.52-.39.77,3.87,1.55,7.74,2.71,11.61h3.87c-1.16,1.94-1.55,3.1-2.71,4.26-8.9,10.06-18.19,20.13-27.48,29.81-9.68,10.06-19.35,19.74-29.42,29.03-3.87,3.87-5.42,7.74-5.03,13.16.39,7.35,0,14.71,0,22.45-.77-8.52-1.55-16.65-2.32-25.94-16.26,11.61-26.71,27.48-39.48,42.97,13.55,10.84,27.48,22.06,42.58,34.45-1.16-13.55-1.94-25.16-3.1-37.16h.39c1.94,12,3.87,24,5.81,36,.39,2.32.77,4.65,2.32,6.19,6.97,6.97,14.32,13.94,21.68,20.13,25.16,20.52,50.32,40.65,75.48,60.77.39.39.77,1.16,1.55,2.32-2.32-.39-3.87-.77-5.42-.77l2.71,2.71c-5.42,2.32-10.84,4.65-16.26,7.35.77.77,1.55,1.16,2.32,1.94-3.1-.39-6.19-.77-10.45-1.16,1.55,4.65,2.32,7.35,3.48,10.45-4.26-2.32-8.52-4.65-12.77-6.58-.77-.39-2.32,0-3.48.39.39,1.16,0,3.1.77,3.87,2.32,2.32,4.65,3.87,6.58,6.97-3.48-1.55-7.35-3.1-12-5.03,1.55,2.71,2.71,4.65,3.87,6.97h-15.48c4.65,4.26,9.68,8.9,15.48,13.94-10.06-3.48-13.94-13.94-25.55-16.65,2.71,4.65,4.26,7.35,5.81,10.06-.39.39-.77,1.16-1.55,1.55-44.13-36.77-87.87-73.16-133.55-111.1-4.65,5.42-9.29,10.45-13.94,15.48-.39.39-1.16,1.16-1.16,1.55,3.87,7.35-3.1,9.68-6.19,13.55-5.81,8.13-12,15.48-18.97,24.39.77-2.32,1.16-3.48,1.16-4.26l-.77-.77c-3.1,3.48-6.19,6.58-9.29,10.06-6.19,6.97-12.39,14.32-18.97,20.9-3.1,3.1-7.35,5.42-10.84,8.13-.39-.39-.77-1.16-1.16-1.55.77-1.94,1.94-3.87,2.32-5.03-2.32,0-4.65-1.16-6.19,0-6.58,3.1-6.97,7.74-1.94,13.16q-3.48,2.32,5.03,11.23c3.48,3.87,7.35,7.74,10.45,12-8.9-4.65-13.16-15.1-22.84-18.58-.39.39-.77,1.16-1.55,1.55,4.26,5.03,8.13,9.68,12.39,15.1-10.06-5.03-12.39-19.74-27.1-18.97,2.71,4.26,5.03,7.74,8.52,12.39-3.1-.77-4.65-1.16-7.74-1.94,2.71,3.48,4.65,5.42,7.74,8.9-3.48-1.55-5.81-2.71-9.29-4.65,1.94,3.1,3.1,4.65,4.26,6.19l-.39.39c-5.42-4.65-10.45-9.29-16.26-14.32-.39,1.55-.77,2.32-1.16,3.1-2.32-1.16-4.26-2.32-6.58-3.48-.39.39-.77.77-.77,1.16.77,1.16,1.16,2.32,1.55,2.71-2.71-.77-5.42-1.94-8.52-2.71-.39.39-.77,1.16-.77,1.55,4.26,3.87,8.52,8.13,13.16,12l-.39.39c-7.35-4.65-14.71-9.68-23.61-15.48,2.32,6.58,4.26,10.84,6.19,15.48.39-.39.77-.77,1.16-.77-28.26-27.1-56.13-53.81-84.77-81.29,5.42,14.71,10.45,29.03,15.87,43.74l-.77.39c-.77-1.55-1.55-2.71-2.71-5.81-3.1,5.81-5.42,9.29-6.97,12.77-1.94-1.55-4.65-6.97-8.13.39-.39.77-4.65-.39-6.97-.39h-5.42c0,1.94-.39,3.87.39,5.03,3.48,4.65,7.35,8.9,10.06,14.32-4.65-5.42-9.68-10.84-14.32-16.26-.39.39-1.16.77-1.55,1.16,1.94,3.1,4.26,6.58,6.19,9.68l-.39.39c-3.87-3.87-7.74-7.35-11.61-11.23-.39.39-1.16,1.16-1.55,1.55,3.48,4.65,7.35,8.9,10.84,13.55-.39.39-.77.77-1.16.77-3.87-4.65-8.13-8.9-11.61-13.55-3.87-5.03-9.68-1.94-13.94-3.48-.77-.39-3.1,3.87-5.42,7.35,1.55,2.32,3.87,5.81,6.19,9.29-6.58-1.55-6.97-12.77-17.42-10.45,2.32,3.48,4.26,5.81,6.58,8.9-6.97-2.71-14.71,0-19.35-6.58-.39-.39-3.1-.39-3.48,0-.77,1.55-1.16,3.87-1.16,5.42q.77,4.26-4.26,5.42c3.48,4.26,6.58,8.13,10.06,12l-.77.77c-6.19-6.58-12.39-13.16-19.35-20.13-.77,2.32-1.55,3.48-1.94,5.03-.77-.39-1.16-.77-1.55-1.16-4.65-6.97-9.29-13.94-13.55-20.9-2.71-4.65-6.58-4.26-10.45-3.48-1.16.39-1.94,2.71-3.1,3.87,6.19,4.26,0,7.74-.77,11.61-.39,1.55-1.16,2.71-1.55,4.26-3.1.39-6.19.77-10.84,1.16,3.1,3.48,4.65,5.42,7.35,8.52h-44.52c1.94,1.94,2.71,2.71,3.48,3.87-.39,0-.77.39-1.16,0-5.42-1.94-10.45-5.42-17.03-2.32-.77.39-2.32-1.16-3.1-1.94-18.19-19.74-13.55-13.16-40.65-18.19-33.68-6.19-67.35-12.77-101.03-18.19-21.29-3.48-42.97-5.42-64.26-7.74-13.16-1.16-26.71-1.94-39.87-2.71-.77,0-2.32,0-2.71-.39-2.32-8.13-10.45-4.65-15.48-7.35-2.32-1.55-5.42-3.48-6.19-5.81-1.55-6.19-4.65-10.45-11.61-12,10.06-3.48,12.39-11.23,6.97-18.58-1.55-2.32-1.94-5.03-3.87-9.68-1.55-2.32-4.26-6.19-7.74-10.84,1.16-2.71,2.71-6.19,8.52-6.19,4.65,0,8.13-6.19,5.81-11.61,5.42.39,10.06.39,14.71,1.16,18.58,1.94,37.16,4.65,55.74,6.19,25.94,2.71,51.48,5.03,77.42,6.97,3.48.39,7.74-.77,10.84-2.32.77-.39.77-5.42-.77-7.35-5.03-6.58-10.84-12.77-16.26-18.97-33.68-38.71-67.74-77.42-101.81-116.9,1.55,0,2.32,0,3.1.39v-25.16s1.16.39,3.87.77c-2.32-4.26-4.26-6.97-5.81-10.45,1.16.39,2.32.77,4.26,1.55-1.55-3.48-2.71-6.58-4.26-9.29,3.1,1.94,5.81,3.87,8.9,5.81.39-.77,1.16-1.16,1.55-1.94-1.16-2.32-1.94-4.65-3.1-7.35,2.32.39,4.65,1.16,6.97,1.55.39-.39.77-1.16,1.16-1.55-1.94-2.71-3.87-5.42-6.58-8.9,7.74.39,10.84,12.77,19.74,5.42-.77-1.55-1.55-3.1-2.32-5.03.39-.39.39-.77.77-1.16,3.87,2.32,7.74,4.26,11.61,6.58.77-3.87,1.55-7.74,2.32-11.61,5.42.77,8.9,8.52,15.87,3.48,5.81,5.81,12.39,11.23,17.81,17.81,55.74,65.81,111.87,132,167.23,198.58,6.97,8.52,14.32,8.13,24.39,6.97-12.39-20.52-24-39.87-36.39-60.39,1.94.39,3.1.39,3.87.77-.39-3.87-.39-8.13-.77-12.77,6.19,1.16,8.13-6.97,14.32-5.03.39-1.16,1.16-2.71.77-3.87-.39-3.1-1.16-5.81-1.94-8.9.39,0,1.16-.39,1.55-.39.39,1.55.39,3.1,1.16,4.26,1.16,1.55,2.71,2.71,4.26,3.87.77-1.16,1.94-2.71,2.71-3.87,1.16-1.16,2.71-2.32,4.26-3.48-.77-2.32-1.55-4.26-2.71-7.35,1.55.39,2.32.77,3.1.77,1.94.39,3.48.39,5.42.77,0-1.55-.39-3.48-.39-5.03,0-.77,1.16-1.55,2.32-2.32-1.55-2.32-3.1-5.42-5.03-8.52.39-.39.77-.39,1.16-.77,3.48,4.65,7.35,8.9,10.06,13.55,22.84,37.55,44.9,75.1,67.74,112.26,6.97,11.61,14.71,22.45,22.45,33.68.77-.39,1.55-.77,2.71-1.55-22.06-48.39-44.13-96.77-66.97-147.1,4.26,7.35,7.74,13.16,11.23,18.97.39-.39.77-.39,1.55-.77-7.74-15.87-15.48-31.74-23.23-47.61.39-.39.77-.39,1.16-.77,1.55,1.16,3.48,2.32,5.03,3.48.39-.39.77-.39,1.16-.77-2.32-3.48-4.65-6.58-6.97-10.06l.77-.39c4.65,5.03,9.68,10.06,15.48,16.65v-12.39h1.16c.77,2.71,1.55,5.42,2.32,8.13h1.16c0-3.48.39-6.97.39-10.84,2.32,1.16,1.94,8.13,7.35,3.1-3.1-5.42-6.19-10.45-9.29-15.48l.77-.77c1.94,2.71,3.87,5.03,5.42,7.74.39,0,.77-.39,1.16-.39-1.55-4.65-3.48-8.9-5.03-13.55l.39-.39c1.55,2.32,3.1,4.65,4.65,6.97.39-.39,1.16-.39,1.55-.77-4.65-11.23-9.29-22.84-14.32-34.06l.77-.39c6.58,12.77,13.55,25.94,20.52,39.48,1.16-1.94,2.32-3.48,3.1-5.03,1.16,1.94,2.32,3.48,4.26,6.58,1.94-8.13-3.48-12-7.35-17.81,2.71,1.55,4.65,2.32,7.74,3.87-2.71-6.19-4.65-10.84-6.97-15.87.39-.39.77-.39,1.16-.77,1.94,2.32,3.87,5.03,6.58,8.52-.39-3.48-.39-5.42-.77-9.68,6.19,13.16,11.61,24.39,17.42,35.61,1.94,3.87,5.03,6.97,7.35,10.45.77-.39,1.55-.77,2.32-1.16-.39-1.16-.77-2.71-1.16-4.65,1.55,1.16,2.71,2.32,4.65,3.87,0-1.94-.39-3.1-.39-5.42,30.97,33.68,61.16,66.97,91.35,99.87.39-.39,1.16-.77,1.55-.77-4.65-16.65-9.29-33.68-13.94-50.32-4.65-15.48-9.68-30.19-14.32-45.68-2.71-9.29-3.48-18.97-6.58-27.87-5.81-17.03-12.39-33.68-18.19-49.16-.39,0,1.16.77,3.1,1.94-.39-2.32-.77-3.87-1.16-5.81,5.81,1.16,4.65,11.61,13.16,8.9v-22.45c.39,0,.77-.39,1.16-.39,1.16,1.94,2.32,3.87,4.26,7.35v-14.71c2.32,4.65-2.32,10.45,5.03,13.55v-16.26h.77c.77,5.42,1.55,10.84,1.94,16.26h2.71c.39-3.1.39-6.19.39-8.52,3.1,5.42,6.58,11.23,10.06,17.42,0-.39.39-.77.39-1.16,1.94,1.16,3.48,2.32,5.42,3.87.77-.39,1.55-.39,2.71-.77-1.16-11.23-2.71-22.84-3.87-33.29.77,1.94,1.94,5.03,3.48,8.52.77-1.55,1.16-2.71,1.16-2.71,3.87,3.48,8.13,6.97,13.16,11.61v-7.74h.77c1.16,5.81,2.32,11.61,3.1,17.42.77,5.42,3.1,7.35,8.9,5.03-1.55-7.74-3.1-15.87-4.65-23.61.39,0,.77,0,1.16-.39.77,2.71,1.16,5.42,1.94,8.13,1.16,3.1,0,8.13,5.42,8.9.77,0,1.55,3.1,1.94,4.65,3.48,15.48,7.35,30.58,10.84,46.06.39,1.55,1.16,3.1,1.94,6.19,3.87-4.65,7.35-8.52,10.06-11.61-.39-3.87-.39-7.35-.77-10.84,2.71,0,5.81.39,8.9.39.39-.77.77-1.55.77-2.71-8.9-7.35-17.81-14.71-26.71-21.68,10.45,4.65,17.42,13.94,27.87,18.58.77-.77,1.16-1.55,1.94-2.32-3.1-1.94-6.19-3.87-9.29-5.81.39-.77,1.16-1.16,1.55-1.94,3.1,1.94,5.81,3.87,8.9,5.81l.77-.77c-1.16-1.94-1.94-3.48-3.48-5.81,4.65,3.1,8.52,5.81,13.55,8.9.39-1.94.39-3.1.77-6.19,4.26,2.32,8.52,3.87,12,6.58,11.61,9.29,22.06,20.13,34.84,27.87,25.55,15.48,44.52,37.94,70.06,56.9,1.16-1.55,2.32-3.87,3.87-5.81,19.35-24,38.71-48.39,58.06-72.39,1.94-1.55,3.87-3.48,5.42-5.03h0Zm-214.84,75.1c5.03,19.35,8.52,37.16,14.71,54.19.77,0,1.16-.39,1.94-.39-.77-8.13-1.94-16.65-2.71-24.77,2.71,10.45,5.42,20.9,7.35,31.35.39,1.16-.77,3.1-1.16,4.26-.39,2.71-1.16,5.81-.77,8.52,5.03,17.81,10.45,35.61,15.87,53.81.77,1.94,1.55,3.87,2.71,6.97,20.52-25.16,40.26-49.55,60.39-73.94-2.32-2.32-4.26-3.87-5.81-5.03-25.94-22.06-51.87-44.13-77.81-66.19-1.55-1.55-4.26-3.48-4.26-4.65.77-7.74-6.19-8.52-10.06-12.39,4.26,13.55,1.55,29.03,10.84,41.42-3.1-3.87-6.58-7.74-11.23-13.16Zm-249.29-.39c-.77-3.1-1.55-6.97-3.48-9.68-17.81-22.06-35.61-43.74-53.42-65.42-2.71-3.48-5.81-6.97-8.52-10.06l-1.16.39c1.94,2.32,3.48,5.03,4.65,6.19-1.94,9.29-6.97,14.32-17.42,13.16-.39-.39-1.94-2.32-4.26-5.03,1.16,3.48,1.55,5.81,2.71,8.9-3.1-1.16-4.65-1.94-6.19-2.32-2.32,12,2.71,22.06,8.13,31.74-.77.77-1.94,1.16-2.71,1.94-2.32-3.1-5.03-6.19-7.35-9.29,17.03,22.45,34.45,44.13,52.26,65.81,1.55,1.94,5.03,2.32,7.74,2.71,3.1.39,6.58,0,9.68,0,.39-2.32.77-5.03,1.55-9.29,2.32,2.71,3.48,4.26,5.03,6.58-.39-4.26-6.58-8.9,1.55-10.84-1.94-3.1-3.48-5.81-5.03-8.52.39-.39.77-.39,1.16-.77,1.94,1.55,3.87,2.71,5.81,4.26,1.94-1.16,3.87-2.32,5.81-3.48,2.32,2.32,3.87,4.26,5.42,5.81-.39-3.87-1.16-8.52-1.94-12.77Zm132.77-109.94c10.06,20.9,20.52,41.81,30.58,62.32-8.13-21.68-17.03-42.97-30.58-62.32Zm-57.29-5.81c-1.94-.77-6.97.39-7.35,1.55-3.1,8.13,6.58,4.26,7.74,8.52,3.48-3.87,3.87-7.74-.39-10.06Zm327.48,236.13c-4.65,2.71-4.65,5.42,0,8.13,4.65-2.71,4.65-5.03,0-8.13Zm-233.42,72c4.26,5.03,8.52,9.68,12.77,14.71l.77-.77c-4.65-4.26-9.29-8.9-13.94-13.16l.39-.77Zm294.58-267.1c4.65-6.19,9.29-12,14.32-18.19-.39-.39-1.16-.77-1.55-1.16-4.26,6.58-8.52,12.77-12.77,19.35h0Z"/>
</svg>