<?xml version="1.0" encoding="UTF-8"?>
<svg id="a" data-name="Layer 2" xmlns="http://www.w3.org/2000/svg" viewBox="0 0 1000 1000">
  <defs>
    <style>
      .b, .c, .d, .e {
        stroke-width: 0px;
      }

      .c {
        fill: #24c2cb;
      }

      .d {
        fill: #fbb040;
      }

      .e {
        fill: #d94169;
      }
    </style>
  </defs>
  <circle class="b" cx="500" cy="500" r="499.01"/>
  <path class="e" d="m504.8,199.82c89.43-11.34,138.03,60.75,129.33,172.17h54.52c14.25-130.91-40.1-216.83-142.86-203.85l-1.5.2c-59.91,8.1-125.56,48.21-185.22,107.76,47.45-42.02,97.89-69.81,144.4-76.09l1.34-.19Zm62.57,379.21c-69.19,126.43-178.07,225.36-271.22,237.96l-1.34.18c-70.81,8.95-116.01-34.38-127.46-108.13,5.47,97.79,57.75,157.46,144.62,146.49l1.5-.21c106.51-14.4,231.45-130.15,308.09-276.29h-54.18Z"/>
  <path class="d" d="m213.08,695.64c1.08-.2,2.03-.66,2.84-1.39s1.39-1.62,1.7-2.67l9.59-49.92c.31-1.19.97-2.16,1.95-2.89l52.17-41.2c2.63-2.06,2.7-5.07.15-5.09l-51.09-.54c-.43.05-.83-.07-1.18-.34-.36-.26-.56-.62-.64-1.05l-6.97-43.41c-.14-1.1-1.17-1.51-2.31-1.35-1.46.25-2.66.96-3.59,2.11l-41.02,49.59c-.83.98-1.85,1.66-3.09,2.02l-56.48,14.41c-2.81.72-5.04,4-3.76,5.57l25.58,31.15c.25.41.38.85.37,1.33-.02.49-.16.92-.44,1.31l-27.95,52.29c-1.1,2.08,0,3.5,1.91,3.24.59-.08,1.14-.27,1.66-.56l56.91-30.3c.51-.28,1.05-.47,1.63-.55.49-.08.96-.03,1.42.16l39.22,17.93c.45.19.92.24,1.41.16Z"/>
  <path class="d" d="m130.84,546.96c19.67-.24,24.29,5.31,21.83,26.24-.05.19-.05.37,0,.54.05.19.14.35.27.48.13.13.28.23.47.27.18.06.36.06.54,0,1-.19,1.67-.77,1.98-1.75,7.17-21.57,14.71-28.76,35.51-33.99,1.99-.5,2.66-3.45.79-3.42-19.67.23-24.29-5.33-21.83-26.24.11-.38.03-.73-.26-1.02-.28-.29-.62-.38-1.01-.28-1.01.19-1.68.77-1.99,1.74-7.17,21.58-14.71,28.75-35.51,34-1.99.5-2.66,3.44-.79,3.42Z"/>
  <path class="d" d="m769.98,239.16c-21.52-.46-27.45-7.59-25.44-30.54.07-.3.06-.59-.03-.89-.08-.29-.23-.54-.46-.76-.22-.21-.47-.36-.77-.43-.29-.08-.59-.08-.88,0-.76.14-1.43.46-2.01.97-.58.5-1,1.12-1.25,1.85-8.64,23.85-18.29,33.08-41.35,39.57-3.23.91-4.29,5.61-1.29,5.67,21.47.46,27.41,7.6,25.43,30.55-.07.29-.06.59.03.88.09.29.24.54.46.76.23.21.48.36.78.43.29.08.59.08.88,0,.76-.14,1.43-.47,2.01-.97.58-.51,1-1.13,1.25-1.85,8.63-23.85,18.29-33.1,41.35-39.58,3.22-.91,4.29-5.6,1.29-5.67Z"/>
  <path class="c" d="m326.02,472.26v-84.36h65.44v170.82h-65.44v-59.66h-3.42c-.18,8.06-1.05,15.5-2.63,22.34-1.58,6.83-4.03,13.27-7.36,19.32-3.33,6.04-7.97,10.78-13.93,14.19-5.96,3.42-13.05,5.03-21.29,4.86-9.29-.18-17.04-2.01-23.26-5.52-6.22-3.5-10.91-8.41-14.06-14.72-3.15-6.31-5.35-12.92-6.57-19.84-1.23-6.92-1.84-14.93-1.84-24.05v-107.75h64.39v84.1c0,4.73,1.01,8.67,3.02,11.83,2.01,3.15,4.51,5.12,7.49,5.91,2.98.79,5.95.83,8.94.13,2.98-.7,5.47-2.63,7.49-5.78,2.01-3.15,3.02-7.1,3.02-11.83Z"/>
  <path class="c" d="m463.46,387.64h89.09l.26,69.91c-.7.18-1.75.31-3.15.39-1.4.09-4.03.13-7.88.13s-7.58-.26-11.17-.79c-3.59-.53-7.58-1.53-11.96-3.02-4.38-1.49-8.15-3.46-11.3-5.91-3.15-2.45-5.83-5.87-8.02-10.25-2.19-4.38-3.28-9.46-3.28-15.24-.18-6.83,1.14-12.26,3.94-16.29,2.8-4.03,6.83-7.44,12.09-10.25l-.53-2.89c-10.87-.53-20.28,1.45-28.25,5.91-7.97,4.47-12.05,11.69-12.22,21.68-.18,4.73.74,9.16,2.76,13.27,2.01,4.12,5.34,8.02,9.99,11.69,4.64,3.68,8.45,6.48,11.43,8.41,2.98,1.93,7.75,4.6,14.32,8.02,6.57,3.42,10.47,5.48,11.69,6.18,24.7,13.67,35.3,30.92,31.8,51.77-1.75,10.87-6.44,19.93-14.06,27.2-7.62,7.27-18.62,10.91-32.98,10.91h-98.55l-.26-74.11c.87-.17,2.01-.3,3.42-.39,1.4-.09,4.16-.13,8.28-.13s8.06.26,11.83.79c3.77.53,7.93,1.62,12.48,3.28,4.55,1.67,8.5,3.77,11.83,6.31,3.33,2.54,6.18,6.14,8.54,10.78,2.37,4.64,3.55,10.03,3.55,16.16.17,12.79-4.99,22.08-15.51,27.86l.79,2.89c11.56-.35,20.54-2.5,26.94-6.44,6.39-3.94,9.76-11.25,10.12-21.94-.53-8.23-3.07-15.46-7.62-21.68-4.56-6.22-10.08-11.08-16.56-14.59-6.48-3.5-13.45-7.23-20.89-11.17-7.45-3.94-14.28-7.75-20.5-11.43-6.22-3.68-11.3-8.71-15.24-15.11-3.94-6.39-5.74-13.88-5.39-22.47.35-6.83,1.79-12.75,4.34-17.74,2.54-4.99,5.65-8.84,9.33-11.56,3.68-2.71,8.32-4.86,13.93-6.44,5.61-1.58,10.82-2.58,15.64-3.02,4.82-.44,10.47-.66,16.95-.66Z"/>
  <path class="c" d="m741.51,387.9h136.39l-.26,77.79c-1.4.18-3.24.35-5.52.53-2.28.18-6.53.09-12.75-.26-6.22-.35-11.92-1.22-17.08-2.63-5.17-1.4-10.34-4.03-15.5-7.88-5.17-3.85-8.8-8.76-10.91-14.72-2.98-7.53-3.42-15.51-1.31-23.91,2.1-8.41,6.57-14.8,13.4-19.18l-1.05-2.89c-10.69,1.58-18.66,6.83-23.91,15.77-5.26,8.94-7.19,19.01-5.78,30.22,1.22,9.99,5.43,18.36,12.61,25.1,7.18,6.75,15.77,10.12,25.75,10.12h31.01v12.09h-30.49c-8.76,0-15.86,3.51-21.29,10.51-5.43,7.01-8.15,14.98-8.15,23.91v36.27h-65.18v-170.82Z"/>
  <g>
    <path class="c" d="m565.17,558.99v-170.82h96.45c14.19,0,26.5,4.21,36.92,12.61,10.42,8.41,18,18.97,22.73,31.67,4.73,12.71,7.1,26.41,7.1,41.13s-2.32,28.43-6.96,41.13c-4.64,12.7-12.22,23.26-22.73,31.67-10.51,8.41-22.86,12.61-37.05,12.61h-26.54v-48.09h-3.94c-3.15,15.42-6.57,26.11-10.25,32.06-6.48,10.69-16.65,16.03-30.49,16.03h-25.23Z"/>
    <path class="b" d="m629.55,400.79l-.26,94.87c8.76,0,16.2-3.15,22.34-9.46,6.13-6.31,9.94-14.01,11.43-23.13,1.49-9.11,1.58-18.26.26-27.46-1.31-9.2-4.99-17.17-11.04-23.91-6.04-6.74-13.62-10.38-22.73-10.91Z"/>
  </g>
</svg>