<svg width="200" height="200" viewBox="0 0 200 200" fill="none" xmlns="http://www.w3.org/2000/svg">
<g clip-path="url(#clip0_29_638)">
<rect width="200" height="200" fill="#DDDCCE"/>
<g clip-path="url(#clip1_29_638)">
<path d="M164.368 123.341L170.006 118.271L145.002 95.0314L142.895 84.2865L128.896 72.6695L128.214 19H127.495L108.123 63.1846L106.071 63.13L91.3655 19H90.5807L82.3768 69.7804L-45.8314 77.8481L-158 135.303V136.696C-158 136.696 -142.178 151.85 -112.881 145.739C-92.2237 141.433 -56.4621 111.227 -45.7167 102.917C-47.9262 145.836 -58.6172 222.994 -58.6172 222.994H-45.6262L-30.5283 136.684L-18.2254 135.909L-29.327 222.976H-15.3519L-0.507592 134.849L55.6522 131.088L46.0537 222.921H58.8396L73.7744 130.119L87.3812 129.265L78.3624 222.903H92.6755L104.441 120.991L116.116 113.238L155.747 133.692L158.717 129.21L132.307 110.882L133.369 109.277L164.368 123.329V123.341ZM-36.7039 93.4869L-33.3776 83.5537L-13.0157 96.1882L-36.6978 93.4869H-36.7039ZM-5.83804 101.379L-2.51179 91.4457L17.8501 104.08L-5.832 101.379H-5.83804ZM15.7312 90.513L19.0575 80.5798L39.4194 93.2143L15.7372 90.513H15.7312ZM48.9514 97.5268L52.2776 87.5936L72.6395 100.228L48.9574 97.5268H48.9514ZM68.9933 87.1211L73.6778 77.7573L92.0597 93.1477L68.9933 87.1211ZM121.978 82.4029C121.676 82.6027 121.398 82.839 121.145 83.0933C120.511 83.7293 120.028 84.5228 119.75 85.401C119.642 85.7523 119.563 86.1218 119.527 86.5033C119.509 86.6911 119.497 86.8849 119.497 87.0787C119.497 87.4664 119.539 87.848 119.611 88.2174C118.941 87.3755 118.35 86.4912 117.837 85.619C117.323 84.7469 116.871 83.8747 116.496 83.057C115.235 80.3254 114.716 78.151 114.716 78.151L115.029 77.7633C115.029 77.7633 115.736 77.8845 116.841 78.1328C117.058 78.1813 117.299 78.2358 117.547 78.2963C117.794 78.3569 118.06 78.4235 118.332 78.4902C118.603 78.5628 118.887 78.6355 119.183 78.7143C120.644 79.114 122.304 79.641 123.855 80.2951C124.163 80.4283 124.471 80.5616 124.773 80.7009C125.075 80.8402 125.364 80.9916 125.648 81.143C125.932 81.2945 126.203 81.4519 126.463 81.6155C126.246 81.561 126.028 81.5186 125.805 81.4943C125.582 81.4641 125.352 81.4519 125.123 81.4519C124.344 81.4519 123.608 81.6094 122.938 81.8941C122.6 82.0395 122.28 82.209 121.984 82.415L121.978 82.4029ZM129.361 94.3348C128.908 94.2379 128.443 94.1289 127.984 94.0017C127.526 93.8745 127.061 93.7352 126.608 93.5838C125.853 93.3233 125.123 93.0265 124.447 92.6692C124.67 92.6934 124.894 92.7116 125.123 92.7116C125.902 92.7116 126.638 92.5541 127.308 92.2694C127.646 92.1241 127.966 91.9545 128.262 91.7486C129.759 90.7371 130.737 89.0169 130.737 87.0727C130.737 86.685 130.701 86.3035 130.622 85.9401C130.55 85.5766 130.435 85.2193 130.296 84.8862C134.625 89.0412 135.693 94.674 135.693 94.674L135.403 95.0919C135.403 95.0919 132.542 95.0253 129.355 94.3409L129.361 94.3348Z" fill="#1B1C16"/>
</g>
</g>
<defs>
<clipPath id="clip0_29_638">
<rect width="200" height="200" fill="white"/>
</clipPath>
<clipPath id="clip1_29_638">
<rect width="328" height="204" fill="white" transform="translate(-158 19)"/>
</clipPath>
</defs>
</svg>
