<svg xmlns="http://www.w3.org/2000/svg" width="3750" height="3750" version="1.0" viewBox="0 0 2812.5 2812.5"><defs><clipPath id="a"><path d="M17.555 17.55H357.3v339.716H17.555Zm0 0"/></clipPath></defs><g clip-path="url(#a)" transform="matrix(8.26944 0 0 8.27014 -143.67 -143.641)"><path fill="#ff914d" d="M187.43 357.266c93.816 0 169.87-76.047 169.87-169.856 0-93.812-76.054-169.86-169.87-169.86-93.82 0-169.875 76.048-169.875 169.86 0 93.809 76.054 169.856 169.875 169.856zm0 0"/></g><path fill="#ff914d" d="M1406.236 2221.36c450.161 0 815.084-364.96 815.084-815.096 0-450.168-364.923-815.087-815.084-815.087-450.173 0-815.118 364.919-815.118 815.087 0 450.144 364.945 815.096 815.118 815.096zm0 0" style="stroke-width:8.26889"/><path fill="#fff" d="M1409.137 180.705c-151.626 0-274.601 549.997-274.601 1228.437 0 678.44 122.975 1228.437 274.601 1228.437 151.627 0 274.604-549.997 274.604-1228.445 0-678.432-122.965-1228.429-274.604-1228.429zm18.962 2387.546c-17.342 23.13-34.69 5.79-34.69 5.79-69.802-80.932-104.725-231.25-104.725-231.25-122.172-393.08-93.095-1237.097-93.095-1237.097 57.406-670.045 161.832-828.336 197.368-863.484a21.5 21.502 0 0 1 13.502-6.17 21.583 21.585 0 0 1 14.307 3.946c51.558 36.537 94.808 189.303 94.808 189.303 127.695 474.045 116.127 919.15 116.127 919.15 11.568 387.34-63.99 820.879-63.99 820.879-58.175 329.513-139.612 398.933-139.612 398.933zm0 0" style="stroke-width:8.26889"/><path fill="#fff" d="M2474.634 797.831c-75.488-131.578-613.672 35.47-1202.456 373.091-588.782 337.619-1004.088 717.986-928.63 849.498 75.426 131.511 613.674-35.502 1202.455-373.09 588.786-337.627 1004.094-717.988 928.631-849.507zM413.193 2002.36c-28.91-3.648-22.385-27.39-22.385-27.39 35.467-100.83 148.295-205.919 148.295-205.919 280.324-301.563 1026.931-696.336 1026.931-696.336 609.703-283.666 799.065-271.717 847.128-258.476a21.724 21.726 0 0 1 15.73 23.099c-5.773 62.96-117.058 176.451-117.058 176.451-347.415 346.8-739.275 558.3-739.275 558.3-330.202 202.843-743.894 353.003-743.894 353.003-314.75 113.416-415.472 77.268-415.472 77.268zm0 0" style="stroke-width:8.26889"/><path fill="#fff" d="M2472.022 2024.813c76.105-131.222-338.177-513.327-924.885-853.503C960.465 831.168 422.289 662.052 346.293 793.496c-76.004 131.456 338.178 513.328 925.241 853.477 587.029 340.17 1124.476 509.293 1200.488 377.84zM396.72 844.184c-11.246-26.647 12.462-33.048 12.462-33.048 105.055-19.831 252.574 25.366 252.574 25.366 401.363 91.385 1117.05 539.683 1117.05 539.683 551.05 385.595 635.555 555.422 648.216 603.663a21.666 21.668 0 0 1-12.016 25.19c-57.475 26.299-211.359-12.884-211.359-12.884-474.327-127.187-853.653-360.207-853.653-360.207-340.855-183.813-677.87-466.683-677.87-466.683-256.086-215.635-275.346-320.79-275.346-320.79Zm0 0" style="stroke-width:8.26889"/><path fill="#fff" d="M1406.236 1550.803c79.814 0 144.517-64.715 144.517-144.539 0-79.822-64.703-144.527-144.517-144.527-79.826 0-144.527 64.705-144.527 144.527 0 79.832 64.701 144.539 144.527 144.539zM1998.79 938.01c46.291 0 83.828-38.838 83.828-86.714 0-47.909-37.545-86.711-83.828-86.711-46.293 0-83.828 38.802-83.828 86.711 0 47.876 37.542 86.706 83.828 86.706zM622.963 1232.824c46.293 0 83.828-38.838 83.828-86.714 0-47.873-37.543-86.703-83.828-86.703-46.292 0-83.827 38.83-83.827 86.704 0 47.883 37.544 86.703 83.827 86.703zm612.783 1063.678c46.282 0 83.787-38.836 83.787-86.71 0-47.876-37.505-86.706-83.787-86.706-46.327 0-83.831 38.83-83.831 86.705 0 47.883 37.504 86.71 83.83 86.71zm0 0" style="stroke-width:8.26889"/></svg>