<svg xmlns="http://www.w3.org/2000/svg" width="500" height="500" version="1.0" viewBox="17 17 341 341"><defs><clipPath id="a"><path d="M17.555 17.55H357.3v339.716H17.555Zm0 0"/></clipPath></defs><g clip-path="url(#a)"><path fill="#ff914d" d="M187.43 357.266c93.816 0 169.87-76.047 169.87-169.856 0-93.812-76.054-169.86-169.87-169.86-93.82 0-169.875 76.048-169.875 169.86 0 93.809 76.054 169.856 169.875 169.856Zm0 0"/></g><path fill="#ff914d" d="M187.426 285.969c54.437 0 98.566-44.13 98.566-98.559 0-54.433-44.129-98.558-98.566-98.558-54.438 0-98.57 44.125-98.57 98.558 0 54.43 44.132 98.559 98.57 98.559Zm0 0"/><path fill="#fff" d="M187.777 39.219c-18.336 0-33.207 66.504-33.207 148.539 0 82.035 14.871 148.539 33.207 148.539s33.207-66.504 33.207-148.54c0-82.034-14.87-148.538-33.207-148.538Zm2.293 288.695c-2.097 2.797-4.195.7-4.195.7-8.441-9.786-12.664-27.962-12.664-27.962-14.774-47.53-11.258-149.586-11.258-149.586 6.942-81.02 19.57-100.16 23.867-104.41a2.6 2.6 0 0 1 1.633-.746 2.61 2.61 0 0 1 1.73.477c6.235 4.418 11.465 22.89 11.465 22.89 15.442 57.32 14.043 111.141 14.043 111.141 1.399 46.836-7.738 99.258-7.738 99.258-7.035 39.844-16.883 48.238-16.883 48.238Zm0 0"/><path fill="#fff" d="M316.625 113.84c-9.129-15.91-74.21 4.289-145.41 45.113S49.793 245.77 58.918 261.672c9.121 15.902 74.21-4.293 145.41-45.113 71.2-40.825 121.422-86.817 112.297-102.72ZM67.34 259.488c-3.496-.441-2.707-3.312-2.707-3.312 4.289-12.192 17.933-24.899 17.933-24.899 33.899-36.464 124.184-84.199 124.184-84.199 73.73-34.3 96.629-32.855 102.441-31.254a2.627 2.627 0 0 1 1.902 2.793c-.698 7.613-14.155 21.336-14.155 21.336-42.012 41.934-89.399 67.508-89.399 67.508-39.93 24.527-89.957 42.684-89.957 42.684-38.062 13.714-50.242 9.343-50.242 9.343Zm0 0"/><path fill="#fff" d="M316.309 262.203c9.203-15.867-40.895-62.07-111.844-103.203C133.52 117.871 68.44 97.422 59.25 113.316c-9.191 15.895 40.895 62.07 111.887 103.2 70.988 41.132 135.98 61.582 145.172 45.687ZM65.348 119.445c-1.36-3.222 1.507-3.996 1.507-3.996 12.704-2.398 30.543 3.067 30.543 3.067 48.536 11.05 135.082 65.257 135.082 65.257 66.637 46.625 76.856 67.16 78.387 72.993a2.62 2.62 0 0 1-1.453 3.046c-6.95 3.18-25.559-1.558-25.559-1.558-57.359-15.379-103.23-43.555-103.23-43.555-41.219-22.226-81.973-56.43-81.973-56.43-30.968-26.074-33.297-38.789-33.297-38.789Zm0 0"/><path fill="#fff" d="M187.426 204.887c9.652 0 17.476-7.825 17.476-17.477 0-9.652-7.824-17.476-17.476-17.476-9.653 0-17.477 7.824-17.477 17.476 0 9.653 7.824 17.477 17.477 17.477ZM259.082 130.79c5.598 0 10.137-4.696 10.137-10.485 0-5.793-4.54-10.485-10.137-10.485-5.598 0-10.137 4.692-10.137 10.485 0 5.789 4.54 10.484 10.137 10.484ZM92.707 166.438c5.598 0 10.137-4.696 10.137-10.485s-4.54-10.484-10.137-10.484c-5.598 0-10.137 4.695-10.137 10.484 0 5.79 4.54 10.484 10.137 10.484ZM166.809 295.055c5.597 0 10.132-4.696 10.132-10.485s-4.535-10.484-10.132-10.484c-5.602 0-10.137 4.695-10.137 10.484 0 5.79 4.535 10.485 10.137 10.485Zm0 0"/></svg>