<svg xmlns="http://www.w3.org/2000/svg" width="375" height="375" version="1.0" viewBox="0 0 281.25 281.25"><defs><clipPath id="a"><path d="M48.84 50.785h178.953v178.953H48.84Zm0 0"/></clipPath><clipPath id="b"><path d="M138.316 50.785c-49.418 0-89.476 40.059-89.476 89.477 0 49.414 40.058 89.476 89.476 89.476 49.414 0 89.477-40.062 89.477-89.476 0-49.418-40.063-89.477-89.477-89.477Zm0 0"/></clipPath><clipPath id="c"><path d="M0 0h280.504v280.504H0Zm0 0"/></clipPath><clipPath id="d"><path d="M140.25 0C62.793 0 0 62.793 0 140.25c0 77.46 62.793 140.254 140.25 140.254 77.46 0 140.254-62.793 140.254-140.254C280.504 62.793 217.71 0 140.25 0Zm0 0"/></clipPath><clipPath id="e"><path d="M41.367 25.555H238.84V255H41.367Zm0 0"/></clipPath></defs><g clip-path="url(#a)"><g clip-path="url(#b)"><path fill="#fff" d="M48.84 50.785h178.953v178.953H48.84Zm0 0"/></g></g><g clip-path="url(#c)"><g clip-path="url(#d)"><path fill="#ff914d" d="M0 0h280.504v280.504H0Zm0 0"/></g></g><g clip-path="url(#e)"><path fill="#fff" d="M140.105 62.664 102.887 84.2l37.218 21.54 37.215-21.54Zm-2.59 35.598-24.292-14.063 24.293-14.058Zm5.18-28.121 24.29 14.058-24.29 14.063Zm-2.59-44.586L41.371 82.707v114.297l98.734 57.148 98.735-57.148V82.707Zm-2.59 221.105L46.54 194.012V88.699l90.977 52.653ZM49.13 84.2l90.976-52.65 90.977 52.65-90.977 52.663Zm184.543 109.812-90.977 52.648V141.352l90.977-52.653Zm-123.027-37.106L73.43 135.367v43.09l37.215 21.54ZM78.598 144.34l24.289 14.062-24.29 14.059Zm26.867 46.668-24.29-14.059 24.29-14.062Zm101.324-55.64-37.215 21.538v43.09l37.215-21.539Zm-32.047 55.64v-28.121l24.29 14.062Zm26.867-18.547-24.289-14.059 24.29-14.062Zm0 0"/></g></svg>