<svg xmlns="http://www.w3.org/2000/svg" viewBox="59 48 227 227" height="200" width="200">
<style type="text/css">
	.a{fill:none;stroke:#aaa;stroke-width:3;}
	.b{fill:none;}
</style>
<g>
	<g>
		<path class="a" d="M118.9548111,251.1704865c-34.7555923-15.6567688-58.9548035-50.6100616-58.9548035-91.1704712
			c0-55.1921616,44.8078461-99.9998474,99.9999924-99.9998474c31.906662,0,60.3428955,14.9742126,78.6389923,38.2959137
			c5.9768829,8.4222031,9.9734497,26.0825119-5.2464294,44.0360565
			c-8.5205078,10.0509033-28.1931763,21.8118744-56.1085663,34.6172028
			c-21.6554413,9.7949982-42.9800873,21.4745483-56.6140137,35.2545013
			c-5.1003265,5.1534119-8.4648056,10.9518585-10.2034149,16.4723511
			C107.9215393,236.7534027,110.6773682,247.1247864,118.9548111,251.1704865L118.9548111,251.1704865z"/>
		<path class="a" d="M178.8970947,176.1893768l0.0090637,0.0180664
			c-0.7458344,20.4068298-6.6114807,42.0015259-15.195343,57.6298981
			c-8.4519348,15.3917847-29.0836945,23.3280334-43.1325836,18.019577l-1.6234207-0.6864319
			c-8.2774429-4.0457001-11.0332718-14.4170837-8.4882431-22.4942932
			c1.7386093-5.5204926,5.1030884-11.3189392,10.2034149-16.4723511
			c13.6339264-13.779953,34.9585724-25.4595032,56.6140137-35.2545013L178.8970947,176.1893768L178.8970947,176.1893768z"/>
	</g>
	<g>
		<path class="a" d="M261.6121826,177.3361664c13.4344788,6.3028717,22.7603149,20.3121643,22.7114258,36.5358887
			c-0.0664978,22.0761108-17.4654541,39.9475708-38.8302155,39.8832092
			c-12.3503418-0.0372009-23.340332-6.060257-30.3944244-15.4102783c-2.303009-3.3757324-3.8286896-10.4443665,2.0846558-17.6085052
			c3.3088531-4.0099335,10.9384613-8.6919861,21.7600708-13.7809448
			c8.3947144-3.8924255,16.6634064-8.5397797,21.9573364-14.0357056c1.9802551-2.0556946,3.2904968-4.3702087,3.9703064-6.5766296
			C265.8661804,183.1149139,264.8110657,178.9634399,261.6121826,177.3361664L261.6121826,177.3361664z"/>
		<path class="a" d="M238.3192749,207.2576141l-0.0038147-0.0066528
			c0.3127136-8.1620331,2.6100006-16.7935486,5.9505157-23.0340576c3.2905121-6.1477661,11.2862244-9.2974091,16.7181854-7.1578217
			l0.6280212,0.2770844c3.1988831,1.6272736,4.2539978,5.7787476,3.2591553,9.0070343
			c-0.6798096,2.2064209-1.9900513,4.5209351-3.9703064,6.5766296c-5.2939301,5.4959259-13.5626221,10.14328-21.9573364,14.0357056
			L238.3192749,207.2576141L238.3192749,207.2576141z"/>
	</g>
</g>
<rect class="b" width="320" height="320"/>
</svg>