<svg xmlns="http://www.w3.org/2000/svg" width="650" height="650" viewBox="-60 -60 640 640">
<circle fill="#ff914d" cx="260" cy="260" r="320"/>
  <path d="m 186.647,374.285 -5.063,2.919 0.004,-5.845 c 0,0 -0.071,2.989 1.278,3.736 1.321,0.732 3.781,-0.81 3.781,-0.81 z" fill="#fffff" id="path1"/>
  <path d="m 56.712,368.257 c 28.537,53.966 77.346,94.378 135.687,112.357 58.342,17.98 121.437,12.047 175.407,-16.492 53.97,-28.54 94.393,-77.348 112.377,-135.689 17.983,-58.34 11.931,-121.435 -16.606,-175.401 25.733,81.103 -63.859,109.595 -63.859,109.595 l -108.433,56.672 -112.693,58.776 c 0,0 -76.805,49.444 -121.88,-9.818 z" fill="#fff"/>
  <path d="m 56.308,368.654 c 28.537,53.966 77.345,94.385 135.687,112.364 58.341,17.98 121.437,12.047 175.407,-16.492 53.97,-28.539 94.393,-77.348 112.376,-135.688 17.984,-58.34 12.054,-121.434 -16.483,-175.4 25.733,81.103 -63.981,109.593 -63.981,109.593 l -108.433,56.672 -112.693,58.776 c 0,0 -76.806,49.437 -121.88,-9.825 z" fill="url(#paint0_linear_827_2)"/>
  <path d="M 464.97,365.85 C 492.837,311.535 497.986,248.373 479.282,190.26 460.578,132.147 419.554,83.842 365.235,55.973 310.916,28.103 247.752,22.952 189.637,41.652 131.522,60.352 83.218,101.372 55.351,155.687 107.062,88.117 181.828,145.305 181.828,145.305 l 108.587,56.377 112.752,58.661 c 0,0 84.532,34.605 61.803,105.507 z" fill="#fff"/>
  <path d="M 464.418,365.626 C 492.202,311.473 497.335,248.499 478.687,190.559 460.039,132.619 419.137,84.458 364.98,56.672 310.823,28.885 247.846,23.749 189.905,42.394 131.963,61.038 83.803,101.935 56.019,156.089 c 51.557,-67.369 126.1,-10.351 126.1,-10.351 l 108.263,56.209 112.417,58.486 c 0,0 84.28,34.502 61.619,105.193 z" fill="url(#paint1_linear_827_2)"/>
  <path d="M 260.178,30.537 C 199.131,30.537 140.584,54.789 97.417,97.959 54.25,141.129 30,199.679 30,260.73 c 0,61.052 24.25,119.602 67.417,162.772 43.167,43.17 101.634,67.305 162.681,67.305 -78.349,-13.154 -78.27,-114.545 -78.27,-114.545 V 260.73 143.155 c 0,0 0,-98.595 78.35,-112.618 z" fill="#fff"/>
  <path d="M 260.178,30 C 199.131,30 140.584,54.252 97.417,97.422 54.25,140.591 30,199.142 30,260.193 c 0,61.051 24.25,119.602 67.417,162.772 43.167,43.17 101.634,67.857 162.681,67.857 -78.349,-25.033 -78.27,-114.433 -78.27,-114.433 V 260.478 145.306 c 0,0 -2.85,-100.389 78.35,-115.306 z" fill="url(#paint2_linear_827_2)"/>
  <path d="M 260.178,30 C 199.131,30 140.584,54.252 97.417,97.422 54.25,140.591 30,199.142 30,260.193 c 0,61.051 24.25,119.602 67.417,162.772 43.167,43.17 101.634,67.857 162.681,67.857 -78.349,-25.033 -78.27,-114.433 -78.27,-114.433 V 260.478 145.306 c 0,0 -2.85,-100.389 78.35,-115.306 z" fill="url(#paint3_linear_827_2)" fill-opacity="0.3"/>
  <path d="m 260.099,490.808 c -77.745,-35.412 -78.178,-114.455 -78.178,-114.455 0,0 -96.36,54.357 -128.799,-15.166 0,0 54.905,130.082 206.977,129.621 z" fill="#fff" id="path11"/>
  <defs>
    <linearGradient id="paint0_linear_827_2" x1="601.74701" y1="513.17902" x2="266.83099" y2="843.854" gradientUnits="userSpaceOnUse" gradientTransform="translate(-138.435,-278.694)">
      <stop stop-opacity="0.3"/>
      <stop offset="0.655513" stop-opacity="0"/>
    </linearGradient>
    <linearGradient id="paint1_linear_827_2" x1="260.66101" y1="388.45599" x2="722.20898" y2="473.133" gradientUnits="userSpaceOnUse" gradientTransform="translate(-138.435,-278.694)">
      <stop stop-opacity="0.3"/>
      <stop offset="0.645833" stop-opacity="0"/>
    </linearGradient>
    <linearGradient id="paint2_linear_827_2" x1="291.702" y1="740.56598" x2="154.77" y2="318.80301" gradientUnits="userSpaceOnUse" gradientTransform="translate(-138.435,-278.694)">
      <stop stop-opacity="0.3"/>
      <stop offset="0.675464" stop-opacity="0"/>
    </linearGradient>
    <linearGradient id="paint3_linear_827_2" x1="291.702" y1="740.56598" x2="154.77" y2="318.80301" gradientUnits="userSpaceOnUse" gradientTransform="translate(-138.435,-278.694)">
      <stop stop-opacity="0.3"/>
      <stop offset="0.675464" stop-opacity="0"/>
    </linearGradient>
  </defs>
</svg>