<svg xmlns="http://www.w3.org/2000/svg" viewBox="0 0 52.917 52.917" height="200" width="200" xmlns:v="https://vecta.io/nano"><path d="M52.913 26.529a26.399 26.41 0 0 1-26.399 26.41A26.399 26.41 0 0 1 .115 26.529 26.399 26.41 0 0 1 26.514.119a26.399 26.41 0 0 1 26.399 26.41z" fill="#ff914c" paint-order="stroke fill markers"/><path d="M26.538 4.819c-11.972 0-21.681 9.728-21.681 21.733s9.708 21.733 21.681 21.733 21.68-9.727 21.68-21.733S38.51 4.819 26.538 4.819zM2.659 26.552c0-13.223 10.693-23.937 23.879-23.937s23.879 10.719 23.879 23.937-10.693 23.937-23.879 23.937S2.659 39.775 2.659 26.552zm33.305-5.703l-6.024-.251 4.093-4.443-1.649-1.648-4.436 4.09-.242-6.038H25.38l-.251 6.038-4.432-4.103-1.644 1.653 4.085 4.447-6.028.238v2.336l6.024.251-4.093 4.443 1.649 1.648 4.366-4.028.193 9.784-3.487.256v2.173l3.539.269.066 3.398h2.326l.07-3.394 3.575-.273v-2.173l-3.522-.256.198-9.78 4.362 4.033 1.644-1.648-4.08-4.447 6.024-.242z" fill="#fff" fill-rule="evenodd"/></svg>