<svg xmlns="http://www.w3.org/2000/svg" viewBox="-9 -4 80 80" height="200" width="200">
<circle fill="#ff914d" cx="31" cy="36" r="40" />
<path fill="#fff" d="M62.5 32.9c-1-1.1-2.1-2-3.2-2.8C57.1 19.5 49 11 38.6 8.4c2.2-2.1 3-4.1 2.4-8.1 0-.2-.1-.3-.3-.3-.1 0-.2.1-.3.2-1.5 3.6-7.2 5-10.6 6-3.8 1.1-7.5 2.6-11.1 4.4C6.5 16.9.6 31.1 4.7 44.2l.1.1c1.9 5.9 5.7 10.9 10.7 14.4 13.4 9.4 30 5.4 40.5-5.8.2-.2 0-.6-.3-.5-.6.3-1.3.5-1.9.6 3.8-4.8 6-10.8 6-17.4v-.1c0-.9 0-1.8-.1-2.7.8.1 1.7.3 2.5.4.2.1.3 0 .4-.2 0 .1 0 0-.1-.1zM57 28.8c-3.5-1.7-7.6-2.2-11.5-1.3-1.6.4-3.2 1-4.6 1.8-.7.4-1.4.8-2.2 1.1-.5.2-1 .4-1.5.5-.9.2-1.9.4-2.9.4-3.2.1-6.2-1.5-8-4.1-3-4.5-1.6-9.9 2.9-12.9 2.5-1.5 5.2-2.6 7.6-4.4 9.9 2 17.7 9.4 20.2 18.9zm1 6.9c0 6.8-2.6 13.1-6.9 17.7-.5 0-1.1-.1-1.6-.2-4.1-.8-7.2-3.9-8-8-.9-4.6 1.5-9.3 5.8-11.3.4-.2.8-.3 1.2-.5 2.7-.9 6.1-1 9.5-.7-.1 1 0 2 0 3z" />
</svg>
