<svg xmlns="http://www.w3.org/2000/svg" width="200" height="200" viewBox="-11 -8 54 54" fill="none">
<circle fill="#ff914d" cx="16" cy="19" r="27" />
<path d="M31.8178 7.57522C31.4679 6.22812 30.3436 4.88101 28.3197 3.38142C26.6955 2.1868 24.9714 1.50055 23.5972 1.50055C23.3223 1.50055 23.0724 1.52597 22.8225 1.5768C22.1979 1.70388 21.6481 2.16139 21.2984 2.84765C20.8736 3.66099 20.7736 4.75393 21.0485 5.41476C21.1484 5.6181 21.2734 5.87227 21.4233 6.10102C20.099 6.91437 19.3493 7.14312 19.2494 7.16853C22.6977 8.33772 25.5711 10.7777 27.3701 13.9549L27.3952 13.6499C27.4701 12.8111 27.72 11.8453 28.0698 10.854C28.4195 10.9557 28.7694 11.0065 29.1192 11.0065C30.0438 11.0065 30.8433 10.6253 31.3431 9.939C31.8428 9.25274 32.0426 8.33772 31.8178 7.57522Z" fill="#fff"/>
<path d="M28.2196 10.1174C30.4933 10.7528 31.4179 8.97359 31.1179 7.779C30.7931 6.58439 29.7437 5.36438 27.8946 3.99186C26.0457 2.61935 24.1717 2.06017 22.9723 2.31433C21.773 2.5685 21.4231 4.42394 21.7229 5.13561C21.8479 5.4152 22.1227 5.82187 22.4975 6.27938C22.0228 6.60982 21.573 6.86398 21.1983 7.09272C23.497 8.13482 25.496 9.76152 26.9951 11.7949C27.17 11.1086 27.4199 10.4986 27.6449 9.96485C27.8197 9.99026 28.0196 10.0411 28.2196 10.1174Z" fill="#ff914d"/>
<path d="M15.2013 35.0255C22.9153 35.0255 29.1688 28.6644 29.1688 20.8175C29.1688 12.9706 22.9153 6.60938 15.2013 6.60938C7.48719 6.60938 1.23367 12.9706 1.23367 20.8175C1.23367 28.6644 7.48719 35.0255 15.2013 35.0255Z" fill=""/>
<path d="M24.5214 4.83014C25.0212 5.03348 25.6708 5.38932 26.4705 5.92309C27.4199 6.5585 28.2445 7.27019 28.7692 7.82935C27.8946 8.99853 27.3199 10.5998 26.9702 11.7182C27.1452 11.9723 27.345 12.2265 27.5199 12.4807C27.6948 11.8453 27.9946 10.9048 28.3944 9.96438C28.4943 9.98979 28.6194 9.98979 28.7442 9.98979C29.044 9.98979 29.3938 9.93897 29.6688 9.7102C29.8686 9.55771 30.0936 9.27812 30.0685 8.76979C30.0685 8.28686 29.6938 7.67686 28.9191 6.93976C28.3695 6.40601 27.6199 5.82142 26.8702 5.28765C24.7214 3.83888 23.2221 3.43221 22.5475 4.11847C22.0978 4.57598 22.1477 5.13516 22.2976 5.54183C21.4981 6.07558 20.8234 6.45684 20.3737 6.71101C20.6735 6.81268 20.9484 6.93976 21.2482 7.06684C22.0477 6.63476 23.1971 5.89766 24.5214 4.83014ZM29.244 8.46479C29.3189 8.59187 29.3439 8.71894 29.3439 8.7952C29.3439 9.02396 29.269 9.1002 29.2189 9.15104C29.1191 9.2273 28.9191 9.27812 28.7442 9.27812C28.8941 8.97312 29.069 8.71895 29.244 8.46479ZM23.0722 4.67765C23.1472 4.6014 23.3472 4.55055 23.672 4.6014C23.4221 4.80473 23.1722 4.98265 22.9224 5.16057C22.8973 4.98265 22.9224 4.80473 23.0722 4.67765Z" fill="#fff"/>
<path d="M15.2015 5.77045C7.0308 5.77045 0.409302 12.5059 0.409302 20.8173C0.409302 29.1286 7.0308 35.8642 15.2015 35.8642C23.3722 35.8642 29.9936 29.1286 29.9936 20.8173C29.9936 12.5059 23.3472 5.77045 15.2015 5.77045ZM15.2015 35.0254C7.48057 35.0254 1.23387 28.6712 1.23387 20.8173C1.23387 12.9635 7.48057 6.6092 15.2015 6.6092C22.9224 6.6092 29.1692 12.9635 29.1692 20.8173C29.1692 28.6712 22.8975 35.0254 15.2015 35.0254Z" fill="#fff"/>
<path d="M28.4691 20.6895C28.4691 28.1366 22.5223 34.1859 15.2012 34.1859C7.88008 34.1859 1.90823 28.1366 1.90823 20.6895H28.4691Z" fill="#fff"/>
<path d="M28.4443 20.8171C28.4443 19.2667 25.7956 18.377 22.2724 18.0721C19.7237 17.8687 17.1502 18.1229 14.2017 19.0379C11.6531 19.8005 9.35429 19.6733 7.68018 19.4699C3.95714 19.0379 1.90823 18.987 1.90823 20.8171C1.90823 23.4605 7.20542 26.7647 15.1512 25.6209C19.1741 25.0363 21.248 23.8418 23.6217 23.0284C26.1954 22.1642 28.4443 22.1896 28.4443 20.8171Z" fill="#fff"/>
<path d="M19.5491 14.4124C20.7911 14.4124 21.7978 13.3882 21.7978 12.1249C21.7978 10.8615 20.7911 9.83734 19.5491 9.83734C18.3071 9.83734 17.3003 10.8615 17.3003 12.1249C17.3003 13.3882 18.3071 14.4124 19.5491 14.4124Z" fill="#fff"/>
<path d="M23.2221 16.1157C23.7466 16.1157 24.1717 15.6832 24.1717 15.1498C24.1717 14.6164 23.7466 14.184 23.2221 14.184C22.6978 14.184 22.2727 14.6164 22.2727 15.1498C22.2727 15.6832 22.6978 16.1157 23.2221 16.1157Z" fill="#fff"/>
</svg>