<svg width="36" height="36" viewBox="0 0 36 36" xmlns="http://www.w3.org/2000/svg">
<g clip-path="url(#b)">
<path d="M18 36C27.9411 36 36 27.9411 36 18C36 8.05887 27.9411 0 18 0C8.05887 0 0 8.05887 0 18C0 27.9411 8.05887 36 18 36Z" fill="#ff914d"/>
<path fill-rule="evenodd" clip-rule="evenodd" d="M18 34.5921C27.1635 34.5921 34.5922 27.1186 34.5922 17.8994C34.5922 8.68027 27.1635 1.20667 18 1.20667C8.83641 1.20667 1.40784 8.68027 1.40784 17.8994C1.40784 27.1186 8.83641 34.5921 18 34.5921ZM18 33.1843C26.3862 33.1843 33.1844 26.3411 33.1844 17.8994C33.1844 9.45778 26.3862 2.61449 18 2.61449C9.61393 2.61449 2.81566 9.45778 2.81566 17.8994C2.81566 26.3411 9.61393 33.1843 18 33.1843Z" fill="#fff"/>
<path d="M16.4648 14.2123V14.2257L15.2045 7.57544L14.1587 7.24023L13.5017 8.12515L16.4648 14.2123Z" fill="#fff"/>
<path d="M17.1486 11.4368L17.6849 14.0111L18.2615 11.3966L17.6983 11.0212L17.1486 11.4368Z" fill="#fff"/>
<path d="M21.1308 11.8927L20.447 11.9598L19.6424 14.5072L21.4123 12.5095L21.1308 11.8927Z" fill="#fff"/>
<path d="M26.9765 12.429V11.343L25.9172 11.0078L20.9564 15.6603L26.9765 12.429Z" fill="#fff"/>
<path d="M14.8558 15.1777L13.381 12.9654L12.7106 13.0726L12.6033 13.743L14.8558 15.1777Z" fill="#fff"/>
<path d="M24.3485 17.4302L21.7072 17.9531L24.3485 18.5296L24.7507 17.9799L24.3485 17.4302Z" fill="#fff"/>
<path d="M13.676 17.9665L6.89167 17.1084L6.23468 17.9933L6.89167 18.8782L13.676 17.9665Z" fill="#fff"/>
<path d="M11.1687 19.4414L10.9676 20.0715L11.5173 20.4738L13.8637 19.1598L11.1687 19.4414Z" fill="#fff"/>
<path d="M11.9464 21.3049L11.9196 21.9755L12.5631 22.2033L14.4402 20.2324L11.9464 21.3049Z" fill="#fff"/>
<path d="M15.3252 21.144L13.3274 22.9006L13.5017 23.5442L14.1855 23.5709L15.3252 21.144Z" fill="#fff"/>
<path d="M17.6984 21.9218L17.162 24.5228L17.7118 24.9118L18.2615 24.5095L17.6984 21.9218Z" fill="#fff"/>
<path d="M26.9899 23.5039L20.9564 20.2993L25.9441 24.925L26.9899 24.59V23.5039Z" fill="#fff"/>
<path d="M20.3396 23.9999L18.9855 21.7341L19.2938 24.3352L19.9374 24.5363L20.3396 23.9999Z" fill="#fff"/>
<path d="M16.4782 21.7341L13.5419 27.8346L14.1989 28.7195L15.2447 28.3842L16.4782 21.7341Z" fill="#fff"/>
</g>
<defs>
<clipPath id="b">
<rect width="36" height="36" fill="#fff"/>
</clipPath>
</defs>
</svg>
