<svg width="200" height="200" viewBox="-2 -2 42 42" xmlns="http://www.w3.org/2000/svg">
<circle fill="#ff914d" cx="19" cy="19" r="21"/>
<path d="M18.9998 37.3333C14.1017 37.3333 9.49984 35.4259 6.03687 31.9629C2.57391 28.5 0.666504 23.8981 0.666504 19C0.666504 14.1018 2.57391 9.49996 6.03687 6.037C9.49984 2.57403 14.1017 0.666626 18.9998 0.666626C23.898 0.666626 28.4998 2.57403 31.9628 6.037C35.4258 9.49996 37.3332 14.1018 37.3332 19C37.3332 23.8981 35.4258 28.5 31.9628 31.9629C28.4998 35.4259 23.898 37.3333 18.9998 37.3333ZM18.9998 2.15737C9.7128 2.15737 2.15724 9.71292 2.15724 19C2.15724 28.287 9.7128 35.8426 18.9998 35.8426C28.2869 35.8426 35.8424 28.287 35.8424 19C35.8424 9.71292 28.2869 2.15737 18.9998 2.15737ZM16.8147 13.6296L6.11095 10.9814L13.2221 19.4166L7.38873 28.787L17.6109 24.6296L24.7221 33.0648L23.9258 22.0648L34.148 17.9074L23.4443 15.2592L22.648 4.25922L16.8147 13.6296Z" fill="#fff"/>
</svg>
