<svg xmlns="http://www.w3.org/2000/svg" height="200" width="200" viewBox="0 0 512 512">
<style>
	.a{fill:#ff914c;}
	.b{fill:#fff;}
</style>
<g>
	<path class="a" d="M250.1,0h11.8c0.4,0.1,0.8,0.2,1.2,0.3c2.3,0.1,4.6,0.1,6.9,0.3c5.9,0.5,11.8,0.8,17.7,1.6
		c7.4,1,14.9,2.2,22.3,3.7c16.2,3.4,32,8.4,47.2,15c72.6,31.3,126.7,94.3,146.6,170.8c2.4,9.1,4.2,18.4,5.6,27.7
		c0.8,5.5,1.4,11.1,1.8,16.6c0.4,4.3,0.4,8.7,0.6,13c0.1,0.4,0.2,0.7,0.3,1.1v11.8c-0.1,0.2-0.2,0.4-0.3,0.7c-0.1,2.5-0.1,5-0.3,7.5
		c-0.4,5.1-0.6,10.2-1.3,15.3c-1.1,8.2-2.3,16.3-3.9,24.4c-4.1,19.5-10.5,38.4-19.1,56.3c-17.3,36.3-42.8,67.9-74.6,92.4
		c-27.1,21.1-58.1,36.4-91.3,45c-14.3,3.8-28.8,6.3-43.6,7.4c-6.3,0.5-12.6,0.7-18.9,1c-3.2,0.1-6.5,0-9.7-0.2
		c-5.8-0.3-11.7-0.5-17.5-1.1c-5.9-0.6-11.8-1.4-17.7-2.3c-12.5-2-24.8-4.9-36.8-8.9C95.2,473,32.3,407.2,9.3,324.4
		C5,309.1,2.2,293.5,1,277.6c-0.4-5.9-0.8-11.9-1-17.8c-0.1-3.5,0-7.1,0.2-10.6c0.4-6.8,0.7-13.5,1.3-20.2
		c0.6-6.3,1.5-12.7,2.6-18.9c2.7-15.3,6.9-30.3,12.5-44.8c29.5-77.5,94.7-136,175-156.9c9.1-2.4,18.4-4.2,27.7-5.6
		c5.5-0.8,11.1-1.4,16.6-1.8c4.4-0.4,8.8-0.4,13.1-0.6C249.5,0.2,249.8,0.1,250.1,0z M255.9,444.4c104,0.5,187.9-84.5,188.6-186.2
		c0.7-105.8-84-189.3-186.2-190.4c-107.1-1.1-189.5,84.5-190.6,186C66.5,360.6,153.2,444.8,255.9,444.4z"/>
	<path class="b" d="M255.9,444.4c-102.7,0.5-189.4-83.7-188.3-190.6c1.1-101.4,83.5-187.1,190.6-186
		c102.2,1.1,186.9,84.6,186.2,190.4C443.9,359.9,360,444.8,255.9,444.4z M357.1,199.2c-0.6-0.5-1-0.9-1.4-1.2
		c-2.1-1.6-4.1-3.3-6.2-4.9c-30.5-23.6-65.3-41.2-102.4-51.8c-16.6-4.9-33.7-7.8-50.9-8.7c-6.4-0.3-12.8,0-19.2,0.2
		c-6.3,0.2-12.6,1-18.8,2.3c-10.7,2.2-20.9,5.7-30.2,11.5c-8.8,5.4-16,13.1-20.7,22.4c-5,9.9-6,20.6-4.9,31.5c0.9,7.9,3,15.7,6,23
		c5.2,13.1,12.6,24.9,21.2,36.1c9.1,11.7,19.3,22.4,30.5,32c3.1,2.8,7.8,3,11,0.3c16.9-13.3,34.6-25.4,53.1-36.3
		c4.2-2.3,6.8-6.6,6.9-11.3c0.4-6.3,0.8-12.7,1.3-19c0.4-4.9,0.9-9.8,1.6-14.7c1.2-7.9,2.5-15.9,4.1-23.7c2.2-11.3,5.2-22.5,9-33.4
		c0.6-2.5,3.2-4,5.7-3.4c0.2,0.1,0.4,0.1,0.6,0.2c1.8,0.6,3.7,1.2,5.5,1.8c3.4,1.1,4.6,3.4,3.4,6.8c-5.7,17.3-9.8,35.1-12.1,53.1
		c-1.1,8.5-1.9,17-2.6,25.5c-0.5,7.2-0.6,14.5-0.8,21.7c-0.1,4.1,0.1,8.3,0.2,12.4c0,2.3,0.1,4.5,0.2,6.8c0.5,7.5,0.9,15,1.6,22.4
		c0.5,5.7,1.2,11.4,2.1,17.1c1.3,7.9,3,15.8,4.6,23.7c0.9,4.2-0.8,7.6-4.8,9.3c-2.9,1.2-5.8,2.3-8.7,3.5c-4.1,1.7-8.8,1.6-12.7-0.4
		c-14.7-6.8-28.9-14.4-42.7-22.9c-25.7-16.3-48.9-35.5-68-59.4c-9.7-12.2-18-25.3-24-39.7c-1.5-3.7-2.8-7.5-4.1-11.3
		c-0.3-0.9-0.8-1.7-1.8-1.4c-0.6,0.2-1.2,0.7-1.4,1.3c-2.1,9-3.3,18.1-3.6,27.3c-0.2,7.6,0,15.3,0.5,22.9c0.4,6.1,1.2,12.1,2.4,18.1
		c2.4,13.1,6.4,25.9,11.9,38c3.8,8.3,8.2,16.3,13.2,23.9c0.7,1.5,2.3,2.3,3.9,2.1c1.5-0.2,2.8-1.3,3.2-2.8c0.6-1.3,1.2-2.6,1.9-3.9
		c6.3-11.4,14.6-21.3,23.8-30.5c2.2-2.1,5.7-2.3,8.1-0.4c1,0.7,1.9,1.5,2.8,2.2c2.7,2,3.3,5.8,1.3,8.5c-0.2,0.3-0.5,0.6-0.8,0.9
		c-6.3,6.2-12,13-17,20.2c-3.6,5.4-6.9,11-8.3,17.4c-1.5,6.6,0.5,10.8,6.6,13.6c4.6,2,9.5,3.1,14.5,3.2c4.5,0.2,9,0.2,13.4-0.2
		c7.1-0.7,14.3-1.5,21.3-2.9c16.7-3.4,33.2-8.1,49.1-14.2c22.7-8.5,44.8-18.5,66.2-30c25.4-13.5,49.5-29.1,72.1-46.8
		c1.2-0.8,1.9-2.2,1.9-3.6c0.3-5.8,0.8-11.6,1-17.3c0.2-5,0.2-10,0.3-15c0-2.2-0.1-4.4-0.2-6.6c-0.2-4.9-0.2-9.8-0.5-14.7
		c-0.4-6-0.9-12-1.6-17.9c-0.8-6.8-1.7-13.7-2.8-20.5c-2.4-14.8-6.2-29.3-11.3-43.4c-4-11.1-9-21.7-15.8-31.3
		c-4.4-6.3-9.5-12.1-16.1-16.2c-7.5-4.7-15.4-6-23.9-2.8c-4.9,2-9.4,4.9-13.2,8.6c-6.6,6.2-11.7,13.6-16.2,21.5
		c-1.6,2.9-0.8,5.2,2.3,6.4c28.4,11,55.2,25.9,79.5,44.3c3.8,2.8,6.4,6.9,7.3,11.5c0.8,4,1.5,7.9,2,11.9c0.8,6.5-2.6,11.7-8.5,13.2
		c-18.2,4.6-36,10.5-53.3,17.6c-15.7,6.4-31.1,13.6-46.1,21.5c-3,1.5-5.2,0.1-5.2-3.2c0.1-2.6,0.3-5.1,0.3-7.7
		c0-3.5,1.5-5.7,4.8-7.2c9.6-4.4,19-9.1,28.6-13.3c19.3-8.6,39.2-15.7,59.6-21.3C350.2,200.9,353.5,200.1,357.1,199.2z M255.8,428.6
		c7.3-0.1,14.6-0.6,21.9-1.6c1.2,0,2.2-0.8,2.6-1.9c0.3-1.1-0.2-2.3-1.1-2.9c-7.7-6.5-13.6-14.4-18.7-23c-3.7-6.4-7-13-9.8-19.8
		c-1-2.4-2.7-3.1-5.1-2.2c-18.5,7.1-37.5,12.8-56.9,16.8c-7.9,1.6-15.8,2.7-23.9,3.2c-1.3,0.1-2.3,0.4-2.7,1.7
		c-0.4,1.3,0.4,2.1,1.5,2.7c3.3,2,6.5,4,9.9,5.9c19.8,10.9,41.6,17.7,64,20C243.6,428.1,249.7,428.2,255.8,428.6z M253.2,125.9
		c3.8,0,6.1-1.4,7.6-4.1c3.6-6.7,7.9-13,12.6-18.9c3.6-4.5,7.6-8.5,12.1-12.1c0.9-0.6,1.3-1.7,1-2.8c-0.2-1-1.1-1.8-2.1-2
		c-0.6-0.1-1.2-0.2-1.8-0.3c-6.9-0.7-13.7-1.5-20.6-1.9c-4.9-0.2-9.8-0.2-14.7,0.2c-6.6,0.5-13.1,1.1-19.6,2
		c-15.2,2.4-30.1,6.9-44.1,13.4c-9.6,4.4-18.7,9.7-27.3,15.8c-0.8,0.6-1.5,1.2-1.1,2.3c0.4,1,1.3,1.1,2.2,0.9
		c7.6-1.4,15.2-2.2,22.9-2.4c6.5-0.1,13,0.1,19.5,0.4c6.1,0.4,12.2,1,18.3,1.8c10.2,1.4,20.3,3.5,30.2,6.3
		C250.3,125.3,252,125.7,253.2,125.9z M309.5,418.5c2-0.3,4.1-0.5,6-1c6.4-1.6,11.6-5.1,16.3-9.5c8.2-7.7,14.1-17,19.1-27
		c0.7-1.3,0.2-3-1.1-3.7c-0.5-0.2-1-0.4-1.5-0.3c-3.3,0.1-6.6,0.4-9.9,0.4c-5.3,0-10.6-0.1-15.8-0.5c-5.4-0.3-10.9-0.7-16.2-1.6
		c-8-1.2-15.9-2.7-23.8-4.3c-4-0.8-8-2-12-3c-1.5-0.5-3.2-0.1-4.3,1.1c-1,1.2-1.2,2.9-0.4,4.2c3,5.9,5.7,12,8.9,17.8
		c4.2,7.9,10,14.8,17.1,20.4C297,415.7,302.7,418.3,309.5,418.5z M230.7,270.5c-6.8,2.7-49,32.1-51.7,36
		c18.6,13.4,38.6,24.6,59.7,33.6C233.7,317.2,231.1,293.9,230.7,270.5z M334,361.6c3.5-0.1,7-0.2,10.5-0.4c3.5-0.2,6.9-0.8,10.4-1
		c3.9-0.2,6-2.2,7.2-5.8c4.4-13.6,7.8-27.5,10.1-41.6c0.2-1,0.2-1.9-0.7-2.5c-0.9-0.5-1.7-0.1-2.5,0.5c-2.9,2.1-5.8,4.2-8.8,6.2
		c-20.2,13.8-41.3,26.3-63.1,37.4c-0.9,0.4-1.6,1-1.5,2c0.1,1.1,1,1.5,2,1.7C309.6,360.3,321.8,361.5,334,361.6z M419.4,301
		c-0.2-2.9-0.3-5.9-0.8-8.8c-0.8-4.6-1.7-9.1-2.9-13.6c-0.8-3-4.2-3.7-6.5-1.6c-4.9,4.6-9.9,9.2-14.8,13.8c-1.8,1.5-3,3.5-3.6,5.8
		c-0.5,2.2-0.8,4.5-1.1,6.8c-1.1,6.7-1.9,13.4-3.3,20c-1.6,8.1-3.7,16.1-5.6,24.1c-0.6,1.8,0.4,3.8,2.2,4.4c0.9,0.3,1.9,0.2,2.8-0.3
		c0.8-0.4,1.5-0.8,2.3-1.1c8.2-4.3,15.4-9.8,20.9-17.3C415.9,323.9,419.6,312.6,419.4,301z M412.9,195c2.3,0.1,3.5-1.5,2.8-3.7
		c-0.1-0.4-0.3-0.8-0.5-1.2c-7.2-17.3-17.2-33.3-29.6-47.4c-3.5-4-7.3-7.7-11-11.4c-0.5-0.4-1.2-0.5-1.9-0.3
		c-0.7,0.3-1.1,1.1-0.8,1.8c0,0.1,0,0.1,0.1,0.2c0.3,0.6,0.5,1.3,0.7,1.9c6.7,16.6,11.6,33.9,14.7,51.6c0.6,4.4,4.4,7.7,8.9,7.5
		c2.9,0,5.9,0.1,8.8,0.3C407.7,194.4,410.3,194.7,412.9,195L412.9,195z M400.3,209.8c-0.6,0-1.1,0-1.7,0c-1.3-0.2-2.5,0.5-3,1.7
		c-0.6,1.3,0,2.3,0.8,3.2c2,2.4,4.1,4.7,5.9,7.2c4,5.4,7.9,10.9,11.8,16.4c1.6,2.2,4.5,2.2,5.9-0.1c2.1-3.5,3.6-7.4,4.5-11.3
		c1.5-6.8-0.7-11.1-6.9-13.8c-0.1-0.1-0.2-0.1-0.4-0.1C411.8,210.6,406.1,210,400.3,209.8z M393,266.1l-0.2,0c0,0.1,0,0.3,0,0.4
		c0,0.9-0.1,1.8,0.9,2.2c1,0.4,1.7-0.1,2.3-0.8c2.7-2.8,5.4-5.5,8-8.3c2-2.1,2.2-3.6,0.7-6c-2.7-4.4-5.5-8.6-8.3-12.9
		c-0.6-0.9-1.3-1.4-2.3-1.1c-1,0.3-1.2,1.2-1.2,2.2C393,249.9,393,258,393,266.1L393,266.1z M369.9,385c0.4-0.2,0.7-0.4,1-0.6
		c0.9-0.8,1.9-1.6,2.7-2.5c2.7-2.6,5.4-5.2,8-7.9c0.4-0.5,0.6-1.2,0.4-1.9c-0.2-0.9-1-1.1-1.9-1c-0.2,0-0.3,0-0.5,0.1
		c-2.2,0.6-4.4,1.3-6.6,2c-0.5,0.2-1,0.5-1.3,1c-1.3,2.9-2.6,5.7-3.8,8.7C367.6,383.9,368.4,385,369.9,385z M428.5,258.8
		L428.5,258.8c-0.1-0.5-0.1-1-0.1-1.5c0-0.3-0.2-0.7-0.4-0.8c-0.3,0-0.6,0.1-0.9,0.3c-1.4,1.1-1.6,3.1-0.5,4.5
		c0,0.1,0.1,0.1,0.1,0.2c0.5,0.6,1.2,0.5,1.4-0.3C428.3,260.4,428.4,259.7,428.5,258.8L428.5,258.8z"/>
	<path class="a" d="M357.1,199.2c-3.6,0.9-7,1.7-10.3,2.6c-20.4,5.6-40.3,12.7-59.6,21.3c-9.6,4.3-19,9-28.6,13.3
		c-3.2,1.5-4.8,3.7-4.8,7.2c0,2.6-0.2,5.1-0.3,7.7c-0.1,3.3,2.2,4.8,5.2,3.2c15-7.9,30.4-15.1,46.1-21.5c17.3-7.2,35.1-13,53.3-17.6
		c5.9-1.5,9.3-6.7,8.5-13.2c-0.5-4-1.2-8-2-11.9c-0.9-4.6-3.5-8.7-7.3-11.5c-24.3-18.4-51.1-33.3-79.5-44.3
		c-3.1-1.2-3.9-3.6-2.3-6.4c4.5-7.9,9.6-15.2,16.2-21.5c3.8-3.7,8.3-6.6,13.2-8.6c8.4-3.3,16.4-2,23.9,2.8
		c6.6,4.2,11.7,9.9,16.1,16.2c6.8,9.7,11.7,20.3,15.8,31.3c5.1,14.1,8.9,28.6,11.3,43.4c1.1,6.8,2,13.6,2.8,20.5
		c0.7,6,1.2,11.9,1.6,17.9c0.3,4.9,0.4,9.8,0.5,14.7c0.1,2.2,0.2,4.4,0.2,6.6c0,5-0.1,10-0.3,15c-0.2,5.8-0.7,11.6-1,17.3
		c0,1.4-0.7,2.8-1.9,3.6c-22.6,17.7-46.8,33.3-72.1,46.8c-21.3,11.5-43.5,21.5-66.2,30c-16,6.1-32.4,10.8-49.1,14.2
		c-7,1.4-14.2,2.2-21.3,2.9c-4.5,0.4-8.9,0.5-13.4,0.2c-5-0.1-9.9-1.2-14.5-3.2c-6.1-2.9-8.1-7.1-6.6-13.6c1.5-6.4,4.7-12,8.3-17.4
		c5.1-7.2,10.8-14,17-20.2c2.5-2.3,2.7-6.1,0.4-8.6c-0.3-0.3-0.6-0.6-0.9-0.8c-0.9-0.8-1.8-1.5-2.8-2.2c-2.4-1.9-5.9-1.7-8.1,0.4
		c-9.1,9.2-17.5,19-23.8,30.5c-0.7,1.3-1.4,2.6-1.9,3.9c-0.5,1.5-1.7,2.5-3.2,2.8c-1.6,0.2-3.2-0.6-3.9-2.1
		c-5-7.6-9.4-15.6-13.2-23.9c-5.5-12.1-9.5-24.9-11.9-38c-1.1-6-1.9-12-2.4-18.1c-0.5-7.6-0.7-15.3-0.5-22.9
		c0.3-9.2,1.5-18.3,3.6-27.3c0.2-0.6,0.8-1.1,1.4-1.3c1-0.3,1.5,0.5,1.8,1.4c1.4,3.8,2.6,7.6,4.1,11.3c6,14.4,14.3,27.5,24,39.7
		c19.1,23.9,42.2,43.1,68,59.4c13.7,8.5,28,16.2,42.7,22.9c4,2,8.6,2.1,12.7,0.4c2.9-1.2,5.8-2.3,8.7-3.5c4-1.7,5.7-5.1,4.8-9.3
		c-1.6-7.9-3.2-15.7-4.6-23.7c-1-5.7-1.6-11.4-2.1-17.1c-0.7-7.5-1.1-14.9-1.6-22.4c-0.1-2.3-0.2-4.5-0.2-6.8
		c-0.1-4.1-0.3-8.3-0.2-12.4c0.2-7.2,0.3-14.5,0.8-21.7c0.6-8.5,1.4-17,2.6-25.5c2.3-18.1,6.4-35.9,12.1-53.1c1.2-3.4,0-5.7-3.4-6.8
		c-1.8-0.6-3.6-1.2-5.5-1.8c-2.4-1-5.1,0.2-6.1,2.6c-0.1,0.2-0.1,0.4-0.2,0.6c-3.7,10.9-6.7,22.1-9,33.4c-1.5,7.9-2.9,15.8-4.1,23.7
		c-0.7,4.9-1.2,9.8-1.6,14.7c-0.5,6.3-0.9,12.6-1.3,19c-0.1,4.7-2.8,9.1-6.9,11.3c-18.5,10.9-36.2,23-53.1,36.3
		c-3.3,2.6-8,2.5-11-0.3c-11.2-9.6-21.4-20.3-30.5-32c-8.6-11.1-15.9-23-21.2-36.1c-3-7.4-5.1-15.1-6-23
		c-1.2-10.9-0.1-21.6,4.9-31.5c4.7-9.2,11.8-17,20.7-22.4c9.3-5.8,19.5-9.3,30.2-11.5c6.2-1.3,12.5-2.1,18.8-2.3
		c6.4-0.2,12.8-0.5,19.2-0.2c17.3,0.9,34.4,3.8,50.9,8.7c37.1,10.6,71.9,28.2,102.4,51.8c2.1,1.6,4.1,3.3,6.2,4.9
		C356.2,198.3,356.5,198.6,357.1,199.2z"/>
	<path class="a" d="M255.8,428.6c-6.1-0.4-12.2-0.5-18.2-1.1c-22.5-2.3-44.2-9.1-64-20c-3.4-1.8-6.6-3.9-9.9-5.9
		c-1-0.6-1.8-1.4-1.5-2.7c0.4-1.3,1.4-1.6,2.7-1.7c8-0.5,16-1.6,23.9-3.2c19.4-4,38.4-9.6,56.9-16.8c2.4-0.9,4.1-0.2,5.1,2.2
		c2.8,6.8,6.1,13.4,9.8,19.8c5.1,8.6,11,16.5,18.7,23c1,0.6,1.4,1.8,1.1,2.9c-0.4,1.1-1.4,1.9-2.6,1.9
		C270.4,427.9,263.1,428.5,255.8,428.6z"/>
	<path class="a" d="M253.2,125.9c-1.1-0.3-2.9-0.6-4.7-1.1c-9.9-2.7-20-4.8-30.2-6.3c-6.1-0.8-12.2-1.5-18.3-1.8
		c-6.5-0.4-13-0.6-19.5-0.4c-7.7,0.2-15.4,1-22.9,2.4c-1,0.2-1.8,0.1-2.2-0.9c-0.4-1.1,0.3-1.7,1.1-2.3c8.6-6.1,17.7-11.4,27.3-15.8
		c14-6.5,28.8-11.1,44.1-13.4c6.5-1,13.1-1.6,19.6-2c4.9-0.4,9.8-0.4,14.7-0.2c6.9,0.4,13.7,1.2,20.6,1.9c0.6,0.1,1.2,0.2,1.8,0.3
		c1.1,0.1,1.9,0.9,2.1,2c0.3,1.1-0.1,2.2-1,2.8c-4.5,3.6-8.5,7.6-12.1,12.1c-4.8,5.9-9,12.3-12.6,18.9
		C259.3,124.6,257,125.9,253.2,125.9z"/>
	<path class="a" d="M309.5,418.5c-6.8-0.2-12.5-2.9-17.7-6.9c-7-5.6-12.8-12.5-17.1-20.4c-3.3-5.8-6-11.9-8.9-17.8
		c-0.8-1.3-0.7-3,0.4-4.2c1.1-1.2,2.8-1.7,4.3-1.1c4,1,8,2.2,12,3c7.9,1.6,15.9,3.1,23.8,4.3c5.4,0.8,10.8,1.2,16.2,1.6
		c5.3,0.3,10.6,0.4,15.8,0.5c3.3,0,6.6-0.3,9.9-0.4c1.5-0.1,2.8,1,3,2.5c0,0.5-0.1,1-0.3,1.5c-5,10-11,19.3-19.1,27
		c-4.7,4.4-9.9,8-16.3,9.5C313.6,418,311.5,418.2,309.5,418.5z"/>
	<path class="a" d="M230.7,270.5c0.3,23.4,3,46.8,8,69.7c-21.1-9-41.1-20.3-59.7-33.6C181.7,302.6,223.9,273.2,230.7,270.5z"/>
	<path class="a" d="M334,361.6c-12.2-0.1-24.4-1.3-36.4-3.5c-1-0.2-1.9-0.6-2-1.7c-0.1-1,0.6-1.5,1.5-2
		c21.8-11.1,42.9-23.6,63.1-37.4c2.9-2,5.9-4.1,8.8-6.2c0.8-0.5,1.5-1,2.5-0.5c1,0.6,0.9,1.4,0.7,2.5c-2.3,14.1-5.7,28-10.1,41.6
		c-1.2,3.6-3.3,5.6-7.2,5.8c-3.5,0.2-6.9,0.7-10.4,1C341,361.4,337.5,361.5,334,361.6z"/>
	<path class="a" d="M419.4,301c0.1,11.6-3.5,22.9-10.4,32.2c-5.5,7.5-12.7,13-20.9,17.3c-0.8,0.4-1.5,0.8-2.3,1.1
		c-1.7,0.9-3.8,0.3-4.7-1.3c-0.5-0.9-0.6-1.9-0.3-2.8c1.9-8,3.9-16,5.6-24.1c1.3-6.6,2.2-13.3,3.3-20c0.4-2.3,0.6-4.6,1.1-6.8
		c0.6-2.2,1.9-4.3,3.6-5.8c4.9-4.6,9.9-9.2,14.8-13.8c2.2-2.1,5.7-1.4,6.5,1.6c1.2,4.5,2.1,9,2.9,13.6
		C419.2,295.1,419.2,298.1,419.4,301z"/>
	<path class="a" d="M412.9,195c-2.6-0.2-5.2-0.6-7.9-0.7c-2.9-0.2-5.9-0.2-8.8-0.3c-4.5,0.2-8.3-3.1-8.9-7.5
		c-3.1-17.7-8-34.9-14.7-51.6c-0.3-0.6-0.5-1.3-0.7-1.9c-0.4-0.7-0.1-1.6,0.6-1.9c0.1,0,0.1-0.1,0.2-0.1c0.7-0.2,1.4-0.1,1.9,0.3
		c3.7,3.7,7.5,7.4,11,11.4c12.4,14,22.5,30,29.6,47.4c0.2,0.4,0.3,0.8,0.5,1.2C416.5,193.5,415.2,195.1,412.9,195z"/>
	<path class="a" d="M400.3,209.8c5.8,0.2,11.5,0.8,17,3c0.1,0,0.2,0.1,0.4,0.1c6.2,2.7,8.4,7,6.9,13.8c-0.9,4-2.4,7.8-4.5,11.3
		c-1.4,2.4-4.3,2.4-5.9,0.1c-3.9-5.5-7.8-11-11.8-16.4c-1.8-2.5-3.9-4.8-5.9-7.2c-0.8-1-1.5-1.9-0.8-3.2c0.5-1.2,1.8-1.8,3-1.7
		C399.2,209.8,399.7,209.8,400.3,209.8z"/>
	<path class="a" d="M393,266.1c0-8.1,0-16.2,0-24.3c0-1,0.1-1.8,1.2-2.2c1.1-0.4,1.8,0.2,2.3,1.1c2.8,4.3,5.6,8.6,8.3,12.9
		c1.5,2.4,1.2,3.9-0.7,6c-2.6,2.8-5.3,5.5-8,8.3c-0.7,0.7-1.4,1.2-2.3,0.8c-1-0.4-0.9-1.3-0.9-2.2c0-0.1,0-0.3,0-0.4L393,266.1z"/>
	<path class="a" d="M369.9,385c-1.5,0-2.3-1.1-1.8-2.3c1.2-2.9,2.5-5.8,3.8-8.7c0.3-0.5,0.7-0.8,1.3-1c2.2-0.7,4.4-1.3,6.6-2
		c0.2,0,0.3-0.1,0.5-0.1c0.8-0.1,1.7,0.1,1.9,1c0.1,0.7,0,1.4-0.4,1.9c-2.6,2.7-5.3,5.3-8,7.9c-0.9,0.9-1.8,1.7-2.7,2.5
		C370.6,384.6,370.2,384.8,369.9,385z"/>
	<path class="a" d="M428.5,258.8c-0.1,0.8-0.2,1.6-0.3,2.4c-0.2,0.8-0.9,0.9-1.4,0.3c-1.2-1.3-1.1-3.3,0.2-4.5
		c0.1-0.1,0.1-0.1,0.2-0.1c0.2-0.2,0.6-0.3,0.9-0.3c0.2,0.1,0.4,0.5,0.4,0.8C428.4,257.8,428.4,258.3,428.5,258.8L428.5,258.8z"/>
</g>
</svg>
