<svg width="826" height="826" viewBox="0 0 826 826" fill="none" xmlns="http://www.w3.org/2000/svg">
<path d="M79.5781 177.113V383.857L79.6421 375.655C81.0248 552.327 229.621 703.349 412.789 703.349C595.957 703.349 744.553 560.527 745.935 383.857L745.999 375.655V177.113C745.999 177.113 699.79 154.57 647.222 208.327C613.469 242.841 586.486 366.827 514.226 367.945C417.727 369.438 352.065 241.211 273.551 193.298C238.702 172.031 198.438 165.915 163.662 165.915C116.598 165.914 79.5781 177.113 79.5781 177.113Z" fill="url(#paint0_linear_280_74)"/>
<mask id="mask0_280_74" style="mask-type:luminance" maskUnits="userSpaceOnUse" x="79" y="165" width="667" height="539">
<path d="M79.5781 177.113V383.857L79.6421 375.655C81.0248 552.327 229.621 703.349 412.789 703.349C595.957 703.349 744.553 560.527 745.935 383.857L745.999 375.655V177.113C745.999 177.113 699.79 154.57 647.222 208.327C613.469 242.841 586.486 366.827 514.226 367.945C417.727 369.438 352.065 241.211 273.551 193.298C238.702 172.031 198.438 165.915 163.662 165.915C116.598 165.914 79.5781 177.113 79.5781 177.113Z" fill="white"/>
</mask>
<g mask="url(#mask0_280_74)">
<mask id="mask1_280_74" style="mask-type:luminance" maskUnits="userSpaceOnUse" x="-44189" y="-42724" width="87381" height="87381">
<path d="M-44188.7 -42723.3H43191.3V44656.7H-44188.7V-42723.3Z" fill="url(#paint1_linear_280_74)"/>
</mask>
<g mask="url(#mask1_280_74)">
<path d="M79.5781 177.112V383.856L79.6421 375.654C81.0248 552.326 229.621 703.348 412.789 703.348C595.957 703.348 744.553 560.526 745.935 383.856L745.999 375.654V177.112C745.999 177.112 699.79 154.569 647.222 208.326C613.469 242.84 586.486 366.826 514.226 367.944C417.727 369.437 352.065 241.21 273.551 193.297C238.702 172.03 198.438 165.914 163.662 165.914C116.598 165.913 79.5781 177.112 79.5781 177.112Z" fill="url(#paint2_linear_280_74)"/>
</g>
</g>
<path d="M79.333 256.88V404.251L79.397 395.478C80.7797 584.464 229.432 746.01 412.666 746.01C595.902 746.01 744.553 593.236 745.936 404.251L746 395.478V260.651C727.189 263.786 704.032 272.967 679.577 295.531C641.721 330.46 611.46 455.935 530.417 457.064C422.19 458.575 348.546 328.81 260.492 280.323C221.409 258.802 176.273 252.614 137.284 252.612C115.278 252.612 95.2343 254.583 79.333 256.88Z" fill="url(#paint3_linear_280_74)"/>
<mask id="mask2_280_74" style="mask-type:luminance" maskUnits="userSpaceOnUse" x="79" y="252" width="667" height="495">
<path d="M79.333 256.88V404.251L79.397 395.478C80.7797 584.464 229.432 746.01 412.666 746.01C595.902 746.01 744.553 593.236 745.936 404.251L746 395.478V260.651C727.189 263.786 704.032 272.967 679.577 295.531C641.721 330.46 611.46 455.935 530.417 457.064C422.19 458.575 348.546 328.81 260.492 280.323C221.409 258.802 176.273 252.614 137.284 252.612C115.278 252.612 95.2343 254.583 79.333 256.88Z" fill="white"/>
</mask>
<g mask="url(#mask2_280_74)">
<mask id="mask3_280_74" style="mask-type:luminance" maskUnits="userSpaceOnUse" x="-44189" y="-42724" width="87381" height="87381">
<path d="M-44188.7 -42723.3H43191.3V44656.7H-44188.7V-42723.3Z" fill="url(#paint4_linear_280_74)"/>
</mask>
<g mask="url(#mask3_280_74)">
<path d="M79.332 256.878V404.249L79.396 395.476C80.7787 584.463 229.431 746.008 412.665 746.008C595.901 746.008 744.552 593.234 745.935 404.249L745.999 395.476V260.649C727.188 263.784 704.031 272.965 679.576 295.529C641.72 330.458 611.459 455.933 530.416 457.062C422.189 458.573 348.545 328.808 260.491 280.321C221.408 258.8 176.272 252.612 137.283 252.61C115.277 252.61 95.2334 254.581 79.332 256.878Z" fill="url(#paint5_linear_280_74)"/>
</g>
</g>
<path d="M79.333 358.466V404.251L79.397 395.478C80.7797 584.464 229.432 746.01 412.666 746.01C595.902 746.01 744.553 593.236 745.936 404.251L746 395.478V371.683C731.59 377.17 715.897 385.98 699.684 399.879C658.933 434.808 626.357 560.283 539.117 561.414C422.616 562.923 343.338 433.158 248.549 384.67C206.484 363.152 157.902 356.967 115.929 356.967C102.972 356.966 90.6463 357.556 79.333 358.466Z" fill="url(#paint6_linear_280_74)"/>
<defs>
<linearGradient id="paint0_linear_280_74" x1="28.0207" y1="576.399" x2="879.619" y2="131.098" gradientUnits="userSpaceOnUse">
<stop stop-color="#FFA2FF"/>
<stop offset="0.285552" stop-color="#D7B3FF"/>
<stop offset="0.367148" stop-color="#D7B3FF"/>
<stop offset="0.889732" stop-color="#00FFE5"/>
<stop offset="1" stop-color="#00FFE5"/>
</linearGradient>
<linearGradient id="paint1_linear_280_74" x1="375.516" y1="436.834" x2="463.276" y2="115.046" gradientUnits="userSpaceOnUse">
<stop stop-color="white" stop-opacity="0.299992"/>
<stop offset="0.67422" stop-color="white" stop-opacity="0"/>
<stop offset="0.866878" stop-color="white" stop-opacity="0"/>
<stop offset="1" stop-color="white" stop-opacity="0"/>
</linearGradient>
<linearGradient id="paint2_linear_280_74" x1="375.513" y1="436.836" x2="463.273" y2="115.048" gradientUnits="userSpaceOnUse">
<stop stop-color="#16173E"/>
<stop offset="0.67422" stop-color="#16173E"/>
<stop offset="0.866878" stop-color="#16173E"/>
<stop offset="1" stop-color="#16173E"/>
</linearGradient>
<linearGradient id="paint3_linear_280_74" x1="56.264" y1="600.59" x2="820.103" y2="262.551" gradientUnits="userSpaceOnUse">
<stop stop-color="#FFA2FF"/>
<stop offset="0.285552" stop-color="#D7B3FF"/>
<stop offset="0.367148" stop-color="#D7B3FF"/>
<stop offset="0.889732" stop-color="#00FFE5"/>
<stop offset="1" stop-color="#00FFE5"/>
</linearGradient>
<linearGradient id="paint4_linear_280_74" x1="336.267" y1="527.165" x2="453.28" y2="286.637" gradientUnits="userSpaceOnUse">
<stop stop-color="white" stop-opacity="0.299992"/>
<stop offset="0.67422" stop-color="white" stop-opacity="0"/>
<stop offset="0.866878" stop-color="white" stop-opacity="0"/>
<stop offset="1" stop-color="white" stop-opacity="0"/>
</linearGradient>
<linearGradient id="paint5_linear_280_74" x1="336.264" y1="527.166" x2="453.277" y2="286.638" gradientUnits="userSpaceOnUse">
<stop stop-color="#16173E"/>
<stop offset="0.67422" stop-color="#16173E"/>
<stop offset="0.866878" stop-color="#16173E"/>
<stop offset="1" stop-color="#16173E"/>
</linearGradient>
<linearGradient id="paint6_linear_280_74" x1="23.5142" y1="649.196" x2="709.344" y2="385.916" gradientUnits="userSpaceOnUse">
<stop stop-color="#FFA2FF"/>
<stop offset="0.285552" stop-color="#D7B3FF"/>
<stop offset="0.367148" stop-color="#D7B3FF"/>
<stop offset="0.889732" stop-color="#00FFE5"/>
<stop offset="1" stop-color="#00FFE5"/>
</linearGradient>
</defs>
</svg>
