<?xml version="1.0" encoding="utf-8"?>
<!-- Generator: Adobe Illustrator 27.7.0, SVG Export Plug-In . SVG Version: 6.00 Build 0)  -->
<svg version="1.1" id="Layer_1" xmlns="http://www.w3.org/2000/svg" xmlns:xlink="http://www.w3.org/1999/xlink" x="0px" y="0px"
	 viewBox="0 0 500 481.3" style="enable-background:new 0 0 500 481.3;" xml:space="preserve">
<style type="text/css">
	.st0{fill:url(#SVGID_1_);}
	.st1{fill:url(#SVGID_00000164481576359517346090000006248879113389616288_);}
	.st2{fill:url(#SVGID_00000096747444081243465400000012364973980163148477_);}
	.st3{fill:url(#SVGID_00000170255916508504297680000006505137088839937409_);}
</style>
<g>
	
		<linearGradient id="SVGID_1_" gradientUnits="userSpaceOnUse" x1="336.1657" y1="934.5537" x2="336.1657" y2="842.472" gradientTransform="matrix(1 0 0 1 0 -578.7244)">
		<stop  offset="0" style="stop-color:#4E4BFC"/>
		<stop  offset="1" style="stop-color:#9D6CE7"/>
	</linearGradient>
	<path class="st0" d="M322.9,283.4c0,0,4.1,15.6,4.9,31.6c0.9,19.5-1.7,40.8-1.7,40.8s2.8,0.4,5.2-1.8
		c21.9-17.3,21.1-63.9,12.3-90.2C343.5,263.8,330.6,277.8,322.9,283.4z"/>
	
		<linearGradient id="SVGID_00000114755529306094970820000010315389454494270887_" gradientUnits="userSpaceOnUse" x1="251.8565" y1="861.1129" x2="251.8565" y2="790.2653" gradientTransform="matrix(1 0 0 1 0 -578.7244)">
		<stop  offset="0" style="stop-color:#4E4BFC"/>
		<stop  offset="1" style="stop-color:#9D6CE7"/>
	</linearGradient>
	<path style="fill:url(#SVGID_00000114755529306094970820000010315389454494270887_);" d="M243.3,259.7
		c28.8-23.2,50.5-38.6,50.5-38.6l-4.8-9.5c0,0-18.2,12.5-36.4,27.2c-18.2,14.5-42.8,35.7-42.8,35.7s3.1,2,4.6,3.7s2.9,4.2,2.9,4.2
		S230.8,269.8,243.3,259.7z"/>
	
		<linearGradient id="SVGID_00000175288426275088714570000009974034764059317139_" gradientUnits="userSpaceOnUse" x1="251.8636" y1="941.4127" x2="251.8636" y2="699.3111" gradientTransform="matrix(1 0 0 1 0 -578.7244)">
		<stop  offset="0" style="stop-color:#4E4BFC"/>
		<stop  offset="1" style="stop-color:#9D6CE7"/>
	</linearGradient>
	<path style="fill:url(#SVGID_00000175288426275088714570000009974034764059317139_);" d="M348.1,253.1
		c30.5-34.5,35.5-56.4,27.5-66.1c-4.4-5.5-19.7-7.6-33.1-3.5c-13.1,4.1-26.7,12.3-26.7,12.3l4.4,8.8c64.5-36.2,56.2,2.6,19.8,35.7
		c0,0-111.7,109.7-157.7,82.1c-45.9-27.8,1.8-126.8,23.2-158.4c50.7-71.5,107,96.1,107.5,94.6l0,0c0,0,19.7-17.8,20.2-18.2
		c-9.5-18-57.5-145.1-119.4-115.3c-20.4,9.9-39.7,44.1-39.7,44.1s-89.9,151.4-27.6,186.3C208.8,390.6,317.4,287.7,348.1,253.1z"/>
	
		<linearGradient id="SVGID_00000089565910824232101750000013472284761541105837_" gradientUnits="userSpaceOnUse" x1="201.5182" y1="885.4137" x2="201.5182" y2="853.8619" gradientTransform="matrix(1 0 0 1 0 -578.7244)">
		<stop  offset="0" style="stop-color:#4E4BFC"/>
		<stop  offset="1" style="stop-color:#9D6CE7"/>
	</linearGradient>
	<path style="fill:url(#SVGID_00000089565910824232101750000013472284761541105837_);" d="M201.5,275.2c-20.9,0.7-20.9,30.9,0,31.6
		c8.8,0,15.8-7.2,15.8-15.8C217.3,282.3,210.1,275.2,201.5,275.2z"/>
</g>
</svg>
