<svg width="25" height="32" viewBox="0 0 25 32" fill="none" xmlns="http://www.w3.org/2000/svg"
  style="background-color:black">
  <path
    d="M21.8351 18.3142C21.7954 18.6953 21.7317 19.0707 21.6449 19.4387C21.4216 20.3979 21.0462 21.3058 20.541 22.131C19.6488 23.5838 18.3515 24.7786 16.7639 25.5336C14.0013 26.8475 12.8081 28.1465 12.2268 31.9898C12.0896 31.9964 11.9506 31.9989 11.8117 31.9989C9.74619 31.9989 7.82288 31.3903 6.21875 30.3443C6.22702 30.3493 6.23611 30.3543 6.24438 30.3592C9.56841 28.665 9.35922 26.1058 8.81348 23.9204L8.96066 24.1205C9.01606 24.1907 9.0756 24.2552 9.13431 24.3214L9.22195 24.4198C9.25172 24.452 9.28397 24.4801 9.31704 24.5116C9.37989 24.5719 9.44521 24.6323 9.51053 24.691C9.57586 24.7497 9.65028 24.7985 9.72056 24.8514C9.73214 24.8589 9.74371 24.8671 9.75611 24.8754C9.80986 24.9159 9.9033 24.9738 9.96201 25.0069C10.0315 25.0466 10.1009 25.0854 10.1712 25.1201C10.115 25.0515 10.0563 24.9862 9.99922 24.9234C9.97027 24.8911 9.94133 24.8605 9.91239 24.8299L9.83136 24.7307C9.77679 24.6654 9.72139 24.6017 9.66599 24.538C9.61058 24.4744 9.56345 24.4032 9.51219 24.3379C9.48573 24.3049 9.45844 24.2726 9.43446 24.2387L9.36087 24.1362C9.31374 24.0675 9.25999 24.003 9.21534 23.9328L9.0756 23.7244C9.02764 23.6558 8.9863 23.583 8.94082 23.5127C8.76469 23.2283 8.59849 22.9364 8.44139 22.637L8.32976 22.4212C7.93947 21.7415 7.61369 21.0643 7.35735 20.359C7.24242 20.0407 7.14071 19.7174 7.05307 19.3841C6.59415 17.6394 6.52056 16.2304 6.6603 15.1017C7.04893 11.9696 9.08139 10.9922 9.08139 10.9922C9.0756 12.7385 9.42702 13.8714 10.005 14.661C10.9766 15.9906 12.5873 16.347 14.2014 17.016C15.5599 17.5782 16.1073 18.7499 16.3207 19.7298C16.5117 20.6062 16.4364 21.3298 16.4364 21.3298C16.4364 21.3298 16.4389 21.3198 16.4406 21.3149C16.4315 21.4224 16.4207 21.5307 16.4075 21.6382C16.3868 21.8284 16.3546 22.021 16.3165 22.2145C16.4191 22.0442 16.5026 21.8639 16.5654 21.6754C16.6307 21.4869 16.6812 21.2934 16.7159 21.0966C16.7597 20.8518 16.7812 20.6038 16.7788 20.3557C16.7788 20.1118 16.7936 19.8951 16.8201 19.7025C16.9631 18.6771 17.451 18.3282 17.9231 18.2124C18.1216 18.1628 18.3167 18.1546 18.4821 18.1546C20.1094 18.1546 20.9206 16.9845 21.3108 16.0262C21.377 15.865 21.4307 15.7095 21.4746 15.5673C21.6118 15.1224 21.6515 14.7999 21.6515 14.7999C21.6515 14.7999 21.7656 15.2969 21.8367 16.0535C21.8433 16.1221 21.8491 16.194 21.8549 16.2668C21.8996 16.8531 21.9136 17.5667 21.8351 18.3142Z"
    fill="white" />
  <path
    d="M24.5589 21.9626C24.4332 22.6423 24.2761 23.1558 24.0959 23.5328C22.4777 28.4502 17.6826 32 12.2244 32C12.2253 31.9967 12.2253 31.9942 12.2261 31.9909C12.8074 28.1476 14.0006 26.8486 16.7632 25.5347C18.3508 24.7797 19.6481 23.5849 20.5403 22.1321C21.0455 21.3069 21.4209 20.399 21.6442 19.4398C21.731 19.0718 21.7947 18.6964 21.8344 18.3152C21.9129 17.5678 21.8989 16.8542 21.8542 16.2679C21.8484 16.1951 21.8426 16.1232 21.836 16.0546C21.7649 15.298 21.6508 14.801 21.6508 14.801C21.6508 14.801 21.6111 15.1235 21.4739 15.5684C21.43 15.7106 21.3763 15.866 21.3101 16.0273C20.9198 16.9856 20.1087 18.1557 18.4814 18.1557C18.316 18.1557 18.1209 18.1639 17.9224 18.2135C17.4503 18.3293 16.9624 18.6782 16.8194 19.7036C16.7929 19.8962 16.778 20.1129 16.778 20.3568C16.7805 20.6049 16.759 20.8529 16.7152 21.0977C16.6805 21.2945 16.63 21.488 16.5647 21.6765C16.5019 21.865 16.4184 22.0453 16.3158 22.2156C16.3539 22.0221 16.3861 21.8295 16.4068 21.6393C16.42 21.5318 16.4308 21.4235 16.4398 21.316C16.4382 21.3209 16.4357 21.3309 16.4357 21.3309C16.4357 21.3309 16.511 20.6073 16.32 19.7309C16.1066 18.751 15.5592 17.5793 14.2007 17.0171C12.5866 16.3481 10.9759 15.9917 10.0043 14.6621C9.42631 13.8725 9.07489 12.7396 9.08068 10.9933C9.08068 10.9933 7.04822 11.9706 6.65959 15.1028C6.51985 16.2315 6.59344 17.6405 7.05235 19.3852C7.14 19.7185 7.24171 20.0418 7.35664 20.3601C7.61298 21.0654 7.93876 21.7426 8.32905 22.4223L8.44068 22.6381C8.59778 22.9375 8.76398 23.2294 8.94011 23.5138C8.98559 23.5841 9.02693 23.6568 9.07489 23.7255L9.21463 23.9339C9.25928 24.0041 9.31303 24.0686 9.36016 24.1373L9.43375 24.2398C9.45773 24.2737 9.48502 24.3059 9.51148 24.339C9.56274 24.4043 9.60987 24.4755 9.66527 24.5391C9.72068 24.6028 9.77608 24.6665 9.83065 24.7318L9.91168 24.831C9.94062 24.8616 9.96956 24.8922 9.9985 24.9244C10.0556 24.9873 10.1143 25.0526 10.1705 25.1212C10.1002 25.0865 10.0308 25.0476 9.9613 25.008C9.90259 24.9749 9.80915 24.917 9.7554 24.8765C9.743 24.8682 9.73142 24.8599 9.71985 24.8525C9.64956 24.7996 9.57515 24.7508 9.50982 24.6921C9.4445 24.6334 9.37918 24.573 9.31633 24.5127C9.28326 24.4812 9.25101 24.4531 9.22124 24.4209L9.1336 24.3225C9.07489 24.2563 9.01535 24.1918 8.95995 24.1216L8.81277 23.9214C9.35851 26.1069 9.5677 28.666 6.24367 30.3603C6.2354 30.3554 6.22631 30.3504 6.21804 30.3454C4.14093 29.1398 2.4475 27.3455 1.36843 25.1907C1.36843 25.1907 1.36677 25.1882 1.36429 25.1833C1.25515 24.9658 1.15261 24.745 1.0567 24.5201C1.05504 24.5151 1.05339 24.5102 1.05091 24.5052C0.745791 23.7594 0.302587 22.4265 0.104137 20.6098C-0.186922 17.9638 0.0412949 14.2933 1.97122 9.92248C1.97122 9.92248 1.80584 12.1187 2.96347 14.5761C2.96347 14.5761 1.97122 4.71318 10.9014 0C10.9014 0 8.50352 7.1938 15.6973 10.9974C17.127 11.7532 18.2887 12.5387 19.2322 13.3118C19.8945 11.7242 20.4246 9.38171 20.4246 5.95349C20.4246 5.95349 25.7124 15.7156 24.5589 21.9626Z"
    fill="#3CCD64" />
</svg>