<svg width="469" height="469" viewBox="0 0 469 469" fill="none" xmlns="http://www.w3.org/2000/svg">
<g clip-path="url(#clip0_5265_648)">
<path d="M234.27 468.54C363.654 468.54 468.54 363.654 468.54 234.27C468.54 104.886 363.654 0 234.27 0C104.886 0 0 104.886 0 234.27C0 363.654 104.886 468.54 234.27 468.54Z" fill="#9DE5B5"/>
<path d="M160.33 88.1406H143.82V167.341H160.33V88.1406Z" fill="#1A5623"/>
<path d="M287.22 88.1406H160.33V167.341H287.22V88.1406Z" fill="#38821F"/>
<path d="M207.02 167.34H143.82V183.51H207.02V167.34Z" fill="#4D242C"/>
<path d="M224.01 167.34H207.5V183.51H224.01V167.34Z" fill="#F2D55F"/>
<path d="M112.15 199.68H95.6396V215.85H112.15V199.68Z" fill="#1A5623"/>
<path d="M95.6399 199.68H79.1299V215.85H95.6399V199.68Z" fill="#0F1A38"/>
<path d="M143.82 296.131H127.31V312.301H143.82V296.131Z" fill="#0F1A38"/>
<path d="M160.33 296.131H143.82V312.301H160.33V296.131Z" fill="#DA7219"/>
<path d="M193.35 328.881H176.84V345.881H193.35V328.881Z" fill="#D7AD83"/>
<path d="M143.82 232.02H127.31V296.13H143.82V232.02Z" fill="#DA7219"/>
<path d="M160.33 312.301H143.82V328.471H160.33V312.301Z" fill="#0F1A38"/>
<path d="M193.35 345.881H176.84V361.641H193.35V345.881Z" fill="#0F1A38"/>
<path d="M320.23 345.881H303.72V361.641H320.23V345.881Z" fill="#0F1A38"/>
<path d="M386.27 329.5H369.76V345.26H386.27V329.5Z" fill="#EE9E2F"/>
<path d="M386.27 296.949H369.76V312.709H386.27V296.949Z" fill="#C5D0CC"/>
<path d="M386.27 265.439H369.76V281.199H386.27V265.439Z" fill="#C5D0CC"/>
<path d="M386.27 231.98H369.76V247.74H386.27V231.98Z" fill="#C5D0CC"/>
<path d="M404.11 199.68H351.9V231.82H404.11V199.68Z" fill="#C5D0CC"/>
<path d="M160.33 262.961H143.82V296.131H160.33V262.961Z" fill="#0F1A38"/>
<path d="M176.84 328.471H160.33V361.641H176.84V328.471Z" fill="#0F1A38"/>
<path d="M303.72 328.881H193.34V345.881H303.72V328.881Z" fill="#0F1A38"/>
<path d="M369.75 328.881H303.72V345.881H369.75V328.881Z" fill="#EBEDE8"/>
<path d="M303.72 361.641H193.34V378.641H303.72V361.641Z" fill="#0F1A38"/>
<path d="M303.72 345.881H193.34V361.641H303.72V345.881Z" fill="#D7AD83"/>
<path d="M336.74 296.949H320.23V328.879H336.74V296.949Z" fill="#D7AD83"/>
<path d="M127.94 232.02H111.43V296.54H127.94V232.02Z" fill="#0F1A38"/>
<path d="M176.84 232.02H160.33V328.47H176.84V232.02Z" fill="#EE9E2F"/>
<path d="M160.33 232.02H143.82V263.37H160.33V232.02Z" fill="#EE9E2F"/>
<path d="M320.24 232.02H176.84V328.88H320.24V232.02Z" fill="#D7AD83"/>
<path d="M143.82 88.1406H127.31V183.511H143.82V88.1406Z" fill="#0F1A38"/>
<path d="M303.72 88.1406H287.21V183.511H303.72V88.1406Z" fill="#0F1A38"/>
<path d="M351.91 199.68H335.4V215.85H351.91V199.68Z" fill="#0F1A38"/>
<path d="M287.21 167.34H224.01V183.51H287.21V167.34Z" fill="#4D242C"/>
<path d="M287.22 71.9707H143.82V88.1407H287.22V71.9707Z" fill="#0F1A38"/>
<path d="M335.4 183.51H95.6396V199.68H335.4V183.51Z" fill="#0F1A38"/>
<path d="M335.4 215.85H95.6396V232.02H335.4V215.85Z" fill="#0F1A38"/>
<path d="M335.4 199.68H111.43V215.85H335.4V199.68Z" fill="#38821F"/>
<path d="M240.28 248.029H223.77V281.199H240.28V248.029Z" fill="#0F1A38"/>
<path d="M287.22 248.029H270.71V281.199H287.22V248.029Z" fill="#0F1A38"/>
<path d="M209.85 280.449H193.34V296.619H209.85V280.449Z" fill="#0F1A38"/>
<path d="M193.35 295.721H176.84V328.891H193.35V295.721Z" fill="#0F1A38"/>
<path d="M193.35 232.02H176.84V247.7H193.35V232.02Z" fill="#EE9E2F"/>
<path d="M336.74 281.199H320.23V296.959H336.74V281.199Z" fill="#0F1A38"/>
<path d="M353.25 296.949H336.74V328.879H353.25V296.949Z" fill="#0F1A38"/>
<path d="M320.23 232.02H303.72V281.19H320.23V232.02Z" fill="#0F1A38"/>
</g>
<defs>
<clipPath id="clip0_5265_648">
<rect width="468.55" height="468.55" fill="white"/>
</clipPath>
</defs>
</svg>
