<svg width="511" height="510" viewBox="0 0 511 510" fill="none" xmlns="http://www.w3.org/2000/svg">
<path d="M508.469 119.062C508.469 119.062 502.164 145.013 458.012 145.013C443.199 145.013 438.146 149.419 434.787 153.425C432.364 156.303 430.795 158.987 427.119 159.689C421.254 158.56 420.772 152.434 413.627 148.469C410.034 146.473 404.747 145.013 396.226 145.013C352.075 145.013 342.947 119.062 342.947 119.062C333.007 156.895 364.465 184.195 384.166 197.976C394.064 204.9 397.726 217.841 392.908 228.924C369.958 281.721 343.635 298.186 307.882 298.186C301.398 298.186 294.693 297.677 287.727 296.81C285.827 296.576 283.914 296.3 281.972 296.011C280.678 295.818 279.384 295.612 278.076 295.392C276.768 295.171 275.461 294.951 274.125 294.717C262.203 292.583 249.606 289.678 236.266 286.567C234.958 286.264 233.636 285.947 232.314 285.644C212.669 281.046 191.44 276.131 168.463 272.648C166.191 272.304 163.947 271.987 161.744 271.685C161.194 271.602 160.643 271.533 160.092 271.464C159.005 271.327 157.917 271.189 156.829 271.065C156.292 270.996 155.756 270.941 155.219 270.872C154.145 270.748 153.085 270.638 152.025 270.514C149.918 270.294 147.839 270.088 145.788 269.909C136.592 269.11 128.029 268.738 120.071 268.738C104.611 268.738 91.4219 270.129 80.243 272.345C79.059 272.579 77.9163 272.814 76.7874 273.061C75.6585 273.309 74.5434 273.571 73.4558 273.846C71.8175 274.245 70.2343 274.658 68.6924 275.099C67.6736 275.388 66.6549 275.677 65.6774 275.98C64.6862 276.283 63.7225 276.586 62.7863 276.902C61.8364 277.219 60.914 277.536 60.0053 277.852C59.551 278.017 59.1105 278.169 58.6699 278.348C57.7888 278.678 56.9215 279.009 56.0817 279.339C55.6549 279.504 55.2419 279.67 54.8289 279.849C54.0029 280.193 53.1906 280.537 52.4059 280.881C52.0204 281.06 51.6212 281.239 51.2357 281.404C50.4647 281.762 49.7213 282.106 48.9917 282.45C42.7827 285.452 37.8954 288.591 34.1232 291.454C33.6826 291.785 33.2558 292.115 32.8428 292.445C32.1545 292.996 31.4937 293.547 30.8879 294.07C30.7778 294.18 30.6676 294.263 30.5575 294.359C30.5437 294.373 30.5162 294.387 30.5024 294.4C30.4611 294.428 30.4336 294.469 30.3923 294.497C30.3097 294.566 30.2409 294.634 30.1583 294.703C29.938 294.91 29.7039 295.102 29.4974 295.295C26.152 298.324 23.8116 300.94 21.9531 304.203C19.1446 309.117 18.2222 312.518 18.2222 312.518C29.2083 337.574 44.9028 360.62 64.8101 380.541C64.9202 380.651 65.0441 380.761 65.1542 380.872C65.1542 380.872 65.168 380.885 65.1818 380.899C65.2919 381.023 65.402 381.133 65.5122 381.243C105.822 421.581 158.881 444.544 215.587 446.417C219.704 455.544 228.005 467.976 242.364 466.393C242.364 466.393 251.506 491.793 276.273 486.149C276.273 486.149 278.434 510.31 332.856 509.966C332.856 509.966 298.231 491.6 298.052 459.881C297.997 450.863 296.455 442.7 293.289 435.32C325.38 424.706 354.814 406.767 379.54 382.345C379.912 381.973 380.283 381.615 380.655 381.243C394.918 366.98 407.005 351.107 416.766 334.05C433.851 304.175 443.763 270.625 445.608 235.587C445.636 235.105 445.663 234.624 445.677 234.142C446.173 230.452 446.558 227.107 446.875 224.161C447.673 216.589 451.914 209.857 458.288 205.699C481.086 190.83 521.589 154.141 508.428 119.076H508.441L508.469 119.062Z" fill="#141414"/>
<path d="M18.499 223.548C18.499 168.852 39.783 117.445 78.4272 78.7598C89.4134 67.7598 101.446 58.1642 114.277 50.0691C156.211 23.6087 211.803 51.9552 213.248 101.517C213.276 102.467 213.29 103.43 213.29 104.408V258.792L232.88 262.399V104.408C232.88 103.417 232.894 102.439 232.922 101.462C234.409 51.9139 289.945 23.5812 331.893 50.014C344.752 58.1229 356.798 67.7323 367.812 78.746C381.482 92.4305 392.978 107.712 402.133 124.164C410.325 124.742 417.222 126.573 423.114 129.684C424.229 130.276 425.262 130.896 426.226 131.529C415.294 107.382 399.972 85.1615 380.684 65.86C358.368 43.5297 332.141 26.5136 303.561 15.4586C302.129 14.9079 300.697 14.371 299.265 13.8479C295.466 12.4711 291.625 11.1908 287.742 10.0206C280.308 7.77656 272.764 5.93177 265.095 4.47245C254.426 2.44869 243.55 1.19588 232.536 0.755335C229.411 0.617664 226.272 0.548828 223.119 0.548828C219.967 0.548828 216.787 0.617664 213.634 0.755335C202.662 1.20965 191.841 2.44869 181.226 4.45869C173.544 5.90423 165.972 7.76279 158.538 10.0068C154.628 11.177 150.76 12.4574 146.932 13.8616C145.501 14.3848 144.055 14.9217 142.637 15.4724C114.07 26.5274 87.8577 43.5297 65.5412 65.86C23.469 107.987 0.285156 163.992 0.285156 223.548C0.285156 245.053 3.30015 266.075 9.15117 286.175C10.9409 284.055 13.4327 281.412 16.7368 278.52C19.1323 276.428 21.6655 274.432 24.3638 272.532C20.4953 256.686 18.499 240.275 18.499 223.562V223.548Z" fill="#3CCD64"/>
</svg>
