<svg width="187" height="187" viewBox="0 0 187 187" fill="none" xmlns="http://www.w3.org/2000/svg">
<path d="M133.128 110.993C128.734 114.964 123.959 118.098 118.548 120.84L117.415 121.486C115.827 122.344 114.239 123.169 112.619 123.921C112.227 124.101 111.825 124.313 111.412 124.472L110.184 125.001C109.771 125.181 109.348 125.308 108.945 125.478L108.321 125.721C108.109 125.795 107.897 125.869 107.685 125.933C107.251 126.081 106.828 126.261 106.404 126.378C105.981 126.483 105.536 126.621 105.112 126.748L104.456 126.949C104.244 126.992 104.032 127.045 103.8 127.108C103.365 127.225 102.921 127.341 102.465 127.489C102.921 127.532 103.376 127.563 103.852 127.595C104.085 127.616 104.329 127.638 104.551 127.638C104.784 127.616 105.028 127.595 105.261 127.595C105.737 127.563 106.214 127.563 106.669 127.5C107.145 127.436 107.601 127.352 108.056 127.278C108.289 127.225 108.511 127.193 108.744 127.14L109.432 126.96C109.888 126.833 110.332 126.716 110.787 126.568L112.037 126.113C102.264 135.165 99.5326 145.065 103.471 167.268C99.9985 167.765 96.4304 168.03 92.8411 168.03C83.9473 168.03 75.2759 166.474 67.0704 163.414C82.1474 129.893 60.6224 120.883 43.269 95.0376C24.6026 67.2552 51.4745 37.9058 52.7451 36.5505C52.2051 37.3764 45.9053 47.6889 62.147 57.165C77.3511 66.027 89.3895 71.7127 87.1343 86.4509C86.3931 87.5626 85.7579 88.7379 85.2285 89.9661C84.805 90.9508 84.4662 91.9672 84.2015 93.0154C83.9368 94.0424 83.778 95.1012 83.725 96.1705C84.1379 95.1859 84.5509 94.2224 85.0167 93.3118C85.2708 92.8036 85.5249 92.3166 85.7896 91.8295C85.7896 91.8295 85.7896 91.8189 85.8002 91.8084C86.1708 91.1202 94.1752 76.3078 108.384 79.103C122.921 81.9511 135.097 88.3356 148.777 67.2976C149.084 67.8375 159.756 86.9274 133.128 110.993Z" fill="white"/>
<path d="M164.553 44.5126L162.117 53.4594L159.534 49.5842C144.626 27.2122 119.681 13.8503 92.8201 13.8503C48.6371 13.8503 12.6809 49.796 12.6809 93.9895C12.6809 97.2506 12.8715 100.501 13.2527 103.635C13.6126 106.695 14.1526 109.723 14.8514 112.645L24.2428 109.755L17.8372 137.813C16.2596 135.123 14.8197 132.339 13.5385 129.469C8.69989 118.649 6 106.631 6 94.0001C6 48.9595 40.241 11.9022 84.1063 7.44469C86.298 7.22234 88.5215 7.0847 90.7555 7.03176C91.5072 7.01059 92.2484 7 93.0001 7C93.8048 7 94.62 7.01059 95.4247 7.04235C96.2717 7.06353 97.1188 7.10588 97.9658 7.14823C98.654 7.19058 99.3422 7.24352 100.02 7.29646C100.168 7.30705 100.306 7.31763 100.454 7.32822C101.216 7.39175 101.968 7.46586 102.72 7.55057C102.773 7.56115 102.826 7.56115 102.879 7.57174C128.438 10.4516 150.63 24.3958 164.553 44.5126Z" fill="#3CCD64"/>
<path d="M180 94.0001C180 141.349 142.18 179.867 95.0856 180.968C94.3974 180.99 93.688 181 92.9998 181C92.248 181 91.5069 180.99 90.7552 180.968C90.0034 180.947 89.2623 180.926 88.5211 180.884C87.78 180.852 87.0494 180.81 86.2977 180.746C85.5671 180.693 84.8366 180.619 84.106 180.555C60.3258 178.141 39.3619 166.135 25.1742 148.474C24.5919 147.754 24.0201 147.013 23.459 146.272L25.4495 137.611L28.1812 141.349C37.2761 153.758 49.6532 163.244 63.9574 168.771L64.1374 168.845C73.2323 172.361 82.899 174.139 92.841 174.139C96.9173 174.139 100.93 173.843 104.763 173.25L105.07 173.218C123.747 170.359 140.952 160.852 153.435 146.452C166.045 131.894 172.991 113.259 172.991 93.9789C172.991 91.7449 172.885 89.3626 172.684 86.9274C172.43 83.9099 171.995 80.8606 171.371 77.8431L162.445 80.2041L169.825 53.1628C169.931 53.3534 170.037 53.544 170.132 53.7346C171.244 55.8416 172.26 58.0015 173.202 60.2143C175.32 65.233 176.972 70.4845 178.105 75.9267C179.354 81.75 180 87.8062 180 94.0001Z" fill="#3CCD64"/>
</svg>
