<svg width="291" height="57" viewBox="0 0 291 57" fill="none" xmlns="http://www.w3.org/2000/svg">
<path d="M76.252 18.206H79.15C79.462 18.206 79.72 18.284 79.924 18.44C80.128 18.596 80.266 18.794 80.338 19.034L85.666 36.962C85.762 37.286 85.846 37.634 85.918 38.006C86.002 38.378 86.08 38.768 86.152 39.176C86.236 38.768 86.32 38.378 86.404 38.006C86.488 37.622 86.584 37.274 86.692 36.962L92.758 19.034C92.83 18.83 92.968 18.644 93.172 18.476C93.388 18.296 93.646 18.206 93.946 18.206H94.954C95.266 18.206 95.518 18.284 95.71 18.44C95.914 18.596 96.058 18.794 96.142 19.034L102.172 36.962C102.388 37.586 102.58 38.3 102.748 39.104C102.82 38.708 102.886 38.33 102.946 37.97C103.006 37.61 103.084 37.274 103.18 36.962L108.526 19.034C108.586 18.818 108.718 18.626 108.922 18.458C109.138 18.29 109.396 18.206 109.696 18.206H112.414L104.368 44H101.236L94.702 24.326C94.57 23.954 94.45 23.522 94.342 23.03C94.282 23.27 94.222 23.504 94.162 23.732C94.114 23.948 94.06 24.146 94 24.326L87.43 44H84.298L76.252 18.206ZM115.584 44V17.486H118.788V28.214C119.568 27.386 120.432 26.726 121.38 26.234C122.328 25.73 123.42 25.478 124.656 25.478C125.652 25.478 126.528 25.646 127.284 25.982C128.052 26.306 128.688 26.774 129.192 27.386C129.708 27.986 130.098 28.712 130.362 29.564C130.626 30.416 130.758 31.358 130.758 32.39V44H127.554V32.39C127.554 31.01 127.236 29.942 126.6 29.186C125.976 28.418 125.016 28.034 123.72 28.034C122.772 28.034 121.884 28.262 121.056 28.718C120.24 29.174 119.484 29.792 118.788 30.572V44H115.584ZM139.44 25.766V44H136.236V25.766H139.44ZM140.16 20.042C140.16 20.354 140.094 20.648 139.962 20.924C139.842 21.188 139.674 21.428 139.458 21.644C139.254 21.848 139.014 22.01 138.738 22.13C138.462 22.25 138.168 22.31 137.856 22.31C137.544 22.31 137.25 22.25 136.974 22.13C136.71 22.01 136.47 21.848 136.254 21.644C136.05 21.428 135.888 21.188 135.768 20.924C135.648 20.648 135.588 20.354 135.588 20.042C135.588 19.73 135.648 19.436 135.768 19.16C135.888 18.872 136.05 18.626 136.254 18.422C136.47 18.206 136.71 18.038 136.974 17.918C137.25 17.798 137.544 17.738 137.856 17.738C138.168 17.738 138.462 17.798 138.738 17.918C139.014 18.038 139.254 18.206 139.458 18.422C139.674 18.626 139.842 18.872 139.962 19.16C140.094 19.436 140.16 19.73 140.16 20.042ZM150.901 44.288C149.461 44.288 148.351 43.886 147.571 43.082C146.803 42.278 146.419 41.12 146.419 39.608V28.448H144.223C144.031 28.448 143.869 28.394 143.737 28.286C143.605 28.166 143.539 27.986 143.539 27.746V26.468L146.527 26.09L147.265 20.456C147.289 20.276 147.367 20.132 147.499 20.024C147.631 19.904 147.799 19.844 148.003 19.844H149.623V26.126H154.843V28.448H149.623V39.392C149.623 40.16 149.809 40.73 150.181 41.102C150.553 41.474 151.033 41.66 151.621 41.66C151.957 41.66 152.245 41.618 152.485 41.534C152.737 41.438 152.953 41.336 153.133 41.228C153.313 41.12 153.463 41.024 153.583 40.94C153.715 40.844 153.829 40.796 153.925 40.796C154.093 40.796 154.243 40.898 154.375 41.102L155.311 42.632C154.759 43.148 154.093 43.556 153.313 43.856C152.533 44.144 151.729 44.288 150.901 44.288ZM166.311 25.478C167.403 25.478 168.411 25.664 169.335 26.036C170.259 26.396 171.057 26.924 171.729 27.62C172.401 28.304 172.923 29.156 173.295 30.176C173.679 31.184 173.871 32.336 173.871 33.632C173.871 34.136 173.817 34.472 173.709 34.64C173.601 34.808 173.397 34.892 173.097 34.892H160.965C160.989 36.044 161.145 37.046 161.433 37.898C161.721 38.75 162.117 39.464 162.621 40.04C163.125 40.604 163.725 41.03 164.421 41.318C165.117 41.594 165.897 41.732 166.761 41.732C167.565 41.732 168.255 41.642 168.831 41.462C169.419 41.27 169.923 41.066 170.343 40.85C170.763 40.634 171.111 40.436 171.387 40.256C171.675 40.064 171.921 39.968 172.125 39.968C172.389 39.968 172.593 40.07 172.737 40.274L173.637 41.444C173.241 41.924 172.767 42.344 172.215 42.704C171.663 43.052 171.069 43.34 170.433 43.568C169.809 43.796 169.161 43.964 168.489 44.072C167.817 44.192 167.151 44.252 166.491 44.252C165.231 44.252 164.067 44.042 162.999 43.622C161.943 43.19 161.025 42.566 160.245 41.75C159.477 40.922 158.877 39.902 158.445 38.69C158.013 37.478 157.797 36.086 157.797 34.514C157.797 33.242 157.989 32.054 158.373 30.95C158.769 29.846 159.333 28.892 160.065 28.088C160.797 27.272 161.691 26.636 162.747 26.18C163.803 25.712 164.991 25.478 166.311 25.478ZM166.383 27.836C164.835 27.836 163.617 28.286 162.729 29.186C161.841 30.074 161.289 31.31 161.073 32.894H170.991C170.991 32.15 170.889 31.472 170.685 30.86C170.481 30.236 170.181 29.702 169.785 29.258C169.389 28.802 168.903 28.454 168.327 28.214C167.763 27.962 167.115 27.836 166.383 27.836ZM183.096 17.972H187.164C187.584 17.972 187.932 18.074 188.208 18.278C188.496 18.47 188.688 18.734 188.784 19.07L193.212 34.64C193.32 35.024 193.416 35.444 193.5 35.9C193.596 36.344 193.686 36.818 193.77 37.322C193.866 36.818 193.968 36.344 194.076 35.9C194.196 35.444 194.322 35.024 194.454 34.64L199.566 19.07C199.662 18.794 199.848 18.542 200.124 18.314C200.412 18.086 200.76 17.972 201.168 17.972H202.59C203.01 17.972 203.358 18.074 203.634 18.278C203.91 18.47 204.102 18.734 204.21 19.07L209.286 34.64C209.55 35.408 209.778 36.26 209.97 37.196C210.054 36.728 210.138 36.278 210.222 35.846C210.318 35.414 210.414 35.012 210.51 34.64L214.938 19.07C215.022 18.77 215.208 18.512 215.496 18.296C215.784 18.08 216.132 17.972 216.54 17.972H220.338L212.256 44H207.882L202.194 26.216C202.122 25.988 202.044 25.742 201.96 25.478C201.888 25.214 201.816 24.932 201.744 24.632C201.672 24.932 201.594 25.214 201.51 25.478C201.438 25.742 201.366 25.988 201.294 26.216L195.552 44H191.178L183.096 17.972ZM223.232 44V17.252H227.678V27.53C228.398 26.846 229.19 26.294 230.054 25.874C230.918 25.454 231.932 25.244 233.096 25.244C234.104 25.244 234.998 25.418 235.778 25.766C236.558 26.102 237.206 26.582 237.722 27.206C238.25 27.818 238.646 28.556 238.91 29.42C239.186 30.272 239.324 31.214 239.324 32.246V44H234.878V32.246C234.878 31.118 234.614 30.248 234.086 29.636C233.57 29.012 232.79 28.7 231.746 28.7C230.978 28.7 230.258 28.874 229.586 29.222C228.914 29.57 228.278 30.044 227.678 30.644V44H223.232ZM258.453 44H256.455C256.035 44 255.705 43.94 255.465 43.82C255.225 43.688 255.045 43.43 254.925 43.046L254.529 41.732C254.061 42.152 253.599 42.524 253.143 42.848C252.699 43.16 252.237 43.424 251.757 43.64C251.277 43.856 250.767 44.018 250.227 44.126C249.687 44.234 249.087 44.288 248.427 44.288C247.647 44.288 246.927 44.186 246.267 43.982C245.607 43.766 245.037 43.448 244.557 43.028C244.089 42.608 243.723 42.086 243.459 41.462C243.195 40.838 243.063 40.112 243.063 39.284C243.063 38.588 243.243 37.904 243.603 37.232C243.975 36.548 244.587 35.936 245.439 35.396C246.291 34.844 247.425 34.388 248.841 34.028C250.257 33.668 252.015 33.464 254.115 33.416V32.336C254.115 31.1 253.851 30.188 253.323 29.6C252.807 29 252.051 28.7 251.055 28.7C250.335 28.7 249.735 28.784 249.255 28.952C248.775 29.12 248.355 29.312 247.995 29.528C247.647 29.732 247.323 29.918 247.023 30.086C246.723 30.254 246.393 30.338 246.033 30.338C245.733 30.338 245.475 30.26 245.259 30.104C245.043 29.948 244.869 29.756 244.737 29.528L243.927 28.106C246.051 26.162 248.613 25.19 251.613 25.19C252.693 25.19 253.653 25.37 254.493 25.73C255.345 26.078 256.065 26.57 256.653 27.206C257.241 27.83 257.685 28.58 257.985 29.456C258.297 30.332 258.453 31.292 258.453 32.336V44ZM249.813 41.228C250.269 41.228 250.689 41.186 251.073 41.102C251.457 41.018 251.817 40.892 252.153 40.724C252.501 40.556 252.831 40.352 253.143 40.112C253.467 39.86 253.791 39.566 254.115 39.23V36.116C252.819 36.176 251.733 36.29 250.857 36.458C249.993 36.614 249.297 36.818 248.769 37.07C248.241 37.322 247.863 37.616 247.635 37.952C247.419 38.288 247.311 38.654 247.311 39.05C247.311 39.83 247.539 40.388 247.995 40.724C248.463 41.06 249.069 41.228 249.813 41.228ZM267.847 17.252V44H263.401V17.252H267.847ZM280.806 25.244C281.97 25.244 283.038 25.43 284.01 25.802C284.994 26.174 285.84 26.72 286.548 27.44C287.256 28.148 287.808 29.024 288.204 30.068C288.6 31.1 288.798 32.282 288.798 33.614C288.798 33.95 288.78 34.232 288.744 34.46C288.72 34.676 288.666 34.85 288.582 34.982C288.51 35.102 288.408 35.192 288.276 35.252C288.144 35.3 287.976 35.324 287.772 35.324H276.36C276.492 37.22 277.002 38.612 277.89 39.5C278.778 40.388 279.954 40.832 281.418 40.832C282.138 40.832 282.756 40.748 283.272 40.58C283.8 40.412 284.256 40.226 284.64 40.022C285.036 39.818 285.378 39.632 285.666 39.464C285.966 39.296 286.254 39.212 286.53 39.212C286.71 39.212 286.866 39.248 286.998 39.32C287.13 39.392 287.244 39.494 287.34 39.626L288.636 41.246C288.144 41.822 287.592 42.308 286.98 42.704C286.368 43.088 285.726 43.4 285.054 43.64C284.394 43.868 283.716 44.03 283.02 44.126C282.336 44.222 281.67 44.27 281.022 44.27C279.738 44.27 278.544 44.06 277.44 43.64C276.336 43.208 275.376 42.578 274.56 41.75C273.744 40.91 273.102 39.878 272.634 38.654C272.166 37.418 271.932 35.99 271.932 34.37C271.932 33.11 272.136 31.928 272.544 30.824C272.952 29.708 273.534 28.742 274.29 27.926C275.058 27.098 275.988 26.444 277.08 25.964C278.184 25.484 279.426 25.244 280.806 25.244ZM280.896 28.43C279.6 28.43 278.586 28.796 277.854 29.528C277.122 30.26 276.654 31.298 276.45 32.642H284.802C284.802 32.066 284.724 31.526 284.568 31.022C284.412 30.506 284.172 30.056 283.848 29.672C283.524 29.288 283.116 28.988 282.624 28.772C282.132 28.544 281.556 28.43 280.896 28.43Z" fill="white"/>
<path d="M28.5 57C44.2401 57 57 44.2401 57 28.5C57 12.7599 44.2401 0 28.5 0C12.7599 0 0 12.7599 0 28.5C0 44.2401 12.7599 57 28.5 57Z" fill="#3CCD64"/>
<path d="M54.8891 28.8041C54.8891 41.5948 45.9938 52.2848 34.1188 54.8891L33.9465 54.0877C32.1574 54.4781 30.3324 54.6749 28.5021 54.6749C15.7026 54.6749 4.80045 45.0102 3.14336 32.1938C2.9994 31.0698 2.9274 29.9375 2.92779 28.8041H2.11133C2.11133 14.0639 13.9253 2.11133 28.5002 2.11133V2.93077C42.6065 2.93077 54.0765 14.5367 54.0765 28.8016L54.8891 28.8041Z" fill="#191919"/>
<path d="M42.3945 48.5565L41.5176 47.2108C51.3839 40.3785 54.1578 26.684 47.767 16.356L49.0928 15.4824C55.9443 26.5536 52.9721 41.233 42.3945 48.5565Z" fill="#3CCD64"/>
<path d="M8.28775 42.2223C6.46385 39.4155 5.21532 36.2477 4.62007 32.9165C4.02483 29.5852 4.09563 26.162 4.82808 22.8605C5.56052 19.559 6.93888 16.45 8.87715 13.7276C10.8154 11.0051 13.272 8.72757 16.0936 7.03711L16.8874 8.47123C10.0561 12.5718 5.81236 20.2115 5.81236 28.4093C5.80432 33.0038 7.12553 37.4943 9.604 41.2963L8.28775 42.2223Z" fill="#3CCD64"/>
<path d="M18.9798 47.8516C8.39148 42.6375 4.02783 29.8066 9.23384 19.1965C9.6244 18.4007 10.0639 17.6299 10.5498 16.8887L11.9199 17.7914C9.8016 21.0131 8.67571 24.7879 8.68235 28.6459C8.68235 36.233 12.9057 43.0257 19.7038 46.3788L18.9798 47.8516Z" fill="#3CCD64"/>
<path d="M49.273 33.7779L47.704 33.3621C48.1271 31.7276 48.3409 30.0451 48.3403 28.3557C48.3403 17.5036 39.5977 8.67487 28.8516 8.67487V7.03711C40.51 7.03775 49.9627 16.5823 49.9627 28.3557C49.9631 30.1854 49.7313 32.0076 49.273 33.7779V33.7779Z" fill="#3CCD64"/>
<path d="M44.3635 20.6649C40.4956 26.6262 37.0514 24.8197 32.9377 24.0123C28.8239 23.2049 26.5513 27.6116 26.5513 27.6116C26.5513 27.6116 26.5558 27.5967 26.5584 27.5896C26.4803 27.734 26.4041 27.8797 26.3311 28.0273C26.1992 28.2863 26.0802 28.5576 25.9662 28.8353C25.979 28.5334 26.0245 28.2337 26.1019 27.9418C26.1768 27.6478 26.2741 27.3601 26.3932 27.0813C26.5414 26.734 26.7209 26.4013 26.9297 26.0875C27.5698 21.919 24.1648 20.3153 19.8647 17.8057C15.0756 15.0112 17.2189 11.9629 17.2189 11.9629C17.2189 11.9629 9.12136 20.4707 14.5244 28.5148C19.9275 36.559 26.7619 38.8336 19.6375 50.9426C19.6375 50.9426 24.4778 53.785 32.2655 52.3948C30.2298 43.6009 30.7438 40.2871 33.9677 37.301L33.6163 37.4305C33.4882 37.4739 33.3602 37.5056 33.2322 37.5406L33.0401 37.5917C32.9761 37.6073 32.9121 37.6163 32.8442 37.6286C32.7162 37.6519 32.583 37.6739 32.4524 37.6934C32.3218 37.7128 32.1874 37.7128 32.0562 37.7206C31.9922 37.7206 31.9243 37.727 31.8584 37.7283C31.7924 37.7296 31.7258 37.7232 31.6599 37.718C31.528 37.7096 31.3968 37.6998 31.2668 37.6837C31.3949 37.6435 31.5229 37.6105 31.6458 37.5781C31.7098 37.5613 31.7707 37.547 31.8328 37.5321L32.0178 37.4745C32.14 37.4376 32.2623 37.4027 32.3846 37.3683C32.5069 37.334 32.6246 37.2835 32.7444 37.244C32.8045 37.2239 32.8647 37.2065 32.9236 37.1838L33.1009 37.1152C33.2174 37.0673 33.3378 37.0304 33.453 36.9792L33.8013 36.8322C33.9184 36.7856 34.0305 36.7273 34.1457 36.6755C34.6028 36.4632 35.0539 36.2327 35.499 35.984L35.8191 35.804C37.3491 35.0271 38.6999 34.1446 39.9425 33.0199C47.5816 26.1185 44.3635 20.6649 44.3635 20.6649Z" fill="white"/>
</svg>
