<?xml version="1.0" encoding="UTF-8" standalone="no"?>
<svg
   width="57"
   height="57"
   viewBox="0 0 57 57"
   fill="none"
   version="1.1"
   id="svg87"
   xmlns="http://www.w3.org/2000/svg"
   xmlns:svg="http://www.w3.org/2000/svg">
  <defs
     id="defs91" />
  <path
     d="m 28.5,57 c 15.7401,0 28.5,-12.7599 28.5,-28.5 0,-15.7401 -12.7599,-28.5 -28.5,-28.5 -15.7401,0 -28.5,12.7599 -28.5,28.5 0,15.7401 12.7599,28.5 28.5,28.5 z"
     fill="#3ccd64"
     id="path73" />
  <path
     d="m 54.8891,28.8041 c 0,12.7907 -8.8953,23.4807 -20.7703,26.085 l -0.1723,-0.8014 c -1.7891,0.3904 -3.6141,0.5872 -5.4444,0.5872 -12.7995,0 -23.70165,-9.6647 -25.35874,-22.4811 -0.14396,-1.124 -0.21596,-2.2563 -0.21557,-3.3897 h -0.81646 c 0,-14.7402 11.81397,-26.69277 26.38887,-26.69277 v 0.81944 c 14.1063,0 25.5763,11.60593 25.5763,25.87083 z"
     fill="#191919"
     id="path75" />
  <path
     d="m 42.3945,48.5565 -0.8769,-1.3457 c 9.8663,-6.8323 12.6402,-20.5268 6.2494,-30.8548 l 1.3258,-0.8736 c 6.8515,11.0712 3.8793,25.7506 -6.6983,33.0741 z"
     fill="#3ccd64"
     id="path77" />
  <path
     d="m 8.28775,42.2223 c -1.8239,-2.8068 -3.07243,-5.9746 -3.66768,-9.3058 -0.59524,-3.3313 -0.52444,-6.7545 0.20801,-10.056 0.73244,-3.3015 2.1108,-6.4105 4.04907,-9.1329 1.93825,-2.7225 4.39485,-5.00003 7.21645,-6.69049 l 0.7938,1.43412 c -6.8313,4.10057 -11.07504,11.74027 -11.07504,19.93807 -0.00804,4.5945 1.31317,9.085 3.79164,12.887 z"
     fill="#3ccd64"
     id="path79" />
  <path
     d="m 18.9798,47.8516 c -10.58832,-5.2141 -14.95197,-18.045 -9.74596,-28.6551 0.39056,-0.7958 0.83006,-1.5666 1.31596,-2.3078 l 1.3701,0.9027 c -2.1183,3.2217 -3.24419,6.9965 -3.23755,10.8545 0,7.5871 4.22335,14.3798 11.02145,17.7329 z"
     fill="#3ccd64"
     id="path81" />
  <path
     d="m 49.273,33.7779 -1.569,-0.4158 c 0.4231,-1.6345 0.6369,-3.317 0.6363,-5.0064 0,-10.8521 -8.7426,-19.68083 -19.4887,-19.68083 v -1.63776 c 11.6584,6.4e-4 21.1111,9.54519 21.1111,21.31859 4e-4,1.8297 -0.2314,3.6519 -0.6897,5.4222 z"
     fill="#3ccd64"
     id="path83" />
  <path
     d="m 44.3635,20.6649 c -3.8679,5.9613 -7.3121,4.1548 -11.4258,3.3474 -4.1138,-0.8074 -6.3864,3.5993 -6.3864,3.5993 0,0 0.0045,-0.0149 0.0071,-0.022 -0.0781,0.1444 -0.1543,0.2901 -0.2273,0.4377 -0.1319,0.259 -0.2509,0.5303 -0.3649,0.808 0.0128,-0.3019 0.0583,-0.6016 0.1357,-0.8935 0.0749,-0.294 0.1722,-0.5817 0.2913,-0.8605 0.1482,-0.3473 0.3277,-0.68 0.5365,-0.9938 0.6401,-4.1685 -2.7649,-5.7722 -7.065,-8.2818 -4.7891,-2.7945 -2.6458,-5.8428 -2.6458,-5.8428 0,0 -8.09754,8.5078 -2.6945,16.5519 5.4031,8.0442 12.2375,10.3188 5.1131,22.4278 0,0 4.8403,2.8424 12.628,1.4522 -2.0357,-8.7939 -1.5217,-12.1077 1.7022,-15.0938 l -0.3514,0.1295 c -0.1281,0.0434 -0.2561,0.0751 -0.3841,0.1101 l -0.1921,0.0511 c -0.064,0.0156 -0.128,0.0246 -0.1959,0.0369 -0.128,0.0233 -0.2612,0.0453 -0.3918,0.0648 -0.1306,0.0194 -0.265,0.0194 -0.3962,0.0272 -0.064,0 -0.1319,0.0064 -0.1978,0.0077 -0.066,0.0013 -0.1326,-0.0051 -0.1985,-0.0103 -0.1319,-0.0084 -0.2631,-0.0182 -0.3931,-0.0343 0.1281,-0.0402 0.2561,-0.0732 0.379,-0.1056 0.064,-0.0168 0.1249,-0.0311 0.187,-0.046 l 0.185,-0.0576 c 0.1222,-0.0369 0.2445,-0.0718 0.3668,-0.1062 0.1223,-0.0343 0.24,-0.0848 0.3598,-0.1243 0.0601,-0.0201 0.1203,-0.0375 0.1792,-0.0602 l 0.1773,-0.0686 c 0.1165,-0.0479 0.2369,-0.0848 0.3521,-0.136 l 0.3483,-0.147 c 0.1171,-0.0466 0.2292,-0.1049 0.3444,-0.1567 0.4571,-0.2123 0.9082,-0.4428 1.3533,-0.6915 l 0.3201,-0.18 c 1.53,-0.7769 2.8808,-1.6594 4.1234,-2.7841 7.6391,-6.9014 4.421,-12.355 4.421,-12.355 z"
     fill="#ffffff"
     id="path85" />
</svg>
