<svg width="800" height="800" viewBox="0 0 800 800" fill="none" xmlns="http://www.w3.org/2000/svg">
<rect width="800" height="800" rx="400" fill="white"/>
<path d="M448.798 362.119L449.562 361.684L448.798 361.249L400.248 333.613L400.001 333.472L399.753 333.613L339.654 367.845L339.402 367.988V368.279V543.665V543.956L339.656 544.1L399.754 578.113L400.001 578.252L400.247 578.113L555.093 490.308L555.835 489.887L555.105 489.445L508.053 460.959L507.802 460.807L507.547 460.952L400.001 522.035L388.524 515.517V396.413L448.798 362.119Z" fill="black" stroke="black"/>
<path d="M400.247 113.165L400.001 113.025L399.754 113.165L146.953 256.659L146.7 256.803V257.094V544.507V544.798L146.954 544.942L195.076 572.158L195.822 572.58V571.722V285.234L400 169.235L491.934 221.603L492.528 221.941L492.67 221.272L503.15 171.953L503.227 171.594L502.908 171.414L400.247 113.165Z" fill="black" stroke="black"/>
<path d="M604.429 284.722L604.178 284.866V285.155V516.368L399.999 632.367L292.066 571.002V340.93L400.001 279.565L508.189 340.861L508.435 341.001L508.682 340.861L556.804 313.651L557.058 313.507V313.216V312.79V312.499L556.805 312.355L400.246 223.497L399.999 223.357L399.753 223.497L243.197 312.357L242.943 312.5V312.791V599.14V599.431L243.197 599.575L399.753 688.435L399.999 688.575L400.246 688.435L653.047 544.941L653.3 544.798V544.506V257.521V256.657L652.551 257.087L604.429 284.722Z" fill="black" stroke="black"/>
</svg>
