<?xml version="1.0" encoding="utf-8"?>
<!-- Generator: Adobe Illustrator 25.3.1, SVG Export Plug-In . SVG Version: 6.00 Build 0)  -->
<svg version="1.1" id="Layer_1" xmlns="http://www.w3.org/2000/svg" xmlns:xlink="http://www.w3.org/1999/xlink" x="0px" y="0px"
	 viewBox="0 0 800 800" style="enable-background:new 0 0 800 800;" xml:space="preserve">
<style type="text/css">
	.st0{fill:#1D1D1B;}
</style>
<g>
	<polygon class="st0" points="400,535.5 386.7,527.9 386.7,394.6 453.8,356.3 400,325.5 333.4,363.6 333.4,558.9 400,596.8 
		571.5,499 519.4,467.3 	"/>
	<polygon class="st0" points="400,80 120,239.8 120,559.9 173.3,590.2 173.3,270.8 400,141.3 502.1,199.8 513.7,144.9 	"/>
	<polygon class="st0" points="626.7,271.1 626.7,528.9 400,658.4 279.9,589.7 279.9,332.8 400,264.2 520.1,332.6 573.4,302.3 
		573.4,301.8 400,202.9 226.6,301.8 226.6,620.7 400,719.7 680,559.9 680,240.3 	"/>
</g>
</svg>
