<svg xmlns="http://www.w3.org/2000/svg" xmlns:xlink="http://www.w3.org/1999/xlink" viewBox="0 0 1000 1000">
  <defs>
    <linearGradient id="baf83f32-3800-407b-91d0-f5192e960340" data-name="Untitled gradient 1" x1="841.60024" y1="419.79112" x2="196.63249" y2="530.78557" gradientUnits="userSpaceOnUse">
      <stop offset="0" stop-color="#01a1f9"/>
      <stop offset="1" stop-color="#2cf19f"/>
    </linearGradient>
    <linearGradient id="795b1e85-593e-44f3-ab3e-2a38ba3ba2bc" x1="830.97396" y1="358.04386" x2="186.00621" y2="469.03831" xlink:href="#baf83f32-3800-407b-91d0-f5192e960340"/>
    <linearGradient id="7823d003-4863-4491-947c-31b3ba9ee1db" x1="817.61449" y1="280.41446" x2="172.64673" y2="391.40891" xlink:href="#baf83f32-3800-407b-91d0-f5192e960340"/>
    <linearGradient id="e3a78a5b-544a-4fbc-bf8f-d8a0eb57a7ba" x1="821.98351" y1="305.80203" x2="177.01576" y2="416.79648" xlink:href="#baf83f32-3800-407b-91d0-f5192e960340"/>
    <linearGradient id="afb5a1d3-b12f-492a-bada-a3a22ac98346" x1="834.90564" y1="380.8901" x2="189.93789" y2="491.88455" xlink:href="#baf83f32-3800-407b-91d0-f5192e960340"/>
    <linearGradient id="66f960c4-95be-4e0d-bbd2-01a4cd31b6a8" x1="848.85295" y1="461.93528" x2="203.8852" y2="572.92973" xlink:href="#baf83f32-3800-407b-91d0-f5192e960340"/>
  </defs>
  <g id="71c72852-924b-4550-a827-7403a194bb5a" data-name="Layer 2">
    <path d="M451.33777,425.63845,473.875,488s-41.78187,39.297-92.375,63.66667c-54.13309,26.07482-118.2911,35.2422-150.16667-33.33333C309.33333,581,451.33777,425.63845,451.33777,425.63845Z" style="fill: url(#baf83f32-3800-407b-91d0-f5192e960340)"/>
    <path d="M388.33333,563C377.66667,573.66667,225.83457,684.13149,153,573c-34.18769-52.16381-11.214-145.47112,39.99733-211.33066,58.63351-75.40473,166.336-116.336,212.66934-44.00267C312,273,211.66667,401,211.66667,466.33333S237.66667,624.66667,388.33333,563Z" style="fill: url(#795b1e85-593e-44f3-ab3e-2a38ba3ba2bc)"/>
    <path d="M260.33333,291.66667c80.16667-65.16667,181.33333-67.33333,217.33333-16S538,395,538,395l-64.125,60.5S438,341.5,417.5,312.5,360.33333,245.33333,260.33333,291.66667Z" style="fill: url(#7823d003-4863-4491-947c-31b3ba9ee1db)"/>
    <path d="M556.33333,408,533.7961,345.63845S566.40687,315.703,617,291.33333c54.13309-26.07482,112-23,147.16667,30.5C680.83333,258.5,556.33333,408,556.33333,408Z" style="fill: url(#e3a78a5b-544a-4fbc-bf8f-d8a0eb57a7ba)"/>
    <path d="M619,276.66667c10.66667-10.66667,148.49876-95.13149,221.33333,16C874.521,344.83048,869.11928,431.19,817,496.33333c-67.11439,83.88561-160.16667,96.5-206.5,24.16667,92.16667,50.83333,180.83333-68.83333,180.83333-134.16667S752.66667,229.66667,619,276.66667Z" style="fill: url(#afb5a1d3-b12f-492a-bada-a3a22ac98346)"/>
    <path d="M768,558.73669C676.25,643,570.20833,626.07,534.20833,574.73669S473.875,455.40336,473.875,455.40336l64.125-60.5s44,114,64.5,143S673.715,615,768,558.73669Z" style="fill: url(#66f960c4-95be-4e0d-bbd2-01a4cd31b6a8)"/>
  </g>
</svg>
