<svg xmlns="http://www.w3.org/2000/svg" xmlns:xlink="http://www.w3.org/1999/xlink" viewBox="0 0 1000 1000">
  <defs>
    <linearGradient id="baf83f32-3800-407b-91d0-f5192e960340" data-name="Безымянный градиент 11" x1="841.60024" y1="419.79112" x2="196.63249" y2="530.78557" gradientUnits="userSpaceOnUse">
      <stop offset="0" stop-color="#01a1f9"/>
      <stop offset="1" stop-color="#2cf19f"/>
    </linearGradient>
    <linearGradient id="795b1e85-593e-44f3-ab3e-2a38ba3ba2bc" x1="830.97396" y1="358.04386" x2="186.00621" y2="469.03831" xlink:href="#baf83f32-3800-407b-91d0-f5192e960340"/>
    <linearGradient id="7823d003-4863-4491-947c-31b3ba9ee1db" x1="817.61449" y1="280.41446" x2="172.64673" y2="391.40891" xlink:href="#baf83f32-3800-407b-91d0-f5192e960340"/>
    <linearGradient id="e3a78a5b-544a-4fbc-bf8f-d8a0eb57a7ba" x1="821.98351" y1="305.80203" x2="177.01576" y2="416.79648" xlink:href="#baf83f32-3800-407b-91d0-f5192e960340"/>
    <linearGradient id="afb5a1d3-b12f-492a-bada-a3a22ac98346" x1="834.90564" y1="380.8901" x2="189.93789" y2="491.88455" xlink:href="#baf83f32-3800-407b-91d0-f5192e960340"/>
    <linearGradient id="66f960c4-95be-4e0d-bbd2-01a4cd31b6a8" x1="848.85295" y1="461.93528" x2="203.8852" y2="572.92973" xlink:href="#baf83f32-3800-407b-91d0-f5192e960340"/>
  </defs>
  <title>ОСТА_вектор_прозрачный</title>
  <g id="71c72852-924b-4550-a827-7403a194bb5a" data-name="Слой 2">
    <g>
      <path d="M652.17633,863.625a12.48644,12.48644,0,0,0,1.46454.31409,13.1194,13.1194,0,0,0,2.02216.14551,11.43614,11.43614,0,0,0,2.59833-.31738,5.87345,5.87345,0,0,0,2.48682-1.2666,6.97307,6.97307,0,0,0,1.85333-2.7207,12.52651,12.52651,0,0,0,.73065-4.7002,14.63856,14.63856,0,0,0-.46356-3.9873,6.78508,6.78508,0,0,0-1.30585-2.58789,4.68547,4.68547,0,0,0-1.9812-1.38574,7.06493,7.06493,0,0,0-1.87354-.361V863.625Z" style="fill: none"/>
      <path d="M591.55627,850.22424c.006-.02179.0108-.04517.01691-.06689Z" style="fill: none"/>
      <path d="M354.125,672.08331c-1.61456-.66333-5.27-.79419-9.81067-.13043a51.84378,51.84378,0,0,0-8.07611,9.85712,62.65759,62.65759,0,0,0-6.69421,14.261,33.08652,33.08652,0,0,0-1.85834,10.02423,16.19779,16.19779,0,0,0,1.64655,7.68518,11.30045,11.30045,0,0,0,5.10229,4.93915,18.84631,18.84631,0,0,0,8.519,1.72424,33.71156,33.71156,0,0,0,12.74762-2.48419,39.7945,39.7945,0,0,0,11.34906-7.04291,50.96557,50.96557,0,0,0,9.2948-10.95844,61.039,61.039,0,0,0,6.6225-14.2901,33.54978,33.54978,0,0,0,1.78229-10.02429,15.68506,15.68506,0,0,0-1.72791-7.71436,11.9682,11.9682,0,0,0-5.13489-4.93915,15.58621,15.58621,0,0,0-4.78381-1.4613c1.0661.23871,2.14.49884,3.23016.80426C357.33331,668.5,359.5,674.29163,354.125,672.08331Z" style="fill: none"/>
      <path d="M423.403,717.32281q-.218-.11206-.44012-.22888c.095.04993.17749.11237.27441.16034C423.29,717.2804,423.34973,717.2973,423.403,717.32281Z" style="fill: none"/>
      <path d="M438.47449,846.93335c-.16614.03314-.3266.05145-.49585.09265a5.5048,5.5048,0,0,0-2.37256,1.26758,6.9776,6.9776,0,0,0-1.769,2.71973,13.07615,13.07615,0,0,0-.69678,4.7002,15.2926,15.2926,0,0,0,.44238,3.9873,6.89445,6.89445,0,0,0,1.24609,2.58789,4.47192,4.47192,0,0,0,1.89014,1.38672,6.6816,6.6816,0,0,0,2.37207.40918,7.45476,7.45476,0,0,0,2.88184-.52832,5.08544,5.08544,0,0,0,1.97021-1.34668V850.35315h-5.46851Z" style="fill: none"/>
      <path d="M620.03442,849.7287a11.16342,11.16342,0,0,0-1.33514,5.37738c0,5.09766,3.18262,9.24414,7.09381,9.24414s7.09387-4.14648,7.09387-9.24414a10.63058,10.63058,0,0,0-2.32922-6.82867l-9.25934,2.0976A3.63223,3.63223,0,0,0,620.03442,849.7287Z" style="fill: none"/>
      <path d="M600.32013,677.42731l-15.75763,19.454h25.19733l2.60663-24.7243q.1832-2.1308.42712-5.00055.24179-2.86871.74957-6.2428L599.9375,684.4375Z" style="fill: none"/>
      <path d="M356.03333,858.03772h-.05615a7.79778,7.79778,0,0,0-2.00293.22656,4.04938,4.04938,0,0,0-1.38428.626,2.62,2.62,0,0,0-.80615.94531,2.58612,2.58612,0,0,0-.26855,1.15918,2.92722,2.92722,0,0,0,.32227,1.45215,2.46607,2.46607,0,0,0,.90039.91895,3.88576,3.88576,0,0,0,1.35791.47949,9.77645,9.77645,0,0,0,1.666.13379,9.541,9.541,0,0,0,3.21191-.51953,6.46009,6.46009,0,0,0,2.48633-1.55859v-1.98437h-5.42676Z" style="fill: none"/>
      <path d="M322.76062,850.22424c.006-.02179.0108-.04517.01691-.06689Z" style="fill: none"/>
      <path d="M327.25232,852.12268h6.15527a5.78392,5.78392,0,0,0-1.33984-4.14648,5.44178,5.44178,0,0,0-4.10156-1.39941,6.8852,6.8852,0,0,0-2.373.37012,4.32034,4.32034,0,0,0-1.66113,1.05664,4.59726,4.59726,0,0,0-1.00586,1.66309c-.04541.12726-.08447.26624-.123.40625l4.44922.4588Z" style="fill: none"/>
      <path d="M596.048,852.12268h6.15527a5.78392,5.78392,0,0,0-1.33984-4.14648,5.44178,5.44178,0,0,0-4.10156-1.39941,6.8852,6.8852,0,0,0-2.373.37012,4.32034,4.32034,0,0,0-1.66113,1.05664,4.59726,4.59726,0,0,0-1.00586,1.66309c-.04541.12726-.08447.26624-.123.40625l4.44922.4588Z" style="fill: none"/>
      <path d="M497.92194,849.72864a11.16369,11.16369,0,0,0-1.33521,5.37744c0,5.09766,3.18262,9.24414,7.09387,9.24414s7.09381-4.14648,7.09381-9.24414a10.63058,10.63058,0,0,0-2.32922-6.82867l-9.25928,2.0976A3.63237,3.63237,0,0,0,497.92194,849.72864Z" style="fill: none"/>
      <path d="M408.19373,852.12268H414.349a5.78392,5.78392,0,0,0-1.33984-4.14648,5.44178,5.44178,0,0,0-4.10156-1.39941,6.8852,6.8852,0,0,0-2.373.37012,4.32034,4.32034,0,0,0-1.66113,1.05664,4.59726,4.59726,0,0,0-1.00586,1.66309c-.04541.12726-.08447.26624-.123.40625l4.44922.4588Z" style="fill: none"/>
      <path d="M591.33661,860.35461c-.08148-.35516-.14832-.71155-.20947-1.06805A8.87168,8.87168,0,0,0,591.33661,860.35461Z" style="fill: none"/>
      <path d="M403.48236,860.35461c-.08148-.35516-.14832-.71155-.20947-1.06805A8.87168,8.87168,0,0,0,403.48236,860.35461Z" style="fill: none"/>
      <path d="M281.10651,864.0824c-.02447.00018-.049-.00043-.07355-.00031.01251.00006.023.0025.03552.0025C281.08081,864.08459,281.09418,864.08246,281.10651,864.0824Z" style="fill: none"/>
      <path d="M696.52991,852.12268h5.48193a5.78392,5.78392,0,0,0-1.33984-4.14648,5.44178,5.44178,0,0,0-4.10156-1.39941,6.8852,6.8852,0,0,0-2.373.37012,4.32034,4.32034,0,0,0-1.66113,1.05664,4.59726,4.59726,0,0,0-1.00586,1.66309c-.04541.12726-.08447.26617-.123.40619l5.12256.45886Z" style="fill: none"/>
      <path d="M322.541,860.35461c-.08148-.35516-.14832-.71155-.20947-1.06805A8.87168,8.87168,0,0,0,322.541,860.35461Z" style="fill: none"/>
      <path d="M403.702,850.22424c.006-.02179.0108-.04517.01691-.06689Z" style="fill: none"/>
      <path d="M691.36487,850.22424c.006-.02179.0108-.04517.01691-.06689Z" style="fill: none"/>
      <path d="M690.93573,859.28656a8.87168,8.87168,0,0,0,.20947,1.06805C691.06372,859.99945,690.99689,859.64307,690.93573,859.28656Z" style="fill: none"/>
      <path d="M562.04333,863.625a12.48373,12.48373,0,0,0,1.46454.31409,13.12022,13.12022,0,0,0,2.02222.14551,11.437,11.437,0,0,0,2.59833-.31738,5.87288,5.87288,0,0,0,2.48676-1.2666,6.97242,6.97242,0,0,0,1.85333-2.7207,12.52651,12.52651,0,0,0,.73065-4.7002,14.63616,14.63616,0,0,0-.46356-3.9873,6.785,6.785,0,0,0-1.30579-2.58789,4.68565,4.68565,0,0,0-1.98126-1.38574,7.064,7.064,0,0,0-1.87354-.361V863.625Z" style="fill: none"/>
      <g>
        <path d="M625.79309,839.75a14.14868,14.14868,0,0,0-11.74646,6.496c5.76855-3.4021,13.56616-1.887,16.54712,2.02319l-.036.00818a10.63058,10.63058,0,0,1,2.32922,6.82867c0,5.09766-3.18262,9.24414-7.09387,9.24414s-7.09381-4.14648-7.09381-9.24414a11.16342,11.16342,0,0,1,1.33514-5.37738c-3.40265-1.0025-8.65973,2.31335-8.44647,7.04962l-.11469-.01721c.77728,7.69165,6.90045,13.70111,14.31982,13.70111,7.9444,0,14.40692-6.88849,14.40692-15.35614S633.73749,839.75,625.79309,839.75Z" style="fill: #fcfcfc"/>
        <path d="M403.01141,670.22925a24.20367,24.20367,0,0,0-3.595-11.74152,21.6434,21.6434,0,0,0-9.1015-7.847,33.23772,33.23772,0,0,0-14.54059-2.86359,57.68586,57.68586,0,0,0-13.71765,1.66113,66.71011,66.71011,0,0,0-13.17621,4.725,73.42771,73.42771,0,0,0-19.20483,13.413c12.23163-5.3537,26.29431-9.88373,43.42749-6.04724a15.58621,15.58621,0,0,1,4.78381,1.4613,11.9682,11.9682,0,0,1,5.13489,4.93915,15.68506,15.68506,0,0,1,1.72791,7.71436,33.54978,33.54978,0,0,1-1.78229,10.02429,61.039,61.039,0,0,1-6.6225,14.2901,50.96557,50.96557,0,0,1-9.2948,10.95844,39.7945,39.7945,0,0,1-11.34906,7.04291,33.71156,33.71156,0,0,1-12.74762,2.48419,18.84631,18.84631,0,0,1-8.519-1.72424,11.30045,11.30045,0,0,1-5.10229-4.93915,16.19779,16.19779,0,0,1-1.64655-7.68518A33.08652,33.08652,0,0,1,329.544,696.071a62.65759,62.65759,0,0,1,6.69421-14.261,51.84378,51.84378,0,0,1,8.07611-9.85712c-10.41064,1.52185-25.4917,7.25745-31.52185,20.50543q-.64828,1.64081-1.20959,3.31744a39.88634,39.88634,0,0,0-2.2807,14.6051,23.48893,23.48893,0,0,0,3.5235,11.71381,21.50947,21.50947,0,0,0,9.19006,7.78979,34.43459,34.43459,0,0,0,14.7536,2.835,59.17974,59.17974,0,0,0,13.9043-1.66113,67.34921,67.34921,0,0,0,13.30695-4.725,73.50461,73.50461,0,0,0,12.18616-7.36072A70.89089,70.89089,0,0,0,386.705,709.35a71.962,71.962,0,0,0,8.41357-11.54126,64.25193,64.25193,0,0,0,5.82477-13.0307A39.78278,39.78278,0,0,0,403.01141,670.22925Z" style="fill: #fcfcfc"/>
        <path d="M455.97937,712.042a3.01331,3.01331,0,0,0-1.43146-.28607,4.52951,4.52951,0,0,0-2.01471.51587q-1.043.51489-2.43719,1.31689-1.39609.80292-3.12024,1.71838a28.76635,28.76635,0,0,1-4.03,1.71832,33.68745,33.68745,0,0,1-5.26447,1.31787,39.52016,39.52016,0,0,1-6.72559.515,17.44512,17.44512,0,0,1-7.35138-1.45209l-.021.0105c-.05908-.03009-.12085-.06323-.18036-.09381-.05322-.02551-.113-.04242-.16571-.06854-.09692-.048-.17944-.11041-.27441-.16034-8.2157-4.31616-20.34906-13.47614-15.04547-38.81091-1.09467,1.522-2.153,3.0755-3.14008,4.69086a65.78667,65.78667,0,0,0-6.29523,13.54657,41.255,41.255,0,0,0-2.37592,14.40491,22.43585,22.43585,0,0,0,3.295,11.45538,20.526,20.526,0,0,0,9.025,7.58954A34.7371,34.7371,0,0,0,423.16949,733.5c7.1582,0,13.896-.72266,20.20972-2.9375,6.30975-2.21393,13.00836-4.98669,18.43329-9.1875l-5.09637-8.7027A1.94775,1.94775,0,0,0,455.97937,712.042Z" style="fill: #fcfcfc"/>
        <path d="M473.04242,667.10815a3.24419,3.24419,0,0,0,2.44415,1.0022,5.60989,5.60989,0,0,0,2.59833-.57306,12.73358,12.73358,0,0,0,2.06506-1.317l8.68335-6.81616a19.61965,19.61965,0,0,0-3.33466-4.725,18.29029,18.29029,0,0,0-5.01581-3.6665,28.61805,28.61805,0,0,0-6.93237-2.37634,43.07429,43.07429,0,0,0-9.08777-.85919,59.65892,59.65892,0,0,0-13.813,1.63251,71.51471,71.51471,0,0,0-12.17419,4.09814c-9.33527,4.4823-30.42236,21.744-19.6358,39.58276a52.25922,52.25922,0,0,1,6.11322-11.8064,49.60431,49.60431,0,0,1,9.78064-10.51038,43.20205,43.20205,0,0,1,11.68353-6.67316,35.50624,35.50624,0,0,1,12.60028-2.34778,21.78121,21.78121,0,0,1,7.455,1.00226,15.75366,15.75366,0,0,1,4.11993,2.17609A24.71356,24.71356,0,0,1,473.04242,667.10815Z" style="fill: #fcfcfc"/>
        <polygon points="572.932 645.943 499.125 645.943 492.811 659.346 521.663 659.346 541.018 659.346 566.646 659.346 572.932 645.943" style="fill: #fcfcfc"/>
        <polygon points="541.018 659.346 535.125 671.938 515.835 671.938 488.125 731.803 507.573 731.803 541.018 659.346" style="fill: #fcfcfc"/>
        <path d="M559.76886,730.64948c1.5011-.76941,2.51813-2.49451,3.44989-3.67444L575.75,708.69379l32.93823.1875L607.163,727.95709a3.7121,3.7121,0,0,0,1.15759,2.78107,5.44384,5.44384,0,0,0,3.78424,1.06494h14.02008l5.81256-85.85962H615.074l-1.53082,14.97015q-.50592,3.37363-.74957,6.2428-.244,2.87164-.42712,5.00055l-2.60663,24.7243H584.5625l15.75763-19.454,1.13855-20.85767-62.292,75.23346h15.907A10.17207,10.17207,0,0,0,559.76886,730.64948Z" style="fill: #fcfcfc"/>
        <path d="M281.309,864.07056l-.02368.01245c-.05939.00128-.11926-.00122-.17877-.00061-.01233.00006-.0257.0022-.038.0022-.01251,0-.023-.00244-.03552-.0025a20.34355,20.34355,0,0,1-13.85028-5.80157c.37708,3.517,1.45953,6.23639,3.27106,8.13025q3.4314,3.58887,10.61475,3.58887.91113,0,1.9165-.09277,1.00562-.09229,1.98389-.27734.97852-.18457,1.93018-.44824a17.79272,17.79272,0,0,0,1.75586-.58105v-6.05469a28.61921,28.61921,0,0,1-3.84668,1.11426A17.88861,17.88861,0,0,1,281.309,864.07056Z" style="fill: #fcfcfc"/>
        <path d="M280.82727,840.79456a17.19309,17.19309,0,0,0-6.228,1.01367,10.96349,10.96349,0,0,0-4.292,2.89551,11.79988,11.79988,0,0,0-2.48389,4.58105c-.047.15808-.08044.32745-.12329.489-.39093,2.8974,2.62921,5.92981,6.66455,7.73279a21.11048,21.11048,0,0,1-.10474-2.15344q0-4.519,1.68848-6.58105a5.94225,5.94225,0,0,1,4.87891-2.0625,20.44813,20.44813,0,0,1,3.76611.375,29.76526,29.76526,0,0,1,4.06152,1.07715v-6.02051a26.65086,26.65086,0,0,0-3.92725-1.0166A22.56734,22.56734,0,0,0,280.82727,840.79456Z" style="fill: #fcfcfc"/>
        <polygon points="294.713 856.229 294.713 869.419 301.817 869.419 301.774 856.229 294.713 856.229" style="fill: #fcfcfc"/>
        <path d="M309.53674,840.91272q-.50977-.06592-.93848-.0918-.4292-.02637-.72363-.02637a9.87961,9.87961,0,0,0-3.793.66016,10.67708,10.67708,0,0,0-2.69434,1.55762v-1.6377h-6.6748v8.02118h7.16486a6.984,6.984,0,0,1,1.90594-1.88544c2.966-1.92706,6.85962-1.37994,7.79053-.80164V841.401a7.52525,7.52525,0,0,0-1.00537-.30273C310.22034,841.01819,309.87561,840.95667,309.53674,840.91272Z" style="fill: #fcfcfc"/>
        <path d="M365.61194,843.39514a10.67791,10.67791,0,0,0-3.91846-1.92773,21.246,21.246,0,0,0-5.71631-.67285q-1.09424,0-2.09473.06543-1.00049.06592-1.96924.22754-.96826.16113-1.97656.3291-1.00854.167-2.04346.33984l.05127,6.48145q1.52563-.31494,2.82471-.583,1.29932-.2666,2.47949-.541a14.43783,14.43783,0,0,1,1.96289-.33887q.78223-.06592,1.62158-.06543a6.63369,6.63369,0,0,1,2.09814.292,3.87131,3.87131,0,0,1,1.44043.82227,3.18075,3.18075,0,0,1,.82764,1.24707,4.472,4.472,0,0,1,.26074,1.53906V851h.01074v8.91663h-.01074V861.901a6.46009,6.46009,0,0,1-2.48633,1.55859,9.541,9.541,0,0,1-3.21191.51953,9.77645,9.77645,0,0,1-1.666-.13379,3.88576,3.88576,0,0,1-1.35791-.47949,2.46607,2.46607,0,0,1-.90039-.91895,2.92722,2.92722,0,0,1-.32227-1.45215,2.58612,2.58612,0,0,1,.26855-1.15918,2.62,2.62,0,0,1,.80615-.94531,4.04938,4.04938,0,0,1,1.38428-.626,7.79778,7.79778,0,0,1,2.00293-.22656h.05615v-6.02051h-.0415a17.92332,17.92332,0,0,0-4.69092.58008,10.9996,10.9996,0,0,0-3.71289,1.74023,8.09565,8.09565,0,0,0-2.43945,2.874,8.66956,8.66956,0,0,0-.87109,3.98145,9.029,9.029,0,0,0,.709,3.65234,7.49048,7.49048,0,0,0,2.07422,2.76855,9.58521,9.58521,0,0,0,3.34521,1.76563,15.24246,15.24246,0,0,0,4.5498.62012,13.74594,13.74594,0,0,0,3.69482-.47461,8.76288,8.76288,0,0,0,3.23877-1.74023v1.63379h6.6748V850.485a10.89427,10.89427,0,0,0-.71143-4.04A7.42794,7.42794,0,0,0,365.61194,843.39514Z" style="fill: #fcfcfc"/>
        <polygon points="384.809 832.846 377.705 832.846 377.705 841.375 372.408 841.375 372.408 847.554 377.705 847.554 377.705 847.583 384.809 847.583 384.809 847.554 392.971 847.554 392.971 841.375 384.809 841.375 384.809 832.846" style="fill: #fcfcfc"/>
        <path d="M389.92834,864.00549c-.32178.03516-.62549.05762-.91113.06543-.28613.00977-.53613.01367-.75049.01367a5.02166,5.02166,0,0,1-1.47461-.19727,2.2589,2.2589,0,0,1-1.08545-.72559,3.54937,3.54937,0,0,1-.67041-1.42285,9.564,9.564,0,0,1-.22754-2.29492v-5.02734h-7.104v5.04688a15.00631,15.00631,0,0,0,.77441,5.24121,7.85292,7.85292,0,0,0,2.123,3.22168,7.45214,7.45214,0,0,0,3.1665,1.624,16.11049,16.11049,0,0,0,3.88135.44922q.72363,0,1.80957-.02637a17.37394,17.37394,0,0,0,2.37207-.23926v-6.07129a6.795,6.795,0,0,1-.9248.21094Q390.41028,863.95276,389.92834,864.00549Z" style="fill: #fcfcfc"/>
        <path d="M443.943,839.16663v23.043a5.08544,5.08544,0,0,1-1.97021,1.34668,7.45476,7.45476,0,0,1-2.88184.52832,6.6816,6.6816,0,0,1-2.37207-.40918,4.47192,4.47192,0,0,1-1.89014-1.38672,6.89445,6.89445,0,0,1-1.24609-2.58789,15.2926,15.2926,0,0,1-.44238-3.9873,13.07615,13.07615,0,0,1,.69678-4.7002,6.9776,6.9776,0,0,1,1.769-2.71973,5.5048,5.5048,0,0,1,2.37256-1.26758c.16925-.0412.32971-.05951.49585-.09265v-6.02454c-.37231.03577-.7428.06836-1.12573.123a14.97822,14.97822,0,0,0-3.29736.87109,13.738,13.738,0,0,0-3.10937,1.70313,10.54508,10.54508,0,0,0-2.58691,2.74707,14.41479,14.41479,0,0,0-1.78271,4,19.83862,19.83862,0,0,0-.66992,5.46582,19.4319,19.4319,0,0,0,.96484,6.52246,12.16625,12.16625,0,0,0,2.60059,4.39648,9.81224,9.81224,0,0,0,3.793,2.48242,13.26842,13.26842,0,0,0,4.54346.7793,12.33518,12.33518,0,0,0,3.53857-.52832,7.76808,7.76808,0,0,0,3.02881-1.66309v1.61035h6.6748v-44.002H443.943Z" style="fill: #fcfcfc"/>
        <rect x="471.82739" y="854.38135" width="7.10352" height="15.03723" style="fill: #fcfcfc"/>
        <path d="M479.70874,835.4469c.7666-1.374,2.98535-2.124,6.24561-1.34277V828.5553q-.53613-.10547-1.126-.18457-.5896-.0791-1.15234-.11914-.56323-.03955-1.05908-.05273-.49658-.01318-.84424-.01367a12.0671,12.0671,0,0,0-3.82812.59473,8.05385,8.05385,0,0,0-3.13965,1.91406,9.33214,9.33214,0,0,0-2.1499,3.47266,29.95027,29.95027,0,0,0-.82764,7.208H468.155v6.17969h3.06635V847.548h9.89746v.00629H486.491v-6.17969h-7.56006C478.93091,839.61487,479.20331,836.35284,479.70874,835.4469Z" style="fill: #fcfcfc"/>
        <rect x="673.51086" y="830.70667" width="7.10352" height="9.37665" style="fill: #fcfcfc"/>
        <rect x="673.51086" y="846.91663" width="7.10352" height="22.50195" style="fill: #fcfcfc"/>
        <path d="M577.0481,844.0553a10.36717,10.36717,0,0,0-3.97583-2.48242,14.53375,14.53375,0,0,0-4.76068-.77832c-.24554,0-.491.01233-.73657.02618v5.93707a7.064,7.064,0,0,1,1.87354.361,4.68565,4.68565,0,0,1,1.98126,1.38574,6.785,6.785,0,0,1,1.30579,2.58789,14.63616,14.63616,0,0,1,.46356,3.9873,12.52651,12.52651,0,0,1-.73065,4.7002,6.97242,6.97242,0,0,1-1.85333,2.7207,5.87288,5.87288,0,0,1-2.48676,1.2666,11.437,11.437,0,0,1-2.59833.31738,13.12022,13.12022,0,0,1-2.02222-.14551,12.48373,12.48373,0,0,1-1.46454-.31409h-.95123V841.37463h-6.65741v38.791h7.444v-10.4834q.78589.13184,1.6568.22461a18.20848,18.20848,0,0,0,1.91064.09277,24.89986,24.89986,0,0,0,3.329-.2373,16.31549,16.31549,0,0,0,3.46924-.87207,14.61314,14.61314,0,0,0,3.25842-1.70312A10.96261,10.96261,0,0,0,578.227,864.441a13.62361,13.62361,0,0,0,1.86865-4.001,19.35031,19.35031,0,0,0,.68768-5.46582,18.61012,18.61012,0,0,0-1.011-6.52246A12.08118,12.08118,0,0,0,577.0481,844.0553Z" style="fill: #fcfcfc"/>
        <path d="M667.181,844.0553a10.36649,10.36649,0,0,0-3.97577-2.48242,14.534,14.534,0,0,0-4.76068-.77832c-.24554,0-.491.01233-.73657.02618v5.93707a7.06493,7.06493,0,0,1,1.87354.361,4.68547,4.68547,0,0,1,1.9812,1.38574,6.78508,6.78508,0,0,1,1.30585,2.58789,14.63856,14.63856,0,0,1,.46356,3.9873,12.52651,12.52651,0,0,1-.73065,4.7002,6.97307,6.97307,0,0,1-1.85333,2.7207,5.87345,5.87345,0,0,1-2.48682,1.2666,11.43614,11.43614,0,0,1-2.59833.31738,13.1194,13.1194,0,0,1-2.02216-.14551,12.48644,12.48644,0,0,1-1.46454-.31409h-.95123V841.37463h-6.65741v38.791h7.444v-10.4834q.786.13184,1.65686.22461a18.20727,18.20727,0,0,0,1.91058.09277,24.90074,24.90074,0,0,0,3.329-.2373,16.31641,16.31641,0,0,0,3.46924-.87207,14.61272,14.61272,0,0,0,3.25836-1.70312A10.9618,10.9618,0,0,0,668.36,864.441a13.62516,13.62516,0,0,0,1.86865-4.001,19.35252,19.35252,0,0,0,.68768-5.46582,18.61012,18.61012,0,0,0-1.011-6.52246A12.08047,12.08047,0,0,0,667.181,844.0553Z" style="fill: #fcfcfc"/>
        <path d="M535.73657,840.91272q-.50977-.06592-.93848-.0918-.4292-.02637-.72363-.02637a9.87961,9.87961,0,0,0-3.793.66016,10.67708,10.67708,0,0,0-2.69434,1.55762v-1.6377h-6.6748v8.02118h7.16486a6.983,6.983,0,0,1,1.90594-1.88544c2.96594-1.92706,6.85956-1.37994,7.79053-.80164V841.401a7.52525,7.52525,0,0,0-1.00537-.30273C536.42017,841.01819,536.07544,840.95667,535.73657,840.91272Z" style="fill: #fcfcfc"/>
        <polygon points="520.912 856.229 520.912 869.419 528.016 869.419 527.974 856.229 520.912 856.229" style="fill: #fcfcfc"/>
        <path d="M606.53918,844.72913a10.794,10.794,0,0,0-4.09277-2.918,14.73727,14.73727,0,0,0-5.68457-1.0166,15.2249,15.2249,0,0,0-5.80371,1.0166,10.59578,10.59578,0,0,0-4.11523,2.93066,12.464,12.464,0,0,0-2.43945,4.66113,22.07949,22.07949,0,0,0-.80371,6.20508,21.59848,21.59848,0,0,0,.77734,6.04688,11.16109,11.16109,0,0,0,2.47949,4.51563,11.03046,11.03046,0,0,0,4.38281,2.83887,18.78659,18.78659,0,0,0,6.4873.99023,32.766,32.766,0,0,0,5.49707-.43555,34.34674,34.34674,0,0,0,5.15039-1.30762v-5.99414q-1.6333.58154-2.9834.96387a24.749,24.749,0,0,1-2.59473.59473q-1.24365.21094-2.46094.30273-1.21875.09375-2.6084.09277a10.87793,10.87793,0,0,1-2.81445-.33008,5.18793,5.18793,0,0,1-2.07812-1.05566,4.71912,4.71912,0,0,1-1.2998-1.875c-.06433-.16217-.12006-.3418-.17316-.52655h-.00989c-.0058-.02478-.009-.04974-.01465-.07452a8.87168,8.87168,0,0,1-.20947-1.06805,21.237,21.237,0,0,1,.42914-9.06232l.01691-.06689c.00775-.02753.01349-.0575.02136-.0849l.00421.00043c.03857-.14.07764-.279.123-.40625a4.59726,4.59726,0,0,1,1.00586-1.66309,4.32034,4.32034,0,0,1,1.66113-1.05664,6.8852,6.8852,0,0,1,2.373-.37012,5.44178,5.44178,0,0,1,4.10156,1.39941,5.78392,5.78392,0,0,1,1.33984,4.14648H596.048v5.7832H609.8429v-2.56152a20.41342,20.41342,0,0,0-.8291-6.02051A12.56408,12.56408,0,0,0,606.53918,844.72913Z" style="fill: #fcfcfc"/>
        <path d="M696.52991,857.90588h13.12158v-2.56152a20.41342,20.41342,0,0,0-.8291-6.02051,12.56408,12.56408,0,0,0-2.47461-4.59473,10.794,10.794,0,0,0-4.09277-2.918,14.73727,14.73727,0,0,0-5.68457-1.0166,15.22491,15.22491,0,0,0-5.80371,1.0166,10.59578,10.59578,0,0,0-4.11523,2.93066A12.464,12.464,0,0,0,684.212,849.403a22.07949,22.07949,0,0,0-.80371,6.20508,21.59849,21.59849,0,0,0,.77734,6.04688,11.16109,11.16109,0,0,0,2.47949,4.51563,11.03046,11.03046,0,0,0,4.38281,2.83887,18.78659,18.78659,0,0,0,6.4873.99023,32.766,32.766,0,0,0,5.49707-.43555,34.34674,34.34674,0,0,0,5.15039-1.30762v-5.99414q-1.6333.58154-2.9834.96387a24.749,24.749,0,0,1-2.59473.59473q-1.24365.21094-2.46094.30273-1.21875.09375-2.6084.09277a10.87793,10.87793,0,0,1-2.81445-.33008,5.18793,5.18793,0,0,1-2.07812-1.05566,4.71912,4.71912,0,0,1-1.2998-1.875c-.06433-.16217-.12006-.3418-.17316-.52655h-.00989c-.0058-.02478-.009-.04974-.01465-.07452a8.87168,8.87168,0,0,1-.20947-1.06805,21.237,21.237,0,0,1,.42914-9.06232l.01691-.06689c.00775-.02753.01349-.0575.02136-.0849l.00421.00037c.03857-.14.07764-.27893.123-.40619a4.59726,4.59726,0,0,1,1.00586-1.66309,4.32034,4.32034,0,0,1,1.66113-1.05664,6.8852,6.8852,0,0,1,2.373-.37012,5.44178,5.44178,0,0,1,4.10156,1.39941,5.78392,5.78392,0,0,1,1.33984,4.14648h-5.48193Z" style="fill: #fcfcfc"/>
        <path d="M337.74353,844.72913a10.794,10.794,0,0,0-4.09277-2.918,14.73727,14.73727,0,0,0-5.68457-1.0166,15.2249,15.2249,0,0,0-5.80371,1.0166,10.59578,10.59578,0,0,0-4.11523,2.93066,12.464,12.464,0,0,0-2.43945,4.66113,22.07949,22.07949,0,0,0-.80371,6.20508,21.59848,21.59848,0,0,0,.77734,6.04688,11.16109,11.16109,0,0,0,2.47949,4.51563,11.03046,11.03046,0,0,0,4.38281,2.83887,18.78659,18.78659,0,0,0,6.4873.99023,32.766,32.766,0,0,0,5.49707-.43555,34.34674,34.34674,0,0,0,5.15039-1.30762v-5.99414q-1.6333.58154-2.9834.96387a24.749,24.749,0,0,1-2.59473.59473q-1.24365.21094-2.46094.30273-1.21875.09375-2.6084.09277a10.87793,10.87793,0,0,1-2.81445-.33008,5.18793,5.18793,0,0,1-2.07812-1.05566,4.71912,4.71912,0,0,1-1.2998-1.875c-.06433-.16217-.12006-.3418-.17316-.52655h-.00989c-.0058-.02478-.009-.04974-.01465-.07452a8.87168,8.87168,0,0,1-.20947-1.06805,21.237,21.237,0,0,1,.42914-9.06232l.01691-.06689c.00775-.02753.01349-.0575.02136-.0849l.00421.00043c.03857-.14.07764-.279.123-.40625a4.59726,4.59726,0,0,1,1.00586-1.66309,4.32034,4.32034,0,0,1,1.66113-1.05664,6.8852,6.8852,0,0,1,2.373-.37012,5.44178,5.44178,0,0,1,4.10156,1.39941,5.78392,5.78392,0,0,1,1.33984,4.14648h-6.15527v5.7832h13.79492v-2.56152a20.41342,20.41342,0,0,0-.8291-6.02051A12.56408,12.56408,0,0,0,337.74353,844.72913Z" style="fill: #fcfcfc"/>
        <path d="M418.68494,844.72913a10.794,10.794,0,0,0-4.09277-2.918,14.73727,14.73727,0,0,0-5.68457-1.0166,15.22491,15.22491,0,0,0-5.80371,1.0166,10.59578,10.59578,0,0,0-4.11523,2.93066,12.464,12.464,0,0,0-2.43945,4.66113,22.07949,22.07949,0,0,0-.80371,6.20508,21.59849,21.59849,0,0,0,.77734,6.04688,11.16109,11.16109,0,0,0,2.47949,4.51563,11.03046,11.03046,0,0,0,4.38281,2.83887,18.78659,18.78659,0,0,0,6.4873.99023,32.766,32.766,0,0,0,5.49707-.43555,34.34674,34.34674,0,0,0,5.15039-1.30762v-5.99414q-1.6333.58154-2.9834.96387a24.749,24.749,0,0,1-2.59473.59473q-1.24365.21094-2.46094.30273-1.21875.09375-2.6084.09277a10.87793,10.87793,0,0,1-2.81445-.33008,5.18793,5.18793,0,0,1-2.07812-1.05566,4.71912,4.71912,0,0,1-1.2998-1.875c-.06433-.16217-.12006-.3418-.17316-.52655H403.497c-.0058-.02478-.009-.04974-.01465-.07452a8.87168,8.87168,0,0,1-.20947-1.06805,21.237,21.237,0,0,1,.42914-9.06232l.01691-.06689c.00775-.02753.01349-.0575.02136-.0849l.00421.00043c.03857-.14.07764-.279.123-.40625a4.59726,4.59726,0,0,1,1.00586-1.66309,4.32034,4.32034,0,0,1,1.66113-1.05664,6.8852,6.8852,0,0,1,2.373-.37012,5.44178,5.44178,0,0,1,4.10156,1.39941,5.78392,5.78392,0,0,1,1.33984,4.14648h-6.15527v5.7832h13.79492v-2.56152a20.41342,20.41342,0,0,0-.8291-6.02051A12.56408,12.56408,0,0,0,418.68494,844.72913Z" style="fill: #fcfcfc"/>
        <path d="M503.6806,839.75a14.14876,14.14876,0,0,0-11.74652,6.49609c5.76849-3.40216,13.56616-1.887,16.54712,2.02313l-.036.00818a10.63058,10.63058,0,0,1,2.32922,6.82867c0,5.09766-3.18262,9.24414-7.09381,9.24414s-7.09387-4.14648-7.09387-9.24414a11.16369,11.16369,0,0,1,1.33521-5.37744c-3.40271-1.00244-8.65973,2.31342-8.44647,7.04968l-.11475-.01721c.77728,7.69165,6.90045,13.70111,14.31989,13.70111,7.94434,0,14.40686-6.88849,14.40686-15.35614S511.62494,839.75,503.6806,839.75Z" style="fill: #fcfcfc"/>
      </g>
    </g>
    <path d="M451.33777,425.63845,473.875,488s-41.78187,39.297-92.375,63.66667c-54.13309,26.07482-118.2911,35.2422-150.16667-33.33333C309.33333,581,451.33777,425.63845,451.33777,425.63845Z" style="fill: url(#baf83f32-3800-407b-91d0-f5192e960340)"/>
    <path d="M388.33333,563C377.66667,573.66667,225.83457,684.13149,153,573c-34.18769-52.16381-11.214-145.47112,39.99733-211.33066,58.63351-75.40473,166.336-116.336,212.66934-44.00267C312,273,211.66667,401,211.66667,466.33333S237.66667,624.66667,388.33333,563Z" style="fill: url(#795b1e85-593e-44f3-ab3e-2a38ba3ba2bc)"/>
    <path d="M260.33333,291.66667c80.16667-65.16667,181.33333-67.33333,217.33333-16S538,395,538,395l-64.125,60.5S438,341.5,417.5,312.5,360.33333,245.33333,260.33333,291.66667Z" style="fill: url(#7823d003-4863-4491-947c-31b3ba9ee1db)"/>
    <path d="M556.33333,408,533.7961,345.63845S566.40687,315.703,617,291.33333c54.13309-26.07482,112-23,147.16667,30.5C680.83333,258.5,556.33333,408,556.33333,408Z" style="fill: url(#e3a78a5b-544a-4fbc-bf8f-d8a0eb57a7ba)"/>
    <path d="M619,276.66667c10.66667-10.66667,148.49876-95.13149,221.33333,16C874.521,344.83048,869.11928,431.19,817,496.33333c-67.11439,83.88561-160.16667,96.5-206.5,24.16667,92.16667,50.83333,180.83333-68.83333,180.83333-134.16667S752.66667,229.66667,619,276.66667Z" style="fill: url(#afb5a1d3-b12f-492a-bada-a3a22ac98346)"/>
    <path d="M768,558.73669C676.25,643,570.20833,626.07,534.20833,574.73669S473.875,455.40336,473.875,455.40336l64.125-60.5s44,114,64.5,143S673.715,615,768,558.73669Z" style="fill: url(#66f960c4-95be-4e0d-bbd2-01a4cd31b6a8)"/>
  </g>
</svg>
