<svg width="200" height="200" viewBox="0 0 200 200" fill="none" xmlns="http://www.w3.org/2000/svg">
<path d="M154.643 66.7863H136.964C135 66.7863 133.036 65.8935 131.607 64.4649L124.464 56.4292C122.321 54.1077 118.929 53.9292 116.429 55.8935L115.893 56.4292L109.821 63.3935C107.857 65.7149 104.821 66.9649 101.786 66.9649H5.17857C2.5 74.822 0.714286 83.2149 0 91.6078H91.4286C93.0357 91.6078 94.6429 90.8935 95.7143 89.822L104.286 80.8935C105.357 79.822 106.786 79.1078 108.393 79.1078H108.75C110.357 79.1078 111.964 79.822 113.036 81.072L120.179 89.1078C121.607 90.7149 123.571 91.6078 125.536 91.6078H200C199.286 83.2149 197.5 74.822 194.821 66.9649H154.643V66.7863ZM96.0714 116.072L88.9286 108.036C86.7857 105.715 83.3929 105.536 80.8929 107.501L80.3571 108.036L74.1071 115.001C72.1429 117.322 69.2857 118.572 66.25 118.572H1.42857C3.03571 127.143 5.89286 135.536 9.64286 143.572H55.1786C56.7857 143.572 58.2143 142.858 59.4643 141.786L68.0357 132.858C69.1071 131.786 70.5357 131.072 72.1429 131.072H72.5C74.1071 131.072 75.7143 131.786 76.7857 133.036L83.9286 141.072C85.3571 142.679 87.3214 143.572 89.2857 143.572H190.357C194.107 135.715 196.964 127.322 198.571 118.572H101.429C99.2857 118.572 97.3214 117.679 96.0714 116.072ZM131.071 38.2149L139.643 29.2863C140.714 28.2149 142.143 27.5006 143.75 27.5006H144.107C145.714 27.5006 147.321 28.2149 148.393 29.2863L155.536 37.322C156.964 38.9292 158.929 39.6435 160.893 39.6435H180.179C146.607 -4.64225 83.5714 -13.3923 39.1071 20.0006C31.7857 25.5363 25.1786 32.1435 19.4643 39.6435H126.786C128.571 40.0006 130 39.2863 131.071 38.2149ZM61.9643 168.215C59.8214 168.215 57.8571 167.322 56.6071 165.893L49.4643 157.858C47.3214 155.536 43.75 155.358 41.4286 157.501L41.0714 157.858L34.8214 164.822C32.8571 167.143 30 168.393 26.9643 168.393H26.6071C64.2857 208.751 128.036 210.715 168.571 172.679C170.179 171.251 171.607 169.643 173.214 168.036H61.9643V168.215Z" fill="white"/>
</svg>
