<svg width="2000" height="2000" viewBox="0 0 2000 2000" fill="none" xmlns="http://www.w3.org/2000/svg">
<circle cx="1000" cy="1000" r="1000" fill="#E75A5C"/>
<path d="M1000 250C585.796 250 250 585.787 250 1000C250 1414.21 585.796 1750 1000 1750C1414.2 1750 1750 1414.21 1750 1000C1750 585.787 1414.23 250 1000 250ZM715.998 420.744L858.674 814.989L567.286 521.714C611.692 481.517 661.704 447.426 716.027 420.744H715.998ZM495.401 598.231L760.089 864.62L420.24 717.028C440.992 674.603 466.257 634.811 495.401 598.231ZM383.421 810.098L751.667 970.047H355.685C358.215 914.628 367.757 861.032 383.421 810.098ZM357.755 1060.02H737.296L386.986 1201.13C372.212 1156.07 362.267 1108.84 357.755 1060.02ZM427.972 1298.31L777.104 1157.69L519.631 1430.48C483.876 1390.6 453.006 1346.23 427.972 1298.34V1298.31ZM597.81 1504.3L829.501 1258.84L701.742 1572.08C664.865 1552.81 630.087 1530.09 597.81 1504.3ZM939.986 1642.26C890.348 1637.69 842.349 1627.47 796.62 1612.31L939.986 1260.8V1642.26ZM939.986 744.781L809.324 383.672C851.23 370.736 894.947 361.939 939.986 357.771V744.781ZM1029.98 1644.34V993.518V355.688C1372.27 371.373 1644.98 653.824 1644.98 1000C1644.98 1346.18 1372.27 1628.66 1029.98 1644.31V1644.34Z" fill="white"/>
</svg>
