<svg width="512" height="512" viewBox="0 0 512 512" fill="none" xmlns="http://www.w3.org/2000/svg">
<g clip-path="url(#clip0_1125_276)">
<circle cx="255.5" cy="255.5" r="256.5" fill="white"/>
<path d="M341 132.464H170V170H341V132.464Z" fill="#E50913"/>
<path d="M256.248 420.244C240.089 420.244 225.61 417.585 212.809 412.268C200.008 406.95 189.726 399.081 181.961 388.659C174.407 378.237 170.42 365.688 170 351.012H227.289C228.128 359.307 230.961 365.688 235.787 370.154C240.614 374.408 246.909 376.535 254.674 376.535C262.648 376.535 268.943 374.727 273.56 371.111C278.177 367.283 280.485 362.072 280.485 355.479C280.485 349.948 278.596 345.376 274.819 341.76C271.252 338.144 266.74 335.166 261.284 332.827C256.038 330.487 248.483 327.828 238.62 324.851C224.351 320.384 212.704 315.917 203.681 311.451C194.657 306.984 186.893 300.391 180.387 291.67C173.882 282.95 170.63 271.571 170.63 257.533C170.63 236.689 178.079 220.418 192.978 208.72C207.878 196.809 227.289 190.854 251.211 190.854C275.554 190.854 295.174 196.809 310.074 208.72C324.973 220.418 332.947 236.795 333.996 257.852H275.763C275.344 250.62 272.721 244.984 267.894 240.943C263.068 236.689 256.877 234.562 249.323 234.562C242.817 234.562 237.571 236.37 233.584 239.986C229.597 243.389 227.603 248.387 227.603 254.981C227.603 262.212 230.961 267.849 237.676 271.89C244.391 275.931 254.884 280.291 269.153 284.971C283.423 289.862 294.965 294.542 303.778 299.008C312.802 303.475 320.566 309.962 327.071 318.47C333.577 326.978 336.829 337.931 336.829 351.331C336.829 364.093 333.577 375.684 327.071 386.106C320.776 396.528 311.543 404.823 299.371 410.992C287.2 417.16 272.826 420.244 256.248 420.244Z" fill="black"/>
</g>
<defs>
<clipPath id="clip0_1125_276">
<rect width="512" height="512" fill="white"/>
</clipPath>
</defs>
</svg>
