<svg version="1.1" id="Layer_1" xmlns="http://www.w3.org/2000/svg" xmlns:xlink="http://www.w3.org/1999/xlink" x="0px" y="0px"
	 width="100%" viewBox="0 0 65 57" enable-background="new 0 0 65 57" xml:space="preserve">
<path fill="#FFFFFF" opacity="1.000000" stroke="none" 
	d="
M47.000000,1.000000 
	C53.333332,1.000000 59.666668,1.000000 66.000000,1.000000 
	C66.000000,19.999998 66.000000,38.999996 66.000000,57.999996 
	C45.666672,58.000000 25.333286,58.018791 5.000146,57.957085 
	C3.665809,57.953033 2.333339,57.333332 1.268917,56.536049 
	C1.710303,56.017578 1.882773,55.963058 2.514814,55.985214 
	C20.508841,56.061893 38.043297,56.061893 55.783802,56.061893 
	C55.664871,54.299095 55.587860,53.157669 55.617882,51.663166 
	C55.646015,49.852314 55.567116,48.394547 55.583328,46.745522 
	C55.766300,46.253998 55.703789,45.989304 55.728676,45.470154 
	C55.948910,42.461754 55.931377,39.743393 56.080616,36.750439 
	C56.103741,35.878780 55.960091,35.281723 55.824005,34.335968 
	C55.712418,33.306019 55.593258,32.624760 55.604912,31.720669 
	C55.760216,31.154892 55.784710,30.811954 56.054482,30.251789 
	C56.308388,28.964979 56.317013,27.895399 56.472698,26.536806 
	C56.363186,25.117067 56.106613,23.986341 55.830750,22.512325 
	C55.708466,21.491331 55.605473,20.813627 55.611012,19.865145 
	C55.652431,19.022787 55.585320,18.451204 55.623417,17.483574 
	C55.654842,15.730699 55.581051,14.373872 55.610256,12.692678 
	C55.177631,11.231746 54.642017,10.095181 53.983025,8.674753 
	C52.944813,7.581183 52.029972,6.771475 50.978001,5.663992 
	C49.560581,3.910811 48.280293,2.455405 47.000000,1.000000 
z"/>
<path fill="#09BEF7" opacity="1.000000" stroke="none" 
	d="
M46.531342,1.000000 
	C48.280293,2.455405 49.560581,3.910811 50.553532,5.676309 
	C47.760750,6.326214 45.255306,6.666027 42.597885,6.823942 
	C42.445908,6.642045 42.201900,6.235601 42.410961,5.975776 
	C42.273720,4.998381 41.927414,4.280812 41.250256,3.358806 
	C31.547556,3.154369 22.175709,3.154369 12.510048,3.154369 
	C12.274546,4.495173 12.054462,5.748191 11.393848,7.000727 
	C8.031990,7.001446 5.110662,7.002648 2.125402,6.590125 
	C2.085617,4.781880 2.109764,3.387360 2.326662,1.874867 
	C2.755070,1.552541 2.915266,1.300243 3.000000,1.000000 
	C17.354227,1.000000 31.708456,1.000000 46.531342,1.000000 
z"/>
<path fill="#6A81B4" opacity="1.000000" stroke="none" 
	d="
M2.055242,55.908535 
	C1.882773,55.963058 1.710303,56.017578 1.268917,56.036049 
	C1.000000,52.969406 1.000000,49.938812 1.239205,46.452160 
	C1.478411,45.996101 1.956550,45.979507 1.996383,46.398750 
	C2.105706,48.217163 2.175197,49.616329 2.180720,51.419060 
	C2.096249,53.184589 2.075745,54.546562 2.055242,55.908535 
z"/>
<path fill="#66B9E1" opacity="1.000000" stroke="none" 
	d="
M1.000000,26.000000 
	C1.000000,22.969406 1.000000,19.938814 1.236515,16.453968 
	C1.473031,15.999715 1.946045,16.003645 2.002207,16.258396 
	C2.105143,16.680635 2.151917,16.848120 2.148387,17.414654 
	C2.133243,18.884563 2.168401,19.955423 2.154049,21.439161 
	C2.048809,23.237947 1.993080,24.623857 1.703039,26.004860 
	C1.468727,25.999952 1.000000,26.000000 1.000000,26.000000 
z"/>
<path fill="#62D7FB" opacity="1.000000" stroke="none" 
	d="
M2.133911,1.992840 
	C2.109764,3.387360 2.085617,4.781880 2.069502,6.961448 
	C2.032667,8.495057 1.987800,9.243619 1.707185,9.992342 
	C1.471437,9.992504 1.000000,10.000000 1.000000,10.000000 
	C1.000000,7.000000 1.000000,4.000000 1.519062,1.250154 
	C2.070053,1.664486 2.101982,1.828663 2.133911,1.992840 
z"/>
<path fill="#689ECC" opacity="1.000000" stroke="none" 
	d="
M1.000000,37.000000 
	C1.000000,35.285625 1.000000,33.571247 1.243126,31.428185 
	C1.486253,30.999498 1.972485,31.003944 2.003307,31.404934 
	C2.097299,32.875736 2.160469,33.945549 2.155130,35.341461 
	C2.039593,36.109455 1.992565,36.551342 1.709154,36.995110 
	C1.472771,36.996990 1.000000,37.000000 1.000000,37.000000 
z"/>
<path fill="#65CAF0" opacity="1.000000" stroke="none" 
	d="
M1.000000,10.428720 
	C1.000000,10.000000 1.471437,9.992504 1.770563,10.245016 
	C2.109977,10.666323 2.150264,10.835119 2.134820,11.377541 
	C2.118220,12.503174 2.157350,13.255183 2.145128,14.338593 
	C2.044533,15.114545 1.995289,15.559094 1.946045,16.003645 
	C1.946045,16.003645 1.473031,15.999715 1.236515,15.999857 
	C1.000000,14.285813 1.000000,12.571628 1.000000,10.428720 
z"/>
<path fill="#5E8DBF" opacity="1.000000" stroke="none" 
	d="
M1.956550,45.979507 
	C1.956550,45.979507 1.478411,45.996101 1.239205,45.998051 
	C1.000000,44.611004 1.000000,43.222004 1.239111,41.412045 
	C1.478223,40.991081 1.956361,40.978432 1.994687,41.358376 
	C2.104303,42.496990 2.175592,43.255661 2.193220,44.371132 
	C2.181950,45.206314 2.224341,45.684704 2.187289,46.120399 
	C2.107846,46.077709 1.956550,45.979507 1.956550,45.979507 
z"/>
<path fill="#5CABD8" opacity="1.000000" stroke="none" 
	d="
M1.972485,31.003944 
	C1.972485,31.003944 1.486253,30.999498 1.243126,30.999748 
	C1.000000,29.610678 1.000000,28.221354 1.000000,26.416016 
	C1.000000,26.000000 1.468727,25.999952 1.781122,25.983917 
	C2.093518,25.967884 2.253054,25.946297 2.184042,26.330967 
	C2.159536,27.490578 2.204043,28.265522 2.193658,29.366358 
	C2.083339,30.129482 2.027912,30.566713 1.972485,31.003944 
z"/>
<path fill="#5D98C8" opacity="1.000000" stroke="none" 
	d="
M1.956361,40.978432 
	C1.956361,40.978432 1.478223,40.991081 1.239111,40.995541 
	C1.000000,39.933212 1.000000,38.866425 1.000000,37.399818 
	C1.000000,37.000000 1.472771,36.996990 1.775716,37.249886 
	C2.129345,37.670696 2.180029,37.838604 2.166301,38.386921 
	C2.147572,39.534954 2.193256,40.302582 2.167574,41.049488 
	C2.096208,41.028767 1.956361,40.978432 1.956361,40.978432 
z"/>
<path fill="#18BFF5" opacity="1.000000" stroke="none" 
	d="
M2.326662,1.874867 
	C2.101982,1.828663 2.070053,1.664486 2.019062,1.250154 
	C2.000000,1.000000 2.500000,1.000000 2.750000,1.000000 
	C2.915266,1.300243 2.755070,1.552541 2.326662,1.874867 
z"/>
<path fill="#113283" opacity="1.000000" stroke="none" 
	d="
M2.514814,55.985214 
	C2.075745,54.546562 2.096249,53.184589 2.592914,51.414368 
	C5.033976,51.006012 6.998875,51.005901 9.168653,51.163673 
	C9.547097,51.806572 9.720663,52.291588 9.984331,53.096413 
	C11.478446,53.444763 12.882459,53.473309 14.735629,53.515884 
	C23.965759,53.529793 32.749916,53.649284 41.524685,53.415916 
	C43.049118,53.375370 44.533909,51.844204 46.458725,51.001110 
	C49.757248,51.339211 52.634052,51.677727 55.510857,52.016243 
	C55.587860,53.157669 55.664871,54.299095 55.783802,56.061893 
	C38.043297,56.061893 20.508841,56.061893 2.514814,55.985214 
z"/>
<path fill="#0F549F" opacity="1.000000" stroke="none" 
	d="
M55.913841,37.025036 
	C55.931377,39.743393 55.948910,42.461754 55.543243,45.045914 
	C55.029850,44.618504 54.939659,44.325291 54.882786,43.623802 
	C52.918575,38.709549 48.949646,42.063053 45.978577,40.594887 
	C45.925167,38.793289 45.981407,37.398022 46.460373,36.001694 
	C49.563007,36.333488 52.242924,36.666348 55.169270,37.056351 
	C55.581745,37.084011 55.747791,37.054523 55.913841,37.025036 
z"/>
<path fill="#0BA5E2" opacity="1.000000" stroke="none" 
	d="
M55.507263,13.017044 
	C55.581051,14.373872 55.654842,15.730699 55.291580,17.296833 
	C50.912910,17.333813 46.971291,17.161488 42.961967,16.601194 
	C42.675117,15.477858 42.455971,14.742488 42.346527,13.742455 
	C42.556492,13.315212 42.656750,13.152637 43.231274,12.993477 
	C47.639450,13.003609 51.573357,13.010326 55.507263,13.017044 
z"/>
<path fill="#0AAEEA" opacity="1.000000" stroke="none" 
	d="
M55.610256,12.692678 
	C51.573357,13.010326 47.639450,13.003609 43.127750,12.626644 
	C42.619202,11.503593 42.688450,10.750791 43.218895,9.998945 
	C47.155533,9.652808 50.630966,9.305712 54.106400,8.958614 
	C54.642017,10.095181 55.177631,11.231746 55.610256,12.692678 
z"/>
<path fill="#113989" opacity="1.000000" stroke="none" 
	d="
M55.617882,51.663162 
	C52.634052,51.677727 49.757248,51.339211 46.360611,50.608017 
	C45.916660,49.144825 45.992542,48.074306 46.526428,47.003315 
	C49.819031,46.980820 52.653622,46.958797 55.488216,46.936775 
	C55.567116,48.394547 55.646015,49.852314 55.617882,51.663162 
z"/>
<path fill="#0E66AE" opacity="1.000000" stroke="none" 
	d="
M54.922840,36.999207 
	C52.242924,36.666348 49.563007,36.333488 46.364765,35.608341 
	C45.912067,34.144741 45.977695,33.073429 46.501980,32.001892 
	C49.798458,31.982275 52.636280,31.962891 55.474102,31.943504 
	C55.593258,32.624760 55.712418,33.306019 55.564827,34.671936 
	C55.173000,35.904133 55.047920,36.451672 54.922840,36.999207 
z"/>
<path fill="#0B9AD9" opacity="1.000000" stroke="none" 
	d="
M43.029667,16.989162 
	C46.971291,17.161488 50.912910,17.333813 55.186371,17.692881 
	C55.585320,18.451204 55.652431,19.022787 55.112282,19.827866 
	C50.669552,20.059311 46.834091,20.057261 42.954597,20.004612 
	C42.910568,19.954016 42.832104,19.846458 42.835648,19.525747 
	C42.745602,18.790096 42.652016,18.375158 42.679375,17.718975 
	C42.876770,17.314875 42.953220,17.152018 43.029667,16.989162 
z"/>
<path fill="#0AB6F0" opacity="1.000000" stroke="none" 
	d="
M53.983025,8.674753 
	C50.630966,9.305712 47.155533,9.652808 43.116600,9.632062 
	C42.618690,8.511426 42.684277,7.758633 42.749863,7.005839 
	C45.255306,6.666027 47.760750,6.326214 50.690662,5.974084 
	C52.029972,6.771475 52.944813,7.581183 53.983025,8.674753 
z"/>
<path fill="#0C90D1" opacity="1.000000" stroke="none" 
	d="
M42.998631,20.055206 
	C46.834091,20.057261 50.669552,20.059311 55.003746,20.098642 
	C55.605473,20.813627 55.708466,21.491331 55.586102,22.511688 
	C55.360741,22.854342 54.886528,22.961887 54.442299,22.975830 
	C51.884796,22.992777 49.677631,23.375223 47.686977,22.882664 
	C45.994606,22.463911 44.551834,21.036400 42.998631,20.055206 
z"/>
<path fill="#104390" opacity="1.000000" stroke="none" 
	d="
M55.583328,46.745522 
	C52.653622,46.958797 49.819031,46.980820 46.432671,46.633270 
	C45.951824,45.509960 46.022739,44.756222 46.534378,44.002670 
	C49.599895,44.012596 52.224682,44.022339 54.849472,44.032082 
	C54.939659,44.325291 55.029850,44.618504 55.305477,45.335957 
	C55.703789,45.989304 55.766300,46.253998 55.583328,46.745522 
z"/>
<path fill="#0E72B7" opacity="1.000000" stroke="none" 
	d="
M55.604912,31.720669 
	C52.636280,31.962891 49.798458,31.982275 46.411674,31.824272 
	C45.862713,31.646885 45.880222,31.248781 46.062626,30.889202 
	C49.127453,30.020473 52.009880,29.511322 55.066658,29.403179 
	C55.430412,30.025795 55.619804,30.247406 55.809200,30.469015 
	C55.784710,30.811954 55.760216,31.154892 55.604912,31.720669 
z"/>
<path fill="#5CABD8" opacity="1.000000" stroke="none" 
	d="
M56.054482,30.251789 
	C55.619804,30.247406 55.430412,30.025795 55.107208,29.024128 
	C54.938919,27.482828 54.904438,26.721588 54.940346,25.979097 
	C55.010727,25.997847 55.154240,26.022833 55.322632,26.091244 
	C55.769230,26.381706 56.047436,26.603762 56.325642,26.825817 
	C56.317013,27.895399 56.308388,28.964979 56.054482,30.251789 
z"/>
<path fill="#5BB9E4" opacity="1.000000" stroke="none" 
	d="
M56.472698,26.536806 
	C56.047436,26.603762 55.769230,26.381706 55.270870,25.710491 
	C54.995987,24.494850 54.941257,23.728369 54.886528,22.961887 
	C54.886528,22.961887 55.360741,22.854342 55.605392,22.854977 
	C56.106613,23.986341 56.363186,25.117067 56.472698,26.536806 
z"/>
<path fill="#5CABD8" opacity="1.000000" stroke="none" 
	d="
M55.169270,37.056351 
	C55.047920,36.451672 55.173000,35.904133 55.557259,35.020630 
	C55.960091,35.281723 56.103741,35.878780 56.080616,36.750439 
	C55.747791,37.054523 55.581745,37.084011 55.169270,37.056351 
z"/>
<path fill="#FEFFFF" opacity="1.000000" stroke="none" 
	d="
M42.597885,6.823942 
	C42.684277,7.758633 42.618690,8.511426 42.655399,9.631104 
	C42.688450,10.750791 42.619202,11.503593 42.653481,12.623230 
	C42.656750,13.152637 42.556492,13.315212 42.185707,14.021418 
	C41.837460,15.661733 41.759735,16.758419 41.502686,18.154552 
	C41.427204,19.115210 41.531048,19.776423 41.137074,20.551254 
	C32.868950,20.902111 25.098650,21.139345 17.027798,21.158993 
	C15.244931,20.863420 13.762615,20.785433 12.195818,20.342655 
	C12.011108,18.986841 11.910878,17.995817 11.880280,16.632423 
	C11.902576,15.507053 11.855241,14.754057 11.879513,13.629369 
	C11.902411,12.505131 11.853703,11.752584 11.881219,10.604734 
	C11.916420,9.140024 11.875399,8.070618 11.834378,7.001210 
	C12.054462,5.748191 12.274546,4.495173 12.510048,3.154369 
	C22.175709,3.154369 31.547556,3.154369 41.082851,3.643563 
	C41.564831,4.833705 41.883366,5.534653 42.201900,6.235601 
	C42.201900,6.235601 42.445908,6.642045 42.597885,6.823942 
M32.227291,10.738344 
	C32.289516,11.496541 32.351746,12.254738 32.225647,13.847304 
	C31.706003,16.779348 33.135273,17.552261 35.831448,17.429150 
	C39.219524,17.274441 38.940392,15.309759 38.620762,12.292225 
	C38.526405,11.521867 38.432045,10.751509 38.612976,9.307339 
	C37.365158,8.355087 36.117340,7.402837 34.869522,6.450586 
	C34.052166,7.632279 33.234814,8.813972 32.227291,10.738344 
z"/>
<path fill="#09B5EF" opacity="1.000000" stroke="none" 
	d="
M11.393848,7.000727 
	C11.875399,8.070618 11.916420,9.140024 11.442823,10.604794 
	C8.015655,11.001409 5.103103,11.002663 2.190552,11.003916 
	C2.150264,10.835119 2.109977,10.666323 2.006311,10.244854 
	C1.987800,9.243619 2.032667,8.495057 2.133434,7.375174 
	C5.110662,7.002648 8.031990,7.001446 11.393848,7.000727 
z"/>
<path fill="#A2E7FC" opacity="1.000000" stroke="none" 
	d="
M42.410961,5.975776 
	C41.883366,5.534653 41.564831,4.833705 41.413704,3.848000 
	C41.927414,4.280812 42.273720,4.998381 42.410961,5.975776 
z"/>
<path fill="#113989" opacity="1.000000" stroke="none" 
	d="
M8.963775,51.005791 
	C6.998875,51.005901 5.033976,51.006012 2.656882,51.010811 
	C2.175197,49.616329 2.105706,48.217163 1.996383,46.398750 
	C1.956550,45.979507 2.107846,46.077709 2.521894,46.255348 
	C4.940171,46.618561 6.944398,46.804138 8.971823,47.391144 
	C8.984604,48.863644 8.974189,49.934715 8.963775,51.005791 
z"/>
<path fill="#0C87C9" opacity="1.000000" stroke="none" 
	d="
M17.328350,21.376579 
	C25.098650,21.139345 32.868950,20.902111 41.338264,20.456722 
	C42.266766,20.044504 42.531708,19.910467 42.832104,19.846458 
	C42.832104,19.846458 42.910568,19.954016 42.954597,20.004612 
	C44.551834,21.036400 45.994606,22.463911 47.686977,22.882664 
	C49.677631,23.375223 51.884796,22.992777 54.442299,22.975830 
	C54.941257,23.728369 54.995987,24.494850 55.102478,25.642082 
	C55.154240,26.022833 55.010727,25.997847 54.484993,25.993771 
	C36.723854,25.975229 19.488455,25.960764 2.253054,25.946297 
	C2.253054,25.946297 2.093518,25.967884 2.015434,25.988827 
	C1.993080,24.623857 2.048809,23.237947 2.568444,21.430782 
	C6.046007,21.327055 9.059664,21.644583 12.515855,21.977556 
	C14.415043,21.787525 15.871696,21.582052 17.328350,21.376579 
z"/>
<path fill="#0C99D8" opacity="1.000000" stroke="none" 
	d="
M12.073320,21.962112 
	C9.059664,21.644583 6.046007,21.327055 2.617955,21.017906 
	C2.168401,19.955423 2.133243,18.884563 2.577539,17.409325 
	C5.974879,17.004896 8.892764,17.004847 11.810649,17.004795 
	C11.910878,17.995817 12.011108,18.986841 12.104353,20.649881 
	C12.089353,21.535303 12.081336,21.748709 12.073320,21.962112 
z"/>
<path fill="#0AA4E1" opacity="1.000000" stroke="none" 
	d="
M11.880280,16.632423 
	C8.892764,17.004847 5.974879,17.004896 2.627842,17.010277 
	C2.151917,16.848120 2.105143,16.680635 2.002207,16.258396 
	C1.995289,15.559094 2.044533,15.114545 2.574563,14.336187 
	C5.972869,14.001940 8.890388,14.001500 11.807906,14.001060 
	C11.855241,14.754057 11.902576,15.507053 11.880280,16.632423 
z"/>
<path fill="#0E5DA7" opacity="1.000000" stroke="none" 
	d="
M2.230714,38.006516 
	C2.180029,37.838604 2.129345,37.670696 2.012099,37.248009 
	C1.992565,36.551342 2.039593,36.109455 2.556040,35.336899 
	C5.027094,34.358093 7.028728,33.709953 9.259307,33.043884 
	C9.488252,33.025955 9.944869,32.976479 10.072186,33.385376 
	C10.110908,35.200867 10.022312,36.607460 9.500566,38.011841 
	C6.788515,38.008591 4.509614,38.007553 2.230714,38.006516 
z"/>
<path fill="#0E66AE" opacity="1.000000" stroke="none" 
	d="
M9.030361,33.061813 
	C7.028728,33.709953 5.027094,34.358093 2.624549,35.010796 
	C2.160469,33.945549 2.097299,32.875736 2.003307,31.404934 
	C2.027912,30.566713 2.083339,30.129482 2.374602,29.364531 
	C2.610438,29.036810 2.975712,29.035666 2.994396,29.429829 
	C4.997396,30.552309 6.981711,31.280624 8.979921,32.272289 
	C9.005998,32.711029 9.018180,32.886421 9.030361,33.061813 
z"/>
<path fill="#09ACE8" opacity="1.000000" stroke="none" 
	d="
M11.879513,13.629369 
	C8.890388,14.001500 5.972869,14.001940 2.625915,14.004786 
	C2.157350,13.255183 2.118220,12.503174 2.134820,11.377541 
	C5.103103,11.002663 8.015655,11.001409 11.366601,11.000096 
	C11.853703,11.752584 11.902411,12.505131 11.879513,13.629369 
z"/>
<path fill="#104390" opacity="1.000000" stroke="none" 
	d="
M8.948627,46.989716 
	C6.944398,46.804138 4.940171,46.618561 2.601338,46.298035 
	C2.224341,45.684704 2.181950,45.206314 2.601710,44.366859 
	C5.311501,42.975368 9.219319,46.383362 10.120654,41.310287 
	C10.247789,41.206810 10.521749,41.026726 10.465879,41.446716 
	C10.301125,43.533028 10.192237,45.199345 9.892767,46.867508 
	C9.453915,46.927734 9.202729,46.967857 8.948627,46.989716 
z"/>
<path fill="#104B97" opacity="1.000000" stroke="none" 
	d="
M9.993519,41.413765 
	C9.219319,46.383362 5.311501,42.975368 2.655371,44.010063 
	C2.175592,43.255661 2.104303,42.496990 1.994687,41.358376 
	C1.956361,40.978432 2.096208,41.028767 2.590152,41.024696 
	C5.387237,41.151672 7.690378,41.282719 9.993519,41.413765 
z"/>
<path fill="#0C7DC0" opacity="1.000000" stroke="none" 
	d="
M9.259306,33.043884 
	C9.018180,32.886421 9.005998,32.711029 8.980135,31.872883 
	C8.152153,27.227142 4.988456,29.716871 2.975712,29.035666 
	C2.975712,29.035666 2.610438,29.036810 2.429494,29.038637 
	C2.204043,28.265522 2.159536,27.490578 2.184042,26.330967 
	C19.488455,25.960764 36.723854,25.975229 54.414608,25.975021 
	C54.904438,26.721588 54.938919,27.482828 54.932850,28.623119 
	C52.009880,29.511322 49.127453,30.020473 45.610710,30.774849 
	C34.372456,30.854797 23.768417,30.617937 13.164752,30.633648 
	C12.090303,30.635239 11.018109,32.159065 9.944869,32.976479 
	C9.944869,32.976479 9.488252,33.025955 9.259306,33.043884 
z"/>
<path fill="#0F549F" opacity="1.000000" stroke="none" 
	d="
M10.120654,41.310287 
	C7.690378,41.282719 5.387237,41.151672 2.661518,41.045418 
	C2.193256,40.302582 2.147572,39.534954 2.166301,38.386921 
	C4.509614,38.007553 6.788515,38.008591 9.684223,38.264126 
	C10.374603,39.354656 10.448175,40.190693 10.521749,41.026726 
	C10.521749,41.026726 10.247789,41.206810 10.120654,41.310287 
z"/>
<path fill="#FFFFFF" opacity="1.000000" stroke="none" 
	d="
M10.465879,41.446716 
	C10.448175,40.190693 10.374603,39.354656 10.117373,38.266335 
	C10.022312,36.607460 10.110908,35.200867 10.072186,33.385376 
	C11.018109,32.159065 12.090303,30.635239 13.164752,30.633648 
	C23.768417,30.617937 34.372456,30.854797 45.428307,31.134428 
	C45.880222,31.248781 45.862713,31.646885 45.953018,31.824503 
	C45.977695,33.073429 45.912067,34.144741 45.942047,35.609398 
	C45.981407,37.398022 45.925167,38.793289 45.877853,40.963745 
	C45.955738,42.493443 46.024696,43.247963 46.093655,44.002480 
	C46.022739,44.756222 45.951824,45.509960 45.974663,46.633743 
	C45.992542,48.074306 45.916660,49.144825 45.938892,50.608437 
	C44.533909,51.844204 43.049118,53.375370 41.524685,53.415916 
	C32.749916,53.649284 23.965759,53.529793 14.333426,53.323380 
	C12.592525,53.072437 11.702985,53.028027 10.740463,52.543442 
	C10.472770,50.357399 10.278060,48.611530 10.083350,46.865662 
	C10.192237,45.199345 10.301125,43.533028 10.465879,41.446716 
M22.497433,39.195835 
	C20.310101,39.386269 18.122768,39.576706 15.935436,39.767139 
	C15.954811,40.079941 15.974186,40.392742 15.993561,40.705544 
	C19.884378,40.705544 23.775194,40.705544 27.666012,40.705544 
	C27.689772,40.443951 27.713531,40.182358 27.737291,39.920765 
	C26.351128,39.571060 24.964966,39.221355 23.546148,38.913227 
	C23.546148,38.913227 23.407175,38.873569 22.497433,39.195835 
M24.843090,35.522259 
	C24.558699,35.369247 24.274309,35.216236 23.142197,34.762276 
	C21.188044,34.758465 19.229267,34.697941 17.288328,34.856205 
	C17.129389,34.869171 17.091980,36.372566 17.548050,37.758270 
	C19.976999,37.382999 22.405949,37.007725 24.770983,36.321239 
	C24.770983,36.321239 24.680149,36.016792 24.843090,35.522259 
z"/>
<path fill="#3765A5" opacity="1.000000" stroke="none" 
	d="
M9.892767,46.867508 
	C10.278060,48.611530 10.472770,50.357399 10.517607,52.462013 
	C10.367733,52.820759 9.894230,52.776608 9.894230,52.776608 
	C9.720663,52.291588 9.547097,51.806572 9.168653,51.163673 
	C8.974189,49.934715 8.984604,48.863644 8.971823,47.391144 
	C9.202729,46.967857 9.453915,46.927734 9.892767,46.867508 
z"/>
<path fill="#96ABCD" opacity="1.000000" stroke="none" 
	d="
M9.984331,53.096413 
	C9.894230,52.776608 10.367733,52.820759 10.590590,52.902191 
	C11.702985,53.028027 12.592525,53.072437 13.884268,53.309349 
	C12.882459,53.473309 11.478446,53.444763 9.984331,53.096413 
z"/>
<path fill="#104B97" opacity="1.000000" stroke="none" 
	d="
M46.534378,44.002670 
	C46.024696,43.247963 45.955738,42.493443 45.987503,41.370068 
	C48.949646,42.063053 52.918575,38.709549 54.882786,43.623802 
	C52.224682,44.022339 49.599895,44.012596 46.534378,44.002670 
z"/>
<path fill="#A2E7FC" opacity="1.000000" stroke="none" 
	d="
M41.682014,17.855104 
	C41.759735,16.758419 41.837460,15.661733 42.076000,14.286083 
	C42.455971,14.742488 42.675117,15.477858 42.961967,16.601194 
	C42.953220,17.152018 42.876770,17.314875 42.459980,17.699844 
	C42.119644,17.921959 41.682014,17.855104 41.682014,17.855104 
z"/>
<path fill="#A6D7EE" opacity="1.000000" stroke="none" 
	d="
M41.502686,18.154552 
	C41.682014,17.855104 42.119644,17.921959 42.339035,17.941090 
	C42.652016,18.375158 42.745602,18.790096 42.835648,19.525747 
	C42.531708,19.910467 42.266766,20.044504 41.836082,20.343102 
	C41.531048,19.776423 41.427204,19.115210 41.502686,18.154552 
z"/>
<path fill="#0BA5E2" opacity="1.000000" stroke="none" 
	d="
M38.336945,13.029009 
	C38.940392,15.309759 39.219524,17.274441 35.831448,17.429150 
	C33.135273,17.552261 31.706003,16.779348 32.693550,13.427286 
	C34.886620,13.014516 36.611782,13.021763 38.336945,13.029009 
z"/>
<path fill="#09B5EF" opacity="1.000000" stroke="none" 
	d="
M32.417458,9.995665 
	C33.234814,8.813972 34.052166,7.632279 34.869522,6.450586 
	C36.117340,7.402837 37.365158,8.355087 38.110649,9.651583 
	C35.878033,9.995773 34.147747,9.995719 32.417458,9.995665 
z"/>
<path fill="#0AAEEA" opacity="1.000000" stroke="none" 
	d="
M32.322372,10.367004 
	C34.147747,9.995719 35.878033,9.995773 37.973003,9.988489 
	C38.432045,10.751509 38.526405,11.521867 38.478851,12.660617 
	C36.611782,13.021763 34.886620,13.014516 32.787716,13.010101 
	C32.351746,12.254738 32.289516,11.496541 32.322372,10.367004 
z"/>
<path fill="#66B9E1" opacity="1.000000" stroke="none" 
	d="
M12.515855,21.977556 
	C12.081336,21.748709 12.089353,21.535303 12.188834,21.014671 
	C13.762615,20.785433 15.244931,20.863420 17.027798,21.158993 
	C15.871696,21.582052 14.415043,21.787525 12.515855,21.977556 
z"/>
<path fill="#0E72B7" opacity="1.000000" stroke="none" 
	d="
M2.994396,29.429829 
	C4.988456,29.716871 8.152153,27.227142 8.966240,31.609531 
	C6.981711,31.280624 4.997396,30.552309 2.994396,29.429829 
z"/>
<path fill="#2770B1" opacity="1.000000" stroke="none" 
	d="
M16.998100,37.183430 
	C17.091980,36.372566 17.129389,34.869171 17.288328,34.856205 
	C19.229267,34.697941 21.188044,34.758465 23.626377,35.108223 
	C24.222139,35.720959 24.412003,35.908501 24.680149,36.016792 
	C24.680149,36.016792 24.770983,36.321239 24.373085,36.544373 
	C21.649490,36.906151 19.323795,37.044788 16.998100,37.183430 
z"/>
<path fill="#0F509C" opacity="1.000000" stroke="none" 
	d="
M23.578802,38.871651 
	C24.964966,39.221355 26.351128,39.571060 27.737291,39.920765 
	C27.713531,40.182358 27.689772,40.443951 27.666012,40.705544 
	C23.775194,40.705544 19.884378,40.705544 15.993561,40.705544 
	C15.974186,40.392742 15.954811,40.079941 15.935436,39.767139 
	C18.122768,39.576706 20.310101,39.386269 22.999577,39.202282 
	C23.501719,39.208729 23.578802,38.871651 23.578802,38.871651 
z"/>
<path fill="#D3E2EF" opacity="1.000000" stroke="none" 
	d="
M17.273075,37.470848 
	C19.323795,37.044788 21.649490,36.906151 24.405041,36.699982 
	C22.405949,37.007725 19.976999,37.382999 17.273075,37.470848 
z"/>
<path fill="#D3E2EF" opacity="1.000000" stroke="none" 
	d="
M23.562475,38.892441 
	C23.578802,38.871651 23.501719,39.208729 23.454447,39.041149 
	C23.407175,38.873569 23.546148,38.913227 23.562475,38.892441 
z"/>
<path fill="#4F8ABF" opacity="1.000000" stroke="none" 
	d="
M24.761620,35.769524 
	C24.412003,35.908501 24.222139,35.720959 24.050240,35.258698 
	C24.274309,35.216236 24.558699,35.369247 24.761620,35.769524 
z"/>
</svg>