<svg width="96" height="96" viewBox="0 0 96 96" fill="none" xmlns="http://www.w3.org/2000/svg">
<path d="M48 67.8817C37.0154 67.8817 28.1184 58.9846 28.1184 48C28.1184 37.0154 37.0154 28.1183 48 28.1183C58.9846 28.1183 67.8817 37.0154 67.8817 48C67.8817 58.9846 58.9846 67.8817 48 67.8817Z" fill="#F26057"/>
<path d="M48 67.8817C58.9804 67.8817 67.8817 58.9803 67.8817 48C67.8817 37.0197 58.9804 28.1183 48 28.1183C37.0197 28.1183 28.1184 37.0197 28.1184 48C28.1184 58.9803 37.0197 67.8817 48 67.8817Z" fill="#F26057"/>
<path d="M75.8344 48C75.8344 58.9846 84.7314 67.8817 95.716 67.8817V28.1183C84.7314 28.1183 75.8344 37.0154 75.8344 48Z" fill="#F26057"/>
<path d="M20.1657 48C20.1657 37.0154 11.2687 28.1183 0.284058 28.1183V67.8817C11.2687 67.8817 20.1657 58.9846 20.1657 48Z" fill="#F26057"/>
<path d="M48 20.1657C58.9846 20.1657 67.8817 11.2686 67.8817 0.284027H28.1184C28.1184 11.2686 37.0154 20.1657 48 20.1657Z" fill="#F26057"/>
<path d="M95.716 20.1657V0.284027H75.8344C75.8344 11.2686 84.7314 20.1657 95.716 20.1657Z" fill="#F26057"/>
<path d="M20.1657 0.284027H0.284058V20.1657C11.2687 20.1657 20.1657 11.2686 20.1657 0.284027Z" fill="#F26057"/>
<path d="M48 75.8343C37.0154 75.8343 28.1184 84.7314 28.1184 95.716H67.8817C67.8817 84.7314 58.9846 75.8343 48 75.8343Z" fill="#F26057"/>
<path d="M95.716 75.8343C84.7314 75.8343 75.8344 84.7314 75.8344 95.716H95.716V75.8343Z" fill="#F26057"/>
<path d="M0.284058 75.8343V95.716H20.1657C20.1657 84.7314 11.2687 75.8343 0.284058 75.8343Z" fill="#F26057"/>
</svg>
