<svg width="48" height="48" viewBox="0 0 48 48" fill="none" xmlns="http://www.w3.org/2000/svg">
<rect width="48" height="48" rx="24" fill="#1F1F2D"/>
<path d="M24 30C20.685 30 18 27.315 18 24C18 20.685 20.685 18 24 18C27.315 18 30 20.685 30 24C30 27.315 27.315 30 24 30Z" fill="#F26057"/>
<path d="M24 30C27.3137 30 30 27.3137 30 24C30 20.6863 27.3137 18 24 18C20.6863 18 18 20.6863 18 24C18 27.3137 20.6863 30 24 30Z" fill="#F26057"/>
<path d="M32.4 24C32.4 27.315 35.085 30 38.4 30V18C35.085 18 32.4 20.685 32.4 24Z" fill="#F26057"/>
<path d="M15.6 24C15.6 20.685 12.915 18 9.60001 18V30C12.915 30 15.6 27.315 15.6 24Z" fill="#F26057"/>
<path d="M24 15.6C27.315 15.6 30 12.915 30 9.60001H18C18 12.915 20.685 15.6 24 15.6Z" fill="#F26057"/>
<path d="M38.4 15.6V9.60001H32.4C32.4 12.915 35.085 15.6 38.4 15.6Z" fill="#F26057"/>
<path d="M15.6 9.60001H9.60001V15.6C12.915 15.6 15.6 12.915 15.6 9.60001Z" fill="#F26057"/>
<path d="M24 32.4C20.685 32.4 18 35.085 18 38.4H30C30 35.085 27.315 32.4 24 32.4Z" fill="#F26057"/>
<path d="M38.4 32.4C35.085 32.4 32.4 35.085 32.4 38.4H38.4V32.4Z" fill="#F26057"/>
<path d="M9.60001 32.4V38.4H15.6C15.6 35.085 12.915 32.4 9.60001 32.4Z" fill="#F26057"/>
</svg>
