<?xml version="1.0" standalone="no"?>
<!DOCTYPE svg PUBLIC "-//W3C//DTD SVG 20010904//EN"
 "http://www.w3.org/TR/2001/REC-SVG-20010904/DTD/svg10.dtd">
<svg version="1.0" xmlns="http://www.w3.org/2000/svg"
 width="256.000000pt" height="256.000000pt" viewBox="0 0 256.000000 256.000000"
 preserveAspectRatio="xMidYMid meet">
<metadata>
Created by potrace 1.16, written by Peter Selinger 2001-2019
</metadata>
<g transform="translate(0.000000,256.000000) scale(0.100000,-0.100000)"
fill="#000000" stroke="none">
<path d="M1190 2454 c-413 -38 -775 -279 -959 -639 -80 -158 -119 -306 -128
-485 -16 -332 106 -648 342 -885 229 -230 511 -347 835 -347 324 0 606 117
835 347 318 319 427 788 280 1215 -136 398 -486 700 -898 774 -90 17 -237 26
-307 20z m316 -88 c211 -45 395 -144 546 -292 156 -152 252 -318 310 -532 26
-99 36 -330 18 -440 -57 -360 -303 -685 -634 -838 -177 -81 -389 -117 -575
-96 -262 29 -474 128 -661 308 -138 133 -238 292 -293 469 -39 126 -50 217
-44 377 5 155 22 238 77 375 138 344 471 614 830 673 41 6 82 13 90 15 35 9
271 -5 336 -19z"/>
<path d="M1090 2266 c-395 -83 -696 -373 -792 -763 -28 -115 -30 -319 -4 -438
50 -231 191 -449 386 -597 84 -64 242 -141 350 -170 72 -19 110 -22 250 -22
197 0 277 17 435 94 281 136 485 394 551 695 26 119 24 323 -4 438 -59 239
-204 454 -398 593 -81 58 -229 127 -329 154 -102 28 -345 37 -445 16z m335
-161 c161 -28 303 -99 423 -211 178 -164 272 -375 272 -612 0 -342 -181 -626
-493 -772 -121 -57 -199 -73 -347 -73 -148 0 -226 16 -347 73 -312 146 -493
430 -493 772 0 519 472 912 985 823z"/>
<path d="M800 1629 c-51 -16 -88 -46 -110 -89 -18 -36 -20 -60 -20 -255 0
-235 4 -258 56 -307 70 -65 178 -65 247 0 46 43 58 78 64 178 l6 94 -68 0 -68
0 68 70 68 71 -7 57 c-4 31 -15 73 -25 92 -37 71 -133 112 -211 89z"/>
<path d="M1652 1629 c-18 -6 -50 -27 -71 -48 -55 -55 -64 -108 -59 -335 4
-196 9 -215 65 -268 69 -65 177 -65 247 0 44 41 56 81 56 182 l0 90 -60 0
c-33 0 -60 4 -60 8 0 4 27 34 60 67 60 59 60 60 60 118 0 98 -46 161 -135 186
-46 13 -58 13 -103 0z"/>
</g>
</svg>
