<svg width="200" height="200" viewBox="0 0 200 200" fill="none" xmlns="http://www.w3.org/2000/svg">
<path d="M18 53.0556L99.5 100.111L181 53.0556L99.5 6L18 53.0556Z" fill="#EE2F51"/>
<path d="M18 53.0557L99.5 100.111V194.223L18 147.167V53.0557Z" fill="#C32942"/>
<path d="M181 53.0557L99.5 100.111V194.223L181 147.167V53.0557Z" fill="#7D1729"/>
<path d="M45.1831 131.482L72.3465 115.797V147.167L45.1831 131.482Z" fill="#EE2F51"/>
<path d="M72.3367 115.797L45.1635 100.111V131.482L72.3367 115.797Z" fill="#7D1729"/>
<path d="M153.817 131.482L126.653 115.797V147.167L153.817 131.482Z" fill="#EE2F51"/>
<path d="M126.663 115.797L153.837 100.111V131.482L126.663 115.797Z" fill="#C32942"/>
<path d="M72.3365 53.0556L99.4999 37.3704V68.7408L72.3365 53.0556Z" fill="#7D1729"/>
<path d="M126.663 53.0556L99.5 37.3704V68.7408L126.663 53.0556Z" fill="#C32942"/>
</svg>
