<svg xmlns="http://www.w3.org/2000/svg" xmlns:xlink="http://www.w3.org/1999/xlink" id="Layer_1" x="0" y="0" version="1.1" viewBox="0 0 1000 1000" xml:space="preserve" style="enable-background:new 0 0 1000 1000"><style type="text/css">.st0{fill:#fcfcfc}.st1{fill:#3054bc}</style><path d="M844.7,155.3C752.6,63.2,630.2,12.5,500,12.5C231.2,12.5,12.5,231.2,12.5,500S231.2,987.5,500,987.5	c130.2,0,252.7-50.7,344.7-142.8c92.1-92.1,142.8-214.5,142.8-344.7S936.9,247.4,844.7,155.3z" class="st0"/><g><path d="M750.1,375.7H460.5c-2.2,0-4.2-1.2-5.3-3.3L397.9,267c-0.3-0.6-0.5-1.3-0.4-2c0.5-3.2,3-5.6,6-5.6h403.7 c3,0,5.6,2.4,6,5.6c0.1,0.7-0.1,1.4-0.4,2l-57.4,105.4C754.3,374.4,752.3,375.7,750.1,375.7z" class="st1"/></g><g><path d="M308.8,265.7l147,249.5c1.1,1.9,1.1,4.2,0.1,6.1L401.4,620c-0.3,0.6-0.8,1-1.3,1.3c-2.7,1.1-6,0-7.5-2.6 l-205-347.8c-1.5-2.6-0.9-5.9,1.4-7.8c0.5-0.4,1.1-0.6,1.8-0.6l112.8,0.2C305.7,262.7,307.7,263.9,308.8,265.7z" class="st1"/></g><g><path d="M444.6,704l142.7-252c1.1-1.9,3-3.1,5.2-3.1l112.7-2.1c0.6,0,1.3,0.1,1.8,0.5c2.3,1.8,3,5.2,1.5,7.8 L509.6,806.4c-1.5,2.6-4.7,3.7-7.5,2.7c-0.6-0.2-1.1-0.7-1.4-1.3L444.5,710C443.5,708.2,443.5,705.9,444.6,704z" class="st1"/></g></svg>