<svg width="160" height="54" viewBox="0 0 160 54" fill="none" xmlns="http://www.w3.org/2000/svg">
<g clip-path="url(#clip0_1911_30152)">
<path d="M33.0404 17.5203L41.2786 22.211L41.3354 31.6908L33.1541 36.48L24.9159 31.7893L24.859 22.3094L33.0404 17.5203Z" fill="#121212"/>
<path d="M24.7034 19.56L31.1834 15.96" stroke="#121212" stroke-width="1.32"/>
<path d="M22.4455 30.7063L22.4384 23.2934" stroke="#121212" stroke-width="1.32"/>
<path d="M43.6855 30.7063L43.6784 23.2934" stroke="#121212" stroke-width="1.32"/>
<path d="M41.437 19.56L34.957 15.96" stroke="#121212" stroke-width="1.32"/>
<path d="M34.957 38.0404L41.437 34.4404" stroke="#121212" stroke-width="1.32"/>
<path d="M31.2368 38.0404L24.7568 34.4404" stroke="#121212" stroke-width="1.32"/>
</g>
<path d="M134.535 36.1396C133.895 36.1396 133.279 36.0596 132.687 35.8996C132.095 35.7236 131.551 35.4836 131.055 35.1796C130.559 34.8596 130.127 34.4756 129.759 34.0276L131.439 32.3476C131.839 32.8116 132.295 33.1636 132.807 33.4036C133.335 33.6276 133.927 33.7396 134.583 33.7396C135.175 33.7396 135.623 33.6516 135.927 33.4756C136.231 33.2996 136.383 33.0436 136.383 32.7076C136.383 32.3556 136.239 32.0836 135.951 31.8916C135.663 31.6996 135.287 31.5396 134.823 31.4116C134.375 31.2676 133.895 31.1236 133.383 30.9796C132.887 30.8356 132.407 30.6436 131.943 30.4036C131.495 30.1476 131.127 29.8036 130.839 29.3716C130.551 28.9396 130.407 28.3796 130.407 27.6916C130.407 26.9556 130.575 26.3236 130.911 25.7956C131.263 25.2676 131.751 24.8596 132.375 24.5716C133.015 24.2836 133.775 24.1396 134.655 24.1396C135.583 24.1396 136.399 24.3076 137.103 24.6436C137.823 24.9636 138.423 25.4516 138.903 26.1076L137.223 27.7876C136.887 27.3716 136.503 27.0596 136.071 26.8516C135.639 26.6436 135.143 26.5396 134.583 26.5396C134.055 26.5396 133.647 26.6196 133.359 26.7796C133.071 26.9396 132.927 27.1716 132.927 27.4756C132.927 27.7956 133.071 28.0436 133.359 28.2196C133.647 28.3956 134.015 28.5476 134.463 28.6756C134.927 28.8036 135.407 28.9476 135.903 29.1076C136.415 29.2516 136.895 29.4596 137.343 29.7316C137.807 29.9876 138.183 30.3396 138.471 30.7876C138.759 31.2196 138.903 31.7876 138.903 32.4916C138.903 33.6116 138.511 34.4996 137.727 35.1556C136.943 35.8116 135.879 36.1396 134.535 36.1396Z" fill="#121212"/>
<path d="M125.166 35.8996V24.3796H127.806V35.8996H125.166ZM126.486 22.2676C126.038 22.2676 125.662 22.1156 125.358 21.8116C125.07 21.5076 124.926 21.1316 124.926 20.6836C124.926 20.2356 125.07 19.8596 125.358 19.5556C125.662 19.2516 126.038 19.0996 126.486 19.0996C126.95 19.0996 127.326 19.2516 127.614 19.5556C127.902 19.8596 128.046 20.2356 128.046 20.6836C128.046 21.1316 127.902 21.5076 127.614 21.8116C127.326 22.1156 126.95 22.2676 126.486 22.2676Z" fill="#121212"/>
<path d="M115.369 35.8996V24.3796H118.009V35.8996H115.369ZM118.009 29.4916L117.097 29.0356C117.097 27.5796 117.417 26.4036 118.057 25.5076C118.713 24.5956 119.697 24.1396 121.009 24.1396C121.585 24.1396 122.105 24.2436 122.569 24.4516C123.033 24.6596 123.465 24.9956 123.865 25.4596L122.137 27.2356C121.929 27.0116 121.697 26.8516 121.441 26.7556C121.185 26.6596 120.889 26.6116 120.553 26.6116C119.817 26.6116 119.209 26.8436 118.729 27.3076C118.249 27.7716 118.009 28.4996 118.009 29.4916Z" fill="#121212"/>
<path d="M107.9 36.1396C106.748 36.1396 105.708 35.8836 104.78 35.3716C103.868 34.8436 103.14 34.1236 102.596 33.2116C102.068 32.2996 101.804 31.2756 101.804 30.1396C101.804 29.0036 102.068 27.9876 102.596 27.0916C103.124 26.1796 103.836 25.4596 104.732 24.9316C105.644 24.4036 106.652 24.1396 107.756 24.1396C108.828 24.1396 109.772 24.3876 110.588 24.8836C111.42 25.3796 112.068 26.0596 112.532 26.9236C113.012 27.7876 113.252 28.7716 113.252 29.8756C113.252 30.0676 113.236 30.2676 113.204 30.4756C113.188 30.6676 113.156 30.8836 113.108 31.1236H103.652V28.9636H111.74L110.756 29.8276C110.724 29.1236 110.588 28.5316 110.348 28.0516C110.108 27.5716 109.764 27.2036 109.316 26.9476C108.884 26.6916 108.348 26.5636 107.708 26.5636C107.036 26.5636 106.452 26.7076 105.956 26.9956C105.46 27.2836 105.076 27.6916 104.804 28.2196C104.532 28.7316 104.396 29.3476 104.396 30.0676C104.396 30.7876 104.54 31.4196 104.828 31.9636C105.116 32.5076 105.524 32.9316 106.052 33.2356C106.58 33.5236 107.188 33.6676 107.876 33.6676C108.468 33.6676 109.012 33.5636 109.508 33.3556C110.02 33.1476 110.452 32.8436 110.804 32.4436L112.484 34.1476C111.924 34.8036 111.244 35.2996 110.444 35.6356C109.644 35.9716 108.796 36.1396 107.9 36.1396Z" fill="#121212"/>
<path d="M94.7945 36.1401C93.9145 36.1401 93.1305 35.9561 92.4425 35.5881C91.7545 35.2041 91.2105 34.6841 90.8105 34.0281C90.4265 33.3721 90.2345 32.6281 90.2345 31.7961V28.4841C90.2345 27.6521 90.4345 26.9081 90.8345 26.2521C91.2345 25.5961 91.7785 25.0841 92.4665 24.7161C93.1545 24.3321 93.9305 24.1401 94.7945 24.1401C95.8345 24.1401 96.7705 24.4121 97.6025 24.9561C98.4505 25.4841 99.1145 26.2041 99.5945 27.1161C100.09 28.0121 100.338 29.0281 100.338 30.1641C100.338 31.2841 100.09 32.3001 99.5945 33.2121C99.1145 34.1081 98.4505 34.8201 97.6025 35.3481C96.7705 35.8761 95.8345 36.1401 94.7945 36.1401ZM94.3625 33.6441C95.0025 33.6441 95.5625 33.5001 96.0425 33.2121C96.5385 32.9081 96.9225 32.4921 97.1945 31.9641C97.4825 31.4361 97.6265 30.8281 97.6265 30.1401C97.6265 29.4521 97.4825 28.8441 97.1945 28.3161C96.9225 27.7881 96.5385 27.3801 96.0425 27.0921C95.5625 26.7881 95.0025 26.6361 94.3625 26.6361C93.7225 26.6361 93.1545 26.7881 92.6585 27.0921C92.1625 27.3801 91.7785 27.7881 91.5065 28.3161C91.2345 28.8441 91.0985 29.4521 91.0985 30.1401C91.0985 30.8281 91.2345 31.4361 91.5065 31.9641C91.7785 32.4921 92.1625 32.9081 92.6585 33.2121C93.1545 33.5001 93.7225 33.6441 94.3625 33.6441ZM88.6265 35.9001V18.6201H91.2665V27.2121L90.8105 29.9961L91.2665 32.8041V35.9001H88.6265Z" fill="#121212"/>
<path d="M79.1108 35.8996V24.3796H81.7508V35.8996H79.1108ZM81.7508 29.4916L80.8388 29.0356C80.8388 27.5796 81.1588 26.4036 81.7988 25.5076C82.4548 24.5956 83.4388 24.1396 84.7508 24.1396C85.3268 24.1396 85.8468 24.2436 86.3108 24.4516C86.7748 24.6596 87.2068 24.9956 87.6068 25.4596L85.8788 27.2356C85.6708 27.0116 85.4388 26.8516 85.1828 26.7556C84.9268 26.6596 84.6308 26.6116 84.2948 26.6116C83.5588 26.6116 82.9508 26.8436 82.4708 27.3076C81.9908 27.7716 81.7508 28.4996 81.7508 29.4916Z" fill="#121212"/>
<path d="M71.6426 36.1396C70.4906 36.1396 69.4506 35.8836 68.5226 35.3716C67.6106 34.8436 66.8826 34.1236 66.3386 33.2116C65.8106 32.2996 65.5466 31.2756 65.5466 30.1396C65.5466 29.0036 65.8106 27.9876 66.3386 27.0916C66.8666 26.1796 67.5786 25.4596 68.4746 24.9316C69.3866 24.4036 70.3946 24.1396 71.4986 24.1396C72.5706 24.1396 73.5146 24.3876 74.3306 24.8836C75.1626 25.3796 75.8106 26.0596 76.2746 26.9236C76.7546 27.7876 76.9946 28.7716 76.9946 29.8756C76.9946 30.0676 76.9786 30.2676 76.9466 30.4756C76.9306 30.6676 76.8986 30.8836 76.8506 31.1236H67.3946V28.9636H75.4826L74.4986 29.8276C74.4666 29.1236 74.3306 28.5316 74.0906 28.0516C73.8506 27.5716 73.5066 27.2036 73.0586 26.9476C72.6266 26.6916 72.0906 26.5636 71.4506 26.5636C70.7786 26.5636 70.1946 26.7076 69.6986 26.9956C69.2026 27.2836 68.8186 27.6916 68.5466 28.2196C68.2746 28.7316 68.1386 29.3476 68.1386 30.0676C68.1386 30.7876 68.2826 31.4196 68.5706 31.9636C68.8586 32.5076 69.2666 32.9316 69.7946 33.2356C70.3226 33.5236 70.9306 33.6676 71.6186 33.6676C72.2106 33.6676 72.7546 33.5636 73.2506 33.3556C73.7626 33.1476 74.1946 32.8436 74.5466 32.4436L76.2266 34.1476C75.6666 34.8036 74.9866 35.2996 74.1866 35.6356C73.3866 35.9716 72.5386 36.1396 71.6426 36.1396Z" fill="#121212"/>
<path d="M53.6169 35.9006V33.5006H58.4409C59.2889 33.5006 59.9449 33.2366 60.4089 32.7086C60.8729 32.1806 61.1049 31.5726 61.1049 30.8846C61.1049 30.4206 61.0009 29.9886 60.7929 29.5886C60.5849 29.1886 60.2809 28.8686 59.8809 28.6286C59.4809 28.3886 59.0009 28.2686 58.4409 28.2686H53.6169V25.8686H58.0329C58.7529 25.8686 59.3289 25.6846 59.7609 25.3166C60.1929 24.9486 60.4089 24.4046 60.4089 23.6846C60.4089 22.9646 60.1929 22.4206 59.7609 22.0526C59.3289 21.6846 58.7529 21.5006 58.0329 21.5006H53.6169V19.1006H58.1049C59.2409 19.1006 60.1849 19.3086 60.9369 19.7246C61.6889 20.1406 62.2489 20.6766 62.6169 21.3326C62.9849 21.9886 63.1689 22.6926 63.1689 23.4446C63.1689 24.3246 62.9209 25.1006 62.4249 25.7726C61.9449 26.4446 61.2329 26.9886 60.2889 27.4046L60.5049 26.5406C61.5609 26.9726 62.3849 27.5806 62.9769 28.3646C63.5689 29.1486 63.8649 30.0686 63.8649 31.1246C63.8649 31.9886 63.6489 32.7806 63.2169 33.5006C62.8009 34.2206 62.1769 34.8046 61.3449 35.2526C60.5289 35.6846 59.5209 35.9006 58.3209 35.9006H53.6169ZM51.7209 35.9006V19.1006H54.4809V35.9006H51.7209Z" fill="#121212"/>
<defs>
<clipPath id="clip0_1911_30152">
<rect width="24" height="24" fill="white" transform="translate(21.0969 15)"/>
</clipPath>
</defs>
</svg>
