<?xml version="1.0" standalone="no"?>
<!DOCTYPE svg PUBLIC "-//W3C//DTD SVG 20010904//EN"
 "http://www.w3.org/TR/2001/REC-SVG-20010904/DTD/svg10.dtd">
<svg version="1.0" xmlns="http://www.w3.org/2000/svg"
 width="620.000000pt" height="620.000000pt" viewBox="0 0 620.000000 620.000000"
 preserveAspectRatio="xMidYMid meet">

<g transform="translate(0.000000,620.000000) scale(0.100000,-0.100000)"
fill="#000000" stroke="none">
<path d="M2920 5794 c-965 -90 -1778 -641 -2201 -1494 -134 -271 -218 -550
-261 -870 -19 -144 -16 -538 5 -680 90 -590 332 -1088 730 -1506 81 -86 239
-228 274 -248 14 -7 14 106 8 1095 l-7 1104 338 -335 c304 -300 449 -435 639
-596 118 -99 229 -161 375 -210 80 -26 95 -28 260 -28 153 -1 186 2 260 22
325 89 578 329 690 652 12 36 32 115 44 177 l22 112 234 -234 234 -234 -29
-73 c-109 -281 -273 -494 -529 -685 -116 -87 -275 -174 -396 -218 -153 -55
-272 -76 -460 -82 -250 -8 -413 17 -617 93 -174 65 -374 175 -456 252 -18 18
-30 23 -37 16 -7 -7 -10 -207 -8 -590 l3 -579 48 -22 c69 -33 266 -100 377
-128 507 -128 1024 -110 1520 54 709 235 1294 762 1601 1443 99 219 175 481
216 748 25 163 25 559 0 720 -94 605 -343 1113 -747 1521 -134 135 -301 278
-379 324 -11 7 -13 -173 -9 -1179 2 -652 0 -1185 -4 -1184 -4 2 -146 140 -315
308 -284 282 -470 455 -648 605 -210 176 -399 249 -645 248 -205 -1 -370 -48
-531 -151 -90 -59 -202 -162 -265 -246 -96 -127 -179 -340 -201 -517 l-8 -59
-235 235 -234 234 19 58 c50 148 180 368 295 495 61 69 222 199 338 275 411
270 945 314 1430 119 161 -65 280 -133 383 -218 26 -21 50 -38 53 -38 3 0 5
298 4 662 l-3 662 -130 42 c-144 47 -305 84 -465 109 -102 16 -482 28 -580 19z"/>
</g>
</svg>
