<svg width="256" height="256" viewBox="0 0 256 256" fill="none" xmlns="http://www.w3.org/2000/svg">
<path d="M127.9 254.4C197.543 254.4 254 197.943 254 128.3C254 58.6569 197.543 2.20001 127.9 2.20001C58.2567 2.20001 1.7998 58.6569 1.7998 128.3C1.7998 197.943 58.2567 254.4 127.9 254.4Z" fill="#1164B7"/>
<path d="M106.4 55.3L105.6 56.9C101.4 63.8 98.4998 71.1 96.7998 79C96.5998 79.9 95.9998 80.9 95.2998 81.5C83.7998 91.1 76.6998 103.3 74.4998 118.2C71.6998 136.7 76.0998 153.4 87.9998 167.9C95.9998 177.6 106.3 183.6 118.6 185.9C123.6 186.8 122.4 187.2 124.7 183.2C128.7 176.3 131.3 169 131.2 160.8C131.1 153.6 128.9 147.1 125.1 141.1C122 136.1 118.3 131.5 115 126.6C111.5 121.3 109.2 115.4 107.8 109.2C105.9 101.5 105.6 93.6 106.7 85.8C108.5 73.1 113.6 61.8 122.5 52.5C122.9 52 123.8 51.8 124.5 51.7C144 51 160.8 57.5 175.1 70.6C187.5 82.1 195.4 96.2 198.4 112.8C203 138.1 197.3 160.8 180.6 180.5C172.5 190 162.4 196.8 150.6 201.1C150 201.3 149.4 201.4 148.3 201.7C149.4 199.8 150.2 198.4 151 196.9C154.3 190.9 156.6 184.5 158.2 177.9C158.4 177 159.1 176 159.8 175.3C168.2 168.3 174.3 159.8 178 149.6C181.6 139.5 182.5 129.2 180.8 118.6C178.9 107.1 174.3 96.8 166.6 88C157.8 78 146.8 72.1 133.5 70.3C132.5 70.2 131.8 70.3 131.2 71.3C128 76.7 125.5 82.3 124.3 88.5C122.7 97.2 124.2 105.4 128.5 112.9C131.3 117.7 134.5 122.2 137.8 126.7C144.3 135.7 147.7 145.7 148.5 156.6C149.6 171.4 146 185 137.5 197.3C135.9 199.6 133.9 201.7 132 203.8C131.5 204.3 130.5 204.8 129.8 204.8C101.6 204.4 79.5998 192.9 65.3998 168.1C57.1998 153.7 54.1998 138 55.3998 121.4C56.6998 104.6 62.4998 89.6 73.4998 76.7C81.7998 67 92.1998 60.2 104.1 55.7C105.1 55.6 105.5 55.5 106.4 55.3Z" fill="white"/>
<path d="M200.3 254.9C229.461 254.9 253.1 231.261 253.1 202.1C253.1 172.939 229.461 149.3 200.3 149.3C171.139 149.3 147.5 172.939 147.5 202.1C147.5 231.261 171.139 254.9 200.3 254.9Z" fill="#AA4064"/>
<path d="M203 169C212.3 169 221.5 172.8 227.9 179.1L221.4 187.1C216.6 182 209.8 178.8 203.2 178.8C190.1 178.8 179.8 188.9 179.8 201.8C179.8 214.7 190.1 224.9 203.2 224.9C209.7 224.9 216.5 221.9 221.4 217.1L227.9 224.4C221.3 230.9 211.8 235.2 202.5 235.2C183.3 235.2 168.4 220.7 168.4 201.9C168.6 183.3 183.7 169 203 169Z" fill="white"/>
</svg>
