<svg xmlns="http://www.w3.org/2000/svg" width="40" height="40" viewBox="0 0 40 40" fill="none">
    <path d="M20 40C31.0457 40 40 31.0457 40 20C40 8.9543 31.0457 0 20 0C8.9543 0 0 8.9543 0 20C0 31.0457 8.9543 40 20 40Z" fill="#B4E07C"/>
    <path d="M31.5195 19.9999C31.5195 25.5273 28.0595 30.1897 23.3127 31.7087C24.0933 30.5062 24.6629 29.1349 24.9583 27.6792C31.6249 22.5104 28.7768 11.4978 20.6967 10.6539C17.1735 16.2235 21.6882 19.0716 22.4055 21.0336C24.1988 24.6412 23.4604 29.367 20.5912 32.194C6.60383 32.3627 4.02999 12.7214 16.5616 8.31212C15.7811 9.51465 15.2325 10.9071 14.9583 12.3416C8.81902 17.1307 10.8021 27.3416 18.165 29.1349C18.5026 29.2193 18.8612 29.2615 19.1988 29.3037C22.7853 23.7973 18.2916 20.8227 17.5743 18.9872C15.7389 15.3796 16.414 10.6328 19.2832 7.76359C25.9709 7.36275 31.5406 13.0589 31.5195 19.9999Z" fill="#222531"/>
</svg>