<svg width="40" height="41" viewBox="0 0 40 41" fill="none" xmlns="http://www.w3.org/2000/svg">
<path d="M20 40.5C31.0457 40.5 40 31.5457 40 20.5C40 9.4543 31.0457 0.5 20 0.5C8.9543 0.5 0 9.4543 0 20.5C0 31.5457 8.9543 40.5 20 40.5Z" fill="#B4E07C"/>
<path d="M31.5195 20.4999C31.5195 26.0273 28.0595 30.6897 23.3127 32.2087C24.0933 31.0062 24.6629 29.6349 24.9583 28.1792C31.6249 23.0104 28.7768 11.9978 20.6967 11.1539C17.1735 16.7235 21.6882 19.5716 22.4055 21.5336C24.1988 25.1412 23.4604 29.867 20.5912 32.694C6.60383 32.8627 4.02999 13.2214 16.5616 8.81212C15.7811 10.0146 15.2325 11.4071 14.9583 12.8416C8.81902 17.6307 10.8021 27.8416 18.165 29.6349C18.5026 29.7193 18.8612 29.7615 19.1988 29.8037C22.7853 24.2973 18.2916 21.3227 17.5743 19.4872C15.7389 15.8796 16.414 11.1328 19.2832 8.26359C25.9709 7.86275 31.5406 13.5589 31.5195 20.4999Z" fill="#222531"/>
</svg>
