<svg width="41" height="41" viewBox="0 0 41 41" fill="none" xmlns="http://www.w3.org/2000/svg">
<path d="M20.5 40.6667C31.5457 40.6667 40.5 31.7124 40.5 20.6667C40.5 9.62105 31.5457 0.666748 20.5 0.666748C9.4543 0.666748 0.5 9.62105 0.5 20.6667C0.5 31.7124 9.4543 40.6667 20.5 40.6667Z" fill="#B4E07C"/>
<path d="M32.0195 20.6666C32.0195 26.194 28.5595 30.8565 23.8127 32.3755C24.5933 31.1729 25.1629 29.8016 25.4583 28.3459C32.1249 23.1772 29.2768 12.1645 21.1967 11.3206C17.6735 16.8903 22.1882 19.7384 22.9055 21.7004C24.6988 25.308 23.9604 30.0337 21.0912 32.8607C7.10383 33.0295 4.52999 13.3881 17.0616 8.97886C16.2811 10.1814 15.7325 11.5738 15.4583 13.0084C9.31902 17.7974 11.3021 28.0084 18.665 29.8016C19.0026 29.886 19.3612 29.9282 19.6988 29.9704C23.2853 24.4641 18.7916 21.4894 18.0743 19.654C16.2389 16.0464 16.914 11.2995 19.7832 8.43034C26.4709 8.0295 32.0406 13.7257 32.0195 20.6666Z" fill="#222531"/>
<path d="M32 40.6667C36.6944 40.6667 40.5 36.8612 40.5 32.1667C40.5 27.4723 36.6944 23.6667 32 23.6667C27.3056 23.6667 23.5 27.4723 23.5 32.1667C23.5 36.8612 27.3056 40.6667 32 40.6667Z" fill="#3874E8"/>
<path d="M34.4956 29.818V29.818C34.4956 28.8178 33.6848 28.0071 32.6847 28.0071H31.5481C30.4193 28.0071 29.5042 28.9222 29.5042 30.0509V30.0509C29.5042 30.9195 30.0532 31.6932 30.8729 31.9801L33.1269 32.769C33.9467 33.0559 34.4956 33.8296 34.4956 34.6981V34.6981C34.4956 35.8269 33.5805 36.742 32.4517 36.742H31.2512C30.2864 36.742 29.5042 35.9598 29.5042 34.995V34.995" stroke="white"/>
<path d="M32 28.007L32 26.1353" stroke="white"/>
<path d="M32 38.6139L32 36.7422" stroke="white"/>
</svg>
