<svg width="440" height="440" viewBox="0 0 440 440" fill="none" xmlns="http://www.w3.org/2000/svg">
<mask id="mask0_554_23" style="mask-type:alpha" maskUnits="userSpaceOnUse" x="0" y="0" width="440" height="440">
<circle cx="220" cy="220" r="220" fill="#D9D9D9"/>
</mask>
<g mask="url(#mask0_554_23)">
<path d="M440 0H0V440H440V0Z" fill="black" stroke="black" stroke-miterlimit="10"/>
<path d="M372.4 127.28C367.2 123.18 361 117.58 349.7 116.18C339.1 114.78 328.3 121.88 321 126.58C313.7 131.28 299.9 145.08 294.2 149.28C288.5 153.48 273.9 157.38 250.4 171.48C226.9 185.58 134.7 244.78 134.7 244.78L158.7 245.08L51.7 300.18H62.4L47 311.88C47 311.88 60.6 315.48 72 308.28V311.58C72 311.58 199.4 261.38 224 274.38L209 278.78C210.3 278.78 234.5 280.38 234.5 280.38C235.087 285.391 236.772 290.211 239.434 294.497C242.095 298.784 245.669 302.431 249.9 305.18C264.5 314.78 264.8 320.08 264.8 320.08C264.8 320.08 257.2 323.18 257.2 327.08C257.2 327.08 268.4 323.68 278.8 323.98C285.401 324.23 291.947 325.271 298.3 327.08C298.3 327.08 297.5 322.88 287.4 320.08C277.3 317.28 267.3 306.28 262.4 300.28C259.399 296.46 257.442 291.926 256.724 287.122C256.005 282.318 256.548 277.41 258.3 272.88C261.8 263.78 274 258.78 299.2 245.78C328.9 230.38 335.7 218.98 339.9 210.08C344.1 201.18 350.3 183.48 353.8 175.18C358.2 164.48 363.6 158.78 368.1 155.38C372.6 151.98 392.6 144.48 392.6 144.48C392.6 144.48 377.3 131.18 372.4 127.28Z" fill="white"/>
</g>
</svg>
