<?xml version="1.0" encoding="iso-8859-1"?>
<!-- Generator: Adobe Illustrator 27.8.1, SVG Export Plug-In . SVG Version: 6.00 Build 0)  -->
<svg version="1.1" id="Layer_1" xmlns="http://www.w3.org/2000/svg" xmlns:xlink="http://www.w3.org/1999/xlink" x="0px" y="0px"
	 viewBox="0 0 1000 1000" style="enable-background:new 0 0 1000 1000;" xml:space="preserve">
<g>
	<circle cx="499.819" cy="500.31" r="500.979"/>
	
		<linearGradient id="SVGID_1_" gradientUnits="userSpaceOnUse" x1="133.2375" y1="502" x2="866.7625" y2="502" gradientTransform="matrix(1 0 0 -1 0 1002)">
		<stop  offset="0" style="stop-color:#5433FF"/>
		<stop  offset="0.5" style="stop-color:#20BDFF"/>
		<stop  offset="1" style="stop-color:#A5FECB"/>
	</linearGradient>
	<path style="fill:url(#SVGID_1_);" d="M313.02,934.71l-3.408,5.934h380.716l-3.408-5.934l172.145-240.121h7.697L499.971,59.356
		L133.237,694.588h7.697L313.079,934.71H313.02z M156.386,694.588h295.29L319.953,922.783L156.386,694.588z M331.41,928.071
		l134.778-233.482h67.448l134.778,233.482H331.351H331.41z M372.83,433.375c0-68.035,55.345-123.38,123.38-123.38
		s123.38,55.345,123.38,123.38c0,5.523-0.411,10.987-1.116,16.392c-12.397-9.4-26.38-18.448-41.538-26.145
		c-4.876-40.245-39.188-71.619-80.726-71.619s-75.908,31.315-80.726,71.619c-15.158,7.638-29.141,16.744-41.538,26.145
		C373.242,444.42,372.83,438.956,372.83,433.375z M564.951,433.375c0,37.895-30.845,68.799-68.799,68.799
		s-68.799-30.845-68.799-68.799c0-0.47,0.059-0.94,0.059-1.41c21.151-9.929,44.358-16.627,68.682-16.627
		c24.324,0,47.531,6.698,68.682,16.627c0,0.47,0.059,0.94,0.059,1.41H564.951z M496.152,402.765
		c-23.677,0-46.121,5.699-66.743,14.394c7.344-30.081,34.429-52.525,66.743-52.525s59.458,22.443,66.743,52.525
		C542.272,408.464,519.77,402.765,496.152,402.765z M415.015,438.31c2.526,42.596,37.895,76.496,81.137,76.496
		s78.552-33.9,81.137-76.437c14.042,7.697,26.967,16.627,38.424,25.616c-13.631,53.289-62.043,92.829-119.561,92.829
		s-105.931-39.54-119.561-92.829c11.457-9.048,24.382-17.92,38.424-25.616V438.31z M496.152,569.387
		c61.338,0,113.275-40.833,130.137-96.707c19.976,17.097,34.253,33.195,40.187,40.363c-15.511,18.507-86.601,97.647-170.382,97.647
		s-154.872-79.14-170.382-97.647c5.993-7.109,20.211-23.266,40.187-40.363c16.862,55.874,68.858,96.707,130.196,96.707H496.152z
		 M499.912,636.247l26.439,45.827h-52.936l26.439-45.827H499.912z M679.93,922.842L548.206,694.647h295.29L679.93,922.842z
		 M499.971,84.561l344.936,597.395H540.98l-34.194-59.164c95.473-6.757,169.677-101.818,172.909-105.99l2.938-3.819l-2.938-3.819
		c-1.586-2.056-20.152-25.851-49.94-50.468c1.528-8.225,2.409-16.686,2.409-25.322c0-74.968-60.985-135.953-135.953-135.953
		s-135.953,60.985-135.953,135.953c0,8.637,0.823,17.097,2.409,25.322c-29.729,24.559-48.353,48.412-49.94,50.468l-2.938,3.819
		l2.938,3.819c3.29,4.289,81.255,104.168,180.253,106.283l-34.018,58.87H155.035L499.971,84.561z"/>
</g>
</svg>
