<svg xmlns="http://www.w3.org/2000/svg" xmlns:xlink="http://www.w3.org/1999/xlink" width="26" height="26" viewBox="0 0 26 26"><defs><circle id="a" cx="13" cy="13" r="13"/></defs><g fill="none" fill-rule="evenodd"><mask id="b" fill="#fff"><use xlink:href="#a"/></mask><use xlink:href="#a" fill="#D8D8D8"/><g fill-rule="nonzero" mask="url(#b)"><circle cx="13" cy="13" r="13" fill="#181818"/><g transform="translate(4.875 7.123)"><path fill="#FFF" d="M1.8326468,4.93141599 L0,4.93141599 L0,3.83393571 L1.8326468,3.83393571 C1.8326468,3.80388532 1.8326468,3.77896199 1.8326468,3.75403868 C1.83734662,3.43373851 1.82937117,3.1131535 1.84945223,2.79342299 C1.88804777,2.17945499 2.04513585,1.60094929 2.41400088,1.0962166 C2.80024102,0.567699945 3.33260299,0.265344556 3.95924627,0.114380489 C4.46981813,-0.00838462938 4.98736854,-0.0209174953 5.50819457,0.0233747922 C6.04743533,0.0702702653 6.57747317,0.192317507 7.08292069,0.385973389 C7.11140447,0.396797229 7.13988826,0.408902837 7.17449606,0.423002312 L6.86459246,1.41395323 C6.7911043,1.38546945 6.72217354,1.35698566 6.651961,1.33106541 C5.98373138,1.08225954 5.2939965,1.01774377 4.59329535,1.12683667 C3.79574934,1.25059872 3.31423094,1.75347996 3.18334793,2.55316226 C3.13606486,2.84326963 3.13991017,3.13451634 3.13976774,3.42633272 C3.13976774,3.55863992 3.13976774,3.69108951 3.13976774,3.83051765 L6.38606486,3.83051765 L6.38606486,4.9247223 L3.14517966,4.9247223 L3.14517966,11.7038634 L1.8326468,11.7038634 L1.8326468,4.93141599 Z"/><path fill="#F7D509" d="M12.328922,8.33921615 C12.3262453,8.33467038 12.3239584,8.32990605 12.3220859,8.32497427 C12.3239881,8.32005527 12.3262738,8.31529332 12.328922,8.31073237 C12.6479404,7.73521747 12.9792068,7.13007943 13.2973707,6.55371003 C13.419851,6.33139407 13.5523006,6.10466314 13.6819018,5.86824772 L12.4428571,5.86824772 C12.4428571,5.86824772 11.8948291,7.09305051 11.6453111,7.63936953 L11.6168273,7.63936953 C11.3412467,7.08949004 10.7480719,5.86824772 10.7480719,5.86824772 L9.44422655,5.86112676 C9.46245619,5.89559215 10.3906003,7.55690897 10.8192813,8.31073237 C10.8222721,8.31600187 10.8248357,8.3207017 10.8271144,8.32497427 L10.8192813,8.33921615 C10.3906003,9.08221572 9.44821429,10.7764313 9.42998466,10.810327 L10.7480719,10.8033485 C10.7480719,10.8033485 11.3412467,9.59948127 11.6168273,9.05828934 L11.6453111,9.05828934 C11.8948291,9.5966329 12.4428571,10.8040606 12.4428571,10.8040606 L13.6961437,10.8040606 C13.5659728,10.5702087 12.6479404,8.90647076 12.328922,8.33921615 Z M8.97808939,11.1958551 C8.7621823,11.3704607 8.53559378,11.5528993 8.32695005,11.7218082 C6.49943033,10.0597793 6.29619851,6.86674683 8.31968668,4.93440679 C8.53089395,5.10402773 8.75605828,5.28874508 8.97239264,5.46349312 C8.91542506,5.52886339 8.8614483,5.59067322 8.80818362,5.65319512 C8.36668493,6.17174245 8.06076906,6.74355446 7.93173751,7.41634149 C7.85041629,7.84046507 7.83546231,8.26772186 7.86537029,8.69811187 C7.89912358,9.18233624 8.0106376,9.64690679 8.21842683,10.0869813 C8.3994178,10.4655298 8.63449506,10.8157469 8.91627959,11.1266395 C8.93465161,11.1461509 8.95159947,11.1660895 8.97808939,11.1958551 Z M14.1421998,11.1958551 C14.3579645,11.3704607 14.584553,11.5528993 14.7931968,11.7218082 C16.6207165,10.0597793 16.8240907,6.86674683 14.8006025,4.93440679 C14.5899649,5.10402773 14.3640885,5.28874508 14.1473269,5.46349312 C14.2042945,5.52886339 14.2581288,5.59067322 14.3115359,5.65319512 C14.7530346,6.17174245 15.0589505,6.74355446 15.1878396,7.41634149 C15.2691608,7.84046507 15.2841148,8.26772186 15.2542068,8.69811187 C15.2204535,9.18233624 15.1090819,9.64690679 14.9012927,10.0869813 C14.7202438,10.4654967 14.4851719,10.8157058 14.20344,11.1266395 C14.1849255,11.1461509 14.1679777,11.1660895 14.1421998,11.1958551 Z"/></g></g></g></svg>