<?xml version="1.0" encoding="UTF-8"?>
<svg width="32px" height="32px" viewBox="0 0 32 32" version="1.1" xmlns="http://www.w3.org/2000/svg" xmlns:xlink="http://www.w3.org/1999/xlink">
    <title>pundiaifx</title>
    <defs>
        <circle id="path-1" cx="16" cy="16" r="16"></circle>
        <rect id="path-3" x="0" y="0" width="24" height="24"></rect>
        <linearGradient x1="-0.172782875%" y1="49.9921606%" x2="99.8272171%" y2="50.0104384%" id="linearGradient-5">
            <stop stop-color="#FFFFFF" stop-opacity="0" offset="0%"></stop>
            <stop stop-color="#18263E" stop-opacity="0" offset="13.7538243%"></stop>
            <stop stop-color="#18263E" stop-opacity="0.3" offset="43%"></stop>
            <stop stop-color="#18263E" stop-opacity="0.3" offset="59%"></stop>
            <stop stop-color="#18263E" stop-opacity="0" offset="86%"></stop>
            <stop stop-color="#FFFFFF" stop-opacity="0" offset="100%"></stop>
        </linearGradient>
    </defs>
    <g id="pundiaifx" stroke="none" stroke-width="1" fill="none" fill-rule="evenodd">
        <g id="fx">
            <mask id="mask-2" fill="white">
                <use xlink:href="#path-1"></use>
            </mask>
            <use id="mb" fill="#FFFFFF" xlink:href="#path-1"></use>
            <g mask="url(#mask-2)" id="bz-3">
                <g transform="translate(4, 4)">
                    <mask id="mask-4" fill="white">
                        <use xlink:href="#path-3"></use>
                    </mask>
                    <g id="mb"></g>
                    <g id="bz-2" mask="url(#mask-4)">
                        <g transform="translate(-18, 0.6336)">
                            <path d="M27.8339583,0 L34.7145074,15.4924819 C33.8410383,15.3819147 32.9525391,15.2990769 32.0512167,15.2454183 L27.0512411,4.19452529 L21.658762,15.9523193 C20.6850625,16.1491895 19.7349106,16.3813594 18.8117682,16.6465549 L26.267007,0.00307855067 L27.8339583,0 Z M40.11018,14.4507168 L40.1099699,16.5735246 C39.3302312,16.3558989 38.5316561,16.1617317 37.7162974,15.9923714 L37.7165216,14.4507168 L40.11018,14.4507168 Z M40.0995618,3.113954 L40.0995618,13.2854854 L37.7256229,13.2854854 L37.7256229,3.113954 L40.0995618,3.113954 Z" id="xzjh" fill="#18263E" fill-rule="nonzero"></path>
                            <g id="line" stroke-width="1" fill="none" fill-rule="evenodd" transform="translate(0, 15.1164)">
                                <path d="M30,0 C40.4131274,0 49.4961698,3.74079921 54.304643,9.28821547 C48.8532646,3.76402617 39.9977598,0.171179884 30,0.171179884 C20.0028427,0.171179884 11.1478027,3.76359315 5.69627569,9.28709221 C10.5049204,3.74035023 19.5874975,0 30,0 Z" id="xzjh" fill="url(#linearGradient-5)" fill-rule="nonzero"></path>
                                <ellipse id="tyx" fill-rule="nonzero" cx="30" cy="22.2105899" rx="30" ry="22.0394101"></ellipse>
                            </g>
                            <g id="bz" stroke-width="1" fill="none" fill-rule="evenodd" transform="translate(19.5, 17.3664)">
                                <path d="M0.252213001,4.5 L0,4.5 L0,0 L1.90297372,0 C2.76175657,0 3.46030429,0.716876972 3.46030429,1.59801712 C3.46030429,2.47915728 2.76175657,3.19603425 1.90297372,3.19603425 L0.289004149,3.19603425 L0.289004149,4.5 L0.252213001,4.5 Z M3.17081604,1.59801712 C3.17081604,0.880633168 2.60200553,0.2965863 1.90297372,0.2965863 L0.289004149,0.2965863 L0.289004149,2.89894096 L1.90248963,2.89894096 C2.60152144,2.89894096 3.17033195,2.31540108 3.17033195,1.59751014 L3.17081604,1.59801712 Z" id="xz" fill="#18263E" fill-rule="nonzero"></path>
                                <path d="M4.95131397,2.72555205 L4.95131397,0 L5.24031812,0 L5.24031812,2.72555205 C5.24031812,3.54027715 5.88609959,4.2034137 6.68001383,4.2034137 C7.47392808,4.2034137 8.11970954,3.54027715 8.11970954,2.72555205 L8.11970954,0 L8.40871369,0 L8.40871369,2.72555205 C8.40871369,3.70403335 7.63319502,4.5 6.67952974,4.5 C5.72586445,4.5 4.95034578,3.70403335 4.95034578,2.72555205 L4.95131397,2.72555205 Z" id="lj" fill="#18263E" fill-rule="nonzero"></path>
                                <polygon id="lj" fill="#18263E" fill-rule="nonzero" points="10.4085062 4.5 10.1562932 4.5 10.1562932 0 10.4273859 0 10.4385201 0.015716539 13.2254495 3.96867959 13.2254495 0 13.5144537 0 13.5144537 4.5 13.243361 4.5 13.2322268 4.48428346 10.4452974 0.531320415 10.4452974 4.5"></polygon>
                                <path d="M16.9108575,4.5 L15.2751037,4.5 L15.2751037,0 L16.9108575,0 C18.1196404,0 19.1033195,1.00940739 19.1033195,2.25 C19.1033195,3.49059261 18.1196404,4.5 16.9108575,4.5 L16.9108575,4.5 Z M18.8143154,2.25 C18.8143154,1.17316359 17.9603734,0.2965863 16.9108575,0.2965863 L15.564592,0.2965863 L15.564592,4.20290671 L16.9108575,4.20290671 C17.9603734,4.20290671 18.8143154,3.32683641 18.8143154,2.24949301 L18.8143154,2.25 Z" id="xz" fill="#18263E" fill-rule="nonzero"></path>
                                <polygon id="lj" fill="#18263E" fill-rule="nonzero" points="20.9632089 4.5 20.7109959 4.5 20.7109959 0 21 0 21 4.5 20.9632089 4.5"></polygon>
                            </g>
                        </g>
                    </g>
                </g>
            </g>
        </g>
    </g>
</svg>