<svg width="150" height="150" viewBox="0 0 150 150" fill="none" xmlns="http://www.w3.org/2000/svg">
<path fill-rule="evenodd" clip-rule="evenodd" d="M61.2201 121.852C77.9632 138.595 105.109 138.595 121.852 121.852C138.595 105.109 138.595 77.9632 121.852 61.2201C105.109 44.477 77.9632 44.477 61.2201 61.2201C44.477 77.9632 44.477 105.109 61.2201 121.852ZM50.196 132.876C73.0276 155.708 110.045 155.708 132.876 132.876C155.708 110.045 155.708 73.0276 132.876 50.196C110.045 27.3645 73.0276 27.3645 50.196 50.196C27.3645 73.0276 27.3645 110.045 50.196 132.876Z" fill="url(#paint0_linear_2399_21857)"/>
<path fill-rule="evenodd" clip-rule="evenodd" d="M28.1477 88.7799C44.8908 105.523 72.0368 105.523 88.7799 88.7799C105.523 72.0368 105.523 44.8908 88.7799 28.1477C72.0368 11.4046 44.8908 11.4046 28.1477 28.1477C11.4046 44.8908 11.4046 72.0368 28.1477 88.7799ZM17.1237 99.804C39.9552 122.635 76.9724 122.635 99.804 99.804C122.635 76.9724 122.635 39.9552 99.804 17.1237C76.9724 -5.70788 39.9552 -5.70788 17.1237 17.1237C-5.70788 39.9552 -5.70788 76.9724 17.1237 99.804Z" fill="url(#paint1_linear_2399_21857)"/>
<path fill-rule="evenodd" clip-rule="evenodd" d="M49.5841 100.415C63.31 103.306 78.1509 99.4085 88.7802 88.7792C99.4094 78.15 103.307 63.3091 100.416 49.5831C86.6902 46.692 71.8494 50.5899 61.2201 61.2191C50.5908 71.8484 46.6929 86.6893 49.5841 100.415ZM37.0998 112.899C28.8785 91.9197 33.2439 67.1472 50.196 50.1951C67.1481 33.243 91.9206 28.8776 112.9 37.0989C121.122 58.0787 116.756 82.8512 99.8042 99.8033C82.8521 116.755 58.0796 121.121 37.0998 112.899Z" fill="url(#paint2_linear_2399_21857)"/>
<defs>
<linearGradient id="paint0_linear_2399_21857" x1="33.0724" y1="33.0724" x2="170.634" y2="67.4629" gradientUnits="userSpaceOnUse">
<stop stop-color="#5084E9"/>
<stop offset="1" stop-color="#6F50E9"/>
</linearGradient>
<linearGradient id="paint1_linear_2399_21857" x1="0" y1="0" x2="137.562" y2="34.3905" gradientUnits="userSpaceOnUse">
<stop stop-color="#E95062"/>
<stop offset="1" stop-color="#E950D0"/>
</linearGradient>
<linearGradient id="paint2_linear_2399_21857" x1="33.0724" y1="33.0714" x2="131.726" y2="57.7348" gradientUnits="userSpaceOnUse">
<stop stop-color="#5084E9"/>
<stop offset="1" stop-color="#E95062"/>
</linearGradient>
</defs>
</svg>
