<?xml version="1.0" encoding="utf-8"?>
<!-- Generator: Adobe Illustrator 26.1.0, SVG Export Plug-In . SVG Version: 6.00 Build 0)  -->
<svg version="1.1" id="Layer_1" xmlns="http://www.w3.org/2000/svg" xmlns:xlink="http://www.w3.org/1999/xlink" x="0px" y="0px"
	 viewBox="0 0 100 100" style="enable-background:new 0 0 100 100;" xml:space="preserve">
<style type="text/css">
	.st0{fill:none;stroke:url(#SVGID_1_);stroke-width:4;}
	.st1{fill:none;stroke:url(#SVGID_00000023967877148028026810000012382901828739814059_);stroke-width:4;}
	.st2{fill:none;stroke:url(#SVGID_00000175310240082212398910000003939603809950819262_);stroke-width:4;}
</style>
<linearGradient id="SVGID_1_" gradientUnits="userSpaceOnUse" x1="6.2482" y1="82.1067" x2="41.5423" y2="73.2832" gradientTransform="matrix(1 0 0 -1 0 102)">
	<stop  offset="0" style="stop-color:#5084E9"/>
	<stop  offset="1" style="stop-color:#6F50E9"/>
</linearGradient>
<path class="st0" d="M33.09,33.5c-5.08,5.08-13.31,5.08-18.38,0c-5.08-5.08-5.08-13.31,0-18.38c5.08-5.08,13.31-5.08,18.38,0
	C38.16,20.19,38.16,28.42,33.09,33.5z"/>
<linearGradient id="SVGID_00000000932848388497676060000001502878789852903571_" gradientUnits="userSpaceOnUse" x1="-2.2372" y1="90.5921" x2="33.0569" y2="81.7686" gradientTransform="matrix(1 0 0 -1 0 102)">
	<stop  offset="0" style="stop-color:#E95062"/>
	<stop  offset="1" style="stop-color:#E950D0"/>
</linearGradient>
<path style="fill:none;stroke:url(#SVGID_00000000932848388497676060000001502878789852903571_);stroke-width:4;" d="M24.6,25.01
	c-5.08,5.08-13.31,5.08-18.38,0c-5.08-5.08-5.08-13.31,0-18.38c5.08-5.08,13.31-5.08,18.38,0C29.68,11.7,29.68,19.94,24.6,25.01z"/>
<linearGradient id="SVGID_00000167388691677059180570000001499504047513356178_" gradientUnits="userSpaceOnUse" x1="6.9969" y1="85.1018" x2="32.3083" y2="78.7739" gradientTransform="matrix(1 0 0 -1 0 102)">
	<stop  offset="0" style="stop-color:#5084E9"/>
	<stop  offset="1" style="stop-color:#E95062"/>
</linearGradient>
<path style="fill:none;stroke:url(#SVGID_00000167388691677059180570000001499504047513356178_);stroke-width:4;" d="M24.6,25.01
	c-3.54,3.54-8.63,4.62-13.11,3.21c-1.41-4.48-0.34-9.56,3.21-13.11c3.54-3.54,8.63-4.62,13.11-3.21
	C29.22,16.38,28.15,21.47,24.6,25.01z"/>
</svg>
