<svg width="634" height="634" viewBox="0 0 634 634" fill="none" xmlns="http://www.w3.org/2000/svg">
<g clip-path="url(#clip0_65_1382)">
<path d="M317.155 512.369C425.195 512.369 512.779 424.785 512.779 316.745C512.779 208.705 425.195 121.121 317.155 121.121C209.115 121.121 121.531 208.705 121.531 316.745C121.531 424.785 209.115 512.369 317.155 512.369Z" fill="white"/>
<mask id="mask0_65_1382" style="mask-type:alpha" maskUnits="userSpaceOnUse" x="145" y="145" width="344" height="344">
<path d="M317.156 488.977C411.885 488.977 488.679 412.184 488.679 317.454C488.679 222.725 411.885 145.931 317.156 145.931C222.426 145.931 145.633 222.725 145.633 317.454C145.633 412.184 222.426 488.977 317.156 488.977Z" fill="#C4C4C4"/>
</mask>
<g mask="url(#mask0_65_1382)">
<g filter="url(#filter0_f_65_1382)">
<path d="M185.912 733.765C280.641 733.765 357.435 656.972 357.435 562.242C357.435 467.513 280.641 390.719 185.912 390.719C91.1821 390.719 14.3887 467.513 14.3887 562.242C14.3887 656.972 91.1821 733.765 185.912 733.765Z" fill="#F868EC"/>
</g>
<g filter="url(#filter1_f_65_1382)">
<path d="M173.769 723.356C268.499 723.356 345.292 646.563 345.292 551.833C345.292 457.104 268.499 380.31 173.769 380.31C79.0396 380.31 2.24609 457.104 2.24609 551.833C2.24609 646.563 79.0396 723.356 173.769 723.356Z" fill="#F868EC"/>
</g>
<g filter="url(#filter2_f_65_1382)">
<path d="M500.025 761.662C594.754 761.662 671.548 684.869 671.548 590.139C671.548 495.41 594.754 418.616 500.025 418.616C405.295 418.616 328.502 495.41 328.502 590.139C328.502 684.869 405.295 761.662 500.025 761.662Z" fill="#F98C2A"/>
</g>
<g filter="url(#filter3_f_65_1382)">
<path d="M612.691 702.537C707.42 702.537 784.214 625.744 784.214 531.014C784.214 436.285 707.42 359.491 612.691 359.491C517.961 359.491 441.168 436.285 441.168 531.014C441.168 625.744 517.961 702.537 612.691 702.537Z" fill="#F98C2A"/>
</g>
<g filter="url(#filter4_f_65_1382)">
<path d="M207.332 386.744C302.061 386.744 378.855 309.95 378.855 215.221C378.855 120.491 302.061 43.6978 207.332 43.6978C112.602 43.6978 35.8086 120.491 35.8086 215.221C35.8086 309.95 112.602 386.744 207.332 386.744Z" fill="#00D1EA"/>
</g>
<g filter="url(#filter5_f_65_1382)">
<path d="M166.83 428.427C261.559 428.427 338.353 351.633 338.353 256.904C338.353 162.174 261.559 85.3809 166.83 85.3809C72.1001 85.3809 -4.69336 162.174 -4.69336 256.904C-4.69336 351.633 72.1001 428.427 166.83 428.427Z" fill="#00D1EA"/>
</g>
</g>
<g opacity="0.4">
<mask id="mask1_65_1382" style="mask-type:alpha" maskUnits="userSpaceOnUse" x="145" y="145" width="344" height="344">
<g opacity="0.4">
<path d="M317.156 488.977C411.885 488.977 488.679 412.184 488.679 317.454C488.679 222.725 411.885 145.931 317.156 145.931C222.426 145.931 145.633 222.725 145.633 317.454C145.633 412.184 222.426 488.977 317.156 488.977Z" fill="#C4C4C4"/>
</g>
</mask>
<g mask="url(#mask1_65_1382)">
<g filter="url(#filter6_f_65_1382)">
<path d="M184.177 598.886C278.907 598.886 355.7 522.092 355.7 427.363C355.7 332.633 278.907 255.84 184.177 255.84C89.4478 255.84 12.6543 332.633 12.6543 427.363C12.6543 522.092 89.4478 598.886 184.177 598.886Z" fill="#F868EC"/>
</g>
<g filter="url(#filter7_f_65_1382)">
<path d="M494.72 600.621C589.45 600.621 666.243 523.828 666.243 429.098C666.243 334.369 589.45 257.575 494.72 257.575C399.991 257.575 323.197 334.369 323.197 429.098C323.197 523.828 399.991 600.621 494.72 600.621Z" fill="#F98C2A"/>
</g>
<g filter="url(#filter8_f_65_1382)">
<path d="M513.804 434.073C608.534 434.073 685.327 357.279 685.327 262.55C685.327 167.82 608.534 91.0269 513.804 91.0269C419.075 91.0269 342.281 167.82 342.281 262.55C342.281 357.279 419.075 434.073 513.804 434.073Z" fill="#F98C2A"/>
</g>
<g filter="url(#filter9_f_65_1382)">
<path d="M241.429 288.344C336.159 288.344 412.952 211.55 412.952 116.821C412.952 22.0913 336.159 -54.7021 241.429 -54.7021C146.7 -54.7021 69.9062 22.0913 69.9062 116.821C69.9062 211.55 146.7 288.344 241.429 288.344Z" fill="#00D1EA"/>
</g>
<g filter="url(#filter10_f_65_1382)">
<path d="M293.474 258.85C388.204 258.85 464.997 182.057 464.997 87.3272C464.997 -7.40233 388.204 -84.1958 293.474 -84.1958C198.745 -84.1958 121.951 -7.40233 121.951 87.3272C121.951 182.057 198.745 258.85 293.474 258.85Z" fill="#00D1EA"/>
</g>
</g>
</g>
<path fill-rule="evenodd" clip-rule="evenodd" d="M354.325 400.056C528.004 321.906 652.158 221.571 631.63 175.951C612.221 132.817 470.415 154.043 308.209 222.544C353.215 214.105 394.799 209.272 443.274 212.869C448.523 213.259 452.977 213.663 456.734 214.079C489.8 210.205 512.498 214.132 518.27 226.96C531.398 256.135 451.998 320.301 340.926 370.28C229.854 420.259 129.17 437.124 116.043 407.949C110.227 395.025 122.569 375.234 147.777 352.853C144.893 339.173 144.195 327.365 144.275 322.192C139.678 321.622 134.065 319.505 130.193 315.065C41.1187 372.197 -11.2038 428.096 2.68243 458.957C23.2099 504.577 180.645 478.206 354.325 400.056Z" fill="white"/>
</g>
<defs>
<filter id="filter0_f_65_1382" x="-195.275" y="181.055" width="762.375" height="762.374" filterUnits="userSpaceOnUse" color-interpolation-filters="sRGB">
<feFlood flood-opacity="0" result="BackgroundImageFix"/>
<feBlend mode="normal" in="SourceGraphic" in2="BackgroundImageFix" result="shape"/>
<feGaussianBlur stdDeviation="104.832" result="effect1_foregroundBlur_65_1382"/>
</filter>
<filter id="filter1_f_65_1382" x="-207.418" y="170.646" width="762.375" height="762.374" filterUnits="userSpaceOnUse" color-interpolation-filters="sRGB">
<feFlood flood-opacity="0" result="BackgroundImageFix"/>
<feBlend mode="normal" in="SourceGraphic" in2="BackgroundImageFix" result="shape"/>
<feGaussianBlur stdDeviation="104.832" result="effect1_foregroundBlur_65_1382"/>
</filter>
<filter id="filter2_f_65_1382" x="197.462" y="287.576" width="605.127" height="605.126" filterUnits="userSpaceOnUse" color-interpolation-filters="sRGB">
<feFlood flood-opacity="0" result="BackgroundImageFix"/>
<feBlend mode="normal" in="SourceGraphic" in2="BackgroundImageFix" result="shape"/>
<feGaussianBlur stdDeviation="65.52" result="effect1_foregroundBlur_65_1382"/>
</filter>
<filter id="filter3_f_65_1382" x="310.128" y="228.451" width="605.127" height="605.126" filterUnits="userSpaceOnUse" color-interpolation-filters="sRGB">
<feFlood flood-opacity="0" result="BackgroundImageFix"/>
<feBlend mode="normal" in="SourceGraphic" in2="BackgroundImageFix" result="shape"/>
<feGaussianBlur stdDeviation="65.52" result="effect1_foregroundBlur_65_1382"/>
</filter>
<filter id="filter4_f_65_1382" x="-173.855" y="-165.966" width="762.375" height="762.374" filterUnits="userSpaceOnUse" color-interpolation-filters="sRGB">
<feFlood flood-opacity="0" result="BackgroundImageFix"/>
<feBlend mode="normal" in="SourceGraphic" in2="BackgroundImageFix" result="shape"/>
<feGaussianBlur stdDeviation="104.832" result="effect1_foregroundBlur_65_1382"/>
</filter>
<filter id="filter5_f_65_1382" x="-214.357" y="-124.283" width="762.375" height="762.374" filterUnits="userSpaceOnUse" color-interpolation-filters="sRGB">
<feFlood flood-opacity="0" result="BackgroundImageFix"/>
<feBlend mode="normal" in="SourceGraphic" in2="BackgroundImageFix" result="shape"/>
<feGaussianBlur stdDeviation="104.832" result="effect1_foregroundBlur_65_1382"/>
</filter>
<filter id="filter6_f_65_1382" x="-197.01" y="46.1758" width="762.375" height="762.374" filterUnits="userSpaceOnUse" color-interpolation-filters="sRGB">
<feFlood flood-opacity="0" result="BackgroundImageFix"/>
<feBlend mode="normal" in="SourceGraphic" in2="BackgroundImageFix" result="shape"/>
<feGaussianBlur stdDeviation="104.832" result="effect1_foregroundBlur_65_1382"/>
</filter>
<filter id="filter7_f_65_1382" x="192.157" y="126.535" width="605.127" height="605.126" filterUnits="userSpaceOnUse" color-interpolation-filters="sRGB">
<feFlood flood-opacity="0" result="BackgroundImageFix"/>
<feBlend mode="normal" in="SourceGraphic" in2="BackgroundImageFix" result="shape"/>
<feGaussianBlur stdDeviation="65.52" result="effect1_foregroundBlur_65_1382"/>
</filter>
<filter id="filter8_f_65_1382" x="211.241" y="-40.0131" width="605.127" height="605.126" filterUnits="userSpaceOnUse" color-interpolation-filters="sRGB">
<feFlood flood-opacity="0" result="BackgroundImageFix"/>
<feBlend mode="normal" in="SourceGraphic" in2="BackgroundImageFix" result="shape"/>
<feGaussianBlur stdDeviation="65.52" result="effect1_foregroundBlur_65_1382"/>
</filter>
<filter id="filter9_f_65_1382" x="-139.758" y="-264.366" width="762.375" height="762.374" filterUnits="userSpaceOnUse" color-interpolation-filters="sRGB">
<feFlood flood-opacity="0" result="BackgroundImageFix"/>
<feBlend mode="normal" in="SourceGraphic" in2="BackgroundImageFix" result="shape"/>
<feGaussianBlur stdDeviation="104.832" result="effect1_foregroundBlur_65_1382"/>
</filter>
<filter id="filter10_f_65_1382" x="-87.7128" y="-293.86" width="762.375" height="762.374" filterUnits="userSpaceOnUse" color-interpolation-filters="sRGB">
<feFlood flood-opacity="0" result="BackgroundImageFix"/>
<feBlend mode="normal" in="SourceGraphic" in2="BackgroundImageFix" result="shape"/>
<feGaussianBlur stdDeviation="104.832" result="effect1_foregroundBlur_65_1382"/>
</filter>
<clipPath id="clip0_65_1382">
<rect width="634" height="634" fill="white"/>
</clipPath>
</defs>
</svg>
