<svg width="634" height="392" viewBox="0 0 634 392" fill="none" xmlns="http://www.w3.org/2000/svg">
<circle cx="317.156" cy="195.745" r="195.624" fill="white"/>
<mask id="mask0_1147_364" style="mask-type:alpha" maskUnits="userSpaceOnUse" x="145" y="24" width="344" height="344">
<circle cx="317.156" cy="196.454" r="171.523" fill="#C4C4C4"/>
</mask>
<g mask="url(#mask0_1147_364)">
<g filter="url(#filter0_f_1147_364)">
<circle cx="185.912" cy="320.242" r="171.523" fill="#F868EC"/>
</g>
<g filter="url(#filter1_f_1147_364)">
<circle cx="173.769" cy="309.833" r="171.523" fill="#F868EC"/>
</g>
<g filter="url(#filter2_f_1147_364)">
<circle cx="500.025" cy="348.139" r="171.523" fill="#F98C2A"/>
</g>
<g filter="url(#filter3_f_1147_364)">
<circle cx="612.691" cy="289.014" r="171.523" fill="#F98C2A"/>
</g>
<g filter="url(#filter4_f_1147_364)">
<circle cx="207.331" cy="-26.7795" r="171.523" fill="#00D1EA"/>
</g>
<g filter="url(#filter5_f_1147_364)">
<circle cx="166.829" cy="14.9036" r="171.523" fill="#00D1EA"/>
</g>
</g>
<g opacity="0.4">
<mask id="mask1_1147_364" style="mask-type:alpha" maskUnits="userSpaceOnUse" x="145" y="24" width="344" height="344">
<circle cx="317.156" cy="196.454" r="171.523" fill="#C4C4C4"/>
</mask>
<g mask="url(#mask1_1147_364)">
</g>
<mask id="mask2_1147_364" style="mask-type:alpha" maskUnits="userSpaceOnUse" x="145" y="24" width="344" height="344">
<circle cx="317.156" cy="196.454" r="171.523" fill="#C4C4C4"/>
</mask>
<g mask="url(#mask2_1147_364)">
<g filter="url(#filter6_f_1147_364)">
<circle cx="184.178" cy="306.363" r="171.523" fill="#F868EC"/>
</g>
<g filter="url(#filter7_f_1147_364)">
<circle cx="494.721" cy="308.098" r="171.523" fill="#F98C2A"/>
</g>
<g filter="url(#filter8_f_1147_364)">
<circle cx="513.804" cy="141.55" r="171.523" fill="#F98C2A"/>
</g>
<g filter="url(#filter9_f_1147_364)">
<circle cx="241.429" cy="-4.1794" r="171.523" fill="#00D1EA"/>
</g>
<g filter="url(#filter10_f_1147_364)">
<circle cx="293.475" cy="-33.6728" r="171.523" fill="#00D1EA"/>
</g>
</g>
</g>
<path fill-rule="evenodd" clip-rule="evenodd" d="M354.324 279.056C528.003 200.906 652.157 100.571 631.629 54.9513C612.22 11.8168 470.414 33.0427 308.208 101.544C353.214 93.1047 394.798 88.2723 443.273 91.8693C448.522 92.2589 452.976 92.6626 456.733 93.079C489.799 89.2046 512.497 93.1319 518.269 105.96C531.397 135.135 451.997 199.301 340.925 249.28C229.853 299.259 129.169 316.124 116.042 286.949C110.226 274.025 122.568 254.234 147.776 231.853C144.892 218.173 144.194 206.365 144.274 201.192C139.677 200.622 134.064 198.505 130.192 194.065C41.1177 251.197 -11.2048 307.096 2.68146 337.957C23.2089 383.577 180.644 357.206 354.324 279.056Z" fill="white"/>
<defs>
<filter id="filter0_f_1147_364" x="-195.275" y="-60.9443" width="762.373" height="762.373" filterUnits="userSpaceOnUse" color-interpolation-filters="sRGB">
<feFlood flood-opacity="0" result="BackgroundImageFix"/>
<feBlend mode="normal" in="SourceGraphic" in2="BackgroundImageFix" result="shape"/>
<feGaussianBlur stdDeviation="104.832" result="effect1_foregroundBlur_1147_364"/>
</filter>
<filter id="filter1_f_1147_364" x="-207.418" y="-71.3537" width="762.373" height="762.373" filterUnits="userSpaceOnUse" color-interpolation-filters="sRGB">
<feFlood flood-opacity="0" result="BackgroundImageFix"/>
<feBlend mode="normal" in="SourceGraphic" in2="BackgroundImageFix" result="shape"/>
<feGaussianBlur stdDeviation="104.832" result="effect1_foregroundBlur_1147_364"/>
</filter>
<filter id="filter2_f_1147_364" x="197.462" y="45.5762" width="605.125" height="605.125" filterUnits="userSpaceOnUse" color-interpolation-filters="sRGB">
<feFlood flood-opacity="0" result="BackgroundImageFix"/>
<feBlend mode="normal" in="SourceGraphic" in2="BackgroundImageFix" result="shape"/>
<feGaussianBlur stdDeviation="65.52" result="effect1_foregroundBlur_1147_364"/>
</filter>
<filter id="filter3_f_1147_364" x="310.128" y="-13.5488" width="605.125" height="605.125" filterUnits="userSpaceOnUse" color-interpolation-filters="sRGB">
<feFlood flood-opacity="0" result="BackgroundImageFix"/>
<feBlend mode="normal" in="SourceGraphic" in2="BackgroundImageFix" result="shape"/>
<feGaussianBlur stdDeviation="65.52" result="effect1_foregroundBlur_1147_364"/>
</filter>
<filter id="filter4_f_1147_364" x="-173.856" y="-407.966" width="762.373" height="762.373" filterUnits="userSpaceOnUse" color-interpolation-filters="sRGB">
<feFlood flood-opacity="0" result="BackgroundImageFix"/>
<feBlend mode="normal" in="SourceGraphic" in2="BackgroundImageFix" result="shape"/>
<feGaussianBlur stdDeviation="104.832" result="effect1_foregroundBlur_1147_364"/>
</filter>
<filter id="filter5_f_1147_364" x="-214.358" y="-366.283" width="762.373" height="762.373" filterUnits="userSpaceOnUse" color-interpolation-filters="sRGB">
<feFlood flood-opacity="0" result="BackgroundImageFix"/>
<feBlend mode="normal" in="SourceGraphic" in2="BackgroundImageFix" result="shape"/>
<feGaussianBlur stdDeviation="104.832" result="effect1_foregroundBlur_1147_364"/>
</filter>
<filter id="filter6_f_1147_364" x="-197.009" y="-74.8237" width="762.373" height="762.373" filterUnits="userSpaceOnUse" color-interpolation-filters="sRGB">
<feFlood flood-opacity="0" result="BackgroundImageFix"/>
<feBlend mode="normal" in="SourceGraphic" in2="BackgroundImageFix" result="shape"/>
<feGaussianBlur stdDeviation="104.832" result="effect1_foregroundBlur_1147_364"/>
</filter>
<filter id="filter7_f_1147_364" x="192.158" y="5.53517" width="605.125" height="605.125" filterUnits="userSpaceOnUse" color-interpolation-filters="sRGB">
<feFlood flood-opacity="0" result="BackgroundImageFix"/>
<feBlend mode="normal" in="SourceGraphic" in2="BackgroundImageFix" result="shape"/>
<feGaussianBlur stdDeviation="65.52" result="effect1_foregroundBlur_1147_364"/>
</filter>
<filter id="filter8_f_1147_364" x="211.241" y="-161.013" width="605.125" height="605.125" filterUnits="userSpaceOnUse" color-interpolation-filters="sRGB">
<feFlood flood-opacity="0" result="BackgroundImageFix"/>
<feBlend mode="normal" in="SourceGraphic" in2="BackgroundImageFix" result="shape"/>
<feGaussianBlur stdDeviation="65.52" result="effect1_foregroundBlur_1147_364"/>
</filter>
<filter id="filter9_f_1147_364" x="-139.758" y="-385.366" width="762.373" height="762.373" filterUnits="userSpaceOnUse" color-interpolation-filters="sRGB">
<feFlood flood-opacity="0" result="BackgroundImageFix"/>
<feBlend mode="normal" in="SourceGraphic" in2="BackgroundImageFix" result="shape"/>
<feGaussianBlur stdDeviation="104.832" result="effect1_foregroundBlur_1147_364"/>
</filter>
<filter id="filter10_f_1147_364" x="-87.7119" y="-414.86" width="762.373" height="762.373" filterUnits="userSpaceOnUse" color-interpolation-filters="sRGB">
<feFlood flood-opacity="0" result="BackgroundImageFix"/>
<feBlend mode="normal" in="SourceGraphic" in2="BackgroundImageFix" result="shape"/>
<feGaussianBlur stdDeviation="104.832" result="effect1_foregroundBlur_1147_364"/>
</filter>
</defs>
</svg>
