<svg width="300" height="300" viewBox="0 0 300 300" fill="none" xmlns="http://www.w3.org/2000/svg">
<g clip-path="url(#clip0_66_1467)">
<path d="M110.351 294.59H20.2198L37.9045 195.17L131.471 111.421H51.9007L116.246 72.239H220.865L85.5471 204.966L76.4611 255.655C76.4611 255.655 106.667 257.858 130.49 255.655C154.31 253.208 181.08 243.412 181.08 243.412L110.351 294.59ZM252.054 81.791L211.779 120.971C211.779 120.971 245.669 158.438 214.48 209.865C183.781 260.308 81.8625 251.002 81.8625 251.002L89.7201 206.68L233.145 67.586H114.28L126.314 0H68.8472L48.2181 115.585H121.401L34.4637 193.456L16.0469 298.265C16.0469 298.265 85.5471 300.225 144.489 298.265C203.675 296.307 272.684 245.859 282.753 188.803C296.507 111.664 252.054 81.791 252.054 81.791Z" fill="url(#paint0_linear_66_1467)"/>
</g>
<defs>
<linearGradient id="paint0_linear_66_1467" x1="16.0465" y1="149.567" x2="285.394" y2="149.567" gradientUnits="userSpaceOnUse">
<stop stop-color="#12C1E1"/>
<stop offset="0.7" stop-color="#12C1E1"/>
<stop offset="1" stop-color="#1694D2"/>
</linearGradient>
<clipPath id="clip0_66_1467">
<rect width="300" height="300" fill="white"/>
</clipPath>
</defs>
</svg>
