<?xml version="1.0" encoding="utf-8"?>
<svg viewBox="172.213 156.932 268.575 299.136" xmlns="http://www.w3.org/2000/svg">
  <defs>
    <linearGradient id="_Linear3" x1="0" y1="0" x2="1" y2="0" gradientUnits="userSpaceOnUse" gradientTransform="matrix(268.575012, 0, 0, -268.575012, 172.212585, 306.498962)">
      <stop offset="0" style="stop-color:#12c1e1;stop-opacity:1"/>
      <stop offset="0.7" style="stop-color:#12c1e1;stop-opacity:1"/>
      <stop offset="1" style="stop-color:#1694d2;stop-opacity:1"/>
    </linearGradient>
  </defs>
  <path d="M 266.247 451.522 L 176.374 451.522 L 194.008 352.102 L 287.306 268.353 L 207.964 268.353 L 272.125 229.171 L 376.444 229.171 L 241.514 361.898 L 232.454 412.587 C 232.454 412.587 262.573 414.79 286.328 412.587 C 310.08 410.14 336.773 400.344 336.773 400.344 L 266.247 451.522 L 266.247 451.522 Z M 407.544 238.723 L 367.384 277.903 C 367.384 277.903 401.177 315.37 370.077 366.797 C 339.466 417.24 237.84 407.934 237.84 407.934 L 245.675 363.612 L 388.689 224.518 L 270.165 224.518 L 282.164 156.932 L 224.862 156.932 L 204.292 272.517 L 277.265 272.517 L 190.577 350.388 L 172.213 455.197 C 172.213 455.197 241.514 457.157 300.287 455.197 C 359.303 453.239 428.114 402.791 438.155 345.735 C 451.869 268.596 407.544 238.723 407.544 238.723 L 407.544 238.723 Z" style="fill:url(#_Linear3);"/>
</svg>