<svg xmlns="http://www.w3.org/2000/svg" xmlns:xlink="http://www.w3.org/1999/xlink" viewBox="0 0 1106 1106"><defs><linearGradient id="a" x1="196.8" x2="909.2" y1="196.8" y2="909.2" gradientUnits="userSpaceOnUse"><stop offset=".3" stop-color="#8105f5"/><stop offset=".6" stop-color="#490af0"/><stop offset="1" stop-color="#070feb"/></linearGradient><linearGradient xlink:href="#a" id="b" x1="482.6" x2="677.2" y1="372.2" y2="566.8"/><linearGradient xlink:href="#a" id="c" x1="397.9" x2="650.8" y1="455.7" y2="708.6"/><linearGradient xlink:href="#a" id="d" x1="162.2" x2="943.9" y1="162.2" y2="943.9"/><linearGradient xlink:href="#a" id="e" x1="166.8" x2="487.1" y1="360.4" y2="360.4"/><linearGradient xlink:href="#a" id="f" x1="747.6" x2="877.7" y1="411.4" y2="411.4"/><linearGradient xlink:href="#a" id="g" x1="219.8" x2="651.6" y1="622.2" y2="622.2"/></defs><path fill="#8105f5" d="M266.7 232.8a545.8 545.8 0 0 0-38.8-6.4c-7.4-.8-13.5-1.3-19-1.4H205a76.7 76.7 0 0 0-13.8 1 27.4 27.4 0 0 0-6.8 2 10.2 10.2 0 0 0-2 1.2 3.3 3.3 0 0 0-.8.9 5 5 0 0 0-.3 2.3 22.2 22.2 0 0 0 1.6 6.2 60.2 60.2 0 0 0 3.5 7.4c1.4 2.4 3 5 4.9 7.6a187 187 0 0 0 11.6 15c7.7 9 16.5 18.3 26.8 28.3a757 757 0 0 0 29.2 26.9l4.5 4a369.5 369.5 0 0 1 80.8-76.4 1437 1437 0 0 0-77.5-18.6z"/><path fill="url(#a)" d="M553 49c-141.7 0-270 58.8-361.6 153.3a101.5 101.5 0 0 1 11.4-.6 143 143 0 0 1 6.8.2c6.6.2 13.5.9 21.2 2a395 395 0 0 1 40.5 7.6c23 5.4 68.5 15.2 97.5 24.1a366.5 366.5 0 0 1 426 41.6l9-17.8L816 280a20 20 0 0 0 8.3 7.7l21.4 10.7-18.5 11A365.5 365.5 0 0 1 920 553c0 202.4-164.6 367-367 367S186 755.4 186 553a364.6 364.6 0 0 1 62.9-205.2l-6.4-5.5c-11-9.8-20.9-18.9-30-27.8a431 431 0 0 1-28.3-30.3 214.6 214.6 0 0 1-18.8-26.5 78.9 78.9 0 0 1-5-10.7 54 54 0 0 1-2-7A501.4 501.4 0 0 0 49 553c0 278 226 504 504 504s504-226 504-504S831 49 553 49z"/><path fill="url(#b)" d="M726.6 501.5q.2-30-23.1-51.1-23.2-21.2-56.4-21.2H458.9q-27.2 0-47.8 14.4l3 2.3 54.5 39.8a33 33 0 0 1 10.2-1.4h148.4q13.6-.5 22.6 8.3a26.2 26.2 0 0 1 9.2 20.6v4.2h67.6z"/><path fill="url(#c)" d="M726.6 604.5V589H659v3.8a27 27 0 0 1-9.2 20.4q-9 8-22.6 8.5H478.8a34 34 0 0 1-22.4-8.3 27.1 27.1 0 0 1-9.4-20.6v-79.5a26 26 0 0 1 4.4-15.2l-14.5-9.8-33.6-22.6-9.1-6.3a65 65 0 0 0-14.8 42v103q0 30 23.1 51.3 23.3 21 56.4 21.1h188.2q33.2 0 56.4-21.1 23.3-21.2 23.1-51.2z"/><path fill="#070feb" d="m691.4 567.3 2.3 4.1 2.5-4.7a28.1 28.1 0 0 1 11.2-11.1l4.6-2.6-5.2-2.8a26.3 26.3 0 0 1-10.4-10.4l-2.8-5.2-2.4 4.4a29.2 29.2 0 0 1-11.6 11.6l-4.4 2.4 4.1 2.3a30.2 30.2 0 0 1 12 12z"/><path fill="url(#d)" d="M553 0C248 0 0 248 0 553s248 553 553 553 553-248 553-553S858 0 553 0Zm0 1087.5c-294.7 0-534.5-239.8-534.5-534.5S258.3 18.5 553 18.5s534.5 239.8 534.5 534.5-239.8 534.5-534.5 534.5Z"/><path fill="#070feb" d="m862 577.8-4.8 2.8 4.7 2.4a33.7 33.7 0 0 1 13.8 13l2.7 4.5 2.6-5.3a31.5 31.5 0 0 1 12.1-12.9l5.1-3-5.8-3a29.2 29.2 0 0 1-12-11.2l-3.4-5.7-2.5 5a32.5 32.5 0 0 1-12.5 13.4z"/><path fill="#8105f5" d="m732.7 246.8-6-10-4.5 9a58 58 0 0 1-22.2 24l-8.6 5 8.5 4.3a60.2 60.2 0 0 1 24.8 23l4.8 8 4.7-9.4a56.2 56.2 0 0 1 21.5-23.2l9-5.4-10.4-5.2a52.3 52.3 0 0 1-21.6-20zm70.6 69.2 2.8 4.6 2.6-5.4a31.8 31.8 0 0 1 12.2-13.1l5.1-3-5.9-3a29.7 29.7 0 0 1-12.2-11.4l-3.4-5.7-2.5 5.2a33 33 0 0 1-12.6 13.5l-4.9 3 4.8 2.3a34.2 34.2 0 0 1 14 13z"/><path fill="url(#e)" d="M169.2 243.7a70.5 70.5 0 0 0 4.5 9.5 212.4 212.4 0 0 0 17.8 25c8.6 10.4 18 20.1 27.6 29.6s19.6 18.5 29.6 27.4c40.5 35.6 83.3 68.3 127 99.6q16.4 11.6 33 23t33.4 22.6c22.4 14.8 22 15.5 45 29.3-44.7-29.8-65.6-46.8-108.7-78.7-21.6-16-43-32.1-64-48.8s-41.7-33.6-61.8-51.4c-10-8.8-19.9-17.9-29.5-27.2s-18.8-19-27.4-29a200.7 200.7 0 0 1-17.5-24 65.7 65.7 0 0 1-4.2-8.7 30.8 30.8 0 0 1-2.1-9 12.3 12.3 0 0 1 4.7-11.2 19.2 19.2 0 0 1 3.8-2.3 38.7 38.7 0 0 1 9-2.7 97.5 97.5 0 0 1 19.7-1.2 355.6 355.6 0 0 1 39.7 4.3 1236.5 1236.5 0 0 1 97.9 22.7 992 992 0 0 0-77.6-21.8 572.4 572.4 0 0 0-39.7-7.5c-6.7-1-13.4-1.6-20.2-2a102 102 0 0 0-20.5 1 42.6 42.6 0 0 0-10.3 2.8 24 24 0 0 0-4.8 2.8 18 18 0 0 0-4 4.2 15.8 15.8 0 0 0-2.3 5.5 21.1 21.1 0 0 0-.5 5.6 35.6 35.6 0 0 0 2.4 10.6Z"/><path fill="url(#f)" d="M747.6 293.3q8.2 6.3 16 13 9 7.9 17.3 16.3 8.5 8.4 16.2 17.5a344 344 0 0 1 28.6 38.2l3.2 5.1 3 5.1 3 5.2 3 5.2a326 326 0 0 1 19.6 43.7 343.8 343.8 0 0 1 20.2 93.9 315.7 315.7 0 0 0-15.2-95.6 327.5 327.5 0 0 0-18.5-45.2 326.6 326.6 0 0 0-89-109.3 49.2 49.2 0 0 0-7.4 7z"/><path fill="url(#g)" d="M247.6 456.4a329.2 329.2 0 0 1 22.8-58.5q5.6-11.1 12.2-21.8l-9.1-7.5q-7.6 11.5-14 23.5a325.8 325.8 0 0 0-25.4 60.3 318.8 318.8 0 0 0-12.8 64.2c-4.3 43.6.8 88 14 129.7A334.2 334.2 0 0 0 298.6 760a327.3 327.3 0 0 0 101.8 80.4A330.8 330.8 0 0 0 524.6 875a323.9 323.9 0 0 0 127-16.3A327.2 327.2 0 0 1 308 752.2a319.9 319.9 0 0 1-58.7-110.3 328.7 328.7 0 0 1-13-123.9 334.3 334.3 0 0 1 11.2-61.6z"/><path fill="#8105f5" d="M642 228.3c-7.8-2.3-15.8-4.2-23.9-5.8a326.8 326.8 0 0 0-145.9 3.1 337.9 337.9 0 0 0-40.6 13.1l-1 .4a324.7 324.7 0 0 0-66.7 35.4 324 324 0 0 0-57.4 50.7 313.6 313.6 0 0 0-18.8 23.2l8.5 7a320.6 320.6 0 0 1 27.1-33.2q8.4-8.4 17.3-16.2c4.7-4 9.5-8 14.4-11.8l7.4-5.6 7.6-5.4a336.3 336.3 0 0 1 137-55.1l2-.3c4-.5 8.2-1 12.4-1.3q11.9-.8 23.8-1c7.9 0 15.8.2 23.7.7a329.6 329.6 0 0 1 47.1 6.5 312.3 312.3 0 0 1 45.7 13.2 316.2 316.2 0 0 1 36.8 16.3 51.4 51.4 0 0 0 8.7-7.3 331 331 0 0 0-41.8-18.9 310 310 0 0 0-23.4-7.7z"/></svg>