<svg xmlns="http://www.w3.org/2000/svg" viewBox="0 0 80 80">
  <defs>
    <linearGradient id="bf59a2da-b8d7-474e-8792-4ec04d0a5709" x1="17.336" x2="80" y1="74.339" y2="74.339" gradientUnits="userSpaceOnUse">
      <stop offset="0" stop-color="#030"/>
      <stop offset=".325" stop-color="#003600"/>
      <stop offset=".585" stop-color="#004000"/>
      <stop offset=".823" stop-color="#005100"/>
      <stop offset="1" stop-color="#006300"/>
    </linearGradient>
    <linearGradient id="ee0fc97d-e846-4dc3-be42-3403c858d282" x1="48.668" x2="48.668" y1="68.69" y2="80" gradientUnits="userSpaceOnUse">
      <stop offset=".35" stop-color="#209300"/>
      <stop offset=".645" stop-color="#1f9100"/>
      <stop offset=".752" stop-color="#1d8a00"/>
      <stop offset=".828" stop-color="#197f00"/>
      <stop offset=".889" stop-color="#136e00"/>
      <stop offset=".941" stop-color="#0c5800"/>
      <stop offset=".987" stop-color="#033d00"/>
      <stop offset="1" stop-color="#003400"/>
    </linearGradient>
    <linearGradient id="f52fd0ee-d857-4b02-be36-2456ff380425" x1="17.336" x2="80" y1="44.879" y2="44.879" gradientUnits="userSpaceOnUse">
      <stop offset="0" stop-color="#f87f00"/>
      <stop offset=".021" stop-color="#f88102"/>
      <stop offset=".244" stop-color="#fc9213"/>
      <stop offset=".487" stop-color="#fe9c1d"/>
      <stop offset=".791" stop-color="#ff9f20"/>
      <stop offset=".841" stop-color="#fd9c1e"/>
      <stop offset=".882" stop-color="#f79219"/>
      <stop offset=".919" stop-color="#ed8111"/>
      <stop offset=".954" stop-color="#de6905"/>
      <stop offset=".966" stop-color="#d85f00"/>
      <stop offset="1" stop-color="#ff9f20"/>
    </linearGradient>
    <linearGradient id="eea53873-b134-4e71-b100-bf60448bd73c" x1="17.336" x2="80" y1="65.749" y2="65.749" gradientUnits="userSpaceOnUse">
      <stop offset="0" stop-color="#209200"/>
      <stop offset=".03" stop-color="#239503"/>
      <stop offset=".25" stop-color="#33a613"/>
      <stop offset=".491" stop-color="#3db01d"/>
      <stop offset=".791" stop-color="#40b320"/>
      <stop offset=".841" stop-color="#3db01e"/>
      <stop offset=".881" stop-color="#33a619"/>
      <stop offset=".918" stop-color="#229511"/>
      <stop offset=".953" stop-color="#0b7d06"/>
      <stop offset=".966" stop-color="#007200"/>
      <stop offset="1" stop-color="#40b320"/>
    </linearGradient>
    <linearGradient id="a972937b-fd71-4ed1-9b26-a3c08d1b6b34" x1="17.336" x2="80" y1="55.314" y2="55.314" gradientUnits="userSpaceOnUse">
      <stop offset="0" stop-color="#dfdfdf"/>
      <stop offset=".021" stop-color="#e1e1e1"/>
      <stop offset=".244" stop-color="#f2f2f2"/>
      <stop offset=".487" stop-color="#fcfcfc"/>
      <stop offset=".791" stop-color="#fff"/>
      <stop offset=".841" stop-color="#fcfcfc"/>
      <stop offset=".882" stop-color="#f2f2f2"/>
      <stop offset=".919" stop-color="#e1e1e1"/>
      <stop offset=".954" stop-color="#c9c9c9"/>
      <stop offset=".966" stop-color="#bfbfbf"/>
      <stop offset="1" stop-color="#fff"/>
    </linearGradient>
    <linearGradient id="acd49b54-9ddc-4cfa-979a-2dc52a45cd69" x1="17.335" x2="80.001" y1="56.155" y2="56.155" gradientUnits="userSpaceOnUse">
      <stop offset="0" stop-color="#0050cf"/>
      <stop offset=".021" stop-color="#0252d1"/>
      <stop offset=".244" stop-color="#1363e2"/>
      <stop offset=".487" stop-color="#1d6dec"/>
      <stop offset=".791" stop-color="#2070ef"/>
      <stop offset=".841" stop-color="#1e6dec"/>
      <stop offset=".882" stop-color="#1963e2"/>
      <stop offset=".919" stop-color="#1152d1"/>
      <stop offset=".954" stop-color="#053ab9"/>
      <stop offset=".966" stop-color="#0030af"/>
      <stop offset="1" stop-color="#2070ef"/>
    </linearGradient>
  </defs>
  <path fill="#0e3ca5" d="M32.585 59.26c2 7.4 9.176 13.045 12.8 12.812.127-.009 13.745-2.548 21.2-15 5.8-9.693 3.826-19.05-4.064-19.255-2.839.208-33.745 7.349-29.934 21.446m29.198-47.528-.008-.007.011-.006a34.632 34.632 0 0 0-36.5-5.267A20.236 20.236 0 0 0 23.1 7.53c-.486.258-.972.516-1.444.8l.115.035a15.78 15.78 0 0 0-3.655 3.46C8.172 24.953 41.486 34.5 59.3 34.528c8.191 5.883 10.491-16.56 2.485-22.793Z"/>
  <path fill="#5493f7" d="M27.3 12C22.723 18.88 7.478 23.727 4.971 22.972l-.017-.032q.155-.311.313-.619a36.682 36.682 0 0 1 10.87-12.683q1.407-1.03 2.913-1.928a10.8 10.8 0 0 1 5.04-1.343c6.789.13 3.244 5.58 3.207 5.635m-3.753 48.611c.329 2.161-.008 10.7-.45 11.418-.381.023-1.174.072-3.471-1.217A36.541 36.541 0 0 1 3.054 27.558q.183-.55.383-1.093c2.631 3.5 5.676 6.665 8.264 10.2 2.465 3.366 5.856 8.852 6.546 10.024 4.284 7.278 4.967 11.767 5.294 13.925m50.648-21.52A36.4 36.4 0 0 1 71.648 52.5c-4.3 4.62-33.283-6.753-33.567-6.877C34.116 43.886 22.05 38.6 20.961 30.3 19.4 18.35 43.63 10.027 54.28 9.711c1.277.015 5.163.06 7.429 1.9a36.415 36.415 0 0 1 12.48 27.483M54.568 71.467c-3.16 1.474-6.638.4-5.734-2.677 1.735-5.909 16.886-11.967 20.232-12.3.413-.041.588.241.405.561a36.866 36.866 0 0 1-14.9 14.411"/>
  <path fill="url(#bf59a2da-b8d7-474e-8792-4ec04d0a5709)" d="M17.336 77.254a2.552 2.552 0 0 0 2.328 2.714c30.7.21 60.336-1.2 60.336-5.8 0-13.924-62.664 3.086-62.664 3.086Z"/>
  <path fill="url(#ee0fc97d-e846-4dc3-be42-3403c858d282)" d="M17.336 77.254a2.549 2.549 0 0 0 2.34 2.714c30.692.233 60.287-.731 60.324-5.8 0-13.924-62.664 3.086-62.664 3.086Zm2.342 2.537a2.194 2.194 0 0 1-.245-.014 2.4 2.4 0 0 1-1.987-1.763 2.368 2.368 0 0 0 2.229 1.761c30.67-.192 59.844-9.635 59.844-5.477 0 4.244-29.172 5.702-59.841 5.493Z"/>
  <path fill="url(#f52fd0ee-d857-4b02-be36-2456ff380425)" d="M24.206 58.581c1.092-.042 2.164-.088 3.216-.147s2.081-.127 3.094-.2 2.007-.159 2.986-.248 1.946-.181 2.9-.276 1.895-.2 2.826-.3 1.847-.216 2.762-.328 1.824-.229 2.73-.349 1.8-.244 2.7-.375 1.784-.27 2.68-.409 1.8-.277 2.7-.42 1.809-.289 2.717-.441 1.823-.311 2.75-.47l2.815-.484q1.425-.246 2.884-.5c.974-.172 1.961-.348 2.968-.518s2.029-.333 3.073-.492 2-.3 3.3-.464a24.367 24.367 0 0 1 4.279-.229c1.348.089 2.414.43 2.414 1.369V32.4c.037-4.961-29.627 5.2-60.32 5.429a2.343 2.343 0 0 0-2.344 2.343v18.56c1.2 0 2.368-.015 3.514-.04s2.262-.069 3.356-.111Z"/>
  <path fill="url(#eea53873-b134-4e71-b100-bf60448bd73c)" d="M19.664 79.6C50.363 79.37 80.037 69.209 80 74.169V53.3c0-.936-1.066-1.277-2.41-1.369a24.367 24.367 0 0 0-4.279.229c-1.307.16-2.259.305-3.3.464s-2.068.323-3.073.492-1.994.346-2.968.518-1.934.338-2.884.5l-2.815.484c-.927.159-1.841.318-2.75.47s-1.813.3-2.717.441-1.8.282-2.7.42-1.786.278-2.68.409-1.794.254-2.7.375-1.816.236-2.73.349-1.832.224-2.762.328-1.872.2-2.826.3-1.92.187-2.9.276-1.973.173-2.986.248-2.043.143-3.094.2-2.124.105-3.216.147-2.212.08-3.356.1-2.316.041-3.514.04v18.533a2.343 2.343 0 0 0 2.324 2.346Z"/>
  <path fill="url(#a972937b-fd71-4ed1-9b26-a3c08d1b6b34)" d="M77.591 44.965a24.378 24.378 0 0 0-4.28.227c-1.307.16-2.259.3-3.3.464s-2.068.326-3.073.5-1.994.345-2.968.516-1.934.34-2.883.5l-2.816.483c-.927.16-1.841.32-2.748.471s-1.814.3-2.717.441-1.806.281-2.705.419-1.785.278-2.679.41-1.794.254-2.7.375-1.817.236-2.731.349-1.832.225-2.762.33-1.87.2-2.824.3-1.922.187-2.9.275-1.973.174-2.986.249-2.043.142-3.094.2a192.954 192.954 0 0 1-10.086.294V65.69q1.8 0 3.512-.04t3.356-.1q1.639-.063 3.218-.15t3.094-.2q1.52-.113 2.986-.25t2.9-.273q1.431-.142 2.825-.3c.929-.1 1.848-.215 2.763-.328s1.823-.229 2.726-.349 1.8-.245 2.7-.375 1.786-.272 2.682-.411 1.8-.276 2.7-.419 1.808-.288 2.718-.439 1.824-.312 2.751-.471l2.815-.485c.949-.164 1.911-.33 2.884-.5s1.961-.347 2.968-.516 2.029-.334 3.073-.493 2-.3 3.3-.465a24.464 24.464 0 0 1 4.279-.229c1.344.091 2.409.434 2.41 1.37V46.336c.001-.936-1.064-1.28-2.408-1.371Z"/>
  <path fill="url(#acd49b54-9ddc-4cfa-979a-2dc52a45cd69)" d="M51.775 50.536a5.491 5.491 0 0 0-3.02-.35 7 7 0 0 0-3.005 1.253 7.407 7.407 0 0 0-2.15 2.427 6.5 6.5 0 0 0-.819 3.117 5.373 5.373 0 0 0 .819 2.909 4.913 4.913 0 0 0 2.149 1.857 5.325 5.325 0 0 0 3.009.377 6.863 6.863 0 0 0 3.017-1.281 7.538 7.538 0 0 0 2.147-2.481 6.706 6.706 0 0 0 .816-3.147 5.251 5.251 0 0 0-.814-2.879 4.769 4.769 0 0 0-2.149-1.802Zm-6.394 2.129a.258.258 0 0 0 .36-.008.271.271 0 0 0 .052-.365 6.777 6.777 0 0 1 .736-.522.237.237 0 0 0 .336.084.3.3 0 0 0 .143-.353c.133-.066.267-.127.4-.184s.271-.11.411-.156a.22.22 0 0 0 .289.174.312.312 0 0 0 .223-.316c.14-.032.278-.065.42-.087s.284-.033.424-.044a.217.217 0 0 0 .224.248.313.313 0 0 0 .289-.26c.141 0 .278.012.415.028s.272.038.405.065a.229.229 0 0 0 .144.31.3.3 0 0 0 .336-.185c.128.04.255.086.378.137a3.956 3.956 0 0 1 .36.17.248.248 0 0 0 .051.351.284.284 0 0 0 .361-.1c.108.075.214.152.315.237s.194.176.287.27a.268.268 0 0 0-.043.364.255.255 0 0 0 .359 0c.08.1.154.211.225.321.072.11.136.228.2.345a.3.3 0 0 0-.133.356.231.231 0 0 0 .332.09c.047.126.089.253.125.385-1.228.452-1.846.675-3.077 1.121l-.984.544a.888.888 0 0 0-.064-.144l.974-.565c1.05-.85 1.578-1.276 2.626-2.128-1.119.74-1.683 1.11-2.8 1.846-.338.3-.509.458-.847.764a.8.8 0 0 0-.1-.115l.832-.782 2.1-2.668-2.35 2.453-.654.933a.806.806 0 0 0-.131-.083l.633-.942c.565-1.208.848-1.813 1.415-3.02-.691 1.154-1.036 1.733-1.726 2.888l-.415 1.036a.889.889 0 0 0-.154-.038l.394-1.044.638-3.169c-.395 1.252-.591 1.879-.984 3.131l-.149 1.064a1.039 1.039 0 0 0-.166.009l.125-1.069-.178-3.107-.178 3.162.125 1.03a1.322 1.322 0 0 0-.164.044l-.148-1.02c-.39-1.131-.586-1.7-.978-2.831l.634 2.976.391.921a1.2 1.2 0 0 0-.152.087l-.414-.91-1.718-2.373 1.409 2.6.629.749a1.26 1.26 0 0 0-.129.124l-.651-.735c-.929-.7-1.4-1.046-2.33-1.75.092-.116.183-.238.292-.344Zm-.919 1.135a.277.277 0 0 0 .358-.1.249.249 0 0 0-.041-.354c.092-.12.2-.225.3-.339.833.819 1.249 1.228 2.079 2.039l.827.531a1.309 1.309 0 0 0-.1.146c-.337-.2-.506-.3-.843-.509-1.12-.4-1.682-.608-2.806-1.025a4.69 4.69 0 0 1 .226-.389Zm-.623 1.292a.3.3 0 0 0 .332-.185.232.232 0 0 0-.134-.317c.061-.135.128-.27.2-.4 1.053.55 1.579.824 2.628 1.362.389.111.583.164.971.272a1.339 1.339 0 0 0-.063.163l-.981-.25c-1.228-.08-1.845-.127-3.078-.221a4.41 4.41 0 0 1 .125-.425Zm-.289 2.218c-.011-.14-.021-.278-.021-.421s.01-.285.021-.427a.3.3 0 0 0 .283-.259.223.223 0 0 0-.217-.261c.026-.144.06-.285.1-.425 1.2.238 1.794.353 2.985.578h1.042a1.027 1.027 0 0 0-.017.166c-.419.012-.63.018-1.05.028a204.93 204.93 0 0 1-3.143.6 230.93 230.93 0 0 0 3.143-.244l1.05-.278a.934.934 0 0 0 .017.161 89.13 89.13 0 0 1-1.042.3c-1.191.561-1.79.838-2.985 1.386a4.034 4.034 0 0 1-.094-.4.3.3 0 0 0 .215-.316.226.226 0 0 0-.287-.189Zm.486 1.748a.29.29 0 0 0 .134-.352.236.236 0 0 0-.332-.1 4.722 4.722 0 0 1-.126-.387c1.232-.415 1.85-.625 3.078-1.054.393-.214.589-.321.98-.537a.939.939 0 0 0 .064.144c-.388.224-.582.335-.971.557a319.384 319.384 0 0 1-2.63 2.079 7.512 7.512 0 0 1-.197-.351Zm.742 1.049a.269.269 0 0 0 .041-.365.256.256 0 0 0-.359-.007 3.726 3.726 0 0 1-.225-.328 301.6 301.6 0 0 0 2.807-1.794l.842-.757a.807.807 0 0 0 .1.116c-.331.311-.5.466-.83.776a497.404 497.404 0 0 1-2.079 2.617c-.098-.088-.206-.165-.297-.259Zm.961.426a.279.279 0 0 0-.361.091c-.108-.077-.2-.172-.3-.258.935-.956 1.4-1.437 2.332-2.4l.651-.927a.893.893 0 0 0 .13.083c-.251.376-.378.564-.63.939-.563 1.2-.846 1.8-1.411 3a4.409 4.409 0 0 1-.36-.172.25.25 0 0 0-.051-.357Zm3.953.614a.22.22 0 0 0-.289-.172.313.313 0 0 0-.224.317c-.14.033-.282.066-.424.087s-.282.035-.422.045a.219.219 0 0 0-.223-.25.313.313 0 0 0-.288.26c-.14-.005-.276-.015-.412-.033s-.274-.039-.406-.066a.229.229 0 0 0-.143-.312.3.3 0 0 0-.334.179 3.957 3.957 0 0 1-.377-.143c.689-1.145 1.034-1.718 1.72-2.868l.415-1.036a.838.838 0 0 0 .153.04l-.393 1.043-.635 3.163c.393-1.248.589-1.873.98-3.123l.148-1.066a1.015 1.015 0 0 0 .162-.012l-.126 1.069.179 3.1.178-3.16-.125-1.031a1.348 1.348 0 0 0 .166-.043l.149 1.018c.393 1.131.59 1.7.984 2.827-.134.065-.273.12-.413.166Zm2.448-1.534a.256.256 0 0 0-.36.014.274.274 0 0 0-.052.366c-.115.1-.237.189-.361.279s-.247.174-.375.255a.235.235 0 0 0-.337-.079.3.3 0 0 0-.143.353 7.217 7.217 0 0 1-.4.189c-.256-1.189-.385-1.783-.64-2.972l-.393-.92a1.183 1.183 0 0 0 .154-.089l.415.91 1.723 2.353-1.412-2.581-.634-.747a1.2 1.2 0 0 0 .132-.124l.654.732 2.333 1.714c-.104.114-.196.234-.304.346Zm1.539-2.466a.3.3 0 0 0-.33.2.228.228 0 0 0 .131.314c-.06.138-.125.271-.2.405s-.146.267-.226.394a.284.284 0 0 0-.358.111.248.248 0 0 0 .041.353c-.092.121-.2.229-.3.345l-2.082-2-.832-.524a1.219 1.219 0 0 0 .1-.145l.847.5c1.123.39 1.685.583 2.807.969a916.566 916.566 0 0 1-2.629-1.308l-.974-.267a1.137 1.137 0 0 0 .064-.162l.983.242c1.23.064 1.849.1 3.077.156a4.132 4.132 0 0 1-.119.416Zm.31-1.807c0 .144-.01.285-.022.427a.319.319 0 0 0-.282.27.215.215 0 0 0 .215.254 5.756 5.756 0 0 1-.094.429c-1.192-.2-1.791-.307-2.984-.514l-1.046.011a1.053 1.053 0 0 0 .019-.169l1.053-.036c1.257-.267 1.886-.4 3.141-.672-1.255.129-1.885.191-3.141.314l-1.053.289a.945.945 0 0 0-.019-.161l1.047-.312c1.193-.578 1.792-.868 2.984-1.452.037.131.069.263.094.4a.315.315 0 0 0-.216.324.218.218 0 0 0 .282.179c.012.136.022.279.022.418Z"/>
</svg>
