<svg xmlns="http://www.w3.org/2000/svg" xmlns:xlink="http://www.w3.org/1999/xlink" viewBox="0 0 80 80">
  <defs>
    <linearGradient id="a5fd1339-484e-430c-845a-7efa01eee944" x1="17.336" x2="80" y1="74.339" y2="74.339" gradientUnits="userSpaceOnUse">
      <stop offset="0" stop-color="#600000"/>
      <stop offset=".327" stop-color="#630000"/>
      <stop offset=".59" stop-color="#6d0000"/>
      <stop offset=".83" stop-color="#7e0000"/>
      <stop offset="1" stop-color="#8f0000"/>
    </linearGradient>
    <linearGradient id="b63f9896-f26e-4925-9e1b-8584b460ed9f" x1="48.668" x2="48.668" y1="68.69" y2="80" gradientUnits="userSpaceOnUse">
      <stop offset=".35" stop-color="#bf1010"/>
      <stop offset=".645" stop-color="#bd1010"/>
      <stop offset=".752" stop-color="#b60f0f"/>
      <stop offset=".828" stop-color="#ab0d0d"/>
      <stop offset=".889" stop-color="#9a0a0a"/>
      <stop offset=".941" stop-color="#840606"/>
      <stop offset=".987" stop-color="#690202"/>
      <stop offset="1" stop-color="#600000"/>
    </linearGradient>
    <linearGradient id="b38e0a04-98c3-4407-898f-7f329923cafc" x1="17.336" x2="80" y1="55.314" y2="55.314" gradientUnits="userSpaceOnUse">
      <stop offset="0" stop-color="#bf1010"/>
      <stop offset=".021" stop-color="#c11212"/>
      <stop offset=".244" stop-color="#d22323"/>
      <stop offset=".487" stop-color="#dc2d2d"/>
      <stop offset=".791" stop-color="#df3030"/>
      <stop offset=".841" stop-color="#dc2e2e"/>
      <stop offset=".882" stop-color="#d22626"/>
      <stop offset=".919" stop-color="#c11919"/>
      <stop offset=".954" stop-color="#a90808"/>
      <stop offset=".966" stop-color="#9f0000"/>
      <stop offset="1" stop-color="#df3030"/>
    </linearGradient>
    <linearGradient id="b4a84284-1b1f-42d0-adc8-80f7b9b87f2c" x1="17.336" x2="80" y1="48.905" y2="48.905" gradientUnits="userSpaceOnUse">
      <stop offset="0" stop-color="#dfdfdf"/>
      <stop offset=".021" stop-color="#e1e1e1"/>
      <stop offset=".244" stop-color="#f2f2f2"/>
      <stop offset=".487" stop-color="#fcfcfc"/>
      <stop offset=".791" stop-color="#fff"/>
      <stop offset=".841" stop-color="#fcfcfc"/>
      <stop offset=".882" stop-color="#f2f2f2"/>
      <stop offset=".919" stop-color="#e1e1e1"/>
      <stop offset=".954" stop-color="#c9c9c9"/>
      <stop offset=".966" stop-color="#bfbfbf"/>
      <stop offset="1" stop-color="#fff"/>
    </linearGradient>
    <linearGradient xlink:href="#b4a84284-1b1f-42d0-adc8-80f7b9b87f2c" id="ea4de765-d750-4ffa-a39f-e1a6cd3bdebf" x1="17.336" x2="80" y1="64.973" y2="64.973"/>
    <linearGradient xlink:href="#b4a84284-1b1f-42d0-adc8-80f7b9b87f2c" id="bd57b86e-5cee-44af-8944-6cc892e46132" x1="17.336" x2="80" y1="71.401" y2="71.401"/>
    <linearGradient id="bde4f2c6-62b3-4c2a-b633-efcf8df8122b" x1="17.336" x2="80" y1="47.875" y2="47.875" gradientUnits="userSpaceOnUse">
      <stop offset="0" stop-color="#00209f"/>
      <stop offset=".021" stop-color="#0222a1"/>
      <stop offset=".244" stop-color="#1333b2"/>
      <stop offset=".487" stop-color="#1d3dbc"/>
      <stop offset=".791" stop-color="#2040bf"/>
      <stop offset=".841" stop-color="#1e3dbc"/>
      <stop offset=".882" stop-color="#1933b2"/>
      <stop offset=".919" stop-color="#1122a1"/>
      <stop offset=".954" stop-color="#050a89"/>
      <stop offset=".966" stop-color="#00007f"/>
      <stop offset="1" stop-color="#2040bf"/>
    </linearGradient>
    <linearGradient xlink:href="#b4a84284-1b1f-42d0-adc8-80f7b9b87f2c" id="b4af3482-80f6-4791-bbf3-e70b8e13f1df" x1="17.337" x2="79.997" y1="39.947" y2="39.947"/>
    <linearGradient xlink:href="#b4a84284-1b1f-42d0-adc8-80f7b9b87f2c" id="f4f43be7-93a3-402b-bca9-6be564d61de0" x1="17.337" x2="79.994" y1="51.042" y2="51.042"/>
    <linearGradient xlink:href="#b4a84284-1b1f-42d0-adc8-80f7b9b87f2c" id="bf3d64d0-d40a-4bff-8dca-86dc3002b916" x1="17.337" x2="79.994" y1="55.527" y2="55.527"/>
    <linearGradient xlink:href="#b4a84284-1b1f-42d0-adc8-80f7b9b87f2c" id="ee224b29-450f-4452-8b1e-c41852bd7b5e" x1="17.337" x2="79.997" y1="48.919" y2="48.919"/>
    <linearGradient xlink:href="#b4a84284-1b1f-42d0-adc8-80f7b9b87f2c" id="a0f82d3b-4811-4899-bfa7-c63d52dedeae" x1="17.337" x2="79.997" y1="53.403" y2="53.403"/>
    <linearGradient xlink:href="#b4a84284-1b1f-42d0-adc8-80f7b9b87f2c" id="b2fb117c-a3fb-4c8d-b6ab-66d41610bf5e" x1="17.337" x2="79.997" y1="44.433" y2="44.433"/>
    <linearGradient xlink:href="#b4a84284-1b1f-42d0-adc8-80f7b9b87f2c" id="b3d7423d-d067-4a27-b74f-f74e7d22aa82" x1="17.333" x2="80.009" y1="55.161" y2="55.161"/>
    <linearGradient xlink:href="#b4a84284-1b1f-42d0-adc8-80f7b9b87f2c" id="a72543f9-ef45-4c4b-abf7-6fb8c1b19082" x1="17.337" x2="79.994" y1="46.557" y2="46.557"/>
    <linearGradient xlink:href="#b4a84284-1b1f-42d0-adc8-80f7b9b87f2c" id="a36b6485-57f5-4602-b443-3043a53bd53a" x1="17.337" x2="79.994" y1="53.123" y2="53.123"/>
    <linearGradient xlink:href="#b4a84284-1b1f-42d0-adc8-80f7b9b87f2c" id="e51758cd-d99c-406c-86d4-094fb1214cac" x1="17.337" x2="79.994" y1="57.609" y2="57.609"/>
    <linearGradient xlink:href="#b4a84284-1b1f-42d0-adc8-80f7b9b87f2c" id="bbd9b7d9-d004-4b84-b677-5279474c1980" x1="17.337" x2="79.994" y1="42.071" y2="42.071"/>
    <linearGradient xlink:href="#b4a84284-1b1f-42d0-adc8-80f7b9b87f2c" id="ba4ca378-80d8-4dd2-b07c-17b9f854e3e1" x1="17.337" x2="79.996" y1="48.638" y2="48.638"/>
    <linearGradient xlink:href="#b4a84284-1b1f-42d0-adc8-80f7b9b87f2c" id="a89f5a12-8a47-4362-bb95-cbba181f7eec" x1="17.337" x2="79.997" y1="57.89" y2="57.89"/>
    <linearGradient xlink:href="#b4a84284-1b1f-42d0-adc8-80f7b9b87f2c" id="b65fb1f7-f271-44e3-8a18-4d94d1e1882a" x1="17.336" x2="80.008" y1="49.054" y2="49.054"/>
    <linearGradient xlink:href="#b4a84284-1b1f-42d0-adc8-80f7b9b87f2c" id="bfb5797b-6965-474f-b8e7-153b0957bed6" x1="17.336" x2="80.008" y1="44.568" y2="44.568"/>
    <linearGradient xlink:href="#b4a84284-1b1f-42d0-adc8-80f7b9b87f2c" id="e42216bc-3f2e-42d9-b35f-866bb8011d86" x1="17.336" x2="79.991" y1="58.025" y2="58.025"/>
    <linearGradient xlink:href="#b4a84284-1b1f-42d0-adc8-80f7b9b87f2c" id="e4609b86-0886-4374-a6b0-cddd97a69b64" x1="17.337" x2="79.994" y1="44.153" y2="44.153"/>
    <linearGradient xlink:href="#b4a84284-1b1f-42d0-adc8-80f7b9b87f2c" id="e48e9e55-446f-4960-b55c-08449b28a27c" x1="17.337" x2="79.994" y1="39.666" y2="39.666"/>
    <linearGradient xlink:href="#b4a84284-1b1f-42d0-adc8-80f7b9b87f2c" id="a18a91d5-8349-42ce-8a19-73a5171d2ad0" x1="17.336" x2="79.991" y1="53.539" y2="53.539"/>
    <linearGradient xlink:href="#b4a84284-1b1f-42d0-adc8-80f7b9b87f2c" id="e646f1cf-ecff-4ac1-9d3d-61229df567cf" x1="17.336" x2="79.993" y1="42.277" y2="42.277"/>
    <linearGradient xlink:href="#b4a84284-1b1f-42d0-adc8-80f7b9b87f2c" id="acef0ddf-c695-43b6-8c9b-7f8e7670f9b4" x1="17.336" x2="79.993" y1="46.762" y2="46.762"/>
    <linearGradient xlink:href="#b4a84284-1b1f-42d0-adc8-80f7b9b87f2c" id="f1480255-0f91-4c7c-b03c-e7567ab2a340" x1="17.336" x2="79.993" y1="55.732" y2="55.732"/>
    <linearGradient xlink:href="#b4a84284-1b1f-42d0-adc8-80f7b9b87f2c" id="a9b793fb-c753-4172-8ae2-7a0a5237db70" x1="17.336" x2="79.993" y1="51.247" y2="51.247"/>
    <linearGradient xlink:href="#b4a84284-1b1f-42d0-adc8-80f7b9b87f2c" id="be2513c0-af1b-4015-bb71-042cba09e34e" x1="17.336" x2="80.006" y1="40.082" y2="40.082"/>
    <linearGradient xlink:href="#b4a84284-1b1f-42d0-adc8-80f7b9b87f2c" id="e5ea36a3-766b-41c2-bc6f-c08e6e206b10" x1="17.333" x2="80.009" y1="50.676" y2="50.676"/>
    <linearGradient xlink:href="#b4a84284-1b1f-42d0-adc8-80f7b9b87f2c" id="af61bbee-6255-48d9-9395-24ddbb6e2e48" x1="17.339" x2="79.995" y1="49.546" y2="49.546"/>
    <linearGradient xlink:href="#b4a84284-1b1f-42d0-adc8-80f7b9b87f2c" id="bb9d85d2-d7ee-4c7d-aa8f-8133697bd33d" x1="17.339" x2="79.995" y1="45.061" y2="45.061"/>
    <linearGradient xlink:href="#b4a84284-1b1f-42d0-adc8-80f7b9b87f2c" id="ae0e222d-41e6-4a63-b031-7d58d072ad50" x1="17.339" x2="79.995" y1="54.032" y2="54.032"/>
    <linearGradient xlink:href="#b4a84284-1b1f-42d0-adc8-80f7b9b87f2c" id="bd6569c0-9fc4-441a-a642-9976cb97b313" x1="17.327" x2="80.015" y1="43.144" y2="43.144"/>
    <linearGradient xlink:href="#b4a84284-1b1f-42d0-adc8-80f7b9b87f2c" id="bdef1b98-a9e4-400f-9139-57d1a0a6307e" x1="17.34" x2="79.994" y1="40.576" y2="40.576"/>
    <linearGradient xlink:href="#b4a84284-1b1f-42d0-adc8-80f7b9b87f2c" id="fb1bc9f3-eccb-41c2-99fc-40948ecd2ef5" x1="17.327" x2="80.015" y1="38.659" y2="38.659"/>
    <linearGradient xlink:href="#b4a84284-1b1f-42d0-adc8-80f7b9b87f2c" id="abc5696e-cb4d-42de-89c4-3a01f47c3b44" x1="17.338" x2="79.998" y1="46.953" y2="46.953"/>
    <linearGradient xlink:href="#b4a84284-1b1f-42d0-adc8-80f7b9b87f2c" id="bc949124-fde2-416e-a0f0-d62f58fd5cb8" x1="17.338" x2="79.998" y1="42.468" y2="42.468"/>
    <linearGradient xlink:href="#b4a84284-1b1f-42d0-adc8-80f7b9b87f2c" id="b5a3e857-7cb9-40fc-b639-a8f1361744a4" x1="17.339" x2="79.997" y1="55.925" y2="55.925"/>
    <linearGradient xlink:href="#b4a84284-1b1f-42d0-adc8-80f7b9b87f2c" id="f93b6b1b-6d79-4f06-8226-335829df9e80" x1="17.338" x2="79.998" y1="37.981" y2="37.981"/>
    <linearGradient xlink:href="#b4a84284-1b1f-42d0-adc8-80f7b9b87f2c" id="b07ce369-fb64-4924-8660-f82047577a59" x1="17.338" x2="79.998" y1="51.438" y2="51.438"/>
    <linearGradient xlink:href="#b4a84284-1b1f-42d0-adc8-80f7b9b87f2c" id="b733533b-8241-477e-ba45-7dda556f666e" x1="17.327" x2="80.015" y1="47.63" y2="47.63"/>
    <linearGradient xlink:href="#b4a84284-1b1f-42d0-adc8-80f7b9b87f2c" id="be8a6a41-f160-4928-99b2-ac6661c52236" x1="17.333" x2="80.009" y1="41.705" y2="41.705"/>
    <linearGradient xlink:href="#b4a84284-1b1f-42d0-adc8-80f7b9b87f2c" id="f23f254f-355b-482f-af46-315058ac9c3e" x1="17.338" x2="79.995" y1="52.676" y2="52.676"/>
    <linearGradient xlink:href="#b4a84284-1b1f-42d0-adc8-80f7b9b87f2c" id="ae348ee3-f111-4905-9866-f100659b0a87" x1="17.327" x2="80.015" y1="52.115" y2="52.115"/>
    <linearGradient xlink:href="#b4a84284-1b1f-42d0-adc8-80f7b9b87f2c" id="bba4a87a-a4a1-40a0-a9a1-4adc86cb02f3" x1="17.338" x2="79.995" y1="43.706" y2="43.706"/>
    <linearGradient xlink:href="#b4a84284-1b1f-42d0-adc8-80f7b9b87f2c" id="a0300718-11c0-4fa6-8a54-509e94f12cbb" x1="17.338" x2="79.995" y1="57.163" y2="57.163"/>
    <linearGradient xlink:href="#b4a84284-1b1f-42d0-adc8-80f7b9b87f2c" id="f9df2d9e-8a91-4e1b-9d9c-2718f469d40e" x1="17.333" x2="80.009" y1="46.19" y2="46.19"/>
    <linearGradient xlink:href="#b4a84284-1b1f-42d0-adc8-80f7b9b87f2c" id="af60598d-cbe9-4ec8-a1d0-2e7cd97f0a29" x1="17.334" x2="80.006" y1="39.22" y2="39.22"/>
    <linearGradient xlink:href="#b4a84284-1b1f-42d0-adc8-80f7b9b87f2c" id="a0c61696-55e6-4603-851f-0a8f5d9ad6f0" x1="17.338" x2="79.995" y1="48.192" y2="48.192"/>
    <linearGradient xlink:href="#b4a84284-1b1f-42d0-adc8-80f7b9b87f2c" id="e0172b20-d945-4327-af72-43beac0a92a0" x1="17.327" x2="80.015" y1="56.601" y2="56.601"/>
    <linearGradient xlink:href="#b4a84284-1b1f-42d0-adc8-80f7b9b87f2c" id="fc74d0d2-4eb9-41ae-a90f-31be58cbf9c8" x1="17.338" x2="79.996" y1="54.653" y2="54.653"/>
    <linearGradient xlink:href="#b4a84284-1b1f-42d0-adc8-80f7b9b87f2c" id="e3622ace-f85e-412a-b1b7-063ad50782f9" x1="17.338" x2="79.996" y1="41.198" y2="41.198"/>
    <linearGradient xlink:href="#b4a84284-1b1f-42d0-adc8-80f7b9b87f2c" id="b7550d91-9340-4389-b940-5f482b3c7604" x1="17.338" x2="79.996" y1="50.168" y2="50.168"/>
    <linearGradient xlink:href="#b4a84284-1b1f-42d0-adc8-80f7b9b87f2c" id="ed3f5329-391a-4af2-b43d-6698a075d4ca" x1="17.338" x2="79.996" y1="45.682" y2="45.682"/>
  </defs>
  <path fill="#0e3ca5" d="M32.585 59.26c2 7.4 9.176 13.045 12.8 12.811.127-.008 13.745-2.547 21.2-15 5.8-9.693 3.827-19.051-4.064-19.255-2.838.207-33.745 7.349-29.934 21.446m29.198-47.527-.008-.007.011-.007a34.628 34.628 0 0 0-36.5-5.266 20.417 20.417 0 0 0-2.2 1.074c-.486.259-.972.516-1.444.8l.115.036a15.776 15.776 0 0 0-3.655 3.459C8.172 24.953 41.486 34.5 59.3 34.528c8.191 5.882 10.491-16.561 2.485-22.793Z"/>
  <path fill="#5493f7" d="M27.3 12C22.723 18.88 7.478 23.727 4.971 22.972l-.017-.032c.1-.207.207-.414.313-.619a36.682 36.682 0 0 1 10.87-12.683q1.407-1.032 2.914-1.929a10.784 10.784 0 0 1 5.039-1.342c6.789.13 3.244 5.58 3.208 5.635m-3.754 48.611c.329 2.161-.008 10.7-.45 11.418-.381.023-1.174.072-3.471-1.217A36.541 36.541 0 0 1 3.054 27.558q.183-.55.383-1.093c2.631 3.5 5.676 6.666 8.264 10.2 2.465 3.365 5.856 8.851 6.546 10.024 4.284 7.277 4.967 11.767 5.294 13.925m50.648-21.52a36.418 36.418 0 0 1-2.54 13.406c-4.3 4.62-33.284-6.753-33.568-6.878C34.116 43.885 22.05 38.6 20.961 30.3 19.4 18.35 43.63 10.026 54.28 9.711c1.277.015 5.163.06 7.429 1.9a36.413 36.413 0 0 1 12.48 27.483M54.568 71.466c-3.159 1.475-6.638.4-5.734-2.676 1.735-5.909 16.886-11.967 20.232-12.3.413-.041.588.24.405.561a36.857 36.857 0 0 1-14.9 14.41"/>
  <path fill="url(#a5fd1339-484e-430c-845a-7efa01eee944)" d="M17.336 77.255a2.552 2.552 0 0 0 2.329 2.713c30.7.21 60.335-1.2 60.335-5.8 0-13.924-62.664 3.087-62.664 3.087Z"/>
  <path fill="url(#b63f9896-f26e-4925-9e1b-8584b460ed9f)" d="M17.336 77.255a2.549 2.549 0 0 0 2.34 2.713c30.692.233 60.287-.731 60.324-5.8 0-13.924-62.664 3.087-62.664 3.087Zm2.341 2.536a2.208 2.208 0 0 1-.245-.014 2.4 2.4 0 0 1-1.987-1.762 2.369 2.369 0 0 0 2.229 1.761c30.671-.192 59.845-9.636 59.845-5.478 0 4.244-29.172 5.702-59.842 5.493Z"/>
  <path fill="url(#b38e0a04-98c3-4407-898f-7f329923cafc)" d="M19.679 37.822a2.343 2.343 0 0 0-2.343 2.344v37.089a2.342 2.342 0 0 0 2.329 2.345C50.363 79.37 80.037 69.209 80 74.17V32.393c.037-4.96-29.627 5.2-60.321 5.429Z"/>
  <path fill="url(#b4a84284-1b1f-42d0-adc8-80f7b9b87f2c)" d="M24.205 63.421c1.093-.043 2.164-.089 3.216-.148s2.082-.126 3.095-.2 2.006-.16 2.986-.249 1.946-.18 2.9-.275 1.895-.194 2.825-.3a291.93 291.93 0 0 0 5.492-.677c.905-.121 1.8-.244 2.7-.375s1.785-.271 2.682-.409 1.8-.277 2.7-.42 1.809-.288 2.718-.44 1.824-.313 2.751-.472 1.866-.319 2.815-.484 1.91-.33 2.884-.5 1.961-.347 2.967-.516 2.03-.335 3.073-.494 2-.3 3.3-.464a24.378 24.378 0 0 1 4.28-.228c1.345.091 2.41.433 2.41 1.371v-3.216c0-.926-1.021-1.258-2.274-1.361a21.6 21.6 0 0 0-4 .168c-1.249.143-2.149.28-3.089.419s-1.857.284-2.759.432-1.79.3-2.672.453-1.76.31-2.644.465-1.775.309-2.68.464l-2.767.476c-.942.162-1.9.325-2.9.488s-2.044.325-3.127.492-2.207.345-3.381.519v-3.214c1.174-.173 2.3-.352 3.381-.519s2.125-.331 3.127-.492 1.962-.326 2.9-.489 1.863-.32 2.768-.475l2.679-.464 2.644-.465c.882-.155 1.769-.3 2.672-.453s1.818-.292 2.759-.432 1.84-.277 3.089-.419a21.851 21.851 0 0 1 4-.169c1.254.1 2.275.436 2.275 1.361V48.5c0-.924-1.021-1.258-2.274-1.362a21.865 21.865 0 0 0-4 .169c-1.249.144-2.148.279-3.089.419s-1.857.284-2.759.432-1.79.3-2.672.453-1.76.312-2.644.466l-2.68.464c-.905.156-1.824.312-2.767.475s-1.9.326-2.9.487-2.044.326-3.127.493-2.207.345-3.38.518v-3.213c1.172-.174 2.3-.35 3.381-.519s2.125-.331 3.127-.492 1.96-.325 2.9-.488l2.768-.475c.9-.156 1.795-.309 2.679-.464l2.644-.465a217.896 217.896 0 0 1 5.431-.885c.941-.138 1.84-.277 3.089-.42a21.95 21.95 0 0 1 4-.168c1.253.1 2.274.437 2.274 1.362V42.07c0-.925-1.021-1.256-2.274-1.36a21.776 21.776 0 0 0-4 .168c-1.249.143-2.148.28-3.089.419s-1.857.285-2.759.432-1.79.3-2.672.452l-2.644.467-2.68.463c-.905.156-1.824.311-2.767.475s-1.9.326-2.9.487-2.045.326-3.129.494-2.208.345-3.38.519v-3.214c1.172-.174 2.294-.352 3.379-.52s2.128-.33 3.13-.493 1.957-.325 2.9-.487l2.768-.475c.9-.156 1.795-.308 2.679-.464s1.761-.311 2.644-.465 1.769-.307 2.672-.454 1.818-.292 2.758-.431 1.841-.276 3.09-.419a21.851 21.851 0 0 1 4-.169c1.254.1 2.275.437 2.275 1.361v-3.213c0-.925-1.021-1.258-2.274-1.362a21.955 21.955 0 0 0-4 .169c-1.249.143-2.148.279-3.089.419s-1.857.284-2.759.432-1.79.3-2.672.453-1.76.312-2.644.466-1.775.308-2.679.462l-2.768.477a300.015 300.015 0 0 1-6.03.979c-1.085.168-2.208.345-3.38.52v-3.259a203.887 203.887 0 0 1-28.029 2.423 2.343 2.343 0 0 0-2.343 2.344v23.4c1.2 0 2.368-.015 3.512-.04s2.264-.063 3.358-.105Z"/>
  <path fill="url(#ea4de765-d750-4ffa-a39f-e1a6cd3bdebf)" d="M24.2 69.849c1.095-.042 2.165-.09 3.217-.148s2.083-.127 3.1-.2 2.005-.158 2.985-.248 1.946-.179 2.9-.276 1.9-.194 2.825-.3a317.514 317.514 0 0 0 5.49-.676c.904-.121 1.8-.246 2.7-.376s1.787-.271 2.683-.41 1.8-.276 2.7-.418 1.81-.29 2.72-.441 1.825-.312 2.752-.472l2.814-.484c.949-.164 1.911-.329 2.884-.5s1.962-.346 2.968-.516 2.03-.335 3.073-.494 1.994-.3 3.3-.464a24.187 24.187 0 0 1 4.28-.229c1.345.092 2.41.435 2.41 1.372v-3.217c0-.937-1.065-1.281-2.409-1.372a24.294 24.294 0 0 0-4.281.228c-1.307.16-2.258.307-3.3.465s-2.067.323-3.073.493-1.993.343-2.967.516-1.935.338-2.885.5-1.887.323-2.814.484-1.842.32-2.751.472-1.817.3-2.72.44l-2.7.421c-.9.14-1.788.278-2.683.408s-1.794.257-2.7.376-1.814.236-2.728.349-1.832.224-2.762.327-1.871.2-2.825.3-1.92.186-2.9.275-1.974.174-2.986.249-2.045.143-3.1.2-2.123.106-3.217.148-2.212.077-3.357.1-2.312.042-3.51.042v3.213a202.98 202.98 0 0 0 6.867-.137Z"/>
  <path fill="url(#bd57b86e-5cee-44af-8944-6cc892e46132)" d="M77.59 66.407a24.378 24.378 0 0 0-4.28.228c-1.307.161-2.258.306-3.3.465s-2.066.324-3.072.493-2 .344-2.969.516-1.935.339-2.884.5l-2.815.484c-.927.159-1.842.321-2.752.472s-1.817.3-2.72.44-1.8.282-2.7.419-1.788.277-2.684.409-1.8.258-2.7.377a326.153 326.153 0 0 1-5.49.676c-.93.104-1.871.2-2.825.3s-1.919.187-2.9.276-1.974.173-2.986.248-2.045.142-3.1.2a194.222 194.222 0 0 1-10.084.29v3.22q1.8 0 3.51-.04t3.357-.1c1.095-.042 2.165-.09 3.217-.148s2.083-.127 3.1-.2 2.006-.16 2.986-.248 1.945-.179 2.9-.275 1.9-.194 2.825-.3 1.849-.214 2.763-.328 1.822-.227 2.726-.348 1.8-.245 2.7-.376 1.787-.272 2.684-.409 1.8-.278 2.7-.42 1.809-.288 2.72-.441 1.827-.312 2.754-.472l2.814-.483 2.883-.5c.974-.171 1.963-.347 2.97-.516s2.029-.335 3.072-.494 2-.3 3.3-.463a24.475 24.475 0 0 1 4.28-.228c1.345.089 2.41.432 2.41 1.37v-3.223c0-.938-1.065-1.278-2.41-1.371Z"/>
  <path fill="url(#bde4f2c6-62b3-4c2a-b633-efcf8df8122b)" d="M24 60.216c1.02-.038 2-.081 2.963-.132s1.9-.108 2.82-.173 1.836-.137 2.746-.215a294.748 294.748 0 0 0 5.564-.537c.96-.102 1.94-.213 2.958-.337s2.078-.255 3.184-.4 2.262-.3 3.47-.482V35.4a203.8 203.8 0 0 1-28.024 2.422 2.343 2.343 0 0 0-2.343 2.344v20.185c1.215 0 2.37-.014 3.477-.039s2.164-.059 3.185-.096Z"/>
  <path fill="url(#b4af3482-80f6-4791-bbf3-e70b8e13f1df)" d="M24.566 38.77c-.115.359-.171.539-.285.9l-.924.034.747.524-.286.9c.3-.231.449-.344.748-.576.3.209.446.311.747.518-.116-.35-.172-.525-.286-.876l.748-.583c-.37.018-.556.023-.925.04l-.284-.881Z"/>
  <path fill="url(#f4f43be7-93a3-402b-bca9-6be564d61de0)" d="m27.236 49.858-.285.905-.926.046.748.513c-.114.361-.171.542-.286.9.3-.233.45-.351.749-.588.3.2.45.3.75.506l-.287-.872.75-.595c-.371.024-.556.035-.926.055Z"/>
  <path fill="url(#bf3d64d0-d40a-4bff-8dca-86dc3002b916)" d="m27.523 55.216-.287-.873-.285.906-.926.045c.3.206.449.31.748.513-.114.362-.171.542-.286.9.3-.235.45-.353.749-.59.3.2.45.306.75.508l-.287-.872.75-.595c-.371.027-.556.042-.926.058Z"/>
  <path fill="url(#ee224b29-450f-4452-8b1e-c41852bd7b5e)" d="M24.565 47.74c-.115.361-.172.539-.285.9-.37.015-.555.023-.924.034.3.209.447.315.746.522l-.284.9c.3-.23.448-.347.747-.579.3.208.447.312.748.52-.116-.351-.173-.526-.287-.878l.749-.582c-.37.017-.556.026-.925.04Z"/>
  <path fill="url(#a0f82d3b-4811-4899-bfa7-c63d52dedeae)" d="m24.564 52.225-.284.9c-.37.012-.556.021-.925.034l.747.522-.285.9.747-.581.749.519c-.116-.351-.173-.525-.287-.877.3-.231.449-.35.749-.583l-.925.04-.286-.874Z"/>
  <path fill="url(#b2fb117c-a3fb-4c8d-b6ab-66d41610bf5e)" d="m24.566 43.255-.286.9-.924.034.747.523-.285.9c.3-.23.449-.346.748-.578.3.208.446.312.747.519-.116-.35-.173-.526-.287-.877l.749-.583c-.37.017-.555.026-.925.041-.113-.353-.171-.527-.284-.879Z"/>
  <path fill="url(#b3d7423d-d067-4a27-b74f-f74e7d22aa82)" d="m32.582 53.965-.285.912c-.371.032-.557.046-.927.077.3.2.45.3.749.489l-.285.913.748-.612.748.483a290.83 290.83 0 0 1-.286-.864l.748-.618c-.371.035-.556.05-.925.083-.114-.346-.167-.517-.285-.863Z"/>
  <path fill="url(#a72543f9-ef45-4c4b-abf7-6fb8c1b19082)" d="m27.236 45.373-.285.905c-.371.02-.556.028-.926.046l.748.512-.286.905.749-.589c.3.2.45.3.75.506-.114-.348-.173-.523-.287-.873l.75-.593c-.371.022-.556.035-.926.054Z"/>
  <path fill="url(#a36b6485-57f5-4602-b443-3043a53bd53a)" d="m29.911 51.933-.287.91-.924.057.75.5-.286.907.749-.6.749.494-.286-.868c.3-.241.449-.363.748-.606l-.925.07a62.45 62.45 0 0 1-.288-.864Z"/>
  <path fill="url(#e51758cd-d99c-406c-86d4-094fb1214cac)" d="m30.2 57.287-.286-.868-.287.909c-.369.026-.555.037-.926.061l.75.5-.286.91c.3-.239.449-.362.749-.6.3.2.449.3.749.495l-.286-.868c.3-.242.449-.362.748-.606l-.925.067Z"/>
  <path fill="url(#bbd9b7d9-d004-4b84-b677-5279474c1980)" d="m27.236 40.888-.285.9c-.371.02-.556.028-.926.047l.748.513c-.114.362-.171.543-.286.9.3-.235.45-.352.749-.589.3.2.45.3.75.507l-.287-.873c.3-.236.449-.357.75-.595-.371.023-.556.035-.926.055Z"/>
  <path fill="url(#ba4ca378-80d8-4dd2-b07c-17b9f854e3e1)" d="m29.909 47.449-.285.909c-.371.024-.554.038-.925.06l.749.5-.287.909.75-.6.749.494-.286-.869.748-.6-.925.07Z"/>
  <path fill="url(#a89f5a12-8a47-4362-bb95-cbba181f7eec)" d="m24.85 57.589-.286-.878-.285.9-.924.035c.3.207.448.314.747.522l-.285.9.747-.579.749.52-.287-.877.749-.583-.925.04Z"/>
  <path fill="url(#b65fb1f7-f271-44e3-8a18-4d94d1e1882a)" d="m19.218 47.886-.287.893c-.371 0-.557 0-.927.006.3.218.45.328.75.544l-.287.893.75-.559c.3.217.45.323.75.539l-.285-.884.749-.563c-.371.006-.556.012-.927.016l-.286-.885Z"/>
  <path fill="url(#bfb5797b-6965-474f-b8e7-153b0957bed6)" d="m19.218 43.4-.287.892c-.371 0-.557.005-.927.006l.75.544-.286.893.75-.557.749.537-.285-.885c.3-.224.449-.335.749-.562-.37.007-.556.01-.927.015l-.286-.883Z"/>
  <path fill="url(#e42216bc-3f2e-42d9-b35f-866bb8011d86)" d="m19.5 57.742-.287-.885-.287.891c-.371.005-.556.006-.926.008l.75.543-.286.894.749-.558.75.539a304.2 304.2 0 0 1-.286-.887l.749-.562c-.367.009-.551.01-.926.017Z"/>
  <path fill="url(#e4609b86-0886-4374-a6b0-cddd97a69b64)" d="m29.161 45.342.748-.6c.3.2.451.3.75.495l-.285-.869.748-.607c-.371.03-.555.044-.925.071l-.287-.867-.286.907c-.369.026-.555.037-.926.062l.75.5-.287.908Z"/>
  <path fill="url(#e48e9e55-446f-4960-b55c-08449b28a27c)" d="M29.161 40.856c.3-.239.45-.359.749-.6.3.2.45.3.749.494l-.285-.868c.3-.241.449-.363.748-.606-.371.03-.555.043-.925.07l-.287-.869-.286.909c-.369.027-.555.039-.926.062l.75.5Z"/>
  <path fill="url(#a18a91d5-8349-42ce-8a19-73a5171d2ad0)" d="m19.218 52.371-.288.893h-.926l.75.547-.287.891.75-.558.75.538-.285-.885.748-.562c-.37.007-.555.01-.926.015l-.286-.879Z"/>
  <path fill="url(#e646f1cf-ecff-4ac1-9d3d-61229df567cf)" d="m21.894 41.1-.286.895c-.37.009-.555.015-.927.023l.75.533-.286.9.749-.57.75.528-.287-.881.749-.574-.924.029c-.116-.352-.173-.528-.288-.883Z"/>
  <path fill="url(#acef0ddf-c695-43b6-8c9b-7f8e7670f9b4)" d="m21.894 45.588-.286.9-.927.022c.3.214.45.319.75.531-.115.358-.172.539-.286.9.3-.228.449-.34.748-.569.3.212.451.316.751.526l-.287-.88.749-.573-.926.029c-.115-.358-.171-.533-.286-.886Z"/>
  <path fill="url(#f1480255-0f91-4c7c-b03c-e7567ab2a340)" d="m22.179 55.439-.286-.881-.286.9c-.371.01-.557.014-.928.022l.751.532-.287.9.749-.569.751.528-.287-.881.749-.574Z"/>
  <path fill="url(#a9b793fb-c753-4172-8ae2-7a0a5237db70)" d="m21.893 50.073-.286.9c-.37.009-.556.015-.926.021l.749.533c-.115.358-.172.539-.286.9l.749-.57.75.528c-.114-.352-.171-.528-.287-.88.3-.228.451-.345.75-.575-.371.012-.556.02-.926.031l-.287-.888Z"/>
  <path fill="url(#be2513c0-af1b-4015-bb71-042cba09e34e)" d="m19.218 38.914-.286.893c-.371 0-.558.006-.928.008.3.218.451.328.75.543l-.286.891.75-.555c.3.216.45.322.75.536l-.285-.884.75-.563c-.371.008-.558.012-.929.017l-.286-.886Z"/>
  <path fill="url(#e5ea36a3-766b-41c2-bc6f-c08e6e206b10)" d="m32.582 49.481-.285.912c-.371.032-.555.046-.926.076.3.2.449.294.748.488l-.285.914c.3-.244.449-.368.748-.613l.748.483-.286-.863.748-.618c-.371.035-.556.05-.925.083-.114-.343-.167-.516-.285-.862Z"/>
  <path fill="url(#af61bbee-6255-48d9-9395-24ddbb6e2e48)" d="m43.268 48.335-.287.925-.927.117.749.456-.287.925.751-.644c.3.18.45.272.75.453l-.287-.852.751-.648-.927.121Z"/>
  <path fill="url(#bb9d85d2-d7ee-4c7d-aa8f-8133697bd33d)" d="M43.268 43.85c-.115.371-.173.554-.287.925-.371.047-.557.071-.927.115.3.185.45.275.75.458l-.286.924c.3-.258.45-.385.75-.644l.75.453-.287-.851.751-.649c-.37.048-.557.074-.927.121l-.287-.852Z"/>
  <path fill="url(#ae0e222d-41e6-4a63-b031-7d58d072ad50)" d="m43.553 53.672-.286-.852-.287.926c-.37.045-.556.071-.926.115l.749.457-.287.925.75-.644c.3.181.451.271.75.453l-.286-.851.75-.649-.927.12Z"/>
  <path fill="url(#bd6569c0-9fc4-441a-a642-9976cb97b313)" d="M40.6 41.936c-.113.369-.169.554-.284.924l-.922.106.746.463-.284.923c.3-.254.446-.382.744-.637l.747.459-.286-.854.75-.641-.926.113a31.775 31.775 0 0 1-.285-.856Z"/>
  <path fill="url(#bdef1b98-a9e4-400f-9139-57d1a0a6307e)" d="m43.269 39.364-.288.925c-.371.047-.556.07-.927.115l.751.458-.287.926c.3-.257.45-.389.75-.646l.751.455a213.15 213.15 0 0 0-.287-.853c.3-.257.451-.39.751-.649l-.928.121-.286-.852Z"/>
  <path fill="url(#fb1bc9f3-eccb-41c2-99fc-40948ecd2ef5)" d="M40.6 37.452c-.113.368-.169.554-.284.923l-.922.106c.3.184.449.278.746.463l-.284.922c.3-.254.446-.382.744-.637l.748.459-.286-.853c.3-.257.448-.385.749-.641l-.926.113a35.676 35.676 0 0 1-.285-.855Z"/>
  <path fill="url(#abc5696e-cb4d-42de-89c4-3a01f47c3b44)" d="m45.944 45.738-.287.929c-.37.05-.555.076-.925.124l.749.449-.287.928.749-.652.748.445c-.115-.339-.171-.509-.285-.849.3-.262.448-.392.746-.656-.369.054-.553.078-.922.131l-.286-.849Z"/>
  <path fill="url(#bc949124-fde2-416e-a0f0-d62f58fd5cb8)" d="m45.946 41.253-.287.927c-.37.052-.555.076-.926.126.3.181.449.268.748.447l-.286.93.75-.654.747.447c-.115-.34-.171-.51-.285-.851.3-.262.448-.392.746-.655l-.922.131-.285-.848Z"/>
  <path fill="url(#b5a3e857-7cb9-40fc-b639-a8f1361744a4)" d="m46.226 55.558-.285-.849-.287.928c-.369.051-.555.076-.924.125l.748.449-.287.93c.3-.26.451-.393.75-.655l.747.447-.286-.85.747-.656c-.369.054-.549.08-.923.131Z"/>
  <path fill="url(#f93b6b1b-6d79-4f06-8226-335829df9e80)" d="m45.947 36.766-.287.929c-.37.051-.556.077-.927.126l.751.448-.288.927.751-.651c.3.178.448.268.747.444-.114-.339-.172-.509-.285-.849.3-.262.447-.392.745-.656-.368.054-.552.081-.921.132l-.286-.85Z"/>
  <path fill="url(#b07ce369-fb64-4924-8660-f82047577a59)" d="m45.943 50.224-.287.928-.925.124.748.45-.286.927.749-.651.747.444-.285-.849c.3-.262.448-.392.746-.656-.368.055-.553.08-.923.131l-.284-.848Z"/>
  <path fill="url(#b733533b-8241-477e-ba45-7dda556f666e)" d="M40.6 46.422c-.113.369-.169.554-.284.923l-.923.107c.3.185.449.28.747.464l-.284.922.744-.638.748.46-.286-.854c.3-.256.448-.385.749-.641-.371.046-.558.068-.926.112Z"/>
  <path fill="url(#be8a6a41-f160-4928-99b2-ac6661c52236)" d="m32.582 40.509-.285.912c-.371.032-.557.048-.927.077l.749.49-.285.913c.3-.244.449-.369.748-.614.3.2.448.291.748.484l-.286-.863c.3-.246.449-.373.748-.619l-.925.084c-.114-.347-.167-.518-.285-.864Z"/>
  <path fill="url(#f23f254f-355b-482f-af46-315058ac9c3e)" d="m35.254 51.477-.286.917c-.37.035-.556.053-.927.086l.75.479-.287.917.75-.621c.3.192.45.286.75.477l-.287-.86c.3-.248.449-.374.749-.624l-.925.092c-.115-.34-.173-.517-.287-.863Z"/>
  <path fill="url(#ae348ee3-f111-4905-9866-f100659b0a87)" d="m40.6 50.907-.284.923c-.369.043-.553.066-.923.107.3.187.448.28.747.464l-.285.921c.3-.254.447-.381.745-.636l.747.459-.285-.853c.3-.257.448-.386.749-.642-.371.046-.558.067-.926.112a31.712 31.712 0 0 1-.285-.855Z"/>
  <path fill="url(#bba4a87a-a4a1-40a0-a9a1-4adc86cb02f3)" d="m35.254 42.507-.286.916-.927.087.75.479-.287.917c.3-.249.451-.372.75-.621.3.191.45.285.75.477-.115-.345-.173-.517-.286-.862.3-.249.449-.372.749-.623l-.926.091-.287-.861Z"/>
  <path fill="url(#a0300718-11c0-4fa6-8a54-509e94f12cbb)" d="m35.254 55.963-.286.916c-.37.036-.556.053-.927.087l.75.479-.287.918.75-.622.75.478-.287-.862c.3-.248.449-.373.749-.623l-.925.09-.287-.861Z"/>
  <path fill="url(#f9df2d9e-8a91-4e1b-9d9c-2718f469d40e)" d="m32.582 45-.285.913c-.371.031-.555.047-.926.076.3.2.449.3.748.489l-.285.913.748-.613c.3.194.448.291.748.483l-.286-.863.748-.618c-.371.035-.556.05-.925.084Z"/>
  <path fill="url(#af60598d-cbe9-4ec8-a1d0-2e7cd97f0a29)" d="m35.255 38.021-.287.917c-.37.036-.556.052-.927.086l.749.48-.286.915.751-.62c.3.189.448.287.749.477l-.286-.861c.3-.248.449-.374.75-.624-.371.037-.556.057-.927.092l-.286-.862Z"/>
  <path fill="url(#a0c61696-55e6-4603-851f-0a8f5d9ad6f0)" d="m35.254 46.992-.286.916-.927.092.75.48-.286.917.749-.622.75.477-.286-.861.749-.624c-.37.038-.555.056-.926.092-.114-.351-.172-.521-.287-.867Z"/>
  <path fill="url(#e0172b20-d945-4327-af72-43beac0a92a0)" d="M40.88 56.249c-.114-.341-.17-.514-.285-.856l-.284.923c-.369.045-.553.064-.923.106l.746.464-.284.923c.3-.254.447-.384.745-.639.3.185.449.278.748.461l-.286-.854.749-.642Z"/>
  <path fill="url(#fc74d0d2-4eb9-41ae-a90f-31be58cbf9c8)" d="m38.214 54.308-.286-.859-.287.921-.925.1.749.473-.286.919.75-.629.748.47-.287-.858c.3-.252.45-.38.749-.634-.37.037-.555.058-.925.097Z"/>
  <path fill="url(#e3622ace-f85e-412a-b1b7-063ad50782f9)" d="m37.929 39.994-.286.919c-.37.04-.556.056-.926.1l.749.474-.286.919.75-.629.748.469-.287-.857.749-.633-.925.1-.286-.862Z"/>
  <path fill="url(#b7550d91-9340-4389-b940-5f482b3c7604)" d="m37.928 48.965-.286.919-.926.1.75.472-.286.919.749-.627.749.467-.287-.856.749-.633c-.37.04-.556.062-.925.1l-.287-.861Z"/>
  <path fill="url(#ed3f5329-391a-4af2-b43d-6698a075d4ca)" d="M37.929 44.479c-.114.369-.172.551-.287.92-.369.04-.556.057-.926.095l.75.472-.286.919.749-.627.749.468-.287-.857c.3-.252.45-.38.749-.633-.369.042-.555.061-.925.1Z"/>
</svg>
