<svg xmlns="http://www.w3.org/2000/svg" width="1000" height="1000" viewBox="0 0 1000 1000"><circle cx="500" cy="500" r="500" fill="#00b3ed"/><path d="M815.35,757.37H640.76l1-.84,3.77-3.33,2.35-2.14,3.73-3.33,2.35-2.17c1.31-1.27,2.6-2.57,3.9-3.89l2-2c1.46-1.7,3.23-3.47,4.8-5.23l.93-1q2.8-3.35,5.51-6.68l1.47-1.89c1.27-1.65,2.53-3.27,3.77-5,.62-.86,1.17-1.77,1.86-2.64,1-1.49,2.1-3,3.1-4.53.63-1,1.26-2,1.9-3,.94-1.49,2.16-3.36,2.76-4.56s1.18-2.28,1.8-3.34c.88-1.53,1.71-3.1,2.51-4.7.57-1.18,1.18-2.24,1.66-3.33.81-1.71,1.58-3.35,2.35-5,.47-1.18,1-2.24,1.4-3.33.77-1.91,1.48-3.84,2.17-5.78.36-1,.74-1.89,1.07-2.86,1-2.94,1.91-5.88,2.71-8.94a192.82,192.82,0,0,0-28.25-149.46l3-5.11a56.63,56.63,0,0,1,10.78-13.62,36,36,0,0,1,9.2-6.2,29.25,29.25,0,0,1,6.3-2.07,25.46,25.46,0,0,1,6.4-.42,25.18,25.18,0,0,1,4.24.6,29.32,29.32,0,0,1,9.53,4,26.58,26.58,0,0,1,2.35,1.56,44.7,44.7,0,0,1,3.75,3.1,52.76,52.76,0,0,1,7,8.11,43.86,43.86,0,0,1,3.33,5L847.11,702.76a63.71,63.71,0,0,1,4.44,9.28c.38,1,.73,2,1,3a45.75,45.75,0,0,1,1.4,5.77,34,34,0,0,1,.3,5.88,30.22,30.22,0,0,1-.7,6.71h0a26.12,26.12,0,0,1-3,8,27.23,27.23,0,0,1-5.47,6.67,31.51,31.51,0,0,1-5.64,3.94l-2.17,1.1A52.3,52.3,0,0,1,815.35,757.37ZM612.64,688q-.24-2.78-.6-5.64a4.57,4.57,0,0,0-.2-1.6c-.27-2.1-.58-4.24-.94-6.4l-.2-1.17c-.33-1.91-.71-3.84-1.1-5.81a9.14,9.14,0,0,0-.31-1.54c-.4-2.23-1-4.49-1.57-6.66a6.17,6.17,0,0,0-.37-1.51q-.75-3.07-1.67-6.2l-.36-1.29c-.7-2.41-1.46-4.82-2.27-7.28l-.57-1.7-36,62a67.53,67.53,0,0,0-3.33,6.91,48.1,48.1,0,0,0-3.53,13,35,35,0,0,0-.17,6,30.6,30.6,0,0,0,.61,4.47,26.63,26.63,0,0,0,8.5,14.71,32,32,0,0,0,7.73,5,51.31,51.31,0,0,0,21.75,4.27h4l.34-.8c.51-1.56,1-2.84,1.58-4.17l.2-.5c.47-1.2.9-2.5,1.34-3.67l.39-1.1c.47-1.36.9-2.76,1.37-4.16l.27-.87c.37-1.24.73-2.5,1.06-3.77a5.4,5.4,0,0,1,.31-1.18c.38-1.48.73-3,1.06-4.53l.23-1.18c.27-1.34.54-2.67.78-4l.2-1.18c.27-1.6.51-3.24.73-4.89a3.85,3.85,0,0,1,.16-1.35c.19-1.48.36-3,.5-4.53v-1c0-1.8.33-3.53.33-5.33V696.24l0-1.45c0-2-.2-4-.36-6ZM476.8,469.23c-50-82.08-21.24-192.81,74.91-214.75,0,0-58.57,94.45,27,160.35,3,2.32,5.94,4.65,8.88,7l23.35-40c.36-.8.73-1.6,1.09-2.42,1.14-2.48,2.17-5,3.11-7.55a101.11,101.11,0,0,0,4.29-15.57c.47-2.63.89-5.31,1.18-8v-.06a100.61,100.61,0,0,0,0-23.14c-.28-2.66-.68-5.34-1.18-8-.36-2-.8-4-1.33-5.89-.75-2.94-1.63-5.84-2.63-8.74s-2.12-5.72-3.35-8.5c-.36-.81-.7-1.63-1.09-2.43l-56.7-99.66-24-43.25a64.84,64.84,0,0,0-6.93-9.84,44.87,44.87,0,0,0-7.64-7.06,35.6,35.6,0,0,0-4.05-2.47,26.29,26.29,0,0,0-25,0,36.93,36.93,0,0,0-7.93,5.6,53.33,53.33,0,0,0-7.34,8.4q-1.72,2.47-3.34,5.28l-314.6,554.1a55,55,0,0,0-7,18.83,36.54,36.54,0,0,0-.42,4.9v2.36a29.21,29.21,0,0,0,.56,4.47,25.36,25.36,0,0,0,1.18,4.17c.27.67.53,1.34.82,2a23.14,23.14,0,0,0,4.61,6.59,27.29,27.29,0,0,0,2,1.91,32.22,32.22,0,0,0,2.61,2,39.16,39.16,0,0,0,13.75,5.76,58.38,58.38,0,0,0,8.64,1.24H342.85a39.13,39.13,0,0,0,5.3-.51l1.6-.2,3.87-.6,1.6-.27c1.71-.33,3.35-.66,5.11-1.06h.58c1.5-.31,3-.73,4.49-1.17l1.74-.53,3.33-1.18,1.71-.6c1.61-.6,3.18-1.2,4.71-1.9A176.61,176.61,0,0,1,351.3,709.8C307.63,620.08,372,511.25,372,511.25s-9.6,103.15,57.67,107.86a63.56,63.56,0,0,0,51.12-16.63,51,51,0,0,0,9.33-11.85l1.83-3.14a53.06,53.06,0,0,0,5.62-14A126.2,126.2,0,0,0,476.8,469.23Z" fill="#fff"/></svg>