<svg width="64" height="64" viewBox="0 0 64 64" fill="none" xmlns="http://www.w3.org/2000/svg">
<mask id="mask0_10886_1937" style="mask-type:alpha" maskUnits="userSpaceOnUse" x="0" y="0" width="60" height="62">
<path d="M4.34668 27.65C4.34668 34.2742 6.67607 40.3543 10.5604 45.1159C4.07584 46.287 0.000476446 47.9817 0 49.8668V55.2001C0 58.8001 14.2667 61.6001 32 61.6001C33.197 61.6001 34.3783 61.5874 35.5404 61.5625C34.6667 59.6716 34.6667 57.1659 34.6667 52.3307V49.0027C34.6667 43.9846 34.6667 41.4756 35.6432 39.5589C36.5023 37.873 37.873 36.5023 39.5589 35.6432C41.4756 34.6667 43.9846 34.6667 49.0027 34.6667H52.3307C55.1211 34.6667 57.1357 34.6667 58.7041 34.8346C59.3188 32.5436 59.6467 30.1351 59.6467 27.65C59.6467 12.3793 47.2674 0 31.9967 0C16.726 0 4.34668 12.3793 4.34668 27.65Z" fill="#010101"/>
</mask>
<g mask="url(#mask0_10886_1937)">
<path d="M49.7333 49.8668C44.6667 49.2002 38.5333 48.8002 32 48.8002C25.4667 48.8002 19.3333 49.2002 14.2667 49.8668H0V55.2002C0 58.8002 14.2667 61.6002 32 61.6002C49.7333 61.6002 64 58.8002 64 55.2002V49.8668H49.7333Z" fill="#4BDB4B"/>
<path d="M32 56.2672C49.6731 56.2672 64 53.4018 64 49.8672C64 46.3325 49.6731 43.4672 32 43.4672C14.3269 43.4672 0 46.3325 0 49.8672C0 53.4018 14.3269 56.2672 32 56.2672Z" fill="#145E02"/>
<path d="M46.9507 50.9112H17.0427C9.40466 45.9908 4.34668 37.4111 4.34668 27.65C4.34668 12.3793 16.726 0 31.9967 0C47.2674 0 59.6467 12.3793 59.6467 27.65C59.6467 37.4111 54.5887 45.9908 46.9507 50.9112Z" fill="#010101"/>
<path opacity="0.6" d="M43.3388 25.652L43.6484 26.1269C47.1399 31.4828 46.3601 38.4973 41.7737 42.9911C39.0755 45.6348 35.5392 46.9569 32.0028 46.9573C32.0028 46.9573 32.0028 46.9573 43.3388 25.652Z" fill="#4BDB4B"/>
<path opacity="0.2" d="M32.0017 32.1272L43.3378 25.652C32.0018 46.9573 32.0017 46.9573 32.0017 46.9573C32.0017 42.3171 32.0017 37.0001 32.0017 32.1272Z" fill="#4BDB4B"/>
<path d="M20.6547 25.652L20.3451 26.1269C16.8537 31.4828 17.6334 38.4973 22.2198 42.9911C24.918 45.6348 28.4543 46.9569 31.9907 46.9573C31.9907 46.9573 31.9907 46.9573 20.6547 25.652Z" fill="#4BDB4B"/>
<path opacity="0.6" d="M31.9921 32.1272L20.6561 25.652C31.9922 46.9573 31.9921 46.9573 31.9921 46.9573C31.9921 42.3171 31.9921 37.0001 31.9921 32.1272Z" fill="#4BDB4B"/>
<path opacity="0.2" d="M31.9971 17.6594V28.8274L41.7618 23.247L31.9971 17.6594Z" fill="#4BDB4B"/>
<path opacity="0.6" d="M31.9936 17.6594L22.2218 23.2469L31.9936 28.8274V17.6594Z" fill="#4BDB4B"/>
<path opacity="0.6" d="M31.9971 17.65L41.7693 23.2533L31.9971 8.26257V17.65Z" fill="#4BDB4B"/>
<path d="M31.9936 8.26257L22.2218 23.2459L31.9936 17.6427V8.26257Z" fill="#4BDB4B"/>
</g>
<path d="M37.3334 49.28C37.3334 45.0983 37.3334 43.0075 38.1472 41.4102C38.863 40.0053 40.0053 38.863 41.4102 38.1472C43.0075 37.3334 45.0983 37.3334 49.28 37.3334H52.0534C56.2351 37.3334 58.326 37.3334 59.9232 38.1472C61.3281 38.863 62.4704 40.0053 63.1862 41.4102C64 43.0075 64 45.0983 64 49.28V52.0534C64 56.2351 64 58.326 63.1862 59.9232C62.4704 61.3281 61.3281 62.4704 59.9232 63.1862C58.326 64 56.2351 64 52.0534 64H49.28C45.0983 64 43.0075 64 41.4102 63.1862C40.0053 62.4704 38.863 61.3281 38.1472 59.9232C37.3334 58.326 37.3334 56.2351 37.3334 52.0534V49.28Z" fill="#030313"/>
<path d="M49.282 50.9168C49.2851 48.1682 48.2121 45.5275 46.2927 43.5601C46.2582 43.5252 46.2171 43.4974 46.1717 43.4785C46.1264 43.4596 46.0777 43.45 46.0286 43.4501H43.5698C43.4721 43.4501 43.3783 43.4887 43.3091 43.5576C43.2398 43.6265 43.2005 43.72 43.2 43.8177V46.3469C43.2003 46.4406 43.2362 46.5306 43.3003 46.5988C43.3645 46.6671 43.4521 46.7084 43.5456 46.7146C44.6025 46.7984 45.5891 47.2775 46.3085 48.0563C47.028 48.8351 47.4275 49.8565 47.4275 50.9168C47.4275 51.977 47.028 52.9984 46.3085 53.7772C45.5891 54.556 44.6025 55.0351 43.5456 55.119C43.4521 55.1251 43.3645 55.1665 43.3003 55.2347C43.2362 55.3029 43.2003 55.3929 43.2 55.4866V58.0158C43.2005 58.1135 43.2398 58.207 43.3091 58.2759C43.3783 58.3448 43.4721 58.3834 43.5698 58.3834H46.0286C46.0777 58.3836 46.1264 58.3739 46.1717 58.355C46.2171 58.3361 46.2582 58.3084 46.2927 58.2734C48.2121 56.306 49.2851 53.6654 49.282 50.9168Z" fill="#FF0000"/>
<path d="M58.1335 55.4866C58.1331 55.3919 58.0963 55.3009 58.0308 55.2325C57.9653 55.1641 57.876 55.1235 57.7813 55.119C56.7244 55.0351 55.7379 54.556 55.0184 53.7772C54.2989 52.9984 53.8994 51.977 53.8994 50.9168C53.8994 49.8565 54.2989 48.8351 55.0184 48.0563C55.7379 47.2775 56.7244 46.7984 57.7813 46.7146C57.8748 46.7084 57.9624 46.6671 58.0266 46.5988C58.0907 46.5306 58.1266 46.4406 58.1269 46.3469V43.8177C58.1269 43.7694 58.1175 43.7216 58.099 43.677C58.0805 43.6324 58.0534 43.5919 58.0193 43.5577C57.9851 43.5236 57.9446 43.4965 57.9 43.4781C57.8554 43.4596 57.8076 43.4501 57.7593 43.4501H55.3049C55.2058 43.4503 55.1108 43.4899 55.0408 43.5601C53.1254 45.53 52.0538 48.1692 52.0538 50.9168C52.0538 53.6643 53.1254 56.3035 55.0408 58.2734C55.1108 58.3436 55.2058 58.3832 55.3049 58.3834H57.7659C57.8634 58.3834 57.9569 58.3447 58.0259 58.2758C58.0948 58.2068 58.1335 58.1133 58.1335 58.0158V55.4866Z" fill="#0073FF"/>
<path d="M48.7889 42.1335C48.7213 42.1337 48.6548 42.1504 48.5952 42.1822C48.5355 42.214 48.4846 42.26 48.4468 42.316C48.409 42.372 48.3856 42.4364 48.3784 42.5036C48.3713 42.5708 48.3807 42.6388 48.4059 42.7015C49.425 45.3204 49.9476 48.1063 49.9467 50.9166C49.9476 53.7269 49.425 56.5127 48.4059 59.1317C48.3807 59.1944 48.3713 59.2623 48.3784 59.3295C48.3856 59.3967 48.409 59.4612 48.4468 59.5172C48.4846 59.5732 48.5355 59.6191 48.5952 59.6509C48.6548 59.6827 48.7213 59.6995 48.7889 59.6996H52.531C52.5986 59.6995 52.6651 59.6827 52.7247 59.6509C52.7843 59.6191 52.8353 59.5732 52.873 59.5172C52.9108 59.4612 52.9343 59.3967 52.9415 59.3295C52.9486 59.2623 52.9392 59.1944 52.914 59.1317C50.8448 53.8504 50.8448 47.9827 52.914 42.7015C52.9392 42.6388 52.9486 42.5708 52.9415 42.5036C52.9343 42.4364 52.9108 42.372 52.873 42.316C52.8353 42.26 52.7843 42.214 52.7247 42.1822C52.6651 42.1504 52.5986 42.1337 52.531 42.1335H48.7889Z" fill="#00F3D7"/>
</svg>
