<svg width="190" height="190" viewBox="0 0 190 190" fill="none" xmlns="http://www.w3.org/2000/svg">
<path fill-rule="evenodd" clip-rule="evenodd" d="M0 95C0 42.5356 42.5328 0 95 0C147.467 0 190 42.5356 190 95C190 147.464 147.467 190 95 190C42.5328 190 0 147.464 0 95ZM79.1268 68.4636H52.5881C45.257 68.4636 39.314 62.5225 39.314 55.1938C39.314 47.8651 45.257 41.9239 52.5881 41.9239H94.7954C94.8816 41.9226 94.9679 41.9219 95.0544 41.9219C95.0909 41.9219 95.1273 41.922 95.1637 41.9222C95.2136 41.9226 95.2635 41.9231 95.3133 41.9239H137.533C144.864 41.9239 150.807 47.8651 150.807 55.1938C150.807 62.5225 144.864 68.4636 137.533 68.4636H110.982V108.272C110.982 108.662 110.574 108.907 110.207 108.775C109.299 108.448 108.32 108.27 107.299 108.27C102.562 108.27 98.7228 112.108 98.7228 116.843V118.273C98.7228 119.144 98.8525 119.984 99.0937 120.775C99.505 122.125 99.0037 123.766 97.6102 123.991C96.7781 124.125 95.9244 124.195 95.0544 124.195C93.692 124.195 92.3696 124.024 91.1074 123.702C89.4052 123.268 89.4482 120.947 90.6794 119.694C92.5623 117.778 93.7237 115.152 93.7237 112.254C93.7237 106.392 88.97 101.639 83.106 101.639C82.7876 101.639 82.4725 101.653 82.1613 101.68C80.6695 101.812 79.1268 100.775 79.1268 99.2782V68.4636ZM106.991 121.539C109.19 121.539 110.972 119.757 110.972 117.559C110.972 115.362 109.19 113.58 106.991 113.58C104.793 113.58 103.011 115.362 103.011 117.559C103.011 119.757 104.793 121.539 106.991 121.539ZM99.9416 132.254C99.9416 135.318 102.426 137.802 105.491 137.802C108.555 137.802 111.04 135.318 111.04 132.254C111.04 129.19 108.555 126.706 105.491 126.706C102.426 126.706 99.9416 129.19 99.9416 132.254ZM103.262 148.344C103.262 150.489 105.001 152.228 107.147 152.228C109.292 152.228 111.031 150.489 111.031 148.344C111.031 146.2 109.292 144.461 107.147 144.461C105.001 144.461 103.262 146.2 103.262 148.344ZM99.9281 142.58C99.9281 144.844 98.0923 146.68 95.8278 146.68C93.5632 146.68 91.7275 144.844 91.7275 142.58C91.7275 140.317 93.5632 138.481 95.8278 138.481C98.0923 138.481 99.9281 140.317 99.9281 142.58ZM93.8327 164.005C90.4615 164.005 87.7287 161.273 87.7287 157.903C87.7287 154.533 90.4615 151.8 93.8327 151.8C97.2038 151.8 99.9367 154.533 99.9367 157.903C99.9367 161.273 97.2038 164.005 93.8327 164.005ZM75.0785 134.039C75.0785 138.329 78.5573 141.807 82.8487 141.807C87.1401 141.807 90.619 138.329 90.619 134.039C90.619 129.749 87.1401 126.27 82.8487 126.27C78.5573 126.27 75.0785 129.749 75.0785 134.039ZM83.1085 106.944C80.1771 106.944 77.8007 109.321 77.8007 112.251C77.8007 115.181 80.1771 117.558 83.1085 117.558C86.04 117.558 88.4164 115.181 88.4164 112.251C88.4164 109.321 86.04 106.944 83.1085 106.944Z" fill="#1A1D26"/>
</svg>
