<svg xmlns="http://www.w3.org/2000/svg" fill="none" viewBox="0 0 153 152">
  <path fill="#fff" fill-rule="evenodd" d="M76.02 0C34.04 0 0 33.86 0 75.63c0 41.76 34.04 75.62 76.02 75.62 41.99 0 76.02-33.86 76.02-75.63C152.04 33.87 118.01 0 76.02 0ZM3.38 75.63c0-39.91 32.52-72.27 72.64-72.27s72.64 32.36 72.64 72.27c0 39.9-32.52 72.26-72.64 72.26S3.38 115.53 3.38 75.63ZM42.05 54.5h21.23v24.53c0 1.2 1.23 2.02 2.42 1.91a8.47 8.47 0 0 1 9.25 8.42c0 2.3-.93 4.4-2.43 5.92-.99 1-1.02 2.85.34 3.2a12.83 12.83 0 0 0 5.2.22c1.12-.18 1.52-1.48 1.19-2.56a6.8 6.8 0 0 1-.3-1.99v-1.14a6.84 6.84 0 0 1 9.2-6.42c.28.1.61-.09.61-.4V54.5H110a10.6 10.6 0 0 0 10.62-10.56A10.6 10.6 0 0 0 110 33.37H76.23a11.88 11.88 0 0 0-.42 0H42.05a10.6 10.6 0 0 0-10.62 10.57A10.6 10.6 0 0 0 42.05 54.5Zm46.7 39.08a3.18 3.18 0 0 1-3.18 3.17 3.18 3.18 0 0 1-3.19-3.17 3.18 3.18 0 0 1 3.19-3.16 3.18 3.18 0 0 1 3.18 3.16Zm-4.38 16.12a4.43 4.43 0 0 1-4.44-4.42 4.43 4.43 0 0 1 4.44-4.42 4.43 4.43 0 0 1 4.44 4.42 4.43 4.43 0 0 1-4.44 4.42Zm1.32 11.48a3.1 3.1 0 0 1-3.1-3.09 3.1 3.1 0 0 1 6.22 0 3.13 3.13 0 0 1-3.12 3.1Zm-9.05-4.42a3.27 3.27 0 0 0 3.28-3.26c0-1.8-1.47-3.26-3.28-3.26a3.27 3.27 0 0 0-3.28 3.26c0 1.8 1.47 3.27 3.28 3.27Zm-6.48 8.94a4.87 4.87 0 0 0 4.88 4.86 4.87 4.87 0 1 0 0-9.72 4.87 4.87 0 0 0-4.88 4.86Zm-3.9-12.81a6.2 6.2 0 0 1-6.22-6.19 6.2 6.2 0 0 1 6.21-6.18 6.2 6.2 0 0 1 6.22 6.18 6.2 6.2 0 0 1-6.22 6.19Zm-4.04-23.53a4.24 4.24 0 0 1 8.5 0 4.25 4.25 0 0 1-4.26 4.22 4.24 4.24 0 0 1-4.24-4.22Z" clip-rule="evenodd"/>
</svg>
