<svg xmlns="http://www.w3.org/2000/svg" fill="none" viewBox="0 0 190 190">
  <path fill="url(#a)" fill-rule="evenodd" d="M0 95a95 95 0 1 1 190 0A95 95 0 0 1 0 95Zm79.13-26.54H52.59a13.27 13.27 0 1 1 0-26.54h42.2a17.17 17.17 0 0 1 .52 0h42.22a13.27 13.27 0 1 1 0 26.54h-26.55v39.81c0 .4-.4.64-.77.5a8.57 8.57 0 0 0-11.49 8.07v1.43c0 .87.13 1.71.37 2.5.41 1.36-.09 3-1.48 3.22a16.07 16.07 0 0 1-6.5-.29c-1.7-.43-1.66-2.75-.43-4a10.62 10.62 0 0 0-8.52-18.01c-1.49.12-3.03-.91-3.03-2.41V68.46Zm27.86 53.08a3.98 3.98 0 1 0 0-7.96 3.98 3.98 0 0 0 0 7.96Zm-7.05 10.71a5.55 5.55 0 1 0 11.1 0 5.55 5.55 0 0 0-11.1 0Zm3.32 16.1a3.88 3.88 0 1 0 7.77 0 3.88 3.88 0 0 0-7.77 0Zm-3.33-5.77a4.1 4.1 0 1 1-8.2 0 4.1 4.1 0 0 1 8.2 0ZM93.83 164a6.1 6.1 0 1 1 0-12.2 6.1 6.1 0 0 1 0 12.2Zm-18.75-29.96a7.77 7.77 0 1 0 15.54 0 7.77 7.77 0 0 0-15.54 0Zm8.03-27.1a5.3 5.3 0 1 0 0 10.62 5.3 5.3 0 0 0 0-10.62Z" clip-rule="evenodd"/>
  <defs>
    <linearGradient id="a" x1="190" x2="74.86" y1="190" y2="-37.83" gradientUnits="userSpaceOnUse">
      <stop stop-color="#71399F"/>
      <stop offset=".11" stop-color="#71399F"/>
      <stop offset=".8" stop-color="#EC096D"/>
      <stop offset="1" stop-color="#EC096D"/>
    </linearGradient>
  </defs>
</svg>
