<?xml version="1.0" standalone="no"?>
<!DOCTYPE svg PUBLIC "-//W3C//DTD SVG 20010904//EN"
 "http://www.w3.org/TR/2001/REC-SVG-20010904/DTD/svg10.dtd">
<svg version="1.0" xmlns="http://www.w3.org/2000/svg"
 width="520.000000pt" height="520.000000pt" viewBox="0 0 520.000000 520.000000"
 preserveAspectRatio="xMidYMid meet">
<metadata>
Created by potrace 1.16, written by Peter Selinger 2001-2019
</metadata>
<g transform="translate(0.000000,520.000000) scale(0.100000,-0.100000)"
fill="#000000" stroke="none">
<path d="M2303 5097 c-34 -12 -64 -24 -66 -27 -5 -6 -17 -660 -17 -955 l0
-210 -110 -34 c-121 -37 -274 -108 -362 -167 -327 -222 -536 -569 -587 -979
-18 -136 -16 -139 56 -143 l60 -3 7 -95 c15 -212 91 -434 222 -651 43 -70 52
-93 36 -93 -4 0 -13 -9 -20 -21 -11 -17 -11 -25 4 -47 35 -54 108 -103 196
-131 21 -7 64 -31 95 -54 90 -65 133 -92 222 -136 157 -79 361 -132 382 -99
12 18 11 278 0 278 -32 0 -279 108 -342 150 -196 128 -358 332 -438 548 -168
455 15 967 451 1263 75 52 226 123 296 140 l52 13 0 738 0 738 -37 -1 c-21 0
-66 -10 -100 -22z"/>
<path d="M2817 3916 c-37 -7 -70 -15 -73 -18 -11 -11 -24 -142 -18 -175 l6
-34 57 6 c31 4 63 9 72 11 12 3 18 -4 23 -30 6 -32 10 -35 89 -61 100 -33 180
-72 172 -85 -3 -5 -26 -12 -50 -16 -25 -3 -45 -10 -45 -14 0 -4 25 -24 56 -45
92 -60 224 -195 289 -294 l59 -90 71 -12 c103 -18 111 -22 130 -73 20 -52 22
-47 -72 -118 -38 -28 -41 -34 -35 -62 4 -17 7 -107 7 -201 0 -181 -11 -248
-62 -383 -60 -160 -131 -271 -257 -398 -104 -105 -213 -180 -318 -219 -40 -15
-83 -32 -95 -37 -11 -6 -26 -8 -31 -4 -6 3 -21 2 -34 -3 -19 -7 -14 -9 32 -15
30 -4 63 -10 72 -12 17 -5 18 -51 20 -737 l3 -732 33 -3 32 -3 0 589 0 590 83
21 c465 121 796 448 951 941 149 471 37 947 -308 1307 -141 148 -277 249 -462
343 -149 77 -247 93 -397 66z"/>
</g>
</svg>
