<svg viewBox="0 0 90 90" fill="none" xmlns="http://www.w3.org/2000/svg">
<path d="M87.32 49.78C86.9 49.49 86.54 49.28 86.19 49.07C86.12 49 86.05 49 85.98 48.93L85.34 48.51L84.85 48.15L49.76 25.28L33.24 42.51L33.1 42.65C32.663 43.081 32.3642 43.6325 32.2418 44.234C32.1195 44.8355 32.179 45.4598 32.4129 46.0274C32.6468 46.5949 33.0444 47.0799 33.555 47.4205C34.0657 47.7612 34.6662 47.942 35.28 47.94C35.707 47.9494 36.1309 47.8647 36.5214 47.6918C36.912 47.519 37.2598 47.2623 37.54 46.94V46.94L50.61 33.33L82.66 54.33C80.4605 62.8251 75.4334 70.3179 68.4067 75.5744C61.38 80.8309 52.7726 83.5376 44.0021 83.2489C35.2316 82.9601 26.8209 79.6931 20.1552 73.9858C13.4894 68.2786 8.96605 60.4714 7.33001 51.85V51.71C7.33001 51.64 7.33001 51.64 7.25001 51.57C7.08558 50.7412 6.59864 50.0117 5.89631 49.5419C5.19399 49.0721 4.33381 48.9006 3.50501 49.065C2.67621 49.2294 1.94668 49.7164 1.4769 50.4187C1.00712 51.121 0.835576 51.9812 1.00001 52.81C1.00001 52.95 1.07001 53.1 1.07001 53.24C3.03655 63.6751 8.64496 73.0727 16.8955 79.7576C25.146 86.4425 35.5024 89.9802 46.1184 89.74C56.7345 89.4998 66.9203 85.4974 74.86 78.4462C82.7998 71.395 87.9774 61.7534 89.47 51.24C88.87 50.77 88 50.27 87.32 49.78Z" fill="#192670"/>
<path d="M89.65 36.93C89.6545 36.892 89.6506 36.8535 89.6385 36.8172C89.6264 36.7809 89.6064 36.7477 89.58 36.72H89.65C87.7341 26.2617 82.1603 16.8261 73.9255 10.1005C65.6906 3.37494 55.3318 -0.20186 44.7016 0.00978182C34.0714 0.221424 23.8631 4.20771 15.9025 11.2557C7.94189 18.3037 2.74809 27.9538 1.25 38.48C2.03 38.97 2.81 39.4 3.58 39.89C3.73978 39.9981 3.90684 40.095 4.08 40.18C4.15 40.18 4.15 40.25 4.22 40.25L41.14 64.39L57.67 47.16L57.81 47.02C58.2709 46.6032 58.5911 46.0537 58.7262 45.4471C58.8613 44.8406 58.8048 44.2071 58.5644 43.6341C58.324 43.0611 57.9116 42.5769 57.3842 42.2483C56.8567 41.9198 56.2403 41.7631 55.62 41.8C55.193 41.7906 54.7692 41.8753 54.3786 42.0482C53.988 42.221 53.6402 42.4777 53.36 42.8V42.8L40.16 56.42L8.16 35.53C10.3519 27.0734 15.3448 19.6092 22.3242 14.3549C29.3035 9.1007 37.8574 6.36659 46.5903 6.59863C55.3233 6.83067 63.7199 10.0152 70.4103 15.6326C77.1008 21.2501 81.6903 28.9689 83.43 37.53C83.4188 37.6997 83.4426 37.8699 83.5 38.03C83.5735 38.4381 83.7268 38.8277 83.9512 39.1764C84.1755 39.5251 84.4666 39.8261 84.8075 40.0621C85.1485 40.2981 85.5327 40.4645 85.9381 40.5516C86.3435 40.6388 86.7622 40.645 87.17 40.57C87.5721 40.4944 87.9554 40.3402 88.2978 40.1162C88.6402 39.8922 88.935 39.6028 89.1654 39.2647C89.3958 38.9265 89.5572 38.5462 89.6403 38.1456C89.7235 37.745 89.7268 37.3319 89.65 36.93V36.93Z" fill="#192670"/>
</svg>
