<svg width="42" height="41" viewBox="0 0 42 41" fill="none" xmlns="http://www.w3.org/2000/svg">
<g clip-path="url(#clip0_261_36)">
<mask id="mask0_261_36" style="mask-type:alpha" maskUnits="userSpaceOnUse" x="0" y="0" width="42" height="41">
<rect x="1.197" y="40.5882" width="40.1665" height="40.1665" rx="20.0833" transform="rotate(-90 1.197 40.5882)" fill="black" stroke="#242424" stroke-width="0.405723"/>
</mask>
<g mask="url(#mask0_261_36)">
<path d="M22.5127 0.235351C33.1434 0.871461 41.5684 9.6919 41.5684 20.4824C41.5684 26.5888 38.8696 32.0642 34.6006 35.7832C29.1348 29.6874 22.5788 23.5899 22.5527 17.4941C22.5282 11.7412 22.5213 5.98824 22.5127 0.235351ZM0.996093 20.4824C0.996093 9.69289 9.41951 0.872902 20.0488 0.235351C20.0402 5.98824 20.0343 11.7412 20.0098 17.4941C19.9837 23.5898 13.4276 29.6866 7.96191 35.7822C3.69384 32.0632 0.996093 26.5881 0.996093 20.4824Z" fill="#242424"/>
<path d="M22.4092 20.0498C23.8706 26.2451 28.7674 32.4406 32.2178 38.6357C32.6559 39.4224 33.0707 40.2094 33.4521 40.9961L30.3291 40.9961C30.054 40.2094 29.7565 39.4224 29.4434 38.6357C26.9774 32.4405 23.5387 26.2451 22.4092 20.0498ZM9.11035 40.9961C9.49184 40.2094 9.9066 39.4224 10.3447 38.6357C13.7951 32.4406 18.6919 26.2451 20.1533 20.0498C19.0238 26.2451 15.5851 32.4405 13.1191 38.6357C12.806 39.4224 12.5085 40.2094 12.2334 40.9961L9.11035 40.9961Z" fill="#242424"/>
<path d="M21.2812 -6.20605C21.2813 -5.87748 21.2813 -5.5489 21.2813 -5.22032C21.2813 -4.7622 21.2823 -4.30408 21.2844 -3.84595C21.3168 3.23436 21.5955 10.3147 22.0077 17.395C22.4199 24.4753 25.4417 31.5556 27.5501 38.6359C27.7844 39.4226 28.0074 40.2093 28.2143 40.996C23.5923 40.996 18.9702 40.996 14.3482 40.996C14.5551 40.2093 14.7781 39.4226 15.0124 38.6359C17.1208 31.5556 20.1426 24.4753 20.5548 17.395C20.967 10.3147 21.2457 3.23436 21.2781 -3.84595C21.2802 -4.30408 21.2813 -4.7622 21.2813 -5.22032C21.2813 -5.5489 21.2813 -5.87748 21.2812 -6.20605Z" fill="#242424"/>
</g>
</g>
<defs>
<clipPath id="clip0_261_36">
<rect width="41" height="41" fill="white" transform="translate(0.876953)"/>
</clipPath>
</defs>
</svg>
