<svg width="257" height="256" viewBox="0 0 257 256" fill="none" xmlns="http://www.w3.org/2000/svg">
<g clip-path="url(#clip0_294_144)">
<path d="M128.751 255.518C199.267 255.518 256.432 198.353 256.432 127.837C256.432 57.3209 199.267 0.15625 128.751 0.15625C58.235 0.15625 1.07031 57.3209 1.07031 127.837C1.07031 198.353 58.235 255.518 128.751 255.518Z" fill="#FAFAFA"/>
<path d="M129.114 0.156873C129.126 2.8676 129.358 9.65427 129.376 10.4175C129.919 33.3619 130.758 56.2991 131.894 79.2219C132.487 91.4128 132.928 103.698 133.975 115.858C137.938 161.889 156.708 204.862 169.694 248.811C156.842 253.16 143.072 255.518 128.751 255.518C114.429 255.518 100.658 253.16 87.8053 248.81C100.792 204.861 119.563 161.888 123.525 115.857C124.572 103.697 125.013 91.4122 125.606 79.2212C126.742 56.2983 127.581 33.3614 128.123 10.4168C128.142 9.65459 128.373 2.86807 128.385 0.156873C128.507 0.156531 128.629 0.15625 128.751 0.15625C128.872 0.15625 128.993 0.156537 129.114 0.156873ZM136.546 129.255C136.742 129.886 136.919 130.519 137.087 131.156L137.252 131.795C138.662 137.568 140.794 143.302 143.019 148.805C153.242 174.092 168.541 197.118 182.896 220.179C185.988 225.108 189.036 230.065 192.039 235.05L193.673 237.803C189.381 240.343 184.927 242.636 180.331 244.668C179.527 242.716 178.715 240.767 177.891 238.825C173.725 229.048 169.462 219.312 165.105 209.618C156.845 191.013 148.593 172.282 142.514 152.827C141.141 148.438 139.893 144.01 138.771 139.55C138.234 137.391 137.788 135.21 137.266 133.049L137.036 132.124C136.826 131.167 136.648 130.23 136.546 129.255ZM120.949 129.254C120.847 130.227 120.669 131.162 120.46 132.117L120.463 132.123C119.837 134.586 119.342 137.082 118.73 139.549C117.608 144.009 116.36 148.436 114.986 152.825C108.907 172.281 100.656 191.012 92.3961 209.617C88.0389 219.311 83.7757 229.047 79.6088 238.824C78.7859 240.767 77.9726 242.716 77.1688 244.667C72.573 242.635 68.1188 240.342 63.8265 237.802L65.4618 235.049C68.4642 230.064 71.5119 225.107 74.6037 220.178C88.9589 197.117 104.258 174.091 114.48 148.804C116.705 143.302 118.836 137.571 120.246 131.799L120.243 131.794C120.458 130.94 120.688 130.096 120.949 129.254ZM136.914 0.413107C203.626 4.62217 256.432 60.0628 256.432 127.837C256.432 166.962 238.834 201.976 211.121 225.397C210.076 224.237 209.032 223.075 207.978 221.925L193.749 206.465C172.736 183.591 142.426 150.847 137.805 119.334C137.142 114.81 137.144 110.294 137.127 105.732L137.1 93.118L136.99 50.3009L136.948 16.2641L136.926 4.79715C136.918 3.34568 136.976 1.86951 136.914 0.413107ZM120.585 0.413107C120.522 1.86931 120.582 3.34518 120.573 4.79653L120.552 16.2635L120.509 50.3002L120.4 93.1174L120.373 105.731C120.356 110.292 120.357 114.809 119.694 119.333C115.073 150.846 84.7639 183.59 63.7505 206.464L49.521 221.924C48.4673 223.074 47.4234 224.235 46.3783 225.396C18.6675 201.974 1.07031 166.961 1.07031 127.837C1.07031 60.0639 53.8742 4.62369 120.585 0.413107Z" fill="#242424"/>
</g>
<defs>
<clipPath id="clip0_294_144">
<rect width="256" height="256" fill="white" transform="translate(0.71875)"/>
</clipPath>
</defs>
</svg>
