<svg xmlns="http://www.w3.org/2000/svg" viewBox="0 0 23 23" xml:space="preserve"><path d="M0 4.9C0 2.2 2.2 0 4.9 0H18c2.8 0 5 2.2 5 4.9V18c0 2.7-2.2 4.9-4.9 4.9H4.9C2.2 23 0 20.8 0 18.1V4.9z" fill="#5760e4"/><path d="M6.2 6.2c.7 0 1.2-.6 1.2-1.2 0-.7-.6-1.2-1.2-1.2S5 4.3 5 5s.6 1.2 1.2 1.2zm4.5-2.4c-.7 0-1.3.5-1.3 1.2s.6 1.2 1.2 1.2h4.6l-3.8 9.1-2.4-6c-.2-.6-1-.9-1.6-.7-.6.3-.9 1-.7 1.6l3.6 8.9c.2.5.6.8 1.1.8.5 0 1-.3 1.1-.8l5.6-13.6c.2-.4.1-.8-.1-1.2-.2-.3-.6-.5-1-.5h-6.3z" fill-rule="evenodd" clip-rule="evenodd" fill="#fff"/></svg>