<?xml version="1.0" encoding="UTF-8"?>
<svg xmlns="http://www.w3.org/2000/svg" version="1.1" viewBox="0 0 501 501">
  <defs>
    <style>
      .cls-1 {
        fill: #fff;
      }
    </style>
  </defs>
  <!-- Generator: Adobe Illustrator 28.7.0, SVG Export Plug-In . SVG Version: 1.2.0 Build 136)  -->
  <g>
    <g id="Layer_1">
      <path class="cls-1" d="M250.8,500.8c138.1,0,250-111.9,250-250S388.8.8,250.8.8.8,112.7.8,250.8s111.9,250,250,250Z"/>
      <path d="M355.8,348.8c-8-7.8-18.2-12-28.5-12.6h0c-39.6-1.3-45.3-34.2-45.3-42.5s6.3-40.9,45.2-42.1c10.3-.6,20.5-4.8,28.5-12.6,17.6-17.2,18-45.4.8-63-8.7-8.9-20.2-13.4-31.8-13.5h-.3c-11.2,0-22.3,4.2-30.9,12.7-9.4,9.2-13.4,21.6-13.4,33.8s-7.1,40.1-40,40.1-25.4,3.6-34.9,13.4c-.4.4-.7.9-1.1,1.3v-.2c-2.3,2.4-2.7.5-2.7-.8V83.5c0-3.4-2.7-6.1-6.1-6.1h-62c-3.4,0-6.1,2.7-6.1,6.1v329.1c0,3.4,2.7,6.1,6.1,6.1h62.1c3.4,0,6.1-2.7,6.1-6.1v-87.5c0-1.3.4-3.2,2.7-.8h0c.4.3.7.7,1,1.2,9.5,9.8,22.3,13.4,34.9,13.4,33,0,40,33.2,40,40.1s4,24.6,13.4,33.8c8.7,8.4,19.9,12.7,31,12.7h0c11.6,0,23.2-4.5,31.9-13.5,8.4-8.6,12.6-19.8,12.6-31v-.3c0-11.6-4.5-23.1-13.5-31.8"/>
    </g>
  </g>
</svg>