<?xml version="1.0" encoding="UTF-8"?>
<svg version="1.1" xmlns="http://www.w3.org/2000/svg" width="512" height="512">
<path d="M0,0 L28,0 L56,3 L81,9 L108,19 L125,27 L142,37 L159,49 L170,58 L183,70 L191,78 L200,89 L210,102 L222,121 L232,140 L241,163 L245,176 L250,197 L252,211 L253,227 L253,255 L250,283 L244,308 L234,335 L226,352 L216,369 L204,386 L193,399 L184,409 L175,418 L164,427 L151,437 L132,449 L117,457 L92,467 L81,471 L56,477 L28,480 L-8,480 L-35,476 L-58,470 L-80,462 L-101,452 L-119,441 L-133,431 L-144,422 L-157,410 L-165,402 L-174,391 L-184,378 L-196,359 L-204,344 L-214,319 L-218,308 L-224,281 L-226,265 L-227,255 L-227,219 L-223,192 L-217,169 L-209,147 L-199,126 L-188,108 L-178,94 L-171,86 L-163,79 L-144,60 L-142,56 L-125,43 L-106,31 L-87,21 L-64,12 L-44,6 L-23,2 Z M-3,109 L-25,111 L-44,114 L-68,120 L-90,128 L-106,136 L-120,145 L-132,156 L-139,165 L-142,173 L-143,218 L-145,232 L-147,243 L-147,297 L-155,308 L-157,313 L-157,323 L-152,331 L-143,339 L-126,347 L-105,354 L-79,360 L-53,364 L-30,367 L-17,368 L40,368 L69,365 L103,360 L135,352 L157,344 L169,337 L176,331 L180,324 L181,322 L181,315 L178,307 L171,299 L170,281 L170,245 L168,232 L166,217 L165,174 L162,165 L158,159 L151,151 L138,141 L122,132 L95,121 L76,116 L63,113 L40,110 L28,109 Z " fill="#DD6B26" transform="translate(243,16)"/>
<path d="M0,0 L1,0 L1,10 L3,9 L14,8 L60,8 L85,11 L103,14 L113,17 L113,8 L114,8 L114,18 L121,19 L132,22 L140,26 L140,18 L141,18 L141,27 L147,29 L156,33 L156,35 L161,36 L169,41 L172,41 L172,44 L176,46 L186,55 L185,51 L185,49 L188,49 L188,46 L190,46 L191,49 L192,92 L194,107 L196,120 L196,156 L197,174 L204,182 L207,190 L207,197 L204,203 L199,209 L185,218 L164,226 L134,234 L109,238 L79,242 L66,243 L9,243 L-20,240 L-47,236 L-72,231 L-95,224 L-111,217 L-121,211 L-128,204 L-131,198 L-131,188 L-127,180 L-121,172 L-121,118 L-118,102 L-116,98 L-115,98 L-115,105 L-110,104 L-111,69 L-113,69 L-115,71 L-115,48 L-113,46 L-112,48 L-109,47 L-110,51 L-112,58 L-108,52 L-106,52 L-106,44 L-105,44 L-104,49 L-97,43 L-94,43 L-94,41 L-84,35 L-65,26 L-62,26 L-62,24 L-57,23 L-57,14 L-56,14 L-56,22 L-39,17 L-18,12 L0,10 Z M16,16 L9,19 L5,24 L4,26 L4,33 L5,35 L-10,34 L-9,33 L-9,27 L-14,21 L-22,21 L-28,26 L-31,31 L-32,40 L-26,44 L-30,43 L-32,43 L-32,99 L-10,98 L-9,63 L-8,48 L-8,37 L3,37 L3,98 L31,98 L31,37 L44,37 L44,93 L45,98 L73,98 L73,37 L84,37 L85,98 L108,99 L108,42 L106,42 L107,40 L107,32 L102,24 L97,21 L90,21 L85,26 L84,32 L86,34 L71,35 L72,33 L72,27 L68,20 L63,17 L53,17 L47,22 L45,26 L45,35 L30,35 L31,27 L28,21 L23,17 Z M-52,30 L-58,37 L-58,44 L-59,45 L-66,46 L-66,47 L-59,47 L-59,99 L-43,99 L-42,98 L-40,43 L-41,39 L-42,33 L-45,30 Z M121,30 L117,34 L116,42 L116,64 L117,89 L118,99 L134,99 L135,46 L134,43 L133,36 L128,31 L127,30 Z M-74,39 L-78,45 L-79,50 L-79,100 L-69,100 L-68,99 L-67,47 L-70,47 L-68,44 L-69,39 Z M145,39 L143,43 L146,47 L144,47 L144,100 L146,101 L155,101 L155,75 L154,47 L151,41 L149,39 Z M-90,47 L-93,50 L-95,61 L-95,102 L-87,102 L-87,48 Z M163,48 L162,49 L162,101 L163,102 L170,102 L170,56 L168,50 L167,48 Z M-104,57 L-106,61 L-106,104 L-100,103 L-100,57 Z M176,57 L176,103 L181,103 L181,60 L179,57 Z M187,68 L185,69 L185,105 L190,105 L190,73 L188,68 Z M-76,135 L-81,140 L-83,145 L-83,156 L-73,157 L-74,158 L-83,157 L-83,183 L-82,211 L-72,209 L-60,212 L-60,152 L-64,142 L-72,135 Z M147,135 L140,141 L136,150 L135,159 L135,195 L136,211 L144,210 L149,209 L158,211 L158,158 L148,158 L148,156 L155,156 L159,155 L159,146 L155,138 L151,135 Z M-104,136 L-106,139 L-107,150 L-107,152 L-107,183 L-106,199 L-100,197 L-98,196 L-97,180 L-97,142 L-100,136 Z M-36,136 L-44,143 L-47,149 L-48,157 L-36,158 L-47,159 L-47,218 L-43,217 L-33,217 L-21,219 L-16,219 L-16,164 L-3,164 L-3,223 L3,221 L30,221 L30,166 L45,166 L45,221 L72,221 L78,223 L78,164 L92,164 L92,219 L109,217 L115,216 L120,218 L123,218 L123,159 L112,158 L123,157 L122,147 L116,139 L111,136 L103,136 L97,140 L95,144 L93,144 L90,151 L90,157 L92,160 L94,160 L94,162 L70,161 L71,160 L78,159 L78,149 L72,141 L68,138 L65,137 L57,137 L51,141 L45,148 L44,150 L44,158 L46,162 L48,162 L48,164 L28,164 L32,156 L30,147 L25,142 L20,138 L18,137 L9,137 L2,142 L-3,151 L-3,159 L5,160 L0,161 L-18,161 L-15,158 L-15,148 L-24,138 L-30,136 Z M176,136 L173,139 L173,196 L179,199 L182,199 L182,151 L182,149 L182,141 L179,136 Z M-126,192 L-125,197 L-118,205 L-107,212 L-92,218 L-68,225 L-45,230 L-3,236 L10,237 L64,237 L94,234 L125,229 L162,220 L175,215 L191,207 L199,200 L201,196 L200,193 L196,198 L182,206 L156,215 L118,223 L82,228 L71,229 L4,229 L-36,224 L-57,220 L-80,215 L-101,208 L-117,200 L-123,195 Z " fill="#F9F5F2" transform="translate(217,141)"/>
<path d="M0,0 L48,0 L75,4 L99,10 L119,17 L139,26 L159,37 L175,48 L189,59 L194,61 L196,65 L216,85 L220,87 L221,91 L225,93 L226,97 L229,98 L230,101 L232,102 L233,105 L237,109 L249,128 L250,132 L253,135 L263,156 L264,164 L267,172 L269,172 L273,184 L273,192 L275,192 L275,200 L278,216 L280,216 L280,296 L278,296 L275,312 L275,320 L273,320 L271,331 L269,340 L267,340 L263,351 L262,358 L252,379 L249,380 L248,386 L234,407 L232,408 L231,411 L229,412 L228,415 L225,416 L224,420 L220,422 L219,426 L214,429 L194,449 L193,452 L189,453 L174,465 L157,476 L139,486 L119,495 L92,504 L70,509 L48,512 L0,512 L-27,508 L-51,502 L-71,495 L-91,486 L-111,475 L-127,464 L-141,453 L-146,451 L-148,447 L-168,427 L-172,425 L-173,421 L-177,419 L-178,415 L-181,414 L-182,411 L-184,410 L-185,407 L-189,403 L-201,384 L-202,380 L-205,377 L-215,356 L-216,348 L-219,340 L-221,340 L-223,331 L-225,320 L-227,320 L-227,312 L-230,296 L-232,296 L-232,216 L-230,216 L-227,200 L-227,192 L-225,192 L-223,181 L-221,172 L-219,172 L-215,161 L-214,154 L-204,133 L-201,132 L-200,126 L-186,105 L-184,104 L-183,101 L-181,100 L-180,97 L-177,96 L-176,92 L-172,90 L-171,86 L-166,83 L-146,63 L-145,60 L-141,59 L-126,47 L-109,36 L-91,26 L-71,17 L-44,8 L-22,3 Z M11,16 L-19,19 L-37,23 L-64,32 L-84,41 L-102,51 L-118,62 L-128,70 L-142,82 L-154,94 L-163,105 L-173,118 L-185,137 L-195,156 L-204,179 L-208,192 L-212,208 L-216,235 L-216,271 L-214,292 L-209,315 L-206,326 L-199,346 L-189,368 L-179,385 L-167,402 L-156,415 L-147,425 L-138,434 L-127,443 L-114,453 L-95,465 L-76,475 L-53,484 L-33,490 L-12,494 L3,496 L39,496 L67,493 L92,487 L119,477 L136,469 L153,459 L170,447 L183,436 L193,427 L202,418 L211,407 L221,394 L233,375 L241,360 L251,335 L255,324 L261,299 L264,271 L264,243 L262,220 L258,199 L250,173 L240,150 L229,130 L218,114 L210,104 L198,90 L186,78 L175,69 L162,59 L143,47 L128,39 L103,29 L92,25 L67,19 L39,16 Z M-144,61 Z M191,61 Z M-171,88 Z M218,88 Z M-176,94 Z M223,94 Z M-180,99 Z M227,99 Z M-183,103 Z M230,103 Z M-186,107 Z M233,107 Z M-187,108 Z M234,108 Z M-188,110 Z M235,110 Z M-189,111 Z M236,111 Z M-190,113 Z M237,113 Z M-191,114 Z M238,114 Z M-192,116 Z M239,116 Z M-193,117 Z M240,117 Z M-194,119 Z M241,119 Z M-195,120 Z M242,120 Z M-196,122 Z M243,122 Z M-197,124 Z M244,124 Z M-198,125 Z M245,125 Z M-199,127 Z M246,127 Z M-200,129 Z M247,129 Z M-203,134 Z M250,134 Z M-204,136 Z M251,136 Z M-205,138 Z M252,138 Z M-206,140 Z M253,140 Z M-207,142 Z M254,142 Z M-208,144 Z M255,144 Z M-209,146 Z M256,146 Z M-210,148 Z M257,148 Z M-211,150 L-210,152 Z M258,150 L259,152 Z M-212,153 Z M259,153 Z M-213,154 L-212,156 Z M260,154 L261,156 Z M-214,157 Z M261,157 Z M-220,174 Z M267,174 Z M-221,175 Z M268,175 Z M-221,177 Z M268,177 Z M-222,178 Z M269,178 Z M-222,180 Z M269,180 Z M270,181 L271,184 Z M271,185 L272,188 Z M-222,331 Z M269,331 Z M-222,333 Z M269,333 Z M-221,334 Z M268,334 Z M-221,336 Z M268,336 Z M-220,337 Z M267,337 Z M-214,354 Z M261,354 Z M-213,356 L-212,358 Z M260,356 L261,358 Z M-212,358 Z M259,358 Z M-211,360 L-210,362 Z M258,360 L259,362 Z M-210,363 Z M257,363 Z M-209,365 Z M256,365 Z M-208,367 Z M255,367 Z M-207,369 Z M254,369 Z M-206,371 Z M253,371 Z M-205,373 Z M252,373 Z M-204,375 Z M251,375 Z M-203,377 Z M250,377 Z M-200,382 Z M247,382 Z M-199,384 Z M246,384 Z M-198,386 Z M245,386 Z M-197,387 Z M244,387 Z M-196,389 Z M243,389 Z M-195,391 Z M242,391 Z M-194,392 Z M241,392 Z M-193,394 Z M240,394 Z M-192,395 Z M239,395 Z M-191,397 Z M238,397 Z M-190,398 Z M237,398 Z M-189,400 Z M236,400 Z M-188,401 Z M235,401 Z M-187,403 Z M234,403 Z M-186,404 Z M233,404 Z M-183,408 Z M230,408 Z M-180,412 Z M227,412 Z M-176,417 Z M223,417 Z M-171,423 Z M218,423 Z M-144,450 Z M191,450 Z " fill="#FEFDFD" transform="translate(232,0)"/>
<path d="M0,0 L52,0 L76,3 L106,10 L127,18 L144,26 L158,36 L168,45 L173,51 L173,53 L177,51 L178,56 L176,56 L176,59 L171,58 L171,56 L169,56 L168,59 L166,52 L161,47 L159,51 L157,44 L147,37 L147,45 L144,44 L145,35 L140,33 L127,27 L122,25 L121,33 L119,32 L119,23 L108,20 L101,18 L101,27 L98,26 L100,26 L100,17 L83,13 L64,10 L64,20 L62,20 L62,9 L44,8 L8,8 L-19,11 L-39,15 L-48,17 L-49,27 L-51,27 L-51,18 L-64,22 L-68,24 L-69,33 L-74,34 L-74,36 L-78,37 L-78,28 L-92,35 L-93,36 L-93,45 L-96,45 L-97,38 L-107,45 L-108,52 L-106,53 L-113,57 L-120,63 L-124,69 L-125,66 L-122,60 L-122,58 L-124,58 L-125,60 L-127,58 L-126,52 L-124,50 L-123,53 L-118,49 L-112,44 L-112,41 L-103,33 L-88,24 L-69,15 L-51,9 L-19,2 Z " fill="#F1DACB" transform="translate(229,131)"/>
<path d="M0,0 L11,0 L17,4 L23,11 L26,14 L26,76 L-2,76 L-3,71 L-3,14 L-2,11 L-2,4 Z " fill="#DC6B28" transform="translate(264,163)"/>
<path d="M0,0 L5,5 L16,12 L36,20 L54,25 L79,30 L112,35 L130,37 L197,37 L230,33 L255,29 L285,22 L308,14 L319,8 L324,4 L327,1 L326,6 L320,13 L306,21 L293,26 L280,30 L247,38 L212,43 L190,45 L136,45 L107,42 L71,36 L43,29 L26,23 L12,16 L2,7 L0,3 Z " fill="#DE712E" transform="translate(91,333)"/>
<path d="M0,0 L9,0 L12,2 L13,10 L12,13 L26,14 L26,15 L13,15 L13,76 L-14,76 L-14,75 L12,75 L11,74 L-14,74 L-14,18 L-13,18 L-11,9 L-5,2 Z " fill="#DD6C28" transform="translate(235,163)"/>
<path d="M0,0 L31,0 L58,3 L75,6 L92,10 L118,20 L134,28 L145,35 L158,46 L164,54 L165,58 L162,59 L155,50 L145,41 L129,31 L109,22 L91,16 L60,9 L41,7 L-11,7 L-36,10 L-65,17 L-82,23 L-103,33 L-115,41 L-123,48 L-123,51 L-129,56 L-134,60 L-135,59 L-135,54 L-124,42 L-113,33 L-96,23 L-71,13 L-50,7 L-36,4 L-14,1 Z " fill="#FAF4F0" transform="translate(240,125)"/>
<path d="M0,0 L6,0 L7,2 L7,8 L6,9 L20,10 L18,12 L8,12 L8,23 L7,38 L6,73 L-16,74 L-16,18 L-10,20 L-8,9 L-4,3 Z " fill="#DD6C28" transform="translate(201,166)"/>
<path d="M0,0 L6,0 L11,4 L16,16 L17,18 L15,19 L21,18 L21,74 L-1,73 L-2,12 L-13,12 L-14,10 L0,9 L-2,7 L-1,1 Z " fill="#DD6C28" transform="translate(303,166)"/>
<path d="M0,0 L7,0 L14,6 L16,11 L16,16 L14,18 L16,20 L16,74 L15,75 L9,75 L6,65 L-1,51 L-6,46 L-6,22 L-4,19 L-7,18 L-8,16 L-7,6 L-3,2 Z " fill="#9B4817" transform="translate(315,282)"/>
<path d="M0,0 L22,0 L21,2 L7,2 L7,61 L1,59 L-26,59 L-26,4 L-41,4 L-42,2 L-24,2 L-25,29 L-13,27 L-2,25 L-1,32 Z " fill="#D76B29" transform="translate(288,303)"/>
<path d="M0,0 L8,0 L14,7 L14,17 L11,21 L12,22 L12,46 L6,53 L0,66 L-2,75 L-9,74 L-9,19 L-7,17 L-9,16 L-8,7 Z " fill="#9A4717" transform="translate(188,282)"/>
<path d="M0,0 L9,2 L16,10 L17,19 L17,21 L17,59 L16,59 L14,47 L4,49 L-8,50 L-8,24 L-6,21 L-9,20 L-10,17 L-10,9 L-6,3 L-4,1 Z " fill="#9B4817" transform="translate(271,282)"/>
<path d="M0,0 L10,0 L15,5 L17,14 L14,20 L15,23 L15,49 L0,48 L-10,46 L-10,20 L-8,20 L-8,18 L-10,18 L-10,11 L-6,4 Z " fill="#9B4817" transform="translate(232,283)"/>
<path d="M0,0 L36,0 L54,2 L54,13 L40,12 L-6,12 L-19,13 L-19,2 Z " fill="#B85920" transform="translate(237,138)"/>
<path d="M0,0 L9,2 L24,4 L24,34 L15,34 L-1,32 L-1,1 Z " fill="#D56724" transform="translate(223,328)"/>
<path d="M0,0 L4,1 L8,8 L8,67 L6,67 L2,61 L-3,55 L-5,54 L-5,18 L-3,6 Z " fill="#A04D1C" transform="translate(357,282)"/>
<path d="M0,0 L3,0 L3,7 L4,11 L2,63 L1,64 L-11,64 L-9,63 L-10,54 L-9,12 L-5,4 Z " fill="#DD6C28" transform="translate(173,176)"/>
<path d="M0,0 L5,5 L9,11 L10,15 L10,66 L0,66 L-1,56 L-2,31 L-2,9 L-1,1 Z " fill="#DD6C28" transform="translate(335,174)"/>
<path d="M0,0 L4,4 L7,12 L7,28 L6,56 L1,61 L-4,68 L-5,68 L-6,11 L-3,3 Z " fill="#9D4918" transform="translate(150,281)"/>
<path d="M0,0 L1,2 L-1,2 L-1,59 L5,59 L5,60 L-5,62 L-9,63 L-9,4 L-22,4 L-22,59 L-27,59 L-23,58 L-24,2 L-6,1 Z " fill="#DD7536" transform="translate(223,301)"/>
<path d="M0,0 L5,0 L6,5 L4,8 L7,9 L6,60 L-3,60 L-4,37 L-4,6 Z " fill="#B05620" transform="translate(143,180)"/>
<path d="M0,0 L9,1 L11,0 L11,51 L1,54 L0,26 Z " fill="#DC6D2A" transform="translate(134,298)"/>
<path d="M0,0 L11,0 L9,1 L9,56 L11,57 L0,59 Z " fill="#DC6A25" transform="translate(170,300)"/>
<path d="M0,0 L10,0 L10,53 L1,51 L0,50 Z " fill="#DD6E2A" transform="translate(365,299)"/>
<path d="M0,0 L5,1 L8,5 L9,8 L9,27 L7,54 L4,60 L-1,60 L-1,8 L1,8 L-2,4 Z " fill="#AB501A" transform="translate(362,180)"/>
<path d="M0,0 L7,0 L10,3 L10,5 L4,9 L0,17 L-1,68 L-7,69 L-7,17 L-14,17 L-14,16 L-7,15 L-6,14 L-6,7 Z " fill="#B65C26" transform="translate(165,171)"/>
<path d="M0,0 L6,0 L11,5 L13,10 L13,15 L14,17 L13,69 L7,69 L6,18 L3,10 L-2,5 L-1,1 Z " fill="#B2551D" transform="translate(338,171)"/>
<path d="M0,0 L4,0 L6,3 L7,8 L7,54 L0,54 L-1,53 L-1,1 Z " fill="#A7521F" transform="translate(380,189)"/>
<path d="M0,0 L3,1 L3,55 L-5,55 L-5,14 L-3,3 Z " fill="#A25020" transform="translate(127,188)"/>
<path d="M0,0 L9,1 L9,57 L5,58 L2,56 L1,2 Z " fill="#DD6B27" transform="translate(329,300)"/>
<path d="M0,0 L7,0 L7,10 L-20,15 L-30,17 L-30,7 L-24,5 L-12,2 Z " fill="#B25620" transform="translate(210,141)"/>
<path d="M0,0 L11,1 L27,4 L36,7 L36,16 L27,15 L3,11 L0,10 Z " fill="#B0551F" transform="translate(293,141)"/>
<path d="M0,0 L4,1 L6,5 L6,13 L6,15 L6,63 L1,62 L-1,60 L1,9 L-3,9 L-3,3 Z " fill="#DD6E2C" transform="translate(393,277)"/>
<path d="M0,0 L6,5 L11,14 L15,26 L15,29 L17,30 L0,32 Z " fill="#DB6B27" transform="translate(309,328)"/>
<path d="M0,0 L1,0 L1,31 L-10,31 L-15,30 L-13,29 L-12,20 L-4,4 Z " fill="#DB6A26" transform="translate(199,328)"/>
<path d="M0,0 L4,0 L4,46 L-2,47 L-2,4 Z " fill="#A24F1F" transform="translate(113,198)"/>
<path d="M0,0 L8,0 L14,4 L19,11 L20,21 L11,21 L8,11 L2,6 L-5,6 L-8,6 L-2,1 Z " fill="#DC6F2D" transform="translate(320,277)"/>
<path d="M0,0 L6,1 L10,6 L12,11 L12,20 L8,21 L1,21 L-1,11 L-6,5 Z " fill="#DD6E2B" transform="translate(364,276)"/>
<path d="M0,0 L10,1 L14,5 L5,7 L0,12 L-2,21 L-12,21 L-10,11 L-6,5 Z " fill="#DD6F2C" transform="translate(181,277)"/>
<path d="M0,0 L9,0 L15,4 L15,5 L6,6 L0,10 L-3,16 L-4,22 L-12,22 L-12,14 L-6,4 Z " fill="#DC6E2B" transform="translate(226,278)"/>
<path d="M0,0 L6,1 L9,4 L7,8 L4,16 L3,22 L-7,21 L-7,10 L-4,3 Z " fill="#DD6E2B" transform="translate(141,276)"/>
<path d="M0,0 L8,0 L14,3 L20,10 L21,12 L21,22 L14,22 L11,13 L6,7 L-3,5 L-6,4 Z " fill="#DC6C29" transform="translate(274,278)"/>
<path d="M0,0 L4,1 L5,3 L5,46 L0,46 Z " fill="#974413" transform="translate(393,198)"/>
<path d="M0,0 L1,0 L2,52 L-4,54 L-4,40 L-3,7 L-1,5 Z " fill="#DC6B27" transform="translate(115,286)"/>
<path d="M0,0 L5,1 L7,6 L7,44 L6,44 L6,9 L2,9 L2,15 L0,16 L-1,49 L-3,47 L-3,16 L-3,14 L-2,3 Z " fill="#DC7E45" transform="translate(113,277)"/>
<path d="M0,0 L4,0 L4,30 L3,51 L0,51 Z " fill="#9D4C1C" transform="translate(390,286)"/>
<path d="M0,0 L8,0 L11,4 L4,6 L0,11 L-2,16 L-3,22 L-8,20 L-10,19 L-9,10 L-3,2 Z " fill="#AB531F" transform="translate(195,162)"/>
<path d="M0,0 L2,1 L3,5 L3,37 L-2,37 L-2,1 Z " fill="#A5501E" transform="translate(404,209)"/>
<path d="M0,0 L7,0 L13,4 L17,11 L17,19 L12,21 L8,12 L5,7 L2,5 L-3,4 Z " fill="#AB531F" transform="translate(307,162)"/>
<path d="M0,0 L9,2 L17,5 L17,14 L7,12 L0,10 Z " fill="#AB531F" transform="translate(331,149)"/>
<path d="M0,0 L3,0 L3,10 L-11,14 L-14,14 L-14,5 L-4,1 Z " fill="#AC5420" transform="translate(175,149)"/>
<path d="M0,0 L9,2 L13,6 L12,9 L11,7 L2,7 L-4,10 L-8,15 L-11,19 L-12,17 L-12,10 L-8,4 L-4,1 Z " fill="#AF551F" transform="translate(233,157)"/>
<path d="M0,0 L10,0 L15,3 L19,10 L19,16 L17,16 L16,18 L13,12 L7,7 L5,6 L-4,5 L-5,7 L-4,3 Z " fill="#AD531E" transform="translate(270,158)"/>
<path d="M0,0 L3,0 L3,51 L0,51 Z " fill="#944213" transform="translate(116,286)"/>
<path d="M0,0 L3,0 L3,9 L-11,16 L-13,16 L-13,8 L-4,2 Z " fill="#A6511E" transform="translate(148,159)"/>
<path d="M0,0 L1,0 L1,44 L-11,41 L-7,34 L-2,28 L0,28 Z " fill="#DC7A3F" transform="translate(156,309)"/>
<path d="M0,0 L9,3 L16,7 L16,16 L0,9 Z " fill="#A3501F" transform="translate(358,159)"/>
<path d="M0,0 L3,1 L3,36 L-1,37 L-1,1 Z " fill="#9A4513" transform="translate(104,209)"/>
<path d="M0,0 L8,0 L8,59 L5,59 L6,1 L0,1 Z " fill="#DF7534" transform="translate(332,300)"/>
<path d="M0,0 L2,0 L2,6 L1,6 L0,61 L25,61 L25,47 L26,47 L26,62 L-1,63 L-2,1 Z " fill="#DA6119" transform="translate(221,176)"/>
<path d="M0,0 L1,0 L2,9 L2,35 L-7,35 L-9,33 L-4,32 L-2,27 Z " fill="#D87538" transform="translate(370,207)"/>
<path d="M0,0 L5,4 L11,13 L8,15 L0,16 Z " fill="#DA6925" transform="translate(353,336)"/>
<path d="M0,0 L5,2 L12,8 L12,15 L7,13 L0,8 Z " fill="#9B4A1A" transform="translate(376,168)"/>
<path d="M0,0 L1,0 L1,9 L-9,15 L-11,15 L-11,8 Z " fill="#A05020" transform="translate(132,168)"/>
<path d="M0,0 L1,0 L2,23 L2,57 L1,57 L0,51 L-1,51 Z " fill="#F2D5C4" transform="translate(101,189)"/>
<path d="M0,0 L7,6 L9,10 L11,10 L16,19 L15,22 L9,15 L0,8 Z " fill="#A45424" transform="translate(389,177)"/>
<path d="M0,0 L1,0 L3,46 L2,49 L10,49 L10,50 L0,50 Z " fill="#D16524" transform="translate(138,191)"/>
<path d="M0,0 L4,1 L4,58 L3,58 L3,2 L0,4 L-4,3 Z " fill="#F7E4D8" transform="translate(321,182)"/>
<path d="M0,0 L0,3 L-25,28 L-27,27 L-12,11 Z " fill="#DE7331" transform="translate(99,74)"/>
<path d="M0,0 L7,3 L7,12 L0,10 Z " fill="#A54F1D" transform="translate(350,155)"/>
<path d="M0,0 L7,6 L9,9 L5,7 L0,2 Z " fill="#FFFFFF" transform="translate(69,433)"/>
<path d="M0,0 L0,3 L-6,9 L-8,8 Z " fill="#FFFFFF" transform="translate(442,433)"/>
<path d="M0,0 L4,2 L9,7 L8,9 L0,1 Z " fill="#FFFFFF" transform="translate(434,70)"/>
<path d="M0,0 L2,1 L-6,9 L-6,6 Z " fill="#FFFFFF" transform="translate(76,70)"/>
<path d="M0,0 L6,0 L6,1 L0,1 Z " fill="#FFFFFF" transform="translate(290,511)"/>
<path d="M0,0 L6,0 L6,1 L0,1 Z " fill="#FFFFFF" transform="translate(216,511)"/>
<path d="M0,0 L6,0 L6,1 L0,1 Z " fill="#FFFFFF" transform="translate(296,510)"/>
<path d="M0,0 L6,0 L6,1 L0,1 Z " fill="#FFFFFF" transform="translate(210,510)"/>
<path d="M0,0 L1,0 L1,6 L0,6 Z " fill="#FFFFFF" transform="translate(510,296)"/>
<path d="M0,0 L1,0 L1,6 L0,6 Z " fill="#FFFFFF" transform="translate(1,296)"/>
<path d="M0,0 L1,0 L1,6 L0,6 Z " fill="#FFFFFF" transform="translate(510,210)"/>
<path d="M0,0 L1,0 L1,6 L0,6 Z " fill="#FFFFFF" transform="translate(1,210)"/>
<path d="M0,0 L6,0 L6,1 L0,1 Z " fill="#FFFFFF" transform="translate(296,1)"/>
<path d="M0,0 L6,0 L6,1 L0,1 Z " fill="#FFFFFF" transform="translate(210,1)"/>
<path d="M0,0 L6,0 L6,1 L0,1 Z " fill="#FFFFFF" transform="translate(290,0)"/>
<path d="M0,0 L6,0 L6,1 L0,1 Z " fill="#FFFFFF" transform="translate(216,0)"/>
<path d="M0,0 L5,0 L5,1 L0,1 Z " fill="#FFFFFF" transform="translate(302,509)"/>
<path d="M0,0 L5,0 L5,1 L0,1 Z " fill="#FFFFFF" transform="translate(205,509)"/>
<path d="M0,0 L1,0 L1,5 L0,5 Z " fill="#FFFFFF" transform="translate(508,307)"/>
<path d="M0,0 L1,0 L1,5 L0,5 Z " fill="#FFFFFF" transform="translate(3,307)"/>
<path d="M0,0 L1,0 L1,5 L0,5 Z " fill="#FFFFFF" transform="translate(509,302)"/>
<path d="M0,0 L1,0 L1,5 L0,5 Z " fill="#FFFFFF" transform="translate(2,302)"/>
<path d="M0,0 L1,0 L1,5 L0,5 Z " fill="#FFFFFF" transform="translate(509,205)"/>
<path d="M0,0 L1,0 L1,5 L0,5 Z " fill="#FFFFFF" transform="translate(2,205)"/>
<path d="M0,0 L1,0 L1,5 L0,5 Z " fill="#FFFFFF" transform="translate(508,200)"/>
<path d="M0,0 L1,0 L1,5 L0,5 Z " fill="#FFFFFF" transform="translate(3,200)"/>
<path d="M0,0 L5,0 L5,1 L0,1 Z " fill="#FFFFFF" transform="translate(302,2)"/>
<path d="M0,0 L5,0 L5,1 L0,1 Z " fill="#FFFFFF" transform="translate(205,2)"/>
<path d="M0,0 L4,1 Z " fill="#FFFFFF" transform="translate(308,508)"/>
<path d="M0,0 L4,1 Z " fill="#FFFFFF" transform="translate(200,508)"/>
<path d="M0,0 L4,1 Z " fill="#FFFFFF" transform="translate(312,507)"/>
<path d="M0,0 L4,1 Z " fill="#FFFFFF" transform="translate(196,507)"/>
<path d="M0,0 L4,1 Z " fill="#FFFFFF" transform="translate(316,506)"/>
<path d="M0,0 L4,1 Z " fill="#FFFFFF" transform="translate(192,506)"/>
<path d="M0,0 L4,1 Z " fill="#FFFFFF" transform="translate(320,505)"/>
<path d="M0,0 L4,1 Z " fill="#FFFFFF" transform="translate(188,505)"/>
<path d="M0,0 L4,1 Z " fill="#FFFFFF" transform="translate(324,504)"/>
<path d="M0,0 L4,1 Z " fill="#FFFFFF" transform="translate(184,504)"/>
<path d="M0,0 L1,4 Z " fill="#FFFFFF" transform="translate(504,324)"/>
<path d="M0,0 L1,4 Z " fill="#FFFFFF" transform="translate(7,324)"/>
<path d="M0,0 L1,4 Z " fill="#FFFFFF" transform="translate(505,320)"/>
<path d="M0,0 L1,4 Z " fill="#FFFFFF" transform="translate(6,320)"/>
<path d="M0,0 L1,4 Z " fill="#FFFFFF" transform="translate(507,312)"/>
<path d="M0,0 L1,4 Z " fill="#FFFFFF" transform="translate(4,312)"/>
<path d="M0,0 L1,4 Z " fill="#FFFFFF" transform="translate(507,196)"/>
<path d="M0,0 L1,4 Z " fill="#FFFFFF" transform="translate(4,196)"/>
<path d="M0,0 L1,4 Z " fill="#FFFFFF" transform="translate(505,188)"/>
<path d="M0,0 L1,4 Z " fill="#FFFFFF" transform="translate(6,188)"/>
<path d="M0,0 L1,4 Z " fill="#FFFFFF" transform="translate(7,184)"/>
<path d="M0,0 L4,1 Z " fill="#FFFFFF" transform="translate(324,7)"/>
<path d="M0,0 L4,1 Z " fill="#FFFFFF" transform="translate(184,7)"/>
<path d="M0,0 L4,1 Z " fill="#FFFFFF" transform="translate(320,6)"/>
<path d="M0,0 L4,1 Z " fill="#FFFFFF" transform="translate(188,6)"/>
<path d="M0,0 L4,1 Z " fill="#FFFFFF" transform="translate(316,5)"/>
<path d="M0,0 L4,1 Z " fill="#FFFFFF" transform="translate(192,5)"/>
<path d="M0,0 L4,1 Z " fill="#FFFFFF" transform="translate(312,4)"/>
<path d="M0,0 L4,1 Z " fill="#FFFFFF" transform="translate(196,4)"/>
<path d="M0,0 L4,1 Z " fill="#FFFFFF" transform="translate(308,3)"/>
<path d="M0,0 L4,1 Z " fill="#FFFFFF" transform="translate(200,3)"/>
<path d="M0,0 L3,1 Z " fill="#FFFFFF" transform="translate(328,503)"/>
<path d="M0,0 L3,1 Z " fill="#FFFFFF" transform="translate(181,503)"/>
<path d="M0,0 L3,1 Z " fill="#FFFFFF" transform="translate(331,502)"/>
<path d="M0,0 L3,1 Z " fill="#FFFFFF" transform="translate(178,502)"/>
<path d="M0,0 L3,1 Z " fill="#FFFFFF" transform="translate(334,501)"/>
<path d="M0,0 L3,1 Z " fill="#FFFFFF" transform="translate(175,501)"/>
<path d="M0,0 L3,1 Z " fill="#FFFFFF" transform="translate(337,500)"/>
<path d="M0,0 L3,1 Z " fill="#FFFFFF" transform="translate(172,500)"/>
<path d="M0,0 L3,1 Z " fill="#FFFFFF" transform="translate(340,499)"/>
<path d="M0,0 L3,1 Z " fill="#FFFFFF" transform="translate(169,499)"/>
<path d="M0,0 L3,1 Z " fill="#FFFFFF" transform="translate(343,498)"/>
<path d="M0,0 L3,1 Z " fill="#FFFFFF" transform="translate(166,498)"/>
<path d="M0,0 L3,1 Z " fill="#FFFFFF" transform="translate(348,496)"/>
<path d="M0,0 L3,1 Z " fill="#FFFFFF" transform="translate(161,496)"/>
<path d="M0,0 L3,1 Z " fill="#FFFFFF" transform="translate(353,494)"/>
<path d="M0,0 L3,1 Z " fill="#FFFFFF" transform="translate(156,494)"/>
<path d="M0,0 L3,1 Z " fill="#FFFFFF" transform="translate(360,491)"/>
<path d="M0,0 L3,1 Z " fill="#FFFFFF" transform="translate(149,491)"/>
<path d="M0,0 Z " fill="#FFFFFF" transform="translate(496,348)"/>
<path d="M0,0 Z " fill="#FFFFFF" transform="translate(15,348)"/>
<path d="M0,0 Z " fill="#FFFFFF" transform="translate(498,343)"/>
<path d="M0,0 Z " fill="#FFFFFF" transform="translate(13,343)"/>
<path d="M0,0 Z " fill="#FFFFFF" transform="translate(499,340)"/>
<path d="M0,0 Z " fill="#FFFFFF" transform="translate(12,340)"/>
<path d="M0,0 Z " fill="#FFFFFF" transform="translate(503,328)"/>
<path d="M0,0 Z " fill="#FFFFFF" transform="translate(8,328)"/>
<path d="M0,0 Z " fill="#FFFFFF" transform="translate(8,181)"/>
<path d="M0,0 Z " fill="#FFFFFF" transform="translate(499,169)"/>
<path d="M0,0 Z " fill="#FFFFFF" transform="translate(12,169)"/>
<path d="M0,0 Z " fill="#FFFFFF" transform="translate(498,166)"/>
<path d="M0,0 Z " fill="#FFFFFF" transform="translate(13,166)"/>
<path d="M0,0 Z " fill="#FFFFFF" transform="translate(496,161)"/>
<path d="M0,0 Z " fill="#FFFFFF" transform="translate(15,161)"/>
<path d="M0,0 L3,1 Z " fill="#FFFFFF" transform="translate(360,20)"/>
<path d="M0,0 L3,1 Z " fill="#FFFFFF" transform="translate(149,20)"/>
<path d="M0,0 L3,1 Z " fill="#FFFFFF" transform="translate(353,17)"/>
<path d="M0,0 L3,1 Z " fill="#FFFFFF" transform="translate(156,17)"/>
<path d="M0,0 L3,1 Z " fill="#FFFFFF" transform="translate(348,15)"/>
<path d="M0,0 L3,1 Z " fill="#FFFFFF" transform="translate(161,15)"/>
<path d="M0,0 L3,1 Z " fill="#FFFFFF" transform="translate(343,13)"/>
<path d="M0,0 L3,1 Z " fill="#FFFFFF" transform="translate(166,13)"/>
<path d="M0,0 L3,1 Z " fill="#FFFFFF" transform="translate(340,12)"/>
<path d="M0,0 L3,1 Z " fill="#FFFFFF" transform="translate(169,12)"/>
<path d="M0,0 L3,1 Z " fill="#FFFFFF" transform="translate(337,11)"/>
<path d="M0,0 L3,1 Z " fill="#FFFFFF" transform="translate(172,11)"/>
<path d="M0,0 L3,1 Z " fill="#FFFFFF" transform="translate(334,10)"/>
<path d="M0,0 L3,1 Z " fill="#FFFFFF" transform="translate(175,10)"/>
<path d="M0,0 L3,1 Z " fill="#FFFFFF" transform="translate(331,9)"/>
<path d="M0,0 L3,1 Z " fill="#FFFFFF" transform="translate(178,9)"/>
<path d="M0,0 L3,1 Z " fill="#FFFFFF" transform="translate(328,8)"/>
<path d="M0,0 L3,1 Z " fill="#FFFFFF" transform="translate(181,8)"/>
<path d="M0,0 L2,1 Z " fill="#FFFFFF" transform="translate(346,497)"/>
<path d="M0,0 L2,1 Z " fill="#FFFFFF" transform="translate(164,497)"/>
<path d="M0,0 L2,1 Z " fill="#FFFFFF" transform="translate(351,495)"/>
<path d="M0,0 L2,1 Z " fill="#FFFFFF" transform="translate(159,495)"/>
<path d="M0,0 L2,1 Z " fill="#FFFFFF" transform="translate(356,493)"/>
<path d="M0,0 L2,1 Z " fill="#FFFFFF" transform="translate(154,493)"/>
<path d="M0,0 L2,1 Z " fill="#FFFFFF" transform="translate(358,492)"/>
<path d="M0,0 L2,1 Z " fill="#FFFFFF" transform="translate(152,492)"/>
<path d="M0,0 L2,1 Z " fill="#FFFFFF" transform="translate(363,490)"/>
<path d="M0,0 L2,1 Z " fill="#FFFFFF" transform="translate(147,490)"/>
<path d="M0,0 L2,1 Z " fill="#FFFFFF" transform="translate(365,489)"/>
<path d="M0,0 L2,1 Z " fill="#FFFFFF" transform="translate(145,489)"/>
<path d="M0,0 L2,1 Z " fill="#FFFFFF" transform="translate(367,488)"/>
<path d="M0,0 L2,1 Z " fill="#FFFFFF" transform="translate(143,488)"/>
<path d="M0,0 L2,1 Z " fill="#FFFFFF" transform="translate(369,487)"/>
<path d="M0,0 L2,1 Z " fill="#FFFFFF" transform="translate(141,487)"/>
<path d="M0,0 L2,1 Z " fill="#FFFFFF" transform="translate(371,486)"/>
<path d="M0,0 L2,1 Z " fill="#FFFFFF" transform="translate(139,486)"/>
<path d="M0,0 L2,1 Z " fill="#FFFFFF" transform="translate(373,485)"/>
<path d="M0,0 L2,1 Z " fill="#FFFFFF" transform="translate(137,485)"/>
<path d="M0,0 L2,1 Z " fill="#FFFFFF" transform="translate(375,484)"/>
<path d="M0,0 L2,1 Z " fill="#FFFFFF" transform="translate(135,484)"/>
<path d="M0,0 L2,1 Z " fill="#FFFFFF" transform="translate(377,483)"/>
<path d="M0,0 L2,1 Z " fill="#FFFFFF" transform="translate(133,483)"/>
<path d="M0,0 L2,1 Z " fill="#FFFFFF" transform="translate(380,481)"/>
<path d="M0,0 L2,1 Z " fill="#FFFFFF" transform="translate(130,481)"/>
<path d="M0,0 L2,1 Z " fill="#FFFFFF" transform="translate(382,480)"/>
<path d="M0,0 L2,1 Z " fill="#FFFFFF" transform="translate(128,480)"/>
<path d="M0,0 L2,1 Z " fill="#FFFFFF" transform="translate(384,479)"/>
<path d="M0,0 L2,1 Z " fill="#FFFFFF" transform="translate(126,479)"/>
<path d="M0,0 L2,1 Z " fill="#FFFFFF" transform="translate(387,477)"/>
<path d="M0,0 L2,1 Z " fill="#FFFFFF" transform="translate(123,477)"/>
<path d="M0,0 L2,1 Z " fill="#FFFFFF" transform="translate(389,476)"/>
<path d="M0,0 L2,1 Z " fill="#FFFFFF" transform="translate(121,476)"/>
<path d="M0,0 L2,1 Z " fill="#FFFFFF" transform="translate(392,474)"/>
<path d="M0,0 L2,1 Z " fill="#FFFFFF" transform="translate(118,474)"/>
<path d="M0,0 L2,1 Z " fill="#FFFFFF" transform="translate(395,472)"/>
<path d="M0,0 L2,1 Z " fill="#FFFFFF" transform="translate(115,472)"/>
<path d="M0,0 L2,1 Z " fill="#FFFFFF" transform="translate(398,470)"/>
<path d="M0,0 L2,1 Z " fill="#FFFFFF" transform="translate(112,470)"/>
<path d="M0,0 L2,1 Z " fill="#FFFFFF" transform="translate(401,468)"/>
<path d="M0,0 L2,1 Z " fill="#FFFFFF" transform="translate(109,468)"/>
<path d="M0,0 L2,1 Z " fill="#FFFFFF" transform="translate(404,466)"/>
<path d="M0,0 L2,1 Z " fill="#FFFFFF" transform="translate(106,466)"/>
<path d="M0,0 L2,1 Z " fill="#FFFFFF" transform="translate(408,463)"/>
<path d="M0,0 L2,1 Z " fill="#FFFFFF" transform="translate(102,463)"/>
<path d="M0,0 L2,1 Z " fill="#FFFFFF" transform="translate(412,460)"/>
<path d="M0,0 L2,1 Z " fill="#FFFFFF" transform="translate(98,460)"/>
<path d="M0,0 L2,1 Z " fill="#FFFFFF" transform="translate(417,456)"/>
<path d="M0,0 L2,1 Z " fill="#FFFFFF" transform="translate(93,456)"/>
<path d="M0,0 Z " fill="#FFFFFF" transform="translate(481,380)"/>
<path d="M0,0 Z " fill="#FFFFFF" transform="translate(30,380)"/>
<path d="M0,0 Z " fill="#FFFFFF" transform="translate(495,351)"/>
<path d="M0,0 Z " fill="#FFFFFF" transform="translate(16,351)"/>
<path d="M0,0 Z " fill="#FFFFFF" transform="translate(497,346)"/>
<path d="M0,0 Z " fill="#FFFFFF" transform="translate(14,346)"/>
<path d="M0,0 Z " fill="#FFFFFF" transform="translate(497,164)"/>
<path d="M0,0 Z " fill="#FFFFFF" transform="translate(14,164)"/>
<path d="M0,0 Z " fill="#FFFFFF" transform="translate(495,159)"/>
<path d="M0,0 Z " fill="#FFFFFF" transform="translate(16,159)"/>
<path d="M0,0 Z " fill="#FFFFFF" transform="translate(481,130)"/>
<path d="M0,0 Z " fill="#FFFFFF" transform="translate(30,130)"/>
<path d="M0,0 L2,1 Z " fill="#FFFFFF" transform="translate(417,55)"/>
<path d="M0,0 L2,1 Z " fill="#FFFFFF" transform="translate(93,55)"/>
<path d="M0,0 L2,1 Z " fill="#FFFFFF" transform="translate(412,51)"/>
<path d="M0,0 L2,1 Z " fill="#FFFFFF" transform="translate(98,51)"/>
<path d="M0,0 L2,1 Z " fill="#FFFFFF" transform="translate(408,48)"/>
<path d="M0,0 L2,1 Z " fill="#FFFFFF" transform="translate(102,48)"/>
<path d="M0,0 L2,1 Z " fill="#FFFFFF" transform="translate(404,45)"/>
<path d="M0,0 L2,1 Z " fill="#FFFFFF" transform="translate(106,45)"/>
<path d="M0,0 L2,1 Z " fill="#FFFFFF" transform="translate(401,43)"/>
<path d="M0,0 L2,1 Z " fill="#FFFFFF" transform="translate(109,43)"/>
<path d="M0,0 L2,1 Z " fill="#FFFFFF" transform="translate(398,41)"/>
<path d="M0,0 L2,1 Z " fill="#FFFFFF" transform="translate(112,41)"/>
<path d="M0,0 L2,1 Z " fill="#FFFFFF" transform="translate(395,39)"/>
<path d="M0,0 L2,1 Z " fill="#FFFFFF" transform="translate(115,39)"/>
<path d="M0,0 L2,1 Z " fill="#FFFFFF" transform="translate(392,37)"/>
<path d="M0,0 L2,1 Z " fill="#FFFFFF" transform="translate(118,37)"/>
<path d="M0,0 L2,1 Z " fill="#FFFFFF" transform="translate(389,35)"/>
<path d="M0,0 L2,1 Z " fill="#FFFFFF" transform="translate(121,35)"/>
<path d="M0,0 L2,1 Z " fill="#FFFFFF" transform="translate(387,34)"/>
<path d="M0,0 L2,1 Z " fill="#FFFFFF" transform="translate(123,34)"/>
<path d="M0,0 L2,1 Z " fill="#FFFFFF" transform="translate(384,32)"/>
<path d="M0,0 L2,1 Z " fill="#FFFFFF" transform="translate(126,32)"/>
<path d="M0,0 L2,1 Z " fill="#FFFFFF" transform="translate(382,31)"/>
<path d="M0,0 L2,1 Z " fill="#FFFFFF" transform="translate(128,31)"/>
<path d="M0,0 L2,1 Z " fill="#FFFFFF" transform="translate(380,30)"/>
<path d="M0,0 L2,1 Z " fill="#FFFFFF" transform="translate(130,30)"/>
<path d="M0,0 L2,1 Z " fill="#FFFFFF" transform="translate(377,28)"/>
<path d="M0,0 L2,1 Z " fill="#FFFFFF" transform="translate(133,28)"/>
<path d="M0,0 L2,1 Z " fill="#FFFFFF" transform="translate(375,27)"/>
<path d="M0,0 L2,1 Z " fill="#FFFFFF" transform="translate(135,27)"/>
<path d="M0,0 L2,1 Z " fill="#FFFFFF" transform="translate(373,26)"/>
<path d="M0,0 L2,1 Z " fill="#FFFFFF" transform="translate(137,26)"/>
<path d="M0,0 L2,1 Z " fill="#FFFFFF" transform="translate(371,25)"/>
<path d="M0,0 L2,1 Z " fill="#FFFFFF" transform="translate(139,25)"/>
<path d="M0,0 L2,1 Z " fill="#FFFFFF" transform="translate(369,24)"/>
<path d="M0,0 L2,1 Z " fill="#FFFFFF" transform="translate(141,24)"/>
<path d="M0,0 L2,1 Z " fill="#FFFFFF" transform="translate(367,23)"/>
<path d="M0,0 L2,1 Z " fill="#FFFFFF" transform="translate(143,23)"/>
<path d="M0,0 L2,1 Z " fill="#FFFFFF" transform="translate(365,22)"/>
<path d="M0,0 L2,1 Z " fill="#FFFFFF" transform="translate(145,22)"/>
<path d="M0,0 L2,1 Z " fill="#FFFFFF" transform="translate(363,21)"/>
<path d="M0,0 L2,1 Z " fill="#FFFFFF" transform="translate(147,21)"/>
<path d="M0,0 L2,1 Z " fill="#FFFFFF" transform="translate(358,19)"/>
<path d="M0,0 L2,1 Z " fill="#FFFFFF" transform="translate(152,19)"/>
<path d="M0,0 L2,1 Z " fill="#FFFFFF" transform="translate(356,18)"/>
<path d="M0,0 L2,1 Z " fill="#FFFFFF" transform="translate(154,18)"/>
<path d="M0,0 L2,1 Z " fill="#FFFFFF" transform="translate(351,16)"/>
<path d="M0,0 L2,1 Z " fill="#FFFFFF" transform="translate(159,16)"/>
<path d="M0,0 L2,1 Z " fill="#FFFFFF" transform="translate(346,14)"/>
<path d="M0,0 L2,1 Z " fill="#FFFFFF" transform="translate(164,14)"/>
<path d="M0,0 Z " fill="#FFFFFF" transform="translate(379,482)"/>
<path d="M0,0 Z " fill="#FFFFFF" transform="translate(132,482)"/>
<path d="M0,0 Z " fill="#FFFFFF" transform="translate(386,478)"/>
<path d="M0,0 Z " fill="#FFFFFF" transform="translate(125,478)"/>
<path d="M0,0 Z " fill="#FFFFFF" transform="translate(391,475)"/>
<path d="M0,0 Z " fill="#FFFFFF" transform="translate(120,475)"/>
<path d="M0,0 Z " fill="#FFFFFF" transform="translate(394,473)"/>
<path d="M0,0 Z " fill="#FFFFFF" transform="translate(117,473)"/>
<path d="M0,0 Z " fill="#FFFFFF" transform="translate(397,471)"/>
<path d="M0,0 Z " fill="#FFFFFF" transform="translate(114,471)"/>
<path d="M0,0 Z " fill="#FFFFFF" transform="translate(400,469)"/>
<path d="M0,0 Z " fill="#FFFFFF" transform="translate(111,469)"/>
<path d="M0,0 Z " fill="#FFFFFF" transform="translate(403,467)"/>
<path d="M0,0 Z " fill="#FFFFFF" transform="translate(108,467)"/>
<path d="M0,0 Z " fill="#FFFFFF" transform="translate(406,465)"/>
<path d="M0,0 Z " fill="#FFFFFF" transform="translate(105,465)"/>
<path d="M0,0 Z " fill="#FFFFFF" transform="translate(407,464)"/>
<path d="M0,0 Z " fill="#FFFFFF" transform="translate(104,464)"/>
<path d="M0,0 Z " fill="#FFFFFF" transform="translate(410,462)"/>
<path d="M0,0 Z " fill="#FFFFFF" transform="translate(101,462)"/>
<path d="M0,0 Z " fill="#FFFFFF" transform="translate(411,461)"/>
<path d="M0,0 Z " fill="#FFFFFF" transform="translate(100,461)"/>
<path d="M0,0 Z " fill="#FFFFFF" transform="translate(414,459)"/>
<path d="M0,0 Z " fill="#FFFFFF" transform="translate(97,459)"/>
<path d="M0,0 Z " fill="#FFFFFF" transform="translate(415,458)"/>
<path d="M0,0 Z " fill="#FFFFFF" transform="translate(96,458)"/>
<path d="M0,0 Z " fill="#FFFFFF" transform="translate(416,457)"/>
<path d="M0,0 Z " fill="#FFFFFF" transform="translate(95,457)"/>
<path d="M0,0 Z " fill="#FFFFFF" transform="translate(419,455)"/>
<path d="M0,0 Z " fill="#FFFFFF" transform="translate(92,455)"/>
<path d="M0,0 Z " fill="#FFFFFF" transform="translate(420,454)"/>
<path d="M0,0 Z " fill="#FFFFFF" transform="translate(91,454)"/>
<path d="M0,0 Z " fill="#FFFFFF" transform="translate(421,453)"/>
<path d="M0,0 Z " fill="#FFFFFF" transform="translate(90,453)"/>
<path d="M0,0 Z " fill="#FFFFFF" transform="translate(422,452)"/>
<path d="M0,0 Z " fill="#FFFFFF" transform="translate(89,452)"/>
<path d="M0,0 Z " fill="#FFFFFF" transform="translate(426,449)"/>
<path d="M0,0 Z " fill="#FFFFFF" transform="translate(85,449)"/>
<path d="M0,0 Z " fill="#FFFFFF" transform="translate(427,448)"/>
<path d="M0,0 Z " fill="#FFFFFF" transform="translate(84,448)"/>
<path d="M0,0 Z " fill="#FFFFFF" transform="translate(428,447)"/>
<path d="M0,0 Z " fill="#FFFFFF" transform="translate(83,447)"/>
<path d="M0,0 Z " fill="#FFFFFF" transform="translate(429,446)"/>
<path d="M0,0 Z " fill="#FFFFFF" transform="translate(82,446)"/>
<path d="M0,0 Z " fill="#FFFFFF" transform="translate(430,445)"/>
<path d="M0,0 Z " fill="#FFFFFF" transform="translate(81,445)"/>
<path d="M0,0 Z " fill="#FFFFFF" transform="translate(431,444)"/>
<path d="M0,0 Z " fill="#FFFFFF" transform="translate(80,444)"/>
<path d="M0,0 Z " fill="#FFFFFF" transform="translate(432,443)"/>
<path d="M0,0 Z " fill="#FFFFFF" transform="translate(79,443)"/>
<path d="M0,0 Z " fill="#FFFFFF" transform="translate(433,442)"/>
<path d="M0,0 Z " fill="#FFFFFF" transform="translate(78,442)"/>
<path d="M0,0 Z " fill="#FFFFFF" transform="translate(443,432)"/>
<path d="M0,0 Z " fill="#FFFFFF" transform="translate(68,432)"/>
<path d="M0,0 Z " fill="#FFFFFF" transform="translate(444,431)"/>
<path d="M0,0 Z " fill="#FFFFFF" transform="translate(67,431)"/>
<path d="M0,0 Z " fill="#FFFFFF" transform="translate(445,430)"/>
<path d="M0,0 Z " fill="#FFFFFF" transform="translate(66,430)"/>
<path d="M0,0 Z " fill="#FFFFFF" transform="translate(446,429)"/>
<path d="M0,0 Z " fill="#FFFFFF" transform="translate(65,429)"/>
<path d="M0,0 Z " fill="#FFFFFF" transform="translate(447,428)"/>
<path d="M0,0 Z " fill="#FFFFFF" transform="translate(64,428)"/>
<path d="M0,0 Z " fill="#FFFFFF" transform="translate(448,427)"/>
<path d="M0,0 Z " fill="#FFFFFF" transform="translate(63,427)"/>
<path d="M0,0 Z " fill="#FFFFFF" transform="translate(452,422)"/>
<path d="M0,0 Z " fill="#FFFFFF" transform="translate(59,422)"/>
<path d="M0,0 Z " fill="#FFFFFF" transform="translate(453,421)"/>
<path d="M0,0 Z " fill="#FFFFFF" transform="translate(58,421)"/>
<path d="M0,0 Z " fill="#FFFFFF" transform="translate(454,420)"/>
<path d="M0,0 Z " fill="#FFFFFF" transform="translate(57,420)"/>
<path d="M0,0 Z " fill="#FFFFFF" transform="translate(457,416)"/>
<path d="M0,0 Z " fill="#FFFFFF" transform="translate(54,416)"/>
<path d="M0,0 Z " fill="#FFFFFF" transform="translate(458,415)"/>
<path d="M0,0 Z " fill="#FFFFFF" transform="translate(53,415)"/>
<path d="M0,0 Z " fill="#FFFFFF" transform="translate(461,411)"/>
<path d="M0,0 Z " fill="#FFFFFF" transform="translate(50,411)"/>
<path d="M0,0 Z " fill="#FFFFFF" transform="translate(464,407)"/>
<path d="M0,0 Z " fill="#FFFFFF" transform="translate(47,407)"/>
<path d="M0,0 Z " fill="#FFFFFF" transform="translate(464,104)"/>
<path d="M0,0 Z " fill="#FFFFFF" transform="translate(47,104)"/>
<path d="M0,0 Z " fill="#FFFFFF" transform="translate(461,100)"/>
<path d="M0,0 Z " fill="#FFFFFF" transform="translate(50,100)"/>
<path d="M0,0 Z " fill="#FFFFFF" transform="translate(458,96)"/>
<path d="M0,0 Z " fill="#FFFFFF" transform="translate(53,96)"/>
<path d="M0,0 Z " fill="#FFFFFF" transform="translate(457,95)"/>
<path d="M0,0 Z " fill="#FFFFFF" transform="translate(54,95)"/>
<path d="M0,0 Z " fill="#FFFFFF" transform="translate(454,91)"/>
<path d="M0,0 Z " fill="#FFFFFF" transform="translate(57,91)"/>
<path d="M0,0 Z " fill="#FFFFFF" transform="translate(453,90)"/>
<path d="M0,0 Z " fill="#FFFFFF" transform="translate(58,90)"/>
<path d="M0,0 Z " fill="#FFFFFF" transform="translate(452,89)"/>
<path d="M0,0 Z " fill="#FFFFFF" transform="translate(59,89)"/>
<path d="M0,0 Z " fill="#FFFFFF" transform="translate(448,84)"/>
<path d="M0,0 Z " fill="#FFFFFF" transform="translate(63,84)"/>
<path d="M0,0 Z " fill="#FFFFFF" transform="translate(447,83)"/>
<path d="M0,0 Z " fill="#FFFFFF" transform="translate(64,83)"/>
<path d="M0,0 Z " fill="#FFFFFF" transform="translate(446,82)"/>
<path d="M0,0 Z " fill="#FFFFFF" transform="translate(65,82)"/>
<path d="M0,0 Z " fill="#FFFFFF" transform="translate(445,81)"/>
<path d="M0,0 Z " fill="#FFFFFF" transform="translate(66,81)"/>
<path d="M0,0 Z " fill="#FFFFFF" transform="translate(444,80)"/>
<path d="M0,0 Z " fill="#FFFFFF" transform="translate(67,80)"/>
<path d="M0,0 Z " fill="#FFFFFF" transform="translate(443,79)"/>
<path d="M0,0 Z " fill="#FFFFFF" transform="translate(68,79)"/>
<path d="M0,0 Z " fill="#FFFFFF" transform="translate(433,69)"/>
<path d="M0,0 Z " fill="#FFFFFF" transform="translate(78,69)"/>
<path d="M0,0 Z " fill="#FFFFFF" transform="translate(432,68)"/>
<path d="M0,0 Z " fill="#FFFFFF" transform="translate(79,68)"/>
<path d="M0,0 Z " fill="#FFFFFF" transform="translate(431,67)"/>
<path d="M0,0 Z " fill="#FFFFFF" transform="translate(80,67)"/>
<path d="M0,0 Z " fill="#FFFFFF" transform="translate(430,66)"/>
<path d="M0,0 Z " fill="#FFFFFF" transform="translate(81,66)"/>
<path d="M0,0 Z " fill="#FFFFFF" transform="translate(429,65)"/>
<path d="M0,0 Z " fill="#FFFFFF" transform="translate(82,65)"/>
<path d="M0,0 Z " fill="#FFFFFF" transform="translate(428,64)"/>
<path d="M0,0 Z " fill="#FFFFFF" transform="translate(83,64)"/>
<path d="M0,0 Z " fill="#FFFFFF" transform="translate(427,63)"/>
<path d="M0,0 Z " fill="#FFFFFF" transform="translate(84,63)"/>
<path d="M0,0 Z " fill="#FFFFFF" transform="translate(426,62)"/>
<path d="M0,0 Z " fill="#FFFFFF" transform="translate(85,62)"/>
<path d="M0,0 Z " fill="#FFFFFF" transform="translate(422,59)"/>
<path d="M0,0 Z " fill="#FFFFFF" transform="translate(89,59)"/>
<path d="M0,0 Z " fill="#FFFFFF" transform="translate(421,58)"/>
<path d="M0,0 Z " fill="#FFFFFF" transform="translate(90,58)"/>
<path d="M0,0 Z " fill="#FFFFFF" transform="translate(420,57)"/>
<path d="M0,0 Z " fill="#FFFFFF" transform="translate(91,57)"/>
<path d="M0,0 Z " fill="#FFFFFF" transform="translate(419,56)"/>
<path d="M0,0 Z " fill="#FFFFFF" transform="translate(92,56)"/>
<path d="M0,0 Z " fill="#FFFFFF" transform="translate(416,54)"/>
<path d="M0,0 Z " fill="#FFFFFF" transform="translate(95,54)"/>
<path d="M0,0 Z " fill="#FFFFFF" transform="translate(415,53)"/>
<path d="M0,0 Z " fill="#FFFFFF" transform="translate(96,53)"/>
<path d="M0,0 Z " fill="#FFFFFF" transform="translate(414,52)"/>
<path d="M0,0 Z " fill="#FFFFFF" transform="translate(97,52)"/>
<path d="M0,0 Z " fill="#FFFFFF" transform="translate(411,50)"/>
<path d="M0,0 Z " fill="#FFFFFF" transform="translate(100,50)"/>
<path d="M0,0 Z " fill="#FFFFFF" transform="translate(410,49)"/>
<path d="M0,0 Z " fill="#FFFFFF" transform="translate(101,49)"/>
<path d="M0,0 Z " fill="#FFFFFF" transform="translate(407,47)"/>
<path d="M0,0 Z " fill="#FFFFFF" transform="translate(104,47)"/>
<path d="M0,0 Z " fill="#FFFFFF" transform="translate(406,46)"/>
<path d="M0,0 Z " fill="#FFFFFF" transform="translate(105,46)"/>
<path d="M0,0 Z " fill="#FFFFFF" transform="translate(403,44)"/>
<path d="M0,0 Z " fill="#FFFFFF" transform="translate(108,44)"/>
<path d="M0,0 Z " fill="#FFFFFF" transform="translate(400,42)"/>
<path d="M0,0 Z " fill="#FFFFFF" transform="translate(111,42)"/>
<path d="M0,0 Z " fill="#FFFFFF" transform="translate(397,40)"/>
<path d="M0,0 Z " fill="#FFFFFF" transform="translate(114,40)"/>
<path d="M0,0 Z " fill="#FFFFFF" transform="translate(394,38)"/>
<path d="M0,0 Z " fill="#FFFFFF" transform="translate(117,38)"/>
<path d="M0,0 Z " fill="#FFFFFF" transform="translate(391,36)"/>
<path d="M0,0 Z " fill="#FFFFFF" transform="translate(120,36)"/>
<path d="M0,0 Z " fill="#FFFFFF" transform="translate(386,33)"/>
<path d="M0,0 Z " fill="#FFFFFF" transform="translate(125,33)"/>
<path d="M0,0 Z " fill="#FFFFFF" transform="translate(379,29)"/>
<path d="M0,0 Z " fill="#FFFFFF" transform="translate(132,29)"/>
</svg>
