<?xml version="1.0" encoding="UTF-8"?>
<svg id="uuid-8d38cbde-bf7b-4318-9e23-250e3a893747" data-name="Capa 2" xmlns="http://www.w3.org/2000/svg" viewBox="0 0 1081 1081">
  <g id="uuid-b81feb17-03ec-4f5f-ac93-08e9f7a8c845" data-name="Capa 7">
    <circle cx="540.5" cy="540.5" r="540" style="fill: #dd6b26; stroke: #dd6b26; stroke-miterlimit: 10;"/>
  </g>
  <g id="uuid-6519bc21-8876-4d9a-aef7-45b676a14eb2" data-name="Capa 4">
    <g id="uuid-8276e16c-594a-4ffe-bd06-85a474712a9c" data-name="Shape">
      <g>
        <line x1="931.1" y1="369.2" x2="935.1" y2="801.2" style="fill: #fff;"/>
        <path d="m923.6,369.2c.1,14.4.3,28.8.4,43.2l.9,103.1c.4,41.5.8,83.1,1.1,124.6l1,107.8c.2,17.5-.3,35.1.5,52.6,0,.3,0,.5,0,.8,0,9.6,15.1,9.7,15,0-.1-14.4-.3-28.8-.4-43.2l-.9-103.1c-.4-41.5-.8-83.1-1.1-124.6l-1-107.8c-.2-17.5.3-35.1-.5-52.6,0-.3,0-.5,0-.8,0-9.6-15.1-9.7-15,0h0Z" style="fill: #fff;"/>
      </g>
      <g>
        <line x1="934.9" y1="703.9" x2="935.1" y2="801.2" style="fill: #fff;"/>
        <path d="m927.4,703.9c0,28.4.1,56.8.2,85.2,0,4.1,0,8.1,0,12.2,0,9.7,15,9.7,15,0,0-28.4-.1-56.8-.2-85.2,0-4.1,0-8.1,0-12.2,0-9.7-15-9.7-15,0h0Z" style="fill: #fff;"/>
      </g>
      <g>
        <line x1="145.9" y1="364.3" x2="149.2" y2="801.5" style="fill: #dd6b26;"/>
        <path d="m138.4,364.3c.1,14.5.2,29,.3,43.4.3,34.8.5,69.6.8,104.3s.6,84.2.9,126.3c.3,36.4.5,72.8.8,109.2s-.4,35.5.4,53.2,0,.5,0,.8c0,9.6,15.1,9.7,15,0-.1-14.5-.2-29-.3-43.4-.3-34.8-.5-69.6-.8-104.3s-.6-84.2-.9-126.3c-.3-36.4-.5-72.8-.8-109.2s.4-35.5-.4-53.2,0-.5,0-.8c0-9.6-15.1-9.7-15,0h0Z" style="fill: #fff;"/>
      </g>
    </g>
    <g>
      <g>
        <path d="m758.2,812.3l-71.3,10.4c25.5-2.9,49.3-6.5,71.3-10.4Z" style="fill: #fff;"/>
        <path d="m756.2,805.1c-23.8,3.5-47.5,6.9-71.3,10.4-8.3,1.2-6.4,15.7,2,14.7,24.5-2.8,48.9-6.4,73.2-10.7s5.5-16.1-4-14.5c-23,4.1-46.1,7.4-69.3,10.1l2,14.7c23.8-3.5,47.5-6.9,71.3-10.4,4-.6,6.2-5.7,5.2-9.2s-5.2-5.8-9.2-5.2Z" style="fill: #fff;"/>
      </g>
      <g>
        <path d="m397.1,822.9l-76.1-11.2c23.3,4.2,48.7,8.1,76.1,11.2Z" style="fill: #fff;"/>
        <path d="m399.1,815.6c-25.4-3.7-50.8-7.5-76.1-11.2-4-.6-8,1-9.2,5.2s1.3,8.5,5.2,9.2c25.9,4.7,52,8.5,78.1,11.5,4,.5,7.5-3.8,7.5-7.5s-3.5-7-7.5-7.5c-24.8-2.9-49.5-6.5-74.1-10.9l-4,14.5c25.4,3.7,50.8,7.5,76.1,11.2,4,.6,8-1,9.2-5.2s-1.2-8.6-5.2-9.2Z" style="fill: #fff;"/>
      </g>
      <g>
        <path d="m640.6,827.2l-71,3.5c24.8-.5,48.4-1.7,71-3.5Z" style="fill: #fff;"/>
        <path d="m640.6,819.7c-23.7,1.2-47.3,2.3-71,3.5-9.6.5-9.7,15.2,0,15,23.7-.5,47.4-1.7,71-3.5,9.6-.7,9.6-15.7,0-15-23.6,1.8-47.3,2.9-71,3.5v15c23.7-1.2,47.3-2.3,71-3.5,9.6-.5,9.7-15.5,0-15Z" style="fill: #fff;"/>
      </g>
      <g>
        <path d="m931.7,439.5c-28.8,17.9-173.5,103.9-397.9,102.4-216.9-1.4-356.1-83.4-386.3-102.1,0,0,1.4,324,1.4,324,15.3,6.2,58.6,23.1,125.7,38.3l-73.1-19.6v-158.1h.1c-2.5-46.1,16.1-84.4,36.4-84.3,20.7.1,39.4,40.2,36,87,0,0,.6,174.6.6,175,14.3,3.2,29.7,6.4,46.1,9.4l.7-156c-2.6-46.3,16.8-84.8,38-84.7,21.6.1,41.1,40.4,37.6,87.4v164.5c15.4,1.7,31.4,3.3,47.9,4.5l-1.4-157.1c-2.5-45.8,16.1-83.9,36.4-83.7,20.7.1,39.4,39.9,36,86.5l.6,157.7-71.4-3.3c28.5,2.1,58.8,3.4,90.8,3.5,11.3,0,22.3,0,33.2-.3l-1.4-161.9c-2.5-46.1,16.1-84.4,36.4-84.3,20.7.1,39.3,40.1,36,86.9l.6,155.7c15.8-1.2,31.1-2.7,45.8-4.4l-1.5-168.4c-2.5-46.1,16.1-84.4,36.4-84.3,20.7.1,39.4,40.2,36,87l.6,155.2c19.1-3.4,36.8-7,53-10.8l-1.6-182.4c-2.5-46.1,16.1-84.4,36.5-84.3,20.7.1,39.4,40.2,36,87l.6,160.3c26.3-8.3,44-15.3,52.3-18.6h0l-3.3-324.2Z" style="fill: #fff;"/>
        <path d="m928,433c-25.8,16-53,29.6-81,41.3-54.6,23-112,39.1-170.4,48.9-78.5,13.2-159.1,14.7-238,5.3-63.5-7.6-126.3-22.8-186.1-45.7s-65.5-27.9-96-46.2c-1.7-1-3.5-2.1-5.2-3.2-4.9-3-11.3.9-11.3,6.5.2,36.5.3,73,.5,109.5.3,58.2.5,116.3.8,174.5,0,13.4.1,26.7.2,40.1s2.4,6,5.5,7.2c40.6,16.5,83,28.6,125.7,38.3,9.4,2.1,13.4-11.9,4-14.5-24.4-6.5-48.7-13.1-73.1-19.6l5.5,7.2v-158.1l-7.5,7.5h.1c3.9,0,7.7-3.4,7.5-7.5-1-20.1,1.2-41.7,10.6-59.8s6.6-11.5,11.9-14.9,7.5-2.8,11.3-.7c12.9,6.9,18.3,26.1,21.2,39.3s2.4,27,2.4,40.8c-.2,42.1.3,84.3.5,126.4s.1,31,.2,46.6,2.3,6.5,5.5,7.2c15.3,3.5,30.7,6.6,46.1,9.4s9.5-2,9.5-7.2c.1-27.7.2-55.3.4-83,0-18,.2-36,.2-54,0-11.8-.6-24,.1-35.7.9-14.8,4-30.2,11.1-43.3s5.6-9.3,9.7-12.9,6.5-4.3,9.3-4.3,6.3,1.2,9.5,3.9,7.2,8,9.8,12.7c7.2,13,10.4,28.4,11.3,43.1.8,12.2-.1,24.8-.1,37.1s0,34.6,0,52c0,31.3-.5,62.6,0,93.9s0,1.2,0,1.7c0,4.4,3.5,7,7.5,7.5,15.9,1.8,31.9,3.3,47.9,4.5s7.5-3.7,7.5-7.5c-.2-26.8-.5-53.7-.7-80.5-.2-27.9-.7-55.8-.9-83.7s2.1-31.1,7.8-45.6,9.4-19.6,17.4-22.7,5.7-1,8.5.4,7,5.3,9.5,8.9c7.8,11.3,11.7,25.3,13.6,38.8s.9,29,.9,43.5.1,33.1.2,49.6.1,38.2.2,57.3-.4,23.8.1,35.6,0,1.2,0,1.8l7.5-7.5c-23.8-1.1-47.6-2.2-71.4-3.3s-9.5,14.3,0,15c41.3,3,82.6,4.1,124,3.3,4,0,7.5-3.4,7.5-7.5-.2-26.6-.5-53.3-.7-79.9-.2-27.3-.1-54.6-.7-81.9-.3-15.8.5-31.2,5.3-46.4s8-22,16.9-28,6-2.7,8.4-2.2c3.7.8,6.9,3.5,9.9,6.8,8.5,9.5,12.5,23.1,14.9,35.3,3.2,16,2.1,32.1,2.1,48.2,0,16.2.1,32.4.2,48.6.1,31.4-.2,62.9.3,94.3,0,.6,0,1.2,0,1.8,0,3.8,3.4,7.8,7.5,7.5,15.3-1.2,30.6-2.7,45.8-4.4s7.5-3.1,7.5-7.5c-.2-26.7-.5-53.5-.7-80.2-.3-29.2,0-58.5-.8-87.7s0-25.5,2.9-38.1,7.1-25.2,16-34c6-5.9,11.4-6.8,17.5-2.1,9.4,7.3,14.2,20.5,17.1,31.6,4.8,17.9,3.8,35.8,3.9,54l.2,47.6c.1,32.2-.2,64.4.4,96.5s0,1.2,0,1.8c0,5.2,4.8,8.1,9.5,7.2,17.8-3.2,35.4-6.8,53-10.8s5.5-4,5.5-7.2c-.2-27.4-.5-54.8-.7-82.2l-.8-97.9c-.2-23.5.8-48.6,14.6-68.8,2.6-3.8,6-7.5,10.2-9.4s5.6-1.1,8.2.1c10.1,4.7,15.6,18.1,18.8,28,5.4,16.6,5.9,33.2,5.5,50.5,0,2.7,0,5.5,0,8.2,0,16.3.1,32.5.2,48.8l.4,101.3v2c0,4.7,4.8,8.7,9.5,7.2,11-3.5,22-7.2,32.9-11.1,3.7-1.3,7.3-2.7,10.9-4.1s3.1-1.2,4.7-1.8,4.6-1.2,1.7-1.2c4,0,7.5-3.4,7.5-7.5-.4-36.5-.8-73-1.1-109.5-.6-58.2-1.2-116.4-1.8-174.6-.1-13.4-.3-26.7-.4-40.1s-15.1-9.7-15,0c.4,36.5.8,73,1.1,109.5.6,58.2,1.2,116.4,1.8,174.6.1,13.4.3,26.7.4,40.1l7.5-7.5c-2.8,0-6,1.9-8.6,2.9-3.8,1.5-7.7,3-11.5,4.4-11.3,4.2-22.7,8-34.1,11.6,3.2,2.4,6.3,4.8,9.5,7.2-.1-30.9-.2-61.7-.3-92.6l-.2-54.8c0-18.4,1-36.7-2.8-55-3-14.7-8.6-29.8-18.6-41.2-7.4-8.3-18.5-13.8-29.6-10.1-11.9,3.9-20,15.2-25.1,26.1-7.3,15.7-10.7,33-11.4,50.2s.2,23.8.3,35.7c.2,19.3.3,38.6.5,57.8.2,21,.4,42,.5,63.1s-.3,25.5.3,38.2c0,.6,0,1.3,0,1.9l5.5-7.2c-17.6,4-35.3,7.6-53,10.8l9.5,7.2c-.1-29.4-.2-58.7-.3-88.1,0-17.8-.1-35.7-.2-53.5,0-16.8.9-33.5-1.8-50.1-2.4-14.5-7-29.7-15.8-41.8s-15.9-17-27.6-16.2c-11.7.8-20.6,9.7-26.6,19.1-8.2,12.7-12.3,28-14.4,42.8s-1.3,30-1.2,45.1.3,35,.5,52.5l.5,61.6c.1,12.3-.3,24.8.3,37.1s0,1.3,0,1.9l7.5-7.5c-15.2,1.7-30.5,3.2-45.8,4.4l7.5,7.5c-.1-28.8-.2-57.6-.3-86.3,0-17.9-.1-35.8-.2-53.7,0-14.8,1-29.8-.7-44.5s-5.7-31-13.6-44.5-13.7-18.7-24.8-20.6c-27.3-4.8-41.1,31.3-45.4,52-3.5,16.8-3,33.7-2.9,50.8.1,16.7.3,33.5.4,50.2l.5,60.9c.1,12.4-.2,25,.3,37.4,0,.6,0,1.3,0,1.9l7.5-7.5c-41.4.8-82.7-.2-124-3.3v15c23.8,1.1,47.6,2.2,71.4,3.3,4,.2,7.5-3.6,7.5-7.5-.1-28.3-.2-56.6-.3-84.8s-.1-36.5-.2-54.8.9-26.3,0-39.2c-1.1-15.9-4.5-31.8-11.4-46.3-5-10.5-12.8-21.1-24.2-25.1-25.4-9.2-41.5,23.4-47,42.6s-5,37.2-4.9,56.1l.4,48c.2,20.2.3,40.4.5,60.6.1,12.5-.4,25.2.3,37.7s0,1.3,0,1.9l7.5-7.5c-16-1.2-31.9-2.7-47.9-4.5l7.5,7.5c0-28.4,0-56.8,0-85.2,0-30,.3-60,.4-90,0-16.7-2.4-33.9-8.7-49.4-4.7-11.7-11.4-23.7-22.5-30.5-24.5-15.1-44.5,12.1-52.1,32.4s-7.7,40.8-7.8,61.9l-.2,47c0,20.4-.2,40.9-.3,61.3,0,13.1-.6,26.3-.2,39.4s0,1.3,0,2l9.5-7.2c-15.4-2.8-30.8-5.9-46.1-9.4,1.8,2.4,3.7,4.8,5.5,7.2-.2-40.9-.3-81.8-.5-122.7,0-17.1-.4-34.1-.2-51.2s0-34.3-4.8-51.3-12.1-33.6-27-41.2-32.3,3.5-40.9,17.6c-12.6,20.9-15.9,47.2-14.8,71.1l7.5-7.5h-.1c-4.1,0-7.5,3.4-7.5,7.5v158.1c0,3.3,2.3,6.4,5.5,7.2,24.4,6.5,48.7,13.1,73.1,19.6l4-14.5c-42.7-9.7-85.1-21.9-125.7-38.3,1.8,2.4,3.7,4.8,5.5,7.2-.1-36.5-.3-73-.5-109.5-.3-58.2-.5-116.3-.8-174.5,0-13.4-.1-26.7-.2-40.1l-11.3,6.5c27.7,17.1,57.1,31.4,87.2,43.9,57.3,23.7,117.6,40,178.9,49.4,79.8,12.2,161.3,13.1,241.3,2.5,63-8.4,125.1-23.8,184.3-47,32.9-12.9,65.1-27.9,95.3-46.2s3.2-2,4.8-3c8.2-5.1.7-18.1-7.6-13Z" style="fill: #fff;"/>
      </g>
      <g>
        <path d="m882.8,782.3l-71.2,19.2c28.1-6.5,51.9-13.2,71.2-19.2Z" style="fill: #fff;"/>
        <path d="m880.8,775c-23.7,6.4-47.5,12.8-71.2,19.2-9.3,2.5-5.4,16.6,4,14.5,24-5.5,47.7-11.9,71.2-19.2s5.3-17.4-4-14.5c-23.5,7.3-47.2,13.7-71.2,19.2l4,14.5c23.7-6.4,47.5-12.8,71.2-19.2,9.3-2.5,5.4-17-4-14.5Z" style="fill: #fff;"/>
      </g>
    </g>
  </g>
  <g id="uuid-2b5cd169-567d-4ea5-91e4-8b9b7b83b389" data-name="Capa 6">
    <path d="m146.6,808.7c28.2,11.4,57.2,20.6,86.5,28.6,58.4,15.8,118.3,26.1,178.5,32.3,80.2,8.2,161.3,8.7,241.5,1.7,62-5.4,123.7-15.3,184-30.7,32.2-8.2,64.1-17.9,95-30.2,1.6-.6,3.3-1.3,4.9-2,3.7-1.5,6.4-5,5.2-9.2s-5.4-6.8-9.2-5.2c-26.8,10.9-54.3,19.7-82.1,27.4-56.2,15.5-113.7,26-171.6,32.3-79.4,8.6-159.6,9.7-239.2,3.4-63-4.9-125.6-14.7-186.9-30.1-33-8.3-65.7-18.2-97.4-30.7-1.7-.7-3.5-1.4-5.2-2.1-3.8-1.5-8.2,1.7-9.2,5.2s1.5,7.7,5.2,9.2h0Z" style="fill: #fff;"/>
    <path d="m148.6,793.8c30.3,12.3,169.9,66.2,387.4,67.1,225.1.9,370.1-55.6,399.1-67.3" style="fill: none; stroke: #fff; stroke-miterlimit: 10;"/>
  </g>
  <g id="uuid-3f59b08f-fbca-4b77-945c-87240cd8f546" data-name="Capa 2">
    <path d="m539,265.2c-183.2,0-331.7,54.2-331.7,121s148.5,121,331.7,121,331.7-54.2,331.7-121-148.5-121-331.7-121Zm.3,242.1c-166.7,0-301.8-47.9-301.8-107s135.1-107,301.8-107,301.8,47.9,301.8,107-135.1,107-301.8,107Z" style="fill: #fff; stroke: #fff; stroke-miterlimit: 10;"/>
    <g id="uuid-fe1ddb4b-ad0d-4514-9eda-e4fa85a5ab32" data-name="Capa 3">
      <g>
        <path d="m538.1,214.3c-217,0-392.9,67.2-392.9,150s175.9,150,392.9,150,392.9-67.2,392.9-150-175.9-150-392.9-150Zm16.6,292.8c-.8,0-1.5,0-2.3,0-.5,0-1,0-1.6,0-3.1,0-6.3,0-9.4,0-1.3,0-2.6,0-4,0s-.2,0-.3,0c0,0-.2,0-.3,0-200.9,0-363.8-60.3-363.8-134.6s162.9-134.6,363.8-134.6,363.8,60.3,363.8,134.6-153.4,131-346,134.4Z" style="fill: #fff;"/>
        <g>
          <path d="m538.1,206.8c-77.8,0-156.6,7.9-231.8,28.6s-58.3,18.3-85.6,32.1c-21.1,10.7-41.9,23.8-58.1,41.2-13,13.9-22.8,30.8-24.7,50s4.7,35.6,15.2,49.9c13.3,18.1,31.5,32.1,50.7,43.4,25,14.8,52.3,25.7,79.9,34.6,71.7,23,147.9,32.6,222.9,34.8,79.8,2.4,160.8-3.6,238.6-21.9,31.3-7.3,62-16.8,91.5-29.6,23.4-10.2,46.1-22.6,65.6-39.3,14.7-12.6,27.8-28.6,33.3-47.5s2.5-35.8-5.7-51.8c-9.6-18.6-25.8-33.2-42.6-45-22.4-15.7-47.6-27.2-73.2-36.8-68.1-25.4-141.7-36.6-214-41s-41.4-1.8-62.1-1.9-9.7,15,0,15c75.1,0,150.9,7.4,223.6,26.9,28.4,7.6,56.6,17.1,83.1,30.1,20.3,10,40.2,21.9,56.1,38.2,6.5,6.6,11.3,12.7,15.7,21,2.2,4.1,3,5.9,4.3,10.1s1.1,3.7,1.5,5.5.4,1.9.5,2.8c.4,2.1.1.1.3,2.2.7,8.8.2,14.2-2.4,22.3s-2.1,6-4.4,10.1-4.6,7.7-7.3,11.2c-12,15.7-30.4,28.8-48.2,39-24.3,13.8-50.5,24-77.2,32.3-69.7,21.7-143.3,30.8-216.1,32.9-76.9,2.2-154.7-3.4-229.9-20.7-30.1-6.9-59.9-15.7-88.3-27.7-22.2-9.4-44.3-20.8-62.9-36.2s-14.9-13.5-19.9-20.2-5.1-7.3-7.2-11.3-2.9-5.8-4.2-10.1c-2.5-7.9-3.1-13.6-2.1-22.3s0,0,.2-1.5.3-1.9.5-2.8c.5-2.1,1-4.2,1.7-6.2,1.3-3.9,2.2-6,4.4-10.1,9.1-16.6,24.1-29.8,40.2-40.6,21.8-14.7,46.1-25.6,70.8-34.5,66.4-23.9,137.5-34.7,207.7-38.8,19.8-1.1,39.6-1.7,59.4-1.7,9.7,0,9.7-15,0-15Z" style="fill: #fff;"/>
          <path d="m554.8,499.6c-69.4,1.2-139.4-4.1-207.2-19.7s-55.2-14.4-81.4-25.4c-19.9-8.4-39.8-18.6-56.4-32.4s-13.4-12.2-17.8-18.2-4.4-6.5-6.2-10-2.4-5.1-3.6-9.2-1.4-5.8-1.6-9.3,0-3.2,0-4.8.1-1.8.2-2.8,0-.7.1-1c.1-.9-.2,1,0-.4,1.4-7.9,3.4-13,7.4-19.5,8.8-14.5,23.4-26.4,38.3-35.8s43.2-22.6,66.2-30.4c62.1-21.1,128.1-30.5,193.4-33.9,72.2-3.7,145.3-.1,216.4,13.6,51.6,9.9,105.9,24.5,150,54.3,14.4,9.8,27.6,21.5,35.3,36.7,1.6,3.2,2.3,4.8,3.5,8.9s.9,3.4,1.2,5.1.4,2.5.2,1.1c.1,1,.2,2.1.3,3.1.1,1.7.1,3.5,0,5.2s0,1.6-.2,2.4,0,.9-.1,1.4c-.1.9.2-1,0,.4-.6,3.6-1.6,7.1-2.9,10.6s-.8,2-1.7,3.9-1.9,3.6-2.9,5.3c-2.2,3.5-4.1,6.1-6.3,8.8-5.8,6.9-12.5,13-19.7,18.4-18.5,13.8-39.7,24.1-61.2,32.4-59.9,23.2-124.6,33.9-188.4,38.7-18.3,1.4-36.6,2.2-54.9,2.5s-9.7,15.2,0,15c71.2-1.3,143.3-9.4,211.7-29.7s52.3-17.5,76.4-30.8,35.9-22.2,48.8-38.5c10.4-13.2,17.7-29.3,16.5-46.4-1.2-17.4-9.9-32.8-21.5-45.4s-33.4-27.6-52.5-37.2-51.7-21.9-78.7-29.3c-69.1-19-141.5-26.3-212.9-26.7-72.3-.4-145.5,6.3-215.7,24.4-27.7,7.1-55,16.2-80.8,28.5-19.9,9.4-39.4,21.1-55.2,36.6s-22,26.7-24.5,43.7c-2.4,16.7,2.4,33.1,12.1,46.7s28.3,29.4,45.7,39.7,47.5,23.4,72.6,31.4c66,21.2,136,30.1,205.1,32.5,17.6.6,35.3.8,53,.5s9.7-15.2,0-15Z" style="fill: #fff;"/>
        </g>
      </g>
    </g>
    <g id="uuid-98427bc7-a91e-4f95-a098-c0db217163c0" data-name="Capa 1">
      <path d="m546.9,320.4c-150,0-271.7,41.8-271.7,93.4s121.6,93.4,271.7,93.4,271.7-41.8,271.7-93.4-121.6-93.4-271.7-93.4Zm-.9,186.8c-133.2,0-241.2-35.6-241.2-79.6s108-79.6,241.2-79.6,241.2,35.6,241.2,79.6-108,79.6-241.2,79.6Z" style="fill: #fff; stroke: #fff; stroke-miterlimit: 10;"/>
    </g>
  </g>
</svg>