<svg width="1000" height="1000" viewBox="0 0 1000 1000" fill="none" xmlns="http://www.w3.org/2000/svg">
<rect x="25" y="25" width="950" height="950" rx="475" fill="#FF8000"/>
<rect x="25" y="25" width="950" height="950" rx="475" stroke="white" stroke-width="50"/>
<path d="M467.333 227.667H531.333V228H531.667V228.333H532.333V228.667H546.333V229H546.667V229.333H547.333V229.667H556.333V230H557V230.333H557.333V230.667H564.667V231H565.667V231.333H566.333V231.667H572V232H573V232.333H574.667V232.667H579V233H579.667V233.333H586V233.667H586.333V234H586.667V234.333H592V234.667H592.333V235H593V235.333H598V235.667H598.333V236H598.667V236.333H603.333V236.667H603.667V237.333H608.333V237.667H608.667V238H609V238.333H613V238.667H613.333V239H613.667V239.333H618V240H618.333V240.333H622.667V241H623V241.333H627.333V241.667H627.667V242H628V242.333H630V242H631V242.333H631.333V242.667H631.667V243H636V243.333H636.333V244H640V244.667H640.333V245H643.667V245.333H644V246H647.667V246.667H648V247H651.333V247.333H651.667V247.667H652V248H654.333V248.333H654.667V249H658V249.333H658.333V249.667H658.667V250H661V250.333H661.333V250.667H661.667V251H664V251.333H664.333V251.667H664.667V252H665.667V251.667H666.667V252H667V252.667H667.667V253H668.333V252.667H669.667V253H670V253.667H672.667V254H673V254.667H675.667V255.333H676V255.667H678V256H678.333V256.333H678.667V256.667H680.667V257H681V257.333H681.333V257.667H683.333V258H683.667V258.333H684V258.667H686.333V259.333H686.667V259.667H689.333V260.333H689.667V260.667H691.333V261H691.667V261.333H692.333V261.667H692.667V261.333H693.667V261.667H694V262H694.333V262.333H694.667V262.667H695.333V262.333H696.667V262.667H697V263.333H698.667V263.667H699V264.333H701.667V265H702V265.333H703.667V266H704V266.333H706V266.667H706.333V267H706.667V267.333H708.333V267.667H708.667V268.333H710.333V268.667H710.667V269.333H712.333V270H712.667V270.333H714.667V270.667H715V271H715.667V271.333H716V271H716.333V271.333H717V271.667H717.333V272H718.667V272.333H719V272.667H719.333V273H720.667V273.333H721V274H722.667V274.333H723V274.667H723.333V275H725.667V275.667H726V276H727.667V276.667H728V277H729.667V277.667H730V278H731.667V278.667H732V279H733.333V279.333H733.667V279.667H735V280H735.333V280.333H735.667V280.667H736.333V281.333H736.667V281.667H738.333V282.667H740V283H740.333V283.667H742V284H742.333V284.667H743.333V285H743.667V285.333H744.667V285.667H745V286H745.333V286.333H746.667V286.667H747V287.333H748.667V287.667H749V288.333H749.667V288.667H750.333V289H750.667V289.333H751.667V289.667H752V290.333H753.667V290.667H754V291.333H754.667V291.667H755V292.333H756.667V293H757V293.333H758V293.667H758.333V294H759.333V294.333H759.667V295H760.333V295.333H761V295.667H761.667V296H762.333V296.667H762.667V297H763.333V297.333H764V297.667H764.333V298H765.333V298.667H765.667V299H766.333V299.667H766.667V300H768.333V300.667H768.667V301H769V301.333H769.333V301.667H769.667V302H770.333V302.667H770.667V303H772V303.333H772.333V303.667H772.667V304H773V304.333H773.333V304.667H773.667V305H774V305.333H774.333V305.667H775.667V306H776V306.667H776.667V307H777V307.667H777.667V308H778V308.667H778.667V309H779V309.333H779.667V309.667H780.667V310.333H781V310.667H781.667V311.333H782V311.667H782.667V312.333H783.333V312.667H783.667V313.333H784.333V313.667H784.667V314.333H785.333V314.667H785.667V315.333H787V315.667H787.333V316H787.667V316.333H788.333V317H788.667V317.333H789.333V318H789.667V318.333H790.333V319H790.667V319.333H791.333V320H791.667V320.333H792.333V321H792.667V321.333H793.333V322H793.667V322.333H794V322.667H794.333V323H794.667V323.333H795V323.667H795.333V324H795.667V324.333H796V324.667H796.333V325H797V325.667H797.333V326H798V327H798.333V327.667H798.667V328H799V328.667H799.333V329H800V329.667H800.333V330H801V330.667H801.333V331H802V331.667H802.667V332H803V332.667H803.333V333H803.667V333.333H804V334.667H804.667V335H805V335.667H805.667V337.333H806V337.667H806.667V338H807V338.667H807.667V340.333H808.333V340.667H808.667V342H809V342.333H809.667V344H810V344.333H810.667V346H811V346.333H811.667V348H812.333V348.333H812.667V351H813.333V351.333H813.667V353.667H814V354H814.333V354.333H814.667V355.333H814.333V356.333H814.667V356.667H815.333V361.333H815.667V361.667H816.333V434.667H816.667V435.667H817.333V451H817.667V451.667H818V452H818.333V462.667H818.667V463.333H819V463.667H819.333V471.667H819.667V472H820V472.333H820.333V478H820.667V478.667H821V479H821.333V482.667H821.667V483H822V483.333H822.333V486.667H823V487.667H823.333V488.333H823V489.667H823.333V491H823.667V491.333H824V495.333H824.333V496.667H824.667V497H825V502.667H825.333V503.667H825.667V504H826V509.333H826.333V509.667H826.667V510H827V514H827.333V514.333H827.667V515H828V518.667H827.667V519H827.333V519.333H827V520.667H826.667V521H826V523H825.667V523.333H825.333V541.667H825.667V545.333H826V588H826.333V591.333H826.667V593H827V615H827.333V615.667H827.667V616.333H828V621.667H828.333V622H829V623.333H829.333V623.667H829.667V624H830V624.667H830.667V625H831V625.667H831.667V626H832V626.667H832.667V627.333H833V627.667H833.667V628.333H834V628.667H834.667V629.667H835V630.333H835.333V630.667H835.667V631.333H836V631.667H836.667V632.333H837V632.667H837.667V633.333H838.333V633.667H838.667V634.333H839.333V636H839.667V636.333H840.333V637H840.667V637.333H841.333V639H841.667V639.333H842.333V640H842.667V640.667H843V641H843.333V642H843.667V642.333H844.333V644H845V644.333H845.333V646H845.667V646.333H846V647.667H846.333V648.667H846.667V649H847V649.333H847.333V650.333H847V651.333H847.333V651.667H847.667V652H848V655.333H848.333V655.667H848.667V656H849V670H848.667V670.333H848.333V670.667H848V674H847.333V674.667H847V676.333H846.667V676.667H846.333V678.667H846V679H845.333V680H845V680.333H844.667V681H844.333V681.667H843.667V682H843.333V683.667H842.667V684H842.333V684.667H841.667V685.333H841.333V685.667H840.667V686H840.333V686.667H839.667V687.333H839.333V688.667H838.667V689.333H838.333V689.667H837.667V690.333H837.333V690.667H836.667V691.333H836.333V691.667H835.667V692.333H835V692.667H834.667V693.333H834.333V693.667H834V694H833.667V694.333H833V695H832.667V695.333H832V695.667H831.667V696H831V696.333H830V697H829.667V697.333H829V698H828.667V698.333H828.333V698.667H828V699H827.667V699.333H827V700H826.333V700.333H825.333V701H824.333V701.667H824V702H823.667V702.333H823.333V702.667H823V703H821.333V703.667H821V704H820.667V704.333H820.333V704.667H820V705H818.667V705.333H818.333V705.667H818V706H817.333V706.333H817V706.667H816V707H815.667V707.333H815.333V707.667H814V708H813.667V708.667H812V709H811.667V709.667H811V710H810.667V710.667H809V711H808.667V711.667H807V712H806.667V712.667H805V713.333H804.667V713.667H803V714.333H801.333V714.667H801V715.333H799.333V715.667H799V716.333H797.333V716.667H797V717.333H794.333V718H794V718.333H792.333V719H792V719.333H790V719.667H789.667V720H789.333V720.333H787.667V720.667H787.333V721.333H784.667V722H783V722.333H782.667V723H780.333V723.333H780V723.667H779.667V724H778.333V724.333H777.667V725H775.333V725.333H775V726H772.333V726.333H772V727H769.333V727.667H769V728H766.667V728.667H766V729H764.333V729.667H764V730H761.667V730.333H761.333V730.667H759V731H758V731.333H757.667V731.667H755.667V732H755V732.333H754.667V732.667H752.333V733H752V733.667H749V734H748.333V734.333H748V734.667H745.667V735H745.333V735.333H745V735.667H742.333V736H742V736.333H741.333V736.667H738.667V737H738.333V737.333H738V737.667H735.333V738.333H734.667V738.667H731.667V739.333H731.333V739.667H728V740H727.667V740.333H727.333V740.667H726V740.333H724.333V740.667H724V741.333H723.333V741.667H722.333V741.333H720.333V741.667H720V742.333H716V742.667H715.667V743H715.333V743.333H711.667V743.667H711.333V744.333H707.333V744.667H706.667V745.333H703V745.667H702.667V746H702.333V746.333H698V747H697.667V747.333H693.333V747.667H693V748H692.667V748.333H687.667V748.667H687.333V749H687V749.333H682.333V749.667H682V750H681.333V750.333H676.667V751H676.333V751.333H675V751H671.333V751.333H671V751.667H670.667V752H670V752.333H669.667V752H665.667V752.333H665V753H659.667V753.333H659.333V753.667H659V754H653V754.333H652.667V754.667H652.333V755H646V755.667H645.667V756H639.333V756.333H639V756.667H638.333V757H632V757.333H631.667V757.667H631.333V758H624.333V758.333H624V758.667H623.333V759H616.667V759.333H616V759.667H611.333V760H608.667V760.333H608V760.667H602.667V761H601.333V761.333H600V761.667H593.333V762H592V762.333H591.667V762.667H582.667V763H582V763.333H581.667V763.667H570.667V764H570V764.333H569.667V764.667H555.667V765H555V765.333H554.667V765.667H535.667V766H535.333V766.333H534.667V766.667H457.333V766.333H456.667V766H456.333V765.667H438.667V765.333H438V765H437.333V764.667H424V764.333H423.667V764H423.333V763.667H412.333V763.333H411.667V763H411V762.667H402V762.333H401.333V762H400V761.667H393.333V761.333H393V761H391.333V760.667H385.333V760.333H385V760H382.333V759.667H380V760H379.333V759.667H378V759.333H377V759H371.333V758.667H370.667V758.333H370V758H363.333V757.667H363V757.333H362.667V757H356.667V756.667H356.333V756.333H356V756H349.667V755.333H349.333V755H343.667V754.667H343.333V754.333H343V754H337.333V753.333H337V753H331.667V752.667H331.333V752.333H331V752H327V752.333H326V752H325.667V751.333H325.333V751H321.667V751.333H320.333V751H320V750.333H315V750H314.333V749.667H314V749.333H309.333V748.333H304.333V748H304V747.667H303.667V747.333H299V747H298.667V746.333H294.333V746H294V745.667H293.667V745.333H290V745H289.667V744.667H289.333V744.333H285.333V744H285V743.333H281V742.667H280.333V742.333H276.667V741.667H276V741.333H273.667V741.667H273.333V741.333H272.667V741H272.333V740.667H271V740.333H270.333V740.667H269.333V740.333H268.333V739.667H265.333V739.333H264.667V738.667H261.333V738.333H261V737.667H258.333V737.333H257.667V737H257.333V736.667H255V736.333H254.667V736H254.333V735.667H251.333V735.333H251V735H250.667V734.667H248.333V734.333H248V734H247.333V733.667H244.667V733H244.333V732.667H241.667V732H240.667V731.667H239V732H238.333V731.667H238V731H237.333V730.667H236.667V731H235.333V730.667H235V730H232.333V729.333H232V729H229.333V728.333H229V728H226.667V727.667H226.333V727H223.667V726.667H223.333V726H220.667V725.333H220.333V725H218V724.667H217.667V724.333H217.333V724H216V723.667H215.667V723.333H215.333V723H213V722.333H212.667V722H211.333V722.333H210.667V722H210V721.333H208.333V720.667H208V720.333H205.333V719.667H205V719.333H203.667V719H203.333V718.667H203V718.333H201V718H200.667V717.667H200.333V717.333H198.667V717H198.333V716.333H196.667V716H196.333V715.333H194.333V715H194V714.667H193.333V714.333H192.667V714.667H192.333V714.333H191.667V713.667H190V713.333H189.667V712.667H188.333V712.333H188V712H187.667V711.667H186.667V711.333H186.333V711H186V710.667H185V710.333H184.667V710H184V709.667H183V709H182.667V708.667H181.333V708.333H181V708H180.667V707.667H179.333V707.333H179V707H178.667V706.667H177.667V706.333H177.333V706H176.333V705.333H176V705H174.667V704.667H174.333V704.333H174V704H173.667V703.667H173.333V703H171.667V702.667H171.333V702.333H171V702H170.667V701.667H170.333V701H169.667V700.667H169.333V700.333H169V700H167.667V699.333H167V699H166.667V698.333H166V698H165.667V697.667H165.333V697.333H165V697H164.667V696.333H163V695.667H162.667V695.333H162V695H161.667V694.333H161V694H160.667V693.333H160V692.667H159.333V692.333H159V691.667H158.333V691.333H158V690.667H157.333V690.333H157V689.667H156.333V689.333H156V688.667H155.333V687H155V686.667H154.333V686H154V685.667H153.333V685H153V684.667H152.333V683H151.667V682.667H151.333V682H150.667V681.667H150.333V680H149.667V679.667H149.333V678H148.667V677.667H148.333V676H148V675.667H147.667V673.667H147.333V673H147V672.667H146.667V669.667H146.333V669H145.667V656.333H146V656H146.333V655.333H146.667V651.667H147.333V651.333H147.667V650.333H147.333V649.667H147.667V649H148V648.667H148.333V648.333H148.667V648H148.333V646.333H148.667V646H149.333V644.333H149.667V644H150.333V642.333H151V642H151.333V640.333H152V640H152.333V639H152.667V638.667H153V638H153.333V637.333H154V637H154.333V636H154.667V635.667H155V634.667H155.667V634.333H156V633.667H156.667V633.333H157V632.667H157.333V632.333H157.667V632H158V630.667H158.667V630.333H159V629.667H159.667V629.333H160V628.667H160.667V628.333H161V627.667H161.667V627H162V626.667H162.667V626H163V625.667H163.667V625H164V624.667H164.667V624H165V623.333H165.333V623H165.667V622H166.333V621.667H166.667V619.667H167V619.333H167.333V618H167.667V583.333H168V583H167.667V579.667H168V574.333H168.333V565.333H168.667V522H168V521.667H167.667V520.333H167.333V520H167V519.667H166.667V512.667H167V512.333H167.333V512H167.667V508.333H168V506.333H168.333V505.667H168.667V499.667H169V498.667H169.333V497H169.667V493.333H170V493H170.333V490.667H170.667V488H171V487.667H171.333V486H171.667V483.333H172V483H172.333V478.667H172.667V478.333H173V478H173.333V472.667H173.667V472.333H174V472H174.333V464.667H174.667V464.333H175V464H175.333V454H176V453.333H176.333V439.667H176.667V439.333H177V438.667H177.333V366.333H177.667V366H178V365.333H178.333V359.667H179V359.333H179.333V356H179.667V355.667H180V355.333H180.333V354.333H180V353.333H180.333V353H181V350.333H181.333V350H182V348.333H182.333V348H183V346.333H183.667V346H184V344.333H184.667V344H185V342.333H186V340.667H186.333V340.333H186.667V340H187V339.333H187.667V338.667H188V337.667H188.667V337H189V336.333H189.333V336H189.667V335H190V334.667H190.667V334H191V333.667H191.667V333H192V332H192.333V331.667H192.667V331H193.333V330.667H193.667V330H194.333V329.667H194.667V329H195.333V328.667H195.667V328H196.333V327.667H196.667V326.333H197V326H197.333V325.667H197.667V325H198.333V324.667H198.667V324.333H199V324H199.333V323.333H199.667V323H200.333V322.667H200.667V322.333H201V322H201.333V321.333H202V321H202.333V320.333H203V320H203.333V319.333H204V319H204.333V318.333H205V318H205.333V317.333H206V317H206.333V316.333H207V316H207.333V315.333H208V315H208.333V314.333H209.333V314H209.667V313.667H210.333V313.333H211V312.667H211.333V312.333H212V311.667H212.667V311.333H213V310.667H213.667V310.333H214V309.667H214.667V309.333H215V308.667H216.667V308H217V307.667H217.667V307H218V306.667H218.667V306H219V305.667H219.667V305.333H220V305H220.667V304.667H221.333V304.333H221.667V304H222V303.667H222.333V303.333H222.667V303H223V302.667H223.667V302H225V301.667H225.333V301H226V300.667H226.333V300.333H226.667V300H227V299.667H227.333V299.333H227.667V299H229V298.667H229.333V298H230V297.667H230.333V297H232V296.333H232.333V296H233V295.333H233.333V295H234.667V294.333H235.667V294H236V293.333H237.333V293H237.667V292.667H238V292.333H238.667V292H239V291.333H240.667V290.667H241V290.333H241.667V290H242V289.667H242.333V289.333H243.667V288.667H244V288.333H245.667V287.667H246V287.333H246.667V287H247.333V286.667H248V286.333H248.333V286H248.667V285.667H250.333V285H250.667V284.667H252.333V284H252.667V283.667H254.333V283H254.667V282.667H255.667V282.333H256V282H256.333V281.667H257.333V281.333H257.667V281H258.333V280.667H259V280.333H259.333V280H259.667V279.667H261V279.333H261.333V279H262.667V278.667H263V278H264.667V277.667H265V277H266.667V276.667H267V276H268.667V275.667H269V275H270.667V274.333H271V274H273V273.667H273.333V273.333H273.667V273H275.333V272.667H275.667V272.333H276V272H277.333V271.667H277.667V271.333H278.333V271H279.333V270.667H279.667V270.333H281V270H281.333V269.667H281.667V269.333H284V269H284.333V268.333H286V267.667H286.333V267.333H288V266.667H288.333V266.333H290.667V266H291V265.333H292.667V265H293V264.333H295.333V264H295.667V263.667H296V263.333H297.667V262.667H298V262.333H299.333V262.667H299.667V262.333H300.333V262H300.667V261.667H301.333V261.333H301.667V261.667H302.333V261.333H302.667V261H303V260.667H305V260.333H305.333V259.667H308V259.333H308.333V258.667H310.667V258.333H311V258H311.333V257.667H313.667V257.333H314V256.667H316V256.333H316.333V255.667H318.667V255.333H319V254.667H321.667V254.333H322V253.667H324.667V253H325V252.667H326.333V253H327V252.667H327.667V252H328V251.667H329.333V252H330V251.667H330.333V251.333H330.667V251H333V250.667H333.333V250.333H333.667V250H336.667V249.667H337V249.333H337.333V249H340V248.333H340.333V248H343.667V247.667H344V247H347.333V246.667H347.667V246.333H348V246H350.667V245.667H351V245.333H351.667V245H355V244.667H355.333V244.333H355.667V244H359.333V243.333H359.667V243H363V242.667H363.333V242.333H363.667V242H364.667V242.333H367.333V242H368V241.333H372V241H372.667V240.333H376.667V239.667H377V239.333H381.333V239H381.667V238.667H382V238.333H386.333V237.667H386.667V237.333H391.333V237H392V236.667H392.333V236.333H396.667V236H397V235.333H402.333V235H402.667V234.667H403V234.333H408V234H408.333V233.667H409V233.333H415.333V233H415.667V232.667H419.667V232.333H420.667V232H422V231.667H428V231.333H428.667V231H430.667V230.667H437.667V230.333H438.333V229.667H449.667V229.333H450.333V229H450.667V228.667H466.333V228.333H466.667V228H467.333V227.667ZM457 239.333V239.667H456.667V240H456.333V240.333H443V240.667H442.667V241H442.333V241.333H432V241.667H431.667V242H431V242.333H423.667V242.667H423V243H421.667V243.333H420.667V243H418V243.333H416V243.667H415.333V244H410V244.333H409.333V244.667H409V245H403.667V245.333H403.333V245.667H403V246H398.333V246.333H397.667V246.667H397.333V247H392.667V247.333H392.333V248H387.667V248.667H387.333V249H383V249.333H382.667V249.667H382.333V250H378V250.333H377.667V250.667H377V251H373.333V251.333H373V252H368.333V252.667H368V253H363.667V253.667H363V254H362V253.667H360V254H359.667V254.667H358.667V255H358.333V254.667H356V255H355.667V255.667H352V256.333H351.667V256.667H348.333V257H348V257.667H344.333V258.333H344V258.667H341V259H340.667V259.333H340.333V259.667H337.667V260H337.333V260.667H334.667V261.333H334.333V261.667H331.667V262.333H331.333V262.667H328.667V263H328.333V263.333H326.333V263.667H325.333V264H325V264.333H323V264.667H322.333V265.333H320V265.667H319.667V266H319.333V266.333H317.333V266.667H317V267H316.667V267.333H314.333V268H314V268.333H311.667V268.667H311.333V269.333H308.667V269.667H308.333V270.333H306V270.667H305.667V271H305.333V271.333H304.667V271H304V271.333H303.667V272H303.333V272.333H302.667V272H301V272.333H300.667V273H298.667V273.333H298.333V273.667H298V274H296.333V274.333H296V274.667H295.667V275H294V275.667H293.667V276H291.333V276.333H291V277H289.333V277.333H289V278H287.333V278.667H286.667V279H286V278.667H285V279H284.333V279.667H283V280H282.667V280.333H282.333V280.667H281V281H280.667V281.333H280.333V281.667H279V282H278.667V282.333H278.333V282.667H277V283H276.667V283.667H274.333V284H274V284.333H273.667V284.667H272V285.333H271.667V285.667H270V286.333H269.667V286.667H268.333V287H268V287.333H266.667V287.667H266.333V288H266V288.333H264.667V288.667H264.333V289.333H262.667V289.667H262.333V290.333H260.667V290.667H260.333V291.333H259.667V291.667H259.333V292.333H257.667V292.667H257.333V293.333H255.667V294H255.333V294.333H253.667V295H253.333V295.333H252V295.667H251.667V296H251.333V296.333H250.667V297H250V297.333H249.667V297H249V297.333H248.667V298H247V298.667H246.667V299H245.333V299.333H245V300H244.333V300.333H244V300.667H243.667V301H242V302H241V302.333H240.667V302.667H240.333V303H239.333V303.333H239V304H237.333V304.667H237V305H236.333V305.333H236V306H234.667V306.667H233.667V307H233.333V307.667H233V308H232.333V308.667H230.667V309H230.333V309.667H230V310H229.333V310.667H228.667V311H228.333V311.667H226.667V312.333H226.333V312.667H225.667V313.333H225.333V313.667H224.667V314.333H224.333V314.667H222.667V315.333H222.333V315.667H222V316H221.667V316.333H221.333V316.667H221V317H220.667V317.333H220.333V317.667H219.667V318.333H218.333V318.667H218V319H217.667V319.333H217.333V319.667H217V320H216.667V320.333H216.333V320.667H216V321.333H215.333V321.667H215V322.333H214.333V322.667H214V323.333H212.667V323.667H212.333V324H212V324.333H211.333V324.667H211V325.333H210.333V326H210V326.333H209.333V327H209V327.333H208.333V328H207.667V328.333H207.333V329H206.667V329.333H206.333V330H205.667V330.333H205.333V331H204.667V331.333H204.333V332H203.667V332.333H203.333V333H202.667V333.667H202.333V334H201.667V335.667H201V336H200.667V336.667H200V337H199.667V337.667H199V338H198.667V338.667H198V339H197.667V339.667H197V340H196.667V341.333H196.333V341.667H196V342H195.667V342.333H195.333V342.667H195V343H194.667V343.667H194V345H193.667V345.333H193.333V345.667H193V346H192.667V346.333H192V348H191.667V348.333H191V349H190.667V349.333H190V351H189.333V351.333H189V352H188.667V352.333H188.333V352.667H188V354H187.333V354.333H187V356H186.333V356.333H186V358H185.333V358.333H185V361.333H184.667V361.667H184.333V362H184V363H184.333V363.333H185V361.667H185.333V361.333H186V359.667H186.667V359.333H187V358H187.333V357.667H187.667V357.333H188V356H188.333V355.667H188.667V355.333H189V355H189.333V354.667H190V354.333H189.667V353.333H190V353H190.667V352.333H191V351.333H191.333V351H191.667V350.333H192V350H192.667V348.667H193V348.333H193.333V348H193.667V347.333H194V347H194.667V346.333H195.333V346H195.667V344.333H196.333V344H196.667V343.333H197.333V343H197.667V342.333H198.333V342H198.667V340.667H199V340.333H199.333V340H199.667V339.667H200V339.333H200.333V339H200.667V338.667H201V338.333H201.333V338H201.667V337.333H202.333V336.333H202.667V336H203V335.667H203.333V335H203.667V334.667H204V334.333H204.333V334H204.667V333.667H205V333.333H205.333V333H205.667V332.667H206V332.333H206.333V332H206.667V331.667H207V331.333H207.333V331H207.667V330.667H208V330.333H208.333V330H208.667V329.667H209V329.333H209.333V329H209.667V328.667H210V328.333H210.333V328H210.667V327.667H211V327.333H211.333V327H211.667V326.667H212V326.333H212.333V326H212.667V325.667H213V325.333H213.333V325H214.333V324.333H215.333V324H215.667V323.667H216V323.333H216.333V323H216.667V322.667H217V322.333H217.333V322H217.667V321.667H218V321.333H218.333V321H218.667V320.667H219V320.333H219.333V320H219.667V319.667H220V319.333H221.333V319H221.667V318.333H222.333V318H222.667V317.333H223.333V317H223.667V316.333H224.667V316H225V315.667H225.667V315.333H226.333V314.667H226.667V314.333H227.333V313.667H227.667V313.333H228.667V313H229V312.667H230V312.333H230.333V311.667H230.667V311.333H231V311H231.333V310.667H232.667V310.333H233V309.667H234V309H234.333V308.667H235.333V308.333H235.667V308H236V307.667H236.667V307.333H237V306.667H238.333V306.333H238.667V306H239V305.667H239.667V305.333H240V305H240.333V304.667H241.667V304H242.333V303.667H242.667V303H244.333V302.667H244.667V302H245.333V301.667H245.667V301.333H246.333V301H247.333V300.667H247.667V300H249.333V299.667H249.667V299H251.333V298.333H251.667V298H252.333V297.333H252.667V297H254.333V296.333H254.667V296H256.333V295.333H256.667V295H257.667V294.667H258V294.333H258.667V294H259V293.667H259.333V293.333H261V292.667H261.333V292.333H263V291.667H263.333V291.333H265V290.333H266.667V290H267V289.333H268.667V288.667H269V288.333H270.333V288H270.667V287.667H271V287.333H272V287H272.333V286.667H273V286.333H274V286H274.333V285.667H275.667V285.333H276.333V285H276.667V284.667H278.333V284H278.667V283.667H280V283.333H280.333V283H280.667V282.667H282V282.333H282.333V282H282.667V281.667H284V281.333H284.333V281H284.667V280.667H287V280H287.667V279.667H289V279H290.333V278.667H291V278H293.333V277.667H293.667V277.333H294V277H295.333V276.667H295.667V276H298.333V275.667H298.667V275H300.333V274.667H300.667V274.333H301.333V274H303.333V273.333H303.667V273H306.333V272.333H306.667V272H309V271.667H309.333V271.333H309.667V271H310.333V271.333H310.667V271H311.333V270.333H313.667V270H314V269.667H314.333V269.333H316.667V269H317V268.333H319.667V268H320V267.667H320.333V267.333H323.333V267H323.667V266.333H326.333V266H326.667V265.333H329.333V265H329.667V264.333H332.333V263.667H332.667V263.333H336V263H336.333V262.667H336.667V262.333H338V262.667H338.667V262.333H339V262H339.333V261.667H340V261.333H340.667V261.667H341.667V261.333H342.333V260.667H345.667V260.333H346V259.667H349.333V259.333H349.667V258.667H353V258.333H353.333V258H353.667V257.667H357V257.333H357.333V257H357.667V256.667H361V256.333H361.333V255.667H365.333V255.333H365.667V255H366V254.667H369.667V254H370.333V253.667H374V253.333H374.333V253H375V252.667H377.667V253H378V252.667H378.667V252.333H379V252H383V251.667H383.667V251H388V250.667H388.333V250H393V249.667H393.333V249H398.667V248.667H399V248H404.667V247.333H405V247H411V246.667H411.333V246.333H411.667V246H418.667V245.667H419V245.333H419.333V245H427.667V244.333H428V244H437.333V243.667H437.667V243.333H438.333V243H449.333V242.667H449.667V242.333H450.333V242H451.333V242.333H467.667V242H469V241.667H469.333V241.333H529V241.667H529.333V242H530.667V242.333H545.333V242.667H545.667V243H556.333V243.333H557V244H566V244.333H566.667V244.667H567V245H574.667V245.333H575V245.667H575.333V246H582.333V246.667H582.667V247H589V247.667H589.333V248H595V248.333H595.333V248.667H595.667V249H600.667V249.667H601.333V250H605.667V250.333H606V250.667H606.667V251H610.333V251.333H610.667V251.667H611.333V252H615V252.333H615.333V252.667H616.333V253H616.667V252.667H619.667V253H620V253.667H624V254H624.667V254.667H628.333V255H628.667V255.333H629V255.667H633V256H633.333V256.667H637V257H637.333V257.667H641V258.333H641.333V258.667H644.667V259H645V259.667H648V260H648.333V260.333H649V260.667H651.667V261.333H652V261.667H654.333V261.333H654.667V261.667H655.333V262H655.667V262.333H656V262.667H657.333V262.333H658V262.667H658.667V263H659V263.333H662V264H662.333V264.333H665V265H665.333V265.333H668V266H668.333V266.333H670.667V266.667H671V267H671.333V267.333H673.667V267.667H674V268.333H676.667V269H677V269.333H679.667V270H680V270.333H682.333V270.667H682.667V271H683V271.333H684V271H685V271.333H685.333V272H687V272.333H687.667V273H690V273.333H690.333V274H693V274.667H693.333V275H695.333V275.333H695.667V275.667H696V276H698V276.667H698.333V277H700.667V277.333H701V277.667H701.333V278H702.667V278.667H703.333V279H705.667V279.667H707.333V280H707.667V280.667H709.333V281.333H709.667V281.667H711.333V282H711.667V282.667H714V283H714.333V283.333H714.667V283.667H716V284H716.333V284.667H718V285.333H718.333V285.667H720V286.333H720.333V286.667H721V286.333H721.333V286.667H722V287H722.333V287.333H723.667V287.667H724.333V288H724.667V288.333H725.667V288.667H726.333V289H726.667V289.333H728.333V289.667H728.667V290.333H729.667V290.667H730V291H730.333V291.333H731.333V291.667H731.667V292H732V292.333H733.333V292.667H733.667V293.333H735.333V294H735.667V294.333H737.333V295H739V295.333H739.333V296H740V296.333H740.667V296.667H741V297H742V297.333H742.333V298H744V298.667H744.333V299H745.667V299.333H746V299.667H746.333V300H747V300.667H747.333V301H749V301.667H749.333V302H750V302.333H750.333V302.667H751V303H752V303.667H752.333V304H753.333V304.333H753.667V304.667H754.333V305H754.667V305.333H755V305.667H756V306H756.667V306.667H757.667V307.667H758.667V308H759.333V308.333H759.667V308.667H760.333V309H760.667V309.333H761V309.667H761.333V310H761.667V310.333H762V310.667H763.333V311H763.667V311.333H764V311.667H764.333V312H764.667V312.667H766V313H766.333V313.333H767V313.667H767.333V314.333H768V314.667H768.333V315.333H769.333V315.667H770V316H770.333V316.333H771V316.667H771.333V317.333H772V318H772.333V318.333H773V318.667H773.333V319H773.667V319.333H775V320H775.333V320.333H775.667V320.667H776V321H776.333V321.333H777V322H777.333V322.333H777.667V322.667H778V323H778.333V323.333H778.667V323.667H779V324H779.333V324.333H779.667V324.667H780V325H781.333V325.333H781.667V325.667H782V326H782.333V326.333H782.667V326.667H783V327H783.333V327.333H783.667V327.667H784V328H784.333V328.333H784.667V328.667H785V329H785.333V329.333H785.667V329.667H786V330H786.333V330.333H786.667V330.667H787V331H787.333V331.333H787.667V331.667H788V332H788.333V332.333H788.667V332.667H789V333H789.333V333.333H789.667V333.667H790V334H790.333V334.333H790.667V334.667H791V335H791.333V335.333H791.667V335.667H792V336H792.333V336.333H792.667V336.667H793V337H793.333V338H793.667V338.333H794V339H794.333V339.333H794.667V339.667H795V340H795.333V340.333H795.667V340.667H796V341H796.333V341.333H796.667V341.667H797V342H797.333V342.333H798V344H798.333V344.333H799V345H799.333V345.333H800V346H800.333V346.333H801V348H801.667V348.333H802V349H802.667V349.333H803V351H803.667V351.333H804V353H804.667V353.333H805V354H805.667V355.333H806V355.667H806.333V356H806.667V357.667H807.333V358H807.667V359.667H808.667V361.333H809V361.667H809.333V361.333H809.667V359.333H809.333V359H808.667V356.333H808.333V356H807.667V354.333H807.333V354H806.667V352.333H806.333V352H805.667V350.333H805V350H804.667V348.667H804V348H803.667V347.333H803V347H802.667V345.667H802.333V345.333H802V345H801.667V344.667H801.333V344.333H801V343H800.667V342.667H800.333V342.333H800V342H799.667V341.667H799.333V341.333H799V341H798.667V340.667H798V339.333H797.667V339H797.333V338.667H797V338H796.667V337.667H796V337H795.667V336.667H795V336H794.667V335.667H794V335H793.333V334.667H793V334H792.333V333.333H792V333H791.333V332.667H791V332H790.333V331.333H790V331H789.333V330.333H789V330H788.333V329.333H788V329H787.333V328.333H787V328H786.333V327.333H786V327H785.333V326.333H784.667V326H784.333V325.333H783.667V324.667H783.333V324.333H782.667V323.667H782.333V323.333H781.667V322.667H781.333V322.333H780.667V321.667H780.333V321.333H779.667V320.667H779.333V320.333H778V320H777.667V319.667H777.333V319.333H777V319H776.667V318.667H776.333V318.333H776V318H775.667V317.667H775.333V317.333H775V317H774.667V316.667H774.333V316.333H773.333V316H773V315.667H772.333V315.333H772V315H771.667V314.667H771.333V314.333H771V313.667H770V313.333H769.667V312.667H768.333V312.333H768V311.667H767.333V311.333H767V310.667H766V310.333H765.667V310H765.333V309.667H764.333V309H764V308.667H763.333V308H763V307.667H761.333V307H760.667V306.667H760.333V306H759V305.667H758.667V305.333H758.333V305H757.667V304.333H757.333V304H756.333V303.667H755.667V303.333H755.333V303H754.667V302.333H754.333V302H752.667V301.333H752.333V301H751.667V300H750V299.667H749.667V299.333H749.333V299H748.667V298.667H748.333V298.333H747.333V298H747V297.667H746.667V297H746.333V297.333H745.333V297H745V296.333H744.333V296H744V295.667H743.667V295.333H742.333V295H742V294.333H740.333V294H740V293.333H738.333V293H738V292.333H736.333V291.667H736V291.333H734.333V290.667H734V290.333H732.333V289.667H732V289.333H730.333V288.667H730V288.333H728.667V288H728.333V287.667H728V287.333H726.667V287H726.333V286.667H725.333V286.333H724.667V285.667H723V285.333H722.667V284.667H721V284.333H720.667V283.667H719V283H718.667V282.667H717V282H716.667V281.667H715V281H714.667V280.667H712.333V280.333H712V279.667H710.333V279H708.667V278.667H708.333V278H706.667V277.667H706.333V277.333H706V277H703.667V276.333H703.333V276H701.667V275.333H701.333V275H699V274.667H698.667V274H697V273.667H696.667V273.333H696.333V273H694V272.333H693.667V272H692.333V272.333H691.333V272H691V271.333H690.667V271H688.333V270.333H686.333V270H686V269.333H683.333V268.667H683V268.333H680.667V268H680.333V267.333H678V267H677.667V266.667H677.333V266.333H675.667V266H675.333V265.667H675V265.333H672.667V265H672.333V264.667H672V264.333H669.667V263.667H669.333V263.333H668.333V263.667H667.333V263.333H667V263H666.667V262.667H664.333V262.333H664V261.667H661.333V261.333H661V260.667H657.667V260.333H657.333V259.667H654.667V259.333H654.333V258.667H650.667V258H650.333V257.667H646.667V257H646.333V256.667H643V256.333H642.667V255.667H639V255H638.667V254.667H635V254H634.333V253.667H630.333V253H626.667V252.667H626.333V252H621.667V251.333H621.333V251H617.667V250.667H617.333V250.333H617V250H612.667V249.667H612.333V249.333H612V249H607.333V248.333H607V248H602.333V247.333H602V247H597V246.667H596.667V246.333H596.333V246H591V245.333H590.333V245H585V244.333H584V244H578.333V243.667H578V243.333H577V243H573V243.333H571.667V243H571V242.667H570.333V242.333H562.333V242H562V241.667H561.667V241.333H552.333V241H552V240.667H551.667V240.333H538.667V239.667H538.333V239.333H457ZM487.667 253.667V254H484.667V254.333H484.333V254.667H460.333V255H460V255.667H446.667V256H446.333V256.333H446V256.667H435V257.333H434.667V257.667H427.333V258H427V258.667H422.333V259.333H422V259.667H421.333V260H421V279.667H421.333V280.667H425.333V280.333H425.667V280H426.333V279.667H427.333V280H429.667V279.667H435.333V279.333H435.667V279H436.333V278.667H436.667V279H447.667V278.667H448V278.333H448.333V278H468.667V277.667H469.667V277.333H470V277H524V277.333H524.333V277.667H525V278H543.667V278.667H544V279H554.667V278.667H555.667V279H556.333V279.667H556.667V280H557V279.667H563.333V280H565.333V279.667H566.333V280H566.667V280.333H567V280.667H574V280H573.667V264H574V263H574.333V260.667H574V260.333H573.667V259.333H573.333V258.667H567.667V258H567.333V257.667H559.667V257.333H559.333V257H558.667V256.667H549.333V256.333H549V256H548.667V255.667H536.333V255.333H536V255H535.333V254.667H511V254.333H510.333V254H507.333V253.667H487.667ZM411.667 259.667V260.333H411.333V260.667H405V261.333H404.667V261.667H399.333V262H399V262.333H398.667V262.667H393.333V263.333H393V263.667H392V263.333H389V263.667H388.667V264H388.333V264.333H384V264.667H383.667V265.333H379V266H378.667V266.333H374.333V266.667H374V267.333H370V267.667H369.667V268H369.333V268.333H365.667V269H365V269.333H362.333V269.667H361.667V270H361.333V270.333H358V270.667H357.667V271H357V271.333H356.333V271H355V271.333H354.667V272H351.333V272.333H351V272.667H350.667V273H347.333V273.333H347V274H344.333V274.333H344V275H341.333V275.667H341V277H341.333V293.333H341V295.333H341.333V296H342V295.333H342.333V295H346V294.333H346.333V294H347.333V294.333H349.333V294H349.667V293.333H353.333V293H354V292.667H354.333V292.333H358V292H358.333V291.333H362.333V291H363V290.667H363.333V290.333H366.667V290H367V289.667H367.667V289.333H371V289H371.333V288.667H372.333V288.333H376V287.667H380V287.333H380.667V287H381V286.667H385.333V286.333H386.333V285.667H391V285.333H391.333V284.667H396.667V284.333H397V284H397.333V283.667H402.667V283.333H403V282.667H410.333V282H410.667V281.667H417V281.333H417.333V280.667H418V280.333H418.333V260H418V259.667H411.667ZM577.667 259.667V260H577.333V260.667H576.667V261H576.333V280.333H576.667V280.667H577.333V281.333H577.667V281.667H583.333V282H583.667V282.333H584V282.667H589.667V283H590V283.333H590.667V283.667H596.667V284.333H597V284.667H602.667V285H603V285.333H603.667V285.667H608.667V286H609V286.333H609.667V286.667H614V287H614.333V287.333H615.333V287.667H619.667V288H620V288.333H623.667V288.667H624.333V289H624.667V289.333H627.667V289.667H628.333V290H629V290.333H632.333V290.667H632.667V291H633V291.333H636.333V291.667H636.667V292H637.333V292.333H641V293H641.333V293.333H645V294H645.667V294.333H647.667V294H648V294.333H648.667V294.667H649V295H653.333V293.667H653V293.333H652.667V275.333H652.333V275H651.667V274.667H651.333V274H647.667V273.333H647.333V273H644V272.667H643.667V272.333H643.333V272H641V271.667H640.667V271.333H639.667V271H638.333V271.333H637.333V271H637V270.333H633.333V270H633V269.333H629.667V269H629.333V268.667H629V268.333H625.667V268H625.333V267.667H625V267.333H620.667V266.667H620.333V266.333H616V266H615.667V265.333H611V264.667H610.667V264.333H605.667V263.667H604.667V263.333H601.667V263.667H600.667V263.333H600.333V262.667H594.667V262H594.333V261.667H588V261H587.667V260.667H581.333V260.333H581V260H580.667V259.667H577.667ZM656.667 276V276.333H656.333V296H657.333V296.667H657.667V297H660V297.333H660.333V298H664V298.667H664.333V299H667V299.667H667.333V300H669.667V300.333H670V300.667H670.333V301H673.667V301.667H674V302H676.667V302.667H677V303H679.667V303.667H680V304H681V303.667H682V304H682.333V304.333H682.667V304.667H683V305H683.667V304.667H685V305H685.333V305.667H688V306H688.333V306.667H690.333V307H691V306.667H692V287.667H691.333V287.333H691V286.667H690.333V286.333H689.667V286.667H688.333V286.333H688V285.667H685.333V285H685V284.667H682.333V284H682V283.667H679.667V283.333H679.333V283H679V282.667H676.667V282.333H676.333V281.667H673.667V281H673.333V280.667H670.333V280.333H670V280H669.333V279.667H667V279.333H666.667V279H666.333V278.667H665.333V279H664.667V278.667H664V278.333H663.667V278H661.333V277.667H661V277.333H660.667V277H657.667V276.667H657.333V276.333H657V276H656.667ZM334 277V277.333H333.667V277.667H333V278H331V278.333H330.667V278.667H330.333V279H329.333V278.667H328.333V279H328V279.333H327.667V279.667H324.333V280H324V280.667H321.333V281H321V281.667H318.333V282.333H318V282.667H315.667V283H315.333V283.667H312.667V284H312.333V284.667H309.667V285H309.333V285.667H307.333V286H307V286.333H306V286.667H304.667V287.333H303.333V287.667H302.667V307.667H303.333V307.333H303.667V307H304V306.667H306.333V306H306.667V305.667H309.333V305H309.667V304.667H311V305H311.667V304.667H312V304.333H312.333V304H312.667V303.667H313.667V304H314.667V303.667H315V303H317.667V302.667H318V302H320.667V301.667H321V301H323.667V300.333H324V300H326.667V299.333H327V299H330.333V298.667H330.667V298H334.333V297.333H334.667V297H337V296.667H337.333V296H338.333V277.333H338V277H334ZM298 289.333V290H297.667V290.333H295.333V290.667H295V291.333H292.333V291.667H292V292.333H290.333V292.667H290V293.333H288V293.667H287.667V294H287V294.333H285.333V295H285V295.333H284.333V313.667H284.667V314H285V314.333H286V313.667H287.667V313.333H288V312.667H289.667V312.333H290V311.667H292.333V311.333H292.667V311H293V310.667H294.667V310.333H295V310H295.333V309.667H297.333V309.333H297.667V308.667H299.667V289.667H299.333V289.333H298ZM694.333 289.333V289.667H694V294.333H694.333V295H694.667V295.667H695V308.333H695.333V308.667H696V309.333H696.333V309.667H698.667V310H699V310.667H701.667V311H702V311.667H703.667V312H704V312.333H704.333V312.667H706.667V313.333H707V313.667H708.333V314H708.667V314.333H709V314.667H710V314.333H710.333V295.333H709.667V295H709.333V294.667H709V294.333H707.667V294H707.333V293.333H704.667V292.667H704.333V292.333H702.667V291.667H702.333V291.333H700V291H699.667V290.333H698V290H697.667V289.667H697.333V289.333H694.333ZM452.333 294.333V294.667H452V295.333H447.333V296H447V296.333H445.667V296H445V296.333H444.667V296.667H444.333V297H443V297.333H442.667V297.667H442.333V298H442V298.333H441.333V298.667H441V299H440V299.333H439.667V300H439V300.333H438.667V301H437V301.667H436.667V302H436V302.333H435.667V303H435.333V303.333H435V304H434.667V305H434V305.333H433.667V306H433V306.333H432.667V306.667H432.333V307H432V307.333H431.667V307.667H432V308H431.667V308.667H431.333V309H431V309.333H430.667V310H430.333V310.333H430V311.333H429.667V311.667H429.333V312H429V313.667H428.667V314H428.333V314.333H428V316.333H427.667V316.667H427V320.333H426.333V320.667H426V327.667H426.333V328H427V328.667H427.333V329H428V329.667H428.333V330H429V331.667H428.667V332H428.333V332.333H428V332.667H427.667V333H427V333.667H426.333V334H425.667V333.667H397.667V334H396.667V333.667H396V333H395.333V331.667H396V331H396.667V330.667H397V330H397.667V329.667H398V329H398.667V328.667H399V328H399.667V327.667H400V319.667H399.667V319.333H399V316.667H398.333V316.333H398V314H397.667V313.667H397.333V313.333H397V313H396.667V312.667H396.333V312H396V310.667H395.333V310.333H395V310H394.667V309.667H394.333V309.333H394V309H393.667V308.667H393.333V308.333H393V307.667H391.333V307H390.667V306.667H390.333V306H388.667V305.667H388.333V305H384.667V304.667H384.333V304.333H384V304H378.333V304.333H378V304.667H377.667V305H374.333V305.333H374V305.667H373.667V306H372.333V306.333H372V306.667H371.667V307H371V306.667H370.667V307H370.333V307.333H370V307.667H369.667V308H368.667V308.333H368.333V308.667H367.667V309H367.333V309.667H366.667V310H366.333V310.667H365.667V311H365.333V311.667H364.333V312H364V312.333H363.667V312.667H363.333V313H363V313.333H362.667V314H362.333V314.667H361.667V315H361.333V315.667H360.667V316H360.333V316.667H359.667V317H359.333V317.333H359.667V318H359.333V318.333H359V318.667H358.667V319H358.333V319.333H358V319.667H357.667V321H357.333V321.333H357V321.667H356.667V323H356.333V323.333H355.667V326H355.333V326.333H354.667V329H354.333V329.667H354V330H353.667V335.667H353.333V336H352.667V343H353V343.333H353.667V344H354V344.333H355.667V345H356V345.333H356.667V346H357V346.333H358V346.667H358.333V347H359V347.333H359.333V347.667H359.667V348H360V348.333H361.333V348.667H361.667V349H362V349.333H362.333V349.667H362.667V350H364V350.333H364.333V350.667H364.667V351H365V351.333H365.333V351.667H365.667V352H366.333V352.667H366.667V353H367V353.333H367.333V355.667H367V356H365.333V355.667H365V355H363.333V354.333H363V354H361.333V353.333H361V353H359.333V352H357.667V351.667H357.333V351.333H357V351H355.667V350.667H355.333V350.333H355V350H353.667V349.667H353.333V349.333H353V349.667H352.667V418.333H352.333V418.667H352.667V421H352.333V432.333H352.667V434.667H352.333V439.333H352.667V440H352.333V444.333H352.667V465.667H353.333V466H362V465.667H364V465.333H364.667V465H393V464.667H396.667V464.333H397V464H397.667V463.667H398V427.667H398.333V427H398.667V426.333H399V392H399.333V391.667H399.667V391H400V362.333H400.333V361.667H400.667V360.667H401V336.667H423V337H423.333V337.667H424V339.333H423.667V341H423.333V344H423V357.667H423.333V366.333H423.667V367.667H424V463.667H424.667V464H425V464.667H425.333V465H425.667V464.667H426.667V464.333H427V464H482.333V463.667H482.667V447.667H483V433H483.333V432.333H483.667V365.333H484V364.667H484.333V364H484.667V338.333H486V338.667H510V339H510.333V339.667H510.667V350H510.333V350.667H510.667V364.667H511V366H510.667V367H511V453.667H511.333V454.333H511.667V456.333H512V463.667H512.333V464H564V464.333H564.667V464.667H567.667V465H570V464.667H570.667V353.333H571V351H571.333V346.667H571V346H571.333V342.667H571V342H571.333V337.333H571.667V336.667H580V337H580.667V337.333H581V337.667H593.667V362.667H594V363.333H594.333V364H594.667V395.333H595V396.333H595.333V397H595.667V435.667H596V437H596.333V438H596.667V463.667H597V464H601.333V464.333H601.667V464.667H602.667V465H628V465.333H628.333V465.667H630V466H641.333V465.667H642V349.667H641.667V349.333H640.333V349.667H640V350H639.333V350.333H638.667V350.667H638.333V351H637.667V351.333H637.333V352H635.667V352.333H635.333V353H633.667V353.333H633.333V354H631.667V354.333H631.333V355H628.333V354.667H627.667V354H627.333V352.333H627.667V352H628.333V351.333H628.667V351H630.333V350.333H630.667V350H631V349.667H631.333V349.333H631.667V349H633V348.667H633.333V348.333H633.667V348H634V347.667H634.333V347.333H635.667V347H636V346.667H636.333V346.333H636.667V346H637V345.667H637.333V345.333H638.667V345H639V344.333H639.667V344H640V343.333H640.667V343H641V342.333H641.667V342H642V332.333H641.667V332H641V328H640.333V327.667H640V324.667H639.667V324.333H639.333V324H639V322.333H638.333V322H638V320.667H637.667V320.333H637.333V320H637V318.667H636.667V318.333H636V317.667H635.333V317H635V315.667H634.333V315H634V314.667H633.333V314H633V313.667H632.333V313H632V312.667H631.333V312H631V311.667H630.333V311H630V310.667H629.333V310H629V309.667H628.333V309H628V308.667H626.667V308.333H626.333V308H626V307.667H624.667V307H624.333V306.667H623V306.333H622.667V306H621V305.667H620.667V305.333H620.333V305H617V304.667H616.667V304H609.667V304.333H609.333V304.667H609V305H606.333V305.667H606V306H604.667V306.667H604V307H603.333V307.667H603V308H602.333V308.667H602V309H601.333V309.667H601V310H600.667V310.333H600.333V310.667H599.667V311H599.333V312.667H598.667V313.333H598.333V313.667H597.667V315.333H597.333V315.667H596.667V317.333H596.333V317.667H595.667V321.333H595V321.667H594.667V326.333H595.333V327H595.667V327.667H596V328H596.333V328.333H596.667V329H597.333V329.333H597.667V329.667H598V330H598.333V330.333H598.667V330.667H599V331H599.333V331.333H599.667V332H599.333V333H598.667V333.667H598.333V334H596.667V334.667H586.667V334.333H586.333V334H584.333V333.667H567.667V333H567V332.667H566.667V332H566V331.667H565.667V330H566.333V329.667H566.667V329H567.333V328.667H567.667V328H568.333V327.667H568.667V326H569V325.667H569.333V325H569.667V324.333H569.333V323.667H569V323.333H568.667V319.667H568.333V319.333H568V319H567.667V316.667H567.333V316.333H567V316H566.667V313.667H566V313.333H565.667V312H565.333V311.667H565V311.333H564.667V310H564.333V309.667H564V309.333H563.667V308H563.333V307.667H563V307.333H562.667V307H562.333V306.667H562V306H561.667V305.333H561.333V305H561V304.333H560.667V304H560V303.333H559.667V303H559V302.333H558.667V302H558V301.333H557.667V301H556V300.333H555.667V300H555V299.333H554.667V299H553.333V298.667H553V298H551.333V297.667H551V297H549.333V296.333H548.667V296H548V296.333H547V296H546.333V295.333H533.333V295H532.667V295.333H532.333V295.667H532V296H531.333V296.333H531V296H530V296.333H529.333V297H527.667V297.333H527.333V298H526.667V298.333H526.333V299H524.667V299.333H524.333V300H523.667V300.333H523.333V301H522.667V301.667H522.333V302H521.667V302.667H521.333V303H520.667V303.667H520.333V304H519.667V304.667H519.333V305H518.667V305.667H518.333V306H517.667V307.667H517.333V308H516.667V309.667H516V310H515.667V311.667H515V312H514.667V313.667H514V314H513.667V316.333H513.333V316.667H513V317H512.667V326.667H513V327.333H513.333V327.667H513.667V328.333H514V329H514.667V330.333H515V332.333H514.667V333H514V333.667H513.667V334H513V334.667H482.667V334.333H482.333V334H481V333.667H480.667V333H480V329H480.667V328.333H481V328H481.667V327.333H482V327H482.667V326.333H483V326H482.667V323.667H483V318H482.667V317.667H482.333V317.333H482V314H481.667V313.667H481V311H480.667V310.667H480V309H479.333V308.667H479V308.333H478.667V308H478.333V307.667H478V306H477.333V305.667H477V305.333H476.667V305H476.333V304.667H476V304H475.333V303.667H475V303H474.333V302.667H474V302H473.333V301.667H473V301H472.333V300.667H472V300H471.333V299.333H471V299H470.333V298.667H470V298.333H469.333V298H468.333V297.333H468V297H466.667V296.667H466.333V296.333H466V296H465V296.333H464V296H463.667V295.667H463.333V295.333H463V295H462.667V295.333H460.333V295H459V294.667H458.667V294.333H452.333ZM279.667 297V297.333H279.333V297.667H279V298H277V298.333H276.667V299H275V299.667H274.667V300H273V300.667H272.667V301H271V301.667H270.667V302H269.333V302.333H269V302.667H268.667V303H267.333V303.333H267V304H265.333V304.333H265V305H263.333V305.667H263V306H261.333V306.667H261V307H259.667V307.333H259.333V307.667H259V308H258.667V308.333H258.333V308.667H256.667V309.333H256.333V309.667H254.667V310.333H254.333V310.667H253.333V311H253V311.333H252.667V311.667H252V312H251.667V312.667H250V313H249.667V313.667H249V314H248.667V314.667H248V315H247.667V331.667H248.333V332H249.333V331.667H249.667V331H251.333V330.333H251.667V330H253.333V329.333H253.667V329H255V328.667H255.333V328H257V327.667H257.333V327H259V326.667H259.333V326H261V325.667H261.333V325H263V324.333H263.667V324H265V323.333H266.667V323H267V322.333H268.667V322H269V321.333H270.667V320.667H271V320.333H272.667V320H273V319.667H273.333V319.333H275.333V319H275.667V318.333H277.333V318H277.667V317.333H279.333V316.667H279.667V316.333H281.333V297.333H281V297H279.667ZM713.667 297V297.333H713.333V316.333H715V316.667H715.333V317.333H717V318H717.333V318.333H719V319H719.333V319.333H721V320H721.333V320.333H723V321H723.333V321.333H725.667V322H726V322.333H727.667V323H728V323.333H729.667V324H731V324.333H731.667V325H733.333V325.333H733.667V326H735.333V326.333H735.667V327H737.333V327.667H737.667V328H739.333V328.667H739.667V329H741V329.333H741.333V329.667H741.667V330H743V330.333H743.333V330.667H743.667V331H745V331.333H745.333V331.667H745.667V332H746.667V331.667H747V315H746.667V314.667H746V314H745.667V313.667H745.333V313.333H745V313H744.667V312.667H744V312H743.667V311.667H742V310.667H740.667V310.333H740.333V310H740V309.667H739.333V309.333H739V308.667H737.333V308.333H737V307.667H735.333V307H735V306.667H734.333V307H733.667V306.667H733.333V306H731.667V305.667H731.333V305H729.667V304.333H729.333V304H727.667V303.333H727.333V303H725.667V302H724V301.667H723.667V301H722V300.667H721.667V300H720V299.333H719.667V299H718V298.333H717.667V298H715.333V297.667H715V297.333H714.667V297H713.667ZM750.333 315.333V315.667H750V316.333H749.667V316.667H749.333V317.333H750V333.667H750.667V334H751V334.667H752.667V335H753V335.667H754.667V336H755V336.667H755.667V337.333H756V337.667H757.667V338.333H758V338.667H759.667V339.333H760V339.667H760.667V340.333H761V340.667H762.667V341.333H763V341.667H763.667V342.333H765V342.667H765.333V343H765.667V343.333H766.333V343.667H766.667V344H767.333V344.333H768V344.667H768.333V345H768.667V345.333H769.667V345.667H770V346H770.667V346.333H771V346.667H771.333V347H771.667V347.333H772V347.667H772.333V348H773.667V348.333H774V349H775V333.333H774.667V333H774V332.333H773.667V332H773V331.333H772.667V331H772.333V330.667H772V330.333H771.667V330H771V329.333H770.667V329H770V328.333H769.667V328H768.333V327.667H768V327.333H767.667V327H767.333V326.667H767V326.333H766.667V326H766.333V325.667H766V325.333H764.667V325H764.333V324.667H764V324.333H763.667V324H763.333V323.667H763V323.333H762.667V323H762.333V322.667H762V322.333H760.667V322H760.333V321.667H760V321.333H759.667V321H759.333V320.333H757.667V320H757.333V319.667H757V319.333H756.667V319H756.333V318.333H754.667V317.667H754.333V317.333H753.667V317H753.333V316.667H752V316.333H751.667V315.667H751V315.333H750.333ZM243.333 316.333V316.667H243V317.333H241.333V317.667H241V318.333H240V318.667H239.333V319H239V319.333H238.333V319.667H238V320.333H236.333V321H236V321.333H235.333V322H235V322.333H233.333V323H233V323.333H232.667V323.667H232.333V324H232V324.333H231V324.667H230.667V325H230V325.333H229.667V325.667H229.333V326H229V326.333H228.667V326.667H228.333V327H228V327.333H226.667V328H226V328.333H225.667V328.667H225.333V329H225V329.333H224.667V329.667H224.333V330H223.667V330.333H223.333V330.667H223V331H222.333V331.333H222V331.667H221.667V332H221V332.333H220.667V333H219.667V335.333H219.333V335.667H219V336.333H218.667V337.667H219V339.333H219.333V339.667H219.667V348.667H220V349H220.333V348.667H220.667V348.333H221V348H221.333V347.667H221.667V347.333H223.333V346.667H223.667V346.333H224V346H224.333V345.667H224.667V345.333H226V345H226.333V344.667H226.667V344.333H227V344H227.333V343.667H227.667V343.333H229V343H229.333V342.667H229.667V342.333H230V342H230.333V341.667H231.667V341.333H232V341H232.333V340.667H233.667V340.333H234V339.667H234.667V339.333H235V338.667H236.667V338.333H237V337.667H238.667V337.333H239V336.667H240.667V336H241V335.667H242V335.333H242.333V335H243V334.667H243.667V334H244V333.667H245.667V332H245V331.667H244.667V318.333H245V317.333H244.667V316.667H244.333V316.333H243.333ZM314.333 322.333V323H314V323.333H312V323.667H311.667V324H311V324.333H310.667V324.667H310.333V325H310V325.333H308.667V325.667H308.333V326H308V326.333H307.667V326.667H307.333V327H307V327.333H306.667V327.667H306.333V328H306V328.333H305.667V328.667H305.333V329H305V329.333H304.667V329.667H304.333V330H304V330.333H303.667V330.667H303.333V331H302.667V332.667H302.333V333H301.667V333.667H301.333V334H300.667V335.667H300.333V336H299.667V337.667H299V338H298.667V340.667H298V341H297.667V346.333H297V346.667H296.667V348.667H297V349H297.333V349.333H297.667V350.667H298V351H298.667V352.333H299V352.667H299.333V353H299.667V354H297V354.667H296.667V355H296V355.667H295.667V356H287V356.333H286.667V356.667H286V357H281V357.333H280.667V357.667H277.333V358H277V358.333H276.667V358.667H274.333V358.333H272.667V358H272V357.333H271.667V356.333H272V355.667H272.667V355H273.333V354.667H273.667V354H274.333V353.667H274.667V353H275.333V352.667H275.667V352H276.333V351.667H276.667V350H277.333V349.667H277.667V347.333H277.333V346.667H277V346.333H276.667V345.667H276.333V345.333H275.667V343.667H275.333V343.333H274.667V342.667H274.333V342.333H272.667V341.667H272.333V341.333H266.667V341.667H266.333V342H266V342.333H264.667V342.667H264.333V343.333H263.667V343.667H263.333V344.333H262.667V344.667H262.333V345.333H262V346H261.667V346.333H261.333V347H261V347.333H260.667V347.667H260.333V348.333H259.667V348.667H259.333V350H259V350.333H258.333V352.333H258V352.667H257.667V353.333H257.333V355H256.667V355.667H256.333V358.667H256V359H255.667V359.333H255.333V364H255V364.333H254.667V365H254.333V393H254V393.333H253.667V469.667H254.667V470.333H255.333V470H255.667V469.667H268V469.333H272V469H272.667V468.667H273.667V468H274V467.667H275.333V467.333H275.667V467H276V466.667H276.667V359.667H279.667V359.333H280V359H280.667V358.667H286.667V358.333H287V358H288V357.667H295.667V358H296V383.333H296.333V384H296V384.333H296.333V388.667H296.667V467.333H297V467.667H302.333V467.333H302.667V467H303.667V466.667H306.667V467H307.333V466.667H318.667V466H319.667V465.667H320V466H329V465.667H329.667V464.667H330V464.333H330.333V463H330.667V439H331V438.667H331.333V438H331.667V413H332V412.667H332.333V412H332.667V388.667H333V388.333H333.333V387.333H333.667V369.333H334V369H334.333V368H334.667V367H334.333V362H334.667V357.667H334.333V356.333H334.667V355.667H335.333V349.333H334.667V349H333.667V349.333H333V349H332.667V348.667H332.333V348.333H331.667V343.333H332.333V343H332.667V341H333V340.667H333.333V340H333.667V338.333H333.333V338H333V337.667H332.667V333.333H332.333V333H331.667V331.333H331.333V331H330.667V329.333H330.333V329H329.667V328.333H329.333V328H329V327.667H328.667V326.667H328.333V326.333H327.667V326H327V325.667H326.667V325.333H326V325H325.667V324.333H325V324H324.667V323.333H322V322.667H321.667V322.333H314.333ZM675 322.333V322.667H674.667V323.333H672V323.667H671.667V324.333H670V325H669.667V325.333H669V326H668.667V326.333H668V327H667.667V327.333H667V328H666.333V328.333H666V329H665.333V329.333H665V331H664.333V331.333H664V333H663.333V333.333H663V336.667H662.333V337H662V341.667H662.333V342.333H663V348.333H662.333V348.667H662V349H661.667V349.333H661V349H660.667V349.333H660.333V350H659.667V350.333H659.333V355H659.667V355.333H660V356.333H660.333V357.333H660V362.333H660.333V368H660V369H660.333V370.667H660.667V371H661V393.667H661.333V395H661.667V395.333H662V418.667H662.333V419.667H662.667V420.333H663V445.667H663.333V446.667H663.667V447H664V464.667H664.333V465H665V465.667H665.667V466H672V466.333H672.333V466.667H687.667V467H689V467.333H689.333V467.667H697.667V467H698V370H698.333V366.667H698V360.333H697.667V359H698V358.667H698.667V358H699V357.667H700V357.333H700.333V357H703.333V357.333H703.667V357.667H709.333V357.333H709V357H703.667V356.333H703.333V356H699V355.667H698.667V355H697.333V354.667H697V354.333H696.667V354H696V352H696.667V351.667H697V350H697.667V349.667H698V345H697.667V344.667H697.333V344.333H697V341H696.667V340.667H696V338H695.667V337.667H695V336H694.667V335.667H694V334H693.333V333.667H693V332H692.333V331.667H692V331.333H691.667V331H691.333V330.667H691V330.333H690.667V330H690V328.333H689.333V328H689V327.667H688.667V327.333H688V327H687.333V326.667H687V326.333H686.667V326H686.333V325.667H686V325.333H685.667V325H685V324.333H683.333V324H683V323.333H680.667V323H680.333V322.667H680V322.333H675ZM777 335.667V336.333H776.667V344.667H777V346.667H777.333V347H777.667V350.667H778V351H778.667V351.333H779V352H779.667V352.667H780V353H780.667V353.667H781V354H782V354.333H782.333V354.667H783V355H783.667V355.667H784.333V356H784.667V356.667H785.333V357H785.667V357.667H786.333V358.333H786.667V358.667H787.333V359.333H787.667V359.667H788.333V360.333H788.667V360.667H789.333V361.333H789.667V361.667H791V362H791.333V362.333H791.667V362.667H792.333V363.333H792.667V363.667H793.333V364.333H793.667V364.667H794.667V364.333H795V363.333H794.667V363H794.333V362.333H794V352H793.333V351H793V350.333H792.667V350H792V349.333H791.333V348.667H791V348.333H790.667V348H790.333V347H790V346.667H789.667V346.333H789.333V345.667H789V345.333H788.333V344.667H788V344.333H787.333V343.667H787V343.333H786.333V342.667H786V342.333H785.333V341.667H784.667V341.333H784.333V340.667H783.667V340.333H783.333V339.667H782.667V339.333H782V339H781.667V338.667H780.667V338H780.333V337.667H779.667V337H779.333V336.667H778.667V336H778.333V335.667H777ZM216 336V336.667H215.333V337H215V337.667H214.333V338H214V338.333H213.667V338.667H213.333V339H213V339.667H212.333V340H212V340.333H211.667V340.667H211.333V341H211V341.333H210.667V341.667H210.333V342H210V342.333H209.333V342.667H208.667V343.333H208V343.667H207.333V344.333H207V344.667H206.667V345H206.333V345.333H205.667V346H205.333V346.333H204.667V347H204.333V347.333H204V347.667H203.667V348H203.333V348.333H202.667V349H202.333V349.667H202V350H201.667V351H201V351.333H200.667V359.667H200.333V361H200V361.333H199.667V363.667H200.333V364H200.667V364.333H201.333V363.667H202V363.333H202.333V362.667H203V362.333H203.333V361.667H204V361.333H204.333V360.667H206V360.333H206.333V359.667H207V359.333H207.333V358.667H208V358H208.333V357.667H209V357H209.333V356.667H210.667V356.333H211V356H211.667V355.667H212V355H212.333V354.667H213V354H213.333V353.667H214V353H215V352.667H215.333V352.333H215.667V351.667H216V351H216.667V350.667H217V336.333H216.667V336H216ZM724.333 340.333V340.667H724V341H723.667V341.333H721.333V341.667H721V342.333H720.333V342.667H720V343.333H719.333V343.667H719V344.667H718.667V345H718.333V345.333H718V347.333H717.333V347.667H717V348.667H717.333V349H717.667V349.333H718V350.667H718.333V351H719V351.667H719.333V352H720V352.667H720.333V353H720.667V353.333H721V354H721.333V354.333H721.667V355H722V355.667H722.333V356H722.667V356.333H723V357.667H722.667V358H722V358.667H721.333V359H721V358.667H719.333V359H718.667V359.333H718.333V359.667H718V466.333H718.333V466.667H718.667V467H719V467.333H719.333V467.667H720V468H720.667V468.333H721V468.667H722V469H722.333V469.333H722.667V469.667H735.667V470H736.333V469.667H739.667V470H740V469.667H741V415.667H740.667V412.667H740.333V367.667H740V367H739.667V366.667H739.333V359.333H739V359H738.667V358.667H738.333V355.333H738V355H737.333V352.333H736.667V352H736.333V350.333H735.667V350H735.333V348.333H734.667V348H734.333V346.667H734V346.333H733.333V345.667H733V345.333H732.333V344.667H732V344.333H731.333V343.667H731V343.333H730.333V342.667H730V342.333H729V342H728.667V341.667H728V341.333H726.667V341H726.333V340.667H724.667V340.333H724.333ZM796.333 355V355.333H796V365.333H796.667V365.667H797V367H797.333V367.333H798V368H798.333V368.333H799V369H799.333V369.333H800V370H800.333V370.333H801V371H801.333V371.333H802V372H802.333V372.333H803V374H803.333V374.333H804V375H804.333V375.333H805V376H805.667V377.667H806V378H806.667V378.667H807V379H807.667V380.667H808V381H808.667V381.667H809V382H809.667V382.333H810V382.667H810.333V382.333H810.667V380.333H810.333V380H810V379.667H809.667V376.333H809V376H808.667V373H808.333V372.667H808V372.333H807.667V370.667H807.333V370.333H806.667V368.667H806.333V368.333H806V368H805.667V366.667H805V366.333H804.667V364.667H804V364.333H803.667V363H803.333V362.667H803V362.333H802.667V361H802.333V360.667H801.667V360H801.333V359.667H801V359.333H800.667V358H800V357.333H799.667V357H799V356.333H798.667V356H798V355.333H797.667V355H796.333ZM196 356V356.333H195.667V357H195V357.333H194.667V358H194V358.333H193.667V359.667H193.333V360H193V360.333H192.667V360.667H192.333V361H192V362.333H191.667V362.667H191.333V363H191V363.667H190V365.333H189.667V365.667H189V367H188.667V367.333H188.333V367.667H188V368.667H187.667V369H187.333V369.333H187V371.333H186.333V371.667H186V373.333H185.667V373.667H185.333V374H185V377.333H184.667V377.667H184.333V378.333H184V383.667H184.333V384H184.667V383.667H185V382H185.667V381.667H186V380.333H186.333V380H186.667V379.667H187V379H187.667V378.667H188V377.333H188.333V377H188.667V376.667H189V376H189.667V375.333H190.333V375H190.667V374.333H191.333V374H191.667V372.333H192.333V372H192.667V371.333H193.333V371H193.667V370.333H194.333V370H194.667V369.333H195.333V369H195.667V368.333H196.333V368H196.667V367.333H197.333V367H197.667V356.333H197.333V356H196ZM710.333 358V358.333H710.667V358.667H714V358H710.333ZM232 358.667V359H231.333V359.667H229.667V360H229.333V360.667H229V361H228.667V361.333H228.333V362H227.667V363H227.333V363.667H226.667V364.333H226.333V365.667H225.667V366H225.333V367H225.667V368.333H225.333V368.667H224.667V371.333H224V371.667H223.667V376H223.333V376.333H222.667V386.667H222.333V387H222V387.333H221.667V471.667H221.333V472H221V473H221.333V473.333H221.667V474H222V474.333H222.333V473.667H223V473.333H224.667V473.667H228V473.333H229V473H229.333V472.667H235.333V472.333H235.667V472H236V471.667H237.667V471.333H238V461H238.333V456.667H238.667V455.333H238.333V450.333H238V405H238.333V403.667H238.667V400.667H239V366.667H238.667V366H238.333V365.667H238V362H237.667V361.667H237V361H236.333V360.667H236V360H235.333V359.667H235V359H234.667V358.667H232ZM761.667 359V359.333H761.333V359.667H760V360H759.667V360.667H759V361H758.667V361.667H758V362H757.667V363.667H757V364H756.667V377.667H756.333V383H756.667V471.333H757V471.667H758V472H758.333V472.333H759V472.667H765.333V473H765.667V473.333H767V473.667H772.333V473.333H773V472.333H773.333V471.667H773.667V468.333H774V435H773.667V433.667H773.333V432.333H773V417.333H772.667V417H772.333V416.667H772V415.667H772.667V415.333H773V388.667H772.667V388.333H772.333V388H772V376.333H771.333V376H771V370.667H770.667V370.333H770V367.667H769.333V367.333H769V366.333H769.333V366H769V365H768.667V364.667H768.333V364.333H768V363.667H767.333V362H767V361.667H766.333V361H765.667V360.667H765.333V360H765V359.667H762.667V359.333H762.333V359H761.667ZM204.667 378V378.333H203.667V379H203.333V379.333H202.667V379.667H202.333V380H202.667V380.333H202.333V381H202V381.333H201.667V381.667H201.333V383H200.667V384.667H200.333V385H199.667V388.667H199V389H198.667V394.333H198.333V394.667H198V395H197.667V476.333H205V475.667H205.333V475.333H209V474.667H209.333V474.333H210V473.667H210.333V444.667H210V424.333H210.333V382.667H210V382.333H209.667V382H209.333V381.667H209V381H209.333V379.667H209V379.333H208.667V379H208.333V378.667H208V378.333H207.667V378H204.667ZM788 378V378.333H787.667V378.667H787.333V379H787V379.333H786.333V381H786V381.333H785.667V381.667H785.333V383H785.667V383.333H785.333V384H784.667V384.667H784.333V424H784.667V444.667H784.333V474H784.667V474.333H785.333V474.667H785.667V475.333H789.333V475.667H789.667V476H790V476.333H795V476.667H795.333V477H795.667V476.667H796V476.333H797V459.333H796.667V433.667H796.333V433.333H796.667V429.333H797V395.667H796.333V395.333H796V389H795.333V388.667H795V385.333H794.667V385H794.333V384.667H794V383.333H793.667V383H793.333V382.667H793V381.333H792.667V381H792.333V380.667H792V379.667H791.333V379.333H790.667V379H790.333V378.667H790V378.333H789.667V378H788ZM185.333 401.333V402H184.667V402.333H183.333V403H183V403.333H182.333V404.667H182V405.333H181.333V408.667H181V409.667H180.333V479H180.667V479.333H185.667V478.667H186V478.333H189.667V478H190V449.333H190.333V445H190V443.333H190.333V436.667H190.667V409.333H190V405.667H189.667V405.333H189.333V405H189V403.667H188.667V403.333H188.333V403H188V402.667H187.667V402.333H187V402H186.667V401.667H186V401.333H185.333ZM808 402.333V402.667H807.667V403H807.333V403.333H807V403.667H806.667V404H806.333V404.333H806V404.667H805.667V405H805.333V405.333H805V405.667H804.667V410.333H804.333V411.333H804V429H803.667V474.333H804V474.667H803.667V476.667H804V477.333H804.667V477.667H805V478H805.333V478.333H805.667V478.667H806V479.333H811.667V480H812V480.333H813V480H813.667V479.667H814V479.333H814.333V411.667H814V411.333H813.667V410.667H813.333V406.333H813V406H812.667V405.667H812.333V404.333H812V404H811.667V403.667H811.333V403.333H810.667V402.667H810.333V402.333H808ZM279 505.333V505.667H278V506H277.333V506.333H215.667V506.667H215.333V507H215V507.333H184.333V508H184.667V508.333H807.667V508H808.667V507.667H808V507.333H785.333V507H784.667V506.667H784.333V506.333H714.333V506H714V505.667H712.667V505.333H279ZM202 526.667V527H199.667V527.333H189.667V527.667H188.333V528.333H190V528.667H198.667V529H204.667V529.333H207.333V529H208.333V529.333H210V529H215.667V529.333H233V529.667H234V530H235V530.333H285.667V530.667H287.667V531H290V531.333H706.333V531H708V530.667H710V530.333H753.667V530H755V529.667H756V529.333H781.333V529H785V528.667H799V528.333H800.667V528H801V527.667H799.333V527.333H786.333V527H775.333V527.333H744.333V527.667H732.667V528H726.667V527.667H725.333V528H723.667V528.333H667V528.667H605.333V529H592.667V529.333H591V529H589.333V529.333H355V529H347V528.667H346.333V529H345V528.667H317.333V528.333H267.667V528H265V527.667H246.667V527.333H213V527H207.667V526.667H202ZM262.333 542V542.667H262V543H260.333V543.333H260V543.667H259.333V544H258.667V544.333H258.333V544.667H258V545H256.667V545.333H256.333V545.667H256V546H255.667V546.333H255.333V546.667H255V547H254.667V547.667H254V548H253.667V548.667H253.333V549H253V549.333H252.667V550.667H252V551H251.667V551.667H251V552H250.667V553.333H250.333V553.667H249.667V555.333H249.333V555.667H248.667V558.333H248V558.667H247.667V562.333H247V562.667H246.667V566.333H246V566.667H245.667V572.333H245.333V572.667H245V573H244.667V583H245V583.333H246.667V584H247V584.333H249.667V584.667H250V585H250.667V585.333H255V585.667H255.667V586H256.333V586.333H261.333V586.667H261.667V587H262.333V587.333H267V591H265V590.667H264.667V590.333H263.667V590H258V589.667H257.667V589.333H253V589H252V588.667H251.667V588.333H247V588H246.667V587.333H245V587.667H244.667V589.667H245V590.333H245.667V609.667H246V611.333H246.333V612.333H246.667V640.333H247V641.667H247.333V642.333H247.667V673H248V674H248.333V675.333H248.667V699.333H249V699.667H249.333V700H250.333V699.667H250.667V699H253V698.667H253.333V698.333H253.667V698H256V697.333H256.667V697H257.667V697.333H258V697H258.667V696.667H259V696.333H261V696H261.667V695.667H262V695.333H264.333V695H264.667V694.667H265V694.333H269V695H269.333V695.333H272.333V695.667H272.667V696H273V696.333H275.667V697H276.333V697.333H277V697H278.333V697.333H278.667V698H279.333V698.333H281V698H282V698.333H282.333V698.667H282.667V699H285V699.333H285.333V700H289V700.333H289.333V701H292.667V700.667H293V615H293.333V613.667H293.667V610.333H294V591.333H293.667V591H293.333V590.667H293V589.667H292.667V589.333H292.333V589H292V588.667H291.667V588.333H291V587.333H291.333V587H291.667V586.667H292V586.333H292.667V586H293V577H292.333V576.667H292V572.667H291.667V572.333H291.333V572H291V569.667H290.667V569.333H290.333V569H290V567H289.333V566H289V565H288.667V564.667H288.333V564H288V562.667H287.667V562.333H287.333V561.333H287V560.667H286.667V560.333H286.333V559.667H286V559.333H285.667V559H285.333V557.667H285V557.333H284.333V555.667H283.667V555.333H283.333V555H283V554.667H282.667V554.333H282.333V553.333H282V553H281.667V552.667H280.667V552.333H280.333V551.667H279.667V551.333H279.333V550.667H278.667V550H278.333V549.667H277.667V549H277V548.667H276.667V548H276V547.667H275.667V547H275V546.667H274.667V546H274.333V545.667H272.667V545H272V544.667H271.667V544.333H271.333V544H270V543.667H269.667V543.333H269.333V543H267V542.667H266.667V542H262.333ZM727 542V542.333H726.667V543H724.667V543.667H723.667V544H723V544.333H722.667V545H721V545.667H720.667V546H720V546.667H719.333V547H719V547.333H718.667V547.667H717.333V548H717V548.667H716.667V549H716.333V549.333H716V549.667H715.667V550H715.333V551.333H715V551.667H714.333V552.333H714V552.667H713.333V553.333H713V553.667H712.333V554.333H712V554.667H711.333V555.333H711V555.667H710.667V556H710.333V557.333H710V557.667H709.333V559H709V559.333H708.667V559.667H708.333V560.333H708V560.667H707.667V561H707.333V562.333H707V562.667H706.667V564H706.333V564.667H706V565H705.667V566.333H705.333V567H705V567.333H704.667V569H704.333V569.333H704V570H703.667V572.667H703.333V573H702.667V577.333H702.333V577.667H702V578H701.667V585H702V585.333H702.667V587H703V587.333H703.667V588.333H703V589H702.667V589.333H702V589.667H701.667V591H701.333V591.333H700.667V665.667H701V666.667H701.333V667.333H701.667V700.667H702V701H706.333V700.333H706.667V700H710.333V699.333H710.667V699H713.333V698.667H713.667V698.333H714.333V698H716V698.333H716.333V698H717V697.333H717.333V697H718.667V697.333H719.333V697H719.667V696.667H720V696.333H722.333V696H722.667V695.667H723V695.333H725.333V695H725.667V694.333H729V695H730V695.333H732.333V695.667H732.667V696H733V696.333H735.333V696.667H735.667V697H736.333V697.333H737V697H737.667V697.333H738.333V697.667H738.667V698H741V698.333H741.333V698.667H741.667V699H744V699.667H744.333V700H746.333V699.667H746.667V699H747V651.667H747.333V651.333H747.667V649.667H748V618.333H748.333V618H748.667V616H749V590.667H749.333V590.333H749.667V589.667H750V589.333H749.667V589H750V588.333H750.333V588H750.667V587.333H749V587.667H748.333V588H746.333V588.333H741.667V588.667H739.333V589H737.333V589.333H731.667V589.667H730.667V590H727.333V589.667H727V589.333H726.667V588H727V587.667H727.333V587.333H728V587H728.667V586.667H729V586.333H730V586.667H731V586.333H735.333V586H736V585.667H737.667V585.333H741.667V585H742V584.667H742.667V584.333H746.667V584H747V583.667H747.333V583.333H749.667V583H750V571H749.667V570.333H749.333V570H749V565.667H748.667V565H748V561.667H747.667V561.333H747V558.667H746.667V558.333H746V556.667H745.333V556.333H745V554.667H744.333V554.333H744V552.667H743.333V552.333H743V550.667H742V550H741.667V549.667H741.333V549.333H741V549H740.667V548.667H740.333V548.333H740V547.667H739.667V547.333H739.333V547H739V546.667H738.333V546H737.667V545.667H737.333V545.333H737V545H736.667V544.667H736.333V544.333H736V544H734.667V543.667H734.333V543H732.667V542.667H732V542.333H731.667V542H727ZM204.667 543V543.667H204.333V544H203.667V544.333H203.333V544.667H203V545H202.667V545.333H202.333V545.667H202V546H201.667V547.667H201V548H200.667V549.333H200.333V549.667H199.667V551.333H199.333V551.667H198.667V554.333H198.333V554.667H198V555H197.667V561.333H197V561.667H196.667V571.667H197.333V572H198V572.667H199.333V573H199.667V573.667H201.333V574H201.667V575.333H201.333V575.667H198V576H197.667V576.333H197.333V576.667H197V577H196.667V643H197V646.333H197.333V649H197.667V674.667H198V675H200V674.667H200.333V674.333H200.667V674H202V673.667H202.333V673.333H202.667V673H204.333V672.333H205V672H206.667V671.667H207V671.333H207.333V671H208.333V670.333H209V670H211V669.333H211.333V669H213.667V668.667H214V668H215V636.333H215.333V636H215.667V634.333H216V557H215.667V556.667H215.333V556.333H215V553H214.667V552.667H214V550H213.667V549.667H213V548H212.667V547.667H212V547H211.667V546.667H211V545H210V544.667H209.333V544.333H209V544H208.333V543.667H208V543H204.667ZM786.667 543V543.333H786.333V544H785.333V544.333H785V544.667H784.667V545H784V545.333H783.667V546.667H783V547H782.667V547.667H782V548H781.667V549.667H781V550H780.667V551.667H780V552H779.667V555.667H779.333V556H779V556.667H778.667V626H779V627H779.333V627.667H779.667V667.667H780V668H780.333V668.333H780.667V668.667H781V669H782.333V669.333H782.667V670H784.333V670.333H784.667V671H786.333V671.333H786.667V672H788.333V672.333H788.667V673H790.333V673.333H790.667V673.667H791V674H793.333V674.667H793.667V675H795V675.333H795.333V675.667H795.667V676H796.667V675.667H797V649H797.333V647H797.667V644H798V576H797.333V575.667H797V575H796.667V574.667H795.333V575H794.333V574.333H794V573.667H794.333V573.333H795V573H795.333V572.667H796V572H796.333V571.667H797V571H797.333V570.667H798V561.333H797.667V561H797.333V560.667H797V554.667H796.333V554.333H796V551.667H795.333V551.333H795V549H794.667V548.667H794V547.333H793.667V547H793.333V546.333H793V546H792.667V545.667H792.333V545.333H792V545H791.333V544.333H791V544H790.667V543.667H790V543H786.667ZM350.667 543.667V544H349V544.333H348.333V544.667H345.667V545H345V545.667H342.667V546H342.333V546.333H342V546.667H340.667V547H340.333V547.667H339.333V548H338.667V548.333H338.333V548.667H337.667V549H337.333V549.667H336.667V550.333H336.333V550.667H335.333V551H335V551.333H334.667V551.667H334V552H333.667V552.333H333.333V552.667H332.667V553.333H332.333V553.667H332V554H331.667V554.667H331.333V555H331V555.667H330.667V556.333H330.333V556.667H329.667V557.333H329.333V557.667H328.667V559H328.333V559.333H328V559.667H327.667V560.333H327.333V560.667H327V561.667H326.667V562.333H326V563H325.667V564H325.333V564.333H325V566H324.667V566.333H324V568H323.333V568.333H323V570.333H322.667V570.667H322.333V571H322V573.667H321.667V574H321V577H320.667V577.333H320.333V577.667H320V581.667H319.333V582H319V586H319.333V586.333H327.667V587H328V587.333H339V587.667H339.333V588H340V588.333H343V588.667H343.333V589H343.667V589.333H345V589.667H345.333V590H345.667V591H344.667V591.333H344V592H333.667V591.667H333.333V591.333H333V591H320.333V591.333H320V714.333H320.667V714.667H322.333V714.333H322.667V714H323V713.667H325.333V713.333H325.667V712.667H328.333V712.333H328.667V711.667H331.333V711H331.667V710.667H334.333V710H334.667V709.667H344V710H344.333V710.333H344.667V710.667H349.667V711H350V711.333H350.333V711.667H354.667V712H355V712.333H355.667V712.667H360.667V713.333H361.667V713.667H367.333V714.333H368V714.667H372.667V714.333H373.667V714.667H374V715.333H381.667V716H382V716.333H384.333V716H384.667V648H385V647.667H385.333V647.333H385.667V646.333H385.333V644.333H385.667V602.333H385.333V601.333H385.667V600.667H387V601H388V601.333H393.667V601.667H412.667V602.333H413V603H413.333V609.333H413V614.333H412.667V657H413V660.667H413.333V724.667H413.667V725H414V724.667H414.333V724.333H414.667V724H416V723.667H416.333V723H418.667V722.667H419V722.333H419.333V722H421V721.333H422.667V721H423V720.333H424.667V720H425V719.333H426.667V718.667H427V718.333H429V718H429.667V718.333H441.667V718.667H442.333V719H442.667V719.333H462V719.667H462.333V720H463V720.333H481.667V719.667H482V607H481.667V605.667H482V605.333H483.333V605.667H511.333V605.333H512.667V606H513V607H512.667V719.667H513V720.333H530.333V720H530.667V719.667H531V719.333H552.333V719H553V718.333H565.333V717.667H565.667V717.333H566.667V717.667H567V718H567.333V718.333H567.667V718.667H568V719.333H569.667V720H570V720.333H571.667V721H572V721.333H573.667V722H575.333V722.333H575.667V723H577.333V723.333H578V723.667H578.333V724H579.333V724.333H579.667V724.667H580V725H581V724.667H581.333V601.667H610V604H609.667V604.333H609.333V606.333H609V643.333H609.333V648H609.667V648.667H610V713.333H610.333V715H610.667V715.333H611V716H611.333V716.333H612.667V716H613V715.333H619.667V714.667H620V714.333H621.333V714.667H626V714.333H626.333V713.667H632.667V713.333H633.333V713H633.667V712.667H639.667V712.333H640V711.667H646V711.333H646.333V711H646.667V710.667H650.333V710.333H650.667V709.667H654.333V709.333H655V709H655.333V708.667H658.333V709.333H658.667V709.667H661V710H661.333V710.667H663V711.333H663.333V711.667H666V712.333H666.333V712.667H668V713H668.333V713.333H668.667V713.667H670.667V714H671V714.333H671.333V714.667H672.333V714.333H673.333V714.667H673.667V715H674V715.333H674.333V715H674.667V591.667H674.333V591.333H674V591H657.667V591.333H656.333V591.667H656V592H651.667V591.667H651.333V591H649.667V590.333H649.333V589.333H652V589H652.333V588.667H652.667V588.333H655V588H655.333V587.333H668V587H668.333V586.667H668.667V586.333H675.333V586H675.667V581H675.333V580.333H674.667V575H674V574.667H673.667V571.333H673.333V571H672.667V568.667H672.333V568.333H672V568H671.667V566.333H671V566H670.667V564.333H670V564H669.667V562.333H669V562H668.667V560.667H668.333V560.333H668V560H667.667V559.333H667V558H666.667V557.667H666.333V557.333H666V556.667H665.333V556.333H665V555.667H664.333V555.333H664V554.667H663.667V554.333H663V553.333H662.333V553H662V552.667H661.667V552.333H661.333V552H661V551.667H660.333V551.333H660V550.667H659.333V550.333H659V549.667H658.333V549.333H658V548.667H656.333V548H656V547.667H654.333V547H654V546.667H652.667V546.333H652.333V546H652V545.667H650.333V545.333H650V545H649.333V544.667H647V544.333H646.333V544H645V543.667H644V544H636.333V544.333H635.667V544.667H633.667V545H633.333V545.333H633V545.667H631V546H630.667V546.333H630.333V546.667H628.667V547.333H628.333V547.667H628V548H627.667V548.333H627.333V548.667H625.667V549.667H625V550H624.667V550.667H624V551H623.667V551.667H623V552H622.667V552.667H622V553H621.667V553.667H621V554H620.667V554.333H620.333V554.667H620V555H619.667V555.333H619.333V555.667H619V556H618.667V556.333H618.333V556.667H618V557.333H617.333V557.667H617V558.333H616.333V558.667H616V559.333H615.333V559.667H615V560.333H614.333V560.667H614V561.333H613.333V561.667H613V562.333H612.333V562.667H612V564H611.667V564.333H611.333V564.667H611V565H610.667V565.333H610.333V565.667H610V567H609.667V567.333H609.333V567.667H609V569H608.333V569.667H608V571.667H607.667V572H607.333V572.667H607V573.667H607.333V574.333H607V575.667H606.333V586H606.667V586.333H607V587H607.333V587.667H607V588.667H607.333V589H607.667V589.333H608V590.667H608.333V591H609V591.333H609.333V592H610V592.667H610.333V593H611V593.667H611.333V594H612.667V594.333H613V594.667H613.333V595H614V595.667H614.667V597H614.333V597.333H614V597.667H613.667V598H612.667V597.667H575V597H564V596.667H563.667V596H562V594.333H562.333V594H564.667V593.667H565V593H568V592.333H568.667V592H576.667V591.667H577V591.333H577.333V591H581.333V590.333H581.667V590H582V589.667H582.333V580.667H582V580H581.667V579.667H581.333V575.333H581V575H580.667V574.667H580.333V572.333H580V572H579.333V569.333H578.667V569H578.333V567.333H577.667V567H577.333V565.667H577V565.333H576.667V565H576.333V563.667H575.667V563H575.333V562.333H574.667V562H574.333V560.667H574V560.333H573.667V560H573.333V559.667H573V559.333H572.667V559H572.333V558.667H572V558.333H571.667V558H571.333V557.333H570.667V556.333H570.333V556H570V555.667H569.667V555.333H569.333V554.667H568.667V554.333H568.333V553.667H567.333V553.333H566.667V552.667H566V552.333H565.667V551.667H565V551.333H564.667V550.667H563V550.333H562.667V549.667H561.667V549.333H561.333V549H561V548.667H560V548.333H559.667V548H559.333V547.667H557V547H556.667V546.667H554V546H553.333V545.667H541V546H540.667V546.667H537.667V547H537V547.667H535.333V548H535V548.333H534.667V548.667H533.333V549H533V549.667H531.333V550H531V550.667H530.333V551.333H530V551.667H528.333V552.333H528V552.667H527.333V553.333H527V553.667H526.333V554.333H526V554.667H525.667V555H525.333V555.333H525V555.667H524.333V556.333H524V556.667H523.667V557H523.333V557.333H522V557.667H521.667V558H521.333V558.333H521V558.667H520.667V559H520.333V559.333H520V559.667H519.667V560H519.333V560.333H519V560.667H518.667V561H518.333V561.333H518V561.667H517.667V562H517.333V562.333H516.667V564H516.333V564.333H516V564.667H515.667V565H515.333V565.333H515V565.667H514.667V567H514.333V567.333H514V567.667H513.667V568H513.333V568.333H513V568.667H512.667V569.667H513V570.667H512.667V571H512V571.667H511.667V572H512V573.667H511.667V574H511V579.667H510.667V580H510V584.333H510.333V584.667H510.667V585.333H511V590H511.667V590.333H512V593H512.667V593.333H513V594.667H513.333V595H513.667V595.333H514V595.667H514.333V596H514.667V597H515V597.667H515.667V598H516.333V598.333H516.667V598.667H517.333V599H517.667V599.333H518V599.667H518.333V600H518.667V601H518.333V601.333H518V601.667H516V602H515.667V602.667H479V602H478.667V601.667H477V599H477.333V598.667H478.667V598.333H479V597.667H479.667V597.333H480V596H480.333V595.667H480.667V595.333H481V595H481.333V594.667H481.667V593.333H482V593H482.667V591.333H483V591H483.667V586.333H484.333V586H484.667V578.667H484.333V578.333H484V578H483.667V574H483V573.667H482.667V572.333H483V571.667H482.667V571H482V570.667H481.667V569H481V567.333H480.333V567H480V565.333H479.333V565H479V564.667H478.667V564.333H478.333V564H478V563.667H477.667V563.333H477.333V563H477V561.667H476.667V561.333H476V560.333H474.333V559.667H474V559.333H473.333V559H473V558.667H472.667V558.333H472.333V558H472V557.667H471.667V557.333H471.333V557H471V556.667H470.667V556.333H470.333V555.667H469.667V555.333H469.333V554.667H468.667V554.333H468.333V553.667H467.667V553.333H467.333V552.667H466.667V552.333H466V551.667H464.667V551H464.333V550.667H463.667V550.333H463.333V550H462.667V549.667H461.667V549H461.333V548.667H459.667V548.333H459.333V548H459V547.667H457V547.333H456.667V546.667H453V546H452.667V545.667H442V546H441.667V546.667H439V547H438.333V547.333H438V547.667H436V548H435.667V548.667H434V549H433.667V549.667H432.333V550H432V550.333H431.667V550.667H431V551.333H430.667V551.667H430V552H429.667V552.333H429.333V552.667H428V553.333H427.667V553.667H427.333V554H427V554.333H426.667V554.667H426.333V555H426V555.333H425.667V555.667H425.333V556H425V556.333H424.667V556.667H424.333V557H424V557.333H423.667V557.667H423.333V558H423V558.667H422.333V560H422V560.333H421.333V561H421V561.333H420.333V562H420V563H419.667V563.333H419.333V564H419V564.333H418.333V566H418V566.333H417.333V567.333H417V568H416.667V568.333H416.333V570H415.667V570.333H415.333V572H415V572.333H414.667V572.667H414.333V575.667H414V576H413.667V576.333H413.333V581.333H413V581.667H412.667V582.333H412.333V589.667H412.667V590H413V590.333H413.333V590.667H413.667V591H417.333V591.333H417.667V591.667H418V592H426V592.333H426.333V592.667H426.667V593H429.667V593.333H430V594H432V594.333H432.333V594.667H432.667V596H431V596.667H430.667V597H418.667V597.333H418V597.667H382V598H381.333V597.667H380.667V596H381.333V595.667H381.667V595H382.333V594.667H382.667V594H383.333V593.667H383.667V593H384.333V592.667H384.667V592H385.333V591.333H385.667V591H386.333V590.667H386.667V589.333H387V589H387.333V588.667H387.667V588H387.333V586.667H387.667V586.333H388V586H388.333V575H387.667V574.667H387.333V573.333H387.667V571.333H387.333V571H386.667V570.667H386.333V569.667H386.667V569.333H386.333V568.667H386V568.333H385.667V567H385.333V566.667H385V566.333H384.667V565.667H384.333V565.333H384V565H383.667V563.333H382.667V562.667H382.333V562.333H381.667V561.667H381.333V561.333H380.667V560.667H380.333V560.333H379.667V559.667H379.333V559.333H378.667V558.667H378.333V558.333H378V558H377.667V557.667H377.333V557.333H377V557H376.667V556.667H376.333V556.333H376V556H375.667V555.667H375.333V555.333H375V555H374.667V554.667H374V554H373.667V553.667H373V553H372.667V552.667H372V552H371.667V551.667H371V550.667H369.333V550.333H369V550H368.667V549.667H368V549H367.667V548.667H366.333V548H365.667V547.667H365.333V547.333H365V547H364.667V546.667H363V546H362V545.667H360.333V545H359.667V544.667H356.667V544.333H356V544H354.667V543.667H354.333V544H351V543.667H350.667ZM156.333 658.667V659H156V663H156.333V663.333H156.667V663.667H157V667H157.667V667.333H158V669H158.333V669.333H158.667V669.667H159V671H159.667V671.667H160V672.667H160.333V673H161V674.667H161.667V675H162V675.667H162.667V676H163V676.667H163.333V677H163.667V677.333H164V678.333H164.333V678.667H164.667V679H165V679.333H165.333V679.667H165.667V680.333H166V680.667H166.667V681.333H167V681.667H167.667V682.333H168V682.667H168.667V683H169V683.333H169.333V683.667H169.667V684H170V684.333H170.333V684.667H171V685H171.333V685.333H172V685.667H172.333V686H172.667V686.333H173.333V686.667H173.667V687.333H174V687.667H174.667V688H175V688.333H176.333V689H176.667V689.333H177.333V689.667H177.667V690.333H179V690.667H179.333V691H179.667V691.333H180.333V691.667H180.667V692H181V692.333H182V692.667H182.333V693.333H184V693.667H184.333V694H184.667V694.333H185.333V695H186.333V695.333H187V695.667H187.333V696H188.667V696.333H189V697H190.333V697.333H191V698H191.667V698.333H192.333V699H193.667V699.333H194V699.667H194.333V700H195.667V700.333H196V701H197.667V701.333H198V702H200V702.333H200.333V702.667H200.667V703H202.333V703.333H202.667V703.667H203V704H204.333V704.333H204.667V704.667H205V705H206.333V705.333H206.667V705.667H207V706H209.333V706.667H210.667V707H211.333V707.667H213.667V708H214V708.333H214.333V708.667H215.667V709H216V709.333H216.333V709.667H218.667V710H219V710.667H221V711H221.333V711.333H221.667V711.667H223.667V712H224V712.333H224.333V712.667H226.333V713H226.667V713.333H227V713.667H229.333V714H229.667V714.333H230.333V714.667H231V714.333H232V714.667H232.333V715.333H235V715.667H235.333V716.333H238V716.667H238.333V717H238.667V717.333H241.333V717.667H242V718.333H244.667V718.667H245V719.333H247.667V719.667H248V720.333H251.667V721H252V721.333H254.667V721.667H255V722H255.667V722.333H257V722H258V722.333H258.333V722.667H258.667V723H262V723.333H262.333V724H265V724.333H265.667V724.667H266V725H269V725.333H269.333V726H272.667V726.333H273V727H276.667V727.667H277.333V728H280.333V728.333H280.667V728.667H281V729H283.333V728.667H283.667V729H284.333V729.667H285.333V730H286.667V729.667H287.667V730H288.333V730.667H291.667V731H292V731.333H292.333V731.667H295.667V732H296.333V732.333H296.667V732.667H300V733H300.667V733.667H304.667V734H305V734.333H305.333V734.667H309V735H309.333V735.333H310V735.667H314V736H314.333V736.333H314.667V736.667H319.333V737H319.667V737.333H320.333V737.667H325V738.333H325.667V738.667H330.333V739H330.667V739.333H332V739.667H336.333V740H336.667V740.333H341V740.667H342V741H342.333V741.333H347V741.667H347.667V742H348V742.333H352.667V742.667H353V743H353.667V743.333H358.667V743.667H359V744H359.333V744.333H364.667V744.667H365V745H365.333V745.333H371.333V745.667H371.667V746H372V746.333H378.667V747H379V747.333H386V748H386.667V748.333H394V748.667H394.333V749H395V749.333H402.333V749.667H402.667V750H404.333V750.333H410V750H411.333V750.333H412V750.667H412.333V751H423V751.333H424V751.667H424.333V752H436.667V752.333H438V752.667H438.667V753H457V753.333H457.667V753.667H458.667V754H530.333V753.667H531.667V753.333H532.667V753H552.333V752.667H552.667V752.333H553.333V752H567.667V751.667H568V751.333H568.667V751H579V750.667H579.333V750.333H580.667V750H581.667V750.333H588V750H589.667V749.667H590V749.333H598V749H598.667V748.667H599V748.333H606.667V748H607V747.333H614V747H614.333V746.667H614.667V746.333H621.667V746H622V745.667H622.333V745.333H628.667V745H629V744.667H629.333V744.333H635.667V744H636V743.333H642.333V743H642.667V742.667H643V742.333H648.333V742H648.667V741.667H649V741.333H654V741H654.333V740.667H655.333V740.333H659.667V740H660V739.667H660.333V739.333H661.333V739.667H663.667V739.333H665V739H665.667V738.667H669.667V738.333H670.333V738H670.667V737.667H674.667V737.333H675.333V737H675.667V736.667H679.667V736.333H680.333V736H680.667V735.667H684.667V735.333H685V735H685.667V734.667H689.333V734.333H689.667V734H690V733.667H693.667V733.333H694V733H694.667V732.667H698.333V732H699V731.667H702.667V731H704V730.667H706.667V730H710V729.667H710.667V729.333H711V729H714.667V728.667H715V728H718.667V727.667H719V727H722.333V726.667H722.667V726.333H723V726H726.333V725.667H726.667V725H730.333V724.333H730.667V724H733.333V723.667H733.667V723.333H734.333V723H737V722.667H737.333V722.333H737.667V722H738.667V722.333H739.667V722H740V721.333H743.667V721H744V720.333H746.667V720H747V719.667H747.333V719.333H750.667V718.667H751V718.333H753.333V718H753.667V717.333H757V717H757.333V716.667H757.667V716.333H760.333V715.667H760.667V715.333H763V715H763.333V714.667H764V714.333H764.667V714.667H765.333V714.333H766V714H766.333V713.667H768.333V713.333H769V712.667H770.667V712.333H771V712H771.333V711.667H773.667V711.333H774V710.667H776.667V710H777V709.667H778.667V709H779V708.667H781.333V708.333H781.667V708H782V707.667H783.333V707H783.667V706.667H785V707H785.667V706.667H786.333V706H787.667V705.667H788.333V705H790.667V704.667H791V704.333H791.333V704H792.667V703.667H793V703H794.667V702.667H795V702H796.667V701.667H797V701H798.667V700.667H799V700H800.667V699.333H801V699H802.667V698.333H803V698H804.667V697.333H805V697H806.667V696.333H807V696H808.333V695.333H809V695H809.333V694.667H809.667V694.333H811.333V693.667H811.667V693.333H812.667V693H813V692.667H813.333V692.333H814.333V691.333H816V690.667H816.333V690.333H817V690H817.333V689.333H819V688.667H819.333V688.333H820V688H820.333V687.333H821.333V686.667H822.333V686.333H823V685.667H823.667V685.333H824V684.667H824.667V684.333H825V683.667H825.667V683.333H826.333V683H826.667V682.667H827.333V682.333H827.667V681.667H828V681.333H828.333V681H828.667V680.667H829V680H829.333V679.667H829.667V679.333H830V678.667H830.667V678H831V677.667H831.667V677H832V676.667H832.667V675H833.333V674.667H833.667V674H834V673.667H834.333V673.333H834.667V672H835.333V671.667H835.667V669.667H836V669.333H836.333V669H836.667V667H837V666.667H837.333V666H837.667V662.333H838.333V662H838.667V660H838.333V659.667H837.667V661H837.333V661.667H836.667V663.333H836V663.667H835.667V664.333H835V664.667H834.667V666.333H834V666.667H833.667V667.333H833V668H832.667V668.333H832V669H831.667V669.333H831V670H830.667V670.333H830V671H829.333V671.333H829V672H828.333V672.333H828V673H827.333V673.333H827V674H826.333V674.333H825.667V674.667H825.333V675H824.333V675.667H824V676H823.333V676.667H823V677H821.667V677.333H821.333V677.667H821V678H820.333V678.667H820V679H818.667V679.333H818.333V679.667H818V680H817.667V680.333H817.333V680.667H816V681H815.667V681.333H815.333V681.667H814V682H813.667V682.667H812.667V683H812.333V683.333H812V683.667H811V684H810.667V684.667H809V685H808.667V685.667H807V686H806.667V686.667H805V687.333H804.667V687.667H803V688.333H802.667V688.667H801V689.333H800.667V689.667H799.667V689.333H799.333V689.667H799V690.333H797.333V690.667H796.667V691H796.333V691.333H794.667V691.667H794.333V692.333H792.667V692.667H792.333V693H792V693.333H790V693.667H789.667V694H789.333V694.333H787.667V694.667H787.333V695H787V695.333H785V695.667H784.667V696H784.333V696.333H782.667V697H782.333V697.333H780V697.667H779.667V698.333H777.667V698.667H777.333V699H775.333V699.333H775V700H772.333V700.667H772V701H769.667V701.333H769.333V701.667H769V702H766.333V702.333H766V702.667H765.667V703H763V703.333H762.667V703.667H762.333V704H759.667V704.667H759.333V705H757V705.333H756.667V705.667H756.333V706H755V705.667H754.333V706H753.667V706.333H753.333V706.667H750.333V707H750V707.667H747V708H746.333V708.333H746V708.667H743.333V709.333H743V709.667H739.667V710H739.333V710.667H735.667V711H735.333V711.333H735V711.667H731.333V712.333H730.667V712.667H727.333V713H727V713.333H726.333V713.667H723.333V714H723V714.333H719.667V714.667H719.333V715H719V715.333H715.667V715.667H715.333V716H715V716.333H711.333V716.667H711V717H710.667V717.333H707V717.667H706.667V718H706.333V718.333H702V718.667H701.667V719.333H697V720H696.667V720.333H692.333V720.667H692V721H691.667V721.333H687V721.667H686.667V722H686V722.333H685.333V722H682.667V722.333H681.667V723H677V723.333H676.333V723.667H676V724H671V724.333H670.333V724.667H670V725H665V725.333H664.667V725.667H664.333V726H659V726.333H658.667V726.667H658.333V727H652.667V727.333H652.333V727.667H651.667V728H647V728.333H646.333V728.667H646V729H640.667V729.333H640.333V729.667H639V730H634.333V730.333H634V730.667H633V731H632V730.667H630V731H628.333V731.333H627.667V731.667H622.667V732H621.333V732.333H621V732.667H615V733H614V733.333H613.667V733.667H606.667V734H606V734.333H605.667V734.667H598.333V735H597.667V735.333H597.333V735.667H588.667V736H588.333V736.333H588V736.667H578.333V737H577.667V737.333H577V737.667H566.333V738H566V738.333H565.667V738.667H552.333V739H552V739.333H551V739.667H531V740H530.333V740.333H528.667V740.667H528V740.333H503.667V740.667H491V740.333H463V740H462.333V739.667H442.333V739.333H441.667V739H441.333V738.667H428.667V738.333H428.333V738H428V737.667H417V737.333H416.667V737H416.333V736.667H407.333V736.333H407V736H406.333V735.667H397.667V735.333H397.333V735H396.667V734.667H389.667V734.333H389.333V734H388.333V733.667H382V733.333H381.333V733H380.667V732.667H374.667V732.333H374.333V732H373.333V731.667H368V731.333H367.667V731H365.667V730.667H363.667V731H362.667V730.667H361.667V730.333H361.333V730H356.333V729.667H355.333V729.333H355V729H350V728.667H349.333V728H344V727.667H343.333V727.333H343V727H337.667V726.667H337.333V726.333H336.667V726H331.667V725.667H331.333V725.333H331V725H325.667V724.667H325.333V724.333H324.667V724H320V723.333H319.333V723H314.667V722.333H313.667V722H309.333V721.333H304.667V721H304.333V720.333H299.667V719.667H299.333V719.333H295V719H294.667V718.333H290V717.667H289.667V717.333H285.333V716.667H285V716.333H281.333V715.667H281V715.333H277.333V715H277V714.667H276.333V714.333H272.667V713.667H272V713.333H271.667V713.667H269.333V713.333H269V713H268.667V712.667H265.333V712.333H265V712H264.667V711.667H260.667V711.333H260.333V711H260V710.667H256.333V710H256V709.667H252.667V709H252.333V708.667H249.667V708.333H249.333V707.667H245.667V707H245.333V706.667H244.333V707H243V706.667H242.667V706H242.333V705.667H241.333V706H240.333V705.667H239.667V705H237V704.667H236.667V704.333H236.333V704H233.333V703.333H233V703H230.333V702.333H230V702H227.333V701.333H227V701H224.667V700.667H224.333V700.333H224V700H222V699.667H221.667V699.333H221V699H219.667V698.667H219.333V698.333H217V698H216.667V697.333H214.333V697H214V696.667H213.667V696.333H212V696H211.667V695.667H211.333V695.333H209.333V695H209V694.333H207V694H206.667V693.667H206.333V693.333H204.333V692.667H204V692.333H202.333V692H202V691.667H201.667V691.333H199.667V691H199.333V690.667H199V690.333H197.667V690H197.333V689.667H196.333V689.333H195.667V689H195.333V688.667H194V688.333H193.333V688H193V687.667H191.333V687.333H191V687H190.667V686.667H189V686.333H188.667V685.667H187V685H186.667V684.667H185V684H184.667V683.667H184V683.333H183.333V683H183V682.667H182V682H181.667V681.667H180.333V681.333H180V681H179.667V680.667H179V680.333H178.667V680H177.667V679.667H177.333V679.333H177V679H176.667V678.667H175.667V678.333H175.333V678H174.667V677.667H174.333V677H173.667V676.667H172.667V676H171.667V675.667H171.333V675H170.667V674.667H170.333V674.333H170V674H168.667V673.333H168.333V673H167.667V672.333H167.333V672H166.667V671.333H166.333V671H165.667V670.667H165.333V670.333H165V670H164.333V669.667H164V669.333H163.667V669H163.333V668.667H163V668H162.667V667.667H162.333V667.333H162V667H161.667V666.667H161.333V666.333H161V665.667H160.667V665.333H160V664.667H159.667V664.333H159.333V664H159V662.667H158.667V662.333H158V660.667H157.333V660.333H157V658.667H156.333Z" fill="white"/>
<path d="M482.667 326.667H483V327.333H482.667V327.667H482.333V328H482V328.333H481.667V328.667H481.333V329H481V329.333H480.667V329.667H480.333V332.667H481V333.333H481.333V333.667H482.667V334H483V334.333H513V334.667H482.667V334.333H482.333V334H481V333.667H480.667V333H480V329H480.667V328.333H481V328H481.667V327.333H482V327H482.667V326.667Z" fill="#FEDFD1"/>
<path d="M213.333 325H214V325.667H213.667V326H213.333V326.333H213V326.667H212.667V327H212.333V327.333H212V327.667H211.667V328H211.333V328.333H211V328.667H210.667V329H210.333V329.333H210V329.667H209.667V330H209.333V330.333H209V330.667H208.667V331H208.333V331.333H208V331.667H207.667V332H207.333V332.333H207V332.667H206.667V333H206.333V333.333H206V333.667H205.667V334H205.333V334.333H205V334.667H204.667V335H204.333V335.333H204V335.667H203.333V335H203.667V334.667H204V334.333H204.333V334H204.667V333.667H205V333.333H205.333V333H205.667V332.667H206V332.333H206.333V332H206.667V331.667H207V331.333H207.333V331H207.667V330.667H208V330.333H208.333V330H208.667V329.667H209V329.333H209.333V329H209.667V328.667H210V328.333H210.333V328H210.667V327.667H211V327.333H211.333V327H211.667V326.667H212V326.333H212.333V326H212.667V325.667H213V325.333H213.333V325Z" fill="#F9EFD9"/>
<path d="M565.667 717.333H566.667V717.667H567V718H567.333V718.333H567.667V718.667H568V719.333H569.667V720.333H569.333V719.667H567.667V719H567.333V718.667H567V718.333H566.667V718H566V718.333H565.667V718.667H553.333V718.333H565.333V717.667H565.667V717.333Z" fill="#ECCBB7"/>
<path d="M482.667 326.667H483V327.333H482.667V327.667H482.333V328H482V328.333H481.667V328.667H481.333V329H481V329.333H480.667V329.667H480.333V332.667H481V333.333H481.333V333.667H482V334H481V333.667H480.667V333H480V329H480.667V328.333H481V328H481.667V327.333H482V327H482.667V326.667Z" fill="#F9E2BB"/>
<path d="M565.667 717.333H566.667V717.667H567V718H567.333V718.333H567.667V718.667H568V719.333H569.667V720.333H569.333V719.667H567.667V719H567.333V718.667H567V718.333H566.667V718H566V718.333H565.667V718.667H564.667V718.333H565.333V717.667H565.667V717.333Z" fill="#FAE4C9"/>
<path d="M628.667 351H630.333V351.333H629.333V351.667H629V352H628.667V352.333H628.333V352.667H628V353H627.667V353.667H628V354.333H628.333V354.667H627.667V354H627.333V352.333H627.667V352H628.333V351.333H628.667V351Z" fill="#F5E2D4"/>
<path d="M217.667 307.333H218V308H217.667V308.333H217.333V308.667H217V309H215.333V309.667H215V310H214.333V310.667H214V309.667H214.667V309.333H215V308.667H216.667V308H217V307.667H217.667V307.333Z" fill="#F7E2D6"/>
<path d="M214 353H215V353.333H214.333V354H213.667V354.333H213.333V355H213V355.333H212.667V355.667H212.333V356H211.667V355.667H212V355H212.333V354.667H213V354H213.333V353.667H214V353Z" fill="#FDDFBC"/>
<path d="M325 252.667H326.333V253H325.667V253.333H325.333V253.667H325V254H322.333V254.333H322V253.667H324.667V253H325V252.667Z" fill="#EDD6B4"/>
<path d="M777 709.667H778.667V710H777.667V710.333H777.333V710.667H777V711H774.333V710.667H776.667V710H777V709.667Z" fill="#F1DAC9"/>
<path d="M192.667 349H193V350.333H192.667V350.667H192.333V351H192V351.333H191.667V351.667H191.333V352.333H191V351.333H191.333V351H191.667V350.333H192V350H192.667V349Z" fill="#F7E1D1"/>
<path d="M191.667 333H192V334H191.667V334.333H191.333V334.667H191V335H190.333V335.333H190V336H189.667V335H190V334.667H190.667V334H191V333.667H191.667V333Z" fill="#F7DBAD"/>
<path d="M269 288.333H270.333V288.667H269.667V289H269.333V289.333H269V289.667H267.667V290H267V289.333H268.667V288.667H269V288.333Z" fill="#FCDFC1"/>
</svg>
