<svg viewBox="0 0 64 64" fill="none" xmlns="http://www.w3.org/2000/svg"><path fill-rule="evenodd" clip-rule="evenodd" d="M32.262 0c17.675 0 32.003 14.327 32.003 32 0 17.673-14.328 32-32.003 32C14.588 64 .26 49.673.26 32c0-17.673 14.328-32 32.002-32z" fill="#6039FF"/><path fill-rule="evenodd" clip-rule="evenodd" d="M32.264 16.293c8.676 0 15.71 7.034 15.71 15.71 0 8.677-7.034 15.711-15.71 15.711-8.677 0-15.711-7.034-15.711-15.71 0-8.677 7.034-15.711 15.71-15.711z" fill="#fff" fill-opacity=".2"/><path fill-rule="evenodd" clip-rule="evenodd" d="M31.42 8.986c.314-.308.692-.538 1.117-.538.424 0 .803.23 1.117.538.32.313.631.76.927 1.324.635 1.208 1.206 2.955 1.684 5.104.53 2.386.938 5.22 1.202 8.321 2.82-1.322 5.479-2.385 7.81-3.119 2.102-.66 3.901-1.04 5.265-1.095.637-.025 1.18.02 1.612.14.423.118.812.331 1.024.698.212.368.202.81.093 1.236-.111.435-.344.927-.684 1.465-.73 1.154-1.958 2.52-3.582 4.01-1.801 1.65-4.053 3.42-6.608 5.2 2.555 1.78 4.807 3.55 6.608 5.2 1.624 1.49 2.853 2.857 3.582 4.01.34.538.573 1.03.684 1.465.11.425.12.868-.093 1.236-.212.367-.6.58-1.024.698-.433.12-.976.166-1.612.14-1.364-.054-3.163-.434-5.265-1.095-2.331-.734-4.99-1.797-7.81-3.12-.264 3.101-.672 5.933-1.202 8.318-.478 2.15-1.049 3.896-1.684 5.104-.296.563-.606 1.01-.927 1.325-.314.307-.693.537-1.117.537-.425 0-.803-.23-1.118-.537-.32-.314-.63-.762-.927-1.325-.635-1.208-1.205-2.954-1.683-5.104-.53-2.385-.938-5.217-1.203-8.318-2.82 1.322-5.479 2.386-7.811 3.12-2.102.661-3.9 1.04-5.265 1.095-.636.026-1.18-.02-1.611-.14-.424-.118-.813-.331-1.025-.698-.212-.368-.202-.81-.093-1.236.112-.435.344-.927.685-1.465.729-1.153 1.957-2.52 3.581-4.01 1.802-1.65 4.053-3.42 6.608-5.2-2.555-1.78-4.806-3.55-6.608-5.2-1.624-1.49-2.852-2.856-3.581-4.01-.34-.538-.573-1.03-.685-1.464-.109-.426-.119-.87.093-1.236.212-.368.601-.58 1.025-.699.432-.12.975-.165 1.611-.14 1.364.054 3.163.434 5.265 1.095 2.332.734 4.991 1.798 7.811 3.12.264-3.102.672-5.936 1.203-8.322.478-2.15 1.048-3.896 1.683-5.104.296-.563.607-1.01.927-1.324zm-3.9 15.84c-2.914-1.382-5.654-2.486-8.032-3.234-2.065-.65-3.765-1-4.998-1.049-.577-.023-1.004.022-1.296.104-.301.084-.392.187-.414.224-.021.038-.065.168.012.47.076.294.25.685.559 1.173.658 1.042 1.812 2.338 3.408 3.801 1.837 1.684 4.163 3.504 6.818 5.335a99.451 99.451 0 013.722-2.402c.042-1.514.117-2.993.221-4.422zm.822 3.788c.04-1.128.096-2.233.17-3.31.97.475 1.956.978 2.953 1.508a107.989 107.989 0 00-3.123 1.802zm-1.07 1.854c-.958.598-1.888 1.2-2.784 1.802a98.162 98.162 0 002.784 1.802 107.785 107.785 0 010-3.604zm1.036 4.242a106.962 106.962 0 010-4.88 107.045 107.045 0 014.228-2.44 106.866 106.866 0 014.23 2.44 106.542 106.542 0 010 4.88 106.873 106.873 0 01-4.23 2.44 106.872 106.872 0 01-4.229-2.44zm-1.01.583a99.666 99.666 0 01-3.72-2.403c-2.655 1.831-4.982 3.65-6.82 5.335-1.595 1.463-2.748 2.759-3.407 3.801-.309.488-.483.88-.559 1.173-.077.302-.033.432-.012.47.022.037.113.14.414.225.292.081.72.126 1.296.103 1.233-.05 2.933-.4 4.998-1.05 2.378-.747 5.118-1.851 8.032-3.233a99.355 99.355 0 01-.221-4.421zm1.214 3.943a98.013 98.013 0 01-.17-3.31 107.383 107.383 0 003.123 1.802 98.135 98.135 0 01-2.953 1.508zm.082 1.098c.26 3.212.673 6.134 1.214 8.566.47 2.112 1.016 3.758 1.59 4.85.268.51.52.857.737 1.069.223.218.358.246.402.246.044 0 .178-.028.402-.246.217-.212.468-.559.737-1.07.574-1.091 1.12-2.737 1.59-4.85.54-2.43.954-5.353 1.213-8.565a99.49 99.49 0 01-3.943-2.02 99.499 99.499 0 01-3.942 2.02zm5.014-2.606c.996.53 1.983 1.034 2.953 1.508.074-1.077.131-2.183.17-3.31a109.03 109.03 0 01-3.123 1.802zm4.167-2.436a99.41 99.41 0 01-.222 4.422c2.914 1.382 5.654 2.486 8.031 3.234 2.066.65 3.766 1 4.999 1.049.576.023 1.003-.022 1.295-.103.301-.084.392-.188.414-.225.022-.038.066-.168-.012-.47-.075-.294-.25-.685-.558-1.172-.66-1.043-1.813-2.34-3.408-3.802-1.837-1.684-4.164-3.504-6.819-5.335a99.552 99.552 0 01-3.72 2.402zm3.72-3.642c2.655-1.831 4.982-3.65 6.819-5.335 1.595-1.463 2.749-2.759 3.408-3.801.308-.488.483-.879.558-1.173.078-.302.034-.432.012-.47-.022-.037-.113-.14-.414-.224-.292-.082-.719-.127-1.295-.104-1.233.05-2.933.4-4.999 1.05-2.377.747-5.117 1.851-8.03 3.233.104 1.429.178 2.909.22 4.422a99.337 99.337 0 013.721 2.402zm-3.693-1.181c.957.597 1.887 1.199 2.783 1.801a98 98 0 01-2.783 1.801 107.68 107.68 0 000-3.602zm-1.07-1.854a98.091 98.091 0 00-.17-3.311 97.77 97.77 0 00-2.954 1.508 109.474 109.474 0 013.123 1.803zm-4.196-2.39a99.445 99.445 0 00-3.942-2.019c.26-3.213.673-6.137 1.214-8.57.47-2.112 1.016-3.758 1.59-4.85.268-.51.52-.857.737-1.069.223-.218.358-.246.402-.246.044 0 .178.028.402.246.217.212.468.56.737 1.07.574 1.091 1.12 2.737 1.59 4.85.54 2.432.954 5.355 1.214 8.569-1.291.624-2.61 1.3-3.944 2.02z" fill="#fff"/><path fill-rule="evenodd" clip-rule="evenodd" d="M16.468 25.433c.926 0 1.677.71 1.677 1.585s-.75 1.584-1.677 1.584c-.925 0-1.676-.71-1.676-1.584 0-.875.75-1.585 1.676-1.585zM43.108 20.548c.926 0 1.677.709 1.677 1.584 0 .875-.75 1.584-1.677 1.584-.926 0-1.677-.71-1.677-1.584 0-.875.75-1.584 1.677-1.584zM28.919 44.87c.926 0 1.677.709 1.677 1.583 0 .875-.75 1.584-1.677 1.584s-1.678-.71-1.678-1.584c0-.874.751-1.583 1.678-1.583zM32.668 28.965a2.84 2.84 0 110 5.68 2.84 2.84 0 010-5.68z" fill="#F3E7FF"/></svg>
