<svg xmlns="http://www.w3.org/2000/svg"  viewBox="0 0 64 64" fill="none">
<g clip-path="url(#clip0_2823_442326)">
<circle cx="32" cy="32" r="32" fill="#6039FF"/>
<g clip-path="url(#clip1_2823_442326)">
<path d="M19.8891 14.4664C19.4621 14.2204 18.9927 14.7087 19.257 15.1202L27.1893 27.5423C27.4197 27.8986 27.036 28.3317 26.6475 28.154L16.4991 23.4671C16.153 23.3099 15.8369 23.7346 16.0937 24.0142L22.6047 31.7026C22.7495 31.8766 22.7495 32.1272 22.6047 32.2965L16.0937 39.9858C15.8416 40.2664 16.1539 40.6901 16.4991 40.533L26.6522 35.8461C27.0407 35.6674 27.4207 36.1005 27.194 36.4578L19.2617 48.8798C18.9974 49.2914 19.4705 49.7796 19.8938 49.5336L49.2808 32.5519C49.7078 32.3059 49.7078 31.6904 49.2808 31.4482L19.8891 14.4664Z" fill="white"/>
</g>
</g>
<defs>
<clipPath id="clip0_2823_442326">
<path d="M0 32C0 14.3269 14.3269 0 32 0V0C49.6731 0 64 14.3269 64 32V32C64 49.6731 49.6731 64 32 64V64C14.3269 64 0 49.6731 0 32V32Z" fill="white"/>
</clipPath>
<clipPath id="clip1_2823_442326">
<rect width="33.6" height="35.2" fill="white" transform="translate(16 14.3999)"/>
</clipPath>
</defs>
</svg>