<svg width="64" height="64" viewBox="0 0 64 64" fill="none" xmlns="http://www.w3.org/2000/svg">
<circle cx="32.0007" cy="32" r="32" fill="#6039FF"/>
<path d="M45.3352 18.6667H20.5535L27.8346 27.2537C28.9466 26.2769 30.4047 25.6847 32.0011 25.6847C35.4894 25.6847 38.3172 28.5124 38.3172 32.0007C38.3172 33.5698 37.745 35.0053 36.7979 36.1098L45.3351 43.4923L45.3352 45.3344V18.6667Z" fill="white"/>
<path d="M42.1332 45.3345L35.3617 37.3495C34.3884 37.9622 33.2362 38.3167 32.0011 38.3167C28.5129 38.3167 25.6851 35.4889 25.6851 32.0007C25.6851 30.7727 26.0355 29.6265 26.6419 28.6568L18.6675 21.7809V45.3344L42.1332 45.3345Z" fill="white"/>
</svg>
