<svg width="300" height="300" viewBox="0 0 300 300" fill="none" xmlns="http://www.w3.org/2000/svg">
<path d="M300 150C300 232.843 232.843 300 150 300C67.1573 300 0 232.843 0 150C0 67.1573 67.1573 0 150 0C232.843 0 300 67.1573 300 150Z" fill="#6039FF"/>
<path d="M251.795 130.044C247.712 110.478 238.014 92.5574 223.552 78.096C203.873 58.4171 177.729 47.5851 149.884 47.5851C122.039 47.5851 95.8946 58.3604 76.2157 78.0393C71.3952 82.8598 67.1985 88.0205 63.5123 93.4648C62.4348 94.9393 61.414 96.4705 60.5633 98.1152C50.9223 114.165 45.7616 132.482 45.7616 151.708C45.7616 179.553 56.5935 205.697 76.2724 225.376C95.9513 245.055 122.095 255.887 149.941 255.887C177.786 255.887 203.93 245.055 223.609 225.376C232.853 216.132 240.226 205.357 245.386 193.731C246.01 192.483 246.521 191.122 247.031 189.761C251.738 177.852 254.177 164.978 254.177 151.764C254.177 144.789 253.496 138.154 252.135 131.462C252.078 131.121 251.851 130.271 251.795 130.044ZM215.669 82.4628C216.237 83.0299 216.86 83.597 217.484 84.2208C226.672 93.4081 233.817 104.183 238.524 115.866C238.978 117 238.014 118.305 236.709 118.078C233.987 117.567 230.868 117.397 227.466 117.454C225.084 117.511 222.985 115.809 222.588 113.541C220.717 103.106 217.995 93.5215 214.592 85.1282C214.422 84.6745 214.195 84.2208 214.025 83.6537C213.571 82.5762 214.876 81.6121 215.669 82.4628ZM225.594 143.541C225.594 142.464 226.955 141.953 227.636 142.861C228.373 143.938 229.167 145.072 229.904 146.15C230.868 147.624 231.776 149.099 232.57 150.573C233.08 151.481 232.967 152.615 232.286 153.409C231.208 154.6 229.961 155.904 228.656 157.209C228.203 157.662 227.692 158.173 227.182 158.683C226.558 159.25 225.481 158.797 225.537 158.003C225.594 156.415 225.651 154.883 225.651 153.239C225.707 149.893 225.707 146.717 225.594 143.541ZM94.4201 73.8993C110.526 62.3869 129.695 56.2053 149.884 56.2053C155.215 56.2053 160.489 56.659 165.65 57.453C167.011 57.6798 167.521 59.4379 166.387 60.2885C161.396 64.2016 156.803 69.9862 152.663 77.4722C151.699 79.3436 149.544 80.1943 147.502 79.6272C133.891 75.8275 120.507 74.0127 108.144 74.4097C103.551 74.5799 99.2973 75.0336 95.2141 75.7708C94.0799 76.0544 93.5127 74.5799 94.4201 73.8993ZM80.8093 216.642C78.7677 212.899 81.3764 204.109 94.5902 190.725C95.9513 189.364 95.8379 187.096 94.3067 185.848C93.7963 185.451 93.2859 185.054 92.7188 184.6C91.4144 183.58 89.4862 183.636 88.2953 184.827C88.0117 185.111 87.8416 185.281 87.7849 185.338C81.2063 192.086 76.556 198.381 74.0039 204.052C73.2667 205.697 71.0549 205.867 70.0908 204.336C59.826 188.91 54.325 170.763 54.325 151.764C54.325 145.016 55.0056 138.267 56.4233 131.802C56.6502 130.838 58.0113 130.781 58.3515 131.745C60.3364 138.267 63.569 145.072 67.9925 151.878C74.0039 161.065 81.8868 169.912 91.301 178.079C94.4768 180.857 97.8795 183.523 101.452 186.132C108.655 191.406 116.368 196.226 124.647 200.48C128.277 202.408 131.906 204.166 135.536 205.867C137.578 206.775 139.903 206.831 141.944 206.037C143.702 205.357 145.404 204.676 147.162 203.939C149.09 203.145 150.111 201.103 149.6 199.062C149.544 198.835 149.487 198.608 149.487 198.495C146.595 186.415 145.007 172.748 144.78 158.513C144.78 158.343 144.78 155.11 144.78 151.764C144.78 148.418 144.893 146.887 145.007 144.449C145.858 127.208 148.807 111.045 153.457 97.3779C153.854 96.1303 153.23 94.7692 151.926 94.3155C150.735 93.9185 149.487 93.5215 148.239 93.1246C147.048 92.7276 145.687 93.4081 145.234 94.6558C140.186 109.457 137.067 126.981 136.273 145.526C136.16 147.908 134.912 150.063 132.871 151.254C121.869 157.776 111.831 164.695 103.04 171.613C101.225 173.088 98.6168 172.974 96.8587 171.5C88.1251 163.901 80.7526 155.677 75.1949 147.114C64.2495 130.327 61.6408 114.562 67.8791 102.595L67.9358 102.539C68.7298 101.234 69.5804 99.93 70.4311 98.6823C77.5768 89.2682 90.8473 83.7671 108.485 83.1433C109.562 83.0866 110.753 83.0866 111.831 83.0866C122.662 83.0866 134.232 84.9014 146.028 88.3041C146.255 88.3608 147.956 88.8712 148.296 88.9846C151.302 89.9487 156.406 91.7068 157.086 91.9336C157.37 92.047 158.958 92.6709 159.185 92.7276C164.969 94.996 170.697 97.5481 176.368 100.497C187.37 106.225 197.408 112.917 206.255 120.289C189.525 124.089 170.073 131.518 150.508 141.443C149.6 141.897 148.977 142.804 148.92 143.825C148.863 145.016 148.75 147.454 148.693 149.439C148.636 150.63 149.941 151.481 151.018 150.914C170.414 140.706 189.752 133.163 206.369 129.08C209.488 128.342 211.473 125.393 211.076 122.218C210.792 120.006 210.452 117.794 210.055 115.696C209.601 113.03 208.07 110.592 205.972 109.004C198.202 103.106 189.639 97.6615 180.452 92.841C174.27 89.6084 168.032 86.8296 161.68 84.391C160.376 83.8806 159.752 82.2926 160.489 81.045C166.954 69.4758 174.667 63.0107 182.21 63.0107C182.266 63.0107 182.38 63.0107 182.436 63.0107C191.283 63.1808 200.074 72.3681 206.652 88.3041C209.942 96.3571 212.494 105.658 214.308 115.752C214.819 118.588 215.216 121.48 215.556 124.429C215.726 125.961 216.01 128.286 216.18 129.307C216.917 136.963 217.201 144.959 217.087 153.069C216.974 158.229 216.747 163.334 216.293 168.267C204.441 177.795 189.809 187.379 173.703 195.886C169.336 198.154 164.969 200.366 160.659 202.408C159.752 202.861 156.009 204.506 155.782 204.62C151.699 206.491 147.672 208.136 143.646 209.724C143.419 209.837 138.882 211.538 138.598 211.652C138.258 211.765 135.933 212.616 135.649 212.729C126.973 215.792 118.636 218.117 111.037 219.591C91.8114 223.278 82.7942 220.442 80.8093 216.642ZM106.953 179.553C115.347 172.748 125.215 165.829 136.046 159.364C136.273 173.201 137.804 186.529 140.527 198.495C136.557 196.737 132.53 194.922 128.56 192.824C120.848 188.854 113.589 184.374 106.953 179.553ZM162.19 246.473C158.164 246.983 154.024 247.267 149.884 247.267C131.283 247.267 113.532 241.992 98.3332 232.181C97.3124 231.501 97.7661 229.856 98.957 229.8C99.1839 229.8 99.4674 229.8 99.6376 229.743C103.494 229.516 107.747 228.949 112.341 228.041C122.095 226.113 132.984 222.937 144.383 218.571C145.404 218.174 146.538 218.684 146.992 219.705C151.415 230.48 156.803 238.59 162.984 243.751C164.062 244.658 163.552 246.303 162.19 246.473ZM202.626 220.952C195.82 234.393 187.427 241.879 179.261 241.709C170.414 241.539 161.623 232.352 155.045 216.416C154.648 215.451 155.102 214.261 156.066 213.807C156.122 213.75 156.179 213.75 156.292 213.693C156.689 213.523 157.2 213.467 157.654 213.58C169.847 216.983 181.926 218.797 193.212 218.797C194.403 218.797 195.65 218.797 196.841 218.741C198.202 218.684 199.62 218.627 200.981 218.514C202.286 218.514 203.193 219.818 202.626 220.952ZM205.575 209.383C202.739 209.78 199.734 210.064 196.614 210.177C188.958 210.461 180.849 209.78 172.569 208.249C171.548 208.079 171.378 206.661 172.285 206.207C174.1 205.3 175.915 204.336 177.729 203.372C190.433 196.623 202.342 189.251 212.72 181.708C213.458 181.141 214.592 181.822 214.422 182.729C212.947 191.406 211.019 199.572 208.467 206.945C207.957 208.306 206.879 209.213 205.575 209.383ZM219.696 216.983C219.015 217.72 218.222 218.514 217.484 219.251C216.237 220.499 214.819 221.803 213.514 222.994C212.664 223.731 211.359 222.824 211.813 221.803C211.927 221.52 212.097 221.236 212.21 220.896C212.777 219.648 213.288 218.344 213.911 217.039C214.025 216.756 214.308 216.529 214.592 216.416C215.896 216.075 217.257 215.678 218.505 215.281C219.639 214.941 220.433 216.245 219.696 216.983ZM238.865 186.699C238.468 187.663 238.127 188.627 237.674 189.591C237.56 189.761 236.993 190.952 236.936 191.122C233.76 196.963 228.543 201.557 221.738 204.79C220.15 205.527 218.448 204.109 218.902 202.408C221.284 194.014 222.985 184.941 224.176 175.356C224.403 173.542 225.254 171.954 226.615 170.763C229.507 168.267 232.229 165.715 234.725 163.22C235.916 162.029 238.014 162.54 238.524 164.184C240.963 172.407 241.133 180.063 238.865 186.699ZM240.793 141.953C240.112 143.201 238.241 143.258 237.447 142.067C237.333 141.897 237.22 141.67 237.106 141.5C234.271 137.076 230.982 132.823 227.352 128.626C226.445 127.605 227.182 126.017 228.543 125.961H228.6C237.163 125.961 241.643 128.116 243.004 130.668C244.082 132.823 243.742 136.622 240.793 141.953ZM245.443 154.543C245.443 155.167 244.536 155.337 244.309 154.77C244.195 154.543 244.082 154.26 243.969 154.033C243.742 153.579 243.798 153.012 244.139 152.558C244.195 152.502 244.309 152.331 244.479 152.105C244.876 151.594 245.5 151.651 245.5 152.218C245.443 153.012 245.443 153.749 245.443 154.543Z" fill="white"/>
</svg>
