<svg width="32" height="32" viewBox="0 0 32 32" fill="none" xmlns="http://www.w3.org/2000/svg">
<circle cx="16" cy="16" r="16" fill="#7B5BFC"/>
<circle cx="16" cy="16" r="16" fill="url(#paint0_linear_6649_2761)"/>
<path d="M15.6785 7.61914C12.7736 7.61914 10.1953 8.9879 8.57812 11.1043C9.6795 10.301 11.0442 9.82509 12.5231 9.82509C16.1767 9.82509 19.138 12.7281 19.138 16.3093C19.138 19.8901 16.1767 22.7933 12.5231 22.7933C11.0442 22.7933 9.6795 22.3176 8.57812 21.5141C10.1952 23.6299 12.7735 24.9992 15.6785 24.9992C20.575 24.9992 24.5447 21.1077 24.5447 16.3094C24.5447 11.51 20.575 7.61914 15.6785 7.61914Z" fill="white"/>
<path d="M11.1985 16.3246C11.1985 14.3214 12.8555 12.6975 14.8986 12.6975C15.2027 12.6975 15.4983 12.7341 15.7809 12.8021C14.9138 12.0185 13.7559 11.5391 12.4831 11.5391C9.79559 11.5391 7.61719 13.6745 7.61719 16.3086C7.61719 18.9424 9.79559 21.078 12.4831 21.078C13.7331 21.078 14.8722 20.616 15.7341 19.8569C15.4653 19.9177 15.1861 19.9506 14.8986 19.9506C12.8555 19.9507 11.1985 18.3279 11.1985 16.3246Z" fill="white"/>
<defs>
<linearGradient id="paint0_linear_6649_2761" x1="2.31214" y1="-1.23077" x2="35.9651" y2="3.81115" gradientUnits="userSpaceOnUse">
<stop offset="0.242717" stop-color="#7A5AFB"/>
<stop offset="1" stop-color="#1E60EC"/>
</linearGradient>
</defs>
</svg>
