<?xml version="1.0" encoding="UTF-8"?><svg id="_Слой_2" xmlns="http://www.w3.org/2000/svg" xmlns:xlink="http://www.w3.org/1999/xlink" viewBox="0 0 1024 1024"><defs><style>.cls-1{fill:none;}.cls-2{fill:url(#_Безымянный_градиент_2);}.cls-3{fill:#3034b8;}.cls-4{fill:url(#_Безымянный_градиент_2-2);}</style><linearGradient id="_Безымянный_градиент_2" x1="7.12" y1="512.32" x2="710.7" y2="512.32" gradientTransform="translate(0 1024.32) scale(1 -1)" gradientUnits="userSpaceOnUse"><stop offset="0" stop-color="#4211ca"/><stop offset=".25" stop-color="#3e23d9"/><stop offset=".5" stop-color="#265be2"/><stop offset=".75" stop-color="#3c7ef3"/><stop offset="1" stop-color="#a4e7fe"/></linearGradient><linearGradient id="_Безымянный_градиент_2-2" x1="7.28" y1="633.47" x2="710.7" y2="633.47" xlink:href="#_Безымянный_градиент_2"/></defs><g id="_Слой_2-2"><g id="_Слой_1-2"><path class="cls-2" d="M671.69,622.12h28.61c-40.98,100.94-170.34,144.38-258.43,56.02-56.46-54.45-85.05-136.24-126.55-202.45-33.13-55.33-85.37-109.43-154.51-106.03-128.73,15.28-136.83,230.14-32.28,276.16,94.09,39.04,157.79-63.53,193.69-134.25,12.99,22.71,26.33,48.08,35.54,67.14-35.1,85.22-120.12,176.87-231.5,134.48C46.7,681.1.01,598.04.18,516.19c-4.71-101.86,85.99-232.79,203.38-216.7,166.1,26.17,201,221.5,287.84,324.06,42.45,50.5,131.95,69.38,180.28-1.44h.01Z"/><path class="cls-4" d="M706.03,428.57h-28.74c-68.4-109.06-188.84-60.73-260.94,47.35-13.88-25.34-23.65-43.07-35.17-59.87,69.73-105.97,254.9-188.47,324.86,12.52Z"/><polygon class="cls-3" points="645.82 583.74 645.82 610.57 531.26 610.57 531.26 440.12 644.41 440.12 644.41 465.73 563.53 465.73 563.53 513.21 639.31 513.21 639.31 540.15 563.53 540.15 563.53 583.74 645.82 583.74"/><polygon class="cls-3" points="820.89 440.12 820.89 610.57 789.5 610.57 789.5 535.35 708.12 535.35 708.12 610.57 676.75 610.57 676.75 440.12 708.12 440.12 708.12 509.34 789.5 509.34 789.5 440.12 820.89 440.12"/><path class="cls-3" d="M934.46,434.4c-49.46,0-89.55,40.08-89.55,89.54s40.09,89.54,89.55,89.54,89.54-40.08,89.54-89.54-40.09-89.54-89.54-89.54ZM934.46,585.95c-31.87,0-57.7-27.76-57.7-62.01s25.83-62.01,57.7-62.01,57.69,27.76,57.69,62.01-25.83,62.01-57.69,62.01h0Z"/></g><rect class="cls-1" width="1024" height="1024"/></g></svg>
