<svg xmlns="http://www.w3.org/2000/svg" xmlns:xlink="http://www.w3.org/1999/xlink" id="_Слой_2" viewBox="0 0 798.24 334.09"><defs><linearGradient id="_Безымянный_градиент_203" x1="12.87" x2="552.18" y1="167.05" y2="167.05" gradientUnits="userSpaceOnUse"><stop offset="0" stop-color="#4211ca"/><stop offset=".25" stop-color="#3e23d9"/><stop offset=".5" stop-color="#265be2"/><stop offset=".75" stop-color="#3c7ef3"/><stop offset="1" stop-color="#a4e7fe"/></linearGradient><linearGradient xlink:href="#_Безымянный_градиент_203" id="_Безымянный_градиент_203-2" y1="71.51" y2="71.51"/><style>.cls-3{fill:#3034b8}</style></defs><g id="_Слой_1-2"><path d="M523.56 252.47h22.31c-8.01 18.65-21.39 39.7-43.76 56.26-8.47 6.28-29.98 21.77-60.59 24.83-1.57.16-3.15.28-4.75.37-.57.03-1.14.06-1.71.08-.55.02-1.11.04-1.67.05l-1.66.03c-33.75.19-63.73-16.28-87.35-37.94-15.65-14.01-29.27-35-41.86-54.66-10.31-15.99-17.48-31.74-26.18-48.49-9.75-18.47-19.94-36.68-30.63-54.69-12.35-21.01-26.09-38.98-44.33-53.63-9.26-7.63-19.41-14.82-30.82-20.16-11.17-5.36-23.99-9.22-38.06-9.22-2.38 0-4.81.11-7.26.34-4.52.43-16.6 1.99-29.86 9.02-25.39 13.46-37.46 37.6-43.25 54.26-.09.28-.19.56-.29.84-.14.42-.29.83-.42 1.25-.18.53-.35 1.06-.52 1.59-.28.86-.54 1.72-.78 2.58-.13.39-.24.78-.35 1.17-.12.37-.22.75-.32 1.13-.31 1.05-.57 2.1-.84 3.16-.31 1.21-.57 2.27-.79 3.16-2.23 9.04-4.32 21.97-3.32 37.89.02 1.51.07 3 .13 4.5.07 1.51.16 3.01.26 4.5 3.16 41.68 23.78 76.65 55.18 90.26 11.65 5.04 22.97 6.36 31.69 6.36 6.95.17 13.68-.61 20.86-2.6.88-.24 1.74-.49 2.6-.77.41-.12.82-.25 1.22-.38.02 0 .03-.01.04-.01 8.26-2.63 15.73-6.52 22.6-11.32.76-.53 1.52-1.06 2.27-1.62 18.04-13.36 31.88-32.89 45.15-51.62 11.96-16.89 15.8-26.16 24.58-42.71 1.67 2.98 3.4 6.07 5.19 9.3.88 1.58 1.79 3.2 2.71 4.85 7.6 13.63 12.31 23.08 16.41 31.37.15.31.3.61.45.91 1.01 2.03 1.98 3.99 2.95 5.92-1.11 2.42-2.19 4.8-3.28 7.14-.01.01-.01.03-.02.05-10.6 22.85-21.02 42.71-46.21 66.81-17.8 17.03-38.47 31.88-66.02 37.12-4.4.84-25.26 4.54-51.19-1.95-4.36-1.09-8.53-2.39-12.53-3.85-.41-.15-.83-.31-1.24-.47-18.19-7.07-34.38-18.3-47.72-31.29l-.04-.04c-9.3-9.24-15.5-17.7-18.81-22.23-1.55-2.12-3.03-4.25-4.43-6.37-.04-.04-.06-.09-.08-.13-1.16-1.83-2.25-3.66-3.29-5.48C7.86 231.05.12 200.46 0 169.88c.04-9.25.83-30.23 8-54.74.14-.48.29-.96.44-1.44 8-25.7 21.59-49.6 40.29-69.17 1.09-1.12 2.22-2.23 3.38-3.33 3.81-3.63 9.89-9.41 18.1-15.51.55-.4 1.1-.81 1.67-1.22.19-.14.39-.28.59-.42 5.59-3.94 11.49-7.56 17.68-10.81.04-.01.06-.03.09-.04 1.69-.86 3.37-1.67 5.06-2.44.56-.26 1.13-.51 1.69-.75.56-.25 1.12-.49 1.69-.73.46-.2.94-.39 1.41-.59.65-.26 1.3-.52 1.96-.77.56-.22 1.12-.43 1.68-.64.57-.21 1.13-.41 1.69-.61.26-.1.53-.19.79-.28.43-.15.86-.3 1.3-.44 3.79-1.27 7.58-2.32 11.36-3.17.96-.22 1.94-.42 2.92-.62.15-.03.29-.06.43-.08.34-.07.67-.13 1.01-.19.37-.07.74-.14 1.12-.2 1.34-.24 2.68-.45 4.02-.63.5-.07 1-.14 1.5-.19 1.38-.18 2.76-.33 4.13-.45l1.57-.12c.56-.04 1.11-.08 1.67-.11.54-.03 1.08-.06 1.62-.08 2.49-.11 4.98-.14 7.45-.08h.11a98.74 98.74 0 0 1 2.63.09h.07c.53.02 1.09.05 1.63.09.13 0 .26.01.39.02.09 0 .17.01.25.02.44.02.89.05 1.33.09.33.02.67.05 1 .08.06 0 .13.01.18.01.67.06 1.33.12 1.99.19.03 0 .06.01.09.01.49.05.98.11 1.46.17.38.04.76.08 1.13.13l1.13.15 1.48.21c.65.09 1.31.19 1.96.3.53.09 1.06.18 1.59.28.71.12 1.41.25 2.12.4 21.24 4.28 37.69 13.6 48.42 19.68 32.13 18.2 50.13 42.24 67.61 65.55 3.12 4.16 5.93 8.15 8.64 12.22 8.32 12.51 15.59 25.78 27.15 46.93.16.28.31.56.47.85 27.48 50.28 35.6 75.46 63.86 106.09 7.7 8.35 16.81 17 30.26 23.99 1.48.77 23 11.69 45.83 11.69 2.05 0 4.12-.09 6.17-.28 2.87-.27 5.72-.73 8.54-1.39 18.65-4.33 36.15-16.94 49.76-35.13Z" style="fill:url(#_Безымянный_градиент_203)"/><path d="M550.33 101.57h-22.41c-12.19-18.54-33.51-42.31-65.08-47.52-5.38-.89-17.74-2.34-36.27 2.32-5.93 1.49-12.01 3.49-18.27 6.18-.33.13-.66.28-.99.44-23.88 10.53-50.36 31.33-81.17 73.2-.55.76-1.11 1.52-1.67 2.3-.3-.54-.59-1.07-.88-1.6-10.39-18.99-17.34-31.44-25.48-43.52-.35-.52-.71-1.04-1.06-1.56.54-.74 1.07-1.46 1.6-2.17.63-.83 1.25-1.64 1.89-2.44 8.1-10.28 73.64-93.35 151.02-81.53 3.96.6 14.42 2.44 27.15 8.21 42.67 19.32 62.69 60.93 71.62 87.69Z" style="fill:url(#_Безымянный_градиент_203-2)"/><path d="M503.39 222.55v20.92h-89.32v-132.9h88.22v19.97h-63.06v37.02h59.08v21h-59.08v33.99h64.16zM639.88 110.57v132.9h-24.47v-58.65h-63.45v58.65H527.5v-132.9h24.46v53.97h63.45v-53.97h24.47zM728.43 106.11c-38.56 0-69.82 31.25-69.82 69.81s31.26 69.81 69.82 69.81 69.81-31.25 69.81-69.81-31.26-69.81-69.81-69.81Zm0 118.16c-24.85 0-44.99-21.64-44.99-48.35s20.14-48.35 44.99-48.35 44.98 21.64 44.98 48.35-20.14 48.35-44.98 48.35Z" class="cls-3"/></g></svg>