<svg data-name="jade-logo" xmlns="http://www.w3.org/2000/svg" viewBox="0 0 2000 2000">
  <!-- Base circle with solid green color -->
  <circle cx="1000" cy="1000" r="1000" fill="#22c55e"/>
  
  <!-- Inner circle with triangle pattern -->
  <circle cx="1000" cy="1000" r="900" fill="url(#trianglePattern)"/>
  
  <!-- Thin circle to cover the edge of the pattern -->
  <circle cx="1000" cy="1000" r="900" fill="none" stroke="#fff" stroke-width="24"/>

  <!-- Broken outer circle with openings on left and right -->
  <!-- Left arc -->
  <path d="M150 1000 A850 850 0 0 1 1000 150" fill="none" stroke="#fff" stroke-width="150"/>
  <!-- Right arc -->
  <path d="M1850 1000 A850 850 0 0 1 1000 1850" fill="none" stroke="#fff" stroke-width="150"/>
  
  <!-- Centered stylized lowercase 'j' symbol -->
  <g transform="translate(1050,1000) scale(1.3) translate(-1000,-1000)">
    <!-- The 'j' stem and hook -->
    <path d="M1100 600 V1200 C1100 1300 1000 1400 900 1400 C800 1400 700 1300 700 1200"
          fill="none" stroke="#fff" stroke-width="100" stroke-linecap="round" stroke-linejoin="round"/>
  </g>
  
  <!-- Definitions -->
  <defs>
    <pattern id="trianglePattern" width="400" height="346.4" patternUnits="userSpaceOnUse">
      <!-- Upward pointing triangle -->
      <path d="M0 346.4 L200 0 L400 346.4 Z" fill="none" stroke="#fff" stroke-width="12"/>
      <!-- Downward pointing triangle -->
      <path d="M0 0 L200 346.4 L400 0 Z" fill="none" stroke="#fff" stroke-width="12"/>
      <!-- First horizontal divider -->
      <line x1="0" y1="173.2" x2="400" y2="173.2" stroke="#fff" stroke-width="12"/>
      <!-- Second horizontal divider -->
      <line x1="0" y1="346.4" x2="400" y2="346.4" stroke="#fff" stroke-width="12"/>
    </pattern>
  </defs>
</svg>
