<?xml version="1.0" encoding="utf-8"?>
<!-- Generator: Adobe Illustrator 25.2.1, SVG Export Plug-In . SVG Version: 6.00 Build 0)  -->
<svg version="1.1" id="Calque_1" xmlns="http://www.w3.org/2000/svg" xmlns:xlink="http://www.w3.org/1999/xlink" x="0px" y="0px"
	 viewBox="0 0 356 360" style="enable-background:new 0 0 356 360;" xml:space="preserve">
<style type="text/css">
	.st0{fill:none;}
	.st1{fill:#FFFFFF;}
</style>
<g>
	<path class="st0" d="M177.2,10.2c-77.7,0-126.6,61.8-126.6,165.3c0,102.6,47.6,169,126.6,169c76.2,0,126.9-64.2,126.9-167.6
		C304.1,75.6,255.8,10.2,177.2,10.2z M173.8,258.6c-5.5,4.7-26.5,22.7-26.5,22.7c-1.6,1.4-4,1.4-5.7,0l-26.9-23.1
		c-1-0.9-1.6-2.2-1.6-3.5v-40.6c0-0.9,0.4-1.7,1.1-2.3l26.4-21.1c0.6-0.5,1.2-0.3,1.5-0.2c0.5,0.2,0.9,0.8,0.9,1.6v38
		c0,1.6,0.7,2.5,1.2,3l0,0c0.1,0.1,23.5,18.6,29.5,23.3C174.4,257.1,174.5,258,173.8,258.6L173.8,258.6z M241.2,254.7
		c0,1.3-0.6,2.6-1.6,3.5l-26.9,23.1c-1.6,1.4-4,1.4-5.7,0c0,0-21-18.1-26.5-22.7c-0.7-0.6-0.6-1.6,0-2.1c6-4.7,30.2-24.1,30.2-24.1
		c0.3-0.3,0.5-0.7,0.5-1.1c0-0.4-0.2-0.8-0.5-1.1l-96.1-78.8c-1-0.8-1.6-2.1-1.6-3.4V99.3c0-1.3,0.6-2.6,1.6-3.5l26.9-23.1
		c1.6-1.4,4-1.4,5.7,0c0,0,21.1,18.1,26.5,22.7c0.7,0.6,0.7,1.5,0,2.1c-5.6,4.4-27.1,21.6-27.1,21.6c-1.1,0.9-1.7,2.2-1.7,3.6
		c0,1.4,0.6,2.7,1.6,3.6l62.4,51.8h0l30.6,24.5c1,0.8,1.6,2.1,1.6,3.4L241.2,254.7L241.2,254.7z M241.2,139.9c0,0.9-0.4,1.7-1.1,2.3
		l-26.4,21.1c-0.6,0.5-1.2,0.3-1.5,0.2c-0.5-0.2-0.9-0.8-0.9-1.6v-38c0-1.6-0.7-2.5-1.2-3c-0.1-0.1-23.5-18.6-29.5-23.3
		c-0.7-0.6-0.7-1.5,0-2.1C186,90.7,207,72.7,207,72.7c1.6-1.4,4-1.4,5.7,0l0,0l26.9,23.1c1,0.9,1.6,2.2,1.6,3.5V139.9L241.2,139.9z"
		/>
	<path class="st1" d="M177.1,0C74.3,0,9.5,72.7,9.5,176.8c0,103,66.7,177.7,167.6,177.7s167.6-74.9,167.6-178.2
		C344.7,72.5,279.2,0,177.1,0L177.1,0z M177.2,344.4c-79,0-126.6-66.3-126.6-169c0-103.5,48.9-165.3,126.6-165.3
		c78.6,0,126.9,65.4,126.9,166.6C304.1,280.2,253.4,344.4,177.2,344.4z"/>
	<path class="st1" d="M212.7,72.7L212.7,72.7c-1.6-1.4-4-1.4-5.7,0c0,0-21,18.1-26.5,22.7c-0.7,0.6-0.7,1.6,0,2.1
		c6,4.7,29.4,23.2,29.5,23.3c0.6,0.6,1.2,1.4,1.2,3v38c0,0.9,0.5,1.4,0.9,1.6c0.3,0.1,0.9,0.3,1.5-0.2l26.4-21.1
		c0.7-0.6,1.1-1.4,1.1-2.3V99.3c0-1.3-0.6-2.6-1.6-3.5L212.7,72.7L212.7,72.7z"/>
	<path class="st1" d="M144.2,233.2L144.2,233.2c-0.6-0.6-1.2-1.4-1.2-3v-38c0-0.9-0.5-1.4-0.9-1.6c-0.3-0.1-0.9-0.3-1.5,0.2
		l-26.4,21.1c-0.7,0.6-1.1,1.4-1.1,2.3v40.6c0,1.3,0.6,2.6,1.6,3.5l26.9,23.1c1.6,1.4,4,1.4,5.7,0c0,0,21-18.1,26.5-22.7
		c0.7-0.6,0.7-1.6,0-2.1C167.7,251.7,144.3,233.3,144.2,233.2L144.2,233.2z"/>
	<path class="st1" d="M208.9,178.1L208.9,178.1l-62.4-51.8c-1.1-0.9-1.7-2.2-1.6-3.6c0-1.4,0.6-2.7,1.7-3.6c0,0,21.5-17.2,27.1-21.6
		c0.7-0.6,0.7-1.5,0-2.1c-5.4-4.6-26.5-22.7-26.5-22.7c-1.6-1.4-4-1.4-5.7,0l-26.9,23.1c-1,0.9-1.6,2.2-1.6,3.5v48.8
		c0,1.3,0.6,2.5,1.6,3.4l96.1,78.8c0.3,0.3,0.5,0.7,0.5,1.1c0,0.4-0.2,0.8-0.5,1.1c0,0-24.2,19.3-30.2,24.1c-0.7,0.5-0.7,1.6,0,2.1
		c5.5,4.7,26.5,22.7,26.5,22.7c1.6,1.4,4,1.4,5.7,0l26.9-23.1c1-0.9,1.6-2.2,1.6-3.5v-48.8c0-1.3-0.6-2.6-1.6-3.4L208.9,178.1
		L208.9,178.1z"/>
</g>
</svg>
