<svg viewBox="0 0 40 40" fill="none" xmlns="http://www.w3.org/2000/svg">
<rect width="40" height="40" fill="black"/>
<path d="M19.9991 3.5C9.87269 3.5 3.5 10.2669 3.5 19.9561C3.5 29.5421 10.0678 36.5 19.9991 36.5C29.9315 36.5 36.5 29.5244 36.5 19.9142C36.5 10.2498 30.0569 3.5 19.9991 3.5ZM20.011 35.5536C12.2353 35.5536 7.5483 29.3811 7.5483 19.8281C7.5483 10.1961 12.3604 4.44581 20.011 4.44581C27.7517 4.44581 32.5089 10.534 32.5089 19.9561C32.5089 29.5769 27.5121 35.5536 20.011 35.5536Z" fill="#EBEBEB"/>
<path d="M27.0787 16.48C26.8592 14.1887 24.8839 13.4229 22.3818 13.1877V10.0295H20.4472V13.1266H18.9038V10.0295H16.9856V13.2073H13.0663V15.2736C13.0663 15.2736 14.4937 15.2478 14.4718 15.2736C14.729 15.2455 14.9871 15.3183 15.1918 15.4766C15.3965 15.635 15.5318 15.8665 15.5692 16.1225V24.8235C15.5571 25.0056 15.4732 25.1754 15.3359 25.2957C15.1986 25.4159 15.0192 25.4767 14.8371 25.4647C14.8629 25.4866 13.4316 25.4647 13.4316 25.4647L13.0655 27.7747H16.9496V31.0035H18.8795V27.8218H20.4245V30.9886H22.3614V27.7967C25.627 27.5984 27.9041 26.7933 28.1895 23.7363C28.4199 21.2765 27.2629 20.1775 25.4146 19.7385C26.541 19.182 27.2363 18.1567 27.0787 16.48ZM24.3665 23.3553C24.3665 25.7571 20.252 25.4827 18.9414 25.4827V21.2216C20.2552 21.2247 24.3665 20.8477 24.3665 23.3553ZM23.4729 17.3517C23.4729 19.5465 20.0388 19.2808 18.9477 19.2808V15.4077C20.0388 15.4077 23.4729 15.0635 23.4729 17.3517Z" fill="#EBEBEB"/>
</svg>
