<svg width="507" height="507" viewBox="0 0 507 507" fill="none" xmlns="http://www.w3.org/2000/svg">
<path d="M507 253.5C507 393.504 393.504 507 253.5 507C113.496 507 0 393.504 0 253.5C0 113.496 113.496 0 253.5 0C393.504 0 507 113.496 507 253.5Z" fill="black"/>
<path fill-rule="evenodd" clip-rule="evenodd" d="M238.372 157.352L238.236 186.389C243.105 186.315 248.004 186.245 252.798 186.267L252.934 157.42L271.171 157.502L271.03 187.127C294.56 189.274 313.171 196.521 315.149 217.887L315.154 217.892C316.627 233.526 309.972 242.877 299.373 248.152C316.757 252.365 327.616 262.643 325.357 285.558C322.559 314.018 301.063 321.555 270.394 323.153L270.248 353.064L252.012 352.981L252.157 323.473C247.431 323.455 242.591 323.395 237.59 323.269L237.454 352.918L219.237 352.831L219.368 322.866C215.101 322.822 210.756 322.728 206.339 322.701L182.608 322.595L186.331 301.072C186.331 301.072 199.821 301.34 199.587 301.135C204.749 301.15 206.132 297.49 206.466 295.193L206.854 214.033C206.17 210.371 203.783 206.118 196.398 206.082C196.61 205.841 183.356 206.026 183.156 206.028L183.239 186.767L208.393 186.894V186.986C212.173 187.001 216.056 186.946 220.004 186.884L220.145 157.269L238.372 157.352ZM289.335 281.84C289.444 258.486 250.673 261.824 238.309 261.763L238.114 301.465C250.474 301.51 289.239 304.232 289.335 281.84ZM281.117 225.789C281.214 204.545 248.863 207.628 238.566 207.582L238.391 243.589C248.686 243.636 281.016 246.161 281.117 225.789Z" fill="white"/>
<path fill-rule="evenodd" clip-rule="evenodd" d="M253.492 54.8235C313.998 54.8241 363.684 75.1306 398.241 110.019C432.796 144.907 452.18 194.331 452.18 252.472C452.179 310.292 432.417 360.226 397.678 395.707C362.936 431.189 313.253 452.179 253.492 452.179C193.739 452.179 144.059 431.245 109.321 395.853C74.5842 360.461 54.8242 310.648 54.8239 252.972C54.8243 194.685 73.9944 145.137 108.442 110.16C142.892 75.1809 192.575 54.8235 253.492 54.8235ZM253.633 67.4393C207.89 67.4396 170.679 84.623 144.892 116.17C119.092 147.731 104.675 193.732 104.675 251.438C104.676 308.674 118.719 355.714 144.338 388.426C169.943 421.119 207.154 439.558 253.633 439.559C298.467 439.558 335.789 421.704 361.913 389.489C388.047 357.261 403.012 310.607 403.013 252.972C403.012 196.527 388.76 150.136 362.986 117.873C337.223 85.627 299.905 67.4396 253.633 67.4393ZM55.5083 258.258C55.5379 259.653 55.5865 261.043 55.6394 262.428C55.5797 260.865 55.5347 259.295 55.5035 257.72L55.5083 258.258ZM403.644 252.972L403.6 247.701C403.593 247.234 403.576 246.768 403.566 246.303C403.615 248.51 403.644 250.733 403.644 252.972Z" fill="white"/>
</svg>
