<?xml version="1.0" encoding="UTF-8"?>
<svg id="Layer_1" data-name="Layer 1" xmlns="http://www.w3.org/2000/svg" viewBox="0 0 357.21 376.34">
  <defs>
    <style>
      .cls-1 {
        fill: #f9f8f4;
      }
    </style>
  </defs>
  <path class="cls-1" d="M41.34.71c-4.54-2.63-9.53,2.59-6.72,6.99l84.33,132.81c2.45,3.81-1.63,8.44-5.76,6.54L5.3,96.94c-3.68-1.68-7.04,2.86-4.31,5.85l69.22,82.2c1.54,1.86,1.54,4.54,0,6.35L.99,273.55c-2.68,3,.64,7.53,4.31,5.85l107.94-50.11c4.13-1.91,8.17,2.72,5.76,6.54l-84.33,132.81c-2.81,4.4,2.22,9.62,6.72,6.99l312.42-181.56c4.54-2.63,4.54-9.21,0-11.8L41.34.71Z"/>
</svg>