<svg width="578" height="120" viewBox="0 0 578 120" fill="none" xmlns="http://www.w3.org/2000/svg">
<path d="M120.876 88.6104V31.3926H142.537L166.079 73.2434L170.492 70.3825C167.877 66.35 166.024 62.7262 164.934 59.5111C163.844 56.2415 163.299 52.427 163.299 48.0675V31.3926H178.258V88.6104H160.602L132.892 39.2396L128.478 41.937C133.383 50.0565 135.835 58.2032 135.835 66.3772V88.6104H120.876Z" fill="black"/>
<path d="M190.004 88.6104V31.3926H234.307V43.5718H205.126V53.7076H227.686V65.0694H205.126V76.4312H234.307V88.6104H190.004Z" fill="black"/>
<path d="M243.151 65.3146V31.3926H258.6V63.2711C258.6 72.5349 262.333 77.1669 269.799 77.1669C277.264 77.1669 280.997 72.5349 280.997 63.2711V31.3926H296.446V65.3146C296.446 73.2161 294.075 79.3193 289.334 83.6243C284.648 87.8748 278.136 90 269.799 90C261.352 90 254.786 87.8748 250.099 83.6243C245.467 79.3193 243.151 73.2161 243.151 65.3146Z" fill="black"/>
<path d="M321.152 88.6104V43.1631H302.678V31.3926H355.237V43.1631H336.682V88.6104H321.152Z" fill="black"/>
<path d="M362.025 88.6104V31.3926H392.187C398.453 31.3926 403.358 32.7277 406.9 35.3978C410.496 38.068 412.295 41.6646 412.295 46.1875C412.295 49.893 411.314 52.7267 409.352 54.6884C407.554 56.4867 405.401 57.7128 402.895 58.3667C400.388 59.0206 397.227 59.4293 393.413 59.5928V64.4155C399.135 64.5244 403.303 65.3691 405.919 66.9494C408.589 68.5297 410.36 71.6086 411.232 76.186L413.766 88.6104H397.418L395.211 75.3686C394.83 72.5349 393.93 70.5187 392.514 69.3198C391.097 68.121 388.944 67.5216 386.056 67.5216H377.228V88.6104H362.025ZM377.228 56.405H388.59C390.988 56.405 392.895 55.8328 394.312 54.6884C395.729 53.5441 396.437 51.9365 396.437 49.8658C396.437 47.795 395.729 46.2147 394.312 45.1249C392.95 43.9805 391.042 43.4083 388.59 43.4083H377.228V56.405Z" fill="black"/>
<path d="M418.072 60.2467C418.072 51.4188 420.851 44.1712 426.409 38.504C431.968 32.8367 439.651 30.003 449.46 30.003C459.269 29.894 466.98 32.7277 472.592 38.504C478.26 44.2802 481.039 51.5278 480.93 60.2467C480.93 69.0201 478.178 76.186 472.674 81.7443C467.17 87.2481 459.432 90 449.46 90C439.542 90 431.831 87.2481 426.328 81.7443C420.824 76.186 418.072 69.0201 418.072 60.2467ZM464.582 60.165C464.582 54.7702 463.247 50.4652 460.577 47.2501C457.906 43.9805 454.228 42.3457 449.542 42.3457C444.855 42.3457 441.15 43.9805 438.425 47.2501C435.755 50.5197 434.42 54.8247 434.42 60.165C434.42 65.4508 435.755 69.7013 438.425 72.9164C441.095 76.077 444.801 77.6573 449.542 77.6573C454.228 77.6573 457.906 76.077 460.577 72.9164C463.247 69.7013 464.582 65.4508 464.582 60.165Z" fill="black"/>
<path d="M489.743 88.6104V31.3926H511.404L534.945 73.2434L539.359 70.3825C536.743 66.35 534.891 62.7262 533.801 59.5111C532.711 56.2415 532.166 52.427 532.166 48.0675V31.3926H547.124V88.6104H529.469L501.759 39.2396L497.345 41.937C502.249 50.0565 504.701 58.2032 504.701 66.3772V88.6104H489.743Z" fill="black"/>
<path d="M90.8765 30H35.1264L50.9979 48.7119C53.6367 46.4007 57.093 45 60.8765 45C69.1607 45 75.8765 51.7157 75.8765 60C75.8765 63.7367 74.5102 67.1542 72.2499 69.7803L90.8765 85.8074V30Z" fill="black"/>
<path d="M83.5331 90L68.782 72.7501C66.4866 74.1763 63.7777 75 60.8765 75C52.5922 75 45.8765 68.2843 45.8765 60C45.8765 57.1251 46.6853 54.439 48.0877 52.157L30.8765 37.1691V90H83.5331Z" fill="black"/>
</svg>
