<svg width="1050" height="1050" viewBox="0 0 1050 1050" fill="none" xmlns="http://www.w3.org/2000/svg">
<g filter="url(#filter0_d_1_12)">
<circle cx="525" cy="521" r="521" fill="black"/>
</g>
<g clip-path="url(#clip0_1_12)">
<mask id="mask0_1_12" style="mask-type:luminance" maskUnits="userSpaceOnUse" x="269" y="265" width="512" height="512">
<path d="M781 265H269V777H781V265Z" fill="white"/>
</mask>
<g mask="url(#mask0_1_12)">
<path d="M781 265H305.266L440.703 424.675C463.221 404.953 492.715 393 525 393C595.692 393 653 450.308 653 521C653 552.887 641.34 582.05 622.052 604.459L781 741.225V265Z" fill="white"/>
<path d="M718.335 777L592.459 629.802C572.872 641.972 549.757 649 525 649C454.308 649 397 591.692 397 521C397 496.467 403.902 473.546 415.87 454.073L269 326.176V777H718.335Z" fill="white"/>
</g>
</g>
<defs>
<filter id="filter0_d_1_12" x="0" y="0" width="1050" height="1050" filterUnits="userSpaceOnUse" color-interpolation-filters="sRGB">
<feFlood flood-opacity="0" result="BackgroundImageFix"/>
<feColorMatrix in="SourceAlpha" type="matrix" values="0 0 0 0 0 0 0 0 0 0 0 0 0 0 0 0 0 0 127 0" result="hardAlpha"/>
<feOffset dy="4"/>
<feGaussianBlur stdDeviation="2"/>
<feComposite in2="hardAlpha" operator="out"/>
<feColorMatrix type="matrix" values="0 0 0 0 0 0 0 0 0 0 0 0 0 0 0 0 0 0 0.25 0"/>
<feBlend mode="normal" in2="BackgroundImageFix" result="effect1_dropShadow_1_12"/>
<feBlend mode="normal" in="SourceGraphic" in2="effect1_dropShadow_1_12" result="shape"/>
</filter>
<clipPath id="clip0_1_12">
<rect width="512" height="512" fill="white" transform="translate(269 265)"/>
</clipPath>
</defs>
</svg>
