<svg width="512" height="512" viewBox="0 0 512 512" fill="none" xmlns="http://www.w3.org/2000/svg">
<rect width="512" height="512" rx="256" fill="#171717"/>
<path d="M154.451 108.557C150.888 106.491 146.969 110.588 149.178 114.044L215.372 218.286C217.296 221.279 214.089 224.913 210.847 223.416L126.164 184.085C123.278 182.767 120.641 186.329 122.779 188.681L177.109 253.2C178.32 254.661 178.32 256.763 177.109 258.188L122.779 322.707C120.677 325.058 123.278 328.621 126.164 327.303L210.883 287.971C214.125 286.475 217.296 290.109 215.407 293.101L149.214 397.344C147.005 400.8 150.959 404.897 154.486 402.831L399.702 260.325C403.265 258.259 403.265 253.129 399.702 251.098L154.451 108.557Z" fill="#FF4B2F"/>
</svg>
