<svg width="120" height="120" viewBox="0 0 120 120" fill="none" xmlns="http://www.w3.org/2000/svg">
<g clip-path="url(#clip0_2202_6245)">
<path d="M60 120C93.1371 120 120 93.1371 120 60C120 26.8629 93.1371 0 60 0C26.8629 0 0 26.8629 0 60C0 93.1371 26.8629 120 60 120Z" fill="#F9F8F4"/>
<g clip-path="url(#clip1_2202_6245)">
<path d="M37.2901 27.1248C36.4894 26.6635 35.6094 27.579 36.1049 28.3506L50.978 51.642C51.4101 52.3101 50.6905 53.1221 49.9621 52.7889L30.9339 44.0009C30.2848 43.7063 29.6922 44.5025 30.1737 45.0269L42.3818 59.4426C42.6534 59.7688 42.6534 60.2388 42.3818 60.5562L30.1737 74.9736C29.7011 75.4997 30.2866 76.2942 30.9339 75.9995L49.9709 67.2116C50.6993 66.8766 51.4118 67.6886 50.9868 68.3585L36.1138 91.6499C35.6182 92.4215 36.5053 93.337 37.2989 92.8757L92.3995 61.0349C93.2002 60.5737 93.2002 59.4198 92.3995 58.9655L37.2901 27.1248Z" fill="#FF4B2F"/>
</g>
</g>
<defs>
<clipPath id="clip0_2202_6245">
<path d="M0 60C0 26.8629 26.8629 0 60 0C93.1371 0 120 26.8629 120 60C120 93.1371 93.1371 120 60 120C26.8629 120 0 93.1371 0 60Z" fill="white"/>
</clipPath>
<clipPath id="clip1_2202_6245">
<rect width="63" height="66" fill="white" transform="translate(30 27)"/>
</clipPath>
</defs>
</svg>
