<svg width="400" height="400" viewBox="0 0 400 400" fill="none" xmlns="http://www.w3.org/2000/svg">
<mask id="mask0_732:1415" style="mask-type:alpha" maskUnits="userSpaceOnUse" x="0" y="0" width="400" height="400">
<circle cx="200" cy="200" r="200" fill="#C4C4C4"/>
</mask>
<g mask="url(#mask0_732:1415)">
<circle cx="204.197" cy="193.514" r="296.582" transform="rotate(-30 204.197 193.514)" fill="url(#paint0_linear_732:1415)"/>
<path d="M246.747 203.488C246.681 208.696 244.582 213.672 240.899 217.355C237.216 221.038 232.24 223.136 227.032 223.203C232.24 223.269 237.216 225.368 240.899 229.051C244.582 232.734 246.681 237.71 246.747 242.918C246.814 237.7 248.92 232.716 252.616 229.031C256.311 225.347 261.301 223.255 266.519 223.203V223.203C261.301 223.151 256.311 221.059 252.616 217.375C248.92 213.69 246.814 208.706 246.747 203.488Z" fill="white"/>
<path d="M178.159 125.028H147.517C145.585 125.034 143.692 125.57 142.042 126.575C140.393 127.581 139.05 129.019 138.159 130.734L68.6297 265.542C68.1779 266.44 67.9629 267.439 68.0052 268.444C68.0476 269.449 68.3456 270.426 68.8714 271.283C69.3972 272.14 70.1331 272.849 71.0095 273.342C71.8858 273.836 72.8737 274.097 73.8793 274.101H109.001C110.939 274.106 112.841 273.576 114.497 272.57C116.153 271.563 117.5 270.118 118.387 268.395L184.664 136.183C185.265 135.04 185.564 133.764 185.536 132.473C185.507 131.182 185.151 129.92 184.5 128.805C183.85 127.689 182.927 126.758 181.818 126.097C180.709 125.436 179.45 125.069 178.159 125.028Z" fill="white"/>
<path d="M92.0819 179.18C92.5492 180.145 93.2788 180.958 94.1871 181.528C95.0953 182.097 96.1455 182.399 97.2174 182.399C98.2894 182.399 99.3397 182.097 100.248 181.528C101.156 180.958 101.886 180.145 102.353 179.18L121.383 142.347C121.789 141.547 122.001 140.662 122.001 139.765C122.001 138.867 121.789 137.983 121.383 137.183L118.33 130.792C117.443 129.069 116.096 127.624 114.44 126.617C112.784 125.611 110.882 125.081 108.944 125.086H73.8793C72.8737 125.09 71.8858 125.351 71.0095 125.845C70.1331 126.338 69.3972 127.046 68.8714 127.904C68.3456 128.761 68.0476 129.738 68.0052 130.743C67.9629 131.748 68.1779 132.746 68.6297 133.645L92.0819 179.18Z" fill="white"/>
<path d="M341.355 265.514L271.826 130.706C270.935 128.992 269.592 127.553 267.943 126.547C266.293 125.542 264.4 125.006 262.468 125H231.94C230.008 125.006 228.114 125.542 226.465 126.547C224.815 127.553 223.472 128.992 222.582 130.706L171.226 230.279C171.081 230.553 170.863 230.783 170.596 230.943C170.33 231.103 170.025 231.188 169.714 231.188C169.403 231.188 169.098 231.103 168.832 230.943C168.565 230.783 168.348 230.553 168.202 230.279L162.696 219.266C162.306 218.491 161.709 217.84 160.971 217.385C160.233 216.931 159.383 216.69 158.516 216.69C157.649 216.69 156.799 216.931 156.061 217.385C155.323 217.84 154.726 218.491 154.336 219.266L134.85 258.125C134.504 258.795 134.324 259.539 134.324 260.293C134.324 261.047 134.504 261.791 134.85 262.461L138.102 268.453C138.993 270.167 140.335 271.605 141.985 272.611C143.635 273.617 145.528 274.152 147.46 274.159H193.366C195.305 274.167 197.208 273.638 198.865 272.631C200.522 271.624 201.868 270.178 202.753 268.453L221.412 231.363C222.684 228.887 223.347 226.143 223.347 223.36C223.347 220.576 222.684 217.833 221.412 215.357L207.974 189.679C207.14 188.073 206.735 186.28 206.796 184.472C206.858 182.664 207.384 180.902 208.324 179.356C209.265 177.811 210.588 176.533 212.166 175.648C213.744 174.763 215.523 174.299 217.332 174.301H277.247C279.055 174.306 280.832 174.777 282.405 175.667C283.979 176.558 285.297 177.84 286.231 179.388C287.166 180.936 287.686 182.699 287.742 184.506C287.797 186.314 287.386 188.105 286.548 189.708L271.426 218.552C270.654 220.037 270.25 221.686 270.25 223.36C270.25 225.033 270.654 226.683 271.426 228.167L291.712 268.396C292.597 270.121 293.943 271.567 295.599 272.574C297.256 273.581 299.16 274.11 301.098 274.102H336.22C337.22 274.081 338.198 273.806 339.062 273.303C339.927 272.801 340.65 272.087 341.163 271.228C341.676 270.37 341.963 269.396 341.997 268.396C342.03 267.397 341.81 266.405 341.355 265.514V265.514Z" fill="white"/>
</g>
<defs>
<linearGradient id="paint0_linear_732:1415" x1="183.957" y1="50.1766" x2="210.759" y2="256.754" gradientUnits="userSpaceOnUse">
<stop offset="0.0625" stop-color="#1629E6"/>
<stop offset="1" stop-color="#5643F2"/>
</linearGradient>
</defs>
</svg>
