<svg width="48" height="48" fill="none" version="1.1" viewBox="0 0 48 48" xmlns="http://www.w3.org/2000/svg">
	<path d="m24 46.5c12.426 0 22.5-10.074 22.5-22.5s-10.074-22.5-22.5-22.5-22.5 10.074-22.5 22.5 10.074 22.5 22.5 22.5zm0 1.5c13.255 0 24-10.745 24-24s-10.745-24-24-24-24 10.745-24 24 10.745 24 24 24z" clip-rule="evenodd" fill="url(#paint0_linear_34_14159)" fill-rule="evenodd"/>
	<g fill="url(#paint1_linear_34_14159)">
		<path d="m12.632 30.319c-0.0371 0.1651-0.0068 0.2218-0.0014 0.2311l-0.5319 0.3065c-0.8438-1.4585 3.8003-5.711 10.373-9.4982 1.296-0.7467 2.5701-1.4196 3.7871-2.0075 0.0176 0.2167 0.034 0.4361 0.0492 0.658-1.1357 0.555-2.3217 1.1848-3.5291 1.8804-3.2593 1.8781-6.0241 3.8627-7.8593 5.5432-0.9214 0.8437-1.5832 1.5879-1.9607 2.1846-0.1891 0.2989-0.2886 0.5326-0.3266 0.7019z"/>
		<path d="m26.904 19.722c-0.0161-0.2203-0.0334-0.4381-0.0519-0.6533 4.6794-2.1879 8.3983-3.0509 9.0485-1.927l-0.532 0.3065c-0.0054-0.0093-0.0394-0.0638-0.2011-0.1143-0.166-0.0519-0.4185-0.0827-0.7725-0.0687-0.7065 0.0279-1.6832 0.2278-2.876 0.6023-1.3407 0.421-2.9134 1.0494-4.615 1.8545z"/>
		<path d="m12.832 30.665c-0.1617-0.0505-0.1958-0.1051-0.2012-0.1144l-0.5319 0.3065c0.6501 1.1239 4.3691 0.2609 9.0486-1.927-0.0185-0.2152-0.0358-0.433-0.0519-0.6533-1.7017 0.8052-3.2744 1.4335-4.6152 1.8545-1.1928 0.3745-2.1694 0.5744-2.8759 0.6024-0.354 0.014-0.6065-0.0169-0.7725-0.0687z"/>
		<path d="m21.691 27.99c1.1356-0.555 2.3217-1.1847 3.529-1.8804l0.3071 0.5309c-1.2958 0.7467-2.5699 1.4196-3.7869 2.0075-0.0176-0.2167-0.034-0.4361-0.0492-0.658z"/>
		<path d="m35.367 17.68c0.037-0.165 0.0065-0.2217 0.0011-0.2311l0.532-0.3065c0.8437 1.4586-3.8002 5.711-10.373 9.4982l-0.3071-0.5309c3.2594-1.8781 6.0243-3.8626 7.8595-5.5432 0.9214-0.8437 1.5832-1.5879 1.9607-2.1846 0.1891-0.2989 0.2886-0.5325 0.3266-0.7019z"/>
		<path d="m29.962 18.307c0.267 0.4615 0.8581 0.6197 1.3203 0.3534 0.4621-0.2663 0.6204-0.8563 0.3534-1.3178-0.2669-0.4615-0.858-0.6197-1.3202-0.3534s-0.6205 0.8563-0.3535 1.3178z" clip-rule="evenodd" fill-rule="evenodd"/>
		<path d="m35.368 30.321c0.0371 0.165 0.0068 0.2217 0.0014 0.231l0.5319 0.3066c0.6502-1.124-1.9582-3.9069-6.1965-6.8575-0.1775 0.1236-0.3579 0.2475-0.541 0.3715 1.5496 1.0683 2.8813 2.1134 3.9169 3.0618 0.9214 0.8437 1.5832 1.5879 1.9607 2.1846 0.1891 0.2989 0.2886 0.5326 0.3266 0.702z"/>
		<path d="m24.643 27.143c2.5655 1.3612 4.958 2.3878 6.8757 2.9899 1.1928 0.3746 2.1695 0.5745 2.876 0.6024 0.354 0.014 0.6065-0.0168 0.7725-0.0687 0.1617-0.0505 0.1962-0.1048 0.2016-0.1142l0.5319 0.3066c-0.7778 1.3445-5.9483-0.1548-11.901-3.3643 0.2134-0.115 0.4277-0.2323 0.6429-0.3517z"/>
		<path d="m23.358 27.143c0.2132-0.1131 0.4275-0.2285 0.6429-0.3461-0.4038-0.2207-0.8112-0.4492-1.221-0.6854-1.2073-0.6956-2.3467-1.4058-3.3961-2.1097-0.185 0.124-0.3671 0.2479-0.5464 0.3715 1.1187 0.7578 2.3396 1.5226 3.6354 2.2693 0.2963 0.1708 0.5916 0.3375 0.8852 0.5004z"/>
		<path d="m18.296 24.002c-4.2383-2.9506-6.8466-5.7335-6.1964-6.8574l0.5319 0.3065c-0.0054 0.0094-0.0357 0.0661 0.0014 0.2311 0.038 0.1694 0.1375 0.403 0.3266 0.7019 0.3775 0.5967 1.0393 1.3409 1.9607 2.1846 1.0356 0.9484 2.3673 1.9935 3.9168 3.0618-0.1831 0.124-0.3635 0.2479-0.541 0.3715z"/>
		<path d="m28.617 24.002c0.1849-0.124 0.3671-0.2479 0.5463-0.3715-1.1186-0.7578-2.3395-1.5226-3.6353-2.2693l-0.3071 0.531c1.2072 0.6956 2.3466 1.4058 3.3961 2.1098z"/>
		<path d="m12.833 17.337c-0.1617 0.0505-0.196 0.105-0.2014 0.1143l-0.5319-0.3065c0.8437-1.4586 6.8562 0.4292 13.429 4.2163l-0.3071 0.531c-3.2594-1.8781-6.364-3.2755-8.7399-4.0215-1.1928-0.3745-2.1694-0.5744-2.8759-0.6023-0.354-0.014-0.6065 0.0168-0.7725 0.0687z"/>
		<path d="m16.079 21.694c0.267-0.4615 0.1087-1.0515-0.3534-1.3179-0.4622-0.2663-1.0533-0.1081-1.3203 0.3534s-0.1087 1.0516 0.3535 1.3179 1.0533 0.1081 1.3202-0.3534z" clip-rule="evenodd" fill-rule="evenodd"/>
		<path d="m24.2 11.015c-0.1247-0.1145-0.189-0.1167-0.1998-0.1167v-0.6131c1.5557 0 2.8399 5.2189 3.031 11.969-0.2065-0.1269-0.4154-0.2536-0.6266-0.3799-0.1016-2.8985-0.407-5.4801-0.8435-7.4391-0.2714-1.2182-0.5863-2.1623-0.9153-2.7869-0.1648-0.313-0.3178-0.5158-0.4458-0.6333z"/>
		<path d="m26.425 22.604c0.0104 0.4589 0.0158 0.9248 0.0158 1.3967 0 0.4721-0.0054 0.9383-0.0158 1.3975 0.2098-0.1273 0.4171-0.2549 0.6218-0.3826 0.0055-0.3351 0.0083-0.6736 0.0083-1.0149 0-0.3411-0.0028-0.6793-0.0083-1.0141-0.2047-0.1277-0.412-0.2553-0.6218-0.3826z"/>
		<path d="m27.031 25.747c-0.2065 0.1269-0.4154 0.2535-0.6266 0.3798-0.0223 0.6382-0.0546 1.261-0.0959 1.8651 0.2001 0.0978 0.3987 0.1933 0.5955 0.2865 0.0594-0.813 0.1023-1.6594 0.127-2.5314z"/>
		<path d="m26.852 28.931c-0.196-0.0917-0.3936-0.1856-0.5928-0.2818-0.1522 1.873-0.3933 3.5462-0.6983 4.9153-0.2714 1.2182-0.5863 2.1623-0.9153 2.7869-0.1649 0.3129-0.3178 0.5158-0.4458 0.6333-0.1247 0.1145-0.189 0.1167-0.1998 0.1167v0.613c1.3002 0 2.4108-3.6454 2.852-8.7834z"/>
		<path d="m22.438 33.565c-0.5406-2.4265-0.8802-5.8084-0.8803-9.5646 0-1.3911 0.0467-2.731 0.1328-3.9899-0.2001-0.0979-0.3986-0.1934-0.5955-0.2865-0.0983 1.3457-0.1515 2.7832-0.1515 4.2764 0 7.5743 1.3684 13.714 3.056 13.714v-0.613c-0.0109 0-0.0757-0.0022-0.2003-0.1167-0.128-0.1175-0.281-0.3204-0.4458-0.6333-0.329-0.6246-0.6439-1.5687-0.9154-2.7869z"/>
		<path d="m21.147 19.07c0.196 0.0916 0.3936 0.1856 0.5928 0.2818 0.1522-1.8735 0.3933-3.5472 0.6984-4.9167 0.2714-1.2182 0.5863-2.1623 0.9153-2.7869 0.1649-0.3129 0.3178-0.5157 0.4458-0.6333 0.1247-0.1145 0.1894-0.1167 0.2003-0.1167v-0.6131c-1.3004 0-2.4115 3.6461-2.8526 8.7849z"/>
		<path d="m22.041 32c0.5339 0 0.9667 0.4318 0.9667 0.9644s-0.4328 0.9644-0.9667 0.9644c-0.534 0-0.9668-0.4318-0.9668-0.9644s0.4328-0.9644 0.9668-0.9644z" clip-rule="evenodd" fill-rule="evenodd"/>
	</g>
	<path d="m23.994 22.565c0.791 0 1.4322 0.6399 1.4322 1.4294 0 0.7894-0.6412 1.4293-1.4322 1.4293s-1.4322-0.6399-1.4322-1.4293c0-0.7895 0.6412-1.4294 1.4322-1.4294z" clip-rule="evenodd" fill="url(#paint21_linear_34_14159)" fill-rule="evenodd"/>
	<defs>
		<linearGradient id="paint0_linear_34_14159" x2="50.005" y2="3.355" gradientUnits="userSpaceOnUse">
			<stop stop-color="#0BF6CC" offset="0"/>
			<stop stop-color="#073DC8" offset="1"/>
		</linearGradient>
		<linearGradient id="paint1_linear_34_14159" x1="12" x2="37.029" y1="10.286" y2="11.755" gradientUnits="userSpaceOnUse">
			<stop stop-color="#0BF6CC" offset="0"/>
			<stop stop-color="#073DC8" offset="1"/>
		</linearGradient>
		<linearGradient id="paint21_linear_34_14159" x1="22.523" x2="25.589" y1="22.525" y2="22.731" gradientUnits="userSpaceOnUse">
			<stop stop-color="#0BF6CC" offset="0"/>
			<stop stop-color="#073DC8" offset="1"/>
		</linearGradient>
	</defs>
</svg>
