<svg width="250" height="250" viewBox="0 0 250 250" fill="none" xmlns="http://www.w3.org/2000/svg">
<g clip-path="url(#clip0_0_3)">
<circle cx="125" cy="125" r="125" fill="white"/>
<path d="M135.509 97.9099C135.684 87.1088 143.333 78.0009 153.783 75.9575V54.8225C143.099 55.9318 133.174 60.9528 125.876 69.0098L125.058 69.9439L124.241 69.0098C116.943 60.8944 107.076 55.9318 96.3335 54.8225V75.9575C106.784 78.0009 114.433 87.1088 114.608 97.8515V152.09C114.433 162.891 106.784 171.999 96.3335 174.043V195.177C107.018 194.068 116.943 189.047 124.241 180.99L125.058 180.056L125.876 180.99C133.174 189.106 143.041 194.068 153.783 195.177V174.043C143.333 171.999 135.684 162.891 135.509 152.149V97.9099Z" fill="black"/>
</g>
<defs>
<clipPath id="clip0_0_3">
<rect width="250" height="250" fill="white"/>
</clipPath>
</defs>
</svg>
