<svg xmlns="http://www.w3.org/2000/svg" viewBox="0 0 60 60">
  <circle fill="black" cx="30" cy="30" r="30"/>
  <circle fill="white" cx="30" cy="30" r="27"/>
  <path fill="black" d="M32.522 23.498a5.442 5.442 0 0 1 4.386-5.268v-5.073a10.494 10.494 0 0 0-6.698 3.405l-.196.224-.196-.224a10.396 10.396 0 0 0-6.698-3.405v5.073a5.438 5.438 0 0 1 4.386 5.254v13.017a5.442 5.442 0 0 1-4.386 5.269v5.072a10.494 10.494 0 0 0 6.698-3.404l.196-.225.196.224a10.395 10.395 0 0 0 6.698 3.405V41.77a5.438 5.438 0 0 1-4.386-5.255V23.499Z"/>
</svg>
