<svg id="Layer_1" data-name="Layer 1" xmlns="http://www.w3.org/2000/svg" viewBox="0 0 250 63" style="background-color:#FFFFFF"><defs>
<style>.cls-1{fill:#530075;}</style></defs><title>GGEZLogoSvgPath1</title>
<path class="cls-1" d="M51.8,46.24H49.72V6.06L47.9,4.25H38.74l-.69.68,0,0-.18.19-.18.18-.1.1-1.2-1.2H23.24l-.18.19-.18.18-.18.18L22.52,5l-.37.36-.1.11-1.2-1.2H7.74l-.18.19-.19.18-.9.91-.91.9-.18.19-.73.72-.18.19-.91.9-.18.19-.73.72L1.56,10.42l-.18.18v22l1.19,1.2-.1.11-.36.36-.19.18-.18.18-.18.18L1.38,35v22L3.2,58.75H16.31l.36-.36L17,58l.18-.19.29-.28,1.2,1.19H31.81l.36-.36.19-.18.32-.33.32-.32,1.2,1.2H47.26l.18-.19.91-.9.91-.91.18-.18.73-.73.18-.18.91-.91.18-.18.73-.73,1.09-1.09.18-.18h0l.18-.18V48.06ZM20.85,34.73H13v4.49h6.52v4.31H13v4.55h7.84v4.31H7.74v-22H20.85Zm0-21.19H15.58V10.37H13V23.72h2.57V19.17H14.14V14.86h6.71V28H7.74v-22H20.85ZM36.35,31.2v3.53L28.51,48.08h7.84v4.31H23.24V48.08l7.85-13.35H23.24V30.42H36.35Zm0-17.66H31.09V10.37H28.51V23.72h2.58V19.17H29.65V14.86h6.7V28H23.24v-22H36.35ZM51.8,52.4H38.74V48.06h3.91V10.34H38.74V6.06H47.9v42h3.9Z"/></svg>
