<?xml version="1.0" encoding="UTF-8"?>
<svg xmlns="http://www.w3.org/2000/svg" version="1.1" viewBox="0 0 256 256">
  <defs>
    <style>
      .cls-1 {
        fill: #fff;
      }

      .cls-2 {
        fill: none;
      }

      .cls-3 {
        fill: #530075;
      }
    </style>
  </defs>
  <!-- Generator: Adobe Illustrator 28.7.1, SVG Export Plug-In . SVG Version: 1.2.0 Build 142)  -->
  <g>
    <g id="Layer_1">
      <rect class="cls-1" width="256" height="256"/>
      <path class="cls-2" d=""/>
      <path class="cls-3" d="M232.7,187.1h-8.5V22.7l-7.4-7.4h-37.5l-2.8,2.8h0l-.7.8-.7.7-.4.4-4.9-4.9h-53.8l-.7.8-.7.7-.7.7-.7,1-1.5,1.5-.4.5-4.9-4.9h-53.6l-.7.8-.8.7-3.7,3.7-3.7,3.7-.7.8-3,2.9-.7.8-3.7,3.7-.7.8-3,2.9-4.5,4.3-.7.7v90l4.9,4.9-.4.5-1.5,1.5-.8.7-.7.7-.7.7-.7.8v90l7.4,7.2h53.6l1.5-1.5,1.4-1.6.7-.8,1.2-1.1,4.9,4.9h53.8l1.5-1.5.8-.7,1.3-1.4,1.3-1.3,4.9,4.9h53.4l.7-.8,3.7-3.7,3.7-3.7.7-.7,3-3,.7-.7,3.7-3.7.7-.7,3-3,4.5-4.5.7-.7h0l.7-.7v-17.6l-7.4-7.4ZM106.1,140h-32.1v18.4h26.7v17.6h-26.7v18.6h32.1v17.6h-53.6v-90h53.6v17.8ZM106.1,53.3h-21.6v-13h-10.6v54.6h10.5v-18.6h-5.9v-17.6h27.5v53.8h-53.6V22.5h53.6v30.8ZM169.5,125.6v14.4l-32.1,54.6h32.1v17.6h-53.6v-17.6l32.1-54.6h-32.1v-17.6h53.6v3.2ZM169.5,53.3h-21.5v-13h-10.6v54.6h10.6v-18.6h-5.9v-17.6h27.4v53.8h-53.6V22.5h53.6v30.8ZM232.7,212.3h-53.4v-17.8h16V40.2h-16v-17.5h37.5v171.8h16v17.8Z"/>
      <path class="cls-2" d=""/>
    </g>
  </g>
</svg>