<?xml version="1.0" encoding="utf-8"?>
<!-- Generator: Adobe Illustrator 23.1.0, SVG Export Plug-In . SVG Version: 6.00 Build 0)  -->
<svg version="1.1" id="Livello_1" xmlns="http://www.w3.org/2000/svg" xmlns:xlink="http://www.w3.org/1999/xlink" x="0px" y="0px"
	 viewBox="0 0 800 800" style="enable-background:new 0 0 800 800;" xml:space="preserve">
<style type="text/css">
	.st0{fill:#F0A841;}
	.st1{fill:#FED62E;}
	.st2{fill:#373636;}
	.st3{fill:#FFFFFF;}
	.st4{fill:#FFFEDF;}
	.st5{fill:#FA7F5B;}
	.st6{fill:#FED493;}
</style>
<g>
	<g id="faccia_cane">
		<path class="st0" d="M680.5,410.5c0,161.5-142.7,267.7-251.1,283.8c-10.7,1.6-18.6,1.9-21.8,2C289.4,700,108.8,594.1,108.8,410.5
			c-0.1-154.4,127.6-285.8,285.8-285.8C552.5,124.7,680.5,252.7,680.5,410.5z"/>
		<path class="st1" d="M687,393.4c0,161.5-142.7,267.7-251.1,283.8c-10.7,1.6-18.6,1.9-21.8,2C296,682.9,115.5,577,115.4,393.4
			C115.3,239,242.9,107.5,401.2,107.5C559,107.5,687,235.5,687,393.4z"/>
		<path class="st0" d="M606.4,386.5c2.2,90.5-63.7,169.5-142.6,191.4C344.1,611.1,200.9,511,201.9,386.5c0.9-98,91-192,202.2-192
			C511.4,194.6,603.9,282.1,606.4,386.5z"/>
		<path class="st2" d="M469.2,246.8c2.5,6.8,9.8,9.4,15.2,13.5c40.5,31.4,70.8,69.3,91.4,113.8c5.2,11.3,7.6,23.5,14,34.4
			c0.1-0.1,0.3-0.2,0.4-0.2c0.2-0.1,0.2-0.2,0.2-0.3c0.6-0.8,44.4-40.8,69-94.4c5.1-11.1,15.4-34,19-65.4c5.1-44.3-8.4-58.7-7.2-91
			c0.1-1.7,0.3-6-2.4-9.7c-6.1-8.6-22.6-7-35.8-4.8c-39.6,6.7-78,13.2-117.1,46.4C503.4,199.8,484.9,218.3,469.2,246.8z"/>
		<path class="st2" d="M317.9,252.7c-2.5,6.8-9.8,9.4-15.2,13.5c-40.5,31.4-70.8,69.3-91.4,113.8c-5.2,11.3-7.6,23.5-14,34.4
			c-0.1-0.1-0.3-0.2-0.4-0.2c-0.2-0.1-0.2-0.2-0.2-0.3c-0.6-0.8-44.4-40.8-69-94.4c-5.1-11.1-15.4-34-19-65.4
			c-5.1-44.3,8.4-58.7,7.2-91c-0.1-1.7-0.3-6,2.4-9.7c6.1-8.6,22.6-7,35.8-4.8c39.6,6.7,78,13.2,117.1,46.4
			C283.7,205.8,302.3,224.2,317.9,252.7z"/>
		<path class="st1" d="M309,265.6c-2,5.8-7.7,8-11.9,11.5c-31.9,26.7-55.8,59-72,96.9c-4.1,9.6-6,20-11,29.3
			c-0.2-0.1-0.5-0.3-0.5-0.4c-2.1-16.2-11.5-28.5-21-41.4c-19.5-26.5-28.2-57.6-34.5-89.2c-5.5-27.4-7.4-55.1-8.1-83
			c-0.2-8.9,2.2-10.7,11-8.9C220.1,192.6,269.5,220.9,309,265.6z"/>
		<path class="st1" d="M492.5,261.7c1.9,5.8,7.7,8,11.9,11.6c31.7,26.9,55.4,59.3,71.4,97.3c4.1,9.7,5.9,20,10.8,29.3
			c0.2-0.1,0.5-0.3,0.5-0.4c2.2-16.2,11.6-28.4,21.2-41.3c19.6-26.4,28.5-57.4,35-89c5.7-27.3,7.8-55.1,8.6-82.9
			c0.3-8.9-2.1-10.8-11-9C581.8,189.2,532.3,217.2,492.5,261.7z"/>
		<path class="st3" d="M485.3,276.1c1.8,5.1,7.2,7,11.1,10.1c29.6,23.4,51.8,51.5,66.9,84.6c3.8,8.4,5.6,17.5,10.2,25.6
			c0.2-0.1,0.5-0.2,0.5-0.4c2-14.1,10.7-24.9,19.5-36.2c18.1-23.2,26.2-50.3,32.1-77.9c5.1-23.9,6.9-48.2,7.6-72.5
			c0.2-7.8-2-9.4-10.2-7.8C567.8,212.3,522,237.1,485.3,276.1z"/>
		<path class="st3" d="M318.9,282.5c-1.8,5.1-7.2,7-11.1,10.1c-29.6,23.4-51.8,51.5-66.9,84.6c-3.8,8.4-5.6,17.5-10.2,25.6
			c-0.2-0.1-0.5-0.2-0.5-0.4c-2-14.1-10.7-24.9-19.5-36.2c-18.1-23.2-26.2-50.3-32.1-77.9c-5.1-23.9-6.9-48.2-7.6-72.5
			c-0.2-7.8,2-9.4,10.2-7.8C236.4,218.6,282.3,243.4,318.9,282.5z"/>
		<ellipse class="st2" cx="399.1" cy="401.8" rx="202.2" ry="192"/>
		<circle class="st1" cx="288.6" cy="437.4" r="71.7"/>
		<circle class="st2" cx="290.3" cy="432.3" r="56.8"/>
		<circle class="st1" cx="542.7" cy="433.7" r="71.7"/>
		<circle class="st2" cx="544.4" cy="428.6" r="56.8"/>
		<circle class="st4" cx="559.5" cy="402" r="17"/>
		
			<ellipse transform="matrix(0.1602 -0.9871 0.9871 0.1602 -37.7514 899.4285)" class="st4" cx="509.7" cy="471.9" rx="9.9" ry="9.9"/>
		<path class="st5" d="M389.7,606.6c3.7,6.2,15.5,25.9,36.9,25.9c15.3,0,29.8-10.3,36.8-25.8c1.5-5.2,6.1-22.6-2.9-36
			c-16.5-24.5-67.6-20.1-77.9,0.6C376.1,584.2,386.6,601.5,389.7,606.6z"/>
		<path class="st3" d="M506.2,535.1c3.2,19.8-4.6,40.2-18.1,53.5c-10.9,10.8-22.9,14.3-33.3,17.2c-9.2,2.6-55.9,15.6-92-12.9
			c-5.4-4.2-28.1-22.2-29.2-49.7c-0.6-14.8,5.4-26.3,9.1-33.4c13-24.4,27.7-24.5,39.8-40.2c28.9-37.6-0.8-108,18.1-133.9
			c1.7-2.4,6.6-9,13.3-9.1c6.5-0.1,11.5,6.1,13.3,8.3c20.4,25.3-2.1,98.5,30.7,135.1c10,11.2,22.8,16.3,36.6,38.3
			C499.9,516.7,504.4,524.2,506.2,535.1z"/>
		<path class="st6" d="M410.5,346.1"/>
		<path class="st2" d="M421.5,552.2c-9.3-2.1-16.9-7.2-17.4-7.6c-6.7-4.5-14.8-10-14.2-16.8c0.3-3.3,2.5-5.8,3-6.3
			c2.5-2.6,5.9-3.5,11.7-4.9c0.8-0.2,1.9-0.5,3.4-0.7c14.7-2.7,30.8-0.8,30.8-0.8c3.2,0.4,6.6,0.9,10.2,1.7c2.8,0.6,5.5,1.3,7.9,2
			c2.9,0.7,5.2,2.7,6,5.4c0.9,3.1-0.6,5.7-0.8,6.2c-3.7,6.7-8,11.2-11,13.8c-3.6,3.2-7.8,6.9-14.1,8.3c-3.9,0.9-7.8,0.7-8.7,0.7
			C427.3,553.1,424.8,552.9,421.5,552.2z"/>
		<circle class="st4" cx="305.3" cy="405.7" r="17"/>
		<circle class="st4" cx="263.7" cy="475.6" r="9.9"/>
	</g>
</g>
</svg>
