<svg viewBox="0 0 46 45" fill="none" xmlns="http://www.w3.org/2000/svg"><path fill-rule="evenodd" clip-rule="evenodd" d="M31.6796 0.989525C31.5683 0.939396 31.4617 0.871086 31.3451 0.841869C27.0388 -0.236973 22.785 -0.066227 18.6167 1.46302C16.9954 2.05781 15.4694 2.85427 14.0507 3.86419C12.8227 4.73829 11.6982 5.71613 10.7089 6.83338C7.37461 10.599 5.78771 14.982 6.08153 20.0074C6.27833 23.373 7.39811 26.4166 9.53047 29.0287C12.0151 32.0721 15.2124 33.9645 19.2046 34.3454C21.8341 34.5963 24.3436 34.158 26.6468 32.8161C27.6377 32.2387 28.5326 31.5329 29.327 30.7039C29.5706 30.4497 29.8278 30.2004 30.1146 29.9988C30.238 29.9121 30.496 29.8828 30.6131 29.9548C30.7284 30.0257 30.8251 30.2814 30.7863 30.415C30.6576 30.8576 30.5251 31.3192 30.284 31.706C29.5669 32.8561 28.6442 33.8245 27.4995 34.5787C23.1138 37.4681 18.4895 37.508 13.765 35.6036C11.2698 34.5978 9.20092 32.9665 7.45576 30.9096C4.4633 27.3826 3.11181 23.2734 3.02193 18.7371C2.96998 16.1135 3.54314 13.5688 4.51037 11.1273C5.30079 9.13212 6.34341 7.26887 7.74835 5.62657C8.36802 4.90223 9.03607 4.21849 9.68151 3.51567C9.80368 3.38266 9.9227 3.24685 10.0432 3.11227C10.0243 3.08952 10.0053 3.0667 9.98633 3.04389C9.82052 3.17806 9.6398 3.29779 9.49131 3.44866C8.13803 4.8235 6.87656 6.26611 5.8558 7.91413C4.07465 10.7897 2.99142 13.8866 2.70708 17.2499C2.46603 20.1005 2.75058 22.8992 3.69637 25.6085C4.50851 27.9351 5.67941 30.0809 7.33407 31.9267C11.2804 36.3291 16.1955 38.5232 22.1784 38.1079C25.2587 37.8939 28.0709 36.8587 30.4746 34.9198C34.158 31.9487 36.003 28.1178 35.7381 23.3613C35.7161 22.9649 35.6746 22.5658 35.7023 22.1721C35.7142 22.0029 35.8552 21.738 35.9822 21.709C36.1262 21.6762 36.381 21.8157 36.4823 21.9553C36.9364 22.5813 37.0779 23.3299 37.1853 24.0696C37.6135 27.0182 37.0211 29.775 35.5536 32.3634C34.1523 34.835 32.2217 36.8021 29.7645 38.2349C25.3196 40.8267 20.5684 41.326 15.6092 40.1088C12.5091 39.348 9.77551 37.8644 7.36307 35.7977C4.84453 33.6399 2.93521 31.0375 1.61733 28.009C1.30983 27.3025 1.01999 26.5884 0.682739 25.8858C0.821887 26.3379 0.936091 26.7992 1.10403 27.2405C2.77243 31.624 5.49752 35.2015 9.42946 37.831C12.9005 40.1522 16.7415 41.3797 20.9333 41.3718C25.386 41.3634 29.4066 40.0201 32.8839 37.2262C36.3419 34.4476 38.4276 30.8579 39.0675 26.4926C39.5562 23.1593 38.9358 19.9824 37.2296 17.0747C35.7829 14.6093 33.7299 12.7488 31.0327 11.6547C30.4085 11.4015 29.7665 11.1919 29.1331 10.9611C28.9613 10.8985 28.7656 10.8645 28.627 10.7583C28.4884 10.6522 28.3037 10.4522 28.3276 10.3293C28.3575 10.1763 28.56 9.98886 28.7239 9.94363C29.0156 9.86313 29.3355 9.84658 29.6414 9.85856C31.5392 9.9328 33.2342 10.6106 34.8046 11.6235C38.2087 13.8191 40.2875 16.9404 41.2203 20.8203C42.1609 24.7327 41.7199 28.5361 40.1017 32.2039C38.7621 35.2401 36.7003 37.739 34.0789 39.7697C32.3848 41.0821 30.506 42.087 28.4834 42.8435C26.592 43.5508 24.6501 43.9768 22.6446 44.156C22.4972 44.1692 22.3512 44.1976 22.2047 44.255C22.499 44.255 22.7963 44.2818 23.0872 44.2507C25.3159 44.0125 27.5067 43.5909 29.5787 42.7188C32.1176 41.6501 34.4156 40.218 36.3928 38.2786C37.8877 36.8123 39.1684 35.2026 40.1527 33.3649C42.1951 29.552 42.9393 25.5078 42.2313 21.2384C41.4815 16.7177 39.3118 12.9995 35.5908 10.2521C32.6662 8.09264 29.3581 7.03471 25.6858 7.24442C23.3615 7.37716 21.194 8.07235 19.2637 9.33992C16.7468 10.9927 15.0445 13.2686 14.3447 16.2245C14.2719 16.5324 14.1899 16.8479 14.0446 17.1251C13.9634 17.2798 13.7442 17.451 13.5849 17.4532C13.4272 17.4555 13.1632 17.2811 13.126 17.1381C12.9961 16.6399 12.8776 16.1222 12.8756 15.6114C12.8699 14.2177 13.335 12.9308 13.9725 11.7136C15.6089 8.58929 18.1938 6.55312 21.5018 5.37102C26.2527 3.67335 30.8157 4.28469 35.2094 6.54719C37.6712 7.8149 39.7035 9.60759 41.3868 11.8014C43.5204 14.5818 44.8292 17.6977 45.3518 21.1419C45.4998 22.1168 45.5867 23.1007 45.7102 24.1542C45.8229 22.864 45.6719 21.6602 45.4724 20.4666C44.9004 17.0453 43.5712 13.9313 41.4429 11.1786C39.6734 8.89006 37.5035 7.05746 34.9063 5.71892C31.9858 4.21379 28.8855 3.45342 25.6109 3.58691C21.8245 3.74125 18.3293 4.89494 15.4367 7.36123C11.0974 11.0609 9.15666 15.731 10.335 21.4074C11.0318 24.7637 12.9662 27.3138 16.0402 28.9376C16.7393 29.3069 17.5318 29.503 18.2831 29.7742C18.5516 29.8711 18.8482 29.9159 19.088 30.0576C19.2488 30.1526 19.4269 30.3778 19.424 30.5418C19.4212 30.7081 19.2332 30.9755 19.0779 31.0159C18.5753 31.1465 18.0458 31.283 17.5351 31.2567C15.3418 31.1437 13.4503 30.2858 11.7799 28.8839C9.27389 26.7807 7.86695 24.0768 7.26261 20.922C6.55182 17.2116 7.24371 13.7034 8.97711 10.4028C10.5085 7.48675 12.7428 5.18583 15.5693 3.43456C19.0955 1.24977 22.9377 0.272953 27.0671 0.359383C28.6252 0.39201 30.1678 0.617382 31.6847 0.987621L31.6796 0.989525Z" fill="url(#paint0_linear_8392_53486)"></path><path d="M19.6578 1.83813L19.8814 12.1565C19.9132 13.627 21.0977 14.8115 22.5682 14.8433L32.8866 15.0669L22.5682 15.2904C21.0977 15.3222 19.9132 16.5067 19.8814 17.9772L19.6578 28.2956L19.4343 17.9772C19.4025 16.5067 18.218 15.3222 16.7475 15.2904L6.42912 15.0669L16.7475 14.8433C18.218 14.8115 19.4025 13.627 19.4343 12.1565L19.6578 1.83813Z" fill="#2B2B2B"></path><defs><linearGradient id="paint0_linear_8392_53486" x1="17.2027" y1="84.2269" x2="72.2348" y2="67.3545" gradientUnits="userSpaceOnUse"><stop stop-color="#F26F56"></stop><stop offset="1" stop-color="#F49756"></stop></linearGradient></defs></svg>
