<?xml version="1.0" encoding="UTF-8"?><svg id="Layer_1" xmlns="http://www.w3.org/2000/svg" viewBox="0 0 242.52 279.95"><defs><style>.cls-1{fill:#e7c6b6;}.cls-2{fill:#6a9f97;}.cls-3{fill:#84d6cb;}.cls-4{fill:#d49380;}.cls-5{fill:#452e33;}</style></defs><path class="cls-4" d="M0,256.56V23.39l40.55,23.39v233.16L0,256.56Z"/><path class="cls-1" d="M40.55,0L0,23.39l40.55,23.39,40.55-23.39L40.55,0Z"/><path class="cls-3" d="M242.52,117.75L81.1,23.39l-40.55,23.39,162.98,92.8,38.99-21.83Z"/><path class="cls-5" d="M203.53,186.38L40.55,279.95V92.8l42.11,24.17v93.58l120.87-70.96v46.79Z"/><path class="cls-1" d="M203.53,139.59l-39.77-22.61-81.1,46.01v47.57l120.87-70.96Z"/><path class="cls-2" d="M242.52,164.54v-46.79l-38.99,21.83v46.79l38.99-21.83Z"/><path class="cls-2" d="M40.55,46.79l123.21,70.18-41.33,23.39L40.55,92.8V46.79Z"/></svg>