<?xml version="1.0"?>
<svg width="495" height="495" xmlns="http://www.w3.org/2000/svg" enable-background="new 0 0 495 495" version="1.1" xml:space="preserve">
 <g class="layer">
  <title>Layer 1</title>
   <g id="svg_1">
   <path
     d="m-0.05,247.55c0,-30.5 24.7,-55.2 55.2,-55.2s55.2,-24.7 55.2,-55.2s24.8,-55.3 55.3,-55.3c30.5,0 55.2,24.7 55.2,55.2s-24.7,55.2 -55.2,55.2s-55.2,24.7 -55.2,55.2s24.7,55.2 55.2,55.2s55.2,24.7 55.2,55.2s-24.7,55.2 -55.2,55.2s-55.2,-24.7 -55.2,-55.2s-24.7,-55.2 -55.2,-55.2s-55.3,-24.6 -55.3,-55.1"
     id="svg_2"/>
     <path
       d="m495.05,247.55c0,30.5 -24.7,55.2 -55.2,55.2s-55.2,24.7 -55.2,55.2s-24.7,55.2 -55.2,55.2s-55.2,-24.7 -55.2,-55.2s24.7,-55.2 55.2,-55.2s55.2,-24.7 55.2,-55.2s-24.7,-55.2 -55.2,-55.2s-55.2,-24.7 -55.2,-55.2s24.6,-55.3 55.1,-55.3s55.2,24.7 55.2,55.2s24.7,55.2 55.2,55.2c30.6,0.1 55.3,24.8 55.3,55.3"
       id="svg_3"/>
     <path d="m301.75,247.55c0,29.6 -24,53.7 -53.7,53.7s-53.7,-24 -53.7,-53.7c0,-29.6 24,-53.7 53.7,-53.7c29.6,0 53.7,24 53.7,53.7" id="svg_4"/>
  </g>
 </g>
</svg>