<svg xmlns="http://www.w3.org/2000/svg" id="token-fetchai" width="32" height="32" viewBox="0 0 32 32">
    <defs>
        <linearGradient id="linear-gradient" x1=".5" x2=".5" y2="1" gradientUnits="objectBoundingBox">
            <stop offset="0" stop-color="#222d53"/>
            <stop offset="1" stop-color="#151d37"/>
        </linearGradient>
        <style>
            .cls-2{fill:#fff}
        </style>
    </defs>
    <g id="그룹_5426">
        <g id="그룹_5425">
            <g id="타원_15" fill="url(#linear-gradient)" stroke="#fff" stroke-width="0.5px">
                <circle cx="16" cy="16" r="16" stroke="none"/>
                <circle cx="16" cy="16" r="15.75" fill="none"/>
            </g>
        </g>
    </g>
    <g id="그룹_5489" transform="translate(7.769 7.769)">
        <path id="사각형_2681" d="M0 0H2.034V2.034H0z" class="cls-2"/>
        <path id="사각형_2682" d="M0 0H2.034V2.034H0z" class="cls-2" transform="translate(5.085)"/>
        <path id="사각형_2683" d="M0 0H2.034V2.034H0z" class="cls-2" transform="translate(10.169)"/>
        <path id="사각형_2684" d="M0 0H2.034V2.034H0z" class="cls-2" transform="translate(0 5.085)"/>
        <path id="사각형_2685" d="M0 0H2.034V2.034H0z" class="cls-2" transform="translate(5.085 5.085)"/>
        <path id="사각형_2686" d="M0 0H2.034V2.034H0z" class="cls-2" transform="translate(0 10.165)"/>
        <circle id="타원_435" cx=".508" cy=".508" r=".508" class="cls-2" transform="translate(15.762 .508)"/>
        <circle id="타원_436" cx=".508" cy=".508" r=".508" class="cls-2" transform="translate(15.762 5.593)"/>
        <circle id="타원_437" cx=".508" cy=".508" r=".508" class="cls-2" transform="translate(15.762 10.674)"/>
        <circle id="타원_438" cx=".508" cy=".508" r=".508" class="cls-2" transform="translate(15.762 15.758)"/>
        <circle id="타원_439" cx=".508" cy=".508" r=".508" class="cls-2" transform="translate(10.678 5.593)"/>
        <circle id="타원_440" cx=".508" cy=".508" r=".508" class="cls-2" transform="translate(10.678 10.674)"/>
        <circle id="타원_441" cx=".508" cy=".508" r=".508" class="cls-2" transform="translate(10.678 15.758)"/>
        <circle id="타원_442" cx=".508" cy=".508" r=".508" class="cls-2" transform="translate(5.593 10.674)"/>
        <circle id="타원_443" cx=".508" cy=".508" r=".508" class="cls-2" transform="translate(5.593 15.758)"/>
        <circle id="타원_444" cx=".508" cy=".508" r=".508" class="cls-2" transform="translate(.508 15.758)"/>
    </g>
</svg>
