<svg width="200" height="200" viewBox="0 0 200 200" fill="none" xmlns="http://www.w3.org/2000/svg">
<g clip-path="url(#clip0_1499_63)">
<path d="M-0.0195312 100.02C-0.0195312 87.6966 9.96027 77.7168 22.2835 77.7168C34.6067 77.7168 44.5865 67.737 44.5865 55.4137C44.5865 43.0905 54.6067 33.0703 66.93 33.0703C79.2532 33.0703 89.233 43.0501 89.233 55.3733C89.233 67.6966 79.2532 77.6764 66.93 77.6764C54.6067 77.6764 44.6269 87.6562 44.6269 99.9794C44.6269 112.303 54.6067 122.282 66.93 122.282C79.2532 122.282 89.233 132.262 89.233 144.585C89.233 156.909 79.2532 166.888 66.93 166.888C54.6067 166.888 44.6269 156.909 44.6269 144.585C44.6269 132.262 34.6471 122.282 22.3239 122.282C10.0007 122.282 -0.0195312 112.343 -0.0195312 100.02Z" fill="white"/>
<path d="M200.021 100.02C200.021 112.343 190.041 122.323 177.718 122.323C165.394 122.323 155.415 132.303 155.415 144.626C155.415 156.949 145.435 166.929 133.112 166.929C120.788 166.929 110.809 156.949 110.809 144.626C110.809 132.303 120.788 122.323 133.112 122.323C145.435 122.323 155.415 112.343 155.415 100.02C155.415 87.6966 145.435 77.7168 133.112 77.7168C120.788 77.7168 110.809 67.737 110.809 55.4137C110.809 43.0905 120.748 33.0703 133.071 33.0703C145.394 33.0703 155.374 43.0501 155.374 55.3733C155.374 67.6966 165.354 77.6764 177.677 77.6764C190.041 77.7168 200.021 87.6966 200.021 100.02Z" fill="white"/>
<path d="M121.919 100.019C121.919 111.979 112.222 121.716 100.222 121.716C88.2224 121.716 78.5254 112.019 78.5254 100.019C78.5254 88.0596 88.2224 78.3223 100.222 78.3223C112.182 78.3223 121.919 88.0192 121.919 100.019Z" fill="white"/>
</g>
<defs>
<clipPath id="clip0_1499_63">
<rect width="200" height="200" fill="white"/>
</clipPath>
</defs>
</svg>
