<svg xmlns="http://www.w3.org/2000/svg" width="20.098" height="20.1" viewBox="0 0 20.098 20.1">
    <g id="atom_token" transform="translate(11945.05 18206.049)">
        <circle id="타원_173" data-name="타원 173" cx="9" cy="9" r="9" transform="translate(-11944 -18205)" fill="#fff"/>
        <g id="그룹_1494" data-name="그룹 1494" transform="translate(-11990 -18572.998)">
            <g id="그룹_1488" data-name="그룹 1488" transform="translate(45 367)">
                <path id="제외_2" data-name="제외 2"
                      d="M10,20A10,10,0,0,1,2.929,2.929a10,10,0,1,1,14.14,14.14A9.933,9.933,0,0,1,10,20Zm0-18.57A8.57,8.57,0,1,0,18.569,10,8.58,8.58,0,0,0,10,1.428Z"
                      transform="translate(0 0)"/>
                <path id="교차_4" data-name="교차 4"
                      d="M9.284,19.973V18.539q.354.03.715.03t.714-.03v1.433Q10.358,20,10,20T9.284,19.973ZM15.53,16.54A8.609,8.609,0,0,0,16.54,15.53l1.016,1.016q-.233.269-.487.523t-.522.487Zm-12.6.53q-.254-.255-.487-.523L3.458,15.53a8.609,8.609,0,0,0,1.01,1.009L3.451,17.556Q3.183,17.323,2.929,17.069Zm15.611-6.356c.02-.236.03-.474.03-.715s-.01-.478-.029-.714h1.434Q20,9.638,20,10t-.025.715Zm-18.514,0Q0,10.358,0,10t.025-.714H1.458q-.029.354-.029.714c0,.241.01.479.03.715ZM2.441,3.452q.233-.269.488-.522t.523-.488L4.467,3.457a8.657,8.657,0,0,0-1.01,1.01Zm13.089.006,1.016-1.016q.269.234.523.488t.487.522L16.54,4.467A8.612,8.612,0,0,0,15.53,3.458ZM9.284.025Q9.639,0,10,0t.714.025V1.457q-.353-.029-.714-.03c-.241,0-.479.011-.715.03Z"
                      transform="translate(0 0)" fill="#fff" stroke="#fff" stroke-width="0.1" opacity="0.41"/>
            </g>
            <g id="그룹_1490" data-name="그룹 1490" transform="translate(48.785 369.857)">
                <circle id="타원_113" data-name="타원 113" cx="4.285" cy="4.285" r="4.285" transform="translate(2 2.857)"
                        fill="#dedede"/>
                <g id="그룹_1487" data-name="그룹 1487" transform="translate(0 0)">
                    <path id="패스_1227" data-name="패스 1227"
                          d="M1074.828,120.813c-1.178,0-3.822-1.174-6.29-2.6a29.8,29.8,0,0,1-4.127-2.808c-1.111-.937-1.57-1.593-1.363-1.951.451-.782,3.8.6,6.867,2.375a29.784,29.784,0,0,1,4.126,2.808c1.111.937,1.57,1.593,1.363,1.951C1075.316,120.743,1075.116,120.813,1074.828,120.813Zm-11.232-7.34c-.177,0-.29.036-.331.107-.1.165.19.693,1.307,1.635a29.535,29.535,0,0,0,4.091,2.783c3.694,2.133,6.289,2.874,6.525,2.466.1-.165-.19-.693-1.307-1.635a29.548,29.548,0,0,0-4.091-2.783C1066.739,114.285,1064.438,113.473,1063.6,113.473Z"
                          transform="translate(-1063 -109.888)" fill="#1d1d1d" stroke="#1d1d1d" stroke-width="0.2"/>
                    <path id="패스_1228" data-name="패스 1228"
                          d="M1063.625,120.812c-.288,0-.488-.07-.577-.224-.207-.358.252-1.015,1.363-1.951a29.8,29.8,0,0,1,4.127-2.808c3.07-1.773,6.414-3.157,6.867-2.375.207.358-.252,1.014-1.363,1.951a29.783,29.783,0,0,1-4.126,2.808C1067.448,119.638,1064.8,120.812,1063.625,120.812Zm11.232-7.34c-.841,0-3.143.812-6.194,2.573a29.536,29.536,0,0,0-4.091,2.783c-1.118.942-1.4,1.469-1.307,1.635.236.408,2.831-.334,6.525-2.466a29.549,29.549,0,0,0,4.091-2.783c1.118-.942,1.4-1.469,1.307-1.635C1075.147,113.509,1075.035,113.473,1074.857,113.473Z"
                          transform="translate(-1063 -109.888)" fill="#1d1d1d" stroke="#1d1d1d" stroke-width="0.2"/>
                    <ellipse id="타원_20" data-name="타원 20" cx="0.751" cy="0.751" rx="0.751" ry="0.751"
                             transform="translate(5.475 6.383)" fill="#1d1d1d" stroke="#1d1d1d" stroke-width="0.2"/>
                    <ellipse id="타원_21" data-name="타원 21" cx="0.501" cy="0.501" rx="0.501" ry="0.501"
                             transform="translate(9.011 3.536)" fill="#1d1d1d" stroke="#1d1d1d" stroke-width="0.2"/>
                    <ellipse id="타원_22" data-name="타원 22" cx="0.501" cy="0.501" rx="0.501" ry="0.501"
                             transform="translate(1.001 5.037)" fill="#1d1d1d" stroke="#1d1d1d" stroke-width="0.2"/>
                    <ellipse id="타원_23" data-name="타원 23" cx="0.501" cy="0.501" rx="0.501" ry="0.501"
                             transform="translate(4.756 11.295)" fill="#1d1d1d" stroke="#1d1d1d" stroke-width="0.2"/>
                    <path id="패스_1226" data-name="패스 1226"
                          d="M1083.752,114.143c-.9,0-1.377-3.589-1.377-7.134s.473-7.134,1.377-7.134,1.377,3.589,1.377,7.134S1084.655,114.143,1083.752,114.143Zm0-14.017c-.47,0-1.126,2.619-1.126,6.884s.656,6.884,1.126,6.884,1.126-2.619,1.126-6.884S1084.222,100.125,1083.752,100.125Z"
                          transform="translate(-1077.525 -99.875)" fill="#1d1d1d" stroke="#1d1d1d" stroke-width="0.2"/>
                </g>
            </g>
        </g>
    </g>
</svg>
