<?xml version="1.0" encoding="UTF-8"?>
<svg id="a" data-name="Layer 1" xmlns="http://www.w3.org/2000/svg" viewBox="0 0 512 512">
  <defs>
    <style>
      .b {
        fill: #12040b;
      }

      .b, .c {
        stroke-width: 0px;
      }

      .c {
        fill: #ed0074;
      }
    </style>
  </defs>
  <rect class="b" x="0" y="0" width="512" height="512" rx="256" ry="256"/>
  <path class="c" d="m86,169.02c2.02.16,7.81,1.81,9.91,2.38l17.35,4.65,311.99,82.73c-38.96,14.98-78.25,29.15-117.82,42.52,8.46,10.64,20.36,23.58,29.43,34.04l56.44,65.01c-39.52-17.42-80.35-34.18-120.17-51.17-12.8-4.97-26.9-11.47-39.81-16.85-3.28.75-8.34,2.54-11.72,3.61l-23.39,7.51c-25.97,8.38-54.68,18.04-80.67,25.67,3.89-5.26,8.09-12.19,11.69-17.78l39.57-61.49c3.59-5.58,8.26-12.43,11.48-18.12l122.47,65.89-67.09-54.55c-13.5-10.98-27.3-22.85-41.16-33.3-31.51-23.76-63.48-47.06-95.08-70.72-4.45-3.33-9.11-6.59-13.43-10.04Z"/>
  <path class="c" d="m282.91,112c1.11,1.36,24.7,97.16,27.07,106.6-2.41-1.18-6.6-3.97-8.98-5.46l-16.67-10.43c-14.23-8.84-28.81-18.24-43.17-26.79,10.61-16.77,21.85-33.25,32.55-49.97,2.98-4.67,6.06-9.39,9.21-13.95Z"/>
</svg>