<svg width="500" height="500" viewBox="0 0 251 241" fill="none" xmlns="http://www.w3.org/2000/svg">
    <g transform="scale(2.0)">
        <g clip-path="url(#clip0_2002_56)">
            <path d="M60 120C93.1372 120 120 93.1372 120 60C120 26.8628 93.1372 0 60 0C26.8628 0 0 26.8628 0 60C0 93.1372 26.8628 120 60 120Z" fill="url(#paint0_linear_2002_56)"/>
            <path d="M41.0983 71.6826C41.4362 71.3426 41.9008 71.1445 42.3936 71.1445H87.082C87.8985 71.1445 88.3068 72.1353 87.7297 72.716L78.902 81.593C78.5641 81.933 78.0995 82.1311 77.6067 82.1311H32.9181C32.1015 82.1311 31.6932 81.1403 32.2703 80.5595L41.0983 71.6826Z" fill="white"/>
            <path d="M41.0982 38.538C41.4502 38.1982 41.9148 38 42.3936 38H87.082C87.8985 38 88.3068 38.9909 87.7297 39.5717L78.902 48.4486C78.5641 48.7884 78.0995 48.9865 77.6067 48.9865H32.918C32.1015 48.9865 31.6931 47.9956 32.2702 47.4148L41.0982 38.538Z" fill="white"/>
            <path d="M78.902 55.004C78.5641 54.6642 78.0995 54.4661 77.6067 54.4661H32.9181C32.1015 54.4661 31.6932 55.457 32.2703 56.0378L41.0983 64.9147C41.4362 65.2546 41.9008 65.4528 42.3936 65.4528H87.082C87.8985 65.4528 88.3068 64.4619 87.7297 63.8811L78.902 55.004Z" fill="white"/>
        </g>
        <circle cx="101" cy="96" r="24.5" fill="#D9D9D9"/>
        <rect x="77" y="72" width="48" height="48" rx="24" fill="black"/>
        <path d="M103.247 86.491L107.947 81.9204L111.08 85.142L101 94.9454L90.9204 85.142L94.0533 81.9204L98.7533 86.4915V78.4H103.247V86.491Z" fill="#B9B9B9"/>
        <path d="M111.08 106.857L107.947 110.08L103.247 105.509V113.6H98.7533V105.508L94.0533 110.08L90.9204 106.857L101 97.0551L111.08 106.857Z" fill="#B9B9B9"/>
        <path d="M99.9457 96L90.1422 106.08L86.9204 102.947L91.491 98.2468H83.4V93.7533H91.4915L86.9204 89.0529L90.1422 85.9204L99.9457 96Z" fill="#F8F8F8"/>
        <path d="M115.079 89.0529L110.509 93.7533H118.6V98.2468H110.509L115.079 102.947L111.857 106.08L102.055 96L111.857 85.9204L115.079 89.0529Z" fill="#F8F8F8"/>
        <defs>
            <linearGradient id="paint0_linear_2002_56" x1="120" y1="-10.5" x2="2.6697e-06" y2="120" gradientUnits="userSpaceOnUse">
                <stop stop-color="#00FFA3"/>
                <stop offset="1" stop-color="#DC1FFF"/>
            </linearGradient>
            <clipPath id="clip0_2002_56">
                <rect width="120" height="120" fill="white"/>
            </clipPath>
        </defs>
    </g>
</svg>
