<svg width="50" height="50" viewBox="0 0 50 50" fill="none" xmlns="http://www.w3.org/2000/svg">
<g clip-path="url(#clip0_1_6)">
<path d="M0.411499 24.7138C0.253427 38.2936 11.1339 49.4304 24.7138 49.5885C38.2936 49.7466 49.4304 38.8661 49.5885 25.2862C49.7466 11.7064 38.8661 0.569574 25.2862 0.411503C11.7064 0.253431 0.56957 11.1339 0.411499 24.7138Z" fill="url(#paint0_linear_1_6)"/>
<path fill-rule="evenodd" clip-rule="evenodd" d="M41.609 8.99664C41.5316 9.01877 38.2058 10.3466 34.218 11.9473C26.5359 15.0308 26.3882 15.08 24.8668 15.0623C23.3454 15.0446 23.1989 14.992 15.5907 11.7304C11.6411 10.0373 8.34717 8.6325 8.27041 8.60857C8.18697 8.5825 8.12291 9.55566 8.11111 11.0311L8.09111 13.4973L14.6831 16.3136C22.4084 19.6141 22.3233 19.5864 24.8138 19.6154C27.3043 19.6444 27.2186 19.6701 35.0186 16.5503L41.6742 13.8882L41.7119 11.4223C41.7344 9.94693 41.693 8.97254 41.609 8.99664ZM39.848 31.7453C37.996 30.7198 36.432 29.9151 36.3723 29.957C36.3127 29.999 35.9277 30.9043 35.5169 31.9688C34.6946 34.0993 34.6636 34.5044 35.2618 35.2924C35.5162 35.6277 41.8725 41.0016 42.9148 41.7627C43.0857 41.8877 43.1262 41.2443 43.1668 37.7608L43.2152 33.6099L39.848 31.7453ZM15.6217 31.6133C15.1862 30.4546 14.8358 29.7126 14.7305 29.7259C14.6352 29.738 13.0671 30.529 11.246 31.4838L7.93484 33.2199L7.88656 37.3701C7.84598 40.8528 7.87152 41.4971 8.04545 41.3762C9.12402 40.6265 15.5873 35.4118 15.8556 35.0748C16.4632 34.3121 16.4253 33.7511 15.6217 31.6133Z" fill="white"/>
<path fill-rule="evenodd" clip-rule="evenodd" d="M41.793 15.1442C41.7156 15.1664 38.3899 16.4985 34.402 18.1044C26.7199 21.198 26.5721 21.2474 25.0507 21.2297C23.5293 21.212 23.3828 21.1592 15.7747 17.8875C11.8253 16.1893 8.53135 14.7801 8.45459 14.7561C8.37115 14.73 8.30705 15.7062 8.2952 17.1864L8.27508 19.6602L14.867 22.4853C22.5922 25.796 22.507 25.7682 24.9976 25.7972C27.4881 25.8262 27.4023 25.852 35.2025 22.722L41.8582 20.0512L41.8959 17.5775C41.9184 16.0975 41.877 15.12 41.793 15.1442Z" fill="white" fill-opacity="0.9"/>
<path fill-rule="evenodd" clip-rule="evenodd" d="M41.793 21.7016C41.7156 21.7238 38.3899 23.0559 34.402 24.6618C26.7199 27.7554 26.5721 27.8048 25.0507 27.7871C23.5293 27.7694 23.3828 27.7166 15.7747 24.4449C11.8253 22.7466 8.53135 21.3375 8.45459 21.3135C8.37115 21.2873 8.30705 22.2636 8.2952 23.7437L8.27508 26.2176L14.867 29.0427C22.5922 32.3534 22.507 32.3256 24.9976 32.3546C27.4881 32.3836 27.4023 32.4094 35.2025 29.2794L41.8582 26.6086L41.8959 24.1349C41.9184 22.6548 41.877 21.6774 41.793 21.7016Z" fill="white" fill-opacity="0.75"/>
</g>
<defs>
<linearGradient id="paint0_linear_1_6" x1="25.2862" y1="0.411501" x2="24.7138" y2="49.5885" gradientUnits="userSpaceOnUse">
<stop stop-color="#CF3339"/>
<stop offset="0.695" stop-color="#F17B23"/>
<stop offset="1" stop-color="#FC951B"/>
</linearGradient>
<clipPath id="clip0_1_6">
<rect width="50" height="50" fill="white"/>
</clipPath>
</defs>
</svg>
