<?xml version="1.0" encoding="UTF-8"?>
<svg id="Camada_1" data-name="Camada 1" xmlns="http://www.w3.org/2000/svg" xmlns:xlink="http://www.w3.org/1999/xlink" viewBox="-200 0 1400 1400">
  <defs>
    <style>
      .cls-1 {
        fill: url(#linear-gradient-3);
      }

      .cls-2 {
        fill: url(#linear-gradient-2);
      }

      .cls-3 {
        fill: url(#linear-gradient);
      }
    </style>
    <linearGradient id="linear-gradient" x1="1125.92" y1="50.12" x2="147.97" y2="1072.52" gradientUnits="userSpaceOnUse">
      <stop offset="0" stop-color="#fff"/>
      <stop offset="1" stop-color="#000"/>
    </linearGradient>
    <linearGradient id="linear-gradient-2" x1="806.14" y1="1245.68" x2="767.29" y2="303.77" xlink:href="#linear-gradient"/>
    <linearGradient id="linear-gradient-3" x1="340.05" y1="162.34" x2="872.13" y2="988.97" gradientTransform="translate(-158.13 -67.07)" xlink:href="#linear-gradient"/>
  </defs>
  <g>
    <path class="cls-3" d="M455.4,0v206.33c0,51.71-20.54,101.3-57.09,137.86l-115.13,115.17c-15.72,15.77-29.57,33.35-41.13,52.21-25.57,42.4-38.99,91.31-38.99,141.49,0,73.2,28.39,141.81,80.12,193.38l219.12,219.23c35.84,35.88,55.98,84.51,55.98,135.23v207.88l-418.71-418.66C51.29,901.89,1.8,784.48.04,659.56c-1.7-128.01,51.99-256.08,147.3-351.38L455.4,0Z"/>
    <path class="cls-2" d="M999.95,645.65c1.54,105.37-30.36,205.68-92.43,289.96-2.13,2.88-4.31,5.75-6.61,8.63-12.15,15.72-25.89,31.11-40.59,45.92l-16.67,16.67c-.11.05-.16.11-.27.21l-83.37,83.37-143.41-143.41,100.26-100.52c14.01-13.9,26.96-29.99,38.46-47.84.91-1.39,1.81-2.82,2.72-4.26,25.52-42.08,38.99-90.93,38.99-141.33,0-73.2-28.45-141.92-80.17-193.7l-114.94-114.84c-36.61-36.57-57.18-86.2-57.18-137.95V.43l308.23,308.23c92.91,92.91,145.11,212.61,146.98,337Z"/>
  </g>
  <path class="cls-1" d="M900.92,944.24c-12.15,15.72-25.89,31.11-40.59,45.92l-16.67,16.67c-.11.05-.16.11-.27.21l-83.37,83.37-294.78-294.78c-35.01-35.01-54.68-82.5-54.68-132.01v-209.75s490.37,490.37,490.37,490.37Z"/>
</svg>