<svg width="25" height="25" viewBox="0 0 25 25" fill="none" xmlns="http://www.w3.org/2000/svg">
<path d="M12.5 25C19.4036 25 25 19.4036 25 12.5C25 5.59644 19.4036 0 12.5 0C5.59644 0 0 5.59644 0 12.5C0 19.4036 5.59644 25 12.5 25Z" fill="#012F61"/>
<path d="M9.08496 4.78746V10.7C9.08496 10.9 9.27496 11.0625 9.47496 11.0625C9.67496 11.0625 9.86496 10.9 9.86496 10.7V5.08996C10.225 5.02746 10.63 4.99496 11.025 4.99496C14.82 4.99496 17.9275 7.84246 18.2675 11.615C18.285 11.815 18.4575 11.9625 18.655 11.9425C18.855 11.925 19 11.75 18.98 11.55C18.8025 9.56746 17.8925 7.72996 16.42 6.37996C14.94 5.01996 13.015 4.26996 11.005 4.26996C10.4625 4.26996 9.90996 4.32496 9.38246 4.43246C9.21496 4.46746 9.08496 4.61496 9.08496 4.78746Z" fill="white"/>
<path d="M11.1949 19.8999C11.1949 19.9074 11.1949 19.9174 11.1949 19.9249C11.2099 20.1249 11.3824 20.2749 11.5824 20.2599C13.4799 20.1249 15.2749 19.3099 16.6324 17.9699C17.9899 16.6299 18.8249 14.8474 18.9824 12.9549C18.9999 12.7549 18.8524 12.5799 18.6524 12.5624C18.4524 12.5449 18.2774 12.6924 18.2599 12.8924C17.9624 16.4274 15.0699 19.2849 11.5299 19.5374C11.3424 19.5524 11.1949 19.7124 11.1949 19.8999Z" fill="white"/>
<path d="M10.6449 6.205V12.0775C10.6449 12.2775 10.8049 12.44 11.0049 12.44C11.2049 12.44 11.3649 12.2775 11.3649 12.0775V6.58C14.3049 6.7675 16.7124 9.25 16.7124 12.275C16.7124 13.635 16.2274 14.95 15.3449 15.9825C15.2149 16.135 15.2324 16.3625 15.3849 16.4925C15.5374 16.6225 15.7649 16.605 15.8949 16.4525C16.8899 15.29 17.4349 13.8075 17.4349 12.275C17.4349 10.5575 16.7649 8.9425 15.5499 7.7275C14.3349 6.5125 12.7199 5.8425 11.0024 5.8425C10.8074 5.8425 10.6449 6.005 10.6449 6.205Z" fill="#99D7FD"/>
<path d="M11.1949 16.7124C11.1949 16.7274 11.1949 16.7424 11.1974 16.7574C11.2224 16.9549 11.4024 17.0974 11.5999 17.0724C14.0174 16.7749 15.8399 14.7124 15.8399 12.2749C15.8399 11.2724 15.5349 10.3099 14.9599 9.49242C14.3974 8.69492 13.6174 8.08992 12.7074 7.74742C12.5974 7.70492 12.4649 7.71992 12.3674 7.78742C12.2699 7.85492 12.2049 7.96742 12.2049 8.08492V13.1999C12.2049 13.3999 12.3649 13.5624 12.5649 13.5624C12.7649 13.5624 12.9249 13.3999 12.9249 13.1999V8.64992C14.2449 9.35742 15.1074 10.7549 15.1074 12.2749C15.1074 14.3474 13.5624 16.0999 11.5099 16.3524C11.3249 16.3774 11.1949 16.5324 11.1949 16.7124Z" fill="white"/>
<path d="M9.45004 11.945C9.91534 11.945 10.2925 11.5678 10.2925 11.1025C10.2925 10.6372 9.91534 10.26 9.45004 10.26C8.98474 10.26 8.60754 10.6372 8.60754 11.1025C8.60754 11.5678 8.98474 11.945 9.45004 11.945Z" fill="white"/>
<path d="M11.195 20.73C11.6603 20.73 12.0375 20.3528 12.0375 19.8875C12.0375 19.4222 11.6603 19.045 11.195 19.045C10.7297 19.045 10.3525 19.4222 10.3525 19.8875C10.3525 20.3528 10.7297 20.73 11.195 20.73Z" fill="white"/>
</svg>
