<svg width="500" height="500" viewBox="0 0 500 500" fill="none" xmlns="http://www.w3.org/2000/svg">
<path d="M250 500C388.071 500 500 388.071 500 250C500 111.929 388.071 0 250 0C111.929 0 0 111.929 0 250C0 388.071 111.929 500 250 500Z" fill="white"/>
<path fill-rule="evenodd" clip-rule="evenodd" d="M355.222 294.615H207.982V212.507H185.271V306.029C185.268 307.516 185.562 308.988 186.137 310.359C186.721 311.722 187.564 312.957 188.62 313.997C190.75 316.11 193.626 317.299 196.627 317.307H325.582L298.963 341.27H156.092V205.347H303.351C306.152 205.354 308.856 204.318 310.935 202.441L362.806 155.902C364.511 154.369 365.712 152.356 366.251 150.128C366.649 148.46 366.664 146.725 366.296 145.051C365.928 143.376 365.185 141.808 364.124 140.461C363.063 139.115 361.711 138.027 360.169 137.277C358.628 136.528 356.936 136.137 355.222 136.135H196.627C195.136 136.135 193.661 136.429 192.284 137C190.907 137.571 189.657 138.407 188.604 139.462C187.551 140.517 186.716 141.769 186.148 143.146C185.579 144.524 185.288 146 185.29 147.491V175.514H207.982V158.712H325.62L299.002 182.674H144.756C143.252 182.663 141.76 182.952 140.369 183.523C138.978 184.095 137.714 184.938 136.653 186.004C135.594 187.052 134.756 188.302 134.189 189.68C133.631 191.056 133.344 192.526 133.342 194.011V352.607C133.34 354.097 133.631 355.573 134.2 356.951C134.768 358.328 135.603 359.58 136.656 360.635C137.709 361.69 138.959 362.527 140.336 363.098C141.713 363.668 143.188 363.962 144.679 363.962H303.275C306.074 363.96 308.774 362.925 310.858 361.056L362.729 314.401C364.434 312.868 365.635 310.853 366.171 308.622C366.708 306.392 366.555 304.052 365.734 301.91C364.912 299.769 363.46 297.927 361.57 296.628C359.679 295.329 357.439 294.634 355.145 294.634" fill="#FF4350"/>
</svg>
