<?xml version="1.0" encoding="UTF-8"?><svg xmlns="http://www.w3.org/2000/svg" xmlns:xlink="http://www.w3.org/1999/xlink" viewBox="0 0 212.61 63.88"><defs><style>.cls-1{clip-path:url(#clippath);}.cls-2{fill:none;}.cls-2,.cls-3,.cls-4,.cls-5,.cls-6,.cls-7{stroke-width:0px;}.cls-8{mask:url(#mask);}.cls-3{fill:url(#linear-gradient);}.cls-9{mix-blend-mode:multiply;}.cls-10{clip-path:url(#clippath-1);}.cls-4{fill:url(#linear-gradient-4);}.cls-5{fill:url(#linear-gradient-2);}.cls-6{fill:url(#linear-gradient-3);}.cls-11{isolation:isolate;}.cls-12{mask:url(#mask-1);}.cls-7{fill:#002d74;}</style><clipPath id="clippath"><polygon class="cls-2" points="25.83 60 51.66 45 51.66 15 25.83 0 25.83 8.9 44 19.45 44 40.56 25.83 51.11 25.83 60"/></clipPath><linearGradient id="linear-gradient" x1="-868.56" y1="621.14" x2="-867.55" y2="621.14" gradientTransform="translate(18568.97 -25851.45) rotate(-90) scale(29.83 -29.83)" gradientUnits="userSpaceOnUse"><stop offset="0" stop-color="#fff"/><stop offset="1" stop-color="#000"/></linearGradient><mask id="mask" x="25.83" y="0" width="25.83" height="60" maskUnits="userSpaceOnUse"><rect class="cls-3" x="25.83" y="0" width="25.83" height="60"/></mask><linearGradient id="linear-gradient-2" x1="-868.56" y1="621.14" x2="-867.55" y2="621.14" gradientTransform="translate(18568.97 -25851.45) rotate(-90) scale(29.83 -29.83)" gradientUnits="userSpaceOnUse"><stop offset="0" stop-color="#002d74"/><stop offset="1" stop-color="#002d74"/></linearGradient><clipPath id="clippath-1"><polygon class="cls-2" points="25.83 51.11 7.65 40.56 7.65 19.45 25.83 8.9 25.83 0 0 15 0 45 25.83 60 25.83 51.11"/></clipPath><linearGradient id="linear-gradient-3" x1="-908.18" y1="680.7" x2="-907.18" y2="680.7" gradientTransform="translate(-20294.33 27093.63) rotate(90) scale(29.83 -29.83)" xlink:href="#linear-gradient"/><mask id="mask-1" x="0" y="0" width="25.83" height="60" maskUnits="userSpaceOnUse"><rect class="cls-6" y="0" width="25.83" height="60"/></mask><linearGradient id="linear-gradient-4" x1="-908.18" y1="680.7" x2="-907.18" y2="680.7" gradientTransform="translate(-20294.33 27093.63) rotate(90) scale(29.83 -29.83)" xlink:href="#linear-gradient-2"/></defs><g class="cls-11"><g id="Logo"><g id="Cronos_inline_color"><path class="cls-7" d="m7.65,40.55v-21.1l18.18-10.55,18.17,10.55v21.1l-18.17,10.55-18.18-10.55ZM25.83,0L0,15v30l25.83,15,25.83-15V15L25.83,0Z"/><g class="cls-9"><g class="cls-1"><g class="cls-8"><rect class="cls-5" x="25.83" y="0" width="25.83" height="60"/></g></g></g><g class="cls-9"><g class="cls-10"><g class="cls-12"><rect class="cls-4" y="0" width="25.83" height="60"/></g></g></g><polygon class="cls-7" points="37.89 37.01 25.83 44.01 13.76 37.01 13.76 23 25.83 15.99 37.89 23 32.87 25.91 25.83 21.83 18.79 25.91 18.79 34.09 25.83 38.17 32.87 34.09 37.89 37.01"/><path class="cls-7" d="m100.06,25.51v-5.21h-5.31v23.12h5.31v-8.8c0-6.13,3.22-9.15,7.84-9.15h.3v-5.6c-4.05-.17-6.7,2.19-8.14,5.65m22.94-5.69c-7.05,0-12.28,5.47-12.28,12.08v.09c0,6.57,5.18,11.95,12.19,11.95s12.32-5.47,12.32-12.04v-.09c0-6.61-5.18-12-12.23-12m6.97,12.17c0,3.98-2.7,7.31-6.97,7.31s-7.01-3.37-7.01-7.4v-.09c0-4.03,2.7-7.36,6.92-7.36s7.05,3.37,7.05,7.44v.09Zm-49.15,7.31c-4.05,0-6.88-3.28-6.88-7.4v-.09c0-4.03,2.83-7.36,6.66-7.36,2.61,0,4.31,1.23,5.92,2.89l3.31-3.55c-2.18-2.36-4.88-3.98-9.18-3.98-6.92,0-11.97,5.52-11.97,12.08v.09c0,6.57,5.05,11.95,11.88,11.95,4.48,0,7.14-1.8,9.4-4.33l-3.18-3.15c-1.7,1.71-3.48,2.85-5.96,2.85m124.65-9.54c-2.7-.88-5.18-1.58-5.18-3.28v-.09c0-1.27,1.18-2.28,3.22-2.28,1.92,0,4.27.83,6.49,2.19l2.09-3.77c-2.44-1.62-5.57-2.63-8.44-2.63-4.57,0-8.18,2.67-8.18,7.09v.09c0,4.38,3.79,5.78,7.18,6.74,2.7.83,5.14,1.44,5.14,3.24v.09c0,1.53-1.31,2.5-3.57,2.5s-5.01-.96-7.53-2.85l-2.35,3.59c2.87,2.32,6.49,3.46,9.75,3.46,4.79,0,8.53-2.41,8.53-7.27v-.09c0-4.16-3.79-5.69-7.14-6.74m-52.42-9.94c-3.57,0-5.7,1.88-7.18,4.03v-3.55h-5.31v23.12h5.31v-13.05c0-3.59,2.13-5.73,5.18-5.73s4.92,2.06,4.92,5.65v13.13h5.27v-14.75c0-5.34-3-8.84-8.18-8.84m25.56,0c-7.05,0-12.28,5.47-12.28,12.08v.09c0,6.57,5.18,11.95,12.19,11.95s12.32-5.47,12.32-12.04v-.09c0-6.61-5.18-12-12.23-12m6.97,12.17c0,3.98-2.7,7.31-6.97,7.31s-7.01-3.37-7.01-7.4v-.09c0-4.03,2.7-7.36,6.92-7.36s7.05,3.37,7.05,7.44v.09Z"/></g><path class="cls-7" d="m37.89,36.97l-12.06,6.96-12.07-6.96v-13.93l12.07-6.97,12.06,6.97v13.93Z"/><path class="cls-7" d="m94.35,51.2h5.09c2.97,0,4.77,1.75,4.77,4.31v.04c0,2.9-2.24,4.38-5.04,4.38h-2.08v3.74h-2.74v-12.46Zm4.92,6.29c1.37,0,2.17-.82,2.17-1.89v-.04c0-1.23-.85-1.89-2.23-1.89h-2.12v3.81h2.17Z"/><path class="cls-7" d="m107.58,57.47v-.04c0-3.54,2.8-6.45,6.64-6.45s6.61,2.87,6.61,6.41v.04c0,3.54-2.8,6.45-6.64,6.45s-6.61-2.87-6.61-6.41Zm10.38,0v-.04c0-2.14-1.57-3.92-3.77-3.92s-3.74,1.75-3.74,3.88v.04c0,2.14,1.57,3.92,3.78,3.92s3.74-1.75,3.74-3.88Z"/><path class="cls-7" d="m124.02,61.85l1.62-1.94c1.14.93,2.3,1.51,3.72,1.51,1.14,0,1.8-.44,1.8-1.17v-.04c0-.7-.43-1.07-2.51-1.58-2.53-.62-4.13-1.35-4.13-3.81v-.04c0-2.26,1.8-3.76,4.36-3.76,1.83,0,3.35.57,4.63,1.58l-1.42,2.07c-1.12-.77-2.17-1.23-3.24-1.23s-1.6.46-1.6,1.09v.04c0,.84.53,1.07,2.69,1.64,2.53.68,3.95,1.57,3.95,3.74v.04c0,2.48-1.89,3.86-4.58,3.86-1.91,0-3.79-.64-5.29-1.99Z"/><path class="cls-7" d="m144.62,57.47v-.04c0-3.54,2.67-6.45,6.5-6.45,2.33,0,3.77.78,4.91,1.92l-1.75,2.01c-.98-.87-1.92-1.41-3.19-1.41-2.1,0-3.61,1.75-3.61,3.88v.04c0,2.14,1.48,3.92,3.61,3.92,1.42,0,2.3-.55,3.28-1.46l1.75,1.76c-1.28,1.37-2.69,2.23-5.11,2.23-3.67,0-6.39-2.83-6.39-6.41Z"/><path class="cls-7" d="m159.99,51.2h2.74v4.93h5.06v-4.93h2.74v12.46h-2.74v-5h-5.06v5h-2.74v-12.46Z"/><path class="cls-7" d="m179.5,51.11h2.53l5.34,12.55h-2.87l-1.14-2.8h-5.27l-1.14,2.8h-2.8l5.34-12.55Zm2.88,7.34l-1.66-4.04-1.66,4.04h3.31Z"/><path class="cls-7" d="m191.08,51.2h2.74v12.46h-2.74v-12.46Z"/><path class="cls-7" d="m198.77,51.2h2.53l5.84,7.67v-7.67h2.71v12.46h-2.33l-6.04-7.92v7.92h-2.71v-12.46Z"/></g></g></svg>