<?xml version="1.0" encoding="utf-8"?>
<!-- Generator: Adobe Illustrator 25.2.3, SVG Export Plug-In . SVG Version: 6.00 Build 0)  -->
<svg version="1.1" id="레이어_1" xmlns="http://www.w3.org/2000/svg" xmlns:xlink="http://www.w3.org/1999/xlink" x="0px"
	 y="0px" viewBox="0 0 110 110" style="enable-background:new 0 0 110 110;" xml:space="preserve">
<style type="text/css">
	.st0{fill:url(#SVGID_1_);}
	.st1{fill:url(#SVGID_2_);}
	.st2{fill:url(#SVGID_3_);}
	.st3{fill:url(#SVGID_4_);}
</style>
<g>
	<linearGradient id="SVGID_1_" gradientUnits="userSpaceOnUse" x1="18.3748" y1="90.1982" x2="85.5006" y2="25.6877">
		<stop  offset="1.568510e-02" style="stop-color:#2E0E5B"/>
		<stop  offset="1" style="stop-color:#2E205B"/>
	</linearGradient>
	<path class="st0" d="M55,110L55,110C24.6,110,0,85.4,0,55v0C0,24.6,24.6,0,55,0l0,0c30.4,0,55,24.6,55,55v0
		C110,85.4,85.4,110,55,110z"/>
	<g>
		<linearGradient id="SVGID_2_" gradientUnits="userSpaceOnUse" x1="93.4247" y1="20.8568" x2="44.9131" y2="92.076">
			<stop  offset="4.034390e-02" style="stop-color:#6AF2A6"/>
			<stop  offset="0.197" style="stop-color:#64EFAB"/>
			<stop  offset="0.4077" style="stop-color:#53E8B9"/>
			<stop  offset="0.6492" style="stop-color:#37DCD1"/>
			<stop  offset="0.9118" style="stop-color:#10CBF1"/>
			<stop  offset="1" style="stop-color:#01C5FD"/>
		</linearGradient>
		<path class="st1" d="M84.2,71.9L84.2,71.9c-0.1,0.2-0.2,0.4-0.3,0.5l-0.2,0.3c-0.7,1-1.5,1.8-2.5,2.4L59.9,87.4
			c-1.5,0.9-3.2,1.3-4.8,1.3c-1.7,0-3.3-0.4-4.8-1.3L31.6,76.7c-0.2-0.2-0.4-0.3-0.6-0.4l0,0c-0.2-0.3-0.3-0.5-0.3-0.8
			c0.2-0.7,1.8-1,1.9-1.1c0.4-0.1,0.8-0.1,1.2-0.2l0.3,0c0.7-0.1,1.4-0.2,2-0.3c0.7-0.1,1.3-0.2,2-0.3c2.7-0.4,5.3-0.7,7.9-1
			c2.5-0.3,5-0.6,7.6-0.8c2.7-0.3,5.2-0.5,7.4-0.6c2.4-0.1,4.8-0.3,7.1-0.4c2.3-0.1,4.6-0.1,6.9-0.2c0.2,0,0.5,0,0.7,0h0.7
			c1.7,0,3.5,0,5.3,0.1c0.2,0,0.4,0,0.7,0l0.4,0c0.7,0.1,1.1,0.3,1.3,0.6C84.3,71.5,84.3,71.7,84.2,71.9z"/>
		<linearGradient id="SVGID_3_" gradientUnits="userSpaceOnUse" x1="82.447" y1="13.3793" x2="33.9352" y2="84.5987">
			<stop  offset="4.034390e-02" style="stop-color:#6AF2A6"/>
			<stop  offset="0.197" style="stop-color:#64EFAB"/>
			<stop  offset="0.4077" style="stop-color:#53E8B9"/>
			<stop  offset="0.6492" style="stop-color:#37DCD1"/>
			<stop  offset="0.9118" style="stop-color:#10CBF1"/>
			<stop  offset="1" style="stop-color:#01C5FD"/>
		</linearGradient>
		<path class="st2" d="M85.5,53.1v7c0,2.6,0,2.7-5.4,3.3l-3.5,0.3c-0.5,0-0.9,0.1-1.4,0.1L74.1,64c-8.9,0.9-17.9,1.7-26.8,2.2
			c-4,0.2-7.9,0.4-11.9,0.6c-1.8,0.1-3.7,0.1-5.5,0.2c-0.9,0-1.8,0-2.7,0c-0.7,0-1.8,0.2-2.4-0.3c-0.5-0.5-0.4-1.5-0.4-2.2V46.9
			c0-2.5,0.8-3,5.9-3.3c0.9,0,1.7,0,2.9,0c15,0,30.9,2.2,50.1,7c0,0,0.1,0,0.1,0c0,0,0,0,0,0c0.2,0,0.3,0.1,0.5,0.1l0,0
			C84.7,51,85.5,50.8,85.5,53.1z"/>
		<linearGradient id="SVGID_4_" gradientUnits="userSpaceOnUse" x1="76.1836" y1="9.113" x2="27.6719" y2="80.3324">
			<stop  offset="4.034390e-02" style="stop-color:#6AF2A6"/>
			<stop  offset="0.197" style="stop-color:#64EFAB"/>
			<stop  offset="0.4077" style="stop-color:#53E8B9"/>
			<stop  offset="0.6492" style="stop-color:#37DCD1"/>
			<stop  offset="0.9118" style="stop-color:#10CBF1"/>
			<stop  offset="1" style="stop-color:#01C5FD"/>
		</linearGradient>
		<path class="st3" d="M84.2,41.5c-0.1,0.1-0.2,0.1-0.3,0.2c-0.6,0.2-1.3,0.1-1.9,0c-0.7,0-1.4-0.1-2.1-0.1c-1.3-0.1-2.7-0.2-4-0.4
			c-1.8-0.2-3.6-0.4-5.3-0.6c-2.7-0.3-5.4-0.6-8-0.9c-3.1-0.3-6.3-0.7-9.4-1c-3.1-0.3-6.2-0.7-9.3-1c-2.7-0.3-5.3-0.6-8-0.8
			c-1.7-0.2-3.5-0.4-5.2-0.6c-0.4,0-0.9-0.1-1.3-0.1c-0.1,0-0.2,0-0.3,0c-0.3-0.1-0.6-0.1-0.8-0.3c-0.1-0.1-0.1-0.3,0.1-0.6l0.1-0.1
			c0.1-0.1,0.3-0.2,0.4-0.3c0.2-0.1,0.3-0.2,0.5-0.3l20.8-12c1.5-0.8,3.2-1.3,4.9-1.3c1.7,0,3.4,0.4,4.8,1.3c0,0,20.5,11.8,20.8,12
			c1.7,1,3.1,2.7,3.5,4.7C84.3,39.8,84.6,41,84.2,41.5z"/>
	</g>
</g>
</svg>
