<svg width="595" height="595" viewBox="0 0 595 595" fill="none" xmlns="http://www.w3.org/2000/svg">
<path d="M484.02 348.11C459.832 333.891 428.705 341.981 414.485 366.169L413.411 367.873L389.085 409.995C388.215 411.852 387.205 413.633 386.034 415.296L385.781 415.724C379.828 424.121 370.106 429.625 359.053 429.809H377.648H470.679C485.702 429.809 496.534 424.909 502.43 416.965L505.11 411.615C514.889 388.507 506.252 361.162 484.02 348.11Z" fill="url(#paint0_linear_280_96)"/>
<path d="M470.679 429.81H377.648H243.625C232.552 429.626 222.794 424.082 216.848 415.627L225.025 429.81L271.547 510.381C279.358 523.921 289.475 530.942 299.712 531.623C300.791 531.64 301.877 531.64 302.958 531.623C320.113 531.391 337.149 527.525 350.245 519.972L469.415 451.16C482.029 443.88 493.469 431.722 502.15 417.687C502.479 417.155 502.794 416.622 503.124 416.097C497.396 424.574 486.263 429.81 470.679 429.81Z" fill="url(#paint1_linear_280_96)"/>
<path d="M271.548 510.381L225.026 429.81L216.61 415.219C215.49 413.623 214.514 411.924 213.673 410.137L160.324 317.739C158.643 315.497 157.198 313.07 156.103 310.433C154.471 306.495 153.566 302.181 153.566 297.645C153.566 293.102 154.471 288.783 156.103 284.843L148.721 297.645L102.212 378.208C94.3999 391.704 93.3699 403.959 97.8639 413.157C98.4029 414.139 98.9699 415.107 99.5469 416.081C108.318 430.797 120.181 443.606 133.256 451.16L252.423 519.972C265.519 527.526 282.557 531.391 299.714 531.623C289.476 530.941 279.359 523.921 271.548 510.381Z" fill="url(#paint2_linear_280_96)"/>
<path d="M225.025 165.471H168.541H132C116.42 165.471 105.301 170.68 99.5737 179.15C98.9827 180.146 98.4017 181.148 97.8497 182.158C89.4987 197.105 84.3457 213.75 84.3457 228.838V366.446C84.3457 381.539 89.5067 398.205 97.8637 413.158C93.3697 403.96 94.3997 391.705 102.212 378.209L148.721 297.646L156.103 284.844C157.197 282.222 158.643 279.782 160.324 277.546L213.695 185.117L216.597 180.069L216.869 179.592C222.669 171.367 232.064 165.92 242.784 165.471H225.025Z" fill="url(#paint3_linear_280_96)"/>
<path d="M377.646 165.471L331.127 84.8929C323.344 71.4039 313.256 64.3799 303.056 63.6659C301.905 63.6439 300.763 63.6439 299.606 63.6659C282.491 63.9099 265.488 67.7679 252.42 75.3099L133.253 144.116C120.192 151.668 108.35 164.448 99.5723 179.15C105.299 170.68 116.418 165.471 131.998 165.471H225.023H359.909C370.6 165.92 379.961 171.339 385.76 179.522L377.646 165.471Z" fill="url(#paint4_linear_280_96)"/>
<path d="M299.713 531.623C300.792 531.69 301.878 531.69 302.959 531.623C301.878 531.64 300.792 531.64 299.713 531.623Z" fill="url(#paint5_linear_280_96)"/>
<path d="M97.8506 182.157C98.4026 181.147 98.9836 180.145 99.5746 179.149C98.9206 180.11 98.3476 181.105 97.8506 182.157Z" fill="url(#paint6_linear_280_96)"/>
<path d="M99.5453 416.08C98.9693 415.106 98.4013 414.139 97.8623 413.156C98.3543 414.165 98.9203 415.137 99.5453 416.08Z" fill="url(#paint7_linear_280_96)"/>
<path d="M303.057 63.6667C301.906 63.5877 300.764 63.5877 299.607 63.6667C300.764 63.6437 301.905 63.6437 303.057 63.6667Z" fill="url(#paint8_linear_280_96)"/>
<path d="M500.634 175.188C492.152 162.163 481.299 150.973 469.416 144.116L350.246 75.31C337.179 67.768 320.184 63.911 303.058 63.666C313.258 64.38 323.346 71.403 331.129 84.893L377.648 165.471L414.527 229.916C428.8 254.22 460.071 262.345 484.364 248.062C508.657 233.801 516.776 202.532 502.51 178.233L500.634 175.188Z" fill="url(#paint9_linear_280_96)"/>
<defs>
<linearGradient id="paint0_linear_280_96" x1="434.076" y1="429.809" x2="434.076" y2="341.098" gradientUnits="userSpaceOnUse">
<stop stop-color="#951F28"/>
<stop offset="1" stop-color="#E9B51C"/>
</linearGradient>
<linearGradient id="paint1_linear_280_96" x1="216.848" y1="473.631" x2="503.125" y2="473.631" gradientUnits="userSpaceOnUse">
<stop stop-color="#951F28"/>
<stop offset="1" stop-color="#E9B51C"/>
</linearGradient>
<linearGradient id="paint2_linear_280_96" x1="95.2011" y1="408.233" x2="299.713" y2="408.233" gradientUnits="userSpaceOnUse">
<stop stop-color="#951F28"/>
<stop offset="1" stop-color="#E9B51C"/>
</linearGradient>
<linearGradient id="paint3_linear_280_96" x1="39.6281" y1="354.922" x2="235.93" y2="158.619" gradientUnits="userSpaceOnUse">
<stop stop-color="#E9B51C"/>
<stop offset="1" stop-color="#951F28"/>
</linearGradient>
<linearGradient id="paint4_linear_280_96" x1="99.574" y1="121.586" x2="385.76" y2="121.586" gradientUnits="userSpaceOnUse">
<stop stop-color="#E9B51C"/>
<stop offset="1" stop-color="#951F28"/>
</linearGradient>
<linearGradient id="paint5_linear_280_96" x1="299.713" y1="531.648" x2="302.959" y2="531.648" gradientUnits="userSpaceOnUse">
<stop stop-color="#E9B51C"/>
<stop offset="1" stop-color="#951F28"/>
</linearGradient>
<linearGradient id="paint6_linear_280_96" x1="97.8502" y1="180.653" x2="99.5743" y2="180.653" gradientUnits="userSpaceOnUse">
<stop stop-color="#E9B51C"/>
<stop offset="1" stop-color="#951F28"/>
</linearGradient>
<linearGradient id="paint7_linear_280_96" x1="97.8631" y1="414.618" x2="99.5457" y2="414.618" gradientUnits="userSpaceOnUse">
<stop stop-color="#E9B51C"/>
<stop offset="1" stop-color="#951F28"/>
</linearGradient>
<linearGradient id="paint8_linear_280_96" x1="299.607" y1="63.6364" x2="303.057" y2="63.6364" gradientUnits="userSpaceOnUse">
<stop stop-color="#E9B51C"/>
<stop offset="1" stop-color="#951F28"/>
</linearGradient>
<linearGradient id="paint9_linear_280_96" x1="303.057" y1="159.387" x2="509.544" y2="159.387" gradientUnits="userSpaceOnUse">
<stop stop-color="#E9B51C"/>
<stop offset="1" stop-color="#951F28"/>
</linearGradient>
</defs>
</svg>
