<svg width="400" height="400" viewBox="0 0 400 400" fill="none" xmlns="http://www.w3.org/2000/svg">
<path d="M354.351 289.853L356.105 286.344C362.582 270.806 356.529 252.703 341.974 244.162C336.769 241.097 330.851 239.478 324.855 239.478C312.883 239.478 301.663 245.878 295.61 256.212L294.665 257.696L276.043 289.988C275.31 291.569 274.423 293.072 273.44 294.499L273.363 294.615L273.228 294.846L273.074 295.058C272.553 295.791 271.994 296.504 271.416 297.179H334.456C343.555 297.179 350.591 294.576 354.37 289.814L354.351 289.853Z" fill="url(#paint0_linear_1570_3182)"/>
<path d="M201.898 376.279H204.135C217.109 376.106 229.177 373.156 238.122 367.97L330.677 314.549C333.665 312.833 336.615 310.655 339.468 308.129C337.849 308.283 336.171 308.36 334.436 308.36H158.098C156.383 308.341 154.686 308.168 153.028 307.878L184.606 362.572C189.425 370.939 195.556 375.797 201.879 376.298L201.898 376.279Z" fill="url(#paint1_linear_1570_3182)"/>
<path d="M49.8511 287.289C50.2367 287.944 50.603 288.619 51.0078 289.275C57.6395 300.398 66.2183 309.382 75.1827 314.568L167.718 367.989C170.726 369.724 174.061 371.209 177.685 372.423C176.74 371.093 175.834 369.667 174.967 368.163L132.42 294.461C131.494 293.13 130.646 291.684 129.914 290.123L88.7546 218.83C87.2316 216.767 85.9592 214.55 84.9953 212.256C84.8411 211.871 84.6869 211.466 84.5326 211.061L53.1092 265.504C48.2896 273.852 47.1329 281.563 49.8511 287.27V287.289Z" fill="url(#paint2_linear_1570_3182)"/>
<path d="M79.5782 197.354L85.1496 187.714C86.0749 185.555 87.2895 183.454 88.7546 181.468L132.304 106.031L132.478 105.722L132.613 105.491L132.767 105.279C133.307 104.508 133.866 103.775 134.463 103.081H71.4235C61.8037 103.081 54.5551 105.934 50.95 111.14C50.5452 111.834 50.1403 112.528 49.7548 113.222C43.4701 124.5 40 136.414 40 146.728V253.59C40 257.06 40.3856 260.684 41.1567 264.424C41.8314 262.94 42.6218 261.436 43.4701 259.952L79.5975 197.373L79.5782 197.354Z" fill="url(#paint3_linear_1570_3182)"/>
<path d="M143.659 91.9188H248.417C249.901 91.9766 251.366 92.1501 252.812 92.4007L221.235 37.7071C216.376 29.3016 210.227 24.4434 203.884 24H203.788C203.595 24 203.267 24 202.92 24C202.515 24 202.111 24 201.725 24C188.731 24.1735 176.683 27.1231 167.737 32.2898L75.1828 85.7303C72.1946 87.4654 69.2451 89.6053 66.3919 92.1308C68.0113 91.9766 69.6885 91.8995 71.4235 91.8995H143.659V91.9188Z" fill="url(#paint4_linear_1570_3182)"/>
<path d="M267.02 94.6949L295.668 144.781C301.721 155.095 312.999 161.534 325.029 161.534C331.043 161.534 337 159.915 342.225 156.83C358.418 147.306 363.855 126.408 354.351 110.214L352.963 107.959C346.697 98.3193 338.755 90.3957 330.677 85.7303L238.122 32.2898C235.134 30.5547 231.799 29.0896 228.194 27.875C229.139 29.2052 230.045 30.6319 230.912 32.1163L267.04 94.6949H267.02Z" fill="url(#paint5_linear_1570_3182)"/>
<defs>
<linearGradient id="paint0_linear_1570_3182" x1="40" y1="202.859" x2="359.03" y2="202.859" gradientUnits="userSpaceOnUse">
<stop stop-color="#FE5000"/>
<stop offset="1" stop-color="#FF8412"/>
</linearGradient>
<linearGradient id="paint1_linear_1570_3182" x1="40" y1="202.859" x2="359.03" y2="202.859" gradientUnits="userSpaceOnUse">
<stop stop-color="#FE5000"/>
<stop offset="1" stop-color="#FF8412"/>
</linearGradient>
<linearGradient id="paint2_linear_1570_3182" x1="40" y1="202.859" x2="359.03" y2="202.859" gradientUnits="userSpaceOnUse">
<stop stop-color="#FE5000"/>
<stop offset="1" stop-color="#FF8412"/>
</linearGradient>
<linearGradient id="paint3_linear_1570_3182" x1="40" y1="202.859" x2="359.03" y2="202.859" gradientUnits="userSpaceOnUse">
<stop stop-color="#FE5000"/>
<stop offset="1" stop-color="#FF8412"/>
</linearGradient>
<linearGradient id="paint4_linear_1570_3182" x1="40" y1="202.859" x2="359.03" y2="202.859" gradientUnits="userSpaceOnUse">
<stop stop-color="#FE5000"/>
<stop offset="1" stop-color="#FF8412"/>
</linearGradient>
<linearGradient id="paint5_linear_1570_3182" x1="40" y1="202.859" x2="359.03" y2="202.859" gradientUnits="userSpaceOnUse">
<stop stop-color="#FE5000"/>
<stop offset="1" stop-color="#FF8412"/>
</linearGradient>
</defs>
</svg>
