<svg xmlns="http://www.w3.org/2000/svg" width="20.1" height="20.1" viewBox="0 0 20.1 20.1">
    <defs>
        <style>
            .cls-4{fill:#ed3324}
        </style>
    </defs>
    <g id="chain_akash" transform="translate(6330.05 4717.122)">
        <circle id="타원_116" cx="9" cy="9" r="9" fill="#fff" transform="translate(-6329 -4716.072)"/>
        <g id="그룹_1488" transform="translate(-6330 -4717)">
            <path id="제외_2" fill="#c71e10" d="M10 20A10 10 0 0 1 2.929 2.929 10 10 0 1 1 17.071 17.07 9.934 9.934 0 0 1 10 20zm0-18.572A8.571 8.571 0 1 0 18.571 10 8.581 8.581 0 0 0 10 1.428z" transform="translate(0 -.072)"/>
            <path id="교차_4" fill="#fff" stroke="#fff" stroke-width="0.1px" d="M9.285 19.975v-1.434q.354.029.715.029t.714-.029v1.434Q10.359 20 10 20t-.715-.025zm6.247-3.434a8.647 8.647 0 0 0 1.009-1.01l1.016 1.017q-.233.269-.487.522t-.522.487zm-12.6.529q-.254-.254-.488-.522l1.016-1.017a8.652 8.652 0 0 0 1.01 1.01l-1.018 1.016q-.269-.232-.523-.487zm15.612-6.356c.02-.236.03-.474.03-.715s-.01-.478-.029-.714h1.434Q20 9.639 20 10t-.025.715zm-18.516 0Q0 10.359 0 10t.025-.714h1.434Q1.43 9.64 1.43 10c0 .241.01.479.03.715zm2.414-7.262q.233-.269.488-.522t.523-.488l1.015 1.015a8.688 8.688 0 0 0-1.01 1.01zm13.09.006l1.016-1.016q.268.234.523.488t.487.522l-1.016 1.015a8.646 8.646 0 0 0-1.01-1.009zM9.285.025Q9.64 0 10 0t.714.025v1.432q-.353-.029-.714-.029t-.715.03z" opacity="0.41" transform="translate(0 -.072)"/>
        </g>
        <g id="akash-symbol11" transform="translate(-6326.1 -4712.63)">
            <path id="패스_2819" d="M59.713 10.422l2.007-3.476L57.706 0H53.7z" class="cls-4" transform="translate(-49.694)"/>
            <path id="패스_2820" fill="#ad1f23" d="M57.713 93.1l2 3.476h-4.006L53.7 93.1z" transform="translate(-49.694 -86.155)"/>
            <path id="패스_2821" d="M2.007 46.6h4.006l-4.006 6.945L0 50.069z" class="cls-4" transform="translate(0 -43.124)"/>
        </g>
    </g>
</svg>
