<svg width="240" height="56" viewBox="0 0 240 56" fill="none" xmlns="http://www.w3.org/2000/svg">
<path d="M120.972 25.021L127.922 14.7078H139.251L129.196 29.6074L139.567 45.1979H128.247L120.972 34.2105V45.1979H111.574V1.53955H120.972V25.021Z" fill="white"/>
<path d="M238.644 24.1886V45.1895H229.255V24.4133C229.255 22.2991 227.523 20.5677 225.409 20.5677C223.278 20.5677 221.555 22.2991 221.555 24.4133V45.1895H212.166V1.53955H221.555V15.6734C223.353 14.3332 225.576 13.5341 227.981 13.5341C233.875 13.5258 238.644 18.2954 238.644 24.1886Z" fill="white"/>
<path d="M96.9476 14.7077V16.2143C94.4005 14.5661 91.3623 13.6006 88.0994 13.6006C79.0764 13.6006 71.7598 20.9172 71.7598 29.9402C71.7598 38.9632 79.0764 46.2798 88.1077 46.2798C91.3706 46.2798 94.4005 45.3143 96.9559 43.6661V45.256H106.345V14.7077H96.9476V14.7077ZM89.4728 37.8978C84.8781 37.8978 81.149 34.1687 81.149 29.574C81.149 24.9792 84.8781 21.2502 89.4728 21.2502C94.0675 21.2502 97.7966 24.9792 97.7966 29.574C97.7966 34.1687 94.0759 37.8978 89.4728 37.8978Z" fill="white"/>
<path d="M164.752 14.7077V16.2143C162.205 14.5661 159.167 13.6006 155.904 13.6006C146.881 13.6006 139.564 20.9172 139.564 29.9402C139.564 38.9632 146.881 46.2798 155.904 46.2798C159.167 46.2798 162.197 45.3143 164.752 43.6661V45.256H174.141V14.7077H164.752V14.7077ZM157.277 37.8978C152.683 37.8978 148.954 34.1687 148.954 29.574C148.954 24.9792 152.683 21.2502 157.277 21.2502C161.872 21.2502 165.601 24.9792 165.601 29.574C165.601 34.1687 161.872 37.8978 157.277 37.8978Z" fill="white"/>
<path d="M187.844 35.3259C187.886 35.9502 188.052 36.4829 188.335 36.9074C188.635 37.3569 189.026 37.7232 189.492 38.0062C190 38.3058 190.591 38.5306 191.265 38.6721C191.973 38.8219 192.705 38.8968 193.463 38.8968C195.152 38.8968 196.426 38.6388 197.25 38.1393C197.941 37.7148 198.249 37.257 198.249 36.6577C198.249 36.383 198.191 36.1583 198.074 35.9668C198.007 35.8586 197.824 35.6339 197.317 35.3509C196.842 35.0845 196.193 34.8348 195.377 34.6017C194.52 34.3603 193.404 34.1023 192.056 33.8526C190.275 33.4947 188.618 33.0452 187.128 32.5041C185.605 31.9548 184.282 31.2722 183.183 30.4814C182.051 29.6574 181.143 28.6918 180.503 27.6097C179.837 26.486 179.495 25.1875 179.495 23.7392C179.495 22.3574 179.828 21.009 180.486 19.7521C181.143 18.5035 182.084 17.4048 183.291 16.4808C184.473 15.5735 185.93 14.841 187.611 14.3166C189.276 13.7922 191.174 13.5259 193.246 13.5259C195.402 13.5259 197.375 13.7839 199.106 14.2917C200.863 14.8077 202.377 15.5402 203.618 16.4559C204.883 17.3964 205.865 18.5368 206.539 19.8353C207.214 21.1422 207.555 22.5822 207.555 24.1137H197.899C197.899 23.2564 197.566 22.5822 196.859 21.9829C196.11 21.3586 194.894 21.0506 193.238 21.0506C191.681 21.0506 190.524 21.3086 189.792 21.8247C189.151 22.2742 188.86 22.7653 188.86 23.3646C188.86 23.6476 188.918 23.9057 189.034 24.147C189.134 24.3551 189.342 24.5632 189.65 24.763C190.033 25.0127 190.591 25.2541 191.307 25.4705C192.064 25.7036 193.055 25.9117 194.237 26.0782C196.076 26.3778 197.808 26.769 199.381 27.2352C201.004 27.718 202.436 28.3589 203.626 29.1247C204.866 29.9321 205.857 30.9226 206.564 32.0796C207.288 33.2699 207.663 34.6933 207.663 36.2998C207.663 37.7897 207.297 39.1798 206.581 40.4367C205.873 41.677 204.866 42.7507 203.584 43.6414C202.336 44.507 200.813 45.1896 199.056 45.6641C197.325 46.1302 195.385 46.3716 193.271 46.3716C190.932 46.3716 188.835 46.0553 187.02 45.4393C185.205 44.815 183.649 43.991 182.409 42.9755C181.143 41.9433 180.178 40.753 179.52 39.4295C178.863 38.0977 178.521 36.7326 178.521 35.3675L187.844 35.3259Z" fill="white"/>
<path d="M51.576 54.0465L61.6644 36.5499L41.4709 1.54834H21.2773L51.576 54.0465Z" fill="white"/>
<path d="M41.4792 36.5498L51.5676 54.0464H31.3824L21.2773 36.5498H41.4792Z" fill="white"/>
<path d="M11.1807 19.0449H31.3743L11.1891 54.0465L1.08398 36.5499L11.1807 19.0449Z" fill="white"/>
</svg>
