<svg height="32" viewBox="0 0 32 32" width="32" xmlns="http://www.w3.org/2000/svg"><g fill="none" fill-rule="evenodd"><path d="m0 0h32v32h-32z" fill="#131415"/><g fill-rule="nonzero" transform="translate(6 6)"><path d="m8.30673626 16.6901939 1.69322398 1.6932169 1.69320666-1.6932169.8083109.8083286-2.5014775 2.5014775-2.50146405-2.5014641zm3.38643434.3245031-1.6931703 1.6932636-1.69325042-1.6932636-.48373963.4838247 2.17699005 2.17699 2.1769901-2.17699zm-9.19167993-9.51616814.80821781.80821781-1.69325615 1.69321357 1.69325615 1.69319706-.80821688.808334-2.5014916-2.50149162zm14.18870323.8082074.808342-.80820001 2.5014641 2.50146405-2.5014775 2.5014775-.8083286-.8083109 1.6932169-1.69320666zm-14.18870388-.48371979-2.17700113 2.17698383 2.17699008 2.1769901.48374447-.4838198-1.6931834-1.6931703 1.6931834-1.69325042zm14.99703168-.00000622-.4838247.48373963 1.6932636 1.69325042-1.6932636 1.6931703.4838247.4838198 2.17699-2.1769901zm-9.99999284-5.32151958 2.50147082-2.50149067 2.50149162 2.5014916-.808334.80821688-1.69319706-1.69319878-1.69321357 1.69319878zm2.50147144-2.17700178-2.17698383 2.17700113.48373341.48373342 1.69325042-1.6931834 1.6931703 1.6931834.4838198-.48374447z" fill="#ffd900"/><g stroke="#ffd900" stroke-width=".625"><path d="m15.5605277 3.10572314 1.3332087 1.33320876-3.2469693 3.24571882 2.4370088 2.43632118-2.4360493 2.4347518 3.2459417 3.2466917-1.3331406 1.3331407-3.2466918-3.2459417-2.43475179 2.4360493-2.43632118-2.4370089-3.24571881 3.2469694-1.33320876-1.3332087 3.2459688-3.2467194-2.43536653-2.4346789 2.4354055-2.43632753-3.24604183-3.24579182 1.33320876-1.33320876 3.24579182 3.24604182 2.43632757-2.43540549 2.43467885 2.43536652zm-5.68161789 2.56677458-1.55808159 1.55714029.40568317.40543322-1.33332795 1.33332795-.40543322-.40568318-1.55714704 1.5580884 1.55733712 1.5571136.40551585-.4047652 1.33332846 1.3333284-.40576271.4045121 1.55794314 1.5581219 1.55708836-1.5576411-.4047886-.4055386 1.3327829-1.3327829.4055418.4047917 1.5576822-1.5570847-1.5581638-1.55795225-.4045144.40576505-1.3333285-1.33332846.4047644-.40551501z"/><path d="m10.8220169 9.17798372v1.88592098h-1.88592096v-1.88592098z" fill="#ffd900" transform="matrix(-.70710678 -.70710678 .70710678 -.70710678 9.708122 24.263036)"/></g></g></g></svg>