<svg height="260" viewBox="0 0 260 260" width="260" xmlns="http://www.w3.org/2000/svg"><g fill="none"><circle cx="130" cy="130" fill="#181818" r="130"/><g transform="translate(60.3571 46.3729)"><g fill="#f7d509"><rect height="30.847458" rx="7.731889" width="30.952381" x="108.333333" y="84.886169"/><rect height="30.847458" rx="7.731889" width="30.952381" y="84.886169"/><path d="m7.73809524 120.874869h23.21428576v23.135593c0 4.259145-3.4644633 7.711865-7.7380953 7.711865h-15.47619046c-4.273632 0-7.73809524-3.45272-7.73809524-7.711865v-15.423728c0-4.259146 3.46446324-7.711865 7.73809524-7.711865z"/></g><path d="m0 48.897468h23.2142857c4.273632 0 7.7380953 3.4527193 7.7380953 7.7118644v23.1355933h-23.21428576c-4.273632 0-7.73809524-3.4527193-7.73809524-7.7118644z" fill="#ba00ff"/><rect fill="#f7d509" height="30.847458" rx="7.731889" width="30.952381" x="36.111111" y="120.874869"/><rect fill="#ba00ff" height="30.847458" rx="7.731889" width="30.952381" x="36.111111" y="48.897468"/><rect fill="#f7d509" height="30.847458" rx="7.731889" width="30.952381" x="72.222222" y="120.874869"/><rect fill="#ba00ff" height="30.847458" rx="7.731889" width="30.952381" x="72.222222" y="48.897468"/><path d="m108.333333 120.874869h23.214286c4.273631 0 7.738095 3.452719 7.738095 7.711865v15.423728c0 4.259145-3.464464 7.711865-7.738095 7.711865h-15.47619c-4.273632 0-7.738096-3.45272-7.738096-7.711865z" fill="#f7d509"/><path d="m116.071429 48.897468h23.214285v23.1355933c0 4.2591451-3.464464 7.7118644-7.738095 7.7118644h-23.214286v-23.1355933c0-4.2591451 3.464464-7.7118644 7.738096-7.7118644z" fill="#ba00ff"/><path d="m79.9092372 6.40500879 23.1749398.03936896.039369 23.17493945c.00722 4.2663885-3.4454989 7.7191078-7.7118874 7.7118871l-15.4499597-.0262536c-4.2663885-.0072434-7.7308518-3.4717067-7.7380952-7.7380952l-.0262536-15.4499597c-.0072207-4.26638844 3.4454986-7.71910774 7.7118871-7.71188701z" fill="#ba00ff" transform="matrix(-.70710678 .70710678 -.70710678 -.70710678 165.108745 -24.654081)"/><path d="m57.0209964 5.50877177 10.004555 9.97059333-.9388124.9356299c-2.991695 2.9815537-3.0216119 7.7970824-.0897508 10.8153155l.0897508.0909077.9388124.9355494-15.4762146 15.4237855-16.4149788-16.3593349c-3.0219142-3.0116703-3.0219142-7.8945528 0-10.9062232l10.9433193-10.90622323c3.0219141-3.01167038 7.9214051-3.01167038 10.9433191 0z" fill="#f7d509"/></g></g></svg>