<svg width="250" height="250" viewBox="0 0 250 250" fill="none" xmlns="http://www.w3.org/2000/svg">
<g clip-path="url(#clip0_58_1251)">
<path d="M124.952 250C193.961 250 249.904 194.356 249.904 125.715C249.904 57.0741 193.961 1.42969 124.952 1.42969C55.943 1.42969 0 57.0741 0 125.715C0 194.356 55.943 250 124.952 250Z" fill="url(#paint0_linear_58_1251)"/>
<path opacity="0.5" d="M124.952 248.57C193.961 248.57 249.904 192.926 249.904 124.285C249.904 55.6444 193.961 0 124.952 0C55.943 0 0 55.6444 0 124.285C0 192.926 55.943 248.57 124.952 248.57Z" fill="#0077FF"/>
<path d="M181.201 193.195H203.527L155.999 74.9143C155.999 74.819 155.904 74.7237 155.904 74.6284L136.739 26.6871V26.5918H114.413L46.4746 193.195H68.8012L86.5283 149.924H132.619C137.985 149.924 142.393 145.54 142.393 140.393C142.393 135.055 137.985 130.671 132.619 130.671H94.4815L125.815 53.7554" fill="white"/>
<path opacity="0.25" d="M86.4316 149.924L94.3849 130.766L130.701 130.48L130.51 150.019L86.4316 149.924Z" fill="url(#paint1_linear_58_1251)"/>
<path opacity="0.25" d="M125.719 53.8507L136.738 26.5918L165.581 98.5514L146.991 108.178L125.719 53.8507Z" fill="url(#paint2_linear_58_1251)"/>
</g>
<defs>
<linearGradient id="paint0_linear_58_1251" x1="124.976" y1="1.36881" x2="124.976" y2="249.987" gradientUnits="userSpaceOnUse">
<stop stop-color="white"/>
<stop offset="1" stop-color="#0077FF"/>
</linearGradient>
<linearGradient id="paint1_linear_58_1251" x1="124.421" y1="146.59" x2="98.5168" y2="135.978" gradientUnits="userSpaceOnUse">
<stop stop-color="white"/>
<stop offset="1" stop-color="#0077FF"/>
</linearGradient>
<linearGradient id="paint2_linear_58_1251" x1="164.618" y1="76.4977" x2="130.337" y2="62.4507" gradientUnits="userSpaceOnUse">
<stop stop-color="white"/>
<stop offset="1" stop-color="#0077FF"/>
</linearGradient>
<clipPath id="clip0_58_1251">
<rect width="250" height="250" fill="white"/>
</clipPath>
</defs>
</svg>
