<?xml version="1.0" encoding="utf-8"?>
<!-- Generator: Adobe Illustrator 26.3.1, SVG Export Plug-In . SVG Version: 6.00 Build 0)  -->
<svg version="1.1" id="Layer_1" xmlns="http://www.w3.org/2000/svg" xmlns:xlink="http://www.w3.org/1999/xlink" x="0px" y="0px"
	 viewBox="0 0 260.9 262.3" style="enable-background:new 0 0 260.9 262.3;" xml:space="preserve">
<style type="text/css">
	.st0{fill:url(#SVGID_1_);}
	.st1{opacity:0.5;fill:#0077FF;}
	.st2{fill:#FFFFFF;}
	.st3{opacity:0.25;fill:url(#SVGID_00000161608450946929441420000007230637691353908891_);}
	.st4{opacity:0.25;fill:url(#SVGID_00000057860905348325478940000008824286652007500198_);}
</style>
<linearGradient id="SVGID_1_" gradientUnits="userSpaceOnUse" x1="884.134" y1="981.6922" x2="1144.9847" y2="981.6922" gradientTransform="matrix(-1.774756e-07 1 -1 -1.774756e-07 1112.1178 -882.6977)">
	<stop  offset="0" style="stop-color:#FFFFFF"/>
	<stop  offset="1" style="stop-color:#0077FF"/>
</linearGradient>
<circle class="st0" cx="130.4" cy="131.9" r="130.4"/>
<circle class="st1" cx="130.4" cy="130.4" r="130.4"/>
<path class="st2" d="M189.1,202.7l23.3,0L162.8,78.6c0-0.1-0.1-0.2-0.1-0.3L142.7,28l0-0.1l-23.3,0L48.5,202.7l23.3,0l18.5-45.4
	l48.1,0c5.6,0,10.2-4.6,10.2-10c0-5.6-4.6-10.2-10.2-10.2l-39.8,0l32.7-80.7"/>
<linearGradient id="SVGID_00000146495078835664614640000012614186918479639188_" gradientUnits="userSpaceOnUse" x1="1550.4152" y1="977.18" x2="1550.4152" y2="1006.4158" gradientTransform="matrix(-0.3146 0.7721 -0.9261 -0.3773 1522.5725 -674.5839)">
	<stop  offset="0" style="stop-color:#FFFFFF"/>
	<stop  offset="1" style="stop-color:#0077FF"/>
</linearGradient>
<polygon style="opacity:0.25;fill:url(#SVGID_00000146495078835664614640000012614186918479639188_);" points="90.2,157.3 
	98.5,137.2 136.4,136.9 136.2,157.4 "/>
<linearGradient id="SVGID_00000155846326403430023650000001593096871238209201_" gradientUnits="userSpaceOnUse" x1="1287.6823" y1="675.1329" x2="1287.6823" y2="698.8228" gradientTransform="matrix(-0.5139 1.2609 -1.5126 -0.6162 1854.7413 -1127.3605)">
	<stop  offset="0" style="stop-color:#FFFFFF"/>
	<stop  offset="1" style="stop-color:#0077FF"/>
</linearGradient>
<polygon style="opacity:0.25;fill:url(#SVGID_00000155846326403430023650000001593096871238209201_);" points="131.2,56.5 
	142.7,27.9 172.8,103.4 153.4,113.5 "/>
</svg>
