<svg width="139" height="139" viewBox="0 0 139 139" fill="none" xmlns="http://www.w3.org/2000/svg">
<rect width="139" height="139" fill="#0B0913"/>
<g clip-path="url(#clip0_165_2764)">
<path d="M32.7094 54.1895C34.2501 54.1895 35.4991 52.9356 35.4991 51.3889C35.4991 49.8422 34.2501 48.5884 32.7094 48.5884C31.1687 48.5884 29.9197 49.8422 29.9197 51.3889C29.9197 52.9356 31.1687 54.1895 32.7094 54.1895Z" fill="#E0DAEE"/>
<path d="M32.7094 71.239C34.2501 71.239 35.4991 69.9851 35.4991 68.4384C35.4991 66.8917 34.2501 65.6379 32.7094 65.6379C31.1687 65.6379 29.9197 66.8917 29.9197 68.4384C29.9197 69.9851 31.1687 71.239 32.7094 71.239Z" fill="#E0DAEE"/>
<path d="M103.953 71.239C105.494 71.239 106.743 69.9851 106.743 68.4384C106.743 66.8917 105.494 65.6379 103.953 65.6379C102.413 65.6379 101.164 66.8917 101.164 68.4384C101.164 69.9851 102.413 71.239 103.953 71.239Z" fill="#E0DAEE"/>
<path d="M49.7539 53.7586C51.1761 53.7586 52.329 52.6012 52.329 51.1735C52.329 49.7458 51.1761 48.5884 49.7539 48.5884C48.3317 48.5884 47.1788 49.7458 47.1788 51.1735C47.1788 52.6012 48.3317 53.7586 49.7539 53.7586Z" fill="#E0DAEE"/>
<path d="M50.0605 70.0695C50.9579 70.0695 51.6853 69.3392 51.6853 68.4384C51.6853 67.5376 50.9579 66.8073 50.0605 66.8073C49.1632 66.8073 48.4358 67.5376 48.4358 68.4384C48.4358 69.3392 49.1632 70.0695 50.0605 70.0695Z" fill="#E0DAEE"/>
<path d="M50.0606 86.6882C50.5177 86.6882 50.8883 86.3162 50.8883 85.8573C50.8883 85.3984 50.5177 85.0264 50.0606 85.0264C49.6034 85.0264 49.2328 85.3984 49.2328 85.8573C49.2328 86.3162 49.6034 86.6882 50.0606 86.6882Z" fill="#E0DAEE"/>
<path d="M50.0606 104.384C50.5177 104.384 50.8883 104.012 50.8883 103.553C50.8883 103.094 50.5177 102.722 50.0606 102.722C49.6034 102.722 49.2328 103.094 49.2328 103.553C49.2328 104.012 49.6034 104.384 50.0606 104.384Z" fill="#E0DAEE"/>
<path d="M85.1921 34.647C85.6492 34.647 86.0198 34.275 86.0198 33.8161C86.0198 33.3572 85.6492 32.9852 85.1921 32.9852C84.735 32.9852 84.3644 33.3572 84.3644 33.8161C84.3644 34.275 84.735 34.647 85.1921 34.647Z" fill="#E0DAEE"/>
<path d="M85.1921 52.3429C85.6492 52.3429 86.0198 51.9709 86.0198 51.512C86.0198 51.0531 85.6492 50.681 85.1921 50.681C84.735 50.681 84.3644 51.0531 84.3644 51.512C84.3644 51.9709 84.735 52.3429 85.1921 52.3429Z" fill="#E0DAEE"/>
<path d="M50.0605 35.5395C50.9579 35.5395 51.6853 34.8093 51.6853 33.9084C51.6853 33.0076 50.9579 32.2773 50.0605 32.2773C49.1632 32.2773 48.4358 33.0076 48.4358 33.9084C48.4358 34.8093 49.1632 35.5395 50.0605 35.5395Z" fill="#E0DAEE"/>
<path d="M67.1971 71.516C68.6193 71.516 69.7722 70.3586 69.7722 68.9308C69.7722 67.5031 68.6193 66.3457 67.1971 66.3457C65.7749 66.3457 64.622 67.5031 64.622 68.9308C64.622 70.3586 65.7749 71.516 67.1971 71.516Z" fill="#E0DAEE"/>
<path d="M67.5344 87.827C68.4317 87.827 69.1591 87.0967 69.1591 86.1959C69.1591 85.295 68.4317 84.5648 67.5344 84.5648C66.637 84.5648 65.9096 85.295 65.9096 86.1959C65.9096 87.0967 66.637 87.827 67.5344 87.827Z" fill="#E0DAEE"/>
<path d="M67.5344 53.297C68.4317 53.297 69.1591 52.5667 69.1591 51.6659C69.1591 50.7651 68.4317 50.0348 67.5344 50.0348C66.637 50.0348 65.9096 50.7651 65.9096 51.6659C65.9096 52.5667 66.637 53.297 67.5344 53.297Z" fill="#E0DAEE"/>
<path d="M84.487 88.6271C85.9092 88.6271 87.0621 87.4697 87.0621 86.042C87.0621 84.6142 85.9092 83.4568 84.487 83.4568C83.0648 83.4568 81.9119 84.6142 81.9119 86.042C81.9119 87.4697 83.0648 88.6271 84.487 88.6271Z" fill="#E0DAEE"/>
<path d="M84.7936 104.938C85.6909 104.938 86.4183 104.208 86.4183 103.307C86.4183 102.406 85.6909 101.676 84.7936 101.676C83.8963 101.676 83.1688 102.406 83.1688 103.307C83.1688 104.208 83.8963 104.938 84.7936 104.938Z" fill="#E0DAEE"/>
<path d="M84.7936 70.4081C85.6909 70.4081 86.4183 69.6778 86.4183 68.777C86.4183 67.8761 85.6909 67.1459 84.7936 67.1459C83.8963 67.1459 83.1688 67.8761 83.1688 68.777C83.1688 69.6778 83.8963 70.4081 84.7936 70.4081Z" fill="#E0DAEE"/>
<path d="M103.739 36.1551C104.636 36.1551 105.364 35.4248 105.364 34.524C105.364 33.6231 104.636 32.8929 103.739 32.8929C102.842 32.8929 102.114 33.6231 102.114 34.524C102.114 35.4248 102.842 36.1551 103.739 36.1551Z" fill="#E0DAEE"/>
<path d="M32.7093 105.03C33.7251 105.03 34.5486 104.204 34.5486 103.184C34.5486 102.164 33.7251 101.337 32.7093 101.337C31.6934 101.337 30.8699 102.164 30.8699 103.184C30.8699 104.204 31.6934 105.03 32.7093 105.03Z" fill="#E0DAEE"/>
<path d="M103.953 54.0355C104.969 54.0355 105.793 53.2088 105.793 52.189C105.793 51.1692 104.969 50.3425 103.953 50.3425C102.938 50.3425 102.114 51.1692 102.114 52.189C102.114 53.2088 102.938 54.0355 103.953 54.0355Z" fill="#E0DAEE"/>
<path d="M32.5868 88.1039C33.6026 88.1039 34.4261 87.2772 34.4261 86.2574C34.4261 85.2375 33.6026 84.4108 32.5868 84.4108C31.5709 84.4108 30.7474 85.2375 30.7474 86.2574C30.7474 87.2772 31.5709 88.1039 32.5868 88.1039Z" fill="#E0DAEE"/>
<path d="M103.953 88.8733C105.494 88.8733 106.743 87.6194 106.743 86.0727C106.743 84.526 105.494 83.2722 103.953 83.2722C102.413 83.2722 101.164 84.526 101.164 86.0727C101.164 87.6194 102.413 88.8733 103.953 88.8733Z" fill="#E0DAEE"/>
<path d="M49.754 54.7742C51.7349 54.7742 53.3407 53.1621 53.3407 51.1735C53.3407 49.1849 51.7349 47.5728 49.754 47.5728C47.7731 47.5728 46.1672 49.1849 46.1672 51.1735C46.1672 53.1621 47.7731 54.7742 49.754 54.7742Z" fill="#E0DAEE"/>
<path d="M32.5867 37.2014C34.5676 37.2014 36.1735 35.5893 36.1735 33.6007C36.1735 31.6121 34.5676 30 32.5867 30C30.6058 30 29 31.6121 29 33.6007C29 35.5893 30.6058 37.2014 32.5867 37.2014Z" fill="#E0DAEE"/>
<path d="M84.487 89.6427C86.4679 89.6427 88.0737 88.0306 88.0737 86.0419C88.0737 84.0533 86.4679 82.4412 84.487 82.4412C82.5061 82.4412 80.9003 84.0533 80.9003 86.0419C80.9003 88.0306 82.5061 89.6427 84.487 89.6427Z" fill="#E0DAEE"/>
<path d="M104.413 107C106.394 107 108 105.388 108 103.399C108 101.411 106.394 99.7985 104.413 99.7985C102.432 99.7985 100.827 101.411 100.827 103.399C100.827 105.388 102.432 107 104.413 107Z" fill="#E0DAEE"/>
<path d="M67.5344 71.8853C69.5153 71.8853 71.1211 70.2732 71.1211 68.2846C71.1211 66.296 69.5153 64.6839 67.5344 64.6839C65.5535 64.6839 63.9476 66.296 63.9476 68.2846C63.9476 70.2732 65.5535 71.8853 67.5344 71.8853Z" fill="#E0DAEE"/>
</g>
<defs>
<clipPath id="clip0_165_2764">
<rect width="79" height="77" fill="white" transform="translate(29 30)"/>
</clipPath>
</defs>
</svg>
