<svg xmlns="http://www.w3.org/2000/svg" xmlns:xlink="http://www.w3.org/1999/xlink" id="Layer_2_1_" x="0" y="0" version="1.1" viewBox="0 0 392 392" xml:space="preserve" style="enable-background:new 0 0 392 392"><style type="text/css">.st0{fill:url(#SVGID_1_)}.st1{fill:#28646e}</style><linearGradient id="SVGID_1_" x1="0" x2="392" y1="198" y2="198" gradientTransform="matrix(1 0 0 -1 0 394)" gradientUnits="userSpaceOnUse"><stop offset="0" style="stop-color:#d2f0f0"/><stop offset="1" style="stop-color:#f0e6b4"/></linearGradient><circle cx="196" cy="196" r="196" class="st0"/><path d="M196,379.8C94.7,379.8,12.2,297.3,12.2,196S94.7,12.2,196,12.2S379.8,94.7,379.8,196S297.3,379.8,196,379.8z M196,27.8c-92.7,0-168.2,75.4-168.2,168.2S103.3,364.2,196,364.2S364.2,288.7,364.2,196S288.7,27.8,196,27.8z" class="st1"/><path d="M183.9,162.4c-2.9,0-5.2-2.3-5.2-5.2c0-1.5,0.6-2.9,1.8-3.9c14.8-13,21.3-23.7,22.5-25.8	c4.3-7.6,11.3-11.5,18.6-10.5c2.9,0.4,4.9,3,4.5,5.9s-3,4.9-5.9,4.5l0,0c-4.3-0.6-7.1,3.5-8.2,5.3c-1.3,2.3-8.6,14.3-24.6,28.4	C186.4,162,185.1,162.4,183.9,162.4z" class="st1"/><path d="M95.9,251c-2.9,0-5.2-2.3-5.2-5.2c0-1.5,0.7-3,1.9-4c6.1-4.8,12.5-9.1,19.2-12.9c2.6-1.2,5.7,0,6.9,2.6	c1.1,2.5,0.1,5.4-2.2,6.7c-6,3.4-11.8,7.3-17.2,11.5C98.3,250.6,97.1,251,95.9,251z" class="st1"/><path d="M227.3,201.4c2.1,1.9,4.5,1.1,6.7-1c15.1-14.4,31.2-37.1,36.5-48.9c1.1-2.5,3.5-3.9,5.9-2.9	c2.9,1.2,2.9,6.2,0.2,11.6c-7,14.4-16.7,30.3-35.9,50.1c-1.6,1.5-1.7,4-0.2,5.7c0.1,0.1,0.2,0.2,0.3,0.3c1.7,1.5,4.4,1.4,7-1.2	c10-10.1,16.6-18,22.4-26.1c1.5-2.1,3.2-3,5-2.6c2.5,0.5,2.9,2.9,2.1,5.8c-1.2,4.7-14.5,22-19.7,27.9	c-14.2,15.8-28.4,24.5-55.7,38.7c-9.5,5-16.7,9.7-21,17c-3.9,6.6-5.1,8.8-5.5,9.6c-1.6,3.2-0.3,7.2,2.9,8.8c3.2,1.5,7,0.2,8.6-3	c0.1-0.1,0.1-0.2,0.1-0.3c0-0.1-0.2,0.1,4.9-8.6c3.9-6.2,9.5-11.1,16.1-14.2c27.3-12.5,38.5-22.3,54.4-38.2	c7.2-7.2,17.2-22.8,20-27.3c7.6-12.9,3.6-23.9-3.3-25.8c-0.5-0.1-0.8-0.6-0.6-1.1c0-0.1,0.1-0.2,0.1-0.2c5.3-9.1,7.8-15.5,8.8-20.4	c1.4-6.7-0.5-14.7-9.7-16.7c-0.5-0.1-0.8-0.6-0.6-1.1c0,0,0,0,0,0c0.6-2.1,1.1-4.8,1.5-6.5c1.9-8.6-3.5-16.5-10.1-17.9	c-4.3-1-8.8,0-12.3,2.6c-0.5,0.3-1.2,0.3-1.6-0.2c-1.7-1.9-4.2-3.1-6.8-3.2c-5.7-0.1-11.4,1.7-15.5,10.5c-3,6.3-7.3,14.7-20.2,29	c-11.9,13.2-28.5,26.1-38.8,32.9c-1.8,1.2-4.3,0.9-4-1.5c0.5-3.8,4.6-29.6,5.3-37.2c1.1-12.3-5.5-18-12.9-19	c-6.1-0.8-15.4,0.9-20.5,14.9c-3,8.2-9.2,21.6-14.5,43.2c-3.7,15.2-4.3,32.9-0.9,53.3c0.2,1.2,0,2.5-0.7,3.6	c-4.1,6.7-10,15.5-13.3,23.1c-1.4,3.1-0.2,6.7,2.7,8.4c3.1,1.7,7,0.6,8.7-2.6c0.1-0.1,0.1-0.2,0.2-0.3c2-4.2,6-12,7.6-15.2	c2.8-5.6,4.6-9.4,5.3-11.7c0.7-2.1,1.1-4.6-0.1-10.3c-2.1-9.5-2.8-27.3,1.1-43c4.2-16.3,9.4-32.3,15.4-48c1.6-3.9,3.8-5,6-4.9	s6.4,1.3,5.2,9.1c-2.2,14.1-5.2,32-6.2,38c-0.5,3-1.1,9.9,4.4,13c4.2,2.5,8.9,1.1,14.1-2.4c11.6-7.8,31.7-23.6,44.3-37.7	c13.2-14.9,17.4-23.7,20.8-31.7c1.5-3.6,5.5-3.6,6.9-3.2s3.1,2.3,1.9,6.3c-2.9,9.8-15,32.1-38.3,53.1c-2.6,2.4-2.3,5.2-0.9,6.7	s3.7,2.4,6.4,0c20.9-17.8,32.8-39.1,38.2-50.5c1.8-3.8,3.3-7.7,4.6-11.7c1.1-3.3,3.7-4.5,5.5-4.1c2.5,0.5,4.2,3.1,3.4,7.4	c-1.3,5.5-3.2,10.8-5.7,15.9c-6.7,14.2-20.9,33.2-36.1,49.6c-1.8,1.6-1.9,4.3-0.4,6.1C227.1,201.2,227.2,201.3,227.3,201.4z" class="st1"/><path d="M132.8,130.6c0.8-0.7,0.5-1.6,0.3-2.4c-1.1-3.6-7.5-18.6-9.2-21.6c-0.9-1.5-1.9-1.7-3.1-1.3	c-1.5,0.6-3.4,2-6.2,4.5s-4.5,4.2-5.2,5.6c-0.6,1.1-0.5,2.2,0.9,3.2c2.8,2.1,16.8,10.4,20.3,12C131.1,131,132,131.4,132.8,130.6	L132.8,130.6z" class="st1"/><path d="M248.7,263.6c-1.1,0.1-1.4,1-1.6,1.7c-1.3,3.5-5.3,19.4-5.8,22.8c-0.2,1.7,0.5,2.5,1.6,2.9	c1.5,0.5,3.9,0.5,7.7,0.2s6.1-0.6,7.6-1.3c1.1-0.5,1.7-1.4,1.2-3.1c-1-3.3-7.1-18.5-8.8-21.8C250.2,264.4,249.8,263.5,248.7,263.6	L248.7,263.6z" class="st1"/><path d="M257.8,256.2c-0.5,1,0.1,1.7,0.6,2.3c2.4,2.9,13.8,14.6,16.4,16.8c1.3,1.1,2.4,0.9,3.3,0.1	c1.2-1.1,2.4-3.1,4.2-6.4s2.7-5.5,2.9-7.1c0.2-1.2-0.3-2.2-2-2.7c-3.3-0.9-19.5-3.6-23.2-3.8C259.3,255.3,258.3,255.2,257.8,256.2	L257.8,256.2z" class="st1"/><path d="M127.2,140.4c-0.2-1.1-1.1-1.3-1.9-1.4c-3.7-0.9-19.8-3.2-23.3-3.3c-1.7-0.1-2.5,0.8-2.7,2	c-0.3,1.6-0.1,3.9,0.6,7.6s1.2,6,2.1,7.4c0.6,1.1,1.6,1.6,3.2,0.9c3.2-1.3,17.6-9,20.7-11.1C126.6,142,127.4,141.5,127.2,140.4	L127.2,140.4z" class="st1"/><circle cx="196" cy="344.2" r="5.8" class="st1"/><circle cx="196" cy="47.8" r="5.8" class="st1"/><circle cx="234.4" cy="339.1" r="5.8" class="st1"/><circle cx="157.6" cy="52.9" r="5.8" class="st1"/><circle cx="270.1" cy="324.3" r="5.8" class="st1"/><ellipse cx="121.9" cy="67.7" class="st1" rx="5.8" ry="5.8" transform="matrix(0.1602 -0.9871 0.9871 0.1602 35.5958 177.1579)"/><circle cx="300.8" cy="300.8" r="5.8" class="st1"/><circle cx="91.2" cy="91.2" r="5.8" class="st1"/><circle cx="324.3" cy="270.1" r="5.8" class="st1"/><circle cx="67.7" cy="121.9" r="5.8" class="st1"/><circle cx="339.1" cy="234.4" r="5.8" class="st1"/><circle cx="52.9" cy="157.6" r="5.8" class="st1"/><circle cx="344.2" cy="196" r="5.8" class="st1"/><circle cx="47.8" cy="196" r="5.8" class="st1"/><circle cx="339.1" cy="157.6" r="5.8" class="st1"/><circle cx="52.9" cy="234.4" r="5.8" class="st1"/><circle cx="324.3" cy="121.9" r="5.8" class="st1"/><circle cx="67.7" cy="270.1" r="5.8" class="st1"/><circle cx="300.8" cy="91.2" r="5.8" class="st1"/><circle cx="91.2" cy="300.8" r="5.8" class="st1"/><circle cx="270.1" cy="67.7" r="5.8" class="st1"/><circle cx="121.9" cy="324.3" r="5.8" class="st1"/><circle cx="234.4" cy="52.9" r="5.8" class="st1"/><circle cx="157.6" cy="339.1" r="5.8" class="st1"/></svg>