<svg id="Layer_2" data-name="Layer 2" xmlns="http://www.w3.org/2000/svg" xmlns:xlink="http://www.w3.org/1999/xlink" viewBox="0 0 1200 630"><defs><style>.cls-1{fill:#28646e;}.cls-2{fill:url(#linear-gradient);}</style><linearGradient id="linear-gradient" x1="134.5" y1="315" x2="526.5" y2="315" gradientUnits="userSpaceOnUse"><stop offset="0" stop-color="#d2f0f0"/><stop offset="1" stop-color="#f0e6b4"/></linearGradient></defs><title>LikeCoin_PressKit_1</title><path class="cls-1" d="M644.88,345.71H621.46a1.28,1.28,0,0,1-1.4-1.41V295.05a2.56,2.56,0,0,0-2.82-2.81h-8.06a2.55,2.55,0,0,0-2.81,2.81v57.77c0,3.58,2,5.63,5.63,5.63h32.88a2.55,2.55,0,0,0,2.81-2.81v-7.12A2.55,2.55,0,0,0,644.88,345.71Z"/><path class="cls-1" d="M989.49,317.88h-9a2.52,2.52,0,0,0-2.73,2.81v34.95a2.52,2.52,0,0,0,2.73,2.81h9a2.53,2.53,0,0,0,2.74-2.81V320.69A2.53,2.53,0,0,0,989.49,317.88Z"/><path class="cls-1" d="M980.76,308.77c.77-.46.65-1.26.57-1.89-.4-3.11-3.46-16.39-4.4-19.11a1.88,1.88,0,0,0-2.32-1.51c-1.33.26-3.06,1.12-5.78,2.76s-4.3,2.77-5.14,3.83a1.89,1.89,0,0,0,.25,2.76c2,2.1,12.3,11,14.87,12.79.52.36,1.17.85,1.93.38Z"/><path class="cls-1" d="M988.76,291.22c.79.42,1.41-.1,1.91-.49a160.48,160.48,0,0,0,14.17-13.55,1.89,1.89,0,0,0,.11-2.77c-.9-1-2.53-2.06-5.33-3.55s-4.58-2.27-5.92-2.46a1.9,1.9,0,0,0-2.25,1.63c-.79,2.77-3.14,16.19-3.37,19.32-.05.63-.13,1.43.66,1.86Z"/><path class="cls-1" d="M683.49,317.88h-9a2.53,2.53,0,0,0-2.74,2.81v34.95a2.53,2.53,0,0,0,2.74,2.81h9a2.52,2.52,0,0,0,2.73-2.81V320.69A2.52,2.52,0,0,0,683.49,317.88Z"/><path class="cls-1" d="M674.76,308.77c.77-.46.64-1.26.56-1.89-.39-3.11-3.45-16.39-4.39-19.11a1.89,1.89,0,0,0-2.32-1.51c-1.33.26-3.07,1.12-5.78,2.76s-4.3,2.77-5.14,3.83a1.89,1.89,0,0,0,.25,2.76c2,2.1,12.3,11,14.87,12.79.52.36,1.16.85,1.93.38Z"/><path class="cls-1" d="M682.76,291.22c.79.42,1.41-.1,1.91-.49a160.48,160.48,0,0,0,14.17-13.55,1.88,1.88,0,0,0,.1-2.77c-.89-1-2.52-2.06-5.33-3.55s-4.57-2.27-5.91-2.46a1.9,1.9,0,0,0-2.25,1.63c-.79,2.77-3.14,16.19-3.37,19.32-.05.63-.13,1.43.66,1.86Z"/><path class="cls-1" d="M757.45,358.4h-8.07a2.55,2.55,0,0,1-2.81-2.81V343.68a9.35,9.35,0,0,0-18.69,0v11.91a2.56,2.56,0,0,1-2.82,2.81H717a2.56,2.56,0,0,1-2.82-2.81V296.25a2.57,2.57,0,0,1,2.82-2.82h8.06a2.56,2.56,0,0,1,2.82,2.82v25.16a1.92,1.92,0,0,0,2,1.92,5,5,0,0,0,3.58-2.43l10.85-16c1.31-1.81,2.44-2.69,4.23-2.69H758c2,0,3.07,1.66,1.92,3.45l-12.16,16.51c-.64,1-.77,1.92.77,2.69a20.9,20.9,0,0,1,11.77,18.81v11.91A2.55,2.55,0,0,1,757.45,358.4Z"/><path class="cls-1" d="M802.8,300.9c-13.08,0-21.81,9.45-21.81,20.23v17.93c0,10.78,8.73,20.23,21.81,20.23,11.92,0,16.49-5.63,18.82-10.32a2.85,2.85,0,0,0-.73-3.63l-5.69-3.76a2.44,2.44,0,0,0-3.63.61c-2.3,3.87-5,5.59-8.77,5.59a8.62,8.62,0,0,1-8.85-8.72v-2.18a1.21,1.21,0,0,1,1.34-1.33h24c3.39,0,5.33-1.94,5.33-5.33v-9.09C824.6,310.35,815.88,300.9,802.8,300.9Zm8.84,22.41a1.21,1.21,0,0,1-1.33,1.34h-15a1.22,1.22,0,0,1-1.34-1.34v-2.18a8.85,8.85,0,0,1,17.69,0Z"/><path class="cls-1" d="M869.83,303.21c5.57,0,7.84,3.67,10.25,7.71.88,1.4,2.4,1.52,3.79.64l5.94-3.92c1.52-1,1.14-2.91.76-3.8-2.4-6.2-9.48-12.65-20.74-12.65-13.66,0-22.77,9.87-22.77,21.13v25.85c0,11.26,9.11,21.12,22.77,21.12,11.26,0,18.34-6.45,20.74-12.65.38-.88.76-2.78-.76-3.79l-5.94-3.92a2.55,2.55,0,0,0-3.79.63c-2.41,4.05-4.68,7.71-10.25,7.71a9,9,0,0,1-9.23-9.1V312.32A9,9,0,0,1,869.83,303.21Z"/><path class="cls-1" d="M930.32,301.51c-13.08,0-21.8,9.45-21.8,20.23v17.32c0,10.78,8.72,20.23,21.8,20.23s21.81-9.45,21.81-20.23V321.74C952.13,311,943.41,301.51,930.32,301.51Zm8.85,37.55a8.85,8.85,0,0,1-17.69,0V321.74a8.85,8.85,0,0,1,17.69,0Z"/><path class="cls-1" d="M1042.47,301.55a22.13,22.13,0,0,0-11.13,2.94,1.25,1.25,0,0,1-1.79-.51,2.59,2.59,0,0,0-2.31-1.15h-5a2.56,2.56,0,0,0-2.81,2.82v50a2.55,2.55,0,0,0,2.81,2.81h8.06a2.56,2.56,0,0,0,2.82-2.81V322.92a9.34,9.34,0,0,1,18.68,0v32.72a2.55,2.55,0,0,0,2.81,2.81h8.06a2.56,2.56,0,0,0,2.82-2.81V322.92C1065.5,311.53,1056.29,301.55,1042.47,301.55Z"/><circle class="cls-2" cx="330.5" cy="315" r="196"/><path class="cls-1" d="M330.5,498.75c-101.32,0-183.75-82.43-183.75-183.75S229.18,131.25,330.5,131.25,514.25,213.68,514.25,315,431.82,498.75,330.5,498.75Zm0-351.94c-92.74,0-168.19,75.45-168.19,168.19S237.76,483.19,330.5,483.19,498.7,407.74,498.7,315,423.24,146.81,330.5,146.81Z"/><path class="cls-1" d="M318.35,281.43a5.22,5.22,0,0,1-3.46-9.14c14.76-13,21.29-23.74,22.45-25.76,4.34-7.56,11.31-11.47,18.63-10.47a5.22,5.22,0,0,1-1.41,10.35c-4.27-.57-7.13,3.53-8.16,5.33-1.3,2.27-8.61,14.29-24.59,28.39A5.25,5.25,0,0,1,318.35,281.43Z"/><path class="cls-1" d="M230.39,370a5.23,5.23,0,0,1-3.35-9.24,145.56,145.56,0,0,1,19.23-12.85,5.23,5.23,0,0,1,4.67,9.35,140.4,140.4,0,0,0-17.21,11.53A5.17,5.17,0,0,1,230.39,370Z"/><path class="cls-1" d="M361.77,320.43c2.07,1.94,4.48,1.1,6.7-1C383.61,305,399.65,282.34,405,270.58c1.14-2.51,3.45-3.91,5.93-2.92,2.91,1.18,2.87,6.19.23,11.63-7,14.4-16.7,30.26-35.86,50.1a4,4,0,0,0,.09,5.91c1.69,1.52,4.43,1.42,7-1.19,9.95-10.15,16.65-18,22.41-26.15,1.47-2.14,3.25-3,5-2.61,2.52.5,2.92,2.92,2.15,5.83-1.25,4.7-14.47,22-19.7,27.87-14.2,15.84-28.41,24.52-55.74,38.73-9.54,5-16.68,9.7-21,17-3.93,6.64-5.11,8.81-5.51,9.65a6.64,6.64,0,0,0,2.91,8.84,6.43,6.43,0,0,0,8.72-3.35c0-.08-.2.11,4.94-8.58a37.3,37.3,0,0,1,16.1-14.2c27.34-12.46,38.54-22.32,54.4-38.18,7.24-7.24,17.24-22.75,20-27.34,7.64-12.86,3.63-23.89-3.27-25.76a.88.88,0,0,1-.55-1.3c5.34-9.15,7.77-15.47,8.78-20.37,1.36-6.66-.53-14.74-9.67-16.71a.88.88,0,0,1-.64-1.09c.57-2.11,1.14-4.77,1.53-6.52,1.92-8.65-3.55-16.48-10.12-17.89a15.23,15.23,0,0,0-12.32,2.57,1.22,1.22,0,0,1-1.59-.2,9.54,9.54,0,0,0-6.82-3.18c-5.73-.1-11.36,1.66-15.48,10.46-2.95,6.29-7.34,14.74-20.2,29-11.93,13.23-28.54,26.13-38.79,32.86-1.8,1.18-4.32.9-4-1.51.48-3.84,4.59-29.59,5.29-37.18,1.14-12.33-5.49-18-12.93-19-6.12-.83-15.41.93-20.5,14.87-3,8.17-9.2,21.59-14.47,43.21-3.71,15.21-4.32,32.94-.93,53.31a5.15,5.15,0,0,1-.67,3.56c-4.06,6.68-10,15.47-13.32,23.14a6.58,6.58,0,0,0,2.73,8.38,6.44,6.44,0,0,0,8.91-2.9c2-4.16,6-12,7.61-15.21,2.76-5.65,4.59-9.38,5.34-11.73.68-2.14,1.08-4.62-.15-10.26-2.08-9.49-2.81-27.33,1.06-43.05a443.74,443.74,0,0,1,15.4-48c1.56-3.85,3.77-5.05,6-4.85s6.43,1.27,5.22,9.11c-2.16,14.09-5.22,32-6.23,38-.49,2.95-1.06,9.85,4.39,13,4.25,2.46,8.93,1.09,14.1-2.36,11.64-7.76,31.69-23.57,44.29-37.72,13.22-14.85,17.43-23.69,20.83-31.69,1.55-3.65,5.53-3.62,6.94-3.21s3.11,2.31,1.91,6.33c-2.93,9.76-15,32.12-38.26,53.09-2.63,2.38-2.26,5.19-.92,6.66s3.71,2.35,6.42,0c20.9-17.82,32.83-39.12,38.19-50.51a94.17,94.17,0,0,0,4.58-11.7c1.14-3.31,3.69-4.49,5.47-4.12,2.54.54,4.22,3.15,3.41,7.44a75.56,75.56,0,0,1-5.69,15.88c-6.7,14.22-20.85,33.25-36.11,49.59A4.29,4.29,0,0,0,361.77,320.43Z"/><path class="cls-1" d="M267.28,249.61c.81-.71.49-1.62.26-2.35-1.12-3.59-7.53-18.61-9.21-21.63-.85-1.52-1.92-1.73-3.07-1.29-1.51.58-3.38,2-6.24,4.48s-4.48,4.18-5.25,5.6c-.59,1.09-.52,2.18.88,3.21,2.77,2.06,16.83,10.37,20.25,12,.69.32,1.55.75,2.36,0Z"/><path class="cls-1" d="M383.17,382.57c-1.07.07-1.37,1-1.63,1.7-1.29,3.54-5.33,19.37-5.82,22.79-.25,1.71.47,2.53,1.65,2.88,1.55.46,3.88.49,7.68.23s6.09-.59,7.57-1.26c1.13-.5,1.73-1.41,1.25-3.08-.95-3.31-7.07-18.46-8.82-21.8-.35-.67-.78-1.54-1.85-1.46Z"/><path class="cls-1" d="M392.31,375.23c-.49.95.13,1.69.61,2.28,2.35,2.94,13.78,14.61,16.44,16.81,1.34,1.11,2.41.92,3.32.09,1.2-1.09,2.44-3.06,4.19-6.44s2.66-5.52,2.86-7.12c.16-1.22-.31-2.21-2-2.67-3.33-.91-19.45-3.56-23.21-3.79-.76-.05-1.72-.14-2.22.82Z"/><path class="cls-1" d="M261.74,259.41c-.19-1.06-1.14-1.26-1.87-1.44-3.66-.9-19.84-3.18-23.29-3.31-1.73-.06-2.47.75-2.69,2-.29,1.59-.06,3.91.61,7.65s1.25,6,2.07,7.4c.63,1.06,1.6,1.56,3.2.91,3.2-1.31,17.59-9,20.71-11.14.63-.43,1.45-.94,1.26-2Z"/><circle class="cls-1" cx="330.5" cy="463.19" r="5.83"/><circle class="cls-1" cx="330.5" cy="166.81" r="5.83"/><circle class="cls-1" cx="368.86" cy="458.14" r="5.83"/><circle class="cls-1" cx="292.15" cy="171.86" r="5.83"/><circle class="cls-1" cx="404.6" cy="443.34" r="5.83"/><circle class="cls-1" cx="256.41" cy="186.66" r="5.83"/><circle class="cls-1" cx="435.29" cy="419.79" r="5.83"/><circle class="cls-1" cx="225.71" cy="210.21" r="5.83"/><circle class="cls-1" cx="458.84" cy="389.1" r="5.83"/><circle class="cls-1" cx="202.16" cy="240.9" r="5.83"/><circle class="cls-1" cx="473.64" cy="353.35" r="5.83"/><circle class="cls-1" cx="187.36" cy="276.65" r="5.83"/><circle class="cls-1" cx="478.69" cy="315" r="5.83"/><circle class="cls-1" cx="182.31" cy="315" r="5.83"/><circle class="cls-1" cx="473.64" cy="276.65" r="5.83"/><circle class="cls-1" cx="187.36" cy="353.35" r="5.83"/><circle class="cls-1" cx="458.84" cy="240.9" r="5.83"/><circle class="cls-1" cx="202.16" cy="389.1" r="5.83"/><circle class="cls-1" cx="435.29" cy="210.21" r="5.83"/><circle class="cls-1" cx="225.71" cy="419.79" r="5.83"/><circle class="cls-1" cx="404.6" cy="186.66" r="5.83"/><circle class="cls-1" cx="256.41" cy="443.34" r="5.83"/><circle class="cls-1" cx="368.86" cy="171.86" r="5.83"/><circle class="cls-1" cx="292.15" cy="458.14" r="5.83"/></svg>