<svg xmlns="http://www.w3.org/2000/svg" width="256" height="256" viewBox="0 0 256 256">
  <rect width="256" height="256" fill="#0D1F2D" rx="40"/>
  <!-- Outer hexagon -->
  <polygon points="128,20 220,73 220,183 128,236 36,183 36,73" fill="none" stroke="#0F9B77" stroke-width="10"/>
  <!-- Inner hexagon -->
  <polygon points="128,60 190,95 190,165 128,200 66,165 66,95" fill="#0F9B77" opacity="0.18"/>
  <!-- Gold lines -->
  <line x1="128" y1="20" x2="128" y2="236" stroke="#F0A500" stroke-width="7" opacity="0.7"/>
  <line x1="36" y1="73" x2="220" y2="183" stroke="#F0A500" stroke-width="7" opacity="0.7"/>
  <line x1="220" y1="73" x2="36" y2="183" stroke="#F0A500" stroke-width="7" opacity="0.7"/>
  <!-- Center dot -->
  <circle cx="128" cy="128" r="22" fill="#F0A500"/>
  <!-- Corner dots -->
  <circle cx="128" cy="20" r="11" fill="#0F9B77"/>
  <circle cx="220" cy="73" r="11" fill="#0F9B77"/>
  <circle cx="220" cy="183" r="11" fill="#0F9B77"/>
  <circle cx="128" cy="236" r="11" fill="#0F9B77"/>
  <circle cx="36" cy="183" r="11" fill="#0F9B77"/>
  <circle cx="36" cy="73" r="11" fill="#0F9B77"/>
</svg>
