<svg width="500" height="500" viewBox="0 0 500 500" fill="none" xmlns="http://www.w3.org/2000/svg">
<rect width="500" height="500" rx="250" fill="#4C67EF"/>
<path d="M385.413 126.608L385.402 72.9166L349.093 112.57C348.665 113.039 331.514 131.762 309.682 155.619C308.303 149.517 306.319 143.498 303.728 137.646C293.23 113.903 274.084 95.6593 249.819 86.2769C225.553 76.8945 199.074 77.4881 175.258 87.9638C151.442 98.4292 133.141 117.517 123.73 141.707C118.131 156.088 117.327 170.073 117.285 181.861C117.16 213.382 117.191 371.799 117.191 373.392L117.201 427.083L153.51 387.43C153.939 386.961 171.09 368.238 192.921 344.381C194.3 350.483 196.285 356.502 198.875 362.354C209.373 386.097 228.53 404.341 252.796 413.723C264.233 418.149 276.152 420.356 288.07 420.346C301.43 420.346 314.769 417.566 327.356 412.036C351.172 401.571 369.473 382.483 378.884 358.293C384.483 343.912 385.277 329.917 385.329 318.129C385.444 286.618 385.413 128.201 385.413 126.608ZM159.067 182.017C159.099 173.644 159.558 164.793 162.682 156.765C168.061 142.946 178.507 132.043 192.107 126.066C199.304 122.9 206.919 121.318 214.544 121.318C221.344 121.318 228.154 122.578 234.693 125.108C248.555 130.471 259.491 140.884 265.487 154.453C271.483 168.011 271.827 183.089 266.448 196.908C263.293 205.009 257.402 212.101 252.054 217.963C239.321 231.928 192.608 282.942 158.963 319.701C158.973 270.207 158.994 201.573 159.067 182.017ZM343.536 317.983C343.505 326.356 343.045 335.207 339.922 343.235C334.543 357.054 324.097 367.957 310.497 373.934C296.897 379.911 281.772 380.255 267.91 374.892C254.049 369.529 243.113 359.116 237.117 345.547C231.121 331.989 230.776 316.911 236.156 303.092C239.31 294.991 245.202 287.899 250.55 282.037C263.283 268.072 309.996 217.058 343.641 180.299C343.63 229.793 343.62 298.427 343.536 317.983Z" fill="white"/>
</svg>
